<svg enable-background="new 0 0 257.00 257.00" height="257" viewBox="0 0 257 257" width="257" xmlns="http://www.w3.org/2000/svg" xmlns:xlink="http://www.w3.org/1999/xlink"><linearGradient id="a"><stop offset=".0186047" stop-color="#e3d191"/><stop offset=".55814" stop-color="#e2af00"/><stop offset=".787252" stop-color="#ab7800"/><stop offset="1" stop-color="#744100"/></linearGradient><linearGradient id="b" gradientUnits="objectBoundingBox" x1="0" x2="1" xlink:href="#a" y1=".500002" y2=".500002"/><linearGradient id="c" gradientTransform="matrix(.962737714378 .270436856428 -.270436856428 .962737714378 .108359479117 -.022423840081)" gradientUnits="objectBoundingBox" x1=".135552" x2="1.08855" y1=".382006" y2=".382006"><stop offset=".0186047" stop-color="#cebe83"/><stop offset=".55814" stop-color="#c79c07"/><stop offset=".787252" stop-color="#8f6604"/><stop offset="1" stop-color="#573101"/></linearGradient><linearGradient id="d" gradientTransform="matrix(.965924218131 .258825046754 -.258825046754 .965924218131 .099963049259 -.018102514851)" gradientUnits="objectBoundingBox" x1=".118731" x2="1.11874" xlink:href="#a" y1=".370587" y2=".370587"/><linearGradient id="e"><stop offset=".0186047" stop-color="#d7b77e"/><stop offset=".55814" stop-color="#d4b780"/><stop offset=".787252" stop-color="#d7bc89"/><stop offset="1" stop-color="#dbc292"/></linearGradient><linearGradient id="f" gradientUnits="objectBoundingBox" x1="0" x2="1" xlink:href="#e" y1=".5" y2=".5"/><linearGradient id="g" gradientUnits="objectBoundingBox" x1="-.0142857" x2="1.01429" xlink:href="#e" y1=".5" y2=".5"/><linearGradient id="h"><stop offset=".0186047" stop-color="#e5d5b4"/><stop offset="1" stop-color="#efe4d0"/></linearGradient><linearGradient id="i" gradientUnits="objectBoundingBox" x1="0" x2="1" xlink:href="#h" y1=".485328" y2=".485328"/><linearGradient id="j" gradientUnits="objectBoundingBox" x1="-.0168539" x2="1.01685" xlink:href="#h" y1=".484031" y2=".484031"/><linearGradient id="k" gradientUnits="objectBoundingBox" x1="0" x2="1" xlink:href="#h" y1=".5" y2=".5"/><linearGradient id="l" gradientUnits="objectBoundingBox" x1="-.03125" x2="1.03125" xlink:href="#h" y1=".5" y2=".5"/><linearGradient id="m"><stop offset=".0186047" stop-color="#d9bf8d"/><stop offset="1" stop-color="#d7b77e"/></linearGradient><linearGradient id="n" gradientUnits="objectBoundingBox" x1=".0473923" x2="1" xlink:href="#m" y1=".485131" y2=".485131"/><linearGradient id="o" gradientUnits="objectBoundingBox" x1=".0272265" x2="1.02228" xlink:href="#m" y1=".484616" y2=".484616"/><linearGradient id="p"><stop offset=".0186047" stop-color="#e7d7b9"/><stop offset="1" stop-color="#eee2cd"/></linearGradient><linearGradient id="q" gradientUnits="objectBoundingBox" x1="0" x2="1" xlink:href="#p" y1=".484211" y2=".484211"/><linearGradient id="r" gradientUnits="objectBoundingBox" x1="-.0199115" x2="1.01991" xlink:href="#p" y1=".483146" y2=".483146"/><linearGradient id="s" gradientUnits="objectBoundingBox" x1="0" x2="1" xlink:href="#p" y1=".500002" y2=".500002"/><linearGradient id="t" gradientUnits="objectBoundingBox" x1="-.0330883" x2="1.03309" xlink:href="#p" y1=".500002" y2=".500002"/><linearGradient id="u" gradientTransform="matrix(.835210209593 .549930819095 -.549930819095 .835210209593 .167400210582 .007381776503)" gradientUnits="objectBoundingBox" x1=".0713832" x2="1.03221" y1=".283012" y2=".283012"><stop offset=".0186047" stop-color="#58a406"/><stop offset="1" stop-color="#163b02"/></linearGradient><linearGradient id="v"><stop offset=".0186047" stop-color="#7de30f"/><stop offset="1" stop-color="#235e03"/></linearGradient><linearGradient id="w" gradientTransform="matrix(.834891133771 .550415111303 -.550415111303 .834891133771 .16576147005 .009535336208)" gradientUnits="objectBoundingBox" x1=".0669872" x2="1.03742" xlink:href="#v" y1=".281063" y2=".281063"/><linearGradient id="x" gradientUnits="objectBoundingBox" x1="0" x2="1" y1=".5" y2=".5"><stop offset=".0186047" stop-color="#7de30f"/><stop offset="1" stop-color="#64be0c"/></linearGradient><linearGradient id="y" gradientUnits="objectBoundingBox" x1="0" x2="1" xlink:href="#v" y1=".368428" y2=".368428"/><linearGradient id="z" gradientUnits="objectBoundingBox" x1=".0100334" x2="1" xlink:href="#v" y1=".5" y2=".5"/><linearGradient id="A" gradientUnits="objectBoundingBox" x1="0" x2=".964238" y1=".49999" y2=".49999"><stop offset=".0186047" stop-color="#7de30f"/><stop offset="1" stop-color="#163a01"/></linearGradient><linearGradient id="B" gradientUnits="objectBoundingBox" x1="-.0252396" x2=".971609" y1=".504507" y2=".504507"><stop offset=".0186047" stop-color="#2e6f05"/><stop offset="1" stop-color="#133401"/></linearGradient><linearGradient id="C" gradientUnits="objectBoundingBox" x1="0" x2="1" y1=".499997" y2=".499997"><stop offset=".0186047" stop-color="#3c8406"/><stop offset="1" stop-color="#153801"/></linearGradient><g stroke-linejoin="round"><path d="m98.5776 26.1908h18.0004c12.702 0 23 10.2973 23 23v160.5002c0 12.702-10.298 23-23 23h-18.0004c-12.7026 0-23-10.298-23-23v-160.5002c0-12.7027 10.2974-23 23-23z" fill="url(#b)" stroke-width=".2"/><g stroke-width="3"><path d="m108.077 26.1915c17.949 0 32.5 6.9402 32.5 15.5002 0 8.5603-14.55 15.5-32.5 15.5-17.9491 0-32.4996-6.9397-32.4996-15.5 0-8.56 14.5515-15.5002 32.4996-15.5002z" fill="url(#d)" stroke="url(#c)"/><path d="m119.078 69.1915v59.9995l75 14 30-17-27.5-36.9995z" fill="url(#g)" stroke="url(#f)"/><path d="m119.578 67.1915 5.625-1.1668 8.5-3.75 5-4.5 2.5-4.5 67.375 14.9168-14 19z" fill="url(#j)" stroke="url(#i)"/><path d="m208.578 68.1915 33 41.9995-17 17-31-39.9995z" fill="url(#l)" stroke="url(#k)"/><path d="m102.911 69.8582-45.3334 33.9998-22 50.667 32.6665 2 34.6669-30z" fill="url(#o)" stroke="url(#n)"/><path d="m56.9109 103.858-28.6668-10.6665 46-33.3333.7088-.5 4.25 5 9.0412 3.5 15.3339.6665z" fill="url(#r)" stroke="url(#q)"/><path d="m28.2441 93.1915-16.6665 45.3335 23.3333 16 22-49.334z" fill="url(#t)" stroke="url(#s)"/></g><path d="m115.586 155.344 32.667 5.334.667-35.334 29.333 2.667-.167 38.167 34.5 5.5v32.5l-33.5-6v38.5l-30-7.5v-37l-34-7.5z" fill="url(#w)" stroke="url(#u)"/><path d="m115.836 155.178 29-6 4.5.5v11.5z" fill="url(#x)" stroke-width=".2"/><path d="m149.17 125.678 26.083-5.584 27.583 1.917-25.333 6z" fill="url(#y)" stroke-width=".2"/><path d="m177.836 166.011 24.667-6.333v-37.667l-24.917 5.917z" fill="url(#z)" stroke-width=".2"/><path d="m202.503 159.678 36.917 7.333-27.25 5-35.667-6z" fill="url(#A)" stroke-width=".2"/><path d="m212.503 204.011 26.417-5.5v-31.5l-26.334 5.083z" fill="url(#B)" stroke-width=".2"/><path d="m178.836 236.011 23.667-6.333v-28.667l-24-4.333z" fill="url(#C)" stroke-width=".2"/></g></svg>