<?xml version="1.0" encoding="utf-8"?>
<!DOCTYPE svg PUBLIC "-//W3C//DTD SVG 1.1//EN" "http://www.w3.org/Graphics/SVG/1.1/DTD/svg11.dtd">
<svg x="0px" y="0px" width="48" height="48" overflow="hidden" viewBox="0, 0, 48, 48" preserveAspectRatio="xMidYMid"
     font-size="0" id="svg" xml:space="preserve" xmlns="http://www.w3.org/2000/svg"
     xmlns:xml="http://www.w3.org/XML/1998/namespace" version="1.1">
  <path d="M21.2107 42 C21.2106 42 21.2106 42 21.21042 42 C20.78235 42 20.35298 41.9357 19.93429 41.80849 L18.77216 41.45554 C13.41434 39.82834 9.990301 33.26894 10.97693 26.52211 C11.07799 25.83101 11.40405 25.22233 11.87787 24.83977 C12.35177 24.45745 12.93171 24.33506 13.48062 24.50186 L25.7378 28.22437 C26.79165 28.54445 27.46262 29.82978 27.26846 31.1566 L26.48377 36.52358 C26.01961 39.69674 23.80186 42 21.2107 42 z M15.00547 30.21304 C15.43278 33.20809 17.24122 35.74226 19.74529 36.50271 L20.90742 36.85566 C21.00792 36.88606 21.11001 36.90156 21.2106 36.90156 C21.81904 36.90156 22.34001 36.35896 22.44933 35.61133 L22.88864 32.60707 z" stroke-width="0.1045356" id="path2" xml:space="preserve" style="fill:#D7565A;" />
  <path d="M25.73771 28.22414 L13.48053 24.50162 C12.93162 24.33482 12.35177 24.45722 11.87777 24.83954 C11.40387 25.22209 11.0778 25.83078 10.97683 26.52187 C10.63005 28.89344 10.83011 31.24088 11.46574 33.35997 L18.35722 35.85917 C16.58506 34.72911 15.34878 32.62027 15.00528 30.2128 L22.88845 32.60698 L22.44914 35.61124 C22.34086 36.35152 21.82917 36.8898 21.2286 36.90054 L25.88602 38.58952 C26.16924 37.96043 26.37493 37.26619 26.48349 36.52322 L27.26818 31.15624 C27.46252 29.82954 26.79155 28.54433 25.73771 28.22413 z" enable-background="new" stroke-width="0.1045356" opacity="0.1" id="path4" xml:space="preserve" />
  <polygon points="437.48,101.576 437.48,395.685 50.118,282.704 31.307,282.704 31.307,214.557 50.118,214.557" transform="matrix(0.09375018, 0, 0, 0.1165618, 0, -5.83977)" id="polygon6" xml:space="preserve" style="fill:#FF6465;" />
  <path d="M3.866257 23.14111 C3.866257 21.56928 4.086383 20.15492 4.437384 19.16939 L1.763441 19.16939 C0.789564 19.16939 0 20.94754 0 23.14111 C0 25.33469 0.789564 27.11284 1.763441 27.11284 L4.437477 27.11284 C4.086383 26.12731 3.866257 24.71307 3.866257 23.14111 z" stroke-width="0.1045356" id="path8" xml:space="preserve" style="fill:#D7565A;" />
  <path d="M33.46103 9.37446 C31.9375 13.11237 31.09843 18.00155 31.09843 23.14111 C31.09843 28.28067 31.9375 33.16986 33.46103 36.90776 C33.56613 37.1656 33.67422 37.41597 33.78475 37.66052 L41.01383 40.28211 L41.01383 6.00012 L33.78475 8.62171 C33.67422 8.86625 33.56613 9.11663 33.46103 9.37446 z" enable-background="new" stroke-width="0.1045356" opacity="0.1" id="path10" xml:space="preserve" />
  <ellipse cx="41.01383" cy="23.14054" rx="6.986169" ry="17.14053" stroke-width="0.1045356" id="ellipse12" xml:space="preserve" style="fill:#FF7374;" />
  <path d="M42.73208 13.8755 C42.54074 13.33279 42.34902 12.87948 42.16574 12.50275 C41.64261 11.42805 40.38505 11.42805 39.86192 12.50275 C39.67854 12.87924 39.48692 13.33279 39.29557 13.8755 C38.41001 16.38647 37.92223 19.67725 37.92223 23.14123 C37.92223 26.60521 38.40992 29.89587 39.29557 32.40696 C39.48692 32.94967 39.67864 33.40298 39.86192 33.77959 C40.38504 34.85429 41.64261 34.85429 42.16574 33.77959 C42.34911 33.4031 42.54074 32.94956 42.73208 32.40696 C43.61765 29.89599 44.10543 26.60521 44.10543 23.14123 C44.10543 19.67725 43.61765 16.38647 42.73208 13.8755 z" stroke-width="0.1045356" id="path14" xml:space="preserve" style="fill:#464754;" />
  <g transform="matrix(0.09375018, 0, 0, 0.1165618, 0, -5.83977)" id="g16" xml:space="preserve" />
  <g transform="matrix(0.09375018, 0, 0, 0.1165618, 0, -5.83977)" id="g18" xml:space="preserve" />
  <g transform="matrix(0.09375018, 0, 0, 0.1165618, 0, -5.83977)" id="g20" xml:space="preserve" />
  <g transform="matrix(0.09375018, 0, 0, 0.1165618, 0, -5.83977)" id="g22" xml:space="preserve" />
  <g transform="matrix(0.09375018, 0, 0, 0.1165618, 0, -5.83977)" id="g24" xml:space="preserve" />
  <g transform="matrix(0.09375018, 0, 0, 0.1165618, 0, -5.83977)" id="g26" xml:space="preserve" />
  <g transform="matrix(0.09375018, 0, 0, 0.1165618, 0, -5.83977)" id="g28" xml:space="preserve" />
  <g transform="matrix(0.09375018, 0, 0, 0.1165618, 0, -5.83977)" id="g30" xml:space="preserve" />
  <g transform="matrix(0.09375018, 0, 0, 0.1165618, 0, -5.83977)" id="g32" xml:space="preserve" />
  <g transform="matrix(0.09375018, 0, 0, 0.1165618, 0, -5.83977)" id="g34" xml:space="preserve" />
  <g transform="matrix(0.09375018, 0, 0, 0.1165618, 0, -5.83977)" id="g36" xml:space="preserve" />
  <g transform="matrix(0.09375018, 0, 0, 0.1165618, 0, -5.83977)" id="g38" xml:space="preserve" />
  <g transform="matrix(0.09375018, 0, 0, 0.1165618, 0, -5.83977)" id="g40" xml:space="preserve" />
  <g transform="matrix(0.09375018, 0, 0, 0.1165618, 0, -5.83977)" id="g42" xml:space="preserve" />
  <g transform="matrix(0.09375018, 0, 0, 0.1165618, 0, -5.83977)" id="g44" xml:space="preserve" />
</svg>