<svg enable-background="new 0 0 513.00 513.00" height="513" viewBox="0 0 513 513" width="513" xmlns="http://www.w3.org/2000/svg" xmlns:xlink="http://www.w3.org/1999/xlink"><linearGradient id="a"><stop offset="0" stop-color="#f3f8f8"/><stop offset="1" stop-color="#00eefc"/></linearGradient><radialGradient id="b" cx="143.306" cy="238.153" gradientUnits="userSpaceOnUse" r="90.0819" xlink:href="#a"/><radialGradient id="c" cx="216.599" cy="128.862" gradientUnits="userSpaceOnUse" r="86.9583" xlink:href="#a"/><radialGradient id="d" cx="256.141" cy="272.727" gradientTransform="matrix(.998421574801 -.05616368019 .05616368019 .998421574801 -14.913054995353 14.81631708184)" gradientUnits="userSpaceOnUse" r="53.0208" xlink:href="#a"/><radialGradient id="e" cx="90.3913" cy="116.894" gradientUnits="userSpaceOnUse" r="54.5" xlink:href="#a"/><radialGradient id="f" cx="86.8913" cy="74.8938" gradientUnits="userSpaceOnUse" r="12.25" xlink:href="#a"/><radialGradient id="g" cx="177.802" cy="110.886" gradientUnits="userSpaceOnUse" r="145.481"><stop offset="0" stop-color="#f3f8f8" stop-opacity=".352941"/><stop offset="1" stop-color="#f3f8f8" stop-opacity=".239216"/></radialGradient><linearGradient id="h" gradientTransform="matrix(.655308800604 .755361089712 -.755361089712 .655308800604 -.003249508313 -.307456982276)" gradientUnits="objectBoundingBox" x1=".335258" x2="1.6905" y1="-.157289" y2="-.157289"><stop offset=".0186047" stop-color="#343a4d"/><stop offset=".488372" stop-color="#6eadd2"/><stop offset=".772093" stop-color="#485270"/></linearGradient><linearGradient id="i" gradientTransform="matrix(.764134976836 .645056382943 -.645056382943 .764134976836 .175748877561 -.003203506549)" gradientUnits="objectBoundingBox" x1=".0922551" x2="1.05405" y1=".238722" y2=".238722"><stop offset=".00431034" stop-color="#adb1b2"/><stop offset=".185345" stop-color="#9ea8ab"/><stop offset="1" stop-color="#d4e2e3"/></linearGradient><linearGradient id="j" gradientTransform="matrix(.763777755912 .645479309951 -.645479309951 .763777755912 .17393648771 -.001462945921)" gradientUnits="objectBoundingBox" x1=".0889669" x2="1.05822" y1=".23691" y2=".23691"><stop offset=".00431034" stop-color="#b3b8b9"/><stop offset=".185345" stop-color="#a4afb2"/><stop offset="1" stop-color="#e2f0f1"/></linearGradient><linearGradient id="k" gradientTransform="matrix(.294843029916 -.955545701529 .955545701529 .294843029916 -.601065494359 .89538881077)" gradientUnits="objectBoundingBox" x1=".30613" x2="1.13963" y1=".854941" y2=".854941"><stop offset="0" stop-color="#7d8181"/><stop offset=".616379" stop-color="#d1e2e3"/><stop offset="1" stop-color="#7d8181"/></linearGradient><linearGradient id="l" gradientTransform="matrix(.294637657375 -.955609047078 .955609047078 .294637657375 -.604295180051 .895870473051)" gradientUnits="objectBoundingBox" x1=".304705" x2="1.14378" y1=".857278" y2=".857278"><stop offset="0" stop-color="#898e8f"/><stop offset=".616379" stop-color="#e4f7f8"/><stop offset="1" stop-color="#898e8f"/></linearGradient><linearGradient id="m"><stop offset=".00431034" stop-color="#c3c7c7"/><stop offset="1" stop-color="#1d1f1f"/></linearGradient><radialGradient id="n" cx="246.313" cy="297.362" gradientTransform="matrix(.79657209341 .604543546819 -.604543546819 .79657209341 229.875139675183 -88.415346295874)" gradientUnits="userSpaceOnUse" r="18.9715" xlink:href="#m"/><linearGradient id="o"><stop offset=".00431034" stop-color="#7f8181"/><stop offset="1" stop-color="#485657"/></linearGradient><radialGradient id="p" cx="246.313" cy="297.362" gradientTransform="matrix(.795035724027 .60656260808 -.60656260808 .795035724027 230.853959413072 -88.455810087772)" gradientUnits="userSpaceOnUse" r="19.0013" xlink:href="#o"/><radialGradient id="q" cx="393.949" cy="256.183" gradientTransform="matrix(.796571734667 .604544019514 -.604544019514 .796571734667 235.014245984264 -186.04439030443)" gradientUnits="userSpaceOnUse" r="18.9715" xlink:href="#m"/><radialGradient id="r" cx="393.949" cy="256.183" gradientTransform="matrix(.795035321739 .606563135368 -.606563135368 .795035321739 236.136777087057 -186.446215150036)" gradientUnits="userSpaceOnUse" r="19.0013" xlink:href="#o"/><linearGradient id="s" gradientTransform="matrix(.288189131772 .957573508577 -.957573508577 .288189131772 .260569472242 -.514046720527)" gradientUnits="objectBoundingBox" x1=".476049" x2="1.5512" y1="-.0817556" y2="-.0817556"><stop offset=".0646552" stop-color="#6a6c6c"/><stop offset=".437209" stop-color="#c6c7c7"/><stop offset=".790698" stop-color="#ced5d5"/><stop offset="1" stop-color="#5f6565"/></linearGradient><linearGradient id="t" gradientTransform="matrix(.289505644509 .957176306538 -.957176306538 .289505644509 .243388246451 -.52521006697)" gradientUnits="objectBoundingBox" x1=".475475" x2="1.58164" y1="-.0986589" y2="-.0986589"><stop offset=".0646552" stop-color="#707373"/><stop offset=".790698" stop-color="#f3f5f5"/><stop offset="1" stop-color="#6c7373"/></linearGradient><linearGradient id="u" gradientTransform="matrix(.313757342662 .949503201641 -.949503201641 .313757342662 .629804007504 -.608631216792)" gradientUnits="objectBoundingBox" x1=".735961" x2="1.36482" y1=".131391" y2=".131391"><stop offset=".0646552" stop-color="#707373"/><stop offset=".49569" stop-color="#c3c7c7"/><stop offset="1" stop-color="#6c7373"/></linearGradient><linearGradient id="v" gradientTransform="matrix(.315049332887 .949075296195 -.949075296195 .315049332887 .621529975138 -.623900876898)" gradientUnits="objectBoundingBox" x1=".743007" x2="1.39343" y1=".118649" y2=".118649"><stop offset="0" stop-color="#656565"/><stop offset=".323276" stop-color="#dcdede"/><stop offset=".400862" stop-color="#eef1f1"/><stop offset=".762931" stop-color="#e6e8e8"/><stop offset="1" stop-color="#1d1f1f"/></linearGradient><linearGradient id="w" gradientTransform="matrix(.870550257015 .492079515943 -.492079515943 .870550257015 .090703975486 -.27475056909)" gradientUnits="objectBoundingBox" x1=".567559" x2="1.58161" y1=".0350217" y2=".0350217"><stop offset=".0646552" stop-color="#707373"/><stop offset=".49569" stop-color="#f3f5f5"/><stop offset="1" stop-color="#6c7373"/></linearGradient><linearGradient id="x" gradientUnits="objectBoundingBox" x1="-.020979" x2="1.02797" y1=".679102" y2=".679102"><stop offset="0" stop-color="#a1a4a4"/><stop offset=".539535" stop-color="#b1b2b2"/></linearGradient><linearGradient id="y" gradientTransform="matrix(.655473341975 -.755218311457 .755218311457 .655473341975 -.720919192651 .521579907078)" gradientUnits="objectBoundingBox" x1=".211204" x2="1.45529" y1="1.05093" y2="1.05093"><stop offset=".0646552" stop-color="#707373"/><stop offset=".353488" stop-color="#f3f5f5"/><stop offset=".790698" stop-color="#e7eaea"/><stop offset="1" stop-color="#6c7373"/></linearGradient><linearGradient id="z" gradientTransform="matrix(.791656739239 .61096612608 -.61096612608 .791656739239 .188013129525 -.013382063665)" gradientUnits="objectBoundingBox" x1=".113628" x2="1.24453" y1=".268983" y2=".268983"><stop offset="0" stop-color="#636565"/><stop offset=".539535" stop-color="#b3b9b9"/></linearGradient><linearGradient id="A" gradientTransform="matrix(.792355503064 .610059633777 -.610059633777 .792355503064 .184214051366 -.010918973207)" gradientUnits="objectBoundingBox" x1=".108147" x2="1.25652" y1=".265151" y2=".265151"><stop offset="0" stop-color="#707373"/><stop offset=".539535" stop-color="#f3f5f5"/></linearGradient><linearGradient id="B" gradientTransform="matrix(.645289411267 .763938201497 -.763938201497 .645289411267 .234743120318 .020853061016)" gradientUnits="objectBoundingBox" x1=".0949163" x2="1.0214" y1=".263209" y2=".263209"><stop offset="0" stop-color="#6eadd2"/><stop offset=".939535" stop-color="#414b69"/></linearGradient><linearGradient id="C" gradientTransform="matrix(.242125125488 .970245032766 -.970245032766 .242125125488 .293091349392 -.360468812113)" gradientUnits="objectBoundingBox" x1=".377285" x2="1.39264" y1=".00737609" y2=".00737609"><stop offset=".0186047" stop-color="#c70707"/><stop offset="1" stop-color="#420101"/></linearGradient><linearGradient id="D" gradientTransform="matrix(.242133524728 .970242936693 -.970242936693 .242133524728 .270585976871 -.370496120595)" gradientUnits="objectBoundingBox" x1=".372453" x2="1.42783" y1="-.0120424" y2="-.0120424"><stop offset=".0186047" stop-color="#f17b7b"/><stop offset="1" stop-color="#ee0606"/></linearGradient><linearGradient id="E" gradientTransform="matrix(0 1 -1 0 .772982 -.233676)" gradientUnits="objectBoundingBox" x1=".503329" x2="1.02035" y1=".269653" y2=".269653"><stop offset=".0186047" stop-color="#f8f8f8" stop-opacity=".643137"/><stop offset="1" stop-color="#eae8e8" stop-opacity=".25098"/></linearGradient><g stroke-linejoin="round"><path d="m46.0464 35.8011h263.3336c10.493 0 19 8.5066 19 19v261.9999c0 10.493-8.507 19-19 19h-263.3336c-10.4934 0-19-8.507-19-19v-261.9999c0-10.4934 8.5066-19 19-19z" fill="#0e0e0e" stroke-width=".2"/><path d="m176.724 271.09c-51.768 0-93.8652-41.408-94.9774-92.909l-26.0225-.299c.0686 66.585 54.9619 120.541 122.6669 120.541 18.784 0 36.582-4.153 52.497-11.577l-15.211-24.084c-11.886 5.351-25.072 8.328-38.953 8.328z" fill="#fff" stroke="url(#b)" stroke-width="3"/><path d="m268.523 200.634 31.77-9.327c.505-4.448.764-8.969.764-13.55 0-66.642-54.919-120.6664-122.666-120.6664-16.363 0-31.977 3.1515-46.25 8.8709l8.952 22.0364c11.003-4.4548 23.031-6.9079 35.631-6.9079 52.467 0 95 42.533 95 95 0 8.487-1.113 16.714-3.201 24.544z" fill="#fff" stroke="url(#c)" stroke-width="3"/><path d="m89.7166 147-2 23-2.5019 48.328-1 42.5 5 9.5 8 5 11.0003.5 12-3.5 10.502-9.328 12.998-11.672.502-9.828-2.002-5.172-5.5-.5-3.5 2-11.498 8.172-8 6.5-4.502-.672-3-3.5.5-37 1.5-20.5 3-22.5 2-22-4.998-7.328-8-2-8.0004 3.5z" fill="#03d1dd" stroke-width=".2"/><path d="m154.717 157-4 5-1.5 5.5-1 10.5v29l-.5 41 3 6 6 1 9-.5 5.5-3.5-.5-6.5-2-7-1-39.5 2.5-12 1-18.5-.5-7-7-4.5z" fill="#03d1dd" stroke-width=".2"/><path d="m153.217 121.5-4 4.5-2 11.5 2.5 10.5 5.5 5h10.5l3.5-6.5 2-11.5-2-7.5-8-6z" fill="#03d1dd" stroke-width=".2"/><path d="m177.55 147.5-3.333 7.333 1 13.667 15.333 42.667 8.333 26 5 4 8-.334 4-3.333 7-13.667 9-25 2.667-13 4-15.333 2-11.667.667-17.333-6.334-7.333-6.333-3-5-.334-3 5.334-1.667 25-2 17.333-4 20.333-2.666 7-2.334-.333-2-9-1.333-14.667-4.333-19.333-2-8.667-6-5z" fill="#03d1dd" stroke-width=".2"/><path d="m277.925 110.25-5 3.333-9.667 7-5.333 9.667-6.667 9-2.666 9.667-2.667 10.333-.667 22.333 2.667 14.334 4.333 9 6.334 6 5.333 4.333 12.667.667 10-3 6.666-5.334 6.667-8.333 3.667-3.667 2.666-7.666-1-6-2.666-2.667h-6.667l-7.667 5.667-5.666 6.333-7.667 2.667-8-5.334-2.333-6.666-.334-8.667 6-1.333 3.667 4 7 .333 7.667-8 9.333-9.667 4.667-9.666 3.666-11-1.666-13.667-4.667-7.333-4.667-3-9-3.667zm-5 50.667-6.333 1-1.667-7.667 1.833-9.5 5.5-9.833 8.125-8.417 4.667 1 1 15-4.333 10z" fill="#03d1dd" stroke-width=".2"/><path d="m216.452 244.848 43.239 77.275 6.077 1.749 3.873-3.163-1.248-5.953-19.435-34.225 43.516-60.855z" fill="#fff" stroke="url(#d)" stroke-width="3"/><path d="m57.1413 169.894h22l1-35.5 3-12.5 6-7 7.5 1 7.9997 5.5 11 15 4.5 3.5 11 1h6l .5-9.5-16.5-16.5-11.5-8-9.9997-6 12.4997-15.5002 6.5-13.5 2.5-6.5-10 4-10.5 12.5-7.4997 7-5 2.5-10-4-6-1.5-3.5 4v-6l-2-4.5-14.5-15-4.5-.5.5 8.5 8.5 11 4.5 2.5h-18l5.5 7 16-1.5-8.5 5.5-5.5 3.5002-1 4.5 5 1 4.5-2.5 5.5-3.5002 4-.5 4 6.0002-4.5 12-4.5 7.5-4 11-2.5 12.5z" fill="#fff" stroke="url(#e)" stroke-width="3"/><path d="m86.6413 64.8938-6 1.5-3 5-1.5 8 3 4.5 4-1 1.5-3.5 3.6666.3334.3334 2.6666 2.3333 2.3334 4-2.3334 1.1667-5 1.5-5.5-3-5.5z" fill="#fff" stroke="url(#f)" stroke-width="3"/><path d="m32.8024 181.891c35.3062-29.541 87.9816-48.288 146.8246-48.288 56.849 0 107.941 17.498 143.175 45.322v-120.7589c0-10.0988-8.186-18.2854-18.285-18.2854h-253.4292c-10.0987 0-18.2854 8.1866-18.2854 18.2854z" fill="url(#g)" stroke-width=".2"/><path d="m280.174 405.162 21 24 16 11 29 18 22 12 23 7 17 1 14-4 13-8 5-13-2-6-11 4-24-2-21-7-22-10-20-14-14-12-7-7-4-5-2-2z" fill="url(#h)" stroke="#21324b" stroke-linecap="round" stroke-width="3"/><g stroke-width="2"><path d="m226.248 179.478 190-47.333c6-2 26-5.278 26 13.5l.333 184.664c0 18.777-13.628 38.906-32.406 38.906l-180.667 49.833c-18.778 0-34.927.042-34.927-18.736v-188c0-18.778 9.667-28.834 31.667-32.834z" fill="url(#j)" stroke="url(#i)"/><path d="m191.081 154.476 190-47.334c7.417-1.91 10.792.422 14.958 3.089l35.438 20.583-206.063 49.668c-22 4-31.666 14.055-31.666 32.833l.625 196.999-30-18c-5.563-4.166-5-6.729-4.959-17.005v-188c0-18.778 9.667-28.833 31.667-32.833z" fill="url(#l)" stroke="url(#k)"/><path d="m255.456 284.376c5.631 3.965 6.104 12.993 1.054 20.165-5.049 7.172-13.708 9.772-19.339 5.806-5.632-3.965-6.104-12.993-1.055-20.164 5.049-7.172 13.708-9.772 19.34-5.807z" fill="url(#p)" stroke="url(#n)"/><path d="m403.091 243.197c5.632 3.966 6.104 12.994 1.055 20.165-5.05 7.172-13.708 9.772-19.34 5.807s-6.104-12.993-1.054-20.165c5.049-7.172 13.708-9.772 19.339-5.807z" fill="url(#r)" stroke="url(#q)"/><path d="m285.404 310.683 67-19 1 43-83.5 25.833z" fill="url(#t)" stroke="url(#s)" stroke-linecap="round"/><path d="m284.946 268.35 66.833-18.498.144 39.36-66.834 18.497z" fill="url(#v)" stroke="url(#u)"/><path d="m351.904 249.85.083 39.625-66.791 18.25" fill="none" stroke="url(#w)" stroke-linecap="round"/></g><path d="m328.413 330.326 52-21.5c4-1.75 4.637-.726 10.158 4.479v22c0 4.418-.5 8.25-5.5 10.5l-57 22c-3.73-1.601-7.98-.601-8-8v-22c0-4.418 1.842-4.979 8.342-7.479z" fill="#fff" stroke="url(#x)" stroke-linecap="round"/><path d="m320.8 334.683.021-.009v-.158l.151.091 63.147-27.567 58.248 36.049-63.388 26.554.342.207-.5 31.666-58-35.5v-31.32z" fill="url(#y)" stroke-linecap="round" stroke-width=".2"/><path d="m384.071 365.516 52-21.5c4-1.75 10.5.582 10.5 5v22c0 4.418-.5 8.25-5.5 10.5l-57 22c-3.75 1.25-8-3.582-8-8v-22c0-4.418 1.5-5.5 8-8z" fill="url(#A)" stroke="url(#z)" stroke-linecap="round"/><path d="m408.174 478.162 27.667-.333 11-2.667 9.333-6 7.333-6 8.334-11.333 2.666-13.334-.333-11-4-11.333-14.333-17.333-24.25-26.834-5-4-29.75 11.25-.417 3.584 5.667 5.166 10.25 11 11.5 11.5 7 8.25 7.75 16.75v9.75l-1 11.584-8.667 12.333z" fill="url(#B)" stroke="#21324b" stroke-linecap="round" stroke-width="3"/><path d="m177.75 355.366 29.945-29.945 46.359 46.359 46.105-46.105 29.946 29.945-46.105 46.105 45.708 45.709-29.945 29.945-45.708-45.708-45.963 45.963-29.946-29.946 45.963-45.963z" fill="url(#D)" stroke="url(#C)" stroke-width="6"/><path d="m207.686 322.257-33.72 32.952 15.439 15.67c17.374 9.859 44.353 15.9 69.131 15.9 18.256 0 41.386-4.491 56.073-10.139l19.357-21.2-34.105-33.49-45.78 45.165z" fill="url(#E)" stroke-width=".2"/></g></svg>