<?xml version="1.0" encoding="utf-8"?>
<!DOCTYPE svg PUBLIC "-//W3C//DTD SVG 1.1//EN" "http://www.w3.org/Graphics/SVG/1.1/DTD/svg11.dtd">
<svg xmlns="http://www.w3.org/2000/svg" xmlns:xlink="http://www.w3.org/1999/xlink" version="1.1" baseProfile="full" width="207" height="207" viewBox="0 0 207.00 207.00" enable-background="new 0 0 207.00 207.00" xml:space="preserve">
	<path fill="#FF0000" fill-opacity="1" stroke-width="1.12885" stroke-linejoin="round" stroke="#000000" stroke-opacity="1" d="M 160.659,61.2671C 185.475,61.2671 205.617,80.1803 205.617,103.494C 205.617,126.806 185.475,145.734 160.659,145.734C 142.023,145.734 126.027,135.062 119.214,119.872L 107.532,119.872C 107.378,111.597 107.853,112.731 107.853,112.731L 98.1951,116.545L 97.2122,116.545L 92.4121,109.406L 88.0315,116.014L 86.6152,116.064L 80.7605,109.651L 71.821,117.539L 67.9343,117.543L 57.7175,109.406L 50.8669,116.856L 49.2932,116.796L 44.8801,113.685L 38.8071,116.006L 33.4563,115.758L 26.5935,108.466L 21.4089,115.12L 18.199,115.12L 1.38257,93.316L 1.38257,87.1149L 119.214,87.1149C 126.027,71.9291 142.023,61.2671 160.659,61.2671 Z M 182.112,91.7401C 175.619,91.7401 170.359,97.015 170.359,103.508C 170.359,110.001 175.619,115.261 182.112,115.261C 188.605,115.261 193.88,109.986 193.88,103.494C 193.88,97.0001 188.605,91.7401 182.112,91.7401 Z "/>
	<rect x="7.73535" y="90.9653" fill="#AF0000" fill-opacity="1" stroke-width="1.12885" stroke-linejoin="round" stroke="#000000" stroke-opacity="1" width="109.177" height="3.54089"/>
	<rect x="13.3655" y="98.7899" fill="#AF0000" fill-opacity="1" stroke-width="1.12885" stroke-linejoin="round" stroke="#000000" stroke-opacity="1" width="103.546" height="3.53967"/>
	<path fill="#0B006C" fill-opacity="0.643137" stroke-width="0.2" stroke-linejoin="round" d="M 161.818,80.0314L 126.468,80.0314L 131.906,85.6885L 167.247,85.6885M 158.088,121.156L 157.281,115.924L 164.399,110.536L 156.12,110.556L 155.684,110.633L 157.326,121.282"/>
	<path fill="#0B006C" fill-opacity="0.643137" stroke-width="0.2" stroke-linejoin="round" d="M 133.225,88.4689L 133.225,125.278L 168.611,125.278L 168.611,88.4689M 149.512,119.515L 149.568,122.451L 135.898,122.451L 135.898,108.24L 139.155,108.221C 139.452,111.656 141.094,113.984 141.094,113.984L 143.211,112.506C 142.412,111.214 141.902,109.745 141.735,108.221L 149.568,108.24L 149.512,116.821C 147.072,116.349 145.606,115.037 145.606,115.037L 145.587,115.037L 144.083,117.17C 145.67,118.425 147.544,119.226 149.512,119.515 Z M 149.568,105.47L 141.429,105.45C 141.381,104.773 141.206,101.86 141.595,100.487C 142.042,98.9429 142.514,98.3447 142.514,98.3447C 144.629,98.3143 146.05,101.308 146.162,101.521C 146.905,101.348 148.398,101.674 148.658,101.839C 147.711,98.5944 143.536,96.6948 143.536,96.6948C 145.113,95.1591 146.107,93.256 146.43,92.1563L 146.014,92.1356C 144.278,94.6276 142.514,95.6606 142.514,95.6606C 141.985,95.4679 141.465,95.225 140.974,94.9268L 141.4,94.5411L 137.782,96.7135L 138.385,97.2622L 139.778,96.0068C 140.407,96.7902 140.88,97.2721 140.88,97.2721C 138.747,100.371 138.887,104.145 139.024,105.45L 135.898,105.47L 135.898,91.2491L 149.568,91.2491M 165.893,122.451L 152.232,122.451L 152.232,108.24L 165.893,108.24M 165.893,105.47L 162.783,105.45C 162.448,102.089 160.863,99.793 160.863,99.793L 158.737,101.268C 159.647,102.746 160.055,104.234 160.203,105.45L 152.232,105.47L 152.222,96.9261C 154.793,97.3585 156.352,98.7303 156.352,98.7303L 156.371,98.7401L 157.865,96.6079C 156.221,95.3119 154.273,94.4818 152.222,94.2323L 152.232,91.2491L 165.893,91.2491M 125.114,118.213L 130.552,123.86L 130.552,87.0972L 125.114,81.4401"/>
	<path fill="#0B006C" fill-opacity="0.643137" stroke-width="0.2" stroke-linejoin="round" d="M 142.31,94.6071C 143.84,94.6071 143.84,92.2225 142.31,92.2225C 140.787,92.2225 140.787,94.6071 142.31,94.6071 Z M 142.282,93.7574C 142.496,93.7574 142.672,93.8937 142.672,94.0664C 142.672,94.2422 142.496,94.3754 142.282,94.3754C 142.058,94.3754 141.892,94.2422 141.892,94.0664C 141.892,93.8937 142.068,93.7574 142.282,93.7574 Z M 139.024,94.9736C 139.117,95.1095 139.2,95.225 139.322,95.3815L 140.631,94.6842C 140.519,94.6178 140.417,94.5411 140.324,94.4623L 141.103,94.1533L 140.184,94.3558L 139.618,94.472L 137.019,95.0428L 137.373,95.6207M 139.887,94.126C 139.192,93.5846 138.59,92.9176 138.115,92.1661L 137.345,92.1167C 137.725,92.957 138.134,93.6514 138.606,94.3558"/>
</svg>
