<?xml version="1.0" encoding="utf-8"?>
<!DOCTYPE svg PUBLIC "-//W3C//DTD SVG 1.1//EN" "http://www.w3.org/Graphics/SVG/1.1/DTD/svg11.dtd">
<svg xmlns="http://www.w3.org/2000/svg" xmlns:xlink="http://www.w3.org/1999/xlink" version="1.1" baseProfile="full" width="207" height="207" viewBox="0 0 207.00 207.00" enable-background="new 0 0 207.00 207.00" xml:space="preserve">
	<g>
		<path fill="#8C8C8C" fill-opacity="1" stroke-width="1.12885" stroke-linejoin="round" stroke="#000000" stroke-opacity="1" d="M 160.66,61.2667C 185.475,61.2667 205.617,80.1799 205.617,103.493C 205.617,126.806 185.475,145.733 160.66,145.733C 142.023,145.733 126.027,135.061 119.214,119.871L 107.533,119.871C 107.378,111.596 107.853,112.731 107.853,112.731L 98.1953,116.545L 97.2122,116.545L 92.4121,109.406L 88.0315,116.013L 86.6152,116.064L 80.7607,109.651L 71.8213,117.538L 67.9346,117.543L 57.7175,109.406L 50.8672,116.855L 49.2932,116.796L 44.8804,113.685L 38.8071,116.006L 33.4565,115.757L 26.5935,108.465L 21.4092,115.119L 18.199,115.119L 1.38281,93.3157L 1.38281,87.1145L 119.214,87.1145C 126.027,71.9287 142.023,61.2667 160.66,61.2667 Z M 182.112,91.7397C 175.619,91.7397 170.359,97.0146 170.359,103.507C 170.359,110.001 175.619,115.26 182.112,115.26C 188.605,115.26 193.88,109.986 193.88,103.493C 193.88,96.9998 188.605,91.7397 182.112,91.7397 Z "/>
		<rect x="7.73535" y="90.965" fill="#4D4D4D" fill-opacity="1" stroke-width="1.12885" stroke-linejoin="round" stroke="#000000" stroke-opacity="1" width="109.177" height="3.54089"/>
		<rect x="13.3657" y="98.7896" fill="#4D4D4D" fill-opacity="1" stroke-width="1.12885" stroke-linejoin="round" stroke="#000000" stroke-opacity="1" width="103.546" height="3.53967"/>
		<path fill="#3B3B3B" fill-opacity="0.643137" stroke-width="0.2" stroke-linejoin="round" d="M 161.818,80.0309L 126.468,80.0309L 131.907,85.688L 167.248,85.688M 158.089,121.156L 157.281,115.923L 164.399,110.536L 156.12,110.556L 155.684,110.632L 157.326,121.281"/>
		<path fill="#3B3B3B" fill-opacity="0.643137" stroke-width="0.2" stroke-linejoin="round" d="M 133.225,88.4684L 133.225,125.278L 168.611,125.278L 168.611,88.4684M 149.512,119.515L 149.568,122.451L 135.898,122.451L 135.898,108.24L 139.155,108.22C 139.452,111.655 141.094,113.983 141.094,113.983L 143.211,112.505C 142.413,111.213 141.902,109.744 141.735,108.22L 149.568,108.24L 149.512,116.821C 147.072,116.349 145.606,115.036 145.606,115.036L 145.587,115.036L 144.083,117.169C 145.67,118.425 147.545,119.225 149.512,119.515 Z M 149.568,105.469L 141.429,105.449C 141.382,104.772 141.206,101.859 141.595,100.487C 142.042,98.9424 142.514,98.3442 142.514,98.3442C 144.629,98.3137 146.05,101.307 146.162,101.52C 146.905,101.347 148.398,101.673 148.659,101.839C 147.711,98.5939 143.537,96.6943 143.537,96.6943C 145.113,95.1584 146.107,93.2555 146.43,92.1558L 146.014,92.135C 144.278,94.6271 142.514,95.6602 142.514,95.6602C 141.985,95.4674 141.465,95.2244 140.974,94.9263L 141.4,94.5406L 137.782,96.713L 138.386,97.2617L 139.778,96.0063C 140.408,96.7897 140.88,97.2716 140.88,97.2716C 138.747,100.371 138.887,104.145 139.025,105.449L 135.898,105.469L 135.898,91.2487L 149.568,91.2487M 165.893,122.451L 152.232,122.451L 152.232,108.24L 165.893,108.24M 165.893,105.469L 162.783,105.449C 162.448,102.088 160.864,99.7925 160.864,99.7925L 158.737,101.268C 159.647,102.746 160.056,104.234 160.204,105.449L 152.232,105.469L 152.223,96.9255C 154.793,97.358 156.352,98.7297 156.352,98.7297L 156.371,98.7395L 157.865,96.6074C 156.221,95.3113 154.273,94.4812 152.223,94.2317L 152.232,91.2487L 165.893,91.2487M 125.114,118.212L 130.552,123.859L 130.552,87.0967L 125.114,81.4396"/>
		<path fill="#3B3B3B" fill-opacity="0.643137" stroke-width="0.2" stroke-linejoin="round" d="M 142.311,94.6066C 143.841,94.6066 143.841,92.2219 142.311,92.2219C 140.788,92.2219 140.788,94.6066 142.311,94.6066 Z M 142.282,93.757C 142.496,93.757 142.672,93.8932 142.672,94.0659C 142.672,94.2417 142.496,94.3748 142.282,94.3748C 142.059,94.3748 141.892,94.2417 141.892,94.0659C 141.892,93.8932 142.068,93.757 142.282,93.757 Z M 139.025,94.9731C 139.118,95.109 139.201,95.2244 139.322,95.381L 140.631,94.6837C 140.519,94.6173 140.417,94.5406 140.324,94.4617L 141.104,94.1528L 140.184,94.3552L 139.619,94.4714L 137.02,95.0422L 137.374,95.6202M 139.887,94.1255C 139.192,93.5841 138.59,92.9171 138.115,92.1656L 137.345,92.1162C 137.725,92.9565 138.134,93.6509 138.606,94.3552"/>
	</g>
</svg>
