<?xml version="1.0" encoding="utf-8"?>
<!DOCTYPE svg PUBLIC "-//W3C//DTD SVG 1.1//EN" "http://www.w3.org/Graphics/SVG/1.1/DTD/svg11.dtd">
<svg x="0" y="0" width="48" height="48" overflow="hidden" viewBox="0, 0, 207, 207" preserveAspectRatio="xMidYMid"
     font-size="0" id="svg" xml:space="preserve" xmlns="http://www.w3.org/2000/svg"
     xmlns:xml="http://www.w3.org/XML/1998/namespace" version="1.1">
  <path d="M160.659 61.2671 C185.475 61.2671 205.617 80.1803 205.617 103.494 C205.617 126.806 185.475 145.734 160.659 145.734 C142.023 145.734 126.027 135.062 119.214 119.872 L107.532 119.872 C107.378 111.597 107.853 112.731 107.853 112.731 L98.1951 116.545 L97.2122 116.545 L92.4121 109.406 L88.0315 116.014 L86.6152 116.064 L80.7605 109.651 L71.821 117.539 L67.9343 117.543 L57.7175 109.406 L50.8669 116.856 L49.2932 116.796 L44.8801 113.685 L38.8071 116.006 L33.4563 115.758 L26.5935 108.466 L21.4089 115.12 L18.199 115.12 L1.38257 93.316 L1.38257 87.1149 L119.214 87.1149 C126.027 71.9291 142.023 61.2671 160.659 61.2671 z M182.112 91.7401 C175.619 91.7401 170.359 97.015 170.359 103.508 C170.359 110.001 175.619 115.261 182.112 115.261 C188.605 115.261 193.88 109.986 193.88 103.494 C193.88 97.0001 188.605 91.7401 182.112 91.7401 z" stroke="#000000" stroke-width="1.12885" stroke-linejoin="round" xml:space="preserve" style="fill:#FF0000;" />
  <rect x="7.73535" y="90.9653" width="109.177" height="3.54089" stroke="#000000" stroke-width="1.12885" stroke-linejoin="round" xml:space="preserve" style="fill:#AF0000;" />
  <rect x="13.3655" y="98.7899" width="103.546" height="3.53967" stroke="#000000" stroke-width="1.12885" stroke-linejoin="round" xml:space="preserve" style="fill:#AF0000;" />
  <path d="M161.818 80.0314 L126.468 80.0314 L131.906 85.6885 L167.247 85.6885 M158.088 121.156 L157.281 115.924 L164.399 110.536 L156.12 110.556 L155.684 110.633 L157.326 121.282" fill-opacity="0.643137" stroke-width="0.2" stroke-linejoin="round" xml:space="preserve" style="fill:#0B006C;" />
  <path d="M133.225 88.4689 L133.225 125.278 L168.611 125.278 L168.611 88.4689 M149.512 119.515 L149.568 122.451 L135.898 122.451 L135.898 108.24 L139.155 108.221 C139.452 111.656 141.094 113.984 141.094 113.984 L143.211 112.506 C142.412 111.214 141.902 109.745 141.735 108.221 L149.568 108.24 L149.512 116.821 C147.072 116.349 145.606 115.037 145.606 115.037 L145.587 115.037 L144.083 117.17 C145.67 118.425 147.544 119.226 149.512 119.515 z M149.568 105.47 L141.429 105.45 C141.381 104.773 141.206 101.86 141.595 100.487 C142.042 98.9429 142.514 98.3447 142.514 98.3447 C144.629 98.3143 146.05 101.308 146.162 101.521 C146.905 101.348 148.398 101.674 148.658 101.839 C147.711 98.5944 143.536 96.6948 143.536 96.6948 C145.113 95.1591 146.107 93.256 146.43 92.1563 L146.014 92.1356 C144.278 94.6276 142.514 95.6606 142.514 95.6606 C141.985 95.4679 141.465 95.225 140.974 94.9268 L141.4 94.5411 L137.782 96.7135 L138.385 97.2622 L139.778 96.0068 C140.407 96.7902 140.88 97.2721 140.88 97.2721 C138.747 100.371 138.887 104.145 139.024 105.45 L135.898 105.47 L135.898 91.2491 L149.568 91.2491 M165.893 122.451 L152.232 122.451 L152.232 108.24 L165.893 108.24 M165.893 105.47 L162.783 105.45 C162.448 102.089 160.863 99.793 160.863 99.793 L158.737 101.268 C159.647 102.746 160.055 104.234 160.203 105.45 L152.232 105.47 L152.222 96.9261 C154.793 97.3585 156.352 98.7303 156.352 98.7303 L156.371 98.7401 L157.865 96.6079 C156.221 95.3119 154.273 94.4818 152.222 94.2323 L152.232 91.2491 L165.893 91.2491 M125.114 118.213 L130.552 123.86 L130.552 87.0972 L125.114 81.4401" fill-opacity="0.643137" stroke-width="0.2" stroke-linejoin="round" xml:space="preserve" style="fill:#0B006C;" />
  <path d="M142.31 94.6071 C143.84 94.6071 143.84 92.2225 142.31 92.2225 C140.787 92.2225 140.787 94.6071 142.31 94.6071 z M142.282 93.7574 C142.496 93.7574 142.672 93.8937 142.672 94.0664 C142.672 94.2422 142.496 94.3754 142.282 94.3754 C142.058 94.3754 141.892 94.2422 141.892 94.0664 C141.892 93.8937 142.068 93.7574 142.282 93.7574 z M139.024 94.9736 C139.117 95.1095 139.2 95.225 139.322 95.3815 L140.631 94.6842 C140.519 94.6178 140.417 94.5411 140.324 94.4623 L141.103 94.1533 L140.184 94.3558 L139.618 94.472 L137.019 95.0428 L137.373 95.6207 M139.887 94.126 C139.192 93.5846 138.59 92.9176 138.115 92.1661 L137.345 92.1167 C137.725 92.957 138.134 93.6514 138.606 94.3558" fill-opacity="0.643137" stroke-width="0.2" stroke-linejoin="round" xml:space="preserve" style="fill:#0B006C;" />
</svg>