<?xml version="1.0" encoding="utf-8"?>
<!DOCTYPE svg PUBLIC "-//W3C//DTD SVG 1.1//EN" "http://www.w3.org/Graphics/SVG/1.1/DTD/svg11.dtd">
<svg xmlns="http://www.w3.org/2000/svg" xmlns:xlink="http://www.w3.org/1999/xlink" version="1.1" baseProfile="full" width="95" height="95" viewBox="0 0 95.00 95.00" enable-background="new 0 0 95.00 95.00" xml:space="preserve">
	<path fill="#000000" fill-opacity="1" stroke-linejoin="round" stroke="#000000" stroke-opacity="1" d="M 15.5,2.49992L 79.5,2.49992C 86.6797,2.49992 92.5,8.32023 92.5,15.4999L 92.5,79.4999C 92.5,86.6796 86.6797,92.4999 79.5,92.4999L 15.5,92.4999C 8.3203,92.4999 2.50002,86.6796 2.50002,79.4999L 2.50002,15.4999C 2.50002,8.32023 8.3203,2.49992 15.5,2.49992 Z "/>
	<g>
		<g>
			<path fill="#FFFFFF" fill-opacity="1" stroke-width="0.2" stroke-linejoin="round" d="M 29.4467,55.321L 37.8578,54.6127C 38.371,57.778 39.4129,60.1042 40.9838,61.591C 42.5546,63.0778 44.6762,63.8212 47.3484,63.8212C 50.1709,63.8212 52.2988,63.1462 53.7319,61.7958C 55.165,60.4455 55.8816,58.8664 55.8816,57.0585C 55.8816,55.9003 55.5843,54.915 54.9898,54.1034C 54.3953,53.2919 53.3595,52.5834 51.8826,51.9784C 50.8687,51.5429 48.5594,50.7719 44.9547,49.665C 40.3173,48.2411 37.063,46.5253 35.1918,44.5185C 32.5633,41.6996 31.249,38.2612 31.249,34.2028C 31.249,31.5907 31.8514,29.1484 33.0561,26.8759C 34.2608,24.6029 35.9975,22.8727 38.2661,21.6847C 40.5347,20.4967 43.2743,19.9028 46.4848,19.9028C 51.723,19.9028 55.6673,21.2548 58.3176,23.9594C 60.968,26.6635 62.3589,30.2699 62.4903,34.7785L 54.0792,35.4867C 53.7288,32.9706 52.9731,31.1611 51.8121,30.0578C 50.6512,28.9548 48.9099,28.4032 46.5881,28.4032C 44.1974,28.4032 42.3231,29.0046 40.965,30.2072C 40.0951,30.9821 39.6602,32.0151 39.6602,33.3063C 39.6602,34.487 40.0826,35.498 40.9274,36.339C 42.0039,37.4091 44.6136,38.5583 48.7565,39.7868C 52.8995,41.0153 55.963,42.2568 57.9468,43.5112C 59.9307,44.7655 61.4843,46.4775 62.6077,48.6469C 63.731,50.8163 64.2927,53.5021 64.2927,56.7045C 64.2927,59.5971 63.6106,62.3085 62.2463,64.8395C 60.882,67.3705 58.9528,69.2502 56.4589,70.4789C 53.965,71.7074 50.8562,72.3217 47.1325,72.3217C 41.7129,72.3217 37.5511,70.8735 34.6473,67.9775C 31.7435,65.0812 30.0099,60.8625 29.4467,55.321 Z "/>
		</g>
		<path fill="#FFFFFF" fill-opacity="1" stroke-width="0.2" stroke-linejoin="round" d="M 44.541,12.7528L 50.3743,12.7528C 50.9266,12.7528 51.3743,13.2006 51.3743,13.7528L 51.3743,22.5028C 51.3743,23.0551 50.9266,23.5028 50.3743,23.5028L 44.541,23.5028C 43.9887,23.5028 43.541,23.0551 43.541,22.5028L 43.541,13.7528C 43.541,13.2006 43.9887,12.7528 44.541,12.7528 Z "/>
		<path fill="#FFFFFF" fill-opacity="1" stroke-width="0.2" stroke-linejoin="round" d="M 43.6443,68.1139L 49.4776,68.1139C 50.0299,68.1139 50.4776,68.5617 50.4776,69.1139L 50.4776,77.8639C 50.4776,78.4162 50.0299,78.8639 49.4776,78.8639L 43.6443,78.8639C 43.092,78.8639 42.6443,78.4162 42.6443,77.8639L 42.6443,69.1139C 42.6443,68.5617 43.092,68.1139 43.6443,68.1139 Z "/>
	</g>
	<g>
		<path fill="none" stroke-width="3" stroke-linejoin="round" stroke="#FF0000" stroke-opacity="1" d="M 15.7364,6.08952L 79.4035,6.08952C 84.9263,6.08952 89.4035,10.5668 89.4035,16.0895L 89.4035,80.08C 89.4035,85.6027 84.9263,90.08 79.4035,90.08L 15.7364,90.08C 10.2136,90.08 5.73643,85.6027 5.73643,80.08L 5.73643,16.0895C 5.73643,10.5668 10.2136,6.08952 15.7364,6.08952 Z "/>
		<line fill="none" stroke-width="3" stroke-linejoin="round" stroke="#FF0000" stroke-opacity="1" x1="8.23633" y1="9.0839" x2="86.903" y2="87.0839"/>
	</g>
	<g>
		<radialGradient id="SVGID_Fill1_" cx="-15.8324" cy="9.87394" r="118.103" gradientUnits="userSpaceOnUse">
			<stop offset="0" stop-color="#FFFFFF" stop-opacity="0.843137"/>
			<stop offset="0.77027" stop-color="#FFFFFF" stop-opacity="0.32549"/>
			<stop offset="1" stop-color="#FFFFFF" stop-opacity="0"/>
		</radialGradient>
		<path fill="url(#SVGID_Fill1_)" stroke-width="0.2" stroke-linejoin="round" d="M 16.5448,3.43498L 80.5448,3.43498C 86.6199,3.43498 91.5448,8.36003 91.5448,14.435L 91.5448,77.4347C 91.5448,83.5099 86.6199,88.4347 80.5448,88.4347L 16.5448,88.4347C 10.4696,88.4347 5.54477,83.5099 5.54477,77.4347L 5.54477,14.435C 5.54477,8.36003 10.4696,3.43498 16.5448,3.43498 Z "/>
		<radialGradient id="SVGID_Stroke1_" cx="73.5644" cy="47.4355" r="669.951" gradientUnits="userSpaceOnUse">
			<stop offset="0.869369" stop-color="#F1F1F1" stop-opacity="0"/>
			<stop offset="1" stop-color="#EEEEEE" stop-opacity="0.898039"/>
		</radialGradient>
		<path fill="none" stroke-width="4" stroke-linejoin="round" stroke="url(#SVGID_Stroke1_)" d="M 82.7947,7.43449L 82.7947,7.43449C 86.7988,7.43449 90.0447,10.6806 90.0447,14.6845L 90.0447,80.185C 90.0447,84.1889 86.7988,87.435 82.7947,87.435L 82.7947,87.435C 78.7906,87.435 75.5447,84.1889 75.5447,80.185L 75.5447,14.6845C 75.5447,10.6806 78.7906,7.43449 82.7947,7.43449 Z "/>
		<radialGradient id="SVGID_Stroke2_" cx="21.5251" cy="47.434" r="669.951" gradientUnits="userSpaceOnUse" gradientTransform="rotate(180.000000 21.525101 47.434002)">
			<stop offset="0.869369" stop-color="#F1F1F1" stop-opacity="0"/>
			<stop offset="1" stop-color="#EEEEEE" stop-opacity="0.898039"/>
		</radialGradient>
		<path fill="none" stroke-width="4" stroke-linejoin="round" stroke="url(#SVGID_Stroke2_)" d="M 12.2948,87.435L 12.2948,87.435C 8.29071,87.435 5.04478,84.1889 5.04478,80.185L 5.04478,14.6845C 5.04478,10.6806 8.29071,7.43449 12.2948,7.43449L 12.2948,7.43449C 16.2988,7.43449 19.5448,10.6806 19.5448,14.6845L 19.5448,80.185C 19.5448,84.1889 16.2988,87.435 12.2948,87.435 Z "/>
		<radialGradient id="SVGID_Stroke3_" cx="47.5459" cy="21.4154" r="79.1195" gradientUnits="userSpaceOnUse" gradientTransform="rotate(-90.000000 47.545914 21.415447)">
			<stop offset="0.869369" stop-color="#F1F1F1" stop-opacity="0"/>
			<stop offset="1" stop-color="#EEEEEE" stop-opacity="0.898039"/>
		</radialGradient>
		<path fill="none" stroke-width="4" stroke-linejoin="round" stroke="url(#SVGID_Stroke3_)" d="M 7.54457,12.185L 7.54457,12.185C 7.54457,8.18083 10.7905,4.93498 14.7946,4.93498L 80.2949,4.93498C 84.2991,4.93498 87.5449,8.18083 87.5449,12.185L 87.5449,12.185C 87.5449,16.1889 84.2991,19.435 80.2949,19.435L 14.7946,19.435C 10.7905,19.435 7.54457,16.1889 7.54457,12.185 Z "/>
		<radialGradient id="SVGID_Stroke4_" cx="47.5437" cy="73.4545" r="79.1183" gradientUnits="userSpaceOnUse" gradientTransform="rotate(90.000000 47.543686 73.454514)">
			<stop offset="0.869369" stop-color="#F1F1F1" stop-opacity="0"/>
			<stop offset="1" stop-color="#EEEEEE" stop-opacity="0.898039"/>
		</radialGradient>
		<path fill="none" stroke-width="4" stroke-linejoin="round" stroke="url(#SVGID_Stroke4_)" d="M 87.545,82.685L 87.545,82.685C 87.545,86.6889 84.2991,89.935 80.295,89.935L 14.7947,89.935C 10.7905,89.935 7.54471,86.6889 7.54471,82.685L 7.54471,82.685C 7.54471,78.6808 10.7905,75.435 14.7947,75.435L 80.295,75.435C 84.2991,75.435 87.545,78.6808 87.545,82.685 Z "/>
	</g>
</svg>
