<?xml version="1.0" encoding="utf-8"?>
<!DOCTYPE svg PUBLIC "-//W3C//DTD SVG 1.1//EN" "http://www.w3.org/Graphics/SVG/1.1/DTD/svg11.dtd">
<svg xmlns="http://www.w3.org/2000/svg" xmlns:xlink="http://www.w3.org/1999/xlink" version="1.1" baseProfile="full" width="95" height="95" viewBox="0 0 95.00 95.00" enable-background="new 0 0 95.00 95.00" xml:space="preserve">
	<path fill="#000000" fill-opacity="1" stroke-linejoin="round" stroke="#000000" stroke-opacity="1" d="M 15.5,2.5L 79.5,2.5C 86.6797,2.5 92.5,8.32031 92.5,15.5L 92.5,79.4998C 92.5,86.6794 86.6797,92.5 79.5,92.5L 15.5,92.5C 8.32028,92.5 2.49998,86.6794 2.49998,79.4998L 2.49998,15.5C 2.49998,8.32031 8.32028,2.5 15.5,2.5 Z "/>
	<path fill="#FFFFFF" fill-opacity="1" stroke-width="0.2" stroke-linejoin="round" d="M 28.6353,65.0947C 29.6959,67.7908 31.5558,69.582 33.6745,69.582C 35.6255,69.582 37.3611,68.0508 38.449,65.718L 38.3948,65.5496C 39.476,68.0508 41.269,69.6687 43.2973,69.6687C 45.4091,69.6687 47.2622,67.8926 48.3193,65.207L 48.303,65.3406C 49.3903,67.8469 51.1832,69.4856 53.215,69.4856C 55.3449,69.4856 57.216,67.6582 58.2671,64.9365C 59.3251,67.6624 61.1953,69.491 63.3406,69.491C 65.4189,69.491 67.2522,67.7295 68.3196,65.1052C 69.3734,67.7908 71.2333,69.5876 73.352,69.5876C 75.303,69.5876 77.0383,68.0559 78.1264,65.718L 78.1832,65.6111L 78.25,73.866L 77.7163,73.8684L 77.6832,69.769L 77.6264,69.8762C 76.5383,72.2141 74.803,73.7456 72.852,73.7456C 70.7333,73.7456 68.8734,71.9487 67.8196,69.2632C 66.7522,71.8875 64.9189,73.6489 62.8406,73.6489C 60.6953,73.6489 58.8251,71.8206 57.7671,69.0945C 56.716,71.8162 54.8449,73.6438 52.715,73.6438C 50.6832,73.6438 48.8903,72.0051 47.803,69.4985L 47.8193,69.365C 46.7622,72.0505 44.9091,73.8267 42.7973,73.8267C 40.769,73.8267 38.976,72.2087 37.8948,69.7075L 37.949,69.8762C 36.8611,72.2087 35.1255,73.74 33.1745,73.74C 31.0558,73.74 29.1959,71.9487 28.1353,69.2527C 26.9297,71.9312 25.1945,73.4624 23.2434,73.4624C 21.1248,73.4624 19.2648,71.6658 18.2111,68.9802C 17.1436,71.6042 15.3103,73.3657 13.2321,73.3657L 12.52,73.2979C 12.4722,73.4607 12.4118,73.7769 12.3405,74.1755L 11.75,74.1785C 12.3354,73.7185 12.8047,69.8723 13.02,69.1399L 13.7321,69.2078C 15.8103,69.2078 17.6436,67.4463 18.7111,64.8223C 19.7648,67.5078 21.6248,69.3044 23.7434,69.3044C 25.6944,69.3044 27.4297,67.7732 28.6353,65.0947 Z "/>
	<path fill="#FFFFFF" fill-opacity="1" stroke-linejoin="round" d="M 72.1805,48.0415C 76.4603,48.0415 79.9166,44.5664 79.9166,40.2883C 79.9166,36.0164 76.4603,32.5413 72.1805,32.5413C 67.8958,32.5413 64.4166,36.0164 64.4166,40.2883C 64.4214,44.5664 67.8958,48.0415 72.1805,48.0415 Z "/>
	<path fill="#FFFFFF" fill-opacity="1" stroke-width="0.2" stroke-linejoin="round" d="M 16.8611,55.9583C 22.7917,52.4861 34.625,45.6804 40.5833,42.1526C 46.5417,38.625 46.625,38.375 46.2639,37.4724C 45.9028,36.5696 45.0972,35.0139 44.4583,33.5972C 43.8194,32.1804 43.3472,30.9028 42.3194,30.2083C 41.2917,29.5139 39.7083,29.4028 38.1667,29.6528C 36.625,29.9028 35.125,30.5139 33.0417,31.3054C 30.9583,32.0972 28.2917,33.0696 26.1667,33.5696C 24.0417,34.0696 22.4583,34.0972 21.7778,33.7361C 21.0972,33.375 21.3194,32.625 22.2083,31.8611C 23.0972,31.0972 24.6528,30.3196 27.1389,29.2224C 29.625,28.125 33.0417,26.7083 35.9375,25.375C 38.8333,24.0417 41.2083,22.7917 42.9583,22.4375C 44.7083,22.0833 45.8333,22.625 49.8067,28.8057C 53.7802,34.9861 60.602,46.8057 64.1796,52.9656C 65.6987,55.5808 66.6329,57.176 66.4834,58.1594C 65.7103,57.3884 65.0546,56.3408 64.5696,55.1047C 63.5022,57.7292 61.6689,59.4905 59.5906,59.4905C 57.4453,59.4905 55.5751,57.6621 54.5171,54.9363C 53.466,57.658 51.5949,59.4854 49.465,59.4854C 47.4332,59.4854 45.6403,57.8467 44.553,55.3401L 44.5693,55.2068C 43.5122,57.8923 41.6591,59.6682 39.5473,59.6682C 37.519,59.6682 35.726,58.0505 34.6448,55.5491L 34.699,55.7178C 33.6111,58.0505 31.8755,59.5818 29.9245,59.5818C 27.8058,59.5818 25.9459,57.7903 24.8853,55.0945C 23.6797,57.7727 21.9444,59.304 19.9934,59.304C 18.3746,59.304 16.9068,58.2551 15.8342,56.5623C 16.1536,56.373 16.4962,56.1721 16.8611,55.9583 Z "/>
	<g>
		<path fill="none" stroke-width="3" stroke-linejoin="round" stroke="#FF0000" stroke-opacity="1" d="M 15.5424,6.09497L 79.2099,6.09497C 84.7328,6.09497 89.2099,10.5723 89.2099,16.095L 89.2099,80.0833C 89.2099,85.606 84.7328,90.0833 79.2099,90.0833L 15.5424,90.0833C 10.0196,90.0833 5.54242,85.606 5.54242,80.0833L 5.54242,16.095C 5.54242,10.5723 10.0196,6.09497 15.5424,6.09497 Z "/>
		<line fill="none" stroke-width="3" stroke-linejoin="round" stroke="#FF0000" stroke-opacity="1" x1="8.04214" y1="9.08936" x2="86.7088" y2="87.0894"/>
	</g>
	<g>
		<radialGradient id="SVGID_Fill1_" cx="-16.0266" cy="9.87964" r="118.103" gradientUnits="userSpaceOnUse">
			<stop offset="0" stop-color="#FFFFFF" stop-opacity="0.843137"/>
			<stop offset="0.77027" stop-color="#FFFFFF" stop-opacity="0.32549"/>
			<stop offset="1" stop-color="#FFFFFF" stop-opacity="0"/>
		</radialGradient>
		<path fill="url(#SVGID_Fill1_)" stroke-width="0.2" stroke-linejoin="round" d="M 16.3506,3.44067L 80.3506,3.44067C 86.4257,3.44067 91.3506,8.36548 91.3506,14.4407L 91.3506,77.4402C 91.3506,83.5154 86.4257,88.4402 80.3506,88.4402L 16.3506,88.4402C 10.2755,88.4402 5.35059,83.5154 5.35059,77.4402L 5.35059,14.4407C 5.35059,8.36548 10.2755,3.44067 16.3506,3.44067 Z "/>
		<radialGradient id="SVGID_Stroke1_" cx="73.3702" cy="47.4412" r="669.951" gradientUnits="userSpaceOnUse">
			<stop offset="0.869369" stop-color="#F1F1F1" stop-opacity="0"/>
			<stop offset="1" stop-color="#EEEEEE" stop-opacity="0.898039"/>
		</radialGradient>
		<path fill="none" stroke-width="4" stroke-linejoin="round" stroke="url(#SVGID_Stroke1_)" d="M 82.6005,7.44019L 82.6005,7.44019C 86.6046,7.44019 89.8505,10.686 89.8505,14.6899L 89.8505,80.1904C 89.8505,84.1946 86.6046,87.4404 82.6005,87.4404L 82.6005,87.4404C 78.5965,87.4404 75.3505,84.1946 75.3505,80.1904L 75.3505,14.6899C 75.3505,10.686 78.5965,7.44019 82.6005,7.44019 Z "/>
		<radialGradient id="SVGID_Stroke2_" cx="21.331" cy="47.4397" r="669.951" gradientUnits="userSpaceOnUse" gradientTransform="rotate(180.000000 21.330963 47.439697)">
			<stop offset="0.869369" stop-color="#F1F1F1" stop-opacity="0"/>
			<stop offset="1" stop-color="#EEEEEE" stop-opacity="0.898039"/>
		</radialGradient>
		<path fill="none" stroke-width="4" stroke-linejoin="round" stroke="url(#SVGID_Stroke2_)" d="M 12.1006,87.4407L 12.1006,87.4407C 8.09656,87.4407 4.85063,84.1948 4.85063,80.1909L 4.85063,14.6904C 4.85063,10.6863 8.09656,7.44043 12.1006,7.44043L 12.1006,7.44043C 16.1047,7.44043 19.3506,10.6863 19.3506,14.6904L 19.3506,80.1909C 19.3506,84.1948 16.1047,87.4407 12.1006,87.4407 Z "/>
		<radialGradient id="SVGID_Stroke3_" cx="47.3517" cy="21.4209" r="79.1195" gradientUnits="userSpaceOnUse" gradientTransform="rotate(-90.000000 47.351685 21.420898)">
			<stop offset="0.869369" stop-color="#F1F1F1" stop-opacity="0"/>
			<stop offset="1" stop-color="#EEEEEE" stop-opacity="0.898039"/>
		</radialGradient>
		<path fill="none" stroke-width="4" stroke-linejoin="round" stroke="url(#SVGID_Stroke3_)" d="M 7.35034,12.1904L 7.35034,12.1904C 7.35034,8.18628 10.5963,4.94043 14.6003,4.94043L 80.1007,4.94043C 84.1048,4.94043 87.3507,8.18628 87.3507,12.1904L 87.3507,12.1904C 87.3507,16.1946 84.1048,19.4404 80.1007,19.4404L 14.6003,19.4404C 10.5963,19.4404 7.35034,16.1946 7.35034,12.1904 Z "/>
		<radialGradient id="SVGID_Stroke4_" cx="47.3495" cy="73.46" r="79.1194" gradientUnits="userSpaceOnUse" gradientTransform="rotate(90.000000 47.349457 73.459961)">
			<stop offset="0.869369" stop-color="#F1F1F1" stop-opacity="0"/>
			<stop offset="1" stop-color="#EEEEEE" stop-opacity="0.898039"/>
		</radialGradient>
		<path fill="none" stroke-width="4" stroke-linejoin="round" stroke="url(#SVGID_Stroke4_)" d="M 87.3508,82.6904L 87.3508,82.6904C 87.3508,86.6946 84.1048,89.9404 80.1008,89.9404L 14.6005,89.9404C 10.5963,89.9404 7.35048,86.6946 7.35048,82.6904L 7.35048,82.6904C 7.35048,78.6863 10.5963,75.4404 14.6005,75.4404L 80.1008,75.4404C 84.1048,75.4404 87.3508,78.6863 87.3508,82.6904 Z "/>
	</g>
</svg>
