<?xml version="1.0" encoding="utf-8"?>
<!DOCTYPE svg PUBLIC "-//W3C//DTD SVG 1.1//EN" "http://www.w3.org/Graphics/SVG/1.1/DTD/svg11.dtd">
<svg xmlns="http://www.w3.org/2000/svg" xmlns:xlink="http://www.w3.org/1999/xlink" version="1.1" baseProfile="full" width="91" height="91" viewBox="0 0 91.00 91.00" enable-background="new 0 0 91.00 91.00" xml:space="preserve">
	<path fill="#000000" fill-opacity="1" stroke-linejoin="round" stroke="#000000" stroke-opacity="1" d="M 13.5,0.5L 77.5,0.5C 84.6797,0.5 90.5,6.32031 90.5,13.5L 90.5,77.4998C 90.5,84.6794 84.6797,90.5 77.5,90.5L 13.5,90.5C 6.32031,90.5 0.5,84.6794 0.5,77.4998L 0.5,13.5C 0.5,6.32031 6.32031,0.5 13.5,0.5 Z "/>
	<g>
		<path fill="#FFFFFF" fill-opacity="1" stroke-linejoin="round" stroke="#FFFFFF" stroke-opacity="1" d="M 30.3316,20.2058C 28.9566,20.6016 26.79,21.1848 24.7691,22.2058C 22.7483,23.2266 20.8733,24.6848 19.5816,26.2266C 18.29,27.7683 17.5816,29.3933 17.2066,31.4348C 16.8316,33.4766 16.79,35.9348 17.04,38.2683C 17.29,40.6016 17.8316,42.8098 17.9566,44.4973C 18.0816,46.1848 17.79,47.3516 16.915,48.7058C 16.04,50.0598 14.5816,51.6016 13.6441,53.3933C 12.7066,55.1848 12.29,57.2266 12.6858,59.4766C 13.0816,61.7266 14.29,64.1848 16.0608,66.3723C 17.8316,68.5598 20.165,70.4766 29.1025,71.4558C 38.04,72.4348 53.5816,72.4766 62.4566,71.9973C 71.3316,71.5183 73.54,70.5183 75.1441,68.8098C 76.7483,67.1016 77.7483,64.6848 78.4566,61.8723C 79.165,59.0598 79.5816,55.8516 78.8941,53.7058C 78.2066,51.5598 76.415,50.4766 74.9358,48.7058C 73.4566,46.9348 72.29,44.4766 71.4983,42.1433C 70.7066,39.8098 70.29,37.6016 69.5816,35.9558C 68.8733,34.3098 67.8733,33.2266 66.79,31.8516C 65.7066,30.4766 64.54,28.8098 63.165,27.1641C 61.79,25.5183 60.2066,23.8933 58.29,22.6433C 56.3733,21.3933 54.1233,20.5183 51.2483,20.0183C 48.3733,19.5183 44.8733,19.3933 41.7066,19.3516C 38.54,19.3098 35.7066,19.3516 33.9983,19.4766C 32.29,19.6016 31.7066,19.8098 30.3316,20.2058 Z "/>
		<path fill="#FFFFFF" fill-opacity="0.611765" stroke-width="2" stroke-linejoin="round" stroke="#FFFFFF" stroke-opacity="0.415686" d="M 29.4445,18.4075C 27.9797,18.8281 25.6717,19.448 23.519,20.5332C 21.3663,21.6182 19.369,23.1682 17.993,24.8069C 16.6171,26.4456 15.8625,28.1726 15.4631,30.3428C 15.0636,32.5127 15.0192,35.1257 15.2855,37.6057C 15.5518,40.0857 16.1288,42.4331 16.262,44.2268C 16.3951,46.0203 16.0845,47.2603 15.1524,48.6997C 14.2203,50.1389 12.6668,51.7776 11.6682,53.6819C 10.6694,55.5862 10.2256,57.7563 10.6473,60.1477C 11.0689,62.5393 12.3561,65.1523 14.2425,67.4773C 16.1288,69.8025 18.6144,71.8396 28.1351,72.8804C 37.6557,73.9211 54.2115,73.9653 63.6656,73.4561C 73.1196,72.9468 75.472,71.884 77.1809,70.0681C 78.8897,68.2524 79.955,65.6838 80.7095,62.6943C 81.4641,59.7048 81.9079,56.2949 81.1756,54.0142C 80.4432,51.7332 78.5346,50.5818 76.959,48.6997C 75.3833,46.8174 74.1405,44.2046 73.2972,41.7244C 72.4539,39.2444 72.01,36.8972 71.2554,35.1477C 70.5009,33.3984 69.4357,32.2471 68.2816,30.7856C 67.1276,29.324 65.8848,27.5525 64.4201,25.8032C 62.9554,24.054 61.2687,22.3269 59.227,20.9983C 57.1853,19.6697 54.7885,18.7395 51.7259,18.208C 48.6633,17.6765 44.9349,17.5437 41.5616,17.4995C 38.1884,17.4553 35.1702,17.4995 33.3503,17.6323C 31.5306,17.7651 30.9092,17.9866 29.4445,18.4075 Z "/>
		<path fill="#000000" fill-opacity="1" stroke-width="0.2" stroke-linejoin="round" d="M 24.3177,41.1538C 23.7448,40.8804 22.9583,40.5261 22.6059,41.2805C 22.2535,42.0349 22.335,43.8977 22.3151,45.3499C 22.2951,46.802 22.1736,47.8438 22.0191,48.9688C 21.8646,50.0938 21.6771,51.302 21.2396,52.177C 20.8021,53.052 20.1146,53.5938 19.375,54.0625C 18.6354,54.5313 17.8438,54.927 17.0208,55.4375C 16.1979,55.948 15.3438,56.573 15.2083,57.427C 15.0729,58.2813 15.6563,59.3645 16.5347,60.5105C 17.4131,61.6563 18.5868,62.8647 19.4826,63.8127C 20.3785,64.7605 20.9965,65.448 21.7535,66.073C 22.5104,66.698 23.4063,67.2605 24.625,67.5105C 25.8438,67.7605 27.3854,67.698 28.5729,67.1841C 29.7604,66.6702 30.5937,65.7048 31.6562,65.2258C 32.7187,64.7466 34.0104,64.7537 34.6667,64.3403C 35.3229,63.927 35.3438,63.0938 34.8542,62.2917C 34.3646,61.4895 33.3646,60.7188 32.0625,59.8333C 30.7604,58.948 29.1563,57.948 28.0313,56.6355C 26.9063,55.323 26.2604,53.698 25.8229,52.2708C 25.3854,50.8438 25.1563,49.6145 25.1285,48.2449C 25.1007,46.875 25.2743,45.3645 25.388,44.2693C 25.5017,43.1736 25.5555,42.4932 25.4028,42.0566C 25.2499,41.6199 24.8906,41.4272 24.3177,41.1538 Z "/>
		<path fill="#000000" fill-opacity="1" stroke-width="0.2" stroke-linejoin="round" d="M 65.4426,43.5237C 65.7221,44.7937 65.8246,46.4021 65.8029,48.0085C 65.7813,49.6145 65.6354,51.219 65.1562,52.5105C 64.6771,53.8022 63.8646,54.7813 62.9479,56.0208C 62.0313,57.2605 61.0104,58.7605 60.1354,59.7395C 59.2604,60.7188 58.5313,61.177 58.0729,61.948C 57.6146,62.7188 57.4271,63.802 58.0938,64.6458C 58.7604,65.4895 60.2812,66.094 61.6874,66.5835C 63.0937,67.073 64.3854,67.448 65.8229,67.25C 67.2604,67.052 68.8438,66.2813 70.2188,65.2708C 71.5938,64.2605 72.7604,63.0105 73.7083,61.677C 74.6563,60.3438 75.3854,58.927 75.7604,57.7605C 76.1354,56.5938 76.1563,55.677 75.5208,54.8125C 74.8854,53.948 73.5938,53.1355 72.6042,52.3125C 71.6146,51.4895 70.9271,50.6563 70.2292,50C 69.5313,49.3438 68.8229,48.8645 68.4583,47.9583C 68.0938,47.052 68.0729,45.7188 67.8889,44.5225C 67.7049,43.3264 67.3576,42.2673 67.0573,41.5183C 66.7569,40.7693 66.5035,40.3298 66.0434,40.1936C 65.5833,40.0574 64.9166,40.2241 64.8116,40.7732C 64.7065,41.3225 65.1631,42.2539 65.4426,43.5237 Z "/>
		<path fill="#000000" fill-opacity="1" stroke-width="0.2" stroke-linejoin="round" d="M 23.0364,40.4324C 23.2604,39.5313 23.6563,37.8855 25.1979,35.6094C 26.7396,33.3333 29.4271,30.427 31.7448,28.4895C 34.0625,26.552 36.0104,25.5833 38.0573,24.8489C 40.1042,24.1145 42.25,23.6145 45.125,23.7969C 48,23.9792 51.6042,24.8438 54.3646,26.0364C 57.125,27.2292 59.0417,28.75 60.8333,30.5208C 62.625,32.2917 64.2917,34.3125 65.2083,35.9895C 66.125,37.6667 66.2917,39 66.3438,39.7292C 66.3958,40.4583 66.3333,40.5833 65.9271,40.7292C 65.5208,40.875 64.7708,41.0417 63.2292,41.427C 61.6875,41.8125 59.3542,42.4167 56.9156,42.6448C 54.477,42.873 51.9332,42.7251 50.7081,41.2346C 49.483,39.7439 49.5768,36.9106 49.3372,36.6189C 49.0976,36.3274 48.5247,38.5774 47.8227,39.9221C 47.1207,41.2668 46.2895,41.7063 44.8531,41.999C 43.4167,42.2917 41.375,42.4375 39.2188,42.5625C 37.0625,42.6875 34.7917,42.7917 33.0208,42.7813C 31.25,42.7708 29.9792,42.6458 28.6354,42.5417C 27.2917,42.4375 25.875,42.3542 24.875,42.2083C 23.875,42.0625 23.2917,41.8542 23.0261,41.6719C 22.7604,41.4895 22.8125,41.3333 23.0364,40.4324 Z "/>
		<path fill="#000000" fill-opacity="1" stroke-width="0.2" stroke-linejoin="round" d="M 43.4167,57.1458C 43.8472,57.2708 44.5695,57.6042 45.5695,57.7986C 46.5695,57.9929 47.8472,58.0486 49,57.9236C 50.1528,57.7986 51.1805,57.4929 51.7639,57.4375C 52.3472,57.3821 52.4861,57.5764 51.9722,58.3542C 51.4583,59.1321 50.2917,60.4929 48.9583,60.9792C 47.625,61.4653 46.125,61.0764 45.0972,60.6042C 44.0695,60.1321 43.5139,59.5764 43.1944,58.9929C 42.875,58.4097 42.7917,57.7986 42.8194,57.4514C 42.8472,57.1042 42.9861,57.0208 43.4167,57.1458 Z "/>
		<path fill="#000000" fill-opacity="1" stroke-width="0.2" stroke-linejoin="round" d="M 40.6667,46.0208C 41.1528,45.2429 42.0972,45.1321 42.8611,45.3542C 43.625,45.5764 44.2083,46.1321 44.5833,46.7849C 44.9583,47.4375 45.125,48.1875 45.0833,49.0764C 45.0417,49.9653 44.7917,50.9929 44.5417,51.6318C 44.2917,52.2708 44.0417,52.5208 43.4722,52.6736C 42.9028,52.8264 42.0139,52.8821 41.375,52.8125C 40.7361,52.7429 40.3472,52.5486 40.1805,52.0071C 40.0139,51.4653 40.0695,50.5764 40.1111,49.4097C 40.1528,48.2429 40.1805,46.7986 40.6667,46.0208 Z "/>
		<path fill="#000000" fill-opacity="1" stroke-width="0.2" stroke-linejoin="round" d="M 50.9028,45.5349C 51.4028,45.2986 52.3472,45.2429 53.0555,45.4651C 53.7639,45.6875 54.2361,46.1877 54.5555,46.8264C 54.8749,47.4656 55.0416,48.2432 54.9999,49.0906C 54.9583,49.9377 54.7083,50.8542 54.1111,51.4514C 53.5139,52.0486 52.5694,52.3264 51.875,52.2849C 51.1805,52.2432 50.7361,51.8821 50.5139,50.8821C 50.2916,49.8821 50.2917,48.2432 50.3194,47.2153C 50.3472,46.1875 50.4028,45.7708 50.9028,45.5349 Z "/>
		<path fill="#FFFFFF" fill-opacity="1" stroke-width="0.2" stroke-linejoin="round" d="M 40.5625,47.1563C 40.9167,47.0417 41.5417,47.0417 41.8958,47.323C 42.25,47.6042 42.3333,48.1667 42.2917,48.6458C 42.25,49.125 42.0833,49.5208 41.75,49.6563C 41.4167,49.7917 40.9167,49.6667 40.6042,49.302C 40.2917,48.9375 40.1667,48.3333 40.1458,47.9167C 40.125,47.5 40.2083,47.2708 40.5625,47.1563 Z "/>
		<path fill="#FFFFFF" fill-opacity="1" stroke-width="0.2" stroke-linejoin="round" d="M 50.7188,46.6875C 51.0625,46.3958 51.5208,46.3125 51.8542,46.5C 52.1875,46.6875 52.3958,47.1458 52.4583,47.625C 52.5208,48.1042 52.4375,48.6042 52.125,48.8542C 51.8125,49.1042 51.2708,49.1042 50.8646,48.9167C 50.4583,48.7292 50.1875,48.3542 50.1667,47.9167C 50.1458,47.4792 50.375,46.9792 50.7188,46.6875 Z "/>
		<path fill="#FFFFFF" fill-opacity="1" stroke-linejoin="round" stroke="#FFFFFF" stroke-opacity="1" d="M 25.3096,34.8679C 24.8998,35.2983 24.1776,36.354 23.8582,37.2915C 23.5388,38.229 23.6221,39.0483 23.8443,39.6179C 24.0665,40.1873 24.4276,40.5066 24.9763,40.7913C 25.5248,41.0762 26.2609,41.3262 26.8651,41.2986C 27.4693,41.2708 27.9415,40.9651 28.2748,40.2913C 28.6082,39.6179 28.8026,38.5762 28.7818,37.7637C 28.7609,36.9512 28.5248,36.3679 28.3096,35.8401C 28.0943,35.3123 27.8998,34.8401 27.6846,34.7012C 27.4693,34.5623 27.2332,34.7566 26.9346,34.833C 26.6359,34.9094 26.2748,34.8679 26.0457,34.7498C 25.8165,34.6316 25.7193,34.4373 25.3096,34.8679 Z "/>
		<path fill="#FFFFFF" fill-opacity="1" stroke-linejoin="round" stroke="#FFFFFF" stroke-opacity="1" d="M 28.6915,34.8191C 28.7609,35.2983 29.1915,36.229 29.636,36.9861C 30.0804,37.7429 30.5388,38.3262 31.0735,38.6387C 31.6082,38.9512 32.2193,38.9929 32.6984,38.7844C 33.1776,38.5762 33.5248,38.1179 33.8513,37.5486C 34.1776,36.979 34.4832,36.2983 34.6152,35.708C 34.7471,35.1179 34.7054,34.6179 34.379,34.0276C 34.0526,33.4373 33.4415,32.7566 32.8721,32.333C 32.3026,31.9094 31.7748,31.7429 31.3096,31.5969C 30.8443,31.4512 30.4415,31.3262 30.129,31.3748C 29.8165,31.4233 29.5943,31.6458 29.5318,31.9861C 29.4693,32.3262 29.5665,32.7844 29.5388,33.1873C 29.5109,33.5901 29.3582,33.9373 29.136,34.1248C 28.9138,34.3123 28.6221,34.3401 28.6915,34.8191 Z "/>
		<path fill="#FFFFFF" fill-opacity="1" stroke-linejoin="round" stroke="#FFFFFF" stroke-opacity="1" d="M 29.6985,30.729C 30.2471,30.8123 31.2054,30.7566 32.004,30.3538C 32.8026,29.9512 33.4415,29.2012 33.761,28.5486C 34.0804,27.8958 34.0804,27.3401 33.8373,26.7637C 33.5943,26.1873 33.1082,25.5901 32.6568,25.4512C 32.2054,25.3123 31.7888,25.6316 31.2054,26.1733C 30.6221,26.7151 29.8721,27.479 29.4554,28.1873C 29.0388,28.8958 28.9554,29.5483 28.9832,29.9858C 29.0109,30.4233 29.1498,30.6458 29.6985,30.729 Z "/>
		<path fill="none" stroke-linejoin="round" stroke="#000000" stroke-opacity="1" d="M 33.0388,61.3679C 34.8929,62.2844 37.0596,63.4512 39.4138,63.9929C 41.7679,64.5344 44.3096,64.4512 46.9554,64.3887C 49.6013,64.3262 52.3513,64.2844 54.6638,63.8469C 56.9763,63.4094 58.8513,62.5762 60.7888,60.6179C 62.7263,58.6594 64.7263,55.5762 65.6846,52.3054C 66.6429,49.0344 66.5596,45.5762 66.0388,42.9929C 65.5179,40.4094 64.5596,38.7012 61.8096,37.2012C 59.0596,35.7012 54.5179,34.4094 50.5388,34.4719C 46.5596,34.5344 43.1429,35.9512 40.4346,37.3469C 37.7263,38.7429 35.7263,40.1179 33.3929,40.8887C 31.0596,41.6594 28.3929,41.8262 26.7471,41.8262C 25.1013,41.8262 24.4763,41.6594 23.9971,43.2429C 23.5179,44.8262 23.1846,48.1594 23.8929,51.0969C 24.6013,54.0344 26.3513,56.5762 27.9971,58.1804C 29.6429,59.7844 31.1846,60.4512 33.0388,61.3679 Z "/>
		<path fill="#000000" fill-opacity="1" stroke-linejoin="round" stroke="#000000" stroke-opacity="1" d="M 33.86,32.7014C 33.6068,32.4741 33.3705,32.2136 33.1003,32.0198C 32.82,31.8184 32.5279,31.6294 32.2168,31.5212C 31.883,31.4055 31.5306,31.4031 31.1865,31.3555C 31.0757,31.3401 30.9639,31.3398 30.8527,31.332C 31.3887,31.1174 31.9666,31.0266 32.4606,30.688C 32.9145,30.3767 33.3235,29.9348 33.6403,29.4202C 33.9431,28.9285 34.1541,28.3372 34.2789,27.7349C 34.3726,27.283 34.3643,26.7883 34.2801,26.3333C 34.2047,25.9265 34.0204,25.5535 33.8143,25.2268C 33.6677,24.9941 33.4374,24.8699 33.2469,24.6948C 33.0911,24.552 32.9203,24.4331 32.7753,24.2732C 32.6415,24.1257 32.5383,23.939 32.415,23.7776C 32.2429,23.5522 32.1056,23.2664 31.8893,23.113C 31.574,22.8889 31.2179,22.7483 30.8607,22.6741C 30.4586,22.5908 30.0406,22.5645 29.6383,22.6465C 29.3226,22.7109 29.0032,22.8579 28.7505,23.105C 28.4864,23.363 28.2949,23.7346 28.1415,24.1089C 27.9814,24.4998 27.9036,24.938 27.8237,25.3662C 27.6877,26.0947 27.6044,26.8374 27.4948,27.573C 27.4384,27.1038 27.4142,26.6265 27.3254,26.1653C 27.2298,25.6687 27.1183,25.1707 26.9435,24.7097C 26.7957,24.3198 26.6392,23.8987 26.3665,23.637C 25.8909,23.1804 25.3565,22.7295 24.7651,22.6184C 24.1736,22.5071 23.5759,22.813 22.9974,23.0037C 22.8397,23.0557 22.7227,23.2251 22.5858,23.3367C 22.4676,23.4329 22.3524,23.5354 22.2319,23.627C 22.1423,23.6948 22.0468,23.7495 21.956,23.8147C 21.7908,23.9336 21.5963,24.0068 21.4641,24.1792C 21.2068,24.5144 20.9374,24.8713 20.8093,25.3088C 20.6725,25.7759 20.6406,26.303 20.6979,26.7954C 20.7576,27.3088 20.9437,27.7952 21.1511,28.2437C 21.3262,28.6223 21.5909,28.9241 21.8299,29.2427C 21.9276,29.373 22.0487,29.4719 22.1581,29.5867C 22.1105,29.5798 22.063,29.5603 22.0154,29.5664C 21.5823,29.6213 21.1301,29.5857 20.7198,29.7688C 20.3556,29.9309 19.967,30.1692 19.7534,30.575C 19.4611,31.1299 19.3528,31.8245 19.2888,32.4861C 19.2575,32.8086 19.412,33.1172 19.4765,33.4319C 19.5316,33.7004 19.6008,33.9646 19.6474,34.2356C 19.669,34.3613 19.6697,34.4912 19.6805,34.6191C 19.6903,34.7356 19.6805,34.8574 19.7092,34.969C 19.8248,35.417 19.9033,35.8967 20.1108,36.2888C 20.3182,36.6807 20.6107,37.0044 20.9232,37.2629C 21.1464,37.4473 21.426,37.4905 21.6816,37.5874C 21.7156,37.6003 21.7537,37.6025 21.7881,37.5913C 22.0866,37.4939 22.4,37.4373 22.6756,37.2632C 22.9685,37.0784 23.2062,36.7788 23.4684,36.5315C 23.5147,36.4875 23.5566,36.4373 23.6007,36.3899C 23.451,36.8796 23.2167,37.3406 23.1517,37.8586C 23.0826,38.4092 23.0814,38.9949 23.207,39.5291C 23.3049,39.946 23.5325,40.3215 23.7962,40.6018C 24.1005,40.9255 24.4947,41.0864 24.8597,41.2869C 24.9872,41.3569 25.1308,41.366 25.2657,41.4092C 25.4625,41.4719 25.6601,41.5313 25.8547,41.6042C 25.929,41.6321 25.9988,41.677 26.0714,41.7114C 26.1844,41.7654 26.2939,41.8347 26.4116,41.8694C 26.5652,41.915 26.725,41.9836 26.8809,41.9512C 27.2562,41.8733 27.6514,41.7959 27.9755,41.5447C 28.3231,41.2756 28.6231,40.884 28.8306,40.4414C 29.0598,39.9524 29.2018,39.387 29.2516,38.8225C 29.3066,38.2009 29.1764,37.575 29.1387,36.9514C 29.2479,37.1333 29.3458,37.3269 29.4662,37.4973C 29.7549,37.906 30.0117,38.3669 30.3645,38.6855C 30.7239,39.01 31.1541,39.1912 31.566,39.3936C 31.657,39.4382 31.7606,39.4236 31.8582,39.4189C 32.0364,39.4106 32.2174,39.408 32.3908,39.3552C 32.6754,39.2688 32.9686,39.1855 33.2236,39.0044C 33.4341,38.8547 33.6008,38.6174 33.7565,38.3843C 33.8406,38.2585 33.8735,38.0903 33.9322,37.9434C 33.9871,37.8059 34.0302,37.6594 34.0975,37.5308C 34.1739,37.3848 34.2717,37.2585 34.3607,37.1243C 34.3817,37.0925 34.4135,37.0706 34.4274,37.0332C 34.668,36.3826 35.0645,35.78 35.1221,35.0659C 35.1611,34.5828 34.9103,34.1145 34.6951,33.7117C 34.4798,33.3081 34.1384,33.0381 33.86,32.7014 Z M 29.8,33.179C 29.6693,32.9573 29.7877,34.3391 29.5255,34.0547C 29.6563,33.8738 29.8392,33.2898 29.8,33.179 Z M 29.6291,33.2334C 29.6414,33.2551 29.6561,33.2747 29.666,33.2981C 29.6977,33.3728 29.7825,33.4504 29.7535,33.5269C 29.6951,33.6809 29.5809,33.823 29.4501,33.8674C 28.9117,34.0505 28.3329,33.8853 27.7773,33.9636C 27.3579,34.2561 26.9377,34.5471 26.5192,34.8416C 26.4207,34.9109 26.3386,35.0674 26.2263,35.0549C 26.1553,35.0471 26.176,34.8867 26.1547,34.801C 26.1328,34.7126 26.1279,34.6187 26.1067,34.53C 26.0449,34.2712 25.9465,34.0217 25.8185,33.8049C 25.6439,33.5444 25.4385,33.3069 25.2048,33.1355C 25.0511,33.0225 24.8439,33.0251 24.7136,32.8726C 24.6688,32.8201 24.6547,32.7356 24.6391,32.6609C 24.6356,32.6448 24.6497,32.6284 24.66,32.6174C 24.7014,32.574 24.7476,32.5383 24.7923,32.5002C 24.8966,32.4111 25.0056,32.3269 25.0956,32.2161C 25.1312,32.1721 25.1662,32.1277 25.2144,32.0674C 25.3788,31.6387 25.5396,31.2078 25.7039,30.769C 25.7094,30.5923 25.7157,30.4158 25.7191,30.239C 25.7237,30.0007 25.6546,29.7622 25.679,29.5261C 25.6851,29.4673 25.7556,29.4443 25.8025,29.4402C 25.8501,29.4402 25.8978,29.4463 25.9446,29.4573C 26.4197,29.6636 27.8099,29.8938 28.0258,29.7981C 28.1844,29.7278 28.3327,29.6184 28.4962,29.5686C 28.6214,29.5305 28.7532,29.5435 28.882,29.5371C 28.8915,29.5366 28.9028,29.5393 28.9093,29.5481C 28.9464,29.5991 29.4151,32.7036 29.6291,33.2334 Z M 26.6434,34.9761C 26.6819,34.925 26.7177,34.8701 26.7589,34.8225C 26.8179,34.7539 26.882,34.6929 26.9435,34.6282L 26.6434,34.9761 Z M 24.8221,32.2283C 24.7803,32.2622 24.7347,32.2898 24.6968,32.3303C 24.6216,32.4109 24.4982,32.4663 24.4842,32.5894C 24.4661,32.7476 24.5361,32.915 24.6158,33.0393C 24.6729,33.1282 24.7805,33.1355 24.8638,33.1809C 24.8803,33.1899 24.898,33.1951 24.916,33.2031C 24.715,33.3318 24.6172,32.1707 24.8221,32.2283 Z M 27.9833,25.4128C 28.0837,25.0132 28.1333,24.5872 28.2844,24.2139C 28.4267,23.8621 28.6035,23.511 28.8508,23.2688C 29.0859,23.0386 29.3849,22.9055 29.6791,22.8477C 30.0601,22.7727 30.4551,22.8003 30.8358,22.8784C 31.1686,22.9468 31.5016,23.0735 31.7955,23.282C 31.9988,23.4263 32.1266,23.6965 32.2881,23.9089C 32.4166,24.0784 32.5253,24.2727 32.6652,24.427C 32.8172,24.5945 32.9954,24.72 33.1588,24.8696C 33.3397,25.0352 33.5629,25.1477 33.698,25.3723C 33.8994,25.7073 34.0665,26.093 34.1408,26.5027C 34.2109,26.8889 34.2047,27.3103 34.1185,27.6914C 33.9894,28.2617 33.7975,28.8281 33.5086,29.2961C 33.2056,29.7874 32.8089,30.1953 32.3813,30.5059C 31.9726,30.803 31.508,30.9846 31.0433,31.0874C 30.4256,31.2236 29.7632,31.1289 29.1395,31.0481L 29.1514,31.4558L 29.8126,33.5754L 29.2236,34.0239L 28.1899,33.9695L 27.673,34.2415L 26.5914,34.8938L 26.1226,34.7441L 25.7019,33.7114L 24.7643,32.9778L 24.8726,32.5022L 25.3413,31.8091L 25.6418,30.7288L 25.8041,29.4856L 27.5534,29.8062C 27.5521,29.4631 27.516,29.1179 27.5493,28.7776C 27.6596,27.6497 27.8386,26.5344 27.9833,25.4128 Z M 21.94,29.0901C 21.7238,28.7727 21.4592,28.4988 21.2916,28.1377C 21.0942,27.7124 20.9179,27.2502 20.8599,26.7629C 20.8058,26.3083 20.8394,25.8215 20.9649,25.3899C 21.0818,24.9871 21.3255,24.6543 21.562,24.3459C 21.688,24.1814 21.8738,24.1121 22.0314,23.9988C 22.1247,23.9319 22.2227,23.8757 22.3146,23.8059C 22.4387,23.7117 22.5572,23.6064 22.6788,23.5076C 22.8118,23.3994 22.9256,23.2358 23.0786,23.1848C 23.6225,23.0042 24.185,22.717 24.7415,22.8215C 25.2978,22.9263 25.8012,23.3494 26.2478,23.7805C 26.5081,24.0315 26.658,24.4338 26.7988,24.8069C 26.9666,25.2515 27.0935,25.7258 27.165,26.2097C 27.2901,27.0571 27.3451,27.9202 27.3856,28.7805C 27.4025,29.1399 27.353,29.4993 27.3367,29.8586L 26.5151,29.5725C 26.1812,29.4534 25.7068,29.2458 25.6358,29.4124C 25.5772,29.55 25.5862,29.698 25.5817,29.9221C 25.5751,30.2478 25.5482,30.5696 25.5178,30.8933C 24.5216,30.4529 23.517,30.0422 22.508,29.6514L 21.94,29.0901 Z M 23.3624,36.3738C 23.0975,36.6167 22.863,36.9243 22.5674,37.1028C 22.2964,37.2664 21.994,37.3845 21.6935,37.3811C 21.4515,37.3782 21.2083,37.2534 21.0068,37.0847C 20.7161,36.8411 20.4439,36.5378 20.2501,36.1721C 20.0562,35.8059 19.9796,35.3591 19.8713,34.9407C 19.8434,34.8328 19.8535,34.7146 19.844,34.6018C 19.8328,34.469 19.8318,34.334 19.8095,34.2034C 19.7613,33.9221 19.6903,33.6477 19.633,33.3691C 19.571,33.0676 19.4232,32.7725 19.4517,32.4631C 19.5075,31.8557 19.6192,31.2266 19.8777,30.7092C 20.0506,30.363 20.3762,30.1614 20.6774,30.009C 21.2306,29.729 21.8707,29.7512 22.4614,29.8518C 23.4716,30.2429 24.4772,30.6536 25.4727,31.0996C 25.3264,31.4478 25.1912,31.8242 24.9601,32.0896C 24.7067,32.009 24.8351,33.4551 25.0739,33.2881L 25.6517,33.8706C 24.8907,34.708 24.1309,35.5471 23.3624,36.3738 Z M 28.8019,36.3484L 28.858,36.4504C 28.9398,37.1533 29.1343,37.8499 29.1033,38.5588C 29.0762,39.1763 28.9352,39.8044 28.6879,40.3381C 28.4713,40.8057 28.1461,41.2307 27.7579,41.4624C 27.363,41.698 26.8942,41.6548 26.4573,41.6702C 26.3422,41.6741 26.241,41.5706 26.1332,41.5193C 26.0583,41.4839 25.986,41.439 25.9093,41.4102C 25.7083,41.3347 25.5043,41.2722 25.3011,41.2068C 25.1689,41.1646 25.0283,41.1555 24.903,41.0876C 24.5622,40.9028 24.1951,40.7529 23.9103,40.4531C 23.6663,40.1965 23.4344,39.8591 23.3641,39.4685C 23.251,38.8406 23.2691,38.1646 23.3852,37.5378C 23.4922,36.9595 23.806,36.4753 24.0164,35.9438L 25.6887,34.1062L 25.748,34.0405C 25.8399,34.2393 25.9231,34.4504 25.9637,34.6748C 25.861,34.9468 27.0991,34.9661 27.1031,34.4924L 27.8021,34.1682L 27.803,34.1682L 27.9562,34.1467L 27.9714,34.1458C 28.0347,34.4382 28.0795,34.7434 28.1904,35.0125C 28.3376,35.3699 28.4928,35.7224 28.6525,36.0713C 28.6968,36.168 28.7521,36.2561 28.8019,36.3484 Z M 34.3054,36.8958C 34.0955,37.1816 33.9212,37.5125 33.7822,37.8604C 33.7272,37.998 33.7169,38.1838 33.6177,38.2742C 33.2298,38.627 32.8133,38.949 32.3629,39.1521C 32.1196,39.2617 31.8381,39.2729 31.5884,39.1892C 31.1843,39.0537 30.7934,38.821 30.4547,38.512C 30.1173,38.2043 29.8635,37.7708 29.5945,37.3699C 29.0986,36.6313 28.6849,35.7996 28.3422,34.9338C 28.2433,34.6838 28.2023,34.4041 28.139,34.1365C 28.2709,34.1396 28.4028,34.1494 28.5346,34.1458C 28.8052,34.1387 29.0754,34.1179 29.3458,34.1042C 29.6467,34.4358 29.907,33.0256 29.6412,32.8958C 29.4772,32.4666 29.3036,32.043 29.1492,31.6082C 29.1365,31.5725 29.1444,31.53 29.1412,31.4758C 29.8198,31.5044 30.4993,31.5068 31.1768,31.5618C 31.5113,31.5889 31.8511,31.6094 32.1743,31.7214C 32.4728,31.825 32.7528,32.0081 33.0217,32.2019C 33.2836,32.3909 33.5276,32.6199 33.759,32.8643C 34.0393,33.1604 34.3463,33.4385 34.5526,33.8191C 34.7547,34.1919 34.993,34.625 34.957,35.0742C 34.9037,35.7368 34.5226,36.2886 34.3054,36.8958 Z "/>
	</g>
	<g>
		<path fill="none" stroke-width="3" stroke-linejoin="round" stroke="#FF0000" stroke-opacity="1" d="M 13.7365,4.08838L 77.4033,4.08838C 82.9261,4.08838 87.4033,8.56567 87.4033,14.0884L 87.4033,78.0828C 87.4033,83.6057 82.9261,88.083 77.4033,88.083L 13.7365,88.083C 8.21356,88.083 3.73645,83.6057 3.73645,78.0828L 3.73645,14.0884C 3.73645,8.56567 8.21356,4.08838 13.7365,4.08838 Z "/>
		<line fill="none" stroke-width="3" stroke-linejoin="round" stroke="#FF0000" stroke-opacity="1" x1="6.23633" y1="7.08374" x2="84.903" y2="85.0837"/>
	</g>
	<g>
		<radialGradient id="SVGID_Fill1_" cx="-17.8771" cy="8.4397" r="118.103" gradientUnits="userSpaceOnUse">
			<stop offset="0" stop-color="#FFFFFF" stop-opacity="0.388235"/>
			<stop offset="0.909912" stop-color="#FFFFFF" stop-opacity="0.156863"/>
			<stop offset="1" stop-color="#FFFFFF" stop-opacity="0"/>
		</radialGradient>
		<path fill="url(#SVGID_Fill1_)" stroke-width="0.2" stroke-linejoin="round" d="M 14.5,2.00073L 78.5,2.00073C 84.5751,2.00073 89.5,6.92554 89.5,13.0007L 89.5,76.0002C 89.5,82.0754 84.5751,87.0002 78.5,87.0002L 14.5,87.0002C 8.42487,87.0002 3.5,82.0754 3.5,76.0002L 3.5,13.0007C 3.5,6.92554 8.42487,2.00073 14.5,2.00073 Z "/>
		<radialGradient id="SVGID_Stroke1_" cx="71.5196" cy="46.0012" r="669.951" gradientUnits="userSpaceOnUse">
			<stop offset="0.869369" stop-color="#F1F1F1" stop-opacity="0"/>
			<stop offset="1" stop-color="#EEEEEE" stop-opacity="0.376471"/>
		</radialGradient>
		<path fill="none" stroke-width="4" stroke-linejoin="round" stroke="url(#SVGID_Stroke1_)" d="M 80.7499,6.00024L 80.7499,6.00024C 84.754,6.00024 87.9999,9.24609 87.9999,13.2502L 87.9999,78.7505C 87.9999,82.7546 84.754,86.0005 80.7499,86.0005L 80.7499,86.0005C 76.7459,86.0005 73.4999,82.7546 73.4999,78.7505L 73.4999,13.2502C 73.4999,9.24609 76.7459,6.00024 80.7499,6.00024 Z "/>
		<radialGradient id="SVGID_Stroke2_" cx="19.4803" cy="45.9998" r="669.951" gradientUnits="userSpaceOnUse" gradientTransform="rotate(180.000000 19.480347 45.999756)">
			<stop offset="0.869369" stop-color="#F1F1F1" stop-opacity="0"/>
			<stop offset="1" stop-color="#EEEEEE" stop-opacity="0.376471"/>
		</radialGradient>
		<path fill="none" stroke-width="4" stroke-linejoin="round" stroke="url(#SVGID_Stroke2_)" d="M 10.25,86.0007L 10.25,86.0007C 6.24597,86.0007 3.00006,82.7546 3.00006,78.7507L 3.00006,13.2502C 3.00006,9.24634 6.24597,6.00024 10.25,6.00024L 10.25,6.00024C 14.2541,6.00024 17.5,9.24634 17.5,13.2502L 17.5,78.7507C 17.5,82.7546 14.2541,86.0007 10.25,86.0007 Z "/>
		<radialGradient id="SVGID_Stroke3_" cx="45.5013" cy="19.981" r="79.1194" gradientUnits="userSpaceOnUse" gradientTransform="rotate(-90.000000 45.501282 19.980957)">
			<stop offset="0.869369" stop-color="#F1F1F1" stop-opacity="0"/>
			<stop offset="1" stop-color="#EEEEEE" stop-opacity="0.376471"/>
		</radialGradient>
		<path fill="none" stroke-width="4" stroke-linejoin="round" stroke="url(#SVGID_Stroke3_)" d="M 5.49994,10.7505L 5.49994,10.7505C 5.49994,6.74634 8.74591,3.50049 12.7499,3.50049L 78.2503,3.50049C 82.2545,3.50049 85.5002,6.74634 85.5002,10.7505L 85.5002,10.7505C 85.5002,14.7546 82.2545,18.0005 78.2503,18.0005L 12.7499,18.0005C 8.74591,18.0005 5.49994,14.7546 5.49994,10.7505 Z "/>
		<radialGradient id="SVGID_Stroke4_" cx="45.4991" cy="72.02" r="79.1195" gradientUnits="userSpaceOnUse" gradientTransform="rotate(90.000000 45.499084 72.020020)">
			<stop offset="0.869369" stop-color="#F1F1F1" stop-opacity="0"/>
			<stop offset="1" stop-color="#EEEEEE" stop-opacity="0.376471"/>
		</radialGradient>
		<path fill="none" stroke-width="4" stroke-linejoin="round" stroke="url(#SVGID_Stroke4_)" d="M 85.5004,81.2505L 85.5004,81.2505C 85.5004,85.2546 82.2545,88.5005 78.2504,88.5005L 12.7501,88.5005C 8.74591,88.5005 5.50006,85.2546 5.50006,81.2505L 5.50006,81.2505C 5.50006,77.2463 8.74591,74.0005 12.7501,74.0005L 78.2504,74.0005C 82.2545,74.0005 85.5004,77.2463 85.5004,81.2505 Z "/>
	</g>
</svg>
