<?xml version="1.0" encoding="utf-8"?>
<!DOCTYPE svg PUBLIC "-//W3C//DTD SVG 1.1//EN" "http://www.w3.org/Graphics/SVG/1.1/DTD/svg11.dtd">
<svg xmlns="http://www.w3.org/2000/svg" xmlns:xlink="http://www.w3.org/1999/xlink" version="1.1" baseProfile="full" width="95" height="94.9998" viewBox="0 0 95.00 95.00" enable-background="new 0 0 95.00 95.00" xml:space="preserve">
	<path fill="#000000" fill-opacity="1" stroke-linejoin="round" stroke="#C0C0CC" stroke-opacity="1" d="M 15.5,2.49983L 79.5,2.49983C 86.6797,2.49983 92.5,8.32014 92.5,15.4998L 92.5,79.4996C 92.5,86.6793 86.6797,92.4998 79.5,92.4998L 15.5,92.4998C 8.3203,92.4998 2.5,86.6793 2.5,79.4996L 2.5,15.4998C 2.5,8.32014 8.3203,2.49983 15.5,2.49983 Z "/>
	<g>
		<path fill="#FFFFFF" fill-opacity="1" stroke-linejoin="round" d="M 47.0713,9.50984C 67.7831,9.50984 84.5729,26.2996 84.5729,47.0072C 84.5729,67.7191 67.7831,84.5098 47.0713,84.5098C 26.3638,84.5098 9.57292,67.7191 9.57292,47.0072C 9.57292,26.2996 26.3638,9.50984 47.0713,9.50984 Z "/>
		<path fill="#000000" fill-opacity="1" stroke-linejoin="round" d="M 12.9424,44.7003L 18.274,44.7003L 18.274,45.5714L 26.1039,45.5714L 26.1039,42.0921L 26.9751,42.0921L 26.9751,45.5714L 30.9395,45.5714C 33.0299,43.7659 36.1145,41.7811 38.2593,41.7811C 41.1785,41.7811 44.3522,42.3421 46.1196,42.525L 46.1196,39.4783L 43.5104,39.4783L 43.5104,38.6073L 46.1196,38.6073L 46.1196,26.4268L 43.5104,26.4268L 43.5104,25.5557L 46.1196,25.5557L 46.1196,18.597L 45.2484,18.597L 45.2484,13.3199C 28.0464,14.2171 14.2171,27.7235 12.9424,44.7003 Z "/>
		<path fill="#000000" fill-opacity="1" stroke-linejoin="round" d="M 46.1196,46.4427L 46.1196,51.659L 43.506,51.659L 43.506,52.5301L 46.1196,52.5301L 46.1196,54.2725L 46.9908,54.2725L 46.9908,52.5301L 50.4702,52.5301L 50.4702,51.659L 46.9908,51.659L 46.9908,46.4427L 53.0783,46.4427L 53.0783,49.922L 53.9495,49.922L 53.9495,46.4427L 65.2587,46.4427L 65.2587,45.5714L 53.9495,45.5714L 53.9495,42.9578L 53.0783,42.9578L 53.0783,45.5714L 46.9908,45.5714L 46.9908,42.9578L 46.1196,42.9578L 46.1196,45.5714L 40.0267,45.5714L 40.0267,42.0921L 39.1555,42.0921L 39.1555,45.5714L 31.3256,45.5714L 31.3256,46.4427L 39.1555,46.4427L 39.1555,49.0509L 40.0267,49.0509L 40.0267,46.4427"/>
		<line fill="none" stroke-linejoin="round" x1="60.9473" y1="32.0096" x2="60.9299" y2="31.9803"/>
		<path fill="#000000" fill-opacity="1" stroke-linejoin="round" d="M 48.7278,13.3123L 48.7278,18.597L 46.9908,18.597L 46.9908,25.5557L 50.4702,25.5557L 50.4702,26.4268L 46.9908,26.4268L 46.9908,38.6073L 50.4702,38.6073L 50.4702,39.4783L 46.9908,39.4783L 46.9908,42.5848C 48.3623,42.5848 52.9086,41.272 53.5286,41.3992C 54.1529,41.5223 57.2722,42.2782 57.2722,42.2782L 57.021,38.6073L 51.97,38.6073C 51.97,38.6073 49.4162,37.3836 51.97,35.7611C 54.527,34.1427 55.9638,31.8138 57.2722,32.1881C 58.5806,32.5623 56.6468,29.5626 56.6468,29.5626C 56.6468,29.5626 53.0315,28.1519 52.5345,27.3448C 52.0331,26.5335 54.9653,28.3856 56.0867,28.2628C 57.2081,28.1356 56.3967,26.8184 56.3967,26.8184C 56.3967,26.8184 53.0957,22.1993 48.855,22.3863C 44.6154,22.5736 49.8535,21.6991 50.2276,21.6991C 50.6018,21.6991 49.4162,19.8294 48.1078,19.578C 46.7994,19.3324 48.4819,18.2696 50.8475,20.6363C 53.2186,23.0074 53.0315,23.4447 54.34,23.3172C 55.6484,23.1944 53.9027,20.5135 53.0914,19.9522C 52.2843,19.3909 52.7814,18.9832 53.2186,19.1234C 53.6558,19.2637 55.3982,21.6991 55.7125,23.3172C 56.0225,24.9403 57.2722,26.1256 57.2722,26.1256L 57.7269,26.4998L 58.0836,26.8685L 58.3936,26.4268L 58.7036,26.4268C 58.7036,26.4268 59.5149,29.2352 60.3861,29.6092C 61.2617,29.9835 61.8816,28.3345 61.8816,28.3345C 61.8816,28.3345 61.6347,27.6634 60.3861,26.2908C 59.1408,24.9227 58.2065,23.4664 58.2065,23.4664L 58.3936,22.8289L 59.0179,23.513L 61.3846,25.8743C 61.3846,25.8743 63.6915,27.1839 62.4428,24.69C 61.1975,22.1961 60.8875,20.4537 59.5149,19.7064C 58.1423,18.9581 56.0867,17.5223 56.0867,17.5223L 56.1498,16.8338L 56.8339,17.3353C 56.8339,17.3353 58.8308,18.9537 58.7677,18.3924C 58.7036,17.8324 58.5806,16.8338 58.5806,16.8338L 59.205,16.524L 59.2648,17.2081L 59.392,18.2696C 59.392,18.2696 61.7587,21.6348 62.1318,21.8851C 62.5059,22.1317 62.8159,20.6363 62.8159,20.6363C 62.8159,20.6363 63.5043,19.888 63.5043,21.0736C 63.5043,22.2591 63.003,22.5059 63.003,22.5059C 63.003,22.5059 64.4397,29.3624 61.0441,31.8824C 61.4607,32.0096 63.1563,32.8299 64.1885,37.7198C 65.1869,42.4532 65.7862,44.9168 65.9472,45.5714L 66.1299,45.5714L 66.1299,42.9622L 67.0011,42.9622L 67.0011,45.5714L 76.5734,45.5714L 76.5734,44.7003L 81.2045,44.7003C 79.9255,27.6678 66.0114,14.1322 48.7278,13.3123 Z "/>
		<path fill="#000000" fill-opacity="1" stroke-linejoin="round" d="M 81.2894,48.1795L 76.5734,48.1795L 76.5734,46.4427L 67.0011,46.4427L 67.0011,49.922L 66.1299,49.922L 66.1299,46.4427L 65.7134,46.4427L 65.0292,48.0653C 65.0292,48.0653 63.5511,52.7432 62.4298,53.0533C 61.3084,53.3631 61.8773,58.224 61.8773,58.224L 61.5031,60.0968L 61.5249,63.8992L 61.104,68.9512L 61.316,70.3531L 61.5205,73.9815L 62.073,76.8963L 60.199,76.8963C 60.199,76.8963 59.9358,75.723 59.9358,75.1029C 59.9358,74.4786 59.7662,73.8704 59.7662,73.8704L 59.1712,64.5203L 59.1712,58.9754L 58.4403,58.5382L 57.6964,64.7703L 57.3266,65.1444L 57.6116,74.2447L 57.5354,74.4959C 57.5354,74.4959 58.4023,75.9947 58.275,76.1776C 58.151,76.3646 56.9024,76.743 56.3412,76.1776C 55.7767,75.6173 56.0106,74.869 56.0106,74.869L 56.1541,74.3719L 55.6919,64.2091L 55.6919,59.7225L 54.8294,56.4815C 54.8294,56.4815 54.7739,55.6058 53.3372,55.6058C 52.3605,55.6058 49.3053,55.1732 46.9908,54.6585L 46.9908,64.7105L 50.4702,64.7105L 50.4702,65.5819L 46.9908,65.5819L 46.9908,75.1541L 48.7321,75.1541L 48.7321,81.2034C 66.5639,80.3626 80.8086,65.9764 81.2894,48.1795 Z "/>
		<path fill="#000000" fill-opacity="1" stroke-linejoin="round" d="M 45.2484,81.2L 45.2484,75.1541L 46.1196,75.1541L 46.1196,65.5819L 43.506,65.5819L 43.506,64.7105L 46.1196,64.7105L 46.1196,54.4466C 45.4312,54.2725 44.858,54.0941 44.5219,53.9234C 43.022,53.1761 42.6055,53.2359 42.6055,53.2359C 42.6055,53.2359 41.1481,53.2359 40.651,54.7359C 40.1496,56.2313 36.084,59.5955 35.587,60.0338C 35.0899,60.4666 31.6573,62.2764 34.4613,68.0714C 37.2652,73.8704 35.5152,71.7508 36.8867,73.5606C 38.2593,75.366 38.1364,75.5531 37.9493,75.8045C 37.7622,76.0545 36.5136,75.9273 36.2037,75.9273C 35.8893,75.9273 35.4554,74.869 35.4554,74.432C 35.4554,73.9945 34.5167,74.1805 34.3938,73.6834C 34.2698,73.1864 34.3079,71.6866 34.3079,71.6866L 33.9392,70.6295L 33.9392,73.1864L 33.9174,73.7476C 33.9174,73.7476 35.7447,76.5267 34.9333,76.4754C 34.1252,76.4288 32.7319,76.4754 32.7319,76.4754C 32.7319,76.4754 31.9423,75.1204 32.1925,74.1219C 32.4393,73.1234 31.7335,73.5606 31.7335,73.5606L 31.2234,67.3873C 31.2234,67.3873 30.2217,63.1475 29.3505,62.0892C 28.4749,61.0321 30.5904,59.9053 30.7187,59.6595C 30.8416,59.4083 33.8957,55.483 30.7187,50.4952C 30.6546,50.3973 30.5991,50.3038 30.5436,50.2103L 30.4468,50.2147L 29.1503,53.597C 29.1503,53.597 27.9822,53.8516 27.9822,52.2918C 27.9822,50.7376 28.5391,49.3988 28.662,48.2132C 28.6957,47.9075 29.1253,47.3302 29.7964,46.6417C 29.8432,46.5655 29.8986,46.5013 29.9574,46.4383L 26.9751,46.4383L 26.9751,49.0509L 26.1082,49.0509L 26.1082,46.4383L 18.274,46.4383L 18.274,48.1795L 12.8576,48.1795C 13.3372,65.9222 27.4939,80.2735 45.2484,81.2 Z "/>
	</g>
	<g>
		<path fill="none" stroke-width="3" stroke-linejoin="round" stroke="#FF0000" stroke-opacity="1" d="M 15.5425,6.0948L 79.2102,6.0948C 84.7331,6.0948 89.2102,10.5721 89.2102,16.0948L 89.2102,80.0828C 89.2102,85.6058 84.7331,90.0828 79.2102,90.0828L 15.5425,90.0828C 10.0197,90.0828 5.54251,85.6058 5.54251,80.0828L 5.54251,16.0948C 5.54251,10.5721 10.0197,6.0948 15.5425,6.0948 Z "/>
		<line fill="none" stroke-width="3" stroke-linejoin="round" stroke="#FF0000" stroke-opacity="1" x1="8.04214" y1="9.08919" x2="86.7088" y2="87.0892"/>
	</g>
	<g>
		<radialGradient id="SVGID_Fill1_" cx="-16.0266" cy="9.87923" r="118.102" gradientUnits="userSpaceOnUse">
			<stop offset="0" stop-color="#FFFFFF" stop-opacity="0.843137"/>
			<stop offset="0.77027" stop-color="#FFFFFF" stop-opacity="0.32549"/>
			<stop offset="1" stop-color="#FFFFFF" stop-opacity="0"/>
		</radialGradient>
		<path fill="url(#SVGID_Fill1_)" stroke-width="0.2" stroke-linejoin="round" d="M 16.3506,3.44026L 80.3506,3.44026C 86.4257,3.44026 91.3506,8.36531 91.3506,14.4403L 91.3506,77.44C 91.3506,83.5152 86.4257,88.44 80.3506,88.44L 16.3506,88.44C 10.2755,88.44 5.35059,83.5152 5.35059,77.44L 5.35059,14.4403C 5.35059,8.36531 10.2755,3.44026 16.3506,3.44026 Z "/>
		<radialGradient id="SVGID_Stroke1_" cx="73.3702" cy="47.4408" r="669.951" gradientUnits="userSpaceOnUse">
			<stop offset="0.869369" stop-color="#F1F1F1" stop-opacity="0"/>
			<stop offset="1" stop-color="#EEEEEE" stop-opacity="0.898039"/>
		</radialGradient>
		<path fill="none" stroke-width="4" stroke-linejoin="round" stroke="url(#SVGID_Stroke1_)" d="M 82.6005,7.43977L 82.6005,7.43977C 86.6046,7.43977 89.8505,10.6859 89.8505,14.6898L 89.8505,80.1903C 89.8505,84.1942 86.6046,87.4403 82.6005,87.4403L 82.6005,87.4403C 78.5965,87.4403 75.3505,84.1942 75.3505,80.1903L 75.3505,14.6898C 75.3505,10.6859 78.5965,7.43977 82.6005,7.43977 Z "/>
		<radialGradient id="SVGID_Stroke2_" cx="21.331" cy="47.4395" r="669.951" gradientUnits="userSpaceOnUse" gradientTransform="rotate(180.000000 21.330963 47.439529)">
			<stop offset="0.869369" stop-color="#F1F1F1" stop-opacity="0"/>
			<stop offset="1" stop-color="#EEEEEE" stop-opacity="0.898039"/>
		</radialGradient>
		<path fill="none" stroke-width="4" stroke-linejoin="round" stroke="url(#SVGID_Stroke2_)" d="M 12.1006,87.4405L 12.1006,87.4405C 8.09657,87.4405 4.85063,84.1947 4.85063,80.1908L 4.85063,14.6903C 4.85063,10.6861 8.09657,7.44026 12.1006,7.44026L 12.1006,7.44026C 16.1047,7.44026 19.3506,10.6861 19.3506,14.6903L 19.3506,80.1908C 19.3506,84.1947 16.1047,87.4405 12.1006,87.4405 Z "/>
		<radialGradient id="SVGID_Stroke3_" cx="47.3517" cy="21.4207" r="79.1195" gradientUnits="userSpaceOnUse" gradientTransform="rotate(-90.000000 47.351700 21.420731)">
			<stop offset="0.869369" stop-color="#F1F1F1" stop-opacity="0"/>
			<stop offset="1" stop-color="#EEEEEE" stop-opacity="0.898039"/>
		</radialGradient>
		<path fill="none" stroke-width="4" stroke-linejoin="round" stroke="url(#SVGID_Stroke3_)" d="M 7.35036,12.1903L 7.35036,12.1903C 7.35036,8.18611 10.5963,4.94026 14.6003,4.94026L 80.1007,4.94026C 84.1049,4.94026 87.3507,8.18611 87.3507,12.1903L 87.3507,12.1903C 87.3507,16.1942 84.1049,19.4403 80.1007,19.4403L 14.6003,19.4403C 10.5963,19.4403 7.35036,16.1942 7.35036,12.1903 Z "/>
		<radialGradient id="SVGID_Stroke4_" cx="47.3495" cy="73.4598" r="79.1183" gradientUnits="userSpaceOnUse" gradientTransform="rotate(90.000000 47.349472 73.459793)">
			<stop offset="0.869369" stop-color="#F1F1F1" stop-opacity="0"/>
			<stop offset="1" stop-color="#EEEEEE" stop-opacity="0.898039"/>
		</radialGradient>
		<path fill="none" stroke-width="4" stroke-linejoin="round" stroke="url(#SVGID_Stroke4_)" d="M 87.3508,82.6903L 87.3508,82.6903C 87.3508,86.6942 84.1048,89.9403 80.1008,89.9403L 14.6005,89.9403C 10.5963,89.9403 7.35049,86.6942 7.35049,82.6903L 7.35049,82.6903C 7.35049,78.6861 10.5963,75.4403 14.6005,75.4403L 80.1008,75.4403C 84.1048,75.4403 87.3508,78.6861 87.3508,82.6903 Z "/>
	</g>
</svg>
