<?xml version="1.0" encoding="utf-8"?>
<!DOCTYPE svg PUBLIC "-//W3C//DTD SVG 1.1//EN" "http://www.w3.org/Graphics/SVG/1.1/DTD/svg11.dtd">
<svg xmlns="http://www.w3.org/2000/svg" xmlns:xlink="http://www.w3.org/1999/xlink" version="1.1" baseProfile="full" width="95" height="95" viewBox="0 0 95.00 95.00" enable-background="new 0 0 95.00 95.00" xml:space="preserve">
	<path fill="#000000" fill-opacity="1" stroke-linejoin="round" stroke="#C0C0CC" stroke-opacity="1" d="M 15.5,2.49983L 79.5,2.49983C 86.6797,2.49983 92.5,8.32014 92.5,15.4998L 92.5,79.4996C 92.5,86.6793 86.6797,92.4998 79.5,92.4998L 15.5,92.4998C 8.32034,92.4998 2.50005,86.6793 2.50005,79.4996L 2.50005,15.4998C 2.50005,8.32014 8.32034,2.49983 15.5,2.49983 Z "/>
	<g>
		<path fill="#FFFFFF" fill-opacity="1" fill-rule="evenodd" stroke-width="1.58" stroke-linejoin="round" stroke="#FFFFFF" stroke-opacity="0.992157" d="M 39.8174,73.0008L 33.0066,76.5553C 32.4809,77.1778 32.0443,77.9329 31.6533,78.5987C 31.3684,79.1024 30.9018,79.5172 30.5263,79.9766C 29.6695,80.628 28.677,80.7015 28.2261,79.3541C 28.1058,78.2584 28.0759,77.4735 27.8649,76.5553L 25.9256,74.7335C 25.279,74.067 25.2645,73.1793 26.0613,72.5574C 28.8573,71.6387 28.7672,73.0303 31.0674,72.4678C 33.8936,71.4014 36.7855,69.8297 39.2363,68.3367C 39.9472,67.9359 41.3835,67.2149 43.17,66.3433C 38.2272,63.7459 35.4467,62.441 32.685,61.1734C 30.8455,60.8074 30.1227,61.6976 28.1243,61.2054C 27.4224,61.0377 26.1152,60.5875 26.976,59.2264C 27.5715,58.273 28.3895,57.8231 29.1124,57.0582C 29.1765,56.0638 29.145,55.0377 29.5596,54.0736C 30.2078,52.9957 30.7919,53.1739 31.6002,53.5709C 33.4395,54.6707 32.9503,56.0216 34.4708,57.2154C 37.1884,58.692 39.4851,59.6932 47.7363,64.1451C 52.2465,61.9935 57.0429,59.7467 58.4274,59.0728C 59.9754,57.7996 59.5843,56.5704 60.8175,55.6522C 62.0355,54.5118 62.8469,54.793 63.298,55.4298C 63.7336,56.5113 63.9447,57.5919 63.8846,58.7178C 65.0416,59.7691 65.6583,60.3765 66.3197,61.3387C 66.4096,62.5538 65.3272,63.0562 64.0192,63.0714C 62.3056,63.3824 62.0355,62.316 60.0955,63.0714L 52.7246,66.6983L 61.8688,71.335C 62.7703,71.7049 63.4923,71.5867 64.1691,71.3787C 65.2361,71.0679 66.0781,71.2462 66.9651,71.6012C 68.0321,72.1344 68.0629,72.8892 67.3707,73.6449C 66.7395,74.3707 66.1083,74.7403 65.3414,75.4661C 65.176,76.6363 65.2814,77.7176 64.7548,78.7982C 64.0936,79.7462 63.3868,79.5831 62.2745,78.576C 61.1466,77.7169 61.5531,76.7696 59.9296,75.3775L 48.0971,68.9754L 39.403,73.2535L 39.8174,73.0008 Z "/>
		<path fill="#FFFFFF" fill-opacity="1" fill-rule="evenodd" stroke-width="1.58" stroke-linejoin="round" stroke="#FFFFFF" stroke-opacity="0.992157" d="M 57.6329,41.1466C 56.8696,43.0191 56.0729,44.7672 55.9983,46.6031C 56.3439,48.0841 56.2384,49.8321 55.8629,51.2235C 55.3816,53.1339 53.4798,55.3331 51.6005,56.0885C 49.7214,56.8438 48.5189,57.0211 46.4138,57.0216C 44.3096,57.0211 43.1063,56.8438 41.1824,56.1549C 39.3032,55.3995 37.424,53.1339 36.9429,51.2235C 36.5664,49.8321 36.4617,48.0841 36.8073,46.6031C 36.7319,44.7672 35.9351,43.0191 35.3115,40.9908C 34.5994,40.0094 32.5048,35.6368 32.6962,33.2923C 30.5834,31.1954 29.1341,27.7501 28.9337,24.0294C 28.7147,19.9293 30.907,15.858 34.1924,13.5369C 37.8727,10.9849 44.0262,10.2794 47.8519,10.4693C 50.4436,10.4718 56.2174,11.7955 58.2547,13.2901C 61.8297,15.8507 63.7462,19.484 63.8792,23.6265C 64.0757,27.7867 62.297,30.9556 60.0589,33.0277C 60.2304,35.3551 58.4838,40.3209 57.6329,41.1466 Z "/>
		<path fill="#000000" fill-opacity="1" fill-rule="evenodd" stroke-width="0.2" stroke-linejoin="round" d="M 46.0263,35.7581C 44.9757,36.5455 44.742,36.8092 44.161,37.6805C 43.9508,38.0159 43.5589,38.8018 43.4519,39.3284C 43.3447,39.8553 43.2643,40.6202 43.2643,41.0245C 43.266,42.3961 43.7091,43.2569 44.1934,43.2271C 44.6259,43.1776 45.1762,42.7332 46.0101,41.7244"/>
		<path fill="#000000" fill-opacity="1" fill-rule="evenodd" stroke-width="0.2" stroke-linejoin="round" d="M 46.7826,35.7803C 47.8332,36.5679 48.0669,36.8316 48.647,37.7027C 48.8573,38.0387 49.2492,38.8241 49.357,39.3509C 49.4642,39.8775 49.5446,40.6417 49.5438,41.047C 49.5429,42.4183 49.099,43.2791 48.6155,43.2486C 48.183,43.1998 47.6322,42.7554 46.798,41.7471"/>
		<path fill="#000000" fill-opacity="1" fill-rule="evenodd" stroke-width="0.2" stroke-linejoin="round" d="M 37.0963,29.7662C 38.5553,29.5145 39.9677,29.3516 41.4259,29.1886C 43.3358,28.7144 44.2981,30.8619 43.7716,32.4757C 43.1102,33.9129 42.178,35.1715 41.111,36.3858C 40.2834,37.304 39.2984,37.4525 38.3596,37.1409C 37.601,36.9339 36.9008,36.4742 36.1493,35.4083C 35.8184,34.4898 35.5328,34.0157 35.1115,32.8761C 34.7815,31.8243 35.2958,30.2506 37.0963,29.7662 Z "/>
		<path fill="#000000" fill-opacity="1" fill-rule="evenodd" stroke-width="0.2" stroke-linejoin="round" d="M 55.7403,29.7662C 54.2822,29.5145 52.8689,29.3516 51.4107,29.1886C 49.5016,28.7144 48.5393,30.8619 49.0658,32.4757C 49.7272,33.9129 50.6586,35.1715 51.7264,36.3858C 52.5531,37.304 53.5381,37.4525 54.4778,37.1409C 55.2355,36.9339 55.9357,36.4742 56.6879,35.4083C 57.0182,34.4898 57.3038,34.0157 57.725,32.8761C 58.0559,31.8243 57.5416,30.2506 55.7403,29.7662 Z "/>
		<path fill="none" fill-rule="evenodd" stroke-width="0.789998" stroke-linejoin="miter" stroke="#000000" stroke-opacity="0.992157" d="M 37.0703,42.0355C 37.6862,43.4598 37.8768,44.0008 38.3215,45.421C 38.7004,46.7325 38.84,47.5335 39.0737,49.397"/>
		<path fill="none" fill-rule="evenodd" stroke-width="0.789998" stroke-linejoin="miter" stroke="#000000" stroke-opacity="0.992157" d="M 55.6892,41.9571C 55.0725,43.3814 54.8818,43.9224 54.4379,45.3419C 54.0591,46.6534 53.9195,47.4542 53.6858,49.3182"/>
		<path fill="none" fill-rule="evenodd" stroke-width="0.630005" stroke-linejoin="miter" stroke="#000000" stroke-opacity="0.992157" d="M 39.7008,45.3658C 41.2952,46.3289 44.0522,46.4776 46.5221,46.4337C 49.2735,46.4202 51.6282,46.2242 53.1754,45.3028"/>
		<path fill="none" fill-rule="evenodd" stroke-width="0.630005" stroke-linejoin="miter" stroke="#000000" stroke-opacity="0.992157" d="M 40.2591,47.8785C 42.0181,48.9681 44.0871,49.3421 46.4702,49.2535C 48.9449,49.1942 50.842,48.9888 52.5378,47.8475"/>
		<path fill="none" fill-rule="evenodd" stroke-width="0.789998" stroke-linejoin="miter" stroke="#000000" stroke-opacity="0.992157" d="M 38.9835,49.1983C 40.8652,51.4337 43.4916,51.8223 46.4775,51.8997C 49.6761,52.0147 52.8882,50.764 53.7176,49.1983"/>
		<line fill="none" stroke-width="0.630005" stroke-linejoin="miter" stroke="#000000" stroke-opacity="0.992157" x1="40.2346" y1="45.8487" x2="40.1902" y2="50.2469"/>
		<line fill="none" stroke-width="0.630005" stroke-linejoin="miter" stroke="#000000" stroke-opacity="0.992157" x1="41.7009" y1="46.3145" x2="41.6782" y2="51.0245"/>
		<line fill="none" stroke-width="0.630005" stroke-linejoin="miter" stroke="#000000" stroke-opacity="0.992157" x1="43.3244" y1="46.5152" x2="43.2791" y2="51.4466"/>
		<line fill="none" stroke-width="0.630005" stroke-linejoin="miter" stroke="#000000" stroke-opacity="0.992157" x1="44.7898" y1="46.6263" x2="44.768" y2="51.6239"/>
		<line fill="none" stroke-width="0.630005" stroke-linejoin="miter" stroke="#000000" stroke-opacity="0.992157" x1="46.4361" y1="46.6702" x2="46.4361" y2="51.6688"/>
		<line fill="none" stroke-width="0.630005" stroke-linejoin="miter" stroke="#000000" stroke-opacity="0.992157" x1="48.015" y1="46.648" x2="48.0378" y2="51.6463"/>
		<line fill="none" stroke-width="0.630005" stroke-linejoin="miter" stroke="#000000" stroke-opacity="0.992157" x1="49.4357" y1="46.5152" x2="49.4804" y2="51.4244"/>
		<line fill="none" stroke-width="0.630005" stroke-linejoin="miter" stroke="#000000" stroke-opacity="0.992157" x1="51.0821" y1="46.2484" x2="51.1041" y2="50.9574"/>
		<line fill="none" stroke-width="0.630005" stroke-linejoin="miter" stroke="#000000" stroke-opacity="0.992157" x1="52.5701" y1="45.6702" x2="52.6156" y2="50.1134"/>
	</g>
	<g>
		<path fill="none" stroke-width="3" stroke-linejoin="round" stroke="#FF0000" stroke-opacity="1" d="M 15.5425,6.0948L 79.2103,6.0948C 84.7331,6.0948 89.2103,10.5721 89.2103,16.0948L 89.2103,80.0831C 89.2103,85.6058 84.7331,90.0831 79.2103,90.0831L 15.5425,90.0831C 10.0197,90.0831 5.54254,85.6058 5.54254,80.0831L 5.54254,16.0948C 5.54254,10.5721 10.0197,6.0948 15.5425,6.0948 Z "/>
		<line fill="none" stroke-width="3" stroke-linejoin="round" stroke="#FF0000" stroke-opacity="1" x1="8.04218" y1="9.08919" x2="86.7088" y2="87.0892"/>
	</g>
	<g>
		<radialGradient id="SVGID_Fill1_" cx="-16.0265" cy="9.87947" r="118.102" gradientUnits="userSpaceOnUse">
			<stop offset="0" stop-color="#FFFFFF" stop-opacity="0.843137"/>
			<stop offset="0.77027" stop-color="#FFFFFF" stop-opacity="0.32549"/>
			<stop offset="1" stop-color="#FFFFFF" stop-opacity="0"/>
		</radialGradient>
		<path fill="url(#SVGID_Fill1_)" stroke-width="0.2" stroke-linejoin="round" d="M 16.3506,3.44051L 80.3506,3.44051C 86.4258,3.44051 91.3506,8.36531 91.3506,14.4405L 91.3506,77.44C 91.3506,83.5152 86.4258,88.44 80.3506,88.44L 16.3506,88.44C 10.2755,88.44 5.35062,83.5152 5.35062,77.44L 5.35062,14.4405C 5.35062,8.36531 10.2755,3.44051 16.3506,3.44051 Z "/>
		<radialGradient id="SVGID_Stroke1_" cx="73.3702" cy="47.441" r="669.951" gradientUnits="userSpaceOnUse">
			<stop offset="0.869369" stop-color="#F1F1F1" stop-opacity="0"/>
			<stop offset="1" stop-color="#EEEEEE" stop-opacity="0.898039"/>
		</radialGradient>
		<path fill="none" stroke-width="4" stroke-linejoin="round" stroke="url(#SVGID_Stroke1_)" d="M 82.6005,7.44002L 82.6005,7.44002C 86.6046,7.44002 89.8505,10.6859 89.8505,14.6898L 89.8505,80.1903C 89.8505,84.1944 86.6046,87.4403 82.6005,87.4403L 82.6005,87.4403C 78.5965,87.4403 75.3506,84.1944 75.3506,80.1903L 75.3506,14.6898C 75.3506,10.6859 78.5965,7.44002 82.6005,7.44002 Z "/>
		<radialGradient id="SVGID_Stroke2_" cx="21.331" cy="47.4395" r="669.951" gradientUnits="userSpaceOnUse" gradientTransform="rotate(180.000000 21.330994 47.439529)">
			<stop offset="0.869369" stop-color="#F1F1F1" stop-opacity="0"/>
			<stop offset="1" stop-color="#EEEEEE" stop-opacity="0.898039"/>
		</radialGradient>
		<path fill="none" stroke-width="4" stroke-linejoin="round" stroke="url(#SVGID_Stroke2_)" d="M 12.1007,87.4405L 12.1007,87.4405C 8.0966,87.4405 4.85068,84.1947 4.85068,80.1908L 4.85068,14.6903C 4.85068,10.6861 8.0966,7.44026 12.1007,7.44026L 12.1007,7.44026C 16.1047,7.44026 19.3506,10.6861 19.3506,14.6903L 19.3506,80.1908C 19.3506,84.1947 16.1047,87.4405 12.1007,87.4405 Z "/>
		<radialGradient id="SVGID_Stroke3_" cx="47.3519" cy="21.4207" r="79.1194" gradientUnits="userSpaceOnUse" gradientTransform="rotate(-90.000000 47.351883 21.420731)">
			<stop offset="0.869369" stop-color="#F1F1F1" stop-opacity="0"/>
			<stop offset="1" stop-color="#EEEEEE" stop-opacity="0.898039"/>
		</radialGradient>
		<path fill="none" stroke-width="4" stroke-linejoin="round" stroke="url(#SVGID_Stroke3_)" d="M 7.35056,12.1903L 7.35056,12.1903C 7.35056,8.18611 10.5965,4.94026 14.6005,4.94026L 80.1009,4.94026C 84.1051,4.94026 87.3509,8.18611 87.3509,12.1903L 87.3509,12.1903C 87.3509,16.1944 84.1051,19.4403 80.1009,19.4403L 14.6005,19.4403C 10.5965,19.4403 7.35056,16.1944 7.35056,12.1903 Z "/>
		<radialGradient id="SVGID_Stroke4_" cx="47.3495" cy="73.4598" r="79.1195" gradientUnits="userSpaceOnUse" gradientTransform="rotate(90.000000 47.349503 73.459793)">
			<stop offset="0.869369" stop-color="#F1F1F1" stop-opacity="0"/>
			<stop offset="1" stop-color="#EEEEEE" stop-opacity="0.898039"/>
		</radialGradient>
		<path fill="none" stroke-width="4" stroke-linejoin="round" stroke="url(#SVGID_Stroke4_)" d="M 87.3508,82.6903L 87.3508,82.6903C 87.3508,86.6944 84.1049,89.9403 80.1008,89.9403L 14.6005,89.9403C 10.5963,89.9403 7.35051,86.6944 7.35051,82.6903L 7.35051,82.6903C 7.35051,78.6861 10.5963,75.4403 14.6005,75.4403L 80.1008,75.4403C 84.1049,75.4403 87.3508,78.6861 87.3508,82.6903 Z "/>
	</g>
</svg>
