<svg enable-background="new 0 0 255.00 255.33" height="255.333" viewBox="0 0 255 255.33" width="255" xmlns="http://www.w3.org/2000/svg" xmlns:xlink="http://www.w3.org/1999/xlink"><linearGradient id="a" gradientTransform="matrix(-.62931956366 -.777146631463 .777146631463 -.62931956366 .636789259852 2.080885312533)" gradientUnits="objectBoundingBox" x1=".814661" x2="1.81466" y1=".888576" y2=".888576"><stop offset="0" stop-color="#425e7e"/><stop offset=".893501" stop-color="#70acf1"/><stop offset="1" stop-color="#90c5f1"/></linearGradient><radialGradient id="b" cx="93.8989" cy="83.4467" gradientUnits="userSpaceOnUse" r="68.6273"><stop offset=".125" stop-color="#90f19d"/><stop offset=".323276" stop-color="#8cf186"/><stop offset=".323276" stop-color="#89f170"/><stop offset=".50431" stop-color="#7edf69"/><stop offset="1" stop-color="#447e42"/></radialGradient><linearGradient id="c"><stop offset="0" stop-color="#7edf69"/><stop offset="1" stop-color="#447e42"/></linearGradient><radialGradient id="d" cx="103.588" cy="135.399" gradientUnits="userSpaceOnUse" r="40.6863" xlink:href="#c"/><radialGradient id="e" cx="149.543" cy="83.4385" gradientUnits="userSpaceOnUse" r="24.1421" xlink:href="#c"/><g stroke-linejoin="round"><path d="m116.202 25.6025c55.228 0 99.999 44.7705 99.999 99.9995 0 55.227-44.771 99.999-99.999 99.999-55.2286 0-100.0003-44.772-100.0003-99.999 0-55.229 44.7708-99.9995 100.0003-99.9995z" fill="url(#a)" stroke-width=".2"/><path d="m51.7421 56.731v2.451l-1.4706.9805-12.7451-.4903-10.7842 15.6862v3.4315l4.4117 3.9215-.4902 4.4116 1.9608 3.4316 3.9215 3.4312.9804 16.6662 3.9216 4.412 13.2353 15.196 10.7843 7.843 11.7647 3.922 4.9019 2.451.9804-8.333-6.3725-4.902-5.8824-1.961-1.4706-5.882h9.3138l2.9411 5.392 4.4118 3.921 6.3725 2.451 13.2357-3.431 1.96-5.392h-12.2545l-4.902-6.863-.4901-4.902 17.1566-20.0979 6.373-5.3922-8.334-14.7058 4.902-6.3726-4.411-8.8235-6.373-4.9018-1.9607-5.3924 2.9407-5.3921 4.412-4.9019 1.961 9.8038 7.843 2.451 3.431 4.902 2.451 12.7451 3.922 5.8824 2.941 3.4313 6.863-4.9021 1.961-3.4312 17.157.9804 1.47 3.9216 6.373-5.8824-2.451-4.4117-5.883-1.4707-3.921-3.4313-.49-5.8823 3.921-2.4511.981-17.6469-7.353-5.8824-6.373-1.9608h-11.274l-5.883 2.9412-3.921 3.9215-4.902-.4901-3.432-5.3922-1.96-3.4313-6.863-.4902-3.9217 1.9607-3.9216 2.9412-9.3137 1.4706-.9804 2.4509 1.4706 4.4119-4.4118.9802-1.9608-2.941-8.3333-.9805-2.451 4.4118-.4901 5.8823v2.451l-2.451 1.4706h-4.4118l-1.4706-5.3921-2.9411-.4902-2.9412 3.4313-4.902 4.4117 1.4706 7.353zm24.64-10.5473-3.4314-2.9411 4.4118.9802h4.4117l5.8824.4902.4901 6.3726 1.9608 1.4706 3.4314 5.3922 2.9412 2.451-.4902 5.8823-4.4118.9804-3.4314-1.9608-1.9607-4.4118-3.4314-5.3921-5.3921-.9804v-2.451zm-3.9216 34.8037 2.451-5.3921 6.3725-1.9607 4.902 4.902-.9804 6.3726-3.4314 4.9018-5.8823-1.9608-3.9216-4.4117z" fill="url(#b)" stroke="#006432" stroke-width="2"/><path d="m99.9114 141.772h-8.3333l-5.8823 7.353-2.451 8.333-.4902 5.392 10.7843 7.353 5.3921 3.922 4.902 9.804-10.7843.98-.9804 7.843-.4902 9.804 2.451 11.274 1.9608 2.451 16.6661 3.922 26.471-9.314z" fill="url(#d)" stroke="#006432" stroke-width="2"/><path d="m159.225 87.2374.49-5.8823 5.392-3.6764 2.451 1.4706 11.765 13.2353-2.696-11.2746-1.471-3.1862 1.961-3.9215 4.657-3.9216 4.902-6.1275-.735-4.6568 3.186-2.9411 4.657 1.7156 10.784 14.951-9.804 13.9707-14.951 8.8233z" fill="url(#e)" stroke="#006432" stroke-width="2"/><g stroke-width=".2"><path d="m33.6671 233.74v-67.2h24.57c7.53 0 13.3175 1.37 17.3625 4.11s6.0675 6.6 6.0675 11.58c0 3.61-1.23 6.767-3.69 9.473-2.46 2.704-5.605 4.587-9.435 5.647v.195c4.86.59 8.7425 2.357 11.6475 5.302s4.3575 6.533 4.3575 10.763c0 6.18-2.22 11.08-6.66 14.7s-10.505 5.43-18.195 5.43zm15.36-55.68v15.36h6.495c3.05 0 5.45-.73 7.2-2.19s2.625-3.47 2.625-6.03c0-4.76-3.595-7.14-10.785-7.14zm0 26.88v17.28h8.115c3.46 0 6.1725-.793 8.1375-2.378s2.9475-3.747 2.9475-6.487c0-2.62-.965-4.678-2.895-6.173s-4.63-2.242-8.1-2.242z"/><path d="m171.907 233.74h-15.36v-40.215c0-4.34.195-9.135.585-14.385h-.375c-.78 4.13-1.485 7.1-2.115 8.91l-15.75 45.69h-12.375l-16.035-45.225c-.44-1.22-1.145-4.345-2.115-9.375h-.42c.4 6.63.6 12.445.6 17.445v37.155h-13.4399v-67.2h21.9749l13.725 39.84c1.1 3.18 1.9 6.38 2.4 9.6h.285c.84-3.72 1.73-6.955 2.67-9.705l13.725-39.735h22.02z"/><path d="m202.627 210.7v23.04h-15.36v-67.2h23.64c16.88 0 25.32 7.155 25.32 21.465 0 6.77-2.402 12.245-7.207 16.425s-11.223 6.27-19.253 6.27zm0-32.64v21.12h5.7c7.72 0 11.58-3.56 11.58-10.68 0-6.96-3.86-10.44-11.58-10.44z"/></g></g></svg>