<svg enable-background="new 0 0 250.00 255.33" height="255.334" viewBox="0 0 250 255.33" width="250" xmlns="http://www.w3.org/2000/svg" xmlns:xlink="http://www.w3.org/1999/xlink"><radialGradient id="a" cx="238.756" cy="-126.908" gradientUnits="userSpaceOnUse" r="99.8132"><stop offset="0" stop-color="#fffdfd" stop-opacity=".658824"/><stop offset="1" stop-color="#a8a8a8" stop-opacity=".494118"/></radialGradient><g stroke-linejoin="round"><g stroke-width=".2"><path d="m38.7712 78.4623c-1.5537-1.1094-3.1076-2.2188-4.7734-3.6207s-3.4436-3.0962-5.0547-4.2629-3.0556-1.8056-4.625-2.1528-3.2639-.4028-4.8889-.389c-1.625.014-3.1805.0973-4.9861.639-1.8056.5416-3.8611 1.5416-5.63884 2.8193-1.77783 1.2779-3.27783 2.8335-4.41663 4.778-1.13891 1.9443-1.91674 4.2777-2.54174 6.9303-.625 2.6528-1.097172 5.6252-1.249943 8.514-.152832 2.8888.013855 5.6945.625003 8.3615.61108 2.666 1.66656 5.194 2.63885 7.097.97223 1.903 1.86109 3.18 3.15271 4.389 1.29169 1.208 2.98621 2.347 4.87509 3.236 1.8888.889 3.9722 1.528 6.125 1.708 2.1527.181 4.3749-.097 6.1944-.694 1.8194-.597 3.2361-1.514 4.8333-2.639s3.375-2.458 5.1111-3.473c1.7361-1.013 3.4306-1.708 5.2639-1.985 1.8334-.278 3.8056-.139 5.8195.333s4.0694 1.278 5.4722 2.486 2.1528 2.819 2.7083 4.5c.5556 1.681.9167 3.431 1.1945 5.653.2777 2.222.4722 4.916.5416 6.666.0695 1.75.0139 2.556-.3055 6.181-.3195 3.625-.9028 10.069-1.7223 16.514-.8194 6.444-1.8749 12.889-2.3888 16.111s-.4861 3.222-.2778 3.222.5972 0 1.9305.194c1.3334.195 3.6112.584 5.8334 1.042 2.2222.459 4.3889.986 6.625 1.639s4.5416 1.431 7.125 2.069c2.5833.64 5.4444 1.14 8.1944 1.529 2.75.388 5.3889.666 7.8333.749 2.4445.084 4.6945-.027 7.1459-.347 2.4514-.319 5.1045-.847 7.3615-1.639 2.257-.791 4.118-1.847 5.534-3.152 1.417-1.306 2.389-2.862 2.875-4.459s.486-3.236.181-4.556c-.306-1.319-.917-2.319-1.861-3.471-.945-1.153-2.222-2.459-3.153-3.487-.931-1.027-1.514-1.777-1.875-2.625-.361-.847-.5-1.791-.625-3.013-.125-1.223-.236-2.723-.056-4.334.181-1.611.653-3.333 1.514-4.93.861-1.598 2.111-3.07 3.82-4.362 1.708-1.291 3.875-2.402 6.083-3.222 2.208-.819 4.458-1.347 6.347-1.597s3.417-.222 4.959-.111c1.541.111 3.097.305 4.441.555 1.343.25 2.475.556 3.875 1.084 1.399.528 3.066 1.278 4.427 2.09 1.361.813 2.416 1.688 3.354 2.771.937 1.083 1.757 2.375 2.465 3.875.709 1.5 1.306 3.208 1.674 4.798.368 1.591.507 3.063.437 4.66-.069 1.597-.347 3.32-.896 4.799-.548 1.479-1.368 2.715-2.125 3.819-.756 1.104-1.451 2.077-1.96 2.815-.508.737-.831 1.241-1.104 2.041-.272.8-.495 1.898-.55 2.991-.056 1.094.055 2.184.205 3.046.149.861.336 1.493.958 2.428.622.936 1.677 2.176 3.434 3.108s4.215 1.557 12.042 1.453c7.826-.104 21.021-.937 29.16-1.604 8.138-.667 11.222-1.167 14.305-1.667-.125-1.06-.25-2.121-.643-8.667-.394-6.546-1.055-18.577-1.375-25.937-.321-7.359-.3-10.046-.175-12.005.125-1.958.354-3.187.636-4.041.281-.855.614-1.334 1.201-2.018s1.427-1.573 2.264-2.184 1.67-.944 2.809-1.083 2.583-.084 3.778.125c1.194.208 2.139.569 3.236 1.111 1.097.541 2.347 1.264 3.736 1.986s2.917 1.444 4.278 1.93c1.361.487 2.555.737 4.583.792 2.028.056 4.889-.083 7.528-.889 2.639-.805 5.055-2.278 7.194-4.166 2.139-1.889 4-4.195 5.361-6.778 1.361-2.584 2.223-5.445 2.667-7.986.444-2.542.472-4.7642.347-6.9273-.125-2.1632-.403-4.2674-1.187-6.5903-.785-2.3229-2.077-4.8646-3.674-6.7534-1.597-1.8891-3.5-3.125-5.618-3.9375s-4.451-1.2016-6.451-1.3125c-2-.1112-3.667.0555-5.723.6666-2.055.6111-4.5 1.6668-7.083 2.6111-2.583.9445-5.305 1.7778-7.667 2.3057-2.361.5275-4.361.75-6.055.7221-1.695-.0278-3.083-.3055-4.195-.9167-1.111-.6111-1.944-1.5554-2.527-2.8611-.584-1.3055-.917-2.9722-1.084-4.3611-.166-1.3889-.166-2.5.292-12.6528.458-10.1529 1.375-29.3472 1.806-38.9445.43-9.5971.375-9.5971-5.764-10.375-6.139-.7777-18.361-2.3334-26.25-3.1943-7.889-.8612-11.445-1.0278-14.5-1.0834-3.056-.0557-5.611 0-7.5.25s-3.111.6943-4.167 1.3056c-1.056.6112-1.944 1.3887-2.556 2.6112-.611 1.2221-.944 2.8888-1.027 4.1943-.084 1.3057.083 2.25.389 3.25.305 1 .75 2.0557 1.555 3.1666.806 1.1112 1.972 2.2779 3.25 3.5279s2.667 2.5833 3.889 4.1387c1.222 1.5557 2.278 3.3334 2.694 5.5834.417 2.25.195 4.9723-.583 7.4723s-2.111 4.7777-3.667 6.5556c-1.555 1.7778-3.333 3.0555-5.138 4.0555-1.806 1-3.639 1.7223-6.167 2.1666-2.528.4445-5.75.6112-8.861.1945-3.111-.4166-6.111-1.4166-8.472-2.5833-2.362-1.1667-4.084-2.5-5.778-4.1112-1.695-1.6109-3.361-3.5-4.528-5.6666-1.167-2.1668-1.833-4.6111-2.083-7.0277s-.084-4.8057.389-6.6391c.472-1.8332 1.25-3.1109 2.388-4.5 1.139-1.3887 2.639-2.8887 3.862-4.3887 1.222-1.5 2.166-3 2.361-4.7779.194-1.7777-.361-3.8334-1.361-5.1388-1-1.3055-2.445-1.8612-4.389-2.3055-1.945-.4445-4.389-.7778-8.028-.9166-3.6389-.1391-8.4723-.0834-15.2917.0832-6.8195.1668-15.625.4443-20.9445.6668-5.3194.2221-7.1527.3888-8.0893.5007-.9367.112-.9766.1693-.928 1.4003.0486 1.2308.1858 3.6353.421 6.8099.2352 3.1744.5686 7.1188.9019 11.7854.3333 4.6667.6667 10.0557.7952 14.3578.1284 4.3021.0521 7.5172-.2153 10.5937-.2674 3.0763-.7257 6.0138-1.2153 8.316-.4896 2.3021-1.0104 3.9687-1.4722 5.2221-.4618 1.2536-.8647 2.0938-1.5139 3.1703-.6493 1.0763-1.5452 2.3888-2.467 3.2742-.9219.8855-1.8698 1.3437-2.698 1.6667-.8281.3229-1.5364.5104-2.0989.5885-.5625.0782-.9792.0469-1.4583-.0625-.4792-.1093-1.0209-.2968-1.625-.5226-.6042-.2258-1.2708-.4896-1.9375-.7536z" fill="#707072"/><path d="m54.6929 135.254c1.1128.025 2.2287.037 3.3477.037 69.4614 0 127.3954-47.5183 140.6504-110.6345.378-8.6533.125-8.6787-5.806-9.4301-6.138-.7775-18.361-2.3332-26.25-3.1943-7.888-.8613-11.444-1.0279-14.5-1.0832-3.055-.0557-5.611 0-7.5.25-1.888.25-3.111.6943-4.166 1.3053-1.056.6113-1.945 1.389-2.556 2.6113-.611 1.222-.944 2.8887-1.028 4.1943-.083 1.3057.084 2.25.389 3.25.306 1 .75 2.0557 1.556 3.1666.805 1.1111 1.972 2.2778 3.25 3.5278s2.667 2.5833 3.889 4.139 2.278 3.3332 2.694 5.5832c.417 2.25.195 4.9725-.583 7.4725s-2.111 4.7775-3.667 6.5553c-1.555 1.7779-3.333 3.0556-5.139 4.0556-1.805 1-3.639 1.7223-6.166 2.1666-2.528.4444-5.75.6111-8.861.1944-3.112-.4166-6.112-1.4166-8.473-2.5833s-4.083-2.5-5.777-4.1111c-1.695-1.6109-3.362-3.5-4.528-5.6666-1.167-2.1666-1.834-4.6109-2.084-7.0277-.25-2.4166-.083-4.8057.389-6.6389.473-1.8334 1.25-3.1111 2.389-4.5 1.139-1.389 2.639-2.889 3.861-4.389 1.223-1.5 2.167-3 2.361-4.7778.195-1.7775-.361-3.8332-1.361-5.1389-1-1.3054-2.444-1.8611-4.389-2.3054-1.944-.4446-4.388-.7779-8.0272-.9166-3.6389-.1391-8.4722-.0834-15.2916.0834-6.8196.1666-15.625.4443-20.9446.6666-5.3194.222-7.1527.3887-8.0893.5006-.9367.112-.9766.1693-.928 1.4004l.421 6.8099.9019 11.7855c.3334 4.6667.6667 10.0557.7952 14.3577.1284 4.3021.0521 7.5173-.2153 10.5938-.2674 3.0761-.7257 6.0136-1.2153 8.3158-.4896 2.3021-1.0104 3.9687-1.4722 5.2222-.4618 1.2537-.8646 2.0938-1.5139 3.1703-.6493 1.0762-1.5451 2.3887-2.467 3.2741-.9219.8855-1.8698 1.3437-2.6979 1.6667-.8281.3229-1.5365.5104-2.099.5885-.5625.0782-.9791.0469-1.4583-.0625-.4792-.1093-1.0208-.2968-1.625-.5224l-1.9374-.7536c-1.5538-1.1094-3.1077-2.2187-4.7735-3.6208-1.6658-1.402-3.4436-3.0963-5.0547-4.263s-3.0555-1.8056-4.625-2.1527c-1.5694-.3473-3.2639-.4029-4.8889-.389-1.625.014-3.1805.0974-4.9861.639-1.8055.5417-3.8611 1.5417-5.63876 2.8194-1.77783 1.2777-3.27783 2.8333-4.41669 4.7779-1.13891 1.9444-1.91675 4.2777-2.54175 6.9304-.625 2.6526-1.097165 5.625-1.249936 8.514-.152832 2.8886.013855 5.6943.624996 8.3613.61109 2.666 1.66663 5.194 2.63886 7.097s1.86108 3.18 3.15277 4.389c1.29163 1.208 2.98615 2.347 4.87511 3.236 1.8888.889 3.9721 1.528 6.125 1.708 2.1527.181 4.3749-.097 6.1943-.694 1.8195-.597 3.2361-1.514 4.8333-2.639 1.5973-1.125 3.3751-2.458 5.1112-3.472s3.4305-1.709 5.2639-1.986c1.8333-.278 3.8055-.139 5.8194.333s4.0694 1.278 5.4722 2.486 2.1528 2.819 2.7083 4.5c.5556 1.681.9167 3.431 1.1945 5.653s.4722 4.916.5417 6.666c.0694 1.75.0139 2.556-.3055 6.181-.0457.518-.0966 1.093-.1529 1.717z" fill="url(#a)"/><path d="m132.322 59.384c-.754.0869-1.664.0522-2.577.059l-2.326.1213c-.497.0662-.573.1494-.757.3094-.184.1597-.476.3957-.504.7707s.209.889.486 1.2293c.278.34.598.5068.903.6178.306.1113.597.1669.868.0452.271-.1214.521-.4199.74-.7396l.587-.9512c.18-.2916.354-.5347.552-.5732.198-.0381.42.1285.528.4063.107.2779.1.6669.142 1.1566.041.4895.132 1.0797.302 1.6526.17.573.42 1.1286.812 1.4687.393.3402.927.4652 1.351.3158.424-.149.736-.5726.945-1.024.208-.4516.312-.9307.371-1.285l.149-.84.368-.785c.153-.2428.32-.4443.553-.566.232-.1215.531-.1631.704-.3262.174-.1631.223-.4478.164-.7535-.059-.3054-.226-.6318-.427-.8334-.202-.2012-.438-.2777-.775-.2535-.337.0244-.774.1494-1.291.316-.518.1666-1.115.375-1.868.4619z" fill="#95bd07"/><path d="m156.603 22.0852c-.424.0765-1.077.2848-1.41.5209-.333.2363-.347.5002-.451.6252s-.299.1111-.549.1455c-.25.0349-.555.1182-.68.3197-.125.2016-.07.5209.201.8887.271.3682.757.7848 1.229.9307.472.1458.931.0208 1.243.0833.313.0625.479.3125.674.5485.194.2363.416.4586.729.528.312.0693.715-.014.91-.2223.194-.2084.18-.5417.451-.8402s.826-.5625 1.285-.6739c.458-.1109.819-.0693.889.0697.069.1391-.153.375-.327.5971-.173.2223-.298.4306-.451.5348-.153.1041-.333.1041-.486.139-.153.0348-.278.1041-.403.2291s-.25.3057-.188.5694c.063.264.313.6113.591.7154.278.1043.583-.0348.895-.1946l.869-.4792c.236-.1387.389-.236.625-.1598.236.0765.555.3265.895.3405.341.014.702-.2083 1.035-.3614l.896-.3541.778-.3746c.312-.1043.729-.1599.965-.3406.236-.1803.292-.486.424-.7432l.465-.6526c.125-.1875.167-.3542.285-.4443.118-.0902.312-.1042.409-.2917.098-.1875.098-.5485.132-.7985.035-.25.105-.389.348-.4586.243-.0694.659-.0694.944-.2709.285-.2012.438-.6039.493-1.0414.056-.4375.014-.9098-.229-1.1181s-.688-.1526-.993.0277c-.306.1806-.472.4863-.59.7291-.118.2432-.188.4238-.174.625l.118.6322c.007.2084-.076.4027-.188.458-.111.0557-.249-.0277-.458.014-.208.0417-.486.2083-.66.4098-.173.2016-.243.4375-.451.6178-.208.1807-.555.3057-.854.2849s-.549-.1875-.583-.3265c-.035-.1387.145-.2496.312-.3818.167-.1319.32-.2846.41-.5485.09-.264.118-.639.118-1 0-.3611-.028-.7084-.257-.8057-.229-.097-.66.0557-1.188.1875-.527.1321-1.152.2432-1.569.4723-.417.2292-.625.5766-.882.8542-.257.2777-.562.486-.931.6042-.368.1182-.798.1458-.993.0416-.194-.1041-.152-.3402-.347-.4791-.194-.139-.625-.1807-.896-.0697-.27.1113-.382.3754-.548.5905-.167.2152-.389.3818-.507.3193s-.132-.3541-.209-.5901c-.076-.2361-.215-.4167-.381-.5349-.167-.1178-.362-.1735-.785-.0973z" fill="#95bd07"/><path d="m140.408 21.4742c-.298-.1318-.729-.1595-.937.014s-.195.5485-.424.8886c-.229.3406-.701.6463-.729 1.1254s.389 1.1318.701 1.6178c.313.4863.521.8057.771.9443.25.1391.542.0974.903.1668.361.0696.792.2502 1.243.292.452.0416.924-.0557 1.188-.2572.264-.2012.319-.5069.52-.7152.202-.2083.549-.3194.896-.6182.348-.2985.695-.7844.715-1.125.021-.3401-.284-.5344-.708-.7428-.423-.2084-.965-.4307-1.18-.6254-.216-.1943-.104-.3609-.243-.5553-.139-.1943-.528-.4166-.834-.4791-.305-.0625-.527.0348-.722.1735-.194.139-.361.3197-.528.2916-.166-.0276-.333-.2637-.632-.3958z" fill="#95bd07"/><path d="m224.95 79.495c-.479.125-1.132.4584-1.528.7084s-.534.4166-.583.5277c-.049.1113-.007.167.208.2223.216.0556.604.1113 1.132-.125.528-.236 1.195-.7637 1.375-1.0694.181-.3056-.125-.389-.604-.264z" fill="#95bd07"/><path d="m219.131 85.7799c-.41.4098-.73.6875-1.132.7844-.403.0974-.889.0141-1.309-.0276-.421-.0417-.775-.0417-.952.0901-.177.1322-.177.3963-.357.6947-.181.2985-.542.6319-.889.9303-.348.2989-.681.5629-.709.8197-.028.2569.25.5069.452.625.201.1182.326.1042.389.25.062.1459.062.4516.187.6598.125.2084.375.3194.597.3402.222.0209.417-.0484.493-.2431.077-.1944.035-.5137-.014-.75-.048-.236-.104-.3887.126-.6527.229-.264.742-.639 1.062-.889.319-.25.444-.375.632-.361.187.014.437.1667.528.3542.09.1875.02.4098.139.5068.118.0973.423.0696.68-.0902s.465-.4515.549-.639c.083-.1875.041-.2708.298-.3682.257-.0969.813-.208 1.16-.4234.347-.2152.486-.5346.715-.8262s.549-.5557.75-.8473c.202-.2917.285-.6111.316-1.25.032-.639.011-1.5974-.139-2.1042-.149-.5069-.427-.5625-.677-.5557-.25.0072-.472.0765-.632.25-.159.1738-.256.4515-.388.8402-.132.389-.299.889-.632 1.4098-.334.5209-.834 1.0625-1.243 1.4724z" fill="#95bd07"/><path d="m214.179 85.6825c-.049-.3401-.354-.5762-.625-.7219-.271-.1459-.507-.2016-.91-.1182-.402.0833-.972.3057-1.27.6807-.299.375-.327.9026-.244 1.3886.084.4864.278.9307.577 1.1042.298.1738.701.0765 1.069-.1527s.702-.5901.973-.9932c.27-.4026.479-.8469.43-1.1875z" fill="#95bd07"/><path d="m235.19 118.526c-.056.219.027.469.149.531.121.063.281-.062.316-.048s-.056.167.031.243.351.076.556-.024c.205-.101.35-.302.357-.511.007-.208-.125-.423-.309-.555s-.42-.181-.635-.111c-.215.069-.41.256-.465.475z" fill="#95bd07"/><path d="m236.447 121.37.01-.694c.031-.215.156-.375-.01-.393-.167-.017-.625.108-.924.247s-.438.292-.5.548c-.063.258-.049.619.146.768.194.149.569.086.83-.018.26-.104.406-.25.448-.458z" fill="#95bd07"/><path d="m232.929 121.488c.191-.222.24-.472.122-.701-.118-.23-.403-.438-.653-.473-.25-.034-.465.105-.597.379s-.181.684-.122.941.226.361.476.316.583-.239.774-.462z" fill="#95bd07"/><path d="m232.641 119.249c.306-.192.514-.567.49-.81-.025-.242-.282-.353-.518-.399-.236-.045-.451-.024-.639.045-.187.07-.347.188-.416.424-.07.236-.049.59.163.764s.614.167.92-.024z" fill="#95bd07"/><path d="m224.025 108.766c.224-.052.307-.281.297-.547-.011-.266-.115-.568-.313-.688-.198-.119-.49-.057-.713.042-.224.099-.381.234-.407.406s.078.381.313.547c.234.167.599.292.823.24z" fill="#95bd07"/><path d="m217.639 116.047c-.234-.281-.432-.708-.593-1.016l-.37-.562c-.084-.068-.125-.016-.339.078-.213.094-.599.229-.838.474-.24.245-.334.599-.23.818.105.218.407.302.558.489.151.188.151.479.187.74.037.26.11.489.271.547.162.057.412-.058.599-.052.188.005.313.13.495.208s.422.109.531.234.089.344.359.49c.271.146.834.219 1.245.417.412.198.672.52.875.661s.349.099.537.307c.187.209.416.667.573.969.156.302.239.448.5.511.26.062.698.041 1.015-.058.318-.099.516-.276.719-.442.203-.167.411-.323.677-.407.266-.083.589-.093.849.021.26.115.458.354.609.563.151.208.256.385.37.427.115.041.24-.052.412.062.172.115.39.438.599.698.208.261.406.458.64.521.235.062.505-.01.782-.125.276-.115.557-.271.671-.5.115-.229.063-.531-.13-.813-.193-.281-.526-.541-.823-.76s-.557-.396-.672-.594c-.114-.198-.083-.416.12-.531s.578-.125.932-.167c.355-.041.688-.114.969-.276.281-.161.511-.411.745-.651l.698-.713c.224-.245.432-.505.536-.787.105-.281.105-.583-.088-.765-.193-.183-.578-.245-.886-.167-.307.078-.536.297-.791.615-.255.317-.537.734-.844.953-.307.218-.641.239-.833.343-.193.105-.245.292-.453.474-.209.183-.573.36-.875.344-.303-.015-.542-.224-.875-.583l-1.141-1.214c-.38-.343-.714-.521-1.104-.604-.391-.083-.839-.073-1.219-.198s-.693-.385-1-.562-.609-.271-.901-.261c-.292.011-.573.125-.802.334-.229.208-.406.51-.646.703-.24.192-.542.276-.828.25-.287-.026-.557-.162-.792-.443z" fill="#95bd07"/><path d="m218.499 108.124c.041.083.291.201.441.201.149 0 .198-.118.156-.201-.042-.084-.174-.132-.323-.132s-.316.048-.274.132z" fill="#95bd07"/><path d="m211.228 105.769c-.153-.152-.368-.27-.521-.288-.153-.017-.243.066-.306.101-.062.035-.097.021-.149.135-.052.115-.122.358-.122.594s.07.465.24.552.441.031.656-.087c.216-.118.375-.298.41-.482s-.056-.372-.208-.525z" fill="#95bd07"/><path d="m208.186 107.12c-.069.254-.118.518-.035.674.084.156.299.205.526.159.228-.045.467-.184.611-.371.145-.188.193-.424.152-.632-.042-.208-.174-.389-.306-.531l-.385-.316c-.122-.07-.233-.104-.292-.216-.059-.111-.066-.298-.031-.451.034-.153.111-.271.274-.32l.649-.059c.236-.031.459-.114.636-.263.177-.15.309-.365.243-.531-.066-.167-.33-.285-.632-.379s-.643-.163-.837-.302-.243-.347-.177-.549c.066-.201.246-.395.406-.545.16-.149.299-.253.38-.493.082-.24.106-.615.021-.889s-.279-.448-.512-.587-.503-.243-.795-.257c-.292-.013-.604.063-.889.205-.285.143-.542.351-.712.705s-.253.854-.364 1.295c-.112.441-.25.823-.198 1.295.052.473.295 1.035.559 1.393s.548.51.805.652l.674.369c.187.093.333.149.361.298.028.15-.063.393-.132.646z" fill="#95bd07"/><path d="m211.377 107.613c-.222-.094-.68-.1-1.066-.066l-.861.167c-.163.055-.177.09-.163.212.014.121.055.329-.056.454s-.375.167-.614.219c-.24.052-.455.115-.504.281-.048.167.07.438.247.559.177.122.413.094.559.219s.201.403.354.625.403.389.677.431c.274.041.573-.042.906-.139.334-.097.702-.208.979-.396.278-.187.466-.451.504-.788s-.073-.747-.226-.979c-.153-.233-.347-.288-.437-.407-.091-.117-.077-.298-.299-.392z" fill="#95bd07"/><path d="m207.113 107.158c-.062-.201-.208-.437-.41-.569-.201-.132-.458-.16-.6-.167-.143-.007-.17.007-.205.122-.035.114-.076.33-.191.51-.115.181-.302.326-.458.451-.157.125-.282.23-.323.358-.042.129 0 .281.135.382.136.101.365.149.604.174.24.024.49.024.636-.059.146-.084.187-.25.309-.375l.434-.334c.111-.125.132-.291.069-.493z" fill="#95bd07"/><path d="m213.874 113.054c-.011-.139.135-.271-.011-.343-.146-.073-.583-.087-.823-.074-.239.014-.281.056-.33.181-.048.125-.104.333-.215.42s-.278.052-.413.163c-.135.112-.24.368-.219.587s.167.4.365.497.448.111.701.166c.254.056.511.153.726.108s.389-.233.476-.469c.086-.236.086-.521.003-.736s-.25-.361-.26-.5z" fill="#95bd07"/><path d="m213.304 116.124c-.226.027-.385.048-.458.131-.073.084-.059.23-.094.306l-.226.163-.364.445c-.125.211-.243.482-.129.625.115.142.462.156.743.104.282-.052.497-.17.719-.181.222-.01.452.087.649.028.198-.059.365-.274.441-.496.077-.223.063-.452-.031-.657-.094-.204-.267-.385-.5-.458-.232-.073-.524-.038-.75-.01z" fill="#95bd07"/><path d="m211.877 116.307c.035-.149-.021-.392-.194-.545-.174-.152-.466-.215-.65-.211-.184.003-.26.073-.389.215-.128.142-.309.358-.322.562-.014.205.138.4.347.507.208.108.472.129.635.07s.226-.198.32-.295c.093-.097.218-.153.253-.303z" fill="#95bd07"/><path d="m208.832 115.182c.052-.246.094-.482-.017-.638-.112-.156-.375-.233-.671-.347-.295-.115-.621-.268-.906-.223s-.528.289-.691.583c-.163.296-.246.643-.219 1.049.028.407.167.872.337 1.118.17.247.372.275.535.392l.476.508c.187.18.437.333.691.458.254.124.511.221.737.245.226.025.42-.023.544-.145.125-.121.18-.315.08-.538-.101-.222-.358-.472-.441-.712-.084-.239.007-.468-.07-.631-.076-.163-.319-.261-.409-.438-.091-.177-.028-.434.024-.681z" fill="#95bd07"/><path d="m206.589 110.388c-.191-.25-.49-.514-.823-.716-.333-.201-.701-.34-.92-.382-.219-.041-.288.014-.531.299l-1.15 1.333c-.489.535-1.052 1.091-1.684 1.604-.632.514-1.333.987-1.746 1.216s-.538.215-.622.503c-.083.288-.125.879.101 1.427.226.549.719 1.056 1.267 1.392.549.337 1.153.504 1.65.605.496.1.885.135 1.152.024.268-.111.414-.368.49-.632s.083-.535.33-.906c.246-.372.732-.844 1.055-1.122s.483-.361.525-.552c.041-.191-.035-.489-.101-.823-.066-.333-.122-.701-.024-1.01.097-.309.347-.559.604-.806.257-.246.521-.489.611-.729.09-.239.007-.475-.184-.725z" fill="#95bd07"/><path d="m155.936 124.12c-.333.354-.771.719-1.276 1.104l-1.448 1.12c-.37.328-.536.578-.625.891-.088.312-.099.687-.041.953.057.265.182.422.182.677s-.125.609-.229.755c-.105.146-.188.083-.313.26s-.292.594-.307 1.063c-.016.469.12.989.469 1.469.349.479.911.916 1.375 1.088.463.172.828.078 1.046-.104.219-.182.292-.453.495-.766.203-.312.537-.666.667-1.171.13-.506.057-1.162.135-1.678.078-.515.308-.89.521-1.234.214-.344.412-.656.573-1.083.162-.427.287-.969.354-1.479l.073-1.454-.073-1.171c-.047-.261-.12-.334-.255-.349-.135-.016-.333.026-.547.218z" fill="#95bd07"/><path d="m111.348 54.9586c.323-.1719.468-.2865.156-.6511-.313-.3645-1.083-.9791-1.75-1.5729-.667-.5937-1.229-1.1666-1.677-1.4479-.448-.2812-.781-.2708-1-.3333s-.323-.1979-.474-.2969-.349-.1615-.568-.1928c-.219-.0312-.458-.0312-.635.125-.177.1563-.292.4688-.292.9168 0 .4479.115 1.0312.203 1.4947.089.4635.151.8073.281 1.0417.131.2343.329.3593.526.448l.573.25.495.4478c.162.1719.328.349.589.4272.26.0781.614.0572 1.005.0363.391-.0207.818-.0416 1.281-.1666.464-.125.964-.3541 1.287-.526z" fill="#95bd07"/><path d="m97.7676 22.4362c-.6944-.2778-1.4165-.5834-2.1804-.6947-.764-.111-1.5694-.0278-1.9167.014-.3473.0416-.2361.0416-.4167.2916s-.6527.75-1.2083 1.1944c-.5556.4447-1.1944.8336-1.9722 1.2086s-1.6945.7361-2.514.9164c-.8194.1806-1.5415.1806-1.9443.4029-.4028.2224-.4862.6668-.5695 1.0834s-.1667.8056-.4583 1.0834c-.2917.2775-.7917.4443-1.25.6666-.4584.2223-.875.5-.9305.9166-.0556.4168.2499.9724.3193 1.4724.0695.5-.0972.9444-.3193 1.3747-.2223.4306-.5001.8472-.9029 1.125-.4027.2779-.9306.4169-1.3333.7222-.4027.3057-.6806.7781-.5973 1.0557.0834.2777.5279.3611.9306.5418.4028.1806.764.4582.7223.75-.0417.2916-.4862.5972-.8612.7775-.375.1807-.6805.2364-.5138.5975.1667.3609.8055 1.0275 1.4305 1.3469.625.3197 1.2362.292 1.9306.2363s1.4722-.1389 2.1111-.0416 1.1389.375 1.5555 1.0834c.4167.7082.75 1.8472.8612 2.9025.1111 1.0557-.0001 2.0281.0832 2.5281.0834.5.3612.5276.4862.6663.125.139.0972.389.0138.5974-.0833.2082-.2221.375-.1804.5832.0416.2084.2638.4584.4998.6668.2362.2082.4862.375.5.5973.014.2223-.2082.5-.4165 1.2084-.2083.7082-.4029 1.8472-.3195 2.9582.0833 1.1111.4445 2.1943.8334 3.0693.3888.875.8055 1.5418 1.1388 1.8194.3334.2781.5834.167.9029.1947.3194.0277.7082.1943.9999.347.2916.153.4862.292.6806-.0693.1944-.3611.3889-1.2221.5833-1.9443l.4862-1.7364c.0971-.4304.0971-.708.6109-1.222.514-.5141 1.5418-1.2641 2.2224-1.9166.6805-.6528 1.0138-1.2084 1.625-1.5.6111-.2918 1.4999-.3194 2.014-.5975.514-.2775.653-.8053.597-1.2219-.055-.4167-.305-.7224-.417-.9863-.111-.2637-.083-.4861.098-.4861.18 0 .514.2224.75.25.236.0277.375-.1389.416-.5139.042-.375-.014-.9584-.083-1.514-.069-.5553-.153-1.0831.097-1.6387.25-.5557.834-1.1391 1.125-1.778.292-.6386.292-1.333.153-1.7497s-.417-.5557-.694-.7364c-.278-.1803-.556-.4025-.737-.6109-.18-.2084-.263-.4027-.152-.4723.111-.0693.416-.0137.666.0557.25.0693.445.1525.542-.2364.097-.3886.097-1.2497-.014-1.6664-.111-.4166-.333-.389-.542-.2779l-.597.4582c-.194.1531-.389.2641-.486.1668-.097-.0971-.097-.4027-.139-.7084-.041-.3053-.125-.6109.014-.8609s.5-.4444.736-.7084c.236-.2641.347-.5973.209-.8613-.139-.2637-.528-.4581-.612-.7914-.083-.3333.139-.8057.362-.9723.222-.1666.444-.0277.583.1943l.333.7363c.139.2084.361.3194.501.3122.14-.0071.198-.1328.157-.5635l-.268-1.7145c-.084-.5482-.112-.9092.027-1.2148.139-.3057.444-.5557.764-1.0557.319-.5.653-1.25.653-1.764 0-.5137-.334-.7913-.653-.9303-.32-.1391-.625-.1391-.847.0416-.223.1807-.362.5418-.584.875-.222.3334-.528.639-.778.7777-.25.1391-.444.1113-.5-.0693-.055-.1807.028-.5141.153-.8334l.403-.8613c.111-.236.167-.4026-.083-.486s-.806-.0834-1.056-.264c-.25-.1803-.194-.5413-.278-.8747-.083-.3333-.305-.639-.7496-.9169-.4446-.2778-1.1112-.5278-1.8058-.8053z" fill="#95bd07"/><path d="m44.2712 79.7643c-1.0312.1354-1.927-.0313-2.789-.2996-.862-.2682-1.6901-.6379-2.1363-.8219-.4462-.1839-.5105-.1822-.5703.0824-.06.2649-.1154.7926-.2821 1.1953-.1667.403-.4445.6807-.5695 1.111-.125.4307-.0972 1.014-.0416 1.6529.0555.6391.1388 1.3334.361 1.9584s.5834 1.1807.9862 1.7777c.4027.5973.8472 1.2364 1.3195 1.7917.4721.5556.9721 1.0279 1.3888 1.3056s.75.361 1.0972.8334c.3472.4723.7084 1.3332.9861 2.0276l.764 1.8193c.2916.5974.6804 1.2641 1.111 1.8613l1.2778 1.6111.8889 1.1944c.2361.2639.4306.3473.5833.2779.1528-.0693.264-.2916.264-.639 0-.3469-.1112-.8194-.3751-1.2916-.2639-.4721-.6805-.9444-1.0417-1.4584l-.9026-1.4026c-.2362-.3334-.4029-.4443-.5417-.5834-.1389-.139-.2501-.3056-.264-.4863-.0139-.1803.0695-.3746.1945-.4996s.2916-.1807.4583-.2088c.1667-.0276.3333-.0276.4305.0834.0972.1113.1251.3336.1112.5557-.014.2222-.0694.4447.0416.639.1111.1943.389.361.6667.5416.2777.1807.5556.375.9306.7777l1.2638 1.5417 1.0695 1.3333c.2917.3614.5138.6389.5972 1.0557.0833.4166.0278.9718.0556 1.4028.0277.43.1389.736.2639.986s.2638.444.4444.625.4027.347.6805.403c.2778.055.6112 0 .9028-.028.2917-.028.5417-.028.7362.097.1944.125.3332.375.5972.569.2639.195.6527.334.986.403l.8752.084c.2638.014.5138.041.6388.166s.125.348.3281.452.6094.09 1.0573.052l1.2656-.111c.3281-.011.4948.031.6355.166.1406.136.2551.365.375.568l.3541.557c.1094.178.2031.355.3906.459s.4688.135.6928.146c.2239.01.3906 0 .5728.109.1823.109.3803.339.5678.583.1875.245.3645.506.6041.646.2396.141.5417.162.6979.24.1563.078.1667.213.1927.479.0261.266.0678.661.2292.911.1615.25.4427.355.6719.506s.4062.349.6614.458c.2553.109.5886.13 1.125.234.5365.104 1.2761.292 1.6875.302.4115.011.4948-.156.6094-.312s.2604-.302.4792-.339c.2187-.036.5104.037.7239.328.2136.292.349.803.2032 1.401-.1459.599-.5729 1.287-1 1.969l-1.25 1.896c-.3959.537-.7604.932-1.0052 1.188-.2448.255-.3698.369-.4011.572-.0312.204.0313.495.0781.709.0469.213.0782.349-.026.484-.1042.136-.3437.271-.4687.464-.125.192-.1355.442.0625.817.1979.375.6041.875 1.0729 1.454.4687.578 1 1.234 1.4271 1.947.427.714.75 1.485.9947 2.12l.573 1.516c.1614.38.3177.641.5677.792s.5937.192 1.099.411c.5051.219 1.1718.615 1.6301 1.021.4584.406.7084.823.8907 1.349s.2968 1.161.3437 2.521c.0469 1.359.0261 3.442-.026 4.604-.0521 1.161-.1354 1.401-.2917 1.568-.1562.166-.3854.26-.5833.489s-.3646.594-.4167 1.391.0104 2.026.0417 2.791c.0312.766.0312 1.068-.0573 1.245-.0886.177-.2656.229-.4167.391-.151.161-.276.432-.3229.698l-.0677.76c-.0521.235-.1875.443-.3021.625s-.2083.339-.2604.573-.0625.547.0677.734c.1302.188.401.25.6406.282.2396.031.4479.031.5781.146.1303.114.1823.343.0469.557-.1354.213-.4583.411-.6458.588s-.2396.334-.2344.532.0677.437.0105.619c-.0574.183-.2344.308-.4219.438s-.3855.266-.448.469.0105.474.1407.698l.4687.619c.1511.219.2656.48.3125.813s.0261.739-.0989 1.193c-.125.453-.3542.953-.6303 1.421-.276.469-.5989.907-.8541 1.464s-.4427 1.234-.5209 2.156c-.0781.922-.0468 2.089.1042 2.933.1511.843.4219 1.364.6771 1.765s.4948.682.8646.828.8698.157 1.3177.141.8437-.057 1.0833.052.3229.37.3178.672c-.0053.302-.099.646-.2709.849s-.4219.265-.5781.396c-.1563.13-.2188.328-.1615.541.0573.214.2344.443.5365.636.3021.192.7291.349 1.5468.432.8178.083 2.0261.094 2.7553.094.7291 0 .9791-.011 1.1406-.099.1614-.089.2344-.255.276-.5.0417-.245.0521-.568-.151-.854-.2031-.287-.6198-.537-1.0937-.813l-1.4375-.89c-.4324-.313-.7657-.636-.9949-1.115-.2291-.479-.3541-1.115-.3645-1.594-.0105-.479.0937-.802.4322-1.219.3386-.416.9115-.927 1.349-1.364.4375-.438.7396-.802.9167-1.151s.2291-.682.1458-.964c-.0833-.281-.3021-.51-.5521-.677l-.7447-.396c-.2136-.125-.3594-.27-.3959-.463s.0365-.432.2292-.636c.1927-.203.5052-.369.9792-.895.4739-.526 1.1093-1.412 1.4322-1.99s.3334-.849.2448-1.063l-.3594-.578c-.0833-.208-.0625-.468.0313-.635.0937-.167.2604-.24.5417-.297.2812-.057.677-.099.9062-.255s.2917-.427.3073-.693c.0156-.265-.0156-.526.1146-.693.1302-.166.4219-.239.7396-.296l1.0468-.141c.3855-.042.8125-.083 1.1771-.266.3646-.182.6667-.505.8125-.823.1459-.317.1354-.63.0625-1.02-.0729-.391-.2083-.86-.2291-1.245-.0209-.386.0729-.688.3697-.776.2969-.089.7969.036 1.1928.13.3958.094.6875.156 1.1822-.542.4948-.698 1.1928-2.156 1.849-3.64.6563-1.485 1.2708-2.995 1.9583-4.058.6875-1.062 1.448-1.677 1.9063-2.057l.8646-.713c.25-.188.5937-.417 1.0468-.573.4532-.157 1.0157-.24 1.3438-.386.3282-.146.4219-.354.5885-.614l.7135-.969c.3078-.396.6828-.875.8798-1.323.198-.448.219-.865.256-1.438.036-.572.088-1.302.208-1.895.12-.594.307-1.052.74-1.787l1.604-2.521c.495-.776.807-1.317 1-1.812.192-.495.265-.943.213-1.318s-.229-.677-.552-.932-.791-.464-1.281-.651c-.49-.188-1-.354-1.297-.594s-.38-.552-.63-.698-.667-.125-1.073-.099c-.4063.026-.8021.057-1.1303-.031-.3281-.089-.5885-.297-.8281-.464-.2395-.166-.4583-.291-.6979-.328l-.7343-.036c-.2344-.052-.4427-.209-.6198-.386s-.3229-.375-.6771-.557-.9167-.349-1.3229-.344c-.4063.006-.6563.183-.9063.313s-.5.213-.6719.109c-.1718-.104-.2656-.396-.1875-.651.0782-.255.3282-.474.4428-.781.1145-.307.0937-.703-.0625-.984-.1563-.282-.448-.448-.7344-.74-.2865-.292-.5677-.708-1.0469-1.068-.4792-.359-1.1562-.661-1.651-.802-.4948-.14-.8073-.12-1.1615-.255s-.75-.427-1.2604-.849l-1.7552-1.542c-.6198-.567-1.2344-1.151-1.7604-1.489-.5261-.339-.9636-.433-1.3646-.344-.4011.089-.7656.359-1.0781.568-.3125.208-.573.354-.9323.281-.3594-.073-.8177-.365-1.2448-.75s-.8229-.865-1.2188-1.109c-.3958-.245-.7916-.256-1.2239-.136s-.9011.37-1.323.62c-.4218.25-.7968.5-1.0677.745l-.7343.729-1.0625.771c-.3386.276-.5886.578-.8333.833-.2449.255-.4844.464-.8438.552-.3594.089-.8386.057-1.2187-.083-.3803-.141-.6615-.391-.9272-.625-.2656-.235-.5156-.453-.5728-1.026-.0574-.573.0781-1.5.125-2.136.0468-.635.0051-.979-.4532-1.187s-1.3333-.281-1.849-.505c-.5156-.224-.6718-.599-.6718-1.089 0-.489.1562-1.094.2916-1.583.1355-.49.25-.8648.0834-1.1096-.1667-.2449-.6146-.3594-1.0209-.323-.4062.0365-.7708.224-1.1093.5209l-.9636 1.0107c-.3125.307-.625.515-1.0885.547-.4636.031-1.0781-.115-1.5834-.339-.5052-.224-.901-.526-1.1458-1.083-.2448-.5576-.3385-1.3701-.3906-1.9847l-.0781-1.4688c-.0157-.4375-.0365-.8957.1093-1.2968.1459-.401.4584-.7448.7552-1.0208.2969-.2761.5782-.4844.974-.6042s.9063-.151 1.3282-.151l1.0416.0625c.2865.0312.526.0625.8125-.0365l1.0104-.4688c.3906-.1406.8386-.1926 1.2083-.177l.9792.1406c.3177.0417.6615.0417.8906.151.2292.1094.3438.3282.4792.5417.1354.2136.2917.4218.349.6615.0573.2396.0156.5103.1145.776.099.2656.3386.5261.625.875.2865.349.6198.7865.9375 1.0417.3178.2551.6198.3281.8698.2291s.448-.3697.448-.849c0-.4791-.198-1.1666-.3959-1.6197s-.3958-.6719-.5885-.8438c-.1927-.1718-.3802-.2968-.5469-.5572-.1667-.2605-.3125-.6563-.2708-1.0469.0416-.3906.2708-.7761.6146-1.2031.3437-.4271.802-.8959 1.3333-1.4011l1.5677-1.4532c.4323-.4062.6927-.677.7396-.9113.0469-.2344-.1198-.4324-.1562-.6824-.0365-.25.0572-.552.2708-.8594.2135-.3072.5468-.6197.8229-.9219.276-.302.4948-.5937.5885-.9113.0938-.3178.0625-.6615.1146-.9532s.1875-.5312.4896-.6562.7708-.1355 1.1979-.1771c.4271-.0417.8125-.1147.9167-.2709.1041-.1563-.0729-.3958-.2604-.552-.1875-.1563-.3855-.2293-.4219-.3543-.0365-.125.0885-.302.25-.4947.1614-.1928.3594-.401.6563-.6041.2968-.2032.6926-.4012.927-.6094.2344-.2084.3073-.4271.5052-.5313s.5209-.0937.7396.0313c.2188.125.3333.3645.4948.5989.1615.2343.3698.4636.6875.5521s.7448.0365.9896-.099c.2448-.1354.3073-.3541.4479-.4844.1406-.1301.3594-.1719.4792-.302.1198-.1302.1406-.349.125-.5417-.0157-.1927-.0677-.3594-.2032-.4583-.1354-.099-.3541-.1302-.6718-.3699-.3177-.2395-.7344-.6875-.9948-1.0363-.2604-.349-.3646-.599-.3854-.7813-.0209-.1824.0416-.2969.1927-.4427.151-.1459.3906-.3229.4479-.526.0573-.2032-.0677-.4324-.2084-.5887-.1406-.1562-.2968-.2395-.5208-.2447-.2239-.0053-.5156.0677-.6875.1459l-.4375.2812c-.2135.1198-.5885.276-.8073.2083-.2187-.0677-.2812-.3594-.2396-.5833.0417-.224.1875-.3802.4063-.5469.2187-.1667.5104-.3437.9114-.4218.4011-.0782.9115-.0574 1.4167-.0678l1.6094-.0885c.6042-.0365 1.3125-.0677 1.7604-.2396s.6354-.4844.9219-.7656c.2864-.2813.6719-.5313 1.0156-.6928l.8907-.375c.2447-.1406.4322-.3489.4739-.6822.0417-.3334-.0625-.7917-.2188-1.224-.1562-.4323-.3645-.8385-.5781-1.177-.2135-.3387-.4323-.6094-.776-.7084-.3438-.099-.8125-.026-1.1407-.0938-.3281-.0677-.5156-.276-.7395-.75-.224-.474-.4844-1.2135-.6875-1.8228-.2032-.6094-.349-1.0887-.5365-1.4532-.1875-.3646-.4167-.6146-.5677-.7865l-.3229-.3958c-.099-.1302-.224-.2969-.2917-.5729s-.0781-.6615-.1927-.8646c-.1146-.2032-.3333-.2239-.5521-.1458-.2187.0781-.4375.2551-.6146.4479l-.4687.5885c-.1563.1875-.3333.3542-.6146.4584-.2812.1041-.6667.1458-.974.1041-.3072-.0416-.5364-.1666-.651-.5676-.1146-.4012-.1146-1.0782-.1875-1.6512-.0729-.5728-.2187-1.0416-.5-1.4687-.2812-.427-.6979-.8125-1.1562-1.1094-.4584-.2969-.9584-.5051-1.5886-.625-.6302-.1197-1.3906-.151-1.9062-.0729-.5157.0782-.7865.2657-1.0157.4635-.2291.198-.4166.4063-.5416.625-.125.2188-.1875.448-.0938.6615.0938.2135.3438.4115.5521.6719s.375.5834.3542.9584c-.0209.375-.2292.802-.4323 1.1562s-.4011.6354-.4115 1.0729.1667 1.0313.3646 1.5c.1979.4688.4167.8125.5208 1.2084.1042.3957.0938.8437-.0781 1.1979-.1719.3541-.5052.6146-.7708.7865-.2656.1718-.4636.2551-.625.5416-.1615.2865-.2865.776-.2917 1.2447-.0052.4688.1094.9168.2708 1.3022.1615.3853.3698.7083.3907 1.0468.0208.3385-.1459.6928-.4323.8073-.2865.1146-.6927-.0104-1.0469-.2344-.3542-.2239-.6562-.5469-.8593-1.125-.2032-.5781-.3074-1.4114-.4063-2.0364-.099-.625-.1927-1.0417-.7761-1.2812-.5833-.2396-1.6562-.3021-2.3593-.4063-.7032-.1042-1.0365-.25-1.3907-.75-.3541-.5-.7291-1.3542-1.0468-1.9115-.3177-.5572-.5782-.8177-1.0313-1.1771s-1.0989-.8176-1.4219-1.2707c-.3229-.4532-.3229-.9012-.125-1.4532.198-.5521.5938-1.2083 1.0157-1.75.4218-.5417.8698-.9687 1.2864-1.3593.4167-.3907.8021-.7449 1.2396-.9375.4375-.1928.9271-.224 1.2396-.3959s.4479-.4844.4636-.9271c.0156-.4427-.0886-1.0157-.0625-1.4479.026-.4323.1822-.724.2916-1.0625s.1719-.724.3177-1.0573.375-.6146.6927-.7552.724-.1406 1.1875-.2969c.4636-.1562.9844-.4687 1.3802-.8541.3959-.3855.6667-.8438.6771-1.2344s-.2396-.7136-.401-.9636c-.1615-.25-.2344-.427-.25-.6563-.0157-.2291.026-.5103.177-.6926.1511-.1824.4115-.2656.4272-.474.0156-.2084-.2136-.5416-.4688-.8802-.2552-.3385-.5365-.6823-.7969-.8698s-.5-.2187-.625-.099c-.125.1199-.1354.3906-.2083.7188l-.25 1.0052c-.0417.2916.0104.4896-.0573.7188-.0677.2291-.2552.4896-.4584.6771-.2031.1875-.4218.302-.6145.3125-.1927.0104-.3594-.0834-.4167-.323-.0573-.2395-.0052-.625-.0365-.9688-.0312-.3437-.1458-.6457-.3073-.7238-.1614-.0782-.3697.0676-.4843.2082s-.1354.2761-.2709.3074c-.1354.0312-.3854-.0418-.5573-.1563l-.4322-.4323c-.1667-.1614-.4063-.3282-.5261-.7344-.1198-.4063-.1198-1.052-.1823-1.6145s-.1875-1.0418-.4531-1.5313c-.2656-.4896-.6719-.9896-.9635-1.2812-.2917-.2918-.4688-.375-.6303-.3125-.1614.0625-.3072.2707-.4687.526l-.5052.8854c-.1667.3281-.3229.6823-.4219 1.0417-.0989.3594-.1406.7239-.1354 1.0156s.0573.5104.1719.7032l.4843.5937.6147.802c.2135.2656.4322.4949.552.8281.1198.3334.1406.7709.1042 1.0262-.0365.2551-.1302.3281-.3698.4113-.2396.0834-.625.1772-.9114.1563-.2865-.0208-.474-.1563-.6563-.2864-.1823-.1302-.3594-.2552-.4896-.448-.1302-.1926-.2135-.4531-.2396-.9062-.026-.4532.0052-1.0989-.0677-1.4895-.0729-.3907-.25-.5262-.5-.5887s-.5729-.052-.8021.0782c-.2291.1302-.3646.3802-.4947.573-.1303.1926-.2553.3281-.3074.5207-.052.1928-.0312.4428.1459.599.1771.1563.5104.2188.7135.4271s.2761.5625.1458.8333c-.1302.2709-.4635.4584-.776.573-.3125.1145-.6042.1562-.7448 1.4756-.1406 1.3195-.1302 3.917-.2812 6.507-.1511 2.5903-.4636 5.1736-.8698 7.5694-.4063 2.3959-.9063 4.6042-1.6354 6.8021-.7292 2.1979-1.6875 4.3854-2.6355 5.9375-.9479 1.5521-1.8854 2.4688-2.9375 3.1459-1.052.677-2.2187 1.1145-3.25 1.25zm21.0769-3.0648c-.302-.0417-.802.0103-1.3437.0468l-1.3854.0782h-.2657c-.0677-.0417-.2656-.1459-.2239-.3854.0417-.2396.3229-.6146.6146-.9375.2916-.323.5937-.5938 1.0521-.6719.4583-.0781 1.0729.0364 1.6666.3333.5938.2968 1.1667.7761 1.6979 1.1562.5313.3803 1.0209.6615 1.4427.8021.4219.1407.7761.1407 1.0365.25.2604.1094.4271.3282.4532.5678.026.2395-.0886.5-.2969.6354-.2084.1353-.5105.1458-.7553.2812-.2447.1354-.4322.3959-.6614.5521-.2292.1563-.5.2083-.6719 0s-.2448-.6771-.3594-.9843c-.1145-.3074-.2708-.4532-.4323-.6459-.1614-.1928-.3281-.4323-.5052-.5678-.177-.1353-.3645-.1666-.5104-.25-.1458-.0832-.25-.2187-.5521-.2603zm5.9741 2.3072c.0052-.2344.1614-.4114.3438-.5416.1822-.1303.3906-.2135.6145-.224.224-.0104.4636.0521.6146.2344s.2135.4843.1562.7292c-.0572.2448-.2343.4323-.4947.526-.2605.0938-.6042.0938-.849-.0521-.2448-.1458-.3906-.4375-.3854-.6719zm-1.7552 1.1875c.2187-.2031.5833-.3176.8437-.3489.2604-.0312.4167.0208.5261.1458.1093.125.1718.323.0625.474-.1094.151-.3907.2552-.5573.4062-.1667.151-.2188.349-.4063.375s-.5104-.1197-.6354-.3385c-.125-.2187-.0521-.5105.1667-.7136zm-4.7292-2.026c.1875-.2916.4792-.3959.75-.3959s.5208.1043.6667.2865c.1458.1823.1875.4428.0677.6147-.1198.1718-.4011.2551-.4792.552-.0781.2968.0469.8073.0469 1.1927s-.125.6459-.3386.8073c-.2135.1615-.5156.224-.7083-.0938-.1927-.3176-.276-1.0156-.276-1.6041s.0833-1.0678.2708-1.3594z" fill="#95bd07"/><path d="m70.3105 98.5032c-.1423-.2047-.302-.3854-.5798-.4616-.2778-.0765-.6736-.0488-1.1008-.0417-.427.0068-.8853-.0071-1.1736.0902-.2881.0973-.4062.3057-.5103.4271-.1042.1213-.1945.1563-.2431.2776-.0486.1218-.0556.3301-.0105.476.0452.1458.1424.2291.5347.2708l1.5487.1006c.4688.0588.7188.177.9132.3506l.4618.5522c.1285.149.2465.219.4166.267l.6042.105c.2119.027.4132.055.5659.138l.3786.341c.1215.118.2604.215.5589.232l1.0591-.038c.3021.007.448.083.5279.191l.1318.368c.0383.122.1008.226.2153.274l.3993.101c.1181.059.1876.184.2709.306.0833.121.1805.239.3992.302.2188.062.5591.069.8022.003.243-.066.3889-.205.5972-.326l.7153-.288c.2361-.063.4375-.084.5485-.247.1112-.163.132-.469-.0068-.67-.1389-.201-.4376-.299-.6599-.326-.2221-.028-.3679.014-.4479-.059-.0798-.073-.0936-.261-.2325-.369-.1389-.107-.4028-.135-.573-.232-.1701-.097-.2465-.264-.3576-.427s-.2569-.3232-.4341-.4134c-.177-.0902-.3853-.111-.5416-.0244-.1562.0869-.2604.2808-.3472.4268s-.1563.243-.3126.257c-.1562.014-.3992-.055-.5311-.18-.132-.125-.1528-.306-.3021-.3857s-.4271-.0589-.5904-.1422c-.1631-.0833-.2117-.2708-.3853-.3718-.1736-.1006-.4723-.1145-.8125-.1318-.3403-.0172-.7223-.0381-.9758-.1631-.2534-.125-.3784-.3541-.5208-.5592z" fill="#95bd07"/><path d="m73.7758 98.2255c.0452-.1631.059-.3506-.0278-.4583-.0868-.1078-.2743-.1355-.3855-.1494-.111-.0137-.1457-.0137-.2464.052-.1007.0662-.2674.198-.309.3406-.0417.1422.0416.2949.1909.4062.1493.111.3646.1803.5105.1458.1458-.0348.2222-.1739.2673-.3369z" fill="#95bd07"/><path d="m80.4868 102.305c-.0391-.164-.2266-.295-.349-.401l-.2422-.237c-.0625-.047-.1302-.058-.2682-.024-.1381.034-.3464.112-.4428.245-.0963.133-.0807.32-.0572.492.0234.172.0547.328.164.438.1094.109.2969.172.4792.172s.3593-.063.5026-.193c.1432-.13.2526-.328.2136-.492z" fill="#95bd07"/><path d="m69.9355 53.4442c-.1562-.2327-.4965-.552-.8438-.8577-.3471-.3054-.7013-.597-1.0555-.7568-.3541-.1599-.7083-.1875-.9688-.1006-.2603.0866-.427.2881-.5346.4928l-.264.5416-.3889.2953c-.1145.1182-.177.3057-.1284.4792s.2083.3333.3333.4306c.125.0971.2153.1319.2639.3022.0486.1699.0556.4755.1633.6422.1076.1667.3159.1943.5208.1146.2048-.0797.4062-.2672.5068-.3959.1008-.1285.1008-.1979.4271-.2359l1.3786-.1114c.3993-.0658.5451-.1908.6318-.3261.0869-.1354.1147-.2813-.0416-.5141z" fill="#95bd07"/><path d="m69.4841 55.8192c.0521-.1702.0313-.3645-.1216-.4859-.1527-.1218-.4374-.1703-.6284-.1703-.1909 0-.2881.0485-.3715.1527-.0833.1041-.1528.264-.1459.441.007.1771.0904.3715.264.4619.1736.0902.4375.0762.6318-.0035.1946-.0797.3196-.2256.3716-.3959z" fill="#95bd07"/><path d="m73.0952 55.2219c.2605-.1074.4133-.2533.382-.4584-.0312-.2047-.2465-.4687-.4897-.6074-.2429-.1389-.5138-.1529-.7429-.0556-.2292.0974-.4167.3056-.5.4931-.0834.1875-.0625.3543.0138.4965.0764.1422.2084.2604.4584.2848.25.0241.618-.0452.8784-.153z" fill="#95bd07"/><path d="m77.4685 48.0208c.0364.6353-.1094 1.2916-.3542 1.875-.2447.5833-.5885 1.0937-.9479 1.3906-.3593.2969-.7343.3802-.9549.4791-.2205.099-.2864.2136-.3089.3646-.0227.151-.0018.3385.0972.4428.0989.1041.276.125.4114.1875s.2292.1666.4687.2291l.9375.1041c.3125.0209.5522.0418.875.2137.323.1718.7292.4947 1.125.8906l1.1147 1.1875c.3333.3229.6145.5.8593.5364.2448.0365.4532-.0677.5417-.1719.0885-.1041.0573-.2083.1042-.3333.0468-.125.1718-.2708.3229-.3437.151-.073.3281-.073.4739 0l .3855.2551c.125.0365.2603-.0364.3072-.1457l.0678-.4063c.0625-.1511.2291-.3074.276-.5105.0468-.2031-.026-.4531-.1979-.6666s-.4428-.3906-.6459-.5053l-.4635-.2863-.3646-.4324-.4114-.3073c-.1511-.1197-.3177-.2968-.4115-.5052-.0937-.2083-.1146-.4479-.0834-.6198.0313-.1718.1147-.276.2344-.3125.1198-.0365.2761-.0052.4063.125.1302.1303.2343.3594.3333.5625.099.2032.1927.3803.4532.4792.2603.099.6875.1198.927.0625.2396-.0573.2917-.1927.4636-.2708s.4635-.099.7031-.2552c.2396-.1563.4271-.4479.401-.8438-.026-.3959-.2656-.8959-.625-1.25s-.8385-.5625-1.1041-.7552-.3178-.3698-.4375-.5677c-.1198-.198-.3073-.4167-.5313-.5105-.224-.0937-.4843-.0625-.6354-.1145-.1511-.0521-.1927-.1875-.2344-.3542l-.0573-.4948c.0261-.1302.1198-.1927.2553-.3125.1353-.1197.3125-.2968.3177-.5208.0051-.2239-.1615-.4948-.4393-.7796l-.9931-.8714-1.0485-1.0313-1.5487-1.5697c-.4375-.4512-.6597-.7012-1.1319-.7463-.4723-.0453-1.1944.1145-1.625.1353-.4306.0209-.5694-.0973-.6805-.4062-.1112-.309-.1945-.809-.2604-1.2432-.066-.4339-.1147-.8021-.2328-.9859-.118-.184-.3055-.184-.4271-.0557-.1215.1285-.177.3854-.3297.5104-.1529.125-.4029.1181-.5521-.0104-.1493-.1283-.198-.3783-.382-.5033s-.5035-.125-.8612.0658c-.3576.191-.7534.5729-1.1735 1-.4201.427-.8646.8994-1.073 1.3405-.2083.4407-.1805.8505-.1145 1.0865.0659.2363.1701.2988.2483.4291.0781.1302.1301.3281.3385.6197l.9271 1.0522.9948.9843c.2969.2448.5469.3698.7187.5678.1719.1979.2657.4687.25.7812-.0156.3125-.1406.6667-.0677.9063.0729.2395.3437.3645.6459.3906.302.026.6353-.0469.7864-.2344s.1198-.4896.1094-.7552c-.0105-.2656 0-.4948.0729-.6563s.2083-.2552.5521-.2708c.3437-.0157.8958.0468 1.3854.1927s.9166.375 1.2396.7969c.3229.4219.5417 1.0365.5781 1.6719z" fill="#95bd07"/><path d="m55.5883 35.0494c-.0156.3099-.1146.5495-.1849.7552-.0703.2058-.112.3777-.1112.7812.001.4037.0444 1.0391.1424 1.3809.0981.3421.2509.3906.3551.5921l.2569.809c.0973.2535.2361.4062.3472.4758l.3333.1074.5834.2225c.25.052.5555.038.8091-.0799.2534-.1181.4548-.3404.5069-.5139.052-.1736-.0451-.2986-.0069-.3787.0381-.0797.2118-.1145.4097-.1699.1979-.0556.4201-.1321.5034-.3056s.0278-.4444-.1215-.7985-.3923-.7916-.6319-1.1146c-.2396-.3229-.4758-.5313-.6633-.6739-.1875-.1422-.3263-.2187-.3575-.3261-.0313-.1077.045-.2467.1561-.3333l.3994-.2119c.1424-.0902.2812-.2361.3715-.4375.0903-.2015.1319-.4584.0903-.6527-.0417-.1947-.1667-.3265-.3047-.5104-.138-.1843-.289-.4203-.6354-.5332-.3464-.1126-.888-.1023-1.2683-.0527-.3801.0494-.5989.1379-.7551.2942-.1563.1562-.25.3802-.263.6824z" fill="#95bd07"/><path d="m65.3748 34.4114c-.2449-.1928-.5261-.4219-.8074-.5521-.2812-.1302-.5625-.1614-.789-.2005-.2266-.039-.3985-.0859-.5286.0755-.1302.1615-.2188.5312-.3594.7734s-.3333.3568-.4636.5547c-.1302.198-.1979.4792-.19.823.0078.3437.0911.75.2109 1.0547.1197.3047.276.5078.3255.8047.0495.2968-.0078.6875.0104 1.0728.0182.3854.112.7657.2865.9792.1745.2136.4297.2605.6198.2083.19-.0521.315-.2031.3672-.4896l.0911-1.0156c.0599-.3073.2005-.5.3567-.7188l.461-.664.375-.4817.5078-.3672c.1562-.1484.2656-.3516.2891-.5859.0234-.2344-.0391-.5-.1745-.711-.1354-.2109-.3437-.3672-.5885-.5599z" fill="#95bd07"/><path d="m72.8174 33.7811c-.1666-.151-.4062-.2343-.6614-.3125-.2552-.0781-.5261-.151-.8125-.1406-.2864.0105-.5886.1043-.7812.25-.1927.1459-.2761.3438-.4584.4636s-.4635.1614-.5677.3907c-.1041.2291-.0313.6457.1094.9113.1406.2657.349.3803.4843.5157.1355.1355.198.2917.3855.3698.1875.0782.5.0782.9062.0729.4063-.0052.9063-.0156 1.1563-.1562.25-.1407.25-.4115.3802-.5782.1302-.1666.3906-.2291.5365-.3437.1458-.1146.177-.2813.1041-.4323l-.3854-.4636c-.1354-.177-.2292-.3957-.3959-.5469z" fill="#95bd07"/><path d="m62.9321 28.0223c-.3473-.0348-.7778.0209-1.0486.0834l-.4585.1391c-.0763.0068-.1179-.0489-.1666.0693-.0486.1182-.1041.4098-.0277.6807.0764.2707.2847.5207.5833.6525.2986.1319.6875.1459.9583.2709.2709.125.4237.361.5973.6735s.368.7015.4097 1.0625c.0417.3613-.0695.6947.0139.889.0833.1943.3611.25.743.2709.382.0207.8681.0068 1.1737.1318.3055.125.4305.3889.7151.4791.2848.0905.7293.0073.9654-.0761s.2639-.1666.5-.2223l1.1389-.1391c.4583-.0552.9305-.1386 1.0832-.3125.1529-.1734-.0138-.4375-.0068-.6041.0069-.1667.1875-.2361.3055-.4095.1181-.1739.1736-.4516.132-.5973-.0417-.1459-.1806-.1599-.4097-.1807-.2292-.0209-.5487-.0486-.771-.1318-.2221-.0834-.3471-.2224-.5138-.3402-.1666-.1182-.375-.2155-.5833-.1947s-.4167.1599-.6112.2708c-.1944.1114-.3749.1948-.6666.2432-.2916.0485-.6944.0625-1.0555-.1041-.3611-.1668-.6806-.5141-1.0279-.9307-.3471-.4167-.7221-.9027-1.0417-1.2084-.3193-.3052-.5832-.4302-.9304-.4652z" fill="#95bd07"/><path d="m55.1682 26.203c-.1945-.1738-.4445-.3682-.5625-.3473-.1181.0209-.1042.2568-.0486.6318l.2708 1.3057.3611.9652c.1042.2291.1736.3682.3264.4655l.5556.2428.3472.2917c.0833.0764.1528.1041.2153.2364.0625.1318.118.3677.2777.5068.1598.1389.4236.1807.7292.2151.3056.0349.6528.0625.9236.1667.2708.1041.4653.2848.632.4239.1666.1386.3055.2359.604.2636.2987.028.7571-.0136 1.0349-.1943.2777-.1807.3749-.5.3541-.7849-.0208-.2844-.1597-.5344-.3055-.736l-.4098-.5277c-.1111-.1738-.1805-.3682-.3264-.5207-.1458-.1531-.368-.2641-.5486-.2156-.1805.0488-.3194.2572-.493.4238-.1736.1668-.382.2918-.6111.3402-.2292.0485-.4792.0209-.6042-.125s-.125-.4098-.1458-.7152l-.0556-.8613c.007-.2083.0625-.2776.1667-.3053.1041-.028.2569-.0141.3611-.125.1042-.1114.1597-.3473.118-.528-.0416-.1804-.1805-.3054-.2986-.4375l-.3472-.5068c-.1319-.2361-.2986-.5693-.4723-.7641-.1735-.1943-.3541-.25-.5555-.3261-.2014-.0766-.4236-.1739-.5694-.1322s-.2153.2224-.2153.4031c0 .1802.0695.3609.1875.5693l.3681.6598c.0833.2152.0833.4095.0138.5625-.0694.1527-.2083.2636-.3541.25-.1458-.0141-.2986-.153-.4445-.2989z" fill="#95bd07"/><path d="m54.4112 21.2655c.1771.0313.4167-.0937.474-.3697.0572-.276-.0678-.7032-.2396-1.0365-.1719-.3333-.3907-.5729-.5052-.3907-.1146.1824-.125.7865-.073 1.1824.0522.3958.1667.5833.3438.6145z" fill="#95bd07"/><path d="m57.9216 22.6093c-.0833-.1042-.0937-.302-.2083-.4427-.1146-.1406-.3334-.224-.5417-.1875-.2083.0364-.4062.1927-.4843.401-.0782.2084-.0365.4688-.0052.6979.0312.2293.052.4271.1718.5834.1198.1562.3385.2709.5521.3594s.4219.151.5781.0468c.1563-.1041.2605-.375.3073-.625.0469-.25.0365-.4791-.0468-.599-.0834-.1197-.2397-.1301-.323-.2343z" fill="#95bd07"/><path d="m58.0049 16.5311c-.1145-.1406-.2603-.2656-.4947-.3176-.2344-.0521-.5573-.0312-.7656-.0052-.2084.026-.3022.0572-.349.224l-.026.7603c.0208.2917.0625.5729.2187.7865.1563.2135.4271.3594.7031.552l.7865.599c.2292.1667.4062.2604.4635.3594s-.0052.2031-.1875.3334l-.6875.4791c-.2031.1928-.3073.4219-.25.6146s.276.3489.4427.526l.4063.5365c.125.1614.2604.2864.4323.3073s.3802-.0625.4791-.25c.099-.1875.0886-.4791.1198-.724.0313-.2448.1042-.4426.2448-.4583.1407-.0156.349.151.4792.3333.1302.1824.1823.3802.3437.5209.1615.1406.4323.224.5625.1458.1303-.0781.1198-.3177.1563-.6458l.1927-1.1615c.0729-.4167.1354-.8333.1302-1.1979s-.0781-.6771-.2604-.8073-.474-.0781-.7135-.0468c-.2397.0312-.4272.0416-.5469-.099-.1198-.1407-.1719-.4323-.2865-.6198s-.2916-.2709-.5208-.3021c-.2292-.0313-.5105-.0104-.6927-.0781-.1823-.0678-.2656-.224-.3803-.3647z" fill="#95bd07"/><path d="m63.2706 19.0624c-.1927-.0573-.401-.0676-.5729-.0051s-.3073.1978-.3698.2447-.0521.0053-.0156.125c.0364.1198.0989.401.0625.6041-.0365.2032-.1719.3282-.2552.4949-.0834.1666-.1147.375-.1094.5625.0052.1875.0469.3541.125.4219l.3021.1094c.1093.0728.2135.25.2708.4218.0573.1719.0677.3385.1562.375.0886.0364.2553-.0573.3698.0052.1146.0625.1771.2812.3125.3958.1355.1147.3438.125.5886.1459.2447.0208.526.052.6875-.0312.1614-.0834.2031-.2813.2552-.448.052-.1667.1145-.302.0312-.5157l-.4635-.7916-.349-.875c-.125-.3072-.302-.6406-.4792-.8594-.177-.2187-.3541-.3228-.5468-.3802z" fill="#95bd07"/><path d="m72.5258 22.3938c-.0348-.3262-.2569-.6595-.5278-1.0485-.2708-.389-.5903-.8333-1.007-1.1527-.4166-.3197-.9305-.514-1.2221-.375-.2917.1387-.3612.611-.4793 1.111-.118.5-.2847 1.0277-.3193 1.4932-.0348.4652.0624.8679.0832 1.2011.0209.3334-.0346.5974.0626.9168.0972.3196.3472.6946.3472.9238 0 .2291-.25.3125-.3263.4583-.0765.1458.0207.3542.1388.5417l.4027.5276.4931.514c.1944.1596.4306.2985.625.3262.1944.028.3473-.0553.5279-.1875l.6041-.5345c.2153-.2223.4374-.4864.6458-.8333.2083-.3474.4028-.7781.507-1.139.1041-.361.118-.6527-.0348-.9375-.1527-.2848-.4722-.5625-.5556-.861-.0833-.2988.0695-.6182.0348-.9447z" fill="#95bd07"/><path d="m77.7063 18.3104c-.2986.1459-.4791.3682-.8055.5697-.3264.2012-.7986.3819-1.3403.5902-.5416.2083-1.1528.4444-1.4931.7848-.3402.3402-.4097.7846-.368 1.111.0416.3265.1945.5349.5001.6875.3054.1527.7638.25 1.2151.3125l1.3195.125c.4236.0349.8264.0765 1.0904.1875.2638.1111.3888.2917.3401.4375-.0486.1459-.2707.2568-.486.3125l-.6666.125c-.2431.0693-.521.2084-.6946.375-.1735.1667-.243.3611-.4305.4307-.1875.0693-.493.0136-.7361-.014-.2431-.0277-.4236-.0277-.4792.125-.0556.1526.0139.4583.0556.7848.0417.3262.0555.6735-.0001 1.0834l-.2847 1.2012c-.1041.3196-.1875.4863-.3333.5764-.1458.0902-.3542.1042-.5346.3474-.1806.2428-.3335.7151-.4793 1.0553-.1458.3405-.2847.5488-.4653.7432l-.5833.6041c-.1806.2292-.3194.5068-.2917.7361.0278.2291.2223.4098.4584.5416.2361.1322.5139.2155.8472.3057l.9791.2848.6599.2636c.2777.0697.7082.1114.986.0209.2778-.0902.4028-.3125.5-.6875s.1667-.9027.2986-1.1803c.1319-.2781.3264-.3057.5279-.3265.2013-.0209.4096-.0348.6458-.2709.2361-.236.4999-.6943.7013-1.1526.2014-.4584.3403-.9167.4028-1.264s.0486-.5834.2292-.6598c.1805-.0762.5555.0071.8194-.0346.2639-.0416.4167-.2083.6598-.3822.243-.1734.5763-.3541.9027-.7428.3264-.389.6459-.9863.8473-1.2779.2013-.2918.2846-.2777.4721-.2709.1875.0072.4792.0072.6946-.0762.2152-.0833.354-.25.2846-.3958s-.3472-.2708-.4375-.4098c-.0902-.1391.0069-.2917.0555-.4375.0487-.1459.0487-.2848.2015-.3542.1528-.0693.4583-.0693.743-.0902.2848-.0208.5486-.0625.618-.2431.0695-.1807-.0555-.5-.1805-.7641-.125-.2636-.25-.4719-.382-.5693-.1319-.0973-.2707-.0833-.3124-.2291-.0417-.1459.0138-.4516.0763-.7641s.132-.6318-.0832-1.0068c-.2154-.375-.7154-.8057-1.1667-1.0764-.4514-.2709-.8542-.3819-1.507-.4096-.6527-.0279-1.5556.0277-2.2153.0902s-1.0764.1319-1.375.2776z" fill="#95bd07"/><path d="m117.229 86.0924c-.151.1016-.276.2161-.234.2682l.36.067c.012-.125-.003-.2359-.126-.3352z" fill="#95bd07"/><path d="m147.593 80.3577.076.0693z" fill="#95bd07"/><path d="m143.583 78.9237c.19-.3769.306-.7672.385-1.0732.049-.1881.083-.3448.144-.4671-.061.1227-.096.279-.144.4671-.079.306-.195.6963-.385 1.0732z" fill="#95bd07"/><path d="m150.926 81.1317c.084-.2291-.166-.6457-.677-1.1041-.51-.4584-1.281-.9584-1.854-1.2291-.573-.2709-.948-.3125-1.177-.448-.229-.1354-.312-.3645-.344-.6145-.031-.25-.01-.5209-.271-.6459-.26-.125-.802-.1041-1.26-.0834-.458.0209-.833.0418-1.042.1668-.087.052-.145.1223-.189.2099.044-.0876.102-.1579.189-.2099.209-.125.584-.1459 1.042-.1668.458-.0207 1-.0416 1.26.0834.261.125.24.3959.271.6459s.115.4791.344.6145c.229.1355.604.1771 1.177.448.573.2707 1.344.7707 1.854 1.2291.511.4584.761.875.677 1.1041z" fill="#95bd07"/><path d="m159.531 85.361c-.042-.25-.188-.4584-.313-.7293-.125-.2707-.229-.6041-.24-1.1145-.01-.5105.073-1.198-.052-1.6562-.125-.4584-.458-.6875-.708-1.0625s-.417-.8959-.531-1.4168c-.098-.4436-.158-.8869-.019-1.1633-.139.2764-.079.72.019 1.1633.114.5209.281 1.0418.531 1.4168s.583.6041.708 1.0625c.125.4582.042 1.1457.052 1.6562.011.5104.115.8438.24 1.1145.125.2709.271.4793.312.7293.025.1451.014.3046-.053.4371.067-.1325.078-.292.054-.4371z" fill="#95bd07"/><path d="m156.232 77.3459c.045-.0892.095-.1744.153-.2558.25-.3541.625-.625 1.073-.75.447-.125.968-.1041 1.406.0312.437.1354.791.3854.823.6563.008.0758-.008.1533-.046.2285.038-.0752.055-.1527.046-.2285-.031-.2709-.386-.5209-.823-.6563-.438-.1353-.958-.1562-1.406-.0312s-.823.3959-1.073.75c-.058.081-.108.1666-.153.2558z" fill="#95bd07"/></g><path d="m119.468 87.1002c-.427.0625-.562-.1355-.849-.2969-.286-.1615-.724-.2865-1.048-.3437l-.216-.032-.059.307c-.146.125-.292.25-.323.4896-.032.2395.052.5938-.011.7708-.062.1771-.271.1771-.448.2187-.177.0418-.323.125-.489.3647-.167.2396-.354.6353-.5 1.0833-.146.4479-.25.9479-.438 1.375-.187.427-.458.7813-.823 1.1354l-1.25 1.1041-1.166 1.1668c-.344.3332-.636.5625-.855.927-.218.3646-.364.8646-.572 1.2292-.209.3645-.48.5938-.698.75-.219.1563-.386.2395-.448.5-.063.2604-.021.6979.083 1.1979l.354 1.4789c.084.417.084.688-.062.99s-.438.635-.636 1.125c-.198.489-.302 1.135-.198 1.646.105.51.417.885.98 1.489l2.052 2.125 1.625 1.636c.406.406.677.677.864.948l.417.739c.125.198.271.323.812.313.542-.011 1.48-.157 2-.271.521-.115.625-.198.927-.323.303-.125.803-.292 1.157-.24s.562.323.854.459c.292.135.667.135.937.031.271-.104.438-.313.844-.521s1.052-.417 1.479-.49c.427-.072.636-.01.74.115s.104.313.156.458c.052.146.156.25.281.271s.271-.041.344.021c.073.063.073.25.261.365.187.114.562.156.927.093.364-.062.718-.229 1.104-.239.385-.011.802.135 1.031.302s.271.354.25.531-.104.344-.292.448c-.187.104-.479.146-.677.417s-.302.771-.333 1.125.01.562.156.885l.761 1.365c.364.604.843 1.375 1.041 1.937.198.563.115.917.198 1.386.084.468.334 1.052.594 1.489.26.438.531.729.542 1.177.01.448-.24 1.052-.5 1.677-.261.625-.532 1.271-.698 1.907-.167.635-.229 1.26-.188 1.823.042.562.188 1.062.396 1.687l.663 1.792c.185.418.283.502.699.596.417.094 1.152.197 2.176.477 1.025.281 2.337.739 3.42 1.177 1.084.437 1.938.854 2.688 1.343.75.49 1.396 1.053 1.948 1.594l1.312 1.375c.302.313.448.417.719.24s.667-.636 1.073-1.167.823-1.135 1.01-1.594c.188-.458.146-.77.313-.927.167-.156.542-.156.792-.312s.375-.469.385-1.084l-.104-2.229c-.011-.698.073-1.177.364-1.521.292-.343.792-.552 1.323-.864l1.438-.906c.344-.177.469-.115.583-.282.115-.166.219-.562.302-1.125.084-.562.146-1.291.094-1.989s-.219-1.365-.458-1.927c-.24-.563-.552-1.021-.813-1.417-.26-.396-.469-.729-.396-1.219.073-.489.427-1.135.771-1.677.344-.541.677-.979 1.031-1.375l1.052-1.073c.323-.323.594-.614 1.042-.896.448-.281 1.073-.552 1.438-.895.364-.344.468-.761.77-1.302l1.261-1.948c.458-.74.875-1.552 1.167-2.209.291-.656.458-1.156.51-1.448.052-.291-.01-.375-.135-.437-.125-.063-.313-.104-.698-.073-.386.031-.969.135-1.636.302-.666.167-1.416.396-2.094.448-.677.052-1.281-.073-1.52-.365-.24-.291-.115-.75-.011-1.062.104-.313.188-.479.021-.636-.167-.156-.583-.302-.917-.562-.333-.26-.583-.635-.958-1.115-.375-.479-.875-1.062-1.25-1.687s-.625-1.292-.906-2.0521l-.875-2.3959-.646-1.9688c-.115-.4791-.094-.7291 0-.8541s.26-.125.458-.0729c.198.052.427.1563.646.3958.219.2396.427.6146.688 1.0625.26.448.573.9687.958 1.4896s.844 1.0416 1.292 1.8854c.448.8437.885 2.0105 1.166 2.8545.282.843.407 1.364.49 1.77.083.407.125.698.239.928.115.229.303.395.49.645.188.25.375.584.604.667s.5-.083.948-.271l1.615-.625c.541-.229 1-.479 1.224-.668s.213-.318.51-.523l1.438-.772c.536-.287 1.005-.578 1.333-.698s.516-.068.693-.172.343-.365.541-.604c.198-.24.427-.459.625-.584s.365-.156.422-.286.005-.359.151-.6041c.146-.2449.49-.5053.781-.6772l.693-.3906c.162-.1354.245-.3229.177-.5469-.067-.224-.286-.4843-.479-.6978-.193-.2137-.359-.3803-.542-.4844l-.578-.2188-.682-.2292c-.286-.052-.661-.052-.849.0574-.187.1093-.187.3281-.406.4375-.219.1093-.656.1093-.995.0156-.339-.0938-.578-.2813-.849-.4844s-.573-.4219-.807-.6875c-.235-.2656-.401-.5781-.563-.8699-.161-.2916-.317-.5625-.588-.8437-.271-.2813-.657-.5729-.99-.7656s-.614-.2864-.875-.3698c-.26-.0834-.5-.1562-.568-.3437-.067-.1875.037-.4897.167-.6823.13-.1927.287-.2761.609-.2761.323 0 .813.0834 1.167.2187.354.1355.573.323.807.5522l.823.8333 1.047 1.0208c.281.2917.417.4792.656.5365.24.0572.584-.0156.87-.0781.287-.0625.516-.1147.709-.0469.192.0677.349.2552.567.5052.219.25.5.5625.823.7395.323.1772.688.2188.964.2605s.463.0833.562.1719c.099.0885.11.2239.281.2604.172.0365.506-.026.719-.1354.214-.1094.308-.2656.479-.448.172-.1822.422-.3906.698-.4635s.578-.0104.776.1146.292.3125.459.4739l.593.4428c.188.1458.323.3021.625.3802.303.0781.771.0781.99.2551.219.1772.188.5313.141.8647-.047.3333-.11.6458-.063.8714.047.2259.203.3649.386.4759l.588.2778.559.295c.174.129.333.302.438.524.104.222.152.493.187.768.035.274.056.552.142.791.087.24.24.442.32.785l.17 1.257c.083.427.243.795.403 1.142l.5.924.573.715.517.99.347.583c.091.129.16.219.334.198l.75-.257c.298-.104.618-.18.826-.351.208-.169.306-.433.451-.691.146-.257.341-.507.448-.85.108-.344.129-.782.139-1.219l.024-1.236c.014-.361.042-.646.205-.889.164-.243.462-.444 1.011-.837l1.91-1.448c.562-.472.888-.833 1.201-1.177.312-.3433.611-.6698.969-.9234.357-.2533.774-.4339 1.204-.5277.431-.0937.876-.1006 1.254.0834.379.1839.691.5589.938 1.0104.246.4513.427.9793.572 1.4343l.334 1.191c.076.354.118.68.277.875.16.194.438.256.792.232s.785-.135 1.063-.114.403.173.5.52c.097.348.166.889.146 1.438-.021.549-.132 1.104-.195 1.604-.062.5-.076.945.042 1.445s.368 1.055.701 1.541c.334.486.75.903 1.076 1.285.327.382.563.729.619 1.007.055.278-.07.486-.264.472-.195-.014-.459-.25-.778-.576-.319-.327-.694-.743-1.132-1.07-.437-.326-.937-.562-1.229-.52-.292.041-.375.361-.264.77.111.41.417.91.764 1.431l1.403 1.916 2.236 2.792c.625.771.93 1.146 1.257 1.382.326.236.673.334.923.445s.403.236.521.493.202.646.389.861c.188.215.479.257 1.028.264.548.007 1.354-.021 1.951-.174s.986-.43 1.16-.639c.174-.208.132-.347-.014-.472s-.396-.236-.799-.319c-.402-.084-.958-.139-1.618-.133-.659.008-1.423.077-1.805-.041s-.382-.424-.445-.924c-.062-.5-.187-1.194-.493-1.729-.305-.535-.791-.91-1.069-1.208-.278-.299-.347-.521-.271-.736.076-.216.299-.424.507-.563s.403-.208.507-.451.118-.66-.146-1.083c-.264-.424-.805-.855-1.299-1.417-.493-.563-.937-1.257-1.277-1.819-.341-.563-.577-.994-.584-1.279-.007-.284.216-.423.236-.645.021-.222-.159-.528-.166-.806s.16-.528.305-.729c.146-.201.271-.354.438-.312.167.041.375.277.555.548.181.271.334.577.487.709.152.131.305.09.472.194.166.104.347.354.778.326.43-.027 1.111-.333 1.756-.576.646-.243 1.257-.424 1.577-.785.319-.361.347-.903.319-1.486-.027-.583-.111-1.208-.354-1.611s-.646-.583-1.09-.917c-.445-.333-.931-.819-1.035-1.256-.104-.438.174-.827.528-1.1326.354-.3053.785-.5277 1.09-.6319.306-.1041.486-.0902.604.0557s.174.4235.209.7985c.034.375.048.8473.125 1.1463.076.298.215.423.361.423s.298-.125.416-.403c.119-.277.202-.708.216-1.0621.014-.3542-.042-.6318.18-.8125.223-.1807.723-.264 1.59-.4896.869-.2256 2.105-.5938 2.889-1.0176.785-.4235 1.119-.9027 1.441-1.3818.323-.4792.636-.9584.782-1.3647.146-.4062.125-.7395.25-.9895s.396-.4167.646-.823c.25-.4062.479-1.052.406-1.6145s-.448-1.0417-.844-1.6667-.812-1.3958-.917-1.927c-.104-.5313.105-.823.5-1.0521.396-.2292.98-.3959 1.282-.5834s.323-.3958-.292-.4375c-.615-.0416-1.865.0834-3.135.0521-1.271-.0312-2.563-.2187-3.553-.5625-.989-.3437-1.677-.8437-2.364-1.5729-.688-.7292-1.375-1.6875-1.761-2.3333-.385-.6459-.468-.9792-.6-2.7328-.132-1.7532-.313-4.9268-.299-8.8887s.222-8.7119.594-16.0904c.371-7.3783.906-17.3852 1.059-22.4303.153-5.0453-.076-5.1287-.248-5.2276-.172-.099-.287-.2136-.334-.4687l-.047-.9584c-.02-.3073-.083-.526.016-.651s.359-.1563.464-.3543c.104-.1978.052-.5625-.146-.8437-.198-.2813-.542-.4791-.849-.6198-.307-.1406-.578-.224-.813-.1146-.234.1094-.432.4115-.552.6928-.12.2812-.161.5416-.323.7865-.161.2447-.442.4738-.781.875l-1.026 1.4322-.661 1.0938c-.183.2916-.36.5312-.584.5677-.224.0364-.495-.1302-.937-.2031-.443-.073-1.058-.0521-1.521-.0781-.464-.0262-.776-.099-1.109.0312-.334.1301-.688.4635-.896.7344-.209.2707-.271.4791-.547.6406-.276.1614-.766.276-1.094.3073-.328.0312-.495-.0209-.76.3437-.266.3646-.631 1.1459-.813 1.7084s-.182.9062-.542 1.3489c-.359.4427-1.078.9843-1.708 1.4062s-1.172.724-1.568.9063c-.395.1823-.645.2448-.822.4583-.178.2135-.282.5782-.23.9897.052.4113.261.8697.302 1.2812.042.4114-.083.776-.291.9895-.209.2136-.5.2761-.917.1303-.417-.1459-.958-.5-1.375-.9115-.417-.4114-.708-.8802-1.036-1.151-.328-.2709-.693-.3438-.839-.2657-.146.0782-.073.3073-.26.4323-.188.125-.636.1459-1.162.1146-.526-.0312-1.13-.1146-1.588-.0365-.459.0781-.771.3178-.985.5834l-.592.8959-.96 1.0901c-.283.3665-.436.7138-.567.9638-.132.25-.244.4027-.237.7986l.181 1.5416c.049.5069.021.8819-.194 1.0069-.216.125-.619 0-1-.1527l-1.028-.5c-.285-.1667-.493-.3194-.584-.4792-.09-.1598-.062-.3265.056-.4238.118-.097.326-.1246.382-.2637.055-.139-.042-.389-.208-.5697-.167-.1803-.403-.2912-.584-.9094-.18-.6182-.305-1.7432-.319-2.4515-.014-.7084.083-1 .396-1.4792.312-.4792.84-1.1458 1.305-1.6943.465-.5486.868-.9792 1.125-1.375.257-.3959.368-.7568.306-1.0349-.063-.2776-.299-.4719-.632-.5-.334-.0276-.764.1113-1.243.389s-1.007.6944-1.528 1.4167c-.521.7224-1.035 1.75-1.333 2.5833-.299.8334-.382 1.4723-.494 2.1735-.111.7015-.249 1.4656-.166 2.1459.083.6806.389 1.2779.743 1.6041.354.3265.757.3822 1.042.5349.284.1526.451.4026.514.6943.062.2917.02.625-.244.986-.263.3613-.75.7504-1.326.9932-.576.2431-1.243.3404-1.792.2779-.548-.0625-.979-.2848-1.291-.4514l-.702-.389c-.319.2363-.639.4723-1.097.7154l-1.5.7361c-.444.2432-.736.4791-.91.7571-.173.2777-.229.597-.382.8611-.152.2639-.402.4723-.604.4234-.201-.0484-.354-.3541-.368-.5833s.111-.3819.236-.486.25-.1598.327-.3193c.076-.1598.104-.4239-.035-.6322s-.445-.361-.688-.5833c-.243-.222-.423-.5137-.701-.6736-.278-.1598-.653-.1875-.958-.0832-.306.1041-.542.3401-.66.625-.118.2848-.118.6181-.028.9375l.41 1c .139.375.236.8193.229 1.1734-.007.3542-.118.6182-.347.7572-.229.1387-.577.1526-.854-.0556-.278-.2084-.486-.6391-.605-1.0141-.118-.375-.145-.6943-.444-1.125-.299-.4303-.868-.972-1.375-1.3818s-.951-.6875-1.206-.7699c-.254-.0826-.318.0303-.353.2924-.035.2623-.04.6738-.418 1.6816-.379 1.0078-1.131 2.6119-1.829 3.8099-.699 1.1979-1.345 1.9895-2.189 2.8125-.843.8229-1.885 1.677-2.885 2.375-1 .6979-1.958 1.2395-2.563 1.5833-.604.3437-.854.4896-.968.7605-.115.2707-.094.6666.073.9078.166.2412.479.3281.75.5121.27.1842.5.4655.645.7363.146.2708.209.5313.183 1.0417-.026.5103-.141 1.2708-.25 1.7552-.11.4844-.214.6926-.417.7031-.203.0104-.505-.1771-.755-.198-.25-.0207-.448.125-.578.3543-.131.2291-.193.5416-.323.9582-.13.4168-.328.9375-.552 1.3647-.224.4271-.474.7603-.979.9166-.506.1562-1.266.1355-2.209.1094-.943-.026-2.068-.0573-2.708-.1354-.641-.0781-.797-.2031-.86-.375-.062-.1719-.031-.3906-.04-.5541-.01-.1631-.06-.2707.024-.374.084-.1032.303-.2022.391-.499.089-.2969.047-.7917-.078-1.1641-.125-.3723-.333-.6223-.575-.7291s-.518-.0703-.742.0572c-.224.1277-.396.3465-.578.5418-.183.1953-.375.3672-.448.6197-.073.2526-.026.586.158.8178.185.2317.508.3619.607.651.099.289-.026.7369-.085 1.0416s-.052.4662-.345.6302l-1.338.5678c-.451.2369-.758.5442-1.029 1.0051-.27.461-.505 1.0756-.768 1.435-.263.3593-.555.4635-.812.3853-.258-.0781-.482-.3385-.638-.8203-.157-.4817-.245-1.1848-.464-1.815-.219-.6303-.568-1.1875-.924-1.7651-.357-.5771-.722-1.1744-1.039-1.8896-.318-.7151-.589-1.5485-.808-2.1422-.219-.5938-.385-.9479-.583-.9896s-.427.2292-.625.573l-.563 1.1353c-.198.375-.427.7084-.406.9479.021.2396.292.3855.448.6459s.198.6354.042.875c-.157.2396-.511.3437-.823.375l-.83.0033c-.247.0139-.469.0832-.67.2431-.202.1598-.382.4098-.674.5-.291.0901-.694.0208-.944.0765-.25.0554-.347.236-.299.5.049.2636.243.611.452.8333.208.2221.43.3194.506.5346.077.2154.007.5488.049.875.042.3264.195.6457.535.7571.34.111.868.0136 1.229-.2364s.556-.6526.812-.7707c.257-.1179.577.0488.82.2223.243.1734.41.3541.326.6181-.083.2637-.416.611-.652.9027-.237.2917-.375.5276-.292.7569.083.2291.389.4514.729.4375.34-.0137.715-.2637 1.194-.4375.48-.1736 1.063-.2709 1.549-.3194s.875-.0485 1.083.1182c.209.1666.237.5.063.7776-.174.2777-.549.5-1.09.6111-.542.1113-1.25.1113-1.681.2779-.43.1667-.583.5-.542.7917.042.2917.278.5417.612.8679.333.3264.763.7291 1 1.1946.236.4652.277.9929.25 1.3958-.028.4027-.125.6803-.313.8959-.187.2151-.465.3678-1.181.4928-.715.125-1.868.2223-2.631.25-.764.028-1.139-.0137-1.337.528s-.219 1.6667-.271 2.5105l-.188 1.8853c-.052.4792-.073.875.096 1.1397.168.2646.526.3984.866.4834.314.0787.613.1158.762.2301.148-.0977.331-.1829.865-.2588l2.108-.1926c.632-.0469.971-.073 1.187-.2371s.31-.4661.43-.8359.265-.8073.468-1.1667c.204-.3593.464-.6406.711-.9349.248-.2942.482-.6016.68-.7291.198-.1276.359-.0756.57-.1041.211-.0287.472-.1381.631-.2684.158-.1301.216-.2812.338-.4599.123-.1787.31-.3854.397-.593.087-.2074.073-.4158.274-.4471.202-.0312.618.1147.993.1319.375.0176.709-.0934.941-.2532.233-.1599.365-.3682.545-.5557.181-.1875.41-.3542.625-.4202.216-.0658.417-.0309.531.1322.115.163.143.4547.087.6074-.055.1529-.194.167-.343.2363-.15.0693-.309.1943-.414.3401-.104.1459-.152.3125-.104.4236.049.1113.195.167.365.1738s.364-.0349.507-.1322l.385-.3539c.153-.1041.368-.1598.545-.1701.177-.0105.316.0244.327.1145l-.118.413c-.011.1772.086.3855.211.6319.125.2468.278.5316.504.6599.226.1285.524.1008.798.1875.275.0869.525.2883.789.4619.264.1735.541.3193.656.4651.115.1459.066.2917.066.4687l.066.5486-.049.3821c-.052.1006-.142.184-.26.2084l-.441-.0385-.618-.1041c-.233-.0553-.49-.1455-.653-.0797-.163.066-.233.2883-.118.4654.115.1772.413.309.552.4096.139.1008.118.1702.153.2672.035.0973.125.2223.326.278.202.0556.514.0417.695-.0625.18-.1042.229-.2985.284-.4895.056-.1912.119-.3787.233-.4864l.375-.2289.219-.3544c.104-.1006.292-.1423.444-.2221.153-.0797.271-.1979.452-.2395.18-.0417.423-.0068.541-.0834.118-.0765.111-.264.021-.4342-.09-.1699-.264-.3226-.535-.5033-.27-.1806-.638-.389-.934-.6458-.295-.2569-.517-.5625-.614-.8092-.097-.2465-.07-.434-.212-.7116-.142-.2777-.455-.6459-.712-.7884-.257-.1423-.458-.059-.684-.111-.225-.0521-.475-.2396-.587-.4688-.111-.2292-.083-.5.004-.6943s.233-.3125.413-.3265c.181-.0137.396.0765.596.2109l.559.4443c.175.1313.342.2145.547.2485.206.0338.451.0181.61.1015.159.0833.232.2656.273.4557.042.1901.052.3881.221.5625.17.1744.498.3256.795.4791.297.1537.562.31.776.5418.213.2317.375.539.38.8229.005.2838-.146.5443-.181.8949-.036.3508.044.7919.112 1.1503.069.3584.126.6344.319 1.0198.193.3855.521.8803.81 1.0834s.539.1146.81-.0859c.271-.2006.562-.5131.765-.8282.204-.315.318-.6328.339-.9765.021-.3438-.052-.7135 0-.9975.052-.2838.229-.4817.479-.539s.573.0261.768.1745c.196.1485.263.362.263.7344 0 .3723-.067.9036.068 1.3567.136.4531.474.8281.781 1.1875.308.3594.584.7031.956.9037.373.2005.841.2578 1.307.2187.467-.039.93-.1744 1.342-.2603.411-.086.77-.1225 1.07-.0496.299.073.539.2552.659.5287.12.2734.12.638.026 1.0443-.094.4062-.281.8541-.49 1.2213-.208.3672-.437.6537-.672.8073-.234.1536-.474.1745-.708.1433l-.745-.2084c-.281-.0938-.614-.1979-.885-.1328-.271.065-.479.2994-.697.4853s-.446.3229-.742.3236c-.296.001-.66-.1345-.895-.3271-.234-.1928-.338-.4428-.567-.5261s-.584 0-1.037.0573-1.005.0885-1.343-.0052c-.339-.0938-.464-.3125-.719-.4844s-.641-.2969-1-.1197c-.36.177-.693.6562-.886 1.0676-.192.4115-.244.7552-.489.9324-.245.177-.683.1875-1.068 0s-.719-.573-1.094-.9949-.791-.8801-1.297-1.1563c-.505-.276-1.099-.3697-1.557-.4843-.458-.1145-.781-.25-.917-.4219-.135-.1719-.083-.3801-.114-.6301l-.162-.7865c-.015-.2448.068-.4428.193-.6928s.292-.552.094-.8281c-.198-.276-.761-.526-1.354-.552-.594-.0261-1.219.1719-2.146.2707-.927.099-2.156.099-3.037.2344-.88.1355-1.411.4063-2.036.7031-.625.2969-1.344.6199-1.771.6824zm24.128-8.2868.554-1.3132c.088-.2568.025-.1865.042-.2431.016-.0563.112-.2393.587-.3412.476-.1018 1.33-.1227 1.742.0273.412.1504.383.4717.487.7426s.342.4912.815.7574l1.827.9646c.646.3854 1.23.8438 1.272 1.1885.042.3444-.456.5755-.977.6692-.521.0938-1.064.0502-1.447-.1123-.383-.1627-.606-.4443-.929-.611-.096-.0494-.2-.0888-.315-.1165-.107.0052-.232.0192-.37.0501-.416.0938-.958.3438-1.416.4897-.459.1457-.834.1875-1.281.1978-.448.0104-.969-.0103-1.219-.1875-.25-.1771-.229-.5103-.073-.8646-.156.3543-.177.6875.073.8646.25.1772.771.1979 1.219.1875.448-.0103.823-.0521 1.281-.1978.458-.1459 1-.3959 1.417-.4897.137-.0309.261-.0449.368-.0501-.272-.0655-.602-.0655-1.01.0208-.581.1227-1.319.4196-1.891.5371-.572.1172-.978.0547-1.185-.1373-.208-.1924-.216-.5144-.113-.8562.102-.342.316-.7041.542-1.1767zm13.861-2.4729c.448-.125.969-.1043 1.407.0312.437.1354.791.3854.823.6563l-.046.2285c-.097.1933-.334.372-.642.4693-.427.1354-.99.1147-1.24.3647l-.091.1281c-.139.2764-.079.7198.019 1.1635.114.5209.281 1.0416.531 1.4166s.583.6043.708 1.0625c.125.4584.042 1.1459.052 1.6563.011.5105.115.8437.24 1.1146s.271.4791.312.7291c.025.1453.014.3047-.053.4373l-.238.2295c-.271.125-.75.0832-1.042-.1147-.292-.1978-.396-.5521-.542-.8228-.146-.2709-.333-.4584-.427-.823-.094-.3645-.094-.9063-.146-1.5625-.052-.6563-.156-1.427-.354-1.9375-.198-.5104-.489-.7604-.646-1.125-.156-.3645-.177-.8438-.125-1.302.04-.3533.124-.6941.275-.9942l.153-.2558c.25-.3543.625-.625 1.072-.75z" fill="#95bd07"/><path d="m46.3716 224.497-5.75-.062c.3367-4.501 0-8.314 0-12.563 0-3.181.3379-5.833-.4375-6.812-.7755-.98-2.1712-1.188-3.875-1.188-1.3621 0-1.2818 1.152-2.8021 2.209-.0663 2.221.0208 4.199.0208 5.958 0 2.97-.1335 6.701-.0417 12.583l-6.0833.084c.1042-4.813.0625-7.662.0625-12.271 0-2.382.125-5.146-.2708-6.688-.6223-1.014-.7494-1.989-2.7084-1.989-1.8059 0-3.1901 1.339-4.3838 2.642.0816 7.041.1338 12.718.1338 18.264l-5.9166.083c.2857-5.637.0208-9.515.0208-12.771 0-4.226-.2403-7.717-1.0208-11.635l5.2916-1.625.9632 3.486h.3825c2.0764-2.159 4.4129-3.238 7.0095-3.238 3.2548 0 4.5789 1.187 5.9053 3.346h.5c2.3874-2.159 4.1686-3.438 6.5-3.438 2.7395 0 4.552.302 5.7187 1.886.7917 1.25.7917 2.925.7917 6.375 0 .337.0723 1.588.0416 2.541-.0305.954.0417 1.741.0417 2.084 0 2.981-.155 6.834-.0938 12.739z" fill="#95be0d"/><path d="m72.4238 223.278-4.7084 2.375c-.2346-.719-.901-2.534-.901-3.145l-.5625-.11c-1.7397 1.582-3.6098 2.994-6.5585 2.994-1.9742 0-3.6131-.628-4.9165-1.885-1.3035-1.256-2.1865-3.102-2.1865-5.187 0-2.747.6388-4.91 2.6667-6.667 2.0278-1.756 5.1221-2.058 10.2083-2.166.0306-.314.0834-.834.25-1.417 0-1.873.0739-2.945-.75-3.542-.8239-.596-1.7596-.958-3.9583-.958-2.3927 0-2.9697.811-5.25 1.542l-1.2917-4.417c2.1171-.817 4.9817-1.917 8.8334-1.917 2.8159 0 4.6336.641 6.1666 2 1.533 1.36 1.7084 3.441 1.7084 6.834 0 .748-.0273 1.932-.0834 3.916-.0562 1.985.25 3.629.25 4.292 0 3.695.5732 5.1 1.0834 7.458zm-6.75-4.25c-.0918-2.364-.0417-4.156-.0417-5.875-5.5505 0-7.4232 1.145-7.4232 4.177 0 2.085 1.2347 3.448 3.6732 3.448 1.9181 0 2.5061-.716 3.7917-1.75z" fill="#95be0d"/><path d="m99.4601 211.737c0 3.838.3125 5.906-1.3125 9-1.936 2.898-3.2786 4.771-6.6354 4.771-2.4946 0-4.926.018-5.8646-1.198l-.25.375c0 4.392-.0289 4.906.0834 9.406l-6.0313 1.688c.0625-5.032-.1198-9.402-.1198-16.021 0-8.55-.1111-14.83-.9427-19.313l5.0417-2 1 2.917.9166-.083c1.6733-1.897 4.4126-2.315 7.2847-2.315 2.9997 0 3.5799 1.033 5.5174 3.815 1.0937 2.281 1.3125 5.583 1.3125 8.958zm-5.8646.479c0-2.21.1146-3.792-.4375-5.562-.9718-1.6-1.791-3.188-3.5-3.188-2.1324 0-3.2654.557-4.25 1.979.2398 4.94 0 9.935 0 14.042.9694.862 2.7094 1.104 4.25 1.104 2.0509 0 2.3279-.644 3.3125-2.375.7396-1.875.625-3.538.625-6z" fill="#95be0d"/><path d="m122.459 217.87c0 5.306-3.124 7.523-10.103 7.523-2.546 0-6.25-1.906-7.875-2.937l1.812-3.969c1.975.731 3.51 1.906 5.469 1.906 1.898 0 3.453.076 4.188-.281.734-.357.812-.942.812-1.781 0-1.291-1.022-2.285-3.685-3.45-2.326-1.028-4.285-1.807-5.346-2.8-1.459-1.377-2.219-3.314-2.219-5.313 0-2.353 1.073-4.228 2.629-5.658 1.556-1.431 3.819-2.146 6.788-2.146 2.78 0 5.031.242 7.469 1.929l-1.938 4.271c-1.77-.731-3.574-1.375-5.625-1.375-2.505 0-3.958.837-3.958 2.271 0 .742.321 1.361.854 1.812s1.889.986 3.542 1.672c2.275.936 3.933 1.901 4.974 2.895 1.475 1.411 2.212 3.221 2.212 5.431z" fill="#95be0d"/><path d="m143.981 189.294-1.312 4.781c-.915-.351-2.915-.906-3.875-.906-1.161 0-1.881.233-2.313 1.312-.433 1.08-.229 2.327-.229 5.427 1.395 0 3.961.137 6.406 0l-.844 4.032c-2.445-.104-4.417.125-5.687.125 0 6.535 0 14.125.006 20.501h-5.985c.235-6.35.135-13.91.135-20.533-.97 0-2.809-.104-4.719 0l-.156-4.281c1.813.031 3.558.032 4.563.032 0-8.415 1.416-12.146 8.435-12.032 1.575 0 2.087.186 3.919.511z" fill="#6f7071"/><path d="m166.147 211.611c0 4.371-1.091 7.787-3.273 10.25-2.183 2.462-4.753 3.693-7.71 3.693-2.816 0-5.231-1.122-7.245-3.367-2.014-2.246-3.021-5.408-3.021-9.487 0-4.388 1.097-7.822 3.293-10.301 2.196-2.48 4.773-3.72 7.73-3.72 2.802 0 5.207 1.131 7.215 3.394s3.011 5.442 3.011 9.538zm-6.499.631c0-2.474.239-4.198-.46-6.103-.956-1.682-2.2-2.523-3.732-2.523-1.487 0-2.698.785-3.632 2.356-.812 2.072-.551 3.604-.551 5.958 0 2.473-.372 4.482.584 6.164.956 1.683 2.2 2.524 3.732 2.524 1.487 0 2.698-.785 3.632-2.357.604-1.675.427-3.665.427-6.019z" fill="#6f7071"/><path d="m187.231 199.539-1.875 5.375c-1.235-.361-1.813-.391-3.083-.391-2.219.906-1.922.266-3.125 2.391 0 6.934-.387 14.009-.292 17.75l-6.076-.042c.265-5.372.076-9.753.076-13.167 0-4.248.833-4.166-1.292-10.75l5.084-1.958c1 1.917 1.322 3.447 1.322 3.836h.397c1.864-2.544 3.402-3.669 5.947-3.669 1.2 0 1.417.044 2.917.625z" fill="#6f7071"/><path d="m234.7 209.831c0 .896-.12 2.455-.209 3.895l-14.476-.101c.208 1.871.932 3.428 2.173 4.67 1.241 1.241 2.87 1.862 4.888 1.862 2.241 0 2.639-.747 5.165-1.472l2 4c-1.833 1.416-5.159 2.916-8.253 2.916-3.913 0-6.913-1.264-9-3.794-2.087-2.528-3.131-5.571-3.131-9.126 0-3.714.996-6.935 2.987-9.663 1.991-2.727 4.755-4.091 8.293-4.091 3.232 0 5.634 1.009 7.205 3.028 1.572 2.019 2.358 4.644 2.358 7.876zm-6.375-.355c0-3.856-.817-6.333-3.792-6.333-2.837 0-3.8 2.216-4.333 6.208z" fill="#6f7071"/><path d="m203.294 200.846c-.146.115-.25.135-.709-.146-.458-.281-1.271-.864-2.166-1.26-.896-.396-1.875-.604-2.938-.604-1.062 0-2.208.208-3.25.583s-1.979.917-2.802 1.792-1.531 2.083-2.073 3.572c-.542 1.49-.917 3.261-1.073 5.021-.156 1.761-.094 3.511.042 5.042.135 1.531.344 2.844.906 4.208.563 1.365 1.479 2.782 2.521 3.719 1.042.938 2.208 1.396 3.239 1.604 1.032.209 1.928.167 2.834-.01s1.823-.49 2.521-.781c.698-.292 1.177-.563 1.5-.74l.625-.281c.135-.021.239.021.27.896.032.875-.01 2.583-.093 3.677-.084 1.093-.209 1.573-.5 1.989-.292.417-.75.771-1.459 1.031-.708.261-1.666.428-2.791.386s-2.417-.292-3.552-.615c-1.136-.323-2.115-.718-2.74-1-.625-.281-.896-.448-1.104-.458s-.354.135-.625.948c-.271.812-.667 2.292-.708 3.114-.042.823.27.99 1.562 1.375 1.292.386 3.563.99 5.396 1.323 1.833.334 3.229.396 4.604.23 1.375-.167 2.729-.563 3.896-1.24s2.146-1.635 2.771-2.615c.625-.979.896-1.979 1.031-2.739.135-.761.135-1.281.115-5.292-.021-4.01-.063-11.51-.021-15.604.041-4.094.166-4.781.364-5.417.198-.635.469-1.218.625-1.573.157-.354.198-.479-.583-.854s-2.385-1-3.208-1.312c-.823-.313-.865-.313-1.052-.011l-.782 1.313c-.26.406-.448.614-.593.729zm-6.501 3.698c.334-.291.334-.291.563-.312s.687-.063 1.375-.032c.687.032 1.604.136 2.271.375.666.24 1.083.615 1.302 1.48.219.864.239 2.218.29 4.272.05 2.054.13 4.807-.063 6.323-.192 1.516-.658 1.794-1.567 2.103-.91.309-2.264.649-3.374.498-1.109-.151-1.974-.794-2.489-1.865-.516-1.071-.683-2.571-.776-4.092-.094-1.521-.115-3.062.031-4.281s.458-2.115.948-2.854c.489-.74 1.156-1.323 1.489-1.615z" fill="#6f7071"/></g></svg>