<svg enable-background="new 0 0 256.00 255.33" height="255.333" viewBox="0 0 256 255.33" width="256" xmlns="http://www.w3.org/2000/svg" xmlns:xlink="http://www.w3.org/1999/xlink"><linearGradient id="a" gradientTransform="matrix(-.62931956366 -.777146631463 .777146631463 -.62931956366 .636789259852 2.080885312533)" gradientUnits="objectBoundingBox" x1=".814661" x2="1.81466" y1=".888576" y2=".888576"><stop offset="0" stop-color="#425e7e"/><stop offset=".893501" stop-color="#70acf1"/><stop offset="1" stop-color="#90c5f1"/></linearGradient><radialGradient id="b" cx="107.065" cy="83.4467" gradientUnits="userSpaceOnUse" r="68.6273"><stop offset=".125" stop-color="#90f19d"/><stop offset=".323276" stop-color="#8cf186"/><stop offset=".323276" stop-color="#89f170"/><stop offset=".50431" stop-color="#7edf69"/><stop offset="1" stop-color="#447e42"/></radialGradient><linearGradient id="c"><stop offset="0" stop-color="#7edf69"/><stop offset="1" stop-color="#447e42"/></linearGradient><radialGradient id="d" cx="116.754" cy="135.399" gradientUnits="userSpaceOnUse" r="40.6863" xlink:href="#c"/><radialGradient id="e" cx="162.71" cy="83.4385" gradientUnits="userSpaceOnUse" r="24.1421" xlink:href="#c"/><g stroke-linejoin="round"><path d="m129.368 25.6025c55.229 0 100 44.7705 100 99.9995 0 55.227-44.772 99.999-100 99.999-55.2281 0-99.9997-44.772-99.9997-99.999 0-55.229 44.7708-99.9995 99.9997-99.9995z" fill="url(#a)" stroke-width=".2"/><path d="m64.9087 56.731v2.451l-1.4706.9805-12.7451-.4903-10.7843 15.6862v3.4315l4.4118 3.9215-.4902 4.4116 1.9608 3.4316 3.9215 3.4312.9804 16.6662 3.9216 4.412 13.2352 15.196 10.7843 7.843 11.7647 3.922 4.902 2.451.9804-8.333-6.3726-4.902-5.8823-1.961-1.4706-5.882h9.3137l2.9412 5.392 4.4117 3.921 6.3727 2.451 13.235-3.431 1.961-5.392h-12.255l-4.902-6.863-.49-4.902 17.157-20.0979 6.372-5.3922-8.333-14.7058 4.902-6.3726-4.412-8.8235-6.372-4.9018-1.961-5.3924 2.941-5.3921 4.412-4.9019 1.961 9.8038 7.843 2.451 3.431 4.902 2.451 12.7451 3.922 5.8824 2.941 3.4313 6.862-4.9021 1.961-3.4312 17.157.9804 1.471 3.9216 6.372-5.8824-2.451-4.4117-5.882-1.4707-3.922-3.4313-.49-5.8823 3.922-2.4511.98-17.6469-7.353-5.8824-6.372-1.9608h-11.275l-5.882 2.9412-3.922 3.9215-4.902-.4901-3.431-5.3922-1.961-3.4313-6.863-.4902-3.921 1.9607-3.922 2.9412-9.3134 1.4706-.9804 2.4509 1.4706 4.4119-4.4118.9802-1.9608-2.941-8.3333-.9805-2.451 4.4118-.4902 5.8823v2.451l-2.451 1.4706h-4.4117l-1.4706-5.3921-2.9412-.4902-2.9411 3.4313-4.902 4.4117 1.4706 7.353zm24.6399-10.5473-3.4313-2.9411 4.4117.9802h4.4118l5.8822.4902.49 6.3726 1.961 1.4706 3.431 5.3922 2.942 2.451-.491 5.8823-4.411.9804-3.432-1.9608-1.9605-4.4118-3.4313-5.3921-5.3922-.9804v-2.451zm-3.9215 34.8037 2.451-5.3921 6.3725-1.9607 4.9019 4.902-.9803 6.3726-3.4314 4.9018-5.8824-1.9608-3.9215-4.4117z" fill="url(#b)" stroke="#006432" stroke-width="2"/><path d="m113.078 141.772h-8.333l-5.8826 7.353-2.451 8.333-.4902 5.392 10.7838 7.353 5.393 3.922 4.902 9.804-10.785.98-.98 7.843-.49 9.804 2.451 11.274 1.96 2.451 16.667 3.922 26.471-9.314z" fill="url(#d)" stroke="#006432" stroke-width="2"/><path d="m172.392 87.2374.49-5.8823 5.392-3.6764 2.451 1.4706 11.765 13.2353-2.696-11.2746-1.471-3.1862 1.961-3.9215 4.657-3.9216 4.902-6.1275-.736-4.6568 3.187-2.9411 4.656 1.7156 10.785 14.951-9.804 13.9707-14.951 8.8233z" fill="url(#e)" stroke="#006432" stroke-width="2"/><g stroke-width=".2"><path d="m132.896 135.8-34.3442 97.94h-25.4688l-33.9293-97.94h24.2008l20.7905 68.164c1.1076 3.688 1.778 6.945 2.0112 9.772h.4154c.3352-3.046 1.0567-6.39 2.1643-10.034l20.6591-67.902z"/><path d="m176.892 145.283h-13.992v39.876h-11.193v-39.876h-13.991v-9.095h39.176z"/><path d="m239.154 185.159h-11.193v-29.306c0-3.163.142-6.657.426-10.483h-.273c-.569 3.01-1.083 5.174-1.542 6.493l-11.477 33.296h-9.018l-11.685-32.957c-.321-.889-.834-3.166-1.541-6.832h-.306c.291 4.832.437 9.069.437 12.713v27.076h-9.794v-48.971h16.014l10.001 29.033c.802 2.317 1.385 4.649 1.749 6.995h.208c.612-2.711 1.261-5.068 1.946-7.072l10.001-28.956h16.047z"/></g></g></svg>