<?xml version="1.0" encoding="utf-8"?>
<!DOCTYPE svg PUBLIC "-//W3C//DTD SVG 1.1//EN" "http://www.w3.org/Graphics/SVG/1.1/DTD/svg11.dtd">
<svg xmlns="http://www.w3.org/2000/svg" xmlns:xlink="http://www.w3.org/1999/xlink" version="1.1" baseProfile="full" width="250" height="250" viewBox="0 0 250.00 250.00" enable-background="new 0 0 250.00 250.00" xml:space="preserve">
	<g>
		<linearGradient id="SVGID_Fill1_" gradientUnits="objectBoundingBox" x1="0.13355" y1="0.414513" x2="0.972019" y2="0.414513">
			<stop offset="0" stop-color="#9D774A" stop-opacity="1"/>
			<stop offset="0.12093" stop-color="#BA8C5C" stop-opacity="1"/>
			<stop offset="0.488372" stop-color="#D7A16F" stop-opacity="1"/>
			<stop offset="0.87907" stop-color="#C38F5A" stop-opacity="1"/>
			<stop offset="1" stop-color="#B07D46" stop-opacity="1"/>
		</linearGradient>
		<path fill="url(#SVGID_Fill1_)" stroke-width="0.2" stroke-linejoin="round" d="M 104.121,206.983C 106.615,210.872 106.713,217.094 106.762,220.871C 106.812,224.648 106.812,225.982 111.978,226.815C 117.145,227.648 127.478,227.982 133.812,227.982C 140.145,227.982 142.478,227.648 143.812,226.482C 145.145,225.315 145.478,223.315 145.978,219.148C 146.478,214.982 147.145,208.648 148.29,205.177C 149.435,201.705 151.059,201.094 141.732,200.706C 132.406,200.317 112.128,200.151 104.433,200.845C 96.739,201.54 101.628,203.095 104.121,206.983 Z "/>
		<radialGradient id="SVGID_Fill2_" cx="144.265" cy="116.874" r="86.6667" gradientUnits="userSpaceOnUse">
			<stop offset="0" stop-color="#F5D5AF" stop-opacity="1"/>
			<stop offset="0.911628" stop-color="#D19763" stop-opacity="1"/>
		</radialGradient>
		<path fill="url(#SVGID_Fill2_)" stroke-width="0.2" stroke-linejoin="round" d="M 122.598,63.1239C 170.463,63.1239 209.265,95.2099 209.265,134.791C 209.265,174.371 170.463,206.457 122.598,206.457C 74.7334,206.457 35.9314,174.371 35.9314,134.791C 35.9314,95.2099 74.733,63.1239 122.598,63.1239 Z "/>
		<radialGradient id="SVGID_Fill3_" cx="86.2645" cy="111.125" r="16.8334" gradientUnits="userSpaceOnUse">
			<stop offset="0" stop-color="#000000" stop-opacity="1"/>
			<stop offset="0.846512" stop-color="#7A6A57" stop-opacity="0.501961"/>
			<stop offset="1" stop-color="#F5D5AF" stop-opacity="0"/>
		</radialGradient>
		<path fill="url(#SVGID_Fill3_)" stroke-width="0.2" stroke-linejoin="round" d="M 70.4312,116.902C 71.0979,114.791 72.2645,111.291 74.0423,108.652C 75.8201,106.013 78.209,104.235 80.5701,102.819C 82.9312,101.402 85.2645,100.347 87.6812,100.041C 90.0979,99.7353 92.5978,100.18 95.0978,101.097C 97.5978,102.013 100.098,103.402 101.431,104.93C 102.765,106.458 102.931,108.124 102.876,109.208C 102.82,110.291 102.542,110.791 101.654,110.763C 100.765,110.735 99.2646,110.18 97.7646,109.485C 96.2646,108.791 94.7646,107.958 92.8201,107.458C 90.8756,106.958 88.4868,106.791 86.459,107.041C 84.4312,107.291 82.7645,107.958 81.1812,109.152C 79.5979,110.347 78.0979,112.069 76.709,114.18C 75.3201,116.291 74.0423,118.791 72.9034,120.319C 71.7645,121.847 70.7645,122.402 70.209,122.263C 69.6534,122.124 69.5423,121.291 69.5701,120.513C 69.5979,119.735 69.7645,119.013 70.4312,116.902 Z "/>
		<radialGradient id="SVGID_Fill4_" cx="154.243" cy="109.347" r="16.8334" gradientUnits="userSpaceOnUse" gradientTransform="rotate(180.000000 154.243469 109.347092)">
			<stop offset="0" stop-color="#000000" stop-opacity="1"/>
			<stop offset="0.800003" stop-color="#7A6A57" stop-opacity="0.501961"/>
			<stop offset="1" stop-color="#F5D5AF" stop-opacity="0"/>
		</radialGradient>
		<path fill="url(#SVGID_Fill4_)" stroke-width="0.2" stroke-linejoin="round" d="M 170.077,115.124C 169.41,113.013 168.243,109.513 166.466,106.874C 164.688,104.236 162.299,102.458 159.938,101.041C 157.577,99.6244 155.243,98.569 152.827,98.2634C 150.41,97.9577 147.91,98.4023 145.41,99.319C 142.91,100.236 140.41,101.624 139.077,103.152C 137.743,104.68 137.577,106.347 137.632,107.43C 137.688,108.513 137.966,109.013 138.854,108.986C 139.743,108.958 141.243,108.402 142.743,107.708C 144.243,107.013 145.743,106.18 147.688,105.68C 149.632,105.18 152.021,105.013 154.049,105.263C 156.077,105.513 157.743,106.18 159.327,107.374C 160.91,108.569 162.41,110.291 163.799,112.402C 165.188,114.513 166.466,117.013 167.604,118.541C 168.743,120.069 169.743,120.624 170.299,120.486C 170.854,120.347 170.966,119.513 170.938,118.736C 170.91,117.958 170.743,117.236 170.077,115.124 Z "/>
		<radialGradient id="SVGID_Fill5_" cx="122.285" cy="144.125" r="25" gradientUnits="userSpaceOnUse">
			<stop offset="0" stop-color="#D58C57" stop-opacity="1"/>
			<stop offset="0.911628" stop-color="#E5B083" stop-opacity="0.501961"/>
			<stop offset="1" stop-color="#F5D5AF" stop-opacity="0"/>
		</radialGradient>
		<path fill="url(#SVGID_Fill5_)" stroke-width="0.2" stroke-linejoin="round" d="M 122.285,125.704C 136.093,125.704 147.285,133.95 147.285,144.125C 147.285,154.298 136.092,162.546 122.285,162.546C 108.478,162.546 97.2853,154.298 97.2853,144.125C 97.2853,133.95 108.477,125.704 122.285,125.704 Z "/>
		<radialGradient id="SVGID_Fill6_" cx="122.317" cy="140.678" r="13.375" gradientUnits="userSpaceOnUse">
			<stop offset="0" stop-color="#FFC48A" stop-opacity="1"/>
			<stop offset="0.911628" stop-color="#FACC9C" stop-opacity="0.501961"/>
			<stop offset="1" stop-color="#F5D5AF" stop-opacity="0"/>
		</radialGradient>
		<path fill="url(#SVGID_Fill6_)" stroke-width="0.2" stroke-linejoin="round" d="M 122.317,132.958C 129.704,132.958 135.692,136.415 135.692,140.678C 135.692,144.941 129.704,148.398 122.317,148.398C 114.931,148.398 108.942,144.941 108.942,140.678C 108.942,136.415 114.931,132.958 122.317,132.958 Z "/>
		<radialGradient id="SVGID_Fill7_" cx="151.069" cy="123.023" r="11.3943" gradientUnits="userSpaceOnUse">
			<stop offset="0" stop-color="#FCFCFC" stop-opacity="1"/>
			<stop offset="0.665116" stop-color="#F8E8D5" stop-opacity="0.501961"/>
			<stop offset="1" stop-color="#F5D5AF" stop-opacity="0"/>
		</radialGradient>
		<path fill="url(#SVGID_Fill7_)" stroke-width="0.2" stroke-linejoin="round" d="M 146.167,113.879C 150.365,111.628 155.963,113.897 158.67,118.948C 161.378,123.998 160.169,129.916 155.971,132.167C 151.773,134.417 146.175,132.148 143.467,127.098C 140.76,122.048 141.969,116.13 146.167,113.879 Z "/>
		<radialGradient id="SVGID_Fill8_" cx="91.1939" cy="122.272" r="11.3943" gradientUnits="userSpaceOnUse">
			<stop offset="0" stop-color="#FCFCFC" stop-opacity="1"/>
			<stop offset="0.665116" stop-color="#F8E8D5" stop-opacity="0.501961"/>
			<stop offset="1" stop-color="#F5D5AF" stop-opacity="0"/>
		</radialGradient>
		<path fill="url(#SVGID_Fill8_)" stroke-width="0.2" stroke-linejoin="round" d="M 86.2918,131.416C 90.4901,133.667 96.0881,131.398 98.7955,126.348C 101.503,121.298 100.294,115.379 96.096,113.129C 91.8979,110.878 86.2998,113.147 83.5924,118.197C 80.8851,123.247 82.0936,129.166 86.2918,131.416 Z "/>
		<path fill="#42220B" fill-opacity="1" stroke-width="0.2" stroke-linejoin="round" d="M 150.564,118.898C 152.842,118.898 154.689,120.689 154.689,122.898C 154.689,125.107 152.842,126.898 150.564,126.898C 148.286,126.898 146.439,125.107 146.439,122.898C 146.439,120.689 148.286,118.898 150.564,118.898 Z "/>
		<path fill="#381C08" fill-opacity="1" stroke-width="0.2" stroke-linejoin="round" d="M 91.4423,118.147C 93.6516,118.147 95.4423,119.827 95.4423,121.897C 95.4423,123.968 93.6514,125.647 91.4423,125.647C 89.2332,125.647 87.4423,123.968 87.4423,121.897C 87.4423,119.827 89.233,118.147 91.4423,118.147 Z "/>
		<radialGradient id="SVGID_Fill9_" cx="121.359" cy="178.898" r="37.5" gradientUnits="userSpaceOnUse">
			<stop offset="0" stop-color="#881709" stop-opacity="1"/>
			<stop offset="0.823256" stop-color="#782907" stop-opacity="0.501961"/>
			<stop offset="1" stop-color="#693B06" stop-opacity="0"/>
		</radialGradient>
		<path fill="url(#SVGID_Fill9_)" stroke-width="0.2" stroke-linejoin="round" d="M 110.137,182.731C 110.414,181.287 111.97,178.842 114.081,177.008C 116.192,175.175 118.859,173.953 121.914,174.12C 124.97,174.287 128.414,175.842 130.47,177.564C 132.526,179.287 133.192,181.175 133.303,182.453C 133.414,183.731 132.97,184.397 129.303,184.731C 125.637,185.064 118.748,185.064 114.803,184.842C 110.859,184.62 109.859,184.175 110.137,182.731 Z "/>
		<radialGradient id="SVGID_Fill10_" cx="124.667" cy="80.8046" r="93" gradientUnits="userSpaceOnUse">
			<stop offset="0" stop-color="#301C11" stop-opacity="1"/>
			<stop offset="0.823256" stop-color="#321B0D" stop-opacity="1"/>
			<stop offset="1" stop-color="#341A09" stop-opacity="1"/>
		</radialGradient>
		<path fill="url(#SVGID_Fill10_)" stroke-width="0.2" stroke-linejoin="round" d="M 43.5557,135.471C 43.0001,132.249 42.3334,124.693 41.0001,120.249C 39.6667,115.804 37.6667,114.471 36.0001,112.693C 34.3334,110.915 33.0001,108.693 33.3334,105.693C 33.6667,102.693 35.6667,98.9155 37.0001,95.1376C 38.3334,91.36 39.0001,87.582 39.5557,82.8044C 40.1111,78.0268 40.5557,72.2487 41.1111,66.3598C 41.6667,60.4711 42.3334,54.4711 41.4445,50.1376C 40.5557,45.8044 38.1111,43.1376 36.5557,40.1376C 35.0001,37.1376 34.3334,33.8044 34.2223,31.1376C 34.1111,28.4711 34.5557,26.4711 36.6667,28.0263C 38.7778,29.582 42.5557,34.6933 45.1111,38.1376C 47.6667,41.582 49.0001,43.36 50.1111,43.6933C 51.2223,44.0268 52.1111,42.9155 52.4445,39.693C 52.7778,36.4711 52.5557,31.1376 53.1111,27.9157C 53.6667,24.6933 55.0001,23.582 56.7778,23.0263C 58.5557,22.4711 60.7778,22.4711 62.4445,24.693C 64.1111,26.9155 65.2223,31.36 65.889,35.2489C 66.5557,39.1376 66.7778,42.4711 67.889,44.5824C 69.0001,46.6933 71.0001,47.582 72.0001,45.8044C 73.0001,44.0268 73.0001,39.582 72.889,35.582C 72.7778,31.582 72.5557,28.0268 73.6667,25.8044C 74.7778,23.582 77.2223,22.6933 92.3334,22.2489C 107.445,21.8044 135.222,21.8044 150,23.4711C 164.778,25.1376 166.556,28.4711 167.445,30.693C 168.333,32.9155 168.333,34.0268 168.778,34.36C 169.222,34.6933 170.111,34.2487 170.445,32.2487C 170.778,30.2487 170.556,26.6933 171.556,24.9157C 172.556,23.1376 174.778,23.1376 176.111,23.2489C 177.445,23.36 177.889,23.582 178.111,24.4711C 178.333,25.36 178.333,26.9155 178.445,28.9155C 178.556,30.9155 178.778,33.36 179.889,34.9157C 181,36.4711 183,37.1376 183.778,35.4711C 184.556,33.8044 184.111,29.8044 184,27.2489C 183.889,24.6933 184.111,23.582 186,23.1376C 187.889,22.6933 191.445,22.9155 193.889,23.2487C 196.333,23.582 197.667,24.0268 197.333,27.2489C 197,30.4711 195,36.4711 193.889,41.1376C 192.778,45.8044 192.556,49.1376 193.111,50.9157C 193.667,52.6933 195,52.9155 196.111,50.9155C 197.222,48.9155 198.111,44.6933 199.111,42.6933C 200.111,40.6933 201.222,40.9155 201.778,42.0263C 202.333,43.1376 202.333,45.1376 202,48.0263C 201.667,50.9155 201,54.6933 201,57.6933C 201,60.6933 201.667,62.9155 202.556,64.2487C 203.445,65.582 204.556,66.0268 205.556,64.1376C 206.556,62.2487 207.445,58.0268 208.333,54.2489C 209.222,50.4711 210.111,47.1376 211.222,46.0263C 212.333,44.9155 213.667,46.0268 214.778,48.8044C 215.889,51.582 216.778,56.0268 216.667,60.6933C 216.556,65.36 215.445,70.2487 214.556,74.9155C 213.667,79.582 213,84.0268 212.778,87.9157C 212.556,91.8044 212.778,95.1376 213,98.4711C 213.222,101.804 213.445,105.138 213,107.916C 212.556,110.693 211.445,112.915 209.333,114.915C 207.222,116.915 204.111,118.693 202,121.471C 199.889,124.249 198.778,128.027 198.333,130.471C 197.889,132.915 198.111,134.027 197.556,134.471C 197,134.915 195.667,134.693 195.111,133.804C 194.556,132.915 194.778,131.36 194.333,129.916C 193.889,128.471 192.778,127.138 192.333,124.471C 191.889,121.804 192.111,117.804 191.556,113.471C 191,109.138 189.667,104.471 186.222,98.8044C 182.778,93.1376 177.222,86.4711 171.889,81.1376C 166.556,75.8044 161.445,71.8044 155.889,69.3598C 150.333,66.9155 144.333,66.0268 140,65.6933C 135.667,65.36 133,65.582 131.667,66.4711C 130.333,67.36 130.333,68.9155 131.889,70.3598C 133.445,71.8044 136.556,73.1376 138.778,74.1376C 141,75.1376 142.333,75.8044 143,76.693C 143.667,77.582 143.667,78.6933 142.222,79.1376C 140.778,79.582 137.889,79.36 135.667,78.5824C 133.445,77.8044 131.889,76.4711 130.111,74.5824C 128.333,72.6933 126.333,70.2487 125.044,68.2465C 123.755,66.2441 123.177,64.6842 120.51,63.9067C 117.843,63.1286 113.088,63.1332 108.6,64.1354C 104.111,65.1376 99.889,67.1376 97.7778,69.0263C 95.6667,70.9155 95.6667,72.6933 94.2224,73.8044C 92.7778,74.9155 89.889,75.36 87.7778,75.2489C 85.6667,75.1376 84.3334,74.4711 81.889,75.2489C 79.4445,76.0268 75.889,78.2487 72.6667,80.9155C 69.4445,83.582 66.5557,86.6933 63.0001,89.9157C 59.4445,93.1376 55.2223,96.4711 53.0001,99.693C 50.7778,102.915 50.5557,106.027 50.2223,109.249C 49.889,112.471 49.4445,115.804 48.6667,118.471C 47.889,121.138 46.7778,123.138 46.1111,126.026C 45.4445,128.915 45.2223,132.693 44.889,135.138C 44.5557,137.582 44.1111,138.693 43.5557,135.471 Z "/>
	</g>
</svg>
