<?xml version="1.0" encoding="utf-8"?>
<!DOCTYPE svg PUBLIC "-//W3C//DTD SVG 1.1//EN" "http://www.w3.org/Graphics/SVG/1.1/DTD/svg11.dtd">
<svg x="0" y="0" width="32" height="32" overflow="hidden" viewBox="0, 0, 512, 512" preserveAspectRatio="xMidYMid"
     font-size="0" id="svg" xml:space="preserve" xmlns="http://www.w3.org/2000/svg"
     xmlns:xml="http://www.w3.org/XML/1998/namespace" version="1.1">
  <g stroke="#000000" transform="matrix(1.077527, 0, 0, -1.951332, 0.5377311, 511.0225)" id="g8974" xml:space="preserve" style="fill:#0000C4;">
    <g stroke="#000000" id="g8976" xml:space="preserve">
      <path d="M150.41 261.145 C115.793 259.758 115.898 222.938 143.766 219.172 L116.305 159.481 C105.754 165.157 94.91801 167.379 81.37901 167.379 C58.38701 167.379 40.03901 159.532 23.78501 143.571 C7.562 127.571 0 107.485 0 84.196 C0 63.153 6.441 41.77 22.664 25.532 C38.918 9.258 58.387 1.122 81.379 1.122 C104.367 1.122 123.824 9.257999 139.531 25.532 C155.203 41.77 163.352 61.516 163.352 84.532 C163.352 112.676 150.703 136.485 127.711 153.79 L131.301 162.102 L220.234 88.649 C219.234 85.856 218.664 82.805 218.664 79.59 C218.664 65.04 229.781 53.911 244.316 53.911 C244.422 53.911 244.516 53.907 244.617 53.911 L248.543 39.047 L239.906 39.047 L239.906 26.02 L273.449 26.02 L273.449 39.047 L261.559 39.047 L257.332 57.243 C258.367 57.832 259.316 58.536 260.25 59.262 C264.766 61.942 267.488 65.883 268.625 71.243 C268.633 71.28201 268.656 71.317 268.664 71.356 C268.969 72.301 269.254 73.278 269.449 74.274 L307.93 75.286 C311.789 32.051 346.355 0 390.844 0 C438.062 0 474.164 36.102 474.164 83.372 C474.164 130.641 438.062 166.743 390.844 166.743 C374.5 166.743 359.5 162.415 346.863 154.801 L323.453 185.911 L335.121 204.516 L356.848 210.77 C359.953 211.668 363.645 211.262 363.652 218.555 C363.312 222.872 360.922 225.219 357.371 226.004 C331.621 228.157 304.957 230.133 278.875 232.145 L275.621 223.461 L319.973 204.516 L312.418 191.79 L146.039 192.836 C152.023 205.485 151.785 205.555 163.352 231.024 L153.594 231.024 C143.965 231.352 133.223 233.153 136.277 241.879 C139.328 250.606 154.883 248.254 161.184 247.305 C164.688 245.141 169.836 244.051 176.328 244.051 C180.66 244.051 185.234 244.606 190.391 246.223 L190.391 259.211 C185.234 260.555 180.66 261.383 176.328 261.383 C171.207 261.383 167.152 260.848 164.438 260.297 C159.547 261.508 154.879 261.293 150.41 261.145 z M94.914 219.899 L94.914 180.934 L100.301 180.934 C113.293 180.934 119.785 187.469 119.785 200.473 C119.785 213.477 113.293 219.977 100.301 219.977 z M139.605 179.622 L304.34 178.235 L256.957 102.129 C256.934 102.141 256.91 102.153 256.883 102.165 C253.891 103.786 250.5 104.825 246.863 105.161 L246.113 105.383 L242.898 121.372 L250.453 121.372 L250.453 134.36 L217.992 134.36 L217.992 121.372 L229.883 121.372 L233.961 103.211 C231.777 102.29 229.738 101.079 227.938 99.61801 L136.875 173.856 z M316.348 174.305 L324.871 162.887 L336.129 147.5 C320.238 128.93 308.867 107.36 307.668 87.489 L278.352 86.70399 L269.113 86.477 C268.395 89.207 267.238 91.743 265.746 94.004 z M391.328 154.575 C430.277 154.575 460.066 124.118 460.066 84.27001 C460.066 44.42201 430.277 13.92601 391.328 13.92601 C355.148 13.92601 326.906 40.23901 323.078 75.92201 L379.176 77.23101 C381.344 72.59401 385.977 69.52001 391.59 69.52001 C399.391 69.52001 405.352 75.48901 405.352 83.29701 C405.352 91.10601 399.391 97.03601 391.59 97.03601 C391.176 97.03601 390.797 96.99301 390.395 96.96101 L354.754 144.282 C365.242 150.825 377.711 154.575 391.328 154.575 z M82.12503 153.305 C92.55503 153.305 102.316 151.082 110.996 147.051 L109.352 143.758 L82.42603 98.30901 C82.03104 98.34 81.62904 98.383 81.22704 98.383 C73.40204 98.383 67.05504 92.028 67.05504 84.196 C67.05504 76.364 73.40204 70.008 81.22704 70.008 C89.05103 70.008 95.40204 76.364 95.40204 84.196 C95.40204 87.372 94.32004 90.293 92.55904 92.657 L121.992 140.536 C138.914 128.184 149.629 107.891 149.629 84.196 C149.629 45.02 120.383 15.051 82.12503 15.051 C43.86703 15.051 14.62103 45.02 14.62103 84.196 C14.62103 123.368 43.86703 153.305 82.12503 153.305 z M344.617 136.571 L379.512 89.99701 C379.355 89.70701 379.234 89.40301 379.098 89.09801 L322.703 87.75 C323.57 107.407 331.73 124.567 344.617 136.571 z" stroke="#000000" fill-rule="evenOdd" id="path8978" xml:space="preserve" connector-curvature="0" />
    </g>
  </g>
</svg>