<svg enable-background="new 0 0 88.00 76.00" height="76" viewBox="0 0 88 76" width="88" xmlns="http://www.w3.org/2000/svg" xmlns:xlink="http://www.w3.org/1999/xlink"><linearGradient id="a" gradientTransform="matrix(0 1 -1 0 .228961 -.778777)" gradientUnits="objectBoundingBox" x1=".503869" x2="2.05368" y1="-.274908" y2="-.274908"><stop offset=".316279" stop-color="#f0f1ec" stop-opacity=".592157"/><stop offset=".800003" stop-color="#fff" stop-opacity="0"/></linearGradient><linearGradient id="b" gradientTransform="matrix(-.986419426397 .164245898658 -.164245898658 -.986419426397 1.939424360163 .714189860202)" gradientUnits="objectBoundingBox" x1=".940186" x2="2.52462" y1=".437275" y2=".437275"><stop offset=".274419" stop-color="#f0f1ec" stop-opacity=".501961"/><stop offset=".562791" stop-color="#fff" stop-opacity="0"/></linearGradient><linearGradient id="c" gradientTransform="matrix(-.193078162259 .981183379017 -.981183379017 -.193078162259 .425264749139 -.550952267695)" gradientUnits="objectBoundingBox" x1=".439183" x2="1.62553" y1="-.100608" y2="-.100608"><stop offset=".451163" stop-color="#231f1f" stop-opacity=".403922"/><stop offset=".865116" stop-color="#6c6464" stop-opacity=".0588235"/></linearGradient><linearGradient id="d" gradientTransform="matrix(0 1 -1 0 .644889 -.341961)" gradientUnits="objectBoundingBox" x1=".493425" x2="1.20501" y1=".151464" y2=".151464"><stop offset=".116279" stop-color="#231e1e"/><stop offset="1" stop-color="#262323"/></linearGradient><linearGradient id="e" gradientTransform="matrix(0 1 -1 0 .636171 -.350207)" gradientUnits="objectBoundingBox" x1=".493189" x2="1.2221" y1=".142982" y2=".142982"><stop offset=".111628" stop-color="#262a27"/><stop offset="1" stop-color="#606561"/></linearGradient><linearGradient id="f" gradientTransform="matrix(.308309871763 -.9512859838 .9512859838 .308309871763 -.795309816894 1.090907176705)" gradientUnits="objectBoundingBox" x1=".352511" x2="1.58799" y1="1.09235" y2="1.09235"><stop offset=".227907"/><stop offset="1" stop-color="#fff"/></linearGradient><linearGradient id="g" gradientTransform="matrix(.309904610954 -.950767654114 .950767654114 .309904610954 -.816807128985 1.098731315183)" gradientUnits="objectBoundingBox" x1=".348476" x2="1.62468" y1="1.11204" y2="1.11204"><stop offset=".232558" stop-color="#171f18"/><stop offset="1" stop-color="#989d99"/></linearGradient><g stroke-linejoin="round"><path d="m13.4792 2.43747h61c6.0751 0 11 4.92487 11 11.00003v49.6667c0 6.0751-4.9249 11-11 11h-61c-6.07517 0-11.00004-4.9249-11.00004-11v-49.6667c0-6.07516 4.92487-11.00003 11.00004-11.00003z" fill="#b2ae5a" stroke="#000"/><path d="m73.499 4.92154h-58.1111c-3.034 0-6.8082.84714-9.5754 4.64534h.06589c.06588 35.59882 18.16601 35.71982 38.54311 35.71982 20.377 0 37.6866-.3444 38.016-35.80359v.02792c-1.4495-2.06667-3.3602-4.18919-8.9385-4.58949z" fill="url(#a)" stroke-width=".2"/><path d="m73.2684 4.87499-16.9875 1.86187c-3.0339 0-19.1508-1.78743-21.918 2.01077l-8.0819 11.91597c4.3585 7.0054 19.6778-2.0853 22.0497-3.8354 23.631-3.0163 33.5468 28.0675 33.8762-7.39164v.02792c-1.4495-2.06666-3.3602-4.18918-8.9385-4.58949z" fill="url(#b)" stroke-width=".2"/><path d="m13.7291 5.27099h60.7499c4.4183 0 8 3.58172 8 8.00001v49.9998c0 4.4183-3.5817 8-8 8h-60.7499c-4.41824 0-7.99996-3.5817-7.99996-8v-49.9998c0-4.41829 3.58172-8.00001 7.99996-8.00001z" fill="none" stroke="#ffd23f" stroke-width="6"/><path d="m43.98 75.8701 30.5331-34.4474-19.7917-16.7284-45.0235 33.3664z" fill="url(#c)" stroke-width=".2"/><path d="m54.8387 39.3962 22.2738-20.1873c-.0775-1.5613.1865-.8794.1865 2.3997l.0745 2.3379c.2984 4.6758-4.0645 7.8671-2.1254 5.8261l-25.1827 29.1183c-1.0938 1.9791-.5966-1.089.1989-6.1354l-.0994-4.0573c0-3.2791-1.3961-9.553 4.6738-9.302z" fill="url(#e)" stroke="url(#d)"/><path d="m21.5067 31.812 24.9821 6.3274c3.2464 0 3.5269 1.5327 3.5269 4.7835v13.832c0 3.2507-2.2237 4.8376-7.8079 2.7775l-24.5953-8.2231c-5.1927-1.7717-4.0417-11.9485-4.0413-13.2435v-6.2538c0-3.2508 4.6891 0 7.9355 0z" fill="url(#g)" stroke="url(#f)"/><path d="m50.4632 30.1251 15.475-12.0975-17.6005-2.542-16.7988 10.4091z" fill="#f9cc3e" stroke-width=".2"/><path d="m26.3888 29.5138 7.0488 1.7255c3.1997.7833 5.1555 3.9996 4.3684 7.1839l-.2506 1.0138c-.7871 3.1843-2.214 5.8264-5.4137 5.0431l-10.2172-3.0058c-3.1997-.7833-3.7922-3.4151-3.0051-6.5994l.2506-1.0138c.7871-3.1843 4.0191-5.1306 7.2188-4.3473z" fill="#ddb637" stroke="#b29331"/><path d="m47.2936 10.6428-35.0021 19.5936 37.9479 10.5946 29.4585-26.1247zm.7644 3.3584 22.1498 2.9502-19.3344 15.0662-23.6663-5.2447z" fill="#ddb637" stroke="#ddb637" stroke-width="3"/><path d="m65.9258 17.3473-17.7124-2.3379-17.0785 10.1679.7356.158 16.4175-10.029 17.2428 2.3349z" fill="#967d2d" stroke="#b29331"/><path d="m19.277 34.5906 18.1598 5.084" fill="none" stroke="#6c5b24"/><path d="m19.1651 35.0174 18.1598 5.0839" fill="none" stroke="#b29331"/></g></svg>