<svg enable-background="new 0 0 257.00 257.00" height="257" viewBox="0 0 257 257" width="257" xmlns="http://www.w3.org/2000/svg" xmlns:xlink="http://www.w3.org/1999/xlink"><linearGradient id="a" gradientTransform="matrix(.549294672455 .835628723066 -.835628723066 .549294672455 .216917487003 -.081915149919)" gradientUnits="objectBoundingBox" x1=".184396" x2="1.11201" y1=".16013" y2=".16013"><stop offset="0" stop-color="#b7c0b8"/><stop offset="1" stop-color="#fff"/></linearGradient><linearGradient id="b"><stop offset="0" stop-color="#87af06"/><stop offset="1" stop-color="#afd27b"/></linearGradient><linearGradient id="c" gradientTransform="matrix(0 -1 1 0 -2.006347 3.006347)" gradientUnits="objectBoundingBox" x1=".5" x2="4.51269" xlink:href="#b" y1="2.50635" y2="2.50635"/><linearGradient id="d"><stop offset="0" stop-color="#f4f5f3"/><stop offset="1" stop-color="#b7bdb0"/></linearGradient><linearGradient id="e" gradientTransform="matrix(0 -1 1 0 -2.118458 3.118458)" gradientUnits="objectBoundingBox" x1=".5" x2="4.73691" xlink:href="#d" y1="2.61846" y2="2.61846"/><linearGradient id="f" gradientTransform="matrix(0 -1 1 0 -2.006341 3.006341)" gradientUnits="objectBoundingBox" x1=".5" x2="4.51269" xlink:href="#b" y1="2.50634" y2="2.50634"/><linearGradient id="g"><stop offset="0" stop-color="#f4f5f3"/><stop offset="1" stop-color="#e5f8c9"/></linearGradient><linearGradient id="h" gradientTransform="matrix(0 -1 1 0 -2.118451 3.118451)" gradientUnits="objectBoundingBox" x1=".5" x2="4.73691" xlink:href="#g" y1="2.61845" y2="2.61845"/><linearGradient id="i" gradientTransform="matrix(0 -1 1 0 -2.006341 3.006341)" gradientUnits="objectBoundingBox" x1=".5" x2="4.51268" xlink:href="#b" y1="2.50634" y2="2.50634"/><linearGradient id="j" gradientTransform="matrix(0 -1 1 0 -2.118451 3.118451)" gradientUnits="objectBoundingBox" x1=".5" x2="4.7369" xlink:href="#d" y1="2.61845" y2="2.61845"/><linearGradient id="k" gradientTransform="matrix(0 -1 1 0 -2.118451 3.118451)" gradientUnits="objectBoundingBox" x1=".5" x2="4.7369" xlink:href="#g" y1="2.61845" y2="2.61845"/><linearGradient id="l" gradientTransform="matrix(0 -1 1 0 -2.006324 3.006324)" gradientUnits="objectBoundingBox" x1=".5" x2="4.51266" xlink:href="#b" y1="2.50632" y2="2.50632"/><linearGradient id="m" gradientTransform="matrix(0 -1 1 0 -2.118433 3.118433)" gradientUnits="objectBoundingBox" x1=".5" x2="4.73688" xlink:href="#d" y1="2.61843" y2="2.61843"/><linearGradient id="n"><stop offset="0" stop-color="#3f542a"/><stop offset=".474419" stop-color="#d0d5cb"/><stop offset="1" stop-color="#0f1505"/></linearGradient><linearGradient id="o" gradientTransform="matrix(0 -1 1 0 -2.014293 3.014293)" gradientUnits="objectBoundingBox" x1=".5" x2="4.52863" xlink:href="#n" y1="2.51429" y2="2.51429"/><linearGradient id="p"><stop offset="0" stop-color="#daf5bf"/><stop offset="1" stop-color="#1d2314"/></linearGradient><linearGradient id="q" gradientTransform="matrix(0 -1 1 0 -2.203136 3.203136)" gradientUnits="objectBoundingBox" x1=".5" x2="4.90632" xlink:href="#p" y1="2.70314" y2="2.70314"/><filter id="r" filterUnits="userSpaceOnUse"><feGaussianBlur stdDeviation="2.64567"/></filter><linearGradient id="s" gradientTransform="matrix(0 -1 1 0 -2.014314 3.014314)" gradientUnits="objectBoundingBox" x1=".5" x2="4.52863" xlink:href="#n" y1="2.51431" y2="2.51431"/><linearGradient id="t" gradientTransform="matrix(0 -1 1 0 -2.203159 3.203159)" gradientUnits="objectBoundingBox" x1=".5" x2="4.90632" xlink:href="#p" y1="2.70316" y2="2.70316"/><filter id="u" filterUnits="userSpaceOnUse"><feGaussianBlur stdDeviation="3.02362"/></filter><linearGradient id="v" gradientTransform="matrix(0 -1 1 0 -2.014261 3.014261)" gradientUnits="objectBoundingBox" x1=".5" x2="4.52854" xlink:href="#n" y1="2.51426" y2="2.51426"/><linearGradient id="w" gradientTransform="matrix(0 -1 1 0 -2.203097 3.203097)" gradientUnits="objectBoundingBox" x1=".5" x2="4.90622" xlink:href="#p" y1="2.7031" y2="2.7031"/><linearGradient id="x" gradientTransform="matrix(0 -1 1 0 -2.014252 3.01425)" gradientUnits="objectBoundingBox" x1=".499999" x2="4.52863" xlink:href="#n" y1="2.51425" y2="2.51425"/><linearGradient id="y" gradientTransform="matrix(0 -1 1 0 -2.203092 3.203088)" gradientUnits="objectBoundingBox" x1=".499998" x2="4.90632" xlink:href="#p" y1="2.70309" y2="2.70309"/><linearGradient id="z" gradientTransform="matrix(0 -1 1 0 -2.014301 3.014305)" gradientUnits="objectBoundingBox" x1=".500002" x2="4.52855" xlink:href="#n" y1="2.5143" y2="2.5143"/><linearGradient id="A" gradientTransform="matrix(0 -1 1 0 -2.20314 3.203144)" gradientUnits="objectBoundingBox" x1=".500002" x2="4.90622" xlink:href="#p" y1="2.70314" y2="2.70314"/><linearGradient id="B" gradientTransform="matrix(0 -1 1 0 -2.014248 3.014254)" gradientUnits="objectBoundingBox" x1=".500003" x2="4.52863" xlink:href="#n" y1="2.51425" y2="2.51425"/><linearGradient id="C" gradientTransform="matrix(0 -1 1 0 -2.203087 3.203093)" gradientUnits="objectBoundingBox" x1=".500003" x2="4.90632" xlink:href="#p" y1="2.70309" y2="2.70309"/><linearGradient id="D" gradientTransform="matrix(0 -1 1 0 -2.014251 3.014251)" gradientUnits="objectBoundingBox" x1=".5" x2="4.52846" xlink:href="#n" y1="2.51425" y2="2.51425"/><linearGradient id="E" gradientTransform="matrix(0 -1 1 0 -2.203081 3.203081)" gradientUnits="objectBoundingBox" x1=".5" x2="4.90612" xlink:href="#p" y1="2.70308" y2="2.70308"/><linearGradient id="F" gradientTransform="matrix(0 -1 1 0 -2.014254 3.014248)" gradientUnits="objectBoundingBox" x1=".499997" x2="4.52862" xlink:href="#n" y1="2.51425" y2="2.51425"/><linearGradient id="G" gradientTransform="matrix(0 -1 1 0 -2.203093 3.203087)" gradientUnits="objectBoundingBox" x1=".499997" x2="4.90631" xlink:href="#p" y1="2.70309" y2="2.70309"/><linearGradient id="H" gradientTransform="matrix(0 -1 1 0 -2.014282 3.014282)" gradientUnits="objectBoundingBox" x1=".5" x2="4.52854" xlink:href="#n" y1="2.51428" y2="2.51428"/><linearGradient id="I" gradientTransform="matrix(0 -1 1 0 -2.20312 3.20312)" gradientUnits="objectBoundingBox" x1=".5" x2="4.90622" xlink:href="#p" y1="2.70312" y2="2.70312"/><linearGradient id="J" gradientTransform="matrix(0 -1 1 0 -2.014198 3.014198)" gradientUnits="objectBoundingBox" x1=".5" x2="4.52854" xlink:href="#n" y1="2.5142" y2="2.5142"/><linearGradient id="K" gradientTransform="matrix(0 -1 1 0 -2.203028 3.203028)" gradientUnits="objectBoundingBox" x1=".5" x2="4.90622" xlink:href="#p" y1="2.70303" y2="2.70303"/><linearGradient id="L" gradientTransform="matrix(0 -1 1 0 -2.014303 3.014303)" gradientUnits="objectBoundingBox" x1=".5" x2="4.52854" xlink:href="#n" y1="2.5143" y2="2.5143"/><linearGradient id="M" gradientTransform="matrix(0 -1 1 0 -2.203142 3.203142)" gradientUnits="objectBoundingBox" x1=".5" x2="4.90622" xlink:href="#p" y1="2.70314" y2="2.70314"/><linearGradient id="N" gradientTransform="matrix(0 1 -1 0 .645744 -.341284)" gradientUnits="objectBoundingBox" x1=".493514" x2="1.20354" y1=".15223" y2=".15223"><stop offset=".116279" stop-color="#231e1e"/><stop offset="1" stop-color="#262323"/></linearGradient><linearGradient id="O" gradientTransform="matrix(0 1 -1 0 .63617 -.350204)" gradientUnits="objectBoundingBox" x1=".493187" x2="1.22209" y1=".142983" y2=".142983"><stop offset=".111628" stop-color="#262a27"/><stop offset="1" stop-color="#606561"/></linearGradient><linearGradient id="P" gradientTransform="matrix(.310518823884 -.950567230665 .950567230665 .310518823884 -.792529694741 1.088542835642)" gradientUnits="objectBoundingBox" x1=".354106" x2="1.58546" y1="1.09059" y2="1.09059"><stop offset=".227907"/><stop offset="1" stop-color="#fff"/></linearGradient><linearGradient id="Q" gradientTransform="matrix(.309903349808 -.950768065186 .950768065186 .309903349808 -.816805245097 1.09873148068)" gradientUnits="objectBoundingBox" x1=".348476" x2="1.62467" y1="1.11203" y2="1.11203"><stop offset=".232558" stop-color="#171f18"/><stop offset="1" stop-color="#989d99"/></linearGradient><g stroke-linejoin="round"><path d="m18.7794 6.1232h189.9996c2.21 0 4 1.79102 4 4v227.3338c0 2.209-1.79 4-4 4h-189.9996c-2.2091 0-4-1.791-4-4v-227.3338c0-2.20898 1.7909-4 4-4z" fill="url(#a)" stroke="#036400" stroke-width="5"/><g stroke-width="2"><path d="m40.2794 23.1234h147.9996c2.21 0 4 1.7908 4 4v27.7923c0 2.2092-1.79 4-4 4h-147.9996c-2.2091 0-4-1.7908-4-4v-27.7923c0-2.2092 1.7909-4 4-4z" fill="url(#e)" stroke="url(#c)"/><path d="m40.2794 63.8615h147.9996c2.21 0 4 1.7905 4 3.9997v27.7923c0 2.2092-1.79 4.0002-4 4.0002h-147.9996c-2.2091 0-4-1.791-4-4.0002v-27.7923c0-2.2092 1.7909-3.9997 4-3.9997z" fill="url(#h)" stroke="url(#f)"/><path d="m40.7794 105.306h147.9996c2.21 0 4 1.79 4 4v27.792c0 2.209-1.79 4-4 4h-147.9996c-2.2091 0-4-1.791-4-4v-27.792c0-2.21 1.7909-4 4-4z" fill="url(#j)" stroke="url(#i)"/><path d="m41.1128 146.122h148.0002c2.209 0 4 1.791 4 4v27.792c0 2.209-1.791 4-4 4h-148.0002c-2.2092 0-4-1.791-4-4v-27.792c0-2.209 1.7908-4 4-4z" fill="url(#k)" stroke="url(#i)"/><path d="m40.7794 187.331h147.9996c2.21 0 4 1.79 4 4v27.792c0 2.209-1.79 4-4 4h-147.9996c-2.2091 0-4-1.791-4-4v-27.792c0-2.21 1.7909-4 4-4z" fill="url(#m)" stroke="url(#l)"/></g><path d="m52.1128 36.2902h38c1.1045 0 2 .8955 2 2v6.6665c0 1.1045-.8955 2-2 2h-38c-1.1047 0-2-.8955-2-2v-6.6665c0-1.1045.8953-2 2-2z" fill="url(#q)" filter="url(#r)" stroke="url(#o)"/><path d="m99.946 36.0817h27.75c1.105 0 2 .8955 2 2v6.6665c0 1.1045-.895 2-2 2h-27.75c-1.1046 0-2-.8955-2-2v-6.6665c0-1.1045.8954-2 2-2z" fill="url(#t)" filter="url(#u)" stroke="url(#s)"/><path d="m138.029 36.1234h38c1.105 0 2 .8956 2 2v6.6668c0 1.1045-.895 2-2 2h-38c-1.104 0-2-.8955-2-2v-6.6668c0-1.1044.896-2 2-2z" fill="url(#w)" filter="url(#u)" stroke="url(#v)"/><path d="m51.0353 117.821h38c1.1045 0 2 .896 2 2v6.667c0 1.104-.8955 2-2 2h-38c-1.1046 0-2-.896-2-2v-6.667c0-1.104.8954-2 2-2z" fill="url(#q)" filter="url(#r)" stroke="url(#o)"/><path d="m98.8687 117.613h27.7503c1.104 0 2 .895 2 2v6.666c0 1.105-.896 2-2 2h-27.7503c-1.1048 0-2-.895-2-2v-6.666c0-1.105.8952-2 2-2z" fill="url(#t)" filter="url(#u)" stroke="url(#s)"/><path d="m136.952 117.655h38c1.104 0 2 .895 2 2v6.666c0 1.105-.896 2-2 2h-38c-1.105 0-2-.895-2-2v-6.666c0-1.105.895-2 2-2z" fill="url(#w)" filter="url(#u)" stroke="url(#v)"/><path d="m52.0353 199.821h38c1.1045 0 2 .896 2 2v6.667c0 1.104-.8955 2-2 2h-38c-1.1046 0-2-.896-2-2v-6.667c0-1.104.8954-2 2-2z" fill="url(#q)" filter="url(#r)" stroke="url(#o)"/><path d="m99.8687 199.613h27.7503c1.104 0 2 .895 2 2v6.666c0 1.105-.896 2-2 2h-27.7503c-1.1048 0-2-.895-2-2v-6.666c0-1.105.8952-2 2-2z" fill="url(#t)" filter="url(#u)" stroke="url(#s)"/><path d="m137.952 199.655h38c1.104 0 2 .895 2 2v6.666c0 1.105-.896 2-2 2h-38c-1.105 0-2-.895-2-2v-6.666c0-1.105.895-2 2-2z" fill="url(#w)" filter="url(#u)" stroke="url(#v)"/><path d="m73.0353 78.4887h36.1607c1.104 0 2 .8955 2 2v6.6665c0 1.1045-.896 2-2 2h-36.1607c-1.1046 0-2-.8955-2-2v-6.6665c0-1.1045.8954-2 2-2z" fill="url(#y)" filter="url(#r)" stroke="url(#x)"/><path d="m122.862 78.2792h30.333c1.105 0 2 .8955 2 2v6.6668c0 1.1044-.895 2-2 2h-30.333c-1.104 0-2-.8956-2-2v-6.6668c0-1.1045.896-2 2-2z" fill="url(#A)" filter="url(#u)" stroke="url(#z)"/><path d="m162.029 78.3219h14.667c1.104 0 2 .8955 2 2v6.6665c0 1.1045-.896 2-2 2h-14.667c-1.105 0-2-.8955-2-2v-6.6665c0-1.1045.895-2 2-2z" fill="url(#C)" filter="url(#u)" stroke="url(#B)"/><path d="m51.5911 78.6637h12.6045c1.1044 0 2 .8955 2 2v6.667c0 1.1045-.8956 2-2 2h-12.6045c-1.1045 0-2-.8955-2-2v-6.667c0-1.1045.8955-2 2-2z" fill="url(#E)" filter="url(#u)" stroke="url(#D)"/><path d="m72.9578 158.687h36.1602c1.105 0 2 .895 2 2v6.666c0 1.105-.895 2-2 2h-36.1602c-1.1047 0-2-.895-2-2v-6.666c0-1.105.8953-2 2-2z" fill="url(#G)" filter="url(#r)" stroke="url(#F)"/><path d="m122.785 158.477h30.333c1.105 0 2 .896 2 2v6.667c0 1.104-.895 2-2 2h-30.333c-1.105 0-2-.896-2-2v-6.667c0-1.104.895-2 2-2z" fill="url(#I)" filter="url(#u)" stroke="url(#H)"/><path d="m161.951 158.52h14.667c1.105 0 2 .895 2 2v6.667c0 1.104-.895 2-2 2h-14.667c-1.104 0-2-.896-2-2v-6.667c0-1.105.896-2 2-2z" fill="url(#K)" filter="url(#u)" stroke="url(#J)"/><path d="m51.5137 158.862h12.6045c1.1045 0 2 .895 2 2v6.666c0 1.105-.8955 2-2 2h-12.6045c-1.1045 0-2-.895-2-2v-6.666c0-1.105.8955-2 2-2z" fill="url(#M)" filter="url(#u)" stroke="url(#L)"/><path d="m193.032 183.012 47.374-55.431c-.165-4.287.397-2.414.397 6.59l.158 6.419c.635 12.839-8.644 21.602-4.52 15.998l-53.561 79.953c-2.326 5.434-1.269-2.991.423-16.847l-.211-11.14c0-9.004-2.97-26.231 9.94-25.542z" fill="url(#O)" stroke="url(#N)" stroke-width="3"/><path d="m122.139 162.187 53.134 17.374c6.905 0 7.501 4.208 7.501 13.134v37.98c0 8.926-4.729 13.283-16.606 7.627l-52.312-22.579c-11.044-4.865-8.596-32.809-8.595-36.364v-17.172c0-8.926 9.973 0 16.878 0z" fill="url(#Q)" stroke="url(#P)" stroke-width="3"/><path d="m183.871 159.116 34.768-35.254-40.305-7.323-36.64 30.189z" fill="#f9cc3e" stroke-width=".2"/><path d="m132.522 155.876 14.992 4.738c6.806 2.151 10.965 10.982 9.291 19.726l-.533 2.784c-1.674 8.743-4.709 15.998-11.514 13.847l-21.731-8.254c-6.805-2.15-8.065-9.377-6.391-18.12l.533-2.784c1.674-8.743 8.548-14.088 15.353-11.937z" fill="#ddb637" stroke="#b29331" stroke-width="3"/><path d="m176.984 104.06-74.445 53.8 80.711 29.091 62.655-71.734zm1.626 9.221 47.11 8.101-41.122 41.369-50.335-14.401z" fill="#ddb637" stroke="#ddb637" stroke-width="9"/><path d="m217.734 123.044-38.793-6.994-37.194 29.51 1.07.281 36.283-28.975 38 7.202z" fill="#967d2d" stroke="#b29331" stroke-width="3"/><path d="m117.396 169.816 38.624 13.96" fill="none" stroke="#6c5b24" stroke-width="3"/><path d="m117.158 170.988 38.624 13.959" fill="none" stroke="#b29331"/></g></svg>