<svg enable-background="new 0 0 88.00 76.00" height="76" viewBox="0 0 88 76" width="88" xmlns="http://www.w3.org/2000/svg" xmlns:xlink="http://www.w3.org/1999/xlink"><linearGradient id="a" gradientTransform="matrix(0 1 -1 0 .228961 -.778777)" gradientUnits="objectBoundingBox" x1=".503869" x2="2.05368" y1="-.274908" y2="-.274908"><stop offset=".316279" stop-color="#f0f1ec" stop-opacity=".592157"/><stop offset=".800003" stop-color="#fff" stop-opacity="0"/></linearGradient><linearGradient id="b" gradientTransform="matrix(-.986419426397 .164245898658 -.164245898658 -.986419426397 1.939424360163 .714189860202)" gradientUnits="objectBoundingBox" x1=".940186" x2="2.52462" y1=".437275" y2=".437275"><stop offset=".274419" stop-color="#f0f1ec" stop-opacity=".501961"/><stop offset=".562791" stop-color="#fff" stop-opacity="0"/></linearGradient><linearGradient id="c" gradientTransform="matrix(-.193078162259 .981183379017 -.981183379017 -.193078162259 .425264749139 -.550952267695)" gradientUnits="objectBoundingBox" x1=".439183" x2="1.62553" y1="-.100608" y2="-.100608"><stop offset=".451163" stop-color="#231f1f" stop-opacity=".403922"/><stop offset=".865116" stop-color="#6c6464" stop-opacity=".0588235"/></linearGradient><linearGradient id="d" gradientTransform="matrix(0 1 -1 0 .646301 -.340623)" gradientUnits="objectBoundingBox" x1=".493462" x2="1.20224" y1=".152839" y2=".152839"><stop offset=".116279" stop-color="#231e1e"/><stop offset="1" stop-color="#262323"/></linearGradient><linearGradient id="e" gradientTransform="matrix(0 1 -1 0 .636171 -.350207)" gradientUnits="objectBoundingBox" x1=".493189" x2="1.22209" y1=".142982" y2=".142982"><stop offset=".111628" stop-color="#262a27"/><stop offset="1" stop-color="#606561"/></linearGradient><linearGradient id="f" gradientTransform="matrix(.308053359691 -.951369080632 .951369080632 .308053359691 -.791853640341 1.089651103675)" gradientUnits="objectBoundingBox" x1=".353163" x2="1.58211" y1="1.08919" y2="1.08919"><stop offset=".227907"/><stop offset="1" stop-color="#fff"/></linearGradient><linearGradient id="g" gradientTransform="matrix(.309904610954 -.950767654114 .950767654114 .309904610954 -.816807128985 1.098731315183)" gradientUnits="objectBoundingBox" x1=".348476" x2="1.62468" y1="1.11204" y2="1.11204"><stop offset=".232558" stop-color="#171f18"/><stop offset="1" stop-color="#989d99"/></linearGradient><g stroke-linejoin="round"><path d="m13.4792 2.43747h61c6.0751 0 11 4.92487 11 11.00003v49.6667c0 6.0751-4.9249 11-11 11h-61c-6.07517 0-11.00004-4.9249-11.00004-11v-49.6667c0-6.07516 4.92487-11.00003 11.00004-11.00003z" fill="#8c9e64" stroke="#000"/><g stroke-width=".2"><path d="m73.499 4.92154h-58.1111c-3.034 0-6.8082.84714-9.5754 4.64534h.06589c.06588 35.59882 18.16601 35.71982 38.54311 35.71982 20.377 0 37.6866-.3444 38.016-35.80359v.02792c-1.4495-2.06667-3.3602-4.18919-8.9385-4.58949z" fill="url(#a)"/><path d="m73.2684 4.87499-16.9875 1.86187c-3.0339 0-19.1508-1.78743-21.918 2.01077l-8.0819 11.91597c4.3585 7.0054 19.6778-2.0853 22.0497-3.8354 23.631-3.0163 33.5468 28.0675 33.8762-7.39164v.02792c-1.4495-2.06666-3.3602-4.18918-8.9385-4.58949z" fill="url(#b)"/><path d="m44.0826 71.2111 26.1712-29.5264-16.9643-14.3386-38.5916 28.5997z" fill="url(#c)"/></g><path d="m53.39 39.9477 19.0918-17.3034c-.0664-1.3383.1599-.7538.1599 2.0569l.0639 2.0039c.2557 4.0078-3.4839 6.7432-1.8219 4.9938l-21.5851 24.9585c-.9375 1.6964-.5114-.9335.1705-5.2589l-.0852-3.4776c0-2.8108-1.1966-8.1884 4.0061-7.9732z" fill="url(#e)" stroke="url(#d)"/><path d="m24.8197 33.4469 21.4133 5.4235c2.7826 0 3.023 1.3138 3.023 4.1001v11.8561c0 2.7863-1.906 4.1465-6.6925 2.3807l-21.0817-7.0484c-4.4508-1.5186-3.4642-10.2416-3.4639-11.3515v-5.3605c0-2.7863 4.0192 0 6.8018 0z" fill="url(#g)" stroke="url(#f)"/><path d="m49.6396 32.001 13.2643-10.3693-15.0862-2.1788-14.3989 8.922z" fill="#f9cc3e" stroke-width=".2"/><path d="m29.0043 31.477 6.0419 1.4791c2.7426.6714 4.419 3.4282 3.7444 6.1576l-.2149.869c-.6746 2.7293-1.8976 4.994-4.6402 4.3226l-8.7577-2.5764c-2.7425-.6714-3.2504-2.9273-2.5757-5.6566l.2148-.869c.6746-2.7294 3.4449-4.3977 6.1874-3.7263z" fill="#ddb637" stroke="#b29331"/><path d="m46.9228 15.3019-30.0018 16.7945 32.5268 9.0811 25.2501-22.3926zm.6552 2.8786 18.9855 2.5287-16.5724 12.914-20.2853-4.4955z" fill="#ddb637" stroke="#ddb637" stroke-width="3"/><path d="m62.8932 21.0486-15.182-2.0039-14.6387 8.7153.6305.1355 14.0721-8.5963 14.7796 2.0013z" fill="#967d2d" stroke="#b29331"/><path d="m22.9085 35.8286 15.5656 4.3576" fill="none" stroke="#6c5b24"/><path d="m22.8126 36.1944 15.5656 4.3577" fill="none" stroke="#b29331"/></g></svg>