<?xml version="1.0" encoding="utf-8"?>
<!DOCTYPE svg PUBLIC "-//W3C//DTD SVG 1.1//EN" "http://www.w3.org/Graphics/SVG/1.1/DTD/svg11.dtd">
<svg xmlns="http://www.w3.org/2000/svg" xmlns:xlink="http://www.w3.org/1999/xlink" version="1.1" baseProfile="full" width="257" height="257" viewBox="0 0 257.00 257.00" enable-background="new 0 0 257.00 257.00" xml:space="preserve">
	<linearGradient id="SVGID_Fill1_" gradientUnits="objectBoundingBox" x1="0.184396" y1="0.16013" x2="1.11201" y2="0.16013" gradientTransform="rotate(56.681362 0.184396 0.160130)">
		<stop offset="0" stop-color="#B7C0B8" stop-opacity="1"/>
		<stop offset="1" stop-color="#FFFFFF" stop-opacity="1"/>
	</linearGradient>
	<path fill="url(#SVGID_Fill1_)" stroke-width="5" stroke-linejoin="round" stroke="#036400" stroke-opacity="1" d="M 18.7794,6.1232L 208.779,6.1232C 210.989,6.1232 212.779,7.91422 212.779,10.1232L 212.779,237.457C 212.779,239.666 210.989,241.457 208.779,241.457L 18.7794,241.457C 16.5703,241.457 14.7794,239.666 14.7794,237.457L 14.7794,10.1232C 14.7794,7.91422 16.5703,6.1232 18.7794,6.1232 Z "/>
	<linearGradient id="SVGID_Stroke1_" gradientUnits="objectBoundingBox" x1="0.5" y1="2.50635" x2="4.51269" y2="2.50635" gradientTransform="rotate(-90.000000 0.500000 2.506347)">
		<stop offset="0" stop-color="#87AF06" stop-opacity="1"/>
		<stop offset="1" stop-color="#AFD27B" stop-opacity="1"/>
	</linearGradient>
	<linearGradient id="SVGID_Fill2_" gradientUnits="objectBoundingBox" x1="0.5" y1="2.61846" x2="4.73691" y2="2.61846" gradientTransform="rotate(-90.000000 0.500000 2.618458)">
		<stop offset="0" stop-color="#F4F5F3" stop-opacity="1"/>
		<stop offset="1" stop-color="#B7BDB0" stop-opacity="1"/>
	</linearGradient>
	<path fill="url(#SVGID_Fill2_)" stroke-width="2" stroke-linejoin="round" stroke="url(#SVGID_Stroke1_)" d="M 40.2794,23.1234L 188.279,23.1234C 190.489,23.1234 192.279,24.9142 192.279,27.1234L 192.279,54.9157C 192.279,57.1249 190.489,58.9157 188.279,58.9157L 40.2794,58.9157C 38.0703,58.9157 36.2794,57.1249 36.2794,54.9157L 36.2794,27.1234C 36.2794,24.9142 38.0703,23.1234 40.2794,23.1234 Z "/>
	<linearGradient id="SVGID_Stroke2_" gradientUnits="objectBoundingBox" x1="0.5" y1="2.50634" x2="4.51269" y2="2.50634" gradientTransform="rotate(-90.000000 0.500000 2.506341)">
		<stop offset="0" stop-color="#87AF06" stop-opacity="1"/>
		<stop offset="1" stop-color="#AFD27B" stop-opacity="1"/>
	</linearGradient>
	<linearGradient id="SVGID_Fill3_" gradientUnits="objectBoundingBox" x1="0.5" y1="2.61845" x2="4.73691" y2="2.61845" gradientTransform="rotate(-90.000000 0.500000 2.618451)">
		<stop offset="0" stop-color="#F4F5F3" stop-opacity="1"/>
		<stop offset="1" stop-color="#E5F8C9" stop-opacity="1"/>
	</linearGradient>
	<path fill="url(#SVGID_Fill3_)" stroke-width="2" stroke-linejoin="round" stroke="url(#SVGID_Stroke2_)" d="M 40.2794,63.8615L 188.279,63.8615C 190.489,63.8615 192.279,65.652 192.279,67.8612L 192.279,95.6535C 192.279,97.8627 190.489,99.6537 188.279,99.6537L 40.2794,99.6537C 38.0703,99.6537 36.2794,97.8627 36.2794,95.6535L 36.2794,67.8612C 36.2794,65.652 38.0703,63.8615 40.2794,63.8615 Z "/>
	<linearGradient id="SVGID_Stroke3_" gradientUnits="objectBoundingBox" x1="0.5" y1="2.50634" x2="4.51268" y2="2.50634" gradientTransform="rotate(-90.000000 0.500000 2.506341)">
		<stop offset="0" stop-color="#87AF06" stop-opacity="1"/>
		<stop offset="1" stop-color="#AFD27B" stop-opacity="1"/>
	</linearGradient>
	<linearGradient id="SVGID_Fill4_" gradientUnits="objectBoundingBox" x1="0.5" y1="2.61845" x2="4.7369" y2="2.61845" gradientTransform="rotate(-90.000000 0.500000 2.618451)">
		<stop offset="0" stop-color="#F4F5F3" stop-opacity="1"/>
		<stop offset="1" stop-color="#B7BDB0" stop-opacity="1"/>
	</linearGradient>
	<path fill="url(#SVGID_Fill4_)" stroke-width="2" stroke-linejoin="round" stroke="url(#SVGID_Stroke3_)" d="M 40.7794,105.306L 188.779,105.306C 190.989,105.306 192.779,107.096 192.779,109.306L 192.779,137.098C 192.779,139.307 190.989,141.098 188.779,141.098L 40.7794,141.098C 38.5703,141.098 36.7794,139.307 36.7794,137.098L 36.7794,109.306C 36.7794,107.096 38.5703,105.306 40.7794,105.306 Z "/>
	<linearGradient id="SVGID_Stroke4_" gradientUnits="objectBoundingBox" x1="0.5" y1="2.50634" x2="4.51268" y2="2.50634" gradientTransform="rotate(-90.000000 0.500000 2.506341)">
		<stop offset="0" stop-color="#87AF06" stop-opacity="1"/>
		<stop offset="1" stop-color="#AFD27B" stop-opacity="1"/>
	</linearGradient>
	<linearGradient id="SVGID_Fill5_" gradientUnits="objectBoundingBox" x1="0.5" y1="2.61845" x2="4.7369" y2="2.61845" gradientTransform="rotate(-90.000000 0.500000 2.618451)">
		<stop offset="0" stop-color="#F4F5F3" stop-opacity="1"/>
		<stop offset="1" stop-color="#E5F8C9" stop-opacity="1"/>
	</linearGradient>
	<path fill="url(#SVGID_Fill5_)" stroke-width="2" stroke-linejoin="round" stroke="url(#SVGID_Stroke4_)" d="M 41.1128,146.122L 189.113,146.122C 191.322,146.122 193.113,147.913 193.113,150.122L 193.113,177.914C 193.113,180.123 191.322,181.914 189.113,181.914L 41.1128,181.914C 38.9036,181.914 37.1128,180.123 37.1128,177.914L 37.1128,150.122C 37.1128,147.913 38.9036,146.122 41.1128,146.122 Z "/>
	<linearGradient id="SVGID_Stroke5_" gradientUnits="objectBoundingBox" x1="0.5" y1="2.50632" x2="4.51266" y2="2.50632" gradientTransform="rotate(-90.000000 0.500000 2.506324)">
		<stop offset="0" stop-color="#87AF06" stop-opacity="1"/>
		<stop offset="1" stop-color="#AFD27B" stop-opacity="1"/>
	</linearGradient>
	<linearGradient id="SVGID_Fill6_" gradientUnits="objectBoundingBox" x1="0.5" y1="2.61843" x2="4.73688" y2="2.61843" gradientTransform="rotate(-90.000000 0.500000 2.618433)">
		<stop offset="0" stop-color="#F4F5F3" stop-opacity="1"/>
		<stop offset="1" stop-color="#B7BDB0" stop-opacity="1"/>
	</linearGradient>
	<path fill="url(#SVGID_Fill6_)" stroke-width="2" stroke-linejoin="round" stroke="url(#SVGID_Stroke5_)" d="M 40.7794,187.331L 188.779,187.331C 190.989,187.331 192.779,189.121 192.779,191.331L 192.779,219.123C 192.779,221.332 190.989,223.123 188.779,223.123L 40.7794,223.123C 38.5703,223.123 36.7794,221.332 36.7794,219.123L 36.7794,191.331C 36.7794,189.121 38.5703,187.331 40.7794,187.331 Z "/>
	<linearGradient id="SVGID_Stroke6_" gradientUnits="objectBoundingBox" x1="0.5" y1="2.51429" x2="4.52863" y2="2.51429" gradientTransform="rotate(-90.000000 0.500000 2.514293)">
		<stop offset="0" stop-color="#3F542A" stop-opacity="1"/>
		<stop offset="0.474419" stop-color="#D0D5CB" stop-opacity="1"/>
		<stop offset="1" stop-color="#0F1505" stop-opacity="1"/>
	</linearGradient>
	<linearGradient id="SVGID_Fill7_" gradientUnits="objectBoundingBox" x1="0.5" y1="2.70314" x2="4.90632" y2="2.70314" gradientTransform="rotate(-90.000000 0.500000 2.703136)">
		<stop offset="0" stop-color="#DAF5BF" stop-opacity="1"/>
		<stop offset="1" stop-color="#1D2314" stop-opacity="1"/>
	</linearGradient>
	<filter id="Filter_GaussianBlur1_" filterUnits="userSpaceOnUse">
		<feGaussianBlur stdDeviation="2.64567"/>
	</filter>
	<path fill="url(#SVGID_Fill7_)" stroke-linejoin="round" stroke="url(#SVGID_Stroke6_)" filter="url(#Filter_GaussianBlur1_)" d="M 52.1128,36.2902L 90.1128,36.2902C 91.2173,36.2902 92.1128,37.1857 92.1128,38.2902L 92.1128,44.9567C 92.1128,46.0612 91.2173,46.9567 90.1128,46.9567L 52.1128,46.9567C 51.0081,46.9567 50.1128,46.0612 50.1128,44.9567L 50.1128,38.2902C 50.1128,37.1857 51.0081,36.2902 52.1128,36.2902 Z "/>
	<linearGradient id="SVGID_Stroke7_" gradientUnits="objectBoundingBox" x1="0.5" y1="2.51431" x2="4.52863" y2="2.51431" gradientTransform="rotate(-90.000000 0.500000 2.514314)">
		<stop offset="0" stop-color="#3F542A" stop-opacity="1"/>
		<stop offset="0.474419" stop-color="#D0D5CB" stop-opacity="1"/>
		<stop offset="1" stop-color="#0F1505" stop-opacity="1"/>
	</linearGradient>
	<linearGradient id="SVGID_Fill8_" gradientUnits="objectBoundingBox" x1="0.5" y1="2.70316" x2="4.90632" y2="2.70316" gradientTransform="rotate(-90.000000 0.500000 2.703159)">
		<stop offset="0" stop-color="#DAF5BF" stop-opacity="1"/>
		<stop offset="1" stop-color="#1D2314" stop-opacity="1"/>
	</linearGradient>
	<filter id="Filter_GaussianBlur2_" filterUnits="userSpaceOnUse">
		<feGaussianBlur stdDeviation="3.02362"/>
	</filter>
	<path fill="url(#SVGID_Fill8_)" stroke-linejoin="round" stroke="url(#SVGID_Stroke7_)" filter="url(#Filter_GaussianBlur2_)" d="M 99.946,36.0817L 127.696,36.0817C 128.801,36.0817 129.696,36.9772 129.696,38.0817L 129.696,44.7482C 129.696,45.8527 128.801,46.7482 127.696,46.7482L 99.946,46.7482C 98.8414,46.7482 97.946,45.8527 97.946,44.7482L 97.946,38.0817C 97.946,36.9772 98.8414,36.0817 99.946,36.0817 Z "/>
	<linearGradient id="SVGID_Stroke8_" gradientUnits="objectBoundingBox" x1="0.5" y1="2.51426" x2="4.52854" y2="2.51426" gradientTransform="rotate(-90.000000 0.500000 2.514261)">
		<stop offset="0" stop-color="#3F542A" stop-opacity="1"/>
		<stop offset="0.474419" stop-color="#D0D5CB" stop-opacity="1"/>
		<stop offset="1" stop-color="#0F1505" stop-opacity="1"/>
	</linearGradient>
	<linearGradient id="SVGID_Fill9_" gradientUnits="objectBoundingBox" x1="0.5" y1="2.7031" x2="4.90622" y2="2.7031" gradientTransform="rotate(-90.000000 0.500000 2.703097)">
		<stop offset="0" stop-color="#DAF5BF" stop-opacity="1"/>
		<stop offset="1" stop-color="#1D2314" stop-opacity="1"/>
	</linearGradient>
	<filter id="Filter_GaussianBlur3_" filterUnits="userSpaceOnUse">
		<feGaussianBlur stdDeviation="3.02362"/>
	</filter>
	<path fill="url(#SVGID_Fill9_)" stroke-linejoin="round" stroke="url(#SVGID_Stroke8_)" filter="url(#Filter_GaussianBlur3_)" d="M 138.029,36.1234L 176.029,36.1234C 177.134,36.1234 178.029,37.019 178.029,38.1234L 178.029,44.7902C 178.029,45.8947 177.134,46.7902 176.029,46.7902L 138.029,46.7902C 136.925,46.7902 136.029,45.8947 136.029,44.7902L 136.029,38.1234C 136.029,37.019 136.925,36.1234 138.029,36.1234 Z "/>
	<linearGradient id="SVGID_Stroke9_" gradientUnits="objectBoundingBox" x1="0.5" y1="2.51429" x2="4.52863" y2="2.51429" gradientTransform="rotate(-90.000000 0.500000 2.514293)">
		<stop offset="0" stop-color="#3F542A" stop-opacity="1"/>
		<stop offset="0.474419" stop-color="#D0D5CB" stop-opacity="1"/>
		<stop offset="1" stop-color="#0F1505" stop-opacity="1"/>
	</linearGradient>
	<linearGradient id="SVGID_Fill10_" gradientUnits="objectBoundingBox" x1="0.5" y1="2.70314" x2="4.90632" y2="2.70314" gradientTransform="rotate(-90.000000 0.500000 2.703136)">
		<stop offset="0" stop-color="#DAF5BF" stop-opacity="1"/>
		<stop offset="1" stop-color="#1D2314" stop-opacity="1"/>
	</linearGradient>
	<filter id="Filter_GaussianBlur4_" filterUnits="userSpaceOnUse">
		<feGaussianBlur stdDeviation="2.64567"/>
	</filter>
	<path fill="url(#SVGID_Fill10_)" stroke-linejoin="round" stroke="url(#SVGID_Stroke9_)" filter="url(#Filter_GaussianBlur4_)" d="M 51.0353,117.821L 89.0353,117.821C 90.1398,117.821 91.0353,118.717 91.0353,119.821L 91.0353,126.488C 91.0353,127.592 90.1398,128.488 89.0353,128.488L 51.0353,128.488C 49.9307,128.488 49.0353,127.592 49.0353,126.488L 49.0353,119.821C 49.0353,118.717 49.9307,117.821 51.0353,117.821 Z "/>
	<linearGradient id="SVGID_Stroke10_" gradientUnits="objectBoundingBox" x1="0.5" y1="2.51431" x2="4.52863" y2="2.51431" gradientTransform="rotate(-90.000000 0.500000 2.514314)">
		<stop offset="0" stop-color="#3F542A" stop-opacity="1"/>
		<stop offset="0.474419" stop-color="#D0D5CB" stop-opacity="1"/>
		<stop offset="1" stop-color="#0F1505" stop-opacity="1"/>
	</linearGradient>
	<linearGradient id="SVGID_Fill11_" gradientUnits="objectBoundingBox" x1="0.5" y1="2.70316" x2="4.90632" y2="2.70316" gradientTransform="rotate(-90.000000 0.500000 2.703159)">
		<stop offset="0" stop-color="#DAF5BF" stop-opacity="1"/>
		<stop offset="1" stop-color="#1D2314" stop-opacity="1"/>
	</linearGradient>
	<filter id="Filter_GaussianBlur5_" filterUnits="userSpaceOnUse">
		<feGaussianBlur stdDeviation="3.02362"/>
	</filter>
	<path fill="url(#SVGID_Fill11_)" stroke-linejoin="round" stroke="url(#SVGID_Stroke10_)" filter="url(#Filter_GaussianBlur5_)" d="M 98.8687,117.613L 126.619,117.613C 127.723,117.613 128.619,118.508 128.619,119.613L 128.619,126.279C 128.619,127.384 127.723,128.279 126.619,128.279L 98.8687,128.279C 97.7639,128.279 96.8687,127.384 96.8687,126.279L 96.8687,119.613C 96.8687,118.508 97.7639,117.613 98.8687,117.613 Z "/>
	<linearGradient id="SVGID_Stroke11_" gradientUnits="objectBoundingBox" x1="0.5" y1="2.51426" x2="4.52854" y2="2.51426" gradientTransform="rotate(-90.000000 0.500000 2.514261)">
		<stop offset="0" stop-color="#3F542A" stop-opacity="1"/>
		<stop offset="0.474419" stop-color="#D0D5CB" stop-opacity="1"/>
		<stop offset="1" stop-color="#0F1505" stop-opacity="1"/>
	</linearGradient>
	<linearGradient id="SVGID_Fill12_" gradientUnits="objectBoundingBox" x1="0.5" y1="2.7031" x2="4.90622" y2="2.7031" gradientTransform="rotate(-90.000000 0.500000 2.703097)">
		<stop offset="0" stop-color="#DAF5BF" stop-opacity="1"/>
		<stop offset="1" stop-color="#1D2314" stop-opacity="1"/>
	</linearGradient>
	<filter id="Filter_GaussianBlur6_" filterUnits="userSpaceOnUse">
		<feGaussianBlur stdDeviation="3.02362"/>
	</filter>
	<path fill="url(#SVGID_Fill12_)" stroke-linejoin="round" stroke="url(#SVGID_Stroke11_)" filter="url(#Filter_GaussianBlur6_)" d="M 136.952,117.655L 174.952,117.655C 176.056,117.655 176.952,118.55 176.952,119.655L 176.952,126.321C 176.952,127.426 176.056,128.321 174.952,128.321L 136.952,128.321C 135.847,128.321 134.952,127.426 134.952,126.321L 134.952,119.655C 134.952,118.55 135.847,117.655 136.952,117.655 Z "/>
	<linearGradient id="SVGID_Stroke12_" gradientUnits="objectBoundingBox" x1="0.5" y1="2.51429" x2="4.52863" y2="2.51429" gradientTransform="rotate(-90.000000 0.500000 2.514293)">
		<stop offset="0" stop-color="#3F542A" stop-opacity="1"/>
		<stop offset="0.474419" stop-color="#D0D5CB" stop-opacity="1"/>
		<stop offset="1" stop-color="#0F1505" stop-opacity="1"/>
	</linearGradient>
	<linearGradient id="SVGID_Fill13_" gradientUnits="objectBoundingBox" x1="0.5" y1="2.70314" x2="4.90632" y2="2.70314" gradientTransform="rotate(-90.000000 0.500000 2.703136)">
		<stop offset="0" stop-color="#DAF5BF" stop-opacity="1"/>
		<stop offset="1" stop-color="#1D2314" stop-opacity="1"/>
	</linearGradient>
	<filter id="Filter_GaussianBlur7_" filterUnits="userSpaceOnUse">
		<feGaussianBlur stdDeviation="2.64567"/>
	</filter>
	<path fill="url(#SVGID_Fill13_)" stroke-linejoin="round" stroke="url(#SVGID_Stroke12_)" filter="url(#Filter_GaussianBlur7_)" d="M 52.0353,199.821L 90.0353,199.821C 91.1398,199.821 92.0353,200.717 92.0353,201.821L 92.0353,208.488C 92.0353,209.592 91.1398,210.488 90.0353,210.488L 52.0353,210.488C 50.9307,210.488 50.0353,209.592 50.0353,208.488L 50.0353,201.821C 50.0353,200.717 50.9307,199.821 52.0353,199.821 Z "/>
	<linearGradient id="SVGID_Stroke13_" gradientUnits="objectBoundingBox" x1="0.5" y1="2.51431" x2="4.52863" y2="2.51431" gradientTransform="rotate(-90.000000 0.500000 2.514314)">
		<stop offset="0" stop-color="#3F542A" stop-opacity="1"/>
		<stop offset="0.474419" stop-color="#D0D5CB" stop-opacity="1"/>
		<stop offset="1" stop-color="#0F1505" stop-opacity="1"/>
	</linearGradient>
	<linearGradient id="SVGID_Fill14_" gradientUnits="objectBoundingBox" x1="0.5" y1="2.70316" x2="4.90632" y2="2.70316" gradientTransform="rotate(-90.000000 0.500000 2.703159)">
		<stop offset="0" stop-color="#DAF5BF" stop-opacity="1"/>
		<stop offset="1" stop-color="#1D2314" stop-opacity="1"/>
	</linearGradient>
	<filter id="Filter_GaussianBlur8_" filterUnits="userSpaceOnUse">
		<feGaussianBlur stdDeviation="3.02362"/>
	</filter>
	<path fill="url(#SVGID_Fill14_)" stroke-linejoin="round" stroke="url(#SVGID_Stroke13_)" filter="url(#Filter_GaussianBlur8_)" d="M 99.8687,199.613L 127.619,199.613C 128.723,199.613 129.619,200.508 129.619,201.613L 129.619,208.279C 129.619,209.384 128.723,210.279 127.619,210.279L 99.8687,210.279C 98.7639,210.279 97.8687,209.384 97.8687,208.279L 97.8687,201.613C 97.8687,200.508 98.7639,199.613 99.8687,199.613 Z "/>
	<linearGradient id="SVGID_Stroke14_" gradientUnits="objectBoundingBox" x1="0.5" y1="2.51426" x2="4.52854" y2="2.51426" gradientTransform="rotate(-90.000000 0.500000 2.514261)">
		<stop offset="0" stop-color="#3F542A" stop-opacity="1"/>
		<stop offset="0.474419" stop-color="#D0D5CB" stop-opacity="1"/>
		<stop offset="1" stop-color="#0F1505" stop-opacity="1"/>
	</linearGradient>
	<linearGradient id="SVGID_Fill15_" gradientUnits="objectBoundingBox" x1="0.5" y1="2.7031" x2="4.90622" y2="2.7031" gradientTransform="rotate(-90.000000 0.500000 2.703097)">
		<stop offset="0" stop-color="#DAF5BF" stop-opacity="1"/>
		<stop offset="1" stop-color="#1D2314" stop-opacity="1"/>
	</linearGradient>
	<filter id="Filter_GaussianBlur9_" filterUnits="userSpaceOnUse">
		<feGaussianBlur stdDeviation="3.02362"/>
	</filter>
	<path fill="url(#SVGID_Fill15_)" stroke-linejoin="round" stroke="url(#SVGID_Stroke14_)" filter="url(#Filter_GaussianBlur9_)" d="M 137.952,199.655L 175.952,199.655C 177.056,199.655 177.952,200.55 177.952,201.655L 177.952,208.321C 177.952,209.426 177.056,210.321 175.952,210.321L 137.952,210.321C 136.847,210.321 135.952,209.426 135.952,208.321L 135.952,201.655C 135.952,200.55 136.847,199.655 137.952,199.655 Z "/>
	<linearGradient id="SVGID_Stroke15_" gradientUnits="objectBoundingBox" x1="0.499999" y1="2.51425" x2="4.52863" y2="2.51425" gradientTransform="rotate(-90.000000 0.499999 2.514251)">
		<stop offset="0" stop-color="#3F542A" stop-opacity="1"/>
		<stop offset="0.474419" stop-color="#D0D5CB" stop-opacity="1"/>
		<stop offset="1" stop-color="#0F1505" stop-opacity="1"/>
	</linearGradient>
	<linearGradient id="SVGID_Fill16_" gradientUnits="objectBoundingBox" x1="0.499998" y1="2.70309" x2="4.90632" y2="2.70309" gradientTransform="rotate(-90.000000 0.499998 2.703090)">
		<stop offset="0" stop-color="#DAF5BF" stop-opacity="1"/>
		<stop offset="1" stop-color="#1D2314" stop-opacity="1"/>
	</linearGradient>
	<filter id="Filter_GaussianBlur10_" filterUnits="userSpaceOnUse">
		<feGaussianBlur stdDeviation="2.64567"/>
	</filter>
	<path fill="url(#SVGID_Fill16_)" stroke-linejoin="round" stroke="url(#SVGID_Stroke15_)" filter="url(#Filter_GaussianBlur10_)" d="M 73.0353,78.4887L 109.196,78.4887C 110.3,78.4887 111.196,79.3842 111.196,80.4887L 111.196,87.1552C 111.196,88.2597 110.3,89.1552 109.196,89.1552L 73.0353,89.1552C 71.9307,89.1552 71.0353,88.2597 71.0353,87.1552L 71.0353,80.4887C 71.0353,79.3842 71.9307,78.4887 73.0353,78.4887 Z "/>
	<linearGradient id="SVGID_Stroke16_" gradientUnits="objectBoundingBox" x1="0.500002" y1="2.5143" x2="4.52855" y2="2.5143" gradientTransform="rotate(-90.000000 0.500002 2.514303)">
		<stop offset="0" stop-color="#3F542A" stop-opacity="1"/>
		<stop offset="0.474419" stop-color="#D0D5CB" stop-opacity="1"/>
		<stop offset="1" stop-color="#0F1505" stop-opacity="1"/>
	</linearGradient>
	<linearGradient id="SVGID_Fill17_" gradientUnits="objectBoundingBox" x1="0.500002" y1="2.70314" x2="4.90622" y2="2.70314" gradientTransform="rotate(-90.000000 0.500002 2.703142)">
		<stop offset="0" stop-color="#DAF5BF" stop-opacity="1"/>
		<stop offset="1" stop-color="#1D2314" stop-opacity="1"/>
	</linearGradient>
	<filter id="Filter_GaussianBlur11_" filterUnits="userSpaceOnUse">
		<feGaussianBlur stdDeviation="3.02362"/>
	</filter>
	<path fill="url(#SVGID_Fill17_)" stroke-linejoin="round" stroke="url(#SVGID_Stroke16_)" filter="url(#Filter_GaussianBlur11_)" d="M 122.862,78.2792L 153.195,78.2792C 154.3,78.2792 155.195,79.1747 155.195,80.2792L 155.195,86.946C 155.195,88.0504 154.3,88.946 153.195,88.946L 122.862,88.946C 121.758,88.946 120.862,88.0504 120.862,86.946L 120.862,80.2792C 120.862,79.1747 121.758,78.2792 122.862,78.2792 Z "/>
	<linearGradient id="SVGID_Stroke17_" gradientUnits="objectBoundingBox" x1="0.500003" y1="2.51425" x2="4.52863" y2="2.51425" gradientTransform="rotate(-90.000000 0.500003 2.514251)">
		<stop offset="0" stop-color="#3F542A" stop-opacity="1"/>
		<stop offset="0.474419" stop-color="#D0D5CB" stop-opacity="1"/>
		<stop offset="1" stop-color="#0F1505" stop-opacity="1"/>
	</linearGradient>
	<linearGradient id="SVGID_Fill18_" gradientUnits="objectBoundingBox" x1="0.500003" y1="2.70309" x2="4.90632" y2="2.70309" gradientTransform="rotate(-90.000000 0.500003 2.703090)">
		<stop offset="0" stop-color="#DAF5BF" stop-opacity="1"/>
		<stop offset="1" stop-color="#1D2314" stop-opacity="1"/>
	</linearGradient>
	<filter id="Filter_GaussianBlur12_" filterUnits="userSpaceOnUse">
		<feGaussianBlur stdDeviation="3.02362"/>
	</filter>
	<path fill="url(#SVGID_Fill18_)" stroke-linejoin="round" stroke="url(#SVGID_Stroke17_)" filter="url(#Filter_GaussianBlur12_)" d="M 162.029,78.3219L 176.696,78.3219C 177.8,78.3219 178.696,79.2174 178.696,80.3219L 178.696,86.9884C 178.696,88.0929 177.8,88.9884 176.696,88.9884L 162.029,88.9884C 160.924,88.9884 160.029,88.0929 160.029,86.9884L 160.029,80.3219C 160.029,79.2174 160.924,78.3219 162.029,78.3219 Z "/>
	<linearGradient id="SVGID_Stroke18_" gradientUnits="objectBoundingBox" x1="0.5" y1="2.51425" x2="4.52846" y2="2.51425" gradientTransform="rotate(-90.000000 0.500000 2.514251)">
		<stop offset="0" stop-color="#3F542A" stop-opacity="1"/>
		<stop offset="0.474419" stop-color="#D0D5CB" stop-opacity="1"/>
		<stop offset="1" stop-color="#0F1505" stop-opacity="1"/>
	</linearGradient>
	<linearGradient id="SVGID_Fill19_" gradientUnits="objectBoundingBox" x1="0.5" y1="2.70308" x2="4.90612" y2="2.70308" gradientTransform="rotate(-90.000000 0.500000 2.703081)">
		<stop offset="0" stop-color="#DAF5BF" stop-opacity="1"/>
		<stop offset="1" stop-color="#1D2314" stop-opacity="1"/>
	</linearGradient>
	<filter id="Filter_GaussianBlur13_" filterUnits="userSpaceOnUse">
		<feGaussianBlur stdDeviation="3.02362"/>
	</filter>
	<path fill="url(#SVGID_Fill19_)" stroke-linejoin="round" stroke="url(#SVGID_Stroke18_)" filter="url(#Filter_GaussianBlur13_)" d="M 51.5911,78.6637L 64.1956,78.6637C 65.3,78.6637 66.1956,79.5592 66.1956,80.6637L 66.1956,87.3307C 66.1956,88.4352 65.3,89.3307 64.1956,89.3307L 51.5911,89.3307C 50.4866,89.3307 49.5911,88.4352 49.5911,87.3307L 49.5911,80.6637C 49.5911,79.5592 50.4866,78.6637 51.5911,78.6637 Z "/>
	<linearGradient id="SVGID_Stroke19_" gradientUnits="objectBoundingBox" x1="0.499997" y1="2.51425" x2="4.52862" y2="2.51425" gradientTransform="rotate(-90.000000 0.499997 2.514251)">
		<stop offset="0" stop-color="#3F542A" stop-opacity="1"/>
		<stop offset="0.474419" stop-color="#D0D5CB" stop-opacity="1"/>
		<stop offset="1" stop-color="#0F1505" stop-opacity="1"/>
	</linearGradient>
	<linearGradient id="SVGID_Fill20_" gradientUnits="objectBoundingBox" x1="0.499997" y1="2.70309" x2="4.90631" y2="2.70309" gradientTransform="rotate(-90.000000 0.499997 2.703090)">
		<stop offset="0" stop-color="#DAF5BF" stop-opacity="1"/>
		<stop offset="1" stop-color="#1D2314" stop-opacity="1"/>
	</linearGradient>
	<filter id="Filter_GaussianBlur14_" filterUnits="userSpaceOnUse">
		<feGaussianBlur stdDeviation="2.64567"/>
	</filter>
	<path fill="url(#SVGID_Fill20_)" stroke-linejoin="round" stroke="url(#SVGID_Stroke19_)" filter="url(#Filter_GaussianBlur14_)" d="M 72.9578,158.687L 109.118,158.687C 110.223,158.687 111.118,159.582 111.118,160.687L 111.118,167.353C 111.118,168.458 110.223,169.353 109.118,169.353L 72.9578,169.353C 71.8531,169.353 70.9578,168.458 70.9578,167.353L 70.9578,160.687C 70.9578,159.582 71.8531,158.687 72.9578,158.687 Z "/>
	<linearGradient id="SVGID_Stroke20_" gradientUnits="objectBoundingBox" x1="0.5" y1="2.51428" x2="4.52854" y2="2.51428" gradientTransform="rotate(-90.000000 0.500000 2.514282)">
		<stop offset="0" stop-color="#3F542A" stop-opacity="1"/>
		<stop offset="0.474419" stop-color="#D0D5CB" stop-opacity="1"/>
		<stop offset="1" stop-color="#0F1505" stop-opacity="1"/>
	</linearGradient>
	<linearGradient id="SVGID_Fill21_" gradientUnits="objectBoundingBox" x1="0.5" y1="2.70312" x2="4.90622" y2="2.70312" gradientTransform="rotate(-90.000000 0.500000 2.703120)">
		<stop offset="0" stop-color="#DAF5BF" stop-opacity="1"/>
		<stop offset="1" stop-color="#1D2314" stop-opacity="1"/>
	</linearGradient>
	<filter id="Filter_GaussianBlur15_" filterUnits="userSpaceOnUse">
		<feGaussianBlur stdDeviation="3.02362"/>
	</filter>
	<path fill="url(#SVGID_Fill21_)" stroke-linejoin="round" stroke="url(#SVGID_Stroke20_)" filter="url(#Filter_GaussianBlur15_)" d="M 122.785,158.477L 153.118,158.477C 154.223,158.477 155.118,159.373 155.118,160.477L 155.118,167.144C 155.118,168.248 154.223,169.144 153.118,169.144L 122.785,169.144C 121.68,169.144 120.785,168.248 120.785,167.144L 120.785,160.477C 120.785,159.373 121.68,158.477 122.785,158.477 Z "/>
	<linearGradient id="SVGID_Stroke21_" gradientUnits="objectBoundingBox" x1="0.5" y1="2.5142" x2="4.52854" y2="2.5142" gradientTransform="rotate(-90.000000 0.500000 2.514198)">
		<stop offset="0" stop-color="#3F542A" stop-opacity="1"/>
		<stop offset="0.474419" stop-color="#D0D5CB" stop-opacity="1"/>
		<stop offset="1" stop-color="#0F1505" stop-opacity="1"/>
	</linearGradient>
	<linearGradient id="SVGID_Fill22_" gradientUnits="objectBoundingBox" x1="0.5" y1="2.70303" x2="4.90622" y2="2.70303" gradientTransform="rotate(-90.000000 0.500000 2.703028)">
		<stop offset="0" stop-color="#DAF5BF" stop-opacity="1"/>
		<stop offset="1" stop-color="#1D2314" stop-opacity="1"/>
	</linearGradient>
	<filter id="Filter_GaussianBlur16_" filterUnits="userSpaceOnUse">
		<feGaussianBlur stdDeviation="3.02362"/>
	</filter>
	<path fill="url(#SVGID_Fill22_)" stroke-linejoin="round" stroke="url(#SVGID_Stroke21_)" filter="url(#Filter_GaussianBlur16_)" d="M 161.951,158.52L 176.618,158.52C 177.723,158.52 178.618,159.415 178.618,160.52L 178.618,167.187C 178.618,168.291 177.723,169.187 176.618,169.187L 161.951,169.187C 160.847,169.187 159.951,168.291 159.951,167.187L 159.951,160.52C 159.951,159.415 160.847,158.52 161.951,158.52 Z "/>
	<linearGradient id="SVGID_Stroke22_" gradientUnits="objectBoundingBox" x1="0.5" y1="2.5143" x2="4.52854" y2="2.5143" gradientTransform="rotate(-90.000000 0.500000 2.514303)">
		<stop offset="0" stop-color="#3F542A" stop-opacity="1"/>
		<stop offset="0.474419" stop-color="#D0D5CB" stop-opacity="1"/>
		<stop offset="1" stop-color="#0F1505" stop-opacity="1"/>
	</linearGradient>
	<linearGradient id="SVGID_Fill23_" gradientUnits="objectBoundingBox" x1="0.5" y1="2.70314" x2="4.90622" y2="2.70314" gradientTransform="rotate(-90.000000 0.500000 2.703142)">
		<stop offset="0" stop-color="#DAF5BF" stop-opacity="1"/>
		<stop offset="1" stop-color="#1D2314" stop-opacity="1"/>
	</linearGradient>
	<filter id="Filter_GaussianBlur17_" filterUnits="userSpaceOnUse">
		<feGaussianBlur stdDeviation="3.02362"/>
	</filter>
	<path fill="url(#SVGID_Fill23_)" stroke-linejoin="round" stroke="url(#SVGID_Stroke22_)" filter="url(#Filter_GaussianBlur17_)" d="M 51.5137,158.862L 64.1182,158.862C 65.2227,158.862 66.1182,159.757 66.1182,160.862L 66.1182,167.528C 66.1182,168.633 65.2227,169.528 64.1182,169.528L 51.5137,169.528C 50.4092,169.528 49.5137,168.633 49.5137,167.528L 49.5137,160.862C 49.5137,159.757 50.4092,158.862 51.5137,158.862 Z "/>
	<g>
		<linearGradient id="SVGID_Stroke23_" gradientUnits="objectBoundingBox" x1="0.493514" y1="0.15223" x2="1.20354" y2="0.15223" gradientTransform="rotate(90.000000 0.493514 0.152230)">
			<stop offset="0.116279" stop-color="#231E1E" stop-opacity="1"/>
			<stop offset="1" stop-color="#262323" stop-opacity="1"/>
		</linearGradient>
		<linearGradient id="SVGID_Fill24_" gradientUnits="objectBoundingBox" x1="0.493187" y1="0.142983" x2="1.22209" y2="0.142983" gradientTransform="rotate(90.000000 0.493187 0.142983)">
			<stop offset="0.111628" stop-color="#262A27" stop-opacity="1"/>
			<stop offset="1" stop-color="#606561" stop-opacity="1"/>
		</linearGradient>
		<path fill="url(#SVGID_Fill24_)" stroke-width="3" stroke-linejoin="round" stroke="url(#SVGID_Stroke23_)" d="M 193.032,183.012L 240.406,127.581C 240.241,123.294 240.803,125.167 240.803,134.171L 240.961,140.59C 241.596,153.429 232.317,162.192 236.441,156.588L 182.88,236.541C 180.554,241.975 181.611,233.55 183.303,219.694L 183.092,208.554C 183.092,199.55 180.122,182.323 193.032,183.012 Z "/>
		<linearGradient id="SVGID_Stroke24_" gradientUnits="objectBoundingBox" x1="0.354106" y1="1.09059" x2="1.58546" y2="1.09059" gradientTransform="rotate(-71.909500 0.354106 1.090590)">
			<stop offset="0.227907" stop-color="#000000" stop-opacity="1"/>
			<stop offset="1" stop-color="#FFFFFF" stop-opacity="1"/>
		</linearGradient>
		<linearGradient id="SVGID_Fill25_" gradientUnits="objectBoundingBox" x1="0.348476" y1="1.11203" x2="1.62467" y2="1.11203" gradientTransform="rotate(-71.946594 0.348476 1.112035)">
			<stop offset="0.232558" stop-color="#171F18" stop-opacity="1"/>
			<stop offset="1" stop-color="#989D99" stop-opacity="1"/>
		</linearGradient>
		<path fill="url(#SVGID_Fill25_)" stroke-width="3" stroke-linejoin="round" stroke="url(#SVGID_Stroke24_)" d="M 122.139,162.187L 175.273,179.561C 182.178,179.561 182.774,183.769 182.774,192.695L 182.774,230.675C 182.774,239.601 178.045,243.958 166.168,238.302L 113.856,215.723C 102.812,210.858 105.26,182.914 105.261,179.359L 105.261,162.187C 105.261,153.261 115.234,162.187 122.139,162.187 Z "/>
		<path fill="#F9CC3E" fill-opacity="1" stroke-width="0.2" stroke-linejoin="round" d="M 183.871,159.116L 218.639,123.862L 178.334,116.539L 141.694,146.728L 183.871,159.116 Z "/>
		<path fill="#DDB637" fill-opacity="1" stroke-width="3" stroke-linejoin="round" stroke="#B29331" stroke-opacity="1" d="M 132.522,155.876L 147.514,160.614C 154.32,162.765 158.479,171.596 156.805,180.34L 156.272,183.124C 154.598,191.867 151.563,199.122 144.758,196.971L 123.027,188.717C 116.222,186.567 114.962,179.34 116.636,170.597L 117.169,167.813C 118.843,159.07 125.717,153.725 132.522,155.876 Z "/>
		<path fill="#DDB637" fill-opacity="1" stroke-width="9" stroke-linejoin="round" stroke="#DDB637" stroke-opacity="1" d="M 176.984,104.06L 102.539,157.86L 183.25,186.951L 245.905,115.217L 176.984,104.06 Z M 178.61,113.281L 225.72,121.382L 184.598,162.751L 134.263,148.35L 178.61,113.281 Z "/>
		<path fill="#967D2D" fill-opacity="1" stroke-width="3" stroke-linejoin="round" stroke="#B29331" stroke-opacity="1" d="M 217.734,123.044L 178.941,116.05L 141.747,145.56L 142.817,145.841L 179.1,116.866L 217.1,124.068L 217.734,123.044 Z "/>
		<line fill="none" stroke-width="3" stroke-linejoin="round" stroke="#6C5B24" stroke-opacity="1" x1="117.396" y1="169.816" x2="156.02" y2="183.776"/>
		<line fill="none" stroke-linejoin="round" stroke="#B29331" stroke-opacity="1" x1="117.158" y1="170.988" x2="155.782" y2="184.947"/>
	</g>
</svg>
