<svg enable-background="new 0 0 512.00 512.00" height="512" viewBox="0 0 512 512" width="512" xmlns="http://www.w3.org/2000/svg" xmlns:xlink="http://www.w3.org/1999/xlink"><linearGradient id="a" gradientTransform="matrix(0 1 -1 0 .196261 -.803739)" gradientUnits="objectBoundingBox" x1=".5" x2="2.10748" y1="-.303739" y2="-.303739"><stop offset=".133621"/><stop offset=".418103" stop-color="#fff" stop-opacity="0"/></linearGradient><linearGradient id="b" gradientTransform="matrix(0 1 -1 0 -.963542 -1.963542)" gradientUnits="objectBoundingBox" x1=".5" x2="4.42708" y1="-1.46354" y2="-1.46354"><stop offset=".327586" stop-color="#fafcf5"/><stop offset=".577586" stop-color="#fff" stop-opacity="0"/><stop offset="1" stop-color="#1b1c1a" stop-opacity="0"/></linearGradient><linearGradient id="c" gradientTransform="matrix(0 -1 1 0 -2.477293 3.477753)" gradientUnits="objectBoundingBox" x1=".50023" x2="5.48716" y1="2.97752" y2="2.97752"><stop offset=".271552" stop-color="#fafcf5"/><stop offset=".625" stop-color="#fff" stop-opacity="0"/></linearGradient><g stroke-linejoin="round"><path d="m101.458 393.479h308.917c33.137 0 60 26.863 60 60v149.626c0 33.137-26.863 60-60 60h-308.917c-33.1367 0-59.9996-26.863-59.9996-60v-149.626c0-33.137 26.8629-60 59.9996-60z" fill="url(#a)" stroke-width=".2"/><path d="m100.25 122.042h308.917c33.137 0 60 26.863 60 60v149.625c0 33.137-26.863 60-60 60h-308.917c-33.137 0-59.9999-26.863-59.9999-60v-149.625c0-33.137 26.8629-60 59.9999-60z" fill="#829459" stroke="#000" stroke-width="5"/><path d="m110.917 140.792h291c28.995 0 52.5 23.505 52.5 52.5l0 0c0 28.995-23.505 52.5-52.5 52.5h-291c-28.9952 0-52.5002-23.505-52.5002-52.5l0 0c0-28.995 23.505-52.5 52.5002-52.5z" fill="url(#b)" stroke-width=".2"/><path d="m454.917 295.917c.329 2.457 0-2.547 0 23.874 0 30.928-25.072 56-56 56h-285c-30.9281 0-56.0001-25.072-56.0001-56v-23.832c4.0228 32.597 31.8142 57.833 65.5001 57.833h265.001c36.451 0 60.749-30.174 66.499-57.875z" fill="url(#c)" stroke-width=".2"/><path d="m189.47 324.42c-39.998 0-59.997-21.438-59.997-64.313v-.554c.119-42.622 20.189-63.933 60.207-63.933h47.926v22.4h-53.887c-10.484 0-18.312 3.373-23.484 10.12-5.172 6.748-7.758 17.432-7.758 32.055 0 27.883 10.354 41.825 31.063 41.825h53.857v22.4z" fill="#fff" stroke="#fff" stroke-width="6"/><path d="m327.232 195.753c7.542 0 13.961.957 19.258 2.872 5.297 1.916 9.606 4.57 12.928 7.963s5.716 7.379 7.183 11.958c1.466 4.579 2.199 9.523 2.199 14.832 0 4.569-1.147 9.265-3.441 14.087-2.295 4.822-5.996 8.711-11.103 11.667 5.107 3.014 8.808 6.941 11.103 11.783 2.294 4.842 3.441 9.897 3.441 15.167 0 4.783-.733 9.498-2.199 14.146-1.467 4.647-3.861 8.764-7.183 12.352-3.322 3.587-7.601 6.479-12.838 8.677-5.237 2.197-11.687 3.295-19.348 3.295h-65.869v-22.4h69.311c4.469 0 8.11-1.531 10.923-4.593 2.813-3.063 4.22-7.015 4.22-11.856 0-2.042-.414-3.987-1.242-5.834s-1.916-3.471-3.262-4.871c-1.347-1.4-2.913-2.513-4.699-3.339-1.786-.827-3.696-1.24-5.731-1.24h-69.52v-22.4h69.311c4.469 0 8.11-1.453 10.923-4.36s4.22-6.461 4.22-10.661c0-1.983-.414-3.869-1.242-5.658s-1.916-3.364-3.262-4.725c-1.347-1.361-2.913-2.445-4.699-3.252s-3.696-1.21-5.731-1.21h-69.52v-22.4z" stroke="#000" stroke-width="6"/></g></svg>