<svg enable-background="new 0 0 51.00 51.00" height="51" viewBox="0 0 51 51" width="51" xmlns="http://www.w3.org/2000/svg" xmlns:xlink="http://www.w3.org/1999/xlink"><linearGradient id="a" gradientTransform="matrix(-.594020763645 -.804449707787 .804449707787 -.594020763645 .477561809652 1.693659695097)" gradientUnits="objectBoundingBox" x1=".666148" x2="1.22325" y1=".726325" y2=".726325"><stop offset="0" stop-color="#afb6af"/><stop offset="1" stop-color="#fff"/></linearGradient><path d="m5.5.499977h40c2.7614 0 5 2.238573 5 4.999983v40.00004c0 2.7614-2.2386 5-5 5h-40c-2.76143 0-5-2.2386-5-5v-40.00004c0-2.76141 2.23857-4.999983 5-4.999983z" fill="#fff" stroke="#000" stroke-linejoin="round"/><path d="m23.1642 24.077c4.3603-4.1094 12.7891-11.7518 17.3889-15.52087 4.5998-3.76909 5.3707-3.66493 5.915-3.10503.5442.55989.8619 1.57552-3.5304 8.4766-4.3924 6.901-13.4948 19.6875-18.421 26.289-4.9262 6.6016-5.6762 7.0182-6.3985 6.9766-.7222-.0417-1.4166-.5417-3.73-4.2266s-6.24567-10.5547-8.32379-14.7343c-2.07813-4.1797-2.30208-5.6693-1.7526-6.2865.54947-.6172 1.87239-.362 4.31945 1.0156 2.44704 1.3776 6.01824 3.8776 7.94964 4.8394s2.2231.3854 6.5833-3.7239z" fill="url(#a)" stroke="#888" stroke-linejoin="round"/></svg>