<?xml version="1.0" encoding="utf-8"?>
<!DOCTYPE svg PUBLIC "-//W3C//DTD SVG 1.1//EN" "http://www.w3.org/Graphics/SVG/1.1/DTD/svg11.dtd">
<svg xmlns="http://www.w3.org/2000/svg" xmlns:xlink="http://www.w3.org/1999/xlink" version="1.1" baseProfile="full" width="51" height="51" viewBox="0 0 51.00 51.00" enable-background="new 0 0 51.00 51.00" xml:space="preserve">
	<path fill="#FFFFFF" fill-opacity="1" stroke-linejoin="round" stroke="#000000" stroke-opacity="1" d="M 5.5,0.499977L 45.5,0.499977C 48.2614,0.499977 50.5,2.73855 50.5,5.49996L 50.5,45.5C 50.5,48.2614 48.2614,50.5 45.5,50.5L 5.5,50.5C 2.73857,50.5 0.5,48.2614 0.5,45.5L 0.5,5.49996C 0.5,2.73855 2.73857,0.499977 5.5,0.499977 Z "/>
	<linearGradient id="SVGID_Fill1_" gradientUnits="objectBoundingBox" x1="0.666148" y1="0.726325" x2="1.22325" y2="0.726325" gradientTransform="rotate(233.557144 0.666148 0.726325)">
		<stop offset="0" stop-color="#AFB6AF" stop-opacity="1"/>
		<stop offset="1" stop-color="#FFFFFF" stop-opacity="1"/>
	</linearGradient>
	<path fill="url(#SVGID_Fill1_)" stroke-linejoin="round" stroke="#888888" stroke-opacity="1" d="M 23.1642,24.077C 27.5245,19.9676 35.9533,12.3252 40.5531,8.55613C 45.1529,4.78704 45.9238,4.8912 46.4681,5.4511C 47.0123,6.01099 47.33,7.02662 42.9377,13.9277C 38.5453,20.8287 29.4429,33.6152 24.5167,40.2167C 19.5905,46.8183 18.8405,47.2349 18.1182,47.1933C 17.396,47.1516 16.7016,46.6516 14.3882,42.9667C 12.0748,39.2818 8.14253,32.412 6.06441,28.2324C 3.98628,24.0527 3.76233,22.5631 4.31181,21.9459C 4.86128,21.3287 6.1842,21.5839 8.63126,22.9615C 11.0783,24.3391 14.6495,26.8391 16.5809,27.8009C 18.5123,28.7627 18.804,28.1863 23.1642,24.077 Z "/>
</svg>
