<svg enable-background="new 0 0 220.00 220.00" height="220" viewBox="0 0 220 220" width="220" xmlns="http://www.w3.org/2000/svg" xmlns:xlink="http://www.w3.org/1999/xlink"><linearGradient id="a"><stop offset="0" stop-color="#f3f8f8"/><stop offset="1" stop-color="#00eefc"/></linearGradient><radialGradient id="b" cx="73.6056" cy="132.094" gradientUnits="userSpaceOnUse" r="39.2039" xlink:href="#a"/><radialGradient id="c" cx="70.8741" cy="101.881" gradientUnits="userSpaceOnUse" r="9.56018" xlink:href="#a"/><g stroke-linejoin="round"><ellipse cx="109.149" cy="109.225" fill="#16376c" rx="96.8333" ry="97.6667" stroke-width=".2"/><path d="m112.649 12.7246c37.984 4.3219 55.252 23.149 45.667 21.8333-34-4.6668-42.077 5.6091-42.667 6-28.4167 18.8332-19.9528 47.8455-5.667 66.3331 28.334 36.667 12 61.334 3.334 70-29.7746 29.775-99.0002 2.333-97.5003-66.5 1.175-53.9264 43.691-103.71311 96.8333-97.6664z" fill="#339b2c" stroke-width=".2"/><ellipse cx="107.441" cy="109.808" fill="none" rx="96.8334" ry="97.6667" stroke="#16376c" stroke-width="5"/><g fill="#fff"><path d="m47.6566 170.219h17.1693l.7804-25.537 2.3413-8.992 4.6825-5.035 5.8532.719 6.2434 3.957 8.5847 10.79 3.5118 2.517 8.5848.72h4.682l.391-6.834-12.8774-11.869-8.9748-5.755-7.8042-4.316 9.7552-11.15 5.0728-9.7107 1.951-4.6757-7.8042 2.8774-8.1944 8.992-5.8532 5.035-3.9021 1.799-7.8042-2.878-4.6826-1.079-2.7314 2.877v-4.316l-1.5608-3.237-11.3162-10.7897-3.5119-.3598.3902 6.1145 6.6336 7.913 3.5119 1.798h-14.0477l4.2925 5.035 12.4867-1.078-6.6337 3.956-4.2922 2.517-.7806 3.238 3.9023.719 3.5118-1.799 4.2924-2.517 3.1217-.36 3.1217 4.316-3.512 8.632-3.5118 5.395-3.1217 7.913-1.9511 8.992z" stroke="url(#b)"/><path d="m70.6791 94.688-4.6826 1.0789-2.3412 3.5967-1.1707 5.7544 2.3413 3.237 3.1217-.719 1.1707-2.518 2.8616.24.26 1.918 1.821 1.679 3.1217-1.679.9105-3.596 1.1707-3.9567-2.3413-3.9564z" stroke="url(#c)"/><path d="m142.684 104.146c-5.433-.536-15.371.242-17.819-2.761-2.447-3.0035 2.597-9.7872 4.774-14.4663 2.177-4.6792 1.487-7.2536-2.587-3.5133-4.075 3.7404-11.533 13.7959-11.203 19.0516.331 5.255 8.449 5.711 15.433 5.899s12.834.107 15.297-.858c2.462-.965 1.537-2.815-3.895-3.352z" stroke="#fff"/><path d="m119.214 80.9888c-1.614-.1586 1.022-1.7761 4.432-3.593 3.41-1.8165 7.594-3.8318 9.745-4.5314 2.152-.6993 2.271-.0826 3.456 3.6232 1.185 3.7059 3.436 10.5007 2.899 11.3587-.537.8581-3.863-4.2208-8.458-6.1099-4.595-1.8892-10.46-.5888-12.074-.7476z" stroke="#fff"/><path d="m177.268 83.4004c2.199 4.4943 7.918 11.838 6.247 15.2437-1.672 3.4059-10.733 2.8729-16.333 3.5189-5.599.646-7.736 2.47-2.093 3.77 5.643 1.299 19.066 2.074 23.967-.811s1.282-9.4286-2.03-14.9562c-3.311-5.5275-6.313-10.0386-8.475-11.4714-2.162-1.4331-3.483.2116-1.283 4.706z" stroke="#fff"/><path d="m166.678 113.238c.655 1.336-2.223.093-5.679-1.651-3.457-1.745-7.491-3.992-9.241-5.316s-1.215-1.726 1.764-4.501c2.98-2.7746 8.405-7.9232 9.501-7.9343 1.096-.011-2.138 5.1156-1.661 9.6353.476 4.52 4.662 8.432 5.316 9.767z" stroke="#fff"/><path d="m141.146 66.9021c3.234-3.958 7.453-12.0793 11.572-12.4819 4.119-.4025 8.136 6.9136 11.558 10.947 3.423 4.0332 6.25 4.7837 4.681-.2562s-7.533-15.8701-12.765-18.2409c-5.231-2.371-9.73 3.7171-13.403 9.0569s-6.52 9.9314-6.821 12.3296c-.301 2.3985 1.945 2.6035 5.178-1.3545z" stroke="#fff"/><path d="m175.205 60.2213c.96-1.1767 1.201 1.6833 1.248 5.2447.046 3.5614-.103 7.8238-.505 9.8473-.401 2.0236-1.055 1.8081-5.22.8773s-11.841-2.577-12.4-3.4242c-.558-.8469 6-.8947 10.12-3.525 4.118-2.6305 5.797-7.8437 6.757-9.0201z" stroke="#fff"/></g><path d="m188.435 15.1286h-5.6v15.9599h-4.48v-15.9599h-5.6v-3.64h15.68z" stroke-width=".2"/><path d="m213.355 31.0885h-4.48v-11.7293c0-1.2659.057-2.6643.171-4.1956h-.11c-.227 1.2046-.433 2.0708-.617 2.5988l-4.594 13.3261h-3.609l-4.677-13.1905c-.128-.3559-.334-1.2674-.617-2.7344h-.122c.117 1.9337.175 3.6296.175 5.088v10.8369h-3.92v-19.5999h6.409l4.003 11.62c.321.9273.555 1.8608.7 2.7999h.084c.244-1.085.504-2.0285.778-2.8306l4.003-11.5893h6.423z" stroke-width=".2"/></g></svg>