<svg enable-background="new 0 0 242.00 242.00" height="242" viewBox="0 0 242 242" width="242" xmlns="http://www.w3.org/2000/svg" xmlns:xlink="http://www.w3.org/1999/xlink"><linearGradient id="a"><stop offset=".00925926" stop-color="#c0c0c0"/><stop offset=".197949" stop-color="#8b8b8b" stop-opacity=".501961"/><stop offset=".421296" stop-color="#575757" stop-opacity="0"/><stop offset=".611111" stop-color="#626262" stop-opacity="0"/><stop offset="1" stop-color="#c0c0c0" stop-opacity=".4"/></linearGradient><linearGradient id="b" gradientUnits="objectBoundingBox" x1="-.0487921" x2="1.04879" xlink:href="#a" y1=".5" y2=".5"/><filter id="c" filterUnits="userSpaceOnUse"><feGaussianBlur stdDeviation="1.88976"/></filter><linearGradient id="d"><stop offset="0" stop-color="#8fc072"/><stop offset=".662037" stop-color="#87b76b"/><stop offset="1" stop-color="#80af64"/></linearGradient><linearGradient id="e" gradientTransform="matrix(-1 0 0 -1 2.111732 1.000006)" gradientUnits="objectBoundingBox" x1="1.05587" x2="2.1676" xlink:href="#d" y1=".500003" y2=".500003"/><linearGradient id="f"><stop offset="0" stop-color="#316013"/><stop offset=".662037" stop-color="#447327"/><stop offset="1" stop-color="#58873b"/></linearGradient><linearGradient id="g" gradientTransform="matrix(-.99937584634 -.035325879348 .035325879348 -.99937584634 1.970744763241 1.345632012385)" gradientUnits="objectBoundingBox" x1=".99726" x2="2.03922" xlink:href="#f" y1=".655406" y2=".655406"/><linearGradient id="h"><stop offset="0" stop-color="#c0c0c0" stop-opacity="0"/><stop offset=".19505" stop-color="#989898" stop-opacity="0"/><stop offset=".425926" stop-color="#707070" stop-opacity="0"/><stop offset=".787037" stop-color="#6c6c6c" stop-opacity="0"/><stop offset=".986111" stop-color="#b9b9b9" stop-opacity=".6"/></linearGradient><linearGradient id="i" gradientUnits="objectBoundingBox" x1="-.0487921" x2="1.04879" xlink:href="#h" y1=".500002" y2=".500002"/><linearGradient id="j" gradientTransform="matrix(0 -1 1 0 -.560354 1.560354)" gradientUnits="objectBoundingBox" x1=".5" x2="1.62071" y1="1.06035" y2="1.06035"><stop offset="0" stop-color="#91c791"/><stop offset="1" stop-color="#fff"/></linearGradient><linearGradient id="k" gradientUnits="objectBoundingBox" x1="-.0487921" x2="1.04879" xlink:href="#a" y1=".499999" y2=".499999"/><linearGradient id="l" gradientTransform="matrix(-1 0 0 -1 2.111732 1)" gradientUnits="objectBoundingBox" x1="1.05587" x2="2.1676" xlink:href="#d" y1=".5" y2=".5"/><linearGradient id="m" gradientTransform="matrix(-.999375874701 -.035325076997 .035325076997 -.999375874701 1.970747458066 1.345623268643)" gradientUnits="objectBoundingBox" x1=".997261" x2="2.03922" xlink:href="#f" y1=".655402" y2=".655402"/><linearGradient id="n" gradientTransform="matrix(-.999375865453 -.035325338633 .035325338633 -.999375865453 1.97074513669 1.345631485679)" gradientUnits="objectBoundingBox" x1=".99726" x2="2.03922" xlink:href="#f" y1=".655406" y2=".655406"/><linearGradient id="o" gradientUnits="objectBoundingBox" x1="-.0487918" x2="1.04879" xlink:href="#a" y1=".5" y2=".5"/><linearGradient id="p" gradientTransform="matrix(-.999375865453 -.035325338633 .035325338633 -.999375865453 1.970746924113 1.345643517259)" gradientUnits="objectBoundingBox" x1=".997261" x2="2.03922" xlink:href="#f" y1=".655412" y2=".655412"/><linearGradient id="q" gradientUnits="objectBoundingBox" x1="-.0487918" x2="1.04879" xlink:href="#h" y1=".500002" y2=".500002"/><linearGradient id="r" gradientTransform="matrix(-.999375856205 -.035325600269 .035325600269 -.999375856205 1.970746955365 1.345631775862)" gradientUnits="objectBoundingBox" x1=".997261" x2="2.03922" xlink:href="#f" y1=".655406" y2=".655406"/><linearGradient id="s" gradientUnits="objectBoundingBox" x1="-.0487922" x2="1.04879" xlink:href="#a" y1=".5" y2=".5"/><linearGradient id="t" gradientTransform="matrix(-.99937584634 -.035325879348 .035325879348 -.99937584634 1.970746550662 1.345644043966)" gradientUnits="objectBoundingBox" x1=".997261" x2="2.03922" xlink:href="#f" y1=".655412" y2=".655412"/><linearGradient id="u" gradientUnits="objectBoundingBox" x1="-.0487922" x2="1.04879" xlink:href="#h" y1=".500002" y2=".500002"/><linearGradient id="v" gradientTransform="matrix(-.999375856205 -.035325600269 .035325600269 -.999375856205 1.970746743411 1.345643772117)" gradientUnits="objectBoundingBox" x1=".997261" x2="2.03922" xlink:href="#f" y1=".655412" y2=".655412"/><linearGradient id="w" gradientUnits="objectBoundingBox" x1="-.0487918" x2="1.04879" xlink:href="#h" y1=".5" y2=".5"/><linearGradient id="x" gradientTransform="matrix(-.999375865453 -.035325338633 .035325338633 -.999375865453 1.970747136065 1.345631521004)" gradientUnits="objectBoundingBox" x1=".997261" x2="2.03922" xlink:href="#f" y1=".655406" y2=".655406"/><path d="m157.11 70.0718 34.847-19.4807v18.3878l-34.847 20.3808z" fill="#fff" stroke="#000" stroke-linecap="square" stroke-linejoin="bevel"/><path d="m126.249 68.9788h30.604l.016 20.4292-24.013.0965-4.147-1.1574-2.411-3.4718z" fill="#fff" stroke="#000" stroke-linecap="square" stroke-linejoin="bevel"/><path d="m152.625 59.7499c12.73-6.0699 25.405-6.0506 28.311.0431 2.906 6.094-5.059 15.9546-17.789 22.0247-12.73 6.0698-25.405 6.0505-28.311-.0432-2.905-6.0939 5.059-15.9546 17.789-22.0246z" fill="url(#b)" filter="url(#c)" stroke-linecap="square" stroke-linejoin="bevel" stroke-width=".2"/><path d="m123.903 63.9962 34.557-.1126v4.9185l-34.493.0804z" fill="#80af64" stroke="#000"/><path d="m123.646 64.0605 37.887-20.3403 31.163-.1851-35.575 20.5416z" fill="url(#e)" stroke="#000"/><g stroke-linejoin="bevel"><path d="m141.84 59.8172 14.306-.0321 21.731-12.0873-14.916.1288z" fill="url(#g)" stroke-linecap="square" stroke-width=".2"/><path d="m158.878 63.5462 34.863-20.5898v5.9792l-34.863 19.8826z" fill="#80af64" stroke="#000" stroke-linecap="square"/><path d="m161.171 55.8878c12.73-6.07 25.406-6.0506 28.311.0432 2.906 6.0938-5.058 15.9544-17.788 22.0244-12.731 6.0701-25.406 6.0506-28.311-.0432-2.906-6.0938 5.058-15.9546 17.788-22.0244z" fill="url(#i)" filter="url(#c)" stroke-linecap="square" stroke-width=".2"/><path d="m133.788 68.8022 17.938.0964-6.365 6.9437h-16.877z" fill="#80af64" stroke="#000"/><path d="m41 1.00006h160c22.091 0 40 17.90854 40 39.99984v160.0001c0 22.091-17.909 40-40 40h-160c-22.0914 0-40-17.909-40-40v-160.0001c0-22.0913 17.9086-39.99984 40-39.99984z" fill="url(#j)" stroke="#000" stroke-linecap="square" stroke-width="8"/><path d="m197.701 70.5495 34.847-19.4807v18.3878l-34.847 20.3809z" fill="#fff" stroke="#000" stroke-linecap="square"/><path d="m166.841 69.4566h30.603l.016 20.4291-24.013.0964-4.147-1.1573-2.411-3.4717z" fill="#fff" stroke="#000" stroke-linecap="square"/><path d="m193.216 60.2276c12.73-6.0698 25.406-6.0504 28.311.0433 2.906 6.0939-5.058 15.9545-17.788 22.0246-12.73 6.0698-25.406 6.0505-28.311-.0432-2.906-6.0939 5.058-15.9546 17.788-22.0247z" fill="url(#k)" filter="url(#c)" stroke-linecap="square" stroke-width=".2"/></g><path d="m164.494 64.4741 34.558-.1126v4.9183l-34.494.0806z" fill="#80af64" stroke="#000"/><path d="m164.237 64.5383 37.887-20.3405 31.164-.185-35.576 20.5417z" fill="url(#l)" stroke="#000"/><path d="m182.432 60.2949 14.305-.0321 21.731-12.0872-14.916.1287z" fill="url(#m)" stroke-linecap="square" stroke-linejoin="bevel" stroke-width=".2"/><path d="m199.47 64.024 34.862-20.5899v5.9793l-34.862 19.8826z" fill="#80af64" stroke="#000" stroke-linecap="square" stroke-linejoin="bevel"/><path d="m201.763 56.3655c12.73-6.07 25.405-6.0506 28.311.0431 2.905 6.0939-5.059 15.9545-17.789 22.0246-12.73 6.0699-25.405 6.0505-28.311-.0432-2.906-6.0938 5.059-15.9546 17.789-22.0245z" fill="url(#i)" filter="url(#c)" stroke-linecap="square" stroke-linejoin="bevel" stroke-width=".2"/><path d="m174.379 69.2798 17.938.0965-6.365 6.9436h-16.877z" fill="#80af64" stroke="#000" stroke-linejoin="bevel"/><path d="m153.827 108.742 34.846-19.4812v18.3882l-34.846 20.38z" fill="#fff" stroke="#000" stroke-linecap="square" stroke-linejoin="bevel"/><path d="m122.966 107.648h30.603l.016 20.43-24.013.096-4.147-1.157-2.411-3.472z" fill="#fff" stroke="#000" stroke-linecap="square" stroke-linejoin="bevel"/><path d="m149.341 98.4196c12.73-6.0699 25.406-6.0506 28.311.0432 2.906 6.0942-5.058 15.9542-17.788 22.0242s-25.406 6.051-28.311-.043c-2.906-6.094 5.058-15.954 17.788-22.0244z" fill="url(#b)" filter="url(#c)" stroke-linecap="square" stroke-linejoin="bevel" stroke-width=".2"/><path d="m120.619 102.666 34.558-.113v4.919l-34.493.08z" fill="#80af64" stroke="#000"/><path d="m120.362 102.73 37.887-20.3403 31.164-.1849-35.575 20.5412z" fill="url(#e)" stroke="#000"/><path d="m138.557 98.4869 14.305-.0322 21.731-12.0872-14.916.1287z" fill="url(#n)" stroke-linecap="square" stroke-linejoin="bevel" stroke-width=".2"/><path d="m155.595 102.216 34.862-20.59v5.9793l-34.862 19.8827z" fill="#80af64" stroke="#000" stroke-linecap="square" stroke-linejoin="bevel"/><path d="m157.888 94.5574c12.73-6.0699 25.405-6.0505 28.311.0432 2.905 6.0934-5.059 15.9544-17.789 22.0244s-25.405 6.051-28.311-.043 5.059-15.955 17.789-22.0246z" fill="url(#i)" filter="url(#c)" stroke-linecap="square" stroke-linejoin="bevel" stroke-width=".2"/><path d="m130.504 107.472 17.938.096-6.365 6.944h-16.877z" fill="#80af64" stroke="#000" stroke-linejoin="bevel"/><path d="m194.418 109.219 34.847-19.4804v18.3874l-34.847 20.381z" fill="#fff" stroke="#000" stroke-linecap="square" stroke-linejoin="bevel"/><path d="m163.557 108.126h30.604l.016 20.429-24.014.097-4.147-1.158-2.41-3.471z" fill="#fff" stroke="#000" stroke-linecap="square" stroke-linejoin="bevel"/><path d="m189.933 98.8974c12.73-6.0699 25.405-6.0507 28.311.0432 2.906 6.0934-5.059 15.9544-17.789 22.0244s-25.405 6.051-28.311-.043 5.059-15.955 17.789-22.0246z" fill="url(#o)" filter="url(#c)" stroke-linecap="square" stroke-linejoin="bevel" stroke-width=".2"/><path d="m161.211 103.144 34.557-.113v4.919l-34.493.08z" fill="#80af64" stroke="#000"/><path d="m160.953 103.208 37.888-20.3405 31.163-.1849-35.575 20.5414z" fill="url(#e)" stroke="#000"/><path d="m179.148 98.9645 14.305-.0321 21.731-12.0871-14.915.1286z" fill="url(#p)" stroke-linecap="square" stroke-linejoin="bevel" stroke-width=".2"/><path d="m196.186 102.694 34.863-20.5902v5.9793l-34.863 19.8829z" fill="#80af64" stroke="#000" stroke-linecap="square" stroke-linejoin="bevel"/><path d="m198.479 95.0351c12.73-6.07 25.406-6.0505 28.311.0432 2.906 6.0937-5.058 15.9547-17.788 22.0247-12.731 6.07-25.406 6.05-28.312-.043-2.905-6.094 5.059-15.955 17.789-22.0249z" fill="url(#q)" filter="url(#c)" stroke-linecap="square" stroke-linejoin="bevel" stroke-width=".2"/><path d="m171.096 107.95 17.937.096-6.365 6.944h-16.876z" fill="#80af64" stroke="#000" stroke-linejoin="bevel"/><path d="m155.326 146.24 34.847-19.481v18.388l-34.847 20.38z" fill="#fff" stroke="#000" stroke-linecap="square" stroke-linejoin="bevel"/><path d="m124.466 145.147h30.603l.016 20.429-24.013.096-4.147-1.157-2.411-3.472z" fill="#fff" stroke="#000" stroke-linecap="square" stroke-linejoin="bevel"/><path d="m150.841 135.918c12.73-6.07 25.406-6.051 28.311.043 2.906 6.094-5.058 15.954-17.788 22.024-12.731 6.07-25.406 6.051-28.311-.043-2.906-6.094 5.058-15.954 17.788-22.024z" fill="url(#o)" filter="url(#c)" stroke-linecap="square" stroke-linejoin="bevel" stroke-width=".2"/><path d="m122.119 140.164 34.558-.113v4.919l-34.494.08z" fill="#80af64" stroke="#000"/><path d="m121.862 140.228 37.887-20.34 31.164-.185-35.576 20.541z" fill="url(#e)" stroke="#000"/><path d="m140.057 135.985 14.305-.032 21.731-12.087-14.916.128z" fill="url(#r)" stroke-linecap="square" stroke-linejoin="bevel" stroke-width=".2"/><path d="m157.095 139.714 34.862-20.59v5.979l-34.862 19.883z" fill="#80af64" stroke="#000" stroke-linecap="square" stroke-linejoin="bevel"/><path d="m159.388 132.055c12.73-6.069 25.405-6.05 28.311.044 2.905 6.093-5.059 15.954-17.789 22.024s-25.405 6.051-28.311-.043 5.059-15.955 17.789-22.025z" fill="url(#q)" filter="url(#c)" stroke-linecap="square" stroke-linejoin="bevel" stroke-width=".2"/><path d="m132.004 144.97 17.938.096-6.365 6.944h-16.877z" fill="#80af64" stroke="#000" stroke-linejoin="bevel"/><path d="m195.918 146.717 34.847-19.48v18.387l-34.847 20.381z" fill="#fff" stroke="#000" stroke-linecap="square" stroke-linejoin="bevel"/><path d="m165.057 145.624h30.604l.016 20.429-24.014.097-4.147-1.158-2.411-3.471z" fill="#fff" stroke="#000" stroke-linecap="square" stroke-linejoin="bevel"/><path d="m191.433 136.395c12.73-6.069 25.405-6.05 28.311.044s-5.059 15.954-17.789 22.024-25.405 6.051-28.311-.043 5.059-15.955 17.789-22.025z" fill="url(#s)" filter="url(#c)" stroke-linecap="square" stroke-linejoin="bevel" stroke-width=".2"/><path d="m162.711 140.642 34.557-.113v4.919l-34.493.08z" fill="#80af64" stroke="#000"/><path d="m162.453 140.706 37.888-20.34 31.163-.185-35.575 20.541z" fill="url(#e)" stroke="#000"/><path d="m180.648 136.463 14.305-.033 21.731-12.087-14.916.129z" fill="url(#t)" stroke-linecap="square" stroke-linejoin="bevel" stroke-width=".2"/><path d="m197.686 140.192 34.863-20.59v5.979l-34.863 19.883z" fill="#80af64" stroke="#000" stroke-linecap="square" stroke-linejoin="bevel"/><path d="m199.979 132.533c12.73-6.07 25.406-6.05 28.311.043 2.906 6.094-5.058 15.955-17.789 22.025-12.73 6.07-25.405 6.05-28.311-.043-2.905-6.094 5.059-15.955 17.789-22.025z" fill="url(#u)" filter="url(#c)" stroke-linecap="square" stroke-linejoin="bevel" stroke-width=".2"/><path d="m172.596 145.448 17.937.096-6.365 6.944h-16.877z" fill="#80af64" stroke="#000" stroke-linejoin="bevel"/><path d="m155.326 183.738 34.847-19.481v18.388l-34.847 20.381z" fill="#fff" stroke="#000" stroke-linecap="square" stroke-linejoin="bevel"/><path d="m124.466 182.645h30.603l.016 20.429-24.013.096-4.147-1.157-2.411-3.472z" fill="#fff" stroke="#000" stroke-linecap="square" stroke-linejoin="bevel"/><path d="m150.841 173.416c12.73-6.07 25.406-6.051 28.311.043 2.906 6.094-5.058 15.955-17.788 22.024-12.731 6.07-25.406 6.051-28.311-.043-2.906-6.094 5.058-15.954 17.788-22.024z" fill="url(#o)" filter="url(#c)" stroke-linecap="square" stroke-linejoin="bevel" stroke-width=".2"/><path d="m122.119 177.662 34.558-.113v4.919l-34.494.08z" fill="#80af64" stroke="#000"/><path d="m121.862 177.726 37.887-20.34 31.164-.185-35.576 20.541z" fill="url(#l)" stroke="#000"/><path d="m140.057 173.483 14.305-.032 21.731-12.087-14.916.128z" fill="url(#v)" stroke-linecap="square" stroke-linejoin="bevel" stroke-width=".2"/><path d="m157.095 177.212 34.862-20.59v5.98l-34.862 19.882z" fill="#80af64" stroke="#000" stroke-linecap="square" stroke-linejoin="bevel"/><path d="m159.388 169.554c12.73-6.07 25.405-6.051 28.311.043 2.905 6.094-5.059 15.954-17.789 22.024s-25.405 6.051-28.311-.043 5.059-15.955 17.789-22.024z" fill="url(#w)" filter="url(#c)" stroke-linecap="square" stroke-linejoin="bevel" stroke-width=".2"/><path d="m132.004 182.468 17.938.097-6.365 6.943h-16.877z" fill="#80af64" stroke="#000" stroke-linejoin="bevel"/><path d="m195.918 184.215 34.847-19.48v18.387l-34.847 20.381z" fill="#fff" stroke="#000" stroke-linecap="square" stroke-linejoin="bevel"/><path d="m165.057 183.122h30.604l.016 20.43-24.014.096-4.147-1.157-2.41-3.472z" fill="#fff" stroke="#000" stroke-linecap="square" stroke-linejoin="bevel"/><path d="m191.433 173.894c12.73-6.07 25.405-6.051 28.311.043s-5.059 15.954-17.789 22.024-25.405 6.051-28.311-.043 5.059-15.955 17.789-22.024z" fill="url(#s)" filter="url(#c)" stroke-linecap="square" stroke-linejoin="bevel" stroke-width=".2"/><path d="m162.711 178.14 34.557-.113v4.919l-34.493.08z" fill="#80af64" stroke="#000"/><path d="m162.453 178.204 37.888-20.34 31.163-.185-35.575 20.541z" fill="url(#l)" stroke="#000"/><path d="m180.648 173.961 14.305-.032 21.731-12.088-14.915.129z" fill="url(#x)" stroke-linecap="square" stroke-linejoin="bevel" stroke-width=".2"/><path d="m197.686 177.69 34.863-20.59v5.979l-34.863 19.883z" fill="#80af64" stroke="#000" stroke-linecap="square" stroke-linejoin="bevel"/><path d="m199.979 170.031c12.73-6.07 25.406-6.05 28.311.044 2.906 6.093-5.058 15.954-17.789 22.024-12.73 6.07-25.405 6.051-28.311-.043-2.905-6.094 5.059-15.955 17.789-22.025z" fill="url(#u)" filter="url(#c)" stroke-linecap="square" stroke-linejoin="bevel" stroke-width=".2"/><path d="m172.596 182.946 17.937.096-6.365 6.944h-16.876z" fill="#80af64" stroke="#000" stroke-linejoin="bevel"/><path d="m58.5091 145.083h-42.24v-11.52h14.4v-42.2397l-14.4 2.8801v-11.52l28.8-5.76v56.6396h13.44z" stroke="#fff" stroke-linejoin="round" stroke-width="2"/><path d="m91.7191 146.043c-16.38 0-24.57-11.17-24.57-33.51 0-11.59 2.215-20.4221 6.645-26.4972 4.43-6.0749 10.855-9.1124 19.275-9.1124 15.9999 0 23.9999 11.355 23.9999 34.0646 0 11.31-2.185 19.98-6.555 26.01s-10.6349 9.045-18.7949 9.045zm.705-57.5996c-6.61 0-9.915 7.9099-9.915 23.7296 0 14.9 3.24 22.35 9.72 22.35 6.32 0 9.4799-7.68 9.4799-23.04 0-15.3596-3.0949-23.0396-9.2849-23.0396z" stroke="#fff" stroke-linejoin="round" stroke-width="2"/><path d="m175.629 121.083-44.16 20.16v-11.22l31.68-12.63v-.195l-31.68-13.605v-11.3096l44.16 21.1196z" stroke="#fff" stroke-linejoin="round" stroke-width="2"/></svg>