<svg enable-background="new 0 0 242.00 242.00" height="242" viewBox="0 0 242 242" width="242" xmlns="http://www.w3.org/2000/svg" xmlns:xlink="http://www.w3.org/1999/xlink"><linearGradient id="a"><stop offset=".00925926" stop-color="#c0c0c0"/><stop offset=".197949" stop-color="#8b8b8b" stop-opacity=".501961"/><stop offset=".421296" stop-color="#575757" stop-opacity="0"/><stop offset=".611111" stop-color="#626262" stop-opacity="0"/><stop offset="1" stop-color="#c0c0c0" stop-opacity=".4"/></linearGradient><linearGradient id="b" gradientUnits="objectBoundingBox" x1="-.0487921" x2="1.04879" xlink:href="#a" y1=".5" y2=".5"/><filter id="c" filterUnits="userSpaceOnUse"><feGaussianBlur stdDeviation="1.88976"/></filter><linearGradient id="d"><stop offset="0" stop-color="#8fc072"/><stop offset=".662037" stop-color="#87b76b"/><stop offset="1" stop-color="#80af64"/></linearGradient><linearGradient id="e" gradientTransform="matrix(-1 0 0 -1 2.111732 1.000006)" gradientUnits="objectBoundingBox" x1="1.05587" x2="2.1676" xlink:href="#d" y1=".500003" y2=".500003"/><linearGradient id="f"><stop offset="0" stop-color="#316013"/><stop offset=".662037" stop-color="#447327"/><stop offset="1" stop-color="#58873b"/></linearGradient><linearGradient id="g" gradientTransform="matrix(-.999375865453 -.035325338633 .035325338633 -.999375865453 1.97074513669 1.345631485679)" gradientUnits="objectBoundingBox" x1=".99726" x2="2.03922" xlink:href="#f" y1=".655406" y2=".655406"/><linearGradient id="h"><stop offset="0" stop-color="#c0c0c0" stop-opacity="0"/><stop offset=".19505" stop-color="#989898" stop-opacity="0"/><stop offset=".425926" stop-color="#707070" stop-opacity="0"/><stop offset=".787037" stop-color="#6c6c6c" stop-opacity="0"/><stop offset=".986111" stop-color="#b9b9b9" stop-opacity=".6"/></linearGradient><linearGradient id="i" gradientUnits="objectBoundingBox" x1="-.048792" x2="1.04879" xlink:href="#h" y1=".500002" y2=".500002"/><linearGradient id="j" gradientUnits="objectBoundingBox" x1="-.0487923" x2="1.04879" xlink:href="#a" y1=".5" y2=".5"/><linearGradient id="k" gradientTransform="matrix(-.999375856205 -.035325600269 .035325600269 -.999375856205 1.970746743411 1.345643772117)" gradientUnits="objectBoundingBox" x1=".997261" x2="2.03922" xlink:href="#f" y1=".655412" y2=".655412"/><linearGradient id="l" gradientUnits="objectBoundingBox" x1="-.0487921" x2="1.04879" xlink:href="#h" y1=".500002" y2=".500002"/><linearGradient id="m" gradientUnits="objectBoundingBox" x1="-.048792" x2="1.04879" xlink:href="#a" y1=".499999" y2=".499999"/><linearGradient id="n" gradientTransform="matrix(-.999375856205 -.035325600269 .035325600269 -.999375856205 1.970744955989 1.345631740537)" gradientUnits="objectBoundingBox" x1=".99726" x2="2.03922" xlink:href="#f" y1=".655406" y2=".655406"/><linearGradient id="o" gradientUnits="objectBoundingBox" x1="-.0487921" x2="1.04879" xlink:href="#a" y1=".499999" y2=".499999"/><linearGradient id="p" gradientUnits="objectBoundingBox" x1="-.048792" x2="1.04879" xlink:href="#a" y1=".5" y2=".5"/><linearGradient id="q" gradientTransform="matrix(-1 0 0 -1 2.111732 1.000002)" gradientUnits="objectBoundingBox" x1="1.05587" x2="2.1676" xlink:href="#d" y1=".500001" y2=".500001"/><linearGradient id="r" gradientTransform="matrix(-.999375865453 -.035325338633 .035325338633 -.999375865453 1.970744854087 1.345647480686)" gradientUnits="objectBoundingBox" x1=".99726" x2="2.03922" xlink:href="#f" y1=".655414" y2=".655414"/><linearGradient id="s" gradientUnits="objectBoundingBox" x1="-.048792" x2="1.04879" xlink:href="#h" y1=".500001" y2=".500001"/><linearGradient id="t" gradientTransform="matrix(-.999375856205 -.035325600269 .035325600269 -.999375856205 1.970744850012 1.345637738664)" gradientUnits="objectBoundingBox" x1=".99726" x2="2.03922" xlink:href="#f" y1=".655409" y2=".655409"/><linearGradient id="u" gradientUnits="objectBoundingBox" x1="-.048792" x2="1.04879" xlink:href="#h" y1=".500004" y2=".500004"/><linearGradient id="v" gradientTransform="matrix(-.999375865453 -.035325338633 .035325338633 -.999375865453 1.970746782812 1.345651514763)" gradientUnits="objectBoundingBox" x1=".997261" x2="2.03922" xlink:href="#f" y1=".655416" y2=".655416"/><linearGradient id="w" gradientUnits="objectBoundingBox" x1="-.048792" x2="1.04879" xlink:href="#h" y1=".499999" y2=".499999"/><linearGradient id="x" gradientUnits="objectBoundingBox" x1="-.0487918" x2="1.04879" xlink:href="#a" y1=".5" y2=".5"/><linearGradient id="y" gradientUnits="objectBoundingBox" x1="-.0487918" x2="1.04879" xlink:href="#h" y1=".500002" y2=".500002"/><linearGradient id="z" gradientTransform="matrix(0 -1 1 0 -.560355 1.560355)" gradientUnits="objectBoundingBox" x1=".5" x2="1.62071" y1="1.06035" y2="1.06035"><stop offset="0" stop-color="#91c791"/><stop offset="1" stop-color="#fff"/></linearGradient><linearGradient id="A" gradientTransform="matrix(-.999375874701 -.035325076997 .035325076997 -.999375874701 1.97074510544 1.345643227076)" gradientUnits="objectBoundingBox" x1=".99726" x2="2.03922" xlink:href="#f" y1=".655412" y2=".655412"/><linearGradient id="B" gradientTransform="matrix(-.999375856205 -.035325600269 .035325600269 -.999375856205 1.970746955365 1.345631775862)" gradientUnits="objectBoundingBox" x1=".997261" x2="2.03922" xlink:href="#f" y1=".655406" y2=".655406"/><linearGradient id="C" gradientUnits="objectBoundingBox" x1="-.0487918" x2="1.04879" xlink:href="#a" y1=".499999" y2=".499999"/><linearGradient id="D" gradientUnits="objectBoundingBox" x1="-.0487925" x2="1.04879" xlink:href="#h" y1=".500002" y2=".500002"/><linearGradient id="E" gradientTransform="matrix(-.999375856205 -.035325600269 .035325600269 -.999375856205 1.97074667276 1.345647770869)" gradientUnits="objectBoundingBox" x1=".997261" x2="2.03922" xlink:href="#f" y1=".655414" y2=".655414"/><linearGradient id="F" gradientUnits="objectBoundingBox" x1="-.0487921" x2="1.04879" xlink:href="#h" y1=".500001" y2=".500001"/><linearGradient id="G" gradientTransform="matrix(-.999375865453 -.035325338633 .035325338633 -.999375865453 1.97074710074 1.34563352038)" gradientUnits="objectBoundingBox" x1=".997261" x2="2.03922" xlink:href="#f" y1=".655407" y2=".655407"/><linearGradient id="H" gradientTransform="matrix(-.999375856205 -.035325600269 .035325600269 -.999375856205 1.970746849388 1.34563777399)" gradientUnits="objectBoundingBox" x1=".997261" x2="2.03922" xlink:href="#f" y1=".655409" y2=".655409"/><linearGradient id="I" gradientUnits="objectBoundingBox" x1="-.0487921" x2="1.04879" xlink:href="#h" y1=".500004" y2=".500004"/><linearGradient id="J" gradientTransform="matrix(-.999375874701 -.035325076997 .035325076997 -.999375874701 1.970744964139 1.34565122458)" gradientUnits="objectBoundingBox" x1=".99726" x2="2.03922" xlink:href="#f" y1=".655416" y2=".655416"/><linearGradient id="K" gradientUnits="objectBoundingBox" x1="-.0487921" x2="1.04879" xlink:href="#h" y1=".499999" y2=".499999"/><path d="m55.9711 71.6629 34.8467-19.4807v18.3878l-34.8467 20.3807z" fill="#fff" stroke="#000" stroke-linecap="square" stroke-linejoin="bevel"/><path d="m25.1105 70.5699h30.6034l.0161 20.4292-24.0134.0964-4.1469-1.1573-2.411-3.4718z" fill="#fff" stroke="#000" stroke-linecap="square" stroke-linejoin="bevel"/><path d="m51.4859 61.341c12.73-6.0699 25.4055-6.0507 28.3111.0432 2.9057 6.0939-5.0586 15.9545-17.7887 22.0246-12.7302 6.0698-25.4054 6.0505-28.3111-.0433-2.9056-6.0938 5.0588-15.9546 17.7887-22.0245z" fill="url(#b)" filter="url(#c)" stroke-linecap="square" stroke-linejoin="bevel" stroke-width=".2"/><path d="m22.7638 65.5872 34.5574-.1125v4.9184l-34.4931.0805z" fill="#80af64" stroke="#000"/><path d="m22.5067 65.6516 37.8871-20.3405 31.1634-.1849-35.5751 20.5416z" fill="url(#e)" stroke="#000"/><path d="m40.7015 61.4083 14.3052-.0323 21.731-12.0871-14.916.1286z" fill="url(#g)" stroke-linecap="square" stroke-linejoin="bevel" stroke-width=".2"/><path d="m57.7392 65.1373 34.8628-20.5899v5.9793l-34.8628 19.8825z" fill="#80af64" stroke="#000" stroke-linecap="square" stroke-linejoin="bevel"/><path d="m60.0323 57.4788c12.73-6.0699 25.4055-6.0505 28.3111.0432 2.9057 6.0938-5.0587 15.9545-17.7888 22.0244-12.7301 6.0701-25.4054 6.0507-28.311-.0432-2.9057-6.0937 5.0588-15.9546 17.7887-22.0244z" fill="url(#i)" filter="url(#c)" stroke-linecap="square" stroke-linejoin="bevel" stroke-width=".2"/><path d="m32.6489 70.3932 17.9377.0965-6.365 6.9437h-16.8769z" fill="#80af64" stroke="#000" stroke-linejoin="bevel"/><path d="m96.5625 72.1406 34.8465-19.4806v18.3877l-34.8465 20.3808z" fill="#fff" stroke="#000" stroke-linecap="square" stroke-linejoin="bevel"/><path d="m65.7019 71.0477h30.6034l.0161 20.429-24.0134.0965-4.1469-1.1574-2.411-3.4716z" fill="#fff" stroke="#000" stroke-linecap="square" stroke-linejoin="bevel"/><path d="m92.0774 61.8188c12.7296-6.07 25.4056-6.0507 28.3106.0432 2.906 6.0939-5.058 15.9545-17.788 22.0245-12.7304 6.0699-25.4057 6.0506-28.3113-.0432-2.9057-6.0938 5.0588-15.9546 17.7887-22.0245z" fill="url(#j)" filter="url(#c)" stroke-linecap="square" stroke-linejoin="bevel" stroke-width=".2"/><path d="m63.3552 66.0651 34.5575-.1125v4.9183l-34.4932.0806z" fill="#80af64" stroke="#000"/><path d="m63.0981 66.1293 37.8869-20.3404 31.164-.185-35.5755 20.5417z" fill="url(#e)" stroke="#000"/><path d="m81.2929 61.8859 14.3052-.0321 21.7309-12.0871-14.916.1286z" fill="url(#k)" stroke-linecap="square" stroke-linejoin="bevel" stroke-width=".2"/><path d="m98.3306 65.6151 34.8624-20.5899v5.9793l-34.8624 19.8825z" fill="#80af64" stroke="#000" stroke-linecap="square" stroke-linejoin="bevel"/><path d="m100.624 57.9565c12.73-6.07 25.405-6.0506 28.311.0432 2.906 6.0939-5.059 15.9545-17.789 22.0245s-25.4053 6.0506-28.311-.0432c-2.9056-6.0937 5.0588-15.9546 17.789-22.0245z" fill="url(#l)" filter="url(#c)" stroke-linecap="square" stroke-linejoin="bevel" stroke-width=".2"/><path d="m73.2403 70.8709 17.9377.0964-6.365 6.9436h-16.8769z" fill="#80af64" stroke="#000" stroke-linejoin="bevel"/><path d="m52.6875 110.333 34.8468-19.4811v18.3881l-34.8468 20.38z" fill="#fff" stroke="#000" stroke-linecap="square" stroke-linejoin="bevel"/><path d="m21.827 109.24h30.6034l.016 20.429-24.0133.096-4.1469-1.157-2.411-3.472z" fill="#fff" stroke="#000" stroke-linecap="square" stroke-linejoin="bevel"/><path d="m48.2024 100.011c12.73-6.0703 25.4055-6.051 28.3111.043s-5.0587 15.954-17.7888 22.024-25.4054 6.051-28.311-.043c-2.9057-6.094 5.0588-15.954 17.7887-22.024z" fill="url(#m)" filter="url(#c)" stroke-linecap="square" stroke-linejoin="bevel" stroke-width=".2"/><path d="m19.4803 104.257 34.5574-.113v4.919l-34.4931.08z" fill="#80af64" stroke="#000"/><path d="m19.2231 104.321 37.8872-20.3402 31.1634-.185-35.5751 20.5412z" fill="url(#e)" stroke="#000"/><path d="m37.418 100.078 14.3051-.032 21.7311-12.0874-14.916.1286z" fill="url(#n)" stroke-linecap="square" stroke-linejoin="bevel" stroke-width=".2"/><path d="m54.4556 103.807 34.8629-20.5899v5.9793l-34.8629 19.8826z" fill="#80af64" stroke="#000" stroke-linecap="square" stroke-linejoin="bevel"/><path d="m56.7488 96.1485c12.73-6.0699 25.4054-6.0505 28.3111.0432 2.9056 6.0933-5.0587 15.9543-17.7888 22.0243s-25.4054 6.051-28.3111-.043c-2.9056-6.094 5.0588-15.955 17.7888-22.0245z" fill="url(#l)" filter="url(#c)" stroke-linecap="square" stroke-linejoin="bevel" stroke-width=".2"/><path d="m29.3653 109.063 17.9377.096-6.3649 6.944h-16.8769z" fill="#80af64" stroke="#000" stroke-linejoin="bevel"/><path d="m93.2789 110.81 34.8471-19.4803v18.3873l-34.8471 20.381z" fill="#fff" stroke="#000" stroke-linecap="square" stroke-linejoin="bevel"/><path d="m62.4183 109.717h30.6035l.016 20.429-24.0134.097-4.1469-1.157-2.4109-3.472z" fill="#fff" stroke="#000" stroke-linecap="square" stroke-linejoin="bevel"/><path d="m88.7939 100.488c12.7301-6.0695 25.4051-6.0502 28.3111.044 2.906 6.094-5.059 15.954-17.7888 22.024-12.7301 6.07-25.4054 6.051-28.3111-.043-2.9056-6.094 5.0588-15.955 17.7888-22.025z" fill="url(#o)" filter="url(#c)" stroke-linecap="square" stroke-linejoin="bevel" stroke-width=".2"/><path d="m60.0717 104.735 34.5574-.113v4.919l-34.4931.08z" fill="#80af64" stroke="#000"/><path d="m59.8145 104.799 37.8871-20.3404 31.1634-.185-35.5751 20.5414z" fill="url(#e)" stroke="#000"/><path d="m78.0094 100.556 14.3051-.033 21.7315-12.0867-14.9164.1287z" fill="url(#k)" stroke-linecap="square" stroke-linejoin="bevel" stroke-width=".2"/><path d="m95.047 104.285 34.863-20.5901v5.9792l-34.863 19.8829z" fill="#80af64" stroke="#000" stroke-linecap="square" stroke-linejoin="bevel"/><path d="m97.3403 96.6262c12.7297-6.07 25.4057-6.0506 28.3107.0432 2.906 6.0936-5.058 15.9546-17.788 22.0246-12.7305 6.07-25.4058 6.05-28.3115-.043-2.9056-6.094 5.0588-15.955 17.7888-22.0248z" fill="url(#i)" filter="url(#c)" stroke-linecap="square" stroke-linejoin="bevel" stroke-width=".2"/><path d="m69.9567 109.541 17.9377.096-6.365 6.944h-16.8769z" fill="#80af64" stroke="#000" stroke-linejoin="bevel"/><path d="m54.1875 147.831 34.8467-19.481v18.388l-34.8467 20.381z" fill="#fff" stroke="#000" stroke-linecap="square" stroke-linejoin="bevel"/><path d="m23.3269 146.738h30.6034l.0161 20.429-24.0134.096-4.1469-1.157-2.411-3.472z" fill="#fff" stroke="#000" stroke-linecap="square" stroke-linejoin="bevel"/><path d="m49.7023 137.509c12.73-6.07 25.4055-6.051 28.3111.043 2.9057 6.094-5.0586 15.954-17.7888 22.024-12.7301 6.07-25.4054 6.051-28.311-.043-2.9057-6.094 5.0588-15.954 17.7887-22.024z" fill="url(#p)" filter="url(#c)" stroke-linecap="square" stroke-linejoin="bevel" stroke-width=".2"/><path d="m20.9802 141.755 34.5574-.113v4.919l-34.4931.08z" fill="#80af64" stroke="#000"/><path d="m20.7231 141.819 37.8871-20.34 31.1634-.185-35.5751 20.541z" fill="url(#q)" stroke="#000"/><path d="m38.9179 137.576 14.3052-.032 21.731-12.087-14.916.128z" fill="url(#r)" stroke-linecap="square" stroke-linejoin="bevel" stroke-width=".2"/><path d="m55.9556 141.305 34.8628-20.59v5.979l-34.8628 19.883z" fill="#80af64" stroke="#000" stroke-linecap="square" stroke-linejoin="bevel"/><path d="m58.2487 133.646c12.73-6.069 25.4055-6.05 28.3111.044s-5.0587 15.954-17.7888 22.024-25.4054 6.051-28.311-.043c-2.9057-6.094 5.0588-15.955 17.7887-22.025z" fill="url(#s)" filter="url(#c)" stroke-linecap="square" stroke-linejoin="bevel" stroke-width=".2"/><path d="m30.8652 146.561 17.9378.096-6.365 6.944h-16.8769z" fill="#80af64" stroke="#000" stroke-linejoin="bevel"/><path d="m94.7788 148.308 34.8472-19.48v18.387l-34.8472 20.381z" fill="#fff" stroke="#000" stroke-linecap="square" stroke-linejoin="bevel"/><path d="m63.9183 147.215h30.6034l.0161 20.429-24.0134.097-4.1469-1.157-2.411-3.472z" fill="#fff" stroke="#000" stroke-linecap="square" stroke-linejoin="bevel"/><path d="m90.2938 137.987c12.7302-6.07 25.4052-6.051 28.3112.043s-5.059 15.954-17.789 22.024-25.4053 6.051-28.3109-.043c-2.9057-6.094 5.0587-15.955 17.7887-22.024z" fill="url(#b)" filter="url(#c)" stroke-linecap="square" stroke-linejoin="bevel" stroke-width=".2"/><path d="m61.5716 142.233 34.5574-.113v4.919l-34.4931.08z" fill="#80af64" stroke="#000"/><path d="m61.3144 142.297 37.8872-20.34 31.1634-.185-35.5751 20.541z" fill="url(#q)" stroke="#000"/><path d="m79.5093 138.054 14.3052-.033 21.7305-12.087-14.916.129z" fill="url(#t)" stroke-linecap="square" stroke-linejoin="bevel" stroke-width=".2"/><path d="m96.547 141.783 34.863-20.59v5.979l-34.863 19.883z" fill="#80af64" stroke="#000" stroke-linecap="square" stroke-linejoin="bevel"/><path d="m98.8402 134.124c12.7298-6.07 25.4058-6.05 28.3108.043 2.906 6.094-5.058 15.955-17.789 22.025-12.7296 6.07-25.4049 6.051-28.3106-.043-2.9056-6.094 5.0588-15.955 17.7888-22.025z" fill="url(#s)" filter="url(#c)" stroke-linecap="square" stroke-linejoin="bevel" stroke-width=".2"/><path d="m71.4566 147.039 17.9378.096-6.365 6.944h-16.8769z" fill="#80af64" stroke="#000" stroke-linejoin="bevel"/><path d="m54.1875 185.329 34.8467-19.481v18.388l-34.8467 20.381z" fill="#fff" stroke="#000" stroke-linecap="square" stroke-linejoin="bevel"/><path d="m23.3269 184.236h30.6034l.0161 20.429-24.0134.096-4.1469-1.157-2.411-3.472z" fill="#fff" stroke="#000" stroke-linecap="square" stroke-linejoin="bevel"/><path d="m49.7023 175.007c12.73-6.07 25.4055-6.051 28.3111.043 2.9057 6.094-5.0586 15.955-17.7888 22.025-12.7301 6.069-25.4054 6.05-28.311-.044-2.9057-6.094 5.0588-15.954 17.7887-22.024z" fill="url(#p)" filter="url(#c)" stroke-linecap="square" stroke-linejoin="bevel" stroke-width=".2"/><path d="m20.9802 179.253 34.5574-.112v4.918l-34.4931.08z" fill="#80af64" stroke="#000"/><path d="m20.7231 179.317 37.8871-20.34 31.1634-.185-35.5751 20.542z" fill="url(#q)" stroke="#000"/><path d="m38.9179 175.074 14.3052-.032 21.731-12.087-14.916.128z" fill="url(#n)" stroke-linecap="square" stroke-linejoin="bevel" stroke-width=".2"/><path d="m55.9556 178.803 34.8628-20.59v5.98l-34.8628 19.882z" fill="#80af64" stroke="#000" stroke-linecap="square" stroke-linejoin="bevel"/><path d="m58.2487 171.145c12.73-6.07 25.4055-6.051 28.3111.043s-5.0587 15.954-17.7888 22.024-25.4054 6.051-28.311-.043c-2.9057-6.094 5.0588-15.954 17.7887-22.024z" fill="url(#u)" filter="url(#c)" stroke-linecap="square" stroke-linejoin="bevel" stroke-width=".2"/><path d="m30.8652 184.059 17.9378.096-6.365 6.944h-16.8769z" fill="#80af64" stroke="#000" stroke-linejoin="bevel"/><path d="m94.7789 185.806 34.8471-19.48v18.388l-34.8471 20.38z" fill="#fff" stroke="#000" stroke-linecap="square" stroke-linejoin="bevel"/><path d="m63.9183 184.714h30.6035l.016 20.429-24.0134.096-4.1469-1.157-2.4109-3.472z" fill="#fff" stroke="#000" stroke-linecap="square" stroke-linejoin="bevel"/><path d="m90.2938 175.485c12.7302-6.07 25.4052-6.051 28.3112.043s-5.059 15.954-17.789 22.024-25.4053 6.051-28.3109-.043c-2.9057-6.094 5.0587-15.954 17.7887-22.024z" fill="url(#b)" filter="url(#c)" stroke-linecap="square" stroke-linejoin="bevel" stroke-width=".2"/><path d="m61.5717 179.731 34.5574-.113v4.919l-34.4931.08z" fill="#80af64" stroke="#000"/><path d="m61.3144 179.795 37.8872-20.34 31.1634-.185-35.5751 20.541z" fill="url(#q)" stroke="#000"/><path d="m79.5094 175.552 14.3051-.032 21.7315-12.088-14.916.129z" fill="url(#v)" stroke-linecap="square" stroke-linejoin="bevel" stroke-width=".2"/><path d="m96.547 179.281 34.863-20.59v5.979l-34.863 19.883z" fill="#80af64" stroke="#000" stroke-linecap="square" stroke-linejoin="bevel"/><path d="m98.8402 171.622c12.7298-6.07 25.4058-6.05 28.3108.044 2.906 6.093-5.058 15.954-17.789 22.024-12.7296 6.07-25.4049 6.051-28.3106-.043-2.9056-6.094 5.0588-15.955 17.7888-22.025z" fill="url(#w)" filter="url(#c)" stroke-linecap="square" stroke-linejoin="bevel" stroke-width=".2"/><path d="m71.4567 184.537 17.9377.096-6.365 6.944h-16.8769z" fill="#80af64" stroke="#000" stroke-linejoin="bevel"/><path d="m157.11 70.0718 34.847-19.4807v18.3878l-34.847 20.3808z" fill="#fff" stroke="#000" stroke-linecap="square" stroke-linejoin="bevel"/><path d="m126.249 68.9788h30.604l.016 20.4292-24.013.0965-4.147-1.1574-2.411-3.4718z" fill="#fff" stroke="#000" stroke-linecap="square" stroke-linejoin="bevel"/><path d="m152.625 59.7499c12.73-6.0699 25.405-6.0506 28.311.0433 2.906 6.0938-5.059 15.9544-17.789 22.0245-12.73 6.0698-25.405 6.0505-28.311-.0432-2.905-6.0939 5.059-15.9546 17.789-22.0246z" fill="url(#x)" filter="url(#c)" stroke-linecap="square" stroke-linejoin="bevel" stroke-width=".2"/><path d="m123.903 63.9962 34.557-.1126v4.9185l-34.493.0804z" fill="#80af64" stroke="#000"/><path d="m123.646 64.0605 37.887-20.3405 31.163-.1849-35.575 20.5416z" fill="url(#e)" stroke="#000"/><g stroke-linejoin="bevel"><path d="m141.84 59.8172 14.306-.0322 21.731-12.0872-14.916.1287z" fill="url(#g)" stroke-linecap="square" stroke-width=".2"/><path d="m158.878 63.5462 34.863-20.5898v5.9792l-34.863 19.8826z" fill="#80af64" stroke="#000" stroke-linecap="square"/><path d="m161.171 55.8878c12.73-6.07 25.406-6.0506 28.311.0432 2.906 6.0937-5.058 15.9544-17.788 22.0244-12.73 6.0701-25.406 6.0506-28.311-.0432-2.906-6.0938 5.058-15.9546 17.788-22.0244z" fill="url(#y)" filter="url(#c)" stroke-linecap="square" stroke-width=".2"/><path d="m133.788 68.8022 17.938.0964-6.365 6.9437h-16.877z" fill="#80af64" stroke="#000"/><path d="m41 1.00006h160c22.091 0 40 17.90844 40 40.00004v159.9999c0 22.091-17.909 40-40 40h-160c-22.0914 0-40.000002-17.909-40.000002-40v-159.9999c0-22.0916 17.908602-40.00004 40.000002-40.00004z" fill="url(#z)" stroke="#000" stroke-linecap="square" stroke-width="8"/><path d="m197.701 70.5495 34.847-19.4806v18.3877l-34.847 20.3809z" fill="#fff" stroke="#000" stroke-linecap="square"/><path d="m166.841 69.4566h30.603l.016 20.4291-24.013.0964-4.147-1.1573-2.411-3.4717z" fill="#fff" stroke="#000" stroke-linecap="square"/><path d="m193.216 60.2277c12.73-6.0699 25.406-6.0506 28.311.0432 2.906 6.0939-5.058 15.9545-17.788 22.0246-12.73 6.0698-25.406 6.0505-28.311-.0432-2.906-6.0939 5.058-15.9546 17.788-22.0246z" fill="url(#x)" filter="url(#c)" stroke-linecap="square" stroke-width=".2"/></g><path d="m164.494 64.4741 34.558-.1126v4.9183l-34.494.0806z" fill="#80af64" stroke="#000"/><path d="m164.237 64.5383 37.887-20.3405 31.164-.1849-35.576 20.5416z" fill="url(#e)" stroke="#000"/><path d="m182.432 60.2949 14.305-.0321 21.731-12.0872-14.916.1287z" fill="url(#A)" stroke-linecap="square" stroke-linejoin="bevel" stroke-width=".2"/><path d="m199.47 64.024 34.862-20.5899v5.9793l-34.862 19.8826z" fill="#80af64" stroke="#000" stroke-linecap="square" stroke-linejoin="bevel"/><path d="m201.763 56.3654c12.73-6.0699 25.405-6.0505 28.311.0432 2.905 6.0939-5.059 15.9545-17.789 22.0246-12.73 6.0699-25.405 6.0505-28.311-.0432-2.906-6.0938 5.059-15.9546 17.789-22.0246z" fill="url(#l)" filter="url(#c)" stroke-linecap="square" stroke-linejoin="bevel" stroke-width=".2"/><path d="m174.379 69.2798 17.938.0965-6.365 6.9436h-16.877z" fill="#80af64" stroke="#000" stroke-linejoin="bevel"/><path d="m153.827 108.742 34.846-19.4812v18.3882l-34.846 20.38z" fill="#fff" stroke="#000" stroke-linecap="square" stroke-linejoin="bevel"/><path d="m122.966 107.648h30.603l.016 20.43-24.013.096-4.147-1.157-2.411-3.472z" fill="#fff" stroke="#000" stroke-linecap="square" stroke-linejoin="bevel"/><path d="m149.341 98.4196c12.73-6.0699 25.406-6.0506 28.311.0432 2.906 6.0942-5.058 15.9542-17.788 22.0242s-25.406 6.051-28.311-.043c-2.906-6.094 5.058-15.954 17.788-22.0244z" fill="url(#o)" filter="url(#c)" stroke-linecap="square" stroke-linejoin="bevel" stroke-width=".2"/><path d="m120.619 102.666 34.558-.113v4.919l-34.493.08z" fill="#80af64" stroke="#000"/><path d="m120.362 102.73 37.887-20.3403 31.164-.1849-35.575 20.5412z" fill="url(#e)" stroke="#000"/><path d="m138.557 98.4869 14.305-.0322 21.731-12.0872-14.916.1287z" fill="url(#B)" stroke-linecap="square" stroke-linejoin="bevel" stroke-width=".2"/><path d="m155.595 102.216 34.862-20.59v5.9793l-34.862 19.8827z" fill="#80af64" stroke="#000" stroke-linecap="square" stroke-linejoin="bevel"/><path d="m157.888 94.5574c12.73-6.0699 25.405-6.0505 28.311.0432 2.905 6.0934-5.059 15.9544-17.789 22.0244s-25.405 6.051-28.311-.043 5.059-15.955 17.789-22.0246z" fill="url(#l)" filter="url(#c)" stroke-linecap="square" stroke-linejoin="bevel" stroke-width=".2"/><path d="m130.504 107.472 17.938.096-6.365 6.944h-16.877z" fill="#80af64" stroke="#000" stroke-linejoin="bevel"/><path d="m194.418 109.219 34.847-19.4804v18.3874l-34.847 20.381z" fill="#fff" stroke="#000" stroke-linecap="square" stroke-linejoin="bevel"/><path d="m163.557 108.126h30.604l.016 20.429-24.014.097-4.146-1.157-2.411-3.472z" fill="#fff" stroke="#000" stroke-linecap="square" stroke-linejoin="bevel"/><path d="m189.933 98.8974c12.73-6.0699 25.405-6.0507 28.311.0432 2.906 6.0934-5.059 15.9544-17.789 22.0244s-25.405 6.051-28.311-.043 5.059-15.955 17.789-22.0246z" fill="url(#C)" filter="url(#c)" stroke-linecap="square" stroke-linejoin="bevel" stroke-width=".2"/><path d="m161.211 103.144 34.557-.113v4.919l-34.493.08z" fill="#80af64" stroke="#000"/><path d="m160.953 103.208 37.888-20.3405 31.163-.1849-35.575 20.5414z" fill="url(#e)" stroke="#000"/><path d="m179.148 98.9645 14.305-.0321 21.732-12.0871-14.916.1286z" fill="url(#A)" stroke-linecap="square" stroke-linejoin="bevel" stroke-width=".2"/><path d="m196.186 102.694 34.863-20.5902v5.9793l-34.863 19.8829z" fill="#80af64" stroke="#000" stroke-linecap="square" stroke-linejoin="bevel"/><path d="m198.479 95.0351c12.73-6.07 25.406-6.0505 28.311.0432 2.906 6.0937-5.058 15.9547-17.788 22.0247-12.731 6.07-25.406 6.05-28.312-.043-2.905-6.094 5.059-15.955 17.789-22.0249z" fill="url(#D)" filter="url(#c)" stroke-linecap="square" stroke-linejoin="bevel" stroke-width=".2"/><path d="m171.096 107.95 17.937.096-6.365 6.944h-16.876z" fill="#80af64" stroke="#000" stroke-linejoin="bevel"/><path d="m155.326 146.24 34.847-19.481v18.388l-34.847 20.38z" fill="#fff" stroke="#000" stroke-linecap="square" stroke-linejoin="bevel"/><path d="m124.466 145.147h30.603l.016 20.429-24.013.096-4.147-1.157-2.411-3.472z" fill="#fff" stroke="#000" stroke-linecap="square" stroke-linejoin="bevel"/><path d="m150.841 135.918c12.73-6.07 25.406-6.051 28.311.043 2.906 6.094-5.058 15.954-17.788 22.024-12.731 6.07-25.406 6.051-28.311-.043-2.906-6.094 5.058-15.954 17.788-22.024z" fill="url(#b)" filter="url(#c)" stroke-linecap="square" stroke-linejoin="bevel" stroke-width=".2"/><path d="m122.119 140.164 34.558-.113v4.919l-34.494.08z" fill="#80af64" stroke="#000"/><path d="m121.862 140.228 37.887-20.34 31.164-.185-35.576 20.541z" fill="url(#q)" stroke="#000"/><path d="m140.057 135.985 14.305-.032 21.731-12.087-14.916.128z" fill="url(#E)" stroke-linecap="square" stroke-linejoin="bevel" stroke-width=".2"/><path d="m157.095 139.714 34.862-20.59v5.979l-34.862 19.883z" fill="#80af64" stroke="#000" stroke-linecap="square" stroke-linejoin="bevel"/><path d="m159.388 132.055c12.73-6.069 25.405-6.05 28.311.044 2.905 6.094-5.059 15.954-17.789 22.024s-25.405 6.051-28.311-.043 5.059-15.955 17.789-22.025z" fill="url(#F)" filter="url(#c)" stroke-linecap="square" stroke-linejoin="bevel" stroke-width=".2"/><path d="m132.004 144.97 17.938.096-6.365 6.944h-16.877z" fill="#80af64" stroke="#000" stroke-linejoin="bevel"/><path d="m195.918 146.717 34.847-19.48v18.387l-34.847 20.381z" fill="#fff" stroke="#000" stroke-linecap="square" stroke-linejoin="bevel"/><path d="m165.057 145.624h30.604l.016 20.429-24.014.097-4.147-1.157-2.411-3.472z" fill="#fff" stroke="#000" stroke-linecap="square" stroke-linejoin="bevel"/><path d="m191.433 136.395c12.73-6.069 25.405-6.05 28.311.044 2.905 6.093-5.059 15.954-17.789 22.024s-25.405 6.051-28.311-.043 5.059-15.955 17.789-22.025z" fill="url(#x)" filter="url(#c)" stroke-linecap="square" stroke-linejoin="bevel" stroke-width=".2"/><path d="m162.711 140.642 34.557-.113v4.919l-34.493.08z" fill="#80af64" stroke="#000"/><path d="m162.453 140.706 37.888-20.34 31.163-.185-35.575 20.541z" fill="url(#q)" stroke="#000"/><path d="m180.648 136.463 14.305-.033 21.731-12.087-14.916.129z" fill="url(#G)" stroke-linecap="square" stroke-linejoin="bevel" stroke-width=".2"/><path d="m197.686 140.192 34.863-20.59v5.979l-34.863 19.883z" fill="#80af64" stroke="#000" stroke-linecap="square" stroke-linejoin="bevel"/><path d="m199.979 132.533c12.73-6.07 25.406-6.05 28.311.043 2.906 6.094-5.058 15.955-17.789 22.025-12.73 6.07-25.405 6.05-28.311-.043-2.905-6.094 5.059-15.955 17.789-22.025z" fill="url(#l)" filter="url(#c)" stroke-linecap="square" stroke-linejoin="bevel" stroke-width=".2"/><path d="m172.596 145.448 17.937.096-6.365 6.944h-16.877z" fill="#80af64" stroke="#000" stroke-linejoin="bevel"/><path d="m155.326 183.738 34.847-19.481v18.388l-34.847 20.381z" fill="#fff" stroke="#000" stroke-linecap="square" stroke-linejoin="bevel"/><path d="m124.466 182.645h30.603l.016 20.429-24.013.096-4.147-1.157-2.411-3.472z" fill="#fff" stroke="#000" stroke-linecap="square" stroke-linejoin="bevel"/><path d="m150.841 173.416c12.73-6.07 25.406-6.051 28.311.043 2.906 6.094-5.058 15.955-17.788 22.025-12.731 6.069-25.406 6.05-28.311-.044-2.906-6.094 5.058-15.954 17.788-22.024z" fill="url(#b)" filter="url(#c)" stroke-linecap="square" stroke-linejoin="bevel" stroke-width=".2"/><path d="m122.119 177.662 34.558-.113v4.919l-34.494.08z" fill="#80af64" stroke="#000"/><path d="m121.862 177.726 37.887-20.34 31.164-.185-35.576 20.542z" fill="url(#q)" stroke="#000"/><path d="m140.057 173.483 14.305-.032 21.731-12.087-14.916.128z" fill="url(#H)" stroke-linecap="square" stroke-linejoin="bevel" stroke-width=".2"/><path d="m157.095 177.212 34.862-20.59v5.98l-34.862 19.882z" fill="#80af64" stroke="#000" stroke-linecap="square" stroke-linejoin="bevel"/><path d="m159.388 169.554c12.73-6.07 25.405-6.051 28.311.043 2.905 6.094-5.059 15.954-17.789 22.024s-25.405 6.051-28.311-.043 5.059-15.955 17.789-22.024z" fill="url(#I)" filter="url(#c)" stroke-linecap="square" stroke-linejoin="bevel" stroke-width=".2"/><path d="m132.004 182.468 17.938.096-6.365 6.944h-16.877z" fill="#80af64" stroke="#000" stroke-linejoin="bevel"/><path d="m195.918 184.215 34.847-19.48v18.387l-34.847 20.381z" fill="#fff" stroke="#000" stroke-linecap="square" stroke-linejoin="bevel"/><path d="m165.057 183.122h30.604l.016 20.429-24.014.097-4.146-1.157-2.411-3.472z" fill="#fff" stroke="#000" stroke-linecap="square" stroke-linejoin="bevel"/><path d="m191.433 173.893c12.73-6.069 25.405-6.05 28.311.044 2.905 6.094-5.059 15.954-17.789 22.024s-25.405 6.051-28.311-.043 5.059-15.954 17.789-22.025z" fill="url(#x)" filter="url(#c)" stroke-linecap="square" stroke-linejoin="bevel" stroke-width=".2"/><path d="m162.711 178.14 34.557-.113v4.919l-34.493.08z" fill="#80af64" stroke="#000"/><path d="m162.453 178.204 37.888-20.34 31.163-.185-35.575 20.541z" fill="url(#q)" stroke="#000"/><path d="m180.648 173.961 14.305-.032 21.732-12.088-14.916.129z" fill="url(#J)" stroke-linecap="square" stroke-linejoin="bevel" stroke-width=".2"/><path d="m197.686 177.69 34.863-20.59v5.979l-34.863 19.883z" fill="#80af64" stroke="#000" stroke-linecap="square" stroke-linejoin="bevel"/><path d="m199.979 170.031c12.73-6.07 25.406-6.05 28.311.043 2.906 6.094-5.058 15.955-17.789 22.025-12.73 6.07-25.405 6.051-28.311-.043-2.905-6.094 5.059-15.955 17.789-22.025z" fill="url(#K)" filter="url(#c)" stroke-linecap="square" stroke-linejoin="bevel" stroke-width=".2"/><path d="m172.596 182.946 17.937.096-6.365 6.944h-16.876z" fill="#80af64" stroke="#000" stroke-linejoin="bevel"/><path d="m58.5091 152.083h-42.24v-11.52h14.4v-42.2395l-14.4 2.8805v-11.5205l28.8-5.76v56.6395h13.44z" stroke="#fff" stroke-linejoin="round" stroke-width="4"/><path d="m91.7191 153.043c-16.38 0-24.57-11.169-24.57-33.509 0-11.59 2.215-20.423 6.645-26.4981 4.43-6.0749 10.855-9.1124 19.275-9.1124 15.9999 0 23.9999 11.355 23.9999 34.0655 0 11.31-2.185 19.98-6.555 26.01s-10.6349 9.044-18.7949 9.044zm.705-57.5995c-6.61 0-9.915 7.9105-9.915 23.7305 0 14.899 3.24 22.35 9.72 22.35 6.32 0 9.4799-7.68 9.4799-23.041 0-15.359-3.0949-23.0395-9.2849-23.0395z" stroke="#fff" stroke-linejoin="round" stroke-width="4"/><path d="m147.399 153.043c-16.38 0-24.57-11.169-24.57-33.509 0-11.59 2.215-20.423 6.645-26.4981 4.43-6.0749 10.855-9.1124 19.275-9.1124 16 0 24 11.355 24 34.0655 0 11.31-2.185 19.98-6.555 26.01s-10.635 9.044-18.795 9.044zm.705-57.5995c-6.61 0-9.915 7.9105-9.915 23.7305 0 14.899 3.24 22.35 9.72 22.35 6.32 0 9.48-7.68 9.48-23.041 0-15.359-3.095-23.0395-9.285-23.0395z" stroke="#fff" stroke-linejoin="round" stroke-width="4"/><path d="m231.309 128.083-44.16 20.161v-11.22l31.68-12.631v-.194l-31.68-13.605v-11.3105l44.16 21.1205z" stroke="#fff" stroke-linejoin="round" stroke-width="4"/></svg>