<svg enable-background="new 0 0 242.00 242.00" height="242" viewBox="0 0 242 242" width="242" xmlns="http://www.w3.org/2000/svg" xmlns:xlink="http://www.w3.org/1999/xlink"><linearGradient id="a" gradientTransform="matrix(0 -1 1 0 -.581108 1.581108)" gradientUnits="objectBoundingBox" x1=".5" x2="1.66222" y1="1.08111" y2="1.08111"><stop offset="0" stop-color="#91c791"/><stop offset="1" stop-color="#fff"/></linearGradient><linearGradient id="b"><stop offset=".00925926" stop-color="#c0c0c0"/><stop offset=".197949" stop-color="#8b8b8b" stop-opacity=".501961"/><stop offset=".421296" stop-color="#575757" stop-opacity="0"/><stop offset=".611111" stop-color="#626262" stop-opacity="0"/><stop offset="1" stop-color="#c0c0c0" stop-opacity=".4"/></linearGradient><linearGradient id="c" gradientUnits="objectBoundingBox" x1="-.0487923" x2="1.04879" xlink:href="#b" y1=".5" y2=".5"/><filter id="d" filterUnits="userSpaceOnUse"><feGaussianBlur stdDeviation="1.88976"/></filter><linearGradient id="e"><stop offset="0" stop-color="#8fc072"/><stop offset=".662037" stop-color="#87b76b"/><stop offset="1" stop-color="#80af64"/></linearGradient><linearGradient id="f" gradientTransform="matrix(-1 0 0 -1 2.111732 1)" gradientUnits="objectBoundingBox" x1="1.05587" x2="2.1676" xlink:href="#e" y1=".5" y2=".5"/><linearGradient id="g" gradientTransform="matrix(-.999375865453 -.035325338633 .035325338633 -.999375865453 1.970746924113 1.345643517259)" gradientUnits="objectBoundingBox" x1=".997261" x2="2.03922" y1=".655412" y2=".655412"><stop offset="0" stop-color="#316013"/><stop offset=".662037" stop-color="#447327"/><stop offset="1" stop-color="#58873b"/></linearGradient><linearGradient id="h"><stop offset="0" stop-color="#c0c0c0" stop-opacity="0"/><stop offset=".19505" stop-color="#989898" stop-opacity="0"/><stop offset=".425926" stop-color="#707070" stop-opacity="0"/><stop offset=".787037" stop-color="#6c6c6c" stop-opacity="0"/><stop offset=".986111" stop-color="#b9b9b9" stop-opacity=".6"/></linearGradient><linearGradient id="i" gradientUnits="objectBoundingBox" x1="-.0487921" x2="1.04879" xlink:href="#h" y1=".5" y2=".5"/><linearGradient id="j" gradientUnits="objectBoundingBox" x1="-.0487921" x2="1.04879" xlink:href="#b" y1=".500002" y2=".500002"/><linearGradient id="k" gradientUnits="objectBoundingBox" x1="-.048792" x2="1.04879" xlink:href="#h" y1=".5" y2=".5"/><linearGradient id="l" gradientUnits="objectBoundingBox" x1="-.0487918" x2="1.04879" xlink:href="#b" y1=".5" y2=".5"/><linearGradient id="m" gradientTransform="matrix(-1 0 0 -1 2.111732 1.000006)" gradientUnits="objectBoundingBox" x1="1.05587" x2="2.1676" xlink:href="#e" y1=".500003" y2=".500003"/><linearGradient id="n" gradientUnits="objectBoundingBox" x1="-.0487925" x2="1.04879" xlink:href="#h" y1=".500002" y2=".500002"/><path d="m41 1.00006h160c22.091 0 40 17.90854 40 39.99984v160.0001c0 22.091-17.909 40-40 40h-160c-22.0914 0-40.000002-17.909-40.000002-40v-160.0001c0-22.0913 17.908602-39.99984 40.000002-39.99984z" fill="url(#a)" stroke="#000" stroke-linecap="square" stroke-linejoin="bevel" stroke-width="8"/><path d="m152.111 103.07 34.847-19.4805v18.3875l-34.847 20.381z" fill="#fff" stroke="#000" stroke-linecap="square" stroke-linejoin="bevel"/><path d="m121.25 101.977h30.604l.016 20.429-24.014.097-4.147-1.157-2.411-3.472z" fill="#fff" stroke="#000" stroke-linecap="square" stroke-linejoin="bevel"/><path d="m147.626 92.7484c12.73-6.07 25.405-6.0507 28.311.0432 2.905 6.0937-5.059 15.9544-17.789 22.0244s-25.405 6.051-28.311-.043 5.059-15.9548 17.789-22.0246z" fill="url(#c)" filter="url(#d)" stroke-linecap="square" stroke-linejoin="bevel" stroke-width=".2"/><path d="m118.904 96.9946 34.557-.1126v4.918l-34.493.081z" fill="#80af64" stroke="#000"/><path d="m118.646 97.0589 37.887-20.3405 31.164-.1849-35.575 20.5415z" fill="url(#f)" stroke="#000"/><g stroke-linejoin="bevel"><path d="m136.841 92.8155 14.305-.0321 21.731-12.0872-14.916.1287z" fill="url(#g)" stroke-linecap="square" stroke-width=".2"/><path d="m153.879 96.5445 34.863-20.5897v5.9792l-34.863 19.883z" fill="#80af64" stroke="#000" stroke-linecap="square"/><path d="m156.172 88.886c12.73-6.0698 25.405-6.0505 28.311.0433s-5.059 15.9547-17.789 22.0247-25.405 6.05-28.311-.043c-2.905-6.094 5.059-15.955 17.789-22.025z" fill="url(#i)" filter="url(#d)" stroke-linecap="square" stroke-width=".2"/><path d="m128.789 101.801 17.937.096-6.365 6.944h-16.877z" fill="#80af64" stroke="#000"/><path d="m109.798 165.353 34.847-19.48v18.388l-34.847 20.38z" fill="#fff" stroke="#000" stroke-linecap="square"/><path d="m78.9372 164.26h30.6038l.016 20.43-24.0138.096-4.1468-1.157-2.411-3.472z" fill="#fff" stroke="#000" stroke-linecap="square"/><path d="m105.313 155.032c12.73-6.07 25.405-6.051 28.311.043 2.905 6.094-5.059 15.954-17.789 22.024s-25.4055 6.051-28.3112-.043c-2.9056-6.094 5.0588-15.955 17.7892-22.024z" fill="url(#j)" filter="url(#d)" stroke-linecap="square" stroke-width=".2"/></g><path d="m76.5905 159.278 34.5575-.113v4.919l-34.4933.08z" fill="#80af64" stroke="#000"/><path d="m76.3333 159.342 37.8867-20.34 31.164-.185-35.575 20.541z" fill="url(#f)" stroke="#000"/><path d="m94.5282 155.099 14.3048-.032 21.731-12.088-14.916.129z" fill="url(#g)" stroke-linecap="square" stroke-linejoin="bevel" stroke-width=".2"/><path d="m111.566 158.828 34.863-20.59v5.979l-34.863 19.883z" fill="#80af64" stroke="#000" stroke-linecap="square" stroke-linejoin="bevel"/><path d="m113.859 151.169c12.73-6.07 25.405-6.05 28.311.043 2.906 6.094-5.059 15.955-17.789 22.025s-25.4051 6.051-28.3108-.043c-2.9056-6.094 5.0588-15.955 17.7888-22.025z" fill="url(#k)" filter="url(#d)" stroke-linecap="square" stroke-linejoin="bevel" stroke-width=".2"/><path d="m86.4755 164.084 17.9375.096-6.3648 6.944h-16.8769z" fill="#80af64" stroke="#000" stroke-linejoin="bevel"/><path d="m189.702 159.045 34.847-19.48v18.387l-34.847 20.381z" fill="#fff" stroke="#000" stroke-linecap="square" stroke-linejoin="bevel"/><path d="m158.842 157.952h30.603l.016 20.429-24.013.097-4.147-1.158-2.411-3.471z" fill="#fff" stroke="#000" stroke-linecap="square" stroke-linejoin="bevel"/><path d="m185.217 148.723c12.73-6.07 25.406-6.05 28.311.044 2.906 6.093-5.058 15.954-17.788 22.024-12.731 6.07-25.406 6.051-28.311-.043-2.906-6.094 5.058-15.955 17.788-22.025z" fill="url(#l)" filter="url(#d)" stroke-linecap="square" stroke-linejoin="bevel" stroke-width=".2"/><path d="m156.495 152.97 34.558-.113v4.918l-34.494.081z" fill="#80af64" stroke="#000"/><path d="m156.238 153.034 37.887-20.341 31.164-.185-35.576 20.542z" fill="url(#m)" stroke="#000"/><path d="m174.433 148.79 14.305-.032 21.731-12.087-14.916.129z" fill="url(#g)" stroke-linecap="square" stroke-linejoin="bevel" stroke-width=".2"/><path d="m191.47 152.52 34.863-20.59v5.979l-34.863 19.883z" fill="#80af64" stroke="#000" stroke-linecap="square" stroke-linejoin="bevel"/><path d="m193.764 144.861c12.73-6.07 25.405-6.051 28.311.043 2.905 6.094-5.059 15.955-17.789 22.025s-25.405 6.05-28.311-.043c-2.906-6.094 5.059-15.955 17.789-22.025z" fill="url(#n)" filter="url(#d)" stroke-linecap="square" stroke-linejoin="bevel" stroke-width=".2"/><path d="m166.38 157.775 17.938.097-6.365 6.943h-16.877z" fill="#80af64" stroke="#000" stroke-linejoin="bevel"/><path d="m58.5091 145.083h-42.24v-11.52h14.4v-42.2397l-14.4 2.8801v-11.52l28.8-5.76v56.6396h13.44z" stroke="#fff" stroke-linejoin="round" stroke-width="2"/><path d="m119.949 121.083-44.1599 20.16v-11.22l31.6799-12.63v-.195l-31.6799-13.605v-11.3096l44.1599 21.1196z" stroke="#fff" stroke-linejoin="round" stroke-width="2"/></svg>