<svg enable-background="new 0 0 88.00 76.00" height="76" viewBox="0 0 88 76" width="87.9999" xmlns="http://www.w3.org/2000/svg"><g stroke-linejoin="round" stroke-width=".2"><path d="m75.1966 74.0833 10.1367-10.9903v-27.0097c0-2.2091-1.7909-4-4-4h-11c-2.2091 0-4 1.7909-4 4v34c0 2.2091 1.7909 4 4 4z" fill="#ff451a"/><g fill="#646464"><path d="m73.4583 34.9166h4c1.1046 0 2 .8955 2 2v4c0 1.1046-.8954 2-2 2h-4c-1.1046 0-2-.8954-2-2v-4c0-1.1045.8954-2 2-2z"/><path d="m73.5208 47.3542h4c1.1046 0 2 .8954 2 2v3.9999c0 1.1046-.8954 2-2 2h-4c-1.1046 0-2-.8954-2-2v-3.9999c0-1.1046.8954-2 2-2z"/><path d="m73.2708 59.7292h4c1.1046 0 2 .8954 2 2v3.9999c0 1.1046-.8954 2-2 2h-4c-1.1046 0-2-.8954-2-2v-3.9999c0-1.1046.8954-2 2-2z"/></g></g></svg>