<?xml version="1.0" encoding="utf-8"?>
<!DOCTYPE svg PUBLIC "-//W3C//DTD SVG 1.1//EN" "http://www.w3.org/Graphics/SVG/1.1/DTD/svg11.dtd">
<svg xmlns="http://www.w3.org/2000/svg" xmlns:xlink="http://www.w3.org/1999/xlink" version="1.1" baseProfile="full" width="90" height="77.7273" viewBox="0 0 90.00 77.73" enable-background="new 0 0 90.00 77.73" xml:space="preserve">
	<g>
		<path fill="#FF451A" fill-opacity="1" stroke-width="0.2" stroke-linejoin="round" d="M 75.2578,73.9799L 85.3945,62.9895L 85.3945,35.9799C 85.3945,33.7707 83.6037,31.9799 81.3945,31.9799L 70.3945,31.9799C 68.1854,31.9799 66.3945,33.7707 66.3945,35.9799L 66.3945,69.9799C 66.3945,72.189 68.1854,73.9799 70.3945,73.9799L 75.2578,73.9799 Z "/>
		<path fill="#646464" fill-opacity="1" stroke-width="0.2" stroke-linejoin="round" d="M 73.5195,34.8132L 77.5195,34.8132C 78.6241,34.8132 79.5195,35.7086 79.5195,36.8132L 79.5195,40.8132C 79.5195,41.9177 78.6241,42.8132 77.5195,42.8132L 73.5195,42.8132C 72.415,42.8132 71.5195,41.9177 71.5195,40.8132L 71.5195,36.8132C 71.5195,35.7086 72.415,34.8132 73.5195,34.8132 Z "/>
		<path fill="#646464" fill-opacity="1" stroke-width="0.2" stroke-linejoin="round" d="M 73.582,47.2507L 77.582,47.2507C 78.6866,47.2507 79.582,48.1461 79.582,49.2507L 79.582,53.2507C 79.582,54.3553 78.6866,55.2507 77.582,55.2507L 73.582,55.2507C 72.4775,55.2507 71.582,54.3553 71.582,53.2507L 71.582,49.2507C 71.582,48.1461 72.4775,47.2507 73.582,47.2507 Z "/>
		<path fill="#646464" fill-opacity="1" stroke-width="0.2" stroke-linejoin="round" d="M 73.332,59.6257L 77.332,59.6257C 78.4366,59.6257 79.332,60.5211 79.332,61.6257L 79.332,65.6257C 79.332,66.7303 78.4366,67.6257 77.332,67.6257L 73.332,67.6257C 72.2275,67.6257 71.332,66.7303 71.332,65.6257L 71.332,61.6257C 71.332,60.5211 72.2275,59.6257 73.332,59.6257 Z "/>
	</g>
</svg>
