<?xml version="1.0" encoding="utf-8"?>
<!DOCTYPE svg PUBLIC "-//W3C//DTD SVG 1.1//EN" "http://www.w3.org/Graphics/SVG/1.1/DTD/svg11.dtd">
<svg xmlns="http://www.w3.org/2000/svg" xmlns:xlink="http://www.w3.org/1999/xlink" version="1.1" baseProfile="full" width="90" height="77.7272" viewBox="0 0 90.00 77.73" enable-background="new 0 0 90.00 77.73" xml:space="preserve">
	<g>
		<path fill="#FFD23F" fill-opacity="1" stroke-width="0.2" stroke-linejoin="round" d="M 75.2578,73.9798L 85.3946,62.9895L 85.3946,35.9798C 85.3946,33.7707 83.6037,31.9798 81.3946,31.9798L 70.3946,31.9798C 68.1854,31.9798 66.3946,33.7707 66.3946,35.9798L 66.3946,69.9798C 66.3946,72.189 68.1854,73.9798 70.3946,73.9798L 75.2578,73.9798 Z "/>
		<path fill="#646464" fill-opacity="1" stroke-width="0.2" stroke-linejoin="round" d="M 73.5196,34.8132L 77.5196,34.8132C 78.6241,34.8132 79.5196,35.7086 79.5196,36.8132L 79.5196,40.8132C 79.5196,41.9177 78.6241,42.8132 77.5196,42.8132L 73.5196,42.8132C 72.415,42.8132 71.5196,41.9177 71.5196,40.8132L 71.5196,36.8132C 71.5196,35.7086 72.415,34.8132 73.5196,34.8132 Z "/>
		<path fill="#646464" fill-opacity="1" stroke-width="0.2" stroke-linejoin="round" d="M 73.5821,47.2507L 77.5821,47.2507C 78.6866,47.2507 79.5821,48.1461 79.5821,49.2507L 79.5821,53.2507C 79.5821,54.3552 78.6866,55.2507 77.5821,55.2507L 73.5821,55.2507C 72.4775,55.2507 71.5821,54.3552 71.5821,53.2507L 71.5821,49.2507C 71.5821,48.1461 72.4775,47.2507 73.5821,47.2507 Z "/>
		<path fill="#646464" fill-opacity="1" stroke-width="0.2" stroke-linejoin="round" d="M 73.3321,59.6257L 77.3321,59.6257C 78.4366,59.6257 79.3321,60.5211 79.3321,61.6257L 79.3321,65.6257C 79.3321,66.7302 78.4366,67.6257 77.3321,67.6257L 73.3321,67.6257C 72.2275,67.6257 71.3321,66.7302 71.3321,65.6257L 71.3321,61.6257C 71.3321,60.5211 72.2275,59.6257 73.3321,59.6257 Z "/>
	</g>
</svg>
