<svg enable-background="new 0 0 159.00 132.33" height="132.333" viewBox="0 0 159 132.33" width="159" xmlns="http://www.w3.org/2000/svg" xmlns:xlink="http://www.w3.org/1999/xlink"><linearGradient id="a" gradientUnits="objectBoundingBox" x1=".00998206" x2="1.00727" y1=".505971" y2=".505971"><stop offset="0" stop-color="#9dc0a5"/><stop offset=".224599" stop-color="#9dce9b"/><stop offset=".281821" stop-color="#557853"/><stop offset=".502674" stop-color="#0d230c"/><stop offset=".750537" stop-color="#436242"/><stop offset=".812834" stop-color="#7aa178"/><stop offset="1" stop-color="#4c7e4a"/></linearGradient><radialGradient id="b" cx="80.9222" cy="65.8204" gradientTransform="matrix(.992694736145 .120653059759 -.120653059759 .992694736145 8.532587730229 -9.282678970346)" gradientUnits="userSpaceOnUse" r="62.2462"><stop offset="0" stop-color="#fff"/><stop offset="1" stop-color="#119a00"/></radialGradient><linearGradient id="c" gradientUnits="objectBoundingBox" x1="-.00000113367" x2=".999999" y1=".499999" y2=".499999"><stop offset="0" stop-color="#acc4ac"/><stop offset=".40107" stop-color="#6faf7d"/><stop offset="1" stop-color="#5fb271"/></linearGradient><path d="m6.76665 63.7578 5.50005 29.75s15.4999 28.0002 58.2499 32.5002l12.7501.75s42.5003-2.5 65.5003-32.5002l4.75-32z" fill="url(#a)" stroke-linejoin="round" stroke-width=".2"/><path d="m145.267 55.6807c-.631 44.3253-28.861 52.2683-65.0355 52.2683-36.1746 0-65.1413-13.7191-65.965-52.2683-.5183-24.2527 29.3256-43.9228 65.5002-43.9228 36.1743 0 65.8453 19.6675 65.5003 43.9228z" fill="#206635" stroke-linejoin="round" stroke-width=".2"/><path d="m141.085 69.4597c0 23.5965-23.297 39.5143-59.7355 39.5143-36.4377 0-61.6338-15.1017-59.7367-38.6227 2.2286-27.6393 21.982-47.3642 58.3983-48.5914 39.6759-1.3377 61.0739 24.1025 61.0739 47.6998z" fill="none" stroke="#fff" stroke-linejoin="round" stroke-width="2.14133"/><path d="m139.188 69.3292c0 22.8471-22.559 38.2588-57.84 38.2588-35.2814 0-59.6768-14.6217-57.8406-37.3962 2.158-26.7619 21.2843-45.8596 56.5446-47.0484 38.416-1.295 59.136 23.3375 59.136 46.1858z" fill="none" stroke="#f00" stroke-width="4.28267"/><g stroke-width=".2"><path d="m20.1172 55.8967c-8.0915 25.1394 12.5724 49.9583 46.1529 55.4403l0 0c33.5809 5.481 67.3649-10.455 75.4569-35.5936l0 0c8.091-25.1377-12.571-49.9587-46.1521-55.4395l0 0c-4.4685-.7295-8.9342-1.0794-13.3489-1.079l0 0c-28.7624.0021-55.0932 14.8786-62.1088 36.6718z" fill="url(#b)" stroke-linejoin="round"/><path d="m94.4341 24.6292c-.3731-.0557-.7183.1558-.863.6124-.1281.4566.0389.735.3897.7906.4065.0613.7127-.1614.8519-.6236.1392-.4342 0-.7238-.3786-.7794zm-.0613.1392c.2562.0334.2896.2784.1893.6068-.1057.3508-.2895.5513-.54.5123-.2227-.0334-.3063-.2562-.2005-.6125.117-.3675.3341-.5401.5512-.5066z" fill="#fff" stroke-linejoin="round"/><path d="m106.909 29.4404.078-.1393-.729-.2728v-.0055l.172-.0446c.485-.128.802-.2339.924-.4621.095-.1781.05-.4231-.3-.5512-.19-.0724-.373-.0724-.529-.039l.011.1392c.1-.0167.256-.0334.401.0222.239.0892.256.2395.189.3675-.106.1893-.379.284-.963.4343l-.24.0557-.055.1058z" fill="#fff" stroke-linejoin="round"/><path d="m108.519 28.5305c-.329-.1281-.685.0056-.919.4232-.228.4175-.145.7237.161.8463.362.1447.691-.0112.925-.4288.222-.3953.167-.7071-.167-.8407zm-.084.1225c.223.0946.201.3341.033.6347-.183.3173-.395.4733-.618.3842-.194-.078-.217-.3062-.033-.6292.189-.3396.423-.4621.618-.3897z" fill="#fff" stroke-linejoin="round"/><path d="m118.55 35.4695.245-.2895.184.128.089-.1113-.184-.128.557-.6626-.2-.1336-1.153.284-.078.0946.613.4176-.245.2895zm-.273-.8073.006-.0055.624-.1448c.083-.0223.15-.039.245-.078h.005c-.05.0557-.1.1114-.145.1671l-.3.3563z" fill="#fff" stroke-linejoin="round"/><path d="m120.385 35.0597c-.262-.1893-.613-.1336-.919.2172-.295.3452-.295.6569-.045.8351.284.2061.618.1281.925-.2227.295-.3285.306-.6347.039-.8296zm-.106.1002c.184.1281.111.3564-.106.6069-.234.2673-.468.3786-.646.245-.156-.1113-.122-.3396.112-.6069.25-.2839.489-.3563.64-.245z" fill="#fff" stroke-linejoin="round"/><path d="m130.176 44.3456c-.028-.0334-.061-.0723-.111-.1169-.151-.1615-.323-.2673-.518-.3007-.217-.0501-.484-.0111-.729.167-.323.2339-.385.5791-.167.8631.217.2839.556.3006.785.1336.245-.1782.272-.4566.089-.696-.112-.1503-.268-.2171-.396-.2227l0 0c .229-.1225.535-.1114.797.1448.044.0501.083.0891.111.1336zm-1.392.5179c-.145-.1894-.072-.401.123-.5513.033-.0222.066-.0278.094-.0334.123-.0167.268.039.351.1503.128.167.111.3564-.067.4844-.178.1281-.378.1114-.501-.05z" fill="#fff" stroke-linejoin="round"/><path d="m130.786 45.21c-.195-.2784-.568-.3174-.986-.0334-.417.2895-.512.6347-.328.8965.217.3062.585.3228 1.008.0278.401-.2673.517-.5958.306-.8909zm-.134.0835c.139.1893 0 .4121-.312.6237-.317.2171-.59.2672-.723.0779-.123-.1727-.011-.4009.317-.6236.34-.2339.607-.2394.718-.078z" fill="#fff" stroke-linejoin="round"/><path d="m134.47 56.3087c.083.2951.306.4677.54.3842.161-.0557.25-.2171.256-.4287h.005c.128.1503.279.1726.39.1336.167-.0613.284-.2672.201-.5624-.078-.2728-.273-.4287-.49-.3507-.112.0389-.218.1559-.234.3507l-.006.0056c-.122-.167-.273-.2394-.445-.1782-.195.0724-.312.323-.217.6459zm.133-.039c-.055-.2004.028-.3619.162-.4064.133-.0445.261.0223.362.1838.005.2282-.034.3841-.195.4398-.14.0501-.273-.0279-.329-.2172zm1.125-.4009c.056.1838-.034.3007-.145.3453-.117.039-.228-.0334-.306-.1504-.006-.2004.028-.3396.161-.3897.117-.039.24.0167.29.1948z" fill="#fff" stroke-linejoin="round"/><path d="m136.228 57.272c-.073-.3173-.373-.4621-.819-.3173-.451.1447-.645.4342-.579.7349.084.3507.385.4677.841.3174.423-.1337.635-.401.557-.735zm-.139.0334c.05.2171-.145.3897-.479.4956-.34.1113-.579.0723-.629-.1393-.045-.1948.122-.3786.473-.4899.367-.1169.59-.0502.635.1336z" fill="#fff" stroke-linejoin="round"/><path d="m135.283 69.4687-.039.2394 1.52.0279.033-.2116-.111-.4065-.162.0446.09.3285v.0055z" fill="#fff" stroke-linejoin="round"/><path d="m136.52 71.1316c.084-.3731-.133-.6682-.646-.696-.495-.0278-.824.2004-.907.5679-.084.4065.15.6571.668.6905.479.0278.802-.1726.885-.5624zm-.145-.0223c-.055.2561-.328.3563-.701.3341-.384-.0278-.601-.1615-.546-.4176.05-.2283.306-.3675.696-.3396.412.0222.596.2005.551.4231z" fill="#fff" stroke-linejoin="round"/><path d="m136.157 72.6805c.095-.3675-.106-.6681-.612-.7238-.496-.0501-.835.1615-.93.5234-.106.4064.117.6737.624.7294.478.0557.812-.1392.918-.529zm-.156-.0278c-.066.2561-.334.3452-.701.3062-.384-.0445-.602-.1893-.535-.4454.062-.2227.323-.3508.713-.3062.406.0445.585.2282.523.4454z" fill="#fff" stroke-linejoin="round"/><path d="m129.319 83.7707-.139.1949 1.141.6236.123-.1726.094-.4009-.139-.0278-.083.3173v.0056z" fill="#fff" stroke-linejoin="round"/><path d="m127.959 85.5856.128.0779.513-.6626-.006.1726c-.017.4455 0 .7461.201.8687.161.1002.434.0612.679-.2506.133-.1726.195-.3452.211-.4844l-.161-.0056c-.006.0947-.045.2339-.15.373-.167.2172-.329.2228-.44.156-.167-.1058-.178-.362-.162-.902l.011-.2283-.094-.0557z" fill="#fff" stroke-linejoin="round"/><path d="m128.394 87.1513c.245-.2895.218-.6347-.144-.8797-.368-.2394-.724-.1782-.958.1002-.267.323-.223.6459.15.8964.34.2283.691.1949.952-.1169zm-.105-.0835c-.173.206-.418.1726-.691-.0055-.273-.1894-.373-.4009-.206-.6014.151-.1781.407-.1837.685.0056.301.206.351.4343.212.6013z" fill="#fff" stroke-linejoin="round"/><path d="m118.605 94.3909-.217.156.824 1.0968.195-.1392.268-.3841-.129-.0836-.217.3063-.005.0055z" fill="#fff" stroke-linejoin="round"/><path d="m116.807 95.6266.212.3118-.245.1615.084.1169.245-.1615.49.7127.245-.167.272-1.2417-.072-.1002-.802.5345-.211-.3118zm1.075-.0947.006.0056-.151.6737c-.011.0891-.022.1615-.028.2617l-.005.0056c-.039-.0668-.078-.1225-.123-.1838l-.261-.3841z" fill="#fff" stroke-linejoin="round"/><path d="m116.537 97.485c.362-.2227.479-.6069.234-.9967-.262-.3897-.629-.4621-.969-.2449-.401.2449-.484.6124-.228 1.0189.234.373.585.4621.963.2227zm-.067-.128c-.25.1559-.473.0334-.657-.2617-.189-.3007-.2-.5624.045-.7127.223-.1392.473-.0557.663.2505.206.323.155.5902-.051.7239z" fill="#fff" stroke-linejoin="round"/><path d="m104.612 101.735-.228.084.361 1.23.206-.078.34-.289-.078-.106-.278.228-.006.006z" fill="#fff" stroke-linejoin="round"/><path d="m102.888 103.717c.045-.011.111-.033.184-.066.217-.09.401-.229.523-.379.139-.178.217-.418.156-.663-.084-.328-.39-.451-.768-.323-.379.128-.546.418-.485.646.061.245.323.323.641.217.2-.066.328-.178.4-.289h.006c.017.217-.139.479-.507.651-.067.034-.133.056-.183.073zm.128-1.297c.251-.083.423.022.49.223.006.028-.006.055-.017.083-.044.112-.161.223-.311.273-.223.078-.396.022-.44-.156-.045-.184.061-.351.278-.423z" fill="#fff" stroke-linejoin="round"/><path d="m101.717 104.11c.373-.117.585-.429.49-.857-.111-.423-.401-.574-.746-.468-.412.128-.579.44-.485.869.095.406.362.573.741.456zm-.011-.139c-.256.084-.412-.089-.485-.401-.072-.323 0-.568.257-.646.217-.067.4.078.478.407.078.345-.033.573-.25.64z" fill="#fff" stroke-linejoin="round"/><path d="m90.0558 105.355-.2394.033.0167 1.37.2171-.028.412-.228-.0445-.123-.3341.167h-.0111z" fill="#fff" stroke-linejoin="round"/><path d="m88.4076 105.539c-.3675.045-.6515.234-.657.468 0 .173.1392.284.3842.317v.006c-.2395.106-.323.239-.323.356-.0055.167.1893.318.5512.279.3397-.039.5902-.218.5958-.435 0-.117-.0891-.228-.2951-.278l-.0111-.006c.2449-.094.3897-.234.3897-.412.0056-.195-.2394-.339-.6347-.295zm-.0112.134c.245-.028.3842.078.3787.223 0 .133-.1225.25-.3453.323-.2505-.023-.4175-.09-.4175-.257.0055-.139.1559-.261.3841-.289zm-.0167 1.152c-.2282.028-.3229-.078-.3173-.183 0-.128.1225-.229.2951-.284.2171.016.3563.078.3563.217-.0056.111-.1169.228-.3341.25z" fill="#fff" stroke-linejoin="round"/><path d="m86.725 107.135c.3898-.039.6793-.318.696-.78.0056-.456-.2339-.685-.6013-.651-.4288.039-.6737.323-.6904.785-.0167.44.2004.679.5957.646zm.0223-.151c-.2673.028-.3731-.183-.3619-.523.0167-.351.1447-.585.412-.612.2338-.023.3786.172.3619.529-.0111.373-.1837.59-.412.606z" fill="#fff" stroke-linejoin="round"/><path d="m74.1603 105.779-.0334.155.8408.062-.0056.005-.1671.089c-.4565.251-.7572.44-.8129.696-.0445.201.078.418.4844.446.2172.016.4065-.028.5568-.1l-.0501-.134c-.1002.039-.2561.095-.4231.083-.2784-.022-.3452-.161-.3118-.3.0556-.212.3062-.373.863-.674l.2283-.122.0278-.117z" fill="#fff" stroke-linejoin="round"/><path d="m72.8122 107.09c.3786.033.7071-.195.824-.657.1114-.457-.0723-.73-.4287-.769-.4176-.039-.7182.201-.8352.663-.1113.44.0557.724.4399.763zm.0501-.145c-.2617-.028-.3173-.267-.2283-.601.0891-.357.2617-.557.5234-.535.2227.022.3174.24.2283.601-.0947.374-.3007.557-.5234.535z" fill="#fff" stroke-linejoin="round"/><path d="m71.2322 106.915c.3786.044.7071-.179.8352-.641.1224-.456-.0557-.735-.4065-.774-.4176-.05-.7182.178-.8463.641-.1169.44.0334.729.4176.774zm.0557-.145c-.2617-.028-.3118-.267-.2172-.607.0947-.351.2784-.551.5345-.523.2227.027.3118.245.2116.601-.1002.378-.3118.557-.5289.529z" fill="#fff" stroke-linejoin="round"/><path d="m59.668 103.016-.0668.145.7628.223-.0056.005-.1726.056c-.4788.156-.7962.284-.9075.524-.0891.183-.0279.423.3396.534.2004.056.3897.045.5456.006l-.0222-.14c-.1002.017-.2561.039-.4065-.005-.2505-.073-.2784-.223-.2227-.351.1002-.2.3675-.301.9465-.49l.245-.072.0501-.112z" fill="#fff" stroke-linejoin="round"/><path d="m58.2387 102.558-.0724.144.7517.245v.006l-.1726.044c-.4844.151-.8018.268-.9187.507-.0891.184-.0334.418.3285.535.1949.066.3842.061.5401.022l-.0167-.139c-.1002.016-.2561.039-.4065-.011-.245-.078-.2728-.229-.2116-.357.1003-.195.3731-.295.9521-.473l.2506-.072.0501-.106z" fill="#fff" stroke-linejoin="round"/><path d="m56.648 103.528c.3396.117.696-.034.9187-.457.2116-.423.1113-.729-.206-.841-.3675-.128-.696.039-.9187.468-.2116.401-.1337.707.206.83zm.0835-.128c-.2339-.084-.2171-.323-.0557-.63.1671-.328.3731-.49.6069-.412.1949.073.2283.307.0613.635-.1838.345-.4176.473-.6125.407z" fill="#fff" stroke-linejoin="round"/><path d="m47.6888 97.8816-.0947.128.6459.3564v.0055l-.1726.0167c-.4677.0669-.7795.1281-.9298.3396-.1225.1615-.1225.3954.1893.5735.167.0891.3452.117.4955.1114l.0112-.1448c-.0947 0-.245-.0055-.3731-.0723-.2116-.1225-.206-.2673-.1225-.3842.1336-.1726.4009-.2283.9688-.2895l.2339-.0334.0668-.0947z" fill="#fff" stroke-linejoin="round"/><path d="m46.5612 97.2112-.2283.3007-.1948-.1169-.0891.1169.1949.1169-.529.696.206.1281 1.1637-.3452.078-.1002-.6515-.3842.2283-.3007zm.323.8018-.0056.0056-.6347.1726c-.078.0279-.1448.0501-.2395.0946l-.0055-.0055c.0501-.0501.0946-.1058.1392-.1671l.2839-.373z" fill="#fff" stroke-linejoin="round"/><path d="m44.7208 97.7292c.2784.1782.6347.1002.9298-.2672.2784-.362.2561-.6737-.0055-.8408-.3063-.1949-.6348-.0946-.9243.2673-.2784.3508-.284.6626 0 .8407zm.1058-.1113c-.1893-.1225-.1336-.3508.0779-.6181.2227-.2784.451-.3952.6403-.2728.1615.1058.1448.3341-.0779.618-.2394.2951-.4788.3786-.6403.2729z" fill="#fff" stroke-linejoin="round"/><path d="m36.2346 88.8453-.1337.1114.5401.5735-.0056.0056-.1837-.0335c-.4955-.0612-.8296-.0779-1.0468.1058-.1726.1448-.2394.412.0167.6849.1392.1447.3007.2282.4566.2616l.0668-.1559c-.1058-.0222-.245-.0723-.3563-.1892-.1782-.1894-.1225-.3452-.0056-.4455.1782-.1503.4733-.128 1.0635-.0557l.2505.0335.1002-.0835z" fill="#fff" stroke-linejoin="round"/><path d="m34.1432 88.8547c.0223.0279.0668.0669.1225.1114.1615.1503.3508.2505.5401.2728.2282.039.4955-.0167.7349-.2116.3174-.2505.3619-.5957.1169-.8741-.2394-.2728-.5846-.2728-.8073-.0947-.2394.1949-.2505.4789-.0445.7127.1225.1448.2784.2004.412.1949l.0056.0055c-.2228.1337-.5401.1392-.8241-.1058-.0501-.0444-.0946-.0835-.1169-.1225zm1.3864-.5957c.1615.1837.1002.3953-.0947.5624-.0278.0222-.0612.0333-.0891.0333-.128.0279-.2783-.0222-.373-.128-.1392-.1615-.1281-.3508.0445-.49s.3787-.1281.5123.0223z" fill="#fff" stroke-linejoin="round"/><path d="m33.4733 88.0329c.2171.2672.6013.2895 1.0077-.0223.412-.3118.49-.6626.2784-.9187-.2394-.2951-.6124-.284-1.03.0279-.3842.2951-.4844.6291-.2561.9131zm.1336-.0891c-.1504-.1893-.0223-.4232.2839-.6514.3118-.2339.5791-.2951.7239-.1114.1336.1615.0445.4065-.2729.6458-.334.2507-.6069.2729-.7349.117z" fill="#fff" stroke-linejoin="round"/><path d="m29.2355 77.894-.1503.0724.284.6793h-.0056l-.1448-.0835c-.4009-.1893-.6848-.2951-.9242-.1837-.1893.089-.3285.3173-.1949.6347.0724.1781.1893.3062.3118.3675l.1002-.1225c-.0779-.0446-.1893-.1281-.245-.2673-.0946-.2227 0-.3563.1336-.4176.2005-.0891.4455 0 .9243.2339l.2005.0946.1113-.0501z" fill="#fff" stroke-linejoin="round"/><path d="m28.9376 77.0371c-.1058-.2895-.3452-.451-.5791-.3508-.1559.0669-.2394.2339-.2283.451h-.0055c-.1448-.1503-.2896-.1559-.4009-.1113-.1671.0724-.2784.2839-.1726.5735.1002.2673.3118.412.5233.3229.117-.0445.2116-.167.2172-.3675h.0056c.1336.1504.2951.2172.4621.1448.2004-.0836.2951-.3452.1782-.6626zm-.1392.0501c.0723.1949 0 .362-.1392.4176-.1281.0501-.2617 0-.3675-.1559-.0278-.2338.0056-.3897.167-.4565.1337-.0613.2728.0055.3397.1948zm-1.1136.4733c-.0668-.1837.0167-.3062.1225-.3508.1225-.0501.2394.0112.3229.1336.0279.1894 0 .3341-.1336.3898-.1114.0501-.2506 0-.3118-.1726z" fill="#fff" stroke-linejoin="round"/><path d="m27.0862 76.2044c.1002.3118.412.4398.8574.2672.4455-.1781.6236-.4788.529-.7739-.1058-.3452-.4176-.4398-.8742-.2672-.4231.167-.618.4454-.5122.7739zm.1392-.039c-.0724-.2171.1169-.3953.451-.5234.3396-.1336.5902-.1169.657.0947.0557.1893-.1058.3897-.451.5234-.3675.1391-.6013.0835-.657-.0947z" fill="#fff" stroke-linejoin="round"/><path d="m26.9382 65.2684c.0557-.0946.1225-.2784.1392-.4844.0223-.4454-.1782-.6626-.4231-.6403-.2172.0111-.3731.206-.4232.4399h-.0056c-.0556-.2228-.1837-.3341-.3396-.323-.1893.0167-.3786.1949-.4009.5623-.0111.1949.0334.3787.0891.4789l.1559-.078c-.039-.0779-.0891-.2171-.0779-.3674.0111-.2283.1224-.3285.2505-.3397.1837-.0111.245.2116.2338.3953l-.0111.1392.1559-.0111.0111-.1392c.0168-.2394.1225-.4844.3397-.5011.128-.0111.2895.0779.2728.3953-.0111.1782-.0835.3452-.1225.4176z" fill="#fff" stroke-linejoin="round"/><path d="m25.6321 63.1915c-.0445.373.206.6347.7238.6236.5067-.0223.8129-.2728.8519-.6403.0446-.4064-.2171-.6348-.7349-.618-.49.0111-.7962.245-.8408.6347zm.1559.0056c.0279-.2561.284-.3787.6626-.3898.3897-.0111.6292.1058.6013.362-.0278.2282-.2672.3841-.6681.3952-.4176.0112-.6236-.1448-.5958-.3674z" fill="#fff" stroke-linejoin="round"/><path d="m25.842 61.6274c-.0612.373.1726.6514.6849.6625.5066 0 .824-.2394.8852-.6069.0668-.4064-.1893-.6458-.7071-.6514-.4844-.0112-.8017.206-.863.5958zm.1503.0166c.0446-.2561.3118-.3674.6849-.3618.3897.0055.618.1336.5735.3897-.039.2283-.284.373-.6849.3675-.4064-.0056-.6069-.1726-.5735-.3954z" fill="#fff" stroke-linejoin="round"/><path d="m30.9198 51.1464c.0835-.0612.2116-.2004.3118-.3786.206-.3675.1448-.6291-.0445-.7015-.1726-.0668-.3731.0445-.5067.2227h-.0056c.0557-.2115 0-.3563-.1225-.4064-.1447-.0558-.3674.0278-.54.3396-.0947.1615-.1337.3396-.1337.4398l.1504-.0055c0-.0891.0222-.2227.0946-.3508.1114-.1893.2394-.2339.3397-.1949.1392.0557.0946.2784.0111.4288l-.0668.1169.1169.0445.0668-.1169c.1114-.206.2951-.3619.4677-.3007.1002.039.1893.1671.039.4399-.0835.1447-.206.2672-.2728.3118z" fill="#fff" stroke-linejoin="round"/><path d="m32.3857 48.7907-.1337-.0612-.4287.6849h-.0056l-.0055-.1615c-.039-.4343-.0891-.7183-.3063-.8185-.1726-.078-.4343-.0111-.6403.3118-.1058.1782-.1503.3563-.1503.4956l.1559-.0223c-.0056-.0891.0167-.2284.1058-.3675.1392-.2283.2951-.2506.412-.1949.1782.0779.2227.3286.2728.8463l.0167.2172.1003.0445z" fill="#fff" stroke-linejoin="round"/><path d="m31.7914 47.3018c-.206.3062-.1448.6347.2394.8352.3953.1893.7405.1002.941-.1893.2283-.3397.1392-.6403-.2506-.8463-.3674-.1837-.7127-.1225-.9298.2004zm.1114.0724c.1447-.2116.3953-.206.6792-.0613.2951.1504.4121.3452.2729.5513-.1281.1893-.3787.2227-.6793.0668-.3174-.1615-.3953-.3786-.2728-.5568z" fill="#fff" stroke-linejoin="round"/><path d="m39.8186 40.0323c.1058-.0335.284-.1281.4566-.2728.3563-.3119.412-.6125.2673-.7684-.1337-.1336-.3731-.0891-.5791.0501v-.0056c.1392-.206.1503-.3731.0557-.4733-.1114-.1169-.3564-.1113-.657.1504-.1615.1392-.2784.3118-.3174.412l.1392.0501c.039-.089.1169-.2171.245-.3285.1837-.1614.3285-.1614.4064-.0835.1114.1169-.0334.3285-.1781.4566l-.117.0946.0947.1002.1169-.0946c.1949-.1726.4343-.2784.5735-.1448.078.0779.1002.2506-.1615.4788-.1392.1225-.3062.2005-.3841.2283z" fill="#fff" stroke-linejoin="round"/><path d="m41.98 38.3027-.245-.2728.2172-.1782-.0947-.1113-.2171.1781-.5568-.6291-.2283.1837-.1225 1.2138.0779.0947.7239-.5903.2449.2729zm-1.0523.1893h-.0056l.0835-.6514c-.0056-.0835-.0056-.1559-.0056-.2561l.0056-.0056c.039.0612.0835.1113.1336.167l.3007.3341z" fill="#fff" stroke-linejoin="round"/><path d="m42.0747 36.4736c-.3285.2506-.4064.6236-.1169.9743.2951.3509.6682.3787.98.1393.3619-.2729.4008-.6292.1113-.9856-.2728-.334-.6292-.3897-.9744-.128zm.078.1169c.2283-.1726.4677-.0779.6793.1837.2171.2673.2505.5235.0278.6905-.2004.1503-.4566.0946-.6737-.1782-.2394-.2895-.2227-.5512-.0334-.696z" fill="#fff" stroke-linejoin="round"/><path d="m93.6263 28.6885-.2046-.0338.5976-1.8555.2049.0335z" fill="#fff" stroke-linejoin="round"/><path d="m69.2493 104.416-.2053-.034.5987-1.857.2034.035z" fill="#fff" stroke-linejoin="round"/><path d="m92.2872 30.412-.352-.0528 1.105-3.7116.3503.0527z" fill="#fff" stroke-linejoin="round"/><path d="m68.4823 104.357-.3499-.052 1.1046-3.714.35.054z" fill="#fff" stroke-linejoin="round"/><path d="m84.0294 28.6321-.3599-.006.1704-2.8301.3577.0072z" fill="#fff" stroke-linejoin="round"/><path d="m77.6832 105.207-.3585-.004.1664-2.782.3581.006z" fill="#fff" stroke-linejoin="round"/><path d="m66.9637 30.5381-.3417.0862-1.1396-2.6793.3414-.0859z" fill="#fff" stroke-linejoin="round"/><path d="m96.0117 103.523-.3438.087-1.1189-2.633.3424-.087z" fill="#fff" stroke-linejoin="round"/><path d="m51.6299 36.6224-.2829.1682-2.3127-2.209.2865-.1671z" fill="#fff" stroke-linejoin="round"/><path d="m112.789 97.3282-.285.1682-2.272-2.1697.285-.1661z" fill="#fff" stroke-linejoin="round"/><path d="m40.4589 45.7694-.1938.2281-3.2003-1.4689.192-.228z" fill="#fff" stroke-linejoin="round"/><path d="m126.234 86.7368-.192.2285-3.15-1.4443.195-.2292z" fill="#fff" stroke-linejoin="round"/><path d="m33.5304 57.6404-.0784.2619-3.7077-.5552.0766-.2623z" fill="#fff" stroke-linejoin="round"/><path d="m133.504 73.9085-.078.2609-3.644-.5442.077-.2597z" fill="#fff" stroke-linejoin="round"/><path d="m32.3957 70.4457.0463.264-3.7669.4262-.0467-.2633z" fill="#fff" stroke-linejoin="round"/><path d="m134.633 60.1581.045.2644-3.701.4205-.046-.2641z" fill="#fff" stroke-linejoin="round"/><path d="m37.0782 82.6215.1657.2345-3.3721 1.3584-.1653-.2331z" fill="#fff" stroke-linejoin="round"/><path d="m129.229 46.3144.166.2355-3.313 1.3349-.166-.2352z" fill="#fff" stroke-linejoin="round"/><path d="m46.7672 92.296.2634.1778-2.5696 2.1255-.2633-.1753z" fill="#fff" stroke-linejoin="round"/><path d="m117.601 35.72.264.1764-2.525 2.0896-.263-.1767z" fill="#fff" stroke-linejoin="round"/><path d="m60.8525 99.3692.3317.0969-1.4563 2.6369-.3311-.098z" fill="#fff" stroke-linejoin="round"/><path d="m101.99 28.5499.33.0965-1.432 2.5917-.331-.0977z" fill="#fff" stroke-linejoin="round"/><path d="m75.488 30.076-.3556.0395-.6585-3.7408.356-.0403z" fill="#fff" stroke-linejoin="round"/><path d="m86.9059 105.076-.3556.04-.6585-3.741.3552-.04z" fill="#fff" stroke-linejoin="round"/><path d="m60.3533 33.7398-.3193.1282-2.3404-3.3196.3171-.1276z" fill="#fff" stroke-linejoin="round"/><path d="m104.844 100.989-.318.127-2.343-3.3191.318-.1268z" fill="#fff" stroke-linejoin="round"/><path d="m46.8224 41.288-.243.2017-3.7434-2.4976.2431-.2002z" fill="#fff" stroke-linejoin="round"/><path d="m119.731 92.6116-.242.201-3.743-2.4984.243-.2013z" fill="#fff" stroke-linejoin="round"/><path d="m37.5022 51.8081-.1372.2487-4.6926-1.3751.1371-.2484z" fill="#fff" stroke-linejoin="round"/><path d="m130.645 80.569-.139.2502-4.694-1.3755.139-.2491z" fill="#fff" stroke-linejoin="round"/><path d="m33.4429 63.9395-.0178.2672-5.0754-.0855.0161-.2676z" fill="#fff" stroke-linejoin="round"/><path d="m134.907 67.0757-.015.2673-5.075-.087.014-.2668z" fill="#fff" stroke-linejoin="round"/><path d="m35.2701 76.2787.1068.253-4.8473 1.2134-.1069-.2538z" fill="#fff" stroke-linejoin="round"/><path d="m132.748 53.409.109.2527-4.848 1.2137-.108-.2538z" fill="#fff" stroke-linejoin="round"/><path d="m41.9488 86.9105.2167.2088-4.0349 2.3654-.2159-.2074z" fill="#fff" stroke-linejoin="round"/><path d="m123.678 40.6281.219.2091-4.035 2.3647-.217-.2078z" fill="#fff" stroke-linejoin="round"/><path d="m53.972 95.5792.3029.1405-2.7338 3.2316-.3025-.1393z" fill="#fff" stroke-linejoin="round"/><path d="m110.125 31.6078.302.1383-2.733 3.2335-.303-.1391z" fill="#fff" stroke-linejoin="round"/><path d="m70.1565 104.556-.2056-.031.5541-1.861.2049.029z" fill="#fff" stroke-linejoin="round"/><path d="m91.8975 28.4274-.2064-.0293.511-1.8683.206.0279z" fill="#fff" stroke-linejoin="round"/><path d="m71.0661 104.684-.2066-.027.5092-1.872.2074.031z" fill="#fff" stroke-linejoin="round"/><path d="m91.0289 28.3132-.2081-.0249.4682-1.8751.2042.0257z" fill="#fff" stroke-linejoin="round"/><path d="m71.9791 104.8-.2063-.024.4661-1.874.2074.024z" fill="#fff" stroke-linejoin="round"/><path d="m90.1561 28.2112-.2067-.0227.4227-1.8812.2074.0247z" fill="#fff" stroke-linejoin="round"/><path d="m72.8954 104.907-.2067-.023.4229-1.88.2071.022z" fill="#fff" stroke-linejoin="round"/><path d="m89.2816 28.1203-.2084-.0186.3788-1.8864.2095.0206z" fill="#fff" stroke-linejoin="round"/><path d="m73.8153 104.997-.2089-.018.3795-1.887.2078.022z" fill="#fff" stroke-linejoin="round"/><path d="m88.4057 28.041-.2102-.0179.3367-1.8875.2081.0178z" fill="#fff" stroke-linejoin="round"/><path d="m74.7353 105.079-.2074-.017.335-1.888.2092.016z" fill="#fff" stroke-linejoin="round"/><path d="m87.5267 27.9727-.2099-.0142.2919-1.8915.2092.0136z" fill="#fff" stroke-linejoin="round"/><path d="m75.66 105.15-.2099-.016.2918-1.892.2088.014z" fill="#fff" stroke-linejoin="round"/><path d="m86.6449 27.9162-.2084-.011.2462-1.894.2081.0111z" fill="#fff" stroke-linejoin="round"/><path d="m76.5845 105.204-.2091-.012.2459-1.893.2102.011z" fill="#fff" stroke-linejoin="round"/><path d="m85.7652 27.8704-.2124-.0079.2039-1.8967.2088.0092z" fill="#fff" stroke-linejoin="round"/><path d="m84.8792 27.8369-.2092-.0054.1572-1.8975.2102.006z" fill="#fff" stroke-linejoin="round"/><path d="m78.4411 105.283-.2106-.007.1579-1.901.2095.007z" fill="#fff" stroke-linejoin="round"/><path d="m79.3702 105.301-.2113-.002.114-1.9.2092.004z" fill="#fff" stroke-linejoin="round"/><path d="m83.1104 27.8055-.2106-.0014.0688-1.8997.2102.0025z" fill="#fff" stroke-linejoin="round"/><path d="m80.2997 105.311h-.2124l.0706-1.901.2099-.001z" fill="#fff" stroke-linejoin="round"/><path d="m82.2247 27.8055-.2102.0018.0246-1.8993.2102-.0022z" fill="#fff" stroke-linejoin="round"/><path d="m81.2295 105.307-.211.002.0239-1.899.2113-.003z" fill="#fff" stroke-linejoin="round"/><path d="m81.3391 27.8193-.2109.0031-.0196-1.8981.2099-.0047z" fill="#fff" stroke-linejoin="round"/><path d="m82.1593 105.29-.2113.006-.0196-1.9.2095-.001z" fill="#fff" stroke-linejoin="round"/><path d="m80.4525 27.8421-.2096.0074-.0637-1.8971.2084-.0082z" fill="#fff" stroke-linejoin="round"/><path d="m83.0892 105.262-.2096.007-.0641-1.896.2106-.008z" fill="#fff" stroke-linejoin="round"/><path d="m79.5686 27.8782-.2121.0093-.1083-1.8943.2106-.0107z" fill="#fff" stroke-linejoin="round"/><path d="m84.0197 105.222-.2103.01-.1097-1.895.2106-.011z" fill="#fff" stroke-linejoin="round"/><path d="m78.6833 27.9252-.2099.0118-.154-1.8932.2099-.0132z" fill="#fff" stroke-linejoin="round"/><path d="m84.9488 105.171-.2106.013-.1529-1.894.2085-.014z" fill="#fff" stroke-linejoin="round"/><path d="m77.8001 27.9835-.2113.015-.1971-1.89.2095-.0154z" fill="#fff" stroke-linejoin="round"/><path d="m85.8759 105.106-.2106.015-.1978-1.889.2109-.015z" fill="#fff" stroke-linejoin="round"/><path d="m76.9165 28.0538-.2095.0171-.243-1.8857.2102-.0192z" fill="#fff" stroke-linejoin="round"/><path d="m76.0358 28.1351-.2099.0202-.2876-1.8818.2096-.0224z" fill="#fff" stroke-linejoin="round"/><path d="m87.7296 104.941-.2109.022-.2858-1.883.2095-.02z" fill="#fff" stroke-linejoin="round"/><path d="m88.6535 104.842-.2102.023-.3325-1.877.211-.026z" fill="#fff" stroke-linejoin="round"/><path d="m74.2802 28.3303-.2106.0264-.3753-1.8715.2085-.0257z" fill="#fff" stroke-linejoin="round"/><path d="m89.5722 104.73-.2081.027-.3756-1.874.2099-.027z" fill="#fff" stroke-linejoin="round"/><path d="m73.4032 28.4472-.2088.0289-.4183-1.8654.2074-.0307z" fill="#fff" stroke-linejoin="round"/><path d="m90.4909 104.604-.2081.031-.4176-1.866.207-.03z" fill="#fff" stroke-linejoin="round"/><path d="m72.5303 28.573-.2071.0324-.4628-1.8601.2081-.0317z" fill="#fff" stroke-linejoin="round"/><path d="m91.4064 104.47-.2063.031-.4621-1.858.207-.034z" fill="#fff" stroke-linejoin="round"/><path d="m71.6607 28.7117-.206.0335-.5089-1.8512.2081-.0346z" fill="#fff" stroke-linejoin="round"/><path d="m92.3213 104.323-.2084.033-.5053-1.853.207-.036z" fill="#fff" stroke-linejoin="round"/><path d="m70.7923 28.8613-.2039.0371-.5523-1.8451.2074-.0385z" fill="#fff" stroke-linejoin="round"/><path d="m93.2306 104.16-.2066.04-.5492-1.846.206-.039z" fill="#fff" stroke-linejoin="round"/><path d="m69.9296 29.0217-.2045.0389-.5941-1.8356.2053-.0409z" fill="#fff" stroke-linejoin="round"/><path d="m94.1361 103.991-.2049.039-.5933-1.836.2056-.042z" fill="#fff" stroke-linejoin="round"/><path d="m69.0695 29.1929-.2031.0421-.6382-1.8277.2042-.0431z" fill="#fff" stroke-linejoin="round"/><path d="m95.0381 103.807-.2046.044-.6346-1.829.2031-.043z" fill="#fff" stroke-linejoin="round"/><path d="m68.2131 29.3762-.2031.0449-.6809-1.8188.2052-.0456z" fill="#fff" stroke-linejoin="round"/><path d="m67.3606 29.5702-.2017.0477-.722-1.8095.2017-.0474z" fill="#fff" stroke-linejoin="round"/><path d="m96.832 103.407-.2035.047-.7209-1.809.2024-.047z" fill="#fff" stroke-linejoin="round"/><path d="m97.72 103.189-.2002.05-.764-1.798.1999-.05z" fill="#fff" stroke-linejoin="round"/><path d="m65.67 29.9909-.2002.052-.8075-1.787.2003-.0549z" fill="#fff" stroke-linejoin="round"/><path d="m98.605 102.958-.2003.056-.8057-1.789.1992-.056z" fill="#fff" stroke-linejoin="round"/><path d="m64.8312 30.2176-.1988.0546-.8503-1.7768.1992-.0563z" fill="#fff" stroke-linejoin="round"/><path d="m99.4843 102.717-.1999.059-.8477-1.776.1988-.06z" fill="#fff" stroke-linejoin="round"/><path d="m63.9992 30.4544-.1978.0574-.8923-1.7642.1971-.0585z" fill="#fff" stroke-linejoin="round"/><path d="m100.358 102.467-.199.058-.8888-1.765.1971-.059z" fill="#fff" stroke-linejoin="round"/><path d="m63.1706 30.7032-.1967.0592-.9326-1.7521.1967-.061z" fill="#fff" stroke-linejoin="round"/><path d="m101.227 102.203-.198.063-.93-1.754.196-.061z" fill="#fff" stroke-linejoin="round"/><path d="m62.3485 30.9609-.1949.0642-.9753-1.7407.1967-.062z" fill="#fff" stroke-linejoin="round"/><path d="m102.089 101.93-.195.064-.974-1.741.194-.064z" fill="#fff" stroke-linejoin="round"/><path d="m61.5312 31.2297-.1921.0656-1.0159-1.7254.1931-.0663z" fill="#fff" stroke-linejoin="round"/><path d="m102.944 101.646-.192.065-1.016-1.7258.194-.0652z" fill="#fff" stroke-linejoin="round"/><path d="m60.7209 31.5104-.1917.0677-1.0558-1.7112.1928-.0698z" fill="#fff" stroke-linejoin="round"/><path d="m103.795 101.35-.194.068-1.055-1.7137.193-.0669z" fill="#fff" stroke-linejoin="round"/><path d="m59.9176 31.8001-.1914.0709-1.0954-1.6976.1907-.0706z" fill="#fff" stroke-linejoin="round"/><path d="m105.473 100.723-.191.074-1.133-1.6823.189-.0738z" fill="#fff" stroke-linejoin="round"/><path d="m58.3304 32.4113-.1871.0742-1.1766-1.6645.1878-.0766z" fill="#fff" stroke-linejoin="round"/><path d="m106.301 100.394-.188.078-1.174-1.6701.187-.0759z" fill="#fff" stroke-linejoin="round"/><path d="m57.5457 32.732-.1846.0773-1.2158-1.6505.1864-.0766z" fill="#fff" stroke-linejoin="round"/><path d="m107.122 100.057-.186.074-1.215-1.6453.186-.0827z" fill="#fff" stroke-linejoin="round"/><path d="m56.7695 33.0624-.1814.0802-1.2564-1.6334.1849-.0802z" fill="#fff" stroke-linejoin="round"/><path d="m107.935 99.7043-.185.0816-1.253-1.6324.186-.0827z" fill="#fff" stroke-linejoin="round"/><path d="m56.0027 33.4031-.1824.0816-1.2939-1.6149.1828-.082z" fill="#fff" stroke-linejoin="round"/><path d="m108.74 99.3441-.183.0827-1.29-1.6153.181-.0823z" fill="#fff" stroke-linejoin="round"/><path d="m55.2406 33.7534-.1782.0847-1.332-1.5992.1796-.0844z" fill="#fff" stroke-linejoin="round"/><path d="m109.538 98.9735-.181.0859-1.331-1.5982.181-.0848z" fill="#fff" stroke-linejoin="round"/><path d="m54.489 34.1125-.1778.088-1.3694-1.58.1792-.087z" fill="#fff" stroke-linejoin="round"/><path d="m110.325 98.5932-.179.088-1.367-1.5797.179-.0884z" fill="#fff" stroke-linejoin="round"/><path d="m53.7436 34.4839-.1743.0888-1.4072-1.5608.1772-.0905z" fill="#fff" stroke-linejoin="round"/><path d="m111.105 98.202-.176.0909-1.405-1.5611.177-.0902z" fill="#fff" stroke-linejoin="round"/><path d="m53.0085 34.8615-.1725.0916-1.4436-1.5426.1739-.0901z" fill="#fff" stroke-linejoin="round"/><path d="m111.876 97.8029-.175.0926-1.443-1.5425.176-.0931z" fill="#fff" stroke-linejoin="round"/><path d="m52.2815 35.2504-.1711.0944-1.4813-1.523.1732-.0944z" fill="#fff" stroke-linejoin="round"/><path d="m51.5634 35.6499-.1689.0952-1.5166-1.5038.1693-.0944z" fill="#fff" stroke-linejoin="round"/><path d="m113.39 96.9722-.171.0973-1.513-1.503.17-.0966z" fill="#fff" stroke-linejoin="round"/><path d="m114.132 96.5442-.169.0973-1.55-1.482.169-.1002z" fill="#fff" stroke-linejoin="round"/><path d="m50.1548 36.4711-.165.1009-1.5854-1.4617.1639-.1008z" fill="#fff" stroke-linejoin="round"/><path d="m114.864 96.1047-.165.1005-1.585-1.4625.165-.1012z" fill="#fff" stroke-linejoin="round"/><path d="m49.4647 36.8962-.1629.1023-1.6203-1.4403.1629-.1016z" fill="#fff" stroke-linejoin="round"/><path d="m115.587 95.6555-.164.1018-1.619-1.4392.163-.1044z" fill="#fff" stroke-linejoin="round"/><path d="m48.7851 37.3301-.1604.1041-1.6552-1.4193.16-.1026z" fill="#fff" stroke-linejoin="round"/><path d="m116.3 95.1975-.163.1047-1.652-1.4189.159-.1037z" fill="#fff" stroke-linejoin="round"/><path d="m48.1136 37.7723-.1579.1065-1.6883-1.3965.1604-.1061z" fill="#fff" stroke-linejoin="round"/><path d="m117.001 94.7329-.16.1048-1.686-1.3937.157-.1097z" fill="#fff" stroke-linejoin="round"/><path d="m47.4543 38.2234-.1546.1088-1.7226-1.3738.1561-.1079z" fill="#fff" stroke-linejoin="round"/><path d="m117.691 94.2565-.157.1084-1.719-1.3738.155-.1079z" fill="#fff" stroke-linejoin="round"/><path d="m46.8052 38.6819-.1525.1105-1.7561-1.3498.154-.1109z" fill="#fff" stroke-linejoin="round"/><path d="m118.372 93.7735-.156.1116-1.752-1.352.153-.1108z" fill="#fff" stroke-linejoin="round"/><path d="m46.1656 39.1487-.1508.1123-1.7856-1.3253.1504-.1122z" fill="#fff" stroke-linejoin="round"/><path d="m119.04 93.2794-.152.1115-1.785-1.3242.151-.1122z" fill="#fff" stroke-linejoin="round"/><path d="m45.5371 39.6234-.1461.1137-1.8202-1.2999.1493-.1151z" fill="#fff" stroke-linejoin="round"/><path d="m120.342 92.2674-.148.119-1.846-1.2789.145-.1154z" fill="#fff" stroke-linejoin="round"/><path d="m44.3143 40.598-.1419.1179-1.88-1.2536.1436-.1169z" fill="#fff" stroke-linejoin="round"/><path d="m120.975 91.751-.143.1183-1.878-1.2525.143-.1187z" fill="#fff" stroke-linejoin="round"/><path d="m43.7187 41.0974-.1383.1186-1.9107-1.2276.1415-.1201z" fill="#fff" stroke-linejoin="round"/><path d="m121.597 91.2259-.141.1208-1.907-1.2301.14-.1187z" fill="#fff" stroke-linejoin="round"/><path d="m43.1362 41.6036-.1369.1212-1.9377-1.2034.1371-.1211z" fill="#fff" stroke-linejoin="round"/><path d="m122.207 90.6934-.139.1209-1.935-1.2027.137-.1236z" fill="#fff" stroke-linejoin="round"/><path d="m42.5658 42.1163-.1354.1233-1.967-1.1778.135-.1215z" fill="#fff" stroke-linejoin="round"/><path d="m122.804 90.153-.136.1237-1.964-1.1784.133-.123z" fill="#fff" stroke-linejoin="round"/><path d="m42.0057 42.637-.1315.1247-1.9955-1.1502.1333-.1255z" fill="#fff" stroke-linejoin="round"/><path d="m123.389 89.6025-.133.1265-1.992-1.152.131-.1255z" fill="#fff" stroke-linejoin="round"/><path d="m41.4587 43.1642-.1286.1265-2.0241-1.1239.1305-.1262z" fill="#fff" stroke-linejoin="round"/><path d="m123.96 89.0464-.128.1276-2.021-1.1239.128-.1272z" fill="#fff" stroke-linejoin="round"/><path d="m40.9217 43.6994-.124.1268-2.0493-1.0971.1265-.1276z" fill="#fff" stroke-linejoin="round"/><path d="m124.52 88.4834-.128.1297-2.046-1.0964.124-.1302z" fill="#fff" stroke-linejoin="round"/><path d="m40.4001 44.2397-.1222.1307-2.075-1.0711.123-.129z" fill="#fff" stroke-linejoin="round"/><path d="m125.065 87.9144-.124.1308-2.072-1.0711.12-.1298z" fill="#fff" stroke-linejoin="round"/><path d="m39.8905 44.7867-.1187.1308-2.1017-1.042.1194-.1297z" fill="#fff" stroke-linejoin="round"/><path d="m125.598 87.3371-.121.134-2.097-1.0448.118-.1319z" fill="#fff" stroke-linejoin="round"/><path d="m38.9076 45.9006-.1116.1344-2.1515-.9864.114-.1336z" fill="#fff" stroke-linejoin="round"/><path d="m126.622 86.1654-.112.1336-2.149-.9867.114-.1346z" fill="#fff" stroke-linejoin="round"/><path d="m38.4366 46.4678-.1112.1361-2.1726-.9588.1108-.1355z" fill="#fff" stroke-linejoin="round"/><path d="m127.114 85.57-.11.1357-2.171-.9585.109-.1368z" fill="#fff" stroke-linejoin="round"/><path d="m37.9776 47.0394-.1059.1369-2.1979-.9297.1076-.1372z" fill="#fff" stroke-linejoin="round"/><path d="m127.594 84.9683-.108.1361-2.194-.93.105-.1365z" fill="#fff" stroke-linejoin="round"/><path d="m37.5328 47.6177-.104.1372-2.2189-.9011.1044-.1376z" fill="#fff" stroke-linejoin="round"/><path d="m128.057 84.3597-.104.1387-2.216-.9006.102-.1386z" fill="#fff" stroke-linejoin="round"/><path d="m37.1013 48.1998-.1012.1386-2.2407-.8706.1009-.1389z" fill="#fff" stroke-linejoin="round"/><path d="m128.508 83.7465-.1.139-2.24-.872.1-.1378z" fill="#fff" stroke-linejoin="round"/><path d="m36.683 48.788-.0969.1415-2.2624-.8427.0994-.1404z" fill="#fff" stroke-linejoin="round"/><path d="m128.943 83.1268-.098.1418-2.258-.8431.096-.1418z" fill="#fff" stroke-linejoin="round"/><path d="m36.2783 49.381-.094.1419-2.2817-.8114.0948-.1404z" fill="#fff" stroke-linejoin="round"/><path d="m129.365 82.5021-.094.1415-2.28-.81.093-.1443z" fill="#fff" stroke-linejoin="round"/><path d="m35.8888 49.9792-.0916.1426-2.3013-.7812.0905-.1425z" fill="#fff" stroke-linejoin="round"/><path d="m129.772 81.8737-.091.1428-2.299-.7832.089-.1428z" fill="#fff" stroke-linejoin="round"/><path d="m35.5112 50.5826-.0873.144-2.3216-.7494.0884-.1457z" fill="#fff" stroke-linejoin="round"/><path d="m130.165 81.2386-.089.1457-2.318-.7536.087-.145z" fill="#fff" stroke-linejoin="round"/><path d="m34.8008 51.802-.082.1468-2.3565-.6888.082-.1465z" fill="#fff" stroke-linejoin="round"/><path d="m130.904 79.9552-.082.1472-2.353-.691.081-.1475z" fill="#fff" stroke-linejoin="round"/><path d="m34.466 52.4188-.0777.1483-2.3718-.66.0766-.1468z" fill="#fff" stroke-linejoin="round"/><path d="m131.252 79.3066-.078.1475-2.372-.6596.078-.1479z" fill="#fff" stroke-linejoin="round"/><path d="m34.1457 53.0391-.0741.1475-2.3886-.6264.0748-.1483z" fill="#fff" stroke-linejoin="round"/><path d="m131.584 78.6555-.074.1471-2.386-.6286.072-.1489z" fill="#fff" stroke-linejoin="round"/><path d="m33.8407 53.6625-.0717.149-2.4024-.5955.0705-.1478z" fill="#fff" stroke-linejoin="round"/><path d="m131.901 77.9988-.07.1493-2.402-.5973.069-.15z" fill="#fff" stroke-linejoin="round"/><path d="m33.5501 54.2906-.0674.1507-2.4177-.5651.067-.1504z" fill="#fff" stroke-linejoin="round"/><path d="m132.202 77.338-.066.15-2.415-.5652.064-.1514z" fill="#fff" stroke-linejoin="round"/><path d="m33.2741 54.9219-.0637.1515-2.4321-.5321.0638-.1521z" fill="#fff" stroke-linejoin="round"/><path d="m132.488 76.6744-.062.1503-2.431-.5331.063-.151z" fill="#fff" stroke-linejoin="round"/><path d="m33.0119 55.556-.0595.1507-2.4452-.4996.0606-.1511z" fill="#fff" stroke-linejoin="round"/><path d="m132.76 76.0069-.06.1511-2.444-.5017.06-.1511z" fill="#fff" stroke-linejoin="round"/><path d="m32.7659 56.1936-.0577.1529-2.4563-.4697.0563-.1514z" fill="#fff" stroke-linejoin="round"/><path d="m133.016 75.336-.057.1532-2.456-.4692.056-.1523z" fill="#fff" stroke-linejoin="round"/><path d="m32.5347 56.8347-.0542.1532-2.468-.4377.052-.1513z" fill="#fff" stroke-linejoin="round"/><path d="m133.256 74.6637-.054.1533-2.466-.4373.05-.1539z" fill="#fff" stroke-linejoin="round"/><path d="m32.115 58.1234-.0453.1539-2.4908-.3706.0467-.156z" fill="#fff" stroke-linejoin="round"/><path d="m133.688 73.3084-.046.1543-2.487-.3738.042-.1532z" fill="#fff" stroke-linejoin="round"/><path d="m31.9278 58.7715-.0414.1543-2.499-.3385.0421-.155z" fill="#fff" stroke-linejoin="round"/><path d="m133.881 72.6274-.043.1546-2.497-.3399.04-.1554z" fill="#fff" stroke-linejoin="round"/><path d="m31.7567 59.4199-.0388.1557-2.5076-.3058.0396-.155z" fill="#fff" stroke-linejoin="round"/><path d="m134.055 71.9449-.037.1553-2.506-.3068.038-.1571z" fill="#fff" stroke-linejoin="round"/><path d="m31.6005 60.0724-.0349.1554-2.5158-.2722.0356-.1557z" fill="#fff" stroke-linejoin="round"/><path d="m134.217 71.2603-.034.1554-2.513-.2748.032-.156z" fill="#fff" stroke-linejoin="round"/><path d="m31.4594 60.7271-.0317.1557-2.5215-.2413.0313-.1554z" fill="#fff" stroke-linejoin="round"/><path d="m134.361 70.5731-.031.1554-2.521-.2413.029-.1565z" fill="#fff" stroke-linejoin="round"/><path d="m31.3338 61.3813-.0278.1553-2.5286-.2063.0278-.1568z" fill="#fff" stroke-linejoin="round"/><path d="m134.491 69.8837-.029.1582-2.525-.2095.025-.1568z" fill="#fff" stroke-linejoin="round"/><path d="m31.2238 62.0374-.025.1561-2.5332-.1749.0235-.1561z" fill="#fff" stroke-linejoin="round"/><path d="m134.603 69.1962-.025.1568-2.532-.1764.022-.1571z" fill="#fff" stroke-linejoin="round"/><path d="m31.1281 62.6946-.0207.1564-2.5386-.1415.0207-.1567z" fill="#fff" stroke-linejoin="round"/><path d="m134.7 68.5049-.022.1565-2.537-.1429.019-.1571z" fill="#fff" stroke-linejoin="round"/><path d="m31.0479 63.3528-.0164.1568-2.5429-.1076.0168-.1582z" fill="#fff" stroke-linejoin="round"/><path d="m134.779 67.8126-.017.1586-2.541-.1108.014-.1565z" fill="#fff" stroke-linejoin="round"/><path d="m30.9353 64.67-.0114.1589-2.5468-.0424.0097-.1572z" fill="#fff" stroke-linejoin="round"/><path d="m134.891 66.4289-.011.1571-2.546-.0446.007-.1574z" fill="#fff" stroke-linejoin="round"/><path d="m30.9017 65.3311-.006.1572-2.5493-.0097.005-.1575z" fill="#fff" stroke-linejoin="round"/><path d="m134.923 65.7358-.008.1565-2.547-.0103.003-.1568z" fill="#fff" stroke-linejoin="round"/><path d="m30.8845 65.9901-.0039.1582-2.55.0238.0021-.1571z" fill="#fff" stroke-linejoin="round"/><path d="m134.937 65.0428-.003.1568-2.547.0228v-.1575z" fill="#fff" stroke-linejoin="round"/><path d="m30.8805 66.6511.0018.1563-2.5507.0581-.0011-.1589z" fill="#fff" stroke-linejoin="round"/><path d="m134.935 64.3498.001.1575-2.548.0545-.003-.1564z" fill="#fff" stroke-linejoin="round"/><path d="m30.8941 67.3096.005.1568-2.5497.0913-.0057-.1579z" fill="#fff" stroke-linejoin="round"/><path d="m134.918 63.6575.005.1571-2.546.088-.009-.1568z" fill="#fff" stroke-linejoin="round"/><path d="m30.9219 67.9682.0089.1575-2.5478.1236-.0097-.1574z" fill="#fff" stroke-linejoin="round"/><path d="m134.885 62.9662.009.1553-2.545.1219-.012-.1568z" fill="#fff" stroke-linejoin="round"/><path d="m30.9659 68.6271.0125.1557-2.5464.1571-.0125-.1564z" fill="#fff" stroke-linejoin="round"/><path d="m134.835 62.2749.013.1568-2.545.1547-.015-.1568z" fill="#fff" stroke-linejoin="round"/><path d="m31.0253 69.2841.0153.1568-2.5425.191-.0164-.1586z" fill="#fff" stroke-linejoin="round"/><path d="m134.769 61.5847.015.1564-2.539.1878-.019-.1572z" fill="#fff" stroke-linejoin="round"/><path d="m31.099 69.9406.0204.1564-2.539.2217-.0203-.1565z" fill="#fff" stroke-linejoin="round"/><path d="m134.687 60.8955.019.1586-2.536.2177-.023-.1554z" fill="#fff" stroke-linejoin="round"/><path d="m31.2951 71.2484.0268.1542-2.5286.2891-.0275-.1551z" fill="#fff" stroke-linejoin="round"/><path d="m134.474 59.5222.026.156-2.526.2865-.029-.1539z" fill="#fff" stroke-linejoin="round"/><path d="m31.4154 71.9005.0303.1539-2.5219.3215-.0306-.1565z" fill="#fff" stroke-linejoin="round"/><path d="m134.344 58.8397.03.1536-2.521.3207-.032-.1557z" fill="#fff" stroke-linejoin="round"/><path d="m31.5516 72.5493.0342.1543-2.515.3538-.0353-.1543z" fill="#fff" stroke-linejoin="round"/><path d="m134.197 58.1568.034.1554-2.512.3495-.038-.1521z" fill="#fff" stroke-linejoin="round"/><path d="m31.703 73.1964.0381.1542-2.5083.3853-.0385-.1533z" fill="#fff" stroke-linejoin="round"/><path d="m134.034 57.4775.039.1554-2.507.383-.041-.1524z" fill="#fff" stroke-linejoin="round"/><path d="m31.8698 73.8421.0414.1532-2.499.4183-.0428-.1532z" fill="#fff" stroke-linejoin="round"/><path d="m133.857 56.801.042.1533-2.499.4169-.044-.1532z" fill="#fff" stroke-linejoin="round"/><path d="m32.0508 74.4848.0453.1518-2.4909.4515-.0445-.1532z" fill="#fff" stroke-linejoin="round"/><path d="m133.661 56.1261.047.1533-2.49.4489-.048-.1528z" fill="#fff" stroke-linejoin="round"/><path d="m32.2476 75.1248.0484.1518-2.4794.4824-.0492-.1525z" fill="#fff" stroke-linejoin="round"/><path d="m133.452 55.4543.048.1532-2.479.4818-.051-.1518z" fill="#fff" stroke-linejoin="round"/><path d="m32.4604 75.7612.0513.1507-2.4691.5153-.0527-.1517z" fill="#fff" stroke-linejoin="round"/><path d="m133.225 54.7866.052.1517-2.467.5132-.056-.1515z" fill="#fff" stroke-linejoin="round"/><path d="m32.6857 76.3959.0563.1504-2.4577.5481-.0559-.1543z" fill="#fff" stroke-linejoin="round"/><path d="m132.984 54.121.054.1532-2.455.5431-.059-.1511z" fill="#fff" stroke-linejoin="round"/><path d="m33.1842 77.6543.0634.1493-2.4316.6079-.0635-.1493z" fill="#fff" stroke-linejoin="round"/><path d="m132.452 52.8026.064.1494-2.431.6068-.067-.1479z" fill="#fff" stroke-linejoin="round"/><path d="m33.4568 78.2758.0649.1489-2.4181.6426-.067-.1494z" fill="#fff" stroke-linejoin="round"/><path d="m132.164 52.149.067.1471-2.417.639-.071-.1458z" fill="#fff" stroke-linejoin="round"/><path d="m33.7424 78.8973.0691.1476-2.4035.6709-.0713-.1468z" fill="#fff" stroke-linejoin="round"/><path d="m131.859 51.4991.072.1474-2.403.6693-.074-.1468z" fill="#fff" stroke-linejoin="round"/><path d="m34.0418 79.5129.0745.1447-2.3907.7038-.0731-.1461z" fill="#fff" stroke-linejoin="round"/><path d="m131.541 50.853.073.1475-2.387.6995-.077-.1454z" fill="#fff" stroke-linejoin="round"/><path d="m34.3576 80.124.0766.1446-2.3736.7345-.0777-.1461z" fill="#fff" stroke-linejoin="round"/><path d="m131.207 50.2123.077.1462-2.373.7298-.08-.1437z" fill="#fff" stroke-linejoin="round"/><path d="m34.6868 80.7309.0816.1436-2.359.7644-.0791-.1437z" fill="#fff" stroke-linejoin="round"/><path d="m130.858 49.5754.081.1446-2.357.763-.083-.1439z" fill="#fff" stroke-linejoin="round"/><path d="m35.0306 81.335.0834.14-2.3401.7968-.0837-.144z" fill="#fff" stroke-linejoin="round"/><path d="m130.493 48.9445.084.1429-2.339.7928-.086-.1425z" fill="#fff" stroke-linejoin="round"/><path d="m35.3882 81.9307.0866.1419-2.3205.8246-.0884-.1423z" fill="#fff" stroke-linejoin="round"/><path d="m130.113 48.3181.087.1422-2.32.8224-.089-.1414z" fill="#fff" stroke-linejoin="round"/><path d="m35.7612 82.523.0895.1408-2.3034.8544-.0898-.1411z" fill="#fff" stroke-linejoin="round"/><path d="m129.719 47.6971.092.1404-2.303.8524-.092-.1408z" fill="#fff" stroke-linejoin="round"/><path d="m129.31 47.0808.094.1394-2.281.8815-.098-.1383z" fill="#fff" stroke-linejoin="round"/><path d="m36.5466 83.6923.0966.1397-2.2631.9122-.098-.1383z" fill="#fff" stroke-linejoin="round"/><path d="m36.959 84.27.1016.1361-2.2432.9417-.1001-.1364z" fill="#fff" stroke-linejoin="round"/><path d="m128.451 45.8648.1.1383-2.242.9396-.103-.1343z" fill="#fff" stroke-linejoin="round"/><path d="m37.3872 84.8406.1033.1361-2.2214.9697-.1022-.1365z" fill="#fff" stroke-linejoin="round"/><path d="m127.998 45.268.104.1361-2.219.9682-.107-.1343z" fill="#fff" stroke-linejoin="round"/><path d="m37.8286 85.4051.1062.1336-2.1997.9992-.1069-.1337z" fill="#fff" stroke-linejoin="round"/><path d="m127.531 44.6773.108.1336-2.197.9967-.111-.1326z" fill="#fff" stroke-linejoin="round"/><path d="m38.281 85.9647.1105.1328-2.1751 1.0263-.1101-.1333z" fill="#fff" stroke-linejoin="round"/><path d="m127.052 44.0909.111.1325-2.177 1.0239-.113-.1294z" fill="#fff" stroke-linejoin="round"/><path d="m38.748 86.5165.1137.133-2.152 1.0537-.1129-.1322z" fill="#fff" stroke-linejoin="round"/><path d="m126.557 43.5117.113.1304-2.149 1.0523-.117-.1279z" fill="#fff" stroke-linejoin="round"/><path d="m39.2295 87.0629.1165.13-2.1295 1.0833-.1162-.1311z" fill="#fff" stroke-linejoin="round"/><path d="m126.05 42.9398.116.1293-2.126 1.0794-.12-.1276z" fill="#fff" stroke-linejoin="round"/><path d="m39.7214 87.604.1204.1279-2.1028 1.1097-.1201-.1301z" fill="#fff" stroke-linejoin="round"/><path d="m125.529 42.3749.12.1262-2.102 1.1071-.123-.1247z" fill="#fff" stroke-linejoin="round"/><path d="m124.994 41.8157.124.1265-2.078 1.1335-.124-.1247z" fill="#fff" stroke-linejoin="round"/><path d="m40.7458 88.6626.1258.1251-2.0504 1.1623-.1258-.1257z" fill="#fff" stroke-linejoin="round"/><path d="m124.447 41.2654.125.1244-2.049 1.1588-.13-.1223z" fill="#fff" stroke-linejoin="round"/><path d="m41.2788 89.1825.1276.1208-2.0248 1.1898-.1279-.1226z" fill="#fff" stroke-linejoin="round"/><path d="m41.8214 89.6951.1301.1211-1.9966 1.2158-.1307-.1232z" fill="#fff" stroke-linejoin="round"/><path d="m123.312 40.1856.131.1215-1.996 1.2094-.134-.1183z" fill="#fff" stroke-linejoin="round"/><path d="m42.3763 90.1989.1344.1194-1.9688 1.2397-.1343-.1201z" fill="#fff" stroke-linejoin="round"/><path d="m122.726 39.6552.135.1219-1.97 1.2361-.136-.1186z" fill="#fff" stroke-linejoin="round"/><path d="m42.9436 90.6976.1368.1173-1.9399 1.2643-.1376-.1183z" fill="#fff" stroke-linejoin="round"/><path d="m122.127 39.1364.137.1183-1.94 1.2611-.14-.1155z" fill="#fff" stroke-linejoin="round"/><path d="m43.5221 91.1876.1418.1144-1.9135 1.29-.1379-.1173z" fill="#fff" stroke-linejoin="round"/><path d="m121.516 38.6233.14.1147-1.911 1.2878-.142-.1151z" fill="#fff" stroke-linejoin="round"/><path d="m44.1132 91.6682.1432.1126-1.8818 1.3145-.1426-.1137z" fill="#fff" stroke-linejoin="round"/><path d="m120.892 38.1192.144.1147-1.882 1.31-.146-.1123z" fill="#fff" stroke-linejoin="round"/><path d="m44.7155 92.1414.1465.1126-1.8519 1.337-.1447-.114z" fill="#fff" stroke-linejoin="round"/><path d="m120.256 37.6249.148.1105-1.852 1.3349-.148-.1105z" fill="#fff" stroke-linejoin="round"/><path d="m45.3297 92.6095.1475.1097-1.8187 1.3587-.1497-.1097z" fill="#fff" stroke-linejoin="round"/><path d="m119.61 37.137.149.1098-1.82 1.3562-.15-.1065z" fill="#fff" stroke-linejoin="round"/><path d="m118.952 36.6584.151.108-1.79 1.3808-.152-.1076z" fill="#fff" stroke-linejoin="round"/><path d="m46.5894 93.5153.1533.1059-1.7561 1.4036-.1536-.1048z" fill="#fff" stroke-linejoin="round"/><path d="m118.282 36.1876.153.1072-1.756 1.4022-.157-.104z" fill="#fff" stroke-linejoin="round"/><path d="m47.2353 93.9568.1557.1031-1.725 1.4275-.1557-.1048z" fill="#fff" stroke-linejoin="round"/><path d="m47.8935 94.3877.1568.1023-1.6919 1.4488-.1575-.1004z" fill="#fff" stroke-linejoin="round"/><path d="m116.909 35.2746.156.1033-1.69 1.4471-.16-.1005z" fill="#fff" stroke-linejoin="round"/><path d="m48.5575 94.812.1625.0997-1.6584 1.4713-.1615-.1012z" fill="#fff" stroke-linejoin="round"/><path d="m116.207 34.8325.16.1008-1.658 1.4681-.163-.099z" fill="#fff" stroke-linejoin="round"/><path d="m49.2356 95.2256.1628.0984-1.6231 1.4917-.164-.0977z" fill="#fff" stroke-linejoin="round"/><path d="m115.493 34.3992.162.0991-1.623 1.4888-.165-.0966z" fill="#fff" stroke-linejoin="round"/><path d="m49.9232 95.6311.1643.0944-1.5886 1.5127-.1661-.0952z" fill="#fff" stroke-linejoin="round"/><path d="m114.769 33.9763.165.0965-1.59 1.5081-.167-.0934z" fill="#fff" stroke-linejoin="round"/><path d="m50.6174 96.0285.1682.0927-1.5529 1.5307-.1672-.094z" fill="#fff" stroke-linejoin="round"/><path d="m114.035 33.5623.167.0934-1.553 1.5298-.17-.0916z" fill="#fff" stroke-linejoin="round"/><path d="m51.3249 96.4161.1696.0884-1.5173 1.5515-.1703-.0912z" fill="#fff" stroke-linejoin="round"/><path d="m113.291 33.1576.169.0919-1.518 1.5479-.171-.0884z" fill="#fff" stroke-linejoin="round"/><path d="m52.0395 96.7934.1721.0873-1.4824 1.5703-.1703-.0894z" fill="#fff" stroke-linejoin="round"/><path d="m112.538 32.764.173.0888-1.485 1.5668-.172-.0876z" fill="#fff" stroke-linejoin="round"/><path d="m111.776 32.3786.174.0866-1.445 1.5858-.176-.0845z" fill="#fff" stroke-linejoin="round"/><path d="m53.4967 97.5189.1771.0841-1.4101 1.6068-.1763-.0852z" fill="#fff" stroke-linejoin="round"/><path d="m111.003 32.0054.177.0837-1.41 1.6046-.178-.0827z" fill="#fff" stroke-linejoin="round"/><path d="m54.2388 97.8672.1781.0834-1.3719 1.6232-.1785-.0827z" fill="#fff" stroke-linejoin="round"/><path d="m54.9892 98.2083.1782.0791-1.3338 1.6402-.1796-.0794z" fill="#fff" stroke-linejoin="round"/><path d="m109.433 31.2868.181.0819-1.335 1.6364-.182-.0777z" fill="#fff" stroke-linejoin="round"/><path d="m55.7459 98.5364.1824.077-1.296 1.6566-.1824-.074z" fill="#fff" stroke-linejoin="round"/><path d="m108.636 30.9448.181.0776-1.296 1.6542-.184-.0752z" fill="#fff" stroke-linejoin="round"/><path d="m56.5124 98.8559.1831.0748-1.2572 1.6713-.182-.074z" fill="#fff" stroke-linejoin="round"/><path d="m107.829 30.6124.184.0745-1.258 1.6705-.185-.0723z" fill="#fff" stroke-linejoin="round"/><path d="m57.2852 99.1646.185.0716-1.2176 1.6888-.185-.072z" fill="#fff" stroke-linejoin="round"/><path d="m107.016 30.2896.184.072-1.218 1.6866-.187-.0699z" fill="#fff" stroke-linejoin="round"/><path d="m58.0666 99.4645.1878.0671-1.1791 1.7044-.1878-.069z" fill="#fff" stroke-linejoin="round"/><path d="m106.192 29.9791.189.0691-1.18 1.7015-.19-.0667z" fill="#fff" stroke-linejoin="round"/><path d="m58.8557 99.7516.1871.0677-1.1378 1.7167-.19-.069z" fill="#fff" stroke-linejoin="round"/><path d="m105.364 29.6772.189.0691-1.14 1.7158-.191-.0656z" fill="#fff" stroke-linejoin="round"/><path d="m59.6509 100.029.1892.064-1.0986 1.732-.1921-.063z" fill="#fff" stroke-linejoin="round"/><path d="m104.527 29.3897.19.0649-1.1 1.73-.192-.0638z" fill="#fff" stroke-linejoin="round"/><path d="m103.684 29.111.192.0613-1.061 1.7429-.193-.0581z" fill="#fff" stroke-linejoin="round"/><path d="m61.2591 100.554.1949.06-1.0191 1.756-.1931-.057z" fill="#fff" stroke-linejoin="round"/><path d="m102.833 28.8441.193.0595-1.018 1.7547-.196-.0578z" fill="#fff" stroke-linejoin="round"/><path d="m62.0746 100.8.195.056-.9779 1.773-.1956-.058z" fill="#fff" stroke-linejoin="round"/><path d="m62.8957 101.036.1935.055-.9347 1.782-.1956-.054z" fill="#fff" stroke-linejoin="round"/><path d="m101.114 28.342.196.0552-.938 1.7802-.197-.0523z" fill="#fff" stroke-linejoin="round"/><path d="m63.7204 101.261.1978.052-.8941 1.793-.1984-.053z" fill="#fff" stroke-linejoin="round"/><path d="m100.244 28.1095.198.052-.8946 1.7906-.2-.0488z" fill="#fff" stroke-linejoin="round"/><path d="m64.5525 101.474.1992.049-.8542 1.806-.1984-.05z" fill="#fff" stroke-linejoin="round"/><path d="m99.3699 27.8875.1992.0488-.8542 1.8031-.1995-.0488z" fill="#fff" stroke-linejoin="round"/><path d="m65.3889 101.678.2002.045-.811 1.815-.2006-.047z" fill="#fff" stroke-linejoin="round"/><path d="m98.4908 27.6773.1996.0467-.8132 1.8119-.2002-.0455z" fill="#fff" stroke-linejoin="round"/><path d="m66.2301 101.869.2017.044-.769 1.823-.2006-.044z" fill="#fff" stroke-linejoin="round"/><path d="m97.6055 27.4774.2.0434-.769 1.8227-.2028-.0431z" fill="#fff" stroke-linejoin="round"/><path d="m67.0766 102.052.2035.04-.7269 1.831-.2021-.04z" fill="#fff" stroke-linejoin="round"/><path d="m96.7164 27.2908.2003.0414-.7266 1.8302-.2024-.0403z" fill="#fff" stroke-linejoin="round"/><path d="m67.9283 102.223.2021.037-.6814 1.84-.2045-.038z" fill="#fff" stroke-linejoin="round"/><path d="m95.8214 27.1149.2021.0378-.6846 1.8398-.2042-.0371z" fill="#fff" stroke-linejoin="round"/><path d="m94.9222 26.9514.2027.0352-.6403 1.8477-.206-.0343z" fill="#fff" stroke-linejoin="round"/><path d="m89.7448 34.6828-4.0634 28.1224 33.0016 9.5493-34.1718-4.6492-13.1404 28.8355 5.6124-29.4594-34.5519-8.213 35.5742 2.8119z" fill="#c19375" stroke-linejoin="round"/><path d="m89.7528 34.7281-4.0876 28.0658-4.3641 2.1626z" fill="#e6c6a4" stroke-linejoin="round"/><path d="m42.4663 58.8761 38.8768 6.0942-3.3731-3.3004z" fill="#e6c6a4" stroke-linejoin="round"/><path d="m71.3878 96.4983 9.9238-31.5327-4.3263 2.1346z" fill="#e6c6a4" stroke-linejoin="round"/><path d="m118.651 72.3513-37.339-7.3945 3.2096 2.7382z" fill="#e6c6a4" stroke-linejoin="round"/><path d="m62.5808 45.1293 19.3122 17.48 26.367-11.311-23.27 14.5871 14.6303 22.4267-19.4466-18.9922-26.2335 12.8229 22.6633-16.3005z" fill="#c19375" stroke-linejoin="round"/><path d="m62.6222 45.1493 19.252 17.4625-.8491 3.3753z" fill="#e6c6a4" stroke-linejoin="round"/><path d="m53.967 82.1326 27.0929-16.1576-4.4852-.1208z" fill="#e6c6a4" stroke-linejoin="round"/><path d="m99.5988 88.2795-18.5607-22.2916-.8481 3.3424z" fill="#e6c6a4" stroke-linejoin="round"/><path d="m108.242 51.3112-27.2086 14.6706 3.9561-.1052z" fill="#e6c6a4" stroke-linejoin="round"/><path d="m85.799 36.4391 2.3197-7.2041 1.3552.2209 1.9121 4.1485c.4419.9607.7537 1.8109.9736 2.6227l.032-.0064c.196-.9799.449-1.8615.81-2.9833l.9703-3.0147 1.1706.1911-2.318 7.2044-1.2568-.2052-1.8794-4.1542c-.4126-.9112-.791-1.8391-1.0244-2.6986l-.0467.0036c-.2206.92-.4707 1.7906-.8567 2.9879l-.9902 3.0784z" fill="#014da5" stroke-linejoin="round"/><path d="m56.6282 41.8648 1.0156-3.1543.5933.0969.836 1.816c.1931.4204.3303.7921.4265 1.1484l.0136-.0028c.0859-.4295.1967-.815.3549-1.3068l.4248-1.3195.5124.0838-1.0152 3.1543-.5499-.0898-.8224-1.8191c-.1807-.3991-.345-.8046-.4472-1.1809l-.0207.0017c-.0969.4027-.207.7837-.3749 1.3078l-.4347 1.3477z" fill="#fff" stroke-linejoin="round"/><path d="m61.427 42.6481-.0531-3.3286.5748.0934-.0139 1.6773c-.0014.4133-.0157.8249-.0385 1.1417l.0125.0018c.1692-.3025.4212-.655.6956-1.0391l1.0751-1.4991.5683.093-.0028 1.6837c-.0022.3938-.0093.7868-.0549 1.1292l.0135.0018c.1985-.3321.4305-.6635.6885-1.0348l1.0683-1.5006.5552.091-2.2083 2.959-.5691-.0927-.0017-1.7289c-.0018-.4244.0103-.7477.0559-1.0748l-.0121-.0021c-.1757.3015-.3685.5951-.6571.9767l-1.1278 1.5448z" fill="#fff" stroke-linejoin="round"/><path d="m108.959 49.9251 1.016-3.154.593.0966.837 1.8159c.193.4205.329.7922.425 1.1481l.014-.0025c.086-.4297.197-.8152.355-1.3067l.425-1.3191.512.0833-1.016 3.154-.549-.0897-.822-1.8185c-.181-.3991-.345-.805-.447-1.1816l-.021.0018c-.097.4026-.207.784-.376 1.3081l-.434 1.3477z" fill="#fff" stroke-linejoin="round"/><path d="m115.727 49.4729-1.637-.2673-.366 1.1371 1.825.2976-.11.3421-2.368-.3863 1.015-3.1543 2.274.3709-.11.3414-1.731-.2822-.32.997 1.636.2669z" fill="#fff" stroke-linejoin="round"/><path d="m44.2977 84.7296c.2074.1514.5335.304.9084.3649.5558.0909.9514-.0755 1.0537-.3938.0947-.295-.0752-.4999-.5909-.7575-.6286-.294-.9685-.6297-.8253-1.0751.1586-.4914.8196-.7676 1.6382-.6332.4315.0702.7194.1959.8815.3057l-.2576.3082c-.1183-.0791-.3699-.2184-.7512-.2796-.5744-.0942-.8762.1272-.9453.342-.0952.295.1143.4825.6407.7451.6467.3222.9261.6386.7775 1.1022-.1571.4867-.7743.8292-1.7671.667-.4069-.0659-.821-.2281-1.0106-.3762z" fill="#fff" stroke-linejoin="round"/><path d="m47.9805 85.8526-.0531-3.3282.5748.0941-.0139 1.6768c-.0011.4141-.0157.8246-.0388 1.1414l.0124.0026c.1693-.3029.4216-.6554.6963-1.0399l1.0747-1.4987.5684.093-.0028 1.684c-.0018.3938-.0097.7857-.0542 1.1289l.0128.0018c.1985-.3318.4301-.6631.6885-1.0355l1.0679-1.5003.5559.0909-2.2086 2.9594-.5687-.0926-.0021-1.7286c-.0015-.4241.0099-.7476.0559-1.0748l-.0125-.0017c-.1753.3-.3684.594-.656.976l-1.1289 1.5441z" fill="#fff" stroke-linejoin="round"/><path d="m98.0597 92.4365c.2081.1518.5338.3036.909.3639.5548.0908.9511-.076 1.0543-.3938.094-.2947-.0765-.4999-.5911-.7565-.6293-.2951-.9685-.6311-.8256-1.0755.1579-.4913.8196-.7679 1.6377-.6335.431.0702.719.1956.882.3057l-.257.3079c-.12-.0784-.371-.2185-.752-.2801-.5742-.0934-.8768.1279-.9459.3425-.0944.2953.1147.4821.6414.7458.6455.3214.9265.6378.7775 1.1021-.157.4864-.7739.8282-1.7674.6668-.4059-.0663-.8207-.2277-1.0095-.3767z" fill="#fff" stroke-linejoin="round"/><path d="m103.712 92.3238-1.637-.2669-.366 1.1367 1.824.2986-.109.3411-2.369-.3863 1.016-3.1537 2.274.3706-.109.3418-1.732-.2826-.321.9971 1.637.2675z" fill="#fff" stroke-linejoin="round"/><path d="m68.7997 97.3331c.4743.3477 1.2197.6935 2.076.8342 1.2707.207 2.1755-.1743 2.4096-.9005.217-.6738-.1735-1.1428-1.3527-1.7287-1.4364-.6734-2.2114-1.4413-1.8847-2.4565.3617-1.1225 1.8715-1.7532 3.7423-1.4479.9857.1612 1.6453.4487 2.0148.7003l-.5869.7027c-.2733-.1796-.847-.4982-1.7183-.6408-1.3135-.2137-2.003.2923-2.1608.784-.217.6732.2619 1.1004 1.4659 1.7019 1.4767.7362 2.1164 1.4588 1.7753 2.5176-.3577 1.1114-1.7674 1.8936-4.0373 1.523-.9286-.1511-1.8772-.5199-2.3087-.8606z" fill="#014da5" stroke-linejoin="round"/><path d="m126.313 72.3904-3.741-.61-.837 2.5966 4.17.6807-.251.7807-5.412-.8834 2.319-7.2045 5.198.8488-.251.7804-3.956-.6464-.733 2.2766 3.741.6109z" fill="#014da5" stroke-linejoin="round"/><path d="m36.8014 61.1253-.123-7.6022 1.3138.2142-.0299 3.831c-.0043.944-.0367 1.884-.0887 2.6071l.0292.0046c.3873-.6903.9625-1.4967 1.5907-2.3729l2.4548-3.4248 1.2993.2127-.0065 3.8463c-.0032.8995-.0213 1.7967-.1229 2.5785l.0289.005c.4543-.7586.9835-1.5162 1.5725-2.3649l2.4406-3.4267 1.2703.2078-5.0461 6.7587-1.2999-.212-.0054-3.95c-.0043-.9682.0228-1.7062.1283-2.4535l-.0278-.0053c-.4019.6881-.8438 1.3587-1.5002 2.2303l-2.5781 3.5285z" fill="#014da5" stroke-linejoin="round"/><path d="m74.6153 33.9383 10.4026 30.5527-7.1959 1.2379z" fill="#a80000" stroke-linejoin="round"/><path d="m74.6153 33.9383 10.4026 30.5527-3.4868.6004z" fill="#f00" stroke-linejoin="round"/><path d="m86.3846 96.3762-1.4061-32.0993-7.197 1.2365z" fill="#4c4f4d" stroke-linejoin="round"/><path d="m86.3676 96.2856-1.4054-32.1013-3.4872.6015z" fill="#cdd1d6" stroke-linejoin="round"/><path d="m82.7704 66.2521c-.2295.7141-1.1898 1.1681-2.143 1.0113-.9554-.1551-1.5433-.8606-1.3138-1.5747.2312-.7134 1.1916-1.1667 2.1437-1.0109.955.155 1.543.8616 1.3131 1.5743z" fill="#fff" stroke-linejoin="round"/><path d="m84.928 64.8281c-.3215 1.5537-2.2329 2.7228-4.2744 2.612-2.0457-.1115-3.4351-1.4607-3.1176-3.0129.3218-1.5561 2.2371-2.726 4.2793-2.6145 2.0408.1098 3.4369 1.4568 3.1127 3.0154z" fill="#fff" stroke-linejoin="round"/><path d="m83.7785 64.7644c-.2209 1.0705-1.5376 1.8758-2.9433 1.7985-1.4083-.0766-2.3661-1.006-2.1477-2.0757.222-1.0708 1.5408-1.8765 2.9462-1.7992 1.4069.0752 2.3679 1.0035 2.1448 2.0764z" fill="#ff8e00" stroke-linejoin="round"/><path d="m82.6295 64.7011c-.1208.5855-.8413 1.0263-1.611.9843-.7719-.0422-1.2971-.5513-1.1781-1.1372.1219-.5865.8431-1.0276 1.6132-.9853.77.0414 1.2978.5499 1.1759 1.1382z" fill="#ffd600" fill-opacity=".501961" stroke-linejoin="round"/><path d="m5.96043 59.2497c0 29.5433 33.14337 53.4923 74.02807 53.4923l0 0c40.8845 0 74.0285-23.949 74.0285-53.4923l0 0c0-29.543-33.144-53.49195-74.0285-53.49195l0 0c-40.8847 0-74.02807 23.94895-74.02807 53.49195zm9.13027 0c0-25.899 29.0559-46.8945 64.8978-46.8945l0 0c35.8415 0 64.8975 20.9959 64.8975 46.8945l0 0c0 25.8986-29.056 46.8933-64.8975 46.8933l0 0c-35.8419 0-64.8978-20.9947-64.8978-46.8933z" fill="url(#c)" stroke-linejoin="round"/></g></svg>