<svg enable-background="new 0 0 362.00 363.00" height="363" viewBox="0 0 362 363" width="362" xmlns="http://www.w3.org/2000/svg" xmlns:xlink="http://www.w3.org/1999/xlink"><radialGradient id="a" cx="181" cy="181.5" gradientUnits="userSpaceOnUse" r="181.5"><stop offset=".670157" stop-color="#fff"/><stop offset="1" stop-color="#87a876"/></radialGradient><linearGradient id="b"><stop offset="0" stop-color="#4a5b41"/><stop offset="1"/></linearGradient><linearGradient id="c" gradientTransform="matrix(0 -1 1 0 -.541355 1.539863)" gradientUnits="objectBoundingBox" x1=".499254" x2="1.58037" xlink:href="#b" y1="1.04061" y2="1.04061"/><linearGradient id="d" gradientUnits="objectBoundingBox" x1="-.0398821" x2="1.03988" xlink:href="#b" y1=".5" y2=".499998"/><linearGradient id="e" gradientTransform="matrix(-.999851147225 -.017253503764 .017253503764 -.999851147225 2.057838277424 1.036433781582)" gradientUnits="objectBoundingBox" x1="1.03339" x2="2.09743" xlink:href="#b" y1=".50934" y2=".50934"/><g stroke-linejoin="round"><path d="m181 1.00001c99.411 0 180 80.81259 180 180.49999 0 99.687-80.589 180.5-180 180.5-99.4113 0-180-80.813-180-180.5 0-99.6874 80.5887-180.49999 180-180.49999zm.25 30.37199c-82.8427 0-150 67.1572-150 150 0 82.843 67.1573 150 150 150 82.843 0 150-67.157 150-150 0-82.8428-67.157-150-150-150z" fill="url(#a)" stroke="#161f11" stroke-width="2"/><path d="m193.215 348.203-7.633.309c-.127-1.172-.412-2.068-.856-2.686-.722-1.007-1.771-1.523-3.146-1.548-1.026-.019-1.82.226-2.384.734s-.852 1.103-.864 1.785c-.012.647.223 1.231.704 1.752.486.522 1.746 1.029 3.781 1.521 3.333.824 5.701 1.873 7.104 3.148 1.418 1.276 2.109 2.88 2.074 4.811-.024 1.275-.416 2.47-1.177 3.587-.761 1.116-1.89 1.984-3.387 2.603-1.498.619-3.541.905-6.13.857-3.173-.058-5.582-.701-7.227-1.928-1.644-1.228-2.601-3.151-2.871-5.771l7.634-.32c.144 1.212.475 2.099.994 2.659s1.244.849 2.176.866c.765.014 1.345-.166 1.74-.54.396-.373.598-.833.608-1.378.007-.397-.076-.758-.251-1.083-.167-.332-.923-.652-2.268-.962-3.323-.787-5.7-1.565-7.13-2.333-1.431-.769-2.465-1.709-3.102-2.82-.637-1.112-.943-2.348-.918-3.709.03-1.596.497-3.06 1.403-4.393.905-1.332 2.155-2.332 3.75-3 1.594-.668 3.593-.979 5.998-.935 4.224.077 7.135.937 8.732 2.579s2.479 3.707 2.646 6.195z" fill="url(#c)" stroke="#e3fcd1" stroke-width="2"/><path d="m363.863 169.189-.112 20.453-5.893-.032.07-12.827-3.466-.019-.065 11.787-5.2-.029.065-11.787-4.507-.024-.072 13.173-5.893-.033.114-20.799z" fill="url(#d)" stroke="#e3fcd1" stroke-width="2"/><path d="m170.427-1.45977h7.231l9.409 14.00747v-14.00747h7.28v24.96007h-7.28l-9.36-13.92632v13.92632h-7.28z" fill="#f00" stroke="#000" stroke-width="2"/><path d="m-.0696945 197.011.1343784-7.441 13.0550161-2.327-12.943427-3.853.140051-7.755 13.123376-3.414-13.011689-2.771.134476-7.447 24.856313 5.97-.1372 7.593-15.79046 4.108 15.63236 4.649-.1368 7.577z" fill="url(#e)" stroke="#e3fcd1" stroke-width="2"/><g fill="none" stroke="#000"><path d="m310.713 255.246 9.101 5.254" stroke-width="2"/><path d="m256.24 310.387 5.01 8.677" stroke-width="2"/><path d="m181.25 330.54v9.96" stroke-width="4"/><path d="m330.429 180.5h10.821" stroke-width="4"/><path d="m309.93 106.206 9.884-5.706" stroke-width="2"/><path d="m255.36 52.1384 5.89-10.2024" stroke-width="2"/><path d="m181.25 31.8262v-11.3261" stroke-width="4"/><path d="m107.005 51.9033-5.755-9.9673" stroke-width="2"/><path d="m52.1428 105.96-15.6799-9.0528" stroke-width="2"/><path d="m31.8192 180.5h-10.5691" stroke-width="4"/><path d="m51.6116 255.347-8.9256 5.153" stroke-width="2"/><path d="m106.214 310.467-4.964 8.597" stroke-width="2"/></g></g></svg>