<svg enable-background="new 0 0 379.33 378.72" height="378.718" viewBox="0 0 379.33 378.72" width="379.33" xmlns="http://www.w3.org/2000/svg" xmlns:xlink="http://www.w3.org/1999/xlink"><radialGradient id="a" cx="189.106" cy="189.666" gradientUnits="userSpaceOnUse" r="181.5"><stop offset=".337838" stop-color="#fff"/><stop offset="1" stop-color="#87a876"/></radialGradient><linearGradient id="b"><stop offset="0" stop-color="#4a5b41"/><stop offset="1"/></linearGradient><linearGradient id="c" gradientTransform="matrix(.000488290745 -.999999880786 .999999880786 .000488290745 -.045182463399 1.050335469034)" gradientUnits="objectBoundingBox" x1=".502833" x2="1.06501" xlink:href="#b" y1=".54777" y2=".54777"/><linearGradient id="d" gradientUnits="objectBoundingBox" x1="-.0196457" x2=".541833" xlink:href="#b" y1=".499627" y2=".499626"/><linearGradient id="e" gradientTransform="matrix(-.999851138191 -.017254027284 .017254027284 -.999851138191 2.017605731177 1.039479207802)" gradientUnits="objectBoundingBox" x1="1.01329" x2="1.56659" xlink:href="#b" y1=".511036" y2=".511036"/><g stroke-linejoin="round"><path d="m189.106 9.16631c99.411 0 180 80.81259 180 180.49969 0 99.688-80.589 180.5-180 180.5-99.4113 0-180.00004-80.812-180.00004-180.5 0-99.6871 80.58864-180.49969 180.00004-180.49969zm.25 55.37199c-69.036 0-125.0001 55.9647-125.0001 124.9997 0 69.036 55.9641 125 125.0001 125 69.035 0 125-55.964 125-125 0-69.035-55.964-124.9997-125-124.9997z" fill="url(#a)" fill-rule="evenodd" stroke="#161f11" stroke-width="2"/><g fill="none" stroke="#000"><path d="m298.302 251.566 20.958 12.1" stroke-width="2"/><path d="m252.312 297.71 12.044 20.86" stroke-width="2"/><path d="m189.356 314.788v23.878" stroke-width="4"/><path d="m314.438 188.666h24.918" stroke-width="4"/><path d="m297.673 126.129 21.587-12.463" stroke-width="2"/><path d="m251.555 80.9338 12.801-22.1713" stroke-width="2"/><path d="m189.356 64.2773v-25.611" stroke-width="4"/><path d="m127.06 80.7669-12.704-22.0045" stroke-width="2"/><path d="m81.4645 126.375-27.8464-16.077" stroke-width="2"/><path d="m64.1671 188.666h-24.811" stroke-width="4"/><path d="m80.9419 251.259-21.4897 12.407" stroke-width="2"/><path d="m126.5 297.679-12.082 20.927" stroke-width="2"/></g><path d="m210.889 345.268-14.68.596c-.244-2.255-.792-3.977-1.645-5.167-1.389-1.935-3.405-2.927-6.051-2.976-1.972-.036-3.5.434-4.584 1.411s-1.638 2.121-1.662 3.434c-.023 1.243.429 2.366 1.355 3.369.933 1.003 3.357 1.979 7.271 2.925 6.409 1.584 10.963 3.601 13.662 6.054 2.726 2.453 4.055 5.537 3.987 9.252-.045 2.451-.799 4.75-2.263 6.897-1.463 2.147-3.634 3.816-6.514 5.006-2.88 1.191-6.809 1.74-11.788 1.649-6.103-.112-10.736-1.348-13.898-3.709-3.162-2.36-5.002-6.059-5.521-11.098l14.681-.616c.276 2.332.913 4.037 1.911 5.114.998 1.078 2.393 1.633 4.184 1.666 1.472.027 2.588-.319 3.348-1.038s1.149-1.602 1.168-2.651c.014-.764-.147-1.458-.482-2.082-.322-.638-1.776-1.255-4.363-1.851-6.39-1.513-10.961-3.009-13.712-4.487s-4.739-3.285-5.964-5.423c-1.225-2.137-1.813-4.514-1.765-7.132.056-3.069.955-5.885 2.697-8.447s4.146-4.485 7.211-5.77c3.066-1.284 6.911-1.883 11.535-1.799 8.124.149 13.721 1.803 16.792 4.96 3.071 3.158 4.768 7.129 5.09 11.913z" fill="url(#c)" stroke="#e3fcd1" stroke-width="2"/><path d="m378.33 167.722-.216 39.332-11.333-.062.136-24.666-6.667-.037-.125 22.667-9.999-.055.124-22.667-8.666-.047-.14 25.333-11.333-.063.22-39.999z" fill="url(#d)" stroke="#e3fcd1" stroke-width="2"/><path d="m166.773.99999h13.906l18.094 26.93751v-26.93751h14v48.00001h-14l-18-26.7813v26.7813h-14z" fill="#f00" stroke="#000" stroke-width="2"/><path d="m1 219.428.25842-14.31 25.10568-4.475-24.89109-7.409.26933-14.914 25.23726-6.566-25.02247-5.328.2586-14.32 47.80057 11.479-.2637 14.602-30.3664 7.901 30.0623 8.94-.2632 14.57z" fill="url(#e)" stroke="#e3fcd1" stroke-width="2"/></g></svg>