<svg enable-background="new 0 0 513.00 513.00" height="513" viewBox="0 0 513 513" width="513" xmlns="http://www.w3.org/2000/svg" xmlns:xlink="http://www.w3.org/1999/xlink"><linearGradient id="a" gradientTransform="matrix(-.629319970573 -.777146301952 .777146301952 -.629319970573 .636789884144 2.080885405667)" gradientUnits="objectBoundingBox" x1=".814661" x2="1.81466" y1=".888576" y2=".888576"><stop offset="0" stop-color="#425e7e"/><stop offset=".893501" stop-color="#70acf1"/><stop offset="1" stop-color="#90c5f1"/></linearGradient><radialGradient id="b" cx="136.833" cy="121.167" gradientUnits="userSpaceOnUse" r="93.3333"><stop offset=".125" stop-color="#90f19d"/><stop offset=".323276" stop-color="#8cf186"/><stop offset=".323276" stop-color="#89f170"/><stop offset=".50431" stop-color="#7edf69"/><stop offset="1" stop-color="#447e42"/></radialGradient><linearGradient id="c"><stop offset="0" stop-color="#7edf69"/><stop offset="1" stop-color="#447e42"/></linearGradient><radialGradient id="d" cx="150.01" cy="191.823" gradientUnits="userSpaceOnUse" r="55.3332" xlink:href="#c"/><radialGradient id="e" cx="212.51" cy="121.156" gradientUnits="userSpaceOnUse" r="32.8333" xlink:href="#c"/><linearGradient id="f" gradientTransform="matrix(.655310422178 .755359682922 -.755359682922 .655310422178 -.003247564607 -.307455221515)" gradientUnits="objectBoundingBox" x1=".335258" x2="1.6905" y1="-.157286" y2="-.157286"><stop offset=".0186047" stop-color="#343a4d"/><stop offset=".488372" stop-color="#6eadd2"/><stop offset=".772093" stop-color="#485270"/></linearGradient><linearGradient id="g" gradientTransform="matrix(.764135111937 .645056222903 -.645056222903 .764135111937 .175748826892 -.003203524036)" gradientUnits="objectBoundingBox" x1=".0922551" x2="1.05405" y1=".238722" y2=".238722"><stop offset=".00431034" stop-color="#adb1b2"/><stop offset=".185345" stop-color="#9ea8ab"/><stop offset="1" stop-color="#d4e2e3"/></linearGradient><linearGradient id="h" gradientTransform="matrix(.763777846038 .645479203307 -.645479203307 .763777846038 .173937099906 -.001462721563)" gradientUnits="objectBoundingBox" x1=".0889669" x2="1.05822" y1=".236911" y2=".236911"><stop offset=".00431034" stop-color="#b3b8b9"/><stop offset=".185345" stop-color="#a4afb2"/><stop offset="1" stop-color="#e2f0f1"/></linearGradient><linearGradient id="i" gradientTransform="matrix(.294843146658 -.955545665507 .955545665507 .294843146658 -.6010654993 .895388699935)" gradientUnits="objectBoundingBox" x1=".30613" x2="1.13963" y1=".854941" y2=".854941"><stop offset="0" stop-color="#7d8181"/><stop offset=".616379" stop-color="#d1e2e3"/><stop offset="1" stop-color="#7d8181"/></linearGradient><linearGradient id="j" gradientTransform="matrix(.294637907553 -.955608969942 .955608969942 .294637907553 -.604295190154 .895870235075)" gradientUnits="objectBoundingBox" x1=".304705" x2="1.14378" y1=".857278" y2=".857278"><stop offset="0" stop-color="#898e8f"/><stop offset=".616379" stop-color="#e4f7f8"/><stop offset="1" stop-color="#898e8f"/></linearGradient><linearGradient id="k"><stop offset=".00431034" stop-color="#c3c7c7"/><stop offset="1" stop-color="#1d1f1f"/></linearGradient><radialGradient id="l" cx="232.242" cy="280.703" gradientTransform="matrix(.796573739406 .604541377979 -.604541377979 .796573739406 216.940567563895 -83.297625397996)" gradientUnits="userSpaceOnUse" r="18.9715" xlink:href="#k"/><linearGradient id="m"><stop offset=".00431034" stop-color="#7f8181"/><stop offset="1" stop-color="#485657"/></linearGradient><radialGradient id="n" cx="232.242" cy="280.703" gradientTransform="matrix(.795037386107 .606560429547 -.606560429547 .795037386107 217.864126772529 -83.335275493655)" gradientUnits="userSpaceOnUse" r="19.0012" xlink:href="#m"/><radialGradient id="o" cx="379.878" cy="239.524" gradientTransform="matrix(.796576883664 .604537234926 -.604537234926 .796576883664 222.077070958953 -180.925366388135)" gradientUnits="userSpaceOnUse" r="18.9715" xlink:href="#k"/><radialGradient id="p" cx="379.878" cy="239.524" gradientTransform="matrix(.795040572625 .606556252857 -.606556252857 .795040572625 223.144284306485 -181.324362437183)" gradientUnits="userSpaceOnUse" r="19.0013" xlink:href="#m"/><linearGradient id="q" gradientTransform="matrix(.288189131772 .957573508577 -.957573508577 .288189131772 .260569472242 -.514046720527)" gradientUnits="objectBoundingBox" x1=".476049" x2="1.5512" y1="-.0817556" y2="-.0817556"><stop offset=".0646552" stop-color="#6a6c6c"/><stop offset=".437209" stop-color="#c6c7c7"/><stop offset=".790698" stop-color="#ced5d5"/><stop offset="1" stop-color="#5f6565"/></linearGradient><linearGradient id="r" gradientTransform="matrix(.289505510861 .957176346961 -.957176346961 .289505510861 .243388306008 -.525210099375)" gradientUnits="objectBoundingBox" x1=".475475" x2="1.58164" y1="-.0986589" y2="-.0986589"><stop offset=".0646552" stop-color="#707373"/><stop offset=".790698" stop-color="#f3f5f5"/><stop offset="1" stop-color="#6c7373"/></linearGradient><linearGradient id="s" gradientTransform="matrix(.313754193988 .949504242094 -.949504242094 .313754193988 .629802663494 -.608634313801)" gradientUnits="objectBoundingBox" x1=".735961" x2="1.36482" y1=".131387" y2=".131387"><stop offset=".0646552" stop-color="#707373"/><stop offset=".49569" stop-color="#c3c7c7"/><stop offset="1" stop-color="#6c7373"/></linearGradient><linearGradient id="t" gradientTransform="matrix(.315046185632 .949076340933 -.949076340933 .315046185632 .621529326176 -.623904968618)" gradientUnits="objectBoundingBox" x1=".743008" x2="1.39343" y1=".118645" y2=".118645"><stop offset="0" stop-color="#656565"/><stop offset=".323276" stop-color="#dcdede"/><stop offset=".400862" stop-color="#eef1f1"/><stop offset=".762931" stop-color="#e6e8e8"/><stop offset="1" stop-color="#1d1f1f"/></linearGradient><linearGradient id="u" gradientTransform="matrix(.870550042305 .492079895792 -.492079895792 .870550042305 .0907039812 -.274750285078)" gradientUnits="objectBoundingBox" x1=".567558" x2="1.58162" y1=".0350218" y2=".0350218"><stop offset=".0646552" stop-color="#707373"/><stop offset=".49569" stop-color="#f3f5f5"/><stop offset="1" stop-color="#6c7373"/></linearGradient><linearGradient id="v" gradientUnits="objectBoundingBox" x1="-.020979" x2="1.02797" y1=".679102" y2=".679102"><stop offset="0" stop-color="#a1a4a4"/><stop offset=".539535" stop-color="#b1b2b2"/></linearGradient><linearGradient id="w" gradientTransform="matrix(.655472182042 -.755219318191 .755219318191 .655472182042 -.720917740022 .521580305134)" gradientUnits="objectBoundingBox" x1=".211204" x2="1.45528" y1="1.05093" y2="1.05093"><stop offset=".0646552" stop-color="#707373"/><stop offset=".353488" stop-color="#f3f5f5"/><stop offset=".790698" stop-color="#e7eaea"/><stop offset="1" stop-color="#6c7373"/></linearGradient><linearGradient id="x" gradientTransform="matrix(.791656248724 .610966761662 -.610966761662 .791656248724 .188013147878 -.013381392978)" gradientUnits="objectBoundingBox" x1=".113627" x2="1.24453" y1=".268983" y2=".268983"><stop offset="0" stop-color="#636565"/><stop offset=".539535" stop-color="#b3b9b9"/></linearGradient><linearGradient id="y" gradientTransform="matrix(.792355141047 .61006010397 -.61006010397 .792355141047 .184214215189 -.010918928068)" gradientUnits="objectBoundingBox" x1=".108147" x2="1.25652" y1=".265151" y2=".265151"><stop offset="0" stop-color="#707373"/><stop offset=".539535" stop-color="#f3f5f5"/></linearGradient><linearGradient id="z" gradientTransform="matrix(.645289611266 .763938032561 -.763938032561 .645289611266 .234741883704 .020851551051)" gradientUnits="objectBoundingBox" x1=".0949174" x2="1.0214" y1=".263207" y2=".263207"><stop offset="0" stop-color="#6eadd2"/><stop offset=".939535" stop-color="#414b69"/></linearGradient><linearGradient id="A" gradientTransform="matrix(.242125650441 .970244901764 -.970244901764 .242125650441 .293091908243 -.360469736804)" gradientUnits="objectBoundingBox" x1=".377286" x2="1.39264" y1=".00737609" y2=".00737609"><stop offset=".0186047" stop-color="#c70707"/><stop offset="1" stop-color="#420101"/></linearGradient><linearGradient id="B" gradientTransform="matrix(.242134032746 .970242809912 -.970242809912 .242134032746 .270585789185 -.370496067258)" gradientUnits="objectBoundingBox" x1=".372453" x2="1.42783" y1="-.0120424" y2="-.0120424"><stop offset=".0186047" stop-color="#f17b7b"/><stop offset="1" stop-color="#ee0606"/></linearGradient><linearGradient id="C" gradientTransform="matrix(0 1 -1 0 .772982 -.233676)" gradientUnits="objectBoundingBox" x1=".503329" x2="1.02035" y1=".269653" y2=".269653"><stop offset=".0186047" stop-color="#f8f8f8" stop-opacity=".643137"/><stop offset="1" stop-color="#eae8e8" stop-opacity=".25098"/></linearGradient><g stroke-linejoin="round"><path d="m167.165 42.5c75.112 0 136 60.888 136 135.999 0 75.11-60.89 135.999-136 135.999-75.1104 0-135.9999-60.889-135.9999-135.999 0-75.111 60.8884-135.999 135.9999-135.999z" fill="url(#a)" stroke-width=".2"/><path d="m79.4995 84.8339v3.3333l-2 1.3333-17.3333-.6666-14.6667 21.3331v4.667l6 5.333-.6667 6 2.6667 4.667 5.3333 4.666 1.3334 22.667 5.3333 6 18 20.667 14.6667 10.666 15.9998 5.334 6.667 3.333 1.333-11.333-8.666-6.667-8-2.667-2-8h12.666l4 7.334 6 5.333 8.667 3.333 18-4.666 2.667-7.334h-16.667l-6.667-9.333-.666-6.667 23.333-27.333 8.667-7.333-11.334-20 6.667-8.667-6-11.9998-8.667-6.6667-2.666-7.3333 4-7.3333 6-6.6667 2.666 13.3333 10.667 3.3334 4.667 6.6666 3.333 17.3335 5.333 8 4 4.666 9.334-6.666 2.666-4.667 23.334 1.333 2 5.334 8.666-8-3.333-6.0001-8-2-5.333-4.6667-.667-8 5.333-3.3333 1.334-24-10-8-8.667-2.6667h-15.333l-8 4-5.334 5.3333-6.666-.6666-4.667-7.3334-2.667-4.6666-9.333-.6667-5.333 2.6667-5.334 4-12.666 2-1.334 3.3333 2 6-6 1.3333-2.666-4-11.334-1.3333-3.333 6-.667 8v3.3333l-3.3332 2h-6l-2-7.3333-4-.6667-4 4.6667-6.6666 6 2 10zm33.5105-14.3444-4.667-4 6 1.3333h6l8 .6667.667 8.6666 2.667 2 4.666 7.3334 4 3.3333-.666 8-6 1.3333-4.667-2.6666-2.667-6-4.666-7.3334-7.334-1.3333v-3.3333zm-5.333 47.3335 3.333-7.333 8.667-2.667 6.666 6.667-1.333 8.666-4.667 6.667-8-2.667-5.333-6z" fill="url(#b)" stroke="#006432" stroke-width="2"/><path d="m145.01 200.49h-11.333l-8 10-3.334 11.333-.666 7.333 14.666 10 7.334 5.333 6.666 13.334-14.666 1.333-1.334 10.667-.666 13.333 3.333 15.333 2.667 3.334 22.666 5.333 36-12.667z" fill="url(#d)" stroke="#006432" stroke-width="2"/><path d="m225.677 126.323.666-8 7.334-5 3.333 2 16 18-3.667-15.333-2-4.334 2.667-5.333 6.333-5.333 6.667-8.3339-1-6.3333 4.333-4 6.334 2.3333 14.666 20.3339-13.333 19-20.333 12z" fill="url(#e)" stroke="#006432" stroke-width="2"/><path d="m266.103 388.503 21 24 16 11 29 18 22 12 23 7 17 1 14-4 13-8 5-13-2-6-11 4-24-2-21-7-22-10-20-14-14-12-7-7-4-5-2-2z" fill="url(#f)" stroke="#21324b" stroke-linecap="round" stroke-width="3"/><g stroke-width="2"><path d="m212.177 162.82 190-47.334c6-2 26-5.278 26 13.5l.333 184.664c0 18.778-13.628 38.906-32.406 38.906l-180.667 49.833c-18.778 0-34.927.042-34.927-18.736v-188c0-18.778 9.667-28.833 31.667-32.833z" fill="url(#h)" stroke="url(#g)"/><path d="m177.01 137.817 190-47.3334c7.417-1.9108 10.792.4219 14.958 3.0885l35.438 20.5839-206.063 49.667c-22 4-31.666 14.055-31.666 32.833l.625 196.999-30-18c-5.563-4.166-5-6.729-4.959-17.005v-188c0-18.778 9.667-28.833 31.667-32.833z" fill="url(#j)" stroke="url(#i)"/><path d="m241.385 267.717c5.631 3.965 6.103 12.994 1.054 20.165-5.049 7.172-13.708 9.771-19.34 5.807-5.631-3.965-6.103-12.994-1.054-20.165 5.049-7.172 13.708-9.772 19.34-5.807z" fill="url(#n)" stroke="url(#l)"/><path d="m389.02 226.538c5.632 3.965 6.104 12.994 1.055 20.165-5.05 7.172-13.708 9.772-19.34 5.807s-6.104-12.993-1.055-20.165c5.05-7.172 13.708-9.772 19.34-5.807z" fill="url(#p)" stroke="url(#o)"/><path d="m271.333 294.024 67-19 1 43-83.5 25.833z" fill="url(#r)" stroke="url(#q)" stroke-linecap="round"/><path d="m270.875 251.691 66.833-18.498.143 39.36-66.833 18.498z" fill="url(#t)" stroke="url(#s)"/><path d="m337.833 233.191.083 39.625-66.791 18.25" fill="none" stroke="url(#u)" stroke-linecap="round"/></g><path d="m314.342 313.667 52-21.5c4-1.75 4.637-.726 10.158 4.479v22c0 4.418-.5 8.25-5.5 10.5l-57 22c-3.73-1.601-7.98-.601-8-8v-22c0-4.418 1.842-4.979 8.342-7.479z" fill="#fff" stroke="url(#v)" stroke-linecap="round"/><path d="m306.729 318.024.021-.009v-.158l.151.091 63.147-27.567 58.248 36.049-63.388 26.554.342.207-.5 31.666-58-35.5v-31.32z" fill="url(#w)" stroke-linecap="round" stroke-width=".2"/><path d="m370 348.857 52-21.5c4-1.75 10.5.582 10.5 5v22c0 4.418-.5 8.25-5.5 10.5l-57 22c-3.75 1.25-8-3.582-8-8v-22c0-4.418 1.5-5.5 8-8z" fill="url(#y)" stroke="url(#x)" stroke-linecap="round"/><path d="m394.103 461.503 27.667-.333 11-2.667 9.333-6 7.333-6 8.334-11.333 2.666-13.333-.333-11-4-11.334-14.333-17.333-24.25-26.833-5-4-29.75 11.25-.417 3.583 5.667 5.167 10.25 11 11.5 11.5 7 8.25 7.75 16.75v9.75l-1 11.583-8.667 12.333z" fill="url(#z)" stroke="#21324b" stroke-linecap="round" stroke-width="3"/><path d="m163.679 338.707 29.945-29.945 46.359 46.359 46.105-46.105 29.946 29.945-46.105 46.105 45.708 45.709-29.945 29.945-45.708-45.708-45.963 45.963-29.946-29.946 45.963-45.963z" fill="url(#B)" stroke="url(#A)" stroke-width="6"/><path d="m193.615 305.598-33.72 32.952 15.439 15.67c17.374 9.859 44.353 15.9 69.131 15.9 18.256 0 41.386-4.491 56.073-10.139l19.357-21.2-34.105-33.49-45.78 45.165z" fill="url(#C)" stroke-width=".2"/></g></svg>