<svg enable-background="new 0 0 257.00 257.00" height="257" viewBox="0 0 257 257" width="257" xmlns="http://www.w3.org/2000/svg"><path d="m127.476 110.514c-14.574-30.6818-29.1479-61.3637-36.8183-76.7047-7.6705-15.3409-8.4376-15.3409-9.3324-14.8296-.8949.5114-1.9177 1.5342-2.8125 2.3012-.8949.7671-1.662 1.2784-2.5569 2.1734-.8949.8948-1.9176 2.1733-2.8125 3.3237-.8949 1.1506-1.6619 2.1734-1.9176 3.8352-.2557 1.6619 0 3.9632.2557 6.2644l39.1195 107.3864-1.534 17.642-5.989 10.377c-7.5125-11.12-20.2347-18.431-34.6647-18.431-23.088 0-41.8041 18.717-41.8041 41.804 0 23.088 18.7164 41.805 41.8041 41.805 20.2018 0 37.8217-12.52 41.7197-31.57l15.809-41.684 3.115.681 14.743 41.337c3.898 19.049 22.584 31.917 42.786 31.917 23.088 0 41.804-18.717 41.804-41.804 0-23.089-18.716-41.805-41.804-41.805-14.43 0-27.152 7.311-34.665 18.431l-5.988-10.377-1.535-17.642 39.12-107.3867c.256-2.301.511-4.6021.256-6.2642-.256-1.6618-1.023-2.6845-1.918-3.8352-.895-1.1506-1.918-2.4289-2.813-3.324-.894-.8947-1.662-1.4062-2.556-2.173-.895-.7671-1.918-1.7898-2.813-2.3013s-1.662-.5115-9.332 14.8296c-7.671 15.341-22.245 46.0229-36.819 76.7048m-58.3427 63.751c-11.4378 0-20.7103 9.272-20.7103 20.71s9.2723 20.711 20.7103 20.711 20.7103-9.273 20.7103-20.711-9.2725-20.71-20.7103-20.71zm117.9167.169c-11.437 0-20.71 9.273-20.71 20.71 0 11.438 9.272 20.711 20.71 20.711s20.711-9.273 20.711-20.711c0-11.437-9.273-20.71-20.711-20.71z" style="fill:#dcb877;fill-rule:evenodd;stroke-width:3;stroke-linecap:round;stroke-linejoin:round;stroke:#b59663"/></svg>