<?xml version="1.0" encoding="utf-8"?>
<!DOCTYPE svg PUBLIC "-//W3C//DTD SVG 1.1//EN" "http://www.w3.org/Graphics/SVG/1.1/DTD/svg11.dtd">
<svg xmlns="http://www.w3.org/2000/svg" xmlns:xlink="http://www.w3.org/1999/xlink" version="1.1" baseProfile="full" width="207" height="207.076" viewBox="0 0 207.00 207.08" enable-background="new 0 0 207.00 207.08" xml:space="preserve">
	<g>
		<linearGradient id="SVGID_Stroke1_" gradientUnits="objectBoundingBox" x1="0.517447" y1="0.503451" x2="1.45647" y2="0.503451" gradientTransform="rotate(91.878006 0.517447 0.503451)">
			<stop offset="0" stop-color="#000000" stop-opacity="1"/>
			<stop offset="1" stop-color="#F8F8F8" stop-opacity="1"/>
		</linearGradient>
		<ellipse fill="#939A95" fill-opacity="1" stroke-width="6" stroke-linejoin="round" stroke="url(#SVGID_Stroke1_)" cx="103.791" cy="140.517" rx="88.125" ry="29.6249"/>
		<linearGradient id="SVGID_Stroke2_" gradientUnits="objectBoundingBox" x1="0.526166" y1="0.374913" x2="1.46529" y2="0.374913" gradientTransform="rotate(92.817139 0.526166 0.374913)">
			<stop offset="0" stop-color="#000000" stop-opacity="1"/>
			<stop offset="1" stop-color="#F8F8F8" stop-opacity="1"/>
		</linearGradient>
		<ellipse fill="#939A95" fill-opacity="1" stroke-width="6" stroke-linejoin="round" stroke="url(#SVGID_Stroke2_)" cx="103.124" cy="89.1836" rx="88.1249" ry="29.6249"/>
		<linearGradient id="SVGID_Stroke3_" gradientUnits="objectBoundingBox" x1="0.37059" y1="0.226982" x2="1.31376" y2="0.226982" gradientTransform="rotate(75.877869 0.370590 0.226982)">
			<stop offset="0" stop-color="#000000" stop-opacity="1"/>
			<stop offset="1" stop-color="#F8F8F8" stop-opacity="1"/>
		</linearGradient>
		<path fill="#939A95" fill-opacity="1" stroke-width="6" stroke-linejoin="round" stroke="url(#SVGID_Stroke3_)" d="M 103.916,6.60046C 152.585,6.60046 192.041,19.8639 192.041,36.2252C 192.041,52.5868 152.586,65.8502 103.916,65.8502C 55.2458,65.8502 15.791,52.5868 15.791,36.2252C 15.791,19.8639 55.2461,6.60046 103.916,6.60046 Z "/>
		<linearGradient id="SVGID_Fill1_" gradientUnits="objectBoundingBox" x1="-0.0164748" y1="0.5004" x2="1.01693" y2="0.5004">
			<stop offset="0" stop-color="#6F6F6F" stop-opacity="1"/>
			<stop offset="0.180183" stop-color="#DFDFDF" stop-opacity="1"/>
			<stop offset="0.22973" stop-color="#F8F8F8" stop-opacity="1"/>
			<stop offset="0.963964" stop-color="#1A1A1A" stop-opacity="1"/>
		</linearGradient>
		<path fill="url(#SVGID_Fill1_)" stroke-width="0.2" stroke-linejoin="round" d="M 12.5479,36.7841C 12.4575,36.2389 12.4575,36.2946 12.4436,42.8085C 12.4297,49.3224 12.4021,62.2946 12.3882,68.7809C 12.3743,75.2668 12.3743,75.2668 13.8081,76.385C 15.2422,77.5029 18.1104,79.739 21.9575,82.3466C 25.8047,84.9543 30.6313,87.9335 36.6001,90.4231C 42.5688,92.9126 49.6797,94.9126 57.1243,96.3016C 64.5688,97.6904 72.3464,98.4681 81.5686,98.9681C 90.791,99.4681 101.458,99.6904 113.013,99.1904C 124.569,98.6904 137.013,97.4681 147.847,95.6903C 158.68,93.9126 167.902,91.5793 175.069,88.8016C 182.235,86.0238 187.347,82.8015 190.291,80.3015C 193.235,77.8015 194.013,76.0238 194.485,74.8954C 194.958,73.7668 195.124,73.2876 195.176,66.9647C 195.229,60.6417 195.166,48.4752 195.135,42.4542C 195.104,36.4335 195.104,36.5585 194.968,37.2877C 194.833,38.0167 194.562,39.3502 194.218,40.4752C 193.874,41.6002 193.458,42.5167 192.572,43.8292C 191.687,45.1417 190.333,46.8502 188.854,48.3292C 187.374,49.8085 185.77,51.0585 184.176,52.1315C 182.583,53.2042 180.999,54.1002 178.76,55.194C 176.52,56.2877 173.624,57.5792 170.989,58.621C 168.354,59.6627 165.979,60.4542 163.572,61.173C 161.166,61.8917 158.729,62.5377 155.447,63.2877C 152.166,64.0377 148.041,64.8917 144.322,65.5516C 140.604,66.2113 137.291,66.6764 132.829,67.1522C 128.367,67.6281 122.756,68.1139 116.833,68.3986C 110.909,68.6835 104.673,68.7667 100.742,68.7877C 96.8118,68.8085 95.1868,68.7667 93.0098,68.6661C 90.8325,68.5656 88.1035,68.4056 84.1138,68.0758C 80.1243,67.746 74.8743,67.246 69.291,66.4542C 63.7075,65.6627 57.791,64.5792 52.4368,63.3085C 47.0825,62.0377 42.291,60.5792 38.4785,59.2667C 34.666,57.9542 31.8325,56.7877 28.916,55.2042C 25.9993,53.621 22.9993,51.621 20.645,49.621C 18.291,47.621 16.5825,45.621 15.416,43.9542C 14.2493,42.2877 13.6243,40.9542 13.2217,39.7147C 12.8188,38.4752 12.6382,37.3292 12.5479,36.7841 Z "/>
		<linearGradient id="SVGID_Fill2_" gradientUnits="objectBoundingBox" x1="-0.0164749" y1="0.500399" x2="1.01693" y2="0.500399">
			<stop offset="0" stop-color="#6F6F6F" stop-opacity="1"/>
			<stop offset="0.180183" stop-color="#DFDFDF" stop-opacity="1"/>
			<stop offset="0.22973" stop-color="#F8F8F8" stop-opacity="1"/>
			<stop offset="0.963964" stop-color="#1A1A1A" stop-opacity="1"/>
		</linearGradient>
		<path fill="url(#SVGID_Fill2_)" stroke-width="0.2" stroke-linejoin="round" d="M 11.9634,87.8047C 11.873,87.2596 11.873,87.3153 11.8591,93.8291C 11.8452,100.343 11.8176,113.315 11.8037,119.802C 11.7898,126.287 11.7898,126.287 13.2236,127.406C 14.6577,128.524 17.5259,130.76 21.373,133.367C 25.2202,135.975 30.0469,138.954 36.0156,141.444C 41.9844,143.933 49.0952,145.933 56.5398,147.322C 63.9844,148.711 71.762,149.489 80.9841,149.989C 90.2065,150.489 100.873,150.711 112.429,150.211C 123.984,149.711 136.429,148.489 147.262,146.711C 158.095,144.933 167.317,142.6 174.484,139.822C 181.651,137.044 186.762,133.822 189.706,131.322C 192.651,128.822 193.429,127.044 193.901,125.916C 194.373,124.787 194.54,124.308 194.592,117.985C 194.644,111.662 194.581,99.4958 194.55,93.475C 194.519,87.4541 194.519,87.5791 194.383,88.3083C 194.248,89.0375 193.977,90.3708 193.633,91.4958C 193.29,92.6208 192.873,93.5375 191.988,94.85C 191.102,96.1625 189.748,97.8708 188.269,99.35C 186.79,100.829 185.186,102.079 183.592,103.152C 181.998,104.225 180.415,105.121 178.175,106.215C 175.936,107.308 173.04,108.6 170.404,109.642C 167.769,110.683 165.394,111.475 162.988,112.194C 160.581,112.912 158.144,113.558 154.863,114.308C 151.581,115.058 147.457,115.912 143.738,116.572C 140.019,117.232 136.707,117.697 132.245,118.173C 127.783,118.649 122.172,119.135 116.248,119.419C 110.324,119.704 104.088,119.787 100.158,119.808C 96.2273,119.829 94.6023,119.787 92.4253,119.687C 90.248,119.586 87.519,119.426 83.5293,119.096C 79.5398,118.767 74.2898,118.267 68.7065,117.475C 63.123,116.683 57.2065,115.6 51.8523,114.329C 46.498,113.058 41.7065,111.6 37.894,110.287C 34.0815,108.975 31.248,107.808 28.3315,106.225C 25.4148,104.642 22.4148,102.642 20.0605,100.642C 17.7065,98.6416 15.998,96.6416 14.8315,94.975C 13.6648,93.3083 13.0398,91.975 12.6372,90.7354C 12.2344,89.4958 12.0537,88.35 11.9634,87.8047 Z "/>
		<linearGradient id="SVGID_Fill3_" gradientUnits="objectBoundingBox" x1="-0.0164741" y1="0.500399" x2="1.01693" y2="0.500399">
			<stop offset="0" stop-color="#6F6F6F" stop-opacity="1"/>
			<stop offset="0.180183" stop-color="#DFDFDF" stop-opacity="1"/>
			<stop offset="0.22973" stop-color="#F8F8F8" stop-opacity="1"/>
			<stop offset="0.963964" stop-color="#1A1A1A" stop-opacity="1"/>
		</linearGradient>
		<path fill="url(#SVGID_Fill3_)" stroke-width="0.2" stroke-linejoin="round" d="M 12.6909,140.805C 12.6011,140.26 12.6011,140.315 12.5869,146.829C 12.5732,153.343 12.5457,166.315 12.5317,172.802C 12.5178,179.287 12.5178,179.287 13.9487,180.406C 15.3796,181.524 18.2417,183.76 22.0806,186.367C 25.9194,188.975 30.7358,191.954 36.6917,194.444C 42.6475,196.933 49.7434,198.933 57.1719,200.322C 64.6003,201.711 72.3613,202.489 81.564,202.989C 90.7664,203.489 101.41,203.711 112.941,203.211C 124.472,202.711 136.889,201.489 147.7,199.711C 158.51,197.933 167.712,195.6 174.864,192.822C 182.015,190.044 187.115,186.822 190.053,184.322C 192.991,181.822 193.768,180.044 194.239,178.916C 194.71,177.787 194.876,177.308 194.928,170.985C 194.98,164.662 194.917,152.496 194.886,146.475C 194.855,140.454 194.855,140.579 194.72,141.308C 194.585,142.037 194.315,143.371 193.972,144.496C 193.629,145.621 193.213,146.537 192.329,147.85C 191.446,149.162 190.095,150.871 188.619,152.35C 187.143,153.829 185.542,155.079 183.952,156.152C 182.361,157.225 180.781,158.121 178.546,159.215C 176.312,160.308 173.422,161.6 170.792,162.642C 168.163,163.683 165.792,164.475 163.392,165.194C 160.99,165.912 158.558,166.558 155.284,167.308C 152.01,168.058 147.894,168.912 144.183,169.572C 140.472,170.232 137.167,170.697 132.714,171.173C 128.262,171.649 122.663,172.135 116.752,172.419C 110.841,172.704 104.619,172.787 100.697,172.808C 96.7744,172.829 95.1528,172.787 92.9805,172.687C 90.8081,172.586 88.0847,172.426 84.1035,172.096C 80.1226,171.767 74.8838,171.267 69.3125,170.475C 63.7412,169.683 57.8372,168.6 52.4944,167.329C 47.1519,166.058 42.3704,164.6 38.5659,163.287C 34.7617,161.975 31.9346,160.808 29.0239,159.225C 26.1138,157.642 23.1201,155.642 20.771,153.642C 18.4219,151.642 16.7173,149.642 15.553,147.975C 14.3887,146.308 13.7651,144.975 13.3633,143.735C 12.9614,142.496 12.7813,141.35 12.6909,140.805 Z "/>
	</g>
</svg>
