<svg enable-background="new 0 0 88.00 76.00" height="76" viewBox="0 0 88 76" width="88" xmlns="http://www.w3.org/2000/svg" xmlns:xlink="http://www.w3.org/1999/xlink"><linearGradient id="a" gradientTransform="matrix(0 1 -1 0 .228961 -.778777)" gradientUnits="objectBoundingBox" x1=".503869" x2="2.05368" y1="-.274908" y2="-.274908"><stop offset=".316279" stop-color="#f0f1ec" stop-opacity=".592157"/><stop offset=".800003" stop-color="#fff" stop-opacity="0"/></linearGradient><linearGradient id="b" gradientTransform="matrix(-.986419426397 .164245898658 -.164245898658 -.986419426397 1.939424360163 .714189860202)" gradientUnits="objectBoundingBox" x1=".940186" x2="2.52462" y1=".437275" y2=".437275"><stop offset=".274419" stop-color="#f0f1ec" stop-opacity=".501961"/><stop offset=".562791" stop-color="#fff" stop-opacity="0"/></linearGradient><radialGradient id="c" cx="42.9268" cy="62.8574" gradientUnits="userSpaceOnUse" r="22.2178"><stop offset="0" stop-opacity=".207843"/><stop offset="1" stop-color="#111" stop-opacity=".0980392"/></radialGradient><g stroke-linejoin="round"><path d="m13.4792 2.43747h61c6.0751 0 11 4.92487 11 11.00003v49.6667c0 6.0751-4.9249 11-11 11h-61c-6.07517 0-11.00004-4.9249-11.00004-11v-49.6667c0-6.07516 4.92487-11.00003 11.00004-11.00003z" fill="#c0533d" stroke="#000"/><path d="m73.499 4.92154h-58.1111c-3.034 0-6.8082.84714-9.5754 4.64534h.06589c.06588 35.59882 18.16601 35.71982 38.54311 35.71982 20.377 0 37.6866-.3444 38.016-35.80359v.02792c-1.4495-2.06667-3.3602-4.18919-8.9385-4.58949z" fill="url(#a)" stroke-width=".2"/><path d="m73.2684 4.87499-16.9875 1.86187c-3.0339 0-19.1508-1.78743-21.918 2.01077l-8.0819 11.91597c4.3585 7.0054 19.6778-2.0853 22.0497-3.8354 23.631-3.0163 33.5468 28.0675 33.8762-7.39164v.02792c-1.4495-2.06666-3.3602-4.18918-8.9385-4.58949z" fill="url(#b)" stroke-width=".2"/><path d="m21.9828 15.1185 37.625 2.8704v4.75l-37.625-2.8704z" fill="#757576" stroke="#757576"/><path d="m24.4438 56.9413 40.2008 8.1939-3.2347 3.6383-40.2009-8.194z" fill="url(#c)" stroke-width=".2"/><path d="m22.4203 28.7458 37.3089 4.0667-.1667 5-37.1422-4.3167z" fill="#deb73a" stroke="#deb73a"/><path d="m22.7328 40.5583 37.125 5.3708v4.75l-37.125-5.3708z" fill="#757576" stroke="#757576"/><path d="m23.1703 52.4958 36.625 6.4329v4.75l-36.625-6.4329z" fill="#757576" stroke="#757576"/><path d="m59.6458 32.8958 3.1667-1.5833v4.9166l-3.0882 1.4879z" fill="#e7c456" stroke="#e7c456"/><path d="m60.0141 45.9624 3.0937-1.625v4.625l-3.0937 1.625z" fill="#92929a" stroke="#92929a"/><path d="m59.7641 58.9624 2.8437-2.1244v4.625l-2.8437 2.1244z" fill="#92929a" stroke="#92929a"/><path d="m25.5583 27.3994 37.1527 3.5958-3.6068 1.8589-36.8334-4.2499z" fill="#c4a02e" stroke="#c4a02e"/><path d="m59.6703 18.0581 3.4375-.5016v4.625l-3.4375.5016z" fill="#92929a" stroke="#92929a"/><g fill="#5e5e60" stroke="#5e5e60"><path d="m25.7768 14.4979 37.0459 2.9246-3.6459.492-37.0459-2.9247z"/><path d="m25.9532 38.886 36.7193 5.2907-3.0471 1.5181-36.7193-5.2908z"/><path d="m26.1668 50.3487 36.1982 6.3308-2.7937 2.2273-36.1982-6.3307z"/></g></g></svg>