<?xml version="1.0" encoding="utf-8"?>
<!DOCTYPE svg PUBLIC "-//W3C//DTD SVG 1.1//EN" "http://www.w3.org/Graphics/SVG/1.1/DTD/svg11.dtd">
<svg xmlns="http://www.w3.org/2000/svg" xmlns:xlink="http://www.w3.org/1999/xlink" version="1.1" baseProfile="full" width="90" height="77.7273" viewBox="0 0 90.00 77.73" enable-background="new 0 0 90.00 77.73" xml:space="preserve">
	<path fill="#932626" fill-opacity="1" stroke-linejoin="round" stroke="#000000" stroke-opacity="1" d="M 15.4375,-1.26138L 70.5625,-1.26138C 76.6376,-1.26138 81.5625,3.66348 81.5625,9.73862L 81.5625,64.9886C 81.5625,71.0638 76.6376,75.9886 70.5625,75.9886L 15.4375,75.9886C 9.36237,75.9886 4.4375,71.0638 4.4375,64.9886L 4.4375,9.73862C 4.4375,3.66348 9.36237,-1.26138 15.4375,-1.26138 Z "/>
	<linearGradient id="SVGID_Fill1_" gradientUnits="objectBoundingBox" x1="0.5" y1="-2.34737" x2="6.19475" y2="-2.34737" gradientTransform="rotate(90.000000 0.500000 -2.347375)">
		<stop offset="0.427907" stop-color="#EEEAEA" stop-opacity="1"/>
		<stop offset="0.576744" stop-color="#FFFFFF" stop-opacity="0"/>
	</linearGradient>
	<path fill="url(#SVGID_Fill1_)" stroke-width="0.2" stroke-linejoin="round" d="M 69.8421,-0.907204L 15.9802,-0.907204C 10.4912,-0.907204 5.96318,3.30402 5.3125,8.74183C 6.59822,11.2538 9.17,12.9678 12.1329,12.9678L 74.0558,12.9678C 76.7944,12.9678 79.1989,11.5035 80.5625,9.29825C 80.1647,3.594 75.517,-0.907204 69.8421,-0.907204 Z "/>
	<path fill="#757576" fill-opacity="1" stroke-linejoin="round" stroke="#757576" stroke-opacity="1" d="M 20.1699,9.94111L 63.9165,13.1899L 63.9165,18.5662L 20.1699,15.3174L 20.1699,9.94111 Z "/>
	<radialGradient id="SVGID_Fill2_" cx="44.5215" cy="63.9739" r="25.8327" gradientUnits="userSpaceOnUse">
		<stop offset="0" stop-color="#000000" stop-opacity="0.25098"/>
		<stop offset="1" stop-color="#111111" stop-opacity="0.117647"/>
	</radialGradient>
	<path fill="url(#SVGID_Fill2_)" stroke-width="0.2" stroke-linejoin="round" d="M 23.0312,57.2778L 69.7728,66.5521L 66.0118,70.67L 19.2702,61.3957L 23.0312,57.2778 Z "/>
	<path fill="#DEB73A" fill-opacity="1" stroke-linejoin="round" stroke="#DEB73A" stroke-opacity="1" d="M 20.6786,25.3651L 64.0576,29.9679L 63.8638,35.6271L 20.6786,30.7413L 20.6786,25.3651 Z "/>
	<path fill="#757576" fill-opacity="1" stroke-linejoin="round" stroke="#757576" stroke-opacity="1" d="M 21.0419,38.7349L 64.2072,44.8138L 64.2072,50.19L 21.0419,44.1112L 21.0419,38.7349 Z "/>
	<path fill="#757576" fill-opacity="1" stroke-linejoin="round" stroke="#757576" stroke-opacity="1" d="M 21.5506,52.2463L 64.1345,59.5273L 64.1345,64.9035L 21.5506,57.6225L 21.5506,52.2463 Z "/>
	<path fill="#E7C456" fill-opacity="1" stroke-linejoin="round" stroke="#E7C456" stroke-opacity="1" d="M 63.9607,30.0622L 67.6426,28.2701L 67.6426,33.835L 64.0519,35.519L 63.9607,30.0622 Z "/>
	<path fill="#92929A" fill-opacity="1" stroke-linejoin="round" stroke="#92929A" stroke-opacity="1" d="M 64.3889,44.8515L 67.986,43.0122L 67.986,48.247L 64.3889,50.0863L 64.3889,44.8515 Z "/>
	<path fill="#92929A" fill-opacity="1" stroke-linejoin="round" stroke="#92929A" stroke-opacity="1" d="M 64.0982,59.5654L 67.4046,57.1609L 67.4046,62.3957L 64.0982,64.8002L 64.0982,59.5654 Z "/>
	<path fill="#C4A02E" fill-opacity="1" stroke-linejoin="round" stroke="#C4A02E" stroke-opacity="1" d="M 24.327,23.8411L 67.5245,27.911L 63.3308,30.015L 20.5047,25.2047L 24.327,23.8411 Z "/>
	<path fill="#92929A" fill-opacity="1" stroke-linejoin="round" stroke="#92929A" stroke-opacity="1" d="M 63.9892,13.2682L 67.986,12.7005L 67.986,17.9352L 63.9892,18.503L 63.9892,13.2682 Z "/>
	<path fill="#5E5E60" fill-opacity="1" stroke-linejoin="round" stroke="#5E5E60" stroke-opacity="1" d="M 24.581,9.23863L 67.6544,12.5489L 63.4153,13.1057L 20.3419,9.79543L 24.581,9.23863 Z "/>
	<path fill="#5E5E60" fill-opacity="1" stroke-linejoin="round" stroke="#5E5E60" stroke-opacity="1" d="M 24.7862,36.8421L 67.4797,42.8304L 63.9368,44.5486L 21.2433,38.5603L 24.7862,36.8421 Z "/>
	<path fill="#5E5E60" fill-opacity="1" stroke-linejoin="round" stroke="#5E5E60" stroke-opacity="1" d="M 25.0345,49.8161L 67.1221,56.9815L 63.8739,59.5025L 21.7863,52.3371L 25.0345,49.8161 Z "/>
</svg>
