<svg enable-background="new 0 0 88.00 76.00" height="76" viewBox="0 0 88 76" width="88" xmlns="http://www.w3.org/2000/svg" xmlns:xlink="http://www.w3.org/1999/xlink"><linearGradient id="a" gradientTransform="matrix(0 1 -1 0 -1.847375 -2.847375)" gradientUnits="objectBoundingBox" x1=".5" x2="6.19475" y1="-2.34737" y2="-2.34737"><stop offset=".427907" stop-color="#eeeaea"/><stop offset=".576744" stop-color="#fff" stop-opacity="0"/></linearGradient><radialGradient id="b" cx="44.4603" cy="64.0774" gradientUnits="userSpaceOnUse" r="25.8326"><stop offset="0" stop-opacity=".25098"/><stop offset="1" stop-color="#111" stop-opacity=".117647"/></radialGradient><g stroke-linejoin="round"><path d="m15.3763-1.15789h55.125c6.0751 0 11 4.92486 11 11.00001v55.24998c0 6.0751-4.9249 11-11 11h-55.125c-6.07513 0-11-4.9249-11-11v-55.24998c0-6.07515 4.92487-11.00001 11-11.00001z" fill="#c35e49" stroke="#000"/><path d="m69.7809-.803713h-53.8619c-5.489 0-10.01701 4.211223-10.66769 9.649033 1.28571 2.51198 3.85749 4.22598 6.82039 4.22598h61.9229c2.7386 0 5.1431-1.4643 6.5067-3.66956-.3978-5.70425-5.0455-10.205453-10.7204-10.205453z" fill="url(#a)" stroke-width=".2"/><path d="m20.1087 10.0446 43.7466 3.2488v5.3762l-43.7466-3.2488z" fill="#757576" stroke="#757576"/><path d="m22.97 57.3813 46.7416 9.2743-3.761 4.1179-46.7416-9.2743z" fill="url(#b)" stroke-width=".2"/><path d="m20.6174 25.4685 43.379 4.6029-.1938 5.6592-43.1852-4.8858z" fill="#deb73a" stroke="#deb73a"/><path d="m20.9807 38.8384 43.1653 6.0789v5.3762l-43.1653-6.0788z" fill="#757576" stroke="#757576"/><path d="m21.4894 52.3498 42.5839 7.2809v5.3763l-42.5839-7.281z" fill="#757576" stroke="#757576"/><path d="m63.8995 30.1657 3.6819-1.7921v5.5649l-3.5907 1.684z" fill="#e7c456" stroke="#e7c456"/><path d="m64.3277 44.955 3.5971-1.8393v5.2348l-3.5971 1.8392z" fill="#92929a" stroke="#92929a"/><path d="m64.037 59.6689 3.3064-2.4045v5.2348l-3.3064 2.4045z" fill="#92929a" stroke="#92929a"/><path d="m24.2658 23.9446 43.1975 4.0699-4.1937 2.104-42.8261-4.8103z" fill="#c4a02e" stroke="#c4a02e"/><path d="m63.928 13.3717 3.9968-.5677v5.2347l-3.9968.5678z" fill="#92929a" stroke="#92929a"/><g fill="#5e5e60" stroke="#5e5e60"><path d="m24.5198 9.34212 43.0734 3.31028-4.2391.5568-43.0734-3.31028z"/><path d="m24.725 36.9456 42.6935 5.9882-3.5429 1.7182-42.6935-5.9882z"/><path d="m24.9733 49.9196 42.0876 7.1654-3.2482 2.521-42.0876-7.1654z"/></g></g></svg>