<svg enable-background="new 0 0 88.00 76.00" height="76" viewBox="0 0 88 76" width="88" xmlns="http://www.w3.org/2000/svg" xmlns:xlink="http://www.w3.org/1999/xlink"><linearGradient id="a" gradientTransform="matrix(0 1 -1 0 .228961 -.778777)" gradientUnits="objectBoundingBox" x1=".503869" x2="2.05368" y1="-.274908" y2="-.274908"><stop offset=".316279" stop-color="#f0f1ec" stop-opacity=".592157"/><stop offset=".800003" stop-color="#fff" stop-opacity="0"/></linearGradient><linearGradient id="b" gradientTransform="matrix(-.986419426397 .164245898658 -.164245898658 -.986419426397 1.939424360163 .714189860202)" gradientUnits="objectBoundingBox" x1=".940186" x2="2.52462" y1=".437275" y2=".437275"><stop offset=".274419" stop-color="#f0f1ec" stop-opacity=".501961"/><stop offset=".562791" stop-color="#fff" stop-opacity="0"/></linearGradient><radialGradient id="c" cx="44.4603" cy="64.0774" gradientUnits="userSpaceOnUse" r="25.8326"><stop offset="0" stop-opacity=".25098"/><stop offset="1" stop-color="#111" stop-opacity=".117647"/></radialGradient><g stroke-linejoin="round"><path d="m13.4792 2.43747h61c6.0751 0 11 4.92487 11 11.00003v49.6667c0 6.0751-4.9249 11-11 11h-61c-6.07517 0-11.00004-4.9249-11.00004-11v-49.6667c0-6.07516 4.92487-11.00003 11.00004-11.00003z" fill="#b2ae5a" stroke="#000"/><path d="m73.499 4.92154h-58.1111c-3.034 0-6.8082.84714-9.5754 4.64534h.06589c.06588 35.59882 18.16601 35.71982 38.54311 35.71982 20.377 0 37.6866-.3444 38.016-35.80359v.02792c-1.4495-2.06667-3.3602-4.18919-8.9385-4.58949z" fill="url(#a)" stroke-width=".2"/><path d="m73.2684 4.87499-16.9875 1.86187c-3.0339 0-19.1508-1.78743-21.918 2.01077l-8.0819 11.91597c4.3585 7.0054 19.6778-2.0853 22.0497-3.8354 23.631-3.0163 33.5468 28.0675 33.8762-7.39164v.02792c-1.4495-2.06666-3.3602-4.18918-8.9385-4.58949z" fill="url(#b)" stroke-width=".2"/><path d="m13.7291 5.27099h60.7499c4.4183 0 8 3.58172 8 8.00001v49.9998c0 4.4183-3.5817 8-8 8h-60.7499c-4.41824 0-7.99996-3.5817-7.99996-8v-49.9998c0-4.41829 3.58172-8.00001 7.99996-8.00001z" fill="none" stroke="#ffd23f" stroke-width="6"/><path d="m20.1087 10.0446 43.7466 3.2488v5.3762l-43.7466-3.2488z" fill="#757576" stroke="#757576"/><path d="m22.97 57.3813 46.7416 9.2743-3.761 4.1179-46.7416-9.2743z" fill="url(#c)" stroke-width=".2"/><path d="m20.6174 25.4685 43.379 4.6029-.1938 5.6592-43.1852-4.8858z" fill="#deb73a" stroke="#deb73a"/><path d="m20.9807 38.8384 43.1653 6.0789v5.3762l-43.1653-6.0788z" fill="#757576" stroke="#757576"/><path d="m21.4894 52.3498 42.5839 7.2809v5.3763l-42.5839-7.281z" fill="#757576" stroke="#757576"/><path d="m63.8995 30.1657 3.6819-1.7921v5.5649l-3.5907 1.684z" fill="#e7c456" stroke="#e7c456"/><path d="m64.3277 44.955 3.5971-1.8393v5.2348l-3.5971 1.8392z" fill="#92929a" stroke="#92929a"/><path d="m64.037 59.6689 3.3064-2.4045v5.2348l-3.3064 2.4045z" fill="#92929a" stroke="#92929a"/><path d="m24.2658 23.9446 43.1975 4.0699-4.1937 2.104-42.8261-4.8103z" fill="#c4a02e" stroke="#c4a02e"/><path d="m63.928 13.3717 3.9968-.5677v5.2347l-3.9968.5678z" fill="#92929a" stroke="#92929a"/><g fill="#5e5e60" stroke="#5e5e60"><path d="m24.5198 9.34212 43.0734 3.31028-4.2391.5568-43.0734-3.31028z"/><path d="m24.725 36.9456 42.6935 5.9882-3.5429 1.7182-42.6935-5.9882z"/><path d="m24.9733 49.9196 42.0876 7.1654-3.2482 2.521-42.0876-7.1654z"/></g></g></svg>