<svg enable-background="new 0 0 80.00 80.00" height="80" viewBox="0 0 80 80" width="80" xmlns="http://www.w3.org/2000/svg" xmlns:xlink="http://www.w3.org/1999/xlink"><linearGradient id="a" gradientTransform="matrix(0 1 -1 0 -1.847375 -2.847375)" gradientUnits="objectBoundingBox" x1=".5" x2="6.19475" y1="-2.34737" y2="-2.34737"><stop offset=".427907" stop-color="#eeeaea"/><stop offset=".576744" stop-color="#fff" stop-opacity="0"/></linearGradient><path d="m12.3763 1.71711h55.125c6.0751 0 11 4.92487 11 10.99999v55.25c0 6.0752-4.9249 11-11 11h-55.125c-6.07513 0-11-4.9248-11-11v-55.25c0-6.07512 4.92487-10.99999 11-10.99999z" fill="#c35e49" stroke="#000" stroke-linejoin="round"/><path d="m66.7809 2.07129h-53.8619c-5.48902 0-10.01701 4.21122-10.6677 9.64901 1.28572 2.512 3.8575 4.226 6.82042 4.226h61.92288c2.7386 0 5.1431-1.4643 6.5067-3.6696-.3978-5.7042-5.0455-10.20541-10.7204-10.20541z" fill="url(#a)" stroke-linejoin="round" stroke-width=".2"/></svg>