<svg enable-background="new 0 0 257.00 257.00" height="257" viewBox="0 0 257 257" width="257" xmlns="http://www.w3.org/2000/svg" xmlns:xlink="http://www.w3.org/1999/xlink"><linearGradient id="a" gradientTransform="matrix(.24212526096 .970244998959 -.970244998959 .24212526096 .301259654951 -.35683007917)" gradientUnits="objectBoundingBox" x1=".37904" x2="1.37987" y1=".014424" y2=".014424"><stop offset=".0186047" stop-color="#c70707"/><stop offset="1" stop-color="#420101"/></linearGradient><linearGradient id="b" gradientTransform="matrix(.242136234157 .970242260525 -.970242260525 .242136234157 .270587674227 -.370495290642)" gradientUnits="objectBoundingBox" x1=".372454" x2="1.42783" y1="-.0120404" y2="-.0120404"><stop offset=".0186047" stop-color="#f17b7b"/><stop offset="1" stop-color="#ee0606"/></linearGradient><linearGradient id="c" gradientTransform="matrix(0 1 -1 0 .772985 -.233671)" gradientUnits="objectBoundingBox" x1=".503328" x2="1.02034" y1=".269657" y2=".269657"><stop offset=".0186047" stop-color="#f8f8f8" stop-opacity=".643137"/><stop offset="1" stop-color="#eae8e8" stop-opacity=".25098"/></linearGradient><path d="m45.9597 78.4663 32.4871-32.4878 50.2952 50.2944 50.018-50.019 32.488 32.4878-50.019 50.0193 49.589 49.589-32.487 32.487-49.589-49.589-49.865 49.865-32.4878-32.487 49.8647-49.866z" fill="url(#b)" stroke="url(#a)" stroke-linejoin="round" stroke-width="9"/><path d="m78.4373 42.5459-36.5833 35.75 16.75 17c18.8486 10.6961 48.118 17.2501 75 17.2501 19.806 0 44.899-4.873 60.833-11l21-23.0001-37-36.3333-49.666 49z" fill="url(#c)" stroke-linejoin="round" stroke-width=".2"/></svg>