<svg enable-background="new 0 0 211.59 29.94" height="29.9417" viewBox="0 0 211.59 29.94" width="211.593" xmlns="http://www.w3.org/2000/svg"><path d="m193.628 204.814h-175.6625c-6.6147 0-11.97702-5.362-11.97702-11.976v-139.7318-35.9306c0-6.615 5.36232-11.97734 11.97702-11.97734h175.6625c6.614 0 11.977 5.36234 11.977 11.97734v35.9306 139.7318c0 6.614-5.363 11.976-11.977 11.976z" fill="#fff" stroke="#96b66e" stroke-linejoin="round" stroke-width="4"/><path d="m192.614 207.165-174.9129.041c-6.6538-.083-13.47404-8.317-13.47403-13.973l-.04158-140.7274v-36.649c.08316-5.4796 6.07161-12.21663 12.21651-12.21675l177.959.04174c6.747 0 13.391 6.0716 13.557 14.72171l-.125 34.1023.042 140.3114c0 7.361-8.474 14.348-15.221 14.348z" fill="none" stroke="#000" stroke-linejoin="round" stroke-width="2"/></svg>