<?xml version="1.0" encoding="utf-8"?>
<!DOCTYPE svg PUBLIC "-//W3C//DTD SVG 1.1//EN" "http://www.w3.org/Graphics/SVG/1.1/DTD/svg11.dtd">
<svg xmlns="http://www.w3.org/2000/svg" xmlns:xlink="http://www.w3.org/1999/xlink" version="1.1" baseProfile="full" width="124.249" height="29.1751" viewBox="0 0 124.25 29.18" enable-background="new 0 0 124.25 29.18" xml:space="preserve">
	<path fill="#FFFFFF" fill-opacity="1" stroke-width="4" stroke-linejoin="round" stroke="#96B66E" stroke-opacity="1" d="M 97,102.605L 9.00001,102.605C 5.68631,102.605 3.00001,99.9186 3.00001,96.6049L 3.00001,26.6048L 3.00001,8.60494C 3.00001,5.29116 5.68631,2.60482 9.00001,2.60482L 97,2.60482C 100.314,2.60482 103,5.29116 103,8.60494L 103,26.6048L 103,96.6049C 103,99.9186 100.314,102.605 97,102.605 Z "/>
	<path fill="none" stroke-linejoin="round" stroke="#394629" stroke-opacity="1" d="M 96.4923,103.782L 8.86758,103.803C 5.53426,103.761 2.1176,99.6364 2.1176,96.8031L 2.09677,26.3041L 2.09677,7.9443C 2.13844,5.1993 5.13843,1.8243 8.21675,1.82412L 97.3673,1.84512C 100.747,1.84512 104.076,4.88668 104.159,9.22012L 104.096,26.3041L 104.117,96.5948C 104.117,100.282 99.8722,103.782 96.4923,103.782 Z "/>
	<rect x="101.218" y="25.925" fill="#FFFFFF" fill-opacity="1" fill-rule="evenodd" stroke-width="0.2" stroke-linejoin="round" width="13.4375" height="3.46875"/>
	<rect x="6.48847" y="13.1152" fill="#FFFFFF" fill-opacity="1" fill-rule="evenodd" stroke-width="0.2" stroke-linejoin="round" width="98.511" height="16.25"/>
	<path fill="#FFFFFF" fill-opacity="1" fill-rule="evenodd" stroke-width="4" stroke-linejoin="round" stroke="#96B66E" stroke-opacity="1" d="M 3.00001,14.9588L 3.00001,8.60494C 3.00001,5.29116 5.68631,2.60482 9.00001,2.60482L 97,2.60482C 100.314,2.60482 103,5.29116 103,8.60494L 103,15.0526"/>
	<path fill="none" stroke-linejoin="round" stroke="#394629" stroke-opacity="1" d="M 2.09677,15.0316L 2.09677,7.9443C 2.13844,5.1993 5.13843,1.8243 8.21675,1.82412L 97.3673,1.84512C 100.747,1.84512 104.076,4.88668 104.159,9.22012L 104.138,14.9173"/>
	<path fill="none" fill-rule="evenodd" stroke-width="4" stroke-linejoin="round" stroke="#96B66E" stroke-opacity="1" d="M 125.116,27.4472L 109.018,27.4472C 105.705,27.4472 103.018,24.7609 103.018,21.4471L 103.018,14.9995"/>
	<path fill="none" stroke-linejoin="round" stroke="#394629" stroke-opacity="1" d="M 125.24,26.2506L 110.252,26.2472C 106.428,26.2944 104.053,25.0006 104.115,19.6479L 104.134,14.5502"/>
</svg>
