<?xml version="1.0" encoding="utf-8"?>
<!DOCTYPE svg PUBLIC "-//W3C//DTD SVG 1.1//EN" "http://www.w3.org/Graphics/SVG/1.1/DTD/svg11.dtd">
<svg xmlns="http://www.w3.org/2000/svg" xmlns:xlink="http://www.w3.org/1999/xlink" version="1.1" baseProfile="full" width="106" height="76.5007" viewBox="0 0 106.00 76.50" enable-background="new 0 0 106.00 76.50" xml:space="preserve">
	<path fill="#FFFFFF" fill-opacity="1" stroke-width="4" stroke-linejoin="round" stroke="#96B66E" stroke-opacity="1" d="M 97,87.6054L 9,87.6054C 5.6863,87.6054 3,84.9192 3,81.6056L 3,11.6054L 3,-6.39445C 3,-9.70823 5.6863,-12.3946 9,-12.3946L 97,-12.3946C 100.314,-12.3946 103,-9.70823 103,-6.39445L 103,11.6054L 103,81.6056C 103,84.9192 100.314,87.6054 97,87.6054 Z "/>
	<path fill="none" stroke-linejoin="round" stroke="#394629" stroke-opacity="1" d="M 96.4923,88.7828L 8.86758,88.8037C 5.53425,88.762 2.11759,84.637 2.11759,81.8037L 2.09676,11.3047L 2.09676,-7.05509C 2.13843,-9.80009 5.13842,-13.1751 8.21674,-13.1753L 97.3672,-13.1543C 100.747,-13.1543 104.076,-10.1127 104.159,-5.77927L 104.096,11.3047L 104.117,81.5954C 104.117,85.2828 99.8722,88.7828 96.4923,88.7828 Z "/>
</svg>
