<svg enable-background="new 0 0 248.02 67.99" height="67.992" viewBox="0 0 248.02 67.99" width="248.021" xmlns="http://www.w3.org/2000/svg"><g stroke-linejoin="round"><path d="m193.628 204.816h-175.6625c-6.6147 0-11.97701-5.362-11.97701-11.977v-139.7314-35.9306c0-6.6149 5.36231-11.97728 11.97701-11.97728h175.6625c6.614 0 11.977 5.36238 11.977 11.97728v35.9306 139.7314c0 6.615-5.363 11.977-11.977 11.977z" fill="#fff" stroke="#96b66e" stroke-width="4"/><path d="m192.614 207.166-174.9129.042c-6.6538-.084-13.47403-8.318-13.47402-13.973l-.04157-140.7279v-36.649c.08315-5.4796 6.07159-12.21667 12.21649-12.21679l177.959.04175c6.747 0 13.391 6.07159 13.557 14.72174l-.125 34.1023.042 140.3119c0 7.36-8.474 14.347-15.221 14.347z" fill="none" stroke="#000" stroke-width="2"/><g fill="#fff"><path d="m202.047 52.7407h47.1933v16.3347h-47.1933z" fill-rule="evenodd" stroke-width=".2"/><path d="m9.36725 26.1804h198.684v43.1453h-198.684z" fill-rule="evenodd" stroke-width=".2"/><path d="m5.90667 68.1585.08182-39.41v-11.5715c0-6.6149 5.36231-11.97728 11.97701-11.97728h175.6625c6.614 0 11.977 5.36238 11.977 11.97728v12.8704" fill-rule="evenodd" stroke="#96b66e" stroke-width="4"/></g><path d="m4.17746 68.1797.00805-38.582v-13.7396c.08315-5.4796 6.07159-12.21667 12.21649-12.21679l177.959.04175c6.747 0 12.63 5.64093 12.796 14.29134l-.021 11.802" fill="none" stroke="#000" stroke-width="2"/><path d="m249.751 54.7891h-32.133c-6.615 0-11.977-5.3623-11.977-11.9773v-12.8703" fill="none" stroke="#96b66e" stroke-width="4"/><path d="m249.72 53.5263-30.938-.0002c-7.937-.1874-11.986-4.1941-11.625-14.1248l-.062-10.125" fill="none" stroke="#000" stroke-width="2"/></g></svg>