<svg enable-background="new 0 0 211.59 26.16" height="26.1593" viewBox="0 0 211.59 26.16" width="211.593" xmlns="http://www.w3.org/2000/svg"><path d="m193.628 22.1667h-175.6625c-6.6147 0-11.977-5.362-11.977-11.9766v-139.7311-35.931c0-6.615 5.3623-11.977 11.977-11.977h175.6625c6.614 0 11.977 5.362 11.977 11.977v35.931 139.7311c0 6.6146-5.363 11.9766-11.977 11.9766z" fill="#fff" stroke="#96b66e" stroke-linejoin="round" stroke-width="4"/><path d="m192.614 24.5169-174.9129.0417c-6.6538-.0832-13.47402-8.3173-13.47401-13.9731l-.04157-140.7275v-36.649c.08315-5.48 6.07158-12.217 12.21648-12.217l177.959.042c6.747 0 13.391 6.072 13.557 14.722l-.125 34.102.042 140.3116c0 7.3608-8.474 14.3473-15.221 14.3473z" fill="none" stroke="#000" stroke-linejoin="round" stroke-width="2"/></svg>