<svg enable-background="new 0 0 211.59 152.71" height="152.708" viewBox="0 0 211.59 152.71" width="211.593" xmlns="http://www.w3.org/2000/svg"><path d="m193.628 174.874h-175.6625c-6.6147 0-11.97702-5.362-11.97702-11.976v-139.7316-35.9306c0-6.615 5.36232-11.9773 11.97702-11.9773h175.6625c6.614 0 11.977 5.3623 11.977 11.9773v35.9306 139.7316c0 6.614-5.363 11.976-11.977 11.976z" fill="#fff" stroke="#96b66e" stroke-linejoin="round" stroke-width="4"/><path d="m192.614 177.225-174.9129.041c-6.6538-.083-13.47404-8.317-13.47403-13.973l-.04158-140.7272v-36.6489c.08316-5.4797 6.07161-12.2167 12.21651-12.2168l177.959.0417c6.747 0 13.391 6.0716 13.557 14.7217l-.125 34.1023.042 140.3112c0 7.361-8.474 14.348-15.221 14.348z" fill="none" stroke="#000" stroke-linejoin="round" stroke-width="2"/></svg>