<?xml version="1.0" encoding="utf-8"?>
<!DOCTYPE svg PUBLIC "-//W3C//DTD SVG 1.1//EN" "http://www.w3.org/Graphics/SVG/1.1/DTD/svg11.dtd">
<svg xmlns="http://www.w3.org/2000/svg" xmlns:xlink="http://www.w3.org/1999/xlink" version="1.1" baseProfile="full" width="513" height="513" viewBox="0 0 513.00 513.00" enable-background="new 0 0 513.00 513.00" xml:space="preserve">
	<linearGradient id="SVGID_Fill1_" gradientUnits="objectBoundingBox" x1="0.81466" y1="0.888577" x2="1.81466" y2="0.888577" gradientTransform="rotate(231.000076 0.814660 0.888577)">
		<stop offset="0" stop-color="#425E7E" stop-opacity="1"/>
		<stop offset="0.893501" stop-color="#70ACF1" stop-opacity="1"/>
		<stop offset="1" stop-color="#90C5F1" stop-opacity="1"/>
	</linearGradient>
	<path fill="url(#SVGID_Fill1_)" stroke-width="0.2" stroke-linejoin="round" d="M 167.237,42.4006C 242.348,42.4006 303.236,103.289 303.236,178.4C 303.236,253.509 242.347,314.398 167.237,314.398C 92.1261,314.398 31.2367,253.509 31.2367,178.4C 31.2367,103.289 92.125,42.4006 167.237,42.4006 Z "/>
	<g>
		<radialGradient id="SVGID_Fill2_" cx="136.904" cy="121.068" r="93.3332" gradientUnits="userSpaceOnUse">
			<stop offset="0.125" stop-color="#90F19D" stop-opacity="1"/>
			<stop offset="0.323276" stop-color="#8CF186" stop-opacity="1"/>
			<stop offset="0.323276" stop-color="#89F170" stop-opacity="1"/>
			<stop offset="0.50431" stop-color="#7EDF69" stop-opacity="1"/>
			<stop offset="1" stop-color="#447E42" stop-opacity="1"/>
		</radialGradient>
		<path fill="url(#SVGID_Fill2_)" stroke-width="2" stroke-linejoin="round" stroke="#006432" stroke-opacity="1" d="M 79.571,84.7346L 79.571,88.0679L 77.571,89.4011L 60.2377,88.7346L 45.571,110.068L 45.571,114.735L 51.571,120.068L 50.9044,126.068L 53.571,130.735L 58.9044,135.401L 60.2377,158.068L 65.571,164.068L 83.571,184.735L 98.2377,195.401L 114.238,200.735L 120.904,204.068L 122.238,192.735L 113.571,186.068L 105.571,183.401L 103.571,175.401L 116.238,175.401L 120.238,182.735L 126.238,188.068L 134.904,191.401L 152.904,186.735L 155.571,179.401L 138.904,179.401L 132.238,170.068L 131.571,163.401L 154.904,136.068L 163.571,128.735L 152.238,108.735L 158.904,100.068L 152.904,88.0679L 144.238,81.4011L 141.571,74.0679L 145.571,66.7346L 151.571,60.0679L 154.238,73.4011L 164.904,76.7346L 169.571,83.4011L 172.904,100.735L 178.238,108.735L 182.238,113.401L 191.571,106.735L 194.238,102.068L 217.571,103.401L 219.571,108.735L 228.238,100.735L 224.904,94.7346L 216.904,92.7346L 211.571,88.0679L 210.904,80.0679L 216.238,76.7346L 217.571,52.7346L 207.571,44.7346L 198.904,42.0679L 183.571,42.0679L 175.571,46.0679L 170.238,51.4011L 163.571,50.7346L 158.904,43.4011L 156.238,38.7346L 146.904,38.0679L 141.571,40.7346L 136.238,44.7346L 123.571,46.7346L 122.238,50.0679L 124.238,56.0679L 118.238,57.4011L 115.571,53.4011L 104.238,52.0679L 100.904,58.0679L 100.238,66.0679L 100.238,69.4011L 96.9044,71.4011L 90.9044,71.4011L 88.9044,64.0679L 84.9044,63.4011L 80.9044,68.0679L 74.2377,74.0679L 76.2377,84.0679L 79.571,84.7346 Z M 113.081,70.3901L 108.415,66.3901L 114.415,67.7234L 120.415,67.7234L 128.415,68.3901L 129.081,77.0569L 131.748,79.0569L 136.415,86.3901L 140.415,89.7234L 139.748,97.7234L 133.748,99.0569L 129.081,96.3901L 126.415,90.3901L 121.748,83.0569L 114.415,81.7234L 114.415,78.3901L 113.081,70.3901 Z M 107.748,117.723L 111.081,110.39L 119.748,107.723L 126.415,114.39L 125.081,123.057L 120.415,129.723L 112.415,127.057L 107.081,121.057L 107.748,117.723 Z "/>
		<radialGradient id="SVGID_Fill3_" cx="150.081" cy="191.723" r="55.3333" gradientUnits="userSpaceOnUse">
			<stop offset="0" stop-color="#7EDF69" stop-opacity="1"/>
			<stop offset="1" stop-color="#447E42" stop-opacity="1"/>
		</radialGradient>
		<path fill="url(#SVGID_Fill3_)" stroke-width="2" stroke-linejoin="round" stroke="#006432" stroke-opacity="1" d="M 145.081,200.39L 133.748,200.39L 125.748,210.39L 122.415,221.723L 121.748,229.057L 136.415,239.057L 143.748,244.39L 150.415,257.723L 135.748,259.057L 134.415,269.723L 133.748,283.057L 137.081,298.39L 139.748,301.723L 162.415,307.057L 198.415,294.39L 145.081,200.39 Z "/>
		<radialGradient id="SVGID_Fill4_" cx="212.581" cy="121.057" r="32.8333" gradientUnits="userSpaceOnUse">
			<stop offset="0" stop-color="#7EDF69" stop-opacity="1"/>
			<stop offset="1" stop-color="#447E42" stop-opacity="1"/>
		</radialGradient>
		<path fill="url(#SVGID_Fill4_)" stroke-width="2" stroke-linejoin="round" stroke="#006432" stroke-opacity="1" d="M 225.748,126.223L 226.415,118.223L 233.748,113.223L 237.081,115.223L 253.081,133.223L 249.415,117.89L 247.415,113.557L 250.081,108.223L 256.415,102.89L 263.081,94.5569L 262.081,88.2234L 266.415,84.2234L 272.748,86.5569L 287.415,106.89L 274.081,125.89L 253.748,137.89L 225.748,126.223 Z "/>
	</g>
	<linearGradient id="SVGID_Fill5_" gradientUnits="objectBoundingBox" x1="0.335258" y1="-0.157286" x2="1.69049" y2="-0.157286" gradientTransform="rotate(49.056839 0.335258 -0.157286)">
		<stop offset="0.0186047" stop-color="#343A4D" stop-opacity="1"/>
		<stop offset="0.488372" stop-color="#6EADD2" stop-opacity="1"/>
		<stop offset="0.772093" stop-color="#485270" stop-opacity="1"/>
	</linearGradient>
	<path fill="url(#SVGID_Fill5_)" stroke-width="3" stroke-linecap="round" stroke-linejoin="round" stroke="#21324B" stroke-opacity="1" d="M 266.175,388.404L 287.175,412.404L 303.175,423.404L 332.175,441.404L 354.175,453.404L 377.175,460.404L 394.175,461.404L 408.175,457.404L 421.175,449.404L 426.175,436.404L 424.175,430.404L 413.175,434.404L 389.175,432.404L 368.175,425.404L 346.175,415.404L 326.175,401.404L 312.175,389.404L 305.175,382.404L 301.175,377.404L 299.175,375.404L 266.175,388.404 Z "/>
	<g>
		<linearGradient id="SVGID_Stroke1_" gradientUnits="objectBoundingBox" x1="0.0922554" y1="0.238722" x2="1.05405" y2="0.238722" gradientTransform="rotate(40.169872 0.092255 0.238722)">
			<stop offset="0.00431034" stop-color="#ADB1B2" stop-opacity="1"/>
			<stop offset="0.185345" stop-color="#9EA8AB" stop-opacity="1"/>
			<stop offset="1" stop-color="#D4E2E3" stop-opacity="1"/>
		</linearGradient>
		<linearGradient id="SVGID_Fill6_" gradientUnits="objectBoundingBox" x1="0.0889671" y1="0.23691" x2="1.05822" y2="0.23691" gradientTransform="rotate(40.201595 0.088967 0.236910)">
			<stop offset="0.00431034" stop-color="#B3B8B9" stop-opacity="1"/>
			<stop offset="0.185345" stop-color="#A4AFB2" stop-opacity="1"/>
			<stop offset="1" stop-color="#E2F0F1" stop-opacity="1"/>
		</linearGradient>
		<path fill="url(#SVGID_Fill6_)" stroke-width="2" stroke-linejoin="round" stroke="url(#SVGID_Stroke1_)" d="M 212.248,162.72L 402.248,115.387C 408.248,113.387 428.248,110.109 428.248,128.887L 428.581,313.55C 428.581,332.328 414.953,352.457 396.175,352.457L 215.509,402.29C 196.731,402.29 180.581,402.332 180.581,383.553L 180.581,195.553C 180.581,176.776 190.248,166.72 212.248,162.72 Z "/>
		<linearGradient id="SVGID_Stroke2_" gradientUnits="objectBoundingBox" x1="0.30613" y1="0.854942" x2="1.13963" y2="0.854942" gradientTransform="rotate(-72.851868 0.306130 0.854942)">
			<stop offset="0" stop-color="#7D8181" stop-opacity="1"/>
			<stop offset="0.616379" stop-color="#D1E2E3" stop-opacity="1"/>
			<stop offset="1" stop-color="#7D8181" stop-opacity="1"/>
		</linearGradient>
		<linearGradient id="SVGID_Fill7_" gradientUnits="objectBoundingBox" x1="0.304705" y1="0.857278" x2="1.14378" y2="0.857278" gradientTransform="rotate(-72.864182 0.304705 0.857278)">
			<stop offset="0" stop-color="#898E8F" stop-opacity="1"/>
			<stop offset="0.616379" stop-color="#E4F7F8" stop-opacity="1"/>
			<stop offset="1" stop-color="#898E8F" stop-opacity="1"/>
		</linearGradient>
		<path fill="url(#SVGID_Fill7_)" stroke-width="2" stroke-linejoin="round" stroke="url(#SVGID_Stroke2_)" d="M 177.081,137.718L 367.081,90.3843C 374.498,88.4734 377.873,90.8062 382.04,93.4729L 417.477,114.056L 211.415,163.723C 189.415,167.723 179.748,177.779 179.748,196.557L 180.373,393.556L 150.373,375.556C 144.811,371.389 145.373,368.827 145.415,358.551L 145.415,170.551C 145.415,151.773 155.081,141.718 177.081,137.718 Z "/>
	</g>
	<g>
		<radialGradient id="SVGID_Stroke3_" cx="232.314" cy="280.604" r="18.9717" gradientUnits="userSpaceOnUse" gradientTransform="rotate(37.195538 232.313599 280.603516)">
			<stop offset="0.00431034" stop-color="#C3C7C7" stop-opacity="1"/>
			<stop offset="1" stop-color="#1D1F1F" stop-opacity="1"/>
		</radialGradient>
		<radialGradient id="SVGID_Fill8_" cx="232.314" cy="280.604" r="19.0015" gradientUnits="userSpaceOnUse" gradientTransform="rotate(37.340897 232.313599 280.603516)">
			<stop offset="0.00431034" stop-color="#7F8181" stop-opacity="1"/>
			<stop offset="1" stop-color="#485657" stop-opacity="1"/>
		</radialGradient>
		<path fill="url(#SVGID_Fill8_)" stroke-width="2" stroke-linejoin="round" stroke="url(#SVGID_Stroke3_)" d="M 241.456,267.618C 247.088,271.583 247.56,280.611 242.511,287.783C 237.461,294.955 228.803,297.554 223.171,293.589C 217.539,289.624 217.067,280.596 222.116,273.424C 227.166,266.252 235.824,263.653 241.456,267.618 Z "/>
		<radialGradient id="SVGID_Stroke4_" cx="379.949" cy="239.425" r="18.9717" gradientUnits="userSpaceOnUse" gradientTransform="rotate(37.195507 379.948975 239.424805)">
			<stop offset="0.00431034" stop-color="#C3C7C7" stop-opacity="1"/>
			<stop offset="1" stop-color="#1D1F1F" stop-opacity="1"/>
		</radialGradient>
		<radialGradient id="SVGID_Fill9_" cx="379.949" cy="239.425" r="19.0015" gradientUnits="userSpaceOnUse" gradientTransform="rotate(37.340866 379.948975 239.424805)">
			<stop offset="0.00431034" stop-color="#7F8181" stop-opacity="1"/>
			<stop offset="1" stop-color="#485657" stop-opacity="1"/>
		</radialGradient>
		<path fill="url(#SVGID_Fill9_)" stroke-width="2" stroke-linejoin="round" stroke="url(#SVGID_Stroke4_)" d="M 389.092,226.439C 394.723,230.404 395.195,239.432 390.146,246.604C 385.097,253.776 376.438,256.375 370.806,252.41C 365.175,248.446 364.703,239.417 369.752,232.246C 374.801,225.074 383.46,222.474 389.092,226.439 Z "/>
	</g>
	<g>
		<linearGradient id="SVGID_Stroke5_" gradientUnits="objectBoundingBox" x1="0.476049" y1="-0.0817553" x2="1.5512" y2="-0.0817553" gradientTransform="rotate(73.250458 0.476049 -0.081755)">
			<stop offset="0.0646552" stop-color="#6A6C6C" stop-opacity="1"/>
			<stop offset="0.437209" stop-color="#C6C7C7" stop-opacity="1"/>
			<stop offset="0.790698" stop-color="#CED5D5" stop-opacity="1"/>
			<stop offset="1" stop-color="#5F6565" stop-opacity="1"/>
		</linearGradient>
		<linearGradient id="SVGID_Fill10_" gradientUnits="objectBoundingBox" x1="0.475475" y1="-0.0986586" x2="1.58164" y2="-0.0986586" gradientTransform="rotate(73.171684 0.475475 -0.098659)">
			<stop offset="0.0646552" stop-color="#707373" stop-opacity="1"/>
			<stop offset="0.790698" stop-color="#F3F5F5" stop-opacity="1"/>
			<stop offset="1" stop-color="#6C7373" stop-opacity="1"/>
		</linearGradient>
		<path fill="url(#SVGID_Fill10_)" stroke-width="2" stroke-linecap="round" stroke-linejoin="round" stroke="url(#SVGID_Stroke5_)" d="M 271.404,293.925L 338.404,274.925L 339.404,317.925L 255.904,343.758L 271.404,293.925 Z "/>
		<linearGradient id="SVGID_Stroke6_" gradientUnits="objectBoundingBox" x1="0.73596" y1="0.131387" x2="1.36482" y2="0.131387" gradientTransform="rotate(71.714203 0.735960 0.131387)">
			<stop offset="0.0646552" stop-color="#707373" stop-opacity="1"/>
			<stop offset="0.49569" stop-color="#C3C7C7" stop-opacity="1"/>
			<stop offset="1" stop-color="#6C7373" stop-opacity="1"/>
		</linearGradient>
		<linearGradient id="SVGID_Fill11_" gradientUnits="objectBoundingBox" x1="0.743006" y1="0.118645" x2="1.39343" y2="0.118645" gradientTransform="rotate(71.636223 0.743006 0.118645)">
			<stop offset="0" stop-color="#656565" stop-opacity="1"/>
			<stop offset="0.323276" stop-color="#DCDEDE" stop-opacity="1"/>
			<stop offset="0.400862" stop-color="#EEF1F1" stop-opacity="1"/>
			<stop offset="0.762931" stop-color="#E6E8E8" stop-opacity="1"/>
			<stop offset="1" stop-color="#1D1F1F" stop-opacity="1"/>
		</linearGradient>
		<path fill="url(#SVGID_Fill11_)" stroke-width="2" stroke-linejoin="round" stroke="url(#SVGID_Stroke6_)" d="M 270.946,251.591L 337.779,233.094L 337.923,272.454L 271.09,290.951L 270.946,251.591 Z "/>
		<linearGradient id="SVGID_Stroke7_" gradientUnits="objectBoundingBox" x1="0.567559" y1="0.0350217" x2="1.58162" y2="0.0350217" gradientTransform="rotate(29.477385 0.567559 0.035022)">
			<stop offset="0.0646552" stop-color="#707373" stop-opacity="1"/>
			<stop offset="0.49569" stop-color="#F3F5F5" stop-opacity="1"/>
			<stop offset="1" stop-color="#6C7373" stop-opacity="1"/>
		</linearGradient>
		<path fill="none" stroke-width="2" stroke-linecap="round" stroke-linejoin="round" stroke="url(#SVGID_Stroke7_)" d="M 337.904,233.091L 337.988,272.716L 271.196,290.966"/>
	</g>
	<g>
		<linearGradient id="SVGID_Stroke8_" gradientUnits="objectBoundingBox" x1="-0.020979" y1="0.679102" x2="1.02797" y2="0.679102">
			<stop offset="0" stop-color="#A1A4A4" stop-opacity="1"/>
			<stop offset="0.539535" stop-color="#B1B2B2" stop-opacity="1"/>
		</linearGradient>
		<path fill="#FFFFFF" fill-opacity="1" stroke-linecap="round" stroke-linejoin="round" stroke="url(#SVGID_Stroke8_)" d="M 314.413,313.568L 366.413,292.068C 370.413,290.318 371.05,291.341 376.571,296.546L 376.571,318.546C 376.571,322.964 376.071,326.796 371.071,329.046L 314.071,351.046C 310.342,349.446 306.092,350.446 306.071,343.046L 306.071,321.046C 306.071,316.628 307.913,316.068 314.413,313.568 Z "/>
		<linearGradient id="SVGID_Fill12_" gradientUnits="objectBoundingBox" x1="0.211205" y1="1.05093" x2="1.45528" y2="1.05093" gradientTransform="rotate(-49.044598 0.211205 1.050931)">
			<stop offset="0.0646552" stop-color="#707373" stop-opacity="1"/>
			<stop offset="0.353488" stop-color="#F3F5F5" stop-opacity="1"/>
			<stop offset="0.790698" stop-color="#E7EAEA" stop-opacity="1"/>
			<stop offset="1" stop-color="#6C7373" stop-opacity="1"/>
		</linearGradient>
		<path fill="url(#SVGID_Fill12_)" stroke-width="0.2" stroke-linecap="round" stroke-linejoin="round" d="M 306.8,317.925L 306.821,317.916L 306.821,317.758L 306.972,317.849L 370.12,290.282L 428.367,326.331L 364.98,352.885L 365.321,353.091L 364.821,384.758L 306.821,349.258L 306.821,317.938L 306.8,317.925 Z "/>
		<linearGradient id="SVGID_Stroke9_" gradientUnits="objectBoundingBox" x1="0.113628" y1="0.268983" x2="1.24453" y2="0.268983" gradientTransform="rotate(37.659451 0.113628 0.268983)">
			<stop offset="0" stop-color="#636565" stop-opacity="1"/>
			<stop offset="0.539535" stop-color="#B3B9B9" stop-opacity="1"/>
		</linearGradient>
		<linearGradient id="SVGID_Fill13_" gradientUnits="objectBoundingBox" x1="0.108147" y1="0.265151" x2="1.25652" y2="0.265151" gradientTransform="rotate(37.593872 0.108147 0.265151)">
			<stop offset="0" stop-color="#707373" stop-opacity="1"/>
			<stop offset="0.539535" stop-color="#F3F5F5" stop-opacity="1"/>
		</linearGradient>
		<path fill="url(#SVGID_Fill13_)" stroke-linecap="round" stroke-linejoin="round" stroke="url(#SVGID_Stroke9_)" d="M 370.071,348.758L 422.071,327.258C 426.071,325.508 432.571,327.84 432.571,332.258L 432.571,354.258C 432.571,358.676 432.071,362.508 427.071,364.758L 370.071,386.758C 366.321,388.008 362.071,383.176 362.071,378.758L 362.071,356.758C 362.071,352.34 363.571,351.258 370.071,348.758 Z "/>
	</g>
	<linearGradient id="SVGID_Fill14_" gradientUnits="objectBoundingBox" x1="0.0949178" y1="0.263209" x2="1.02139" y2="0.263209" gradientTransform="rotate(49.812622 0.094918 0.263209)">
		<stop offset="0" stop-color="#6EADD2" stop-opacity="1"/>
		<stop offset="0.939535" stop-color="#414B69" stop-opacity="1"/>
	</linearGradient>
	<path fill="url(#SVGID_Fill14_)" stroke-width="3" stroke-linecap="round" stroke-linejoin="round" stroke="#21324B" stroke-opacity="1" d="M 394.175,461.404L 421.841,461.071L 432.841,458.404L 442.175,452.404L 449.508,446.404L 457.841,435.071L 460.508,421.737L 460.175,410.737L 456.175,399.404L 441.841,382.071L 417.591,355.237L 412.591,351.237L 382.841,362.487L 382.425,366.071L 388.091,371.237L 398.341,382.237L 409.841,393.737L 416.841,401.987L 424.591,418.737L 424.591,428.487L 423.591,440.071L 414.925,452.404L 394.175,461.404 Z "/>
	<linearGradient id="SVGID_Stroke10_" gradientUnits="objectBoundingBox" x1="0.499996" y1="-0.0226524" x2="1.28316" y2="-0.0226524" gradientTransform="rotate(224.063461 0.499996 -0.022652)">
		<stop offset="0" stop-color="#4A647E" stop-opacity="1"/>
		<stop offset="0.0560345" stop-color="#263854" stop-opacity="1"/>
		<stop offset="0.978448" stop-color="#293C58" stop-opacity="0.996078"/>
		<stop offset="1" stop-color="#628DB1" stop-opacity="1"/>
	</linearGradient>
	<radialGradient id="SVGID_Fill15_" cx="423.938" cy="413.196" r="49.3919" gradientUnits="userSpaceOnUse" gradientTransform="rotate(223.999985 423.938354 413.195557)">
		<stop offset="0" stop-color="#72B2D9" stop-opacity="1"/>
		<stop offset="0.900862" stop-color="#485270" stop-opacity="1"/>
	</radialGradient>
	<path fill="url(#SVGID_Fill15_)" stroke-width="3" stroke-linejoin="round" stroke="url(#SVGID_Stroke10_)" d="M 423.939,416.062C 440.507,416.062 453.939,428.897 453.939,444.729C 453.939,460.561 440.507,473.396 423.939,473.396C 407.37,473.396 393.939,460.561 393.939,444.729C 393.939,428.897 407.37,416.062 423.939,416.062 Z "/>
</svg>
