<svg enable-background="new 0 0 513.00 513.00" height="513" viewBox="0 0 513 513" width="513" xmlns="http://www.w3.org/2000/svg" xmlns:xlink="http://www.w3.org/1999/xlink"><linearGradient id="a" gradientTransform="matrix(-.62931956366 -.777146631463 .777146631463 -.62931956366 .636788482706 2.080886941853)" gradientUnits="objectBoundingBox" x1=".814661" x2="1.81466" y1=".888577" y2=".888577"><stop offset="0" stop-color="#425e7e"/><stop offset=".893501" stop-color="#70acf1"/><stop offset="1" stop-color="#90c5f1"/></linearGradient><radialGradient id="b" cx="136.904" cy="121.068" gradientUnits="userSpaceOnUse" r="93.3335"><stop offset=".125" stop-color="#90f19d"/><stop offset=".323276" stop-color="#8cf186"/><stop offset=".323276" stop-color="#89f170"/><stop offset=".50431" stop-color="#7edf69"/><stop offset="1" stop-color="#447e42"/></radialGradient><linearGradient id="c"><stop offset="0" stop-color="#7edf69"/><stop offset="1" stop-color="#447e42"/></linearGradient><radialGradient id="d" cx="150.082" cy="191.723" gradientUnits="userSpaceOnUse" r="55.3333" xlink:href="#c"/><radialGradient id="e" cx="212.581" cy="121.057" gradientUnits="userSpaceOnUse" r="32.8335" xlink:href="#c"/><linearGradient id="f" gradientTransform="matrix(.655310923151 .755359248304 -.755359248304 .655310923151 -.003247664203 -.307454997009)" gradientUnits="objectBoundingBox" x1=".335258" x2="1.69049" y1="-.157286" y2="-.157286"><stop offset=".0186047" stop-color="#343a4d"/><stop offset=".488372" stop-color="#6eadd2"/><stop offset=".772093" stop-color="#485270"/></linearGradient><linearGradient id="g" gradientTransform="matrix(.764115657152 .645079268381 -.645079268381 .764115657152 .175648039199 -.003107425703)" gradientUnits="objectBoundingBox" x1=".0920731" x2="1.05429" y1=".238621" y2=".238621"><stop offset=".00431034" stop-color="#adb1b2"/><stop offset=".185345" stop-color="#9ea8ab"/><stop offset="1" stop-color="#d4e2e3"/></linearGradient><linearGradient id="h" gradientTransform="matrix(.763778274135 .64547869675 -.64547869675 .763778274135 .173937178033 -.001463423396)" gradientUnits="objectBoundingBox" x1=".0889677" x2="1.05822" y1=".236911" y2=".236911"><stop offset=".00431034" stop-color="#b3b8b9"/><stop offset=".185345" stop-color="#a4afb2"/><stop offset="1" stop-color="#e2f0f1"/></linearGradient><linearGradient id="i" gradientTransform="matrix(.294831572508 -.955549236749 .955549236749 .294831572508 -.601245644183 .895414916371)" gradientUnits="objectBoundingBox" x1=".30605" x2="1.13986" y1=".855071" y2=".855071"><stop offset="0" stop-color="#7d8181"/><stop offset=".616379" stop-color="#d1e2e3"/><stop offset="1" stop-color="#7d8181"/></linearGradient><linearGradient id="j" gradientTransform="matrix(.294637523947 -.955609088217 .955609088217 .294637523947 -.604294924416 .895868939)" gradientUnits="objectBoundingBox" x1=".304704" x2="1.14378" y1=".857277" y2=".857277"><stop offset="0" stop-color="#898e8f"/><stop offset=".616379" stop-color="#e4f7f8"/><stop offset="1" stop-color="#898e8f"/></linearGradient><linearGradient id="k"><stop offset=".00431034" stop-color="#c3c7c7"/><stop offset="1" stop-color="#1d1f1f"/></linearGradient><radialGradient id="l" cx="232.313" cy="280.604" gradientTransform="matrix(.79657748508 .604536442461 -.604536442461 .79657748508 216.892843045824 -83.36089000125)" gradientUnits="userSpaceOnUse" r="18.9717" xlink:href="#k"/><linearGradient id="m"><stop offset=".00431034" stop-color="#7f8181"/><stop offset="1" stop-color="#485657"/></linearGradient><radialGradient id="n" cx="232.313" cy="280.604" gradientTransform="matrix(.795041260741 .606555350912 -.606555350912 .795041260741 217.816241473216 -83.398839692203)" gradientUnits="userSpaceOnUse" r="19.0014" xlink:href="#m"/><radialGradient id="o" cx="379.949" cy="239.425" gradientTransform="matrix(.79657648272 .604537763236 -.604537763236 .79657648272 222.031892959413 -180.988867532929)" gradientUnits="userSpaceOnUse" r="18.9717" xlink:href="#k"/><radialGradient id="p" cx="379.949" cy="239.425" gradientTransform="matrix(.79504008565 .606556891156 -.606556891156 .79504008565 223.099074759704 -181.388181548001)" gradientUnits="userSpaceOnUse" r="19.0015" xlink:href="#m"/><linearGradient id="q" gradientTransform="matrix(.288187727896 .957573931083 -.957573931083 .288187727896 .260571063587 -.514046324624)" gradientUnits="objectBoundingBox" x1=".476049" x2="1.5512" y1="-.0817553" y2="-.0817553"><stop offset=".0646552" stop-color="#6a6c6c"/><stop offset=".437209" stop-color="#c6c7c7"/><stop offset=".790698" stop-color="#ced5d5"/><stop offset="1" stop-color="#5f6565"/></linearGradient><linearGradient id="r" gradientTransform="matrix(.289504107567 .957176771397 -.957176771397 .289504107567 .243388931365 -.525210439631)" gradientUnits="objectBoundingBox" x1=".475475" x2="1.58164" y1="-.0986586" y2="-.0986586"><stop offset=".0646552" stop-color="#707373"/><stop offset=".790698" stop-color="#f3f5f5"/><stop offset="1" stop-color="#6c7373"/></linearGradient><linearGradient id="s" gradientTransform="matrix(.313758353551 .949502867598 -.949502867598 .313758353551 .629800794111 -.608635747744)" gradientUnits="objectBoundingBox" x1=".735963" x2="1.36482" y1=".131387" y2=".131387"><stop offset=".0646552" stop-color="#707373"/><stop offset=".49569" stop-color="#c3c7c7"/><stop offset="1" stop-color="#6c7373"/></linearGradient><linearGradient id="t" gradientTransform="matrix(.315050227369 .949074999268 -.949074999268 .315050227369 .621527533851 -.623906349432)" gradientUnits="objectBoundingBox" x1=".74301" x2="1.39343" y1=".118645" y2=".118645"><stop offset="0" stop-color="#656565"/><stop offset=".323276" stop-color="#dcdede"/><stop offset=".400862" stop-color="#eef1f1"/><stop offset=".762931" stop-color="#e6e8e8"/><stop offset="1" stop-color="#1d1f1f"/></linearGradient><linearGradient id="u" gradientTransform="matrix(.870548942986 .492081840618 -.492081840618 .870548942986 .090704543788 -.274750858297)" gradientUnits="objectBoundingBox" x1=".567557" x2="1.58162" y1=".0350217" y2=".0350217"><stop offset=".0646552" stop-color="#707373"/><stop offset=".49569" stop-color="#f3f5f5"/><stop offset="1" stop-color="#6c7373"/></linearGradient><linearGradient id="v" gradientUnits="objectBoundingBox" x1="-.020979" x2="1.02797" y1=".679102" y2=".679102"><stop offset="0" stop-color="#a1a4a4"/><stop offset=".539535" stop-color="#b1b2b2"/></linearGradient><linearGradient id="w" gradientTransform="matrix(.655471180281 -.755220187642 .755220187642 .655471180281 -.720918786707 .521580786327)" gradientUnits="objectBoundingBox" x1=".211203" x2="1.45528" y1="1.05093" y2="1.05093"><stop offset=".0646552" stop-color="#707373"/><stop offset=".353488" stop-color="#f3f5f5"/><stop offset=".790698" stop-color="#e7eaea"/><stop offset="1" stop-color="#6c7373"/></linearGradient><linearGradient id="x" gradientTransform="matrix(.791656088773 .610966968917 -.610966968917 .791656088773 .188013013457 -.013380762537)" gradientUnits="objectBoundingBox" x1=".113626" x2="1.24453" y1=".268983" y2=".268983"><stop offset="0" stop-color="#636565"/><stop offset=".539535" stop-color="#b3b9b9"/></linearGradient><linearGradient id="y" gradientTransform="matrix(.792354981334 .610060311409 -.610060311409 .792354981334 .184214079819 -.010918298093)" gradientUnits="objectBoundingBox" x1=".108146" x2="1.25652" y1=".265151" y2=".265151"><stop offset="0" stop-color="#707373"/><stop offset=".539535" stop-color="#f3f5f5"/></linearGradient><linearGradient id="z" gradientTransform="matrix(.64528798461 .763939406575 -.763939406575 .64528798461 .234743572918 .020853322144)" gradientUnits="objectBoundingBox" x1=".0949163" x2="1.0214" y1=".263209" y2=".263209"><stop offset="0" stop-color="#6eadd2"/><stop offset=".939535" stop-color="#414b69"/></linearGradient><g stroke-linejoin="round"><path d="m167.237 42.4006c75.111 0 135.999 60.8884 135.999 135.9994 0 75.109-60.889 135.998-135.999 135.998-75.1108 0-136.0004-60.889-136.0004-135.998 0-75.111 60.8884-135.9994 136.0004-135.9994z" fill="url(#a)" stroke-width=".2"/><path d="m79.571 84.7346v3.3333l-2 1.3332-17.3332-.6665-14.6668 21.3334v4.667l6 5.333-.6667 6 2.6667 4.667 5.3333 4.666 1.3335 22.667 5.3332 6 18 20.667 14.6668 10.666 16.0002 5.334 6.666 3.333 1.334-11.333-8.667-6.667-8-2.667-2-8h12.667l4 7.334 6 5.333 8.666 3.333 18-4.666 2.667-7.334h-16.667l-6.666-9.333-.667-6.667 23.333-27.333 8.667-7.333-11.333-20 6.666-8.667-6-12.0001-8.666-6.6668-2.667-7.3332 4-7.3333 6-6.6667 2.667 13.3332 10.666 3.3335 4.667 6.6665 3.333 17.3339 5.334 8 4 4.666 9.333-6.666 2.667-4.667 23.333 1.333 2 5.334 8.667-8-3.334-6.0004-8-2-5.333-4.6667-.667-8 5.334-3.3333 1.333-24-10-8-8.667-2.6667h-15.333l-8 4-5.333 5.3332-6.667-.6665-4.667-7.3335-2.666-4.6665-9.334-.6667-5.333 2.6667-5.333 4-12.667 2-1.333 3.3333 2 6-6 1.3332-2.667-4-11.333-1.3332-3.334 6-.666 8v3.3332l-3.3337 2h-6l-2-7.3332-4-.6668-4 4.6668-6.6665 6 2 10zm33.511-14.3445-4.667-4 6 1.3333h6l8 .6667.667 8.6668 2.666 2 4.667 7.3332 4 3.3333-.667 8-6 1.3335-4.666-2.6668-2.667-6-4.667-7.3332-7.333-1.3335v-3.3333zm-5.334 47.3329 3.334-7.333 8.666-2.667 6.667 6.667-1.333 8.667-4.667 6.666-8-2.666-5.333-6z" fill="url(#b)" stroke="#006432" stroke-width="2"/><path d="m145.082 200.39h-11.334l-8 10-3.333 11.333-.667 7.334 14.667 10 7.333 5.333 6.667 13.333-14.667 1.334-1.333 10.666-.667 13.334 3.334 15.333 2.666 3.333 22.667 5.334 36-12.667z" fill="url(#d)" stroke="#006432" stroke-width="2"/><path d="m225.748 126.223.667-8 7.333-5 3.334 2 16 18-3.667-15.333-2-4.333 2.667-5.334 6.333-5.333 6.667-8.3331-1-6.3335 4.333-4 6.333 2.3335 14.667 20.3331-13.333 19-20.334 12z" fill="url(#e)" stroke="#006432" stroke-width="2"/><path d="m266.175 388.404 21 24 16 11 29 18 22 12 23 7 17 1 14-4 13-8 5-13-2-6-11 4-24-2-21-7-22-10-20-14-14-12-7-7-4-5-2-2z" fill="url(#f)" stroke="#21324b" stroke-linecap="round" stroke-width="3"/><g stroke-width="2"><path d="m207.812 157.778 201.277-50.143c6.357-2.118 27.544-5.591 27.544 14.302l.353 195.623c0 19.893-14.437 41.216-34.33 41.216l-191.39 52.791c-19.892 0-37 .044-37-19.848v-199.159c0-19.892 10.241-30.544 33.546-34.782z" fill="url(#h)" stroke="url(#g)"/><path d="m170.558 131.292 201.277-50.1428c7.857-2.0242 11.433.447 15.847 3.2719l37.54 21.8049-218.293 52.615c-23.305 4.238-33.546 14.89-33.546 34.782l.662 208.692-31.78-19.068c-5.893-4.414-5.297-7.129-5.253-18.015v-199.158c0-19.893 10.241-30.545 33.546-34.782z" fill="url(#j)" stroke="url(#i)"/><path d="m241.456 267.618c5.632 3.965 6.104 12.993 1.055 20.165-5.05 7.172-13.708 9.771-19.34 5.806s-6.104-12.993-1.055-20.165c5.05-7.172 13.708-9.771 19.34-5.806z" fill="url(#n)" stroke="url(#l)"/><path d="m389.092 226.439c5.631 3.965 6.103 12.993 1.054 20.165s-13.708 9.771-19.34 5.806c-5.631-3.964-6.103-12.993-1.054-20.164 5.049-7.172 13.708-9.772 19.34-5.807z" fill="url(#p)" stroke="url(#o)"/><path d="m271.404 293.925 67-19 1 43-83.5 25.833z" fill="url(#r)" stroke="url(#q)" stroke-linecap="round"/><path d="m270.946 251.591 66.833-18.497.144 39.36-66.833 18.497z" fill="url(#t)" stroke="url(#s)"/><path d="m337.904 233.091.084 39.625-66.792 18.25" fill="none" stroke="url(#u)" stroke-linecap="round"/></g><path d="m314.414 313.568 52-21.5c4-1.75 4.636-.727 10.157 4.478v22c0 4.418-.5 8.25-5.5 10.5l-57 22c-3.729-1.6-7.979-.6-8-8v-22c0-4.418 1.843-4.978 8.343-7.478z" fill="#fff" stroke="url(#v)" stroke-linecap="round"/><path d="m306.8 317.925.021-.009v-.158l.151.091 63.148-27.567 58.247 36.049-63.387 26.554.341.206-.5 31.667-58-35.5v-31.32z" fill="url(#w)" stroke-linecap="round" stroke-width=".2"/><path d="m370.071 348.758 52-21.5c4-1.75 10.5.582 10.5 5v22c0 4.418-.5 8.25-5.5 10.5l-57 22c-3.75 1.25-8-3.582-8-8v-22c0-4.418 1.5-5.5 8-8z" fill="url(#y)" stroke="url(#x)" stroke-linecap="round"/><path d="m394.175 461.404 27.666-.333 11-2.667 9.334-6 7.333-6 8.333-11.333 2.667-13.334-.333-11-4-11.333-14.334-17.333-24.25-26.834-5-4-29.75 11.25-.416 3.584 5.666 5.166 10.25 11 11.5 11.5 7 8.25 7.75 16.75v9.75l-1 11.584-8.666 12.333z" fill="url(#z)" stroke="#21324b" stroke-linecap="round" stroke-width="3"/></g></svg>