<svg enable-background="new 0 0 513.00 513.00" height="513" viewBox="0 0 513 513" width="513" xmlns="http://www.w3.org/2000/svg" xmlns:xlink="http://www.w3.org/1999/xlink"><linearGradient id="a" gradientTransform="matrix(-.629319360204 -.777146796218 .777146796218 -.629319360204 .63678654124 2.080886118139)" gradientUnits="objectBoundingBox" x1=".81466" x2="1.81466" y1=".888577" y2=".888577"><stop offset="0" stop-color="#425e7e"/><stop offset=".893501" stop-color="#70acf1"/><stop offset="1" stop-color="#90c5f1"/></linearGradient><radialGradient id="b" cx="136.905" cy="121.068" gradientUnits="userSpaceOnUse" r="93.3332"><stop offset=".125" stop-color="#90f19d"/><stop offset=".323276" stop-color="#8cf186"/><stop offset=".323276" stop-color="#89f170"/><stop offset=".50431" stop-color="#7edf69"/><stop offset="1" stop-color="#447e42"/></radialGradient><linearGradient id="c"><stop offset="0" stop-color="#7edf69"/><stop offset="1" stop-color="#447e42"/></linearGradient><radialGradient id="d" cx="150.082" cy="191.723" gradientUnits="userSpaceOnUse" r="55.3333" xlink:href="#c"/><radialGradient id="e" cx="212.581" cy="121.057" gradientUnits="userSpaceOnUse" r="32.8333" xlink:href="#c"/><linearGradient id="f" gradientTransform="matrix(.655310211242 .75535986592 -.75535986592 .655310211242 -.003247522672 -.307455316043)" gradientUnits="objectBoundingBox" x1=".335258" x2="1.69049" y1="-.157286" y2="-.157286"><stop offset=".0186047" stop-color="#343a4d"/><stop offset=".488372" stop-color="#6eadd2"/><stop offset=".772093" stop-color="#485270"/></linearGradient><linearGradient id="g" gradientTransform="matrix(.764135404654 .645055876149 -.645055876149 .764135404654 .17574871711 -.003203561924)" gradientUnits="objectBoundingBox" x1=".0922553" x2="1.05405" y1=".238722" y2=".238722"><stop offset=".00431034" stop-color="#adb1b2"/><stop offset=".185345" stop-color="#9ea8ab"/><stop offset="1" stop-color="#d4e2e3"/></linearGradient><linearGradient id="h" gradientTransform="matrix(.763778229073 .645478750072 -.645478750072 .763778229073 .173936312974 -.001463008207)" gradientUnits="objectBoundingBox" x1=".0889671" x2="1.05822" y1=".23691" y2=".23691"><stop offset=".00431034" stop-color="#b3b8b9"/><stop offset=".185345" stop-color="#a4afb2"/><stop offset="1" stop-color="#e2f0f1"/></linearGradient><linearGradient id="i" gradientTransform="matrix(.294843146658 -.955545665507 .955545665507 .294843146658 -.601066454846 .895389405092)" gradientUnits="objectBoundingBox" x1=".30613" x2="1.13963" y1=".854942" y2=".854942"><stop offset="0" stop-color="#7d8181"/><stop offset=".616379" stop-color="#d1e2e3"/><stop offset="1" stop-color="#7d8181"/></linearGradient><linearGradient id="j" gradientTransform="matrix(.294637774124 -.955609011081 .955609011081 .294637774124 -.604295184766 .895870361996)" gradientUnits="objectBoundingBox" x1=".304705" x2="1.14378" y1=".857278" y2=".857278"><stop offset="0" stop-color="#898e8f"/><stop offset=".616379" stop-color="#e4f7f8"/><stop offset="1" stop-color="#898e8f"/></linearGradient><linearGradient id="k"><stop offset=".00431034" stop-color="#c3c7c7"/><stop offset="1" stop-color="#1d1f1f"/></linearGradient><radialGradient id="l" cx="232.314" cy="280.604" gradientTransform="matrix(.796576999727 .604537081994 -.604537081994 .796576999727 216.893184890394 -83.36104988866)" gradientUnits="userSpaceOnUse" r="18.9717" xlink:href="#k"/><linearGradient id="m"><stop offset=".00431034" stop-color="#7f8181"/><stop offset="1" stop-color="#485657"/></linearGradient><radialGradient id="n" cx="232.314" cy="280.604" gradientTransform="matrix(.795040731421 .606556044716 -.606556044716 .795040731421 217.816609135263 -83.399000342963)" gradientUnits="userSpaceOnUse" r="19.0015" xlink:href="#m"/><radialGradient id="o" cx="379.949" cy="239.425" gradientTransform="matrix(.79657648272 .604537763236 -.604537763236 .79657648272 222.031917777082 -180.988941286536)" gradientUnits="userSpaceOnUse" r="18.9717" xlink:href="#k"/><radialGradient id="p" cx="379.949" cy="239.425" gradientTransform="matrix(.79504008565 .606556891156 -.606556891156 .79504008565 223.099099764814 -181.388255547941)" gradientUnits="userSpaceOnUse" r="19.0015" xlink:href="#m"/><linearGradient id="q" gradientTransform="matrix(.288187477203 .957574006531 -.957574006531 .288187477203 .260571176761 -.514046381036)" gradientUnits="objectBoundingBox" x1=".476049" x2="1.5512" y1="-.0817553" y2="-.0817553"><stop offset=".0646552" stop-color="#6a6c6c"/><stop offset=".437209" stop-color="#c6c7c7"/><stop offset=".790698" stop-color="#ced5d5"/><stop offset="1" stop-color="#5f6565"/></linearGradient><linearGradient id="r" gradientTransform="matrix(.289503856979 .957176847189 -.957176847189 .289503856979 .243389753532 -.525211457568)" gradientUnits="objectBoundingBox" x1=".475476" x2="1.58164" y1="-.0986586" y2="-.0986586"><stop offset=".0646552" stop-color="#707373"/><stop offset=".790698" stop-color="#f3f5f5"/><stop offset="1" stop-color="#6c7373"/></linearGradient><linearGradient id="s" gradientTransform="matrix(.313757475237 .949503157832 -.949503157832 .313757475237 .629800792407 -.608634896443)" gradientUnits="objectBoundingBox" x1=".735962" x2="1.36482" y1=".131387" y2=".131387"><stop offset=".0646552" stop-color="#707373"/><stop offset=".49569" stop-color="#c3c7c7"/><stop offset="1" stop-color="#6c7373"/></linearGradient><linearGradient id="t" gradientTransform="matrix(.315049332887 .949075296195 -.949075296195 .315049332887 .621526863788 -.623904565776)" gradientUnits="objectBoundingBox" x1=".743008" x2="1.39343" y1=".118645" y2=".118645"><stop offset="0" stop-color="#656565"/><stop offset=".323276" stop-color="#dcdede"/><stop offset=".400862" stop-color="#eef1f1"/><stop offset=".762931" stop-color="#e6e8e8"/><stop offset="1" stop-color="#1d1f1f"/></linearGradient><linearGradient id="u" gradientTransform="matrix(.870549647238 .492080594714 -.492080594714 .870549647238 .090704229901 -.27475066792)" gradientUnits="objectBoundingBox" x1=".567558" x2="1.58162" y1=".0350217" y2=".0350217"><stop offset=".0646552" stop-color="#707373"/><stop offset=".49569" stop-color="#f3f5f5"/><stop offset="1" stop-color="#6c7373"/></linearGradient><linearGradient id="v" gradientUnits="objectBoundingBox" x1="-.020979" x2="1.02797" y1=".679102" y2=".679102"><stop offset="0" stop-color="#a1a4a4"/><stop offset=".539535" stop-color="#b1b2b2"/></linearGradient><linearGradient id="w" gradientTransform="matrix(.655471035289 -.755220313483 .755220313483 .655471035289 -.720918199277 .521582475722)" gradientUnits="objectBoundingBox" x1=".211205" x2="1.45528" y1="1.05093" y2="1.05093"><stop offset=".0646552" stop-color="#707373"/><stop offset=".353488" stop-color="#f3f5f5"/><stop offset=".790698" stop-color="#e7eaea"/><stop offset="1" stop-color="#6c7373"/></linearGradient><linearGradient id="x" gradientTransform="matrix(.791656088773 .610966968917 -.610966968917 .791656088773 .188013013457 -.013380762537)" gradientUnits="objectBoundingBox" x1=".113626" x2="1.24453" y1=".268983" y2=".268983"><stop offset="0" stop-color="#636565"/><stop offset=".539535" stop-color="#b3b9b9"/></linearGradient><linearGradient id="y" gradientTransform="matrix(.792354981334 .610060311409 -.610060311409 .792354981334 .184214079819 -.010918298093)" gradientUnits="objectBoundingBox" x1=".108146" x2="1.25652" y1=".265151" y2=".265151"><stop offset="0" stop-color="#707373"/><stop offset=".539535" stop-color="#f3f5f5"/></linearGradient><linearGradient id="z" gradientTransform="matrix(.64528798461 .763939406575 -.763939406575 .64528798461 .234743572918 .020853322144)" gradientUnits="objectBoundingBox" x1=".0949163" x2="1.0214" y1=".263209" y2=".263209"><stop offset="0" stop-color="#6eadd2"/><stop offset=".939535" stop-color="#414b69"/></linearGradient><linearGradient id="A" gradientTransform="matrix(.589597150658 .807697468076 -.807697468076 .589597150658 .114297254436 -.587195864702)" gradientUnits="objectBoundingBox" x1=".634967" x2="1.42442" y1="-.181126" y2="-.181126"><stop offset="0" stop-color="#6eadd2"/><stop offset=".0560345" stop-color="#263854"/><stop offset=".978448" stop-color="#293c58" stop-opacity=".996078"/><stop offset="1" stop-color="#4b6181"/></linearGradient><radialGradient id="B" cx="431.429" cy="342.878" gradientTransform="matrix(.590378073017 .807126836935 -.807126836935 .590378073017 453.469182850579 -207.767467978775)" gradientUnits="userSpaceOnUse" r="49.7253"><stop offset="0" stop-color="#72b2d9"/><stop offset=".900862" stop-color="#485270"/></radialGradient><g stroke-linejoin="round"><path d="m167.237 42.4006c75.111 0 136 60.8884 136 135.9994 0 75.109-60.89 135.998-136 135.998-75.1107 0-136.0003-60.889-136.0003-135.998 0-75.111 60.8885-135.9994 136.0003-135.9994z" fill="url(#a)" stroke-width=".2"/><path d="m79.5712 84.7346v3.3333l-2 1.3332-17.3334-.6665-14.6666 21.3334v4.667l6 5.333-.6667 6 2.6667 4.667 5.3333 4.666 1.3333 22.667 5.3334 6 18 20.667 14.6666 10.666 16.0002 5.334 6.667 3.333 1.333-11.333-8.667-6.667-8-2.667-2-8h12.667l4 7.334 6 5.333 8.667 3.333 18-4.666 2.666-7.334h-16.666l-6.667-9.333-.667-6.667 23.334-27.333 8.666-7.333-11.333-20 6.667-8.667-6-12.0001-8.667-6.6668-2.667-7.3332 4-7.3333 6-6.6667 2.667 13.3332 10.667 3.3335 4.666 6.6665 3.334 17.3339 5.333 8 4 4.666 9.333-6.666 2.667-4.667 23.333 1.333 2 5.334 8.667-8-3.333-6.0004-8-2-5.334-4.6667-.666-8 5.333-3.3333 1.333-24-10-8-8.666-2.6667h-15.334l-8 4-5.333 5.3332-6.667-.6665-4.666-7.3335-2.667-4.6665-9.333-.6667-5.334 2.6667-5.333 4-12.667 2-1.333 3.3333 2 6-6 1.3332-2.667-4-11.333-1.3332-3.333 6-.667 8v3.3332l-3.3335 2h-6l-2-7.3332-4-.6668-4 4.6668-6.6667 6 2 10zm33.5108-14.3445-4.667-4 6 1.3333h6l8 .6667.667 8.6668 2.666 2 4.667 7.3332 4 3.3333-.667 8-6 1.3335-4.666-2.6668-2.667-6-4.667-7.3332-7.333-1.3335v-3.3333zm-5.334 47.3329 3.334-7.333 8.666-2.667 6.667 6.667-1.333 8.667-4.667 6.666-8-2.666-5.333-6z" fill="url(#b)" stroke="#006432" stroke-width="2"/><path d="m145.082 200.39h-11.334l-8 10-3.333 11.333-.667 7.334 14.667 10 7.333 5.333 6.667 13.333-14.667 1.334-1.333 10.666-.667 13.334 3.334 15.333 2.666 3.333 22.667 5.334 36-12.667z" fill="url(#d)" stroke="#006432" stroke-width="2"/><path d="m225.748 126.223.667-8 7.333-5 3.334 2 16 18-3.667-15.333-2-4.333 2.667-5.334 6.333-5.333 6.667-8.3331-1-6.3335 4.333-4 6.333 2.3335 14.667 20.3331-13.333 19-20.334 12z" fill="url(#e)" stroke="#006432" stroke-width="2"/><path d="m266.175 388.404 21 24 16 11 29 18 22 12 23 7 17 1 14-4 13-8 5-13-2-6-11 4-24-2-21-7-22-10-20-14-14-12-7-7-4-5-2-2z" fill="url(#f)" stroke="#21324b" stroke-linecap="round" stroke-width="3"/><g stroke-width="2"><path d="m212.248 162.72 190-47.333c6-2 26-5.278 26 13.5l.334 184.663c0 18.778-13.629 38.907-32.407 38.907l-180.666 49.833c-18.778 0-34.927.042-34.927-18.737v-188c0-18.777 9.666-28.833 31.666-32.833z" fill="url(#h)" stroke="url(#g)"/><path d="m177.082 137.718 190-47.3337c7.416-1.9109 10.791.4219 14.958 3.0886l35.437 20.5831-206.062 49.667c-22 4-31.667 14.056-31.667 32.834l.625 196.999-30-18c-5.562-4.167-5-6.729-4.958-17.005v-188c0-18.778 9.667-28.833 31.667-32.833z" fill="url(#j)" stroke="url(#i)"/><path d="m241.456 267.618c5.632 3.965 6.104 12.993 1.055 20.165-5.05 7.172-13.708 9.771-19.34 5.806s-6.104-12.993-1.054-20.165c5.049-7.172 13.708-9.771 19.339-5.806z" fill="url(#n)" stroke="url(#l)"/><path d="m389.092 226.439c5.631 3.965 6.103 12.993 1.054 20.165s-13.708 9.771-19.339 5.806c-5.632-3.964-6.104-12.993-1.055-20.164 5.049-7.172 13.708-9.772 19.34-5.807z" fill="url(#p)" stroke="url(#o)"/><path d="m271.405 293.925 66.999-19 1 43-83.499 25.833z" fill="url(#r)" stroke="url(#q)" stroke-linecap="round"/><path d="m270.946 251.591 66.833-18.497.144 39.36-66.833 18.497z" fill="url(#t)" stroke="url(#s)"/><path d="m337.904 233.091.084 39.625-66.792 18.25" fill="none" stroke="url(#u)" stroke-linecap="round"/></g><path d="m314.414 313.568 52-21.5c4-1.75 4.636-.727 10.157 4.478v22c0 4.418-.5 8.25-5.5 10.5l-57 22c-3.729-1.6-7.979-.6-8-8v-22c0-4.418 1.843-4.978 8.343-7.478z" fill="#fff" stroke="url(#v)" stroke-linecap="round"/><path d="m306.8 317.925.021-.009v-.158l.152.091 63.147-27.567 58.247 36.049-63.387 26.554.341.206-.5 31.667-58-35.5v-31.32z" fill="url(#w)" stroke-linecap="round" stroke-width=".2"/><path d="m370.071 348.758 52-21.5c4-1.75 10.5.582 10.5 5v22c0 4.418-.5 8.25-5.5 10.5l-57 22c-3.75 1.25-8-3.582-8-8v-22c0-4.418 1.5-5.5 8-8z" fill="url(#y)" stroke="url(#x)" stroke-linecap="round"/><path d="m394.175 461.404 27.666-.333 11-2.667 9.334-6 7.333-6 8.333-11.333 2.667-13.334-.333-11-4-11.333-14.334-17.333-24.25-26.834-5-4-29.75 11.25-.416 3.584 5.666 5.166 10.25 11 11.5 11.5 7 8.25 7.75 16.75v9.75l-1 11.584-8.666 12.333z" fill="url(#z)" stroke="#21324b" stroke-linecap="round" stroke-width="3"/><path d="m428.728 355.981c16.227 3.345 26.79 18.628 23.593 34.134s-18.943 25.364-35.171 22.018c-16.227-3.346-26.79-18.628-23.593-34.134s18.944-25.364 35.171-22.018z" fill="url(#B)" stroke="url(#A)" stroke-width="3"/></g></svg>