<svg enable-background="new 0 0 220.00 220.00" height="220" viewBox="0 0 220 220" width="220" xmlns="http://www.w3.org/2000/svg" xmlns:xlink="http://www.w3.org/1999/xlink"><radialGradient id="a" cx="138.555" cy="89.7021" gradientTransform="matrix(0 -1 1 0 48.853272 228.257568)" gradientUnits="userSpaceOnUse" r="104.227"><stop offset="0" stop-color="#fffdfd"/><stop offset=".731481" stop-color="#fff"/><stop offset=".805556" stop-color="#ffb600"/><stop offset=".925926" stop-color="#ffb600"/><stop offset="1" stop-color="#ffe45c"/></radialGradient><linearGradient id="b"><stop offset="0" stop-color="#fffdfd"/><stop offset=".606481" stop-color="#fff"/><stop offset=".699074" stop-color="#ffb600"/><stop offset=".925926" stop-color="#ffb600"/><stop offset="1" stop-color="#ffe45c"/></linearGradient><radialGradient id="c" cx="115.467" cy="108.387" gradientUnits="userSpaceOnUse" r="70.3325" xlink:href="#b"/><radialGradient id="d" cx="131.019" cy="91.4152" gradientUnits="userSpaceOnUse" r="59.875" xlink:href="#b"/><g stroke-linejoin="bevel"><ellipse cx="111.103" cy="111.232" fill="#a0d4e0" rx="95.6665" ry="96" stroke="#000" stroke-width="5"/><path d="m197.644 116.024-5.25 3-2.5 2.25-.75 9 1.75 7-1.25 4.25-3 3.25-2 4.75-3.25 3-2.75 1.75-7.25.5-2.75-3-6.25-2.75-8.75-.75-5-2.5-6.25-.25-6.75 2.75-4 2.75-2 6 1 5.25 2 3.75-1.5 3.75-3.25 2-1.75 4.75 1.25 8.25 2.25 3.5-1.75 3.75-2.5 3.25-2.75 4.5.75 4.5.209.862c44.52-6.793 78.958-44.378 81.064-90.428l-1.523.066z" fill="#205910" stroke-width=".2"/><path d="m75.1442 36.2739.5001-8.0001-2.549-4.2695c-31.9776 14.7934-54.434 46.7732-55.6108 84.1397l4.6597.63 5.5-.75 4.25-3.5 2.25-3.5 2-4.7501 3-2.25.75-6.5 2-6 3.75-3.5 3.5-.75 3.25 1.5 3.25 2.75 5.75.5 6.25-.5 2.25-4.5 5-3.75 3.5-5.25 2.5-6.5-.5-8-1.5-4.75-3.75-4.5z" fill="#205910" stroke-width=".2"/><path d="m132.858 106.273-.667.475-5.429 1.794-37.6989 24.607-3.2674-16.704-1.8599-21.4883 1.2064-16.1482 3.3175-19.2244 6.9368-15.123 8.4445-16.1482 9.651-12.8162 2.53 2.3407 13.983 88.4716z" fill="url(#a)" stroke="#000" stroke-width="5"/><path d="m115.019 98.0654 90.896 12.2096c-1.041-50.0782-40.295-90.7291-89.684-93.7761z" fill="url(#c)" stroke="#000" stroke-width="5"/><path d="m114.857 96.1383-.463.5523-1.75 4.5004-23.9997 31.249 16.2917 2.709 20.958 1.542 15.75-1 18.75-2.75 14.75-5.75 15.75-7 12.5-8-2.283-2.097-86.289-11.5914z" fill="url(#d)" stroke="#000" stroke-width="5"/></g><path d="m203.343 30.1893h-5.6v15.96h-4.481v-15.96h-5.599v-3.64h15.68z" stroke-linejoin="round" stroke-width=".2"/><path d="m228.262 46.1493h-4.48v-11.7294c0-1.266.057-2.6644.171-4.1957h-.109c-.228 1.2046-.433 2.0708-.617 2.5989l-4.594 13.3262h-3.609l-4.677-13.1907c-.128-.3557-.334-1.2672-.617-2.7344h-.123c.117 1.9339.175 3.6298.175 5.0882v10.8369h-3.92v-19.6h6.41l4.003 11.62c.321.9274.554 1.8609.7 2.7999h.083c.245-1.0849.505-2.0284.779-2.8305l4.003-11.5894h6.422z" stroke-linejoin="round" stroke-width=".2"/></svg>