<?xml version="1.0" encoding="utf-8"?>
<!DOCTYPE svg PUBLIC "-//W3C//DTD SVG 1.1//EN" "http://www.w3.org/Graphics/SVG/1.1/DTD/svg11.dtd">
<svg xmlns="http://www.w3.org/2000/svg" xmlns:xlink="http://www.w3.org/1999/xlink" version="1.1" baseProfile="full" width="250" height="250" viewBox="0 0 250.00 250.00" enable-background="new 0 0 250.00 250.00" xml:space="preserve">
	<g>
		<linearGradient id="SVGID_Fill1_" gradientUnits="objectBoundingBox" x1="0.814661" y1="0.888577" x2="1.81466" y2="0.888577" gradientTransform="rotate(231.000076 0.814661 0.888577)">
			<stop offset="0" stop-color="#425E7E" stop-opacity="1"/>
			<stop offset="0.893501" stop-color="#70ACF1" stop-opacity="1"/>
			<stop offset="1" stop-color="#90C5F1" stop-opacity="1"/>
		</linearGradient>
		<path fill="url(#SVGID_Fill1_)" stroke-width="0.2" stroke-linejoin="round" d="M 125,27.0934C 180.229,27.0934 225,71.8639 225,127.092C 225,182.32 180.228,227.091 125,227.091C 69.7718,227.091 25.0002,182.32 25.0002,127.092C 25.0002,71.8639 69.771,27.0934 125,27.0934 Z "/>
		<g>
			<radialGradient id="SVGID_Fill2_" cx="102.697" cy="84.9374" r="68.6274" gradientUnits="userSpaceOnUse">
				<stop offset="0.125" stop-color="#90F19D" stop-opacity="1"/>
				<stop offset="0.323276" stop-color="#8CF186" stop-opacity="1"/>
				<stop offset="0.323276" stop-color="#89F170" stop-opacity="1"/>
				<stop offset="0.50431" stop-color="#7EDF69" stop-opacity="1"/>
				<stop offset="1" stop-color="#447E42" stop-opacity="1"/>
			</radialGradient>
			<path fill="url(#SVGID_Fill2_)" stroke-width="2" stroke-linejoin="round" stroke="#006432" stroke-opacity="1" d="M 60.5406,58.2218L 60.5406,60.6728L 59.0699,61.6532L 46.325,61.163L 35.5406,76.8493L 35.5406,80.2807L 39.9524,84.2023L 39.4622,88.6139L 41.423,92.0453L 45.3445,95.4767L 46.325,112.143L 50.2465,116.555L 63.4818,131.751L 74.266,139.594L 86.0308,143.516L 90.9327,145.967L 91.9131,137.633L 85.5405,132.732L 79.6582,130.771L 78.1876,124.889L 87.5013,124.889L 90.4424,130.281L 94.8542,134.202L 101.227,136.653L 114.462,133.222L 116.423,127.829L 104.168,127.829L 99.266,120.967L 98.7758,116.065L 115.933,95.9669L 122.305,90.5746L 113.972,75.869L 118.874,69.4965L 114.462,60.6728L 108.089,55.7709L 106.129,50.3788L 109.07,44.9867L 113.482,40.0846L 115.442,49.8886L 123.286,52.3395L 126.717,57.2416L 129.168,69.9867L 133.089,75.869L 136.031,79.3002L 142.893,74.3983L 144.854,70.9669L 162.011,71.9474L 163.482,75.869L 169.854,69.9867L 167.403,65.5749L 161.521,64.1042L 157.599,60.6728L 157.109,54.7904L 161.031,52.3395L 162.011,34.6925L 154.658,28.8102L 148.286,26.8495L 137.011,26.8495L 131.129,29.7904L 127.207,33.7121L 122.305,33.2221L 118.874,27.8297L 116.913,24.3983L 110.05,23.9081L 106.129,25.869L 102.207,28.8102L 92.8934,30.2807L 91.9131,32.7318L 93.3837,37.1435L 88.9719,38.1239L 87.0111,35.1828L 78.6778,34.2023L 76.2268,38.6142L 75.7366,44.4965L 75.7366,46.9474L 73.2856,48.4179L 68.8739,48.4179L 67.4033,43.0258L 64.4622,42.5356L 61.521,45.9669L 56.619,50.3788L 58.0896,57.7318L 60.5406,58.2218 Z M 85.1805,47.6747L 81.7491,44.7333L 86.1609,45.7138L 90.5726,45.7138L 96.4551,46.204L 96.9452,52.5766L 98.906,54.047L 102.337,59.4394L 105.279,61.8903L 104.788,67.7726L 100.377,68.7528L 96.9452,66.7921L 94.9844,62.3803L 91.5531,56.9882L 86.1609,56.0077L 86.1609,53.557L 85.1805,47.6747 Z M 81.259,82.4784L 83.71,77.0863L 90.0825,75.1254L 94.9844,80.0275L 94.004,86.4001L 90.5726,91.3019L 84.6903,89.3412L 80.7688,84.9294L 81.259,82.4784 Z "/>
			<radialGradient id="SVGID_Fill3_" cx="112.386" cy="136.89" r="40.686" gradientUnits="userSpaceOnUse">
				<stop offset="0" stop-color="#7EDF69" stop-opacity="1"/>
				<stop offset="1" stop-color="#447E42" stop-opacity="1"/>
			</radialGradient>
			<path fill="url(#SVGID_Fill3_)" stroke-width="2" stroke-linejoin="round" stroke="#006432" stroke-opacity="1" d="M 108.71,143.263L 100.377,143.263L 94.4943,150.616L 92.0433,158.949L 91.5531,164.341L 102.337,171.694L 107.73,175.616L 112.631,185.419L 101.847,186.4L 100.867,194.243L 100.377,204.047L 102.828,215.321L 104.788,217.772L 121.455,221.694L 147.926,212.38L 108.71,143.263 Z "/>
			<radialGradient id="SVGID_Fill4_" cx="158.342" cy="84.9294" r="24.1421" gradientUnits="userSpaceOnUse">
				<stop offset="0" stop-color="#7EDF69" stop-opacity="1"/>
				<stop offset="1" stop-color="#447E42" stop-opacity="1"/>
			</radialGradient>
			<path fill="url(#SVGID_Fill4_)" stroke-width="2" stroke-linejoin="round" stroke="#006432" stroke-opacity="1" d="M 168.024,88.7284L 168.514,82.8461L 173.906,79.1696L 176.357,80.64L 188.122,93.8754L 185.426,82.601L 183.955,79.4147L 185.916,75.4931L 190.573,71.5717L 195.474,65.4442L 194.739,60.7873L 197.925,57.8461L 202.582,59.5619L 213.367,74.5126L 203.563,88.4833L 188.612,97.3068L 168.024,88.7284 Z "/>
		</g>
	</g>
</svg>
