<?xml version="1.0" encoding="utf-8"?>
<!DOCTYPE svg PUBLIC "-//W3C//DTD SVG 1.1//EN" "http://www.w3.org/Graphics/SVG/1.1/DTD/svg11.dtd">
<svg xmlns="http://www.w3.org/2000/svg" xmlns:xlink="http://www.w3.org/1999/xlink" version="1.1" baseProfile="full" width="257" height="257" viewBox="0 0 257.00 257.00" enable-background="new 0 0 257.00 257.00" xml:space="preserve">
	<path fill="#E4E4E1" fill-opacity="1" stroke-width="5" stroke-linejoin="round" stroke="#000000" stroke-opacity="1" d="M 127.436,51.7324C 177.556,51.7324 218.186,79.9384 218.186,114.732C 218.186,129.651 210.717,143.358 198.233,154.15L 193.686,159.232L 183.686,166.232L 176.686,177.732L 169.686,191.732L 162.186,202.232L 157.186,201.232L 155.686,192.232L 154.425,174.899C 145.9,176.741 136.835,177.732 127.436,177.732C 77.3163,177.732 36.6862,149.526 36.6862,114.732C 36.6862,79.9384 77.3163,51.7324 127.436,51.7324 Z "/>
	<path fill="#EFF487" fill-opacity="1" stroke-width="0.2" stroke-linejoin="round" d="M 196.186,77.1302C 180.146,62.6134 154.699,53.2324 126.049,53.2324C 77.5233,53.2324 38.186,80.1429 38.186,113.339C 38.186,122.808 41.3864,131.765 47.0875,139.732L 67.63,128.888C 63.1963,123.433 60.6963,117.257 60.6963,110.715C 60.6963,88.5845 89.3053,70.644 124.596,70.644C 142.389,70.644 158.484,75.2046 170.07,82.5631L 196.186,77.1302 Z "/>
	<ellipse fill="#FFFFFF" fill-opacity="1" stroke-width="0.2" stroke-linejoin="round" cx="126.186" cy="111.732" rx="66" ry="41.9999"/>
	<rect x="84.6859" y="89.2321" fill="#BE7474" fill-opacity="1" stroke-width="2" stroke-linejoin="round" stroke="#CE9696" stroke-opacity="1" width="91.5" height="17"/>
	<rect x="115.186" y="113.982" fill="#BE7474" fill-opacity="1" stroke-width="2" stroke-linejoin="round" stroke="#CE9696" stroke-opacity="1" width="60.3331" height="17"/>
</svg>
