<svg enable-background="new 0 0 220.00 220.00" height="220" viewBox="0 0 220 220" width="220" xmlns="http://www.w3.org/2000/svg"><g stroke-linejoin="round"><path d="m108.936 33.2324c50.12 0 90.75 28.206 90.75 63 0 14.9186-7.469 28.6256-19.953 39.4176l-4.547 5.082-10 7-7 11.5-7 14-7.5 10.5-5-1-1.5-9-1.261-17.333c-8.525 1.842-17.59 2.833-26.989 2.833-50.1197 0-90.7498-28.206-90.7498-62.9996 0-34.794 40.6301-63 90.7498-63z" fill="#e4e4e1" stroke="#000" stroke-width="5"/><path d="m177.686 58.6302c-16.04-14.5168-41.487-23.8978-70.137-23.8978-48.5257 0-87.863 26.9105-87.863 60.1066 0 9.469 3.2004 18.426 8.9015 26.393l20.5425-10.844c-4.4337-5.455-6.9337-11.6308-6.9337-18.173 0-22.1305 28.609-40.071 63.8997-40.071 17.793 0 33.888 4.5606 45.474 11.9191z" fill="#eff487" stroke-width=".2"/><ellipse cx="107.686" cy="93.232" fill="#fff" rx="66" ry="41.9999" stroke-width=".2"/><path d="m66.1859 70.7321h91.5v17h-91.5z" fill="#be7474" stroke="#ce9696" stroke-width="2"/><path d="m96.6859 95.4821h60.3331v17h-60.3331z" fill="#be7474" stroke="#ce9696" stroke-width="2"/></g></svg>