<?xml version="1.0" encoding="utf-8"?>
<!DOCTYPE svg PUBLIC "-//W3C//DTD SVG 1.1//EN" "http://www.w3.org/Graphics/SVG/1.1/DTD/svg11.dtd">
<svg x="0" y="0" width="48" height="48" overflow="hidden" viewBox="0, 0, 48, 48" preserveAspectRatio="xMidYMid" font-size="0" id="svg" xml:space="preserve" xmlns="http://www.w3.org/2000/svg" xmlns:xlink="http://www.w3.org/1999/xlink" xmlns:xml="http://www.w3.org/XML/1998/namespace" version="1.1">
  <g transform="matrix(0.6050819, 0, 0, 0.568077, -1.943406, -1.853708)" id="g101" xml:space="preserve">
    <g id="g26" xml:space="preserve">
      <linearGradient x1="57.19438" y1="38.10237" x2="103.3251" y2="38.10237" gradientUnits="userSpaceOnUse" gradientTransform="matrix(1.569045, 0, 0, 1.854143, 3.211807, 3.263128)" id="SVGID_Fill1_" xml:space="preserve">
        <stop offset="0%" stop-color="#0066C8" stop-opacity="1" id="stop2" xml:space="preserve" />
        <stop offset="100%" stop-color="#242F6B" stop-opacity="1" id="stop4" xml:space="preserve" />
      </linearGradient>
      <path d="M67.3392 87.6509 L69.4976 76.7058 L81.9882 72.2383 C68.4557 63.9785 56.9718 41.7936 56.9718 41.7936 L40.6542 43.8621 C59.6241 81.9591 67.3392 87.65089 67.3392 87.65089 z" stroke-width="0.2" stroke-linejoin="round" id="path7" xml:space="preserve" connector-curvature="0" style="fill:url(#SVGID_Fill1_);" />
      <g id="g24" xml:space="preserve">
        <defs id="defs10" xml:space="preserve">
          <path d="M-34.9103 25.0963 L116.811 -10.1631 L137.47 78.7345 L-14.2513 113.994 z" id="SVG_CLIPPER1_" xml:space="preserve" connector-curvature="0" />
        </defs>
        <clipPath id="SVG_CLIPPER2_" xml:space="preserve">
          <use xlink:href="#SVG_CLIPPER1_" x="0" y="0" id="use12" xml:space="preserve" width="100%" height="100%" overflow="visible" />
        </clipPath>
        <g clip-path="url(#SVG_CLIPPER2_)" id="g22" xml:space="preserve">
          <linearGradient x1="76.60258" y1="71.76181" x2="115.9364" y2="71.76181" gradientUnits="userSpaceOnUse" gradientTransform="matrix(1.543462, 0, 0, 1.884876, 3.211807, 3.263128)" id="SVGID_Fill2_" xml:space="preserve">
            <stop offset="0%" stop-color="#5EB6FF" stop-opacity="0.431373" id="stop15" xml:space="preserve" />
            <stop offset="100%" stop-color="#000000" stop-opacity="0.431373" id="stop17" xml:space="preserve" />
          </linearGradient>
          <path d="M66.4341 84.7037 L68.0663 76.42529 L68.2117 75.6881 L68.9532 75.4231 L78.9315 71.854 C67.6403 63.6447 58.3661 47.3645 56.1533 43.2849 L42.8057 44.9768 C55.72 70.7101 63.2513 80.986 66.4341 84.7037 z" stroke-width="0.2" stroke-linejoin="round" id="path20" xml:space="preserve" connector-curvature="0" style="fill:url(#SVGID_Fill2_);" />
        </g>
      </g>
    </g>
    <g id="g52" xml:space="preserve">
      <linearGradient x1="33.29963" y1="38.56668" x2="79.73707" y2="38.56668" gradientUnits="userSpaceOnUse" gradientTransform="matrix(1.57116, 0, 0, 1.851647, 3.211807, 3.263128)" id="SVGID_Fill3_" xml:space="preserve">
        <stop offset="0%" stop-color="#0066C8" stop-opacity="1" id="stop28" xml:space="preserve" />
        <stop offset="100%" stop-color="#242F6B" stop-opacity="1" id="stop30" xml:space="preserve" />
      </linearGradient>
      <path d="M29.0248 42.2104 C29.0248 42.2104 16.8148 64.1124 3.488049 72.2859 L15.0707 76.6658 L16.4681 87.4551 C16.4681 87.4551 24.1242 81.8258 44.3799 44.2164 z" stroke-width="0.2" stroke-linejoin="round" id="path33" xml:space="preserve" connector-curvature="0" style="fill:url(#SVGID_Fill3_);" />
      <g id="g50" xml:space="preserve">
        <defs id="defs36" xml:space="preserve">
          <path d="M-5.96022 -14.4402 L120.768 29.4534 L78.8813 125.358 L-47.8465 81.4648 z" id="SVG_CLIPPER3_" xml:space="preserve" connector-curvature="0" />
        </defs>
        <clipPath id="SVG_CLIPPER4_" xml:space="preserve">
          <use xlink:href="#SVG_CLIPPER3_" x="0" y="0" id="use38" xml:space="preserve" width="100%" height="100%" overflow="visible" />
        </clipPath>
        <g clip-path="url(#SVG_CLIPPER4_)" id="g48" xml:space="preserve">
          <linearGradient x1="14.32722" y1="71.67577" x2="53.1917" y2="71.67577" gradientUnits="userSpaceOnUse" gradientTransform="matrix(1.548159, 0, 0, 1.879157, 3.211807, 3.263128)" id="SVGID_Fill4_" xml:space="preserve">
            <stop offset="0%" stop-color="#5EB6FF" stop-opacity="0.431373" id="stop41" xml:space="preserve" />
            <stop offset="100%" stop-color="#000000" stop-opacity="0.431373" id="stop43" xml:space="preserve" />
          </linearGradient>
          <path d="M17.5019 84.5469 L16.445 76.3862 L16.3508 75.6594 L15.6632 75.3995 L6.41055 71.9006 C17.6078 63.7814 27.3717 47.7073 29.7128 43.6793 L42.2729 45.3203 C28.4953 70.7244 20.7414 80.8737 17.5019 84.5469 z" stroke-width="0.2" stroke-linejoin="round" id="path46" xml:space="preserve" connector-curvature="0" style="fill:url(#SVGID_Fill4_);" />
        </g>
      </g>
    </g>
    <g id="g99" xml:space="preserve">
      <linearGradient x1="44.8865" y1="3.77308" x2="101.4994" y2="3.77308" gradientUnits="userSpaceOnUse" gradientTransform="matrix(1.652673, 0, 0, 1.760321, 3.211807, 3.263128)" id="SVGID_Fill5_" xml:space="preserve">
        <stop offset="0%" stop-color="#0066C8" stop-opacity="1" id="stop54" xml:space="preserve" />
        <stop offset="100%" stop-color="#242F6B" stop-opacity="1" id="stop56" xml:space="preserve" />
      </linearGradient>
      <path d="M37.1934 7.89307 L32.0461 6.4884 L30.0959 11.4539 L24.7669 11.7087 L24.4461 17.0343 L19.4569 18.923 L20.7974 24.087 L16.6356 27.4254 L19.5066 31.9221 L16.5801 36.3829 L20.7001 39.7727 L19.2956 44.9196 L24.2614 46.8702 L24.5161 52.1992 L29.8414 52.52 L31.7304 57.5093 L36.8944 56.1687 L40.2326 60.3302 L44.7294 57.4595 L49.1906 60.3857 L52.5799 56.2657 L57.7269 57.6702 L59.6774 52.7047 L65.0064 52.4502 L65.3271 47.1245 L70.31641 45.2358 L68.97591 40.0718 L73.1376 36.7335 L70.2666 32.2365 L73.1931 27.7756 L69.0731 24.386 L70.4776 19.239 L65.5121 17.2886 L65.2574 11.9595 L59.9321 11.6389 L58.0429 6.649172 L52.8789 7.990232 L49.5406 3.828372 L45.0439 6.699222 L40.5826 3.772952 z" stroke-width="0.2" stroke-linejoin="round" id="path59" xml:space="preserve" connector-curvature="0" style="fill:url(#SVGID_Fill5_);" />
      <linearGradient x1="44.88646" y1="55.28451" x2="117.1373" y2="55.28451" gradientUnits="userSpaceOnUse" gradientTransform="matrix(1.652685, 0, 0, 1.760307, 3.211807, 3.263128)" id="SVGID_Fill6_" xml:space="preserve">
        <stop offset="0%" stop-color="#0066C8" stop-opacity="1" id="stop61" xml:space="preserve" />
        <stop offset="100%" stop-color="#242F6B" stop-opacity="1" id="stop63" xml:space="preserve" />
      </linearGradient>
      <path d="M39.1241 9.4812 L38.0959 10.7307 L36.5351 10.3049 L33.5529 9.490971 L32.4226 12.3683 L31.8311 13.8737 L30.21511 13.9509 L27.12711 14.0988 L26.94161 17.1842 L26.84441 18.7993 L25.33141 19.3722 L22.4404 20.4664 L23.21711 23.4587 L23.62361 25.025 L22.36161 26.0376 L19.95041 27.9718 L21.61391 30.5768 L22.48461 31.9407 L21.59711 33.2937 L19.90141 35.8785 L22.28841 37.8419 L23.53791 38.8699 L23.11191 40.4309 L22.29811 43.4132 L25.17511 44.5435 L26.68141 45.135 L26.75841 46.7507 L26.9059 49.8386 L29.9916 50.0245 L31.6069 50.1216 L32.1794 51.6348 L33.2739 54.5255 L36.2661 53.7487 L37.8319 53.3424 L38.8441 54.6045 L40.7786 57.01571 L43.3841 55.3522 L44.7479 54.4814 L46.1009 55.3689 L48.6854 57.0645 L50.6489 54.6775 L51.6769 53.4282 L53.2381 53.8542 L56.2201 54.668 L57.3504 51.7906 L57.9419 50.2848 L59.5581 50.2075 L62.6461 50.0601 L62.8319 46.9742 L62.9289 45.3591 L64.4421 44.7864 L67.3326 43.6921 L66.55611 40.7 L66.14991 39.1339 L67.41161 38.1221 L69.82311 36.1873 L68.15961 33.5817 L67.28892 32.2179 L68.17641 30.8652 L69.87241 28.2808 L67.48461 26.3165 L66.23561 25.2886 L66.66141 23.7277 L67.47541 20.7457 L64.59791 19.6152 L63.09211 19.0237 L63.01491 17.408 L62.86741 14.3198 L59.78161 14.1343 L58.16661 14.0372 L57.59391 12.524 L56.49961 9.632813 L53.50711 10.4098 L51.94111 10.8162 L50.92861 9.553962 L48.99441 7.143072 L46.38941 8.806401 L45.02541 9.677251 L43.67261 8.789671 L41.08761 7.094481 z" stroke-width="0.2" stroke-linejoin="round" id="path66" xml:space="preserve" connector-curvature="0" style="fill:url(#SVGID_Fill6_);" />
      <g id="g83" xml:space="preserve">
        <defs id="defs69" xml:space="preserve">
          <rect x="-50.6024" y="-13.7161" width="200" height="150" id="SVG_CLIPPER5_" xml:space="preserve" />
        </defs>
        <clipPath id="SVG_CLIPPER6_" xml:space="preserve">
          <use xlink:href="#SVG_CLIPPER5_" x="0" y="0" id="use71" xml:space="preserve" width="100%" height="100%" overflow="visible" />
        </clipPath>
        <g clip-path="url(#SVG_CLIPPER6_)" id="g81" xml:space="preserve">
          <linearGradient x1="44.5226" y1="11.2839" x2="114.7727" y2="11.2839" gradientUnits="userSpaceOnUse" gradientTransform="matrix(1.652669, 0, 0, 1.760325, 3.211807, 3.263128)" id="SVGID_Fill7_" xml:space="preserve">
            <stop offset="0%" stop-color="#8CCAEB" stop-opacity="0.811765" id="stop74" xml:space="preserve" />
            <stop offset="100%" stop-color="#28449E" stop-opacity="0.811765" id="stop76" xml:space="preserve" />
          </linearGradient>
          <circle cx="44.5226" cy="31.9089" r="20.375" stroke-width="0.2" stroke-linejoin="round" id="ellipse79" xml:space="preserve" style="fill:url(#SVGID_Fill7_);" />
        </g>
      </g>
      <linearGradient x1="44.52265" y1="12.54958" x2="110.4624" y2="12.54958" gradientUnits="userSpaceOnUse" gradientTransform="matrix(1.652671, 0, 0, 1.760322, 3.211807, 3.263128)" id="SVGID_Fill8_" xml:space="preserve">
        <stop offset="0%" stop-color="#8CCAEB" stop-opacity="1" id="stop85" xml:space="preserve" />
        <stop offset="100%" stop-color="#28449E" stop-opacity="1" id="stop87" xml:space="preserve" />
      </linearGradient>
      <path d="M25.3979 31.9089 C25.3979 42.4547 33.9771 51.0339 44.5226 51.0339 L44.5226 51.0339 C55.0681 51.0339 63.6476 42.4547 63.6476 31.9089 L63.6476 31.9089 C63.6476 21.3638 55.0681 12.7843 44.5226 12.7843 L44.5226 12.7843 C33.9771 12.7843 25.3979 21.3638 25.3979 31.9089 z" stroke-width="0.2" stroke-linejoin="round" id="path90" xml:space="preserve" connector-curvature="0" style="fill:url(#SVGID_Fill8_);" />
      <linearGradient x1="45.10749" y1="13.7962" x2="75.43176" y2="13.7962" gradientUnits="userSpaceOnUse" gradientTransform="matrix(1.634295, 0, 0, 1.780115, 3.211807, 3.263128)" id="SVGID_Fill9_" xml:space="preserve">
        <stop offset="0%" stop-color="#FFFFFF" stop-opacity="0.623529" id="stop92" xml:space="preserve" />
        <stop offset="100%" stop-color="#000000" stop-opacity="0.623529" id="stop94" xml:space="preserve" />
      </linearGradient>
      <path d="M60.2726 29.5133 C60.2726 38.3613 53.2584 45.5339 44.6059 45.5339 C35.9536 45.5339 28.9394 38.3613 28.9394 29.5133 C28.9394 20.6652 35.9536 13.4922 44.6059 13.4922 C53.2584 13.4922 60.2726 20.6652 60.2726 29.5133 z" stroke-width="0.2" stroke-linejoin="round" id="path97" xml:space="preserve" connector-curvature="0" style="fill:url(#SVGID_Fill9_);" />
    </g>
  </g>
</svg>