<svg enable-background="new 0 0 257.00 257.00" height="257" viewBox="0 0 257 257" width="257" xmlns="http://www.w3.org/2000/svg" xmlns:xlink="http://www.w3.org/1999/xlink"><radialGradient id="a" cx="126.819" cy="225.177" gradientTransform="matrix(-1 0 0 -1 253.637208 450.354004)" gradientUnits="userSpaceOnUse" r="120.827"><stop offset="0" stop-color="#a8a162"/><stop offset="1"/></radialGradient><filter id="b" filterUnits="userSpaceOnUse"><feGaussianBlur stdDeviation="7.937"/></filter><linearGradient id="c"><stop offset="0" stop-color="#ffffd6"/><stop offset=".376744" stop-color="#fffd31"/><stop offset=".740593" stop-color="#ffc817"/><stop offset="1" stop-color="#f6a700"/></linearGradient><radialGradient id="d" cx="147.572" cy="94.9321" gradientTransform="matrix(-.547191198077 -.837007641989 .837007641989 -.547191198077 148.863214530324 270.39706372419)" gradientUnits="userSpaceOnUse" r="151.881" xlink:href="#c"/><linearGradient id="e"><stop offset="0" stop-color="#fffffb"/><stop offset=".755398" stop-color="#fbfbfb"/><stop offset="1" stop-color="#b3b3b3"/></linearGradient><radialGradient id="f" cx="166.759" cy="56.7664" gradientTransform="matrix(-.999346505621 -.036146392682 .036146392682 -.999346505621 331.356215196875 119.52333735541)" gradientUnits="userSpaceOnUse" r="34.9522" xlink:href="#e"/><radialGradient id="g" cx="88.0793" cy="62.3828" gradientTransform="matrix(-.996770897835 .080298052456 -.080298052456 -.996770897835 180.883493183811 117.491585578114)" gradientUnits="userSpaceOnUse" r="33.4294" xlink:href="#e"/><linearGradient id="h"><stop offset="0" stop-color="#b88000"/><stop offset="1" stop-color="#4f2f00"/></linearGradient><radialGradient id="i" cx="88.9951" cy="71.4248" gradientUnits="userSpaceOnUse" r="19.6497" xlink:href="#h"/><radialGradient id="j" cx="166.721" cy="70.262" gradientUnits="userSpaceOnUse" r="18.4868" xlink:href="#h"/><linearGradient id="k"><stop offset="0" stop-color="#fff" stop-opacity=".388235"/><stop offset="1" stop-opacity=".388235"/></linearGradient><linearGradient id="l" gradientTransform="matrix(-.089665624297 .995971925216 -.995971925216 -.089665624297 .696144570261 -.60690334578)" gradientUnits="objectBoundingBox" x1=".625432" x2="1.6832" xlink:href="#k" y1=".0146924" y2=".0146924"/><linearGradient id="m" gradientTransform="matrix(-.087098835356 .996199675206 -.996199675206 -.087098835356 .71494530205 -.558474235789)" gradientUnits="objectBoundingBox" x1=".613361" x2="1.57975" xlink:href="#k" y1=".0483448" y2=".0483448"/><radialGradient id="n" cx="100.261" cy="68.104" gradientUnits="userSpaceOnUse" r="15.1814" xlink:href="#h"/><radialGradient id="o" cx="79.655" cy="55.3901" gradientUnits="userSpaceOnUse" r="2.52441" xlink:href="#h"/><radialGradient id="p" cx="88.1775" cy="52.3486" gradientUnits="userSpaceOnUse" r="6.33862" xlink:href="#e"/><radialGradient id="q" cx="74.728" cy="74.4944" gradientUnits="userSpaceOnUse" r="16.5798" xlink:href="#h"/><radialGradient id="r" cx="158.224" cy="82.8774" gradientTransform="matrix(-.547855509589 -.836572973872 .836572973872 -.547855509589 175.574294801988 260.647918868121)" gradientUnits="userSpaceOnUse" r="151.873" xlink:href="#c"/><radialGradient id="s" cx="125.897" cy="166.873" gradientTransform="matrix(.212539140384 .977152554008 -.977152554008 .212539140384 262.199077942769 8.384821622335)" gradientUnits="userSpaceOnUse" r="94.5533"><stop offset="0" stop-color="#9e1f01"/><stop offset=".943965" stop-color="#180906"/></radialGradient><radialGradient id="t" cx="113.206" cy="177.264" gradientUnits="userSpaceOnUse" r="33.3247"><stop offset="0" stop-color="#f1ebea"/><stop offset=".0818966" stop-color="#f77f7f"/><stop offset=".280172" stop-color="#fd1414"/><stop offset=".521552" stop-color="#f00"/><stop offset=".722198" stop-color="#ba0c01"/><stop offset=".943965" stop-color="#751803"/></radialGradient><radialGradient id="u" cx="127.481" cy="145.17" gradientUnits="userSpaceOnUse" r="73.96"><stop offset="0" stop-color="#f8f6f2"/><stop offset=".646512" stop-color="#f0eeea"/><stop offset="1" stop-color="#999a9d"/></radialGradient><radialGradient id="v" cx="136.079" cy="77.8755" gradientUnits="userSpaceOnUse" r="163.511"><stop offset="0" stop-color="#969ad9"/><stop offset=".378049" stop-color="#323ce7"/><stop offset=".740593" stop-color="#131ecb"/><stop offset="1" stop-color="#0803bd"/></radialGradient><radialGradient id="w" cx="160.174" cy="75.0061" gradientTransform="matrix(-.9993467365 -.036140008951 .036140008951 -.9993467365 317.532299014586 155.751892827555)" gradientUnits="userSpaceOnUse" r="35.006" xlink:href="#e"/><radialGradient id="x" cx="152.404" cy="74.4966" gradientTransform="matrix(.16547284346 -.986214346923 .986214346923 .16547284346 53.71592665472 212.472724982545)" gradientUnits="userSpaceOnUse" r="45.2337" xlink:href="#h"/><linearGradient id="y" gradientTransform="matrix(-.087096714146 .996199860663 -.996199860663 -.087096714146 .714948990948 -.558469016607)" gradientUnits="objectBoundingBox" x1=".613361" x2="1.57975" xlink:href="#k" y1=".0483495" y2=".0483495"/><linearGradient id="z" gradientTransform="matrix(-1 0 0 -1 2.079556 1.000758)" gradientUnits="objectBoundingBox" x1="1.03978" x2="2.10273" y1=".500379" y2=".500379"><stop offset=".506977" stop-color="#e7e8ee"/><stop offset="1" stop-color="#4d5793"/></linearGradient><filter id="A" filterUnits="userSpaceOnUse"><feGaussianBlur stdDeviation="2.83465"/></filter><filter id="B" filterUnits="userSpaceOnUse"><feGaussianBlur stdDeviation="2.4567"/></filter><g stroke-linejoin="round"><g stroke-width=".2"><path d="m35.1121 224.333c0 12.658 41.0583 23.295 91.7079 23.763l0 0c50.647.465 91.707-9.418 91.707-22.074l0 0c0-12.657-41.06-23.294-91.707-23.761l0 0c-1.15-.01-2.295-.016-3.435-.016l0 0c-49.0583 0-88.2729 9.718-88.2729 22.088z" fill="url(#a)" filter="url(#b)"/><path d="m16.9087 127.908c0 60.151 48.3357 108.914 107.9633 108.914l0 0c59.626 0 107.962-48.763 107.962-108.914l0 0c0-60.1512-48.336-108.9124-107.962-108.9124l0 0c-59.6276 0-107.9633 48.7612-107.9633 108.9124z" fill="url(#d)"/><path d="m141.578 66.0298c0 4.8481.636 9.4878 1.785 13.7466l0 0c17.237.7031 32.688 4.6323 44.097 10.6406l0 0c3.846-6.5772 6.182-15.0899 6.182-24.3872l0 0c0-20.8406-12.051-37.0571-29.216-37.0571l0 0c-10.842 0-22.848 16.2165-22.848 37.0571z" fill="url(#f)"/><path d="m62.0461 69.0542c0 9.2974 2.3365 17.8101 6.1814 24.3872l0 0c11.4109-6.0083 26.8606-9.9375 44.0965-10.6406l0 0c1.15-4.2588 1.786-8.8985 1.786-13.7466l0 0c0-20.8406-9.583-34.8281-18.3478-37.0571l0 0c-1.7146-.4356-3.4097-.6433-5.0701-.6433l0 0c-15.8296-.0017-28.646 18.8376-28.646 37.7004z" fill="url(#g)"/><path d="m175.007 81.8093c0-8.8581-4.004-16.039-8.944-16.039-4.9 0-8.881 7.0691-8.942 15.8318 6.287.9333 12.208 2.3115 17.626 4.0656.17-1.2358.26-2.5283.26-3.8584z"/><path d="m81.8386 52.866c-1.6084 1.2895-3.0798 2.9997-4.3672 5.0486-3.3755 5.3723-5.4865 13.0744-5.4865 21.6347 0 4.0911.4826 7.9863 1.3552 11.5249 2.3428-1.01 4.8159-1.9414 7.4048-2.7868-.4883-1.981-.7595-4.1729-.7595-6.4781 0-8.8581 4.0051-16.039 8.944-16.039 4.9393 0 8.9434 7.1809 8.9434 16.039 0 .8384-.0359 1.6614-.105 2.4651 2.6372-.4099 5.3412-.7412 8.1012-.9892.09-1.2234.136-2.4703.136-3.7361 0-10.5027-3.167-19.7283-7.9608-24.9304-1.1394-.6839-2.3171-1.252-3.5281-1.6961-2.0491-.7512-4.1936-1.1475-6.4099-1.1475-2.1565 0-4.2642.375-6.2676 1.0909z" fill="url(#i)"/><path d="m157.672 54.6179c-4.793 5.2029-7.961 14.428-7.961 24.9314 0 .3945.005.7876.014 1.1785 2.514.2234 4.982.5159 7.396.8743.061-8.7627 4.042-15.8318 8.942-15.8318 4.94 0 8.944 7.1809 8.944 16.039 0 1.3301-.09 2.6226-.26 3.8584 2.858.9256 5.577 1.9561 8.137 3.0808.55-2.8935.848-5.986.848-9.1992 0-11.8252-4.03-22.0124-9.854-26.6831-2.003-.7161-4.112-1.0911-6.267-1.0911-3.528 0-6.872 1.0027-9.939 2.8428z" fill="url(#j)"/><path d="m97.7678 84.2744c.0691-.8037.105-1.6267.105-2.4651 0-8.8581-4.0041-16.039-8.9434-16.039-4.9389 0-8.944 7.1809-8.944 16.039 0 2.3052.2712 4.4971.7595 6.4781 5.2414-1.7115 10.9565-3.0701 17.0229-4.013z"/><path d="m101.347 69.8977c0 7.7415-3.6397 14.0164-8.1309 14.0164-4.491 0-8.1309-6.2749-8.1309-14.0164 0-7.7405 3.6399-14.0161 8.1309-14.0161 4.4912 0 8.1309 6.2756 8.1309 14.0161z" fill="url(#l)"/><path d="m162.049 70.3574c0 7.7415 3.64 14.0161 8.131 14.0161 4.49 0 8.131-6.2746 8.131-14.0161 0-7.7407-3.641-14.0163-8.131-14.0163-4.491 0-8.131 6.2756-8.131 14.0163z" fill="url(#m)"/><path d="m106.006 79.5493c0-10.5034-3.169-19.7285-7.9618-24.9314-1.1392-.6833-2.3171-1.2514-3.5281-1.6953 1.211.4441 2.3887 1.0122 3.5281 1.6961 4.7938 5.2021 7.9608 14.4277 7.9608 24.9304 0 1.2658-.046 2.5127-.135 3.7361.09-1.2234.136-2.4703.136-3.7359z" fill="url(#n)"/><path d="m81.8381 52.8662c-1.6081 1.2896-3.0793 2.9995-4.3667 5.0484 1.2874-2.0489 2.7588-3.7591 4.3667-5.0484z" fill="url(#o)"/><path d="m81.8386 52.866c2.0034-.7159 4.1111-1.0909 6.2676-1.0909 2.2163 0 4.3608.3963 6.4099 1.1475-2.0491-.7515-4.1936-1.1477-6.4099-1.1477-2.1567 0-4.2646.375-6.2676 1.0911z" fill="url(#p)"/><path d="m73.3401 91.0742c-.8726-3.5386-1.3552-7.4338-1.3552-11.5249 0-8.5603 2.111-16.2624 5.4865-21.6347-3.3757 5.3725-5.4868 13.0742-5.4868 21.6345 0 4.091.4829 7.9865 1.3555 11.5251z" fill="url(#q)"/><path d="m124.896 19.6541c-59.6267 0-107.9627 48.7614-107.9627 108.9119 0 60.151 48.336 108.914 107.9627 108.914 59.627 0 107.963-48.763 107.963-108.914 0-60.1505-48.336-108.9119-107.963-108.9119zm-76.5129 77.0388c0-24.065 32.9958-43.5742 73.6959-43.5742 40.701 0 73.696 19.5092 73.696 43.5742 0 24.0651-32.994 43.5741-73.696 43.5741-40.7008 0-73.6959-19.509-73.6959-43.5741z" fill="url(#r)"/></g><path d="m108.544 31.8696s-42.3743 10.3887-58.8797 46.2691c5.8574-42.2471 58.8797-46.2691 58.8797-46.2691z" fill="#643d00" stroke="#653d00" stroke-linecap="round" stroke-width="7.224"/><path d="m150.517 36.3262s38.133 9.7387 53.361 46.269c-11.287-41.272-53.361-46.269-53.361-46.269z" fill="#643d00" stroke="#653d00" stroke-linecap="round" stroke-width="7.224"/><path d="m60.8293 112.971c-1.4628 5.813-.8176 21.383.5159 32.094 1.3335 10.712 3.3552 16.566 6.168 21.963 2.8127 5.397 6.4165 10.338 12.7226 14.518 6.3064 4.18 15.3155 7.6 26.1262 9.31 10.811 1.71 23.423 1.71 34.459-.57s20.496-6.84 28.378-12.73c7.884-5.891 14.19-13.111 18.244-20.141 4.054-7.031 5.856-13.871 6.448-21.305.593-7.434-.024-15.462-1.036-20.26s-2.42-6.365-5.036-6.151-6.439 2.209-9.111 3.848c-2.673 1.639-4.193 2.921-12.005 4.596-7.813 1.674-21.918 3.741-31.295 4.762s-14.028.997-19.506 1.08-11.785.273-19.6674-1.199c-7.8828-1.473-17.3423-4.608-23.8574-8.147-6.5149-3.539-10.0852-7.481-11.5479-1.668z" fill="url(#s)" stroke="#d98004" stroke-width="4"/><path d="m122.782 157.367c11.752 0 21.279 7.127 21.279 15.918s-9.527 15.917-21.279 15.917-21.28-7.126-21.28-15.917 9.527-15.918 21.28-15.918z" fill="url(#t)" stroke-width=".2"/><path d="m63.9316 114.774c.7742 4.561 3.7989 14.921 12.6209 24.473 8.8218 9.551 23.4412 18.295 35.9965 22.349 12.556 4.054 23.048 3.417 34.305-1.677 11.257-5.093 23.279-14.644 31.335-24.571 8.056-9.928 12.146-20.233 10.719-23.142-1.428-2.909-8.373 1.576-18.514 5.083-10.141 3.506-23.478 6.034-37.031 7.377-13.553 1.344-27.323 1.503-38.5676-.691-11.2449-2.194-19.9653-6.742-25.0637-9.633-5.0982-2.892-6.5742-4.129-5.8001.432z" fill="url(#u)" stroke-width=".2"/><path d="m76.4155 102.627s-18.1467 3.462-25.2151 15.418c2.5083-14.077 25.2151-15.418 25.2151-15.418z" fill="#d98004" stroke="#d98004" stroke-linecap="round" stroke-width="3"/><path d="m202.96 121.115s-9.591-16.05-23.083-18.555c13.833-2.5839 23.083 18.555 23.083 18.555z" fill="#d98004" stroke="#d98004" stroke-linecap="round" stroke-width="3"/><path d="m121.254 18.8069v218.1371c.549.008 1.099.012 1.65.012 60.751 0 109.999-48.838 109.999-109.081 0-60.2437-49.248-109.0801-109.999-109.0801-.551 0-1.101.0039-1.65.012z" fill="url(#v)" stroke-linecap="round" stroke-width=".2"/><path d="m143.931 12.5002s38.853 9.7537 54.368 46.3401c-11.5-41.3352-54.368-46.3401-54.368-46.3401z" fill="#643d00" stroke="#653d00" stroke-linecap="round" stroke-width="7.224"/><path d="m134.518 84.2837c0 4.8557.648 9.5024 1.819 13.7681l0 0c17.563.7041 33.304 4.6392 44.929 10.6562l0 0c3.919-6.587 6.298-15.1125 6.298-24.4243l0 0c0-20.8726-12.277-37.1138-29.767-37.1138l0 0c-11.046 0-23.279 16.2412-23.279 37.1138z" fill="url(#w)" stroke-width=".2"/><path d="m150.902 49.356c-4.884 5.2109-8.111 14.4502-8.111 24.9697l0 0c0 10.6255 3.317 19.9326 8.284 25.1113l0 0c4.954.753 9.693 1.795 14.124 3.05l0 0c7.1-3.687 12.254-14.8959 12.254-28.1613l0 0c0-11.8433-4.105-22.0462-10.039-26.7241l0 0c-2.041-.7171-4.19-1.0928-6.386-1.0928l0 0c-3.594 0-7.001 1.0044-10.126 2.8472z" fill="url(#x)" stroke-width=".2"/><path d="m150.34 76.5891c0 8.8718 4.08 16.0637 9.111 16.0637 5.034 0 9.114-7.1919 9.114-16.0637s-4.08-16.0637-9.114-16.0637c-5.031 0-9.111 7.1919-9.111 16.0637z" stroke-width=".2"/><path d="m155.361 65.1196c0 7.7534 3.709 14.0376 8.285 14.0376 4.575 0 8.284-6.2842 8.284-14.0376 0-7.7524-3.709-14.0376-8.284-14.0376-4.576 0-8.285 6.2852-8.285 14.0376z" fill="url(#y)" stroke-width=".2"/><path d="m127.864 134.557c2.477-3.849 6.235-8.468 10.079-11.658 3.844-3.189 7.773-4.949 11.787-5.059 4.015-.11 8.115 1.43 11.019 4.069 2.905 2.64 4.613 6.379 4.869 8.579s-.94 2.859-2.135 1.76c-1.196-1.1-2.392-3.96-4.869-6.159-2.477-2.2-6.236-3.74-10.763-1.87s-9.823 7.149-13.069 11.328c-3.245 4.179-4.441 7.258-6.064 8.578s-3.673.88-4.1-.88c-.427-1.759.768-4.839 3.246-8.688z" fill="#fe0c0c" stroke="#d98004" stroke-linecap="round" stroke-width="4"/><path d="m200.829 150.512c3.555-.555 8-.999 11.889-.221 3.888.777 7.222 2.777 11.139 5.249 3.917 2.471 8.418 5.413 12.168 8.343 3.751 2.929 6.751 5.846 8.584 7.888 1.834 2.041 2.5 3.208 2.813 4.083.312.875.271 1.458-.875 1.875s-3.396.667-5.708.167c-2.313-.5-4.688-1.75-7.404-3.013s-5.772-2.539-7.439-2.4-1.943 1.693-1.526 3.692 1.528 4.443 3.507 7.825 4.827 7.701 7.376 12.125c2.548 4.424 4.798 8.951 4.819 11.902.021 2.952-2.188 4.327-4.958 2.237-2.771-2.09-6.105-7.646-8.653-12.084-2.549-4.437-4.313-7.756-5.695-9.194-1.382-1.437-2.382-.993-1.937.785.444 1.778 2.333 4.889 4.111 8.555 1.778 3.667 3.444 7.889 4.438 11.216.993 3.326 1.312 5.757.895 7.409-.417 1.653-1.569 2.528-2.902 1.75-1.334-.777-2.848-3.208-5.16-7.646-2.313-4.437-5.424-10.881-6.979-14.104-1.556-3.222-1.556-3.222-1.827-2.993s-.812.688-.416 3.084c.395 2.395 1.729 6.729 2.389 10.944.659 4.215.645 8.313.194 10.861-.451 2.549-1.341 3.549-2.507 3.326-1.167-.222-2.611-1.666-3.833-4.62s-2.221-7.417-4.179-11.44-4.874-7.606-6.687-10.044c-1.812-2.437-2.521-3.729-3.869-5.594s-3.336-4.302-4.802-7.078c-1.466-2.775-2.409-5.888-2.742-8.555-.334-2.666-.057-4.887 1.193-8.552 1.249-3.666 3.472-8.777 5.916-11.666s5.111-3.556 8.667-4.112z" fill="url(#z)" stroke="#a9adc9" stroke-linecap="round"/><path d="m188.529 165.465-2.25 6.75 3 10 7 9 8 8.5 3 8 1.75 9.5" fill="none" filter="url(#A)" stroke="#16171f" stroke-linecap="round" stroke-width="4"/><path d="m213.279 191.215 2 5 5.75 10.75 3.75 8.5" fill="none" filter="url(#B)" stroke="#16171f" stroke-linecap="round" stroke-width="3"/><path d="m221.779 186.34 4.75 6.75 5.75 9.25 3.75 6.5" fill="none" filter="url(#B)" stroke="#16171f" stroke-linecap="round" stroke-width="3"/><path d="m226.779 169.34 6.5 2.75 7.5 3.5h3" fill="none" filter="url(#A)" stroke="#16171f" stroke-linecap="round" stroke-width="5"/></g></svg>