<?xml version="1.0" encoding="utf-8"?>
<!DOCTYPE svg PUBLIC "-//W3C//DTD SVG 1.1//EN" "http://www.w3.org/Graphics/SVG/1.1/DTD/svg11.dtd">
<svg xmlns="http://www.w3.org/2000/svg" xmlns:xlink="http://www.w3.org/1999/xlink" version="1.1" baseProfile="full" width="257" height="257" viewBox="0 0 257.00 257.00" enable-background="new 0 0 257.00 257.00" xml:space="preserve">
	<linearGradient id="SVGID_Fill1_" gradientUnits="objectBoundingBox" x1="0.184396" y1="0.16013" x2="1.11201" y2="0.16013" gradientTransform="rotate(56.681332 0.184396 0.160130)">
		<stop offset="0" stop-color="#B7C0B8" stop-opacity="1"/>
		<stop offset="1" stop-color="#FFFFFF" stop-opacity="1"/>
	</linearGradient>
	<path fill="url(#SVGID_Fill1_)" stroke-width="5" stroke-linejoin="round" stroke="#036400" stroke-opacity="1" d="M 19.085,6.86841L 209.085,6.86841C 211.294,6.86841 213.085,8.65918 213.085,10.8684L 213.085,238.202C 213.085,240.411 211.294,242.202 209.085,242.202L 19.085,242.202C 16.8759,242.202 15.085,240.411 15.085,238.202L 15.085,10.8684C 15.085,8.65918 16.8759,6.86841 19.085,6.86841 Z "/>
	<linearGradient id="SVGID_Stroke1_" gradientUnits="objectBoundingBox" x1="0.5" y1="2.50634" x2="4.51269" y2="2.50634" gradientTransform="rotate(-90.000000 0.500000 2.506341)">
		<stop offset="0" stop-color="#87AF06" stop-opacity="1"/>
		<stop offset="1" stop-color="#AFD27B" stop-opacity="1"/>
	</linearGradient>
	<linearGradient id="SVGID_Fill2_" gradientUnits="objectBoundingBox" x1="0.5" y1="2.61845" x2="4.73691" y2="2.61845" gradientTransform="rotate(-90.000000 0.500000 2.618451)">
		<stop offset="0" stop-color="#F4F5F3" stop-opacity="1"/>
		<stop offset="1" stop-color="#B7BDB0" stop-opacity="1"/>
	</linearGradient>
	<path fill="url(#SVGID_Fill2_)" stroke-width="2" stroke-linejoin="round" stroke="url(#SVGID_Stroke1_)" d="M 40.585,23.8687L 188.585,23.8687C 190.794,23.8687 192.585,25.6594 192.585,27.8687L 192.585,55.6609C 192.585,57.8701 190.794,59.6609 188.585,59.6609L 40.585,59.6609C 38.3759,59.6609 36.585,57.8701 36.585,55.6609L 36.585,27.8687C 36.585,25.6594 38.3759,23.8687 40.585,23.8687 Z "/>
	<linearGradient id="SVGID_Stroke2_" gradientUnits="objectBoundingBox" x1="0.5" y1="2.50632" x2="4.51266" y2="2.50632" gradientTransform="rotate(-90.000000 0.500000 2.506324)">
		<stop offset="0" stop-color="#87AF06" stop-opacity="1"/>
		<stop offset="1" stop-color="#AFD27B" stop-opacity="1"/>
	</linearGradient>
	<linearGradient id="SVGID_Fill3_" gradientUnits="objectBoundingBox" x1="0.5" y1="2.61843" x2="4.73688" y2="2.61843" gradientTransform="rotate(-90.000000 0.500000 2.618433)">
		<stop offset="0" stop-color="#F4F5F3" stop-opacity="1"/>
		<stop offset="1" stop-color="#E5F8C9" stop-opacity="1"/>
	</linearGradient>
	<path fill="url(#SVGID_Fill3_)" stroke-width="2" stroke-linejoin="round" stroke="url(#SVGID_Stroke2_)" d="M 40.585,64.6064L 188.585,64.6064C 190.794,64.6064 192.585,66.3972 192.585,68.6064L 192.585,96.3987C 192.585,98.6079 190.794,100.399 188.585,100.399L 40.585,100.399C 38.3759,100.399 36.585,98.6079 36.585,96.3987L 36.585,68.6064C 36.585,66.3972 38.3759,64.6064 40.585,64.6064 Z "/>
	<linearGradient id="SVGID_Stroke3_" gradientUnits="objectBoundingBox" x1="0.5" y1="2.50634" x2="4.51269" y2="2.50634" gradientTransform="rotate(-90.000000 0.500000 2.506341)">
		<stop offset="0" stop-color="#87AF06" stop-opacity="1"/>
		<stop offset="1" stop-color="#AFD27B" stop-opacity="1"/>
	</linearGradient>
	<linearGradient id="SVGID_Fill4_" gradientUnits="objectBoundingBox" x1="0.5" y1="2.61845" x2="4.73691" y2="2.61845" gradientTransform="rotate(-90.000000 0.500000 2.618451)">
		<stop offset="0" stop-color="#F4F5F3" stop-opacity="1"/>
		<stop offset="1" stop-color="#B7BDB0" stop-opacity="1"/>
	</linearGradient>
	<path fill="url(#SVGID_Fill4_)" stroke-width="2" stroke-linejoin="round" stroke="url(#SVGID_Stroke3_)" d="M 41.085,106.051L 189.085,106.051C 191.294,106.051 193.085,107.842 193.085,110.051L 193.085,137.843C 193.085,140.052 191.294,141.843 189.085,141.843L 41.085,141.843C 38.8759,141.843 37.085,140.052 37.085,137.843L 37.085,110.051C 37.085,107.842 38.8759,106.051 41.085,106.051 Z "/>
	<linearGradient id="SVGID_Stroke4_" gradientUnits="objectBoundingBox" x1="0.5" y1="2.50634" x2="4.51269" y2="2.50634" gradientTransform="rotate(-90.000000 0.500000 2.506341)">
		<stop offset="0" stop-color="#87AF06" stop-opacity="1"/>
		<stop offset="1" stop-color="#AFD27B" stop-opacity="1"/>
	</linearGradient>
	<linearGradient id="SVGID_Fill5_" gradientUnits="objectBoundingBox" x1="0.5" y1="2.61845" x2="4.73691" y2="2.61845" gradientTransform="rotate(-90.000000 0.500000 2.618451)">
		<stop offset="0" stop-color="#F4F5F3" stop-opacity="1"/>
		<stop offset="1" stop-color="#E5F8C9" stop-opacity="1"/>
	</linearGradient>
	<path fill="url(#SVGID_Fill5_)" stroke-width="2" stroke-linejoin="round" stroke="url(#SVGID_Stroke4_)" d="M 41.4183,146.867L 189.418,146.867C 191.627,146.867 193.418,148.658 193.418,150.867L 193.418,178.659C 193.418,180.868 191.627,182.659 189.418,182.659L 41.4183,182.659C 39.2091,182.659 37.4183,180.868 37.4183,178.659L 37.4183,150.867C 37.4183,148.658 39.2091,146.867 41.4183,146.867 Z "/>
	<linearGradient id="SVGID_Stroke5_" gradientUnits="objectBoundingBox" x1="0.5" y1="2.50634" x2="4.51269" y2="2.50634" gradientTransform="rotate(-90.000000 0.500000 2.506341)">
		<stop offset="0" stop-color="#87AF06" stop-opacity="1"/>
		<stop offset="1" stop-color="#AFD27B" stop-opacity="1"/>
	</linearGradient>
	<linearGradient id="SVGID_Fill6_" gradientUnits="objectBoundingBox" x1="0.5" y1="2.61845" x2="4.73691" y2="2.61845" gradientTransform="rotate(-90.000000 0.500000 2.618451)">
		<stop offset="0" stop-color="#F4F5F3" stop-opacity="1"/>
		<stop offset="1" stop-color="#B7BDB0" stop-opacity="1"/>
	</linearGradient>
	<path fill="url(#SVGID_Fill6_)" stroke-width="2" stroke-linejoin="round" stroke="url(#SVGID_Stroke5_)" d="M 41.085,188.076L 189.085,188.076C 191.294,188.076 193.085,189.867 193.085,192.076L 193.085,219.868C 193.085,222.077 191.294,223.868 189.085,223.868L 41.085,223.868C 38.8759,223.868 37.085,222.077 37.085,219.868L 37.085,192.076C 37.085,189.867 38.8759,188.076 41.085,188.076 Z "/>
	<linearGradient id="SVGID_Stroke6_" gradientUnits="objectBoundingBox" x1="0.5" y1="2.51426" x2="4.52854" y2="2.51426" gradientTransform="rotate(-90.000000 0.500000 2.514261)">
		<stop offset="0" stop-color="#3F542A" stop-opacity="1"/>
		<stop offset="0.474419" stop-color="#D0D5CB" stop-opacity="1"/>
		<stop offset="1" stop-color="#0F1505" stop-opacity="1"/>
	</linearGradient>
	<linearGradient id="SVGID_Fill7_" gradientUnits="objectBoundingBox" x1="0.5" y1="2.7031" x2="4.90622" y2="2.7031" gradientTransform="rotate(-90.000000 0.500000 2.703097)">
		<stop offset="0" stop-color="#DAF5BF" stop-opacity="1"/>
		<stop offset="1" stop-color="#1D2314" stop-opacity="1"/>
	</linearGradient>
	<filter id="Filter_GaussianBlur1_" filterUnits="userSpaceOnUse">
		<feGaussianBlur stdDeviation="2.64567"/>
	</filter>
	<path fill="url(#SVGID_Fill7_)" stroke-linejoin="round" stroke="url(#SVGID_Stroke6_)" filter="url(#Filter_GaussianBlur1_)" d="M 52.4183,37.0352L 90.4183,37.0352C 91.5228,37.0352 92.4183,37.9307 92.4183,39.0352L 92.4183,45.7019C 92.4183,46.8064 91.5228,47.7019 90.4183,47.7019L 52.4183,47.7019C 51.3136,47.7019 50.4183,46.8064 50.4183,45.7019L 50.4183,39.0352C 50.4183,37.9307 51.3136,37.0352 52.4183,37.0352 Z "/>
	<linearGradient id="SVGID_Stroke7_" gradientUnits="objectBoundingBox" x1="0.5" y1="2.51428" x2="4.52854" y2="2.51428" gradientTransform="rotate(-90.000000 0.500000 2.514282)">
		<stop offset="0" stop-color="#3F542A" stop-opacity="1"/>
		<stop offset="0.474419" stop-color="#D0D5CB" stop-opacity="1"/>
		<stop offset="1" stop-color="#0F1505" stop-opacity="1"/>
	</linearGradient>
	<linearGradient id="SVGID_Fill8_" gradientUnits="objectBoundingBox" x1="0.5" y1="2.70312" x2="4.90622" y2="2.70312" gradientTransform="rotate(-90.000000 0.500000 2.703120)">
		<stop offset="0" stop-color="#DAF5BF" stop-opacity="1"/>
		<stop offset="1" stop-color="#1D2314" stop-opacity="1"/>
	</linearGradient>
	<filter id="Filter_GaussianBlur2_" filterUnits="userSpaceOnUse">
		<feGaussianBlur stdDeviation="3.02362"/>
	</filter>
	<path fill="url(#SVGID_Fill8_)" stroke-linejoin="round" stroke="url(#SVGID_Stroke7_)" filter="url(#Filter_GaussianBlur2_)" d="M 100.252,36.8267L 128.002,36.8267C 129.106,36.8267 130.002,37.7222 130.002,38.8267L 130.002,45.4934C 130.002,46.5979 129.106,47.4934 128.002,47.4934L 100.252,47.4934C 99.147,47.4934 98.2516,46.5979 98.2516,45.4934L 98.2516,38.8267C 98.2516,37.7222 99.147,36.8267 100.252,36.8267 Z "/>
	<linearGradient id="SVGID_Stroke8_" gradientUnits="objectBoundingBox" x1="0.5" y1="2.51429" x2="4.52863" y2="2.51429" gradientTransform="rotate(-90.000000 0.500000 2.514293)">
		<stop offset="0" stop-color="#3F542A" stop-opacity="1"/>
		<stop offset="0.474419" stop-color="#D0D5CB" stop-opacity="1"/>
		<stop offset="1" stop-color="#0F1505" stop-opacity="1"/>
	</linearGradient>
	<linearGradient id="SVGID_Fill9_" gradientUnits="objectBoundingBox" x1="0.5" y1="2.70314" x2="4.90632" y2="2.70314" gradientTransform="rotate(-90.000000 0.500000 2.703136)">
		<stop offset="0" stop-color="#DAF5BF" stop-opacity="1"/>
		<stop offset="1" stop-color="#1D2314" stop-opacity="1"/>
	</linearGradient>
	<filter id="Filter_GaussianBlur3_" filterUnits="userSpaceOnUse">
		<feGaussianBlur stdDeviation="3.02362"/>
	</filter>
	<path fill="url(#SVGID_Fill9_)" stroke-linejoin="round" stroke="url(#SVGID_Stroke8_)" filter="url(#Filter_GaussianBlur3_)" d="M 138.335,36.8687L 176.335,36.8687C 177.439,36.8687 178.335,37.7642 178.335,38.8687L 178.335,45.5352C 178.335,46.6396 177.439,47.5352 176.335,47.5352L 138.335,47.5352C 137.23,47.5352 136.335,46.6396 136.335,45.5352L 136.335,38.8687C 136.335,37.7642 137.23,36.8687 138.335,36.8687 Z "/>
	<linearGradient id="SVGID_Stroke9_" gradientUnits="objectBoundingBox" x1="0.5" y1="2.51426" x2="4.52854" y2="2.51426" gradientTransform="rotate(-90.000000 0.500000 2.514261)">
		<stop offset="0" stop-color="#3F542A" stop-opacity="1"/>
		<stop offset="0.474419" stop-color="#D0D5CB" stop-opacity="1"/>
		<stop offset="1" stop-color="#0F1505" stop-opacity="1"/>
	</linearGradient>
	<linearGradient id="SVGID_Fill10_" gradientUnits="objectBoundingBox" x1="0.5" y1="2.7031" x2="4.90622" y2="2.7031" gradientTransform="rotate(-90.000000 0.500000 2.703097)">
		<stop offset="0" stop-color="#DAF5BF" stop-opacity="1"/>
		<stop offset="1" stop-color="#1D2314" stop-opacity="1"/>
	</linearGradient>
	<filter id="Filter_GaussianBlur4_" filterUnits="userSpaceOnUse">
		<feGaussianBlur stdDeviation="2.64567"/>
	</filter>
	<path fill="url(#SVGID_Fill10_)" stroke-linejoin="round" stroke="url(#SVGID_Stroke9_)" filter="url(#Filter_GaussianBlur4_)" d="M 51.3408,118.566L 89.3408,118.566C 90.4453,118.566 91.3408,119.462 91.3408,120.566L 91.3408,127.233C 91.3408,128.338 90.4453,129.233 89.3408,129.233L 51.3408,129.233C 50.2362,129.233 49.3408,128.338 49.3408,127.233L 49.3408,120.566C 49.3408,119.462 50.2362,118.566 51.3408,118.566 Z "/>
	<linearGradient id="SVGID_Stroke10_" gradientUnits="objectBoundingBox" x1="0.5" y1="2.51428" x2="4.52854" y2="2.51428" gradientTransform="rotate(-90.000000 0.500000 2.514282)">
		<stop offset="0" stop-color="#3F542A" stop-opacity="1"/>
		<stop offset="0.474419" stop-color="#D0D5CB" stop-opacity="1"/>
		<stop offset="1" stop-color="#0F1505" stop-opacity="1"/>
	</linearGradient>
	<linearGradient id="SVGID_Fill11_" gradientUnits="objectBoundingBox" x1="0.5" y1="2.70312" x2="4.90622" y2="2.70312" gradientTransform="rotate(-90.000000 0.500000 2.703120)">
		<stop offset="0" stop-color="#DAF5BF" stop-opacity="1"/>
		<stop offset="1" stop-color="#1D2314" stop-opacity="1"/>
	</linearGradient>
	<filter id="Filter_GaussianBlur5_" filterUnits="userSpaceOnUse">
		<feGaussianBlur stdDeviation="3.02362"/>
	</filter>
	<path fill="url(#SVGID_Fill11_)" stroke-linejoin="round" stroke="url(#SVGID_Stroke10_)" filter="url(#Filter_GaussianBlur5_)" d="M 99.1742,118.358L 126.924,118.358C 128.029,118.358 128.924,119.253 128.924,120.358L 128.924,127.025C 128.924,128.129 128.029,129.025 126.924,129.025L 99.1742,129.025C 98.0695,129.025 97.1742,128.129 97.1742,127.025L 97.1742,120.358C 97.1742,119.253 98.0695,118.358 99.1742,118.358 Z "/>
	<linearGradient id="SVGID_Stroke11_" gradientUnits="objectBoundingBox" x1="0.5" y1="2.51429" x2="4.52863" y2="2.51429" gradientTransform="rotate(-90.000000 0.500000 2.514293)">
		<stop offset="0" stop-color="#3F542A" stop-opacity="1"/>
		<stop offset="0.474419" stop-color="#D0D5CB" stop-opacity="1"/>
		<stop offset="1" stop-color="#0F1505" stop-opacity="1"/>
	</linearGradient>
	<linearGradient id="SVGID_Fill12_" gradientUnits="objectBoundingBox" x1="0.5" y1="2.70314" x2="4.90632" y2="2.70314" gradientTransform="rotate(-90.000000 0.500000 2.703136)">
		<stop offset="0" stop-color="#DAF5BF" stop-opacity="1"/>
		<stop offset="1" stop-color="#1D2314" stop-opacity="1"/>
	</linearGradient>
	<filter id="Filter_GaussianBlur6_" filterUnits="userSpaceOnUse">
		<feGaussianBlur stdDeviation="3.02362"/>
	</filter>
	<path fill="url(#SVGID_Fill12_)" stroke-linejoin="round" stroke="url(#SVGID_Stroke11_)" filter="url(#Filter_GaussianBlur6_)" d="M 137.257,118.4L 175.257,118.4C 176.362,118.4 177.257,119.295 177.257,120.4L 177.257,127.066C 177.257,128.171 176.362,129.066 175.257,129.066L 137.257,129.066C 136.153,129.066 135.257,128.171 135.257,127.066L 135.257,120.4C 135.257,119.295 136.153,118.4 137.257,118.4 Z "/>
	<linearGradient id="SVGID_Stroke12_" gradientUnits="objectBoundingBox" x1="0.5" y1="2.51426" x2="4.52854" y2="2.51426" gradientTransform="rotate(-90.000000 0.500000 2.514261)">
		<stop offset="0" stop-color="#3F542A" stop-opacity="1"/>
		<stop offset="0.474419" stop-color="#D0D5CB" stop-opacity="1"/>
		<stop offset="1" stop-color="#0F1505" stop-opacity="1"/>
	</linearGradient>
	<linearGradient id="SVGID_Fill13_" gradientUnits="objectBoundingBox" x1="0.5" y1="2.7031" x2="4.90622" y2="2.7031" gradientTransform="rotate(-90.000000 0.500000 2.703097)">
		<stop offset="0" stop-color="#DAF5BF" stop-opacity="1"/>
		<stop offset="1" stop-color="#1D2314" stop-opacity="1"/>
	</linearGradient>
	<filter id="Filter_GaussianBlur7_" filterUnits="userSpaceOnUse">
		<feGaussianBlur stdDeviation="2.64567"/>
	</filter>
	<path fill="url(#SVGID_Fill13_)" stroke-linejoin="round" stroke="url(#SVGID_Stroke12_)" filter="url(#Filter_GaussianBlur7_)" d="M 52.3408,200.566L 90.3408,200.566C 91.4453,200.566 92.3408,201.462 92.3408,202.566L 92.3408,209.233C 92.3408,210.338 91.4453,211.233 90.3408,211.233L 52.3408,211.233C 51.2362,211.233 50.3408,210.338 50.3408,209.233L 50.3408,202.566C 50.3408,201.462 51.2362,200.566 52.3408,200.566 Z "/>
	<linearGradient id="SVGID_Stroke13_" gradientUnits="objectBoundingBox" x1="0.5" y1="2.51428" x2="4.52854" y2="2.51428" gradientTransform="rotate(-90.000000 0.500000 2.514282)">
		<stop offset="0" stop-color="#3F542A" stop-opacity="1"/>
		<stop offset="0.474419" stop-color="#D0D5CB" stop-opacity="1"/>
		<stop offset="1" stop-color="#0F1505" stop-opacity="1"/>
	</linearGradient>
	<linearGradient id="SVGID_Fill14_" gradientUnits="objectBoundingBox" x1="0.5" y1="2.70312" x2="4.90622" y2="2.70312" gradientTransform="rotate(-90.000000 0.500000 2.703120)">
		<stop offset="0" stop-color="#DAF5BF" stop-opacity="1"/>
		<stop offset="1" stop-color="#1D2314" stop-opacity="1"/>
	</linearGradient>
	<filter id="Filter_GaussianBlur8_" filterUnits="userSpaceOnUse">
		<feGaussianBlur stdDeviation="3.02362"/>
	</filter>
	<path fill="url(#SVGID_Fill14_)" stroke-linejoin="round" stroke="url(#SVGID_Stroke13_)" filter="url(#Filter_GaussianBlur8_)" d="M 100.174,200.358L 127.924,200.358C 129.029,200.358 129.924,201.253 129.924,202.358L 129.924,209.025C 129.924,210.129 129.029,211.025 127.924,211.025L 100.174,211.025C 99.0695,211.025 98.1742,210.129 98.1742,209.025L 98.1742,202.358C 98.1742,201.253 99.0695,200.358 100.174,200.358 Z "/>
	<linearGradient id="SVGID_Stroke14_" gradientUnits="objectBoundingBox" x1="0.5" y1="2.51429" x2="4.52863" y2="2.51429" gradientTransform="rotate(-90.000000 0.500000 2.514293)">
		<stop offset="0" stop-color="#3F542A" stop-opacity="1"/>
		<stop offset="0.474419" stop-color="#D0D5CB" stop-opacity="1"/>
		<stop offset="1" stop-color="#0F1505" stop-opacity="1"/>
	</linearGradient>
	<linearGradient id="SVGID_Fill15_" gradientUnits="objectBoundingBox" x1="0.5" y1="2.70314" x2="4.90632" y2="2.70314" gradientTransform="rotate(-90.000000 0.500000 2.703136)">
		<stop offset="0" stop-color="#DAF5BF" stop-opacity="1"/>
		<stop offset="1" stop-color="#1D2314" stop-opacity="1"/>
	</linearGradient>
	<filter id="Filter_GaussianBlur9_" filterUnits="userSpaceOnUse">
		<feGaussianBlur stdDeviation="3.02362"/>
	</filter>
	<path fill="url(#SVGID_Fill15_)" stroke-linejoin="round" stroke="url(#SVGID_Stroke14_)" filter="url(#Filter_GaussianBlur9_)" d="M 138.257,200.4L 176.257,200.4C 177.362,200.4 178.257,201.295 178.257,202.4L 178.257,209.066C 178.257,210.171 177.362,211.066 176.257,211.066L 138.257,211.066C 137.153,211.066 136.257,210.171 136.257,209.066L 136.257,202.4C 136.257,201.295 137.153,200.4 138.257,200.4 Z "/>
	<linearGradient id="SVGID_Stroke15_" gradientUnits="objectBoundingBox" x1="0.499999" y1="2.51425" x2="4.52863" y2="2.51425" gradientTransform="rotate(-90.000000 0.499999 2.514251)">
		<stop offset="0" stop-color="#3F542A" stop-opacity="1"/>
		<stop offset="0.474419" stop-color="#D0D5CB" stop-opacity="1"/>
		<stop offset="1" stop-color="#0F1505" stop-opacity="1"/>
	</linearGradient>
	<linearGradient id="SVGID_Fill16_" gradientUnits="objectBoundingBox" x1="0.499998" y1="2.70309" x2="4.90632" y2="2.70309" gradientTransform="rotate(-90.000000 0.499998 2.703090)">
		<stop offset="0" stop-color="#DAF5BF" stop-opacity="1"/>
		<stop offset="1" stop-color="#1D2314" stop-opacity="1"/>
	</linearGradient>
	<filter id="Filter_GaussianBlur10_" filterUnits="userSpaceOnUse">
		<feGaussianBlur stdDeviation="2.64567"/>
	</filter>
	<path fill="url(#SVGID_Fill16_)" stroke-linejoin="round" stroke="url(#SVGID_Stroke15_)" filter="url(#Filter_GaussianBlur10_)" d="M 73.3408,79.2339L 109.501,79.2339C 110.606,79.2339 111.501,80.1294 111.501,81.2339L 111.501,87.9004C 111.501,89.0049 110.606,89.9004 109.501,89.9004L 73.3408,89.9004C 72.2362,89.9004 71.3408,89.0049 71.3408,87.9004L 71.3408,81.2339C 71.3408,80.1294 72.2362,79.2339 73.3408,79.2339 Z "/>
	<linearGradient id="SVGID_Stroke16_" gradientUnits="objectBoundingBox" x1="0.500002" y1="2.51428" x2="4.52855" y2="2.51428" gradientTransform="rotate(-90.000000 0.500002 2.514282)">
		<stop offset="0" stop-color="#3F542A" stop-opacity="1"/>
		<stop offset="0.474419" stop-color="#D0D5CB" stop-opacity="1"/>
		<stop offset="1" stop-color="#0F1505" stop-opacity="1"/>
	</linearGradient>
	<linearGradient id="SVGID_Fill17_" gradientUnits="objectBoundingBox" x1="0.500002" y1="2.70312" x2="4.90622" y2="2.70312" gradientTransform="rotate(-90.000000 0.500002 2.703120)">
		<stop offset="0" stop-color="#DAF5BF" stop-opacity="1"/>
		<stop offset="1" stop-color="#1D2314" stop-opacity="1"/>
	</linearGradient>
	<filter id="Filter_GaussianBlur11_" filterUnits="userSpaceOnUse">
		<feGaussianBlur stdDeviation="3.02362"/>
	</filter>
	<path fill="url(#SVGID_Fill17_)" stroke-linejoin="round" stroke="url(#SVGID_Stroke16_)" filter="url(#Filter_GaussianBlur11_)" d="M 123.168,79.0244L 153.501,79.0244C 154.606,79.0244 155.501,79.9199 155.501,81.0244L 155.501,87.6912C 155.501,88.7957 154.606,89.6912 153.501,89.6912L 123.168,89.6912C 122.063,89.6912 121.168,88.7957 121.168,87.6912L 121.168,81.0244C 121.168,79.9199 122.063,79.0244 123.168,79.0244 Z "/>
	<linearGradient id="SVGID_Stroke17_" gradientUnits="objectBoundingBox" x1="0.500003" y1="2.51425" x2="4.52863" y2="2.51425" gradientTransform="rotate(-90.000000 0.500003 2.514251)">
		<stop offset="0" stop-color="#3F542A" stop-opacity="1"/>
		<stop offset="0.474419" stop-color="#D0D5CB" stop-opacity="1"/>
		<stop offset="1" stop-color="#0F1505" stop-opacity="1"/>
	</linearGradient>
	<linearGradient id="SVGID_Fill18_" gradientUnits="objectBoundingBox" x1="0.500003" y1="2.70309" x2="4.90632" y2="2.70309" gradientTransform="rotate(-90.000000 0.500003 2.703090)">
		<stop offset="0" stop-color="#DAF5BF" stop-opacity="1"/>
		<stop offset="1" stop-color="#1D2314" stop-opacity="1"/>
	</linearGradient>
	<filter id="Filter_GaussianBlur12_" filterUnits="userSpaceOnUse">
		<feGaussianBlur stdDeviation="3.02362"/>
	</filter>
	<path fill="url(#SVGID_Fill18_)" stroke-linejoin="round" stroke="url(#SVGID_Stroke17_)" filter="url(#Filter_GaussianBlur12_)" d="M 162.334,79.0671L 177.001,79.0671C 178.106,79.0671 179.001,79.9626 179.001,81.0671L 179.001,87.7336C 179.001,88.8381 178.106,89.7336 177.001,89.7336L 162.334,89.7336C 161.23,89.7336 160.334,88.8381 160.334,87.7336L 160.334,81.0671C 160.334,79.9626 161.23,79.0671 162.334,79.0671 Z "/>
	<linearGradient id="SVGID_Stroke18_" gradientUnits="objectBoundingBox" x1="0.5" y1="2.5143" x2="4.52854" y2="2.5143" gradientTransform="rotate(-90.000000 0.500000 2.514303)">
		<stop offset="0" stop-color="#3F542A" stop-opacity="1"/>
		<stop offset="0.474419" stop-color="#D0D5CB" stop-opacity="1"/>
		<stop offset="1" stop-color="#0F1505" stop-opacity="1"/>
	</linearGradient>
	<linearGradient id="SVGID_Fill19_" gradientUnits="objectBoundingBox" x1="0.5" y1="2.70314" x2="4.90622" y2="2.70314" gradientTransform="rotate(-90.000000 0.500000 2.703142)">
		<stop offset="0" stop-color="#DAF5BF" stop-opacity="1"/>
		<stop offset="1" stop-color="#1D2314" stop-opacity="1"/>
	</linearGradient>
	<filter id="Filter_GaussianBlur13_" filterUnits="userSpaceOnUse">
		<feGaussianBlur stdDeviation="3.02362"/>
	</filter>
	<path fill="url(#SVGID_Fill19_)" stroke-linejoin="round" stroke="url(#SVGID_Stroke18_)" filter="url(#Filter_GaussianBlur13_)" d="M 51.8966,79.4089L 64.5011,79.4089C 65.6056,79.4089 66.5011,80.3044 66.5011,81.4089L 66.5011,88.0757C 66.5011,89.1802 65.6056,90.0757 64.5011,90.0757L 51.8966,90.0757C 50.7921,90.0757 49.8966,89.1802 49.8966,88.0757L 49.8966,81.4089C 49.8966,80.3044 50.7921,79.4089 51.8966,79.4089 Z "/>
	<linearGradient id="SVGID_Stroke19_" gradientUnits="objectBoundingBox" x1="0.499997" y1="2.5142" x2="4.52854" y2="2.5142" gradientTransform="rotate(-90.000000 0.499997 2.514198)">
		<stop offset="0" stop-color="#3F542A" stop-opacity="1"/>
		<stop offset="0.474419" stop-color="#D0D5CB" stop-opacity="1"/>
		<stop offset="1" stop-color="#0F1505" stop-opacity="1"/>
	</linearGradient>
	<linearGradient id="SVGID_Fill20_" gradientUnits="objectBoundingBox" x1="0.499997" y1="2.70303" x2="4.90621" y2="2.70303" gradientTransform="rotate(-90.000000 0.499997 2.703028)">
		<stop offset="0" stop-color="#DAF5BF" stop-opacity="1"/>
		<stop offset="1" stop-color="#1D2314" stop-opacity="1"/>
	</linearGradient>
	<filter id="Filter_GaussianBlur14_" filterUnits="userSpaceOnUse">
		<feGaussianBlur stdDeviation="2.64567"/>
	</filter>
	<path fill="url(#SVGID_Fill20_)" stroke-linejoin="round" stroke="url(#SVGID_Stroke19_)" filter="url(#Filter_GaussianBlur14_)" d="M 73.2633,159.432L 109.424,159.432C 110.528,159.432 111.424,160.327 111.424,161.432L 111.424,168.098C 111.424,169.203 110.528,170.098 109.424,170.098L 73.2633,170.098C 72.1587,170.098 71.2633,169.203 71.2633,168.098L 71.2633,161.432C 71.2633,160.327 72.1587,159.432 73.2633,159.432 Z "/>
	<linearGradient id="SVGID_Stroke20_" gradientUnits="objectBoundingBox" x1="0.5" y1="2.51425" x2="4.52846" y2="2.51425" gradientTransform="rotate(-90.000000 0.500000 2.514251)">
		<stop offset="0" stop-color="#3F542A" stop-opacity="1"/>
		<stop offset="0.474419" stop-color="#D0D5CB" stop-opacity="1"/>
		<stop offset="1" stop-color="#0F1505" stop-opacity="1"/>
	</linearGradient>
	<linearGradient id="SVGID_Fill21_" gradientUnits="objectBoundingBox" x1="0.5" y1="2.70308" x2="4.90612" y2="2.70308" gradientTransform="rotate(-90.000000 0.500000 2.703081)">
		<stop offset="0" stop-color="#DAF5BF" stop-opacity="1"/>
		<stop offset="1" stop-color="#1D2314" stop-opacity="1"/>
	</linearGradient>
	<filter id="Filter_GaussianBlur15_" filterUnits="userSpaceOnUse">
		<feGaussianBlur stdDeviation="3.02362"/>
	</filter>
	<path fill="url(#SVGID_Fill21_)" stroke-linejoin="round" stroke="url(#SVGID_Stroke20_)" filter="url(#Filter_GaussianBlur15_)" d="M 123.09,159.222L 153.423,159.222C 154.528,159.222 155.423,160.118 155.423,161.222L 155.423,167.889C 155.423,168.994 154.528,169.889 153.423,169.889L 123.09,169.889C 121.986,169.889 121.09,168.994 121.09,167.889L 121.09,161.222C 121.09,160.118 121.986,159.222 123.09,159.222 Z "/>
	<linearGradient id="SVGID_Stroke21_" gradientUnits="objectBoundingBox" x1="0.5" y1="2.51425" x2="4.52863" y2="2.51425" gradientTransform="rotate(-90.000000 0.500000 2.514251)">
		<stop offset="0" stop-color="#3F542A" stop-opacity="1"/>
		<stop offset="0.474419" stop-color="#D0D5CB" stop-opacity="1"/>
		<stop offset="1" stop-color="#0F1505" stop-opacity="1"/>
	</linearGradient>
	<linearGradient id="SVGID_Fill22_" gradientUnits="objectBoundingBox" x1="0.5" y1="2.70309" x2="4.90632" y2="2.70309" gradientTransform="rotate(-90.000000 0.500000 2.703090)">
		<stop offset="0" stop-color="#DAF5BF" stop-opacity="1"/>
		<stop offset="1" stop-color="#1D2314" stop-opacity="1"/>
	</linearGradient>
	<filter id="Filter_GaussianBlur16_" filterUnits="userSpaceOnUse">
		<feGaussianBlur stdDeviation="3.02362"/>
	</filter>
	<path fill="url(#SVGID_Fill22_)" stroke-linejoin="round" stroke="url(#SVGID_Stroke21_)" filter="url(#Filter_GaussianBlur16_)" d="M 162.257,159.265L 176.924,159.265C 178.028,159.265 178.924,160.161 178.924,161.265L 178.924,167.932C 178.924,169.036 178.028,169.932 176.924,169.932L 162.257,169.932C 161.152,169.932 160.257,169.036 160.257,167.932L 160.257,161.265C 160.257,160.161 161.152,159.265 162.257,159.265 Z "/>
	<linearGradient id="SVGID_Stroke22_" gradientUnits="objectBoundingBox" x1="0.5" y1="2.51428" x2="4.52854" y2="2.51428" gradientTransform="rotate(-90.000000 0.500000 2.514282)">
		<stop offset="0" stop-color="#3F542A" stop-opacity="1"/>
		<stop offset="0.474419" stop-color="#D0D5CB" stop-opacity="1"/>
		<stop offset="1" stop-color="#0F1505" stop-opacity="1"/>
	</linearGradient>
	<linearGradient id="SVGID_Fill23_" gradientUnits="objectBoundingBox" x1="0.5" y1="2.70312" x2="4.90622" y2="2.70312" gradientTransform="rotate(-90.000000 0.500000 2.703120)">
		<stop offset="0" stop-color="#DAF5BF" stop-opacity="1"/>
		<stop offset="1" stop-color="#1D2314" stop-opacity="1"/>
	</linearGradient>
	<filter id="Filter_GaussianBlur17_" filterUnits="userSpaceOnUse">
		<feGaussianBlur stdDeviation="3.02362"/>
	</filter>
	<path fill="url(#SVGID_Fill23_)" stroke-linejoin="round" stroke="url(#SVGID_Stroke22_)" filter="url(#Filter_GaussianBlur17_)" d="M 51.8192,159.607L 64.4237,159.607C 65.5282,159.607 66.4237,160.502 66.4237,161.607L 66.4237,168.274C 66.4237,169.378 65.5282,170.274 64.4237,170.274L 51.8192,170.274C 50.7147,170.274 49.8192,169.378 49.8192,168.274L 49.8192,161.607C 49.8192,160.502 50.7147,159.607 51.8192,159.607 Z "/>
	<g>
		<g>
			<radialGradient id="SVGID_Fill24_" cx="186.37" cy="154.448" r="100.139" gradientUnits="userSpaceOnUse" gradientTransform="rotate(236.825485 186.370483 154.447754)">
				<stop offset="0" stop-color="#FFFFD6" stop-opacity="1"/>
				<stop offset="0.376744" stop-color="#FFFD31" stop-opacity="1"/>
				<stop offset="0.740593" stop-color="#FFC817" stop-opacity="1"/>
				<stop offset="1" stop-color="#F6A700" stop-opacity="1"/>
			</radialGradient>
			<path fill="url(#SVGID_Fill24_)" stroke-width="0.2" stroke-linejoin="round" d="M 101.345,176.189C 101.345,215.848 132.798,247.999 171.599,247.999L 171.599,247.999C 210.399,247.999 241.853,215.848 241.853,176.189L 241.853,176.189C 241.853,136.53 210.399,104.381 171.599,104.381L 171.599,104.381C 132.798,104.381 101.345,136.53 101.345,176.189 Z "/>
			<g>
				<radialGradient id="SVGID_Fill25_" cx="198.855" cy="129.284" r="23.0448" gradientUnits="userSpaceOnUse" gradientTransform="rotate(182.070816 198.855469 129.283691)">
					<stop offset="0" stop-color="#FFFFFB" stop-opacity="1"/>
					<stop offset="0.755398" stop-color="#FBFBFB" stop-opacity="1"/>
					<stop offset="1" stop-color="#B3B3B3" stop-opacity="1"/>
				</radialGradient>
				<path fill="url(#SVGID_Fill25_)" stroke-width="0.2" stroke-linejoin="round" d="M 182.47,135.391C 182.47,138.588 182.884,141.647 183.632,144.455L 183.632,144.455C 194.849,144.918 204.902,147.509 212.327,151.47L 212.327,151.47C 214.829,147.134 216.349,141.521 216.349,135.391L 216.349,135.391C 216.349,121.65 208.508,110.958 197.338,110.958L 197.338,110.958C 190.283,110.958 182.47,121.65 182.47,135.391 Z "/>
				<radialGradient id="SVGID_Fill26_" cx="147.657" cy="132.987" r="22.0408" gradientUnits="userSpaceOnUse" gradientTransform="rotate(175.394287 147.657349 132.986816)">
					<stop offset="0" stop-color="#FFFFFB" stop-opacity="1"/>
					<stop offset="0.755398" stop-color="#FBFBFB" stop-opacity="1"/>
					<stop offset="1" stop-color="#B3B3B3" stop-opacity="1"/>
				</radialGradient>
				<path fill="url(#SVGID_Fill26_)" stroke-width="0.2" stroke-linejoin="round" d="M 130.717,137.385C 130.717,143.515 132.237,149.128 134.739,153.464L 134.739,153.464C 142.165,149.503 152.218,146.913 163.434,146.449L 163.434,146.449C 164.182,143.641 164.596,140.582 164.596,137.385L 164.596,137.385C 164.596,123.645 158.36,114.422 152.657,112.953L 152.657,112.953C 151.541,112.666 150.438,112.529 149.358,112.529L 149.358,112.529C 139.057,112.527 130.717,124.949 130.717,137.385 Z "/>
				<path fill="#000000" fill-opacity="1" stroke-width="0.2" stroke-linejoin="round" d="M 204.224,145.795C 204.224,139.955 201.618,135.22 198.403,135.22C 195.215,135.22 192.624,139.881 192.584,145.659C 196.676,146.274 200.528,147.183 204.054,148.339C 204.165,147.524 204.224,146.672 204.224,145.795 Z "/>
				<radialGradient id="SVGID_Fill27_" cx="148.253" cy="138.949" r="12.9556" gradientUnits="userSpaceOnUse">
					<stop offset="0" stop-color="#B88000" stop-opacity="1"/>
					<stop offset="1" stop-color="#4F2F00" stop-opacity="1"/>
				</radialGradient>
				<path fill="url(#SVGID_Fill27_)" stroke-width="0.2" stroke-linejoin="round" d="M 143.596,126.712C 142.55,127.563 141.592,128.69 140.755,130.041C 138.558,133.583 137.184,138.661 137.184,144.305C 137.184,147.003 137.499,149.571 138.066,151.904C 139.591,151.238 141.2,150.624 142.885,150.066C 142.567,148.76 142.391,147.315 142.391,145.795C 142.391,139.955 144.997,135.22 148.211,135.22C 151.425,135.22 154.03,139.955 154.03,145.795C 154.03,146.348 154.007,146.891 153.962,147.421C 155.678,147.15 157.438,146.932 159.234,146.769C 159.292,145.962 159.322,145.14 159.322,144.305C 159.322,137.381 157.261,131.298 154.142,127.868C 153.4,127.417 152.634,127.042 151.846,126.75C 150.513,126.254 149.117,125.993 147.675,125.993C 146.272,125.993 144.9,126.24 143.596,126.712 Z "/>
				<radialGradient id="SVGID_Fill28_" cx="198.832" cy="138.182" r="12.1887" gradientUnits="userSpaceOnUse">
					<stop offset="0" stop-color="#B88000" stop-opacity="1"/>
					<stop offset="1" stop-color="#4F2F00" stop-opacity="1"/>
				</radialGradient>
				<path fill="url(#SVGID_Fill28_)" stroke-width="0.2" stroke-linejoin="round" d="M 192.943,127.867C 189.824,131.298 187.763,137.38 187.763,144.305C 187.763,144.565 187.766,144.825 187.771,145.082C 189.407,145.229 191.013,145.423 192.584,145.659C 192.624,139.881 195.215,135.22 198.403,135.22C 201.618,135.22 204.224,139.955 204.224,145.795C 204.224,146.672 204.165,147.524 204.054,148.339C 205.914,148.95 207.683,149.629 209.349,150.371C 209.707,148.463 209.901,146.424 209.901,144.305C 209.901,136.509 207.278,129.792 203.488,126.712C 202.185,126.24 200.813,125.993 199.41,125.993C 197.115,125.993 194.938,126.654 192.943,127.867 Z "/>
				<path fill="#000000" fill-opacity="1" stroke-width="0.2" stroke-linejoin="round" d="M 153.962,147.421C 154.007,146.891 154.03,146.348 154.03,145.795C 154.03,139.955 151.425,135.22 148.211,135.22C 144.997,135.22 142.391,139.955 142.391,145.795C 142.391,147.315 142.567,148.76 142.885,150.066C 146.295,148.938 150.014,148.042 153.962,147.421 Z "/>
				<linearGradient id="SVGID_Fill29_" gradientUnits="objectBoundingBox" x1="0.625435" y1="0.014702" x2="1.68319" y2="0.014702" gradientTransform="rotate(95.144028 0.625435 0.014702)">
					<stop offset="0" stop-color="#FFFFFF" stop-opacity="0.388235"/>
					<stop offset="1" stop-color="#000000" stop-opacity="0.388235"/>
				</linearGradient>
				<path fill="url(#SVGID_Fill29_)" stroke-width="0.2" stroke-linejoin="round" d="M 156.291,137.942C 156.291,143.046 153.923,147.183 151,147.183C 148.078,147.183 145.709,143.046 145.709,137.942C 145.709,132.838 148.078,128.7 151,128.7C 153.923,128.7 156.291,132.838 156.291,137.942 Z "/>
				<linearGradient id="SVGID_Fill30_" gradientUnits="objectBoundingBox" x1="0.613358" y1="0.0483462" x2="1.57975" y2="0.0483462" gradientTransform="rotate(94.996719 0.613358 0.048346)">
					<stop offset="0" stop-color="#FFFFFF" stop-opacity="0.388235"/>
					<stop offset="1" stop-color="#000000" stop-opacity="0.388235"/>
				</linearGradient>
				<path fill="url(#SVGID_Fill30_)" stroke-width="0.2" stroke-linejoin="round" d="M 195.791,138.245C 195.791,143.349 198.16,147.486 201.082,147.486C 204.004,147.486 206.373,143.349 206.373,138.245C 206.373,133.141 204.004,129.003 201.082,129.003C 198.16,129.003 195.791,133.141 195.791,138.245 Z "/>
				<radialGradient id="SVGID_Fill31_" cx="155.584" cy="136.759" r="10.0095" gradientUnits="userSpaceOnUse">
					<stop offset="0" stop-color="#B88000" stop-opacity="1"/>
					<stop offset="1" stop-color="#4F2F00" stop-opacity="1"/>
				</radialGradient>
				<path fill="url(#SVGID_Fill31_)" stroke-width="0.2" stroke-linejoin="round" d="M 159.323,144.305C 159.323,137.38 157.261,131.298 154.142,127.867C 153.4,127.417 152.634,127.042 151.846,126.75C 152.634,127.042 153.4,127.417 154.142,127.868C 157.261,131.298 159.322,137.381 159.322,144.305C 159.322,145.14 159.292,145.962 159.234,146.769C 159.293,145.962 159.323,145.14 159.323,144.305 Z "/>
				<radialGradient id="SVGID_Fill32_" cx="142.175" cy="128.377" r="1.66431" gradientUnits="userSpaceOnUse">
					<stop offset="0" stop-color="#B88000" stop-opacity="1"/>
					<stop offset="1" stop-color="#4F2F00" stop-opacity="1"/>
				</radialGradient>
				<path fill="url(#SVGID_Fill32_)" stroke-width="0.2" stroke-linejoin="round" d="M 143.596,126.712C 142.55,127.563 141.592,128.69 140.755,130.041C 141.592,128.69 142.55,127.563 143.596,126.712 Z "/>
				<radialGradient id="SVGID_Fill33_" cx="147.721" cy="126.371" r="4.12488" gradientUnits="userSpaceOnUse">
					<stop offset="0" stop-color="#FFFFFB" stop-opacity="1"/>
					<stop offset="0.755398" stop-color="#FBFBFB" stop-opacity="1"/>
					<stop offset="1" stop-color="#B3B3B3" stop-opacity="1"/>
				</radialGradient>
				<path fill="url(#SVGID_Fill33_)" stroke-width="0.2" stroke-linejoin="round" d="M 143.596,126.712C 144.9,126.24 146.272,125.993 147.675,125.993C 149.117,125.993 150.513,126.254 151.846,126.75C 150.513,126.254 149.117,125.993 147.675,125.993C 146.271,125.993 144.9,126.24 143.596,126.712 Z "/>
				<radialGradient id="SVGID_Fill34_" cx="138.969" cy="140.973" r="10.9316" gradientUnits="userSpaceOnUse">
					<stop offset="0" stop-color="#B88000" stop-opacity="1"/>
					<stop offset="1" stop-color="#4F2F00" stop-opacity="1"/>
				</radialGradient>
				<path fill="url(#SVGID_Fill34_)" stroke-width="0.2" stroke-linejoin="round" d="M 138.066,151.904C 137.499,149.571 137.184,147.003 137.184,144.305C 137.184,138.661 138.558,133.583 140.755,130.041C 138.558,133.583 137.184,138.661 137.184,144.305C 137.184,147.003 137.498,149.571 138.066,151.904 Z "/>
			</g>
			<radialGradient id="SVGID_Fill35_" cx="193.302" cy="146.5" r="100.134" gradientUnits="userSpaceOnUse" gradientTransform="rotate(236.779892 193.301758 146.499512)">
				<stop offset="0" stop-color="#FFFFD6" stop-opacity="1"/>
				<stop offset="0.376744" stop-color="#FFFD31" stop-opacity="1"/>
				<stop offset="0.740593" stop-color="#FFC817" stop-opacity="1"/>
				<stop offset="1" stop-color="#F6A700" stop-opacity="1"/>
			</radialGradient>
			<path fill="url(#SVGID_Fill35_)" stroke-width="0.2" stroke-linejoin="round" d="M 171.615,104.815C 132.814,104.815 101.361,136.965 101.361,176.624C 101.361,216.282 132.814,248.433 171.615,248.433C 210.415,248.433 241.869,216.282 241.869,176.624C 241.869,136.965 210.415,104.815 171.615,104.815 Z M 121.826,155.608C 121.826,139.742 143.297,126.879 169.782,126.879C 196.267,126.879 217.738,139.742 217.738,155.608C 217.738,171.475 196.267,184.338 169.782,184.338C 143.297,184.338 121.826,171.475 121.826,155.608 Z "/>
			<path fill="#643D00" fill-opacity="1" stroke-width="7.224" stroke-linecap="round" stroke-linejoin="round" stroke="#653D00" stroke-opacity="1" d="M 160.974,112.869C 160.974,112.869 133.4,119.718 122.66,143.375C 126.471,115.521 160.974,112.869 160.974,112.869 Z "/>
			<path fill="#643D00" fill-opacity="1" stroke-width="7.224" stroke-linecap="round" stroke-linejoin="round" stroke="#653D00" stroke-opacity="1" d="M 188.287,115.808C 188.287,115.808 213.101,122.229 223.01,146.314C 215.666,119.102 188.287,115.808 188.287,115.808 Z "/>
			<radialGradient id="SVGID_Fill36_" cx="172.266" cy="201.88" r="61.5277" gradientUnits="userSpaceOnUse" gradientTransform="rotate(77.728523 172.266479 201.879883)">
				<stop offset="0" stop-color="#9E1F01" stop-opacity="1"/>
				<stop offset="0.943965" stop-color="#180906" stop-opacity="1"/>
			</radialGradient>
			<path fill="url(#SVGID_Fill36_)" stroke-width="4" stroke-linejoin="round" stroke="#D98004" stroke-opacity="1" d="M 129.925,166.341C 128.973,170.174 129.393,180.439 130.261,187.502C 131.129,194.564 132.444,198.424 134.275,201.982C 136.105,205.541 138.45,208.798 142.553,211.554C 146.657,214.311 152.52,216.565 159.554,217.693C 166.589,218.82 174.796,218.82 181.978,217.317C 189.159,215.814 195.315,212.807 200.444,208.923C 205.574,205.04 209.677,200.279 212.315,195.644C 214.953,191.009 216.126,186.499 216.511,181.597C 216.897,176.696 216.496,171.403 215.837,168.24C 215.178,165.076 214.262,164.043 212.56,164.184C 210.858,164.325 208.37,165.64 206.631,166.721C 204.892,167.802 203.903,168.647 198.819,169.751C 193.735,170.855 184.557,172.218 178.455,172.891C 172.353,173.564 169.327,173.548 165.762,173.603C 162.197,173.658 158.094,173.783 152.964,172.812C 147.835,171.841 141.679,169.774 137.44,167.441C 133.2,165.108 130.877,162.508 129.925,166.341 Z "/>
			<radialGradient id="SVGID_Fill37_" cx="164.008" cy="208.73" r="21.6852" gradientUnits="userSpaceOnUse">
				<stop offset="0" stop-color="#F1EBEA" stop-opacity="1"/>
				<stop offset="0.0818966" stop-color="#F77F7F" stop-opacity="1"/>
				<stop offset="0.280172" stop-color="#FD1414" stop-opacity="1"/>
				<stop offset="0.521552" stop-color="#FF0000" stop-opacity="1"/>
				<stop offset="0.722198" stop-color="#BA0C01" stop-opacity="1"/>
				<stop offset="0.943965" stop-color="#751803" stop-opacity="1"/>
			</radialGradient>
			<path fill="url(#SVGID_Fill37_)" stroke-width="0.2" stroke-linejoin="round" d="M 170.239,195.612C 177.887,195.612 184.086,200.311 184.086,206.107C 184.086,211.903 177.887,216.602 170.239,216.602C 162.591,216.602 156.392,211.903 156.392,206.107C 156.392,200.311 162.591,195.612 170.239,195.612 Z "/>
			<radialGradient id="SVGID_Fill38_" cx="173.297" cy="187.571" r="48.1274" gradientUnits="userSpaceOnUse">
				<stop offset="0" stop-color="#F8F6F2" stop-opacity="1"/>
				<stop offset="0.646512" stop-color="#F0EEEA" stop-opacity="1"/>
				<stop offset="1" stop-color="#999A9D" stop-opacity="1"/>
			</radialGradient>
			<path fill="url(#SVGID_Fill38_)" stroke-width="0.2" stroke-linejoin="round" d="M 131.944,167.53C 132.448,170.538 134.416,177.368 140.157,183.666C 145.897,189.963 155.41,195.728 163.581,198.401C 171.751,201.073 178.578,200.654 185.903,197.295C 193.228,193.937 201.051,187.64 206.294,181.095C 211.536,174.549 214.198,167.755 213.269,165.837C 212.34,163.918 207.82,166.876 201.221,169.188C 194.622,171.5 185.943,173.167 177.124,174.052C 168.305,174.938 159.345,175.043 152.028,173.596C 144.71,172.15 139.036,169.151 135.718,167.245C 132.401,165.338 131.44,164.523 131.944,167.53 Z "/>
			<path fill="#D98004" fill-opacity="1" stroke-width="3" stroke-linecap="round" stroke-linejoin="round" stroke="#D98004" stroke-opacity="1" d="M 140.068,159.521C 140.068,159.521 128.259,161.803 123.659,169.687C 125.292,160.405 140.068,159.521 140.068,159.521 Z "/>
			<path fill="#D98004" fill-opacity="1" stroke-width="3" stroke-linecap="round" stroke-linejoin="round" stroke="#D98004" stroke-opacity="1" d="M 222.413,171.71C 222.413,171.71 216.172,161.128 207.392,159.477C 216.393,157.773 222.413,171.71 222.413,171.71 Z "/>
		</g>
		<g>
			<radialGradient id="SVGID_Fill39_" cx="178.891" cy="143.201" r="107.807" gradientUnits="userSpaceOnUse">
				<stop offset="0" stop-color="#969AD9" stop-opacity="1"/>
				<stop offset="0.378049" stop-color="#323CE7" stop-opacity="1"/>
				<stop offset="0.740593" stop-color="#131ECB" stop-opacity="1"/>
				<stop offset="1" stop-color="#0803BD" stop-opacity="1"/>
			</radialGradient>
			<path fill="url(#SVGID_Fill39_)" stroke-width="0.2" stroke-linecap="round" stroke-linejoin="round" d="M 169.245,104.256L 169.245,248.079C 169.602,248.084 169.96,248.087 170.318,248.087C 209.85,248.087 241.897,215.887 241.897,176.167C 241.897,136.447 209.85,104.248 170.318,104.248C 169.96,104.248 169.602,104.251 169.245,104.256 Z "/>
			<path fill="#643D00" fill-opacity="1" stroke-width="7.224" stroke-linecap="round" stroke-linejoin="round" stroke="#653D00" stroke-opacity="1" d="M 184.001,100.098C 184.001,100.098 209.284,106.529 219.38,130.651C 211.896,103.398 184.001,100.098 184.001,100.098 Z "/>
			<radialGradient id="SVGID_Fill40_" cx="194.571" cy="141.31" r="23.0802" gradientUnits="userSpaceOnUse" gradientTransform="rotate(182.070938 194.570801 141.309814)">
				<stop offset="0" stop-color="#FFFFFB" stop-opacity="1"/>
				<stop offset="0.755398" stop-color="#FBFBFB" stop-opacity="1"/>
				<stop offset="1" stop-color="#B3B3B3" stop-opacity="1"/>
			</radialGradient>
			<path fill="url(#SVGID_Fill40_)" stroke-width="0.2" stroke-linejoin="round" d="M 177.876,147.427C 177.876,150.628 178.298,153.692 179.06,156.504L 179.06,156.504C 190.488,156.969 200.731,159.563 208.296,163.531L 208.296,163.531C 210.846,159.188 212.394,153.566 212.394,147.427L 212.394,147.427C 212.394,133.665 204.405,122.957 193.024,122.957L 193.024,122.957C 185.836,122.957 177.876,133.665 177.876,147.427 Z "/>
			<radialGradient id="SVGID_Fill41_" cx="189.515" cy="140.974" r="29.8233" gradientUnits="userSpaceOnUse" gradientTransform="rotate(-80.475426 189.515015 140.973633)">
				<stop offset="0" stop-color="#B88000" stop-opacity="1"/>
				<stop offset="1" stop-color="#4F2F00" stop-opacity="1"/>
			</radialGradient>
			<path fill="url(#SVGID_Fill41_)" stroke-width="0.2" stroke-linejoin="round" d="M 188.537,124.398C 185.359,127.834 183.259,133.925 183.259,140.861L 183.259,140.861C 183.259,147.867 185.417,154.003 188.65,157.418L 188.65,157.418C 191.873,157.914 194.957,158.601 197.841,159.428L 197.841,159.428C 202.461,156.998 205.815,149.607 205.815,140.861L 205.815,140.861C 205.815,133.053 203.144,126.326 199.282,123.241L 199.282,123.241C 197.954,122.769 196.556,122.521 195.127,122.521L 195.127,122.521C 192.788,122.521 190.571,123.183 188.537,124.398 Z "/>
			<path fill="#000000" fill-opacity="1" stroke-width="0.2" stroke-linejoin="round" d="M 188.171,142.354C 188.171,148.203 190.827,152.945 194.101,152.945C 197.376,152.945 200.031,148.203 200.031,142.354C 200.031,136.504 197.376,131.762 194.101,131.762C 190.827,131.762 188.171,136.504 188.171,142.354 Z "/>
			<linearGradient id="SVGID_Fill42_" gradientUnits="objectBoundingBox" x1="0.613364" y1="0.0483382" x2="1.57976" y2="0.0483382" gradientTransform="rotate(94.997101 0.613364 0.048338)">
				<stop offset="0" stop-color="#FFFFFF" stop-opacity="0.388235"/>
				<stop offset="1" stop-color="#000000" stop-opacity="0.388235"/>
			</linearGradient>
			<path fill="url(#SVGID_Fill42_)" stroke-width="0.2" stroke-linejoin="round" d="M 191.439,134.792C 191.439,139.903 193.853,144.047 196.83,144.047C 199.807,144.047 202.221,139.903 202.221,134.792C 202.221,129.68 199.807,125.536 196.83,125.536C 193.853,125.536 191.439,129.68 191.439,134.792 Z "/>
			<path fill="#FE0C0C" fill-opacity="1" stroke-width="4" stroke-linecap="round" stroke-linejoin="round" stroke="#D98004" stroke-opacity="1" d="M 173.546,180.573C 175.158,178.035 177.604,174.99 180.105,172.887C 182.606,170.784 185.163,169.624 187.775,169.551C 190.388,169.479 193.056,170.494 194.945,172.234C 196.835,173.975 197.947,176.44 198.114,177.89C 198.28,179.34 197.502,179.775 196.724,179.05C 195.946,178.325 195.168,176.44 193.556,174.99C 191.944,173.54 189.498,172.524 186.552,173.757C 183.606,174.99 180.16,178.47 178.048,181.226C 175.936,183.981 175.158,186.012 174.102,186.882C 173.046,187.752 171.712,187.462 171.434,186.302C 171.156,185.141 171.934,183.111 173.546,180.573 Z "/>
			<linearGradient id="SVGID_Fill43_" gradientUnits="objectBoundingBox" x1="1.03978" y1="0.500381" x2="2.10273" y2="0.500381" gradientTransform="rotate(180.000000 1.039781 0.500381)">
				<stop offset="0.506977" stop-color="#E7E8EE" stop-opacity="1"/>
				<stop offset="1" stop-color="#4D5793" stop-opacity="1"/>
			</linearGradient>
			<path fill="url(#SVGID_Fill43_)" stroke-linecap="round" stroke-linejoin="round" stroke="#A9ADC9" stroke-opacity="1" d="M 221.026,191.093C 223.34,190.727 226.232,190.434 228.762,190.947C 231.293,191.459 233.462,192.778 236.011,194.407C 238.56,196.037 241.489,197.977 243.93,199.908C 246.37,201.84 248.322,203.763 249.515,205.109C 250.708,206.455 251.142,207.224 251.345,207.801C 251.549,208.378 251.522,208.763 250.776,209.037C 250.03,209.312 248.566,209.477 247.061,209.147C 245.557,208.818 244.011,207.993 242.244,207.161C 240.477,206.328 238.488,205.487 237.403,205.579C 236.319,205.67 236.139,206.694 236.41,208.012C 236.682,209.331 237.404,210.942 238.692,213.172C 239.98,215.402 241.833,218.25 243.492,221.166C 245.15,224.083 246.614,227.068 246.628,229.014C 246.641,230.96 245.204,231.866 243.401,230.488C 241.598,229.11 239.429,225.447 237.771,222.521C 236.112,219.596 234.964,217.407 234.065,216.459C 233.166,215.512 232.515,215.805 232.804,216.977C 233.093,218.149 234.323,220.2 235.479,222.618C 236.636,225.035 237.721,227.819 238.367,230.012C 239.013,232.205 239.221,233.808 238.95,234.897C 238.679,235.987 237.929,236.564 237.061,236.051C 236.193,235.539 235.208,233.936 233.703,231.01C 232.199,228.084 230.174,223.835 229.162,221.711C 228.15,219.586 228.15,219.586 227.974,219.738C 227.797,219.889 227.445,220.191 227.703,221.771C 227.96,223.35 228.828,226.207 229.257,228.986C 229.686,231.766 229.677,234.467 229.383,236.147C 229.09,237.828 228.511,238.487 227.752,238.341C 226.993,238.194 226.053,237.242 225.258,235.294C 224.463,233.347 223.813,230.404 222.539,227.752C 221.265,225.099 219.367,222.737 218.187,221.129C 217.008,219.522 216.547,218.671 215.67,217.441C 214.792,216.212 213.499,214.604 212.545,212.775C 211.591,210.945 210.977,208.892 210.76,207.134C 210.544,205.376 210.724,203.912 211.537,201.495C 212.35,199.078 213.796,195.708 215.387,193.804C 216.977,191.899 218.712,191.459 221.026,191.093 Z "/>
			<filter id="Filter_GaussianBlur18_" filterUnits="userSpaceOnUse">
				<feGaussianBlur stdDeviation="2.83465"/>
			</filter>
			<path fill="none" stroke-width="4" stroke-linecap="round" stroke-linejoin="round" stroke="#16171F" stroke-opacity="1" filter="url(#Filter_GaussianBlur18_)" d="M 213.022,200.952L 211.558,205.402L 213.51,211.995L 218.065,217.929L 223.271,223.533L 225.223,228.808L 226.362,235.072"/>
			<filter id="Filter_GaussianBlur19_" filterUnits="userSpaceOnUse">
				<feGaussianBlur stdDeviation="2.4567"/>
			</filter>
			<path fill="none" stroke-width="3" stroke-linecap="round" stroke-linejoin="round" stroke="#16171F" stroke-opacity="1" filter="url(#Filter_GaussianBlur19_)" d="M 229.127,217.929L 230.429,221.226L 234.171,228.313L 236.611,233.918"/>
			<filter id="Filter_GaussianBlur20_" filterUnits="userSpaceOnUse">
				<feGaussianBlur stdDeviation="2.4567"/>
			</filter>
			<path fill="none" stroke-width="3" stroke-linecap="round" stroke-linejoin="round" stroke="#16171F" stroke-opacity="1" filter="url(#Filter_GaussianBlur20_)" d="M 234.659,214.715L 237.75,219.165L 241.491,225.264L 243.932,229.55"/>
			<filter id="Filter_GaussianBlur21_" filterUnits="userSpaceOnUse">
				<feGaussianBlur stdDeviation="2.83465"/>
			</filter>
			<path fill="none" stroke-width="5" stroke-linecap="round" stroke-linejoin="round" stroke="#16171F" stroke-opacity="1" filter="url(#Filter_GaussianBlur21_)" d="M 237.912,203.506L 242.142,205.32L 247.022,207.627L 248.975,207.627"/>
		</g>
	</g>
</svg>
