<svg enable-background="new 0 0 257.00 257.00" height="257" viewBox="0 0 257 257" width="257" xmlns="http://www.w3.org/2000/svg" xmlns:xlink="http://www.w3.org/1999/xlink"><linearGradient id="a" gradientTransform="matrix(.549295109989 .835628435456 -.835628435456 .549295109989 .216917360268 -.081915166947)" gradientUnits="objectBoundingBox" x1=".184396" x2="1.11201" y1=".16013" y2=".16013"><stop offset="0" stop-color="#b7c0b8"/><stop offset="1" stop-color="#fff"/></linearGradient><linearGradient id="b"><stop offset="0" stop-color="#87af06"/><stop offset="1" stop-color="#afd27b"/></linearGradient><linearGradient id="c" gradientTransform="matrix(0 -1 1 0 -2.006341 3.006341)" gradientUnits="objectBoundingBox" x1=".5" x2="4.51269" xlink:href="#b" y1="2.50634" y2="2.50634"/><linearGradient id="d" gradientTransform="matrix(0 -1 1 0 -2.118451 3.118451)" gradientUnits="objectBoundingBox" x1=".5" x2="4.73691" y1="2.61845" y2="2.61845"><stop offset="0" stop-color="#f4f5f3"/><stop offset="1" stop-color="#b7bdb0"/></linearGradient><linearGradient id="e" gradientTransform="matrix(0 -1 1 0 -2.006324 3.006324)" gradientUnits="objectBoundingBox" x1=".5" x2="4.51266" xlink:href="#b" y1="2.50632" y2="2.50632"/><linearGradient id="f"><stop offset="0" stop-color="#f4f5f3"/><stop offset="1" stop-color="#e5f8c9"/></linearGradient><linearGradient id="g" gradientTransform="matrix(0 -1 1 0 -2.118433 3.118433)" gradientUnits="objectBoundingBox" x1=".5" x2="4.73688" xlink:href="#f" y1="2.61843" y2="2.61843"/><linearGradient id="h" gradientTransform="matrix(0 -1 1 0 -2.118451 3.118451)" gradientUnits="objectBoundingBox" x1=".5" x2="4.73691" xlink:href="#f" y1="2.61845" y2="2.61845"/><linearGradient id="i"><stop offset="0" stop-color="#3f542a"/><stop offset=".474419" stop-color="#d0d5cb"/><stop offset="1" stop-color="#0f1505"/></linearGradient><linearGradient id="j" gradientTransform="matrix(0 -1 1 0 -2.014261 3.014261)" gradientUnits="objectBoundingBox" x1=".5" x2="4.52854" xlink:href="#i" y1="2.51426" y2="2.51426"/><linearGradient id="k"><stop offset="0" stop-color="#daf5bf"/><stop offset="1" stop-color="#1d2314"/></linearGradient><linearGradient id="l" gradientTransform="matrix(0 -1 1 0 -2.203097 3.203097)" gradientUnits="objectBoundingBox" x1=".5" x2="4.90622" xlink:href="#k" y1="2.7031" y2="2.7031"/><filter id="m" filterUnits="userSpaceOnUse"><feGaussianBlur stdDeviation="2.64567"/></filter><linearGradient id="n" gradientTransform="matrix(0 -1 1 0 -2.014282 3.014282)" gradientUnits="objectBoundingBox" x1=".5" x2="4.52854" xlink:href="#i" y1="2.51428" y2="2.51428"/><linearGradient id="o" gradientTransform="matrix(0 -1 1 0 -2.20312 3.20312)" gradientUnits="objectBoundingBox" x1=".5" x2="4.90622" xlink:href="#k" y1="2.70312" y2="2.70312"/><filter id="p" filterUnits="userSpaceOnUse"><feGaussianBlur stdDeviation="3.02362"/></filter><linearGradient id="q" gradientTransform="matrix(0 -1 1 0 -2.014293 3.014293)" gradientUnits="objectBoundingBox" x1=".5" x2="4.52863" xlink:href="#i" y1="2.51429" y2="2.51429"/><linearGradient id="r" gradientTransform="matrix(0 -1 1 0 -2.203136 3.203136)" gradientUnits="objectBoundingBox" x1=".5" x2="4.90632" xlink:href="#k" y1="2.70314" y2="2.70314"/><linearGradient id="s" gradientTransform="matrix(0 -1 1 0 -2.014252 3.01425)" gradientUnits="objectBoundingBox" x1=".499999" x2="4.52863" xlink:href="#i" y1="2.51425" y2="2.51425"/><linearGradient id="t" gradientTransform="matrix(0 -1 1 0 -2.203092 3.203088)" gradientUnits="objectBoundingBox" x1=".499998" x2="4.90632" xlink:href="#k" y1="2.70309" y2="2.70309"/><linearGradient id="u" gradientTransform="matrix(0 -1 1 0 -2.01428 3.014284)" gradientUnits="objectBoundingBox" x1=".500002" x2="4.52855" xlink:href="#i" y1="2.51428" y2="2.51428"/><linearGradient id="v" gradientTransform="matrix(0 -1 1 0 -2.203118 3.203122)" gradientUnits="objectBoundingBox" x1=".500002" x2="4.90622" xlink:href="#k" y1="2.70312" y2="2.70312"/><linearGradient id="w" gradientTransform="matrix(0 -1 1 0 -2.014248 3.014254)" gradientUnits="objectBoundingBox" x1=".500003" x2="4.52863" xlink:href="#i" y1="2.51425" y2="2.51425"/><linearGradient id="x" gradientTransform="matrix(0 -1 1 0 -2.203087 3.203093)" gradientUnits="objectBoundingBox" x1=".500003" x2="4.90632" xlink:href="#k" y1="2.70309" y2="2.70309"/><linearGradient id="y" gradientTransform="matrix(0 -1 1 0 -2.014303 3.014303)" gradientUnits="objectBoundingBox" x1=".5" x2="4.52854" xlink:href="#i" y1="2.5143" y2="2.5143"/><linearGradient id="z" gradientTransform="matrix(0 -1 1 0 -2.203142 3.203142)" gradientUnits="objectBoundingBox" x1=".5" x2="4.90622" xlink:href="#k" y1="2.70314" y2="2.70314"/><linearGradient id="A" gradientTransform="matrix(0 -1 1 0 -2.014201 3.014195)" gradientUnits="objectBoundingBox" x1=".499997" x2="4.52854" xlink:href="#i" y1="2.5142" y2="2.5142"/><linearGradient id="B" gradientTransform="matrix(0 -1 1 0 -2.203031 3.203025)" gradientUnits="objectBoundingBox" x1=".499997" x2="4.90621" xlink:href="#k" y1="2.70303" y2="2.70303"/><linearGradient id="C" gradientTransform="matrix(0 -1 1 0 -2.014251 3.014251)" gradientUnits="objectBoundingBox" x1=".5" x2="4.52846" xlink:href="#i" y1="2.51425" y2="2.51425"/><linearGradient id="D" gradientTransform="matrix(0 -1 1 0 -2.203081 3.203081)" gradientUnits="objectBoundingBox" x1=".5" x2="4.90612" xlink:href="#k" y1="2.70308" y2="2.70308"/><linearGradient id="E" gradientTransform="matrix(0 -1 1 0 -2.014251 3.014251)" gradientUnits="objectBoundingBox" x1=".5" x2="4.52863" xlink:href="#i" y1="2.51425" y2="2.51425"/><linearGradient id="F" gradientTransform="matrix(0 -1 1 0 -2.20309 3.20309)" gradientUnits="objectBoundingBox" x1=".5" x2="4.90632" xlink:href="#k" y1="2.70309" y2="2.70309"/><linearGradient id="G"><stop offset="0" stop-color="#ffffd6"/><stop offset=".376744" stop-color="#fffd31"/><stop offset=".740593" stop-color="#ffc817"/><stop offset="1" stop-color="#f6a700"/></linearGradient><radialGradient id="H" cx="186.37" cy="154.448" gradientTransform="matrix(-.547190978949 -.837007785243 .837007785243 -.547190978949 159.076757528588 394.953716918155)" gradientUnits="userSpaceOnUse" r="100.139" xlink:href="#G"/><linearGradient id="I"><stop offset="0" stop-color="#fffffb"/><stop offset=".755398" stop-color="#fbfbfb"/><stop offset="1" stop-color="#b3b3b3"/></linearGradient><radialGradient id="J" cx="198.855" cy="129.284" gradientTransform="matrix(-.999346928868 -.036134689173 .036134689173 -.999346928868 392.909445244322 265.668531116347)" gradientUnits="userSpaceOnUse" r="23.0448" xlink:href="#I"/><radialGradient id="K" cx="147.657" cy="132.987" gradientTransform="matrix(-.996770876813 .08029831341 -.08029831341 -.996770876813 305.516511261253 253.687565101656)" gradientUnits="userSpaceOnUse" r="22.0408" xlink:href="#I"/><linearGradient id="L"><stop offset="0" stop-color="#b88000"/><stop offset="1" stop-color="#4f2f00"/></linearGradient><radialGradient id="M" cx="148.253" cy="138.949" gradientUnits="userSpaceOnUse" r="12.9556" xlink:href="#L"/><radialGradient id="N" cx="198.832" cy="138.182" gradientUnits="userSpaceOnUse" r="12.1887" xlink:href="#L"/><linearGradient id="O"><stop offset="0" stop-color="#fff" stop-opacity=".388235"/><stop offset="1" stop-opacity=".388235"/></linearGradient><linearGradient id="P" gradientTransform="matrix(-.08965966193 .99597246198 -.99597246198 -.08965966193 .696154077795 -.606895860409)" gradientUnits="objectBoundingBox" x1=".625435" x2="1.68319" xlink:href="#O" y1=".014702" y2=".014702"/><linearGradient id="Q" gradientTransform="matrix(-.08709869626 .996199687367 -.996199687367 -.08709869626 .714942952226 -.558470174275)" gradientUnits="objectBoundingBox" x1=".613358" x2="1.57975" xlink:href="#O" y1=".0483462" y2=".0483462"/><radialGradient id="R" cx="155.584" cy="136.759" gradientUnits="userSpaceOnUse" r="10.0095" xlink:href="#L"/><radialGradient id="S" cx="142.175" cy="128.377" gradientUnits="userSpaceOnUse" r="1.66431" xlink:href="#L"/><radialGradient id="T" cx="147.721" cy="126.371" gradientUnits="userSpaceOnUse" r="4.12488" xlink:href="#I"/><radialGradient id="U" cx="138.969" cy="140.973" gradientUnits="userSpaceOnUse" r="10.9316" xlink:href="#L"/><radialGradient id="V" cx="193.302" cy="146.5" gradientTransform="matrix(-.547856852876 -.836572094178 .836572094178 -.547856852876 176.646047243444 388.471130090475)" gradientUnits="userSpaceOnUse" r="100.134" xlink:href="#G"/><radialGradient id="W" cx="172.266" cy="201.88" gradientTransform="matrix(.212543966814 .977151504206 -.977151504206 .212543966814 332.919509546626 -9.358917231719)" gradientUnits="userSpaceOnUse" r="61.5277"><stop offset="0" stop-color="#9e1f01"/><stop offset=".943965" stop-color="#180906"/></radialGradient><radialGradient id="X" cx="164.008" cy="208.73" gradientUnits="userSpaceOnUse" r="21.6852"><stop offset="0" stop-color="#f1ebea"/><stop offset=".0818966" stop-color="#f77f7f"/><stop offset=".280172" stop-color="#fd1414"/><stop offset=".521552" stop-color="#f00"/><stop offset=".722198" stop-color="#ba0c01"/><stop offset=".943965" stop-color="#751803"/></radialGradient><radialGradient id="Y" cx="173.297" cy="187.571" gradientUnits="userSpaceOnUse" r="48.1274"><stop offset="0" stop-color="#f8f6f2"/><stop offset=".646512" stop-color="#f0eeea"/><stop offset="1" stop-color="#999a9d"/></radialGradient><radialGradient id="Z" cx="178.891" cy="143.201" gradientUnits="userSpaceOnUse" r="107.807"><stop offset="0" stop-color="#969ad9"/><stop offset=".378049" stop-color="#323ce7"/><stop offset=".740593" stop-color="#131ecb"/><stop offset="1" stop-color="#0803bd"/></radialGradient><radialGradient id="aa" cx="194.571" cy="141.31" gradientTransform="matrix(-.999346851924 -.036136817084 .036136817084 -.999346851924 383.908031554985 289.558501212617)" gradientUnits="userSpaceOnUse" r="23.0802" xlink:href="#I"/><radialGradient id="ab" cx="189.515" cy="140.974" gradientTransform="matrix(.16547060581 -.986214722367 .986214722367 .16547060581 19.125578327675 304.549138446741)" gradientUnits="userSpaceOnUse" r="29.8233" xlink:href="#L"/><linearGradient id="ac" gradientTransform="matrix(-.087105338078 .996199106644 -.996199106644 -.087105338078 .714945551002 -.558484171016)" gradientUnits="objectBoundingBox" x1=".613364" x2="1.57976" xlink:href="#O" y1=".0483382" y2=".0483382"/><linearGradient id="ad" gradientTransform="matrix(-1 0 0 -1 2.079562 1.000762)" gradientUnits="objectBoundingBox" x1="1.03978" x2="2.10273" y1=".500381" y2=".500381"><stop offset=".506977" stop-color="#e7e8ee"/><stop offset="1" stop-color="#4d5793"/></linearGradient><filter id="ae" filterUnits="userSpaceOnUse"><feGaussianBlur stdDeviation="2.83465"/></filter><filter id="af" filterUnits="userSpaceOnUse"><feGaussianBlur stdDeviation="2.4567"/></filter><g stroke-linejoin="round"><path d="m19.085 6.86841h190c2.209 0 4 1.79077 4 3.99999v227.3336c0 2.209-1.791 4-4 4h-190c-2.2091 0-4-1.791-4-4v-227.3336c0-2.20922 1.7909-3.99999 4-3.99999z" fill="url(#a)" stroke="#036400" stroke-width="5"/><path d="m40.585 23.8687h148c2.209 0 4 1.7907 4 4v27.7922c0 2.2092-1.791 4-4 4h-148c-2.2091 0-4-1.7908-4-4v-27.7922c0-2.2093 1.7909-4 4-4z" fill="url(#d)" stroke="url(#c)" stroke-width="2"/><path d="m40.585 64.6064h148c2.209 0 4 1.7908 4 4v27.7923c0 2.2092-1.791 4.0003-4 4.0003h-148c-2.2091 0-4-1.7911-4-4.0003v-27.7923c0-2.2092 1.7909-4 4-4z" fill="url(#g)" stroke="url(#e)" stroke-width="2"/><path d="m41.085 106.051h148c2.209 0 4 1.791 4 4v27.792c0 2.209-1.791 4-4 4h-148c-2.2091 0-4-1.791-4-4v-27.792c0-2.209 1.7909-4 4-4z" fill="url(#d)" stroke="url(#c)" stroke-width="2"/><path d="m41.4183 146.867h147.9997c2.209 0 4 1.791 4 4v27.792c0 2.209-1.791 4-4 4h-147.9997c-2.2092 0-4-1.791-4-4v-27.792c0-2.209 1.7908-4 4-4z" fill="url(#h)" stroke="url(#c)" stroke-width="2"/><path d="m41.085 188.076h148c2.209 0 4 1.791 4 4v27.792c0 2.209-1.791 4-4 4h-148c-2.2091 0-4-1.791-4-4v-27.792c0-2.209 1.7909-4 4-4z" fill="url(#d)" stroke="url(#c)" stroke-width="2"/><path d="m52.4183 37.0352h38c1.1045 0 2 .8955 2 2v6.6667c0 1.1045-.8955 2-2 2h-38c-1.1047 0-2-.8955-2-2v-6.6667c0-1.1045.8953-2 2-2z" fill="url(#l)" filter="url(#m)" stroke="url(#j)"/><path d="m100.252 36.8267h27.75c1.104 0 2 .8955 2 2v6.6667c0 1.1045-.896 2-2 2h-27.75c-1.105 0-2.0004-.8955-2.0004-2v-6.6667c0-1.1045.8954-2 2.0004-2z" fill="url(#o)" filter="url(#p)" stroke="url(#n)"/><path d="m138.335 36.8687h38c1.104 0 2 .8955 2 2v6.6665c0 1.1044-.896 2-2 2h-38c-1.105 0-2-.8956-2-2v-6.6665c0-1.1045.895-2 2-2z" fill="url(#r)" filter="url(#p)" stroke="url(#q)"/><path d="m51.3408 118.566h38c1.1045 0 2 .896 2 2v6.667c0 1.105-.8955 2-2 2h-38c-1.1046 0-2-.895-2-2v-6.667c0-1.104.8954-2 2-2z" fill="url(#l)" filter="url(#m)" stroke="url(#j)"/><path d="m99.1742 118.358h27.7498c1.105 0 2 .895 2 2v6.667c0 1.104-.895 2-2 2h-27.7498c-1.1047 0-2-.896-2-2v-6.667c0-1.105.8953-2 2-2z" fill="url(#o)" filter="url(#p)" stroke="url(#n)"/><path d="m137.257 118.4h38c1.105 0 2 .895 2 2v6.666c0 1.105-.895 2-2 2h-38c-1.104 0-2-.895-2-2v-6.666c0-1.105.896-2 2-2z" fill="url(#r)" filter="url(#p)" stroke="url(#q)"/><path d="m52.3408 200.566h38c1.1045 0 2 .896 2 2v6.667c0 1.105-.8955 2-2 2h-38c-1.1046 0-2-.895-2-2v-6.667c0-1.104.8954-2 2-2z" fill="url(#l)" filter="url(#m)" stroke="url(#j)"/><path d="m100.174 200.358h27.75c1.105 0 2 .895 2 2v6.667c0 1.104-.895 2-2 2h-27.75c-1.1045 0-1.9998-.896-1.9998-2v-6.667c0-1.105.8953-2 1.9998-2z" fill="url(#o)" filter="url(#p)" stroke="url(#n)"/><path d="m138.257 200.4h38c1.105 0 2 .895 2 2v6.666c0 1.105-.895 2-2 2h-38c-1.104 0-2-.895-2-2v-6.666c0-1.105.896-2 2-2z" fill="url(#r)" filter="url(#p)" stroke="url(#q)"/><path d="m73.3408 79.2339h36.1602c1.105 0 2 .8955 2 2v6.6665c0 1.1045-.895 2-2 2h-36.1602c-1.1046 0-2-.8955-2-2v-6.6665c0-1.1045.8954-2 2-2z" fill="url(#t)" filter="url(#m)" stroke="url(#s)"/><path d="m123.168 79.0244h30.333c1.105 0 2 .8955 2 2v6.6668c0 1.1045-.895 2-2 2h-30.333c-1.105 0-2-.8955-2-2v-6.6668c0-1.1045.895-2 2-2z" fill="url(#v)" filter="url(#p)" stroke="url(#u)"/><path d="m162.334 79.0671h14.667c1.105 0 2 .8955 2 2v6.6665c0 1.1045-.895 2-2 2h-14.667c-1.104 0-2-.8955-2-2v-6.6665c0-1.1045.896-2 2-2z" fill="url(#x)" filter="url(#p)" stroke="url(#w)"/><path d="m51.8966 79.4089h12.6045c1.1045 0 2 .8955 2 2v6.6668c0 1.1045-.8955 2-2 2h-12.6045c-1.1045 0-2-.8955-2-2v-6.6668c0-1.1045.8955-2 2-2z" fill="url(#z)" filter="url(#p)" stroke="url(#y)"/><path d="m73.2633 159.432h36.1607c1.104 0 2 .895 2 2v6.666c0 1.105-.896 2-2 2h-36.1607c-1.1046 0-2-.895-2-2v-6.666c0-1.105.8954-2 2-2z" fill="url(#B)" filter="url(#m)" stroke="url(#A)"/><path d="m123.09 159.222h30.333c1.105 0 2 .896 2 2v6.667c0 1.105-.895 2-2 2h-30.333c-1.104 0-2-.895-2-2v-6.667c0-1.104.896-2 2-2z" fill="url(#D)" filter="url(#p)" stroke="url(#C)"/><path d="m162.257 159.265h14.667c1.104 0 2 .896 2 2v6.667c0 1.104-.896 2-2 2h-14.667c-1.105 0-2-.896-2-2v-6.667c0-1.104.895-2 2-2z" fill="url(#F)" filter="url(#p)" stroke="url(#E)"/><path d="m51.8192 159.607h12.6045c1.1045 0 2 .895 2 2v6.667c0 1.104-.8955 2-2 2h-12.6045c-1.1045 0-2-.896-2-2v-6.667c0-1.105.8955-2 2-2z" fill="url(#o)" filter="url(#p)" stroke="url(#n)"/><g stroke-width=".2"><path d="m101.345 176.189c0 39.659 31.453 71.81 70.254 71.81l0 0c38.8 0 70.254-32.151 70.254-71.81l0 0c0-39.659-31.454-71.808-70.254-71.808l0 0c-38.801 0-70.254 32.149-70.254 71.808z" fill="url(#H)"/><path d="m182.47 135.391c0 3.197.414 6.256 1.162 9.064l0 0c11.217.463 21.27 3.054 28.695 7.015l0 0c2.502-4.336 4.022-9.949 4.022-16.079l0 0c0-13.741-7.841-24.433-19.011-24.433l0 0c-7.055 0-14.868 10.692-14.868 24.433z" fill="url(#J)"/><path d="m130.717 137.385c0 6.13 1.52 11.743 4.022 16.079l0 0c7.426-3.961 17.479-6.551 28.695-7.015l0 0c .748-2.808 1.162-5.867 1.162-9.064l0 0c0-13.74-6.236-22.963-11.939-24.432l0 0c-1.116-.287-2.219-.424-3.299-.424l0 0c-10.301-.002-18.641 12.42-18.641 24.856z" fill="url(#K)"/><path d="m204.224 145.795c0-5.84-2.606-10.575-5.821-10.575-3.188 0-5.779 4.661-5.819 10.439 4.092.615 7.944 1.524 11.47 2.68.111-.815.17-1.667.17-2.544z"/><path d="m143.596 126.712c-1.046.851-2.004 1.978-2.841 3.329-2.197 3.542-3.571 8.62-3.571 14.264 0 2.698.315 5.266.882 7.599 1.525-.666 3.134-1.28 4.819-1.838-.318-1.306-.494-2.751-.494-4.271 0-5.84 2.606-10.575 5.82-10.575s5.819 4.735 5.819 10.575c0 .553-.023 1.096-.068 1.626 1.716-.271 3.476-.489 5.272-.652.058-.807.088-1.629.088-2.464 0-6.924-2.061-13.007-5.18-16.437-.742-.451-1.508-.826-2.296-1.118-1.333-.496-2.729-.757-4.171-.757-1.403 0-2.775.247-4.079.719z" fill="url(#M)"/><path d="m192.943 127.867c-3.119 3.431-5.18 9.513-5.18 16.438 0 .26.003.52.008.777 1.636.147 3.242.341 4.813.577.04-5.778 2.631-10.439 5.819-10.439 3.215 0 5.821 4.735 5.821 10.575 0 .877-.059 1.729-.17 2.544 1.86.611 3.629 1.29 5.295 2.032.358-1.908.552-3.947.552-6.066 0-7.796-2.623-14.513-6.413-17.593-1.303-.472-2.675-.719-4.078-.719-2.295 0-4.472.661-6.467 1.874z" fill="url(#N)"/><path d="m153.962 147.421c.045-.53.068-1.073.068-1.626 0-5.84-2.605-10.575-5.819-10.575s-5.82 4.735-5.82 10.575c0 1.52.176 2.965.494 4.271 3.41-1.128 7.129-2.024 11.077-2.645z"/><path d="m156.291 137.942c0 5.104-2.368 9.241-5.291 9.241-2.922 0-5.291-4.137-5.291-9.241s2.369-9.242 5.291-9.242c2.923 0 5.291 4.138 5.291 9.242z" fill="url(#P)"/><path d="m195.791 138.245c0 5.104 2.369 9.241 5.291 9.241s5.291-4.137 5.291-9.241-2.369-9.242-5.291-9.242-5.291 4.138-5.291 9.242z" fill="url(#Q)"/><path d="m159.323 144.305c0-6.925-2.062-13.007-5.181-16.438-.742-.45-1.508-.825-2.296-1.117.788.292 1.554.667 2.296 1.118 3.119 3.43 5.18 9.513 5.18 16.437 0 .835-.03 1.657-.088 2.464.059-.807.089-1.629.089-2.464z" fill="url(#R)"/><path d="m143.596 126.712c-1.046.851-2.004 1.978-2.841 3.329.837-1.351 1.795-2.478 2.841-3.329z" fill="url(#S)"/><path d="m143.596 126.712c1.304-.472 2.676-.719 4.079-.719 1.442 0 2.838.261 4.171.757-1.333-.496-2.729-.757-4.171-.757-1.404 0-2.775.247-4.079.719z" fill="url(#T)"/><path d="m138.066 151.904c-.567-2.333-.882-4.901-.882-7.599 0-5.644 1.374-10.722 3.571-14.264-2.197 3.542-3.571 8.62-3.571 14.264 0 2.698.314 5.266.882 7.599z" fill="url(#U)"/><path d="m171.615 104.815c-38.801 0-70.254 32.15-70.254 71.809 0 39.658 31.453 71.809 70.254 71.809 38.8 0 70.254-32.151 70.254-71.809 0-39.659-31.454-71.809-70.254-71.809zm-49.789 50.793c0-15.866 21.471-28.729 47.956-28.729s47.956 12.863 47.956 28.729c0 15.867-21.471 28.73-47.956 28.73s-47.956-12.863-47.956-28.73z" fill="url(#V)"/></g><path d="m160.974 112.869s-27.574 6.849-38.314 30.506c3.811-27.854 38.314-30.506 38.314-30.506z" fill="#643d00" stroke="#653d00" stroke-linecap="round" stroke-width="7.224"/><path d="m188.287 115.808s24.814 6.421 34.723 30.506c-7.344-27.212-34.723-30.506-34.723-30.506z" fill="#643d00" stroke="#653d00" stroke-linecap="round" stroke-width="7.224"/><path d="m129.925 166.341c-.952 3.833-.532 14.098.336 21.161.868 7.062 2.183 10.922 4.014 14.48 1.83 3.559 4.175 6.816 8.278 9.572 4.104 2.757 9.967 5.011 17.001 6.139 7.035 1.127 15.242 1.127 22.424-.376 7.181-1.503 13.337-4.51 18.466-8.394 5.13-3.883 9.233-8.644 11.871-13.279s3.811-9.145 4.196-14.047c.386-4.901-.015-10.194-.674-13.357-.659-3.164-1.575-4.197-3.277-4.056s-4.19 1.456-5.929 2.537-2.728 1.926-7.812 3.03-14.262 2.467-20.364 3.14-9.128.657-12.693.712-7.668.18-12.798-.791c-5.129-.971-11.285-3.038-15.524-5.371-4.24-2.333-6.563-4.933-7.515-1.1z" fill="url(#W)" stroke="#d98004" stroke-width="4"/><path d="m170.239 195.612c7.648 0 13.847 4.699 13.847 10.495s-6.199 10.495-13.847 10.495-13.847-4.699-13.847-10.495 6.199-10.495 13.847-10.495z" fill="url(#X)" stroke-width=".2"/><path d="m131.944 167.53c.504 3.008 2.472 9.838 8.213 16.136 5.74 6.297 15.253 12.062 23.424 14.735 8.17 2.672 14.997 2.253 22.322-1.106 7.325-3.358 15.148-9.655 20.391-16.2 5.242-6.546 7.904-13.34 6.975-15.258-.929-1.919-5.449 1.039-12.048 3.351s-15.278 3.979-24.097 4.864c-8.819.886-17.779.991-25.096-.456-7.318-1.446-12.992-4.445-16.31-6.351-3.317-1.907-4.278-2.722-3.774.285z" fill="url(#Y)" stroke-width=".2"/><path d="m140.068 159.521s-11.809 2.282-16.409 10.166c1.633-9.282 16.409-10.166 16.409-10.166z" fill="#d98004" stroke="#d98004" stroke-linecap="round" stroke-width="3"/><path d="m222.413 171.71s-6.241-10.582-15.021-12.233c9.001-1.704 15.021 12.233 15.021 12.233z" fill="#d98004" stroke="#d98004" stroke-linecap="round" stroke-width="3"/><path d="m169.245 104.256v143.823c.357.005.715.008 1.073.008 39.532 0 71.579-32.2 71.579-71.92s-32.047-71.919-71.579-71.919c-.358 0-.716.003-1.073.008z" fill="url(#Z)" stroke-linecap="round" stroke-width=".2"/><path d="m184.001 100.098s25.283 6.431 35.379 30.553c-7.484-27.253-35.379-30.553-35.379-30.553z" fill="#643d00" stroke="#653d00" stroke-linecap="round" stroke-width="7.224"/><path d="m177.876 147.427c0 3.201.422 6.265 1.184 9.077l0 0c11.428.465 21.671 3.059 29.236 7.027l0 0c2.55-4.343 4.098-9.965 4.098-16.104l0 0c0-13.762-7.989-24.47-19.37-24.47l0 0c-7.188 0-15.148 10.708-15.148 24.47z" fill="url(#aa)" stroke-width=".2"/><path d="m188.537 124.398c-3.178 3.436-5.278 9.527-5.278 16.463l0 0c0 7.006 2.158 13.142 5.391 16.557l0 0c3.223.496 6.307 1.183 9.191 2.01l0 0c4.62-2.43 7.974-9.821 7.974-18.567l0 0c0-7.808-2.671-14.535-6.533-17.62l0 0c-1.328-.472-2.726-.72-4.155-.72l0 0c-2.339 0-4.556.662-6.59 1.877z" fill="url(#ab)" stroke-width=".2"/><path d="m188.171 142.354c0 5.849 2.656 10.591 5.93 10.591 3.275 0 5.93-4.742 5.93-10.591 0-5.85-2.655-10.592-5.93-10.592-3.274 0-5.93 4.742-5.93 10.592z" stroke-width=".2"/><path d="m191.439 134.792c0 5.111 2.414 9.255 5.391 9.255s5.391-4.144 5.391-9.255c0-5.112-2.414-9.256-5.391-9.256s-5.391 4.144-5.391 9.256z" fill="url(#ac)" stroke-width=".2"/><path d="m173.546 180.573c1.612-2.538 4.058-5.583 6.559-7.686s5.058-3.263 7.67-3.336c2.613-.072 5.281.943 7.17 2.683 1.89 1.741 3.002 4.206 3.169 5.656.166 1.45-.612 1.885-1.39 1.16s-1.556-2.61-3.168-4.06-4.058-2.466-7.004-1.233-6.392 4.713-8.504 7.469c-2.112 2.755-2.89 4.786-3.946 5.656s-2.39.58-2.668-.58c-.278-1.161.5-3.191 2.112-5.729z" fill="#fe0c0c" stroke="#d98004" stroke-linecap="round" stroke-width="4"/><path d="m221.026 191.093c2.314-.366 5.206-.659 7.736-.146 2.531.512 4.7 1.831 7.249 3.46 2.549 1.63 5.478 3.57 7.919 5.501 2.44 1.932 4.392 3.855 5.585 5.201s1.627 2.115 1.83 2.692c.204.577.177.962-.569 1.236-.746.275-2.21.44-3.715.11-1.504-.329-3.05-1.154-4.817-1.986-1.767-.833-3.756-1.674-4.841-1.582-1.084.091-1.264 1.115-.993 2.433.272 1.319.994 2.93 2.282 5.16s3.141 5.078 4.8 7.994c1.658 2.917 3.122 5.902 3.136 7.848.013 1.946-1.424 2.852-3.227 1.474s-3.972-5.041-5.63-7.967c-1.659-2.925-2.807-5.114-3.706-6.062-.899-.947-1.55-.654-1.261.518s1.519 3.223 2.675 5.641c1.157 2.417 2.242 5.201 2.888 7.394s.854 3.796.583 4.885c-.271 1.09-1.021 1.667-1.889 1.154-.868-.512-1.853-2.115-3.358-5.041-1.504-2.926-3.529-7.175-4.541-9.299-1.012-2.125-1.012-2.125-1.188-1.973-.177.151-.529.453-.271 2.033.257 1.579 1.125 4.436 1.554 7.215.429 2.78.42 5.481.126 7.161-.293 1.681-.872 2.34-1.631 2.194-.759-.147-1.699-1.099-2.494-3.047-.795-1.947-1.445-4.89-2.719-7.542-1.274-2.653-3.172-5.015-4.352-6.623-1.179-1.607-1.64-2.458-2.517-3.688-.878-1.229-2.171-2.837-3.125-4.666-.954-1.83-1.568-3.883-1.785-5.641-.216-1.758-.036-3.222.777-5.639s2.259-5.787 3.85-7.691c1.59-1.905 3.325-2.345 5.639-2.711z" fill="url(#ad)" stroke="#a9adc9" stroke-linecap="round"/><path d="m213.022 200.952-1.464 4.45 1.952 6.593 4.555 5.934 5.206 5.604 1.952 5.275 1.139 6.264" fill="none" filter="url(#ae)" stroke="#16171f" stroke-linecap="round" stroke-width="4"/><path d="m229.127 217.929 1.302 3.297 3.742 7.087 2.44 5.605" fill="none" filter="url(#af)" stroke="#16171f" stroke-linecap="round" stroke-width="3"/><path d="m234.659 214.715 3.091 4.45 3.741 6.099 2.441 4.286" fill="none" filter="url(#af)" stroke="#16171f" stroke-linecap="round" stroke-width="3"/><path d="m237.912 203.506 4.23 1.814 4.88 2.307h1.953" fill="none" filter="url(#ae)" stroke="#16171f" stroke-linecap="round" stroke-width="5"/></g></svg>