<?xml version="1.0" encoding="utf-8"?>
<!DOCTYPE svg PUBLIC "-//W3C//DTD SVG 1.1//EN" "http://www.w3.org/Graphics/SVG/1.1/DTD/svg11.dtd">
<svg xmlns="http://www.w3.org/2000/svg" xmlns:xlink="http://www.w3.org/1999/xlink" version="1.1" baseProfile="full" width="257" height="257" viewBox="0 0 257.00 257.00" enable-background="new 0 0 257.00 257.00" xml:space="preserve">
	<g>
		<radialGradient id="SVGID_Fill1_" cx="126.819" cy="225.177" r="120.827" gradientUnits="userSpaceOnUse" gradientTransform="rotate(180.000000 126.818604 225.177002)">
			<stop offset="0" stop-color="#A8A162" stop-opacity="1"/>
			<stop offset="1" stop-color="#000000" stop-opacity="1"/>
		</radialGradient>
		<filter id="Filter_GaussianBlur1_" filterUnits="userSpaceOnUse">
			<feGaussianBlur stdDeviation="7.937"/>
		</filter>
		<path fill="url(#SVGID_Fill1_)" stroke-width="0.2" stroke-linejoin="round" filter="url(#Filter_GaussianBlur1_)" d="M 35.1121,224.333C 35.1121,236.991 76.1704,247.628 126.82,248.096L 126.82,248.096C 177.467,248.561 218.527,238.678 218.527,226.022L 218.527,226.022C 218.527,213.365 177.467,202.728 126.82,202.261L 126.82,202.261C 125.67,202.251 124.525,202.245 123.385,202.245L 123.385,202.245C 74.3267,202.245 35.1121,211.963 35.1121,224.333 Z "/>
		<g>
			<radialGradient id="SVGID_Fill2_" cx="147.572" cy="94.9321" r="151.881" gradientUnits="userSpaceOnUse" gradientTransform="rotate(236.825470 147.572021 94.932129)">
				<stop offset="0" stop-color="#FFFFD6" stop-opacity="1"/>
				<stop offset="0.376744" stop-color="#FFFD31" stop-opacity="1"/>
				<stop offset="0.740593" stop-color="#FFC817" stop-opacity="1"/>
				<stop offset="1" stop-color="#F6A700" stop-opacity="1"/>
			</radialGradient>
			<path fill="url(#SVGID_Fill2_)" stroke-width="0.2" stroke-linejoin="round" d="M 16.9087,127.908C 16.9087,188.059 65.2444,236.822 124.872,236.822L 124.872,236.822C 184.498,236.822 232.834,188.059 232.834,127.908L 232.834,127.908C 232.834,67.7568 184.498,18.9956 124.872,18.9956L 124.872,18.9956C 65.2444,18.9956 16.9087,67.7568 16.9087,127.908 Z "/>
			<g>
				<radialGradient id="SVGID_Fill3_" cx="166.759" cy="56.7664" r="34.9522" gradientUnits="userSpaceOnUse" gradientTransform="rotate(182.071487 166.758545 56.766357)">
					<stop offset="0" stop-color="#FFFFFB" stop-opacity="1"/>
					<stop offset="0.755398" stop-color="#FBFBFB" stop-opacity="1"/>
					<stop offset="1" stop-color="#B3B3B3" stop-opacity="1"/>
				</radialGradient>
				<path fill="url(#SVGID_Fill3_)" stroke-width="0.2" stroke-linejoin="round" d="M 141.578,66.0298C 141.578,70.8779 142.214,75.5176 143.363,79.7764L 143.363,79.7764C 160.6,80.4795 176.051,84.4087 187.46,90.417L 187.46,90.417C 191.306,83.8398 193.642,75.3271 193.642,66.0298L 193.642,66.0298C 193.642,45.1892 181.591,28.9727 164.426,28.9727L 164.426,28.9727C 153.584,28.9727 141.578,45.1892 141.578,66.0298 Z "/>
				<radialGradient id="SVGID_Fill4_" cx="88.0793" cy="62.3828" r="33.4294" gradientUnits="userSpaceOnUse" gradientTransform="rotate(175.394302 88.079346 62.382813)">
					<stop offset="0" stop-color="#FFFFFB" stop-opacity="1"/>
					<stop offset="0.755398" stop-color="#FBFBFB" stop-opacity="1"/>
					<stop offset="1" stop-color="#B3B3B3" stop-opacity="1"/>
				</radialGradient>
				<path fill="url(#SVGID_Fill4_)" stroke-width="0.2" stroke-linejoin="round" d="M 62.0461,69.0542C 62.0461,78.3516 64.3826,86.8643 68.2275,93.4414L 68.2275,93.4414C 79.6384,87.4331 95.0881,83.5039 112.324,82.8008L 112.324,82.8008C 113.474,78.542 114.11,73.9023 114.11,69.0542L 114.11,69.0542C 114.11,48.2136 104.527,34.2261 95.7622,31.9971L 95.7622,31.9971C 94.0476,31.5615 92.3525,31.3538 90.6921,31.3538L 90.6921,31.3538C 74.8625,31.3521 62.0461,50.1914 62.0461,69.0542 Z "/>
				<path fill="#000000" fill-opacity="1" stroke-width="0.2" stroke-linejoin="round" d="M 175.007,81.8093C 175.007,72.9512 171.003,65.7703 166.063,65.7703C 161.163,65.7703 157.182,72.8394 157.121,81.6021C 163.408,82.5354 169.329,83.9136 174.747,85.6677C 174.917,84.4319 175.007,83.1394 175.007,81.8093 Z "/>
				<radialGradient id="SVGID_Fill5_" cx="88.9951" cy="71.4248" r="19.6497" gradientUnits="userSpaceOnUse">
					<stop offset="0" stop-color="#B88000" stop-opacity="1"/>
					<stop offset="1" stop-color="#4F2F00" stop-opacity="1"/>
				</radialGradient>
				<path fill="url(#SVGID_Fill5_)" stroke-width="0.2" stroke-linejoin="round" d="M 81.8386,52.866C 80.2302,54.1555 78.7588,55.8657 77.4714,57.9146C 74.0959,63.2869 71.9849,70.989 71.9849,79.5493C 71.9849,83.6404 72.4675,87.5356 73.3401,91.0742C 75.6829,90.0642 78.156,89.1328 80.7449,88.2874C 80.2566,86.3064 79.9854,84.1145 79.9854,81.8093C 79.9854,72.9512 83.9905,65.7703 88.9294,65.7703C 93.8687,65.7703 97.8728,72.9512 97.8728,81.8093C 97.8728,82.6477 97.8369,83.4707 97.7678,84.2744C 100.405,83.8645 103.109,83.5332 105.869,83.2852C 105.959,82.0618 106.005,80.8149 106.005,79.5491C 106.005,69.0464 102.838,59.8208 98.0442,54.6187C 96.9048,53.9348 95.7271,53.3667 94.5161,52.9226C 92.467,52.1714 90.3225,51.7751 88.1062,51.7751C 85.9497,51.7751 83.842,52.1501 81.8386,52.866 Z "/>
				<radialGradient id="SVGID_Fill6_" cx="166.721" cy="70.262" r="18.4868" gradientUnits="userSpaceOnUse">
					<stop offset="0" stop-color="#B88000" stop-opacity="1"/>
					<stop offset="1" stop-color="#4F2F00" stop-opacity="1"/>
				</radialGradient>
				<path fill="url(#SVGID_Fill6_)" stroke-width="0.2" stroke-linejoin="round" d="M 157.672,54.6179C 152.879,59.8208 149.711,69.0459 149.711,79.5493C 149.711,79.9438 149.716,80.3369 149.725,80.7278C 152.239,80.9512 154.707,81.2437 157.121,81.6021C 157.182,72.8394 161.163,65.7703 166.063,65.7703C 171.003,65.7703 175.007,72.9512 175.007,81.8093C 175.007,83.1394 174.917,84.4319 174.747,85.6677C 177.605,86.5933 180.324,87.6238 182.884,88.7485C 183.434,85.855 183.732,82.7625 183.732,79.5493C 183.732,67.7241 179.702,57.5369 173.878,52.8662C 171.875,52.1501 169.766,51.7751 167.611,51.7751C 164.083,51.7751 160.739,52.7778 157.672,54.6179 Z "/>
				<path fill="#000000" fill-opacity="1" stroke-width="0.2" stroke-linejoin="round" d="M 97.7678,84.2744C 97.8369,83.4707 97.8728,82.6477 97.8728,81.8093C 97.8728,72.9512 93.8687,65.7703 88.9294,65.7703C 83.9905,65.7703 79.9854,72.9512 79.9854,81.8093C 79.9854,84.1145 80.2566,86.3064 80.7449,88.2874C 85.9863,86.5759 91.7014,85.2173 97.7678,84.2744 Z "/>
				<linearGradient id="SVGID_Fill7_" gradientUnits="objectBoundingBox" x1="0.625432" y1="0.0146924" x2="1.6832" y2="0.0146924" gradientTransform="rotate(95.144371 0.625432 0.014692)">
					<stop offset="0" stop-color="#FFFFFF" stop-opacity="0.388235"/>
					<stop offset="1" stop-color="#000000" stop-opacity="0.388235"/>
				</linearGradient>
				<path fill="url(#SVGID_Fill7_)" stroke-width="0.2" stroke-linejoin="round" d="M 101.347,69.8977C 101.347,77.6392 97.7073,83.9141 93.2161,83.9141C 88.7251,83.9141 85.0852,77.6392 85.0852,69.8977C 85.0852,62.1572 88.7251,55.8816 93.2161,55.8816C 97.7073,55.8816 101.347,62.1572 101.347,69.8977 Z "/>
				<linearGradient id="SVGID_Fill8_" gradientUnits="objectBoundingBox" x1="0.613361" y1="0.0483448" x2="1.57975" y2="0.0483448" gradientTransform="rotate(94.996727 0.613361 0.048345)">
					<stop offset="0" stop-color="#FFFFFF" stop-opacity="0.388235"/>
					<stop offset="1" stop-color="#000000" stop-opacity="0.388235"/>
				</linearGradient>
				<path fill="url(#SVGID_Fill8_)" stroke-width="0.2" stroke-linejoin="round" d="M 162.049,70.3574C 162.049,78.0989 165.689,84.3735 170.18,84.3735C 174.67,84.3735 178.311,78.0989 178.311,70.3574C 178.311,62.6167 174.67,56.3411 170.18,56.3411C 165.689,56.3411 162.049,62.6167 162.049,70.3574 Z "/>
				<radialGradient id="SVGID_Fill9_" cx="100.261" cy="68.104" r="15.1814" gradientUnits="userSpaceOnUse">
					<stop offset="0" stop-color="#B88000" stop-opacity="1"/>
					<stop offset="1" stop-color="#4F2F00" stop-opacity="1"/>
				</radialGradient>
				<path fill="url(#SVGID_Fill9_)" stroke-width="0.2" stroke-linejoin="round" d="M 106.006,79.5493C 106.006,69.0459 102.837,59.8208 98.0442,54.6179C 96.905,53.9346 95.7271,53.3665 94.5161,52.9226C 95.7271,53.3667 96.9048,53.9348 98.0442,54.6187C 102.838,59.8208 106.005,69.0464 106.005,79.5491C 106.005,80.8149 105.959,82.0618 105.87,83.2852C 105.96,82.0618 106.006,80.8149 106.006,79.5493 Z "/>
				<radialGradient id="SVGID_Fill10_" cx="79.655" cy="55.3901" r="2.52441" gradientUnits="userSpaceOnUse">
					<stop offset="0" stop-color="#B88000" stop-opacity="1"/>
					<stop offset="1" stop-color="#4F2F00" stop-opacity="1"/>
				</radialGradient>
				<path fill="url(#SVGID_Fill10_)" stroke-width="0.2" stroke-linejoin="round" d="M 81.8381,52.8662C 80.23,54.1558 78.7588,55.8657 77.4714,57.9146C 78.7588,55.8657 80.2302,54.1555 81.8381,52.8662 Z "/>
				<radialGradient id="SVGID_Fill11_" cx="88.1775" cy="52.3486" r="6.33862" gradientUnits="userSpaceOnUse">
					<stop offset="0" stop-color="#FFFFFB" stop-opacity="1"/>
					<stop offset="0.755398" stop-color="#FBFBFB" stop-opacity="1"/>
					<stop offset="1" stop-color="#B3B3B3" stop-opacity="1"/>
				</radialGradient>
				<path fill="url(#SVGID_Fill11_)" stroke-width="0.2" stroke-linejoin="round" d="M 81.8386,52.866C 83.842,52.1501 85.9497,51.7751 88.1062,51.7751C 90.3225,51.7751 92.467,52.1714 94.5161,52.9226C 92.467,52.1711 90.3225,51.7749 88.1062,51.7749C 85.9495,51.7749 83.8416,52.1499 81.8386,52.866 Z "/>
				<radialGradient id="SVGID_Fill12_" cx="74.728" cy="74.4944" r="16.5798" gradientUnits="userSpaceOnUse">
					<stop offset="0" stop-color="#B88000" stop-opacity="1"/>
					<stop offset="1" stop-color="#4F2F00" stop-opacity="1"/>
				</radialGradient>
				<path fill="url(#SVGID_Fill12_)" stroke-width="0.2" stroke-linejoin="round" d="M 73.3401,91.0742C 72.4675,87.5356 71.9849,83.6404 71.9849,79.5493C 71.9849,70.989 74.0959,63.2869 77.4714,57.9146C 74.0957,63.2871 71.9846,70.9888 71.9846,79.5491C 71.9846,83.6401 72.4675,87.5356 73.3401,91.0742 Z "/>
			</g>
			<radialGradient id="SVGID_Fill13_" cx="158.224" cy="82.8774" r="151.873" gradientUnits="userSpaceOnUse" gradientTransform="rotate(236.779984 158.223633 82.877441)">
				<stop offset="0" stop-color="#FFFFD6" stop-opacity="1"/>
				<stop offset="0.376744" stop-color="#FFFD31" stop-opacity="1"/>
				<stop offset="0.740593" stop-color="#FFC817" stop-opacity="1"/>
				<stop offset="1" stop-color="#F6A700" stop-opacity="1"/>
			</radialGradient>
			<path fill="url(#SVGID_Fill13_)" stroke-width="0.2" stroke-linejoin="round" d="M 124.896,19.6541C 65.2693,19.6541 16.9333,68.4155 16.9333,128.566C 16.9333,188.717 65.2693,237.48 124.896,237.48C 184.523,237.48 232.859,188.717 232.859,128.566C 232.859,68.4155 184.523,19.6541 124.896,19.6541 Z M 48.3831,96.6929C 48.3831,72.6279 81.3789,53.1187 122.079,53.1187C 162.78,53.1187 195.775,72.6279 195.775,96.6929C 195.775,120.758 162.781,140.267 122.079,140.267C 81.3782,140.267 48.3831,120.758 48.3831,96.6929 Z "/>
			<path fill="#643D00" fill-opacity="1" stroke-width="7.224" stroke-linecap="round" stroke-linejoin="round" stroke="#653D00" stroke-opacity="1" d="M 108.544,31.8696C 108.544,31.8696 66.1697,42.2583 49.6643,78.1387C 55.5217,35.8916 108.544,31.8696 108.544,31.8696 Z "/>
			<path fill="#643D00" fill-opacity="1" stroke-width="7.224" stroke-linecap="round" stroke-linejoin="round" stroke="#653D00" stroke-opacity="1" d="M 150.517,36.3262C 150.517,36.3262 188.65,46.0649 203.878,82.5952C 192.591,41.3232 150.517,36.3262 150.517,36.3262 Z "/>
			<radialGradient id="SVGID_Fill14_" cx="125.897" cy="166.873" r="94.5533" gradientUnits="userSpaceOnUse" gradientTransform="rotate(77.728806 125.897217 166.872559)">
				<stop offset="0" stop-color="#9E1F01" stop-opacity="1"/>
				<stop offset="0.943965" stop-color="#180906" stop-opacity="1"/>
			</radialGradient>
			<path fill="url(#SVGID_Fill14_)" stroke-width="4" stroke-linejoin="round" stroke="#D98004" stroke-opacity="1" d="M 60.8293,112.971C 59.3665,118.784 60.0117,134.354 61.3452,145.065C 62.6787,155.777 64.7004,161.631 67.5132,167.028C 70.3259,172.425 73.9297,177.366 80.2358,181.546C 86.5422,185.726 95.5513,189.146 106.362,190.856C 117.173,192.566 129.785,192.566 140.821,190.286C 151.857,188.006 161.317,183.446 169.199,177.556C 177.083,171.665 183.389,164.445 187.443,157.415C 191.497,150.384 193.299,143.544 193.891,136.11C 194.484,128.676 193.867,120.648 192.855,115.85C 191.843,111.052 190.435,109.485 187.819,109.699C 185.203,109.913 181.38,111.908 178.708,113.547C 176.035,115.186 174.515,116.468 166.703,118.143C 158.89,119.817 144.785,121.884 135.408,122.905C 126.031,123.926 121.38,123.902 115.902,123.985C 110.424,124.068 104.117,124.258 96.2346,122.786C 88.3518,121.313 78.8923,118.178 72.3772,114.639C 65.8623,111.1 62.292,107.158 60.8293,112.971 Z "/>
			<radialGradient id="SVGID_Fill15_" cx="113.206" cy="177.264" r="33.3247" gradientUnits="userSpaceOnUse">
				<stop offset="0" stop-color="#F1EBEA" stop-opacity="1"/>
				<stop offset="0.0818966" stop-color="#F77F7F" stop-opacity="1"/>
				<stop offset="0.280172" stop-color="#FD1414" stop-opacity="1"/>
				<stop offset="0.521552" stop-color="#FF0000" stop-opacity="1"/>
				<stop offset="0.722198" stop-color="#BA0C01" stop-opacity="1"/>
				<stop offset="0.943965" stop-color="#751803" stop-opacity="1"/>
			</radialGradient>
			<path fill="url(#SVGID_Fill15_)" stroke-width="0.2" stroke-linejoin="round" d="M 122.782,157.367C 134.534,157.367 144.061,164.494 144.061,173.285C 144.061,182.076 134.534,189.202 122.782,189.202C 111.03,189.202 101.502,182.076 101.502,173.285C 101.502,164.494 111.029,157.367 122.782,157.367 Z "/>
			<radialGradient id="SVGID_Fill16_" cx="127.481" cy="145.17" r="73.96" gradientUnits="userSpaceOnUse">
				<stop offset="0" stop-color="#F8F6F2" stop-opacity="1"/>
				<stop offset="0.646512" stop-color="#F0EEEA" stop-opacity="1"/>
				<stop offset="1" stop-color="#999A9D" stop-opacity="1"/>
			</radialGradient>
			<path fill="url(#SVGID_Fill16_)" stroke-width="0.2" stroke-linejoin="round" d="M 63.9316,114.774C 64.7058,119.335 67.7305,129.695 76.5525,139.247C 85.3743,148.798 99.9937,157.542 112.549,161.596C 125.105,165.65 135.597,165.013 146.854,159.919C 158.111,154.826 170.133,145.275 178.189,135.348C 186.245,125.42 190.335,115.115 188.908,112.206C 187.48,109.297 180.535,113.782 170.394,117.289C 160.253,120.795 146.916,123.323 133.363,124.666C 119.81,126.01 106.04,126.169 94.7954,123.975C 83.5505,121.781 74.8301,117.233 69.7317,114.342C 64.6335,111.45 63.1575,110.213 63.9316,114.774 Z "/>
			<path fill="#D98004" fill-opacity="1" stroke-width="3" stroke-linecap="round" stroke-linejoin="round" stroke="#D98004" stroke-opacity="1" d="M 76.4155,102.627C 76.4155,102.627 58.2688,106.089 51.2004,118.045C 53.7087,103.968 76.4155,102.627 76.4155,102.627 Z "/>
			<path fill="#D98004" fill-opacity="1" stroke-width="3" stroke-linecap="round" stroke-linejoin="round" stroke="#D98004" stroke-opacity="1" d="M 202.96,121.115C 202.96,121.115 193.369,105.065 179.877,102.56C 193.71,99.9761 202.96,121.115 202.96,121.115 Z "/>
		</g>
		<g>
			<radialGradient id="SVGID_Fill17_" cx="136.079" cy="77.8755" r="163.511" gradientUnits="userSpaceOnUse">
				<stop offset="0" stop-color="#969AD9" stop-opacity="1"/>
				<stop offset="0.378049" stop-color="#323CE7" stop-opacity="1"/>
				<stop offset="0.740593" stop-color="#131ECB" stop-opacity="1"/>
				<stop offset="1" stop-color="#0803BD" stop-opacity="1"/>
			</radialGradient>
			<path fill="url(#SVGID_Fill17_)" stroke-width="0.2" stroke-linecap="round" stroke-linejoin="round" d="M 121.254,18.8069L 121.254,236.944C 121.803,236.952 122.353,236.956 122.904,236.956C 183.655,236.956 232.903,188.118 232.903,127.875C 232.903,67.6313 183.655,18.7949 122.904,18.7949C 122.353,18.7949 121.803,18.7988 121.254,18.8069 Z "/>
			<path fill="#643D00" fill-opacity="1" stroke-width="7.224" stroke-linecap="round" stroke-linejoin="round" stroke="#653D00" stroke-opacity="1" d="M 143.931,12.5002C 143.931,12.5002 182.784,22.2539 198.299,58.8403C 186.799,17.5051 143.931,12.5002 143.931,12.5002 Z "/>
			<radialGradient id="SVGID_Fill18_" cx="160.174" cy="75.0061" r="35.006" gradientUnits="userSpaceOnUse" gradientTransform="rotate(182.071121 160.173828 75.006104)">
				<stop offset="0" stop-color="#FFFFFB" stop-opacity="1"/>
				<stop offset="0.755398" stop-color="#FBFBFB" stop-opacity="1"/>
				<stop offset="1" stop-color="#B3B3B3" stop-opacity="1"/>
			</radialGradient>
			<path fill="url(#SVGID_Fill18_)" stroke-width="0.2" stroke-linejoin="round" d="M 134.518,84.2837C 134.518,89.1394 135.166,93.7861 136.337,98.0518L 136.337,98.0518C 153.9,98.7559 169.641,102.691 181.266,108.708L 181.266,108.708C 185.185,102.121 187.564,93.5955 187.564,84.2837L 187.564,84.2837C 187.564,63.4111 175.287,47.1699 157.797,47.1699L 157.797,47.1699C 146.751,47.1699 134.518,63.4111 134.518,84.2837 Z "/>
			<radialGradient id="SVGID_Fill19_" cx="152.404" cy="74.4966" r="45.2337" gradientUnits="userSpaceOnUse" gradientTransform="rotate(-80.475296 152.404297 74.496582)">
				<stop offset="0" stop-color="#B88000" stop-opacity="1"/>
				<stop offset="1" stop-color="#4F2F00" stop-opacity="1"/>
			</radialGradient>
			<path fill="url(#SVGID_Fill19_)" stroke-width="0.2" stroke-linejoin="round" d="M 150.902,49.356C 146.018,54.5669 142.791,63.8062 142.791,74.3257L 142.791,74.3257C 142.791,84.9512 146.108,94.2583 151.075,99.437L 151.075,99.437C 156.029,100.19 160.768,101.232 165.199,102.487L 165.199,102.487C 172.299,98.8 177.453,87.5911 177.453,74.3257L 177.453,74.3257C 177.453,62.4824 173.348,52.2795 167.414,47.6016L 167.414,47.6016C 165.373,46.8845 163.224,46.5088 161.028,46.5088L 161.028,46.5088C 157.434,46.5088 154.027,47.5132 150.902,49.356 Z "/>
			<path fill="#000000" fill-opacity="1" stroke-width="0.2" stroke-linejoin="round" d="M 150.34,76.5891C 150.34,85.4609 154.42,92.6528 159.451,92.6528C 164.485,92.6528 168.565,85.4609 168.565,76.5891C 168.565,67.7173 164.485,60.5254 159.451,60.5254C 154.42,60.5254 150.34,67.7173 150.34,76.5891 Z "/>
			<linearGradient id="SVGID_Fill20_" gradientUnits="objectBoundingBox" x1="0.613361" y1="0.0483495" x2="1.57975" y2="0.0483495" gradientTransform="rotate(94.996605 0.613361 0.048350)">
				<stop offset="0" stop-color="#FFFFFF" stop-opacity="0.388235"/>
				<stop offset="1" stop-color="#000000" stop-opacity="0.388235"/>
			</linearGradient>
			<path fill="url(#SVGID_Fill20_)" stroke-width="0.2" stroke-linejoin="round" d="M 155.361,65.1196C 155.361,72.873 159.07,79.1572 163.646,79.1572C 168.221,79.1572 171.93,72.873 171.93,65.1196C 171.93,57.3672 168.221,51.082 163.646,51.082C 159.07,51.082 155.361,57.3672 155.361,65.1196 Z "/>
			<path fill="#FE0C0C" fill-opacity="1" stroke-width="4" stroke-linecap="round" stroke-linejoin="round" stroke="#D98004" stroke-opacity="1" d="M 127.864,134.557C 130.341,130.708 134.099,126.089 137.943,122.899C 141.787,119.71 145.716,117.95 149.73,117.84C 153.745,117.73 157.845,119.27 160.749,121.909C 163.654,124.549 165.362,128.288 165.618,130.488C 165.874,132.688 164.678,133.347 163.483,132.248C 162.287,131.148 161.091,128.288 158.614,126.089C 156.137,123.889 152.378,122.349 147.851,124.219C 143.324,126.089 138.028,131.368 134.782,135.547C 131.537,139.726 130.341,142.805 128.718,144.125C 127.095,145.445 125.045,145.005 124.618,143.245C 124.191,141.486 125.386,138.406 127.864,134.557 Z "/>
			<linearGradient id="SVGID_Fill21_" gradientUnits="objectBoundingBox" x1="1.03978" y1="0.500379" x2="2.10273" y2="0.500379" gradientTransform="rotate(180.000000 1.039778 0.500379)">
				<stop offset="0.506977" stop-color="#E7E8EE" stop-opacity="1"/>
				<stop offset="1" stop-color="#4D5793" stop-opacity="1"/>
			</linearGradient>
			<path fill="url(#SVGID_Fill21_)" stroke-linecap="round" stroke-linejoin="round" stroke="#A9ADC9" stroke-opacity="1" d="M 200.829,150.512C 204.384,149.957 208.829,149.513 212.718,150.291C 216.606,151.068 219.94,153.068 223.857,155.54C 227.774,158.011 232.275,160.953 236.025,163.883C 239.776,166.812 242.776,169.729 244.609,171.771C 246.443,173.812 247.109,174.979 247.422,175.854C 247.734,176.729 247.693,177.312 246.547,177.729C 245.401,178.146 243.151,178.396 240.839,177.896C 238.526,177.396 236.151,176.146 233.435,174.883C 230.719,173.62 227.663,172.344 225.996,172.483C 224.329,172.622 224.053,174.176 224.47,176.175C 224.887,178.174 225.998,180.618 227.977,184C 229.956,187.382 232.804,191.701 235.353,196.125C 237.901,200.549 240.151,205.076 240.172,208.027C 240.193,210.979 237.984,212.354 235.214,210.264C 232.443,208.174 229.109,202.618 226.561,198.18C 224.012,193.743 222.248,190.424 220.866,188.986C 219.484,187.549 218.484,187.993 218.929,189.771C 219.373,191.549 221.262,194.66 223.04,198.326C 224.818,201.993 226.484,206.215 227.478,209.542C 228.471,212.868 228.79,215.299 228.373,216.951C 227.956,218.604 226.804,219.479 225.471,218.701C 224.137,217.924 222.623,215.493 220.311,211.055C 217.998,206.618 214.887,200.174 213.332,196.951C 211.776,193.729 211.776,193.729 211.505,193.958C 211.234,194.187 210.693,194.646 211.089,197.042C 211.484,199.437 212.818,203.771 213.478,207.986C 214.137,212.201 214.123,216.299 213.672,218.847C 213.221,221.396 212.331,222.396 211.165,222.173C 209.998,221.951 208.554,220.507 207.332,217.553C 206.11,214.599 205.111,210.136 203.153,206.113C 201.195,202.09 198.279,198.507 196.466,196.069C 194.654,193.632 193.945,192.34 192.597,190.475C 191.249,188.61 189.261,186.173 187.795,183.397C 186.329,180.622 185.386,177.509 185.053,174.842C 184.719,172.176 184.996,169.955 186.246,166.29C 187.495,162.624 189.718,157.513 192.162,154.624C 194.606,151.735 197.273,151.068 200.829,150.512 Z "/>
			<filter id="Filter_GaussianBlur2_" filterUnits="userSpaceOnUse">
				<feGaussianBlur stdDeviation="2.83465"/>
			</filter>
			<path fill="none" stroke-width="4" stroke-linecap="round" stroke-linejoin="round" stroke="#16171F" stroke-opacity="1" filter="url(#Filter_GaussianBlur2_)" d="M 188.529,165.465L 186.279,172.215L 189.279,182.215L 196.279,191.215L 204.279,199.715L 207.279,207.715L 209.029,217.215"/>
			<filter id="Filter_GaussianBlur3_" filterUnits="userSpaceOnUse">
				<feGaussianBlur stdDeviation="2.4567"/>
			</filter>
			<path fill="none" stroke-width="3" stroke-linecap="round" stroke-linejoin="round" stroke="#16171F" stroke-opacity="1" filter="url(#Filter_GaussianBlur3_)" d="M 213.279,191.215L 215.279,196.215L 221.029,206.965L 224.779,215.465"/>
			<filter id="Filter_GaussianBlur4_" filterUnits="userSpaceOnUse">
				<feGaussianBlur stdDeviation="2.4567"/>
			</filter>
			<path fill="none" stroke-width="3" stroke-linecap="round" stroke-linejoin="round" stroke="#16171F" stroke-opacity="1" filter="url(#Filter_GaussianBlur4_)" d="M 221.779,186.34L 226.529,193.09L 232.279,202.34L 236.029,208.84"/>
			<filter id="Filter_GaussianBlur5_" filterUnits="userSpaceOnUse">
				<feGaussianBlur stdDeviation="2.83465"/>
			</filter>
			<path fill="none" stroke-width="5" stroke-linecap="round" stroke-linejoin="round" stroke="#16171F" stroke-opacity="1" filter="url(#Filter_GaussianBlur5_)" d="M 226.779,169.34L 233.279,172.09L 240.779,175.59L 243.779,175.59"/>
		</g>
	</g>
</svg>
