<svg enable-background="new 0 0 38.50 50.00" height="50" viewBox="0 0 38.5 50" width="38.4971" xmlns="http://www.w3.org/2000/svg" xmlns:xlink="http://www.w3.org/1999/xlink"><linearGradient id="a" gradientUnits="objectBoundingBox" x1=".000015359" x2="1.00002" y1=".00000595093" y2=".00000595093"><stop offset="0" stop-color="#b6eeaf"/><stop offset="1" stop-color="#41733a"/></linearGradient><g stroke-linejoin="round"><path d="m2.70901 0c-1.5079 0-2.70901 1.2171-2.70901 2.72559v44.55121c0 1.5085 1.20111 2.7232 2.70901 2.7232h33.07909c1.5085 0 2.709-1.2147 2.709-2.7232v-33.4765h-9.9643c-2.0403 0-3.8195-1.4877-3.8195-3.4659v-10.3344m1.8947 0v10.3344c0 .8126.7729 1.5713 1.9248 1.5713h9.9643z" fill="url(#a)"/><g fill="#4d4d4d"><path d="m5.94573 11.9217h16.34287c.4649 0 .8375.3725.8375.8374v1.2562c0 .4632-.3726.8375-.8375.8375h-16.34287c-.46256 0-.83746-.3743-.83746-.8375v-1.2562c0-.4649.3749-.8374.83746-.8374z"/><path d="m5.94573 25.581h26.60557c.465 0 .8375.3743.8375.8375v1.2562c0 .4649-.3725.8374-.8375.8374h-26.60557c-.46256 0-.83746-.3725-.83746-.8374v-1.2562c0-.4632.3749-.8375.83746-.8375z"/><path d="m5.94573 18.751h16.34287c.4649 0 .8375.3749.8375.8375v1.2568c0 .4625-.3726.8374-.8375.8374h-16.34287c-.46256 0-.83746-.3749-.83746-.8374v-1.2568c0-.4626.3749-.8375.83746-.8375z"/><path d="m5.94573 32.4104h26.60557c.465 0 .8375.3749.8375.8374v1.2562c0 .465-.3725.8375-.8375.8375h-26.60557c-.46256 0-.83746-.3725-.83746-.8375v-1.2562c0-.4625.3749-.8374.83746-.8374z"/><path d="m5.94573 39.2398h26.60557c.465 0 .8375.3749.8375.8374v1.2562c0 .465-.3725.8375-.8375.8375h-26.60557c-.46256 0-.83746-.3725-.83746-.8375v-1.2562c0-.4625.3749-.8374.83746-.8374z"/></g></g></svg>