<?xml version="1.0" encoding="utf-8"?>
<!DOCTYPE svg PUBLIC "-//W3C//DTD SVG 1.1//EN" "http://www.w3.org/Graphics/SVG/1.1/DTD/svg11.dtd">
<svg x="0" y="0" width="48" height="48" overflow="hidden" viewBox="0, 0, 48, 48" preserveAspectRatio="xMidYMid"
     font-size="0" id="svg" xml:space="preserve" xmlns="http://www.w3.org/2000/svg"
     xmlns:xml="http://www.w3.org/XML/1998/namespace" version="1.1">
  <g stroke-width="0.9376554" transform="matrix(1.209129, 0, 0, 0.9406779, 1.059322, 0.7542373)" id="g19" xml:space="preserve">
    <linearGradient x1="0.000673848" y1="0.0002610862" x2="43.87405" y2="0.0002610862" gradientUnits="userSpaceOnUse" gradientTransform="matrix(0.7256989, 0, 0, 1.211518, -0.8761036, -0.8018018)" id="SVGID_Fill1_" xml:space="preserve">
      <stop offset="0%" stop-color="#B6EEAF" stop-opacity="1" id="stop2" xml:space="preserve" />
      <stop offset="100%" stop-color="#41733A" stop-opacity="1" id="stop4" xml:space="preserve" />
    </linearGradient>
    <path d="M2.70901 0 C1.20111 0 0 1.2171 0 2.72559 L0 47.2768 C0 48.7853 1.20111 50 2.70901 50 L35.7881 50 C37.2966 50 38.4971 48.7853 38.4971 47.2768 L38.4971 13.8003 L28.5328 13.8003 C26.4925 13.8003 24.7133 12.3126 24.7133 10.3344 L24.7133 0 M26.608 0 L26.608 10.3344 C26.608 11.147 27.3809 11.9057 28.5328 11.9057 L38.4971 11.9057 z" stroke-width="0.9376554" stroke-linejoin="round" id="path7" xml:space="preserve" connector-curvature="0" style="fill:url(#SVGID_Fill1_);" />
    <path d="M5.94573 11.9217 L22.2886 11.9217 C22.7535 11.9217 23.1261 12.2942 23.1261 12.7591 L23.1261 14.0153 C23.1261 14.4785 22.7535 14.8528 22.2886 14.8528 L5.94573 14.8528 C5.48317 14.8528 5.10827 14.4785 5.10827 14.0153 L5.10827 12.7591 C5.10827 12.2942 5.48317 11.9217 5.94573 11.9217 z" stroke-width="0.9376554" stroke-linejoin="round" id="path9" xml:space="preserve" connector-curvature="0" style="fill:#4D4D4D;" />
    <path d="M5.94573 25.581 L32.5513 25.581 C33.0163 25.581 33.3888 25.9553 33.3888 26.4185 L33.3888 27.6747 C33.3888 28.1396 33.0163 28.5121 32.5513 28.5121 L5.94573 28.5121 C5.48317 28.5121 5.10827 28.1396 5.10827 27.6747 L5.10827 26.4185 C5.10827 25.9553 5.48317 25.581 5.94573 25.581 z" stroke-width="0.9376554" stroke-linejoin="round" id="path11" xml:space="preserve" connector-curvature="0" style="fill:#4D4D4D;" />
    <path d="M5.94573 18.751 L22.2886 18.751 C22.7535 18.751 23.1261 19.1259 23.1261 19.5885 L23.1261 20.8453 C23.1261 21.3078 22.7535 21.6827 22.2886 21.6827 L5.94573 21.6827 C5.48317 21.6827 5.10827 21.3078 5.10827 20.8453 L5.10827 19.5885 C5.10827 19.1259 5.48317 18.751 5.94573 18.751 z" stroke-width="0.9376554" stroke-linejoin="round" id="path13" xml:space="preserve" connector-curvature="0" style="fill:#4D4D4D;" />
    <path d="M5.94573 32.4104 L32.5513 32.4104 C33.0163 32.4104 33.3888 32.7853 33.3888 33.2478 L33.3888 34.504 C33.3888 34.969 33.0163 35.3415 32.5513 35.3415 L5.94573 35.3415 C5.48317 35.3415 5.10827 34.969 5.10827 34.504 L5.10827 33.2478 C5.10827 32.7853 5.48317 32.4104 5.94573 32.4104 z" stroke-width="0.9376554" stroke-linejoin="round" id="path15" xml:space="preserve" connector-curvature="0" style="fill:#4D4D4D;" />
    <path d="M5.94573 39.2398 L32.5513 39.2398 C33.0163 39.2398 33.3888 39.6147 33.3888 40.0772 L33.3888 41.3334 C33.3888 41.7984 33.0163 42.1709 32.5513 42.1709 L5.94573 42.1709 C5.48317 42.1709 5.10827 41.7984 5.10827 41.3334 L5.10827 40.0772 C5.10827 39.6147 5.48317 39.2398 5.94573 39.2398 z" stroke-width="0.9376554" stroke-linejoin="round" id="path17" xml:space="preserve" connector-curvature="0" style="fill:#4D4D4D;" />
  </g>
</svg>