<?xml version="1.0" encoding="utf-8"?>
<!DOCTYPE svg PUBLIC "-//W3C//DTD SVG 1.1//EN" "http://www.w3.org/Graphics/SVG/1.1/DTD/svg11.dtd">
<svg x="0" y="0" width="48" height="48" overflow="hidden" viewBox="0, 0, 48, 48" preserveAspectRatio="xMidYMid"
     font-size="0" id="svg" xml:space="preserve" xmlns="http://www.w3.org/2000/svg"
     xmlns:xml="http://www.w3.org/XML/1998/namespace" version="1.1">
  <linearGradient x1="5.091582" y1="154.5587" x2="224.6387" y2="154.5587" gradientUnits="userSpaceOnUse" gradientTransform="matrix(1.064329, 0, 0, 0.9395596, 2, 0.8)" id="SVGID_Fill16_" xml:space="preserve">
    <stop offset="0%" stop-color="#2D3436" stop-opacity="0.470588" id="stop219" xml:space="preserve" />
    <stop offset="21.6712%" stop-color="#878985" stop-opacity="0.470588" id="stop221" xml:space="preserve" />
    <stop offset="40.9302%" stop-color="#EDEDEB" stop-opacity="0.470588" id="stop223" xml:space="preserve" />
    <stop offset="71.6712%" stop-color="#878985" stop-opacity="0.470588" id="stop225" xml:space="preserve" />
    <stop offset="100%" stop-color="#2D3436" stop-opacity="0.470588" id="stop227" xml:space="preserve" />
  </linearGradient>
  <g transform="translate(-2, -0.8)" id="g1062" xml:space="preserve">
    <g transform="matrix(0.2013628, 0, 0, 0.1943955, 1.329787, 1.023869)" id="g19" xml:space="preserve">
      <linearGradient x1="5.897932" y1="154.8946" x2="225.4448" y2="154.8946" gradientUnits="userSpaceOnUse" gradientTransform="matrix(5.285625, 0, 0, 4.833239, 3.328382, -1.151614)" id="SVGID_Fill1_" xml:space="preserve">
        <stop offset="0%" stop-color="#2D3436" stop-opacity="1" id="stop2" xml:space="preserve" />
        <stop offset="21.6712%" stop-color="#878985" stop-opacity="1" id="stop4" xml:space="preserve" />
        <stop offset="40.9302%" stop-color="#EDEDEB" stop-opacity="1" id="stop6" xml:space="preserve" />
        <stop offset="71.6712%" stop-color="#878985" stop-opacity="1" id="stop8" xml:space="preserve" />
        <stop offset="100%" stop-color="#2D3436" stop-opacity="1" id="stop10" xml:space="preserve" />
      </linearGradient>
      <path d="M28.1119 60.2815 C46.56 77.7146 57.6029 92.9353 75.9964 110.5 C82.0029 116.398 92.1874 129.393 97.99789 135.404 C98.7691 144.802 98.11008 141.653 97.407 156.193 C97.7995 171.177 97.0833 186.181 97.7576 201.157 C99.5766 205.11 104.067 207.231 107.114 210.322 C117.749 218.771 131.5 229.206 144.528 234.385 C147.71 234.657 150.594 234.421 149.8 232.188 C149.792 200.281 149.144 167.727 149.882 135.823 C154.974 129.098 163.645 121.494 169.911 114.258 C189.226 96.00389 201.349 80.5369 220.528 62.17649 C136.999 76.5618 93.52621 67.0291 28.11191 60.28149 z" stroke="#EEEEEC" stroke-width="3" id="path13" xml:space="preserve" connector-curvature="0" style="fill:url(#SVGID_Fill1_);" />
      <path d="M224.776 55.0693 C224.776 64.5442 180.004 72.2246 124.777 72.2246 C69.5485 72.2246 24.7764 64.5442 24.7764 55.0693 C24.7764 45.5967 69.54849 37.916 124.777 37.916 C180.004 37.916 224.776 45.5967 224.776 55.0693 z" stroke="#2E3436" stroke-width="5" id="path15" xml:space="preserve" connector-curvature="0" style="fill:#D9DCD6;" />
      <path d="M224.776 55.0693 C224.776 64.5442 180.004 72.2246 124.777 72.2246 C69.5485 72.2246 24.7764 64.5442 24.7764 55.0693 C24.7764 45.5967 69.54849 37.916 124.777 37.916 C180.004 37.916 224.776 45.5967 224.776 55.0693 z" stroke="#2E3436" stroke-width="10" id="path17" xml:space="preserve" connector-curvature="0" style="fill:none;" />
    </g>
    <g transform="matrix(0.2013628, 0, 0, 0.1943955, 1.329787, 1.023869)" id="g54" xml:space="preserve">
      <path d="M140.841 17.3572 L144.128 24.4294 L144.866 29.6201 L144.777 34.4373 L144.428 38.4326 L143.254 42.3708 L141.94 44.4724 L140.365 45.752 L138.133 43.8682 L136.459 40.5859 L135.234 37.8704 L135.081 34.4492 L136.952 30.6326 L138.759 26.6892 L140.373 22.3672 z" stroke="#000000" stroke-linejoin="bevel" id="path21" xml:space="preserve" connector-curvature="0" style="fill:#FFFFFF;" />
      <path d="M80.5035 49.0693 L87.432 51.7405 L88.7637 51.8572 L93.2119 53.407 L96.3209 53.8896 L99.2988 53.803 L102.227 55.4912 L105.291 58.3826 L107.66 61.4695 L109.329 64.1182 L108.707 65.70731 L105.791 65.60332 L101.026 64.05592 L95.3701 62.00882 L91.4864 59.69411 L87.8551 57.25101 L84.7239 53.91631 L82.5481 51.20831 z" stroke="#000000" stroke-linejoin="bevel" id="path23" xml:space="preserve" connector-curvature="0" style="fill:#FFFFFF;" />
      <path d="M98.3433 53.1768 L94.2344 46.3643 L91.53149 41.0623 L89.84348 35.8787 L90.24468 30.4255 L91.03938 26.6804 L92.90839 22.5466 L95.47549 18.5339 L99.1936 15.8435 L106.456 12.6182 L111.328 11.5664 L115.826 11.3411 L120.202 11.8142 L123.759 12.864 L127.519 15.5596 L130.46 18.832 L133.019 21.9807 L134.452 26.9763 L134.677 31.4739 L134.581 35.3406 L136.066 38.8779 L138.378 42.7891 L140.489 45.3708 L144.056 47.6877 L148.059 48.9875 L151.108 49.9778 L155.101 50.01 L158.398 50.238 L159.547 51.2429 L159.435 53.20831 L158.705 57.0798 L157.467 60.8918 L155.402 64.3301 L153.647 66.8154 L151.13 69.053 L148.172 71.6741 L143.753 73.9268 L139.587 76.05051 L136.424 76.70872 L133.446 76.79522 L130.272 76.18632 L127.735 75.88892 L126.74 78.30492 L125.557 80.97581 L124.685 83.0107 L122.544 84.7383 L118.383 87.4958 L115.098 88.8523 L111.417 88.1836 L111.278 86.6638 L112.967 83.7356 L114.207 80.2402 L114.492 76.1189 L112.873 71.6953 L111.388 68.158 L108.945 63.67751 L106.705 60.84301 L103.96 58.26641 L101.663 56.25611 z" stroke="#000000" stroke-linejoin="bevel" id="path25" xml:space="preserve" connector-curvature="0" style="fill:#FFFFFF;" />
      <path d="M106.614 49.1199 L111.884 50.4094 L114.475 49.5657 L117.634 48.2737 L121.164 45.8379 L123.81 43.8528 L125.63 41.4939 L127.068 39.01101 L127.268 40.34061 L126.605 44.65501 L126.077 50.17262 L125.349 54.36061 L124.493 58.29662 L123.805 59.44262 L120.119 58.14062 L116.807 56.01172 L113.178 53.88502 L109.802 51.62992 L107.19 49.93922 z" stroke="#000000" stroke-linejoin="bevel" id="path27" xml:space="preserve" connector-curvature="0" style="fill:#FF0000;" />
      <path d="M98.2872 29.6658 L103.178 31.1484 L105.971 31.6338 L108.141 33.7083 L112.515 41.9763 L107.903 43.8499 L104.431 37.34959 L102.305 32.86649 z" stroke="#2D2D2D" stroke-linejoin="bevel" id="path29" xml:space="preserve" connector-curvature="0" style="fill:#000000;" />
      <path d="M115.668 21.2773 L113.995 26.1067 L112.747 28.6514 L113.15 31.6267 L117.271 40.0234 L121.497 37.3923 L118.277 30.7629 L115.898 26.4089 z" stroke="#2D2D2D" stroke-linejoin="bevel" id="path31" xml:space="preserve" connector-curvature="0" style="fill:#000000;" />
      <linearGradient x1="92.949" y1="52.36478" x2="128.763" y2="52.36478" gradientUnits="userSpaceOnUse" gradientTransform="matrix(5.899007, 0, 0, 4.330677, 3.328382, -1.151614)" id="SVGID_Fill2_" xml:space="preserve">
        <stop offset="0%" stop-color="#737373" stop-opacity="1" id="stop33" xml:space="preserve" />
        <stop offset="100%" stop-color="#FFFFFF" stop-opacity="1" id="stop35" xml:space="preserve" />
      </linearGradient>
      <path d="M97.8271 19.4026 L106.996 16.7966 L112.57 16.4998 L117.647 17.4109 L122.608 19.6536 L125.623 24.3196 L128.907 31.0752 L131.179 38.0286 C131.179 38.0286 133.437 43.0808 133.632 43.7764 C133.828 44.4719 134.927 47.252 134.927 47.252 L137.991 50.1433 L141.051 52.4006 L145.37 53.69801 L149.937 54.2327 L153.866 54.1389 L156.965 53.35421 L157.377 50.8674 L151.672 50.67461 L147.457 49.54271 L142.952 47.8428 L138.133 43.8682 L135.36 37.8059 L134.313 33.5681 L133.278 26.1731 L131.299 20.79 L124.534 14.1687 L119.955 12.5764 L112.587 12.0276 L105.199 13.8955 L100.085 16.3435 z" stroke-width="0.2" stroke-linejoin="bevel" id="path38" xml:space="preserve" connector-curvature="0" style="fill:url(#SVGID_Fill2_);" />
      <linearGradient x1="90.62292" y1="107.4722" x2="104.9281" y2="107.4722" gradientUnits="userSpaceOnUse" gradientTransform="matrix(6.124381, 0, 0, 4.17131, 3.328382, -1.151614)" id="SVGID_Fill3_" xml:space="preserve">
        <stop offset="0%" stop-color="#737373" stop-opacity="1" id="stop40" xml:space="preserve" />
        <stop offset="100%" stop-color="#FFFFFF" stop-opacity="1" id="stop42" xml:space="preserve" />
      </linearGradient>
      <path d="M113.91 83.5876 L112.798 85.7351 L111.908 87.4412 L114.632 88.0159 L116.561 87.5891 L119.182 86.33298 L121.296 85.17578 L123.779 82.82148 L124.746 80.71288 L125.283 79.22138 L123.036 80.78928 L120.993 82.86518 L118.465 83.83518 L116.055 83.63208 L114.321 82.87127 z" stroke-width="0.2" stroke-linejoin="bevel" id="path45" xml:space="preserve" connector-curvature="0" style="fill:url(#SVGID_Fill3_);" />
      <linearGradient x1="86.14724" y1="117.6419" x2="108.3179" y2="117.6419" gradientUnits="userSpaceOnUse" gradientTransform="matrix(7.553163, 0, 0, 3.382251, 3.328382, -1.151614)" id="SVGID_Fill4_" xml:space="preserve">
        <stop offset="0%" stop-color="#737373" stop-opacity="1" id="stop47" xml:space="preserve" />
        <stop offset="100%" stop-color="#FFFFFF" stop-opacity="1" id="stop49" xml:space="preserve" />
      </linearGradient>
      <path d="M130.024 75.3879 L134.348 75.9426 L137.897 75.4753 L140.173 74.7327 L147.394 71.4744 L149.786 69.45921 L152.771 66.10912 L150.997 66.21802 L149.044 67.69072 L146.464 70.11912 L143.087 71.76152 L137.267 73.13752 L133.881 73.67092 z" stroke-width="0.2" stroke-linejoin="bevel" id="path52" xml:space="preserve" connector-curvature="0" style="fill:url(#SVGID_Fill4_);" />
    </g>
    <g transform="matrix(0.2013628, 0, 0, 0.1943955, 1.329787, 1.023869)" id="g81" xml:space="preserve">
      <path d="M136.132 89.1731 C140.195 91.0129 141.978 95.842 140.114 99.95921 C138.25 104.076 133.445 105.923 129.381 104.083 C125.317 102.242 123.534 97.41331 125.398 93.29611 C127.263 89.17902 132.068 87.33302 136.132 89.17311 z" stroke="#000000" stroke-linejoin="round" id="path56" xml:space="preserve" connector-curvature="0" style="fill:#0025C1;" />
      <path d="M136.828 60.3225 L131.56 54.4375 L130.003 48.5996 L130.208 44.0254 L132.293 38.9033 L135.684 35.5388 L139.673 32.9119 L143.33 31.5342 L148.905 30.5586 L152.81 30.6934 L157.421 31.8477 L161.962 33.6707 L166.784 35.3875 L170.975 37.9846 L173.266 40.6553 L176.261 44.34501 L178.607 48.4402 L179.897 52.29081 L180.504 58.16531 L178.962 62.60061 L175.926 67.759 L172.869 69.8748 L168.561 71.6575 L163.323 73.9521 L157.185 75.1396 L150.785 76.9082 L146.251 80.2219 L143.493 82.7063 L142.979 84.1223 L142.199 85.2412 L140.823 85.31808 L136.668 83.34959 L135.645 81.4863 L137.224 78.0012 L141.582 75.0745 L147.065 71.7244 L153.798 68.70631 L156.768 66.78442 L160.334 63.03252 L162.175 58.96612 L163.311 53.88062 L162.039 50.50512 L158.956 47.00902 L155.646 45.04372 L152.654 43.92212 L148.642 43.50592 L145.354 44.58372 L144.215 47.10082 L143.849 49.96882 L145.877 53.22052 L147.287 55.25882 L146.992 57.45802 L145.64 59.41282 L143.777 60.43552 L141.808 61.17752 L139.027 60.61842 z" stroke="#000000" stroke-linejoin="round" id="path58" xml:space="preserve" connector-curvature="0" style="fill:#0025C1;" />
      <linearGradient x1="292.9639" y1="35.42165" x2="322.8703" y2="35.42165" gradientUnits="userSpaceOnUse" gradientTransform="matrix(3.045784, 0, 0, 8.387559, 3.328382, -1.151614)" id="SVGID_Fill5_" xml:space="preserve">
        <stop offset="0.925926%" stop-color="#FFFFFF" stop-opacity="1" id="stop60" xml:space="preserve" />
        <stop offset="100%" stop-color="#FCFCFF" stop-opacity="0" id="stop62" xml:space="preserve" />
      </linearGradient>
      <path d="M167.71 38.8398 L170.755 43.7959 L173.083 48.2725 L174.499 53.7354 L174.282 57.9924 L172.636 63.0027 L169.757 67.2991 L167.473 68.9092 L168.995 70.3196 L174.823 67.10381 L177.163 63.65261 L179.314 58.55981 L178.591 52.73241 L177.777 49.93071 L177.54 48.73512 L176.259 46.75491 L174.554 43.6497 L172.498 41.3191 L170.409 39.7507 z" stroke-width="0.2" stroke-linejoin="round" id="path65" xml:space="preserve" connector-curvature="0" style="fill:url(#SVGID_Fill5_);" />
      <linearGradient x1="200.3123" y1="40.60416" x2="211.2801" y2="40.60416" gradientUnits="userSpaceOnUse" gradientTransform="matrix(3.630835, 0, 0, 7.036038, 3.328382, -1.151614)" id="SVGID_Fill6_" xml:space="preserve">
        <stop offset="0.925926%" stop-color="#FFFFFF" stop-opacity="1" id="stop67" xml:space="preserve" />
        <stop offset="100%" stop-color="#FFFFFF" stop-opacity="0" id="stop69" xml:space="preserve" />
      </linearGradient>
      <path d="M142.913 49.1172 L142.125 47.8076 L140.205 49.6018 L140.994 51.9814 L141.725 54.49 L141.177 56.7307 L139.996 58.9958 L139.428 59.69139 L141.27 60.1755 L143.055 60.0117 L144.62 59.4756 L145.201 58.1057 L145.929 56.8411 L146.039 55.5684 L144.758 53.5886 L143.815 52.1504 L143.033 50.7852" stroke-width="0.2" stroke-linejoin="round" id="path72" xml:space="preserve" connector-curvature="0" style="fill:url(#SVGID_Fill6_);" />
      <linearGradient x1="173.5783" y1="79.41284" x2="181.5776" y2="79.41284" gradientUnits="userSpaceOnUse" gradientTransform="matrix(3.995688, 0, 0, 6.393565, 3.328382, -1.151614)" id="SVGID_Fill7_" xml:space="preserve">
        <stop offset="0.925926%" stop-color="#FFFFFF" stop-opacity="1" id="stop74" xml:space="preserve" />
        <stop offset="100%" stop-color="#FFFFFF" stop-opacity="0" id="stop76" xml:space="preserve" />
      </linearGradient>
      <path d="M136.216 90.5332 L136.876 92.8542 L136.961 95.0706 L135.663 97.594 L133.978 99.9421 L132.081 101.727 L131.813 103.006 L133.131 103.557 L135.01 103.357 L136.935 102.284 L138.443 100.673 C138.443 100.673 139.407 99.37701 139.511 98.7141 C139.603 98.137 140.059 96.4734 140.059 96.4734 L140.244 94.6907 L139.48 92.94431 L138.668 91.64381 z" stroke-width="0.2" stroke-linejoin="round" id="path79" xml:space="preserve" connector-curvature="0" style="fill:url(#SVGID_Fill7_);" />
    </g>
    <g transform="matrix(0.2013628, 0, 0, 0.1943955, 1.329787, 1.023869)" id="g155" xml:space="preserve">
      <path d="M105.562 101.582 L149.016 101.488 L149.016 105.577 L105.643 105.644 z" stroke="#000000" stroke-linejoin="bevel" id="path83" xml:space="preserve" connector-curvature="0" style="fill:#FFDE19;" />
      <path d="M148.491 101.61 L156.538 95.7393 L156.538 99.84061 L148.51 105.672 z" stroke="#000000" stroke-linejoin="bevel" id="path85" xml:space="preserve" connector-curvature="0" style="fill:#FFDE19;" />
      <path d="M116.102 95.7385 L156.806 95.429 L148.867 101.658 L106.311 101.465 z" stroke="#000000" stroke-linejoin="bevel" id="path87" xml:space="preserve" connector-curvature="0" style="fill:#FFDE19;" />
      <path d="M147.954 105.953 L155.946 100.733 L155.946 115.488 L147.954 121.585 z" stroke="#000000" stroke-linecap="square" stroke-linejoin="bevel" id="path89" xml:space="preserve" connector-curvature="0" style="fill:#FFFFFF;" />
      <rect x="108.356" y="105.799" width="39.3969" height="15.8635" stroke="#000000" stroke-linecap="square" stroke-linejoin="bevel" id="rect91" xml:space="preserve" style="fill:#FFFFFF;" />
      <path d="M122.259 129.837 L146.489 114.205 L146.489 128.96 L122.259 145.313 z" stroke="#000000" stroke-linecap="square" stroke-linejoin="bevel" id="path93" xml:space="preserve" connector-curvature="0" style="fill:#FFFFFF;" />
      <linearGradient x1="-4.545506" y1="14.33483" x2="33.21462" y2="14.33483" gradientUnits="userSpaceOnUse" gradientTransform="matrix(5.696729, 0, 0, 4.484449, 3.328382, -1.151614)" id="SVGID_Fill8_" xml:space="preserve">
        <stop offset="0.925926%" stop-color="#C0C0C0" stop-opacity="1" id="stop95" xml:space="preserve" />
        <stop offset="19.7949%" stop-color="#8B8B8B" stop-opacity="0.501961" id="stop97" xml:space="preserve" />
        <stop offset="42.1296%" stop-color="#575757" stop-opacity="0" id="stop99" xml:space="preserve" />
        <stop offset="61.1111%" stop-color="#626262" stop-opacity="0" id="stop101" xml:space="preserve" />
        <stop offset="100%" stop-color="#C0C0C0" stop-opacity="0.4" id="stop103" xml:space="preserve" />
      </linearGradient>
      <filter x="none" y="none" width="none" height="none" color-interpolation-filters="auto" id="Filter_GaussianBlur1_" xml:space="preserve" filterUnits="userSpaceOnUse">
        <feGaussianBlur stdDeviation="1.88976" id="feGaussianBlur106" xml:space="preserve" />
      </filter>
      <path d="M119.14 121.554 C127.992 116.684 136.805 116.699 138.826 121.589 C140.846 126.479 135.308 134.391 126.457 139.261 C117.605 144.132 108.791 144.116 106.771 139.227 C104.75 134.337 110.288 126.425 119.14 121.554 z" filter="url(#Filter_GaussianBlur1_)" stroke-width="0.2" stroke-linecap="square" stroke-linejoin="bevel" id="path109" xml:space="preserve" connector-curvature="0" style="fill:url(#SVGID_Fill8_);" />
      <path d="M100.8 128.96 L122.08 128.96 L122.091 145.352 L105.393 145.429 L102.51 144.501 L100.833 141.715 z" stroke="#000000" stroke-linecap="square" stroke-linejoin="bevel" id="path111" xml:space="preserve" connector-curvature="0" style="fill:#FFFFFF;" />
      <path d="M99.1682 124.962 L123.197 124.871 L123.197 128.818 L99.2128 128.883 z" stroke="#000000" id="path113" xml:space="preserve" connector-curvature="0" style="fill:#FFDE19;" />
      <path d="M98.9893 125.013 L125.334 108.692 L147.003 108.543 L122.266 125.026 z" stroke="#000000" id="path115" xml:space="preserve" connector-curvature="0" style="fill:#FFDE19;" />
      <linearGradient x1="43.35319" y1="342.2606" x2="54.57944" y2="342.2606" gradientUnits="userSpaceOnUse" gradientTransform="matrix(17.22732, 0, 0, 1.482917, 3.328382, -1.151614)" id="SVGID_Fill9_" xml:space="preserve">
        <stop offset="0.462963%" stop-color="#B24E04" stop-opacity="1" id="stop117" xml:space="preserve" />
        <stop offset="66.0537%" stop-color="#D06515" stop-opacity="1" id="stop119" xml:space="preserve" />
        <stop offset="99.53699%" stop-color="#EE7C27" stop-opacity="1" id="stop121" xml:space="preserve" />
      </linearGradient>
      <path d="M113.117 99.7346 L146.759 99.698 L150.492 96.6287 L117.432 97.0154 z" stroke-width="0.2" stroke-linecap="square" stroke-linejoin="bevel" id="path124" xml:space="preserve" connector-curvature="0" style="fill:url(#SVGID_Fill9_);" />
      <path d="M123.488 124.6 L147.73 108.079 L147.73 112.877 L123.488 128.831 z" stroke="#000000" stroke-linecap="square" stroke-linejoin="bevel" id="path126" xml:space="preserve" connector-curvature="0" style="fill:#FFDE19;" />
      <linearGradient x1="-4.545562" y1="14.33442" x2="33.21502" y2="14.33442" gradientUnits="userSpaceOnUse" gradientTransform="matrix(5.69677, 0, 0, 4.484417, 3.328382, -1.151614)" id="SVGID_Fill10_" xml:space="preserve">
        <stop offset="0%" stop-color="#C0C0C0" stop-opacity="0" id="stop128" xml:space="preserve" />
        <stop offset="19.505%" stop-color="#989898" stop-opacity="0" id="stop130" xml:space="preserve" />
        <stop offset="42.5926%" stop-color="#707070" stop-opacity="0" id="stop132" xml:space="preserve" />
        <stop offset="78.7037%" stop-color="#6C6C6C" stop-opacity="0" id="stop134" xml:space="preserve" />
        <stop offset="98.6111%" stop-color="#B9B9B9" stop-opacity="0.6" id="stop136" xml:space="preserve" />
      </linearGradient>
      <filter x="none" y="none" width="none" height="none" color-interpolation-filters="auto" id="Filter_GaussianBlur2_" xml:space="preserve" filterUnits="userSpaceOnUse">
        <feGaussianBlur stdDeviation="1.88976" id="feGaussianBlur139" xml:space="preserve" />
      </filter>
      <path d="M125.083 118.455 C133.934 113.585 142.748 113.601 144.769 118.49 C146.789 123.38 141.251 131.292 132.399 136.163 C123.547 141.033 114.734 141.018 112.713 136.128 C110.693 131.238 116.231 123.326 125.083 118.455 z" filter="url(#Filter_GaussianBlur2_)" stroke-width="0.2" stroke-linecap="square" stroke-linejoin="bevel" id="path142" xml:space="preserve" connector-curvature="0" style="fill:url(#SVGID_Fill10_);" />
      <path d="M106.042 128.818 L118.515 128.895 L114.089 134.467 L102.353 134.467 z" stroke="#000000" stroke-linejoin="bevel" id="path144" xml:space="preserve" connector-curvature="0" style="fill:#FFDE19;" />
      <linearGradient x1="85.331" y1="189.0904" x2="101.5954" y2="189.0904" gradientUnits="userSpaceOnUse" gradientTransform="matrix(7.97192, 0, 0, 3.204585, 3.328382, -1.151614)" id="SVGID_Fill11_" xml:space="preserve">
        <stop offset="0.462963%" stop-color="#B24E04" stop-opacity="1" id="stop146" xml:space="preserve" />
        <stop offset="66.0537%" stop-color="#D06515" stop-opacity="1" id="stop148" xml:space="preserve" />
        <stop offset="99.53699%" stop-color="#EE7C27" stop-opacity="1" id="stop150" xml:space="preserve" />
      </linearGradient>
      <path d="M111.989 121.146 L121.936 121.12 L137.046 111.422 L126.674 111.525 z" stroke-width="0.2" stroke-linecap="square" stroke-linejoin="bevel" id="path153" xml:space="preserve" connector-curvature="0" style="fill:url(#SVGID_Fill11_);" />
    </g>
    <g transform="matrix(0.2013628, 0, 0, 0.1943955, 1.329787, 1.023869)" id="g217" xml:space="preserve">
      <path d="M124.502 85.8281 L162.903 64.3604 L162.903 84.6238 L124.502 107.083 z" stroke="#000000" stroke-linecap="square" stroke-linejoin="bevel" id="path157" xml:space="preserve" connector-curvature="0" style="fill:#FFFFFF;" />
      <path d="M90.4932 84.6238 L124.218 84.6238 L124.236 107.137 L97.7731 107.243 L93.2033 105.968 L90.5463 102.142 z" stroke="#000000" stroke-linecap="square" stroke-linejoin="bevel" id="path159" xml:space="preserve" connector-curvature="0" style="fill:#FFFFFF;" />
      <linearGradient x1="-6.706131" y1="21.14833" x2="49.00248" y2="21.14833" gradientUnits="userSpaceOnUse" gradientTransform="matrix(6.119593, 0, 0, 4.174574, 3.328382, -1.151614)" id="SVGID_Fill12_" xml:space="preserve">
        <stop offset="0.925926%" stop-color="#C0C0C0" stop-opacity="1" id="stop161" xml:space="preserve" />
        <stop offset="19.7949%" stop-color="#8B8B8B" stop-opacity="0.501961" id="stop163" xml:space="preserve" />
        <stop offset="42.1296%" stop-color="#575757" stop-opacity="0" id="stop165" xml:space="preserve" />
        <stop offset="61.1111%" stop-color="#626262" stop-opacity="0" id="stop167" xml:space="preserve" />
        <stop offset="100%" stop-color="#C0C0C0" stop-opacity="0.4" id="stop169" xml:space="preserve" />
      </linearGradient>
      <filter x="none" y="none" width="none" height="none" color-interpolation-filters="auto" id="Filter_GaussianBlur3_" xml:space="preserve" filterUnits="userSpaceOnUse">
        <feGaussianBlur stdDeviation="1.88976" id="feGaussianBlur172" xml:space="preserve" />
      </filter>
      <path d="M119.559 74.4617 C133.588 67.7725 147.556 67.7937 150.758 74.5088 C153.96 81.2244 145.183 92.0908 131.155 98.78 C117.126 105.469 103.158 105.448 99.9558 98.7324 C96.75368 92.0173 105.531 81.1504 119.559 74.4617 z" filter="url(#Filter_GaussianBlur3_)" stroke-width="0.2" stroke-linecap="square" stroke-linejoin="bevel" id="path175" xml:space="preserve" connector-curvature="0" style="fill:url(#SVGID_Fill12_);" />
      <path d="M87.9071 79.1326 L125.99 79.0085 L125.99 84.4287 L87.978 84.5173 z" stroke="#000000" id="path177" xml:space="preserve" connector-curvature="0" style="fill:#80AF64;" />
      <linearGradient x1="93.46176" y1="123.48" x2="141.2751" y2="123.48" gradientUnits="userSpaceOnUse" gradientTransform="matrix(9.031653, 0, 0, 2.828573, 3.328382, -1.151614)" id="SVGID_Fill13_" xml:space="preserve">
        <stop offset="0%" stop-color="#8FC072" stop-opacity="1" id="stop179" xml:space="preserve" />
        <stop offset="66.2037%" stop-color="#87B76B" stop-opacity="1" id="stop181" xml:space="preserve" />
        <stop offset="100%" stop-color="#80AF64" stop-opacity="1" id="stop183" xml:space="preserve" />
      </linearGradient>
      <path d="M87.6237 79.2034 L129.376 56.7881 L163.718 56.5842 L124.514 79.2214 z" stroke="#000000" id="path186" xml:space="preserve" connector-curvature="0" style="fill:url(#SVGID_Fill13_);" />
      <linearGradient x1="85.40946" y1="120.5772" x2="109.4055" y2="120.5772" gradientUnits="userSpaceOnUse" gradientTransform="matrix(8.56354, 0, 0, 2.983193, 3.328382, -1.151614)" id="SVGID_Fill14_" xml:space="preserve">
        <stop offset="0%" stop-color="#316013" stop-opacity="1" id="stop188" xml:space="preserve" />
        <stop offset="66.2037%" stop-color="#447327" stop-opacity="1" id="stop190" xml:space="preserve" />
        <stop offset="100%" stop-color="#58873B" stop-opacity="1" id="stop192" xml:space="preserve" />
      </linearGradient>
      <path d="M107.675 74.5273 L123.439 74.4919 L147.387 61.1719 L130.949 61.3135 z" stroke-width="0.2" stroke-linecap="square" stroke-linejoin="bevel" id="path195" xml:space="preserve" connector-curvature="0" style="fill:url(#SVGID_Fill14_);" />
      <path d="M126.45 78.6367 L164.869 55.9465 L164.869 62.5359 L126.45 84.4463 z" stroke="#000000" stroke-linecap="square" stroke-linejoin="bevel" id="path197" xml:space="preserve" connector-curvature="0" style="fill:#80AF64;" />
      <linearGradient x1="-6.706111" y1="21.14834" x2="49.00238" y2="21.14798" gradientUnits="userSpaceOnUse" gradientTransform="matrix(6.11958, 0, 0, 4.174583, 3.328382, -1.151614)" id="SVGID_Fill15_" xml:space="preserve">
        <stop offset="0%" stop-color="#C0C0C0" stop-opacity="0" id="stop199" xml:space="preserve" />
        <stop offset="19.505%" stop-color="#989898" stop-opacity="0" id="stop201" xml:space="preserve" />
        <stop offset="42.5926%" stop-color="#707070" stop-opacity="0" id="stop203" xml:space="preserve" />
        <stop offset="78.7037%" stop-color="#6C6C6C" stop-opacity="0" id="stop205" xml:space="preserve" />
        <stop offset="98.6111%" stop-color="#B9B9B9" stop-opacity="0.6" id="stop207" xml:space="preserve" />
      </linearGradient>
      <filter x="none" y="none" width="none" height="none" color-interpolation-filters="auto" id="Filter_GaussianBlur4_" xml:space="preserve" filterUnits="userSpaceOnUse">
        <feGaussianBlur stdDeviation="1.88976" id="feGaussianBlur210" xml:space="preserve" />
      </filter>
      <path d="M128.977 70.2051 C143.006 63.5159 156.974 63.5374 160.176 70.2527 C163.378 76.968 154.601 87.8347 140.573 94.5237 C126.544 101.213 112.576 101.191 109.374 94.4763 C106.172 87.7607 114.949 76.89429 128.977 70.20509 z" filter="url(#Filter_GaussianBlur4_)" stroke-width="0.2" stroke-linecap="square" stroke-linejoin="bevel" id="path213" xml:space="preserve" connector-curvature="0" style="fill:url(#SVGID_Fill15_);" />
      <path d="M98.8005 84.4287 L118.568 84.5349 L111.554 92.18681 L92.9553 92.18681 z" stroke="#000000" stroke-linejoin="bevel" id="path215" xml:space="preserve" connector-curvature="0" style="fill:#80AF64;" />
    </g>
    <path d="M6.817667 12.68095 C10.53243 16.06983 12.75606 19.02866 16.45982 22.44314 C17.66931 23.58969 19.72009 26.11586 20.89011 27.28456 C21.0454 29.1113 20.91271 28.49914 20.77112 31.32565 C20.85016 34.23867 20.70594 37.15519 20.84172 40.06645 C21.208 40.8349 22.11224 41.24721 22.72579 41.84809 C24.86708 43.49073 27.63602 45.51925 30.25958 46.52583 C30.90032 46.5789 31.48084 46.53283 31.32116 46.09874 C31.31956 39.89635 31.18907 33.56781 31.33747 27.36601 C32.36281 26.05851 34.10903 24.58032 35.37077 23.17368 C39.26009 19.62522 41.70121 16.61845 45.56315 13.04929 C28.74352 15.84576 19.98968 13.99259 6.817673 12.68095 z" stroke="#EEEEEC" stroke-width="0.5935454" id="path230" xml:space="preserve" connector-curvature="0" style="fill:url(#SVGID_Fill16_);" />
    <path d="M46.68131 11.55972 C46.68131 13.40117 37.6659 14.89424 26.54524 14.89424 C15.62262 14.89424 6.731102 13.45392 6.417418 11.65791" stroke="#2E3436" stroke-width="1.978485" id="path232" xml:space="preserve" connector-curvature="0" style="fill:none;" />
    <path d="M6.318831 11.9732 L21.06291 27.3458 L21.06291 40.27854 C24.41965 43.8628 27.92941 45.82328 31.51044 47.02912 L31.51044 27.42725 L46.50733 12.05472" stroke="#2E3436" stroke-width="0.9892423" stroke-linejoin="round" id="path234" xml:space="preserve" connector-curvature="0" style="fill:none;" />
  </g>
</svg>