<svg enable-background="new 0 0 220.00 220.00" height="220" viewBox="0 0 220 220" width="220" xmlns="http://www.w3.org/2000/svg"><g stroke-linejoin="round"><g stroke="#000"><path d="m122.387 122.764c1.25 1.833 3.166 5.166 3.958 8.166s.458 5.667-.375 7.917-2.167 4.083-4.167 5.625-4.666 2.792-9.666 4.292-12.3338 3.25-18.7504 5.166c-6.4166 1.917-11.9166 4-15.8334 6.417-3.9166 2.417-6.25 5.167-7.7082 8.042-1.4584 2.875-2.0418 5.875-2 9.041.0416 3.167.7082 6.5.9582 8.167s.0834 1.667-1.2082.958c-1.2918-.708-3.7084-2.125-6.1668-4.958-2.4582-2.833-4.9582-7.083-8.625-12.708-3.6666-5.625-8.5-12.625-11.6666-17s-4.6666-6.125-6.6666-7.625-4.5-2.75-6.5-3.5-3.5-1-4.25-1.334c-.75-.333-.75-.75-.7918-2.625-.0416-1.875-.125-5.208.4168-8.583.5416-3.375 1.7082-6.792 3.5-9.708 1.7916-2.917 4.2082-5.334 6.1666-7.167s3.4584-3.083 5.375-4.375 4.25-2.625 7.125-3.833c2.875-1.209 6.2916-2.292 9-2.875 2.7084-.5837 4.7084-.667 15.5 2.75 10.7916 3.416 30.3754 10.333 40.4584 13.958s10.667 3.958 11.917 5.792z" fill="#fff" stroke-width="3"/><path d="m91.0266 133.588c.4723-.209 1.5557-.459 2.8613-.667 1.3055-.208 2.8332-.375 3.9998-.514 1.1667-.139 1.9724-.25 3.1943-.236 1.222.014 2.861.153 4.778.625s4.111 1.278 5.597 1.778 2.264.694 2.903.555 1.139-.611 1.75-.861 1.333-.278 2.389-.291c1.055-.014 2.444-.014 3.5.055 1.055.069 1.778.208 2.431.542.652.333 1.236.861 1.597 1.625s.5 1.764.278 2.805c-.223 1.042-.806 2.125-1.598 3.098-.791.972-1.791 1.833-3.264 2.68-1.472.847-3.416 1.681-5.416 2.361-2 .681-4.056 1.208-5.25 1.445-1.195.236-1.528.18-1.917-.07s-.833-.694-2-1.625c-1.167-.93-3.056-2.347-5.569-4.319-2.5143-1.973-5.6533-4.5-7.5005-6-1.8471-1.5-2.4028-1.973-2.75-2.292-.3471-.319-.4861-.486-.0139-.694z" stroke-width="3"/><path d="m79.0823 122.727c.6388.43 1.6944 1.458 3.2916 2.999 1.5972 1.542 3.7362 3.598 5.0557 4.889 1.3193 1.292 1.8193 1.82 2.1803 2.195.3612.375.5835.597.6806.736.0972.139.0696.194-.3471.25-.4167.055-1.2223.111-2.4723.278-1.25.166-2.9444.444-4.6249.93-1.6807.486-3.3473 1.181-4.7916 1.875-1.4445.695-2.6669 1.389-3.6947 2.014-1.0276.625-1.861 1.181-2.625 1.709-.7638.527-1.4582 1.027-1.9026 1.347-.4446.319-.6389.458-.8472.486-.2084.028-.4307-.056-1.2085-.681-.7777-.625-2.1111-1.791-3.375-3-1.2639-1.208-2.4582-2.458-3.4027-3.43-.9445-.973-1.6388-1.667-2.0834-2.125-.4444-.459-.6388-.681-.7221-.848-.0833-.166-.0557-.277.2639-.638.3194-.362.9304-.973 2.0138-1.723 1.0833-.75 2.639-1.639 3.9862-2.319 1.3471-.681 2.4861-1.153 3.6528-1.625 1.1666-.472 2.361-.945 3.611-1.445s2.5556-1.027 3.514-1.361c.9583-.333 1.5693-.472 1.9722-.541.4028-.07.5971-.07.8054-.153.2084-.083.4307-.25 1.0696.181z" stroke-width="3"/><path d="m64.1239 110.768c.4584.528 1.5416 1.528 2.9027 2.722 1.3611 1.195 3.0001 2.584 4.4307 3.709 1.4304 1.125 2.6528 1.986 3.6111 2.555.9583.57 1.6527.847 2.2639 1.056.6111.208 1.1388.347 1.6943.5.5557.153 1.1389.319 2.0557.403.9166.083 2.1666.083 3.1526.111.9862.027 1.7085.083 2.153.097.4444.014.611-.014-.0833-.708-.6945-.695-2.2502-2.056-4.3752-3.723-2.125-1.666-4.8193-3.639-6.7777-4.944-1.9583-1.306-3.1806-1.945-3.9585-2.25-.7777-.306-1.1109-.278-2.0277-.292-.9166-.014-2.4166-.069-3.375-.055-.9582.014-1.375.097-1.6666.166-.2916.07-.4584.125 0 .653z" stroke-width="3"/><path d="m53.0962 102.06c.4305.264 1.1249.875 2.0832 1.639s2.1807 1.68 3.1668 2.416 1.7361 1.292 2.4304 1.862c.6945.569 1.3335 1.152 1.7085 1.527s.486.542.3888.709c-.0972.166-.4028.333-1 .597s-1.4862.625-2.9445 1.305c-1.4583.681-3.486 1.681-5.2082 2.57-1.7223.889-3.1389 1.666-4.4583 2.472-1.3195.806-2.5418 1.639-3.2918 2.195-.75.555-1.0277.833-1.4306.805-.4028-.028-.9304-.361-1.5693-.833-.6389-.473-1.3889-1.084-2.5833-2.097-1.1945-1.014-2.8335-2.431-3.9585-3.403-1.125-.973-1.736-1.5-1.9582-1.917-.2223-.417-.0557-.722 2.3887-2.111 2.4445-1.389 7.1668-3.861 10.014-5.32 2.8472-1.458 3.8195-1.902 4.4166-2.152.5972-.25.8196-.306 1.0141-.375.1943-.07.3609-.153.7916.111z" stroke-width="3"/><path d="m33.8323 142.879c-.2779-.472-.3056-.944-.2639-1.847s.1527-2.236.4027-3.417c.25-1.18.639-2.208 1.139-3.277.5-1.07 1.111-2.181 1.8054-3.334.6946-1.153 1.4722-2.347 2.2639-3.5s1.5973-2.264 2.2361-3.111c.6389-.847 1.1112-1.43 1.4862-1.875.375-.444.6527-.75.8332-.917.1806-.166.264-.194.403-.18.1388.014.3332.069 1.1526.653.8196.583 2.2639 1.694 3.875 3.014 1.6112 1.319 3.3889 2.847 4.6527 3.944 1.2641 1.097 2.0141 1.764 2.4584 2.208.4445.445.5835.667.6251.862.0417.194-.014.361-.4723.666-.4583.306-1.3193.75-2.0832 1.361s-1.4307 1.389-2.3057 2.653-1.9582 3.014-2.8473 4.583c-.8888 1.57-1.5831 2.959-2.1665 4.375-.5833 1.417-1.0556 2.861-1.4585 3.959-.4027 1.097-.7359 1.847-.9583 2.472-.2222.625-.3332 1.125-.4303 1.444-.0973.32-.1807.459-.3057.487-.125.027-.2916-.056-1.139-1.028-.8472-.973-2.3748-2.834-3.7498-4.445s-2.5974-2.972-3.4724-3.889c-.875-.916-1.4026-1.389-1.6804-1.861z" stroke-width="3"/><path d="m68.7767 187.31c-.4166-.097-1.139-.347-2.1112-.861-.9721-.514-2.1944-1.292-3.25-2.361-1.0554-1.07-1.9444-2.431-2.9861-4.125-1.0417-1.695-2.236-3.723-2.986-5.486-.75-1.764-1.0557-3.264-1.264-4.598-.2083-1.333-.3193-2.5-.0277-4.416.2917-1.917.986-4.584 2.0415-7.375 1.0557-2.792 2.4723-5.709 3.6807-7.709s2.2084-3.083 3.2084-4.125c1-1.041 2-2.041 2.7082-2.569.7084-.528 1.125-.584 1.5141-.514.3888.069.7498.264 1.5136.903.7641.639 1.9307 1.722 3.8057 3.319s4.4584 3.708 6.0973 5.111 2.3332 2.097 2.8193 2.681c.4862.583.7639 1.055.8889 1.417.125.361.0973.611-.111.819s-.5973.375-1.3473.667c-.75.291-1.861.708-3.2499 1.402-1.3889.695-3.0557 1.667-4.5416 2.875-1.4862 1.209-2.7919 2.653-3.7502 3.973-.9583 1.319-1.5693 2.513-1.9998 3.972-.4307 1.458-.6807 3.18-.8057 4.875-.125 1.694-.125 3.361-.0277 5.069.0972 1.709.2915 3.459.4443 4.639.1529 1.181.2639 1.792.2639 2.125s-.111.389-.5277.292z" stroke-width="3"/><path d="m130.887 26.1944c-4.612.3888-13.389 2.1665-22.445 4.4997-9.0554 2.3334-18.3888 5.2224-27.7777 9.0003-9.3889 3.7776-18.8332 8.4443-25.4999 12.3332-6.6666 3.8889-10.5556 6.9999-13.8335 11.1665-3.2777 4.1668-5.9443 9.3891-7.1666 12.2779-1.2222 2.8889-.9999 3.4445 4.1113 7.6667 5.111 4.2222 15.111 12.1111 23.7776 18.8893 8.6668 6.777 16 12.444 24.3891 17.888 8.3888 5.445 17.8327 10.667 22.9997 13.389s6.056 2.945 6.222 2.5c.167-.444-.389-1.555-.777-3.333-.389-1.778-.612-4.222.833-6.611 1.444-2.389 4.555-4.722 8.889-6.5 4.333-1.778 9.889-3 15.444-3.667 5.556-.667 11.111-.777 13.889-1 2.778-.222 2.778-.555-.611-15.0553-3.389-14.5-10.167-43.1667-13.778-58-3.611-14.8334-4.055-15.8334-8.666-15.4443z" fill="#fff" stroke-width="3"/><path d="m107.254 32.4908c-1.406.3515-4.167 1.1065-6.839 1.8383-2.6716.7317-5.255 1.4401-7.5675 2.1172-2.3125.677-4.3541 1.3229-6.4062 2.0313-2.0521.7082-4.1146 1.4791-5.125 1.9062-1.0104.427-.9688.5104-.6354 1.1145.3333.6043.9583 1.7293 1.9375 3.3438.9791 1.6146 2.3125 3.7187 3.4166 5.573 1.1042 1.8541 1.9792 3.4582 2.7813 4.9687.8021 1.5104 1.5312 2.927 1.9584 3.7291.427.8022.552.9897.6145 1.0834.0625.0938.0625.0938 1.0937-.2084 1.0313-.3021 3.0938-.9062 5.2084-1.5416 2.1146-.6355 4.2817-1.3021 6.3857-1.9167 2.104-.6145 4.146-1.177 5.968-1.7083 1.823-.5312 3.428-1.0312 4.636-1.448 1.208-.4166 2.021-.75 2.406-1.0104.386-.2603.344-.4478-.073-1.4271-.416-.9791-1.208-2.75-2.021-4.6354-.812-1.8853-1.645-3.8853-2.458-5.7708-.812-1.8854-1.604-3.6563-2.135-4.8125-.532-1.1563-.802-1.6979-.99-2.0729-.187-.375-.292-.5834-.385-.7891-.094-.2057-.177-.4087-.245-.5362-.068-.1277-.12-.1797-1.526.1719z" stroke-width=".2"/><path d="m67.2278 71.562c.125-.0833.125-.1667-1.0418-1.5-1.1666-1.3333-3.5-3.9167-5.75-6.3958-2.25-2.4792-4.4166-4.8542-5.8957-6.4167-1.4793-1.5625-2.2709-2.3125-2.7293-2.5625-.4582-.25-.5832 0-1.5625.8125-.9791.8125-2.8125 2.1875-4.6666 3.8125s-3.7291 3.5-5.2291 5.3125-2.625 3.5625-3.5 4.875-1.5 2.1875-2.0625 3.3958c-.5625 1.2084-1.0625 2.75-1.3125 3.6875s-.25 1.2709-.1668 1.4792c.0834.2083.25.2917 2.7709 2.3125s7.3959 5.9792 10.0209 8.0625 3 2.2917 3.2082 2.3333c.2084.0417.25-.0833.5418-.8125.2916-.7291.8332-2.0625 1.3957-3.2291.5625-1.1667 1.1459-2.1667 1.8125-3.0834.6668-.9166 1.4168-1.75 2.1668-2.5833s1.5-1.6667 2.4166-2.5625 2-1.8542 3.0209-2.6667c1.0207-.8125 1.9791-1.4791 2.7916-2.0416s1.4791-1.0209 1.9791-1.3334.8334-.4791 1.125-.6041c.2918-.125.5418-.2084.6668-.2917z"/><path d="m81.6135 89.0876c-.2187.0937-.2396.1146-1.9375-1.9584-1.698-2.0729-5.073-6.2395-7.375-9.1041-2.3021-2.8647-3.5312-4.4272-4.1355-5.2292-.6041-.8021-.5832-.8437-.0312-1.25.5521-.4062 1.6355-1.1771 3.323-2.1667 1.6875-.9895 3.9791-2.1979 5.8854-3.1354 1.9062-.9375 3.4271-1.6041 4.7396-2.1875s2.4166-1.0834 3.4791-1.5625 2.0834-.9375 2.9584-1.3021c.875-.3645 1.6041-.6354 2.0729-.8229.4687-.1875.6771-.2916.7916-.3334.1146-.0416.1355-.0207.4167.5.2813.5209.8229 1.5418 1.6458 2.9897.823 1.4478 1.9271 3.3228 3.3646 5.6666 1.4375 2.3437 3.2086 5.1562 4.3026 6.8959 1.093 1.7396 1.51 2.4062 1.718 2.7812.209.375.209.4584-.156.6354-.365.1771-1.094.448-2.51 1.0521-1.4171.6041-3.5212 1.5416-5.2817 2.3438-1.7604.8021-3.177 1.4687-4.5729 2.1146-1.3959.6457-2.7709 1.2707-4.0416 1.875-1.2709.6041-2.4375 1.1875-3.0209 1.4791s-.5834.2916-.7916.375c-.2084.0834-.625.25-.8438.3438z"/><path d="m80.8948 89.3167c.0625-.0104.1041.0105.7707.7605.6668.75 1.9584 2.2291 3.6355 4.3125 1.677 2.0832 3.7395 4.7707 5.125 6.6143 1.3854 1.844 2.0938 2.844 2.7813 3.781.6875.938 1.3541 1.813 1.8125 2.365.4582.552.7082.781.7291.958s-.1875.302-.6771.75c-.4895.448-1.2604 1.219-1.9375 2.115-.677.896-1.2604 1.917-1.7395 2.99-.4793 1.072-.8543 2.197-1.073 3.364-.2188 1.167-.2813 2.375-.3125 3.073-.0313.698-.0313.885-1.6041-.125-1.5729-1.01-4.7188-3.219-8.2917-5.75-3.573-2.531-7.573-5.385-9.6875-6.99-2.1146-1.604-2.3437-1.958-2.4375-2.354-.0937-.396-.0521-.833.1145-1.604.1668-.771.4584-1.875.9063-2.823.448-.9477 1.0521-1.7393 2-2.8852.948-1.1459 2.2396-2.6459 3.3125-3.6875 1.073-1.0416 1.9271-1.625 2.7084-2.1979.7812-.573 1.4896-1.1355 2.0833-1.5625.5938-.4271 1.0729-.7187 1.3542-.8855.2812-.1666.3646-.2082.4271-.2187z"/><path d="m114.634 98.5459c-.031-.0521-.073-.073-.635.1042-.563.1771-1.646.5521-2.969 1.1041-1.323.5518-2.885 1.2808-4.187 1.9168-1.302.635-2.344 1.177-3.719 1.958s-3.083 1.802-4.2501 2.531c-1.1666.73-1.7916 1.167-2.1666 1.448-.375.282-.5.407-.1459.99s1.1875 1.625 2.6979 3.406c1.5107 1.781 3.6977 4.302 5.7817 6.688 2.083 2.385 4.062 4.635 5.27 5.968 1.209 1.334 1.646 1.75 2.261 2.115.614.365 1.406.677 2.177.823s1.521.125 2.469-.563c.948-.687 2.093-2.041 2.916-3.229.823-1.187 1.323-2.208 1.719-2.979s.688-1.292.886-1.927c.197-.635.302-1.385.27-2.042-.031-.656-.198-1.218-.677-2.333s-1.271-2.781-2.198-4.802-1.989-4.396-2.843-6.188c-.855-1.791-1.5-3-1.844-3.6453-.344-.6459-.386-.7293-.458-.823-.073-.0938-.178-.1979-.24-.2916-.063-.0938-.083-.1772-.115-.2292z"/><path d="m126.259 72.5876c.157.0103.177.0937.563 1.1875.385 1.0937 1.135 3.1978 2.125 5.8228.989 2.625 2.219 5.7709 3.062 8.0418.844 2.2707 1.302 3.6666 1.459 4.3645.156.698.01.698-.49.7917-.5.0938-1.354.2813-2.5.5938s-2.583.75-4.083 1.1979c-1.5.4478-3.063.9062-4.469 1.3125-1.406.4062-2.656.7603-3.792 1.1146-1.135.3541-2.156.7082-2.677.875-.521.1666-.541.1457-1.156-.6875-.615-.8334-1.823-2.4793-3.208-4.5209-1.386-2.0416-2.948-4.4791-4.146-6.4062-1.198-1.9272-2.031-3.3438-2.583-4.3334-.553-.9895-.823-1.552-.98-1.8541-.156-.3022-.198-.3438.042-.4688s.76-.3334 2.677-.9584 5.229-1.6666 8.011-2.5312c2.781-.8645 5.031-1.552 6.843-2.0938 1.813-.5416 3.188-.9375 4.021-1.1666s1.125-.2916 1.281-.2812z"/><path d="m139.186 48.5876c-.104-.0729-.333-.0729-1.354.0103-1.021.0834-2.833.25-4.937.5625s-4.5.7709-6.865 1.2813c-2.364.5105-4.698 1.073-6.073 1.4062-1.375.3334-1.791.4375-1.739 1.0625s.573 1.7709 1.166 3.1772c.594 1.4062 1.261 3.0728 1.948 4.7083.688 1.6354 1.396 3.2395 2.073 4.7917.677 1.5521 1.323 3.0521 1.75 4.1041.427 1.0521.636 1.6562.781 2.0312.146.375.23.5209.292.5938.063.073.104.073.448.0209.344-.0522.99-.1563 2.323-.3959 1.333-.2395 3.354-.6145 5.031-1.0313 1.677-.4166 3.011-.875 4.198-1.2291 1.188-.3541 2.229-.6041 3.167-.7709.937-.1666 1.771-.25 2.344-.302.572-.0521.885-.073 1.031-.1355s.125-.1666-.761-3.2603c-.885-3.0938-2.635-9.1772-3.573-12.3854-.937-3.2084-1.062-3.5418-1.114-3.7813-.052-.2396-.031-.3855-.136-.4583z"/><path d="m149.905 89.8688c-.177-.0625-.448-.0416-1.531.0834s-2.979.3541-4.76.6562c-1.782.302-3.448.677-4.875.9895-1.428.3125-2.615.5625-3.375.75-.761.1875-1.094.3125-1.24.4897-.146.1771-.104.4062.323 1.6041.427 1.198 1.239 3.3646 2.281 6.1253 1.042 2.76 2.313 6.114 3.177 8.333.865 2.219 1.323 3.302 1.677 4.104s.604 1.323 1.313 1.542c.708.219 1.875.135 3.208.083s2.833-.073 4.271-.083c1.437-.011 2.812-.011 3.906.031s1.906.125 2.313.167h.406c0-.042 0-.125-1.115-4.177-1.114-4.052-3.343-12.0732-4.468-16.1253-1.125-4.052-1.146-4.1354-1.198-4.25-.052-.1145-.136-.2604-.313-.3229z"/><path d="m168.666 157.461c-7.75-31.484-20.667-83.8452-27.042-110.0258-6.375-26.1807-6.208-26.1807-5.125-26.264s3.083-.25 4.083-.25 1 .1667 8.917 31.5 23.75 93.8338 31.667 125.0838c7.916 31.25 7.916 31.25 6.823 31.442-1.094.193-3.282.579-4.532.813s-1.562.318-3.01-4.945c-1.448-5.262-4.031-15.869-11.781-47.354z" fill="#fff" stroke-width="4"/></g><path d="m136.582 7.90054c-5.247 0-9.5 3.51656-9.5 7.85416s4.253 7.854 9.5 7.854 9.5-3.5164 9.5-7.854-4.253-7.85416-9.5-7.85416z" stroke-width=".2"/><path d="m138.062 9.81705c-3.556 0-6.438 2.32265-6.438 5.18745 0 2.8649 2.882 5.1875 6.438 5.1875 3.555 0 6.437-2.3226 6.437-5.1875 0-2.8648-2.882-5.18745-6.437-5.18745z" fill="#fff" stroke-width=".2"/></g></svg>