<?xml version="1.0" encoding="utf-8"?>
<!DOCTYPE svg PUBLIC "-//W3C//DTD SVG 1.1//EN" "http://www.w3.org/Graphics/SVG/1.1/DTD/svg11.dtd">
<svg xmlns="http://www.w3.org/2000/svg" xmlns:xlink="http://www.w3.org/1999/xlink" version="1.1" baseProfile="full" width="220" height="220" viewBox="0 0 220.00 220.00" enable-background="new 0 0 220.00 220.00" xml:space="preserve">
	<g>
		<path fill="#FFFFFF" fill-opacity="1" stroke-width="3" stroke-linejoin="round" stroke="#000000" stroke-opacity="1" d="M 122.387,122.764C 123.637,124.597 125.553,127.93 126.345,130.93C 127.137,133.93 126.803,136.597 125.97,138.847C 125.137,141.097 123.803,142.93 121.803,144.472C 119.803,146.014 117.137,147.264 112.137,148.764C 107.137,150.264 99.8032,152.014 93.3866,153.93C 86.97,155.847 81.47,157.93 77.5532,160.347C 73.6366,162.764 71.3032,165.514 69.845,168.389C 68.3866,171.264 67.8032,174.264 67.845,177.43C 67.8866,180.597 68.5532,183.93 68.8032,185.597C 69.0532,187.264 68.8866,187.264 67.595,186.555C 66.3032,185.847 63.8866,184.43 61.4282,181.597C 58.97,178.764 56.47,174.514 52.8032,168.889C 49.1366,163.264 44.3032,156.264 41.1366,151.889C 37.97,147.514 36.47,145.764 34.47,144.264C 32.47,142.764 29.97,141.514 27.97,140.764C 25.97,140.014 24.47,139.764 23.72,139.43C 22.97,139.097 22.97,138.68 22.9282,136.805C 22.8866,134.93 22.8032,131.597 23.345,128.222C 23.8866,124.847 25.0532,121.43 26.845,118.514C 28.6366,115.597 31.0532,113.18 33.0116,111.347C 34.97,109.514 36.47,108.264 38.3866,106.972C 40.3032,105.68 42.6366,104.347 45.5116,103.139C 48.3866,101.93 51.8032,100.847 54.5116,100.264C 57.22,99.6803 59.22,99.597 70.0116,103.014C 80.8032,106.43 100.387,113.347 110.47,116.972C 120.553,120.597 121.137,120.93 122.387,122.764 Z "/>
		<path fill="#000000" fill-opacity="1" stroke-width="3" stroke-linejoin="round" stroke="#000000" stroke-opacity="1" d="M 91.0266,133.588C 91.4989,133.379 92.5823,133.129 93.8879,132.921C 95.1934,132.713 96.7211,132.546 97.8877,132.407C 99.0544,132.268 99.8601,132.157 101.082,132.171C 102.304,132.185 103.943,132.324 105.86,132.796C 107.777,133.268 109.971,134.074 111.457,134.574C 112.943,135.074 113.721,135.268 114.36,135.129C 114.999,134.99 115.499,134.518 116.11,134.268C 116.721,134.018 117.443,133.99 118.499,133.977C 119.554,133.963 120.943,133.963 121.999,134.032C 123.054,134.101 123.777,134.24 124.43,134.574C 125.082,134.907 125.666,135.435 126.027,136.199C 126.388,136.963 126.527,137.963 126.305,139.004C 126.082,140.046 125.499,141.129 124.707,142.102C 123.916,143.074 122.916,143.935 121.443,144.782C 119.971,145.629 118.027,146.463 116.027,147.143C 114.027,147.824 111.971,148.351 110.777,148.588C 109.582,148.824 109.249,148.768 108.86,148.518C 108.471,148.268 108.027,147.824 106.86,146.893C 105.693,145.963 103.804,144.546 101.291,142.574C 98.7767,140.601 95.6377,138.074 93.7905,136.574C 91.9434,135.074 91.3877,134.601 91.0405,134.282C 90.6934,133.963 90.5544,133.796 91.0266,133.588 Z "/>
		<path fill="#000000" fill-opacity="1" stroke-width="3" stroke-linejoin="round" stroke="#000000" stroke-opacity="1" d="M 79.0823,122.727C 79.7211,123.157 80.7767,124.185 82.3739,125.726C 83.9711,127.268 86.1101,129.324 87.4296,130.615C 88.7489,131.907 89.2489,132.435 89.6099,132.81C 89.9711,133.185 90.1934,133.407 90.2905,133.546C 90.3877,133.685 90.3601,133.74 89.9434,133.796C 89.5267,133.851 88.7211,133.907 87.4711,134.074C 86.2211,134.24 84.5267,134.518 82.8462,135.004C 81.1655,135.49 79.4989,136.185 78.0546,136.879C 76.6101,137.574 75.3877,138.268 74.3599,138.893C 73.3323,139.518 72.4989,140.074 71.7349,140.602C 70.9711,141.129 70.2767,141.629 69.8323,141.949C 69.3877,142.268 69.1934,142.407 68.9851,142.435C 68.7767,142.463 68.5544,142.379 67.7766,141.754C 66.9989,141.129 65.6655,139.963 64.4016,138.754C 63.1377,137.546 61.9434,136.296 60.9989,135.324C 60.0544,134.351 59.3601,133.657 58.9155,133.199C 58.4711,132.74 58.2767,132.518 58.1934,132.351C 58.1101,132.185 58.1377,132.074 58.4573,131.713C 58.7767,131.351 59.3877,130.74 60.4711,129.99C 61.5544,129.24 63.1101,128.351 64.4573,127.671C 65.8044,126.99 66.9434,126.518 68.1101,126.046C 69.2767,125.574 70.4711,125.101 71.7211,124.601C 72.9711,124.101 74.2767,123.574 75.2351,123.24C 76.1934,122.907 76.8044,122.768 77.2073,122.699C 77.6101,122.629 77.8044,122.629 78.0127,122.546C 78.2211,122.463 78.4434,122.296 79.0823,122.727 Z "/>
		<path fill="#000000" fill-opacity="1" stroke-width="3" stroke-linejoin="round" stroke="#000000" stroke-opacity="1" d="M 64.1239,110.768C 64.5823,111.296 65.6655,112.296 67.0266,113.49C 68.3877,114.685 70.0267,116.074 71.4573,117.199C 72.8877,118.324 74.1101,119.185 75.0684,119.754C 76.0267,120.324 76.7211,120.601 77.3323,120.81C 77.9434,121.018 78.4711,121.157 79.0266,121.31C 79.5823,121.463 80.1655,121.629 81.0823,121.713C 81.9989,121.796 83.2489,121.796 84.2349,121.824C 85.2211,121.851 85.9434,121.907 86.3879,121.921C 86.8323,121.935 86.9989,121.907 86.3046,121.213C 85.6101,120.518 84.0544,119.157 81.9294,117.49C 79.8044,115.824 77.1101,113.851 75.1517,112.546C 73.1934,111.24 71.9711,110.601 71.1932,110.296C 70.4155,109.99 70.0823,110.018 69.1655,110.004C 68.2489,109.99 66.7489,109.935 65.7905,109.949C 64.8323,109.963 64.4155,110.046 64.1239,110.115C 63.8323,110.185 63.6655,110.24 64.1239,110.768 Z "/>
		<path fill="#000000" fill-opacity="1" stroke-width="3" stroke-linejoin="round" stroke="#000000" stroke-opacity="1" d="M 53.0962,102.06C 53.5267,102.324 54.2211,102.935 55.1794,103.699C 56.1377,104.463 57.3601,105.379 58.3462,106.115C 59.3323,106.851 60.0823,107.407 60.7766,107.977C 61.4711,108.546 62.1101,109.129 62.4851,109.504C 62.8601,109.879 62.9711,110.046 62.8739,110.213C 62.7767,110.379 62.4711,110.546 61.8739,110.81C 61.2767,111.074 60.3877,111.435 58.9294,112.115C 57.4711,112.796 55.4434,113.796 53.7212,114.685C 51.9989,115.574 50.5823,116.351 49.2629,117.157C 47.9434,117.963 46.7211,118.796 45.9711,119.352C 45.2211,119.907 44.9434,120.185 44.5405,120.157C 44.1377,120.129 43.6101,119.796 42.9712,119.324C 42.3323,118.851 41.5823,118.24 40.3879,117.227C 39.1934,116.213 37.5544,114.796 36.4294,113.824C 35.3044,112.851 34.6934,112.324 34.4712,111.907C 34.2489,111.49 34.4155,111.185 36.8599,109.796C 39.3044,108.407 44.0267,105.935 46.8739,104.476C 49.7211,103.018 50.6934,102.574 51.2905,102.324C 51.8877,102.074 52.1101,102.018 52.3046,101.949C 52.4989,101.879 52.6655,101.796 53.0962,102.06 Z "/>
		<path fill="#000000" fill-opacity="1" stroke-width="3" stroke-linejoin="round" stroke="#000000" stroke-opacity="1" d="M 33.8323,142.879C 33.5544,142.407 33.5267,141.935 33.5684,141.032C 33.6101,140.129 33.7211,138.796 33.9711,137.615C 34.2211,136.435 34.6101,135.407 35.1101,134.338C 35.6101,133.268 36.2211,132.157 36.9155,131.004C 37.6101,129.851 38.3877,128.657 39.1794,127.504C 39.9711,126.351 40.7767,125.24 41.4155,124.393C 42.0544,123.546 42.5267,122.963 42.9017,122.518C 43.2767,122.074 43.5544,121.768 43.7349,121.601C 43.9155,121.435 43.9989,121.407 44.1379,121.421C 44.2767,121.435 44.4711,121.49 45.2905,122.074C 46.1101,122.657 47.5544,123.768 49.1655,125.088C 50.7767,126.407 52.5544,127.935 53.8182,129.032C 55.0823,130.129 55.8323,130.796 56.2766,131.24C 56.7211,131.685 56.8601,131.907 56.9017,132.102C 56.9434,132.296 56.8877,132.463 56.4294,132.768C 55.9711,133.074 55.1101,133.518 54.3462,134.129C 53.5823,134.74 52.9155,135.518 52.0405,136.782C 51.1655,138.046 50.0823,139.796 49.1932,141.365C 48.3044,142.935 47.6101,144.324 47.0267,145.74C 46.4434,147.157 45.9711,148.601 45.5682,149.699C 45.1655,150.796 44.8323,151.546 44.6099,152.171C 44.3877,152.796 44.2767,153.296 44.1796,153.615C 44.0823,153.935 43.9989,154.074 43.8739,154.102C 43.7489,154.129 43.5823,154.046 42.7349,153.074C 41.8877,152.101 40.3601,150.24 38.9851,148.629C 37.6101,147.018 36.3877,145.657 35.5127,144.74C 34.6377,143.824 34.1101,143.351 33.8323,142.879 Z "/>
		<path fill="#000000" fill-opacity="1" stroke-width="3" stroke-linejoin="round" stroke="#000000" stroke-opacity="1" d="M 68.7767,187.31C 68.3601,187.213 67.6377,186.963 66.6655,186.449C 65.6934,185.935 64.4711,185.157 63.4155,184.088C 62.3601,183.018 61.4711,181.657 60.4294,179.963C 59.3877,178.268 58.1934,176.24 57.4434,174.477C 56.6934,172.713 56.3877,171.213 56.1794,169.879C 55.9711,168.546 55.8601,167.379 56.1517,165.463C 56.4434,163.546 57.1377,160.879 58.1932,158.088C 59.2489,155.296 60.6655,152.379 61.8739,150.379C 63.0823,148.379 64.0823,147.296 65.0823,146.254C 66.0823,145.213 67.0823,144.213 67.7905,143.685C 68.4989,143.157 68.9155,143.101 69.3046,143.171C 69.6934,143.24 70.0544,143.435 70.8182,144.074C 71.5823,144.713 72.7489,145.796 74.6239,147.393C 76.4989,148.99 79.0823,151.101 80.7212,152.504C 82.3601,153.907 83.0544,154.601 83.5405,155.185C 84.0267,155.768 84.3044,156.24 84.4294,156.602C 84.5544,156.963 84.5267,157.213 84.3184,157.421C 84.1101,157.629 83.7211,157.796 82.9711,158.088C 82.2211,158.379 81.1101,158.796 79.7212,159.49C 78.3323,160.185 76.6655,161.157 75.1796,162.365C 73.6934,163.574 72.3877,165.018 71.4294,166.338C 70.4711,167.657 69.8601,168.851 69.4296,170.31C 68.9989,171.768 68.7489,173.49 68.6239,175.185C 68.4989,176.879 68.4989,178.546 68.5962,180.254C 68.6934,181.963 68.8877,183.713 69.0405,184.893C 69.1934,186.074 69.3044,186.685 69.3044,187.018C 69.3044,187.351 69.1934,187.407 68.7767,187.31 Z "/>
	</g>
	<g>
		<path fill="#FFFFFF" fill-opacity="1" stroke-width="3" stroke-linejoin="round" stroke="#000000" stroke-opacity="1" d="M 130.887,26.1944C 126.275,26.5832 117.498,28.3609 108.442,30.6941C 99.3866,33.0275 90.0532,35.9165 80.6643,39.6944C 71.2754,43.472 61.8311,48.1387 55.1644,52.0276C 48.4978,55.9165 44.6088,59.0275 41.3309,63.1941C 38.0532,67.3609 35.3866,72.5832 34.1643,75.472C 32.9421,78.3609 33.1644,78.9165 38.2756,83.1387C 43.3866,87.3609 53.3866,95.2498 62.0532,102.028C 70.72,108.805 78.0532,114.472 86.4423,119.916C 94.8311,125.361 104.275,130.583 109.442,133.305C 114.609,136.027 115.498,136.25 115.664,135.805C 115.831,135.361 115.275,134.25 114.887,132.472C 114.498,130.694 114.275,128.25 115.72,125.861C 117.164,123.472 120.275,121.139 124.609,119.361C 128.942,117.583 134.498,116.361 140.053,115.694C 145.609,115.027 151.164,114.917 153.942,114.694C 156.72,114.472 156.72,114.139 153.331,99.6387C 149.942,85.1387 143.164,56.472 139.553,41.6387C 135.942,26.8053 135.498,25.8053 130.887,26.1944 Z "/>
		<path fill="#000000" fill-opacity="1" stroke-width="0.2" stroke-linejoin="round" stroke="#000000" stroke-opacity="1" d="M 107.254,32.4908C 105.848,32.8423 103.087,33.5973 100.415,34.3291C 97.7434,35.0608 95.16,35.7692 92.8475,36.4463C 90.535,37.1233 88.4934,37.7692 86.4413,38.4776C 84.3892,39.1858 82.3267,39.9567 81.3163,40.3838C 80.3059,40.8108 80.3475,40.8942 80.6809,41.4983C 81.0142,42.1026 81.6392,43.2276 82.6184,44.8421C 83.5975,46.4567 84.9309,48.5608 86.035,50.4151C 87.1392,52.2692 88.0142,53.8733 88.8163,55.3838C 89.6184,56.8942 90.3475,58.3108 90.7747,59.1129C 91.2017,59.9151 91.3267,60.1026 91.3892,60.1963C 91.4517,60.2901 91.4517,60.2901 92.4829,59.9879C 93.5142,59.6858 95.5767,59.0817 97.6913,58.4463C 99.8059,57.8108 101.973,57.1442 104.077,56.5296C 106.181,55.9151 108.223,55.3526 110.045,54.8213C 111.868,54.2901 113.473,53.7901 114.681,53.3733C 115.889,52.9567 116.702,52.6233 117.087,52.3629C 117.473,52.1026 117.431,51.9151 117.014,50.9358C 116.598,49.9567 115.806,48.1858 114.993,46.3004C 114.181,44.4151 113.348,42.4151 112.535,40.5296C 111.723,38.6442 110.931,36.8733 110.4,35.7171C 109.868,34.5608 109.598,34.0192 109.41,33.6442C 109.223,33.2692 109.118,33.0608 109.025,32.8551C 108.931,32.6494 108.848,32.4464 108.78,32.3189C 108.712,32.1912 108.66,32.1392 107.254,32.4908 Z "/>
		<path fill="#000000" fill-opacity="1" stroke-linejoin="round" stroke="#000000" stroke-opacity="1" d="M 67.2278,71.562C 67.3528,71.4787 67.3528,71.3953 66.186,70.062C 65.0194,68.7287 62.686,66.1453 60.436,63.6662C 58.186,61.187 56.0194,58.812 54.5403,57.2495C 53.061,55.687 52.2694,54.937 51.811,54.687C 51.3528,54.437 51.2278,54.687 50.2485,55.4995C 49.2694,56.312 47.436,57.687 45.5819,59.312C 43.7278,60.937 41.8528,62.812 40.3528,64.6245C 38.8528,66.437 37.7278,68.187 36.8528,69.4995C 35.9778,70.812 35.3528,71.687 34.7903,72.8953C 34.2278,74.1037 33.7278,75.6453 33.4778,76.5828C 33.2278,77.5203 33.2278,77.8537 33.311,78.062C 33.3944,78.2703 33.561,78.3537 36.0819,80.3745C 38.6028,82.3953 43.4778,86.3537 46.1028,88.437C 48.7278,90.5203 49.1028,90.7287 49.311,90.7703C 49.5194,90.812 49.561,90.687 49.8528,89.9578C 50.1444,89.2287 50.686,87.8953 51.2485,86.7287C 51.811,85.562 52.3944,84.562 53.061,83.6453C 53.7278,82.7287 54.4778,81.8953 55.2278,81.062C 55.9778,80.2287 56.7278,79.3953 57.6444,78.4995C 58.561,77.6037 59.6444,76.6453 60.6653,75.8328C 61.686,75.0203 62.6444,74.3537 63.4569,73.7912C 64.2694,73.2287 64.936,72.7703 65.436,72.4578C 65.936,72.1453 66.2694,71.9787 66.561,71.8537C 66.8528,71.7287 67.1028,71.6453 67.2278,71.562 Z "/>
		<path fill="#000000" fill-opacity="1" stroke-linejoin="round" stroke="#000000" stroke-opacity="1" d="M 81.6135,89.0876C 81.3948,89.1813 81.3739,89.2022 79.676,87.1292C 77.978,85.0563 74.603,80.8897 72.301,78.0251C 69.9989,75.1604 68.7698,73.5979 68.1655,72.7959C 67.5614,71.9938 67.5823,71.9522 68.1343,71.5459C 68.6864,71.1397 69.7698,70.3688 71.4573,69.3792C 73.1448,68.3897 75.4364,67.1813 77.3427,66.2438C 79.2489,65.3063 80.7698,64.6397 82.0823,64.0563C 83.3948,63.4729 84.4989,62.9729 85.5614,62.4938C 86.6239,62.0147 87.6448,61.5563 88.5198,61.1917C 89.3948,60.8272 90.1239,60.5563 90.5927,60.3688C 91.0614,60.1813 91.2698,60.0772 91.3843,60.0354C 91.4989,59.9938 91.5198,60.0147 91.801,60.5354C 92.0823,61.0563 92.6239,62.0772 93.4468,63.5251C 94.2698,64.9729 95.3739,66.8479 96.8114,69.1917C 98.2489,71.5354 100.02,74.3479 101.114,76.0876C 102.207,77.8272 102.624,78.4938 102.832,78.8688C 103.041,79.2438 103.041,79.3272 102.676,79.5042C 102.311,79.6813 101.582,79.9522 100.166,80.5563C 98.7489,81.1604 96.6448,82.0979 94.8843,82.9001C 93.1239,83.7022 91.7073,84.3688 90.3114,85.0147C 88.9155,85.6604 87.5405,86.2854 86.2698,86.8897C 84.9989,87.4938 83.8323,88.0772 83.2489,88.3688C 82.6655,88.6604 82.6655,88.6604 82.4573,88.7438C 82.2489,88.8272 81.8323,88.9938 81.6135,89.0876 Z "/>
		<path fill="#000000" fill-opacity="1" stroke-linejoin="round" stroke="#000000" stroke-opacity="1" d="M 80.8948,89.3167C 80.9573,89.3063 80.9989,89.3272 81.6655,90.0772C 82.3323,90.8272 83.6239,92.3063 85.301,94.3897C 86.978,96.4729 89.0405,99.1604 90.426,101.004C 91.8114,102.848 92.5198,103.848 93.2073,104.785C 93.8948,105.723 94.5614,106.598 95.0198,107.15C 95.478,107.702 95.728,107.931 95.7489,108.108C 95.7698,108.285 95.5614,108.41 95.0718,108.858C 94.5823,109.306 93.8114,110.077 93.1343,110.973C 92.4573,111.869 91.8739,112.89 91.3948,113.963C 90.9155,115.035 90.5405,116.16 90.3218,117.327C 90.103,118.494 90.0405,119.702 90.0093,120.4C 89.978,121.098 89.978,121.285 88.4052,120.275C 86.8323,119.265 83.6864,117.056 80.1135,114.525C 76.5405,111.994 72.5405,109.14 70.426,107.535C 68.3114,105.931 68.0823,105.577 67.9885,105.181C 67.8948,104.785 67.9364,104.348 68.103,103.577C 68.2698,102.806 68.5614,101.702 69.0093,100.754C 69.4573,99.8063 70.0614,99.0147 71.0093,97.8688C 71.9573,96.7229 73.2489,95.2229 74.3218,94.1813C 75.3948,93.1397 76.2489,92.5563 77.0302,91.9834C 77.8114,91.4104 78.5198,90.8479 79.1135,90.4209C 79.7073,89.9938 80.1864,89.7022 80.4677,89.5354C 80.7489,89.3688 80.8323,89.3272 80.8948,89.3167 Z "/>
		<path fill="#000000" fill-opacity="1" stroke-linejoin="round" stroke="#000000" stroke-opacity="1" d="M 114.634,98.5459C 114.603,98.4938 114.561,98.4729 113.999,98.6501C 113.436,98.8272 112.353,99.2022 111.03,99.7542C 109.707,100.306 108.145,101.035 106.843,101.671C 105.541,102.306 104.499,102.848 103.124,103.629C 101.749,104.41 100.041,105.431 98.8739,106.16C 97.7073,106.89 97.0823,107.327 96.7073,107.608C 96.3323,107.89 96.2073,108.015 96.5614,108.598C 96.9155,109.181 97.7489,110.223 99.2593,112.004C 100.77,113.785 102.957,116.306 105.041,118.692C 107.124,121.077 109.103,123.327 110.311,124.66C 111.52,125.994 111.957,126.41 112.572,126.775C 113.186,127.14 113.978,127.452 114.749,127.598C 115.52,127.744 116.27,127.723 117.218,127.035C 118.166,126.348 119.311,124.994 120.134,123.806C 120.957,122.619 121.457,121.598 121.853,120.827C 122.249,120.056 122.541,119.535 122.739,118.9C 122.936,118.265 123.041,117.515 123.009,116.858C 122.978,116.202 122.811,115.64 122.332,114.525C 121.853,113.41 121.061,111.744 120.134,109.723C 119.207,107.702 118.145,105.327 117.291,103.535C 116.436,101.744 115.791,100.535 115.447,99.8897C 115.103,99.2438 115.061,99.1604 114.989,99.0667C 114.916,98.9729 114.811,98.8688 114.749,98.7751C 114.686,98.6813 114.666,98.5979 114.634,98.5459 Z "/>
		<path fill="#000000" fill-opacity="1" stroke-linejoin="round" stroke="#000000" stroke-opacity="1" d="M 126.259,72.5876C 126.416,72.5979 126.436,72.6813 126.822,73.7751C 127.207,74.8688 127.957,76.9729 128.947,79.5979C 129.936,82.2229 131.166,85.3688 132.009,87.6397C 132.853,89.9104 133.311,91.3063 133.468,92.0042C 133.624,92.7022 133.478,92.7022 132.978,92.7959C 132.478,92.8897 131.624,93.0772 130.478,93.3897C 129.332,93.7022 127.895,94.1397 126.395,94.5876C 124.895,95.0354 123.332,95.4938 121.926,95.9001C 120.52,96.3063 119.27,96.6604 118.134,97.0147C 116.999,97.3688 115.978,97.7229 115.457,97.8897C 114.936,98.0563 114.916,98.0354 114.301,97.2022C 113.686,96.3688 112.478,94.7229 111.093,92.6813C 109.707,90.6397 108.145,88.2022 106.947,86.2751C 105.749,84.3479 104.916,82.9313 104.364,81.9417C 103.811,80.9522 103.541,80.3897 103.384,80.0876C 103.228,79.7854 103.186,79.7438 103.426,79.6188C 103.666,79.4938 104.186,79.2854 106.103,78.6604C 108.02,78.0354 111.332,76.9938 114.114,76.1292C 116.895,75.2647 119.145,74.5772 120.957,74.0354C 122.77,73.4938 124.145,73.0979 124.978,72.8688C 125.811,72.6397 126.103,72.5772 126.259,72.5876 Z "/>
		<path fill="#000000" fill-opacity="1" stroke-linejoin="round" stroke="#000000" stroke-opacity="1" d="M 139.186,48.5876C 139.082,48.5147 138.853,48.5147 137.832,48.5979C 136.811,48.6813 134.999,48.8479 132.895,49.1604C 130.791,49.4729 128.395,49.9313 126.03,50.4417C 123.666,50.9522 121.332,51.5147 119.957,51.8479C 118.582,52.1813 118.166,52.2854 118.218,52.9104C 118.27,53.5354 118.791,54.6813 119.384,56.0876C 119.978,57.4938 120.645,59.1604 121.332,60.7959C 122.02,62.4313 122.728,64.0354 123.405,65.5876C 124.082,67.1397 124.728,68.6397 125.155,69.6917C 125.582,70.7438 125.791,71.3479 125.936,71.7229C 126.082,72.0979 126.166,72.2438 126.228,72.3167C 126.291,72.3897 126.332,72.3897 126.676,72.3376C 127.02,72.2854 127.666,72.1813 128.999,71.9417C 130.332,71.7022 132.353,71.3272 134.03,70.9104C 135.707,70.4938 137.041,70.0354 138.228,69.6813C 139.416,69.3272 140.457,69.0772 141.395,68.9104C 142.332,68.7438 143.166,68.6604 143.739,68.6084C 144.311,68.5563 144.624,68.5354 144.77,68.4729C 144.916,68.4104 144.895,68.3063 144.009,65.2126C 143.124,62.1188 141.374,56.0354 140.436,52.8272C 139.499,49.6188 139.374,49.2854 139.322,49.0459C 139.27,48.8063 139.291,48.6604 139.186,48.5876 Z "/>
		<path fill="#000000" fill-opacity="1" stroke-linejoin="round" stroke="#000000" stroke-opacity="1" d="M 149.905,89.8688C 149.728,89.8063 149.457,89.8272 148.374,89.9522C 147.291,90.0772 145.395,90.3063 143.614,90.6084C 141.832,90.9104 140.166,91.2854 138.739,91.5979C 137.311,91.9104 136.124,92.1604 135.364,92.3479C 134.603,92.5354 134.27,92.6604 134.124,92.8376C 133.978,93.0147 134.02,93.2438 134.447,94.4417C 134.874,95.6397 135.686,97.8063 136.728,100.567C 137.77,103.327 139.041,106.681 139.905,108.9C 140.77,111.119 141.228,112.202 141.582,113.004C 141.936,113.806 142.186,114.327 142.895,114.546C 143.603,114.765 144.77,114.681 146.103,114.629C 147.436,114.577 148.936,114.556 150.374,114.546C 151.811,114.535 153.186,114.535 154.28,114.577C 155.374,114.619 156.186,114.702 156.593,114.744L 156.999,114.744C 156.999,114.702 156.999,114.619 155.884,110.567C 154.77,106.515 152.541,98.4938 151.416,94.4417C 150.291,90.3897 150.27,90.3063 150.218,90.1917C 150.166,90.0772 150.082,89.9313 149.905,89.8688 Z "/>
	</g>
	<path fill="#FFFFFF" fill-opacity="1" stroke-width="4" stroke-linejoin="round" stroke="#000000" stroke-opacity="1" d="M 168.666,157.461C 160.916,125.977 147.999,73.6158 141.624,47.4352C 135.249,21.2545 135.416,21.2545 136.499,21.1712C 137.582,21.0879 139.582,20.9212 140.582,20.9212C 141.582,20.9212 141.582,21.0879 149.499,52.4212C 157.416,83.7545 173.249,146.255 181.166,177.505C 189.082,208.755 189.082,208.755 187.989,208.947C 186.895,209.14 184.707,209.526 183.457,209.76C 182.207,209.994 181.895,210.078 180.447,204.815C 178.999,199.553 176.416,188.946 168.666,157.461 Z "/>
	<path fill="#000000" fill-opacity="1" stroke-width="0.2" stroke-linejoin="round" d="M 136.582,7.90054C 131.335,7.90054 127.082,11.4171 127.082,15.7547C 127.082,20.0923 131.335,23.6087 136.582,23.6087C 141.829,23.6087 146.082,20.0923 146.082,15.7547C 146.082,11.4171 141.829,7.90054 136.582,7.90054 Z "/>
	<path fill="#FFFFFF" fill-opacity="1" stroke-width="0.2" stroke-linejoin="round" d="M 138.062,9.81705C 134.506,9.81705 131.624,12.1397 131.624,15.0045C 131.624,17.8694 134.506,20.192 138.062,20.192C 141.617,20.192 144.499,17.8694 144.499,15.0045C 144.499,12.1397 141.617,9.81705 138.062,9.81705 Z "/>
</svg>
