<svg enable-background="new 0 0 74.74 104.78" height="104.783" viewBox="0 0 74.74 104.78" width="74.7387" xmlns="http://www.w3.org/2000/svg"><path d="m71.8892 76.8798c.5253-7.412-4.9067-27.6093-7.7974-32.036-1.4693-2.256-2.36-7.776-7.464-9.172-2.0106-.552-3.4733-.068-3.916.036-.0053-.5986-1.672-4.796-5.636-6.7546-2.448-1.2134-5.4213-.1094-5.5253-.0734-.0734-.2706-.7974-1.896-4.9174-4.5-1.8746-1.1827-5.4679-3.224-7.6879-1.8226-.2334.1453-.4427.2973-.6614.4679-1.2493.9854-1.948 2.1827-2.348 3.3241-.5627 1.0146-.6253 2.9106-.6253 3.6093-.0213.0666-.036.12-.068.1293-.0827.0427-1.8694-2.8066-3.844-6.6866-1.12-2.2094-3.952-4.4854-5.208-6.896-.12-.2347-2.8664-5.8522-2.9811-6.0869l-1.375-2.74997c-7.87496-2.125-4.62496 6.24997-4.73726 10.13277l.09869.1881s-.01068-.0467-.02136-.1147l.052.052c.68802 2.9173 1.76135 6.0986 3.05203 8.98 3.172 7.052 5.5053 13.312 6.516 16.1813 2.276 6.4587 2.38 24.7867 2.38 24.7667l-1.3387.4373s-1.0667-2.6413-3.2706-5.4333c.1146-9.5307-6.95338-12.6667-8.29069-10.8747-1.15735 1.5413-.57868 4.48-1.19867 7.188-.74002 3.2347-2.09336 5.468-2.07734 7.1867.01465 1.6413 1.83332 4.2507 3.60932 7.688 1.63467 3.1506 3.156 7.1307 4.86398 9.0466 1.8387 2.0574 8.6307 5.708 14.5573 8.2347 5.5787 2.3747 7.4787 2.1933 10.3694 3.6933 2.8907 1.4947 3.2453 6.8799 4.016 7.4739 5.5413 4.27 28.8906 1.182 33.2186-11.4699 2.172-6.3586-2.0159-10.3639-1.7439-14.1453z" fill="#fff" stroke="#000" stroke-linejoin="round"/><path d="m8.83206.499939c4.49914-.064819 8.07364 3.437351 7.96874 7.821041-.0233 1.10566-.2817 2.15572-.7226 3.11692-.0603.1389-.1516.2538-.2196.3834-2.4808-5.7357-4.3107-10.15644-10.20668-6.35798-1.83579 1.1853-2.06308 5.04118-1.23551 9.88228-.51675-.2888-1.00244-.6222-1.43564-1.0204-.15152-.1445-.27975-.2685-.38659-.376-1.3346-1.4038-2.14664-3.2854-2.09418-5.38932.099091-4.3837 3.83286-7.995122 8.33206-8.059941z" fill="#fff" stroke="#000" stroke-linejoin="round"/></svg>