<svg enable-background="new 0 0 74.74 104.78" height="104.783" viewBox="0 0 74.74 104.78" width="74.7387" xmlns="http://www.w3.org/2000/svg"><path d="m71.8892 76.8799c.5253-7.412-4.9067-27.6093-7.7974-32.036-1.4693-2.256-2.36-7.776-7.464-9.172-2.0106-.552-3.4733-.068-3.916.036-.0053-.5987-1.672-4.796-5.636-6.7547-2.448-1.2133-5.4213-.1093-5.5253-.0733-.0734-.2707-.7974-1.896-4.9174-4.5-1.8746-1.1827-5.4679-3.224-7.6879-1.8227-.2334.1453-.4427.2974-.6614.468-1.2493.9854-1.948 2.1827-2.348 3.324-.5627 1.0147-.6253 2.9107-.6253 3.6094-.0213.0666-.036.12-.068.1293-.0827.0427-1.8694-2.8067-3.844-6.6867-1.12-2.2093-3.952-4.4853-5.208-6.896-.12-.2346-2.8664-5.8522-2.9811-6.0868l-1.375-2.75c-7.87496-2.125-4.62496 6.25-4.73726 10.1328l.09869.188s-.01068-.0466-.02136-.1146l.052.052c.68802 2.9173 1.76135 6.0986 3.05203 8.98 3.172 7.052 5.5053 13.312 6.516 16.1813 2.276 6.4587 2.38 24.7867 2.38 24.7667l-1.3387.4373s-1.0667-2.6414-3.2706-5.4334c.1146-9.5306-6.95338-12.6666-8.29069-10.8746-1.15735 1.5413-.57868 4.48-1.19867 7.188-.74002 3.2347-2.09336 5.468-2.07734 7.1866.01465 1.6414 1.83332 4.2507 3.60932 7.6881 1.63467 3.1506 3.156 7.1306 4.86398 9.0466 1.8387 2.0573 8.6307 5.708 14.5573 8.2347 5.5787 2.3746 7.4787 2.1933 10.3694 3.6933 2.8907 1.4947 3.2453 6.8798 4.016 7.4738 5.5413 4.27 28.8906 1.182 33.2186-11.4698 2.172-6.3586-2.0159-10.364-1.7439-14.1453z" fill="#fff" stroke="#000" stroke-linejoin="round"/></svg>