<?xml version="1.0" encoding="utf-8"?>
<!DOCTYPE svg PUBLIC "-//W3C//DTD SVG 1.1//EN" "http://www.w3.org/Graphics/SVG/1.1/DTD/svg11.dtd">
<svg x="0" y="0" width="640" height="480" overflow="hidden" viewBox="0, 0, 640, 480" preserveAspectRatio="xMidYMid"
     font-size="0" id="svg" xml:space="default" xmlns="http://www.w3.org/2000/svg"
     xmlns:xml="http://www.w3.org/XML/1998/namespace" version="1.1">
  <defs id="def1" xml:space="default">
    <clipPath id="a" xml:space="default">
      <path d="M-85.333 0 L597.337 0 L597.337 512 L-85.33301 512 z" fill-opacity="0.67" id="path2" xml:space="default" connector-curvature="0" />
    </clipPath>
  </defs>
  <path d="M-4.24E-06 0 L640 0 L640 479.9981 L-4.24E-06 479.9981 z" stroke-width="0.7654491pt" id="path7" xml:space="default" style="fill:#000066;" />
  <path d="M-4.24E-06 0 L-4.24E-06 53.66499 L568.4482 480 L639.9999 480 L639.9999 426.3369 L71.55172 0 z M640 0 L640 53.66405 L71.55172 479.9981 L-4.24E-06 479.9981 L-4.24E-06 426.3341 L568.4482 0 z" stroke-width="0.7654491pt" id="path9" xml:space="default" style="fill:#FFFFFF;" />
  <path d="M266.6667 0 L266.6667 479.9981 L373.3333 479.9981 L373.3333 0 z M-4.24E-06 159.9994 L-4.24E-06 319.9987 L640 319.9987 L640 159.9994 z" stroke-width="0.7654491pt" id="path11" xml:space="default" style="fill:#FFFFFF;" />
  <path d="M-4.24E-06 191.9993 L-4.24E-06 287.9989 L640 287.9989 L640 191.9993 z M288.0006 0 L288.0006 479.9981 L351.9994 479.9981 L351.9994 0 z M-4.24E-06 479.9981 L213.3333 319.9987 L261.0349 319.9987 L47.70156 479.9981 z M-4.24E-06 0 L213.3333 159.9994 L165.6318 159.9994 L-4.24E-06 35.77791 z M378.9651 159.9994 L592.2984 0 L640 0 L426.6667 159.9994 z M640 479.9981 L426.6667 319.9987 L474.3682 319.9987 L640 444.2221 z" stroke-width="0.7654491pt" id="path13" xml:space="default" style="fill:#CC0000;" />
</svg>