<svg enable-background="new 0 0 50.00 38.69" height="38.6915" viewBox="0 0 50 38.69" width="50" xmlns="http://www.w3.org/2000/svg" xmlns:xlink="http://www.w3.org/1999/xlink"><linearGradient id="a" gradientTransform="matrix(0 1 -1 0 .499999 -.499999)" gradientUnits="objectBoundingBox" x1=".499999" x2="3.04545" y1="0" y2="0"><stop offset="0" stop-color="#5dcf64"/><stop offset=".1534" stop-color="#18891f"/><stop offset="1" stop-color="#18891f"/></linearGradient><linearGradient id="b" gradientTransform="matrix(0 -1 1 0 -.499995 1.499989)" gradientUnits="objectBoundingBox" x1=".499997" x2="1.49998" y1=".999992" y2=".999992"><stop offset="0" stop-color="#e6e6e6"/><stop offset=".6331" stop-color="#e8e8e8"/><stop offset=".9487" stop-color="#efefef"/><stop offset="1" stop-color="#f2f2f2"/></linearGradient><linearGradient id="c" gradientTransform="matrix(0 -1 1 0 -.499995 1.499989)" gradientUnits="objectBoundingBox" x1=".499997" x2="1.49999" y1=".999992" y2=".999992"><stop offset="0" stop-color="#ccc"/><stop offset=".4272" stop-color="#cdcdcd"/><stop offset=".6403" stop-color="#d6d6d6"/><stop offset=".8061" stop-color="#e2e2e2"/><stop offset=".9466" stop-color="#f6f6f6"/><stop offset="1" stop-color="#fff"/></linearGradient><linearGradient id="d" gradientTransform="matrix(0 1 -1 0 .500004 -.499998)" gradientUnits="objectBoundingBox" x1=".500001" x2="1.5" y1=".00000294642" y2=".00000294642"><stop offset="0" stop-color="#67d86e"/><stop offset=".5951" stop-color="#54c459"/><stop offset=".9571" stop-color="#5bca60"/><stop offset="1" stop-color="#18891f"/></linearGradient><g stroke-linejoin="round"><path d="m24.3475 2.93663v-1.74614c0-.654484-.5359-1.19049477-1.1905-1.19049477h-17.8178c-.65462 0-1.19049.53601077-1.19049 1.19049477v1.74614h-1.88395c-.41504 0-1.1207.53544-1.13186 1.19049l.07961 33.37268c-.01101.6547.51564 1.1911 1.17026 1.1917h45.48803c.6545.0006 1.1835-.533 1.1753-1.1876l-.179-33.37678c-.0082-.65505-.5499-1.19049-1.2051-1.19049z" fill="url(#a)"/><path d="m46.4581 38.1783h-42.91624l-.11861-33.80178h43.15405z" fill="url(#b)"/><path d="m46.4581 38.1783h-42.91624l-.83305-32.25384h44.58299z" fill="url(#c)"/><path d="m48.9897 37.5039c-.0116.6546-.5562 1.1888-1.2109 1.1876h-45.48785c-.65462-.0018-1.26966-.6168-1.28067-1.2713l-1.01028-28.61073c-.0110111-.65446.515037-1.19049 1.1701-1.19049h47.6604c.6545 0 1.1811.53603 1.1695 1.19049z" fill="url(#d)"/></g></svg>