<svg enable-background="new 0 0 48.63 58.15" height="58.1458" viewBox="0 0 48.63 58.15" width="48.625" xmlns="http://www.w3.org/2000/svg" xmlns:xlink="http://www.w3.org/1999/xlink"><linearGradient id="a" gradientTransform="matrix(0 -1 1 0 -.497407 1.497407)" gradientUnits="objectBoundingBox" x1=".5" x2="1.49481" y1=".997407" y2=".997407"><stop offset="0" stop-color="#f3f8f8"/><stop offset="1" stop-color="#769a9a"/></linearGradient><linearGradient id="b"><stop offset="0" stop-color="#f3f8f8"/><stop offset="1" stop-color="#00eefc"/></linearGradient><radialGradient id="c" cx="18.6357" cy="42.4007" gradientUnits="userSpaceOnUse" r="15.5314" xlink:href="#b"/><radialGradient id="d" cx="31.2724" cy="23.5575" gradientUnits="userSpaceOnUse" r="14.9928" xlink:href="#b"/><radialGradient id="e" cx="38.09" cy="48.3618" gradientTransform="matrix(.998449813674 -.055659406874 .055659406874 .998449813674 -2.632742520019 2.195038113224)" gradientUnits="userSpaceOnUse" r="9.14144" xlink:href="#b"/><radialGradient id="f" cx="9.51245" cy="21.494" gradientUnits="userSpaceOnUse" r="9.39655" xlink:href="#b"/><radialGradient id="g" cx="8.909" cy="14.2526" gradientUnits="userSpaceOnUse" r="2.11207" xlink:href="#b"/><radialGradient id="h" cx="24.5833" cy="20.4581" gradientUnits="userSpaceOnUse" r="25.083"><stop offset="0" stop-color="#f3f8f8" stop-opacity=".352941"/><stop offset="1" stop-color="#f3f8f8" stop-opacity=".239216"/></radialGradient><g stroke-linejoin="round"><path d="m3.08333 9.02083h42.49997c1.6569 0 3 1.34317 3 2.99997v43.1251c0 1.6568-1.3431 3-3 3h-42.49997c-1.65686 0-2.9999998-1.3432-2.9999998-3v-43.1251c0-1.6568 1.3431398-2.99997 2.9999998-2.99997z" fill="url(#a)" stroke-width=".2"/><path d="m24.3974 48.0795c-8.9255 0-16.18365-7.1392-16.3754-16.0188l-4.48665-.0516c.01182 11.4802 9.47625 20.7831 21.14945 20.7831 3.2386 0 6.3073-.7161 9.0512-1.9961l-2.6225-4.1524c-2.0494.9225-4.3228 1.4358-6.7161 1.4358z" stroke="url(#c)"/><path d="m40.2248 35.9319 5.4775-1.6081c.0871-.7669.1319-1.5464.1319-2.3362 0-11.49-9.4689-20.8045-21.1494-20.8045-2.8212 0-5.5133.5433-7.9742 1.5295l1.5435 3.7993c1.8971-.768 3.9708-1.191 6.1433-1.191 9.0461 0 16.3793 7.3332 16.3793 16.3793 0 1.4633-.1919 2.8818-.5519 4.2317z" stroke="url(#d)"/><path d="m9.39613 26.6847-.34482 3.9655-.43138 8.3324-.17241 7.3276.86207 1.638 1.37931.862 1.8965.0862 2.069-.6034 1.8107-1.6083 2.241-2.0124.0866-1.6945-.3452-.8917-.9483-.0862-.6034.3448-1.9824 1.409-1.3793 1.1207-.7762-.1159-.5173-.6035.0862-6.3793.2586-3.5344.5173-3.8794.3448-3.7931-.8617-1.2634-1.3793-.3448-1.37933.6034z" fill="#03d1dd" stroke-width=".2"/><path d="m20.603 28.4088-.6896.8621-.2586.9483-.1725 1.8103v5l-.0862 7.069.5173 1.0345 1.0345.1724 1.5517-.0862.9483-.6035-.0862-1.1206-.3449-1.2069-.1724-6.8104.431-2.069.1725-3.1896-.0862-1.2069-1.2069-.7759z" fill="#03d1dd" stroke-width=".2"/><path d="m20.3444 22.2882-.6896.7758-.3449 1.9828.4311 1.8103.9482.8621h1.8104l.6034-1.1207.3449-1.9828-.3449-1.2931-1.3793-1.0344z" fill="#03d1dd" stroke-width=".2"/><path d="m24.5398 26.7709-.5747 1.2644.1724 2.3563 2.6437 7.3563 1.4368 4.4828.862.6896 1.3794-.0574.6896-.5747 1.2069-2.3564 1.5517-4.3103.4598-2.2414.6897-2.6437.3448-2.0115.1149-2.9885-1.0919-1.2643-1.092-.5173-.8621-.0574-.5172.9195-.2874 4.3103-.3448 2.9885-.6896 3.5058-.4598 1.2069-.4023-.0575-.3448-1.5517-.2299-2.5287-.7471-3.3334-.3449-1.4942-1.0345-.8621z" fill="#03d1dd" stroke-width=".2"/><path d="m41.8458 20.3485-.862.5747-1.6667 1.2069-.9195 1.6667-1.1495 1.5517-.4597 1.6667-.4598 1.7816-.1149 3.8506.4597 2.4712.7472 1.5517 1.0919 1.0345.9195.7472 2.184.1149 1.7241-.5172 1.1494-.9196 1.1494-1.4368.6322-.6322.4598-1.3218-.1724-1.0345-.4598-.4597h-1.1494l-1.3219.977-.977 1.0919-1.3218.4598-1.3793-.9195-.4023-1.1495-.0575-1.4942 1.0345-.2299.6322.6896 1.2069.0575 1.3218-1.3793 1.6092-1.6667.8046-1.6666.6322-1.8966-.2874-2.3563-.8046-1.2644-.8045-.5172-1.5518-.6322zm-.862 8.7356-1.092.1724-.2873-1.3218.3161-1.6379.9482-1.6954 1.4009-1.4512.8046.1724.1724 2.5862-.7471 1.7242z" fill="#03d1dd" stroke-width=".2"/><path d="m31.2471 43.555 7.4549 13.3232 1.0479.3017.6676-.5454-.2151-1.0264-3.3508-5.9007 7.5028-10.4923z" stroke="url(#e)"/><path d="m3.77969 30.6319h3.7931l.17242-6.1207.51724-2.1552 1.03448-1.2069 1.29307.1725 1.3793.9482 1.8966 2.5862.7759.6035 1.8965.1724h1.0345l.0862-1.6379-2.8448-2.8449-1.9828-1.3793-1.7241-1.0345 2.1551-2.6724 1.1207-2.3275.4311-1.1207-1.7242.6896-1.8103 2.1552-1.29311 1.2069-.86207.431-1.72414-.6896-1.03448-.2587-.60345.6897v-1.0345l-.34483-.7758-2.5-2.5863-.77586-.0862.08621 1.4656 1.46551 1.8965.77587.431h-3.10345l.94827 1.2069 2.75862-.2586-1.46551.9483-.94828.6034-.17241.7759.86207.1724.77586-.431.94827-.6035.68966-.0862.68965 1.0345-.77586 2.069-.77586 1.2931-.68965 1.8965-.43104 2.1552z" stroke="url(#f)"/><path d="m8.8659 12.5285-1.03448.2586-.51725.862-.25862 1.3794.51724.7758.68966-.1724.25862-.6034.63218.0574.05748.4598.40229.4023.68968-.4023.2011-.8621.2586-.9482-.5172-.9483z" stroke="url(#g)"/><g stroke-width=".2"><path d="m-.416656 32.7004c6.087276-5.0933 15.169256-8.3256 25.314656-8.3256 9.8014 0 18.6104 3.0169 24.6853 7.8142v-20.8205c0-1.74117-1.4114-3.15266-3.1526-3.15266h-43.6947c-1.741165 0-3.152656 1.41149-3.152656 3.15266z" fill="url(#h)"/><path d="m6.56166 4.35168c0 .27667-.04833.54084-.145.7925-.09667.25167-.24646.47292-.44937.66376-.20292.19082-.46063.34291-.77313.45624-.3125.11334-.68625.17001-1.12125.17001h-.785l-.40625 1.92h-1.27375l1.19125-5.60001h1.9225c.3175 0 .59208.04105.82375.12313.23167.08209.4225.19438.5725.33688.15.14249.26146.31083.33438.50499.07291.19417.10937.405.10937.6325zm-1.33625.07876c0-.2175-.07292-.39126-.21875-.52126s-.36083-.19499-.645-.19499h-.49625l-.37 1.75999h.5775c.20083 0 .37354-.02812.51813-.08437.14458-.05625.26375-.13229.3575-.22813.09375-.09583.16333-.20687.20874-.33312.04542-.12625.06813-.25896.06813-.39812z" fill="#15d5d5"/><path d="m12.3592 5.06668c0 .2225-.0196.44647-.0588.67188s-.0971.44354-.1737.65438c-.0767.21083-.173.41333-.2888.60749-.1158.19417-.2508.37167-.405.53251-.13.13749-.2719.26187-.4256.37312-.1538.11125-.3211.20563-.5019.28313s-.3767.1377-.58749.18062c-.21083.04292-.43875.06438-.68375.06438-.37 0-.70021-.06084-.99062-.1825-.29042-.12167-.53584-.28938-.73626-.50313-.20041-.21375-.35333-.46688-.45874-.75938-.10542-.29249-.15813-.60958-.15813-.95125 0-.24083.02084-.47854.0625-.71312.04167-.23458.10479-.45979.18938-.67562.08458-.21584.18999-.42167.31625-.61751.12624-.19583.27271-.375.43937-.53749.13-.125.27063-.23729.42187-.33688.15126-.09959.31417-.18563.48875-.25812.17459-.07251.36209-.12813.5625-.16688.20042-.03875.41522-.05812.64437-.05812.3467 0 .6638.05437.9513.16312s.5341.26604.74.47188c.2058.20582.366.45708.4806.75374.1146.29667.1719.63125.1719 1.00375zm-1.3363.04501c0-.20668-.0267-.39146-.08-.55438s-.1294-.30083-.2281-.41376c-.0988-.11291-.2192-.19937-.3613-.25936-.142-.06-.3031-.09001-.48309-.09001-.20833 0-.40625.04708-.59375.14125s-.35417.22542-.5.39376c-.08833.10166-.16625.21854-.23375.35062s-.12479.27208-.17188.42c-.04708.14792-.08291.29875-.10749.4525-.02459.15374-.03688.30562-.03688.45562 0 .20667.02667.39146.08.55438s.12937.29979.22812.41062c.09876.11084.21792.19542.35751.25375.13958.05834.2952.08751.46687.08751.21333 0 .41708-.04584.61125-.13751.19419-.09166.36419-.22791.50999-.40874.0908-.10667.1702-.22688.2381-.36063.068-.13375.124-.27312.1682-.41813.0441-.145.0779-.29249.1012-.4425.0233-.15.035-.29499.035-.43499z" fill="#15d5d5"/><path d="m18.3917 8.37418h-1.3438l-.2387-3.6325c-.0025-.03917-.0019-.08604.0018-.14062.0038-.05458.009-.11063.0157-.16812.0066-.05751.0139-.11334.0218-.16751.008-.05416.0157-.10083.0232-.14h-.015c-.0134.04167-.0298.09021-.0494.14563s-.0398.11166-.0606.16875c-.0209.05708-.0417.11146-.0625.16313-.0209.05166-.0405.09708-.0588.13624l-1.7775 3.61501h-1.4412l-.285-5.60001h1.3287l.0388 3.73375c.0025.04417.0018.0948-.0019.15188-.0038.05708-.0096.11437-.0175.17187-.0079.05751-.0158.11168-.0238.1625-.0079.05084-.0143.09292-.0193.12625h.0237c.01-.03917.0242-.08542.0425-.13874.0183-.05333.0386-.10917.0606-.16751.0221-.05832.0455-.11562.07-.17187.0246-.05625.0461-.10396.0644-.14312l1.8013-3.72501h1.3362l.1838 3.77251c.0025.03666.0031.07895.0018.12687-.0012.04792-.0033.09792-.0062.15s-.0069.10354-.0119.15437c-.005.05084-.01.09584-.015.135h.015c.0108-.03666.0246-.08104.0413-.13312.0166-.05208.0348-.10542.0543-.16001.0196-.05458.0392-.10791.0588-.15999.0196-.05209.0373-.09771.0531-.13688l1.55-3.74875h1.3213z" fill="#15d5d5"/><path d="m24.8079 3.79418h-1.9575l-.2662 1.20001h1.825l-.2225 1.03999h-1.8163l-.2737 1.28001h2.09l-.2188 1.04h-3.36l1.1913-5.60001h3.2275z" fill="#15d5d5"/><path d="m29.7542 4.17043c0 .23584-.043.44876-.1288.63876-.0858.18999-.2029.35499-.3512.49499-.1484.14-.3221.25396-.5213.34188s-.4121.14729-.6387.17813v.01625c.1608.0525.2985.15208.4131.29874.1146.14667.2006.34209.2581.58625l.3913 1.62876h-1.3525l-.3038-1.45125c-.0475-.23417-.1298-.41084-.2469-.53001-.117-.11916-.2773-.17875-.4806-.17875h-.2137l-.4575 2.16001h-1.2738l1.1913-5.60001h1.915c.325 0 .602.03813.8312.11438s.4154.1798.5588.31062c.1433.13083.2475.28167.3125.4525.065.17084.0975.35042.0975.53875zm-1.3438.21376c0-.21083-.0637-.37522-.1912-.49313s-.32-.17687-.5775-.17687h-.5275l-.3363 1.51999h.5113c.1933 0 .3602-.02353.5006-.07062.1404-.04708.2562-.10938.3475-.18688.0912-.07749.1596-.1677.205-.27063.0454-.10291.0681-.2102.0681-.32186z" fill="#15d5d5"/><path d="m35.6317 5.01918c0 .29417-.0298.58125-.0894.86125s-.15.54355-.2713.79063c-.1212.24708-.2743.47354-.4593.67937-.185.20584-.4032.38292-.6544.53125-.2513.14833-.5371.26417-.8575.34751-.3204.08333-.6756.125-1.0656.125h-2.2663l1.1913-5.60001h1.9687c.4117 0 .7731.05605 1.0844.16813.3112.11208.5723.26771.7831.46687.2108.19917.3696.4373.4763.71438.1066.27709.16.58229.16.91562zm-1.335.09876c0-.20584-.0294-.39084-.0882-.55501-.0587-.16416-.1487-.30291-.27-.41625-.1212-.11332-.2741-.20041-.4587-.26124-.1846-.06084-.4031-.09126-.6556-.09126h-.6138l-.7537 3.52001h.7687c.3183 0 .605-.0523.86-.15688s.4723-.25313.6519-.44562c.1796-.19251.3177-.42354.4144-.69314.0966-.26957.145-.56978.145-.90061z" fill="#15d5d5"/><path d="m42.9992 4.01669c0 .17333-.0286.33541-.0857.48624-.057.15084-.1423.28667-.2556.4075-.1133.12084-.2533.22396-.42.30938-.1667.08541-.3608.14896-.5825.19062v.01625c.1775.02583.3325.07334.465.1425.1325.06917.2438.15459.3338.25625.09.10167.157.21646.2012.34438s.0663.26479.0663.41063c0 .25333-.0494.48771-.1482.70312-.0987.21542-.247.4027-.445.56188-.1979.15916-.4448.28374-.7406.37374-.2958.09001-.6417.13501-1.0375.13501h-2.2225l1.1913-5.60001h1.985c.3041 0 .5637.03188.7787.09563s.3902.15208.5256.265c.1354.11291.2344.24667.2969.40125s.0938.32146.0938.50063zm-1.3275.25875c0-.08834-.0138-.16688-.0413-.23563s-.0712-.12708-.1312-.175-.1382-.085-.2344-.11125c-.0963-.02625-.2136-.03937-.3519-.03937h-.5187l-.29 1.28h.5937c.1517 0 .2873-.01688.4069-.05063s.2217-.08208.3062-.145c.0846-.06292.1492-.13896.1938-.22813.0446-.08916.0669-.1875.0669-.29499zm-.2863 2.30749c0-.19082-.0677-.34333-.2031-.4575-.1354-.11416-.3369-.17124-.6044-.17124h-.665l-.32 1.43999h.7038c.1925 0 .3577-.02104.4956-.06313.1379-.04208.2504-.09978.3375-.17311.0871-.07334.1514-.15896.1931-.25688.0417-.09791.0625-.20396.0625-.31813z" fill="#15d5d5"/><path d="m45.9679 6.32294-.4212 2.03125h-1.2738l.425-2.00751-1.0075-3.5925h1.3675l.445 2.12875c.0209.08834.0333.17022.0375.24563.0042.07542.0088.14312.0138.20312h.0075c.0283-.07333.0602-.1477.0956-.22312s.0727-.14562.1119-.21063l1.3662-2.14375h1.4188z" fill="#15d5d5"/></g></g></svg>