<?xml version="1.0" encoding="utf-8"?>
<!DOCTYPE svg PUBLIC "-//W3C//DTD SVG 1.1//EN" "http://www.w3.org/Graphics/SVG/1.1/DTD/svg11.dtd">
<svg x="0" y="0" width="48" height="48" overflow="hidden" viewBox="0, 0, 48, 48" preserveAspectRatio="xMidYMid"
     font-size="0" id="svg" xml:space="preserve" xmlns="http://www.w3.org/2000/svg"
     xmlns:xml="http://www.w3.org/XML/1998/namespace" version="1.1">
  <g transform="matrix(0.2192637, 0, 0, 0.2882279, -4.409466, -12.20722)" id="g68" xml:space="preserve">
    <path d="M46.482 64.7313 L208.482 64.4291 L208.482 77.6382 L46.7834 77.8541 z" stroke="#000000" stroke-width="5" stroke-linejoin="bevel" id="path2" xml:space="preserve" connector-curvature="0" style="fill:#FFDE19;" />
    <path d="M206.524 64.8223 L236.524 45.8571 L236.524 59.1069 L206.595 77.94521 z" stroke="#000000" stroke-width="5" stroke-linejoin="bevel" id="path4" xml:space="preserve" connector-curvature="0" style="fill:#FFDE19;" />
    <path d="M85.7737 45.8541 L237.524 44.8541 L207.928 64.9767 L49.27371 64.3544 z" stroke="#000000" stroke-width="5" stroke-linejoin="bevel" id="path6" xml:space="preserve" connector-curvature="0" style="fill:#FFDE19;" />
    <path d="M204.524 78.8544 L234.315 61.9913 L234.315 109.658 L204.524 129.354 z" stroke="#000000" stroke-width="5" stroke-linecap="square" stroke-linejoin="bevel" id="path8" xml:space="preserve" connector-curvature="0" style="fill:#D66919;" />
    <rect x="56.8987" y="78.3549" width="146.875" height="51.25" stroke="#000000" stroke-width="5" stroke-linecap="square" stroke-linejoin="bevel" id="rect10" xml:space="preserve" style="fill:#D66919;" />
    <path d="M108.728 156.014 L199.061 105.514 L199.061 153.181 L108.728 206.014 z" stroke="#000000" stroke-width="5" stroke-linecap="square" stroke-linejoin="bevel" id="path12" xml:space="preserve" connector-curvature="0" style="fill:#D66919;" />
    <path d="M28.7277 153.181 L108.061 153.181 L108.103 206.139 L45.8527 206.389 L35.1027 203.389 L28.8527 194.389 z" stroke="#000000" stroke-width="5" stroke-linecap="square" stroke-linejoin="bevel" id="path14" xml:space="preserve" connector-curvature="0" style="fill:#D66919;" />
    <linearGradient x1="35.26444" y1="194.5228" x2="144.4701" y2="194.5226" gradientUnits="userSpaceOnUse" gradientTransform="scale(1.232255, 0.8115206)" id="SVGID_Fill1_" xml:space="preserve">
      <stop offset="0.925926%" stop-color="#C0C0C0" stop-opacity="1" id="stop16" xml:space="preserve" />
      <stop offset="19.7949%" stop-color="#8B8B8B" stop-opacity="0.501961" id="stop18" xml:space="preserve" />
      <stop offset="42.1296%" stop-color="#575757" stop-opacity="0" id="stop20" xml:space="preserve" />
      <stop offset="61.1111%" stop-color="#626262" stop-opacity="0" id="stop22" xml:space="preserve" />
      <stop offset="100%" stop-color="#C0C0C0" stop-opacity="0.4" id="stop24" xml:space="preserve" />
    </linearGradient>
    <path d="M97.1009 129.256 C130.101 113.521 162.96 113.571 170.492 129.368 C178.024 145.165 157.378 170.727 124.378 186.462 C91.3777 202.198 58.51951 202.147 50.98711 186.35 C43.45481 170.554 64.10101 144.991 97.10091 129.256 z" stroke-width="0.2" stroke-linecap="square" stroke-linejoin="bevel" id="path27" xml:space="preserve" connector-curvature="0" style="fill:url(#SVGID_Fill1_);" />
    <path d="M22.6444 140.264 L112.228 139.972 L112.228 152.722 L22.811 152.931 z" stroke="#000000" stroke-width="5" id="path29" xml:space="preserve" connector-curvature="0" style="fill:#FFDE19;" />
    <path d="M21.9777 140.431 L120.193 87.7021 L200.978 87.2225 L108.756 140.473 z" stroke="#000000" stroke-width="5" id="path31" xml:space="preserve" connector-curvature="0" style="fill:#FFDE19;" />
    <linearGradient x1="57.323" y1="206.0856" x2="96.28384" y2="206.0856" gradientUnits="userSpaceOnUse" gradientTransform="scale(3.726259, 0.2683656)" id="SVGID_Fill2_" xml:space="preserve">
      <stop offset="0.462963%" stop-color="#B24E04" stop-opacity="1" id="stop33" xml:space="preserve" />
      <stop offset="66.0537%" stop-color="#D06515" stop-opacity="1" id="stop35" xml:space="preserve" />
      <stop offset="99.53699%" stop-color="#EE7C27" stop-opacity="1" id="stop37" xml:space="preserve" />
    </linearGradient>
    <path d="M74.6487 58.7643 L200.065 58.646 L213.982 48.7295 L90.7321 49.9794 z" stroke-width="0.2" stroke-linecap="square" stroke-linejoin="bevel" id="path40" xml:space="preserve" connector-curvature="0" style="fill:url(#SVGID_Fill2_);" />
    <path d="M113.311 139.097 L203.686 85.7222 L203.686 101.222 L113.311 152.764 z" stroke="#000000" stroke-width="5" stroke-linecap="square" stroke-linejoin="bevel" id="path42" xml:space="preserve" connector-curvature="0" style="fill:#FFDE19;" />
    <linearGradient x1="53.24345" y1="182.1852" x2="162.449" y2="182.1852" gradientUnits="userSpaceOnUse" gradientTransform="scale(1.232253, 0.8115214)" id="SVGID_Fill3_" xml:space="preserve">
      <stop offset="0%" stop-color="#C0C0C0" stop-opacity="0" id="stop44" xml:space="preserve" />
      <stop offset="19.505%" stop-color="#989898" stop-opacity="0" id="stop46" xml:space="preserve" />
      <stop offset="42.5926%" stop-color="#707070" stop-opacity="0" id="stop48" xml:space="preserve" />
      <stop offset="78.7037%" stop-color="#6C6C6C" stop-opacity="0" id="stop50" xml:space="preserve" />
      <stop offset="98.6111%" stop-color="#B9B9B9" stop-opacity="0.6" id="stop52" xml:space="preserve" />
    </linearGradient>
    <path d="M119.256 119.244 C152.255 103.509 185.114 103.559 192.646 119.356 C200.179 135.153 179.533 160.715 146.533 176.45 C113.532 192.186 80.67409 192.135 73.14169 176.338 C65.60939 160.541 86.25559 134.979 119.256 119.244 z" stroke-width="0.2" stroke-linecap="square" stroke-linejoin="bevel" id="path55" xml:space="preserve" connector-curvature="0" style="fill:url(#SVGID_Fill3_);" />
    <path d="M48.2693 152.722 L94.7693 152.972 L78.2693 170.972 L34.5193 170.972 z" stroke="#000000" stroke-width="5" stroke-linejoin="bevel" id="path57" xml:space="preserve" connector-curvature="0" style="fill:#FFDE19;" />
    <linearGradient x1="94.87595" y1="201.9443" x2="151.3236" y2="201.9443" gradientUnits="userSpaceOnUse" gradientTransform="scale(1.724368, 0.5799227)" id="SVGID_Fill4_" xml:space="preserve">
      <stop offset="0.462963%" stop-color="#B24E04" stop-opacity="1" id="stop59" xml:space="preserve" />
      <stop offset="66.0537%" stop-color="#D06515" stop-opacity="1" id="stop61" xml:space="preserve" />
      <stop offset="99.53699%" stop-color="#EE7C27" stop-opacity="1" id="stop63" xml:space="preserve" />
    </linearGradient>
    <path d="M70.4403 127.938 L107.524 127.854 L163.857 96.521 L125.19 96.8544 z" stroke-width="0.2" stroke-linecap="square" stroke-linejoin="bevel" id="path66" xml:space="preserve" connector-curvature="0" style="fill:url(#SVGID_Fill4_);" />
  </g>
</svg>