<?xml version="1.0" encoding="utf-8"?>
<!DOCTYPE svg PUBLIC "-//W3C//DTD SVG 1.1//EN" "http://www.w3.org/Graphics/SVG/1.1/DTD/svg11.dtd">
<svg x="0" y="0" width="48" height="48" overflow="hidden" viewBox="0, 0, 48, 48" preserveAspectRatio="xMidYMid"
     font-size="0px" id="svg" xml:space="preserve" xmlns="http://www.w3.org/2000/svg"
     xmlns:xml="http://www.w3.org/XML/1998/namespace" version="1.1">
  <g transform="matrix(0.845062, 0, 0, 0.8571393, 8.000231, 0.0003465868)" id="g27" xml:space="preserve">
    <path d="M17.5855 43.9606 C20.7307 43.9606 23.2803 46.5438 23.2803 49.7303 C23.2803 52.9169 20.7307 55.5001 17.5855 55.5001 C14.4403 55.5001 11.8906 52.9169 11.8906 49.7303 C11.8906 46.5438 14.4402 43.9606 17.5855 43.9606 z" stroke="#000000" stroke-linejoin="round" id="path2" xml:space="preserve" connector-curvature="0" style="fill:#407308;" />
    <path d="M9.64172 25.2274 L4.54633 22.9796 L1.84879 19.6825 L0.649841 16.6854 L0.5 12.7889 L1.69891 9.64172 L3.49725 6.79431 L5.4455 4.84607 L8.74249 2.59802 L11.2902 1.54895 L14.5872 0.949585 L18.0341 0.799683 L21.6308 0.499878 L25.0777 0.949585 L27.3256 1.99866 L30.3229 3.49719 L33.0204 5.44543 L34.9687 7.54358 L37.0668 11.1403 L37.3665 14.4374 L36.9169 18.6334 L35.5681 20.8815 L33.3202 23.2794 L30.6226 26.2765 L27.0259 28.8243 L23.4292 31.8217 L21.481 35.2684 L20.4319 37.6664 L20.5134 38.7255 L20.33829 39.6708 L19.4765 40.1202 L16.23569 40.06411 L15.03679 39.16491 L15.03679 36.46741 L16.98499 33.32021 L19.5327 29.57361 L22.9796 25.67711 L24.3284 23.57901 L25.5273 20.13221 L25.5273 16.985 L24.778 13.3883 L22.9796 11.59 L19.9823 10.2411 L17.2847 9.94153 L15.0368 10.0912 L12.3392 10.9904 L10.5409 12.639 L10.5409 14.5873 L11.1403 16.5355 L13.3883 18.0341 L14.8869 18.9332 L15.3365 20.432 L15.0368 22.0804 L14.1376 23.2794 L13.0886 24.3282 L11.1403 24.778 z" stroke="#000000" stroke-linejoin="round" id="path4" xml:space="preserve" connector-curvature="0" style="fill:#407308;" />
    <linearGradient x1="44.72814" y1="9.051446" x2="60.9105" y2="9.051446" gradientUnits="userSpaceOnUse" gradientTransform="scale(0.8141748, 1.228237)" id="SVGID_Fill1_" xml:space="preserve">
      <stop offset="0.925926%" stop-color="#FFFFFF" stop-opacity="1" id="stop6" xml:space="preserve" />
      <stop offset="100%" stop-color="#FCFCFF" stop-opacity="0" id="stop8" xml:space="preserve" />
    </linearGradient>
    <path d="M23.2294 2.44812 L26.6263 4.74597 L29.4237 6.94421 L31.9214 10.0414 L33.0204 12.8387 L33.4201 16.5355 L32.8207 20.1322 L31.8216 21.8307 L33.2095 22.2941 L36.0178 18.5336 L36.5173 15.6364 L36.4174 11.7399 L34.2586 8.20691 L32.9206 6.64441 L32.421 5.94495 L31.0223 5.04578 L29.0241 3.54724 L27.0259 2.64807 L25.2275 2.24841 z" stroke-width="0.2" stroke-linejoin="round" id="path11" xml:space="preserve" connector-curvature="0" style="fill:url(#SVGID_Fill1_);" />
    <linearGradient x1="17.41118" y1="16.04222" x2="24.33177" y2="16.04222" gradientUnits="userSpaceOnUse" gradientTransform="scale(0.828827, 1.206524)" id="SVGID_Fill2_" xml:space="preserve">
      <stop offset="0.925926%" stop-color="#FFFFFF" stop-opacity="1" id="stop13" xml:space="preserve" />
      <stop offset="100%" stop-color="#FFFFFF" stop-opacity="0" id="stop15" xml:space="preserve" />
    </linearGradient>
    <path d="M10.2911 16.2606 L9.40442 15.6488 L8.69257 17.3597 L9.891479 18.6586 L11.0904 20.0573 L11.3901 21.6559 L11.2902 23.4542 L11.1278 24.066 L12.4517 23.8412 L13.5507 23.2169 L14.3999 22.4176 L14.3749 21.3685 L14.4748 20.3446 L14.1751 19.4952 L12.7764 18.5961 L11.7523 17.9467 L10.8531 17.2972" stroke-width="0.2" stroke-linejoin="round" id="path18" xml:space="preserve" connector-curvature="0" style="fill:url(#SVGID_Fill2_);" />
    <linearGradient x1="32.38961" y1="34.25883" x2="38.93045" y2="34.25883" gradientUnits="userSpaceOnUse" gradientTransform="scale(0.6983857, 1.431874)" id="SVGID_Fill3_" xml:space="preserve">
      <stop offset="0.925926%" stop-color="#FFFFFF" stop-opacity="1" id="stop20" xml:space="preserve" />
      <stop offset="100%" stop-color="#FFFFFF" stop-opacity="0" id="stop22" xml:space="preserve" />
    </linearGradient>
    <path d="M18.0341 44.8097 L19.1331 46.1085 L19.8324 47.5074 L19.7325 49.5055 L19.3329 51.5038 L18.6335 53.2023 L18.8334 54.1014 L19.8404 54.0714 L20.9894 53.3971 L21.9135 52.1483 L22.4131 50.67471 C22.4131 50.67471 22.6555 49.5619 22.53 49.1058 C22.4207 48.7086 22.2303 47.5074 22.2303 47.5074 L21.8306 46.30851 L20.8315 45.40931 L19.9324 44.8097 z" stroke-width="0.2" stroke-linejoin="round" id="path25" xml:space="preserve" connector-curvature="0" style="fill:url(#SVGID_Fill3_);" />
  </g>
</svg>