<?xml version="1.0" encoding="utf-8"?>
<!DOCTYPE svg PUBLIC "-//W3C//DTD SVG 1.1//EN" "http://www.w3.org/Graphics/SVG/1.1/DTD/svg11.dtd">
<svg x="0" y="0" width="48" height="48" overflow="hidden" viewBox="0, 0, 48, 48" preserveAspectRatio="xMidYMid"
     font-size="0" id="svg" xml:space="preserve" xmlns="http://www.w3.org/2000/svg"
     xmlns:xml="http://www.w3.org/XML/1998/namespace" version="1.1">
  <g transform="matrix(0.8223956, 0, 0, 0.786929, -0.01687658, -0.0009527439)" id="g35" xml:space="preserve">
    <path d="M56.8672 17.2578 L56.6328 23.7031 L55.2265 27.8047 L53.3515 31.3203 L51.5937 34.1328 L49.25 36.5938 L47.4921 37.6484 L45.8515 38 L44.914 35.7734 L44.914 32.7266 L45.0312 30.2656 L46.2031 27.6875 L49.0156 25.5781 L51.8281 23.3516 L54.6406 20.7734 z" stroke="#000000" stroke-linejoin="bevel" id="path2" xml:space="preserve" connector-curvature="0" style="fill:#FFFFFF;" />
    <path d="M0.5 17.9609 L4.60156 22.5313 L5.53902 23.1172 L8.23433 25.9297 L10.3437 27.4531 L12.5703 28.5078 L14.0937 30.8516 L15.2656 34.1328 L15.8515 37.2969 L16.0859 39.875 L15.0312 40.8125 L12.9218 39.6406 L9.99214 36.7109 L6.5937 33.0781 L4.60152 29.9141 L2.8437 26.75 L1.78902 23.1172 L1.20308 20.3047 z" stroke="#000000" stroke-linejoin="bevel" id="path4" xml:space="preserve" connector-curvature="0" style="fill:#FFFFFF;" />
    <path d="M12.1016 27.6875 L11.6328 21.125 L11.6328 16.2031 L12.3359 11.75 L14.6796 7.88281 L16.6718 5.42188 L19.6015 3.07813 L23 1.08594 L26.75 0.5 L33.3125 0.851563 L37.2968 1.90625 L40.6953 3.42969 L43.7421 5.42188 L45.9687 7.53125 L47.7265 10.9297 L48.664 14.4453 L49.3671 17.7266 L48.54679 21.9453 L47.0234 25.3438 L45.5 28.1563 L45.26559 31.3203 L45.5 35.0703 L46.0859 37.7656 L47.8437 40.8125 L50.3046 43.2734 L52.1796 45.1484 L55.10929 46.6719 L57.45309 48.0781 L57.92179 49.25 L57.10149 50.6563 L55.10929 53.2344 L52.76559 55.5781 L49.95309 57.3359 L47.72649 58.5078 L45.03119 59.2109 L41.86709 60.0313 L37.76559 60.0313 L33.89839 60.0313 L31.32029 59.3281 L29.09369 58.2734 L26.98429 56.6328 L25.22649 55.4609 L23.58589 56.8672 L21.71089 58.3906 L20.30459 59.5625 L18.07809 60.0313 L13.97649 60.5 L11.04679 60.2656 L8.585882 58.3906 L9.054632 57.2188 L11.39839 55.6953 L13.62499 53.5859 L15.38279 50.6563 L15.85149 46.7891 L16.08589 43.625 L15.96869 39.4063 L15.38279 36.4766 L14.32809 33.54691 L13.39059 31.20311 z" stroke="#000000" stroke-linejoin="bevel" id="path6" xml:space="preserve" connector-curvature="0" style="fill:#FFFFFF;" />
    <path d="M19.7188 27.8047 L23.1172 30.7344 L25.3437 31.0859 L28.1562 31.3203 L31.6718 30.8516 L34.3671 30.3828 L36.5937 29.3281 L38.5859 28.0391 L38.2343 29.0938 L36.125 32.0234 L33.664 35.8906 L31.5546 38.7031 L29.4453 41.2813 L28.5078 41.8672 L26.2812 39.5234 L24.6406 36.7109 L22.7656 33.7813 L21.125 30.8516 L19.8359 28.625 z" stroke="#000000" stroke-linejoin="bevel" id="path8" xml:space="preserve" connector-curvature="0" style="fill:#FF0000;" />
    <path d="M20.8906 10.3438 L23.9375 13.2734 L25.8125 14.6797 L26.6328 17.0234 L26.75 24.7578 L22.6484 24.4063 L22.5312 18.3125 L22.6484 14.2109 z" stroke="#2D2D2D" stroke-linejoin="bevel" id="path10" xml:space="preserve" connector-curvature="0" style="fill:#000000;" />
    <path d="M36.8473 10.6914 L33.8004 13.6211 L31.9254 15.0273 L31.1051 17.3711 L30.9879 25.1055 L35.0895 24.7539 L35.2067 18.6602 L35.0895 14.5586 z" stroke="#2D2D2D" stroke-linejoin="bevel" id="path12" xml:space="preserve" connector-curvature="0" style="fill:#000000;" />
    <linearGradient x1="30.06059" y1="20.71947" x2="69.54569" y2="20.71947" gradientUnits="userSpaceOnUse" gradientTransform="scale(0.8119022, 1.231676)" id="SVGID_Fill1_" xml:space="preserve">
      <stop offset="0%" stop-color="#737373" stop-opacity="1" id="stop14" xml:space="preserve" />
      <stop offset="100%" stop-color="#FFFFFF" stop-opacity="1" id="stop16" xml:space="preserve" />
    </linearGradient>
    <path d="M24.4063 2.60938 L32.1406 4.13281 L36.3593 6.00781 L39.7578 8.58594 L42.5703 12.1016 L43.039 16.6719 L42.9218 22.8828 L41.9843 28.8594 C41.9843 28.8594 41.75 33.4297 41.6328 34.0156 C41.5156 34.6016 41.2812 37.0625 41.2812 37.0625 L42.4531 40.3438 L43.8593 43.1563 L46.5546 45.7344 L49.7187 47.8438 L52.6484 49.25 L55.2265 49.8359 L56.4643 48.1587 L52.3335 45.8735 L49.6528 43.4565 L46.9721 40.5122 L44.914 35.7734 L45.1484 30.2656 L45.9687 26.75 L47.9829 20.9126 L48.5468 16.2031 L46.0493 8.78369 L43.2734 5.89063 L38.0512 2.71924 L31.9062 1.32031 L27.2187 1.20313 z" stroke-width="0.2" stroke-linejoin="bevel" id="path19" xml:space="preserve" connector-curvature="0" style="fill:url(#SVGID_Fill1_);" />
    <linearGradient x1="5.365403" y1="99.32042" x2="12.89121" y2="99.32042" gradientUnits="userSpaceOnUse" gradientTransform="scale(1.719674, 0.5815055)" id="SVGID_Fill2_" xml:space="preserve">
      <stop offset="0%" stop-color="#737373" stop-opacity="1" id="stop21" xml:space="preserve" />
      <stop offset="100%" stop-color="#FFFFFF" stop-opacity="1" id="stop23" xml:space="preserve" />
    </linearGradient>
    <path d="M12.1491 55.9407 L10.5231 57.1052 L9.22676 58.0281 L11.0175 59.4746 L12.5996 59.8848 L15.0019 59.9434 L16.9941 59.8848 L19.7077 59.0828 L21.2128 57.8926 L22.1687 56.9954 L19.9238 57.3066 L17.6386 58.0684 L15.4121 57.834 L13.7128 56.7793 L12.7204 55.5671 z" stroke-width="0.2" stroke-linejoin="bevel" id="path26" xml:space="preserve" connector-curvature="0" style="fill:url(#SVGID_Fill2_);" />
    <linearGradient x1="11.4921" y1="136.2417" x2="20.07644" y2="136.2417" gradientUnits="userSpaceOnUse" gradientTransform="scale(2.358271, 0.4240395)" id="SVGID_Fill3_" xml:space="preserve">
      <stop offset="0%" stop-color="#737373" stop-opacity="1" id="stop28" xml:space="preserve" />
      <stop offset="100%" stop-color="#FFFFFF" stop-opacity="1" id="stop30" xml:space="preserve" />
    </linearGradient>
    <path d="M27.1015 55.9517 L30.0788 57.9841 L32.8693 58.9729 L34.8249 59.28049 L41.3691 59.59179 L43.8886 59.00589 L47.3457 57.6582 L45.998 57.0723 L44.00581 57.4238 L41.19331 58.2441 L38.08781 58.1855 L33.28321 57.0137 L30.58781 56.1348 z" stroke-width="0.2" stroke-linejoin="bevel" id="path33" xml:space="preserve" connector-curvature="0" style="fill:url(#SVGID_Fill3_);" />
  </g>
</svg>