<?xml version="1.0" encoding="utf-8"?>
<!DOCTYPE svg PUBLIC "-//W3C//DTD SVG 1.1//EN" "http://www.w3.org/Graphics/SVG/1.1/DTD/svg11.dtd">
<svg x="0" y="0" width="48" height="48" overflow="hidden" viewBox="0, 0, 48, 48" preserveAspectRatio="xMidYMid"
     font-size="0" id="svg" xml:space="preserve" xmlns="http://www.w3.org/2000/svg"
     xmlns:xml="http://www.w3.org/XML/1998/namespace" version="1.1">
  <g transform="matrix(0.2687532, 0, 0, 0.284024, -13.99034, -12.71063)" id="g940" xml:space="preserve">
    <g id="g78" xml:space="preserve">
      <path d="M101.512 102.044 C100.45 101.99 98.6418 101.954 98.418 100.028 C98.3032 99.0635 102.273 95.4955 101.278 94.0795 C101.027 93.7248 100.303 93.3395 98.606 92.8555 C96.5752 92.4075 92.9392 92.7049 86.6525 94.9648 C86.3712 95.06879 86.7366 94.9343 86.5125 95.0115 C86.2672 95.1009 86.3926 95.0475 86.2312 95.1049 C86.4231 95.0435 85.9497 95.2248 85.106 95.5329 C85.0378 95.5635 84.9912 95.5903 83.98061 95.9075 C82.60061 90.9435 86.31911 81.7822 89.4659 81.4702 C90.74721 81.3449 92.17921 83.1262 94.0125 82.1262 C97.31911 80.3235 97.65781 77.5635 97.1992 74.1569 C96.8512 71.5688 94.174 74.0169 92.3712 74.7195 C90.418 75.4863 90.3767 75.9435 89.8406 75.4235 C88.2101 73.8449 89.1163 70.2621 95.5125 63.1942 C97.7565 60.7101 98.7672 57.1782 98.8872 55.9755 C99.0232 54.5901 94.5592 58.4702 94.106 57.5222 C93.7939 56.8608 97.6846 53.0742 99.6846 52.0383 C100.611 51.5583 100.616 52.5795 101.278 52.5062 C102.136 52.4075 107.538 47.4809 107.185 46.6942 C106.95 46.1782 103.054 48.4289 102.871 47.8661 C102.773 47.5635 106.903 45.4755 106.903 45.4755 C106.903 45.4755 106.877 45.3715 106.903 45.2875 C105.278 45.8715 83.91379 52.6942 67.1113 77.8608 C40.2258 118.132 51.3406 172.46 91.9033 199.152 C132.466 225.845 187.199 214.814 214.085 174.547 C227.527 154.413 231.491 130.72 227.023 108.746 C222.549 86.77151 208.309 67.04351 203.027 64.50092 C204.081 65.53831 204.778 66.18892 204.475 66.56351 C204.303 66.78751 203.012 67.03291 201.803 65.71951 C200.601 64.41291 194.939 60.02221 194.262 59.02221 C193.581 58.01691 193.71 57.67821 194.075 57.61551 C194.439 57.55291 195.043 57.76211 195.294 57.89691 C195.538 58.03291 189.767 53.41291 189.387 53.16221 C189.007 52.91291 187.95 52.48091 187.747 52.55291 C187.393 52.67822 188.669 53.55832 188.45 53.77151 C188.251 53.97021 187.658 53.85551 187.185 53.44352 C186.944 53.23552 180.636 48.64751 176.778 47.16222 C174.497 47.50622 173.038 47.72491 172.794 48.19422 C172.45 48.86612 177.939 51.07422 178.231 51.61552 C178.538 52.18352 177.366 53.01152 176.262 53.16222 C172.814 53.63152 171.475 51.95432 171.059 51.00622 C169.611 47.67822 163.377 48.89692 157.893 52.45952 C155.523 53.99552 146.262 53.98092 146.174 52.78752 C146.007 50.49552 146.857 48.98632 141.251 49.92892 C137.314 50.59012 136.256 51.99022 136.611 52.27152 C137.267 52.79822 139.961 53.74632 140.174 54.61552 C140.319 55.20492 136.799 58.51692 127.101 57.85032 C126.136 63.00092 126.174 64.14232 127.147 65.72482 C128.116 67.30351 129.674 67.91821 130.57 67.69421 C132.627 67.17281 134.663 64.71951 136.19 64.69421 C138.866 64.63692 140.679 67.21011 140.595 70.69421 C140.595 70.81412 140.559 70.90752 140.549 71.02222 C140.543 71.06882 140.554 71.11552 140.549 71.16222 C140.122 75.00622 135.699 73.57422 132.72 72.85032 C128.934 71.92352 128.908 84.61552 132.486 87.04752 C125.486 86.30351 116.627 89.63692 111.961 91.68892 C108.111 93.38082 115.601 96.94352 114.303 98.15692 C112.783 99.57952 109.611 100.934 107.179 101.533 C105.809 101.861 102.532 102.096 101.512 102.044 z" stroke-width="0.2" stroke-linejoin="round" id="path2" xml:space="preserve" connector-curvature="0" style="fill:#FFFFFF;" />
      <radialGradient cx="92.0221" cy="99.5085" r="317.775" fx="92.0221" fy="99.5085" gradientUnits="userSpaceOnUse" gradientTransform="rotate(-90, 92.02209, 99.50848)" id="SVGID_Fill1_" xml:space="preserve">
        <stop offset="0%" stop-color="#FFFFFF" stop-opacity="1" id="stop4" xml:space="preserve" />
        <stop offset="23.5199%" stop-color="#FFFFFF" stop-opacity="1" id="stop6" xml:space="preserve" />
        <stop offset="33.21%" stop-color="#E9E9E9" stop-opacity="1" id="stop8" xml:space="preserve" />
        <stop offset="67.7299%" stop-color="#C8C8C8" stop-opacity="1" id="stop10" xml:space="preserve" />
        <stop offset="70.1698%" stop-color="#C8C8C8" stop-opacity="1" id="stop12" xml:space="preserve" />
        <stop offset="88.7199%" stop-color="#909090" stop-opacity="1" id="stop14" xml:space="preserve" />
        <stop offset="100%" stop-color="#626262" stop-opacity="1" id="stop16" xml:space="preserve" />
      </radialGradient>
      <path d="M101.512 102.044 C100.45 101.99 98.6472 101.954 98.418 100.028 C98.3032 99.0635 102.273 95.4955 101.278 94.0795 C101.027 93.7248 100.309 93.3395 98.606 92.8555 C96.5752 92.4075 92.9392 92.7049 86.6525 94.9648 C86.3712 95.06879 86.74181 94.9343 86.5125 95.0115 C86.27261 95.1009 86.3979 95.0475 86.2312 95.1049 C86.4285 95.0435 85.9497 95.2248 85.106 95.5329 C85.0378 95.5635 84.9912 95.5903 83.98061 95.9075 C82.606 90.9435 86.32451 81.7822 89.4659 81.4702 C90.74721 81.3449 92.17921 83.1262 94.0125 82.1262 C97.31911 80.3235 97.65781 77.5635 97.1992 74.1569 C96.8512 71.5688 94.174 74.0169 92.3712 74.7195 C90.418 75.4863 90.3767 75.9435 89.8406 75.4235 C88.2101 73.8449 89.1163 70.2621 95.5125 63.1942 C97.7565 60.7101 98.7672 57.1782 98.8872 55.9755 C99.0232 54.5901 94.5592 58.4702 94.106 57.5222 C93.7939 56.8608 97.6899 53.0742 99.6846 52.0383 C100.611 51.5583 100.616 52.5795 101.278 52.5062 C102.142 52.4075 107.538 47.4809 107.185 46.6942 C106.95 46.1782 103.054 48.4289 102.871 47.8661 C102.773 47.5635 106.903 45.4755 106.903 45.4755 C106.903 45.4755 106.882 45.3715 106.903 45.2875 C105.278 45.8715 83.91379 52.6942 67.1113 77.8608 C40.2258 118.132 51.3406 172.46 91.9033 199.152 C132.466 225.845 187.199 214.82 214.085 174.547 C227.532 154.413 231.491 130.72 227.023 108.746 C222.549 86.77151 208.309 67.04351 203.027 64.50621 C204.081 65.53831 204.778 66.18891 204.475 66.56881 C204.303 66.78751 203.012 67.03291 201.809 65.72481 C200.601 64.41291 194.944 60.02751 194.262 59.02221 C193.581 58.01691 193.71 57.67821 194.075 57.61551 C194.439 57.55291 195.043 57.76211 195.294 57.89691 C195.543 58.03291 189.767 53.41821 189.387 53.16221 C189.007 52.91291 187.95 52.48091 187.747 52.55291 C187.393 52.67821 188.669 53.55831 188.45 53.77151 C188.251 53.97021 187.658 53.86081 187.185 53.44351 C186.95 53.23551 180.636 48.64751 176.778 47.16221 C174.497 47.50621 173.038 47.72491 172.799 48.19421 C172.45 48.86612 177.939 51.07421 178.237 51.61551 C178.543 52.18351 177.366 53.01151 176.267 53.16221 C172.814 53.63151 171.475 51.95431 171.065 51.00621 C169.611 47.67822 163.382 48.89692 157.893 52.45951 C155.523 53.99551 146.262 53.98092 146.179 52.78751 C146.007 50.49551 146.86 48.98631 141.256 49.92891 C137.314 50.59011 136.262 51.99021 136.616 52.27151 C137.273 52.80352 139.966 53.74632 140.179 54.61552 C140.324 55.21012 136.803 58.51692 127.101 57.85032 C126.136 63.00092 126.179 64.14232 127.147 65.72482 C128.116 67.30891 129.679 67.91821 130.57 67.69421 C132.633 67.17281 134.663 64.72491 136.194 64.69421 C138.866 64.63692 140.685 67.21011 140.601 70.69421 C140.595 70.81412 140.559 70.90752 140.554 71.02222 C140.549 71.06882 140.559 71.11552 140.554 71.16222 C140.127 75.01151 135.699 73.57951 132.726 72.85032 C128.939 71.92352 128.914 84.61552 132.491 87.04752 C125.491 86.30891 116.633 89.63692 111.966 91.68892 C108.111 93.38082 115.606 96.94352 114.303 98.15692 C112.783 99.57952 109.616 100.938 107.185 101.533 C105.809 101.866 102.532 102.096 101.512 102.044 z" stroke-width="0.2" stroke-linejoin="round" id="path19" xml:space="preserve" connector-curvature="0" style="fill:url(#SVGID_Fill1_);" />
      <path d="M99.8767 79.7822 C106.19 80.0955 110.038 78.4235 113.934 76.8141 C106.975 71.7715 125.423 69.3141 120.22 75.5903 C125.012 76.0009 128.803 73.1209 133.324 71.9129 C135.136 71.4289 138.778 71.4543 140.611 70.6995 C140.512 75.1581 135.809 73.6102 132.715 72.8555 C128.928 71.9289 128.887 84.6155 132.466 87.0529 C125.47 86.3089 116.652 89.6529 111.986 91.7101 C108.136 93.4022 115.59 96.9343 114.294 98.1475 C112.767 99.5688 109.595 100.949 107.163 101.548 C105.794 101.881 102.523 102.158 101.507 102.044 C100.491 101.929 100.554 101.205 102.393 99.0009 C103.715 97.4075 104.393 96.1889 102.283 94.6009 C100.606 93.3342 99.72053 93.1209 98.62183 92.8808 C96.58983 92.4343 92.93922 92.7195 86.65783 94.9809 C87.74723 88.2142 89.41803 86.2142 90.64723 84.7569 C91.79933 83.3808 93.49123 84.19949 95.75653 84.5009 C98.13653 84.8141 99.51253 82.0062 99.87673 79.7822 z" stroke="#5A5A5A" stroke-width="0.2" stroke-linejoin="round" id="path21" xml:space="preserve" connector-curvature="0" style="fill:#5A5A5A;" />
      <path d="M106.991 45.2875 C106.991 45.2875 102.756 47.5475 102.857 47.8503 C103.038 48.4129 106.923 46.2049 107.158 46.7195 C107.512 47.5062 102.116 52.4182 101.256 52.5169 C100.595 52.5955 100.616 51.5383 99.6899 52.0169 C97.69379 53.0529 93.80859 56.8555 94.1218 57.5169 C94.5752 58.4702 99.0271 54.6009 98.89259 55.9863 C98.77259 57.1889 97.7672 60.7355 95.52319 63.2142 C89.1272 70.28751 88.22579 73.83421 89.85659 75.41821 C90.39259 75.9382 92.35659 74.7515 92.35659 74.7515 C94.44969 68.6581 99.80319 66.5582 100.857 60.91821 C101.095 59.62621 100.877 59.61021 99.58979 57.41821 C99.58979 57.41821 100.923 56.21951 101.756 55.71951 C102.627 55.19421 102.585 56.2621 103.455 55.98631 C105.303 55.39151 106.799 53.67281 108.09 52.01691 C109.382 50.36081 108.481 50.04751 108.523 49.48631 C108.57 48.90751 108.955 49.5583 108.523 48.5475 C108.095 47.5435 106.991 45.28751 106.991 45.28751 z M172.789 48.3503 C172.819 49.2142 172.705 50.1209 172.857 50.9543 C172.981 51.6315 174.918 52.6155 176.294 53.1529 C177.403 53.0688 178.565 52.1889 178.256 51.6209 C177.966 51.0795 175.351 50.4075 172.789 48.3503 z M136.622 52.2822 C136.532 52.8395 136.674 55.3035 136.991 56.7875 C138.267 56.1835 140.335 55.2101 140.19 54.6209 C139.975 53.7515 137.122 52.9648 136.622 52.2822 z M187.726 52.6835 C187.408 53.1049 187.299 53.2929 187.19 53.4543 C187.72 53.8661 188.256 53.9809 188.461 53.7875 C188.674 53.5688 187.914 53.0115 187.726 52.6835 z M194.09 57.5849 C193.726 57.6475 193.575 58.0169 194.256 59.0169 C195.199 57.9595 194.414 58.8715 195.289 57.8862 C195.038 57.7515 194.455 57.5222 194.09 57.5849 z M203.023 64.4863 C201.778 65.7195 202.835 64.6942 201.789 65.7195 C202.997 67.0275 204.283 66.7715 204.455 66.55289 C204.757 66.1728 204.081 65.51689 203.023 64.4863 z M136.226 64.68349 C134.694 64.7142 132.616 67.19949 130.554 67.7195 C128.773 68.1675 127.882 66.3503 126.69 65.18349 C127.136 67.8249 127.794 70.38619 130.19 70.9489 C132.45 71.4863 134.961 68.0795 137.19 68.0849 C138.491 68.0903 139.898 70.4289 140.554 71.1529 C140.877 67.4343 139.018 64.6262 136.226 64.6835 z M96.72581 73.11549 C96.52322 76.63149 97.32981 80.31409 94.02322 82.1209 C92.18992 83.1209 90.73662 81.3249 89.45522 81.45429 C86.31402 81.76209 82.61111 90.92349 83.99122 95.88619 C86.08062 95.23549 84.10062 95.86079 86.49122 95.01689 C87.29932 90.65289 88.38202 86.47019 91.05922 84.21949 C92.44452 83.04749 96.04862 85.24089 97.68992 83.88079 C99.76182 82.17279 101.762 76.55289 96.72581 73.11549 z M101.289 94.08489 C102.314 95.50089 98.69922 98.69419 98.42312 100.022 C98.14182 101.345 99.53252 101.924 100.923 101.918 C99.80862 101.189 102.742 98.9915 103.455 96.9863 C103.756 96.1315 103.231 95.3769 101.289 94.0849 z" stroke="#000000" stroke-width="0.2" stroke-linejoin="round" id="path23" xml:space="preserve" connector-curvature="0" style="fill:#000000;" />
      <path d="M68.2366 143.992 C66.9698 144.121 66.5325 145.184 67.2993 147.08 C64.6992 146.605 62.8767 146.064 60.6899 144.929 C60.1792 146.272 63.8245 147.027 65.56461 147.834 C65.65781 148.481 65.7151 149.153 65.79931 149.804 C65.58981 149.527 65.32451 149.314 65.04851 149.101 C64.28821 148.512 63.67401 148.116 62.98581 148.116 C62.57471 148.116 62.32981 148.069 62.09521 148.35 C61.34061 149.262 61.76721 150.533 62.89261 151.585 C64.02321 152.631 65.55921 153.137 66.26721 152.381 C66.49121 153.424 66.76721 154.46 67.29931 155.424 C67.43921 155.564 68.12721 156.116 68.09521 155.986 C67.26181 151.872 66.98581 150.881 66.73661 148.116 C67.04351 148.189 67.48581 148.345 68.42311 148.492 C68.85121 151.006 68.54851 149.381 69.73661 155.329 C70.30321 155.918 70.67921 156.325 71.23661 156.924 C70.51251 152.768 69.93381 151.637 69.68991 148.678 C70.10601 148.918 70.44461 148.908 70.81401 149.101 C70.80861 149.074 71.05381 148.522 70.67401 147.976 C66.85121 147.22 66.95481 142.486 73.86051 147.413 C73.89261 147.434 74.98581 146.943 74.09521 146.334 C71.61632 144.637 69.50201 143.856 68.23662 143.992 z M63.0806 149.288 C63.4659 149.314 64.106 149.574 64.5325 149.943 C65.2205 150.533 65.908 151.329 65.3767 151.772 C64.8512 152.21 64.002 151.533 63.3605 150.877 C62.7258 150.225 62.3658 149.7 62.7993 149.334 C62.8658 149.277 62.9497 149.277 63.0806 149.288 z" stroke="#000000" stroke-width="0.2" stroke-linejoin="round" id="path25" xml:space="preserve" connector-curvature="0" style="fill:#000000;" />
      <path d="M67.0271 170.361 C69.4231 171.288 70.5806 174.21 71.0806 174.845 L73.53249 176.178 L71.5592 172.178 C72.3818 172.085 78.43919 175.105 81.03249 177.986 C83.13259 180.32 84.13649 182.82 82.606 184.495 C82.4285 184.694 81.52709 184.73 81.3605 184.158 C81.9966 183.418 82.2726 182.325 81.79929 181.058 C81.32449 179.793 80.29389 178.21 79.53249 177.58 C77.96059 176.272 75.88719 175.033 73.56459 174.148 C74.50729 176.356 75.75649 178.949 77.34059 181.522 C75.89789 180.314 75.29389 178.839 74.37669 177.762 L71.86579 176.356 C72.10599 176.71 72.77799 177.986 73.17399 178.772 C72.26179 177.6049 71.74718 176.725 70.67399 174.96 C70.19379 174.178 69.82979 173.386 69.21509 172.61 C68.67919 171.924 67.96589 171.339 67.79388 171.277 C67.68989 171.235 67.00198 171.293 67.02708 170.361 z" stroke="#000000" stroke-width="0.2" stroke-linejoin="round" id="path27" xml:space="preserve" connector-curvature="0" style="fill:#000000;" />
      <path d="M217.251 113.558 C216.22 114.548 215.903 115.798 216.247 116.329 C217.106 117.657 218.434 116.298 218.997 115.564 C219.393 115.048 219.633 114.334 219.575 113.741 C219.527 113.214 218.981 111.902 217.251 113.558 z M222.439 116.329 C222.346 115.845 220.851 110.105 220.824 110.028 C220.799 109.949 220.778 109.886 220.767 109.84 C220.699 109.605 220.309 109.642 220.049 109.59 C219.789 109.544 219.532 109.522 219.283 109.538 C219.032 109.553 218.898 109.522 218.877 109.444 C218.846 109.324 218.944 109.194 219.169 109.053 C219.408 108.897 219.789 108.757 220.303 108.626 C220.824 108.501 221.101 108.544 221.142 108.757 C221.273 109.392 221.444 109.741 221.757 110.965 L222.914 115.528 C223.032 115.996 223.294 117.366 223.387 118.064 C223.481 118.762 223.341 119.189 223.158 119.304 C223.018 119.392 222.652 117.408 222.439 116.329 z M221.841 115.512 L219.236 118.46 L219.538 119.632 C219.606 119.881 219.606 120.11 219.679 120.47 C219.757 120.834 219.814 121.268 219.846 121.777 C219.882 122.288 219.819 122.59 219.658 122.678 C219.581 122.689 219.486 122.564 219.377 122.304 C219.262 122.048 219.179 121.793 219.122 121.533 C219.065 121.277 219.012 121.09 218.97 120.965 L218.549 119.058 L217.205 120.162 C217.136 120.23 217.018 120.366 216.857 120.569 C216.69 120.772 216.554 120.908 216.45 120.976 C216.273 121.09 215.923 121.168 215.387 121.225 C214.851 121.277 214.565 121.225 214.518 121.064 L214.549 120.934 L214.642 120.84 C215.185 120.605 215.794 120.272 216.481 119.834 C216.997 119.506 217.736 118.85 218.543 118.132 C219.346 117.418 220.002 116.725 220.559 116.205 L221.658 114.981 M217.559 112.49 C218.059 112.194 218.601 111.814 219.116 111.934 C219.627 112.048 220.07 112.673 220.127 113.268 C220.199 113.99 220.085 114.648 219.736 115.309 C219.382 115.97 218.882 116.637 218.314 117.101 C216.851 118.288 215.975 117.84 215.549 116.986 C215.127 116.142 215.679 114.366 216.554 113.424 C216.57 113.397 216.652 113.32 216.794 113.178 C216.939 113.038 217.023 112.954 217.038 112.924 C217.081 112.845 217.09 112.777 217.075 112.725 C217.059 112.673 217.023 112.626 216.95 112.585 C216.882 112.544 216.846 112.501 216.835 112.47 L216.846 112.413 L216.934 112.345 C217.012 112.293 217.136 112.252 217.294 112.214 C217.455 112.184 217.543 112.205 217.565 112.272 C217.585 112.366 217.575 112.501 217.518 112.684" stroke-width="0.2" stroke-linejoin="round" id="path29" xml:space="preserve" connector-curvature="0" style="fill:#000000;" />
      <path d="M144.554 56.1782 L145.633 55.6622 L146.439 57.7822 L149.549 56.2142 C150.975 61.5329 150.403 66.2929 146.507 72.0688 C146.002 71.6009 145.699 71.0275 145.455 70.6529 C149.824 63.4863 149.497 62.4129 148.737 57.7355 L143.95 60.3288 L143.939 64.0635 L142.669 64.9809 L142.72 59.8089 L145.289 58.3769 M155.715 57.6315 L159.273 63.5742 L158.357 64.2409 L155.242 59.2302 C154.966 59.8195 154.127 61.3608 153.294 62.2409 C153.199 62.1209 153.101 62.0329 153.002 61.9648 C152.908 61.8503 152.8349 61.7675 152.7729 61.7142 C152.7729 61.7142 152.6329 61.6369 152.3409 61.4755 C153.1789 60.0742 153.5589 59.6315 154.1849 58.2302 C154.7309 57.0062 155.1899 56.2249 155.2829 54.4382 L156.3709 54.3915 C156.2779 55.9022 155.9179 56.6995 155.7149 57.6315 z" stroke-width="0.2" stroke-linejoin="round" id="path31" xml:space="preserve" connector-curvature="0" style="fill:#000000;" />
      <path d="M224.169 137.668 C225.918 135.064 223.371 134.564 223.669 132.735 C224.194 129.496 227.846 123.345 228.403 123.022 C227.299 122.762 226.273 110.825 226.757 110.017 C226.027 110.454 226.57 118.293 227.857 123.022 C225.278 126.96 223.398 131.653 223.319 132.689 C223.163 134.839 225.147 135.7 224.169 137.668 z" stroke="#5A5A5A" stroke-width="0.2" stroke-linejoin="round" id="path33" xml:space="preserve" connector-curvature="0" style="fill:#5A5A5A;" />
      <path d="M92.5752 55.8342 C93.5178 54.9289 94.6899 53.7568 94.6418 53.7142 C94.4698 53.5688 93.3352 53.9648 92.9497 54.1102 C90.8605 55.9489 89.1326 57.8915 87.3245 59.8555 L86.502 59.9809 C89.0486 57.2822 91.6525 54.5849 94.9806 51.8969 L95.674 51.77681 L93.4659 53.64751 C93.7258 53.58491 94.1365 53.44891 94.32449 53.40751 C94.49659 53.3769 95.33519 53.1315 95.59519 53.25151 C95.92849 53.40751 94.1899 54.89151 93.4698 55.68351" stroke-width="0.2" stroke-linejoin="round" id="path35" xml:space="preserve" connector-curvature="0" style="fill:#000000;" />
      <path d="M96.5646 109.772 C96.418 109.798 96.2886 109.84 96.1792 109.913 C95.9698 110.058 95.8406 110.225 95.7939 110.429 C95.7512 110.601 95.783 110.762 95.8926 110.929 C96.002 111.101 96.1938 111.225 96.4552 111.257 C96.5232 111.262 96.6472 111.252 96.7993 111.236 C96.9552 111.214 97.0486 111.194 97.0806 111.194 C97.2778 111.22 97.3512 111.377 97.2886 111.653 C97.2153 111.976 97.00201 112.241 96.67921 112.434 C96.3512 112.621 95.98061 112.772 95.58981 112.897 L95.52321 113.225 C97.03251 112.944 97.91801 112.293 98.15251 111.272 C98.22581 110.949 98.15251 110.637 97.96061 110.324 C97.77261 110.006 97.47521 109.809 97.04861 109.762 C96.87121 109.741 96.70461 109.746 96.56461 109.772 z M105.669 109.272 C103.289 109.605 101.273 110.47 99.9338 111.657 C98.5952 112.845 97.7312 114.605 97.9285 115.996 C98.106 117.246 98.5486 118.49 99.7258 119.162 C100.898 119.84 101.71 120.11 103.023 120.11 L103.07 120.881 L101.527 121.153 C100.857 121.246 100.357 121.22 100.027 121.105 C99.6938 120.99 99.2778 120.596 99.106 120.21 L98.2672 120.262 L98.50201 122.558 L105.303 121.601 L105.215 119.569 C102.991 119.304 102.575 118.7 101.882 118.142 C101.324 117.694 100.72 116.616 100.585 115.678 C100.408 114.381 101.002 112.7 101.991 111.768 C102.928 110.892 103.86 110.47 105.611 110.08 C106.72 109.834 108.751 109.736 109.903 110.34 C110.414 110.61 111.726 111.637 111.934 113.105 C112.247 115.356 111.215 117.626 108.038 119.173 L108.136 121.09 L115.581 120.012 L115.294 117.585 L114.601 117.601 C114.444 117.908 113.997 118.538 113.803 118.824 C113.627 119.096 113.366 119.293 112.601 119.402 L110.387 119.71 L110.36 118.908 C111.871 118.372 113.101 117.574 113.898 116.626 C114.69 115.678 114.997 114.017 114.83 112.845 C114.627 111.397 113.726 110.32 112.133 109.601 C110.532 108.877 107.975 108.944 105.669 109.272 z" stroke-width="0.2" stroke-linejoin="round" id="path37" xml:space="preserve" connector-curvature="0" style="fill:#000000;" />
      <path d="M205.877 79.0222 C205.346 79.0903 204.185 79.4235 204.007 79.8969 C203.877 80.2355 203.694 80.7142 204.846 81.24091 C205.242 81.41821 206.018 80.87691 206.674 80.8503 C207.975 80.7929 209.007 83.03291 208.393 84.6995 C207.966 85.8555 206.636 86.7715 205.257 87.3395 C204.303 87.7409 203.581 87.6569 202.923 87.4955 C202.21 87.3195 201.685 86.8288 201.351 86.0169 C201.116 85.4595 200.966 84.8395 200.893 84.1529 C200.898 83.5742 201.357 83.4755 201.601 84.7822 C201.871 85.4382 202.366 86.0955 202.955 86.2355 C203.543 86.37151 204.262 86.2675 205.101 85.91821 C205.747 85.65291 206.47 84.9902 207.049 84.21951 C208.012 82.9382 207.642 81.97021 207.002 81.7675 C206.694 81.6728 205.794 82.2875 205.122 82.21951 C203.903 82.10091 202.991 80.56351 202.986 80.01151 C202.986 79.3195 203.486 78.92351 203.955 78.60091 C204.699 78.08491 206.002 77.46481 205.877 79.02221 z M208.857 86.4182 L208.71 87.8342 L207.122 87.68349 L207.382 86.35549 M206.71 87.82349 L206.585 89.24089 L205.002 89.10489 L205.111 87.69419" stroke-width="0.2" stroke-linejoin="round" id="path39" xml:space="preserve" connector-curvature="0" style="fill:#000000;" />
      <path d="M104.226 146.46 L103.928 146.616 C104.934 147.298 105.59 147.829 105.86 148.23 C106.136 148.631 106.444 148.653 106.846 148.277 C107.242 147.902 107.33 147.601 107.075 147.413 C106.824 147.225 105.871 146.902 104.226 146.46 z M111.789 146.32 C111.97 147.235 112.627 151.22 114.19 157.834 L112.475 157.886 L111.633 157.564 L112.581 158.476 C113.278 158.272 114.065 158.126 114.934 158.027 L128.461 156.481 L125.955 155.544 L124.387 156.517 L122.065 146.309 L123.205 145.82 L121.194 145.131 L119.809 145.97 L113.866 146.653 M113.538 146.981 L120.19 146.235 L120.767 149.408 L114.294 150.157 M108.133 148.481 L107.491 149.08 L101.111 149.705 L101.961 150.053 C102.549 149.891 103.199 149.788 103.928 149.714 L107.299 149.366 C106.554 150.648 105.627 151.777 104.518 152.741 C103.408 153.7 102.237 154.538 100.97 155.268 L101.273 155.397 C103.059 154.512 104.532 153.673 105.652 152.85 C105.97 156.096 106.133 158.08 106.133 158.788 L107.575 158.142 C107.439 157.481 107.231 155.762 106.961 152.938 C108.346 153.443 109.247 153.872 109.685 154.257 C110.122 154.637 110.47 154.7 110.71 154.408 C110.95 154.121 111.012 153.85 110.918 153.605 C110.83 153.366 110.049 153.101 108.554 152.824 C109.237 152.293 109.944 151.741 110.694 151.168 L111.47 150.949 L109.731 150.402 C109.408 151.214 108.871 152.012 108.142 152.762 L106.914 152.574 L106.866 151.976 C107.461 151.241 108.085 150.434 108.731 149.553 L109.799 149.126 M114.33 150.465 L120.841 149.714 L121.518 152.954 L114.918 153.694 M114.991 154.001 L121.636 153.23 L122.398 156.891 L115.747 157.662" stroke-width="0.2" stroke-linejoin="round" id="path41" xml:space="preserve" connector-curvature="0" style="fill:#000000;" />
      <path d="M177.773 124.148 C178.116 124.044 178.428 124.022 178.72 124.08 C179.012 124.142 179.185 124.268 179.242 124.449 C179.387 124.913 179.002 125.465 178.09 126.11 C177.179 126.752 175.622 127.413 173.418 128.096 C171.205 128.782 169.543 129.116 168.434 129.096 C167.324 129.074 166.694 128.834 166.554 128.377 C166.497 128.194 166.57 127.996 166.767 127.782 C166.97 127.569 167.251 127.408 167.611 127.293 C167.975 127.184 168.309 127.153 168.606 127.205 C168.908 127.257 169.36 127.434 169.975 127.736 C170.835 128.173 171.95 128.178 173.314 127.757 C174.669 127.34 175.581 126.705 176.054 125.856 C176.377 125.257 176.642 124.856 176.857 124.648 C177.07 124.438 177.377 124.272 177.773 124.148 z M179.251 128.512 C179.07 127.929 178.283 128.189 177.106 128.444 L177.018 128.157 L184.065 125.684 L184.152 125.97 C182.903 126.58 181.887 127.132 182.085 127.725 L183.955 136.053 C184.043 136.288 184.903 136.121 186.179 135.82 L186.267 136.105 L179.346 138.725 L179.262 138.438 C180.669 137.735 181.518 137.23 181.262 136.429 L179.851 129.777 L171.122 140.657 C171.575 140.725 172.71 140.637 173.565 140.449 L173.647 140.735 L165.893 143.096 L165.803 142.804 C167.439 142.027 168.267 141.621 168.19 141.2 L166.346 132.804 C166.289 132.314 164.851 132.386 163.652 132.684 L163.565 132.397 L171.809 129.804 L171.898 130.09 C171.027 130.512 168.835 131.298 169.065 132.044 L170.622 139.096" stroke-width="0.2" stroke-linejoin="round" id="path43" xml:space="preserve" connector-curvature="0" style="fill:#000000;" />
      <path d="M223.247 146.809 C222.903 147.027 221.351 150.214 220.45 152.058 L219.049 153.61 L219.142 149.954 C218.543 151.053 217.512 151.293 217.366 151.131 C217.158 150.891 217.414 149.684 217.997 148.913 C218.45 148.32 219.428 147.262 220.081 147.184 C221.101 147.064 220.236 149.924 220.341 151.241 C221.19 149.277 222.199 147.47 223.398 145.642 L223.633 142.757 C223.585 142.21 223.273 141.96 222.69 142.241 C222.095 142.527 221.439 143.178 220.731 143.965 C219.757 145.038 218.33 146.621 217.803 148.11 L216.294 149.517 C216.527 146.814 220.575 142.59 223.158 140.418 C223.736 139.929 224.33 140.116 224.507 140.809 C224.685 141.501 224.382 142.366 224.414 143.99 C225.299 143.148 225.475 143.153 225.341 144.225 C225.205 145.361 224.33 146.965 223.611 148.058 C223.043 148.913 223.075 147.949 223.247 146.809 z M218.642 148.861 C218.247 149.35 218.049 149.58 218.09 150.027 C218.116 150.361 218.403 150.137 218.747 149.829 C219.101 149.512 219.335 149.126 219.319 148.678 C219.299 148.126 218.914 148.533 218.642 148.861 z M224.251 145.324 C224.049 145.752 223.961 146.329 224.116 146.429 C224.257 146.512 224.414 146.11 224.581 145.725 C224.69 145.47 224.918 144.82 224.773 144.673 C224.633 144.538 224.382 145.064 224.251 145.324 z" stroke-width="0.2" stroke-linejoin="round" id="path45" xml:space="preserve" connector-curvature="0" style="fill:#000000;" />
      <path d="M172.669 87.5903 C172.685 87.6529 172.674 87.7142 172.636 87.7822 C172.595 87.8503 172.543 87.8915 172.475 87.9129 C171.944 88.11021 171.538 88.3661 171.256 88.67281 C170.97 88.9809 170.737 89.4755 170.543 90.15291 L168.002 100.35 C167.986 100.438 167.898 100.512 167.726 100.564 C167.595 100.605 167.481 100.596 167.382 100.538 L162.877 97.0275 L160.627 102.605 C160.581 102.705 160.486 102.777 160.357 102.82 C160.194 102.866 160.075 102.861 160.002 102.798 L151.871 95.89149 C151.36 95.4648 150.887 95.19949 150.444 95.1049 C149.997 95.0115 149.423 95.0435 148.726 95.19949 C148.669 95.21949 148.611 95.2142 148.543 95.1889 C148.481 95.1569 148.439 95.1209 148.423 95.0635 C148.382 94.9235 148.418 94.8342 148.532 94.7982 C149.027 94.6529 149.543 94.51151 150.09 94.3769 C150.595 94.2515 151.07 94.1262 151.507 93.9902 C151.955 93.8555 152.475 93.6782 153.075 93.4648 C153.705 93.2355 154.262 93.0475 154.751 92.9022 C154.871 92.8661 154.95 92.9182 154.997 93.0582 C155.038 93.1942 155.023 93.27679 154.95 93.29819 C154.466 93.47549 154.106 93.67819 153.866 93.90749 C153.627 94.13689 153.543 94.37149 153.616 94.6049 C153.652 94.7248 153.756 94.8555 153.928 95.0009 L160.616 100.601 L162.185 96.4902 L158.731 93.79289 C158.111 93.31409 157.633 93.02749 157.299 92.93819 C156.97 92.84489 156.518 92.8661 155.939 92.99549 C155.887 93.01149 155.83 93.00619 155.773 92.98089 C155.71 92.94889 155.674 92.91289 155.658 92.85549 C155.611 92.7142 155.642 92.63149 155.747 92.60089 C156.237 92.44889 156.69 92.32349 157.111 92.23019 C157.518 92.1423 157.939 92.0275 158.387 91.89149 C158.824 91.7569 159.289 91.60089 159.767 91.4182 C160.267 91.2355 160.762 91.06879 161.251 90.9182 C161.366 90.8808 161.45 90.9343 161.491 91.0742 C161.532 91.2101 161.518 91.29289 161.444 91.31409 C160.475 91.65689 160.043 92.00089 160.147 92.3342 C160.19 92.4863 160.377 92.6782 160.699 92.9235 L162.966 94.6369 L163.928 92.1423 C164.065 91.7929 164.101 91.51691 164.043 91.3235 C163.903 90.8661 163.335 90.7715 162.346 91.0435 C162.256 91.0688 162.19 91.01151 162.147 90.87151 C162.133 90.82351 162.142 90.76751 162.174 90.71011 C162.199 90.65291 162.242 90.61551 162.283 90.60091 C162.636 90.49551 163.07 90.37691 163.595 90.2515 C164.095 90.1315 164.502 90.0222 164.814 89.9235 C165.043 89.8555 165.371 89.7409 165.803 89.5849 C166.351 89.3769 166.809 89.2195 167.185 89.1049 C167.273 89.0795 167.335 89.1262 167.371 89.2463 C167.418 89.4022 167.36 89.5062 167.205 89.5582 C166.642 89.7715 166.215 90.0169 165.923 90.29819 C165.627 90.5795 165.314 91.11019 164.986 91.88619 L163.685 95.18349 L167.751 98.27149 L169.497 90.4129 C169.57 90.1209 169.575 89.87689 169.512 89.6728 C169.36 89.18349 168.794 89.0742 167.803 89.34489 C167.715 89.3715 167.647 89.31409 167.606 89.1728 C167.565 89.0329 167.606 88.9435 167.742 88.9022 C168.095 88.7929 168.527 88.6782 169.027 88.5582 C169.491 88.4489 169.877 88.3503 170.185 88.2569 C170.507 88.1569 170.871 88.0275 171.294 87.8661 C171.72 87.7049 172.111 87.56879 172.466 87.4595 C172.559 87.42889 172.633 87.47019 172.669 87.59029 z" stroke-width="0.2" stroke-linejoin="round" id="path47" xml:space="preserve" connector-curvature="0" style="fill:#000000;" />
      <path d="M188.527 172.027 C188.507 167.99 188.45 167.824 188.309 164.954 C183.585 166.768 176.018 169.829 174.824 170.064 C173.575 170.309 172.012 170.173 172.273 169.252 C172.486 168.495 173.991 166.913 175.341 166.418 C174.908 166.986 174.601 167.501 175.341 167.547 C176.294 167.616 180.237 165.96 182.163 165.329 C184.075 164.705 188.054 162.533 189.231 163.006 C190.423 163.486 190.169 167.424 190.169 170.272 C190.174 170.678 190.294 171.022 190.106 171.309 C189.756 171.839 189.081 171.902 188.527 172.027 z" stroke-width="0.2" stroke-linejoin="round" id="path49" xml:space="preserve" connector-curvature="0" style="fill:#000000;" />
      <path d="M122.585 186.481 C122.877 186.829 124.081 186.877 124.694 187.09 C125.314 187.298 128.428 187.424 129.403 187.356 C130.497 187.282 131.762 186.788 132.335 186.391 C132.824 186.053 133.111 185.657 133.081 185.214 C133.012 184.214 130.299 183.372 128.152 182.918 C126.19 182.495 122.47 182.902 119.726 183.012 C116.33 183.142 113.789 183.288 110.778 183.314 C110.418 183.32 109.944 182.986 109.944 182.648 C109.95 182.142 110.669 181.943 110.756 181.298 C110.778 181.142 110.794 181.001 110.705 180.965 C110.652 180.943 110.152 180.924 109.908 180.96 C109.715 180.99 109.559 181.09 108.955 181.116 C108.705 181.126 108.242 181.116 107.923 180.981 C107.647 180.861 106.803 180.391 107.975 180.194 C108.393 180.126 110.481 179.82 111.319 180.527 C112.174 181.246 111.242 182.153 111.242 182.153 C111.242 182.153 113.918 182.157 115.294 182.116 C118.908 182.006 127.215 181.277 127.215 181.277 C127.778 181.235 129.09 180.85 129.434 180.642 C129.756 180.443 129.991 180.214 129.893 180.022 C129.491 179.21 128.97 179.241 127.871 179.044 C129.502 178.7 131.231 179.101 131.319 180.064 C131.428 181.2 130.152 181.82 128.72 182.386 C130.237 182.621 132.152 183.246 133.075 183.788 C134.002 184.324 134.611 184.762 134.658 185.429 C134.705 186.105 134.357 186.705 133.491 187.257 C132.507 187.877 131.199 188.329 128.986 188.424 C127.163 188.501 124.081 188.033 122.981 187.553 C121.966 188.178 120.012 188.845 118.22 188.97 C116.606 189.08 114.283 188.82 113.523 188.429 C112.554 187.929 111.955 187.58 111.914 186.96 C111.877 186.47 112.018 185.97 112.767 185.777 C113.075 185.7 114.215 185.449 115.538 185.538 C117.215 185.648 119.111 186.386 118.027 187.309 C117.778 187.522 117.346 187.465 116.778 187.298 C118.012 186.001 113.142 186.21 113.185 186.809 C113.21 187.168 113.538 187.454 114.174 187.668 C114.814 187.891 117.116 188.038 118.043 187.97 C119.032 187.902 120.606 187.47 121.205 187.178 C121.803 186.886 122.314 186.866 122.585 186.481 z M109.72 180.527 C109.72 180.418 109.267 180.397 109.012 180.402 C108.762 180.408 108.33 180.46 108.335 180.547 C108.335 180.637 108.747 180.752 108.997 180.746 C109.242 180.741 109.715 180.637 109.72 180.527 z" stroke-width="0.2" stroke-linejoin="round" id="path51" xml:space="preserve" connector-curvature="0" style="fill:#000000;" />
      <path d="M187.002 65.3395 C184.251 59.4648 183.423 58.0009 187.07 57.4075 C185.991 56.8449 185.69 56.3661 184.986 56.5583 C183.382 56.9902 181.095 55.2875 180.065 54.8555 C181.09 54.4595 182.57 54.0795 183.262 54.0275 C183.398 54.0115 184.803 54.5688 184.981 54.5435 C184.72 53.9595 182.133 52.3395 181.72 52.4343 C179.491 52.9489 176.231 53.8808 174.794 54.2568 C175.262 55.2568 180.106 55.8449 182.616 57.1529 C182.636 57.9955 183.783 63.6782 187.002 65.33949 z" stroke-width="0.2" stroke-linejoin="round" id="path53" xml:space="preserve" connector-curvature="0" style="fill:#000000;" />
      <path d="M66.4285 109.205 L65.73119 110.872 C65.7618 111.069 65.9659 112.637 65.33519 113.834 L67.51249 113.798 C67.54349 112.986 68.40329 111.689 66.68459 110.881 L67.24718 109.345 L69.27798 109.298 C68.40798 110.7 67.98579 113.022 68.00198 113.782 L68.71508 113.768 C67.92848 116.001 67.63648 117.205 67.43378 120.282 C65.51247 118.47 61.85118 118.372 61.40328 118.616 C61.48578 117.424 62.53818 115.413 62.71508 115.101 L62.30318 115.044 L62.86048 113.752 L64.78298 113.845 C65.07468 113.298 65.49118 112.705 65.27798 110.949 C64.41379 110.881 63.70478 110.804 63.42849 110.965 C62.94459 111.257 62.54848 111.788 62.40329 113.314 C62.26719 111.845 62.28299 110.752 62.69918 110.105 C62.91378 109.768 63.26719 109.564 63.54848 109.293 M67.25169 115.881 C66.68459 115.006 63.75169 115.044 63.41849 115.064 C62.94459 115.47 62.54849 116.678 62.39789 117.2 C64.25169 116.965 66.37669 118.605 67.11629 119.334 C67.08509 118.329 67.28819 117.017 67.25169 115.881 z M69.37159 108.528 C69.00729 108.548 68.23119 107.82 67.44969 107.074 C66.47519 106.132 64.61129 105.434 63.92309 106.252 C63.74719 106.454 63.60599 106.653 63.61629 107.08 C63.62159 107.262 63.76719 107.476 64.02319 107.58 C64.2205 107.657 64.50199 107.71 64.88179 107.73 C64.79389 108.402 64.74129 108.861 64.38719 108.866 C62.94459 108.877 62.57469 107.528 62.67919 106.877 C62.80319 106.121 62.97519 105.84 63.26179 105.476 C63.84059 104.746 64.50199 104.72 65.11629 104.684 C66.7048 104.59 68.25169 107.298 69.3716 108.528 z" stroke-width="0.2" stroke-linejoin="round" id="path55" xml:space="preserve" connector-curvature="0" style="fill:#000000;" />
      <path d="M70.4806 83.2195 L73.55379 77.2875 L75.36579 76.8288 L76.13649 77.4343 L74.02319 81.66219 C73.814 82.07949 73.93379 82.5275 74.48059 82.49549 C75.06459 82.46479 75.95479 82.22479 76.18459 81.73549 L77.81909 78.25149 L77.17399 77.08488 L79.00199 76.21008 L79.38719 76.63148 L79.99119 76.60088 L78.87119 77.26749 L78.48058 76.74088 L77.73119 77.09029 L78.35658 78.21008 L76.75648 81.63148 C76.29388 82.62089 74.32449 83.10088 73.67918 82.79819 C73.31399 82.62619 73.42308 81.97018 73.60059 81.60489 L75.53249 77.57949 L75.17918 77.24629 L73.81908 77.55819 L71.83518 81.30349 C72.16858 81.08489 73.08058 80.80349 72.49658 81.86079 C72.16319 82.45949 71.02708 83.31949 71.02708 83.31949 M71.18459 82.63689 L71.64178 81.74628 C72.20479 81.28218 72.41849 81.36079 72.18989 81.77679 C72.02319 82.07419 71.56989 82.55289 71.18459 82.63689 z" stroke-width="0.2" stroke-linejoin="round" id="path57" xml:space="preserve" connector-curvature="0" style="fill:#000000;" />
      <radialGradient cx="77.5548" cy="101.792" r="403.039" fx="77.5548" fy="101.792" gradientUnits="userSpaceOnUse" gradientTransform="rotate(-90, 77.55481, 101.7917)" id="SVGID_Stroke1_" xml:space="preserve">
        <stop offset="0%" stop-color="#1F1F1F" stop-opacity="1" id="stop59" xml:space="preserve" />
        <stop offset="100%" stop-color="#000000" stop-opacity="1" id="stop61" xml:space="preserve" />
      </radialGradient>
      <radialGradient cx="77.5548" cy="101.792" r="403.139" fx="77.5548" fy="101.792" gradientUnits="userSpaceOnUse" gradientTransform="rotate(-90, 77.55481, 101.7917)" id="SVGID_Fill2_" xml:space="preserve">
        <stop offset="0%" stop-color="#1F1F1F" stop-opacity="1" id="stop64" xml:space="preserve" />
        <stop offset="100%" stop-color="#000000" stop-opacity="1" id="stop66" xml:space="preserve" />
      </radialGradient>
      <path d="M116.324 132.668 C114.158 134.361 118.83 135.678 119.737 137.282 C120.642 138.886 117.59 140.59 117.652 140.601 C117.747 140.605 121.095 138.574 120.242 137.044 C119.382 135.512 114.914 134.137 116.324 132.668 z M106.773 45.2568 C106.83 45.2195 106.532 45.3503 106.273 45.4489 C106.226 45.5383 103.762 46.6102 102.414 47.8449 C102.36 48.1262 103.382 48.7715 106.002 47.4595 C105.585 48.0795 103.09 50.7049 101.45 51.6995 C100.737 52.1369 100.918 51.1209 99.86579 51.5849 C98.26719 52.2929 93.99119 55.4289 93.69379 57.8769 C93.55379 59.0222 98.5806 55.3715 98.32449 56.4075 C98.00199 57.7049 95.90839 63.1475 92.11109 65.8235 C88.69379 66.4435 88.50199 66.4129 86.16859 66.8661 C83.1272 66.8661 92.00199 61.82351 87.86579 61.61551 C82.65249 61.35551 81.81909 64.12621 80.64719 66.40221 C81.9752 64.16221 83.01779 61.40221 87.9445 61.69421 C91.34579 61.89691 82.77779 67.01691 86.0898 67.01691 C88.4231 66.56881 88.7726 66.56351 92.1899 65.93821 C95.9806 63.26211 98.1525 57.72491 98.4752 56.25151 C98.7046 55.21011 93.5898 58.90221 93.7672 57.75681 C94.106 55.62091 98.34579 52.38081 99.9445 51.66221 C100.841 51.25681 100.694 52.32881 101.408 51.89151 C103.049 50.89151 105.877 48.02221 106.346 47.18891 C103.731 48.50091 102.554 48.12621 102.606 47.84491 C103.893 46.66751 106.502 45.42891 106.773 45.25681 z M80.6525 66.4022 C79.6578 68.0795 78.5178 69.4902 75.4806 69.0635 C77.8352 66.2621 80.9966 63.0222 83.0073 60.4595 C81.6938 61.4289 81.674 61.2515 82.2726 60.5742 C81.3767 61.5169 81.1272 61.9182 82.5806 60.8449 C80.0898 63.5635 77.6792 66.3769 75.32449 69.1782 C78.69379 69.6102 79.75649 68.1369 80.6525 66.4022 z M106.116 45.4902 C105.846 45.5688 105.142 45.8195 103.841 46.2621 C100.585 47.9235 97.5271 49.8288 94.19379 51.39149 C91.80859 53.5275 90.37669 54.3555 88.52319 56.0635 C88.87119 55.28749 88.4698 55.3862 87.71529 55.87149 C88.3605 55.51149 88.6992 55.52749 88.37119 56.25679 C90.22049 54.54749 91.882 53.60489 94.27259 51.47019 C97.60599 49.90749 100.663 48.00089 103.918 46.33949 C105.179 45.85549 105.694 45.64749 106.116 45.49019 z M178.081 47.84489 C180.642 49.23549 183.737 51.63689 186.762 53.2822 C185.081 52.1622 182.226 49.87149 178.081 47.84489 z M167.507 49.11549 C166.737 49.10489 165.778 49.21949 164.575 49.42349 C172.518 48.34489 166.742 55.21949 176.961 53.20489 C169.065 53.80349 172.882 49.18349 167.507 49.11549 z M142.809 49.77149 C140.502 49.92889 137.846 50.74089 136.944 51.54749 C138.262 50.59549 142.824 49.64749 144.663 50.31409 C146.289 50.90219 143.497 51.96479 146.054 53.47549 C147.081 54.0849 150.887 54.10089 154.231 53.5169 C150.908 53.9343 147.346 53.47549 146.59 53.21009 C145.319 52.75679 146.955 50.47549 145.398 49.96479 C144.715 49.74089 143.789 49.7049 142.809 49.7715 z M159.366 51.62619 C159.002 52.93429 164.19 59.49549 167.97 59.61019 C169.101 59.64749 169.581 58.41289 170.36 57.64229 C171.136 56.87149 171.647 56.37689 172.095 56.29289 C172.45 56.22489 171.185 55.72489 170.36 56.32879 C169.532 56.93819 168.778 58.47549 168.085 58.64749 C165.616 59.24629 160.72 52.63149 159.366 51.62619 z M136.636 51.93429 C136.611 52.01689 136.59 52.08489 136.636 52.16219 C136.616 52.08489 136.611 52.01689 136.636 51.93429 z M187.762 52.62619 C187.737 52.69949 188.169 52.97549 188.418 53.28219 C188.324 53.09009 188.194 52.89689 187.955 52.70489 C188.669 52.55289 193.497 56.35549 194.127 56.91289 C195.163 57.81949 193.054 56.94889 193.163 57.71949 C193.346 59.00089 197.33 62.48629 200.69 65.71008 C198.939 66.30888 196.751 68.44888 196.751 69.76208 C196.751 72.02748 200.065 72.91818 201.152 74.35029 C202.179 75.70489 200.481 76.47549 196.559 77.59029 C198.737 78.52749 203.179 77.18349 202.346 74.62089 C201.434 71.79819 198.423 72.43429 197.835 69.87688 C197.611 68.90749 200.86 66.45428 201.423 66.25149 C205.122 68.99549 210.47 74.98089 210.065 76.31949 C209.928 76.77149 208.283 75.13689 207.403 75.62619 C205.86 76.47549 211.527 85.11019 213.303 85.88619 C213.95 86.1675 214.377 81.65289 213.846 81.6423 C212.783 81.63149 213.757 85.13149 213.111 84.8089 C212.428 84.4648 208.027 78.8235 208.136 76.7822 C208.174 76.0582 210.928 77.6675 210.871 76.6675 C210.783 75.0329 205.59 69.1262 201.346 65.51689 C195.215 59.69419 193.403 58.21009 193.742 57.71949 C194.111 57.25149 195.595 58.15689 195.289 57.76209 C194.565 56.83949 189.674 53.05829 188.303 52.70489 C187.923 52.60489 187.778 52.59009 187.762 52.62619 z M188.418 53.28219 C188.527 53.52219 188.538 53.71949 188.532 53.82349 C188.652 53.65689 188.559 53.45949 188.418 53.28219 z M188.497 53.86079 C188.414 53.94889 188.289 53.99019 188.262 54.01689 C188.393 54.07419 188.45 53.99549 188.497 53.86079 z M186.914 53.36079 C187.408 53.68349 187.83 53.93429 188.111 53.98089 C187.705 53.79289 187.319 53.57949 186.914 53.36079 z M172.215 56.83419 C174.523 58.17279 177.47 60.85549 178.116 62.77679 C178.636 64.32879 176.86 63.76209 174.642 63.77679 C176.773 64.61549 179.543 64.84489 179.273 62.92889 C178.934 60.50619 174.934 56.82349 172.215 56.83419 z M136.174 57.33419 C133.147 58.32349 130.45 57.73549 127.147 57.95429 C127.136 58.05829 127.122 58.25149 127.106 58.37689 C130.038 58.18349 132.857 58.60489 136.174 57.33419 z M127.07 58.64749 C126.789 60.56349 126.418 62.49549 126.491 63.85549 C126.502 62.40219 126.893 60.10089 127.07 58.64749 z M86.82449 61.88619 C85.382 61.97019 83.34579 62.73019 82.9285 63.58489 C81.14719 67.23019 78.5752 70.63149 75.0952 69.52749 C72.908 71.37689 68.4285 77.06879 68.4966 79.63689 C68.5125 80.21949 71.0952 76.80888 71.314 77.39689 C71.66859 78.36609 70.50729 80.74089 69.502 82.37689 C68.6365 83.77679 67.5592 85.62619 66.3352 86.38619 C66.1006 86.53289 65.8032 84.36609 65.4497 84.84489 C62.9966 88.17279 60.1525 93.24089 60.2413 96.4955 C60.2939 98.3503 63.6326 99.6315 65.9138 96.4955 C66.7101 95.4022 65.81909 91.7463 66.79929 90.7463 C67.38719 90.1529 68.4912 89.3769 69.8512 89.1262 C71.16859 88.8862 74.1113 89.4022 73.8979 90.7463 C73.5178 93.2302 70.04849 95.0582 71.3566 96.3449 C73.5073 98.4543 80.2778 97.96481 83.5486 96.0742 C81.9912 91.01151 85.5232 82.2715 89.1792 81.1423 C90.4445 80.7515 91.5952 82.3862 93.1938 81.94891 C96.1326 81.14751 96.814 78.26211 96.8605 76.47021 C96.90331 74.77681 97.31911 72.6889 95.85661 73.03831 C93.98061 73.48631 90.7886 77.0275 89.33521 75.66221 C86.9698 73.44351 90.4966 69.38081 92.11111 66.40221 C90.50201 66.4129 85.53251 67.91821 84.58981 67.0955 C84.5846 68.5742 89.67921 66.91821 91.45521 66.90221 C89.84061 69.88081 86.68991 73.65291 88.90841 76.00621 C90.04861 77.21421 93.47521 74.25691 95.35661 73.80891 C96.81911 73.45951 96.39791 75.12621 96.35661 76.81951 C96.31401 78.60491 95.97521 80.79821 93.03781 81.60491 C91.43921 82.04351 90.44451 80.21011 89.17921 80.60091 C85.51781 81.73022 81.25652 90.78221 82.81401 95.83952 C79.54351 97.73552 74.08511 97.62621 71.93381 96.22482 C70.39791 95.23022 73.93921 93.00092 74.32451 90.51691 C74.53251 89.16751 71.39791 88.53831 70.08061 88.78221 C68.72581 89.02751 67.08061 89.99551 66.49121 90.59551 C65.51251 91.59031 66.48061 95.33952 65.56461 96.34491 C63.28301 98.83951 60.60061 98.27151 60.54852 96.41821 C60.46062 93.16222 63.23661 88.54752 65.37161 85.53831 C65.71511 85.05292 66.02322 87.03291 66.25652 86.88622 C67.48061 86.12621 68.70482 84.06351 69.65251 82.71951 C70.75171 81.17281 72.17921 77.82881 71.69921 76.74091 C71.44971 76.16751 68.66321 79.58492 68.80321 79.01691 C69.45481 76.44891 73.06461 71.76212 75.25171 69.91292 C78.73121 71.01691 81.30321 67.57422 83.08061 63.93432 C83.55921 62.95952 86.14721 62.14232 87.55921 62.27152 C87.78301 62.29292 87.91381 62.33422 88.02321 62.38622 C88.11631 62.13692 87.96981 61.98092 87.40331 61.92352 C87.22581 61.90752 87.03251 61.87692 86.82451 61.88622 z M88.02319 62.39149 C87.71529 63.18889 84.8298 64.87149 84.43379 66.59549 C84.38199 66.81949 84.45519 66.98089 84.58979 67.09549 C84.58979 67.04349 84.57519 67.00619 84.58979 66.94349 C85.05919 64.89149 89.01779 62.91289 88.02319 62.39149 z M173.179 62.89149 C172.179 62.85549 171.581 63.90749 171.595 64.97549 C171.622 66.6675 175.575 74.6675 178.737 75.74089 C173.466 79.07949 172.278 78.14749 164.532 79.36609 C169.559 79.04749 176.185 80.06879 180.663 75.43429 C176.685 73.52219 174.251 69.10089 173.023 65.01149 C172.565 63.48629 173.387 63.64749 174.294 63.31409 C173.882 63.02749 173.512 62.90219 173.179 62.89149 z M126.491 64.12619 C126.507 64.53289 126.554 64.83419 126.685 64.97549 C126.726 65.02219 126.756 65.04349 126.799 65.09009 C126.71 64.93819 126.616 64.78749 126.565 64.59009 C126.532 64.44889 126.507 64.28219 126.491 64.12619 z M135.595 64.20489 C135.423 64.19949 135.247 64.20489 135.095 64.24089 C132.559 64.88079 130.731 67.42889 128.961 67.32879 C128.205 66.57949 127.809 66.20489 127.455 65.86079 C128.918 67.52219 129.319 67.96478 130.773 67.48089 C132.961 66.75689 134.434 64.48089 136.95 64.59009 C137.095 64.59549 137.231 64.62089 137.371 64.66219 C136.803 64.40749 136.19 64.21948 135.595 64.20489 z M73.78299 68.98629 L73.74719 69.06349 L74.55379 69.37149 C73.1272 70.96479 68.1113 75.71009 68.07469 79.48089 C68.06989 79.81949 68.16859 80.01149 68.30319 80.13689 C68.56989 80.38078 69.15249 79.84489 70.50729 78.43819 C70.53249 78.41289 70.8352 78.07419 70.8512 78.40218 C70.9138 79.47018 67.6992 84.21008 66.9548 85.07418 C66.55379 85.54748 66.4752 85.53288 66.3406 85.15288 C66.0125 84.26208 65.8979 83.83418 65.7205 83.88078 C65.3658 83.97018 62.8979 87.25147 61.0898 91.25147 C60.5178 92.51688 59.9698 94.00617 59.6216 95.38078 C59.3512 95.16218 58.7101 94.62087 58.4285 94.53288 L58.3512 94.79817 C58.7939 94.99017 59.1899 95.21008 59.74129 95.99547 C60.3512 92.34487 63.35659 86.53287 65.64179 84.15287 C65.96059 83.81947 66.30319 86.02217 66.64719 85.65687 C68.4659 83.69947 71.08509 79.30887 71.00729 78.28747 C70.93379 77.34487 69.1216 79.94347 68.53819 80.02217 C68.43919 80.03827 68.2048 79.93427 68.1899 79.75147 C67.9185 76.78748 71.68459 72.51688 74.74719 69.37687 M189.961 70.72477 C185.565 70.63147 179.975 74.18347 180.622 74.85027 C181.532 75.78748 186.461 70.28748 192.737 71.45427 C191.944 70.97017 190.975 70.74627 189.961 70.72477 z M190.581 71.76747 C196.174 72.63687 190.054 79.63147 198.023 78.51687 C191.444 77.98627 197.658 71.44347 190.581 71.76747 z M157.86 72.57417 C151.21 72.79287 144.699 75.82347 146.747 78.43817 C147.747 79.71417 152.174 81.02217 151.185 82.37687 C148.981 85.38617 143.502 85.71007 133.747 86.73547 C148.319 86.41817 149.341 85.56876 152.575 82.60487 C154.778 80.57947 148.95 79.49547 148.059 77.43427 C147.095 75.20486 155.866 72.33946 162.142 72.88077 C161.179 72.70486 160.185 72.60087 159.174 72.57417 C158.731 72.56347 158.303 72.56347 157.86 72.57417 z M159.481 73.38617 C159.174 73.38077 158.871 73.40747 158.554 73.42347 C157.032 73.51687 155.408 73.85027 154.231 74.42887 C157.242 74.00087 159.783 73.33947 161.101 74.58487 C161.778 75.21947 160.21 77.33947 160.408 78.55817 C160.783 80.92347 161.903 80.51687 172.559 79.90746 C162.898 79.59547 160.466 81.08486 162.799 75.24086 C163.283 74.02746 161.606 73.41286 159.481 73.38616 z M181.085 76.27677 C181.002 76.27677 180.934 76.30887 180.893 76.35547 C180.075 77.33417 186.595 81.58487 186.45 86.07947 C186.393 87.84487 186.47 87.99547 183.674 87.74087 C185.997 88.47546 187.918 88.76207 187.955 86.23547 C188.018 81.98627 182.351 76.30887 181.085 76.27676 z M214.461 82.68347 C216.538 85.89147 218.122 87.56877 219.866 92.48627 C217.226 94.40218 214.715 97.70487 214.923 100.548 C215.085 102.714 217.86 103.861 217.778 105.22 C217.674 107.006 214.773 109.653 212.841 110.157 C215.663 112.012 219.122 106.856 219.09 104.486 C219.081 103.309 216.846 102.834 216.273 100.548 C215.633 97.98087 219.72 93.89146 220.095 93.56876 C221.652 94.92346 223.923 109.528 225.418 103.058 C223.814 107.381 222.45 96.87686 220.595 93.33416 C221.45 92.82346 221.059 92.98626 221.83 92.29286 C221.715 92.02746 221.841 91.77676 221.444 91.36606 C220.502 92.08486 220.767 91.79286 220.247 92.29286 C219.043 88.24086 217.032 84.77676 214.461 82.68346 z M150.491 85.27147 C142.434 87.34487 140.169 87.25147 134.824 87.54747 C140.309 88.35027 144.408 87.21007 150.491 85.27147 z M130.622 87.08487 C130.101 87.09027 129.393 87.12087 128.418 87.16217 C130.767 87.18347 131.565 87.95947 131.585 87.93427 C134.185 90.24088 135.857 94.26207 135.71 97.65688 C135.585 100.653 134.57 102.517 129.809 101.205 C125.231 99.94348 119.86 101.637 120.819 106.99 C121.466 110.605 121.611 115.381 128.032 114.902 C124.07 114.954 121.72 110.162 122.018 106.069 C122.414 100.46 127.538 100.877 131.737 101.861 C134.018 102.397 136.127 102.668 137.335 97.57948 C137.789 95.65288 136.289 91.44347 132.47 87.16218 C132.065 87.16218 132.169 87.06878 130.622 87.08488 z M181.398 87.50617 C180.975 87.49548 180.606 87.52217 180.237 87.54747 C178.032 87.68887 176.762 88.56347 176.647 90.28217 C176.403 94.18887 179.737 101.028 184.523 99.81407 C179.751 97.67278 178.152 93.91817 178.346 89.86077 C178.434 88.12617 180.21 87.69417 182.747 87.62087 C182.273 87.56347 181.814 87.51688 181.398 87.50617 z M128.267 87.62617 C122.627 87.75147 114.398 91.29817 111.751 92.63687 C110.497 93.27677 115.991 96.75687 114.914 98.27147 C111.928 102.481 102.955 103.205 98.9392 102.132 C94.70461 100.996 102.663 95.36607 100.366 93.94887 C97.44971 92.15287 91.25121 93.59547 84.54861 96.45947 C85.27781 102.58 85.5592 103.558 84.1992 107.725 C83.7205 109.2 81.9445 112.965 77.8712 109.809 C75.6992 108.132 73.778 109.934 73.3191 113.246 C72.6899 117.798 73.5898 122.257 77.6792 118.684 C79.3032 117.268 81.8458 117.97 82.3086 119.304 C84.2472 124.913 85.8191 128.762 83.1938 133.694 C96.3298 130.153 101.414 132.381 103.299 133.116 C105.835 134.105 103.481 136.569 101.408 139.402 C104.466 136.225 105.986 134.006 103.72 132.574 C99.674 130.006 90.1111 131.329 84.0846 132.96 C86.1472 128.558 84.0325 122.429 82.6578 119.184 C81.8566 117.298 78.9497 116.637 77.4497 118.184 C73.0646 122.694 73.6326 115.705 74.0538 112.782 C74.314 110.944 75.5178 108.845 77.6006 110.314 C79.8245 111.877 81.9698 113.424 84.5846 108.381 C86.4552 104.777 86.2565 100.58 85.4338 96.49546 C92.0699 93.89146 96.814 92.61546 99.8658 94.61016 C101.231 95.50086 94.9392 99.71946 97.0846 101.746 C99.3926 103.929 111.444 103.214 114.95 99.00616 C117.215 96.28217 110.299 93.57417 112.324 92.56346 C116.262 90.60486 124.179 87.60086 130.502 87.81946 C129.824 87.67816 129.07 87.60486 128.267 87.62616 z M182.09 88.59028 C181.636 88.59548 181.19 88.64228 180.699 88.74088 C182.846 89.47018 183.72 89.62087 186.256 89.16747 C184.69 88.89687 183.444 88.56877 182.09 88.59027 z M70.4285 89.6675 C69.2939 89.6782 68.1272 89.9435 67.4548 90.5582 C66.2205 91.6889 67.1578 95.0062 66.14179 96.80891 C64.7151 99.34491 61.78819 99.7822 59.66319 97.50091 C58.93919 101.798 57.08979 110.564 55.72579 110.194 L55.80319 110.314 C57.15779 110.866 59.16859 102.61 59.89259 98.35031 C61.99659 100.59 65.4231 99.06351 66.84059 96.57421 C67.84059 94.81411 66.4698 91.54351 67.9185 90.75151 C69.5851 89.83421 73.9138 89.94891 72.74129 91.36611 C71.5851 92.76751 69.4806 95.01151 70.38719 97.03831 C71.43919 99.39152 79.314 99.59551 83.39259 97.23022 C83.71529 101.954 84.0592 107.648 81.0752 109.58 C79.5898 110.538 77.90839 107.648 76.0592 107.569 C72.03249 107.408 69.6899 119.304 74.5952 121.345 C76.3032 122.058 77.2472 119.454 80.1111 118.99 C81.6472 118.746 83.6111 129.954 81.9231 132.495 C79.24719 136.533 69.0125 133.752 67.18459 131.648 C66.24129 130.564 70.1525 127.804 68.99659 126.053 C67.03249 123.085 61.44459 122.028 59.73659 123.7 C57.62159 125.772 61.36579 130.132 59.69919 131.49 C58.61129 132.381 56.08979 130.918 55.14719 128.908 C55.34059 124.924 56.20479 111.648 54.25648 115.132 C54.24718 113.653 54.20998 112.61 54.29929 111.657 C54.16859 112.902 54.12719 114.214 54.14178 115.673 C56.06458 112.21 54.94978 125.329 54.83519 129.372 C56.10059 131.814 58.78819 133.058 59.89259 132.148 C61.58059 130.757 57.98059 126.277 60.12159 124.162 C61.85118 122.454 65.74129 123.694 68.22578 126.132 C69.75169 127.621 65.93919 130.408 66.49119 131.762 C67.32449 133.829 79.23119 137.798 82.85119 132.653 C84.63649 130.105 82.46979 117.965 80.14719 118.528 C77.29388 119.22 76.38718 121.642 74.71008 120.804 C70.15778 118.533 72.92848 108.277 76.13648 108.34 C78.00728 108.381 79.80318 111.21 81.30318 110.23 C84.32449 108.262 84.17918 101.429 83.85118 96.61022 C79.36048 99.30892 71.41848 98.32352 70.85118 96.99552 C69.96058 94.91822 72.18988 92.63692 73.35658 91.21012 C74.10059 90.30892 72.31398 89.65292 70.42848 89.66752 z M189.923 94.4543 C187.122 94.7515 184.127 98.1728 184.601 98.9289 C185.444 100.282 188.319 94.6728 191.043 94.5275 C190.851 94.4809 190.658 94.4595 190.466 94.45431 C190.278 94.4435 190.111 94.43431 189.923 94.45431 z M58.31401 95.4543 C58.13651 95.4489 57.98581 95.5275 57.92311 95.7248 C57.76181 96.2569 59.64721 95.3715 59.08511 98.0795 C58.61131 100.35 57.82451 105.153 56.26721 108.153 C56.07471 108.517 55.74131 105.809 55.37671 105.949 C54.21001 106.424 53.08981 116.022 53.87121 117.028 C53.88721 117.044 54.31911 116.116 54.44981 116.564 C55.19381 119.105 54.17921 120.444 54.22051 127.408 C54.04851 126.782 52.66321 123.934 52.55921 125.053 C52.53251 125.381 53.58061 127.501 54.37121 128.372 C54.27801 124.569 55.59521 118.236 54.64181 115.829 C54.52321 115.522 54.08461 116.386 53.94981 116.522 C53.78321 113.506 53.9752 108.705 55.2205 106.569 C55.4659 106.153 55.74131 109.444 55.9912 109.074 C57.6792 106.61 58.6525 101.038 59.2726 98.00089 C59.606 96.40219 58.8298 95.48629 58.314 95.45429 z M190.658 95.4955 C190.518 95.5115 190.398 95.5795 190.309 95.6889 C190.215 95.79819 199.043 104.429 195.866 109.58 C192.871 114.429 179.669 115.126 178.543 116.101 C183.532 115.162 194.461 115.684 197.679 109.074 C199.944 104.429 192.747 95.2248 190.658 95.4955 z M126.835 102.017 C126.237 102.012 125.685 102.116 125.215 102.481 C127.116 102.356 131.767 104.413 135.133 102.824 C131.127 103.23 128.636 102.028 126.835 102.017 z M209.251 102.053 C204.903 102.162 198.346 106.793 199.377 107.954 C203.22 106.194 203.351 104.044 210.95 102.282 C210.444 102.09 209.877 102.038 209.251 102.053 z M210.486 103.173 C212.065 106.126 207.824 113.897 213.497 110.7 C209.242 111.49 213.616 103.924 210.486 103.173 z M175.185 107.496 C168.289 107.377 158.532 111.148 158.439 114.981 C158.382 117.356 166.299 118.46 163.106 120.845 C154.981 126.918 143.918 124.642 143.622 126.09 C148.554 126.121 158.324 126.741 165.231 120.538 C167.835 118.189 159.581 116.096 160.018 114.282 C160.841 110.934 172.032 107.361 177.923 107.804 C177.09 107.616 176.169 107.512 175.185 107.496 z M55.0325 107.84 C54.6632 109.044 54.4392 110.225 54.2993 111.506 C54.3872 110.61 54.6113 109.772 54.9552 108.653 C55.0485 109.012 55.174 109.449 55.3818 109.809 C55.1632 109.252 55.1418 108.268 55.0325 107.84 z M176.303 108.96 C175.049 108.949 173.251 109.2 171.251 109.268 C176.324 109.23 177.455 108.678 174.72 113.705 C172.559 117.684 179.054 117.272 180.699 117.178 C178.955 117.105 175.147 116.298 176.767 113.553 C179.007 109.746 178.387 108.976 176.303 108.96 z M135.247 109.538 C131.497 109.662 129.027 113.085 126.642 113.705 C129.049 115.148 132.382 109.262 138.065 110.044 C137.049 109.642 136.116 109.512 135.247 109.538 z M197.756 110.736 C194.002 112.324 198.747 126.965 203.116 124.048 C198.136 122.033 198.267 116.246 197.756 110.736 z M135.981 110.85 C135.893 110.861 135.794 110.866 135.71 110.892 C138.002 114.017 142.581 119.824 140.147 125.361 C133.762 125.23 118.199 128.918 115.07 131.339 C110.565 134.824 119.289 137.085 117.767 138.668 C114.918 141.637 106.559 142.252 101.408 140.366 C104.366 142.881 116.205 142.361 118.773 138.668 C120.205 136.61 112.205 134.725 114.955 132.189 C118.012 129.361 133.095 125.85 141.382 126.168 C141.502 125.788 142.049 125.381 142.423 124.434 C144.085 120.241 139.059 111.356 136.251 110.85 C136.158 110.834 136.075 110.845 135.981 110.85 z M208.83 117.064 C206.408 117.178 203.658 122.777 202.694 123.006 C205.543 124.506 207.101 117.424 209.83 117.408 C209.507 117.173 209.174 117.048 208.83 117.064 z M209.215 118.105 C208.622 119.856 212.512 120.965 210.527 128.173 C208.549 128.34 205.83 127.616 203.428 130.49 C202.674 131.386 200.059 141.918 204.237 145.96 C198.601 151.705 188.247 152.569 186.991 153.408 C186.205 155.001 199.47 152.372 204.351 147.157 C205.751 145.662 217.136 135.757 218.283 136.512 C218.928 136.934 216.303 143.782 216.893 144.881 C217.475 145.97 222.961 140.345 224.07 137.897 C222.122 140.725 218.346 144.7 218.127 143.762 C217.559 141.339 220.736 134.908 218.169 135.7 C215.601 136.49 207.507 142.694 205.627 144.725 C203.726 144.214 202.991 134.913 204.814 130.99 C206.122 128.189 211.377 130.298 212.147 127.944 C213.475 123.897 211.794 118.725 209.215 118.105 z M62.48061 123.934 C61.41381 123.902 60.4752 124.298 60.04851 125.434 C59.47521 126.976 62.15781 130.632 60.81911 132.11 C59.35661 133.73 57.43381 133.631 54.9966 130.684 C55.6632 132.162 58.63651 134.544 61.3245 132.268 C63.13651 130.725 59.77261 127.481 60.5125 125.434 C61.2993 123.268 64.4285 124.32 66.1846 125.746 C68.4497 127.58 64.9858 129.324 65.4497 131.418 C66.5851 136.527 78.0846 136.809 80.6111 136.126 C79.0592 141.476 80.1006 152.397 88.7939 149.047 C81.5435 151.512 79.5806 141.829 81.5806 135.47 C76.814 136.834 66.64719 135.616 66.0271 131.648 C65.5178 128.372 69.8086 127.512 65.8352 125.09 C64.7726 124.444 63.5435 123.96 62.4806 123.934 z M154.002 126.402 C153.45 126.47 152.081 126.689 151.027 126.746 C149.627 126.824 143.595 127.001 143.543 127.173 C143.434 127.544 149.101 127.058 150.491 127.017 C151.877 126.981 153.934 126.58 154.231 126.397 C154.283 126.372 154.185 126.377 154.002 126.402 z M136.866 127.058 C136.303 127.08 135.778 127.148 135.247 127.21 C137.283 127.282 138.554 127.142 139.377 127.402 C139.242 129.85 135.075 142.772 146.669 142.72 C137.966 140.678 140.418 132.929 140.767 127.21 C140.237 127.126 138.554 126.99 136.866 127.058 z M54.53251 129.99 C53.81911 132.746 54.38721 140.069 55.76721 141.72 C56.46591 142.553 56.58511 140.064 57.92311 141.913 C59.34061 143.856 60.43381 149.116 59.39261 151.752 C61.25651 149.637 59.82451 144.965 58.69921 142.22 C57.13261 138.402 55.60061 142.538 55.22581 140.058 C54.83521 137.486 53.98061 134.272 54.53251 129.99 z M99.25121 132.653 C98.59521 132.637 97.88721 132.662 97.08981 132.689 C100.674 133.006 101.616 133.121 101.601 134.386 C101.585 136.277 96.83521 139.486 99.21011 141.293 C101.351 142.918 101.961 142.309 107.428 142.99 C101.871 141.96 99.99121 141.757 100.174 139.788 C100.36 137.788 103.595 135.71 102.955 134.157 C102.486 133.033 101.205 132.7 99.25121 132.653 z M93.4606 132.689 C89.70461 132.752 85.918 133.184 83.0435 134.501 C81.4392 139.861 80.5073 146.908 85.58981 148.585 C88.2672 149.47 90.7205 145.772 93.30861 146.309 C97.64721 147.205 99.77261 153.777 97.16321 157.96 C100.767 155.356 98.9285 145.705 92.68991 145.616 C89.47521 145.569 86.96061 148.814 85.51251 148.044 C81.81911 146.085 82.30861 139.32 83.50731 134.772 C87.20461 133.402 89.14721 132.934 97.16321 132.725 C95.96061 132.689 94.71531 132.668 93.46061 132.689 z M227.928 135.735 C225.09 137.157 224.955 142.678 226.346 145.73 C225.461 142.746 225.45 137.824 227.928 135.735 z M156.507 136.585 C152.366 136.553 149.928 140.861 145.747 141.449 C149.512 143.413 153.065 136.689 158.398 136.897 C157.726 136.689 157.101 136.59 156.507 136.585 z M142.038 136.856 C141.679 136.995 141.86 138.366 142.737 139.443 C143.611 140.517 145.199 141.277 145.669 141.101 C145.882 141.022 144.575 140.157 143.663 139.096 C142.747 138.033 142.205 136.793 142.038 136.856 z M157.319 137.705 C157.142 137.752 157.023 137.902 156.97 138.131 C156.841 138.762 159.585 140.272 159.518 143.184 C159.481 144.881 160.726 149.044 155.893 148.47 C150.767 147.861 144.147 147.689 143.742 156.033 C143.601 158.929 142.799 161.053 145.09 164.329 C139.038 165.194 121.663 167.965 120.549 170.616 C119.283 173.631 125.799 174.522 125.065 175.596 C124.142 176.934 116.502 177.809 109.747 176.829 C111.012 179.235 123.71 179.11 126.877 175.824 C128.116 174.538 121.247 173.047 122.21 170.924 C123.439 168.225 144.408 165.09 147.751 165.173 C144.314 160.626 145.393 157.891 145.633 156.033 C146.289 150.856 147.611 148.558 153.658 149.162 C158.554 149.657 161.434 150.153 161.486 143.339 C161.512 140.558 158.731 137.772 157.512 137.705 C157.444 137.7 157.377 137.689 157.319 137.705 z M58.73663 145.73 C59.38723 149.642 59.30863 151.574 57.77263 148.585 C57.19383 147.47 56.06993 145.877 56.07473 147.585 C57.16863 146.47 58.63263 151.986 59.08513 150.476 C59.73123 148.309 59.16863 145.73 58.73663 145.73 z M185.871 145.768 C180.179 145.777 169.289 149.981 167.428 153.757 C166.382 155.881 174.038 157.408 171.981 158.929 C163.049 165.517 149.809 163.735 149.871 165.064 C153.136 165.512 167.914 164.616 174.027 158.501 C175.726 156.804 168.403 155.017 169.819 153.101 C172.377 149.642 182.997 146.033 188.803 146.465 C188.22 145.965 187.185 145.768 185.871 145.768 z M206.36 146.038 C204.278 147.96 208.699 153.408 205.857 156.918 C203.351 160.022 198.742 157.214 196.059 161.705 C194.179 164.845 193.049 170.995 198.335 170.23 C195.502 168.366 195.893 165.101 197.679 162.168 C200.319 157.824 204.47 161.178 207.054 157.304 C208.955 154.46 208.97 149.22 206.36 146.038 z M186.835 146.886 C186.674 146.913 186.532 147.038 186.45 147.314 C185.299 151.131 183.481 151.735 183.518 153.642 C183.543 154.814 184.242 155.058 186.762 154.642 C185.773 154.424 185.403 153.616 185.45 153.064 C185.575 151.429 187.127 149.877 187.877 148.085 C188.049 147.684 187.335 146.824 186.835 146.886 z M93.34584 147.08 C96.34064 151.429 96.71534 155.101 94.69384 157.153 C93.64724 158.22 88.14724 153.225 85.66864 155.377 C81.96594 158.59 83.82984 166.768 86.90334 169.73 C82.53255 170.142 75.56464 168.741 72.70484 165.449 C71.50204 164.058 74.16864 162.798 73.01254 161.047 C71.49664 158.757 63.18464 155.11 62.67404 157.033 C62.58984 157.356 62.69924 157.804 62.86584 158.268 C62.79394 158.001 62.80864 157.809 62.94464 157.689 C64.71014 156.085 70.33524 159.949 72.66864 161.391 C73.90334 162.162 71.25654 164.782 72.27804 165.757 C75.66324 168.976 81.97523 171.381 88.32983 170.038 C85.14183 166.339 83.28864 159.824 86.09523 156.533 C87.80863 154.522 92.98583 159.001 95.62183 157.845 C98.72053 156.49 96.94453 147.73 93.34583 147.08 z M90.29934 148.356 C89.96984 148.522 89.63654 148.684 89.33524 148.82 C89.64723 148.689 89.96593 148.527 90.29934 148.356 z M56.88184 148.391 C56.25174 153.678 60.16324 162.116 64.75654 164.022 C67.98584 165.356 64.72584 161.694 63.36584 159.35 C64.47523 161.449 66.44463 163.877 65.64184 163.71 C61.16324 162.788 57.13654 155.137 56.88184 148.391 z M152.032 149.861 C151.549 149.877 151.215 149.934 151.226 150.012 C151.256 150.372 156.418 150.856 156.393 150.397 C156.371 150.038 153.481 149.814 152.032 149.861 z M87.21014 156.725 C85.26184 156.872 85.38204 166.891 88.82984 169.46 C90.28304 170.544 105.835 167.694 112.215 171.391 C108.002 166.768 92.94454 169.257 89.44974 168.725 C85.94974 168.2 85.57524 156.558 87.40334 156.768 C87.33524 156.752 87.27264 156.72 87.21014 156.725 z M64.60065 157.96 C61.79935 157.902 67.30325 163.345 66.84064 165.022 C68.43925 162.714 63.27264 159.277 64.60065 157.96 z M70.81405 161.047 C71.98585 162.314 68.42855 164.361 72.58985 167.22 C69.40805 163.648 74.34585 162.334 70.81405 161.047 z M206.6331 163.402 C203.5381 163.339 200.7731 167.601 198.4861 169.96 C201.3091 167.886 203.8931 164.684 207.2471 163.481 C207.0381 163.434 206.8351 163.408 206.6331 163.402 z M205.9341 164.443 C205.882 164.443 205.83 164.476 205.7831 164.522 C204.6741 165.569 207.1741 170.126 204.6581 174.053 C201.4081 177.824 193.1691 181.345 188.226 183.35 C191.726 183.205 200.95 178.585 203.581 175.943 C202.116 180.157 200.002 183.527 202.887 183.157 C200.497 182.424 203.939 177.334 204.893 174.71 C208.71 172.184 210.86 169.288 214.502 166.027 C212.247 167.684 208.455 171.824 206.205 172.934 C208.273 169.356 206.751 164.454 205.934 164.443 z M216.278 165.214 C210.726 175.443 214.491 170.746 218.6691 165.449 C214.8091 168.97 211.1991 175.705 216.278 165.214 z M149.179 165.949 C148.715 166.101 148.205 166.918 148.4081 167.184 C150.065 169.339 152.267 172.886 152.19 173.861 C151.647 180.413 147.3931 178.027 142.966 177.564 C139.955 177.246 135.767 178.82 135.5181 181.424 C135.147 185.309 138.554 188.377 140.8461 187.71 C138.1741 185.965 137.0021 183.881 137.4501 181.381 C138.0901 177.804 144.8241 178.304 147.5591 178.798 C151.7511 179.553 153.8571 176.2 154.0381 173.547 C154.1581 171.856 151.9501 168.976 149.606 166.064 C149.4861 165.918 149.33 165.897 149.179 165.949 z M90.33525 170.694 C89.85125 171.257 95.35125 176.058 94.69385 180.574 C97.11635 177.564 90.78865 170.168 90.33525 170.694 z M107.857 170.73 C109.403 172.033 108.986 172.668 108.007 173.547 C105.5851 175.725 105.4861 176.668 109.4751 177.872 C106.9611 175.777 108.3661 175.304 109.398 174.361 C111.19 172.72 111.043 170.918 107.857 170.73 z M88.79395 171.001 C88.41385 170.705 93.57525 177.47 92.22585 180.339 C91.39794 182.105 84.53255 176.241 82.85124 178.49 C82.05924 179.547 84.82454 184.225 87.40334 186.361 C84.62184 183.377 82.26724 179.782 83.58464 178.877 C85.62184 177.47 91.00204 183.304 93.15254 181.153 C95.61115 178.689 90.42854 172.288 88.79395 171.001 z M209.136 176.752 C207.997 176.668 204.8461 180.73 203.428 182.538 C205.049 180.788 208.142 177.438 208.518 177.522 C208.857 177.601 208.309 179.21 207.866 179.839 C205.414 183.324 201.611 184.705 199.45 187.553 C197.893 189.476 196.075 191.235 195.939 193.616 C196.237 191.913 198.408 189.402 199.799 187.866 C202.72 184.454 205.267 183.173 207.824 180.418 C208.877 179.282 209.742 177.148 209.33 176.829 C209.273 176.782 209.215 176.757 209.136 176.752 z M189.8091 177.757 C183.851 177.834 171.2991 183.668 171.903 185.705 C172.215 186.757 175.841 187.268 174.955 188.173 C171.0811 192.101 158.377 192.908 157.1631 193.96 C164.19 193.413 173.4971 191.272 177.3031 187.517 C178.0811 186.757 173.1941 185.866 173.7561 184.97 C174.5901 183.637 184.5491 178.544 190.8871 177.793 C190.5541 177.746 190.205 177.752 189.8091 177.757 z M189.69 178.605 C188.9971 178.309 181.955 186.886 187.7621 183.85 C185.3461 183.538 191.1991 179.252 189.69 178.605 z M84.24185 180.148 C85.56995 184.486 88.42315 188.105 92.18995 186.476 C94.37675 185.527 101.918 190.017 103.341 195.08 C103.1161 190.772 96.24725 184.877 92.11115 185.782 C87.90334 186.7 88.11635 185.642 84.24184 180.148 z M75.32455 183.35 C74.58985 183.381 78.02715 185.902 79.76186 188.058 C80.04356 188.408 78.08066 186.965 77.56466 186.897 C78.04356 187.381 81.01256 189.173 80.68996 188.558 C79.97526 187.194 75.51785 184.006 76.21516 184.085 C77.58066 184.235 88.34586 189.553 85.66866 190.49 C89.34065 189.501 78.65785 184.506 75.90336 183.506 C75.61636 183.397 75.43386 183.345 75.32456 183.35 z M151.1471 183.814 C148.0181 184.064 145.0121 186.157 142.0021 187.168 C144.7471 188.001 148.3601 183.777 154.3091 184.314 C153.2421 183.886 152.1901 183.73 151.1471 183.814 z M152.3821 185.277 C152.1521 185.314 151.9701 185.434 151.8031 185.626 C153.4141 187.189 155.0591 188.272 155.3511 190.913 C155.5701 192.105 155.0181 192.85 154.4661 193.809 C155.1111 194.142 155.4181 193.872 156.0851 193.881 C156.9391 192.772 157.3351 191.418 157.0901 190.334 C156.6331 188.356 153.9551 185.047 152.3821 185.277 z M95.77786 187.866 C103.8711 196.757 104.2941 199.538 85.89796 191.298 C98.93387 200.131 109.4751 198.725 95.77786 187.866 z M84.51257 188.793 C84.44456 188.772 84.39266 188.798 84.31917 188.829 C83.87677 189.027 83.79397 190.329 84.89796 190.834 C85.17927 190.126 84.96066 188.908 84.51257 188.793 z M152.2671 194.001 C145.2731 194.324 133.6271 196.924 130.1941 198.126 C127.8871 198.938 135.1901 201.268 133.8981 201.522 C128.8351 202.522 126.6111 202.418 120.9701 201.834 C123.8981 202.793 132.455 203.225 135.8241 201.601 C137.481 200.804 130.4081 199.152 131.851 198.631 C138.054 196.381 145.512 195.746 154.923 194.038 C154.1521 193.981 153.2621 193.954 152.267 194.001 z M194.2471 194.886 C191.1791 195.372 178.455 205.241 186.8771 198.241 C176.4751 206.157 192.7671 195.001 194.7471 194.924 C194.6361 194.866 194.4501 194.856 194.2471 194.886 z M154.9281 195.116 C152.6161 195.22 152.3981 197.673 152.4181 199.402 C152.4441 201.288 154.5021 202.637 157.3191 201.986 C155.3711 201.184 154.4391 200.902 154.3091 198.938 C154.1901 197.137 154.4751 196.496 155.3931 195.121 C155.2151 195.105 155.0811 195.11 154.9281 195.116 z M106.0021 196.391 C104.4661 196.408 103.5021 196.47 103.5321 196.585 C103.6991 197.199 116.8871 196.454 123.5181 199.096 C120.3191 196.902 110.6111 196.345 106.0021 196.391 z M101.5651 197.397 C101.5071 197.391 101.4341 197.408 101.3711 197.434 C100.2311 197.976 103.5231 202.006 106.5811 203.334 C103.0271 200.877 102.4231 197.434 101.5651 197.397 z M103.2261 197.741 C105.0701 201.824 107.0381 204.105 111.7891 203.839 C114.9551 203.663 118.9551 204.173 121.3191 206.58 C119.1741 203.938 115.9811 203.126 110.8601 203.184 C107.3351 203.22 104.5491 200.085 103.2261 197.741 z M168.2371 197.741 C165.3091 197.735 159.6111 201.345 157.8601 201.486 C160.2511 202.438 164.0231 198.506 169.2781 197.976 C168.9971 197.804 168.6581 197.741 168.2371 197.741 z M185.6791 198.012 C182.4551 198.601 174.2561 201.381 171.6741 203.954 C171.3031 204.324 173.6791 204.21 173.3351 204.496 C170.2941 206.981 160.147 208.044 157.9341 209.547 C156.955 210.22 160.22 210.283 159.3661 210.746 C157.0491 212.001 150.5811 211.506 148.5591 213.252 C150.1691 212.377 159.4341 211.454 160.444 210.631 C161.133 210.069 157.887 209.596 158.903 209.277 C162.756 208.074 171.403 207.017 174.685 204.148 C175.33 203.58 171.595 204.121 173.4081 203.142 C177.185 201.11 182.554 198.981 185.2151 198.361 C185.923 198.194 183.1111 200.006 182.3981 200.908 C183.2781 200.377 186.5231 197.861 185.6791 198.012 z M119.2731 198.512 C121.3351 199.981 115.3191 201.262 120.1221 202.408 C118.3191 200.314 124.3141 199.235 119.2731 198.512 z M168.1991 198.976 C167.7891 198.949 167.2991 199.064 166.7731 199.324 C169.2831 200.252 167.4441 203.288 164.8821 203.377 C162.3031 203.465 160.2311 203.262 157.8981 204.418 C155.7471 205.486 154.3821 207.064 155.1221 209.319 C150.7941 209.902 142.4341 211.09 139.4911 211.746 C139.0541 211.85 139.7151 212.044 140.4181 212.214 C140.1421 212.027 140.4861 211.762 140.8031 211.673 C143.6011 210.891 152.2421 210.142 157.1631 209.512 C156.7421 208.476 156.2051 207.288 157.5901 205.809 C159.0541 204.235 161.4181 204.001 164.7261 203.839 C166.6061 203.746 168.4861 202.804 169.5121 201.137 C170.0851 200.21 169.4441 199.058 168.1991 198.976 z M116.6901 204.533 C117.8091 205.391 119.6581 207.157 118.6581 207.194 C116.3351 207.288 109.1791 205.038 110.2051 206.424 C114.1471 211.741 126.6061 210.481 133.2421 211.866 C127.6471 210.324 115.1631 211.277 111.6331 206.965 C109.8821 204.814 119.3711 208.934 120.1991 207.544 C120.6901 206.72 117.9031 205.173 116.6901 204.533 z" stroke="url(#SVGID_Stroke1_)" stroke-linejoin="round" id="path69" xml:space="preserve" connector-curvature="0" style="fill:url(#SVGID_Fill2_);" />
      <radialGradient cx="150.064" cy="130.048" r="83.5527" fx="150.064" fy="130.048" gradientUnits="userSpaceOnUse" id="SVGID_Stroke2_" xml:space="preserve">
        <stop offset="0%" stop-color="#1F1F1F" stop-opacity="1" id="stop71" xml:space="preserve" />
        <stop offset="100%" stop-color="#000000" stop-opacity="1" id="stop73" xml:space="preserve" />
      </radialGradient>
      <path d="M175.726 46.9955 C174.366 47.4809 173.809 47.4595 173.179 48.1889 C173.565 48.6942 174.731 49.1675 175.341 49.5009 C180.032 52.0742 179.147 51.8089 177.147 53.6315 C180.871 51.8035 178.09 50.9702 175.455 49.5009 C174.242 48.8288 174.294 48.8342 173.408 48.1889 C174.018 47.7049 174.685 47.3808 175.726 46.9955 z M159.981 51.2768 C159.86 51.2768 159.918 51.3449 159.595 51.3915 C161.152 52.7875 166.065 59.5009 168.507 58.0275 C165.699 58.2101 162.622 53.6581 159.981 51.2768 z M188.455 52.9755 C189.049 53.7568 188.918 53.9755 188.647 54.2101 C190.065 54.3969 188.851 53.3195 188.455 52.9755 z M172.601 56.5635 C174.851 57.1942 176.497 58.3503 177.961 60.1155 C179.054 61.4343 179.893 62.9809 179.122 64.2049 C181.33 62.9915 179.647 61.3969 178.075 59.6475 C176.444 57.8395 174.616 56.9343 172.601 56.5635 z M171.751 56.8715 C171.007 57.5635 170.012 58.6782 170.283 58.9182 C170.986 59.5383 171.778 58.1675 171.751 56.8715 z M173.565 63.7768 C172.986 63.7715 173.549 66.3503 174.565 68.2929 C176.027 71.0795 178.19 73.7768 179.966 74.8503 C179.908 74.5742 180.038 74.3141 180.237 74.1155 C176.22 70.5009 176.647 69.6529 175.065 67.3661 C173.491 65.0901 174.434 64.19421 173.679 63.8141 z M204.742 65.8608 C205.147 67.0275 204.065 66.9595 203.273 67.0222 C207.799 71.4075 210.742 74.8862 211.07 76.7822 C210.778 74.0435 206.428 69.8661 203.97 67.29291 C205.247 67.15291 204.991 66.07951 204.742 65.86081 z M201.497 66.6728 C198.299 68.7875 197.382 69.6102 198.991 71.0688 C197.877 69.7355 199.387 68.2569 201.497 66.67281 z M192.814 71.6475 C195.975 72.9022 193.737 77.7195 196.251 77.2463 C194.502 76.2515 196.961 72.7101 192.814 71.6475 z M188.262 71.8808 C182.324 73.7463 179.497 77.5795 176.341 78.5955 C177.824 78.2049 179.679 77.1475 181.205 75.9343 C183.273 77.0795 185.023 78.86079 186.142 81.06349 C187.408 83.55289 189.497 86.99149 186.799 88.7049 C190.324 86.99149 189.267 84.38619 187.262 81.0275 C186.032 78.97549 184.054 77.0275 182.283 75.42889 C184.247 74.11549 185.841 73.19419 188.262 71.88079 z M200.032 71.9595 C203.444 74.2875 203.491 76.1102 200.377 78.1675 C204.955 75.5383 202.86 73.89149 200.032 71.9595 z M162.179 73.1942 C165.47 75.4955 159.871 79.0435 163.991 79.2875 C161.674 77.9022 167.335 74.2355 162.179 73.1942 z M131.507 73.3862 C129.09 80.7515 130.794 84.4755 133.283 87.4289 C135.393 89.9382 139.633 96.1102 136.101 101.012 C133.532 104.569 128.19 99.7355 124.444 102.21 C120.934 104.528 121.636 109.528 124.371 112.856 C128.961 118.449 134.237 108.012 137.527 111.044 C143.428 116.481 144.075 122.886 141.809 126.402 C140.882 127.845 140.179 133.09 140.69 136.241 C141.205 139.391 142.955 140.438 145.975 142.377 C149.575 144.673 153.497 139.22 157.283 137.705 C160.538 136.402 165.679 147.309 158.674 149.861 C166.366 150.845 164.106 135.684 157.319 137.012 C152.434 137.965 149.475 143.642 145.127 141.605 C139.893 139.148 140.715 131.621 141.851 127.137 C153.085 125.976 162.054 127.23 167.428 120.23 C169.199 117.929 159.939 115.329 161.991 113.71 C164.122 112.022 170.185 109.684 170.247 109.658 C166.226 110.372 164.486 110.501 160.986 113.553 C158.523 115.7 167.554 118.053 165.809 120.11 C160.803 126.022 151.314 126.658 143.081 126.132 C144.475 120.506 144.054 116.413 138.95 111.314 C134.841 107.205 129.136 116.293 126.142 113.668 C122.387 110.381 122.36 105.345 123.981 103.096 C126.647 99.40223 133.237 105.21 137.408 101.282 C140.871 98.02223 136.518 91.69952 134.633 87.58493 C136.961 87.29293 139.814 86.98633 142.616 86.58493 C139.163 86.92353 135.726 86.86613 133.663 86.93433 C131.231 82.23023 130.136 79.00093 131.507 73.38623 z M154.851 73.9289 C152.179 74.7675 152.262 74.4129 149.371 75.9702 C145.491 78.0582 154.606 79.6049 153.152 82.1475 C152.116 83.9489 150.054 85.0383 147.595 85.7355 C150.357 85.15289 152.685 84.4022 153.809 83.4595 C157.694 80.18349 146.012 77.56879 150.065 75.8555 C151.663 75.1782 152.507 74.7463 154.851 73.9289 z M147.595 85.7302 C146.07 86.0529 144.418 86.3342 142.737 86.5795 C144.408 86.4129 146.07 86.1622 147.595 85.7302 z M208.366 76.74091 C207.866 76.74091 209.502 80.2569 210.414 81.4129 C211.085 82.2715 212.981 84.7569 213.111 84.4235 C213.19 84.2195 211.398 82.1675 210.527 81.0275 C209.549 79.7409 208.627 76.7463 208.366 76.7409 z M214.387 82.87691 C214.481 85.1889 214.319 85.05291 213.923 85.69421 C215.007 86.21951 214.846 84.03831 214.387 82.87691 z M216.122 83.6889 C217.122 85.03291 218.023 86.53831 218.747 87.8915 C218.075 86.4022 217.273 85.1155 216.122 83.6889 z M218.747 87.9343 C219.257 89.0688 219.726 90.3195 220.251 91.8288 C220.518 91.7142 219.851 90.0009 218.747 87.9343 z M179.466 88.7822 C177.975 89.1369 178.393 96.0009 183.595 98.5435 C177.366 93.3661 181.319 89.3035 179.814 88.8195 C179.699 88.7822 179.565 88.7569 179.466 88.7822 z M220.986 93.4129 C221.549 95.2049 222.127 96.94891 222.565 98.5009 C223.012 100.096 223.934 104.101 224.997 103.402 C223.908 103.725 223.106 100.116 222.642 98.3089 C222.267 96.8449 221.731 95.3915 221.059 93.3715 z M220.095 93.9129 C219.257 94.62621 218.247 95.9129 218.09 96.1102 C216.538 98.0955 215.981 99.7101 216.778 101.246 C216.247 100.101 217.236 97.87151 218.127 96.6529 C219.032 95.4129 219.455 94.8555 220.095 93.9129 z M192.507 94.91821 C192.299 94.87691 192.174 94.94891 192.163 95.1835 C192.116 96.0383 198.794 101.626 198.294 107.996 C199.09 107.314 198.642 107.528 199.142 107.105 C199.538 101.61 193.966 95.1835 192.507 94.91821 z M189.497 95.88081 C188.652 95.90751 185.606 99.13691 186.101 99.35551 C186.59 99.56351 190.242 96.3969 189.652 95.91821 C189.616 95.8915 189.554 95.87691 189.497 95.88081 z M216.893 101.476 C217.075 101.772 217.257 102.069 217.549 102.361 C219.581 104.397 219.366 104.564 218.975 105.992 C218.674 107.11 217.871 108.298 216.736 109.465 C220.231 106.105 220.169 104.105 217.085 101.668 C217.012 101.61 216.944 101.544 216.893 101.476 z M211.606 102.752 C211.527 102.736 211.444 102.762 211.377 102.788 C210.966 102.938 212.423 103.189 212.185 106.028 C212.07 107.408 211.611 109.334 212.07 110.044 C212.387 109.908 212.111 109.82 212.455 109.886 C211.871 108.345 212.538 107.173 212.647 105.949 C212.835 103.897 212.158 102.84 211.606 102.752 z M208.095 103.252 C207.247 103.372 203.69 105.268 198.142 109.345 C197.898 118.386 200.335 123.252 202.194 122.658 C202.731 122.486 199.502 120.902 199.07 109.965 C206.455 104.096 208.36 103.72 208.289 103.288 C208.278 103.236 208.215 103.23 208.095 103.252 z M225.497 103.944 C225.335 104.006 225.043 104.506 225.226 104.793 C225.694 105.538 225.444 104.116 225.497 103.944 z M176.803 108.033 C175.256 108.137 173.486 108.648 172.136 109.001 C174.799 108.678 178.393 108.252 178.466 109.653 C178.559 111.626 175.756 114.653 176.997 115.752 C180.21 118.605 191.444 116.605 196.21 112.548 C196.194 112.309 196.59 111.486 196.366 111.429 C193.851 114.053 182.647 118.72 178.116 116.022 C176.428 115.017 180.851 111.564 180.163 109.58 C179.705 108.252 178.351 107.929 176.803 108.033 z M227.002 110.965 C226.975 111.022 226.981 111.137 226.966 111.277 C226.981 111.142 226.975 111.044 227.002 110.965 z M227.081 114.788 C227.147 115.714 227.21 116.558 227.236 116.949 C227.257 117.288 227.294 117.684 227.351 118.142 C227.299 117.694 227.289 117.277 227.273 116.949 C227.251 116.438 227.152 115.637 227.081 114.788 z M210.679 117.72 C210.512 118.225 212.606 121.053 212.726 123.856 C212.97 129.528 210.652 129.408 211.106 129.834 C211.565 130.262 213.83 128.101 213.69 123.892 C213.581 120.596 211.095 117.678 210.72 117.678 z M208.559 118.605 C207.043 119.981 205.736 121.82 204.47 123.429 C206.705 122.434 207.69 120.528 208.559 118.605 z M227.694 120.345 C227.835 121.064 227.991 121.71 228.158 122.158 C228.002 121.678 227.835 121.044 227.694 120.345 z M227.158 125.048 C226.133 127.506 224.928 129.225 223.991 131.918 C223.341 133.788 224.981 134.829 224.997 135.777 C225.002 136.214 224.882 136.725 224.647 137.277 C224.794 136.976 224.95 136.684 225.111 136.356 C225.45 135.653 224.549 134.7 224.147 133.345 C223.694 131.825 226.309 127.782 227.158 125.048 z M208.559 129.601 C207.71 129.626 206.887 129.752 206.898 129.913 C206.934 130.272 210.319 130.366 210.294 129.913 C210.283 129.668 209.408 129.58 208.559 129.601 z M206.319 130.028 C204.341 129.913 203.918 134.96 203.928 137.241 C203.939 139.924 204.366 144.012 205.59 144.574 C205.715 144.314 206.303 143.954 206.434 143.684 C204.69 142.23 205.095 139.544 204.893 137.434 C204.652 134.934 206.694 130.048 206.319 130.028 z M219.866 135.891 C219.22 136.044 219.773 137.533 219.169 139.438 C218.669 141.017 217.736 143.173 218.554 143.569 C218.486 142.2 219.346 140.533 219.747 138.902 C220.152 137.268 220.491 135.746 219.866 135.891 z M227.581 136.434 C226.283 137.47 225.532 141.601 226.309 144.189 C225.773 141.356 226.377 137.631 227.581 136.434 z M216.857 137.356 C213.423 139.678 209.466 142.601 206.398 145.501 C210.518 151.814 208.575 158.047 203.502 160.506 C210.794 158.047 210.767 148.148 207.554 145.038 C209.841 142.746 215.991 138.424 216.857 137.356 z M223.57 139.131 C223.215 139.642 222.799 140.2 222.179 140.943 C222.705 140.304 223.185 139.689 223.57 139.131 z M82.03781 145.809 C83.87671 148.97 85.72051 149.61 87.75121 149.126 C90.06461 148.569 92.38201 146.309 93.92311 147.044 C96.73121 148.366 98.61111 154.038 96.51251 157.189 C94.33521 160.454 90.01781 155.334 86.71011 156.304 C83.40842 157.272 85.78301 168.126 88.64182 170.153 C81.62721 171.725 75.25652 168.705 71.96982 165.872 C73.27262 169.856 83.55922 173.121 88.83522 170.694 C91.98582 173.668 95.54352 179.465 93.15782 181.304 C90.86052 183.069 85.12722 178.069 83.70462 179.413 C82.86582 180.205 86.75122 186.694 89.56992 187.517 C91.49123 188.08 93.36582 186.189 96.04862 188.481 C93.93922 185.845 92.70462 186.992 90.14722 187.017 C86.65253 187.047 83.24722 180.298 84.01253 179.569 C85.31403 178.329 91.06993 184.443 93.92853 181.538 C96.27263 179.153 91.84063 173.72 89.79933 170.501 C97.57523 170.23 108.512 168.856 107.893 173.277 C108.778 172.443 108.814 171.772 107.47 170.538 C112.59 170.777 110.549 173.943 108.512 175.288 C107.127 176.194 109.674 177.981 110.789 178.372 C115.054 179.881 124.018 179.605 128.575 176.402 C129.86 175.501 122.19 172.038 123.251 171.386 C129.237 167.73 140.481 167.194 147.444 165.793 C141.1581 166.372 129.049 167.506 122.636 170.965 C121.179 171.752 128.737 174.788 127.382 176.058 C125.428 177.886 120.081 178.829 115.6521 178.678 C111.2201 178.533 107.5271 177.027 109.3981 175.71 C119.1331 168.825 100.3301 169.481 89.41386 170.038 C85.65786 167.954 84.23125 157.569 86.71535 156.804 C89.77265 155.861 94.62726 160.934 97.32455 157.268 C99.69386 154.047 97.74725 147.658 93.42856 146.501 C91.50206 145.992 89.39796 148.142 87.52325 148.705 C85.00205 149.46 83.48586 147.547 82.03786 145.809 z M205.242 146.465 C201.309 151.268 194.585 153.434 191.081 154.142 C198.95 153.096 202.918 149.314 205.512 147.121 C205.595 146.214 205.403 146.616 205.242 146.465 z M187.918 146.772 C189.86 147.689 185.054 152.924 185.835 153.022 C186.554 153.121 191.251 147.684 187.918 146.772 z M183.247 147.621 C178.751 148.538 174.147 149.845 170.975 152.481 C167.636 155.268 177.169 156.293 174.491 158.735 C168.049 164.605 158.512 164.924 149.914 165.908 C152.773 169.547 155.136 171.934 153.809 175.943 C151.699 182.304 142.97 176.481 138.685 180.069 C136.147 182.194 138.19 186.377 141.423 187.246 C139.507 185.741 136.59 182.558 138.835 180.61 C142.824 177.153 152.622 182.241 155.122 176.522 C156.242 173.96 152.71 168.449 151.414 166.449 C160.065 165.825 169.636 163.834 175.918 158.309 C177.559 156.866 168.939 154.73 171.403 152.829 C175.278 149.845 181.486 148.085 183.247 147.621 z M149.408 150.012 C148.914 149.96 148.398 150.449 147.903 151.246 C148.351 150.746 148.841 150.325 149.408 150.012 z M147.83 151.366 C144.783 154.913 144.762 162.325 148.794 165.178 C145.012 161.381 146.101 154.309 147.83 151.366 z M199.799 160.547 C196.918 161.585 195.21 167.929 197.871 169.616 C198.309 168.044 196.408 164.924 199.799 160.547 z M207.289 163.981 C207.22 163.986 207.152 164.027 207.09 164.096 C206.303 165.033 208.767 168.225 206.512 172.662 C209.595 170.929 208.247 163.918 207.289 163.981 z M217.085 164.866 C216.882 164.757 215.07 168.757 213.997 170.501 C215.299 168.788 217.231 164.949 217.085 164.866 z M204.934 165.022 C202.908 166.424 200.934 168.72 198.835 170.194 C202.054 168.658 203.382 166.517 204.934 165.022 z M214.851 166.22 C211.679 168.886 208.507 172.517 205.007 174.782 C204.158 177.047 201.147 181.793 202.809 182.73 C202.185 181.522 203.975 177.21 205.314 174.938 C208.314 172.361 212.726 168.538 214.851 166.22 z M203.237 176.443 C198.991 179.908 195.57 181.424 188.846 183.97 C193.751 182.32 197.799 181.105 203.043 176.908 C203.127 176.668 203.09 176.746 203.237 176.443 z M209.679 176.522 C209.481 176.492 210.726 178.345 205.357 182.965 C209.294 180.339 210.997 176.735 209.679 176.522 z M190.731 178.105 C190.611 178.126 190.481 178.153 190.309 178.22 C191.997 178.053 188.179 181.772 187.491 183.35 C189.169 181.934 192.585 177.741 190.731 178.105 z M208.174 178.105 C207.428 178.402 203.595 182.495 203.622 182.58 C203.658 182.7 208.538 178.334 208.251 178.105 z M188.767 178.757 C185.081 179.788 176.914 182.027 174.371 184.97 C173.72 185.73 178.636 186.59 177.694 187.517 C172.622 192.476 160.961 194.11 156.199 194.23 C154.742 196.913 153.346 200.834 157.205 201.522 C154.502 200.058 156.085 196.954 156.742 194.886 C160.043 194.23 173.97 192.881 178.731 187.288 C179.846 185.981 174.33 186.137 174.914 185.205 C176.357 182.897 184.018 180.397 188.767 178.757 z M153.538 184.777 C159.169 189.752 157.636 192.153 156.819 193.652 C158.012 193.058 158.023 193.064 159.018 192.495 C159.669 189.235 156.251 185.85 153.538 184.777 z M151.299 184.934 C148.101 185.162 145.961 187.673 141.575 188.21 C146.595 188.372 148.475 185.7 151.918 184.934 C151.694 184.929 151.512 184.918 151.299 184.934 z M202.038 185.934 C201.497 185.943 198.106 189.757 196.366 192.839 C198.783 189.121 202.199 186.304 202.116 186.012 z M153.382 195.044 C146.267 195.684 137.324 197.038 132.199 198.71 C131.101 199.069 137.543 201.058 136.481 201.522 C133.127 203.001 127.127 203.408 122.518 202.527 C126.559 203.372 134.507 203.772 137.371 201.757 C138.299 201.101 131.59 199.064 132.742 198.746 C137.351 197.476 146.731 196.047 153.382 195.044 z M186.95 197.626 C186.851 197.512 182.986 200.596 183.095 200.829 C183.199 201.058 187.194 197.897 186.95 197.626 z M169.085 198.705 C168.841 198.71 168.575 198.71 168.278 198.746 C170.466 199.454 170.747 201.101 167.273 203.377 C165.866 204.298 160.773 203.699 158.247 205.381 C156.45 206.574 156.652 209.22 157.475 208.891 C158.038 208.668 157.251 206.943 158.705 205.768 C161.694 203.35 165.491 204.954 168.549 203.184 C170.636 201.97 172.778 198.668 169.0849 198.705 z M121.283 198.746 C123.242 199.538 119.319 201.184 120.585 201.986 C120.627 201.372 125.07 200.038 121.283 198.746 z M166.737 198.746 C166.371 198.684 164.527 199.449 162.685 200.366 C161.581 200.913 160.081 201.648 159.21 201.714 C158.242 201.788 157.824 201.798 157.783 201.913 C158.393 202.309 161.742 201.246 163.877 200.214 C165.923 199.225 166.7729 198.96 166.809 198.825 C166.824 198.777 166.783 198.757 166.737 198.746 z M183.866 198.938 C180.19 199.908 176.075 201.913 173.101 203.454 C172.324 203.856 175.163 203.476 174.799 204.069 C173.324 206.449 158.756 209.017 158.824 209.512 C158.86 209.772 160.538 209.938 160.674 210.361 C160.887 211.006 158.679 211.345 157.47 211.596 C159.152 211.699 162.116 210.413 161.215 210.205 C160.278 209.986 159.83 209.569 159.71 209.356 C159.45 208.902 172.627 206.819 175.762 203.992 C176.163 203.631 173.747 203.522 174.023 203.257 C175.043 202.309 183.273 199.225 183.866 198.938 z M120.627 202.101 C120.893 202.184 121.194 202.225 121.475 202.293 C121.174 202.21 120.83 202.116 120.627 202.022 z M118.273 204.996 C119.502 205.741 121.303 207.533 120.314 207.85 C117.95 208.61 113.726 206.538 111.866 206.501 C110.903 206.481 113.371 208.257 114.527 208.741 C113.871 208.413 111.751 206.777 112.289 206.809 C114.242 206.924 118.773 208.881 121.127 208.121 C122.581 207.652 120.174 205.918 118.273 204.996 z M148.174 210.705 C143.466 211.246 139.237 211.793 140.726 212.137 C140.549 211.772 144.19 211.21 148.174 210.705 z M121.86 210.897 C126.142 211.397 130.882 211.949 130.966 211.866 C130.877 211.73 126.075 211.325 121.86 210.897 z M133.205 212.173 C132.824 212.214 132.527 212.544 132.585 212.558 C132.803 212.61 133.789 212.361 133.59 212.252 C133.45 212.173 133.33 212.158 133.205 212.173 z M144.122 212.252 C145.038 212.725 143.538 212.97 141.152 213.101 C143.486 213.006 145.699 212.814 144.122 212.252 z" stroke="url(#SVGID_Stroke2_)" stroke-linejoin="round" id="path76" xml:space="preserve" connector-curvature="0" style="fill:#FFFFFF;" />
    </g>
    <path d="M230.569 110.796 C230.422 111.363 230.124 111.846 229.642 112.312 C229.136 112.768 228.67 112.971 228.186 112.964 C224.289 113.167 220.9 114.198 218.058 115.993 C215.179 117.784 211.898 121.28 208.153 126.409 L153.942 204.635 C153.509 205.326 152.707 205.699 151.49 205.665 C150.559 205.654 149.916 205.264 149.553 204.517 L136.396 162.943 L101.664 203.389 C101.003 204.097 100.167 204.441 99.23792 204.445 C98.09672 204.392 97.41521 204.024 97.22231 203.302 L75.6724 123.506 C74.2915 118.554 72.51151 115.05 70.2571 113.055 C67.9661 111.057 64.4524 109.763 59.7288 109.168 C59.3127 109.179 58.9943 108.978 58.6895 108.582 C58.4417 108.144 58.3356 107.731 58.4612 107.209 C58.7546 105.927 59.31081 105.279 60.1274 105.291 C63.6115 105.424 67.20621 105.648 70.9567 106.011 C74.4269 106.34 77.71581 106.586 80.82481 106.64 C83.99181 106.735 87.7487 106.67 92.11681 106.522 C96.72001 106.32 100.739 106.267 104.191 106.385 C105.039 106.411 105.304 107.059 105.043 108.355 C104.764 109.603 104.36 110.253 103.844 110.232 C100.301 110.395 97.39281 111.108 95.09231 112.369 C92.79961 113.635 91.40111 115.365 90.93821 117.513 C90.69011 118.613 90.80321 119.987 91.26201 121.669 L109.3 186.628 L134.368 156.573 L124.308 124.654 C122.48 118.969 120.75 115.273 119.122 113.62 C117.533 111.945 114.778 110.893 110.859 110.398 C110.49 110.39 110.171 110.189 109.929 109.821 C109.682 109.384 109.607 108.985 109.733 108.463 C110 107.156 110.499 106.549 111.24 106.58 C114.718 106.642 117.88 106.83 120.731 107.197 C123.474 107.569 126.406 107.758 129.578 107.842 C132.682 107.908 136.026 107.868 139.559 107.646 C143.218 107.482 146.784 107.436 150.257 107.51 C151.078 107.51 151.37 108.184 151.077 109.466 C150.799 110.714 150.394 111.364 149.879 111.342 C142.829 111.565 138.952 113.262 138.287 116.328 C137.955 117.713 138.321 119.825 139.287 122.751 L146.11 143.225 L161.388 125.016 C163.535 122.47 164.808 120.263 165.212 118.493 C166.141 114.293 163.146 111.957 156.249 111.536 C155.624 111.504 155.449 110.844 155.735 109.559 C155.833 109.118 156.103 108.676 156.513 108.284 C156.883 107.875 157.279 107.679 157.579 107.669 C160.074 107.751 163.093 107.94 166.681 108.323 C170.099 108.682 172.925 108.876 175.149 108.901 C176.767 108.957 179.147 108.893 182.301 108.766 C186.342 108.521 189.651 108.452 192.315 108.518 C192.933 108.546 193.124 109.106 192.876 110.206 C192.553 111.635 191.814 112.348 190.692 112.357 C186.544 112.607 183.078 113.494 180.27 115.049 C177.439 116.592 173.547 120.17 168.625 125.757 L148.26 149.746 L160.446 186.597 L200.963 125.731 C202.519 123.493 203.488 121.47 203.901 119.596 C204.882 115.097 201.951 112.642 195.052 112.205 C194.429 112.188 194.247 111.525 194.546 110.232 C194.839 108.951 195.427 108.317 196.39 108.342 C198.9 108.391 201.896 108.609 205.314 108.968 C208.478 109.318 211.136 109.543 213.316 109.602 C215.609 109.645 218.258 109.556 221.378 109.359 C224.521 109.174 227.354 109.101 229.872 109.154 C230.542 109.152 230.817 109.696 230.569 110.796 z" stroke-width="0.2" stroke-linejoin="round" id="path80" xml:space="preserve" connector-curvature="0" style="fill:#000000;" />
  </g>
</svg>