<?xml version="1.0" encoding="utf-8"?>
<!DOCTYPE svg PUBLIC "-//W3C//DTD SVG 1.1//EN" "http://www.w3.org/Graphics/SVG/1.1/DTD/svg11.dtd">
<svg xmlns="http://www.w3.org/2000/svg" xmlns:xlink="http://www.w3.org/1999/xlink" version="1.1" baseProfile="full" width="257" height="257" viewBox="0 0 257.00 257.00" enable-background="new 0 0 257.00 257.00" xml:space="preserve">
	<path fill="#A9090B" fill-opacity="1" stroke-width="5" stroke-linejoin="round" stroke="#000000" stroke-opacity="1" d="M 129.436,43.5657C 179.556,43.5657 220.186,71.7717 220.186,106.566C 220.186,121.484 212.717,135.191 200.233,145.983L 195.686,151.066L 185.686,158.066L 178.686,169.566L 171.686,183.566L 164.186,194.066L 159.186,193.066L 157.686,184.065L 156.425,166.733C 147.9,168.574 138.835,169.566 129.436,169.566C 79.3163,169.566 38.6862,141.36 38.6862,106.566C 38.6862,71.7717 79.3163,43.5657 129.436,43.5657 Z "/>
	<g>
		<path fill="#E4E4E1" fill-opacity="1" stroke-width="2" stroke-linejoin="round" stroke="#FFFFFF" stroke-opacity="1" d="M 100.087,118.729C 100.087,124.4 98.4669,128.793 95.2271,131.907C 91.9873,135.022 87.296,136.579 81.153,136.579C 77.0944,136.579 73.8773,136.029 71.5018,134.928L 71.5018,127.473C 74.6024,129.092 77.7289,129.901 80.8812,129.901C 84.0206,129.901 86.453,129.011 88.1779,127.232C 89.903,125.452 90.7656,123.031 90.7656,119.971L 90.7656,117.41L 90.649,117.41C 88.4935,120.882 85.3153,122.617 81.1143,122.617C 77.2174,122.617 74.1234,121.266 71.8319,118.563C 69.5404,115.859 68.3947,112.235 68.3947,107.688C 68.3947,102.592 69.6683,98.5453 72.2153,95.5482C 74.7626,92.551 78.1172,91.0524 82.2794,91.0524C 86.0015,91.0524 88.7881,92.5131 90.6393,95.4344L 90.7656,95.4344L 90.7656,91.6595L 100.087,91.6595L 100.087,118.729 Z M 90.8822,107.413L 90.8822,105.08C 90.8822,103.215 90.3253,101.625 89.212,100.31C 88.0986,98.9943 86.652,98.3366 84.8719,98.3366C 82.8394,98.3366 81.2421,99.1238 80.0802,100.698C 78.9183,102.273 78.3373,104.492 78.3373,107.357C 78.3373,109.81 78.8892,111.753 79.9928,113.185C 81.0963,114.617 82.6063,115.333 84.5223,115.333C 86.4189,115.333 87.953,114.607 89.1246,113.156C 90.2963,111.705 90.8822,109.791 90.8822,107.413 Z "/>
		<path fill="#E4E4E1" fill-opacity="1" stroke-width="2" stroke-linejoin="round" stroke="#FFFFFF" stroke-opacity="1" d="M 113.447,86.8034C 111.9,86.8034 110.633,86.3307 109.646,85.3854C 108.659,84.4401 108.165,83.2783 108.165,81.8998C 108.165,80.4898 108.659,79.3359 109.646,78.4379C 110.633,77.54 111.9,77.0911 113.447,77.0911C 115.014,77.0911 116.286,77.54 117.263,78.4379C 118.241,79.3359 118.729,80.4898 118.729,81.8998C 118.729,83.3351 118.241,84.5112 117.263,85.4282C 116.286,86.3449 115.014,86.8034 113.447,86.8034 Z M 118.108,122.01L 108.787,122.01L 108.787,91.6595L 118.108,91.6595L 118.108,122.01 Z "/>
		<path fill="#E4E4E1" fill-opacity="1" stroke-width="2" stroke-linejoin="round" stroke="#FFFFFF" stroke-opacity="1" d="M 156.014,118.729C 156.014,124.4 154.394,128.793 151.154,131.907C 147.915,135.022 143.223,136.579 137.08,136.579C 133.022,136.579 129.805,136.029 127.429,134.928L 127.429,127.473C 130.53,129.092 133.656,129.901 136.808,129.901C 139.948,129.901 142.38,129.011 144.105,127.232C 145.83,125.452 146.693,123.031 146.693,119.971L 146.693,117.41L 146.576,117.41C 144.421,120.882 141.243,122.617 137.042,122.617C 133.145,122.617 130.051,121.266 127.759,118.563C 125.468,115.859 124.322,112.235 124.322,107.688C 124.322,102.592 125.596,98.5453 128.143,95.5482C 130.69,92.551 134.044,91.0524 138.207,91.0524C 141.929,91.0524 144.715,92.5131 146.567,95.4344L 146.693,95.4344L 146.693,91.6595L 156.014,91.6595L 156.014,118.729 Z M 146.809,107.413L 146.809,105.08C 146.809,103.215 146.253,101.625 145.139,100.31C 144.026,98.9943 142.579,98.3366 140.799,98.3366C 138.767,98.3366 137.169,99.1238 136.007,100.698C 134.846,102.273 134.265,104.492 134.265,107.357C 134.265,109.81 134.816,111.753 135.92,113.185C 137.024,114.617 138.534,115.333 140.45,115.333C 142.346,115.333 143.88,114.607 145.052,113.156C 146.224,111.705 146.809,109.791 146.809,107.413 Z "/>
		<path fill="#E4E4E1" fill-opacity="1" stroke-width="2" stroke-linejoin="round" stroke="#FFFFFF" stroke-opacity="1" d="M 190.813,122.01L 181.492,122.01L 181.492,117.486L 181.366,117.486C 179.262,120.907 176.148,122.617 172.025,122.617C 168.983,122.617 166.589,121.787 164.845,120.128C 163.1,118.468 162.228,116.253 162.228,113.484C 162.228,107.635 165.83,104.258 173.035,103.354L 181.55,102.263C 181.55,99.2409 179.696,97.7297 175.987,97.7297C 172.252,97.7297 168.701,98.7414 165.335,100.765L 165.335,93.6323C 166.688,92.9494 168.541,92.3487 170.894,91.8303C 173.247,91.3117 175.388,91.0524 177.317,91.0524C 186.314,91.0524 190.813,95.3522 190.813,103.952L 190.813,122.01 Z M 181.55,109.709L 181.55,107.726L 175.744,108.419C 172.533,108.798 170.928,110.129 170.928,112.412C 170.928,113.442 171.318,114.288 172.098,114.949C 172.878,115.61 173.935,115.94 175.268,115.94C 177.126,115.94 178.637,115.352 179.803,114.176C 180.968,113 181.55,111.511 181.55,109.709 Z "/>
	</g>
</svg>
