<svg enable-background="new 0 0 220.00 220.00" height="220" viewBox="0 0 220 220" width="220" xmlns="http://www.w3.org/2000/svg"><g stroke-linejoin="round"><path d="m110.936 25.0657c50.12 0 90.75 28.206 90.75 63 0 14.9183-7.469 28.6253-19.953 39.4173l-4.547 5.083-10 7-7 11.5-7 14-7.5 10.5-5-1-1.5-9.001-1.261-17.332c-8.525 1.841-17.59 2.833-26.989 2.833-50.1197 0-90.7498-28.206-90.7498-63.0003 0-34.794 40.6301-63 90.7498-63z" fill="#a9090b" stroke="#000" stroke-width="5"/><g fill="#e4e4e1" stroke="#fff" stroke-width="2"><path d="m81.5868 100.229c0 5.671-1.6199 10.064-4.8597 13.178-3.2398 3.115-7.9311 4.672-14.0741 4.672-4.0586 0-7.2757-.55-9.6512-1.651v-7.455c3.1006 1.619 6.2271 2.428 9.3794 2.428 3.1394 0 5.5718-.89 7.2967-2.669 1.7251-1.78 2.5877-4.201 2.5877-7.261v-2.5608h-.1166c-2.1555 3.4718-5.3337 5.2068-9.5347 5.2068-3.8969 0-6.9909-1.351-9.2824-4.054-2.2915-2.7036-3.4372-6.3282-3.4372-10.8746 0-5.0963 1.2736-9.1431 3.8206-12.1402 2.5473-2.9972 5.9019-4.4958 10.0641-4.4958 3.7221 0 6.5087 1.4607 8.3599 4.382h.1263v-3.7749h9.3212zm-9.2046-11.3156v-2.3331c0-1.8654-.5569-3.4556-1.6702-4.7708-1.1134-1.3152-2.56-1.9729-4.3401-1.9729-2.0325 0-3.6298.7872-4.7917 2.3617s-1.7429 3.7938-1.7429 6.6582c0 2.4534.5519 4.3961 1.6555 5.8283 1.1035 1.4322 2.6135 2.1483 4.5295 2.1483 1.8966 0 3.4307-.7256 4.6023-2.1768 1.1717-1.451 1.7576-3.3653 1.7576-5.7429z"/><path d="m94.9473 68.3034c-1.547 0-2.8141-.4727-3.8013-1.418s-1.4808-2.1071-1.4808-3.4856c0-1.41.4936-2.5639 1.4808-3.4619.9872-.8979 2.2543-1.3468 3.8013-1.3468 1.5664 0 2.8383.4489 3.8159 1.3468.9774.898 1.4658 2.0519 1.4658 3.4619 0 1.4353-.4884 2.6114-1.4658 3.5284-.9776.9167-2.2495 1.3752-3.8159 1.3752zm4.6606 35.2066h-9.3213v-30.3505h9.3213z"/><path d="m137.514 100.229c0 5.671-1.62 10.064-4.86 13.178-3.239 3.115-7.931 4.672-14.074 4.672-4.058 0-7.275-.55-9.651-1.651v-7.455c3.101 1.619 6.227 2.428 9.379 2.428 3.14 0 5.572-.89 7.297-2.669 1.725-1.78 2.588-4.201 2.588-7.261v-2.5608h-.117c-2.155 3.4718-5.333 5.2068-9.534 5.2068-3.897 0-6.991-1.351-9.283-4.054-2.291-2.7036-3.437-6.3282-3.437-10.8746 0-5.0963 1.274-9.1431 3.821-12.1402 2.547-2.9972 5.901-4.4958 10.064-4.4958 3.722 0 6.508 1.4607 8.36 4.382h.126v-3.7749h9.321zm-9.205-11.3156v-2.3331c0-1.8654-.556-3.4556-1.67-4.7708-1.113-1.3152-2.56-1.9729-4.34-1.9729-2.032 0-3.63.7872-4.792 2.3617-1.161 1.5745-1.742 3.7938-1.742 6.6582 0 2.4534.551 4.3961 1.655 5.8283s2.614 2.1483 4.53 2.1483c1.896 0 3.43-.7256 4.602-2.1768 1.172-1.451 1.757-3.3653 1.757-5.7429z"/><path d="m172.313 103.51h-9.321v-4.524h-.126c-2.104 3.421-5.218 5.131-9.341 5.131-3.042 0-5.436-.83-7.18-2.489-1.745-1.6603-2.617-3.8749-2.617-6.6444 0-5.8489 3.602-9.2254 10.807-10.1297l8.515-1.0907c0-3.0223-1.854-4.5335-5.563-4.5335-3.735 0-7.286 1.0117-10.652 3.035v-7.1324c1.353-.6829 3.206-1.2836 5.559-1.802 2.353-.5186 4.494-.7779 6.423-.7779 8.997 0 13.496 4.2998 13.496 12.8992zm-9.263-12.3013v-1.9823l-5.806.6924c-3.211.3794-4.816 1.7104-4.816 3.993 0 1.0306.39 1.8763 1.17 2.5371s1.837.9912 3.17.9912c1.858 0 3.369-.5881 4.535-1.7641 1.165-1.1762 1.747-2.6652 1.747-4.4673z"/></g></g></svg>