<svg enable-background="new 0 0 50.00 50.00" height="50" viewBox="0 0 50 50" width="50" xmlns="http://www.w3.org/2000/svg" xmlns:xlink="http://www.w3.org/1999/xlink"><radialGradient id="a" cx="25" cy="25" gradientUnits="userSpaceOnUse" r="24"><stop offset="0" stop-color="#dbd7fc"/><stop offset=".991379" stop-color="#000eff"/></radialGradient><radialGradient id="b" cx="25" cy="-6.03449" gradientUnits="userSpaceOnUse" r="40"><stop offset="0" stop-color="#fff" stop-opacity=".486275"/><stop offset=".271552" stop-color="#fff1f1" stop-opacity=".486275"/><stop offset="1" stop-color="#0700ff" stop-opacity=".486275"/></radialGradient><radialGradient id="c" cx="25" cy="12.5862" gradientTransform="matrix(-1 0 0 -1 50.000026 25.17239)" gradientUnits="userSpaceOnUse" r="40"><stop offset=".116379" stop-color="#fff" stop-opacity="0"/><stop offset="1" stop-color="#fff" stop-opacity=".513725"/></radialGradient><g stroke-linejoin="round"><ellipse cx="25" cy="25" fill="url(#a)" rx="22.5" ry="22.5" stroke="#000" stroke-width="2"/><g stroke-width=".2"><ellipse cx="25" cy="25" fill="url(#b)" rx="20" ry="20"/><ellipse cx="25" cy="25" fill="url(#c)" rx="20" ry="20"/><path d="m34.3687 16.7208c0 .7459-.1041 1.4667-.3125 2.1625-.2083.6959-.5364 1.375-.9843 2.0375-.448.6625-1.0303 1.3125-1.7469 1.95-.7167.6375-1.5771 1.2646-2.5813 1.8813-.6625.4-1.2187.7927-1.6687 1.1781s-.8208.7938-1.1125 1.225c-.2917.4313-.5261.8948-.7031 1.3906-.1771.4959-.324 1.0521-.4407 1.6688h-5.075c.1667-.8375.3542-1.6167.5625-2.3375.2084-.7209.4792-1.3927.8125-2.0156.3334-.623.7407-1.2053 1.2219-1.7469.4813-.5417 1.0802-1.05 1.7969-1.525.7042-.4917 1.3135-.9396 1.8281-1.3438.5146-.4041.9375-.7896 1.2688-1.1562.3312-.3667.5781-.7334.7406-1.1.1625-.3667.2437-.75.2437-1.15 0-.3917-.0718-.7573-.2156-1.0969-.1437-.3396-.3552-.6375-.6344-.8937-.2791-.2563-.6302-.4594-1.0531-.6094s-.9073-.225-1.4531-.225c-1.0708 0-2.1198.1448-3.1469.4343-1.0271.2896-1.9656.6782-2.8156 1.1657l1.1187-5.125c.4-.1709.8511-.3334 1.3532-.4875.502-.1542 1.0333-.2896 1.5937-.4063.5604-.1166 1.1365-.2093 1.7281-.2781.5917-.0688 1.1813-.1031 1.7688-.1031 1.4708 0 2.7104.1896 3.7187.5687 1.0084.3792 1.8219.875 2.4407 1.4875.6187.6125 1.0645 1.3073 1.3375 2.0844.2729.7771.4093 1.5656.4093 2.3656zm-9.35 18.9375c0 .5042-.0979.9604-.2937 1.3688-.1958.4083-.4604.7604-.7938 1.0562-.3333.2959-.727.525-1.1812.6875s-.9479.2438-1.4813.2438c-.4958 0-.9552-.0771-1.3781-.2313-.4229-.1541-.7875-.3677-1.0937-.6406-.3063-.2729-.548-.5937-.725-.9625-.1771-.3687-.2657-.7656-.2657-1.1906 0-.5042.0948-.9667.2844-1.3875.1896-.4209.4542-.7761.7938-1.0656.3395-.2896.7364-.5157 1.1906-.6782s.9562-.2437 1.5062-.2437c.4917 0 .9459.0771 1.3625.2312.4167.1542.7782.3677 1.0844.6407.3063.2729.5479.5937.725.9625.1771.3687.2656.7718.2656 1.2093z" fill="#fff"/></g></g></svg>