<?xml version="1.0" encoding="utf-8"?>
<!DOCTYPE svg PUBLIC "-//W3C//DTD SVG 1.1//EN" "http://www.w3.org/Graphics/SVG/1.1/DTD/svg11.dtd">
<svg xmlns="http://www.w3.org/2000/svg" xmlns:xlink="http://www.w3.org/1999/xlink" version="1.1" baseProfile="full" width="170" height="259.674" viewBox="0 0 170.00 259.67" enable-background="new 0 0 170.00 259.67" xml:space="preserve">
	<g>
		<linearGradient id="SVGID_Stroke1_" gradientUnits="objectBoundingBox" x1="0.515483" y1="0.50234" x2="1.15287" y2="0.50234" gradientTransform="rotate(91.435913 0.515483 0.502340)">
			<stop offset="0" stop-color="#000000" stop-opacity="1"/>
			<stop offset="1" stop-color="#F8F8F8" stop-opacity="1"/>
		</linearGradient>
		<path fill="#939A95" fill-opacity="1" stroke-width="6" stroke-linejoin="round" stroke="url(#SVGID_Stroke1_)" d="M 82.4224,226.012C 92.459,226.012 100.595,228.167 100.595,230.826C 100.595,233.484 92.459,235.639 82.4224,235.639C 72.386,235.639 64.2498,233.484 64.2498,230.826C 64.2498,228.167 72.386,226.012 82.4224,226.012 Z "/>
		<linearGradient id="SVGID_Stroke2_" gradientUnits="objectBoundingBox" x1="0.524599" y1="0.397268" x2="1.29624" y2="0.397268" gradientTransform="rotate(92.461540 0.524599 0.397268)">
			<stop offset="0" stop-color="#000000" stop-opacity="1"/>
			<stop offset="1" stop-color="#F8F8F8" stop-opacity="1"/>
		</linearGradient>
		<path fill="#939A95" fill-opacity="1" stroke-width="6" stroke-linejoin="round" stroke="url(#SVGID_Stroke2_)" d="M 82.1455,204.633C 98.7329,204.633 112.18,208.573 112.18,213.432C 112.18,218.291 98.7329,222.231 82.1455,222.231C 65.5581,222.231 52.1111,218.291 52.1111,213.432C 52.1111,208.573 65.5581,204.633 82.1455,204.633 Z "/>
		<linearGradient id="SVGID_Stroke3_" gradientUnits="objectBoundingBox" x1="0.378338" y1="0.275779" x2="1.16193" y2="0.275779" gradientTransform="rotate(77.604675 0.378338 0.275779)">
			<stop offset="0" stop-color="#000000" stop-opacity="1"/>
			<stop offset="1" stop-color="#F8F8F8" stop-opacity="1"/>
		</linearGradient>
		<path fill="#939A95" fill-opacity="1" stroke-width="6" stroke-linejoin="round" stroke="url(#SVGID_Stroke3_)" d="M 82.4155,188.904C 99.0029,188.904 112.45,192.843 112.45,197.703C 112.45,202.562 99.0029,206.502 82.4155,206.502C 65.8279,206.502 52.3809,202.562 52.3809,197.703C 52.3809,192.843 65.8279,188.904 82.4155,188.904 Z "/>
		<linearGradient id="SVGID_Fill1_" gradientUnits="objectBoundingBox" x1="-0.0164754" y1="0.500397" x2="1.01693" y2="0.500397">
			<stop offset="0" stop-color="#6F6F6F" stop-opacity="1"/>
			<stop offset="0.18018" stop-color="#DFDFDF" stop-opacity="1"/>
			<stop offset="0.22973" stop-color="#F8F8F8" stop-opacity="1"/>
			<stop offset="0.963964" stop-color="#1A1A1A" stop-opacity="1"/>
		</linearGradient>
		<path fill="url(#SVGID_Fill1_)" stroke-width="6" stroke-linejoin="round" d="M 51.2759,197.869C 51.2451,197.707 51.2451,197.723 51.2402,199.658C 51.2356,201.593 51.2261,205.446 51.2214,207.372C 51.2166,209.298 51.2166,209.298 51.7053,209.63C 52.1941,209.962 53.1716,210.627 54.4829,211.401C 55.7939,212.176 57.439,213.06 59.4731,213.8C 61.5073,214.539 63.9309,215.133 66.4683,215.546C 69.0054,215.958 71.6563,216.189 74.7991,216.338C 77.9424,216.486 81.5776,216.552 85.5161,216.404C 89.4543,216.255 93.6956,215.892 97.3877,215.364C 101.08,214.836 104.223,214.143 106.666,213.318C 109.108,212.493 110.85,211.536 111.854,210.794C 112.857,210.051 113.122,209.523 113.283,209.188C 113.444,208.853 113.501,208.71 113.519,206.833C 113.536,204.955 113.515,201.341 113.504,199.553C 113.494,197.765 113.494,197.802 113.448,198.018C 113.401,198.235 113.309,198.631 113.192,198.965C 113.075,199.299 112.933,199.571 112.631,199.961C 112.329,200.351 111.868,200.858 111.364,201.298C 110.859,201.737 110.313,202.108 109.77,202.427C 109.226,202.745 108.687,203.012 107.923,203.336C 107.16,203.661 106.173,204.045 105.275,204.354C 104.377,204.664 103.567,204.899 102.747,205.112C 101.927,205.326 101.096,205.518 99.978,205.74C 98.8599,205.963 97.4541,206.217 96.1865,206.413C 94.9192,206.609 93.79,206.747 92.2695,206.888C 90.749,207.03 88.8364,207.174 86.8176,207.259C 84.7988,207.343 82.6733,207.368 81.334,207.374C 79.9941,207.38 79.4404,207.368 78.6985,207.338C 77.9565,207.308 77.0264,207.26 75.6665,207.162C 74.3069,207.065 72.5176,206.916 70.6147,206.681C 68.7119,206.446 66.6953,206.124 64.8706,205.747C 63.0459,205.369 61.4126,204.936 60.1133,204.546C 58.814,204.156 57.8484,203.81 56.8542,203.34C 55.8604,202.869 54.8379,202.275 54.0354,201.681C 53.2332,201.087 52.6509,200.493 52.2534,199.998C 51.8557,199.503 51.6426,199.107 51.5054,198.739C 51.3682,198.371 51.3066,198.031 51.2759,197.869 Z "/>
		<linearGradient id="SVGID_Fill2_" gradientUnits="objectBoundingBox" x1="-0.0164754" y1="0.500393" x2="1.01692" y2="0.500393">
			<stop offset="0" stop-color="#6F6F6F" stop-opacity="1"/>
			<stop offset="0.18018" stop-color="#DFDFDF" stop-opacity="1"/>
			<stop offset="0.22973" stop-color="#F8F8F8" stop-opacity="1"/>
			<stop offset="0.963964" stop-color="#1A1A1A" stop-opacity="1"/>
		</linearGradient>
		<path fill="url(#SVGID_Fill2_)" stroke-width="6" stroke-linejoin="round" d="M 51.0764,213.022C 51.0457,212.861 51.0457,212.877 51.041,214.812C 51.0361,216.746 51.0269,220.599 51.022,222.526C 51.0171,224.452 51.0171,224.452 51.5059,224.784C 51.9946,225.116 52.9722,225.781 54.2834,226.555C 55.5947,227.329 57.2395,228.214 59.2739,228.954C 61.3081,229.693 63.7314,230.287 66.2688,230.7C 68.8059,231.112 71.4568,231.343 74.5996,231.492C 77.7429,231.64 81.3782,231.706 85.3167,231.558C 89.2549,231.409 93.4961,231.046 97.1885,230.518C 100.88,229.99 104.023,229.297 106.466,228.472C 108.909,227.647 110.651,226.69 111.654,225.948C 112.657,225.205 112.923,224.677 113.083,224.342C 113.245,224.007 113.301,223.864 113.319,221.986C 113.337,220.108 113.315,216.495 113.305,214.707C 113.294,212.918 113.294,212.955 113.248,213.172C 113.202,213.389 113.11,213.785 112.992,214.119C 112.875,214.453 112.733,214.725 112.432,215.115C 112.13,215.505 111.668,216.012 111.164,216.452C 110.66,216.891 110.113,217.262 109.57,217.581C 109.027,217.899 108.487,218.166 107.724,218.49C 106.961,218.815 105.974,219.199 105.076,219.508C 104.177,219.818 103.368,220.053 102.548,220.266C 101.728,220.48 100.897,220.672 99.7788,220.894C 98.6604,221.117 97.2546,221.371 95.9873,221.567C 94.7197,221.763 93.5908,221.901 92.0701,222.042C 90.5496,222.183 88.6372,222.328 86.6182,222.412C 84.5994,222.497 82.4741,222.522 81.1345,222.528C 79.7949,222.534 79.2412,222.522 78.499,222.492C 77.7571,222.462 76.8269,222.414 75.4673,222.316C 74.1074,222.219 72.3184,222.07 70.4153,221.835C 68.5125,221.6 66.4961,221.278 64.6711,220.9C 62.8464,220.523 61.2134,220.09 59.9141,219.7C 58.6147,219.31 57.6489,218.964 56.6548,218.493C 55.6609,218.023 54.6384,217.429 53.8359,216.835C 53.0337,216.241 52.4517,215.647 52.054,215.152C 51.6563,214.657 51.4434,214.261 51.3062,213.893C 51.1687,213.525 51.1072,213.184 51.0764,213.022 Z "/>
		<linearGradient id="SVGID_Fill3_" gradientUnits="objectBoundingBox" x1="-0.0164713" y1="0.500408" x2="1.01693" y2="0.500408">
			<stop offset="0" stop-color="#6F6F6F" stop-opacity="1"/>
			<stop offset="0.18018" stop-color="#DFDFDF" stop-opacity="1"/>
			<stop offset="0.22973" stop-color="#F8F8F8" stop-opacity="1"/>
			<stop offset="0.963964" stop-color="#1A1A1A" stop-opacity="1"/>
		</linearGradient>
		<path fill="url(#SVGID_Fill3_)" stroke-width="6" stroke-linejoin="round" d="M 63.6382,230.873C 63.6196,230.784 63.6196,230.793 63.6167,231.851C 63.614,232.91 63.6084,235.017 63.6055,236.071C 63.6025,237.125 63.6025,237.125 63.8977,237.307C 64.1929,237.489 64.783,237.852 65.5747,238.275C 66.3662,238.699 67.3594,239.183 68.5876,239.588C 69.8159,239.992 71.2791,240.317 72.811,240.543C 74.3428,240.769 75.9434,240.895 77.8408,240.976C 79.7388,241.057 81.9336,241.094 84.3115,241.012C 86.6892,240.931 89.25,240.732 91.479,240.444C 93.7085,240.155 95.606,239.776 97.0806,239.324C 98.5554,238.873 99.6072,238.349 100.213,237.943C 100.819,237.537 100.979,237.248 101.076,237.065C 101.173,236.882 101.208,236.804 101.218,235.776C 101.229,234.749 101.216,232.772 101.21,231.794C 101.203,230.816 101.203,230.836 101.176,230.954C 101.147,231.073 101.092,231.289 101.021,231.472C 100.95,231.655 100.865,231.804 100.683,232.017C 100.5,232.23 100.222,232.508 99.9172,232.748C 99.6128,232.989 99.2827,233.192 98.9548,233.366C 98.627,233.541 98.301,233.686 97.8403,233.864C 97.3794,234.042 96.7834,234.251 96.2412,234.421C 95.699,234.59 95.2102,234.719 94.7151,234.835C 94.22,234.952 93.7183,235.057 93.0432,235.179C 92.3679,235.301 91.519,235.439 90.7539,235.547C 89.9888,235.654 89.3071,235.729 88.3889,235.807C 87.4707,235.884 86.3162,235.963 85.0972,236.009C 83.8784,236.056 82.5952,236.069 81.7864,236.073C 80.9775,236.076 80.6431,236.069 80.1953,236.053C 79.7471,236.036 79.1855,236.01 78.3647,235.957C 77.5437,235.903 76.4634,235.822 75.3145,235.693C 74.1655,235.565 72.9482,235.389 71.8464,235.182C 70.7446,234.976 69.7585,234.739 68.9741,234.526C 68.1895,234.312 67.6064,234.123 67.0063,233.865C 66.4063,233.608 65.7891,233.283 65.3044,232.958C 64.8201,232.633 64.4685,232.308 64.2285,232.037C 63.9883,231.767 63.8599,231.55 63.7769,231.349C 63.6941,231.147 63.6567,230.961 63.6382,230.873 Z "/>
	</g>
	<g>
		<path fill="#C0B989" fill-opacity="0.886275" stroke-width="4" stroke-linejoin="round" stroke="#D2B87C" stroke-opacity="1" d="M 102.071,198C 92.4395,198.104 73.1062,198.104 63.3286,198.049C 53.5508,197.993 53.3284,197.882 53.2729,194.604C 53.2173,191.327 53.3284,184.882 51.7173,178.16C 50.1062,171.438 46.7729,164.438 42.3286,157.382C 37.884,150.327 32.3284,143.216 27.6062,135.104C 22.884,126.993 18.9951,117.882 16.7173,109.827C 14.4395,101.771 13.7729,94.7711 14.2173,86.8268C 14.6616,78.8822 16.2173,69.9933 19.7173,62.0487C 23.2173,54.1044 28.6616,47.1044 34.4951,41.3268C 40.3284,35.549 46.5508,30.9933 53.6062,27.7155C 60.6616,24.4376 68.5508,22.4376 76.384,21.4933C 84.2173,20.549 91.9951,20.6598 100.328,22.7711C 108.662,24.8822 117.551,28.9933 125.162,34.6598C 132.773,40.3265 139.106,47.549 144.051,55.6044C 148.995,63.6598 152.551,72.549 154.329,82.2711C 156.106,91.9933 156.106,102.549 154.329,111.327C 152.551,120.104 148.995,127.104 145.217,132.827C 141.439,138.549 137.439,142.993 132.829,149.271C 128.217,155.549 122.995,163.66 119.495,170.327C 115.995,176.993 114.217,182.216 113.183,186.5C 112.148,190.785 111.856,194.132 111.745,195.91C 111.634,197.688 111.703,197.896 102.071,198 Z "/>
		<g>
			<radialGradient id="SVGID_Fill4_" cx="85.1704" cy="21.9459" r="54.2737" gradientUnits="userSpaceOnUse">
				<stop offset="0" stop-color="#FFFFFF" stop-opacity="0.337255"/>
				<stop offset="1" stop-color="#FFFFFF" stop-opacity="0"/>
			</radialGradient>
			<path fill="url(#SVGID_Fill4_)" stroke-width="4" stroke-linejoin="round" d="M 82.3789,25.6124C 77.5454,25.9042 71.7954,26.4874 67.2954,27.6124C 62.7954,28.7374 59.5454,30.4042 56.2954,32.6124C 53.0454,34.8209 49.7954,37.5709 47.2539,40.5292C 44.7122,43.4874 42.8789,46.6542 42.8372,50.8624C 42.7954,55.0709 44.5454,60.3209 48.3372,63.7792C 52.1289,67.2374 57.9622,68.9042 66.9204,69.6959C 75.8789,70.4874 87.9622,70.4042 96.9622,70.1542C 105.962,69.9042 111.879,69.4874 116.379,67.0709C 120.879,64.6542 123.962,60.2374 125.879,56.0292C 127.795,51.8209 128.545,47.8209 127.212,43.5292C 125.879,39.2374 122.462,34.6542 116.754,31.5709C 111.045,28.4874 103.045,26.9042 97.0872,26.1124C 91.1289,25.3209 87.2122,25.3209 82.3789,25.6124 Z "/>
			<radialGradient id="SVGID_Fill5_" cx="18.7788" cy="91.4498" r="102.816" gradientUnits="userSpaceOnUse" gradientTransform="rotate(-90.000000 18.778809 91.449829)">
				<stop offset="0" stop-color="#FFFFFF" stop-opacity="0.337255"/>
				<stop offset="1" stop-color="#FFFFFF" stop-opacity="0"/>
			</radialGradient>
			<path fill="url(#SVGID_Fill5_)" stroke-width="4" stroke-linejoin="round" d="M 22.4453,94.2413C 22.7371,99.0748 23.3203,104.825 24.4453,109.325C 25.5703,113.825 27.2371,117.075 29.4453,120.325C 31.6538,123.575 34.4038,126.825 37.3621,129.366C 40.3203,131.908 43.4871,133.741 47.6953,133.783C 51.9038,133.825 57.1538,132.075 60.6121,128.283C 64.0703,124.491 65.7371,118.658 66.5288,109.7C 67.3203,100.741 67.2371,88.6581 66.9871,79.6581C 66.7371,70.6581 66.3203,64.7413 63.9038,60.2413C 61.4871,55.7413 57.0703,52.6581 52.8621,50.7413C 48.6538,48.8248 44.6538,48.0748 40.3621,49.4081C 36.0703,50.7413 31.4871,54.1581 28.4038,59.8663C 25.3203,65.5748 23.7371,73.5748 22.9453,79.5331C 22.1538,85.4913 22.1538,89.4081 22.4453,94.2413 Z "/>
			<radialGradient id="SVGID_Fill6_" cx="154.326" cy="89.5228" r="102.816" gradientUnits="userSpaceOnUse" gradientTransform="rotate(90.000000 154.326416 89.522827)">
				<stop offset="0" stop-color="#FFFFFF" stop-opacity="0.337255"/>
				<stop offset="1" stop-color="#FFFFFF" stop-opacity="0"/>
			</radialGradient>
			<path fill="url(#SVGID_Fill6_)" stroke-width="4" stroke-linejoin="round" d="M 150.66,86.7313C 150.368,81.8981 149.785,76.1481 148.66,71.6481C 147.535,67.1481 145.868,63.8981 143.66,60.6481C 141.452,57.3981 138.702,54.1481 135.743,51.6063C 132.785,49.0646 129.618,47.2313 125.41,47.1896C 121.202,47.1481 115.952,48.8981 112.493,52.6896C 109.035,56.4813 107.368,62.3146 106.577,71.2731C 105.785,80.2313 105.868,92.3146 106.118,101.315C 106.368,110.315 106.785,116.231 109.202,120.731C 111.618,125.231 116.035,128.315 120.243,130.231C 124.452,132.148 128.452,132.898 132.743,131.565C 137.035,130.231 141.618,126.815 144.702,121.106C 147.785,115.398 149.368,107.398 150.16,101.44C 150.952,95.4813 150.952,91.5646 150.66,86.7313 Z "/>
			<radialGradient id="SVGID_Fill7_" cx="86.4167" cy="83.1163" r="54.2737" gradientUnits="userSpaceOnUse">
				<stop offset="0" stop-color="#FFFFFF" stop-opacity="0.337255"/>
				<stop offset="1" stop-color="#FFFFFF" stop-opacity="0"/>
			</radialGradient>
			<path fill="url(#SVGID_Fill7_)" stroke-width="4" stroke-linejoin="round" d="M 83.6252,84.724C 78.792,84.8517 73.042,85.1075 68.542,85.6007C 64.042,86.0939 60.792,86.8246 57.542,87.7928C 54.292,88.7609 51.042,89.9667 48.5002,91.2635C 45.9585,92.5607 44.1252,93.9489 44.0835,95.7938C 44.042,97.6388 45.792,99.9406 49.5835,101.457C 53.3752,102.973 59.2085,103.704 68.167,104.051C 77.1252,104.398 89.2085,104.361 98.2085,104.252C 107.208,104.142 113.125,103.959 117.625,102.9C 122.125,101.84 125.208,99.9039 127.125,98.059C 129.042,96.214 129.792,94.4603 128.458,92.5787C 127.125,90.6974 123.708,88.6879 118,87.3361C 112.292,85.9845 104.292,85.2902 98.3335,84.943C 92.3752,84.5961 88.4585,84.5961 83.6252,84.724 Z "/>
		</g>
	</g>
	<g>
		<radialGradient id="SVGID_Fill8_" cx="86.5127" cy="138.47" r="27.9629" gradientUnits="userSpaceOnUse">
			<stop offset="0" stop-color="#5B5B5A" stop-opacity="0.568627"/>
			<stop offset="1" stop-color="#626262" stop-opacity="0"/>
		</radialGradient>
		<path fill="url(#SVGID_Fill8_)" stroke-width="4" stroke-linejoin="round" d="M 85.001,134.465C 82.3828,134.537 79.2686,134.68 76.8311,134.956C 74.3936,135.231 72.6333,135.64 70.873,136.182C 69.1125,136.723 67.3523,137.397 65.9756,138.123C 64.5989,138.848 63.606,139.625 63.5833,140.657C 63.5608,141.689 64.5085,142.976 66.5625,143.824C 68.6162,144.672 71.7756,145.081 76.6279,145.275C 81.4802,145.469 88.0249,145.449 92.8999,145.387C 97.7747,145.326 100.979,145.224 103.417,144.631C 105.854,144.039 107.524,142.956 108.563,141.924C 109.601,140.892 110.007,139.911 109.285,138.859C 108.563,137.806 106.712,136.682 103.62,135.926C 100.528,135.17 96.1948,134.782 92.9675,134.588C 89.7402,134.394 87.6187,134.394 85.001,134.465 Z "/>
		<radialGradient id="SVGID_Fill9_" cx="81.8762" cy="123.248" r="23.3344" gradientUnits="userSpaceOnUse" gradientTransform="rotate(-90.000000 81.876221 123.247925)">
			<stop offset="0" stop-color="#5B5B5A" stop-opacity="0.552941"/>
			<stop offset="1" stop-color="#626262" stop-opacity="0"/>
		</radialGradient>
		<path fill="url(#SVGID_Fill9_)" stroke-width="4" stroke-linejoin="round" d="M 77.8711,124.76C 77.9424,127.378 78.0854,130.492 78.3613,132.929C 78.6372,135.367 79.0459,137.127 79.5874,138.888C 80.1289,140.648 80.8032,142.408 81.5288,143.785C 82.2542,145.162 83.0308,146.155 84.0625,146.177C 85.0945,146.2 86.3818,145.252 87.23,143.198C 88.0779,141.144 88.4866,137.985 88.6807,133.133C 88.875,128.28 88.8545,121.735 88.793,116.861C 88.7319,111.986 88.6296,108.781 88.0371,106.344C 87.4443,103.906 86.3613,102.236 85.3296,101.198C 84.2976,100.16 83.3167,99.7538 82.2644,100.476C 81.2119,101.198 80.0881,103.049 79.332,106.141C 78.5759,109.233 78.1877,113.566 77.9937,116.793C 77.7993,120.02 77.7993,122.142 77.8711,124.76 Z "/>
		<radialGradient id="SVGID_Fill10_" cx="84.4321" cy="159.221" r="16.2793" gradientUnits="userSpaceOnUse">
			<stop offset="0" stop-color="#5B5B5A" stop-opacity="0.733333"/>
			<stop offset="1" stop-color="#626262" stop-opacity="0"/>
		</radialGradient>
		<path fill="url(#SVGID_Fill10_)" stroke-width="4" stroke-linejoin="round" d="M 83.552,155.215C 82.0278,155.287 80.2148,155.43 78.7959,155.706C 77.3767,155.982 76.3521,156.39 75.3271,156.932C 74.3022,157.473 73.2773,158.148 72.4761,158.873C 71.6746,159.599 71.0964,160.375 71.0833,161.407C 71.0701,162.439 71.6221,163.726 72.8176,164.574C 74.0132,165.422 75.8525,165.831 78.6775,166.025C 81.5024,166.219 85.3125,166.199 88.1506,166.138C 90.9885,166.076 92.8542,165.974 94.2732,165.381C 95.6924,164.789 96.6646,163.706 97.269,162.674C 97.8733,161.642 98.1099,160.661 97.6895,159.609C 97.269,158.556 96.1914,157.432 94.3916,156.677C 92.5916,155.92 90.0688,155.532 88.1899,155.338C 86.311,155.144 85.0762,155.144 83.552,155.215 Z "/>
		<radialGradient id="SVGID_Fill11_" cx="81.751" cy="175.021" r="17.459" gradientUnits="userSpaceOnUse" gradientTransform="rotate(-90.000000 81.750977 175.020996)">
			<stop offset="0" stop-color="#D5C33E" stop-opacity="1"/>
			<stop offset="1" stop-color="#E0E083" stop-opacity="0"/>
		</radialGradient>
		<path fill="url(#SVGID_Fill11_)" stroke-width="4" stroke-linejoin="round" d="M 70.5244,176.152C 70.7249,178.111 71.1257,180.441 71.8989,182.265C 72.6724,184.088 73.8179,185.406 75.3354,186.723C 76.8535,188.04 78.7437,189.357 80.7769,190.387C 82.8103,191.417 84.9868,192.16 87.8794,192.177C 90.7717,192.193 94.3804,191.484 96.7573,189.948C 99.1343,188.411 100.28,186.047 100.824,182.417C 101.368,178.786 101.311,173.89 101.139,170.242C 100.967,166.595 100.681,164.197 99.0195,162.374C 97.3586,160.55 94.323,159.3 91.4304,158.524C 88.5381,157.747 85.7886,157.443 82.8389,157.983C 79.8892,158.524 76.7388,159.908 74.6196,162.222C 72.5005,164.535 71.4121,167.777 70.8679,170.192C 70.3237,172.606 70.3237,174.193 70.5244,176.152 Z "/>
		<radialGradient id="SVGID_Fill12_" cx="95.603" cy="171.881" r="13.585" gradientUnits="userSpaceOnUse" gradientTransform="rotate(-90.000000 95.603027 171.880737)">
			<stop offset="0" stop-color="#5B5B5A" stop-opacity="0.631373"/>
			<stop offset="1" stop-color="#626262" stop-opacity="0"/>
		</radialGradient>
		<path fill="url(#SVGID_Fill12_)" stroke-width="4" stroke-linejoin="round" d="M 93.167,172.761C 93.2104,174.285 93.2976,176.098 93.4653,177.517C 93.6333,178.936 93.8818,179.961 94.2109,180.986C 94.5405,182.011 94.9504,183.035 95.3916,183.837C 95.833,184.638 96.3052,185.217 96.9326,185.229C 97.5603,185.243 98.3433,184.691 98.8591,183.495C 99.3748,182.3 99.6235,180.46 99.7415,177.635C 99.8594,174.811 99.8472,171 99.8098,168.162C 99.7725,165.324 99.7104,163.458 99.3501,162.04C 98.9895,160.621 98.3308,159.648 97.7031,159.044C 97.0757,158.44 96.479,158.203 95.8391,158.624C 95.1992,159.044 94.5156,160.121 94.0557,161.921C 93.5959,163.721 93.3599,166.244 93.2417,168.123C 93.1235,170.002 93.1235,171.237 93.167,172.761 Z "/>
	</g>
</svg>
