<?xml version="1.0" encoding="utf-8"?>
<!DOCTYPE svg PUBLIC "-//W3C//DTD SVG 1.1//EN" "http://www.w3.org/Graphics/SVG/1.1/DTD/svg11.dtd">
<svg xmlns="http://www.w3.org/2000/svg" xmlns:xlink="http://www.w3.org/1999/xlink" version="1.1" baseProfile="full" width="259" height="259.674" viewBox="0 0 259.00 259.67" enable-background="new 0 0 259.00 259.67" xml:space="preserve">
	<g>
		<linearGradient id="SVGID_Stroke1_" gradientUnits="objectBoundingBox" x1="0.515483" y1="0.50234" x2="1.15287" y2="0.50234" gradientTransform="rotate(91.435913 0.515483 0.502340)">
			<stop offset="0" stop-color="#000000" stop-opacity="1"/>
			<stop offset="1" stop-color="#F8F8F8" stop-opacity="1"/>
		</linearGradient>
		<path fill="#939A95" fill-opacity="1" stroke-width="6" stroke-linejoin="round" stroke="url(#SVGID_Stroke1_)" d="M 126.923,226.012C 136.959,226.012 145.096,228.167 145.096,230.826C 145.096,233.484 136.959,235.639 126.923,235.639C 116.886,235.639 108.75,233.484 108.75,230.826C 108.75,228.167 116.886,226.012 126.923,226.012 Z "/>
		<linearGradient id="SVGID_Stroke2_" gradientUnits="objectBoundingBox" x1="0.524599" y1="0.397268" x2="1.29624" y2="0.397268" gradientTransform="rotate(92.461540 0.524599 0.397268)">
			<stop offset="0" stop-color="#000000" stop-opacity="1"/>
			<stop offset="1" stop-color="#F8F8F8" stop-opacity="1"/>
		</linearGradient>
		<path fill="#939A95" fill-opacity="1" stroke-width="6" stroke-linejoin="round" stroke="url(#SVGID_Stroke2_)" d="M 126.646,204.633C 143.233,204.633 156.68,208.573 156.68,213.432C 156.68,218.291 143.233,222.231 126.646,222.231C 110.059,222.231 96.6116,218.291 96.6116,213.432C 96.6116,208.573 110.059,204.633 126.646,204.633 Z "/>
		<linearGradient id="SVGID_Stroke3_" gradientUnits="objectBoundingBox" x1="0.378338" y1="0.275779" x2="1.16193" y2="0.275779" gradientTransform="rotate(77.604675 0.378338 0.275779)">
			<stop offset="0" stop-color="#000000" stop-opacity="1"/>
			<stop offset="1" stop-color="#F8F8F8" stop-opacity="1"/>
		</linearGradient>
		<path fill="#939A95" fill-opacity="1" stroke-width="6" stroke-linejoin="round" stroke="url(#SVGID_Stroke3_)" d="M 126.916,188.904C 143.503,188.904 156.95,192.843 156.95,197.703C 156.95,202.562 143.503,206.502 126.916,206.502C 110.328,206.502 96.8813,202.562 96.8813,197.703C 96.8813,192.843 110.328,188.904 126.916,188.904 Z "/>
		<linearGradient id="SVGID_Fill1_" gradientUnits="objectBoundingBox" x1="-0.0164754" y1="0.500401" x2="1.01693" y2="0.500401">
			<stop offset="0" stop-color="#6F6F6F" stop-opacity="1"/>
			<stop offset="0.180183" stop-color="#DFDFDF" stop-opacity="1"/>
			<stop offset="0.22973" stop-color="#F8F8F8" stop-opacity="1"/>
			<stop offset="0.963964" stop-color="#1A1A1A" stop-opacity="1"/>
		</linearGradient>
		<path fill="url(#SVGID_Fill1_)" stroke-width="0.2" stroke-linejoin="round" d="M 95.7764,197.864C 95.7456,197.702 95.7456,197.719 95.7407,199.653C 95.7361,201.588 95.7266,205.441 95.7219,207.367C 95.717,209.294 95.717,209.294 96.2058,209.626C 96.6946,209.958 97.6721,210.622 98.9834,211.397C 100.294,212.171 101.939,213.056 103.974,213.795C 106.008,214.535 108.431,215.129 110.969,215.542C 113.506,215.954 116.157,216.185 119.3,216.333C 122.443,216.482 126.078,216.548 130.017,216.399C 133.955,216.251 138.196,215.888 141.888,215.36C 145.58,214.832 148.723,214.139 151.166,213.314C 153.608,212.489 155.351,211.532 156.354,210.789C 157.357,210.047 157.623,209.519 157.783,209.184C 157.944,208.848 158.001,208.706 158.019,206.828C 158.037,204.95 158.015,201.336 158.005,199.548C 157.994,197.76 157.994,197.797 157.948,198.014C 157.902,198.23 157.81,198.626 157.692,198.96C 157.575,199.294 157.433,199.567 157.131,199.957C 156.83,200.346 156.368,200.854 155.864,201.293C 155.36,201.732 154.813,202.104 154.27,202.422C 153.727,202.741 153.187,203.007 152.424,203.332C 151.661,203.657 150.674,204.04 149.775,204.35C 148.877,204.659 148.068,204.894 147.248,205.108C 146.428,205.321 145.597,205.513 144.479,205.736C 143.36,205.959 141.955,206.212 140.687,206.408C 139.42,206.604 138.291,206.742 136.77,206.884C 135.25,207.025 133.337,207.169 131.318,207.254C 129.299,207.339 127.174,207.363 125.834,207.37C 124.495,207.376 123.941,207.363 123.199,207.333C 122.457,207.304 121.527,207.256 120.167,207.158C 118.807,207.06 117.018,206.912 115.115,206.677C 113.212,206.441 111.196,206.12 109.371,205.742C 107.546,205.365 105.913,204.932 104.614,204.542C 103.314,204.152 102.349,203.805 101.355,203.335C 100.361,202.865 99.3384,202.271 98.5359,201.677C 97.7336,201.083 97.1514,200.489 96.7539,199.994C 96.3562,199.499 96.1431,199.103 96.0059,198.734C 95.8687,198.366 95.8071,198.026 95.7764,197.864 Z "/>
		<linearGradient id="SVGID_Fill2_" gradientUnits="objectBoundingBox" x1="-0.0164754" y1="0.500401" x2="1.01692" y2="0.500401">
			<stop offset="0" stop-color="#6F6F6F" stop-opacity="1"/>
			<stop offset="0.180183" stop-color="#DFDFDF" stop-opacity="1"/>
			<stop offset="0.22973" stop-color="#F8F8F8" stop-opacity="1"/>
			<stop offset="0.963964" stop-color="#1A1A1A" stop-opacity="1"/>
		</linearGradient>
		<path fill="url(#SVGID_Fill2_)" stroke-width="0.2" stroke-linejoin="round" d="M 95.5769,213.018C 95.5461,212.856 95.5461,212.872 95.5415,214.807C 95.5366,216.742 95.5273,220.595 95.5225,222.521C 95.5176,224.448 95.5176,224.448 96.0063,224.78C 96.4951,225.112 97.4727,225.776 98.7839,226.551C 100.095,227.325 101.74,228.21 103.774,228.949C 105.809,229.689 108.232,230.283 110.769,230.695C 113.306,231.108 115.957,231.339 119.1,231.487C 122.243,231.636 125.879,231.702 129.817,231.553C 133.755,231.405 137.997,231.042 141.689,230.514C 145.381,229.986 148.524,229.293 150.967,228.468C 153.409,227.643 155.151,226.686 156.155,225.943C 157.158,225.201 157.423,224.673 157.584,224.337C 157.745,224.002 157.802,223.86 157.82,221.982C 157.837,220.104 157.816,216.49 157.805,214.702C 157.795,212.914 157.795,212.951 157.749,213.167C 157.702,213.384 157.61,213.78 157.493,214.114C 157.376,214.448 157.234,214.721 156.932,215.11C 156.63,215.5 156.169,216.008 155.665,216.447C 155.161,216.886 154.614,217.258 154.071,217.576C 153.527,217.895 152.988,218.161 152.225,218.486C 151.461,218.811 150.474,219.194 149.576,219.504C 148.678,219.813 147.868,220.048 147.048,220.262C 146.228,220.475 145.397,220.667 144.279,220.89C 143.161,221.113 141.755,221.366 140.488,221.562C 139.22,221.758 138.091,221.896 136.571,222.038C 135.05,222.179 133.138,222.323 131.119,222.408C 129.1,222.492 126.975,222.517 125.635,222.523C 124.295,222.53 123.742,222.517 123,222.487C 122.258,222.457 121.327,222.41 119.968,222.312C 118.608,222.214 116.819,222.065 114.916,221.83C 113.013,221.595 110.997,221.273 109.172,220.896C 107.347,220.518 105.714,220.085 104.415,219.696C 103.115,219.306 102.149,218.959 101.155,218.489C 100.161,218.019 99.1389,217.425 98.3364,216.831C 97.5342,216.237 96.9521,215.642 96.5544,215.147C 96.1567,214.653 95.9438,214.256 95.8066,213.888C 95.6692,213.52 95.6077,213.18 95.5769,213.018 Z "/>
		<linearGradient id="SVGID_Fill3_" gradientUnits="objectBoundingBox" x1="-0.0164714" y1="0.500408" x2="1.01693" y2="0.500408">
			<stop offset="0" stop-color="#6F6F6F" stop-opacity="1"/>
			<stop offset="0.180183" stop-color="#DFDFDF" stop-opacity="1"/>
			<stop offset="0.22973" stop-color="#F8F8F8" stop-opacity="1"/>
			<stop offset="0.963964" stop-color="#1A1A1A" stop-opacity="1"/>
		</linearGradient>
		<path fill="url(#SVGID_Fill3_)" stroke-width="0.2" stroke-linejoin="round" d="M 108.139,230.873C 108.12,230.784 108.12,230.793 108.117,231.851C 108.115,232.91 108.109,235.017 108.106,236.071C 108.103,237.125 108.103,237.125 108.398,237.307C 108.693,237.489 109.283,237.852 110.075,238.275C 110.867,238.699 111.86,239.183 113.088,239.588C 114.316,239.992 115.78,240.317 117.312,240.543C 118.843,240.769 120.444,240.895 122.341,240.976C 124.239,241.057 126.434,241.094 128.812,241.012C 131.19,240.931 133.75,240.732 135.979,240.444C 138.209,240.155 140.106,239.776 141.581,239.324C 143.056,238.873 144.108,238.349 144.714,237.943C 145.319,237.537 145.479,237.248 145.577,237.065C 145.674,236.882 145.708,236.804 145.719,235.776C 145.729,234.749 145.717,232.772 145.71,231.794C 145.704,230.816 145.704,230.836 145.676,230.954C 145.648,231.073 145.592,231.289 145.521,231.472C 145.451,231.655 145.365,231.804 145.183,232.017C 145.001,232.23 144.722,232.508 144.418,232.748C 144.113,232.989 143.783,233.192 143.455,233.366C 143.127,233.541 142.802,233.686 142.341,233.864C 141.88,234.042 141.284,234.251 140.742,234.421C 140.199,234.59 139.711,234.719 139.216,234.835C 138.72,234.952 138.219,235.057 137.544,235.179C 136.868,235.301 136.02,235.439 135.254,235.547C 134.489,235.654 133.808,235.729 132.889,235.807C 131.971,235.884 130.817,235.963 129.598,236.009C 128.379,236.056 127.096,236.069 126.287,236.073C 125.478,236.076 125.144,236.069 124.696,236.053C 124.248,236.036 123.686,236.01 122.865,235.957C 122.044,235.903 120.964,235.822 119.815,235.693C 118.666,235.565 117.449,235.389 116.347,235.182C 115.245,234.976 114.259,234.739 113.475,234.526C 112.69,234.312 112.107,234.123 111.507,233.865C 110.907,233.608 110.29,233.283 109.805,232.958C 109.321,232.633 108.969,232.308 108.729,232.037C 108.489,231.767 108.36,231.55 108.277,231.349C 108.195,231.147 108.157,230.961 108.139,230.873 Z "/>
	</g>
	<g>
		<path fill="#C0B989" fill-opacity="0.886275" stroke-width="4" stroke-linejoin="round" stroke="#D2B87C" stroke-opacity="1" d="M 146.572,198C 136.94,198.104 117.607,198.104 107.829,198.049C 98.0513,197.993 97.8291,197.882 97.7734,194.604C 97.718,191.326 97.8291,184.882 96.2178,178.16C 94.6067,171.438 91.2734,164.438 86.8291,157.382C 82.3848,150.326 76.8291,143.215 72.1067,135.104C 67.3848,126.993 63.4956,117.882 61.2178,109.827C 58.9399,101.771 58.2734,94.7711 58.7178,86.8268C 59.1624,78.882 60.718,69.993 64.218,62.0487C 67.718,54.1044 73.1624,47.1044 78.9956,41.3268C 84.8291,35.5487 91.0513,30.993 98.1067,27.7155C 105.162,24.4376 113.051,22.4376 120.885,21.4933C 128.718,20.5487 136.496,20.6598 144.829,22.7711C 153.162,24.882 162.051,28.993 169.662,34.6598C 177.273,40.3263 183.607,47.5487 188.551,55.6044C 193.496,63.6598 197.051,72.5487 198.829,82.2711C 200.607,91.993 200.607,102.549 198.829,111.327C 197.051,120.104 193.496,127.104 189.718,132.827C 185.94,138.549 181.94,142.993 177.329,149.271C 172.718,155.549 167.496,163.66 163.996,170.326C 160.496,176.993 158.718,182.215 157.683,186.5C 156.648,190.785 156.357,194.132 156.246,195.91C 156.135,197.688 156.204,197.896 146.572,198 Z "/>
		<g>
			<radialGradient id="SVGID_Fill4_" cx="129.671" cy="21.9459" r="54.2737" gradientUnits="userSpaceOnUse">
				<stop offset="0" stop-color="#FFFFFF" stop-opacity="0.337255"/>
				<stop offset="1" stop-color="#FFFFFF" stop-opacity="0"/>
			</radialGradient>
			<path fill="url(#SVGID_Fill4_)" stroke-width="0.2" stroke-linejoin="round" d="M 126.879,25.6124C 122.046,25.9042 116.296,26.4874 111.796,27.6124C 107.296,28.7374 104.046,30.4042 100.796,32.6124C 97.5459,34.8209 94.2959,37.5709 91.7544,40.5292C 89.2126,43.4874 87.3794,46.6542 87.3376,50.8624C 87.2959,55.0709 89.0459,60.3209 92.8376,63.7792C 96.6294,67.2374 102.463,68.9042 111.421,69.6959C 120.379,70.4874 132.463,70.4042 141.463,70.1542C 150.463,69.9042 156.379,69.4874 160.879,67.0709C 165.379,64.6542 168.463,60.2374 170.379,56.0292C 172.296,51.8209 173.046,47.8209 171.713,43.5292C 170.379,39.2374 166.963,34.6542 161.254,31.5709C 155.546,28.4874 147.546,26.9042 141.588,26.1124C 135.629,25.3209 131.713,25.3209 126.879,25.6124 Z "/>
			<radialGradient id="SVGID_Fill5_" cx="63.2791" cy="91.4496" r="102.816" gradientUnits="userSpaceOnUse" gradientTransform="rotate(-90.000000 63.279053 91.449585)">
				<stop offset="0" stop-color="#FFFFFF" stop-opacity="0.337255"/>
				<stop offset="1" stop-color="#FFFFFF" stop-opacity="0"/>
			</radialGradient>
			<path fill="url(#SVGID_Fill5_)" stroke-width="0.2" stroke-linejoin="round" d="M 66.9456,94.2411C 67.2373,99.0743 67.8206,104.824 68.9456,109.324C 70.0706,113.824 71.7373,117.074 73.9456,120.324C 76.1538,123.574 78.9038,126.824 81.8623,129.366C 84.8206,131.908 87.9873,133.741 92.1956,133.783C 96.4038,133.824 101.654,132.074 105.112,128.283C 108.571,124.491 110.237,118.658 111.029,109.699C 111.821,100.741 111.737,88.6578 111.487,79.6578C 111.237,70.6578 110.821,64.7411 108.404,60.2411C 105.987,55.7411 101.571,52.6578 97.3623,50.7411C 93.1538,48.8243 89.1538,48.0743 84.8623,49.4078C 80.5706,50.7411 75.9873,54.1578 72.9038,59.8661C 69.8206,65.5743 68.2373,73.5743 67.4456,79.5328C 66.6538,85.4911 66.6538,89.4078 66.9456,94.2411 Z "/>
			<radialGradient id="SVGID_Fill6_" cx="198.827" cy="89.5231" r="102.816" gradientUnits="userSpaceOnUse" gradientTransform="rotate(90.000000 198.827148 89.523071)">
				<stop offset="0" stop-color="#FFFFFF" stop-opacity="0.337255"/>
				<stop offset="1" stop-color="#FFFFFF" stop-opacity="0"/>
			</radialGradient>
			<path fill="url(#SVGID_Fill6_)" stroke-width="0.2" stroke-linejoin="round" d="M 195.161,86.7316C 194.869,81.8983 194.286,76.1483 193.161,71.6483C 192.036,67.1483 190.369,63.8983 188.161,60.6483C 185.952,57.3983 183.202,54.1483 180.244,51.6066C 177.286,49.0651 174.119,47.2316 169.911,47.1901C 165.702,47.1483 160.452,48.8983 156.994,52.6901C 153.536,56.4816 151.869,62.3151 151.077,71.2733C 150.286,80.2316 150.369,92.3151 150.619,101.315C 150.869,110.315 151.286,116.232 153.702,120.732C 156.119,125.232 160.536,128.315 164.744,130.232C 168.952,132.148 172.952,132.898 177.244,131.565C 181.536,130.232 186.119,126.815 189.202,121.107C 192.286,115.398 193.869,107.398 194.661,101.44C 195.452,95.4816 195.452,91.5651 195.161,86.7316 Z "/>
			<radialGradient id="SVGID_Fill7_" cx="130.917" cy="83.1163" r="54.2739" gradientUnits="userSpaceOnUse">
				<stop offset="0" stop-color="#FFFFFF" stop-opacity="0.337255"/>
				<stop offset="1" stop-color="#FFFFFF" stop-opacity="0"/>
			</radialGradient>
			<path fill="url(#SVGID_Fill7_)" stroke-width="0.2" stroke-linejoin="round" d="M 128.126,84.724C 123.293,84.8517 117.543,85.1075 113.043,85.6007C 108.543,86.0939 105.293,86.8246 102.043,87.7928C 98.7927,88.7609 95.5427,89.9667 93.001,91.2635C 90.4595,92.5607 88.626,93.9489 88.5845,95.7938C 88.5427,97.6388 90.2927,99.9406 94.0845,101.457C 97.876,102.973 103.709,103.704 112.668,104.051C 121.626,104.398 133.709,104.361 142.709,104.252C 151.709,104.142 157.626,103.959 162.126,102.9C 166.626,101.84 169.709,99.9039 171.626,98.059C 173.543,96.214 174.293,94.4603 172.959,92.5787C 171.626,90.6974 168.209,88.6879 162.501,87.3361C 156.793,85.9845 148.793,85.2902 142.834,84.943C 136.876,84.5961 132.959,84.5961 128.126,84.724 Z "/>
		</g>
	</g>
	<g>
		<radialGradient id="SVGID_Fill8_" cx="131.013" cy="138.47" r="27.9629" gradientUnits="userSpaceOnUse">
			<stop offset="0" stop-color="#5B5B5A" stop-opacity="0.568627"/>
			<stop offset="1" stop-color="#626262" stop-opacity="0"/>
		</radialGradient>
		<path fill="url(#SVGID_Fill8_)" stroke-width="0.2" stroke-linejoin="round" d="M 129.501,134.465C 126.883,134.537 123.769,134.68 121.332,134.956C 118.894,135.231 117.134,135.64 115.374,136.182C 113.613,136.723 111.853,137.397 110.476,138.123C 109.099,138.848 108.106,139.625 108.084,140.657C 108.061,141.689 109.009,142.976 111.063,143.824C 113.117,144.672 116.276,145.081 121.128,145.275C 125.981,145.469 132.525,145.449 137.4,145.387C 142.275,145.326 145.48,145.224 147.917,144.631C 150.355,144.039 152.025,142.956 153.063,141.924C 154.101,140.892 154.507,139.911 153.785,138.859C 153.063,137.806 151.212,136.682 148.12,135.926C 145.029,135.17 140.695,134.782 137.468,134.588C 134.241,134.394 132.119,134.394 129.501,134.465 Z "/>
		<radialGradient id="SVGID_Fill9_" cx="126.377" cy="123.248" r="23.3344" gradientUnits="userSpaceOnUse" gradientTransform="rotate(-90.000000 126.376709 123.247925)">
			<stop offset="0" stop-color="#5B5B5A" stop-opacity="0.552941"/>
			<stop offset="1" stop-color="#626262" stop-opacity="0"/>
		</radialGradient>
		<path fill="url(#SVGID_Fill9_)" stroke-width="0.2" stroke-linejoin="round" d="M 122.372,124.76C 122.443,127.378 122.586,130.492 122.862,132.929C 123.138,135.367 123.546,137.127 124.088,138.888C 124.629,140.648 125.304,142.408 126.029,143.785C 126.755,145.162 127.531,146.155 128.563,146.177C 129.595,146.2 130.882,145.252 131.73,143.198C 132.578,141.144 132.987,137.985 133.181,133.133C 133.375,128.28 133.355,121.735 133.293,116.861C 133.232,111.986 133.13,108.781 132.538,106.344C 131.945,103.906 130.862,102.236 129.83,101.198C 128.798,100.16 127.817,99.7538 126.765,100.476C 125.712,101.198 124.589,103.049 123.833,106.141C 123.076,109.233 122.688,113.566 122.494,116.793C 122.3,120.02 122.3,122.142 122.372,124.76 Z "/>
		<radialGradient id="SVGID_Fill10_" cx="128.933" cy="159.221" r="16.2793" gradientUnits="userSpaceOnUse">
			<stop offset="0" stop-color="#5B5B5A" stop-opacity="0.733333"/>
			<stop offset="1" stop-color="#626262" stop-opacity="0"/>
		</radialGradient>
		<path fill="url(#SVGID_Fill10_)" stroke-width="0.2" stroke-linejoin="round" d="M 128.052,155.215C 126.528,155.287 124.715,155.43 123.296,155.706C 121.877,155.982 120.853,156.39 119.828,156.932C 118.803,157.473 117.778,158.148 116.977,158.873C 116.175,159.599 115.597,160.375 115.584,161.407C 115.571,162.439 116.123,163.726 117.318,164.574C 118.514,165.422 120.353,165.831 123.178,166.025C 126.003,166.219 129.813,166.199 132.651,166.138C 135.489,166.076 137.355,165.974 138.774,165.381C 140.193,164.789 141.165,163.706 141.77,162.674C 142.374,161.642 142.61,160.661 142.19,159.609C 141.77,158.556 140.692,157.432 138.892,156.677C 137.092,155.92 134.569,155.532 132.69,155.338C 130.812,155.144 129.577,155.144 128.052,155.215 Z "/>
		<radialGradient id="SVGID_Fill11_" cx="126.251" cy="175.021" r="17.459" gradientUnits="userSpaceOnUse" gradientTransform="rotate(-90.000000 126.251465 175.020996)">
			<stop offset="0" stop-color="#D5C33E" stop-opacity="1"/>
			<stop offset="1" stop-color="#E0E083" stop-opacity="0"/>
		</radialGradient>
		<path fill="url(#SVGID_Fill11_)" stroke-width="0.2" stroke-linejoin="round" d="M 115.025,176.152C 115.225,178.111 115.626,180.441 116.399,182.265C 117.173,184.088 118.318,185.406 119.836,186.723C 121.354,188.04 123.244,189.357 125.277,190.387C 127.311,191.417 129.487,192.16 132.38,192.177C 135.272,192.193 138.881,191.484 141.258,189.948C 143.635,188.411 144.78,186.047 145.324,182.417C 145.869,178.786 145.811,173.89 145.639,170.242C 145.468,166.595 145.181,164.197 143.52,162.374C 141.859,160.55 138.823,159.3 135.931,158.524C 133.039,157.747 130.289,157.443 127.339,157.983C 124.39,158.524 121.239,159.908 119.12,162.222C 117.001,164.535 115.913,167.777 115.368,170.192C 114.824,172.606 114.824,174.193 115.025,176.152 Z "/>
		<radialGradient id="SVGID_Fill12_" cx="140.104" cy="171.881" r="13.585" gradientUnits="userSpaceOnUse" gradientTransform="rotate(-90.000000 140.103516 171.880737)">
			<stop offset="0" stop-color="#5B5B5A" stop-opacity="0.631373"/>
			<stop offset="1" stop-color="#626262" stop-opacity="0"/>
		</radialGradient>
		<path fill="url(#SVGID_Fill12_)" stroke-width="0.2" stroke-linejoin="round" d="M 137.667,172.761C 137.711,174.285 137.798,176.098 137.966,177.517C 138.134,178.936 138.382,179.961 138.711,180.986C 139.041,182.011 139.451,183.035 139.892,183.837C 140.333,184.638 140.806,185.217 141.433,185.229C 142.061,185.243 142.844,184.691 143.36,183.495C 143.875,182.3 144.124,180.46 144.242,177.635C 144.36,174.811 144.348,171 144.31,168.162C 144.273,165.324 144.211,163.458 143.851,162.04C 143.49,160.621 142.831,159.648 142.204,159.044C 141.576,158.44 140.979,158.203 140.34,158.624C 139.7,159.044 139.016,160.121 138.556,161.921C 138.096,163.721 137.86,166.244 137.742,168.123C 137.624,170.002 137.624,171.237 137.667,172.761 Z "/>
	</g>
</svg>
