<?xml version="1.0" encoding="utf-8"?>
<!DOCTYPE svg PUBLIC "-//W3C//DTD SVG 1.1//EN" "http://www.w3.org/Graphics/SVG/1.1/DTD/svg11.dtd">
<svg xmlns="http://www.w3.org/2000/svg" xmlns:xlink="http://www.w3.org/1999/xlink" version="1.1" baseProfile="full" width="170" height="259.511" viewBox="0 0 170.00 259.51" enable-background="new 0 0 170.00 259.51" xml:space="preserve">
	<g>
		<linearGradient id="SVGID_Stroke1_" gradientUnits="objectBoundingBox" x1="0.515483" y1="0.50234" x2="1.15287" y2="0.50234" gradientTransform="rotate(91.435913 0.515483 0.502340)">
			<stop offset="0" stop-color="#000000" stop-opacity="1"/>
			<stop offset="1" stop-color="#F8F8F8" stop-opacity="1"/>
		</linearGradient>
		<path fill="#939A95" fill-opacity="1" stroke-width="6" stroke-linejoin="round" stroke="url(#SVGID_Stroke1_)" d="M 82.4832,225.768C 92.5198,225.768 100.656,227.923 100.656,230.581C 100.656,233.24 92.5198,235.395 82.4832,235.395C 72.4468,235.395 64.3105,233.24 64.3105,230.581C 64.3105,227.923 72.4468,225.768 82.4832,225.768 Z "/>
		<linearGradient id="SVGID_Stroke2_" gradientUnits="objectBoundingBox" x1="0.524599" y1="0.397268" x2="1.29624" y2="0.397268" gradientTransform="rotate(92.461540 0.524599 0.397268)">
			<stop offset="0" stop-color="#000000" stop-opacity="1"/>
			<stop offset="1" stop-color="#F8F8F8" stop-opacity="1"/>
		</linearGradient>
		<path fill="#939A95" fill-opacity="1" stroke-width="6" stroke-linejoin="round" stroke="url(#SVGID_Stroke2_)" d="M 82.2063,204.389C 98.7937,204.389 112.241,208.328 112.241,213.188C 112.241,218.047 98.7937,221.987 82.2063,221.987C 65.6189,221.987 52.1719,218.047 52.1719,213.188C 52.1719,208.328 65.6189,204.389 82.2063,204.389 Z "/>
		<linearGradient id="SVGID_Stroke3_" gradientUnits="objectBoundingBox" x1="0.378338" y1="0.275779" x2="1.16193" y2="0.275779" gradientTransform="rotate(77.604675 0.378338 0.275779)">
			<stop offset="0" stop-color="#000000" stop-opacity="1"/>
			<stop offset="1" stop-color="#F8F8F8" stop-opacity="1"/>
		</linearGradient>
		<path fill="#939A95" fill-opacity="1" stroke-width="6" stroke-linejoin="round" stroke="url(#SVGID_Stroke3_)" d="M 82.4763,188.66C 99.0637,188.66 112.51,192.599 112.51,197.458C 112.51,202.318 99.0637,206.257 82.4763,206.257C 65.8887,206.257 52.4417,202.318 52.4417,197.458C 52.4417,192.599 65.8887,188.66 82.4763,188.66 Z "/>
		<linearGradient id="SVGID_Fill1_" gradientUnits="objectBoundingBox" x1="-0.0164754" y1="0.500397" x2="1.01693" y2="0.500397">
			<stop offset="0" stop-color="#6F6F6F" stop-opacity="1"/>
			<stop offset="0.18018" stop-color="#DFDFDF" stop-opacity="1"/>
			<stop offset="0.22973" stop-color="#F8F8F8" stop-opacity="1"/>
			<stop offset="0.963964" stop-color="#1A1A1A" stop-opacity="1"/>
		</linearGradient>
		<path fill="url(#SVGID_Fill1_)" stroke-width="6" stroke-linejoin="round" d="M 51.3367,197.624C 51.3059,197.463 51.3059,197.479 51.301,199.414C 51.2964,201.348 51.2869,205.201 51.2822,207.128C 51.2773,209.054 51.2773,209.054 51.7661,209.386C 52.2549,209.718 53.2324,210.382 54.5437,211.157C 55.8547,211.931 57.4998,212.816 59.5339,213.556C 61.5681,214.295 63.9917,214.889 66.5291,215.302C 69.0662,215.714 71.717,215.945 74.8599,216.094C 78.0032,216.242 81.6384,216.308 85.5769,216.16C 89.5151,216.011 93.7563,215.648 97.4485,215.12C 101.141,214.592 104.284,213.899 106.726,213.074C 109.169,212.249 110.911,211.292 111.914,210.549C 112.918,209.807 113.183,209.279 113.344,208.944C 113.505,208.609 113.562,208.466 113.579,206.588C 113.597,204.71 113.576,201.097 113.565,199.308C 113.554,197.52 113.554,197.557 113.508,197.774C 113.462,197.99 113.37,198.386 113.253,198.721C 113.135,199.055 112.993,199.327 112.692,199.717C 112.39,200.107 111.928,200.614 111.424,201.053C 110.92,201.493 110.374,201.864 109.83,202.183C 109.287,202.501 108.748,202.767 107.984,203.092C 107.221,203.417 106.234,203.801 105.336,204.11C 104.438,204.42 103.628,204.655 102.808,204.868C 101.988,205.082 101.157,205.273 100.039,205.496C 98.9207,205.719 97.5149,205.973 96.2473,206.169C 94.98,206.365 93.8508,206.503 92.3303,206.644C 90.8098,206.785 88.8972,206.93 86.8784,207.014C 84.8596,207.099 82.7341,207.123 81.3948,207.13C 80.0549,207.136 79.5012,207.123 78.7593,207.094C 78.0173,207.064 77.0872,207.016 75.7273,206.918C 74.3677,206.82 72.5784,206.672 70.6755,206.437C 68.7727,206.202 66.7561,205.88 64.9314,205.502C 63.1067,205.125 61.4734,204.692 60.1741,204.302C 58.8748,203.912 57.9092,203.566 56.915,203.095C 55.9211,202.625 54.8987,202.031 54.0962,201.437C 53.2939,200.843 52.7117,200.249 52.3142,199.754C 51.9165,199.259 51.7034,198.863 51.5662,198.495C 51.429,198.127 51.3674,197.786 51.3367,197.624 Z "/>
		<linearGradient id="SVGID_Fill2_" gradientUnits="objectBoundingBox" x1="-0.0164754" y1="0.500393" x2="1.01692" y2="0.500393">
			<stop offset="0" stop-color="#6F6F6F" stop-opacity="1"/>
			<stop offset="0.18018" stop-color="#DFDFDF" stop-opacity="1"/>
			<stop offset="0.22973" stop-color="#F8F8F8" stop-opacity="1"/>
			<stop offset="0.963964" stop-color="#1A1A1A" stop-opacity="1"/>
		</linearGradient>
		<path fill="url(#SVGID_Fill2_)" stroke-width="6" stroke-linejoin="round" d="M 51.1372,212.778C 51.1064,212.616 51.1064,212.633 51.1018,214.568C 51.0969,216.502 51.0876,220.355 51.0828,222.281C 51.0779,224.208 51.0779,224.208 51.5667,224.54C 52.0554,224.872 53.033,225.536 54.3442,226.311C 55.6555,227.085 57.3003,227.97 59.3347,228.71C 61.3689,229.449 63.7922,230.043 66.3296,230.455C 68.8667,230.868 71.5176,231.099 74.6604,231.247C 77.8037,231.396 81.439,231.462 85.3774,231.314C 89.3157,231.165 93.5569,230.802 97.2493,230.274C 100.941,229.746 104.084,229.053 106.527,228.228C 108.969,227.403 110.711,226.446 111.715,225.703C 112.718,224.961 112.983,224.433 113.144,224.098C 113.305,223.762 113.362,223.62 113.38,221.742C 113.398,219.864 113.376,216.251 113.366,214.462C 113.355,212.674 113.355,212.711 113.309,212.928C 113.263,213.144 113.17,213.54 113.053,213.874C 112.936,214.209 112.794,214.481 112.492,214.871C 112.191,215.26 111.729,215.768 111.225,216.207C 110.721,216.647 110.174,217.018 109.631,217.337C 109.088,217.655 108.548,217.921 107.785,218.246C 107.021,218.571 106.034,218.954 105.136,219.264C 104.238,219.573 103.429,219.808 102.609,220.022C 101.789,220.235 100.958,220.427 99.8396,220.65C 98.7212,220.873 97.3154,221.127 96.0481,221.323C 94.7805,221.518 93.6516,221.656 92.1309,221.798C 90.6104,221.939 88.698,222.083 86.679,222.168C 84.6602,222.253 82.5349,222.277 81.1953,222.284C 79.8557,222.29 79.302,222.277 78.5598,222.247C 77.8179,222.218 76.8877,222.17 75.5281,222.072C 74.1682,221.974 72.3792,221.826 70.4761,221.591C 68.5732,221.355 66.5569,221.034 64.7319,220.656C 62.9072,220.279 61.2742,219.846 59.9749,219.456C 58.6755,219.066 57.7097,218.719 56.7156,218.249C 55.7217,217.779 54.6992,217.185 53.8967,216.591C 53.0945,215.997 52.5125,215.403 52.1147,214.908C 51.717,214.413 51.5042,214.017 51.3669,213.649C 51.2295,213.281 51.168,212.94 51.1372,212.778 Z "/>
		<linearGradient id="SVGID_Fill3_" gradientUnits="objectBoundingBox" x1="-0.0164713" y1="0.500408" x2="1.01693" y2="0.500408">
			<stop offset="0" stop-color="#6F6F6F" stop-opacity="1"/>
			<stop offset="0.18018" stop-color="#DFDFDF" stop-opacity="1"/>
			<stop offset="0.22973" stop-color="#F8F8F8" stop-opacity="1"/>
			<stop offset="0.963964" stop-color="#1A1A1A" stop-opacity="1"/>
		</linearGradient>
		<path fill="url(#SVGID_Fill3_)" stroke-width="6" stroke-linejoin="round" d="M 63.699,230.628C 63.6804,230.54 63.6804,230.549 63.6775,231.607C 63.6748,232.665 63.6692,234.773 63.6663,235.827C 63.6633,236.881 63.6633,236.881 63.9585,237.063C 64.2537,237.244 64.8438,237.608 65.6355,238.031C 66.427,238.455 67.4202,238.939 68.6484,239.344C 69.8767,239.748 71.3398,240.073 72.8718,240.299C 74.4036,240.524 76.0042,240.651 77.9016,240.732C 79.7996,240.813 81.9944,240.849 84.3723,240.768C 86.75,240.687 89.3108,240.488 91.5398,240.199C 93.7693,239.911 95.6667,239.531 97.1414,239.08C 98.6162,238.629 99.668,238.105 100.274,237.699C 100.88,237.293 101.04,237.004 101.137,236.821C 101.234,236.637 101.268,236.559 101.279,235.532C 101.29,234.505 101.277,232.528 101.271,231.55C 101.264,230.571 101.264,230.592 101.236,230.71C 101.208,230.828 101.153,231.045 101.082,231.228C 101.011,231.411 100.926,231.56 100.743,231.773C 100.561,231.986 100.282,232.264 99.978,232.504C 99.6736,232.745 99.3435,232.948 99.0156,233.122C 98.6877,233.296 98.3618,233.442 97.9011,233.62C 97.4402,233.797 96.8442,234.007 96.302,234.176C 95.7598,234.346 95.271,234.474 94.7759,234.591C 94.2808,234.708 93.7791,234.813 93.104,234.934C 92.4287,235.056 91.5798,235.195 90.8147,235.302C 90.0496,235.41 89.3679,235.485 88.4497,235.562C 87.5315,235.64 86.377,235.719 85.158,235.765C 83.9392,235.811 82.656,235.825 81.8472,235.828C 81.0383,235.832 80.7039,235.825 80.2561,235.808C 79.8079,235.792 79.2463,235.766 78.4255,235.713C 77.6045,235.659 76.5242,235.578 75.3752,235.449C 74.2263,235.32 73.009,235.144 71.9072,234.938C 70.8054,234.732 69.8193,234.495 69.0349,234.281C 68.2502,234.068 67.6672,233.879 67.0671,233.621C 66.467,233.364 65.8499,233.039 65.3652,232.714C 64.8809,232.389 64.5293,232.064 64.2893,231.793C 64.0491,231.523 63.9207,231.306 63.8376,231.104C 63.7549,230.903 63.7175,230.717 63.699,230.628 Z "/>
	</g>
	<g>
		<path fill="#F6DF3D" fill-opacity="1" stroke-width="4" stroke-linejoin="round" stroke="#E2A007" stroke-opacity="1" d="M 102.253,197.431C 92.6213,197.535 73.2881,197.535 63.5105,197.48C 53.7327,197.424 53.5103,197.313 53.4548,194.035C 53.3992,190.757 53.5103,184.313 51.8992,177.591C 50.2881,170.869 46.9548,163.869 42.5105,156.813C 38.0659,149.757 32.5103,142.646 27.7881,134.535C 23.0659,126.424 19.177,117.313 16.8992,109.258C 14.6213,101.202 13.9548,94.2019 14.3992,86.2576C 14.8435,78.313 16.3992,69.4241 19.8992,61.4795C 23.3992,53.5352 28.8435,46.5352 34.677,40.7576C 40.5103,34.9797 46.7327,30.4241 53.7881,27.1462C 60.8435,23.8687 68.7327,21.8687 76.5659,20.9243C 84.3992,19.9797 92.177,20.0908 100.51,22.2019C 108.844,24.313 117.733,28.4241 125.344,34.0908C 132.955,39.7573 139.288,46.9797 144.232,55.0352C 149.177,63.0908 152.733,71.9797 154.51,81.7019C 156.288,91.4241 156.288,101.98 154.51,110.758C 152.733,119.535 149.177,126.535 145.399,132.258C 141.621,137.98 137.621,142.424 133.01,148.702C 128.399,154.98 123.177,163.091 119.677,169.757C 116.177,176.424 114.399,181.646 113.365,185.931C 112.33,190.216 112.038,193.563 111.927,195.341C 111.816,197.119 111.885,197.327 102.253,197.431 Z "/>
		<g>
			<radialGradient id="SVGID_Fill4_" cx="84.1003" cy="22.9729" r="54.2739" gradientUnits="userSpaceOnUse">
				<stop offset="0" stop-color="#FFFFFF" stop-opacity="1"/>
				<stop offset="1" stop-color="#FFFFFF" stop-opacity="0"/>
			</radialGradient>
			<path fill="url(#SVGID_Fill4_)" stroke-width="4" stroke-linejoin="round" d="M 81.3088,26.6394C 76.4756,26.9312 70.7256,27.5144 66.2256,28.6394C 61.7256,29.7644 58.4756,31.4312 55.2256,33.6394C 51.9756,35.8477 48.7256,38.5977 46.1838,41.5562C 43.6423,44.5144 41.8088,47.6812 41.7673,51.8894C 41.7256,56.0977 43.4756,61.3477 47.2673,64.8062C 51.0588,68.2644 56.8923,69.9312 65.8506,70.7227C 74.8088,71.5144 86.8923,71.4312 95.8923,71.1812C 104.892,70.9312 110.809,70.5144 115.309,68.0977C 119.809,65.6812 122.892,61.2644 124.809,57.0562C 126.726,52.8477 127.476,48.8477 126.142,44.5562C 124.809,40.2644 121.392,35.6812 115.684,32.5977C 109.976,29.5144 101.976,27.9312 96.0173,27.1394C 90.0588,26.3477 86.1423,26.3477 81.3088,26.6394 Z "/>
			<radialGradient id="SVGID_Fill5_" cx="17.7092" cy="92.4768" r="102.817" gradientUnits="userSpaceOnUse" gradientTransform="rotate(-90.000000 17.709229 92.476807)">
				<stop offset="0" stop-color="#FFFFFF" stop-opacity="1"/>
				<stop offset="1" stop-color="#FFFFFF" stop-opacity="0"/>
			</radialGradient>
			<path fill="url(#SVGID_Fill5_)" stroke-width="4" stroke-linejoin="round" d="M 21.3757,95.2683C 21.6672,100.102 22.2507,105.852 23.3757,110.352C 24.5007,114.851 26.1672,118.101 28.3757,121.351C 30.584,124.601 33.334,127.851 36.2922,130.393C 39.2507,132.935 42.4172,134.768 46.6257,134.81C 50.834,134.851 56.084,133.101 59.5422,129.31C 63.0007,125.518 64.6672,119.685 65.459,110.727C 66.2507,101.768 66.1672,89.6851 65.9172,80.6851C 65.6672,71.6851 65.2507,65.7683 62.834,61.2683C 60.4172,56.7683 56.0007,53.6851 51.7922,51.7683C 47.584,49.8516 43.584,49.1016 39.2922,50.4351C 35.0007,51.7683 30.4172,55.1851 27.334,60.8933C 24.2507,66.6016 22.6672,74.6016 21.8757,80.5601C 21.084,86.5183 21.084,90.4351 21.3757,95.2683 Z "/>
			<radialGradient id="SVGID_Fill6_" cx="153.257" cy="90.5498" r="102.817" gradientUnits="userSpaceOnUse" gradientTransform="rotate(90.000000 153.256592 90.549805)">
				<stop offset="0" stop-color="#FFFFFF" stop-opacity="1"/>
				<stop offset="1" stop-color="#FFFFFF" stop-opacity="0"/>
			</radialGradient>
			<path fill="url(#SVGID_Fill6_)" stroke-width="4" stroke-linejoin="round" d="M 149.59,87.7583C 149.298,82.9248 148.715,77.1748 147.59,72.6748C 146.465,68.1748 144.798,64.9248 142.59,61.6748C 140.382,58.4248 137.632,55.1748 134.673,52.6333C 131.715,50.0916 128.548,48.2583 124.34,48.2166C 120.132,48.1748 114.882,49.9248 111.423,53.7166C 107.965,57.5083 106.298,63.3416 105.507,72.2998C 104.715,81.2583 104.798,93.3416 105.048,102.342C 105.298,111.342 105.715,117.258 108.132,121.758C 110.548,126.258 114.965,129.342 119.173,131.258C 123.382,133.175 127.382,133.925 131.673,132.592C 135.965,131.258 140.548,127.842 143.632,122.133C 146.715,116.425 148.298,108.425 149.09,102.467C 149.882,96.5083 149.882,92.5916 149.59,87.7583 Z "/>
			<radialGradient id="SVGID_Fill7_" cx="85.3469" cy="84.1433" r="54.2737" gradientUnits="userSpaceOnUse">
				<stop offset="0" stop-color="#FFFFFF" stop-opacity="1"/>
				<stop offset="1" stop-color="#FFFFFF" stop-opacity="0"/>
			</radialGradient>
			<path fill="url(#SVGID_Fill7_)" stroke-width="4" stroke-linejoin="round" d="M 82.5554,85.751C 77.7219,85.8787 71.9719,86.1345 67.4719,86.6277C 62.9719,87.1208 59.7219,87.8516 56.4719,88.8198C 53.2219,89.7878 49.9719,90.9937 47.4304,92.2905C 44.8887,93.5874 43.0554,94.9758 43.0137,96.8208C 42.9719,98.6658 44.7219,100.967 48.5137,102.484C 52.3054,104 58.1387,104.73 67.0969,105.078C 76.0554,105.425 88.1387,105.388 97.1387,105.279C 106.139,105.169 112.055,104.986 116.555,103.927C 121.055,102.867 124.139,100.931 126.055,99.0859C 127.972,97.241 128.722,95.4873 127.389,93.6057C 126.055,91.7241 122.639,89.7148 116.93,88.363C 111.222,87.0112 103.222,86.3171 97.2637,85.97C 91.3054,85.623 87.3887,85.623 82.5554,85.751 Z "/>
		</g>
	</g>
	<g>
		<radialGradient id="SVGID_Fill8_" cx="86.5735" cy="138.226" r="27.9629" gradientUnits="userSpaceOnUse">
			<stop offset="0" stop-color="#5B5B5A" stop-opacity="0.568627"/>
			<stop offset="1" stop-color="#626262" stop-opacity="0"/>
		</radialGradient>
		<path fill="url(#SVGID_Fill8_)" stroke-width="4" stroke-linejoin="round" d="M 85.0618,134.221C 82.4436,134.293 79.3293,134.435 76.8918,134.711C 74.4543,134.987 72.6941,135.396 70.9338,135.937C 69.1733,136.479 67.4131,137.153 66.0364,137.879C 64.6597,138.604 63.6667,139.381 63.644,140.412C 63.6216,141.444 64.5693,142.732 66.6233,143.58C 68.677,144.428 71.8364,144.837 76.6887,145.031C 81.541,145.225 88.0857,145.204 92.9607,145.143C 97.8354,145.082 101.04,144.98 103.478,144.387C 105.915,143.794 107.585,142.711 108.623,141.679C 109.661,140.648 110.068,139.667 109.345,138.614C 108.623,137.562 106.773,136.438 103.681,135.682C 100.589,134.926 96.2556,134.538 93.0283,134.344C 89.801,134.15 87.6794,134.15 85.0618,134.221 Z "/>
		<radialGradient id="SVGID_Fill9_" cx="81.937" cy="123.004" r="23.3344" gradientUnits="userSpaceOnUse" gradientTransform="rotate(-90.000000 81.937012 123.003662)">
			<stop offset="0" stop-color="#5B5B5A" stop-opacity="0.552941"/>
			<stop offset="1" stop-color="#626262" stop-opacity="0"/>
		</radialGradient>
		<path fill="url(#SVGID_Fill9_)" stroke-width="4" stroke-linejoin="round" d="M 77.9319,124.515C 78.0032,127.133 78.1462,130.248 78.4221,132.685C 78.698,135.123 79.1067,136.883 79.6482,138.643C 80.1897,140.404 80.864,142.164 81.5896,143.541C 82.3149,144.917 83.0916,145.91 84.1233,145.933C 85.1553,145.955 86.4426,145.008 87.2908,142.954C 88.1387,140.9 88.5474,137.74 88.7415,132.888C 88.9358,128.036 88.9153,121.491 88.8538,116.616C 88.7927,111.742 88.6904,108.537 88.0979,106.1C 87.5051,103.662 86.4221,101.992 85.3904,100.954C 84.3584,99.9155 83.3774,99.5095 82.3252,100.232C 81.2727,100.954 80.1489,102.804 79.3928,105.896C 78.6367,108.988 78.2485,113.321 78.0544,116.549C 77.8601,119.776 77.8601,121.897 77.9319,124.515 Z "/>
		<radialGradient id="SVGID_Fill10_" cx="84.4929" cy="158.976" r="16.2793" gradientUnits="userSpaceOnUse">
			<stop offset="0" stop-color="#5B5B5A" stop-opacity="0.733333"/>
			<stop offset="1" stop-color="#626262" stop-opacity="0"/>
		</radialGradient>
		<path fill="url(#SVGID_Fill10_)" stroke-width="4" stroke-linejoin="round" d="M 83.6128,154.971C 82.0886,155.043 80.2756,155.186 78.8567,155.462C 77.4375,155.737 76.4128,156.146 75.3879,156.688C 74.363,157.229 73.3381,157.903 72.5369,158.629C 71.7354,159.354 71.1572,160.131 71.144,161.163C 71.1309,162.195 71.6829,163.482 72.8784,164.33C 74.074,165.178 75.9133,165.587 78.7383,165.781C 81.5632,165.975 85.3733,165.954 88.2114,165.893C 91.0493,165.832 92.915,165.73 94.334,165.137C 95.7532,164.545 96.7253,163.462 97.3298,162.43C 97.9341,161.398 98.1707,160.417 97.7502,159.365C 97.3298,158.312 96.2522,157.188 94.4524,156.432C 92.6523,155.676 90.1296,155.288 88.2507,155.094C 86.3718,154.9 85.137,154.9 83.6128,154.971 Z "/>
		<radialGradient id="SVGID_Fill11_" cx="81.8118" cy="174.777" r="17.459" gradientUnits="userSpaceOnUse" gradientTransform="rotate(-90.000000 81.811768 174.776733)">
			<stop offset="0" stop-color="#D5C33E" stop-opacity="1"/>
			<stop offset="1" stop-color="#E0E083" stop-opacity="0"/>
		</radialGradient>
		<path fill="url(#SVGID_Fill11_)" stroke-width="4" stroke-linejoin="round" d="M 70.5852,175.908C 70.7856,177.867 71.1865,180.197 71.9597,182.02C 72.7332,183.844 73.8787,185.161 75.3962,186.478C 76.9143,187.795 78.8044,189.112 80.8376,190.142C 82.8711,191.172 85.0476,191.915 87.9402,191.932C 90.8325,191.949 94.4412,191.24 96.8181,189.703C 99.1951,188.167 100.341,185.803 100.885,182.172C 101.429,178.542 101.372,173.645 101.2,169.998C 101.028,166.351 100.741,163.953 99.0803,162.129C 97.4194,160.306 94.3838,159.056 91.4912,158.279C 88.5989,157.503 85.8494,157.199 82.8997,157.739C 79.95,158.279 76.7996,159.664 74.6804,161.977C 72.5613,164.291 71.4729,167.533 70.9287,169.947C 70.3845,172.362 70.3845,173.949 70.5852,175.908 Z "/>
		<radialGradient id="SVGID_Fill12_" cx="95.6638" cy="171.636" r="13.585" gradientUnits="userSpaceOnUse" gradientTransform="rotate(-90.000000 95.663818 171.636475)">
			<stop offset="0" stop-color="#5B5B5A" stop-opacity="0.631373"/>
			<stop offset="1" stop-color="#626262" stop-opacity="0"/>
		</radialGradient>
		<path fill="url(#SVGID_Fill12_)" stroke-width="4" stroke-linejoin="round" d="M 93.2278,172.517C 93.2712,174.041 93.3584,175.854 93.5261,177.273C 93.6941,178.692 93.9426,179.717 94.2717,180.741C 94.6013,181.766 95.0112,182.791 95.4524,183.593C 95.8938,184.394 96.366,184.972 96.9934,184.985C 97.6211,184.998 98.4041,184.447 98.9199,183.251C 99.4355,182.055 99.6843,180.216 99.8022,177.391C 99.9202,174.566 99.908,170.756 99.8706,167.918C 99.8333,165.08 99.7712,163.214 99.4109,161.795C 99.0503,160.376 98.3916,159.404 97.7639,158.8C 97.1365,158.195 96.5398,157.959 95.8999,158.379C 95.26,158.8 94.5764,159.877 94.1165,161.677C 93.6567,163.477 93.4207,166 93.3025,167.879C 93.1843,169.757 93.1843,170.993 93.2278,172.517 Z "/>
	</g>
</svg>
