<?xml version="1.0" encoding="utf-8"?>
<!DOCTYPE svg PUBLIC "-//W3C//DTD SVG 1.1//EN" "http://www.w3.org/Graphics/SVG/1.1/DTD/svg11.dtd">
<svg xmlns="http://www.w3.org/2000/svg" xmlns:xlink="http://www.w3.org/1999/xlink" version="1.1" baseProfile="full" width="259.2" height="259.2" viewBox="0 0 259.20 259.20" enable-background="new 0 0 259.20 259.20" xml:space="preserve">
	<linearGradient id="SVGID_Fill1_" gradientUnits="objectBoundingBox" x1="0.661586" y1="-0.0246745" x2="1.75959" y2="-0.0246745" gradientTransform="rotate(116.881203 0.661586 -0.024675)">
		<stop offset="0.00930233" stop-color="#847BF5" stop-opacity="1"/>
		<stop offset="1" stop-color="#94F5C9" stop-opacity="1"/>
	</linearGradient>
	<path fill="url(#SVGID_Fill1_)" stroke-width="0.2" stroke-linejoin="round" d="M 45.3622,78.4555L 195.737,138.589L 162.738,223.112L 12.3633,162.979L 45.3622,78.4555 Z "/>
	<linearGradient id="SVGID_Fill2_" gradientUnits="objectBoundingBox" x1="0.716586" y1="-0.263792" x2="2.31461" y2="-0.263792" gradientTransform="rotate(123.089691 0.716586 -0.263792)">
		<stop offset="0.00465116" stop-color="#77E75D" stop-opacity="1"/>
		<stop offset="1" stop-color="#0A7007" stop-opacity="1"/>
	</linearGradient>
	<path fill="url(#SVGID_Fill2_)" stroke-width="0.2" stroke-linejoin="round" d="M 41.3323,126.641L 49.5176,140.457L 58.9188,164.823L 82.8228,180.611L 127.288,198.392L 164.046,207.341L 153.996,218.177L 56.1552,184.324L 14.531,166.72L 28.8076,126.425L 41.3323,126.641 Z "/>
	<linearGradient id="SVGID_Fill3_" gradientUnits="objectBoundingBox" x1="0.665619" y1="0.0767546" x2="1.62879" y2="0.0767546" gradientTransform="rotate(112.313286 0.665619 0.076755)">
		<stop offset="0.00930233" stop-color="#3E4DAB" stop-opacity="1"/>
		<stop offset="1" stop-color="#7081BD" stop-opacity="1"/>
	</linearGradient>
	<path fill="url(#SVGID_Fill3_)" stroke-width="0.2" stroke-linejoin="round" d="M 52.9709,109.252L 66.6709,96.5204L 62.3206,89.0307L 47.4473,81.1659L 37.8462,94.578L 52.9709,109.252 Z "/>
	<linearGradient id="SVGID_Stroke1_" gradientUnits="objectBoundingBox" x1="0.343387" y1="0.997624" x2="1.38676" y2="0.997624" gradientTransform="rotate(-63.615883 0.343387 0.997624)">
		<stop offset="0" stop-color="#BBD9C2" stop-opacity="1"/>
		<stop offset="1" stop-color="#E0D0D0" stop-opacity="1"/>
	</linearGradient>
	<path fill="none" stroke-width="7" stroke-linejoin="round" stroke="url(#SVGID_Stroke1_)" d="M 44.9666,76.3403L 199.335,138.07L 164.381,227.602L 10.0127,165.872L 44.9666,76.3403 Z "/>
	<g>
		<linearGradient id="SVGID_Fill4_" gradientUnits="objectBoundingBox" x1="0.2347" y1="0.131127" x2="1.14344" y2="0.131127" gradientTransform="rotate(60.807751 0.234700 0.131127)">
			<stop offset="0.0139535" stop-color="#490202" stop-opacity="1"/>
			<stop offset="0.367442" stop-color="#F80707" stop-opacity="1"/>
			<stop offset="1" stop-color="#310C05" stop-opacity="1"/>
		</linearGradient>
		<path fill="url(#SVGID_Fill4_)" stroke-width="0.2" stroke-linejoin="round" d="M 160.866,60.1659L 246.694,193.788L 170.766,241.288L 84.938,107.666L 160.866,60.1659 Z "/>
		<linearGradient id="SVGID_Fill5_" gradientUnits="objectBoundingBox" x1="0.327356" y1="0.13385" x2="1.06409" y2="0.13385" gradientTransform="rotate(54.297440 0.327356 0.133850)">
			<stop offset="0.0186047" stop-color="#8A78A1" stop-opacity="0.101961"/>
			<stop offset="0.372093" stop-color="#E0E3EA" stop-opacity="0.815686"/>
			<stop offset="1" stop-color="#050731" stop-opacity="0.101961"/>
		</linearGradient>
		<path fill="url(#SVGID_Fill5_)" stroke-width="0.2" stroke-linejoin="round" d="M 184.432,94.3808L 145.52,102.227L 102.724,127.936L 108.847,152.309L 132.681,185.292L 173.516,165.599L 207.156,126.461L 184.432,94.3808 Z "/>
		<linearGradient id="SVGID_Fill6_" gradientUnits="objectBoundingBox" x1="0.901071" y1="0.209472" x2="1.78838" y2="0.209472" gradientTransform="rotate(148.971069 0.901071 0.209472)">
			<stop offset="0.0186047" stop-color="#133ED9" stop-opacity="0.611765"/>
			<stop offset="0.372093" stop-color="#5A6FA1" stop-opacity="0.384314"/>
			<stop offset="1" stop-color="#050731" stop-opacity="0.101961"/>
		</linearGradient>
		<path fill="url(#SVGID_Fill6_)" stroke-width="0.2" stroke-linejoin="round" d="M 191.245,97.5683L 138.734,113.923L 161.376,159.89L 176.074,161.338L 206.826,123.475L 191.245,97.5683 Z "/>
		<linearGradient id="SVGID_Stroke2_" gradientUnits="objectBoundingBox" x1="0.085903" y1="0.732959" x2="1.03616" y2="0.732959" gradientTransform="rotate(-35.537376 0.085903 0.732959)">
			<stop offset="0" stop-color="#BBD9C2" stop-opacity="1"/>
			<stop offset="1" stop-color="#E0D0D0" stop-opacity="1"/>
		</linearGradient>
		<path fill="none" stroke-width="2" stroke-linejoin="round" stroke="url(#SVGID_Stroke2_)" d="M 162.005,54.9306L 251.734,194.626L 170.14,245.671L 80.4105,105.976L 162.005,54.9306 Z "/>
	</g>
	<linearGradient id="SVGID_Stroke3_" gradientUnits="objectBoundingBox" x1="0.0648302" y1="0.192287" x2="1.31243" y2="0.192287" gradientTransform="rotate(38.759037 0.064830 0.192287)">
		<stop offset="0" stop-color="#BBD9C2" stop-opacity="0.662745"/>
		<stop offset="1" stop-color="#E0D0D0" stop-opacity="0.662745"/>
	</linearGradient>
	<path fill="#F5F3ED" fill-opacity="0.662745" stroke-width="2" stroke-linejoin="round" stroke="url(#SVGID_Stroke3_)" d="M 155.971,226.458L 79.8687,107.978L 94.9465,98.5458L 44.4246,78.3427L 9.47046,167.874L 155.971,226.458 Z "/>
	<linearGradient id="SVGID_Stroke4_" gradientUnits="objectBoundingBox" x1="0.0975139" y1="0.727069" x2="1.02176" y2="0.727069" gradientTransform="rotate(-35.460693 0.097514 0.727069)">
		<stop offset="0" stop-color="#BBD9C2" stop-opacity="0.662745"/>
		<stop offset="1" stop-color="#E0D0D0" stop-opacity="0.662745"/>
	</linearGradient>
	<path fill="#F5F3ED" fill-opacity="0.662745" stroke-width="7" stroke-linejoin="round" stroke="url(#SVGID_Stroke4_)" d="M 161.553,55.349L 251.282,195.044L 169.688,246.089L 79.9587,106.394L 161.553,55.349 Z "/>
	<linearGradient id="SVGID_Stroke5_" gradientUnits="objectBoundingBox" x1="0.509294" y1="1.54228" x2="2.59392" y2="1.54228" gradientTransform="rotate(269.879303 0.509294 1.542276)">
		<stop offset="0.00465116" stop-color="#380101" stop-opacity="1"/>
		<stop offset="0.311628" stop-color="#150202" stop-opacity="1"/>
		<stop offset="0.599998" stop-color="#150101" stop-opacity="1"/>
		<stop offset="1" stop-color="#621616" stop-opacity="1"/>
	</linearGradient>
	<linearGradient id="SVGID_Fill7_" gradientUnits="objectBoundingBox" x1="0.509294" y1="1.54228" x2="2.59392" y2="1.54228" gradientTransform="rotate(269.879303 0.509294 1.542276)">
		<stop offset="0.00465116" stop-color="#723711" stop-opacity="1"/>
		<stop offset="0.172093" stop-color="#783A11" stop-opacity="1"/>
		<stop offset="0.274419" stop-color="#C75F1C" stop-opacity="1"/>
		<stop offset="0.432558" stop-color="#DC691F" stop-opacity="1"/>
		<stop offset="0.516279" stop-color="#9C6A60" stop-opacity="1"/>
		<stop offset="0.972093" stop-color="#936B6B" stop-opacity="1"/>
	</linearGradient>
	<path fill="url(#SVGID_Fill7_)" stroke-width="0.2" stroke-linecap="round" stroke-linejoin="round" stroke="url(#SVGID_Stroke5_)" d="M 46.0934,129.946L 203.776,129.762L 205.192,218.106L 47.5092,218.29L 46.0934,129.946 Z "/>
	<linearGradient id="SVGID_Stroke6_" gradientUnits="objectBoundingBox" x1="0.0563287" y1="0.446739" x2="1.05502" y2="0.446739" gradientTransform="rotate(-0.553832 0.056329 0.446739)">
		<stop offset="0.00465116" stop-color="#380101" stop-opacity="1"/>
		<stop offset="0.311628" stop-color="#150202" stop-opacity="1"/>
		<stop offset="0.599998" stop-color="#150101" stop-opacity="1"/>
		<stop offset="1" stop-color="#621616" stop-opacity="1"/>
	</linearGradient>
	<path fill="none" stroke-width="25" stroke-linecap="round" stroke-linejoin="round" stroke="url(#SVGID_Stroke6_)" d="M 54.3452,138.86C 54.5239,150.009 53.3364,161.955 56.2402,172.768C 57.9603,179.174 51.2306,185.999 52.9507,192.404C 53.5895,194.783 55.8276,204.638 57.2343,206.677C 58.3264,208.261 57.4058,217.386 63.5988,210.24C 63.9871,209.792 70.869,212.488 71.3005,212.908C 71.7321,213.328 71.2668,203.489 71.608,203.983C 71.9895,204.537 86.8325,203.566 87.3762,203.965C 88.064,204.469 74.0587,212.811 74.9047,212.903C 83.0283,213.787 88.6969,211.4 91.1091,211.992C 96.989,213.435 94.6616,208.753 100.542,210.196C 101.196,210.357 101.814,210.688 102.358,211.087C 103.046,211.591 103.423,212.494 104.189,212.869C 104.73,213.135 105.39,212.868 105.991,212.867C 106.892,212.866 107.793,212.865 108.694,212.864C 111.697,212.86 114.701,212.857 117.704,212.853C 127.015,212.842 140.802,211.042 150.113,211.031C 166.034,211.012 178.568,215.46 192.477,211.874"/>
	<linearGradient id="SVGID_Stroke7_" gradientUnits="objectBoundingBox" x1="0.507792" y1="1.31854" x2="2.14494" y2="1.31854" gradientTransform="rotate(269.887573 0.507792 1.318535)">
		<stop offset="0" stop-color="#BBD9C2" stop-opacity="1"/>
		<stop offset="1" stop-color="#E0D0D0" stop-opacity="1"/>
	</linearGradient>
	<path fill="none" stroke-width="7" stroke-linejoin="round" stroke="url(#SVGID_Stroke7_)" d="M 42.432,126.381L 208.224,126.187L 209.769,222.562L 43.9764,222.756L 42.432,126.381 Z "/>
	<linearGradient id="SVGID_Fill8_" gradientUnits="objectBoundingBox" x1="0.507841" y1="3.95055" x2="7.40969" y2="3.95055" gradientTransform="rotate(269.534180 0.507841 3.950554)">
		<stop offset="0.367442" stop-color="#292C31" stop-opacity="0"/>
		<stop offset="0.488372" stop-color="#292C31" stop-opacity="0.584314"/>
		<stop offset="0.623256" stop-color="#6B6C7A" stop-opacity="0"/>
	</linearGradient>
	<path fill="url(#SVGID_Fill8_)" stroke-width="0.2" stroke-linejoin="round" d="M 67.2012,143.363L 82.9749,136.651L 105.962,137.294L 111.127,143.311L 130.424,145.632L 153.696,142.927L 163.076,137.896L 182.379,140.551L 197.257,141.203L 203.741,145.211L 200.159,153.581L 191.406,155.6L 175.198,156.288L 162.261,150.279L 140.32,151.643L 135.895,149.641L 121.779,154.342L 95.7717,155.042L 89.5181,144.34L 76.0668,148.372L 69.6897,151.057L 66.9597,149.387L 67.2012,143.363 Z "/>
	<radialGradient id="SVGID_Fill9_" cx="174.755" cy="145.63" r="24.0155" gradientUnits="userSpaceOnUse" gradientTransform="rotate(-1.192275 174.755493 145.629807)">
		<stop offset="0.00465116" stop-color="#C0BABA" stop-opacity="0.360784"/>
		<stop offset="0.972093" stop-color="#936B6B" stop-opacity="0.258824"/>
	</radialGradient>
	<path fill="url(#SVGID_Fill9_)" stroke-width="0.2" stroke-linejoin="round" d="M 192.556,151.342L 198.603,144.268L 178.845,135.893L 173.844,139.355L 167.848,147.467L 151.214,153.247L 167.671,154.435L 187.997,155.903L 192.556,151.342 Z "/>
	<radialGradient id="SVGID_Fill10_" cx="119.295" cy="157.523" r="26.1303" gradientUnits="userSpaceOnUse" gradientTransform="rotate(-0.642820 119.295166 157.522873)">
		<stop offset="0.00465116" stop-color="#F80F0F" stop-opacity="1"/>
		<stop offset="0.972093" stop-color="#936B6B" stop-opacity="1"/>
	</radialGradient>
	<path fill="url(#SVGID_Fill10_)" stroke-width="0.2" stroke-linecap="round" stroke-linejoin="round" d="M 119.002,139.229C 133.434,139.213 145.263,147.388 145.425,157.492C 145.587,167.595 134.02,175.799 119.588,175.816C 105.157,175.833 93.3268,167.656 93.1648,157.553C 93.0029,147.45 104.57,139.246 119.002,139.229 Z "/>
	<g>
		<linearGradient id="SVGID_Fill11_" gradientUnits="objectBoundingBox" x1="1" y1="0.500002" x2="2" y2="0.500002" gradientTransform="rotate(180.000000 1.000000 0.500002)">
			<stop offset="0" stop-color="#293128" stop-opacity="1"/>
			<stop offset="0.272524" stop-color="#1D8C19" stop-opacity="1"/>
			<stop offset="0.525581" stop-color="#11E70B" stop-opacity="0.996078"/>
			<stop offset="1" stop-color="#97BD89" stop-opacity="1"/>
		</linearGradient>
		<path fill="url(#SVGID_Fill11_)" stroke-width="4" stroke-linejoin="round" stroke="#000000" stroke-opacity="1" d="M 123.146,167.749L 121.675,154.14L 123.146,140.898L 129.766,129.496L 139.33,121.037L 149.629,117.358L 158.088,116.255L 158.824,131.703L 161.031,138.692L 168.387,139.427L 224.663,89.4042L 226.134,83.5192L 225.767,76.8984L 225.767,76.5307L 220.617,71.0134L 169.123,24.3007L 164.709,23.1972L 164.709,23.5651L 160.295,25.4042L 158.088,28.7145L 158.456,47.1054L 146.318,49.3122L 133.077,54.8295L 120.939,66.5995L 113.215,83.8871L 108.801,106.324L 110.64,135.749L 116.893,155.243L 123.146,167.749 Z "/>
		<linearGradient id="SVGID_Fill12_" gradientUnits="objectBoundingBox" x1="1" y1="0.500002" x2="2" y2="0.500002" gradientTransform="rotate(180.000000 1.000000 0.500002)">
			<stop offset="0" stop-color="#293128" stop-opacity="1"/>
			<stop offset="0.272524" stop-color="#1D8C19" stop-opacity="1"/>
			<stop offset="0.525581" stop-color="#11E70B" stop-opacity="0.996078"/>
			<stop offset="1" stop-color="#97BD89" stop-opacity="1"/>
		</linearGradient>
		<path fill="url(#SVGID_Fill12_)" stroke-width="4" stroke-linejoin="round" stroke="#000000" stroke-opacity="1" d="M 122.962,167.504L 129.828,174.738L 136.448,180.5L 142.701,183.197L 146.257,183.197L 148.341,180.623L 148.709,176.822L 146.747,170.569L 142.824,165.91L 137.429,159.78L 132.035,152.056L 129.705,144.454L 128.357,134.4L 129.46,130.109L 122.349,140.653L 121.123,157.328L 122.962,167.504 Z "/>
	</g>
</svg>
