<svg enable-background="new 0 0 259.20 259.20" height="259.2" viewBox="0 0 259.2 259.2" width="259.2" xmlns="http://www.w3.org/2000/svg" xmlns:xlink="http://www.w3.org/1999/xlink"><linearGradient id="a" gradientTransform="matrix(.378468916134 .925614001364 -.925614001364 .378468916134 .151204659364 -.39393525547)" gradientUnits="objectBoundingBox" x1=".368936" x2="1.56675" y1="-.0843766" y2="-.0843766"><stop offset=".00930233" stop-color="#847bf5"/><stop offset="1" stop-color="#94f5c9"/></linearGradient><linearGradient id="b" gradientTransform="matrix(.60658737643 .795016826712 -.795016826712 .60658737643 -.586811593907 -.655704307803)" gradientUnits="objectBoundingBox" x1=".369125" x2="2.78757" y1="-.920773" y2="-.920773"><stop offset=".00465116" stop-color="#77e75d"/><stop offset="1" stop-color="#0a7007"/></linearGradient><linearGradient id="c" gradientTransform="matrix(.320330908447 .947305710472 -.947305710472 .320330908447 .192176522834 -.378090811169)" gradientUnits="objectBoundingBox" x1=".359575" x2="1.60108" y1="-.0551204" y2="-.0551204"><stop offset=".00930233" stop-color="#3e4dab"/><stop offset="1" stop-color="#7081bd"/></linearGradient><linearGradient id="d"><stop offset="0" stop-color="#bbd9c2"/><stop offset="1" stop-color="#e0d0d0"/></linearGradient><linearGradient id="e" gradientTransform="matrix(-.368002582418 -.929824768079 .929824768079 -.368002582418 -.119082429682 2.022660245949)" gradientUnits="objectBoundingBox" x1=".627855" x2="1.76069" xlink:href="#d" y1="1.0518" y2="1.0518"/><linearGradient id="f" gradientTransform="matrix(.966080400875 .258241474295 -.258241474295 .966080400875 .082994744793 -.010901292264)" gradientUnits="objectBoundingBox" x1=".082995" x2=".999094" y1=".310483" y2=".310483"><stop offset=".0139535" stop-color="#490202"/><stop offset=".367442" stop-color="#f80707"/><stop offset="1" stop-color="#310c05"/></linearGradient><linearGradient id="g" gradientTransform="matrix(.910751516551 .412954809996 -.412954809996 .910751516551 .170765533746 -.035096098868)" gradientUnits="objectBoundingBox" x1=".166578" x2="1.00852" y1=".37752" y2=".37752"><stop offset=".0186047" stop-color="#8a78a1" stop-opacity=".101961"/><stop offset=".372093" stop-color="#e0e3ea" stop-opacity=".815686"/><stop offset="1" stop-color="#050731" stop-opacity=".101961"/></linearGradient><linearGradient id="h" gradientTransform="matrix(-.288426795772 .957501949596 -.957501949596 -.288426795772 1.074873187955 -.650914330191)" gradientUnits="objectBoundingBox" x1=".779302" x2="1.67236" y1=".0739423" y2=".0739423"><stop offset=".0186047" stop-color="#133ed9" stop-opacity=".611765"/><stop offset=".372093" stop-color="#5a6fa1" stop-opacity=".384314"/><stop offset="1" stop-color="#050731" stop-opacity=".101961"/></linearGradient><linearGradient id="i" gradientTransform="matrix(.405627173033 -.914038618712 .914038618712 .405627173033 -.725945646325 .935148024404)" gradientUnits="objectBoundingBox" x1=".356072" x2="1.44628" xlink:href="#d" y1="1.02576" y2="1.02576"/><linearGradient id="j"><stop offset=".00465116" stop-color="#380101"/><stop offset=".311628" stop-color="#150202"/><stop offset=".599998" stop-color="#150101"/><stop offset="1" stop-color="#621616"/></linearGradient><linearGradient id="k" gradientTransform="matrix(-.651151534423 -.758947744722 .758947744722 -.651151534423 .656291987953 2.152222999278)" gradientUnits="objectBoundingBox" x1=".822778" x2="1.89058" xlink:href="#j" y1=".92528" y2=".92528"/><linearGradient id="l" gradientTransform="matrix(-.651151534423 -.758947744722 .758947744722 -.651151534423 .656291987953 2.152222999278)" gradientUnits="objectBoundingBox" x1=".822778" x2="1.89058" y1=".92528" y2=".92528"><stop offset=".00465116" stop-color="#723711"/><stop offset=".172093" stop-color="#783a11"/><stop offset=".274419" stop-color="#c75f1c"/><stop offset=".432558" stop-color="#dc691f"/><stop offset=".516279" stop-color="#9c6a60"/><stop offset=".972093" stop-color="#936b6b"/></linearGradient><linearGradient id="m" gradientTransform="matrix(.894942265897 -.446181959195 .446181959195 .894942265897 -.266977405664 .138652479307)" gradientUnits="objectBoundingBox" x1=".160941" x2="1.34268" xlink:href="#j" y1=".636255" y2=".636255"/><linearGradient id="n" gradientTransform="matrix(-.648194449144 -.761474855854 .761474855854 -.648194449144 .620647646223 1.996812609277)" gradientUnits="objectBoundingBox" x1=".771593" x2="1.6656" xlink:href="#d" y1=".855035" y2=".855035"/><linearGradient id="o" gradientTransform="matrix(-.70549901716 -.708710897888 .708710897888 -.70549901716 .746444710881 2.485421064867)" gradientUnits="objectBoundingBox" x1=".889624" x2="2.31153" y1="1.08762" y2="1.08762"><stop offset=".367442" stop-color="#292c31" stop-opacity="0"/><stop offset=".488372" stop-color="#292c31" stop-opacity=".584314"/><stop offset=".623256" stop-color="#6b6c7a" stop-opacity="0"/></linearGradient><radialGradient id="p" cx="153.484" cy="91.905" gradientTransform="matrix(.702293578509 -.711887441654 .711887441654 .702293578509 -19.732661510291 136.62438057791)" gradientUnits="userSpaceOnUse" r="23.7712"><stop offset=".00465116" stop-color="#c0baba" stop-opacity=".360784"/><stop offset=".972093" stop-color="#936b6b" stop-opacity=".258824"/></radialGradient><radialGradient id="q" cx="118.392" cy="134.527" gradientTransform="matrix(.799554622942 -.600593377363 .600593377363 .799554622942 -57.064696515937 98.070922671944)" gradientUnits="userSpaceOnUse" r="26.349"><stop offset=".00465116" stop-color="#f80f0f"/><stop offset=".972093" stop-color="#936b6b"/></radialGradient><g stroke-linejoin="round"><g stroke-width=".2"><path d="m14.6874 119.58 150.7916-44.9033 25.771 83.6823-150.7918 44.903z" fill="url(#a)"/><path d="m40.2298 158.08 14.6105 5.604 21.9277 12.928 27.793-2.394 44.68-13.305 33.454-15.392-1.101 14.356-95.1221 33.303-42.4065 11.722-13.5185-39.414z" fill="url(#b)"/><path d="m38.5733 137.758 2.7368-18.009-7.8545-3.091-16.1064 2.986.8016 16.051z" fill="url(#c)"/></g><path d="m12.5344 117.458 155.1166-46.1907 27.571 89.5297-155.1165 46.19z" fill="none" stroke="url(#e)" stroke-width="7"/><path d="m91.1275 35.0182 146.3885 50.1726-29.135 82.1982-146.3888-50.173z" fill="url(#f)" stroke-width=".2"/><path d="m129.823 46.9047-24.923 29.5237-17.0665 45.5176 19.4325 14.915 38.154 10.783 19.214-39.735 1.95-50.2394z" fill="url(#g)" stroke-width=".2"/><path d="m136.95 45.2194-30.141 44.2461 45.109 21.4225 12.087-7.782.519-47.5187z" fill="url(#h)" stroke-width=".2"/><path d="m88.8249 30.3305 153.0431 52.4534-31.31 88.3321-153.0428-52.453z" fill="none" stroke="url(#i)" stroke-width="7"/><path d="m45.8616 157.725 122.0494-97.0058 54.589 66.6288-122.05 97.006z" fill="url(#l)" stroke="url(#k)" stroke-linecap="round" stroke-width=".2"/><path d="m57.5545 159.544c6.8896 8.409 13.2188 18.251 21.9831 24.756 5.1916 3.853 4.1932 13.136 9.3848 16.989 1.9279 1.431 9.6039 7.606 11.9116 8.313 1.792.549 6.617 8.076 7.012-1.127.024-.578 6.906-2.679 7.489-2.62.584.06-5.73-7.174-5.171-7.003.626.192 11.359-9.524 12.015-9.549.83-.03-4.798 14.811-4.098 14.37 6.731-4.238 9.608-9.489 11.807-10.495 5.358-2.453.747-4.622 6.105-7.076.596-.272 1.269-.393 1.925-.418.83-.031 1.664.431 2.476.255.574-.125.915-.728 1.373-1.091.686-.546 1.373-1.092 2.059-1.637 2.289-1.819 4.577-3.638 6.866-5.457 7.094-5.638 16.518-15.351 23.612-20.99 12.131-9.642 24.383-13.823 32.818-24.973" fill="none" stroke="url(#m)" stroke-linecap="round" stroke-width="25"/><path d="m40.9101 157.215 126.3219-100.4011 59.552 72.6861-126.323 100.401z" fill="none" stroke="url(#n)" stroke-width="7"/><path d="m70.0862 155.209 7.9646-14.665 17.9201-13.409 7.5841 1.473 16.122-9.896 16.109-16.138 4.108-9.5155 16.328-9.6445 11.742-8.4985 7.373-.8592 2.337 8.5603-5.453 6.8345-11.944 10.3267-13.505 3.2322-15.907 14.311-4.588 1.145-7.918 12.128-19.4098 16.26-11.251-4.393-7.8167 11.214-3.2373 5.907-3.0935.375z" fill="url(#o)" stroke-width=".2"/><path d="m170.519 85.5048.328-9.0601-20.141 5.5499-1.717 5.6682.341 9.823-9.185 14.4732 13.27-9.043 16.39-11.1702z" fill="url(#p)" stroke-width=".2"/><path d="m107.089 120.73c10.996-8.74 24.969-9.648 31.213-2.027 6.243 7.619 2.39 20.881-8.606 29.621-10.996 8.739-24.97 9.647-31.2131 2.027-6.2433-7.621-2.3904-20.882 8.6061-29.621z" fill="url(#q)" stroke-linecap="round" stroke-width=".2"/></g></svg>