<svg enable-background="new 0 0 259.20 259.20" height="259.2" viewBox="0 0 259.2 259.2" width="259.2" xmlns="http://www.w3.org/2000/svg" xmlns:xlink="http://www.w3.org/1999/xlink"><linearGradient id="a" gradientTransform="matrix(-.452142113364 .891945911657 -.891945911657 -.452142113364 .938708126842 -.625930534557)" gradientUnits="objectBoundingBox" x1=".661586" x2="1.75959" y1="-.0246745" y2="-.0246745"><stop offset=".00930233" stop-color="#847bf5"/><stop offset="1" stop-color="#94f5c9"/></linearGradient><linearGradient id="b" gradientTransform="matrix(-.545951224804 .837816960997 -.837816960997 -.545951224804 .886797592602 -1.008177470307)" gradientUnits="objectBoundingBox" x1=".716586" x2="2.31461" y1="-.263792" y2="-.263792"><stop offset=".00465116" stop-color="#77e75d"/><stop offset="1" stop-color="#0a7007"/></linearGradient><linearGradient id="c" gradientTransform="matrix(-.379670691067 .925121703531 -.925121703531 -.379670691067 .989342742072 -.50988195929)" gradientUnits="objectBoundingBox" x1=".665619" x2="1.62879" y1=".0767546" y2=".0767546"><stop offset=".00930233" stop-color="#3e4dab"/><stop offset="1" stop-color="#7081bd"/></linearGradient><linearGradient id="d"><stop offset="0" stop-color="#bbd9c2"/><stop offset="1" stop-color="#e0d0d0"/></linearGradient><linearGradient id="e" gradientTransform="matrix(.444386861269 -.895834983427 .895834983427 .444386861269 -.702916150637 .861911089367)" gradientUnits="objectBoundingBox" x1=".343387" x2="1.38676" xlink:href="#d" y1=".997624" y2=".997624"/><linearGradient id="f" gradientTransform="matrix(.487741565366 .872988067166 -.872988067166 .487741565366 .234699360892 -.137719387606)" gradientUnits="objectBoundingBox" x1=".2347" x2="1.14344" y1=".131127" y2=".131127"><stop offset=".0139535" stop-color="#490202"/><stop offset=".367442" stop-color="#f80707"/><stop offset="1" stop-color="#310c05"/></linearGradient><linearGradient id="g" gradientTransform="matrix(.583577495014 .81205745321 -.81205745321 .583577495014 .245012295654 -.210093727361)" gradientUnits="objectBoundingBox" x1=".327356" x2="1.06409" y1=".13385" y2=".13385"><stop offset=".0186047" stop-color="#8a78a1" stop-opacity=".101961"/><stop offset=".372093" stop-color="#e0e3ea" stop-opacity=".815686"/><stop offset="1" stop-color="#050731" stop-opacity=".101961"/></linearGradient><linearGradient id="h" gradientTransform="matrix(-.856907127492 .515470828324 -.515470828324 -.856907127492 1.781181867627 -.075505764938)" gradientUnits="objectBoundingBox" x1=".901071" x2="1.78838" y1=".209472" y2=".209472"><stop offset=".0186047" stop-color="#133ed9" stop-opacity=".611765"/><stop offset=".372093" stop-color="#5a6fa1" stop-opacity=".384314"/><stop offset="1" stop-color="#050731" stop-opacity=".101961"/></linearGradient><linearGradient id="i" gradientTransform="matrix(.81373653273 -.581233907562 .581233907562 .81373653273 -.410020033024 .186453221068)" gradientUnits="objectBoundingBox" x1=".085903" x2="1.03616" xlink:href="#d" y1=".732959" y2=".732959"/><linearGradient id="j"><stop offset="0" stop-color="#bbd9c2" stop-opacity=".662745"/><stop offset="1" stop-color="#e0d0d0" stop-opacity=".662745"/></linearGradient><linearGradient id="k" gradientTransform="matrix(.77978574936 .626046471993 -.626046471993 .77978574936 .134657087829 .001757744834)" gradientUnits="objectBoundingBox" x1=".0648302" x2="1.31243" xlink:href="#j" y1=".192287" y2=".192287"/><linearGradient id="l" gradientTransform="matrix(.814513710208 -.580144306085 .580144306085 .814513710208 -.403717430418 .191433523096)" gradientUnits="objectBoundingBox" x1=".0975139" x2="1.02176" xlink:href="#j" y1=".727069" y2=".727069"/><linearGradient id="m"><stop offset=".00465116" stop-color="#380101"/><stop offset=".311628" stop-color="#150202"/><stop offset=".599998" stop-color="#150101"/><stop offset="1" stop-color="#621616"/></linearGradient><linearGradient id="n" gradientTransform="matrix(-.002106558489 -.999997781203 .999997781203 -.002106558489 -1.031905720404 2.054817764581)" gradientUnits="objectBoundingBox" x1=".509294" x2="2.59392" xlink:href="#m" y1="1.54228" y2="1.54228"/><linearGradient id="o" gradientTransform="matrix(-.002106558489 -.999997781203 .999997781203 -.002106558489 -1.031905720404 2.054817764581)" gradientUnits="objectBoundingBox" x1=".509294" x2="2.59392" y1="1.54228" y2="1.54228"><stop offset=".00465116" stop-color="#723711"/><stop offset=".172093" stop-color="#783a11"/><stop offset=".274419" stop-color="#c75f1c"/><stop offset=".432558" stop-color="#dc691f"/><stop offset=".516279" stop-color="#9c6a60"/><stop offset=".972093" stop-color="#936b6b"/></linearGradient><linearGradient id="p" gradientTransform="matrix(.999953282731 -.009666041376 .009666041376 .999953282731 -.004315566121 .000565348871)" gradientUnits="objectBoundingBox" x1=".0563287" x2="1.05502" xlink:href="#m" y1=".446739" y2=".446739"/><linearGradient id="q" gradientTransform="matrix(-.001962220059 -.999998074844 .999998074844 -.001962220059 -.809744061967 1.828913278247)" gradientUnits="objectBoundingBox" x1=".507792" x2="2.14494" xlink:href="#d" y1="1.31854" y2="1.31854"/><linearGradient id="r" gradientTransform="matrix(-.008130003158 -.999966950978 .999966950978 -.008130003158 -3.438453689121 4.490496232846)" gradientUnits="objectBoundingBox" x1=".507841" x2="7.40969" y1="3.95055" y2="3.95055"><stop offset=".367442" stop-color="#292c31" stop-opacity="0"/><stop offset=".488372" stop-color="#292c31" stop-opacity=".584314"/><stop offset=".623256" stop-color="#6b6c7a" stop-opacity="0"/></linearGradient><radialGradient id="s" cx="174.755" cy="145.63" gradientTransform="matrix(.999783497985 -.020807622578 .020807622578 .999783497985 -2.992375143815 3.667775488545)" gradientUnits="userSpaceOnUse" r="24.0155"><stop offset=".00465116" stop-color="#c0baba" stop-opacity=".360784"/><stop offset=".972093" stop-color="#936b6b" stop-opacity=".258824"/></radialGradient><radialGradient id="t" cx="119.295" cy="157.523" gradientTransform="matrix(.999937064028 -.01121909013 .01121909013 .999937064028 -1.759755352526 1.34829707461)" gradientUnits="userSpaceOnUse" r="26.1303"><stop offset=".00465116" stop-color="#f80f0f"/><stop offset=".972093" stop-color="#936b6b"/></radialGradient><linearGradient id="u" gradientTransform="matrix(-1 0 0 -1 2 1.000004)" gradientUnits="objectBoundingBox" x1="1" x2="2" y1=".500002" y2=".500002"><stop offset="0" stop-color="#293128"/><stop offset=".272524" stop-color="#1d8c19"/><stop offset=".525581" stop-color="#11e70b" stop-opacity=".996078"/><stop offset="1" stop-color="#97bd89"/></linearGradient><g stroke-linejoin="round"><g stroke-width=".2"><path d="m45.3622 78.4555 150.3748 60.1335-32.999 84.523-150.3747-60.133z" fill="url(#a)"/><path d="m41.3323 126.641 8.1853 13.816 9.4012 24.366 23.904 15.788 44.4652 17.781 36.758 8.949-10.05 10.836-97.8408-33.853-41.6242-17.604 14.2766-40.295z" fill="url(#b)"/><path d="m52.9709 109.252 13.7-12.7316-4.3503-7.4897-14.8733-7.8648-9.6011 13.4121z" fill="url(#c)"/></g><path d="m44.9666 76.3403 154.3684 61.7297-34.954 89.532-154.3683-61.73z" fill="none" stroke="url(#e)" stroke-width="7"/><path d="m160.866 60.1659 85.828 133.6221-75.928 47.5-85.828-133.622z" fill="url(#f)" stroke-width=".2"/><path d="m184.432 94.3808-38.912 7.8462-42.796 25.709 6.123 24.373 23.834 32.983 40.835-19.693 33.64-39.138z" fill="url(#g)" stroke-width=".2"/><path d="m191.245 97.5683-52.511 16.3547 22.642 45.967 14.698 1.448 30.752-37.863z" fill="url(#h)" stroke-width=".2"/><path d="m162.005 54.9306 89.729 139.6954-81.594 51.045-89.7295-139.695z" fill="none" stroke="url(#i)" stroke-width="2"/><path d="m155.971 226.458-76.1023-118.48 15.0778-9.4322-50.5219-20.2031-34.95414 89.5313z" fill="#f5f3ed" fill-opacity=".662745" stroke="url(#k)" stroke-width="2"/><path d="m161.553 55.349 89.729 139.695-81.594 51.045-89.7293-139.695z" fill="#f5f3ed" fill-opacity=".662745" stroke="url(#l)" stroke-width="7"/><path d="m46.0934 129.946 157.6826-.184 1.416 88.344-157.6828.184z" fill="url(#o)" stroke="url(#n)" stroke-linecap="round" stroke-width=".2"/><path d="m54.3452 138.86c.1787 11.149-1.0088 23.095 1.895 33.908 1.7201 6.406-5.0096 13.231-3.2895 19.636.6388 2.379 2.8769 12.234 4.2836 14.273 1.0921 1.584.1715 10.709 6.3645 3.563.3883-.448 7.2702 2.248 7.7017 2.668.4316.42-.0337-9.419.3075-8.925.3815.554 15.2245-.417 15.7682-.018.6878.504-13.3175 8.846-12.4715 8.938 8.1236.884 13.7922-1.503 16.2044-.911 5.8799 1.443 3.5525-3.239 9.4329-1.796.654.161 1.272.492 1.816.891.688.504 1.065 1.407 1.831 1.782.541.266 1.201-.001 1.802-.002.901-.001 1.802-.002 2.703-.003 3.003-.004 6.007-.007 9.01-.011 9.311-.011 23.098-1.811 32.409-1.822 15.921-.019 28.455 4.429 42.364.843" fill="none" stroke="url(#p)" stroke-linecap="round" stroke-width="25"/><path d="m42.432 126.381 165.792-.194 1.545 96.375-165.7926.194z" fill="none" stroke="url(#q)" stroke-width="7"/><path d="m67.2012 143.363 15.7737-6.712 22.9871.643 5.165 6.017 19.297 2.321 23.272-2.705 9.38-5.031 19.303 2.655 14.878.652 6.484 4.008-3.582 8.37-8.753 2.019-16.208.688-12.937-6.009-21.941 1.364-4.425-2.002-14.116 4.701-26.0073.7-6.2536-10.702-13.4513 4.032-6.3771 2.685-2.73-1.67z" fill="url(#r)" stroke-width=".2"/><path d="m192.556 151.342 6.047-7.074-19.758-8.375-5.001 3.462-5.996 8.112-16.634 5.78 16.457 1.188 20.326 1.468z" fill="url(#s)" stroke-width=".2"/><path d="m119.002 139.229c14.432-.016 26.261 8.159 26.423 18.263.162 10.103-11.405 18.307-25.837 18.324-14.431.017-26.2612-8.16-26.4232-18.263-.1619-10.103 11.4052-18.307 25.8372-18.324z" fill="url(#t)" stroke-linecap="round" stroke-width=".2"/><path d="m123.146 167.749-1.471-13.609 1.471-13.242 6.62-11.402 9.564-8.459 10.299-3.679 8.459-1.103.736 15.448 2.207 6.989 7.356.735 56.276-50.0228 1.471-5.885-.367-6.6208v-.3677l-5.15-5.5173-51.494-46.7127-4.414-1.1035v.3679l-4.414 1.8391-2.207 3.3103.368 18.3909-12.138 2.2068-13.241 5.5173-12.138 11.77-7.724 17.2876-4.414 22.4369 1.839 29.425 6.253 19.494z" fill="url(#u)" stroke="#000" stroke-width="4"/><path d="m122.962 167.504 6.866 7.234 6.62 5.762 6.253 2.697h3.556l2.084-2.574.368-3.801-1.962-6.253-3.923-4.659-5.395-6.13-5.394-7.724-2.33-7.602-1.348-10.054 1.103-4.291-7.111 10.544-1.226 16.675z" fill="url(#u)" stroke="#000" stroke-width="4"/></g></svg>