<?xml version="1.0" encoding="utf-8"?>
<!DOCTYPE svg PUBLIC "-//W3C//DTD SVG 1.1//EN" "http://www.w3.org/Graphics/SVG/1.1/DTD/svg11.dtd">
<svg x="0" y="0" width="48" height="45.09332" overflow="hidden" viewBox="0, 0, 194.7258, 182.934" preserveAspectRatio="xMidYMid" font-size="0" id="svg" xml:space="default" xmlns="http://www.w3.org/2000/svg" xmlns:xlink="http://www.w3.org/1999/xlink" xmlns:xml="http://www.w3.org/XML/1998/namespace" version="1.1">
  <defs id="def1" xml:space="default">
    <path d="M143.1032 178.0862 C143.1032 178.0862 213.7383 179.2094 240.1129 176.4037 C265.7684 173.6745 264.9618 177.9628 264.9618 177.9628 C242.2726 205.9211 272.6544 238.7677 245.7675 258.1249 C245.7675 258.1249 244.1776 257.8745 241.3619 257.4797 C240.3681 257.3404 238.718 266.205 239.7183 280.7938 C240.0298 285.3373 242.9399 291.1168 243.8749 296.6152 C244.9091 302.6968 244.0653 308.4944 246.4984 313.2157 C249.2439 318.5433 236.6183 313.5891 236.2769 315.2532 C234.8401 322.2578 235.82 310.993 235.3879 298.4997 C235.1587 291.8743 232.231 283.5645 231.7892 278.7896 C231.1478 271.857 233.1858 262.0795 231.1929 257.2012 C230.5757 255.6902 231.6371 255.504 229.8452 255.2978 C216.6575 253.7801 194.8512 252.5296 177.6218 252.5323 C169.6591 252.5336 161.872 252.9717 154.8215 253.5567 C153.9222 253.6313 146.1778 261.2802 146.6361 272.4749 C147.0041 281.4642 146.704 297.882 149.2916 305.859 C150.7596 310.3842 134.7486 308.5597 136.2108 306.1154 C136.7105 305.2801 139.3645 300.5963 139.4424 298.7274 C139.7355 291.6894 137.677 278.9948 138.0825 273.236 C138.8122 262.8728 143.7845 253.8141 142.4586 253.9667 C132.3111 255.1343 123.358 257.14 124.6927 255.9396 C130.3048 250.8924 136.6747 236.9301 132.6807 218.8851 C128.8901 201.759 142.3015 178.0862 143.1032 178.0862 z" stroke="#000000" fill-rule="evenOdd" stroke-width="0.7257855px" id="path2887" xml:space="default" style="fill:#800080;" />
    <linearGradient x1="155.385" y1="376.4137" x2="155.385" y2="379.0746" gradientUnits="userSpaceOnUse" xlink:href="#linearGradient2990" gradientTransform="matrix(0.730222, -0.05467669, 0.05536994, 0.72108, 106.4129, 32.84594)" id="linearGradient3032" xml:space="default" />
    <linearGradient x1="156.0798" y1="388.8998" x2="156.2052" y2="391.2669" gradientUnits="userSpaceOnUse" xlink:href="#linearGradient2972" gradientTransform="matrix(0.69906, -0.01654257, 0.04490954, 0.635001, 17.92995, 52.61541)" id="linearGradient2978" xml:space="default" />
    <linearGradient x1="0%" y1="0%" x2="100%" y2="0%" gradientUnits="objectBoundingBox" id="linearGradient2990" xml:space="default">
      <stop offset="0%" stop-color="#000000" stop-opacity="1" id="stop2992" xml:space="default" />
      <stop offset="100%" stop-color="#000000" stop-opacity="0" id="stop2994" xml:space="default" />
    </linearGradient>
    <linearGradient x1="155.385" y1="376.4137" x2="155.385" y2="379.0746" gradientUnits="userSpaceOnUse" xlink:href="#linearGradient2990" gradientTransform="matrix(0.69906, -0.01654257, 0.04490954, 0.635001, 17.92994, 52.6154)" id="linearGradient2996" xml:space="default" />
    <linearGradient x1="0%" y1="0%" x2="100%" y2="0%" gradientUnits="objectBoundingBox" id="linearGradient2972" xml:space="default">
      <stop offset="0%" stop-color="#F2F2F2" stop-opacity="1" id="stop2974" xml:space="default" />
      <stop offset="100%" stop-color="#F2F2F2" stop-opacity="0" id="stop2976" xml:space="default" />
    </linearGradient>
    <linearGradient x1="156.0798" y1="388.8998" x2="156.2052" y2="391.2669" gradientUnits="userSpaceOnUse" xlink:href="#linearGradient2972" gradientTransform="matrix(0.730222, -0.05467669, 0.05536994, 0.721079, 106.4129, 32.84591)" id="linearGradient3030" xml:space="default" />
    <linearGradient x1="156.2692" y1="367.5579" x2="156.3946" y2="369.5463" gradientUnits="userSpaceOnUse" xlink:href="#linearGradient2980" gradientTransform="matrix(0.730222, -0.05467669, 0.05536994, 0.721079, 106.4129, 32.84591)" id="linearGradient3028" xml:space="default" />
    <linearGradient x1="0%" y1="0%" x2="100%" y2="0%" gradientUnits="objectBoundingBox" id="linearGradient2980" xml:space="default">
      <stop offset="0%" stop-color="#ECECEC" stop-opacity="1" id="stop2982" xml:space="default" />
      <stop offset="100%" stop-color="#ECECEC" stop-opacity="0" id="stop2984" xml:space="default" />
    </linearGradient>
    <linearGradient x1="156.2692" y1="367.5579" x2="156.3946" y2="369.5463" gradientUnits="userSpaceOnUse" xlink:href="#linearGradient2980" gradientTransform="matrix(0.69906, -0.01654257, 0.04490954, 0.635001, 17.92995, 52.61541)" id="linearGradient2986" xml:space="default" />
    <linearGradient x1="155.385" y1="376.4137" x2="155.385" y2="379.0746" gradientUnits="userSpaceOnUse" xlink:href="#linearGradient2990" gradientTransform="matrix(0.6689242, -0.05657616, 0.05072197, 0.7461303, 133.0275, -5.494562)" id="linearGradient2205" xml:space="default" />
    <linearGradient x1="156.0798" y1="388.8998" x2="156.2052" y2="391.2669" gradientUnits="userSpaceOnUse" xlink:href="#linearGradient2972" gradientTransform="matrix(0.6403781, -0.01711726, 0.04113965, 0.6570609, 51.9722, 14.9617)" id="linearGradient2209" xml:space="default" />
    <linearGradient x1="155.385" y1="376.4137" x2="155.385" y2="379.0746" gradientUnits="userSpaceOnUse" xlink:href="#linearGradient2990" gradientTransform="matrix(0.6403781, -0.01711726, 0.04113965, 0.6570609, 51.97219, 14.96169)" id="linearGradient2213" xml:space="default" />
    <linearGradient x1="156.0798" y1="388.8998" x2="156.2052" y2="391.2669" gradientUnits="userSpaceOnUse" xlink:href="#linearGradient2972" gradientTransform="matrix(0.6689242, -0.05657616, 0.05072197, 0.7461293, 133.0275, -5.494593)" id="linearGradient2218" xml:space="default" />
    <linearGradient x1="156.2692" y1="367.5579" x2="156.3946" y2="369.5463" gradientUnits="userSpaceOnUse" xlink:href="#linearGradient2980" gradientTransform="matrix(0.6689242, -0.05657616, 0.05072197, 0.7461293, 133.0275, -5.494593)" id="linearGradient2221" xml:space="default" />
    <linearGradient x1="156.2692" y1="367.5579" x2="156.3946" y2="369.5463" gradientUnits="userSpaceOnUse" xlink:href="#linearGradient2980" gradientTransform="matrix(0.6403781, -0.01711726, 0.04113965, 0.6570609, 51.9722, 14.9617)" id="linearGradient2226" xml:space="default" />
  </defs>
  <g transform="translate(-146.0706, -132.9001)" id="layer1" xml:space="default">
    <g id="g2237" xml:space="default">
      <path d="M313.2614 159.8992 C313.2614 159.8992 329.9439 133.2961 334.8505 165.9957 C339.7571 198.6953 326.5093 231.9492 325.528 234.1661 C324.5467 236.383 305.9016 249.6846 321.6027 277.3961 C337.3038 305.1076 332.3972 303.9992 332.3972 303.9992 L327.4906 303.4449 L325.528 307.8788 L319.64 294.023 L311.7895 230.8407 C311.7895 230.8407 318.1681 227.5153 322.584 211.4426 C331.6508 177.9361 326.826 161.1974 324.056 153.8026 L317.1867 147.7061 L308.8455 145.4892 C308.8455 145.4892 300.0136 146.5976 297.0696 154.3568 C294.1257 162.1161 301.9763 166.5499 303.9389 165.9957 C305.9016 165.4415 314.2428 159.8992 313.2614 159.8992 z" stroke="#000000" fill-rule="evenOdd" stroke-width="0.9735912px" id="path3042" xml:space="default" nodetypes="cssscccccccccssc" style="fill:#000080;" />
      <path d="M275.218 142.0644 C275.218 142.0644 296.4732 156.1387 305.2685 151.1713 C314.0638 146.2039 313.3308 151.9992 313.3308 151.9992 C313.3308 151.9992 316.9955 275.3559 319.1943 287.7743 C321.3931 300.1928 317.7284 305.1602 317.7284 305.1602 C317.7284 305.1602 284.0133 303.5044 282.5474 310.1275 C281.0815 316.7507 271.5533 286.9464 271.5533 283.6348 C271.5533 280.3232 264.9569 195.0499 264.9569 195.0499 L275.218 142.0644 z" stroke="#000000" fill-rule="evenOdd" stroke-width="0.9735912px" id="path2885" xml:space="default" style="fill:#0000FF;" />
      <path d="M168.942 148.6876 C168.942 148.6876 232.5413 154.0001 257.6275 145.376 C274.4851 139.5807 278.1498 143.7202 278.1498 143.7202 C278.1498 143.7202 262.7581 239.7563 273.7522 263.7653 C284.7462 287.7743 281.8145 310.9554 281.8145 310.9554 C281.8145 310.9554 160.1468 313.4391 165.2774 303.5044 C170.4079 293.5696 156.4821 262.9374 159.4139 228.9936 C162.3456 195.0499 168.2091 148.6876 168.942 148.6876 z" stroke="#000000" fill-rule="evenOdd" stroke-width="0.9735912px" id="path2883" xml:space="default" nodetypes="cscscssc" style="fill:#FF00FF;" />
      <path d="M237.4001 245.2186 L246.6335 247.1218 L245.1297 292.2896 L240.77 288.6022 L237.4001 245.2186 z" stroke="#000000" fill-rule="evenOdd" stroke-width="0.9735912px" id="path2891" xml:space="default" nodetypes="ccccc" style="fill:#AA0000;" />
      <path d="M280.6434 252.8407 C289.0453 253.4573 295.4757 253.6467 298.6652 252.7275 C306.0327 250.6042 308.6073 251.432 313.5877 249.1702 C314.9429 248.5548 314.7967 253.8305 314.7967 253.8305 L314.7967 292.7417 C314.7967 292.7417 314.736 295.2429 310.8569 296.8003 C304.3937 299.3952 292.3501 300.9166 289.1439 295.2254 C284.0133 286.1185 283.5752 262.7755 280.6434 252.8407 z" stroke="#000000" fill-rule="evenOdd" stroke-width="0.9735912px" id="path2893" xml:space="default" nodetypes="cssccssc" style="fill:none;" />
      <path d="M281.4258 257.2835 C302.4736 258.8075 310.9347 263.4408 314.7227 266.4306 C316.6155 267.9245 314.9012 271.0705 314.9012 271.0705 C314.9012 271.0705 284.1685 262.2108 282.5278 264.0533 C281.7254 264.9543 282.74 266.3814 283.0427 267.7349 C283.3357 269.0446 282.8896 270.2945 283.7563 270.3876 C285.5025 270.5752 312.6452 272.0437 314.0897 277.8403 C315.5341 283.6368 315.5341 282.8087 315.5341 282.8087 C315.5341 282.8087 285.5579 271.1729 284.8357 277.7975 C284.1135 284.4221 289.6461 283.5345 289.6461 283.5345 C289.6461 283.5345 316.2563 282.8087 314.8119 290.2614 C314.1559 293.6458 311.9429 290.6048 305.9907 289.7623 C298.836 288.7495 287.7992 289.4929 287.7992 289.4929 L288.0897 291.0895 L287.5833 288.7672" stroke="#000000" fill-rule="evenOdd" stroke-width="0.9665525px" id="path2895" xml:space="default" nodetypes="csczszscscssccc" style="fill:none;" />
      <path d="M291.7598 297.3788 C311.7774 290.4679 311.833 287.4003 314.8973 283.5109 C316.4284 281.5675 315.1773 273.8655 315.1773 273.8655 C315.1773 273.8655 289.1913 291.8712 287.2421 290.4991 C286.2889 289.8282 285.0584 286.725 285.0823 285.3284 C285.1055 283.9768 284.8124 284.1801 285.6307 283.866 C287.2793 283.233 312.8065 273.4989 313.0517 267.4792 C313.2969 261.4594 314.7458 262.4113 314.7458 262.4113 C314.7458 262.4113 286.8288 281.3304 284.8182 275.0625 C282.8075 268.7945 288.3247 268.233 288.3247 268.233 C288.3247 268.233 317.2415 262.2251 314.3694 255.3366 C313.0652 252.2083 308.4484 255.5966 302.8692 257.9518 C296.1627 260.783 282.4056 261.7431 282.4056 261.7431 L285.3242 261.2736 L285.2958 263.6667" stroke="#000000" fill-rule="evenOdd" stroke-width="0.9625219px" id="path2897" xml:space="default" nodetypes="csczszscscssccc" style="fill:none;" />
      <path d="M157.9597 254.2223 L158.1528 257.3065 C158.1528 257.3065 158.8908 269.9067 159.2304 269.8469 C159.7084 269.7628 161.5473 271.1579 161.2561 269.9301 C160.6165 267.2337 160.1825 257.9609 160.6647 256.9489 C161.0501 256.1404 165.9423 256.2181 166.803 256.1511 C168.9991 255.98 171.1881 255.9344 172.8073 255.9308 C173.118 255.9301 173.8129 269.1939 174.0777 269.1958 C174.3359 269.1976 176.0562 269.9627 176.0276 268.7628 C175.9277 264.6613 175.3981 255.9629 175.3981 255.9629 L175.2188 253.099 C175.2188 253.099 174.3933 252.7341 169.9069 253.0195 C165.3778 253.306 157.9597 254.2223 157.9597 254.2223 z" stroke="#000000" stroke-width="0.2010998" id="path2910" xml:space="default" nodetypes="ccssszssscczc" style="fill:#B3B3B3;" />
      <path d="M158.0833 254.2572 L158.1474 257.2202 C158.1474 257.2202 162.7461 255.796 167.0574 255.4601 C171.3688 255.1242 175.3927 255.8766 175.3927 255.8766 L175.2134 253.0127 C175.2134 253.0127 172.5975 252.9526 169.7179 253.2102 C168.8345 253.2892 167.9263 253.3982 167.0612 253.5479 C165.5638 253.8071 163.8017 253.6942 162.2863 253.9404 C160.4893 254.2323 158.0833 254.2572 158.0833 254.2572 z" stroke-width="0.3097614" id="path2944" xml:space="default" nodetypes="cczccszsc" style="fill:url(#linearGradient2226);" />
      <path d="M247.6004 275.798 L247.8385 279.3003 C247.8385 279.3003 252.2505 279.3153 256.7514 278.6831 C261.2524 278.0508 265.8423 276.7712 265.8423 276.7712 L265.6212 273.519 C265.6212 273.519 261.7783 274.5065 257.2731 275.0762 C252.7679 275.6459 247.6004 275.798 247.6004 275.798 z" stroke="#000000" stroke-width="0.2194663" id="path3018" xml:space="default" nodetypes="cczcczc" style="fill:#B3B3B3;" />
      <path d="M246.5897 260.9301 L246.8278 264.4324 C246.8278 264.4324 247.7473 278.7435 248.1015 278.6557 C248.6 278.5322 250.5378 280.0151 250.2191 278.6332 C249.5191 275.5986 248.9564 265.0603 249.4483 263.8795 C249.8415 262.9362 254.9543 262.7415 255.8528 262.6153 C258.1454 262.2932 260.4321 262.1145 262.1241 262.0167 C262.4486 261.9979 263.331 277.0676 263.6076 277.0544 C263.8775 277.0414 265.6839 277.8135 265.64 276.4483 C265.4873 271.7817 264.8316 261.9033 264.8316 261.9033 L264.6105 258.6512 C264.6105 258.6512 263.7435 258.2832 259.0592 258.8681 C254.3301 259.4568 246.5897 260.9301 246.5897 260.9301 z" stroke="#000000" stroke-width="0.2194663" id="path3016" xml:space="default" nodetypes="ccssszssscczc" style="fill:#B3B3B3;" />
      <path d="M246.7193 260.9627 L246.8212 264.3344 C246.8212 264.3344 251.6096 262.4457 256.1105 261.8134 C260.6115 261.1811 264.8249 261.8053 264.8249 261.8053 L264.6038 258.5531 C264.6038 258.5531 261.8697 258.6361 258.8639 259.0963 C257.9418 259.2375 256.9941 259.4142 256.0919 259.6349 C254.5303 260.0169 252.6878 259.9902 251.1073 260.3584 C249.2331 260.795 246.7193 260.9627 246.7193 260.9627 z" stroke-width="0.3097614" id="path3022" xml:space="default" nodetypes="cczccszsc" style="fill:url(#linearGradient2221);" />
      <path d="M247.8241 276.2765 L247.9316 278.7951 C247.9316 278.7951 252.1684 279.1149 256.8541 278.3191 C261.4721 277.5348 265.6234 276.3634 265.6234 276.3634 L265.46 273.959 C265.46 273.959 261.6757 274.8704 257.1705 275.4402 C252.6653 276.0099 247.8241 276.2765 247.8241 276.2765 z" stroke-width="0.3097614" id="path3024" xml:space="default" nodetypes="cczcczc" style="fill:url(#linearGradient2218);" />
      <path d="M166.6379 144.7913 C166.6379 144.7913 231.3436 145.9536 255.5043 143.0504 C279.0061 140.2264 278.2672 144.6637 278.2672 144.6637 C257.4827 173.5933 285.3141 207.581 260.6842 227.6106 C260.6842 227.6106 259.2277 227.3515 256.6483 226.943 C255.738 226.7988 254.2265 235.9713 255.1428 251.067 C255.4281 255.7684 258.0939 261.7486 258.9504 267.438 C259.8978 273.7309 259.1248 279.7299 261.3537 284.6153 C263.8687 290.1279 252.3029 285.0016 251.9902 286.7235 C250.674 293.9715 251.5717 282.3153 251.1758 269.388 C250.9659 262.5325 248.2839 253.9339 247.8793 248.9932 C247.2917 241.8198 249.1586 231.7025 247.333 226.6548 C246.7676 225.0913 247.7399 224.8987 246.0984 224.6853 C234.0177 223.1148 214.0419 221.8209 198.2589 221.8237 C190.9646 221.825 183.8312 222.2783 177.3726 222.8837 C176.5487 222.9609 169.4544 230.8755 169.8742 242.4591 C170.2113 251.7607 169.9364 268.7489 172.3068 277.003 C173.6516 281.6854 158.9846 279.7975 160.3241 277.2683 C160.7818 276.404 163.2131 271.5575 163.2844 269.6236 C163.5529 262.3411 161.6672 249.2056 162.0387 243.2466 C162.7071 232.5234 167.2621 223.15 166.0475 223.3079 C156.7518 224.5161 148.5502 226.5915 149.7729 225.3494 C154.9139 220.1268 160.749 205.6795 157.0903 187.0076 C153.6179 169.2865 165.9035 144.7913 166.6379 144.7913 z" stroke="#000000" fill-rule="evenOdd" stroke-width="0.7066184px" id="path5092" xml:space="default" nodetypes="csccsssssssssssssssssssc" style="fill:#800080;" />
      <path d="M158.371 260.7929 L158.5641 263.8771 C158.5641 263.8771 163.1334 262.9523 167.4448 262.6164 C171.7561 262.2805 175.8096 262.5335 175.8096 262.5335 L175.6302 259.6696 C175.6302 259.6696 171.5836 259.4934 167.2688 259.7742 C162.954 260.0551 158.371 260.7929 158.371 260.7929 z" stroke="#000000" stroke-width="0.2010998" id="path2932" xml:space="default" nodetypes="cczcczc" style="fill:#CCCCCC;" />
      <path d="M158.371 260.7929 L158.5641 263.8771 C158.5641 263.8771 163.1334 262.9523 167.4448 262.6164 C171.7561 262.2805 175.8096 262.5335 175.8096 262.5335 L175.6302 259.6696 C175.6302 259.6696 171.5836 259.4934 167.2688 259.7742 C162.954 260.0551 158.371 260.7929 158.371 260.7929 z" stroke="#000000" stroke-width="0.2010998" id="path2988" xml:space="default" nodetypes="cczcczc" style="fill:url(#linearGradient2213);" />
      <path d="M158.7794 267.3154 L158.9725 270.3996 C158.9725 270.3996 163.1924 270.6273 167.5037 270.2914 C171.8151 269.9555 176.2179 269.056 176.2179 269.056 L176.0386 266.192 C176.0386 266.192 172.3532 266.8715 168.0383 267.1524 C163.7236 267.4332 158.7794 267.3154 158.7794 267.3154 z" stroke="#000000" stroke-width="0.2010998" id="path2928" xml:space="default" nodetypes="cczcczc" style="fill:#B3B3B3;" />
      <path d="M158.9886 267.746 L159.0665 269.9609 C159.0665 269.9609 163.1158 270.4474 167.6055 269.9771 C172.0303 269.5135 176.0126 268.6875 176.0126 268.6875 L175.8801 266.5702 C175.8801 266.5702 172.2514 267.1858 167.9366 267.4667 C163.6218 267.7475 158.9886 267.746 158.9886 267.746 z" stroke-width="0.3097614" id="path2962" xml:space="default" nodetypes="cczcczc" style="fill:url(#linearGradient2209);" />
      <path d="M247.097 268.3914 L247.335 271.8937 C247.335 271.8937 252.0986 270.5756 256.5995 269.9433 C261.1004 269.311 265.3388 269.3646 265.3388 269.3646 L265.1177 266.1124 C265.1177 266.1124 260.8874 266.146 256.3822 266.7157 C251.877 267.2855 247.097 268.3914 247.097 268.3914 z" stroke="#000000" stroke-width="0.2194663" id="path3020" xml:space="default" nodetypes="cczcczc" style="fill:#CCCCCC;" />
      <path d="M247.097 268.3914 L247.335 271.8937 C247.335 271.8937 252.0986 270.5756 256.5995 269.9433 C261.1004 269.311 265.3388 269.3646 265.3388 269.3646 L265.1177 266.1124 C265.1177 266.1124 260.8874 266.146 256.3822 266.7157 C251.877 267.2855 247.097 268.3914 247.097 268.3914 z" stroke="#000000" stroke-width="0.2194663" id="path3026" xml:space="default" nodetypes="cczcczc" style="fill:url(#linearGradient2205);" />
      <path d="M172.6067 245.5516 C166.7788 240.9861 181.402 291.0859 181.402 291.0859 C181.402 291.0859 216.7237 295.3794 232.7077 294.3975 C242.7037 293.7834 244.4346 292.7417 244.4346 292.7417 L238.5712 245.5516 C238.5712 245.5516 179.2746 250.7749 172.6067 245.5516 z" stroke="#000000" fill-rule="evenOdd" stroke-width="0.9735912px" id="path2889" xml:space="default" nodetypes="ccsccz" style="fill:#FF0000;" />
      <path d="M144.8717 178.1335 L144.8864 176.4397 L147.9225 176.4662 L148.1005 156.0129 L145.0644 155.9865 L145.0793 154.2767 L164.2862 154.4438 L164.2401 159.7489 L162.2746 159.7318 L162.3037 156.3922 L151.342 156.2968 L151.2725 164.2863 L159.0863 164.3544 L159.1123 161.3663 L161.0777 161.3834 L161.0087 169.309 L159.0433 169.2919 L159.0693 166.3038 L151.2555 166.2358 L151.1686 176.2228 L162.3859 176.3204 L162.415 172.9807 L164.3804 172.9979 L164.3343 178.3029 L144.8717 178.1335 M168.8083 178.3227 L168.8053 176.6288 L171.8414 176.6233 L171.8045 156.1693 L168.7684 156.1748 L168.7653 154.4649 L188.2925 154.4297 L188.3021 159.735 L186.3366 159.7385 L186.3306 156.3987 L175.0489 156.4191 L175.0633 164.409 L183.213 164.3943 L183.2076 161.4061 L185.1731 161.4025 L185.1874 169.3284 L183.2219 169.332 L183.2165 166.3438 L175.0668 166.3585 L175.0853 176.6175 L178.9045 176.6106 L178.9075 178.3044 L168.8083 178.3227 M210.3537 161.2275 C209.9457 159.2423 209.1422 157.7861 207.9431 156.859 C206.7438 155.9213 205.0897 155.4711 202.9807 155.5083 C200.2326 155.5569 198.1978 156.4772 196.8763 158.2692 C195.5549 160.0613 194.9257 162.7468 194.989 166.3257 C195.0509 169.83 195.7954 172.4699 197.2226 174.2454 C198.6497 176.0208 200.716 176.8846 203.4216 176.8368 C204.6252 176.8156 205.7729 176.6461 206.8647 176.3285 C207.9565 176.0108 208.9925 175.545 209.9725 174.931 L209.8639 168.7798 L205.3743 168.8591 L205.344 167.1496 L213.077 167.0129 L213.2343 175.9123 C211.8321 176.7575 210.3145 177.4023 208.6816 177.8466 C207.059 178.2802 205.3158 178.5134 203.4518 178.5464 C199.8515 178.61 196.9451 177.5373 194.7325 175.3282 C192.5303 173.1083 191.3962 170.129 191.3302 166.3903 C191.2635 162.6197 192.2969 159.5968 194.4303 157.3216 C196.5635 155.0357 199.4675 153.8603 203.1422 153.7954 C204.5056 153.7713 205.9144 153.9062 207.3687 154.2001 C208.8334 154.4833 210.3916 154.9299 212.0432 155.54 L212.1432 161.1959 L210.3537 161.2275 M217.6556 177.9699 L217.549 176.2794 L220.5792 176.0884 L219.2923 155.6748 L216.2622 155.8658 L216.1546 154.1594 L225.4524 153.5733 L225.5599 155.2797 L222.5298 155.4707 L223.0486 163.7 L235.3924 162.9218 L234.8736 154.6926 L231.8435 154.8836 L231.7359 153.1772 L241.0336 152.591 L241.1412 154.2975 L238.1111 154.4885 L239.3979 174.9021 L242.4281 174.7111 L242.5346 176.4016 L233.2369 176.9877 L233.1303 175.2972 L236.1605 175.1062 L235.515 164.8675 L223.1712 165.6456 L223.8166 175.8843 L226.8468 175.6933 L226.9533 177.3838 L217.6556 177.9699" stroke-width="1px" font-family="Luxi Serif" font-size="32.72653px" font-style="normal" font-weight="400" transform="matrix(0.916056, 0, 0, 1.03474, 42.22764, -0.591788)" id="text2903" xml:space="default" style="fill:#FF0000;" />
    </g>
  </g>
</svg>