<svg enable-background="new 0 0 50.00 50.00" height="50" viewBox="0 0 50 50" width="50" xmlns="http://www.w3.org/2000/svg" xmlns:xlink="http://www.w3.org/1999/xlink"><radialGradient id="a" cx="25" cy="25" gradientUnits="userSpaceOnUse" r="24"><stop offset="0" stop-color="#dbd7fc"/><stop offset=".991379" stop-color="#000eff"/></radialGradient><radialGradient id="b" cx="25" cy="-6.03449" gradientUnits="userSpaceOnUse" r="40"><stop offset="0" stop-color="#fff" stop-opacity=".486275"/><stop offset=".271552" stop-color="#fff1f1" stop-opacity=".486275"/><stop offset="1" stop-color="#0700ff" stop-opacity=".486275"/></radialGradient><radialGradient id="c" cx="25" cy="12.5862" gradientTransform="matrix(-1 0 0 -1 50.000038 25.172382)" gradientUnits="userSpaceOnUse" r="40"><stop offset=".116379" stop-color="#fff" stop-opacity="0"/><stop offset="1" stop-color="#fff" stop-opacity=".513725"/></radialGradient><g stroke-linejoin="round"><ellipse cx="25" cy="25" fill="url(#a)" rx="22.5" ry="22.5" stroke="#000" stroke-width="2"/><g stroke-width=".2"><ellipse cx="25" cy="25" fill="url(#b)" rx="20" ry="20"/><ellipse cx="25" cy="25" fill="url(#c)" rx="20" ry="20"/><path d="m29.0187 13.4208c0 .5167-.0979.9792-.2937 1.3875-.1958.4084-.4594.7615-.7906 1.0594-.3313.2979-.7219.526-1.1719.6844-.45.1583-.9354.2375-1.4563.2375-.4958 0-.9552-.0761-1.3781-.2282-.4229-.152-.7875-.3635-1.0937-.6343-.3063-.2709-.5469-.5906-.7219-.9594-.175-.3687-.2625-.7719-.2625-1.2094 0-.5166.0948-.9791.2844-1.3875.1895-.4083.45-.7614.7812-1.0594.3313-.2979.725-.526 1.1813-.6843.4562-.1584.951-.2375 1.4843-.2375.4959 0 .9521.076 1.3688.2281s.7781.3635 1.0844.6344c.3062.2708.5468.5906.7218.9594.175.3687.2625.7718.2625 1.2093zm-2.0312 26.4c-.2333.0667-.5031.1323-.8094.1969-.3062.0646-.6323.126-.9781.1844-.3458.0583-.7042.1041-1.075.1375-.3708.0333-.7375.05-1.1.05-.875 0-1.6219-.1136-2.2406-.3406-.6188-.2271-1.1292-.5459-1.5313-.9563s-.6979-.899-.8875-1.4656c-.1896-.5667-.2844-1.1896-.2844-1.8688 0-.2875.0167-.6073.05-.9593.0334-.3521.0761-.7198.1282-1.1032.052-.3833.1135-.7739.1843-1.1719.0709-.3979.1459-.7781.225-1.1406.05-.2208.1375-.6281.2625-1.2218.125-.5938.2688-1.275.4313-2.0438.1625-.7687.3344-1.5792.5156-2.4313.1813-.852.3531-1.6624.5156-2.4312.1625-.7687.3063-1.45.4313-2.0437.125-.5938.2125-1.0011.2625-1.2219h6.25l-2.3813 11.2625c-.1041.4541-.2145.9646-.3312 1.5312-.1167.5667-.175 1.0584-.175 1.475 0 .4959.1562.8417.4687 1.0375.3125.1959.6709.2938 1.075.2938.3375 0 .6782-.0365 1.0219-.1094.3438-.0729.6594-.1677.9469-.2844-.1667.7834-.3281 1.5552-.4844 2.3157-.1562.7604-.3198 1.5302-.4906 2.3093z" fill="#fff"/></g></g></svg>