<svg enable-background="new 0 0 220.00 220.00" height="220" viewBox="0 0 220 220" width="220" xmlns="http://www.w3.org/2000/svg" xmlns:xlink="http://www.w3.org/1999/xlink"><filter id="a" filterUnits="userSpaceOnUse"><feGaussianBlur stdDeviation="1.88976"/></filter><linearGradient id="b" gradientTransform="matrix(.296907171134 .954906347099 -.954906347099 .296907171134 -.084017933741 -.657188945114)" gradientUnits="objectBoundingBox" x1=".404272" x2="2.18571" y1="-.385649" y2="-.385649"><stop offset="0" stop-color="#5b5b5b"/><stop offset=".275862" stop-color="#656565" stop-opacity=".996078"/><stop offset=".383621" stop-color="#f7f7f7"/><stop offset=".396552" stop-color="#fefefe" stop-opacity=".0666667"/><stop offset="1" stop-color="#fff" stop-opacity="0"/></linearGradient><g stroke-linejoin="round"><g fill="#fff"><path d="m22.5968 84.7583c0 18.3797-.1667 53.7147.0416 71.8427.2084 18.128.7919 19.049 1.7921 20.138 1.0002 1.088 2.4171 2.344 4.0425 3.265 1.6253.921 3.459 1.507 10.6688.544 7.2099-.962 19.7958-3.474 35.3824-6.991 15.5865-3.517 34.1738-8.038 53.4698-12.602 19.295-4.563 39.299-9.169 50.343-11.848 11.044-2.68 13.128-3.433 14.462-3.936 1.333-.502 1.917-.753 2.458-1.423.542-.67 1.042-1.758 1.209-18.714s0-49.7793-.167-66.4002c-.166-16.621-.333-17.0398-2.042-18.3794-1.708-1.3397-4.959-3.6004-7.21-5.1914-2.25-1.591-3.5-2.5121-5.542-3.0561-2.043-.5443-4.876-.7118-9.211-.2932-4.334.4187-10.168 1.4235-29.089 4.8983-18.921 3.4749-50.9272 9.4199-72.1399 13.4391s-31.6315 6.1125-37.9662 8.0384c-6.3346 1.9258-8.5851 3.6842-9.6269 5.275-1.0419 1.5911-.8752 3.0146-.8752 21.3938z" stroke-width=".2"/><path d="m26.5272 88.302c0 16.446-.1576 48.063.0394 64.283.197 16.221.7486 17.045 1.6942 18.019s2.2852 2.098 3.8218 2.922 3.2702 1.349 10.0864.487c6.8162-.861 18.7149-3.109 33.4505-6.256 14.7356-3.146 32.3075-7.192 50.5505-11.276 18.242-4.083 37.154-8.204 47.595-10.601 10.441-2.398 12.411-3.072 13.671-3.521 1.261-.45 1.813-.675 2.325-1.274s.985-1.573 1.143-16.745c.157-15.172 0-44.5416-.158-59.4137-.158-14.8723-.315-15.2468-1.931-16.4456-1.615-1.1988-4.688-3.2216-6.816-4.6452-2.127-1.4236-3.309-2.2476-5.24-2.7346s-4.61-.6369-8.707-.2622c-4.098.3745-9.614 1.2736-27.501 4.3828-17.888 3.1093-48.1471 8.4289-68.2017 12.0251-20.0545 3.5963-29.9045 5.4694-35.8933 7.1925-5.9888 1.7233-8.1164 3.2968-9.1014 4.7202-.985 1.4235-.8274 2.6973-.8274 19.1427z" fill-opacity=".517647" filter="url(#a)" stroke="#7a7777" stroke-opacity=".517647" stroke-width="15"/><path d="m67.5425 159.703c8.6286-9.628 27.8558-28.883 38.7695-40.009 10.914-11.125 13.514-14.122 17.218-15.995 3.703-1.874 8.51-2.623 12.962-2.023 4.453.599 8.55 2.547 17.021 8.166s21.315 14.91 28.013 20.304c6.698 5.395 7.25 6.893 7.526 8.017s.276 1.873-.355 2.735c-.63.861-1.891 1.835-21.591 6.405-19.7 4.571-57.839 12.737-78.2875 17.008-20.4486 4.27-23.2066 4.645-25.5706 4.832-2.364.188-4.3339.188 4.2946-9.44z" fill-opacity=".517647" filter="url(#a)" stroke="#7a7777" stroke-opacity=".517647" stroke-width="15"/><path d="m30.1914 70.0959c1.2214 1.2362 5.713 1.9105 9.1014 2.8844 3.3884.9741 5.6736 2.2478 8.7074 3.7836 3.0338 1.5359 6.8162 3.334 16.7449 8.2415 9.9288 4.9075 26.004 12.9241 36.9179 18.4686 10.914 5.544 16.666 8.616 20.961 10.864 4.294 2.247 7.131 3.671 9.692 4.27 2.561.6 4.846.375 7.053.187 2.206-.187 4.334-.337 6.185-1.198 1.852-.862 3.428-2.435 4.925-4.458 1.498-2.023 2.916-4.496 8.432-14.273 5.516-9.7773 15.129-26.8596 20.173-36.7495 5.043-9.8897 5.516-12.5869 5.437-14.4225s-.709-2.8096-1.931-3.9335c-1.221-1.1238-3.034-2.3974-6.107-3.0343-3.073-.6368-7.407-.6368-29.904 3.1093-22.498 3.7462-63.1583 11.2384-85.1041 15.4341-21.9457 4.1955-25.1765 5.0947-27.8163 6.4433-2.6398 1.3487-4.6886 3.1467-3.4672 4.383z" fill-opacity=".517647" filter="url(#a)" stroke="#7a7777" stroke-opacity=".517647" stroke-width="15"/></g><path d="m65.4259 165.958c9.125-10.708 29.4584-32.125 41.0001-44.5 11.542-12.375 14.292-15.708 18.208-17.791 3.917-2.084 9-2.917 13.709-2.25 4.708.666 9.041 2.833 18 9.083 8.958 6.25 22.541 16.583 29.625 22.583 7.083 6 7.666 7.667 7.958 8.917s.292 2.083-.375 3.042c-.667.958-2 2.041-22.833 7.125-20.834 5.083-61.167 14.166-82.7921 18.916-21.625 4.75-24.5416 5.167-27.0416 5.375-2.5.209-4.5834.209 4.5416-10.5z" fill="none" stroke="#000" stroke-width="5"/><path d="m29.4684 72.4009c1.2504 1.3311 5.8488 2.0571 9.3178 3.106 3.469 1.0486 5.8085 2.4201 8.9145 4.0739 3.1059 1.6538 6.9783 3.5901 17.1432 8.8741 10.1649 5.2841 26.6224 13.9161 37.7961 19.8861 11.173 5.97 17.062 9.278 21.459 11.698s7.301 3.953 9.923 4.598c2.622.646 4.961.404 7.22.202s4.437-.363 6.333-1.291 3.509-2.622 5.042-4.8 2.985-4.84 8.632-15.368c5.648-10.5283 15.49-28.922 20.653-39.5709s5.647-13.5532 5.566-15.5298c-.08-1.9764-.726-3.0252-1.976-4.2353-1.251-1.2102-3.106-2.5816-6.252-3.2674-3.147-.6856-7.584-.6856-30.616 3.3481-23.033 4.0337-64.6604 12.101-87.1281 16.6187-22.4677 4.5179-25.7753 5.4859-28.4779 6.938-2.7026 1.4522-4.8001 3.3882-3.5496 4.7195z" fill="#fff" filter="url(#a)" stroke="url(#b)" stroke-width="12"/><path d="m22.0509 86.5417c0 18.2913-.1666 53.4583.0417 71.5003.2083 18.041.7917 18.958 1.7917 20.041 1 1.084 2.4166 2.334 4.0416 3.25 1.625.917 3.4584 1.5 10.6667.542s19.7917-3.458 35.375-6.958 34.1664-8 53.4584-12.542 39.292-9.125 50.333-11.792c11.042-2.666 13.125-3.416 14.459-3.916 1.333-.5 1.916-.75 2.458-1.417s1.042-1.75 1.208-18.625c.167-16.875 0-49.5417-.166-66.0833-.167-16.5417-.334-16.9584-2.042-18.2917s-4.958-3.5833-7.208-5.1667c-2.25-1.5833-3.5-2.5-5.542-3.0416-2.042-.5417-4.875-.7084-9.208-.2917-4.334.4167-10.167 1.4167-29.084 4.875-18.916 3.4583-50.9164 9.375-72.1247 13.375-21.2084 4-31.625 6.0833-37.9584 8-6.3333 1.9167-8.5833 3.6667-9.625 5.25-1.0416 1.5833-.875 3-.875 21.2917z" fill="none" stroke="#000" stroke-width="5"/><path d="m25.9259 66.2917c1.2917 1.375 6.0417 2.125 9.625 3.2083 3.5834 1.0833 6 2.5 9.2084 4.2083 3.2083 1.7084 7.2083 3.7084 17.7083 9.1667s27.5 14.375 39.0414 20.542c11.542 6.166 17.625 9.583 22.167 12.083s7.542 4.083 10.25 4.75 5.125.417 7.458.208c2.334-.208 4.584-.375 6.542-1.333s3.625-2.708 5.208-4.958c1.584-2.25 3.084-5 8.917-15.8753 5.833-10.875 16-29.875 21.333-40.875 5.334-11 5.834-14 5.75-16.0417-.083-2.0417-.75-3.125-2.041-4.375-1.292-1.25-3.209-2.6667-6.459-3.375s-7.833-.7083-31.625 3.4583c-23.791 4.1667-66.7914 12.5-89.9997 17.1667-23.2084 4.6667-26.625 5.6667-29.4167 7.1667s-4.9583 3.5-3.6667 4.875z" fill="none" stroke="#000" stroke-width="5"/></g></svg>