<?xml version="1.0" encoding="utf-8"?>
<!DOCTYPE svg PUBLIC "-//W3C//DTD SVG 1.1//EN" "http://www.w3.org/Graphics/SVG/1.1/DTD/svg11.dtd">
<svg xmlns="http://www.w3.org/2000/svg" xmlns:xlink="http://www.w3.org/1999/xlink" version="1.1" baseProfile="full" width="257" height="257" viewBox="0 0 257.00 257.00" enable-background="new 0 0 257.00 257.00" xml:space="preserve">
	<path fill="#FFFFFF" fill-opacity="1" stroke-width="15" stroke-linejoin="round" d="M 41.0968,103.258C 41.0968,121.638 40.9301,156.973 41.1384,175.101C 41.3468,193.229 41.9303,194.15 42.9305,195.239C 43.9307,196.327 45.3477,197.583 46.973,198.504C 48.5983,199.425 50.432,200.011 57.6419,199.048C 64.8517,198.086 77.4376,195.574 93.0242,192.057C 108.611,188.54 127.198,184.019 146.494,179.455C 165.789,174.892 185.793,170.286 196.837,167.607C 207.881,164.927 209.965,164.174 211.299,163.671C 212.632,163.169 213.216,162.918 213.757,162.248C 214.299,161.578 214.799,160.49 214.966,143.534C 215.133,126.578 214.966,93.7547 214.799,77.1338C 214.633,60.5128 214.466,60.094 212.757,58.7544C 211.049,57.4147 207.798,55.154 205.547,53.563C 203.297,51.972 202.047,51.0509 200.005,50.5069C 197.962,49.9626 195.129,49.7951 190.794,50.2137C 186.46,50.6324 180.626,51.6372 161.705,55.112C 142.784,58.5869 110.778,64.5319 89.5651,68.5511C 68.3524,72.5703 57.9336,74.6636 51.5989,76.5895C 45.2643,78.5153 43.0138,80.2737 41.972,81.8645C 40.9301,83.4556 41.0968,84.8791 41.0968,103.258 Z "/>
	<g>
		<filter id="Filter_GaussianBlur1_" filterUnits="userSpaceOnUse">
			<feGaussianBlur stdDeviation="1.88976"/>
		</filter>
		<path fill="#FFFFFF" fill-opacity="0.517647" stroke-width="15" stroke-linejoin="round" stroke="#7A7777" stroke-opacity="0.517647" filter="url(#Filter_GaussianBlur1_)" d="M 45.0272,106.802C 45.0272,123.248 44.8696,154.865 45.0666,171.085C 45.2636,187.306 45.8152,188.13 46.7608,189.104C 47.7064,190.078 49.046,191.202 50.5826,192.026C 52.1192,192.85 53.8528,193.375 60.669,192.513C 67.4852,191.652 79.3839,189.404 94.1195,186.257C 108.855,183.111 126.427,179.065 144.67,174.981C 162.912,170.898 181.824,166.777 192.265,164.38C 202.706,161.982 204.676,161.308 205.936,160.859C 207.197,160.409 207.749,160.184 208.261,159.585C 208.773,158.986 209.246,158.012 209.404,142.84C 209.561,127.668 209.404,98.2984 209.246,83.4263C 209.088,68.554 208.931,68.1795 207.315,66.9807C 205.7,65.7819 202.627,63.7591 200.499,62.3355C 198.372,60.9119 197.19,60.0879 195.259,59.6009C 193.328,59.1139 190.649,58.964 186.552,59.3387C 182.454,59.7132 176.938,60.6123 159.051,63.7215C 141.163,66.8308 110.904,72.1504 90.8493,75.7466C 70.7948,79.3429 60.9448,81.216 54.956,82.9391C 48.9672,84.6624 46.8396,86.2359 45.8546,87.6593C 44.8696,89.0828 45.0272,90.3566 45.0272,106.802 Z "/>
		<filter id="Filter_GaussianBlur2_" filterUnits="userSpaceOnUse">
			<feGaussianBlur stdDeviation="1.88976"/>
		</filter>
		<path fill="#FFFFFF" fill-opacity="0.517647" stroke-width="15" stroke-linejoin="round" stroke="#7A7777" stroke-opacity="0.517647" filter="url(#Filter_GaussianBlur2_)" d="M 86.0425,178.203C 94.6711,168.575 113.898,149.32 124.812,138.194C 135.726,127.069 138.326,124.072 142.03,122.199C 145.733,120.325 150.54,119.576 154.992,120.176C 159.445,120.775 163.542,122.723 172.013,128.342C 180.484,133.961 193.328,143.252 200.026,148.646C 206.724,154.041 207.276,155.539 207.552,156.663C 207.828,157.787 207.828,158.536 207.197,159.398C 206.567,160.259 205.306,161.233 185.606,165.803C 165.906,170.374 127.767,178.54 107.318,182.811C 86.8699,187.081 84.1119,187.456 81.7479,187.643C 79.3839,187.831 77.414,187.831 86.0425,178.203 Z "/>
		<filter id="Filter_GaussianBlur3_" filterUnits="userSpaceOnUse">
			<feGaussianBlur stdDeviation="1.88976"/>
		</filter>
		<path fill="#FFFFFF" fill-opacity="0.517647" stroke-width="15" stroke-linejoin="round" stroke="#7A7777" stroke-opacity="0.517647" filter="url(#Filter_GaussianBlur3_)" d="M 48.6914,88.5959C 49.9128,89.8321 54.4044,90.5064 57.7928,91.4803C 61.1812,92.4544 63.4664,93.7281 66.5002,95.2639C 69.534,96.7998 73.3164,98.5979 83.2451,103.505C 93.1739,108.413 109.249,116.429 120.163,121.974C 131.077,127.518 136.829,130.59 141.124,132.838C 145.418,135.085 148.255,136.509 150.816,137.108C 153.377,137.708 155.662,137.483 157.869,137.295C 160.075,137.108 162.203,136.958 164.054,136.097C 165.906,135.235 167.482,133.662 168.979,131.639C 170.477,129.616 171.895,127.143 177.411,117.366C 182.927,107.589 192.54,90.5064 197.584,80.6165C 202.627,70.7268 203.1,68.0296 203.021,66.194C 202.942,64.3584 202.312,63.3844 201.09,62.2605C 199.869,61.1367 198.056,59.8631 194.983,59.2262C 191.91,58.5894 187.576,58.5894 165.079,62.3355C 142.581,66.0817 101.921,73.5739 79.9749,77.7696C 58.0292,81.9651 54.7984,82.8643 52.1586,84.2129C 49.5188,85.5616 47.47,87.3596 48.6914,88.5959 Z "/>
	</g>
	<path fill="none" stroke-width="5" stroke-linejoin="round" stroke="#000000" stroke-opacity="1" d="M 83.9259,184.458C 93.0509,173.75 113.384,152.333 124.926,139.958C 136.468,127.583 139.218,124.25 143.134,122.167C 147.051,120.083 152.134,119.25 156.843,119.917C 161.551,120.583 165.884,122.75 174.843,129C 183.801,135.25 197.384,145.583 204.468,151.583C 211.551,157.583 212.134,159.25 212.426,160.5C 212.718,161.75 212.718,162.583 212.051,163.542C 211.384,164.5 210.051,165.583 189.218,170.667C 168.384,175.75 128.051,184.833 106.426,189.583C 84.8009,194.333 81.8843,194.75 79.3843,194.958C 76.8843,195.167 74.8009,195.167 83.9259,184.458 Z "/>
	<linearGradient id="SVGID_Stroke1_" gradientUnits="objectBoundingBox" x1="0.404272" y1="-0.385649" x2="2.18571" y2="-0.385649" gradientTransform="rotate(72.728065 0.404272 -0.385649)">
		<stop offset="0" stop-color="#5B5B5B" stop-opacity="1"/>
		<stop offset="0.275862" stop-color="#656565" stop-opacity="0.996078"/>
		<stop offset="0.383621" stop-color="#F7F7F7" stop-opacity="1"/>
		<stop offset="0.396552" stop-color="#FEFEFE" stop-opacity="0.0666667"/>
		<stop offset="1" stop-color="#FFFFFF" stop-opacity="0"/>
	</linearGradient>
	<filter id="Filter_GaussianBlur4_" filterUnits="userSpaceOnUse">
		<feGaussianBlur stdDeviation="1.88976"/>
	</filter>
	<path fill="#FFFFFF" fill-opacity="1" stroke-width="12" stroke-linejoin="round" stroke="url(#SVGID_Stroke1_)" filter="url(#Filter_GaussianBlur4_)" d="M 47.9684,90.9009C 49.2188,92.232 53.8172,92.958 57.2862,94.0069C 60.7552,95.0555 63.0947,96.427 66.2007,98.0808C 69.3066,99.7346 73.179,101.671 83.3439,106.955C 93.5088,112.239 109.966,120.871 121.14,126.841C 132.313,132.811 138.202,136.119 142.599,138.539C 146.996,140.959 149.9,142.492 152.522,143.137C 155.144,143.783 157.483,143.541 159.742,143.339C 162.001,143.137 164.179,142.976 166.075,142.048C 167.971,141.12 169.584,139.426 171.117,137.248C 172.65,135.07 174.102,132.408 179.749,121.88C 185.397,111.352 195.239,92.958 200.402,82.3091C 205.565,71.6602 206.049,68.7559 205.968,66.7793C 205.888,64.8029 205.242,63.7541 203.992,62.544C 202.741,61.3338 200.886,59.9624 197.74,59.2766C 194.593,58.591 190.156,58.591 167.124,62.6247C 144.091,66.6584 102.464,74.7257 79.9959,79.2434C 57.5282,83.7613 54.2206,84.7293 51.518,86.1814C 48.8154,87.6336 46.7179,89.5696 47.9684,90.9009 Z "/>
	<path fill="none" stroke-width="5" stroke-linejoin="round" stroke="#000000" stroke-opacity="1" d="M 40.5509,105.042C 40.5509,123.333 40.3843,158.5 40.5926,176.542C 40.8009,194.583 41.3843,195.5 42.3843,196.583C 43.3843,197.667 44.8009,198.917 46.4259,199.833C 48.0509,200.75 49.8843,201.333 57.0926,200.375C 64.3009,199.417 76.8843,196.917 92.4676,193.417C 108.051,189.917 126.634,185.417 145.926,180.875C 165.218,176.333 185.218,171.75 196.259,169.083C 207.301,166.417 209.384,165.667 210.718,165.167C 212.051,164.667 212.634,164.417 213.176,163.75C 213.718,163.083 214.218,162 214.384,145.125C 214.551,128.25 214.384,95.5833 214.218,79.0417C 214.051,62.5 213.884,62.0833 212.176,60.75C 210.468,59.4167 207.218,57.1667 204.968,55.5833C 202.718,54 201.468,53.0833 199.426,52.5417C 197.384,52 194.551,51.8333 190.218,52.25C 185.884,52.6667 180.051,53.6667 161.134,57.125C 142.218,60.5833 110.218,66.5 89.0093,70.5C 67.8009,74.5 57.3843,76.5833 51.0509,78.5C 44.7176,80.4167 42.4676,82.1667 41.4259,83.75C 40.3843,85.3333 40.5509,86.75 40.5509,105.042 Z "/>
	<path fill="none" stroke-width="5" stroke-linejoin="round" stroke="#000000" stroke-opacity="1" d="M 44.4259,84.7917C 45.7176,86.1667 50.4676,86.9167 54.0509,88C 57.6343,89.0833 60.0509,90.5 63.2593,92.2083C 66.4676,93.9167 70.4676,95.9167 80.9676,101.375C 91.4676,106.833 108.468,115.75 120.009,121.917C 131.551,128.083 137.634,131.5 142.176,134C 146.718,136.5 149.718,138.083 152.426,138.75C 155.134,139.417 157.551,139.167 159.884,138.958C 162.218,138.75 164.468,138.583 166.426,137.625C 168.384,136.667 170.051,134.917 171.634,132.667C 173.218,130.417 174.718,127.667 180.551,116.792C 186.384,105.917 196.551,86.9167 201.884,75.9167C 207.218,64.9167 207.718,61.9167 207.634,59.875C 207.551,57.8333 206.884,56.75 205.593,55.5C 204.301,54.25 202.384,52.8333 199.134,52.125C 195.884,51.4167 191.301,51.4167 167.509,55.5833C 143.718,59.75 100.718,68.0833 77.5093,72.75C 54.3009,77.4167 50.8843,78.4167 48.0926,79.9167C 45.3009,81.4167 43.1343,83.4167 44.4259,84.7917 Z "/>
</svg>
