<svg enable-background="new 0 0 257.00 257.00" height="257" viewBox="0 0 257 257" width="257" xmlns="http://www.w3.org/2000/svg" xmlns:xlink="http://www.w3.org/1999/xlink"><linearGradient id="a" gradientTransform="matrix(.549295109989 .835628435456 -.835628435456 .549295109989 .216917360268 -.081915166947)" gradientUnits="objectBoundingBox" x1=".184396" x2="1.11201" y1=".16013" y2=".16013"><stop offset="0" stop-color="#b7c0b8"/><stop offset="1" stop-color="#fff"/></linearGradient><linearGradient id="b"><stop offset="0" stop-color="#87af06"/><stop offset="1" stop-color="#afd27b"/></linearGradient><linearGradient id="c" gradientTransform="matrix(0 -1 1 0 -2.006341 3.006341)" gradientUnits="objectBoundingBox" x1=".5" x2="4.51268" xlink:href="#b" y1="2.50634" y2="2.50634"/><linearGradient id="d"><stop offset="0" stop-color="#f4f5f3"/><stop offset="1" stop-color="#b7bdb0"/></linearGradient><linearGradient id="e" gradientTransform="matrix(0 -1 1 0 -2.118451 3.118451)" gradientUnits="objectBoundingBox" x1=".5" x2="4.7369" xlink:href="#d" y1="2.61845" y2="2.61845"/><linearGradient id="f" gradientTransform="matrix(0 -1 1 0 -2.006324 3.006324)" gradientUnits="objectBoundingBox" x1=".5" x2="4.51266" xlink:href="#b" y1="2.50632" y2="2.50632"/><linearGradient id="g"><stop offset="0" stop-color="#f4f5f3"/><stop offset="1" stop-color="#e5f8c9"/></linearGradient><linearGradient id="h" gradientTransform="matrix(0 -1 1 0 -2.118433 3.118433)" gradientUnits="objectBoundingBox" x1=".5" x2="4.73688" xlink:href="#g" y1="2.61843" y2="2.61843"/><linearGradient id="i" gradientTransform="matrix(0 -1 1 0 -2.006341 3.006341)" gradientUnits="objectBoundingBox" x1=".5" x2="4.51269" xlink:href="#b" y1="2.50634" y2="2.50634"/><linearGradient id="j" gradientTransform="matrix(0 -1 1 0 -2.118451 3.118451)" gradientUnits="objectBoundingBox" x1=".5" x2="4.73691" xlink:href="#d" y1="2.61845" y2="2.61845"/><linearGradient id="k" gradientTransform="matrix(0 -1 1 0 -2.118451 3.118451)" gradientUnits="objectBoundingBox" x1=".5" x2="4.73691" xlink:href="#g" y1="2.61845" y2="2.61845"/><linearGradient id="l"><stop offset="0" stop-color="#3f542a"/><stop offset=".474419" stop-color="#d0d5cb"/><stop offset="1" stop-color="#0f1505"/></linearGradient><linearGradient id="m" gradientTransform="matrix(0 -1 1 0 -2.014261 3.014261)" gradientUnits="objectBoundingBox" x1=".5" x2="4.52854" xlink:href="#l" y1="2.51426" y2="2.51426"/><linearGradient id="n"><stop offset="0" stop-color="#daf5bf"/><stop offset="1" stop-color="#1d2314"/></linearGradient><linearGradient id="o" gradientTransform="matrix(0 -1 1 0 -2.203097 3.203097)" gradientUnits="objectBoundingBox" x1=".5" x2="4.90622" xlink:href="#n" y1="2.7031" y2="2.7031"/><filter id="p" filterUnits="userSpaceOnUse"><feGaussianBlur stdDeviation="2.64567"/></filter><linearGradient id="q" gradientTransform="matrix(0 -1 1 0 -2.014282 3.014282)" gradientUnits="objectBoundingBox" x1=".5" x2="4.52854" xlink:href="#l" y1="2.51428" y2="2.51428"/><linearGradient id="r" gradientTransform="matrix(0 -1 1 0 -2.20312 3.20312)" gradientUnits="objectBoundingBox" x1=".5" x2="4.90622" xlink:href="#n" y1="2.70312" y2="2.70312"/><filter id="s" filterUnits="userSpaceOnUse"><feGaussianBlur stdDeviation="3.02362"/></filter><linearGradient id="t" gradientTransform="matrix(0 -1 1 0 -2.014293 3.014293)" gradientUnits="objectBoundingBox" x1=".5" x2="4.52863" xlink:href="#l" y1="2.51429" y2="2.51429"/><linearGradient id="u" gradientTransform="matrix(0 -1 1 0 -2.203136 3.203136)" gradientUnits="objectBoundingBox" x1=".5" x2="4.90632" xlink:href="#n" y1="2.70314" y2="2.70314"/><linearGradient id="v" gradientTransform="matrix(0 -1 1 0 -2.01424 3.01424)" gradientUnits="objectBoundingBox" x1=".5" x2="4.52854" xlink:href="#l" y1="2.51424" y2="2.51424"/><linearGradient id="w" gradientTransform="matrix(0 -1 1 0 -2.203074 3.203074)" gradientUnits="objectBoundingBox" x1=".5" x2="4.90622" xlink:href="#n" y1="2.70307" y2="2.70307"/><linearGradient id="x" gradientTransform="matrix(0 -1 1 0 -2.014283 3.014281)" gradientUnits="objectBoundingBox" x1=".499999" x2="4.52854" xlink:href="#l" y1="2.51428" y2="2.51428"/><linearGradient id="y" gradientTransform="matrix(0 -1 1 0 -2.203121 3.203119)" gradientUnits="objectBoundingBox" x1=".499999" x2="4.90622" xlink:href="#n" y1="2.70312" y2="2.70312"/><linearGradient id="z" gradientTransform="matrix(0 -1 1 0 -2.014239 3.014241)" gradientUnits="objectBoundingBox" x1=".500001" x2="4.52854" xlink:href="#l" y1="2.51424" y2="2.51424"/><linearGradient id="A" gradientTransform="matrix(0 -1 1 0 -2.203073 3.203075)" gradientUnits="objectBoundingBox" x1=".500001" x2="4.90622" xlink:href="#n" y1="2.70307" y2="2.70307"/><linearGradient id="B" gradientTransform="matrix(0 -1 1 0 -2.014303 3.014303)" gradientUnits="objectBoundingBox" x1=".5" x2="4.52854" xlink:href="#l" y1="2.5143" y2="2.5143"/><linearGradient id="C" gradientTransform="matrix(0 -1 1 0 -2.203142 3.203142)" gradientUnits="objectBoundingBox" x1=".5" x2="4.90622" xlink:href="#n" y1="2.70314" y2="2.70314"/><linearGradient id="D" gradientTransform="matrix(0 -1 1 0 -2.014218 3.01422)" gradientUnits="objectBoundingBox" x1=".500001" x2="4.52854" xlink:href="#l" y1="2.51422" y2="2.51422"/><linearGradient id="E" gradientTransform="matrix(0 -1 1 0 -2.20305 3.203052)" gradientUnits="objectBoundingBox" x1=".500001" x2="4.90622" xlink:href="#n" y1="2.70305" y2="2.70305"/><linearGradient id="F" gradientTransform="matrix(0 -1 1 0 -2.014251 3.014251)" gradientUnits="objectBoundingBox" x1=".5" x2="4.52846" xlink:href="#l" y1="2.51425" y2="2.51425"/><linearGradient id="G" gradientTransform="matrix(0 -1 1 0 -2.203081 3.203081)" gradientUnits="objectBoundingBox" x1=".5" x2="4.90612" xlink:href="#n" y1="2.70308" y2="2.70308"/><linearGradient id="H" gradientTransform="matrix(0 -1 1 0 -2.014188 3.014188)" gradientUnits="objectBoundingBox" x1=".5" x2="4.52846" xlink:href="#l" y1="2.51419" y2="2.51419"/><linearGradient id="I" gradientTransform="matrix(0 -1 1 0 -2.203012 3.203012)" gradientUnits="objectBoundingBox" x1=".5" x2="4.90612" xlink:href="#n" y1="2.70301" y2="2.70301"/><g stroke-linejoin="round"><path d="m18.7462 6.56079h189.9998c2.209 0 4 1.79077 4 4.00001v227.3332c0 2.209-1.791 4-4 4h-189.9998c-2.2091 0-4-1.791-4-4v-227.3332c0-2.20924 1.7909-4.00001 4-4.00001z" fill="url(#a)" stroke="#036400" stroke-width="5"/><g stroke-width="2"><path d="m40.2462 23.561h147.9998c2.209 0 4 1.7908 4 4v27.7923c0 2.2092-1.791 4-4 4h-147.9998c-2.2092 0-4-1.7908-4-4v-27.7923c0-2.2092 1.7908-4 4-4z" fill="url(#e)" stroke="url(#c)"/><path d="m40.2462 64.2988h147.9998c2.209 0 4 1.7908 4 4v27.7923c0 2.2092-1.791 3.9999-4 3.9999h-147.9998c-2.2092 0-4-1.7907-4-3.9999v-27.7923c0-2.2092 1.7908-4 4-4z" fill="url(#h)" stroke="url(#f)"/><path d="m40.7462 105.743h147.9998c2.209 0 4 1.791 4 4v27.792c0 2.21-1.791 4-4 4h-147.9998c-2.2092 0-4-1.79-4-4v-27.792c0-2.209 1.7908-4 4-4z" fill="url(#j)" stroke="url(#i)"/><path d="m41.0795 146.56h147.9995c2.21 0 4.001 1.79 4.001 3.999v27.793c0 2.209-1.791 4-4.001 4h-147.9995c-2.2091 0-4-1.791-4-4v-27.793c0-2.209 1.7909-3.999 4-3.999z" fill="url(#k)" stroke="url(#i)"/><path d="m40.7462 187.768h147.9998c2.209 0 4 1.791 4 4v27.793c0 2.209-1.791 4-4 4h-147.9998c-2.2092 0-4-1.791-4-4v-27.793c0-2.209 1.7908-4 4-4z" fill="url(#j)" stroke="url(#i)"/></g><path d="m52.0795 36.7275h38c1.1046 0 2 .8955 2 2v6.6668c0 1.1045-.8954 2-2 2h-38c-1.1046 0-2-.8955-2-2v-6.6668c0-1.1045.8954-2 2-2z" fill="url(#o)" filter="url(#p)" stroke="url(#m)"/><path d="m99.9128 36.519h27.7502c1.104 0 2 .8956 2 2v6.6668c0 1.1045-.896 2-2 2h-27.7502c-1.1045 0-2-.8955-2-2v-6.6668c0-1.1044.8955-2 2-2z" fill="url(#r)" filter="url(#s)" stroke="url(#q)"/><path d="m137.996 36.561h38c1.105 0 2 .8955 2 2v6.6665c0 1.1045-.895 2-2 2h-38c-1.104 0-2-.8955-2-2v-6.6665c0-1.1045.896-2 2-2z" fill="url(#u)" filter="url(#s)" stroke="url(#t)"/><path d="m51.002 118.259h38c1.1046 0 2 .895 2 2v6.667c0 1.104-.8954 2-2 2h-38c-1.1046 0-2-.896-2-2v-6.667c0-1.105.8954-2 2-2z" fill="url(#o)" filter="url(#p)" stroke="url(#m)"/><path d="m98.8354 118.05h27.7496c1.105 0 2 .896 2 2v6.667c0 1.105-.895 2-2 2h-27.7496c-1.1046 0-2-.895-2-2v-6.667c0-1.104.8954-2 2-2z" fill="url(#r)" filter="url(#s)" stroke="url(#q)"/><path d="m136.919 118.092h38c1.104 0 2 .896 2 2v6.667c0 1.104-.896 2-2 2h-38c-1.105 0-2-.896-2-2v-6.667c0-1.104.895-2 2-2z" fill="url(#u)" filter="url(#s)" stroke="url(#t)"/><path d="m52.002 200.259h38c1.1046 0 2 .895 2 2v6.667c0 1.104-.8954 2-2 2h-38c-1.1046 0-2-.896-2-2v-6.667c0-1.105.8954-2 2-2z" fill="url(#o)" filter="url(#p)" stroke="url(#m)"/><path d="m99.8354 200.05h27.7496c1.105 0 2 .896 2 2v6.667c0 1.105-.895 2-2 2h-27.7496c-1.1046 0-2-.895-2-2v-6.667c0-1.104.8954-2 2-2z" fill="url(#r)" filter="url(#s)" stroke="url(#q)"/><path d="m137.919 200.092h38c1.104 0 2 .896 2 2v6.667c0 1.104-.896 2-2 2h-38c-1.105 0-2-.896-2-2v-6.667c0-1.104.895-2 2-2z" fill="url(#u)" filter="url(#s)" stroke="url(#t)"/><path d="m73.002 78.9258h36.16c1.105 0 2 .8955 2 2v6.6667c0 1.1045-.895 2-2 2h-36.16c-1.1045 0-2-.8955-2-2v-6.6667c0-1.1045.8955-2 2-2z" fill="url(#w)" filter="url(#p)" stroke="url(#v)"/><path d="m122.829 78.7168h30.333c1.105 0 2 .8955 2 2v6.6667c0 1.1045-.895 2-2 2h-30.333c-1.105 0-2-.8955-2-2v-6.6667c0-1.1045.895-2 2-2z" fill="url(#y)" filter="url(#s)" stroke="url(#x)"/><path d="m161.996 78.759h14.666c1.105 0 2 .8955 2 2v6.6668c0 1.1045-.895 2-2 2h-14.666c-1.105 0-2-.8955-2-2v-6.6668c0-1.1045.895-2 2-2z" fill="url(#A)" filter="url(#s)" stroke="url(#z)"/><path d="m51.5579 79.1013h12.6044c1.1046 0 2 .8955 2 2v6.6668c0 1.1045-.8954 2-2 2h-12.6044c-1.1046 0-2-.8955-2-2v-6.6668c0-1.1045.8954-2 2-2z" fill="url(#C)" filter="url(#s)" stroke="url(#B)"/><path d="m72.9246 159.124h36.1604c1.104 0 2 .895 2 2v6.667c0 1.104-.896 2-2 2h-36.1604c-1.1046 0-2-.896-2-2v-6.667c0-1.105.8954-2 2-2z" fill="url(#E)" filter="url(#p)" stroke="url(#D)"/><path d="m122.752 158.915h30.333c1.104 0 2 .895 2 2v6.667c0 1.104-.896 2-2 2h-30.333c-1.105 0-2-.896-2-2v-6.667c0-1.105.895-2 2-2z" fill="url(#G)" filter="url(#s)" stroke="url(#F)"/><path d="m161.918 158.957h14.667c1.104 0 2 .896 2 2v6.667c0 1.105-.896 2-2 2h-14.667c-1.104 0-2-.895-2-2v-6.667c0-1.104.896-2 2-2z" fill="url(#I)" filter="url(#s)" stroke="url(#H)"/><path d="m51.4804 159.299h12.6045c1.1045 0 2 .896 2 2v6.667c0 1.105-.8955 2-2 2h-12.6045c-1.1045 0-2-.895-2-2v-6.667c0-1.104.8955-2 2-2z" fill="url(#r)" filter="url(#s)" stroke="url(#q)"/></g></svg>