<?xml version="1.0" encoding="utf-8"?>
<!DOCTYPE svg PUBLIC "-//W3C//DTD SVG 1.1//EN" "http://www.w3.org/Graphics/SVG/1.1/DTD/svg11.dtd">
<svg xmlns="http://www.w3.org/2000/svg" xmlns:xlink="http://www.w3.org/1999/xlink" version="1.1" baseProfile="full" width="257" height="257" viewBox="0 0 257.00 257.00" enable-background="new 0 0 257.00 257.00" xml:space="preserve">
	<linearGradient id="SVGID_Fill1_" gradientUnits="objectBoundingBox" x1="0.184396" y1="0.16013" x2="1.11201" y2="0.16013" gradientTransform="rotate(56.681332 0.184396 0.160130)">
		<stop offset="0" stop-color="#B7C0B8" stop-opacity="1"/>
		<stop offset="1" stop-color="#FFFFFF" stop-opacity="1"/>
	</linearGradient>
	<path fill="url(#SVGID_Fill1_)" stroke-width="5" stroke-linejoin="round" stroke="#036400" stroke-opacity="1" d="M 18.7462,6.56079L 208.746,6.56079C 210.955,6.56079 212.746,8.35156 212.746,10.5608L 212.746,237.894C 212.746,240.103 210.955,241.894 208.746,241.894L 18.7462,241.894C 16.5371,241.894 14.7462,240.103 14.7462,237.894L 14.7462,10.5608C 14.7462,8.35156 16.5371,6.56079 18.7462,6.56079 Z "/>
	<linearGradient id="SVGID_Stroke1_" gradientUnits="objectBoundingBox" x1="0.5" y1="2.50634" x2="4.51268" y2="2.50634" gradientTransform="rotate(-90.000000 0.500000 2.506341)">
		<stop offset="0" stop-color="#87AF06" stop-opacity="1"/>
		<stop offset="1" stop-color="#AFD27B" stop-opacity="1"/>
	</linearGradient>
	<linearGradient id="SVGID_Fill2_" gradientUnits="objectBoundingBox" x1="0.5" y1="2.61845" x2="4.7369" y2="2.61845" gradientTransform="rotate(-90.000000 0.500000 2.618451)">
		<stop offset="0" stop-color="#F4F5F3" stop-opacity="1"/>
		<stop offset="1" stop-color="#B7BDB0" stop-opacity="1"/>
	</linearGradient>
	<path fill="url(#SVGID_Fill2_)" stroke-width="2" stroke-linejoin="round" stroke="url(#SVGID_Stroke1_)" d="M 40.2462,23.561L 188.246,23.561C 190.455,23.561 192.246,25.3518 192.246,27.561L 192.246,55.3533C 192.246,57.5625 190.455,59.3533 188.246,59.3533L 40.2462,59.3533C 38.037,59.3533 36.2462,57.5625 36.2462,55.3533L 36.2462,27.561C 36.2462,25.3518 38.037,23.561 40.2462,23.561 Z "/>
	<linearGradient id="SVGID_Stroke2_" gradientUnits="objectBoundingBox" x1="0.5" y1="2.50632" x2="4.51266" y2="2.50632" gradientTransform="rotate(-90.000000 0.500000 2.506324)">
		<stop offset="0" stop-color="#87AF06" stop-opacity="1"/>
		<stop offset="1" stop-color="#AFD27B" stop-opacity="1"/>
	</linearGradient>
	<linearGradient id="SVGID_Fill3_" gradientUnits="objectBoundingBox" x1="0.5" y1="2.61843" x2="4.73688" y2="2.61843" gradientTransform="rotate(-90.000000 0.500000 2.618433)">
		<stop offset="0" stop-color="#F4F5F3" stop-opacity="1"/>
		<stop offset="1" stop-color="#E5F8C9" stop-opacity="1"/>
	</linearGradient>
	<path fill="url(#SVGID_Fill3_)" stroke-width="2" stroke-linejoin="round" stroke="url(#SVGID_Stroke2_)" d="M 40.2462,64.2988L 188.246,64.2988C 190.455,64.2988 192.246,66.0896 192.246,68.2988L 192.246,96.0911C 192.246,98.3003 190.455,100.091 188.246,100.091L 40.2462,100.091C 38.037,100.091 36.2462,98.3003 36.2462,96.0911L 36.2462,68.2988C 36.2462,66.0896 38.037,64.2988 40.2462,64.2988 Z "/>
	<linearGradient id="SVGID_Stroke3_" gradientUnits="objectBoundingBox" x1="0.5" y1="2.50634" x2="4.51269" y2="2.50634" gradientTransform="rotate(-90.000000 0.500000 2.506341)">
		<stop offset="0" stop-color="#87AF06" stop-opacity="1"/>
		<stop offset="1" stop-color="#AFD27B" stop-opacity="1"/>
	</linearGradient>
	<linearGradient id="SVGID_Fill4_" gradientUnits="objectBoundingBox" x1="0.5" y1="2.61845" x2="4.73691" y2="2.61845" gradientTransform="rotate(-90.000000 0.500000 2.618451)">
		<stop offset="0" stop-color="#F4F5F3" stop-opacity="1"/>
		<stop offset="1" stop-color="#B7BDB0" stop-opacity="1"/>
	</linearGradient>
	<path fill="url(#SVGID_Fill4_)" stroke-width="2" stroke-linejoin="round" stroke="url(#SVGID_Stroke3_)" d="M 40.7462,105.743L 188.746,105.743C 190.955,105.743 192.746,107.534 192.746,109.743L 192.746,137.535C 192.746,139.745 190.955,141.535 188.746,141.535L 40.7462,141.535C 38.537,141.535 36.7462,139.745 36.7462,137.535L 36.7462,109.743C 36.7462,107.534 38.537,105.743 40.7462,105.743 Z "/>
	<linearGradient id="SVGID_Stroke4_" gradientUnits="objectBoundingBox" x1="0.5" y1="2.50634" x2="4.51269" y2="2.50634" gradientTransform="rotate(-90.000000 0.500000 2.506341)">
		<stop offset="0" stop-color="#87AF06" stop-opacity="1"/>
		<stop offset="1" stop-color="#AFD27B" stop-opacity="1"/>
	</linearGradient>
	<linearGradient id="SVGID_Fill5_" gradientUnits="objectBoundingBox" x1="0.5" y1="2.61845" x2="4.73691" y2="2.61845" gradientTransform="rotate(-90.000000 0.500000 2.618451)">
		<stop offset="0" stop-color="#F4F5F3" stop-opacity="1"/>
		<stop offset="1" stop-color="#E5F8C9" stop-opacity="1"/>
	</linearGradient>
	<path fill="url(#SVGID_Fill5_)" stroke-width="2" stroke-linejoin="round" stroke="url(#SVGID_Stroke4_)" d="M 41.0795,146.56L 189.079,146.56C 191.289,146.56 193.08,148.35 193.08,150.559L 193.08,178.352C 193.08,180.561 191.289,182.352 189.079,182.352L 41.0795,182.352C 38.8704,182.352 37.0795,180.561 37.0795,178.352L 37.0795,150.559C 37.0795,148.35 38.8704,146.56 41.0795,146.56 Z "/>
	<linearGradient id="SVGID_Stroke5_" gradientUnits="objectBoundingBox" x1="0.5" y1="2.50634" x2="4.51269" y2="2.50634" gradientTransform="rotate(-90.000000 0.500000 2.506341)">
		<stop offset="0" stop-color="#87AF06" stop-opacity="1"/>
		<stop offset="1" stop-color="#AFD27B" stop-opacity="1"/>
	</linearGradient>
	<linearGradient id="SVGID_Fill6_" gradientUnits="objectBoundingBox" x1="0.5" y1="2.61845" x2="4.73691" y2="2.61845" gradientTransform="rotate(-90.000000 0.500000 2.618451)">
		<stop offset="0" stop-color="#F4F5F3" stop-opacity="1"/>
		<stop offset="1" stop-color="#B7BDB0" stop-opacity="1"/>
	</linearGradient>
	<path fill="url(#SVGID_Fill6_)" stroke-width="2" stroke-linejoin="round" stroke="url(#SVGID_Stroke5_)" d="M 40.7462,187.768L 188.746,187.768C 190.955,187.768 192.746,189.559 192.746,191.768L 192.746,219.561C 192.746,221.77 190.955,223.561 188.746,223.561L 40.7462,223.561C 38.537,223.561 36.7462,221.77 36.7462,219.561L 36.7462,191.768C 36.7462,189.559 38.537,187.768 40.7462,187.768 Z "/>
	<linearGradient id="SVGID_Stroke6_" gradientUnits="objectBoundingBox" x1="0.5" y1="2.51426" x2="4.52854" y2="2.51426" gradientTransform="rotate(-90.000000 0.500000 2.514261)">
		<stop offset="0" stop-color="#3F542A" stop-opacity="1"/>
		<stop offset="0.474419" stop-color="#D0D5CB" stop-opacity="1"/>
		<stop offset="1" stop-color="#0F1505" stop-opacity="1"/>
	</linearGradient>
	<linearGradient id="SVGID_Fill7_" gradientUnits="objectBoundingBox" x1="0.5" y1="2.7031" x2="4.90622" y2="2.7031" gradientTransform="rotate(-90.000000 0.500000 2.703097)">
		<stop offset="0" stop-color="#DAF5BF" stop-opacity="1"/>
		<stop offset="1" stop-color="#1D2314" stop-opacity="1"/>
	</linearGradient>
	<filter id="Filter_GaussianBlur1_" filterUnits="userSpaceOnUse">
		<feGaussianBlur stdDeviation="2.64567"/>
	</filter>
	<path fill="url(#SVGID_Fill7_)" stroke-linejoin="round" stroke="url(#SVGID_Stroke6_)" filter="url(#Filter_GaussianBlur1_)" d="M 52.0795,36.7275L 90.0795,36.7275C 91.1841,36.7275 92.0795,37.623 92.0795,38.7275L 92.0795,45.3943C 92.0795,46.4988 91.1841,47.3943 90.0795,47.3943L 52.0795,47.3943C 50.9749,47.3943 50.0795,46.4988 50.0795,45.3943L 50.0795,38.7275C 50.0795,37.623 50.9749,36.7275 52.0795,36.7275 Z "/>
	<linearGradient id="SVGID_Stroke7_" gradientUnits="objectBoundingBox" x1="0.5" y1="2.51428" x2="4.52854" y2="2.51428" gradientTransform="rotate(-90.000000 0.500000 2.514282)">
		<stop offset="0" stop-color="#3F542A" stop-opacity="1"/>
		<stop offset="0.474419" stop-color="#D0D5CB" stop-opacity="1"/>
		<stop offset="1" stop-color="#0F1505" stop-opacity="1"/>
	</linearGradient>
	<linearGradient id="SVGID_Fill8_" gradientUnits="objectBoundingBox" x1="0.5" y1="2.70312" x2="4.90622" y2="2.70312" gradientTransform="rotate(-90.000000 0.500000 2.703120)">
		<stop offset="0" stop-color="#DAF5BF" stop-opacity="1"/>
		<stop offset="1" stop-color="#1D2314" stop-opacity="1"/>
	</linearGradient>
	<filter id="Filter_GaussianBlur2_" filterUnits="userSpaceOnUse">
		<feGaussianBlur stdDeviation="3.02362"/>
	</filter>
	<path fill="url(#SVGID_Fill8_)" stroke-linejoin="round" stroke="url(#SVGID_Stroke7_)" filter="url(#Filter_GaussianBlur2_)" d="M 99.9128,36.519L 127.663,36.519C 128.767,36.519 129.663,37.4146 129.663,38.519L 129.663,45.1858C 129.663,46.2903 128.767,47.1858 127.663,47.1858L 99.9128,47.1858C 98.8083,47.1858 97.9128,46.2903 97.9128,45.1858L 97.9128,38.519C 97.9128,37.4146 98.8083,36.519 99.9128,36.519 Z "/>
	<linearGradient id="SVGID_Stroke8_" gradientUnits="objectBoundingBox" x1="0.5" y1="2.51429" x2="4.52863" y2="2.51429" gradientTransform="rotate(-90.000000 0.500000 2.514293)">
		<stop offset="0" stop-color="#3F542A" stop-opacity="1"/>
		<stop offset="0.474419" stop-color="#D0D5CB" stop-opacity="1"/>
		<stop offset="1" stop-color="#0F1505" stop-opacity="1"/>
	</linearGradient>
	<linearGradient id="SVGID_Fill9_" gradientUnits="objectBoundingBox" x1="0.5" y1="2.70314" x2="4.90632" y2="2.70314" gradientTransform="rotate(-90.000000 0.500000 2.703136)">
		<stop offset="0" stop-color="#DAF5BF" stop-opacity="1"/>
		<stop offset="1" stop-color="#1D2314" stop-opacity="1"/>
	</linearGradient>
	<filter id="Filter_GaussianBlur3_" filterUnits="userSpaceOnUse">
		<feGaussianBlur stdDeviation="3.02362"/>
	</filter>
	<path fill="url(#SVGID_Fill9_)" stroke-linejoin="round" stroke="url(#SVGID_Stroke8_)" filter="url(#Filter_GaussianBlur3_)" d="M 137.996,36.561L 175.996,36.561C 177.101,36.561 177.996,37.4565 177.996,38.561L 177.996,45.2275C 177.996,46.332 177.101,47.2275 175.996,47.2275L 137.996,47.2275C 136.892,47.2275 135.996,46.332 135.996,45.2275L 135.996,38.561C 135.996,37.4565 136.892,36.561 137.996,36.561 Z "/>
	<linearGradient id="SVGID_Stroke9_" gradientUnits="objectBoundingBox" x1="0.5" y1="2.51426" x2="4.52854" y2="2.51426" gradientTransform="rotate(-90.000000 0.500000 2.514261)">
		<stop offset="0" stop-color="#3F542A" stop-opacity="1"/>
		<stop offset="0.474419" stop-color="#D0D5CB" stop-opacity="1"/>
		<stop offset="1" stop-color="#0F1505" stop-opacity="1"/>
	</linearGradient>
	<linearGradient id="SVGID_Fill10_" gradientUnits="objectBoundingBox" x1="0.5" y1="2.7031" x2="4.90622" y2="2.7031" gradientTransform="rotate(-90.000000 0.500000 2.703097)">
		<stop offset="0" stop-color="#DAF5BF" stop-opacity="1"/>
		<stop offset="1" stop-color="#1D2314" stop-opacity="1"/>
	</linearGradient>
	<filter id="Filter_GaussianBlur4_" filterUnits="userSpaceOnUse">
		<feGaussianBlur stdDeviation="2.64567"/>
	</filter>
	<path fill="url(#SVGID_Fill10_)" stroke-linejoin="round" stroke="url(#SVGID_Stroke9_)" filter="url(#Filter_GaussianBlur4_)" d="M 51.002,118.259L 89.002,118.259C 90.1066,118.259 91.002,119.154 91.002,120.259L 91.002,126.926C 91.002,128.03 90.1066,128.926 89.002,128.926L 51.002,128.926C 49.8974,128.926 49.002,128.03 49.002,126.926L 49.002,120.259C 49.002,119.154 49.8974,118.259 51.002,118.259 Z "/>
	<linearGradient id="SVGID_Stroke10_" gradientUnits="objectBoundingBox" x1="0.5" y1="2.51428" x2="4.52854" y2="2.51428" gradientTransform="rotate(-90.000000 0.500000 2.514282)">
		<stop offset="0" stop-color="#3F542A" stop-opacity="1"/>
		<stop offset="0.474419" stop-color="#D0D5CB" stop-opacity="1"/>
		<stop offset="1" stop-color="#0F1505" stop-opacity="1"/>
	</linearGradient>
	<linearGradient id="SVGID_Fill11_" gradientUnits="objectBoundingBox" x1="0.5" y1="2.70312" x2="4.90622" y2="2.70312" gradientTransform="rotate(-90.000000 0.500000 2.703120)">
		<stop offset="0" stop-color="#DAF5BF" stop-opacity="1"/>
		<stop offset="1" stop-color="#1D2314" stop-opacity="1"/>
	</linearGradient>
	<filter id="Filter_GaussianBlur5_" filterUnits="userSpaceOnUse">
		<feGaussianBlur stdDeviation="3.02362"/>
	</filter>
	<path fill="url(#SVGID_Fill11_)" stroke-linejoin="round" stroke="url(#SVGID_Stroke10_)" filter="url(#Filter_GaussianBlur5_)" d="M 98.8354,118.05L 126.585,118.05C 127.69,118.05 128.585,118.946 128.585,120.05L 128.585,126.717C 128.585,127.822 127.69,128.717 126.585,128.717L 98.8354,128.717C 97.7308,128.717 96.8354,127.822 96.8354,126.717L 96.8354,120.05C 96.8354,118.946 97.7308,118.05 98.8354,118.05 Z "/>
	<linearGradient id="SVGID_Stroke11_" gradientUnits="objectBoundingBox" x1="0.5" y1="2.51429" x2="4.52863" y2="2.51429" gradientTransform="rotate(-90.000000 0.500000 2.514293)">
		<stop offset="0" stop-color="#3F542A" stop-opacity="1"/>
		<stop offset="0.474419" stop-color="#D0D5CB" stop-opacity="1"/>
		<stop offset="1" stop-color="#0F1505" stop-opacity="1"/>
	</linearGradient>
	<linearGradient id="SVGID_Fill12_" gradientUnits="objectBoundingBox" x1="0.5" y1="2.70314" x2="4.90632" y2="2.70314" gradientTransform="rotate(-90.000000 0.500000 2.703136)">
		<stop offset="0" stop-color="#DAF5BF" stop-opacity="1"/>
		<stop offset="1" stop-color="#1D2314" stop-opacity="1"/>
	</linearGradient>
	<filter id="Filter_GaussianBlur6_" filterUnits="userSpaceOnUse">
		<feGaussianBlur stdDeviation="3.02362"/>
	</filter>
	<path fill="url(#SVGID_Fill12_)" stroke-linejoin="round" stroke="url(#SVGID_Stroke11_)" filter="url(#Filter_GaussianBlur6_)" d="M 136.919,118.092L 174.919,118.092C 176.023,118.092 176.919,118.988 176.919,120.092L 176.919,126.759C 176.919,127.863 176.023,128.759 174.919,128.759L 136.919,128.759C 135.814,128.759 134.919,127.863 134.919,126.759L 134.919,120.092C 134.919,118.988 135.814,118.092 136.919,118.092 Z "/>
	<linearGradient id="SVGID_Stroke12_" gradientUnits="objectBoundingBox" x1="0.5" y1="2.51426" x2="4.52854" y2="2.51426" gradientTransform="rotate(-90.000000 0.500000 2.514261)">
		<stop offset="0" stop-color="#3F542A" stop-opacity="1"/>
		<stop offset="0.474419" stop-color="#D0D5CB" stop-opacity="1"/>
		<stop offset="1" stop-color="#0F1505" stop-opacity="1"/>
	</linearGradient>
	<linearGradient id="SVGID_Fill13_" gradientUnits="objectBoundingBox" x1="0.5" y1="2.7031" x2="4.90622" y2="2.7031" gradientTransform="rotate(-90.000000 0.500000 2.703097)">
		<stop offset="0" stop-color="#DAF5BF" stop-opacity="1"/>
		<stop offset="1" stop-color="#1D2314" stop-opacity="1"/>
	</linearGradient>
	<filter id="Filter_GaussianBlur7_" filterUnits="userSpaceOnUse">
		<feGaussianBlur stdDeviation="2.64567"/>
	</filter>
	<path fill="url(#SVGID_Fill13_)" stroke-linejoin="round" stroke="url(#SVGID_Stroke12_)" filter="url(#Filter_GaussianBlur7_)" d="M 52.002,200.259L 90.002,200.259C 91.1066,200.259 92.002,201.154 92.002,202.259L 92.002,208.926C 92.002,210.03 91.1066,210.926 90.002,210.926L 52.002,210.926C 50.8974,210.926 50.002,210.03 50.002,208.926L 50.002,202.259C 50.002,201.154 50.8974,200.259 52.002,200.259 Z "/>
	<linearGradient id="SVGID_Stroke13_" gradientUnits="objectBoundingBox" x1="0.5" y1="2.51428" x2="4.52854" y2="2.51428" gradientTransform="rotate(-90.000000 0.500000 2.514282)">
		<stop offset="0" stop-color="#3F542A" stop-opacity="1"/>
		<stop offset="0.474419" stop-color="#D0D5CB" stop-opacity="1"/>
		<stop offset="1" stop-color="#0F1505" stop-opacity="1"/>
	</linearGradient>
	<linearGradient id="SVGID_Fill14_" gradientUnits="objectBoundingBox" x1="0.5" y1="2.70312" x2="4.90622" y2="2.70312" gradientTransform="rotate(-90.000000 0.500000 2.703120)">
		<stop offset="0" stop-color="#DAF5BF" stop-opacity="1"/>
		<stop offset="1" stop-color="#1D2314" stop-opacity="1"/>
	</linearGradient>
	<filter id="Filter_GaussianBlur8_" filterUnits="userSpaceOnUse">
		<feGaussianBlur stdDeviation="3.02362"/>
	</filter>
	<path fill="url(#SVGID_Fill14_)" stroke-linejoin="round" stroke="url(#SVGID_Stroke13_)" filter="url(#Filter_GaussianBlur8_)" d="M 99.8354,200.05L 127.585,200.05C 128.69,200.05 129.585,200.946 129.585,202.05L 129.585,208.717C 129.585,209.822 128.69,210.717 127.585,210.717L 99.8354,210.717C 98.7308,210.717 97.8354,209.822 97.8354,208.717L 97.8354,202.05C 97.8354,200.946 98.7308,200.05 99.8354,200.05 Z "/>
	<linearGradient id="SVGID_Stroke14_" gradientUnits="objectBoundingBox" x1="0.5" y1="2.51429" x2="4.52863" y2="2.51429" gradientTransform="rotate(-90.000000 0.500000 2.514293)">
		<stop offset="0" stop-color="#3F542A" stop-opacity="1"/>
		<stop offset="0.474419" stop-color="#D0D5CB" stop-opacity="1"/>
		<stop offset="1" stop-color="#0F1505" stop-opacity="1"/>
	</linearGradient>
	<linearGradient id="SVGID_Fill15_" gradientUnits="objectBoundingBox" x1="0.5" y1="2.70314" x2="4.90632" y2="2.70314" gradientTransform="rotate(-90.000000 0.500000 2.703136)">
		<stop offset="0" stop-color="#DAF5BF" stop-opacity="1"/>
		<stop offset="1" stop-color="#1D2314" stop-opacity="1"/>
	</linearGradient>
	<filter id="Filter_GaussianBlur9_" filterUnits="userSpaceOnUse">
		<feGaussianBlur stdDeviation="3.02362"/>
	</filter>
	<path fill="url(#SVGID_Fill15_)" stroke-linejoin="round" stroke="url(#SVGID_Stroke14_)" filter="url(#Filter_GaussianBlur9_)" d="M 137.919,200.092L 175.919,200.092C 177.023,200.092 177.919,200.988 177.919,202.092L 177.919,208.759C 177.919,209.863 177.023,210.759 175.919,210.759L 137.919,210.759C 136.814,210.759 135.919,209.863 135.919,208.759L 135.919,202.092C 135.919,200.988 136.814,200.092 137.919,200.092 Z "/>
	<linearGradient id="SVGID_Stroke15_" gradientUnits="objectBoundingBox" x1="0.5" y1="2.51424" x2="4.52854" y2="2.51424" gradientTransform="rotate(-90.000000 0.500000 2.514240)">
		<stop offset="0" stop-color="#3F542A" stop-opacity="1"/>
		<stop offset="0.474419" stop-color="#D0D5CB" stop-opacity="1"/>
		<stop offset="1" stop-color="#0F1505" stop-opacity="1"/>
	</linearGradient>
	<linearGradient id="SVGID_Fill16_" gradientUnits="objectBoundingBox" x1="0.5" y1="2.70307" x2="4.90622" y2="2.70307" gradientTransform="rotate(-90.000000 0.500000 2.703074)">
		<stop offset="0" stop-color="#DAF5BF" stop-opacity="1"/>
		<stop offset="1" stop-color="#1D2314" stop-opacity="1"/>
	</linearGradient>
	<filter id="Filter_GaussianBlur10_" filterUnits="userSpaceOnUse">
		<feGaussianBlur stdDeviation="2.64567"/>
	</filter>
	<path fill="url(#SVGID_Fill16_)" stroke-linejoin="round" stroke="url(#SVGID_Stroke15_)" filter="url(#Filter_GaussianBlur10_)" d="M 73.002,78.9258L 109.162,78.9258C 110.267,78.9258 111.162,79.8213 111.162,80.9258L 111.162,87.5925C 111.162,88.697 110.267,89.5925 109.162,89.5925L 73.002,89.5925C 71.8975,89.5925 71.002,88.697 71.002,87.5925L 71.002,80.9258C 71.002,79.8213 71.8975,78.9258 73.002,78.9258 Z "/>
	<linearGradient id="SVGID_Stroke16_" gradientUnits="objectBoundingBox" x1="0.499999" y1="2.51428" x2="4.52854" y2="2.51428" gradientTransform="rotate(-90.000000 0.499999 2.514282)">
		<stop offset="0" stop-color="#3F542A" stop-opacity="1"/>
		<stop offset="0.474419" stop-color="#D0D5CB" stop-opacity="1"/>
		<stop offset="1" stop-color="#0F1505" stop-opacity="1"/>
	</linearGradient>
	<linearGradient id="SVGID_Fill17_" gradientUnits="objectBoundingBox" x1="0.499999" y1="2.70312" x2="4.90622" y2="2.70312" gradientTransform="rotate(-90.000000 0.499999 2.703120)">
		<stop offset="0" stop-color="#DAF5BF" stop-opacity="1"/>
		<stop offset="1" stop-color="#1D2314" stop-opacity="1"/>
	</linearGradient>
	<filter id="Filter_GaussianBlur11_" filterUnits="userSpaceOnUse">
		<feGaussianBlur stdDeviation="3.02362"/>
	</filter>
	<path fill="url(#SVGID_Fill17_)" stroke-linejoin="round" stroke="url(#SVGID_Stroke16_)" filter="url(#Filter_GaussianBlur11_)" d="M 122.829,78.7168L 153.162,78.7168C 154.267,78.7168 155.162,79.6123 155.162,80.7168L 155.162,87.3835C 155.162,88.488 154.267,89.3835 153.162,89.3835L 122.829,89.3835C 121.724,89.3835 120.829,88.488 120.829,87.3835L 120.829,80.7168C 120.829,79.6123 121.724,78.7168 122.829,78.7168 Z "/>
	<linearGradient id="SVGID_Stroke17_" gradientUnits="objectBoundingBox" x1="0.500001" y1="2.51424" x2="4.52854" y2="2.51424" gradientTransform="rotate(-90.000000 0.500001 2.514240)">
		<stop offset="0" stop-color="#3F542A" stop-opacity="1"/>
		<stop offset="0.474419" stop-color="#D0D5CB" stop-opacity="1"/>
		<stop offset="1" stop-color="#0F1505" stop-opacity="1"/>
	</linearGradient>
	<linearGradient id="SVGID_Fill18_" gradientUnits="objectBoundingBox" x1="0.500001" y1="2.70307" x2="4.90622" y2="2.70307" gradientTransform="rotate(-90.000000 0.500001 2.703074)">
		<stop offset="0" stop-color="#DAF5BF" stop-opacity="1"/>
		<stop offset="1" stop-color="#1D2314" stop-opacity="1"/>
	</linearGradient>
	<filter id="Filter_GaussianBlur12_" filterUnits="userSpaceOnUse">
		<feGaussianBlur stdDeviation="3.02362"/>
	</filter>
	<path fill="url(#SVGID_Fill18_)" stroke-linejoin="round" stroke="url(#SVGID_Stroke17_)" filter="url(#Filter_GaussianBlur12_)" d="M 161.996,78.759L 176.662,78.759C 177.767,78.759 178.662,79.6545 178.662,80.759L 178.662,87.4258C 178.662,88.5303 177.767,89.4258 176.662,89.4258L 161.996,89.4258C 160.891,89.4258 159.996,88.5303 159.996,87.4258L 159.996,80.759C 159.996,79.6545 160.891,78.759 161.996,78.759 Z "/>
	<linearGradient id="SVGID_Stroke18_" gradientUnits="objectBoundingBox" x1="0.5" y1="2.5143" x2="4.52854" y2="2.5143" gradientTransform="rotate(-90.000000 0.500000 2.514303)">
		<stop offset="0" stop-color="#3F542A" stop-opacity="1"/>
		<stop offset="0.474419" stop-color="#D0D5CB" stop-opacity="1"/>
		<stop offset="1" stop-color="#0F1505" stop-opacity="1"/>
	</linearGradient>
	<linearGradient id="SVGID_Fill19_" gradientUnits="objectBoundingBox" x1="0.5" y1="2.70314" x2="4.90622" y2="2.70314" gradientTransform="rotate(-90.000000 0.500000 2.703142)">
		<stop offset="0" stop-color="#DAF5BF" stop-opacity="1"/>
		<stop offset="1" stop-color="#1D2314" stop-opacity="1"/>
	</linearGradient>
	<filter id="Filter_GaussianBlur13_" filterUnits="userSpaceOnUse">
		<feGaussianBlur stdDeviation="3.02362"/>
	</filter>
	<path fill="url(#SVGID_Fill19_)" stroke-linejoin="round" stroke="url(#SVGID_Stroke18_)" filter="url(#Filter_GaussianBlur13_)" d="M 51.5579,79.1013L 64.1623,79.1013C 65.2669,79.1013 66.1623,79.9968 66.1623,81.1013L 66.1623,87.7681C 66.1623,88.8726 65.2669,89.7681 64.1623,89.7681L 51.5579,89.7681C 50.4533,89.7681 49.5579,88.8726 49.5579,87.7681L 49.5579,81.1013C 49.5579,79.9968 50.4533,79.1013 51.5579,79.1013 Z "/>
	<linearGradient id="SVGID_Stroke19_" gradientUnits="objectBoundingBox" x1="0.500001" y1="2.51422" x2="4.52854" y2="2.51422" gradientTransform="rotate(-90.000000 0.500001 2.514219)">
		<stop offset="0" stop-color="#3F542A" stop-opacity="1"/>
		<stop offset="0.474419" stop-color="#D0D5CB" stop-opacity="1"/>
		<stop offset="1" stop-color="#0F1505" stop-opacity="1"/>
	</linearGradient>
	<linearGradient id="SVGID_Fill20_" gradientUnits="objectBoundingBox" x1="0.500001" y1="2.70305" x2="4.90622" y2="2.70305" gradientTransform="rotate(-90.000000 0.500001 2.703051)">
		<stop offset="0" stop-color="#DAF5BF" stop-opacity="1"/>
		<stop offset="1" stop-color="#1D2314" stop-opacity="1"/>
	</linearGradient>
	<filter id="Filter_GaussianBlur14_" filterUnits="userSpaceOnUse">
		<feGaussianBlur stdDeviation="2.64567"/>
	</filter>
	<path fill="url(#SVGID_Fill20_)" stroke-linejoin="round" stroke="url(#SVGID_Stroke19_)" filter="url(#Filter_GaussianBlur14_)" d="M 72.9246,159.124L 109.085,159.124C 110.189,159.124 111.085,160.019 111.085,161.124L 111.085,167.791C 111.085,168.895 110.189,169.791 109.085,169.791L 72.9246,169.791C 71.82,169.791 70.9246,168.895 70.9246,167.791L 70.9246,161.124C 70.9246,160.019 71.82,159.124 72.9246,159.124 Z "/>
	<linearGradient id="SVGID_Stroke20_" gradientUnits="objectBoundingBox" x1="0.5" y1="2.51425" x2="4.52846" y2="2.51425" gradientTransform="rotate(-90.000000 0.500000 2.514251)">
		<stop offset="0" stop-color="#3F542A" stop-opacity="1"/>
		<stop offset="0.474419" stop-color="#D0D5CB" stop-opacity="1"/>
		<stop offset="1" stop-color="#0F1505" stop-opacity="1"/>
	</linearGradient>
	<linearGradient id="SVGID_Fill21_" gradientUnits="objectBoundingBox" x1="0.5" y1="2.70308" x2="4.90612" y2="2.70308" gradientTransform="rotate(-90.000000 0.500000 2.703081)">
		<stop offset="0" stop-color="#DAF5BF" stop-opacity="1"/>
		<stop offset="1" stop-color="#1D2314" stop-opacity="1"/>
	</linearGradient>
	<filter id="Filter_GaussianBlur15_" filterUnits="userSpaceOnUse">
		<feGaussianBlur stdDeviation="3.02362"/>
	</filter>
	<path fill="url(#SVGID_Fill21_)" stroke-linejoin="round" stroke="url(#SVGID_Stroke20_)" filter="url(#Filter_GaussianBlur15_)" d="M 122.752,158.915L 153.085,158.915C 154.189,158.915 155.085,159.81 155.085,160.915L 155.085,167.582C 155.085,168.686 154.189,169.582 153.085,169.582L 122.752,169.582C 121.647,169.582 120.752,168.686 120.752,167.582L 120.752,160.915C 120.752,159.81 121.647,158.915 122.752,158.915 Z "/>
	<linearGradient id="SVGID_Stroke21_" gradientUnits="objectBoundingBox" x1="0.5" y1="2.51419" x2="4.52846" y2="2.51419" gradientTransform="rotate(-90.000000 0.500000 2.514188)">
		<stop offset="0" stop-color="#3F542A" stop-opacity="1"/>
		<stop offset="0.474419" stop-color="#D0D5CB" stop-opacity="1"/>
		<stop offset="1" stop-color="#0F1505" stop-opacity="1"/>
	</linearGradient>
	<linearGradient id="SVGID_Fill22_" gradientUnits="objectBoundingBox" x1="0.5" y1="2.70301" x2="4.90612" y2="2.70301" gradientTransform="rotate(-90.000000 0.500000 2.703012)">
		<stop offset="0" stop-color="#DAF5BF" stop-opacity="1"/>
		<stop offset="1" stop-color="#1D2314" stop-opacity="1"/>
	</linearGradient>
	<filter id="Filter_GaussianBlur16_" filterUnits="userSpaceOnUse">
		<feGaussianBlur stdDeviation="3.02362"/>
	</filter>
	<path fill="url(#SVGID_Fill22_)" stroke-linejoin="round" stroke="url(#SVGID_Stroke21_)" filter="url(#Filter_GaussianBlur16_)" d="M 161.918,158.957L 176.585,158.957C 177.689,158.957 178.585,159.853 178.585,160.957L 178.585,167.624C 178.585,168.729 177.689,169.624 176.585,169.624L 161.918,169.624C 160.814,169.624 159.918,168.729 159.918,167.624L 159.918,160.957C 159.918,159.853 160.814,158.957 161.918,158.957 Z "/>
	<linearGradient id="SVGID_Stroke22_" gradientUnits="objectBoundingBox" x1="0.5" y1="2.51428" x2="4.52854" y2="2.51428" gradientTransform="rotate(-90.000000 0.500000 2.514282)">
		<stop offset="0" stop-color="#3F542A" stop-opacity="1"/>
		<stop offset="0.474419" stop-color="#D0D5CB" stop-opacity="1"/>
		<stop offset="1" stop-color="#0F1505" stop-opacity="1"/>
	</linearGradient>
	<linearGradient id="SVGID_Fill23_" gradientUnits="objectBoundingBox" x1="0.5" y1="2.70312" x2="4.90622" y2="2.70312" gradientTransform="rotate(-90.000000 0.500000 2.703120)">
		<stop offset="0" stop-color="#DAF5BF" stop-opacity="1"/>
		<stop offset="1" stop-color="#1D2314" stop-opacity="1"/>
	</linearGradient>
	<filter id="Filter_GaussianBlur17_" filterUnits="userSpaceOnUse">
		<feGaussianBlur stdDeviation="3.02362"/>
	</filter>
	<path fill="url(#SVGID_Fill23_)" stroke-linejoin="round" stroke="url(#SVGID_Stroke22_)" filter="url(#Filter_GaussianBlur17_)" d="M 51.4804,159.299L 64.0849,159.299C 65.1894,159.299 66.0849,160.195 66.0849,161.299L 66.0849,167.966C 66.0849,169.071 65.1894,169.966 64.0849,169.966L 51.4804,169.966C 50.3759,169.966 49.4804,169.071 49.4804,167.966L 49.4804,161.299C 49.4804,160.195 50.3759,159.299 51.4804,159.299 Z "/>
</svg>
