<svg enable-background="new 0 0 257.00 257.00" height="257" viewBox="0 0 257 257" width="257" xmlns="http://www.w3.org/2000/svg" xmlns:xlink="http://www.w3.org/1999/xlink"><radialGradient id="a" cx="130.867" cy="221.548" gradientTransform="matrix(-1 0 0 -1 261.733154 443.096862)" gradientUnits="userSpaceOnUse" r="120.827"><stop offset="0" stop-color="#a8a162"/><stop offset="1"/></radialGradient><filter id="b" filterUnits="userSpaceOnUse"><feGaussianBlur stdDeviation="7.937"/></filter><linearGradient id="c"><stop offset="0" stop-color="#ffffd6"/><stop offset=".376744" stop-color="#fffd31"/><stop offset=".740593" stop-color="#ffc817"/><stop offset="1" stop-color="#f6a700"/></linearGradient><radialGradient id="d" cx="152.21" cy="88.8578" gradientTransform="matrix(-.547191417205 -.837007498734 .837007498734 -.547191417205 161.122769233483 264.880532923969)" gradientUnits="userSpaceOnUse" r="160.925" xlink:href="#c"/><linearGradient id="e"><stop offset="0" stop-color="#fffffb"/><stop offset=".755398" stop-color="#fbfbfb"/><stop offset="1" stop-color="#b3b3b3"/></linearGradient><radialGradient id="f" cx="172.647" cy="48.8958" gradientTransform="matrix(-.999346745961 -.036139747322 .036139747322 -.999346745961 343.413346460096 103.999151309324)" gradientUnits="userSpaceOnUse" r="36.597" xlink:href="#e"/><radialGradient id="g" cx="88.8392" cy="54.7767" gradientTransform="matrix(-.996770920259 .080297774105 -.080297774105 -.996770920259 181.790044356219 102.242934994957)" gradientUnits="userSpaceOnUse" r="35.0024" xlink:href="#e"/><linearGradient id="h"><stop offset="0" stop-color="#b88000"/><stop offset="1" stop-color="#4f2f00"/></linearGradient><radialGradient id="i" cx="89.8146" cy="64.244" gradientUnits="userSpaceOnUse" r="20.5742" xlink:href="#h"/><radialGradient id="j" cx="172.607" cy="63.0265" gradientUnits="userSpaceOnUse" r="19.3567" xlink:href="#h"/><linearGradient id="k"><stop offset="0" stop-color="#fff" stop-opacity=".388235"/><stop offset="1" stop-opacity=".388235"/></linearGradient><linearGradient id="l" gradientTransform="matrix(-.089666024106 .995971889222 -.995971889222 -.089666024106 .6961472802 -.606911566251)" gradientUnits="objectBoundingBox" x1=".625437" x2="1.68321" xlink:href="#k" y1=".0146892" y2=".0146892"/><linearGradient id="m" gradientTransform="matrix(-.087098435455 .996199710169 -.996199710169 -.087098435455 .71494777436 -.558464765377)" gradientUnits="objectBoundingBox" x1=".613358" x2="1.57975" xlink:href="#k" y1=".0483514" y2=".0483514"/><radialGradient id="n" cx="101.815" cy="60.7669" gradientUnits="userSpaceOnUse" r="15.896" xlink:href="#h"/><radialGradient id="o" cx="79.8656" cy="47.4549" gradientUnits="userSpaceOnUse" r="2.64331" xlink:href="#h"/><radialGradient id="p" cx="88.9437" cy="44.2704" gradientUnits="userSpaceOnUse" r="6.75195" xlink:href="#e"/><radialGradient id="q" cx="74.6176" cy="67.4581" gradientUnits="userSpaceOnUse" r="17.3601" xlink:href="#h"/><radialGradient id="r" cx="163.556" cy="76.2357" gradientTransform="matrix(-.547856181233 -.836572534025 .836572534025 -.547856181233 189.383774802841 254.827953578253)" gradientUnits="userSpaceOnUse" r="160.915" xlink:href="#c"/><radialGradient id="s" cx="129.122" cy="164.184" gradientTransform="matrix(.21254683197 .97715088099 -.97715088099 .21254683197 262.110342946071 3.115051960471)" gradientUnits="userSpaceOnUse" r="100.716"><stop offset="0" stop-color="#9e1f01"/><stop offset=".943965" stop-color="#180906"/></radialGradient><radialGradient id="t" cx="115.604" cy="175.064" gradientUnits="userSpaceOnUse" r="35.4971"><stop offset="0" stop-color="#f1ebea"/><stop offset=".0818966" stop-color="#f77f7f"/><stop offset=".280172" stop-color="#fd1414"/><stop offset=".521552" stop-color="#f00"/><stop offset=".722198" stop-color="#ba0c01"/><stop offset=".943965" stop-color="#751803"/></radialGradient><radialGradient id="u" cx="130.809" cy="141.459" gradientUnits="userSpaceOnUse" r="78.781"><stop offset="0" stop-color="#f8f6f2"/><stop offset=".646512" stop-color="#f0eeea"/><stop offset="1" stop-color="#999a9d"/></radialGradient><g stroke-linejoin="round"><g stroke-width=".2"><path d="m39.16 220.704c0 12.658 41.0584 23.295 91.708 23.763l0 0c50.647.465 91.707-9.418 91.707-22.074l0 0c0-12.656-41.06-23.294-91.707-23.761l0 0c-1.15-.01-2.295-.015-3.435-.015l0 0c-49.0584 0-88.273 9.718-88.273 22.087z" fill="url(#a)" filter="url(#b)"/><path d="m13.0294 123.385c0 62.982 51.4866 114.04 115.0006 114.04l0 0c63.513 0 114.999-51.058 114.999-114.04l0 0c0-62.9813-51.486-114.03774-114.999-114.03774l0 0c-63.514 0-115.0006 51.05644-115.0006 114.03774z" fill="url(#d)"/><path d="m145.825 58.5951c0 5.0764.678 9.9343 1.902 14.394l0 0c18.36.7361 34.817 4.8501 46.971 11.1409l0 0c4.097-6.8865 6.584-15.7998 6.584-25.5349l0 0c0-21.8213-12.836-38.8008-31.12-38.8008l0 0c-11.548 0-24.337 16.9795-24.337 38.8008z" fill="url(#f)"/><path d="m61.1093 61.7618c0 9.7351 2.4885 18.6482 6.5842 25.5349l0 0c12.1548-6.291 28.6116-10.4048 46.9715-11.1411l0 0c1.224-4.4595 1.901-9.3174 1.901-14.3938l0 0c0-21.8213-10.207-36.4673-19.5432-38.801l0 0c-1.8264-.4561-3.6318-.6736-5.4006-.6736l0 0c-16.8611-.0017-30.5129 19.7244-30.5129 39.4746z" fill="url(#g)"/><path d="m181.433 75.1173c0-9.2752-4.265-16.794-9.527-16.794-5.219 0-9.459 7.4019-9.525 16.5769 6.697.9773 13.004 2.4202 18.775 4.2571.181-1.2942.277-2.6472.277-4.04z"/><path d="m82.1915 44.8119c-1.7131 1.3501-3.2805 3.1408-4.6516 5.2861-3.5954 5.625-5.8442 13.6897-5.8442 22.6528 0 4.2837.5141 8.3623 1.4433 12.0674 2.4956-1.0576 5.1302-2.0327 7.8877-2.918-.5202-2.0742-.809-4.3691-.809-6.7829 0-9.2752 4.2661-16.794 9.5271-16.794 5.2609 0 9.5261 7.5188 9.5261 16.794 0 .8777-.0381 1.7397-.1118 2.581 2.8089-.4292 5.6899-.7761 8.6289-1.0356.096-1.281.145-2.5867.145-3.9121 0-10.9968-3.374-20.6568-8.4795-26.1038-1.2136-.7158-2.468-1.3108-3.7578-1.7759-2.1826-.7866-4.4671-1.2011-6.8279-1.2011-2.2971 0-4.542.3925-6.6763 1.1421z" fill="url(#i)"/><path d="m162.968 46.6463c-5.106 5.4478-8.48 15.107-8.48 26.1045 0 .4134.005.8247.015 1.2339 2.678.2339 5.306.5405 7.878.9155.066-9.175 4.306-16.5769 9.525-16.5769 5.262 0 9.527 7.5188 9.527 16.794 0 1.3928-.096 2.7458-.277 4.04 3.045.969 5.941 2.0481 8.667 3.2258.586-3.0297.903-6.2678.903-9.6323 0-12.3816-4.292-23.0483-10.496-27.9389-2.133-.7496-4.38-1.1421-6.676-1.1421-3.757 0-7.319 1.0498-10.586 2.9765z" fill="url(#j)"/><path d="m99.1591 77.6983c.0737-.8413.1118-1.7033.1118-2.581 0-9.2752-4.2652-16.794-9.5261-16.794-5.261 0-9.5271 7.5188-9.5271 16.794 0 2.4138.2888 4.7087.809 6.7829 5.583-1.792 11.6707-3.2143 18.1324-4.2019z"/><path d="m102.972 62.6454c0 8.1057-3.8774 14.6757-8.6611 14.6757-4.7839 0-8.6611-6.57-8.6611-14.6757 0-8.105 3.8772-14.6758 8.6611-14.6758 4.7837 0 8.6611 6.5708 8.6611 14.6758z" fill="url(#l)"/><path d="m167.63 63.1263c0 8.106 3.877 14.6758 8.661 14.6758 4.783 0 8.662-6.5698 8.662-14.6758 0-8.1047-3.879-14.6758-8.662-14.6758-4.784 0-8.661 6.5711-8.661 14.6758z" fill="url(#m)"/><path d="m107.935 72.7508c0-10.9975-3.376-20.6567-8.4815-26.1045-1.2134-.7158-2.468-1.3105-3.7578-1.7754 1.2898.4651 2.5442 1.0601 3.7578 1.7759 5.1055 5.447 8.4795 15.107 8.4795 26.1038 0 1.3254-.049 2.6311-.144 3.9118.096-1.2807.146-2.5864.146-3.9116z" fill="url(#n)"/><path d="m82.191 44.8119c-1.7129 1.3503-3.28 3.1408-4.6511 5.2861 1.3711-2.1453 2.9385-3.936 4.6511-5.2861z" fill="url(#o)"/><path d="m82.1915 44.8119c2.1343-.7496 4.3792-1.1421 6.6763-1.1421 2.3608 0 4.6453.4145 6.8279 1.2011-2.1826-.7866-4.4673-1.2016-6.8281-1.2016-2.2972 0-4.5423.3926-6.6761 1.1426z" fill="url(#p)"/><path d="m73.139 84.8182c-.9292-3.7051-1.4433-7.7837-1.4433-12.0674 0-8.9631 2.2488-17.0278 5.8442-22.6528-3.5957 5.6252-5.8445 13.6894-5.8445 22.6526 0 4.2839.5142 8.3625 1.4436 12.0676z" fill="url(#q)"/><path d="m128.056 10.037c-63.5136 0-115.0003 51.0561-115.0003 114.038 0 62.982 51.4867 114.039 115.0003 114.039 63.513 0 115-51.057 115-114.039 0-62.9819-51.487-114.038-115-114.038zm-81.5005 80.6643c0-25.1975 35.1465-45.625 78.5005-45.625 43.353 0 78.499 20.4275 78.499 45.625 0 25.1977-35.145 45.6247-78.499 45.6247-43.355 0-78.5005-20.427-78.5005-45.6247z" fill="url(#r)"/></g><path d="m110.638 22.8275s-45.1364 10.8772-62.7175 48.4463c6.2388-44.2354 62.7175-48.4463 62.7175-48.4463z" fill="#643d00" stroke="#653d00" stroke-linecap="round" stroke-width="7.224"/><path d="m155.347 27.494s40.619 10.1968 56.839 48.4463c-12.023-43.2141-56.839-48.4463-56.839-48.4463z" fill="#643d00" stroke="#653d00" stroke-linecap="round" stroke-width="7.224"/><path d="m59.8129 107.745c-1.5581 6.087-.8709 22.39.5495 33.605 1.4207 11.216 3.574 17.346 6.5701 22.997s6.8347 10.824 13.552 15.2c6.7173 4.378 16.3137 7.959 27.8295 9.749 11.515 1.791 24.95 1.791 36.705-.597 11.755-2.387 21.831-7.162 30.228-13.33 8.397-6.167 15.114-13.727 19.433-21.088 4.318-7.361 6.237-14.524 6.868-22.308s-.026-16.189-1.104-21.213c-1.078-5.023-2.577-6.665-5.364-6.441-2.786.224-6.859 2.313-9.705 4.029-2.847 1.716-4.466 3.059-12.788 4.812-8.321 1.754-23.345 3.917-33.334 4.987-9.989 1.069-14.942 1.044-20.778 1.131-5.835.087-12.552.286-20.9488-1.256-8.3969-1.542-18.4729-4.825-25.4126-8.53-6.9396-3.705-10.7426-7.833-12.3007-1.747z" fill="url(#s)" stroke="#d98004" stroke-width="4"/><path d="m125.804 154.231c12.519 0 22.666 7.462 22.666 16.667 0 9.204-10.148 16.667-22.666 16.667-12.519 0-22.667-7.463-22.667-16.667 0-9.205 10.148-16.667 22.667-16.667z" fill="url(#t)" stroke-width=".2"/><path d="m63.1176 109.634c.8247 4.775 4.0463 15.622 13.4433 25.624 9.397 10.001 24.9691 19.156 38.3431 23.401 13.374 4.244 24.55 3.577 36.541-1.756 11.99-5.333 24.796-15.333 33.378-25.728 8.581-10.395 12.937-21.184 11.417-24.231-1.521-3.046-8.919 1.65-19.721 5.322s-25.008 6.318-39.445 7.725c-14.436 1.406-29.103 1.573-41.081-.724-11.9775-2.297-21.2666-7.059-26.6972-10.087-5.4307-3.028-7.003-4.323-6.1782.454z" fill="url(#u)" stroke-width=".2"/><path d="m76.4149 96.9149s-19.3296 3.6241-26.8589 16.1431c2.6719-14.7398 26.8589-16.1431 26.8589-16.1431z" fill="#d98004" stroke="#d98004" stroke-linecap="round" stroke-width="3"/><path d="m211.208 116.272s-10.216-16.8046-24.587-19.4282c14.734-2.7053 24.587 19.4282 24.587 19.4282z" fill="#d98004" stroke="#d98004" stroke-linecap="round" stroke-width="3"/></g></svg>