<?xml version="1.0" encoding="UTF-8" standalone="no"?>
<svg
        xmlns:dc="http://purl.org/dc/elements/1.1/"
        xmlns:cc="http://creativecommons.org/ns#"
        xmlns:rdf="http://www.w3.org/1999/02/22-rdf-syntax-ns#"
        xmlns="http://www.w3.org/2000/svg"
        xmlns:sodipodi="http://sodipodi.sourceforge.net/DTD/sodipodi-0.dtd"
        xmlns:inkscape="http://www.inkscape.org/namespaces/inkscape"
        version="1.1"
        width="48"
        height="48"
        viewBox="0 0 48 48"
        enable-background="new 0 0 257.00 257.00"
        xml:space="preserve"
        id="svg157"
        sodipodi:docname="log1icon.svg"
        inkscape:version="0.92.2 (5c3e80d, 2017-08-06)"><metadata
     id="metadata163"><rdf:RDF><cc:Work
         rdf:about=""><dc:format>image/svg+xml</dc:format><dc:type
           rdf:resource="http://purl.org/dc/dcmitype/StillImage" /><dc:title></dc:title></cc:Work></rdf:RDF></metadata><defs
     id="defs161" /><sodipodi:namedview
     pagecolor="#ffffff"
     bordercolor="#666666"
     borderopacity="1"
     objecttolerance="10"
     gridtolerance="10"
     guidetolerance="10"
     inkscape:pageopacity="0"
     inkscape:pageshadow="2"
     inkscape:window-width="640"
     inkscape:window-height="480"
     id="namedview159"
     showgrid="false"
     fit-margin-top="0"
     fit-margin-left="0"
     fit-margin-right="0"
     fit-margin-bottom="0"
     inkscape:zoom="0.91828794"
     inkscape:cx="-56.627429"
     inkscape:cy="128.5"
     inkscape:current-layer="svg157" /><radialGradient
     id="SVGID_Fill1_"
     cx="128.228"
     cy="220.222"
     r="115.574"
     gradientUnits="userSpaceOnUse"
     gradientTransform="rotate(180,-17.696189,226.21142)"><stop
       offset="0"
       stop-color="#626CA8"
       stop-opacity="1"
       id="stop2" /><stop
       offset="1"
       stop-color="#000000"
       stop-opacity="1"
       id="stop4" /></radialGradient><filter
     id="Filter_GaussianBlur1_"
     filterUnits="userSpaceOnUse"><feGaussianBlur
       stdDeviation="7.937"
       id="feGaussianBlur7" /></filter><g
     id="g155"
     transform="matrix(0.18963438,0,0,0.19742114,0.51833714,1.0218642)"><radialGradient
       id="SVGID_Fill2_"
       cx="148.32401"
       cy="95.851402"
       r="153.92799"
       gradientUnits="userSpaceOnUse"
       gradientTransform="rotate(-123.17461,148.32397,95.85141)"><stop
         offset="0"
         stop-color="#969AD9"
         stop-opacity="1"
         id="stop12" /><stop
         offset="0.378049"
         stop-color="#323CE7"
         stop-opacity="1"
         id="stop14" /><stop
         offset="0.740593"
         stop-color="#131ECB"
         stop-opacity="1"
         id="stop16" /><stop
         offset="1"
         stop-color="#0803BD"
         stop-opacity="1"
         id="stop18" /></radialGradient><path
       d="m 15.1953,128.878 c 0,60.243 49.2481,109.081 110.0007,109.081 v 0 c 60.751,0 109.999,-48.838 109.999,-109.081 v 0 c 0,-60.2436 -49.248,-109.0801 -109.999,-109.0801 v 0 c -60.7526,0 -110.0007,48.8365 -110.0007,109.0801 z"
       id="path21"
       style="fill:url(#SVGID_Fill2_);stroke-width:0.2;stroke-linejoin:round"
       inkscape:connector-curvature="0" /><path
       d="m 102.096,15.5035 c 0,0 -43.1736,10.4046 -59.9905,46.3401 5.9677,-42.312 59.9905,-46.3401 59.9905,-46.3401 z"
       id="path23"
       inkscape:connector-curvature="0"
       style="fill:#643d00;fill-opacity:1;stroke:#653d00;stroke-width:7.22399998;stroke-linecap:round;stroke-linejoin:round;stroke-opacity:1" /><path
       d="m 146.223,13.5033 c 0,0 38.853,9.7539 54.368,46.3403 -11.5,-41.3355 -54.368,-46.3403 -54.368,-46.3403 z"
       id="path25"
       inkscape:connector-curvature="0"
       style="fill:#643d00;fill-opacity:1;stroke:#653d00;stroke-width:7.22399998;stroke-linecap:round;stroke-linejoin:round;stroke-opacity:1" /><radialGradient
       id="SVGID_Fill3_"
       cx="162.466"
       cy="76.009102"
       r="35.006199"
       gradientUnits="userSpaceOnUse"
       gradientTransform="rotate(-177.92888,162.46606,76.009125)"><stop
         offset="0"
         stop-color="#FFFFFB"
         stop-opacity="1"
         id="stop27" /><stop
         offset="0.755398"
         stop-color="#FBFBFB"
         stop-opacity="1"
         id="stop29" /><stop
         offset="1"
         stop-color="#B3B3B3"
         stop-opacity="1"
         id="stop31" /></radialGradient><path
       d="m 136.811,85.2867 c 0,4.8557 0.647,9.5025 1.818,13.7681 v 0 c 17.563,0.7043 33.304,4.6392 44.93,10.6572 v 0 c 3.918,-6.588 6.297,-15.1135 6.297,-24.4253 v 0 c 0,-20.8723 -12.277,-37.1138 -29.767,-37.1138 v 0 c -11.046,0 -23.278,16.2415 -23.278,37.1138 z"
       id="path34"
       style="fill:url(#SVGID_Fill3_);stroke-width:0.2;stroke-linejoin:round"
       inkscape:connector-curvature="0" /><radialGradient
       id="SVGID_Fill4_"
       cx="154.69701"
       cy="75.499603"
       r="45.233501"
       gradientUnits="userSpaceOnUse"
       gradientTransform="rotate(-80.475266,154.69653,75.499603)"><stop
         offset="0"
         stop-color="#B88000"
         stop-opacity="1"
         id="stop36" /><stop
         offset="1"
         stop-color="#4F2F00"
         stop-opacity="1"
         id="stop38" /></radialGradient><path
       d="m 153.194,50.3592 c -4.883,5.211 -8.111,14.45 -8.111,24.9695 v 0 c 0,10.6255 3.317,19.9326 8.285,25.1113 v 0 c 4.953,0.753 9.692,1.795 14.123,3.05 v 0 c 7.1,-3.6869 12.255,-14.8959 12.255,-28.1613 v 0 c 0,-11.8433 -4.106,-22.0461 -10.04,-26.7241 v 0 c -2.041,-0.7171 -4.189,-1.0925 -6.386,-1.0925 v 0 c -3.593,0 -7.001,1.0041 -10.126,2.8471 z"
       id="path41"
       style="fill:url(#SVGID_Fill4_);stroke-width:0.2;stroke-linejoin:round"
       inkscape:connector-curvature="0" /><path
       d="m 152.632,77.5921 c 0,8.8721 4.08,16.064 9.112,16.064 5.033,0 9.113,-7.1919 9.113,-16.064 0,-8.8715 -4.08,-16.0634 -9.113,-16.0634 -5.032,0 -9.112,7.1919 -9.112,16.0634 z"
       id="path43"
       inkscape:connector-curvature="0"
       style="fill:#000000;fill-opacity:1;stroke-width:0.2;stroke-linejoin:round" /><linearGradient
       id="SVGID_Fill5_"
       gradientUnits="userSpaceOnUse"
       x1="218.44907"
       y1="41.055573"
       x2="239.29201"
       y2="41.055573"
       gradientTransform="scale(0.76821923,1.3017118)"><stop
         offset="0"
         stop-color="#FFFFFF"
         stop-opacity="0.388235"
         id="stop45" /><stop
         offset="1"
         stop-color="#000000"
         stop-opacity="0.388235"
         id="stop47" /></linearGradient><path
       d="m 157.654,66.1229 c 0,7.7534 3.708,14.0376 8.284,14.0376 4.575,0 8.285,-6.2842 8.285,-14.0376 0,-7.7527 -3.71,-14.0378 -8.285,-14.0378 -4.576,0 -8.284,6.2851 -8.284,14.0378 z"
       id="path50"
       style="fill:url(#SVGID_Fill5_);stroke-width:0.2;stroke-linejoin:round"
       inkscape:connector-curvature="0" /><radialGradient
       id="SVGID_Fill6_"
       cx="82.303001"
       cy="78.605301"
       r="33.480801"
       gradientUnits="userSpaceOnUse"
       gradientTransform="rotate(175.39481,82.302979,78.605316)"><stop
         offset="0"
         stop-color="#FFFFFB"
         stop-opacity="1"
         id="stop52" /><stop
         offset="0.755398"
         stop-color="#FBFBFB"
         stop-opacity="1"
         id="stop54" /><stop
         offset="1"
         stop-color="#B3B3B3"
         stop-opacity="1"
         id="stop56" /></radialGradient><path
       d="m 55.7786,85.2867 c 0,9.3118 2.3803,17.8373 6.2981,24.4253 v 0 c 11.6262,-6.018 27.3674,-9.9529 44.9293,-10.6572 v 0 c 1.171,-4.2656 1.818,-8.9124 1.818,-13.7681 v 0 c 0,-20.8723 -9.7635,-34.8816 -18.6931,-37.1138 v 0 c -1.7471,-0.4362 -3.4742,-0.6442 -5.1661,-0.6442 v 0 C 68.8369,47.5267 55.7786,66.3954 55.7786,85.2867 Z"
       id="path59"
       style="fill:url(#SVGID_Fill6_);stroke-width:0.2;stroke-linejoin:round"
       inkscape:connector-curvature="0" /><radialGradient
       id="SVGID_Fill7_"
       cx="83.221703"
       cy="75.499603"
       r="17.7908"
       gradientUnits="userSpaceOnUse"
       gradientTransform="rotate(180,83.22168,75.499603)"><stop
         offset="0"
         stop-color="#B88000"
         stop-opacity="1"
         id="stop61" /><stop
         offset="1"
         stop-color="#4F2F00"
         stop-opacity="1"
         id="stop63" /></radialGradient><path
       d="m 75.9292,48.6046 c -5.9346,4.678 -10.0391,14.8808 -10.0391,26.7241 v 0 c 0,13.2654 5.1541,24.4744 12.2549,28.1613 v 0 c 4.4312,-1.255 9.169,-2.297 14.124,-3.05 v 0 c 4.9673,-5.1787 8.285,-14.4858 8.285,-25.1113 v 0 c 0,-10.5195 -3.2293,-19.7585 -8.1126,-24.9695 v 0 c -3.1252,-1.843 -6.533,-2.8471 -10.1257,-2.8471 v 0 c -2.197,0 -4.3448,0.3754 -6.3865,1.0925 z"
       id="path66"
       style="fill:url(#SVGID_Fill7_);stroke-width:0.2;stroke-linejoin:round"
       inkscape:connector-curvature="0" /><path
       d="m 82.3154,47.5116 c -2.1972,0 -4.3447,0.3757 -6.3852,1.0927 -5.9356,4.678 -10.0401,14.8809 -10.0401,26.7242 0,13.2653 5.1538,24.4743 12.2547,28.1625 4.4314,-1.256 9.1692,-2.297 14.1242,-3.05 4.9671,-5.1799 8.284,-14.4871 8.284,-25.1125 0,-10.5186 -3.2278,-19.7588 -8.1118,-24.9688 -3.1253,-1.8437 -6.533,-2.8481 -10.1258,-2.8481 z"
       id="path68"
       inkscape:connector-curvature="0"
       style="fill:none;stroke:#5c3900;stroke-width:1.33333004;stroke-linejoin:round;stroke-opacity:1" /><path
       d="m 92.2666,77.5921 c 0,8.8721 -4.0796,16.064 -9.1121,16.064 -5.0324,0 -9.113,-7.1919 -9.113,-16.064 0,-8.8715 4.0806,-16.0634 9.113,-16.0634 5.0325,0 9.1121,7.1919 9.1121,16.0634 z"
       id="path70"
       inkscape:connector-curvature="0"
       style="fill:#000000;fill-opacity:1;stroke-width:0.2;stroke-linejoin:round" /><linearGradient
       id="SVGID_Fill8_"
       gradientUnits="userSpaceOnUse"
       x1="116.63394"
       y1="39.976177"
       x2="139.44801"
       y2="39.976177"
       gradientTransform="scale(0.76822018,1.3017101)"><stop
         offset="0"
         stop-color="#FFFFFF"
         stop-opacity="0.388235"
         id="stop72" /><stop
         offset="1"
         stop-color="#000000"
         stop-opacity="0.388235"
         id="stop74" /></linearGradient><path
       d="m 95.8066,65.6624 c 0,7.7535 -3.7087,14.0379 -8.2846,14.0379 -4.5757,0 -8.2845,-6.2844 -8.2845,-14.0379 0,-7.7524 3.7088,-14.0376 8.2845,-14.0376 4.5759,0 8.2846,6.2852 8.2846,14.0376 z"
       id="path77"
       style="fill:url(#SVGID_Fill8_);stroke-width:0.2;stroke-linejoin:round"
       inkscape:connector-curvature="0" /><path
       d="m 130.156,135.56 c 2.477,-3.849 6.235,-8.468 10.079,-11.658 3.844,-3.189 7.773,-4.949 11.788,-5.059 4.014,-0.11 8.114,1.43 11.019,4.07 2.904,2.639 4.612,6.378 4.868,8.578 0.257,2.2 -0.939,2.859 -2.135,1.76 -1.196,-1.1 -2.392,-3.96 -4.869,-6.159 -2.477,-2.2 -6.235,-3.74 -10.762,-1.87 -4.528,1.87 -9.823,7.149 -13.069,11.328 -3.246,4.179 -4.442,7.259 -6.065,8.578 -1.623,1.32 -3.673,0.88 -4.1,-0.88 -0.427,-1.759 0.769,-4.838 3.246,-8.688 z"
       id="path79"
       inkscape:connector-curvature="0"
       style="fill:#fe0c0c;fill-opacity:1;stroke:#d98004;stroke-width:4;stroke-linecap:round;stroke-linejoin:round;stroke-opacity:1" /><linearGradient
       id="SVGID_Fill9_"
       gradientUnits="userSpaceOnUse"
       x1="6.3240147"
       y1="170.05511"
       x2="78.951897"
       y2="170.05511"
       gradientTransform="scale(0.93178856,1.0732048)"><stop
         offset="0.506977"
         stop-color="#E7E8EE"
         stop-opacity="1"
         id="stop81" /><stop
         offset="1"
         stop-color="#4D5793"
         stop-opacity="1"
         id="stop83" /></linearGradient><path
       d="m 55.6875,146.954 c -3.5554,-0.555 -7.9998,-1 -11.8887,-0.222 -3.8889,0.778 -7.2221,2.778 -11.1394,5.249 -3.9172,2.471 -8.4182,5.414 -12.1687,8.343 -3.7505,2.93 -6.7505,5.847 -8.5837,7.888 -1.8333,2.042 -2.50002,3.209 -2.81252,4.084 -0.3125,0.875 -0.27075,1.458 0.875,1.875 1.14572,0.416 3.39572,0.666 5.70822,0.166 2.3125,-0.5 4.6875,-1.75 7.4034,-3.013 2.7158,-1.263 5.7724,-2.538 7.4389,-2.399 1.6668,0.138 1.9434,1.692 1.5264,3.691 -0.4172,1.999 -1.5283,4.443 -3.5073,7.825 -1.9793,3.383 -4.8267,7.702 -7.3753,12.125 -2.5486,4.424 -4.7986,8.952 -4.8193,11.903 -0.0208,2.952 2.1875,4.327 4.9582,2.236 2.771,-2.09 6.1043,-7.646 8.6529,-12.083 2.5486,-4.438 4.3125,-7.757 5.6945,-9.194 1.3819,-1.438 2.3819,-0.994 1.9375,0.784 -0.4445,1.778 -2.3334,4.889 -4.1113,8.556 -1.7776,3.666 -3.4443,7.889 -4.4375,11.215 -0.9929,3.326 -1.3122,5.757 -0.8957,7.41 0.4167,1.653 1.5693,2.528 2.9028,1.75 1.3333,-0.778 2.8472,-3.209 5.1597,-7.646 2.3125,-4.438 5.4236,-10.882 6.979,-14.104 1.5556,-3.222 1.5556,-3.222 1.8266,-2.993 0.2708,0.229 0.8125,0.687 0.4165,3.083 -0.3957,2.396 -1.729,6.729 -2.3889,10.945 -0.6596,4.215 -0.6457,8.312 -0.1943,10.861 0.4514,2.548 1.3403,3.548 2.5071,3.326 1.1665,-0.222 2.6108,-1.666 3.6665,-4.722 1.0556,-3.056 1.7221,-7.722 2.6181,-11.021 0.8958,-3.298 2.0208,-5.229 3.9165,-7.639 1.896,-2.409 4.5625,-5.299 6.9727,-7.888 2.4104,-2.589 4.564,-4.879 6.1128,-7.58 1.5486,-2.702 2.4919,-5.814 2.8252,-8.481 0.3335,-2.667 0.0566,-4.887 -1.1929,-8.553 -1.2495,-3.666 -3.4717,-8.777 -5.9163,-11.665 -2.4443,-2.889 -5.111,-3.556 -8.6667,-4.112 z"
       id="path86"
       style="fill:url(#SVGID_Fill9_);stroke:#a9adc9;stroke-linecap:round;stroke-linejoin:round;stroke-opacity:1"
       inkscape:connector-curvature="0" /><linearGradient
       id="SVGID_Fill10_"
       gradientUnits="userSpaceOnUse"
       x1="271.4313"
       y1="174.30557"
       x2="344.05948"
       y2="174.30557"
       gradientTransform="scale(0.93178734,1.0732063)"><stop
         offset="0.506977"
         stop-color="#E7E8EE"
         stop-opacity="1"
         id="stop88" /><stop
         offset="1"
         stop-color="#4D5793"
         stop-opacity="1"
         id="stop90" /></linearGradient><path
       d="m 203.121,151.516 c 3.556,-0.556 8,-1 11.889,-0.222 3.889,0.777 7.222,2.777 11.139,5.249 3.917,2.471 8.418,5.413 12.169,8.343 3.75,2.93 6.75,5.846 8.584,7.888 1.833,2.042 2.5,3.208 2.812,4.083 0.313,0.875 0.271,1.459 -0.875,1.875 -1.146,0.417 -3.396,0.667 -5.708,0.167 -2.313,-0.5 -4.688,-1.75 -7.403,-3.013 -2.716,-1.263 -5.773,-2.539 -7.439,-2.4 -1.667,0.139 -1.944,1.693 -1.527,3.692 0.418,1.999 1.529,4.443 3.508,7.825 1.979,3.382 4.826,7.701 7.375,12.125 2.548,4.424 4.798,8.951 4.819,11.903 0.021,2.951 -2.187,4.326 -4.958,2.236 -2.771,-2.09 -6.104,-7.646 -8.653,-12.084 -2.548,-4.437 -4.312,-7.756 -5.694,-9.194 -1.382,-1.437 -2.382,-0.993 -1.938,0.785 0.445,1.778 2.334,4.889 4.112,8.555 1.777,3.667 3.444,7.889 4.437,11.216 0.993,3.326 1.312,5.757 0.896,7.409 -0.417,1.653 -1.57,2.528 -2.903,1.75 -1.333,-0.777 -2.847,-3.208 -5.16,-7.646 -2.312,-4.437 -5.423,-10.881 -6.979,-14.104 -1.556,-3.222 -1.556,-3.222 -1.826,-2.993 -0.271,0.23 -0.813,0.688 -0.417,3.084 0.396,2.396 1.729,6.729 2.389,10.944 0.66,4.215 0.646,8.313 0.194,10.861 -0.451,2.549 -1.34,3.549 -2.507,3.327 -1.166,-0.223 -2.611,-1.667 -3.832,-4.621 -1.222,-2.954 -2.221,-7.417 -4.179,-11.44 -1.958,-4.023 -4.875,-7.606 -6.687,-10.044 -1.813,-2.437 -2.521,-3.729 -3.869,-5.594 -1.348,-1.864 -3.337,-4.302 -4.802,-7.078 -1.466,-2.775 -2.409,-5.888 -2.743,-8.555 -0.333,-2.666 -0.056,-4.887 1.193,-8.552 1.25,-3.666 3.472,-8.777 5.917,-11.666 2.444,-2.889 5.11,-3.556 8.666,-4.111 z"
       id="path93"
       style="fill:url(#SVGID_Fill10_);stroke:#a9adc9;stroke-linecap:round;stroke-linejoin:round;stroke-opacity:1"
       inkscape:connector-curvature="0" /><filter
       id="Filter_GaussianBlur2_"
       filterUnits="userSpaceOnUse"><feGaussianBlur
         stdDeviation="2.83465"
         id="feGaussianBlur95" /></filter><path
       d="m 190.821,166.468 -2.25,6.75 3,10 7,9 8,8.5 3,8 1.75,9.5"
       id="path98"
       inkscape:connector-curvature="0"
       style="fill:none;stroke:#16171f;stroke-width:4;stroke-linecap:round;stroke-linejoin:round;stroke-opacity:1;filter:url(#Filter_GaussianBlur2_)" /><filter
       id="Filter_GaussianBlur3_"
       filterUnits="userSpaceOnUse"><feGaussianBlur
         stdDeviation="2.4567"
         id="feGaussianBlur100" /></filter><path
       d="m 215.571,192.218 2,5 5.75,10.75 3.75,8.5"
       id="path103"
       inkscape:connector-curvature="0"
       style="fill:none;stroke:#16171f;stroke-width:3;stroke-linecap:round;stroke-linejoin:round;stroke-opacity:1;filter:url(#Filter_GaussianBlur3_)" /><filter
       id="Filter_GaussianBlur4_"
       filterUnits="userSpaceOnUse"><feGaussianBlur
         stdDeviation="2.4567"
         id="feGaussianBlur105" /></filter><path
       d="m 224.071,187.343 4.75,6.75 5.75,9.25 3.75,6.5"
       id="path108"
       inkscape:connector-curvature="0"
       style="fill:none;stroke:#16171f;stroke-width:3;stroke-linecap:round;stroke-linejoin:round;stroke-opacity:1;filter:url(#Filter_GaussianBlur4_)" /><filter
       id="Filter_GaussianBlur5_"
       filterUnits="userSpaceOnUse"><feGaussianBlur
         stdDeviation="2.83465"
         id="feGaussianBlur110" /></filter><path
       d="m 229.071,170.343 6.5,2.75 7.5,3.5 h 3"
       id="path113"
       inkscape:connector-curvature="0"
       style="fill:none;stroke:#16171f;stroke-width:5;stroke-linecap:round;stroke-linejoin:round;stroke-opacity:1;filter:url(#Filter_GaussianBlur5_)" /><linearGradient
       id="SVGID_Fill11_"
       gradientUnits="userSpaceOnUse"
       x1="12.561801"
       y1="2.5186536"
       x2="25.568026"
       y2="2.5186536"
       gradientTransform="scale(1.1994187,0.8337372)"><stop
         offset="0.506977"
         stop-color="#E7E8EE"
         stop-opacity="1"
         id="stop115" /><stop
         offset="1"
         stop-color="#4D5793"
         stop-opacity="1"
         id="stop117" /></linearGradient><filter
       id="Filter_GaussianBlur6_"
       filterUnits="userSpaceOnUse"><feGaussianBlur
         stdDeviation="2.64567"
         id="feGaussianBlur120" /></filter><path
       d="m 40.5767,151.011 -12,6.666 -9,6.334 -6.3335,6"
       id="path123"
       style="fill:url(#SVGID_Fill11_);stroke:#040618;stroke-width:3;stroke-linecap:round;stroke-linejoin:round;stroke-opacity:1;filter:url(#Filter_GaussianBlur6_)"
       inkscape:connector-curvature="0" /><linearGradient
       id="SVGID_Fill12_"
       gradientUnits="userSpaceOnUse"
       x1="8.0130014"
       y1="3.411701"
       x2="24.853439"
       y2="3.411701"
       gradientTransform="scale(0.73631659,1.3581115)"><stop
         offset="0.506977"
         stop-color="#E7E8EE"
         stop-opacity="1"
         id="stop125" /><stop
         offset="1"
         stop-color="#4D5793"
         stop-opacity="1"
         id="stop127" /></linearGradient><filter
       id="Filter_GaussianBlur7_"
       filterUnits="userSpaceOnUse"><feGaussianBlur
         stdDeviation="2.64567"
         id="feGaussianBlur130" /></filter><path
       d="m 33.2432,176.344 -7.3333,12.333 -5.6667,9.667 -2,5.667"
       id="path133"
       style="fill:url(#SVGID_Fill12_);stroke:#040618;stroke-width:3;stroke-linecap:round;stroke-linejoin:round;stroke-opacity:1;filter:url(#Filter_GaussianBlur7_)"
       inkscape:connector-curvature="0" /><linearGradient
       id="SVGID_Fill13_"
       gradientUnits="userSpaceOnUse"
       x1="5.957531"
       y1="2.2476552"
       x2="21.232668"
       y2="2.2476552"
       gradientTransform="scale(0.65464942,1.5275351)"><stop
         offset="0.506977"
         stop-color="#E7E8EE"
         stop-opacity="1"
         id="stop135" /><stop
         offset="1"
         stop-color="#4D5793"
         stop-opacity="1"
         id="stop137" /></linearGradient><filter
       id="Filter_GaussianBlur8_"
       filterUnits="userSpaceOnUse"><feGaussianBlur
         stdDeviation="2.83465"
         id="feGaussianBlur140" /></filter><path
       d="m 40.2432,185.677 -5.3333,10 -3.6667,9.334 -2,6.333"
       id="path143"
       style="fill:url(#SVGID_Fill13_);stroke:#040618;stroke-width:3;stroke-linecap:round;stroke-linejoin:round;stroke-opacity:1;filter:url(#Filter_GaussianBlur8_)"
       inkscape:connector-curvature="0" /><linearGradient
       id="SVGID_Fill14_"
       gradientUnits="userSpaceOnUse"
       x1="-2.4902081"
       y1="1.6174263"
       x2="15.027174"
       y2="1.6174263"
       gradientTransform="scale(0.388186,2.5760847)"><stop
         offset="0.506977"
         stop-color="#E7E8EE"
         stop-opacity="1"
         id="stop145" /><stop
         offset="1"
         stop-color="#4D5793"
         stop-opacity="1"
         id="stop147" /></linearGradient><filter
       id="Filter_GaussianBlur9_"
       filterUnits="userSpaceOnUse"><feGaussianBlur
         stdDeviation="2.83465"
         id="feGaussianBlur150" /></filter><path
       d="m 47.9099,190.344 -2.6667,11 -0.6665,6 -0.3335,7.333"
       id="path153"
       style="fill:url(#SVGID_Fill14_);stroke:#040618;stroke-width:3;stroke-linecap:round;stroke-linejoin:round;stroke-opacity:1;filter:url(#Filter_GaussianBlur9_)"
       inkscape:connector-curvature="0" /></g></svg>