<svg enable-background="new 0 0 257.00 257.00" height="257" viewBox="0 0 257 257" width="257" xmlns="http://www.w3.org/2000/svg" xmlns:xlink="http://www.w3.org/1999/xlink"><radialGradient id="a" cx="128.228" cy="220.222" gradientTransform="matrix(-1 0 0 -1 256.455078 440.44403)" gradientUnits="userSpaceOnUse" r="115.574"><stop offset="0" stop-color="#626ca8"/><stop offset="1"/></radialGradient><filter id="b" filterUnits="userSpaceOnUse"><feGaussianBlur stdDeviation="7.937"/></filter><radialGradient id="c" cx="148.324" cy="95.8514" gradientTransform="matrix(-.547192308325 -.837006916166 .837006916166 -.547192308325 149.257420165941 272.44875720236)" gradientUnits="userSpaceOnUse" r="153.928"><stop offset="0" stop-color="#969ad9"/><stop offset=".378049" stop-color="#323ce7"/><stop offset=".740593" stop-color="#131ecb"/><stop offset="1" stop-color="#0803bd"/></radialGradient><linearGradient id="d"><stop offset="0" stop-color="#fffffb"/><stop offset=".755398" stop-color="#fbfbfb"/><stop offset="1" stop-color="#b3b3b3"/></linearGradient><radialGradient id="e" cx="162.466" cy="76.0091" gradientTransform="matrix(-.9993467365 -.036140008951 .036140008951 -.9993467365 322.079024392556 157.840121020103)" gradientUnits="userSpaceOnUse" r="35.0062" xlink:href="#d"/><linearGradient id="f"><stop offset="0" stop-color="#b88000"/><stop offset="1" stop-color="#4f2f00"/></linearGradient><radialGradient id="g" cx="154.697" cy="75.4996" gradientTransform="matrix(.165473359841 -.986214260282 .986214260282 .165473359841 54.639592804564 215.570356885687)" gradientUnits="userSpaceOnUse" r="45.2335" xlink:href="#f"/><linearGradient id="h"><stop offset="0" stop-color="#fff" stop-opacity=".388235"/><stop offset="1" stop-opacity=".388235"/></linearGradient><linearGradient id="i" gradientTransform="matrix(-.087101617269 .996199431976 -.996199431976 -.087101617269 .714950981407 -.558469603703)" gradientUnits="objectBoundingBox" x1=".613361" x2="1.57974" xlink:href="#h" y1=".0483491" y2=".0483491"/><radialGradient id="j" cx="82.303" cy="78.6053" gradientTransform="matrix(-.996771604135 .080289284398 -.080289284398 -.996771604135 170.65141597449 150.348815635151)" gradientUnits="userSpaceOnUse" r="33.4808" xlink:href="#d"/><radialGradient id="k" cx="83.2217" cy="75.4996" gradientTransform="matrix(-1 0 0 -1 166.44336 150.999206)" gradientUnits="userSpaceOnUse" r="17.7908" xlink:href="#f"/><linearGradient id="l" gradientTransform="matrix(-.089663503572 .995972116139 -.995972116139 -.089663503572 .696160306547 -.606911089358)" gradientUnits="objectBoundingBox" x1=".625444" x2="1.68321" xlink:href="#h" y1=".014696" y2=".014696"/><linearGradient id="m"><stop offset=".506977" stop-color="#e7e8ee"/><stop offset="1" stop-color="#4d5793"/></linearGradient><linearGradient id="n" gradientUnits="objectBoundingBox" x1="-.039778" x2="1.02317" xlink:href="#m" y1=".500379" y2=".500379"/><linearGradient id="o" gradientTransform="matrix(-1 0 0 -1 2.079556 1.000758)" gradientUnits="objectBoundingBox" x1="1.03978" x2="2.10273" xlink:href="#m" y1=".500379" y2=".500379"/><filter id="p" filterUnits="userSpaceOnUse"><feGaussianBlur stdDeviation="2.83465"/></filter><filter id="q" filterUnits="userSpaceOnUse"><feGaussianBlur stdDeviation="2.4567"/></filter><linearGradient id="r" gradientUnits="objectBoundingBox" x1=".542686" x2="1.01829" xlink:href="#m" y1=".175434" y2=".175434"/><filter id="s" filterUnits="userSpaceOnUse"><feGaussianBlur stdDeviation="2.64567"/></filter><linearGradient id="t" gradientUnits="objectBoundingBox" x1=".411117" x2="1.1" xlink:href="#m" y1=".222894" y2=".222894"/><linearGradient id="u" gradientUnits="objectBoundingBox" x1=".378795" x2="1.13636" xlink:href="#m" y1=".194805" y2=".194805"/><linearGradient id="v" gradientUnits="objectBoundingBox" x1="-.136361" x2="1.40908" xlink:href="#m" y1=".226028" y2=".226028"/><g stroke-linejoin="round"><path d="m40.5083 219.415c0 12.107 39.2734 22.282 87.7207 22.729l0 0c48.445.445 87.719-9.008 87.719-21.114l0 0c0-12.106-39.274-22.281-87.719-22.728l0 0c-1.1-.009-2.196-.015-3.286-.015l0 0c-46.9249 0-84.4347 9.296-84.4347 21.128z" fill="url(#a)" filter="url(#b)" stroke-width=".2"/><path d="m15.1953 128.878c0 60.243 49.2481 109.081 110.0007 109.081l0 0c60.751 0 109.999-48.838 109.999-109.081l0 0c0-60.2436-49.248-109.0801-109.999-109.0801l0 0c-60.7526 0-110.0007 48.8365-110.0007 109.0801z" fill="url(#c)" stroke-width=".2"/><path d="m102.096 15.5035s-43.1736 10.4046-59.9905 46.3401c5.9677-42.312 59.9905-46.3401 59.9905-46.3401z" fill="#643d00" stroke="#653d00" stroke-linecap="round" stroke-width="7.224"/><path d="m146.223 13.5033s38.853 9.7539 54.368 46.3403c-11.5-41.3355-54.368-46.3403-54.368-46.3403z" fill="#643d00" stroke="#653d00" stroke-linecap="round" stroke-width="7.224"/><path d="m136.811 85.2867c0 4.8557.647 9.5025 1.818 13.7681l0 0c17.563.7043 33.304 4.6392 44.93 10.6572l0 0c3.918-6.588 6.297-15.1135 6.297-24.4253l0 0c0-20.8723-12.277-37.1138-29.767-37.1138l0 0c-11.046 0-23.278 16.2415-23.278 37.1138z" fill="url(#e)" stroke-width=".2"/><path d="m153.194 50.3592c-4.883 5.211-8.111 14.45-8.111 24.9695l0 0c0 10.6255 3.317 19.9326 8.285 25.1113l0 0c4.953.753 9.692 1.795 14.123 3.05l0 0c7.1-3.6869 12.255-14.8959 12.255-28.1613l0 0c0-11.8433-4.106-22.0461-10.04-26.7241l0 0c-2.041-.7171-4.189-1.0925-6.386-1.0925l0 0c-3.593 0-7.001 1.0041-10.126 2.8471z" fill="url(#g)" stroke-width=".2"/><path d="m152.632 77.5921c0 8.8721 4.08 16.064 9.112 16.064 5.033 0 9.113-7.1919 9.113-16.064 0-8.8715-4.08-16.0634-9.113-16.0634-5.032 0-9.112 7.1919-9.112 16.0634z" stroke-width=".2"/><path d="m157.654 66.1229c0 7.7534 3.708 14.0376 8.284 14.0376 4.575 0 8.285-6.2842 8.285-14.0376 0-7.7527-3.71-14.0378-8.285-14.0378-4.576 0-8.284 6.2851-8.284 14.0378z" fill="url(#i)" stroke-width=".2"/><path d="m55.7786 85.2867c0 9.3118 2.3803 17.8373 6.2981 24.4253l0 0c11.6262-6.018 27.3674-9.9529 44.9293-10.6572l0 0c1.171-4.2656 1.818-8.9124 1.818-13.7681l0 0c0-20.8723-9.7635-34.8816-18.6931-37.1138l0 0c-1.7471-.4362-3.4742-.6442-5.1661-.6442l0 0c-16.1279-.002-29.1862 18.8667-29.1862 37.758z" fill="url(#j)" stroke-width=".2"/><path d="m75.9292 48.6046c-5.9346 4.678-10.0391 14.8808-10.0391 26.7241l0 0c0 13.2654 5.1541 24.4744 12.2549 28.1613l0 0c4.4312-1.255 9.169-2.297 14.124-3.05l0 0c4.9673-5.1787 8.285-14.4858 8.285-25.1113l0 0c0-10.5195-3.2293-19.7585-8.1126-24.9695l0 0c-3.1252-1.843-6.533-2.8471-10.1257-2.8471l0 0c-2.197 0-4.3448.3754-6.3865 1.0925z" fill="url(#k)" stroke-width=".2"/><path d="m82.3154 47.5116c-2.1972 0-4.3447.3757-6.3852 1.0927-5.9356 4.678-10.0401 14.8809-10.0401 26.7242 0 13.2653 5.1538 24.4743 12.2547 28.1625 4.4314-1.256 9.1692-2.297 14.1242-3.05 4.9671-5.1799 8.284-14.4871 8.284-25.1125 0-10.5186-3.2278-19.7588-8.1118-24.9688-3.1253-1.8437-6.533-2.8481-10.1258-2.8481z" fill="none" stroke="#5c3900" stroke-width="1.33333"/><path d="m92.2666 77.5921c0 8.8721-4.0796 16.064-9.1121 16.064-5.0324 0-9.113-7.1919-9.113-16.064 0-8.8715 4.0806-16.0634 9.113-16.0634 5.0325 0 9.1121 7.1919 9.1121 16.0634z" stroke-width=".2"/><path d="m95.8066 65.6624c0 7.7535-3.7087 14.0379-8.2846 14.0379-4.5757 0-8.2845-6.2844-8.2845-14.0379 0-7.7524 3.7088-14.0376 8.2845-14.0376 4.5759 0 8.2846 6.2852 8.2846 14.0376z" fill="url(#l)" stroke-width=".2"/><g stroke-linecap="round"><path d="m130.156 135.56c2.477-3.849 6.235-8.468 10.079-11.658 3.844-3.189 7.773-4.949 11.788-5.059 4.014-.11 8.114 1.43 11.019 4.07 2.904 2.639 4.612 6.378 4.868 8.578.257 2.2-.939 2.859-2.135 1.76-1.196-1.1-2.392-3.96-4.869-6.159-2.477-2.2-6.235-3.74-10.762-1.87-4.528 1.87-9.823 7.149-13.069 11.328s-4.442 7.259-6.065 8.578c-1.623 1.32-3.673.88-4.1-.88-.427-1.759.769-4.838 3.246-8.688z" fill="#fe0c0c" stroke="#d98004" stroke-width="4"/><path d="m55.6875 146.954c-3.5554-.555-7.9998-1-11.8887-.222s-7.2221 2.778-11.1394 5.249c-3.9172 2.471-8.4182 5.414-12.1687 8.343-3.7505 2.93-6.7505 5.847-8.5837 7.888-1.8333 2.042-2.50002 3.209-2.81252 4.084s-.27075 1.458.875 1.875c1.14572.416 3.39572.666 5.70822.166s4.6875-1.75 7.4034-3.013c2.7158-1.263 5.7724-2.538 7.4389-2.399 1.6668.138 1.9434 1.692 1.5264 3.691-.4172 1.999-1.5283 4.443-3.5073 7.825-1.9793 3.383-4.8267 7.702-7.3753 12.125-2.5486 4.424-4.7986 8.952-4.8193 11.903-.0208 2.952 2.1875 4.327 4.9582 2.236 2.771-2.09 6.1043-7.646 8.6529-12.083 2.5486-4.438 4.3125-7.757 5.6945-9.194 1.3819-1.438 2.3819-.994 1.9375.784-.4445 1.778-2.3334 4.889-4.1113 8.556-1.7776 3.666-3.4443 7.889-4.4375 11.215-.9929 3.326-1.3122 5.757-.8957 7.41.4167 1.653 1.5693 2.528 2.9028 1.75 1.3333-.778 2.8472-3.209 5.1597-7.646 2.3125-4.438 5.4236-10.882 6.979-14.104 1.5556-3.222 1.5556-3.222 1.8266-2.993.2708.229.8125.687.4165 3.083-.3957 2.396-1.729 6.729-2.3889 10.945-.6596 4.215-.6457 8.312-.1943 10.861.4514 2.548 1.3403 3.548 2.5071 3.326 1.1665-.222 2.6108-1.666 3.6665-4.722 1.0556-3.056 1.7221-7.722 2.6181-11.021.8958-3.298 2.0208-5.229 3.9165-7.639 1.896-2.409 4.5625-5.299 6.9727-7.888 2.4104-2.589 4.564-4.879 6.1128-7.58 1.5486-2.702 2.4919-5.814 2.8252-8.481.3335-2.667.0566-4.887-1.1929-8.553s-3.4717-8.777-5.9163-11.665c-2.4443-2.889-5.111-3.556-8.6667-4.112z" fill="url(#n)" stroke="#a9adc9"/><path d="m203.121 151.516c3.556-.556 8-1 11.889-.222 3.889.777 7.222 2.777 11.139 5.249 3.917 2.471 8.418 5.413 12.169 8.343 3.75 2.93 6.75 5.846 8.584 7.888 1.833 2.042 2.5 3.208 2.812 4.083.313.875.271 1.459-.875 1.875-1.146.417-3.396.667-5.708.167-2.313-.5-4.688-1.75-7.403-3.013-2.716-1.263-5.773-2.539-7.439-2.4-1.667.139-1.944 1.693-1.527 3.692.418 1.999 1.529 4.443 3.508 7.825s4.826 7.701 7.375 12.125c2.548 4.424 4.798 8.951 4.819 11.903.021 2.951-2.187 4.326-4.958 2.236s-6.104-7.646-8.653-12.084c-2.548-4.437-4.312-7.756-5.694-9.194-1.382-1.437-2.382-.993-1.938.785.445 1.778 2.334 4.889 4.112 8.555 1.777 3.667 3.444 7.889 4.437 11.216.993 3.326 1.312 5.757.896 7.409-.417 1.653-1.57 2.528-2.903 1.75-1.333-.777-2.847-3.208-5.16-7.646-2.312-4.437-5.423-10.881-6.979-14.104-1.556-3.222-1.556-3.222-1.826-2.993-.271.23-.813.688-.417 3.084s1.729 6.729 2.389 10.944.646 8.313.194 10.861c-.451 2.549-1.34 3.549-2.507 3.327-1.166-.223-2.611-1.667-3.832-4.621-1.222-2.954-2.221-7.417-4.179-11.44s-4.875-7.606-6.687-10.044c-1.813-2.437-2.521-3.729-3.869-5.594-1.348-1.864-3.337-4.302-4.802-7.078-1.466-2.775-2.409-5.888-2.743-8.555-.333-2.666-.056-4.887 1.193-8.552 1.25-3.666 3.472-8.777 5.917-11.666 2.444-2.889 5.11-3.556 8.666-4.111z" fill="url(#o)" stroke="#a9adc9"/><path d="m190.821 166.468-2.25 6.75 3 10 7 9 8 8.5 3 8 1.75 9.5" fill="none" filter="url(#p)" stroke="#16171f" stroke-width="4"/><path d="m215.571 192.218 2 5 5.75 10.75 3.75 8.5" fill="none" filter="url(#q)" stroke="#16171f" stroke-width="3"/><path d="m224.071 187.343 4.75 6.75 5.75 9.25 3.75 6.5" fill="none" filter="url(#q)" stroke="#16171f" stroke-width="3"/><path d="m229.071 170.343 6.5 2.75 7.5 3.5h3" fill="none" filter="url(#p)" stroke="#16171f" stroke-width="5"/><path d="m40.5767 151.011-12 6.666-9 6.334-6.3335 6" fill="url(#r)" filter="url(#s)" stroke="#040618" stroke-width="3"/><path d="m33.2432 176.344-7.3333 12.333-5.6667 9.667-2 5.667" fill="url(#t)" filter="url(#s)" stroke="#040618" stroke-width="3"/><path d="m40.2432 185.677-5.3333 10-3.6667 9.334-2 6.333" fill="url(#u)" filter="url(#p)" stroke="#040618" stroke-width="3"/><path d="m47.9099 190.344-2.6667 11-.6665 6-.3335 7.333" fill="url(#v)" filter="url(#p)" stroke="#040618" stroke-width="3"/></g></g></svg>