<?xml version="1.0" encoding="utf-8"?>
<!DOCTYPE svg PUBLIC "-//W3C//DTD SVG 1.1//EN" "http://www.w3.org/Graphics/SVG/1.1/DTD/svg11.dtd">
<svg x="0" y="0" width="48" height="48" overflow="hidden" viewBox="0, 0, 48, 48" preserveAspectRatio="xMidYMid"
     font-size="0" id="svg" xml:space="default" xmlns="http://www.w3.org/2000/svg"
     xmlns:xml="http://www.w3.org/XML/1998/namespace" version="1.1">
  <defs id="def1" xml:space="default">
    <linearGradient x1="34.40774" y1="38.21864" x2="58.57169" y2="38.21864" gradientUnits="userSpaceOnUse" gradientTransform="scale(1.007935, 0.9921277)" id="SVGID_Fill1_" xml:space="default">
      <stop offset="0%" stop-color="#04A100" stop-opacity="1" id="stop2" xml:space="default" />
      <stop offset="100%" stop-color="#FFFFFF" stop-opacity="1" id="stop4" xml:space="default" />
    </linearGradient>
  </defs>
  <g transform="matrix(0.2739726, 0, 0, 0.1898388, -20.61644, -0.6790286)" id="g118" xml:space="default">
    <path d="M119.217 3.69308 L113.91 6.40495 L116.505 6.44369 L120.96 3.69308 z" stroke-width="0.2" stroke-linejoin="round" id="path2" xml:space="default" connector-curvature="0" style="fill:#000000;" />
    <path d="M106.51 9.1168 L101.203 12.7585 L106.859 12.7972 L110.81 9.1943 z" stroke-width="0.2" stroke-linejoin="round" id="path4" xml:space="default" connector-curvature="0" style="fill:#000000;" />
    <path d="M95.1978 17.5623 L89.929 22.6761 L97.2898 22.6761 L101.435 17.6011 z" stroke-width="0.2" stroke-linejoin="round" id="path6" xml:space="default" connector-curvature="0" style="fill:#000000;" />
    <path d="M96.1405 24.3032 L88.3923 24.3291 L85.44801 28.0482 L93.8548 28.0482" stroke-width="0.2" stroke-linejoin="round" id="path8" xml:space="default" connector-curvature="0" style="fill:#000000;" />
    <path d="M83.5497 31.1991 L81.5158 34.2209 L90.5618 34.2016 L92.5569 31.1991 z" stroke-width="0.2" stroke-linejoin="round" id="path10-3" xml:space="default" connector-curvature="0" style="fill:#000000;" />
    <path d="M80.8572 36.1967 L77.816 42.957 L88.6441 42.957 L90.32931 36.2161 z" stroke-width="0.2" stroke-linejoin="round" id="path12-7" xml:space="default" connector-curvature="0" style="fill:#000000;" />
    <path d="M77.2155 45.4945 L76.7313 48.5357 L87.7918 48.5357 L88.2761 45.4945 z" stroke-width="0.2" stroke-linejoin="round" id="path14" xml:space="default" connector-curvature="0" style="fill:#000000;" />
    <path d="M76.5376 51.2476 L76.1502 54.6567 L87.3269 54.6761 L87.71429 51.3057" stroke-width="0.2" stroke-linejoin="round" id="path16" xml:space="default" connector-curvature="0" style="fill:#000000;" />
    <path d="M76.1824 56.5099 L76.105 59.5575 L87.4173 59.5316 L87.3915 56.484 z" stroke-width="0.2" stroke-linejoin="round" id="path18" xml:space="default" connector-curvature="0" style="fill:#000000;" />
    <path d="M76.5699 63.1475 L76.854 66.4792 L88.6312 66.4533 L87.8564 63.1475 z" stroke-width="0.2" stroke-linejoin="round" id="path20" xml:space="default" connector-curvature="0" style="fill:#000000;" />
    <path d="M77.6546 70.3016 L78.3261 73.81419 L90.4391 73.81409 L89.0961 70.3016 z" stroke-width="0.2" stroke-linejoin="round" id="path22" xml:space="default" connector-curvature="0" style="fill:#000000;" />
    <path d="M79.1268 76.2936 L81.632 82.6729 L93.4867 82.6471 L90.9298 76.2935 z" stroke-width="0.2" stroke-linejoin="round" id="path24" xml:space="default" connector-curvature="0" style="fill:#000000;" />
    <path d="M82.5618 85.643 L84.7571 90.1628 L96.4827 90.13699 L94.6231 85.6172 z" stroke-width="0.2" stroke-linejoin="round" id="path26" xml:space="default" connector-curvature="0" style="fill:#000000;" />
    <path d="M132.37 3.57687 L136.263 6.44368 L138.491 6.42433 L133.958 3.61561 z" stroke-width="0.2" stroke-linejoin="round" id="path28" xml:space="default" connector-curvature="0" style="fill:#000000;" />
    <path d="M141.551 8.8069 L145.697 12.3323 L152.128 12.2935 L146.859 8.76815 z" stroke-width="0.2" stroke-linejoin="round" id="path30" xml:space="default" connector-curvature="0" style="fill:#000000;" />
    <path d="M151.314 16.865 L155.537 21.9788 L163.944 21.9788 L159.527 16.8262 L159.411 16.8262 z" stroke-width="0.2" stroke-linejoin="round" id="path32" xml:space="default" connector-curvature="0" style="fill:#000000;" />
    <path d="M156.738 23.7221 L159.372 27.0539 L168.864 27.0926 L165.919 23.6834" stroke-width="0.2" stroke-linejoin="round" id="path34" xml:space="default" connector-curvature="0" style="fill:#000000;" />
    <path d="M161.161 30.1239 L162.594 32.9781 L171.582 33.0556 L169.955 30.1888 z" stroke-width="0.2" stroke-linejoin="round" id="path36" xml:space="default" connector-curvature="0" style="fill:#000000;" />
    <path d="M163.311 35.4382 L165.267 41.6561 L175.456 41.6174 L172.686 35.4576 z" stroke-width="0.2" stroke-linejoin="round" id="path38" xml:space="default" connector-curvature="0" style="fill:#000000;" />
    <path d="M166.003 44.4261 L166.739 47.2735 L176.599 47.2735 L175.747 44.4648 z" stroke-width="0.2" stroke-linejoin="round" id="path40" xml:space="default" connector-curvature="0" style="fill:#000000;" />
    <path d="M167.03 50.5084 L167.049 53.2203 L177.219 53.1622 L177.18 50.5859 z" stroke-width="0.2" stroke-linejoin="round" id="path42" xml:space="default" connector-curvature="0" style="fill:#000000;" />
    <path d="M167.127 55.6028 L167.049 58.3728 L177.374 58.2953 L177.393 55.5835 z" stroke-width="0.2" stroke-linejoin="round" id="path44" xml:space="default" connector-curvature="0" style="fill:#000000;" />
    <path d="M166.759 62.4019 L166.429 65.6755 L176.289 65.5592 L177.044 62.4019 z" stroke-width="0.2" stroke-linejoin="round" id="path46" xml:space="default" connector-curvature="0" style="fill:#000000;" />
    <path d="M165.674 69.627 L164.047 73.2881 L174.933 73.2881 L175.902 69.6271 z" stroke-width="0.2" stroke-linejoin="round" id="path48" xml:space="default" connector-curvature="0" style="fill:#000000;" />
    <path d="M163.279 75.8579 L160.592 82.00481 L172.912 82.00481 L174.668 75.85791 z" stroke-width="0.2" stroke-linejoin="round" id="path50" xml:space="default" connector-curvature="0" style="fill:#000000;" />
    <path d="M171.776 85.1299 L159.275 85.1299 L156.486 89.7788 L169.09 89.753" stroke-width="0.2" stroke-linejoin="round" id="path52" xml:space="default" connector-curvature="0" style="fill:#000000;" />
    <path d="M103.669 66.0952 L150.933 66.0435 L149.125 64.2356 L146.233 62.4794 L109.868 62.53101 L106.562 63.97731 z" stroke-width="0.2" stroke-linejoin="round" id="path54" xml:space="default" connector-curvature="0" style="fill:#000000;" />
    <path d="M100.002 69.6593 L98.4521 71.3123 L98.2971 72.9136 L98.762 73.7917 L155.117 73.7917 L155.789 72.552 L155.065 70.6925 L153.464 69.55601 z" stroke-width="0.2" stroke-linejoin="round" id="path56" xml:space="default" connector-curvature="0" style="fill:#000000;" />
    <path d="M99.5368 75.8579 L98.19379 76.9943 L98.09049 79.2671 L100.208 82.9862 L154.91 82.9346 L155.944 80.7651 L155.789 76.4777 L154.807 75.8062 z" stroke-width="0.2" stroke-linejoin="round" id="path58" xml:space="default" connector-curvature="0" style="fill:#000000;" />
    <path d="M102.998 86.0855 L101.655 88.0484 L101.5 89.598 L102.481 90.2695 L152.069 90.1662 L152.431 89.2364 L152.483 87.89339 L151.088 85.72389 L149.332 85.46559 L104.599 85.56899" stroke-width="0.2" stroke-linejoin="round" id="path60" xml:space="default" connector-curvature="0" style="fill:#000000;" />
    <path d="M86.1389 92.0482 L87.5852 94.7342 L167.753 94.321 L168.476 91.6349 z" stroke-width="0.2" stroke-linejoin="round" id="path62" xml:space="default" connector-curvature="0" style="fill:#000000;" />
    <path d="M87.7239 97.0742 L86.3073 98.0742 L85.7239 99.4075 L168.219 99.3034 L168.234 97.7409 L167.625 96.7252 z" stroke-width="0.2" stroke-linejoin="round" id="path64" xml:space="default" connector-curvature="0" style="fill:#000000;" />
    <path d="M85.125 102.512 L84.3281 103.324 L84.0625 104.548 L83.9375 105.736 L170.5 105.486 L170.5 104.449 L170.047 103.074 L169.016 102.366 z" stroke-width="0.2" stroke-linejoin="round" id="path66" xml:space="default" connector-curvature="0" style="fill:#000000;" />
    <path d="M83.875 109.111 L83.5 110.611 L83.6875 111.923 L170.687 111.923 L171.125 110.111 L170.812 108.486" stroke-width="0.2" stroke-linejoin="round" id="path68" xml:space="default" connector-curvature="0" style="fill:#000000;" />
    <path d="M84.1875 115.361 L85.3125 118.548 L87.4375 121.236 L91.1875 123.986 L93.375 124.861 L162.312 124.798 L165 122.673 L167.937 119.673 L169.5 117.298 L170.187 114.986 z" stroke-width="0.2" stroke-linejoin="round" id="path70" xml:space="default" connector-curvature="0" style="fill:#000000;" />
    <path d="M94.9375 127.236 L93.4375 128.673 L93.4375 133.548 L94.75 134.736 L160.125 133.923 L160.625 132.673 L160.437 127.923 L158.937 127.236 z" stroke-width="0.2" stroke-linejoin="round" id="path72" xml:space="default" connector-curvature="0" style="fill:#000000;" />
    <path d="M93.625 136.861 L93.75 143.923 L160.437 143.923 L160.312 137.048 z" stroke-width="0.2" stroke-linejoin="round" id="path74" xml:space="default" connector-curvature="0" style="fill:#000000;" />
    <path d="M93.375 147.173 L93.375 150.673 L160.437 150.611 L160.437 147.048 z" stroke-width="0.2" stroke-linejoin="round" id="path76" xml:space="default" connector-curvature="0" style="fill:#000000;" />
    <path d="M93.3125 155.673 L93.375 158.861 L160.625 158.736 L160.562 155.736 z" stroke-width="0.2" stroke-linejoin="round" id="path78" xml:space="default" connector-curvature="0" style="fill:#000000;" />
    <path d="M93.8125 171.861 L93.8125 174.861 L165.5 174.986 L165.687 173.361 L165.312 171.861 z" stroke-width="0.2" stroke-linejoin="round" id="path80" xml:space="default" connector-curvature="0" style="fill:#000000;" />
    <path d="M77.625 171.798 L84.75 171.673 L88.375 173.673 L88.125 174.673 L77.4375 174.736 z" stroke-width="0.2" stroke-linejoin="round" id="path82" xml:space="default" connector-curvature="0" style="fill:#000000;" />
    <path d="M172.375 174.611 L182.25 174.548 L182.625 173.423 L181.937 172.111 L174.312 172.048 L172.75 173.173 z" stroke-width="0.2" stroke-linejoin="round" id="path84" xml:space="default" connector-curvature="0" style="fill:#000000;" />
    <path d="M77.5625 176.819 L76.5625 177.986 L76.3958 179.569 L183.396 179.652 L183.062 177.569 L182.062 176.902 z" stroke-width="0.2" stroke-linejoin="round" id="path86" xml:space="default" connector-curvature="0" style="fill:#000000;" />
    <path d="M76.0625 181.402 L75.8958 184.736 L183.896 184.819 L183.479 181.319 z" stroke-width="0.2" stroke-linejoin="round" id="path88" xml:space="default" connector-curvature="0" style="fill:#000000;" />
    <path d="M75.6666 191.069 L75.25 192.652 L75.3125 198.486 L76.5 199.277 L85.3541 199.277 L85.75 198.319 L85.9166 195.652 L86.58331 195.652 L87.68751 197.256 L90.75001 199.131 L169.437 199.131 L171.5 197.444 L172.5 196.444 L173.5 196.506 L173.75 198.069 L174.354 199.34 L184.646 199.402 L184.75 191.402 z" stroke-width="0.2" stroke-linejoin="round" id="path90" xml:space="default" connector-curvature="0" style="fill:#000000;" />
    <path d="M94.5 200.819 L95.3125 202.131 L99.6875 204.944 L106.187 207.631 L111.625 209.256 L117.562 210.631 L124 211.194 L138.562 211.069 L145.062 209.819 L151.562 208.131 L157.437 206.006 L161.5 203.944 L164.312 202.381 L164.812 200.756 z" stroke-width="0.2" stroke-linejoin="round" id="path92" xml:space="default" connector-curvature="0" style="fill:#000000;" />
    <path d="M75.6875 200.923 L75.9375 206.548 L77.5 210.298 L87.1875 210.173 L85.875 200.861 z" stroke-width="0.2" stroke-linejoin="round" id="path94" xml:space="default" connector-curvature="0" style="fill:#000000;" />
    <path d="M77.75 214.611 L79.1875 216.298 L88.3125 216.298 L88.1875 213.861 L87.375 211.861 L77.375 211.798" stroke-width="0.2" stroke-linejoin="round" id="path96" xml:space="default" connector-curvature="0" style="fill:#000000;" />
    <path d="M79.25 217.486 L80.0625 220.423 L89.8125 220.423 L88.8125 217.611 z" stroke-width="0.2" stroke-linejoin="round" id="path98" xml:space="default" connector-curvature="0" style="fill:#000000;" />
    <path d="M80.6875 221.798 L82.125 226.798 L85.4375 232.986 L88.75 238.611 L92.125 242.923 L93.5625 243.861 L100.187 243.986 L100.25 241.548 L97.0625 236.236 L95.0625 231.861 L93 227.236 L90.625 221.986 z" stroke-width="0.2" stroke-linejoin="round" id="path100" xml:space="default" connector-curvature="0" style="fill:#000000;" />
    <path d="M94.5625 244.861 L95.625 247.236 L98.5 249.986 L103.437 249.923 L104.25 248.611 L101.687 244.923 z" stroke-width="0.2" stroke-linejoin="round" id="path102" xml:space="default" connector-curvature="0" style="fill:#000000;" />
    <path d="M100.937 251.923 L105.125 255.736 L107.125 255.736 L107.062 253.361 L105.5 250.986 L101.312 250.986 z" stroke-width="0.2" stroke-linejoin="round" id="path104" xml:space="default" connector-curvature="0" style="fill:#000000;" />
    <path d="M174.312 201.486 L173.062 210.298 L183.25 210.173 L184.25 201.048 L174.187 201.111" stroke-width="0.2" stroke-linejoin="round" id="path106" xml:space="default" connector-curvature="0" style="fill:#000000;" />
    <path d="M172.687 211.986 L171.812 216.611 L181.937 216.673 L182.75 212.111 z" stroke-width="0.2" stroke-linejoin="round" id="path108" xml:space="default" connector-curvature="0" style="fill:#000000;" />
    <path d="M170.937 218.048 L170.125 221.236 L180.25 221.111 L180.937 218.111 z" stroke-width="0.2" stroke-linejoin="round" id="path110" xml:space="default" connector-curvature="0" style="fill:#000000;" />
    <path d="M169.812 222.298 L167.125 228.798 L164.375 234.673 L161.875 239.673 L159.312 244.111 L167.75 244.048 L171.312 239.236 L175.875 232.111 L178.687 225.798 L179.5 222.236 z" stroke-width="0.2" stroke-linejoin="round" id="path112" xml:space="default" connector-curvature="0" style="fill:#000000;" />
    <path d="M158.75 245.298 L155.875 250.173 L162.437 250.236 L165.687 245.548 z" stroke-width="0.2" stroke-linejoin="round" id="path114" xml:space="default" connector-curvature="0" style="fill:#000000;" />
    <path d="M154.812 251.673 L151.812 254.923 L153.562 256.423 L155.562 256.173 L159.75 251.736 z" stroke-width="0.2" stroke-linejoin="round" id="path116" xml:space="default" connector-curvature="0" style="fill:#000000;" />
  </g>
  <path d="M34.76373 22.82784 C37.15686 20.53554 41.78307 16.27254 44.3077 14.17007 C46.83239 12.06757 47.25546 12.12568 47.5542 12.438 C47.85288 12.75032 48.02731 13.31685 45.61651 17.16638 C43.2057 21.01588 38.20979 28.14841 35.506 31.83084 C32.80222 35.51332 32.39057 35.74577 31.99419 35.72251 C31.59775 35.69926 31.21662 35.42034 29.9469 33.36484 C28.67722 31.30934 26.51895 27.47724 25.37833 25.14579 C24.23774 22.81428 24.11481 21.98336 24.4164 21.63907 C24.71799 21.29479 25.44408 21.43714 26.78718 22.20559 C28.13023 22.97404 30.09031 24.36858 31.15038 24.90509 C32.21049 25.44166 32.37054 25.12013 34.76373 22.82784 z" stroke="#000000" stroke-width="0.5533192" stroke-linejoin="round" id="path7" xml:space="default" style="fill:url(#SVGID_Fill1_);" />
</svg>