<svg enable-background="new 0 0 78.13 78.25" height="78.25" viewBox="0 0 78.13 78.25" width="78.125" xmlns="http://www.w3.org/2000/svg" xmlns:xlink="http://www.w3.org/1999/xlink"><linearGradient id="a" gradientTransform="matrix(0 1 -1 0 -1.847377 -2.847377)" gradientUnits="objectBoundingBox" x1=".5" x2="6.19475" y1="-2.34738" y2="-2.34738"><stop offset=".427907" stop-color="#eeeaea"/><stop offset=".576744" stop-color="#fff" stop-opacity="0"/></linearGradient><linearGradient id="b" gradientTransform="matrix(0 -1 1 0 -.518738 1.518672)" gradientUnits="objectBoundingBox" x1=".499967" x2="1.53738" y1="1.01871" y2="1.01871"><stop offset="0" stop-color="#f00"/><stop offset="1" stop-color="#5e1515"/></linearGradient><g stroke-linejoin="round"><path d="m11.5.499988h55.125c6.0752 0 11 4.924862 11 11.000012v55.25c0 6.0751-4.9248 11-11 11h-55.125c-6.07513 0-11-4.9249-11-11v-55.25c0-6.07515 4.92487-11.000012 11-11.000012z" fill="#8c9e64" stroke="#000"/><path d="m65.9047.85419h-53.862c-5.48902 0-10.017 4.21122-10.66767 9.64901 1.28571 2.512 3.85748 4.226 6.8204 4.226h61.92287c2.7386 0 5.1431-1.4643 6.5067-3.6696-.3978-5.70421-5.0455-10.20541-10.7203-10.20541z" fill="url(#a)" stroke-width=".2"/><path d="m16.0325 39.875h-10.92004v-21.28h2.80002v18.76h8.12002z"/><path d="m17.2925 29.4888c0-3.4125.9282-6.1279 2.7847-8.1463 1.8564-2.0183 4.3699-3.0275 7.5403-3.0275 2.9546 0 5.3324.9866 7.1334 2.9597 1.8011 1.9731 2.7016 4.542 2.7016 7.7066 0 3.43-.9231 6.1498-2.7694 8.1593-1.8462 2.0096-4.3152 3.0144-7.4069 3.0144-3.0158 0-5.4337-.9865-7.2537-2.9597-1.82-1.9731-2.73-4.5419-2.73-7.7065zm2.8-.2319c0 2.5317.6642 4.5609 1.9928 6.0878 1.3285 1.5269 3.0603 2.2903 5.1953 2.2903 2.2954 0 4.0979-.7321 5.4075-2.1962 1.3096-1.4642 1.9644-3.5117 1.9644-6.1425 0-2.7038-.641-4.7899-1.9229-6.2585-1.2818-1.4685-3.0369-2.2028-5.2652-2.2028-2.1934 0-3.9704.7751-5.331 2.3253s-2.0409 3.5824-2.0409 6.0966z"/><path d="m55.9325 38.685c-1.5692.98-3.5365 1.47-5.9019 1.47-3.0538 0-5.4936-.9618-7.3194-2.8853s-2.7387-4.4676-2.7387-7.6322c0-3.4008 1.0274-6.1381 3.0822-8.2119 2.0548-2.0737 4.6644-3.1106 7.829-3.1106 2.0359 0 3.7188.3967 5.0488 1.19v2.52c-1.5342-.7933-3.22-1.19-5.0575-1.19-2.3917 0-4.34.7773-5.845 2.3319s-2.2575 3.6517-2.2575 6.2912c0 2.5055.7022 4.4946 2.1065 5.9675 1.4044 1.473 3.2412 2.2094 5.5103 2.2094 2.1263 0 3.974-.49 5.5432-1.47z"/><path d="m74.9725 39.875h-3.64l-7.84-9.625c-.2421-.3383-.4084-.6023-.4988-.7919h-.0612v10.4169h-2.8v-21.28h2.8v9.9663h.0612c.1371-.245.3034-.5046.4988-.7788l7.56-9.1875h3.36l-8.68 10.2069z"/><path d="m11.6514 56.7865h54.8219c1.4299 0 2.5891 1.1591 2.5891 2.589l0 0c0 1.4298-1.1592 2.589-2.5891 2.589h-54.8219c-1.4298 0-2.58899-1.1592-2.58899-2.589l0 0c0-1.4299 1.15919-2.589 2.58899-2.589z" fill="url(#b)" stroke-width=".2"/></g></svg>