<svg enable-background="new 0 0 78.13 78.25" height="78.25" viewBox="0 0 78.13 78.25" width="78.125" xmlns="http://www.w3.org/2000/svg" xmlns:xlink="http://www.w3.org/1999/xlink"><linearGradient id="a" gradientTransform="matrix(0 1 -1 0 -1.847377 -2.847377)" gradientUnits="objectBoundingBox" x1=".5" x2="6.19475" y1="-2.34738" y2="-2.34738"><stop offset=".427907" stop-color="#eeeaea"/><stop offset=".576744" stop-color="#fff" stop-opacity="0"/></linearGradient><linearGradient id="b" gradientTransform="matrix(0 -1 1 0 -.51883 1.518766)" gradientUnits="objectBoundingBox" x1=".499968" x2="1.53738" y1="1.0188" y2="1.0188"><stop offset="0" stop-color="#9bc049"/><stop offset="1" stop-color="#23271b"/></linearGradient><g stroke-linejoin="round"><path d="m11.5.499988h55.125c6.0751 0 11 4.924862 11 11.000012v55.25c0 6.0751-4.9249 11-11 11h-55.125c-6.07513 0-11-4.9249-11-11v-55.25c0-6.07515 4.92487-11.000012 11-11.000012z" fill="#8c9e64" stroke="#000"/><path d="m65.9046.85419h-53.8619c-5.48902 0-10.01701 4.21122-10.66769 9.64901 1.28571 2.512 3.85749 4.226 6.82042 4.226h61.92287c2.7386 0 5.1431-1.4643 6.5067-3.6696-.3978-5.70421-5.0455-10.20541-10.7204-10.20541z" fill="url(#a)" stroke-width=".2"/><path d="m21.0325 22.115h-8.12v7h7.56v2.52h-7.56v9.24h-2.8v-21.28h10.92z"/><path d="m40.3525 40.875h-3.36l-3.4169-5.9106c-.6825-1.1813-1.3074-1.9848-1.8747-2.4106-.5673-.4259-1.2447-.6388-2.0322-.6388h-1.9162v8.96h-2.8v-21.28h6.3744c2.0329 0 3.6254.4973 4.7775 1.4919s1.7281 2.3858 1.7281 4.1737c0 2.9371-1.5473 4.8432-4.6419 5.7182v.07c.5834.2479 1.0872.6015 1.5116 1.0609s.9734 1.2462 1.6472 2.3603zm-12.6-18.76v7.28h3.1587c1.2221 0 2.2145-.3551 2.9772-1.0653s1.1441-1.6413 1.1441-2.7934c0-1.0734-.3478-1.9119-1.0434-2.5157-.6957-.6037-1.7085-.9056-3.0385-.9056z"/><path d="m54.6325 40.875h-11.48v-21.28h10.92v2.52h-8.12v6.72h7.56v2.52h-7.56v7h8.68z"/><path d="m70.0325 40.875h-11.48v-21.28h10.92v2.52h-8.12v6.72h7.56v2.52h-7.56v7h8.68z"/><path d="m11.6514 56.786h54.8219c1.4299 0 2.5891 1.1592 2.5891 2.589l0 0c0 1.4298-1.1592 2.589-2.5891 2.589h-54.8219c-1.4298 0-2.589-1.1592-2.589-2.589l0 0c0-1.4298 1.1592-2.589 2.589-2.589z" fill="url(#b)" stroke-width=".2"/></g></svg>