<svg enable-background="new 0 0 78.13 78.25" height="78.25" viewBox="0 0 78.13 78.25" width="78.125" xmlns="http://www.w3.org/2000/svg" xmlns:xlink="http://www.w3.org/1999/xlink"><linearGradient id="a" gradientTransform="matrix(0 1 -1 0 -1.847377 -2.847377)" gradientUnits="objectBoundingBox" x1=".5" x2="6.19475" y1="-2.34738" y2="-2.34738"><stop offset=".427907" stop-color="#eeeaea"/><stop offset=".576744" stop-color="#fff" stop-opacity="0"/></linearGradient><linearGradient id="b" gradientTransform="matrix(0 -1 1 0 -.518768 1.518704)" gradientUnits="objectBoundingBox" x1=".499968" x2="1.53738" y1="1.01874" y2="1.01874"><stop offset="0" stop-color="#ff00d2"/><stop offset="1" stop-color="#461f49"/></linearGradient><g stroke-linejoin="round"><path d="m11.5.499988h55.125c6.0751 0 11 4.924862 11 11.000012v55.25c0 6.0751-4.9249 11-11 11h-55.125c-6.07513 0-11-4.9249-11-11v-55.25c0-6.07515 4.92487-11.000012 11-11.000012z" fill="#8c9e64" stroke="#000"/><path d="m65.9047.85419h-53.862c-5.489 0-10.017 4.21122-10.66768 9.64901 1.2857 2.512 3.85751 4.226 6.82041 4.226h61.92287c2.7386 0 5.1431-1.4643 6.5067-3.6696-.3978-5.70421-5.0455-10.20541-10.7203-10.20541z" fill="url(#a)" stroke-width=".2"/><path d="m44.5925 19.595-6.16 21.28h-3.08l-4.1475-15.4262c-.1867-.7029-.2975-1.4409-.3325-2.2138h-.28c-.0554.7642-.1852 1.4919-.3894 2.1831l-4.3706 15.4569h-3.08l-6.16-21.28h3.08l4.1519 16.0213c.1837.7233.2931 1.4495.3281 2.1787h.28c.0466-.5483.1968-1.2746.4506-2.1787l4.5894-16.0213h2.8l4.1431 16.17c.1371.5308.2494 1.2075.3369 2.03h.28c.0437-.595.1735-1.2906.3894-2.0869l4.0906-16.1131z"/><path d="m50.4725 33.035v7.84h-2.8v-21.28h5.9806c2.275 0 4.0403.5586 5.2959 1.6756 1.2557 1.1171 1.8835 2.7155 1.8835 4.795 0 2.1059-.7285 3.8121-2.1853 5.1188-1.4569 1.3067-3.2776 1.9235-5.4622 1.8506zm0-10.92v8.4h2.5069c1.6537 0 2.9093-.374 3.7668-1.1222.8575-.7481 1.2863-1.8192 1.2863-3.2134 0-2.7096-1.5984-4.0644-4.795-4.0644z"/><path d="m11.6514 56.7863h54.8219c1.4299 0 2.5891 1.1592 2.5891 2.589l0 0c0 1.4298-1.1592 2.589-2.5891 2.589h-54.8219c-1.4298 0-2.58901-1.1592-2.58901-2.589l0 0c0-1.4298 1.15921-2.589 2.58901-2.589z" fill="url(#b)" stroke-width=".2"/></g></svg>