<svg enable-background="new 0 0 78.13 78.25" height="78.25" viewBox="0 0 78.13 78.25" width="78.125" xmlns="http://www.w3.org/2000/svg" xmlns:xlink="http://www.w3.org/1999/xlink"><linearGradient id="a" gradientTransform="matrix(0 1 -1 0 -1.847377 -2.847377)" gradientUnits="objectBoundingBox" x1=".5" x2="6.19475" y1="-2.34738" y2="-2.34738"><stop offset=".427907" stop-color="#eeeaea"/><stop offset=".576744" stop-color="#fff" stop-opacity="0"/></linearGradient><linearGradient id="b" gradientTransform="matrix(0 -1 1 0 -.518799 1.518735)" gradientUnits="objectBoundingBox" x1=".499968" x2="1.53738" y1="1.01877" y2="1.01877"><stop offset="0" stop-color="#1dff02"/><stop offset="1" stop-color="#3d8c33"/></linearGradient><g stroke-linejoin="round"><path d="m11.5.499988h55.125c6.0751 0 11 4.924862 11 11.000012v55.25c0 6.0751-4.9249 11-11 11h-55.125c-6.07513 0-11-4.9249-11-11v-55.25c0-6.07515 4.92487-11.000012 11-11.000012z" fill="#8c9e64" stroke="#000"/><path d="m65.9046.85419h-53.8619c-5.48902 0-10.017 4.21121-10.66769 9.64901 1.28572 2.512 3.8575 4.226 6.82042 4.226h61.92287c2.7386 0 5.1431-1.4643 6.5067-3.6696-.3978-5.70421-5.0455-10.20541-10.7204-10.20541z" fill="url(#a)" stroke-width=".2"/><path d="m35.0725 39.3569c-2.1117 1.1987-4.4975 1.7981-7.1575 1.7981-3.0596 0-5.5249-.9661-7.3959-2.8984-1.8711-1.9323-2.8066-4.5128-2.8066-7.7416 0-3.2637 1.0303-5.9463 3.0909-8.0478 2.0607-2.1015 4.701-3.1522 7.921-3.1522 2.2808 0 4.2102.5833 5.7881 1.75v2.52c-1.6946-1.1666-3.7129-1.75-6.055-1.75-2.3071 0-4.208.7788-5.7028 2.3363s-2.2422 3.6108-2.2422 6.16c0 2.6191.6883 4.6579 2.065 6.1162s3.236 2.1875 5.5781 2.1875c1.6129 0 2.9852-.3004 4.1169-.9012v-5.5388h-4.48v-2.52h7.28z"/><path d="m42.6325 33.035v7.84h-2.8v-21.28h5.9806c2.275 0 4.0403.5586 5.296 1.6756 1.2556 1.1171 1.8834 2.7155 1.8834 4.795 0 2.1059-.7284 3.8121-2.1853 5.1188s-3.2776 1.9235-5.4622 1.8506zm0-10.92v8.4h2.5069c1.6537 0 2.9093-.374 3.7668-1.1222.8575-.7481 1.2863-1.8192 1.2863-3.2134 0-2.7096-1.5983-4.0644-4.795-4.0644z"/><path d="m55.7925 36.605c.6621.5921 1.5466 1.0785 2.6534 1.4591 1.1069.3806 2.1591.5709 3.1566.5709 3.0333 0 4.55-1.0223 4.55-3.0669 0-.5716-.1633-1.0871-.49-1.5465s-.7744-.8648-1.3431-1.2163c-.5688-.3514-1.6348-.8932-3.1982-1.6253-2.1729-1.0646-3.6042-2.0533-4.294-2.9662-.6898-.913-1.0347-1.9571-1.0347-3.1325 0-1.7705.7189-3.1741 2.1569-4.211 1.4379-1.0368 3.252-1.5553 5.4425-1.5553 2.1437 0 3.7172.49 4.7206 1.47v2.52c-1.3154-.98-2.9794-1.47-4.9919-1.47-1.3358 0-2.4245.2705-3.2659.8116-.8415.541-1.2622 1.2928-1.2622 2.2553 0 .8546.2887 1.5502.8662 2.0869.5775.5366 1.8317 1.2687 3.7625 2.1962 2.1234.9829 3.6094 1.9658 4.4582 2.9488.8487.9829 1.2731 2.0868 1.2731 3.3118 0 1.8405-.6818 3.2521-2.0453 4.235-1.3636.983-3.2572 1.4744-5.681 1.4744-.8487 0-1.8375-.1407-2.9662-.4222-1.1288-.2814-1.9513-.6307-2.4675-1.0478z"/><path d="m11.6514 56.7862h54.8219c1.4299 0 2.5891 1.1591 2.5891 2.5889l0 0c0 1.4299-1.1592 2.589-2.5891 2.589h-54.8219c-1.4298 0-2.589-1.1591-2.589-2.589l0 0c0-1.4298 1.1592-2.5889 2.589-2.5889z" fill="url(#b)" stroke-width=".2"/></g></svg>