<?xml version="1.0" encoding="utf-8"?>
<!DOCTYPE svg PUBLIC "-//W3C//DTD SVG 1.1//EN" "http://www.w3.org/Graphics/SVG/1.1/DTD/svg11.dtd">
<svg x="0" y="0" width="58" height="58.08908" overflow="hidden" viewBox="0, 0, 78.13, 78.25"
     preserveAspectRatio="xMidYMid" font-size="0" id="svg" xml:space="preserve" xmlns="http://www.w3.org/2000/svg"
     xmlns:xml="http://www.w3.org/XML/1998/namespace" version="1.1">
  <g xml:space="preserve">
    <path d="M11.5 0.499988 L66.625 0.499988 C72.7001 0.499988 77.625 5.42485 77.625 11.5 L77.625 66.75 C77.625 72.8251 72.7001 77.75 66.625 77.75 L11.5 77.75 C5.42487 77.75 0.5 72.8251 0.5 66.75 L0.5 11.5 C0.5 5.42485 5.42487 0.499988 11.5 0.499988 z" stroke="#000000" stroke-linejoin="round" xml:space="preserve" style="fill:#8C9E64;" />
    <linearGradient x1="0.5" y1="-2.34738" x2="6.19475" y2="-2.34738" gradientUnits="objectBoundingBox" gradientTransform="rotate(90, 0.5, -2.347377)" id="SVGID_Fill1_" xml:space="preserve">
      <stop offset="42.7907%" stop-color="#EEEAEA" stop-opacity="1" xml:space="preserve" />
      <stop offset="57.6744%" stop-color="#FFFFFF" stop-opacity="0" xml:space="preserve" />
    </linearGradient>
    <path d="M65.9046 0.85419 L12.0427 0.85419 C6.55368 0.85419 2.02569 5.06541 1.37501 10.5032 C2.66072 13.0152 5.2325 14.7292 8.19543 14.7292 L70.1183 14.7292 C72.8569 14.7292 75.2614 13.2649 76.625 11.0596 C76.2272 5.35539 71.5795 0.85419 65.9046 0.85419 z" stroke-width="0.2" stroke-linejoin="round" xml:space="preserve" style="fill:url(#SVGID_Fill1_);" />
  </g>
  <g xml:space="preserve">
    <path d="M21.0325 22.115 L12.9125 22.115 L12.9125 29.115 L20.4725 29.115 L20.4725 31.635 L12.9125 31.635 L12.9125 40.875 L10.1125 40.875 L10.1125 19.595 L21.0325 19.595 L21.0325 22.115 z" stroke-width="0.2" stroke-linejoin="round" xml:space="preserve" style="fill:#000000;" />
    <path d="M40.3525 40.875 L36.9925 40.875 L33.5756 34.9644 C32.8931 33.7831 32.2682 32.9796 31.7009 32.5538 C31.1336 32.1279 30.4562 31.915 29.6688 31.915 L27.7525 31.915 L27.7525 40.875 L24.9525 40.875 L24.9525 19.595 L31.3269 19.595 C33.3598 19.595 34.9523 20.0923 36.1044 21.0869 C37.2565 22.0815 37.8325 23.4727 37.8325 25.2606 C37.8325 28.1977 36.2852 30.1038 33.1906 30.9788 L33.1906 31.0488 C33.774 31.2967 34.2778 31.6503 34.7022 32.1097 C35.1266 32.5691 35.6756 33.3559 36.3494 34.47 L40.3525 40.875 z M27.7525 22.115 L27.7525 29.395 L30.9113 29.395 C32.1333 29.395 33.1257 29.0399 33.8884 28.3297 C34.6511 27.6195 35.0325 26.6884 35.0325 25.5363 C35.0325 24.4629 34.6847 23.6244 33.9891 23.0206 C33.2934 22.4169 32.2806 22.115 30.9506 22.115 L27.7525 22.115 z" stroke-width="0.2" stroke-linejoin="round" xml:space="preserve" style="fill:#000000;" />
    <path d="M54.6325 40.875 L43.1525 40.875 L43.1525 19.595 L54.0725 19.595 L54.0725 22.115 L45.9525 22.115 L45.9525 28.835 L53.5125 28.835 L53.5125 31.355 L45.9525 31.355 L45.9525 38.355 L54.6325 38.355 L54.6325 40.875 z" stroke-width="0.2" stroke-linejoin="round" xml:space="preserve" style="fill:#000000;" />
    <path d="M70.0325 40.875 L58.5525 40.875 L58.5525 19.595 L69.4725 19.595 L69.4725 22.115 L61.3525 22.115 L61.3525 28.835 L68.9125 28.835 L68.9125 31.355 L61.3525 31.355 L61.3525 38.355 L70.0325 38.355 L70.0325 40.875 z" stroke-width="0.2" stroke-linejoin="round" xml:space="preserve" style="fill:#000000;" />
  </g>
  <linearGradient x1="0.499968" y1="1.0188" x2="1.53738" y2="1.0188" gradientUnits="objectBoundingBox" gradientTransform="rotate(-90, 0.499968, 1.018798)" id="SVGID_Fill2_" xml:space="preserve">
    <stop offset="0%" stop-color="#9BC049" stop-opacity="1" xml:space="preserve" />
    <stop offset="100%" stop-color="#23271B" stop-opacity="1" xml:space="preserve" />
  </linearGradient>
  <path d="M11.6514 56.786 L66.4733 56.786 C67.9032 56.786 69.0624 57.9452 69.0624 59.375 L69.0624 59.375 C69.0624 60.8048 67.9032 61.964 66.4733 61.964 L11.6514 61.964 C10.2216 61.964 9.0624 60.8048 9.0624 59.375 L9.0624 59.375 C9.0624 57.9452 10.2216 56.786 11.6514 56.786 z" stroke-width="0.2" stroke-linejoin="round" xml:space="preserve" style="fill:url(#SVGID_Fill2_);" />
</svg>