<?xml version="1.0" encoding="utf-8"?>
<!DOCTYPE svg PUBLIC "-//W3C//DTD SVG 1.1//EN" "http://www.w3.org/Graphics/SVG/1.1/DTD/svg11.dtd">
<svg x="0" y="0" width="58" height="58.08908" overflow="hidden" viewBox="0, 0, 78.13, 78.25"
     preserveAspectRatio="xMidYMid" font-size="0" id="svg" xml:space="preserve" xmlns="http://www.w3.org/2000/svg"
     xmlns:xml="http://www.w3.org/XML/1998/namespace" version="1.1">
  <g xml:space="preserve">
    <path d="M11.5 0.499988 L66.625 0.499988 C72.7001 0.499988 77.625 5.42485 77.625 11.5 L77.625 66.75 C77.625 72.8251 72.7001 77.75 66.625 77.75 L11.5 77.75 C5.42487 77.75 0.5 72.8251 0.5 66.75 L0.5 11.5 C0.5 5.42485 5.42487 0.499988 11.5 0.499988 z" stroke="#000000" stroke-linejoin="round" xml:space="preserve" style="fill:#8C9E64;" />
    <linearGradient x1="0.5" y1="-2.34738" x2="6.19475" y2="-2.34738" gradientUnits="objectBoundingBox" gradientTransform="rotate(90, 0.5, -2.347377)" id="SVGID_Fill1_" xml:space="preserve">
      <stop offset="42.7907%" stop-color="#EEEAEA" stop-opacity="1" xml:space="preserve" />
      <stop offset="57.6744%" stop-color="#FFFFFF" stop-opacity="0" xml:space="preserve" />
    </linearGradient>
    <path d="M65.9046 0.85419 L12.0427 0.85419 C6.55368 0.85419 2.0257 5.0654 1.37501 10.5032 C2.66073 13.0152 5.23251 14.7292 8.19543 14.7292 L70.1183 14.7292 C72.8569 14.7292 75.2614 13.2649 76.625 11.0596 C76.2272 5.35539 71.5795 0.85419 65.9046 0.85419 z" stroke-width="0.2" stroke-linejoin="round" xml:space="preserve" style="fill:url(#SVGID_Fill1_);" />
  </g>
  <g xml:space="preserve">
    <path d="M35.0725 39.3569 C32.9608 40.5556 30.575 41.155 27.915 41.155 C24.8554 41.155 22.3901 40.1889 20.5191 38.2566 C18.648 36.3243 17.7125 33.7438 17.7125 30.515 C17.7125 27.2513 18.7428 24.5687 20.8034 22.4672 C22.8641 20.3657 25.5044 19.315 28.7244 19.315 C31.0052 19.315 32.9346 19.8983 34.5125 21.065 L34.5125 23.585 C32.8179 22.4184 30.7996 21.835 28.4575 21.835 C26.1504 21.835 24.2495 22.6138 22.7547 24.1713 C21.2599 25.7288 20.5125 27.7821 20.5125 30.3313 C20.5125 32.9504 21.2008 34.9892 22.5775 36.4475 C23.9542 37.9058 25.8135 38.635 28.1556 38.635 C29.7685 38.635 31.1408 38.3346 32.2725 37.7338 L32.2725 32.195 L27.7925 32.195 L27.7925 29.675 L35.0725 29.675 L35.0725 39.3569 z" stroke-width="0.2" stroke-linejoin="round" xml:space="preserve" style="fill:#000000;" />
    <path d="M42.6325 33.035 L42.6325 40.875 L39.8325 40.875 L39.8325 19.595 L45.8131 19.595 C48.0881 19.595 49.8534 20.1536 51.1091 21.2706 C52.3647 22.3877 52.9925 23.9861 52.9925 26.0656 C52.9925 28.1715 52.2641 29.8777 50.8072 31.1844 C49.3503 32.4911 47.5296 33.1079 45.345 33.035 L42.6325 33.035 z M42.6325 22.115 L42.6325 30.515 L45.1394 30.515 C46.7931 30.515 48.0488 30.141 48.9063 29.3928 C49.7637 28.6447 50.1925 27.5736 50.1925 26.1794 C50.1925 23.4698 48.5942 22.115 45.3975 22.115 L42.6325 22.115 z" stroke-width="0.2" stroke-linejoin="round" xml:space="preserve" style="fill:#000000;" />
    <path d="M55.7925 36.605 C56.4546 37.1971 57.3391 37.6835 58.4459 38.0641 C59.5528 38.4447 60.605 38.635 61.6025 38.635 C64.6358 38.635 66.1525 37.6127 66.1525 35.5681 C66.1525 34.9965 65.9892 34.481 65.6625 34.0216 C65.3358 33.5622 64.8881 33.1568 64.3194 32.8053 C63.7506 32.4539 62.6846 31.9121 61.1212 31.18 C58.9483 30.1154 57.517 29.1267 56.8272 28.2138 C56.1374 27.3008 55.7925 26.2567 55.7925 25.0813 C55.7925 23.3108 56.5115 21.9072 57.9494 20.8703 C59.3873 19.8335 61.2015 19.315 63.3919 19.315 C65.5356 19.315 67.1092 19.805 68.1125 20.785 L68.1125 23.305 C66.7971 22.325 65.1331 21.835 63.1206 21.835 C61.7848 21.835 60.6962 22.1055 59.8547 22.6466 C59.0132 23.1876 58.5925 23.9394 58.5925 24.9019 C58.5925 25.7565 58.8812 26.4521 59.4588 26.9888 C60.0362 27.5254 61.2904 28.2575 63.2213 29.185 C65.3446 30.1679 66.8306 31.1508 67.6794 32.1338 C68.5281 33.1167 68.9525 34.2206 68.9525 35.4456 C68.9525 37.2861 68.2707 38.6977 66.9072 39.6806 C65.5436 40.6636 63.65 41.155 61.2262 41.155 C60.3775 41.155 59.3887 41.0143 58.26 40.7328 C57.1312 40.4514 56.3087 40.1021 55.7925 39.685 L55.7925 36.605 z" stroke-width="0.2" stroke-linejoin="round" xml:space="preserve" style="fill:#000000;" />
  </g>
  <linearGradient x1="0.499968" y1="1.01877" x2="1.53738" y2="1.01877" gradientUnits="objectBoundingBox" gradientTransform="rotate(-90, 0.499968, 1.018767)" id="SVGID_Fill2_" xml:space="preserve">
    <stop offset="0%" stop-color="#1DFF02" stop-opacity="1" xml:space="preserve" />
    <stop offset="100%" stop-color="#3D8C33" stop-opacity="1" xml:space="preserve" />
  </linearGradient>
  <path d="M11.6514 56.7862 L66.4733 56.7862 C67.9032 56.7862 69.0624 57.9453 69.0624 59.3751 L69.0624 59.3751 C69.0624 60.805 67.9032 61.9641 66.4733 61.9641 L11.6514 61.9641 C10.2216 61.9641 9.0624 60.805 9.0624 59.3751 L9.0624 59.3751 C9.0624 57.9453 10.2216 56.7862 11.6514 56.7862 z" stroke-width="0.2" stroke-linejoin="round" xml:space="preserve" style="fill:url(#SVGID_Fill2_);" />
</svg>