<svg enable-background="new 0 0 78.13 78.25" height="78.25" viewBox="0 0 78.13 78.25" width="78.125" xmlns="http://www.w3.org/2000/svg" xmlns:xlink="http://www.w3.org/1999/xlink"><linearGradient id="a" gradientTransform="matrix(0 1 -1 0 -1.847377 -2.847377)" gradientUnits="objectBoundingBox" x1=".5" x2="6.19475" y1="-2.34738" y2="-2.34738"><stop offset=".427907" stop-color="#eeeaea"/><stop offset=".576744" stop-color="#fff" stop-opacity="0"/></linearGradient><linearGradient id="b" gradientTransform="matrix(0 -1 1 0 -.518678 1.518612)" gradientUnits="objectBoundingBox" x1=".499967" x2="1.53738" y1="1.01864" y2="1.01864"><stop offset="0" stop-color="#fffc00"/><stop offset="1" stop-color="#69681a"/></linearGradient><g stroke-linejoin="round"><path d="m11.5.499988h55.125c6.0752 0 11 4.924862 11 11.000012v55.25c0 6.0751-4.9248 11-11 11h-55.125c-6.0751 0-11-4.9249-11-11v-55.25c0-6.07515 4.9249-11.000012 11-11.000012z" fill="#8c9e64" stroke="#000"/><path d="m65.9047.85419h-53.862c-5.48902 0-10.01697 4.21122-10.6677 9.64901 1.28574 2.512 3.85751 4.226 6.82043 4.226h61.92287c2.7386 0 5.1431-1.4643 6.5067-3.6696-.3978-5.70421-5.0454-10.20541-10.7203-10.20541z" fill="url(#a)" stroke-width=".2"/><path d="m27.6725 38.685c-1.5692.98-3.5365 1.47-5.9019 1.47-3.0538 0-5.4935-.9618-7.3194-2.8853-1.8258-1.9235-2.7387-4.4676-2.7387-7.6322 0-3.4008 1.0274-6.1381 3.0821-8.2119 2.0549-2.0737 4.6645-3.1106 7.8291-3.1106 2.0358 0 3.7187.3967 5.0488 1.19v2.52c-1.5342-.7933-3.22-1.19-5.0575-1.19-2.3917 0-4.34.7773-5.845 2.3319s-2.2575 3.6517-2.2575 6.2912c0 2.5055.7021 4.4946 2.1065 5.9675 1.4044 1.473 3.2412 2.2094 5.5104 2.2094 2.1262 0 3.9739-.49 5.5431-1.47z"/><path d="m48.3925 39.875h-3.08l-2.1394-5.6h-8.7238l-2.0168 5.6h-3.0801l8.1201-21.28h2.8zm-6.0156-8.12-3.1982-8.8725c-.102-.2858-.2114-.7817-.3281-1.4875h-.07c-.0992.6417-.2129 1.1375-.3412 1.4875l-3.1719 8.8725z"/><path d="m66.8724 39.875h-3.3599l-3.4169-5.9106c-.6825-1.1813-1.3074-1.9848-1.8747-2.4106-.5673-.4259-1.2447-.6388-2.0322-.6388h-1.9162v8.96h-2.8001v-21.28h6.3744c2.0329 0 3.6255.4973 4.7775 1.4919 1.1521.9946 1.7281 2.3858 1.7281 4.1737 0 2.9371-1.5473 4.8432-4.6418 5.7182v.07c.5833.2479 1.0872.6015 1.5115 1.0609.4244.4594.9735 1.2462 1.6472 2.3603zm-12.5999-18.76v7.28h3.1587c1.2221 0 2.2145-.3551 2.9772-1.0653s1.1441-1.6413 1.1441-2.7934c0-1.0734-.3479-1.9119-1.0435-2.5157-.6956-.6037-1.7084-.9056-3.0384-.9056z"/><path d="m11.6514 56.7868h54.822c1.4298 0 2.589 1.1591 2.589 2.589l0 0c0 1.4298-1.1592 2.589-2.589 2.589h-54.822c-1.4298 0-2.58899-1.1592-2.58899-2.589l0 0c0-1.4299 1.15919-2.589 2.58899-2.589z" fill="url(#b)" stroke-width=".2"/></g></svg>