<svg enable-background="new 0 0 78.13 78.25" height="78.25" viewBox="0 0 78.13 78.25" width="78.125" xmlns="http://www.w3.org/2000/svg" xmlns:xlink="http://www.w3.org/1999/xlink"><linearGradient id="a" gradientTransform="matrix(0 1 -1 0 -1.847377 -2.847377)" gradientUnits="objectBoundingBox" x1=".5" x2="6.19475" y1="-2.34738" y2="-2.34738"><stop offset=".427907" stop-color="#eeeaea"/><stop offset=".576744" stop-color="#fff" stop-opacity="0"/></linearGradient><path d="m11.5.499988h55.125c6.0751 0 11 4.924862 11 11.000012v55.25c0 6.0751-4.9249 11-11 11h-55.125c-6.07513 0-11-4.9249-11-11v-55.25c0-6.07515 4.92487-11.000012 11-11.000012z" fill="#c35e49" stroke="#000" stroke-linejoin="round"/><path d="m65.9047.85419h-53.862c-5.48905 0-10.017 4.21122-10.6677 9.64901 1.28571 2.512 3.85748 4.226 6.82043 4.226h61.92287c2.7386 0 5.1431-1.4643 6.5067-3.6696-.3979-5.70421-5.0455-10.20541-10.7203-10.20541z" fill="url(#a)" stroke-linejoin="round" stroke-width=".2"/></svg>