<svg enable-background="new 0 0 258.00 258.00" height="258" viewBox="0 0 258 258" width="258" xmlns="http://www.w3.org/2000/svg" xmlns:xlink="http://www.w3.org/1999/xlink"><linearGradient id="a" gradientTransform="matrix(0 -1 1 0 -.581108 1.581108)" gradientUnits="objectBoundingBox" x1=".5" x2="1.66222" y1="1.08111" y2="1.08111"><stop offset="0" stop-color="#abc4ab"/><stop offset=".771552" stop-color="#d5e1d5"/><stop offset="1" stop-color="#fff"/></linearGradient><linearGradient id="b"><stop offset="0" stop-color="#f3f8f8"/><stop offset="1" stop-color="#00eefc"/></linearGradient><radialGradient id="c" cx="92.6761" cy="150.552" gradientUnits="userSpaceOnUse" r="39.2039" xlink:href="#b"/><radialGradient id="d" cx="89.9447" cy="120.34" gradientUnits="userSpaceOnUse" r="9.56018" xlink:href="#b"/><path d="m44 3.99997h170c22.091 0 40 17.90853 40 40.00003v170c0 22.092-17.909 40-40 40h-170c-22.0914 0-40-17.908-40-40v-170c0-22.0915 17.9086-40.00003 40-40.00003z" fill="url(#a)" stroke="#000" stroke-linecap="square" stroke-linejoin="bevel" stroke-width="8"/><g stroke-linejoin="round"><ellipse cx="128.22" cy="127.683" fill="#16376c" rx="96.8333" ry="97.6667" stroke-width=".2"/><path d="m131.72 31.1833c37.984 4.3219 55.251 23.1489 45.666 21.8333-34-4.6668-42.076 5.6091-42.667 6-28.416 18.8332-19.952 47.8454-5.666 66.3334 28.333 36.667 12 61.333 3.333 70-29.774 29.774-98.9996 2.333-97.4998-66.5 1.1751-53.9267 43.6911-103.7134 96.8338-97.6667z" fill="#339b2c" stroke-width=".2"/><ellipse cx="126.511" cy="128.267" fill="none" rx="96.8334" ry="97.6667" stroke="#16376c" stroke-width="5"/><path d="m66.7272 188.677h17.1693l.7804-25.536 2.3413-8.992 4.6825-5.035 5.8531.719 6.2432 3.956 8.585 10.79 3.512 2.518 8.584.719h4.683l.39-6.833-12.877-11.869-8.975-5.755-7.8039-4.316 9.7549-11.15 5.073-9.711 1.951-4.676-7.804 2.878-8.194 8.991-5.8536 5.036-3.9021 1.798-7.8042-2.877-4.6826-1.079-2.7315 2.877v-4.316l-1.5608-3.237-11.3161-10.79-3.512-.36.3903 6.115 6.6335 7.912 3.512 1.799h-14.0478l4.2925 5.035 12.4867-1.079-6.6336 3.956-4.2923 2.518-.7805 3.237 3.9022.719 3.5119-1.798 4.2923-2.517 3.1217-.36 3.1217 4.316-3.5119 8.632-3.5119 5.395-3.1217 7.913-1.951 8.991z" fill="#fff" stroke="url(#c)"/><path d="m89.7496 113.147-4.6826 1.079-2.3412 3.596-1.1706 5.755 2.3413 3.237 3.1217-.719 1.1706-2.518 2.8616.24.26 1.918 1.8211 1.679 3.1217-1.679.9105-3.597 1.1707-3.956-2.3414-3.956z" fill="#fff" stroke="url(#d)"/><path d="m161.754 122.605c-5.432-.536-15.371.241-17.818-2.762-2.448-3.003 2.596-9.787 4.773-14.466s1.487-7.2533-2.587-3.513c-4.074 3.74-11.532 13.796-11.202 19.051.33 5.256 8.449 5.712 15.433 5.9 6.984.187 12.834.107 15.296-.858 2.463-.966 1.537-2.816-3.895-3.352z" fill="#fff" stroke="#fff"/><path d="m138.285 99.4475c-1.615-.1586 1.022-1.7761 4.432-3.593 3.41-1.8166 7.593-3.8318 9.745-4.5314 2.151-.6994 2.271-.0827 3.456 3.6232s3.436 10.5007 2.899 11.3587c-.538.858-3.863-4.221-8.458-6.11-4.595-1.8891-10.46-.5887-12.074-.7475z" fill="#fff" stroke="#fff"/><path d="m196.338 101.859c2.199 4.494 7.918 11.838 6.247 15.244-1.671 3.405-10.733 2.873-16.332 3.519s-7.736 2.47-2.093 3.769c5.642 1.3 19.065 2.074 23.967-.81 4.901-2.885 1.281-9.429-2.03-14.957-3.311-5.527-6.314-10.0381-8.475-11.471-2.162-1.4331-3.483.2117-1.284 4.706z" fill="#fff" stroke="#fff"/><path d="m185.749 131.697c.654 1.335-2.223.093-5.68-1.652-3.456-1.744-7.491-3.991-9.241-5.316-1.75-1.324-1.215-1.725 1.765-4.5s8.405-7.923 9.501-7.935c1.096-.011-2.138 5.116-1.662 9.636.477 4.519 4.663 8.432 5.317 9.767z" fill="#fff" stroke="#fff"/><path d="m160.217 85.3608c3.233-3.958 7.453-12.0793 11.572-12.4819 4.118-.4025 8.136 6.9135 11.558 10.947 3.422 4.0332 6.249 4.7837 4.681-.2562-1.569-5.0399-7.534-15.8701-12.765-18.2409-5.232-2.3711-9.73 3.7171-13.403 9.0569-3.673 5.3397-6.521 9.9314-6.822 12.3296-.3 2.3984 1.946 2.6035 5.179-1.3545z" fill="#fff" stroke="#fff"/><path d="m194.276 78.68c.96-1.1767 1.201 1.6833 1.247 5.2447s-.102 7.8238-.504 9.8472c-.401 2.0237-1.056 1.8081-5.221.8774-4.165-.9308-11.841-2.5771-12.399-3.4242-.559-.847 6-.8947 10.119-3.5251 4.119-2.6305 5.798-7.8436 6.758-9.02z" fill="#fff" stroke="#fff"/><path d="m207.505 33.5872h-5.6v15.96h-4.48v-15.96h-5.6v-3.64h15.68z" stroke-width=".2"/><path d="m232.425 49.5472h-4.48v-11.7294c0-1.2658.057-2.6643.171-4.1955h-.109c-.228 1.2046-.433 2.0708-.617 2.5987l-4.594 13.3262h-3.609l-4.677-13.1905c-.129-.3559-.334-1.2674-.617-2.7344h-.123c.117 1.9337.175 3.6296.175 5.088v10.8369h-3.92v-19.6h6.41l4.003 11.62c.321.9274.554 1.8609.7 2.8h.083c.245-1.085.505-2.0285.779-2.8306l4.003-11.5894h6.422z" stroke-width=".2"/></g></svg>