<svg enable-background="new 0 0 258.00 258.00" height="258" viewBox="0 0 258 258" width="258" xmlns="http://www.w3.org/2000/svg" xmlns:xlink="http://www.w3.org/1999/xlink"><linearGradient id="a" gradientTransform="matrix(0 -1 1 0 -.581108 1.581108)" gradientUnits="objectBoundingBox" x1=".5" x2="1.66222" y1="1.08111" y2="1.08111"><stop offset="0" stop-color="#abc4ab"/><stop offset=".771552" stop-color="#d5e1d5"/><stop offset="1" stop-color="#fff"/></linearGradient><radialGradient id="b" cx="133.919" cy="94.8671" gradientUnits="userSpaceOnUse" r="80.7003"><stop offset=".00925926" stop-color="#fff"/><stop offset=".546296" stop-color="#fcfcfc"/><stop offset="1" stop-color="#7e7e7e"/></radialGradient><radialGradient id="c" cx="133.267" cy="94.2765" gradientUnits="userSpaceOnUse" r="43.6218"><stop offset=".138889" stop-color="#999"/><stop offset=".518519" stop-color="#727272"/><stop offset="1" stop-color="#fff"/></radialGradient><radialGradient id="d" cx="119.513" cy="170.399" gradientUnits="userSpaceOnUse" r="27.2999"><stop offset="0"/><stop offset=".407407" stop-color="#090909"/><stop offset=".717593" stop-color="#b2b2b2"/><stop offset=".925926" stop-color="#d5d5d5"/><stop offset="1" stop-color="#fff"/></radialGradient><radialGradient id="e" cx="109.493" cy="168.316" gradientUnits="userSpaceOnUse" r="66.1249"><stop offset="0" stop-color="#fff"/><stop offset=".574074" stop-color="#fff"/><stop offset="1" stop-color="#5a5a5b"/></radialGradient><g stroke="#000" stroke-linejoin="bevel"><path d="m44 4h170c22.091 0 40 17.9086 40 39.9999v170.0001c0 22.091-17.909 40-40 40h-170c-22.0914 0-40-17.909-40-40v-170.0001c0-22.0913 17.9086-39.9999 40-39.9999z" fill="url(#a)" stroke-linecap="square" stroke-width="8"/><g stroke-width="5"><ellipse cx="129.638" cy="99.0651" fill="url(#b)" rx="64.75" ry="63.5002"/><ellipse cx="128.639" cy="98.8152" fill="url(#c)" rx="35" ry="34.3244"/><path d="m113.93 163.399-.166 34h31.5v-34z" fill="url(#d)"/><path d="m76.8887 219.565 7.8748-6.499 13.125-9 10.0415-4.5 12.167-3 15-.167 12.167 1.5 10.333 4.5 7.792 4.167 8.5 6 8.208 7.666z" fill="url(#e)"/></g></g></svg>