<svg enable-background="new 0 0 258.00 258.00" height="258" viewBox="0 0 258 258" width="258" xmlns="http://www.w3.org/2000/svg" xmlns:xlink="http://www.w3.org/1999/xlink"><linearGradient id="a" gradientTransform="matrix(0 -1 1 0 -.581107 1.581107)" gradientUnits="objectBoundingBox" x1=".5" x2="1.66222" y1="1.08111" y2="1.08111"><stop offset="0" stop-color="#abc4ab"/><stop offset=".771552" stop-color="#d5e1d5"/><stop offset="1" stop-color="#fff"/></linearGradient><linearGradient id="b" gradientUnits="objectBoundingBox" x1="-.101112" x2="1.10113" y1=".499995" y2=".499995"><stop offset="0" stop-color="#1fa3ff"/><stop offset="1"/></linearGradient><linearGradient id="c" gradientUnits="objectBoundingBox" x1="0" x2=".999979" y1=".499998" y2=".499998"><stop offset="0" stop-color="#909ca4"/><stop offset="1"/></linearGradient><radialGradient id="d" cx="128.661" cy="128.048" gradientUnits="userSpaceOnUse" r="98.9999"><stop offset="0" stop-color="#909ca4"/><stop offset=".469828" stop-color="#768087"/><stop offset=".517774" stop-color="#626b71"/><stop offset=".547414" stop-color="#4e565b"/><stop offset=".570813" stop-color="#6b747b"/><stop offset=".62931" stop-color="#88939b"/><stop offset="1" stop-color="#88939b"/></radialGradient><g stroke-linecap="square" stroke-linejoin="bevel"><path d="m44 4.00012h170c22.091 0 40 17.90848 40 39.99978v170.0001c0 22.091-17.909 40-40 40h-170c-22.0914 0-40-17.909-40-40v-170.0001c0-22.0913 17.9086-39.99978 40-39.99978z" fill="url(#a)" stroke="#000" stroke-width="8"/><path d="m94.225 58.3834h71.2v16.5877l-13.199 10.5822v60.9197l13.199 9.724v14.587h-71.2v-14.589l14.401-10.294v-60.3477l-14.401-10.8662z" fill="url(#b)"/><path d="m126.776 170.784h5.81l-.175 50.015-2.85 3.15-2.785-3.25z" fill="url(#c)"/><path d="m109.011 216.972c-40.2553-8.965-70.3497-44.892-70.3497-87.848 0-49.7059 40.2945-90.0003 89.9997-90.0003 49.706 0 90 40.2944 90 90.0003 0 41.665-28.313 76.718-66.75 86.968" fill="none" stroke="url(#d)" stroke-width="10"/></g></svg>