<svg enable-background="new 0 0 58.32 58.81" height="58.8058" viewBox="0 0 58.32 58.81" width="58.3182" xmlns="http://www.w3.org/2000/svg" xmlns:xlink="http://www.w3.org/1999/xlink"><linearGradient id="a"><stop offset="0" stop-color="#f3f8f8"/><stop offset="1" stop-color="#00eefc"/></linearGradient><radialGradient id="b" cx="19.1434" cy="35.998" gradientUnits="userSpaceOnUse" r="11.6018" xlink:href="#a"/><radialGradient id="c" cx="18.335" cy="27.0573" gradientUnits="userSpaceOnUse" r="2.82919" xlink:href="#a"/><g stroke-linejoin="round"><ellipse cx="29.6619" cy="29.2303" fill="#16376c" rx="28.6563" ry="28.9029" stroke-width=".2"/><path d="m30.6977.672607c11.2408 1.279053 16.3508 6.850583 13.5143 6.461303-10.0618-1.3811-12.4519 1.65991-12.6266 1.77564-8.4094 5.57335-5.9047 14.15905-1.6769 19.63025 8.3848 10.8509 3.5512 18.1506.9865 20.7154-8.8113 8.8113-29.29754.6905-28.85368-19.6796.34776-15.9588 12.92968-30.69242 28.65638-28.902993z" fill="#339b2c" stroke-width=".2"/><ellipse cx="29.1563" cy="29.4029" fill="none" rx="28.6563" ry="28.9029" stroke="#16376c"/><g fill="#fff"><path d="m11.4641 47.2805h5.081l.231-7.5571.6928-2.661 1.3858-1.4901 1.7321.2129 1.8476 1.1707 2.5406 3.1933 1.0393.745 2.5404.2129h1.3858l.1154-2.0224-3.8107-3.5124-2.656-1.703-2.3095-1.2774 2.8869-3.2995 1.5012-2.8738.5774-1.3838-2.3095.8516-2.425 2.661-1.7322 1.4901-1.1548.5322-2.3095-.8516-1.3857-.3193-.8084.8516v-1.2774l-.4619-.9579-3.3488-3.1932-1.03933-.1064.11547 1.8095 1.96316 2.3416 1.0392.5322h-4.15713l1.27025 1.4902 3.69528-.3193-1.9631 1.1708-1.27026.7451-.23096.9579 1.15472.2129 1.0394-.5323 1.2702-.7449.9238-.1065.9238 1.2772-1.0393 2.5546-1.0393 1.5965-.9238 2.3417-.5774 2.661z" stroke="url(#b)"/><path d="m18.2773 24.9283-1.3857.3194-.6929 1.0644-.3464 1.703.6928.9579.9238-.2129.3465-.745.8468.071.077.5676.5389.4968.9238-.4968.2694-1.0643.3465-1.1708-.6929-1.1709z" stroke="url(#c)"/><path d="m39.5859 27.7274c-1.6075-.1587-4.5489.0716-5.2731-.8172-.7243-.8887.7684-2.8963 1.4127-4.2809.6442-1.3848.44-2.1468-.7657-1.0398-1.2056 1.1069-3.4127 4.0827-3.315 5.638s2.5001 1.6902 4.567 1.7458c2.0669.0555 3.7981.0317 4.5268-.2539.7287-.2857.4549-.8333-1.1527-.992z" stroke="#fff"/><path d="m32.6404 20.8744c-.4777-.047.3025-.5256 1.3117-1.0634 1.0091-.5376 2.2472-1.1339 2.8839-1.3409s.672-.0245 1.0227 1.0721c.3508 1.0967 1.0169 3.1076.8579 3.3615s-1.1431-1.249-2.503-1.8081-3.0955-.1743-3.5732-.2212z" stroke="#fff"/><path d="m49.8206 21.588c.6508 1.3301 2.3433 3.5033 1.8487 4.5111-.4946 1.008-3.1763.8504-4.8333 1.0414-1.657.1912-2.2894.731-.6195 1.1156 1.67.3845 5.6422.6138 7.0927-.2399s.3793-2.7902-.6006-4.426c-.9799-1.6357-1.8685-2.9708-2.5082-3.3949s-1.0306.0626-.3798 1.3927z" stroke="#fff"/><path d="m46.6869 30.4181c.1936.3951-.658.0275-1.6809-.4888-1.0228-.5163-2.2168-1.1814-2.7347-1.5732-.5179-.3919-.3596-.5105.5223-1.3318.8818-.8212 2.4872-2.3449 2.8115-2.3482.3243-.0031-.6326 1.514-.4916 2.8515s1.3798 2.4955 1.5734 2.8905z" stroke="#fff"/><path d="m39.131 16.7057c.9568-1.1714 2.2056-3.5747 3.4245-3.6939 1.2188-.1191 2.4078 2.0459 3.4205 3.2395 1.0128 1.1936 1.8494 1.4157 1.3851-.0758-.4642-1.4914-2.2294-4.6964-3.7775-5.398-1.5482-.7017-2.8795 1.0999-3.9665 2.6801-1.087 1.5804-1.9296 2.9391-2.0186 3.6488-.089.7099.5757.7706 1.5325-.4007z" stroke="#fff"/><path d="m49.2101 14.7285c.2841-.3483.3555.4982.3692 1.5521.0137 1.054-.0304 2.3153-.1492 2.9142-.1188.5988-.3124.5351-1.545.2597-1.2326-.2757-3.5041-.7627-3.6694-1.0135-.1653-.2506 1.7757-.2647 2.9946-1.0432 1.2189-.7784 1.7157-2.3211 1.9998-2.6693z" stroke="#fff"/></g></g></svg>