<svg enable-background="new 0 0 63.00 63.11" height="63.1084" viewBox="0 0 63 63.11" width="63" xmlns="http://www.w3.org/2000/svg" xmlns:xlink="http://www.w3.org/1999/xlink"><linearGradient id="a" gradientUnits="objectBoundingBox" x1="-.101111" x2="1.10113" y1=".499995" y2=".499995"><stop offset="0" stop-color="#1fa3ff"/><stop offset="1"/></linearGradient><linearGradient id="b" gradientUnits="objectBoundingBox" x1="0" x2=".999984" y1=".499997" y2=".499997"><stop offset="0" stop-color="#909ca4"/><stop offset="1"/></linearGradient><radialGradient id="c" cx="31.5" cy="31.1415" gradientUnits="userSpaceOnUse" r="33"><stop offset="0" stop-color="#909ca4"/><stop offset=".469828" stop-color="#768087"/><stop offset=".517774" stop-color="#626b71"/><stop offset=".547414" stop-color="#4e565b"/><stop offset=".570813" stop-color="#6b747b"/><stop offset=".62931" stop-color="#88939b"/><stop offset="1" stop-color="#88939b"/></radialGradient><g stroke-linecap="square" stroke-linejoin="bevel"><path d="m20.0212 7.91992h23.7334v5.52918l-4.3997 3.5275v20.3065l4.3997 3.2414v4.8623h-23.7334v-4.863l4.8004-3.4314v-20.1158l-4.8004-3.6221z" fill="url(#a)"/><path d="m30.8716 45.3868h1.9367l-.0583 16.6715-.95 1.0501-.9284-1.0834z" fill="url(#b)"/><path d="m24.95 60.7828c-13.4185-2.9882-23.44998-14.9641-23.44998-29.2828 0-16.5685 13.43148-30 29.99998-30s30 13.4315 30 30c0 13.8885-9.4378 25.5729-22.25 28.9894" fill="none" stroke="url(#c)" stroke-width="3"/></g></svg>