<svg enable-background="new 0 0 43.08 61.00" height="61.0001" viewBox="0 0 43.08 61" width="43.0757" xmlns="http://www.w3.org/2000/svg" xmlns:xlink="http://www.w3.org/1999/xlink"><radialGradient id="a" cx="22.9287" cy="19.7677" gradientUnits="userSpaceOnUse" r="26.2202"><stop offset=".00925926" stop-color="#fff"/><stop offset=".546296" stop-color="#fcfcfc"/><stop offset="1" stop-color="#7e7e7e"/></radialGradient><radialGradient id="b" cx="22.7168" cy="19.5758" gradientUnits="userSpaceOnUse" r="14.1731"><stop offset=".138889" stop-color="#999"/><stop offset=".518519" stop-color="#727272"/><stop offset="1" stop-color="#fff"/></radialGradient><radialGradient id="c" cx="18.2483" cy="44.3087" gradientUnits="userSpaceOnUse" r="18.0706"><stop offset="0"/><stop offset=".407407" stop-color="#090909"/><stop offset=".717593" stop-color="#b2b2b2"/><stop offset=".925926" stop-color="#d5d5d5"/><stop offset="1" stop-color="#fff"/></radialGradient><radialGradient id="d" cx="14.9924" cy="43.6318" gradientUnits="userSpaceOnUse" r="21.4846"><stop offset="0" stop-color="#fff"/><stop offset=".574074" stop-color="#fff"/><stop offset="1" stop-color="#5a5a5b"/></radialGradient><g stroke="#000" stroke-linejoin="bevel"><path d="m21.5379.499878c11.6189 0 21.0378 9.237302 21.0378 20.631822 0 11.3945-9.4189 20.6317-21.0378 20.6317-11.61895 0-21.0379-9.2372-21.0379-20.6317 0-11.39452 9.41895-20.631822 21.0379-20.631822z" fill="url(#a)"/><ellipse cx="21.2131" cy="21.0505" fill="url(#b)" rx="11.3718" ry="11.1523"/><path d="m16.4342 42.0343-.0541 11.0469h10.2346v-11.0469z" fill="url(#c)"/><path d="m4.39908 60.2833 2.55862-2.1118 4.2645-2.9243 3.2626-1.462 3.9531-.9748 4.8736-.0542 3.9531.4875 3.3573 1.462 2.5316 1.3539 2.7618 1.9493 2.6669 2.4911z" fill="url(#d)"/></g></svg>