<svg enable-background="new 0 0 54.94 55.13" height="55.1286" viewBox="0 0 54.94 55.13" width="54.9407" xmlns="http://www.w3.org/2000/svg" xmlns:xlink="http://www.w3.org/1999/xlink"><radialGradient id="a" cx="35.2098" cy="21.4945" gradientTransform="matrix(0 -1 1 0 13.715332 56.704346)" gradientUnits="userSpaceOnUse" r="29.3837"><stop offset="0" stop-color="#fffdfd"/><stop offset=".731481" stop-color="#fff"/><stop offset=".805556" stop-color="#ffb600"/><stop offset=".925926" stop-color="#ffb600"/><stop offset="1" stop-color="#ffe45c"/></radialGradient><linearGradient id="b"><stop offset="0" stop-color="#fffdfd"/><stop offset=".606481" stop-color="#fff"/><stop offset=".699074" stop-color="#ffb600"/><stop offset=".925926" stop-color="#ffb600"/><stop offset="1" stop-color="#ffe45c"/></linearGradient><radialGradient id="c" cx="28.7007" cy="26.7622" gradientUnits="userSpaceOnUse" r="19.8281" xlink:href="#b"/><radialGradient id="d" cx="33.0852" cy="21.9775" gradientUnits="userSpaceOnUse" r="16.88" xlink:href="#b"/><g stroke-linejoin="bevel"><path d="m27.4703.5c14.8954 0 26.9704 12.1169 26.9704 27.0642s-12.0751 27.0645-26.9704 27.0645c-14.8952 0-26.9703-12.1172-26.9703-27.0645s12.075-27.0642 26.9703-27.0642z" fill="#a0d4e0" stroke="#000"/><path d="m51.8682 28.915-1.4801.8459-.7048.6344-.2115 2.5373.4934 1.9734-.3524 1.1981-.8458.9163-.5638 1.3391-.9162.8458-.7754.4933-2.0439.141-.7752-.8457-1.762-.7754-2.4668-.2114-1.4097-.7049-1.762-.0704-1.9029.7753-1.1277.7754-.5639 1.6914.282 1.4802.5638 1.0571-.4229 1.0572-.9163.5639-.4933 1.3391.3524 2.3258.6343.9867-.4934 1.0572-.7047.9162-.7753 1.2688.2114 1.2686.0589.2431c12.5511-1.9151 22.2598-12.5112 22.8535-25.4936l-.4292.0185z" fill="#205910" stroke-width=".2"/><path d="m17.3329 6.43213.141-2.25537-.7186-1.20386c-9.01516 4.17065-15.34609 13.1864-15.67782 23.7208l1.31366.1776 1.55054-.2114 1.19818-.9868.63431-.9867.56384-1.3392.8458-.6343.21142-1.8325.56385-1.6914 1.05719-.9869.98673-.2114.9162.4229.9163.7754 1.621.1408 1.762-.1408.6343-1.2687 1.4097-1.0573.9866-1.4799.7048-1.8326-.1409-2.2553-.4229-1.33915-1.0572-1.26855z" fill="#205910" stroke-width=".2"/><g stroke="#000"><path d="m33.6035 26.1663-.1879.1337-1.5304.5059-10.6282 6.937-.9212-4.709-.5244-6.0581.3402-4.5525.9352-5.4196 1.9556-4.26347 2.3808-4.55249 2.7208-3.613277.7131.659917 3.9422 24.94202z" fill="url(#a)"/><path d="m28.5746 23.8523 25.6251 3.4423c-.2933-14.1183-11.3598-25.57854-25.2837-26.437666z" fill="url(#c)"/><path d="m28.5287 23.3091-.1304.1556-.4934 1.2687-6.766 8.8098 4.5929.7637 5.9086.4346 4.4402-.2819 5.286-.7753 4.1583-1.6211 4.4403-1.9734 3.524-2.2553-.6436-.5911-24.3268-3.2678z" fill="url(#d)"/></g></g></svg>