<svg enable-background="new 0 0 258.00 258.00" height="258" viewBox="0 0 258 258" width="258" xmlns="http://www.w3.org/2000/svg" xmlns:xlink="http://www.w3.org/1999/xlink"><radialGradient id="a" cx="157.3" cy="109.999" gradientTransform="matrix(0 -1 1 0 47.300903 267.299683)" gradientUnits="userSpaceOnUse" r="97.946"><stop offset="0" stop-color="#fffdfd"/><stop offset=".731481" stop-color="#fff"/><stop offset=".805556" stop-color="#ffb600"/><stop offset=".925926" stop-color="#ffb600"/><stop offset="1" stop-color="#ffe45c"/></radialGradient><linearGradient id="b"><stop offset="0" stop-color="#fffdfd"/><stop offset=".606481" stop-color="#fff"/><stop offset=".699074" stop-color="#ffb600"/><stop offset=".925926" stop-color="#ffb600"/><stop offset="1" stop-color="#ffe45c"/></linearGradient><radialGradient id="c" cx="135.603" cy="127.558" gradientUnits="userSpaceOnUse" r="66.094" xlink:href="#b"/><radialGradient id="d" cx="150.218" cy="111.609" gradientUnits="userSpaceOnUse" r="56.2666" xlink:href="#b"/><g stroke-linejoin="bevel"><ellipse cx="131.502" cy="130.232" fill="#a0d4e0" rx="89.9011" ry="90.2144" stroke="#000" stroke-width="5"/><path d="m212.828 134.735-4.933 2.819-2.35 2.115-.705 8.457 1.645 6.578-1.175 3.994-2.819 3.054-1.879 4.464-3.055 2.819-2.584 1.645-6.813.47-2.584-2.82-5.873-2.584-8.223-.705-4.699-2.349-5.873-.235-6.343 2.584-3.759 2.585-1.88 5.638.94 4.934 1.879 3.524-1.409 3.524-3.054 1.879-1.645 4.464 1.175 7.753 2.114 3.289-1.644 3.524-2.35 3.054-2.584 4.229.705 4.229.196.81c41.837-6.384 74.199-41.704 76.179-84.979l-1.432.062z" fill="#205910" stroke-width=".2"/><path d="m97.7107 59.7911.47-7.518-2.3953-4.0122c-30.0505 13.9018-51.1536 43.9544-52.2595 79.0691l4.3789.592 5.1684-.705 3.9941-3.289 2.1143-3.289 1.8794-4.464 2.8192-2.114.705-6.108 1.8794-5.639 3.524-3.289 3.2891-.7047 3.0541 1.4096 3.0542 2.5841 5.4034.47 5.8732-.47 2.1145-4.2287 4.6987-3.5239 3.2892-4.9336 2.349-6.1084-.47-7.5178-1.409-4.4639-3.5243-4.2286z" fill="#205910" stroke-width=".2"/><path d="m151.946 125.572-.626.446-5.102 1.686-35.427 23.124-3.071-15.697-1.747-20.194 1.133-15.1748 3.118-18.0655 6.518-14.2118 7.936-15.1752 9.07-12.0436 2.377 2.1997 13.141 83.1402z" fill="url(#a)" stroke="#000" stroke-width="5"/><path d="m135.183 117.859 85.417 11.474c-.978-47.0607-37.866-85.2617-84.279-88.1251z" fill="url(#c)" stroke="#000" stroke-width="5"/><path d="m135.03 116.048-.435.519-1.644 4.229-22.554 29.366 15.31 2.545 19.695 1.449 14.801-.94 17.62-2.584 13.861-5.403 14.801-6.578 11.747-7.518-2.146-1.971-81.089-10.892z" fill="url(#d)" stroke="#000" stroke-width="5"/></g><path d="m218.183 54.0731h-5.263v14.9982h-4.21v-14.9982h-5.262v-3.4206h14.735z" stroke-linejoin="round" stroke-width=".2"/><path d="m241.601 69.0713h-4.21v-11.0225c0-1.1895.054-2.5039.161-3.9428h-.103c-.214 1.1319-.407 1.9461-.58 2.4422l-4.317 12.5231h-3.392l-4.395-12.3956c-.12-.3345-.313-1.191-.579-2.5697h-.115c.109 1.8172.164 3.4111.164 4.7816v10.1837h-3.684v-18.4188h6.023l3.762 10.9198c.302.8715.521 1.7486.658 2.6312h.078c.23-1.0195.474-1.9063.732-2.66l3.762-10.891h6.035z" stroke-linejoin="round" stroke-width=".2"/></svg>