<svg enable-background="new 0 0 258.00 258.00" height="258" viewBox="0 0 258 258" width="258" xmlns="http://www.w3.org/2000/svg"><g stroke-linejoin="round"><path d="m127.473 52.2324c50.12 0 90.75 28.206 90.75 62.9996 0 14.919-7.469 28.626-19.953 39.418l-4.548 5.082-10 7-7 11.5-7 14-7.5 10.5-5-1-1.499-9-1.261-17.333c-8.526 1.842-17.591 2.833-26.989 2.833-50.12 0-90.7501-28.206-90.7501-63 0-34.7936 40.6301-62.9996 90.7501-62.9996z" fill="#e4e4e1" stroke="#000" stroke-width="5"/><path d="m196.222 77.6302c-16.039-14.5168-41.486-23.8978-70.137-23.8978-48.5249 0-87.8622 26.9105-87.8622 60.1066 0 9.469 3.2003 18.426 8.9015 26.393l20.5424-10.844c-4.4337-5.455-6.9337-11.631-6.9337-18.173 0-22.1305 28.609-40.071 63.9-40.071 17.793 0 33.888 4.5606 45.474 11.9191z" fill="#eff487" stroke-width=".2"/><ellipse cx="126.223" cy="112.232" fill="#fff" rx="66" ry="41.9999" stroke-width=".2"/><path d="m84.7227 89.7321h91.5v17h-91.5z" fill="#be7474" stroke="#ce9696" stroke-width="2"/><path d="m115.223 114.482h60.3331v17h-60.3331z" fill="#be7474" stroke="#ce9696" stroke-width="2"/></g></svg>