<svg enable-background="new 0 0 51.00 61.46" height="61.4555" viewBox="0 0 51 61.46" width="50.9969" xmlns="http://www.w3.org/2000/svg"><g stroke-linejoin="round"><g stroke="#000"><path d="m30.5315 34.6832c.3775.5535.9562 1.5601 1.1953 2.4661.2391.9059.1384 1.7112-.1132 2.3906-.2517.6795-.6543 1.2329-1.2582 1.6985-.604.4656-1.4092.843-2.9191 1.296s-3.7243.9813-5.662 1.5602c-1.9376.5789-3.5985 1.2079-4.7812 1.9376-1.1827.7299-1.8873 1.5602-2.3277 2.4284-.4404.8681-.6165 1.7741-.6039 2.7303s.2139 1.9628.2894 2.4662c.0755.5032.0251.5032-.3649.2893-.3901-.2139-1.1198-.6416-1.8622-1.4973-.7423-.8555-1.4972-2.1389-2.60447-3.8375-1.10723-1.6986-2.56675-3.8124-3.523-5.1335-.95624-1.3212-1.4092-1.8496-2.01315-2.3026-.60394-.453-1.35886-.8304-1.9628-1.0568-.60394-.2265-1.05691-.302-1.283388-.4028-.226471-.1005-.226471-.2263-.23906-.7926-.01258-.5662-.03775-1.5727.125824-2.5919.163567-1.0191.515864-2.0509 1.056904-2.9316.54103-.8808 1.27079-1.6106 1.86216-2.1641.59136-.5537 1.04431-.9311 1.62308-1.3213.57879-.3899 1.28339-.7926 2.15155-1.1574.86817-.3649 1.8999-.6921 2.71775-.8682.8178-.1762 1.4218-.2013 4.6806.8303 3.2587 1.0318 9.1723 3.1205 12.2172 4.2151 3.0449 1.0947 3.221 1.1953 3.5985 1.749z" fill="#fff"/><path d="m21.0617 37.9517c.1426-.0629.4697-.1383.864-.2013.3942-.063.8556-.1133 1.2079-.1553.3523-.0419.5955-.0754.9646-.0713.3691.0042.864.0461 1.4428.1887s1.2414.386 1.6902.5369c.4487.1511.6836.2097.8765.1677.1929-.0417.3439-.1846.5284-.26.1846-.0754.4027-.0837.7214-.0879.3188-.0044.7382-.0044 1.0569.0166.3188.021.5369.063.734.1636.1971.1007.3733.26.4823.4907s.151.5327.0839.8472c-.0671.3147-.2433.6418-.4823.9353-.2391.2937-.5411.5537-.9857.8094-.4445.2559-1.0316.5075-1.6356.713-.6039.2056-1.2247.3649-1.5854.4363-.3606.0713-.4613.0545-.5788-.021-.1174-.0755-.2516-.2097-.6039-.4907s-.9227-.7089-1.6818-1.3044-1.707-1.3589-2.2648-1.8118-.7256-.5956-.8304-.6921-.1468-.1468-.0042-.2096z"/><path d="m17.4548 34.672c.1929.1299.5117.4402.994.9058.4823.4655 1.1282 1.0864 1.5267 1.4763.3984.3901.5494.5495.6584.6626.1091.1133.1762.1804.2055.2224.0294.042.021.0587-.1048.0754-.1258.0169-.3691.0337-.7466.084s-.8891.134-1.3966.281c-.5075.1467-1.0108.3565-1.4469.5662-.4362.2097-.8053.4194-1.1157.6081-.3103.1888-.5619.3565-.7927.5159-.2306.1594-.4403.3103-.5745.4067-.1342.0965-.1929.1385-.2558.1469s-.1301-.0167-.365-.2055c-.2348-.1887-.6374-.5411-1.0191-.906-.3817-.3648-.7423-.7424-1.0275-1.0358-.2852-.2937-.4949-.5033-.6291-.6418-.1343-.1383-.1929-.2054-.2181-.2558s-.0168-.0839.0797-.193c.0965-.1089.281-.2935.6081-.52.3271-.2264.7969-.4949 1.2037-.7005.4068-.2053.7507-.3481 1.103-.4907s.713-.2852 1.0905-.436c.3774-.1512.7717-.3103 1.0611-.4112.2894-.1006.4739-.1426.5955-.1635.1217-.021.1804-.021.2433-.0462.0629-.0251.13-.0754.3229.0547z"/><path d="m12.9378 31.0609c.1384.1593.4656.4612.8766.822.411.3606.9059.7801 1.3379 1.1198s.8011.5997 1.0905.7716c.2894.1721.499.2559.6836.3188.1845.063.3439.1049.5116.151.1678.0461.344.0965.6208.1217s.6542.0252.952.0335.5159.0251.6501.0293c.1342.0041.1845-.0042-.0251-.2139-.2098-.2097-.6795-.6206-1.3212-1.124-.6417-.5032-1.4553-1.0989-2.0467-1.493-.5913-.3942-.9604-.5872-1.1953-.6794-.2349-.0923-.3355-.0839-.6123-.0881s-.7298-.021-1.0192-.0168c-.2894.0041-.4152.0293-.5033.0502-.088.021-.1384.0379 0 .1973z"/><path d="m9.6078 28.4313c.12999.0796.33967.2641.6291.4947.2893.2307.6585.5075.9562.7299.2978.2222.5243.39.7339.562.2098.1719.4027.3481.516.4613.1132.1132.1467.1635.1174.2139-.0294.0504-.1217.1007-.302.1803-.1803.0798-.4488.1887-.8891.3943-.4404.2055-1.0527.5075-1.57277.7758-.52009.2686-.94789.5033-1.3463.7466-.39844.2432-.76755.4949-.99402.6626-.22648.1679-.31034.2517-.43198.2433s-.28098-.109-.4739-.2516c-.19295-.1426-.41943-.3271-.78009-.6333-.3607-.3061-.85563-.734-1.19535-1.0276-.33971-.2936-.52422-.4529-.59131-.5787-.06714-.1259-.01681-.2182.72132-.6376.73816-.4194 2.16417-1.166 3.02393-1.6062.85976-.4404 1.15338-.5747 1.33371-.6501.18033-.0755.24747-.0923.3062-.1133.05868-.021.10901-.0462.23906.0337z"/><path d="m3.79062 40.7574c-.08389-.1425-.09226-.2851-.07967-.5578.01258-.2725.0461-.6752.1216-1.0318.07549-.3564.19296-.6667.34394-.9897.15099-.323.3355-.6584.54521-1.0066.20972-.3481.44455-.7087.68361-1.0569.23907-.3481.48235-.6836.67526-.9394.19291-.2559.33554-.4319.44878-.5662s.19709-.2266.25159-.2768c.05456-.0503.07972-.0586.1217-.0545.04192.0042.1006.021.34807.197.24747.1763.68362.5118 1.17014.9102.48653.3984 1.02333.8599 1.40498 1.1911.38167.3313.60817.5326.74237.6668.1342.1343.1762.2014.1888.2601.0125.0587-.0043.109-.1427.2013s-.3984.2265-.62904.411c-.23071.1845-.43201.4193-.69624.8011-.26423.3817-.59137.9101-.85981 1.384-.26841.474-.47808.8934-.65422 1.3212-.17615.4277-.31878.864-.44043 1.1953-.1216.3313-.22226.5578-.28939.7466-.06709.1887-.10061.3396-.12995.436-.02939.0964-.05456.1384-.09231.147-.03775.0083-.08807-.0169-.34394-.3106-.25582-.2934-.71713-.8555-1.13234-1.342-.41521-.4866-.78432-.8975-1.04854-1.1743-.26422-.2769-.42357-.4195-.50747-.5621z"/><path d="m14.3429 54.1742c-.1259-.0293-.344-.1047-.6375-.26-.2936-.1553-.6627-.39-.9815-.7129-.3187-.323-.5871-.734-.9017-1.2457-.3145-.5116-.6752-1.1239-.9017-1.6566-.2265-.5328-.3188-.9856-.3817-1.3882-.0629-.4027-.0964-.755-.0083-1.3338s.2977-1.384.6164-2.227c.3188-.843.7466-1.7238 1.1115-2.3277.3649-.604.6669-.9311.9688-1.2457.302-.3146.604-.6166.8179-.7757.2139-.1595.3397-.1763.4572-.1553.1174.021.2264.0796.457.2724.2307.1932.583.5203 1.1492 1.0025.5662.4824 1.3463 1.1199 1.8413 1.5434.4948.4236.7045.6333.8513.8095.1468.1761.2307.3187.2684.4278.0378.1091.0294.1846-.0335.2474-.0629.0629-.1804.1132-.4068.2014-.2265.0881-.562.2138-.9814.4236-.4195.2097-.9227.5033-1.3715.8681-.4487.365-.843.801-1.1324 1.1995-.2894.3984-.4739.7591-.6039 1.1994-.13.4405-.2056.9605-.2433 1.4722s-.0377 1.0149-.0083 1.5308c.0293.5158.088 1.0444.1341 1.4009.0462.3564.0797.541.0797.6416 0 .1008-.0335.1175-.1593.0881z"/><path d="m33.0983 5.52197c-1.3925.11743-4.0431.65418-6.7776 1.35877s-5.5529 1.57715-8.3881 2.71777c-2.8352 1.14089-5.6871 2.55009-7.7003 3.72439-2.01312 1.1743-3.18747 2.1137-4.17728 3.372-.98977 1.2581-1.79503 2.8353-2.16413 3.7076-.36906.8723-.30193 1.04 1.2415 2.315 1.54337 1.2751 4.56308 3.6573 7.18021 5.704 2.617 2.0466 4.8315 3.7578 7.3648 5.4019 2.5331 1.644 5.3851 3.221 6.9452 4.0429 1.5602.8221 1.8287.8892 1.879.7552.0503-.1343-.1175-.4698-.2349-1.0066-.1174-.5369-.1845-1.2752.2517-1.9964.4362-.7214 1.3756-1.426 2.6841-1.9629 1.3086-.5368 2.9862-.906 4.6638-1.1071 1.6776-.2015 3.3553-.2349 4.1941-.302.8388-.0672.8388-.1678-.1846-4.5464-1.0233-4.3787-3.07-13.0352-4.1605-17.5144-1.0904-4.47928-1.2246-4.78128-2.617-4.66373z" fill="#fff"/><path d="m25.9619 7.42322c-.4247.1062-1.2583.33423-2.0651.55517-.8068.22095-1.5869.43482-2.2852.63941-.6983.20434-1.3149.39941-1.9346.61328-.6196.21387-1.2424.44678-1.5476.57568-.3051.12891-.2925.15406-.1918.33664.1006.1824.2894.5221.585 1.0097.2957.4875.6983 1.1229 1.0318 1.6828.3334.56.5976 1.0443.8398 1.5004s.4624.884.5914 1.1262.1667.2989.1856.3272c.0188.0283.0188.0283.3303-.063.3114-.0913.9342-.2737 1.5727-.4656.6386-.1919 1.2929-.3931 1.9282-.5787.6354-.1857 1.252-.3555 1.8024-.5159.5505-.1605 1.0349-.3114 1.3998-.4373.3649-.1258.6102-.2264.7266-.305s.1038-.1353-.022-.4309c-.1258-.2958-.3649-.8306-.6102-1.3999-.2454-.5694-.497-1.1732-.7424-1.74257-.2453-.56934-.4844-1.10413-.6448-1.45325s-.2422-.51269-.2988-.62597c-.0567-.11328-.0881-.17615-.1164-.23828-.0283-.06202-.0535-.12342-.0739-.16187-.0204-.03857-.0362-.05432-.4608.05176z"/><path d="m13.8751 19.2217c.0377-.0252.0377-.0504-.3146-.453s-1.0569-1.1826-1.7363-1.9314c-.6794-.7486-1.3337-1.4658-1.7804-1.9375-.44663-.4719-.68568-.6984-.8241-.7739-.1384-.0755-.17614 0-.47183.2453-.29567.2454-.84929.6607-1.40919 1.1514-.55991.4907-1.1261 1.0569-1.57907 1.6042-.45295.5473-.79267 1.0757-1.05689 1.4721-.26422.3963-.45296.6605-.62282 1.0255-.16986.3647-.32084.8303-.39634 1.1135-.07549.283-.07549.3837-.05032.4465.02515.063.07549.0882.83671.6984s2.23333 1.8056 3.026 2.4347c.79268.6292.90591.6919.96883.7046.06291.0124.0755-.0252.16357-.2454s.25163-.6228.42149-.9751.34601-.6543.54733-.9311c.20131-.2769.42783-.5285.65423-.78.2265-.2518.453-.5035.7298-.774s.604-.5598.9122-.8051c.3083-.2454.5977-.4467.843-.6165.2454-.1699.4467-.3084.5977-.4027.151-.0944.2516-.1447.3397-.1825.0881-.0376.1635-.0629.2013-.088z"/><path d="m18.2192 24.5139c-.0661.0283-.0723.0346-.5851-.5914-.5127-.626-1.5319-1.884-2.227-2.749-.6952-.8652-1.0663-1.337-1.2488-1.5791-.1824-.2422-.1761-.2549-.0094-.3775.1667-.1228.4938-.3554 1.0034-.6543.5096-.2988 1.2016-.6638 1.7772-.9468.5757-.2832 1.0349-.4845 1.4312-.6606.3964-.1761.7298-.3271 1.0507-.4719.3208-.1446.6291-.283.8933-.3931s.4844-.1919.6259-.2485c.1416-.0567.2045-.0882.2391-.1006.0346-.0127.0409-.0064.1258.1509.0849.1572.2485.4655.497.9028s.582 1.0034 1.016 1.7112c.4341.7077.9689 1.557 1.2991 2.0823.3303.5253.4561.7265.519.8398.063.1133.063.1384-.0471.1919s-.3303.1352-.7581.3177-1.0632.4655-1.5948.7077c-.5316.2423-.9594.4436-1.3809.6387-.4215.195-.8367.3837-1.2205.5661-.3837.1824-.736.3587-.9122.4467-.1761.088-.1761.088-.239.1131-.0629.0253-.1888.0757-.2548.1039z"/><path d="m18.0022 24.5831c.0188-.0031.0314.0032.2327.2296.2013.2265.5914.6733 1.0978 1.3023s1.1293 1.4407 1.5476 1.9974c.4184.5568.6323.8587.8399 1.1419.2076.2831.4089.5473.5473.7141.1384.1666.2139.2358.2202.2893s-.0566.0913-.2045.2266c-.1478.1352-.3806.3679-.585.6384-.2045.2705-.3806.5788-.5253.9028s-.258.6636-.324 1.0159c-.0661.3523-.085.7173-.0944.928-.0094.2108-.0094.2673-.4844-.0376-.475-.3052-1.4249-.9722-2.5039-1.7365-1.0789-.7643-2.2868-1.6262-2.9253-2.1107-.6386-.4844-.7078-.5913-.7361-.7108s-.0157-.2516.0346-.4845c.0504-.2327.1384-.5662.2737-.8523.1352-.2864.3177-.5254.6039-.8714.2863-.3459.6763-.799 1.0003-1.1135.324-.3146.5819-.4907.8179-.6638.2359-.1728.4498-.3428.6291-.4717.1793-.129.324-.217.4089-.2674.0849-.0503.1101-.0629.129-.0661z"/><path d="m28.1905 27.37c-.0094-.0156-.022-.022-.1918.0315-.1699.0535-.497.1667-.8965.3335-.3995.1667-.8713.3869-1.2645.5787-.3932.1919-.7078.3555-1.123.5915-.4152.2358-.9311.5441-1.2833.7644-.3523.22-.5411.3523-.6543.4371-.1133.0848-.151.1227-.0441.2988.107.1762.3586.4907.8147 1.0287.4561.5378 1.1167 1.2991 1.7458 2.0193.6291.7205 1.2268 1.3999 1.5916 1.8025.3649.4026.497.5283.6826.6384s.4247.2046.6574.2485c.2328.0441.4593.0379.7455-.1699.2863-.2075.6323-.6164.8808-.9751.2485-.3585.3995-.6667.519-.8995s.2076-.39.2674-.5819c.0597-.1919.0912-.4185.0818-.6165-.0095-.1982-.0598-.3681-.2045-.7047-.1447-.3365-.3838-.8398-.6637-1.4501-.28-.6102-.6008-1.3274-.8587-1.8684-.258-.541-.453-.906-.5568-1.101s-.1164-.2201-.1384-.2485c-.022-.0283-.0535-.0596-.0724-.088-.0188-.0283-.0251-.0534-.0346-.0693z"/><path d="m31.701 19.5314c.0471.0031.0534.0283.1698.3586s.3429.9656.6417 1.7583.67 1.7427.9248 2.4285c.2548.6855.3932 1.1072.4404 1.3179.0472.2106.0031.2106-.1479.239-.151.0283-.4089.0849-.7549.1794-.346.0942-.7801.2263-1.233.3616-.453.1352-.9248.2737-1.3495.3965-.4246.1225-.8021.2295-1.1449.3364-.3429.107-.6512.214-.8085.2644-.1572.0503-.1635.0439-.3491-.2078-.1856-.2516-.5505-.7485-.9688-1.3651-.4184-.6166-.8902-1.3526-1.252-1.9344-.3617-.5821-.6133-1.0098-.7801-1.3086-.1667-.2988-.2485-.4688-.2956-.5598-.0472-.0913-.0598-.1039.0126-.1416.0723-.0379.2296-.1006.8083-.2895.5788-.1887 1.5791-.5033 2.419-.7642.8398-.2613 1.5193-.4688 2.0666-.6324.5473-.1635.9625-.2831 1.2142-.3523.2516-.0692.3397-.0881.3869-.0849z"/><path d="m35.6046 12.2841c-.0315-.022-.1007-.022-.409.0031-.3082.0252-.8555.0755-1.4909.17-.6354.0942-1.3589.2326-2.0729.3868-.7141.1542-1.4187.324-1.8339.4247-.4152.1006-.541.1321-.5253.3208s.173.5346.3523.9595c.1793.4245.3806.9278.5882 1.4216.2076.4939.4215.9783.626 1.447.2044.4688.3995.9216.5284 1.2393.129.3178.1919.5002.2359.6135.0441.1131.0693.1572.0881.1792.0189.022.0315.022.1353.0063s.2988-.0471.7014-.1196c.4027-.0723 1.0129-.1855 1.5193-.3113.5065-.126.9091-.2643 1.2677-.3712.3586-.107.6731-.1825.9562-.2328s.5348-.0754.7078-.0913c.173-.0156.2673-.022.3114-.0408.044-.0188.0377-.0503-.2296-.9846-.2674-.9341-.7959-2.7712-1.079-3.74-.2831-.9687-.3208-1.0695-.3365-1.1418-.0158-.0723-.0095-.1165-.0409-.1384z"/><path d="m38.8413 24.7499c-.0534-.0189-.1352-.0127-.4624.0251-.3271.0377-.8996.107-1.4375.1983-.5379.091-1.0411.2043-1.4721.2988-.4309.0942-.7895.1697-1.0192.2263-.2296.0567-.3302.0945-.3743.148-.044.0534-.0314.1225.0976.4843.1289.3619.3743 1.016.6888 1.8496.3146.8335.6983 1.8465.9594 2.5164.2611.67.3995.9971.5064 1.2394.107.2422.1825.3995.3964.4654.2139.0662.5662.0411.9688.0252.4026-.0156.8556-.022 1.2897-.0252.4341-.003.8493-.003 1.1796.0096.3302.0125.5756.0378.6983.0503h.1226c0-.0125 0-.0378-.3365-1.2613-.3366-1.2236-1.0098-3.6457-1.3495-4.8694-.3397-1.2236-.346-1.2487-.3617-1.2834-.0157-.0346-.0409-.0786-.0944-.0974z"/><path d="m44.5064 45.1608c-2.3402-9.5074-6.2407-25.3189-8.1658-33.2246-1.925-7.9058-1.8747-7.9058-1.5476-7.93107.3272-.02515.9311-.07556 1.2331-.07556.3019 0 .3019.05041 2.6925 9.51223 2.3907 9.4616 7.1719 28.3349 9.5625 37.7715 2.3906 9.4367 2.3906 9.4367 2.0603 9.4948s-.9908.1746-1.3683.2454c-.3774.0708-.4718.0959-.909-1.4931-.4372-1.5889-1.2174-4.7922-3.5577-14.2996z" fill="#fff"/></g><path d="m34.8201-.00012207c-1.5844 0-2.8688 1.06189207-2.8688 2.37182207 0 1.30982 1.2844 2.37159 2.8688 2.37159 1.5843 0 2.8687-1.06177 2.8687-2.37159 0-1.30993-1.2844-2.37182207-2.8687-2.37182207z" stroke-width=".2"/><path d="m35.2668.570679c-1.0735 0-1.9439.701291-1.9439 1.566401 0 .86524.8704 1.56653 1.9439 1.56653 1.0736 0 1.944-.70129 1.944-1.56653 0-.86511-.8704-1.566401-1.944-1.566401z" fill="#fff" stroke-width=".2"/></g></svg>