<svg enable-background="new 0 0 258.00 258.00" height="258" viewBox="0 0 258 258" width="258" xmlns="http://www.w3.org/2000/svg" xmlns:xlink="http://www.w3.org/1999/xlink"><radialGradient id="a" cx="130.959" cy="204.856" gradientTransform="matrix(-1 0 0 -1 261.918946 409.711792)" gradientUnits="userSpaceOnUse" r="105.055"><stop offset="0" stop-color="#a8a162"/><stop offset="1"/></radialGradient><filter id="b" filterUnits="userSpaceOnUse"><feGaussianBlur stdDeviation="7.937"/></filter><linearGradient id="c"><stop offset="0" stop-color="#ffffd6"/><stop offset=".376744" stop-color="#fffd31"/><stop offset=".740593" stop-color="#ffc817"/><stop offset="1" stop-color="#f6a700"/></linearGradient><radialGradient id="d" cx="149.517" cy="89.4858" gradientTransform="matrix(-.547192089197 -.837007059421 .837007059421 -.547192089197 156.430675077293 263.598140739036)" gradientUnits="userSpaceOnUse" r="139.918" xlink:href="#c"/><linearGradient id="e"><stop offset="0" stop-color="#fffffb"/><stop offset=".755398" stop-color="#fbfbfb"/><stop offset="1" stop-color="#b3b3b3"/></linearGradient><radialGradient id="f" cx="167.286" cy="54.7402" gradientTransform="matrix(-.999346870845 -.036136293828 .036136293828 -.999346870845 332.484411733029 115.489685635206)" gradientUnits="userSpaceOnUse" r="31.8201" xlink:href="#e"/><radialGradient id="g" cx="94.4182" cy="59.8533" gradientTransform="matrix(-.996771583116 .080289545352 -.080289545352 -.996771583116 193.337201541364 111.932639094415)" gradientUnits="userSpaceOnUse" r="30.4337" xlink:href="#e"/><linearGradient id="h"><stop offset="0" stop-color="#b88000"/><stop offset="1" stop-color="#4f2f00"/></linearGradient><radialGradient id="i" cx="95.2661" cy="68.0849" gradientUnits="userSpaceOnUse" r="17.8884" xlink:href="#h"/><radialGradient id="j" cx="167.252" cy="67.0266" gradientUnits="userSpaceOnUse" r="16.8301" xlink:href="#h"/><linearGradient id="k"><stop offset="0" stop-color="#fff" stop-opacity=".388235"/><stop offset="1" stop-opacity=".388235"/></linearGradient><linearGradient id="l" gradientTransform="matrix(-.089663242828 .995972139613 -.995972139613 -.089663242828 .696147255234 -.606903327477)" gradientUnits="objectBoundingBox" x1=".625434" x2="1.6832" xlink:href="#k" y1=".0146943" y2=".0146943"/><linearGradient id="m" gradientTransform="matrix(-.08709617515 .996199907787 -.996199907787 -.08709617515 .714947575531 -.558468075372)" gradientUnits="objectBoundingBox" x1=".61336" x2="1.57975" xlink:href="#k" y1=".0483495" y2=".0483495"/><radialGradient id="n" cx="105.7" cy="65.0618" gradientUnits="userSpaceOnUse" r="13.8209" xlink:href="#h"/><radialGradient id="o" cx="86.616" cy="53.4875" gradientUnits="userSpaceOnUse" r="2.29822" xlink:href="#h"/><radialGradient id="p" cx="94.5089" cy="50.7186" gradientUnits="userSpaceOnUse" r="5.87061" xlink:href="#e"/><radialGradient id="q" cx="82.053" cy="70.8796" gradientUnits="userSpaceOnUse" r="15.094" xlink:href="#h"/><radialGradient id="r" cx="159.382" cy="78.5114" gradientTransform="matrix(-.547855962219 -.836572677453 .836572677453 -.547855962219 181.019243624449 254.858645418338)" gradientUnits="userSpaceOnUse" r="139.91" xlink:href="#c"/><radialGradient id="s" cx="129.443" cy="154.979" gradientTransform="matrix(.212542141981 .97715190113 -.97715190113 .212542141981 253.369347641138 -4.445695925591)" gradientUnits="userSpaceOnUse" r="87.5694"><stop offset="0" stop-color="#9e1f01"/><stop offset=".943965" stop-color="#180906"/></radialGradient><radialGradient id="t" cx="117.689" cy="164.439" gradientUnits="userSpaceOnUse" r="30.8634"><stop offset="0" stop-color="#f1ebea"/><stop offset=".0818966" stop-color="#f77f7f"/><stop offset=".280172" stop-color="#fd1414"/><stop offset=".521552" stop-color="#f00"/><stop offset=".722198" stop-color="#ba0c01"/><stop offset=".943965" stop-color="#751803"/></radialGradient><radialGradient id="u" cx="130.909" cy="135.221" gradientUnits="userSpaceOnUse" r="68.4973"><stop offset="0" stop-color="#f8f6f2"/><stop offset=".646512" stop-color="#f0eeea"/><stop offset="1" stop-color="#999a9d"/></radialGradient><g stroke-linejoin="round"><g stroke-width=".2"><path d="m51.2236 204.122c0 11.006 35.699 20.254 79.7364 20.661l0 0c44.037.405 79.737-8.188 79.737-19.192l0 0c0-11.005-35.7-20.254-79.737-20.66l0 0c-.999-.008-1.995-.013-2.986-.013l0 0c-42.6545 0-76.7504 8.449-76.7504 19.204z" fill="url(#a)" filter="url(#b)"/><path d="m28.5042 119.506c0 54.761 44.7658 99.154 99.9888 99.154l0 0c55.223 0 99.988-44.393 99.988-99.154l0 0c0-54.7601-44.765-99.1518-99.988-99.1518l0 0c-55.223 0-99.9888 44.3917-99.9888 99.1518z" fill="url(#d)"/><path d="m143.965 63.1735c0 4.4137.589 8.6375 1.654 12.5149l0 0c15.964.6402 30.273 4.2171 40.84 9.6868l0 0c3.562-5.9876 5.725-13.7374 5.725-22.2017l0 0c0-18.9729-11.161-33.7362-27.059-33.7362l0 0c-10.04 0-21.16 14.7633-21.16 33.7362z" fill="url(#f)"/><path d="m70.3077 65.9267c0 8.4644 2.1637 16.2142 5.725 22.2018l0 0c10.5681-5.4696 24.8763-9.0467 40.8403-9.6868l0 0c1.064-3.8773 1.653-8.1012 1.653-12.515l0 0c0-18.9728-8.875-31.707-16.992-33.736l0 0c-1.5884-.3966-3.1583-.5858-4.6961-.5858l0 0c-14.6604-.0016-26.5302 17.1497-26.5302 34.3218z" fill="url(#g)"/><path d="m174.926 77.539c0-8.0645-3.709-14.6017-8.284-14.6017-4.538 0-8.225 6.4356-8.282 14.4131 5.823.8496 11.307 2.1041 16.324 3.7013.158-1.1252.242-2.3018.242-3.5127z"/><path d="m88.6382 51.1894c-1.4895 1.1741-2.8522 2.7309-4.0444 4.5962-3.1261 4.8909-5.0815 11.9027-5.0815 19.6959 0 3.7245.4472 7.2708 1.2552 10.4922 2.1696-.9196 4.4603-1.7675 6.8579-2.5372-.4523-1.8035-.7035-3.7989-.7035-5.8975 0-8.0645 3.7092-14.6017 8.2835-14.6017 4.5744 0 8.2826 6.5372 8.2826 14.6017 0 .7632-.033 1.5127-.097 2.2441 2.442-.3731 4.947-.6748 7.503-.9003.083-1.1139.126-2.2492.126-3.4015 0-9.5614-2.934-17.9604-7.373-22.6963-1.055-.6226-2.146-1.1398-3.267-1.5441-1.8982-.684-3.8844-1.0444-5.937-1.0444-1.9972 0-3.9491.3413-5.8048.9929z" fill="url(#i)"/><path d="m158.87 52.7845c-4.439 4.7364-7.372 13.1349-7.372 22.697 0 .3593.004.717.012 1.0729 2.329.2034 4.615.4697 6.85.796.057-7.9775 3.744-14.4131 8.282-14.4131 4.575 0 8.284 6.5372 8.284 14.6017 0 1.2109-.084 2.3875-.242 3.5127 2.648.8425 5.166 1.7806 7.536 2.8048.51-2.6344.786-5.4497.786-8.375 0-10.7654-3.732-20.0398-9.127-24.2919-1.855-.6518-3.807-.9931-5.804-.9931-3.267 0-6.364.9128-9.205 2.588z" fill="url(#j)"/><path d="m103.391 79.7831c.064-.7314.097-1.4809.097-2.2441 0-8.0645-3.7082-14.6017-8.2826-14.6017-4.5743 0-8.2835 6.5372-8.2835 14.6017 0 2.0986.2512 4.094.7035 5.8975 4.8542-1.5581 10.1473-2.7947 15.7656-3.6534z"/><path d="m106.706 66.695c0 7.0476-3.371 12.76-7.5305 12.76-4.1594 0-7.5305-5.7124-7.5305-12.76 0-7.0471 3.3711-12.7601 7.5305-12.7601 4.1595 0 7.5305 5.713 7.5305 12.7601z" fill="url(#l)"/><path d="m162.924 67.1132c0 7.0479 3.371 12.7602 7.531 12.7602 4.158 0 7.53-5.7123 7.53-12.7602 0-7.0469-3.372-12.76-7.53-12.76-4.16 0-7.531 5.7131-7.531 12.76z" fill="url(#m)"/><path d="m111.021 75.4815c0-9.5621-2.935-17.9606-7.374-22.697-1.055-.6225-2.146-1.1395-3.267-1.5436 1.121.4043 2.212.9215 3.267 1.5441 4.439 4.7359 7.373 13.1349 7.373 22.6963 0 1.1523-.043 2.2876-.125 3.4012.083-1.1136.126-2.2488.126-3.401z" fill="url(#n)"/><path d="m88.6378 51.1896c-1.4894 1.174-2.8518 2.7307-4.044 4.596 1.1922-1.8653 2.5549-3.4221 4.044-4.596z" fill="url(#o)"/><path d="m88.6382 51.1894c1.8557-.6516 3.8076-.9929 5.8048-.9929 2.0526 0 4.0388.3604 5.937 1.0444-1.8982-.6841-3.8844-1.0448-5.9371-1.0448-1.9973 0-3.9495.3413-5.8047.9933z" fill="url(#p)"/><path d="m80.7675 85.9737c-.808-3.2214-1.2552-6.7677-1.2552-10.4922 0-7.7932 1.9554-14.805 5.0815-19.6959-3.1264 4.891-5.0816 11.9026-5.0816 19.6957 0 3.7247.447 7.271 1.2553 10.4924z" fill="url(#q)"/><path d="m128.516 20.9538c-55.2233 0-99.9891 44.3917-99.9891 99.1522 0 54.761 44.7658 99.153 99.9891 99.153 55.222 0 99.988-44.392 99.988-99.153 0-54.7605-44.766-99.1522-99.988-99.1522zm-70.8622 70.135c0-21.9084 30.5587-39.6694 68.2532-39.6694 37.694 0 68.253 17.761 68.253 39.6694 0 21.9082-30.558 39.6692-68.253 39.6692-37.6952 0-68.2532-17.761-68.2532-39.6692z" fill="url(#r)"/></g><path d="m113.371 32.0746s-39.2442 9.4576-54.5304 42.1226c5.4245-38.4611 54.5304-42.1226 54.5304-42.1226z" fill="#643d00" stroke="#653d00" stroke-linecap="round" stroke-width="7.224"/><path d="m152.244 36.132s35.317 8.8659 49.42 42.1226c-10.453-37.5733-49.42-42.1226-49.42-42.1226z" fill="#643d00" stroke="#653d00" stroke-linecap="round" stroke-width="7.224"/><path d="m69.1808 105.908c-1.3546 5.293-.7572 19.467.4779 29.219 1.235 9.751 3.1074 15.081 5.7124 19.994 2.605 4.914 5.9425 9.411 11.783 13.217 5.8404 3.805 14.1839 6.919 24.1969 8.476 10.012 1.557 21.693 1.557 31.914-.519s18.981-6.228 26.282-11.59 13.141-11.936 16.896-18.336 5.423-12.628 5.972-19.395c.549-6.768-.023-14.077-.96-18.445-.937-4.367-2.241-5.795-4.664-5.6-2.422.195-5.964 2.011-8.438 3.503-2.475 1.492-3.883 2.66-11.119 4.184-7.235 1.525-20.298 3.406-28.983 4.336-8.685.929-12.991.908-18.065.983-5.074.076-10.914.249-18.215-1.092-7.3006-1.34-16.0613-4.195-22.0951-7.416-6.0339-3.222-9.3405-6.811-10.6951-1.519z" fill="url(#s)" stroke="#d98004" stroke-width="4"/><path d="m126.558 146.326c10.884 0 19.708 6.488 19.708 14.491s-8.824 14.491-19.708 14.491c-10.885 0-19.708-6.488-19.708-14.491s8.823-14.491 19.708-14.491z" fill="url(#t)" stroke-width=".2"/><path d="m72.054 107.55c.7169 4.152 3.5181 13.583 11.6886 22.279 8.1702 8.696 21.7094 16.656 33.3384 20.346 11.628 3.691 21.345 3.111 31.771-1.526 10.425-4.637 21.559-13.332 29.02-22.37s11.249-18.419 9.927-21.068c-1.322-2.648-7.754 1.435-17.146 4.628-9.392 3.192-21.744 5.493-34.296 6.716s-25.305 1.368-35.719-.63c-10.414-1.997-18.4905-6.137-23.2122-8.77-4.7218-2.632-6.0889-3.758-5.3718.395z" fill="url(#u)" stroke-width=".2"/><path d="m83.6156 96.4914s-16.8065 3.1514-23.3529 14.0366c2.3231-12.8165 23.3529-14.0366 23.3529-14.0366z" fill="#d98004" stroke="#d98004" stroke-linecap="round" stroke-width="3"/><path d="m200.814 113.321s-8.883-14.6106-21.378-16.8916c12.811-2.3522 21.378 16.8916 21.378 16.8916z" fill="#d98004" stroke="#d98004" stroke-linecap="round" stroke-width="3"/></g></svg>