<?xml version="1.0" encoding="utf-8"?>
<!DOCTYPE svg PUBLIC "-//W3C//DTD SVG 1.1//EN" "http://www.w3.org/Graphics/SVG/1.1/DTD/svg11.dtd">
<svg xmlns="http://www.w3.org/2000/svg" xmlns:xlink="http://www.w3.org/1999/xlink" version="1.1" baseProfile="full" width="258" height="258" viewBox="0 0 258.00 258.00" enable-background="new 0 0 258.00 258.00" xml:space="preserve">
	<linearGradient id="SVGID_Fill1_" gradientUnits="objectBoundingBox" x1="0.5" y1="1.08111" x2="1.66222" y2="1.08111" gradientTransform="rotate(-90.000000 0.500000 1.081108)">
		<stop offset="0" stop-color="#ABC4AB" stop-opacity="1"/>
		<stop offset="0.771552" stop-color="#D5E1D5" stop-opacity="1"/>
		<stop offset="1" stop-color="#FFFFFF" stop-opacity="1"/>
	</linearGradient>
	<path fill="url(#SVGID_Fill1_)" stroke-width="8" stroke-linecap="square" stroke-linejoin="bevel" stroke="#000000" stroke-opacity="1" d="M 44.0001,3.99976L 214,3.99976C 236.092,3.99976 254,21.9083 254,43.9996L 254,214C 254,236.091 236.092,254 214,254L 44.0001,254C 21.9087,254 4.00012,236.091 4.00012,214L 4.00012,43.9996C 4.00012,21.9083 21.9087,3.99976 44.0001,3.99976 Z "/>
	<radialGradient id="SVGID_Fill2_" cx="130.96" cy="204.856" r="105.055" gradientUnits="userSpaceOnUse" gradientTransform="rotate(180.000000 130.959595 204.855713)">
		<stop offset="0" stop-color="#A8A162" stop-opacity="1"/>
		<stop offset="1" stop-color="#000000" stop-opacity="1"/>
	</radialGradient>
	<filter id="Filter_GaussianBlur1_" filterUnits="userSpaceOnUse">
		<feGaussianBlur stdDeviation="7.937"/>
	</filter>
	<path fill="url(#SVGID_Fill2_)" stroke-width="0.2" stroke-linejoin="round" filter="url(#Filter_GaussianBlur1_)" d="M 51.2238,204.122C 51.2238,215.128 86.9227,224.376 130.961,224.783L 130.961,224.783C 174.997,225.188 210.697,216.594 210.697,205.591L 210.697,205.591C 210.697,194.586 174.997,185.337 130.961,184.931L 130.961,184.931C 129.961,184.922 128.965,184.917 127.974,184.917L 127.974,184.917C 85.3196,184.917 51.2238,193.367 51.2238,204.122 Z "/>
	<g>
		<radialGradient id="SVGID_Fill3_" cx="149.517" cy="89.4856" r="139.918" gradientUnits="userSpaceOnUse" gradientTransform="rotate(236.825409 149.516724 89.485596)">
			<stop offset="0" stop-color="#FFFFD6" stop-opacity="1"/>
			<stop offset="0.376744" stop-color="#FFFD31" stop-opacity="1"/>
			<stop offset="0.740593" stop-color="#FFC817" stop-opacity="1"/>
			<stop offset="1" stop-color="#F6A700" stop-opacity="1"/>
		</radialGradient>
		<path fill="url(#SVGID_Fill3_)" stroke-width="0.2" stroke-linejoin="round" d="M 28.5043,119.506C 28.5043,174.267 73.2701,218.66 128.493,218.66L 128.493,218.66C 183.716,218.66 228.482,174.267 228.482,119.506L 228.482,119.506C 228.482,64.7457 183.716,20.354 128.493,20.354L 128.493,20.354C 73.2701,20.354 28.5043,64.7457 28.5043,119.506 Z "/>
		<g>
			<radialGradient id="SVGID_Fill4_" cx="167.286" cy="54.74" r="31.8201" gradientUnits="userSpaceOnUse" gradientTransform="rotate(182.070908 167.286011 54.739990)">
				<stop offset="0" stop-color="#FFFFFB" stop-opacity="1"/>
				<stop offset="0.755398" stop-color="#FBFBFB" stop-opacity="1"/>
				<stop offset="1" stop-color="#B3B3B3" stop-opacity="1"/>
			</radialGradient>
			<path fill="url(#SVGID_Fill4_)" stroke-width="0.2" stroke-linejoin="round" d="M 143.966,63.1733C 143.966,67.587 144.555,71.8108 145.619,75.6882L 145.619,75.6882C 161.583,76.3284 175.892,79.9053 186.459,85.375L 186.459,85.375C 190.021,79.3875 192.184,71.6376 192.184,63.1733L 192.184,63.1733C 192.184,44.2004 181.023,29.4371 165.126,29.4371L 165.126,29.4371C 155.085,29.4371 143.966,44.2004 143.966,63.1733 Z "/>
			<radialGradient id="SVGID_Fill5_" cx="94.4183" cy="59.8531" r="30.4337" gradientUnits="userSpaceOnUse" gradientTransform="rotate(175.394791 94.418335 59.853149)">
				<stop offset="0" stop-color="#FFFFFB" stop-opacity="1"/>
				<stop offset="0.755398" stop-color="#FBFBFB" stop-opacity="1"/>
				<stop offset="1" stop-color="#B3B3B3" stop-opacity="1"/>
			</radialGradient>
			<path fill="url(#SVGID_Fill5_)" stroke-width="0.2" stroke-linejoin="round" d="M 70.3079,65.9265C 70.3079,74.3909 72.4716,82.1407 76.0328,88.1283L 76.0328,88.1283C 86.601,82.6587 100.91,79.0817 116.873,78.4415L 116.873,78.4415C 117.937,74.5642 118.526,70.3403 118.526,65.9265L 118.526,65.9265C 118.526,46.9537 109.651,34.2195 101.534,32.1906L 101.534,32.1906C 99.9457,31.7939 98.3759,31.6047 96.838,31.6047L 96.838,31.6047C 82.1776,31.6031 70.3079,48.7544 70.3079,65.9265 Z "/>
			<path fill="#000000" fill-opacity="1" stroke-width="0.2" stroke-linejoin="round" d="M 174.926,77.5388C 174.926,69.4744 171.217,62.9371 166.642,62.9371C 162.104,62.9371 158.417,69.3727 158.36,77.3502C 164.183,78.1998 169.667,79.4543 174.684,81.0515C 174.842,79.9263 174.926,78.7498 174.926,77.5388 Z "/>
			<radialGradient id="SVGID_Fill6_" cx="95.2662" cy="68.0847" r="17.8884" gradientUnits="userSpaceOnUse">
				<stop offset="0" stop-color="#B88000" stop-opacity="1"/>
				<stop offset="1" stop-color="#4F2F00" stop-opacity="1"/>
			</radialGradient>
			<path fill="url(#SVGID_Fill6_)" stroke-width="0.2" stroke-linejoin="round" d="M 88.6383,51.1892C 87.1488,52.3633 85.7861,53.9202 84.5939,55.7854C 81.4678,60.6763 79.5125,67.6881 79.5125,75.4813C 79.5125,79.2058 79.9596,82.7521 80.7676,85.9735C 82.9373,85.054 85.2279,84.2061 87.6255,83.4363C 87.1732,81.6328 86.922,79.6375 86.922,77.5388C 86.922,69.4744 90.6312,62.9371 95.2056,62.9371C 99.7799,62.9371 103.488,69.4744 103.488,77.5388C 103.488,78.302 103.455,79.0515 103.391,79.783C 105.834,79.4098 108.338,79.1082 110.894,78.8826C 110.977,77.7687 111.02,76.6334 111.02,75.4811C 111.02,65.9197 108.087,57.5208 103.647,52.7848C 102.592,52.1622 101.501,51.645 100.38,51.2407C 98.4819,50.5568 96.4957,50.1963 94.4431,50.1963C 92.4459,50.1963 90.494,50.5376 88.6383,51.1892 Z "/>
			<radialGradient id="SVGID_Fill7_" cx="167.252" cy="67.0264" r="16.8301" gradientUnits="userSpaceOnUse">
				<stop offset="0" stop-color="#B88000" stop-opacity="1"/>
				<stop offset="1" stop-color="#4F2F00" stop-opacity="1"/>
			</radialGradient>
			<path fill="url(#SVGID_Fill7_)" stroke-width="0.2" stroke-linejoin="round" d="M 158.87,52.7843C 154.432,57.5208 151.498,65.9192 151.498,75.4813C 151.498,75.8406 151.502,76.1984 151.51,76.5542C 153.839,76.7576 156.125,77.0239 158.36,77.3502C 158.417,69.3727 162.104,62.9371 166.642,62.9371C 171.217,62.9371 174.926,69.4744 174.926,77.5388C 174.926,78.7498 174.842,79.9263 174.684,81.0515C 177.332,81.894 179.85,82.8322 182.22,83.8563C 182.73,81.2219 183.006,78.4066 183.006,75.4813C 183.006,64.7159 179.274,55.4415 173.88,51.1895C 172.025,50.5376 170.072,50.1963 168.075,50.1963C 164.809,50.1963 161.711,51.1091 158.87,52.7843 Z "/>
			<path fill="#000000" fill-opacity="1" stroke-width="0.2" stroke-linejoin="round" d="M 103.391,79.783C 103.455,79.0515 103.488,78.302 103.488,77.5388C 103.488,69.4744 99.7799,62.9371 95.2056,62.9371C 90.6312,62.9371 86.922,69.4744 86.922,77.5388C 86.922,79.6375 87.1732,81.6328 87.6255,83.4363C 92.4797,81.8782 97.7728,80.6416 103.391,79.783 Z "/>
			<linearGradient id="SVGID_Fill8_" gradientUnits="objectBoundingBox" x1="0.625434" y1="0.0146943" x2="1.6832" y2="0.0146943" gradientTransform="rotate(95.144234 0.625434 0.014694)">
				<stop offset="0" stop-color="#FFFFFF" stop-opacity="0.388235"/>
				<stop offset="1" stop-color="#000000" stop-opacity="0.388235"/>
			</linearGradient>
			<path fill="url(#SVGID_Fill8_)" stroke-width="0.2" stroke-linejoin="round" d="M 106.706,66.6948C 106.706,73.7424 103.335,79.4548 99.1757,79.4548C 95.0162,79.4548 91.6451,73.7424 91.6451,66.6948C 91.6451,59.6477 95.0162,53.9347 99.1757,53.9347C 103.335,53.9347 106.706,59.6477 106.706,66.6948 Z "/>
			<linearGradient id="SVGID_Fill9_" gradientUnits="objectBoundingBox" x1="0.61336" y1="0.0483495" x2="1.57975" y2="0.0483495" gradientTransform="rotate(94.996574 0.613360 0.048350)">
				<stop offset="0" stop-color="#FFFFFF" stop-opacity="0.388235"/>
				<stop offset="1" stop-color="#000000" stop-opacity="0.388235"/>
			</linearGradient>
			<path fill="url(#SVGID_Fill9_)" stroke-width="0.2" stroke-linejoin="round" d="M 162.924,67.113C 162.924,74.1609 166.296,79.8732 170.455,79.8732C 174.613,79.8732 177.985,74.1609 177.985,67.113C 177.985,60.0662 174.613,54.353 170.455,54.353C 166.296,54.353 162.924,60.0662 162.924,67.113 Z "/>
			<radialGradient id="SVGID_Fill10_" cx="105.7" cy="65.0616" r="13.8209" gradientUnits="userSpaceOnUse">
				<stop offset="0" stop-color="#B88000" stop-opacity="1"/>
				<stop offset="1" stop-color="#4F2F00" stop-opacity="1"/>
			</radialGradient>
			<path fill="url(#SVGID_Fill10_)" stroke-width="0.2" stroke-linejoin="round" d="M 111.021,75.4813C 111.021,65.9192 108.086,57.5208 103.647,52.7843C 102.592,52.1619 101.501,51.6448 100.38,51.2407C 101.501,51.645 102.592,52.1622 103.647,52.7848C 108.087,57.5208 111.02,65.9197 111.02,75.4811C 111.02,76.6334 110.977,77.7687 110.895,78.8823C 110.978,77.7687 111.021,76.6335 111.021,75.4813 Z "/>
			<radialGradient id="SVGID_Fill11_" cx="86.6161" cy="53.4873" r="2.29822" gradientUnits="userSpaceOnUse">
				<stop offset="0" stop-color="#B88000" stop-opacity="1"/>
				<stop offset="1" stop-color="#4F2F00" stop-opacity="1"/>
			</radialGradient>
			<path fill="url(#SVGID_Fill11_)" stroke-width="0.2" stroke-linejoin="round" d="M 88.6379,51.1895C 87.1486,52.3634 85.7861,53.9202 84.5939,55.7854C 85.7861,53.9202 87.1488,52.3633 88.6379,51.1895 Z "/>
			<radialGradient id="SVGID_Fill12_" cx="94.509" cy="50.7184" r="5.87061" gradientUnits="userSpaceOnUse">
				<stop offset="0" stop-color="#FFFFFB" stop-opacity="1"/>
				<stop offset="0.755398" stop-color="#FBFBFB" stop-opacity="1"/>
				<stop offset="1" stop-color="#B3B3B3" stop-opacity="1"/>
			</radialGradient>
			<path fill="url(#SVGID_Fill12_)" stroke-width="0.2" stroke-linejoin="round" d="M 88.6383,51.1892C 90.494,50.5376 92.4459,50.1963 94.4431,50.1963C 96.4957,50.1963 98.4819,50.5568 100.38,51.2407C 98.4819,50.5566 96.4957,50.1959 94.443,50.1959C 92.4457,50.1959 90.4935,50.5372 88.6383,51.1892 Z "/>
			<radialGradient id="SVGID_Fill13_" cx="82.0531" cy="70.8794" r="15.094" gradientUnits="userSpaceOnUse">
				<stop offset="0" stop-color="#B88000" stop-opacity="1"/>
				<stop offset="1" stop-color="#4F2F00" stop-opacity="1"/>
			</radialGradient>
			<path fill="url(#SVGID_Fill13_)" stroke-width="0.2" stroke-linejoin="round" d="M 80.7676,85.9735C 79.9596,82.7521 79.5125,79.2058 79.5125,75.4813C 79.5125,67.6881 81.4678,60.6763 84.5939,55.7854C 81.4675,60.6764 79.5123,67.688 79.5123,75.4811C 79.5123,79.2058 79.9594,82.7521 80.7676,85.9735 Z "/>
		</g>
		<radialGradient id="SVGID_Fill14_" cx="159.382" cy="78.5112" r="139.91" gradientUnits="userSpaceOnUse" gradientTransform="rotate(236.779953 159.381714 78.511230)">
			<stop offset="0" stop-color="#FFFFD6" stop-opacity="1"/>
			<stop offset="0.376744" stop-color="#FFFD31" stop-opacity="1"/>
			<stop offset="0.740593" stop-color="#FFC817" stop-opacity="1"/>
			<stop offset="1" stop-color="#F6A700" stop-opacity="1"/>
		</radialGradient>
		<path fill="url(#SVGID_Fill14_)" stroke-width="0.2" stroke-linejoin="round" d="M 128.516,20.9536C 73.2928,20.9536 28.527,65.3453 28.527,120.106C 28.527,174.866 73.2928,219.259 128.516,219.259C 183.739,219.259 228.504,174.866 228.504,120.106C 228.504,65.3453 183.739,20.9536 128.516,20.9536 Z M 57.6539,91.0886C 57.6539,69.1802 88.2126,51.4192 125.907,51.4192C 163.601,51.4192 194.16,69.1802 194.16,91.0886C 194.16,112.997 163.602,130.758 125.907,130.758C 88.2119,130.758 57.6539,112.997 57.6539,91.0886 Z "/>
		<path fill="#643D00" fill-opacity="1" stroke-width="7.224" stroke-linecap="round" stroke-linejoin="round" stroke="#653D00" stroke-opacity="1" d="M 113.371,32.0745C 113.371,32.0745 74.127,41.532 58.8407,74.197C 64.2653,35.736 113.371,32.0745 113.371,32.0745 Z "/>
		<path fill="#643D00" fill-opacity="1" stroke-width="7.224" stroke-linecap="round" stroke-linejoin="round" stroke="#653D00" stroke-opacity="1" d="M 152.244,36.1318C 152.244,36.1318 187.561,44.9977 201.664,78.2544C 191.211,40.6812 152.244,36.1318 152.244,36.1318 Z "/>
		<radialGradient id="SVGID_Fill15_" cx="129.443" cy="154.979" r="87.5694" gradientUnits="userSpaceOnUse" gradientTransform="rotate(77.728630 129.443115 154.979248)">
			<stop offset="0" stop-color="#9E1F01" stop-opacity="1"/>
			<stop offset="0.943965" stop-color="#180906" stop-opacity="1"/>
		</radialGradient>
		<path fill="url(#SVGID_Fill15_)" stroke-width="4" stroke-linejoin="round" stroke="#D98004" stroke-opacity="1" d="M 69.1809,105.908C 67.8263,111.2 68.4237,125.375 69.6588,135.126C 70.8938,144.878 72.7662,150.207 75.3712,155.121C 77.9762,160.034 81.3137,164.532 87.1542,168.337C 92.9946,172.143 101.338,175.257 111.351,176.814C 121.363,178.37 133.044,178.37 143.265,176.295C 153.486,174.219 162.246,170.067 169.547,164.705C 176.848,159.342 182.688,152.769 186.443,146.369C 190.198,139.969 191.866,133.741 192.415,126.973C 192.964,120.205 192.392,112.897 191.455,108.529C 190.518,104.161 189.214,102.734 186.791,102.929C 184.369,103.124 180.827,104.94 178.353,106.432C 175.878,107.924 174.47,109.092 167.234,110.616C 159.999,112.141 146.936,114.022 138.251,114.951C 129.566,115.881 125.26,115.859 120.186,115.935C 115.112,116.01 109.272,116.184 101.971,114.843C 94.6705,113.502 85.9098,110.648 79.876,107.427C 73.8422,104.205 70.5355,100.615 69.1809,105.908 Z "/>
		<radialGradient id="SVGID_Fill16_" cx="117.689" cy="164.439" r="30.8634" gradientUnits="userSpaceOnUse">
			<stop offset="0" stop-color="#F1EBEA" stop-opacity="1"/>
			<stop offset="0.0818966" stop-color="#F77F7F" stop-opacity="1"/>
			<stop offset="0.280172" stop-color="#FD1414" stop-opacity="1"/>
			<stop offset="0.521552" stop-color="#FF0000" stop-opacity="1"/>
			<stop offset="0.722198" stop-color="#BA0C01" stop-opacity="1"/>
			<stop offset="0.943965" stop-color="#751803" stop-opacity="1"/>
		</radialGradient>
		<path fill="url(#SVGID_Fill16_)" stroke-width="0.2" stroke-linejoin="round" d="M 126.558,146.326C 137.443,146.326 146.266,152.813 146.266,160.817C 146.266,168.82 137.442,175.308 126.558,175.308C 115.673,175.308 106.85,168.82 106.85,160.817C 106.85,152.813 115.673,146.326 126.558,146.326 Z "/>
		<radialGradient id="SVGID_Fill17_" cx="130.91" cy="135.221" r="68.4973" gradientUnits="userSpaceOnUse">
			<stop offset="0" stop-color="#F8F6F2" stop-opacity="1"/>
			<stop offset="0.646512" stop-color="#F0EEEA" stop-opacity="1"/>
			<stop offset="1" stop-color="#999A9D" stop-opacity="1"/>
		</radialGradient>
		<path fill="url(#SVGID_Fill17_)" stroke-width="0.2" stroke-linejoin="round" d="M 72.0541,107.549C 72.771,111.702 75.5723,121.133 83.7427,129.829C 91.913,138.524 105.453,146.485 117.081,150.175C 128.709,153.866 138.426,153.286 148.852,148.649C 159.277,144.011 170.411,135.317 177.872,126.279C 185.333,117.241 189.121,107.86 187.799,105.211C 186.477,102.563 180.045,106.646 170.653,109.838C 161.261,113.031 148.909,115.332 136.357,116.555C 123.805,117.778 111.053,117.923 100.638,115.925C 90.2241,113.928 82.1476,109.788 77.4259,107.155C 72.7041,104.522 71.337,103.397 72.0541,107.549 Z "/>
		<path fill="#D98004" fill-opacity="1" stroke-width="3" stroke-linecap="round" stroke-linejoin="round" stroke="#D98004" stroke-opacity="1" d="M 83.6157,96.4912C 83.6157,96.4912 66.8092,99.6426 60.2628,110.527C 62.5859,97.7113 83.6157,96.4912 83.6157,96.4912 Z "/>
		<path fill="#D98004" fill-opacity="1" stroke-width="3" stroke-linecap="round" stroke-linejoin="round" stroke="#D98004" stroke-opacity="1" d="M 200.814,113.321C 200.814,113.321 191.931,98.7102 179.436,96.4292C 192.247,94.077 200.814,113.321 200.814,113.321 Z "/>
	</g>
</svg>
