<svg enable-background="new 0 0 258.00 258.00" height="258" viewBox="0 0 258 258" width="258" xmlns="http://www.w3.org/2000/svg"><g stroke-linejoin="round"><g stroke="#000"><path d="m142.349 143.178c1.25 1.834 3.166 5.167 3.958 8.167s.458 5.667-.375 7.917-2.167 4.083-4.167 5.625c-2 1.541-4.666 2.791-9.666 4.291s-12.334 3.25-18.75 5.167c-6.417 1.917-11.917 4-15.8337 6.417-3.9167 2.416-6.25 5.166-7.7083 8.041-1.4584 2.875-2.0417 5.875-2 9.042.0416 3.167.7083 6.5.9583 8.167.25 1.666.0833 1.666-1.2083.958-1.2917-.708-3.7084-2.125-6.1667-4.958-2.4583-2.834-4.9583-7.084-8.625-12.709s-8.5-12.625-11.6667-17c-3.1666-4.375-4.6666-6.125-6.6666-7.625s-4.5-2.75-6.5-3.5-3.5-1-4.25-1.333-.75-.75-.7917-2.625-.125-5.208.4167-8.583c.5416-3.375 1.7083-6.792 3.5-9.709 1.7916-2.916 4.2083-5.333 6.1666-7.166 1.9584-1.834 3.4584-3.084 5.375-4.375 1.9167-1.292 4.25-2.625 7.125-3.834 2.875-1.208 6.2917-2.291 9-2.875 2.7084-.583 4.7084-.666 15.5 2.75 10.7914 3.417 30.3754 10.334 40.4584 13.959s10.667 3.958 11.917 5.791z" fill="#fff" stroke-width="3"/><path d="m110.989 154.002c.472-.208 1.555-.458 2.861-.666 1.305-.209 2.833-.375 4-.514 1.166-.139 1.972-.25 3.194-.236 1.222.013 2.861.152 4.778.625 1.917.472 4.111 1.277 5.597 1.777s2.264.695 2.903.556 1.139-.611 1.75-.861 1.333-.278 2.389-.292c1.055-.014 2.444-.014 3.5.056 1.055.069 1.778.208 2.431.541.652.334 1.236.861 1.597 1.625s.5 1.764.278 2.806c-.223 1.042-.806 2.125-1.598 3.097-.791.972-1.791 1.833-3.264 2.681-1.472.847-3.416 1.68-5.416 2.361-2 .68-4.056 1.208-5.25 1.444-1.195.236-1.528.181-1.917-.069s-.833-.695-2-1.625c-1.167-.931-3.056-2.347-5.569-4.32-2.514-1.972-5.653-4.5-7.5-6-1.848-1.5-2.403-1.972-2.75-2.291-.348-.32-.487-.486-.014-.695z" stroke-width="3"/><path d="m99.0443 143.141c.6388.431 1.6947 1.458 3.2917 3s3.736 3.597 5.056 4.889c1.319 1.292 1.819 1.819 2.18 2.194s.583.598.681.737c.097.138.069.194-.348.25-.416.055-1.222.111-2.472.277-1.25.167-2.944.445-4.625.931-1.68.486-3.3471 1.18-4.7914 1.875-1.4445.694-2.6669 1.389-3.6947 2.014-1.0276.625-1.861 1.18-2.625 1.708-.7638.528-1.4581 1.028-1.9026 1.347-.4446.32-.6389.459-.8472.487-.2083.027-.4306-.056-1.2085-.681-.7777-.625-2.111-1.792-3.375-3-1.2639-1.208-2.4582-2.458-3.4027-3.431-.9444-.972-1.6388-1.666-2.0833-2.125-.4445-.458-.6388-.68-.7222-.847-.0833-.167-.0557-.278.2639-.639.3195-.361.9304-.972 2.0138-1.722s2.639-1.639 3.9862-2.319c1.3472-.681 2.4861-1.153 3.6528-1.625 1.1667-.473 2.361-.945 3.611-1.445s2.5557-1.028 3.514-1.361 1.5694-.472 1.9722-.542c.4028-.069.5972-.069.8054-.152.2084-.084.4307-.25 1.0696.18z" stroke-width="3"/><path d="m84.0859 131.183c.4584.528 1.5417 1.528 2.9027 2.722 1.3611 1.194 3.0002 2.583 4.4307 3.708 1.4304 1.125 2.6528 1.986 3.6111 2.556.9584.569 1.6527.847 2.2639 1.055.6111.209 1.1388.348 1.6943.501.5557.152 1.1394.319 2.0554.402.917.084 2.167.084 3.153.111.986.028 1.708.084 2.153.098.444.013.611-.014-.083-.709-.695-.694-2.251-2.055-4.376-3.722-2.1245-1.667-4.8189-3.639-6.7772-4.944-1.9584-1.306-3.1807-1.945-3.9585-2.25-.7777-.306-1.111-.278-2.0277-.292s-2.4167-.07-3.375-.056-1.375.098-1.6667.167c-.2916.069-.4583.125 0 .653z" stroke-width="3"/><path d="m73.0582 122.475c.4306.263 1.1249.874 2.0833 1.638.9582.764 2.1806 1.681 3.1667 2.417s1.7361 1.292 2.4304 1.861c.6945.57 1.3335 1.153 1.7085 1.528s.486.542.3888.708c-.0971.167-.4028.334-1 .598-.5971.263-1.4862.624-2.9444 1.305-1.4584.681-3.4861 1.681-5.2083 2.57-1.7223.888-3.1389 1.666-4.4582 2.472-1.3196.805-2.5419 1.639-3.2919 2.194-.75.556-1.0277.833-1.4305.806-.4029-.028-.9305-.361-1.5694-.834-.6389-.472-1.3889-1.083-2.5832-2.097-1.1946-1.014-2.8335-2.43-3.9585-3.403-1.125-.972-1.7361-1.5-1.9583-1.916-.2223-.417-.0556-.723 2.3887-2.111 2.4446-1.389 7.1669-3.862 10.014-5.32 2.8472-1.458 3.8195-1.903 4.4167-2.153.5971-.25.8195-.305 1.014-.375.1943-.069.361-.152.7916.112z" stroke-width="3"/><path d="m53.7943 163.294c-.2778-.472-.3055-.945-.2639-1.847.0417-.903.1527-2.236.4027-3.417s.639-2.208 1.139-3.278c.5-1.069 1.111-2.18 1.8055-3.333s1.4721-2.347 2.2639-3.5c.7916-1.153 1.5973-2.264 2.2361-3.111.6389-.847 1.1112-1.431 1.4862-1.875.375-.445.6527-.75.8331-.917.1807-.167.264-.194.4031-.18.1388.013.3331.069 1.1526.652.8195.584 2.2639 1.695 3.875 3.014 1.6112 1.32 3.3889 2.847 4.6527 3.945 1.264 1.097 2.014 1.764 2.4583 2.208.4445.444.5835.667.6252.861.0416.195-.0141.361-.4723.667-.4584.305-1.3194.75-2.0833 1.361s-1.4306 1.389-2.3056 2.653-1.9583 3.014-2.8473 4.583c-.8888 1.569-1.5832 2.958-2.1665 4.375-.5834 1.417-1.0557 2.861-1.4585 3.958-.4027 1.098-.736 1.848-.9584 2.473-.2222.625-.3331 1.125-.4303 1.444-.0973.319-.1807.458-.3057.486s-.2916-.055-1.139-1.028c-.8472-.972-2.3748-2.833-3.7498-4.444s-2.5974-2.972-3.4724-3.889-1.4026-1.389-1.6804-1.861z" stroke-width="3"/><path d="m88.7388 207.725c-.4167-.098-1.1391-.348-2.1112-.862-.9722-.514-2.1945-1.291-3.25-2.361-1.0555-1.069-1.9445-2.43-2.9861-4.125-1.0418-1.694-2.2361-3.722-2.9861-5.486s-1.0557-3.264-1.2639-4.597c-.2084-1.333-.3194-2.5-.0277-4.417.2916-1.916.9859-4.583 2.0415-7.375 1.0556-2.791 2.4723-5.708 3.6806-7.708 1.2084-2 2.2084-3.083 3.2084-4.125s2-2.042 2.7083-2.569c.7083-.528 1.125-.584 1.514-.514.3888.069.7499.263 1.5137.902.764.639 1.9306 1.723 3.8056 3.32s4.4584 3.708 6.0971 5.111c1.639 1.403 2.333 2.097 2.82 2.68.486.584.763 1.056.888 1.417s.098.611-.111.82c-.208.208-.597.375-1.347.666-.75.292-1.861.709-3.2498 1.403-1.3889.694-3.0556 1.667-4.5416 2.875-1.4862 1.208-2.7919 2.653-3.7501 3.972-.9584 1.32-1.5694 2.514-1.9999 3.972-.4307 1.459-.6807 3.181-.8057 4.876-.125 1.694-.125 3.361-.0277 5.069.0972 1.708.2915 3.458.4444 4.639.1528 1.18.2639 1.791.2639 2.125 0 .333-.1111.389-.5277.292z" stroke-width="3"/><path d="m150.849 46.6091c-4.612.3888-13.389 2.1665-22.445 4.4998-9.055 2.3333-18.389 5.2224-27.778 9.0002-9.3886 3.7776-18.8329 8.4443-25.4995 12.3333-6.6667 3.8889-10.5557 6.9998-13.8335 11.1665-3.2777 4.1667-5.9444 9.389-7.1667 12.2778-1.2221 2.8889-.9998 3.4446 4.1114 7.6663 5.1109 4.223 15.1109 12.112 23.7776 18.889 8.6667 6.778 16 12.445 24.3887 17.889 8.389 5.445 17.833 10.667 23 13.389s6.056 2.945 6.222 2.5c.167-.444-.389-1.555-.777-3.333-.389-1.778-.612-4.222.833-6.611 1.444-2.389 4.555-4.723 8.889-6.5 4.333-1.778 9.889-3 15.444-3.667 5.556-.667 11.111-.778 13.889-1s2.778-.556-.611-15.056-10.167-43.1663-13.778-57.9996-4.055-15.8333-8.666-15.4443z" fill="#fff" stroke-width="3"/><path d="m127.216 52.9055c-1.406.3515-4.167 1.1066-6.839 1.8384-2.672.7317-5.255 1.44-7.567 2.1172-2.313.677-4.355 1.3228-6.407 2.0312-2.052.7083-4.114 1.4791-5.125 1.9063-1.01.427-.968.5103-.635 1.1145s.958 1.7292 1.937 3.3437c.98 1.6146 2.313 3.7188 3.417 5.573 1.104 1.8541 1.979 3.4583 2.781 4.9688.802 1.5103 1.532 2.927 1.959 3.7291s.552.9896.614 1.0834c.063.0937.063.0937 1.094-.2084s3.094-.9063 5.208-1.5416c2.115-.6355 4.282-1.3022 6.386-1.9168 2.104-.6145 4.146-1.177 5.968-1.7082 1.823-.5313 3.428-1.0313 4.636-1.448s2.021-.75 2.406-1.0104c.386-.2604.344-.4479-.073-1.4271-.416-.9792-1.208-2.75-2.021-4.6354-.812-1.8854-1.645-3.8854-2.458-5.7709-.812-1.8854-1.604-3.6562-2.135-4.8125-.532-1.1562-.802-1.6979-.99-2.0729-.187-.375-.292-.5833-.385-.789-.094-.2057-.177-.4087-.245-.5363-.068-.1277-.12-.1797-1.526.1719z" stroke-width=".2"/><path d="m87.1898 91.9768c.125-.0834.125-.1668-1.0417-1.5-1.1667-1.3334-3.5-3.9168-5.75-6.3959s-4.4167-4.8541-5.8958-6.4166c-1.4792-1.5625-2.2709-2.3125-2.7292-2.5625s-.5833 0-1.5625.8125-2.8125 2.1875-4.6667 3.8125c-1.8541 1.625-3.7291 3.5-5.2291 5.3125s-2.625 3.5625-3.5 4.875-1.5 2.1875-2.0625 3.3957c-.5625 1.2084-1.0625 2.75-1.3125 3.6875s-.25 1.2709-.1667 1.4793c.0833.2082.25.2916 2.7708 2.3122 2.5209 2.021 7.3959 5.979 10.0209 8.063 2.625 2.083 3 2.291 3.2083 2.333s.25-.083.5417-.812c.2916-.73.8333-2.063 1.3958-3.23.5625-1.166 1.1458-2.166 1.8125-3.083s1.4167-1.75 2.1667-2.583c.75-.834 1.5-1.667 2.4166-2.5627.9167-.8959 2-1.8543 3.0209-2.6668 1.0208-.8125 1.9791-1.4791 2.7916-2.0416s1.4792-1.0209 1.9792-1.3334.8333-.4791 1.125-.6041.5417-.2084.6667-.2916z"/><path d="m101.576 109.502c-.219.094-.24.115-1.9379-1.958-1.698-2.073-5.073-6.24-7.375-9.1042-2.3022-2.8646-3.5313-4.4271-4.1355-5.2291-.6042-.8022-.5833-.8438-.0313-1.25.5521-.4063 1.6355-1.1772 3.323-2.1668 1.6875-.9895 3.9791-2.1979 5.8854-3.1354 1.9062-.9375 3.4273-1.6041 4.7393-2.1875 1.313-.5833 2.417-1.0833 3.479-1.5625 1.063-.4791 2.084-.9375 2.959-1.3021.875-.3645 1.604-.6354 2.073-.8229.468-.1875.677-.2916.791-.3333.115-.0417.136-.0208.417.5s.823 1.5417 1.646 2.9896 1.927 3.3229 3.364 5.6666c1.438 2.3438 3.209 5.1563 4.303 6.8959 1.093 1.7396 1.51 2.4062 1.718 2.7812.209.375.209.4584-.156.6354-.365.1771-1.094.4481-2.51 1.0521-1.417.604-3.521 1.542-5.282 2.344-1.76.802-3.177 1.469-4.573 2.114-1.395.646-2.77 1.271-4.041 1.875-1.271.605-2.438 1.188-3.021 1.48-.583.291-.583.291-.792.375-.208.083-.625.25-.843.343z"/><path d="m100.857 109.731c.062-.01.104.011.771.761.666.75 1.958 2.229 3.635 4.312 1.677 2.084 3.74 4.771 5.125 6.615s2.094 2.844 2.781 3.781c.688.938 1.354 1.813 1.813 2.365.458.552.708.781.729.958s-.188.302-.677.75c-.49.448-1.261 1.219-1.938 2.115s-1.26 1.916-1.739 2.989-.854 2.198-1.073 3.365-.281 2.375-.313 3.073c-.031.698-.031.885-1.604-.125-1.573-1.011-4.719-3.219-8.291-5.75-3.5734-2.531-7.5734-5.386-9.6879-6.99-2.1147-1.604-2.3438-1.958-2.4375-2.354-.0938-.396-.0522-.833.1145-1.604s.4583-1.875.9062-2.823c.448-.948 1.0521-1.74 2-2.885.948-1.146 2.2396-2.646 3.3125-3.688 1.073-1.042 1.9271-1.625 2.7084-2.198.7812-.573 1.4896-1.135 2.0834-1.562.5937-.427 1.0724-.719 1.3544-.886.281-.166.364-.208.427-.219z"/><path d="m134.596 118.961c-.031-.052-.073-.073-.635.104-.563.177-1.646.552-2.969 1.104s-2.885 1.281-4.187 1.917c-1.302.635-2.344 1.177-3.719 1.958s-3.083 1.802-4.25 2.531-1.792 1.167-2.167 1.448-.5.406-.146.99c.355.583 1.188 1.625 2.698 3.406 1.511 1.781 3.698 4.302 5.782 6.687 2.083 2.386 4.062 4.636 5.27 5.969 1.209 1.334 1.646 1.75 2.261 2.115.614.364 1.406.677 2.177.823s1.521.125 2.469-.563c.948-.687 2.093-2.041 2.916-3.229.823-1.187 1.323-2.208 1.719-2.979s.688-1.292.886-1.927c.197-.636.302-1.386.27-2.042-.031-.656-.198-1.219-.677-2.333-.479-1.115-1.271-2.781-2.198-4.802s-1.989-4.396-2.843-6.188c-.855-1.791-1.5-3-1.844-3.646-.344-.645-.386-.729-.458-.823-.073-.093-.178-.197-.24-.291-.063-.094-.083-.177-.115-.229z"/><path d="m146.221 93.0023c.157.0104.177.0937.563 1.1875.385 1.0937 1.135 3.1979 2.125 5.8232.989 2.625 2.219 5.771 3.062 8.041.844 2.271 1.302 3.667 1.459 4.365.156.698.01.698-.49.792-.5.093-1.354.281-2.5.593-1.146.313-2.583.75-4.083 1.198s-3.063.907-4.469 1.313-2.656.76-3.792 1.114c-1.135.355-2.156.709-2.677.875-.521.167-.541.146-1.156-.687s-1.823-2.479-3.208-4.521c-1.386-2.042-2.948-4.479-4.146-6.406s-2.031-3.344-2.583-4.334c-.553-.989-.823-1.552-.98-1.854-.156-.302-.198-.343.042-.468.24-.1255.76-.3338 2.677-.9588s5.229-1.6667 8.011-2.5313c2.781-.8645 5.031-1.552 6.843-2.0937 1.813-.5417 3.188-.9375 4.021-1.1667.833-.2291 1.125-.2916 1.281-.2812z"/><path d="m159.148 69.0023c-.104-.0729-.333-.0729-1.354.0104s-2.833.25-4.937.5625-4.5.7708-6.865 1.2812c-2.364.5105-4.698 1.073-6.073 1.4063s-1.791.4375-1.739 1.0625.573 1.7708 1.166 3.1771c.594 1.4062 1.261 3.0729 1.948 4.7084.688 1.6353 1.396 3.2395 2.073 4.7916s1.323 3.0521 1.75 4.1041c.427 1.0521.636 1.6563.781 2.0313.146.375.23.5208.292.5937.063.073.104.073.448.0209s.99-.1563 2.323-.3959c1.333-.2395 3.354-.6145 5.031-1.0312s3.011-.875 4.198-1.2292c1.188-.3541 2.229-.6041 3.167-.7708.937-.1667 1.771-.25 2.344-.302.572-.0522.885-.073 1.031-.1355s.125-.1667-.761-3.2604c-.885-3.0938-2.635-9.1771-3.573-12.3854-.937-3.2084-1.062-3.5417-1.114-3.7812-.052-.2397-.031-.3855-.136-.4584z"/><path d="m169.867 110.284c-.177-.063-.448-.042-1.531.083s-2.979.354-4.76.656c-1.782.302-3.448.677-4.875.99-1.428.312-2.615.562-3.375.75-.761.187-1.094.312-1.24.489s-.104.407.323 1.604c.427 1.198 1.239 3.365 2.281 6.125 1.042 2.761 2.313 6.115 3.177 8.334.865 2.219 1.323 3.302 1.677 4.104s.604 1.323 1.313 1.542c.708.218 1.875.135 3.208.083s2.833-.073 4.271-.083c1.437-.011 2.812-.011 3.906.031s1.906.125 2.313.167h.406c0-.042 0-.125-1.115-4.178-1.114-4.052-3.343-12.072-4.468-16.125-1.125-4.052-1.146-4.135-1.198-4.25-.052-.114-.136-.26-.313-.322z"/><path d="m188.628 177.876c-7.75-31.485-20.667-83.8455-27.042-110.0261s-6.208-26.1806-5.125-26.264c1.083-.0832 3.083-.25 4.083-.25s1 .1668 8.917 31.5c7.917 31.3331 23.75 93.8331 31.667 125.0831 7.916 31.25 7.916 31.25 6.823 31.443-1.094.193-3.282.578-4.532.813-1.25.234-1.562.317-3.01-4.945s-4.031-15.87-11.781-47.354z" fill="#fff" stroke-width="4"/></g><path d="m156.544 28.3153c-5.247 0-9.5 3.5166-9.5 7.8541 0 4.3376 4.253 7.854 9.5 7.854s9.5-3.5164 9.5-7.854c0-4.3375-4.253-7.8541-9.5-7.8541z" stroke-width=".2"/><path d="m158.024 30.2318c-3.556 0-6.438 2.3226-6.438 5.1875 0 2.8648 2.882 5.1875 6.438 5.1875 3.555 0 6.437-2.3227 6.437-5.1875 0-2.8649-2.882-5.1875-6.437-5.1875z" fill="#fff" stroke-width=".2"/></g></svg>