<svg enable-background="new 0 0 63.99 63.49" height="63.4917" viewBox="0 0 63.99 63.49" width="63.9932" xmlns="http://www.w3.org/2000/svg" xmlns:xlink="http://www.w3.org/1999/xlink"><linearGradient id="a"><stop offset="0" stop-color="#ffffd6"/><stop offset=".376744" stop-color="#fffd31"/><stop offset=".740593" stop-color="#ffc817"/><stop offset="1" stop-color="#f6a700"/></linearGradient><radialGradient id="b" cx="38.3037" cy="22.7395" gradientTransform="matrix(-.547191198077 -.837007641989 .837007641989 -.547191198077 40.230063149252 67.242875417748)" gradientUnits="userSpaceOnUse" r="41.9755" xlink:href="#a"/><linearGradient id="c"><stop offset="0" stop-color="#fffffb"/><stop offset=".755398" stop-color="#fbfbfb"/><stop offset="1" stop-color="#b3b3b3"/></linearGradient><radialGradient id="d" cx="43.6345" cy="12.3158" gradientTransform="matrix(-.9993467365 -.036140008951 .036140008951 -.9993467365 86.795368207237 26.200497146176)" gradientUnits="userSpaceOnUse" r="9.54599" xlink:href="#c"/><radialGradient id="e" cx="21.7741" cy="13.8499" gradientTransform="matrix(-.996771112256 .080295390725 -.080295390725 -.996771112256 44.590051187862 25.906625377464)" gradientUnits="userSpaceOnUse" r="9.12997" xlink:href="#c"/><linearGradient id="f"><stop offset="0" stop-color="#b88000"/><stop offset="1" stop-color="#4f2f00"/></linearGradient><radialGradient id="g" cx="22.0286" cy="16.3193" gradientUnits="userSpaceOnUse" r="5.36658" xlink:href="#f"/><radialGradient id="h" cx="43.6242" cy="16.0017" gradientUnits="userSpaceOnUse" r="5.04895" xlink:href="#f"/><linearGradient id="i"><stop offset="0" stop-color="#fff" stop-opacity=".388235"/><stop offset="1" stop-opacity=".388235"/></linearGradient><linearGradient id="j" gradientTransform="matrix(-.089655020669 .995972879786 -.995972879786 -.089655020669 .696150185158 -.60689727961)" gradientUnits="objectBoundingBox" x1=".625435" x2="1.6832" xlink:href="#i" y1=".0147007" y2=".0147007"/><linearGradient id="k" gradientTransform="matrix(-.087099235256 .996199640242 -.996199640242 -.087099235256 .714946814542 -.558479357807)" gradientUnits="objectBoundingBox" x1=".613364" x2="1.57975" xlink:href="#i" y1=".0483434" y2=".0483434"/><radialGradient id="l" cx="25.1588" cy="15.4124" gradientUnits="userSpaceOnUse" r="4.14624" xlink:href="#f"/><radialGradient id="m" cx="19.4335" cy="11.9401" gradientUnits="userSpaceOnUse" r=".689453" xlink:href="#f"/><radialGradient id="n" cx="21.8014" cy="11.1094" gradientUnits="userSpaceOnUse" r="1.76118" xlink:href="#c"/><radialGradient id="o" cx="18.0646" cy="17.1577" gradientUnits="userSpaceOnUse" r="4.5282" xlink:href="#f"/><radialGradient id="p" cx="41.2632" cy="19.4473" gradientTransform="matrix(-.54785507156 -.836573260728 .836573260728 -.54785507156 47.600330292595 64.62120645181)" gradientUnits="userSpaceOnUse" r="41.973" xlink:href="#a"/><radialGradient id="q" cx="32.2816" cy="42.3876" gradientTransform="matrix(.212538765185 .977152635617 -.977152635617 .212538765185 66.839644359335 1.834511259089)" gradientUnits="userSpaceOnUse" r="26.2707"><stop offset="0" stop-color="#9e1f01"/><stop offset=".943965" stop-color="#180906"/></radialGradient><radialGradient id="r" cx="28.7555" cy="45.2256" gradientUnits="userSpaceOnUse" r="9.25903"><stop offset="0" stop-color="#f1ebea"/><stop offset=".0818966" stop-color="#f77f7f"/><stop offset=".280172" stop-color="#fd1414"/><stop offset=".521552" stop-color="#f00"/><stop offset=".722198" stop-color="#ba0c01"/><stop offset=".943965" stop-color="#751803"/></radialGradient><radialGradient id="s" cx="32.7215" cy="36.46" gradientUnits="userSpaceOnUse" r="20.5492"><stop offset="0" stop-color="#f8f6f2"/><stop offset=".646512" stop-color="#f0eeea"/><stop offset="1" stop-color="#999a9d"/></radialGradient><g stroke-linejoin="round"><path d="m2 31.7456c0 16.4282 13.4297 29.7461 29.9967 29.7461l0 0c16.5667 0 29.9965-13.3179 29.9965-29.7461l0 0c0-16.4281-13.4298-29.7456-29.9965-29.7456l0 0c-16.567 0-29.9967 13.3175-29.9967 29.7456z" fill="url(#b)" stroke="#000" stroke-width="4"/><g stroke-width=".2"><path d="m36.6383 14.8458c0 1.3241.1768 2.5912.496 3.7545l0 0c4.7892.1919 9.0819 1.2652 12.252 2.906l0 0c1.0686-1.7963 1.7175-4.1213 1.7175-6.6605l0 0c0-5.69187-3.3481-10.12082-8.1175-10.12082l0 0c-3.0122 0-6.348 4.42895-6.348 10.12082z" fill="url(#d)"/><path d="m14.541 15.6719c0 2.5392.6492 4.8641 1.7175 6.6604l0 0c3.1704-1.6409 7.463-2.714 12.2519-2.906l0 0c .3193-1.1632.4961-2.4305.4961-3.7544l0 0c0-5.69192-2.6626-9.51223-5.0977-10.12087l0 0c-.4765-.11902-.9474-.17579-1.4087-.17579l0 0c-4.3981-.00048-7.9591 5.14486-7.9591 10.29666z" fill="url(#e)"/><path d="m45.9264 19.1555c0-2.4193-1.1125-4.3805-2.4851-4.3805-1.3614 0-2.4674 1.9307-2.4846 4.3239 1.747.255 3.3919.6313 4.8973 1.1105.0473-.3376.0724-.6906.0724-1.0539z"/><path d="m20.0402 11.2507c-.4469.3521-.8557.8192-1.2134 1.3788-.9378 1.4673-1.5244 3.5708-1.5244 5.9088 0 1.1173.1341 2.1812.3765 3.1476.6509-.2757 1.3382-.5301 2.0574-.7611-.1357-.541-.211-1.1396-.211-1.7693 0-2.4193 1.1128-4.3805 2.4851-4.3805 1.3722 0 2.4848 1.9612 2.4848 4.3805 0 .229-.01.4539-.0292.6734.7328-.1121 1.484-.2026 2.2509-.2703.0249-.3341.0378-.6747.0378-1.0204 0-2.8684-.8801-5.3881-2.2119-6.8088-.3166-.1868-.6438-.3419-.9802-.4633-.5693-.2052-1.1652-.3133-1.781-.3133-.5992 0-1.1847.1024-1.7414.2979z" fill="url(#g)"/><path d="m41.1098 11.7291c-1.3317 1.421-2.2118 3.9406-2.2118 6.8092 0 .1078.0013.2151.0038.3218.6985.061 1.3842.141 2.0549.2388.0172-2.3932 1.1232-4.3239 2.4846-4.3239 1.3726 0 2.4851 1.9612 2.4851 4.3805 0 .3633-.0251.7163-.0724 1.0539.7942.2528 1.5496.5341 2.2607.8414.153-.7903.2357-1.6349.2357-2.5125 0-3.2297-1.1195-6.0119-2.7379-7.2876-.5565-.1955-1.1423-.2979-1.7413-.2979-.98 0-1.9092.2738-2.7614.7763z" fill="url(#h)"/><path d="m24.466 19.8289c.0192-.2195.0292-.4444.0292-.6734 0-2.4193-1.1126-4.3805-2.4848-4.3805-1.3723 0-2.4851 1.9612-2.4851 4.3805 0 .6297.0753 1.2283.211 1.7693 1.4563-.4674 3.0442-.8384 4.7297-1.0959z"/><path d="m25.4605 15.9022c0 2.1144-1.0113 3.828-2.2591 3.828s-2.2592-1.7136-2.2592-3.828c0-2.1141 1.0114-3.828 2.2592-3.828s2.2591 1.7139 2.2591 3.828z" fill="url(#j)"/><path d="m42.326 16.0277c0 2.1144 1.0113 3.828 2.2591 3.828 1.2476 0 2.2592-1.7136 2.2592-3.828 0-2.1141-1.0116-3.828-2.2592-3.828-1.2478 0-2.2591 1.7139-2.2591 3.828z" fill="url(#k)"/><path d="m26.755 18.5383c0-2.8686-.8805-5.3882-2.2122-6.8092-.3165-.1866-.6438-.3418-.9802-.463.3364.1214.6636.2765.9802.4633 1.3318 1.4207 2.2119 3.9404 2.2119 6.8088 0 .3457-.0129.6863-.0376 1.0204.025-.3341.0379-.6746.0379-1.0203z" fill="url(#l)"/><path d="m20.04 11.2507c-.4467.3522-.8555.8192-1.2132 1.3788.3577-.5596.7665-1.0267 1.2132-1.3788z" fill="url(#m)"/><path d="m20.0402 11.2507c.5567-.1955 1.1422-.2979 1.7414-.2979.6158 0 1.2117.1081 1.781.3133-.5693-.2052-1.1652-.3135-1.781-.3135-.5992 0-1.1849.1025-1.7414.2981z" fill="url(#n)"/><path d="m17.6789 21.6859c-.2424-.9664-.3765-2.0303-.3765-3.1476 0-2.338.5866-4.4415 1.5244-5.9088-.9379 1.4673-1.5244 3.5708-1.5244 5.9087 0 1.1174.1341 2.1813.3765 3.1477z" fill="url(#o)"/><path d="m32.0035 2.17993c-16.567 0-29.99672 13.31767-29.99672 29.74577s13.42972 29.7459 29.99672 29.7459c16.5667 0 29.9964-13.3178 29.9964-29.7459s-13.4297-29.74577-29.9964-29.74577zm-21.2586 21.04057c0-6.5726 9.1676-11.9009 20.4759-11.9009s20.4759 5.3283 20.4759 11.9009-9.1674 11.9007-20.4759 11.9007-20.4759-5.3281-20.4759-11.9007z" fill="url(#p)"/></g><path d="m27.46 5.51624s-11.7732 2.83728-16.3591 12.63676c1.6274-11.53825 16.3591-12.63676 16.3591-12.63676z" fill="#643d00" stroke="#653d00" stroke-linecap="round" stroke-width="3"/><path d="m39.122 6.7334s10.595 2.65967 14.8259 12.6367c-3.136-11.27196-14.8259-12.6367-14.8259-12.6367z" fill="#643d00" stroke="#653d00" stroke-linecap="round" stroke-width="3"/><path d="m14.2029 27.6663c-.4064 1.5876-.2271 5.8398.1434 8.7653.3705 2.9256.9322 4.5245 1.7137 5.9985s1.7828 2.8233 3.5349 3.9649c1.7522 1.1417 4.2553 2.0758 7.259 2.5429 3.0037.467 6.5079.467 9.5742-.1557 3.0663-.6228 5.6945-1.8683 7.8847-3.477s3.9424-3.5806 5.0688-5.5008c1.1263-1.9201 1.6269-3.7883 1.7915-5.8186.1647-2.0304-.0067-4.223-.2879-5.5333s-.6724-1.7384-1.3992-1.68c-.7267.0583-1.7891.6034-2.5315 1.051-.7425.4475-1.1649.7978-3.3355 1.2551-2.1706.4574-6.0895 1.0217-8.695 1.3007-2.6054.2789-3.8974.2723-5.4195.295s-3.2743.0746-5.4644-.3276c-2.1902-.4022-4.8185-1.2584-6.6286-2.2249-1.8102-.9665-2.8022-2.0434-3.2086-.4555z" fill="url(#q)" stroke="#000" stroke-width="2"/><path d="m31.416 39.7915c3.2654 0 5.9124 1.9463 5.9124 4.3473s-2.6471 4.3473-5.9124 4.3473-5.9123-1.9463-5.9123-4.3473 2.6469-4.3473 5.9123-4.3473z" fill="url(#r)" stroke-width=".2"/><path d="m15.0649 28.1586c.2151 1.2457 1.0554 4.075 3.5066 6.6838 2.451 2.6086 6.5129 4.9967 10.0014 6.1039s6.4036.9332 9.5312-.458c3.1277-1.3911 6.4679-3.9994 8.7063-6.7107 2.2383-2.7114 3.3747-5.5259 2.9781-6.3204-.3967-.7946-2.3263.4304-5.1439 1.388-2.8176.9578-6.5233 1.6481-10.2889 2.015s-7.5913.4103-10.7156-.1888c-3.1242-.5993-5.5472-1.8412-6.9637-2.631-1.4165-.7899-1.8266-1.1276-1.6115.1182z" fill="url(#s)" stroke-width=".2"/><path d="m18.5334 24.8412s-5.0419.9454-7.0059 4.2108c.697-3.8447 7.0059-4.2108 7.0059-4.2108z" fill="#d98004" stroke="#d98004" stroke-linecap="round"/><path d="m53.6935 29.8901s-2.6651-4.3833-6.4137-5.0676c3.8432-.7056 6.4137 5.0676 6.4137 5.0676z" fill="#d98004" stroke="#d98004" stroke-linecap="round"/></g></svg>