<svg enable-background="new 0 0 258.00 258.00" height="258" viewBox="0 0 258 258" width="258" xmlns="http://www.w3.org/2000/svg" xmlns:xlink="http://www.w3.org/1999/xlink"><linearGradient id="a" gradientTransform="matrix(0 -1 1 0 -.581108 1.581108)" gradientUnits="objectBoundingBox" x1=".5" x2="1.66222" y1="1.08111" y2="1.08111"><stop offset="0" stop-color="#abc4ab"/><stop offset=".771552" stop-color="#d5e1d5"/><stop offset="1" stop-color="#fff"/></linearGradient><path d="m43.9999 4.00012h170.0001c22.091 0 40 17.90858 40 39.99988v170c0 22.092-17.909 40-40 40h-170.0001c-22.0915 0-40.00002-17.908-40.00002-40v-170c0-22.0913 17.90852-39.99988 40.00002-39.99988z" fill="url(#a)" stroke="#000" stroke-linecap="square" stroke-linejoin="bevel" stroke-width="8"/><g stroke-linejoin="round"><path d="m142.349 143.179c1.25 1.833 3.166 5.166 3.958 8.166s.458 5.667-.375 7.917-2.167 4.083-4.167 5.625-4.666 2.792-9.666 4.292-12.334 3.25-18.75 5.166c-6.417 1.917-11.917 4-15.8339 6.417-3.9166 2.417-6.25 5.167-7.7082 8.042-1.4584 2.875-2.0418 5.875-2 9.041.0416 3.167.7082 6.5.9582 8.167s.0834 1.667-1.2082.958c-1.2918-.708-3.7084-2.125-6.1668-4.958-2.4582-2.833-4.9582-7.083-8.625-12.708-3.6666-5.625-8.5-12.625-11.6666-17s-4.6666-6.125-6.6666-7.625-4.5-2.75-6.5-3.5-3.5-1-4.25-1.334c-.75-.333-.75-.75-.7918-2.625-.0416-1.875-.125-5.208.4168-8.583.5416-3.375 1.7082-6.792 3.5-9.708 1.7916-2.917 4.2082-5.334 6.1666-7.167s3.4584-3.083 5.375-4.375 4.25-2.625 7.125-3.833c2.875-1.209 6.2916-2.292 9-2.875 2.7084-.584 4.7084-.667 15.5 2.75 10.7915 3.416 30.3755 10.333 40.4585 13.958s10.667 3.958 11.917 5.792z" fill="#fff" stroke="#000" stroke-width="3"/><path d="m110.989 154.002c.472-.208 1.555-.458 2.861-.666 1.305-.209 2.833-.375 4-.514 1.166-.139 1.972-.25 3.194-.236s2.861.153 4.778.625 4.111 1.278 5.597 1.778 2.264.694 2.903.555 1.139-.611 1.75-.861 1.333-.278 2.389-.292c1.055-.014 2.444-.014 3.5.056 1.055.069 1.778.208 2.43.542.653.333 1.236.861 1.598 1.624.361.764.5 1.764.277 2.806-.222 1.042-.805 2.125-1.597 3.097-.792.973-1.792 1.834-3.264 2.681s-3.416 1.68-5.416 2.361-4.056 1.208-5.25 1.444c-1.195.237-1.528.181-1.917-.069s-.833-.694-2-1.625-3.056-2.347-5.57-4.32c-2.513-1.972-5.652-4.499-7.5-5.999-1.847-1.5-2.402-1.973-2.75-2.292-.347-.32-.486-.486-.013-.695z" stroke="#000" stroke-width="3"/><path d="m99.0442 143.141c.6388.431 1.6948 1.459 3.2918 3 1.597 1.542 3.736 3.598 5.055 4.889 1.32 1.292 1.82 1.82 2.181 2.195s.583.597.68.736c.098.139.07.194-.347.25-.416.055-1.222.111-2.472.278-1.25.166-2.944.444-4.625.93s-3.3472 1.181-4.7915 1.875c-1.4445.695-2.6669 1.389-3.6947 2.014-1.0276.625-1.861 1.181-2.625 1.708-.7638.528-1.4582 1.028-1.9026 1.347-.4446.32-.6389.459-.8472.487-.2084.027-.4306-.056-1.2085-.681-.7777-.625-2.1111-1.792-3.375-3s-2.4582-2.458-3.4027-3.431c-.9444-.972-1.6388-1.666-2.0834-2.124-.4444-.459-.6388-.681-.7221-.848-.0833-.166-.0557-.277.2639-.639.3194-.361.9304-.972 2.0138-1.722s2.639-1.639 3.9862-2.319c1.3472-.681 2.4861-1.153 3.6528-1.625 1.1666-.472 2.361-.945 3.611-1.445s2.5556-1.027 3.514-1.361c.9583-.333 1.5694-.472 1.9722-.542.4028-.069.5972-.069.8054-.152.2084-.084.4307-.25 1.0696.18z" stroke="#000" stroke-width="3"/><path d="m84.0858 131.183c.4584.528 1.5416 1.528 2.9027 2.722 1.3611 1.195 3.0001 2.584 4.4307 3.709 1.4304 1.125 2.6528 1.986 3.6111 2.555.9583.57 1.6527.847 2.2639 1.056.6111.208 1.1388.347 1.6943.5.5557.152 1.1385.319 2.0555.402.917.084 2.167.084 3.153.111.986.028 1.708.084 2.153.098.444.014.611-.014-.084-.709-.694-.694-2.25-2.055-4.375-3.722-2.1246-1.666-4.819-3.639-6.7774-4.944-1.9583-1.306-3.1806-1.945-3.9584-2.25-.7778-.306-1.111-.278-2.0278-.292-.9166-.014-2.4166-.069-3.375-.056-.9582.014-1.375.098-1.6666.167-.2916.07-.4584.125 0 .653z" stroke="#000" stroke-width="3"/><path d="m73.0581 122.475c.4305.264 1.1249.875 2.0833 1.638.9582.764 2.1806 1.681 3.1667 2.417s1.7361 1.292 2.4304 1.861c.6945.57 1.3335 1.153 1.7085 1.528s.486.542.3888.708c-.0972.167-.4028.334-1 .598s-1.4862.625-2.9444 1.305c-1.4584.681-3.4861 1.681-5.2083 2.57-1.7223.889-3.1389 1.666-4.4582 2.472-1.3196.805-2.5419 1.639-3.2919 2.194-.75.556-1.0277.834-1.4306.806-.4028-.028-.9304-.361-1.5693-.834-.6389-.472-1.3889-1.083-2.5832-2.097-1.1946-1.014-2.8335-2.43-3.9585-3.403-1.125-.972-1.7361-1.499-1.9583-1.916-.2223-.417-.0557-.722 2.3887-2.111 2.4446-1.389 7.1668-3.861 10.014-5.32 2.8472-1.458 3.8195-1.902 4.4166-2.152.5972-.25.8196-.306 1.0141-.376.1943-.069.3609-.152.7916.112z" stroke="#000" stroke-width="3"/><path d="m53.7942 163.294c-.2778-.472-.3056-.944-.2639-1.847s.1527-2.236.4027-3.417c.25-1.18.639-2.208 1.139-3.278.5-1.069 1.111-2.18 1.8054-3.333.6946-1.153 1.4722-2.347 2.264-3.5.7916-1.153 1.5972-2.264 2.236-3.111.639-.847 1.1112-1.431 1.4862-1.875s.6528-.75.8332-.917c.1806-.166.264-.194.4031-.18.1387.014.3331.069 1.1525.653.8196.583 2.264 1.694 3.875 3.013 1.6112 1.32 3.389 2.848 4.6528 3.945 1.264 1.097 2.014 1.764 2.4583 2.208.4445.445.5835.667.6251.861.0417.195-.014.361-.4722.667-.4584.306-1.3194.75-2.0833 1.361s-1.4307 1.389-2.3057 2.653-1.9582 3.014-2.8472 4.583c-.8888 1.57-1.5832 2.959-2.1666 4.375-.5833 1.417-1.0556 2.861-1.4584 3.958-.4028 1.098-.736 1.848-.9584 2.473-.2222.625-.3332 1.125-.4303 1.444-.0973.32-.1807.459-.3057.486-.125.028-.2916-.055-1.139-1.028-.8472-.972-2.3748-2.833-3.7498-4.444s-2.5974-2.972-3.4724-3.889c-.875-.916-1.4026-1.389-1.6804-1.861z" stroke="#000" stroke-width="3"/><path d="m88.7386 207.725c-.4166-.098-1.139-.348-2.1112-.862-.9721-.513-2.1944-1.291-3.25-2.361-1.0554-1.069-1.9444-2.43-2.986-4.125-1.0418-1.694-2.2361-3.722-2.9861-5.486s-1.0557-3.264-1.2639-4.597c-.2084-1.333-.3194-2.5-.0278-4.417.2917-1.916.986-4.583 2.0416-7.375 1.0556-2.791 2.4722-5.708 3.6806-7.708s2.2084-3.083 3.2084-4.125 2-2.042 2.7082-2.569c.7084-.528 1.125-.584 1.5141-.514.3888.069.7499.264 1.5137.902.764.639 1.9306 1.723 3.8056 3.32s4.4584 3.708 6.0972 5.111c1.639 1.403 2.333 2.097 2.819 2.681.487.583.764 1.055.889 1.416s.098.611-.111.82c-.208.208-.597.375-1.347.666-.75.292-1.861.709-3.2499 1.403-1.3889.695-3.0557 1.667-4.5416 2.875-1.4862 1.209-2.7919 2.653-3.7501 3.972-.9584 1.32-1.5694 2.514-1.9999 3.973-.4307 1.458-.6807 3.18-.8057 4.875-.125 1.694-.125 3.361-.0277 5.069.0972 1.708.2915 3.458.4443 4.639.1529 1.181.264 1.792.264 2.125s-.1111.389-.5278.292z" stroke="#000" stroke-width="3"/><path d="m150.849 46.6093c-4.612.3887-13.389 2.1665-22.445 4.4997-9.055 2.3334-18.389 5.2224-27.778 9.0003-9.3887 3.7775-18.833 8.4443-25.4997 12.3332-6.6666 3.8889-10.5556 6.9999-13.8335 11.1665-3.2777 4.1668-5.9443 9.389-7.1666 12.2778-1.2221 2.889-.9999 3.4446 4.1113 7.6672 5.111 4.222 15.111 12.111 23.7776 18.889 8.6668 6.777 16 12.444 24.3889 17.888 8.389 5.445 17.833 10.667 23 13.389s6.056 2.945 6.222 2.5c.167-.444-.389-1.555-.777-3.333-.389-1.778-.612-4.222.833-6.611 1.444-2.389 4.555-4.722 8.889-6.5 4.333-1.778 9.889-3 15.444-3.667 5.556-.667 11.111-.778 13.889-1s2.778-.555-.611-15.055-10.167-43.1672-13.778-58.0004c-3.611-14.8334-4.055-15.8334-8.666-15.4443z" fill="#fff" stroke="#000" stroke-width="3"/><path d="m127.216 52.9056c-1.406.3516-4.167 1.1066-6.839 1.8384-2.672.7317-5.255 1.4401-7.568 2.1172-2.312.677-4.354 1.3229-6.406 2.0313-2.052.7082-4.114 1.4791-5.125 1.9062-1.01.427-.969.5104-.635 1.1145.333.6043.958 1.7293 1.937 3.3438.979 1.6146 2.313 3.7187 3.417 5.573 1.104 1.8541 1.979 3.4582 2.781 4.9687.802 1.5104 1.531 2.927 1.959 3.7291.427.8022.552.9897.614 1.0834.063.0938.063.0938 1.094-.2084 1.031-.3021 3.094-.9062 5.208-1.5416 2.115-.6355 4.281-1.3021 6.386-1.9167 2.104-.6145 4.145-1.177 5.968-1.7083 1.823-.5312 3.427-1.0312 4.636-1.448 1.208-.4166 2.021-.75 2.406-1.0104.385-.2603.344-.4478-.073-1.4271-.417-.9791-1.208-2.75-2.021-4.6354-.812-1.8853-1.646-3.8853-2.458-5.7708-.813-1.8854-1.604-3.6563-2.135-4.8125-.532-1.1563-.803-1.6979-.99-2.0729-.188-.375-.292-.5834-.385-.7891-.094-.2057-.177-.4087-.245-.5362-.068-.1277-.12-.1797-1.526.1718z" stroke="#000" stroke-width=".2"/><path d="m87.1897 91.9769c.125-.0833.125-.1667-1.0418-1.5-1.1666-1.3333-3.5-3.9167-5.75-6.3958-2.25-2.4792-4.4166-4.8542-5.8957-6.4167-1.4793-1.5625-2.2709-2.3125-2.7293-2.5625-.4582-.25-.5832 0-1.5625.8125-.9791.8125-2.8125 2.1875-4.6666 3.8125s-3.7291 3.5-5.2291 5.3125-2.625 3.5625-3.5 4.875-1.5 2.1875-2.0625 3.3958c-.5625 1.2084-1.0625 2.75-1.3125 3.6875s-.25 1.2709-.1668 1.4792c.0834.2083.25.2917 2.7709 2.3121 2.5209 2.021 7.3959 5.98 10.0209 8.063s3 2.292 3.2082 2.333c.2084.042.25-.083.5418-.812.2916-.729.8332-2.063 1.3957-3.229.5625-1.167 1.1459-2.167 1.8125-3.084.6668-.916 1.4168-1.75 2.1668-2.583s1.5-1.6668 2.4166-2.5626 2-1.8542 3.0209-2.6667c1.0207-.8125 1.9791-1.4791 2.7916-2.0416s1.4791-1.0209 1.9791-1.3334.8334-.4791 1.125-.6041c.2918-.125.5418-.2084.6668-.2917z" stroke="#000"/><path d="m101.575 109.502c-.218.094-.239.115-1.9371-1.958-1.698-2.073-5.073-6.239-7.375-9.1041-2.3021-2.8646-3.5312-4.4271-4.1355-5.2291-.6041-.8021-.5832-.8437-.0312-1.25.5521-.4062 1.6355-1.1771 3.323-2.1667 1.6875-.9895 3.9791-2.1979 5.8854-3.1354 1.9062-.9375 3.4274-1.6041 4.7394-2.1875 1.313-.5834 2.417-1.0834 3.479-1.5625 1.063-.4791 2.084-.9375 2.959-1.3021.875-.3645 1.604-.6354 2.073-.8229.468-.1875.677-.2916.791-.3334.115-.0416.136-.0207.417.5.281.5209.823 1.5418 1.646 2.9896.823 1.4479 1.927 3.3229 3.364 5.6667 1.438 2.3437 3.209 5.1562 4.302 6.8958 1.094 1.7397 1.511 2.4063 1.719 2.7813s.208.4584-.156.6354c-.365.1769-1.094.4479-2.511 1.0519-1.416.604-3.52 1.542-5.281 2.344-1.76.802-3.177 1.469-4.573 2.115-1.396.645-2.771 1.27-4.041 1.875-1.271.604-2.438 1.187-3.021 1.479-.584.291-.584.291-.792.375-.208.083-.625.25-.844.343z" stroke="#000"/><path d="m100.857 109.732c.062-.011.104.01.77.76.667.75 1.959 2.229 3.636 4.313 1.677 2.083 3.739 4.77 5.125 6.614 1.385 1.844 2.094 2.844 2.781 3.781.688.938 1.354 1.813 1.813 2.365.458.552.708.781.729.958s-.188.302-.677.75c-.49.448-1.261 1.219-1.938 2.115s-1.26 1.917-1.739 2.989c-.48 1.073-.855 2.198-1.073 3.365-.219 1.167-.282 2.375-.313 3.073s-.031.885-1.604-.125-4.719-3.219-8.292-5.75c-3.5726-2.531-7.5726-5.385-9.6871-6.99-2.1146-1.604-2.3437-1.958-2.4375-2.354-.0937-.396-.0521-.833.1145-1.604.1668-.771.4584-1.875.9063-2.823.448-.948 1.0521-1.739 2-2.885.948-1.146 2.2396-2.646 3.3125-3.688 1.073-1.041 1.9271-1.625 2.7084-2.198.7812-.573 1.4896-1.135 2.0833-1.562.5938-.427 1.0726-.719 1.3546-.886.281-.166.364-.208.427-.218z" stroke="#000"/><path d="m134.596 118.961c-.031-.052-.073-.073-.635.104-.563.177-1.646.552-2.969 1.104s-2.885 1.281-4.187 1.917c-1.303.635-2.344 1.177-3.719 1.958s-3.084 1.802-4.25 2.531c-1.167.73-1.792 1.167-2.167 1.448-.375.282-.5.407-.146.99s1.188 1.625 2.698 3.406c1.511 1.781 3.698 4.302 5.781 6.688 2.084 2.385 4.063 4.635 5.271 5.968 1.209 1.334 1.646 1.75 2.261 2.115.614.365 1.406.677 2.177.823s1.521.125 2.469-.563c.947-.687 2.093-2.041 2.916-3.229.823-1.187 1.323-2.208 1.719-2.979s.687-1.292.885-1.927.302-1.385.271-2.042c-.031-.656-.198-1.218-.677-2.333s-1.271-2.781-2.198-4.802-1.989-4.396-2.844-6.188c-.854-1.791-1.5-3-1.843-3.645-.344-.646-.386-.73-.459-.823-.073-.094-.177-.198-.239-.292-.063-.094-.084-.177-.115-.229z" stroke="#000"/><path d="m146.221 93.0024c.156.0104.177.0938.563 1.1875.385 1.0938 1.135 3.1979 2.125 5.8231.989 2.625 2.218 5.771 3.062 8.042.844 2.27 1.302 3.666 1.459 4.364.156.698.01.698-.49.792s-1.354.281-2.5.594c-1.146.312-2.583.75-4.083 1.197-1.5.448-3.063.907-4.469 1.313s-2.656.76-3.792 1.115c-1.135.354-2.156.708-2.677.875-.521.166-.542.145-1.156-.688-.615-.833-1.823-2.479-3.208-4.521-1.386-2.041-2.948-4.479-4.146-6.406s-2.032-3.344-2.584-4.333c-.552-.99-.823-1.552-.979-1.855-.156-.302-.198-.343.042-.468.239-.1253.76-.3337 2.677-.9587s5.229-1.6666 8.01-2.5312c2.782-.8645 5.032-1.552 6.844-2.0938 1.813-.5416 3.188-.9375 4.021-1.1666s1.125-.2916 1.281-.2813z" stroke="#000"/><path d="m159.148 69.0024c-.104-.0728-.333-.0728-1.354.0104-1.021.0834-2.833.25-4.937.5625-2.105.3125-4.5.7709-6.865 1.2813-2.365.5105-4.698 1.073-6.073 1.4062-1.375.3334-1.792.4375-1.739 1.0625.052.625.572 1.7709 1.166 3.1771.594 1.4063 1.261 3.0729 1.948 4.7084.688 1.6354 1.396 3.2395 2.073 4.7916.677 1.5522 1.323 3.0522 1.75 4.1042.427 1.0521.635 1.6562.781 2.0312s.229.5209.292.5938c.062.073.104.073.448.0208.344-.0521.989-.1562 2.323-.3958 1.333-.2395 3.354-.6145 5.031-1.0313 1.677-.4166 3.01-.875 4.198-1.2291 1.187-.3541 2.229-.6041 3.167-.7709.937-.1666 1.77-.25 2.343-.302.573-.0521.886-.073 1.032-.1355.145-.0625.125-.1666-.761-3.2604-.885-3.0937-2.635-9.1771-3.573-12.3853-.937-3.2084-1.062-3.5418-1.114-3.7813-.052-.2396-.032-.3855-.136-.4584z" stroke="#000"/><path d="m169.867 110.284c-.177-.063-.448-.042-1.531.083-1.084.125-2.979.354-4.761.656-1.781.302-3.448.677-4.875.99-1.427.312-2.614.562-3.375.75-.76.187-1.093.312-1.239.489-.146.178-.104.407.323 1.605s1.239 3.364 2.281 6.125c1.042 2.76 2.312 6.114 3.177 8.333s1.323 3.302 1.677 4.104.604 1.323 1.313 1.542c.708.219 1.875.135 3.208.083s2.833-.073 4.271-.083c1.437-.011 2.812-.011 3.906.031s1.906.125 2.313.167h.406c0-.042 0-.125-1.115-4.177-1.114-4.052-3.344-12.073-4.469-16.125s-1.145-4.136-1.197-4.25c-.053-.115-.136-.261-.313-.323z" stroke="#000"/><path d="m188.627 177.876c-7.75-31.484-20.666-83.8454-27.041-110.0259-6.375-26.1807-6.209-26.1807-5.125-26.264 1.083-.0833 3.083-.25 4.083-.25s1 .1667 8.917 31.5c7.916 31.3329 23.75 93.8329 31.666 125.0829 7.917 31.25 7.917 31.25 6.823 31.443-1.093.193-3.281.578-4.531.813-1.25.234-1.562.318-3.01-4.945-1.448-5.262-4.032-15.87-11.782-47.354z" fill="#fff" stroke="#000" stroke-width="4"/><path d="m156.544 28.3154c-5.247 0-9.5 3.5166-9.5 7.8542s4.253 7.854 9.5 7.854 9.5-3.5164 9.5-7.854-4.253-7.8542-9.5-7.8542z" stroke-width=".2"/><path d="m158.023 30.2319c-3.555 0-6.437 2.3227-6.437 5.1875 0 2.8649 2.882 5.1875 6.437 5.1875 3.556 0 6.438-2.3226 6.438-5.1875 0-2.8648-2.882-5.1875-6.438-5.1875z" fill="#fff" stroke-width=".2"/></g></svg>