<svg enable-background="new 0 0 38.50 50.00" height="50" viewBox="0 0 38.5 50" width="38.4971" xmlns="http://www.w3.org/2000/svg" xmlns:xlink="http://www.w3.org/1999/xlink"><linearGradient id="a" gradientUnits="objectBoundingBox" x1=".0000154581" x2="1.00002" y1=".00000595093" y2=".00000595093"><stop offset="0" stop-color="#b6eeaf"/><stop offset="1" stop-color="#41733a"/></linearGradient><linearGradient id="b"><stop offset="0" stop-color="#719671"/><stop offset="1" stop-color="#394d39"/></linearGradient><linearGradient id="c" gradientTransform="matrix(0 -1 1 0 -.684246 1.684246)" gradientUnits="objectBoundingBox" x1=".5" x2="1.86849" xlink:href="#b" y1="1.18425" y2="1.18425"/><linearGradient id="d" gradientTransform="matrix(0 -1 1 0 -.771135 1.771135)" gradientUnits="objectBoundingBox" x1=".5" x2="2.04227" xlink:href="#b" y1="1.27113" y2="1.27113"/><linearGradient id="e" gradientTransform="matrix(-.857327606905 -.514771186488 .514771186488 -.857327606905 1.115298431529 2.320878670673)" gradientUnits="objectBoundingBox" x1=".879273" x2="2.14912" y1="1.00588" y2="1.00588"><stop offset="0" stop-color="#bde089"/><stop offset=".990698" stop-color="#f5f3f0"/></linearGradient><radialGradient id="f" cx="18.6233" cy="41.3593" gradientTransform="matrix(.975827410044 .21854259495 -.21854259495 .975827410044 9.488932651763 -3.070215109774)" gradientUnits="userSpaceOnUse" r="3.70985"><stop offset="0" stop-color="#f17e0f" stop-opacity=".568627"/><stop offset=".590698" stop-color="#c0bdb3" stop-opacity=".568627"/><stop offset=".860465" stop-color="#f17e0f" stop-opacity=".568627"/></radialGradient><linearGradient id="g" gradientUnits="objectBoundingBox" x1="-.023809" x2="1.02381" y1=".55" y2=".55"><stop offset=".0139535" stop-color="#f17e0f" stop-opacity=".227451"/><stop offset=".581897" stop-color="#71a846" stop-opacity=".568627"/><stop offset=".860465" stop-color="#f17e0f" stop-opacity=".282353"/></linearGradient><linearGradient id="h" gradientUnits="objectBoundingBox" x1="-.0789457" x2="1.07895" y1=".25532" y2=".25532"><stop offset=".0139535" stop-color="#f17e0f" stop-opacity=".227451"/><stop offset=".581897" stop-color="#8dd258" stop-opacity=".568627"/><stop offset=".860465" stop-color="#f17e0f" stop-opacity=".282353"/></linearGradient><linearGradient id="i"><stop offset=".0139535" stop-color="#f17e0f" stop-opacity=".227451"/><stop offset=".590698" stop-color="#d2b658" stop-opacity=".568627"/><stop offset=".860465" stop-color="#f17e0f" stop-opacity=".282353"/></linearGradient><linearGradient id="j" gradientUnits="objectBoundingBox" x1="-.0750009" x2=".825" xlink:href="#i" y1=".454546" y2=".454546"/><linearGradient id="k" gradientUnits="objectBoundingBox" x1="-.0306135" x2=".785714" xlink:href="#i" y1=".323942" y2=".323942"/><linearGradient id="l" gradientUnits="objectBoundingBox" x1=".0545443" x2=".527273" xlink:href="#i" y1=".051285" y2=".051285"/><linearGradient id="m" gradientUnits="objectBoundingBox" x1=".424243" x2="1.09091" xlink:href="#i" y1=".5" y2=".5"/><linearGradient id="n" gradientUnits="objectBoundingBox" x1="-.250004" x2=".583335" xlink:href="#i" y1=".398147" y2=".398147"/><linearGradient id="o" gradientUnits="objectBoundingBox" x1=".272728" x2=".909091" xlink:href="#i" y1=".630435" y2=".630435"/><g stroke-linejoin="round"><path d="m2.70901 0c-1.5079 0-2.70901 1.2171-2.70901 2.7256v44.5512c0 1.5085 1.20111 2.7232 2.70901 2.7232h33.07909c1.5085 0 2.709-1.2147 2.709-2.7232v-33.4765h-9.9643c-2.0403 0-3.8195-1.4877-3.8195-3.4659v-10.3344m1.8947 0v10.3344c0 .8126.7729 1.5713 1.9248 1.5713h9.9643z" fill="url(#a)"/><path d="m5.94572 11.9217h16.34288c.4649 0 .8375.3725.8375.8374v1.2562c0 .4632-.3726.8375-.8375.8375h-16.34288c-.46255 0-.83746-.3743-.83746-.8375v-1.2562c0-.4649.37491-.8374.83746-.8374z" fill="#4d4d4d"/><path d="m5.94572 25.581h26.60558c.465 0 .8375.3743.8375.8375v1.2562c0 .4649-.3725.8374-.8375.8374h-26.60558c-.46255 0-.83746-.3725-.83746-.8374v-1.2562c0-.4632.37491-.8375.83746-.8375z" fill="#4d4d4d"/><path d="m5.94572 18.751h16.34288c.4649 0 .8375.3749.8375.8375v1.2568c0 .4625-.3726.8374-.8375.8374h-16.34288c-.46255 0-.83746-.3749-.83746-.8374v-1.2568c0-.4626.37491-.8375.83746-.8375z" fill="#4d4d4d"/><path d="m5.94572 32.4104h26.60558c.465 0 .8375.3749.8375.8375v1.2562c0 .4649-.3725.8374-.8375.8374h-26.60558c-.46255 0-.83746-.3725-.83746-.8374v-1.2562c0-.4626.37491-.8375.83746-.8375z" fill="#4d4d4d"/><path d="m5.94572 39.2398h26.60558c.465 0 .8375.3749.8375.8374v1.2562c0 .4649-.3725.8375-.8375.8375h-26.60558c-.46255 0-.83746-.3726-.83746-.8375v-1.2562c0-.4625.37491-.8374.83746-.8374z" fill="#4d4d4d"/><path d="m24.6513 24.5767 12.3535 15.164-19.584 8.461-12.35349-15.164z" fill="url(#d)" stroke="url(#c)" stroke-width="3"/><path d="m24.6076 24.6551 12.0351 15.0506-19.2656 8.3347-12.03512-15.0507z" fill="url(#e)" stroke-width=".2"/><g stroke="#ff7d00" stroke-opacity=".568627" stroke-width="3"><path d="m19.3324 38.7813c1.8846.6545 3.0949 2.3392 2.7032 3.763s-2.2369 2.0474-4.1216 1.393c-1.8846-.6545-3.0948-2.3392-2.7031-3.7629.3916-1.4238 2.2369-2.0475 4.1215-1.3931z" fill="url(#f)"/><path d="m24.7196 26.6686.8211 1.476-.3284 2.952-4.2696 1.2915-1.1495 1.845 4.9264 4.4279 5.4191 1.845-.6569.9225" fill="url(#g)"/><path d="m20.1217 29.4361h-1.9706l-1.1495 2.583v1.845l.9032 2.1217 2.2169 1.1992v.9225" fill="url(#h)"/><path d="m15.031 30.7276-.821 2.0295-2.299.7379-.1642 2.214 2.299.369.5747 2.7675" fill="url(#j)"/><path d="m24.8017 32.7571-.4105 1.2914-.1642 1.6605h1.6421l2.6274-1.6605 1.8064 1.107 1.8063 2.214.1643 1.9373" fill="url(#k)"/><path d="m9.77621 32.3881-1.64213.738-.49264 1.6604 3.44846.738 1.0674 3.69-.8211.369" fill="url(#l)"/><path d="m23.3238 26.9454-1.3137 2.8597-1.3958-.8303" fill="url(#m)"/><path d="m23.6523 39.1223-.3285 3.9667.9853 1.0147" fill="url(#n)"/><path d="m23.9807 34.0485-.6569 1.5683h1.0674l-1.8063-1.107.5747-1.0148" fill="url(#o)"/></g></g></svg>