<svg enable-background="new 0 0 258.00 258.00" height="258" viewBox="0 0 258 258" width="258" xmlns="http://www.w3.org/2000/svg"><g stroke-linejoin="round"><path d="m129.72 43.876c50.12 0 90.75 28.2059 90.75 63 0 14.918-7.469 28.625-19.953 39.417l-4.548 5.083-10 7-7 11.5-7 14-7.5 10.5-5-1-1.499-9-1.261-17.333c-8.526 1.841-17.591 2.833-26.989 2.833-50.12 0-90.7502-28.206-90.7502-63 0-34.7941 40.6302-63 90.7502-63z" fill="#a9090b" stroke="#000" stroke-width="5"/><g fill="#e4e4e1" stroke="#fff" stroke-width="2"><path d="m100.37 119.039c0 5.672-1.6194 10.065-4.8593 13.179-3.2397 3.114-7.931 4.671-14.0741 4.671-4.0585 0-7.2756-.55-9.6511-1.65v-7.455c3.1006 1.618 6.2271 2.428 9.3794 2.428 3.1394 0 5.5718-.89 7.2966-2.67 1.7251-1.78 2.5878-4.2 2.5878-7.261v-2.561h-.1166c-2.1555 3.472-5.3337 5.207-9.5348 5.207-3.8968 0-6.9908-1.351-9.2823-4.054s-3.4373-6.328-3.4373-10.874c0-5.097 1.2737-9.1434 3.8207-12.1406 2.5473-2.9972 5.9019-4.4957 10.0641-4.4957 3.7221 0 6.5087 1.4607 8.3599 4.3819h.1263v-3.7749h9.3207zm-9.2041-11.315v-2.333c0-1.866-.5569-3.456-1.6702-4.771-1.1134-1.3154-2.56-1.9731-4.3401-1.9731-2.0326 0-3.6298.7872-4.7917 2.3621-1.1619 1.574-1.7429 3.793-1.7429 6.658 0 2.453.5519 4.396 1.6555 5.828 1.1035 1.432 2.6135 2.148 4.5295 2.148 1.8966 0 3.4307-.725 4.6023-2.176 1.1717-1.451 1.7576-3.366 1.7576-5.743z"/><path d="m113.731 87.1136c-1.547 0-2.814-.4726-3.801-1.4179s-1.481-2.1072-1.481-3.4856c0-1.4101.494-2.564 1.481-3.4619.987-.898 2.254-1.3468 3.801-1.3468 1.566 0 2.838.4488 3.816 1.3468.977.8979 1.466 2.0518 1.466 3.4619 0 1.4353-.489 2.6113-1.466 3.5283-.978.9168-2.25 1.3752-3.816 1.3752zm4.661 35.2064h-9.322v-30.3503h9.322z"/><path d="m156.298 119.039c0 5.672-1.62 10.065-4.86 13.179s-7.931 4.671-14.074 4.671c-4.059 0-7.276-.55-9.651-1.65v-7.455c3.1 1.618 6.227 2.428 9.379 2.428 3.14 0 5.572-.89 7.297-2.67s2.588-4.2 2.588-7.261v-2.561h-.117c-2.156 3.472-5.334 5.207-9.535 5.207-3.897 0-6.991-1.351-9.282-4.054-2.292-2.703-3.437-6.328-3.437-10.874 0-5.097 1.273-9.1434 3.82-12.1406 2.548-2.9972 5.902-4.4957 10.064-4.4957 3.722 0 6.509 1.4607 8.36 4.3819h.127v-3.7749h9.321zm-9.205-11.315v-2.333c0-1.866-.557-3.456-1.67-4.771-1.113-1.3154-2.56-1.9731-4.34-1.9731-2.033 0-3.63.7872-4.792 2.3621-1.162 1.574-1.743 3.793-1.743 6.658 0 2.453.552 4.396 1.656 5.828 1.103 1.432 2.613 2.148 4.529 2.148 1.897 0 3.431-.725 4.603-2.176 1.171-1.451 1.757-3.366 1.757-5.743z"/><path d="m191.097 122.32h-9.321v-4.524h-.127c-2.103 3.421-5.217 5.131-9.34 5.131-3.043 0-5.436-.829-7.18-2.489-1.745-1.66-2.617-3.875-2.617-6.644 0-5.849 3.602-9.226 10.807-10.13l8.515-1.091c0-3.0219-1.855-4.5331-5.564-4.5331-3.735 0-7.285 1.0117-10.651 3.0351v-7.1325c1.353-.6829 3.206-1.2836 5.559-1.802 2.353-.5186 4.494-.7778 6.423-.7778 8.997 0 13.496 4.2998 13.496 12.8993zm-9.263-12.301v-1.982l-5.806.692c-3.211.379-4.816 1.71-4.816 3.993 0 1.031.39 1.876 1.17 2.537s1.836.991 3.17.991c1.858 0 3.369-.588 4.534-1.764s1.748-2.665 1.748-4.467z"/></g></g></svg>