<svg enable-background="new 0 0 258.00 258.00" height="258" viewBox="0 0 258 258" width="258" xmlns="http://www.w3.org/2000/svg" xmlns:xlink="http://www.w3.org/1999/xlink"><linearGradient id="a" gradientTransform="matrix(0 -1 1 0 -.581108 1.581108)" gradientUnits="objectBoundingBox" x1=".5" x2="1.66222" y1="1.08111" y2="1.08111"><stop offset="0" stop-color="#abc4ab"/><stop offset=".771552" stop-color="#d5e1d5"/><stop offset="1" stop-color="#fff"/></linearGradient><path d="m44 4h170c22.091 0 40 17.9084 40 40v170c0 22.092-17.909 40-40 40h-170c-22.0914 0-40-17.908-40-40v-170c0-22.0916 17.9086-40 40-40z" fill="url(#a)" stroke="#000" stroke-linecap="square" stroke-linejoin="bevel" stroke-width="8"/><g stroke-linejoin="round"><path d="m153.146 97.25 21.333 22.333 13.334-14.833-21.667-19z" fill="#fff" fill-rule="evenodd" stroke-width="5"/><path d="m183.457 110.408c7.016 10.881 11.087 23.832 11.087 37.731 0 38.568-31.34 69.834-70 69.834-38.6598 0-69.9999-31.266-69.9999-69.834 0-38.567 31.3402-69.8328 69.9999-69.8328 13.462 0 26.037 3.7912 36.71 10.362m-5.918 6.763 24.75-24.7503-.667-4.9997 1-5.1668 3.25-3.4167 7.333-1.1665 7.25 2.1665 5.667 5 6.333 6.8335 4 4.9165 1.75 4.5835-.167 4.8332-1.666 5.9168-5.084 1.5832-7.249 1.4165-2.667.3335-4.583 4.9168-7.667 7.5828-11.667 11" fill="#fff" fill-rule="evenodd" stroke="#000" stroke-width="5"/><path d="m180.971 69.1707 4.312 6.0835 4.761 4.927 5.562 5.25 6.625 3.5 6.407 1.802" fill="none" stroke="#000" stroke-width="3"/><path d="m188.284 135.582c1.425-.081 3.512-1.213 3.612 12.283.278 37.399-30.187 67.718-67.423 67.718-36.3158 0-65.9255-28.836-67.3686-64.955 3.9679-.274 7.9361-.549 9.9201-.686 1.9842-.138 1.9842-.138 2.1448 1.209.1604 1.347.4816 4.04 1.0703 7.057.5884 3.017 1.4446 6.357 2.9964 9.994 1.5517 3.636 3.7993 7.569 6.8762 11.583 3.0769 4.013 6.983 8.108 10.2737 10.882 3.291 2.774 5.9668 4.229 8.0804 5.199 2.1137.969 3.6657 1.454 4.4417 1.697.776.242.776.242.562-.189-.215-.431-.642-1.293-1.766-2.693-1.124-1.401-2.9433-3.341-5.1641-5.953-2.2206-2.613-4.8426-5.9-7.1704-9.482-2.3276-3.583-4.3611-7.462-5.6186-11.664-1.2576-4.202-1.7391-8.727-1.9266-12.31-.1871-3.582-.0802-6.222-.0266-7.542.0535-1.32.0535-1.32 1.7122-1.562 1.6589-.243 4.9768-.728 11.7458-1.697 6.7693-.97 16.9893-2.425 27.1833-3.556s20.361-1.939 27.207-2.441 10.371-.697 16.257-1.128c5.887-.431 14.134-1.098 22.381-1.764z" fill="#97d324" stroke-width="5"/><path d="m168.479 95.9165c2.578 0 4.667 1.8657 4.667 4.1665 0 2.302-2.089 4.167-4.667 4.167-2.577 0-4.666-1.865-4.666-4.167 0-2.3008 2.089-4.1665 4.666-4.1665z" fill="#96d224" stroke-width=".2"/><path d="m154.979 142.667c4.188 0 7.584 3.432 7.584 7.666s-3.396 7.667-7.584 7.667-7.583-3.433-7.583-7.667 3.395-7.666 7.583-7.666z" fill="#fff" stroke-width=".2"/><path d="m161.646 173.833c2.807 0 5.083 2.164 5.083 4.834 0 2.669-2.276 4.833-5.083 4.833s-5.083-2.164-5.083-4.833c0-2.67 2.276-4.834 5.083-4.834z" fill="#fff" stroke-width=".2"/><path d="m144.646 190.833c3.544 0 6.417 2.687 6.417 6 0 3.314-2.873 6-6.417 6s-6.417-2.686-6.417-6c0-3.313 2.873-6 6.417-6z" fill="#fff" stroke-width=".2"/><path d="m162.563 116.167c3.682 0 6.666 2.873 6.666 6.416 0 3.544-2.984 6.417-6.666 6.417s-6.667-2.873-6.667-6.417c0-3.543 2.985-6.416 6.667-6.416z" fill="#96d224" stroke-width=".2"/></g></svg>