<svg enable-background="new 0 0 258.00 258.00" height="258" viewBox="0 0 258 258" width="258" xmlns="http://www.w3.org/2000/svg" xmlns:xlink="http://www.w3.org/1999/xlink"><linearGradient id="a" gradientTransform="matrix(.296907171134 .954906347099 -.954906347099 .296907171134 -.084017933741 -.657188945114)" gradientUnits="objectBoundingBox" x1=".404272" x2="2.18571" y1="-.385649" y2="-.385649"><stop offset="0" stop-color="#5b5b5b"/><stop offset=".275862" stop-color="#656565" stop-opacity=".996078"/><stop offset=".383621" stop-color="#f7f7f7"/><stop offset=".396552" stop-color="#fefefe" stop-opacity=".0666667"/><stop offset="1" stop-color="#fff" stop-opacity="0"/></linearGradient><g stroke-linejoin="round"><g fill="#fff"><path d="m41.0968 103.371c0 18.38-.1667 53.715.0417 71.843.2083 18.128.7918 19.049 1.792 20.137 1.0002 1.089 2.4172 2.345 4.0425 3.266 1.6254.921 3.4591 1.507 10.6689.544s19.7957-3.475 35.3823-6.991c15.5868-3.517 34.1738-8.039 53.4698-12.602 19.295-4.564 39.299-9.169 50.343-11.848 11.044-2.68 13.128-3.433 14.462-3.936 1.333-.502 1.917-.753 2.458-1.423.542-.67 1.042-1.759 1.209-18.714.167-16.956 0-49.7795-.167-66.4004-.166-16.621-.333-17.0398-2.042-18.3794-1.708-1.3397-4.959-3.6004-7.21-5.1914-2.25-1.5911-3.5-2.5121-5.542-3.0561-2.042-.5444-4.876-.7118-9.211-.2933-4.334.4187-10.168 1.4236-29.089 4.8984-18.921 3.4749-50.927 9.4199-72.1399 13.439-21.2127 4.0193-31.6315 6.1126-37.9661 8.0385-6.3347 1.9258-8.5851 3.6842-9.627 5.275-1.0419 1.5911-.8752 3.0146-.8752 21.3937z" stroke-width=".2"/><path d="m45.0273 106.915c0 16.445-.1576 48.063.0394 64.283.197 16.221.7486 17.045 1.6942 18.019s2.2852 2.098 3.8218 2.922 3.2701 1.349 10.0863.487 18.715-3.109 33.4505-6.256 32.3075-7.192 50.5505-11.276c18.242-4.083 37.154-8.204 47.595-10.601 10.441-2.398 12.411-3.072 13.671-3.522 1.261-.449 1.813-.674 2.325-1.273.512-.6.985-1.574 1.143-16.746.157-15.171 0-44.5408-.158-59.4129-.158-14.8723-.315-15.2468-1.931-16.4456-1.615-1.1988-4.688-3.2216-6.816-4.6452-2.127-1.4236-3.309-2.2476-5.24-2.7346s-4.61-.6369-8.707-.2623c-4.098.3746-9.614 1.2737-27.501 4.3829-17.888 3.1093-48.147 8.4289-68.2017 12.0251-20.0545 3.5963-29.9045 5.4694-35.8933 7.1925-5.9887 1.7233-8.1163 3.2968-9.1013 4.7202-.985 1.4235-.8274 2.6973-.8274 19.1429z" fill-opacity=".517647" stroke="#7a7777" stroke-opacity=".517647" stroke-width="15"/><path d="m86.0426 178.316c8.6285-9.628 27.8554-28.883 38.7694-40.009s13.514-14.123 17.218-15.996c3.703-1.873 8.51-2.622 12.962-2.023 4.453.6 8.55 2.548 17.021 8.167s21.315 14.91 28.013 20.304 7.25 6.893 7.526 8.017.276 1.873-.355 2.734c-.63.862-1.891 1.836-21.591 6.406s-57.839 12.737-78.288 17.008c-20.448 4.27-23.206 4.645-25.57 4.832-2.364.188-4.334.188 4.2946-9.44z" fill-opacity=".517647" stroke="#7a7777" stroke-opacity=".517647" stroke-width="15"/><path d="m48.6915 88.7086c1.2214 1.2363 5.7129 1.9106 9.1013 2.8844 3.3884.9742 5.6736 2.2479 8.7074 3.7837 3.0338 1.5359 6.8162 3.334 16.745 8.2413 9.9287 4.908 26.0038 12.924 36.9178 18.469 10.914 5.544 16.666 8.616 20.961 10.863 4.294 2.248 7.131 3.672 9.692 4.271s4.846.374 7.053.187c2.206-.187 4.334-.337 6.185-1.198 1.852-.862 3.428-2.435 4.925-4.458 1.498-2.023 2.916-4.496 8.432-14.273 5.516-9.778 15.129-26.8598 20.173-36.7497 5.043-9.8897 5.516-12.5869 5.437-14.4225s-.709-2.8096-1.931-3.9335c-1.221-1.1238-3.034-2.3974-6.107-3.0343-3.073-.6368-7.407-.6368-29.904 3.1093-22.498 3.7462-63.158 11.2384-85.104 15.4341-21.9458 4.1955-25.1766 5.0947-27.8164 6.4433-2.6397 1.3486-4.6885 3.1467-3.4671 4.3829z" fill-opacity=".517647" stroke="#7a7777" stroke-opacity=".517647" stroke-width="15"/></g><path d="m83.926 184.571c9.125-10.708 29.458-32.125 41-44.5s14.292-15.708 18.208-17.792c3.917-2.083 9-2.916 13.709-2.25 4.708.667 9.041 2.834 18 9.084 8.958 6.25 22.541 16.583 29.625 22.583 7.083 6 7.666 7.667 7.958 8.917s.292 2.083-.375 3.041c-.667.959-2 2.042-22.833 7.125-20.834 5.084-61.167 14.167-82.792 18.917s-24.5417 5.167-27.0417 5.375-4.5833.208 4.5417-10.5z" fill="none" stroke="#000" stroke-width="5"/><path d="m47.9684 91.0137c1.2504 1.3311 5.8488 2.0571 9.3178 3.106 3.469 1.0485 5.8086 2.4201 8.9145 4.0739 3.106 1.6538 6.9783 3.5904 17.1432 8.8744 10.165 5.284 26.6221 13.916 37.7961 19.886 11.173 5.97 17.062 9.277 21.459 11.698 4.397 2.42 7.301 3.953 9.923 4.598 2.622.646 4.961.403 7.22.202 2.259-.202 4.437-.363 6.333-1.291s3.509-2.622 5.042-4.8 2.985-4.841 8.632-15.369c5.648-10.527 15.49-28.9212 20.653-39.5701s5.647-13.5532 5.566-15.5298c-.08-1.9764-.726-3.0252-1.976-4.2353-1.251-1.2102-3.106-2.5816-6.252-3.2674-3.147-.6856-7.584-.6856-30.616 3.3481-23.033 4.0336-64.66 12.101-87.128 16.6187-22.4677 4.5179-25.7754 5.4859-28.478 6.938-2.7025 1.4522-4.8001 3.3882-3.5496 4.7195z" fill="#fff" stroke="url(#a)" stroke-width="12"/><path d="m40.551 105.154c0 18.292-.1667 53.459.0416 71.5.2084 18.042.7917 18.959 1.7917 20.042s2.4167 2.333 4.0417 3.25 3.4583 1.5 10.6666.542c7.2084-.959 19.7917-3.459 35.375-6.959 15.5834-3.5 34.1664-8 53.4584-12.541 19.292-4.542 39.292-9.125 50.333-11.792 11.042-2.667 13.125-3.417 14.459-3.917 1.333-.5 1.916-.75 2.458-1.416.542-.667 1.042-1.75 1.208-18.625.167-16.875 0-49.5419-.166-66.0836-.167-16.5416-.334-16.9583-2.042-18.2916-1.708-1.3334-4.958-3.5834-7.208-5.1667s-3.5-2.5-5.542-3.0417c-2.042-.5416-4.875-.7083-9.208-.2916-4.334.4166-10.167 1.4166-29.084 4.875-18.916 3.4583-50.916 9.375-72.1247 13.375-21.2083 4-31.625 6.0833-37.9583 8-6.3334 1.9166-8.5834 3.6666-9.625 5.25-1.0417 1.5833-.875 3-.875 21.2912z" fill="none" stroke="#000" stroke-width="5"/><path d="m44.426 84.9044c1.2916 1.375 6.0416 2.125 9.625 3.2084 3.5833 1.0833 6 2.5 9.2083 4.2083s7.2083 3.7083 17.7083 9.1669c10.5 5.458 27.5004 14.375 39.0414 20.541 11.542 6.167 17.625 9.584 22.167 12.084s7.542 4.083 10.25 4.75c2.708.666 5.125.416 7.458.208 2.334-.208 4.584-.375 6.542-1.333 1.958-.959 3.625-2.709 5.208-4.959 1.584-2.25 3.084-5 8.917-15.875s16-29.8746 21.333-40.8746c5.334-11 5.834-14 5.75-16.0416-.083-2.0417-.75-3.125-2.041-4.375-1.292-1.25-3.209-2.6667-6.459-3.375-3.25-.7084-7.833-.7084-31.625 3.4583-23.791 4.1667-66.791 12.5-89.9997 17.1667-23.2083 4.6666-26.625 5.6666-29.4167 7.1666-2.7916 1.5-4.9583 3.5-3.6666 4.875z" fill="none" stroke="#000" stroke-width="5"/></g></svg>