<svg enable-background="new 0 0 61.80 53.23" height="53.2278" viewBox="0 0 61.8 53.23" width="61.798" xmlns="http://www.w3.org/2000/svg" xmlns:xlink="http://www.w3.org/1999/xlink"><linearGradient id="a" gradientTransform="matrix(.304883580999 .952389627221 -.952389627221 .304883580999 -.146433917622 -.691744651921)" gradientUnits="objectBoundingBox" x1=".400668" x2="2.30334" y1="-.446188" y2="-.446188"><stop offset="0" stop-color="#5b5b5b"/><stop offset=".275862" stop-color="#656565" stop-opacity=".996078"/><stop offset=".383621" stop-color="#f7f7f7"/><stop offset=".396552" stop-color="#fefefe" stop-opacity=".0666667"/><stop offset="1" stop-color="#fff" stop-opacity="0"/></linearGradient><g stroke-linejoin="round"><path d="m1.20728 18.6954c0 6.3179-.0573 18.4644.01433 24.696.07163 6.2315.27219 6.5481.61601 6.9222.34382.3743.8309.8059 1.38961 1.1226.5587.3166 1.18904.518 3.66741.1871 2.47837-.3311 6.80476-1.1945 12.16266-2.4035 5.3578-1.2088 11.7471-2.7631 18.38-4.3317 6.6329-1.5688 13.5093-3.1518 17.3056-4.0728 3.7963-.9211 4.5126-1.1802 4.9711-1.3529.4584-.1727.659-.259.8452-.4893s.3581-.6044.4154-6.4329c.0573-5.8287 0-17.1116-.0573-22.82499-.0573-5.71338-.1146-5.85742-.7019-6.31787-.5874-.46057-1.7048-1.23767-2.4784-1.78455-.7736-.54687-1.2034-.863522-1.9053-1.050656-.702-.187012-1.6762-.244629-3.166-.100708-1.4899.143921-3.4955.48938-9.9995 1.683834-6.5039 1.19446-17.5061 3.23816-24.798 4.61975-7.2918 1.3816-10.87328 2.10108-13.0508 2.76307-2.17753.66202-2.95113 1.26652-3.30927 1.81332-.35815.5469-.30085 1.0362-.30085 7.354z" fill="#fff" stroke-width=".2"/><g stroke-width="2"><path d="m2.55837 19.9137c0 5.6531-.05417 16.5215.01355 22.0973s.25733 5.8591.58237 6.194c.32506.3348.78554.7211 1.31374 1.0044.52821.2833 1.12413.4636 3.46718.1674 2.34309-.2961 6.43329-1.0688 11.49859-2.1505 5.0653-1.0816 11.1058-2.4725 17.3765-3.8761 6.2707-1.4035 12.7717-2.82 16.3608-3.6443 3.589-.8241 4.2662-1.0559 4.6996-1.2104.4334-.1546.623-.2317.7991-.4378.1761-.206.3386-.5409.3928-5.7562.0541-5.2152 0-15.311-.0542-20.4232-.0542-5.11231-.1084-5.24109-.6637-5.6532-.5552-.41199-1.6116-1.10742-2.343-1.5968-.7314-.48926-1.1377-.77259-1.8013-.93995-.6636-.16748-1.5846-.21899-2.9932-.09021-1.4085.12879-3.3046.43787-9.4534 1.50672-6.1489 1.06872-16.5504 2.89734-23.4441 4.13354-6.8938 1.2362-10.27968 1.8801-12.33832 2.4724s-2.79 1.1332-3.12859 1.6226c-.33859.4892-.28442.9271-.28442 6.5803z" fill="#fff" fill-opacity=".517647" stroke="#7a7777" stroke-opacity=".517647"/><path d="m16.6573 44.4576c2.9661-3.3094 9.5754-9.9283 13.327-13.7529 3.7516-3.8245 4.6455-4.8547 5.9186-5.4985s2.9254-.9014 4.4559-.6953c1.5304.206 2.9389.8756 5.8508 2.8071 2.9119 1.9316 7.3272 5.1252 9.6296 6.9795 2.3024 1.8544 2.492 2.3694 2.5868 2.7557.0948.3864.0948.6439-.1219.9401-.2167.2961-.6501.631-7.4219 2.202-6.7718 1.5711-19.8821 4.3783-26.9113 5.8463-7.0291 1.468-7.9772 1.5967-8.7898 1.6612-.8126.0644-1.4898.0644 1.4762-3.2452z" fill="#fff" fill-opacity=".517647" stroke="#7a7777" stroke-opacity=".517647"/><path d="m3.81794 13.6553c.41985.4249 1.96383.6567 3.12858.9916 1.16476.3347 1.95029.7725 2.99316 1.3005 1.04282.5281 2.34302 1.1461 5.75602 2.833 3.413 1.687 8.9389 4.4426 12.6905 6.3485s5.7289 2.9618 7.2052 3.7345c1.4762.7726 2.4514 1.262 3.3317 1.4679.8804.2061 1.6659.1288 2.4243.0645.7585-.0645 1.4898-.116 2.1264-.4122.6366-.2961 1.1783-.837 1.693-1.5323.5146-.6954 1.0022-1.5453 2.8983-4.9063 1.8961-3.3609 5.2008-9.233 6.9344-12.6325 1.7336-3.39968 1.8961-4.32681 1.869-4.95779s-.2438-.96582-.6636-1.35217c-.4199-.38635-1.0429-.8241-2.0993-1.04309-1.0564-.21887-2.5462-.21887-10.2797 1.06885-7.7334 1.28772-21.7105 3.86328-29.2543 5.30542-7.54382 1.44228-8.6544 1.75138-9.56182 2.21498-.90743.4635-1.6117 1.0816-1.19184 1.5066z" fill="#fff" fill-opacity=".517647" stroke="#7a7777" stroke-opacity=".517647"/><path d="m15.9298 46.6079c3.1367-3.681 10.1263-11.043 14.0937-15.2967 3.9674-4.2539 4.9128-5.3998 6.2591-6.116 1.3464-.7161 3.0937-1.0026 4.7122-.7734s3.1081.974 6.1875 3.1224 7.7487 5.7006 10.1836 7.7629c2.4349 2.0625 2.6354 2.6354 2.7356 3.0651.1003.4297.1003.7162-.1289 1.0456-.2291.3294-.6875.7018-7.8489 2.4493-7.1614 1.7473-21.026 4.8697-28.4595 6.5025-7.4336 1.6328-8.4362 1.776-9.2956 1.8477-.8594.0716-1.5755.0716 1.5612-3.6094z" fill="none" stroke="#000"/><path d="m3.5694 14.4476c.42984.4576 2.01054.7072 3.203 1.0677 1.19246.3606 1.99667.832 3.06434 1.4005 1.06766.5685 2.39876 1.234 5.89296 3.0504s9.1514 4.7837 12.9923 6.8359c3.8408 2.052 5.8652 3.1891 7.3766 4.021 1.5113.8321 2.5097 1.3589 3.4109 1.5808.9013.2218 1.7055.1386 2.482.0692.7765-.0692 1.5253-.1247 2.177-.4437.6517-.3188 1.2063-.9012 1.7332-1.6499.5269-.7488 1.0261-1.6639 2.9673-5.2829 1.9412-3.6189 5.3244-9.9418 7.0993-13.6023 1.7748-3.66068 1.9412-4.65897 1.9134-5.33842-.0277-.67944-.2496-1.03991-.6794-1.45593-.4298-.41589-1.0677-.88733-2.1492-1.12317-1.0815-.23559-2.6068-.23559-10.5241 1.15088-7.9174 1.3866-22.2269 4.15979-29.9502 5.71274-7.72321 1.553-8.8602 1.8858-9.78921 2.3849-.92901.4993-1.65003 1.1648-1.22019 1.6223z" fill="#fff" stroke="url(#a)"/><path d="m1.01969 19.3085c0 6.2878-.057288 18.3762.01433 24.5781.07161 6.2018.27213 6.5168.61588 6.8893.34375.3724.83073.8021 1.38932 1.1172.55859.315 1.1888.5156 3.66665.1861 2.47786-.3293 6.80333-1.1887 12.16013-2.3918 5.3567-1.2031 11.7447-2.75 18.3762-4.3113 6.6315-1.5612 13.5065-3.1367 17.3021-4.0533 3.7955-.9167 4.5117-1.1745 4.97-1.3464.4583-.1718.6589-.2578.8451-.487.1862-.2291.358-.6016.4153-6.4022.0573-5.8008 0-17.0299-.0573-22.7162-.0573-5.68606-.1146-5.82937-.7018-6.28763-.5872-.45837-1.7044-1.23181-2.4779-1.77612-.7734-.54419-1.2031-.85937-1.9049-1.04553s-1.6758-.24353-3.1654-.10022c-1.4895.14319-3.4947.48694-9.9973 1.67578-6.5026 1.18872-17.5026 3.22266-24.7929 4.59753-7.2903 1.375-10.87106 2.09119-13.04814 2.74999s-2.95052 1.2604-3.30859 1.8047c-.358068.5443-.30078 1.0313-.30078 7.319z" fill="none" stroke="#000"/><path d="m2.35172 12.3475c.44401.4727 2.07682.7305 3.30859 1.1029 1.23176.3725 2.06249.8594 3.16535 1.4467 1.10286.5872 2.47784 1.2747 6.08724 3.151 3.6093 1.8763 9.4531 4.9414 13.4205 7.0612s6.0586 3.2943 7.6198 4.1536c1.5612.8594 2.5924 1.4037 3.5234 1.6329.931.2291 1.7617.1431 2.5638.0716.8021-.0716 1.5755-.1289 2.2487-.4584.6732-.3294 1.2461-.931 1.7903-1.7044.5443-.7735 1.0599-1.7188 3.0651-5.4571 2.0052-3.7382 5.5-10.2695 7.3334-14.05075 1.8333-3.78112 2.0052-4.81237 1.9765-5.51416-.0286-.7019-.2578-1.07422-.7018-1.5039-.444-.42969-1.1029-.91675-2.2201-1.16016-1.1171-.24353-2.6927-.24353-10.871 1.18872-8.1784 1.43237-22.9596 4.29688-30.9374 5.901-7.97786 1.60413-9.15233 1.94785-10.11197 2.46355-.95963.5156-1.70442 1.2031-1.26041 1.6757z" fill="none" stroke="#000"/></g></g></svg>