<svg enable-background="new 0 0 63.00 63.22" height="63.2168" viewBox="0 0 63 63.22" width="63" xmlns="http://www.w3.org/2000/svg"><g stroke-linejoin="round"><path d="m38.1419 16.8546 7.9277 8.2995 4.9549-5.5124-8.0516-7.0605z" fill="#fff" fill-rule="evenodd" stroke-width="5"/><path d="m49.4056 21.7444c2.6074 4.0434 4.1202 8.8563 4.1202 14.0216 0 14.3323-11.6464 25.9508-26.0129 25.9508s-26.01288-11.6185-26.01288-25.9508 11.64638-25.95106 26.01288-25.95106c5.0028 0 9.6757 1.40886 13.6418 3.85066m-2.1992 2.5132 9.1975-9.19748-.2478-1.85803.3716-1.92004 1.2078-1.26966 2.7251-.43347 2.6942.80518 2.1058 1.85791 2.3535 2.53943 1.4865 1.82702.6503 1.70334-.0619 1.7962-.6194 2.1986-1.889.5884-2.6942.5265-.991.1237-1.7032 1.8272-2.849 2.8181-4.3355 4.0876" fill="#fff" fill-rule="evenodd" stroke="#000" stroke-width="3"/><path d="m48.482 6.42004 1.6026 2.26075 1.7691 1.83081 2.067 1.951 2.462 1.3007 2.3806.6697" fill="none" stroke="#000" stroke-width="2"/><path d="m51.1997 31.0992c.5295-.03 1.3049-.4504 1.3422 4.5646.1032 13.8978-11.2177 25.1651-25.0555 25.1651-13.4952 0-24.49858-10.716-25.03492-24.1381 1.47458-.1021 2.94925-.2041 3.68654-.2551.7373-.0512.7373-.0512.79699.4494.05962.5005.17891 1.5015.39769 2.6226.21871 1.1211.53687 2.3623 1.11356 3.7136.57663 1.3513 1.41186 2.8128 2.55524 4.3043 1.1434 1.4916 2.595 3.0131 3.8179 4.0441 1.223 1.031 2.2173 1.5715 3.0027 1.9319.7855.3603 1.3622.5405 1.6505.6306.2884.0901.2884.0901.2088-.0701-.0795-.1601-.2386-.4804-.6562-1.0009-.4176-.5206-1.0937-1.2413-1.9189-2.2122s-1.7996-2.1921-2.6647-3.5236c-.8649-1.3314-1.6206-2.7728-2.0879-4.3343s-.6462-3.2432-.7159-4.5745c-.0696-1.3314-.0298-2.3124-.01-2.8028.02-.4906.02-.4906.6364-.5807s1.8494-.2703 4.3648-.6306c2.5156-.3604 6.3136-.9009 10.1018-1.3213s7.5664-.7207 10.1104-.9071c2.5441-.1864 3.8541-.2589 6.0414-.4191 2.1875-.1602 5.2523-.408 8.3171-.6558z" fill="#97d324" stroke-width="5"/><g stroke-width=".2"><path d="m43.84 16.3593c.9577 0 1.7342.6932 1.7342 1.5483 0 .8552-.7765 1.5483-1.7342 1.5483-.9578 0-1.7342-.6931-1.7342-1.5483 0-.8551.7764-1.5483 1.7342-1.5483z" fill="#96d224"/><path d="m38.8232 33.7321c1.5563 0 2.818 1.2756 2.818 2.8491s-1.2617 2.849-2.818 2.849c-1.5564 0-2.8181-1.2755-2.8181-2.849s1.2617-2.8491 2.8181-2.8491z" fill="#fff"/><path d="m41.3006 45.3141c1.0433 0 1.889.8041 1.889 1.7961s-.8457 1.7962-1.889 1.7962-1.889-.8042-1.889-1.7962.8457-1.7961 1.889-1.7961z" fill="#fff"/><path d="m34.9831 51.6315c1.3169 0 2.3845.9983 2.3845 2.2297 0 1.2315-1.0676 2.2296-2.3845 2.2296s-2.3845-.9981-2.3845-2.2296c0-1.2314 1.0676-2.2297 2.3845-2.2297z" fill="#fff"/><path d="m41.6413 23.8844c1.3682 0 2.4774 1.0676 2.4774 2.3845s-1.1092 2.3845-2.4774 2.3845c-1.3683 0-2.4775-1.0676-2.4775-2.3845s1.1092-2.3845 2.4775-2.3845z" fill="#96d224"/></g></g></svg>