<svg enable-background="new 0 0 258.00 258.00" height="258" viewBox="0 0 258 258" width="258" xmlns="http://www.w3.org/2000/svg" xmlns:xlink="http://www.w3.org/1999/xlink"><linearGradient id="a" gradientTransform="matrix(0 -1 1 0 -.581108 1.581108)" gradientUnits="objectBoundingBox" x1=".5" x2="1.66222" y1="1.08111" y2="1.08111"><stop offset="0" stop-color="#abc4ab"/><stop offset=".771552" stop-color="#d5e1d5"/><stop offset="1" stop-color="#fff"/></linearGradient><linearGradient id="b" gradientTransform="matrix(-.966395140898 .257061143792 -.257061143792 -.966395140898 2.065211685697 .614896855393)" gradientUnits="objectBoundingBox" x1=".992414" x2="1.98393" y1=".442438" y2=".442438"><stop offset=".00925926" stop-color="#fff"/><stop offset="1" stop-color="#fcfcff" stop-opacity="0"/></linearGradient><linearGradient id="c"><stop offset=".00925926" stop-color="#fff"/><stop offset="1" stop-color="#fff" stop-opacity="0"/></linearGradient><linearGradient id="d" gradientTransform="matrix(-.968599743862 .24862529274 -.24862529274 -.968599743862 2.063126231446 .620166437066)" gradientUnits="objectBoundingBox" x1=".992401" x2="1.9844" xlink:href="#c" y1=".440365" y2=".440365"/><linearGradient id="e" gradientTransform="matrix(-.940434384383 .339975247143 -.339975247143 -.940434384383 2.119009965461 .542379285576)" gradientUnits="objectBoundingBox" x1="1.01199" x2="2.01995" xlink:href="#c" y1=".456821" y2=".456821"/><path d="m44.0001 4h169.9999c22.091 0 40 17.9086 40 39.9999v170.0001c0 22.091-17.909 40-40 40h-169.9999c-22.0915 0-40.0001-17.909-40.0001-40v-170.0001c0-22.0913 17.9086-39.9999 40.0001-39.9999z" fill="url(#a)" stroke="#000" stroke-linecap="square" stroke-linejoin="bevel" stroke-width="8"/><g stroke-linejoin="round"><path d="m122.277 179.957c10.493 0 19 8.618 19 19.25 0 10.631-8.507 19.25-19 19.25s-19-8.619-19-19.25c0-10.632 8.507-19.25 19-19.25z" fill="#0025c1" stroke="#000" stroke-width="5"/><path d="m95.777 117.457-17-7.5-9.0001-11.0001-4-10-.5-13 4-10.5 6-9.5 6.5-6.5 11-7.5 8.5001-3.5 11-2 11.5-.5 12-1 11.5 1.5 7.5 3.5 10 5 9 6.5 6.5 7 7 12 1 11-1.5 14-4.5 7.5001-7.5 8-9 10-12 8.5-12 10-6.5 11.5-3.5 8 .272 3.533-.585 3.154-2.875 1.5-10.812-.187-4-3v-9l6.5-10.5 8.5-12.5 11.5-13 4.5-7 4-11.5v-10.5001l-2.5-12-6-6-10-4.5-9-1-7.5.5-9 3-6.0001 5.5v6.5l2.0001 6.5 7.5 5 5 3 1.5 5.0001-1 5.5-3 4-3.5 3.5-6.5 1.5z" fill="#0025c1" stroke="#000" stroke-width="5"/><path d="m141.11 41.4567 11.334 7.6667 9.333 7.3335 8.333 10.3333 3.667 9.3333 1.333 12.3334-2 12.0001-3.333 5.667 4.631 1.546 9.369-12.5465 1.667-9.6666-.334-13-7.202-11.7871-4.464-5.2129-1.667-2.3334-4.667-3-6.666-5-6.667-3-6-1.3333z" fill="url(#b)" stroke-width=".2"/><path d="m97.9436 87.5402-2.9583-2.0417-2.375 5.7082 4 4.3335 3.9997 4.6668 1 5.333-.333 6-.542 2.042 4.417-.75 3.667-2.084 2.833-2.666-.083-3.5.333-3.417-1-2.8331-4.667-3-3.416-2.1667-3.0004-2.1667" fill="url(#d)" stroke-width=".2"/><path d="m123.777 182.79 3.667 4.333 2.333 4.667-.333 6.667-1.334 6.667-2.333 5.666.667 3 3.359-.099 3.834-2.25 3.083-4.167 1.667-4.917s.809-3.712.39-5.233c-.365-1.326-1-5.334-1-5.334l-1.333-4-3.334-3-3-2z" fill="url(#e)" stroke-width=".2"/></g></svg>