<svg enable-background="new 0 0 37.87 56.00" height="56" viewBox="0 0 37.87 56" width="37.8665" xmlns="http://www.w3.org/2000/svg" xmlns:xlink="http://www.w3.org/1999/xlink"><linearGradient id="a" gradientTransform="matrix(-.966395140898 .257061143792 -.257061143792 -.966395140898 2.065206981723 .61489147033)" gradientUnits="objectBoundingBox" x1=".992412" x2="1.98393" y1=".442435" y2=".442435"><stop offset=".00925926" stop-color="#fff"/><stop offset="1" stop-color="#fcfcff" stop-opacity="0"/></linearGradient><linearGradient id="b"><stop offset=".00925926" stop-color="#fff"/><stop offset="1" stop-color="#fff" stop-opacity="0"/></linearGradient><linearGradient id="c" gradientTransform="matrix(-.968600338348 .248622976719 -.248622976719 -.968600338348 2.063142275808 .620156916669)" gradientUnits="objectBoundingBox" x1=".99241" x2="1.98442" xlink:href="#b" y1=".44036" y2=".44036"/><linearGradient id="d" gradientTransform="matrix(-.94043610514 .339970487173 -.339970487173 -.94043610514 2.119019914519 .542387069721)" gradientUnits="objectBoundingBox" x1="1.012" x2="2.01996" xlink:href="#b" y1=".456823" y2=".456823"/><g stroke-linejoin="round"><path d="m17.5845 43.9604c3.1452 0 5.6949 2.5832 5.6949 5.7697 0 3.1866-2.5497 5.7698-5.6949 5.7698-3.1451 0-5.6948-2.5832-5.6948-5.7698 0-3.1865 2.5496-5.7697 5.6948-5.7697z" fill="#d66919" stroke="#000"/><path d="m9.64172 25.2274-5.09539-2.2479-2.69754-3.297-1.198949-2.9973-.149841-3.8965 1.19891-3.14698 1.79834-2.84741 1.94825-1.94824 3.29699-2.24805 2.54771-1.04907 3.297-.599365 3.4469-.149902 3.5967-.299805 3.4469.449707 2.2479 1.049075 2.9973 1.49853 2.6976 1.94824 1.9482 2.09815 2.0981 3.59672.2997 3.2971-.4496 4.196-1.3487 2.2481-2.248 2.3977-2.6975 2.9973-3.5968 2.5478-3.5967 2.9972-1.9482 3.4469-1.0491 2.3977.0815 1.0591-.1751.9455-.8618.4495-3.2408-.0561-1.1989-.8992v-2.6975l1.9482-3.1472 2.5477-3.7466 3.4469-3.8965 1.3488-2.0981 1.1989-3.4468v-3.1472l-.7493-3.5967-1.7984-1.7983-2.9973-1.3489-2.6976-.29982-2.2479.14992-2.6976.8992-1.7983 1.6485v1.9483l.5994 1.9482 2.248 1.4987 1.4986.8991.4496 1.4986-.2997 1.6486-.8992 1.1988-1.049 1.049-1.9483.4498z" fill="#d66919" stroke="#000"/><g stroke-width=".2"><path d="m23.2294 2.44812 3.3969 2.29785 2.7974 2.19812 2.4977 3.09731 1.0991 2.7973.3996 3.6967-.5994 3.5968-.9991 1.6984 1.3879.4635 2.8083-3.7605.4995-2.8975-.0999-3.8964-2.1588-3.53279-1.338-1.5625-.4996-.69946-1.3987-.89917-1.9982-1.49854-1.9982-.89917-1.7984-.39966z" fill="url(#a)"/><path d="m10.2911 16.2606-.88665-.6119-.71188 1.7109 1.19891 1.299 1.19892 1.3987.2997 1.5985-.0999 1.7983-.1623.6119 1.3238-.2248 1.099-.6244.8492-.7992-.025-1.0491.0999-1.0241-.2997-.8492-1.3987-.8991-1.0241-.6494-.8992-.6495" fill="url(#c)"/><path d="m18.0341 44.8097 1.099 1.2988.6993 1.3987-.0999 1.9983-.3996 1.9982-.6994 1.6983.1999.8993 1.007-.0299 1.149-.6743.9241-1.2489.4996-1.4738s.2424-1.1125.1169-1.5686c-.1093-.3972-.2997-1.5986-.2997-1.5986l-.3997-1.1987-.9991-.8993-.8991-.5995z" fill="url(#d)"/></g></g></svg>