<svg enable-background="new 0 0 258.00 258.00" height="258" viewBox="0 0 258 258" width="258" xmlns="http://www.w3.org/2000/svg" xmlns:xlink="http://www.w3.org/1999/xlink"><linearGradient id="a" gradientTransform="matrix(0 -1 1 0 -.581108 1.581108)" gradientUnits="objectBoundingBox" x1=".5" x2="1.66222" y1="1.08111" y2="1.08111"><stop offset="0" stop-color="#abc4ab"/><stop offset=".771552" stop-color="#d5e1d5"/><stop offset="1" stop-color="#fff"/></linearGradient><path d="m44 4.00006h170c22.091 0 40 17.90844 40 39.99984v170.0001c0 22.091-17.909 40-40 40h-170c-22.0914 0-40-17.909-40-40v-170.0001c0-22.0914 17.9086-39.99984 40-39.99984z" fill="url(#a)" stroke="#000" stroke-linecap="square" stroke-linejoin="bevel" stroke-width="8"/><g fill="#7a1111" stroke-linejoin="round" stroke-width=".2"><path d="m45.3286 86.7772c-1.2084-3.5417-1.625-6.8472-1.4861-11.014.1389-4.1666.8333-9.1943 3.9304-12.9582 3.0973-3.7639 8.5973-6.2639 13.2813-6.6077 4.6841-.3437 8.5521 1.4688 11.2153 4.8543 2.6632 3.3854 4.1216 8.3437 5.2049 12.5729 1.0833 4.2291 1.7917 7.7291 2.7083 11.1041.9167 3.375 2.0417 6.625 3.3959 9.9584 1.3541 3.3333 2.9375 6.75 4.427 9.753 1.4896 3.004 2.8855 5.594 3.5835 7.278.6979 1.684.6979 2.462-2.0799 4.795-2.7778 2.334-8.3333 6.222-11.4861 8.32-3.1528 2.097-3.9029 2.403-5.2779 1.833-1.375-.569-3.375-2.014-6.111-5.389-2.7361-3.375-6.2084-8.68-9.0139-12.903-2.8056-4.222-4.9445-7.361-7.014-10.819-2.0694-3.4583-4.0694-7.2361-5.2777-10.7778z"/><path d="m80.8286 131.416c2.8056-2.236 8.0277-6.43 10.9306-8.458 2.9027-2.028 3.486-1.889 4.236-1.222.75.666 1.6667 1.861 3.0973 3.763 1.4305 1.903 3.3745 4.514 4.3335 7.306.958 2.792.93 5.764-.077 8.215-1.007 2.452-2.993 4.382-5.7565 5.368-2.7639.986-6.3056 1.028-8.6181.424s-3.3958-1.854-4.8958-3.688c-1.5-1.833-3.4167-4.25-4.625-5.833-1.2084-1.583-1.7084-2.333-1.764-2.847-.0554-.514.3333-.792 3.139-3.028z"/><path d="m190.494 116.669c-1.431-3.457-3.301-6.215-6.156-9.253-2.855-3.037-6.696-6.355-11.508-7.137-4.811-.7817-10.592.972-14.337 3.807-3.745 2.834-5.453 6.749-5.218 11.05s2.413 8.988 4.392 12.879c1.978 3.892 3.757 6.988 5.297 10.128s2.841 6.324 4.025 9.722c1.184 3.397 2.25 7.009 3.115 10.248.864 3.239 1.526 6.106 2.113 7.832.588 1.725 1.102 2.309 4.728 2.228 3.627-.082 10.367-.829 14.12-1.336 3.752-.506 4.518-.772 5.174-2.107.657-1.336 1.205-3.741 1.032-8.082-.173-4.342-1.069-10.619-1.749-15.642-.681-5.024-1.147-8.794-1.876-12.757-.729-3.964-1.721-8.122-3.152-11.58z"/><path d="m193.305 173.634c-3.584.173-10.275.471-13.794.865-3.519.393-3.866.883-3.989 1.879-.123.995-.023 2.498.159 4.871.182 2.374.446 5.619 1.569 8.348 1.124 2.73 3.107 4.943 5.482 6.12 2.375 1.176 5.141 1.315 7.868.23 2.726-1.084 5.414-3.391 6.752-5.371 1.338-1.981 1.326-3.635 1.242-6.002-.084-2.368-.24-5.448-.378-7.435-.137-1.987-.257-2.881-.555-3.303-.297-.423-.773-.375-4.356-.202z"/></g></svg>