<?xml version="1.0" encoding="utf-8"?>
<!DOCTYPE svg PUBLIC "-//W3C//DTD SVG 1.1//EN" "http://www.w3.org/Graphics/SVG/1.1/DTD/svg11.dtd">
<svg x="0" y="0" width="48" height="48" overflow="hidden" viewBox="0, 0, 48, 48" preserveAspectRatio="xMidYMid"
     font-size="0" id="svg" xml:space="preserve" xmlns="http://www.w3.org/2000/svg"
     xmlns:xml="http://www.w3.org/XML/1998/namespace" version="1.1">
  <g transform="matrix(0.8450738, 0, 0, 0.8571425, 8, 0.000111815)" id="g27" xml:space="preserve">
    <path d="M17.5845 43.9606 C20.7297 43.9606 23.2793 46.5436 23.2793 49.7303 C23.2793 52.9169 20.7297 55.4999 17.5845 55.4999 C14.4393 55.4999 11.8896 52.9169 11.8896 49.7303 C11.8896 46.5436 14.4393 43.9606 17.5845 43.9606 z" stroke="#000000" stroke-linejoin="round" id="path2" xml:space="preserve" connector-curvature="0" style="fill:#0025C1;" />
    <path d="M9.64172 25.2274 L4.54636 22.9796 L1.84875 19.6825 L0.649872 16.6852 L0.5 12.7889 L1.69888 9.64172 L3.49728 6.79431 L5.44553 4.84607 L8.74252 2.59802 L11.2902 1.54895 L14.5872 0.949585 L18.0341 0.799683 L21.6308 0.499878 L25.0776 0.949585 L27.3256 1.99866 L30.3229 3.49719 L33.0204 5.44543 L34.9687 7.54358 L37.0668 11.1403 L37.3665 14.4374 L36.9169 18.6334 L35.5681 20.8815 L33.3201 23.2792 L30.62259 26.2765 L27.02589 28.8243 L23.42909 31.8214 L21.48089 35.2684 L20.43189 37.6661 L20.51339 38.7252 L20.33819 39.6705 L19.47649 40.1202 L16.23569 40.0641 L15.03679 39.1649 L15.03679 36.4674 L16.98499 33.3202 L19.5327 29.5736 L22.9796 25.6771 L24.32829 23.579 L25.52729 20.1322 L25.52729 16.985 L24.7779 13.3883 L22.9796 11.59 L19.9823 10.2411 L17.2847 9.94153 L15.0368 10.0912 L12.3392 10.9904 L10.5409 12.639 L10.5409 14.5873 L11.1403 16.5355 L13.3883 18.0341 L14.8869 18.9332 L15.3365 20.4318 L15.0368 22.0804 L14.1376 23.2792 L13.0885 24.3282 L11.1403 24.778 z" stroke="#000000" stroke-linejoin="round" id="path4" xml:space="preserve" connector-curvature="0" style="fill:#0025C1;" />
    <linearGradient x1="44.72807" y1="9.051446" x2="60.91034" y2="9.051446" gradientUnits="userSpaceOnUse" gradientTransform="matrix(0.9634364, 0, 0, 1.432944, -9.466629, -0.0001305356)" id="SVGID_Fill1_" xml:space="preserve">
      <stop offset="0.925926%" stop-color="#FFFFFF" stop-opacity="1" id="stop6" xml:space="preserve" />
      <stop offset="100%" stop-color="#FCFCFF" stop-opacity="0" id="stop8" xml:space="preserve" />
    </linearGradient>
    <path d="M23.2294 2.44812 L26.6263 4.74597 L29.4237 6.94421 L31.9214 10.0414 L33.0204 12.8387 L33.4201 16.5355 L32.8206 20.1322 L31.8215 21.8307 L33.2095 22.2941 L36.0177 18.5336 L36.5173 15.6364 L36.4174 11.7399 L34.2585 8.20691 L32.9205 6.64441 L32.421 5.94495 L31.0223 5.04578 L29.0241 3.54724 L27.0259 2.64807 L25.2275 2.24841 z" stroke-width="0.2" stroke-linejoin="round" id="path11" xml:space="preserve" connector-curvature="0" style="fill:url(#SVGID_Fill1_);" />
    <linearGradient x1="17.4112" y1="16.04226" x2="24.33188" y2="16.04226" gradientUnits="userSpaceOnUse" gradientTransform="matrix(0.9807772, 0, 0, 1.407609, -9.466629, -0.0001305356)" id="SVGID_Fill2_" xml:space="preserve">
      <stop offset="0.925926%" stop-color="#FFFFFF" stop-opacity="1" id="stop13" xml:space="preserve" />
      <stop offset="100%" stop-color="#FFFFFF" stop-opacity="0" id="stop15" xml:space="preserve" />
    </linearGradient>
    <path d="M10.2911 16.2606 L9.40442 15.6488 L8.69254 17.3597 L9.89145 18.6586 L11.0904 20.0573 L11.3901 21.6559 L11.2902 23.4542 L11.1278 24.066 L12.4517 23.8412 L13.5507 23.2169 L14.3999 22.4176 L14.3749 21.3685 L14.4748 20.3444 L14.175 19.4952 L12.7763 18.5961 L11.7522 17.9467 L10.8531 17.2972" stroke-width="0.2" stroke-linejoin="round" id="path18" xml:space="preserve" connector-curvature="0" style="fill:url(#SVGID_Fill2_);" />
    <linearGradient x1="32.38929" y1="34.25917" x2="38.93018" y2="34.25917" gradientUnits="userSpaceOnUse" gradientTransform="matrix(0.8264277, 0, 0, 1.670504, -9.466629, -0.0001305356)" id="SVGID_Fill3_" xml:space="preserve">
      <stop offset="0.925926%" stop-color="#FFFFFF" stop-opacity="1" id="stop20" xml:space="preserve" />
      <stop offset="100%" stop-color="#FFFFFF" stop-opacity="0" id="stop22" xml:space="preserve" />
    </linearGradient>
    <path d="M18.0341 44.8097 L19.1331 46.1085 L19.8325 47.5072 L19.7325 49.5055 L19.3329 51.5035 L18.6335 53.202 L18.8333 54.1012 L19.8404 54.0714 L20.9893 53.3971 L21.9135 52.1481 L22.413 50.6744 C22.413 50.6744 22.6555 49.5619 22.53 49.1058 C22.4207 48.7086 22.2302 47.5072 22.2302 47.5072 L21.8306 46.3085 L20.8315 45.4093 L19.9323 44.8097 z" stroke-width="0.2" stroke-linejoin="round" id="path25" xml:space="preserve" connector-curvature="0" style="fill:url(#SVGID_Fill3_);" />
  </g>
</svg>