<svg enable-background="new 0 0 258.00 258.00" height="258" viewBox="0 0 258 258" width="258" xmlns="http://www.w3.org/2000/svg" xmlns:xlink="http://www.w3.org/1999/xlink"><linearGradient id="a" gradientTransform="matrix(0 -1 1 0 -.581108 1.581108)" gradientUnits="objectBoundingBox" x1=".5" x2="1.66222" y1="1.08111" y2="1.08111"><stop offset="0" stop-color="#abc4ab"/><stop offset=".771552" stop-color="#d5e1d5"/><stop offset="1" stop-color="#fff"/></linearGradient><linearGradient id="b" gradientUnits="objectBoundingBox" x1="-.0487922" x2="1.04879" y1=".500001" y2=".499999"><stop offset=".00925926" stop-color="#c0c0c0"/><stop offset=".197949" stop-color="#8b8b8b" stop-opacity=".501961"/><stop offset=".421296" stop-color="#575757" stop-opacity="0"/><stop offset=".611111" stop-color="#626262" stop-opacity="0"/><stop offset="1" stop-color="#c0c0c0" stop-opacity=".4"/></linearGradient><filter id="c" filterUnits="userSpaceOnUse"><feGaussianBlur stdDeviation="1.88976"/></filter><linearGradient id="d"><stop offset=".00462963" stop-color="#b24e04"/><stop offset=".660537" stop-color="#d06515"/><stop offset=".99537" stop-color="#ee7c27"/></linearGradient><linearGradient id="e" gradientTransform="matrix(-.999375874701 -.035325076997 .035325076997 -.999375874701 1.970747599367 1.345615271139)" gradientUnits="objectBoundingBox" x1=".997261" x2="2.03921" xlink:href="#d" y1=".655398" y2=".655398"/><linearGradient id="f" gradientUnits="objectBoundingBox" x1="-.0487919" x2="1.04879" y1=".5" y2=".5"><stop offset="0" stop-color="#c0c0c0" stop-opacity="0"/><stop offset=".19505" stop-color="#989898" stop-opacity="0"/><stop offset=".425926" stop-color="#707070" stop-opacity="0"/><stop offset=".787037" stop-color="#6c6c6c" stop-opacity="0"/><stop offset=".986111" stop-color="#b9b9b9" stop-opacity=".6"/></linearGradient><linearGradient id="g" gradientTransform="matrix(-.999375865453 -.035325338633 .035325338633 -.999375865453 1.970745030713 1.345637483806)" gradientUnits="objectBoundingBox" x1=".99726" x2="2.03922" xlink:href="#d" y1=".655409" y2=".655409"/><g stroke-linejoin="bevel"><path d="m44 4h170c22.091 0 40 17.9086 40 39.9999v170.0001c0 22.091-17.909 40-40 40h-170c-22.0914 0-40-17.909-40-40v-170.0001c0-22.0913 17.9086-39.9999 40-39.9999z" fill="url(#a)" stroke="#000" stroke-linecap="square" stroke-width="8"/><path d="m47.508 66.1849 162-.3022v13.2091l-161.6986.2159z" fill="#ffde19" stroke="#000" stroke-width="5"/><path d="m207.55 66.2759 30-18.9652v13.2498l-29.929 18.8383z" fill="#ffde19" stroke="#000" stroke-width="5"/><path d="m86.7996 47.3077 151.7504-1-29.596 20.1226-158.6544-.6223z" fill="#ffde19" stroke="#000" stroke-width="5"/><path d="m205.55 80.308 29.791-16.8628v47.6668l-29.791 19.696z" fill="#fff" stroke="#000" stroke-linecap="square" stroke-width="5"/><path d="m57.9247 79.8085h146.875v51.25h-146.875z" fill="#fff" stroke="#000" stroke-linecap="square" stroke-width="5"/><path d="m109.754 157.467 90.333-50.499v47.666l-90.333 52.833z" fill="#fff" stroke="#000" stroke-linecap="square" stroke-width="5"/><path d="m98.1269 130.71c33.0001-15.735 65.8591-15.685 73.3911.112s-13.114 41.359-46.114 57.094c-33.0004 15.735-65.8586 15.685-73.3909-.112s13.1139-41.359 46.1138-57.094z" fill="url(#b)" filter="url(#c)" stroke-linecap="square" stroke-width=".2"/><path d="m29.7537 154.634h79.3333l.042 52.959-62.2503.25-10.75-3-6.25-9z" fill="#fff" stroke="#000" stroke-linecap="square" stroke-width="5"/></g><path d="m23.6703 141.718 89.5837-.292v12.75l-89.417.208z" fill="#ffde19" stroke="#000" stroke-width="5"/><path d="m23.0037 141.884 98.2153-52.7282 80.785-.4797-92.222 53.2499z" fill="#ffde19" stroke="#000" stroke-width="5"/><path d="m75.6746 60.2179 125.4164-.1183 13.917-9.9165-123.25 1.2499z" fill="url(#e)" stroke-linecap="square" stroke-linejoin="bevel" stroke-width=".2"/><path d="m114.337 140.551 90.375-53.3752v15.5002l-90.375 51.541z" fill="#ffde19" stroke="#000" stroke-linecap="square" stroke-linejoin="bevel" stroke-width="5"/><path d="m120.282 120.698c32.999-15.735 65.858-15.685 73.39.112 7.533 15.797-13.113 41.359-46.113 57.094-33.001 15.735-65.859 15.685-73.3913-.112s13.1139-41.359 46.1143-57.094z" fill="url(#f)" filter="url(#c)" stroke-linecap="square" stroke-linejoin="bevel" stroke-width=".2"/><path d="m49.2953 154.176 46.5.25-16.5 18h-43.75z" fill="#ffde19" stroke="#000" stroke-linejoin="bevel" stroke-width="5"/><path d="m71.4663 129.391 37.0837-.083 56.333-31.3335-38.667.3335z" fill="url(#g)" stroke-linecap="square" stroke-linejoin="bevel" stroke-width=".2"/></svg>