<svg enable-background="new 0 0 258.00 258.00" height="258" viewBox="0 0 258 258" width="258" xmlns="http://www.w3.org/2000/svg" xmlns:xlink="http://www.w3.org/1999/xlink"><linearGradient id="a" gradientUnits="objectBoundingBox" x1="-.0487922" x2="1.04879" y1=".500001" y2=".499999"><stop offset=".00925926" stop-color="#c0c0c0"/><stop offset=".197949" stop-color="#8b8b8b" stop-opacity=".501961"/><stop offset=".421296" stop-color="#575757" stop-opacity="0"/><stop offset=".611111" stop-color="#626262" stop-opacity="0"/><stop offset="1" stop-color="#c0c0c0" stop-opacity=".4"/></linearGradient><linearGradient id="b"><stop offset=".00462963" stop-color="#b24e04"/><stop offset=".660537" stop-color="#d06515"/><stop offset=".99537" stop-color="#ee7c27"/></linearGradient><linearGradient id="c" gradientTransform="matrix(-.999375874701 -.035325076997 .035325076997 -.999375874701 1.970747599367 1.345615271139)" gradientUnits="objectBoundingBox" x1=".997261" x2="2.03921" xlink:href="#b" y1=".655398" y2=".655398"/><linearGradient id="d" gradientUnits="objectBoundingBox" x1="-.0487919" x2="1.04879" y1=".5" y2=".5"><stop offset="0" stop-color="#c0c0c0" stop-opacity="0"/><stop offset=".19505" stop-color="#989898" stop-opacity="0"/><stop offset=".425926" stop-color="#707070" stop-opacity="0"/><stop offset=".787037" stop-color="#6c6c6c" stop-opacity="0"/><stop offset=".986111" stop-color="#b9b9b9" stop-opacity=".6"/></linearGradient><linearGradient id="e" gradientTransform="matrix(-.999375874701 -.035325076997 .035325076997 -.999375874701 1.97074510544 1.345643227076)" gradientUnits="objectBoundingBox" x1=".99726" x2="2.03922" xlink:href="#b" y1=".655412" y2=".655412"/><g stroke-linejoin="bevel"><path d="m46.482 64.7313 162-.3022v13.2091l-161.6986.2159z" fill="#ffde19" stroke="#000" stroke-width="5"/><path d="m206.524 64.8223 30-18.9652v13.2498l-29.929 18.8383z" fill="#ffde19" stroke="#000" stroke-width="5"/><path d="m85.7737 45.8541 151.7503-1-29.596 20.1226-158.6543-.6223z" fill="#ffde19" stroke="#000" stroke-width="5"/><path d="m204.524 78.8544 29.791-16.8631v47.6667l-29.791 19.696z" fill="#d66919" stroke="#000" stroke-linecap="square" stroke-width="5"/><path d="m56.8987 78.3549h146.875v51.25h-146.875z" fill="#d66919" stroke="#000" stroke-linecap="square" stroke-width="5"/><path d="m108.728 156.014 90.333-50.5v47.667l-90.333 52.833z" fill="#d66919" stroke="#000" stroke-linecap="square" stroke-width="5"/><path d="m28.7277 153.181h79.3333l.042 52.958-62.2503.25-10.75-3-6.25-9z" fill="#d66919" stroke="#000" stroke-linecap="square" stroke-width="5"/><path d="m97.1009 129.256c33.0001-15.735 65.8591-15.685 73.3911.112s-13.114 41.359-46.114 57.094c-33.0003 15.736-65.8585 15.685-73.3909-.112-7.5323-15.796 13.1139-41.359 46.1138-57.094z" fill="url(#a)" stroke-linecap="square" stroke-width=".2"/></g><path d="m22.6444 140.264 89.5836-.292v12.75l-89.417.209z" fill="#ffde19" stroke="#000" stroke-width="5"/><path d="m21.9777 140.431 98.2153-52.7289 80.785-.4796-92.222 53.2505z" fill="#ffde19" stroke="#000" stroke-width="5"/><path d="m74.6487 58.7643 125.4163-.1183 13.917-9.9165-123.2499 1.2499z" fill="url(#c)" stroke-linecap="square" stroke-linejoin="bevel" stroke-width=".2"/><path d="m113.311 139.097 90.375-53.3748v15.4998l-90.375 51.542z" fill="#ffde19" stroke="#000" stroke-linecap="square" stroke-linejoin="bevel" stroke-width="5"/><path d="m119.256 119.244c32.999-15.735 65.858-15.685 73.39.112 7.533 15.797-13.113 41.359-46.113 57.094-33.001 15.736-65.8589 15.685-73.3913-.112-7.5323-15.797 13.1139-41.359 46.1143-57.094z" fill="url(#d)" stroke-linecap="square" stroke-linejoin="bevel" stroke-width=".2"/><path d="m48.2693 152.722 46.5.25-16.5 18h-43.75z" fill="#ffde19" stroke="#000" stroke-linejoin="bevel" stroke-width="5"/><path d="m70.4403 127.938 37.0837-.084 56.333-31.333-38.667.3334z" fill="url(#e)" stroke-linecap="square" stroke-linejoin="bevel" stroke-width=".2"/></svg>