<svg enable-background="new 0 0 37.87 56.00" height="56" viewBox="0 0 37.87 56" width="37.8665" xmlns="http://www.w3.org/2000/svg" xmlns:xlink="http://www.w3.org/1999/xlink"><linearGradient id="a" gradientTransform="matrix(-.966395827339 .257058563174 -.257058563174 -.966395827339 2.065206521199 .614894335072)" gradientUnits="objectBoundingBox" x1=".992412" x2="1.98393" y1=".442435" y2=".442435"><stop offset=".00925926" stop-color="#fff"/><stop offset="1" stop-color="#fcfcff" stop-opacity="0"/></linearGradient><linearGradient id="b"><stop offset=".00925926" stop-color="#fff"/><stop offset="1" stop-color="#fff" stop-opacity="0"/></linearGradient><linearGradient id="c" gradientTransform="matrix(-.968601197521 .248619629475 -.248619629475 -.968601197521 2.063139665511 .620144868043)" gradientUnits="objectBoundingBox" x1=".99241" x2="1.98442" xlink:href="#b" y1=".440352" y2=".440352"/><linearGradient id="d" gradientTransform="matrix(-.940436372152 .339969748556 -.339969748556 -.940436372152 2.119029648881 .542398221915)" gradientUnits="objectBoundingBox" x1="1.012" x2="2.01998" xlink:href="#b" y1=".456829" y2=".456829"/><g stroke-linejoin="round"><path d="m17.5845 43.9606c3.1452 0 5.6948 2.583 5.6948 5.7697 0 3.1866-2.5496 5.7696-5.6948 5.7696s-5.6949-2.583-5.6949-5.7696c0-3.1867 2.5497-5.7697 5.6949-5.7697z" fill="#0025c1" stroke="#000"/><path d="m9.64172 25.2274-5.09536-2.2478-2.69761-3.2971-1.198878-2.9973-.149872-3.8963 1.19888-3.14718 1.7984-2.84741 1.94825-1.94824 3.29699-2.24805 2.54768-1.04907 3.297-.599365 3.4469-.149902 3.5967-.299805 3.4468.449707 2.248 1.049075 2.9973 1.49853 2.6975 1.94824 1.9483 2.09815 2.0981 3.59672.2997 3.2971-.4496 4.196-1.3488 2.2481-2.248 2.3977-2.6975 2.9973-3.5967 2.5478-3.5968 2.9971-1.9482 3.447-1.049 2.3977.0815 1.0591-.1752.9453-.8617.4497-3.2408-.0561-1.1989-.8992v-2.6975l1.9482-3.1472 2.5477-3.7466 3.4469-3.8965 1.3487-2.0981 1.199-3.4468v-3.1472l-.7494-3.5967-1.7983-1.7983-2.9973-1.3489-2.6976-.29957-2.2479.14967-2.6976.8992-1.7983 1.6486v1.9483l.5994 1.9482 2.248 1.4986 1.4986.8991.4496 1.4986-.2997 1.6486-.8992 1.1988-1.0491 1.049-1.9482.4498z" fill="#0025c1" stroke="#000"/><g stroke-width=".2"><path d="m23.2294 2.44812 3.3969 2.29785 2.7974 2.19824 2.4977 3.09719 1.099 2.7973.3997 3.6968-.5995 3.5967-.9991 1.6985 1.388.4634 2.8082-3.7605.4996-2.8972-.0999-3.8965-2.1589-3.53299-1.338-1.5625-.4995-.69946-1.3987-.89917-1.9982-1.49854-1.9982-.89917-1.7984-.39966z" fill="url(#a)"/><path d="m10.2911 16.2606-.88668-.6118-.71188 1.7109 1.19891 1.2989 1.19895 1.3987.2997 1.5986-.0999 1.7983-.1624.6118 1.3239-.2248 1.099-.6243.8492-.7993-.025-1.0491.0999-1.0241-.2998-.8492-1.3987-.8991-1.0241-.6494-.8991-.6495" fill="url(#c)"/><path d="m18.0341 44.8097 1.099 1.2988.6994 1.3987-.1 1.9983-.3996 1.998-.6994 1.6985.1998.8992 1.0071-.0298 1.1489-.6743.9242-1.249.4995-1.4737s.2425-1.1125.117-1.5686c-.1093-.3972-.2998-1.5986-.2998-1.5986l-.3996-1.1987-.9991-.8992-.8992-.5996z" fill="url(#d)"/></g></g></svg>