<svg enable-background="new 0 0 47.50 48.97" height="48.9744" viewBox="0 0 47.5 48.97" width="47.5004" xmlns="http://www.w3.org/2000/svg" xmlns:xlink="http://www.w3.org/1999/xlink"><linearGradient id="a" gradientTransform="matrix(-.085460466379 -.99634156226 .99634156226 -.085460466379 -.434239207587 1.538318871419)" gradientUnits="objectBoundingBox" x1=".48889" x2="1.48431" y1=".968453" y2=".968453"><stop offset="0" stop-color="#07620c"/><stop offset="1" stop-color="#389d3e"/></linearGradient><path d="m22.1421 9.2135-.067-2.8811 1.0385-2.51245 2.7807-2.24463 3.7522-1.072024 2.6802.468994 2.278 1.07202 2.0102 1.34009 2.0101 1.94311.737 2.54615-.67 2.27804-1.6081 1.273-2.2781.4692-1.0051.8709-.201 2.4121 2.2112 2.144 11.1895 4.8914-2.5349 5.1704-2.0325-.8264-1.6974-.938-1.6528-1.2507-.9826-1.2508-1.964-.82-1.699-.2073-1.6527.8039-1.5634 1.6973-1.4071 2.1665-.6923 1.8984.067 2.0325.5583 1.7644.8934 1.4741 1.7421 1.4292 1.7421.0896 1.9654-.1342 3.6405-.0669-.4356 2.9497-4.9581 10.2834-12.919-6.2363.804-4.8911 2.8015-1.4021.804-2.0772-.201-2.8811-1.0051-2.1443-2.2781-1.7419-2.6801-.938-2.8812.1338-1.8761.5361-2.3451 1.407-1.206 1.2061-.2681 1.6081.335 1.9431 1.0051 2.01-.67 1.4742-3.28321.469-7.97339-3.7522 10.5195-25.72904 10.5196 4.69014 1.005-.268z" fill="url(#a)" stroke="#00c800" stroke-linejoin="round"/></svg>