<svg enable-background="new 0 0 258.00 258.00" height="258" viewBox="0 0 258 258" width="258" xmlns="http://www.w3.org/2000/svg"><g stroke-linejoin="round"><path d="m129.454 43.5999c50.12 0 90.75 28.206 90.75 63.0001 0 14.918-7.469 28.625-19.953 39.417l-4.547 5.083-10 7-7 11.5-7 14-7.5 10.5-5-1-1.5-9-1.261-17.333c-8.525 1.841-17.59 2.833-26.989 2.833-50.1196 0-90.7498-28.206-90.7498-63 0-34.7941 40.6302-63.0001 90.7498-63.0001z" fill="#e4e4e1" stroke="#000" stroke-width="5"/><path d="m198.204 68.9978c-16.039-14.5169-41.487-23.8979-70.137-23.8979-48.5256 0-87.8629 26.9106-87.8629 60.1071 0 9.468 3.2003 18.425 8.9015 26.392l20.5425-10.844c-4.4337-5.454-6.9337-11.63-6.9337-18.173 0-22.13 28.609-40.0704 63.8996-40.0704 17.793 0 33.888 4.5604 45.474 11.919z" fill="#9bcbe0" stroke-width=".2"/><ellipse cx="128.204" cy="103.6" fill="#fff" rx="66" ry="41.9999" stroke-width=".2"/><g fill="#a9090b" stroke="#a9090b" stroke-width="2"><path d="m100.259 122.833h-9.599v-17.129c0-4.363-1.7498-6.5445-5.2494-6.5445-1.66 0-3.0131.6544-4.0596 1.9635-1.0467 1.309-1.5699 2.943-1.5699 4.903v16.807h-9.599v-17.309c0-4.243-1.7231-6.3645-5.1695-6.3645-1.7332 0-3.1181.6261-4.1546 1.8785-1.0366 1.252-1.5548 2.952-1.5548 5.102v16.693h-9.5991v-30.3506h9.5991v4.989h.1299c1.02-1.6567 2.4531-3.0034 4.2997-4.0405 1.8464-1.037 3.8629-1.5556 6.0493-1.5556 4.5328 0 7.6326 1.9255 9.2991 5.7763 2.4331-3.8508 6.0161-5.7763 10.7489-5.7763 6.9526 0 10.4289 4.0533 10.4289 12.1597z"/><path d="m136.735 110.086h-20.478c.334 4.451 3.237 6.677 8.71 6.677 3.493 0 6.562-.809 9.209-2.428v6.829c-2.927 1.517-6.726 2.276-11.399 2.276-5.106 0-9.069-1.347-11.889-4.04-2.82-2.694-4.23-6.45-4.23-11.268 0-5.001 1.514-8.9614 4.54-11.8793 3.026-2.9183 6.746-4.3774 11.159-4.3774 4.579 0 8.121 1.2885 10.624 3.8651 2.503 2.5767 3.754 6.0716 3.754 10.4856zm-8.959-5.463c0-4.047-1.823-6.0704-5.469-6.0704-1.553 0-2.898.5801-4.035 1.7404-1.136 1.16-1.828 2.603-2.075 4.33z"/><path d="m173.852 119.551c0 5.672-1.668 10.065-5.005 13.179-3.336 3.114-8.167 4.672-14.493 4.672-4.18 0-7.493-.551-9.939-1.651v-7.455c3.193 1.619 6.412 2.428 9.659 2.428 3.233 0 5.738-.89 7.514-2.669 1.776-1.78 2.665-4.201 2.665-7.261v-2.561h-.12c-2.22 3.471-5.493 5.207-9.819 5.207-4.013 0-7.2-1.351-9.559-4.054-2.36-2.704-3.54-6.328-3.54-10.875 0-5.096 1.311-9.1429 3.935-12.1399 2.623-2.9971 6.077-4.4958 10.364-4.4958 3.833 0 6.702 1.4609 8.609 4.382h.13v-3.7749h9.599zm-9.479-11.315v-2.333c0-1.865-.574-3.455-1.72-4.771-1.147-1.3148-2.637-1.9725-4.47-1.9725-2.093 0-3.738.7872-4.934 2.3615-1.197 1.575-1.795 3.794-1.795 6.659 0 2.453.568 4.396 1.705 5.828 1.136 1.432 2.691 2.148 4.664 2.148 1.953 0 3.533-.725 4.74-2.177 1.206-1.451 1.81-3.365 1.81-5.743z"/><path d="m209.688 122.833h-9.599v-4.524h-.13c-2.166 3.421-5.373 5.131-9.619 5.131-3.133 0-5.598-.83-7.394-2.489-1.797-1.66-2.695-3.875-2.695-6.645 0-5.848 3.71-9.225 11.129-10.129l8.769-1.091c0-3.022-1.91-4.5334-5.729-4.5334-3.847 0-7.503 1.0117-10.969 3.0354v-7.1327c1.393-.683 3.301-1.2836 5.724-1.8021 2.423-.5186 4.628-.7779 6.615-.7779 9.265 0 13.898 4.2998 13.898 12.8987zm-9.539-12.301v-1.983l-5.979.693c-3.307.379-4.96 1.71-4.96 3.993 0 1.03.402 1.876 1.205 2.537s1.892.991 3.265.991c1.913 0 3.469-.588 4.669-1.764s1.8-2.665 1.8-4.467z"/></g></g></svg>