<svg enable-background="new 0 0 60.00 54.18" height="54.1836" viewBox="0 0 60 54.18" width="60" xmlns="http://www.w3.org/2000/svg"><g fill="#d56416" stroke-linejoin="round" stroke-width=".2"><path d="m .576172 11.8563c-.468445-1.3733-.630005-2.65476-.576172-4.27024.053894-1.6156.32312-3.56494 1.52393-5.02417 1.20089-1.45947 3.33334-2.428711 5.14938-2.56201207 1.81613-.13330093 3.3158.56958007 4.34839 1.88208207 1.0326 1.3125 1.598 3.23511 2.018 4.87475.4201 1.63965.6947 2.99683 1.0501 4.30519.3554 1.3086.7916 2.5687 1.3166 3.8611.5251 1.2925 1.1389 2.6172 1.7165 3.7817.5775 1.1643 1.1187 2.1687 1.3893 2.8215.2706.6531.2706.9546-.8064 1.8593s-3.2309 2.4125-4.4533 3.2256-1.5132.9315-2.0464.7108c-.5331-.2207-1.30852-.7808-2.36934-2.0894-1.06082-1.3085-2.4071-3.3657-3.49484-5.0026-1.08777-1.637-1.91705-2.854-2.71942-4.1949-.80237-1.3408-1.57782-2.8056-2.046328-4.1787z"/><path d="m14.3402 29.1636c1.0878-.867 3.1125-2.4933 4.238-3.2794 1.1254-.7862 1.3516-.7325 1.6424-.4739.2908.2585.6462.7215 1.2008 1.4592.5547.7378 1.3086 1.7503 1.6802 2.8325.3715 1.0825.3607 2.2349-.0297 3.1853-.3904.9505-1.1604 1.699-2.2321 2.0813-1.0715.3824-2.4447.3985-3.3413.1642-.8966-.2342-1.3166-.7189-1.8982-1.4297s-1.3247-1.6478-1.7932-2.2617-.6624-.9047-.6839-1.1039.1292-.3069 1.217-1.1739z"/><path d="m56.8595 23.4459c-.5548-1.3406-1.2797-2.4096-2.3868-3.5875-1.107-1.1777-2.5963-2.464-4.4617-2.7672s-4.107.3768-5.5589 1.4758c-1.452 1.0989-2.1144 2.617-2.0233 4.2844.0912 1.6676.9358 3.4849 1.703 4.9937s1.4569 2.7092 2.0539 3.9268c.5971 1.2174 1.1014 2.4517 1.5604 3.769.459 1.3174.8726 2.7175 1.2077 3.9734.3351 1.256.5917 2.3677.8195 3.0366.2279.6689.427.8955 1.8332.8639s4.0194-.3214 5.4744-.5177c1.4549-.1964 1.7516-.2994 2.0062-.8173.2546-.5177.4672-1.4503.4-3.1336-.0672-1.6831-.4143-4.117-.6783-6.0647-.2638-1.9475-.4445-3.4092-.7272-4.9461-.2827-1.5366-.6674-3.1487-1.2221-4.4895z"/><path d="m57.9492 45.5323c-1.3894.0671-3.9838.1824-5.3482.335-1.3643.1527-1.4986.3425-1.5464.7285-.0477.3863-.0089.9688.0616 1.8889.0706.9205.1727 2.1785.6083 3.2367.4356 1.0583 1.2046 1.9167 2.1253 2.3727.9208.4561 1.9933.5098 3.0506.0894 1.0572-.4204 2.0992-1.3148 2.618-2.0828.5187-.7678.5142-1.4092.4816-2.327-.0325-.9179-.093-2.1122-.1465-2.8827-.0535-.7703-.0998-1.1167-.2152-1.2805s-.2997-.1453-1.6891-.0782z"/></g></svg>