<svg enable-background="new 0 0 258.00 258.00" height="258" viewBox="0 0 258 258" width="258" xmlns="http://www.w3.org/2000/svg" xmlns:xlink="http://www.w3.org/1999/xlink"><linearGradient id="a" gradientTransform="matrix(0 -1 1 0 -.581108 1.581108)" gradientUnits="objectBoundingBox" x1=".5" x2="1.66222" y1="1.08111" y2="1.08111"><stop offset="0" stop-color="#abc4ab"/><stop offset=".771552" stop-color="#d5e1d5"/><stop offset="1" stop-color="#fff"/></linearGradient><linearGradient id="b" gradientTransform="matrix(-.085460205537 -.996341584633 .996341584633 -.085460205537 -.434241260342 1.538322882466)" gradientUnits="objectBoundingBox" x1=".488891" x2="1.48431" y1=".968456" y2=".968456"><stop offset="0" stop-color="#07620c"/><stop offset="1" stop-color="#389d3e"/></linearGradient><path d="m44 4h170c22.091 0 40 17.9084 40 40v170c0 22.092-17.909 40-40 40h-170c-22.0914 0-40-17.908-40-40v-170c0-22.0916 17.9086-40 40-40z" fill="url(#a)" stroke="#000" stroke-linecap="square" stroke-linejoin="bevel" stroke-width="8"/><path d="m123.485 82.2267-.25-10.75 3.875-9.3749 10.375-8.3751 14-3.9996 10 1.75 8.5 4 7.5 4.9997 7.5 7.25 2.75 9.5-2.5 8.5-6 4.75-8.5 1.75-3.75 3.25-.75 9.0002 8.25 8 41.75 18.25-9.458 19.291-7.584-3.083-6.333-3.5-6.167-4.667-3.666-4.666-7.328-3.06-6.339-.774-6.167 3-5.833 6.334-5.25 8.083-2.583 7.083.25 7.584 2.083 6.583 3.333 5.5 6.5 5.333 6.5.334 7.334-.501 13.583-.249-1.626 11.005-18.499 38.37-48.203-23.269 3-18.25 10.453-5.231 3-7.75-.75-10.75-3.75-8.001-8.5-6.499-10-3.5-10.75.5-7.0001 2-8.75 5.25-4.5001 4.499-.9999 6 1.2499 7.25 3.75 7.501-2.5 5.499-12.25 1.75-29.7499-14 39.25-95.9992 39.2501 17.5 3.75-1z" fill="url(#b)" stroke="#00c800" stroke-linejoin="round" stroke-width="4"/></svg>