<svg enable-background="new 0 0 258.00 258.00" height="258" viewBox="0 0 258 258" width="258" xmlns="http://www.w3.org/2000/svg" xmlns:xlink="http://www.w3.org/1999/xlink"><linearGradient id="a" gradientTransform="matrix(0 -1 1 0 -.581108 1.581108)" gradientUnits="objectBoundingBox" x1=".5" x2="1.66222" y1="1.08111" y2="1.08111"><stop offset="0" stop-color="#abc4ab"/><stop offset=".771552" stop-color="#d5e1d5"/><stop offset="1" stop-color="#fff"/></linearGradient><path d="m44 3.99988h170c22.091 0 40 17.90872 40 40.00002v170.0001c0 22.091-17.909 40-40 40h-170c-22.0914 0-40-17.909-40-40v-170.0001c0-22.0913 17.9086-40.00002 40-40.00002z" fill="url(#a)" stroke="#000" stroke-linecap="square" stroke-linejoin="bevel" stroke-width="8"/><path d="m173.753 42.5341-90.6325-.0218c-9.4168-.3342-17.5272 2.7344-22.5313 13.7647l-18.06 45.599c-13.1626 3.657-18.8913 13.296-19.1958 21.202v59.705h17.3565v20.091c-.8409 19.147 30.2864 19.888 30.9803-.199l.3692-19.722h112.5876l.37 19.722c.694 20.087 31.848 19.346 31.007.199v-20.091h17.329v-59.705c-.304-7.906-6.033-17.545-19.194-21.202l-18.061-45.599c-5.004-11.0303-13.115-14.0989-22.532-13.7647m-88.3641 15.8184c.7893-.0061 1.6196.021 2.4606.0552l81.6655.2563c7.475-.1741 10.643 0 13.822 7.126l13.002 35.3388-135.4571-.171 12.8616-34.3988c2.0063-6.8869 6.1355-8.175 11.6454-8.2065zm-28.4375 60.4753c8.0973 0 14.673 6.6 14.673 14.762 0 8.158-6.5757 14.789-14.673 14.789-8.0938 0-14.6703-6.631-14.6703-14.789 0-8.162 6.5765-14.762 14.6703-14.762zm143.9956 0c8.097 0 14.642 6.6 14.642 14.762 0 8.158-6.545 14.789-14.642 14.789-8.094 0-14.671-6.631-14.671-14.789 0-8.162 6.577-14.762 14.671-14.762zm-10.077-19.4458c-.072-.5468-.17-.9773-.287-1.4287-.758-2.9907-1.773-4.8056-3.947-7.0307-2.119-2.1639-4.498-3.4895-7.284-4.0845-2.731-.5845-28.089-.5879-30.83 0-5.206 1.1113-9.666 5.4897-11.043 10.8247-.059.2222-.12.8479-.165 1.658m26.777-38.5682c-4.174.0061-8.34 2.1936-10.49 6.5931-.858 1.7605-.923 2.0441-.923 4.9973 0 2.9223.058 3.2636.882 5.0171 1.49 3.1718 3.61 5.0583 7.013 6.2861 1.063.3823 2.055.5022 3.993.4338 2.307-.0822 2.782-.2116 4.689-1.1618 2.454-1.2242 4.256-3.0389 5.469-5.5371.724-1.4876.783-1.8838.783-4.8912 0-3.1308-.038-3.3469-.927-5.1652-2.143-4.3916-6.316-6.5791-10.489-6.5721z" fill="#006432" fill-rule="evenodd" stroke="#000" stroke-linejoin="round" stroke-width="3"/></svg>