<svg enable-background="new 0 0 258.00 258.00" height="258" viewBox="0 0 258 258" width="258" xmlns="http://www.w3.org/2000/svg"><g fill="#d56416" stroke-linejoin="round" stroke-width=".2"><path d="m53.5247 86.3328c-1.2084-3.5416-1.6249-6.8471-1.4861-11.0139.1389-4.1666.8333-9.1943 3.9305-12.9582 3.0972-3.764 8.5972-6.264 13.2813-6.6077 4.684-.3438 8.552 1.4687 11.2153 4.8542 2.6631 3.3854 4.1215 8.3438 5.2048 12.5729s1.7917 7.7291 2.7083 11.1041c.9167 3.375 2.0417 6.625 3.3959 9.9584 1.3541 3.3334 2.9375 6.7504 4.4271 9.7534 1.4895 3.004 2.8855 5.594 3.5834 7.278.6978 1.684.6978 2.462-2.08 4.795-2.7777 2.333-8.3333 6.222-11.486 8.319-3.1528 2.098-3.9029 2.403-5.2779 1.834-1.375-.57-3.375-2.014-6.1111-5.389s-6.2083-8.681-9.0138-12.903-4.9445-7.361-7.014-10.8193c-2.0694-3.4583-4.0694-7.2361-5.2777-10.7779z"/><path d="m89.0247 130.972c2.8055-2.236 8.0277-6.431 10.9305-8.459 2.9028-2.027 3.4858-1.888 4.2358-1.222.75.667 1.667 1.861 3.098 3.764 1.43 1.903 3.375 4.514 4.333 7.306.958 2.791.93 5.764-.076 8.215-1.007 2.451-2.994 4.382-5.757 5.368-2.764.986-6.306 1.028-8.6185.424-2.3125-.605-3.3958-1.855-4.8958-3.688s-3.4167-4.25-4.625-5.833c-1.2084-1.584-1.7084-2.334-1.764-2.847-.0555-.514.3334-.792 3.139-3.028z"/><path d="m198.69 116.225c-1.431-3.458-3.3-6.215-6.156-9.253-2.855-3.038-6.696-6.355-11.508-7.1372-4.811-.7819-10.592.9722-14.337 3.8062-3.745 2.835-5.453 6.75-5.218 11.051s2.413 8.988 4.392 12.879c1.979 3.892 3.757 6.988 5.297 10.128s2.841 6.324 4.025 9.721c1.184 3.398 2.25 7.009 3.115 10.249.864 3.239 1.526 6.106 2.113 7.831.588 1.726 1.102 2.31 4.729 2.228 3.626-.081 10.366-.828 14.119-1.335 3.753-.506 4.518-.772 5.174-2.108.657-1.335 1.206-3.741 1.032-8.082-.173-4.341-1.068-10.618-1.749-15.642-.681-5.023-1.147-8.793-1.876-12.757-.729-3.963-1.721-8.121-3.152-11.579z"/><path d="m201.501 173.19c-3.584.173-10.275.471-13.794.864-3.519.394-3.866.883-3.989 1.879s-.023 2.498.159 4.872.446 5.619 1.569 8.348c1.124 2.729 3.107 4.943 5.482 6.119 2.374 1.177 5.141 1.315 7.868.231 2.726-1.084 5.414-3.391 6.752-5.372 1.338-1.98 1.326-3.634 1.242-6.002-.084-2.367-.24-5.448-.378-7.434-.137-1.987-.257-2.881-.555-3.304-.297-.422-.773-.374-4.356-.201z"/></g></svg>