<svg enable-background="new 0 0 60.00 54.18" height="54.1835" viewBox="0 0 60 54.18" width="60" xmlns="http://www.w3.org/2000/svg"><g fill="#7a1111" stroke-linejoin="round" stroke-width=".2"><path d="m .576164 11.8564c-.46849-1.3732-.6300123-2.65474-.57617926-4.27022.05385586-1.61548.32309726-3.56494 1.52391526-5.02417 1.20086-1.45947 3.33331-2.428709 5.14937-2.56201 1.8161-.133301 3.31579.56958 4.34843 1.88208 1.0325 1.31262 1.5979 3.23511 2.018 4.87476.42 1.63964.6946 2.99682 1.05 4.30526.3554 1.3085.7916 2.5686 1.3166 3.861.5251 1.2925 1.139 2.6172 1.7165 3.7816s1.1188 2.1688 1.3893 2.8217c.2706.6529.2706.9546-.8064 1.8591-1.0769.9048-3.2309 2.4126-4.4533 3.2256-1.2224.8132-1.5132.9316-2.0463.7109s-1.30857-.7807-2.3694-2.0893c-1.06082-1.3086-2.40707-3.3658-3.49482-5.0027-1.08777-1.637-1.91706-2.854-2.71944-4.1948-.80235-1.3409-1.57779-2.8057-2.046276-4.1788z"/><path d="m14.3401 29.1636c1.0878-.867 3.1125-2.4932 4.238-3.2793 1.1255-.7863 1.3516-.7324 1.6424-.4739.2908.2583.6462.7214 1.2009 1.4592.5546.7378 1.3085 1.7503 1.6801 2.8325.3716 1.0823.3608 2.2348-.0296 3.1852-.3904.9505-1.1605 1.699-2.2321 2.0813-1.0716.3822-2.4448.3986-3.3414.1642-.8966-.2341-1.3166-.7187-1.8982-1.4297-.5815-.7107-1.3247-1.6477-1.7932-2.2617-.4685-.6138-.6623-.9045-.6839-1.1038-.0215-.1992.1293-.3071 1.217-1.174z"/><path d="m56.8592 23.446c-.5548-1.3405-1.2796-2.4097-2.3867-3.5876-1.1071-1.1777-2.5963-2.4639-4.4617-2.7671s-4.107.3767-5.5589 1.4758c-1.452 1.0989-2.1144 2.617-2.0232 4.2845.0911 1.6674.9357 3.4846 1.7029 4.9935s1.4569 2.7093 2.0539 3.9269c.597 1.2173 1.1014 2.4516 1.5604 3.769.459 1.3173.8725 2.7175 1.2076 3.9734s.5917 2.3674.8196 3.0366c.2278.669.427.8955 1.8332.8638 1.4061-.0315 4.0194-.3213 5.4743-.5177 1.455-.1964 1.7516-.2994 2.0062-.8173.2547-.5178.4673-1.4504.4-3.1335-.0672-1.6831-.4143-4.117-.6782-6.0647-.2639-1.9478-.4446-3.4092-.7272-4.9461-.2827-1.5368-.6674-3.1489-1.2222-4.4895z"/><path d="m57.9491 45.5323c-1.3894.0671-3.9838.1825-5.3481.3351-1.3644.1526-1.4987.3424-1.5464.7285-.0478.3862-.0089.9687.0616 1.889s.1727 2.1783.6083 3.2365c.4356 1.0583 1.2045 1.9167 2.1253 2.3727.9207.4561 1.9933.5098 3.0505.0895 1.0573-.4204 2.0993-1.3149 2.618-2.0829.5187-.7678.5142-1.4092.4817-2.327-.0326-.9179-.0931-2.1122-.1465-2.8826-.0535-.7704-.0999-1.1167-.2153-1.2806-.1153-.1638-.2997-.1452-1.6891-.0782z"/></g></svg>