<svg enable-background="new 0 0 208.00 208.00" height="208" viewBox="0 0 208 208" width="208" xmlns="http://www.w3.org/2000/svg" xmlns:xlink="http://www.w3.org/1999/xlink"><linearGradient id="a" gradientTransform="matrix(0 -1 1 0 -.560354 1.560354)" gradientUnits="objectBoundingBox" x1=".5" x2="1.62071" y1="1.06035" y2="1.06035"><stop offset="0" stop-color="#052f73"/><stop offset="1" stop-color="#3883fc"/></linearGradient><path d="m44 3.99994h120c22.091 0 40 17.90856 40 40.00016v119.9999c0 22.092-17.909 40-40 40h-120c-22.0914 0-40-17.908-40-40v-119.9999c0-22.0916 17.9086-40.00016 40-40.00016z" fill="url(#a)" stroke="#1a5ec7" stroke-linecap="square" stroke-linejoin="bevel" stroke-width="8"/><path d="m93.7451 121.756v42.667h-28.4444v-124.4448h43.7773c31.26 0 46.889 13.25 46.889 39.75 0 12.537-4.449 22.6758-13.347 30.4168s-20.782 11.611-35.653 11.611zm0-60.4444v39.1114h10.5559c14.296 0 21.444-6.593 21.444-19.7782 0-12.8889-7.148-19.3332-21.444-19.3332z" fill="#fff" stroke="#1a5ec7" stroke-linejoin="round" stroke-width="3"/></svg>