<svg enable-background="new 0 0 258.00 258.00" height="258" viewBox="0 0 258 258" width="258" xmlns="http://www.w3.org/2000/svg" xmlns:xlink="http://www.w3.org/1999/xlink"><linearGradient id="a" gradientTransform="matrix(0 -1 1 0 -.581108 1.581108)" gradientUnits="objectBoundingBox" x1=".5" x2="1.66222" y1="1.08111" y2="1.08111"><stop offset="0" stop-color="#abc4ab"/><stop offset=".771552" stop-color="#d5e1d5"/><stop offset="1" stop-color="#fff"/></linearGradient><linearGradient id="b"><stop offset="0" stop-color="#052f73"/><stop offset="1" stop-color="#3883fc"/></linearGradient><linearGradient id="c" gradientTransform="matrix(-1 0 0 -1 2.077422 1)" gradientUnits="objectBoundingBox" x1="1.03871" x2="2.11613" xlink:href="#b" y1=".5" y2=".5"/><linearGradient id="d" gradientTransform="matrix(-1 0 0 -1 2.077422 .999998)" gradientUnits="objectBoundingBox" x1="1.03871" x2="2.11613" y1=".499999" y2=".499999"><stop offset="0" stop-color="#b4caee"/><stop offset="1" stop-color="#fff"/></linearGradient><linearGradient id="e" gradientTransform="matrix(-1 0 0 -1 2.077424 .999998)" gradientUnits="objectBoundingBox" x1="1.03871" x2="2.11613" xlink:href="#b" y1=".499999" y2=".499999"/><g stroke-linecap="square" stroke-linejoin="bevel"><path d="m44 4.00012h170c22.092 0 40 17.90848 40 39.99988v170c0 22.092-17.908 40-40 40h-170c-22.0914 0-40-17.908-40-40v-170c0-22.0914 17.9086-39.99988 40-39.99988z" fill="url(#a)" stroke="#000" stroke-width="8"/><ellipse cx="126.789" cy="126.513" fill="url(#c)" rx="90.0002" ry="90.8107" stroke="#1a5ec7" stroke-width="8"/><ellipse cx="127.193" cy="127.727" fill="url(#d)" rx="60.8108" ry="61.3588" stroke-width=".2"/><ellipse cx="126.382" cy="126.919" fill="url(#e)" rx="40.5405" ry="40.9057" stroke-width=".2"/></g></svg>