<?xml version="1.0" encoding="utf-8"?>
<!DOCTYPE svg PUBLIC "-//W3C//DTD SVG 1.1//EN" "http://www.w3.org/Graphics/SVG/1.1/DTD/svg11.dtd">
<svg xmlns="http://www.w3.org/2000/svg" xmlns:xlink="http://www.w3.org/1999/xlink" version="1.1" baseProfile="full" width="258" height="258" viewBox="0 0 258.00 258.00" enable-background="new 0 0 258.00 258.00" xml:space="preserve">
	<linearGradient id="SVGID_Fill1_" gradientUnits="objectBoundingBox" x1="0.5" y1="1.08111" x2="1.66222" y2="1.08111" gradientTransform="rotate(-90.000000 0.500000 1.081108)">
		<stop offset="0" stop-color="#ABC4AB" stop-opacity="1"/>
		<stop offset="0.771552" stop-color="#D5E1D5" stop-opacity="1"/>
		<stop offset="1" stop-color="#FFFFFF" stop-opacity="1"/>
	</linearGradient>
	<path fill="url(#SVGID_Fill1_)" stroke-width="8" stroke-linecap="square" stroke-linejoin="bevel" stroke="#000000" stroke-opacity="1" d="M 44,4.00012L 214,4.00012C 236.092,4.00012 254,21.9086 254,44L 254,214C 254,236.092 236.092,254 214,254L 44,254C 21.9086,254 4,236.092 4,214L 4,44C 4,21.9086 21.9086,4.00012 44,4.00012 Z "/>
	<linearGradient id="SVGID_Fill2_" gradientUnits="objectBoundingBox" x1="1.03871" y1="0.5" x2="2.11613" y2="0.5" gradientTransform="rotate(180.000000 1.038711 0.500000)">
		<stop offset="0" stop-color="#052F73" stop-opacity="1"/>
		<stop offset="1" stop-color="#3883FC" stop-opacity="1"/>
	</linearGradient>
	<ellipse fill="url(#SVGID_Fill2_)" stroke-width="8" stroke-linecap="square" stroke-linejoin="bevel" stroke="#1A5EC7" stroke-opacity="1" cx="126.789" cy="126.513" rx="90.0002" ry="90.8107"/>
	<linearGradient id="SVGID_Fill3_" gradientUnits="objectBoundingBox" x1="1.03871" y1="0.499999" x2="2.11613" y2="0.499999" gradientTransform="rotate(180.000000 1.038711 0.499999)">
		<stop offset="0" stop-color="#B4CAEE" stop-opacity="1"/>
		<stop offset="1" stop-color="#FFFFFF" stop-opacity="1"/>
	</linearGradient>
	<ellipse fill="url(#SVGID_Fill3_)" stroke-width="0.2" stroke-linecap="square" stroke-linejoin="bevel" cx="127.193" cy="127.727" rx="60.8108" ry="61.3588"/>
	<linearGradient id="SVGID_Fill4_" gradientUnits="objectBoundingBox" x1="1.03871" y1="0.499999" x2="2.11613" y2="0.499999" gradientTransform="rotate(180.000000 1.038712 0.499999)">
		<stop offset="0" stop-color="#052F73" stop-opacity="1"/>
		<stop offset="1" stop-color="#3883FC" stop-opacity="1"/>
	</linearGradient>
	<ellipse fill="url(#SVGID_Fill4_)" stroke-width="0.2" stroke-linecap="square" stroke-linejoin="bevel" cx="126.382" cy="126.919" rx="40.5405" ry="40.9057"/>
</svg>
