<svg enable-background="new 0 0 128.00 188.50" height="188.5" viewBox="0 0 128 188.5" width="128" xmlns="http://www.w3.org/2000/svg" xmlns:xlink="http://www.w3.org/1999/xlink"><linearGradient id="a" gradientTransform="matrix(-.966395140898 .257061143792 -.257061143792 -.966395140898 2.065211685697 .614896855393)" gradientUnits="objectBoundingBox" x1=".992414" x2="1.98393" y1=".442438" y2=".442438"><stop offset=".00925926" stop-color="#fff"/><stop offset="1" stop-color="#fcfcff" stop-opacity="0"/></linearGradient><linearGradient id="b"><stop offset=".00925926" stop-color="#fff"/><stop offset="1" stop-color="#fff" stop-opacity="0"/></linearGradient><linearGradient id="c" gradientTransform="matrix(-.968599743862 .24862529274 -.24862529274 -.968599743862 2.063126231446 .620166437066)" gradientUnits="objectBoundingBox" x1=".992401" x2="1.9844" xlink:href="#b" y1=".440365" y2=".440365"/><linearGradient id="d" gradientTransform="matrix(-.940434384383 .339975247143 -.339975247143 -.940434384383 2.119009965461 .542379285576)" gradientUnits="objectBoundingBox" x1="1.01199" x2="2.01995" xlink:href="#b" y1=".456821" y2=".456821"/><g stroke-linejoin="round"><ellipse cx="59.5001" cy="166.75" fill="#407308" rx="19" ry="19.25" stroke="#000" stroke-width="5"/><path d="m33.0001 84.9998-17-7.5-9.0001-10.9998-4-10-.5-13 4-10.5 6-9.5 6.5-6.5 11-7.5 8.5-3.5 11-2 11.5-.5 12-1 11.5 1.5 7.5 3.5 10 5 9 6.5 6.5 7 7 12 1 11-1.5 14-4.5 7.5-7.5 8-9 10-12 8.5-12 10-6.5 11.5-3.5 8 .2718 3.533-.5843 3.155-2.875 1.5-10.8125-.188-4-3v-9l6.5-10.5 8.5-12.5 11.5-13 4.5-7 4-11.5v-10.5l-2.5-12-6-6-10-4.5-9-1-7.5.5-9 3-6 5.5v6.5l2 6.5 7.5 5 5 3 1.5 5-1 5.5-3 4-3.5 3.5-6.5 1.5z" fill="#407308" stroke="#000" stroke-width="5"/><g stroke-width=".2"><path d="m78.3334 8.99976 11.3333 7.66674 9.3333 7.3335 8.333 10.3333 3.667 9.3333 1.333 12.3334-2 12-3.333 5.6666 4.631 1.5463 9.369-12.5463 1.667-9.6666-.334-13-7.202-11.7871-4.464-5.2129-1.667-2.3334-4.667-3-6.6664-5-6.6666-2.99997-6-1.33338z" fill="url(#a)"/><path d="m35.1667 55.0833-2.9583-2.0417-2.375 5.7082 4 4.3335 3.9999 4.6667 1 5.3333-.3333 6-.5416 2.0415 4.4167-.75 3.6666-2.0833 2.8334-2.6667-.0834-3.5.3333-3.4165-1-2.8333-4.6667-3-3.4167-2.1667-2.9999-2.1667" fill="url(#c)"/><path d="m61.0001 150.333 3.6666 4.334 2.3333 4.666-.3334 6.667-1.3333 6.667-2.3333 5.666.6666 3 3.3599-.099 3.8334-2.25 3.0833-4.167 1.6667-4.917s.8089-3.712.3901-5.233c-.3647-1.325-1-5.334-1-5.334l-1.3334-4-3.3333-3-3-2z" fill="url(#d)"/></g></g></svg>