<svg enable-background="new 0 0 37.87 56.00" height="56.0001" viewBox="0 0 37.87 56" width="37.8665" xmlns="http://www.w3.org/2000/svg" xmlns:xlink="http://www.w3.org/1999/xlink"><linearGradient id="a" gradientTransform="matrix(-.966394799919 .257062425667 -.257062425667 -.966394799919 2.065215076056 .614889019071)" gradientUnits="objectBoundingBox" x1=".992416" x2="1.98394" y1=".442435" y2=".442435"><stop offset=".00925926" stop-color="#fff"/><stop offset="1" stop-color="#fcfcff" stop-opacity="0"/></linearGradient><linearGradient id="b"><stop offset=".00925926" stop-color="#fff"/><stop offset="1" stop-color="#fff" stop-opacity="0"/></linearGradient><linearGradient id="c" gradientTransform="matrix(-.968599414072 .248626577539 -.248626577539 -.968599414072 2.063121269198 .620139673636)" gradientUnits="objectBoundingBox" x1=".9924" x2="1.9844" xlink:href="#b" y1=".440352" y2=".440352"/><linearGradient id="d" gradientTransform="matrix(-.940434657332 .339974492114 -.339974492114 -.940434657332 2.119018239046 .542370712737)" gradientUnits="objectBoundingBox" x1="1.012" x2="2.01996" xlink:href="#b" y1=".456817" y2=".456817"/><g stroke-linejoin="round"><path d="m17.5845 43.9606c3.1452 0 5.6948 2.5832 5.6948 5.7697 0 3.1866-2.5496 5.7698-5.6948 5.7698s-5.6948-2.5832-5.6948-5.7698c0-3.1865 2.5496-5.7697 5.6948-5.7697z" fill="#407308" stroke="#000"/><path d="m9.64172 25.2274-5.09539-2.2478-2.69754-3.2971-1.198949-2.9971-.149841-3.8965 1.19891-3.14718 1.79834-2.84741 1.94825-1.94824 3.29699-2.24805 2.54771-1.04907 3.297-.599365 3.4469-.149902 3.5967-.299805 3.4469.449707 2.2479 1.049075 2.9973 1.49853 2.6975 1.94824 1.9483 2.09815 2.0981 3.59672.2997 3.2971-.4496 4.196-1.3488 2.2481-2.2479 2.3979-2.6976 2.9971-3.5967 2.5478-3.5967 2.9974-1.9482 3.4467-1.0491 2.398.0815 1.0591-.1751.9453-.8618.4494-3.2408-.0561-1.1989-.8992v-2.6975l1.9482-3.1472 2.5477-3.7466 3.4469-3.8965 1.3488-2.0981 1.1989-3.4468v-3.1472l-.7493-3.5967-1.7984-1.7983-2.9973-1.3489-2.6976-.29957-2.2479.14967-2.6976.8992-1.7983 1.6486v1.9483l.5994 1.9482 2.248 1.4986 1.4986.8991.4496 1.4988-.2997 1.6484-.8992 1.199-1.049 1.0488-1.9483.4498z" fill="#407308" stroke="#000"/><g stroke-width=".2"><path d="m23.2294 2.44812 3.3969 2.29785 2.7974 2.19824 2.4977 3.09719 1.099 2.7973.3997 3.6968-.5994 3.5967-.9991 1.6985 1.3879.4634 2.8083-3.7605.4995-2.8972-.0999-3.8965-2.1588-3.53299-1.338-1.5625-.4996-.69946-1.3987-.89917-1.9982-1.49854-1.9982-.89917-1.7984-.39966z" fill="url(#a)"/><path d="m10.2911 16.2606-.88668-.6118-.71185 1.7109 1.19891 1.2989 1.19892 1.3987.2997 1.5986-.0999 1.7983-.1624.6118 1.3239-.2248 1.099-.6243.8492-.7993-.025-1.0491.0999-1.0239-.2997-.8494-1.3987-.8991-1.0241-.6494-.8992-.6495" fill="url(#c)"/><path d="m18.0341 44.8097 1.099 1.2988.6993 1.3989-.0999 1.9981-.3996 1.9983-.6994 1.6985.1999.8991 1.007-.03 1.149-.6743.9241-1.2488.4996-1.4736s.2424-1.1128.1169-1.5689c-.1093-.3972-.2997-1.5984-.2997-1.5984l-.3997-1.1989-.9991-.8992-.8991-.5996z" fill="url(#d)"/></g></g></svg>