<svg enable-background="new 0 0 258.00 258.00" height="258" viewBox="0 0 258 258" width="258" xmlns="http://www.w3.org/2000/svg" xmlns:xlink="http://www.w3.org/1999/xlink"><linearGradient id="a" gradientUnits="objectBoundingBox" x1="-.0487921" x2="1.04879" y1=".500001" y2=".5"><stop offset=".00925926" stop-color="#c0c0c0"/><stop offset=".197949" stop-color="#8b8b8b" stop-opacity=".501961"/><stop offset=".421296" stop-color="#575757" stop-opacity="0"/><stop offset=".611111" stop-color="#626262" stop-opacity="0"/><stop offset="1" stop-color="#c0c0c0" stop-opacity=".4"/></linearGradient><filter id="b" filterUnits="userSpaceOnUse"><feGaussianBlur stdDeviation="1.88976"/></filter><linearGradient id="c" gradientTransform="matrix(-1 0 0 -1 2.111732 1.000004)" gradientUnits="objectBoundingBox" x1="1.05587" x2="2.1676" y1=".500002" y2=".500002"><stop offset="0" stop-color="#8fc072"/><stop offset=".662037" stop-color="#87b76b"/><stop offset="1" stop-color="#80af64"/></linearGradient><linearGradient id="d" gradientTransform="matrix(-.999375865453 -.035325338633 .035325338633 -.999375865453 1.970747136065 1.345631521004)" gradientUnits="objectBoundingBox" x1=".997261" x2="2.03922" y1=".655406" y2=".655406"><stop offset="0" stop-color="#316013"/><stop offset=".662037" stop-color="#447327"/><stop offset="1" stop-color="#58873b"/></linearGradient><linearGradient id="e" gradientUnits="objectBoundingBox" x1="-.048792" x2="1.04879" y1=".5" y2=".5"><stop offset="0" stop-color="#c0c0c0" stop-opacity="0"/><stop offset=".19505" stop-color="#989898" stop-opacity="0"/><stop offset=".425926" stop-color="#707070" stop-opacity="0"/><stop offset=".787037" stop-color="#6c6c6c" stop-opacity="0"/><stop offset=".986111" stop-color="#b9b9b9" stop-opacity=".6"/></linearGradient><path d="m123.026 135.85 90.334-50.5003v47.6663l-90.334 52.834z" fill="#fff" stroke="#000" stroke-linecap="square" stroke-linejoin="bevel" stroke-width="5"/><path d="m43.0264 133.016h79.3336l.041 52.959-62.2497.25-10.75-3-6.25-9z" fill="#fff" stroke="#000" stroke-linecap="square" stroke-linejoin="bevel" stroke-width="5"/><path d="m111.399 109.092c33-15.7349 65.859-15.6848 73.391.112 7.533 15.797-13.113 41.359-46.113 57.094-33.001 15.735-65.859 15.685-73.3913-.112s13.1139-41.359 46.1133-57.094z" fill="url(#a)" filter="url(#b)" stroke-linecap="square" stroke-linejoin="bevel" stroke-width=".2"/><path d="m36.943 120.1 89.583-.292v12.75l-89.4163.208z" fill="#80af64" stroke="#000" stroke-width="5"/><path d="m36.2763 120.266 98.2147-52.728 80.785-.4798-92.221 53.2498z" fill="url(#c)" stroke="#000" stroke-width="5"/><g stroke-linejoin="bevel"><path d="m83.443 109.266 37.083-.083 56.334-31.3334-38.667.3335z" fill="url(#d)" stroke-linecap="square" stroke-width=".2"/><path d="m127.61 118.933 90.375-53.375v15.5l-90.375 51.542z" fill="#80af64" stroke="#000" stroke-linecap="square" stroke-width="5"/><path d="m133.554 99.08c33-15.7352 65.859-15.685 73.391.1119 7.532 15.7971-13.113 41.3591-46.114 57.0941-33 15.735-65.8582 15.685-73.3906-.112-7.5322-15.797 13.1136-41.359 46.1136-57.094z" fill="url(#e)" filter="url(#b)" stroke-linecap="square" stroke-width=".2"/><path d="m62.568 132.558 46.5.25-16.5 18h-43.75z" fill="#80af64" stroke="#000" stroke-width="5"/></g></svg>