<svg enable-background="new 0 0 257.00 257.00" height="257" viewBox="0 0 257 257" width="257" xmlns="http://www.w3.org/2000/svg" xmlns:xlink="http://www.w3.org/1999/xlink"><linearGradient id="a"><stop offset=".0186047" stop-color="#e3d191"/><stop offset=".55814" stop-color="#e2af00"/><stop offset=".787252" stop-color="#ab7800"/><stop offset="1" stop-color="#744100"/></linearGradient><linearGradient id="b" gradientUnits="objectBoundingBox" x1="0" x2="1" xlink:href="#a" y1=".500003" y2=".500003"/><linearGradient id="c" gradientTransform="matrix(.962736142597 .270442451804 -.270442451804 .962736142597 .108360057932 -.022423139929)" gradientUnits="objectBoundingBox" x1=".135548" x2="1.08855" y1=".382" y2=".382"><stop offset=".0186047" stop-color="#cebe83"/><stop offset=".55814" stop-color="#c79c07"/><stop offset=".787252" stop-color="#8f6604"/><stop offset="1" stop-color="#573101"/></linearGradient><linearGradient id="d" gradientTransform="matrix(.965921299862 .258835937366 -.258835937366 .965921299862 .099965742336 -.01810189556)" gradientUnits="objectBoundingBox" x1=".118727" x2="1.11874" xlink:href="#a" y1=".370581" y2=".370581"/><linearGradient id="e"><stop offset=".0186047" stop-color="#d7b77e"/><stop offset=".55814" stop-color="#d4b780"/><stop offset=".787252" stop-color="#d7bc89"/><stop offset="1" stop-color="#dbc292"/></linearGradient><linearGradient id="f" gradientUnits="objectBoundingBox" x1="0" x2="1" xlink:href="#e" y1=".5" y2=".5"/><linearGradient id="g" gradientUnits="objectBoundingBox" x1="-.0142857" x2="1.01429" xlink:href="#e" y1=".5" y2=".5"/><linearGradient id="h"><stop offset=".0186047" stop-color="#e5d5b4"/><stop offset="1" stop-color="#efe4d0"/></linearGradient><linearGradient id="i" gradientUnits="objectBoundingBox" x1="0" x2="1" xlink:href="#h" y1=".485325" y2=".485325"/><linearGradient id="j" gradientUnits="objectBoundingBox" x1="-.0168539" x2="1.01685" xlink:href="#h" y1=".484027" y2=".484027"/><linearGradient id="k" gradientUnits="objectBoundingBox" x1="0" x2="1" xlink:href="#h" y1=".5" y2=".5"/><linearGradient id="l" gradientUnits="objectBoundingBox" x1="-.03125" x2="1.03125" xlink:href="#h" y1=".5" y2=".5"/><linearGradient id="m"><stop offset=".0186047" stop-color="#d9bf8d"/><stop offset="1" stop-color="#d7b77e"/></linearGradient><linearGradient id="n" gradientUnits="objectBoundingBox" x1=".0473922" x2="1" xlink:href="#m" y1=".48513" y2=".48513"/><linearGradient id="o" gradientUnits="objectBoundingBox" x1=".0272265" x2="1.02228" xlink:href="#m" y1=".484615" y2=".484615"/><linearGradient id="p"><stop offset=".0186047" stop-color="#e7d7b9"/><stop offset="1" stop-color="#eee2cd"/></linearGradient><linearGradient id="q" gradientUnits="objectBoundingBox" x1="0" x2="1" xlink:href="#p" y1=".484211" y2=".484211"/><linearGradient id="r" gradientUnits="objectBoundingBox" x1="-.0199115" x2="1.01991" xlink:href="#p" y1=".483146" y2=".483146"/><linearGradient id="s" gradientUnits="objectBoundingBox" x1="0" x2="1" xlink:href="#p" y1=".5" y2=".5"/><linearGradient id="t" gradientUnits="objectBoundingBox" x1="-.0330882" x2="1.03309" xlink:href="#p" y1=".5" y2=".5"/><g stroke-linejoin="round"><path d="m101.726 23.849h18c12.703 0 23 10.2976 23 23v160.5c0 12.703-10.297 23.001-23 23.001h-18c-12.702 0-22.9996-10.298-22.9996-23.001v-160.5c0-12.7024 10.2976-23 22.9996-23z" fill="url(#b)" stroke-width=".2"/><g stroke-width="3"><path d="m111.226 23.8499c17.949 0 32.5 6.9402 32.5 15.5005 0 8.5606-14.55 15.5003-32.5 15.5003-17.949 0-32.4996-6.9397-32.4996-15.5003 0-8.5603 14.5513-15.5005 32.4996-15.5005z" fill="url(#d)" stroke="url(#c)"/><path d="m122.226 66.8499v60.0001l75 14 30-17-27.5-37.0001z" fill="url(#g)" stroke="url(#f)"/><path d="m122.726 64.8499 5.626-1.1665 8.5-3.75 5-4.5 2.5-4.5 67.374 14.9165-14 19z" fill="url(#j)" stroke="url(#i)"/><path d="m211.726 65.8499 33 42.0001-17 17-31-40.0001z" fill="url(#l)" stroke="url(#k)"/><path d="m106.06 67.5167-45.3336 34.0003-21.9998 50.666 32.6666 2 34.6668-30z" fill="url(#o)" stroke="url(#n)"/><path d="m60.0599 101.517-28.6667-10.6671 46-33.3332.7085-.5 4.25 5 9.0415 3.5 15.3328.6667z" fill="url(#r)" stroke="url(#q)"/><path d="m31.3932 90.8499-16.6666 45.3331 23.3332 16 22.0001-49.333z" fill="url(#t)" stroke="url(#s)"/></g></g></svg>