<svg enable-background="new 0 0 258.00 258.00" height="258" viewBox="0 0 258 258" width="258" xmlns="http://www.w3.org/2000/svg" xmlns:xlink="http://www.w3.org/1999/xlink"><linearGradient id="a"><stop offset=".0186047" stop-color="#e3d191"/><stop offset=".55814" stop-color="#e2af00"/><stop offset=".787252" stop-color="#ab7800"/><stop offset="1" stop-color="#744100"/></linearGradient><linearGradient id="b" gradientUnits="objectBoundingBox" x1="0" x2="1" xlink:href="#a" y1=".500003" y2=".500003"/><linearGradient id="c" gradientTransform="matrix(.962273108673 .272085398955 -.272085398955 .962273108673 .109561071462 -.023063713808)" gradientUnits="objectBoundingBox" x1=".137948" x2="1.0843" y1=".383544" y2=".383544"><stop offset=".0186047" stop-color="#cebe83"/><stop offset=".55814" stop-color="#c79c07"/><stop offset=".787252" stop-color="#8f6604"/><stop offset="1" stop-color="#573101"/></linearGradient><linearGradient id="d" gradientTransform="matrix(.965923748325 .258826800044 -.258826800044 .965923748325 .099963012381 -.018102909972)" gradientUnits="objectBoundingBox" x1=".118732" x2="1.11874" xlink:href="#a" y1=".370584" y2=".370584"/><linearGradient id="e" gradientUnits="objectBoundingBox" x1="-.0142854" x2="1.01429" y1=".5" y2=".5"><stop offset=".0186047" stop-color="#d7b77e"/><stop offset=".55814" stop-color="#d4b780"/><stop offset=".787252" stop-color="#d7bc89"/><stop offset="1" stop-color="#dbc292"/></linearGradient><linearGradient id="f"><stop offset=".0186047" stop-color="#e5d5b4"/><stop offset="1" stop-color="#efe4d0"/></linearGradient><linearGradient id="g" gradientUnits="objectBoundingBox" x1="-.0168552" x2="1.01685" xlink:href="#f" y1=".484032" y2=".484032"/><linearGradient id="h" gradientUnits="objectBoundingBox" x1="-.0312494" x2="1.03125" xlink:href="#f" y1=".5" y2=".5"/><linearGradient id="i" gradientUnits="objectBoundingBox" x1=".0272283" x2="1.02228" y1=".484615" y2=".484615"><stop offset=".0186047" stop-color="#d9bf8d"/><stop offset="1" stop-color="#d7b77e"/></linearGradient><linearGradient id="j"><stop offset=".0186047" stop-color="#e7d7b9"/><stop offset="1" stop-color="#eee2cd"/></linearGradient><linearGradient id="k" gradientUnits="objectBoundingBox" x1="-.0199111" x2="1.01991" xlink:href="#j" y1=".483146" y2=".483146"/><linearGradient id="l" gradientUnits="objectBoundingBox" x1="-.0330876" x2="1.03309" xlink:href="#j" y1=".5" y2=".5"/><g stroke-linejoin="round"><path d="m113.653 38.682h9.652c12.703 0 23 10.2975 23 22.9996v133.5664c0 12.702-10.297 23-23 23h-9.652c-12.702 0-23-10.298-23-23v-133.5664c0-12.7021 10.298-22.9996 23-22.9996z" fill="url(#b)" stroke-width=".2"/><g stroke-width="3"><path d="m118.914 38.6835c15.607 0 28.261 6.0348 28.261 13.4782 0 7.4441-12.653 13.4786-28.261 13.4786s-28.2612-6.0345-28.2612-13.4786c0-7.4434 12.6542-13.4782 28.2612-13.4782z" fill="url(#d)" stroke="url(#c)"/><path d="m128.479 76.0743v52.1737l65.218 12.174 26.087-14.782-23.914-32.1743z" fill="url(#e)" stroke="#000"/><path d="m128.914 74.3352 4.891-1.0145 7.392-3.2608 4.348-3.913 2.173-3.9131 58.587 12.9709-12.174 16.5217z" fill="url(#g)" stroke="#000"/><path d="m206.305 75.2047 28.696 36.5213-14.783 14.783-26.956-34.7826z" fill="url(#h)" stroke="#000"/><path d="m114.421 76.6541-39.42 29.5649-19.1305 44.058 28.4057 1.739 30.1448-26.087z" fill="url(#i)" stroke="#000"/><path d="m74.4213 106.219-24.9276-9.275 40-28.9856.616-.4348 3.6956 4.3479 7.8627 3.0434 13.333.5797z" fill="url(#k)" stroke="#000"/><path d="m49.4937 96.944-14.4927 39.42 20.2896 13.913 19.1307-42.898z" fill="url(#l)" stroke="#000"/></g></g></svg>