<svg enable-background="new 0 0 258.00 258.00" height="258" viewBox="0 0 258 258" width="258" xmlns="http://www.w3.org/2000/svg" xmlns:xlink="http://www.w3.org/1999/xlink"><linearGradient id="a" gradientTransform="matrix(0 -1 1 0 -.581108 1.581108)" gradientUnits="objectBoundingBox" x1=".5" x2="1.66222" y1="1.08111" y2="1.08111"><stop offset="0" stop-color="#abc4ab"/><stop offset=".771552" stop-color="#d5e1d5"/><stop offset="1" stop-color="#fff"/></linearGradient><linearGradient id="b"><stop offset=".0186047" stop-color="#e3d191"/><stop offset=".55814" stop-color="#e2af00"/><stop offset=".787252" stop-color="#ab7800"/><stop offset="1" stop-color="#744100"/></linearGradient><linearGradient id="c" gradientUnits="objectBoundingBox" x1="0" x2="1" xlink:href="#b" y1=".500003" y2=".500003"/><linearGradient id="d" gradientTransform="matrix(.962273108673 .272085398955 -.272085398955 .962273108673 .109561071462 -.023063713808)" gradientUnits="objectBoundingBox" x1=".137948" x2="1.0843" y1=".383544" y2=".383544"><stop offset=".0186047" stop-color="#cebe83"/><stop offset=".55814" stop-color="#c79c07"/><stop offset=".787252" stop-color="#8f6604"/><stop offset="1" stop-color="#573101"/></linearGradient><linearGradient id="e" gradientTransform="matrix(.965923748325 .258826800044 -.258826800044 .965923748325 .099963012381 -.018102909972)" gradientUnits="objectBoundingBox" x1=".118732" x2="1.11874" xlink:href="#b" y1=".370584" y2=".370584"/><linearGradient id="f" gradientUnits="objectBoundingBox" x1="-.0142854" x2="1.01429" y1=".5" y2=".5"><stop offset=".0186047" stop-color="#d7b77e"/><stop offset=".55814" stop-color="#d4b780"/><stop offset=".787252" stop-color="#d7bc89"/><stop offset="1" stop-color="#dbc292"/></linearGradient><linearGradient id="g"><stop offset=".0186047" stop-color="#e5d5b4"/><stop offset="1" stop-color="#efe4d0"/></linearGradient><linearGradient id="h" gradientUnits="objectBoundingBox" x1="-.0168552" x2="1.01685" xlink:href="#g" y1=".484032" y2=".484032"/><linearGradient id="i" gradientUnits="objectBoundingBox" x1="-.0312494" x2="1.03125" xlink:href="#g" y1=".5" y2=".5"/><linearGradient id="j" gradientUnits="objectBoundingBox" x1=".0272283" x2="1.02228" y1=".484615" y2=".484615"><stop offset=".0186047" stop-color="#d9bf8d"/><stop offset="1" stop-color="#d7b77e"/></linearGradient><linearGradient id="k"><stop offset=".0186047" stop-color="#e7d7b9"/><stop offset="1" stop-color="#eee2cd"/></linearGradient><linearGradient id="l" gradientUnits="objectBoundingBox" x1="-.0199111" x2="1.01991" xlink:href="#k" y1=".483146" y2=".483146"/><linearGradient id="m" gradientUnits="objectBoundingBox" x1="-.0330876" x2="1.03309" xlink:href="#k" y1=".5" y2=".5"/><path d="m43.9999 3.78503h170.0001c22.091 0 40 17.90857 40 39.99987v170.0001c0 22.091-17.909 40-40 40h-170.0001c-22.0915 0-40.00002-17.909-40.00002-40v-170.0001c0-22.0913 17.90852-39.99987 40.00002-39.99987z" fill="url(#a)" stroke="#000" stroke-linecap="square" stroke-linejoin="bevel" stroke-width="8"/><g stroke-linejoin="round"><path d="m113.653 38.467h9.652c12.703 0 23 10.2975 23 22.9997v133.5663c0 12.702-10.297 23-23 23h-9.652c-12.703 0-23.0002-10.298-23.0002-23v-133.5663c0-12.7022 10.2972-22.9997 23.0002-22.9997z" fill="url(#c)" stroke-width=".2"/><path d="m118.914 38.4685c15.607 0 28.261 6.0348 28.261 13.4783 0 7.4441-12.653 13.4785-28.261 13.4785s-28.2613-6.0344-28.2613-13.4785c0-7.4435 12.6533-13.4783 28.2613-13.4783z" fill="url(#e)" stroke="url(#d)" stroke-width="3"/><path d="m128.479 75.8594v52.1736l65.218 12.174 26.086-14.782-23.913-32.1743z" fill="url(#f)" stroke="#000" stroke-width="3"/><path d="m128.914 74.1202 4.891-1.0145 7.392-3.2607 4.347-3.9131 2.174-3.9131 58.587 12.9709-12.174 16.5218z" fill="url(#h)" stroke="#000" stroke-width="3"/><path d="m206.305 74.9897 28.696 36.5213-14.783 14.783-26.956-34.7825z" fill="url(#i)" stroke="#000" stroke-width="3"/><path d="m114.421 76.4391-39.4201 29.5649-19.1305 44.058 28.4057 1.739 30.1449-26.087z" fill="url(#j)" stroke="#000" stroke-width="3"/><path d="m74.4211 106.004-24.9276-9.275 40-28.9856.6161-.4348 3.6956 4.3479 7.8618 3.0435 13.334.5797z" fill="url(#l)" stroke="#000" stroke-width="3"/><path d="m49.4935 96.729-14.4926 39.42 20.2896 13.913 19.1306-42.898z" fill="url(#m)" stroke="#000" stroke-width="3"/></g></svg>