<svg enable-background="new 0 0 73.00 64.35" height="64.3477" viewBox="0 0 73 64.35" width="73" xmlns="http://www.w3.org/2000/svg" xmlns:xlink="http://www.w3.org/1999/xlink"><linearGradient id="a"><stop offset=".0186047" stop-color="#e3d191"/><stop offset=".55814" stop-color="#e2af00"/><stop offset=".787252" stop-color="#ab7800"/><stop offset="1" stop-color="#744100"/></linearGradient><linearGradient id="b" gradientUnits="objectBoundingBox" x1="0" x2="1" xlink:href="#a" y1=".500005" y2=".500005"/><linearGradient id="c" gradientTransform="matrix(.956061883421 .293164928104 -.293164928104 .956061883421 .125218699156 -.031871130383)" gradientUnits="objectBoundingBox" x1=".168935" x2="1.03036" y1=".401808" y2=".401808"><stop offset=".0186047" stop-color="#cebe83"/><stop offset=".55814" stop-color="#c79c07"/><stop offset=".787252" stop-color="#8f6604"/><stop offset="1" stop-color="#573101"/></linearGradient><linearGradient id="d" gradientTransform="matrix(.965924168441 .258825232198 -.258825232198 .965924168441 .09996283098 -.018102293705)" gradientUnits="objectBoundingBox" x1=".11873" x2="1.11874" xlink:href="#a" y1=".370586" y2=".370586"/><linearGradient id="e" gradientUnits="objectBoundingBox" x1="-.0142854" x2="1.01429" y1=".5" y2=".5"><stop offset=".0186047" stop-color="#d7b77e"/><stop offset=".55814" stop-color="#d4b780"/><stop offset=".787252" stop-color="#d7bc89"/><stop offset="1" stop-color="#dbc292"/></linearGradient><linearGradient id="f"><stop offset=".0186047" stop-color="#e5d5b4"/><stop offset="1" stop-color="#efe4d0"/></linearGradient><linearGradient id="g" gradientUnits="objectBoundingBox" x1="-.0168542" x2="1.01685" xlink:href="#f" y1=".484035" y2=".484035"/><linearGradient id="h" gradientUnits="objectBoundingBox" x1="-.0312504" x2="1.03125" xlink:href="#f" y1=".5" y2=".5"/><linearGradient id="i" gradientUnits="objectBoundingBox" x1=".027228" x2="1.02228" y1=".484619" y2=".484619"><stop offset=".0186047" stop-color="#d9bf8d"/><stop offset="1" stop-color="#d7b77e"/></linearGradient><linearGradient id="j"><stop offset=".0186047" stop-color="#e7d7b9"/><stop offset="1" stop-color="#eee2cd"/></linearGradient><linearGradient id="k" gradientUnits="objectBoundingBox" x1="-.0199118" x2="1.01991" xlink:href="#j" y1=".483145" y2=".483145"/><linearGradient id="l" gradientUnits="objectBoundingBox" x1="-.0330881" x2="1.03309" xlink:href="#j" y1=".499997" y2=".499997"/><g stroke-linejoin="round"><path d="m30.7174 1.49951 0 0c5.3788 0 9.7391 4.36035 9.7391 9.73929v43.3697c0 5.3787-4.3603 9.739-9.7391 9.739l0 0c-5.3788 0-9.7391-4.3603-9.7391-9.739v-43.3697c0-5.37894 4.3603-9.73929 9.7391-9.73929z" fill="url(#b)" stroke-width=".2"/><path d="m30.8695 1.5c5.4626 0 9.8913 2.11218 9.8913 4.71741 0 2.60547-4.4284 4.71749-9.8913 4.71749-5.4628 0-9.8913-2.11202-9.8913-4.71749 0-2.60523 4.4288-4.71741 9.8913-4.71741z" fill="url(#d)" stroke="url(#c)" stroke-width="3"/><g stroke="#000"><path d="m34.2174 14.5868v18.2609l22.8261 4.2608 9.1304-5.1738-8.3695-11.261z" fill="url(#e)"/><path d="m34.3696 13.9781 1.712-.3551 2.5869-1.1412 1.5218-1.3696.7608-1.36965 20.5054 4.53995-4.2608 5.7826z" fill="url(#g)"/><path d="m61.4565 14.2825 10.0435 12.7826-5.1739 5.1739-9.4348-12.1739z" fill="url(#h)"/><path d="m29.2971 14.7897-13.7971 10.3479-6.69565 15.4203 9.94205.6086 10.5507-9.1305z" fill="url(#i)"/><path d="m15.2971 25.1376-8.72463-3.2464 14.00003-10.145.2156-.1521 1.2935 1.5217 2.7517 1.0652 4.6667.2029z" fill="url(#k)"/><path d="m6.57247 21.8912-5.07246 13.797 7.10144 4.8697 6.69565-15.0146z" fill="url(#l)"/></g></g></svg>