<svg enable-background="new 0 0 258.00 258.00" height="258" viewBox="0 0 258 258" width="258" xmlns="http://www.w3.org/2000/svg" xmlns:xlink="http://www.w3.org/1999/xlink"><linearGradient id="a" gradientTransform="matrix(0 -1 1 0 -.581108 1.581108)" gradientUnits="objectBoundingBox" x1=".5" x2="1.66222" y1="1.08111" y2="1.08111"><stop offset="0" stop-color="#abc4ab"/><stop offset=".771552" stop-color="#d5e1d5"/><stop offset="1" stop-color="#fff"/></linearGradient><linearGradient id="b" gradientTransform="matrix(-.966395140898 .257061143792 -.257061143792 -.966395140898 2.065211685697 .614896855393)" gradientUnits="objectBoundingBox" x1=".992414" x2="1.98393" y1=".442438" y2=".442438"><stop offset=".00925926" stop-color="#fff"/><stop offset="1" stop-color="#fcfcff" stop-opacity="0"/></linearGradient><linearGradient id="c"><stop offset=".00925926" stop-color="#fff"/><stop offset="1" stop-color="#fff" stop-opacity="0"/></linearGradient><linearGradient id="d" gradientTransform="matrix(-.968600338348 .248622976719 -.248622976719 -.968600338348 2.063125055651 .620163091476)" gradientUnits="objectBoundingBox" x1=".992401" x2="1.9844" xlink:href="#c" y1=".440362" y2=".440362"/><linearGradient id="e" gradientTransform="matrix(-.940434746337 .339974245909 -.339974245909 -.940434746337 2.119009194423 .542376583295)" gradientUnits="objectBoundingBox" x1="1.01199" x2="2.01995" xlink:href="#c" y1=".456819" y2=".456819"/><path d="m44 4h170c22.091 0 40 17.9084 40 40v170c0 22.092-17.909 40-40 40h-170c-22.0914 0-40-17.908-40-40v-170c0-22.0916 17.9086-40 40-40z" fill="url(#a)" stroke="#000" stroke-linecap="square" stroke-linejoin="bevel" stroke-width="8"/><g stroke-linejoin="round"><path d="m122.989 188.268c10.494 0 19 8.618 19 19.25 0 10.631-8.506 19.25-19 19.25-10.493 0-19-8.619-19-19.25 0-10.632 8.507-19.25 19-19.25z" fill="#f00" stroke="#000" stroke-width="5"/><path d="m96.4892 125.768-17-7.5-9-11-4-10.0002-.5-13 4-10.5 6-9.5 6.5-6.5 11-7.5 8.4998-3.5 11-2 11.5-.5 12-1 11.5 1.5 7.5 3.5 10 5 9 6.5 6.5 7 7 12 1 11-1.5 14.0002-4.5 7.5-7.5 8-9 10-12 8.5-12 10-6.5 11.5-3.5 8 .272 3.533-.584 3.154-2.875 1.5-10.813-.187-4-3v-9l6.5-10.5 8.5-12.5 11.5-13 4.5-7 4-11.5v-10.5002l-2.5-12-6-6-10-4.5-9-1-7.5.5-9 3-5.9998 5.5v6.5l1.9998 6.5 7.5 5.0002 5 3 1.5 5-1 5.5-3 4-3.5 3.5-6.5 1.5z" fill="#f00" stroke="#000" stroke-width="5"/><path d="m141.823 49.7676 11.333 7.6667 9.333 7.3335 8.333 10.3333 3.667 9.3335 1.333 12.3332-2 12.0002-3.333 5.667 4.631 1.546 9.369-12.546 1.667-9.6672-.334-13-7.202-11.7871-4.464-5.2129-1.667-2.3332-4.667-3-6.666-5-6.667-3-6-1.3335z" fill="url(#b)" stroke-width=".2"/><path d="m98.6559 95.8511-2.9584-2.0415-2.375 5.708 4 4.3334 3.9995 4.667 1 5.333-.333 6-.541 2.042 4.416-.75 3.667-2.084 2.833-2.666-.083-3.5.333-3.417-1-2.833-4.667-3-3.416-2.167-3-2.1664" fill="url(#d)" stroke-width=".2"/><path d="m124.489 191.101 3.667 4.333 2.333 4.667-.333 6.667-1.334 6.667-2.333 5.666.667 3 3.36-.1 3.833-2.25 3.083-4.166 1.667-4.917s.809-3.712.39-5.233c-.365-1.326-1-5.334-1-5.334l-1.333-4-3.334-3-3-2z" fill="url(#e)" stroke-width=".2"/></g></svg>