<svg enable-background="new 0 0 37.87 56.00" height="56" viewBox="0 0 37.87 56" width="37.8665" xmlns="http://www.w3.org/2000/svg" xmlns:xlink="http://www.w3.org/1999/xlink"><linearGradient id="a" gradientTransform="matrix(-.966393431496 .257067570029 -.257067570029 -.966393431496 2.065209927957 .614898101311)" gradientUnits="objectBoundingBox" x1=".992412" x2="1.98393" y1=".442442" y2=".442442"><stop offset=".00925926" stop-color="#fff"/><stop offset="1" stop-color="#fcfcff" stop-opacity="0"/></linearGradient><linearGradient id="b"><stop offset=".00925926" stop-color="#fff"/><stop offset="1" stop-color="#fff" stop-opacity="0"/></linearGradient><linearGradient id="c" gradientTransform="matrix(-.968597691326 .248633288917 -.248633288917 -.968597691326 2.063136336034 .620162509047)" gradientUnits="objectBoundingBox" x1=".992405" x2="1.98441" xlink:href="#b" y1=".440368" y2=".440368"/><linearGradient id="d" gradientTransform="matrix(-.940437463928 .339966728431 -.339966728431 -.940437463928 2.119012773193 .542352685529)" gradientUnits="objectBoundingBox" x1="1.012" x2="2.01996" xlink:href="#b" y1=".456803" y2=".456803"/><g stroke-linejoin="round"><path d="m17.5845 43.9604c3.1452 0 5.6949 2.5833 5.6949 5.7698s-2.5497 5.7698-5.6949 5.7698c-3.1451 0-5.6948-2.5833-5.6948-5.7698s2.5496-5.7698 5.6948-5.7698z" fill="#f00" stroke="#000"/><path d="m9.64172 25.2275-5.09536-2.248-2.69754-3.2969-1.198948-2.9973-.149872-3.8965 1.19894-3.1472 1.79834-2.84741 1.94825-1.94824 3.29699-2.24781 2.54768-1.04907 3.297-.599607 3.4469-.149658 3.5967-.299805 3.4469.449463 2.248 1.049077 2.9972 1.49877 2.6976 1.94825 1.9482 2.09814 2.0981 3.5967.2997 3.2969-.4495 4.1962-1.3488 2.2481-2.2479 2.3977-2.6976 2.9973-3.5968 2.5476-3.5967 2.9973-1.9482 3.4471-1.0491 2.3977.0815 1.059-.1751.9454-.8618.4497-3.2408-.0564-1.1989-.8992v-2.6975l1.9482-3.147 2.5477-3.7468 3.4469-3.8963 1.3488-2.0981 1.1989-3.447v-3.147l-.7493-3.5969-1.7984-1.7984-2.9973-1.3486-2.6975-.29979-2.248.14989-2.6976.8992-1.7983 1.6484v1.9483l.5995 1.9482 2.2479 1.4988 1.4986.8991.4496 1.4986-.2997 1.6484-.8992 1.199-1.049 1.0491-1.9482.4494z" fill="#f00" stroke="#000"/><g stroke-width=".2"><path d="m23.2294 2.44824 3.3969 2.29785 2.7975 2.198 2.4977 3.09721 1.099 2.7976.3996 3.6965-.5994 3.5967-.9991 1.6985 1.3879.4636 2.8083-3.7605.4995-2.8975-.0999-3.8965-2.1588-3.53291-1.338-1.5625-.4996-.69922-1.3987-.89917-1.9982-1.49878-1.9982-.89917-1.7984-.39966z" fill="url(#a)"/><path d="m10.2911 16.2607-.88662-.612-.71188 1.7109 1.19888 1.2988 1.19892 1.3987.2997 1.5987-.0999 1.7983-.1623.6121 1.3238-.2249 1.099-.6245.8492-.7993-.0249-1.0491.0998-1.0239-.2997-.8491-1.3987-.8995-1.0241-.6491-.8992-.6494" fill="url(#c)"/><path d="m18.0341 44.8098 1.099 1.2988.6994 1.3987-.1 1.9983-.3996 1.9981-.6994 1.6984.1999.8992 1.007-.0298 1.149-.6743.9241-1.249.4996-1.4736s.2425-1.1126.1169-1.5686c-.1093-.3973-.2997-1.5987-.2997-1.5987l-.3996-1.199-.9992-.8991-.8991-.5994z" fill="url(#d)"/></g></g></svg>