<svg enable-background="new 0 0 258.00 258.00" height="258" viewBox="0 0 258 258" width="258" xmlns="http://www.w3.org/2000/svg" xmlns:xlink="http://www.w3.org/1999/xlink"><linearGradient id="a"><stop offset="0" stop-color="#737373"/><stop offset="1" stop-color="#fff"/></linearGradient><linearGradient id="b" gradientUnits="objectBoundingBox" x1="-.00000133868" x2="1" xlink:href="#a" y1=".500001" y2=".500001"/><linearGradient id="c" gradientUnits="objectBoundingBox" x1="-.000003316" x2=".999997" xlink:href="#a" y1=".500015" y2=".500015"/><linearGradient id="d" gradientUnits="objectBoundingBox" x1="-.00000211989" x2="1" xlink:href="#a" y1=".500018" y2=".500018"/><g stroke-linejoin="bevel"><g stroke-width="5"><path d="m206.508 89.4821-.667 18.3329-4 11.667-5.333 10-5 8-6.667 7-5 3-4.667 1-2.666-6.333v-8.667l.333-7 3.333-7.333 8-6 8-6.333 8-7.3337z" fill="#fff" stroke="#000"/><path d="m46.1744 91.4821 11.6667 12.9999 2.6666 1.667 7.6666 8 6 4.333 6.3334 3 4.3334 6.667 3.3332 9.333 1.6668 9 .6666 7.334-3 2.666-6-3.333-8.3334-8.333-9.6666-10.334-5.6666-9-5-9-3-10.333-1.6668-8.0001z" fill="#fff" stroke="#000"/><path d="m79.1744 119.149-1.3333-18.667v-13.9997l2-12.6667 6.6666-11 5.6666-7 8.3337-6.6667 9.666-5.6666 10.667-1.6667 18.667 1 11.333 3 9.667 4.3333 8.666 5.6667 6.334 6 5 9.6667 2.666 10 2 9.3333-2.333 12.0004-4.333 9.666-4.334 8-.666 9 .666 10.667 1.667 7.667 5 8.666 7 7 5.333 5.334 8.334 4.333 6.666 4 1.334 3.333-2.334 4-5.666 7.334-6.667 6.666-8 5-6.333 3.334-7.667 2-9 2.333h-11.667-11l-7.333-2-6.333-3-6-4.667-5-3.333-4.667 4-5.333 4.333-4 3.334-6.3337 1.333-11.6666 1.333-8.3334-.666-7-5.334 1.3334-3.333 6.6666-4.333 6.3334-6 5-8.334 1.3334-11 .6666-9-.3334-12-1.6666-8.333-3-8.333-2.6666-6.667z" fill="#fff" stroke="#000"/><path d="m100.841 119.482 9.667 8.333 6.333 1.001 8 .666 10-1.333 7.667-1.333 6.333-3 5.667-3.667-1 3-6 8.333-7 11-6 8-6 7.334-2.667 1.666-6.333-6.666-4.667-8-5.333-8.334-4.667-8.333-3.667-6.333z" fill="#f00" stroke="#000"/><path d="m104.174 69.8154 8.667 8.3334 5.333 4.0001 2.334 6.6667.333 22.0004-11.667-1-.333-17.3337.333-11.6667z" stroke="#2d2d2d"/><path d="m149.562 70.8042-8.666 8.3334-5.334 4.0001-2.333 6.6666-.333 21.9997 11.666-1 .334-17.3329-.334-11.6668z" stroke="#2d2d2d"/></g><path d="m114.174 47.8154 22 4.3334 12 5.3335 9.667 7.3333 8 10 1.333 13-.333 17.6664-2.667 17s-.666 13-1 14.667c-.333 1.667-1 8.667-1 8.667l3.334 9.333 4 8 7.666 7.333 9 6 8.334 4 7.333 1.667 3.521-4.771-11.75-6.5-7.625-6.875-7.625-8.375-5.854-13.479.666-15.667 2.334-10 5.729-16.6039 1.604-13.3958-7.104-21.1042-7.896-8.2292-14.854-9.0208-17.479-3.9792-13.334-.3333z" fill="url(#b)" stroke-width=".2"/><path d="m79.3098 199.514-4.625 3.312-3.6875 2.625 5.0938 4.115 4.5 1.166 6.8332.167 5.6668-.167 7.7189-2.281 4.281-3.385 2.719-2.552-6.386.885-6.4997 2.167-6.3332-.667-4.8334-3-2.8229-3.448z" fill="url(#c)" stroke-width=".2"/><path d="m121.841 199.545 8.469 5.781 7.937 2.813 5.563.875 18.614.885 7.167-1.667 9.833-3.833-3.833-1.667-5.667 1-8 2.334-8.833-.167-13.667-3.333-7.666-2.5z" fill="url(#d)" stroke-width=".2"/></g></svg>