<svg enable-background="new 0 0 58.42 61.00" height="61" viewBox="0 0 58.42 61" width="58.4218" xmlns="http://www.w3.org/2000/svg" xmlns:xlink="http://www.w3.org/1999/xlink"><linearGradient id="a"><stop offset="0" stop-color="#737373"/><stop offset="1" stop-color="#fff"/></linearGradient><linearGradient id="b" gradientUnits="objectBoundingBox" x1="-.00000142792" x2="1" xlink:href="#a" y1=".500003" y2=".500003"/><linearGradient id="c" gradientUnits="objectBoundingBox" x1="-.00000117902" x2=".999999" xlink:href="#a" y1=".500028" y2=".500028"/><linearGradient id="d" gradientUnits="objectBoundingBox" x1="-.000000753739" x2=".999999" xlink:href="#a" y1=".500034" y2=".500034"/><g stroke-linejoin="bevel"><g stroke="#000"><path d="m56.8672 17.2578-.2344 6.4453-1.4063 4.1016-1.875 3.5156-1.7578 2.8125-2.3437 2.461-1.7579 1.0546-1.6406.3516-.9375-2.2266v-3.0468l.1172-2.461 1.1719-2.5781 2.8125-2.1094 2.8125-2.2265 2.8125-2.5782z" fill="#fff"/><path d="m .5 17.9609 4.10156 4.5704.93746.5859 2.69531 2.8125 2.10937 1.5234 2.2266 1.0547 1.5234 2.3438 1.1719 3.2812.5859 3.1641.2344 2.5781-1.0547.9375-2.1094-1.1719-2.92966-2.9297-3.39844-3.6328-1.99218-3.164-1.75782-3.1641-1.05468-3.6328-.58594-2.8125z" fill="#fff"/><path d="m12.1016 27.6875-.4688-6.5625v-4.9219l.7031-4.4531 2.3437-3.86719 1.9922-2.46093 2.9297-2.34375 3.3985-1.99219 3.75-.58594 6.5625.351563 3.9843 1.054687 3.3985 1.52344 3.0468 1.99219 2.2266 2.10937 1.7578 3.39845.9375 3.5156.7031 3.2813-.8203 4.2187-1.5234 3.3985-1.5234 2.8125-.2344 3.164.2344 3.75.5859 2.6953 1.7578 3.0469 2.4609 2.4609 1.875 1.875 2.9297 1.5235 2.3438 1.4062.4687 1.1719-.8203 1.4063-1.9922 2.5781-2.3437 2.3437-2.8125 1.7578-2.2266 1.1719-2.6953.7031-3.1641.8204h-4.1015-3.8672l-2.5781-.7032-2.2266-1.0547-2.1094-1.6406-1.7578-1.1719-1.6406 1.4063-1.875 1.5234-1.4063 1.1719-2.2265.4688-4.1016.4687-2.9297-.2344-2.46091-1.875.46875-1.1718 2.34376-1.5235 2.2266-2.1094 1.7578-2.9296.4687-3.8672.2344-3.1641-.1172-4.2187-.5859-2.9297-1.0547-2.9297-.9375-2.3438z" fill="#fff"/><path d="m19.7188 27.8047 3.3984 2.9297 2.2265.3515 2.8125.2344 3.5156-.4687 2.6953-.4688 2.2266-1.0547 1.9922-1.289-.3516 1.0547-2.1093 2.9296-2.461 3.8672-2.1094 2.8125-2.1093 2.5782-.9375.5859-2.2266-2.3438-1.6406-2.8125-1.875-2.9296-1.6406-2.9297-1.2891-2.2266z" fill="#f00"/></g><path d="m20.8906 10.3438 3.0469 2.9296 1.875 1.4063.8203 2.3437.1172 7.7344-4.1016-.3515-.1172-6.0938.1172-4.1016z" stroke="#2d2d2d"/><path d="m36.8473 10.6914-3.0469 2.9297-1.875 1.4062-.8203 2.3438-.1172 7.7344 4.1016-.3516.1172-6.0937-.1172-4.1016z" stroke="#2d2d2d"/><path d="m24.4063 2.60938 7.7343 1.52343 4.2187 1.875 3.3985 2.57813 2.8125 3.51566.4687 4.5703-.1172 6.2109-.9375 5.9766s-.2343 4.5703-.3515 5.1562c-.1172.586-.3516 3.0469-.3516 3.0469l1.1719 3.2813 1.4062 2.8125 2.6953 2.5781 3.1641 2.1094 2.9297 1.4062 2.5781.5859 1.2378-1.6772-4.1308-2.2852-2.6807-2.417-2.6807-2.9443-2.0581-4.7388.2344-5.5078.8203-3.5156 2.0142-5.8374.5639-4.7095-2.4975-7.41941-2.7759-2.89306-5.2222-3.17139-6.145-1.39893-4.6875-.11718z" fill="url(#b)" stroke-width=".2"/><path d="m12.1491 55.9407-1.626 1.1645-1.29634.9229 1.79074 1.4465 1.5821.4102 2.4023.0586 1.9922-.0586 2.7136-.802 1.5051-1.1902.9559-.8972-2.2449.3112-2.2852.7618-2.2265-.2344-1.6993-1.0547-.9924-1.2122z" fill="url(#c)" stroke-width=".2"/><path d="m27.1015 55.9517 2.9773 2.0324 2.7905.9888 1.9556.3076 6.5442.3113 2.5195-.5859 3.4571-1.3477-1.3477-.5859-1.9922.3515-2.8125.8203-3.1055-.0586-4.8046-1.1718-2.6954-.8789z" fill="url(#d)" stroke-width=".2"/></g></svg>