<svg enable-background="new 0 0 57.79 60.00" height="60.0001" viewBox="0 0 57.79 60" width="57.7884" xmlns="http://www.w3.org/2000/svg"><g stroke-linejoin="round" stroke-width=".2"><g fill="#808080"><path d="m31.5021 5.86609c5.3603.40979 9.3734 2.07641 13.1583 4.57791l3.4283-4.49222c-4.5426-3.42834-10.0829-5.585691-16.1025-5.94921652z"/><path d="m4.6514 24.7421c.25659-.9618.56991-1.8974.9364-2.804l-4.0238-1.3844c-.36402 1.0813-.668248 2.19-.908727 3.3219z"/><path d="m26.8381 57.1787c-.6954-.1123-1.3825-.2495-2.0601-.4108l-.4174 2.636c.7428.1486 1.4948.2703 2.2546.364z"/><path d="m21.4436 55.7555c-4.4939-1.6721-8.4334-4.4365-11.4416-7.9613l-2.32036 2.1647c3.48326 3.8392 7.95126 6.7822 12.97956 8.4618z"/><path d="m8.44415 45.7816c-.48541-.6937-.93744-1.4108-1.35363-2.1492l-2.84662 1.7205c.50235.829 1.04431 1.6316 1.62307 2.4055z"/><path d="m55.5388 36.962c-.3469 1.9148-.845 3.7627-1.5289 5.5148l1.8413.876c.8054-1.9022 1.3766-3.89 1.6845-5.9197z"/><path d="m53.0518 44.6222c-.836 1.6477-1.8681 3.1902-3.1301 4.5992l1.435 1.2858c1.3188-1.5112 2.4613-3.1533 3.4028-4.8889z"/><path d="m47.8612 51.2238c-.5896.4991-1.2174.9755-1.8854 1.4274l1.2541 1.7101c.6884-.5228 1.3494-1.0753 1.981-1.6546z"/><path d="m54.2866 22.4086c.5293 1.6001 1.0225 3.8955 1.4797 7.3952l1.705-.0162c-.4478-3.5549-1.023-6.0452-1.6748-7.8436z"/><path d="m51.1125 17.4066c.9766.8983 1.8569 1.3372 2.6419 3.2796l1.2567-.3164c-.8986-2.0297-1.9723-2.7662-3.0284-3.3642z"/><path d="m57.743 32.3346-1.6901-.1325c.0104.0947.0208.19.0311.2861-.0447.6506-.1026 1.2966-.1749 1.9368l1.8793.2608c.0252-.7814.0106-1.5659-.0454-2.3512z"/><path d="m30.3985 60.0001c5.1179 0 9.8222-1.3584 13.8349-3.6553l-1.1447-2.0225c-3.1368 1.5457-6.9707 2.6578-11.6362 3.2253-.9202 0-1.8309-.0433-2.7298-.1282l-.0426 2.533c.5693.0316 1.1423.0477 1.7184.0477z"/><path d="m0 30.1379c0 4.4804 1.00076 8.7089 2.78522 12.4975l3.0899-1.4558c-1.32403-3.076-2.05621-6.4485-2.05621-9.9943 0-1.3466.10351-2.6595.30319-3.9337l-3.93933-.4417c-.1207278 1.0928-.18277 2.2033-.18277 3.328z"/><path d="m49.0336 13.7125c1.31-.7037 4.3565-2.657 3.6964-3.4195-.6504-.75137-1.3372-1.47-2.0575-2.15299l-3.7361 3.91939c.6967.5259 1.3933 1.0779 2.0972 1.6531z"/><path d="m25.7026.28064.7498 5.92383c.71-.10913 1.4293-.19397 2.1569-.25379l-.2164-5.95068c-.9075.0534668-1.8049.147583-2.6903.28064z"/><path d="m2.58023 17.9452 4.01529 1.8203c3.42908-6.5159 9.75748-11.24804 17.41618-13.08252l-1.3468-5.783078c-8.9639 2.318478-16.36922 8.685428-20.08467 17.045298z"/></g><ellipse cx="29.6833" cy="31.5941" fill="#12508c" rx="23.4503" ry="23.6036"/><path d="m20.027 30.1105 18.9034-7.7658-7.9701 19.2099z" fill="#fff"/></g></svg>