<svg enable-background="new 0 0 258.00 258.00" height="258" viewBox="0 0 258 258" width="258" xmlns="http://www.w3.org/2000/svg" xmlns:xlink="http://www.w3.org/1999/xlink"><linearGradient id="a" gradientTransform="matrix(0 -1 1 0 -.581107 1.581107)" gradientUnits="objectBoundingBox" x1=".5" x2="1.66222" y1="1.08111" y2="1.08111"><stop offset="0" stop-color="#abc4ab"/><stop offset=".771552" stop-color="#d5e1d5"/><stop offset="1" stop-color="#fff"/></linearGradient><radialGradient id="b" cx="92.0221" cy="99.5085" gradientTransform="matrix(0 -1 1 0 -7.486389 191.530579)" gradientUnits="userSpaceOnUse" r="317.775"><stop offset="0" stop-color="#fff"/><stop offset=".2352" stop-color="#fff"/><stop offset=".3321" stop-color="#e9e9e9"/><stop offset=".6773" stop-color="#c8c8c8"/><stop offset=".7017" stop-color="#c8c8c8"/><stop offset=".8872" stop-color="#909090"/><stop offset="1" stop-color="#626262"/></radialGradient><linearGradient id="c"><stop offset="0" stop-color="#1f1f1f"/><stop offset="1"/></linearGradient><radialGradient id="d" cx="77.5548" cy="101.792" gradientTransform="matrix(0 -1 1 0 -24.236877 179.346497)" gradientUnits="userSpaceOnUse" r="403.039" xlink:href="#c"/><radialGradient id="e" cx="77.5548" cy="101.792" gradientTransform="matrix(0 -1 1 0 -24.236877 179.346497)" gradientUnits="userSpaceOnUse" r="403.139" xlink:href="#c"/><radialGradient id="f" cx="150.064" cy="130.048" gradientUnits="userSpaceOnUse" r="83.5527" xlink:href="#c"/><path d="m44 3.99994h170c22.091 0 40 17.90856 40 39.99996v170.0001c0 22.091-17.909 40-40 40h-170c-22.0916 0-40-17.909-40-40v-170.0001c0-22.0914 17.9084-39.99996 40-39.99996z" fill="url(#a)" stroke="#000" stroke-linecap="square" stroke-linejoin="bevel" stroke-width="8"/><g stroke-linejoin="round"><path d="m101.512 102.044c-1.062-.054-2.8702-.09-3.094-2.016-.1148-.9645 3.855-4.5325 2.86-5.9485-.251-.3547-.975-.74-2.672-1.224-2.0308-.448-5.6668-.1506-11.9535 2.1093-.2813.104.0841-.0305-.14.0467-.2453.0894-.1199.036-.2813.0934.1919-.0614-.2814.1199-1.1252.428-.0682.0306-.1148.0574-1.1254.3746-1.38-4.964 2.3385-14.1253 5.4853-14.4373 1.2813-.1253 2.7133 1.656 4.5466.656 3.3066-1.8027 3.6453-4.5627 3.1867-7.9693-.348-2.5881-3.0252-.14-4.828.5626-1.9532.7668-1.9946 1.224-2.5306.704-1.6306-1.5786-.7241-5.1614 5.6719-12.2293 2.244-2.4841 3.2547-6.016 3.3747-7.2187.136-1.3854-4.328 2.4947-4.7812 1.5467-.3121-.6614 3.5786-4.448 5.5786-5.4839.9264-.48.9314.5412 1.5934.4679.858-.0987 6.26-5.0253 5.907-5.812-.235-.516-4.131 1.7347-4.314 1.1719-.098-.3026 4.032-2.3906 4.032-2.3906s-.026-.104 0-.188c-1.625.584-22.9892 7.4067-39.7917 32.5733-26.8855 40.2712-15.7707 94.5992 24.792 121.2922 40.5627 26.692 95.2957 15.661 122.1817-24.606 13.442-20.134 17.406-43.827 12.938-65.801-4.474-21.9745-18.714-41.7025-23.996-44.2451 1.054 1.0374 1.751 1.688 1.448 2.0626-.172.224-1.463.4694-2.672-.844-1.202-1.3066-6.864-5.6973-7.541-6.6973-.681-1.0053-.552-1.344-.187-1.4067.364-.0626.968.1466 1.219.2814.244.136-5.527-4.484-5.907-4.7347-.38-.2493-1.437-.6813-1.64-.6093-.354.1253.922 1.0054.703 1.2186-.199.1987-.792.084-1.265-.328-.241-.208-6.549-4.796-10.407-6.2813-2.281.344-3.74.5627-3.984 1.032-.344.6719 5.145 2.88 5.437 3.4213.307.568-.865 1.396-1.969 1.5467-3.448.4693-4.787-1.2079-5.203-2.156-1.448-3.328-7.682-2.1093-13.166 1.4533-2.37 1.536-11.631 1.5214-11.719.328-.167-2.292.683-3.8012-4.923-2.8586-3.937.6612-4.995 2.0613-4.64 2.3426.656.5267 3.35 1.4748 3.563 2.344.145.5894-3.375 3.9014-13.073 3.2348-.965 5.1506-.927 6.292.046 7.8745.969 1.5787 2.527 2.1934 3.423 1.9694 2.057-.5214 4.093-2.9747 5.62-3 2.676-.0573 4.489 2.5159 4.405 6 0 .1199-.036.2133-.046.328-.006.0466.005.0933 0 .14-.427 3.844-4.85 2.412-7.829 1.6881-3.786-.9268-3.812 11.7652-.234 14.1972-7-.744-15.859 2.5894-20.525 4.6414-3.85 1.6919 3.64 5.2546 2.342 6.468-1.52 1.4226-4.692 2.7771-7.124 3.3761-1.37.328-4.647.563-5.667.511z" fill="#fff"/><path d="m101.512 102.044c-1.062-.054-2.8648-.09-3.094-2.016-.1148-.9645 3.855-4.5325 2.86-5.9485-.251-.3547-.969-.74-2.672-1.224-2.0308-.448-5.6668-.1506-11.9535 2.1093-.2813.104.0893-.0305-.14.0467-.2399.0894-.1146.036-.2813.0934.1973-.0614-.2814.1199-1.1252.428-.0682.0306-.1148.0574-1.1254.3746-1.3746-4.964 2.3439-14.1253 5.4853-14.4373 1.2813-.1253 2.7133 1.656 4.5466.656 3.3066-1.8027 3.6453-4.5627 3.1867-7.9693-.348-2.5881-3.0252-.14-4.828.5626-1.9532.7668-1.9946 1.224-2.5306.704-1.6306-1.5786-.7241-5.1614 5.6719-12.2293 2.244-2.4841 3.2547-6.016 3.3747-7.2187.136-1.3854-4.328 2.4947-4.7812 1.5467-.3121-.6614 3.5839-4.448 5.5786-5.4839.9264-.48.9314.5412 1.5934.4679.864-.0987 6.26-5.0253 5.907-5.812-.235-.516-4.131 1.7347-4.314 1.1719-.098-.3026 4.032-2.3906 4.032-2.3906s-.021-.104 0-.188c-1.625.584-22.9892 7.4067-39.7917 32.5733-26.8855 40.2712-15.7707 94.5992 24.792 121.2922 40.5627 26.692 95.2957 15.667 122.1817-24.606 13.447-20.134 17.406-43.827 12.938-65.801-4.474-21.9745-18.714-41.7025-23.996-44.2398 1.054 1.0321 1.751 1.6827 1.448 2.0626-.172.2187-1.463.4641-2.666-.844-1.208-1.3119-6.865-5.6973-7.547-6.7026-.681-1.0053-.552-1.344-.187-1.4067.364-.0626.968.1466 1.219.2814.249.136-5.527-4.4787-5.907-4.7347-.38-.2493-1.437-.6813-1.64-.6093-.354.1253.922 1.0054.703 1.2186-.199.1987-.792.0893-1.265-.328-.235-.208-6.549-4.796-10.407-6.2813-2.281.344-3.74.5627-3.979 1.032-.349.6719 5.14 2.88 5.438 3.4213.306.568-.871 1.396-1.97 1.5467-3.453.4693-4.792-1.2079-5.202-2.156-1.454-3.328-7.683-2.1093-13.172 1.4533-2.37 1.536-11.631 1.5214-11.714.328-.172-2.292.681-3.8012-4.923-2.8586-3.942.6612-4.994 2.0613-4.64 2.3426.657.532 3.35 1.4748 3.563 2.344.145.5946-3.376 3.9014-13.078 3.2348-.965 5.1506-.922 6.292.046 7.8745.969 1.5841 2.532 2.1934 3.423 1.9694 2.063-.5214 4.093-2.9693 5.624-3 2.672-.0573 4.491 2.5159 4.407 6-.006.1199-.042.2133-.047.328-.005.0466.005.0933 0 .14-.427 3.8493-4.855 2.4173-7.828 1.6881-3.787-.9268-3.812 11.7652-.235 14.1972-7-.7386-15.858 2.5894-20.525 4.6414-3.855 1.6919 3.64 5.2546 2.337 6.468-1.52 1.4226-4.687 2.7811-7.118 3.3761-1.376.333-4.653.563-5.673.511z" fill="url(#b)"/><path d="m99.8766 79.7822c6.3134.3133 10.1614-1.3587 14.0574-2.9681-6.959-5.0426 11.489-7.5 6.286-1.2238 4.792.4106 8.583-2.4694 13.104-3.6774 1.812-.484 5.454-.4586 7.287-1.2134-.099 4.4586-4.802 2.9107-7.896 2.156-3.787-.9266-3.828 11.76-.249 14.1974-6.996-.744-15.814 2.6-20.48 4.6572-3.85 1.6921 3.604 5.2242 2.308 6.4374-1.527 1.4213-4.699 2.8015-7.131 3.4005-1.369.333-4.64.61-5.656.496-1.016-.115-.953-.839.886-3.0431 1.322-1.5934 2-2.812-.11-4.4-1.677-1.2667-2.5625-1.48-3.6612-1.7201-2.032-.4465-5.6826-.1613-11.964 2.1001 1.0894-6.7667 2.7602-8.7667 3.9894-10.224 1.1521-1.3761 2.844-.5574 5.1093-.256 2.38.3132 3.756-2.4947 4.1201-4.7187z" fill="#5a5a5a" stroke="#5a5a5a" stroke-width=".2"/><path d="m106.991 45.2875s-4.235 2.26-4.134 2.5628c.181.5626 4.066-1.6454 4.301-1.1308.354.7867-5.042 5.6987-5.902 5.7974-.661.0786-.64-.9786-1.5661-.5-1.9961 1.036-5.8813 4.8386-5.5681 5.5.4534.9533 4.9053-2.916 4.7708-1.5306-.12 1.2026-1.1254 4.7492-3.3694 7.2279-6.396 7.0733-7.2974 10.62-5.6666 12.204.536.52 2.5-.6667 2.5-.6667 2.0932-6.0934 7.4466-8.1933 8.5004-13.8333.238-1.292.02-1.308-1.2672-3.5 0 0 1.3332-1.1987 2.1662-1.6987.871-.5253.829.5426 1.699.2668 1.848-.5948 3.344-2.3135 4.635-3.9694 1.292-1.6561.391-1.9694.433-2.5306.047-.5788.432.072 0-.9388-.428-1.004-1.532-3.26-1.532-3.26zm65.798 3.0628c.03.8639-.084 1.7706.068 2.604.124.6772 2.061 1.6612 3.437 2.1986 1.109-.0841 2.271-.964 1.962-1.532-.29-.5414-2.905-1.2134-5.467-3.2706zm-36.167 3.9319c-.09.5573.052 3.0213.369 4.5053 1.276-.604 3.344-1.5774 3.199-2.1666-.215-.8694-3.068-1.6561-3.568-2.3387zm51.104.4013c-.318.4214-.427.6094-.536.7708.53.4118 1.066.5266 1.271.3332.213-.2187-.547-.776-.735-1.104zm6.364 4.9014c-.364.0626-.515.432.166 1.432.943-1.0574.158-.1454 1.033-1.1307-.251-.1347-.834-.364-1.199-.3013zm8.933 6.9014c-1.245 1.2332-.188.2079-1.234 1.2332 1.208 1.308 2.494 1.052 2.666.8334.302-.3801-.374-1.036-1.432-2.0666zm-66.797.1972c-1.532.0307-3.61 2.516-5.672 3.036-1.781.448-2.672-1.3692-3.864-2.536.446 2.6414 1.104 5.2027 3.5 5.7654 2.26.5374 4.771-2.8694 7-2.864 1.301.0054 2.708 2.344 3.364 3.068.323-3.7186-1.536-6.5267-4.328-6.4694zm-39.5002 8.432c-.2026 3.516.604 7.1986-2.7026 9.0054-1.8333 1-3.2866-.796-4.568-.6666-3.1412.3078-6.8441 9.4692-5.464 14.4319 2.0894-.6507.1094-.0254 2.5-.8693.8081-4.364 1.8908-8.5467 4.568-10.7974 1.3853-1.172 4.9894 1.0214 6.6307-.3387 2.0719-1.708 4.0721-7.3279-.9641-10.7653zm4.5632 20.9694c1.025 1.416-2.5898 4.6093-2.8659 5.9371-.2813 1.323 1.1094 1.902 2.4999 1.896-1.1144-.729 1.819-2.9265 2.532-4.9317.301-.8548-.224-1.6094-2.166-2.9014z" stroke="#000" stroke-width=".2"/><path d="m68.2366 143.992c-1.2668.129-1.7041 1.192-.9373 3.088-2.6001-.475-4.4227-1.016-6.6094-2.151-.5107 1.343 3.1346 2.098 4.8747 2.905.0932.647.1505 1.319.2347 1.97-.2095-.277-.4748-.49-.7508-.703-.7599-.589-1.3745-.985-2.0627-.985-.4106 0-.656-.047-.8906.234-.7546.912-.328 2.183.7974 3.235 1.1306 1.046 2.6666 1.552 3.3746.796.224 1.043.5 2.079 1.0321 3.043.1399.14.8279.692.7959.562-.8334-4.114-1.1094-5.105-1.3586-7.87.3066.073.7492.229 1.6865.376.4281 2.514.1254.889 1.3135 6.837.5666.589.9426.996 1.5 1.595-.7241-4.156-1.3028-5.287-1.5467-8.246.4161.24.7547.23 1.1241.423-.0054-.027.2398-.579-.14-1.125-3.8228-.756-3.7188-5.49 3.1865-.563.0321.021 1.1253-.47.2347-1.079-2.4787-1.697-4.5932-2.478-5.8586-2.342zm-5.156 5.296c.3853.026 1.0254.286 1.4519.655.688.59 1.3759 1.386.8441 1.829-.5254.438-1.3746-.239-2.0161-.895-.6347-.652-.9947-1.177-.5612-1.543.0665-.057.1505-.057.2813-.046z" stroke="#000" stroke-width=".2"/><path d="m67.0271 170.361c2.396.926 3.5535 3.849 4.0535 4.484l2.4519 1.333-1.9733-4c .8226-.093 6.88 2.927 9.4733 5.808 2.1001 2.334 3.104 4.834 1.5735 6.509-.1775.199-1.0789.235-1.2455-.337.6361-.74.9121-1.833.4388-3.1-.4748-1.265-1.5054-2.848-2.2668-3.478-1.5719-1.308-3.6453-2.547-5.9679-3.432.9427 2.208 2.1919 4.801 3.776 7.374-1.4427-1.208-2.0467-2.683-2.964-3.76l-2.5108-1.406c.2402.354.9122 1.63 1.3082 2.416-.9122-1.167-1.4268-2.047-2.5-3.812-.4802-.782-.8442-1.574-1.4589-2.35-.5359-.686-1.2492-1.271-1.4212-1.333-.104-.042-.7919.016-.7668-.916z" stroke="#000" stroke-width=".2"/><path d="m217.251 113.558c-1.031.99-1.348 2.24-1.004 2.771.859 1.328 2.187-.031 2.75-.765.396-.516.636-1.23.578-1.823-.048-.527-.594-1.839-2.324-.183zm5.188 2.771c-.093-.484-1.588-6.224-1.615-6.301-.025-.079-.046-.142-.057-.188-.068-.235-.458-.198-.718-.25-.26-.046-.517-.068-.766-.052-.251.015-.385-.016-.406-.094-.031-.12.067-.25.292-.391.239-.156.62-.296 1.134-.427.521-.125.798-.082.839.131.131.635.302.984.615 2.208l1.157 4.563c.118.468.38 1.838.473 2.536.094.698-.046 1.125-.229 1.24-.14.088-.506-1.896-.719-2.975zm-.598-.817-2.605 2.948.302 1.172c.068.249.068.478.141.838.078.364.135.798.167 1.307.036.511-.027.813-.188.901-.077.011-.172-.114-.281-.374-.115-.256-.198-.511-.255-.771-.057-.256-.11-.443-.152-.568l-.421-1.907-1.344 1.104c-.069.068-.187.204-.348.407-.167.203-.303.339-.407.407-.177.114-.527.192-1.063.249-.536.052-.822 0-.869-.161l.031-.13.093-.094c.543-.235 1.152-.568 1.839-1.006.516-.328 1.255-.984 2.062-1.702.803-.714 1.459-1.407 2.016-1.927l1.099-1.224m-4.099-2.491c.5-.296 1.042-.676 1.557-.556.511.114.954.739 1.011 1.334.072.722-.042 1.38-.391 2.041-.354.661-.854 1.328-1.422 1.792-1.463 1.187-2.339.739-2.765-.115-.422-.844.13-2.62 1.005-3.562.016-.027.098-.104.24-.246.145-.14.229-.224.244-.254.043-.079.052-.147.037-.199-.016-.052-.052-.099-.125-.14-.068-.041-.104-.084-.115-.115l.011-.057.088-.068c.078-.052.202-.093.36-.131.161-.03.249-.009.271.058.02.094.01.229-.047.412" stroke-width=".2"/><path d="m144.554 56.1782 1.079-.516.806 2.12 3.11-1.568c1.426 5.3187.854 10.0787-3.042 15.8546-.505-.4679-.808-1.0413-1.052-1.4159 4.369-7.1666 4.042-8.24 3.282-12.9174l-4.787 2.5933-.011 3.7347-1.27.9174.051-5.172 2.569-1.432m10.426-.7454 3.558 5.9427-.916.6667-3.115-5.0107c-.276.5893-1.115 2.1306-1.948 3.0107-.095-.12-.193-.208-.292-.2761-.094-.1145-.167-.1973-.229-.2506 0 0-.14-.0773-.432-.2387.838-1.4013 1.218-1.844 1.844-3.2453.546-1.224 1.005-2.0053 1.098-3.792l1.088-.0467c-.093 1.5107-.453 2.308-.656 3.24z" stroke-width=".2"/><path d="m224.169 137.668c1.749-2.604-.798-3.104-.5-4.933.525-3.239 4.177-9.39 4.734-9.713-1.104-.26-2.13-12.197-1.646-13.005-.73.437-.187 8.276 1.1 13.005-2.579 3.938-4.459 8.631-4.538 9.667-.156 2.15 1.828 3.011.85 4.979z" fill="#5a5a5a" stroke="#5a5a5a" stroke-width=".2"/><path d="m92.5752 55.8342c.9426-.9053 2.1147-2.0774 2.0666-2.12-.172-.1454-1.3066.2506-1.692.396-2.0893 1.8387-3.8172 3.7813-5.6253 5.7453l-.8225.1254c2.5466-2.6987 5.1505-5.396 8.4786-8.084l.6934-.1201-2.2081 1.8707c.2599-.0626.6706-.1986.8586-.24.1721-.0306 1.0107-.276 1.2707-.156.3333.156-1.4053 1.64-2.1254 2.432" stroke-width=".2"/><path d="m96.5646 109.772c-.1466.026-.276.068-.3854.141-.2094.145-.3386.312-.3853.516-.0427.172-.0107.333.0987.5.1094.172.3012.296.5626.328.068.005.192-.005.3441-.021.1559-.022.2493-.042.2813-.042.1972.026.2706.183.208.459-.0733.323-.2866.588-.6094.781-.328.187-.6986.338-1.0894.463l-.0666.328c1.5093-.281 2.3948-.932 2.6293-1.953.0733-.323 0-.635-.1919-.948-.188-.318-.4854-.515-.912-.562-.1774-.021-.344-.016-.484.01zm9.1044-.5c-2.38.333-4.396 1.198-5.7352 2.385-1.3386 1.188-2.2026 2.948-2.0053 4.339.1775 1.25.6201 2.494 1.7973 3.166 1.1722.678 1.9842.948 3.2972.948l.047.771-1.543.272c-.67.093-1.17.067-1.5-.048-.3332-.115-.7492-.509-.921-.895l-.8388.052.2348 2.296 6.801-.957-.088-2.032c-2.224-.265-2.64-.869-3.333-1.427-.558-.448-1.162-1.526-1.297-2.464-.177-1.297.417-2.978 1.406-3.91.937-.876 1.869-1.298 3.62-1.688 1.109-.246 3.14-.344 4.292.26.511.27 1.823 1.297 2.031 2.765.313 2.251-.719 4.521-3.896 6.068l.098 1.917 7.445-1.078-.287-2.427-.693.016c-.157.307-.604.937-.798 1.223-.176.272-.437.469-1.202.578l-2.214.308-.027-.802c1.511-.536 2.741-1.334 3.538-2.282.792-.948 1.099-2.609.932-3.781-.203-1.448-1.104-2.525-2.697-3.244-1.601-.724-4.158-.657-6.464-.329z" stroke-width=".2"/><path d="m205.877 79.0222c-.531.0681-1.692.4013-1.87.8747-.13.3386-.313.8173.839 1.344.396.1773 1.172-.364 1.828-.3906 1.301-.0574 2.333 2.1826 1.719 3.8492-.427 1.156-1.757 2.072-3.136 2.64-.954.4014-1.676.3174-2.334.156-.713-.176-1.238-.6667-1.572-1.4786-.235-.5574-.385-1.1774-.458-1.864.005-.5787.464-.6774.708.6293.27.656.765 1.3133 1.354 1.4533.588.136 1.307.032 2.146-.3173.646-.2653 1.369-.928 1.948-1.6987.963-1.2813.593-2.2493-.047-2.452-.308-.0947-1.208.52-1.88.452-1.219-.1186-2.131-1.656-2.136-2.208 0-.692.5-1.088.969-1.4106.744-.516 2.047-1.1361 1.922.4213zm2.98 7.396-.147 1.416-1.588-.1507.26-1.328m-.672 1.468-.125 1.4174-1.583-.136.109-1.4107" stroke-width=".2"/><path d="m104.226 146.46-.298.156c1.006.682 1.662 1.213 1.932 1.614.276.401.584.423.986.047.396-.375.484-.676.229-.864-.251-.188-1.204-.511-2.849-.953zm7.563-.14c.181.915.838 4.9 2.401 11.514l-1.715.052-.842-.322.948.912c.697-.204 1.484-.35 2.353-.448l13.527-1.547-2.506-.937-1.568.973-2.322-10.208 1.14-.489-2.011-.689-1.385.839-5.943.683m-.328.328 6.652-.746.577 3.173-6.473.749m-6.161-1.676-.642.599-6.38.625.85.348c.588-.162 1.238-.265 1.967-.339l3.371-.348c-.745 1.282-1.672 2.411-2.781 3.375-1.11.959-2.281 1.797-3.548 2.527l.303.129c1.786-.885 3.259-1.724 4.379-2.547.318 3.246.481 5.23.481 5.937l1.442-.645c-.136-.661-.344-2.38-.614-5.204 1.385.505 2.286.934 2.724 1.319.437.38.785.443 1.025.151.24-.287.302-.558.208-.803-.088-.239-.869-.504-2.364-.781.683-.531 1.39-1.083 2.14-1.656l.776-.219-1.739-.547c-.323.812-.86 1.61-1.589 2.36l-1.228-.188-.048-.598c.595-.735 1.219-1.542 1.865-2.423l1.068-.427m4.531 1.339 6.511-.751.677 3.24-6.6.74m.073.307 6.645-.771.762 3.661-6.651.771" stroke-width=".2"/><path d="m177.773 124.148c.343-.104.655-.126.947-.068.292.062.465.188.522.369.145.464-.24 1.016-1.152 1.661-.911.642-2.468 1.303-4.672 1.986-2.213.686-3.875 1.02-4.984 1-1.11-.022-1.74-.262-1.88-.719-.057-.183.016-.381.213-.595.203-.213.484-.374.844-.489.364-.109.698-.14.995-.088.302.052.754.229 1.369.531.86.437 1.975.442 3.339.021 1.355-.417 2.267-1.052 2.74-1.901.323-.599.588-1 .803-1.208.213-.21.52-.376.916-.5zm1.478 4.364c-.181-.583-.968-.323-2.145-.068l-.088-.287 7.047-2.473.087.286c-1.249.61-2.265 1.162-2.067 1.755l1.87 8.328c.088.235.948.068 2.224-.233l.088.285-6.921 2.62-.084-.287c1.407-.703 2.256-1.208 2-2.009l-1.411-6.652-8.729 10.88c.453.068 1.588-.02 2.443-.208l.082.286-7.754 2.361-.09-.292c1.636-.777 2.464-1.183 2.387-1.604l-1.844-8.396c-.057-.49-1.495-.418-2.694-.12l-.087-.287 8.244-2.593.089.286c-.871.422-3.063 1.208-2.833 1.954l1.557 7.052" stroke-width=".2"/><path d="m223.247 146.809c-.344.218-1.896 3.405-2.797 5.249l-1.401 1.552.093-3.656c-.599 1.099-1.63 1.339-1.776 1.177-.208-.24.048-1.447.631-2.218.453-.593 1.431-1.651 2.084-1.729 1.02-.12.155 2.74.26 4.057.849-1.964 1.858-3.771 3.057-5.599l.235-2.885c-.048-.547-.36-.797-.943-.516-.595.286-1.251.937-1.959 1.724-.974 1.073-2.401 2.656-2.928 4.145l-1.509 1.407c.233-2.703 4.281-6.927 6.864-9.099.578-.489 1.172-.302 1.349.391.178.692-.125 1.557-.093 3.181.885-.842 1.061-.837.927.235-.136 1.136-1.011 2.74-1.73 3.833-.568.855-.536-.109-.364-1.249zm-4.605 2.052c-.395.489-.593.719-.552 1.166.026.334.313.11.657-.198.354-.317.588-.703.572-1.151-.02-.552-.405-.145-.677.183zm5.609-3.537c-.202.428-.29 1.005-.135 1.105.141.083.298-.319.465-.704.109-.255.337-.905.192-1.052-.14-.135-.391.391-.522.651z" stroke-width=".2"/><path d="m172.669 87.5903c.016.0626.005.1239-.033.1919-.041.0681-.093.1093-.161.1307-.531.1973-.937.4532-1.219.7599-.286.3081-.519.8027-.713 1.4801l-2.541 10.1971c-.016.088-.104.162-.276.214-.131.041-.245.032-.344-.026l-4.505-3.5105-2.25 5.5775c-.046.1-.141.172-.27.215-.163.046-.282.041-.355-.022l-8.131-6.9065c-.511-.4267-.984-.692-1.427-.7866-.447-.0934-1.021-.0614-1.718.0946-.057.02-.115.0147-.183-.0106-.062-.032-.104-.068-.12-.1254-.041-.14-.005-.2293.109-.2653.495-.1453 1.011-.2867 1.558-.4213.505-.1254.98-.2507 1.417-.3867.448-.1347.968-.312 1.568-.5254.63-.2293 1.187-.4173 1.676-.5626.12-.0361.199.016.246.156.041.136.026.2186-.047.24-.484.1773-.844.38-1.084.6093-.239.2294-.323.464-.25.6974.036.1199.14.2506.312.396l6.688 5.6001 1.569-4.1108-3.454-2.6973c-.62-.4788-1.098-.7654-1.432-.8547-.329-.0933-.781-.0721-1.36.0573-.052.016-.109.0107-.166-.0146-.063-.032-.099-.068-.115-.1254-.047-.1413-.016-.224.089-.2546.49-.152.943-.2774 1.364-.3707.407-.0879.828-.2027 1.276-.3387.437-.1346.902-.2906 1.38-.4733.5-.1827.995-.3494 1.484-.5.115-.0374.199.0161.24.156.041.1359.027.2187-.047.2399-.969.3428-1.401.6868-1.297 1.0201.043.1521.23.344.552.5893l2.267 1.7134.962-2.4946c.137-.3494.173-.6254.115-.8188-.14-.4574-.708-.552-1.697-.28-.09.0253-.156-.032-.199-.172-.014-.048-.005-.104.027-.1614.025-.0572.068-.0946.109-.1092.353-.1054.787-.224 1.312-.3494.5-.12.907-.2293 1.219-.328.229-.068.557-.1826.989-.3386.548-.208 1.006-.3654 1.382-.48.088-.0254.15.0213.186.1414.047.1559-.011.2599-.166.3119-.563.2133-.99.4587-1.282.74-.296.2813-.609.812-.937 1.588l-1.301 3.2973 4.066 3.088 1.746-7.8586c.073-.292.078-.536.015-.7401-.152-.4893-.718-.5986-1.709-.3279-.088.0266-.156-.0308-.197-.1721-.041-.1399 0-.2293.136-.2706.353-.1093.785-.224 1.285-.344.464-.1093.85-.2079 1.158-.3013.322-.1.686-.2294 1.109-.3908.426-.1612.817-.2973 1.172-.4066.093-.0306.167.0107.203.1308z" stroke-width=".2"/><path d="m188.527 172.028c-.02-4.038-.077-4.204-.218-7.074-4.724 1.814-12.291 4.875-13.485 5.11-1.249.245-2.812.109-2.551-.812.213-.757 1.718-2.339 3.068-2.834-.433.568-.74 1.083 0 1.129.953.069 4.896-1.587 6.822-2.218 1.912-.624 5.891-2.796 7.068-2.323 1.192.48.938 4.418.938 7.266.005.406.125.75-.063 1.037-.35.53-1.025.593-1.579.719z" stroke-width=".2"/><path d="m122.585 186.481c.292.348 1.496.396 2.109.609.62.208 3.734.334 4.709.266 1.094-.074 2.359-.569 2.932-.965.489-.338.776-.734.746-1.177-.069-1-2.782-1.842-4.929-2.296-1.962-.423-5.682-.016-8.426.094-3.396.13-5.937.275-8.948.302-.36.006-.834-.328-.834-.666.006-.506.725-.705.812-1.35.022-.156.038-.297-.051-.333-.053-.022-.553-.041-.797-.005-.193.03-.349.13-.953.156-.25.01-.713 0-1.032-.135-.276-.12-1.12-.59.052-.787.418-.068 2.506-.374 3.344.334.855.718-.077 1.625-.077 1.625s2.676.004 4.052-.037c3.614-.11 11.921-.839 11.921-.839.563-.042 1.875-.427 2.219-.635.322-.199.557-.428.459-.62-.402-.812-.923-.781-2.022-.978 1.631-.344 3.36.057 3.448 1.02.109 1.136-1.167 1.756-2.599 2.322 1.517.235 3.432.86 4.355 1.401.927.537 1.536.975 1.583 1.642.047.676-.301 1.276-1.167 1.828-.984.62-2.292 1.072-4.505 1.167-1.823.077-4.905-.391-6.005-.871-1.015.625-2.969 1.292-4.761 1.417-1.614.11-3.937-.15-4.697-.541-.969-.5-1.568-.849-1.609-1.469-.037-.49.104-.99.853-1.183.308-.077 1.448-.328 2.771-.239 1.677.11 3.573.848 2.489 1.771-.249.213-.681.156-1.249-.011 1.234-1.297-3.636-1.088-3.593-.489.025.359.353.645.989.859.64.223 2.942.37 3.869.302.989-.068 2.563-.5 3.162-.792.598-.292 1.109-.312 1.38-.697zm-12.865-5.953c0-.11-.453-.131-.708-.126-.25.006-.682.058-.677.145 0 .09.412.205.662.199.245-.005.718-.109.723-.218z" stroke-width=".2"/><path d="m187.002 65.3395c-2.751-5.8747-3.579-7.3386.068-7.932-1.079-.5626-1.38-1.0414-2.084-.8492-1.604.4319-3.891-1.2708-4.921-1.7028 1.025-.396 2.505-.776 3.197-.828.136-.016 1.541.5413 1.719.516-.261-.584-2.848-2.204-3.261-2.1092-2.229.5146-5.489 1.4465-6.926 1.8225.468 1 5.312 1.5881 7.822 2.8961.02.8426 1.167 6.5253 4.386 8.1866z" stroke-width=".2"/><path d="m66.4285 109.205-.6973 1.667c.0306.197.2347 1.765-.396 2.962l2.1773-.036c.0307-.812.8908-2.109-.8279-2.917l.5626-1.536 2.0308-.047c-.8696 1.402-1.2922 3.724-1.276 4.484l.7131-.014c-.7866 2.233-1.0786 3.437-1.2813 6.514-1.9213-1.812-5.5826-1.91-6.0305-1.666.0825-1.192 1.1345-3.203 1.3118-3.515l-.4119-.057.5573-1.292 1.9227.093c.292-.547.708-1.14.4948-2.896-.8642-.068-1.5734-.145-1.8495.016-.4839.292-.88.823-1.0252 2.349-.1361-1.469-.1201-2.562.2959-3.209.2146-.337.568-.541.8493-.812m3.7027 6.588c-.5666-.875-3.5-.837-3.8332-.817-.4734.406-.8695 1.614-1.0201 2.136 1.8533-.235 3.9787 1.405 4.7186 2.134-.0319-1.005.1721-2.317.1347-3.453zm2.12-7.353c-.3639.02-1.14-.708-1.9214-1.454-.9746-.942-2.8385-1.64-3.5267-.822-.1759.202-.3171.401-.3066.828.0053.182.1507.396.4067.5.1973.077.4788.13.8586.15-.0879.672-.14 1.131-.4946 1.136-1.4426.011-1.812-1.338-1.708-1.989.124-.756.296-1.037.5826-1.401.5788-.73 1.2402-.756 1.8547-.792 1.5881-.094 3.1347 2.614 4.2547 3.844z" stroke-width=".2"/><path d="m70.4806 83.2195 3.0732-5.932 1.812-.4587.7707.6055-2.1133 4.2279c-.2092.4173-.0894.8653.4574.8333.584-.0307 1.4746-.2707 1.704-.76l1.6345-3.484-.6451-1.1666 1.828-.8748.3852.4214.604-.0306-1.12.6666-.3906-.5266-.7494.3494.6254 1.1198-1.6001 3.4214c-.4626.9894-2.432 1.4694-3.0773 1.1667-.3652-.172-.2561-.828-.0786-1.1933l1.9319-4.0254-.3533-.3332-1.3601.3119-1.9839 3.7453c.3334-.2186 1.2454-.5.6614.5573-.3334.5987-1.4695 1.4587-1.4695 1.4587m.1575-.6826.4572-.8906c.5628-.4641.7762-.3855.5481.0305-.1667.2974-.62.7761-1.0053.8601z" stroke-width=".2"/><path d="m116.324 132.668c-2.166 1.693 2.506 3.01 3.413 4.614.905 1.604-2.147 3.308-2.085 3.319.095.004 3.443-2.027 2.59-3.557-.86-1.532-5.328-2.907-3.918-4.376zm-9.551-87.4112c.057-.0373-.241.0935-.5.1921-.047.0894-2.511 1.1613-3.859 2.396-.054.2813.968.9266 3.588-.3854-.417.62-2.912 3.2454-4.552 4.24-.713.4374-.532-.5786-1.5842-.1146-1.5986.708-5.8746 3.844-6.172 6.292-.14 1.1453 4.8868-2.5054 4.6307-1.4694-.3225 1.2974-2.4161 6.74-6.2134 9.416-3.4173.62-3.6091.5894-5.9425 1.0426-3.0414 0 5.8334-5.0426 1.6972-5.2506-5.2133-.26-6.0467 2.5107-7.2186 4.7867 1.328-2.24 2.3706-5 7.2973-4.708 3.4013.2027-5.1667 5.3227-1.8547 5.3227 2.3333-.4481 2.6828-.4534 6.1001-1.0787 3.7907-2.6761 5.9626-8.2133 6.2853-9.6867.2294-1.0414-4.8854 2.6507-4.708 1.5053.3388-2.1359 4.5786-5.376 6.1773-6.0946.8965-.4054.7495.6666 1.4635.2293 1.641-1 4.469-3.8693 4.938-4.7026-2.615 1.312-3.792.9373-3.74.656 1.287-1.1774 3.896-2.416 4.167-2.5881zm-26.1205 21.1454c-.9947 1.6773-2.1347 3.088-5.1719 2.6613 2.3546-2.8014 5.516-6.0413 7.5267-8.604-1.3135.9694-1.3333.792-.7347.1147-.896.9427-1.1454 1.344.308.2707-2.4908 2.7186-4.9014 5.532-7.2561 8.3333 3.3693.432 4.432-1.0413 5.328-2.776zm25.4635-20.912c-.27.0786-.974.3293-2.275.7719-3.256 1.6614-6.3139 3.5667-9.6472 5.1294-2.3852 2.136-3.8172 2.964-5.6706 4.672.348-.776-.0534-.6773-.8079-.192.6452-.36.9839-.344.6559.3853 1.8493-1.7093 3.5108-2.6519 5.9014-4.7866 3.3334-1.5627 6.3904-3.4693 9.6454-5.1307 1.261-.484 1.776-.692 2.198-.8493zm71.965 2.3547c2.561 1.3906 5.656 3.792 8.681 5.4373-1.681-1.12-4.536-3.4107-8.681-5.4373zm-10.574 1.2706c-.77-.0106-1.729.104-2.932.308 7.943-1.0786 2.167 5.796 12.386 3.7814-7.896.5986-4.079-4.0214-9.454-4.0894zm-24.698.656c-2.307.1574-4.963.9694-5.865 1.776 1.318-.952 5.88-1.9 7.719-1.2334 1.626.5881-1.166 1.6507 1.391 3.1614 1.027.6094 4.833.6254 8.177.0414-3.323.4174-6.885-.0414-7.641-.3068-1.271-.4533.365-2.7346-1.192-3.2453-.683-.2239-1.609-.2599-2.589-.1933zm16.557 1.8547c-.364 1.3081 4.824 7.8693 8.604 7.984 1.131.0373 1.611-1.1973 2.39-1.9679.776-.7708 1.287-1.2654 1.735-1.3494.355-.068-.91-.568-1.735.0359-.828.6094-1.582 2.1467-2.275 2.3187-2.469.5988-7.365-6.016-8.719-7.0213zm-22.73.3081c-.025.0826-.046.1506 0 .2279-.02-.0773-.025-.1453 0-.2279zm51.126.6919c-.025.0733.407.3493.656.656-.094-.1921-.224-.3853-.463-.5773.714-.152 5.542 3.6506 6.172 4.208 1.036.9066-1.073.036-.964.8066.183 1.2814 4.167 4.7668 7.527 7.9906-1.751.5988-3.939 2.7388-3.939 4.052 0 2.2654 3.314 3.1561 4.401 4.5882 1.027 1.3546-.671 2.1252-4.593 3.24 2.178.9372 6.62-.4068 5.787-2.9694-.912-2.8227-3.923-2.1866-4.511-4.744-.224-.9694 3.025-3.4226 3.588-3.6254 3.699 2.744 9.047 8.7294 8.642 10.068-.137.452-1.782-1.1826-2.662-.6933-1.543.8493 4.124 9.484 5.9 10.26.647.2813 1.074-4.2333.543-4.2439-1.063-.0108-.089 3.4892-.735 3.1666-.683-.3441-5.084-5.9854-4.975-8.0267.038-.724 2.792.8853 2.735-.1147-.088-1.6346-5.281-7.5413-9.525-11.1506-6.131-5.8227-7.943-7.3068-7.604-7.7974.369-.468 1.853.4374 1.547.0426-.724-.9226-5.615-4.7038-6.986-5.0572-.38-.1-.525-.1148-.541-.0787zm.656.656c.109.24.12.4373.114.5413.12-.1666.027-.364-.114-.5413zm.079.5786c-.083.0881-.208.1294-.235.1561.131.0573.188-.0214.235-.1561zm-1.583-.5c.494.3227.916.5735 1.197.6201-.406-.188-.792-.4014-1.197-.6201zm-14.699 3.4734c2.308 1.3386 5.255 4.0213 5.901 5.9426.52 1.552-1.256.9853-3.474 1 2.131.8387 4.901 1.0681 4.631-.8479-.339-2.4227-4.339-6.1054-7.058-6.0947zm-36.041.5c-3.027.9893-5.724.4013-9.027.6201-.011.104-.025.2972-.041.4226 2.932-.1934 5.751.228 9.068-1.0427zm-9.104 1.3133c-.281 1.916-.652 3.848-.579 5.208.011-1.4533.402-3.7546.579-5.208zm-40.2455 3.2387c-1.4425.084-3.4787.844-3.896 1.6987-1.7813 3.6453-4.3533 7.0466-7.8333 5.9426-2.1868 1.8494-6.6667 7.5413-6.5986 10.1094.0159.5826 2.5986-2.828 2.8174-2.24.3546.9692-.8067 3.344-1.812 4.98-.8655 1.3999-1.9428 3.2493-3.1668 4.0093-.2346.1467-.532-2.0201-.8854-1.5413-2.4532 3.3279-5.2973 8.396-5.208 11.6506.0521 1.8548 3.3908 3.136 5.672 0 .7962-1.0933-.0947-4.7492.8855-5.7492.5879-.5934 1.6919-1.3694 3.0519-1.6201 1.3174-.24 4.2601.276 4.0467 1.6201-.3801 2.4839-3.8494 4.3119-2.5413 5.5986 2.1507 2.1094 8.9212 1.6199 12.192-.2707-1.5574-5.0627 1.9746-13.8027 5.6306-14.9319 1.2653-.3908 2.416 1.2439 4.0146.8066 2.9388-.8014 3.6202-3.6868 3.6667-5.4787.0428-1.6934.4586-3.7813-1.0039-3.4319-1.876.448-5.068 3.9892-6.5214 2.6239-2.3654-2.2187 1.1614-6.2814 2.7759-9.26-1.6091.0107-6.5786 1.516-7.5213.6933-.0052 1.4787 5.0894-.1773 6.8654-.1933-1.6146 2.9786-4.7653 6.7507-2.5468 9.104 1.1402 1.208 4.5668-1.7493 6.4482-2.1973 1.4625-.3494 1.0413 1.3173 1 3.0106-.0426 1.7854-.3814 3.9787-3.3188 4.7854-1.5986.4386-2.5933-1.3948-3.8586-1.004-3.6614 1.1293-7.9227 10.1813-6.3652 15.2386-3.2708 1.896-8.7294 1.7867-10.8802.3853-1.5359-.9946 2.0054-3.2239 2.3907-5.7079.208-1.3494-2.9266-1.9786-4.2439-1.7347-1.3548.2453-3 1.2133-3.5894 1.8133-.9787.9948-.0106 4.744-.9266 5.7494-2.2814 2.4946-4.964 1.9266-5.0161.0733-.0879-3.256 2.6881-7.8707 4.8227-10.8799.3439-.4854.652 1.4946.8853 1.3479 1.2241-.76 2.4481-2.8227 3.396-4.1667 1.0987-1.5467 2.5267-4.8907 2.0467-5.9786-.2494-.5734-3.036 2.844-2.896 2.276.652-2.568 4.2614-7.2548 6.448-9.104 3.48 1.104 6.052-2.3387 7.8294-5.9786.4786-.9748 3.0666-1.792 4.4786-1.6628.224.0214.3546.0627.464.1147.0933-.2493-.0534-.4053-.6199-.4627-.1775-.016-.3708-.0466-.5788-.0373zm1.1987.5053c-.3079.7974-3.1934 2.48-3.5894 4.204-.0518.224.0214.3854.156.5 0-.052-.0146-.0893 0-.152.4694-2.052 4.428-4.0306 3.4334-4.552zm85.1558.5c-1-.036-1.598 1.016-1.584 2.084.027 1.692 3.98 9.692 7.142 10.7654-5.271 3.3386-6.459 2.4066-14.205 3.6252 5.027-.3186 11.653.7027 16.131-3.9318-3.978-1.9121-6.412-6.3334-7.64-10.4228-.458-1.5252.364-1.364 1.271-1.6974-.412-.2866-.782-.4119-1.115-.4226zm-46.688 1.2347c.016.4067.063.708.194.8493.041.0467.071.068.114.1146-.089-.1519-.183-.3026-.234-.5-.033-.1412-.058-.3079-.074-.4639zm9.104.0787c-.172-.0054-.348 0-.5.036-2.536.6399-4.364 3.188-6.134 3.0879-.756-.7493-1.152-1.1239-1.506-1.468 1.463 1.6614 1.864 2.104 3.318 1.6201 2.188-.724 3.661-3 6.177-2.8908.145.0054.281.0308.421.0721-.568-.2547-1.181-.4427-1.776-.4573zm-61.8118 4.7814-.036.0772.8066.308c-1.4266 1.5933-6.4425 6.3386-6.4786 10.1094-.0053.3386.0934.5306.228.656.2667.2439.8493-.292 2.2041-1.6987.0252-.0253.3279-.364.3439-.036.0626 1.068-3.152 5.8079-3.896 6.672-.4014.4733-.48.4587-.6146.0787-.3281-.8908-.4427-1.3187-.6201-1.2721-.3547.0894-2.8226 3.3707-4.6307 7.3707-.572 1.2654-1.12 2.7547-1.468 4.1293-.2706-.2186-.9118-.7599-1.1933-.8479l-.0773.2653c.4427.192.8387.4119 1.3906 1.1973.6094-3.6506 3.6148-9.4626 5.9-11.8426.3188-.3334.6614 1.8693 1.0054 1.504 1.8187-1.9574 4.4374-6.348 4.3601-7.3694-.0735-.9426-1.8855 1.656-2.4695 1.7347-.0986.0161-.3332-.0879-.3479-.2707-.2719-2.964 3.4947-7.2346 6.5573-10.3746m115.2138 1.3479c-4.396-.0933-9.986 3.4587-9.339 4.1255.91.9372 5.839-4.5628 12.115-3.396-.793-.4841-1.762-.708-2.776-.7295zm.62 1.0427c5.593.8694-.527 7.864 7.442 6.7494-6.579-.5306-.365-7.0734-7.442-6.7494zm-32.721.8067c-6.65.2187-13.161 3.2493-11.113 5.864 1 1.276 5.427 2.584 4.438 3.9387-2.204 3.0093-7.683 3.3332-17.438 4.3586 14.572-.3173 15.594-1.1667 18.828-4.1306 2.203-2.0254-3.625-3.1094-4.516-5.1706-.964-2.2294 7.807-5.0948 14.083-4.5535-.963-.1759-1.957-.2799-2.968-.3066-.443-.0107-.871-.0107-1.314 0zm1.621.812c-.307-.0054-.61.0213-.927.0373-1.522.0934-3.146.4268-4.323 1.0054 3.011-.428 5.552-1.0894 6.87.156.677.6346-.891 2.7546-.693 3.9733.375 2.3653 1.495 1.9587 12.151 1.3493-9.661-.312-12.093 1.1774-9.76-4.6666.484-1.2134-1.193-1.828-3.318-1.8547zm21.604 2.8906c-.083 0-.151.0321-.192.0787-.818.9787 5.702 5.2294 5.557 9.724-.057 1.7654.02 1.916-2.776 1.6614 2.323.7346 4.244 1.0212 4.281-1.5054.063-4.2492-5.604-9.9266-6.87-9.9587zm33.376 6.4067c2.077 3.208 3.661 4.8853 5.405 9.8028-2.64 1.9159-5.151 5.2186-4.943 8.0617.162 2.166 2.937 3.313 2.855 4.672-.104 1.786-3.005 4.433-4.937 4.937 2.822 1.855 6.281-3.301 6.249-5.671-.009-1.177-2.244-1.652-2.817-3.938-.64-2.5671 3.447-6.6565 3.822-6.9792 1.557 1.3547 3.828 15.9592 5.323 9.4892-1.604 4.323-2.968-6.1811-4.823-9.7238.855-.5107.464-.3479 1.235-1.0413-.115-.2654.011-.5161-.386-.9268-.942.7188-.677.4268-1.197.9268-1.204-4.052-3.215-7.5161-5.786-9.6094zm-63.97 2.588c-8.057 2.0734-10.322 1.98-15.667 2.276 5.485.8028 9.584-.3374 15.667-2.276zm-19.869 1.8134c-.521.0054-1.229.036-2.204.0773 2.349.0213 3.147.7973 3.167.7721 2.6 2.3066 4.272 6.3278 4.125 9.7226-.125 2.9961-1.14 4.8601-5.901 3.5481-4.578-1.2615-9.949.432-8.99 5.785.647 3.615.792 8.391 7.213 7.912-3.962.052-6.312-4.74-6.014-8.833.396-5.609 5.52-5.192 9.719-4.208 2.281.536 4.39.807 5.598-4.2815.454-1.9266-1.046-6.136-4.865-10.4173-.405 0-.301-.0934-1.848-.0773zm50.776.4213c-.423-.0107-.792.016-1.161.0413-2.205.1414-3.475 1.016-3.59 2.7347-.244 3.9067 3.09 10.7458 7.876 9.5319-4.772-2.1413-6.371-5.8959-6.177-9.9533.088-1.7346 1.864-2.1666 4.401-2.2399-.474-.0574-.933-.104-1.349-.1147zm-53.131.12c-5.64.1253-13.869 3.672-16.516 5.0107-1.254.6399 4.24 4.12 3.163 5.6346-2.986 4.2095-11.959 4.9335-15.9748 3.8605-4.2346-1.136 3.7238-6.7659 1.4268-8.1831-2.9162-1.796-9.1148-.3534-15.8174 2.5106.7292 6.1205 1.0106 7.0985-.3494 11.2655-.4787 1.475-2.2547 5.24-6.328 2.084-2.172-1.677-4.0932.125-4.5521 3.437-.6292 4.552.2707 9.011 4.3601 5.438 1.624-1.416 4.1666-.714 4.6294.62 1.9386 5.609 3.5105 9.458.8852 14.39 13.136-3.541 18.2202-1.313 20.1052-.578 2.536.989.182 3.453-1.891 6.286 3.058-3.177 4.578-5.396 2.312-6.828-4.046-2.568-13.6089-1.245-19.6354.386 2.0626-4.402-.0521-10.531-1.4268-13.776-.8012-1.886-3.708-2.547-5.208-1-4.3852 4.51-3.8172-2.479-3.396-5.402.2602-1.838 1.464-3.937 3.5468-2.468 2.2239 1.563 4.3692 3.11 6.984-1.933 1.8706-3.604 1.6719-7.801.8492-11.8855 6.6361-2.604 11.3802-3.88 14.432-1.8853 1.3652.8907-4.9266 5.1093-2.7812 7.1358 2.308 2.183 14.3594 1.468 17.8654-2.7398 2.265-2.724-4.651-5.432-2.626-6.4427 3.938-1.9586 11.855-4.9626 18.178-4.744-.678-.1413-1.432-.2146-2.235-.1933zm53.823.9641c-.454.0052-.9.052-1.391.1506 2.147.7293 3.021.88 5.557.4266-1.566-.2706-2.812-.5987-4.166-.5772zm-111.6615 1.0772c-1.1346.0107-2.3013.276-2.9733.8907-1.2347 1.1307-.2974 4.448-1.3134 6.2507-1.4267 2.536-4.3532 2.9733-6.4786.692-.724 4.2971-2.5734 13.0631-3.9374 12.6931l.0774.12c1.3546.552 3.3654-7.704 4.0894-11.9637 2.104 2.2397 5.5305.7132 6.948-1.7761 1-1.7601-.3708-5.0307 1.0774-5.8227 1.6666-.9173 5.9958-.8026 4.8238.6146-1.1572 1.4014-3.2612 3.6454-2.3546 5.6722 1.052 2.3532 8.9268 2.5572 13.0054.1919.3227 4.7238.6666 10.4178-2.3174 12.3498-1.4854.958-3.1668-1.932-5.016-2.011-4.0267-.161-6.3693 11.735-1.464 13.776 1.708.713 2.652-1.891 5.5159-2.355 1.5361-.244 3.5 10.964 1.812 13.505-2.6759 4.038-12.9106 1.257-14.7385-.847-.9428-1.084 2.9679-3.844 1.812-5.595-1.9641-2.968-7.552-4.025-9.26-2.353-2.1148 2.072 1.6292 6.432-.0374 7.79-1.0879.891-3.6094-.572-4.552-2.582.1934-3.984 1.0574-17.26-.8907-13.776-.0093-1.479-.0465-2.522.0428-3.475-.1307 1.245-.1721 2.557-.1575 4.016 1.9228-3.463.808 9.656.6934 13.699 1.2654 2.442 3.9534 3.686 5.0574 2.776 1.688-1.391-1.912-5.871.2292-7.986 1.7294-1.708 5.62-.468 8.104 1.97 1.5254 1.489-2.2866 4.276-1.7346 5.63.8333 2.067 12.74 6.036 16.36.891 1.7853-2.548-.3814-14.688-2.704-14.125-2.8533.692-3.76 3.114-5.4372 2.276-4.5522-2.271-1.7815-12.527 1.4265-12.464 1.8708.041 3.6667 2.87 5.1667 1.89 3.0213-1.968 2.876-8.801 2.548-13.6198-4.4907 2.6987-12.4332 1.7133-13 .3853-.8906-2.0773 1.3387-4.3586 2.5054-5.7854.744-.9012-1.0426-1.5572-2.9281-1.5426zm119.4945 4.7868c-2.801.2972-5.796 3.7185-5.322 4.4746.843 1.3531 3.718-4.2561 6.442-4.4014-.192-.0466-.385-.068-.577-.0732-.188-.0108-.355-.02-.543 0zm-131.609 1c-.1775-.0054-.3282.0732-.3909.2705-.1613.5321 1.7241-.3533 1.1615 2.3547-.4733 2.2705-1.2601 7.0735-2.8174 10.0735-.192.364-.5254-2.344-.8906-2.204-1.1666.475-2.2868 10.073-1.5054 11.079.016.016.4479-.912.5786-.464.744 2.541-.2706 3.88-.2293 10.844-.172-.626-1.5573-3.474-1.6613-2.355-.0267.328 1.0214 2.448 1.812 3.319-.0932-3.803 1.224-10.136.2706-12.543-.1186-.307-.5572.557-.692.693-.1666-3.016.0254-7.817 1.2707-9.953.2454-.416.5213 2.875.7707 2.505 1.688-2.464 2.6613-8.036 3.2814-11.0731.3334-1.5987-.4428-2.5146-.9586-2.5466zm132.344.0412c-.14.016-.26.084-.349.1934-.094.1093 8.734 8.7401 5.557 13.8911-2.995 4.849-16.197 5.546-17.323 6.521 4.989-.939 15.918-.417 19.136-7.027 2.265-4.645-4.932-13.8492-7.021-13.5785zm-63.823 6.5215c-.598-.005-1.15.099-1.62.464 1.901-.125 6.552 1.932 9.918.343-4.006.406-6.497-.796-8.298-.807zm82.416.036c-4.348.109-10.905 4.74-9.874 5.901 3.843-1.76 3.974-3.91 11.573-5.672-.506-.192-1.073-.244-1.699-.229zm1.235 1.12c1.579 2.953-2.662 10.724 3.011 7.527-4.255.79.119-6.776-3.011-7.527zm-35.301 4.323c-6.896-.119-16.653 3.652-16.746 7.485-.057 2.375 7.86 3.479 4.667 5.864-8.125 6.073-19.188 3.797-19.484 5.245 4.932.031 14.702.651 21.609-5.552 2.604-2.349-5.65-4.442-5.213-6.256.823-3.348 12.014-6.921 17.905-6.478-.833-.188-1.754-.292-2.738-.308zm-120.1525.344c-.3693 1.204-.5933 2.385-.7332 3.666.0879-.896.312-1.734.6559-2.853.0933.359.2188.796.4266 1.156-.2186-.557-.24-1.541-.3493-1.969zm121.2705 1.12c-1.254-.011-3.052.24-5.052.308 5.073-.038 6.204-.59 3.469 4.437-2.161 3.979 4.334 3.567 5.979 3.473-1.744-.073-5.552-.88-3.932-3.625 2.24-3.807 1.62-4.577-.464-4.593zm-41.056.578c-3.75.124-6.22 3.547-8.605 4.167 2.407 1.443 5.74-4.443 11.423-3.661-1.016-.402-1.949-.532-2.818-.506zm62.509 1.198c-3.754 1.588.991 16.229 5.36 13.312-4.98-2.015-4.849-7.802-5.36-13.312zm-61.775.114c-.088.011-.187.016-.271.042 2.292 3.125 6.871 8.932 4.437 14.469-6.385-.131-21.948 3.557-25.077 5.978-4.505 3.485 4.219 5.746 2.697 7.329-2.849 2.969-11.208 3.584-16.359 1.698 2.958 2.515 14.797 1.995 17.365-1.698 1.432-2.058-6.568-3.943-3.818-6.479 3.057-2.828 18.14-6.339 26.427-6.021.12-.38.667-.787 1.041-1.734 1.662-4.193-3.364-13.078-6.172-13.584-.093-.016-.176-.005-.27 0zm72.849 6.214c-2.422.114-5.172 5.713-6.136 5.942 2.849 1.5 4.407-5.582 7.136-5.598-.323-.235-.656-.36-1-.344zm.385 1.041c-.593 1.751 3.297 2.86 1.312 10.068-1.978.167-4.697-.557-7.099 2.317-.754.896-3.369 11.428.809 15.47-5.636 5.745-15.99 6.609-17.246 7.448-.786 1.593 12.479-1.036 17.36-6.251 1.4-1.495 12.785-11.4 13.932-10.645.645.422-1.98 7.27-1.39 8.369.582 1.089 6.068-4.536 7.177-6.984-1.948 2.828-5.724 6.803-5.943 5.865-.568-2.423 2.609-8.854.042-8.062-2.568.79-10.662 6.994-12.542 9.025-1.901-.511-2.636-9.812-.813-13.735 1.308-2.801 6.563-.692 7.333-3.046 1.328-4.047-.353-9.219-2.932-9.839zm-146.7344 5.829c-1.0668-.032-2.0054.364-2.4321 1.5-.5733 1.542 2.1093 5.198.7706 6.676-1.4625 1.62-3.3853 1.521-5.8225-1.426.6666 1.478 3.6399 3.86 6.3279 1.584 1.812-1.543-1.5519-4.787-.812-6.834.7868-2.166 3.916-1.114 5.6721.312 2.2652 1.834-1.1988 3.578-.7348 5.672 1.1348 5.109 12.6348 5.391 15.1613 4.708-1.5519 5.35-.5105 16.271 8.1828 12.921-7.2507 2.465-9.2133-7.218-7.2133-13.577-4.7666 1.364-14.9334.146-15.5535-3.822-.5093-3.276 3.7815-4.136-.1919-6.558-1.0626-.646-2.292-1.13-3.3546-1.156zm91.5214 2.468c-.552.068-1.921.287-2.975.344-1.4.078-7.432.255-7.484.427-.109.371 5.558-.115 6.948-.156 1.386-.036 3.443-.437 3.74-.62.052-.025-.046-.02-.229.005zm-17.136.656c-.563.022-1.088.09-1.619.152 2.036.072 3.307-.068 4.13.192-.135 2.448-4.302 15.37 7.292 15.318-8.703-2.042-6.251-9.791-5.902-15.51-.53-.084-2.213-.22-3.901-.152zm-82.3335 2.932c-.7134 2.756-.1453 10.079 1.2347 11.73.6987.833.8174-1.656 2.1559.193 1.4175 1.943 2.5107 7.203 1.4695 9.839 1.8639-2.115.4319-6.787-.6934-9.532-1.5666-3.818-3.0986.318-3.4734-2.162-.3906-2.572-1.2452-5.786-.6933-10.068zm44.7187 2.663c-.656-.016-1.364.009-2.1614.036 3.5842.317 4.5262.432 4.5112 1.697-.016 1.891-4.7658 5.1-2.391 6.907 2.141 1.625 2.751 1.016 8.218 1.697-5.557-1.03-7.4368-1.233-7.254-3.202.186-2 3.421-4.078 2.781-5.631-.469-1.124-1.75-1.457-3.7038-1.504zm-5.7906.036c-3.756.063-7.5426.495-10.4174 1.812-1.604 5.36-2.5359 12.407 2.5466 14.084 2.6774.885 5.1307-2.813 7.7188-2.276 4.3386.896 6.464 7.468 3.8546 11.651 3.6038-2.604 1.7653-12.255-4.4733-12.344-3.2147-.047-5.7293 3.198-7.1774 2.428-3.6934-1.959-3.2039-8.724-2.0052-13.272 3.6973-1.37 5.6399-1.838 13.6559-2.047-1.2026-.036-2.4479-.057-3.7026-.036zm134.4674 3.046c-2.838 1.422-2.973 6.943-1.582 9.995-.885-2.984-.896-7.906 1.582-9.995zm-71.421.85c-4.141-.032-6.579 4.276-10.76 4.864 3.765 1.964 7.318-4.76 12.651-4.552-.672-.208-1.297-.307-1.891-.312zm-14.469.271c-.359.139-.178 1.51.699 2.587.874 1.074 2.462 1.834 2.932 1.658.213-.079-1.094-.944-2.006-2.005-.916-1.063-1.458-2.303-1.625-2.24zm15.281.849c-.177.047-.296.197-.349.426-.129.631 2.615 2.141 2.548 5.053-.037 1.697 1.208 5.86-3.625 5.286-5.126-.609-11.746-.781-12.151 7.563-.141 2.896-.943 5.02 1.348 8.296-6.052.865-23.427 3.636-24.541 6.287-1.266 3.015 5.25 3.906 4.516 4.98-.923 1.338-8.563 2.213-15.318 1.233 1.265 2.406 13.963 2.281 17.13-1.005 1.239-1.286-5.63-2.777-4.667-4.9 1.229-2.699 22.198-5.834 25.541-5.751-3.437-4.547-2.358-7.282-2.118-9.14.656-5.177 1.978-7.475 8.025-6.871 4.896.495 7.776.991 7.828-5.823.026-2.781-2.755-5.567-3.974-5.634-.068-.005-.135-.016-.193 0zm-98.5824 8.025c.6506 3.912.572 5.844-.964 2.855-.5788-1.115-1.7027-2.708-1.6974-1 1.0934-1.115 2.5574 4.401 3.0094 2.891.6466-2.167.084-4.746-.348-4.746zm127.1344.038c-5.692.009-16.582 4.213-18.443 7.989-1.046 2.124 6.61 3.651 4.553 5.172-8.932 6.588-22.172 4.806-22.11 6.135 3.265.448 18.043-.448 24.156-6.563 1.699-1.697-5.624-3.484-4.208-5.4 2.558-3.459 13.178-7.068 18.984-6.636-.583-.5-1.618-.697-2.932-.697zm20.489.27c-2.082 1.922 2.339 7.37-.503 10.88-2.506 3.104-7.115.296-9.798 4.787-1.88 3.14-3.01 9.29 2.276 8.525-2.833-1.864-2.442-5.129-.656-8.062 2.64-4.344 6.791-.99 9.375-4.864 1.901-2.844 1.916-8.084-.694-11.266zm-19.525.848c-.161.027-.303.152-.385.428-1.151 3.817-2.969 4.421-2.932 6.328.025 1.172.724 1.416 3.244 1-.989-.218-1.359-1.026-1.312-1.578.125-1.635 1.677-3.187 2.427-4.979.172-.401-.542-1.261-1.042-1.199zm-93.4892.194c2.9948 4.349 3.3695 8.021 1.348 10.073-1.0466 1.067-6.5466-3.928-9.0252-1.776-3.7027 3.213-1.8388 11.391 1.2347 14.353-4.3708.412-11.3387-.989-14.1987-4.281-1.2026-1.391 1.464-2.651.3079-4.402-1.5159-2.29-9.8279-5.937-10.3385-4.014-.0842.323.0252.771.1918 1.235-.0719-.267-.0572-.459.0788-.579 1.7654-1.604 7.3906 2.26 9.724 3.702 1.2347.771-1.4121 3.391-.3906 4.366 3.3852 3.219 9.6972 5.624 16.0518 4.281-3.188-3.699-5.0412-10.214-2.2346-13.505 1.7134-2.011 6.8906 2.468 9.5266 1.312 3.0987-1.355 1.3227-10.115-2.276-10.765zm-3.0465 1.276c-.3295.166-.6628.328-.9641.464.312-.131.6307-.293.9641-.464zm-33.4175.035c-.6306 5.287 3.2814 13.725 7.8747 15.631 3.2293 1.334-.0307-2.328-1.3907-4.672 1.1094 2.099 3.0788 4.527 2.276 4.36-4.4786-.923-8.5053-8.573-8.76-15.319zm95.1502 1.47c-.483.016-.817.073-.806.151.03.36 5.192.844 5.167.385-.022-.359-2.912-.583-4.361-.536zm-64.822 6.864c-1.9482.147-1.828 10.166 1.6198 12.735 1.4534 1.084 17.0052-1.766 23.3852 1.931-4.213-4.623-19.2705-2.134-22.7652-2.666-3.5-.525-3.8746-12.167-2.0465-11.957-.0681-.016-.1307-.048-.1933-.043zm-22.6094 1.235c-2.8013-.058 2.7026 5.385 2.24 7.062 1.5986-2.308-3.568-5.745-2.24-7.062zm6.2134 3.087c1.1718 1.267-2.3855 3.314 1.7758 6.173-3.1814-3.572 1.756-4.886-1.7758-6.173zm135.819 2.355c-3.095-.063-5.86 4.199-8.147 6.558 2.823-2.074 5.407-5.276 8.761-6.479-.209-.047-.412-.073-.614-.079zm-.699 1.041c-.052 0-.104.033-.151.079-1.109 1.047 1.391 5.604-1.125 9.531-3.25 3.771-11.489 7.292-16.432 9.297 3.5-.145 12.724-4.765 15.355-7.407-1.465 4.214-3.579 7.585-.694 7.214-2.39-.733 1.052-5.823 2.006-8.447 3.817-2.526 5.967-5.423 9.609-8.682-2.255 1.656-6.047 5.796-8.297 6.906 2.068-3.578.546-8.48-.271-8.491zm10.344.771c-5.552 10.229-1.787 5.532 2.391.235-3.86 3.521-7.47 10.256-2.391-.235zm-67.099.735c-.464.152-.974.969-.771 1.235 1.657 2.155 3.859 5.702 3.782 6.677-.543 6.552-4.797 4.167-9.224 3.703-3.011-.318-7.199 1.256-7.448 3.86-.371 3.885 3.036 6.953 5.328 6.286-2.672-1.745-3.844-3.829-3.396-6.329.64-3.577 7.374-3.077 10.109-2.583 4.192.755 6.298-2.598 6.479-5.251.12-1.691-2.088-4.571-4.432-7.483-.12-.146-.276-.167-.427-.115zm-58.8438 4.745c-.484.563 5.016 5.364 4.3586 9.88 2.4227-3.01-3.9052-10.406-4.3586-9.88zm17.5218.036c1.546 1.303 1.129 1.938.15 2.817-2.422 2.178-2.521 3.121 1.468 4.325-2.514-2.095-1.109-2.568-.077-3.511 1.792-1.641 1.645-3.443-1.541-3.631zm-19.0631.271c-.3801-.296 4.7813 6.469 3.4319 9.338-.8279 1.766-7.6933-4.098-9.3746-1.849-.792 1.057 1.9733 5.735 4.5521 7.871-2.7815-2.984-5.1361-6.579-3.8187-7.484 2.0372-1.407 7.4174 4.427 9.5679 2.276 2.4586-2.464-2.724-8.866-4.3586-10.152zm120.3421 5.751c-1.139-.084-4.29 3.978-5.708 5.786 1.621-1.751 4.714-5.1 5.09-5.016.339.079-.209 1.688-.652 2.317-2.452 3.485-6.255 4.866-8.416 7.714-1.557 1.923-3.375 3.682-3.511 6.063.298-1.703 2.469-4.214 3.86-5.75 2.921-3.412 5.468-4.693 8.025-7.448 1.053-1.136 1.918-3.27 1.506-3.589-.057-.047-.115-.072-.194-.077zm-19.327 1.005c-5.958.077-18.51 5.911-17.906 7.948.312 1.052 3.938 1.563 3.052 2.468-3.874 3.928-16.578 4.735-17.792 5.787 7.027-.547 16.334-2.688 20.14-6.443.778-.76-4.109-1.651-3.547-2.547.834-1.333 10.793-6.426 17.131-7.177-.333-.047-.682-.041-1.078-.036zm-.119.848c-.693-.296-7.735 8.281-1.928 5.245-2.416-.312 3.437-4.598 1.928-5.245zm-105.4482 1.543c1.3281 4.338 4.1813 7.957 7.9481 6.328 2.1867-.948 9.7281 3.541 11.1511 8.604-.225-4.308-7.0938-10.203-11.2299-9.298-4.2078.918-3.9946-.14-7.8693-5.634zm-8.9173 3.202c-.7347.031 2.7026 2.552 4.4373 4.708.2814.35-1.6812-1.093-2.1972-1.161.4786.484 3.4479 2.276 3.1253 1.661-.7147-1.364-5.1721-4.552-4.4748-4.473 1.3655.15 12.1307 5.468 9.4535 6.405 3.672-.989-7.0108-5.984-9.7653-6.984-.2868-.109-.4695-.161-.5788-.156zm75.8225.464c-3.129.25-6.135 2.343-9.145 3.354 2.745.833 6.358-3.391 12.307-2.854-1.067-.428-2.119-.584-3.162-.5zm1.235 1.463c-.23.037-.412.157-.579.349 1.611 1.563 3.256 2.646 3.548 5.287.219 1.192-.333 1.937-.885 2.896.645.333.952.063 1.619.072.854-1.109 1.25-2.463 1.005-3.547-.457-1.978-3.135-5.287-4.708-5.057zm-56.6042 2.589c8.0932 8.891 8.5162 11.672-9.8799 3.432 13.0359 8.833 23.5771 7.427 9.8799-3.432zm-11.2653.927c-.068-.021-.1199.005-.1934.036-.4425.199-.5252 1.5.5788 2.005.2813-.708.0627-1.926-.3854-2.041zm67.7545 5.208c-6.994.323-18.64 2.923-22.073 4.125-2.307.812 4.996 3.142 3.704 3.396-5.063 1-7.287.896-12.928.312 2.928.959 11.485 1.391 14.854-.233 1.657-.797-5.416-2.448-3.973-2.97 6.203-2.25 13.661-2.885 23.072-4.593-.771-.057-1.661-.084-2.656-.037zm41.98.885c-3.068.486-15.792 10.355-7.37 3.355-10.402 7.916 5.89-3.24 7.87-3.317-.111-.058-.297-.068-.5-.038zm-39.319.23c-2.312.104-2.53 2.557-2.51 4.286.026 1.885 2.084 3.235 4.901 2.584-1.948-.802-2.88-1.084-3.01-3.048-.119-1.801.166-2.443 1.084-3.817-.178-.016-.312-.011-.465-.005zm-48.926 1.275c-1.536.017-2.5.079-2.47.194.167.615 13.355-.131 19.986 2.511-3.199-2.194-12.907-2.751-17.516-2.705zm-4.437 1.006c-.058-.006-.131.011-.194.037-1.14.542 2.152 4.572 5.21 5.9-3.554-2.457-4.158-5.9-5.016-5.937zm1.661.344c1.844 4.083 3.812 6.364 8.563 6.098 3.166-.177 7.166.334 9.53 2.741-2.145-2.642-5.338-3.454-10.459-3.396-3.525.036-6.311-3.099-7.634-5.443zm65.011 0c-2.928-.006-8.626 3.604-10.377 3.745 2.391.952 6.163-2.98 11.418-3.51-.281-.172-.62-.235-1.041-.235zm17.442.271c-3.224.589-11.423 3.369-14.005 5.942-.371.37 2.005.256 1.661.541-3.041 2.486-13.188 3.549-15.401 5.052-.979.673 2.286.735 1.432 1.199-2.317 1.255-8.785.76-10.807 2.506 1.61-.875 10.875-1.798 11.885-2.621.689-.562-2.557-1.035-1.541-1.354 3.853-1.203 12.5-2.26 15.782-5.129.645-.568-3.09-.027-1.277-1.006 3.777-2.032 9.146-4.161 11.807-4.781.708-.167-2.104 1.645-2.817 2.547.88-.531 4.125-3.047 3.281-2.896zm-66.406.5c2.062 1.469-3.954 2.75.849 3.896-1.803-2.094 4.192-3.173-.849-3.896zm48.926.464c-.41-.027-.9.088-1.426.348 2.51.928.671 3.963-1.891 4.053-2.579.088-4.651-.115-6.984 1.041-2.151 1.068-3.516 2.646-2.776 4.902-4.328.582-12.688 1.77-15.631 2.426-.437.104.224.298.927.468-.276-.186.068-.452.385-.541 2.798-.782 11.439-1.531 16.36-2.161-.421-1.036-.958-2.225.427-3.703 1.464-1.574 3.828-1.808 7.136-1.97 1.88-.093 3.76-1.035 4.786-2.702.573-.927-.068-2.079-1.313-2.161zm-51.509 5.557c1.119.858 2.968 2.624 1.968 2.661-2.323.093-9.479-2.156-8.453-.77 3.942 5.317 16.401 4.057 23.037 5.442-5.595-1.542-18.079-.589-21.609-4.901-1.751-2.151 7.738 1.969 8.566.579.491-.824-2.296-2.371-3.509-3.011z" fill="url(#e)" stroke="url(#d)"/><path d="m175.726 46.9955c-1.36.4854-1.917.464-2.547 1.1934.386.5053 1.552.9786 2.162 1.312 4.691 2.5733 3.806 2.308 1.806 4.1306 3.724-1.828.943-2.6613-1.692-4.1306-1.213-.6721-1.161-.6667-2.047-1.312.61-.484 1.277-.8081 2.318-1.1934zm-15.745 4.2813c-.121 0-.063.0681-.386.1147 1.557 1.396 6.47 8.1094 8.912 6.636-2.808.1826-5.885-4.3694-8.526-6.7507zm28.474 1.6987c.594.7813.463 1 .192 1.2346 1.418.1868.204-.8906-.192-1.2346zm-15.854 3.588c2.25.6307 3.896 1.7868 5.36 3.552 1.093 1.3188 1.932 2.8654 1.161 4.0894 2.208-1.2134.525-2.808-1.047-4.5574-1.631-1.808-3.459-2.7132-5.474-3.084zm-.85.308c-.744.692-1.739 1.8067-1.468 2.0467.703.6201 1.495-.7507 1.468-2.0467zm1.814 6.9053c-.579-.0053-.016 2.5735 1 4.5161 1.462 2.7866 3.625 5.4839 5.401 6.5574-.058-.2761.072-.5362.271-.7348-4.017-3.6146-3.59-4.4626-5.172-6.7494-1.574-2.276-.631-3.1719-1.386-3.552zm31.177 2.084c.405 1.1667-.677 1.0987-1.469 1.1614 4.526 4.3853 7.469 7.864 7.797 9.76-.292-2.7387-4.642-6.9161-7.1-9.4893 1.277-.14 1.021-1.2134.772-1.4321zm-3.245.812c-3.198 2.1147-4.115 2.9374-2.506 4.396-1.114-1.3333.396-2.8119 2.506-4.396zm-8.683 4.9747c3.161 1.2547.923 6.072 3.437 5.5988-1.749-.9948.71-4.5362-3.437-5.5988zm-4.552.2333c-5.938 1.8655-8.765 5.6987-11.921 6.7147 1.483-.3906 3.338-1.448 4.864-2.6612 2.068 1.1452 3.818 2.9265 4.937 5.1292 1.266 2.4894 3.355 5.928.657 7.6414 3.525-1.7134 2.468-4.3187.463-7.6774-1.23-2.052-3.208-4-4.979-5.5986 1.964-1.3134 3.558-2.2347 5.979-3.5481zm11.77.0787c3.412 2.328 3.459 4.1507.345 6.208 4.578-2.6292 2.483-4.276-.345-6.208zm-37.853 1.2347c3.291 2.3013-2.308 5.8493 1.812 6.0933-2.317-1.3853 3.344-5.052-1.812-6.0933zm-30.672.192c-2.417 7.3653-.713 11.0893 1.776 14.0427 2.11 2.5093 6.35 8.6813 2.818 13.5831-2.569 3.557-7.911-1.2765-11.657 1.198-3.51 2.318-2.808 7.318-.073 10.646 4.59 5.593 9.866-4.844 13.156-1.812 5.901 5.437 6.548 11.842 4.282 15.358-.927 1.443-1.63 6.688-1.119 9.839.515 3.15 2.265 4.197 5.285 6.136 3.6 2.296 7.522-3.157 11.308-4.672 3.255-1.303 8.396 9.604 1.391 12.156 7.692.984 5.432-14.177-1.355-12.849-4.885.953-7.844 6.63-12.192 4.593-5.234-2.457-4.412-9.984-3.276-14.468 11.234-1.161 20.203.093 25.577-6.907 1.771-2.301-7.489-4.901-5.437-6.52 2.131-1.688 8.194-4.026 8.256-4.052-4.021.714-5.761.843-9.261 3.895-2.463 2.147 6.568 4.5 4.823 6.557-5.006 5.912-14.495 6.548-22.728 6.022 1.394-5.626.973-9.719-4.131-14.818-4.109-4.109-9.814 4.979-12.808 2.354-3.755-3.287-3.782-8.323-2.161-10.572 2.666-3.6938 9.256 2.114 13.427-1.814 3.463-3.2598-.89-9.5825-2.775-13.6971 2.328-.292 5.181-.5986 7.983-1-3.453.3386-6.89.2812-8.953.3494-2.432-4.7041-3.527-7.9334-2.156-13.5481zm23.344.5427c-2.672.8386-2.589.484-5.48 2.0413-3.88 2.088 5.235 3.6347 3.781 6.1773-1.036 1.8014-3.098 2.8908-5.557 3.588 2.762-.5826 5.09-1.3333 6.214-2.276 3.885-3.276-7.797-5.8907-3.744-7.604 1.598-.6773 2.442-1.1092 4.786-1.9266zm-7.256 11.8013c-1.525.3227-3.177.604-4.858.8493 1.671-.1666 3.333-.4173 4.858-.8493zm60.771-8.9893c-.5 0 1.136 3.516 2.048 4.672.671.8586 2.567 3.344 2.697 3.0106.079-.204-1.713-2.256-2.584-3.396-.978-1.2866-1.9-4.2812-2.161-4.2866zm6.021 6.136c.094 2.312-.068 2.176-.464 2.8173 1.084.5253.923-1.6559.464-2.8173zm1.735.812c1 1.344 1.901 2.8494 2.625 4.2026-.672-1.4893-1.474-2.776-2.625-4.2026zm2.625 4.2454c.51 1.1345.979 2.3852 1.504 3.8945.267-.1146-.4-1.8279-1.504-3.8945zm-39.281.8479c-1.491.3547-1.073 7.2187 4.129 9.7613-6.229-5.1774-2.276-9.24-3.781-9.724-.115-.0373-.249-.0626-.348-.0373zm41.52 4.6307c.563 1.792 1.141 3.536 1.579 5.088.447 1.5951 1.369 5.6001 2.432 4.9011-1.089.323-1.891-3.286-2.355-5.0931-.375-1.464-.911-2.9174-1.583-4.9374zm-.891.5c-.838.7133-1.848 2-2.005 2.1973-1.552 1.9853-2.109 3.5999-1.312 5.1358-.531-1.145.458-3.3745 1.349-4.5931.905-1.24 1.328-1.7974 1.968-2.74zm-27.588 1.0053c-.208-.0413-.333.0307-.344.2653-.047.8548 6.631 6.4425 6.131 12.8125.796-.682.348-.468.848-.891.396-5.495-5.176-11.9215-6.635-12.1868zm-3.01.9626c-.845.0267-3.891 3.2561-3.396 3.4747.489.208 4.141-2.9586 3.551-3.4373-.036-.0267-.098-.0413-.155-.0374zm27.396 5.5952c.182.296.364.593.656.885 2.032 2.036 1.817 2.203 1.426 3.631-.301 1.118-1.104 2.306-2.239 3.473 3.495-3.36 3.433-5.36.349-7.797-.073-.058-.141-.124-.192-.192zm-5.287 1.276c-.079-.016-.162.01-.229.036-.411.15 1.046.401.808 3.24-.115 1.38-.574 3.306-.115 4.016.317-.136.041-.224.385-.158-.584-1.541.083-2.713.192-3.937.188-2.052-.489-3.109-1.041-3.197zm-3.511.5c-.848.12-4.405 2.016-9.953 6.093-.244 9.041 2.193 13.907 4.052 13.313.537-.172-2.692-1.756-3.124-12.693 7.385-5.869 9.29-6.245 9.219-6.677-.011-.052-.074-.058-.194-.036zm17.402.692c-.162.062-.454.562-.271.849.468.745.218-.677.271-.849zm-48.694 4.089c-1.547.104-3.317.615-4.667.968 2.663-.323 6.257-.749 6.33.652.093 1.973-2.71 5-1.469 6.099 3.213 2.853 14.447.853 19.213-3.204-.016-.239.38-1.062.156-1.119-2.515 2.624-13.719 7.291-18.25 4.593-1.688-1.005 2.735-4.458 2.047-6.442-.458-1.328-1.812-1.651-3.36-1.547zm50.199 2.932c-.027.057-.021.172-.036.312.015-.135.009-.233.036-.312zm.079 3.823c.066.926.129 1.77.155 2.161.021.339.058.735.115 1.193-.052-.448-.062-.865-.078-1.193-.022-.511-.121-1.312-.192-2.161zm-16.402 2.932c-.167.505 1.927 3.333 2.047 6.136.244 5.672-2.074 5.552-1.62 5.978.459.428 2.724-1.733 2.584-5.942-.109-3.296-2.595-6.214-2.97-6.214zm-2.12.885c-1.516 1.376-2.823 3.215-4.089 4.824 2.235-.995 3.22-2.901 4.089-4.824zm19.135 1.74c.141.719.297 1.365.464 1.813-.156-.48-.323-1.114-.464-1.813zm-.536 4.703c-1.025 2.458-2.23 4.177-3.167 6.87-.65 1.87.99 2.911 1.006 3.859.005.437-.115.948-.35 1.5.147-.301.303-.593.464-.921.339-.703-.562-1.656-.964-3.011-.453-1.52 2.162-5.563 3.011-8.297zm-18.599 4.553c-.849.025-1.672.151-1.661.312.036.359 3.421.453 3.396 0-.011-.245-.886-.333-1.735-.312zm-2.24.427c-1.978-.115-2.401 4.932-2.391 7.213.011 2.683.438 6.771 1.662 7.333.125-.26.713-.62.844-.89-1.744-1.454-1.339-4.14-1.541-6.25-.241-2.5 1.801-7.386 1.426-7.406zm13.547 5.863c-.646.153-.093 1.642-.697 3.547-.5 1.579-1.433 3.735-.615 4.131-.068-1.369.792-3.036 1.193-4.667.405-1.634.744-3.156.119-3.011zm7.715.543c-1.298 1.036-2.049 5.167-1.272 7.755-.536-2.833.068-6.558 1.272-7.755zm-10.724.922c-3.434 2.322-7.391 5.245-10.459 8.145 4.12 6.313 2.177 12.546-2.896 15.005 7.292-2.459 7.265-12.358 4.052-15.468 2.287-2.292 8.437-6.614 9.303-7.682zm6.713 1.775c-.355.511-.771 1.069-1.391 1.812.526-.639 1.006-1.254 1.391-1.812zm-141.5322 6.678c1.8388 3.161 3.6827 3.801 5.7134 3.317 2.3134-.557 4.6308-2.817 6.1719-2.082 2.8081 1.322 4.688 6.994 2.5894 10.145-2.1773 3.265-6.4947-1.855-9.8025-.885-3.3016.968-.9268 11.822 1.9318 13.849-7.0146 1.572-13.3853-1.448-16.672-4.281 1.3028 3.984 11.5894 7.249 16.8654 4.822 3.1506 2.974 6.708 8.771 4.3226 10.61-2.2973 1.765-8.0306-3.235-9.4532-1.891-.8388.792 3.0466 7.281 5.8653 8.104 1.9213.563 3.7959-1.328 6.4787.964-2.1094-2.636-3.344-1.489-5.9014-1.464-3.4947.03-6.9-6.719-6.1347-7.448 1.3015-1.24 7.0574 4.874 9.916 1.969 2.3441-2.385-2.0879-7.818-4.1292-11.037 7.7759-.271 18.7127-1.645 18.0937 2.776.885-.834.921-1.505-.423-2.739 5.12.239 3.079 3.405 1.042 4.749-1.385.907 1.162 2.694 2.277 3.085 4.265 1.509 13.229 1.233 17.786-1.97 1.285-.901-6.385-4.364-5.324-5.016 5.986-3.656 17.23-4.192 24.193-5.593-6.286.579-18.395 1.713-24.808 5.172-1.457.787 6.101 3.822 4.746 5.093-1.954 1.828-7.301 2.771-11.73 2.62-4.432-.145-8.125-1.65-6.254-2.968 9.735-6.885-9.068-6.229-19.9842-5.672-3.756-2.084-5.1826-12.469-2.6985-13.234 3.0573-.943 7.9119 4.13 10.6092.464 2.3693-3.221.4227-9.61-3.896-10.767-1.9265-.509-4.0306 1.641-5.9053 2.204-2.5212.755-4.0374-1.158-5.4854-2.896zm123.2042.656c-3.933 4.803-10.657 6.969-14.161 7.677 7.869-1.046 11.837-4.828 14.431-7.021.083-.907-.109-.505-.27-.656zm-17.324.307c1.942.917-2.864 6.152-2.083 6.25.719.099 5.416-5.338 2.083-6.25zm-4.671.849c-4.496.917-9.1 2.224-12.272 4.86-3.339 2.787 6.194 3.812 3.516 6.254-6.442 5.87-15.979 6.189-24.577 7.173 2.859 3.639 5.222 6.026 3.895 10.035-2.11 6.361-10.839.538-15.124 4.126-2.538 2.125-.495 6.308 2.738 7.177-1.916-1.505-4.833-4.688-2.588-6.636 3.989-3.457 13.787 1.631 16.287-4.088 1.12-2.562-2.412-8.073-3.708-10.073 8.651-.624 18.222-2.615 24.504-8.14 1.641-1.443-6.979-3.579-4.515-5.48 3.875-2.984 10.083-4.744 11.844-5.208zm-33.839 2.391c-.494-.052-1.01.437-1.505 1.234.448-.5.938-.921 1.505-1.234zm-1.578 1.354c-3.047 3.547-3.068 10.959.964 13.812-3.782-3.797-2.693-10.869-.964-13.812zm51.969 9.181c-2.881 1.038-4.589 7.382-1.928 9.069.438-1.572-1.463-4.692 1.928-9.069zm7.49 3.434c-.069.005-.137.047-.199.115-.787.937 1.677 4.129-.578 8.566 3.083-1.733 1.735-8.744.777-8.681zm9.796.885c-.203-.109-2.015 3.891-3.088 5.635 1.302-1.714 3.234-5.552 3.088-5.635zm-12.151.156c-2.026 1.402-4 3.698-6.099 5.172 3.219-1.536 4.547-3.677 6.099-5.172zm9.917 1.198c-3.172 2.666-6.344 6.297-9.844 8.562-.849 2.265-3.86 7.011-2.198 7.948-.624-1.208 1.166-5.52 2.505-7.792 3-2.577 7.412-6.4 9.537-8.718zm-11.614 10.223c-4.246 3.465-7.667 4.981-14.391 7.527 4.905-1.65 8.953-2.865 14.197-7.062.084-.24.047-.162.194-.465zm6.442.079c-.198-.03 1.047 1.823-4.322 6.443 3.937-2.626 5.64-6.23 4.322-6.443zm-18.948 1.583c-.12.021-.25.048-.422.115 1.688-.167-2.13 3.552-2.818 5.13 1.678-1.416 5.094-5.609 3.24-5.245zm17.443 0c-.746.297-4.579 4.39-4.552 4.475.036.12 4.916-4.246 4.629-4.475zm-19.407.652c-3.686 1.03-11.853 3.271-14.396 6.213-.651.76 4.265 1.62 3.323 2.547-5.072 4.959-16.733 6.593-21.495 6.713-1.457 2.683-2.853 6.604 1.006 7.292-2.703-1.464-1.12-4.568-.463-6.636 3.301-.656 17.228-2.005 21.989-7.599 1.115-1.306-4.401-1.15-3.817-2.082 1.443-2.308 9.104-4.808 13.853-6.448zm-35.229 6.02c5.631 4.975 4.098 7.376 3.281 8.876 1.193-.595 1.204-.589 2.199-1.158.651-3.26-2.767-6.645-5.48-7.718zm-2.239.157c-3.198.228-5.338 2.739-9.724 3.276 5.02.162 6.9-2.51 10.343-3.276-.224-.005-.406-.016-.619 0zm50.739 1c-.541.009-3.932 3.823-5.672 6.905 2.417-3.718 5.833-6.535 5.75-6.827zm-48.656 9.11c-7.115.64-16.058 1.994-21.183 3.666-1.098.359 5.344 2.348 4.282 2.812-3.354 1.479-9.354 1.886-13.963 1.006 4.041.844 11.989 1.244 14.853-.771.928-.656-5.781-2.693-4.629-3.011 4.609-1.27 13.989-2.699 20.64-3.702zm33.568 2.582c-.099-.114-3.964 2.97-3.855 3.203.104.229 4.099-2.932 3.855-3.203zm-17.865 1.079c-.244.005-.51.005-.807.041 2.188.708 2.469 2.355-1.005 4.631-1.407.921-6.5.323-9.026 2.004-1.797 1.193-1.595 3.839-.772 3.51.563-.223-.224-1.948 1.23-3.123 2.989-2.418 6.786-.814 9.844-2.584 2.087-1.214 4.229-4.516.536-4.479zm-47.802.041c1.959.792-1.964 2.438-.698 3.24.042-.614 4.485-1.948.698-3.24zm45.454 0c-.366-.062-2.21.703-4.052 1.62-1.104.547-2.604 1.282-3.475 1.348-.968.073-1.386.084-1.427.199.61.396 3.959-.667 6.094-1.699 2.046-.989 2.896-1.254 2.932-1.389.015-.048-.026-.068-.072-.079zm17.129.192c-3.676.97-7.791 2.975-10.765 4.516-.777.402 2.062.022 1.698.615-1.475 2.38-16.043 4.948-15.975 5.443.036.26 1.714.426 1.85.849.213.645-1.995.984-3.204 1.235 1.682.104 4.646-1.183 3.745-1.391-.937-.219-1.385-.636-1.505-.849-.26-.454 12.917-2.536 16.052-5.364.401-.361-2.015-.47-1.739-.735 1.02-.948 9.25-4.032 9.843-4.319zm-63.239 3.163c.266.083.567.124.848.192-.301-.083-.645-.177-.848-.271zm-2.354 2.894c1.229.746 3.03 2.538 2.041 2.855-2.364.76-6.588-1.312-8.448-1.349-.963-.02 1.505 1.756 2.661 2.24-.656-.328-2.776-1.964-2.238-1.932 1.953.115 6.484 2.072 8.838 1.312 1.454-.468-.953-2.203-2.854-3.126zm29.901 5.71c-4.708.541-8.937 1.088-7.448 1.432-.177-.365 3.464-.927 7.448-1.432zm-26.314.192c4.282.5 9.022 1.052 9.106.969-.089-.136-4.891-.541-9.106-.969zm11.345 1.276c-.381.041-.678.371-.62.385.218.052 1.204-.197 1.005-.306-.14-.079-.26-.094-.385-.079zm10.917.079c.916.473-.584.718-2.97.849 2.334-.095 4.547-.287 2.97-.849z" fill="#fff" stroke="url(#f)"/><path d="m230.569 110.796c-.147.567-.445 1.05-.927 1.516-.506.456-.972.659-1.456.652-3.897.203-7.286 1.234-10.128 3.029-2.879 1.791-6.16 5.287-9.905 10.416l-54.211 78.226c-.433.691-1.235 1.064-2.452 1.03-.931-.011-1.574-.401-1.937-1.148l-13.157-41.574-34.732 40.446c-.661.708-1.497 1.052-2.4261 1.056-1.1412-.053-1.8227-.421-2.0156-1.143l-21.5499-79.796c-1.3809-4.952-3.1609-8.456-5.4153-10.451-2.291-1.998-5.8047-3.292-10.5283-3.887-.4161.011-.7345-.19-1.0393-.586-.2478-.438-.3539-.851-.2283-1.373.2934-1.282.8496-1.93 1.6662-1.918 3.4841.133 7.0788.357 10.8293.72 3.4702.329 6.7591.575 9.8681.629 3.167.095 6.9239.03 11.292-.118 4.6032-.202 8.6222-.255 12.0742-.137.848.026 1.113.674.852 1.97-.279 1.248-.683 1.898-1.199 1.877-3.543.163-6.4512.876-8.7517 2.137-2.2927 1.266-3.6912 2.996-4.1541 5.144-.2481 1.1-.135 2.474.3238 4.156l18.038 64.959 25.068-30.055-10.06-31.919c-1.828-5.685-3.558-9.381-5.186-11.034-1.589-1.675-4.344-2.727-8.263-3.222-.369-.008-.688-.209-.93-.577-.247-.437-.322-.836-.196-1.358.267-1.307.766-1.914 1.507-1.883 3.478.062 6.64.25 9.491.617 2.743.372 5.675.561 8.847.645 3.104.066 6.448.026 9.981-.196 3.659-.164 7.225-.21 10.698-.136.821 0 1.113.674.82 1.956-.278 1.248-.683 1.898-1.198 1.876-7.05.223-10.927 1.92-11.592 4.986-.332 1.385.034 3.497 1 6.423l6.823 20.474 15.278-18.209c2.147-2.546 3.42-4.753 3.824-6.523.929-4.2-2.066-6.536-8.963-6.957-.625-.032-.8-.692-.514-1.977.098-.441.368-.883.778-1.275.37-.409.766-.605 1.066-.615 2.495.082 5.514.271 9.102.654 3.418.359 6.244.553 8.468.578 1.618.056 3.998-.008 7.152-.135 4.041-.245 7.35-.314 10.014-.248.618.028.809.588.561 1.688-.323 1.429-1.062 2.142-2.184 2.151-4.148.25-7.614 1.137-10.422 2.692-2.831 1.543-6.723 5.121-11.645 10.708l-20.365 23.989 12.186 36.851 40.517-60.866c1.556-2.238 2.525-4.261 2.938-6.135.981-4.499-1.95-6.954-8.849-7.391-.623-.017-.805-.68-.506-1.973.293-1.281.881-1.915 1.844-1.89 2.51.049 5.506.267 8.924.626 3.164.35 5.822.575 8.002.634 2.293.043 4.942-.046 8.062-.243 3.143-.185 5.976-.258 8.494-.205.67-.002.945.542.697 1.642z" stroke-width=".2"/></g></svg>