<svg enable-background="new 0 0 60.25 57.66" height="57.663" viewBox="0 0 60.25 57.66" width="60.2504" xmlns="http://www.w3.org/2000/svg" xmlns:xlink="http://www.w3.org/1999/xlink"><radialGradient id="a" cx="13.6779" cy="18.7101" gradientTransform="matrix(0 -1 1 0 -5.032196 32.38797)" gradientUnits="userSpaceOnUse" r="108.128"><stop offset="0" stop-color="#fff"/><stop offset=".2352" stop-color="#fff"/><stop offset=".3321" stop-color="#e9e9e9"/><stop offset=".6773" stop-color="#c8c8c8"/><stop offset=".7017" stop-color="#c8c8c8"/><stop offset=".8872" stop-color="#909090"/><stop offset="1" stop-color="#626262"/></radialGradient><linearGradient id="b"><stop offset="0" stop-color="#1f1f1f"/><stop offset="1"/></linearGradient><radialGradient id="c" cx="8.75516" cy="19.4869" gradientTransform="matrix(0 -1 1 0 -10.731781 28.242095)" gradientUnits="userSpaceOnUse" r="137.125" xlink:href="#b"/><radialGradient id="d" cx="8.75516" cy="19.4869" gradientTransform="matrix(0 -1 1 0 -10.731781 28.242095)" gradientUnits="userSpaceOnUse" r="137.175" xlink:href="#b"/><radialGradient id="e" cx="33.4276" cy="29.1017" gradientUnits="userSpaceOnUse" r="28.4302" xlink:href="#b"/><g stroke-linejoin="round"><path d="m16.9072 19.5726c-.3616-.018-.9768-.0302-1.053-.686-.039-.3279 1.3116-1.542.9731-2.0238-.0852-.1207-.3316-.2518-.9091-.4165-.691-.1525-1.9282-.0513-4.0674.7176-.0957.0354.0286-.0102-.0476.0159-.0835.0305-.0408.0123-.0957.0319.0653-.0209-.0958.0409-.383.1456-.0231.0105-.039.0195-.3828.1274-.4696-1.6889.7957-4.8064 1.8664-4.9126.436-.0424.9233.5635 1.5471.2234 1.1251-.6135 1.2404-1.5526 1.0843-2.7118-.1184-.88057-1.0294-.0476-1.6428.1916-.6647.2607-.6787.4165-.8611.2395-.5549-.53714-.2464-1.75626 1.93-4.16128.7636-.84522 1.1075-2.047 1.1483-2.4563.0462-.47132-1.4727.84887-1.6269.52624-.1062-.22497 1.2176-1.51343 1.8982-1.86596.3153-.16333.3171.1842.5421.15917.2922-.03344 2.1301-1.70996 2.0099-1.977534-.0799-.175537-1.4056.590214-1.4677.398804-.0336-.10303 1.372-.813477 1.372-.813477s-.0091-.0354 0-.063965c-.5531.198731-7.8226 2.520142-13.53993 11.083602-9.14819 13.7028-5.366243 32.1887 8.43593 41.2717 13.802 9.0823 32.426 5.3289 41.5742-8.3725 4.5741-6.8511 5.9229-14.9131 4.4026-22.3899-1.5225-7.4773-6.368-14.19007-8.1651-15.05518.3585.3529.5958.57422.4928.70178-.0585.07629-.4977.15967-.9092-.28723-.4092-.44458-2.3356-1.9386-2.5661-2.27881-.2318-.34204-.1878-.45728-.0635-.47864.1239-.02136.3294.04993.4146.09571.0831.04626-1.8805-1.52576-2.0098-1.61109-.1293-.08484-.4891-.23181-.558-.2074-.1207.04273.3135.34217.2391.4148-.0676.06763-.2695.02856-.4305-.11157-.0817-.0708-2.2281-1.63208-3.5411-2.137455-.7763.117065-1.2726.191525-1.3557.351195-.117.22864 1.7509.97998 1.8502 1.16419.1044.19323-.2944.47497-.6701.52624-1.1732.15979-1.6287-.41101-1.7703-.73352-.4927-1.13245-2.6141-.71777-4.4802.49439-.8062.5227-3.9575.5177-3.9874.11169-.0568-.77991.2323-1.29346-1.6751-.97278-1.3397.2251-1.6995.70142-1.5788.79712.2232.1792 1.1397.50183 1.2122.79761.0495.20056-1.1483 1.32751-4.4484 1.10071-.328 1.75256-.3153 2.14099.016 2.67944.3297.53723.8597.74634 1.1645.67004.7001-.17724 1.3928-1.01208 1.9124-1.02075.9105-.01953 1.5275.8562 1.4989 2.04163 0 .04089-.0122.07263-.0159.11157-.0018.01599.0018.03186 0 .04773-.1452 1.30788-1.65.82068-2.6636.57422-1.2884-.31519-1.297 4.00346-.0798 4.83106-2.3819-.2532-5.3962.881-6.9841 1.5792-1.3098.5758 1.2386 1.788.7971 2.2008-.5172.4842-1.5965.9451-2.424 1.1487-.4664.1117-1.5811.1917-1.9282.1738z" fill="#fff"/><path d="m16.9072 19.5726c-.3616-.018-.975-.0302-1.053-.686-.039-.3279 1.3116-1.542.9731-2.0238-.0852-.1207-.3298-.2518-.9091-.4165-.691-.1525-1.9282-.0513-4.0674.7176-.0957.0354.0304-.0102-.0476.0159-.0817.0305-.039.0123-.0957.0319.0671-.0209-.0958.0409-.383.1456-.0231.0105-.039.0195-.3828.1274-.4678-1.6889.7975-4.8064 1.8664-4.9126.436-.0424.9233.5635 1.5471.2234 1.1251-.6135 1.2404-1.5526 1.0843-2.7118-.1184-.88057-1.0294-.0476-1.6428.1916-.6647.2607-.6787.4165-.8611.2395-.5549-.53714-.2464-1.75626 1.93-4.16128.7636-.84522 1.1075-2.047 1.1483-2.4563.0462-.47132-1.4727.84887-1.6269.52624-.1062-.22497 1.2195-1.51343 1.8982-1.86596.3153-.16333.3171.1842.5421.15917.294-.03344 2.1301-1.70996 2.0099-1.977534-.0799-.175537-1.4056.590214-1.4677.398804-.0336-.10303 1.372-.813477 1.372-.813477s-.0073-.0354 0-.063965c-.5531.198731-7.8226 2.520142-13.53993 11.083602-9.14819 13.7028-5.366243 32.1887 8.43593 41.2717 13.802 9.0823 32.426 5.3309 41.5742-8.3725 4.5759-6.8511 5.9229-14.9131 4.4026-22.3899-1.5225-7.4773-6.368-14.19007-8.1651-15.05347.3585.35119.5958.57251.4928.7019-.0585.07446-.4977.15784-.9074-.28723-.411-.44641-2.3356-1.9386-2.5679-2.28064-.2318-.34204-.1878-.45728-.0635-.47864.1239-.02136.3294.04993.4146.09571.0849.04626-1.8805-1.52393-2.0098-1.61109-.1293-.08484-.4891-.23181-.558-.2074-.1207.04273.3135.34217.2391.4148-.0676.06763-.2695.03027-.4305-.11157-.0799-.0708-2.2281-1.63208-3.5411-2.137455-.7763.117065-1.2726.191525-1.3538.351195-.1189.22864 1.749.97998 1.8501 1.16419.1044.19323-.2962.47497-.6701.52624-1.175.15979-1.6305-.41101-1.7702-.73352-.4946-1.13245-2.6142-.71777-4.4821.49439-.8062.5227-3.9575.5177-3.9856.11169-.0586-.77991.2318-1.29346-1.675-.97278-1.3416.2251-1.6996.70142-1.5789.79712.2233.18115 1.1396.50183 1.2123.79761.0494.20239-1.1488 1.32751-4.4503 1.10071-.328 1.75256-.3135 2.14099.016 2.67944.3297.53894.8615.74634 1.1645.67004.7019-.17724 1.3928-1.01025 1.9137-1.02075.9092-.01953 1.528.8562 1.4995 2.04163-.0019.04089-.0141.07263-.016.11157-.0018.01599.0019.03186 0 .04773-.1451 1.30978-1.6518.82251-2.6636.57422-1.2884-.31519-1.2971 4.00346-.0798 4.83106-2.3819-.2515-5.3962.881-6.9841 1.5792-1.3116.5758 1.2386 1.788.7953 2.2008-.5172.4842-1.5947.9466-2.4222 1.1487-.4682.1135-1.5829.1917-1.93.1738z" fill="url(#a)"/><g stroke-width=".2"><path d="m16.3505 11.9979c2.1482.1066 3.4576-.4624 4.7833-1.01-2.3679-1.71581 3.9094-2.55199 2.1391-.4165 1.6306.1399 2.9204-.84008 4.4589-1.25121.6166-.16467 1.8556-.15601 2.4794-.41284-.0336 1.51705-1.6342.99048-2.6868.73364-1.2885-.31543-1.3025 4.00151-.0849 4.83081-2.3804-.2532-5.3807.8848-6.9686 1.5847-1.3098.5757 1.2263 1.7776.7854 2.1904-.5195.4837-1.5988.9533-2.4264 1.157-.4659.1133-1.5788.2078-1.9245.1687-.3458-.039-.3244-.2854.3012-1.0352.4501-.5422.6805-.957-.0372-1.4972-.5707-.4309-.872-.5037-1.2458-.5852-.6914-.1521-1.9336-.055-4.0709.7146.3706-2.3025.9391-2.9832 1.3574-3.479.392-.4683.9677-.1897 1.7385-.0872.8099.1067 1.278-.8488 1.4019-1.6055z" fill="#5a5a5a" stroke="#5a5a5a"/><path d="m18.7714.260498s-1.4409.768922-1.4069.871952c.0617.1914 1.3837-.559818 1.4636-.384769.1207.267699-1.7154 1.939089-2.008 1.972659-.2251.02685-.2178-.33301-.5331-.17017-.6792.35254-2.0012 1.64649-1.8946 1.87158.1542.32434 1.6691-.99218 1.6233-.52087-.0408.4093-.3829 1.61609-1.1465 2.45947-2.1763 2.40686-2.483 3.61365-1.9282 4.15255.1824.1769.8507-.2269.8507-.2269.7123-2.07323 2.5339-2.78783 2.8923-4.7069.0812-.43957.0068-.44507-.431-1.19104 0 0 .4537-.40771.7372-.57788.2963-.17883.2818.18457.578.0907.6288-.20227 1.1379-.78723 1.5771-1.35071.4396-.56348.1328-.67004.1474-.86108.0158-.19678.147.02453 0-.31934-.1457-.34155-.5213-1.109252-.5213-1.109252zm22.3887 1.042112c.0104.29395-.0287.60254.0231.88599.0422.23047.7014.56543 1.1696.74817.3775-.02857.7727-.32801.6678-.52124-.0989-.18421-.9885-.41297-1.8605-1.11292zm-12.3064 1.33789c-.0304.1897.0177 1.02808.1257 1.53308.4341-.20556 1.1379-.53674 1.0884-.7373-.0731-.29578-1.0439-.56348-1.2141-.79578zm17.3891.1366c-.1081.14331-.1452.2074-.1825.26221.1806.14026.363.1792.4324.1134.0726-.07434-.186-.26404-.2499-.37561zm2.1654 1.66772c-.1239.02137-.1751.1471.0567.48731.3208-.35974.0535-.04944.3512-.38477-.0854-.04577-.2836-.1239-.4079-.10254zm3.0397 2.34827c-.4238.41968-.064.0708-.4201.41968.411.44507.8489.35803.9074.28357.1025-.12927-.1275-.35242-.4873-.70325zm-22.7289.06714c-.5213.0105-1.2282.8562-1.93 1.03308-.6062.15247-.9092-.46594-1.3148-.86291.152.8988.3756 1.77026 1.1909 1.96179.7691.18286 1.6233-.97632 2.3819-.97449.4428.00171.9215.79761 1.1446 1.04395.1099-1.26539-.5226-2.22083-1.4726-2.20142zm-13.4406 2.86914c-.0689 1.19643.2055 2.44943-.9196 3.06423-.6238.3403-1.1183-.2708-1.5543-.2268-1.0689.1047-2.3288 3.2221-1.8592 4.9107.7109-.2213.0372-.0086.8506-.2957.275-1.485.6433-2.9082 1.5544-3.6741.4714-.3987 1.6977.3476 2.2562-.1152.705-.5811 1.3855-2.4935-.3281-3.66313zm1.5526 7.13523c.3488.4817-.8811 1.5684-.975 2.0203-.0957.4499.3775.647.8507.6451-.3793-.2481.6188-.9958.8615-1.6782.1025-.2909-.0762-.5476-.7372-.9872z" stroke="#000"/><path d="m5.58447 33.8462c-.431.0441-.5798.4056-.31894 1.0507-.88473-.1614-1.50488-.3458-2.24893-.7317-.1738.4567 1.06659.7141 1.65869.9885.03174.22.05127.4487.07984.6702-.07123-.094-.1615-.1666-.25544-.2392-.2586-.2005-.46777-.3353-.70184-.3353-.13974 0-.22323-.0159-.30307.0798-.2568.3103-.1116.7427.27127 1.1007.38474.3561.90741.5282 1.14832.2709.07623.3547.17013.7073.35116 1.0354.04761.0476.28174.2354.27085.1914-.28357-1.4001-.37751-1.7373-.46234-2.6782.10437.0249.255.0781.57394.1279.14563.8557.04263.3028.4469 2.3267.19278.2004.32077.3388.51038.5425-.24634-1.4141-.44324-1.7989-.52628-2.8057.14154.0818.25677.0781.38248.1439-.00183-.0091.08166-.1969-.04764-.3829-1.30075-.2572-1.26535-1.8679 1.08429-.1914.01092.0073.38293-.1597.07989-.3671-.84344-.5775-1.56299-.8434-1.99353-.7971zm-1.75445 1.8021c.13116.009.34894.0974.49411.2232.2341.2004.46817.4714.2872.622-.17877.1492-.46778-.0813-.68601-.3044-.21594-.2219-.33847-.4006-.19101-.5249.02268-.0195.05127-.0195.09571-.0159z" stroke="#000"/><path d="m5.17297 42.8187c.81525.3155 1.20905 1.3098 1.37922 1.5259l.83432.4536-.67142-1.3611c.27991-.0317 2.341.9959 3.22342 1.9764.71459.7939 1.05619 1.6445.53539 2.2148-.0604.0676-.3671.0798-.4238-.1148.2164-.2517.3104-.6237.1493-1.0548-.1615-.4305-.51224-.9691-.77127-1.1837-.53491-.445-1.24039-.8664-2.03073-1.1677.32077.7512.74585 1.6338 1.28485 2.5093-.4909-.411-.69641-.9129-1.00854-1.2793l-.85431-.4788c.08166.1207.3103.555.44507.8222-.31034-.397-.48542-.6964-.85065-1.2972-.16333-.2657-.2872-.5352-.49634-.7994-.18237-.2336-.42511-.4324-.48364-.4536-.03537-.0142-.2695.0054-.26087-.3118z" stroke="#000"/><path d="m56.2892 23.4907c-.3507.3366-.4587.7622-.3416.9428.2922.4519.744-.0105.9355-.2605.1348-.1756.2164-.4182.1969-.6201-.0163-.1792-.2023-.6257-.7908-.0622zm1.7653.9428c-.0317-.1647-.5403-2.1178-.5494-2.1441-.0086-.0268-.0159-.0481-.0195-.0639-.0231-.0799-.156-.0672-.2445-.085-.0885-.0159-.1756-.0232-.2604-.0176-.0853.0049-.1312-.0056-.1384-.0322-.0105-.0409.0231-.085.0993-.1331.0817-.0529.211-.1005.3861-.145.1774-.0427.2713-.0283.2854.0445.0445.2158.103.3347.2091.7512l.3938 1.5525c.0404.1593.1294.6257.1611.863.0317.2377-.0159.3828-.0781.4219-.0476.03-.1719-.6452-.2445-1.0122zm-.2037-.2781-.886 1.0032.1025.3987c.0231.0849.0231.1628.0481.2854.0263.1237.0458.2712.0567.4445.0123.1739-.009.2769-.064.3067-.0263.0036-.0585-.039-.0957-.1275-.039-.0871-.0671-.1737-.0866-.2622-.0196-.0871-.0373-.1506-.0518-.1933l-.1433-.6487-.4574.3757c-.0231.0231-.0635.0694-.1184.1383-.0567.069-.1029.1153-.1383.1383-.0604.0391-.1792.0655-.3616.085-.1824.0176-.28 0-.2958-.0549l.0104-.044.0317-.0322c.1847-.0799.3921-.1934.6257-.3422.1756-.1116.4274-.3348.7019-.5793.2731-.2428.4963-.4787.6859-.6557l.3739-.4165m-1.3947-.8474c.1702-.1007.3544-.23.5299-.1892.1738.0386.3244.2514.344.4536.0244.246-.0146.4698-.133.6947-.1206.225-.2908.4518-.4841.6098-.4977.4038-.7957.2513-.9409-.0391-.1434-.2871.0444-.8914.3421-1.2122.0054-.009.0335-.0354.0816-.0834.0495-.0477.078-.0762.083-.0867.0146-.0269.0177-.0499.0127-.0676-.0054-.0177-.0177-.0336-.0426-.0477-.0232-.0141-.0354-.0285-.039-.039l.0036-.0195.0299-.0231c.0268-.0177.069-.0319.1225-.0446.0549-.0104.0849-.0031.0921.0196.0069.0322.0037.0781-.0158.1402"/><path d="m31.5527 3.96619.3671-.17554.2744.72131 1.058-.53357c.4855 1.80982.2909 3.42945-1.0348 5.3949-.172-.1593-.2749-.35437-.358-.48181 1.4868-2.4386 1.3752-2.80383 1.1165-4.39539l-1.6287.88245-.0036 1.27075-.4324.31214.0177-1.75989.8738-.48718m3.5479-.25367 1.2104 2.0221-.3117.2268-1.0598-1.70483c-.0939.20044-.3793.72485-.6629 1.02441-.0321-.04089-.0657-.0708-.0993-.09399-.0318-.03894-.0567-.06714-.078-.0852 0 0-.0477-.02637-.1471-.0813.2854-.47681.4147-.62744.6275-1.10425.186-.41651.3421-.68237.3739-1.29028l.3702-.01587c-.0318.51403-.1543.7854-.2232 1.10241z"/><path d="m58.643 31.6943c.5952-.8861-.2713-1.0562-.1701-1.6781.1787-1.1025 1.4214-3.1954 1.611-3.3051-.3757-.0887-.725-4.1504-.5603-4.4253-.2482.1486-.0635 2.8159.3743 4.4253-.8775 1.3396-1.5172 2.9367-1.5439 3.2891-.0531.7319.622 1.0246.289 1.6941z" fill="#5a5a5a" stroke="#5a5a5a"/><path d="m13.8661 3.84912c.3208-.30798.7195-.70679.7032-.72131-.0585-.04944-.4446.0852-.5757.13476-.7109.62561-1.2989 1.28662-1.9141 1.95484l-.2799.04272c.8665-.91821 1.7526-1.83606 2.885-2.75073l.2359-.04077-.7513.63647c.0884-.02136.2282-.06762.2921-.08166.0586-.01038.3439-.09387.4324-.0531.1134.0531-.4782.5581-.7232.82751"/><path d="m15.2235 22.2023c-.0499.009-.0939.0232-.1311.0481-.0712.0494-.1152.1062-.1311.1755-.0145.0586-.0036.1135.0336.1702.0372.0586.1025.1007.1914.1115.0232.0019.0653-.0017.1171-.0073.0531-.0071.0848-.0139.0957-.0139.0671.0085.0921.062.0708.156-.025.1099-.0976.2001-.2073.2659-.1117.0635-.2378.1147-.3707.1574l-.0227.1116c.5136-.0957.8148-.3171.8947-.6647.0249-.1097 0-.2159-.0654-.3226-.0639-.1079-.1651-.175-.3103-.1909-.0603-.0073-.117-.0055-.1647.0032zm3.0978-.1702c-.8098.1135-1.4958.408-1.9513.8117-.4555.4041-.7495 1.003-.6823 1.4763.0603.4255.2109.8487.6115 1.0775.3988.2305.6751.3225 1.122.3225l.0159.2622-.5249.0927c-.2282.0317-.3984.0225-.5104-.0164-.1134-.0389-.255-.1732-.3135-.3043l-.2854.0176.0799.7812 2.3142-.3257-.0299-.6914c-.7568-.0903-.8983-.2959-1.1342-.4856-.1897-.1523-.3952-.5193-.4415-.8384-.0599-.4414.142-1.0134.4787-1.3305.3189-.2981.636-.4414 1.2317-.5745.3775-.0835 1.0685-.1169 1.4604.0885.1738.0922.6202.4415.691.941.1066.7658-.2445 1.5384-1.3256 2.0647l.0335.6524 2.533-.367-.0976-.8256-.2359.0053c-.0531.1043-.2055.3189-.2713.416-.0599.0926-.1488.1597-.4092.1969l-.7531.1049-.0091-.2732c.514-.1824.9323-.4536 1.2036-.7762.2695-.3227.3738-.8878.3171-1.2868-.0689-.4927-.3756-.8591-.9178-1.1037-.5444-.2464-1.4146-.2237-2.1995-.1121z"/><path d="m52.4188 11.7393c-.1805.023-.5757.1366-.6361.2976-.0444.1153-.1066.2782.2854.4574.1348.0603.3988-.1239.622-.1331.4428-.0195.794.7427.5848 1.3098-.1452.3933-.5975.7051-1.067.8985-.3244.1364-.5704.1079-.794.0529-.2427-.0598-.4215-.2268-.5349-.5031-.0798-.1896-.1311-.4007-.1561-.6343.0018-.1968.1579-.2305.2409.2142.0921.2233.2604.4469.461.4945.2.0463.4446.0109.73-.1079.22-.0903.4659-.3159.6628-.5781.328-.436.2019-.7654-.0159-.8342-.1048-.0323-.411.1768-.6397.1538-.4147-.0406-.725-.5635-.7268-.7515 0-.2353.1701-.3701.3298-.48.2532-.1755.6965-.3864.6538.1435zm1.014 2.5166-.0499.4818-.5403-.0513.0884-.4519m-.2286.4995-.0427.4824-.5385-.0464.0372-.4799"/><path d="m17.8304 34.6859-.1011.0532c.3421.2322.5653.4129.6574.5494.0939.1364.1987.1438.3353.0158.1347-.1274.1646-.23.078-.2939-.0853-.064-.4097-.1739-.9696-.3245zm2.5734-.0476c.0617.3118.2854 1.6672.8171 3.9181l-.5835.0177-.2867-.1099.3225.3103c.2374-.0693.505-.1189.8008-.1523l4.6027-.5264-.8525-.3188-.5336.3312-.7902-3.4736.3878-.1665-.6841-.2341-.4714.2854-2.0221.2324m-.1116.1116 2.2635-.2537.1964 1.0794-2.2026.2549m-2.0966-.5703-.2182.2038-2.1709.2127.289.1184c.2001-.0548.4215-.0902.6697-.1153l1.1469-.1184c-.2536.4361-.5689.8203-.9464 1.1485-.3775.3261-.7762.6115-1.2073.8596l.103.0441c.608-.3013 1.1093-.5866 1.4904-.8666.108 1.1042.1633 1.7793.1633 2.0202l.4909-.2194c-.0463-.2251-.117-.8099-.2091-1.7708.4713.1719.7781.3175.9269.4487.1487.1292.2671.1505.3488.0512.0817-.0976.103-.1896.0708-.2731-.0299-.0813-.2958-.1715-.8044-.2659.2323-.1806.4732-.3684.7282-.5634l.264-.0745-.5916-.186c-.1098.2763-.2926.5476-.5408.8029l-.4178-.0639-.0163-.2036c.2023-.25.4146-.5244.6347-.8244l.3634-.1451m1.5416.4554 2.2154-.2555.2304 1.1026-2.2457.2517m.0249.1045 2.2612-.2622.2591 1.2458-2.263.2622"/><path d="m42.8559 27.0939c.1171-.0354.2233-.0426.3226-.0231.0994.0214.1579.064.1774.1256.0495.158-.0816.3457-.3919.5654-.31.2182-.8399.4432-1.5898.6756-.7531.2336-1.3184.3469-1.6959.3401-.3774-.0071-.592-.0889-.6397-.2444-.0195-.0623.0054-.1299.0726-.2024.0689-.0725.1646-.1275.2872-.1665.1238-.0372.2373-.0476.3384-.03.103.0178.2568.0781.4659.1806.2927.1488.672.1507 1.1361.0073.461-.142.7713-.358.9323-.6469.1099-.2039.2001-.3404.2732-.4112.0726-.0713.1769-.1279.3116-.1701zm.5032 1.485c-.0617-.1984-.3294-.1098-.73-.0231l-.0299-.0977 2.3977-.8415.0299.0975c-.425.2074-.7708.3952-.7036.5971l.6365 2.8337c.03.0798.3226.0232.7568-.0793l.0299.097-2.3551.8915-.0286-.0974c.4786-.2393.7676-.4112.6805-.6839l-.48-2.2634-2.9703 3.7021c.1543.0231.5404-.0068.8312-.0708l.0281.0976-2.6386.8031-.0304-.0994c.5566-.2641.8384-.4026.8121-.5459l-.6275-2.8569c-.0195-.1665-.5086-.1419-.9164-.0408l-.0299-.0975 2.8051-.8825.0304.0977c-.2962.1433-1.0422.4109-.9641.6645l.5299 2.3997"/><path d="m58.3294 34.8048c-.117.0745-.6451 1.1587-.9517 1.7861l-.4769.5281.0318-1.2439c-.2037.3738-.5545.4555-.6044.4007-.0707-.0818.0164-.4928.2146-.755.1543-.202.4873-.5617.7091-.5885.3471-.0408.0531.9323.0885 1.3806.289-.6682.6325-1.283 1.0403-1.9051l.0799-.9817c-.0164-.186-.1225-.2714-.3207-.1756-.2024.0975-.4256.319-.6665.5865-.3317.3653-.8172.9038-.9964 1.4107l-.5135.4785c.0794-.9196 1.4568-2.3569 2.3355-3.096.1969-.1665.3988-.103.4592.1331.0604.2354-.0427.5298-.0318 1.0824.3013-.2867.3612-.2849.3153.08-.0462.3864-.3439.9322-.5884 1.3042-.1933.2909-.1823-.0372-.1239-.4251zm-1.567.6983c-.1343.1665-.2019.2446-.1878.3969.009.1135.1066.0371.2236-.0676.1203-.1079.2001-.239.1947-.3916-.0068-.1877-.138-.0493-.2305.0623zm1.9087-1.2037c-.069.1457-.0989.3421-.0458.3761.0476.0282.1011-.1085.1579-.2396.0371-.0867.1147-.308.0653-.3579-.0476-.0459-.133.1329-.1774.2214z"/><path d="m41.1192 14.6547c.0055.0212.0019.0422-.0108.0654-.0141.0229-.0318.0371-.055.0444-.1805.0672-.3189.1542-.4146.2586-.0976.1047-.177.2732-.2428.5036l-.8647 3.4698c-.0055.03-.0354.0549-.0939.0725-.0445.0141-.0835.011-.1171-.0086l-1.533-1.1946-.7654 1.8979c-.0158.034-.0481.0584-.0921.0731-.0553.0159-.0957.0139-.1206-.0073l-2.7666-2.3501c-.1738-.1453-.3349-.2356-.4855-.2677-.1524-.0319-.3475-.0209-.5848.0321-.0194.0068-.039.0051-.0621-.0036-.0214-.0108-.0354-.023-.0408-.0426-.0141-.0476-.0019-.0781.0371-.0903.1684-.0494.344-.0975.5299-.1433.172-.0427.3335-.0853.4823-.1316.1524-.0459.3294-.1062.5335-.1787.2142-.0781.4038-.1421.5704-.1915.0408-.0124.0676.0055.0834.0531.0141.0462.0091.0744-.0158.0816-.1648.0604-.2873.1293-.3689.2074-.0812.0779-.1098.1577-.0849.2373.0123.0408.0477.0852.1062.1347l2.2757 1.9055.5335-1.3988-1.175-.9177c-.2109-.1629-.3738-.2605-.4872-.2908-.1121-.0318-.2659-.0247-.4628.0195-.0177.0054-.0372.0036-.0567-.0051-.0214-.0109-.0336-.0232-.0391-.0426-.0158-.0481-.0054-.0763.0304-.0867.1665-.0516.3208-.0943.4641-.1261.1385-.03.2818-.0689.4342-.1152.1488-.0459.3067-.0989.4696-.1611.1701-.0621.3385-.1189.505-.1702.039-.0127.0675.0056.0816.0532.0141.0462.0091.0744-.0158.0816-.3299.1167-.4769.2336-.4415.3471.0145.0518.0781.117.1879.2005l.7712.583.3276-.8489c.0463-.1188.0585-.2127.039-.2786-.0476-.1555-.2409-.1877-.5775-.0952-.0304.0086-.0531-.0109-.0676-.0586-.0051-.0162-.0019-.0354.009-.0548.0087-.0195.0232-.0322.0372-.0372.1203-.0359.2677-.0762.4464-.1189.1702-.0408.3086-.0779.4147-.1116.0781-.0232.1897-.0621.3367-.1152.1864-.0708.3421-.1243.47-.1634.03-.0085.0513.0074.0635.0481.0159.0531-.0036.0885-.0567.1062-.1914.0726-.3366.156-.436.2517-.1007.0958-.2073.2764-.3189.5405l-.4429 1.1219 1.3838 1.0508.5939-2.6741c.0249-.0994.0267-.1824.0054-.2517-.0517-.1665-.2445-.2039-.5816-.1117-.03.0092-.0531-.0104-.0671-.0585-.0141-.0476 0-.0781.0462-.092.1203-.0374.2673-.0763.4374-.1172.1579-.0371.289-.0708.3938-.1025.1098-.034.2337-.078.3775-.1328.1452-.055.278-.1014.3988-.1385.0317-.0105.0567.0037.0689.0445z"/><path d="m46.5154 43.3859c-.0068-1.3738-.0263-1.4305-.0744-2.4068-1.6074.617-4.1821 1.6587-4.5881 1.7386-.4252.0834-.9569.0371-.8684-.2764.0726-.2572.5848-.7957 1.0439-.9641-.147.1933-.2518.3684 0 .3843.3244.0231 1.666-.5403 2.3215-.7549.6506-.2124 2.0044-.9514 2.4051-.7903.4056.1633.3189 1.5029.3189 2.4722.0018.1383.0426.2553-.0213.3529-.1189.1805-.3489.2019-.5372.2445z"/><path d="m24.0773 48.3038c.0994.1184.509.1348.7177.2074.211.0707 1.2708.1134 1.6024.0902.3721-.0249.8026-.1931.9977-.3278.1665-.1153.264-.25.2537-.4007-.0232-.3403-.9464-.6269-1.6769-.7812-.6679-.1438-1.9336-.0055-2.8673.0317-1.1555.0444-2.0203.094-3.0447.103-.1226.0017-.2836-.1115-.2836-.2268.0018-.1721.2464-.2397.2763-.4592.0073-.0531.0127-.1011-.0177-.1135-.0177-.0071-.1878-.0139-.2708-.0017-.0658.0105-.1189.0444-.3244.0529-.0853.0037-.2427 0-.3512-.0456-.0939-.0409-.3811-.2007.0177-.2678.142-.0231.8525-.1275 1.1379.1135.2908.2445-.0264.553-.0264.553s.9106.0014 1.3788-.0127c1.23-.0371 4.0564-.2854 4.0564-.2854.1915-.0139.638-.145.755-.2158.1098-.0677.1896-.1458.156-.2111-.1365-.2762-.3139-.2657-.6877-.3329.5548-.1172 1.1433.0194 1.1732.3469.0372.3866-.397.5977-.8843.7903.5159.08 1.1679.2927 1.4818.477.3153.1823.5227.3316.5386.5584.0158.23-.1026.4342-.397.6221-.3349.2109-.7799.3647-1.533.397-.6203.0263-1.6692-.1331-2.0435-.2964-.3452.2129-1.0099.4397-1.6196.4824-.5495.0371-1.3397-.0513-1.5984-.1843-.3298-.1702-.5335-.289-.5476-.5-.0127-.1665.0354-.3366.2904-.4024.1048-.0263.4927-.1115.9427-.0813.5708.0374 1.2159.2886.8471.6026-.0849.0726-.2318.0532-.4251-.0037.4201-.4414-1.2373-.3701-1.2227-.1665.0086.1221.1202.2197.3366.2922.2178.0762 1.0013.1263 1.3166.1031.3366-.0232.872-.1702 1.0758-.2696.2036-.0993.3774-.1062.4695-.2373zm-4.3772-2.0256c0-.0372-.1543-.0444-.2409-.0427-.0853.0019-.2323.0195-.2305.0495 0 .0303.1402.0694.225.0677.0835-.002.2446-.0374.2464-.0745z"/><path d="m45.9964 7.0835c-.936-1.99891-1.2177-2.49707.0231-2.69898-.367-.19153-.4695-.35437-.7091-.28894-.5458.14697-1.3239-.43237-1.6746-.57947.3489-.13464.8525-.26403 1.088-.28173.0463-.0055.5245.1842.5848.17565-.0885-.19873-.9691-.75-1.1093-.71777-.7585.17505-1.8678.49219-2.3569.62012.1593.34033 1.8075.5404 2.6618.98547.0068.28674.397 2.22034 1.4922 2.78565z"/><path d="m4.96927 22.0094-.23731.5671c.01047.0672.07987.6006-.13473 1.0081l.7409-.0122c.01041-.2764.30304-.7178-.28173-.9927l.19143-.5227.69095-.0159c-.29581.4768-.4396 1.2672-.43414 1.5259l.2427-.0051c-.2677.76-.36703 1.1697-.436 2.2168-.65375-.6166-1.8996-.6502-2.05203-.5672.0281-.4055.38611-1.0898.44641-1.1959l-.14017-.0194.18964-.4397.65423.0318c.09937-.1861.24088-.388.16828-.9854-.29398-.0232-.53531-.0496-.62921.0054-.16474.0993-.29944.28-.34894.7994-.04627-.5-.0408-.8719.10077-1.092.07303-.1149.19323-.1842.28897-.2763m1.25989 2.2417c-.19278-.2976-1.19092-.2849-1.30436-.2782-.16107.1383-.29577.5495-.34704.7268.63061-.0798 1.35379.4782 1.60559.7265-.01087-.3422.0585-.7886.04581-1.1751zm.7214-2.5022c-.12387.0069-.38794-.2409-.65378-.4945-.33166-.3207-.96591-.558-1.20004-.2799-.05988.069-.10794.1365-.10431.2818.00177.0621.05127.1347.13834.1701.06717.0264.16287.0445.2922.0513-.02997.2285-.04767.3848-.16833.3865-.49091.0036-.61655-.4556-.58118-.6769.04218-.2572.10074-.3529.19827-.4768.1969-.2482.42191-.2572.63108-.2696.54034-.0317 1.06665.8898 1.44775 1.308z"/><path d="m6.34802 13.1675 1.04578-2.0185.61651-.156.26227.2059-.71911 1.4387c-.07123.1421-.0304.2944.15564.2835.19873-.0103.50177-.0921.57977-.2586l.55624-1.1854-.21957-.3971.62201-.2977.1311.1435.20551-.0104-.38111.2268-.13293-.1792-.25494.1189.21279.3811-.54443 1.1641c-.15744.3366-.82754.5-1.04712.3969-.1243-.0584-.08713-.2817-.02676-.406l.65738-1.3696-.12024-.1135-.46274.1062-.67508 1.2744c.1134-.0745.42371-.1702.22501.1897-.11344.2036-.49994.4963-.49994.4963m.05349-.2324.15564-.303c.19144-.1579.26404-.1311.18644.0105-.05667.1011-.21094.264-.34208.2925z"/></g><path d="m21.9472 29.993c-.7372.5762.8525 1.0245 1.161 1.5702.308.5458-.7304 1.1256-.7091 1.1293.0322.0012 1.1714-.6897.881-1.2104-.2926-.5213-1.8128-.9891-1.3329-1.4891zm-3.2502-29.743c.0195-.012695-.0817.03186-.1701.065308-.0159.030517-.8544.395263-1.313.815312-.0182.09582.3293.3153 1.2209-.131108-.142.211058-.9909 1.104368-1.5489 1.442748-.2428.1488-.1811-.1969-.539-.03906-.544.24097-1.999 1.3081-2.1002 2.14099-.0476.38977 1.6628-.85242 1.5757-.49988-.1098.44141-.8221 2.29334-2.1141 3.20386-1.1629.21094-1.2282.20056-2.0221.35474-1.0349 0 1.9848-1.71583.5775-1.78663-1.774-.08837-2.0575.85437-2.4563 1.62879.4519-.76221.8066-1.7013 2.483-1.60193 1.1574.06897-1.758 1.81103-.631 1.81103.7939-.15234.9128-.15417 2.0756-.36694 1.2898-.91064 2.0289-2.79468 2.1387-3.29614.078-.35425-1.6623.90198-1.602.51221.1153-.72681 1.558-1.82923 2.102-2.07373.3048-.13794.2549.2268.4981.078.558-.34021 1.5203-1.31653 1.68-1.600099-.8897.446409-1.2903.318969-1.2726.223149.4378-.400517 1.3257-.822026 1.4178-.88062zm-8.88777 7.19507c-.33847.5708-.72634 1.05078-1.75988.90564.80124-.95325 1.87692-2.05567 2.56105-2.92774-.4468.32984-.4537.26953-.2499.03907-.3049.3208-.38977.45727.1047.09204-.84746.92505-1.66771 1.88232-2.46892 2.83557 1.14645.14709 1.50805-.35437 1.81295-.94458zm8.66457-7.115602c-.0921.026733-.3317.11206-.7745.262695-1.1079.565187-2.1482 1.213627-3.2824 1.745357-.8116.72681-1.2989 1.00855-1.9296 1.5896.1184-.26391-.0181-.23046-.2749-.06518.2196-.12256.3348-.11719.2232.1311.6293-.58166 1.1946-.90246 2.008-1.62878 1.1343-.53174 2.1746-1.18054 3.282-1.745852.4292-.164673.6044-.235473.7482-.28894zm24.4869.801152c.8715.47326 1.9246 1.2904 2.954 1.85021-.5721-.3811-1.5435-1.16064-2.954-1.85021zm-3.5977.43237c-.2623-.00354-.5884.0354-.9977.10486 2.7027-.36707.7373 1.97216 4.2144 1.28662-2.6868.20373-1.3879-1.36829-3.2167-1.39148zm-8.4042.22326c-.7848.05347-1.6886.32984-1.9953.60425.4483-.32385 2.0008-.64648 2.6264-.41967.5531.20019-.3969.56176.4732 1.07568.3493.2074 1.6446.21289 2.7825.01416-1.1306.14197-2.3428-.01416-2.6001-.10437-.4324-.1543.1243-.93054-.4056-1.10425-.2323-.07629-.5476-.0885-.8811-.0658zm5.6339.63111c-.1238.44507 1.6415 2.67761 2.9277 2.71667.3847.0127.5481-.40747.8135-.66967.264-.26221.4378-.43055.5903-.45911.1206-.02319-.31-.19336-.5903.01221-.2817.20727-.5385.73046-.7745.78894-.8398.20373-2.5057-2.047-2.9667-2.38904zm-7.734.10473c-.0086.02808-.0158.05127 0 .07764-.0068-.02637-.0086-.04956 0-.07764zm17.3963.23548c-.0086.02502.1383.11889.2232.22326-.0318-.06542-.0763-.1311-.1574-.19653.2427-.05176 1.8855 1.24219 2.1001 1.43189.3525.30859-.3653.0122-.328.27441.0621.43604 1.4178 1.62207 2.5611 2.71899-.5957.20374-1.3402.93189-1.3402 1.37879 0 .77087 1.1273 1.07385 1.4976 1.56112.3493.461-.2287.7232-1.563 1.1026.7409.3188 2.2526-.1385 1.969-1.0105-.3103-.96047-1.3347-.74392-1.5348-1.61416-.0762-.32983 1.0294-1.16467 1.2209-1.23364 1.2585.93371 3.0783 2.9703 2.9403 3.4259-.0462.1538-.6061-.4026-.9055-.2361-.5249.2891 1.4032 3.2272 2.0075 3.4912.2201.0957.3653-1.4404.1847-1.4441-.3616-.0036-.0304 1.1873-.25 1.0777-.2323-.1172-1.7299-2.0366-1.6927-2.7313.0127-.2464.95.3012.9305-.039-.03-.5563-1.797-2.56615-3.2411-3.79418-2.0861-1.98132-2.7027-2.48633-2.5874-2.65332.1256-.15918.6306.14893.5263.01465-.2464-.31397-1.9105-1.60071-2.3769-1.72095-.1293-.03393-.1788-.03894-.1842-.02673zm.2232.22326c.0372.08155.0408.14881.039.18409.0409-.05664.0091-.12378-.039-.18409zm.0268.19678c-.0282.03003-.0708.04407-.0799.05322.0445.01941.064-.00732.0799-.05322zm-.5386-.17004c.1683.10974.3117.19507.4075.21094-.1385-.06397-.2696-.1366-.4075-.21094zm-5.0015 1.18188c.7854.45545 1.7881 1.36829 2.0081 2.0221.1769.52807-.4274.3352-1.1823.34021.725.2854 1.6678.3634 1.5756-.28845-.1152-.82447-1.4763-2.07752-2.4014-2.07386zm-12.2636.17005c-1.0299.33667-1.9477.13659-3.0714.21106-.0037.03527-.0087.10119-.0141.1438.9976-.0658 1.9567.07751 3.0855-.35486zm-3.0978.4469c-.0957.65197-.2218 1.30944-.1969 1.77209.0036-.49438.1366-1.27759.1969-1.77209zm-13.6942 1.10205c-.4908.02856-1.1837.28723-1.3257.578-.60606 1.24036-1.48124 2.39771-2.66536 2.02209-.74405.62928-2.26843 2.56606-2.24533 3.43986.00547.1982.88425-.9622.95868-.7622.12067.3298-.2745 1.1379-.61658 1.6945-.29443.4764-.66101 1.1058-1.07751 1.3643-.07983.0498-.181-.6873-.30124-.5244-.83481 1.1323-1.80252 2.8568-1.77212 3.9643.0177.6311 1.15374 1.0671 1.92999 0 .27084-.372-.03223-1.6162.30124-1.9563.2001-.2019.57577-.466 1.03854-.5512.44824-.0818 1.44949.0938 1.37689.5512-.12927.8453-1.30975 1.4672-.86468 1.9051.73175.7176 3.03558.5511 4.14848-.0922-.5299-1.7227.672-4.6967 1.916-5.0809.4305-.1328.8221.4233 1.366.2745 1-.2726 1.2318-1.2545 1.2476-1.8641.0146-.5762.1561-1.28677-.3415-1.16787-.6384.15246-1.7245 1.35737-2.219.89297-.8049-.75516.3951-2.13748.9446-3.15103-.5477.00366-2.2386.51587-2.5593.23596-.0018.50317 1.7317-.0603 2.336-.0658-.5494 1.01355-1.6215 2.297-.8665 3.09777.3879.4111 1.5539-.5952 2.194-.74767.4977-.11877.3543.44827.3403 1.02457-.0146.6074-.1298 1.3537-1.1292 1.6281-.544.1493-.8825-.4746-1.313-.3415-1.2459.3843-2.6959 3.4643-2.1659 5.185-1.11294.6453-2.97036.6081-3.70214.1313-.52267-.3385.68234-1.0971.81345-1.9423.0708-.4592-.99585-.6733-1.4441-.5903-.46093.0835-1.02081.4129-1.22131.6172-.33301.3383-.00363 1.6141-.31531 1.9563-.7763.8488-1.68908.6555-1.70678.0249-.02997-1.1079.91461-2.6783 1.64099-3.7022.11706-.165.22183.5086.30121.4588.4165-.2586.833-.9605 1.15557-1.4178.37384-.5263.85975-1.6643.69642-2.0344-.08484-.1951-1.03306.9678-.98542.7744.22187-.8738 1.45001-2.46848 2.19403-3.09775 1.18415.37561 2.05929-.79578 2.66409-2.0343.1628-.33167 1.0435-.60987 1.5239-.5658.0762.0072.1207.02136.1579.03906.0318-.08484-.0181-.13794-.211-.15747-.0603-.00549-.1261-.01587-.1969-.01269zm.4079.17199c-.1048.27124-1.0866.84375-1.2213 1.43042-.0177.07618.0072.13111.0531.17017 0-.0177-.005-.0304 0-.05176.1597-.69824 1.5067-1.37146 1.1682-1.54883zm28.9758.17017c-.3403-.01233-.544.3457-.539.70898.0091.57581 1.3542 3.29781 2.4299 3.66311-1.7934 1.1361-2.1976.819-4.8331 1.2336 1.7104-.1084 3.9648.239 5.4888-1.3379-1.3539-.6506-2.1819-2.155-2.5997-3.54648-.1561-.51904.1238-.46423.4324-.57751-.1402-.09766-.2659-.14026-.3793-.1438zm-15.8864.42004c.0055.13831.0213.24085.0658.28894.014.01587.0245.0232.039.03907-.0304-.05176-.0622-.10303-.0799-.17017-.0109-.04809-.0194-.10474-.0249-.15784zm3.0978.02674c-.0585-.00171-.1184 0-.1701.0122-.863.21778-1.485 1.08484-2.0875 1.05079-.2572-.25489-.392-.38245-.5122-.49952.4977.56531.6343.71595 1.1288.55127.7445-.24633 1.2458-1.02075 2.1019-.98364.0495.00183.0958.0105.1434.02454-.1933-.08667-.4019-.15064-.6043-.15564zm-21.0326 1.62695-.01227.02637.27451.10473c-.48544.54224-2.19223 2.15686-2.20447 3.43996-.00183.1152.03174.1804.07761.2231.09073.083.28897-.0993.74991-.5779.00863-.0087.1116-.124.11706-.0124.02133.3635-1.07251 1.9763-1.32568 2.2703-.13657.1611-.16333.1562-.20914.0268-.11163-.303-.15063-.4487-.211-.4328-.12066.0305-.96045 1.1469-1.57562 2.508-.19467.4306-.3811.9373-.49951 1.405-.09213-.0744-.31037-.2585-.40607-.2885l-.0263.0903c.15063.0654.28533.1401.47317.4075.20737-1.2422 1.22998-3.22 2.00757-4.0298.10843-.1133.22507.6362.34207.5118.61887-.666 1.50989-2.16 1.48358-2.5074-.02496-.3208-.64148.5635-.84021.5901-.03357.0055-.11346-.0298-.11841-.0921-.09259-1.0085 1.18912-2.46164 2.23124-3.53012m39.20326.45861c-1.4958-.03173-3.3977 1.17701-3.1776 1.40381.3098.3188 1.9867-1.55249 4.1222-1.15552-.2695-.16479-.5993-.24096-.9446-.24829zm.211.35486c1.9032.29578-.1792 2.67595 2.5325 2.29655-2.2385-.1805-.1243-2.40678-2.5325-2.29655zm-11.1336.27454c-2.263.07434-4.4784 1.10561-3.7815 1.99531.3403.4341 1.8466.8792 1.5099 1.3401-.7499 1.024-2.6141 1.1343-5.9333 1.4832 4.9584-.108 5.3059-.397 6.4065-1.4055.7495-.6892-1.2335-1.0581-1.5366-1.7595-.3281-.7586 2.6563-1.73357 4.7918-1.54936-.3275-.05982-.666-.09522-1.0099-.10425-.1506-.00366-.2962-.00366-.4469 0zm .5513.27624c-.1044-.00183-.2074.00721-.3153.0127-.5177.03174-1.0703.14514-1.4709.34217 1.0244-.1458 1.8892-.37086 2.3374.053.2305.216-.303.9372-.2355 1.352.1275.8048.5086.6665 4.1345.4591-3.2874-.1061-4.1149.4005-3.321-1.588.1647-.4128-.4061-.62181-1.1292-.63097zm7.3511.98357c-.0281 0-.0513.0109-.0653.0268-.2781.333 1.9404 1.7793 1.891 3.3087-.0196.6007.0067.652-.9446.5653.7903.25 1.4441.3476 1.4568-.5122.0213-1.4459-1.9069-3.3777-2.3379-3.3886zm11.3568 2.18c.7068 1.0916 1.2458 1.6622 1.8392 3.3356-.8983.6518-1.7526 1.7756-1.6818 2.7429.0549.7373.9995 1.1274.9713 1.5898-.0353.608-1.0226 1.5085-1.68 1.68.9605.6311 2.1374-1.1233 2.1265-1.9296-.0032-.4005-.7636-.5621-.9587-1.3402-.2178-.8733 1.1733-2.2649 1.3007-2.3745.5299.4609 1.3026 5.4302 1.8112 3.2287-.5458 1.471-1.0099-2.1032-1.641-3.3085.2908-.1739.1578-.1185.4201-.3545-.039-.0902.0036-.1756-.1311-.3152-.3207.2444-.2305.1451-.4074.3152-.4097-1.3787-1.0939-2.5574-1.969-3.2697zm-21.7667.8806c-2.7416.7055-3.5125.6737-5.3308.7744 1.866.2731 3.2611-.1148 5.3308-.7744zm-6.7609.6171c-.1774.0017-.4183.0122-.7499.0262.7993.0072 1.0707.2714 1.0775.2627.8847.7848 1.4536 2.1532 1.4037 3.3083-.0426 1.0195-.3879 1.6538-2.008 1.2072-1.5575-.4292-3.385.147-3.0588 1.9687.22 1.2298.2695 2.8551 2.4545 2.6922-1.3484.0176-2.1478-1.613-2.0466-3.0058.1348-1.9086 1.8782-1.7666 3.3069-1.4318.7763.1824 1.494.2745 1.9051-1.4568.1542-.6556-.3562-2.0879-1.6556-3.5447-.1379 0-.1025-.0317-.6288-.0262zm17.2774.1433c-.1438-.0037-.2695.0054-.3951.014-.75.0481-1.1823.3459-1.2214.9306-.083 1.3293 1.0513 3.6562 2.68 3.2434-1.6238-.7287-2.1677-2.0062-2.102-3.3867.03-.5904.6343-.7373 1.4977-.7622-.1615-.0196-.3177-.0354-.4592-.0391zm-18.0786.0408c-1.9191.0427-4.7192 1.2495-5.6198 1.705-.427.2178 1.4427 1.4019 1.0762 1.9173-1.0159 1.4324-4.0692 1.6787-5.4357 1.3135-1.441-.3866 1.2671-2.302.4854-2.7845-.9922-.611-3.1014-.1201-5.3821.8544.2482 2.0824.3439 2.4154-.1189 3.8331-.1629.502-.7672 1.7831-2.15318.7093-.73904-.5708-1.39282.0427-1.54892 1.1696-.21411 1.5489.09214 3.066 1.48359 1.8501.55261-.4819 1.41781-.2426 1.57521.211.6597 1.9087 1.1946 3.2185.3013 4.8967 4.4697-1.2051 6.1996-.447 6.8411-.197.863.3367.0617 1.175-.6433 2.1391 1.0403-1.081 1.5575-1.836.7867-2.3232-1.3769-.8738-4.6308-.4238-6.6815.1311.7019-1.4977-.0176-3.5832-.4854-4.6875-.2727-.6416-1.26174-.8667-1.77212-.3403-1.49219 1.5349-1.29892-.8435-1.15558-1.8379.08847-.6257.49814-1.3399 1.20685-.8399.75675.5318 1.48675 1.0581 2.37645-.6577.6365-1.2263.5689-2.6545.289-4.0442 2.258-.8862 3.8722-1.3203 4.9107-.6416.4646.303-1.6764 1.7386-.9464 2.4283.7853.7426 4.8862.4995 6.079-.9324.7708-.927-1.5825-1.8484-.8933-2.1923 1.3397-.6664 4.0337-1.6886 6.1851-1.6141-.2304-.0481-.4873-.0731-.7604-.0659zm18.3141.3281c-.1543.0017-.3062.0176-.4732.0513.7304.248 1.0281.2993 1.891.145-.5331-.0921-.9569-.2036-1.4178-.1963zm-37.99468.3665c-.38608.0036-.78305.0939-1.01172.3032-.42013.3846-.10116 1.5134-.44687 2.1267-.48547.863-1.48132 1.0118-2.20449.2356-.24634 1.4621-.87561 4.4448-1.33973 4.3191l.02631.0407c.46094.1879 1.14511-2.6213 1.39145-4.0708.71594.7621 1.88193.2427 2.36417-.6045.3403-.5988-.12613-1.7116.36657-1.9812.56714-.3121 2.04026-.2731 1.64145.2093-.3938.4768-1.10971 1.2402-.80118 1.9299.35794.8008 3.03742.8701 4.42532.0654.1097 1.6075.2268 3.5447-.78857 4.2019-.5054.3263-1.07751-.6572-1.70678-.684-1.37012-.055-2.16727 3.9929-.49814 4.6875.58117.2426.9024-.6434 1.87692-.8013.52257-.083 1.19087 3.7307.61657 4.5954-.91055 1.3738-4.39309.4275-5.0151-.2885-.32074-.3689 1.00989-1.3079.61655-1.9036-.66825-1.01-2.56967-1.3697-3.15085-.8008-.71954.7051.55441 2.1885-.01273 2.6509-.3702.303-1.22812-.1946-1.54885-.8789.06579-1.3555.35977-5.8729-.303075-4.6875-.003174-.5031-.015899-.8579.014496-1.1822-.044434.4237-.058533.8702-.053528 1.3665.654237-1.1782.274967 3.2857.235927 4.6612.43055.8311 1.34519 1.2544 1.72083.9445.57437-.4731-.6506-1.9975.07803-2.717.58844-.5813 1.91233-.1594 2.75754.6699.51901.5069-.77808 1.4551-.59024 1.916.28357.7032 4.33499 2.054 5.5668.303.6074-.8669-.1298-4.9978-.92013-4.8064-.97089.2356-1.27942 1.06-1.85013.7746-1.54892-.7726-.60617-4.2624.48544-4.2411.63651.0141 1.24762.9768 1.75802.6433 1.0281-.6697.9786-2.9948.867-4.6344-1.52803.9183-4.23061.583-4.42345.1311-.30307-.7069.45548-1.4831.85251-1.9686.25311-.3067-.35483-.5298-.99634-.5249zm40.66008 1.6289c-.9532.101-1.9722 1.2652-1.8111 1.5224.2872.4605 1.2653-1.4482 2.1922-1.4975-.0653-.0159-.1311-.0232-.1964-.0249-.064-.0037-.1207-.0069-.1847 0zm-44.78227.34c-.06036-.0017-.11163.0251-.13293.0923-.05491.1809.5866-.1203.39514.8011-.16107.7727-.42871 2.4069-.95862 3.4277-.06537.1238-.17877-.7976-.30307-.75-.397004.1616-.778077 3.4277-.512239 3.7698.005432.0053.152466-.3103.1969-.158.253169.8648-.092103 1.3203-.078003 3.6899-.058564-.2128-.529908-1.1818-.565308-.8012-.009094.1115.347534.833.616577 1.1291-.031799-1.2938.416443-3.4488.092072-4.2678-.040375-.1042-.189667.1897-.235474.236-.056732-1.0263.008637-2.6601.432375-3.3869.08349-.1415.1774.9783.26224.8526.57434-.8384.90557-2.7344 1.11651-3.7679.11344-.5439-.1506-.8557-.32617-.8667zm45.03227.0142c-.0477.0054-.0885.0286-.1188.0657-.0318.0373 2.9721 2.9741 1.8909 4.7265-1.019 1.6502-5.5114 1.8875-5.8943 2.219 1.6977-.3193 5.4161-.1418 6.5113-2.3908.7709-1.5806-1.6782-4.7124-2.3891-4.6204zm-21.7167 2.219c-.2038-.0018-.3916.0336-.5513.158.647-.0428 2.2295.6572 3.3746.1164-1.3629.1384-2.2104-.2707-2.8233-.2744zm28.0434.0122c-1.4795.0372-3.7107 1.6129-3.36 2.0081 1.3079-.5989 1.3524-1.3306 3.938-1.93-.172-.0654-.3652-.083-.578-.0781zm.4201.3811c.5372 1.0049-.9056 3.6491 1.0244 2.561-1.4477.2691.0409-2.3056-1.0244-2.561zm-12.0119 1.471c-2.3464-.0406-5.6661 1.2426-5.6979 2.5468-.0195.8081 2.6745 1.1839 1.5879 1.9954-2.7647 2.0666-6.529 1.2922-6.6297 1.7849 1.6782.0104 5.0028.2214 7.3529-1.8892.8861-.7995-1.9227-1.5117-1.7739-2.1287.28-1.1393 4.0882-2.3551 6.0926-2.2045-.2836-.064-.597-.0994-.9319-.1047zm-40.88372.1169c-.125699.4097-.201901.8118-.249539 1.2477.029938-.3048.106201-.5902.223209-.9708.0318.122.07443.2707.1452.3933-.0744-.1897-.08167-.5244-.11887-.6702zm41.26442.3811c-.427-.0037-1.0385.0818-1.7191.1049 1.7264-.0129 2.1111-.2006 1.1806 1.5098-.7355 1.3538 1.4745 1.2137 2.0343 1.1819-.5934-.0249-1.8892-.2995-1.3379-1.2336.7622-1.2953.5512-1.5575-.1579-1.563zm-13.97.197c-1.2763.0421-2.1165 1.2068-2.9281 1.4177.8189.491 1.9531-1.5117 3.8867-1.2458-.3457-.1365-.6628-.181-.9586-.1719zm21.2699.4074c-1.2776.5404.337 5.5223 1.8237 4.5296-1.6945-.6855-1.65-2.6545-1.8237-4.5296zm-21.0204.0389c-.0299.0037-.0635.0055-.0921.0142.7799 1.0635 2.3379 3.0393 1.5099 4.9233-2.1727-.0444-7.4682 1.2105-8.533 2.0344-1.533 1.1856 1.4355 1.9549.9178 2.4934-.9695 1.0105-3.8137 1.2195-5.5663.5782 1.0063.8556 5.0346.6787 5.9084-.5782.4872-.6999-2.2349-1.3415-1.2989-2.2043 1.0403-.9624 6.1724-2.157 8.9921-2.0489.0409-.1293.2268-.2678.3543-.5898.5653-1.427-1.1446-4.4503-2.1001-4.6223-.0318-.0054-.0599-.0017-.0921 0zm24.7882 2.1143c-.8239.039-1.7599 1.9441-2.0879 2.0221.9696.5103 1.4995-1.8996 2.4282-1.9051-.1098-.0799-.2233-.1224-.3403-.117zm.1311.3542c-.2019.5957 1.122.9732.4465 3.4259-.6733.0568-1.5984-.1896-2.4155.7885-.2567.3049-1.1464 3.8886.2749 5.2636-1.9177 1.9551-5.4406 2.2491-5.8679 2.5345-.2677.5421 4.2461-.3526 5.9069-2.127.4765-.5085 4.3505-3.879 4.7407-3.6223.2196.1438-.6738 2.4741-.4732 2.8479.1982.3706 2.0647-1.5435 2.4422-2.3765-.6628.9623-1.9477 2.3147-2.0221 1.9959-.1933-.8245.8879-3.013.014-2.7434-.8737.2689-3.6276 2.3799-4.2673 3.0709-.647-.1737-.897-3.3387-.2768-4.6735.4451-.9531 2.2331-.2353 2.4953-1.0366.4519-1.3769-.1202-3.1368-.9977-3.3479zm-49.92891 1.9837c-.36295-.011-.68235.1237-.82752.5103-.1951.5246.71774 1.7685.26221 2.2716-.49768.5513-1.15189.5176-1.98123-.4853.22683.503 1.23855 1.3133 2.15319.5388.61658-.5249-.52807-1.6287-.2763-2.3251.26767-.7371 1.33249-.3792 1.92999.1061.77081.6239-.40784 1.2173-.24997 1.9301.38608 1.7386 4.29916 1.8343 5.15891 1.6019-.52808 1.8203-.17377 5.5364 2.78433 4.3967-2.4672.8384-3.13504-2.4563-2.4545-4.6198-1.62195.4641-5.08136.0494-5.2923-1.3008-.17334-1.1148 1.28668-1.4073-.06534-2.2312-.36157-.22-.77987-.3848-1.14147-.3933zm31.14161.8398c-.1878.023-.6537.0974-1.0121.1169-.4764.0264-2.5289.0867-2.5466.1453-.0372.126 1.891-.039 2.3642-.0532.4714-.0122 1.1714-.1487 1.2726-.2109.0177-.0086-.0159-.0069-.0781.0019zm-5.8308.2232c-.1914.0073-.3701.0302-.5507.0517.6928.0244 1.1251-.0232 1.405.0652-.0458.833-1.4635 5.2297 2.4813 5.2122-2.9612-.6947-2.1269-3.3316-2.008-5.2774-.1806-.0286-.7532-.0749-1.3276-.0517zm-28.015252.9975c-.242707.9379-.049469 3.4295.420102 3.9912.23773.2835.27811-.5635.73365.0657.48223.6611.85427 2.4509.49993 3.3479.63425-.7196.14704-2.3093-.2359-3.2434-.53308-1.2991-1.05438.1084-1.18185-.7355-.13294-.8751-.423737-1.9691-.235932-3.4259zm15.216252.906c-.2232-.0054-.4641.0032-.7354.0123 1.2195.1081 1.5403.1471 1.5348.5776-.0054.6433-1.6214 1.7353-.8134 2.3501.7286.5531.9359.3457 2.7965.5776-1.891-.3508-2.5307-.4197-2.4685-1.0899.0635-.6804 1.1641-1.3873.9464-1.9158-.1597-.3825-.5957-.496-1.2604-.5119zm-1.9703.0123c-1.2781.0214-2.5666.1684-3.5447.6166-.5458 1.8238-.86293 4.2216.8666 4.7923.9109.3012 1.7457-.9573 2.6263-.7745 1.4763.305 2.1995 2.5413 1.3116 3.9644 1.2264-.886.6008-4.1699-1.522-4.2002-1.0939-.0159-1.9496 1.0884-2.4423.8262-1.2567-.6665-1.0902-2.9685-.6824-4.5161 1.2581-.4659 1.9191-.6252 4.6467-.6963-.4092-.0124-.8329-.0196-1.2598-.0124zm45.7549 1.0368c-.9658.4836-1.0117 2.3623-.5385 3.4009-.3012-1.0154-.3049-2.6905.5385-3.4009zm-24.3022.2889c-1.4092-.0108-2.2385 1.455-3.6613 1.6552 1.2812.6682 2.4898-1.6198 4.3046-1.5491-.2286-.0707-.4415-.1042-.6433-.1061zm-4.9235.0922c-.122.0476-.0603.5139.2378.8806.2976.3652.8379.6238.9976.564.0726-.0269-.372-.3213-.6823-.6824-.3117-.3616-.4964-.7836-.5531-.7622zm5.1997.2889c-.0603.0159-.1007.0672-.1188.1452-.044.2146.8897.7282.867 1.719-.0127.5776.411 1.994-1.2336 1.7989-1.744-.2074-3.9966-.2659-4.1344 2.5734-.0481.9853-.3208 1.708.4586 2.8227-2.0593.2945-7.9713 1.2373-8.3506 2.1392-.4306 1.0264 1.7866 1.3293 1.5367 1.6946-.314.4555-2.9137.7531-5.212.4197.4305.8188 4.751.7762 5.8285-.3421.4219-.4375-1.9155-.9446-1.5879-1.6673.4183-.9184 7.5535-1.985 8.6909-1.9568-1.1697-1.547-.8026-2.4777-.7209-3.11.2232-1.7617.6732-2.5435 2.7307-2.3379 1.666.1682 2.6459.3371 2.6636-1.9812.0091-.9465-.9373-1.8947-1.352-1.9174-.0231-.0018-.0462-.0055-.0658 0zm-33.54437 2.7309c.22137 1.331.19464 1.9885-.328.9712-.1969-.3792-.57935-.9214-.57758-.3401.37204-.3794.87021 1.4975 1.02399.9835.22003-.7372.02859-1.6146-.11841-1.6146zm43.25977.0127c-1.9369.0031-5.6426 1.4336-6.2755 2.7185-.3561.7226 2.249 1.2422 1.5489 1.7597-3.0392 2.2417-7.5444 1.6355-7.5231 2.0874 1.1111.1526 6.1394-.1523 8.2195-2.2329.578-.5776-1.9136-1.1855-1.4318-1.8375.8702-1.1769 4.4838-2.405 6.4596-2.2579-.1983-.1702-.5507-.2373-.9976-.2373zm6.9718.092c-.7087.6538.7957 2.5076-.1715 3.7022-.8525 1.0561-2.4209.1005-3.3337 1.6286-.6397 1.0685-1.0244 3.1614.7745 2.9009-.9642-.6343-.8312-1.7454-.2233-2.7434.8983-1.4782 2.3107-.3367 3.1899-1.655.647-.9678.6519-2.7508-.2359-3.8333zm-6.6438.2886c-.055.009-.1031.0517-.1311.1455-.3916 1.2991-1.0104 1.5045-.9977 2.1533.0086.3987.2463.4818 1.1038.3403-.3366-.0744-.4623-.3493-.4464-.5373.0427-.5562.5707-1.0842.8257-1.694.0585-.1366-.1842-.4292-.3543-.4078zm-31.8114.0657c1.019 1.4799 1.1465 2.7294.4587 3.4277-.3561.3629-2.2276-1.3367-3.071-.6044-1.2599 1.0934-.6256 3.8759.4201 4.8839-1.4872.1403-3.85816-.3366-4.83133-1.4568-.40921-.4731.49817-.9018.10482-1.4975-.51586-.7796-3.34417-2.0203-3.51791-1.366-.02859.1096.00864.2622.06531.4199-.02451-.0905-.0195-.156.02676-.1967.60071-.5459 2.51483.769 3.30878 1.2597.4201.2624-.48047 1.1538-.13294 1.4855 1.15192 1.0952 3.29971 1.9137 5.46201 1.4568-1.0848-1.2584-1.7154-3.4757-.7604-4.5954.583-.6843 2.3447.8398 3.2416.4463 1.0544-.4609.45-3.4416-.7745-3.663zm-1.0366.4343c-.1121.0566-.2256.1115-.328.1577.1061-.0444.2145-.0994.328-.1577zm-11.37084.0122c-.2146 1.7988 1.11654 4.6698 2.67947 5.3186 1.09885.4536-.01044-.7922-.47318-1.5899.37745.7142 1.04758 1.5403.77442 1.4837-1.52393-.314-2.89407-2.9173-2.98071-5.2124zm32.37664.5c-.1647.0054-.2781.0249-.2745.0513.0104.1224 1.7667.2871 1.758.1311-.0072-.1221-.9908-.1983-1.4835-.1824zm-22.057 2.3354c-.6629.0501-.622 3.4595.5512 4.3333.4945.3689 5.7864-.6006 7.9572.6575-1.4336-1.5735-6.5571-.7265-7.7463-.9075-1.1909-.1787-1.3183-4.1399-.6964-4.0686-.0231-.0055-.0444-.0164-.0657-.0147zm-7.69327.4202c-.95319-.0195.91965 1.8325.76221 2.4032.544-.7853-1.21405-1.955-.76221-2.4032zm2.11423 1.0508c.39877.4309-.81165 1.1274.60427 2.1001-1.08245-1.2154.59754-1.6624-.60427-2.1001zm46.21464.8012c-1.0531-.0214-1.994 1.4286-2.7721 2.2313.9605-.7056 1.8397-1.7953 2.9812-2.2046-.0713-.0159-.1402-.0249-.2091-.0267zm-.2378.3543c-.0177 0-.0354.011-.0512.0269-.3775.356.4731 1.9067-.383 3.2429-1.1056 1.2829-3.9094 2.4812-5.5912 3.1635 1.1909-.0495 4.3295-1.6215 5.2246-2.5202-.4981 1.4336-1.2177 2.5806-.2359 2.4545-.8134-.2497.358-1.9814.6824-2.8742 1.2989-.8597 2.0307-1.8452 3.2697-2.9543-.7672.5634-2.0575 1.9721-2.8233 2.3501.7037-1.2178.186-2.8855-.0921-2.8892zm3.5197.2622c-1.8891 3.4807-.6079 1.8823.8135.0798-1.3134 1.1983-2.5416 3.4898-.8135-.0798zm-22.8314.25c-.1579.0518-.3317.3298-.2623.4202.5635.7336 1.313 1.9404 1.2867 2.2719-.1847 2.2295-1.6324 1.4179-3.1386 1.2601-1.0245-.108-2.4495.4272-2.5343 1.3134-.1261 1.3221 1.033 2.366 1.8129 2.1392-.9092-.594-1.308-1.3031-1.1555-2.1538.2177-1.2173 2.5094-1.0471 3.4398-.8787 1.4264.2567 2.1428-.8843 2.2045-1.7866.0408-.5758-.7105-1.5558-1.508-2.5466-.0409-.0496-.094-.0567-.1452-.0391zm-20.0227 1.6148c-.1647.1914 1.7068 1.8251 1.4831 3.3618.8244-1.0244-1.3288-3.541-1.4831-3.3618zm5.9619.0122c.5263.4433.3843.6591.0513.9587-.8243.7407-.8579 1.0615.4995 1.4712-.8556-.7127-.3774-.8738-.0263-1.1946.6097-.5583.5598-1.1714-.5245-1.2353zm-6.4863.092c-.1294-.1006 1.6269 2.2014 1.1677 3.1777-.2817.6006-2.6177-1.3947-3.1898-.6294-.2695.3599.6714 1.9515 1.5488 2.6783-.9463-1.0154-1.7476-2.2386-1.2993-2.5467.6932-.4785 2.5238 1.5064 3.2557.7746.8366-.8385-.9269-3.0166-1.4831-3.4545zm40.9485 1.9568c-.3878-.0286-1.4599 1.3537-1.9422 1.969.5513-.5957 1.6038-1.7354 1.7318-1.7068.1152.0268-.0713.5745-.2219.7886-.8343 1.1855-2.1283 1.6555-2.8637 2.6245-.5299.6543-1.1483 1.2532-1.1946 2.063.1012-.5794.8403-1.4336 1.3135-1.9563.994-1.1609 1.8606-1.597 2.7307-2.5343.358-.3866.6524-1.1129.5122-1.2213-.0195-.0159-.039-.0246-.0658-.0264zm-6.5766.342c-2.0271.0264-6.2981 2.0113-6.0926 2.7046.1061.3579 1.3398.5318 1.0385.8397-1.3184 1.3366-5.6412 1.611-6.0541 1.969 2.391-.1859 5.5578-.9146 6.8531-2.1922.2644-.2586-1.3984-.5617-1.2069-.8665.2836-.4537 3.6722-2.1868 5.8291-2.4422-.1135-.0159-.2323-.0141-.3671-.0124zm-.0404.2886c-.2359-.1006-2.6319 2.8179-.656 1.7849-.8221-.1062 1.1696-1.5648.656-1.7849zm-35.8805.5249c.4519 1.4763 1.4228 2.7078 2.7045 2.1533.744-.3226 3.3101 1.205 3.7942 2.9276-.0762-1.4659-2.4137-3.4715-3.8209-3.1635-1.4319.3121-1.3593-.0478-2.6778-1.9174zm-3.03422 1.0898c-.25.0105.91961.8685 1.50985 1.6021.09574.1188-.57211-.3721-.74768-.3953.16288.1648 1.17325.7744 1.06348.5653-.24319-.4641-1.75989-1.5489-1.52258-1.5221.46457.0513 4.12765 1.8606 3.21665 2.1795 1.2494-.3367-2.38551-2.0361-3.32282-2.3765-.09754-.0371-.1597-.0548-.1969-.053zm25.79992.158c-1.0648.0847-2.0874.7971-3.1118 1.1409.9341.2837 2.1636-1.1536 4.1875-.9708-.3629-.1457-.7209-.1988-1.0757-.1701zm.4201.4976c-.078.0127-.1402.0536-.1969.1189.5481.5317 1.1079.9001 1.2073 1.7988.0744.4058-.1134.6592-.3013.9855.2197.1134.324.0213.5508.0245.2909-.3774.4256-.838.3421-1.2068-.1556-.6733-1.0666-1.7989-1.602-1.7209zm-19.2604.8811c2.7538 3.0251 2.8977 3.9716-3.3619 1.1677 4.4357 3.0059 8.0226 2.5271 3.3619-1.1677zm-3.8333.3153c-.0231-.0072-.0408.0018-.0657.0123-.1506.0676-.1788.5103.1969.6824.0957-.241.0213-.6558-.1312-.6947zm23.0547 1.7721c-2.38.1098-6.3426.9945-7.5108 1.4038-.7849.2762 1.7 1.0688 1.2603 1.1555-1.7226.3403-2.4794.3049-4.3989.1062.9962.3262 3.908.4731 5.0545-.0795.5635-.2713-1.8429-.8329-1.352-1.0103 2.1106-.7659 4.6485-.9817 7.8507-1.563-.2623-.0196-.5653-.0286-.9038-.0127zm14.2845.3012c-1.044.1652-5.3736 3.5235-2.5081 1.1415-3.5392 2.6935 2.0044-1.1024 2.6782-1.1288-.0377-.0195-.1012-.0232-.1701-.0127zm-13.3789.0782c-.7867.0354-.8611.8701-.8543 1.4585.009.6416.7091 1.1005 1.6677.8792-.6628-.273-.9799-.3687-1.0244-1.0371-.0404-.6129.0567-.8312.3689-1.2989-.0604-.0054-.1062-.0037-.1579-.0017zm-16.6481.434c-.5227.0054-.8507.0269-.8403.0658.0567.2091 4.5441-.0445 6.8004.8544-1.0884-.7463-4.3918-.936-5.9601-.9202zm-1.5099.3421c-.0195-.0017-.0445.0037-.0658.0127-.3879.1843.7322 1.5556 1.7726 2.0076-1.2092-.8361-1.4146-2.0076-1.7068-2.0203zm.5653.1172c.6274 1.3891 1.2971 2.1653 2.9136 2.0752 1.0775-.0605 2.4386.1133 3.2429.9322-.73-.8988-1.8165-1.1751-3.5587-1.1556-1.1995.0123-2.1478-1.0542-2.5978-1.8518zm22.121 0c-.9964-.002-2.935 1.2263-3.5307 1.2744.8135.3238 2.097-1.0142 3.885-1.1946-.0958-.0586-.211-.0798-.3543-.0798zm5.9352.092c-1.0971.2005-3.8868 1.1465-4.7657 2.022-.1261.1257.6824.0871.5653.1843-1.0348.8457-4.4874 1.2073-5.2405 1.719-.333.2288.7781.25.4872.408-.7885.4267-2.9893.2585-3.6771.8523.5476-.2976 3.7003-.6116 4.0442-.8914.2341-.1914-.8702-.3525-.5245-.4609 1.3112-.4092 4.2534-.7691 5.3699-1.7454.2195-.1934-1.0512-.009-.4342-.342 1.2849-.6914 3.1119-1.416 4.0174-1.627.241-.0567-.7159.5598-.9586.8665.2994-.1806 1.4037-1.0367 1.1166-.9854zm-22.5961.1702c.7019.5-1.3452.9359.289 1.3257-.6134-.7124 1.4264-1.0794-.289-1.3257zm16.6482.1578c-.1398-.0091-.3063.0299-.4855.1184.8543.3158.2286 1.3488-.6433 1.3793-.8774.0298-1.5825-.0391-2.3765.3542-.7318.3636-1.1963.9002-.9445 1.6678-1.4727.1982-4.3173.6025-5.3187.8257-.1488.0354.0763.1013.3154.1594-.0939-.0636.0231-.1538.1311-.1843.9519-.2659 3.8922-.5208 5.5667-.7354-.1433-.3525-.3261-.7568.1452-1.26.4982-.5353 1.3026-.6151 2.4282-.6699.6397-.0319 1.2794-.3526 1.6287-.9197.1947-.3154-.0231-.7073-.4468-.7355zm-17.527 1.891c.3807.2922 1.01.8928.6697.9055-.7904.0318-3.2253-.7336-2.8764-.2622 1.3415 1.8093 5.5808 1.3806 7.8388 1.8521-1.9036-.5251-6.1515-.2007-7.3529-1.6679-.5957-.7318 2.6332.6701 2.915.1969.1669-.2804-.7813-.8066-1.1942-1.0244z" fill="url(#d)" stroke="url(#c)" stroke-width=".5"/><path d="m42.1595.841675c-.4628.165035-.6524.157837-.8665.406005.1311.172.5281.33301.7354.44653 1.5966.87549 1.2953.78528.6148 1.40552 1.2671-.62207.3208-.90564-.5758-1.40552-.4128-.22876-.3951-.22692-.6964-.44653.2073-.16467.4342-.274902.7885-.406005zm-5.3576 1.456785c-.0408 0-.0213.0232-.1311.03906.5299.47498 2.2013 2.75928 3.0324 2.25794-.9554.06213-2.0025-1.4867-2.9013-2.297zm9.689.578c.2019.26587.1574.34021.0653.42005.4823.0636.0694-.30298-.0653-.42005zm-5.3948 1.22083c.7658.2146 1.3256.60791 1.8238 1.20874.3721.44861.6574.97485.3952 1.39136.7513-.41284.1788-.95545-.3561-1.55066-.5549-.61524-1.1769-.92322-1.8629-1.04944zm-.289.10486c-.2532.23547-.5916.61474-.4995.69641.2391.21094.5085-.25537.4995-.69641zm.617 2.34961c-.1969-.00183-.0054.87561.3403 1.53674.4977.94812 1.2336 1.86597 1.8379 2.2312-.0196-.094.0244-.1824.0921-.25-1.3665-1.22998-1.2214-1.51855-1.7599-2.29663-.5354-.77441-.2146-1.07934-.4714-1.20862zm10.6086.7091c.1379.39698-.2305.37391-.5.39527 1.5403 1.49219 2.5416 2.67577 2.6532 3.32097-.0993-.9318-1.5792-2.35332-2.4159-3.22893.4347-.04761.3475-.41284.2627-.48731zm-1.1043.27637c-1.0879.71948-1.4.99951-.8524 1.49585-.3793-.45373.1347-.95691.8524-1.49585zm-2.9544 1.69263c1.0757.427.3139 2.06614 1.1696 1.90504-.5952-.3384.2414-1.54347-1.1696-1.90504zm-1.5489.07947c-2.0202.63464-2.9825 1.93907-4.0564 2.28477.5049-.133 1.136-.4927 1.6551-.9055.7036.3896 1.2993.9958 1.68 1.7454.4309.8469 1.1414 2.017.2236 2.5999 1.1996-.5829.8398-1.4694.1574-2.6123-.4183-.6982-1.0915-1.3611-1.694-1.9051.6683-.4468 1.2104-.76027 2.0343-1.20717zm4.0052.02673c1.161.79224 1.1768 1.41234.117 2.11234 1.558-.8946.8452-1.45487-.117-2.11234zm-12.8803.42017c1.1198.78297-.7853 1.99027.6166 2.07327-.7885-.4713 1.1379-1.719-.6166-2.07327zm-10.4366.0653c-.8225 2.50627-.2428 3.77327.6043 4.77817.7177.8539 2.1604 2.9541.9587 4.6219-.8739 1.2104-2.6918-.4344-3.9662.4077-1.1946.7885-.9555 2.49-.0249 3.6223 1.5615 1.9033 3.3568-1.6482 4.4765-.6165 2.008 1.8501 2.2281 4.0296 1.4568 5.2261-.3153.4907-.5544 2.2756-.3807 3.3477.1752 1.072.7709 1.4282 1.7984 2.0879 1.225.7812 2.5593-1.0744 3.8478-1.5898 1.1074-.4432 2.8569 3.268.4732 4.1364 2.6173.3347 1.8484-4.8242-.461-4.3723-1.6623.3244-2.669 2.2562-4.1485 1.563-1.7812-.8362-1.5012-3.3973-1.1147-4.923 3.8223-.3952 6.8743.0318 8.7031-2.3501.6025-.7831-2.5484-1.6679-1.8501-2.2186.725-.5743 2.7879-1.3702 2.8092-1.3787-1.3683.2427-1.9604.2866-3.1513 1.3252-.838.7305 2.2349 1.5312 1.641 2.2312-1.7031 2.0117-4.9321 2.228-7.7336 2.0488.4746-1.914.3312-3.3069-1.4056-5.0417-1.3982-1.3982-3.3391 1.6941-4.358.8008-1.2776-1.1185-1.2867-2.8321-.7355-3.5975.9074-1.2565 3.1495.7198 4.5691-.6169 1.1783-1.1093-.3031-3.2607-.9446-4.6606.7922-.0994 1.763-.2039 2.7167-.3404-1.175.1153-2.3446.0957-3.0465.1189-.8275-1.6006-1.2-2.6994-.7336-4.60997zm7.9431.18467c-.9091.2854-.881.1646-1.8646.6946-1.3202.7105 1.7812 1.2368 1.2867 2.1018-.3525.613-1.0544.9837-1.891 1.221.9396-.1983 1.7317-.4537 2.1142-.7745 1.322-1.1147-2.6528-2.0043-1.274-2.5874.544-.2304.8312-.3774 1.6287-.6555zm-2.4689 4.0157c-.519.1096-1.0812.2054-1.6532.2889.5689-.0568 1.1342-.142 1.6532-.2889zm20.6782-3.0589c-.1701 0 .3866 1.1963.6969 1.5897.2282.2921.8733 1.1379.9178 1.0244.0268-.0694-.583-.7677-.8792-1.1555-.3331-.4378-.6465-1.4569-.7355-1.4586zm2.0489 2.0879c.0318.7866-.0231.7405-.1579.9586.3689.1789.314-.5635.1579-.9586zm.5902.2764c.3403.4572.647.9695.8933 1.4299-.2286-.5068-.5017-.9446-.8933-1.4299zm.8933 1.4444c.1734.3861.3331.8117.5118 1.3253.0907-.039-.1361-.622-.5118-1.3253zm-13.3661.2885c-.5072.1208-.3652 2.4563 1.4051 3.3215-2.1196-1.7617-.7745-3.144-1.2867-3.3088-.039-.0127-.0848-.0213-.1184-.0127zm14.1279 1.5757c.1914.6098.3883 1.2032.5371 1.7314.1525.5425.466 1.9054.8276 1.6677-.3702.1098-.6434-1.1184-.8012-1.7331-.1275-.4982-.3099-.9927-.5386-1.68zm-.3031.1701c-.2853.2427-.6288.6807-.6823.7478-.5281.6756-.7178 1.2249-.4465 1.7476-.1805-.3898.1561-1.1483.4592-1.563.3081-.4219.4519-.6116.6696-.9324zm-9.3872.3421c-.0708-.0139-.1134.0105-.1171.0903-.0159.2908 2.2562 2.1923 2.0861 4.3596.2708-.2319.1184-.1594.2885-.3032.1347-1.8696-1.7612-4.0564-2.2575-4.1467zm-1.0245.3276c-.2871.009-1.3239 1.1079-1.1555 1.1824.1665.0708 1.4091-1.0069 1.2086-1.1697-.0122-.009-.0336-.014-.0531-.0127zm9.322 1.9037c.0621.1007.1238.2019.2232.3011.6914.6929.6184.7496.4854 1.2356-.1025.3807-.3756.7848-.7617 1.1818 1.1891-1.1433 1.1678-1.8239.1184-2.6532-.0245-.0195-.0476-.0422-.0653-.0653zm-1.7989.4342c-.0268-.0054-.0549.0037-.078.0122-.1398.0513.3562.1365.2749 1.1025-.039.4695-.1951 1.125-.039 1.3665.108-.0463.0141-.0762.1311-.0535-.1987-.5245.0282-.9233.0653-1.3398.064-.6983-.1665-1.058-.3543-1.0879zm-1.1946.1702c-.2885.0407-1.4989.6859-3.3867 2.0732-.0831 3.0765.7463 4.7321 1.3787 4.5302.1828-.0585-.916-.5976-1.0629-4.3193 2.5129-1.997 3.1612-2.125 3.1367-2.2719-.0036-.0177-.0249-.0196-.0658-.0122zm5.9211.2353c-.0549.0214-.1542.1915-.092.2891.1592.2536.0743-.2305.092-.2891zm-16.5687 1.3916c-.5263.0354-1.1288.209-1.5879.3294.906-.1099 2.1287-.255 2.1537.2218.0317.6715-.9219 1.7013-.5 2.0752 1.0934.9708 4.9162.2904 6.5376-1.0902-.0054-.0813.1294-.3611.0531-.3807-.8556.8929-4.668 2.4807-6.2096 1.563-.5743-.3421.9305-1.5172.6964-2.1924-.1561-.4517-.6166-.5615-1.1433-.5261zm17.0809.9976c-.009.0195-.0072.0586-.0122.1062.005-.0459.0032-.0794.0122-.1062zm.0268 1.3008c.0227.3151.044.6025.0531.7353.0068.1152.0195.25.039.406-.0177-.1523-.0213-.2944-.0267-.406-.0073-.1737-.0409-.4463-.0654-.7353zm-5.5809.9975c-.0566.172.6557 1.1343.6965 2.0879.083 1.9301-.7055 1.8892-.5512 2.0344.156.1455.9269-.5898.8792-2.0222-.0371-1.1213-.8829-2.114-1.0104-2.114zm-.7213.3013c-.5158.4682-.9604 1.094-1.3914 1.6415.7603-.3385 1.0957-.9872 1.3914-1.6415zm6.5109.592c.0481.2447.1012.4646.1579.6172-.053-.1633-.1098-.3794-.1579-.6172zm-.1824 1.6002c-.3489.8366-.7585 1.4216-1.0775 2.3379-.2214.6361.3367.9904.3421 1.3129.0018.1489-.039.3228-.1188.5105.0498-.1025.1029-.2019.1578-.3135.1152-.2391-.1915-.5635-.328-1.0244-.1543-.5173.7354-1.8928 1.0244-2.8234zm-6.3285 1.5495c-.289.0085-.5689.0513-.5653.1061.0123.122 1.1642.1541 1.1555 0-.0036-.0834-.3012-.1134-.5902-.1061zm-.7622.145c-.6733-.0389-.8171 1.6782-.8134 2.4546.0036.9128.1488 2.3037.5653 2.4952.0426-.0885.2427-.2109.2871-.3031-.5934-.4944-.4555-1.4087-.5244-2.1264-.0817-.8506.6129-2.5135.4854-2.5203zm4.6095 1.9954c-.2196.0517-.0317.5586-.2373 1.2068-.1701.5372-.4872 1.2708-.2091 1.4055-.0232-.4658.2695-1.033.406-1.5879.138-.5562.2532-1.0738.0404-1.0244zm2.625.1847c-.4414.3525-.6968 1.758-.4328 2.6386-.1823-.9641.0232-2.2313.4328-2.6386zm-3.649.3136c-1.1682.7902-2.5148 1.7846-3.5587 2.7714 1.4019 2.1482.7409 4.2693-.9854 5.1059 2.4812-.8366 2.4721-4.2052 1.3787-5.2633.7781-.7798 2.871-2.2508 3.1654-2.614zm2.2843.6042c-.1206.1738-.2622.3633-.4732.6165.1788-.2178.3421-.4268.4732-.6165zm-48.1586 2.272c.6257 1.0757 1.2531 1.2934 1.944 1.1289.7872-.1897 1.5757-.9588 2.1002-.7088.9555.4501 1.5952 2.3802.881 3.4522-.7408 1.1111-2.2099-.6311-3.3355-.3013-1.1233.3294-.3153 4.023.6574 4.7124-2.3868.5349-4.55456-.4927-5.6729-1.4568.44323 1.3558 3.9434 2.4668 5.7387 1.6412 1.0721 1.0117 2.2825 2.9843 1.4709 3.6099-.7817.6007-2.7326-1.1007-3.2167-.6434-.2854.2695 1.0367 2.4777 1.9958 2.7576.6538.1914 1.2917-.4519 2.2045.3281-.7178-.897-1.1379-.5068-2.0081-.4983-1.1891.0105-2.3478-2.2861-2.0874-2.5342.4428-.422 2.4014 1.6587 3.3741.6701.7976-.8117-.7105-2.6606-1.4051-3.7558 2.6459-.092 6.3676-.5598 6.1566.9446.3012-.2834.3135-.5122-.1438-.9317 1.7421.0811 1.0475 1.1586.3548 1.616-.4714.3084.3951.9164.7744 1.0494 1.4514.5136 4.5015.4196 6.0522-.6702.4374-.3067-2.1727-1.4849-1.8115-1.7068 2.0365-1.2439 5.8625-1.4263 8.2321-1.9031-2.1391.1968-6.2595.583-8.4413 1.7598-.4959.2677 2.0756 1.3008 1.6147 1.7331-.6647.622-2.4844.9427-3.9911.8914-1.5081-.0493-2.7648-.5615-2.1283-1.0098 3.3124-2.3429-3.0855-2.1196-6.7999-1.93-1.278-.7091-1.7635-4.2428-.9183-4.5033 1.0404-.3208 2.6922 1.4055 3.61.1579.8063-1.0957.1439-3.2697-1.3256-3.6635-.6556-.1734-1.3715.5583-2.0094.7499-.858.2567-1.3738-.3938-1.8665-.9855zm41.9223.2234c-1.3384 1.634-3.6264 2.3713-4.8187 2.6123 2.6777-.3562 4.0279-1.6429 4.9108-2.3892.0281-.3086-.0373-.1719-.0921-.2231zm-5.8948.1042c.661.3121-.9746 2.0933-.7087 2.127.2446.0334 1.8429-1.8167.7087-2.127zm-1.5893.2891c-1.5299.312-3.0965.7567-4.1757 1.6535-1.1361.9483 2.1073 1.2972 1.1963 2.1285-2.1922 1.997-5.437 2.1054-8.3628 2.4403.9727 1.2386 1.7771 2.0506 1.3252 3.4149-.7178 2.164-3.688.1828-5.1462 1.4038-.8634.7231-.1683 2.1462.9319 2.4421-.652-.5122-1.6446-1.5952-.8807-2.258 1.3575-1.1764 4.6912.5549 5.5419-1.391.3811-.872-.8207-2.7471-1.2618-3.4276 2.9436-.2124 6.2006-.8897 8.3379-2.7698.5586-.491-2.3745-1.2178-1.5361-1.8648 1.3183-1.0152 3.4308-1.6141 4.0301-1.7719zm-11.5142.8135c-.1683-.0179-.3439.1486-.5122.42.1524-.17.3189-.3135.5122-.42zm-.5372.4609c-1.0366 1.2068-1.0439 3.7288.3281 4.6997-1.2867-1.2921-.9165-3.6985-.3281-4.6997zm17.6835 3.124c-.9804.353-1.5616 2.5117-.656 3.0856.1488-.5349-.4978-1.5966.656-3.0856zm2.5484 1.1682c-.0232.002-.0463.0159-.0677.0391-.2676.319.5708 1.405-.1964 2.915 1.049-.5898.5902-2.9753.2641-2.9541zm3.3332.3013c-.069-.0371-.6855 1.324-1.0508 1.9172.4433-.5829 1.1007-1.8891 1.0508-1.9172zm-4.1344.0531c-.6892.4769-1.3611 1.2582-2.0752 1.7599 1.0952-.5227 1.547-1.2512 2.0752-1.7599zm3.3745.4073c-1.0793.9075-2.1587 2.1429-3.3496 2.9137-.289.7709-1.3135 2.3855-.7482 2.7045-.2122-.4111.397-1.8784.8526-2.6514 1.0207-.8769 2.522-2.1777 3.2452-2.9668zm-3.9521 3.479c-1.4445 1.1788-2.6087 1.6946-4.8967 2.5611 1.6691-.5617 3.0466-.975 4.8309-2.4032.0286-.0817.0159-.0548.0658-.1579zm2.1922.0268c-.0676-.0104.3562.6202-1.4708 2.1922 1.3397-.8933 1.9191-2.1196 1.4708-2.1922zm-6.4473.5384c-.0409.0074-.0854.0164-.1438.0391.5743-.0566-.7246 1.2087-.9587 1.7458.5707-.4819 1.7331-1.9086 1.1025-1.7849zm5.9351 0c-.2536.1014-1.558 1.4942-1.5489 1.5227.0122.0408 1.6728-1.4445 1.5752-1.5227zm-6.6034.222c-1.2545.3507-4.0333 1.1129-4.8985 2.1142-.2215.2586 1.4513.5513 1.1306.8665-1.7258 1.6872-5.6939 2.2435-7.314 2.2844-.4958.9128-.9709 2.2471.3421 2.4812-.9196-.4982-.3811-1.5544-.1574-2.2581 1.1233-.2231 5.8621-.6823 7.4823-2.5855.3792-.4447-1.4977-.3915-1.2989-.7086.4908-.7854 3.0977-1.636 4.7138-2.1941zm-11.9874 2.0483c1.9159 1.6929 1.3947 2.5099 1.1165 3.0203.4061-.2024.4097-.2005.7481-.3938.2215-1.1093-.9414-2.2613-1.8646-2.6265zm-.7618.0537c-1.0883.0774-1.8166.9318-3.3087 1.1146 1.7081.0548 2.3479-.8543 3.5192-1.1146-.0761-.0019-.1379-.0056-.2105 0zm17.2647.3401c-.1842.0032-1.3379 1.3008-1.93 2.3497.8226-1.2652 1.9849-2.224 1.9568-2.3233zm-16.556 3.0996c-2.4209.2178-5.4637.6787-7.2078 1.2478-.3738.122 1.8184.7988 1.4568.9568-1.141.5032-3.1826.6415-4.751.342 1.3751.2871 4.0796.4234 5.0541-.2622.3158-.2231-1.9672-.9165-1.5752-1.0244 1.5684-.4324 4.7601-.9182 7.0231-1.26zm11.4221.8789c-.0336-.039-1.3488 1.0103-1.3116 1.0897.0354.078 1.3946-.9976 1.3116-1.0897zm-6.079.367c-.083.0019-.1733.0019-.2745.0141.7445.241.8402.8013-.342 1.5757-.4787.3135-2.2118.1097-3.0711.6819-.6115.406-.5426 1.3061-.2627 1.1946.1915-.0763-.0762-.6629.4184-1.063 1.0171-.8225 2.3092-.2769 3.3495-.8794.7105-.4129 1.4391-1.5366.1824-1.5239zm-16.2652.0141c.6665.2695-.6683.8294-.2377 1.1024.0145-.2091 1.5261-.6628.2377-1.1024zm15.4662 0c-.1243-.0213-.7517.239-1.3787.5513-.3757.186-.8861.4359-1.1824.4586-.3293.025-.4713.0286-.4854.0675.2074.1348 1.347-.2268 2.0734-.5779.6964-.3366.9854-.427.9977-.4727.0054-.0163-.0086-.0231-.0246-.0268zm5.8286.0653c-1.2508.3299-2.6509 1.0121-3.6631 1.5366-.264.1366.7019.0072.578.2092-.5018.8098-5.4588 1.6837-5.4357 1.852.0123.0884.583.1451.6293.2891.0726.2194-.6787.3347-1.0902.4199.5726.0354 1.5811-.4024 1.2744-.4732-.319-.0744-.4714-.2163-.5122-.2889-.0885-.1542 4.3954-.8629 5.462-1.8252.1365-.1224-.6856-.1598-.5916-.25.347-.3226 3.1472-1.3719 3.3491-1.4695zm-21.518 1.0761c.0903.0282.1928.0422.2885.0654-.1025-.0281-.2195-.0603-.2885-.092zm-.8012.9851c.4183.2535 1.0312.8633.6946.9712-.8044.2588-2.2417-.4463-2.8746-.459-.3276-.0068.5122.5974.9056.7622-.2233-.1116-.9446-.6683-.7618-.6575.6647.0391 2.2063.7051 3.0075.4466.4945-.1595-.3244-.7496-.9713-1.0635zm10.1744 1.9426c-1.602.1842-3.0411.3702-2.5343.4873-.0604-.1243 1.1787-.3154 2.5343-.4873zm-8.9536.0654c1.4569.1701 3.0697.3579 3.0983.3299-.0304-.0464-1.6642-.1844-3.0983-.3299zm3.86.4341c-.1293.0142-.2305.1262-.211.1311.0745.0177.4097-.0671.3422-.1042-.0477-.0269-.0885-.0318-.1312-.0269zm3.7148.0269c.3117.1609-.1987.2444-1.0103.2889.7939-.0322 1.5471-.0975 1.0103-.2889z" fill="#fff" stroke="url(#e)" stroke-width=".5"/></g></svg>