<svg enable-background="new 0 0 258.00 258.00" height="258" viewBox="0 0 258 258" width="258" xmlns="http://www.w3.org/2000/svg" xmlns:xlink="http://www.w3.org/1999/xlink"><linearGradient id="a" gradientTransform="matrix(0 -1 1 0 -.581108 1.581108)" gradientUnits="objectBoundingBox" x1=".5" x2="1.66222" y1="1.08111" y2="1.08111"><stop offset="0" stop-color="#abc4ab"/><stop offset=".771552" stop-color="#d5e1d5"/><stop offset="1" stop-color="#fff"/></linearGradient><path d="m44 4.00003h170c22.091 0 40 17.90847 40 39.99977v170.0002c0 22.091-17.909 40-40 40h-170c-22.0914 0-40-17.909-40-40v-170.0002c0-22.0913 17.9086-39.99977 40-39.99977z" fill="url(#a)" stroke="#000" stroke-linecap="square" stroke-linejoin="bevel" stroke-width="8"/><g stroke-linejoin="round" stroke-width=".2"><path d="m134.223 47.4207c17.486 1.3368 30.578 6.7737 42.925 14.9341l11.184-14.6548c-14.819-11.1839-32.892-18.2215-52.53-19.4074z" fill="#808080"/><path d="m46.6303 108.998c.837-3.137 1.8591-6.189 3.0547-9.1471l-13.1265-4.5162c-1.1875 3.5276-2.18 7.1443-2.9645 10.8373z" fill="#808080"/><path d="m119.008 214.814c-2.269-.367-4.51-.814-6.72-1.34l-1.362 8.599c2.423.484 4.876.881 7.355 1.187z" fill="#808080"/><path d="m101.41 210.171c-14.6598-5.455-27.5114-14.473-37.3249-25.972l-7.5695 7.062c11.3633 12.524 25.9387 22.125 42.3421 27.604z" fill="#808080"/><path d="m59.0031 177.634c-1.5837-2.263-3.0582-4.602-4.4159-7.011l-9.2863 5.612c1.6388 2.705 3.4067 5.323 5.2948 7.848z" fill="#808080"/><path d="m212.636 148.863c-1.132 6.246-2.756 12.274-4.988 17.99l6.007 2.857c2.628-6.205 4.491-12.69 5.495-19.311z" fill="#808080"/><path d="m204.523 173.851c-2.727 5.376-6.094 10.407-10.211 15.004l4.681 4.195c4.302-4.93 8.03-10.287 11.101-15.949z" fill="#808080"/><path d="m187.59 195.387c-1.923 1.628-3.971 3.182-6.15 4.657l4.091 5.579c2.245-1.706 4.402-3.508 6.462-5.398z" fill="#808080"/><path d="m208.551 101.386c1.727 5.22 3.336 12.708 4.827 24.125l5.562-.053c-1.461-11.597-3.337-19.721-5.463-25.5881z" fill="#808080"/><path d="m198.196 85.0684c3.186 2.9304 6.058 4.3619 8.619 10.6988l4.1-1.0326c-2.932-6.6208-6.434-9.0234-9.88-10.9742z" fill="#808080"/><path d="m219.827 133.766-5.514-.431c.034.308.068.619.102.932-.146 2.123-.335 4.231-.571 6.319l6.131.851c.082-2.549.034-5.109-.148-7.671z" fill="#808080"/><path d="m130.623 224.017c16.696 0 32.042-4.431 45.132-11.924l-3.734-6.598c-10.233 5.043-22.74 8.671-37.96 10.522-3.002 0-5.973-.141-8.905-.418l-.139 8.263c1.857.103 3.726.155 5.606.155z" fill="#808080"/><path d="m31.4564 126.601c0 14.616 3.2647 28.41 9.086 40.769l10.0799-4.749c-4.3192-10.034-6.7077-21.036-6.7077-32.604 0-4.392.3376-8.676.989-12.832l-12.8509-1.441c-.3939 3.565-.5963 7.187-.5963 10.857z" fill="#808080"/><path d="m191.415 73.0174c4.273-2.2957 14.212-8.6678 12.058-11.1553-2.122-2.4512-4.362-4.7954-6.712-7.0236l-12.188 12.7862c2.273 1.7157 4.545 3.5161 6.842 5.3927z" fill="#808080"/><path d="m115.304 29.1997 2.446 19.3249c2.316-.3559 4.663-.6328 7.036-.828l-.706-19.4123c-2.96.1743-5.888.4815-8.776.9154z" fill="#808080"/><path d="m39.8737 86.8253 13.0988 5.9382c11.1862-21.256 31.831-36.6936 56.8155-42.6778l-4.394-18.8658c-29.2419 7.5631-53.3997 28.3336-65.5203 55.6054z" fill="#808080"/><ellipse cx="128.29" cy="131.351" fill="#12508c" rx="76.5" ry="77"/><path d="m96.789 126.511 61.667-25.333-26 62.666z" fill="#fff"/><path d="m219.622 72.1602h-5.6v15.9599h-4.48v-15.9599h-5.6v-3.64h15.68z"/><path d="m244.542 88.1201h-4.48v-11.7293c0-1.266.057-2.6645.17-4.1957h-.109c-.227 1.2046-.433 2.0708-.617 2.5989l-4.593 13.3261h-3.61l-4.677-13.1906c-.128-.3557-.334-1.2672-.617-2.7344h-.122c.117 1.9338.175 3.6298.175 5.0881v10.8369h-3.92v-19.5999h6.409l4.003 11.62c.321.9273.555 1.8608.7 2.7999h.083c.246-1.085.505-2.0284.779-2.8306l4.003-11.5893h6.423z"/></g></svg>