<?xml version="1.0" encoding="utf-8"?>
<!DOCTYPE svg PUBLIC "-//W3C//DTD SVG 1.1//EN" "http://www.w3.org/Graphics/SVG/1.1/DTD/svg11.dtd">
<svg xmlns="http://www.w3.org/2000/svg" xmlns:xlink="http://www.w3.org/1999/xlink" version="1.1" baseProfile="full" width="57.7884" height="60.0001" viewBox="0 0 57.79 60.00" enable-background="new 0 0 57.79 60.00" xml:space="preserve">
	<g>
		<g>
			<path fill="#808080" fill-opacity="1" stroke-width="0.2" stroke-linejoin="round" d="M 31.5021,5.86609C 36.8624,6.27588 40.8755,7.9425 44.6604,10.444L 48.0887,5.95178C 43.5461,2.52344 38.0058,0.366089 31.9862,0.00256348L 31.5021,5.86609 Z "/>
			<path fill="#808080" fill-opacity="1" stroke-width="0.2" stroke-linejoin="round" d="M 4.6514,24.7421C 4.90799,23.7803 5.22131,22.8447 5.5878,21.9381L 1.564,20.5537C 1.19998,21.635 0.895752,22.7437 0.655273,23.8756L 4.6514,24.7421 Z "/>
			<path fill="#808080" fill-opacity="1" stroke-width="0.2" stroke-linejoin="round" d="M 26.8381,57.1787C 26.1427,57.0664 25.4556,56.9292 24.778,56.7679L 24.3606,59.4039C 25.1034,59.5525 25.8554,59.6742 26.6152,59.7679L 26.8381,57.1787 Z "/>
			<path fill="#808080" fill-opacity="1" stroke-width="0.2" stroke-linejoin="round" d="M 21.4436,55.7555C 16.9497,54.0834 13.0102,51.319 10.002,47.7942L 7.68164,49.9589C 11.1649,53.7981 15.6329,56.7411 20.6612,58.4207L 21.4436,55.7555 Z "/>
			<path fill="#808080" fill-opacity="1" stroke-width="0.2" stroke-linejoin="round" d="M 8.44415,45.7816C 7.95874,45.0879 7.50671,44.3708 7.09052,43.6324L 4.2439,45.3529C 4.74625,46.1819 5.28821,46.9845 5.86697,47.7584L 8.44415,45.7816 Z "/>
			<path fill="#808080" fill-opacity="1" stroke-width="0.2" stroke-linejoin="round" d="M 55.5388,36.962C 55.1919,38.8768 54.6938,40.7247 54.0099,42.4768L 55.8512,43.3528C 56.6566,41.4506 57.2278,39.4628 57.5357,37.4331L 55.5388,36.962 Z "/>
			<path fill="#808080" fill-opacity="1" stroke-width="0.2" stroke-linejoin="round" d="M 53.0518,44.6222C 52.2158,46.2699 51.1837,47.8124 49.9217,49.2214L 51.3567,50.5072C 52.6755,48.996 53.818,47.3539 54.7595,45.6183L 53.0518,44.6222 Z "/>
			<path fill="#808080" fill-opacity="1" stroke-width="0.2" stroke-linejoin="round" d="M 47.8612,51.2238C 47.2716,51.7229 46.6438,52.1993 45.9758,52.6512L 47.2299,54.3613C 47.9183,53.8385 48.5793,53.286 49.2109,52.7067L 47.8612,51.2238 Z "/>
			<path fill="#808080" fill-opacity="1" stroke-width="0.2" stroke-linejoin="round" d="M 54.2866,22.4086C 54.8159,24.0087 55.3091,26.3041 55.7663,29.8038L 57.4713,29.7876C 57.0235,26.2327 56.4483,23.7424 55.7965,21.944L 54.2866,22.4086 Z "/>
			<path fill="#808080" fill-opacity="1" stroke-width="0.2" stroke-linejoin="round" d="M 51.1125,17.4066C 52.0891,18.3049 52.9694,18.7438 53.7544,20.6862L 55.0111,20.3698C 54.1125,18.3401 53.0388,17.6036 51.9827,17.0056L 51.1125,17.4066 Z "/>
			<path fill="#808080" fill-opacity="1" stroke-width="0.2" stroke-linejoin="round" d="M 57.743,32.3346L 56.0529,32.2021C 56.0633,32.2968 56.0737,32.3921 56.084,32.4882C 56.0393,33.1388 55.9814,33.7848 55.9091,34.425L 57.7884,34.6858C 57.8136,33.9044 57.799,33.1199 57.743,32.3346 Z "/>
			<path fill="#808080" fill-opacity="1" stroke-width="0.2" stroke-linejoin="round" d="M 30.3985,60.0001C 35.5164,60.0001 40.2207,58.6417 44.2334,56.3448L 43.0887,54.3223C 39.9519,55.868 36.118,56.9801 31.4525,57.5476C 30.5323,57.5476 29.6216,57.5043 28.7227,57.4194L 28.6801,59.9524C 29.2494,59.984 29.8224,60.0001 30.3985,60.0001 Z "/>
			<path fill="#808080" fill-opacity="1" stroke-width="0.2" stroke-linejoin="round" d="M 0,30.1379C 0,34.6183 1.00076,38.8468 2.78522,42.6354L 5.87512,41.1796C 4.55109,38.1036 3.81891,34.7311 3.81891,31.1853C 3.81891,29.8387 3.92242,28.5258 4.1221,27.2516L 0.18277,26.8099C 0.0620422,27.9027 0,29.0132 0,30.1379 Z "/>
			<path fill="#808080" fill-opacity="1" stroke-width="0.2" stroke-linejoin="round" d="M 49.0336,13.7125C 50.3436,13.0088 53.3901,11.0555 52.73,10.293C 52.0796,9.54163 51.3928,8.823 50.6725,8.14001L 46.9364,12.0594C 47.6331,12.5853 48.3297,13.1373 49.0336,13.7125 Z "/>
			<path fill="#808080" fill-opacity="1" stroke-width="0.2" stroke-linejoin="round" d="M 25.7026,0.28064L 26.4524,6.20447C 27.1624,6.09534 27.8817,6.0105 28.6093,5.95068L 28.3929,0C 27.4854,0.0534668 26.588,0.147583 25.7026,0.28064 Z "/>
			<path fill="#808080" fill-opacity="1" stroke-width="0.2" stroke-linejoin="round" d="M 2.58023,17.9452L 6.59552,19.7655C 10.0246,13.2496 16.353,8.51746 24.0117,6.68298L 22.6649,0.899902C 13.701,3.21838 6.29568,9.58533 2.58023,17.9452 Z "/>
		</g>
		<ellipse fill="#12508C" fill-opacity="1" stroke-width="0.2" stroke-linejoin="round" cx="29.6833" cy="31.5941" rx="23.4503" ry="23.6036"/>
		<path fill="#FFFFFF" fill-opacity="1" stroke-width="0.2" stroke-linejoin="round" d="M 20.027,30.1105L 38.9304,22.3447L 30.9603,41.5546L 20.027,30.1105 Z "/>
	</g>
</svg>
