<?xml version="1.0" encoding="utf-8"?>
<!DOCTYPE svg PUBLIC "-//W3C//DTD SVG 1.1//EN" "http://www.w3.org/Graphics/SVG/1.1/DTD/svg11.dtd">
<svg x="0" y="0" width="48" height="48" overflow="hidden" viewBox="0, 0, 50, 50" preserveAspectRatio="xMidYMid"
     font-size="0" id="svg" xml:space="preserve" xmlns="http://www.w3.org/2000/svg"
     xmlns:xml="http://www.w3.org/XML/1998/namespace" version="1.1">
  <radialGradient cx="25" cy="25" r="24" fx="25" fy="25" gradientUnits="userSpaceOnUse" id="SVGID_Fill1_" xml:space="preserve">
    <stop offset="0%" stop-color="#DBD7FC" stop-opacity="1" xml:space="preserve" />
    <stop offset="99.1379%" stop-color="#000EFF" stop-opacity="1" xml:space="preserve" />
  </radialGradient>
  <ellipse cx="25" cy="25" rx="22.5" ry="22.5" stroke="#000000" stroke-width="2" stroke-linejoin="round" xml:space="preserve" style="fill:url(#SVGID_Fill1_);" />
  <radialGradient cx="25" cy="-6.03449" r="40" fx="25" fy="-6.03449" gradientUnits="userSpaceOnUse" id="SVGID_Fill2_" xml:space="preserve">
    <stop offset="0%" stop-color="#FFFFFF" stop-opacity="0.486275" xml:space="preserve" />
    <stop offset="27.1552%" stop-color="#FFF1F1" stop-opacity="0.486275" xml:space="preserve" />
    <stop offset="100%" stop-color="#0700FF" stop-opacity="0.486275" xml:space="preserve" />
  </radialGradient>
  <ellipse cx="25" cy="25" rx="20" ry="20" stroke-width="0.2" stroke-linejoin="round" xml:space="preserve" style="fill:url(#SVGID_Fill2_);" />
  <radialGradient cx="25" cy="12.5862" r="40" fx="25" fy="12.5862" gradientUnits="userSpaceOnUse" gradientTransform="rotate(180, 25.00001, 12.58619)" id="SVGID_Fill3_" xml:space="preserve">
    <stop offset="11.6379%" stop-color="#FFFFFF" stop-opacity="0" xml:space="preserve" />
    <stop offset="100%" stop-color="#FFFFFF" stop-opacity="0.513725" xml:space="preserve" />
  </radialGradient>
  <ellipse cx="25" cy="25" rx="20" ry="20" stroke-width="0.2" stroke-linejoin="round" xml:space="preserve" style="fill:url(#SVGID_Fill3_);" />
  <g xml:space="preserve">
    <path d="M34.3687 16.7208 C34.3687 17.4667 34.2646 18.1875 34.0562 18.8833 C33.8479 19.5792 33.5198 20.2583 33.0719 20.9208 C32.6239 21.5833 32.0416 22.2333 31.325 22.8708 C30.6083 23.5083 29.7479 24.1354 28.7437 24.7521 C28.0812 25.1521 27.525 25.5448 27.075 25.9302 C26.625 26.3156 26.2542 26.724 25.9625 27.1552 C25.6708 27.5865 25.4364 28.05 25.2594 28.5458 C25.0823 29.0417 24.9354 29.5979 24.8187 30.2146 L19.7437 30.2146 C19.9104 29.3771 20.0979 28.5979 20.3062 27.8771 C20.5146 27.1562 20.7854 26.4844 21.1187 25.8615 C21.4521 25.2385 21.8594 24.6562 22.3406 24.1146 C22.8219 23.5729 23.4208 23.0646 24.1375 22.5896 C24.8417 22.0979 25.451 21.65 25.9656 21.2458 C26.4802 20.8417 26.9031 20.4562 27.2344 20.0896 C27.5656 19.7229 27.8125 19.3562 27.975 18.9896 C28.1375 18.6229 28.2187 18.2396 28.2187 17.8396 C28.2187 17.4479 28.1469 17.0823 28.0031 16.7427 C27.8594 16.4031 27.6479 16.1052 27.3687 15.849 C27.0896 15.5927 26.7385 15.3896 26.3156 15.2396 C25.8927 15.0896 25.4083 15.0146 24.8625 15.0146 C23.7917 15.0146 22.7427 15.1594 21.7156 15.4489 C20.6885 15.7385 19.75 16.1271 18.9 16.6146 L20.0187 11.4896 C20.4187 11.3187 20.8698 11.1562 21.3719 11.0021 C21.8739 10.8479 22.4052 10.7125 22.9656 10.5958 C23.526 10.4792 24.1021 10.3865 24.6937 10.3177 C25.2854 10.2489 25.875 10.2146 26.4625 10.2146 C27.9333 10.2146 29.1729 10.4042 30.1812 10.7833 C31.1896 11.1625 32.0031 11.6583 32.6219 12.2708 C33.2406 12.8833 33.6864 13.5781 33.9594 14.3552 C34.2323 15.1323 34.3687 15.9208 34.3687 16.7208 z M25.0187 35.6583 C25.0187 36.1625 24.9208 36.6187 24.725 37.0271 C24.5292 37.4354 24.2646 37.7875 23.9312 38.0833 C23.5979 38.3792 23.2042 38.6083 22.75 38.7708 C22.2958 38.9333 21.8021 39.0146 21.2687 39.0146 C20.7729 39.0146 20.3135 38.9375 19.8906 38.7833 C19.4677 38.6292 19.1031 38.4156 18.7969 38.1427 C18.4906 37.8698 18.2489 37.549 18.0719 37.1802 C17.8948 36.8115 17.8062 36.4146 17.8062 35.9896 C17.8062 35.4854 17.901 35.0229 18.0906 34.6021 C18.2802 34.1812 18.5448 33.826 18.8844 33.5365 C19.2239 33.2469 19.6208 33.0208 20.075 32.8583 C20.5292 32.6958 21.0312 32.6146 21.5812 32.6146 C22.0729 32.6146 22.5271 32.6917 22.9437 32.8458 C23.3604 33 23.7219 33.2135 24.0281 33.4865 C24.3344 33.7594 24.576 34.0802 24.7531 34.449 C24.9302 34.8177 25.0187 35.2208 25.0187 35.6583 z" stroke-width="0.2" stroke-linejoin="round" xml:space="preserve" style="fill:#FFFFFF;" />
  </g>
</svg>