<?xml version="1.0" encoding="utf-8"?>
<!DOCTYPE svg PUBLIC "-//W3C//DTD SVG 1.1//EN" "http://www.w3.org/Graphics/SVG/1.1/DTD/svg11.dtd">
<svg x="0" y="0" width="48" height="48" overflow="hidden" viewBox="0, 0, 48, 48" preserveAspectRatio="xMidYMid"
     font-size="0" id="svg" xml:space="preserve" xmlns="http://www.w3.org/2000/svg"
     xmlns:xml="http://www.w3.org/XML/1998/namespace" version="1.1">
  <radialGradient cx="25" cy="25" r="24" fx="25" fy="25" gradientUnits="userSpaceOnUse" gradientTransform="matrix(1.021277, 0, 0, 1.021277, -1.531915, -1.531915)" id="SVGID_Fill1_" xml:space="preserve">
    <stop offset="0%" stop-color="#DBD7FC" stop-opacity="1" id="stop2" xml:space="preserve" />
    <stop offset="99.1379%" stop-color="#000EFF" stop-opacity="1" id="stop4" xml:space="preserve" />
  </radialGradient>
  <circle cx="24" cy="24" r="22.97872" stroke="#000000" stroke-width="2.042553" stroke-linejoin="round" id="ellipse7" xml:space="preserve" style="fill:url(#SVGID_Fill1_);" />
  <radialGradient cx="25" cy="-6.03449" r="40" fx="25" fy="-6.03449" gradientUnits="userSpaceOnUse" gradientTransform="matrix(1.021277, 0, 0, 1.021277, -1.531915, -1.531915)" id="SVGID_Fill2_" xml:space="preserve">
    <stop offset="0%" stop-color="#FFFFFF" stop-opacity="0.486275" id="stop9" xml:space="preserve" />
    <stop offset="27.1552%" stop-color="#FFF1F1" stop-opacity="0.486275" id="stop11" xml:space="preserve" />
    <stop offset="100%" stop-color="#0700FF" stop-opacity="0.486275" id="stop13" xml:space="preserve" />
  </radialGradient>
  <circle cx="24" cy="24" r="20.42553" stroke-width="0.2042553" stroke-linejoin="round" id="ellipse16" xml:space="preserve" style="fill:url(#SVGID_Fill2_);" />
  <radialGradient cx="25" cy="12.5862" r="40" fx="25" fy="12.5862" gradientUnits="userSpaceOnUse" gradientTransform="matrix(-1.021277, 0, 0, -1.021277, 49.53196, 24.17605)" id="SVGID_Fill3_" xml:space="preserve">
    <stop offset="11.6379%" stop-color="#FFFFFF" stop-opacity="0" id="stop18" xml:space="preserve" />
    <stop offset="100%" stop-color="#FFFFFF" stop-opacity="0.513725" id="stop20" xml:space="preserve" />
  </radialGradient>
  <circle cx="24" cy="24" r="20.42553" stroke-width="0.2042553" stroke-linejoin="round" id="ellipse23" xml:space="preserve" style="fill:url(#SVGID_Fill3_);" />
  <g transform="matrix(1.021277, 0, 0, 1.021277, -1.531915, -1.531915)" id="g27" xml:space="preserve">
    <path d="M29.0187 13.4208 C29.0187 13.9375 28.9208 14.4 28.725 14.8083 C28.5292 15.2167 28.2656 15.5698 27.9344 15.8677 C27.6031 16.1656 27.2125 16.3937 26.7625 16.5521 C26.3125 16.7104 25.8271 16.7896 25.3062 16.7896 C24.8104 16.7896 24.351 16.7135 23.9281 16.5614 C23.5052 16.4094 23.1406 16.1979 22.8344 15.9271 C22.5281 15.6562 22.2875 15.3365 22.1125 14.9677 C21.9375 14.599 21.85 14.1958 21.85 13.7583 C21.85 13.2417 21.9448 12.7792 22.1344 12.3708 C22.3239 11.9625 22.5844 11.6094 22.9156 11.3114 C23.2469 11.0135 23.6406 10.7854 24.0969 10.6271 C24.5531 10.4687 25.0479 10.3896 25.5812 10.3896 C26.0771 10.3896 26.5333 10.4656 26.95 10.6177 C27.3667 10.7698 27.7281 10.9812 28.0344 11.2521 C28.3406 11.5229 28.5812 11.8427 28.7562 12.2115 C28.9312 12.5802 29.0187 12.9833 29.0187 13.4208 z M26.9875 39.8208 C26.7542 39.8875 26.4844 39.9531 26.1781 40.0177 C25.8719 40.0823 25.5458 40.1437 25.2 40.2021 C24.8542 40.2604 24.4958 40.3062 24.125 40.3396 C23.7542 40.3729 23.3875 40.3896 23.025 40.3896 C22.15 40.3896 21.4031 40.276 20.7844 40.049 C20.1656 39.8219 19.6552 39.5031 19.2531 39.0927 C18.851 38.6823 18.5552 38.1937 18.3656 37.6271 C18.176 37.0604 18.0812 36.4375 18.0812 35.7583 C18.0812 35.4708 18.0979 35.151 18.1312 34.799 C18.16459 34.4469 18.20729 34.0792 18.2594 33.6958 C18.3114 33.3125 18.3729 32.9219 18.4437 32.5239 C18.5146 32.126 18.5896 31.7458 18.6687 31.3833 C18.71869 31.1625 18.8062 30.7552 18.9312 30.1615 C19.0562 29.5677 19.2 28.8865 19.3625 28.1177 C19.525 27.349 19.6969 26.5385 19.8781 25.6864 C20.05939 24.8344 20.2312 24.024 20.3937 23.2552 C20.5562 22.4865 20.7 21.8052 20.825 21.2115 C20.95 20.6177 21.03749 20.2104 21.0875 19.9896 L27.3375 19.9896 L24.9562 31.2521 C24.8521 31.7062 24.7417 32.2167 24.625 32.7833 C24.5083 33.35 24.45 33.8417 24.45 34.2583 C24.45 34.7542 24.6062 35.1 24.9187 35.2958 C25.2312 35.4917 25.5896 35.5896 25.9937 35.5896 C26.3312 35.5896 26.6719 35.5531 27.0156 35.4802 C27.3594 35.4073 27.675 35.3125 27.9625 35.1958 C27.7958 35.9792 27.6344 36.751 27.4781 37.5115 C27.3219 38.2719 27.1583 39.0417 26.9875 39.8208 z" stroke-width="0.2" stroke-linejoin="round" id="path25" xml:space="preserve" connector-curvature="0" style="fill:#FFFFFF;" />
  </g>
</svg>