<?xml version="1.0" encoding="utf-8"?>
<!DOCTYPE svg PUBLIC "-//W3C//DTD SVG 1.1//EN" "http://www.w3.org/Graphics/SVG/1.1/DTD/svg11.dtd">
<svg x="0" y="0" width="48" height="48" overflow="hidden" viewBox="0, 0, 48, 48" preserveAspectRatio="xMidYMid"
     font-size="0" id="svg" xml:space="preserve" xmlns="http://www.w3.org/2000/svg"
     xmlns:xml="http://www.w3.org/XML/1998/namespace" version="1.1">
  <g transform="matrix(0.2704946, 0, 0, 0.2730958, -10.80013, -11.13661)" id="g21" xml:space="preserve">
    <linearGradient x1="107.4745" y1="44.00982" x2="281.8301" y2="44.00982" gradientUnits="userSpaceOnUse" gradientTransform="matrix(3.698564, 0, 0, 3.660102, 39.92734, 40.77914)" id="SVGID_Stroke1_" xml:space="preserve">
      <stop offset="1.86047%" stop-color="#C70707" stop-opacity="1" id="stop2" xml:space="preserve" />
      <stop offset="100%" stop-color="#420101" stop-opacity="1" id="stop4" xml:space="preserve" />
    </linearGradient>
    <linearGradient x1="106.3272" y1="39.39943" x2="290.1853" y2="39.39943" gradientUnits="userSpaceOnUse" gradientTransform="matrix(3.698564, 0, 0, 3.660102, 39.92734, 40.77914)" id="SVGID_Fill1_" xml:space="preserve">
      <stop offset="1.86047%" stop-color="#F17B7B" stop-opacity="1" id="stop7" xml:space="preserve" />
      <stop offset="100%" stop-color="#EE0606" stop-opacity="1" id="stop9" xml:space="preserve" />
    </linearGradient>
    <path d="M45.9597 78.4663 L78.4468 45.9785 L128.742 96.2729 L178.76 46.2539 L211.248 78.7417 L161.229 128.761 L210.818 178.35 L178.331 210.837 L128.742 161.248 L78.877 211.113 L46.3892 178.626 L96.2539 128.76 z" stroke="url(#SVGID_Stroke1_)" stroke-width="9" stroke-linejoin="round" id="path12" xml:space="preserve" connector-curvature="0" style="fill:url(#SVGID_Fill1_);" />
    <linearGradient x1="82.25601" y1="96.11066" x2="139.3822" y2="96.11066" gradientUnits="userSpaceOnUse" gradientTransform="matrix(5.807835, 0, 0, 2.330838, 39.92734, 40.77914)" id="SVGID_Fill2_" xml:space="preserve">
      <stop offset="1.86047%" stop-color="#F8F8F8" stop-opacity="0.643137" id="stop14" xml:space="preserve" />
      <stop offset="100%" stop-color="#EAE8E8" stop-opacity="0.25098" id="stop16" xml:space="preserve" />
    </linearGradient>
    <path d="M78.4373 42.5459 L41.854 78.2959 L58.604 95.2959 C77.4526 105.992 106.722 112.546 133.604 112.546 C153.41 112.546 178.503 107.673 194.437 101.546 L215.437 78.5459 L178.437 42.2126 L128.771 91.2126 z" stroke-width="0.2" stroke-linejoin="round" id="path19" xml:space="preserve" connector-curvature="0" style="fill:url(#SVGID_Fill2_);" />
  </g>
</svg>