<?xml version="1.0" encoding="utf-8"?>
<!DOCTYPE svg PUBLIC "-//W3C//DTD SVG 1.1//EN" "http://www.w3.org/Graphics/SVG/1.1/DTD/svg11.dtd">
<svg x="0px" y="0px" width="48" height="48" overflow="hidden" viewBox="0, 0, 48, 48" preserveAspectRatio="xMidYMid"
     font-size="0px" id="svg" xml:space="preserve" xmlns="http://www.w3.org/2000/svg"
     xmlns:xml="http://www.w3.org/XML/1998/namespace" version="1.1">
  <defs id="def1" xml:space="preserve">
    <linearGradient x1="106.3272" y1="39.39943" x2="290.1853" y2="39.39943" gradientUnits="userSpaceOnUse" gradientTransform="matrix(3.698564, 0, 0, 3.660102, 39.92734, 40.77914)" id="SVGID_Fill1_" xml:space="preserve">
      <stop offset="1.86047%" stop-color="#F17B7B" stop-opacity="1" id="stop7" xml:space="preserve" />
      <stop offset="100%" stop-color="#EE0606" stop-opacity="1" id="stop9" xml:space="preserve" />
    </linearGradient>
    <linearGradient x1="107.4745" y1="44.00982" x2="281.8301" y2="44.00982" gradientUnits="userSpaceOnUse" gradientTransform="matrix(3.698564, 0, 0, 3.660102, 39.92734, 40.77914)" id="SVGID_Stroke1_" xml:space="preserve">
      <stop offset="1.86047%" stop-color="#C70707" stop-opacity="1" id="stop2" xml:space="preserve" />
      <stop offset="100%" stop-color="#420101" stop-opacity="1" id="stop4" xml:space="preserve" />
    </linearGradient>
    <linearGradient x1="82.25601" y1="96.11066" x2="139.3822" y2="96.11066" gradientUnits="userSpaceOnUse" gradientTransform="matrix(5.807835, 0, 0, 2.330838, 39.92734, 40.77914)" id="SVGID_Fill2_" xml:space="preserve">
      <stop offset="1.86047%" stop-color="#F8F8F8" stop-opacity="0.643137" id="stop14" xml:space="preserve" />
      <stop offset="100%" stop-color="#EAE8E8" stop-opacity="0.25098" id="stop16" xml:space="preserve" />
    </linearGradient>
    <linearGradient x1="24.45013" y1="44.38296" x2="193.2981" y2="44.38296" gradientUnits="userSpaceOnUse" gradientTransform="scale(0.9331369, 1.071654)" id="SVGID_Fill1_-9" xml:space="preserve">
      <stop offset="0%" stop-color="#97DB9B" stop-opacity="1" id="stop2-3" xml:space="preserve" />
      <stop offset="100%" stop-color="#3CAB39" stop-opacity="1" id="stop4-1" xml:space="preserve" />
    </linearGradient>
    <linearGradient x1="14.18956" y1="83.56909" x2="34.63809" y2="83.56909" gradientUnits="userSpaceOnUse" gradientTransform="scale(1.540455, 0.6491587)" id="SVGID_Fill2_-9" xml:space="preserve">
      <stop offset="0%" stop-color="#97DB9B" stop-opacity="1" id="stop9-9" xml:space="preserve" />
      <stop offset="100%" stop-color="#69B279" stop-opacity="1" id="stop11" xml:space="preserve" />
    </linearGradient>
    <linearGradient x1="34.94848" y1="0.6519763" x2="45.0313" y2="0.6519763" gradientUnits="userSpaceOnUse" gradientTransform="scale(2.611703, 0.3828919)" id="SVGID_Fill3_" xml:space="preserve">
      <stop offset="0%" stop-color="#97DBA0" stop-opacity="1" id="stop16-7" xml:space="preserve" />
      <stop offset="100%" stop-color="#639A66" stop-opacity="1" id="stop18" xml:space="preserve" />
    </linearGradient>
    <linearGradient x1="165.8384" y1="32.44791" x2="188.5848" y2="32.44791" gradientUnits="userSpaceOnUse" gradientTransform="scale(0.7473654, 1.338034)" id="SVGID_Fill4_" xml:space="preserve">
      <stop offset="0%" stop-color="#62A860" stop-opacity="1" id="stop23" xml:space="preserve" />
      <stop offset="100%" stop-color="#5BB26E" stop-opacity="1" id="stop25" xml:space="preserve" />
    </linearGradient>
    <linearGradient x1="70.49285" y1="175.1504" x2="81.24484" y2="175.1504" gradientUnits="userSpaceOnUse" gradientTransform="scale(2.108137, 0.4743525)" id="SVGID_Fill5_" xml:space="preserve">
      <stop offset="0%" stop-color="#60A770" stop-opacity="1" id="stop30" xml:space="preserve" />
      <stop offset="100%" stop-color="#409A4C" stop-opacity="1" id="stop32" xml:space="preserve" />
    </linearGradient>
    <linearGradient x1="229.6708" y1="91.76641" x2="251.4713" y2="91.76641" gradientUnits="userSpaceOnUse" gradientTransform="scale(0.7950894, 1.25772)" id="SVGID_Fill6_" xml:space="preserve">
      <stop offset="0%" stop-color="#40AE58" stop-opacity="1" id="stop37" xml:space="preserve" />
      <stop offset="100%" stop-color="#39AB3F" stop-opacity="1" id="stop39" xml:space="preserve" />
    </linearGradient>
  </defs>
  <path d="M34.0083 19.2698 C33.8538 19.2698 33.69526 19.29993 33.53672 19.359 L31.7448 20.02912 L29.88436 13.87555 C29.35711 12.13232 27.79896 10.71387 26.41099 10.71387 L8.997442 10.71387 C7.609291 10.71387 6.05132 12.13232 5.524245 13.87556 L3.666096 20.02052 L1.896379 19.35876 C1.73801 19.29969 1.579466 19.26956 1.424972 19.26956 L2.053163 25.35378 L1.752808 26.34701 C1.26308 27.96612 0.8644266 30.70832 0.8644266 32.45945 L0.8644266 44.68409 C0.8644266 46.09656 1.711058 47.24596 2.751466 47.24596 L5.215963 47.24596 C6.256372 47.24596 7.103004 46.09656 7.103004 44.68409 L7.103004 41.63145 L28.30525 41.63145 L28.30525 44.68408 C28.30525 46.09655 29.15188 47.24595 30.19229 47.24595 L32.65643 47.24595 C33.69685 47.24595 34.54347 46.09655 34.54347 44.68408 L34.54347 32.45968 C34.54347 30.7088 34.14482 27.96659 33.65509 26.34725 L33.35474 25.35402 L33.58269 25.35402 C34.6231 25.35402 35.46973 24.20461 35.46973 22.79214 L35.46973 21.35814 C35.46985 20.14823 34.85511 19.2698 34.0083 19.2698 z M5.018837 23.96258 L7.833543 14.65497 C8.148871 13.61224 9.08605 12.75892 9.916299 12.75892 L25.49213 12.75892 C26.32238 12.75892 27.25956 13.612 27.57488 14.65497 L30.38959 23.96258 C30.70474 25.00532 30.28354 25.85864 29.45329 25.85864 L5.955311 25.85864 C5.124887 25.85841 4.703685 25.00532 5.018837 23.96258 z M11.30198 35.73569 C11.30198 36.29939 10.96217 36.76025 10.54731 36.76025 L5.200459 36.76025 C4.785247 36.76025 4.445608 36.29914 4.445608 35.73569 L4.445608 32.25209 C4.445608 31.68863 4.785247 31.22753 5.200459 31.22753 L10.54731 31.22753 C10.96217 31.22753 11.30198 31.68863 11.30198 32.25209 z M30.91209 35.73569 C30.91209 36.29939 30.57227 36.76025 30.15741 36.76025 L24.81056 36.76025 C24.3957 36.76025 24.05589 36.29914 24.05589 35.73569 L24.05589 32.25209 C24.05589 31.68863 24.3957 31.22753 24.81056 31.22753 L30.15741 31.22753 C30.57227 31.22753 30.91209 31.68863 30.91209 32.25209 z" stroke-width="0.2052575" id="path2" xml:space="preserve" />
  <g transform="matrix(0.1761613, 0, 0, 0.2391595, -0.03664073, -8.965135)" id="g8" xml:space="preserve">
    <path d="M259.125 37.486 L208.39 37.486 C201.002 37.486 194.992 43.497 194.992 50.884 L194.992 101.62 C194.992 109.008 201.003 115.019 208.39 115.019 L228.757 115.019 L228.757 228.891 C228.757 231.653 230.995 233.891 233.757 233.891 C236.519 233.891 238.757 231.653 238.757 228.891 L238.757 115.02 L259.125 115.02 C266.513 115.02 272.523 109.009 272.523 101.621 L272.523 50.885 C272.523 43.497 266.513 37.486 259.125 37.486 z M247.634 79.553 C244.716 82.18 240.418 83.512 234.86 83.512 L227.513 83.512 C226.631 83.512 225.913 84.231 225.913 85.113 L225.913 97.502 C225.913 98.848 224.818 99.942 223.472 99.942 L217.908 99.942 C216.561 99.942 215.467 98.847 215.467 97.502 L215.467 55.007 C215.467 53.66 216.562 52.565 217.908 52.565 L231.924 52.565 C241.209 52.565 244.675 53.964 247.523 56.381 C250.527 58.93 252.049 62.834 252.049 67.987 C252.048 73.022 250.564 76.912 247.634 79.553 z" id="path4" xml:space="preserve" connector-curvature="0" />
    <path d="M239.681 62.825 C238.325 61.801 235.926 61.281 232.552 61.281 L227.513 61.281 C226.631 61.281 225.913 61.999 225.913 62.88 L225.913 73.062 C225.913 73.943 226.631 74.661 227.513 74.661 L230.532 74.661 C231.641 74.661 233.433 74.579 234.526 74.478 C235.587 74.381 238.582 73.94701 239.681 73.117 C241 72.119 241.669 70.39301 241.669 67.98801 C241.669 65.56 241 63.823 239.681 62.825 z" id="path6" xml:space="preserve" connector-curvature="0" />
  </g>
  <path d="M1.55899 46.26854 L0.9482535 45.43937 L1.020554 37.362 C1.090335 29.56621 1.110721 29.21563 1.605338 27.3056 L2.117821 25.32658 L1.564712 25.17639 C0.03368009 24.76068 -0.5720389 21.16215 0.6560982 19.77837 C0.9757868 19.41817 1.606441 19.449 3.13664 19.8996 C3.766521 20.08509 3.767768 20.08306 4.441303 17.78064 C5.75269 13.29781 6.4726 11.87206 7.757563 11.21295 C8.132382 11.02069 11.61493 10.91921 17.83806 10.91921 L27.34591 10.91921 L28.31337 11.75216 C29.32709 12.62494 29.61561 13.28462 31.02928 17.96157 C31.67162 20.08674 31.55016 20.0077 33.55537 19.60517 C34.87347 19.34056 35.3591 20.00335 35.3591 22.06691 C35.3591 23.81885 34.87064 24.86309 33.91829 25.14707 C33.44766 25.28738 33.32764 25.44389 33.42548 25.78964 C34.24604 28.68983 34.38958 30.19056 34.49144 36.93464 C34.54811 40.68645 34.5316 44.21119 34.45475 44.76733 C34.37791 45.32349 34.0964 46.07534 33.8292 46.4381 C33.39227 47.03128 33.16706 47.09767 31.59163 47.09767 C28.91481 47.09767 28.45888 46.5868 28.44916 43.57648 L28.44266 41.57423 L17.76295 41.57423 L7.083193 41.57423 L7.083193 43.24498 C7.083193 45.04241 6.714503 46.35037 6.077343 46.81331 C5.86209 46.9697 4.894818 47.09768 3.927851 47.09768 C2.245315 47.09768 2.143469 47.06202 1.55899 46.26853 z M11.11098 36.54792 C11.43901 36.10258 11.43901 31.85647 11.11098 31.41113 C10.77026 30.94855 5.023515 30.94855 4.682793 31.41113 C4.354766 31.85647 4.354766 36.10258 4.682793 36.54792 C5.023515 37.01048 10.77026 37.01048 11.11098 36.54792 z M30.76753 36.44535 C31.0002 36.12947 31.08721 35.45843 31.08721 33.97952 C31.08721 31.06619 31.10417 31.07973 27.45173 31.07973 C25.39261 31.07973 24.37923 31.18338 24.21147 31.41113 C23.88344 31.85647 23.88344 36.10258 24.21147 36.54792 C24.37923 36.77567 25.39261 36.87933 27.45173 36.87933 C29.90427 36.87933 30.50587 36.80059 30.76753 36.44535 z M30.28886 25.64605 C30.72505 25.05363 30.53973 24.07846 29.0647 19.20436 C28.10739 16.04105 27.3946 14.08512 27.00153 13.54284 L26.40098 12.71432 L18.07343 12.63642 C9.085173 12.55234 8.693871 12.60558 8.02858 14.00307 C7.449064 15.22039 4.825669 24.26282 4.886447 24.83353 C5.020462 26.09192 5.234883 26.11162 18.00714 26.03901 C26.90165 25.98845 30.1124 25.88571 30.28886 25.64605 z" stroke-width="0.237023" id="path815" xml:space="preserve" style="fill:#000000;" />
  <path d="M40.69897 46.63858 C40.50023 46.52972 40.4447 43.42854 40.4447 32.43758 L40.4447 18.37584 L38.29863 18.37584 C34.43935 18.37584 34.34198 18.15156 34.34198 9.262181 C34.34198 3.904715 34.39643 2.699821 34.67456 1.904163 C35.25936 0.231027 35.56924 0.1485213 41.26863 0.1485213 L46.38467 0.1485213 L47.05806 1.062726 C47.94417 2.26572 48.02318 3.102742 47.93841 10.3891 C47.86432 16.75915 47.81577 17.0636 46.73616 17.9294 C46.31783 18.26489 45.64384 18.37584 44.02409 18.37584 L41.86867 18.37584 L41.86867 32.26728 C41.86867 47.39837 41.87797 47.28444 40.69897 46.63861 z M39.79226 13.0958 L39.8518 11.26791 L41.23692 11.13336 C42.05716 11.05368 42.88078 10.79131 43.25652 10.48998 C44.64241 9.378543 44.87392 6.056711 43.67175 4.532102 C42.95691 3.625546 42.04319 3.39556 39.631 3.51503 L37.9019 3.600669 L37.8465 8.977875 C37.81602 11.93534 37.8381 14.52129 37.89549 14.72443 C37.96571 14.97289 38.28352 15.06595 38.8663 15.00874 L39.73271 14.9237 z" stroke-width="0.237023" id="path817" xml:space="preserve" style="fill:#000000;" />
  <path d="M39.83443 7.32898 L39.83443 5.948123 L40.9461 5.948123 C41.83698 5.948123 42.0996 6.05422 42.26836 6.48231 C42.80779 7.85072 42.25576 8.709836 40.83702 8.709836 L39.83443 8.709836 z" stroke-width="0.237023" id="path819" xml:space="preserve" style="fill:#0000FF;" />
  <path d="M41.1175 47.13793 C40.89989 46.95138 40.82333 44.14846 40.73016 32.95687 L40.61403 19.0083 L38.3694 18.81547 C37.13486 18.7094 35.9512 18.49652 35.73903 18.34236 C34.85329 17.69881 34.70195 16.43619 34.70116 9.683322 C34.70045 4.183375 34.74781 3.209394 35.05382 2.421955 C35.24817 1.921773 35.61857 1.403434 35.87691 1.270092 C36.13525 1.136747 38.60518 0.9374677 41.36564 0.8272465 L46.38467 0.6268433 L46.90653 1.288682 C47.95333 2.616265 48 2.978149 48 9.76648 C48 13.68292 47.91416 16.42526 47.77453 16.96906 C47.45222 18.22424 46.72125 18.61086 44.26241 18.82668 L42.10071 19.01641 L42.10012 26.36334 C42.09941 36.98467 41.87341 46.49267 41.61024 46.96915 C41.47178 47.21984 41.28684 47.28317 41.11739 47.13792 z M40.06647 13.8581 C40.06647 11.89463 40.16915 11.76616 41.74472 11.75838 C42.16428 11.75628 42.50757 11.63423 42.50757 11.4871 C42.50757 11.33997 42.64558 11.2915 42.81427 11.37938 C43.27491 11.61936 44.13158 10.72834 44.45708 9.670712 C45.11192 7.543006 44.55499 5.17579 43.22162 4.419444 C42.75529 4.154914 41.76941 4.021808 40.27644 4.021808 L38.03225 4.021808 L38.03225 9.821405 L38.03225 15.62101 L39.04937 15.62101 L40.06647 15.62101 z" stroke-width="0.237023" id="path821" xml:space="preserve" style="fill:#0000FF;" />
  <path d="M2.98073 47.81998 C2.367104 47.72017 0.9111236 46.31002 1.118539 46.0164 C1.164789 45.95093 1.277253 42.21232 1.368461 37.70837 C1.516208 30.41246 1.579969 29.34058 1.953108 27.88002 C2.40074 26.12786 2.373973 25.76123 1.798414 25.76123 C1.598097 25.76123 1.205106 25.37582 0.9250997 24.90475 C0.5331657 24.24537 0.415998 23.74273 0.415998 22.72086 C0.415998 20.78888 0.7790537 20.42199 2.586271 20.52765 L4.015505 20.61124 L4.776114 18.02188 C5.631262 15.11067 6.218509 13.69668 6.995723 12.6774 C7.521447 11.98794 7.569805 11.97977 12.18128 11.80104 C14.74147 11.70179 19.02412 11.59969 21.6983 11.57408 L26.56043 11.52728 L27.42036 12.36484 C28.48552 13.40227 28.74273 13.95353 29.81032 17.48708 C30.33878 19.23617 30.79999 20.3758 31.02517 20.48891 C31.22482 20.5892 31.92166 20.61143 32.5737 20.53831 C34.02848 20.37531 34.28495 20.7032 34.28495 22.72624 C34.28495 24.34417 33.81031 25.50715 33.04196 25.7718 C32.48389 25.96399 32.47417 26.33114 32.96474 28.684 C33.25084 30.05616 33.32737 31.74549 33.39358 38.14893 C33.46958 45.50134 33.45243 45.9925 33.09134 46.806 C32.77081 47.52811 32.55312 47.69238 31.75339 47.81562 C30.31541 48.03719 28.53249 47.66698 28.23153 47.08427 C28.09167 46.81351 27.91569 45.66204 27.84045 44.52543 L27.70366 42.45889 L17.45802 42.53098 L7.212371 42.60305 L6.967534 44.67332 C6.818733 45.93145 6.584956 46.92835 6.371586 47.21458 C6.003697 47.70808 4.234941 48.02378 2.980728 47.81981 z M10.91436 37.44367 C11.15581 37.12033 11.1344 32.47168 10.88986 32.12552 C10.66953 31.81361 5.612826 31.72204 4.954048 32.01802 C4.578363 32.18681 4.545616 32.41338 4.545616 34.8438 C4.545616 36.53445 4.616442 37.42414 4.742265 37.31404 C4.850422 37.21941 4.938914 37.2692 4.938914 37.42459 C4.938914 37.94188 10.52901 37.95969 10.91435 37.44344 z M30.09415 37.34098 C30.41826 36.78814 30.29871 32.27757 29.96248 32.37275 C29.82728 32.4111 29.71666 32.31685 29.71666 32.16399 C29.71666 31.86124 24.27414 31.76167 23.73497 32.05453 C23.48214 32.19187 23.42391 32.70873 23.42391 34.81515 C23.42391 36.62799 23.49776 37.44898 23.66972 37.5472 C23.80491 37.62442 25.2542 37.69747 26.89036 37.70956 C29.21787 37.72647 29.91499 37.64651 30.09415 37.34092 z M28.38928 26.69332 L29.71666 26.51582 L29.71666 25.62532 C29.71666 25.13553 29.54458 24.02675 29.33423 23.16127 C28.69665 20.53788 27.11516 15.46114 26.93552 15.46114 C26.84282 15.46114 26.76694 15.29014 26.76694 15.08111 C26.76694 14.87209 26.58354 14.371 26.35936 13.96758 L25.95179 13.23409 L17.8543 13.23559 C12.93644 13.23654 9.472139 13.34907 9.031834 13.52221 C8.547871 13.71252 8.179951 14.10528 7.925134 14.70378 C7.319818 16.12545 5.501953 22.69053 5.631467 22.98716 C5.695959 23.1349 5.663668 23.25578 5.559708 23.25578 C5.170161 23.25578 4.705307 26.28421 5.086405 26.33924 C5.521978 26.40229 5.971605 26.57354 6.071282 26.71464 C6.226195 26.93394 26.73608 26.9143 28.38928 26.69319 z" stroke="#000000" stroke-width="0.2339726" id="path823" xml:space="preserve" style="fill:#D40000;" />
  <g transform="matrix(0.05873254, 0, 0, 0.09532996, 34.85283, 0.02922643)" id="g46" xml:space="preserve">
    <linearGradient x1="24.45013" y1="44.38296" x2="193.2981" y2="44.38296" gradientUnits="userSpaceOnUse" gradientTransform="scale(0.9331369, 1.071654)" id="linearGradient873" xml:space="preserve">
      <stop offset="0%" stop-color="#97DB9B" stop-opacity="1" id="stop869" xml:space="preserve" />
      <stop offset="100%" stop-color="#3CAB39" stop-opacity="1" id="stop871" xml:space="preserve" />
    </linearGradient>
    <path d="M2.52509 61.0831 L59.1918 72.7347 L59.1918 6.58264 L111.858 15.7496 L111.687 83.52831 L168.692 95.24979 L168.858 150.75 L111.537 138.683 L110.858 197.75 L59.1918 190.514 L59.1918 127.663 L2.40009 115.708 z" stroke-width="0.2" stroke-linejoin="round" id="path7" xml:space="preserve" connector-curvature="0" style="fill:url(#SVGID_Fill1_-9);" />
    <linearGradient x1="14.18956" y1="83.56909" x2="34.63809" y2="83.56909" gradientUnits="userSpaceOnUse" gradientTransform="scale(1.540455, 0.6491587)" id="linearGradient880" xml:space="preserve">
      <stop offset="0%" stop-color="#97DB9B" stop-opacity="1" id="stop876" xml:space="preserve" />
      <stop offset="100%" stop-color="#69B279" stop-opacity="1" id="stop878" xml:space="preserve" />
    </linearGradient>
    <path d="M48.7751 48.7496 L59.4418 50.0831 L59.1918 72.7347 L2.52509 61.0831 z" stroke-width="0.2" stroke-linejoin="round" id="path14" xml:space="preserve" connector-curvature="0" style="fill:url(#SVGID_Fill2_-9);" />
    <linearGradient x1="34.94848" y1="0.6519763" x2="45.0313" y2="0.6519763" gradientUnits="userSpaceOnUse" gradientTransform="scale(2.611703, 0.3828919)" id="linearGradient887" xml:space="preserve">
      <stop offset="0%" stop-color="#97DBA0" stop-opacity="1" id="stop883" xml:space="preserve" />
      <stop offset="100%" stop-color="#639A66" stop-opacity="1" id="stop885" xml:space="preserve" />
    </linearGradient>
    <path d="M100.275 2.24963 L151.275 9.58313 L111.858 15.7496 L59.1918 6.58313 z" stroke-width="0.2" stroke-linejoin="round" id="path21" xml:space="preserve" connector-curvature="0" style="fill:url(#SVGID_Fill3_);" />
    <linearGradient x1="165.8384" y1="32.44791" x2="188.5848" y2="32.44791" gradientUnits="userSpaceOnUse" gradientTransform="scale(0.7473654, 1.338034)" id="linearGradient894" xml:space="preserve">
      <stop offset="0%" stop-color="#62A860" stop-opacity="1" id="stop890" xml:space="preserve" />
      <stop offset="100%" stop-color="#5BB26E" stop-opacity="1" id="stop892" xml:space="preserve" />
    </linearGradient>
    <path d="M110.442 15.7289 L151.275 9.58313 L151.275 72.9164 L109.942 83.583 z" stroke-width="0.2" stroke-linejoin="round" id="path28" xml:space="preserve" connector-curvature="0" style="fill:url(#SVGID_Fill4_);" />
    <linearGradient x1="70.49285" y1="175.1504" x2="81.24484" y2="175.1504" gradientUnits="userSpaceOnUse" gradientTransform="scale(2.108137, 0.4743525)" id="linearGradient901" xml:space="preserve">
      <stop offset="0%" stop-color="#60A770" stop-opacity="1" id="stop897" xml:space="preserve" />
      <stop offset="100%" stop-color="#409A4C" stop-opacity="1" id="stop899" xml:space="preserve" />
    </linearGradient>
    <path d="M151.275 72.9164 L210.942 83.9164 L168.692 95.24979 L111.687 83.52869 z" stroke-width="0.2" stroke-linejoin="round" id="path35" xml:space="preserve" connector-curvature="0" style="fill:url(#SVGID_Fill5_);" />
    <linearGradient x1="229.6708" y1="91.76641" x2="251.4713" y2="91.76641" gradientUnits="userSpaceOnUse" gradientTransform="scale(0.7950894, 1.25772)" id="linearGradient908" xml:space="preserve">
      <stop offset="0%" stop-color="#40AE58" stop-opacity="1" id="stop904" xml:space="preserve" />
      <stop offset="100%" stop-color="#39AB3F" stop-opacity="1" id="stop906" xml:space="preserve" />
    </linearGradient>
    <path d="M168.692 95.25 L210.942 83.9164 L210.608 140.583 L168.858 150.75 z" stroke-width="0.2" stroke-linejoin="round" id="path42" xml:space="preserve" connector-curvature="0" style="fill:url(#SVGID_Fill6_);" />
    <path d="M111.537 138.683 L151.275 146.583 L150.942 190.514 L110.858 197.75 z" stroke-width="0.2" stroke-linejoin="round" id="path44" xml:space="preserve" connector-curvature="0" style="fill:#47B044;" />
  </g>
</svg>