<?xml version="1.0" encoding="utf-8"?>
<!DOCTYPE svg PUBLIC "-//W3C//DTD SVG 1.1//EN" "http://www.w3.org/Graphics/SVG/1.1/DTD/svg11.dtd">
<svg x="0" y="0" width="32" height="32" overflow="hidden" viewBox="0, 0, 200, 200" preserveAspectRatio="xMidYMid" font-size="0" id="svg" xml:space="default" xmlns="http://www.w3.org/2000/svg" xmlns:xlink="http://www.w3.org/1999/xlink" xmlns:xml="http://www.w3.org/XML/1998/namespace" version="1.1">
  <defs id="def1" xml:space="default">
    <linearGradient x1="888.3857" y1="490.4297" x2="849.7813" y2="446.5609" gradientUnits="userSpaceOnUse" gradientTransform="matrix(0.9077, 0.4197, -0.4197, 0.9077, 200.4444, -57.0905)" id="SVGID_30_" xml:space="default">
      <stop offset="0%" stop-color="#292929" stop-opacity="1" id="stop7557" xml:space="default" />
      <stop offset="9.8%" stop-color="#212121" stop-opacity="1" id="stop7559" xml:space="default" />
      <stop offset="46.6%" stop-color="#090909" stop-opacity="1" id="stop7561" xml:space="default" />
      <stop offset="69.23%" stop-color="#000000" stop-opacity="1" id="stop7563" xml:space="default" />
    </linearGradient>
    <linearGradient x1="0%" y1="0%" x2="100%" y2="0%" gradientUnits="objectBoundingBox" id="linearGradient7921" xml:space="default">
      <stop offset="0%" stop-color="#CCCCCC" stop-opacity="1" id="stop7923" xml:space="default" />
      <stop offset="100%" stop-color="#FFFFFF" stop-opacity="1" id="stop7925" xml:space="default" />
    </linearGradient>
    <linearGradient x1="0%" y1="0%" x2="100%" y2="0%" gradientUnits="objectBoundingBox" id="linearGradient7915" xml:space="default">
      <stop offset="0%" stop-color="#CCCCCC" stop-opacity="1" id="stop7917" xml:space="default" />
      <stop offset="100%" stop-color="#FFFFFF" stop-opacity="1" id="stop7919" xml:space="default" />
    </linearGradient>
    <linearGradient x1="0%" y1="0%" x2="100%" y2="0%" gradientUnits="objectBoundingBox" id="linearGradient7909" xml:space="default">
      <stop offset="0%" stop-color="#CCCCCC" stop-opacity="1" id="stop7911" xml:space="default" />
      <stop offset="100%" stop-color="#FFFFFF" stop-opacity="1" id="stop7913" xml:space="default" />
    </linearGradient>
    <linearGradient x1="0%" y1="0%" x2="100%" y2="0%" gradientUnits="objectBoundingBox" id="linearGradient7895" xml:space="default">
      <stop offset="0%" stop-color="#CCCCCC" stop-opacity="1" id="stop7897" xml:space="default" />
      <stop offset="100%" stop-color="#FFFFFF" stop-opacity="1" id="stop7899" xml:space="default" />
    </linearGradient>
    <linearGradient x1="0%" y1="0%" x2="100%" y2="0%" gradientUnits="objectBoundingBox" id="linearGradient7889" xml:space="default">
      <stop offset="0%" stop-color="#B3B3B3" stop-opacity="1" id="stop7891" xml:space="default" />
      <stop offset="100%" stop-color="#FFFFFF" stop-opacity="1" id="stop7893" xml:space="default" />
    </linearGradient>
    <linearGradient x1="0%" y1="0%" x2="100%" y2="0%" gradientUnits="objectBoundingBox" id="linearGradient7883" xml:space="default">
      <stop offset="0%" stop-color="#B3B3B3" stop-opacity="1" id="stop7885" xml:space="default" />
      <stop offset="100%" stop-color="#FFFFFF" stop-opacity="1" id="stop7887" xml:space="default" />
    </linearGradient>
    <linearGradient x1="0%" y1="0%" x2="100%" y2="0%" gradientUnits="objectBoundingBox" id="linearGradient7877" xml:space="default">
      <stop offset="0%" stop-color="#B3B3B3" stop-opacity="1" id="stop7879" xml:space="default" />
      <stop offset="100%" stop-color="#FFFFFF" stop-opacity="1" id="stop7881" xml:space="default" />
    </linearGradient>
    <linearGradient x1="0%" y1="0%" x2="100%" y2="0%" gradientUnits="objectBoundingBox" id="linearGradient7863" xml:space="default">
      <stop offset="0%" stop-color="#ECECEC" stop-opacity="1" id="stop7865" xml:space="default" />
      <stop offset="100%" stop-color="#FFFFFF" stop-opacity="1" id="stop7867" xml:space="default" />
    </linearGradient>
    <linearGradient x1="954.2959" y1="620.9697" x2="890.9811" y2="435.6302" gradientUnits="userSpaceOnUse" gradientTransform="matrix(0.9077, 0.4197, -0.4197, 0.9077, 171.0349, 93.79305)" id="SVGID_29_" xml:space="default">
      <stop offset="0%" stop-color="#1F1F1F" stop-opacity="1" id="stop7488" xml:space="default" />
      <stop offset="59.59%" stop-color="#090909" stop-opacity="1" id="stop7490" xml:space="default" />
      <stop offset="100%" stop-color="#000000" stop-opacity="1" id="stop7492" xml:space="default" />
    </linearGradient>
    <filter x="-0.04008124" y="-0.8817872" width="1.080163" height="2.763575" color-interpolation-filters="auto" id="filter5951" xml:space="default">
      <feGaussianBlur stdDeviation="9.649679" id="feGaussianBlur5953" xml:space="default" collect="always" />
    </filter>
    <linearGradient x1="954.2959" y1="620.9697" x2="890.9811" y2="435.6302" gradientUnits="userSpaceOnUse" gradientTransform="matrix(0.9077, 0.4197, -0.4197, 0.9077, 200.4444, -57.0905)" id="linearGradient7796" xml:space="default">
      <stop offset="0%" stop-color="#1F1F1F" stop-opacity="1" id="stop7798" xml:space="default" />
      <stop offset="59.59%" stop-color="#090909" stop-opacity="1" id="stop7800" xml:space="default" />
      <stop offset="100%" stop-color="#000000" stop-opacity="1" id="stop7802" xml:space="default" />
    </linearGradient>
    <linearGradient x1="929.4568" y1="621.6502" x2="890.9811" y2="435.6302" gradientUnits="userSpaceOnUse" xlink:href="#SVGID_29_" gradientTransform="matrix(0.08690958, 0.01634315, -0.01634315, 0.08690958, 713.2795, 119.4064)" id="linearGradient4331" xml:space="default" />
    <linearGradient x1="834.0215" y1="774.6966" x2="844.1722" y2="761.7325" gradientUnits="userSpaceOnUse" xlink:href="#linearGradient7863" id="linearGradient4333" xml:space="default" />
    <linearGradient x1="829.0486" y1="782.874" x2="836.939" y2="767.7825" gradientUnits="userSpaceOnUse" xlink:href="#linearGradient7877" id="linearGradient4335" xml:space="default" />
    <linearGradient x1="868.1324" y1="792.8966" x2="880.9125" y2="782.6072" gradientUnits="userSpaceOnUse" xlink:href="#linearGradient7883" id="linearGradient4337" xml:space="default" />
    <linearGradient x1="906.1071" y1="809.5067" x2="918.7654" y2="797.7527" gradientUnits="userSpaceOnUse" xlink:href="#linearGradient7889" id="linearGradient4339" xml:space="default" />
    <linearGradient x1="875.874" y1="700.1948" x2="879.8727" y2="750.4913" gradientUnits="userSpaceOnUse" xlink:href="#linearGradient7895" id="linearGradient4341" xml:space="default" />
    <linearGradient x1="875.874" y1="700.1948" x2="879.8727" y2="750.4913" gradientUnits="userSpaceOnUse" xlink:href="#linearGradient7909" id="linearGradient4343" xml:space="default" />
    <linearGradient x1="875.874" y1="700.1948" x2="879.8727" y2="750.4913" gradientUnits="userSpaceOnUse" xlink:href="#linearGradient7915" id="linearGradient4345" xml:space="default" />
    <linearGradient x1="875.874" y1="700.1948" x2="879.8727" y2="750.4913" gradientUnits="userSpaceOnUse" xlink:href="#linearGradient7921" id="linearGradient4347" xml:space="default" />
    <linearGradient x1="888.3857" y1="490.4297" x2="849.7813" y2="446.5609" gradientUnits="userSpaceOnUse" xlink:href="#SVGID_30_" gradientTransform="matrix(0.9077, 0.4197, -0.4197, 0.9077, 200.4444, -57.0905)" id="linearGradient4349" xml:space="default" />
  </defs>
  <g transform="translate(0, -852.3622)" id="layer1" xml:space="default">
    <g transform="matrix(2.125743, -0.3982891, 0.3982891, 2.125743, -1716.285, 956.5805)" id="g2694" xml:space="default">
      <g opacity="0.5" transform="matrix(0.3752479, 0.09500821, -0.09500821, 0.3752479, 737.9779, -254.2563)" id="g5131" xml:space="default" style="fill:#999999;" />
      <path d="M173.7462 875.5855 A288.9036 13.13198 0 1 1 -404.061 875.5855 A288.9036 13.13198 0 1 1 173.7462 875.5855 z" filter="url(#filter5951)" opacity="0.5184281" transform="matrix(0.1392802, 0.02609618, -0.03296117, 0.1759199, 862.0523, 39.3513)" id="path5909" xml:space="default" type="arc" cx="-115.15739" cy="875.58551" rx="288.90363" ry="13.131983" style="fill:#000000;" />
      <g transform="matrix(4.316792, 0.7255913, -0.7255913, 4.316792, -2432.031, -1201.606)" id="g4278" xml:space="default">
        <path d="M792.9968 178.0171 L780.5476 175.676 L780.838 174.1318 L778.7631 173.7416 L776.4855 185.8528 C776.3853 186.3859 776.7363 186.8992 777.2692 186.9993 L790.8279 189.5491 C791.361 189.6493 791.8743 189.2985 791.9745 188.7655 L793.7802 179.1634 C793.8806 178.6304 793.5299 178.1174 792.9968 178.0171 z" id="path7494" xml:space="default" connector-curvature="0" style="fill:url(#linearGradient4331);" />
        <rect x="797.9985" y="31.23528" width="15.01413" height="0.1202687" transform="matrix(0.9827746, 0.1848086, -0.1848086, 0.9827746, 0, 0)" id="rect7498" xml:space="default" style="fill:#FFFFFF;" />
        <rect x="798.0031" y="38.18266" width="15.01422" height="0.1202687" transform="matrix(0.9827746, 0.1848086, -0.1848086, 0.9827746, 0, 0)" id="rect7500" xml:space="default" style="fill:#FFFFFF;" />
        <g transform="matrix(0.08574127, -0.02163982, 0.02163982, 0.08574127, 697.3286, 128.639)" id="g7516" xml:space="default">
          <g id="g7518" xml:space="default">
            <g id="g7520" xml:space="default">
              <polygon points="753.36,746.438 919.666,823.336 931.818,797.052 783.656,728.543 758.849,734.567 758.849,734.567" id="polygon7522" xml:space="default" />
              <g id="g7524" xml:space="default">
                <polygon points="754.256,745.822 759.104,735.336 783.376,729.441 930.924,797.666 919.553,822.254 919.553,822.254" id="polygon7526" xml:space="default" />
                <polygon points="795.358,734.981 814.005,743.603 796.084,765.163 796.084,765.163 777.438,756.541" id="polygon7528" xml:space="default" style="fill:url(#linearGradient4333);" />
                <polygon points="833.659,752.691 852.306,761.313 834.384,782.874 834.384,782.874 815.737,774.251" id="polygon7530" xml:space="default" style="fill:url(#linearGradient4335);" />
                <polygon points="871.961,770.401 890.607,779.024 872.686,800.582 872.686,800.582 854.039,791.962" id="polygon7532" xml:space="default" style="fill:url(#linearGradient4337);" />
                <polygon points="910.261,788.11 928.906,796.732 910.986,818.293 910.986,818.293 892.34,809.67" id="polygon7534" xml:space="default" style="fill:url(#linearGradient4339);" />
              </g>
            </g>
            <g transform="matrix(0.9933737, 0.1149289, -0.1149289, 0.9933737, 86.22021, -85.36556)" id="g7536" xml:space="default">
              <polygon points="774.506,694.674 953.549,733.596 947.396,761.893 787.887,727.218 771.728,707.454 771.728,707.454" id="polygon7538" xml:space="default" />
              <g id="g7540" xml:space="default">
                <polygon points="774.851,695.705 772.396,706.997 788.206,726.333 947.053,760.863 952.807,734.392 952.807,734.392" id="polygon7542" xml:space="default" />
                <polygon points="801.105,729.137 821.18,733.501 819.882,705.495 819.882,705.495 799.807,701.131" id="polygon7544" xml:space="default" style="fill:url(#linearGradient4341);" />
                <polygon points="842.339,738.102 862.413,742.463 861.115,714.459 861.115,714.459 841.041,710.095" id="polygon7546" xml:space="default" style="fill:url(#linearGradient4343);" />
                <polygon points="883.574,747.063 903.648,751.428 902.349,723.423 902.349,723.423 882.275,719.059" id="polygon7548" xml:space="default" style="fill:url(#linearGradient4345);" />
                <polygon points="924.807,756.027 944.882,760.392 943.584,732.386 943.584,732.386 923.508,728.021" id="polygon7550" xml:space="default" style="fill:url(#linearGradient4347);" />
              </g>
            </g>
          </g>
          <g id="g7552" xml:space="default">
            <g id="g7554" xml:space="default">
              <linearGradient x1="888.3857" y1="490.4297" x2="849.7813" y2="446.5609" gradientUnits="userSpaceOnUse" gradientTransform="matrix(0.9077, 0.4197, -0.4197, 0.9077, 200.4444, -57.0905)" id="linearGradient7835" xml:space="default">
                <stop offset="0%" stop-color="#292929" stop-opacity="1" id="stop7837" xml:space="default" />
                <stop offset="9.8%" stop-color="#212121" stop-opacity="1" id="stop7839" xml:space="default" />
                <stop offset="46.6%" stop-color="#090909" stop-opacity="1" id="stop7841" xml:space="default" />
                <stop offset="69.23%" stop-color="#000000" stop-opacity="1" id="stop7843" xml:space="default" />
              </linearGradient>
              <path d="M825.202 723.61 C826.46 720.889 825.1151 717.566 822.211 716.222 L785.134 699.078 C782.232 697.736 778.826 698.863 777.569 701.584 L759.598 740.45 C758.34 743.17 759.688 746.494 762.589 747.836 L799.666 764.98 C802.571 766.324 805.973 765.196 807.231 762.475 L825.202 723.61 z" id="path7565" xml:space="default" connector-curvature="0" style="fill:url(#linearGradient4349);" />
            </g>
            <g transform="translate(0.9041591, 2.712477)" id="g7567" xml:space="default">
              <circle cx="784.65" cy="708.164" r="2.428" id="circle7569" xml:space="default" rx="2.428" ry="2.428" style="fill:#1A1A1A;" />
              <polygon points="784.241,707.176 785.301,707.316 785.708,708.303 785.059,709.148 783.998,709.009 783.998,709.009 783.592,708.021" id="polygon7571" xml:space="default" />
              <path d="M784.645 710.315 C783.431 710.229 782.86 709.195 783.038 709.366 C783.551 709.855 784.45 710.175 784.972 710.097 C785.6511 709.991 785.929 708.3051 786.313 708.4351 C787.3 708.7751 785.962 710.405 784.645 710.3151 z" id="path7573" xml:space="default" connector-curvature="0" style="fill:#CCCCCC;" />
              <path d="M785.278 706.054 C785.422 706.073 785.708 706.694 785.359 706.858 C785.01 707.022 783.655 706.515 783.424 706.671 C783.193 706.827 783.674 705.841 785.278 706.054 z" id="path7575" xml:space="default" connector-curvature="0" style="fill:#FFFFFF;" />
            </g>
            <g transform="translate(4, 2)" id="g7577" xml:space="default">
              <circle cx="768.752" cy="742.544" r="2.428" id="circle7579" xml:space="default" rx="2.428" ry="2.428" style="fill:#1A1A1A;" />
              <polygon points="768.631,741.482 769.611,741.907 769.733,742.969 768.876,743.603 767.896,743.181 767.896,743.181 767.774,742.12" id="polygon7581" xml:space="default" />
              <path d="M768.16 744.612 C767.014 744.199 766.749 743.048 766.873 743.259 C767.232 743.871 768.01 744.423 768.533 744.491 C769.215 744.575 769.944 743.028 770.278 743.259 C771.134 743.857 769.4009 745.06 768.16 744.612 z" id="path7583" xml:space="default" connector-curvature="0" style="fill:#CCCCCC;" />
              <path d="M769.936 740.687 C770.069 740.746 770.173 741.419 769.791 741.482 C769.4139 741.545 768.2469 740.686 767.981 740.773 C767.7189 740.861 768.449 740.044 769.936 740.687 z" id="path7585" xml:space="default" connector-curvature="0" style="fill:#FFFFFF;" />
            </g>
            <g id="g7587" xml:space="default">
              <circle cx="800.086" cy="757.032" r="2.428" id="circle7589" xml:space="default" rx="2.428" ry="2.428" style="fill:#1A1A1A;" />
              <polygon points="799.965,755.972 800.945,756.396 801.066,757.458 800.21,758.092 799.229,757.669 799.229,757.669 799.108,756.607" id="polygon7591" xml:space="default" />
              <path d="M799.493 759.102 C798.349 758.688 798.082 757.537 798.207 757.748 C798.566 758.36 799.345 758.912 799.866 758.979 C800.549 759.065 801.279 757.518 801.613 757.749 C802.469 758.346 800.736 759.549 799.493 759.1021 z" id="path7593" xml:space="default" connector-curvature="0" style="fill:#CCCCCC;" />
              <path d="M801.27 755.176 C801.404 755.235 801.508 755.907 801.125 755.971 C800.746 756.033 799.58 755.175 799.315 755.261 C799.051 755.349 799.783 754.532 801.27 755.176 z" id="path7595" xml:space="default" connector-curvature="0" style="fill:#FFFFFF;" />
            </g>
          </g>
        </g>
        <rect x="798.0007" y="34.47771" width="15.01413" height="0.1202687" transform="matrix(0.9827746, 0.1848086, -0.1848086, 0.9827746, 0, 0)" id="rect3986" xml:space="default" style="fill:#FFFFFF;" />
        <g font-family="Arial" font-size="0.6935666px" font-style="normal" font-weight="700" transform="matrix(0.9828963, 0.18416, -0.18416, 0.9828963, 0, 0)" id="text4112" xml:space="default" text-align="start" line-height="125%" font-stretch="normal" letter-spacing="0px" word-spacing="0px" writing-mode="lr-tb" />
-inkscape-font-specification="Arial Bold" style="fill:#FFFFFF;"&gt;
          <path d="M798.0701 31.22939 L798.0701 30.73293 L798.231 30.73293 C798.292 30.73293 798.3317 30.73543 798.3502 30.74043 C798.3787 30.74792 798.4025 30.76414 798.4217 30.7892 C798.4409 30.81403 798.4505 30.84621 798.4505 30.88572 C798.4505 30.91619 798.4445 30.94182 798.4339 30.96259 C798.4228 30.98335 798.4087 30.99973 798.3916 31.01169 C798.3747 31.02343 798.3574 31.03122 798.3398 31.03506 C798.3159 31.03976 798.2812 31.04216 798.2358 31.04216 L798.1704 31.04216 L798.1704 31.22943 L798.0702 31.22943 M798.1704 30.81695 L798.1704 30.95783 L798.2253 30.95783 C798.2648 30.95783 798.2912 30.95523 798.3045 30.95003 C798.3178 30.94483 798.3282 30.93671 798.3357 30.92565 C798.3437 30.91459 798.3472 30.90172 798.3472 30.88704 C798.3472 30.86898 798.3422 30.85408 798.3312 30.84234 C798.3206 30.8306 798.3073 30.82326 798.291 30.82033 C798.2789 30.81803 798.2549 30.81693 798.2189 30.81693 L798.1705 30.81693" id="path4425" xml:space="default" /><path d="M798.5338 31.22939 L798.5338 30.73293 L798.7448 30.73293 C798.7979 30.73293 798.8362 30.73742 798.8602 30.74648 C798.8844 30.75528 798.9037 30.77109 798.9182 30.79388 C798.9327 30.81668 798.9399 30.84276 798.9399 30.87211 C798.9399 30.90936 798.9289 30.94018 798.907 30.96456 C798.8851 30.98872 798.8524 31.00396 798.8088 31.01028 C798.8305 31.02292 798.8483 31.03681 798.8623 31.05193 C798.8765 31.06706 798.8956 31.09392 798.9195 31.13253 L798.9801 31.22939 L798.8602 31.22939 L798.7877 31.12136 C798.762 31.08275 798.7444 31.05849 798.7349 31.04856 C798.726 31.03839 798.7155 31.03151 798.7048 31.02789 C798.6942 31.0241 798.6774 31.02209 798.6544 31.02209 L798.634 31.02209 L798.634 31.22935 L798.5338 31.22935 M798.634 30.94285 L798.7083 30.94285 C798.7563 30.94285 798.7864 30.94085 798.7983 30.93675 C798.8104 30.93265 798.8196 30.92569 798.8264 30.91575 C798.8334 30.90585 798.8366 30.8934 798.8366 30.8785 C798.8366 30.86179 798.8316 30.84836 798.823 30.8382 C798.814 30.82782 798.8017 30.82127 798.7854 30.81856 C798.7774 30.81746 798.7529 30.81686 798.7123 30.81686 L798.6341 30.81686 L798.6341 30.94284" id="path4427" xml:space="default" /><path d="M799.0143 30.98421 C799.0143 30.93364 799.0223 30.89119 799.037 30.85687 C799.0483 30.83158 799.0637 30.80889 799.0831 30.7888 C799.1027 30.76871 799.1241 30.75381 799.1473 30.7441 C799.1782 30.73101 799.2139 30.72446 799.2543 30.72446 C799.3275 30.72446 799.386 30.74715 799.4297 30.79253 C799.4738 30.83791 799.4957 30.90101 799.4957 30.98184 C799.4957 31.06199 799.4739 31.12475 799.4303 31.17013 C799.3867 31.21528 799.3285 31.23786 799.2556 31.23786 C799.1818 31.23786 799.123 31.2154 799.0795 31.17047 C799.0359 31.12532 799.014 31.06323 799.014 30.98421 M799.1173 30.98081 C799.1173 31.03703 799.1303 31.0797 799.1562 31.10882 C799.1822 31.13772 799.2151 31.15217 799.2551 31.15217 C799.295 31.15217 799.3278 31.13783 799.3533 31.10916 C799.379 31.08026 799.3918 31.03703 799.3918 30.97946 C799.3918 30.92257 799.3793 30.88012 799.3542 30.85212 C799.3295 30.82412 799.2963 30.81013 799.2551 30.81013 C799.2137 30.81013 799.1805 30.82435 799.1552 30.8528 C799.1298 30.88102 799.1172 30.92369 799.1172 30.98081" id="path4429" xml:space="default" /><path d="M799.5734 30.73293 L799.7567 30.73293 C799.798 30.73293 799.8295 30.73613 799.8511 30.74243 C799.8802 30.75103 799.9052 30.76625 799.926 30.78815 C799.9468 30.81005 799.9626 30.83692 799.9734 30.86875 C799.9842 30.90036 799.9897 30.93941 799.9897 30.98592 C799.9897 31.02678 799.9847 31.062 799.9745 31.09158 C799.9621 31.1277 799.9444 31.15694 799.9213 31.17929 C799.9039 31.19622 799.8804 31.20943 799.8509 31.21891 C799.8288 31.22591 799.7992 31.22941 799.7622 31.22941 L799.5735 31.22941 L799.5735 30.73294 M799.6738 30.81693 L799.6738 31.14576 L799.7486 31.14576 C799.7766 31.14576 799.7968 31.14416 799.8092 31.14106 C799.8255 31.13696 799.8389 31.13011 799.8495 31.1204 C799.8603 31.1107 799.8691 31.09477 799.8759 31.07265 C799.8829 31.0503 799.8861 31.01993 799.8861 30.98155 C799.8861 30.94317 799.8831 30.91371 799.8759 30.89316 C799.8689 30.87262 799.8596 30.85659 799.8475 30.84507 C799.8353 30.83356 799.8198 30.82577 799.8011 30.8217 C799.7872 30.8185 799.7598 30.817 799.7189 30.817 L799.6739 30.817" id="path4431" xml:space="default" /><path d="M800.0743 30.73293 L800.1745 30.73293 L800.1745 31.00182 C800.1745 31.04449 800.1755 31.07215 800.1785 31.08479 C800.1826 31.10511 800.1931 31.12148 800.209 31.1339 C800.2253 31.14609 800.2474 31.15219 800.2755 31.15219 C800.304 31.15219 800.3254 31.14639 800.3397 31.13492 C800.3542 31.12318 800.3628 31.10884 800.3658 31.09191 C800.3688 31.07498 800.3699 31.04687 800.3699 31.00759 L800.3699 30.73294 L800.4701 30.73294 L800.4701 30.9937 C800.4701 31.0533 800.4671 31.09541 800.4621 31.12002 C800.4571 31.14463 800.4466 31.1654 800.432 31.18233 C800.4175 31.19926 800.3981 31.21281 800.3737 31.22297 C800.3493 31.23287 800.3175 31.23787 800.2782 31.23787 C800.2308 31.23787 800.1948 31.23247 800.1702 31.22162 C800.1458 31.21056 800.1265 31.19633 800.1122 31.17895 C800.098 31.16134 800.0886 31.14294 800.0842 31.12375 C800.0771 31.0953 800.0742 31.05331 800.0742 30.99777 L800.0742 30.73294" id="path4433" xml:space="default" /><path d="M800.8938 31.04686 L800.991 31.07768 C800.9761 31.13187 800.9514 31.17216 800.9165 31.19858 C800.882 31.22477 800.8381 31.23786 800.7848 31.23786 C800.7189 31.23786 800.6647 31.2154 800.6223 31.17047 C800.5798 31.12532 800.5585 31.06368 800.5585 30.98556 C800.5585 30.90293 800.5798 30.83881 800.6226 30.79321 C800.6653 30.74738 800.7214 30.72446 800.7909 30.72446 C800.8516 30.72446 800.9009 30.74241 800.9389 30.77831 C800.9615 30.79953 800.9784 30.83001 800.9897 30.86975 L800.8905 30.89346 C800.8845 30.86772 800.8723 30.8474 800.8536 30.8325 C800.8351 30.8176 800.8125 30.81015 800.7859 30.81015 C800.7491 30.81015 800.7192 30.82336 800.6962 30.84977 C800.6733 30.87619 800.662 30.91897 800.662 30.97812 C800.662 31.04087 800.6733 31.08558 800.6959 31.11222 C800.7184 31.13886 800.7477 31.15218 800.7839 31.15218 C800.8105 31.15219 800.8336 31.14368 800.8527 31.12678 C800.8719 31.10985 800.8857 31.08321 800.894 31.04686" id="path4435" xml:space="default" /><path d="M801.1891 31.22939 L801.1891 30.81691 L801.0418 30.81691 L801.0418 30.73292 L801.4363 30.73292 L801.4363 30.81691 L801.2894 30.81691 L801.2894 31.22939 L801.1891 31.22939" id="path4437" xml:space="default" /><path d="M801.4969 31.22939 L801.4969 30.73293 L801.5972 30.73293 L801.5972 31.22939 L801.4969 31.22939" id="path4439" xml:space="default" /><path d="M801.6721 30.98421 C801.6721 30.93364 801.6801 30.89119 801.6948 30.85687 C801.7061 30.83158 801.7214 30.80889 801.7408 30.7888 C801.7604 30.76871 801.7819 30.75381 801.8051 30.7441 C801.836 30.73101 801.8717 30.72446 801.9121 30.72446 C801.9853 30.72446 802.0437 30.74715 802.0875 30.79253 C802.1315 30.83791 802.1535 30.90101 802.1535 30.98184 C802.1535 31.06199 802.1317 31.12475 802.0881 31.17013 C802.0445 31.21528 801.9863 31.23786 801.9133 31.23786 C801.8395 31.23786 801.7808 31.2154 801.7372 31.17047 C801.6937 31.12532 801.6718 31.06323 801.6718 30.98421 M801.7751 30.98081 C801.7751 31.03703 801.7881 31.0797 801.814 31.10882 C801.84 31.13772 801.8729 31.15217 801.9128 31.15217 C801.9528 31.15217 801.9855 31.13783 802.011 31.10916 C802.0367 31.08026 802.0496 31.03703 802.0496 30.97946 C802.0496 30.92257 802.0371 30.88012 802.012 30.85212 C801.9872 30.82412 801.9541 30.81013 801.9128 30.81013 C801.8715 30.81013 801.8383 30.82435 801.8129 30.8528 C801.7876 30.88102 801.775 30.92369 801.775 30.98081" id="path4441" xml:space="default" /><path d="M802.2325 31.22939 L802.2325 30.73293 L802.33 30.73293 L802.5332 31.06447 L802.5332 30.73293 L802.6263 30.73293 L802.6263 31.22939 L802.5257 31.22939 L802.3256 30.90564 L802.3256 31.22939 L802.2325 31.22939" id="path4443" xml:space="default" /></g>
      <g font-family="Arial" font-size="0.6935666px" font-style="normal" font-weight="700" transform="matrix(0.9828963, 0.18416, -0.18416, 0.9828963, 0, 0)" id="text4116" xml:space="default" text-align="start" line-height="125%" font-stretch="normal" letter-spacing="0px" word-spacing="0px" writing-mode="lr-tb" />
-inkscape-font-specification="Arial Bold" style="fill:#FFFFFF;"&gt;
          <path d="M798.0447 34.30468 L798.1422 34.29518 C798.1482 34.32792 798.1599 34.35196 798.1778 34.36731 C798.1959 34.38266 798.2201 34.39034 798.2506 34.39034 C798.2829 34.39034 798.3072 34.38353 798.3234 34.37001 C798.3399 34.35624 798.3481 34.34021 798.3481 34.32192 C798.3481 34.31018 798.3441 34.30025 798.3376 34.29212 C798.3306 34.28372 798.319 34.27654 798.3018 34.27045 C798.29 34.26635 798.2632 34.25916 798.2214 34.24878 C798.1677 34.23546 798.1301 34.21909 798.1083 34.19968 C798.0778 34.17236 798.0626 34.13906 798.0626 34.09978 C798.0626 34.07449 798.0696 34.0509 798.0839 34.029 C798.0984 34.00687 798.119 33.99005 798.1459 33.97854 C798.173 33.96703 798.2056 33.96127 798.2438 33.96127 C798.3062 33.96127 798.353 33.97493 798.3844 34.00225 C798.416 34.02957 798.4326 34.06603 798.4342 34.11164 L798.334 34.11604 C798.33 34.09053 798.3204 34.07224 798.3062 34.06118 C798.2922 34.04988 798.2711 34.04425 798.2429 34.04425 C798.2138 34.04425 798.191 34.05025 798.1745 34.06219 C798.1639 34.0699 798.1586 34.08014 798.1586 34.09301 C798.1586 34.10476 798.1636 34.1148 798.1735 34.12315 C798.1862 34.13376 798.2169 34.14482 798.2656 34.15635 C798.3144 34.16787 798.3503 34.17982 798.3736 34.19225 C798.3971 34.20444 798.4154 34.22126 798.4285 34.24271 C798.4418 34.26393 798.4485 34.29023 798.4485 34.32162 C798.4485 34.35007 798.4405 34.37671 798.4248 34.40154 C798.409 34.42637 798.3866 34.44489 798.3577 34.45708 C798.3289 34.46904 798.2928 34.47503 798.2497 34.47503 C798.1869 34.47503 798.1387 34.46058 798.1051 34.43167 C798.0715 34.40255 798.0514 34.36021 798.0448 34.30468" id="path4446" xml:space="default" /><path d="M798.8511 34.28368 L798.9483 34.3145 C798.9334 34.36869 798.9086 34.40897 798.8738 34.43539 C798.8393 34.46159 798.7953 34.47467 798.7421 34.47467 C798.6761 34.47467 798.6219 34.45221 798.5795 34.40728 C798.5371 34.36213 798.5158 34.3005 798.5158 34.22238 C798.5158 34.13975 798.5371 34.07563 798.5798 34.03002 C798.6226 33.98419 798.6786 33.96127 798.7482 33.96127 C798.8089 33.96127 798.8582 33.97922 798.8962 34.01512 C798.9188 34.03634 798.9357 34.06682 798.947 34.10656 L798.8478 34.13027 C798.8418 34.10453 798.8296 34.08421 798.8109 34.06931 C798.7924 34.05441 798.7698 34.04696 798.7432 34.04696 C798.7064 34.04696 798.6765 34.06017 798.6534 34.08658 C798.6306 34.113 798.6193 34.15578 798.6193 34.21493 C798.6193 34.27769 798.6306 34.3224 798.6531 34.34903 C798.6757 34.37568 798.705 34.38899 798.7412 34.38899 C798.7678 34.38899 798.7908 34.38049 798.81 34.36359 C798.8292 34.34666 798.843 34.32002 798.8513 34.28367" id="path4448" xml:space="default" /><path d="M799.0346 34.46621 L799.0346 33.96975 L799.4027 33.96975 L799.4027 34.05373 L799.1348 34.05373 L799.1348 34.1638 L799.3841 34.1638 L799.3841 34.24744 L799.1348 34.24744 L799.1348 34.38257 L799.4122 34.38257 L799.4122 34.46622 L799.0345 34.46622" id="path4450" xml:space="default" /><path d="M799.4989 34.46621 L799.4989 33.96975 L799.5964 33.96975 L799.7996 34.30129 L799.7996 33.96975 L799.8926 33.96975 L799.8926 34.46621 L799.7921 34.46621 L799.5919 34.14246 L799.5919 34.46621 L799.4988 34.46621" id="path4452" xml:space="default" /><path d="M799.9991 34.46621 L799.9991 33.96975 L800.3672 33.96975 L800.3672 34.05373 L800.0993 34.05373 L800.0993 34.1638 L800.3486 34.1638 L800.3486 34.24744 L800.0993 34.24744 L800.0993 34.38257 L800.3766 34.38257 L800.3766 34.46622 L799.999 34.46622" id="path4454" xml:space="default" /></g>
    <g font-family="Arial" font-size="0.6935666px" font-style="normal" font-weight="700" transform="matrix(0.9828963, 0.18416, -0.18416, 0.9828963, 0, 0)" id="text4122" xml:space="default" text-align="start" line-height="125%" font-stretch="normal" letter-spacing="0px" word-spacing="0px" writing-mode="lr-tb" />
-inkscape-font-specification="Arial Bold" style="fill:#FFFFFF;"&gt;
          <path d="M798.0698 37.66896 L798.253 37.66896 C798.2943 37.66896 798.3258 37.67216 798.3475 37.67846 C798.3766 37.68706 798.4016 37.70228 798.4223 37.72418 C798.4431 37.74608 798.4589 37.77295 798.4697 37.80478 C798.4805 37.83639 798.486 37.87545 798.486 37.92196 C798.486 37.96282 798.481 37.99804 798.4708 38.02762 C798.4584 38.06374 798.4407 38.09298 798.4176 38.11533 C798.4002 38.13226 798.3767 38.14547 798.3472 38.15495 C798.3251 38.16195 798.2955 38.16545 798.2585 38.16545 L798.0699 38.16545 L798.0699 37.66898 M798.1701 37.75297 L798.1701 38.08181 L798.2449 38.08181 C798.2729 38.08181 798.2932 38.08021 798.3055 38.07711 C798.3218 38.07301 798.3353 38.06616 798.3458 38.05645 C798.3566 38.04675 798.3654 38.03083 798.3723 38.0087 C798.3793 37.98635 798.3824 37.95598 798.3824 37.9176 C798.3824 37.87922 798.3795 37.84976 798.3723 37.82921 C798.3652 37.80867 798.356 37.79264 798.3439 37.78112 C798.3317 37.76961 798.3162 37.76182 798.2975 37.75775 C798.2835 37.75455 798.2561 37.75305 798.2152 37.75305 L798.1702 37.75305" id="path4457" xml:space="default" /><path d="M799.019 38.16543 L798.91 38.16543 L798.8666 38.05266 L798.6682 38.05266 L798.6271 38.16543 L798.5208 38.16543 L798.7142 37.66896 L798.8202 37.66896 L799.019 38.16543 M798.8344 37.96901 L798.766 37.78478 L798.699 37.96901 L798.8344 37.96901" id="path4459" xml:space="default" /><path d="M799.1342 38.16543 L799.1342 37.75295 L798.9868 37.75295 L798.9868 37.66896 L799.3813 37.66896 L799.3813 37.75295 L799.2344 37.75295 L799.2344 38.16543 L799.1342 38.16543" id="path4461" xml:space="default" /><path d="M799.4451 38.16543 L799.4451 37.66896 L799.8132 37.66896 L799.8132 37.75295 L799.5453 37.75295 L799.5453 37.86302 L799.7946 37.86302 L799.7946 37.94667 L799.5453 37.94667 L799.5453 38.08179 L799.8226 38.08179 L799.8226 38.16544 L799.445 38.16544" id="path4463" xml:space="default" /></g>
</svg>