<svg enable-background="new 0 0 220.00 220.00" height="220" viewBox="0 0 220 220" width="220" xmlns="http://www.w3.org/2000/svg"><g stroke-linejoin="round"><path d="m109.936 24.8991c50.12 0 90.75 28.2059 90.75 63 0 14.9179-7.469 28.6249-19.953 39.4169l-4.547 5.083-10 7-7 11.5-7 14-7.5 10.5-5-1-1.5-9-1.261-17.333c-8.526 1.841-17.591 2.833-26.989 2.833-50.1198 0-90.75-28.206-90.75-62.9999 0-34.7941 40.6302-63 90.75-63z" fill="#e4e4e1" stroke="#000" stroke-width="5"/><path d="m178.686 50.2969c-16.04-14.5168-41.487-23.8978-70.137-23.8978-48.5258 0-87.8631 26.9105-87.8631 60.1065 0 9.4687 3.2003 18.4254 8.9015 26.3934l20.5425-10.845c-4.4337-5.4544-6.9337-11.6301-6.9337-18.1724 0-22.1305 28.609-40.0709 63.8998-40.0709 17.793 0 33.888 4.5604 45.474 11.9191z" fill="#9bcbe0" stroke-width=".2"/><ellipse cx="108.686" cy="84.8987" fill="#fff" rx="66" ry="41.9999" stroke-width=".2"/><g fill="#a9090b" stroke="#a9090b" stroke-width="2"><path d="m80.741 104.132h-9.5992v-17.1289c0-4.3629-1.7498-6.5445-5.2493-6.5445-1.6601 0-3.0132.6545-4.0597 1.9634-1.0467 1.309-1.5699 2.9434-1.5699 4.9035v16.8065h-9.599v-17.3091c0-4.2428-1.7231-6.3643-5.1695-6.3643-1.7332 0-3.1181.6261-4.1546 1.8781-1.0366 1.252-1.5548 2.9529-1.5548 5.1028v16.6925h-9.5991v-30.3505h9.5991v4.989h.1299c1.02-1.6567 2.4531-3.0034 4.2997-4.0405 1.8464-1.037 3.8629-1.5555 6.0493-1.5555 4.5329 0 7.6326 1.9254 9.2991 5.7762 2.4331-3.8508 6.0161-5.7762 10.7489-5.7762 6.9526 0 10.4291 4.0532 10.4291 12.1593z"/><path d="m117.217 91.3849h-20.4777c.3333 4.4516 3.2363 6.6773 8.7087 6.6773 3.493 0 6.563-.8095 9.209-2.4281v6.8289c-2.926 1.518-6.725 2.276-11.398 2.276-5.1064 0-9.0695-1.346-11.8891-4.04-2.8197-2.6938-4.2298-6.4497-4.2298-11.2678 0-5.0015 1.5132-8.9614 4.5396-11.8794 3.0264-2.9182 6.7461-4.3773 11.1593-4.3773 4.579 0 8.12 1.2884 10.624 3.8651 2.503 2.5766 3.754 6.0718 3.754 10.4851zm-8.959-5.463c0-4.0467-1.823-6.0702-5.469-6.0702-1.553 0-2.8984.5801-4.0348 1.7404-1.1366 1.1604-1.8282 2.6035-2.075 4.3298z"/><path d="m154.333 100.851c0 5.671-1.668 10.064-5.004 13.178-3.336 3.115-8.168 4.672-14.494 4.672-4.179 0-7.492-.55-9.939-1.651v-7.455c3.194 1.619 6.413 2.429 9.66 2.429 3.232 0 5.737-.89 7.514-2.67 1.776-1.78 2.665-4.201 2.665-7.261v-2.5607h-.12c-2.22 3.4717-5.493 5.2067-9.82 5.2067-4.012 0-7.199-1.351-9.558-4.054-2.36-2.7034-3.54-6.328-3.54-10.8744 0-5.0965 1.311-9.1433 3.934-12.1404s6.078-4.4957 10.364-4.4957c3.833 0 6.703 1.4608 8.609 4.3819h.131v-3.7749h9.598zm-9.479-11.3156v-2.3331c0-1.8654-.573-3.4556-1.719-4.7709-1.147-1.315-2.637-1.9728-4.47-1.9728-2.093 0-3.738.7873-4.934 2.3619-1.197 1.5743-1.795 3.7938-1.795 6.6582 0 2.4532.568 4.396 1.705 5.8282 1.136 1.4321 2.691 2.1482 4.664 2.1482 1.953 0 3.533-.7255 4.74-2.1766 1.206-1.4512 1.809-3.3656 1.809-5.7431z"/><path d="m190.17 104.132h-9.599v-4.5238h-.13c-2.167 3.4208-5.373 5.1308-9.619 5.1308-3.133 0-5.598-.83-7.394-2.489-1.797-1.66-2.695-3.8748-2.695-6.6444 0-5.8487 3.709-9.2252 11.129-10.1295l8.769-1.0907c0-3.0225-1.91-4.5337-5.73-4.5337-3.846 0-7.502 1.0117-10.969 3.035v-7.1323c1.394-.683 3.302-1.2835 5.725-1.8021s4.628-.7778 6.614-.7778c9.266 0 13.899 4.2998 13.899 12.899zm-9.539-12.3013v-1.9823l-5.98.6924c-3.306.3794-4.959 1.7105-4.959 3.993 0 1.0308.402 1.8765 1.205 2.5372s1.891.9912 3.264.9912c1.914 0 3.47-.588 4.67-1.7642 1.2-1.1761 1.8-2.6652 1.8-4.4673z"/></g></g></svg>