<?xml version="1.0" encoding="utf-8"?>
<!DOCTYPE svg PUBLIC "-//W3C//DTD SVG 1.1//EN" "http://www.w3.org/Graphics/SVG/1.1/DTD/svg11.dtd">
<svg xmlns="http://www.w3.org/2000/svg" xmlns:xlink="http://www.w3.org/1999/xlink" version="1.1" baseProfile="full" width="257" height="257" viewBox="0 0 257.00 257.00" enable-background="new 0 0 257.00 257.00" xml:space="preserve">
	<path fill="#E4E4E1" fill-opacity="1" stroke-width="5" stroke-linejoin="round" stroke="#000000" stroke-opacity="1" d="M 128.436,43.3991C 178.556,43.3991 219.186,71.605 219.186,106.399C 219.186,121.317 211.717,135.024 199.233,145.816L 194.686,150.899L 184.686,157.899L 177.686,169.399L 170.686,183.399L 163.186,193.899L 158.186,192.899L 156.686,183.899L 155.425,166.566C 146.9,168.407 137.835,169.399 128.436,169.399C 78.3163,169.399 37.6862,141.193 37.6862,106.399C 37.6862,71.605 78.3163,43.3991 128.436,43.3991 Z "/>
	<path fill="#9BCBE0" fill-opacity="1" stroke-width="0.2" stroke-linejoin="round" d="M 197.186,68.7969C 181.146,54.2801 155.699,44.8991 127.049,44.8991C 78.5233,44.8991 39.186,71.8096 39.186,105.006C 39.186,114.474 42.3864,123.431 48.0875,131.399L 68.63,120.554C 64.1963,115.1 61.6963,108.924 61.6963,102.382C 61.6963,80.2511 90.3053,62.3107 125.596,62.3107C 143.389,62.3107 159.484,66.8711 171.07,74.2298L 197.186,68.7969 Z "/>
	<ellipse fill="#FFFFFF" fill-opacity="1" stroke-width="0.2" stroke-linejoin="round" cx="127.186" cy="103.399" rx="66" ry="41.9999"/>
	<g>
		<path fill="#A9090B" fill-opacity="1" stroke-width="2" stroke-linejoin="round" stroke="#A9090B" stroke-opacity="1" d="M 99.2411,122.632L 89.642,122.632L 89.642,105.503C 89.642,101.14 87.8921,98.9586 84.3926,98.9586C 82.7325,98.9586 81.3794,99.6131 80.3329,100.922C 79.2863,102.231 78.7631,103.865 78.7631,105.825L 78.7631,122.632L 69.1641,122.632L 69.1641,105.323C 69.1641,101.08 67.4409,98.9586 63.9945,98.9586C 62.2614,98.9586 60.8765,99.5847 59.84,100.837C 58.8033,102.089 58.2852,103.79 58.2852,105.939L 58.2852,122.632L 48.686,122.632L 48.686,92.2815L 58.2852,92.2815L 58.2852,97.2705L 58.415,97.2705C 59.4351,95.6138 60.8682,94.2671 62.7147,93.23C 64.5612,92.193 66.5776,91.6745 68.764,91.6745C 73.2969,91.6745 76.3966,93.5999 78.0631,97.4507C 80.4962,93.5999 84.0792,91.6745 88.812,91.6745C 95.7646,91.6745 99.2411,95.7277 99.2411,103.834L 99.2411,122.632 Z "/>
		<path fill="#A9090B" fill-opacity="1" stroke-width="2" stroke-linejoin="round" stroke="#A9090B" stroke-opacity="1" d="M 135.717,109.885L 115.239,109.885C 115.573,114.336 118.476,116.562 123.949,116.562C 127.442,116.562 130.511,115.753 133.158,114.134L 133.158,120.963C 130.231,122.481 126.432,123.239 121.759,123.239C 116.653,123.239 112.69,121.893 109.87,119.199C 107.05,116.505 105.64,112.749 105.64,107.931C 105.64,102.93 107.153,98.9698 110.18,96.0518C 113.206,93.1336 116.926,91.6745 121.339,91.6745C 125.918,91.6745 129.46,92.9629 131.963,95.5396C 134.466,98.1162 135.717,101.611 135.717,106.025L 135.717,109.885 Z M 126.758,104.422C 126.758,100.375 124.935,98.3517 121.289,98.3517C 119.736,98.3517 118.391,98.9318 117.254,100.092C 116.118,101.252 115.426,102.696 115.179,104.422L 126.758,104.422 Z "/>
		<path fill="#A9090B" fill-opacity="1" stroke-width="2" stroke-linejoin="round" stroke="#A9090B" stroke-opacity="1" d="M 172.834,119.351C 172.834,125.022 171.166,129.415 167.829,132.529C 164.493,135.644 159.662,137.201 153.336,137.201C 149.156,137.201 145.843,136.651 143.397,135.55L 143.397,128.095C 146.59,129.714 149.809,130.524 153.056,130.524C 156.289,130.524 158.793,129.634 160.57,127.854C 162.346,126.074 163.235,123.653 163.235,120.593L 163.235,118.032L 163.115,118.032C 160.895,121.504 157.622,123.239 153.296,123.239C 149.283,123.239 146.096,121.888 143.737,119.185C 141.377,116.482 140.197,112.857 140.197,108.311C 140.197,103.214 141.508,99.1673 144.131,96.1702C 146.755,93.1731 150.209,91.6745 154.495,91.6745C 158.328,91.6745 161.198,93.1353 163.105,96.0564L 163.235,96.0564L 163.235,92.2815L 172.834,92.2815L 172.834,119.351 Z M 163.355,108.035L 163.355,105.702C 163.355,103.837 162.781,102.247 161.635,100.931C 160.488,99.6164 158.998,98.9586 157.165,98.9586C 155.072,98.9586 153.427,99.7459 152.231,101.32C 151.034,102.895 150.436,105.114 150.436,107.979C 150.436,110.432 151.004,112.375 152.141,113.807C 153.277,115.239 154.832,115.955 156.805,115.955C 158.758,115.955 160.338,115.23 161.545,113.778C 162.751,112.327 163.355,110.413 163.355,108.035 Z "/>
		<path fill="#A9090B" fill-opacity="1" stroke-width="2" stroke-linejoin="round" stroke="#A9090B" stroke-opacity="1" d="M 208.67,122.632L 199.071,122.632L 199.071,118.108L 198.941,118.108C 196.775,121.529 193.568,123.239 189.322,123.239C 186.189,123.239 183.724,122.409 181.928,120.75C 180.131,119.09 179.233,116.875 179.233,114.106C 179.233,108.257 182.943,104.88 190.362,103.976L 199.131,102.885C 199.131,99.8629 197.221,98.3517 193.401,98.3517C 189.555,98.3517 185.899,99.3634 182.433,101.387L 182.433,94.2544C 183.826,93.5714 185.734,92.9709 188.157,92.4523C 190.58,91.9337 192.785,91.6745 194.771,91.6745C 204.037,91.6745 208.67,95.9743 208.67,104.574L 208.67,122.632 Z M 199.131,110.331L 199.131,108.348L 193.151,109.041C 189.845,109.42 188.192,110.751 188.192,113.034C 188.192,114.065 188.594,114.91 189.397,115.571C 190.2,116.232 191.288,116.562 192.662,116.562C 194.575,116.562 196.131,115.974 197.331,114.798C 198.531,113.622 199.131,112.133 199.131,110.331 Z "/>
	</g>
</svg>
