<?xml version="1.0" encoding="utf-8"?>
<!DOCTYPE svg PUBLIC "-//W3C//DTD SVG 1.1//EN" "http://www.w3.org/Graphics/SVG/1.1/DTD/svg11.dtd">
<svg x="0" y="0" width="55" height="55.00012" overflow="hidden" viewBox="0, 0, 550, 550.0012" preserveAspectRatio="xMidYMid" font-size="0px" id="svg" xml:space="default" xmlns="http://www.w3.org/2000/svg" xmlns:xlink="http://www.w3.org/1999/xlink" xmlns:xml="http://www.w3.org/XML/1998/namespace" version="1.1">
  <defs id="def1" xml:space="default">
    <linearGradient x1="0" y1="0" x2="1" y2="0" gradientUnits="objectBoundingBox" id="linearGradient2822" xml:space="default">
      <stop offset="0%" stop-color="#FFFFFF" stop-opacity="1" id="stop2824" xml:space="default" />
      <stop offset="100%" stop-color="#B3AFE9" stop-opacity="1" id="stop2826" xml:space="default" />
    </linearGradient>
    <linearGradient x1="188.5714" y1="679.5051" x2="513.3571" y2="251.8622" gradientUnits="userSpaceOnUse" xlink:href="#linearGradient2822" id="linearGradient2828" xml:space="default" />
    <linearGradient x1="188.5714" y1="679.5051" x2="513.3571" y2="251.8622" gradientUnits="userSpaceOnUse" xlink:href="#linearGradient2822" id="linearGradient2916" xml:space="default" />
    <linearGradient x1="188.5714" y1="679.5051" x2="513.3571" y2="251.8622" gradientUnits="userSpaceOnUse" xlink:href="#linearGradient2822" gradientTransform="translate(-136.6429, -200.9336)" id="linearGradient2843" xml:space="default" />
  </defs>
  <path d="M0.81291 455.0541 L187.0006 549.3398 C187.0006 549.3398 358.438 424.9323 380.4899 340.7683 C386.005 319.7196 362.5943 299.3961 362.2362 277.9111 C362.0745 268.1995 365.2638 258.458 369.5377 249.3397 C400.6782 182.9036 500.9644 63.62549 500.9644 63.62549 L453.5048 35.05413 C453.5048 35.05413 361.9002 171.4367 289.2214 220.7683 C280.9987 226.3496 270.7905 230.9922 260.0155 232.1969 C233.0779 235.2086 204.4764 211.9651 179.6991 220.7683 C73.85053 258.3757 0.81279 455.0541 0.81279 455.0541 z" stroke="#800080" stroke-width="1.13038px" id="path2816" xml:space="default" style="fill:#800080;" />
  <g transform="matrix(1.127918, 0.4698791, -0.6003924, 0.8827308, -81.98759, -443.4717)" id="g2856" xml:space="default">
    <path d="M572.375 480.4063 C563.711 479.9354 552.7722 481.4966 549.0938 490.625 C542.4218 504.4256 550.6566 521.578 563.75 528.2188 C582.5998 538.2756 605.0959 537.9703 625.9688 536.6563 C630.0589 536.1597 635.7791 535.0562 635.8125 529.8438 C636.1096 524.3995 638.4187 518.5334 636.9688 513.2188 C634.9531 511.6723 638.6702 508.4305 638.0313 505.875 C638.3011 495.2621 626.8425 489.7078 618.5 486.1875 C606.4786 480.9132 593.3202 479.67 580.2813 480.375 C577.6458 480.379 575.0102 480.3571 572.375 480.4062 z" fill-rule="evenOdd" id="path2850" xml:space="default" connector-curvature="0" style="fill:#803300;" />
    <path d="M547.0792 508.905 C547.0792 508.905 545.3414 527.1223 544.0634 535.5618 C539.232 595.9805 534.5581 656.4117 529.7813 716.8348 C544.0386 738.1931 570.5515 746.9388 595.1328 748.8661 C606.8519 749.0983 618.3206 746.3519 629.6943 743.8428 C635.2455 673.0349 639.913 602.1492 644.6876 531.2827 C644.2286 531.0333 644.7271 529.5408 644.2632 529.428 C640.4813 530.655 634.7878 533.7679 630.7455 534.3835 C616.373 537.6797 601.2042 536.1476 586.7244 534.6626 C571.9553 532.616 554.1025 525.5015 549.4427 510.0732 C548.0107 509.1208 548.6479 507.2098 547.7808 508.0452 C547.6187 508.2013 547.0793 508.905 547.0793 508.905 z" fill-rule="evenOdd" id="path2848" xml:space="default" nodetypes="ccccccccccsc" connector-curvature="0" style="fill:#FFB380;" />
    <path d="M547.5946 498.3907 C547.5946 498.3907 530.3301 716.9916 530.3301 716.9916 C530.3301 716.9916 538.6363 728.446 544.4722 732.1439 C559.4039 741.605 577.3622 746.8611 594.9799 748.3063 C606.5126 749.2523 629.3251 743.2555 629.3251 743.2555 L644.4774 529.1031 C644.4774 529.1031 630.0247 535.9559 622.254 536.1742 C598.6205 536.8381 568.6594 536.6928 553.5637 518.4965 C547.0596 510.6566 545.5903 496.2697 551.5433 488.0038 C556.9763 480.46 568.7518 481.3761 577.8073 480.9327 C592.1274 480.2315 607.2075 482.0139 620.2335 488.0038 C626.7332 490.9926 634.7982 494.8794 636.6919 501.7782 C638.1137 506.9586 635.3861 513.4417 631.3452 516.9813 C622.9577 524.3286 609.6469 525.3586 598.602 523.8282 C587.2022 522.2488 573.2515 518.0806 568.0014 507.8391 C565.8291 503.6017 566.2049 496.5443 570.0218 493.6971 C577.3885 488.2018 588.6004 494.7617 597.2959 497.7376 C603.1442 499.7391 614.7521 500.7846 613.4583 506.829 C611.9015 514.1025 591.2349 508.8493 591.2349 508.8493" stroke="#000000" stroke-width="1px" id="path2842" xml:space="default" nodetypes="ccaaccaaaaaaaaaaaaa" connector-curvature="0" style="fill:none;" />
    <path d="M637.0734 503.8494 L634.3759 533.1438" stroke="#000000" stroke-width="1px" id="path2844" xml:space="default" nodetypes="cc" connector-curvature="0" style="fill:none;" />
  </g>
  <g display="inline" enable-background="accumulate" stroke="#000000" stroke-width="1.285691px" text-anchor="middle" font-family="'Copperplate Gothic Bold'" font-size="25.71383px" font-style="normal" font-weight="400" color="#000000" transform="matrix(0.7204996, -0.8258585, 1.055248, 0.5638773, -174.4227, -203.0224)" id="text2862" xml:space="default" />
  <path d="M13.5905 450.7684 L185.1753 532.197 C185.1753 532.197 326.1381 423.427 353.1093 352.197 C362.6318 327.0485 345.5339 299.8034 347.6332 273.6255 C348.4855 262.9985 350.3265 252.2155 354.9347 242.197 C383.9998 179.0085 480.8853 66.48273 480.8853 66.48273 L458.9809 49.33983 C458.9809 49.33983 372.6767 193.483 291.0468 233.6255 C275.8858 241.0812 256.0042 241.2885 238.111 240.7684 C223.0691 240.3312 208.3043 227.8739 194.3021 232.197 C91.15558 264.0429 13.5905 450.7684 13.5905 450.7684 z" stroke-width="1.13038" opacity="0.6800004" id="path2818" xml:space="default" style="fill:url(#linearGradient2843);" />
  <path d="M453.0484 34.33982 L469.9331 -2.088779 L551.162 36.12552 L501.8771 63.26832 L453.0484 34.33982 z" stroke-width="1.13038" id="path2830" xml:space="default" style="fill:#D3BC5F;" />
  <path d="M481.798 20.58982 A2.966228 2.321429 0 1 1 475.8656 20.58982 A2.966228 2.321429 0 1 1 481.798 20.58982 z" fill-rule="evenOdd" stroke-width="1.13038" id="path2832" xml:space="default" style="fill:#FFFFFF;" />
  <path d="M512.3729 33.08982 A4.107102 3.392872 0 1 1 504.1588 33.08982 A4.107102 3.392872 0 1 1 512.3729 33.08982 z" fill-rule="evenOdd" stroke-width="1.13038" id="path2834" xml:space="default" style="fill:#FFFFFF;" />
  <path d="M491.8376 35.76842 A3.1944 2.500001 0 1 1 485.4488 35.76842 A3.1944 2.500001 0 1 1 491.8376 35.76842 z" fill-rule="evenOdd" stroke-width="1.13038" id="path2836" xml:space="default" style="fill:#FFFFFF;" />
  <path d="M477.6909 34.69692 A2.738056 2.142857 0 1 1 472.2148 34.69692 A2.738056 2.142857 0 1 1 477.6909 34.69692 z" fill-rule="evenOdd" stroke-width="1.13038" id="path2838" xml:space="default" style="fill:#FFFFFF;" />
  <path d="M498.6827 47.91122 A2.281713 1.785714 0 1 1 494.1193 47.91122 A2.281713 1.785714 0 1 1 498.6827 47.91122 z" fill-rule="evenOdd" stroke-width="1.13038" id="path2840" xml:space="default" style="fill:#FFFFFF;" />
</svg>