<svg enable-background="new 0 0 150.00 78.25" height="78.25" viewBox="0 0 150 78.25" width="150" xmlns="http://www.w3.org/2000/svg" xmlns:xlink="http://www.w3.org/1999/xlink"><linearGradient id="a" gradientTransform="matrix(0 1 -1 0 -9.06931 -10.06931)" gradientUnits="objectBoundingBox" x1=".5" x2="20.6386" y1="-9.56931" y2="-9.56931"><stop offset=".427907" stop-color="#eeeaea"/><stop offset=".576744" stop-color="#fff" stop-opacity="0"/></linearGradient><radialGradient id="b" cx="24.2987" cy="58.6846" gradientTransform="matrix(-1 0 0 -1 48.597442 117.369164)" gradientUnits="userSpaceOnUse" r="7.33331"><stop offset="0" stop-color="#4d5735"/><stop offset="1" stop-color="#273110"/></radialGradient><radialGradient id="c" cx="24.4583" cy="27.875" gradientTransform="matrix(.866025456144 -.49999990931 .49999990931 .866025456144 -10.66071780719 15.963673165578)" gradientUnits="userSpaceOnUse" r="39"><stop offset="0" stop-color="#4d5735" stop-opacity=".403922"/><stop offset="1" stop-color="#273110" stop-opacity=".403922"/></radialGradient><radialGradient id="d" cx="24.4583" cy="27.875" gradientTransform="matrix(.866025491051 -.49999984885 .49999984885 .866025491051 -10.660716975622 15.96367071381)" gradientUnits="userSpaceOnUse" r="39"><stop offset="0" stop-color="#a8aebd" stop-opacity=".403922"/><stop offset=".274419" stop-color="#a2a8b7" stop-opacity=".403922"/><stop offset=".967442" stop-color="#142935" stop-opacity=".403922"/><stop offset="1" stop-color="#102531" stop-opacity=".403922"/></radialGradient><g stroke-linejoin="round"><path d="m39.4169.500005h222.7501c21.332 0 38.625 17.292995 38.625 38.624995l0 0c0 21.332-17.293 38.625-38.625 38.625h-222.7501c-21.332 0-38.625045-17.293-38.625045-38.625l0 0c0-21.332 17.293045-38.624995 38.625045-38.624995z" fill="#8c9e64" fill-opacity=".262745" stroke="#000" stroke-opacity=".262745"/><path d="m39.4165.500051h222.7495c21.332 0 38.625 17.292949 38.625 38.624949l0 0c0 21.332-17.293 38.625-38.625 38.625h-222.7495c-21.332 0-38.624935-17.293-38.624935-38.625l0 0c0-21.332 17.292935-38.624949 38.624935-38.624949z" fill="none" stroke="#000"/><path d="m255.139 1.18752h-209.5112c-5.5466 0-10.841.28419-15.6841.80026-7.3483 1.83956-13.8621 5.784-18.8636 11.15542 5.2488 1.1958 12.0945 1.9193 19.5825 1.9193h240.8674c7.201 0 13.809-.6692 18.973-1.7842-4.899-5.31131-11.268-9.24518-18.463-11.15487-5.168-.6017-10.886-.93591-16.901-.93591z" fill="url(#a)" stroke-width=".2"/><path d="m34.0824 38.9079h17.9186v5.28h-17.9186z" stroke-width=".2"/><path d="m30.132 53.6012-11.6667 10.1667" fill="none" stroke="url(#b)" stroke-width="3"/><ellipse cx="43.9583" cy="40.875" fill="url(#d)" rx="18" ry="18" stroke="url(#c)" stroke-width="3"/></g></svg>