<?xml version="1.0" encoding="utf-8"?>
<!DOCTYPE svg PUBLIC "-//W3C//DTD SVG 1.1//EN" "http://www.w3.org/Graphics/SVG/1.1/DTD/svg11.dtd">
<svg xmlns="http://www.w3.org/2000/svg" xmlns:xlink="http://www.w3.org/1999/xlink" version="1.1" baseProfile="full" width="88" height="76" viewBox="0 0 88.00 76.00" enable-background="new 0 0 88.00 76.00" xml:space="preserve">
	<path fill="#B2AE5A" fill-opacity="1" stroke-linejoin="round" stroke="#000000" stroke-opacity="1" d="M 13.4792,2.43747L 74.4792,2.43747C 80.5543,2.43747 85.4792,7.36234 85.4792,13.4375L 85.4792,63.1042C 85.4792,69.1793 80.5543,74.1042 74.4792,74.1042L 13.4792,74.1042C 7.40403,74.1042 2.47916,69.1793 2.47916,63.1042L 2.47916,13.4375C 2.47916,7.36234 7.40403,2.43747 13.4792,2.43747 Z "/>
	<linearGradient id="SVGID_Fill1_" gradientUnits="objectBoundingBox" x1="0.503869" y1="-0.274908" x2="2.05368" y2="-0.274908" gradientTransform="rotate(90.000000 0.503869 -0.274908)">
		<stop offset="0.316279" stop-color="#F0F1EC" stop-opacity="0.592157"/>
		<stop offset="0.800003" stop-color="#FFFFFF" stop-opacity="0"/>
	</linearGradient>
	<path fill="url(#SVGID_Fill1_)" stroke-width="0.2" stroke-linejoin="round" d="M 73.499,4.92154L 15.3879,4.92154C 12.3539,4.92154 8.5797,5.76868 5.8125,9.56688L 5.87839,9.56688C 5.94427,45.1657 24.0444,45.2867 44.4215,45.2867C 64.7985,45.2867 82.1081,44.9423 82.4375,9.48311L 82.4375,9.51103C 80.988,7.44436 79.0773,5.32184 73.499,4.92154 Z "/>
	<linearGradient id="SVGID_Fill2_" gradientUnits="objectBoundingBox" x1="0.940186" y1="0.437275" x2="2.52462" y2="0.437275" gradientTransform="rotate(170.546570 0.940186 0.437275)">
		<stop offset="0.274419" stop-color="#F0F1EC" stop-opacity="0.501961"/>
		<stop offset="0.562791" stop-color="#FFFFFF" stop-opacity="0"/>
	</linearGradient>
	<path fill="url(#SVGID_Fill2_)" stroke-width="0.2" stroke-linejoin="round" d="M 73.2684,4.87499L 56.2809,6.73686C 53.247,6.73686 37.1301,4.94943 34.3629,8.74763L 26.281,20.6636C 30.6395,27.669 45.9588,18.5783 48.3307,16.8282C 71.9617,13.8119 81.8775,44.8957 82.2069,9.43656L 82.2069,9.46448C 80.7574,7.39782 78.8467,5.2753 73.2684,4.87499 Z "/>
	<path fill="none" stroke-width="6" stroke-linejoin="round" stroke="#FFD23F" stroke-opacity="1" d="M 13.7291,5.27099L 74.479,5.27099C 78.8973,5.27099 82.479,8.85271 82.479,13.271L 82.479,63.2708C 82.479,67.6891 78.8973,71.2708 74.479,71.2708L 13.7291,71.2708C 9.31086,71.2708 5.72914,67.6891 5.72914,63.2708L 5.72914,13.271C 5.72914,8.85271 9.31086,5.27099 13.7291,5.27099 Z "/>
	<linearGradient id="SVGID_Fill3_" gradientUnits="objectBoundingBox" x1="0.997261" y1="0.384958" x2="2.01805" y2="0.384958" gradientTransform="rotate(177.266235 0.997261 0.384958)">
		<stop offset="0" stop-color="#000000" stop-opacity="0.301961"/>
		<stop offset="0.418605" stop-color="#000000" stop-opacity="0.301961"/>
		<stop offset="0.655814" stop-color="#1E1E1E" stop-opacity="0.145098"/>
		<stop offset="0.902326" stop-color="#3A3A3A" stop-opacity="0"/>
	</linearGradient>
	<path fill="url(#SVGID_Fill3_)" stroke-width="0.2" stroke-linejoin="round" d="M 30.4112,61.2387L 9.93489,57.5088C 11.4117,66.1857 33.3775,70.2371 37.059,70.6846L 40.0451,62.8662L 30.4112,61.2387 Z "/>
	<linearGradient id="SVGID_Fill4_" gradientUnits="objectBoundingBox" x1="0.227681" y1="-0.765391" x2="3.01549" y2="-0.765391" gradientTransform="rotate(25.282543 0.227681 -0.765391)">
		<stop offset="0" stop-color="#000000" stop-opacity="0.301961"/>
		<stop offset="0.502326" stop-color="#000000" stop-opacity="0.301961"/>
		<stop offset="0.693023" stop-color="#1E1E1E" stop-opacity="0.145098"/>
		<stop offset="0.800003" stop-color="#3A3A3A" stop-opacity="0"/>
	</linearGradient>
	<path fill="url(#SVGID_Fill4_)" stroke-width="0.2" stroke-linejoin="round" d="M 37.0801,70.6867C 43.0687,71.2599 71.7752,73.6784 75.3098,69.1908L 61.9154,65.7004L 40.8147,62.8662L 37.0589,70.6846 Z "/>
	<path fill="#F6FFF6" fill-opacity="1" stroke-width="0.2" stroke-linejoin="round" d="M 16.6102,21.1226L 22.8355,20.1302L 28.3182,23.3108L 22.093,24.3031L 16.6102,21.1226 Z "/>
	<linearGradient id="SVGID_Fill5_" gradientUnits="objectBoundingBox" x1="0.421746" y1="0.148533" x2="1.14186" y2="0.148533" gradientTransform="rotate(83.569229 0.421746 0.148533)">
		<stop offset="0.0258621" stop-color="#000000" stop-opacity="1"/>
		<stop offset="0.25" stop-color="#393737" stop-opacity="1"/>
		<stop offset="0.508621" stop-color="#494646" stop-opacity="1"/>
		<stop offset="0.775862" stop-color="#434040" stop-opacity="1"/>
		<stop offset="1" stop-color="#181717" stop-opacity="1"/>
	</linearGradient>
	<path fill="url(#SVGID_Fill5_)" stroke-width="0.2" stroke-linejoin="round" d="M 38.8987,27.0475L 44.927,26.1296L 45.0053,26.1177L 45.0017,26.1182C 44.5723,26.1837 44.1505,26.2735 43.7377,26.3863C 41.8045,26.9148 40.0689,27.9461 38.67,29.3364C 38.4611,29.5441 38.2597,29.7599 38.0662,29.9831L 38.0669,29.983L 37.1393,31.2026L 36.509,32.2666L 36.0418,33.2635L 36.0421,33.2635L 35.6898,34.2261L 35.4271,35.1836L 35.2425,36.1621L 35.1351,37.1886C 35.4172,37.1848 35.1161,37.7531 35.1106,38.0363L 35.1145,38.3036L 35.2076,39.5429L 35.4796,41.0026L 35.4798,41.0026C 35.5463,41.2699 35.6214,41.5338 35.7048,41.7938C 35.8996,42.4011 36.1395,42.9876 36.4203,43.5492L 37.3379,45.0932C 37.8679,45.8532 38.4799,46.5486 39.1608,47.1657L 40.3272,48.0981L 41.356,48.7443L 42.3307,49.2303L 43.2703,49.5969L 44.1894,49.8672L 45.1422,50.0618L 46.1516,50.1769L 46.881,50.2039L 46.8814,50.2039L 46.881,50.2039L 42.6004,51.0856L 40.7741,51.1331C 40.5244,51.1319 40.2765,51.1228 40.0305,51.1054C 39.6927,51.0817 39.3587,51.0431 39.0291,50.9904C 38.3831,50.8869 37.7538,50.7287 37.1458,50.5207C 36.8292,50.4124 36.5183,50.2906 36.2135,50.1556C 35.884,50.0097 35.5621,49.8489 35.2485,49.6737C 34.8949,49.4763 34.552,49.2608 34.2209,49.0284L 34.2179,49.0265L 34.2178,49.0262C 33.8134,48.7422 33.4267,48.4331 33.0598,48.1011L 33.0539,48.0964L 33.0535,48.096C 32.5035,47.5976 31.9987,47.0482 31.5454,46.4539C 31.0764,45.8398 30.6629,45.1786 30.313,44.4787C 30.0521,43.9567 29.8265,43.4132 29.6396,42.8516C 29.5392,42.5503 29.45,42.2439 29.3725,41.9328L 29.3726,41.9324L 29.3722,41.9324L 29.371,41.9257C 29.2535,41.4526 29.1629,40.9688 29.101,40.476L 29.1003,40.4721L 29.1005,40.4718C 29.0497,40.066 29.0183,39.6541 29.0075,39.2372L 29.0072,39.234L 29.007,39.219C 29.0049,39.1349 29.0037,39.0506 29.0033,38.9658L 29.0033,38.9655C 29.002,38.6809 29.0103,38.3986 29.0278,38.1189C 29.0496,37.7725 29.0856,37.4301 29.1352,37.0923C 29.1838,36.7615 29.2456,36.4353 29.3198,36.1141L 29.3194,36.1141L 29.3215,36.1065C 29.3961,35.7846 29.4833,35.4677 29.5824,35.1564C 29.6868,34.8288 29.8045,34.5074 29.9348,34.193L 29.9344,34.193L 29.9377,34.186C 30.078,33.848 30.233,33.5181 30.4017,33.1969C 30.5943,32.8303 30.8047,32.4751 31.0322,32.1326L 31.0319,32.1326L 31.0337,32.1302C 31.3172,31.7036 31.6265,31.2967 31.9598,30.9122L 31.9599,30.9121C 33.7251,28.8746 36.1558,27.4655 38.8987,27.0475 Z M 46.8814,50.2039L 46.8814,50.2039 Z M 45.0053,26.1177L 45.0017,26.1182 Z "/>
	<path fill="#808080" fill-opacity="1" stroke-width="0.2" stroke-linejoin="round" d="M 68.6298,47.6945C 68.6042,47.7673 68.5768,47.8391 68.5463,47.9099C 68.5738,47.8381 68.6023,47.7663 68.6298,47.6945 Z "/>
	<path fill="#A5A5A5" fill-opacity="1" stroke-width="0.2" stroke-linejoin="round" d="M 73.5086,51.1151L 73.7187,50.7483L 73.5135,51.1181L 73.5086,51.1151 Z "/>
	<path fill="#B9B9B9" fill-opacity="1" stroke-width="0.2" stroke-linejoin="round" d="M 11.4236,36.3548L 17.5308,35.4246L 17.5564,40.9785L 11.4491,41.9088L 11.4236,36.3548 Z "/>
	<path fill="#888888" fill-opacity="1" stroke-width="0.2" stroke-linejoin="round" d="M 11.4236,36.3548L 17.5308,35.4246L 18.0178,35.4118L 11.9115,36.3411L 11.4236,36.3548 Z "/>
	<path fill="#000000" fill-opacity="1" stroke-width="0.2" stroke-linejoin="round" d="M 14.1569,51.774L 20.2641,50.8437L 23.0061,55.731L 16.8988,56.6612L 14.1569,51.774 Z "/>
	<path fill="#A5A5A5" fill-opacity="1" stroke-width="0.2" stroke-linejoin="round" d="M 13.8338,26.3826L 13.8377,26.3767L 14.0233,26.5045L 13.8338,26.3826 Z "/>
	<path fill="#9E9E9E" fill-opacity="1" stroke-width="0.2" stroke-linejoin="round" d="M 13.8376,26.3768L 19.9449,25.4465L 20.1304,25.5753L 14.0232,26.5046L 13.8376,26.3768 Z "/>
	<path fill="#888888" fill-opacity="1" stroke-width="0.2" stroke-linejoin="round" d="M 11.9111,36.3409L 18.0184,35.4116L 21.6537,35.3074L 15.5464,36.2376L 11.9111,36.3409 Z "/>
	<path fill="#000000" fill-opacity="1" stroke-width="0.2" stroke-linejoin="round" d="M 11.449,41.9087L 17.5563,40.9785L 23.6243,41.2135L 17.517,42.1427L 11.449,41.9087 Z "/>
	<path fill="#808080" fill-opacity="1" stroke-width="0.2" stroke-linejoin="round" d="M 18.9293,48.2112L 25.0366,47.2819L 20.0553,50.4709L 13.949,51.4012L 18.9293,48.2112 Z "/>
	<path fill="#808080" fill-opacity="1" stroke-width="0.2" stroke-linejoin="round" d="M 19.0875,48.6164L 25.1937,47.6862L 20.2636,50.8437L 14.1573,51.774L 19.0875,48.6164 Z "/>
	<path fill="#CBCBCB" fill-opacity="1" stroke-width="0.2" stroke-linejoin="round" d="M 18.9303,48.2141C 18.9912,48.3409 19.0353,48.4825 19.0874,48.6162L 14.1572,51.7738L 13.949,51.4011L 18.9303,48.2141 Z "/>
	<path fill="#000000" fill-opacity="1" stroke-width="0.2" stroke-linejoin="round" d="M 18.9293,48.2112C 18.2598,46.451 17.7827,44.5866 17.5196,42.6474L 11.4516,42.4124L 11.4486,41.9089L 17.5176,42.1429C 17.8013,44.2316 18.3314,46.2327 19.0854,48.1109L 18.9293,48.2112 Z "/>
	<path fill="#878787" fill-opacity="1" stroke-width="0.2" stroke-linejoin="round" d="M 15.5465,36.2376L 21.6538,35.3074C 21.7716,35.3044 21.8874,35.3005 22.0013,35.2975C 22.2212,35.2916 22.2742,35.2906 22.3262,35.2887C 22.6404,35.2798 22.7641,35.2759 22.878,35.2739C 22.93,35.272 22.9791,35.271 23.0262,35.269C 23.1381,35.2661 23.2373,35.2631 23.3197,35.2612C 23.3904,35.2592 23.4542,35.2543 23.5131,35.2464L 17.4069,36.1766C 17.347,36.1835 17.2832,36.1884 17.2135,36.1914C 17.13,36.1934 17.0309,36.1963 16.9189,36.1993C 16.8728,36.2003 16.8227,36.2012 16.7717,36.2032C 16.6568,36.2061 16.5331,36.2101 16.22,36.2189C 16.1669,36.2199 16.1149,36.2219 15.894,36.2278C 15.7811,36.2307 15.6653,36.2347 15.5465,36.2376 Z "/>
	<path fill="#858585" fill-opacity="1" stroke-width="0.2" stroke-linejoin="round" d="M 17.4064,36.1762L 23.5136,35.2459L 23.5451,35.242L 17.4378,36.1722L 17.4064,36.1762 Z "/>
	<path fill="#888888" fill-opacity="1" stroke-width="0.2" stroke-linejoin="round" d="M 15.5537,36.2372L 21.6609,35.308L 23.5969,35.2529L 17.4896,36.1822L 15.5537,36.2372 Z "/>
	<path fill="#909090" fill-opacity="1" stroke-width="0.2" stroke-linejoin="round" d="M 11.4217,35.8507L 17.5277,34.9204L 23.594,34.7405L 17.4877,35.6697L 11.4217,35.8507 Z "/>
	<path fill="#949494" fill-opacity="1" stroke-width="0.2" stroke-linejoin="round" d="M 16.7387,21.6574L 22.8456,20.7271L 20.1472,25.5859L 14.04,26.5161L 16.7387,21.6574 Z "/>
	<path fill="#8A8A8A" fill-opacity="1" stroke-width="0.2" stroke-linejoin="round" d="M 16.7387,21.6574L 22.8456,20.7271L 20.1488,25.5868L 14.0419,26.5171L 16.7387,21.6574 Z "/>
	<path fill="#878787" fill-opacity="1" stroke-width="0.2" stroke-linejoin="round" d="M 16.928,21.8269L 23.0352,20.8967C 22.6779,21.5496 20.9638,24.6354 20.5986,25.2794L 14.4923,26.2097C 14.8565,25.5656 16.5716,22.4798 16.928,21.8269 Z "/>
	<path fill="#808080" fill-opacity="1" stroke-width="0.2" stroke-linejoin="round" d="M 22.2508,53.7349L 28.358,52.8046L 23.0057,55.7311L 16.8984,56.6613L 22.2508,53.7349 Z "/>
	<path fill="#000000" fill-opacity="1" stroke-width="0.2" stroke-linejoin="round" d="M 22.2532,54.239L 28.3605,53.3098L 23.0081,56.2352L 16.9009,57.1655L 22.2532,54.239 Z "/>
	<path fill="#8C8C8C" fill-opacity="1" stroke-width="0.2" stroke-linejoin="round" d="M 18.857,30.1321L 24.9642,29.2018C 24.817,29.5932 24.6795,29.9885 24.5519,30.3897L 18.4456,31.32C 18.5723,30.9188 18.7097,30.5225 18.857,30.1321 Z "/>
	<path fill="#8F8F8F" fill-opacity="1" stroke-width="0.2" stroke-linejoin="round" d="M 18.4452,31.32L 24.5515,30.3897C 24.362,30.9856 24.1942,31.5914 24.0489,32.207L 17.9426,33.1372C 18.0869,32.5216 18.2557,31.9159 18.4452,31.32 Z "/>
	<path fill="#999999" fill-opacity="1" stroke-width="0.2" stroke-linejoin="round" d="M 19.0031,30.2209L 25.1104,29.2906C 24.917,29.7823 24.7403,30.2819 24.5793,30.7883L 18.472,31.7185C 18.634,31.2111 18.8107,30.7126 19.0031,30.2209 Z "/>
	<path fill="#9E9E9E" fill-opacity="1" stroke-width="0.2" stroke-linejoin="round" d="M 18.472,31.7184L 24.5793,30.7882C 24.3761,31.4254 24.1984,32.0744 24.0452,32.7342L 17.9389,33.6645C 18.0911,33.0047 18.2688,32.3556 18.472,31.7184 Z "/>
	<path fill="#A3A3A3" fill-opacity="1" stroke-width="0.2" stroke-linejoin="round" d="M 17.9385,33.6645L 24.0457,32.7342C 23.8926,33.3941 23.7669,34.0647 23.6658,34.7452L 17.5595,35.6754C 17.6596,34.995 17.7863,34.3243 17.9385,33.6645 Z "/>
	<path fill="#A8A8A8" fill-opacity="1" stroke-width="0.2" stroke-linejoin="round" d="M 17.5593,35.6754L 23.6666,34.7452C 23.6411,34.9143 23.6185,35.0825 23.5969,35.2526L 17.4896,36.1828C 17.5112,36.0127 17.5348,35.8436 17.5593,35.6754 Z "/>
	<path fill="#000000" fill-opacity="1" stroke-width="0.2" stroke-linejoin="round" d="M 19.0008,29.7167L 25.108,28.7865C 25.055,28.9202 25.004,29.0549 24.9539,29.1906L 18.8466,30.1199C 18.8977,29.9852 18.9478,29.8505 19.0008,29.7167 Z "/>
	<path fill="#000000" fill-opacity="1" stroke-width="0.2" stroke-linejoin="round" d="M 14.0418,26.517L 20.1491,25.5867L 25.1077,28.7866L 19.0005,29.7168L 14.0418,26.517 Z "/>
	<path fill="#969696" fill-opacity="1" stroke-width="0.2" stroke-linejoin="round" d="M 16.928,21.8269L 23.0352,20.8967C 23.747,21.29 27.7809,23.537 27.9929,23.655L 21.8866,24.5852C 21.6736,24.4672 17.6397,22.2193 16.928,21.8269 Z "/>
	<path fill="#9B9B9B" fill-opacity="1" stroke-width="0.2" stroke-linejoin="round" d="M 16.7387,21.6574L 22.8456,20.7271L 28.225,23.7096L 22.1175,24.6389L 16.7387,21.6574 Z "/>
	<path fill="#949694" fill-opacity="1" stroke-width="0.2" stroke-linejoin="round" d="M 16.7362,21.1537L 22.8435,20.2234L 28.2223,23.205L 22.1151,24.1352L 16.7362,21.1537 Z "/>
	<path fill="#828282" fill-opacity="1" stroke-width="0.2" stroke-linejoin="round" d="M 23.2809,22.694L 29.3479,21.811L 23.2809,22.694 Z "/>
	<path fill="#858585" fill-opacity="1" stroke-width="0.2" stroke-linejoin="round" d="M 23.2406,22.7406L 29.2841,21.8841L 23.2406,22.7406 Z "/>
	<path fill="#828282" fill-opacity="1" stroke-width="0.2" stroke-linejoin="round" d="M 23.1769,22.8146L 29.2282,21.9492L 23.1769,22.8146 Z "/>
	<path fill="#858585" fill-opacity="1" stroke-width="0.2" stroke-linejoin="round" d="M 23.1212,22.8789L 29.2275,21.9486C 29.201,21.9801 29.1745,22.0116 29.148,22.0421C 29.1087,22.0893 29.0695,22.1365 29.0302,22.1837C 28.99,22.2309 28.9497,22.2781 28.9104,22.3262C 28.8653,22.3813 28.8211,22.4374 28.7759,22.4924C 28.7435,22.5327 28.7111,22.5731 28.6787,22.6134C 28.6287,22.6763 28.5786,22.7402 28.5295,22.8042C 28.502,22.8386 28.4746,22.873 28.4471,22.9084C 28.3715,23.0057 28.2969,23.1051 28.2222,23.2054L 22.116,24.1346C 22.1896,24.0353 22.2652,23.936 22.3408,23.8377C 22.3673,23.8032 22.3948,23.7688 22.4223,23.7344C 22.4713,23.6705 22.5214,23.6066 22.5715,23.5436C 22.6039,23.5023 22.6363,23.463 22.6687,23.4227L 22.8041,23.2555C 22.8434,23.2083 22.8827,23.1611 22.9229,23.1139C 22.9622,23.0667 23.0015,23.0195 23.0407,22.9723C 23.0672,22.9408 23.0947,22.9104 23.1212,22.8789 Z "/>
	<path fill="#A5A5A5" fill-opacity="1" stroke-width="0.2" stroke-linejoin="round" d="M 23.431,14.2463L 29.5382,13.316L 29.7366,13.6966L 23.6293,14.6268L 23.431,14.2463 Z "/>
	<path fill="#828282" fill-opacity="1" stroke-width="0.2" stroke-linejoin="round" d="M 26.1312,19.948L 32.2267,19.0246C 32.1442,19.0915 32.0627,19.1594 31.943,19.2587C 31.8625,19.3265 31.7829,19.3954 31.7034,19.4632L 31.6651,19.4967C 31.5876,19.5645 31.51,19.6324 31.3873,19.7415C 31.3127,19.8084 31.2381,19.8762 31.1154,19.9893C 31.0427,20.0562 30.972,20.123 30.8425,20.245C 30.7747,20.3109 30.707,20.3758 30.6392,20.4417L 30.5764,20.5036C 30.5106,20.5675 30.4468,20.6324 30.3123,20.7681C 30.2505,20.8311 30.1886,20.894 30.0502,21.0385C 29.9933,21.0995 29.9354,21.1605 29.8774,21.2215C 29.849,21.2529 29.8205,21.2834 29.792,21.3149C 29.738,21.3729 29.684,21.4319 29.631,21.4909C 29.5986,21.5263 29.5672,21.5617 29.5358,21.5971C 29.4857,21.6531 29.4366,21.7082 29.3875,21.7643L 23.2813,22.6935C 23.3294,22.6385 23.3794,22.5824 23.4295,22.5273C 23.4609,22.4919 23.4923,22.4565 23.5237,22.4211C 23.5768,22.3621 23.6317,22.3031 23.6857,22.2441L 23.7711,22.1517C 23.8281,22.0907 23.886,22.0298 24.0215,21.8872C 24.0823,21.8242 24.1442,21.7613 24.2748,21.6276C 24.3396,21.5627 24.4043,21.4978 24.533,21.3709C 24.5997,21.305 24.6674,21.2401 24.7941,21.1202C 24.8648,21.0533 24.9364,20.9855 25.0572,20.8743C 25.1308,20.8065 25.2054,20.7386 25.3262,20.6305C 25.4028,20.5626 25.4803,20.4948 25.5971,20.3935C 25.6757,20.3246 25.7562,20.2568 25.874,20.1575C 25.9555,20.0896 26.0369,20.0218 26.1312,19.948 Z "/>
	<path fill="#858585" fill-opacity="1" stroke-width="0.2" stroke-linejoin="round" d="M 26.3166,20.3009L 32.4239,19.3717C 31.2851,20.2783 30.2357,21.2922 29.2824,22.3955L 23.1751,23.3257C 24.1284,22.2224 25.1778,21.2076 26.3166,20.3009 Z "/>
	<path fill="#8A8A8A" fill-opacity="1" stroke-width="0.2" stroke-linejoin="round" d="M 23.1754,23.3254L 29.2827,22.3962C 28.9155,22.821 28.5631,23.2586 28.2244,23.7099L 22.1181,24.6392C 22.4558,24.1888 22.8083,23.7502 23.1754,23.3254 Z "/>
	<path fill="#CACACA" fill-opacity="1" stroke-width="0.2" stroke-linejoin="round" d="M 26.1335,19.948L 32.2408,19.0178L 32.4234,19.3718L 26.3171,20.301L 26.1335,19.948 Z "/>
	<path fill="#000000" fill-opacity="1" stroke-width="0.2" stroke-linejoin="round" d="M 23.6313,14.6318L 29.7388,13.7026L 32.4216,18.8671L 26.3144,19.7964L 23.6313,14.6318 Z "/>
	<path fill="#000000" fill-opacity="1" stroke-width="0.2" stroke-linejoin="round" d="M 26.3143,19.7968L 32.4216,18.8665C 32.3607,18.9157 32.2998,18.9658 32.239,19.015L 26.1317,19.9443C 26.1925,19.8961 26.2534,19.845 26.3143,19.7968 Z "/>
	<path fill="#808080" fill-opacity="1" stroke-width="0.2" stroke-linejoin="round" d="M 28.4857,11.7427L 34.592,10.8125L 29.7364,13.6967L 23.6292,14.6269L 28.4857,11.7427 Z "/>
	<path fill="#808080" fill-opacity="1" stroke-width="0.2" stroke-linejoin="round" d="M 28.4857,11.7427L 34.592,10.8125L 29.7384,13.7026L 23.6311,14.6318L 28.4857,11.7427 Z "/>
	<path fill="#A1A1A1" fill-opacity="1" stroke-width="0.2" stroke-linejoin="round" d="M 24.0823,14.435L 30.1896,13.5057C 30.5686,14.2412 32.7342,18.4106 32.8481,18.6299L 26.7408,19.5602C 26.627,19.3409 24.4623,15.1705 24.0823,14.435 Z "/>
	<path fill="#828282" fill-opacity="1" stroke-width="0.2" stroke-linejoin="round" d="M 28.3233,11.919L 34.4305,10.9887C 33.7993,11.3663 30.8208,13.1363 30.1895,13.5051L 24.0822,14.4353C 24.7135,14.0666 27.692,12.2956 28.3233,11.919 Z "/>
	<path fill="#A1A1A1" fill-opacity="1" stroke-width="0.2" stroke-linejoin="round" d="M 28.3233,11.919L 34.4305,10.9887C 34.8615,11.6987 37.2864,15.7098 37.414,15.9212L 31.3077,16.8514C 31.1791,16.64 28.7542,12.628 28.3233,11.919 Z "/>
	<path fill="#A1A1A1" fill-opacity="1" stroke-width="0.2" stroke-linejoin="round" d="M 28.3233,11.919L 34.4305,10.9887C 34.8615,11.6987 37.2864,15.7098 37.414,15.9212L 31.3077,16.8514C 31.1791,16.64 28.7542,12.628 28.3233,11.919 Z "/>
	<path fill="#A5A5A5" fill-opacity="1" stroke-width="0.2" stroke-linejoin="round" d="M 28.4857,11.7427L 34.592,10.8125L 37.8258,16.1531L 31.7185,17.0833L 28.4857,11.7427 Z "/>
	<path fill="#949694" fill-opacity="1" stroke-width="0.2" stroke-linejoin="round" d="M 28.4833,11.2386L 34.5896,10.3083L 37.8234,15.6489L 31.7161,16.5791L 28.4833,11.2386 Z "/>
	<path fill="#858585" fill-opacity="1" stroke-width="0.2" stroke-linejoin="round" d="M 37.0201,15.595L 43.1274,14.6657C 41.5321,14.9076 39.9879,15.3187 38.5133,15.8792C 38.2826,15.9667 38.0529,16.0582 37.8261,16.1536L 31.7188,17.0828C 31.9456,16.9884 32.1753,16.897 32.406,16.8085C 33.8816,16.2489 35.4248,15.8379 37.0201,15.595 Z "/>
	<path fill="#828282" fill-opacity="1" stroke-width="0.2" stroke-linejoin="round" d="M 37.1017,15.5844L 43.209,14.6541C 41.4163,14.9275 39.6709,15.4251 38.0137,16.1183C 37.9754,16.1351 37.9362,16.1469 37.8979,16.1528L 31.7906,17.082C 31.8289,17.0761 31.8682,17.0653 31.9064,17.0486C 33.5636,16.3544 35.3091,15.8578 37.1017,15.5844 Z "/>
	<path fill="#858585" fill-opacity="1" stroke-width="0.2" stroke-linejoin="round" d="M 37.0201,15.595L 43.1274,14.6657C 43.2795,14.6421 43.4327,14.6205 43.5858,14.5999L 37.4796,15.5301C 37.3264,15.5508 37.1723,15.5724 37.0201,15.595 Z "/>
	<path fill="#858585" fill-opacity="1" stroke-width="0.2" stroke-linejoin="round" d="M 37.0201,15.595L 43.1274,14.6657C 43.2795,14.6421 43.4327,14.6205 43.5858,14.5999L 37.4796,15.5301C 37.3264,15.5508 37.1723,15.5724 37.0201,15.595 Z "/>
	<path fill="#858585" fill-opacity="1" stroke-width="0.2" stroke-linejoin="round" d="M 37.0201,15.595L 43.1274,14.6657C 43.2795,14.6421 43.4327,14.6205 43.5858,14.5999L 37.4796,15.5301C 37.3264,15.5508 37.1723,15.5724 37.0201,15.595 Z "/>
	<path fill="#858585" fill-opacity="1" stroke-width="0.2" stroke-linejoin="round" d="M 37.0815,15.5872L 43.1887,14.657C 43.3439,14.6334 43.499,14.6118 43.6541,14.5911L 37.5478,15.5214C 37.3917,15.542 37.2366,15.5636 37.0815,15.5872 Z "/>
	<path fill="#858585" fill-opacity="1" stroke-width="0.2" stroke-linejoin="round" d="M 37.0815,15.5872L 43.1887,14.657C 43.3439,14.6334 43.499,14.6118 43.6541,14.5911L 37.5478,15.5214C 37.3917,15.542 37.2366,15.5636 37.0815,15.5872 Z "/>
	<path fill="#8A8A8A" fill-opacity="1" stroke-width="0.2" stroke-linejoin="round" d="M 37.1026,15.0711L 43.2098,14.1408C 43.3345,14.1222 43.4592,14.1044 43.5839,14.0877L 37.4766,15.017C 37.3519,15.0337 37.2273,15.0514 37.1026,15.0711 Z "/>
	<path fill="#B7B7B7" fill-opacity="1" stroke-width="0.2" stroke-linejoin="round" d="M 37.6558,9.25171L 43.763,8.32244L 43.5863,14.6002L 37.4791,15.5304L 37.6558,9.25171 Z "/>
	<path fill="#969696" fill-opacity="1" stroke-width="0.2" stroke-linejoin="round" d="M 38.1265,9.25455L 44.2338,8.32431C 44.2122,9.15524 44.0787,13.8596 44.0708,14.1261L 37.9645,15.0376C 37.9714,14.7898 38.1049,10.0855 38.1265,9.25455 Z "/>
	<path fill="#949494" fill-opacity="1" stroke-width="0.2" stroke-linejoin="round" d="M 37.9636,15.0562L 44.0659,14.1712L 37.9636,15.0562 Z "/>
	<path fill="#919191" fill-opacity="1" stroke-width="0.2" stroke-linejoin="round" d="M 37.9587,15.1014L 44.0582,14.2144L 37.9587,15.1014 Z "/>
	<path fill="#8F8F8F" fill-opacity="1" stroke-width="0.2" stroke-linejoin="round" d="M 37.9511,15.1441L 44.0466,14.2552L 37.9511,15.1441 Z "/>
	<path fill="#8C8C8C" fill-opacity="1" stroke-width="0.2" stroke-linejoin="round" d="M 37.9396,15.1854L 44.0321,14.2965L 37.9396,15.1854 Z "/>
	<path fill="#8A8A8A" fill-opacity="1" stroke-width="0.2" stroke-linejoin="round" d="M 37.9247,15.2262L 44.0123,14.3383L 37.9247,15.2262 Z "/>
	<path fill="#878787" fill-opacity="1" stroke-width="0.2" stroke-linejoin="round" d="M 37.905,15.268L 43.9858,14.3819L 37.905,15.268 Z "/>
	<path fill="#858585" fill-opacity="1" stroke-width="0.2" stroke-linejoin="round" d="M 37.8791,15.3117L 43.9481,14.4316L 37.8791,15.3117 Z "/>
	<path fill="#828282" fill-opacity="1" stroke-width="0.2" stroke-linejoin="round" d="M 37.8418,15.3612L 43.9481,14.4319C 43.8755,14.5165 43.7734,14.5745 43.6546,14.5912L 37.5473,15.5215C 37.6661,15.5047 37.7682,15.4457 37.8418,15.3612 Z "/>
	<path fill="#969696" fill-opacity="1" stroke-width="0.2" stroke-linejoin="round" d="M 38.1265,9.25455L 44.2338,8.32431C 44.2122,9.15524 44.0787,13.8596 44.0708,14.1261L 37.9645,15.0376C 37.9714,14.7898 38.1049,10.0855 38.1265,9.25455 Z "/>
	<path fill="#898989" fill-opacity="1" stroke-width="0.2" stroke-linejoin="round" d="M 37.6558,9.25171L 43.763,8.32244L 44.2333,8.32441L 38.126,9.25465L 37.6558,9.25171 Z "/>
	<path fill="#898989" fill-opacity="1" stroke-width="0.2" stroke-linejoin="round" d="M 38.1265,9.25455L 44.2338,8.32431L 49.1453,8.34987L 43.038,9.27914L 38.1265,9.25455 Z "/>
	<path fill="#999999" fill-opacity="1" stroke-width="0.2" stroke-linejoin="round" d="M 43.0384,9.27953L 49.1457,8.35026C 49.1742,9.1812 49.3509,13.8875 49.3637,14.1786L 43.2534,15.0646C 43.2436,14.8168 43.0679,10.1114 43.0384,9.27953 Z "/>
	<path fill="#9C9C9C" fill-opacity="1" stroke-width="0.2" stroke-linejoin="round" d="M 43.2566,15.109L 49.3746,14.2407L 43.2566,15.109 Z "/>
	<path fill="#9E9E9E" fill-opacity="1" stroke-width="0.2" stroke-linejoin="round" d="M 43.2681,15.171L 49.3753,14.2407C 49.3842,14.2791 49.3979,14.3145 49.4156,14.3489L 43.3083,15.2792C 43.2906,15.2447 43.2779,15.2084 43.2681,15.171 Z "/>
	<path fill="#A1A1A1" fill-opacity="1" stroke-width="0.2" stroke-linejoin="round" d="M 43.3083,15.2791L 49.4529,14.4117L 43.3083,15.2791 Z "/>
	<path fill="#9E9E9E" fill-opacity="1" stroke-width="0.2" stroke-linejoin="round" d="M 43.3457,15.3414L 49.453,14.4112L 49.5286,14.4987L 43.4223,15.4279L 43.3457,15.3414 Z "/>
	<path fill="#9C9C9C" fill-opacity="1" stroke-width="0.2" stroke-linejoin="round" d="M 43.4219,15.4283L 49.5783,14.5384L 43.4219,15.4283 Z "/>
	<path fill="#999999" fill-opacity="1" stroke-width="0.2" stroke-linejoin="round" d="M 43.4713,15.4678L 49.6217,14.566L 43.4713,15.4678 Z "/>
	<path fill="#969696" fill-opacity="1" stroke-width="0.2" stroke-linejoin="round" d="M 43.515,15.4956L 49.6625,14.586L 43.515,15.4956 Z "/>
	<path fill="#949494" fill-opacity="1" stroke-width="0.2" stroke-linejoin="round" d="M 43.5562,15.5158L 49.7037,14.6012L 43.5562,15.5158 Z "/>
	<path fill="#919191" fill-opacity="1" stroke-width="0.2" stroke-linejoin="round" d="M 43.5965,15.5316L 49.744,14.6141L 43.5965,15.5316 Z "/>
	<path fill="#8F8F8F" fill-opacity="1" stroke-width="0.2" stroke-linejoin="round" d="M 43.6372,15.5436L 49.7857,14.6222L 43.6372,15.5436 Z "/>
	<path fill="#8C8C8C" fill-opacity="1" stroke-width="0.2" stroke-linejoin="round" d="M 43.6789,15.5522L 49.7901,14.623C 49.9246,14.6417 50.0591,14.6623 50.1926,14.6839L 44.0863,15.6132C 43.9518,15.5926 43.8183,15.5719 43.6789,15.5522 Z "/>
	<path fill="#8F8F8F" fill-opacity="1" stroke-width="0.2" stroke-linejoin="round" d="M 44.0858,15.6137L 50.1931,14.6844C 50.8185,14.7837 51.4389,14.9116 52.0535,15.064L 45.9472,15.9942C 45.3326,15.8408 44.7122,15.714 44.0858,15.6137 Z "/>
	<path fill="#919191" fill-opacity="1" stroke-width="0.2" stroke-linejoin="round" d="M 45.9467,15.9944L 52.054,15.0642C 52.6636,15.2166 53.2674,15.3946 53.8623,15.5982L 47.755,16.5284C 47.1601,16.3249 46.5563,16.1469 45.9467,15.9944 Z "/>
	<path fill="#949494" fill-opacity="1" stroke-width="0.2" stroke-linejoin="round" d="M 47.7553,16.5284L 53.8626,15.5982C 54.3966,15.7811 54.9248,15.9846 55.4451,16.2088L 49.3388,17.1391C 48.8185,16.9149 48.2894,16.7113 47.7553,16.5284 Z "/>
	<path fill="#898989" fill-opacity="1" stroke-width="0.2" stroke-linejoin="round" d="M 43.0384,9.27953L 49.1457,8.35026L 49.6248,8.35224L 43.5175,9.28249L 43.0384,9.27953 Z "/>
	<path fill="#9D9D9D" fill-opacity="1" stroke-width="0.2" stroke-linejoin="round" d="M 43.5178,9.28239L 49.6251,8.35213L 49.8499,14.623L 43.7426,15.5532L 43.5178,9.28239 Z "/>
	<path fill="#8C8C8C" fill-opacity="1" stroke-width="0.2" stroke-linejoin="round" d="M 43.7431,15.5532L 49.8504,14.623C 49.9652,14.6397 50.0801,14.6574 50.195,14.6761L 44.0877,15.6063C 43.9728,15.5876 43.858,15.5699 43.7431,15.5532 Z "/>
	<path fill="#8F8F8F" fill-opacity="1" stroke-width="0.2" stroke-linejoin="round" d="M 44.0878,15.606L 50.1951,14.6758C 50.8558,14.782 51.5066,14.9147 52.1467,15.075L 46.0404,16.0053C 45.3994,15.845 44.7485,15.7112 44.0878,15.606 Z "/>
	<path fill="#919191" fill-opacity="1" stroke-width="0.2" stroke-linejoin="round" d="M 46.0401,16.0051L 52.1474,15.0748C 52.7836,15.2341 53.4089,15.419 54.0235,15.6294L 47.9162,16.5587C 47.3026,16.3492 46.6763,16.1644 46.0401,16.0051 Z "/>
	<path fill="#949494" fill-opacity="1" stroke-width="0.2" stroke-linejoin="round" d="M 47.9164,16.5586L 54.0237,15.6293C 54.5666,15.8152 55.1006,16.0207 55.6249,16.2449L 49.5186,17.1752C 48.9943,16.95 48.4593,16.7444 47.9164,16.5586 Z "/>
	<path fill="#999999" fill-opacity="1" stroke-width="0.2" stroke-linejoin="round" d="M 43.7408,15.0496L 49.848,14.1193C 49.9629,14.136 50.0778,14.1537 50.1926,14.1724L 44.0853,15.1017C 43.9705,15.084 43.8556,15.0663 43.7408,15.0496 Z "/>
	<path fill="#9E9E9E" fill-opacity="1" stroke-width="0.2" stroke-linejoin="round" d="M 44.0853,15.1019L 50.1926,14.1726C 50.8533,14.2778 51.5042,14.4116 52.1443,14.5709L 46.038,15.5011C 45.3969,15.3418 44.746,15.2081 44.0853,15.1019 Z "/>
	<path fill="#A3A3A3" fill-opacity="1" stroke-width="0.2" stroke-linejoin="round" d="M 46.0378,15.5013L 52.1451,14.5711C 52.7812,14.7304 53.4066,14.9152 54.0211,15.1247L 47.9138,16.0549C 47.3003,15.8455 46.6739,15.6596 46.0378,15.5013 Z "/>
	<path fill="#A8A8A8" fill-opacity="1" stroke-width="0.2" stroke-linejoin="round" d="M 47.9139,16.0549L 54.0212,15.1247C 54.5641,15.3115 55.0982,15.517 55.6234,15.7412L 49.5161,16.6705C 48.9919,16.4463 48.4578,16.2408 47.9139,16.0549 Z "/>
	<path fill="#929292" fill-opacity="1" stroke-width="0.2" stroke-linejoin="round" d="M 52.7032,11.8675L 58.8104,10.9383L 55.6248,16.2454L 49.5185,17.1747L 52.7032,11.8675 Z "/>
	<path fill="#878787" fill-opacity="1" stroke-width="0.2" stroke-linejoin="round" d="M 52.8667,12.0457L 58.974,11.1155C 58.5577,11.8205 56.1692,15.808 56.0426,16.0175L 49.9363,16.9477C 50.062,16.7373 52.4505,12.7508 52.8667,12.0457 Z "/>
	<path fill="#8A8A8A" fill-opacity="1" stroke-width="0.2" stroke-linejoin="round" d="M 57.1396,14.6059L 63.2469,13.6756C 62.865,14.4072 60.7376,18.555 60.6257,18.7733L 54.5185,19.7036C 54.6304,19.4852 56.7578,15.3375 57.1396,14.6059 Z "/>
	<path fill="#999999" fill-opacity="1" stroke-width="0.2" stroke-linejoin="round" d="M 52.8667,12.0457L 58.974,11.1155C 59.6082,11.499 62.6112,13.3005 63.2464,13.6761L 57.1401,14.6063C 56.504,14.2307 53.5019,12.4292 52.8667,12.0457 Z "/>
	<path fill="#9C9C9C" fill-opacity="1" stroke-width="0.2" stroke-linejoin="round" d="M 52.7032,11.8675L 58.8104,10.9383L 63.6984,13.8706L 57.5911,14.8008L 52.7032,11.8675 Z "/>
	<path fill="#959595" fill-opacity="1" stroke-width="0.2" stroke-linejoin="round" d="M 54.5186,19.7036L 60.6258,18.7734L 60.5758,19.0124L 54.4685,19.9416L 54.5186,19.7036 Z "/>
	<path fill="#969696" fill-opacity="1" stroke-width="0.2" stroke-linejoin="round" d="M 54.4682,19.9418L 60.5755,19.0126L 60.5755,19.0234L 54.4682,19.9418 Z "/>
	<path fill="#999999" fill-opacity="1" stroke-width="0.2" stroke-linejoin="round" d="M 54.4687,19.9538L 60.5799,19.0777L 54.4687,19.9538 Z "/>
	<path fill="#9C9C9C" fill-opacity="1" stroke-width="0.2" stroke-linejoin="round" d="M 54.4725,20.0081L 60.5906,19.1418L 54.4725,20.0081 Z "/>
	<path fill="#9E9E9E" fill-opacity="1" stroke-width="0.2" stroke-linejoin="round" d="M 54.4845,20.0719L 60.5908,19.1417C 60.6006,19.178 60.6134,19.2134 60.63,19.2469L 54.5228,20.1761C 54.5061,20.1437 54.4933,20.1083 54.4845,20.0719 Z "/>
	<path fill="#A1A1A1" fill-opacity="1" stroke-width="0.2" stroke-linejoin="round" d="M 54.5229,20.1765L 60.6655,19.3082L 54.5229,20.1765 Z "/>
	<path fill="#9E9E9E" fill-opacity="1" stroke-width="0.2" stroke-linejoin="round" d="M 54.5593,20.2376L 60.7353,19.385L 54.5593,20.2376 Z "/>
	<path fill="#9C9C9C" fill-opacity="1" stroke-width="0.2" stroke-linejoin="round" d="M 54.6278,20.3149L 60.7655,19.4112L 54.6278,20.3149 Z "/>
	<path fill="#8B8B8B" fill-opacity="1" stroke-width="0.2" stroke-linejoin="round" d="M 57.5912,14.8008L 63.6985,13.8705L 61.0636,19.0144L 54.9563,19.9447L 57.5912,14.8008 Z "/>
	<path fill="#000000" fill-opacity="1" stroke-width="0.2" stroke-linejoin="round" d="M 57.5912,14.8008L 63.6985,13.8705L 63.8988,13.9885L 57.7915,14.9188L 57.5912,14.8008 Z "/>
	<path fill="#CBCBCB" fill-opacity="1" stroke-width="0.2" stroke-linejoin="round" d="M 43.5155,8.77773L 43.7403,15.0496C 45.7616,15.3426 47.6986,15.8923 49.5157,16.6711L 52.7004,11.363L 57.7857,14.4212L 57.5953,14.8008L 52.7034,11.8674L 49.5187,17.1756C 47.7005,16.3958 45.7646,15.847 43.7432,15.553L 43.5174,9.28219L 37.6556,9.25171L 37.4799,15.5304C 35.7206,15.7605 34.0222,16.1942 32.4063,16.8088C 32.1756,16.8973 31.9459,16.9887 31.7191,17.0831L 28.4853,11.7425L 23.6298,14.6267L 23.4315,14.2461L 28.4834,11.2381L 31.7162,16.5796C 33.5353,15.8195 35.4673,15.2905 37.4769,15.0171L 37.6536,8.74724L 43.5155,8.77773 Z "/>
	<path fill="#A5A5A5" fill-opacity="1" stroke-width="0.2" stroke-linejoin="round" d="M 22.118,24.6391C 23.3344,23.0185 24.7392,21.5573 26.3168,20.3005L 26.1352,19.9465C 26.1922,19.8954 26.253,19.8453 26.3139,19.7971L 23.6318,14.6315L 28.4854,11.7424L 31.7192,17.083C 31.946,16.9886 32.1757,16.8972 32.4054,16.8087C 34.0223,16.1951 35.7207,15.7604 37.479,15.5303L 37.6557,9.25161L 38.1269,9.25455C 38.1053,10.0855 37.9718,14.7898 37.9649,15.0376C 37.9571,15.2845 37.7872,15.487 37.5477,15.5215C 35.598,15.7761 33.7003,16.2973 31.9067,17.0486C 31.8459,17.0752 31.7821,17.0879 31.7202,17.0879C 31.5563,17.087 31.4012,16.9984 31.3069,16.8509C 31.1793,16.6405 28.7544,12.6284 28.3235,11.9185C 27.6922,12.2961 24.7137,14.0671 24.0824,14.4349C 24.4624,15.1704 26.6271,19.3408 26.7409,19.5601L 26.8018,19.799C 26.8028,19.9495 26.735,20.0999 26.6163,20.1963C 25.073,21.4265 23.6927,22.8523 22.5029,24.4464C 22.4066,24.5742 22.2623,24.644 22.1141,24.643C 22.0365,24.643 21.959,24.6243 21.8863,24.585C 21.6743,24.467 17.6394,22.22 16.9277,21.8267C 16.5713,22.4797 14.8572,25.5654 14.492,26.2095C 15.1783,26.655 19.0511,29.1615 19.2553,29.2933C 19.4095,29.3916 19.487,29.5509 19.488,29.7279L 19.4546,29.9138C 18.7272,31.7763 18.2226,33.7361 17.9752,35.7431C 17.9428,35.9899 17.7464,36.1748 17.5069,36.1826C 17.4627,36.1836 16.6243,36.2072 15.5533,36.2367L 17.4902,36.1826C 17.7543,34.097 18.2667,32.1008 19.003,30.2206L 18.8469,30.1203L 18.8842,30.021C 18.9225,29.9197 18.9608,29.8174 19.0011,29.7171L 14.0414,26.5173L 16.7392,21.6576L 22.118,24.6391 Z "/>
	<path fill="#8C8C8C" fill-opacity="1" stroke-width="0.2" stroke-linejoin="round" d="M 19.4547,29.9136L 25.562,28.9843C 25.3715,29.4711 25.1968,29.9647 25.0378,30.4643L 18.9305,31.3935C 19.0895,30.895 19.2643,30.4013 19.4547,29.9136 Z "/>
	<path fill="#8F8F8F" fill-opacity="1" stroke-width="0.2" stroke-linejoin="round" d="M 18.9303,31.3939L 25.0376,30.4647C 24.8383,31.0911 24.6635,31.7263 24.5143,32.3694L 18.408,33.2987C 18.5563,32.6565 18.731,32.0203 18.9303,31.3939 Z "/>
	<path fill="#919191" fill-opacity="1" stroke-width="0.2" stroke-linejoin="round" d="M 18.4078,33.2992L 24.5151,32.3689C 24.3698,32.9963 24.25,33.6296 24.1558,34.2687L 18.0495,35.199C 18.1428,34.5598 18.2635,33.9256 18.4078,33.2992 Z "/>
	<path fill="#949494" fill-opacity="1" stroke-width="0.2" stroke-linejoin="round" d="M 18.0492,35.1986L 24.1555,34.2684C 24.129,34.4493 24.1044,34.6312 24.0819,34.821L 17.9756,35.7424C 17.9981,35.5615 18.0227,35.3795 18.0492,35.1986 Z "/>
	<path fill="#000000" fill-opacity="1" stroke-width="0.2" stroke-linejoin="round" d="M 22.2508,53.7349L 28.358,52.8046C 29.3034,54.0584 30.3578,55.2197 31.5162,56.267L 25.4089,57.1973C 24.2515,56.149 23.1961,54.9877 22.2508,53.7349 Z "/>
	<path fill="#000000" fill-opacity="1" stroke-width="0.2" stroke-linejoin="round" d="M 25.4092,57.1968L 31.5165,56.2675C 31.867,56.5841 32.2273,56.89 32.5964,57.1869L 26.4901,58.1172C 26.121,57.8212 25.7597,57.5134 25.4092,57.1968 Z "/>
	<path fill="#9E9E9E" fill-opacity="1" stroke-width="0.2" stroke-linejoin="round" d="M 23.3538,52.958L 29.4611,52.0278C 30.4281,53.4114 31.5433,54.6779 32.7832,55.8009L 26.6769,56.7312C 25.437,55.6072 24.3208,54.3406 23.3538,52.958 Z "/>
	<path fill="#8B8B8B" fill-opacity="1" stroke-width="0.2" stroke-linejoin="round" d="M 26.308,58.4711L 32.4153,57.5408L 29.7646,62.7084L 23.6574,63.6376L 26.308,58.4711 Z "/>
	<path fill="#969696" fill-opacity="1" stroke-width="0.2" stroke-linejoin="round" d="M 26.4921,58.621L 32.5993,57.6907L 29.9631,62.8277L 23.8562,63.758L 26.4921,58.621 Z "/>
	<path fill="#000000" fill-opacity="1" stroke-width="0.2" stroke-linejoin="round" d="M 26.4897,58.1168L 32.597,57.1875L 32.4154,57.5405L 26.3081,58.4708L 26.4897,58.1168 Z "/>
	<path fill="#9E9E9E" fill-opacity="1" stroke-width="0.2" stroke-linejoin="round" d="M 23.3538,52.958L 29.4611,52.0278C 30.4281,53.4114 31.5433,54.6779 32.7832,55.8009L 26.6769,56.7312C 25.437,55.6072 24.3208,54.3406 23.3538,52.958 Z "/>
	<path fill="#9C9C9C" fill-opacity="1" stroke-width="0.2" stroke-linejoin="round" d="M 26.6766,56.7311L 32.7829,55.8008C 33.4583,56.4124 34.1691,56.9808 34.9132,57.503L 28.806,58.4332C 28.0618,57.9111 27.3511,57.3417 26.6766,56.7311 Z "/>
	<path fill="#9C9C9C" fill-opacity="1" stroke-width="0.2" stroke-linejoin="round" d="M 26.6766,56.7311L 32.7829,55.8008C 33.4583,56.4124 34.1691,56.9808 34.9132,57.503L 28.806,58.4332C 28.0618,57.9111 27.3511,57.3417 26.6766,56.7311 Z "/>
	<path fill="#000000" fill-opacity="1" stroke-width="0.2" stroke-linejoin="round" d="M 23.8542,63.7624L 29.9615,62.8331L 34.8435,65.7675L 28.7373,66.6967L 23.8542,63.7624 Z "/>
	<path fill="#898989" fill-opacity="1" stroke-width="0.2" stroke-linejoin="round" d="M 31.9218,61.3818L 38.029,60.4516L 34.8443,65.7676L 28.7371,66.6968L 31.9218,61.3818 Z "/>
	<path fill="#1F1F1F" fill-opacity="1" stroke-width="0.2" stroke-linejoin="round" d="M 31.9241,61.8946L 38.0314,60.9654L 34.8467,66.2725L 28.7394,67.2018L 31.9241,61.8946 Z "/>
	<path fill="#000000" fill-opacity="1" stroke-width="0.2" stroke-linejoin="round" d="M 31.9218,61.3818L 38.029,60.4516C 38.5641,60.6817 39.1079,60.8921 39.6606,61.0809L 33.5534,62.0121C 33.0007,61.8224 32.4568,61.6119 31.9218,61.3818 Z "/>
	<path fill="#000000" fill-opacity="1" stroke-width="0.2" stroke-linejoin="round" d="M 33.5535,62.0117L 39.6607,61.0815C 40.2625,61.288 40.8751,61.468 41.4975,61.6233L 35.3903,62.5536C 34.7688,62.3992 34.1563,62.2173 33.5535,62.0117 Z "/>
	<path fill="#000000" fill-opacity="1" stroke-width="0.2" stroke-linejoin="round" d="M 35.3904,62.5534L 41.4976,61.6241C 42.1195,61.7795 42.7503,61.9083 43.3894,62.0106L 37.2831,62.9408C 36.643,62.8386 36.0128,62.7087 35.3904,62.5534 Z "/>
	<path fill="#000000" fill-opacity="1" stroke-width="0.2" stroke-linejoin="round" d="M 37.2828,62.9403L 43.3901,62.0111C 43.5275,62.0327 43.665,62.0543 43.8034,62.073L 37.6961,63.0023C 37.5587,62.9836 37.4203,62.962 37.2828,62.9403 Z "/>
	<path fill="#9C9C9C" fill-opacity="1" stroke-width="0.2" stroke-linejoin="round" d="M 26.6766,56.7311L 32.7829,55.8008C 33.4583,56.4124 34.1691,56.9808 34.9132,57.503L 28.806,58.4332C 28.0618,57.9111 27.3511,57.3417 26.6766,56.7311 Z "/>
	<path fill="#999999" fill-opacity="1" stroke-width="0.2" stroke-linejoin="round" d="M 28.806,58.4336L 34.9132,57.5034C 35.5209,57.9301 36.1502,58.3264 36.8001,58.6893L 30.6927,59.6186C 30.0439,59.2557 29.4146,58.8604 28.806,58.4336 Z "/>
	<path fill="#969696" fill-opacity="1" stroke-width="0.2" stroke-linejoin="round" d="M 30.6931,59.6187L 36.8004,58.6894C 37.3747,59.01 37.9647,59.305 38.5675,59.5715L 32.4612,60.5007C 31.8575,60.2342 31.2674,59.9392 30.6931,59.6187 Z "/>
	<path fill="#949494" fill-opacity="1" stroke-width="0.2" stroke-linejoin="round" d="M 32.461,60.5012L 38.5683,59.5719C 39.1259,59.8188 39.6943,60.041 40.2745,60.2397L 34.1682,61.1699C 33.588,60.9713 33.0186,60.748 32.461,60.5012 Z "/>
	<path fill="#919191" fill-opacity="1" stroke-width="0.2" stroke-linejoin="round" d="M 34.168,61.1696L 40.2743,60.2403C 40.8339,60.4311 41.4033,60.6002 41.9815,60.7438L 35.8743,61.6741C 35.296,61.5295 34.7266,61.3604 34.168,61.1696 Z "/>
	<path fill="#8F8F8F" fill-opacity="1" stroke-width="0.2" stroke-linejoin="round" d="M 35.8745,61.6737L 41.9818,60.7444C 42.5551,60.887 43.1383,61.006 43.7283,61.1014L 37.622,62.0309C 37.031,61.9372 36.4489,61.8172 35.8745,61.6737 Z "/>
	<path fill="#8C8C8C" fill-opacity="1" stroke-width="0.2" stroke-linejoin="round" d="M 37.6217,62.0309L 43.729,61.1017C 44.3327,61.198 44.9453,61.2688 45.5658,61.3131L 39.4585,62.2423C 38.839,62.1991 38.2264,62.1283 37.6217,62.0309 Z "/>
	<path fill="#A5A5A5" fill-opacity="1" stroke-width="0.2" stroke-linejoin="round" d="M 22.1156,24.1349C 22.8381,23.1683 23.6333,22.2587 24.4913,21.4169L 24.4342,21.4681C 24.3814,21.5212 24.3274,21.5743 24.2047,21.6982C 24.1428,21.7611 24.0819,21.824 23.9434,21.9686C 23.8856,22.0296 23.8274,22.0905 23.7707,22.1515C 23.7423,22.183 23.7138,22.2135 23.6853,22.2449C 23.6313,22.3029 23.5773,22.3619 23.5243,22.4209C 23.4919,22.4563 23.4605,22.4917 23.4291,22.5271C 23.379,22.5822 23.3298,22.6383 23.2809,22.6943C 23.2445,22.7356 23.2092,22.7769 23.1739,22.8182C 23.1297,22.8693 23.0855,22.9205 23.0413,22.9726C 23.0011,23.0188 22.9616,23.067 22.9225,23.1132C 22.8833,23.1614 22.844,23.2086 22.8044,23.2558C 22.7586,23.3119 22.7144,23.3669 22.6693,23.423C 22.6369,23.4633 22.6045,23.5026 22.5721,23.543C 22.5216,23.6059 22.4719,23.6698 22.4219,23.7337C 22.3954,23.7681 22.3679,23.8035 22.3404,23.8379C 22.2648,23.9363 22.1902,24.0346 22.1156,24.1349 Z "/>
	<path fill="#CBCBCB" fill-opacity="1" stroke-width="0.2" stroke-linejoin="round" d="M 26.1335,19.948L 26.3171,20.301C 24.7395,21.5568 23.3337,23.018 22.1183,24.6396L 16.7385,21.6571L 14.0407,26.5158L 13.8375,26.3772L 16.7365,21.1536L 22.1154,24.1351C 23.2797,22.5765 24.6335,21.1693 26.1335,19.948 Z "/>
	<path fill="#969696" fill-opacity="1" stroke-width="0.2" stroke-linejoin="round" d="M 26.8022,19.7992L 32.9085,18.9024L 26.8022,19.7992 Z "/>
	<path fill="#949494" fill-opacity="1" stroke-width="0.2" stroke-linejoin="round" d="M 26.8013,19.8328L 32.9037,18.9448L 26.8013,19.8328 Z "/>
	<path fill="#919191" fill-opacity="1" stroke-width="0.2" stroke-linejoin="round" d="M 26.797,19.8746L 32.8964,18.9856L 26.797,19.8746 Z "/>
	<path fill="#8F8F8F" fill-opacity="1" stroke-width="0.2" stroke-linejoin="round" d="M 26.7893,19.9154L 32.8848,19.0264L 26.7893,19.9154 Z "/>
	<path fill="#8C8C8C" fill-opacity="1" stroke-width="0.2" stroke-linejoin="round" d="M 26.7782,19.9562L 32.8698,19.0672L 26.7782,19.9562 Z "/>
	<path fill="#8A8A8A" fill-opacity="1" stroke-width="0.2" stroke-linejoin="round" d="M 26.7629,19.9975L 32.8496,19.1105L 26.7629,19.9975 Z "/>
	<path fill="#878787" fill-opacity="1" stroke-width="0.2" stroke-linejoin="round" d="M 26.7433,20.0398L 32.8231,19.1557L 26.7433,20.0398 Z "/>
	<path fill="#858585" fill-opacity="1" stroke-width="0.2" stroke-linejoin="round" d="M 26.7164,20.0849L 32.7844,19.2058L 26.7164,20.0849 Z "/>
	<path fill="#828282" fill-opacity="1" stroke-width="0.2" stroke-linejoin="round" d="M 26.6776,20.1357L 32.7221,19.2665C 31.6088,20.1544 30.5809,21.1437 29.6463,22.2244L 23.54,23.1546C 24.4737,22.0729 25.5025,21.0837 26.6776,20.1357 Z "/>
	<path fill="#949494" fill-opacity="1" stroke-width="0.2" stroke-linejoin="round" d="M 45.8038,22.7497L 51.9111,21.8194C 52.3598,21.9728 52.8006,22.1459 53.2325,22.3377L 47.1252,23.2669C 46.6933,23.0762 46.2535,22.9031 45.8038,22.7497 Z "/>
	<path fill="#969696" fill-opacity="1" stroke-width="0.2" stroke-linejoin="round" d="M 47.1254,23.2668L 53.2327,22.3376C 53.699,22.5441 54.1545,22.7722 54.5993,23.02L 48.492,23.9493C 48.0482,23.7015 47.5918,23.4733 47.1254,23.2668 Z "/>
	<path fill="#999999" fill-opacity="1" stroke-width="0.2" stroke-linejoin="round" d="M 48.4921,23.9497L 54.5994,23.0194C 55.1,23.2997 55.587,23.6055 56.0562,23.9349L 49.949,24.8652C 49.4797,24.5357 48.9937,24.2299 48.4921,23.9497 Z "/>
	<path fill="#999999" fill-opacity="1" stroke-width="0.2" stroke-linejoin="round" d="M 48.4921,23.9497L 54.5994,23.0194C 55.1,23.2997 55.587,23.6055 56.0562,23.9349L 49.949,24.8652C 49.4797,24.5357 48.9937,24.2299 48.4921,23.9497 Z "/>
	<path fill="#9C9C9C" fill-opacity="1" stroke-width="0.2" stroke-linejoin="round" d="M 49.9493,24.8648L 56.0566,23.9345C 56.6309,24.3387 57.1797,24.7782 57.701,25.2493L 51.5937,26.1795C 51.0734,25.7075 50.5237,25.2679 49.9493,24.8648 Z "/>
	<path fill="#9E9E9E" fill-opacity="1" stroke-width="0.2" stroke-linejoin="round" d="M 51.5935,26.1794L 57.7008,25.2492C 58.657,26.1165 59.518,27.0939 60.2641,28.1609L 54.1568,29.0911C 53.4107,28.0232 52.5507,27.0457 51.5935,26.1794 Z "/>
	<path fill="#A1A1A1" fill-opacity="1" stroke-width="0.2" stroke-linejoin="round" d="M 54.1571,29.0911L 60.2644,28.1609C 60.7503,28.8581 61.1882,29.5926 61.573,30.3606L 55.4657,31.2909C 55.0809,30.5229 54.644,29.7873 54.1571,29.0911 Z "/>
	<path fill="#828282" fill-opacity="1" stroke-width="0.2" stroke-linejoin="round" d="M 57.2998,40.0611L 63.407,39.1308C 63.304,39.1525 63.2019,39.1702 63.0998,39.1859L 56.9935,40.1162C 57.0946,40.1004 57.1977,40.0817 57.2998,40.0611 Z "/>
	<path fill="#9E9E9E" fill-opacity="1" stroke-width="0.2" stroke-linejoin="round" d="M 55.4657,31.2907L 61.573,30.3604C 62.1394,31.4952 62.5881,32.7028 62.9022,33.9634L 56.795,34.8937C 56.4808,33.632 56.0322,32.4255 55.4657,31.2907 Z "/>
	<path fill="#9C9C9C" fill-opacity="1" stroke-width="0.2" stroke-linejoin="round" d="M 56.7955,34.8937L 62.9027,33.9634C 63.0716,34.641 63.2002,35.3332 63.2885,36.0393L 57.1823,36.9685C 57.0939,36.2635 56.9643,35.5702 56.7955,34.8937 Z "/>
	<path fill="#999999" fill-opacity="1" stroke-width="0.2" stroke-linejoin="round" d="M 57.1819,36.9689L 63.2891,36.0397C 63.3618,36.6189 63.406,37.2059 63.4207,37.8015L 57.3144,38.7311C 57.2997,38.1362 57.2545,37.5481 57.1819,36.9689 Z "/>
	<path fill="#969696" fill-opacity="1" stroke-width="0.2" stroke-linejoin="round" d="M 57.3141,38.7316L 63.4214,37.8013C 63.4253,37.9282 63.4273,38.055 63.4273,38.1819C 63.4282,38.2616 63.4282,38.3412 63.4273,38.4199C 63.4253,38.5359 63.4243,38.5998 63.423,38.6637C 63.4204,38.7749 63.4184,38.8368 63.4165,38.8997C 63.4115,39.0187 63.4086,39.0748 63.4066,39.1308L 57.2994,40.0611C 57.3017,40.004 57.3043,39.949 57.3092,39.83C 57.3112,39.7671 57.3131,39.7051 57.3161,39.593C 57.317,39.5301 57.318,39.4671 57.32,39.3491C 57.321,39.2705 57.321,39.1908 57.32,39.1122C 57.32,38.9843 57.318,38.8575 57.3141,38.7316 Z "/>
	<path fill="#9C9C9C" fill-opacity="1" stroke-width="0.2" stroke-linejoin="round" d="M 54.6585,20.3408L 60.7657,19.4105C 61.125,19.7006 61.4765,20.0015 61.8211,20.3123L 55.7138,21.2425C 55.3712,20.9318 55.0178,20.6309 54.6585,20.3408 Z "/>
	<path fill="#9E9E9E" fill-opacity="1" stroke-width="0.2" stroke-linejoin="round" d="M 55.714,21.242L 61.8213,20.3118C 62.9532,21.3364 63.9938,22.4712 64.9176,23.7033L 58.8103,24.6336C 57.8865,23.4005 56.8459,22.2667 55.714,21.242 Z "/>
	<path fill="#9E9E9E" fill-opacity="1" stroke-width="0.2" stroke-linejoin="round" d="M 56.0237,21.3577L 62.131,20.4275C 63.2914,21.4777 64.3556,22.642 65.3039,23.9007L 59.1966,24.8309C 58.2493,23.5723 57.1851,22.408 56.0237,21.3577 Z "/>
	<path fill="#9E9E9E" fill-opacity="1" stroke-width="0.2" stroke-linejoin="round" d="M 56.0237,21.3577L 62.131,20.4275C 63.2914,21.4777 64.3556,22.642 65.3039,23.9007L 59.1966,24.8309C 58.2493,23.5723 57.1851,22.408 56.0237,21.3577 Z "/>
	<path fill="#8B8B8B" fill-opacity="1" stroke-width="0.2" stroke-linejoin="round" d="M 55.1408,20.0949L 61.2471,19.1647L 61.0654,19.5187L 54.9582,20.4489L 55.1408,20.0949 Z "/>
	<path fill="#9C9C9C" fill-opacity="1" stroke-width="0.2" stroke-linejoin="round" d="M 54.9586,20.4488L 61.0658,19.5186C 61.4291,19.8116 61.7835,20.1145 62.131,20.4282L 56.0237,21.3575C 55.6762,21.0438 55.3218,20.7409 54.9586,20.4488 Z "/>
	<path fill="#9E9E9E" fill-opacity="1" stroke-width="0.2" stroke-linejoin="round" d="M 56.0237,21.3577L 62.131,20.4275C 63.2914,21.4777 64.3556,22.642 65.3039,23.9007L 59.1966,24.8309C 58.2493,23.5723 57.1851,22.408 56.0237,21.3577 Z "/>
	<path fill="#B8B8B8" fill-opacity="1" stroke-width="0.2" stroke-linejoin="round" d="M 55.1369,20.0954L 61.2442,19.1661C 61.5544,19.4199 61.8598,19.6824 62.1572,19.9518L 56.0509,20.8821C 55.7525,20.6127 55.4472,20.3501 55.1369,20.0954 Z "/>
	<path fill="#BDBDBD" fill-opacity="1" stroke-width="0.2" stroke-linejoin="round" d="M 56.0505,20.8819L 62.1578,19.9526C 63.3103,20.995 64.3657,22.1485 65.3022,23.3963L 59.195,24.3266C 58.2584,23.0787 57.2031,21.9252 56.0505,20.8819 Z "/>
	<path fill="#9C9C9C" fill-opacity="1" stroke-width="0.2" stroke-linejoin="round" d="M 55.1474,20.1007L 61.2547,19.1705C 61.5551,19.4183 61.8516,19.673 62.1412,19.9355L 56.0339,20.8648C 55.7443,20.6032 55.4488,20.3475 55.1474,20.1007 Z "/>
	<path fill="#9E9E9E" fill-opacity="1" stroke-width="0.2" stroke-linejoin="round" d="M 56.0342,20.8651L 62.1415,19.9348C 63.296,20.9801 64.3592,22.1405 65.3016,23.3962L 59.1954,24.3265C 58.2529,23.0707 57.1907,21.9104 56.0342,20.8651 Z "/>
	<path fill="#878787" fill-opacity="1" stroke-width="0.2" stroke-linejoin="round" d="M 57.2978,40.0967L 63.4051,39.1664C 64.6617,39.0366 65.9065,38.8911 67.1356,38.7298L 61.0293,39.6601C 59.7992,39.8213 58.5544,39.9659 57.2978,40.0967 Z "/>
	<path fill="#858585" fill-opacity="1" stroke-width="0.2" stroke-linejoin="round" d="M 61.0291,39.6597L 67.1364,38.7304C 68.0543,38.6104 68.9653,38.4816 69.8665,38.344L 63.7593,39.2742C 62.8581,39.4109 61.948,39.5397 61.0291,39.6597 Z "/>
	<path fill="#808080" fill-opacity="1" stroke-width="0.2" stroke-linejoin="round" d="M 64.5409,21.9042L 70.6482,20.9739L 65.3037,23.9004L 59.1974,24.8306L 64.5409,21.9042 Z "/>
	<path fill="#828282" fill-opacity="1" stroke-width="0.2" stroke-linejoin="round" d="M 64.3529,22.0718L 70.4602,21.1415C 69.7612,21.527 65.747,23.7326 65.5349,23.8487C 65.4858,23.8742 65.4348,23.8919 65.3818,23.8998L 59.2745,24.8301C 59.3275,24.8212 59.3795,24.8045 59.4276,24.7779C 59.6397,24.6629 63.6539,22.4572 64.3529,22.0718 Z "/>
	<path fill="#000000" fill-opacity="1" stroke-width="0.2" stroke-linejoin="round" d="M 26.308,58.4711C 24.7942,57.2331 23.4365,55.8092 22.2535,54.2388L 16.9012,57.1652L 13.9511,51.9053L 14.1573,51.7735L 16.8992,56.6607L 22.2506,53.7353C 23.4826,55.3686 24.9002,56.8436 26.4896,58.1171L 26.308,58.4711 Z "/>
	<path fill="#A5A5A5" fill-opacity="1" stroke-width="0.2" stroke-linejoin="round" d="M 25.8138,46.4423C 25.7863,46.3833 25.7578,46.3243 25.7284,46.2604C 25.7019,46.2024 25.6754,46.1444 25.6449,46.0756C 25.6184,46.0166 25.5929,45.9576 25.5654,45.8927C 25.5389,45.8327 25.5134,45.7717 25.4869,45.7088C 25.4614,45.6478 25.4358,45.5878 25.4093,45.5209L 25.3976,45.4924L 25.8914,46.6026C 25.8658,46.5505 25.8403,46.4994 25.8138,46.4423 Z "/>
	<path fill="#8A8A8A" fill-opacity="1" stroke-width="0.2" stroke-linejoin="round" d="M 41.2174,56.1798L 47.3374,55.2495L 41.2301,56.1798L 41.2174,56.1798 Z "/>
	<path fill="#878787" fill-opacity="1" stroke-width="0.2" stroke-linejoin="round" d="M 41.2303,56.1798L 47.4112,55.2476C 47.4524,55.2466 47.4947,55.2456 47.5359,55.2446L 41.4286,56.1739C 41.3874,56.1749 41.3462,56.1768 41.2303,56.1798 Z "/>
	<path fill="#878787" fill-opacity="1" stroke-width="0.2" stroke-linejoin="round" d="M 41.4288,56.1741L 47.6176,55.2409C 47.6598,55.2399 47.703,55.2379 47.7452,55.236L 41.6379,56.1652C 41.5957,56.1672 41.5525,56.1692 41.5103,56.1711L 41.4288,56.1741 Z "/>
	<path fill="#878787" fill-opacity="1" stroke-width="0.2" stroke-linejoin="round" d="M 41.6378,56.1654L 47.8315,55.2312L 41.6378,56.1654 Z "/>
	<path fill="#878787" fill-opacity="1" stroke-width="0.2" stroke-linejoin="round" d="M 41.7245,56.1616L 47.8318,55.2313C 47.872,55.2294 47.9123,55.2274 47.9525,55.2245L 41.8462,56.1547C 41.806,56.1567 41.7648,56.1586 41.7245,56.1616 Z "/>
	<path fill="#878787" fill-opacity="1" stroke-width="0.2" stroke-linejoin="round" d="M 41.8458,56.1548L 48.0425,55.2187L 41.9352,56.1489L 41.8458,56.1548 Z "/>
	<path fill="#878787" fill-opacity="1" stroke-width="0.2" stroke-linejoin="round" d="M 41.935,56.1491L 48.0423,55.2189C 48.0815,55.2169 48.1208,55.2139 48.1601,55.211L 42.0538,56.1412C 42.0145,56.1442 41.9752,56.1462 41.935,56.1491 Z "/>
	<path fill="#878787" fill-opacity="1" stroke-width="0.2" stroke-linejoin="round" d="M 42.0534,56.1414L 48.251,55.2043L 42.0534,56.1414 Z "/>
	<path fill="#878787" fill-opacity="1" stroke-width="0.2" stroke-linejoin="round" d="M 42.1445,56.1338L 48.2518,55.2045C 48.29,55.2015 48.3283,55.1986 48.3666,55.1947L 42.2603,56.1249C 42.222,56.1279 42.1838,56.1308 42.1445,56.1338 Z "/>
	<path fill="#878787" fill-opacity="1" stroke-width="0.2" stroke-linejoin="round" d="M 42.26,56.1251L 48.3673,55.1949L 48.4596,55.187L 42.3533,56.1163C 42.3219,56.1192 42.2915,56.1222 42.26,56.1251 Z "/>
	<path fill="#878787" fill-opacity="1" stroke-width="0.2" stroke-linejoin="round" d="M 42.353,56.1165L 48.4603,55.1872C 48.4976,55.1833 48.5349,55.1803 48.5722,55.1764L 42.4659,56.1056C 42.4286,56.1096 42.3913,56.1125 42.353,56.1165 Z "/>
	<path fill="#878787" fill-opacity="1" stroke-width="0.2" stroke-linejoin="round" d="M 42.4656,56.1058L 48.6642,55.1667L 42.4656,56.1058 Z "/>
	<path fill="#878787" fill-opacity="1" stroke-width="0.2" stroke-linejoin="round" d="M 42.5572,56.0963L 48.6645,55.167C 48.7028,55.1631 48.742,55.1582 48.7813,55.1542L 42.674,56.0835C 42.6357,56.0884 42.5965,56.0924 42.5572,56.0963 Z "/>
	<path fill="#878787" fill-opacity="1" stroke-width="0.2" stroke-linejoin="round" d="M 42.6741,56.0838L 48.8668,55.1447L 42.6741,56.0838 Z "/>
	<path fill="#878787" fill-opacity="1" stroke-width="0.2" stroke-linejoin="round" d="M 42.7599,56.0742L 48.8672,55.1449C 48.9065,55.14 48.9448,55.1351 48.984,55.1302L 42.8777,56.0594C 42.8385,56.0653 42.7992,56.0693 42.7599,56.0742 Z "/>
	<path fill="#878787" fill-opacity="1" stroke-width="0.2" stroke-linejoin="round" d="M 42.9689,56.0482L 49.0762,55.1189L 49.0958,55.116L 42.9896,56.0453L 42.9689,56.0482 Z "/>
	<path fill="#858585" fill-opacity="1" stroke-width="0.2" stroke-linejoin="round" d="M 42.9891,56.0454L 49.1876,55.1033L 42.9891,56.0454 Z "/>
	<path fill="#878787" fill-opacity="1" stroke-width="0.2" stroke-linejoin="round" d="M 42.8774,56.0598L 48.9837,55.1306L 49.076,55.1187L 42.8774,56.0598 Z "/>
	<path fill="#858585" fill-opacity="1" stroke-width="0.2" stroke-linejoin="round" d="M 43.0807,56.0339L 49.2792,55.0908L 43.0807,56.0339 Z "/>
	<path fill="#858585" fill-opacity="1" stroke-width="0.2" stroke-linejoin="round" d="M 43.1722,56.0204L 49.2795,55.0911C 49.3168,55.0852 49.3541,55.0803 49.3914,55.0744L 43.2851,56.0037C 43.2478,56.0096 43.2096,56.0155 43.1722,56.0204 Z "/>
	<path fill="#858585" fill-opacity="1" stroke-width="0.2" stroke-linejoin="round" d="M 43.2849,56.0041L 49.4206,55.0699L 43.2849,56.0041 Z "/>
	<path fill="#828282" fill-opacity="1" stroke-width="0.2" stroke-linejoin="round" d="M 43.4694,54.9506L 49.5762,54.0213C 49.4466,54.043 49.3504,54.0587 49.2581,54.0725L 43.1518,55.0027C 43.2431,54.9889 43.3403,54.9722 43.4694,54.9506 Z "/>
	<path fill="#828282" fill-opacity="1" stroke-width="0.2" stroke-linejoin="round" d="M 52.4103,49.8466L 58.5176,48.9173C 56.1634,51.6353 52.9228,53.5145 49.261,54.0731L 43.1537,55.0023C 46.8155,54.4448 50.0571,52.5656 52.4103,49.8466 Z "/>
	<path fill="#000000" fill-opacity="1" stroke-width="0.2" stroke-linejoin="round" d="M 37.6965,63.0028L 43.8038,62.0735L 44.0374,68.3522L 37.9302,69.2834L 37.6965,63.0028 Z "/>
	<path fill="#8C8C8C" fill-opacity="1" stroke-width="0.2" stroke-linejoin="round" d="M 37.6217,62.0309L 43.729,61.1017C 44.3327,61.198 44.9453,61.2688 45.5658,61.3131L 39.4585,62.2423C 38.839,62.1991 38.2264,62.1283 37.6217,62.0309 Z "/>
	<path fill="#8A8A8A" fill-opacity="1" stroke-width="0.2" stroke-linejoin="round" d="M 39.4586,62.2422L 45.5659,61.313C 46.0175,61.3444 46.474,61.3612 46.9323,61.3631L 40.8252,62.2944C 40.367,62.2914 39.9107,62.2737 39.4586,62.2422 Z "/>
	<path fill="#000000" fill-opacity="1" stroke-width="0.2" stroke-linejoin="round" d="M 37.9305,69.2831L 44.0377,68.3529L 49.8996,68.3834L 43.7923,69.3126L 37.9305,69.2831 Z "/>
	<path fill="#A5A5A5" fill-opacity="1" stroke-width="0.2" stroke-linejoin="round" d="M 42.0544,56.1414C 42.0151,56.1444 41.9748,56.1464 41.8462,56.1552L 41.7353,56.1611L 42.0544,56.1414 Z "/>
	<path fill="#878787" fill-opacity="1" stroke-width="0.2" stroke-linejoin="round" d="M 41.4566,62.2874L 47.5639,61.3581C 48.311,61.3394 49.0492,61.2814 49.7767,61.185L 43.6694,62.1143C 42.9429,62.2107 42.2047,62.2687 41.4566,62.2874 Z "/>
	<path fill="#878787" fill-opacity="1" stroke-width="0.2" stroke-linejoin="round" d="M 41.4566,62.2874L 47.5639,61.3581C 48.311,61.3394 49.0492,61.2814 49.7767,61.185L 43.6694,62.1143C 42.9429,62.2107 42.2047,62.2687 41.4566,62.2874 Z "/>
	<path fill="#858585" fill-opacity="1" stroke-width="0.2" stroke-linejoin="round" d="M 43.6698,62.1145L 49.7771,61.1852C 49.9106,61.1666 50.0441,61.1479 50.1766,61.1272L 44.0703,62.0575C 43.9368,62.0781 43.8033,62.0968 43.6698,62.1145 Z "/>
	<path fill="#8A8A8A" fill-opacity="1" stroke-width="0.2" stroke-linejoin="round" d="M 40.8219,61.5508L 46.9292,60.6215C 47.1403,60.6225 47.3503,60.6205 47.5594,60.6156L 41.4532,61.5448C 41.2431,61.5498 41.033,61.5517 40.8219,61.5508 Z "/>
	<path fill="#878787" fill-opacity="1" stroke-width="0.2" stroke-linejoin="round" d="M 41.4533,61.545L 47.5595,60.6158C 48.3076,60.5961 49.0459,60.5391 49.7723,60.4417L 43.6661,61.372C 42.9396,61.4683 42.2013,61.5264 41.4533,61.545 Z "/>
	<path fill="#858585" fill-opacity="1" stroke-width="0.2" stroke-linejoin="round" d="M 43.666,61.3722L 49.7722,60.4419C 49.9067,60.4242 50.0412,60.4055 50.1747,60.3849L 44.0675,61.3142C 43.934,61.3348 43.8004,61.3535 43.666,61.3722 Z "/>
	<path fill="#9B9B9B" fill-opacity="1" stroke-width="0.2" stroke-linejoin="round" d="M 43.9608,63.0354L 50.0682,62.1062L 49.8992,68.3829L 43.7929,69.3131L 43.9608,63.0354 Z "/>
	<path fill="#000000" fill-opacity="1" stroke-width="0.2" stroke-linejoin="round" d="M 43.9608,63.0354L 50.0682,62.1062C 50.2254,62.0845 50.3822,62.0629 50.538,62.0383L 44.431,62.9695C 44.2749,62.9921 44.1178,63.0148 43.9608,63.0354 Z "/>
	<path fill="#1F1F1F" fill-opacity="1" stroke-width="0.2" stroke-linejoin="round" d="M 43.9631,63.5396L 50.0704,62.6093L 49.9015,68.887L 43.7952,69.8183L 43.9631,63.5396 Z "/>
	<path fill="#828282" fill-opacity="1" stroke-width="0.2" stroke-linejoin="round" d="M 49.7211,61.473L 55.8284,60.5437C 54.1594,61.2517 52.3865,61.7572 50.5379,62.0384L 44.4316,62.9686C 46.2792,62.6874 48.0522,62.182 49.7211,61.473 Z "/>
	<path fill="#000000" fill-opacity="1" stroke-width="0.2" stroke-linejoin="round" d="M 49.7235,61.9868L 55.8298,61.0575C 54.1619,61.7567 52.3889,62.2611 50.5413,62.5424L 44.4341,63.4726C 46.2826,63.1914 48.0546,62.6869 49.7235,61.9868 Z "/>
	<path fill="#000000" fill-opacity="1" stroke-width="0.2" stroke-linejoin="round" d="M 49.7211,61.473L 55.8284,60.5437L 59.0621,65.8922L 52.9549,66.8214L 49.7211,61.473 Z "/>
	<path fill="#969696" fill-opacity="1" stroke-width="0.2" stroke-linejoin="round" d="M 62.193,39.8354L 68.3003,38.9061C 68.2954,39.3054 68.2807,39.7017 68.2561,40.097L 62.1489,41.0262C 62.1734,40.6329 62.1881,40.2346 62.193,39.8354 Z "/>
	<path fill="#949494" fill-opacity="1" stroke-width="0.2" stroke-linejoin="round" d="M 62.1489,41.0262L 68.2561,40.097C 68.2159,40.7342 68.1491,41.3645 68.0588,41.986L 61.9515,42.9153C 62.0428,42.2938 62.1086,41.6635 62.1489,41.0262 Z "/>
	<path fill="#919191" fill-opacity="1" stroke-width="0.2" stroke-linejoin="round" d="M 61.9514,42.9152L 68.0587,41.9859C 67.9694,42.5936 67.8555,43.1935 67.719,43.7854L 61.6118,44.7147C 61.7492,44.1237 61.8621,43.5239 61.9514,42.9152 Z "/>
	<path fill="#8F8F8F" fill-opacity="1" stroke-width="0.2" stroke-linejoin="round" d="M 61.6121,44.7148L 67.7193,43.7855C 67.5809,44.3805 67.4199,44.9685 67.2363,45.5447L 61.13,46.474C 61.3126,45.8978 61.474,45.3107 61.6121,44.7148 Z "/>
	<path fill="#8C8C8C" fill-opacity="1" stroke-width="0.2" stroke-linejoin="round" d="M 61.1297,46.474L 67.237,45.5447C 67.0456,46.1426 66.8306,46.7297 66.592,47.3049L 60.4857,48.2342C 60.7243,47.6599 60.9393,47.0719 61.1297,46.474 Z "/>
	<path fill="#8A8A8A" fill-opacity="1" stroke-width="0.2" stroke-linejoin="round" d="M 60.4855,48.2343L 66.5928,47.305C 66.3346,47.9265 66.0509,48.5342 65.7407,49.1242L 59.6334,50.0545C 59.9436,49.4635 60.2273,48.8568 60.4855,48.2343 Z "/>
	<path fill="#878787" fill-opacity="1" stroke-width="0.2" stroke-linejoin="round" d="M 59.6332,50.054L 65.7405,49.1247C 65.3871,49.7973 65.0003,50.4493 64.583,51.0786L 58.4758,52.0079C 58.893,51.3805 59.2808,50.7276 59.6332,50.054 Z "/>
	<path fill="#858585" fill-opacity="1" stroke-width="0.2" stroke-linejoin="round" d="M 58.4761,52.0082L 64.5833,51.0789C 64.066,51.8568 63.5025,52.5992 62.8948,53.2994L 56.7875,54.2296C 57.3952,53.5285 57.9597,52.787 58.4761,52.0082 Z "/>
	<path fill="#828282" fill-opacity="1" stroke-width="0.2" stroke-linejoin="round" d="M 56.7878,54.2294L 62.8951,53.3001C 59.6613,57.0359 55.2072,59.6182 50.174,60.3852L 44.0667,61.3145C 49.1,60.5484 53.555,57.9661 56.7878,54.2294 Z "/>
	<path fill="#969696" fill-opacity="1" stroke-width="0.2" stroke-linejoin="round" d="M 62.193,39.8354L 68.3013,38.975L 62.193,39.8354 Z "/>
	<path fill="#999999" fill-opacity="1" stroke-width="0.2" stroke-linejoin="round" d="M 62.1939,39.9046L 68.3012,38.9754C 68.3032,39.0531 68.3071,39.1307 68.309,39.2084L 62.2018,40.1377C 62.1998,40.06 62.1959,39.9823 62.1939,39.9046 Z "/>
	<path fill="#969696" fill-opacity="1" stroke-width="0.2" stroke-linejoin="round" d="M 62.2016,40.138L 68.3098,39.2775C 68.3128,39.8007 68.2971,40.3209 68.2647,40.8352L 62.1574,41.7654C 62.1898,41.2511 62.2055,40.7319 62.2016,40.138 Z "/>
	<path fill="#949494" fill-opacity="1" stroke-width="0.2" stroke-linejoin="round" d="M 62.1575,41.7656L 68.2648,40.8354C 68.2245,41.4726 68.1578,42.1019 68.0674,42.7224L 61.9602,43.6527C 62.0515,43.0312 62.1173,42.4019 62.1575,41.7656 Z "/>
	<path fill="#919191" fill-opacity="1" stroke-width="0.2" stroke-linejoin="round" d="M 61.96,43.6527L 68.0672,42.7224C 67.9779,43.3301 67.865,43.929 67.7286,44.519L 61.6213,45.4493C 61.7577,44.8592 61.8706,44.2594 61.96,43.6527 Z "/>
	<path fill="#8F8F8F" fill-opacity="1" stroke-width="0.2" stroke-linejoin="round" d="M 61.6216,45.4494L 67.7288,44.5191C 67.5904,45.114 67.4294,45.7011 67.2458,46.2762L 61.1396,47.2058C 61.3222,46.6304 61.4832,46.0438 61.6216,45.4494 Z "/>
	<path fill="#8C8C8C" fill-opacity="1" stroke-width="0.2" stroke-linejoin="round" d="M 61.1394,47.2058L 67.2466,46.2766C 67.0542,46.8774 66.8392,47.4664 66.5997,48.0436L 60.4934,48.9729C 60.7319,48.3967 60.9479,47.8066 61.1394,47.2058 Z "/>
	<path fill="#8A8A8A" fill-opacity="1" stroke-width="0.2" stroke-linejoin="round" d="M 60.4932,48.9727L 66.6005,48.0434C 66.3413,48.6659 66.0566,49.2766 65.7454,49.8676L 59.6381,50.7978C 59.9493,50.2058 60.235,49.5971 60.4932,48.9727 Z "/>
	<path fill="#878787" fill-opacity="1" stroke-width="0.2" stroke-linejoin="round" d="M 59.638,50.7983L 65.7453,49.868C 65.3919,50.5387 65.007,51.1887 64.5908,51.8161L 58.4835,52.7453C 58.8998,52.1199 59.2856,51.4699 59.638,50.7983 Z "/>
	<path fill="#858585" fill-opacity="1" stroke-width="0.2" stroke-linejoin="round" d="M 58.4837,52.7457L 64.591,51.8165C 64.0707,52.5992 63.5032,53.3446 62.8926,54.0496L 56.7863,54.9789C 57.397,54.2748 57.9644,53.5285 58.4837,52.7457 Z "/>
	<path fill="#828282" fill-opacity="1" stroke-width="0.2" stroke-linejoin="round" d="M 56.7858,54.9794L 62.8931,54.0501C 59.6583,57.782 55.2062,60.3623 50.1769,61.1273L 44.0696,62.0576C 49.099,61.2915 53.5521,58.7122 56.7858,54.9794 Z "/>
	<path fill="#818181" fill-opacity="1" stroke-width="0.2" stroke-linejoin="round" d="M 55.3171,58.621L 61.4244,57.6907L 61.2408,57.8382L 55.1345,58.7675L 55.3171,58.621 Z "/>
	<path fill="#A5A5A5" fill-opacity="1" stroke-width="0.2" stroke-linejoin="round" d="M 55.135,58.7679L 61.2413,57.8386L 63.9233,63.0032L 57.8161,63.9334L 55.135,58.7679 Z "/>
	<path fill="#CACACA" fill-opacity="1" stroke-width="0.2" stroke-linejoin="round" d="M 55.3133,58.62L 61.4205,57.6897L 64.1232,62.8857L 58.0159,63.815L 55.3133,58.62 Z "/>
	<path fill="#A5A5A5" fill-opacity="1" stroke-width="0.2" stroke-linejoin="round" d="M 55.3152,58.6218L 61.4225,57.6916L 64.1232,62.8857L 58.0159,63.8149L 55.3152,58.6218 Z "/>
	<path fill="#A5A5A5" fill-opacity="1" stroke-width="0.2" stroke-linejoin="round" d="M 55.1321,58.2646L 61.2394,57.3353L 61.424,57.6903L 55.3167,58.6206L 55.1321,58.2646 Z "/>
	<path fill="#858585" fill-opacity="1" stroke-width="0.2" stroke-linejoin="round" d="M 59.3302,53.9259L 65.4375,52.9967C 65.1047,53.4402 64.7562,53.8709 64.3949,54.2908L 58.2877,55.22C 58.6499,54.8021 58.9974,54.3694 59.3302,53.9259 Z "/>
	<path fill="#828282" fill-opacity="1" stroke-width="0.2" stroke-linejoin="round" d="M 58.2882,55.2204L 64.3954,54.2912C 63.4353,55.4023 62.378,56.4221 61.2392,57.3346L 55.1319,58.2649C 56.2707,57.3523 57.328,56.3316 58.2882,55.2204 Z "/>
	<path fill="#1F1F1F" fill-opacity="1" stroke-width="0.2" stroke-linejoin="round" d="M 59.3332,54.4311L 65.4405,53.5008C 65.1077,53.9433 64.7611,54.3731 64.4008,54.791L 58.2936,55.7212C 58.6548,55.3033 59.0014,54.8726 59.3332,54.4311 Z "/>
	<path fill="#1F1F1F" fill-opacity="1" stroke-width="0.2" stroke-linejoin="round" d="M 58.2939,55.7208L 64.4012,54.7915C 63.4921,55.8437 62.4947,56.8142 61.4237,57.6904L 55.3174,58.6207C 56.3884,57.7445 57.3849,56.7729 58.2939,55.7208 Z "/>
	<path fill="#1F1F1F" fill-opacity="1" stroke-width="0.2" stroke-linejoin="round" d="M 59.3335,54.4313L 65.4398,53.501C 64.2715,55.0591 62.9197,56.4668 61.4245,57.6901L 55.3173,58.6213C 56.8124,57.3971 58.1643,55.9879 59.3335,54.4313 Z "/>
	<path fill="#000000" fill-opacity="1" stroke-width="0.2" stroke-linejoin="round" d="M 59.3302,53.9259L 65.4375,52.9967L 70.8075,55.9782L 64.7012,56.9075L 59.3302,53.9259 Z "/>
	<path fill="#5E5A5A" fill-opacity="1" stroke-width="0.2" stroke-linejoin="round" d="M 40.8219,61.5508C 52.5456,61.6117 62.0594,51.906 62.1929,39.8354C 62.1929,39.9593 62.2028,40.0832 62.2028,40.2071C 62.2587,52.4469 52.6693,62.3541 40.8249,62.2942C 28.9814,62.2322 19.3085,52.2256 19.2526,39.9849C 19.2526,39.861 19.2516,39.7371 19.2595,39.6132C 19.5039,51.6868 29.0982,61.4898 40.8219,61.5508 Z "/>
	<path fill="#949494" fill-opacity="1" stroke-width="0.2" stroke-linejoin="round" d="M 63.9503,42.3832L 70.0576,41.4529C 70.033,41.6496 70.0065,41.8463 69.9781,42.041L 63.8708,42.9712C 63.8993,42.7755 63.9268,42.5798 63.9503,42.3832 Z "/>
	<path fill="#919191" fill-opacity="1" stroke-width="0.2" stroke-linejoin="round" d="M 63.8707,42.9708L 69.978,42.0416C 69.8808,42.6984 69.759,43.3465 69.6118,43.9827L 63.5045,44.9129C 63.6518,44.2757 63.7735,43.6287 63.8707,42.9708 Z "/>
	<path fill="#8F8F8F" fill-opacity="1" stroke-width="0.2" stroke-linejoin="round" d="M 63.5045,44.9125L 69.6118,43.9833C 69.4645,44.6175 69.2937,45.241 69.0983,45.8536L 62.9921,46.7829C 63.1874,46.1712 63.3582,45.5478 63.5045,44.9125 Z "/>
	<path fill="#8C8C8C" fill-opacity="1" stroke-width="0.2" stroke-linejoin="round" d="M 62.9916,46.7833L 69.0988,45.854C 68.931,46.3801 68.7454,46.8964 68.5432,47.4057L 62.4369,48.335C 62.6391,47.8276 62.8237,47.3094 62.9916,46.7833 Z "/>
	<path fill="#1F1F1F" fill-opacity="1" stroke-width="0.2" stroke-linejoin="round" d="M 63.9522,42.8864L 70.0594,41.9571C 70.0349,42.1557 70.0084,42.3534 69.9799,42.55L 63.8727,43.4803C 63.9011,43.2826 63.9286,43.085 63.9522,42.8864 Z "/>
	<path fill="#1F1F1F" fill-opacity="1" stroke-width="0.2" stroke-linejoin="round" d="M 63.8727,43.4798L 69.9799,42.5505C 69.8827,43.2045 69.761,43.8505 69.6147,44.4848L 63.5075,45.415C 63.6537,44.7798 63.7755,44.1347 63.8727,43.4798 Z "/>
	<path fill="#1F1F1F" fill-opacity="1" stroke-width="0.2" stroke-linejoin="round" d="M 63.5074,45.4148L 69.6146,44.4856C 69.4674,45.1189 69.2965,45.7423 69.1012,46.3539L 62.9959,47.2842C 63.1903,46.6716 63.3611,46.0491 63.5074,45.4148 Z "/>
	<path fill="#1F1F1F" fill-opacity="1" stroke-width="0.2" stroke-linejoin="round" d="M 62.9954,47.2845L 69.1017,46.3542C 68.978,46.7427 68.8445,47.1272 68.7021,47.5057L 62.5958,48.436C 62.7372,48.0564 62.8717,47.6729 62.9954,47.2845 Z "/>
	<path fill="#1F1F1F" fill-opacity="1" stroke-width="0.2" stroke-linejoin="round" d="M 63.9525,42.8867L 70.0588,41.9565C 69.8222,43.8937 69.3617,45.7522 68.703,47.5054L 62.5957,48.4358C 63.2555,46.6825 63.7159,44.8239 63.9525,42.8867 Z "/>
	<path fill="#828282" fill-opacity="1" stroke-width="0.2" stroke-linejoin="round" d="M 64.8707,39.0994L 70.9779,38.1691C 70.8081,38.1966 70.6383,38.2242 70.4684,38.2507L 64.3612,39.181C 64.531,39.1544 64.7008,39.1269 64.8707,39.0994 Z "/>
	<path fill="#828282" fill-opacity="1" stroke-width="0.2" stroke-linejoin="round" d="M 64.3615,39.1805L 70.4688,38.2512C 70.3981,38.262 70.3275,38.2729 70.2578,38.2837C 70.1272,38.3033 69.9956,38.324 69.8641,38.3437L 63.7578,39.2739C 63.8894,39.2542 64.0199,39.2336 64.1505,39.2129C 64.2202,39.2026 64.2918,39.1913 64.3615,39.1805 Z "/>
	<path fill="#828282" fill-opacity="1" stroke-width="0.2" stroke-linejoin="round" d="M 65.6347,38.9736L 71.742,38.0433C 71.5899,38.0689 71.4396,38.0935 71.2885,38.1191L 65.1812,39.0493C 65.3324,39.0237 65.4836,38.9992 65.6347,38.9736 Z "/>
	<path fill="#828282" fill-opacity="1" stroke-width="0.2" stroke-linejoin="round" d="M 65.1813,39.0489L 71.2886,38.1187L 70.9774,38.1688L 64.8711,39.0991L 65.1813,39.0489 Z "/>
	<path fill="#828282" fill-opacity="1" stroke-width="0.2" stroke-linejoin="round" d="M 65.9924,38.9131L 72.0996,37.9829C 71.9799,38.0035 71.8611,38.0232 71.7413,38.0438L 65.635,38.9741C 65.7538,38.9534 65.8736,38.9338 65.9924,38.9131 Z "/>
	<path fill="#828282" fill-opacity="1" stroke-width="0.2" stroke-linejoin="round" d="M 66.4132,38.8405L 72.5205,37.9103C 72.3801,37.9349 72.2397,37.9595 72.0994,37.9831L 65.9921,38.9133C 66.1325,38.8887 66.2729,38.8642 66.4132,38.8405 Z "/>
	<path fill="#828282" fill-opacity="1" stroke-width="0.2" stroke-linejoin="round" d="M 66.8005,38.7719L 72.9078,37.8417C 72.7792,37.8653 72.6496,37.8879 72.52,37.9105L 66.4128,38.8407C 66.5423,38.8171 66.6719,38.7945 66.8005,38.7719 Z "/>
	<path fill="#828282" fill-opacity="1" stroke-width="0.2" stroke-linejoin="round" d="M 67.1936,38.7013L 73.3009,37.772C 73.1703,37.7956 73.0388,37.8192 72.9072,37.8419L 66.8009,38.7721C 66.9315,38.7485 67.063,38.7249 67.1936,38.7013 Z "/>
	<path fill="#828282" fill-opacity="1" stroke-width="0.2" stroke-linejoin="round" d="M 67.9683,38.5582L 74.0756,37.628C 73.9597,37.6506 73.8429,37.6712 73.727,37.6929C 73.5857,37.7194 73.4433,37.746 73.301,37.7715L 67.1937,38.7018C 67.3361,38.6752 67.4784,38.6497 67.6208,38.6231C 67.7366,38.6015 67.8524,38.5799 67.9683,38.5582 Z "/>
	<path fill="#828282" fill-opacity="1" stroke-width="0.2" stroke-linejoin="round" d="M 68.7477,38.4085L 74.8549,37.4792C 74.7587,37.4979 74.6625,37.5156 74.5673,37.5343C 74.4034,37.5657 74.2394,37.5972 74.0755,37.6287L 67.9682,38.5579C 68.1321,38.5275 68.2961,38.496 68.46,38.4645C 68.5562,38.4458 68.6515,38.4281 68.7477,38.4085 Z "/>
	<path fill="#000000" fill-opacity="1" stroke-width="0.2" stroke-linejoin="round" d="M 63.9503,42.3832L 70.0576,41.4529L 76.1315,41.2808L 70.0242,42.2101L 63.9503,42.3832 Z "/>
	<path fill="#828282" fill-opacity="1" stroke-width="0.2" stroke-linejoin="round" d="M 69.5194,38.2553L 75.6267,37.325C 75.3695,37.3771 75.1123,37.4283 74.855,37.4784L 68.7478,38.4087C 69.006,38.3585 69.2622,38.3074 69.5194,38.2553 Z "/>
	<path fill="#969696" fill-opacity="1" stroke-width="0.2" stroke-linejoin="round" d="M 69.5117,36.6381L 75.619,35.7079C 75.621,36.2123 75.6239,36.884 75.6269,37.3255L 69.5196,38.2558C 69.5167,37.8132 69.5137,37.1416 69.5117,36.6381 Z "/>
	<path fill="#5E5A5A" fill-opacity="1" stroke-width="0.2" stroke-linejoin="round" d="M 40.8253,62.2941C 52.6687,62.355 62.2591,52.4468 62.2022,40.207C 62.2022,40.0831 62.1933,39.9592 62.1933,39.8353C 62.0598,51.9069 52.545,61.6116 40.8223,61.5506C 29.0986,61.4907 19.5033,51.6867 19.2598,39.6141C 19.252,39.738 19.252,39.8619 19.253,39.9848C 19.3089,52.2255 28.9818,62.2331 40.8253,62.2941 Z M 69.5199,38.2551C 69.5169,37.8126 69.514,37.1419 69.512,36.6384L 69.999,36.6571L 70.0245,42.2101L 63.9506,42.3832C 63.6944,44.4689 63.1809,46.4641 62.4368,48.3354L 62.5909,48.4347C 62.5674,48.4967 62.5458,48.5606 62.5232,48.6245L 62.4397,48.8399L 67.3994,52.0495L 64.7006,56.9073L 59.3306,53.9257C 58.1143,55.5473 56.7006,57.0076 55.1318,58.2643L 55.3174,58.6213L 55.1348,58.7678L 57.8168,63.9333L 52.9544,66.8214L 49.7216,61.473C 47.9103,62.2419 45.9793,62.771 43.9609,63.0355L 43.792,69.3132L 37.9302,69.2828L 37.6965,63.0031C 35.684,62.7189 33.748,62.1692 31.9221,61.3815L 28.7374,66.6975L 23.8563,63.7573L 26.4922,58.6213L 26.3115,58.4698L 26.4892,58.1168C 24.9008,56.8433 23.4822,55.3683 22.2511,53.735L 16.8988,56.6604L 14.1569,51.7732L 19.0871,48.6166C 19.035,48.4829 18.9918,48.3413 18.9398,48.2085L 19.0851,48.1112C 18.3311,46.233 17.801,44.2319 17.5173,42.1432L 11.4493,41.9092L 11.4238,36.3552L 11.9107,36.3405C 11.9137,36.8449 11.9166,37.4979 11.9186,37.9404C 15.7983,38.7674 19.9107,39.4331 24.1567,39.9169C 24.6878,48.9451 31.9486,56.1373 40.7978,56.1825C 49.6431,56.2288 56.8449,49.1162 57.2975,40.0969C 61.5425,39.6573 65.6401,39.0417 69.5199,38.2551 Z "/>
	<path fill="#A5A5A5" fill-opacity="1" stroke-width="0.2" stroke-linejoin="round" d="M 56.779,21.5674C 57.6497,22.4229 58.4587,23.3453 59.195,24.3267C 59.1204,24.2264 59.0448,24.128 58.9692,24.0297C 58.9289,23.9766 58.8877,23.9255 58.8465,23.8734C 58.8101,23.8271 58.7728,23.7799 58.7355,23.7337C 58.6894,23.6757 58.6432,23.6187 58.5961,23.5616C 58.5647,23.5223 58.5333,23.4839 58.5019,23.4456C 58.4518,23.3856 58.4027,23.3256 58.3517,23.2656C 58.3212,23.2302 58.2918,23.1939 58.2614,23.1585C 58.2103,23.0985 58.1583,23.0385 58.1072,22.9795L 58.0179,22.8772C 57.9659,22.8172 57.9129,22.7592 57.8608,22.7002L 57.7685,22.5979C 57.7155,22.5389 57.6625,22.4809 57.6085,22.4229C 57.5781,22.3895 57.5476,22.356 57.5172,22.3236C 57.4622,22.2666 57.4092,22.2095 57.3543,22.1515C 57.3238,22.1191 57.2924,22.0866 57.26,22.0532C 57.205,21.9961 57.1491,21.9391 57.0941,21.8821L 57.0018,21.7886C 56.9439,21.7306 56.887,21.6736 56.828,21.6156 Z "/>
	<path fill="#A1A1A1" fill-opacity="1" stroke-width="0.2" stroke-linejoin="round" d="M 64.3529,22.0718L 70.4602,21.1415C 70.8313,21.7984 72.5738,24.9018 72.9361,25.5499L 66.8288,26.4791C 66.4666,25.8321 64.725,22.7277 64.3529,22.0718 Z "/>
	<path fill="#828282" fill-opacity="1" stroke-width="0.2" stroke-linejoin="round" d="M 66.8293,26.479L 72.9366,25.5498C 72.2621,25.9884 68.404,28.4546 68.2008,28.5854C 68.1605,28.6109 68.1261,28.6424 68.0957,28.6778L 61.9884,29.6071C 62.0199,29.5727 62.0552,29.5412 62.0945,29.5146C 62.2977,29.3848 66.1549,26.9176 66.8293,26.479 Z "/>
	<path fill="#858585" fill-opacity="1" stroke-width="0.2" stroke-linejoin="round" d="M 61.9887,29.6073L 68.0567,28.7291L 61.9887,29.6073 Z "/>
	<path fill="#878787" fill-opacity="1" stroke-width="0.2" stroke-linejoin="round" d="M 61.9495,29.6591L 68.0302,28.7731L 61.9495,29.6591 Z "/>
	<path fill="#8A8A8A" fill-opacity="1" stroke-width="0.2" stroke-linejoin="round" d="M 61.9236,29.7028L 68.0112,28.8138L 61.9236,29.7028 Z "/>
	<path fill="#8C8C8C" fill-opacity="1" stroke-width="0.2" stroke-linejoin="round" d="M 61.9044,29.7441L 67.997,28.8541L 61.9044,29.7441 Z "/>
	<path fill="#8F8F8F" fill-opacity="1" stroke-width="0.2" stroke-linejoin="round" d="M 61.8901,29.7844L 67.9856,28.8944L 61.8901,29.7844 Z "/>
	<path fill="#919191" fill-opacity="1" stroke-width="0.2" stroke-linejoin="round" d="M 61.8785,29.8248L 67.9779,28.9368L 61.8785,29.8248 Z "/>
	<path fill="#949494" fill-opacity="1" stroke-width="0.2" stroke-linejoin="round" d="M 61.8708,29.8661L 67.9732,28.9801L 61.8708,29.8661 Z "/>
	<path fill="#969696" fill-opacity="1" stroke-width="0.2" stroke-linejoin="round" d="M 61.866,29.9102L 67.9723,29.0174L 61.866,29.9102 Z "/>
	<path fill="#A5A5A5" fill-opacity="1" stroke-width="0.2" stroke-linejoin="round" d="M 64.5409,21.9042L 70.6482,20.9739L 73.3921,25.8612L 67.2848,26.7915L 64.5409,21.9042 Z "/>
	<path fill="#CBCBCB" fill-opacity="1" stroke-width="0.2" stroke-linejoin="round" d="M 55.1369,20.0954C 56.6498,21.3344 58.0163,22.7554 59.1954,24.3268L 64.5379,21.4003L 67.4977,26.6593L 67.2896,26.7891L 64.5408,21.9038L 59.1973,24.8303C 57.9663,23.1969 56.5388,21.7209 54.9583,20.4484L 55.1369,20.0954 Z "/>
	<path fill="#7A7777" fill-opacity="1" stroke-width="0.2" stroke-linejoin="round" d="M 63.9062,36.422C 64.3009,36.4377 65.1864,36.4712 66.1701,36.5085L 69.5118,36.6383C 69.5138,37.1418 69.5168,37.8134 69.5197,38.255C 69.2625,38.3071 69.0053,38.3582 68.7481,38.4084C 68.6519,38.428 68.5556,38.4457 68.4604,38.4644C 68.2965,38.4959 68.1325,38.5274 67.9686,38.5578C 67.8527,38.5805 67.7359,38.6011 67.6201,38.6227C 67.4787,38.6493 67.3364,38.6758 67.194,38.7014C 67.0634,38.725 66.9319,38.7486 66.8003,38.7722C 66.6717,38.7948 66.5431,38.8174 66.4135,38.8401C 66.2732,38.8646 66.1328,38.8892 65.9924,38.9128C 65.8736,38.9335 65.7538,38.9531 65.635,38.9738C 65.4829,38.9994 65.3327,39.0239 65.1815,39.0485L 64.8703,39.0997C 64.7014,39.1262 64.5316,39.1537 64.3617,39.1803C 64.2921,39.1911 64.2204,39.2029 64.1507,39.2127C 61.9192,39.5609 59.6309,39.8559 57.2983,40.0968C 57.314,39.7713 57.3218,39.4419 57.3199,39.1115C 57.2767,29.6408 49.8058,21.9254 40.6405,21.8782C 31.4752,21.831 24.0828,29.4687 24.126,38.9404C 24.127,39.2678 24.1378,39.5943 24.1574,39.9168C 22.0684,39.6789 20.0117,39.3966 17.9991,39.0731C 17.7056,39.0259 17.5289,38.9964 17.3522,38.9669C 17.255,38.9512 17.1588,38.9354 17.0626,38.9187C 16.9084,38.8932 16.7543,38.8666 16.6002,38.8401C 16.4824,38.8194 16.3646,38.7988 16.2468,38.7781C 16.1064,38.7545 15.965,38.7289 15.8246,38.7034C 15.6931,38.6798 15.5625,38.6562 15.4319,38.6336C 15.3014,38.609 15.1708,38.5854 15.0412,38.5608C 14.8998,38.5352 14.7585,38.5087 14.6181,38.4821C 14.4973,38.4595 14.3766,38.4359 14.2558,38.4133C 14.1027,38.3838 13.9495,38.3533 13.7964,38.3238C 13.6904,38.3031 13.5824,38.2825 13.4764,38.2609C 13.3006,38.2255 13.1259,38.1901 12.9521,38.1547C 12.8657,38.1379 12.7803,38.1202 12.6939,38.1025C 12.4347,38.0494 12.1766,37.9954 11.9184,37.9403C 11.9164,37.4978 11.9135,36.8448 11.9115,36.3404L 15.5468,36.2381C 15.6646,36.2342 15.7814,36.2312 15.8943,36.2283C 16.1142,36.2214 16.1672,36.2204 16.2193,36.2184C 16.5334,36.2106 16.6571,36.2066 16.771,36.2037C 16.823,36.2017 16.8721,36.2007 16.9192,36.1988C 17.0312,36.1958 17.1303,36.1939 17.2128,36.1909C 17.7468,36.1752 17.9432,35.9903 17.9756,35.7425C 18.223,33.7365 18.7276,31.7757 19.455,29.9132L 19.4884,29.7283C 19.4874,29.5513 19.4099,29.392 19.2557,29.2937C 19.0515,29.1619 15.1786,26.6554 14.4924,26.2089C 14.8566,25.5658 16.5717,22.4791 16.9281,21.8271C 17.6398,22.2195 21.6737,24.4664 21.8867,24.5844C 23.6931,22.8517 25.0724,21.4259 26.6157,20.1967C 26.7354,20.0994 26.8032,19.9499 26.8022,19.7994L 26.7413,19.5605C 26.6274,19.3402 24.4618,15.1708 24.0828,14.4352C 24.7141,14.0665 27.6916,12.2955 28.3229,11.9189C 28.7548,12.6279 31.1797,16.6399 31.3073,16.8513C 33.7007,16.2977 35.5984,15.7765 37.5471,15.5218C 37.7876,15.4874 37.9575,15.2849 37.9643,15.0371C 37.9722,14.7893 38.1047,10.0859 38.1263,9.25495L 43.0388,9.27953C 43.0673,10.1114 43.244,14.8168 43.2528,15.0646C 43.2636,15.3124 43.4433,15.5169 43.6828,15.5533C 45.6266,15.8287 47.5292,16.3607 49.3385,17.1385C 49.9364,16.9477 52.4506,12.7508 52.8668,12.0457C 53.502,12.4292 56.5041,14.2307 57.1392,14.6054C 56.7583,15.337 54.63,19.4848 54.5181,19.704L 54.468,19.942C 54.469,20.0925 54.5299,20.2429 54.6585,20.3403C 56.2047,21.5872 57.6056,23.0268 58.8111,24.6336C 59.4276,24.7781 63.6539,22.4564 64.3529,22.072C 64.725,22.7278 66.4666,25.8323 66.8298,26.4793C 66.1553,26.9179 62.2972,29.3851 62.094,29.5149C 61.9497,29.6113 61.8643,29.7696 61.8652,29.9476L 61.9094,30.1325C 62.6536,32.0028 63.167,33.9685 63.4409,35.9775C 63.4694,36.2253 63.6657,36.4122 63.9062,36.422 Z "/>
	<path fill="#CBCBCB" fill-opacity="1" stroke-width="0.2" stroke-linejoin="round" d="M 18.857,30.1321L 19.0032,30.2206C 18.2669,32.1008 17.7545,34.097 17.4894,36.1826L 11.4234,36.3547L 11.4489,41.9087L 11.4234,36.3547L 11.4214,35.8503L 17.4875,35.6693C 17.5827,34.9033 17.7152,34.1481 17.8811,33.4057C 17.89,33.3654 17.8988,33.3241 17.9086,33.2847C 17.9194,33.2375 17.9302,33.1903 17.941,33.1441C 18.1825,32.1126 18.4908,31.1066 18.857,30.1321 Z "/>
	<path fill="#494949" fill-opacity="1" stroke-width="0.2" stroke-linejoin="round" d="M 19.0008,29.7167C 18.9478,29.8505 18.8977,29.9852 18.8466,30.1199L 13.836,26.8876L 14.0421,26.5169L 19.0008,29.7167 Z "/>
	<path fill="#CBCBCB" fill-opacity="1" stroke-width="0.2" stroke-linejoin="round" d="M 26.3105,58.4731L 26.4921,58.6206L 23.8562,63.7576L 23.6567,63.6376L 26.3105,58.4731 Z "/>
	<path fill="#A5A5A5" fill-opacity="1" stroke-width="0.2" stroke-linejoin="round" d="M 24.4342,21.4682L 24.4921,21.417C 24.9849,20.9332 25.4984,20.472 26.0314,20.0335L 26.1188,19.9548C 26.0364,20.0217 25.9549,20.0895 25.8361,20.1888C 25.7556,20.2567 25.6761,20.3245 25.5965,20.3934L 25.5573,20.4268C 25.4797,20.4947 25.4022,20.5625 25.2795,20.6717C 25.2048,20.7385 25.1302,20.8064 25.0075,20.9195C 24.9358,20.9853 24.8642,21.0532 24.7356,21.1751C 24.6669,21.24 24.5991,21.3049 24.4342,21.4682 Z "/>
	<path fill="#A5A5A5" fill-opacity="1" stroke-width="0.2" stroke-linejoin="round" d="M 26.1191,19.9543L 26.0317,20.034C 26.0651,20.0054 26.0985,19.9759 26.1191,19.9543 Z "/>
	<path fill="#494949" fill-opacity="1" stroke-width="0.2" stroke-linejoin="round" d="M 26.3143,19.7968C 26.2534,19.845 26.1925,19.8961 26.1317,19.9443L 23.4329,14.7502L 23.6312,14.6322L 26.3143,19.7968 Z "/>
	<path fill="#A6A6A6" fill-opacity="1" stroke-width="0.2" stroke-linejoin="round" d="M 28.4857,11.7427L 23.6311,14.6318L 23.4309,14.2463L 23.6292,14.6269L 28.4857,11.7427 Z "/>
	<path fill="#929292" fill-opacity="1" stroke-width="0.2" stroke-linejoin="round" d="M 37.6534,8.74753L 43.7607,7.81827L 49.6225,7.84778L 43.5153,8.77803L 37.6534,8.74753 Z "/>
	<path fill="#808180" fill-opacity="1" stroke-width="0.2" stroke-linejoin="round" d="M 43.5155,8.77773L 49.6227,7.84846L 49.8475,14.1193L 43.7403,15.0496L 43.5155,8.77773 Z "/>
	<path fill="#808080" fill-opacity="1" stroke-width="0.2" stroke-linejoin="round" d="M 57.8164,63.9333L 63.9237,63.0031L 59.0622,65.8922L 52.955,66.8224L 57.8164,63.9333 Z "/>
	<path fill="#1F1F1F" fill-opacity="1" stroke-width="0.2" stroke-linejoin="round" d="M 58.0178,64.3194L 64.1251,63.3891L 59.0633,66.3972L 52.957,67.3275L 58.0178,64.3194 Z "/>
	<path fill="#1F1F1F" fill-opacity="1" stroke-width="0.2" stroke-linejoin="round" d="M 57.8164,63.9333L 58.0177,64.3198L 52.9569,67.3269L 49.7232,61.9873C 47.9129,62.7454 45.9809,63.2755 43.9634,63.54L 43.7946,69.8177L 37.9327,69.7872L 37.6991,63.5065C 35.6866,63.2214 33.7506,62.6727 31.9236,61.8948L 28.7389,67.202L 23.6595,64.1418L 23.8539,63.7622L 28.737,66.6975L 31.9217,61.3815C 33.7477,62.1692 35.6846,62.7189 37.6961,63.0031L 37.9308,69.2828L 43.7926,69.3132L 43.9605,63.0355C 45.9789,62.771 47.9109,62.2419 49.7212,61.473L 52.955,66.8224L 57.8164,63.9333 Z "/>
	<path fill="#1F1F1F" fill-opacity="1" stroke-width="0.2" stroke-linejoin="round" d="M 57.8164,63.9333L 63.9237,63.0031L 64.125,63.3885L 58.0177,64.3198L 57.8164,63.9333 Z "/>
	<path fill="#808080" fill-opacity="1" stroke-width="0.2" stroke-linejoin="round" d="M 58.0159,63.8152L 64.1232,62.8859L 63.9269,63.0089L 57.8196,63.9381L 58.0159,63.8152 Z "/>
	<path fill="#CBCBCB" fill-opacity="1" stroke-width="0.2" stroke-linejoin="round" d="M 55.3133,58.62L 58.0159,63.815L 57.8196,63.9379L 55.1346,58.7675L 55.3133,58.62 Z "/>
	<path fill="#828282" fill-opacity="1" stroke-width="0.2" stroke-linejoin="round" d="M 57.2998,40.0611L 63.407,39.1308C 63.304,39.1525 63.2019,39.1702 63.0998,39.1859L 56.9935,40.1162C 57.0946,40.1004 57.1977,40.0817 57.2998,40.0611 Z "/>
	<path fill="#9C9C9C" fill-opacity="1" stroke-width="0.2" stroke-linejoin="round" d="M 54.9567,19.9447L 61.064,19.0144C 61.1248,19.0636 61.1867,19.1147 61.2466,19.1649L 55.1403,20.0951C 55.0794,20.045 55.0176,19.9938 54.9567,19.9447 Z "/>
	<path fill="#A5A5A5" fill-opacity="1" stroke-width="0.2" stroke-linejoin="round" d="M 55.4389,20.344C 55.5145,20.4079 55.5901,20.4728 55.6647,20.5377L 55.6883,20.5584C 55.5106,20.403 55.3309,20.2506 55.1483,20.1011C 55.2318,20.169 55.3152,20.2398 55.3987,20.3096 Z "/>
	<path fill="#A5A5A5" fill-opacity="1" stroke-width="0.2" stroke-linejoin="round" d="M 55.7284,20.5929C 55.7971,20.6539 55.8669,20.7148 56.0112,20.8436C 56.076,20.9026 56.1417,20.9617 56.2379,21.0511C 56.0661,20.8928 55.8924,20.7365 55.7166,20.5831L 55.7284,20.5929 Z "/>
	<path fill="#A5A5A5" fill-opacity="1" stroke-width="0.2" stroke-linejoin="round" d="M 56.2863,21.0961C 56.3492,21.1551 56.413,21.2151 56.5573,21.3517C 56.6191,21.4107 56.679,21.4688 56.7762,21.5641C 56.6054,21.397 56.4326,21.2328 56.2863,21.0961 Z "/>
	<path fill="#8C8C8C" fill-opacity="1" stroke-width="0.2" stroke-linejoin="round" d="M 62.5228,48.6241L 68.6301,47.6948C 68.6016,47.7666 68.5741,47.8374 68.5466,47.9092L 62.4394,48.8404L 62.5228,48.6241 Z "/>
	<path fill="#8C8C8C" fill-opacity="1" stroke-width="0.2" stroke-linejoin="round" d="M 62.5228,48.6241L 68.6301,47.6948C 68.6016,47.7666 68.5741,47.8374 68.5466,47.9092L 62.4394,48.8404L 62.5228,48.6241 Z "/>
	<path fill="#8C8C8C" fill-opacity="1" stroke-width="0.2" stroke-linejoin="round" d="M 62.5908,48.435L 68.6981,47.5048C 68.6745,47.5667 68.6529,47.6316 68.6294,47.6945L 62.5231,48.6238C 62.5457,48.5609 62.5682,48.496 62.5908,48.435 Z "/>
	<path fill="#000000" fill-opacity="1" stroke-width="0.2" stroke-linejoin="round" d="M 57.7916,14.9185L 55.141,20.0948C 55.0781,20.0447 55.0183,19.9945 54.9564,19.9444L 57.5913,14.8005L 57.7916,14.9185 Z "/>
	<path fill="#1F1F1F" fill-opacity="1" stroke-width="0.2" stroke-linejoin="round" d="M 57.7916,14.9185L 63.8989,13.9892L 61.2482,19.1646L 55.141,20.0948L 57.7916,14.9185 Z "/>
	<path fill="#979797" fill-opacity="1" stroke-width="0.2" stroke-linejoin="round" d="M 57.7858,14.421L 63.8931,13.4907L 63.7016,13.8703L 57.5954,14.8006L 57.7858,14.421 Z "/>
	<path fill="#B8B8B8" fill-opacity="1" stroke-width="0.2" stroke-linejoin="round" d="M 52.7008,11.3634L 58.8081,10.4331L 63.8924,13.4913L 57.7861,14.4206L 52.7008,11.3634 Z "/>
	<path fill="#9C9C9C" fill-opacity="1" stroke-width="0.2" stroke-linejoin="round" d="M 52.7008,11.3634L 58.8081,10.4331L 63.8963,13.4844L 57.79,14.4147L 52.7008,11.3634 Z "/>
	<path fill="#A2A2A2" fill-opacity="1" stroke-width="0.2" stroke-linejoin="round" d="M 61.8652,29.9472L 67.9724,29.017L 68.0166,29.2028L 61.9093,30.1331L 61.8652,29.9472 Z "/>
	<path fill="#808080" fill-opacity="1" stroke-width="0.2" stroke-linejoin="round" d="M 62.4355,30.3986L 68.5428,29.4683L 68.4623,29.5146L 62.355,30.4448L 62.4355,30.3986 Z "/>
	<path fill="#858585" fill-opacity="1" stroke-width="0.2" stroke-linejoin="round" d="M 62.5055,30.3107L 68.6128,29.3804L 68.5421,29.4689L 62.4358,30.3982L 62.5055,30.3107 Z "/>
	<path fill="#9E9E9E" fill-opacity="1" stroke-width="0.2" stroke-linejoin="round" d="M 62.3607,29.9404L 68.468,29.0102C 68.5171,29.1331 68.5642,29.257 68.6123,29.3809L 62.505,30.3102C 62.4579,30.1863 62.4098,30.0634 62.3607,29.9404 Z "/>
	<path fill="#808080" fill-opacity="1" stroke-width="0.2" stroke-linejoin="round" d="M 62.518,30.3457L 68.6253,29.4164L 68.5428,29.4685L 62.4355,30.3988L 62.518,30.3457 Z "/>
	<path fill="#999999" fill-opacity="1" stroke-width="0.2" stroke-linejoin="round" d="M 63.4412,35.9774L 69.5494,35.056L 63.4412,35.9774 Z "/>
	<path fill="#9C9C9C" fill-opacity="1" stroke-width="0.2" stroke-linejoin="round" d="M 63.4422,35.9851L 69.5602,35.1168L 63.4422,35.9851 Z "/>
	<path fill="#9E9E9E" fill-opacity="1" stroke-width="0.2" stroke-linejoin="round" d="M 63.4537,36.047L 69.5609,35.1168C 69.5698,35.1532 69.5825,35.1886 69.5992,35.221L 63.492,36.1503C 63.4753,36.1178 63.4635,36.0834 63.4537,36.047 Z "/>
	<path fill="#A1A1A1" fill-opacity="1" stroke-width="0.2" stroke-linejoin="round" d="M 63.492,36.1508L 69.6366,35.2845L 63.492,36.1508 Z "/>
	<path fill="#9E9E9E" fill-opacity="1" stroke-width="0.2" stroke-linejoin="round" d="M 63.5304,36.2141L 69.7104,35.3674L 63.5304,36.2141 Z "/>
	<path fill="#9C9C9C" fill-opacity="1" stroke-width="0.2" stroke-linejoin="round" d="M 63.6033,36.2972L 69.7577,35.4053L 63.6033,36.2972 Z "/>
	<path fill="#999999" fill-opacity="1" stroke-width="0.2" stroke-linejoin="round" d="M 63.6512,36.3357L 69.7997,35.432L 63.6512,36.3357 Z "/>
	<path fill="#969696" fill-opacity="1" stroke-width="0.2" stroke-linejoin="round" d="M 63.6924,36.3615L 69.8399,35.4519L 63.6924,36.3615 Z "/>
	<path fill="#949494" fill-opacity="1" stroke-width="0.2" stroke-linejoin="round" d="M 63.7327,36.3817L 69.8782,35.4672L 63.7327,36.3817 Z "/>
	<path fill="#919191" fill-opacity="1" stroke-width="0.2" stroke-linejoin="round" d="M 63.7711,36.3966L 69.9176,35.4782L 63.7711,36.3966 Z "/>
	<path fill="#8F8F8F" fill-opacity="1" stroke-width="0.2" stroke-linejoin="round" d="M 63.8103,36.4081L 69.9578,35.4867L 63.8103,36.4081 Z "/>
	<path fill="#8C8C8C" fill-opacity="1" stroke-width="0.2" stroke-linejoin="round" d="M 63.8506,36.4168L 70.0001,35.4914L 63.8506,36.4168 Z "/>
	<path fill="#8A8A8A" fill-opacity="1" stroke-width="0.2" stroke-linejoin="round" d="M 63.8928,36.4216L 70.0128,35.4923L 63.8928,36.4216 Z "/>
	<path fill="#9E9E9E" fill-opacity="1" stroke-width="0.2" stroke-linejoin="round" d="M 62.355,30.4446L 68.4623,29.5143C 68.8834,30.5616 69.2359,31.6433 69.5117,32.7555L 63.4045,33.6847C 63.1286,32.5735 62.7772,31.4909 62.355,30.4446 Z "/>
	<path fill="#9C9C9C" fill-opacity="1" stroke-width="0.2" stroke-linejoin="round" d="M 63.4048,33.6851L 69.512,32.7549C 69.7025,33.5229 69.8576,34.3056 69.9744,35.1012C 69.9941,35.2319 70.0117,35.3617 70.0294,35.4925L 63.9221,36.4228C 63.9055,36.292 63.8868,36.1612 63.8681,36.0314C 63.7513,35.2359 63.5952,34.4531 63.4048,33.6851 Z "/>
	<path fill="#A5A5A5" fill-opacity="1" stroke-width="0.2" stroke-linejoin="round" d="M 63.8612,35.4877L 63.8324,35.3087C 63.8406,35.3618 63.8494,35.4149 63.8612,35.4877 Z "/>
	<path fill="#BDBDBD" fill-opacity="1" stroke-width="0.2" stroke-linejoin="round" d="M 62.5084,30.3573L 68.6156,29.427C 68.971,30.3651 69.2753,31.3308 69.5208,32.3191L 63.4135,33.2493C 63.1681,32.261 62.8638,31.2954 62.5084,30.3573 Z "/>
	<path fill="#B8B8B8" fill-opacity="1" stroke-width="0.2" stroke-linejoin="round" d="M 63.4134,33.2492L 69.5207,32.319C 69.7357,33.1882 69.9065,34.0762 70.0272,34.9789L 63.921,35.9092C 63.8002,35.0065 63.6294,34.1185 63.4134,33.2492 Z "/>
	<path fill="#9E9E9E" fill-opacity="1" stroke-width="0.2" stroke-linejoin="round" d="M 62.5084,30.3573L 68.6156,29.427C 68.971,30.3651 69.2753,31.3308 69.5208,32.3191L 63.4135,33.2493C 63.1681,32.261 62.8638,31.2954 62.5084,30.3573 Z "/>
	<path fill="#9C9C9C" fill-opacity="1" stroke-width="0.2" stroke-linejoin="round" d="M 63.4134,33.2492L 69.5207,32.319C 69.7357,33.1882 69.9065,34.0762 70.0272,34.9789L 63.921,35.9092C 63.8002,35.0065 63.6294,34.1185 63.4134,33.2492 Z "/>
	<path fill="#A5A5A5" fill-opacity="1" stroke-width="0.2" stroke-linejoin="round" d="M 63.861,35.4872L 63.8325,35.3092C 63.8247,35.2552 63.8158,35.2021 63.7932,35.0624C 63.7766,34.967 63.7608,34.8707 63.7432,34.7753C 63.7373,34.7389 63.7294,34.7015 63.7235,34.6651C 63.7069,34.5776 63.6911,34.4911 63.6744,34.4045C 63.6656,34.3623 63.6578,34.321 63.6489,34.2787C 63.6332,34.198 63.6165,34.1174 63.5998,34.0378C 63.59,33.9915 63.5792,33.9443 63.5694,33.8971C 63.5537,33.8234 63.537,33.7477 63.5193,33.6739C 63.5085,33.6228 63.4968,33.5717 63.485,33.5205C 63.4693,33.4527 63.4526,33.3829 63.4359,33.315C 63.4231,33.2599 63.4094,33.2049 63.3956,33.1508C 63.3799,33.0859 63.3623,33.021 63.3466,32.9561C 63.3309,32.8981 63.3161,32.841 63.3014,32.783C 63.2847,32.722 63.269,32.6621 63.2523,32.6021C 63.2356,32.5421 63.2189,32.4811 63.2023,32.4221C 63.1865,32.3641 63.1689,32.3061 63.1522,32.2491C 63.1345,32.1871 63.1168,32.1251 63.0982,32.0632C 63.0825,32.0081 63.0658,31.9531 63.0481,31.899C 63.0285,31.8351 63.0098,31.7711 62.9892,31.7072C 62.9725,31.6531 62.9548,31.5991 62.9382,31.545C 62.9176,31.483 62.8979,31.4201 62.8773,31.3581C 62.8508,31.2785 62.8243,31.1998 62.7968,31.1221C 62.7801,31.07 62.7624,31.0189 62.7438,30.9668C 62.7084,30.8645 62.6721,30.7622 62.6142,30.6029C 62.5818,30.5174 62.5504,30.4318 62.518,30.3463L 62.4355,30.3984L 62.5082,30.3571C 63.1757,32.1202 63.6636,33.9797 63.9209,35.9091C 63.9032,35.7822 63.8865,35.6544 63.8669,35.5275 Z "/>
	<path fill="#8A8A8A" fill-opacity="1" stroke-width="0.2" stroke-linejoin="round" d="M 67.3998,52.0495L 73.507,51.1193L 70.8083,55.978L 64.701,56.9073L 67.3998,52.0495 Z "/>
	<path fill="#9D9D9D" fill-opacity="1" stroke-width="0.2" stroke-linejoin="round" d="M 62.4394,48.8403L 68.5466,47.91L 73.5063,51.1187L 67.4,52.0499L 62.4394,48.8403 Z "/>
	<path fill="#9C9C9C" fill-opacity="1" stroke-width="0.2" stroke-linejoin="round" d="M 67.4016,52.0457L 73.5089,51.1154L 73.5138,51.1181L 67.4065,52.0476L 67.4016,52.0457 Z "/>
	<path fill="#000000" fill-opacity="1" stroke-width="0.2" stroke-linejoin="round" d="M 67.4064,52.0486L 73.5137,51.1181L 73.7218,51.2521L 67.6146,52.183L 67.4064,52.0486 Z "/>
	<path fill="#1F1F1F" fill-opacity="1" stroke-width="0.2" stroke-linejoin="round" d="M 64.7009,56.9078L 67.4065,52.049L 67.6147,52.1828L 64.7029,57.4122L 59.3329,54.4307C 58.1647,55.9873 56.8128,57.3975 55.3167,58.6208L 55.1321,58.2648C 56.7009,57.0081 58.1146,55.5468 59.33,53.9262L 64.7009,56.9078 Z "/>
	<path fill="#1F1F1F" fill-opacity="1" stroke-width="0.2" stroke-linejoin="round" d="M 67.6145,52.183L 73.7217,51.2528L 70.81,56.4823L 64.7027,57.4115L 67.6145,52.183 Z "/>
	<path fill="#898989" fill-opacity="1" stroke-width="0.2" stroke-linejoin="round" d="M 67.6116,51.6779L 73.7189,50.7486L 73.5088,51.1154L 67.4015,52.0457L 67.6116,51.6779 Z "/>
	<path fill="#CBCBCB" fill-opacity="1" stroke-width="0.2" stroke-linejoin="round" d="M 62.5908,48.435L 67.6113,51.6781L 67.4013,52.0459L 62.4396,48.8402C 62.4701,48.7703 62.4969,48.6976 62.5231,48.6238C 62.5457,48.5609 62.5682,48.496 62.5908,48.435 Z "/>
	<path fill="#939393" fill-opacity="1" stroke-width="0.2" stroke-linejoin="round" d="M 67.6116,51.6779L 73.7189,50.7486L 73.5088,51.1154L 67.4015,52.0457L 67.6116,51.6779 Z "/>
	<path fill="#BABABA" fill-opacity="1" stroke-width="0.2" stroke-linejoin="round" d="M 62.5908,48.435L 68.6981,47.5048L 73.7186,50.7488L 67.6113,51.6781L 62.5908,48.435 Z "/>
	<path fill="#8A8A8A" fill-opacity="1" stroke-width="0.2" stroke-linejoin="round" d="M 63.9062,36.422L 70.0135,35.4917C 70.4081,35.5075 71.2927,35.5409 72.2764,35.5793L 66.1701,36.5085C 65.1864,36.4712 64.3009,36.4377 63.9062,36.422 Z "/>
	<path fill="#8A8A8A" fill-opacity="1" stroke-width="0.2" stroke-linejoin="round" d="M 63.9225,36.4225L 70.0298,35.4922L 71.9471,35.566L 65.8398,36.4962L 63.9225,36.4225 Z "/>
	<path fill="#8A8A8A" fill-opacity="1" stroke-width="0.2" stroke-linejoin="round" d="M 66.1697,36.5089L 72.277,35.5787L 75.6187,35.7085L 69.5115,36.6377L 66.1697,36.5089 Z "/>
	<path fill="#8A8A8A" fill-opacity="1" stroke-width="0.2" stroke-linejoin="round" d="M 69.5117,36.6381L 75.619,35.7079L 76.1059,35.7276L 69.9987,36.6568L 69.5117,36.6381 Z "/>
	<path fill="#CBCBCB" fill-opacity="1" stroke-width="0.2" stroke-linejoin="round" d="M 62.5084,30.3573C 63.1759,32.1204 63.6639,33.9799 63.9201,35.9093L 69.9969,36.1531L 69.9989,36.6566L 63.922,36.4226C 63.9053,36.2918 63.8867,36.161 63.8681,36.0322C 63.5804,34.0842 63.0693,32.2148 62.3552,30.4448L 62.4357,30.3986L 62.5084,30.3573 Z "/>
	<path fill="#A5A5A5" fill-opacity="1" stroke-width="0.2" stroke-linejoin="round" d="M 52.7032,11.8675L 57.5911,14.8008L 54.9562,19.9448C 55.0181,19.9939 55.0789,20.0441 55.1408,20.0952L 54.9582,20.4492C 56.5387,21.7217 57.9662,23.1967 59.1972,24.831L 64.5407,21.9046L 67.2846,26.7909L 62.3603,29.9405C 62.4094,30.0635 62.4575,30.1864 62.5056,30.3103L 62.4359,30.3988L 62.3554,30.445C 63.0691,32.214 63.5806,34.0844 63.8682,36.0314C 63.8869,36.1612 63.9056,36.292 63.9222,36.4228L 65.8395,36.4956C 64.7773,36.4552 63.9497,36.4238 63.9065,36.4218C 63.666,36.412 63.4687,36.2251 63.4412,35.9773C 63.1673,33.9683 62.6529,32.0026 61.9087,30.1333L 61.8655,29.9474C 61.8646,29.7704 61.949,29.6111 62.0943,29.5147C 62.2975,29.3849 66.1556,26.9177 66.8291,26.4791C 66.4669,25.8321 64.7253,22.7277 64.3532,22.0718C 63.6542,22.4572 59.64,24.6629 59.4279,24.7779C 59.3563,24.8173 59.2787,24.836 59.2021,24.835C 59.0529,24.834 58.9086,24.7632 58.8104,24.6334C 57.6059,23.0276 56.205,21.587 54.6587,20.3411C 54.5301,20.2437 54.4693,20.0923 54.4683,19.9418L 54.5184,19.7038C 54.6303,19.4855 56.7577,15.3368 57.1395,14.6062C 56.5044,14.2305 53.5013,12.429 52.8671,12.0455C 52.4499,12.7506 50.0623,16.7371 49.9367,16.9475C 49.8444,17.094 49.6844,17.1796 49.5224,17.1796C 49.4605,17.1786 49.3977,17.1658 49.3388,17.1383C 47.5295,16.3605 45.6269,15.8285 43.6831,15.5531C 43.4436,15.5167 43.263,15.3122 43.2531,15.0644C 43.2433,14.8176 43.0676,10.1113 43.0381,9.27933L 43.5182,9.28229L 43.743,15.5531C 45.7644,15.8471 47.7003,16.3959 49.5185,17.1747L 52.7032,11.8675 Z "/>
	<path fill="#808080" fill-opacity="1" stroke-width="0.2" stroke-linejoin="round" d="M 67.2847,26.7912L 73.392,25.8609L 68.4677,29.0106L 62.3604,29.9408L 67.2847,26.7912 Z "/>
	<path fill="#000000" fill-opacity="1" stroke-width="0.2" stroke-linejoin="round" d="M 67.2914,26.7921L 73.3987,25.8619L 73.6068,26.2346L 67.4995,27.1638L 67.2914,26.7921 Z "/>
	<path fill="#1F1F1F" fill-opacity="1" stroke-width="0.2" stroke-linejoin="round" d="M 67.4994,27.1642L 73.6067,26.234L 68.6255,29.4161L 62.5192,30.3454L 67.4994,27.1642 Z "/>
	<path fill="#000000" fill-opacity="1" stroke-width="0.2" stroke-linejoin="round" d="M 67.4994,27.1642L 62.5192,30.3454C 62.4671,30.2107 62.4141,30.075 62.3611,29.9402L 67.2913,26.7925L 67.4994,27.1642 Z "/>
	<path fill="#808080" fill-opacity="1" stroke-width="0.2" stroke-linejoin="round" d="M 67.4976,26.6596L 73.6048,25.7293L 73.3967,25.8591L 67.2894,26.7884L 67.4976,26.6596 Z "/>
	<path fill="#808080" fill-opacity="1" stroke-width="0.2" stroke-linejoin="round" d="M 67.2904,26.7916L 67.4976,26.6599L 67.2894,26.7887L 67.2904,26.7916 Z "/>
	<path fill="#CACACA" fill-opacity="1" stroke-width="0.2" stroke-linejoin="round" d="M 64.538,21.4005L 70.6452,20.47L 73.6041,25.7292L 67.4978,26.6595L 64.538,21.4005 Z "/>
	<path fill="#808080" fill-opacity="1" stroke-width="0.2" stroke-linejoin="round" d="M 67.4976,26.6596L 73.6048,25.7293L 73.3977,25.8611L 67.2904,26.7913L 67.4976,26.6596 Z "/>
	<path fill="#1F1F1F" fill-opacity="1" stroke-width="0.2" stroke-linejoin="round" d="M 63.9503,42.3832L 70.0242,42.2101L 70.0262,42.7146L 63.9523,42.8866C 63.7157,44.8238 63.2553,46.6824 62.5955,48.4357L 62.4365,48.3354C 63.1816,46.4641 63.6941,44.4689 63.9503,42.3832 Z "/>
	<path fill="#1F1F1F" fill-opacity="1" stroke-width="0.2" stroke-linejoin="round" d="M 70.0247,42.2103L 76.132,41.281L 76.1339,41.7845L 70.0267,42.7148L 70.0247,42.2103 Z "/>
	<path fill="#9C9C9C" fill-opacity="1" stroke-width="0.2" stroke-linejoin="round" d="M 69.9988,36.6568L 76.106,35.7276L 76.1316,41.2805L 70.0243,42.2098L 69.9988,36.6568 Z "/>
	<path fill="#949494" fill-opacity="1" stroke-width="0.2" stroke-linejoin="round" d="M 63.9206,35.9093L 70.0278,34.979L 76.1037,35.2229L 69.9964,36.1531L 63.9206,35.9093 Z "/>
	<path fill="#B9B9B9" fill-opacity="1" stroke-width="0.2" stroke-linejoin="round" d="M 69.9969,36.1527L 76.1039,35.2234L 76.1061,35.7269L 69.9989,36.6571L 69.9969,36.1527 Z "/>
	<radialGradient id="SVGID_Fill6_" cx="40.723" cy="36.4203" r="17.1697" gradientUnits="userSpaceOnUse">
		<stop offset="0" stop-color="#1F1F1F" stop-opacity="1"/>
		<stop offset="0.512931" stop-color="#676773" stop-opacity="1"/>
		<stop offset="1" stop-color="#181717" stop-opacity="1"/>
	</radialGradient>
	<path fill="url(#SVGID_Fill6_)" stroke-width="0.2" stroke-linejoin="round" d="M 57.3199,39.0307C 57.3199,29.5576 49.8892,21.8783 40.723,21.8783C 31.5567,21.8783 24.126,29.5576 24.126,39.0307C 24.126,48.5037 31.8261,56.2176 40.9923,56.2176C 50.1585,56.2176 57.3199,48.5037 57.3199,39.0307 Z M 28.9546,38.9877C 28.9546,32.291 34.2301,26.8624 40.7378,26.8624C 47.2456,26.8624 52.5211,32.291 52.5211,38.9877C 52.5211,45.6843 47.2455,51.113 40.7378,51.113C 34.2302,51.113 28.9546,45.6843 28.9546,38.9877 Z "/>
</svg>
