<svg enable-background="new 0 0 88.00 76.00" height="76" viewBox="0 0 88 76" width="88" xmlns="http://www.w3.org/2000/svg" xmlns:xlink="http://www.w3.org/1999/xlink"><linearGradient id="a" gradientTransform="matrix(0 1 -1 0 .228961 -.778777)" gradientUnits="objectBoundingBox" x1=".503869" x2="2.05368" y1="-.274908" y2="-.274908"><stop offset=".316279" stop-color="#f0f1ec" stop-opacity=".592157"/><stop offset=".800003" stop-color="#fff" stop-opacity="0"/></linearGradient><linearGradient id="b" gradientTransform="matrix(-.986419426397 .164245898658 -.164245898658 -.986419426397 1.939424360163 .714189860202)" gradientUnits="objectBoundingBox" x1=".940186" x2="2.52462" y1=".437275" y2=".437275"><stop offset=".274419" stop-color="#f0f1ec" stop-opacity=".501961"/><stop offset=".562791" stop-color="#fff" stop-opacity="0"/></linearGradient><linearGradient id="c" gradientTransform="matrix(-.998908814265 .046703113206 -.046703113206 -.998908814265 1.969855272531 .723893702575)" gradientUnits="objectBoundingBox" x1=".976471" x2="1.97707" y1=".384959" y2=".384959"><stop offset="0" stop-opacity=".301961"/><stop offset=".418605" stop-opacity=".301961"/><stop offset=".655814" stop-color="#1e1e1e" stop-opacity=".145098"/><stop offset=".902326" stop-color="#3a3a3a" stop-opacity="0"/></linearGradient><linearGradient id="d" gradientTransform="matrix(.904212857624 .427082085912 -.427082085912 .904212857624 -.305075872455 -.170553093093)" gradientUnits="objectBoundingBox" x1=".227681" x2="3.01549" y1="-.765391" y2="-.765391"><stop offset="0" stop-opacity=".301961"/><stop offset=".502326" stop-opacity=".301961"/><stop offset=".693023" stop-color="#1e1e1e" stop-opacity=".145098"/><stop offset=".800003" stop-color="#3a3a3a" stop-opacity="0"/></linearGradient><linearGradient id="e" gradientTransform="matrix(.112002763145 .993707895233 -.993707895233 .112002763145 .522107697457 -.287195436401)" gradientUnits="objectBoundingBox" x1=".421746" x2="1.14186" y1=".148533" y2=".148533"><stop offset=".0258621"/><stop offset=".25" stop-color="#393737"/><stop offset=".508621" stop-color="#494646"/><stop offset=".775862" stop-color="#434040"/><stop offset="1" stop-color="#181717"/></linearGradient><radialGradient id="f" cx="41.7996" cy="35.4828" gradientUnits="userSpaceOnUse" r="14.5927"><stop offset="0" stop-color="#1f1f1f"/><stop offset=".512931" stop-color="#676773"/><stop offset="1" stop-color="#181717"/></radialGradient><g stroke-linejoin="round"><path d="m13.4792 2.43747h61c6.0751 0 11 4.92487 11 11.00003v49.6667c0 6.0751-4.9249 11-11 11h-61c-6.07517 0-11.00004-4.9249-11.00004-11v-49.6667c0-6.07516 4.92487-11.00003 11.00004-11.00003z" fill="#8c9e64" stroke="#000"/><g stroke-width=".2"><path d="m73.499 4.92154h-58.1111c-3.034 0-6.8082.84714-9.5754 4.64534h.06589c.06588 35.59882 18.16601 35.71982 38.54311 35.71982 20.377 0 37.6866-.3444 38.016-35.80359v.02792c-1.4495-2.06667-3.3602-4.18919-8.9385-4.58949z" fill="url(#a)"/><path d="m73.2684 4.87499-16.9875 1.86187c-3.0339 0-19.1508-1.78743-21.918 2.01077l-8.0819 11.91597c4.3585 7.0054 19.6778-2.0853 22.0497-3.8354 23.631-3.0163 33.5468 28.0675 33.8762-7.39164v.02792c-1.4495-2.06666-3.3602-4.18918-8.9385-4.58949z" fill="url(#b)"/><path d="m31.5375 54.9871-20.4763-3.7299c1.4768 8.6769 23.4426 12.7283 27.1241 13.1758l3.6272-7.558z" fill="url(#c)"/><path d="m38.2064 64.4663c5.9886.5733 34.6951 2.9917 38.2297-1.4959l-13.3943-3.4903-21.1008-2.8342-3.7558 7.8184z" fill="url(#d)"/><path d="m21.3058 22.481 5.291-.8434 4.6598 2.7032-5.2909.8434z" fill="#f6fff6"/><path d="m40.2491 27.5167 5.1236-.7802.0665-.0101-.0031.0005c-.365.0556-.7234.132-1.0742.2278-1.6431.4492-3.1182 1.3258-4.3071 2.5073-.1776.1766-.3488.3599-.5132.5497l.0006-.0001-.7884 1.0365-.5357.9043-.3971.8474.0003-.0001-.2995.8182-.2233.8137-.1568.8317-.0913.8725c.2397-.0033-.0162.4797-.0209.7204l.0034.2271.0791 1.0534.2312 1.2406h.0002c.0565.2272.1203.4515.1911.6725.1656.5161.3695 1.0146.6082 1.4919l.7799 1.3123c.4504.6459.9706 1.2369 1.5492 1.7614l.9914.7925.8744.5492.8284.4131.7986.3115.7811.2297.8098.1654.8579.0978.62.023h.0003-.0003l-3.6382.7494-1.5521.0404c-.2122-.0011-.423-.0088-.6321-.0236-.287-.0201-.5709-.0529-.851-.0978-.5491-.0879-1.084-.2223-1.6007-.3991-.2691-.0921-.5333-.1956-.7923-.3104-.2801-.1239-.5537-.2606-.8202-.4095-.3005-.1678-.592-.351-.8734-.5485l-.0026-.0016v-.0002c-.3437-.2414-.6724-.5041-.9842-.7863l-.0051-.004-.0003-.0004c-.4675-.4235-.8965-.8905-1.2818-1.3955-.3986-.522-.75-1.0839-1.0474-1.6788-.2217-.4436-.4135-.9056-.5723-1.3829-.0853-.2561-.1611-.5165-.227-.7809l.0001-.0004-.0003.0001-.0011-.0058c-.0999-.402-.1769-.8132-.2295-1.2321l-.0006-.0032.0002-.0003c-.0432-.3449-.0698-.695-.0791-1.0493l-.0002-.0028-.0002-.0127c-.0017-.0715-.0028-.1431-.0031-.2152v-.0002c-.0011-.2419.0059-.4819.0209-.7196.0184-.2944.0491-.5854.0912-.8726.0413-.281.0938-.5583.1569-.8313h-.0003l.0017-.0065c.0634-.2736.1375-.5429.2218-.8074.0887-.2785.1887-.5516.2995-.8189l-.0004.0001.0028-.006c.1193-.2873.251-.5677.3944-.8407.1637-.3116.3426-.6134.5359-.9045h-.0002l.0015-.002c.2409-.3626.5038-.7085.7871-1.0353l.0001-.0001c1.5002-1.7317 3.5661-2.9293 5.8973-3.2845zm5.1901-.7903-.0031.0005z" fill="url(#e)"/><path d="m65.5179 45.0649c-.0217.0618-.045.1228-.0709.183.0234-.061.0476-.122.0709-.183z" fill="#808080"/><path d="m69.6645 47.9721.1786-.3118-.1744.3143z" fill="#a5a5a5"/><path d="m16.8977 35.4271 5.1906-.7906.0217 4.7204-5.1906.7906z" fill="#b9b9b9"/><path d="m16.8977 35.4271 5.1906-.7906.4139-.0109-5.1899.7898z" fill="#888"/><path d="m19.2207 48.532 5.1907-.7906 2.3304 4.1537-5.1907.7907z"/><path d="m18.9461 26.9515.0034-.005.1577.1087z" fill="#a5a5a5"/><path d="m18.9494 26.9466 5.1906-.7906.1577.1095-5.1906.7898z" fill="#9e9e9e"/><path d="m17.312 35.4152 5.1907-.7898 3.0896-.0886-5.1906.7907z" fill="#888"/><path d="m16.9193 40.1474 5.1906-.7906 5.1573.1997-5.1907.7898z"/><path d="m23.2769 45.504 5.1906-.7898-4.2336 2.7104-5.1898.7906z" fill="#808080"/><path d="m23.4113 45.8484 5.1898-.7906-4.1902 2.6836-5.1898.7906z" fill="#808080"/><path d="m23.2777 45.5064c.0517.1078.0893.2282.1335.3418l-4.1902 2.6837-.1769-.3168z" fill="#cbcbcb"/><path d="m23.2769 45.504c-.5691-1.496-.9746-3.0806-1.1982-4.7288l-5.1573-.1997-.0025-.4279 5.1581.1989c.2412 1.7752.6917 3.4759 1.3325 5.0722z"/><path d="m20.4018 35.3275 5.1906-.7907c.1002-.0025.1986-.0058.2954-.0083.1869-.005.232-.0059.2762-.0075.267-.0075.3721-.0109.4689-.0126.0442-.0016.0859-.0025.126-.0041.0951-.0026.1794-.0051.2495-.0067.06-.0017.1143-.0059.1643-.0126l-5.1898.7907c-.0509.0058-.1051.01-.1643.0125-.071.0017-.1552.0042-.2504.0067-.0392.0008-.0817.0017-.1251.0033-.0976.0025-.2028.0059-.4689.0134-.0451.0008-.0893.0025-.277.0075-.096.0025-.1945.0059-.2954.0084z" fill="#878787"/><path d="m21.9825 35.2752 5.1907-.7906.0267-.0033-5.1907.7906z" fill="#858585"/><path d="m20.4079 35.3271 5.1906-.7898 1.6454-.0468-5.1906.7898z" fill="#888"/><path d="m16.8961 34.9986 5.1895-.7906 5.1559-.153-5.1898.7898z" fill="#909090"/><path d="m21.415 22.9355 5.1904-.7906-2.2934 4.1295-5.1906.7906z" fill="#949494"/><path d="m21.415 22.9355 5.1904-.7906-2.2921 4.1303-5.1903.7907z" fill="#8a8a8a"/><path d="m21.5759 23.0796 5.1907-.7906c-.3037.5549-1.7606 3.1776-2.071 3.725l-5.1898.7906c.3096-.5474 1.7672-3.17 2.0701-3.725z" fill="#878787"/><path d="m26.0998 50.1986 5.1907-.7906-4.5491 2.4872-5.1906.7907z" fill="#808080"/><path d="m26.1019 50.6271 5.1906-.7898-4.549 2.4864-5.1906.7907z"/><path d="m23.2154 30.1383 5.1906-.7906c-.1251.3326-.2419.6686-.3504 1.0096l-5.1898.7906c.1076-.341.2244-.6778.3496-1.0096z" fill="#8c8c8c"/><path d="m22.8654 31.1479 5.1899-.7906c-.1611.5065-.3038 1.0213-.4272 1.5445l-5.1899.7906c.1227-.5232.2662-1.038.4272-1.5445z" fill="#8f8f8f"/><path d="m23.3396 30.2138 5.1907-.7906c-.1644.4178-.3146.8424-.4514 1.2728l-5.1907.7906c.1377-.4312.2879-.8549.4514-1.2728z" fill="#999"/><path d="m22.8882 31.4866 5.1907-.7907c-.1727.5416-.3238 1.0932-.4539 1.654l-5.1898.7906c.1293-.5608.2803-1.1124.453-1.6539z" fill="#9e9e9e"/><path d="m22.4347 33.1405 5.1907-.7906c-.1302.5608-.237 1.1308-.3229 1.7091l-5.1898.7907c.0851-.5784.1927-1.1484.322-1.7092z" fill="#a3a3a3"/><path d="m22.1125 34.8497 5.1906-.7907c-.0216.1438-.0408.2867-.0592.4313l-5.1906.7906c.0183-.1446.0383-.2883.0592-.4312z" fill="#a8a8a8"/><path d="m23.3376 29.7853 5.1907-.7906c-.0451.1136-.0885.2281-.131.3434l-5.1907.7898c.0434-.1144.086-.2289.131-.3426z"/><path d="m19.1229 27.0658 5.1907-.7906 4.2144 2.7195-5.1906.7907z"/><path d="m21.5759 23.0796 5.1907-.7906c.6049.3343 4.0333 2.244 4.2136 2.3443l-5.1899.7906c-.181-.1003-3.6095-2.0108-4.2144-2.3443z" fill="#969696"/><path d="m21.415 22.9355 5.1904-.7906 4.572 2.5349-5.1908.7898z" fill="#9b9b9b"/><path d="m21.413 22.5075 5.1906-.7907 4.5716 2.5341-5.1907.7906z" fill="#949694"/><path d="m26.9753 23.8166 5.1565-.7505z" fill="#828282"/><path d="m26.9411 23.8562 5.1364-.7279z" fill="#858585"/><path d="m26.887 23.9191 5.1431-.7355z" fill="#828282"/><path d="m26.8397 23.9737 5.1898-.7906c-.0226.0267-.0451.0535-.0676.0794-.0334.0401-.0668.0802-.1001.1203-.0343.0402-.0685.0803-.1018.1212-.0384.0468-.076.0945-.1143.1413-.0276.0342-.0551.0685-.0827.1028-.0425.0535-.0851.1078-.1268.1621-.0233.0293-.0467.0585-.0701.0886-.0642.0827-.1276.1671-.191.2524l-5.1898.7898c.0625-.0844.1268-.1688.191-.2524.0226-.0293.0459-.0585.0693-.0878.0417-.0543.0843-.1086.1268-.1621.0275-.0351.0551-.0685.0826-.1028l.1152-.1421c.0333-.0401.0667-.0802.1009-.1203.0334-.0402.0668-.0803.1001-.1204.0226-.0267.0459-.0526.0685-.0794z" fill="#858585"/><path d="m27.1029 16.6367 5.1906-.7906.1686.3234-5.1907.7907z" fill="#a5a5a5"/><path d="m29.3978 21.4827 5.1807-.7847c-.0701.0568-.1394.1144-.2412.1989-.0684.0576-.136.1161-.2035.1738l-.0326.0284c-.0659.0577-.1318.1154-.2361.2081-.0634.0568-.1268.1145-.2311.2106-.0618.0569-.1218.1137-.232.2173-.0576.056-.1151.1112-.1727.1672l-.0534.0526c-.0559.0544-.1101.1095-.2244.2249-.0526.0534-.1052.1069-.2228.2298-.0484.0518-.0976.1036-.1469.1554-.0242.0268-.0484.0527-.0726.0794-.0459.0494-.0917.0995-.1368.1496-.0275.0301-.0542.0602-.0809.0903-.0426.0476-.0843.0944-.126.1421l-5.1898.7898c.0408-.0468.0834-.0945.1259-.1413.0267-.0301.0535-.0601.0801-.0902.0451-.0502.0918-.1003.1377-.1505l.0726-.0785c.0484-.0518.0976-.1037.2128-.2248.0517-.0535.1043-.107.2152-.2207.0551-.0551.1102-.1103.2195-.2181.0567-.056.1143-.1112.2219-.2131.0601-.0569.121-.1145.2236-.209.0626-.0576.126-.1153.2287-.2072.065-.0577.131-.1154.2302-.2015.0668-.0585.1352-.1161.2353-.2006.0693-.0576.1385-.1153.2186-.178z" fill="#828282"/><path d="m29.5555 21.7827 5.1906-.7898c-.9679.7706-1.8598 1.6322-2.67 2.57l-5.1906.7906c.8101-.9377 1.7021-1.8002 2.67-2.5708z" fill="#858585"/><path d="m26.8857 24.3532 5.1907-.7898c-.3121.3611-.6116.733-.8995 1.1166l-5.1898.7898c.287-.3828.5866-.7555.8986-1.1166z" fill="#8a8a8a"/><path d="m29.3999 21.4827 5.1906-.7906.1552.3009-5.1898.7898z" fill="#cacaca"/><path d="m27.2732 16.9644 5.1908-.7898 2.2802 4.3895-5.1907.7898z"/><path d="m29.5535 21.3542 5.1906-.7906c-.0517.0417-.1035.0844-.1552.1262l-5.1906.7898c.0517-.041.1034-.0845.1552-.1254z"/><path d="m31.399 14.509 5.1898-.7907-4.1268 2.4513-5.1906.7906z" fill="#808080"/><path d="m31.399 14.509 5.1898-.7907-4.1251 2.4563-5.1907.7898z" fill="#808080"/><path d="m27.6565 16.7971 5.1907-.7898c.322.6252 2.1627 4.1688 2.2594 4.3552l-5.1906.7906c-.0968-.1864-1.9366-3.7308-2.2595-4.356z" fill="#a1a1a1"/><path d="m31.2609 14.6587 5.1907-.7906c-.5365.3209-3.068 1.8253-3.6045 2.1387l-5.1907.7906c.5365-.3134 3.068-1.8186 3.6045-2.1387z" fill="#828282"/><path d="m31.2609 14.6587 5.1907-.7906c.3663.6034 2.4272 4.0125 2.5356 4.1922l-5.1898.7906c-.1093-.1797-2.1702-3.5896-2.5365-4.1922z" fill="#a1a1a1"/><path d="m31.2609 14.6587 5.1907-.7906c.3663.6034 2.4272 4.0125 2.5356 4.1922l-5.1898.7906c-.1093-.1797-2.1702-3.5896-2.5365-4.1922z" fill="#a1a1a1"/><path d="m31.399 14.509 5.1898-.7907 2.7485 4.5391-5.1907.7906z" fill="#a5a5a5"/><path d="m31.3969 14.0805 5.1898-.7907 2.7485 4.5391-5.1907.7906z" fill="#949694"/><path d="m38.6525 17.7831 5.1906-.7898c-1.3558.2056-2.6683.5549-3.9215 1.0313-.1961.0744-.3913.1521-.5841.2332l-5.1906.7898c.1927-.0803.3879-.158.584-.2332 1.2541-.4756 2.5657-.8249 3.9216-1.0313z" fill="#858585"/><path d="m38.7218 17.774 5.1907-.7906c-1.5236.2323-3.0071.6552-4.4155 1.2445-.0326.0142-.066.0242-.0985.0292l-5.1906.7898c.0325-.005.0659-.0142.0984-.0284 1.4084-.5901 2.892-1.0121 4.4155-1.2445z" fill="#828282"/><path d="m38.6525 17.7831 5.1906-.7898c.1294-.0201.2595-.0385.3897-.056l-5.1898.7906c-.1302.0175-.2612.0359-.3905.0552z" fill="#858585"/><path d="m38.6525 17.7831 5.1906-.7898c.1294-.0201.2595-.0385.3897-.056l-5.1898.7906c-.1302.0175-.2612.0359-.3905.0552z" fill="#858585"/><path d="m38.6525 17.7831 5.1906-.7898c.1294-.0201.2595-.0385.3897-.056l-5.1898.7906c-.1302.0175-.2612.0359-.3905.0552z" fill="#858585"/><path d="m38.7046 17.7765 5.1907-.7907c.1318-.02.2637-.0384.3955-.056l-5.1898.7907c-.1327.0175-.2645.0359-.3964.056z" fill="#858585"/><path d="m38.7046 17.7765 5.1907-.7907c.1318-.02.2637-.0384.3955-.056l-5.1898.7907c-.1327.0175-.2645.0359-.3964.056z" fill="#858585"/><path d="m38.7226 17.3378 5.1906-.7907c.106-.0158.212-.0309.3179-.0451l-5.1906.7898c-.106.0142-.212.0292-.3179.046z" fill="#8a8a8a"/><path d="m39.1927 12.3918 5.1907-.7898-.1502 5.3355-5.1906.7906z" fill="#b7b7b7"/><path d="m39.5928 12.3942 5.1907-.7906c-.0184.7062-.1319 4.7045-.1385 4.931l-5.1898.7748c.0058-.2107.1193-4.209.1376-4.9152z" fill="#969696"/><path d="m39.4543 17.3251 5.1865-.7521z" fill="#949494"/><path d="m39.4502 17.3635 5.184-.7539z" fill="#919191"/><path d="m39.4437 17.3999 5.1807-.7556z" fill="#8f8f8f"/><path d="m39.434 17.435 5.1781-.7556z" fill="#8c8c8c"/><path d="m39.4213 17.4696 5.1739-.7547z" fill="#8a8a8a"/><path d="m39.4046 17.5051 5.1681-.753z" fill="#878787"/><path d="m39.3826 17.5423 5.1581-.748z" fill="#858585"/><path d="m39.3509 17.5843 5.1898-.7898c-.0618.0719-.1485.1212-.2495.1354l-5.1907.7906c.101-.0142.1878-.0643.2504-.1362z" fill="#828282"/><path d="m39.5928 12.3942 5.1907-.7906c-.0184.7062-.1319 4.7045-.1385 4.931l-5.1898.7748c.0058-.2107.1193-4.209.1376-4.9152z" fill="#969696"/><path d="m39.1927 12.3918 5.1907-.7898.3997.0017-5.1907.7906z" fill="#898989"/><path d="m39.5928 12.3942 5.1907-.7906 4.1744.0217-5.1907.7898z" fill="#898989"/><path d="m43.7675 12.4154 5.1907-.7897c.0242.7062.1744 4.7061.1852 4.9535l-5.1931.753c-.0084-.2106-.1577-4.2097-.1828-4.9168z" fill="#999"/><path d="m43.9529 17.37 5.1999-.738z" fill="#9c9c9c"/><path d="m43.9627 17.4227 5.1907-.7907c.0075.0326.0191.0627.0342.092l-5.1907.7906c-.015-.0292-.0259-.0602-.0342-.0919z" fill="#9e9e9e"/><path d="m43.9969 17.5145 5.2224-.7371z" fill="#a1a1a1"/><path d="m44.0287 17.5675 5.1906-.7906.0643.0744-5.1898.7898z" fill="#9e9e9e"/><path d="m44.0934 17.6414 5.2324-.7564z" fill="#9c9c9c"/><path d="m44.1354 17.6749 5.2274-.7664z" fill="#999"/><path d="m44.1725 17.6986 5.2249-.7731z" fill="#969696"/><path d="m44.2076 17.7157 5.2248-.7773z" fill="#949494"/><path d="m44.2418 17.7292 5.2249-.7798z" fill="#919191"/><path d="m44.2764 17.7393 5.2257-.7831z" fill="#8f8f8f"/><path d="m44.3119 17.7467 5.194-.7898c.1143.0159.2286.0334.3421.0518l-5.1899.7898c-.1143-.0175-.2277-.0351-.3462-.0518z" fill="#8c8c8c"/><path d="m44.6577 17.7989 5.1907-.7898c.5315.0845 1.0588.1931 1.5811.3226l-5.1898.7907c-.5223-.1304-1.0496-.2382-1.582-.3235z" fill="#8f8f8f"/><path d="m46.2393 18.1225 5.1906-.7906c.5182.1296 1.0313.2808 1.537.4538l-5.1907.7907c-.5056-.173-1.0188-.3243-1.5369-.4539z" fill="#919191"/><path d="m47.7765 18.5764 5.1906-.7907c.4539.1555.9028.3285 1.345.519l-5.1898.7907c-.4422-.1906-.8919-.3636-1.3458-.519z" fill="#949494"/><path d="m43.7675 12.4154 5.1907-.7897.4072.0016-5.1907.7907z" fill="#898989"/><path d="m44.175 12.4179 5.1906-.7907.1911 5.3297-5.1907.7906z" fill="#9d9d9d"/><path d="m44.3665 17.7475 5.1906-.7906c.0976.0142.1952.0293.2929.0451l-5.1907.7907c-.0976-.0159-.1952-.031-.2928-.0452z" fill="#8c8c8c"/><path d="m44.6594 17.7924 5.1907-.7906c.5615.0903 1.1147.2031 1.6587.3393l-5.1898.7906c-.5449-.1362-1.0981-.2499-1.6596-.3393z" fill="#8f8f8f"/><path d="m46.3187 18.1316 5.1907-.7907c.5406.1354 1.0721.2926 1.5945.4714l-5.1907.7898c-.5215-.178-1.0538-.3351-1.5945-.4705z" fill="#919191"/><path d="m47.9134 18.602 5.1906-.7898c.4614.158.9153.3327 1.3609.5232l-5.1898.7906c-.4456-.1913-.9003-.366-1.3617-.524z" fill="#949494"/><path d="m44.3645 17.3195 5.1906-.7907c.0976.0142.1952.0293.2929.0452l-5.1907.7898c-.0976-.0151-.1952-.0301-.2928-.0443z" fill="#999"/><path d="m44.6573 17.3639 5.1907-.7898c.5615.0895 1.1147.2031 1.6587.3385l-5.1898.7906c-.5449-.1353-1.0981-.249-1.6596-.3393z" fill="#9e9e9e"/><path d="m46.3167 17.7034 5.1907-.7906c.5406.1354 1.0721.2925 1.5945.4705l-5.1907.7906c-.5215-.178-1.0538-.3359-1.5945-.4705z" fill="#a3a3a3"/><path d="m47.9113 18.1739 5.1906-.7906c.4615.1588.9154.3335 1.3617.524l-5.1906.7898c-.4456-.1905-.8995-.3652-1.3617-.5232z" fill="#a8a8a8"/><path d="m51.9817 14.615 5.1907-.7898-2.7076 4.5106-5.1898.7898z" fill="#929292"/><path d="m52.1207 14.7665 5.1907-.7907c-.3538.5993-2.3838 3.9883-2.4915 4.1663l-5.1898.7906c.1068-.1788 2.1368-3.567 2.4906-4.1662z" fill="#878787"/><path d="m55.7523 16.9424 5.1907-.7907c-.3246.6218-2.1327 4.1471-2.2278 4.3326l-5.1906.7907c.0951-.1856 1.9032-3.7108 2.2277-4.3326z" fill="#8a8a8a"/><path d="m52.1207 14.7665 5.1907-.7907c.539.326 3.0913 1.8571 3.6312 2.1763l-5.1898.7907c-.5407-.3193-3.0922-1.8504-3.6321-2.1763z" fill="#999"/><path d="m51.9817 14.615 5.1907-.7898 4.1543 2.4923-5.1906.7906z" fill="#9c9c9c"/><path d="m53.5246 21.275 5.1907-.7906-.0426.2031-5.1906.7898z" fill="#959595"/><path d="m53.4818 21.4775 5.1907-.7898v.0092z" fill="#969696"/><path d="m53.4823 21.4877 5.1939-.7447z" fill="#999"/><path d="m53.4855 21.5338 5.1998-.7363z" fill="#9c9c9c"/><path d="m53.4957 21.588 5.1898-.7906c.0083.0309.0192.061.0334.0894l-5.1907.7898c-.0142-.0276-.025-.0576-.0325-.0886z" fill="#9e9e9e"/><path d="m53.5283 21.677 5.2207-.738z" fill="#a1a1a1"/><path d="m53.5593 21.7289 5.249-.7246z" fill="#9e9e9e"/><path d="m53.6175 21.7946 5.2165-.7681z" fill="#9c9c9c"/><path d="m56.1362 17.108 5.1906-.7906-2.2395 4.3719-5.1906.7906z" fill="#8b8b8b"/><path d="m56.1362 17.108 5.1906-.7906.1702.1003-5.1906.7906z"/><path d="m44.173 11.989.191 5.3305c1.718.249 3.3642.7162 4.9087 1.3781l2.7067-4.5114 4.322 2.5992-.1618.3226-4.1577-2.4931-2.7067 4.5115c-1.5453-.6628-3.1907-1.1291-4.9087-1.379l-.1919-5.3297-4.982-.0259-.1494 5.3363c-1.4952.1956-2.9386.5642-4.312 1.0865-.1961.0753-.3913.153-.5841.2332l-2.7484-4.539-4.1268 2.4513-.1686-.3235 4.2937-2.5566 2.7476 4.5399c1.5461-.646 3.1882-1.0957 4.8961-1.328l.1502-5.3289z" fill="#cbcbcb"/><path d="m25.987 25.4697c1.0338-1.3773 2.2278-2.6192 3.5686-3.6873l-.1543-.3009c.0484-.0435.1001-.0861.1518-.1271l-2.2795-4.3902 4.1252-2.4555 2.7484 4.539c.1927-.0802.388-.1579.5832-.2331 1.3742-.5216 2.8177-.891 4.3121-1.0865l.1502-5.3364.4005.0025c-.0184.7062-.1319 4.7045-.1377 4.9152-.0067.2097-.151.3819-.3546.4111-1.6571.2165-3.2699.6595-4.7943 1.298-.0518.0225-.106.0334-.1586.0334-.1393-.0008-.2711-.076-.3512-.2014-.1085-.1789-2.1694-3.5888-2.5357-4.1922-.5365.3209-3.068 1.8261-3.6045 2.1387.3229.6252 2.1627 4.1696 2.2595 4.356l.0517.2031c.0008.1279-.0567.2558-.1577.3377-1.3116 1.0455-2.4848 2.2574-3.496 3.6121-.0818.1087-.2044.168-.3304.1672-.0659 0-.1319-.0159-.1936-.0493-.1802-.1003-3.6095-2.01-4.2144-2.3443-.3029.5549-1.7597 3.1775-2.0701 3.725.5832.3786 3.8748 2.5089 4.0484 2.6209.131.0836.1969.219.1977.3694l-.0284.158c-.6182 1.5829-1.0471 3.2486-1.2574 4.9544-.0275.2098-.1944.3669-.398.3736-.0375.0008-.7501.0209-1.6604.0459l1.6463-.0459c.2244-1.7727.66-3.4693 1.2857-5.0673l-.1326-.0852.0317-.0844c.0325-.0861.0651-.173.0993-.2583l-4.2153-2.7196 2.2929-4.1303z" fill="#a5a5a5"/><path d="m23.7234 29.9526 5.1907-.7898c-.1619.4137-.3104.8333-.4456 1.2578l-5.1906.7898c.1351-.4237.2837-.8433.4455-1.2578z" fill="#8c8c8c"/><path d="m23.2777 31.2108 5.1907-.7898c-.1694.5323-.3179 1.0723-.4448 1.6188l-5.1898.7898c.126-.5457.2745-1.0865.4439-1.6188z" fill="#8f8f8f"/><path d="m22.8337 32.83 5.1906-.7906c-.1235.5332-.2253 1.0715-.3054 1.6147l-5.1898.7906c.0793-.5432.1819-1.0823.3046-1.6147z" fill="#919191"/><path d="m22.5289 34.4444 5.1898-.7906c-.0226.1538-.0434.3084-.0626.4697l-5.1898.7831c.0192-.1538.04-.3084.0626-.4622z" fill="#949494"/><path d="m26.0998 50.1986 5.1907-.7906c.8035 1.0656 1.6996 2.0526 2.6841 2.9427l-5.1906.7907c-.9837-.891-1.8807-1.878-2.6842-2.9428z"/><path d="m28.7842 53.1409 5.1907-.7898c.2979.2692.6041.5291.9178.7815l-5.1898.7906c-.3137-.2516-.6208-.5131-.9187-.7823z"/><path d="m27.0373 49.5384 5.1907-.7907c.8218 1.176 1.7697 2.2524 2.8235 3.2069l-5.1898.7906c-1.0538-.9553-2.0025-2.0317-2.8244-3.2068z" fill="#9e9e9e"/><path d="m29.5481 54.224 5.1907-.7906-2.2528 4.3919-5.1907.7898z" fill="#8b8b8b"/><path d="m29.7046 54.3514 5.1906-.7907-2.2406 4.3661-5.1903.7906z" fill="#969696"/><path d="m29.7026 53.9229 5.1906-.7898-.1543.3-5.1907.7907z"/><path d="m27.0373 49.5384 5.1907-.7907c.8218 1.176 1.7697 2.2524 2.8235 3.2069l-5.1898.7906c-1.0538-.9553-2.0025-2.0317-2.8244-3.2068z" fill="#9e9e9e"/><path d="m29.8614 52.7451 5.1898-.7906c.5741.5198 1.1782 1.0029 1.8106 1.4467l-5.1906.7906c-.6325-.4438-1.2366-.9277-1.8098-1.4467z" fill="#9c9c9c"/><path d="m29.8614 52.7451 5.1898-.7906c.5741.5198 1.1782 1.0029 1.8106 1.4467l-5.1906.7906c-.6325-.4438-1.2366-.9277-1.8098-1.4467z" fill="#9c9c9c"/><path d="m27.4626 58.7212 5.1906-.7898 4.1494 2.4939-5.1898.7898z"/><path d="m34.3193 56.6979 5.1907-.7907-2.7067 4.5182-5.1907.7898z" fill="#898989"/><path d="m34.3213 57.1337 5.1907-.7898-2.7067 4.5106-5.1907.7898z" fill="#1f1f1f"/><path d="m34.3193 56.6979 5.1907-.7907c.4547.1956.917.3745 1.3867.5349l-5.1906.7915c-.4698-.1613-.932-.3402-1.3868-.5357z"/><path d="m35.7061 57.2332 5.1907-.7906c.5115.1755 1.0321.3285 1.5611.4605l-5.1906.7907c-.5282-.1313-1.0489-.2859-1.5612-.4606z"/><path d="m37.2673 57.6936 5.1907-.7898c.5285.132 1.0647.2415 1.6078.3284l-5.1898.7907c-.544-.0869-1.0797-.1973-1.6087-.3293z"/><path d="m38.8758 58.0225 5.1906-.7898c.1168.0183.2336.0367.3513.0526l-5.1907.7898c-.1168-.0159-.2344-.0343-.3512-.0526z"/><path d="m29.8614 52.7451 5.1898-.7906c.5741.5198 1.1782 1.0029 1.8106 1.4467l-5.1906.7906c-.6325-.4438-1.2366-.9277-1.8098-1.4467z" fill="#9c9c9c"/><path d="m31.6712 54.1922 5.1906-.7907c.5165.3627 1.0514.6996 1.6037 1.008l-5.1908.7898c-.5514-.3084-1.0862-.6444-1.6035-1.0071z" fill="#999"/><path d="m33.2751 55.1993 5.1907-.7898c.4881.2725.9895.5232 1.5018.7497l-5.1898.7898c-.5131-.2265-1.0146-.4772-1.5027-.7497z" fill="#969696"/><path d="m34.7776 55.9494 5.1907-.7898c.4739.2098.957.3987 1.4501.5675l-5.1898.7906c-.4931-.1688-.977-.3585-1.451-.5683z" fill="#949494"/><path d="m36.2285 56.5175 5.1898-.7898c.4756.1621.9595.3059 1.451.4279l-5.1907.7906c-.4914-.1228-.9754-.2666-1.4501-.4287z" fill="#919191"/><path d="m37.6789 56.9459 5.1906-.7898c.4873.1212.9829.2223 1.4844.3034l-5.1899.7901c-.5023-.0797-.997-.1817-1.4851-.3037z" fill="#8f8f8f"/><path d="m39.1638 57.2495 5.1906-.7897c.5132.0819 1.0338.142 1.5612.1796l-5.1907.7898c-.5265-.0367-1.0471-.0969-1.5611-.1797z" fill="#8c8c8c"/><path d="m25.9849 25.0412c.6141-.8215 1.29-1.5946 2.0192-2.31l-.0485.0435c-.0449.0451-.0908.0902-.1951.1955-.0526.0535-.1043.107-.2221.2299-.0491.0518-.0986.1036-.1467.1554-.0242.0267-.0484.0527-.0726.0794-.0459.0493-.0918.0995-.1369.1496-.0275.0301-.0542.0602-.0809.0903-.0425.0468-.0844.0944-.126.1421-.0309.0351-.0609.0702-.0909.1053-.0376.0434-.0751.0869-.1127.1312-.0342.0392-.0677.0802-.1009.1195-.0334.0409-.0668.0811-.1004.1212-.039.0476-.0765.0944-.1149.1421-.0275.0342-.0551.0676-.0826.1019-.0429.0535-.0851.1078-.1277.1622-.0225.0292-.0458.0593-.0692.0885-.0643.0836-.1277.1672-.1911.2524z" fill="#a5a5a5"/><path d="m29.3999 21.4827.156.3001c-1.3409 1.0672-2.5357 2.3092-3.5686 3.6874l-4.5724-2.5349-2.2929 4.1295-.1727-.1179 2.4639-4.4395 4.5716 2.534c.9895-1.3247 2.1401-2.5207 3.4151-3.5587z" fill="#cbcbcb"/><path d="m29.9681 21.3563 5.1899-.7622z" fill="#969696"/><path d="m29.9674 21.3848 5.1865-.7547z" fill="#949494"/><path d="m29.9637 21.4203 5.184-.7555z" fill="#919191"/><path d="m29.9572 21.455 5.1806-.7556z" fill="#8f8f8f"/><path d="m29.9478 21.4897 5.1773-.7556z" fill="#8c8c8c"/><path d="m29.9348 21.5248 5.1731-.7539z" fill="#8a8a8a"/><path d="m29.9181 21.5607 5.1673-.7513z" fill="#878787"/><path d="m29.8952 21.5991 5.1573-.7472z" fill="#858585"/><path d="m29.8623 21.6423 5.1372-.7388c-.9462.7547-1.8198 1.5954-2.6141 2.5139l-5.1898.7907c.7935-.9194 1.6679-1.7601 2.6667-2.5658z" fill="#828282"/><path d="m46.1179 23.8639 5.1906-.7906c.3813.1304.756.2774 1.1231.4404l-5.1906.7898c-.3672-.1621-.741-.3092-1.1231-.4396z" fill="#949494"/><path d="m47.2411 24.3034 5.1907-.7898c.3963.1755.7835.3694 1.1614.5801l-5.1906.7898c-.3772-.2107-.7651-.4046-1.1615-.5801z" fill="#969696"/><path d="m48.4027 24.8838 5.1906-.7906c.4255.2381.8394.4981 1.2382.778l-5.1906.7907c-.3989-.28-.8119-.5399-1.2382-.7781z" fill="#999"/><path d="m48.4027 24.8838 5.1906-.7906c.4255.2381.8394.4981 1.2382.778l-5.1906.7907c-.3989-.28-.8119-.5399-1.2382-.7781z" fill="#999"/><path d="m49.6412 25.6615 5.1907-.7906c.4881.3435.9545.7171 1.3975 1.1174l-5.1906.7907c-.4422-.4012-.9095-.7748-1.3976-1.1175z" fill="#9c9c9c"/><path d="m51.0386 26.7789 5.1907-.7907c.8126.7372 1.5444 1.5679 2.1785 2.4747l-5.1906.7907c-.6342-.9077-1.3651-1.7384-2.1786-2.4747z" fill="#9e9e9e"/><path d="m53.2174 29.2536 5.1907-.7907c.413.5926.7851 1.2169 1.1122 1.8696l-5.1907.7907c-.327-.6528-.6983-1.2779-1.1122-1.8696z" fill="#a1a1a1"/><path d="m55.8884 38.5771 5.1907-.7906c-.0876.0183-.1744.0334-.2612.0468l-5.1898.7906c.0859-.0134.1736-.0293.2603-.0468z" fill="#828282"/><path d="m54.3296 31.123 5.1907-.7906c.4814.9644.8627 1.9908 1.1297 3.0622l-5.1906.7906c-.267-1.0722-.6483-2.0977-1.1298-3.0622z" fill="#9e9e9e"/><path d="m55.4598 34.1852 5.1907-.7906c.1435.5759.2528 1.1642.3279 1.7643l-5.1899.7898c-.075-.5992-.1852-1.1885-.3287-1.7635z" fill="#9c9c9c"/><path d="m55.7882 35.949 5.1907-.7898c.0617.4923.0993.9913.1118 1.4975l-5.1898.79c-.0126-.5056-.0509-1.0054-.1127-1.4977z" fill="#999"/><path d="m55.9006 37.4471 5.1907-.7906c.0033.1078.005.2156.005.3234.0008.0677.0008.1354 0 .2023-.0017.0986-.0025.153-.0036.2073-.0023.0944-.0039.1471-.0056.2006-.0042.1011-.0067.1487-.0084.1964l-5.1906.7906c.0019-.0485.0042-.0953.0083-.1964.0017-.0535.0034-.1062.0059-.2014.0008-.0535.0016-.107.0033-.2073.0008-.0669.0008-.1346 0-.2014 0-.1087-.0017-.2165-.005-.3235z" fill="#969696"/><path d="m53.6435 21.8165 5.1907-.7906c.3054.2466.6041.5023.8969.7664l-5.1906.7906c-.2912-.2641-.5916-.5198-.897-.7664z" fill="#9c9c9c"/><path d="m54.5407 22.5825 5.1906-.7906c.962.8708 1.8465 1.8353 2.6316 2.8825l-5.1906.7907c-.7852-1.0481-1.6696-2.0117-2.6316-2.8826z" fill="#9e9e9e"/><path d="m54.8039 22.6809 5.1906-.7907c.9863.8926 1.8907 1.8822 2.6967 2.952l-5.1906.7906c-.8052-1.0698-1.7096-2.0593-2.6967-2.9519z" fill="#9e9e9e"/><path d="m54.8039 22.6809 5.1906-.7907c.9863.8926 1.8907 1.8822 2.6967 2.952l-5.1906.7906c-.8052-1.0698-1.7096-2.0593-2.6967-2.9519z" fill="#9e9e9e"/><path d="m54.0535 21.6076 5.1898-.7906-.1544.3008-5.1906.7907z" fill="#8b8b8b"/><path d="m53.8986 21.9084 5.1907-.7906c.3087.249.6099.5064.9052.773l-5.1906.7898c-.2954-.2666-.5966-.524-.9053-.7722z" fill="#9c9c9c"/><path d="m54.8039 22.6809 5.1906-.7907c.9863.8926 1.8907 1.8822 2.6967 2.952l-5.1906.7906c-.8052-1.0698-1.7096-2.0593-2.6967-2.9519z" fill="#9e9e9e"/><path d="m54.0502 21.608 5.1907-.7898c.2636.2156.5231.4388.7759.6678l-5.1898.7906c-.2536-.229-.5131-.4521-.7768-.6686z" fill="#b8b8b8"/><path d="m54.8267 22.2765 5.1906-.7898c.9796.8859 1.8765 1.8662 2.6725 2.9268l-5.1906.7906c-.796-1.0605-1.693-2.0409-2.6725-2.9276z" fill="#bdbdbd"/><path d="m54.0591 21.6125 5.1907-.7906c.2553.2106.5073.4271.7534.6502l-5.1906.7898c-.2462-.2223-.4973-.4396-.7535-.6494z" fill="#9c9c9c"/><path d="m54.8128 22.2622 5.1907-.7907c.9812.8884 1.8848 1.8746 2.6858 2.9419l-5.1898.7907c-.801-1.0673-1.7038-2.0535-2.6867-2.9419z" fill="#9e9e9e"/><path d="m55.8868 38.6073 5.1906-.7906c1.068-.1103 2.126-.234 3.1706-.3711l-5.1898.7907c-1.0455.137-2.1034.2599-3.1714.371z" fill="#878787"/><path d="m59.058 38.2359 5.1907-.7898c.7801-.1019 1.5544-.2114 2.3204-.3284l-5.1907.7906c-.7659.1162-1.5394.2257-2.3204.3276z" fill="#858585"/><path d="m62.0428 23.1453 5.1906-.7906-4.5423 2.4872-5.1898.7906z" fill="#808080"/><path d="m61.883 23.2877 5.1906-.7906c-.594.3276-4.0058 2.2022-4.186 2.3009-.0417.0217-.0851.0367-.1302.0434l-5.1906.7906c.045-.0075.0892-.0217.1301-.0443.1803-.0977 3.592-1.9724 4.1861-2.3z" fill="#828282"/><path d="m29.5481 54.224c-1.2866-1.0522-2.4405-2.2624-3.446-3.5971l-4.549 2.4872-2.5073-4.4705.1753-.112 2.3304 4.1538 4.5481-2.4864c1.0472 1.3882 2.252 2.6418 3.6029 3.7241z"/><path d="m29.1281 44.0006c-.0234-.0501-.0476-.1003-.0726-.1546-.0225-.0493-.0451-.0986-.0709-.1571-.0225-.0502-.0442-.1003-.0676-.1555-.0225-.051-.0442-.1028-.0668-.1563-.0216-.0518-.0433-.1028-.0659-.1596l-.01-.0242.4197.9435c-.0217-.0443-.0434-.0877-.0659-.1362z" fill="#a5a5a5"/><path d="m42.2198 52.2766 5.2015-.7906-5.1907.7906z" fill="#8a8a8a"/><path d="m42.2308 52.2766 5.2532-.7923c.0351-.0009.0709-.0017.106-.0025l-5.1907.7898c-.035.0008-.0701.0025-.1685.005z" fill="#878787"/><path d="m42.3995 52.2717 5.2599-.7931c.0359-.0008.0726-.0025.1085-.0042l-5.1907.7898c-.0359.0017-.0726.0034-.1084.005z" fill="#878787"/><path d="m42.5771 52.2644 5.2641-.794z" fill="#878787"/><path d="m42.6508 52.2611 5.1907-.7906c.0342-.0017.0684-.0033.1026-.0059l-5.1898.7907c-.0342.0016-.0693.0033-.1035.0058z" fill="#878787"/><path d="m42.7539 52.2554 5.2666-.7957-5.1906.7906z" fill="#878787"/><path d="m42.8297 52.2505 5.1906-.7906c.0334-.0017.0668-.0042.1002-.0067l-5.1898.7906c-.0334.0025-.0668.0042-.101.0067z" fill="#878787"/><path d="m42.9303 52.244 5.2674-.7965z" fill="#878787"/><path d="m43.0078 52.2375 5.1906-.7898c.0325-.0025.0651-.005.0976-.0084l-5.1898.7907c-.0325.0025-.0651.005-.0984.0075z" fill="#878787"/><path d="m43.106 52.2301 5.1906-.7906.0784-.0067-5.1898.7898c-.0267.0025-.0525.005-.0792.0075z" fill="#878787"/><path d="m43.185 52.2228 5.1906-.7898c.0317-.0034.0634-.0059.0951-.0092l-5.1898.7898c-.0317.0033-.0634.0058-.0959.0092z" fill="#878787"/><path d="m43.2807 52.2137 5.2682-.7981z" fill="#878787"/><path d="m43.3585 52.2056 5.1907-.7898c.0325-.0033.0659-.0075.0993-.0108l-5.1907.7898c-.0325.0041-.0659.0075-.0993.0108z" fill="#878787"/><path d="m43.4579 52.195 5.2632-.7981z" fill="#878787"/><path d="m43.5308 52.1868 5.1907-.7898c.0334-.0042.0659-.0083.0993-.0125l-5.1898.7898c-.0334.005-.0668.0083-.1002.0125z" fill="#878787"/><path d="m43.7085 52.1648 5.1906-.7898.0167-.0025-5.1898.7898z" fill="#878787"/><path d="m43.7256 52.1623 5.2682-.8006z" fill="#858585"/><path d="m43.6307 52.1746 5.1898-.7898.0784-.01z" fill="#878787"/><path d="m43.8034 52.1526 5.2683-.8015z" fill="#858585"/><path d="m43.8813 52.1411 5.1906-.7898c.0317-.005.0634-.0092.0951-.0142l-5.1898.7898c-.0317.005-.0642.01-.0959.0142z" fill="#858585"/><path d="m43.977 52.1272 5.2148-.7939z" fill="#858585"/><path d="m44.1338 51.2319 5.1903-.7898c-.1102.0184-.1919.0318-.2704.0434l-5.1898.7907c.0776-.0117.1602-.0259.2699-.0443z" fill="#828282"/><path d="m51.7328 46.8939 5.1907-.7898c-2.0009 2.3101-4.7551 3.9072-7.8674 4.3819l-5.1906.7898c3.1122-.4738 5.8673-2.071 7.8673-4.3819z" fill="#828282"/><path d="m39.2274 58.0755 5.1906-.7898.1986 5.3364-5.1906.7914z"/><path d="m39.1638 57.2495 5.1906-.7897c.5132.0819 1.0338.142 1.5612.1796l-5.1907.7898c-.5265-.0367-1.0471-.0969-1.5611-.1797z" fill="#8c8c8c"/><path d="m40.725 57.4291 5.1906-.7897c.3839.0267.7718.0409 1.1613.0426l-5.1905.7914c-.3893-.0025-.7772-.0175-1.1614-.0443z" fill="#8a8a8a"/><path d="m39.4262 63.4133 5.1907-.7906 4.982.0259-5.1906.7898z"/><path d="m42.9312 52.244c-.0334.0025-.0676.0042-.1769.0117l-.0943.005z" fill="#a5a5a5"/><path d="m42.4231 57.4675 5.1907-.7898c.6349-.0159 1.2624-.0652 1.8806-.1471l-5.1906.7898c-.6174.0819-1.2449.1312-1.8807.1471z" fill="#878787"/><path d="m42.4231 57.4675 5.1907-.7898c.6349-.0159 1.2624-.0652 1.8806-.1471l-5.1906.7898c-.6174.0819-1.2449.1312-1.8807.1471z" fill="#878787"/><path d="m44.3041 57.3206 5.1907-.7898c.1134-.0159.2269-.0318.3396-.0493l-5.1898.7906c-.1135.0176-.227.0334-.3405.0485z" fill="#858585"/><path d="m41.8837 56.8414 5.1906-.7898c.1794.0009.358-.0008.5357-.005l-5.1898.7898c-.1786.0042-.3571.0059-.5365.005z" fill="#8a8a8a"/><path d="m42.4203 56.8366 5.1898-.7898c.6358-.0167 1.2632-.0652 1.8807-.1479l-5.1898.7906c-.6175.0819-1.2449.1312-1.8807.1471z" fill="#878787"/><path d="m44.3009 56.6897 5.1898-.7907c.1143-.015.2286-.0309.3421-.0484l-5.1907.7898c-.1134.0175-.2269.0334-.3412.0493z" fill="#858585"/><path d="m44.5514 58.1033 5.1908-.7898-.1436 5.3347-5.1898.7906z" fill="#9b9b9b"/><path d="m44.5514 58.1033 5.1908-.7898c.1336-.0184.2669-.0368.3993-.0577l-5.1904.7915c-.1327.0192-.2662.0384-.3997.056z"/><path d="m44.5534 58.5318 5.1907-.7907-.1435 5.3356-5.1898.7914z" fill="#1f1f1f"/><path d="m49.4472 56.7753 5.1907-.7898c-1.4185.6018-2.9254 1.0314-4.4965 1.2704l-5.1898.7906c1.5703-.239 3.0772-.6686 4.4956-1.2712z" fill="#828282"/><path d="m49.4493 57.212 5.1898-.7898c-1.4176.5943-2.9245 1.023-4.4948 1.262l-5.1906.7907c1.5711-.2391 3.0772-.6678 4.4956-1.2629z"/><path d="m49.4472 56.7753 5.1907-.7898 2.7484 4.5458-5.1907.7897z"/><path d="m60.0473 38.3853 5.1906-.7898c-.0041.3393-.0167.6761-.0375 1.0121l-5.1907.7898c.0209-.3343.0334-.6728.0376-1.0121z" fill="#969696"/><path d="m60.0097 39.3974 5.1907-.7898c-.0342.5416-.091 1.0773-.1677 1.6055l-5.1907.7898c.0776-.5282.1335-1.0639.1677-1.6055z" fill="#949494"/><path d="m59.8419 41.0028 5.1907-.7898c-.0759.5165-.1727 1.0263-.2887 1.5295l-5.1907.7898c.1169-.5023.2128-1.0122.2887-1.5295z" fill="#919191"/><path d="m59.5535 42.5323 5.1906-.7898c-.1176.5057-.2544 1.0055-.4105 1.4952l-5.1898.7898c.1552-.4897.2923-.9887.4097-1.4952z" fill="#8f8f8f"/><path d="m59.1436 44.0275 5.1906-.7898c-.1627.5082-.3454 1.0071-.5482 1.496l-5.1898.7898c.2028-.488.3855-.9878.5474-1.496z" fill="#8c8c8c"/><path d="m58.5961 45.5236 5.1906-.7898c-.2194.5282-.4606 1.0447-.7242 1.5462l-5.1907.7906c.2637-.5023.5048-1.0179.7243-1.547z" fill="#8a8a8a"/><path d="m57.8716 47.0702 5.1907-.7898c-.3004.5717-.6291 1.1258-.9837 1.6607l-5.1907.7898c.3546-.5332.6842-1.0882.9837-1.6607z" fill="#878787"/><path d="m56.8882 48.7311 5.1906-.7898c-.4397.6611-.9186 1.2921-1.4351 1.8872l-5.1907.7906c.5165-.5959.9963-1.2261 1.4352-1.888z" fill="#858585"/><path d="m55.4533 50.6189 5.1906-.7898c-2.7484 3.1751-6.5339 5.3698-10.8118 6.0217l-5.1906.7898c4.2778-.651 8.0642-2.8458 10.8118-6.0217z" fill="#828282"/><path d="m60.0473 38.3853 5.1915-.7313z" fill="#969696"/><path d="m60.048 38.4441 5.1907-.7898c.0016.0661.005.1321.0067.1981l-5.1907.7898c-.0017-.066-.005-.1321-.0067-.1981z" fill="#999"/><path d="m60.0545 38.6424 5.1915-.7312c.0025.4446-.0108.8867-.0384 1.3238l-5.1906.7906c.0275-.4371.0409-.8784.0375-1.3832z" fill="#969696"/><path d="m60.0171 40.0258 5.1906-.7906c-.0342.5415-.0909 1.0764-.1677 1.6038l-5.1906.7906c.0776-.5282.1335-1.0631.1677-1.6038z" fill="#949494"/><path d="m59.8492 41.6296 5.1906-.7906c-.0759.5165-.1718 1.0255-.2878 1.5269l-5.1907.7907c.116-.5015.212-1.0113.2879-1.527z" fill="#919191"/><path d="m59.5616 43.1567 5.1906-.7907c-.1176.5057-.2545 1.0046-.4105 1.4934l-5.1898.7901c.1552-.4891.292-.9876.4097-1.4928z" fill="#8f8f8f"/><path d="m59.1517 44.6495 5.1907-.7898c-.1635.5106-.3463 1.0113-.5499 1.5019l-5.1898.7898c.2028-.4898.3863-.9913.549-1.5019z" fill="#8c8c8c"/><path d="m58.6026 46.1512 5.1906-.7898c-.2203.529-.4622 1.048-.7267 1.5503l-5.1907.7907c.2645-.5032.5073-1.0205.7268-1.5512z" fill="#8a8a8a"/><path d="m57.8757 47.7028 5.1907-.7906c-.3004.5699-.6275 1.1224-.9812 1.6556l-5.1907.7898c.3538-.5315.6817-1.084.9812-1.6548z" fill="#878787"/><path d="m56.8947 49.3579 5.1906-.7898c-.4422.6653-.9245 1.2988-1.4434 1.8981l-5.1899.7898c.519-.5984 1.0013-1.2328 1.4427-1.8981z" fill="#858585"/><path d="m55.4516 51.2564 5.1907-.7898c-2.7493 3.1717-6.5332 5.3647-10.8077 6.015l-5.1906.7906c4.2745-.6511 8.0592-2.8433 10.8076-6.0158z" fill="#828282"/><path d="m54.2033 54.3514 5.1907-.7907-.1561.1254-5.1898.7898z" fill="#818181"/><path d="m54.0485 54.4762 5.1899-.7898 2.2795 4.3895-5.1907.7906z" fill="#a5a5a5"/><path d="m54.2001 54.3505 5.1906-.7906 2.297 4.4162-5.1906.7898z" fill="#cacaca"/><path d="m54.2017 54.3521 5.1907-.7906 2.2953 4.4145-5.1906.7898z" fill="#a5a5a5"/><path d="m54.0461 54.0485 5.1907-.7898.1568.3017-5.1906.7906z" fill="#a5a5a5"/><path d="m57.6142 50.361 5.1906-.7898c-.2828.377-.5791.743-.8861 1.0999l-5.1906.7898c.3078-.3552.6032-.723.8861-1.0999z" fill="#858585"/><path d="m56.7285 51.4612 5.1906-.7898c-.816.9444-1.7146 1.8111-2.6825 2.5867l-5.1906.7906c.9678-.7755 1.8665-1.6431 2.6825-2.5875z" fill="#828282"/><path d="m57.6167 50.7903 5.1906-.7906c-.2828.3761-.5774.7413-.8836 1.0965l-5.1906.7907c.307-.3552.6015-.7213.8836-1.0966z" fill="#1f1f1f"/><path d="m56.7334 51.8865 5.1906-.7898c-.7726.8942-1.6203 1.7191-2.5306 2.4638l-5.1898.7906c.9103-.7446 1.7572-1.5704 2.5298-2.4646z" fill="#1f1f1f"/><path d="m57.6169 50.7905 5.1898-.7906c-.9929 1.3242-2.1418 2.5206-3.4126 3.5603l-5.1906.7915c1.2707-1.0405 2.4197-2.2382 3.4134-3.5612z" fill="#1f1f1f"/><path d="m57.6142 50.361 5.1906-.7898 4.564 2.5341-5.1898.7898z"/><path d="m41.8837 56.8414c9.9641.0519 18.05-8.1971 18.1635-18.4561 0 .1053.0083.2106.0083.3159.0476 10.4027-8.1026 18.8231-18.1693 18.7721-10.0659-.0527-18.287-8.5574-18.3346-18.961 0-.1053-.0008-.2106.0059-.3159.2077 10.2615 8.3621 18.5932 18.3262 18.645z" fill="#5e5a5a"/><path d="m61.5408 40.5507 5.1907-.7907c-.0209.1672-.0434.3343-.0676.4998l-5.1907.7907c.0242-.1664.0476-.3327.0676-.4998z" fill="#949494"/><path d="m61.4731 41.0501 5.1907-.7898c-.0826.5583-.1861 1.1091-.3112 1.6498l-5.1907.7906c.1252-.5415.2286-1.0915.3112-1.6506z" fill="#919191"/><path d="m61.1619 42.7004 5.1907-.7898c-.1252.5391-.2704 1.069-.4364 1.5896l-5.1898.7898c.166-.5198.3112-1.0497.4355-1.5896z" fill="#8f8f8f"/><path d="m60.726 44.2904 5.1906-.7898c-.1427.4471-.3004.8859-.4722 1.3188l-5.1899.7898c.1719-.4313.3288-.8717.4715-1.3188z" fill="#8c8c8c"/><path d="m61.5424 40.9783 5.1906-.7898c-.0208.1689-.0433.3368-.0675.504l-5.1907.7906c.0242-.168.0476-.336.0676-.5048z" fill="#1f1f1f"/><path d="m61.4748 41.4827 5.1907-.7898c-.0827.5558-.1861 1.1049-.3104 1.644l-5.1907.7906c.1244-.5399.2278-1.0882.3104-1.6448z" fill="#1f1f1f"/><path d="m61.1643 43.1273 5.1907-.7898c-.1252.5383-.2704 1.0681-.4364 1.588l-5.189.7906c.1652-.5207.3104-1.0497.4347-1.5888z" fill="#1f1f1f"/><path d="m60.7292 44.7164 5.1898-.7907c-.1051.3302-.2186.6569-.3396.9787l-5.1898.7906c.1202-.3226.2345-.6485.3396-.9786z" fill="#1f1f1f"/><path d="m61.5427 40.9787 5.1898-.7907c-.2011 1.6465-.5924 3.2261-1.1523 4.7161l-5.1907.7908c.5607-1.4902.9521-3.0698 1.1532-4.7162z" fill="#1f1f1f"/><path d="m62.323 37.7597 5.1907-.7906c-.1444.0234-.2887.0468-.4331.0693l-5.1906.7907c.1444-.0226.2887-.046.433-.0694z" fill="#828282"/><path d="m61.8903 37.8287 5.1907-.7898c-.0601.0092-.1202.0184-.1794.0275-.111.0168-.2228.0343-.3346.051l-5.1898.7907c.1118-.0168.2228-.0343.3337-.0519.0593-.0087.1202-.0183.1794-.0275z" fill="#828282"/><path d="m62.9724 37.6528 5.1907-.7906c-.1293.0217-.257.0426-.3855.0643l-5.1906.7907c.1285-.0218.2569-.0426.3854-.0644z" fill="#828282"/><path d="m62.587 37.7168 5.1907-.7906-.2645.0426-5.1898.7907z" fill="#828282"/><path d="m63.2764 37.6014 5.1906-.7906c-.1018.0175-.2027.0343-.3045.0518l-5.1898.7906c.101-.0175.2027-.0342.3037-.0518z" fill="#828282"/><path d="m63.6341 37.5397 5.1906-.7906c-.1193.0209-.2386.0418-.3579.0619l-5.1907.7906c.1194-.0209.2387-.0418.358-.0619z" fill="#828282"/><path d="m63.9633 37.4814 5.1906-.7906c-.1093.02-.2194.0393-.3296.0585l-5.1906.7906c.1101-.02.2203-.0393.3296-.0585z" fill="#828282"/><path d="m64.2973 37.4214 5.1907-.7898c-.111.0201-.2228.0401-.3346.0593l-5.1898.7907c.111-.0201.2228-.0401.3337-.0602z" fill="#828282"/><path d="m64.9557 37.2998 5.1907-.7906c-.0985.0192-.1978.0367-.2962.0551-.1202.0226-.2412.0452-.3621.0669l-5.1907.7906c.121-.0225.242-.0443.363-.0668.0984-.0184.1969-.0368.2953-.0552z" fill="#828282"/><path d="m65.6181 37.1725 5.1907-.7898c-.0818.0159-.1635.0309-.2445.0468-.1393.0268-.2787.0535-.418.0802l-5.1906.7898c.1393-.0259.2786-.0526.418-.0794.0818-.0158.1627-.0309.2444-.0476z" fill="#828282"/><path d="m61.5408 40.5507 5.1907-.7907 5.1622-.1462-5.1906.7898z"/><path d="m66.2741 37.0423 5.1906-.7906c-.2186.0443-.4372.0877-.6558.1303l-5.1907.7907c.2195-.0426.4373-.0861.6559-.1304z" fill="#828282"/><path d="m66.2675 35.6679 5.1907-.7906c.0017.4287.0042.9995.0067 1.3748l-5.1907.7906c-.0025-.3761-.005-.9469-.0067-1.3748z" fill="#969696"/><path d="m41.8865 57.4732c10.0659.0518 18.2169-8.3693 18.1685-18.7721 0-.1053-.0075-.2106-.0075-.3159-.1134 10.2598-8.2002 18.508-18.1635 18.4562-9.9641-.051-18.1193-8.3836-18.3262-18.6442-.0067.1053-.0067.2106-.0058.315.0475 10.4036 8.2686 18.9092 18.3345 18.961z" fill="#5e5a5a"/><path d="m66.2745 37.0421c-.0025-.3761-.005-.946-.0067-1.374l.4138.0159.0217 4.7196-5.1622.1471c-.2178 1.7726-.6542 3.4684-1.2866 5.0588l.131.0845c-.0201.0526-.0384.1069-.0576.1613l-.0709.183 4.2152 2.7279-2.2937 4.1287-4.564-2.534c-1.0338 1.3781-2.2353 2.6192-3.5686 3.6873l.1577.3034-.1552.1245 2.2795 4.3903-4.1327 2.4546-2.7476-4.5457c-1.5394.6536-3.1806 1.1032-4.8961 1.3281l-.1435 5.3355-4.982-.0259-.1986-5.3372c-1.7105-.2416-3.3559-.7087-4.9078-1.3782l-2.7067 4.5181-4.1486-2.4989 2.2403-4.3652-.1535-.1287.151-.3c-1.35-1.0823-2.5556-2.336-3.602-3.7242l-4.549 2.4864-2.3304-4.1537 4.1903-2.6828c-.0443-.1137-.081-.234-.1252-.3469l.1235-.0827c-.6408-1.5963-1.0914-3.2971-1.3325-5.0723l-5.1573-.1989-.0217-4.7204.4139-.0125c.0025.4288.005.9837.0067 1.3598 3.2974.7029 6.7926 1.2687 10.4013 1.6799.4514 7.6731 6.6224 13.7859 14.1435 13.8243 7.5177.0393 13.6387-6.0058 14.0233-13.6714 3.6078-.3736 7.0905-.8968 10.388-1.5654z" fill="#5e5a5a"/><path d="m55.4458 22.8591c.7401.7271 1.4276 1.511 2.0534 2.3451-.0634-.0852-.1277-.1688-.1919-.2524-.0342-.0451-.0693-.0886-.1043-.1329-.0309-.0393-.0626-.0794-.0943-.1186-.0392-.0494-.0784-.0978-.1185-.1463-.0267-.0334-.0534-.066-.0801-.0986-.0425-.051-.0843-.102-.1276-.153-.0259-.0301-.0509-.061-.0768-.0911-.0434-.051-.0876-.1019-.131-.1521l-.0759-.0869c-.0443-.051-.0893-.1003-.1335-.1504l-.0785-.087c-.045-.0501-.0901-.0994-.136-.1487-.0258-.0284-.0517-.0569-.0776-.0844-.0467-.0485-.0917-.097-.1385-.1463-.0258-.0276-.0525-.0552-.0801-.0836-.0467-.0484-.0943-.0969-.141-.1454l-.0784-.0794c-.0492-.0493-.0976-.0978-.1477-.1471z" fill="#a5a5a5"/><path d="m61.883 23.2877 5.1906-.7906c.3154.5583 1.7964 3.196 2.1043 3.7467l-5.1906.7898c-.3079-.5499-1.7881-3.1884-2.1043-3.7459z" fill="#a1a1a1"/><path d="m63.9877 27.0335 5.1906-.7898c-.5732.3728-3.8523 2.4689-4.025 2.58-.0342.0218-.0634.0485-.0893.0786l-5.1906.7898c.0267-.0293.0567-.056.0901-.0786.1727-.1103 3.451-2.2072 4.0242-2.58z" fill="#828282"/><path d="m59.8736 29.6923 5.1573-.7464z" fill="#858585"/><path d="m59.8403 29.7363 5.1681-.753z" fill="#878787"/><path d="m59.8182 29.7734 5.174-.7555z" fill="#8a8a8a"/><path d="m59.802 29.8085 5.1781-.7563z" fill="#8c8c8c"/><path d="m59.7898 29.8428 5.1806-.7564z" fill="#8f8f8f"/><path d="m59.7799 29.8771 5.184-.7547z" fill="#919191"/><path d="m59.7734 29.9122 5.1865-.753z" fill="#949494"/><path d="m59.7693 29.9498 5.1899-.7589z" fill="#969696"/><path d="m62.0428 23.1453 5.1906-.7906 2.3321 4.1537-5.1906.7907z" fill="#a5a5a5"/><path d="m54.0502 21.608c1.2858 1.0531 2.4472 2.2607 3.4493 3.5963l4.5407-2.4872 2.5156 4.4696-.1769.1103-2.3362-4.152-4.5415 2.4872c-1.0463-1.3882-2.2595-2.6427-3.6028-3.7242z" fill="#cbcbcb"/><path d="m61.5034 35.4842c.3354.0134 1.088.0418 1.924.0735l2.8402.1104c.0017.4279.0042.9987.0067 1.3739-.2186.0443-.4372.0878-.6558.1304-.0818.0167-.1636.0318-.2445.0477-.1393.0267-.2787.0535-.418.0794-.0985.0192-.1978.0367-.2962.0551-.1202.0226-.2411.0452-.3621.0669-.111.02-.2228.0401-.3346.0602-.1093.0192-.2186.0384-.3288.0576-.1193.0209-.2386.0418-.3579.0619-.101.0175-.2027.0342-.3037.0518-.1293.0217-.257.0426-.3855.0635l-.2645.0435c-.1435.0225-.2879.0459-.4322.0685-.0592.0092-.1201.0192-.1794.0276-1.8965.2958-3.8415.5466-5.8239.7513.0133-.2766.02-.5566.0183-.8374-.0367-8.0492-6.3863-14.6066-14.176-14.6468-7.7897-.0401-14.0726 6.4513-14.0359 14.5014.0009.2783.01.5558.0267.8299-1.7755-.2023-3.5235-.4421-5.234-.7171-.2495-.0401-.3997-.0652-.5499-.0903-.0826-.0133-.1643-.0267-.2461-.0409-.131-.0217-.262-.0443-.393-.0669-.1001-.0175-.2002-.0351-.3004-.0526-.1193-.0201-.2394-.0418-.3587-.0635-.1118-.0201-.2228-.0402-.3338-.0594-.111-.0209-.2219-.0409-.3321-.0618-.1201-.0218-.2403-.0443-.3596-.0669-.1026-.0192-.2052-.0393-.3079-.0585-.1301-.0251-.2603-.051-.3905-.076-.0901-.0176-.1819-.0352-.272-.0535-.1493-.0301-.2978-.0602-.4455-.0903-.0734-.0142-.146-.0293-.2195-.0443-.2202-.0451-.4397-.0911-.6591-.1379-.0017-.3761-.0042-.931-.0059-1.3598l3.0897-.0869c.1002-.0033.1994-.0059.2954-.0084.1869-.0058.232-.0066.2762-.0083.267-.0067.3721-.01.4689-.0126.0442-.0016.0859-.0025.126-.0041.0951-.0025.1794-.0042.2495-.0067.4539-.0134.6207-.1705.6483-.3811.2102-1.705.6391-3.3715 1.2574-4.9544l.0283-.1572c-.0008-.1504-.0667-.2858-.1977-.3694-.1735-.112-3.4652-2.2423-4.0484-2.6218.3096-.5465 1.7672-3.17 2.0701-3.7241.6049.3335 4.0334 2.2432 4.2144 2.3435 1.5353-1.4726 2.7076-2.6845 4.0192-3.7292.1018-.0827.1594-.2098.1585-.3377l-.0517-.203c-.0968-.1873-1.9374-3.7309-2.2595-4.356.5365-.3135 3.0672-1.8187 3.6037-2.1388.3671.6026 2.428 4.0125 2.5365 4.1922 2.0342-.4705 3.647-.9135 5.3033-1.1299.2044-.0293.3487-.2014.3546-.4121.0067-.2106.1193-4.208.1377-4.9142l4.1752.0208c.0242.7071.1744 4.7062.1819 4.9168.0091.2107.1618.3845.3654.4154 1.6521.234 3.2691.6862 4.8069 1.3473.5081-.1622 2.6449-3.7292 2.9987-4.3284.5398.3259 3.0914 1.857 3.6312 2.1754-.3237.6219-2.1327 4.1471-2.2278 4.3335l-.0425.2022c.0008.1279.0525.2558.1618.3385 1.3142 1.0598 2.5048 2.2833 3.5294 3.649.524.1228 4.116-1.8504 4.7101-2.1772.3162.5575 1.7964 3.196 2.1051 3.7459-.5732.3727-3.8523 2.4697-4.025 2.58-.1227.0819-.1953.2164-.1944.3677l.0375.1571c.6325 1.5897 1.0689 3.2604 1.3017 4.9678.0242.2106.191.3694.3955.3778z" fill="#7a7777"/><path d="m23.2154 30.1383.1243.0752c-.6258 1.598-1.0613 3.2946-1.2866 5.0673l-5.1556.1462.0217 4.7204-.0217-4.7204-.0017-.4287 5.1556-.1538c.081-.6511.1936-1.2929.3346-1.9239.0075-.0343.015-.0694.0234-.1028.0092-.0402.0183-.0803.0275-.1196.2053-.8767.4673-1.7316.7785-2.5599z" fill="#cbcbcb"/><path d="m23.3376 29.7853c-.045.1137-.0876.2282-.131.3426l-4.2586-2.7471.1752-.3151z" fill="#494949"/><path d="m29.5502 54.2257.1544.1253-2.2403 4.3661-.1695-.102z" fill="#cbcbcb"/><path d="m27.9555 22.7747.0493-.0434c.4188-.4112.8552-.8032 1.3083-1.1759l.0742-.0669c-.0701.0568-.1393.1145-.2403.1989-.0684.0577-.136.1153-.2036.1738l-.0333.0285c-.0659.0576-.1319.1153-.2362.2081-.0634.0568-.1268.1145-.2311.2106-.0609.056-.1218.1136-.2311.2173-.0584.0551-.116.1103-.2562.249z" fill="#a5a5a5"/><path d="m29.3876 21.4881-.0743.0677c.0284-.0243.0568-.0493.0743-.0677z" fill="#a5a5a5"/><path d="m29.5535 21.3542c-.0518.0409-.1035.0844-.1552.1254l-2.2937-4.4145.1685-.1003z" fill="#494949"/><path d="m31.399 14.509-4.126 2.4554-.1702-.3276.1686.3234z" fill="#a6a6a6"/><path d="m39.1907 11.9633 5.1907-.7898 4.982.0251-5.1906.7906z" fill="#929292"/><path d="m44.173 11.989 5.1906-.7898.1911 5.3296-5.1907.7907z" fill="#808180"/><path d="m56.3276 58.8664 5.1906-.7906-4.1318 2.4555-5.1907.7906z" fill="#808080"/><path d="m56.4987 59.1945 5.1906-.7906-4.302 2.5566-5.1898.7906z" fill="#1f1f1f"/><path d="m56.3276 58.8664.171.3285-4.3012 2.5557-2.7484-4.5382c-1.5386.6444-3.1807 1.0949-4.8953 1.3197l-.1435 5.3355-4.9821-.0259-.1986-5.338c-1.7104-.2424-3.3558-.7087-4.9086-1.3698l-2.7067 4.5106-4.3171-2.6009.1652-.3226 4.1502 2.4947 2.7067-4.5181c1.552.6695 3.1982 1.1366 4.9078 1.3782l.1995 5.3372 4.982.0259.1427-5.3355c1.7155-.2249 3.3575-.6745 4.8961-1.3281l2.7484 4.5466z" fill="#1f1f1f"/><path d="m56.3276 58.8664 5.1906-.7906.1711.3276-5.1907.7915z" fill="#1f1f1f"/><path d="m56.4971 58.766 5.1906-.7898-.1668.1045-5.1907.7898z" fill="#808080"/><path d="m54.2001 54.3505 2.297 4.4154-.1669.1044-2.282-4.3944z" fill="#cbcbcb"/><path d="m55.8884 38.5771 5.1907-.7906c-.0876.0183-.1744.0334-.2612.0468l-5.1898.7906c.0859-.0134.1736-.0293.2603-.0468z" fill="#828282"/><path d="m53.897 21.4799 5.1907-.7906c.0517.0417.1043.0852.1552.1278l-5.1899.7907c-.0517-.0427-.1043-.0861-.156-.1279z" fill="#9c9c9c"/><path d="m54.3069 21.8193c.0642.0543.1285.1095.1919.1646l.02.0176c-.151-.1321-.3037-.2616-.4589-.3886.0709.0576.1418.1178.2128.1771z" fill="#a5a5a5"/><path d="m54.5529 22.0308c.0584.0518.1177.1037.2403.2131.0551.0502.111.1003.1928.1764-.1461-.1346-.2937-.2675-.4431-.3978z" fill="#a5a5a5"/><path d="m55.0271 22.4585c.0534.0501.1076.1011.2303.2173.0526.0501.1034.0994.1861.1805-.1452-.1421-.2921-.2816-.4164-.3978z" fill="#a5a5a5"/><path d="m60.3276 45.8549 5.1906-.7898c-.0242.061-.0476.1212-.0709.1822l-5.1907.7915z" fill="#8c8c8c"/><path d="m60.3276 45.8549 5.1906-.7898c-.0242.061-.0476.1212-.0709.1822l-5.1907.7915z" fill="#8c8c8c"/><path d="m60.3854 45.6942 5.1906-.7906c-.02.0526-.0384.1078-.0584.1613l-5.1898.7898c.0192-.0535.0384-.1087.0576-.1605z" fill="#8c8c8c"/><path d="m56.3064 17.2081-2.2528 4.3994c-.0534-.0426-.1043-.0852-.1568-.1279l2.2394-4.3718z"/><path d="m56.3064 17.2081 5.1907-.7898-2.2528 4.3986-5.1907.7906z" fill="#1f1f1f"/><path d="m56.3015 16.7852 5.1907-.7906-.1627.3226-5.1898.7906z" fill="#979797"/><path d="m51.9797 14.1865 5.1907-.7906 4.3212 2.5992-5.1898.7898z" fill="#b8b8b8"/><path d="m51.9797 14.1865 5.1907-.7906 4.3245 2.5934-5.1898.7906z" fill="#9c9c9c"/><path d="m59.7686 29.9812 5.1906-.7906.0376.1579-5.1907.7906z" fill="#a2a2a2"/><path d="m60.2534 30.3648 5.1906-.7906-.0684.0393-5.1907.7906z" fill="#808080"/><path d="m60.3129 30.2901 5.1906-.7907-.0601.0753-5.1898.7898z" fill="#858585"/><path d="m60.1898 29.9754 5.1906-.7906c.0418.1045.0818.2098.1227.3151l-5.1906.7898c-.0401-.1053-.081-.2098-.1227-.3143z" fill="#9e9e9e"/><path d="m60.3235 30.3198 5.1906-.7898-.0701.0443-5.1906.7907z" fill="#808080"/><path d="m61.1081 35.1063 5.1915-.7831z" fill="#999"/><path d="m61.1089 35.1129 5.1999-.738z" fill="#9c9c9c"/><path d="m61.1187 35.1655 5.1906-.7906c.0076.0309.0184.061.0326.0886l-5.1907.7898c-.0141-.0276-.0242-.0569-.0325-.0878z" fill="#9e9e9e"/><path d="m61.1513 35.2537 5.2224-.7363z" fill="#a1a1a1"/><path d="m61.184 35.3075 5.2523-.7196z" fill="#9e9e9e"/><path d="m61.2459 35.3781 5.2307-.758z" fill="#9c9c9c"/><path d="m61.2866 35.4108 5.2257-.7681z" fill="#999"/><path d="m61.3216 35.4328 5.2249-.7731z" fill="#969696"/><path d="m61.3558 35.4499 5.2232-.7772z" fill="#949494"/><path d="m61.3885 35.4626 5.224-.7806z" fill="#919191"/><path d="m61.4218 35.4724 5.2249-.7831z" fill="#8f8f8f"/><path d="m61.456 35.4798 5.2266-.7865z" fill="#8c8c8c"/><path d="m61.4919 35.4838 5.2015-.7897z" fill="#8a8a8a"/><path d="m60.1849 30.4039 5.1907-.7906c.3579.8901.6575 1.8094.8919 2.7547l-5.1906.7898c-.2345-.9445-.5332-1.8646-.892-2.7539z" fill="#9e9e9e"/><path d="m61.0772 33.1581 5.1906-.7906c.1619.6527.2937 1.318.393 1.9941.0167.1111.0317.2215.0467.3326l-5.1906.7907c-.0142-.1112-.0301-.2224-.0459-.3327-.0993-.6761-.232-1.3414-.3938-1.9941z" fill="#9c9c9c"/><path d="m61.4651 34.6901-.0245-.1521c.0069.0451.0144.0903.0245.1521z" fill="#a5a5a5"/><path d="m60.3153 30.3297 5.1906-.7906c.3021.7973.5607 1.618.7693 2.4579l-5.1906.7907c-.2086-.84-.4673-1.6607-.7693-2.458z" fill="#bdbdbd"/><path d="m61.0845 32.7876 5.1906-.7906c.1828.7388.3279 1.4935.4306 2.2607l-5.1898.7906c-.1027-.7672-.2478-1.5219-.4314-2.2607z" fill="#b8b8b8"/><path d="m60.3153 30.3297 5.1906-.7906c.3021.7973.5607 1.618.7693 2.4579l-5.1906.7907c-.2086-.84-.4673-1.6607-.7693-2.458z" fill="#9e9e9e"/><path d="m61.0845 32.7876 5.1906-.7906c.1828.7388.3279 1.4935.4306 2.2607l-5.1898.7906c-.1027-.7672-.2478-1.5219-.4314-2.2607z" fill="#9c9c9c"/><path d="m61.4649 34.6897-.0242-.1513c-.0067-.0459-.0142-.0911-.0334-.2097-.0142-.0811-.0275-.163-.0425-.2441-.005-.0309-.0117-.0627-.0167-.0936-.0142-.0744-.0276-.1479-.0417-.2215-.0076-.0359-.0142-.071-.0217-.1069-.0134-.0686-.0276-.1371-.0418-.2048-.0083-.0393-.0175-.0794-.0258-.1195-.0134-.0627-.0276-.1271-.0426-.1897-.0092-.0435-.0192-.087-.0292-.1304-.0133-.0577-.0275-.117-.0417-.1747-.0108-.0468-.0225-.0936-.0342-.1396-.0134-.0551-.0284-.1103-.0417-.1654-.0134-.0494-.0259-.0978-.0384-.1471-.0142-.0519-.0275-.1028-.0417-.1538s-.0284-.1028-.0426-.153c-.0133-.0493-.0283-.0986-.0425-.1471-.015-.0526-.0301-.1053-.0459-.1579-.0134-.0468-.0276-.0936-.0426-.1396-.0167-.0543-.0325-.1086-.05-.163-.0142-.0459-.0292-.0919-.0434-.1379-.0175-.0526-.0342-.1061-.0518-.1588-.0225-.0677-.045-.1345-.0684-.2005-.0142-.0443-.0292-.0878-.045-.1321-.0301-.0869-.0609-.1738-.1102-.3092-.0275-.0727-.0542-.1454-.0817-.2182l-.0701.0443.0617-.0351c.5674 1.4986.9821 3.079 1.2007 4.7188-.015-.1079-.0292-.2165-.0459-.3243z" fill="#a5a5a5"/><path d="m64.4726 48.7662 5.1906-.7906-2.2937 4.1295-5.1906.7898z" fill="#8a8a8a"/><path d="m60.2566 46.0386 5.1907-.7906 4.2152 2.7271-5.1898.7915z" fill="#9d9d9d"/><path d="m64.4741 48.763 5.1907-.7907.0042.0023-5.1907.79z" fill="#9c9c9c"/><path d="m64.4782 48.7655 5.1907-.7909.1769.1139-5.1907.7912z"/><path d="m62.1788 52.8953 2.2995-4.1295.1769.1137-2.4748 4.4445-4.564-2.534c-.9929 1.323-2.1418 2.5215-3.4134 3.5612l-.1569-.3025c1.3334-1.0682 2.5349-2.3101 3.5678-3.6874z" fill="#1f1f1f"/><path d="m64.655 48.8797 5.1907-.7906-2.4748 4.4446-5.1906.7898z" fill="#1f1f1f"/><path d="m64.6526 48.4504 5.1907-.7898-.1786.3117-5.1906.7907z" fill="#898989"/><path d="m60.3854 45.6942 4.267 2.7564-.1786.3125-4.2169-2.7246c.0258-.0593.0486-.1211.0709-.1838.0192-.0535.0384-.1087.0576-.1605z" fill="#cbcbcb"/><path d="m64.6526 48.4504 5.1907-.7898-.1786.3117-5.1906.7907z" fill="#939393"/><path d="m60.3854 45.6942 5.1906-.7906 4.267 2.7572-5.1906.7898z" fill="#bababa"/><path d="m61.5034 35.4842 5.1906-.7906c.3354.0133 1.0872.0417 1.9232.0743l-5.1898.7898c-.836-.0317-1.5886-.0601-1.924-.0735z" fill="#8a8a8a"/><path d="m61.5172 35.4846 5.1906-.7906 1.6296.0627-5.1907.7906z" fill="#8a8a8a"/><path d="m63.4271 35.5581 5.1906-.7907 2.8402.1104-5.1906.7898z" fill="#8a8a8a"/><path d="m66.2675 35.6679 5.1907-.7906.4138.0167-5.1906.7898z" fill="#8a8a8a"/><path d="m60.3153 30.3297c.5674 1.4985.982 3.079 1.1998 4.7187l5.1648.2073.0017.4279-5.1648-.1989c-.0142-.1112-.03-.2223-.0459-.3318-.2445-1.6557-.6789-3.2444-1.2858-4.7488l.0684-.0393z" fill="#cbcbcb"/><path d="m51.9817 14.615 4.1544 2.4931-2.2395 4.3719c.0526.0418.1043.0844.1569.1278l-.1552.3009c1.3433 1.0815 2.5565 2.3351 3.6028 3.7242l4.5415-2.4873 2.3321 4.153-4.1852 2.6769c.0417.1045.0826.2089.1234.3143l-.0592.0752-.0684.0392c.6066 1.5036 1.0413 3.0932 1.2858 4.748.0158.1103.0317.2215.0458.3327l1.6296.0618c-.9028-.0343-1.6062-.061-1.6429-.0627-.2044-.0083-.3721-.1671-.3955-.3777-.2328-1.7075-.67-3.3782-1.3025-4.967l-.0367-.1579c-.0008-.1505.071-.2859.1944-.3678.1728-.1103 3.4519-2.2072 4.0242-2.58-.3078-.5499-1.788-3.1884-2.1043-3.7459-.594.3276-4.0058 2.2023-4.186 2.3-.0609.0335-.1268.0494-.1919.0485-.1268-.0008-.2495-.061-.3329-.1713-1.0238-1.3648-2.2145-2.5892-3.5286-3.6481-.1093-.0828-.1611-.2115-.1619-.3393l.0426-.2023c.0951-.1855 1.9032-3.7116 2.2278-4.3326-.5399-.3192-3.0922-1.8504-3.6312-2.1763-.3547.5992-2.3839 3.9874-2.4907 4.1663-.0784.1245-.2144.1972-.3521.1972-.0525-.0008-.1059-.0117-.156-.0351-1.5377-.6611-3.1548-1.1132-4.8068-1.3472-.2036-.031-.3571-.2048-.3655-.4154-.0083-.2098-.1577-4.2098-.1827-4.9168l.408.0025.1911 5.3297c1.718.2498 3.3633.7162 4.9086 1.3781z" fill="#a5a5a5"/><path d="m64.3748 27.2988 5.1906-.7906-4.1852 2.6769-5.1907.7907z" fill="#808080"/><path d="m64.3804 27.2996 5.1907-.7906.1769.3168-5.1907.7898z"/><path d="m64.5572 27.6159 5.1907-.7906-4.2336 2.7045-5.1898.7898z" fill="#1f1f1f"/><path d="m64.5572 27.6159-4.2327 2.7037c-.0443-.1145-.0893-.2298-.1344-.3443l4.1903-2.6753z"/><path d="m64.5557 27.187 5.1906-.7907-.1769.1104-5.1906.7898z" fill="#808080"/><path d="m64.3796 27.2992.1761-.112-.1769.1095z" fill="#808080"/><path d="m62.0403 22.7172 5.1906-.7909 2.5148 4.47-5.1898.7906z" fill="#cacaca"/><path d="m64.5557 27.187 5.1906-.7907-.176.112-5.1907.7907z" fill="#808080"/><path d="m61.5408 40.5507 5.1623-.1471.0017.4287-5.1623.1463c-.2011 1.6464-.5924 3.226-1.1531 4.7162l-.1352-.0853c.6333-1.5904 1.0688-3.2862 1.2866-5.0588z" fill="#1f1f1f"/><path d="m66.7035 40.4037 5.1906-.7898.0017.428-5.1906.7906z" fill="#1f1f1f"/><path d="m66.6815 35.6838 5.1906-.7898.0217 4.7195-5.1906.7898z" fill="#9c9c9c"/><path d="m61.5155 35.0484 5.1907-.7906 5.1639.2073-5.1906.7906z" fill="#949494"/><path d="m66.6799 35.2553 5.1904-.7898.0019.4279-5.1906.7906z" fill="#b9b9b9"/><path d="m55.9055 37.7014c0-8.0513-6.3154-14.5781-14.1059-14.5781s-14.106 6.5268-14.106 14.5781c0 8.0512 6.5444 14.6074 14.3349 14.6074s13.877-6.5562 13.877-14.6074zm-24.108-.0366c0-5.6916 4.4838-10.3055 10.0147-10.3055 5.531 0 10.0148 4.6139 10.0148 10.3055 0 5.6915-4.4838 10.3054-10.0148 10.3054-5.5309 0-10.0147-4.6139-10.0147-10.3054z" fill="url(#f)"/></g></g></svg>