<svg enable-background="new 0 0 88.00 76.00" height="76" viewBox="0 0 88 76" width="88" xmlns="http://www.w3.org/2000/svg" xmlns:xlink="http://www.w3.org/1999/xlink"><linearGradient id="a" gradientTransform="matrix(0 1 -1 0 .228961 -.778777)" gradientUnits="objectBoundingBox" x1=".503869" x2="2.05368" y1="-.274908" y2="-.274908"><stop offset=".316279" stop-color="#f0f1ec" stop-opacity=".592157"/><stop offset=".800003" stop-color="#fff" stop-opacity="0"/></linearGradient><linearGradient id="b" gradientTransform="matrix(-.986419426397 .164245898658 -.164245898658 -.986419426397 1.939424360163 .714189860202)" gradientUnits="objectBoundingBox" x1=".940186" x2="2.52462" y1=".437275" y2=".437275"><stop offset=".274419" stop-color="#f0f1ec" stop-opacity=".501961"/><stop offset=".562791" stop-color="#fff" stop-opacity="0"/></linearGradient><linearGradient id="c" gradientTransform="matrix(-.998861941191 .04769509871 -.04769509871 -.998861941191 2.011747668143 .721913433323)" gradientUnits="objectBoundingBox" x1=".997261" x2="2.01805" y1=".384958" y2=".384958"><stop offset="0" stop-opacity=".301961"/><stop offset=".418605" stop-opacity=".301961"/><stop offset=".655814" stop-color="#1e1e1e" stop-opacity=".145098"/><stop offset=".902326" stop-color="#3a3a3a" stop-opacity="0"/></linearGradient><linearGradient id="d" gradientTransform="matrix(.904212715998 .427082385761 -.427082385761 .904212715998 -.305076069711 -.170553269762)" gradientUnits="objectBoundingBox" x1=".227681" x2="3.01549" y1="-.765391" y2="-.765391"><stop offset="0" stop-opacity=".301961"/><stop offset=".502326" stop-opacity=".301961"/><stop offset=".693023" stop-color="#1e1e1e" stop-opacity=".145098"/><stop offset=".800003" stop-color="#3a3a3a" stop-opacity="0"/></linearGradient><linearGradient id="e" gradientTransform="matrix(.112002624398 .993707910871 -.993707910871 .112002624398 .522107758296 -.287195422388)" gradientUnits="objectBoundingBox" x1=".421746" x2="1.14186" y1=".148533" y2=".148533"><stop offset=".0258621"/><stop offset=".25" stop-color="#393737"/><stop offset=".508621" stop-color="#494646"/><stop offset=".775862" stop-color="#434040"/><stop offset="1" stop-color="#181717"/></linearGradient><radialGradient id="f" cx="40.723" cy="36.4203" gradientUnits="userSpaceOnUse" r="17.1697"><stop offset="0" stop-color="#1f1f1f"/><stop offset=".512931" stop-color="#676773"/><stop offset="1" stop-color="#181717"/></radialGradient><g stroke-linejoin="round"><path d="m13.4792 2.43747h61c6.0751 0 11 4.92487 11 11.00003v49.6667c0 6.0751-4.9249 11-11 11h-61c-6.07517 0-11.00004-4.9249-11.00004-11v-49.6667c0-6.07516 4.92487-11.00003 11.00004-11.00003z" fill="#b2ae5a" stroke="#000"/><path d="m73.499 4.92154h-58.1111c-3.034 0-6.8082.84714-9.5754 4.64534h.06589c.06588 35.59882 18.16601 35.71982 38.54311 35.71982 20.377 0 37.6866-.3444 38.016-35.80359v.02792c-1.4495-2.06667-3.3602-4.18919-8.9385-4.58949z" fill="url(#a)" stroke-width=".2"/><path d="m73.2684 4.87499-16.9875 1.86187c-3.0339 0-19.1508-1.78743-21.918 2.01077l-8.0819 11.91597c4.3585 7.0054 19.6778-2.0853 22.0497-3.8354 23.631-3.0163 33.5468 28.0675 33.8762-7.39164v.02792c-1.4495-2.06666-3.3602-4.18918-8.9385-4.58949z" fill="url(#b)" stroke-width=".2"/><path d="m13.7291 5.27099h60.7499c4.4183 0 8 3.58172 8 8.00001v49.9998c0 4.4183-3.5817 8-8 8h-60.7499c-4.41824 0-7.99996-3.5817-7.99996-8v-49.9998c0-4.41829 3.58172-8.00001 7.99996-8.00001z" fill="none" stroke="#ffd23f" stroke-width="6"/><g stroke-width=".2"><path d="m30.4112 61.2387-20.47631-3.7299c1.47681 8.6769 23.44261 12.7283 27.12411 13.1758l2.9861-7.8184z" fill="url(#c)"/><path d="m37.0801 70.6867c5.9886.5732 34.6951 2.9917 38.2297-1.4959l-13.3944-3.4904-21.1007-2.8342-3.7558 7.8184z" fill="url(#d)"/><path d="m16.6102 21.1226 6.2253-.9924 5.4827 3.1806-6.2252.9923z" fill="#f6fff6"/><path d="m38.8987 27.0475 6.0283-.9179.0783-.0119-.0036.0005c-.4294.0655-.8512.1553-1.264.2681-1.9332.5285-3.6688 1.5598-5.0677 2.9501-.2089.2077-.4103.4235-.6038.6467l.0007-.0001-.9276 1.2196-.6303 1.064-.4672.9969h.0003l-.3523.9626-.2627.9575-.1846.9785-.1074 1.0265c.2821-.0038-.019.5645-.0245.8477l.0039.2673.0931 1.2393.272 1.4597h.0002c.0665.2673.1416.5312.225.7912.1948.6073.4347 1.1938.7155 1.7554l.9176 1.544c.53.76 1.142 1.4554 1.8229 2.0725l1.1664.9324 1.0288.6462.9747.486.9396.3666.9191.2703.9528.1946 1.0094.1151.7294.027h.0004-.0004l-4.2806.8817-1.8263.0475c-.2497-.0012-.4976-.0103-.7436-.0277-.3378-.0237-.6718-.0623-1.0014-.115-.646-.1035-1.2753-.2617-1.8833-.4697-.3166-.1083-.6275-.2301-.9323-.3651-.3295-.1459-.6514-.3067-.965-.4819-.3536-.1974-.6965-.4129-1.0276-.6453l-.003-.0019-.0001-.0003c-.4044-.284-.7911-.5931-1.158-.9251l-.0059-.0047-.0004-.0004c-.55-.4984-1.0548-1.0478-1.5081-1.6421-.469-.6141-.8825-1.2753-1.2324-1.9752-.2609-.522-.4865-1.0655-.6734-1.6271-.1004-.3013-.1896-.6077-.2671-.9188l.0001-.0004h-.0004l-.0012-.0067c-.1175-.4731-.2081-.9569-.27-1.4497l-.0007-.0039.0002-.0003c-.0508-.4058-.0822-.8177-.093-1.2346l-.0003-.0032-.0002-.015c-.0021-.0841-.0033-.1684-.0037-.2532v-.0003c-.0013-.2846.007-.5669.0245-.8466.0218-.3464.0578-.6888.1074-1.0266.0486-.3308.1104-.657.1846-.9782h-.0004l.0021-.0076c.0746-.3219.1618-.6388.2609-.9501.1044-.3276.2221-.649.3524-.9634h-.0004l.0033-.007c.1403-.338.2953-.6679.464-.9891.1926-.3666.403-.7218.6305-1.0643h-.0003l.0018-.0024c.2835-.4266.5928-.8335.9261-1.218l.0001-.0001c1.7652-2.0375 4.1959-3.4466 6.9388-3.8646zm6.1066-.9298-.0036.0005z" fill="url(#e)"/><path d="m68.6298 47.6945c-.0256.0728-.053.1446-.0835.2154.0275-.0718.056-.1436.0835-.2154z" fill="#808080"/><path d="m73.5086 51.1151.2101-.3668-.2052.3698z" fill="#a5a5a5"/><path d="m11.4236 36.3548 6.1072-.9302.0256 5.5539-6.1073.9303z" fill="#b9b9b9"/><path d="m11.4236 36.3548 6.1072-.9302.487-.0128-6.1063.9293z" fill="#888"/><path d="m14.1569 51.774 6.1072-.9303 2.742 4.8873-6.1073.9302z"/><path d="m13.8338 26.3826.0039-.0059.1856.1278z" fill="#a5a5a5"/><path d="m13.8376 26.3768 6.1073-.9303.1855.1288-6.1072.9293z" fill="#9e9e9e"/><path d="m11.9111 36.3409 6.1073-.9293 3.6353-.1042-6.1073.9302z" fill="#888"/><path d="m11.449 41.9087 6.1073-.9302 6.068.235-6.1073.9292z"/><path d="m18.9293 48.2112 6.1073-.9293-4.9813 3.189-6.1063.9303z" fill="#808080"/><path d="m19.0875 48.6164 6.1062-.9302-4.9301 3.1575-6.1063.9303z" fill="#808080"/><path d="m18.9303 48.2141c.0609.1268.105.2684.1571.4021l-4.9302 3.1576-.2082-.3727z" fill="#cbcbcb"/><path d="m18.9293 48.2112c-.6695-1.7602-1.1466-3.6246-1.4097-5.5638l-6.068-.235-.003-.5035 6.069.234c.2837 2.0887.8138 4.0898 1.5678 5.968z"/><path d="m15.5465 36.2376 6.1073-.9302c.1178-.003.2336-.0069.3475-.0099.2199-.0059.2729-.0069.3249-.0088.3142-.0089.4379-.0128.5518-.0148.052-.0019.1011-.0029.1482-.0049.1119-.0029.2111-.0059.2935-.0078.0707-.002.1345-.0069.1934-.0148l-6.1062.9302c-.0599.0069-.1237.0118-.1934.0148-.0835.002-.1826.0049-.2946.0079-.0461.001-.0962.0019-.1472.0039-.1149.0029-.2386.0069-.5517.0157-.0531.001-.1051.003-.326.0089-.1129.0029-.2287.0069-.3475.0098z" fill="#878787"/><path d="m17.4064 36.1762 6.1072-.9303.0315-.0039-6.1073.9302z" fill="#858585"/><path d="m15.5537 36.2372 6.1072-.9292 1.936-.0551-6.1073.9293z" fill="#888"/><path d="m11.4217 35.8507 6.106-.9303 6.0663-.1799-6.1063.9292z" fill="#909090"/><path d="m16.7387 21.6574 6.1069-.9303-2.6984 4.8588-6.1072.9302z" fill="#949494"/><path d="m16.7387 21.6574 6.1069-.9303-2.6968 4.8597-6.1069.9303z" fill="#8a8a8a"/><path d="m16.928 21.8269 6.1072-.9302c-.3573.6529-2.0714 3.7387-2.4366 4.3827l-6.1063.9303c.3642-.6441 2.0793-3.7299 2.4357-4.3828z" fill="#878787"/><path d="m22.2508 53.7349 6.1072-.9303-5.3523 2.9265-6.1073.9302z" fill="#808080"/><path d="m22.2532 54.239 6.1073-.9292-5.3524 2.9254-6.1072.9303z"/><path d="m18.857 30.1321 6.1072-.9303c-.1472.3914-.2847.7867-.4123 1.1879l-6.1063.9303c.1267-.4012.2641-.7975.4114-1.1879z" fill="#8c8c8c"/><path d="m18.4452 31.32 6.1063-.9303c-.1895.5959-.3573 1.2017-.5026 1.8173l-6.1063.9302c.1443-.6156.3131-1.2213.5026-1.8172z" fill="#8f8f8f"/><path d="m19.0031 30.2209 6.1073-.9303c-.1934.4917-.3701.9913-.5311 1.4977l-6.1073.9302c.162-.5074.3387-1.0059.5311-1.4976z" fill="#999"/><path d="m18.472 31.7184 6.1073-.9302c-.2032.6372-.3809 1.2862-.5341 1.946l-6.1063.9303c.1522-.6598.3299-1.3089.5331-1.9461z" fill="#9e9e9e"/><path d="m17.9385 33.6645 6.1072-.9303c-.1531.6599-.2788 1.3305-.3799 2.011l-6.1063.9302c.1001-.6804.2268-1.3511.379-2.0109z" fill="#a3a3a3"/><path d="m17.5593 35.6754 6.1073-.9302c-.0255.1691-.0481.3373-.0697.5074l-6.1073.9302c.0216-.1701.0452-.3392.0697-.5074z" fill="#a8a8a8"/><path d="m19.0008 29.7167 6.1072-.9302c-.053.1337-.104.2684-.1541.4041l-6.1073.9293c.0511-.1347.1012-.2694.1542-.4032z"/><path d="m14.0418 26.517 6.1073-.9303 4.9586 3.1999-6.1072.9302z"/><path d="m16.928 21.8269 6.1072-.9302c.7118.3933 4.7457 2.6403 4.9577 2.7583l-6.1063.9302c-.213-.118-4.2469-2.3659-4.9586-2.7583z" fill="#969696"/><path d="m16.7387 21.6574 6.1069-.9303 5.3794 2.9825-6.1075.9293z" fill="#9b9b9b"/><path d="m16.7362 21.1537 6.1073-.9303 5.3788 2.9816-6.1072.9302z" fill="#949694"/><path d="m23.2809 22.694 6.067-.883z" fill="#828282"/><path d="m23.2406 22.7406 6.0435-.8565z" fill="#858585"/><path d="m23.1769 22.8146 6.0513-.8654z" fill="#828282"/><path d="m23.1212 22.8789 6.1063-.9303c-.0265.0315-.053.063-.0795.0935-.0393.0472-.0785.0944-.1178.1416-.0402.0472-.0805.0944-.1198.1425-.0451.0551-.0893.1112-.1345.1662-.0324.0403-.0648.0807-.0972.121-.05.0629-.1001.1268-.1492.1908-.0275.0344-.0549.0688-.0824.1042-.0756.0973-.1502.1967-.2249.297l-6.1062.9292c.0736-.0993.1492-.1986.2248-.2969.0265-.0345.054-.0689.0815-.1033.049-.0639.0991-.1278.1492-.1908.0324-.0413.0648-.0806.0972-.1209l.1354-.1672c.0393-.0472.0786-.0944.1188-.1416.0393-.0472.0786-.0944.1178-.1416.0265-.0315.054-.0619.0805-.0934z" fill="#858585"/><path d="m23.431 14.2463 6.1072-.9303.1984.3806-6.1073.9302z" fill="#a5a5a5"/><path d="m26.1312 19.948 6.0955-.9234c-.0825.0669-.164.1348-.2837.2341-.0805.0678-.1601.1367-.2396.2045l-.0383.0335c-.0775.0678-.1551.1357-.2778.2448-.0746.0669-.1492.1347-.2719.2478-.0727.0669-.1434.1337-.2729.2557-.0678.0659-.1355.1308-.2033.1967l-.0628.0619c-.0658.0639-.1296.1288-.2641.2645-.0618.063-.1237.1259-.2621.2704-.0569.061-.1148.122-.1728.183-.0284.0314-.0569.0619-.0854.0934-.054.058-.108.117-.161.176-.0324.0354-.0638.0708-.0952.1062-.0501.056-.0992.1111-.1483.1672l-6.1062.9292c.0481-.055.0981-.1111.1482-.1662.0314-.0354.0628-.0708.0942-.1062.0531-.059.108-.118.162-.177l.0854-.0924c.057-.061.1149-.1219.2504-.2645.0608-.063.1227-.1259.2533-.2596.0648-.0649.1295-.1298.2582-.2567.0667-.0659.1344-.1308.2611-.2507.0707-.0669.1423-.1347.2631-.2459.0736-.0678.1482-.1357.269-.2438.0766-.0679.1541-.1357.2709-.237.0786-.0689.1591-.1367.2769-.236.0815-.0679.1629-.1357.2572-.2095z" fill="#828282"/><path d="m26.3166 20.3009 6.1073-.9292c-1.1388.9066-2.1882 1.9205-3.1415 3.0238l-6.1073.9302c.9533-1.1033 2.0027-2.1181 3.1415-3.0248z" fill="#858585"/><path d="m23.1754 23.3254 6.1073-.9292c-.3672.4248-.7196.8624-1.0583 1.3137l-6.1063.9293c.3377-.4504.6902-.889 1.0573-1.3138z" fill="#8a8a8a"/><path d="m26.1335 19.948 6.1073-.9302.1826.354-6.1063.9292z" fill="#cacaca"/><path d="m23.6313 14.6318 6.1075-.9292 2.6828 5.1645-6.1072.9293z"/><path d="m26.3143 19.7968 6.1073-.9303c-.0609.0492-.1218.0993-.1826.1485l-6.1073.9293c.0608-.0482.1217-.0993.1826-.1475z"/><path d="m28.4857 11.7427 6.1063-.9302-4.8556 2.8842-6.1072.9302z" fill="#808080"/><path d="m28.4857 11.7427 6.1063-.9302-4.8536 2.8901-6.1073.9292z" fill="#808080"/><path d="m24.0823 14.435 6.1073-.9293c.379.7355 2.5446 4.9049 2.6585 5.1242l-6.1073.9303c-.1138-.2193-2.2785-4.3897-2.6585-5.1252z" fill="#a1a1a1"/><path d="m28.3233 11.919 6.1072-.9303c-.6312.3776-3.6097 2.1476-4.241 2.5164l-6.1073.9302c.6313-.3687 3.6098-2.1397 4.2411-2.5163z" fill="#828282"/><path d="m28.3233 11.919 6.1072-.9303c.431.71 2.8559 4.7211 2.9835 4.9325l-6.1063.9302c-.1286-.2114-2.5535-4.2234-2.9844-4.9324z" fill="#a1a1a1"/><path d="m28.3233 11.919 6.1072-.9303c.431.71 2.8559 4.7211 2.9835 4.9325l-6.1063.9302c-.1286-.2114-2.5535-4.2234-2.9844-4.9324z" fill="#a1a1a1"/><path d="m28.4857 11.7427 6.1063-.9302 3.2338 5.3406-6.1073.9302z" fill="#a5a5a5"/><path d="m28.4833 11.2386 6.1063-.9303 3.2338 5.3406-6.1073.9302z" fill="#949694"/><path d="m37.0201 15.595 6.1073-.9293c-1.5953.2419-3.1395.653-4.6141 1.2135-.2307.0875-.4604.179-.6872.2744l-6.1073.9292c.2268-.0944.4565-.1858.6872-.2743 1.4756-.5596 3.0188-.9706 4.6141-1.2135z" fill="#858585"/><path d="m37.1017 15.5844 6.1073-.9303c-1.7927.2734-3.5381.771-5.1953 1.4642-.0383.0168-.0775.0286-.1158.0345l-6.1073.9292c.0383-.0059.0776-.0167.1158-.0334 1.6572-.6942 3.4027-1.1908 5.1953-1.4642z" fill="#828282"/><path d="m37.0201 15.595 6.1073-.9293c.1521-.0236.3053-.0452.4584-.0658l-6.1062.9302c-.1532.0207-.3073.0423-.4595.0649z" fill="#858585"/><path d="m37.0201 15.595 6.1073-.9293c.1521-.0236.3053-.0452.4584-.0658l-6.1062.9302c-.1532.0207-.3073.0423-.4595.0649z" fill="#858585"/><path d="m37.0201 15.595 6.1073-.9293c.1521-.0236.3053-.0452.4584-.0658l-6.1062.9302c-.1532.0207-.3073.0423-.4595.0649z" fill="#858585"/><path d="m37.0815 15.5872 6.1072-.9302c.1552-.0236.3103-.0452.4654-.0659l-6.1063.9303c-.1561.0206-.3112.0422-.4663.0658z" fill="#858585"/><path d="m37.0815 15.5872 6.1072-.9302c.1552-.0236.3103-.0452.4654-.0659l-6.1063.9303c-.1561.0206-.3112.0422-.4663.0658z" fill="#858585"/><path d="m37.1026 15.0711 6.1072-.9303c.1247-.0186.2494-.0364.3741-.0531l-6.1073.9293c-.1247.0167-.2493.0344-.374.0541z" fill="#8a8a8a"/><path d="m37.6558 9.25171 6.1072-.92927-.1767 6.27776-6.1072.9302z" fill="#b7b7b7"/><path d="m38.1265 9.25455 6.1073-.93024c-.0216.83093-.1551 5.53529-.163 5.80179l-6.1063.9115c.0069-.2478.1404-4.9521.162-5.78305z" fill="#969696"/><path d="m37.9636 15.0562 6.1023-.885z" fill="#949494"/><path d="m37.9587 15.1014 6.0995-.887z" fill="#919191"/><path d="m37.9511 15.1441 6.0955-.8889z" fill="#8f8f8f"/><path d="m37.9396 15.1854 6.0925-.8889z" fill="#8c8c8c"/><path d="m37.9247 15.2262 6.0876-.8879z" fill="#8a8a8a"/><path d="m37.905 15.268 6.0808-.8861z" fill="#878787"/><path d="m37.8791 15.3117 6.069-.8801z" fill="#858585"/><path d="m37.8418 15.3612 6.1063-.9293c-.0726.0846-.1747.1426-.2935.1593l-6.1073.9303c.1188-.0168.2209-.0758.2945-.1603z" fill="#828282"/><path d="m38.1265 9.25455 6.1073-.93024c-.0216.83093-.1551 5.53529-.163 5.80179l-6.1063.9115c.0069-.2478.1404-4.9521.162-5.78305z" fill="#969696"/><path d="m37.6558 9.25171 6.1072-.92927.4703.00197-6.1073.93024z" fill="#898989"/><path d="m38.1265 9.25455 6.1073-.93024 4.9115.02556-6.1073.92927z" fill="#898989"/><path d="m43.0384 9.27953 6.1073-.92927c.0285.83094.2052 5.53724.218 5.82834l-6.1103.886c-.0098-.2478-.1855-4.9532-.215-5.78507z" fill="#999"/><path d="m43.2566 15.109 6.118-.8683z" fill="#9c9c9c"/><path d="m43.2681 15.171 6.1072-.9303c.0089.0384.0226.0738.0403.1082l-6.1073.9303c-.0177-.0345-.0304-.0708-.0402-.1082z" fill="#9e9e9e"/><path d="m43.3083 15.2791 6.1446-.8674z" fill="#a1a1a1"/><path d="m43.3457 15.3414 6.1073-.9302.0756.0875-6.1063.9292z" fill="#9e9e9e"/><path d="m43.4219 15.4283 6.1564-.8899z" fill="#9c9c9c"/><path d="m43.4713 15.4678 6.1504-.9018z" fill="#999"/><path d="m43.515 15.4956 6.1475-.9096z" fill="#969696"/><path d="m43.5562 15.5158 6.1475-.9146z" fill="#949494"/><path d="m43.5965 15.5316 6.1475-.9175z" fill="#919191"/><path d="m43.6372 15.5436 6.1485-.9214z" fill="#8f8f8f"/><path d="m43.6789 15.5522 6.1112-.9292c.1345.0187.269.0393.4025.0609l-6.1063.9293c-.1345-.0206-.268-.0413-.4074-.061z" fill="#8c8c8c"/><path d="m44.0858 15.6137 6.1073-.9293c.6254.0993 1.2458.2272 1.8604.3796l-6.1063.9302c-.6146-.1534-1.235-.2802-1.8614-.3805z" fill="#8f8f8f"/><path d="m45.9467 15.9944 6.1073-.9302c.6096.1524 1.2134.3304 1.8083.534l-6.1073.9302c-.5949-.2035-1.1987-.3815-1.8083-.534z" fill="#919191"/><path d="m47.7553 16.5284 6.1073-.9302c.534.1829 1.0622.3864 1.5825.6106l-6.1063.9303c-.5203-.2242-1.0494-.4278-1.5835-.6107z" fill="#949494"/><path d="m43.0384 9.27953 6.1073-.92927.4791.00198-6.1073.93025z" fill="#898989"/><path d="m43.5178 9.28239 6.1073-.93026.2248 6.27087-6.1073.9302z" fill="#9d9d9d"/><path d="m43.7431 15.5532 6.1073-.9302c.1148.0167.2297.0344.3446.0531l-6.1073.9302c-.1149-.0187-.2297-.0364-.3446-.0531z" fill="#8c8c8c"/><path d="m44.0878 15.606 6.1073-.9302c.6607.1062 1.3115.2389 1.9516.3992l-6.1063.9303c-.641-.1603-1.2919-.2941-1.9526-.3993z" fill="#8f8f8f"/><path d="m46.0401 16.0051 6.1073-.9303c.6362.1593 1.2615.3442 1.8761.5546l-6.1073.9293c-.6136-.2095-1.2399-.3943-1.8761-.5536z" fill="#919191"/><path d="m47.9164 16.5586 6.1073-.9293c.5429.1859 1.0769.3914 1.6012.6156l-6.1063.9303c-.5243-.2252-1.0593-.4308-1.6022-.6166z" fill="#949494"/><path d="m43.7408 15.0496 6.1072-.9303c.1149.0167.2298.0344.3446.0531l-6.1073.9293c-.1148-.0177-.2297-.0354-.3445-.0521z" fill="#999"/><path d="m44.0853 15.1019 6.1073-.9293c.6607.1052 1.3116.239 1.9517.3983l-6.1063.9302c-.6411-.1593-1.292-.293-1.9527-.3992z" fill="#9e9e9e"/><path d="m46.0378 15.5013 6.1073-.9302c.6361.1593 1.2615.3441 1.876.5536l-6.1073.9302c-.6135-.2094-1.2399-.3953-1.876-.5536z" fill="#a3a3a3"/><path d="m47.9139 16.0549 6.1073-.9302c.5429.1868 1.077.3923 1.6022.6165l-6.1073.9293c-.5242-.2242-1.0583-.4297-1.6022-.6156z" fill="#a8a8a8"/><path d="m52.7032 11.8675 6.1072-.9292-3.1856 5.3071-6.1063.9293z" fill="#929292"/><path d="m52.8667 12.0457 6.1073-.9302c-.4163.705-2.8048 4.6925-2.9314 4.902l-6.1063.9302c.1257-.2104 2.5142-4.1969 2.9304-4.902z" fill="#878787"/><path d="m57.1396 14.6059 6.1073-.9303c-.3819.7316-2.5093 4.8794-2.6212 5.0977l-6.1072.9303c.1119-.2184 2.2393-4.3661 2.6211-5.0977z" fill="#8a8a8a"/><path d="m52.8667 12.0457 6.1073-.9302c.6342.3835 3.6372 2.185 4.2724 2.5606l-6.1063.9302c-.6361-.3756-3.6382-2.1771-4.2734-2.5606z" fill="#999"/><path d="m52.7032 11.8675 6.1072-.9292 4.888 2.9323-6.1073.9302z" fill="#9c9c9c"/><path d="m54.5186 19.7036 6.1072-.9302-.05.239-6.1073.9292z" fill="#959595"/><path d="m54.4682 19.9418 6.1073-.9292v.0108z" fill="#969696"/><path d="m54.4687 19.9538 6.1112-.8761z" fill="#999"/><path d="m54.4725 20.0081 6.1181-.8663z" fill="#9c9c9c"/><path d="m54.4845 20.0719 6.1063-.9302c.0098.0363.0226.0717.0392.1052l-6.1072.9292c-.0167-.0324-.0295-.0678-.0383-.1042z" fill="#9e9e9e"/><path d="m54.5229 20.1765 6.1426-.8683z" fill="#a1a1a1"/><path d="m54.5593 20.2376 6.176-.8526z" fill="#9e9e9e"/><path d="m54.6278 20.3149 6.1377-.9037z" fill="#9c9c9c"/><path d="m57.5912 14.8008 6.1073-.9303-2.6349 5.1439-6.1073.9303z" fill="#8b8b8b"/><path d="m57.5912 14.8008 6.1073-.9303.2003.118-6.1073.9303z"/><path d="m43.5155 8.77773.2248 6.27187c2.0213.293 3.9583.8427 5.7754 1.6215l3.1847-5.3081 5.0853 3.0582-.1904.3796-4.8919-2.9334-3.1847 5.3082c-1.8182-.7798-3.7541-1.3286-5.7755-1.6226l-.2258-6.27081-5.8618-.03048-.1757 6.27869c-1.7593.2301-3.4577.6638-5.0736 1.2784-.2307.0885-.4604.1799-.6872.2743l-3.2338-5.3406-4.8555 2.8842-.1983-.3806 5.0519-3.008 3.2328 5.3415c1.8191-.7601 3.7511-1.2891 5.7607-1.5625l.1767-6.26986z" fill="#cbcbcb"/><path d="m22.118 24.6391c1.2164-1.6206 2.6212-3.0818 4.1988-4.3386l-.1816-.354c.057-.0511.1178-.1012.1787-.1494l-2.6821-5.1656 4.8536-2.8891 3.2338 5.3406c.2268-.0944.4565-.1858.6862-.2743 1.6169-.6136 3.3153-1.0483 5.0736-1.2784l.1767-6.27869.4712.00294c-.0216.83095-.1551 5.53525-.162 5.78305-.0078.2469-.1777.4494-.4172.4839-1.9497.2546-3.8474.7758-5.641 1.5271-.0608.0266-.1246.0393-.1865.0393-.1639-.0009-.319-.0895-.4133-.237-.1276-.2104-2.5525-4.2225-2.9834-4.9324-.6313.3776-3.6098 2.1486-4.2411 2.5164.38.7355 2.5447 4.9059 2.6585 5.1252l.0609.2389c.001.1505-.0668.3009-.1855.3973-1.5433 1.2302-2.9236 2.656-4.1134 4.2501-.0963.1278-.2406.1976-.3888.1966-.0776 0-.1551-.0187-.2278-.058-.212-.118-4.2469-2.365-4.9586-2.7583-.3564.653-2.0705 3.7387-2.4357 4.3828.6863.4455 4.5591 2.952 4.7633 3.0838.1542.0983.2317.2576.2327.4346l-.0334.1859c-.7274 1.8625-1.232 3.8223-1.4794 5.8293-.0324.2468-.2288.4317-.4683.4395-.0442.001-.8826.0246-1.9536.0541l1.9369-.0541c.2641-2.0856.7765-4.0818 1.5128-5.962l-.1561-.1003.0373-.0993c.0383-.1013.0766-.2036.1169-.3039l-4.9597-3.1998 2.6978-4.8597z" fill="#a5a5a5"/><path d="m19.4547 29.9136 6.1073-.9293c-.1905.4868-.3652.9804-.5242 1.48l-6.1073.9292c.159-.4985.3338-.9922.5242-1.4799z" fill="#8c8c8c"/><path d="m18.9303 31.3939 6.1073-.9292c-.1993.6264-.3741 1.2616-.5233 1.9047l-6.1063.9293c.1483-.6422.323-1.2784.5223-1.9048z" fill="#8f8f8f"/><path d="m18.4078 33.2992 6.1073-.9303c-.1453.6274-.2651 1.2607-.3593 1.8998l-6.1063.9303c.0933-.6392.214-1.2734.3583-1.8998z" fill="#919191"/><path d="m18.0492 35.1986 6.1063-.9302c-.0265.1809-.0511.3628-.0736.5526l-6.1063.9214c.0225-.1809.0471-.3629.0736-.5438z" fill="#949494"/><path d="m22.2508 53.7349 6.1072-.9303c.9454 1.2538 1.9998 2.4151 3.1582 3.4624l-6.1073.9303c-1.1574-1.0483-2.2128-2.2096-3.1581-3.4624z"/><path d="m25.4092 57.1968 6.1073-.9293c.3505.3166.7108.6225 1.0799.9194l-6.1063.9303c-.3691-.296-.7304-.6038-1.0809-.9204z"/><path d="m23.3538 52.958 6.1073-.9302c.967 1.3836 2.0822 2.6501 3.3221 3.7731l-6.1063.9303c-1.2399-1.124-2.3561-2.3906-3.3231-3.7732z" fill="#9e9e9e"/><path d="m26.308 58.4711 6.1073-.9303-2.6507 5.1676-6.1072.9292z" fill="#8b8b8b"/><path d="m26.4921 58.621 6.1072-.9303-2.6362 5.137-6.1069.9303z" fill="#969696"/><path d="m26.4897 58.1168 6.1073-.9293-.1816.353-6.1073.9303z"/><path d="m23.3538 52.958 6.1073-.9302c.967 1.3836 2.0822 2.6501 3.3221 3.7731l-6.1063.9303c-1.2399-1.124-2.3561-2.3906-3.3231-3.7732z" fill="#9e9e9e"/><path d="m26.6766 56.7311 6.1063-.9303c.6754.6116 1.3862 1.18 2.1303 1.7022l-6.1072.9302c-.7442-.5221-1.4549-1.0915-2.1294-1.7021z" fill="#9c9c9c"/><path d="m26.6766 56.7311 6.1063-.9303c.6754.6116 1.3862 1.18 2.1303 1.7022l-6.1072.9302c-.7442-.5221-1.4549-1.0915-2.1294-1.7021z" fill="#9c9c9c"/><path d="m23.8542 63.7624 6.1073-.9293 4.882 2.9344-6.1062.9292z"/><path d="m31.9218 61.3818 6.1072-.9302-3.1847 5.316-6.1072.9292z" fill="#898989"/><path d="m31.9241 61.8946 6.1073-.9292-3.1847 5.3071-6.1073.9293z" fill="#1f1f1f"/><path d="m31.9218 61.3818 6.1072-.9302c.5351.2301 1.0789.4405 1.6316.6293l-6.1072.9312c-.5527-.1897-1.0966-.4002-1.6316-.6303z"/><path d="m33.5535 62.0117 6.1072-.9302c.6018.2065 1.2144.3865 1.8368.5418l-6.1072.9303c-.6215-.1544-1.234-.3363-1.8368-.5419z"/><path d="m35.3904 62.5534 6.1072-.9293c.6219.1554 1.2527.2842 1.8918.3865l-6.1063.9302c-.6401-.1022-1.2703-.2321-1.8927-.3874z"/><path d="m37.2828 62.9403 6.1073-.9292c.1374.0216.2749.0432.4133.0619l-6.1073.9293c-.1374-.0187-.2758-.0403-.4133-.062z"/><path d="m26.6766 56.7311 6.1063-.9303c.6754.6116 1.3862 1.18 2.1303 1.7022l-6.1072.9302c-.7442-.5221-1.4549-1.0915-2.1294-1.7021z" fill="#9c9c9c"/><path d="m28.806 58.4336 6.1072-.9302c.6077.4267 1.237.823 1.8869 1.1859l-6.1074.9293c-.6488-.3629-1.2781-.7582-1.8867-1.185z" fill="#999"/><path d="m30.6931 59.6187 6.1073-.9293c.5743.3206 1.1643.6156 1.7671.8821l-6.1063.9292c-.6037-.2665-1.1938-.5615-1.7681-.882z" fill="#969696"/><path d="m32.461 60.5012 6.1073-.9293c.5576.2469 1.126.4691 1.7062.6678l-6.1063.9302c-.5802-.1986-1.1496-.4219-1.7072-.6687z" fill="#949494"/><path d="m34.168 61.1696 6.1063-.9293c.5596.1908 1.129.3599 1.7072.5035l-6.1072.9303c-.5783-.1446-1.1477-.3137-1.7063-.5045z" fill="#919191"/><path d="m35.8745 61.6737 6.1073-.9293c.5733.1426 1.1565.2616 1.7465.357l-6.1063.9295c-.591-.0937-1.1731-.2137-1.7475-.3572z" fill="#8f8f8f"/><path d="m37.6217 62.0309 6.1073-.9292c.6037.0963 1.2163.1671 1.8368.2114l-6.1073.9292c-.6195-.0432-1.2321-.114-1.8368-.2114z" fill="#8c8c8c"/><path d="m22.1156 24.1349c.7225-.9666 1.5177-1.8762 2.3757-2.718l-.0571.0512c-.0528.0531-.1068.1062-.2295.2301-.0619.0629-.1228.1258-.2613.2704-.0578.061-.116.1219-.1727.1829-.0284.0315-.0569.062-.0854.0934-.054.058-.108.117-.161.176-.0324.0354-.0638.0708-.0952.1062-.0501.0551-.0993.1112-.1482.1672-.0364.0413-.0717.0826-.107.1239-.0442.0511-.0884.1023-.1326.1544-.0402.0462-.0797.0944-.1188.1406-.0392.0482-.0785.0954-.1181.1426-.0458.0561-.09.1111-.1351.1672-.0324.0403-.0648.0796-.0972.12-.0505.0629-.1002.1268-.1502.1907-.0265.0344-.054.0698-.0815.1042-.0756.0984-.1502.1967-.2248.297z" fill="#a5a5a5"/><path d="m26.1335 19.948.1836.353c-1.5776 1.2558-2.9834 2.717-4.1988 4.3386l-5.3798-2.9825-2.6978 4.8587-.2032-.1386 2.899-5.2236 5.3789 2.9815c1.1643-1.5586 2.5181-2.9658 4.0181-4.1871z" fill="#cbcbcb"/><path d="m26.8022 19.7992 6.1063-.8968z" fill="#969696"/><path d="m26.8013 19.8328 6.1024-.888z" fill="#949494"/><path d="m26.797 19.8746 6.0994-.889z" fill="#919191"/><path d="m26.7893 19.9154 6.0955-.889z" fill="#8f8f8f"/><path d="m26.7782 19.9562 6.0916-.889z" fill="#8c8c8c"/><path d="m26.7629 19.9975 6.0867-.887z" fill="#8a8a8a"/><path d="m26.7433 20.0398 6.0798-.8841z" fill="#878787"/><path d="m26.7164 20.0849 6.068-.8791z" fill="#858585"/><path d="m26.6776 20.1357 6.0445-.8692c-1.1133.8879-2.1412 1.8772-3.0758 2.9579l-6.1063.9302c.9337-1.0817 1.9625-2.0709 3.1376-3.0189z" fill="#828282"/><path d="m45.8038 22.7497 6.1073-.9303c.4487.1534.8895.3265 1.3214.5183l-6.1073.9292c-.4319-.1907-.8717-.3638-1.3214-.5172z" fill="#949494"/><path d="m47.1254 23.2668 6.1073-.9292c.4663.2065.9218.4346 1.3666.6824l-6.1073.9293c-.4438-.2478-.9002-.476-1.3666-.6825z" fill="#969696"/><path d="m48.4921 23.9497 6.1073-.9303c.5006.2803.9876.5861 1.4568.9155l-6.1072.9303c-.4693-.3295-.9553-.6353-1.4569-.9155z" fill="#999"/><path d="m48.4921 23.9497 6.1073-.9303c.5006.2803.9876.5861 1.4568.9155l-6.1072.9303c-.4693-.3295-.9553-.6353-1.4569-.9155z" fill="#999"/><path d="m49.9493 24.8648 6.1073-.9303c.5743.4042 1.1231.8437 1.6444 1.3148l-6.1073.9302c-.5203-.472-1.07-.9116-1.6444-1.3147z" fill="#9c9c9c"/><path d="m51.5935 26.1794 6.1073-.9302c.9562.8673 1.8172 1.8447 2.5633 2.9117l-6.1073.9302c-.7461-1.0679-1.6061-2.0454-2.5633-2.9117z" fill="#9e9e9e"/><path d="m54.1571 29.0911 6.1073-.9302c.4859.6972.9238 1.4317 1.3086 2.1997l-6.1073.9303c-.3848-.768-.8217-1.5036-1.3086-2.1998z" fill="#a1a1a1"/><path d="m57.2998 40.0611 6.1072-.9303c-.103.0217-.2051.0394-.3072.0551l-6.1063.9303c.1011-.0158.2042-.0345.3063-.0551z" fill="#828282"/><path d="m55.4657 31.2907 6.1073-.9303c.5664 1.1348 1.0151 2.3424 1.3292 3.603l-6.1072.9303c-.3142-1.2617-.7628-2.4682-1.3293-3.603z" fill="#9e9e9e"/><path d="m56.7955 34.8937 6.1072-.9303c.1689.6776.2975 1.3698.3858 2.0759l-6.1062.9292c-.0884-.705-.218-1.3983-.3868-2.0748z" fill="#9c9c9c"/><path d="m57.1819 36.9689 6.1072-.9292c.0727.5792.1169 1.1662.1316 1.7618l-6.1063.9296c-.0147-.5949-.0599-1.183-.1325-1.7622z" fill="#999"/><path d="m57.3141 38.7316 6.1073-.9303c.0039.1269.0059.2537.0059.3806.0009.0797.0009.1593 0 .238-.002.116-.003.1799-.0043.2438-.0026.1112-.0046.1731-.0065.236-.005.119-.0079.1751-.0099.2311l-6.1072.9303c.0023-.0571.0049-.1121.0098-.2311.002-.0629.0039-.1249.0069-.237.0009-.0629.0019-.1259.0039-.2439.001-.0786.001-.1583 0-.2369 0-.1279-.002-.2547-.0059-.3806z" fill="#969696"/><path d="m54.6585 20.3408 6.1072-.9303c.3593.2901.7108.591 1.0554.9018l-6.1073.9302c-.3426-.3107-.696-.6116-1.0553-.9017z" fill="#9c9c9c"/><path d="m55.714 21.242 6.1073-.9302c1.1319 1.0246 2.1725 2.1594 3.0963 3.3915l-6.1073.9303c-.9238-1.2331-1.9644-2.3669-3.0963-3.3916z" fill="#9e9e9e"/><path d="m56.0237 21.3577 6.1073-.9302c1.1604 1.0502 2.2246 2.2145 3.1729 3.4732l-6.1073.9302c-.9473-1.2586-2.0115-2.4229-3.1729-3.4732z" fill="#9e9e9e"/><path d="m56.0237 21.3577 6.1073-.9302c1.1604 1.0502 2.2246 2.2145 3.1729 3.4732l-6.1073.9302c-.9473-1.2586-2.0115-2.4229-3.1729-3.4732z" fill="#9e9e9e"/><path d="m55.1408 20.0949 6.1063-.9302-.1817.354-6.1072.9302z" fill="#8b8b8b"/><path d="m54.9586 20.4488 6.1072-.9302c.3633.293.7177.5959 1.0652.9096l-6.1073.9293c-.3475-.3137-.7019-.6166-1.0651-.9087z" fill="#9c9c9c"/><path d="m56.0237 21.3577 6.1073-.9302c1.1604 1.0502 2.2246 2.2145 3.1729 3.4732l-6.1073.9302c-.9473-1.2586-2.0115-2.4229-3.1729-3.4732z" fill="#9e9e9e"/><path d="m55.1369 20.0954 6.1073-.9293c.3102.2538.6156.5163.913.7857l-6.1063.9303c-.2984-.2694-.6037-.532-.914-.7867z" fill="#b8b8b8"/><path d="m56.0505 20.8819 6.1073-.9293c1.1525 1.0424 2.2079 2.1959 3.1444 3.4437l-6.1072.9303c-.9366-1.2479-1.9919-2.4014-3.1445-3.4447z" fill="#bdbdbd"/><path d="m55.1474 20.1007 6.1073-.9302c.3004.2478.5969.5025.8865.765l-6.1073.9293c-.2896-.2616-.5851-.5173-.8865-.7641z" fill="#9c9c9c"/><path d="m56.0342 20.8651 6.1073-.9303c1.1545 1.0453 2.2177 2.2057 3.1601 3.4614l-6.1062.9303c-.9425-1.2558-2.0047-2.4161-3.1612-3.4614z" fill="#9e9e9e"/><path d="m57.2978 40.0967 6.1073-.9303c1.2566-.1298 2.5014-.2753 3.7305-.4366l-6.1063.9303c-1.2301.1612-2.4749.3058-3.7315.4366z" fill="#878787"/><path d="m61.0291 39.6597 6.1073-.9293c.9179-.12 1.8289-.2488 2.7301-.3864l-6.1072.9302c-.9012.1367-1.8113.2655-2.7302.3855z" fill="#858585"/><path d="m64.5409 21.9042 6.1073-.9303-5.3445 2.9265-6.1063.9302z" fill="#808080"/><path d="m64.3529 22.0718 6.1073-.9303c-.699.3855-4.7132 2.5911-4.9253 2.7072-.0491.0255-.1001.0432-.1531.0511l-6.1073.9303c.053-.0089.105-.0256.1531-.0522.2121-.115 4.2263-2.3207 4.9253-2.7061z" fill="#828282"/><path d="m26.308 58.4711c-1.5138-1.238-2.8715-2.6619-4.0545-4.2323l-5.3523 2.9264-2.9501-5.2599.2062-.1318 2.7419 4.8872 5.3514-2.9254c1.232 1.6333 2.6496 3.1083 4.239 4.3818z"/><path d="m25.8138 46.4423c-.0275-.059-.056-.118-.0854-.1819-.0265-.058-.053-.116-.0835-.1848-.0265-.059-.052-.118-.0795-.1829-.0265-.06-.052-.121-.0785-.1839-.0255-.061-.0511-.121-.0776-.1879l-.0117-.0285.4938 1.1102c-.0256-.0521-.0511-.1032-.0776-.1603z" fill="#a5a5a5"/><path d="m41.2174 56.1798 6.12-.9303-6.1073.9303z" fill="#8a8a8a"/><path d="m41.2303 56.1798 6.1809-.9322c.0412-.001.0835-.002.1247-.003l-6.1073.9293c-.0412.001-.0824.0029-.1983.0059z" fill="#878787"/><path d="m41.4288 56.1741 6.1888-.9332c.0422-.001.0854-.003.1276-.0049l-6.1073.9292c-.0422.002-.0854.004-.1276.0059z" fill="#878787"/><path d="m41.6378 56.1654 6.1937-.9342z" fill="#878787"/><path d="m41.7245 56.1616 6.1073-.9303c.0402-.0019.0805-.0039.1207-.0068l-6.1063.9302c-.0402.002-.0814.0039-.1217.0069z" fill="#878787"/><path d="m41.8458 56.1548 6.1967-.9361-6.1073.9302z" fill="#878787"/><path d="m41.935 56.1491 6.1073-.9302c.0392-.002.0785-.005.1178-.0079l-6.1063.9302c-.0393.003-.0786.005-.1188.0079z" fill="#878787"/><path d="m42.0534 56.1414 6.1976-.9371z" fill="#878787"/><path d="m42.1445 56.1338 6.1073-.9293c.0382-.003.0765-.0059.1148-.0098l-6.1063.9302c-.0383.003-.0765.0059-.1158.0089z" fill="#878787"/><path d="m42.26 56.1251 6.1073-.9302.0923-.0079-6.1063.9293c-.0314.0029-.0618.0059-.0933.0088z" fill="#878787"/><path d="m42.353 56.1165 6.1073-.9293c.0373-.0039.0746-.0069.1119-.0108l-6.1063.9292c-.0373.004-.0746.0069-.1129.0109z" fill="#878787"/><path d="m42.4656 56.1058 6.1986-.9391z" fill="#878787"/><path d="m42.5572 56.0963 6.1073-.9293c.0383-.0039.0775-.0088.1168-.0128l-6.1073.9293c-.0383.0049-.0775.0089-.1168.0128z" fill="#878787"/><path d="m42.6741 56.0838 6.1927-.9391z" fill="#878787"/><path d="m42.7599 56.0742 6.1073-.9293c.0393-.0049.0776-.0098.1168-.0147l-6.1063.9292c-.0392.0059-.0785.0099-.1178.0148z" fill="#878787"/><path d="m42.9689 56.0482 6.1073-.9293.0196-.0029-6.1062.9293z" fill="#878787"/><path d="m42.9891 56.0454 6.1985-.9421z" fill="#858585"/><path d="m42.8774 56.0598 6.1063-.9292.0923-.0119z" fill="#878787"/><path d="m43.0807 56.0339 6.1985-.9431z" fill="#858585"/><path d="m43.1722 56.0204 6.1073-.9293c.0373-.0059.0746-.0108.1119-.0167l-6.1063.9293c-.0373.0059-.0755.0118-.1129.0167z" fill="#858585"/><path d="m43.2849 56.0041 6.1357-.9342z" fill="#858585"/><path d="m43.4694 54.9506 6.1068-.9293c-.1296.0217-.2258.0374-.3181.0512l-6.1063.9302c.0913-.0138.1885-.0305.3176-.0521z" fill="#828282"/><path d="m52.4103 49.8466 6.1073-.9293c-2.3542 2.718-5.5948 4.5972-9.2566 5.1558l-6.1073.9292c3.6618-.5575 6.9034-2.4367 9.2566-5.1557z" fill="#828282"/><path d="m37.6965 63.0028 6.1073-.9293.2336 6.2787-6.1072.9312z"/><path d="m37.6217 62.0309 6.1073-.9292c.6037.0963 1.2163.1671 1.8368.2114l-6.1073.9292c-.6195-.0432-1.2321-.114-1.8368-.2114z" fill="#8c8c8c"/><path d="m39.4586 62.2422 6.1073-.9292c.4516.0314.9081.0482 1.3664.0501l-6.1071.9313c-.4582-.003-.9145-.0207-1.3666-.0522z" fill="#8a8a8a"/><path d="m37.9305 69.2831 6.1072-.9302 5.8619.0305-6.1073.9292z"/><path d="m42.0544 56.1414c-.0393.003-.0796.005-.2082.0138l-.1109.0059z" fill="#a5a5a5"/><path d="m41.4566 62.2874 6.1073-.9293c.7471-.0187 1.4853-.0767 2.2128-.1731l-6.1073.9293c-.7265.0964-1.4647.1544-2.2128.1731z" fill="#878787"/><path d="m41.4566 62.2874 6.1073-.9293c.7471-.0187 1.4853-.0767 2.2128-.1731l-6.1073.9293c-.7265.0964-1.4647.1544-2.2128.1731z" fill="#878787"/><path d="m43.6698 62.1145 6.1073-.9293c.1335-.0186.267-.0373.3995-.058l-6.1063.9303c-.1335.0206-.267.0393-.4005.057z" fill="#858585"/><path d="m40.8219 61.5508 6.1073-.9293c.2111.001.4211-.001.6302-.0059l-6.1062.9292c-.2101.005-.4202.0069-.6313.006z" fill="#8a8a8a"/><path d="m41.4533 61.545 6.1062-.9292c.7481-.0197 1.4864-.0767 2.2128-.1741l-6.1062.9303c-.7265.0963-1.4648.1544-2.2128.173z" fill="#878787"/><path d="m43.666 61.3722 6.1062-.9303c.1345-.0177.269-.0364.4025-.057l-6.1072.9293c-.1335.0206-.2671.0393-.4015.058z" fill="#858585"/><path d="m43.9608 63.0354 6.1074-.9292-.169 6.2767-6.1063.9302z" fill="#9b9b9b"/><path d="m43.9608 63.0354 6.1074-.9292c.1572-.0217.314-.0433.4698-.0679l-6.107.9312c-.1561.0226-.3132.0453-.4702.0659z"/><path d="m43.9631 63.5396 6.1073-.9303-.1689 6.2777-6.1063.9313z" fill="#1f1f1f"/><path d="m49.7211 61.473 6.1073-.9293c-1.669.708-3.4419 1.2135-5.2905 1.4947l-6.1063.9302c1.8476-.2812 3.6206-.7866 5.2895-1.4956z" fill="#828282"/><path d="m49.7235 61.9868 6.1063-.9293c-1.6679.6992-3.4409 1.2036-5.2885 1.4849l-6.1072.9302c1.8485-.2812 3.6205-.7857 5.2894-1.4858z"/><path d="m49.7211 61.473 6.1073-.9293 3.2337 5.3485-6.1072.9292z"/><path d="m62.193 39.8354 6.1073-.9293c-.0049.3993-.0196.7956-.0442 1.1909l-6.1072.9292c.0245-.3933.0392-.7916.0441-1.1908z" fill="#969696"/><path d="m62.1489 41.0262 6.1072-.9292c-.0402.6372-.107 1.2675-.1973 1.889l-6.1073.9293c.0913-.6215.1571-1.2518.1974-1.8891z" fill="#949494"/><path d="m61.9514 42.9152 6.1073-.9293c-.0893.6077-.2032 1.2076-.3397 1.7995l-6.1072.9293c.1374-.591.2503-1.1908.3396-1.7995z" fill="#919191"/><path d="m61.6121 44.7148 6.1072-.9293c-.1384.595-.2994 1.183-.483 1.7592l-6.1063.9293c.1826-.5762.344-1.1633.4821-1.7592z" fill="#8f8f8f"/><path d="m61.1297 46.474 6.1073-.9293c-.1914.5979-.4064 1.185-.645 1.7602l-6.1063.9293c.2386-.5743.4536-1.1623.644-1.7602z" fill="#8c8c8c"/><path d="m60.4855 48.2343 6.1073-.9293c-.2582.6215-.5419 1.2292-.8521 1.8192l-6.1073.9303c.3102-.591.5939-1.1977.8521-1.8202z" fill="#8a8a8a"/><path d="m59.6332 50.054 6.1073-.9293c-.3534.6726-.7402 1.3246-1.1575 1.9539l-6.1072.9293c.4172-.6274.805-1.2803 1.1574-1.9539z" fill="#878787"/><path d="m58.4761 52.0082 6.1072-.9293c-.5173.7779-1.0808 1.5203-1.6885 2.2205l-6.1073.9302c.6077-.7011 1.1722-1.4426 1.6886-2.2214z" fill="#858585"/><path d="m56.7878 54.2294 6.1073-.9293c-3.2338 3.7358-7.6879 6.3181-12.7211 7.0851l-6.1073.9293c5.0333-.7661 9.4883-3.3484 12.7211-7.0851z" fill="#828282"/><path d="m62.193 39.8354 6.1083-.8604z" fill="#969696"/><path d="m62.1939 39.9046 6.1073-.9292c.002.0777.0059.1553.0078.233l-6.1072.9293c-.002-.0777-.0059-.1554-.0079-.2331z" fill="#999"/><path d="m62.2016 40.138 6.1082-.8605c.003.5232-.0127 1.0434-.0451 1.5577l-6.1073.9302c.0324-.5143.0481-1.0335.0442-1.6274z" fill="#969696"/><path d="m62.1575 41.7656 6.1073-.9302c-.0403.6372-.107 1.2665-.1974 1.887l-6.1072.9303c.0913-.6215.1571-1.2508.1973-1.8871z" fill="#949494"/><path d="m61.96 43.6527 6.1072-.9303c-.0893.6077-.2022 1.2066-.3386 1.7966l-6.1073.9303c.1364-.5901.2493-1.1899.3387-1.7966z" fill="#919191"/><path d="m61.6216 45.4494 6.1072-.9303c-.1384.5949-.2994 1.182-.483 1.7571l-6.1062.9296c.1826-.5754.3436-1.162.482-1.7564z" fill="#8f8f8f"/><path d="m61.1394 47.2058 6.1072-.9292c-.1924.6008-.4074 1.1898-.6469 1.767l-6.1063.9293c.2385-.5762.4545-1.1663.646-1.7671z" fill="#8c8c8c"/><path d="m60.4932 48.9727 6.1073-.9293c-.2592.6225-.5439 1.2332-.8551 1.8242l-6.1073.9302c.3112-.592.5969-1.2007.8551-1.8251z" fill="#8a8a8a"/><path d="m59.638 50.7983 6.1073-.9303c-.3534.6707-.7383 1.3207-1.1545 1.9481l-6.1073.9292c.4163-.6254.8021-1.2754 1.1545-1.947z" fill="#878787"/><path d="m58.4837 52.7457 6.1073-.9292c-.5203.7827-1.0878 1.5281-1.6984 2.2331l-6.1063.9293c.6107-.7041 1.1781-1.4504 1.6974-2.2332z" fill="#858585"/><path d="m56.7858 54.9794 6.1073-.9293c-3.2348 3.7319-7.6869 6.3122-12.7162 7.0772l-6.1073.9303c5.0294-.7661 9.4825-3.3454 12.7162-7.0782z" fill="#828282"/><path d="m55.3171 58.621 6.1073-.9303-.1836.1475-6.1063.9293z" fill="#818181"/><path d="m55.135 58.7679 6.1063-.9293 2.682 5.1646-6.1072.9302z" fill="#a5a5a5"/><path d="m55.3133 58.62 6.1072-.9303 2.7027 5.196-6.1073.9293z" fill="#cacaca"/><path d="m55.3152 58.6218 6.1073-.9302 2.7007 5.1941-6.1073.9292z" fill="#a5a5a5"/><path d="m55.1321 58.2646 6.1073-.9293.1846.355-6.1073.9303z" fill="#a5a5a5"/><path d="m59.3302 53.9259 6.1073-.9292c-.3328.4435-.6813.8742-1.0426 1.2941l-6.1072.9292c.3622-.4179.7097-.8506 1.0425-1.2941z" fill="#858585"/><path d="m58.2882 55.2204 6.1072-.9292c-.9601 1.1111-2.0174 2.1309-3.1562 3.0434l-6.1073.9303c1.1388-.9126 2.1961-1.9333 3.1563-3.0445z" fill="#828282"/><path d="m59.3332 54.4311 6.1073-.9303c-.3328.4425-.6794.8723-1.0397 1.2902l-6.1072.9302c.3612-.4179.7078-.8486 1.0396-1.2901z" fill="#1f1f1f"/><path d="m58.2939 55.7208 6.1073-.9293c-.9091 1.0522-1.9065 2.0227-2.9775 2.8989l-6.1063.9303c1.071-.8762 2.0675-1.8478 2.9765-2.8999z" fill="#1f1f1f"/><path d="m59.3335 54.4313 6.1063-.9303c-1.1683 1.5581-2.5201 2.9658-4.0153 4.1891l-6.1072.9312c1.4951-1.2242 2.847-2.6334 4.0162-4.19z" fill="#1f1f1f"/><path d="m59.3302 53.9259 6.1073-.9292 5.37 2.9815-6.1063.9293z"/><path d="m40.8219 61.5508c11.7237.0609 21.2375-9.6448 21.371-21.7154 0 .1239.0099.2478.0099.3717.0559 12.2398-9.5335 22.147-21.3779 22.0871-11.8435-.062-21.5164-10.0686-21.5723-22.3093 0-.1239-.001-.2478.0069-.3717.2444 12.0736 9.8387 21.8766 21.5624 21.9376z" fill="#5e5a5a"/><path d="m63.9503 42.3832 6.1073-.9303c-.0246.1967-.0511.3934-.0795.5881l-6.1073.9302c.0285-.1957.056-.3914.0795-.588z" fill="#949494"/><path d="m63.8707 42.9708 6.1073-.9292c-.0972.6568-.219 1.3049-.3662 1.9411l-6.1073.9302c.1473-.6372.269-1.2842.3662-1.9421z" fill="#919191"/><path d="m63.5045 44.9125 6.1073-.9292c-.1473.6342-.3181 1.2577-.5135 1.8703l-6.1062.9293c.1953-.6117.3661-1.2351.5124-1.8704z" fill="#8f8f8f"/><path d="m62.9916 46.7833 6.1072-.9293c-.1678.5261-.3534 1.0424-.5556 1.5517l-6.1063.9293c.2022-.5074.3868-1.0256.5547-1.5517z" fill="#8c8c8c"/><path d="m63.9522 42.8864 6.1072-.9293c-.0245.1986-.051.3963-.0795.5929l-6.1072.9303c.0284-.1977.0559-.3953.0795-.5939z" fill="#1f1f1f"/><path d="m63.8727 43.4798 6.1072-.9293c-.0972.654-.2189 1.3-.3652 1.9343l-6.1072.9302c.1462-.6352.268-1.2803.3652-1.9352z" fill="#1f1f1f"/><path d="m63.5074 45.4148 6.1072-.9292c-.1472.6333-.3181 1.2567-.5134 1.8683l-6.1053.9303c.1944-.6126.3652-1.2351.5115-1.8694z" fill="#1f1f1f"/><path d="m62.9954 47.2845 6.1063-.9303c-.1237.3885-.2572.773-.3996 1.1515l-6.1063.9303c.1414-.3796.2759-.7631.3996-1.1515z" fill="#1f1f1f"/><path d="m63.9525 42.8867 6.1063-.9302c-.2366 1.9372-.6971 3.7957-1.3558 5.5489l-6.1073.9304c.6598-1.7533 1.1202-3.6119 1.3568-5.5491z" fill="#1f1f1f"/><path d="m64.8707 39.0994 6.1072-.9303c-.1698.0275-.3396.0551-.5095.0816l-6.1072.9303c.1698-.0266.3396-.0541.5095-.0816z" fill="#828282"/><path d="m64.3615 39.1805 6.1073-.9293c-.0707.0108-.1413.0217-.211.0325-.1306.0196-.2622.0403-.3937.06l-6.1063.9302c.1316-.0197.2621-.0403.3927-.061.0697-.0103.1413-.0216.211-.0324z" fill="#828282"/><path d="m65.6347 38.9736 6.1073-.9303c-.1521.0256-.3024.0502-.4535.0758l-6.1073.9302c.1512-.0256.3024-.0501.4535-.0757z" fill="#828282"/><path d="m65.1813 39.0489 6.1073-.9302-.3112.0501-6.1063.9303z" fill="#828282"/><path d="m65.9924 38.9131 6.1072-.9302c-.1197.0206-.2385.0403-.3583.0609l-6.1063.9303c.1188-.0207.2386-.0403.3574-.061z" fill="#828282"/><path d="m66.4132 38.8405 6.1073-.9302c-.1404.0246-.2808.0492-.4211.0728l-6.1073.9302c.1404-.0246.2808-.0491.4211-.0728z" fill="#828282"/><path d="m66.8005 38.7719 6.1073-.9302c-.1286.0236-.2582.0462-.3878.0688l-6.1072.9302c.1295-.0236.2591-.0462.3877-.0688z" fill="#828282"/><path d="m67.1936 38.7013 6.1073-.9293c-.1306.0236-.2621.0472-.3937.0699l-6.1063.9302c.1306-.0236.2621-.0472.3927-.0708z" fill="#828282"/><path d="m67.9683 38.5582 6.1073-.9302c-.1159.0226-.2327.0432-.3486.0649-.1413.0265-.2837.0531-.426.0786l-6.1073.9303c.1424-.0266.2847-.0521.4271-.0787.1158-.0216.2316-.0432.3475-.0649z" fill="#828282"/><path d="m68.7477 38.4085 6.1072-.9293c-.0962.0187-.1924.0364-.2876.0551-.1639.0314-.3279.0629-.4918.0944l-6.1073.9292c.1639-.0304.3279-.0619.4918-.0934.0962-.0187.1915-.0364.2877-.056z" fill="#828282"/><path d="m63.9503 42.3832 6.1073-.9303 6.0739-.1721-6.1073.9293z"/><path d="m69.5194 38.2553 6.1073-.9303c-.2572.0521-.5144.1033-.7717.1534l-6.1072.9303c.2582-.0502.5144-.1013.7716-.1534z" fill="#828282"/><path d="m69.5117 36.6381 6.1073-.9302c.002.5044.0049 1.1761.0079 1.6176l-6.1073.9303c-.0029-.4426-.0059-1.1142-.0079-1.6177z" fill="#969696"/><path d="m40.8253 62.2941c11.8434.0609 21.4338-9.8473 21.3769-22.0871 0-.1239-.0089-.2478-.0089-.3717-.1335 12.0716-9.6483 21.7763-21.371 21.7153-11.7237-.0599-21.319-9.8639-21.5625-21.9365-.0078.1239-.0078.2478-.0068.3707.0559 12.2407 9.7288 22.2483 21.5723 22.3093zm28.6946-24.039c-.003-.4425-.0059-1.1132-.0079-1.6167l.487.0187.0255 5.553-6.0739.1731c-.2562 2.0857-.7697 4.0809-1.5138 5.9522l.1541.0993c-.0235.062-.0451.1259-.0677.1898l-.0835.2154 4.9597 3.2096-2.6988 4.8578-5.37-2.9816c-1.2163 1.6216-2.63 3.0819-4.1988 4.3386l.1856.357-.1826.1465 2.682 5.1655-4.8624 2.8881-3.2328-5.3484c-1.8113.7689-3.7423 1.298-5.7607 1.5625l-.1689 6.2777-5.8618-.0304-.2337-6.2797c-2.0125-.2842-3.9485-.8339-5.7744-1.6216l-3.1847 5.316-4.8811-2.9402 2.6359-5.136-.1807-.1515.1777-.353c-1.5884-1.2735-3.007-2.7485-4.2381-4.3818l-5.3523 2.9254-2.7419-4.8872 4.9302-3.1566c-.0521-.1337-.0953-.2753-.1473-.4081l.1453-.0973c-.754-1.8782-1.2841-3.8793-1.5678-5.968l-6.068-.234-.0255-5.554.4869-.0147c.003.5044.0059 1.1574.0079 1.5999 3.8797.827 7.9921 1.4927 12.2381 1.9765.5311 9.0282 7.7919 16.2204 16.6411 16.2656 8.8453.0463 16.0471-7.0663 16.4997-16.0856 4.245-.4396 8.3426-1.0552 12.2224-1.8418z" fill="#5e5a5a"/><path d="m56.779 21.5674c.8707.8555 1.6797 1.7779 2.416 2.7593-.0746-.1003-.1502-.1987-.2258-.297-.0403-.0531-.0815-.1042-.1227-.1563-.0364-.0463-.0737-.0935-.111-.1397-.0461-.058-.0923-.115-.1394-.1721-.0314-.0393-.0628-.0777-.0942-.116-.0501-.06-.0992-.12-.1502-.18-.0305-.0354-.0599-.0717-.0903-.1071-.0511-.06-.1031-.12-.1542-.179l-.0893-.1023c-.052-.06-.105-.118-.1571-.177l-.0923-.1023c-.053-.059-.106-.117-.16-.175-.0304-.0334-.0609-.0669-.0913-.0993-.055-.057-.108-.1141-.1629-.1721-.0305-.0324-.0619-.0649-.0943-.0983-.055-.0571-.1109-.1141-.1659-.1711l-.0923-.0935c-.0579-.058-.1148-.115-.1738-.173z" fill="#a5a5a5"/><path d="m64.3529 22.0718 6.1073-.9303c.3711.6569 2.1136 3.7603 2.4759 4.4084l-6.1073.9292c-.3622-.647-2.1038-3.7514-2.4759-4.4073z" fill="#a1a1a1"/><path d="m66.8293 26.479 6.1073-.9292c-.6745.4386-4.5326 2.9048-4.7358 3.0356-.0403.0255-.0747.057-.1051.0924l-6.1073.9293c.0315-.0344.0668-.0659.1061-.0925.2032-.1298 4.0604-2.597 4.7348-3.0356z" fill="#828282"/><path d="m61.9887 29.6073 6.068-.8782z" fill="#858585"/><path d="m61.9495 29.6591 6.0807-.886z" fill="#878787"/><path d="m61.9236 29.7028 6.0876-.889z" fill="#8a8a8a"/><path d="m61.9044 29.7441 6.0926-.89z" fill="#8c8c8c"/><path d="m61.8901 29.7844 6.0955-.89z" fill="#8f8f8f"/><path d="m61.8785 29.8248 6.0994-.888z" fill="#919191"/><path d="m61.8708 29.8661 6.1024-.886z" fill="#949494"/><path d="m61.866 29.9102 6.1063-.8928z" fill="#969696"/><path d="m64.5409 21.9042 6.1073-.9303 2.7439 4.8873-6.1073.9303z" fill="#a5a5a5"/><path d="m55.1369 20.0954c1.5129 1.239 2.8794 2.66 4.0585 4.2314l5.3425-2.9265 2.9598 5.259-.2081.1298-2.7488-4.8853-5.3435 2.9265c-1.231-1.6334-2.6585-3.1094-4.239-4.3819z" fill="#cbcbcb"/><path d="m63.9062 36.422c.3947.0157 1.2802.0492 2.2639.0865l3.3417.1298c.002.5035.005 1.1751.0079 1.6167-.2572.0521-.5144.1032-.7716.1534-.0962.0196-.1925.0373-.2877.056-.1639.0315-.3279.063-.4918.0934-.1159.0227-.2327.0433-.3485.0649-.1414.0266-.2837.0531-.4261.0787-.1306.0236-.2621.0472-.3937.0708-.1286.0226-.2572.0452-.3868.0679-.1403.0245-.2807.0491-.4211.0727-.1188.0207-.2386.0403-.3574.061-.1521.0256-.3023.0501-.4535.0747l-.3112.0512c-.1689.0265-.3387.054-.5086.0806-.0696.0108-.1413.0226-.211.0324-2.2315.3482-4.5198.6432-6.8524.8841.0157-.3255.0235-.6549.0216-.9853-.0432-9.4707-7.5141-17.1861-16.6794-17.2333s-16.5577 7.5905-16.5145 17.0622c.001.3274.0118.6539.0314.9764-2.089-.2379-4.1457-.5202-6.1583-.8437-.2935-.0472-.4702-.0767-.6469-.1062-.0972-.0157-.1934-.0315-.2896-.0482-.1542-.0255-.3083-.0521-.4624-.0786-.1178-.0207-.2356-.0413-.3534-.062-.1404-.0236-.2818-.0492-.4222-.0747-.1315-.0236-.2621-.0472-.3927-.0698-.1305-.0246-.2611-.0482-.3907-.0728-.1414-.0256-.2827-.0521-.4231-.0787-.1208-.0226-.2415-.0462-.3623-.0688-.1531-.0295-.3063-.06-.4594-.0895-.106-.0207-.214-.0413-.32-.0629-.1758-.0354-.3505-.0708-.5243-.1062-.0864-.0168-.1718-.0345-.2582-.0522-.2592-.0531-.5173-.1071-.7755-.1622-.002-.4425-.0049-1.0955-.0069-1.5999l3.6353-.1023c.1178-.0039.2346-.0069.3475-.0098.2199-.0069.2729-.0079.325-.0099.3141-.0078.4378-.0118.5517-.0147.052-.002.1011-.003.1482-.0049.112-.003.2111-.0049.2936-.0079.534-.0157.7304-.2006.7628-.4484.2474-2.006.752-3.9668 1.4794-5.8293l.0334-.1849c-.001-.177-.0785-.3363-.2327-.4346-.2042-.1318-4.0771-2.6383-4.7633-3.0848.3642-.6431 2.0793-3.7298 2.4357-4.3818.7117.3924 4.7456 2.6393 4.9586 2.7573 1.8064-1.7327 3.1857-3.1585 4.729-4.3877.1197-.0973.1875-.2468.1865-.3973l-.0609-.2389c-.1139-.2203-2.2795-4.3897-2.6585-5.1253.6313-.3687 3.6088-2.1397 4.2401-2.5163.4319.709 2.8568 4.721 2.9844 4.9324 2.3934-.5536 4.2911-1.0748 6.2398-1.3295.2405-.0344.4104-.2369.4172-.4847.0079-.2478.1404-4.9512.162-5.78215l4.9125.02458c.0285.83187.2052 5.53727.214 5.78507.0108.2478.1905.4523.43.4887 1.9438.2754 3.8464.8074 5.6557 1.5852.5979-.1908 3.1121-4.3877 3.5283-5.0928.6352.3835 3.6373 2.185 4.2724 2.5597-.3809.7316-2.5092 4.8794-2.6211 5.0986l-.0501.238c.001.1505.0619.3009.1905.3983 1.5462 1.2469 2.9471 2.6865 4.1526 4.2933.6165.1445 4.8428-2.1772 5.5418-2.5616.3721.6558 2.1137 3.7603 2.4769 4.4073-.6745.4386-4.5326 2.9058-4.7358 3.0356-.1443.0964-.2297.2547-.2288.4327l.0442.1849c.7442 1.8703 1.2576 3.836 1.5315 5.845.0285.2478.2248.4347.4653.4445z" fill="#7a7777"/><path d="m18.857 30.1321.1462.0885c-.7363 1.8802-1.2487 3.8764-1.5138 5.962l-6.066.1721.0255 5.554-.0255-5.554-.002-.5044 6.0661-.181c.0952-.766.2277-1.5212.3936-2.2636.0089-.0403.0177-.0816.0275-.121.0108-.0472.0216-.0944.0324-.1406.2415-1.0315.5498-2.0375.916-3.012z" fill="#cbcbcb"/><path d="m19.0008 29.7167c-.053.1338-.1031.2685-.1542.4032l-5.0106-3.2323.2061-.3707z" fill="#494949"/><path d="m26.3105 58.4731.1816.1475-2.6359 5.137-.1995-.12z" fill="#cbcbcb"/><path d="m24.4342 21.4682.0579-.0512c.4928-.4838 1.0063-.945 1.5393-1.3835l.0874-.0787c-.0824.0669-.1639.1347-.2827.234-.0805.0679-.16.1357-.2396.2046l-.0392.0334c-.0776.0679-.1551.1357-.2778.2449-.0747.0668-.1493.1347-.272.2478-.0717.0658-.1433.1337-.2719.2556-.0687.0649-.1365.1298-.3014.2931z" fill="#a5a5a5"/><path d="m26.1191 19.9543-.0874.0797c.0334-.0286.0668-.0581.0874-.0797z" fill="#a5a5a5"/><path d="m26.3143 19.7968c-.0609.0482-.1218.0993-.1826.1475l-2.6988-5.1941.1983-.118z" fill="#494949"/><path d="m28.4857 11.7427-4.8546 2.8891-.2002-.3855.1983.3806z" fill="#a6a6a6"/><path d="m37.6534 8.74753 6.1073-.92926 5.8618.02951-6.1072.93025z" fill="#929292"/><path d="m43.5155 8.77773 6.1072-.92927.2248 6.27084-6.1072.9303z" fill="#808180"/><path d="m57.8164 63.9333 6.1073-.9302-4.8615 2.8891-6.1072.9302z" fill="#808080"/><path d="m58.0178 64.3194 6.1073-.9303-5.0618 3.0081-6.1063.9303z" fill="#1f1f1f"/><path d="m57.8164 63.9333.2013.3865-5.0608 3.0071-3.2337-5.3396c-1.8103.7581-3.7423 1.2882-5.7598 1.5527l-.1688 6.2777-5.8619-.0305-.2336-6.2807c-2.0125-.2851-3.9485-.8338-5.7755-1.6117l-3.1847 5.3072-5.0794-3.0602.1944-.3796 4.8831 2.9353 3.1847-5.316c1.826.7877 3.7629 1.3374 5.7744 1.6216l.2347 6.2797 5.8618.0304.1679-6.2777c2.0184-.2645 3.9504-.7936 5.7607-1.5625l3.2338 5.3494z" fill="#1f1f1f"/><path d="m57.8164 63.9333 6.1073-.9302.2013.3854-6.1073.9313z" fill="#1f1f1f"/><path d="m58.0159 63.8152 6.1073-.9293-.1963.123-6.1073.9292z" fill="#808080"/><path d="m55.3133 58.62 2.7026 5.195-.1963.1229-2.685-5.1704z" fill="#cbcbcb"/><path d="m57.2998 40.0611 6.1072-.9303c-.103.0217-.2051.0394-.3072.0551l-6.1063.9303c.1011-.0158.2042-.0345.3063-.0551z" fill="#828282"/><path d="m54.9567 19.9447 6.1073-.9303c.0608.0492.1227.1003.1826.1505l-6.1063.9302c-.0609-.0501-.1227-.1013-.1836-.1504z" fill="#9c9c9c"/><path d="m55.4389 20.344c.0756.0639.1512.1288.2258.1937l.0236.0207c-.1777-.1554-.3574-.3078-.54-.4573.0835.0679.1669.1387.2504.2085z" fill="#a5a5a5"/><path d="m55.7284 20.5929c.0687.061.1385.1219.2828.2507.0648.059.1305.1181.2267.2075-.1718-.1583-.3455-.3146-.5213-.468z" fill="#a5a5a5"/><path d="m56.2863 21.0961c.0629.059.1267.119.271.2556.0618.059.1217.1171.2189.2124-.1708-.1671-.3436-.3313-.4899-.468z" fill="#a5a5a5"/><path d="m62.5228 48.6241 6.1073-.9293c-.0285.0718-.056.1426-.0835.2144l-6.1072.9312z" fill="#8c8c8c"/><path d="m62.5228 48.6241 6.1073-.9293c-.0285.0718-.056.1426-.0835.2144l-6.1072.9312z" fill="#8c8c8c"/><path d="m62.5908 48.435 6.1073-.9302c-.0236.0619-.0452.1268-.0687.1897l-6.1063.9293c.0226-.0629.0451-.1278.0677-.1888z" fill="#8c8c8c"/><path d="m57.7916 14.9185-2.6506 5.1763c-.0629-.0501-.1227-.1003-.1846-.1504l2.6349-5.1439z"/><path d="m57.7916 14.9185 6.1073-.9293-2.6507 5.1754-6.1072.9302z" fill="#1f1f1f"/><path d="m57.7858 14.421 6.1073-.9303-.1915.3796-6.1062.9303z" fill="#979797"/><path d="m52.7008 11.3634 6.1073-.9303 5.0843 3.0582-6.1063.9293z" fill="#b8b8b8"/><path d="m52.7008 11.3634 6.1073-.9303 5.0882 3.0513-6.1063.9303z" fill="#9c9c9c"/><path d="m61.8652 29.9472 6.1072-.9302.0442.1858-6.1073.9303z" fill="#a2a2a2"/><path d="m62.4355 30.3986 6.1073-.9303-.0805.0463-6.1073.9302z" fill="#808080"/><path d="m62.5055 30.3107 6.1073-.9303-.0707.0885-6.1063.9293z" fill="#858585"/><path d="m62.3607 29.9404 6.1073-.9302c.0491.1229.0962.2468.1443.3707l-6.1073.9293c-.0471-.1239-.0952-.2468-.1443-.3698z" fill="#9e9e9e"/><path d="m62.518 30.3457 6.1073-.9293-.0825.0521-6.1073.9303z" fill="#808080"/><path d="m63.4412 35.9774 6.1082-.9214z" fill="#999"/><path d="m63.4422 35.9851 6.118-.8683z" fill="#9c9c9c"/><path d="m63.4537 36.047 6.1072-.9302c.0089.0364.0216.0718.0383.1042l-6.1072.9293c-.0167-.0325-.0285-.0669-.0383-.1033z" fill="#9e9e9e"/><path d="m63.492 36.1508 6.1446-.8663z" fill="#a1a1a1"/><path d="m63.5304 36.2141 6.18-.8467z" fill="#9e9e9e"/><path d="m63.6033 36.2972 6.1544-.8919z" fill="#9c9c9c"/><path d="m63.6512 36.3357 6.1485-.9037z" fill="#999"/><path d="m63.6924 36.3615 6.1475-.9096z" fill="#969696"/><path d="m63.7327 36.3817 6.1455-.9145z" fill="#949494"/><path d="m63.7711 36.3966 6.1465-.9184z" fill="#919191"/><path d="m63.8103 36.4081 6.1475-.9214z" fill="#8f8f8f"/><path d="m63.8506 36.4168 6.1495-.9254z" fill="#8c8c8c"/><path d="m63.8928 36.4216 6.12-.9293z" fill="#8a8a8a"/><path d="m62.355 30.4446 6.1073-.9303c.4211 1.0473.7736 2.129 1.0494 3.2412l-6.1072.9292c-.2759-1.1112-.6273-2.1938-1.0495-3.2401z" fill="#9e9e9e"/><path d="m63.4048 33.6851 6.1072-.9302c.1905.768.3456 1.5507.4624 2.3463.0197.1307.0373.2605.055.3913l-6.1073.9303c-.0166-.1308-.0353-.2616-.054-.3914-.1168-.7955-.2729-1.5783-.4633-2.3463z" fill="#9c9c9c"/><path d="m63.8612 35.4877-.0288-.179c.0082.0531.017.1062.0288.179z" fill="#a5a5a5"/><path d="m62.5084 30.3573 6.1072-.9303c.3554.9381.6597 1.9038.9052 2.8921l-6.1073.9302c-.2454-.9883-.5497-1.9539-.9051-2.892z" fill="#bdbdbd"/><path d="m63.4134 33.2492 6.1073-.9302c.215.8692.3858 1.7572.5065 2.6599l-6.1062.9303c-.1208-.9027-.2916-1.7907-.5076-2.66z" fill="#b8b8b8"/><path d="m62.5084 30.3573 6.1072-.9303c.3554.9381.6597 1.9038.9052 2.8921l-6.1073.9302c-.2454-.9883-.5497-1.9539-.9051-2.892z" fill="#9e9e9e"/><path d="m63.4134 33.2492 6.1073-.9302c.215.8692.3858 1.7572.5065 2.6599l-6.1062.9303c-.1208-.9027-.2916-1.7907-.5076-2.66z" fill="#9c9c9c"/><path d="m63.861 35.4872-.0285-.178c-.0078-.054-.0167-.1071-.0393-.2468-.0166-.0954-.0324-.1917-.05-.2871-.0059-.0364-.0138-.0738-.0197-.1102-.0166-.0875-.0324-.174-.0491-.2606-.0088-.0422-.0166-.0835-.0255-.1258-.0157-.0807-.0324-.1613-.0491-.2409-.0098-.0463-.0206-.0935-.0304-.1407-.0157-.0737-.0324-.1494-.0501-.2232-.0108-.0511-.0225-.1022-.0343-.1534-.0157-.0678-.0324-.1376-.0491-.2055-.0128-.0551-.0265-.1101-.0403-.1642-.0157-.0649-.0333-.1298-.049-.1947-.0157-.058-.0305-.1151-.0452-.1731-.0167-.061-.0324-.1209-.0491-.1809s-.0334-.121-.05-.18c-.0158-.058-.0334-.116-.0501-.173-.0177-.062-.0354-.124-.054-.1859-.0157-.0551-.0324-.1101-.0501-.1642-.0196-.0639-.0383-.1279-.0589-.1918-.0167-.0541-.0344-.1081-.051-.1622-.0206-.062-.0403-.1249-.0609-.1869-.0265-.0796-.053-.1583-.0805-.236-.0167-.0521-.0344-.1032-.053-.1553-.0354-.1023-.0717-.2046-.1296-.3639-.0324-.0855-.0638-.1711-.0962-.2566l-.0825.0521.0727-.0413c.6675 1.7631 1.1554 3.6226 1.4127 5.552-.0177-.1269-.0344-.2547-.054-.3816z" fill="#a5a5a5"/><path d="m67.3998 52.0495 6.1072-.9302-2.6987 4.8587-6.1073.9293z" fill="#8a8a8a"/><path d="m62.4394 48.8403 6.1072-.9303 4.9597 3.2087-6.1063.9312z" fill="#9d9d9d"/><path d="m67.4016 52.0457 6.1073-.9303.0049.0027-6.1073.9295z" fill="#9c9c9c"/><path d="m67.4064 52.0486 6.1073-.9305.2081.134-6.1072.9309z"/><path d="m64.7009 56.9078 2.7056-4.8588.2082.1338-2.9118 5.2294-5.37-2.9815c-1.1682 1.5566-2.5201 2.9668-4.0162 4.1901l-.1846-.356c1.5688-1.2567 2.9825-2.718 4.1979-4.3386z" fill="#1f1f1f"/><path d="m67.6145 52.183 6.1072-.9302-2.9117 5.2295-6.1073.9292z" fill="#1f1f1f"/><path d="m67.6116 51.6779 6.1073-.9293-.2101.3668-6.1073.9303z" fill="#898989"/><path d="m62.5908 48.435 5.0205 3.2431-.21.3678-4.9617-3.2057c.0305-.0699.0573-.1426.0835-.2164.0226-.0629.0451-.1278.0677-.1888z" fill="#cbcbcb"/><path d="m67.6116 51.6779 6.1073-.9293-.2101.3668-6.1073.9303z" fill="#939393"/><path d="m62.5908 48.435 6.1073-.9302 5.0205 3.244-6.1073.9293z" fill="#bababa"/><path d="m63.9062 36.422 6.1073-.9303c.3946.0158 1.2792.0492 2.2629.0876l-6.1063.9292c-.9837-.0373-1.8692-.0708-2.2639-.0865z" fill="#8a8a8a"/><path d="m63.9225 36.4225 6.1073-.9303 1.9173.0738-6.1073.9302z" fill="#8a8a8a"/><path d="m66.1697 36.5089 6.1073-.9302 3.3417.1298-6.1072.9292z" fill="#8a8a8a"/><path d="m69.5117 36.6381 6.1073-.9302.4869.0197-6.1072.9292z" fill="#8a8a8a"/><path d="m62.5084 30.3573c.6675 1.7631 1.1555 3.6226 1.4117 5.552l6.0768.2438.002.5035-6.0769-.234c-.0167-.1308-.0353-.2616-.0539-.3904-.2877-1.948-.7988-3.8174-1.5129-5.5874l.0805-.0462z" fill="#cbcbcb"/><path d="m52.7032 11.8675 4.8879 2.9333-2.6349 5.144c.0619.0491.1227.0993.1846.1504l-.1826.354c1.5805 1.2725 3.008 2.7475 4.239 4.3818l5.3435-2.9264 2.7439 4.8863-4.9243 3.1496c.0491.123.0972.2459.1453.3698l-.0697.0885-.0805.0462c.7137 1.769 1.2252 3.6394 1.5128 5.5864.0187.1298.0374.2606.054.3914l1.9173.0728c-1.0622-.0404-1.8898-.0718-1.933-.0738-.2405-.0098-.4378-.1967-.4653-.4445-.2739-2.009-.7883-3.9747-1.5325-5.844l-.0432-.1859c-.0009-.177.0835-.3363.2288-.4327.2032-.1298 4.0613-2.597 4.7348-3.0356-.3622-.647-2.1038-3.7514-2.4759-4.4073-.699.3854-4.7132 2.5911-4.9253 2.7061-.0716.0394-.1492.0581-.2258.0571-.1492-.001-.2935-.0718-.3917-.2016-1.2045-1.6058-2.6054-3.0464-4.1517-4.2923-.1286-.0974-.1894-.2488-.1904-.3993l.0501-.238c.1119-.2183 2.2393-4.367 2.6211-5.0976-.6351-.3757-3.6382-2.1772-4.2724-2.5607-.4172.7051-2.8048 4.6916-2.9304 4.902-.0923.1465-.2523.2321-.4143.2321-.0619-.001-.1247-.0138-.1836-.0413-1.8093-.7778-3.7119-1.3098-5.6557-1.5852-.2395-.0364-.4201-.2409-.43-.4887-.0098-.2468-.1855-4.9531-.215-5.78507l.4801.00296.2248 6.27081c2.0214.294 3.9573.8428 5.7755 1.6216z" fill="#a5a5a5"/><path d="m67.2847 26.7912 6.1073-.9303-4.9243 3.1497-6.1073.9302z" fill="#808080"/><path d="m67.2914 26.7921 6.1073-.9302.2081.3727-6.1073.9292z"/><path d="m67.4994 27.1642 6.1073-.9302-4.9812 3.1821-6.1063.9293z" fill="#1f1f1f"/><path d="m67.4994 27.1642-4.9802 3.1812c-.0521-.1347-.1051-.2704-.1581-.4052l4.9302-3.1477z"/><path d="m67.4976 26.6596 6.1072-.9303-.2081.1298-6.1073.9293z" fill="#808080"/><path d="m67.2904 26.7916.2072-.1317-.2082.1288z" fill="#808080"/><path d="m64.538 21.4005 6.1072-.9305 2.9589 5.2592-6.1063.9303z" fill="#cacaca"/><path d="m67.4976 26.6596 6.1072-.9303-.2071.1318-6.1073.9302z" fill="#808080"/><path d="m63.9503 42.3832 6.0739-.1731.002.5045-6.0739.172c-.2366 1.9372-.697 3.7958-1.3568 5.5491l-.159-.1003c.7451-1.8713 1.2576-3.8665 1.5138-5.9522z" fill="#1f1f1f"/><path d="m70.0247 42.2103 6.1073-.9293.0019.5035-6.1072.9303z" fill="#1f1f1f"/><path d="m69.9988 36.6568 6.1072-.9292.0256 5.5529-6.1073.9293z" fill="#9c9c9c"/><path d="m63.9206 35.9093 6.1072-.9303 6.0759.2439-6.1073.9302z" fill="#949494"/><path d="m69.9969 36.1527 6.107-.9293.0022.5035-6.1072.9302z" fill="#b9b9b9"/><path d="m57.3199 39.0307c0-9.4731-7.4307-17.1524-16.5969-17.1524-9.1663 0-16.597 7.6793-16.597 17.1524 0 9.473 7.7001 17.1869 16.8663 17.1869s16.3276-7.7139 16.3276-17.1869zm-28.3653-.043c0-6.6967 5.2755-12.1253 11.7832-12.1253 6.5078 0 11.7833 5.4286 11.7833 12.1253 0 6.6966-5.2756 12.1253-11.7833 12.1253-6.5076 0-11.7832-5.4287-11.7832-12.1253z" fill="url(#f)"/></g></g></svg>