<svg enable-background="new 0 0 50.00 50.00" height="50" viewBox="0 0 50 50" width="50" xmlns="http://www.w3.org/2000/svg" xmlns:xlink="http://www.w3.org/1999/xlink"><radialGradient id="a" cx="25" cy="25" gradientUnits="userSpaceOnUse" r="24"><stop offset="0" stop-color="#fcd7d7"/><stop offset=".991379" stop-color="#f00"/></radialGradient><radialGradient id="b" cx="25" cy="-6.03447" gradientUnits="userSpaceOnUse" r="40"><stop offset="0" stop-color="#fff" stop-opacity=".486275"/><stop offset=".271552" stop-color="#fff1f1" stop-opacity=".486275"/><stop offset="1" stop-color="#f00" stop-opacity=".486275"/></radialGradient><radialGradient id="c" cx="25" cy="12.5862" gradientTransform="matrix(-1 0 0 -1 50.000038 25.172432)" gradientUnits="userSpaceOnUse" r="40"><stop offset=".116379" stop-color="#fff" stop-opacity="0"/><stop offset="1" stop-color="#ffe700" stop-opacity=".513725"/></radialGradient><g stroke-linejoin="round"><ellipse cx="25" cy="25" fill="url(#a)" rx="22.5" ry="22.5" stroke="#000" stroke-width="2"/><ellipse cx="25" cy="25" fill="url(#b)" rx="20" ry="20" stroke-width=".2"/><ellipse cx="25" cy="25" fill="url(#c)" rx="20" ry="20" stroke-width=".2"/><g stroke="#fff" stroke-width=".299998"><path d="m13.8812 25.8959h-1.382v-3.9098c0-.422.0175-.8882.0526-1.3986h-.0337c-.0702.4016-.1336.6903-.1903.8663l-1.4171 4.4421h-1.11349l-1.44278-4.3969c-.03958-.1186-.10302-.4225-.1903-.9115h-.03778c.03598.6446.05398 1.21.05398 1.6961v3.6123h-1.20928v-6.5334h1.97723l1.23492 3.8734c.099.3091.171.6202.216.9333h.0256c.0756-.3617.1557-.6762.2402-.9435l1.235-3.8632h1.9812z"/><path d="m17.1636 19.3625v1.12h-.5183v4.2934h.5183v1.12h-2.4186v-1.12h.5183v-4.2934h-.5183v-1.12z"/><path d="m17.7682 25.6348v-1.4189c.2439.2177.5084.3811.7936.49.2852.1088.5732.1633.8638.1633.1709 0 .3201-.0175.4474-.0525s.2337-.0834.3192-.1451.1491-.1344.191-.218c.0418-.0836.0627-.1746.0627-.2727 0-.1264-.0333-.2395-.0999-.3391-.0665-.0997-.1574-.1918-.2726-.2764-.1152-.0845-.2517-.1662-.4096-.245-.1579-.0787-.3282-.1589-.5108-.2406-.4661-.211-.8134-.4691-1.042-.7744-.2285-.3052-.3428-.6737-.3428-1.1054 0-.3383.0632-.629.1896-.8721.1265-.243.2988-.4433.517-.6008s.4708-.2732.7578-.3471.5911-.1108.9123-.1108c.315 0 .5941.0202.8375.0605.2434.0404.4677.1023.6728.1859v1.3403c-.0999-.0778-.2087-.1464-.3266-.2057s-.2393-.1084-.3644-.1473-.2492-.0675-.3725-.086-.2407-.0277-.3523-.0277c-.152 0-.2906.0165-.4157.0496-.125.033-.2305.0797-.3165.14-.0859.0602-.1525.1324-.1997.2165s-.0709.1782-.0709.2822c0 .1089.0264.2064.079.2924.0526.0861.1275.1675.2247.2443s.2151.1524.3536.2268c.1386.0743.2951.1504.4697.2282.2384.1089.4526.2246.6424.3471.1899.1225.3527.2608.4886.4149s.2398.33.3118.5279c.0719.1978.1079.428.1079.6905 0 .3626-.0643.6669-.193.9129-.1286.246-.3032.4453-.5236.5979-.2205.1527-.4769.2623-.7693.3289s-.6011.0999-.9259.0999c-.3338 0-.6512-.0297-.9522-.089-.3009-.0593-.5616-.1477-.7821-.2654z"/><path d="m22.6054 25.6348v-1.4189c.2438.2177.5083.3811.7935.49.2853.1088.5732.1633.8638.1633.171 0 .3201-.0175.4474-.0525s.2337-.0834.3192-.1451.1492-.1344.191-.218.0628-.1746.0628-.2727c0-.1264-.0333-.2395-.0999-.3391-.0666-.0997-.1575-.1918-.2727-.2764-.1151-.0845-.2517-.1662-.4096-.245-.1579-.0787-.3282-.1589-.5108-.2406-.4661-.211-.8134-.4691-1.0419-.7744-.2286-.3052-.3428-.6737-.3428-1.1054 0-.3383.0632-.629.1896-.8721.1264-.243.2987-.4433.5169-.6008s.4708-.2732.7578-.3471.5912-.1108.9124-.1108c.3149 0 .5941.0202.8374.0605.2434.0404.4677.1023.6728.1859v1.3403c-.0998-.0778-.2087-.1464-.3266-.2057-.1178-.0593-.2393-.1084-.3644-.1473-.125-.0389-.2492-.0675-.3725-.086s-.2407-.0277-.3522-.0277c-.1521 0-.2907.0165-.4157.0496-.1251.033-.2306.0797-.3165.14-.086.0602-.1525.1324-.1998.2165-.0472.0841-.0708.1782-.0708.2822 0 .1089.0263.2064.0789.2924.0527.0861.1276.1675.2247.2443.0972.0768.2151.1524.3536.2268.1386.0743.2952.1504.4697.2282.2385.1089.4526.2246.6425.3471.1898.1225.3527.2608.4885.4149.1359.1541.2398.33.3118.5279.072.1978.108.428.108.6905 0 .3626-.0644.6669-.193.9129-.1287.246-.3033.4453-.5237.5979-.2204.1527-.4769.2623-.7693.3289s-.601.0999-.9259.0999c-.3338 0-.6512-.0297-.9521-.089-.301-.0593-.5617-.1477-.7821-.2654z"/><path d="m29.6019 19.3625v1.12h-.5182v4.2934h.5182v1.12h-2.4185v-1.12h.5182v-4.2934h-.5182v-1.12z"/><path d="m35.9075 25.8959h-1.3848l-2.4766-4.1053c-.1448-.2401-.2456-.4209-.3023-.5425h-.0162c.0225.2305.0338.5829.0338 1.0573v3.5905h-1.2957v-6.5334h1.4765l2.3848 3.9769c.1089.1799.2097.3578.3024.5337h.0162c-.0225-.1516-.0338-.4506-.0338-.8968v-3.6138h1.2957z"/><path d="m42.2994 25.4394c-.592.3665-1.3276.5498-2.2067.5498-.9744 0-1.7428-.2892-2.3052-.8677-.5623-.5785-.8435-1.3752-.8435-2.3902 0-1.0209.3086-1.8531.9259-2.4967.6172-.6436 1.4382-.9654 2.4631-.9654.6451 0 1.2142.0962 1.7073.2887v1.3913c-.467-.3111-1.0379-.4667-1.7127-.4667-.5651 0-1.0255.1984-1.3814.595-.3559.3967-.5338.9261-.5338 1.5881 0 .6719.157 1.1915.471 1.559.3141.3675.7379.5513 1.2714.5513.3203 0 .5745-.0491.7626-.1473v-1.2527h-1.2093v-1.2134h2.5913z"/><path d="m16.343 31.9625v1.12h-.5183v4.2934h.5183v1.12h-2.4186v-1.12h.5183v-4.2934h-.5183v-1.12z"/><path d="m21.5256 38.245c-.4363.2295-1.0063.3442-1.71.3442-.9186 0-1.6407-.2931-2.1661-.8794-.5255-.5862-.7882-1.3669-.7882-2.3421 0-1.0393.2955-1.8822.8867-2.5287.5911-.6465 1.3582-.9698 2.3011-.9698.584 0 1.0761.0817 1.4765.245v1.435c-.3941-.2489-.843-.3733-1.3469-.3733-.5534 0-.9999.1876-1.3395.5629-.3397.3753-.5095.8837-.5095 1.5254 0 .6154.1601 1.1057.4805 1.4707.3203.3651.7517.5476 1.2943.5476.5173 0 .9911-.1244 1.4211-.3733z"/><path d="m25.1697 38.5892c-.871 0-1.5809-.3029-2.1298-.9086-.5488-.6056-.8232-1.3951-.8232-2.3683 0-1.0267.2784-1.8572.8354-2.4915.5569-.6344 1.2952-.9516 2.2148-.9516.8682 0 1.5703.3036 2.1061.9107.5358.6072.8037 1.4076.8037 2.4012 0 1.0218-.2778 1.8452-.8334 2.4704-.5556.6251-1.2801.9377-2.1736.9377zm.058-5.4133c-.4724 0-.8476.1883-1.1256.5651-.278.3767-.417.8757-.417 1.4969 0 .63.139 1.1283.417 1.4948.278.3666.642.5498 1.0919.5498.4643 0 .8327-.1781 1.1053-.5345.2727-.3563.409-.8509.409-1.4838 0-.6592-.1321-1.172-.3961-1.5385-.2641-.3666-.6256-.5498-1.0845-.5498z"/><path d="m34.5686 38.4959h-1.3847l-2.4766-4.1053c-.1449-.2401-.2456-.4209-.3023-.5425h-.0162c.0225.2305.0337.5829.0337 1.0573v3.5905h-1.2956v-6.5334h1.4765l2.3848 3.9769c.1089.1799.2096.3578.3023.5337h.0162c-.0225-.1516-.0337-.4506-.0337-.8968v-3.6138h1.2956z"/></g></g></svg>