<svg enable-background="new 0 0 220.00 220.00" height="220" viewBox="0 0 220 220" width="220" xmlns="http://www.w3.org/2000/svg" xmlns:xlink="http://www.w3.org/1999/xlink"><linearGradient id="a" gradientUnits="objectBoundingBox" x1="-.0487922" x2="1.04879" y1=".500001" y2=".499999"><stop offset=".00925926" stop-color="#c0c0c0"/><stop offset=".197949" stop-color="#8b8b8b" stop-opacity=".501961"/><stop offset=".421296" stop-color="#575757" stop-opacity="0"/><stop offset=".611111" stop-color="#626262" stop-opacity="0"/><stop offset="1" stop-color="#c0c0c0" stop-opacity=".4"/></linearGradient><filter id="b" filterUnits="userSpaceOnUse"><feGaussianBlur stdDeviation="1.88976"/></filter><linearGradient id="c"><stop offset=".00462963" stop-color="#b24e04"/><stop offset=".660537" stop-color="#d06515"/><stop offset=".99537" stop-color="#ee7c27"/></linearGradient><linearGradient id="d" gradientTransform="matrix(-.999375874701 -.035325076997 .035325076997 -.999375874701 1.970747599367 1.345615271139)" gradientUnits="objectBoundingBox" x1=".997261" x2="2.03921" xlink:href="#c" y1=".655398" y2=".655398"/><linearGradient id="e" gradientUnits="objectBoundingBox" x1="-.0487919" x2="1.04879" y1=".5" y2=".5"><stop offset="0" stop-color="#c0c0c0" stop-opacity="0"/><stop offset=".19505" stop-color="#989898" stop-opacity="0"/><stop offset=".425926" stop-color="#707070" stop-opacity="0"/><stop offset=".787037" stop-color="#6c6c6c" stop-opacity="0"/><stop offset=".986111" stop-color="#b9b9b9" stop-opacity=".6"/></linearGradient><linearGradient id="f" gradientTransform="matrix(-.999375874701 -.035325076997 .035325076997 -.999375874701 1.97074510544 1.345643227076)" gradientUnits="objectBoundingBox" x1=".99726" x2="2.03922" xlink:href="#c" y1=".655412" y2=".655412"/><g stroke-linejoin="bevel"><path d="m25.8597 46.8516 162.0003-.3023v13.2092l-161.6989.2159z" fill="#ffde19" stroke="#000" stroke-width="5"/><path d="m185.901 46.9425 30-18.9652v13.2499l-29.928 18.8383z" fill="#ffde19" stroke="#000" stroke-width="5"/><path d="m65.1513 27.9744 151.7497-1-29.596 20.1226-158.6537-.6224z" fill="#ffde19" stroke="#000" stroke-width="5"/><path d="m183.901 60.9746 29.792-16.863v47.6668l-29.792 19.6966z" fill="#d66919" stroke="#000" stroke-linecap="square" stroke-width="5"/><path d="m36.2764 60.4751h146.875v51.25h-146.875z" fill="#d66919" stroke="#000" stroke-linecap="square" stroke-width="5"/><path d="m88.1054 138.134 90.3336-50.4997v47.6667l-90.3336 52.833z" fill="#d66919" stroke="#000" stroke-linecap="square" stroke-width="5"/><path d="m8.10538 135.301h79.33332l.0416 52.958-62.2499.25-10.75-3-6.25002-9z" fill="#d66919" stroke="#000" stroke-linecap="square" stroke-width="5"/><path d="m76.4786 111.377c33.0004-15.7354 65.8584-15.6853 73.3904.112 7.533 15.797-13.113 41.358-46.113 57.094-33.0007 15.735-65.8588 15.685-73.3912-.112-7.5323-15.797 13.1139-41.36 46.1138-57.094z" fill="url(#a)" filter="url(#b)" stroke-linecap="square" stroke-width=".2"/></g><path d="m2.02206 122.384 89.58334-.292v12.75l-89.41668.209z" fill="#ffde19" stroke="#000" stroke-width="5"/><path d="m1.35538 122.551 98.21492-52.7286 80.7847-.4796-92.2212 53.2502z" fill="#ffde19" stroke="#000" stroke-width="5"/><path d="m54.0263 40.8846 125.4167-.1183 13.917-9.9165-123.2503 1.2498z" fill="url(#d)" stroke-linecap="square" stroke-linejoin="bevel" stroke-width=".2"/><path d="m92.6887 121.217 90.3753-53.3746v15.5l-90.3753 51.5416z" fill="#ffde19" stroke="#000" stroke-linecap="square" stroke-linejoin="bevel" stroke-width="5"/><path d="m98.6332 101.364c32.9998-15.7346 65.8588-15.6845 73.3908.112 7.532 15.797-13.113 41.359-46.114 57.095-33 15.735-65.8582 15.685-73.3906-.112-7.5323-15.797 13.1139-41.36 46.1138-57.095z" fill="url(#e)" filter="url(#b)" stroke-linecap="square" stroke-linejoin="bevel" stroke-width=".2"/><path d="m27.647 134.842 46.5.25-16.5 18h-43.75z" fill="#ffde19" stroke="#000" stroke-linejoin="bevel" stroke-width="5"/><path d="m49.818 110.058 37.0833-.083 56.3337-31.3337-38.667.3333z" fill="url(#f)" stroke-linecap="square" stroke-linejoin="bevel" stroke-width=".2"/></svg>