<svg enable-background="new 0 0 220.00 232.00" height="232" viewBox="0 0 220 232" width="220" xmlns="http://www.w3.org/2000/svg"><g fill="#7a1111" stroke-linejoin="round"><path d="m25.0679 74.8195c-1.2083-3.5416-1.6249-6.8471-1.4861-11.0139.139-4.1666.8334-9.1943 3.9305-12.9582 3.0973-3.764 8.5973-6.264 13.2813-6.6077 4.6841-.3438 8.5521 1.4687 11.2153 4.8542 2.6632 3.3854 4.1215 8.3438 5.2048 12.5729 1.0834 4.2291 1.7917 7.7291 2.7084 11.1041.9166 3.375 2.0416 6.625 3.3958 9.9584s2.9375 6.75 4.4271 9.7535 2.8855 5.5937 3.5834 7.2776c.698 1.6846.698 2.4616-2.0799 4.7956-2.7777 2.333-8.3332 6.222-11.486 8.319s-3.9029 2.403-5.2779 1.833c-1.375-.569-3.375-2.013-6.1111-5.388-2.736-3.375-6.2083-8.681-9.0138-12.9033-2.8056-4.2222-4.9445-7.3611-7.014-10.8193-2.0695-3.4583-4.0695-7.2361-5.2778-10.7779z"/><path d="m60.5679 119.459c2.8055-2.236 8.0277-6.431 10.9305-8.459 2.9028-2.027 3.4861-1.889 4.2361-1.222s1.6667 1.861 3.0973 3.764c1.4305 1.903 3.375 4.514 4.3333 7.306.9583 2.791.9305 5.763-.0764 8.215-1.0069 2.451-2.993 4.382-5.7569 5.368s-6.3056 1.028-8.6181.423c-2.3125-.604-3.3958-1.854-4.8958-3.687s-3.4167-4.25-4.625-5.833c-1.2084-1.584-1.7084-2.334-1.7639-2.848-.0556-.514.3333-.791 3.1389-3.027z"/><path d="m170.233 104.712c-1.431-3.458-3.3-6.2157-6.156-9.2533-2.855-3.0376-6.696-6.3552-11.507-7.1372-4.812-.7819-10.593.9719-14.338 3.8064-3.745 2.8344-5.453 6.7495-5.218 11.0501.235 4.301 2.413 8.988 4.392 12.88 1.979 3.891 3.758 6.988 5.298 10.128 1.539 3.14 2.84 6.323 4.024 9.721s2.251 7.009 3.115 10.248 1.526 6.106 2.114 7.832c.587 1.726 1.101 2.31 4.728 2.228 3.627-.081 10.367-.829 14.119-1.335 3.753-.507 4.518-.772 5.175-2.108.656-1.335 1.205-3.741 1.031-8.082-.173-4.341-1.068-10.619-1.749-15.642-.68-5.024-1.147-8.793-1.876-12.757s-1.721-8.121-3.152-11.579z"/><path d="m173.044 161.677c-3.583.173-10.275.47-13.794.864s-3.865.883-3.988 1.879-.023 2.498.159 4.872c.181 2.373.445 5.618 1.569 8.348 1.123 2.729 3.106 4.943 5.481 6.119s5.141 1.315 7.868.231 5.414-3.392 6.752-5.372c1.338-1.981 1.327-3.635 1.243-6.002s-.24-5.448-.378-7.435-.258-2.88-.555-3.303c-.298-.422-.773-.374-4.357-.201z"/></g></svg>