<?xml version="1.0" encoding="utf-8"?>
<!DOCTYPE svg PUBLIC "-//W3C//DTD SVG 1.1//EN" "http://www.w3.org/Graphics/SVG/1.1/DTD/svg11.dtd">
<svg xmlns="http://www.w3.org/2000/svg" xmlns:xlink="http://www.w3.org/1999/xlink" version="1.1" baseProfile="full" width="257" height="257" viewBox="0 0 257.00 257.00" enable-background="new 0 0 257.00 257.00" xml:space="preserve">
	<path fill="#FFDE19" fill-opacity="1" stroke-width="5" stroke-linejoin="bevel" stroke="#000000" stroke-opacity="1" d="M 44.3596,65.3516L 206.36,65.0493L 206.36,78.2585L 44.661,78.4744L 44.3596,65.3516 Z "/>
	<path fill="#FFDE19" fill-opacity="1" stroke-width="5" stroke-linejoin="bevel" stroke="#000000" stroke-opacity="1" d="M 204.401,65.4425L 234.401,46.4773L 234.401,59.7272L 204.473,78.5655L 204.401,65.4425 Z "/>
	<path fill="#FFDE19" fill-opacity="1" stroke-width="5" stroke-linejoin="bevel" stroke="#000000" stroke-opacity="1" d="M 83.6513,46.4744L 235.401,45.4744L 205.805,65.597L 47.1513,64.9746L 83.6513,46.4744 Z "/>
	<path fill="#D66919" fill-opacity="1" stroke-width="5" stroke-linecap="square" stroke-linejoin="bevel" stroke="#000000" stroke-opacity="1" d="M 202.401,79.4746L 232.193,62.6116L 232.193,110.278L 202.401,129.975L 202.401,79.4746 Z "/>
	<rect x="54.7763" y="78.9751" fill="#D66919" fill-opacity="1" stroke-width="5" stroke-linecap="square" stroke-linejoin="bevel" stroke="#000000" stroke-opacity="1" width="146.875" height="51.25"/>
	<path fill="#D66919" fill-opacity="1" stroke-width="5" stroke-linecap="square" stroke-linejoin="bevel" stroke="#000000" stroke-opacity="1" d="M 106.605,156.634L 196.939,106.134L 196.939,153.801L 106.605,206.634L 106.605,156.634 Z "/>
	<path fill="#D66919" fill-opacity="1" stroke-width="5" stroke-linecap="square" stroke-linejoin="bevel" stroke="#000000" stroke-opacity="1" d="M 26.6053,153.801L 105.939,153.801L 105.98,206.759L 43.7303,207.009L 32.9803,204.009L 26.7303,195.009L 26.6053,153.801 Z "/>
	<linearGradient id="SVGID_Fill1_" gradientUnits="objectBoundingBox" x1="-0.0487922" y1="0.500001" x2="1.04879" y2="0.499999">
		<stop offset="0.00925926" stop-color="#C0C0C0" stop-opacity="1"/>
		<stop offset="0.197949" stop-color="#8B8B8B" stop-opacity="0.501961"/>
		<stop offset="0.421296" stop-color="#575757" stop-opacity="0"/>
		<stop offset="0.611111" stop-color="#626262" stop-opacity="0"/>
		<stop offset="1" stop-color="#C0C0C0" stop-opacity="0.4"/>
	</linearGradient>
	<filter id="Filter_GaussianBlur1_" filterUnits="userSpaceOnUse">
		<feGaussianBlur stdDeviation="1.88976"/>
	</filter>
	<path fill="url(#SVGID_Fill1_)" stroke-width="0.2" stroke-linecap="square" stroke-linejoin="bevel" filter="url(#Filter_GaussianBlur1_)" d="M 94.9786,129.877C 127.979,114.142 160.837,114.192 168.369,129.989C 175.902,145.786 155.256,171.347 122.256,187.083C 89.2553,202.818 56.3971,202.768 48.8648,186.971C 41.3325,171.174 61.9787,145.611 94.9786,129.877 Z "/>
	<path fill="#FFDE19" fill-opacity="1" stroke-width="5" stroke-linejoin="miter" stroke="#000000" stroke-opacity="1" d="M 20.522,140.884L 110.105,140.592L 110.105,153.342L 20.6887,153.551L 20.522,140.884 Z "/>
	<path fill="#FFDE19" fill-opacity="1" stroke-width="5" stroke-linejoin="miter" stroke="#000000" stroke-opacity="1" d="M 19.8553,141.051L 118.07,88.3224L 198.855,87.8428L 106.634,141.093L 19.8553,141.051 Z "/>
	<linearGradient id="SVGID_Fill2_" gradientUnits="objectBoundingBox" x1="0.997261" y1="0.655398" x2="2.03921" y2="0.655398" gradientTransform="rotate(182.024399 0.997261 0.655398)">
		<stop offset="0.00462963" stop-color="#B24E04" stop-opacity="1"/>
		<stop offset="0.660537" stop-color="#D06515" stop-opacity="1"/>
		<stop offset="0.99537" stop-color="#EE7C27" stop-opacity="1"/>
	</linearGradient>
	<path fill="url(#SVGID_Fill2_)" stroke-width="0.2" stroke-linecap="square" stroke-linejoin="bevel" d="M 72.5263,59.3846L 197.943,59.2663L 211.86,49.3498L 88.6097,50.5996L 72.5263,59.3846 Z "/>
	<path fill="#FFDE19" fill-opacity="1" stroke-width="5" stroke-linecap="square" stroke-linejoin="bevel" stroke="#000000" stroke-opacity="1" d="M 111.189,139.717L 201.564,86.3424L 201.564,101.842L 111.189,153.384L 111.189,139.717 Z "/>
	<linearGradient id="SVGID_Fill3_" gradientUnits="objectBoundingBox" x1="-0.0487919" y1="0.5" x2="1.04879" y2="0.5">
		<stop offset="0" stop-color="#C0C0C0" stop-opacity="0"/>
		<stop offset="0.19505" stop-color="#989898" stop-opacity="0"/>
		<stop offset="0.425926" stop-color="#707070" stop-opacity="0"/>
		<stop offset="0.787037" stop-color="#6C6C6C" stop-opacity="0"/>
		<stop offset="0.986111" stop-color="#B9B9B9" stop-opacity="0.6"/>
	</linearGradient>
	<filter id="Filter_GaussianBlur2_" filterUnits="userSpaceOnUse">
		<feGaussianBlur stdDeviation="1.88976"/>
	</filter>
	<path fill="url(#SVGID_Fill3_)" stroke-width="0.2" stroke-linecap="square" stroke-linejoin="bevel" filter="url(#Filter_GaussianBlur2_)" d="M 117.133,119.864C 150.133,104.129 182.992,104.179 190.524,119.976C 198.056,135.773 177.411,161.335 144.41,177.071C 111.41,192.806 78.5517,192.756 71.0194,176.959C 63.4871,161.162 84.1333,135.599 117.133,119.864 Z "/>
	<path fill="#FFDE19" fill-opacity="1" stroke-width="5" stroke-linejoin="bevel" stroke="#000000" stroke-opacity="1" d="M 46.147,153.342L 92.647,153.592L 76.147,171.592L 32.397,171.592L 46.147,153.342 Z "/>
	<linearGradient id="SVGID_Fill4_" gradientUnits="objectBoundingBox" x1="0.99726" y1="0.655412" x2="2.03922" y2="0.655412" gradientTransform="rotate(182.024399 0.997260 0.655412)">
		<stop offset="0.00462963" stop-color="#B24E04" stop-opacity="1"/>
		<stop offset="0.660537" stop-color="#D06515" stop-opacity="1"/>
		<stop offset="0.99537" stop-color="#EE7C27" stop-opacity="1"/>
	</linearGradient>
	<path fill="url(#SVGID_Fill4_)" stroke-width="0.2" stroke-linecap="square" stroke-linejoin="bevel" d="M 68.318,128.558L 105.401,128.475L 161.735,97.1413L 123.068,97.4746L 68.318,128.558 Z "/>
</svg>
