<svg enable-background="new 0 0 220.00 220.00" height="220" viewBox="0 0 220 220" width="220" xmlns="http://www.w3.org/2000/svg" xmlns:xlink="http://www.w3.org/1999/xlink"><linearGradient id="a" gradientTransform="matrix(-.085461388019 -.996341483206 .996341483206 -.085461388019 -.43424058401 1.538323978061)" gradientUnits="objectBoundingBox" x1=".488891" x2="1.48431" y1=".968456" y2=".968456"><stop offset="0" stop-color="#07620c"/><stop offset="1" stop-color="#389d3e"/></linearGradient><path d="m104.236 62.0013-.251-10.75 3.875-9.3748 10.376-8.3752 14-3.9998 10 1.75 8.5 4 7.5 4.9998 7.5 7.25 2.75 9.5-2.5 8.5002-6.001 4.7498-8.499 1.7502-3.751 3.25-.749 9 8.25 8 41.75 18.2495-9.459 19.292-7.583-3.083-6.333-3.5-6.167-4.667-3.667-4.666-7.327-3.061-6.34-.773-6.166 3-5.834 6.333-5.249 8.084-2.584 7.083.25 7.584 2.084 6.583 3.333 5.5 6.5 5.333 6.5.333 7.333-.5 13.583-.25-1.625 11.006-18.499 38.37-48.203-23.269 3-18.25 10.453-5.231 2.999-7.751-.749-10.75-3.751-8-8.499-6.499-10.0005-3.501-10.75.5-7 2-8.75 5.25-4.5 4.5-1 6 1.25 7.25 3.75 7.5-2.5 5.5-12.25 1.75-29.75-14 39.25-95.9994 39.2505 17.4999 3.749-1z" fill="url(#a)" stroke="#00c800" stroke-linejoin="round" stroke-width="4"/></svg>