<svg enable-background="new 0 0 220.00 220.00" height="220" viewBox="0 0 220 220" width="220" xmlns="http://www.w3.org/2000/svg" xmlns:xlink="http://www.w3.org/1999/xlink"><linearGradient id="a" gradientUnits="objectBoundingBox" x1="-.0487922" x2="1.04879" y1=".500001" y2=".499999"><stop offset=".00925926" stop-color="#c0c0c0"/><stop offset=".197949" stop-color="#8b8b8b" stop-opacity=".501961"/><stop offset=".421296" stop-color="#575757" stop-opacity="0"/><stop offset=".611111" stop-color="#626262" stop-opacity="0"/><stop offset="1" stop-color="#c0c0c0" stop-opacity=".4"/></linearGradient><filter id="b" filterUnits="userSpaceOnUse"><feGaussianBlur stdDeviation="1.88976"/></filter><linearGradient id="c"><stop offset=".00462963" stop-color="#b24e04"/><stop offset=".660537" stop-color="#d06515"/><stop offset=".99537" stop-color="#ee7c27"/></linearGradient><linearGradient id="d" gradientTransform="matrix(-.999375874701 -.035325076997 .035325076997 -.999375874701 1.970747599367 1.345615271139)" gradientUnits="objectBoundingBox" x1=".997261" x2="2.03921" xlink:href="#c" y1=".655398" y2=".655398"/><linearGradient id="e" gradientUnits="objectBoundingBox" x1="-.0487919" x2="1.04879" y1=".5" y2=".5"><stop offset="0" stop-color="#c0c0c0" stop-opacity="0"/><stop offset=".19505" stop-color="#989898" stop-opacity="0"/><stop offset=".425926" stop-color="#707070" stop-opacity="0"/><stop offset=".787037" stop-color="#6c6c6c" stop-opacity="0"/><stop offset=".986111" stop-color="#b9b9b9" stop-opacity=".6"/></linearGradient><linearGradient id="f" gradientTransform="matrix(-.999375865453 -.035325338633 .035325338633 -.999375865453 1.970745030713 1.345637483806)" gradientUnits="objectBoundingBox" x1=".99726" x2="2.03922" xlink:href="#c" y1=".655409" y2=".655409"/><g stroke-linejoin="bevel"><path d="m28.8597 47.1849 162.0003-.3022v13.2091l-161.6989.2159z" fill="#ffde19" stroke="#000" stroke-width="5"/><path d="m188.901 47.2759 30-18.9652v13.2498l-29.928 18.8383z" fill="#ffde19" stroke="#000" stroke-width="5"/><path d="m68.1513 28.3077 151.7497-1-29.596 20.1226-158.6537-.6223z" fill="#ffde19" stroke="#000" stroke-width="5"/><path d="m186.901 61.308 29.792-16.8628v47.6666l-29.792 19.6962z" fill="#fff" stroke="#000" stroke-linecap="square" stroke-width="5"/><path d="m39.2763 60.8085h146.875v51.25h-146.875z" fill="#fff" stroke="#000" stroke-linecap="square" stroke-width="5"/><path d="m91.1054 138.467 90.3336-50.4993v47.6663l-90.3336 52.833z" fill="#fff" stroke="#000" stroke-linecap="square" stroke-width="5"/><path d="m11.1053 135.634h79.3334l.0416 52.959-62.25.25-10.75-3-6.25-9z" fill="#fff" stroke="#000" stroke-linecap="square" stroke-width="5"/><path d="m79.4786 111.71c33.0004-15.735 65.8584-15.685 73.3904.112 7.533 15.797-13.113 41.359-46.113 57.094-33.0007 15.735-65.8589 15.685-73.3912-.112s13.1139-41.359 46.1138-57.094z" fill="url(#a)" filter="url(#b)" stroke-linecap="square" stroke-width=".2"/></g><path d="m5.02203 122.718 89.58337-.292v12.75l-89.41671.208z" fill="#ffde19" stroke="#000" stroke-width="5"/><path d="m4.35535 122.884 98.21465-52.7282 80.785-.4797-92.2212 53.2499z" fill="#ffde19" stroke="#000" stroke-width="5"/><path d="m57.0263 41.2179 125.4167-.1183 13.917-9.9165-123.2503 1.2499z" fill="url(#d)" stroke-linecap="square" stroke-linejoin="bevel" stroke-width=".2"/><path d="m95.6887 121.551 90.3753-53.3752v15.5l-90.3753 51.5412z" fill="#ffde19" stroke="#000" stroke-linecap="square" stroke-linejoin="bevel" stroke-width="5"/><path d="m101.633 101.698c33-15.7352 65.859-15.6852 73.391.112 7.532 15.797-13.113 41.359-46.114 57.094-33.0001 15.735-65.8583 15.685-73.3906-.112s13.1139-41.359 46.1136-57.094z" fill="url(#e)" filter="url(#b)" stroke-linecap="square" stroke-linejoin="bevel" stroke-width=".2"/><path d="m30.647 135.176 46.5.25-16.5 18h-43.75z" fill="#ffde19" stroke="#000" stroke-linejoin="bevel" stroke-width="5"/><path d="m52.818 110.391 37.0833-.083 56.3337-31.3335-38.667.3335z" fill="url(#f)" stroke-linecap="square" stroke-linejoin="bevel" stroke-width=".2"/></svg>