<svg enable-background="new 0 0 220.00 232.00" height="232" viewBox="0 0 220 232" width="220" xmlns="http://www.w3.org/2000/svg"><g fill="#d56416" stroke-linejoin="round"><path d="m31.7345 79.6927c-1.2084-3.5416-1.6249-6.8472-1.4861-11.0139.1389-4.1667.8334-9.1944 3.9306-12.9583 3.0971-3.7639 8.5971-6.2639 13.2812-6.6076 4.6841-.3438 8.552 1.4687 11.2153 4.8542 2.6631 3.3854 4.1215 8.3438 5.2049 12.5729 1.0832 4.2291 1.7916 7.7291 2.7082 11.1041.9168 3.375 2.0418 6.625 3.3959 9.9584s2.9375 6.75 4.4271 9.7535c1.4895 3.003 2.8855 5.594 3.5834 7.278s.6979 2.462-2.08 4.795c-2.7777 2.333-8.3332 6.222-11.4859 8.319-3.1529 2.098-3.903 2.403-5.278 1.834-1.375-.57-3.375-2.014-6.1111-5.389-2.736-3.375-6.2082-8.681-9.0138-12.903-2.8055-4.2223-4.9444-7.3612-7.014-10.8195-2.0693-3.4582-4.0693-7.2361-5.2777-10.7778z"/><path d="m67.2344 124.332c2.8055-2.236 8.0277-6.431 10.9305-8.459 2.9027-2.027 3.4861-1.888 4.2361-1.222.75.667 1.6666 1.861 3.0973 3.764 1.4304 1.903 3.375 4.514 4.3332 7.306.9584 2.791.9306 5.763-.0764 8.215-1.0068 2.451-2.9929 4.382-5.7568 5.368s-6.3057 1.028-8.6182.424c-2.3125-.605-3.3957-1.855-4.8957-3.688s-3.4168-4.25-4.625-5.833c-1.2084-1.584-1.7084-2.334-1.7639-2.848-.0556-.513.3332-.791 3.1389-3.027z"/><path d="m176.9 109.585c-1.431-3.458-3.301-6.216-6.156-9.253-2.855-3.0377-6.696-6.3554-11.508-7.1374-4.811-.7818-10.592.972-14.337 3.8064-3.745 2.8345-5.453 6.75-5.218 11.051s2.413 8.987 4.392 12.879c1.978 3.891 3.757 6.988 5.297 10.128s2.841 6.324 4.025 9.721c1.183 3.398 2.25 7.009 3.115 10.248.864 3.24 1.526 6.107 2.113 7.832.588 1.726 1.102 2.31 4.728 2.228 3.627-.081 10.367-.829 14.12-1.335 3.752-.507 4.518-.772 5.174-2.108.657-1.335 1.205-3.741 1.032-8.082s-1.069-10.618-1.749-15.642c-.681-5.023-1.147-8.793-1.876-12.757-.729-3.963-1.721-8.121-3.152-11.579z"/><path d="m179.711 166.55c-3.584.173-10.275.47-13.794.864s-3.866.883-3.989 1.879-.023 2.498.159 4.872.446 5.618 1.569 8.348c1.124 2.729 3.107 4.943 5.481 6.119 2.375 1.177 5.142 1.315 7.868.231 2.727-1.084 5.415-3.391 6.753-5.372s1.326-3.635 1.242-6.002-.24-5.448-.378-7.435-.257-2.88-.555-3.303c-.297-.422-.773-.374-4.356-.201z"/></g></svg>