<?xml version="1.0" encoding="utf-8"?>
<!DOCTYPE svg PUBLIC "-//W3C//DTD SVG 1.1//EN" "http://www.w3.org/Graphics/SVG/1.1/DTD/svg11.dtd">
<svg xmlns="http://www.w3.org/2000/svg" xmlns:xlink="http://www.w3.org/1999/xlink" version="1.1" baseProfile="full" width="257" height="257" viewBox="0 0 257.00 257.00" enable-background="new 0 0 257.00 257.00" xml:space="preserve">
	<ellipse fill="#D66919" fill-opacity="1" stroke-width="5" stroke-linejoin="round" stroke="#000000" stroke-opacity="1" cx="122.889" cy="196.373" rx="19" ry="19.2499"/>
	<path fill="#D66919" fill-opacity="1" stroke-width="5" stroke-linejoin="round" stroke="#000000" stroke-opacity="1" d="M 96.3886,114.623L 79.3886,107.123L 70.3885,96.1236L 66.3885,86.1236L 65.8885,73.1236L 69.8885,62.6236L 75.8885,53.1236L 82.3885,46.6236L 93.3885,39.1236L 101.889,35.6236L 112.889,33.6236L 124.389,33.1236L 136.389,32.1236L 147.889,33.6236L 155.389,37.1236L 165.389,42.1236L 174.389,48.6236L 180.889,55.6236L 187.889,67.6236L 188.889,78.6236L 187.389,92.6236L 182.889,100.124L 175.389,108.124L 166.389,118.124L 154.389,126.624L 142.389,136.624L 135.889,148.124L 132.389,156.124L 132.66,159.657L 132.076,162.811L 129.201,164.311L 118.389,164.124L 114.389,161.124L 114.389,152.124L 120.889,141.624L 129.389,129.124L 140.889,116.124L 145.389,109.124L 149.389,97.6236L 149.389,87.1236L 146.889,75.1236L 140.889,69.1236L 130.889,64.6236L 121.889,63.6236L 114.389,64.1236L 105.389,67.1236L 99.3885,72.6236L 99.3885,79.1236L 101.389,85.6236L 108.889,90.6236L 113.889,93.6236L 115.389,98.6236L 114.389,104.124L 111.389,108.124L 107.889,111.624L 101.389,113.124L 96.3886,114.623 Z "/>
	<linearGradient id="SVGID_Fill1_" gradientUnits="objectBoundingBox" x1="0.992414" y1="0.442438" x2="1.98393" y2="0.442438" gradientTransform="rotate(165.104248 0.992414 0.442438)">
		<stop offset="0.00925926" stop-color="#FFFFFF" stop-opacity="1"/>
		<stop offset="1" stop-color="#FCFCFF" stop-opacity="0"/>
	</linearGradient>
	<path fill="url(#SVGID_Fill1_)" stroke-width="0.2" stroke-linejoin="round" d="M 141.722,38.6233L 153.055,46.2901L 162.389,53.6236L 170.722,63.9568L 174.389,73.2902L 175.722,85.6236L 173.722,97.6236L 170.389,103.29L 175.019,104.836L 184.389,92.2902L 186.055,82.6236L 185.722,69.6236L 178.519,57.8365L 174.055,52.6236L 172.389,50.2902L 167.722,47.2902L 161.055,42.2902L 154.389,39.2902L 148.389,37.9568L 141.722,38.6233 Z "/>
	<linearGradient id="SVGID_Fill2_" gradientUnits="objectBoundingBox" x1="0.992401" y1="0.440365" x2="1.9844" y2="0.440365" gradientTransform="rotate(165.603821 0.992401 0.440365)">
		<stop offset="0.00925926" stop-color="#FFFFFF" stop-opacity="1"/>
		<stop offset="1" stop-color="#FFFFFF" stop-opacity="0"/>
	</linearGradient>
	<path fill="url(#SVGID_Fill2_)" stroke-width="0.2" stroke-linejoin="round" d="M 98.5552,84.7068L 95.5969,82.6652L 93.2219,88.3733L 97.2219,92.7068L 101.222,97.3736L 102.222,102.707L 101.889,108.707L 101.347,110.748L 105.764,109.998L 109.43,107.915L 112.264,105.248L 112.18,101.748L 112.514,98.3318L 111.514,95.4986L 106.847,92.4986L 103.43,90.3318L 100.43,88.1652"/>
	<linearGradient id="SVGID_Fill3_" gradientUnits="objectBoundingBox" x1="1.01199" y1="0.456821" x2="2.01995" y2="0.456821" gradientTransform="rotate(160.124634 1.011991 0.456821)">
		<stop offset="0.00925926" stop-color="#FFFFFF" stop-opacity="1"/>
		<stop offset="1" stop-color="#FFFFFF" stop-opacity="0"/>
	</linearGradient>
	<path fill="url(#SVGID_Fill3_)" stroke-width="0.2" stroke-linejoin="round" d="M 124.389,179.957L 128.055,184.29L 130.389,188.957L 130.055,195.624L 128.722,202.29L 126.389,207.957L 127.055,210.957L 130.415,210.857L 134.248,208.607L 137.332,204.441L 138.998,199.524C 138.998,199.524 139.807,195.812 139.389,194.29C 139.024,192.965 138.389,188.957 138.389,188.957L 137.055,184.957L 133.722,181.957L 130.722,179.957L 124.389,179.957 Z "/>
</svg>
