<svg enable-background="new 0 0 220.00 220.00" height="220" viewBox="0 0 220 220" width="220" xmlns="http://www.w3.org/2000/svg" xmlns:xlink="http://www.w3.org/1999/xlink"><linearGradient id="a" gradientTransform="matrix(-.966395140898 .257061143792 -.257061143792 -.966395140898 2.065211685697 .614896855393)" gradientUnits="objectBoundingBox" x1=".992414" x2="1.98393" y1=".442438" y2=".442438"><stop offset=".00925926" stop-color="#fff"/><stop offset="1" stop-color="#fcfcff" stop-opacity="0"/></linearGradient><linearGradient id="b"><stop offset=".00925926" stop-color="#fff"/><stop offset="1" stop-color="#fff" stop-opacity="0"/></linearGradient><linearGradient id="c" gradientTransform="matrix(-.968599743862 .24862529274 -.24862529274 -.968599743862 2.063126231446 .620166437066)" gradientUnits="objectBoundingBox" x1=".992401" x2="1.9844" xlink:href="#b" y1=".440365" y2=".440365"/><linearGradient id="d" gradientTransform="matrix(-.940434384383 .339975247143 -.339975247143 -.940434384383 2.119009965461 .542379285576)" gradientUnits="objectBoundingBox" x1="1.01199" x2="2.01995" xlink:href="#b" y1=".456821" y2=".456821"/><g stroke-linejoin="round"><ellipse cx="104.389" cy="177.873" fill="#d66919" rx="19" ry="19.2499" stroke="#000" stroke-width="5"/><path d="m77.8886 96.1233-17-7.5-9.0001-10.9997-4-10-.5-13 4-10.5 6-9.5 6.5-6.5 11-7.5 8.5-3.5 11-2 11.5005-.5 12-1 11.5 1.5 7.5 3.5 10 5 9 6.5 6.5 7 7 12 1 11-1.5 14-4.5 7.5-7.5 8-9 10-12 8.5004-12 10-6.5 11.5-3.5 8 .271 3.533-.584 3.154-2.875 1.5-10.8125-.187-4-3v-9l6.5005-10.5 8.5-12.5 11.5-13.0004 4.5-7 4-11.5v-10.5l-2.5-12-6-6-10-4.5-9-1-7.5005.5-9 3-6 5.5v6.5l2 6.5 7.5 5 5 3 1.5 5-1 5.5-3 4-3.5 3.5-6.5 1.5z" fill="#d66919" stroke="#000" stroke-width="5"/><g stroke-width=".2"><path d="m123.222 20.1233 11.333 7.6668 9.334 7.3335 8.333 10.3332 3.667 9.3334 1.333 12.3334-2 12-3.333 5.6666 4.63 1.5463 9.37-12.5463 1.666-9.6666-.333-13-7.203-11.7871-4.464-5.2129-1.666-2.3334-4.667-3-6.667-5-6.666-3-6-1.3334z" fill="url(#a)"/><path d="m80.0552 66.2068-2.9583-2.0416-2.375 5.7081 4 4.3335 4 4.6668 1 5.3332-.3334 6-.5416 2.0415 4.4167-.75 3.6667-2.0832 2.8333-2.6668-.0833-3.5.3332-3.4165-1-2.8332-4.6666-3-3.4167-2.1668-3-2.1666" fill="url(#c)"/><path d="m105.889 161.457 3.666 4.333 2.334 4.667-.334 6.667-1.333 6.666-2.333 5.667.666 3 3.36-.1 3.833-2.25 3.084-4.166 1.666-4.917s.809-3.712.391-5.234c-.365-1.325-1-5.333-1-5.333l-1.334-4-3.333-3-3-2z" fill="url(#d)"/></g></g></svg>