<svg enable-background="new 0 0 88.00 76.00" height="76" viewBox="0 0 88 76" width="88" xmlns="http://www.w3.org/2000/svg" xmlns:xlink="http://www.w3.org/1999/xlink"><linearGradient id="a" gradientTransform="matrix(0 1 -1 0 .228961 -.778777)" gradientUnits="objectBoundingBox" x1=".503869" x2="2.05368" y1="-.274908" y2="-.274908"><stop offset=".316279" stop-color="#f0f1ec" stop-opacity=".592157"/><stop offset=".800003" stop-color="#fff" stop-opacity="0"/></linearGradient><linearGradient id="b" gradientTransform="matrix(-.986419426397 .164245898658 -.164245898658 -.986419426397 1.939424360163 .714189860202)" gradientUnits="objectBoundingBox" x1=".940186" x2="2.52462" y1=".437275" y2=".437275"><stop offset=".274419" stop-color="#f0f1ec" stop-opacity=".501961"/><stop offset=".562791" stop-color="#fff" stop-opacity="0"/></linearGradient><linearGradient id="c" gradientTransform="matrix(-.998861941191 .04769509871 -.04769509871 -.998861941191 2.011747668143 .721913433323)" gradientUnits="objectBoundingBox" x1=".997261" x2="2.01805" y1=".384958" y2=".384958"><stop offset="0"/><stop offset=".418605"/><stop offset=".655814" stop-color="#1e1e1e" stop-opacity=".47451"/><stop offset=".902326" stop-color="#3a3a3a" stop-opacity="0"/></linearGradient><linearGradient id="d" gradientTransform="matrix(.904213029066 .427081722938 -.427081722938 .904213029066 -.305075633672 -.170552879231)" gradientUnits="objectBoundingBox" x1=".227681" x2="3.01549" y1="-.765391" y2="-.765391"><stop offset="0"/><stop offset=".502326"/><stop offset=".693023" stop-color="#1e1e1e" stop-opacity=".47451"/><stop offset=".800003" stop-color="#3a3a3a" stop-opacity="0"/></linearGradient><linearGradient id="e"><stop offset="0" stop-color="#1a1c1c"/><stop offset=".15814" stop-color="#383b3b"/><stop offset=".739535" stop-color="#6b7070"/><stop offset=".990698" stop-color="#4b4d4d"/></linearGradient><linearGradient id="f" gradientTransform="matrix(0 -1 1 0 -.237502 1.237502)" gradientUnits="objectBoundingBox" x1=".5" x2=".975005" xlink:href="#e" y1=".737502" y2=".737502"/><linearGradient id="g" gradientTransform="matrix(0 -1 1 0 -.242927 1.242927)" gradientUnits="objectBoundingBox" x1=".5" x2=".985855" xlink:href="#e" y1=".742927" y2=".742927"/><linearGradient id="h" gradientTransform="matrix(0 -1 1 0 -.34928 1.331888)" gradientUnits="objectBoundingBox" x1=".491304" x2="1.17247" xlink:href="#e" y1=".840584" y2=".840584"/><linearGradient id="i" gradientTransform="matrix(0 -1 1 0 -.357555 1.339567)" gradientUnits="objectBoundingBox" x1=".491006" x2="1.18813" xlink:href="#e" y1=".848561" y2=".848561"/><linearGradient id="j"><stop offset=".111628" stop-color="#eebb18"/><stop offset="1" stop-color="#9a802b"/></linearGradient><linearGradient id="k" gradientUnits="objectBoundingBox" x1="-.0115233" x2="1.01152" xlink:href="#j" y1=".455718" y2=".455718"/><linearGradient id="l" gradientUnits="objectBoundingBox" x1="-.0851064" x2="1.08511" xlink:href="#j" y1=".451499" y2=".451499"/><linearGradient id="m" gradientTransform="matrix(0 1 -1 0 .286015 -.151959)" gradientUnits="objectBoundingBox" x1=".218987" x2=".833195" y1=".0670281" y2=".0670281"><stop offset=".334884"/><stop offset=".995349" stop-color="#3a3a3a"/></linearGradient><linearGradient id="n" gradientTransform="matrix(0 1 -1 0 .207871 -.156513)" gradientUnits="objectBoundingBox" x1=".182192" x2=".855058" y1=".0256787" y2=".0256787"><stop offset=".339535"/><stop offset=".995349" stop-color="#3a3a3a"/></linearGradient><linearGradient id="o" gradientTransform="matrix(-.271813630899 -.962349910405 .962349910405 -.271813630899 -.237677450989 1.45461535287)" gradientUnits="objectBoundingBox" x1=".431497" x2=".958808" y1=".81723" y2=".81723"><stop offset=".0697674"/><stop offset=".995349" stop-color="#3a3a3a"/></linearGradient><linearGradient id="p" gradientTransform="matrix(-.267334610341 -.963603759911 .963603759911 -.267334610341 -.27121970218 1.474955119327)" gradientUnits="objectBoundingBox" x1=".425123" x2=".993119" y1=".840587" y2=".840587"><stop offset=".120934"/><stop offset=".995349" stop-color="#3a3a3a"/></linearGradient><g stroke-linejoin="round"><path d="m13.4792 2.43747h61c6.0751 0 11 4.92487 11 11.00003v49.6667c0 6.0751-4.9249 11-11 11h-61c-6.07517 0-11.00004-4.9249-11.00004-11v-49.6667c0-6.07516 4.92487-11.00003 11.00004-11.00003z" fill="#b2ae5a" stroke="#000"/><path d="m73.499 4.92154h-58.1111c-3.034 0-6.8082.84714-9.5754 4.64534h.06589c.06588 35.59882 18.16601 35.71982 38.54311 35.71982 20.377 0 37.6866-.3444 38.016-35.80359v.02792c-1.4495-2.06667-3.3602-4.18919-8.9385-4.58949z" fill="url(#a)" stroke-width=".2"/><path d="m73.2684 4.87499-16.9875 1.86187c-3.0339 0-19.1508-1.78743-21.918 2.01077l-8.0819 11.91597c4.3585 7.0054 19.6778-2.0853 22.0497-3.8354 23.631-3.0163 33.5468 28.0675 33.8762-7.39164v.02792c-1.4495-2.06666-3.3602-4.18918-8.9385-4.58949z" fill="url(#b)" stroke-width=".2"/><path d="m13.7291 5.27099h60.7499c4.4183 0 8 3.58172 8 8.00001v49.9998c0 4.4183-3.5817 8-8 8h-60.7499c-4.41824 0-7.99996-3.5817-7.99996-8v-49.9998c0-4.41829 3.58172-8.00001 7.99996-8.00001z" fill="none" stroke="#ffd23f" stroke-width="6"/><path d="m32.9554 60.423-20.4762-3.7299c1.4768 8.6769 23.4426 12.7282 27.1241 13.1758l2.9861-7.8184z" fill="url(#c)" stroke-width=".2"/><path d="m39.6244 69.8709c5.9885.5733 34.695 2.9918 38.2296-1.4958l-13.3943-3.4904-21.1007-2.8342-3.7558 7.8184z" fill="url(#d)" stroke-width=".2"/><path d="m50.4811 62.7695-.7373 4.7938c12.4124-.9404 20.8999-10.5389 20.8999-23.3358 0-6.7523-4.1791-16.0246-8.7512-20.4435l-3.9196 2.2794c3.5135 3.6084 7.1489 11.4646 7.1489 16.9294 0 9.9711-5.7273 18.2645-14.6407 19.7767z" fill="url(#g)" stroke="url(#f)"/><path d="m26.776 40.4097c.0632-6.7108 1.4652-12.1691 4.9188-14.8924l-.2958-.5698-5.5219 1.6146c-5.1112 3.2482-4.4993 4.7419-4.5851 13.473-.1325 13.4797 12.9269 27.6039 26.4302 27.6039.6846 0 1.3587-.0255 2.0216-.0757l.7373-4.7938c-.9552.162-1.9471.2462-2.9724.2462-10.5924 0-20.8366-11.5669-20.7327-22.606z" fill="url(#i)" stroke="url(#h)"/><path d="m20.9715 41.0821c.0613-7.0308 1.1602-11.7143 4.5134-14.5674l-.0011-.0001-3.2063-4.2688c-4.9626 3.403-6.5474 9.2965-6.6307 18.4439-.1286 14.1224 12.5512 28.92 25.662 28.92 13.1107 0 23.7391-11.449 23.7391-25.5721 0-7.0743-2.7966-13.4777-7.2358-18.1073l-3.6427 3.199c3.4113 3.7804 5.5538 8.9692 5.5538 14.6946 0 11.566-8.3372 20.9421-18.6217 20.9421s-20.2309-12.1184-20.13-23.6839z" fill="#6f7070" stroke="#6f7070"/><path d="m22.317 22.1608 5.6301-1.6809 3.4122 4.3658-5.6301 1.6808z" fill="#4b4d4d" stroke="#4b4d4d"/><path d="m40.0639 7.82811 4.8932-.80729 9.01 17.88508-4.4865 3.1045z" fill="url(#l)" stroke="url(#k)" stroke-width="2"/><path d="m40.0269 7.78062-10.0577 18.23528 19.3882 2.0895z" fill="#e2bb3c" stroke="#e2bb3c" stroke-width="2"/><path d="m33.6592 46.9327 1.3881 5.7002 3.0691-2.0658 3.18-2.3744-3.18-5.1318-3.2786-.8991z" fill="url(#n)" stroke="url(#m)"/><path d="m41.7397 29.0345-4.9549-.7123-6.2671 4.2411 4.8131.7183 3.1788-1.9839z" fill="#3a3a3a" stroke="#3a3a3a"/><path d="m35.6266 33.1866 6.3601 9.4026 4.2893-8.5953-4.4373-4.9862-6.3107 4.2264" fill="url(#p)" stroke="url(#o)"/><path d="m47.4715 55.5534 6.0026-3.1817v-21.322l-6.0642-.8548-5.1891 3.2766 3.0691 7.7643-2.5927-3.8003-1.1639 8.0017z" fill="#3a3a3a" stroke="#3a3a3a"/><path d="m30.4622 32.6167.1479 18.9477 4.4372 1.0685v-.0713-9.9012l.3665-.3541 7.3987 11.7512 4.5851 1.4959v-21.2272l-5.1768-.7834v9.7587l-6.8037-9.9724z" fill="#69696a" stroke="#69696a"/></g></svg>