<svg enable-background="new 0 0 88.00 76.00" height="76" viewBox="0 0 88 76" width="88" xmlns="http://www.w3.org/2000/svg" xmlns:xlink="http://www.w3.org/1999/xlink"><linearGradient id="a" gradientTransform="matrix(0 1 -1 0 .228961 -.778777)" gradientUnits="objectBoundingBox" x1=".503869" x2="2.05368" y1="-.274908" y2="-.274908"><stop offset=".316279" stop-color="#f0f1ec" stop-opacity=".592157"/><stop offset=".800003" stop-color="#fff" stop-opacity="0"/></linearGradient><linearGradient id="b" gradientTransform="matrix(-.986419426397 .164245898658 -.164245898658 -.986419426397 1.939424360163 .714189860202)" gradientUnits="objectBoundingBox" x1=".940186" x2="2.52462" y1=".437275" y2=".437275"><stop offset=".274419" stop-color="#f0f1ec" stop-opacity=".501961"/><stop offset=".562791" stop-color="#fff" stop-opacity="0"/></linearGradient><linearGradient id="c" gradientTransform="matrix(-.998861928704 .047695360211 -.047695360211 -.998861928704 2.011747756357 .721913167731)" gradientUnits="objectBoundingBox" x1=".997261" x2="2.01805" y1=".384958" y2=".384958"><stop offset="0" stop-opacity=".862745"/><stop offset=".418605" stop-opacity=".862745"/><stop offset=".655814" stop-color="#1e1e1e" stop-opacity=".411765"/><stop offset=".902326" stop-color="#3a3a3a" stop-opacity="0"/></linearGradient><linearGradient id="d" gradientTransform="matrix(.904213029066 .427081722938 -.427081722938 .904213029066 -.305075633672 -.170552879231)" gradientUnits="objectBoundingBox" x1=".227681" x2="3.01549" y1="-.765391" y2="-.765391"><stop offset="0" stop-opacity=".862745"/><stop offset=".502326" stop-opacity=".862745"/><stop offset=".693023" stop-color="#1e1e1e" stop-opacity=".411765"/><stop offset=".800003" stop-color="#3a3a3a" stop-opacity="0"/></linearGradient><linearGradient id="e"><stop offset="0" stop-color="#1a1c1c"/><stop offset=".15814" stop-color="#383b3b"/><stop offset=".739535" stop-color="#6b7070"/><stop offset=".990698" stop-color="#4b4d4d"/></linearGradient><linearGradient id="f" gradientTransform="matrix(0 -1 1 0 -.236764 1.236764)" gradientUnits="objectBoundingBox" x1=".5" x2=".973527" xlink:href="#e" y1=".736764" y2=".736764"/><linearGradient id="g" gradientTransform="matrix(0 -1 1 0 -.242927 1.242927)" gradientUnits="objectBoundingBox" x1=".5" x2=".985854" xlink:href="#e" y1=".742927" y2=".742927"/><linearGradient id="h" gradientTransform="matrix(0 -1 1 0 -.348142 1.330854)" gradientUnits="objectBoundingBox" x1=".491356" x2="1.17035" xlink:href="#e" y1=".839498" y2=".839498"/><linearGradient id="i" gradientTransform="matrix(0 -1 1 0 -.357556 1.339568)" gradientUnits="objectBoundingBox" x1=".491006" x2="1.18813" xlink:href="#e" y1=".848562" y2=".848562"/><linearGradient id="j"><stop offset=".111628" stop-color="#eebb18"/><stop offset="1" stop-color="#9a802b"/></linearGradient><linearGradient id="k" gradientUnits="objectBoundingBox" x1="0" x2="1" xlink:href="#j" y1=".45625" y2=".45625"/><linearGradient id="l" gradientUnits="objectBoundingBox" x1="-.0851064" x2="1.08511" xlink:href="#j" y1=".451499" y2=".451499"/><linearGradient id="m" gradientTransform="matrix(0 1 -1 0 .297063 -.152587)" gradientUnits="objectBoundingBox" x1=".224825" x2=".831643" y1=".0722379" y2=".0722379"><stop offset=".334884"/><stop offset=".995349" stop-color="#3a3a3a"/></linearGradient><linearGradient id="n" gradientTransform="matrix(0 1 -1 0 .207871 -.156513)" gradientUnits="objectBoundingBox" x1=".182192" x2=".855058" y1=".0256788" y2=".0256788"><stop offset=".339535"/><stop offset=".995349" stop-color="#3a3a3a"/></linearGradient><linearGradient id="o" gradientTransform="matrix(-.273313349632 -.961925055767 .961925055767 -.273313349632 -.232447240912 1.452835643171)" gradientUnits="objectBoundingBox" x1=".432549" x2=".954299" y1=".814219" y2=".814219"><stop offset=".0697674"/><stop offset=".995349" stop-color="#3a3a3a"/></linearGradient><linearGradient id="p" gradientTransform="matrix(-.267334610341 -.963603759911 .963603759911 -.267334610341 -.27121970218 1.474955119327)" gradientUnits="objectBoundingBox" x1=".425123" x2=".993119" y1=".840587" y2=".840587"><stop offset=".120934"/><stop offset=".995349" stop-color="#3a3a3a"/></linearGradient><g stroke-linejoin="round"><path d="m13.4791 2.43748h61c6.0752 0 11 4.92487 11 11.00002v49.6667c0 6.0751-4.9248 11-11 11h-61c-6.0751 0-10.99997-4.9249-10.99997-11v-49.6667c0-6.07515 4.92487-11.00002 10.99997-11.00002z" fill="#b2ae5a" stroke="#000"/><path d="m73.499 4.92154h-58.1111c-3.034 0-6.80823.84715-9.57543 4.64535h.06589c.06588 35.59881 18.16604 35.71981 38.54304 35.71981 20.3771 0 37.6866-.3444 38.0161-35.80359v.02792c-1.4495-2.06666-3.3602-4.18918-8.9385-4.58949z" fill="url(#a)" stroke-width=".2"/><path d="m73.2684 4.87499-16.9875 1.86187c-3.034 0-19.1508-1.78743-21.918 2.01078l-8.082 11.91596c4.3586 7.0054 19.6779-2.0853 22.0498-3.8354 23.631-3.0163 33.5467 28.0676 33.8762-7.39164v.02793c-1.4495-2.06667-3.3602-4.18919-8.9385-4.5895z" fill="url(#b)" stroke-width=".2"/><path d="m13.7291 5.271h60.7499c4.4183 0 8 3.58171 8 8v49.9999c0 4.4182-3.5817 7.9999-8 7.9999h-60.7499c-4.41827 0-7.99999-3.5817-7.99999-7.9999v-49.9999c0-4.41829 3.58172-8 7.99999-8z" fill="none" stroke="#ffd23f" stroke-width="6"/><path d="m35.1696 57.2102-17.305-3.2727c1.248 7.6133 19.8119 11.168 22.9232 11.5607l2.5236-6.86z" fill="url(#c)" stroke-width=".2"/><path d="m40.8057 65.5c5.0611.503 29.3217 2.625 32.3088-1.3125l-11.3198-3.0625-17.8328-2.4868-3.1741 6.86z" fill="url(#d)" stroke-width=".2"/><path d="m49.9809 59.2691-.6231 4.2061c10.4901-.8251 17.663-9.2469 17.663-20.4752 0-5.9246-3.5318-14.0603-7.3958-17.9375l-3.3125 2c2.9693 3.1661 6.0416 10.0593 6.0416 14.8542 0 8.7487-4.8403 16.0256-12.3732 17.3524z" fill="url(#g)" stroke="url(#f)"/><path d="m29.9472 39.6502c.0534-5.8882 1.2382-10.6774 4.1569-13.0669l-.25-.5-4.6666 1.4167c-4.3196 2.85-3.8025 4.1607-3.875 11.8215-.112 11.8274 10.9248 24.2202 22.3368 24.2202.5786 0 1.1483-.0224 1.7085-.0665l.6231-4.2061c-.8073.1421-1.6455.216-2.512.216-8.9519 0-17.6095-10.149-17.5217-19.8349z" fill="url(#i)" stroke="url(#h)"/><path d="m25.0416 40.2402c.0519-6.169.9805-10.2784 3.8144-12.7818l-.0009-.0001-2.7097-3.7455c-4.194 2.9859-5.5334 8.1569-5.6038 16.183-.1087 12.3913 10.6073 25.375 21.6875 25.375 11.0803 0 20.0625-10.0456 20.0625-22.4375 0-6.2071-2.3634-11.8255-6.1151-15.8876l-3.0785 2.8068c2.883 3.3171 4.6936 7.8698 4.6936 12.8933 0 10.1483-7.046 18.375-15.7376 18.375-8.6917 0-17.0976-10.6329-17.0124-20.7806z" fill="#6f7070" stroke="#6f7070"/><path d="m26.1787 23.6382 4.7582-1.4748 2.8837 3.8306-4.7581 1.4748z" fill="#4b4d4d" stroke="#4b4d4d"/><path d="m41.1771 11.0625 4.1354-.7083 7.6146 15.6927-3.7917 2.7239z" fill="url(#l)" stroke="url(#k)" stroke-width="2"/><path d="m41.1458 11.0208-8.5 16 16.3854 1.8334z" fill="#e2bb3c" stroke="#e2bb3c" stroke-width="2"/><path d="m35.7643 45.3735 1.1732 5.0015 2.5937-1.8125 2.6875-2.0833-2.6875-4.5029-2.7708-.7888z" fill="url(#n)" stroke="url(#m)"/><path d="m42.5933 29.6694-4.1875-.625-5.2965 3.7212 4.0678.6302 2.6864-1.7407z" fill="#3a3a3a" stroke="#3a3a3a"/><path d="m37.4271 33.3125 5.375 8.25 3.625-7.5417-3.75-4.375-5.3334 3.7084" fill="url(#p)" stroke="url(#o)"/><path d="m47.4375 52.9375 5.0729-2.7917v-18.7083l-5.125-.75-4.3854 2.875 2.5937 6.8125-2.1912-3.3344-.9835 7.0208z" fill="#3a3a3a" stroke="#3a3a3a"/><path d="m33.0625 32.8125.125 16.625 3.75.9375v-.0625-8.6875l.3097-.3107 6.2528 10.3107 3.875 1.3125v-18.6251l-4.375-.6874v8.5625l-5.75-8.75z" fill="#69696a" stroke="#69696a"/></g></svg>