<?xml version="1.0" encoding="utf-8"?>
<!DOCTYPE svg PUBLIC "-//W3C//DTD SVG 1.1//EN" "http://www.w3.org/Graphics/SVG/1.1/DTD/svg11.dtd">
<svg x="0" y="0" width="32" height="28.4984" overflow="hidden" viewBox="0, 0, 381.6631, 339.8996" preserveAspectRatio="xMidYMid" font-size="0" id="svg" xml:space="default" xmlns="http://www.w3.org/2000/svg" xmlns:xlink="http://www.w3.org/1999/xlink" xmlns:xml="http://www.w3.org/XML/1998/namespace" version="1.1">
  <namedview id="namedview204" xml:space="default" />
  <metadata id="metadata205" xml:space="default"></metadata>
  <namedview id="namedview203" xml:space="default" />
  <defs id="def1" xml:space="default">
    <linearGradient x1="0%" y1="0%" x2="100%" y2="0%" gradientUnits="objectBoundingBox" id="linearGradient5162" xml:space="default">
      <stop offset="0%" stop-color="#A99FFF" stop-opacity="0" id="stop5164" xml:space="default" />
      <stop offset="33.91528%" stop-color="#FFFFFF" stop-opacity="0.6293706" id="stop5166" xml:space="default" />
      <stop offset="100%" stop-color="#FFFFFF" stop-opacity="0" id="stop5168" xml:space="default" />
    </linearGradient>
    <linearGradient x1="0%" y1="0%" x2="100%" y2="0%" gradientUnits="objectBoundingBox" id="linearGradient5134" xml:space="default">
      <stop offset="0%" stop-color="#A99FFF" stop-opacity="0" id="stop5136" xml:space="default" />
      <stop offset="54.2467%" stop-color="#FFFFFF" stop-opacity="0.6293706" id="stop5140" xml:space="default" />
      <stop offset="100%" stop-color="#FFFFFF" stop-opacity="0" id="stop5138" xml:space="default" />
    </linearGradient>
    <linearGradient x1="0%" y1="0%" x2="100%" y2="0%" gradientUnits="objectBoundingBox" id="linearGradient4985" xml:space="default">
      <stop offset="0%" stop-color="#CACBFF" stop-opacity="1" id="stop4987" xml:space="default" />
      <stop offset="100%" stop-color="#FFFFFF" stop-opacity="0" id="stop4989" xml:space="default" />
    </linearGradient>
    <marker refX="0" refY="0" orient="auto" overflow="visible" markerWidth="3" markerHeight="3" id="Arrow2Mend" xml:space="default">
      <path d="M8.718588 4.033735 L-2.207289 0.01601326 L8.718589 -4.001708 C6.97309 -1.629647 6.983148 1.615744 8.718588 4.033735 z" fill-rule="evenOdd" stroke-width="0.625" stroke-linejoin="round" font-size="12" transform="scale(0.6) rotate(180, 0, 0) translate(0, 0)" id="path4124" xml:space="default" />
    </marker>
    <linearGradient x1="0%" y1="0%" x2="100%" y2="0%" gradientUnits="objectBoundingBox" id="linearGradient5643" xml:space="default">
      <stop offset="0%" stop-color="#4D4D4D" stop-opacity="1" id="stop5645" xml:space="default" />
      <stop offset="100%" stop-color="#4D4D4D" stop-opacity="0.3006993" id="stop5647" xml:space="default" />
    </linearGradient>
    <marker refX="0" refY="0" orient="auto" overflow="visible" markerWidth="3" markerHeight="3" id="DotS" xml:space="default">
      <path d="M-2.5 -1 C-2.5 1.76 -4.74 4 -7.5 4 C-10.26 4 -12.5 1.76 -12.5 -1 C-12.5 -3.76 -10.26 -6 -7.5 -6 C-4.74 -6 -2.5 -3.76 -2.5 -1 z" stroke="#000000" fill-rule="evenOdd" stroke-width="1pt" transform="matrix(0.2, 0, 0, 0.2, 1.48, 0.2)" id="path4187" xml:space="default" />
    </marker>
    <marker refX="0" refY="0" orient="auto" overflow="visible" markerWidth="3" markerHeight="3" id="Arrow2Send" xml:space="default">
      <path d="M8.718588 4.033735 L-2.207289 0.01601326 L8.718589 -4.001708 C6.97309 -1.629647 6.983148 1.615744 8.718588 4.033735 z" fill-rule="evenOdd" stroke-width="0.625" stroke-linejoin="round" font-size="12px" transform="matrix(-0.3, 0, 0, -0.3, 0.69, 0)" id="path4152" xml:space="default" />
    </marker>
    <marker refX="0" refY="0" orient="auto" overflow="visible" markerWidth="3" markerHeight="3" id="SquareS" xml:space="default">
      <path d="M-5 -5 L-5 5 L5 5 L5 -5 L-5 -5 z" stroke="#000000" fill-rule="evenOdd" stroke-width="1pt" transform="scale(0.2)" id="path4196" xml:space="default" />
    </marker>
    <marker refX="0" refY="0" orient="auto" overflow="visible" markerWidth="3" markerHeight="3" id="Arrow1Send" xml:space="default">
      <path d="M0 0 L5 -5 L-12.5 0 L5 5 L0 0 z" stroke="#000000" fill-rule="evenOdd" stroke-width="1pt" transform="matrix(-0.2, 0, 0, -0.2, -1.2, 0)" id="path4134" xml:space="default" />
    </marker>
    <linearGradient x1="0%" y1="0%" x2="100%" y2="0%" gradientUnits="objectBoundingBox" id="linearGradient4100" xml:space="default">
      <stop offset="0%" stop-color="#5B5B5D" stop-opacity="1" id="stop4102" xml:space="default" />
      <stop offset="100%" stop-color="#7F7980" stop-opacity="0" id="stop4104" xml:space="default" />
    </linearGradient>
    <linearGradient x1="0%" y1="0%" x2="100%" y2="0%" gradientUnits="objectBoundingBox" id="linearGradient4074" xml:space="default">
      <stop offset="0%" stop-color="#494444" stop-opacity="0" id="stop4076" xml:space="default" />
      <stop offset="51.80857%" stop-color="#444949" stop-opacity="1" id="stop4078" xml:space="default" />
      <stop offset="100%" stop-color="#999999" stop-opacity="0" id="stop4080" xml:space="default" />
    </linearGradient>
    <linearGradient x1="0%" y1="0%" x2="100%" y2="0%" gradientUnits="objectBoundingBox" id="linearGradient4056" xml:space="default">
      <stop offset="0%" stop-color="#B9B9B7" stop-opacity="0.06293707" id="stop4058" xml:space="default" />
      <stop offset="56.60752%" stop-color="#C9C9C6" stop-opacity="1" id="stop4060" xml:space="default" />
      <stop offset="100%" stop-color="#DADAD6" stop-opacity="0" id="stop4062" xml:space="default" />
    </linearGradient>
    <linearGradient x1="0%" y1="0%" x2="100%" y2="0%" gradientUnits="objectBoundingBox" id="linearGradient3980" xml:space="default">
      <stop offset="0%" stop-color="#B9B9B7" stop-opacity="0" id="stop3982" xml:space="default" />
      <stop offset="54.91006%" stop-color="#5F605F" stop-opacity="0.5104895" id="stop3984" xml:space="default" />
      <stop offset="100%" stop-color="#DADAD6" stop-opacity="0" id="stop3986" xml:space="default" />
    </linearGradient>
    <linearGradient x1="0%" y1="0%" x2="100%" y2="0%" gradientUnits="objectBoundingBox" id="linearGradient3928" xml:space="default">
      <stop offset="0%" stop-color="#B9B9B7" stop-opacity="0.1048951" id="stop3930" xml:space="default" />
      <stop offset="79.67419%" stop-color="#C9C9C6" stop-opacity="1" id="stop3932" xml:space="default" />
      <stop offset="100%" stop-color="#DADAD6" stop-opacity="0" id="stop3934" xml:space="default" />
    </linearGradient>
    <linearGradient x1="0%" y1="0%" x2="100%" y2="0%" gradientUnits="objectBoundingBox" id="linearGradient3765" xml:space="default">
      <stop offset="0%" stop-color="#494444" stop-opacity="0" id="stop3767" xml:space="default" />
      <stop offset="47.85461%" stop-color="#444949" stop-opacity="1" id="stop3771" xml:space="default" />
      <stop offset="100%" stop-color="#999999" stop-opacity="0" id="stop3769" xml:space="default" />
    </linearGradient>
    <linearGradient x1="0%" y1="0%" x2="100%" y2="0%" gradientUnits="objectBoundingBox" id="linearGradient3745" xml:space="default">
      <stop offset="0%" stop-color="#B9B9B7" stop-opacity="1" id="stop3751" xml:space="default" />
      <stop offset="79.67419%" stop-color="#C9C9C6" stop-opacity="1" id="stop3753" xml:space="default" />
      <stop offset="100%" stop-color="#DADAD6" stop-opacity="0" id="stop3749" xml:space="default" />
    </linearGradient>
    <linearGradient x1="0%" y1="0%" x2="100%" y2="0%" gradientUnits="objectBoundingBox" id="linearGradient3729" xml:space="default">
      <stop offset="0%" stop-color="#464642" stop-opacity="1" id="stop3731" xml:space="default" />
      <stop offset="100%" stop-color="#999999" stop-opacity="0" id="stop3733" xml:space="default" />
    </linearGradient>
    <linearGradient x1="0%" y1="0%" x2="100%" y2="0%" gradientUnits="objectBoundingBox" id="linearGradient3681" xml:space="default">
      <stop offset="0%" stop-color="#0B0B0B" stop-opacity="1" id="stop3683" xml:space="default" />
      <stop offset="100%" stop-color="#A9A9A6" stop-opacity="1" id="stop3685" xml:space="default" />
    </linearGradient>
    <linearGradient x1="0%" y1="0%" x2="100%" y2="0%" gradientUnits="objectBoundingBox" id="linearGradient3653" xml:space="default">
      <stop offset="0%" stop-color="#D4D2D2" stop-opacity="1" id="stop3655" xml:space="default" />
      <stop offset="100%" stop-color="#888888" stop-opacity="1" id="stop3657" xml:space="default" />
    </linearGradient>
    <linearGradient x1="180.251" y1="373.8617" x2="539.9916" y2="373.8617" gradientUnits="userSpaceOnUse" xlink:href="#linearGradient3653" id="linearGradient3651" xml:space="default" />
    <linearGradient x1="170.4506" y1="442.4685" x2="180.512" y2="442.4685" gradientUnits="userSpaceOnUse" xlink:href="#linearGradient3729" id="linearGradient3727" xml:space="default" />
    <linearGradient x1="172.864" y1="223.2923" x2="182.2355" y2="281.1227" gradientUnits="userSpaceOnUse" xlink:href="#linearGradient3745" id="linearGradient3743" xml:space="default" />
    <linearGradient x1="392.7153" y1="464.2493" x2="397.8726" y2="487.1196" gradientUnits="userSpaceOnUse" xlink:href="#linearGradient3765" gradientTransform="matrix(0.9999968, 0.00251754, -0.00251754, 0.9999968, 2.338703, 0.1773586)" id="linearGradient3763" xml:space="default" />
    <filter x="-0.1633044" y="-0.01295172" width="1.326609" height="1.025903" color-interpolation-filters="auto" id="filter3828" xml:space="default">
      <feGaussianBlur stdDeviation="0.874905944" id="feGaussianBlur3830" xml:space="default" collect="always" />
    </filter>
    <filter x="none" y="none" width="none" height="none" color-interpolation-filters="auto" id="filter3846" xml:space="default">
      <feGaussianBlur stdDeviation="0.2124711" id="feGaussianBlur3848" xml:space="default" collect="always" />
    </filter>
    <linearGradient x1="508.2222" y1="423.9952" x2="515.3228" y2="423.9952" gradientUnits="userSpaceOnUse" xlink:href="#linearGradient3653" id="linearGradient3856" xml:space="default" />
    <filter x="-0.2250001" y="-0.4499996" width="1.45" height="1.899999" color-interpolation-filters="auto" id="filter3906" xml:space="default">
      <feGaussianBlur stdDeviation="0.7411963" id="feGaussianBlur3908" xml:space="default" collect="always" />
    </filter>
    <linearGradient x1="332.132" y1="260.1949" x2="468.98" y2="260.1949" gradientUnits="userSpaceOnUse" xlink:href="#linearGradient4056" id="linearGradient3926" xml:space="default" />
    <filter x="none" y="none" width="none" height="none" color-interpolation-filters="auto" id="filter3948" xml:space="default">
      <feGaussianBlur stdDeviation="0.976931751" id="feGaussianBlur3950" xml:space="default" collect="always" />
    </filter>
    <linearGradient x1="306.4159" y1="454.4632" x2="494.6961" y2="454.4632" gradientUnits="userSpaceOnUse" xlink:href="#linearGradient3928" gradientTransform="translate(-40.25126, 7.267589)" id="linearGradient3960" xml:space="default" />
    <filter x="none" y="none" width="none" height="none" color-interpolation-filters="auto" id="filter3966" xml:space="default">
      <feGaussianBlur stdDeviation="1.12368107" id="feGaussianBlur3968" xml:space="default" collect="always" />
    </filter>
    <linearGradient x1="223.9323" y1="271.6207" x2="206.2877" y2="289.2653" gradientUnits="userSpaceOnUse" xlink:href="#linearGradient3980" gradientTransform="translate(-2.236181, -3.354272)" id="linearGradient3978" xml:space="default" />
    <filter x="-0.1772614" y="-0.0163124" width="1.354523" height="1.032625" color-interpolation-filters="auto" id="filter4042" xml:space="default">
      <feGaussianBlur stdDeviation="1.23871458" id="feGaussianBlur4044" xml:space="default" collect="always" />
    </filter>
    <filter x="-0.2184753" y="-0.2662669" width="1.436951" height="1.532534" color-interpolation-filters="auto" id="filter4052" xml:space="default">
      <feGaussianBlur stdDeviation="1.40342069" id="feGaussianBlur4054" xml:space="default" collect="always" />
    </filter>
    <linearGradient x1="192.9834" y1="295.3985" x2="215.1082" y2="266.0432" gradientUnits="userSpaceOnUse" xlink:href="#linearGradient4074" gradientTransform="matrix(1.125, 0, 0, 1.019802, -23.1305, -2.180026)" id="linearGradient4072" xml:space="default" />
    <linearGradient x1="214.1144" y1="394.6454" x2="218.0277" y2="394.6454" gradientUnits="userSpaceOnUse" xlink:href="#linearGradient4100" id="linearGradient4090" xml:space="default" />
    <filter x="none" y="none" width="none" height="none" color-interpolation-filters="auto" id="filter4096" xml:space="default">
      <feGaussianBlur stdDeviation="0.02473602" id="feGaussianBlur4098" xml:space="default" collect="always" />
    </filter>
    <linearGradient x1="170.4506" y1="442.4685" x2="180.512" y2="442.4685" gradientUnits="userSpaceOnUse" xlink:href="#linearGradient3729" id="linearGradient5576" xml:space="default" />
    <linearGradient x1="192.9834" y1="295.3985" x2="215.1082" y2="266.0432" gradientUnits="userSpaceOnUse" xlink:href="#linearGradient4074" gradientTransform="matrix(1.125, 0, 0, 1.019802, -23.1305, -2.180026)" id="linearGradient5578" xml:space="default" />
    <linearGradient x1="172.864" y1="223.2923" x2="182.2355" y2="281.1227" gradientUnits="userSpaceOnUse" xlink:href="#linearGradient3745" id="linearGradient5580" xml:space="default" />
    <linearGradient x1="180.251" y1="373.8617" x2="539.9916" y2="373.8617" gradientUnits="userSpaceOnUse" xlink:href="#linearGradient3653" id="linearGradient5582" xml:space="default" />
    <linearGradient x1="392.7153" y1="464.2493" x2="397.8726" y2="487.1196" gradientUnits="userSpaceOnUse" xlink:href="#linearGradient3765" gradientTransform="matrix(0.9999968, 0.00251754, -0.00251754, 0.9999968, 2.338703, 0.1773586)" id="linearGradient5584" xml:space="default" />
    <linearGradient x1="508.2222" y1="423.9952" x2="515.3228" y2="423.9952" gradientUnits="userSpaceOnUse" xlink:href="#linearGradient3653" id="linearGradient5586" xml:space="default" />
    <linearGradient x1="306.4159" y1="454.4632" x2="494.6961" y2="454.4632" gradientUnits="userSpaceOnUse" xlink:href="#linearGradient3928" gradientTransform="translate(-40.25126, 7.267589)" id="linearGradient5588" xml:space="default" />
    <linearGradient x1="332.132" y1="260.1949" x2="468.98" y2="260.1949" gradientUnits="userSpaceOnUse" xlink:href="#linearGradient4056" id="linearGradient5590" xml:space="default" />
    <linearGradient x1="214.1144" y1="394.6454" x2="218.0277" y2="394.6454" gradientUnits="userSpaceOnUse" xlink:href="#linearGradient4100" id="linearGradient5592" xml:space="default" />
    <linearGradient x1="392.7153" y1="464.2493" x2="397.8726" y2="487.1196" gradientUnits="userSpaceOnUse" xlink:href="#linearGradient3765" gradientTransform="matrix(0.9999968, 0.00251754, -0.00251754, 0.9999968, 2.338703, 0.1773586)" id="linearGradient5614" xml:space="default" />
    <linearGradient x1="180.251" y1="373.8617" x2="539.9916" y2="373.8617" gradientUnits="userSpaceOnUse" xlink:href="#linearGradient3653" id="linearGradient5617" xml:space="default" />
    <linearGradient x1="172.864" y1="223.2923" x2="182.2355" y2="281.1227" gradientUnits="userSpaceOnUse" xlink:href="#linearGradient3745" id="linearGradient5620" xml:space="default" />
    <linearGradient x1="192.9834" y1="295.3985" x2="215.1082" y2="266.0432" gradientUnits="userSpaceOnUse" xlink:href="#linearGradient4074" gradientTransform="matrix(1.125, 0, 0, 1.019802, -23.1305, -2.180026)" id="linearGradient5623" xml:space="default" />
    <linearGradient x1="170.4506" y1="442.4685" x2="180.512" y2="442.4685" gradientUnits="userSpaceOnUse" xlink:href="#linearGradient3729" id="linearGradient5626" xml:space="default" />
    <linearGradient x1="229.4467" y1="360.5583" x2="510.9977" y2="360.5583" gradientUnits="userSpaceOnUse" xlink:href="#linearGradient5643" id="linearGradient5641" xml:space="default" />
    <linearGradient x1="229.4467" y1="360.5583" x2="510.9977" y2="360.5583" gradientUnits="userSpaceOnUse" xlink:href="#linearGradient5643" id="linearGradient5682" xml:space="default" />
    <linearGradient x1="170.4506" y1="442.4685" x2="180.512" y2="442.4685" gradientUnits="userSpaceOnUse" xlink:href="#linearGradient3729" id="linearGradient5684" xml:space="default" />
    <linearGradient x1="192.9834" y1="295.3985" x2="215.1082" y2="266.0432" gradientUnits="userSpaceOnUse" xlink:href="#linearGradient4074" gradientTransform="matrix(1.125, 0, 0, 1.019802, -23.1305, -2.180026)" id="linearGradient5686" xml:space="default" />
    <linearGradient x1="172.864" y1="223.2923" x2="182.2355" y2="281.1227" gradientUnits="userSpaceOnUse" xlink:href="#linearGradient3745" id="linearGradient5688" xml:space="default" />
    <linearGradient x1="180.251" y1="373.8617" x2="539.9916" y2="373.8617" gradientUnits="userSpaceOnUse" xlink:href="#linearGradient3653" id="linearGradient5690" xml:space="default" />
    <linearGradient x1="392.7153" y1="464.2493" x2="397.8726" y2="487.1196" gradientUnits="userSpaceOnUse" xlink:href="#linearGradient3765" gradientTransform="matrix(0.9999968, 0.00251754, -0.00251754, 0.9999968, 2.338703, 0.1773586)" id="linearGradient5692" xml:space="default" />
    <linearGradient x1="508.2222" y1="423.9952" x2="515.3228" y2="423.9952" gradientUnits="userSpaceOnUse" xlink:href="#linearGradient3653" id="linearGradient5694" xml:space="default" />
    <linearGradient x1="306.4159" y1="454.4632" x2="494.6961" y2="454.4632" gradientUnits="userSpaceOnUse" xlink:href="#linearGradient3928" gradientTransform="translate(-40.25126, 7.267589)" id="linearGradient5696" xml:space="default" />
    <linearGradient x1="332.132" y1="260.1949" x2="468.98" y2="260.1949" gradientUnits="userSpaceOnUse" xlink:href="#linearGradient4056" id="linearGradient5698" xml:space="default" />
    <linearGradient x1="214.1144" y1="394.6454" x2="218.0277" y2="394.6454" gradientUnits="userSpaceOnUse" xlink:href="#linearGradient4100" id="linearGradient5700" xml:space="default" />
    <linearGradient x1="392.7153" y1="464.2493" x2="397.8726" y2="487.1196" gradientUnits="userSpaceOnUse" xlink:href="#linearGradient3765" gradientTransform="matrix(0.9999968, 0.00251754, -0.00251754, 0.9999968, 2.338703, 0.1773586)" id="linearGradient5722" xml:space="default" />
    <linearGradient x1="180.251" y1="373.8617" x2="539.9916" y2="373.8617" gradientUnits="userSpaceOnUse" xlink:href="#linearGradient3653" id="linearGradient5725" xml:space="default" />
    <linearGradient x1="172.864" y1="223.2923" x2="182.2355" y2="281.1227" gradientUnits="userSpaceOnUse" xlink:href="#linearGradient3745" id="linearGradient5728" xml:space="default" />
    <linearGradient x1="192.9834" y1="295.3985" x2="215.1082" y2="266.0432" gradientUnits="userSpaceOnUse" xlink:href="#linearGradient4074" gradientTransform="matrix(1.125, 0, 0, 1.019802, -23.1305, -2.180026)" id="linearGradient5731" xml:space="default" />
    <linearGradient x1="170.4506" y1="442.4685" x2="180.512" y2="442.4685" gradientUnits="userSpaceOnUse" xlink:href="#linearGradient3729" id="linearGradient5734" xml:space="default" />
    <linearGradient x1="229.4467" y1="360.5583" x2="510.9977" y2="360.5583" gradientUnits="userSpaceOnUse" xlink:href="#linearGradient5643" id="linearGradient5741" xml:space="default" />
    <linearGradient x1="392.7153" y1="464.2493" x2="397.8726" y2="487.1196" gradientUnits="userSpaceOnUse" xlink:href="#linearGradient3765" gradientTransform="matrix(0.9999968, 0.00251754, -0.00251754, 0.9999968, 2.338703, 0.1773586)" id="linearGradient2995" xml:space="default" />
    <linearGradient x1="180.251" y1="373.8617" x2="539.9916" y2="373.8617" gradientUnits="userSpaceOnUse" xlink:href="#linearGradient3653" id="linearGradient2998" xml:space="default" />
    <linearGradient x1="172.864" y1="223.2923" x2="182.2355" y2="281.1227" gradientUnits="userSpaceOnUse" xlink:href="#linearGradient3745" id="linearGradient3001" xml:space="default" />
    <linearGradient x1="192.9834" y1="295.3985" x2="215.1082" y2="266.0432" gradientUnits="userSpaceOnUse" xlink:href="#linearGradient4074" gradientTransform="matrix(1.125, 0, 0, 1.019802, -23.1305, -2.180026)" id="linearGradient3004" xml:space="default" />
    <linearGradient x1="170.4506" y1="442.4685" x2="180.512" y2="442.4685" gradientUnits="userSpaceOnUse" xlink:href="#linearGradient3729" id="linearGradient3007" xml:space="default" />
    <filter x="none" y="none" width="none" height="none" color-interpolation-filters="auto" id="filter4991" xml:space="default">
      <feGaussianBlur stdDeviation="0.0122988271" id="feGaussianBlur4993" xml:space="default" collect="always" />
    </filter>
    <radialGradient cx="697.6949" cy="130.2924" r="1.229883" fx="697.6949" fy="130.2924" gradientUnits="userSpaceOnUse" xlink:href="#linearGradient4985" id="radialGradient5002" xml:space="default" />
    <radialGradient cx="697.6949" cy="130.2924" r="1.229883" fx="697.6949" fy="130.2924" gradientUnits="userSpaceOnUse" xlink:href="#linearGradient4985" id="radialGradient5122" xml:space="default" />
    <linearGradient x1="285.6103" y1="372.1765" x2="423.0357" y2="487.6335" gradientUnits="userSpaceOnUse" xlink:href="#linearGradient5134" id="linearGradient5132" xml:space="default" />
    <linearGradient x1="76.02926" y1="64.29022" x2="273.3731" y2="183.9259" gradientUnits="userSpaceOnUse" xlink:href="#linearGradient5134" gradientTransform="matrix(1.075435, 0, 0, 1.051119, 154.1307, 201.3482)" id="linearGradient5150" xml:space="default" />
    <linearGradient x1="94.47866" y1="44.72363" x2="226.4134" y2="173.3041" gradientUnits="userSpaceOnUse" xlink:href="#linearGradient5162" id="linearGradient5160" xml:space="default" />
    <linearGradient x1="94.47866" y1="44.72363" x2="226.4134" y2="173.3041" gradientUnits="userSpaceOnUse" xlink:href="#linearGradient5162" gradientTransform="matrix(1, 0, 0, 0.8481928, 162.1022, 245.1163)" id="linearGradient5178" xml:space="default" />
    <filter x="none" y="none" width="none" height="none" color-interpolation-filters="auto" id="filter5192" xml:space="default">
      <feGaussianBlur stdDeviation="4.49472475" id="feGaussianBlur5194" xml:space="default" collect="always" />
    </filter>
    <linearGradient x1="94.47866" y1="44.72363" x2="226.4134" y2="173.3041" gradientUnits="userSpaceOnUse" xlink:href="#linearGradient5162" gradientTransform="matrix(1, 0, 0, 0.8481928, 176.3332, 241.1633)" id="linearGradient5196" xml:space="default" />


        path d="M598.4349 433.9964 L580.7894 381.898 L578.9835 361.1406 C577.9903 349.724 577.1879 340.1257 577.2003 339.8111 C577.2127 339.4966 578.2089 342.0854 579.414 345.564 C592.0506 382.0419 593.3062 385.4243 594.2794 385.6125 C594.6284 385.6801 607.5113 381.6112 622.908 376.5706 C683.4675 356.7448 676.4783 359.1755 676.1931 358.039 C675.7165 356.1403 672.6605 348.5463 672.0599 347.7686 C671.4148 346.9332 653.6589 342.4688 601.0693 329.9193 L575.7454 323.8762 L575.1769 317.1028 L574.6083 310.3293 L580.9332 310.4626 C596.6972 310.7946 660.347 311.3209 660.6691 311.1219 C660.8669 310.9996 660.908 310.3497 660.7604 309.6777 C660.4885 308.4398 655.588 296.6951 651.9341 288.5243 C650.59 285.5186 650.0953 284.0122 650.42 283.9133 C651.3176 283.64 658.1259 282.5129 658.8649 282.5152 C659.4377 282.5172 659.9394 283.4504 661.149 286.7647 C663.0482 291.9684 668.4452 305.5952 669.8425 308.7145 C670.4056 309.9716 671.1166 311.0962 671.4225 311.2135 C671.9863 311.4299 704.3381 305.1218 708.5179 303.9805 C710.1762 303.5277 710.7909 303.1739 710.7909 302.6721 C710.7909 301.9726 701.5957 279.5116 701.1097 279.024 C700.9636 278.8774 696.459 278.6685 691.0995 278.5598 L681.3549 278.3622 L703.4648 274.4279 L725.5746 270.4935 L754.452 272.1992 C770.3345 273.1373 796.7598 274.7325 813.1748 275.7441 L843.0203 277.5834 L843.3158 278.961 C843.5898 280.2388 853.8994 415.8759 853.8937 418.1291 C853.8917 419.1172 852.8392 419.5213 814.0642 433.4286 C792.1594 441.2851 764.7203 451.0963 753.0884 455.2312 L731.9396 462.7492 L674.4916 474.422 C642.8953 480.8421 616.827 486.0948 616.5621 486.0948 C616.2753 486.0948 608.9445 465.0254 598.4351 433.9964 z M649.4625 476.032 C670.9476 471.0164 697.5204 464.6391 701.8964 463.4481 C704.2586 462.8052 704.2485 463.3959 702.0433 454.8658 C699.0461 443.2725 694.8146 429.171 694.3328 429.171 C692.7825 429.171 617.6631 449.5582 616.2699 450.3571 C615.8921 450.5737 624.4236 478.6997 625.4616 480.6594 C625.6631 481.0399 626.0189 481.3512 626.2523 481.3512 C626.4856 481.3512 636.9302 478.9576 649.4625 476.032 L649.4625 476.032 z M720.871 457.4737 C736.0132 452.1738 749.5306 447.1201 749.5306 446.7588 C749.5306 446.059 740.1706 421.0664 738.4654 417.213 C738.0084 416.1803 737.3986 415.3353 737.1104 415.3353 C736.4108 415.3353 729.0482 417.6681 713.9034 422.6882 L701.4016 426.8323 L701.91 429.484 C702.6598 433.3952 707.9371 453.045 709.6557 458.3247 C710.098 459.6836 710.6678 460.7952 710.9218 460.7949 C711.1758 460.7946 715.653 459.3001 720.871 457.4737 L720.871 457.4737 z M780.4158 436.7605 C787.7277 434.1514 794.0871 431.8148 794.548 431.5681 C795.0089 431.3215 795.3859 430.8482 795.3859 430.5164 C795.3859 429.9437 753.2184 373.5077 751.2769 371.482 L750.3541 370.5191 L746.8787 372.1479 C742.696 374.1082 740.9088 374.6138 738.1531 374.6168 C736.7159 374.6188 735.9982 374.7939 735.85 375.1802 C735.6335 375.7444 739.792 390.1284 749.9163 423.8344 C752.9203 433.8356 755.5784 442.7633 755.8231 443.6737 L756.2679 445.329 L761.6948 443.4167 C764.6795 442.365 773.104 439.3697 780.4158 436.7605 L780.4158 436.7605 z M632.835 440.025 C643.2067 437.2979 651.9959 434.976 652.3666 434.865 C653.1868 434.6195 653.5963 435.7308 647.6476 422.0555 C640.0411 404.5692 629.6805 381.5821 629.1417 380.9966 C628.7239 380.5425 627.9538 380.6531 624.3123 381.6904 C618.9553 383.2162 595.2762 391.1577 594.8613 391.5677 C594.6947 391.7323 598.4756 403.364 603.2634 417.4159 C613.5603 447.6377 612.5884 444.9832 613.3566 444.9832 C613.6981 444.9832 622.4634 442.752 632.8351 440.025 L632.8351 440.025 z M670.2328 429.9636 C682.4387 426.7714 691.3514 424.1684 692.3774 423.4962 L693.334 422.8694 L689.5784 408.1326 C684.826 389.4842 678.0712 363.9048 677.8373 363.671 C677.4074 363.2411 638.5096 376.4958 637.5026 377.4154 C637.0196 377.8564 646.5283 401.2104 656.5231 424.1309 L659.9276 431.9381 L661.3052 431.9381 C662.0629 431.9381 666.0803 431.0496 670.2327 429.9636 z M809.3979 424.4001 C829.0402 418.1982 843.199 413.5615 844.5025 412.9043 C845.3178 412.4932 845.9849 411.892 845.9849 411.5684 C845.9849 411.2448 844.9056 402.6653 843.5864 392.503 C842.2673 382.3407 840.975 372.3361 840.7148 370.2706 L840.2416 366.5152 L838.0731 366.6245 C831.0795 366.9769 791.9983 369.2479 778.6086 370.08 C769.9246 370.6197 762.3154 371.0612 761.6992 371.0612 L760.5787 371.0612 L761.2048 372.2718 C762.884 375.5191 802.0039 426.4039 802.8212 426.4039 C802.948 426.4039 805.9075 425.5022 809.3979 424.4001 L809.3979 424.4001 z M710.8107 418.6801 C723.1928 414.862 733.8223 411.3691 734.2521 410.9771 C734.4369 410.8086 734.1152 409.0074 733.5372 406.9746 C731.8933 401.1932 725.3468 380.3981 722.3736 371.5132 L719.6807 363.4661 L717.1134 362.4995 C708.7451 359.3487 679.9579 349.582 679.7253 349.8146 C679.6594 349.8806 680.2886 352.3311 681.1238 355.2601 C681.9589 358.1892 686.4194 373.9272 691.036 390.2335 C695.6526 406.5399 699.6776 420.2816 699.9804 420.7708 C700.2832 421.26 700.6693 421.6602 700.8384 421.6602 C701.0074 421.6602 705.495 420.3192 710.8107 418.6801 z M741.1423 369.9192 C745.0886 367.9271 746.8185 365.1826 746.9197 360.7532 C746.9796 358.136 745.2509 355.5089 742.4151 353.9074 C740.4453 352.795 739.9252 352.6811 736.8809 352.6956 C734.0414 352.7092 733.2145 352.8721 731.5443 353.7472 C727.5916 355.818 725.417 359.0338 725.417 362.8083 C725.417 369.7479 733.8908 373.5797 741.1423 369.9192 L741.1423 369.9192 z M782.0315 365.3275 C824.7942 361.8803 840.8732 360.4926 841.1397 360.226 C841.276 360.0897 841.1791 357.7662 840.9243 355.0626 C840.4084 349.5884 837.3782 323.8749 837.1031 322.6364 C836.9396 321.9003 835.8681 321.7256 821.5601 320.1016 L806.1928 318.3575 L795.3539 325.8131 C770.3796 342.9921 754.8119 353.8137 753.9778 354.575 C753.1706 355.3118 753.0867 355.7552 753.0711 359.3698 C753.0621 361.5605 752.8998 364.1517 752.7114 365.1282 C752.5231 366.1047 752.4524 367.0386 752.5543 367.2036 C752.8431 367.6707 753.4175 367.6342 782.0315 365.3275 L782.0315 365.3275 z M721.9789 355.0308 C722.8056 353.8401 724.5386 352.0235 725.8298 350.9939 C727.1212 349.9642 728.1791 348.8837 728.1809 348.5927 C728.1839 348.1223 715.1832 310.6107 714.8844 310.2273 C714.5133 309.7511 671.4703 317.7539 670.8032 318.4231 C670.4979 318.7293 671.0178 320.5059 675.3046 333.8078 L678.5227 343.7933 L686.6518 346.4131 C701.3237 351.1414 720.0765 357.1389 720.278 357.1675 C720.3867 357.183 721.1521 356.2214 721.9788 355.0308 z M752.4117 349.2443 C762.74 342.3036 798.1531 316.6369 798.1531 316.0919 C798.1531 315.9494 797.0413 315.7259 795.6824 315.595 C794.3235 315.4642 788.7646 314.9096 783.3292 314.3626 C753.7255 311.3834 725.3026 308.9154 724.4342 309.2487 C724.0898 309.3808 723.8956 309.7753 723.999 310.1323 C724.1017 310.4871 726.6251 319.2423 729.6064 329.5884 L735.027 348.3996 L739.2402 349.0325 C741.6616 349.3963 744.3673 350.0825 745.6025 350.646 C746.7846 351.1853 747.9809 351.6411 748.261 351.6589 C748.5411 351.6767 750.409 350.5901 752.4117 349.2443 z M670.3811 340.9193 C670.2859 340.6475 668.5498 335.5332 666.5231 329.5542 C664.4965 323.5753 662.7229 318.5497 662.5819 318.3864 C662.2852 318.0428 624.9357 317.0619 596.8556 316.6602 C578.6973 316.4005 577.5807 316.4245 577.3292 317.0798 C576.9588 318.0452 577.3438 318.2189 583.8842 320.0381 C594.0113 322.8547 668.2532 341.4017 669.4248 341.4077 C670.1588 341.4117 670.4936 341.2404 670.381 340.9193 z M836.8873 310.0855 C836.8773 305.8421 835.3711 285.9701 835.0367 285.6732 C834.7441 285.4135 827.8652 284.8707 816.8525 284.2385 L812.4267 283.9844 L812.2254 284.9287 C811.9688 286.1326 810.8975 299.0813 810.5582 305.0811 C810.3361 309.0079 810.3864 309.6963 810.91 309.8972 C811.246 310.0261 814.6057 310.5002 818.3762 310.9507 C828.9459 312.2135 831.3438 312.4486 834.2247 312.5044 L836.893 312.5561 L836.887 310.0854 L836.887 310.0854 z M799.8906 307.6387 C800.3073 305.9785 801.3146 291.2155 801.3151 286.7625 C801.3154 282.6188 801.2933 282.513 800.426 282.5136 C799.9368 282.514 779.9034 281.705 755.9073 280.7159 C731.9112 279.7267 712.1823 279.0131 712.0653 279.1301 C711.8137 279.3817 714.9183 288.0598 718.4375 296.9416 C720.8885 303.1276 720.9732 303.273 722.2908 303.5656 C723.0318 303.7301 737.2465 304.7532 753.8789 305.8391 C770.5114 306.9249 786.3433 307.9657 789.061 308.1518 C791.7787 308.338 795.2727 308.5157 796.8254 308.5467 C799.5093 308.6003 799.6605 308.5557 799.8906 307.6387 L799.8906 307.6387 z" display="inline" enable-background="accumulate" color="#000000" id="path4078" xml:space="default" marker="none" overflow="visible" style="fill:#E6E646;" /&gt;
        
-inkscape-font-specification="'Arial Black, Bold'" style="fill:#2D2DFF;"&gt;
          </defs>

-inkscape-font-specification="'Arial Black, Bold'" style="fill:#000000;"&gt;
          <g id="g1150" xml:space="default"><g transform="translate(-159.866, -203.786)" id="layer1" xml:space="default"><g id="g5198" xml:space="default"><path d="M204.3419 535.4413 C207.6457 532.6724 211.1105 523.6297 211.4157 516.9793 C211.5581 513.8774 207.3855 457.9907 202.1432 392.7865 C196.901 327.5823 192.7587 273.2487 192.938 272.0451 C193.1174 270.8416 194.2218 267.7214 195.3921 265.1113 C197.4471 260.5282 197.7317 260.2809 203.7026 257.8917 C207.103 256.531 230.1207 249.8844 254.8531 243.1214 C316.1586 226.3575 340.9409 221.3919 393.9315 215.2542 C439.3634 209.9921 478.2766 207.0277 494.8927 207.563 C506.3603 207.9325 506.472 207.9532 511.0886 210.5569 C515.1045 212.822 516.153 213.9911 518.7925 219.147 L521.8478 225.1152 L530.1816 334.1218 C538.2233 439.3072 538.4641 443.3481 537.0522 449.3956 C536.2475 452.8426 534.5139 457.6428 533.1995 460.0626 L530.8099 464.4624 L367.9637 500.7195 C278.3983 520.6609 195.1886 542.1597 194.4072 542.2135 C193.2694 542.2919 202.6874 536.8278 204.3418 535.4412 L204.3418 535.4412 z" display="inline" enable-background="accumulate" stroke-width="1.5" color="#000000" id="path2850" xml:space="default" nodetypes="cssssssssscccscccscc" overflow="visible" marker="none" style="fill:#343334;" /><path d="M165.5757 352.8098 C165.5757 352.8098 159.4693 283.6753 159.8864 279.3808 C161.4494 272.1201 159.4577 269.88 167.288 265.3923 C172.039 262.8182 189.1461 254.4497 192.2707 254.3222 C193.4895 254.2725 186.2741 262.2472 183.3574 265.5874 L178.0543 271.6606 L177.4447 280.4277 C177.0873 285.5648 178.6593 312.5427 181.2409 345.5832 C185.8925 405.1167 186.1277 422.3679 182.3834 429.3751 C181.399 431.2174 178.4818 434.3833 175.9006 436.4105 C173.3195 438.4377 171.487 439.9529 171.4169 439.9481 C170.0899 410.8834 167.8086 381.8309 165.5757 352.8098 z" display="inline" enable-background="accumulate" stroke-width="4" color="#000000" id="path3663" xml:space="default" nodetypes="cccscccssscc" overflow="visible" marker="none" style="fill:#000000;" /><path d="M179.5287 525.7641 C179.3241 524.4754 178.0662 523.5831 177.1444 522.6596 C175.2408 520.7524 171.0233 520.2443 170.7424 517.7236 C168.8609 500.844 165.7012 463.9942 165.7012 463.9942 C165.7012 463.9942 165.3933 461.5393 166.218 459.6841 C167.0721 457.7631 171.9286 456.0679 171.9286 456.0679 C171.9881 456.3667 172.3399 456.7259 171.569 446.8175 C171.4548 442.124 171.4364 439.1184 171.4334 438.936 C171.4304 438.7535 171.6969 437.6628 173.2314 435.9092 C176.0999 432.4619 177.938 428.3737 180.3833 424.6027 C186.0988 415.95 182.7177 414.4876 182.7162 401.1446 C182.7153 393.8924 180.8768 377.4424 177.3158 338.4385 C174.0486 302.6532 170.5013 278.6152 174.7045 268.3785 C178.9078 258.1419 176.2241 264.8377 179.0822 261.6364 C181.9403 258.4351 185.0758 257.1776 190.849 253.9974 L219.8553 245.6506 C285.1628 227.1304 334.6383 219.4712 350.6589 217.4237 C372.4682 213.4744 326.9704 224.6454 314.1418 228.0956 C295.9576 231.9012 211.0687 251.3369 201.6295 255.059 L196.4109 258.0322 L194.2648 262.2896 C192.1775 267.3463 188.3309 260.9842 198.9488 393.1683 C204.138 457.7701 209.221 512.6591 209.2214 515.4847 C209.222 520.3677 211.8167 520.0468 208.569 526.6215 L206.3697 532.2603 L200.3646 535.3732 C194.4524 538.4387 193.6357 539.6323 189.103 539.9151 L180.9542 540.1383 C180.9542 540.1383 180.2746 532.7612 180.2746 532.7612 C180.2746 532.7612 179.9058 528.1396 179.5287 525.7642 z M177.7175 515.9158 C180.2645 514.6164 180.2458 514.733 179.3433 505.8028 C178.7726 500.156 178.7103 499.9749 176.6099 497.8571 C174.8392 496.0718 174.2034 495.7545 173.0014 496.0561 C171.8564 496.3435 171.5974 496.6898 171.7981 497.6653 C171.9388 498.349 172.3376 502.6747 172.6844 507.2782 C173.0313 511.8817 173.4139 515.962 173.5347 516.3456 C173.8495 517.3456 175.1835 517.2085 177.7175 515.9158 z" display="inline" enable-background="accumulate" stroke-width="3" color="#000000" id="path3713" xml:space="default" nodetypes="casczccsccsszzcccccccssccccccscssssccc" overflow="visible" marker="none" style="fill:#999999;" /><g transform="matrix(1.157462, 0, 0, 1.101224, -3.143243, -51.19408)" id="g3715" xml:space="default"><path d="M151.9124 497.3183 L153.7267 515.928" stroke="#C4C3C3" stroke-width="2.214363" stroke-linecap="round" id="path3665" xml:space="default" nodetypes="cc" style="fill:none;" /><path d="M154.7356 516.5966 C154.1089 509.7521 153.4576 503.259 152.6492 496.4271 C152.7071 496.3571 156.7773 499.2441 157.2612 500.1802 C157.8442 501.3079 158.5508 512.2296 158.5508 514.2698 C158.5508 514.7366 158.1126 515.4536 156.6847 516.0215 L154.7356 516.5967 z" display="inline" enable-background="accumulate" stroke-width="4" color="#000000" id="path3669" xml:space="default" nodetypes="ccsscc" overflow="visible" marker="none" style="fill:#000000;" /></g><path d="M176.7636 430.4612 L179.8624 424.9134 L179.9202 444.5399 L182.2875 450.8529 L172.2262 455.9822 L171.2891 438.5229 L176.7636 430.4612 z" id="path3719" xml:space="default" nodetypes="ccccccc" style="fill:url(#linearGradient3007);" /><path d="M195.7357 263.7374 C205.4824 253.6812 239.9702 250.6912 239.9702 250.6912 L260.5151 269.9727 C260.5151 269.9727 233.0869 277.9524 226.4134 289.7054 C222.4832 296.627 225.7146 314.4224 225.7146 314.4224 L198.0418 314.1428 L193.9887 272.2892 C193.9887 272.2892 193.7108 265.8266 195.7357 263.7374 z" id="path4064" xml:space="default" nodetypes="cccscccs" style="fill:url(#linearGradient3004);" /><path d="M173.9341 291.7959 L190.1416 290.2147 L191.5872 273.2166 L192.214 264.2883 L195.2805 258.195 L205.0954 253.8946 L240.6728 244.012 L307.1203 228.036 L321.9699 223.2924 L241.5312 239.6157 L202.0007 250.6842 L188.5604 254.8688 C188.5604 254.8688 180.2596 258.8781 177.424 262.3316 C174.9145 265.3881 172.864 273.2844 172.864 273.2844 L173.9341 291.7959 z" id="path3735" xml:space="default" nodetypes="ccccccccccccscc" style="fill:url(#linearGradient3001);" /><path d="M182.5645 541.492 C182.5645 541.492 188.3814 542.0295 191.1542 541.3132 C196.2886 539.9869 201.6258 537.7893 205.2299 533.8994 C208.2379 530.653 209.5939 526.046 210.5049 521.715 C211.3348 517.7695 210.8974 513.639 210.5783 509.6199 C204.3344 430.9719 197.0406 343.7827 191.7964 275.9424 C191.5987 273.3843 191.6347 270.491 192.3721 267.9099 C193.2528 264.8276 194.4888 261.5639 196.8559 259.4023 C200.44 256.1295 205.6429 255.1778 210.2993 253.8084 C240.1461 245.0305 269.7573 236.8376 299.847 229.7885 C317.8465 225.5717 335.9608 221.7493 354.222 218.8695 C381.3412 214.5929 436.0445 209.4476 436.0445 209.4476 C436.0445 209.4476 468.0361 206.4684 484.083 206.2313 C491.8269 206.1169 499.8798 204.8831 507.3011 207.0979 C510.8524 208.1578 514.3149 210.1107 516.8217 212.8405 C519.8704 216.1607 522.3766 220.4842 522.7958 224.9723 C529.7993 299.949 534.4318 370.2836 539.4915 443.6387 C539.8468 448.7896 537.6263 452.7598 535.2506 456.6564 C533.5152 459.5027 528.2164 463.7653 528.2164 463.7653" stroke="url(#linearGradient2998)" stroke-width="4" stroke-linecap="round" id="path2844" xml:space="default" nodetypes="caaassaasaacaaassaa" style="fill:none;" /><path d="M212.2486 498.0278 L537.4309 433.4688 L537.275 449.1449 L528.4224 461.6585 L209.0186 533.5587 L213.0392 518.5837 L212.2486 498.0279 z" id="path3755" xml:space="default" nodetypes="ccccccc" style="fill:url(#linearGradient2995);" /><g font-family="URW Chancery L" font-size="12px" font-style="italic" font-weight="700" transform="matrix(0.9849693, -0.1727295, 0.1727295, 0.9849693, 0, 0)" id="text5539" xml:space="default" font-stretch="normal" />

-inkscape-font-specification="URW Chancery L Bold Italic" style="fill:#C8D39B;"&gt;
        <path d="M271.3676 537.6672 L270.8396 538.9152 C271.2596 539.4792 271.8236 539.7432 272.6036 539.7432 C274.4396 539.7432 276.2396 538.2432 276.2396 536.7192 C276.2396 536.2272 276.0476 535.9752 275.1596 535.2792 C274.2836 534.5952 274.1396 534.3912 274.1396 533.8752 C274.1396 533.0952 274.7276 532.4232 275.4356 532.4232 C275.9396 532.4232 276.1196 532.6392 276.2516 533.4072 L277.0436 532.8431 C276.9716 532.1832 276.6116 531.8591 275.9756 531.8591 C274.7396 531.8591 273.3356 533.2271 273.3356 534.4152 C273.3356 534.9551 273.5876 535.3511 274.2836 535.8912 C275.0996 536.5392 275.3156 536.8632 275.3156 537.4152 C275.3156 538.3511 274.4156 539.1791 273.3716 539.1791 C272.8556 539.1791 272.3276 538.9511 272.0036 538.5911 C271.7516 538.3151 271.6556 538.0631 271.5596 537.5351 L271.3676 537.6671" id="path5746" xml:space="default" /><path d="M282.2748 537.3312 C281.3748 537.9312 281.1949 538.0392 281.0748 538.0392 C280.9908 538.0392 280.9308 537.9432 280.9308 537.7992 C280.9308 537.4872 281.2188 536.1672 281.6508 534.5712 C281.7828 534.3912 281.8068 534.3552 281.9988 534.1392 C281.4228 534.0071 281.0028 533.9592 280.4868 533.9592 C279.9948 533.9592 279.7668 534.0071 279.4548 534.1992 C279.0228 534.4512 278.5188 534.8232 278.3628 534.9911 C277.9188 535.4952 277.4148 537.1152 277.4148 538.0872 C277.4148 538.6631 277.6068 539.0472 277.9068 539.0472 C278.1708 539.0472 278.5668 538.8072 280.0668 537.7272 C279.9468 538.2792 279.8868 538.6512 279.8868 538.7952 C279.8868 538.9512 279.9588 539.0472 280.0788 539.0472 C280.2228 539.0472 280.2228 539.0472 281.1828 538.4352 C281.5308 538.2072 281.8068 538.0152 282.2628 537.6792 L282.2748 537.3312 M279.9348 537.4032 C279.2268 537.9192 278.8668 538.1232 278.6508 538.1232 C278.4588 538.1232 278.3388 537.9072 278.3388 537.5232 C278.3388 536.9232 278.5308 536.1072 278.8308 535.4232 C279.1188 534.7632 279.3828 534.5112 279.7908 534.5112 C280.0068 534.5112 280.3788 534.5712 280.8108 534.6672 C280.5708 535.5792 280.4868 535.8552 280.4748 535.9152 C280.4028 536.2152 280.3428 536.5152 280.2708 536.8272 C280.2588 536.8872 280.2227 537.0312 280.1628 537.2472 L279.9348 537.4032" id="path5748" xml:space="default" /><path d="M285.7659 537.3792 C284.8539 537.9191 284.4699 538.1232 284.3019 538.1232 C284.1459 538.1232 283.9539 537.8112 283.9539 537.5591 C283.9539 537.3911 284.1579 536.4672 284.4699 535.2072 C284.6379 535.1951 284.7579 535.1951 284.8179 535.1951 L285.2979 535.1831 C285.3459 535.1831 285.4659 535.1711 285.6579 535.1471 L286.1139 534.7991 L284.5779 534.7991 L285.0579 532.8551 C284.8299 532.9751 284.7339 533.0111 284.5539 533.0951 C284.4699 533.1431 284.3739 533.1791 284.2779 533.2271 C284.2299 533.2511 284.1699 533.2751 284.1099 533.2991 L283.7739 534.7991 C283.6659 534.8112 283.5939 534.8112 283.5579 534.8112 L283.2699 534.8112 C283.2459 534.8112 283.1859 534.8112 283.0899 534.8232 C282.9579 534.9072 282.9459 534.9072 282.7419 535.0752 C282.7059 535.0992 282.6459 535.1472 282.5619 535.2072 L282.8499 535.2072 L283.4019 535.2072 L283.6659 535.2072 C283.0299 537.8712 283.0299 537.8712 283.0299 538.2432 C283.0299 538.6272 283.282 539.0472 283.5099 539.0472 C283.774 539.0472 284.5899 538.5432 285.7419 537.6793 L285.7659 537.3793" id="path5750" xml:space="default" /><path d="M287.2216 538.6631 L287.9297 535.8431 C289.4297 534.8951 289.4657 534.8831 289.6337 534.8831 C289.7177 534.8831 289.7657 534.9431 289.7657 535.0391 C289.7657 535.2191 289.6696 535.6751 289.3217 537.0432 C289.0576 538.1111 289.0096 538.3151 289.0096 538.5432 C289.0096 538.7112 289.0576 538.8671 289.1896 539.0831 C289.7416 538.8311 290.5696 538.3151 291.4096 537.6911 L291.4937 537.3551 C290.2936 538.0391 290.2457 538.0631 290.1256 538.0631 C290.0056 538.0631 289.9337 537.9311 289.9337 537.7391 C289.9337 537.4871 290.0177 537.0911 290.2457 536.2631 C290.8097 534.2471 290.8097 534.2471 290.8097 534.1631 C290.8097 534.0311 290.7256 533.9592 290.5697 533.9592 C290.3897 533.9592 290.1257 534.0671 289.6937 534.3431 L288.0497 535.3632 C288.1577 534.9672 288.3376 534.2112 288.3376 534.1152 C288.3376 534.0312 288.2657 533.9592 288.1816 533.9592 C288.0497 533.9592 287.1856 534.4031 286.2976 534.9312 L286.2256 535.2432 C286.9937 534.8951 287.0417 534.8832 287.1497 534.8832 C287.2337 534.8832 287.2937 534.9552 287.2937 535.0512 C287.2937 535.3032 287.0657 536.2992 286.7657 537.3912 L286.4897 538.3632 C286.4657 538.4472 286.4056 538.6752 286.3217 539.0112 L287.2216 538.6632" id="path5752" xml:space="default" /><path d="M296.6889 537.3312 C295.7889 537.9312 295.6089 538.0392 295.4889 538.0392 C295.4049 538.0392 295.3449 537.9432 295.3449 537.7992 C295.3449 537.4872 295.6329 536.1672 296.0649 534.5712 C296.1969 534.3912 296.2209 534.3552 296.4129 534.1392 C295.8369 534.0071 295.4169 533.9592 294.9009 533.9592 C294.4089 533.9592 294.1809 534.0071 293.8689 534.1992 C293.4369 534.4512 292.9329 534.8232 292.7769 534.9911 C292.3329 535.4952 291.8289 537.1152 291.8289 538.0872 C291.8289 538.6631 292.0208 539.0472 292.3209 539.0472 C292.5849 539.0472 292.9809 538.8072 294.4809 537.7272 C294.3609 538.2792 294.3009 538.6512 294.3009 538.7952 C294.3009 538.9512 294.3729 539.0472 294.4929 539.0472 C294.6369 539.0472 294.6369 539.0472 295.5969 538.4352 C295.9449 538.2072 296.2209 538.0152 296.6768 537.6792 L296.6888 537.3312 M294.3488 537.4032 C293.6408 537.9192 293.2809 538.1232 293.0648 538.1232 C292.8729 538.1232 292.7528 537.9072 292.7528 537.5232 C292.7528 536.9232 292.9448 536.1072 293.2448 535.4232 C293.5328 534.7632 293.7968 534.5112 294.2048 534.5112 C294.4208 534.5112 294.7928 534.5712 295.2248 534.6672 C294.9848 535.5792 294.9008 535.8552 294.8888 535.9152 C294.8168 536.2152 294.7568 536.5152 294.6848 536.8272 C294.6728 536.8872 294.6368 537.0312 294.5768 537.2472 L294.3488 537.4032" id="path5754" xml:space="default" /><path d="M297.072 536.3112 C297.132 536.1312 297.192 535.9631 297.2039 535.9031 C297.468 535.1472 297.552 535.0751 298.2 535.0872 C298.68 535.0751 298.812 535.0632 299.0999 535.0032 C298.404 535.7832 298.2 536.0352 298.032 536.3112 C297.684 536.8871 297.4799 537.5712 297.4799 538.1592 C297.4799 538.7112 297.732 539.0472 298.128 539.0472 C299.076 539.0472 300.324 538.0512 301.1519 536.6352 C301.6199 535.8432 301.9439 534.8832 301.9439 534.2952 C301.9439 534.0192 301.8599 533.8392 301.6319 533.6472 C301.3439 533.7311 301.1999 533.7911 300.8279 533.9711 C300.972 534.2951 301.0199 534.4871 301.0199 534.7991 C301.0199 535.5311 300.8039 536.2991 300.3959 536.9951 C299.9279 537.7871 299.2679 538.3631 298.8239 538.3631 C298.5599 538.3631 298.3439 538.0511 298.3439 537.6431 C298.3439 537.0911 298.5359 536.4312 298.8719 535.8192 C299.1119 535.3992 299.34 535.0872 299.904 534.4391 C299.916 534.4031 299.916 534.3671 299.916 534.3552 C299.916 534.3192 299.916 534.3072 299.892 534.2231 L299.772 534.2231 C299.64 534.3792 299.508 534.4152 299.124 534.4152 L298.836 534.4152 C298.092 534.3792 297.972 534.3792 297.876 534.3792 C297.648 534.3792 297.528 534.4152 297.456 534.5112 C297.3 534.7032 297.108 535.2072 296.868 536.0591 L297.072 536.3112" id="path5756" xml:space="default" /><path d="M304.3578 539.0952 C304.8738 538.5311 305.0179 538.4352 305.3178 538.4352 C305.4378 538.4352 305.5938 538.4592 305.7858 538.5072 C306.6738 538.7112 307.8498 538.9272 308.0418 538.9272 C308.1378 538.9272 308.1978 538.9152 308.3178 538.8672 L309.3738 537.2832 L309.2778 537.0072 C308.5098 537.9792 308.4258 538.0632 308.1018 538.0632 C308.0418 538.0632 307.9578 538.0512 307.8498 538.0272 C307.0218 537.8832 306.3018 537.7752 305.7018 537.6792 L307.1778 536.3112 L308.2458 535.3152 L308.8458 534.7512 C309.1938 534.2232 309.3378 533.8152 309.3378 533.2872 C309.3378 532.5192 308.8458 532.0272 308.1018 532.0272 C307.4898 532.0272 306.8539 532.2552 306.3618 532.6632 C305.9298 532.9992 305.7018 533.4312 305.7018 533.9232 C305.7018 534.0192 305.7138 534.0792 305.7379 534.2112 L306.5898 534.3073 C306.4818 533.9833 306.4458 533.8152 306.4458 533.5992 C306.4458 532.9393 306.8418 532.5073 307.4418 532.5073 C308.0058 532.5073 308.4138 532.9993 308.4138 533.6833 C308.4138 534.0553 308.2938 534.4753 308.1018 534.7753 C307.8498 535.1833 307.5498 535.5073 306.6258 536.3713 C305.0778 537.8233 304.8978 538.0033 304.3098 538.7473 L304.3578 539.0953" id="path5758" xml:space="default" /><path d="M313.5793 531.9792 C312.7153 531.9792 311.7433 532.5792 311.1553 533.4672 C310.5913 534.3312 310.1473 535.8792 310.1473 537.0071 C310.1473 538.3032 310.6273 538.9752 311.5393 538.9752 C312.5713 538.9752 313.5073 538.3392 314.0593 537.2592 C314.5393 536.3472 314.8873 534.9072 314.8873 533.8992 C314.8873 532.6272 314.4433 531.9792 313.5793 531.9792 M312.9912 532.4832 C313.5313 532.4832 313.8432 533.1192 313.8432 534.2712 C313.8432 535.2313 313.5912 536.4672 313.2072 537.3912 C312.9073 538.1232 312.5112 538.5313 312.1032 538.5313 C311.5752 538.5313 311.1913 537.8472 311.1913 536.8873 C311.1913 536.2273 311.4193 534.8832 311.6592 534.1033 C311.9832 533.0233 312.4392 532.4833 312.9912 532.4833" id="path5760" xml:space="default" /><path d="M318.8527 531.9792 C317.9887 531.9792 317.0167 532.5792 316.4287 533.4672 C315.8647 534.3312 315.4207 535.8792 315.4207 537.0071 C315.4207 538.3032 315.9007 538.9752 316.8127 538.9752 C317.8447 538.9752 318.7807 538.3392 319.3327 537.2592 C319.8127 536.3472 320.1607 534.9072 320.1607 533.8992 C320.1607 532.6272 319.7167 531.9792 318.8527 531.9792 M318.2647 532.4832 C318.8047 532.4832 319.1167 533.1192 319.1167 534.2712 C319.1167 535.2313 318.8647 536.4672 318.4807 537.3912 C318.1807 538.1232 317.7847 538.5313 317.3767 538.5313 C316.8487 538.5313 316.4647 537.8472 316.4647 536.8873 C316.4647 536.2273 316.6927 534.8832 316.9327 534.1033 C317.2567 533.0233 317.7127 532.4833 318.2647 532.4833" id="path5762" xml:space="default" /><path d="M324.1262 531.9792 C323.2621 531.9792 322.2902 532.5792 321.7021 533.4672 C321.1382 534.3312 320.6942 535.8792 320.6942 537.0071 C320.6942 538.3032 321.1742 538.9752 322.0862 538.9752 C323.1182 538.9752 324.0541 538.3392 324.6061 537.2592 C325.0862 536.3472 325.4341 534.9072 325.4341 533.8992 C325.4341 532.6272 324.9901 531.9792 324.1261 531.9792 M323.5381 532.4832 C324.0781 532.4832 324.3901 533.1192 324.3901 534.2712 C324.3901 535.2313 324.1381 536.4672 323.7541 537.3912 C323.4541 538.1232 323.0581 538.5313 322.6501 538.5313 C322.1221 538.5313 321.7381 537.8472 321.7381 536.8873 C321.7381 536.2273 321.9661 534.8832 322.2061 534.1033 C322.5301 533.0233 322.9861 532.4833 323.5381 532.4833" id="path5764" xml:space="default" /></g><path d="M500.9046 247.896 L513.7626 410.0191" filter="url(#filter3828)" stroke="#797779" stroke-width="1.948297" stroke-linecap="round" transform="matrix(1, 0, 0, 1.053779, 0, -14.89589)" id="path3810" xml:space="default" style="fill:none;" /><path d="M513.5994 423.9996 C513.5994 423.9996 514.0709 423.4266 513.1613 425.6796 C512.3213 427.7604 509.5698 428.7471 509.5698 428.7471" filter="url(#filter3846)" stroke="url(#linearGradient5694)" stroke-width="2.026289" stroke-linecap="round" transform="matrix(1, 0, 0, 0.9742205, 0, 11.06605)" id="path3832" xml:space="default" nodetypes="css" style="fill:none;" /><path d="M498.8542 243.793 C498.8542 243.793 497.2945 241.7424 495.9917 240.9277 C494.4962 239.9925 492.3918 239.739 492.3918 239.739" filter="url(#filter3906)" stroke="#918E8E" stroke-width="2.8" id="path3896" xml:space="default" nodetypes="csc" style="fill:none;" /><path d="M266.6646 480.4588 L453.9448 443.0028" filter="url(#filter3966)" stroke="url(#linearGradient5696)" stroke-width="1px" id="path3952" xml:space="default" style="fill:none;" /><path d="M227.6955 294.563 L230.4627 288.6334 L237.5781 283.4945 L243.1124 281.9133" filter="url(#filter4052)" stroke="#000000" stroke-width="1.778049" transform="matrix(1.126263, 0, 0, 1.123396, -30.90863, -34.57913)" id="path4046" xml:space="default" style="fill:none;" /><path d="M243.1847 479.8998 L226.4134 297.651" filter="url(#filter4042)" stroke="#000000" stroke-width="2" id="path4032" xml:space="default" style="fill:none;" /><path d="M247.098 279.7615 L468.48 240.6284" filter="url(#filter3948)" stroke="url(#linearGradient5698)" stroke-width="1px" id="path3918" xml:space="default" style="fill:none;" /><path d="M218.0277 394.6454 A1.956659 3.074749 0 1 1 214.1143 394.6454 A1.956659 3.074749 0 1 1 218.0277 394.6454 z" filter="url(#filter4096)" display="inline" enable-background="accumulate" stroke="url(#linearGradient5700)" stroke-width="0.4997297" color="#000000" transform="matrix(-1.321429, 0, 0, 1.090909, 502.0826, -36.29613)" id="path4082" xml:space="default" type="arc" cx="216.07101" cy="394.64536" rx="1.9566586" ry="3.0747492" overflow="visible" marker="none" style="fill:#000000;" /><path d="M192.9248 505.504 C192.9248 506.1994 192.3513 506.7632 191.6438 506.7632 C190.9364 506.7632 190.3628 506.1994 190.3628 505.504 C190.3628 504.8086 190.9364 504.2448 191.6438 504.2448 C192.3513 504.2448 192.9248 504.8086 192.9248 505.504 z" display="inline" enable-background="accumulate" stroke-width="0.475807" color="#000000" id="path4110" xml:space="default" overflow="visible" marker="none" style="fill:#000000;" /><path d="M191.0209 505.6736 L183.1629 506.7593" marker-end="url(#Arrow2Send)" stroke="#000000" stroke-width="0.8" id="path4114" xml:space="default" style="fill:none;" /><path d="M187.7516 505.845 C187.7516 505.845 187.7785 504.3747 186.6813 504.2765 C185.8808 504.2049 184.7549 504.252 184.7549 504.252" marker-end="url(#SquareS)" stroke="#000000" stroke-width="0.8" id="path4564" xml:space="default" nodetypes="csc" style="fill:none;" /><path d="M188.9927 506.1593 C188.9927 506.1593 189.2231 507.4062 188.8716 507.9022 C188.3682 508.6126 186.6315 508.5594 186.6315 508.5594" marker-end="url(#DotS)" stroke="#000000" stroke-width="0.8" id="path5318" xml:space="default" nodetypes="csc" style="fill:none;" /><path d="M173.0446 496.5637 L175.0212 517.1196" stroke="#737375" stroke-width="0.3" id="path5526" xml:space="default" style="fill:none;" /><g font-family="Symbol" font-size="18px" font-style="normal" font-weight="400" transform="matrix(0.9079552, -0.1142531, 0.171376, 1.079811, 0, 0)" id="text5528" xml:space="default" font-stretch="normal" />

-inkscape-font-specification="Symbol" style="fill:#CFCFCF;"&gt;
        <path d="M333.8153 264.5651 L333.8153 261.0407 L330.9149 261.0407 L330.9149 259.5817 L335.5731 259.5817 L335.5731 265.2155 C334.8876 265.7018 334.1317 266.071 333.3055 266.3229 C332.4794 266.569 331.5975 266.6921 330.66 266.6921 C328.6093 266.6921 327.0038 266.0944 325.8436 264.8991 C324.6893 263.6979 324.1122 262.028 324.1122 259.8893 C324.1122 257.7448 324.6893 256.0749 325.8436 254.8796 C327.0038 253.6784 328.6093 253.0778 330.66 253.0778 C331.5155 253.0778 332.327 253.1833 333.0946 253.3942 C333.868 253.6052 334.58 253.9157 335.2303 254.3259 L335.2303 256.2155 C334.5741 255.6589 333.8768 255.2399 333.1385 254.9587 C332.4003 254.6774 331.6239 254.5368 330.8094 254.5368 C329.204 254.5368 327.9969 254.9851 327.1884 255.8815 C326.3856 256.778 325.9843 258.114 325.9843 259.8893 C325.9843 261.6589 326.3856 262.9919 327.1884 263.8884 C327.9969 264.7849 329.204 265.2331 330.8094 265.2331 C331.4364 265.2331 331.996 265.1804 332.4882 265.0749 C332.9803 264.9636 333.4227 264.7936 333.8153 264.5651" id="path5533" xml:space="default" /><path d="M346.3309 254.7741 L346.3309 259.7048 L348.5634 259.7048 C349.3895 259.7048 350.0282 259.4909 350.4794 259.0632 C350.9305 258.6354 351.1561 258.0261 351.1561 257.235 C351.1561 256.4499 350.9305 255.8435 350.4794 255.4157 C350.0282 254.988 349.3895 254.7741 348.5634 254.7741 L346.3309 254.7741 M344.5555 253.3151 L348.5634 253.3151 C350.0341 253.3151 351.1444 253.6491 351.8944 254.3171 C352.6503 254.9792 353.0282 255.9518 353.0282 257.235 C353.0282 258.53 352.6503 259.5085 351.8944 260.1706 C351.1444 260.8327 350.0341 261.1638 348.5634 261.1638 L346.3309 261.1638 L346.3309 266.4372 L344.5555 266.4372 L344.5555 253.3151" id="path5535" xml:space="default" /><path d="M369.0155 253.7458 L369.0155 255.4772 C368.3417 255.155 367.7059 254.9147 367.1083 254.7565 C366.5106 254.5983 365.9335 254.5192 365.3768 254.5192 C364.41 254.5192 363.663 254.7067 363.1356 255.0817 C362.6141 255.4567 362.3534 255.9899 362.3534 256.6813 C362.3534 257.2614 362.5262 257.7009 362.8719 257.9997 C363.2235 258.2927 363.8856 258.53 364.8583 258.7116 L365.9305 258.9313 C367.2548 259.1833 368.2303 259.6286 368.8573 260.2673 C369.4901 260.9001 369.8065 261.7497 369.8065 262.8161 C369.8065 264.0876 369.3788 265.0515 368.5233 265.7077 C367.6737 266.364 366.4257 266.6921 364.7792 266.6921 C364.1581 266.6921 363.496 266.6218 362.7928 266.4811 C362.0956 266.3405 361.3719 266.1325 360.6219 265.8571 L360.6219 264.029 C361.3427 264.4333 362.0487 264.738 362.7401 264.9431 C363.4315 265.1481 364.1112 265.2507 364.7792 265.2507 C365.7928 265.2507 366.5751 265.0515 367.1259 264.653 C367.6766 264.2546 367.952 263.6862 367.952 262.9479 C367.952 262.3034 367.7528 261.7995 367.3544 261.4362 C366.9618 261.0729 366.3143 260.8005 365.412 260.6188 L364.3309 260.4079 C363.0067 260.1442 362.0487 259.7311 361.4569 259.1686 C360.8651 258.6061 360.5692 257.8239 360.5692 256.822 C360.5692 255.6618 360.9764 254.7478 361.7909 254.0798 C362.6112 253.4118 363.7391 253.0778 365.1747 253.0778 C365.7899 253.0778 366.4169 253.1335 367.0555 253.2448 C367.6942 253.3562 368.3475 253.5231 369.0155 253.7458" id="path5537" xml:space="default" /></g><path d="M202.4506 90.3004 C202.1036 90.2181 201.8431 89.9483 201.7812 89.6072 C201.6287 88.766 202.7206 88.2486 203.2668 88.9033 L203.3872 89.0476 L203.7053 88.972 C204.0968 88.8789 204.3643 88.7448 204.4815 88.5829 C204.5583 88.4768 204.5725 88.3824 204.5849 87.8956 C204.598 87.3733 204.5929 87.3312 204.52 87.3296 C204.3109 87.3246 200.4821 87.8796 200.4821 87.9145 C200.4821 87.93639 200.5419 88.0526 200.615 88.1725 C200.6882 88.2924 200.7223 88.3808 200.6907 88.369 C200.6593 88.3571 200.1029 88.2318 199.4545 88.0904 C198.806 87.949 198.2757 87.8234 198.2759 87.8114 C198.2763 87.7878 198.3134 87.76711 199.5874 87.0846 C200.0591 86.8318 200.4517 86.63181 200.4597 86.64 C200.4677 86.648 200.4494 86.7532 200.4189 86.8732 C200.3656 87.0829 200.367 87.0919 200.4552 87.1034 C200.5533 87.1163 203.289 86.7403 203.3193 86.7098 C203.36 86.6688 203.2358 86.1638 203.1364 85.9659 C202.9893 85.6732 202.8179 85.6039 202.1586 85.57091 L201.6501 85.54561 L201.6501 85.7802 L201.6501 86.01491 L201.3364 86.03881 C201.1639 86.05191 200.7745 86.07361 200.4711 86.08681 L199.9195 86.11091 L199.9195 85.83351 C199.9195 85.68091 199.9069 85.29011 199.8914 84.96491 L199.8633 84.37381 L200.5079 84.34641 C200.8624 84.33141 201.2547 84.31281 201.3797 84.30521 L201.6068 84.29141 L201.6068 84.53871 L201.6068 84.78601 L202.2464 84.82931 C202.7811 84.86551 202.9253 84.89081 203.1254 84.98321 C203.5778 85.19211 203.8763 85.62571 204.007 86.26391 C204.0458 86.45361 204.0815 86.61161 204.0861 86.61501 C204.0911 86.6179 204.5834 86.55251 205.1809 86.4687 L206.2672 86.31621 L206.3393 86.08541 C206.4347 85.78021 206.7271 85.45321 207.0171 85.32731 C207.4707 85.13051 208.0414 85.23631 208.3679 85.57771 C208.6242 85.8457 208.7239 86.0863 208.7239 86.43681 C208.7239 86.7793 208.6264 87.02231 208.3848 87.2822 C207.9247 87.777 207.0682 87.7582 206.6079 87.2433 L206.4388 87.0541 L206.0022 87.1089 C205.762 87.1391 205.5094 87.1749 205.4408 87.1888 L205.3161 87.21381 L205.3445 87.592 C205.3779 88.0387 205.3176 88.5304 205.1949 88.8105 C204.9913 89.2756 204.4786 89.5949 203.7133 89.7335 C203.4722 89.7772 203.4272 89.8031 203.2612 89.9936 C203.0374 90.2502 202.7297 90.3668 202.4505 90.3005 L202.4505 90.3005 z" display="inline" enable-background="accumulate" stroke-width="2.5" color="#000000" id="path3820" xml:space="default" connector-curvature="0" style="fill:#B3B3B3;" /><path d="M83.3187 276.1138 C81.7397 274.0789 81.7088 269.1337 81.7088 269.1337 L73.7556 183.1998 L66.1977 95.2894 L68.1883 92.0125 C69.4618 89.9161 70.9498 88.3024 72.3187 87.533 C78.7757 83.904 80.3875 83.58569 202.9773 61.7308 C268.4606 50.0566 322.483 40.505 323.0269 40.505 C323.5707 40.505 325.6115 41.0053 327.5619 41.6168 C330.902 42.6638 331.2154 42.9128 332.9526 45.8983 L334.7969 49.0682 L341.2729 134.377 L347.7488 219.6858 L346.6825 222.2187 C345.7404 224.4565 345.1285 225.0078 341.4311 226.9504 C337.309 229.1162 335.4259 229.5216 215.9775 253.9589 C149.2798 267.6043 94.28936 278.739 93.77666 278.7027 C89.07307 279.2259 84.89777 278.1487 83.31866 276.1138 z" display="inline" enable-background="accumulate" stroke-width="0.5" color="#000000" id="path3691-0" xml:space="default" nodetypes="cccccsssscccccsscz" connector-curvature="0" marker="none" overflow="visible" style="fill:#FFF6D5;" /><path d="M296.3259 88.85393 C291.4449 88.23593 287.3396 87.61372 287.203 87.47133 C287.0025 87.26243 288.9872 62.48653 289.2719 61.64413 C289.3167 61.51203 291.1841 61.59853 293.422 61.83633 C295.6599 62.07413 300.8214 62.49773 304.8921 62.77773 L312.2933 63.28672 L312.7948 69.33972 C313.0707 72.66882 313.5442 78.71692 313.8469 82.77992 L314.3975 90.16732 L309.799 90.07232 C307.2698 90.02012 301.2069 89.47182 296.326 88.85382 L296.326 88.85382 z" display="inline" enable-background="accumulate" color="#000000" id="path3935" xml:space="default" connector-curvature="0" marker="none" overflow="visible" style="fill:#98C464;" /><path d="M229.4267 130.579 C223.2214 129.0144 220.5238 121.2963 224.318 115.9622 C228.0168 110.7623 233.8921 109.2536 239.3303 112.1073 C245.2368 115.2067 245.5709 124.1586 239.9291 128.153 C235.9923 130.9402 233.3135 131.5591 229.4268 130.579 L229.4268 130.579 z" display="inline" enable-background="accumulate" color="#000000" id="path3937" xml:space="default" connector-curvature="0" marker="none" overflow="visible" style="fill:#98C464;" /><path d="M122.9525 111.5244 C100.1237 105.773 111.4936 108.8376 107.759 107.122 C104.0244 105.4065 108.3063 100.4488 117.023 100.3648 C126.8086 100.2705 123.1355 100.1921 136.4042 100.4723 L161.2279 100.9818 L164.754 111.6864 C168.2832 121.8576 167.7974 122.1091 166.1601 122.0465 C165.2248 122.0108 145.7814 117.2758 122.9526 111.5244 z" display="inline" enable-background="accumulate" color="#000000" id="path3939" xml:space="default" nodetypes="czscccsc" connector-curvature="0" marker="none" overflow="visible" style="fill:#98C464;" /><path d="M92.57917 224.8031 C89.34617 224.0891 87.51237 222.2217 87.10687 219.2306 C86.42268 214.1835 82.27027 167.6926 82.43037 166.8718 C82.79227 165.0167 90.65028 182.7167 92.92538 190.5116 C96.50127 202.7634 98.98997 205.444 101.2497 210.2628 C103.8329 215.7714 104.22 216.0258 105.1702 219.2733 L106.2087 223.7263 L102.2297 224.2676 C97.28857 225.2024 94.96997 225.3311 92.57917 224.803 L92.57917 224.803 z" display="inline" enable-background="accumulate" stroke="#8CB2D8" stroke-width="0.9999999" stroke-linecap="round" color="#000000" id="path3943" xml:space="default" nodetypes="cssssccccc" connector-curvature="0" marker="none" overflow="visible" style="fill:#8CB2D8;" /><rect x="66.09389" y="220.1639" width="264.6191" height="42.79732" rx="12.47736" ry="12.47736" display="inline" enable-background="accumulate" opacity="0.37" color="#000000" transform="matrix(0.9801666, -0.1981753, 0.07459583, 0.9972138, 0, 0)" id="rect4080" xml:space="default" marker="none" overflow="visible" style="fill:#00FFFF;" /><g text-anchor="middle" font-family="'Arial Black'" font-size="12px" font-style="normal" font-weight="700" transform="rotate(-14.43081, -584.7634, 3873.928)" id="text4082" xml:space="default" text-align="center" font-stretch="normal" /><path d="M218.694 218.9693 L218.694 227.7056 L216.2799 227.7056 L216.2799 221.981 C215.8893 222.2779 215.5104 222.5181 215.1432 222.7017 C214.7799 222.8853 214.3229 223.0611 213.7721 223.229 L213.7721 221.272 C214.5846 221.0103 215.2154 220.6958 215.6647 220.3286 C216.1139 219.9615 216.4654 219.5083 216.7193 218.9693 L218.694 218.9693" id="path5031" xml:space="default" connector-curvature="0" /><path d="M225.5553 221.4829 L227.7818 221.4829 L227.7818 222.3911 C228.1022 222.0122 228.4244 221.7427 228.7486 221.5825 C229.0768 221.4224 229.4713 221.3423 229.9322 221.3423 C230.4283 221.3423 230.8209 221.4302 231.11 221.606 C231.399 221.7818 231.6354 222.0435 231.819 222.3911 C232.194 221.9849 232.5357 221.7095 232.8443 221.565 C233.1529 221.4165 233.5338 221.3423 233.9869 221.3423 C234.6549 221.3423 235.1764 221.5415 235.5514 221.94 C235.9264 222.3345 236.1139 222.9536 236.1139 223.7974 L236.1139 227.7056 L233.7232 227.7056 L233.7232 224.1607 C233.7232 223.8794 233.6686 223.6704 233.5592 223.5337 C233.399 223.3189 233.1998 223.2115 232.9615 223.2115 C232.6803 223.2115 232.4537 223.313 232.2818 223.5161 C232.11 223.7193 232.024 224.0454 232.024 224.4947 L232.024 227.7056 L229.6334 227.7056 L229.6334 224.2779 C229.6334 224.0044 229.6178 223.8189 229.5865 223.7212 C229.5357 223.565 229.4479 223.44 229.3229 223.3462 C229.1979 223.2485 229.0514 223.1997 228.8834 223.1997 C228.61 223.1997 228.3854 223.3032 228.2096 223.5103 C228.0338 223.7173 227.9459 224.0572 227.9459 224.5298 L227.9459 227.7056 L225.5553 227.7056 L225.5553 221.4829" id="path5033" xml:space="default" connector-curvature="0" /><path d="M237.6256 219.1157 L240.0104 219.1157 L240.0104 220.7388 L237.6256 220.7388 L237.6256 219.1157 M237.6256 221.4829 L240.0104 221.4829 L240.0104 227.7056 L237.6256 227.7056 L237.6256 221.4829" id="path5035" xml:space="default" connector-curvature="0" /><path d="M216.608 234.1157 L218.9986 234.1157 L218.9986 242.7056 L216.608 242.7056 L216.608 234.1157" id="path5037" xml:space="default" connector-curvature="0" /><path d="M227.442 240.1861 L222.6607 240.1861 C222.7038 240.5689 222.8072 240.854 222.9713 241.0415 C223.2018 241.3111 223.5025 241.4458 223.8736 241.4458 C224.108 241.4458 224.3307 241.3872 224.5416 241.27 C224.6705 241.1958 224.8092 241.065 224.9576 240.8775 L227.3072 241.0943 C226.9479 241.7193 226.5143 242.1685 226.0065 242.4418 C225.4986 242.7115 224.7701 242.8461 223.8209 242.8461 C222.9967 242.8461 222.3482 242.7309 221.8756 242.5004 C221.4029 242.266 221.0104 241.8969 220.6979 241.393 C220.3893 240.8852 220.235 240.2895 220.235 239.6059 C220.235 238.6332 220.5455 237.8461 221.1666 237.2446 C221.7916 236.6431 222.6529 236.3422 223.7506 236.3422 C224.6412 236.3422 225.3443 236.477 225.86 236.7465 C226.3756 237.016 226.7682 237.4067 227.0377 237.9184 C227.3072 238.4301 227.442 239.0961 227.442 239.9164 L227.442 240.1861 M225.0162 239.0435 C224.9693 238.5825 224.8443 238.2525 224.6412 238.0532 C224.442 237.854 224.1783 237.7544 223.8502 237.7544 C223.4713 237.7544 223.1686 237.9048 222.942 238.2056 C222.7975 238.3931 222.7057 238.6724 222.6666 239.0435 L225.0162 239.0435" id="path5039" xml:space="default" connector-curvature="0" /><path d="M231.2037 236.4829 L232.3404 236.4829 L232.3404 238.229 L231.2037 238.229 L231.2037 242.7056 L228.8131 242.7056 L228.8131 238.229 L227.9225 238.229 L227.9225 236.4829 L228.8131 236.4829 L228.8131 236.2017 C228.8131 235.9478 228.8404 235.6685 228.8951 235.3638 C228.9497 235.0591 229.0513 234.8111 229.1997 234.6197 C229.3521 234.4243 229.563 234.2681 229.8326 234.1509 C230.106 234.0298 230.5044 233.9693 231.0279 233.9693 C231.4458 233.9693 232.0533 234.0181 232.8501 234.1157 L232.5865 235.5572 C232.3013 235.5103 232.0708 235.4868 231.8951 235.4868 C231.6802 235.4868 231.5259 235.524 231.4322 235.5982 C231.3385 235.6685 231.272 235.7818 231.233 235.938 C231.2135 236.0239 231.2037 236.2056 231.2037 236.4829" id="path5041" xml:space="default" connector-curvature="0" /><path d="M236.0904 234.1157 L236.0904 236.4829 L237.4029 236.4829 L237.4029 238.2232 L236.0904 238.2232 L236.0904 240.4322 C236.0904 240.6978 236.1158 240.8736 236.1666 240.9595 C236.2447 241.0923 236.3815 241.1587 236.5768 241.1587 C236.7525 241.1587 236.9986 241.1079 237.315 241.0064 L237.4908 242.6529 C236.901 242.7818 236.3502 242.8462 235.8385 242.8462 C235.2447 242.8462 234.8072 242.77 234.526 242.6177 C234.2447 242.4654 234.0357 242.2349 233.899 241.9263 C233.7662 241.6138 233.6998 241.1098 233.6998 240.4146 L233.6998 238.2231 L232.8209 238.2231 L232.8209 236.4828 L233.6998 236.4828 L233.6998 235.3403 L236.0904 234.1156" id="path5043" xml:space="default" connector-curvature="0" /><g font-family="Arial Black" font-size="18px" font-style="normal" font-weight="700" transform="matrix(0.9824964, -0.1862816, 0.1862816, 0.9824964, 0, 0)" id="text4088" xml:space="default" /><path d="M231.4749 183.9297 L238.9281 183.9297 C240.1703 183.9297 241.1225 184.2374 241.7845 184.8526 C242.4525 185.4678 242.7865 186.2295 242.7865 187.1377 C242.7865 187.8995 242.5492 188.5528 242.0745 189.0977 C241.7581 189.461 241.2953 189.7481 240.6859 189.959 C241.6117 190.1817 242.2913 190.5655 242.7249 191.1104 C243.1644 191.6495 243.3841 192.3292 243.3841 193.1495 C243.3841 193.8174 243.2288 194.418 242.9183 194.9512 C242.6078 195.4844 242.1829 195.9063 241.6439 196.2168 C241.3099 196.4102 240.806 196.5508 240.1322 196.6387 C239.2357 196.7559 238.641 196.8145 238.348 196.8145 L231.4749 196.8145 L231.4749 183.9297 M235.4915 188.9835 L237.2231 188.9835 C237.8441 188.9835 238.2747 188.878 238.5151 188.667 C238.7612 188.4502 238.8842 188.1397 238.8842 187.7354 C238.8842 187.3604 238.7612 187.0674 238.5151 186.8565 C238.2748 186.6456 237.853 186.5401 237.2495 186.5401 L235.4916 186.5401 L235.4916 188.9835 M235.4916 194.046 L237.5219 194.046 C238.2075 194.046 238.6909 193.9258 238.9721 193.6856 C239.2534 193.4395 239.394 193.1114 239.394 192.7012 C239.394 192.3204 239.2534 192.0157 238.9721 191.7872 C238.6967 191.5528 238.2104 191.4356 237.5131 191.4356 L235.4916 191.4356 L235.4916 194.046" id="path5014" xml:space="default" connector-curvature="0" /><path d="M248.4819 190.504 L245.0629 190.1436 C245.1918 189.546 245.3764 189.0772 245.6165 188.7374 C245.8626 188.3917 246.2142 188.0928 246.6712 187.8409 C246.9995 187.6592 247.4505 187.5186 248.0247 187.419 C248.599 187.3194 249.2202 187.2696 249.888 187.2696 C250.9603 187.2696 251.8216 187.3311 252.472 187.4542 C253.1225 187.5713 253.6644 187.8204 254.0981 188.2012 C254.4028 188.4649 254.643 188.8399 254.8188 189.3262 C254.9946 189.8067 255.0825 190.2667 255.0825 190.7061 L255.0825 194.8282 C255.0825 195.2676 255.1089 195.6133 255.1616 195.8653 C255.2202 196.1114 255.3432 196.4278 255.5307 196.8145 L252.1732 196.8145 C252.0385 196.5743 251.9505 196.3926 251.9095 196.2696 C251.8685 196.1407 251.8275 195.9415 251.7865 195.6719 C251.3177 196.1231 250.8519 196.4454 250.389 196.6387 C249.7562 196.8965 249.0208 197.0254 248.1829 197.0254 C247.0697 197.0254 246.223 196.7676 245.6429 196.252 C245.0687 195.7364 244.7816 195.1006 244.7816 194.3448 C244.7816 193.6358 244.9896 193.0528 245.4056 192.5958 C245.8216 192.1387 246.5892 191.7989 247.7083 191.5762 C249.0501 191.3067 249.9203 191.1192 250.3187 191.0137 C250.7171 190.9024 251.139 190.7588 251.5843 190.5831 C251.5843 190.1436 251.4935 189.836 251.3119 189.6602 C251.1302 189.4844 250.8109 189.3965 250.3538 189.3965 C249.7679 189.3965 249.3285 189.4902 249.0355 189.6778 C248.807 189.8243 248.6224 190.0997 248.4818 190.504 M251.5843 192.3848 C251.0921 192.5606 250.5794 192.7159 250.0462 192.8506 C249.3197 193.044 248.8597 193.2344 248.6663 193.4219 C248.4671 193.6153 248.3675 193.835 248.3675 194.0811 C248.3675 194.3624 248.4642 194.5938 248.6576 194.7754 C248.8568 194.9512 249.1468 195.0391 249.5277 195.0391 C249.9261 195.0391 250.2953 194.9424 250.6351 194.7491 C250.9809 194.5557 251.224 194.3213 251.3647 194.046 C251.5112 193.7647 251.5844 193.4014 251.5844 192.9561 L251.5844 192.3848" id="path5016" xml:space="default" connector-curvature="0" /><path d="M257.2445 183.9297 L260.9007 183.9297 L260.9007 190.5743 L263.5726 187.4805 L267.9759 187.4805 L264.6273 190.7502 L268.1693 196.8146 L264.1351 196.8146 L262.2454 193.0705 L260.9007 194.3888 L260.9007 196.8146 L257.2445 196.8146 L257.2445 183.9298" id="path5018" xml:space="default" connector-curvature="0" /><path d="M279.0327 193.0352 L271.8607 193.0352 C271.9251 193.6094 272.0804 194.0372 272.3265 194.3184 C272.6722 194.7227 273.1234 194.9249 273.68 194.9249 C274.0316 194.9249 274.3656 194.837 274.682 194.6612 C274.8753 194.5499 275.0833 194.3536 275.306 194.0723 L278.8304 194.3975 C278.2914 195.335 277.6411 196.0088 276.8792 196.419 C276.1176 196.8233 275.0247 197.0254 273.601 197.0254 C272.3647 197.0254 271.3919 196.8526 270.683 196.5069 C269.9741 196.1553 269.3852 195.6016 268.9164 194.8458 C268.4536 194.084 268.222 193.1905 268.222 192.1651 C268.222 190.7061 268.6878 189.5255 269.6195 188.6231 C270.557 187.7208 271.849 187.2696 273.4954 187.2696 C274.8314 187.2696 275.8861 187.4717 276.6595 187.876 C277.4329 188.2803 278.0218 188.8663 278.4261 189.6338 C278.8304 190.4014 279.0326 191.4004 279.0326 192.6309 L279.0326 193.0352 M275.3939 191.3213 C275.3236 190.6299 275.1361 190.1348 274.8314 189.836 C274.5326 189.5372 274.137 189.3877 273.6449 189.3877 C273.0765 189.3877 272.6224 189.6133 272.2826 190.0645 C272.0658 190.3458 271.9281 190.7647 271.8695 191.3213 L275.394 191.3213" id="path5020" xml:space="default" connector-curvature="0" /><path d="M280.7289 187.4805 L284.0775 187.4805 L284.0775 189.0098 C284.3997 188.3477 284.7308 187.8936 285.0706 187.6475 C285.4164 187.3956 285.8412 187.2696 286.3452 187.2696 C286.8725 187.2696 287.4496 187.4336 288.0766 187.7618 L286.9692 190.3106 C286.5473 190.1348 286.2133 190.0469 285.9672 190.0469 C285.4985 190.0469 285.1352 190.2403 284.8773 190.627 C284.5081 191.1719 284.3236 192.1915 284.3236 193.6856 L284.3236 196.8145 L280.7289 196.8145 L280.7289 187.4805" id="path5022" xml:space="default" connector-curvature="0" /><path d="M294.2289 192.5518 L298.0169 192.3145 C298.0989 192.9297 298.2661 193.3985 298.5179 193.7208 C298.9281 194.2422 299.514 194.503 300.2758 194.503 C300.8441 194.503 301.2807 194.3711 301.5854 194.1075 C301.8958 193.8379 302.0511 193.5274 302.0511 193.1758 C302.0511 192.8418 301.9046 192.543 301.6118 192.2793 C301.3188 192.0157 300.6391 191.7667 299.5727 191.5323 C297.8266 191.1397 296.5815 190.6182 295.8372 189.9678 C295.0872 189.3174 294.7122 188.4883 294.7122 187.4805 C294.7122 186.8184 294.9027 186.1944 295.2835 185.6085 C295.6703 185.0167 296.2474 184.5538 297.015 184.2198 C297.7885 183.8799 298.846 183.71 300.1878 183.71 C301.8344 183.71 303.0882 184.0176 303.9495 184.6329 C304.8167 185.2422 305.3324 186.2149 305.4964 187.5508 L301.7435 187.7706 C301.6439 187.1906 301.4329 186.7686 301.1107 186.5049 C300.7943 186.2413 300.3548 186.1095 299.7923 186.1095 C299.3294 186.1095 298.9808 186.209 298.7464 186.4084 C298.512 186.6017 298.3949 186.839 298.3949 187.1203 C298.3949 187.3253 298.4915 187.5099 298.6849 187.674 C298.8724 187.8439 299.3177 188.002 300.0208 188.1485 C301.7611 188.5235 303.0063 188.9043 303.7563 189.2911 C304.5121 189.6719 305.06 190.1465 305.3997 190.7149 C305.7455 191.2833 305.9183 191.919 305.9183 192.6221 C305.9183 193.4483 305.6898 194.21 305.2328 194.9073 C304.7758 195.6045 304.1371 196.1348 303.3167 196.4981 C302.4964 196.8555 301.4622 197.0342 300.2142 197.0342 C298.0228 197.0342 296.5052 196.6124 295.6615 195.7686 C294.8177 194.9249 294.3402 193.8526 294.2288 192.5518" id="path5024" xml:space="default" connector-curvature="0" /><path d="M312.0092 183.9297 L312.0092 187.4805 L313.978 187.4805 L313.978 190.0909 L312.0092 190.0909 L312.0092 193.4043 C312.0092 193.8028 312.0472 194.0665 312.1234 194.1954 C312.2406 194.3946 312.4456 194.4942 312.7386 194.4942 C313.0023 194.4942 313.3715 194.418 313.846 194.2657 L314.1097 196.7354 C313.2249 196.9288 312.3988 197.0254 311.6313 197.0254 C310.7407 197.0254 310.0844 196.9112 309.6624 196.6827 C309.2406 196.4542 308.9272 196.1085 308.722 195.6456 C308.5229 195.1768 308.4232 194.421 308.4232 193.378 L308.4232 190.0909 L307.1049 190.0909 L307.1049 187.4805 L308.4232 187.4805 L308.4232 185.7667 L312.0092 183.9297" id="path5026" xml:space="default" connector-curvature="0" /><path d="M315.683 193.2286 L319.5063 193.2286 L319.5063 196.8145 L315.683 196.8145 L315.683 193.2286" id="path5028" xml:space="default" connector-curvature="0" /></g></svg>