<?xml version="1.0" encoding="utf-8"?>
<!DOCTYPE svg PUBLIC "-//W3C//DTD SVG 1.1//EN" "http://www.w3.org/Graphics/SVG/1.1/DTD/svg11.dtd">
<svg x="0" y="0" width="48" height="48" overflow="hidden" viewBox="0, 0, 48, 48" preserveAspectRatio="xMidYMid" font-size="0" id="svg" xml:space="default" xmlns="http://www.w3.org/2000/svg" xmlns:xlink="http://www.w3.org/1999/xlink" xmlns:xml="http://www.w3.org/XML/1998/namespace" version="1.1">
  <defs id="def1" xml:space="default">
    <linearGradient x1="0%" y1="0%" x2="100%" y2="0%" gradientUnits="objectBoundingBox" id="linearGradient3057" xml:space="default">
      <stop offset="0%" stop-color="#282828" stop-opacity="1" id="stop3059" xml:space="default" />
      <stop offset="100%" stop-color="#282828" stop-opacity="0" id="stop3061" xml:space="default" />
    </linearGradient>
    <linearGradient x1="0%" y1="0%" x2="100%" y2="0%" gradientUnits="objectBoundingBox" id="linearGradient2834" xml:space="default">
      <stop offset="0%" stop-color="#FFE19C" stop-opacity="1" id="stop2836" xml:space="default" />
      <stop offset="100%" stop-color="#B79E4F" stop-opacity="0" id="stop2838" xml:space="default" />
    </linearGradient>
    <linearGradient x1="0%" y1="0%" x2="100%" y2="0%" gradientUnits="objectBoundingBox" id="linearGradient2780" xml:space="default">
      <stop offset="0%" stop-color="#FFFFFF" stop-opacity="1" id="stop2782" xml:space="default" />
      <stop offset="100%" stop-color="#FFFFFF" stop-opacity="0" id="stop2784" xml:space="default" />
    </linearGradient>
    <linearGradient x1="0%" y1="0%" x2="100%" y2="0%" gradientUnits="objectBoundingBox" id="linearGradient2713" xml:space="default">
      <stop offset="0%" stop-color="#000000" stop-opacity="1" id="stop2715" xml:space="default" />
      <stop offset="100%" stop-color="#FFFFFF" stop-opacity="1" id="stop2717" xml:space="default" />
    </linearGradient>
    <linearGradient x1="0%" y1="0%" x2="100%" y2="0%" gradientUnits="objectBoundingBox" id="linearGradient2701" xml:space="default">
      <stop offset="0%" stop-color="#A47C44" stop-opacity="1" id="stop2703" xml:space="default" />
      <stop offset="75%" stop-color="#BAA363" stop-opacity="1" id="stop2770" xml:space="default" />
      <stop offset="100%" stop-color="#D6C795" stop-opacity="1" id="stop2705" xml:space="default" />
    </linearGradient>
    <linearGradient x1="58.97091" y1="121.456" x2="88.46559" y2="121.456" spreadMethod="reflect" gradientUnits="userSpaceOnUse" xlink:href="#linearGradient2701" gradientTransform="scale(1.102327, 0.9071723)" id="linearGradient2707" xml:space="default" />
    <linearGradient x1="59.72322" y1="106.155" x2="59.72322" y2="108.0445" spreadMethod="reflect" gradientUnits="userSpaceOnUse" xlink:href="#linearGradient2713" gradientTransform="scale(1.102327, 0.9071723)" id="linearGradient2732" xml:space="default" />
    <linearGradient x1="49.99733" y1="101.433" x2="50.69047" y2="105.2106" spreadMethod="reflect" gradientUnits="userSpaceOnUse" xlink:href="#linearGradient2713" gradientTransform="scale(1.102327, 0.9071723)" id="linearGradient2736" xml:space="default" />
    <radialGradient cx="20.3606" cy="22.5464" r="15.1566" fx="20.3606" fy="22.5464" gradientUnits="userSpaceOnUse" xlink:href="#linearGradient2780" gradientTransform="translate(0.333333, 0)" id="radialGradient2811" xml:space="default" />
    <radialGradient cx="20.3606" cy="22.5464" r="15.1566" fx="20.3606" fy="22.5464" gradientUnits="userSpaceOnUse" xlink:href="#linearGradient2780" gradientTransform="translate(0.333333, 0)" id="radialGradient2813" xml:space="default" />
    <radialGradient cx="20.3606" cy="22.5464" r="15.1566" fx="20.3606" fy="22.5464" gradientUnits="userSpaceOnUse" xlink:href="#linearGradient2780" gradientTransform="translate(0.333333, 0)" id="radialGradient2815" xml:space="default" />
    <radialGradient cx="20.3606" cy="22.5464" r="15.1566" fx="20.3606" fy="22.5464" gradientUnits="userSpaceOnUse" xlink:href="#linearGradient2780" gradientTransform="translate(0.333333, 0)" id="radialGradient2817" xml:space="default" />
    <radialGradient cx="20.3606" cy="22.5464" r="15.1566" fx="20.3606" fy="22.5464" gradientUnits="userSpaceOnUse" xlink:href="#linearGradient2780" gradientTransform="translate(0.333333, 0)" id="radialGradient2819" xml:space="default" />
    <radialGradient cx="20.3606" cy="22.5464" r="15.1566" fx="20.3606" fy="22.5464" gradientUnits="userSpaceOnUse" xlink:href="#linearGradient2780" gradientTransform="translate(0.333333, 0)" id="radialGradient2821" xml:space="default" />
    <radialGradient cx="21.5951" cy="8.98135" r="6.06789" fx="21.5951" fy="8.98135" gradientUnits="userSpaceOnUse" xlink:href="#linearGradient2834" gradientTransform="translate(0.333333, 0)" id="radialGradient2869" xml:space="default" />
    <radialGradient cx="21.5951" cy="8.98135" r="6.06789" fx="21.5951" fy="8.98135" gradientUnits="userSpaceOnUse" xlink:href="#linearGradient2834" gradientTransform="translate(0.333333, 0)" id="radialGradient2873" xml:space="default" />
    <linearGradient x1="66.70271" y1="64.49638" x2="66.70271" y2="-9.665455" gradientUnits="userSpaceOnUse" xlink:href="#linearGradient2780" gradientTransform="scale(1.094332, 0.9137991)" id="linearGradient2895" xml:space="default" />
    <linearGradient x1="68.40322" y1="62.4551" x2="68.40322" y2="-16.44373" gradientUnits="userSpaceOnUse" xlink:href="#linearGradient2780" gradientTransform="scale(1.069556, 0.9349678)" id="linearGradient2935" xml:space="default" />
    <linearGradient x1="78.77003" y1="29.85843" x2="78.77003" y2="25.81225" gradientUnits="userSpaceOnUse" xlink:href="#linearGradient2780" gradientTransform="scale(0.8197749, 1.219847)" id="linearGradient2943" xml:space="default" />
    <linearGradient x1="78.79362" y1="32.77817" x2="81.53205" y2="22.55632" gradientUnits="userSpaceOnUse" xlink:href="#linearGradient2780" gradientTransform="scale(0.8135446, 1.229189)" id="linearGradient2951" xml:space="default" />
    <radialGradient cx="21.5951" cy="8.98135" r="6.06789" fx="21.5951" fy="8.98135" gradientUnits="userSpaceOnUse" xlink:href="#linearGradient2834" gradientTransform="translate(0.333333, 0)" id="radialGradient2955" xml:space="default" />
    <radialGradient cx="21.5951" cy="8.98135" r="6.06789" fx="21.5951" fy="8.98135" gradientUnits="userSpaceOnUse" xlink:href="#linearGradient2834" gradientTransform="translate(0.333333, 0)" id="radialGradient2959" xml:space="default" />
    <radialGradient cx="8.01784" cy="231.983" r="7.48331" fx="8.01784" fy="231.983" gradientUnits="userSpaceOnUse" xlink:href="#linearGradient3057" gradientTransform="translate(0.333333, 0)" id="radialGradient3063" xml:space="default" />
    <radialGradient cx="8.01784" cy="231.983" r="7.48331" fx="8.01784" fy="231.983" gradientUnits="userSpaceOnUse" xlink:href="#linearGradient3057" gradientTransform="translate(0.333333, 0)" id="radialGradient3069" xml:space="default" />
    <radialGradient cx="8.01784" cy="231.983" r="7.48331" fx="8.01784" fy="231.983" gradientUnits="userSpaceOnUse" xlink:href="#linearGradient3057" gradientTransform="translate(0.333333, 0)" id="radialGradient3071" xml:space="default" />
    <linearGradient x1="37.51063" y1="223.9965" x2="37.51063" y2="153.2759" gradientUnits="userSpaceOnUse" xlink:href="#linearGradient2780" gradientTransform="scale(1.634269, 0.6118942)" id="linearGradient3080" xml:space="default" />
    <linearGradient x1="73.81441" y1="15.15346" x2="73.81441" y2="35.13416" gradientUnits="userSpaceOnUse" xlink:href="#linearGradient2780" gradientTransform="scale(0.8132125, 1.229691)" id="linearGradient3084" xml:space="default" />
    <linearGradient x1="36.75386" y1="134.4893" x2="36.23748" y2="139.2118" spreadMethod="reflect" gradientUnits="userSpaceOnUse" xlink:href="#linearGradient2713" gradientTransform="scale(1.102327, 0.9071723)" id="linearGradient3086" xml:space="default" />
  </defs>
  <g transform="matrix(0.2911398, 0, 0, 0.338948, -45.39949, -36.10567)" id="g82" xml:space="default">
    <title id="title45" xml:space="default">Layer 1</title>
    <g transform="rotate(46.904, 254.692, 165.783)" id="svg_1" xml:space="default">
      <g transform="rotate(43.4497, 254.692, 162.071)" id="layer2" xml:space="default">
        <path d="M254.6923 98.66666 C234.6203 98.66666 218.4613 114.8257 218.4613 134.8977 L218.4613 175.1537 L228.5253 175.1537 L228.5253 134.8977 C228.5253 120.4007 240.1963 108.7308 254.6923 108.7308 C269.1884 108.7308 280.8593 120.4007 280.8593 134.8977 L280.8593 175.1537 L290.9233 175.1537 L290.9233 134.8977 C290.9233 114.8257 274.7643 98.66667 254.6923 98.66667 z" fill-rule="evenOdd" stroke-width="0.625" stroke-linecap="round" stroke-linejoin="round" id="rect2723" xml:space="default" connector-curvature="0" style="fill:#282828;" />
        <path d="M254.6923 101.2959 C235.7353 101.2959 220.4743 117.6027 220.4743 136.2047 L220.4743 173.7327 C220.4743 187.8227 229.2504 199.7827 241.7353 204.7807 C232.7903 200.7077 226.5133 191.9807 226.5133 181.6337 L226.5133 134.2297 C226.5133 120.0047 238.1833 107.6084 252.6793 107.6084 L256.7053 107.6084 C271.2014 107.6084 282.8723 120.0047 282.8723 134.2297 L282.8723 181.6337 C282.8723 191.9807 276.5953 200.7077 267.6503 204.7807 C280.1343 199.7827 288.9103 187.8227 288.9103 173.7327 L288.9103 136.2047 C288.9103 117.6027 273.6494 101.2959 254.6923 101.2959 z" fill-rule="evenOdd" stroke-width="0.625" stroke-linecap="round" stroke-linejoin="round" opacity="0.65" id="path3082" xml:space="default" connector-curvature="0" style="fill:url(#linearGradient3084);" />
        <path d="M254.6923 99.52056 C235.1823 99.52056 219.4753 115.1217 219.4753 134.5007 L219.4753 173.5957 C219.4753 188.2727 228.5083 200.7327 241.3563 205.9397 C232.1503 201.6967 225.6903 192.6047 225.6903 181.8267 L225.6903 132.4427 C225.6903 117.6237 237.7013 103.3606 252.6213 103.3606 L256.7643 103.3606 C271.6833 103.3606 283.6943 117.6237 283.6943 132.4427 L283.6943 181.8267 C283.6943 192.6047 277.2343 201.6967 268.0284 205.9397 C280.8763 200.7327 289.9093 188.2727 289.9093 173.5957 L289.9093 134.5007 C289.9093 115.1217 274.2023 99.52056 254.6923 99.52056 z" fill-rule="evenOdd" stroke-width="0.625" stroke-linecap="round" stroke-linejoin="round" opacity="0.5" id="path2931" xml:space="default" connector-curvature="0" style="fill:url(#linearGradient2951);" />
        <path d="M239.8043 108.6699 C234.3653 112.0751 231.3053 117.8797 231.9043 119.8147 C232.5503 121.8997 236.3713 112.5815 247.1873 109.6956 C255.5283 107.4704 247.1873 104.0469 239.8043 108.6699 z" fill-rule="evenOdd" stroke-width="1px" opacity="0.8" id="path2861" xml:space="default" connector-curvature="0" style="fill:url(#radialGradient2869);" />
        <path d="M269.5813 108.5698 C275.0193 111.975 278.0793 117.7797 277.4803 119.7147 C276.8344 121.7997 273.0133 112.4814 262.1974 109.5955 C253.8563 107.3703 262.1974 103.9468 269.5813 108.5698 z" fill-rule="evenOdd" stroke-width="1px" opacity="0.8" id="path2871" xml:space="default" connector-curvature="0" style="fill:url(#radialGradient2873);" />
        <path d="M254.6923 102.9461 C235.7353 102.9461 220.4743 115.9407 220.4743 134.8977 L220.4743 173.1417 C220.4743 187.4987 229.2504 199.6877 241.7353 204.7807 C232.7903 200.6297 226.5133 191.7367 226.5133 181.1927 L226.5133 132.8847 C226.5133 118.3887 238.1833 106.7025 252.6793 106.7025 L256.7053 106.7025 C271.2014 106.7025 282.8723 118.3887 282.8723 132.8847 L282.8723 181.1927 C282.8723 191.7367 276.5953 200.6297 267.6503 204.7807 C280.1343 199.6877 288.9103 187.4987 288.9103 173.1417 L288.9103 134.8977 C288.9103 115.9407 273.6494 102.9461 254.6923 102.9461 z" fill-rule="evenOdd" stroke-width="0.625" stroke-linecap="round" stroke-linejoin="round" opacity="0.5" id="rect2875" xml:space="default" connector-curvature="0" style="fill:url(#linearGradient2943);" />
        <path d="M254.6923 100.7056 C227.9303 100.7056 221.7553 124.0207 221.7553 134.5657 C221.7553 166.1997 223.8133 166.1997 223.8133 134.5657 C223.8133 111.3671 240.2763 102.2109 254.6923 102.2109 C269.1083 102.2109 285.5714 112.3135 285.5714 134.5657 C285.5714 166.1997 287.6303 166.1997 287.6303 134.5657 C287.6303 124.0207 281.4543 100.7056 254.6923 100.7056 z" fill-rule="evenOdd" stroke-width="0.625" stroke-linecap="round" stroke-linejoin="round" opacity="0.8" id="path2933" xml:space="default" connector-curvature="0" style="fill:url(#linearGradient2935);" />
        <path d="M254.6923 103.758 C228.5253 103.758 222.4873 126.0577 222.4873 135.7457 C222.4873 164.8077 224.5003 164.8077 224.5003 135.7457 C224.5003 114.4337 240.5963 105.1409 254.6923 105.1409 C268.7883 105.1409 284.8853 115.3027 284.8853 135.7457 C284.8853 164.8077 286.8973 164.8077 286.8973 135.7457 C286.8973 126.0577 280.8593 103.758 254.6923 103.758 z" fill-rule="evenOdd" stroke-width="0.625" stroke-linecap="round" stroke-linejoin="round" opacity="0.6" id="path2885" xml:space="default" connector-curvature="0" style="fill:url(#linearGradient2895);" />
        <path d="M227.3133 113.1547 C224.4373 118.4027 230.3403 115.0857 231.7113 113.4277 C235.5653 108.769 242.0783 105.3918 247.7963 104.2895 C252.5903 103.3652 253.3213 101.5138 249.3733 101.2074 C241.5013 100.5963 230.0693 108.1229 227.3133 113.1547 z" fill-rule="evenOdd" stroke-width="1px" opacity="0.8" id="path2897" xml:space="default" connector-curvature="0" style="fill:#FFFFFF;" />
        <path d="M222.9563 121.8227 C223.2613 124.3867 228.2203 116.0247 232.1243 112.0986 C236.8923 107.3038 244.1203 103.9478 247.5983 103.5044 C253.7963 102.7139 250.8543 99.67636 246.9693 100.4438 C232.8493 103.233 222.1793 115.2827 222.9563 121.8227 z" fill-rule="evenOdd" stroke-width="1px" opacity="0.6" id="path2901" xml:space="default" connector-curvature="0" style="fill:#FFFFFF;" />
        <path d="M281.9133 113.1187 C284.8073 118.3557 278.8933 115.0607 277.5164 113.4087 C273.6454 108.7635 267.1194 105.4102 261.3973 104.3291 C256.5993 103.4224 255.2493 101.5769 259.1964 101.2559 C267.0663 100.6159 279.1383 108.0972 281.9133 113.1187 z" fill-rule="evenOdd" stroke-width="1px" opacity="0.8" id="path2909" xml:space="default" connector-curvature="0" style="fill:#FFFFFF;" />
        <path d="M286.1313 121.5917 C285.8363 124.1577 280.8474 115.8127 276.9283 111.9015 C272.1423 107.1242 264.9023 103.7949 261.4233 103.3643 C255.2223 102.5966 258.1303 99.66906 262.0403 100.302 C276.1813 102.6035 286.8843 115.0487 286.1313 121.5917 z" fill-rule="evenOdd" stroke-width="1px" opacity="0.6" id="path2911" xml:space="default" connector-curvature="0" style="fill:#FFFFFF;" />
        <path d="M239.3653 107.805 C232.2763 111.854 228.2863 118.7567 229.0673 121.0567 C229.9093 123.5357 234.8903 112.456 248.9903 109.0246 C259.8633 106.3787 248.9903 102.3081 239.3653 107.805 z" fill-rule="evenOdd" stroke-width="1px" opacity="0.4" id="path2953" xml:space="default" connector-curvature="0" style="fill:url(#radialGradient2955);" />
        <path d="M269.8734 107.612 C276.4143 111.7301 280.0953 118.7507 279.3743 121.0907 C278.5984 123.6117 274.0023 112.3424 260.9933 108.8525 C250.9623 106.1614 260.9944 102.0213 269.8734 107.612 z" fill-rule="evenOdd" stroke-width="1px" opacity="0.4" id="path2957" xml:space="default" connector-curvature="0" style="fill:url(#radialGradient2959);" />
        <path d="M311.0513 221.4487 C311.0513 223.6727 285.8183 225.4747 254.6923 225.4747 C223.5663 225.4747 198.3333 223.6727 198.3333 221.4487 C198.3333 219.2257 223.5663 217.4237 254.6923 217.4237 C285.8183 217.4237 311.0513 219.2257 311.0513 221.4487 z" fill-rule="evenOdd" stroke-width="0.625" stroke-linecap="round" stroke-linejoin="round" opacity="0.4" id="path3055" xml:space="default" connector-curvature="0" style="fill:url(#radialGradient3063);" />
        <path d="M311.0513 218.4297 C311.0513 221.2087 285.8183 223.4617 254.6923 223.4617 C223.5663 223.4617 198.3333 221.2087 198.3333 218.4297 C198.3333 215.6507 223.5663 213.3977 254.6923 213.3977 C285.8183 213.3977 311.0513 215.6507 311.0513 218.4297 z" fill-rule="evenOdd" stroke-width="0.625" stroke-linecap="round" stroke-linejoin="round" opacity="0.4" id="path3065" xml:space="default" connector-curvature="0" style="fill:url(#radialGradient3071);" />
        <path d="M311.0513 219.4367 C311.0513 221.6597 285.8183 223.4617 254.6923 223.4617 C223.5663 223.4617 198.3333 221.6597 198.3333 219.4367 C198.3333 217.2127 223.5663 215.4107 254.6923 215.4107 C285.8183 215.4107 311.0513 217.2127 311.0513 219.4367 z" fill-rule="evenOdd" stroke-width="0.625" stroke-linecap="round" stroke-linejoin="round" opacity="0.4" id="path3067" xml:space="default" connector-curvature="0" style="fill:url(#radialGradient3069);" />
      </g>
      <g id="layer1" xml:space="default">
        <rect x="204.436" y="188.026" width="80.513" height="66.2591" rx="0.5" ry="0.5" fill-rule="evenOdd" stroke-width="0.625" stroke-linecap="round" stroke-linejoin="round" id="rect1941" xml:space="default" style="fill:url(#linearGradient2707);" />
        <rect x="204.436" y="188.026" width="80.513" height="66.2591" rx="0.5" ry="0.5" fill-rule="evenOdd" stroke-width="0.625" stroke-linecap="round" stroke-linejoin="round" opacity="0.02999998" id="rect2709" xml:space="default" style="fill:url(#linearGradient2732);" />
        <rect x="204.436" y="188.026" width="80.513" height="66.2591" rx="0.5" ry="0.5" fill-rule="evenOdd" stroke-width="0.625" stroke-linecap="round" stroke-linejoin="round" opacity="0.02999998" id="rect2734" xml:space="default" style="fill:url(#linearGradient2736);" />
        <rect x="204.436" y="188.026" width="80.513" height="66.2591" rx="0.5" ry="0.5" fill-rule="evenOdd" stroke-width="0.625" stroke-linecap="round" stroke-linejoin="round" opacity="0.02999998" id="rect2738" xml:space="default" style="fill:url(#linearGradient3086);" />
        <path d="M206.9523 188.0257 C208.7623 190.1477 225.0973 191.8117 245.6073 191.8117 C265.8363 191.8117 281.9003 190.1647 284.0913 188.0847 C284.0603 188.0817 284.0653 188.0257 284.0343 188.0257 z" fill-rule="evenOdd" stroke-width="0.625" stroke-linecap="round" stroke-linejoin="round" opacity="0.5" id="path2727" xml:space="default" connector-curvature="0" style="fill:#FFFFFF;" />
        <g id="g2798" xml:space="default">
          <path d="M208.7773 193.1217 C208.0223 198.3327 207.1773 231.3847 209.9753 238.4607 C212.7123 245.3837 212.3703 205.4347 219.0423 199.1457 C225.7843 192.7917 209.4903 188.2077 208.7773 193.1217 z" fill-rule="evenOdd" stroke-width="1px" opacity="0.402778" id="path2778" xml:space="default" connector-curvature="0" style="fill:url(#radialGradient2817);" />
          <path d="M208.3603 193.4687 C207.4883 199.5517 206.5133 238.1367 209.7423 246.3977 C212.9013 254.4787 212.5063 207.8417 220.2063 200.5007 C227.9863 193.0827 209.1833 187.7307 208.3603 193.4687 z" fill-rule="evenOdd" stroke-width="1px" opacity="0.3" id="path2790" xml:space="default" connector-curvature="0" style="fill:url(#radialGradient2819);" />
          <path d="M207.5063 193.7667 C206.4223 200.6007 205.2103 243.9507 209.2233 253.2317 C213.1483 262.3117 212.6573 209.9147 222.2253 201.6677 C231.8933 193.3327 208.5283 187.3207 207.5063 193.7667 z" fill-rule="evenOdd" stroke-width="1px" opacity="0.2" id="path2794" xml:space="default" connector-curvature="0" style="fill:url(#radialGradient2821);" />
        </g>
        <g id="g2803" xml:space="default">
          <path d="M280.6073 193.1217 C281.3633 198.3327 282.2073 231.3847 279.4093 238.4607 C276.6723 245.3837 277.0143 205.4347 270.3423 199.1457 C263.6003 192.7917 279.8943 188.2077 280.6073 193.1217 z" fill-rule="evenOdd" stroke-width="1px" opacity="0.402778" id="path2805" xml:space="default" connector-curvature="0" style="fill:url(#radialGradient2811);" />
          <path d="M281.0244 193.4687 C281.8963 199.5517 282.8713 238.1367 279.6423 246.3977 C276.4833 254.4787 276.8784 207.8417 269.1794 200.5007 C261.3983 193.0827 280.2014 187.7307 281.0244 193.4687 z" fill-rule="evenOdd" stroke-width="1px" opacity="0.3" id="path2807" xml:space="default" connector-curvature="0" style="fill:url(#radialGradient2813);" />
          <path d="M281.8784 193.7667 C282.9623 200.6007 284.1743 243.9507 280.1613 253.2317 C276.2364 262.3117 276.7274 209.9147 267.1593 201.6677 C257.4913 193.3327 280.8564 187.3207 281.8784 193.7667 z" fill-rule="evenOdd" stroke-width="1px" opacity="0.2" id="path2809" xml:space="default" connector-curvature="0" style="fill:url(#radialGradient2815);" />
        </g>
        <path d="M283.4493 245.3917 L283.4493 253.2787 C283.4493 253.8357 283.0173 254.2847 282.4803 254.2847 L206.9053 254.2847 C206.3683 254.2847 205.9363 253.8357 205.9363 253.2787 L205.9363 225.2627 C205.9363 254.7797 283.4493 204.3837 283.4493 245.3917 z" fill-rule="evenOdd" stroke-width="0.625" stroke-linecap="round" stroke-linejoin="round" opacity="0.25" id="rect3077" xml:space="default" connector-curvature="0" style="fill:url(#linearGradient3080);" />
        <path d="M205.9803 254.2847 C207.7903 252.1637 224.1253 250.4987 244.6353 250.4987 C264.8643 250.4987 280.9283 252.1457 283.1194 254.2257 C283.0883 254.2287 283.0934 254.2847 283.0623 254.2847 z" fill-rule="evenOdd" stroke-width="0.625" stroke-linecap="round" stroke-linejoin="round" opacity="0.5" id="path2768" xml:space="default" connector-curvature="0" style="fill:#000000;" />
      </g>
    </g>
  </g>
</svg>