<svg enable-background="new 0 0 257.00 257.00" height="257" viewBox="0 0 257 257" width="257" xmlns="http://www.w3.org/2000/svg" xmlns:xlink="http://www.w3.org/1999/xlink"><radialGradient id="a" cx="125.168" cy="223.167" gradientUnits="userSpaceOnUse" r="110.973"><stop offset="0" stop-color="#545755" stop-opacity=".552941"/><stop offset=".978448" stop-opacity=".313725"/></radialGradient><filter id="b" filterUnits="userSpaceOnUse"><feGaussianBlur stdDeviation="4.53544"/></filter><linearGradient id="c" gradientTransform="matrix(.693355748433 .720595452466 -.720595452466 .693355748433 .102044305031 -.026163947556)" gradientUnits="objectBoundingBox" x1=".0817641" x2="1.05742" y1=".106817" y2=".106817"><stop offset="0" stop-color="#719671"/><stop offset="1" stop-color="#394d39"/></linearGradient><linearGradient id="d" gradientTransform="matrix(.520864286505 .853639499463 -.853639499463 .520864286505 .502023249795 -.157664474505)" gradientUnits="objectBoundingBox" x1=".391461" x2="1.12097" y1=".368376" y2=".368376"><stop offset="0" stop-color="#efefef"/><stop offset=".599287" stop-color="#e8e8e8"/><stop offset=".827586" stop-color="#fff"/><stop offset="1" stop-color="#d8d8d3"/></linearGradient><linearGradient id="e" gradientTransform="matrix(.295460833241 .955354853455 -.955354853455 .295460833241 .903435025128 -.096599564944)" gradientUnits="objectBoundingBox" x1=".517212" x2=".851099" y1=".564229" y2=".564229"><stop offset="0" stop-color="#fff"/><stop offset=".37931" stop-color="#d5d7d6"/><stop offset="1" stop-color="#abafad"/></linearGradient><linearGradient id="f"><stop offset="0" stop-color="#979789"/><stop offset=".5" stop-color="#c1c1b8"/><stop offset="1" stop-color="#7c7c6e"/></linearGradient><linearGradient id="g" gradientTransform="matrix(.030857147357 .999523804848 -.999523804848 .030857147357 .52957997773 -.452421394072)" gradientUnits="objectBoundingBox" x1=".498092" x2="1.28458" xlink:href="#f" y1=".0468796" y2=".0468796"/><linearGradient id="h" gradientTransform="matrix(0 1 -1 0 .545839 -.454263)" gradientUnits="objectBoundingBox" x1=".500051" x2=".880342" xlink:href="#f" y1=".0457885" y2=".0457885"/><linearGradient id="i" gradientTransform="matrix(.035959031299 .999353264901 -.999353264901 .035959031299 .527011176611 -.452573309291)" gradientUnits="objectBoundingBox" x1=".498081" x2="1.28464" xlink:href="#f" y1=".0468708" y2=".0468708"/><linearGradient id="j" gradientTransform="matrix(.000690556917 -.999999761566 .999999761566 .000690556917 .245941873848 .753271769391)" gradientUnits="objectBoundingBox" x1=".499867" x2=".757693" y1=".25358" y2=".25358"><stop offset="0" stop-color="#fff" stop-opacity=".317647"/><stop offset=".732759" stop-color="#7f7f7f" stop-opacity=".317647"/><stop offset="1" stop-opacity=".317647"/></linearGradient><linearGradient id="k"><stop offset=".211207" stop-color="#c0ab95"/><stop offset=".573276" stop-color="#f2d7ba"/><stop offset=".840517" stop-color="#c0ab95"/></linearGradient><linearGradient id="l" gradientTransform="matrix(-.853173081716 -.521627925475 .521627925475 -.853173081716 1.37218209103 1.717965420689)" gradientUnits="objectBoundingBox" x1=".927876" x2="1.88829" xlink:href="#k" y1=".665863" y2=".665863"/><linearGradient id="m" gradientTransform="matrix(-.850323633433 -.526260124297 .526260124297 -.850323633433 1.412985095778 1.750704406562)" gradientUnits="objectBoundingBox" x1=".955456" x2="1.97607" xlink:href="#k" y1=".674415" y2=".674415"/><linearGradient id="n" gradientTransform="matrix(-.773694755252 -.633558541648 .633558541648 -.773694755252 1.180181357471 1.785117304325)" gradientUnits="objectBoundingBox" x1=".90891" x2="1.86425" y1=".68178" y2=".68178"><stop offset="0" stop-color="#39393b"/><stop offset=".525862" stop-color="#afabab"/><stop offset="1" stop-color="#39393b"/></linearGradient><linearGradient id="o" gradientTransform="matrix(-.760460790318 -.649383851346 .649383851346 -.760460790318 1.263536115127 1.872944490033)" gradientUnits="objectBoundingBox" x1=".977206" x2="2.08445" y1=".703431" y2=".703431"><stop offset="0" stop-color="#39393b"/><stop offset=".534483" stop-color="#afabab"/><stop offset="1" stop-color="#39393b"/></linearGradient><linearGradient id="p"><stop offset=".0497804" stop-color="#839597"/><stop offset=".0834553" stop-color="#dadcdc"/><stop offset=".105417" stop-color="#c4cbcc"/><stop offset=".128843" stop-color="#839597"/><stop offset=".159592" stop-color="#475253"/><stop offset=".197657" stop-color="#353e3f"/><stop offset=".206442" stop-color="#fff"/><stop offset=".212299" stop-color="#f1f1f1"/><stop offset=".390922" stop-color="#dce4e5"/><stop offset=".467057" stop-color="#839597"/><stop offset=".486091" stop-color="#676c6c"/><stop offset=".505124" stop-color="#444949"/><stop offset=".528551" stop-color="#323434"/><stop offset=".556369" stop-color="#484d4d"/><stop offset=".606149" stop-color="#839597"/><stop offset=".774524" stop-color="#839597"/><stop offset=".786237" stop-color="#fff"/><stop offset=".872621" stop-color="#fff"/><stop offset=".985359" stop-color="#839597"/></linearGradient><linearGradient id="q" gradientTransform="matrix(.81586215271 .578246442078 -.578246442078 .81586215271 .178053166133 .004501227977)" gradientUnits="objectBoundingBox" x1=".0819595" x2="1.02449" xlink:href="#p" y1=".28182" y2=".28182"/><linearGradient id="r" gradientTransform="matrix(.813885416337 .581025411728 -.581025411728 .813885416337 .169428262895 .01554910141)" gradientUnits="objectBoundingBox" x1=".0604427" x2="1.04996" xlink:href="#p" y1=".272241" y2=".272241"/><linearGradient id="s"><stop offset="0" stop-color="#f40000"/><stop offset=".469828" stop-color="#e20001"/><stop offset=".659483" stop-color="#570b0d"/></linearGradient><linearGradient id="t" gradientTransform="matrix(.740095906819 .67250133733 -.67250133733 .740095906819 .228630485122 .059405062905)" gradientUnits="objectBoundingBox" x1=".0374601" x2="1.02719" xlink:href="#s" y1=".325493" y2=".325493"/><linearGradient id="u" gradientTransform="matrix(.735942509107 .677044033494 -.677044033494 .735942509107 .22336953107 .070505992081)" gradientUnits="objectBoundingBox" x1=".0212957" x2="1.04406" xlink:href="#s" y1=".321613" y2=".321613"/><linearGradient id="v" gradientTransform="matrix(.748943369344 .662634008722 -.662634008722 .748943369344 .210597999096 .039235719852)" gradientUnits="objectBoundingBox" x1=".0535204" x2="1.03312" xlink:href="#s" y1=".297542" y2=".297542"/><linearGradient id="w" gradientTransform="matrix(.746193822892 .665728757586 -.665728757586 .746193822892 .205513657746 .047565598832)" gradientUnits="objectBoundingBox" x1=".0403751" x2="1.04739" xlink:href="#s" y1=".293312" y2=".293312"/><linearGradient id="x"><stop offset="0" stop-color="#f40000"/><stop offset=".474138" stop-color="#e20001"/><stop offset=".543103" stop-color="#570b0d"/></linearGradient><linearGradient id="y" gradientTransform="matrix(.736467525763 .676472899307 -.676472899307 .736467525763 .215437366065 .04935651277)" gradientUnits="objectBoundingBox" x1=".0443714" x2="1.03906" xlink:href="#x" y1=".301186" y2=".301186"/><linearGradient id="z" gradientTransform="matrix(.732830242414 .680411519453 -.680411519453 .732830242414 .209337106066 .05980712328)" gradientUnits="objectBoundingBox" x1=".0285116" x2="1.05607" xlink:href="#x" y1=".296467" y2=".296467"/><linearGradient id="A" gradientTransform="matrix(.826813839834 .562475665481 -.562475665481 .826813839834 .16164480849 .019924446748)" gradientUnits="objectBoundingBox" x1=".0484671" x2="1.05864" y1=".272458" y2=".272458"><stop offset=".435345" stop-color="#eeebeb" stop-opacity=".156863"/><stop offset=".698276" stop-color="#eee" stop-opacity=".392157"/></linearGradient><linearGradient id="B"><stop offset="0" stop-color="#bd0707"/><stop offset=".0931373" stop-color="#fc0909"/><stop offset=".205882" stop-color="#feafaf"/><stop offset=".857843" stop-color="#ff0606"/><stop offset="1" stop-color="#af0f0f"/></linearGradient><linearGradient id="C" gradientTransform="matrix(.841151805133 .540799076111 -.540799076111 .841151805133 .144412854792 -.006529924776)" gradientUnits="objectBoundingBox" x1=".0833217" x2="1.05231" xlink:href="#B" y1=".242562" y2=".242562"/><linearGradient id="D" gradientTransform="matrix(.839920390409 .542709625652 -.542709625652 .839920390409 .134190279742 .004149631078)" gradientUnits="objectBoundingBox" x1=".0600615" x2="1.08201" xlink:href="#B" y1=".229544" y2=".229544"/><g stroke-linejoin="round"><path d="m198.386 239.842h-146.436c-15.6172.061-37.7549-7.485-37.7549-16.704 0-9.223 17.4272-16.703 37.7549-16.703v-.005h146.436v.005c20.328 0 37.755 7.48 37.755 16.703 0 9.219-22.135 16.765-37.755 16.704z" fill="url(#a)" filter="url(#b)" stroke-width=".2"/><path d="m39.2664 35.6797c-3.6011 0-6.5252 2.9197-6.5252 6.5254v179.9089c0 3.605 2.9241 6.525 6.5252 6.525h170.4636c3.606 0 6.526-2.92 6.526-6.525v-179.9089c0-3.6057-2.92-6.5254-6.526-6.5254z" fill="url(#c)" stroke-width=".2"/><path d="m54.531 45.2185c-1.4714 0-2.6655 1.199-2.6655 2.6658v163.8017c0 1.472 1.1941 2.661 2.6655 2.661h140.184c1.467 0 2.665-1.189 2.665-2.661v-163.8017c0-1.4668-1.198-2.6658-2.665-2.6658z" fill="url(#d)" stroke-width=".2"/><path d="m54.5291 45.2197h140.1839c1.471 0 2.666 1.1944 2.666 2.6658v163.8025c0 1.471-1.195 2.665-2.666 2.665h-140.1839c-1.4668 0-2.6607-1.194-2.6607-2.665v-163.8025c0-1.4714 1.1939-2.6658 2.6607-2.6658z" fill="none" stroke="#888a85" stroke-width="1.33333"/><path d="m101.001 14.5244h47.162c2.558 0 4.626 2.0689 4.626 4.626v9.5527c0 2.5576-2.068 4.626-4.626 4.626h-47.162c-2.5523 0-4.6255-2.0684-4.6255-4.626v-9.5527c0-2.5571 2.0732-4.626 4.6255-4.626z" fill="#5c5c5c" stroke-width=".2"/><path d="m37.0908 39.8452h175.756v183.345h-175.756z" fill="url(#e)" stroke="#4a634a" stroke-width="2"/><path d="m39.5767 40.0552h169.8483c1.241 0 2.247 1.0061 2.247 2.2519v179.2789c0 1.246-1.006 2.251-2.247 2.251h-169.8483c-1.241 0-2.2517-1.005-2.2517-2.251v-179.2789c0-1.2458 1.0107-2.2519 2.2517-2.2519z" fill="#c1c9c1" stroke="#4a634a" stroke-width="1.33333"/><path d="m87.8162 35.5493h76.0268c3.601 0 6.521 2.9241 6.521 6.5249v19.8579c0 3.6057-2.92 6.5249-6.521 6.5249h-76.0268c-3.6011 0-6.5254-2.9192-6.5254-6.5249v-19.8579c0-3.6008 2.9243-6.5249 6.5254-6.5249z" fill-opacity=".109804" stroke="#000" stroke-opacity=".109804" stroke-width="1.33333"/><g stroke-width=".2"><path d="m86.5693 30.9785c-3.601 0-6.5251 2.9197-6.5251 6.5205v19.8628c0 3.6057 2.9241 6.5249 6.5251 6.5249h76.0267c3.602 0 6.526-2.9192 6.526-6.5249v-19.8628c0-3.6008-2.924-6.5205-6.526-6.5205z" fill="url(#g)"/><path d="m103.32 20.2036c-.847 0-1.533.6909-1.533 1.5325v13.7839c0 .8413.686 1.5325 1.533 1.5325h42.533c.839 0 1.526-.6912 1.526-1.5325v-13.7839c0-.8416-.687-1.5325-1.526-1.5325z" fill="url(#h)"/><path d="m86.8137 33.0378c-2.6279 0-4.7573 2.1297-4.7573 4.7576v19.5664c0 2.6323 2.1294 4.762 4.7573 4.762h75.5433c2.628 0 4.757-2.1297 4.757-4.762v-19.5664c0-2.6279-2.129-4.7576-4.757-4.7576z" fill="url(#i)"/><path d="m38.3164 39.8452h172.768v183.345h-172.768z" fill="url(#j)"/><path d="m77.5715 85.042h98.7241v9.40234h-98.7241z" fill-opacity=".333333"/><path d="m77.5715 103.847h94.0229v9.4021h-94.0229z" fill-opacity=".333333"/><path d="m77.5715 122.651h84.6206v9.40234h-84.6206z" fill-opacity=".333333"/><path d="m77.5715 141.456h98.7241v9.40234h-98.7241z" fill-opacity=".333333"/><path d="m77.5715 160.26h61.1147v9.40234h-61.1147z" fill-opacity=".333333"/></g><path d="m144.93 189.345c2.002 2.111 4.399 4.916 6.172 7.318.118.16.234.319.347.477l21.329-10.523c-.171-.715-.41-1.507-.906-2.586-.674-1.467-1.823-3.466-3.596-5.867-1.773-2.402-4.17-5.206-6.171-7.317-2.002-2.111-3.609-3.528-5.635-5.143-2.025-1.616-4.471-3.431-6.7-4.867-1.488-.958-2.879-1.748-4.238-2.483l-3.781 27.901c1.031.915 2.041 1.891 3.179 3.09z" fill="url(#m)" stroke="url(#l)" stroke-width="2"/><path d="m141.751 186.255-2.276 16.792 11.974-5.907c-.113-.158-.229-.317-.347-.477-1.773-2.402-4.17-5.207-6.172-7.318-1.138-1.199-2.148-2.175-3.179-3.09z" fill="url(#o)" stroke="url(#n)" stroke-width="2"/><path d="m201.959 80.7456c2.229 1.4365 4.675 3.251 6.701 4.8667s3.632 3.0322 5.634 5.1431c2.002 2.1106 4.398 4.9153 6.172 7.3169 1.772 2.4017 2.921 4.3997 3.595 5.8667.361.785.586 1.418.748 1.98l10.653-16.6617c-.181-.8193-.408-1.6921-.993-2.9648-.675-1.4668-1.823-3.4654-3.596-5.867-1.773-2.4013-4.17-5.206-6.172-7.3166-2.002-2.1109-3.608-3.5278-5.634-5.1433s-4.471-3.4304-6.701-4.867c-1.656-1.0676-3.194-1.9262-4.701-2.7317l-11.061 17.2996c1.718.9077 3.458 1.8567 5.355 3.0791z" fill="url(#r)" stroke="url(#q)" stroke-width="2"/><path d="m168.479 178.121c1.773 2.401 2.922 4.4 3.596 5.866.566 1.231.798 2.088.975 2.884l51.759-80.952c-.162-.562-.387-1.195-.748-1.98-.674-1.467-1.823-3.465-3.595-5.8667-.279-.3765-.572-.763-.877-1.1553l-52.01 80.017c.313.403.615.8.9 1.187z" fill="url(#u)" stroke="url(#t)" stroke-width="2"/><path d="m156.674 165.661c2.026 1.615 3.632 3.032 5.634 5.142 1.679 1.771 3.637 4.031 5.271 6.131l52.01-80.017c-1.639-2.1087-3.607-4.3818-5.295-6.1616-2.002-2.1109-3.608-3.5274-5.634-5.1431-1.811-1.4438-3.957-3.0469-5.983-4.3967l-51.018 80.7054c1.729 1.196 3.491 2.524 5.015 3.74z" fill="url(#w)" stroke="url(#v)" stroke-width="2"/><path d="m202.677 81.2156c-.241-.1604-.481-.3174-.718-.47-1.897-1.2224-3.637-2.1714-5.355-3.0791l-51.384 80.3675c1.523.813 3.077 1.68 4.753 2.76.552.355 1.118.734 1.686 1.127z" fill="url(#z)" stroke="url(#y)" stroke-width="2"/><path d="m196.147 76.9541-51.792 81.2529 8.997 5.89 17.581-26.506 14.136-16.708 13.366-13.785 9.335-7.5414 4.058-2.0551 4.201-1.7056 3.301-.8096-2.583-2.9475-2.434-2.4785-2.798-2.5745-3.679-3.2368-3.648-2.7597-4.603-2.6988z" fill="url(#A)" stroke-width=".2"/><path d="m197.821 73.4458c2.013 1.0586 4.026 2.1167 6.255 3.5532 2.23 1.4365 4.675 3.2515 6.701 4.867 2.026 1.6154 3.632 3.0324 5.634 5.1433 2.002 2.1106 4.399 4.9153 6.172 7.3166 1.772 2.4016 2.921 4.4002 3.595 5.8671.675 1.467.874 2.401 1.074 3.337" fill="none" stroke="#000"/><path d="m198.749 72.9871c2.013 1.0586 4.026 2.1169 6.256 3.5534 2.229 1.4366 4.674 3.2512 6.7 4.8667 2.026 1.6157 3.633 3.0327 5.634 5.1433 2.002 2.1106 4.399 4.9153 6.172 7.3167 1.773 2.4018 2.922 4.4001 3.596 5.8669.674 1.4669.873 2.4019 1.073 3.3369" fill="none" stroke="#e8edee"/><path d="m198.346 72.9333c2.014 1.0586 4.027 2.117 6.256 3.5535s4.675 3.2512 6.701 4.8667c2.026 1.6157 3.632 3.0327 5.634 5.1433 2.001 2.1106 4.399 4.9153 6.171 7.3167 1.773 2.4018 2.922 4.4001 3.596 5.8669.674 1.4666.874 2.4016 1.073 3.3366" fill="none" stroke="#678185"/><path d="m204.241 64.0151c2.014 1.0586 4.027 2.1167 6.256 3.5533 2.23 1.4365 4.675 3.2514 6.701 4.8669s3.632 3.0325 5.634 5.1433c2.002 2.1106 4.398 4.9153 6.171 7.3167 1.773 2.4016 2.922 4.4001 3.596 5.8669s.874 2.4016 1.073 3.3369" fill="none" stroke="#000"/><path d="m205.17 63.5574c2.013 1.0586 4.026 2.1169 6.256 3.5534 2.229 1.4366 4.674 3.2513 6.7 4.8667 2.026 1.6158 3.633 3.0328 5.634 5.1433 2.002 2.1106 4.399 4.9153 6.172 7.3167 1.773 2.4019 2.922 4.4001 3.596 5.8669s.873 2.4017 1.073 3.337" fill="none" stroke="#e8edee"/><path d="m204.767 63.5034c2.013 1.0586 4.027 2.1167 6.256 3.5532 2.229 1.4366 4.675 3.2515 6.701 4.867 2.025 1.6155 3.632 3.0325 5.633 5.1433 2.002 2.1106 4.399 4.9153 6.172 7.3166 1.773 2.4017 2.922 4.4002 3.596 5.867s.874 2.4016 1.073 3.3369" fill="none" stroke="#678185"/><path d="m213.118 62.2241c2.229 1.4365 4.674 3.2512 6.7 4.8667 2.026 1.6157 3.633 3.0327 5.634 5.1433 2.002 2.1106 4.399 4.9153 6.172 7.3167 1.773 2.4018 2.922 4.4001 3.596 5.8669.585 1.2727.812 2.1455.993 2.9649l5.418-9.7268c-.159-.5408 5.509-4.3435.622-9.618-.674-1.4668.228.2015-1.545-2.1999-1.773-2.4016-4.17-5.2063-6.172-7.3169-2.001-2.1108-3.608-3.5273-5.634-5.1433-2.025-1.6155-4.471-3.4299-6.7-4.8665-4.9-1.8247-6.39.4659-9.148 1.6397l-4.638 8.3413c1.508.8054 3.045 1.6641 4.702 2.7319z" fill="url(#D)" stroke="url(#C)" stroke-width="2"/></g></svg>