<svg enable-background="new 0 0 257.00 75.00" height="75" viewBox="0 0 257 75" width="257" xmlns="http://www.w3.org/2000/svg"><g stroke-width=".2"><path d="m10.7502 42.1671h16.9167v16.9166h-16.9167z" fill="#dadada"/><path d="m80.3335 20.1671h38.6667v38.6667h-38.6667z" fill="#dadada"/><path d="m130.667 13.8004h45v45h-45z" fill="#dadada"/><path d="m188.667 8.08376h62.4668v56.7111h-62.4668z" fill="#bebdbd"/><path d="m39.267 30.8004h28.4333v28.4333h-28.4333z" fill="#ced0d3"/></g><path d="m3.3645 5.16705h249.636v62.6667h-249.636z" fill="none" stroke="#ababab" stroke-width="6"/><path d="m235.42 25.8417c0 1.855-.28 3.4941-.84 4.9175-.56 1.4233-1.353 2.657-2.38 3.7012-1.021 1.0442-2.249 1.9804-3.684 2.8088-1.435.8283-3.053 1.5808-4.856 2.2575v6.2737h-9.52v-9.275c1.342-.3442 2.557-.6985 3.644-1.0631 1.088-.3646 2.227-.9552 3.417-1.7719 1.12-.7292 1.997-1.575 2.63-2.5375s.949-2.0533.949-3.2725c0-1.8141-.608-3.1077-1.824-3.8806-1.217-.7729-2.927-1.1594-5.132-1.1594-1.359 0-2.891.2611-4.594.7831-1.703.5221-3.264 1.1944-4.681 2.0169h-1.129v-8.3037c1.19-.49 3.022-1.0019 5.495-1.5357 2.473-.5337 4.982-.8006 7.525-.8006 4.597 0 8.243 1.0004 10.938 3.0013 2.695 2.0008 4.042 4.6141 4.042 7.84zm-10.64 31.1587h-11.2v-7.28h11.2z" fill="#861d23" stroke-linejoin="round" stroke-width=".2"/></svg>