<?xml version="1.0" encoding="utf-8"?>
<!DOCTYPE svg PUBLIC "-//W3C//DTD SVG 1.1//EN" "http://www.w3.org/Graphics/SVG/1.1/DTD/svg11.dtd">
<svg x="0" y="0" width="32" height="32.00002" overflow="hidden" viewBox="0, 0, 511.9995, 511.9999"
     preserveAspectRatio="xMidYMid" font-size="0" id="svg" xml:space="default" xmlns="http://www.w3.org/2000/svg"
     xmlns:xml="http://www.w3.org/XML/1998/namespace" version="1.1">
  <path d="M406.8875 511.0849 C402.3789 508.3862 405.3846 495.5674 416.6563 467.9057 C419.6621 460.4843 422.6679 453.0629 423.4193 451.0388 L424.1707 446.9908 L418.1592 442.2681 C412.1476 436.8707 397.1187 426.0759 366.3095 405.1609 C343.7662 389.6434 327.9858 377.4993 310.7026 364.6805 C292.6679 350.5123 290.4136 348.4883 288.1593 348.4883 C285.9049 347.8136 274.6333 357.9337 228.7951 401.7876 C173.1882 456.4362 135.616 491.5193 134.1131 491.5193 C129.6045 491.5193 59.72012 435.5213 42.43689 417.9798 C37.17678 412.5824 32.66811 405.1609 32.66811 402.4622 C32.66811 401.7876 33.41956 400.4382 34.171 399.7635 C35.67389 398.4142 36.42533 398.4142 40.18255 398.4142 C45.44267 399.0889 59.72011 402.4622 75.50045 406.5103 C89.77789 410.5583 92.78368 411.233 97.29234 409.209 C102.5525 407.185 107.8126 401.7876 135.616 371.4272 C190.4715 311.3811 191.2229 310.7065 191.2229 303.285 C191.2229 297.8876 189.72 295.8636 185.2113 293.8396 C180.7027 291.8156 176.9455 292.4902 168.6796 295.189 C161.1651 298.5623 152.8992 300.5864 150.6449 300.5864 C146.8877 300.5864 140.1247 297.213 121.3386 287.7675 C111.5698 282.3701 95.038 273.5994 84.51778 268.202 C55.96291 253.3591 53.70858 252.0097 52.20569 247.287 C51.45425 242.5643 46.19413 237.1669 31.16524 225.0227 C7.870459 206.8065 0.3560129 198.0358 0.3560129 191.289 C0.3560129 186.5663 5.616125 179.1449 14.63346 170.3741 C19.14213 165.6514 22.89935 164.302 28.15946 164.302 C34.92246 164.302 40.93402 167.6754 57.4658 182.5182 C73.99758 196.0117 79.25769 199.3851 91.28081 204.1078 C95.78947 205.4572 107.0611 209.5052 116.8299 213.5533 C133.3617 219.6253 143.8819 222.9987 152.1478 225.0227 C161.9166 227.0468 165.6738 224.3481 185.9628 198.7104 C189.72 194.6624 196.483 187.241 200.2403 183.1929 C213.7663 169.6994 216.7721 164.9767 216.0206 162.278 C215.2692 158.2299 207.7547 153.5072 197.9859 150.1338 C185.9628 146.0858 175.4426 139.339 170.9339 131.2429 C168.6796 127.1949 168.6796 126.5202 168.6796 119.7735 C168.6796 114.3761 169.431 109.6534 170.9339 102.2319 L173.1883 92.1118 L165.6738 84.69037 L157.4079 77.94363 L160.4137 75.91959 C163.4195 73.2209 170.9339 69.84753 173.1883 69.84753 C177.6969 69.84753 184.4599 61.75143 193.4773 46.23391 C195.7316 42.86053 195.7316 42.18586 194.9802 42.18586 C179.1998 34.08976 170.9339 28.69236 161.1652 21.94561 C154.4022 17.22289 153.6507 16.54821 154.4022 14.52419 C155.905 12.50016 160.4137 11.82549 169.431 11.82549 C177.6969 12.50016 184.4599 13.84951 200.2403 17.89756 L212.2634 19.92159 L217.5235 15.87354 C229.5466 3.729383 234.8067 0.3560129 239.3154 0.3560129 C240.8183 0.3560129 251.3385 4.404063 263.3616 9.126783 C275.3847 14.52418 300.9338 23.96963 319.7199 32.06573 C338.5061 40.16183 354.2864 46.23391 355.0378 46.90858 C355.0378 46.90858 352.7835 69.84753 352.0321 74.57026 C352.0321 75.24493 360.298 79.29298 375.3269 86.03973 C405.3846 99.53322 412.1476 103.5813 408.3904 106.9546 C405.3846 110.328 383.5927 110.328 364.8066 107.6293 C353.535 106.28 346.772 105.6053 343.7662 106.9546 C338.5061 108.9787 306.9454 150.8085 306.9454 156.2059 C306.9454 158.2299 309.9512 165.6514 322.7258 188.5903 C340.009 221.6494 343.7662 229.7455 350.5292 247.9617 C359.5465 271.5753 362.5523 276.298 375.3269 290.4662 C391.1072 308.0078 400.876 317.4532 446.7141 359.9577 C501.5695 411.233 507.5811 417.3051 509.8354 422.0278 C512.0898 426.0759 512.0898 430.7986 510.5869 433.4973 C503.8239 446.9908 438.4482 500.9648 420.4136 509.7356 C416.6563 511.0849 408.3904 512.4343 406.8876 511.0849 z" stroke="#000000" stroke-width="0.7120258" id="path2" xml:space="default" style="fill:#008000;" />
</svg>