<svg enable-background="new 0 0 150.00 78.25" height="78.25" viewBox="0 0 150 78.25" width="150" xmlns="http://www.w3.org/2000/svg" xmlns:xlink="http://www.w3.org/1999/xlink"><linearGradient id="a" gradientTransform="matrix(0 1 -1 0 -9.06931 -10.06931)" gradientUnits="objectBoundingBox" x1=".5" x2="20.6386" y1="-9.56931" y2="-9.56931"><stop offset=".427907" stop-color="#eeeaea"/><stop offset=".576744" stop-color="#fff" stop-opacity="0"/></linearGradient><radialGradient id="b" cx="90.1248" cy="27.9583" gradientTransform="matrix(.866024967452 -.50000075575 .50000075575 .866024967452 -1.904715319281 48.808212061131)" gradientUnits="userSpaceOnUse" r="39"><stop offset="0" stop-color="#4d5735" stop-opacity=".403922"/><stop offset="1" stop-color="#273110" stop-opacity=".403922"/></radialGradient><radialGradient id="c" cx="90.1248" cy="27.9583" gradientTransform="matrix(.866024967452 -.50000075575 .50000075575 .866024967452 -1.904715319281 48.808212061131)" gradientUnits="userSpaceOnUse" r="39"><stop offset="0" stop-color="#a8aebd" stop-opacity=".403922"/><stop offset=".274419" stop-color="#a2a8b7" stop-opacity=".403922"/><stop offset=".967442" stop-color="#142935" stop-opacity=".403922"/><stop offset="1" stop-color="#102531" stop-opacity=".403922"/></radialGradient><radialGradient id="d" cx="128.792" cy="58.2917" gradientUnits="userSpaceOnUse" r="7.33337"><stop offset="0" stop-color="#4d5735"/><stop offset="1" stop-color="#273110"/></radialGradient><g stroke-linejoin="round"><path d="m-112.083.5h222.75c21.332 0 38.625 17.293 38.625 38.625l0 0c0 21.332-17.293 38.625-38.625 38.625h-222.75c-21.332 0-38.625-17.293-38.625-38.625l0 0c0-21.332 17.293-38.625 38.625-38.625z" fill="#8c9e64" fill-opacity=".262745" stroke="#000" stroke-opacity=".262745"/><path d="m-112.083.500046h222.749c21.332 0 38.625 17.292954 38.625 38.624954l0 0c0 21.332-17.293 38.625-38.625 38.625h-222.749c-21.332 0-38.625-17.293-38.625-38.625l0 0c0-21.332 17.293-38.624954 38.625-38.624954z" fill="none" stroke="#000"/><path d="m103.639 1.18752h-209.511c-5.547 0-10.841.28419-15.684.80026-7.349 1.83955-13.862 5.78399-18.864 11.15542 5.249 1.1958 12.095 1.9193 19.583 1.9193h240.867c7.201 0 13.809-.6692 18.973-1.7842-4.899-5.31131-11.268-9.24518-18.463-11.15488-5.168-.60169-10.886-.9359-16.901-.9359z" fill="url(#a)" stroke-width=".2"/><path d="m121.258 42.855h-9.12v9.12h-4.8v-9.12h-9.1198v-4.8h9.1198v-9.12h4.8v9.12h9.12z" stroke-width=".2"/><path d="m109.625 22.9583c9.941 0 18 8.059 18 18 0 9.9412-8.059 18-18 18-9.9412 0-18.0001-8.0588-18.0001-18 0-9.941 8.0589-18 18.0001-18z" fill="url(#c)" stroke="url(#b)" stroke-width="3"/><path d="m122.958 53.2083 11.667 10.1667" fill="none" stroke="url(#d)" stroke-width="3"/></g></svg>