<svg enable-background="new 0 0 259.20 259.20" height="259.2" viewBox="0 0 259.2 259.2" width="259.2" xmlns="http://www.w3.org/2000/svg" xmlns:xlink="http://www.w3.org/1999/xlink"><linearGradient id="a"><stop offset="0" stop-color="#1f2d27"/><stop offset=".665116" stop-color="#b2cebf"/><stop offset=".990698" stop-color="#fff"/></linearGradient><linearGradient id="b" gradientTransform="matrix(-.124310330623 -.992243388338 .992243388338 -.124310330623 .10560745046 2.053548287326)" gradientUnits="objectBoundingBox" x1=".958968" x2="2.28745" xlink:href="#a" y1=".980173" y2=".980173"/><linearGradient id="c" gradientTransform="matrix(-.127801884007 -.991799716901 .991799716901 -.127801884007 .096952683738 2.114195113364)" gradientUnits="objectBoundingBox" x1=".978098" x2="2.38274" y1="1.01447" y2="1.01447"><stop offset="0" stop-color="#4c5e56"/><stop offset=".665116" stop-color="#d0d9d4"/><stop offset=".990698" stop-color="#fff"/></linearGradient><linearGradient id="d" gradientTransform="matrix(-.511791492473 -.85910969511 .85910969511 -.511791492473 .854401918435 2.253795206995)" gradientUnits="objectBoundingBox" x1="1.06759" x2="2.43832" y1=".884131" y2=".884131"><stop offset="0" stop-color="#3a4941"/><stop offset=".665116" stop-color="#769685"/><stop offset=".990698" stop-color="#d2d5d4"/></linearGradient><linearGradient id="e" gradientTransform="matrix(-.527814752242 -.849359515939 .849359515939 -.527814752242 .922501643805 2.400133220833)" gradientUnits="objectBoundingBox" x1="1.12841" x2="2.66689" xlink:href="#a" y1=".943643" y2=".943643"/><linearGradient id="f"><stop offset="0" stop-color="#070707"/><stop offset=".990698" stop-color="#2c312f"/></linearGradient><linearGradient id="g" gradientTransform="matrix(0 1 -1 0 .476119 -.523881)" gradientUnits="objectBoundingBox" x1=".5" x2="1.54778" xlink:href="#f" y1="-.0238814" y2="-.0238814"/><linearGradient id="h" gradientTransform="matrix(0 1 -1 0 .692457 -.307543)" gradientUnits="objectBoundingBox" x1=".5" x2="1.1151" xlink:href="#f" y1=".192457" y2=".192457"/><linearGradient id="i" gradientUnits="objectBoundingBox" x1="-.00684922" x2="1.00685" xlink:href="#f" y1=".499995" y2=".499995"/><linearGradient id="j" gradientUnits="objectBoundingBox" x1="-.0111109" x2="1.01111" xlink:href="#f" y1=".5" y2=".5"/><g stroke-linejoin="round"><path d="m148.888 34.5549c58.884 18.7447 99.054 57.7019 89.722 87.0151-9.331 29.313-64.629 37.879-123.513 19.135-58.8834-18.744-99.0536-57.7018-89.7225-87.0146 9.3312-29.3127 64.6293-37.8801 123.5135-19.1355z" fill="url(#c)" stroke="url(#b)" stroke-width="9"/><path d="m55.9502 104.613 86.9338-60.2666" fill="none" stroke="#72a18c" stroke-width="3"/><path d="m163.95 55.0046 64 72.0004" fill="none" stroke="#466c5b" stroke-width="3"/><path d="m151.15 53.4158-33.6 54.4002 62.4 4" fill="none" stroke="#6d9a86" stroke-width="3"/><path d="m158.07 39.6965c7.509 3.229 12.111 9.3018 10.278 13.5635-1.833 4.2622-9.406 5.0991-16.915 1.8699-7.508-3.2288-12.11-9.3015-10.277-13.5635 1.832-4.2615 9.406-5.0989 16.914-1.8699z" fill="url(#e)" stroke="url(#d)" stroke-width="3"/><g fill="none"><path d="m54.8836 235.813 41.5135-74.667 60.8869 74.667" stroke="url(#g)" stroke-linecap="round" stroke-width="15"/><path d="m131.684 154.746-34.2523 2.43-2.0148 85.037" stroke="url(#h)" stroke-linecap="round" stroke-width="15"/><path d="m96.4834 139.816-17.5999 16 35.1995 17.6 11.2-22.4" stroke="url(#i)" stroke-width="12"/><path d="m96.4834 144.615 23.9996 12.801" stroke="url(#j)" stroke-width="12"/></g></g></svg>