<svg enable-background="new 0 0 257.00 257.00" height="257" viewBox="0 0 257 257" width="257" xmlns="http://www.w3.org/2000/svg" xmlns:xlink="http://www.w3.org/1999/xlink"><linearGradient id="a" gradientUnits="objectBoundingBox" x1="-.000000009145" x2="1" y1=".5" y2=".5"><stop offset="0" stop-color="#dbdbdb"/><stop offset="1" stop-color="#838383"/></linearGradient><linearGradient id="b" gradientUnits="objectBoundingBox" x1="-.000000066343" x2="1" y1=".5" y2=".5"><stop offset="0" stop-color="#a8a8a8"/><stop offset="1" stop-color="#4e4c4c"/></linearGradient><linearGradient id="c" gradientUnits="objectBoundingBox" x1="-.00884962" x2="1.00885" y1=".5" y2=".5"><stop offset="0" stop-color="#626060"/><stop offset="1" stop-color="#919090"/></linearGradient><path d="m233.939 110.787.03.494v32c-20.5-.166-29.833 3.334-34.667 14.167-4.671 10.47 4.255 19.847 14.167 32l-23.541 24.021c-14.35-14.641-23.417-18.783-34.503-14.562-10.714 4.08-11.058 17.022-11.223 32.523l-30.905.248c.171-20.5-3.327-29.834-14.1589-34.67-10.4686-4.673-19.8482 4.251-32.0033 14.159l-24.0159-23.547c14.6444-14.346 18.7887-23.412 14.5699-34.499-4.0773-10.715-17.0192-11.062-32.2797-12.573l-.0149-32.247c20.5.167 29.8333-3.333 34.6667-14.1663 4.6711-10.4696-4.2551-19.8471-14.1667-31.9999l23.5414-24.0214c14.3498 14.6411 23.4164 18.7832 34.5024 14.5619 10.714-4.0797 11.058-17.0217 11.224-32.5228l30.904-.2478c-.171 20.5 3.327 29.8341 14.159 34.67 10.469 4.6735 19.848-4.2505 32.003-14.1593l24.016 23.547c-14.644 14.3464-18.788 23.412-14.57 34.4992 4.078 10.7144 17.02 11.0614 32.265 12.3254zm-104.439-11.787c-16.292 0-29.5 13.208-29.5 29.5s13.208 29.5 29.5 29.5 29.5-13.208 29.5-29.5-13.208-29.5-29.5-29.5z" fill="url(#a)" stroke-linejoin="round" stroke-width=".2"/><path d="m130.136 71.0003c31.204 0 56.5 25.296 56.5 56.4997 0 31.204-25.296 56.5-56.5 56.5-31.2045 0-56.5004-25.296-56.5004-56.5 0-31.2038 25.2959-56.4997 56.5004-56.4997zm0 27.531c-16.293 0-29.5 13.2077-29.5 29.4997 0 16.293 13.207 29.5 29.5 29.5 16.292 0 29.5-13.207 29.5-29.5 0-16.292-13.208-29.4997-29.5-29.4997z" fill="url(#c)" stroke="url(#b)" stroke-linejoin="round" stroke-width="2"/></svg>