<?xml version="1.0" encoding="utf-8"?>
<!DOCTYPE svg PUBLIC "-//W3C//DTD SVG 1.1//EN" "http://www.w3.org/Graphics/SVG/1.1/DTD/svg11.dtd">
<svg xmlns="http://www.w3.org/2000/svg" xmlns:xlink="http://www.w3.org/1999/xlink" version="1.1" baseProfile="full" width="257" height="257" viewBox="0 0 257.00 257.00" enable-background="new 0 0 257.00 257.00" xml:space="preserve">
	<linearGradient id="SVGID_Fill1_" gradientUnits="objectBoundingBox" x1="0.0393697" y1="0.222541" x2="1.19359" y2="0.222541" gradientTransform="rotate(65.727051 0.039370 0.222541)">
		<stop offset="0" stop-color="#DBDBDB" stop-opacity="1"/>
		<stop offset="1" stop-color="#838383" stop-opacity="1"/>
	</linearGradient>
	<path fill="url(#SVGID_Fill1_)" stroke-width="0.2" stroke-linejoin="round" d="M 233.939,110.787C 218.694,109.523 205.752,109.176 201.674,98.4616C 197.456,87.3744 201.6,78.3088 216.244,63.9624L 192.228,40.4154C 180.073,50.3242 170.694,59.2482 160.225,54.5747C 149.393,49.7388 145.895,40.4047 146.066,19.9047L 115.161,20.1525C 114.996,35.6536 114.652,48.5956 103.938,52.6753C 92.852,56.8967 83.7854,52.7545 69.4356,38.1134L 45.8942,62.1347C 55.8058,74.2876 64.732,83.6651 60.0609,94.1347C 55.2275,104.968 45.8942,108.468 25.3942,108.301L 25.4091,140.548C 40.6696,142.059 53.6115,142.406 57.6888,153.121C 61.9076,164.208 57.7633,173.274 43.1189,187.62L 67.1348,211.167C 79.2899,201.259 88.6695,192.335 99.1381,197.008C 109.97,201.844 113.468,211.178 113.297,231.678L 144.202,231.43C 144.367,215.929 144.711,202.987 155.425,198.907C 166.511,194.686 175.578,198.828 189.928,213.469L 213.469,189.448C 203.557,177.295 194.631,167.918 199.302,157.448C 204.136,146.615 213.469,143.115 233.969,143.281L 233.969,111.281"/>
	<linearGradient id="SVGID_Stroke1_" gradientUnits="objectBoundingBox" x1="0.847404" y1="0.847404" x2="1.83001" y2="0.847404" gradientTransform="rotate(225.000000 0.847404 0.847404)">
		<stop offset="0" stop-color="#A8A8A8" stop-opacity="1"/>
		<stop offset="1" stop-color="#4E4C4C" stop-opacity="1"/>
	</linearGradient>
	<linearGradient id="SVGID_Fill2_" gradientUnits="objectBoundingBox" x1="0.853553" y1="0.853553" x2="1.85355" y2="0.853553" gradientTransform="rotate(225.000000 0.853553 0.853553)">
		<stop offset="0" stop-color="#626060" stop-opacity="1"/>
		<stop offset="1" stop-color="#919090" stop-opacity="1"/>
	</linearGradient>
	<ellipse fill="url(#SVGID_Fill2_)" stroke-width="2" stroke-linejoin="round" stroke="url(#SVGID_Stroke1_)" cx="130.136" cy="127.5" rx="56.5" ry="56.5"/>
	<ellipse fill="#FFFFFF" fill-opacity="1" stroke-width="0.2" stroke-linejoin="round" cx="130.136" cy="128.031" rx="29.5" ry="29.5"/>
</svg>
