<?xml version="1.0" encoding="utf-8"?>
<!DOCTYPE svg PUBLIC "-//W3C//DTD SVG 1.1//EN" "http://www.w3.org/Graphics/SVG/1.1/DTD/svg11.dtd">
<svg xmlns="http://www.w3.org/2000/svg" xmlns:xlink="http://www.w3.org/1999/xlink" version="1.1" baseProfile="full" width="257" height="257" viewBox="0 0 257.00 257.00" enable-background="new 0 0 257.00 257.00" xml:space="preserve">
	<linearGradient id="SVGID_Fill1_" gradientUnits="objectBoundingBox" x1="-9.14467e-009" y1="0.5" x2="1" y2="0.5">
		<stop offset="0" stop-color="#DBDBDB" stop-opacity="1"/>
		<stop offset="1" stop-color="#838383" stop-opacity="1"/>
	</linearGradient>
	<path fill="url(#SVGID_Fill1_)" stroke-width="0.2" stroke-linejoin="round" d="M 233.939,110.787L 233.969,111.281L 233.969,143.281C 213.469,143.115 204.136,146.615 199.302,157.448C 194.631,167.918 203.557,177.295 213.469,189.448L 189.928,213.469C 175.578,198.828 166.511,194.686 155.425,198.907C 144.711,202.987 144.367,215.929 144.202,231.43L 113.297,231.678C 113.468,211.178 109.97,201.844 99.1381,197.008C 88.6695,192.335 79.2899,201.259 67.1348,211.167L 43.1189,187.62C 57.7633,173.274 61.9076,164.208 57.6888,153.121C 53.6115,142.406 40.6696,142.059 25.4091,140.548L 25.3942,108.301C 45.8942,108.468 55.2275,104.968 60.0609,94.1347C 64.732,83.6651 55.8058,74.2876 45.8942,62.1348L 69.4356,38.1134C 83.7854,52.7545 92.852,56.8966 103.938,52.6753C 114.652,48.5956 114.996,35.6536 115.162,20.1525L 146.066,19.9047C 145.895,40.4047 149.393,49.7388 160.225,54.5747C 170.694,59.2482 180.073,50.3242 192.228,40.4154L 216.244,63.9624C 201.6,78.3088 197.456,87.3744 201.674,98.4616C 205.752,109.176 218.694,109.523 233.939,110.787 Z M 129.5,99C 113.208,99 100,112.208 100,128.5C 100,144.792 113.208,158 129.5,158C 145.792,158 159,144.792 159,128.5C 159,112.208 145.792,99 129.5,99 Z "/>
	<linearGradient id="SVGID_Stroke1_" gradientUnits="objectBoundingBox" x1="-6.63426e-008" y1="0.5" x2="1" y2="0.5">
		<stop offset="0" stop-color="#A8A8A8" stop-opacity="1"/>
		<stop offset="1" stop-color="#4E4C4C" stop-opacity="1"/>
	</linearGradient>
	<linearGradient id="SVGID_Fill2_" gradientUnits="objectBoundingBox" x1="-0.00884962" y1="0.5" x2="1.00885" y2="0.5">
		<stop offset="0" stop-color="#626060" stop-opacity="1"/>
		<stop offset="1" stop-color="#919090" stop-opacity="1"/>
	</linearGradient>
	<path fill="url(#SVGID_Fill2_)" stroke-width="2" stroke-linejoin="round" stroke="url(#SVGID_Stroke1_)" d="M 130.136,71.0003C 161.34,71.0003 186.636,96.2963 186.636,127.5C 186.636,158.704 161.34,184 130.136,184C 98.9315,184 73.6356,158.704 73.6356,127.5C 73.6356,96.2962 98.9315,71.0003 130.136,71.0003 Z M 130.136,98.5313C 113.843,98.5313 100.636,111.739 100.636,128.031C 100.636,144.324 113.843,157.531 130.136,157.531C 146.428,157.531 159.636,144.324 159.636,128.031C 159.636,111.739 146.428,98.5313 130.136,98.5313 Z "/>
</svg>
