<svg enable-background="new 0 0 220.00 220.00" height="220" viewBox="0 0 220 220" width="220" xmlns="http://www.w3.org/2000/svg" xmlns:xlink="http://www.w3.org/1999/xlink"><linearGradient id="a" gradientTransform="matrix(-.966395140898 .257061143792 -.257061143792 -.966395140898 2.065211685697 .614896855393)" gradientUnits="objectBoundingBox" x1=".992414" x2="1.98393" y1=".442438" y2=".442438"><stop offset=".00925926" stop-color="#fff"/><stop offset="1" stop-color="#fcfcff" stop-opacity="0"/></linearGradient><linearGradient id="b"><stop offset=".00925926" stop-color="#fff"/><stop offset="1" stop-color="#fff" stop-opacity="0"/></linearGradient><linearGradient id="c" gradientTransform="matrix(-.968599743862 .24862529274 -.24862529274 -.968599743862 2.063126231446 .620166437066)" gradientUnits="objectBoundingBox" x1=".992401" x2="1.9844" xlink:href="#b" y1=".440365" y2=".440365"/><linearGradient id="d" gradientTransform="matrix(-.940434384383 .339975247143 -.339975247143 -.940434384383 2.119009965461 .542379285576)" gradientUnits="objectBoundingBox" x1="1.01199" x2="2.01995" xlink:href="#b" y1=".456821" y2=".456821"/><g stroke-linejoin="round"><ellipse cx="105.389" cy="185.04" fill="#c7c7c7" rx="19" ry="19.25" stroke="#000" stroke-width="5"/><path d="m78.8886 103.29-17-7.5-9.0001-10.9998-4-10-.5-13 4-10.5 6-9.5 6.5-6.5 11-7.5 8.5-3.5 11-2 11.5005-.5 12-1 11.5 1.5 7.5 3.5 10 5 9 6.5 6.5 7 7 12 1 11-1.5 14-4.5 7.5-7.5 8-9 9.9998-12 8.5-12 10-6.5 11.5-3.5 8 .271 3.534-.584 3.154-2.875 1.5-10.812-.188-4.0005-3v-9l6.5005-10.5 8.5-12.5 11.5-13 4.5-6.9998 4-11.5v-10.5l-2.5-12-6-6-10-4.5-9-1-7.5005.5-9 3-6 5.5v6.5l2 6.5 7.5 5 5 3 1.5 5-1 5.5-3 4-3.5 3.4998-6.5 1.5z" fill="#c7c7c7" stroke="#000" stroke-width="5"/><g stroke-width=".2"><path d="m124.222 27.29 11.333 7.6667 9.334 7.3335 8.333 10.3333 3.667 9.3333 1.333 12.3334-2 12-3.333 5.6666 4.63 1.5463 9.37-12.5463 1.666-9.6666-.333-13-7.203-11.7871-4.464-5.2129-1.666-2.3334-4.667-3-6.667-5-6.666-3-6-1.3333z" fill="url(#a)"/><path d="m81.0552 73.3735-2.9583-2.0417-2.375 5.7082 4 4.3335 4 4.6667 1 5.3333-.3334 6-.5416 2.0415 4.4167-.75 3.6667-2.0833 2.8333-2.6667-.0833-3.5.3332-3.4165-1-2.8333-4.6666-3-3.4167-2.1667-3-2.1667" fill="url(#c)"/><path d="m106.889 168.623 3.666 4.334 2.334 4.666-.334 6.667-1.333 6.667-2.333 5.666.666 3 3.36-.099 3.833-2.25 3.084-4.167 1.666-4.916s.809-3.712.391-5.234c-.365-1.325-1-5.334-1-5.334l-1.334-4-3.333-3-3-2z" fill="url(#d)"/></g></g></svg>