<svg enable-background="new 0 0 219.10 195.00" height="195" viewBox="0 0 219.1 195" width="219.1" xmlns="http://www.w3.org/2000/svg" xmlns:xlink="http://www.w3.org/1999/xlink"><linearGradient id="a" gradientUnits="objectBoundingBox" x1=".00000921285" x2="1.00001" y1=".499999" y2=".499999"><stop offset="0" stop-color="#8eb044"/><stop offset=".344186" stop-color="#586b2f"/><stop offset="1" stop-color="#23271b"/></linearGradient><linearGradient id="b" gradientUnits="objectBoundingBox" x1="-.00532792" x2=".985907" y1=".500365" y2=".500365"><stop offset="0" stop-color="#5f703b"/><stop offset=".586047" stop-color="#80974d"/><stop offset="1" stop-color="#23271b"/></linearGradient><linearGradient id="c"><stop offset="0" stop-color="#9bc049"/><stop offset="1" stop-color="#23271b"/></linearGradient><linearGradient id="d" gradientTransform="matrix(0 -1 1 0 -.518735 1.518689)" gradientUnits="objectBoundingBox" x1=".499977" x2="1.53735" xlink:href="#c" y1="1.01871" y2="1.01871"/><linearGradient id="e" gradientTransform="matrix(0 -1 1 0 -.518763 1.518713)" gradientUnits="objectBoundingBox" x1=".499975" x2="1.53737" xlink:href="#c" y1="1.01874" y2="1.01874"/><linearGradient id="f" gradientTransform="matrix(0 -1 1 0 -.518764 1.518712)" gradientUnits="objectBoundingBox" x1=".499974" x2="1.53737" xlink:href="#c" y1="1.01874" y2="1.01874"/><linearGradient id="g" gradientTransform="matrix(0 -1 1 0 -.518769 1.518707)" gradientUnits="objectBoundingBox" x1=".499969" x2="1.53737" xlink:href="#c" y1="1.01874" y2="1.01874"/><g stroke-linejoin="round"><path d="m205.601.249939 0 0c7.317 0 13.25 5.932371 13.25 13.249961v168.0001c0 7.318-5.933 13.25-13.25 13.25l0 0c-7.318 0-13.25-5.932-13.25-13.25v-168.0001c0-7.31759 5.932-13.249961 13.25-13.249961z" fill="url(#a)" stroke="#000" stroke-width=".5"/><path d="m19.4624 13.5703 171.6256-.1255c-.001.0002 2.375 20.729-.125 169.1042l-171.5006 1.021c-8.2842.05-15-6.716-15-15v-139.9997c0-8.2845 6.7156-15 15-15z" fill="url(#b)" stroke="#000" stroke-width="2"/><g stroke-width=".2"><path d="m38.7773 54.2861h101.1167c2.637 0 4.775 2.1382 4.775 4.7751l0 0c0 2.6375-2.138 4.7757-4.775 4.7757h-101.1167c-2.6372 0-4.7751-2.1382-4.7751-4.7757l0 0c0-2.6369 2.1379-4.7751 4.7751-4.7751z" fill="url(#d)"/><path d="m38.7773 74.2861h101.1167c2.637 0 4.775 2.1379 4.775 4.7749l0 0c0 2.6377-2.138 4.7756-4.775 4.7756h-101.1167c-2.6372 0-4.7751-2.1379-4.7751-4.7756l0 0c0-2.637 2.1379-4.7749 4.7751-4.7749z" fill="url(#e)"/><path d="m38.7773 94.2858h101.1167c2.637 0 4.775 2.138 4.775 4.7752l0 0c0 2.637-2.138 4.775-4.775 4.775h-101.1167c-2.6372 0-4.7751-2.138-4.7751-4.775l0 0c0-2.6372 2.1379-4.7752 4.7751-4.7752z" fill="url(#e)"/><path d="m38.7776 114.286h101.1164c2.637 0 4.775 2.138 4.775 4.775l0 0c0 2.638-2.138 4.776-4.775 4.776h-101.1164c-2.6372 0-4.7752-2.138-4.7752-4.776l0 0c0-2.637 2.138-4.775 4.7752-4.775z" fill="url(#f)"/><path d="m38.7776 134.286h101.1164c2.637 0 4.775 2.138 4.775 4.775l0 0c0 2.637-2.138 4.775-4.775 4.775h-101.1164c-2.6372 0-4.7752-2.138-4.7752-4.775l0 0c0-2.637 2.138-4.775 4.7752-4.775z" fill="url(#g)"/></g></g></svg>