<svg enable-background="new 0 0 219.10 195.00" height="195" viewBox="0 0 219.1 195" width="219.1" xmlns="http://www.w3.org/2000/svg" xmlns:xlink="http://www.w3.org/1999/xlink"><linearGradient id="a" gradientUnits="objectBoundingBox" x1=".00000921285" x2="1.00001" y1=".499999" y2=".499999"><stop offset="0" stop-color="#8eb044"/><stop offset=".344186" stop-color="#586b2f"/><stop offset="1" stop-color="#23271b"/></linearGradient><linearGradient id="b" gradientTransform="matrix(-1 0 0 -1 2.037732 1.000052)" gradientUnits="objectBoundingBox" x1="1.01887" x2="2.05634" y1=".500026" y2=".500026"><stop offset="0" stop-color="#9bc049"/><stop offset="1" stop-color="#23271b"/></linearGradient><path d="m205.6.250427 0 0c7.318 0 13.25 5.932373 13.25 13.249973v167.9996c0 7.318-5.932 13.25-13.25 13.25l0 0c-7.318 0-13.25-5.932-13.25-13.25v-167.9996c0-7.3176 5.932-13.249973 13.25-13.249973z" fill="url(#a)" stroke="#000" stroke-linejoin="round" stroke-width=".5"/><path d="m200.543 184.519v-176.95046c0-2.63696 2.138-4.7749 4.776-4.7749l0 0c2.637 0 4.774 2.13794 4.774 4.7749v176.95046c0 2.637-2.137 4.775-4.774 4.775l0 0c-2.638 0-4.776-2.138-4.776-4.775z" fill="url(#b)" stroke-linejoin="round" stroke-width=".2"/></svg>