<svg enable-background="new 0 0 257.00 257.00" height="257" viewBox="0 0 257 257" width="257" xmlns="http://www.w3.org/2000/svg" xmlns:xlink="http://www.w3.org/1999/xlink"><linearGradient id="a" gradientTransform="matrix(0 -1 1 0 -.667305 1.667307)" gradientUnits="objectBoundingBox" x1=".500001" x2="1.44578" y1="1.16731" y2="1.16731"><stop offset="0" stop-color="#b4b9b4"/><stop offset=".0977598" stop-color="#7a7d7a"/><stop offset=".367442" stop-color="#404240"/><stop offset="1" stop-color="#b2b9b2"/></linearGradient><linearGradient id="b" gradientTransform="matrix(0 -1 1 0 -.693998 1.694)" gradientUnits="objectBoundingBox" x1=".500001" x2="1.48361" y1="1.194" y2="1.194"><stop offset="0" stop-color="#f4f4f4"/><stop offset=".0977598" stop-color="#afb2af"/><stop offset=".367442" stop-color="#6b706b"/><stop offset="1" stop-color="#dde7dd"/></linearGradient><linearGradient id="c"><stop offset="0" stop-color="#646564"/><stop offset=".0977598" stop-color="#3a3b3a"/><stop offset=".367442" stop-color="#111"/><stop offset="1" stop-color="#3b3b3b"/></linearGradient><linearGradient id="d" gradientTransform="matrix(0 -1 1 0 -.683748 1.68375)" gradientUnits="objectBoundingBox" x1=".500001" x2="1.46908" xlink:href="#c" y1="1.18375" y2="1.18375"/><linearGradient id="e" gradientTransform="matrix(0 -1 1 0 -.694004 1.694006)" gradientUnits="objectBoundingBox" x1=".500001" x2="1.48361" xlink:href="#c" y1="1.194" y2="1.194"/><linearGradient id="f"><stop offset="0" stop-color="#8c9d8c"/><stop offset=".0977598" stop-color="#87a087"/><stop offset=".367442" stop-color="#83a483"/><stop offset="1" stop-color="#90b290"/></linearGradient><linearGradient id="g" gradientTransform="matrix(0 -1 1 0 -.671616 1.671616)" gradientUnits="objectBoundingBox" x1=".5" x2="1.45188" xlink:href="#f" y1="1.17162" y2="1.17162"/><linearGradient id="h"><stop offset="0" stop-color="#8ca48c"/><stop offset=".0977598" stop-color="#617661"/><stop offset=".367442" stop-color="#364936"/><stop offset="1" stop-color="#719671"/></linearGradient><linearGradient id="i" gradientTransform="matrix(0 -1 1 0 -.694003 1.694003)" gradientUnits="objectBoundingBox" x1=".5" x2="1.48361" xlink:href="#h" y1="1.194" y2="1.194"/><linearGradient id="j" gradientTransform="matrix(0 -1 1 0 -.671619 1.671619)" gradientUnits="objectBoundingBox" x1=".5" x2="1.45189" xlink:href="#f" y1="1.17162" y2="1.17162"/><linearGradient id="k" gradientTransform="matrix(0 -1 1 0 -.694006 1.694006)" gradientUnits="objectBoundingBox" x1=".5" x2="1.48362" xlink:href="#h" y1="1.19401" y2="1.19401"/><linearGradient id="l" gradientTransform="matrix(0 -1 1 0 -.671619 1.671619)" gradientUnits="objectBoundingBox" x1=".5" x2="1.45189" y1="1.17162" y2="1.17162"><stop offset=".0232558" stop-color="#f8856e"/><stop offset=".114828" stop-color="#f86043"/><stop offset=".367442" stop-color="#f83c19"/><stop offset="1" stop-color="#ff7a5f"/></linearGradient><linearGradient id="m" gradientTransform="matrix(0 -1 1 0 -.694006 1.694006)" gradientUnits="objectBoundingBox" x1=".5" x2="1.48362" y1="1.19401" y2="1.19401"><stop offset="0" stop-color="#d58878"/><stop offset=".0977598" stop-color="#c35e4a"/><stop offset=".367442" stop-color="#b2341c"/><stop offset="1" stop-color="#c07a6c"/></linearGradient><g stroke-linejoin="round"><path d="m42.2941 17.7143h170.9999c14.912 0 27 12.0881 27 27v170.9997c0 14.912-12.088 27-27 27h-170.9999c-14.9117 0-27-12.088-27-27v-170.9997c0-14.9119 12.0883-27 27-27z" fill="url(#b)" stroke="url(#a)" stroke-width="9"/><g stroke-width="3"><path d="m42.7529 29.0851h170.0001c8.284 0 15 6.7161 15 15v169.9989c0 8.284-6.716 15-15 15h-170.0001c-8.2843 0-15-6.716-15-15v-169.9989c0-8.2839 6.7157-15 15-15z" fill="url(#e)" stroke="url(#d)"/><path d="m47.2531 34.0854h59.9999c8.284 0 15 6.7158 15 15.0002v59.9994c0 8.285-6.716 15-15 15h-59.9999c-8.2842 0-15-6.715-15-15v-59.9994c0-8.2844 6.7158-15.0002 15-15.0002z" fill="url(#i)" stroke="url(#g)"/><path d="m147.253 33.5856h60c8.284 0 15 6.7158 15 15.0005v59.9989c0 8.285-6.716 15-15 15h-60c-8.284 0-15-6.715-15-15v-59.9989c0-8.2847 6.716-15.0005 15-15.0005z" fill="url(#i)" stroke="url(#g)"/><path d="m47.2531 133.585h59.9999c8.284 0 15 6.716 15 15v60c0 8.284-6.716 15-15 15h-59.9999c-8.2843 0-15-6.716-15-15v-60c0-8.284 6.7157-15 15-15z" fill="url(#k)" stroke="url(#j)"/><path d="m147.253 132.585h60c8.284 0 15 6.716 15 15v60c0 8.284-6.716 15-15 15h-60c-8.284 0-15-6.716-15-15v-60c0-8.284 6.716-15 15-15z" fill="url(#m)" stroke="url(#l)"/></g><path d="m70.1198 101.985v-20.1601h-19.3951v-8.6399h19.3951v-19.2h8.64v19.2h19.5899v8.6399h-19.5899v20.1601z" fill="#fff" stroke="#000"/><path d="m160.882 74.3249h26.8799v11.5203h-26.8799z" fill="#fff" stroke="#000"/><path d="m85.0148 194.84-7.965 4.365-4.7999-9.45-4.8001 9.45-7.98-4.365 5.58-10.995h-12.105v-8.64h11.8051l-5.37-11.28 7.875-4.08 4.995 10.035 5.0849-10.035 7.965 4.275-5.6699 11.085h11.7149v8.64h-11.895z" fill="#fff" stroke="#000"/><path d="m152.575 192.085v-8.64h47.715v8.64zm0-19.2v-8.64h47.715v8.64z" fill="#fff" stroke="#000"/></g></svg>