<svg enable-background="new 0 0 257.00 257.00" height="257" viewBox="0 0 257 257" width="257" xmlns="http://www.w3.org/2000/svg" xmlns:xlink="http://www.w3.org/1999/xlink"><linearGradient id="a" gradientTransform="matrix(0 -1 1 0 -.667303 1.667305)" gradientUnits="objectBoundingBox" x1=".500001" x2="1.44578" y1="1.1673" y2="1.1673"><stop offset="0" stop-color="#b4b9b4"/><stop offset=".0977598" stop-color="#7a7d7a"/><stop offset=".367442" stop-color="#404240"/><stop offset="1" stop-color="#b2b9b2"/></linearGradient><linearGradient id="b" gradientTransform="matrix(0 -1 1 0 -.693995 1.693997)" gradientUnits="objectBoundingBox" x1=".500001" x2="1.48361" y1="1.194" y2="1.194"><stop offset="0" stop-color="#f4f4f4"/><stop offset=".0977598" stop-color="#afb2af"/><stop offset=".367442" stop-color="#6b706b"/><stop offset="1" stop-color="#dde7dd"/></linearGradient><linearGradient id="c"><stop offset="0" stop-color="#646564"/><stop offset=".0977598" stop-color="#3a3b3a"/><stop offset=".367442" stop-color="#111"/><stop offset="1" stop-color="#3b3b3b"/></linearGradient><linearGradient id="d" gradientTransform="matrix(0 -1 1 0 -.683748 1.683748)" gradientUnits="objectBoundingBox" x1=".5" x2="1.46907" xlink:href="#c" y1="1.18375" y2="1.18375"/><linearGradient id="e" gradientTransform="matrix(0 -1 1 0 -.694004 1.694004)" gradientUnits="objectBoundingBox" x1=".5" x2="1.48361" xlink:href="#c" y1="1.194" y2="1.194"/><linearGradient id="f"><stop offset="0" stop-color="#8c9d8c"/><stop offset=".0977598" stop-color="#87a087"/><stop offset=".367442" stop-color="#83a483"/><stop offset="1" stop-color="#90b290"/></linearGradient><linearGradient id="g" gradientTransform="matrix(0 -1 1 0 -.671616 1.671616)" gradientUnits="objectBoundingBox" x1=".5" x2="1.45189" xlink:href="#f" y1="1.17162" y2="1.17162"/><linearGradient id="h"><stop offset="0" stop-color="#8ca48c"/><stop offset=".0977598" stop-color="#617661"/><stop offset=".367442" stop-color="#364936"/><stop offset="1" stop-color="#719671"/></linearGradient><linearGradient id="i" gradientTransform="matrix(0 -1 1 0 -.694004 1.694004)" gradientUnits="objectBoundingBox" x1=".5" x2="1.48362" xlink:href="#h" y1="1.194" y2="1.194"/><linearGradient id="j" gradientTransform="matrix(0 -1 1 0 -.671618 1.67162)" gradientUnits="objectBoundingBox" x1=".500001" x2="1.45189" xlink:href="#f" y1="1.17162" y2="1.17162"/><linearGradient id="k" gradientTransform="matrix(0 -1 1 0 -.694006 1.694008)" gradientUnits="objectBoundingBox" x1=".500001" x2="1.48362" xlink:href="#h" y1="1.19401" y2="1.19401"/><linearGradient id="l" gradientTransform="matrix(0 -1 1 0 -.671615 1.671617)" gradientUnits="objectBoundingBox" x1=".500001" x2="1.45188" xlink:href="#f" y1="1.17162" y2="1.17162"/><linearGradient id="m" gradientTransform="matrix(0 -1 1 0 -.694002 1.694004)" gradientUnits="objectBoundingBox" x1=".500001" x2="1.48361" xlink:href="#h" y1="1.194" y2="1.194"/><linearGradient id="n" gradientTransform="matrix(0 -1 1 0 -.671615 1.671617)" gradientUnits="objectBoundingBox" x1=".500001" x2="1.45188" y1="1.17162" y2="1.17162"><stop offset=".0232558" stop-color="#f8856e"/><stop offset=".114828" stop-color="#f86043"/><stop offset=".367442" stop-color="#f83c19"/><stop offset="1" stop-color="#ff7a5f"/></linearGradient><linearGradient id="o" gradientTransform="matrix(0 -1 1 0 -.694002 1.694004)" gradientUnits="objectBoundingBox" x1=".500001" x2="1.48361" y1="1.194" y2="1.194"><stop offset="0" stop-color="#d58878"/><stop offset=".0977598" stop-color="#c35e4a"/><stop offset=".367442" stop-color="#b2341c"/><stop offset="1" stop-color="#c07a6c"/></linearGradient><g stroke-linejoin="round"><path d="m42.0012 17.6717h170.9998c14.912 0 27 12.0881 27 27v170.9993c0 14.913-12.088 27.001-27 27.001h-170.9998c-14.9116 0-27-12.088-27-27.001v-170.9993c0-14.9119 12.0884-27 27-27z" fill="url(#b)" stroke="url(#a)" stroke-width="9"/><g stroke-width="3"><path d="m42.4601 29.0413h169.9999c8.285 0 15 6.7163 15 15v169.9997c0 8.284-6.715 15-15 15h-169.9999c-8.2843 0-15-6.716-15-15v-169.9997c0-8.2837 6.7157-15 15-15z" fill="url(#e)" stroke="url(#d)"/><path d="m46.9602 34.0428h59.9998c8.284 0 15 6.7158 15 15v59.9992c0 8.284-6.716 15-15 15h-59.9998c-8.2842 0-15-6.716-15-15v-59.9992c0-8.2842 6.7158-15 15-15z" fill="url(#i)" stroke="url(#g)"/><path d="m146.96 33.543h60c8.284 0 15 6.7159 15 15v60c0 8.284-6.716 14.999-15 14.999h-60c-8.284 0-15-6.715-15-14.999v-60c0-8.2841 6.716-15 15-15z" fill="url(#k)" stroke="url(#j)"/><path d="m46.9602 133.542h59.9998c8.284 0 15 6.716 15 15v60c0 8.284-6.716 15-15 15h-59.9998c-8.2843 0-15-6.716-15-15v-60c0-8.284 6.7157-15 15-15z" fill="url(#m)" stroke="url(#l)"/><path d="m146.96 132.542h60c8.284 0 15 6.716 15 15v60c0 8.284-6.716 15-15 15h-60c-8.284 0-15-6.716-15-15v-60c0-8.284 6.716-15 15-15z" fill="url(#o)" stroke="url(#n)"/></g><path d="m69.8269 101.942v-20.1599h-19.395v-8.6402h19.395v-19.1997h8.64v19.1997h19.59v8.6402h-19.59v20.1599z" fill="#fff" stroke="#000"/><path d="m160.589 74.2821h26.8799v11.52h-26.8799z" fill="#fff" stroke="#000"/><path d="m84.7219 194.797-7.9649 4.365-4.8-9.45-4.8 9.45-7.98-4.365 5.58-10.995h-12.105v-8.64h11.805l-5.37-11.28 7.875-4.08 4.995 10.035 5.085-10.035 7.965 4.275-5.67 11.085h11.715v8.64h-11.895z" fill="#fff" stroke="#000"/><path d="m152.282 192.042v-8.64h47.715v8.64zm0-19.2v-8.64h47.715v8.64z" fill="#fff" stroke="#000"/><path d="m217.11 126.105c8.966 0 15.662 2.349 20.087 7.05 4.425 4.7 6.638 10.791 6.638 18.275 0 5.45-1.359 10.337-4.075 14.662-2.717 4.325-7.275 7.88-13.675 10.663l-60.475 26.449c-1.817.851-3.313 1.972-4.488 3.363-1.175 1.392-1.762 2.996-1.762 4.813v5.925h81.75v19.2h-101.1v-25.375c0-1.717.212-3.696.637-5.938.425-2.241 1.275-4.512 2.55-6.812 1.275-2.301 3.088-4.575 5.438-6.825s5.391-4.184 9.125-5.8l60.8-26.475c2.033-.867 3.554-2.076 4.562-3.625 1.008-1.55 1.513-3.076 1.513-4.576 0-1.716-.48-3.107-1.438-4.174s-2.821-1.6-5.587-1.6h-73.45v-19.2z" fill="#32e01d" stroke="#000" stroke-width="2"/></g></svg>