<svg enable-background="new 0 0 257.00 257.00" height="257" viewBox="0 0 257 257" width="257" xmlns="http://www.w3.org/2000/svg" xmlns:xlink="http://www.w3.org/1999/xlink"><linearGradient id="a" gradientTransform="matrix(.549295387094 .835628253303 -.835628253303 .549295387094 .216916829298 -.081914342103)" gradientUnits="objectBoundingBox" x1=".184395" x2="1.11201" y1=".16013" y2=".16013"><stop offset="0" stop-color="#b7c0b8"/><stop offset="1" stop-color="#fff"/></linearGradient><linearGradient id="b"><stop offset="0" stop-color="#87af06"/><stop offset="1" stop-color="#afd27b"/></linearGradient><linearGradient id="c" gradientTransform="matrix(0 -1 1 0 -2.006341 3.006341)" gradientUnits="objectBoundingBox" x1=".5" x2="4.51268" xlink:href="#b" y1="2.50634" y2="2.50634"/><linearGradient id="d"><stop offset="0" stop-color="#f4f5f3"/><stop offset="1" stop-color="#b7bdb0"/></linearGradient><linearGradient id="e" gradientTransform="matrix(0 -1 1 0 -2.118451 3.118451)" gradientUnits="objectBoundingBox" x1=".5" x2="4.7369" xlink:href="#d" y1="2.61845" y2="2.61845"/><linearGradient id="f" gradientTransform="matrix(0 -1 1 0 -2.006324 3.006324)" gradientUnits="objectBoundingBox" x1=".5" x2="4.51266" xlink:href="#b" y1="2.50632" y2="2.50632"/><linearGradient id="g"><stop offset="0" stop-color="#f4f5f3"/><stop offset="1" stop-color="#e5f8c9"/></linearGradient><linearGradient id="h" gradientTransform="matrix(0 -1 1 0 -2.118433 3.118433)" gradientUnits="objectBoundingBox" x1=".5" x2="4.73688" xlink:href="#g" y1="2.61843" y2="2.61843"/><linearGradient id="i" gradientTransform="matrix(0 -1 1 0 -2.006341 3.006341)" gradientUnits="objectBoundingBox" x1=".5" x2="4.51269" xlink:href="#b" y1="2.50634" y2="2.50634"/><linearGradient id="j" gradientTransform="matrix(0 -1 1 0 -2.118451 3.118451)" gradientUnits="objectBoundingBox" x1=".5" x2="4.73691" xlink:href="#d" y1="2.61845" y2="2.61845"/><linearGradient id="k" gradientTransform="matrix(0 -1 1 0 -2.118451 3.118451)" gradientUnits="objectBoundingBox" x1=".5" x2="4.73691" xlink:href="#g" y1="2.61845" y2="2.61845"/><linearGradient id="l"><stop offset="0" stop-color="#3f542a"/><stop offset=".474419" stop-color="#d0d5cb"/><stop offset="1" stop-color="#0f1505"/></linearGradient><linearGradient id="m" gradientTransform="matrix(0 -1 1 0 -2.014261 3.014261)" gradientUnits="objectBoundingBox" x1=".5" x2="4.52854" xlink:href="#l" y1="2.51426" y2="2.51426"/><linearGradient id="n"><stop offset="0" stop-color="#daf5bf"/><stop offset="1" stop-color="#1d2314"/></linearGradient><linearGradient id="o" gradientTransform="matrix(0 -1 1 0 -2.203097 3.203097)" gradientUnits="objectBoundingBox" x1=".5" x2="4.90622" xlink:href="#n" y1="2.7031" y2="2.7031"/><filter id="p" filterUnits="userSpaceOnUse"><feGaussianBlur stdDeviation="2.64567"/></filter><linearGradient id="q" gradientTransform="matrix(0 -1 1 0 -2.014282 3.014282)" gradientUnits="objectBoundingBox" x1=".5" x2="4.52854" xlink:href="#l" y1="2.51428" y2="2.51428"/><linearGradient id="r" gradientTransform="matrix(0 -1 1 0 -2.20312 3.20312)" gradientUnits="objectBoundingBox" x1=".5" x2="4.90622" xlink:href="#n" y1="2.70312" y2="2.70312"/><filter id="s" filterUnits="userSpaceOnUse"><feGaussianBlur stdDeviation="3.02362"/></filter><linearGradient id="t" gradientTransform="matrix(0 -1 1 0 -2.014292 3.014294)" gradientUnits="objectBoundingBox" x1=".500001" x2="4.52863" xlink:href="#l" y1="2.51429" y2="2.51429"/><linearGradient id="u" gradientTransform="matrix(0 -1 1 0 -2.203135 3.203137)" gradientUnits="objectBoundingBox" x1=".500001" x2="4.90632" xlink:href="#n" y1="2.70314" y2="2.70314"/><linearGradient id="v" gradientTransform="matrix(0 -1 1 0 -2.014293 3.014293)" gradientUnits="objectBoundingBox" x1=".5" x2="4.52863" xlink:href="#l" y1="2.51429" y2="2.51429"/><linearGradient id="w" gradientTransform="matrix(0 -1 1 0 -2.203136 3.203136)" gradientUnits="objectBoundingBox" x1=".5" x2="4.90632" xlink:href="#n" y1="2.70314" y2="2.70314"/><linearGradient id="x" gradientTransform="matrix(0 -1 1 0 -2.014156 3.014158)" gradientUnits="objectBoundingBox" x1=".500001" x2="4.52854" xlink:href="#l" y1="2.51416" y2="2.51416"/><linearGradient id="y" gradientTransform="matrix(0 -1 1 0 -2.202981 3.202983)" gradientUnits="objectBoundingBox" x1=".500001" x2="4.90622" xlink:href="#n" y1="2.70298" y2="2.70298"/><linearGradient id="z" gradientTransform="matrix(0 -1 1 0 -2.014185 3.014191)" gradientUnits="objectBoundingBox" x1=".500003" x2="4.52863" xlink:href="#l" y1="2.51419" y2="2.51419"/><linearGradient id="A" gradientTransform="matrix(0 -1 1 0 -2.203018 3.203024)" gradientUnits="objectBoundingBox" x1=".500003" x2="4.90632" xlink:href="#n" y1="2.70302" y2="2.70302"/><linearGradient id="B" gradientTransform="matrix(0 -1 1 0 -2.014303 3.014303)" gradientUnits="objectBoundingBox" x1=".5" x2="4.52854" xlink:href="#l" y1="2.5143" y2="2.5143"/><linearGradient id="C" gradientTransform="matrix(0 -1 1 0 -2.203142 3.203142)" gradientUnits="objectBoundingBox" x1=".5" x2="4.90622" xlink:href="#n" y1="2.70314" y2="2.70314"/><linearGradient id="D" gradientTransform="matrix(0 -1 1 0 -2.014166 3.014168)" gradientUnits="objectBoundingBox" x1=".500001" x2="4.52863" xlink:href="#l" y1="2.51417" y2="2.51417"/><linearGradient id="E" gradientTransform="matrix(0 -1 1 0 -2.202997 3.202999)" gradientUnits="objectBoundingBox" x1=".500001" x2="4.90632" xlink:href="#n" y1="2.703" y2="2.703"/><linearGradient id="F" gradientTransform="matrix(0 -1 1 0 -2.014253 3.014249)" gradientUnits="objectBoundingBox" x1=".499998" x2="4.52846" xlink:href="#l" y1="2.51425" y2="2.51425"/><linearGradient id="G" gradientTransform="matrix(0 -1 1 0 -2.203083 3.203079)" gradientUnits="objectBoundingBox" x1=".499998" x2="4.90611" xlink:href="#n" y1="2.70308" y2="2.70308"/><linearGradient id="H" gradientTransform="matrix(0 -1 1 0 -2.014127 3.014145)" gradientUnits="objectBoundingBox" x1=".500009" x2="4.52855" xlink:href="#l" y1="2.51414" y2="2.51414"/><linearGradient id="I" gradientTransform="matrix(0 -1 1 0 -2.20295 3.20297)" gradientUnits="objectBoundingBox" x1=".50001" x2="4.90623" xlink:href="#n" y1="2.70296" y2="2.70296"/><linearGradient id="J" gradientUnits="objectBoundingBox" x1="-.0246934" x2="1.02469" y1=".5" y2=".5"><stop offset="0"/><stop offset=".0868217" stop-color="#080123"/><stop offset=".167442" stop-color="#100346" stop-opacity=".996078"/><stop offset=".525581" stop-color="#110be7" stop-opacity=".996078"/><stop offset=".87907" stop-color="#150346" stop-opacity=".996078"/><stop offset="1"/></linearGradient><g stroke-linejoin="round"><path d="m18.4224 6.32755h189.9996c2.209 0 4 1.79077 4 3.99995v227.3335c0 2.209-1.791 4-4 4h-189.9996c-2.2093 0-4-1.791-4-4v-227.3335c0-2.20918 1.7907-3.99995 4-3.99995z" fill="url(#a)" stroke="#036400" stroke-width="5"/><g stroke-width="2"><path d="m39.9222 23.3278h147.9998c2.209 0 4 1.7908 4 4v27.7922c0 2.2093-1.791 4-4 4h-147.9998c-2.2091 0-4-1.7907-4-4v-27.7922c0-2.2092 1.7909-4 4-4z" fill="url(#e)" stroke="url(#c)"/><path d="m39.9222 64.0656h147.9998c2.209 0 4 1.7908 4 4v27.7922c0 2.2092-1.791 4.0003-4 4.0003h-147.9998c-2.2091 0-4-1.7911-4-4.0003v-27.7922c0-2.2092 1.7909-4 4-4z" fill="url(#h)" stroke="url(#f)"/><path d="m40.4222 105.51h147.9998c2.209 0 4 1.791 4 4v27.792c0 2.209-1.791 4-4 4h-147.9998c-2.2091 0-4-1.791-4-4v-27.792c0-2.209 1.7909-4 4-4z" fill="url(#j)" stroke="url(#i)"/><path d="m40.7556 146.326h148.0004c2.209 0 4 1.791 4 4v27.792c0 2.21-1.791 4.001-4 4.001h-148.0004c-2.2091 0-4-1.791-4-4.001v-27.792c0-2.209 1.7909-4 4-4z" fill="url(#k)" stroke="url(#i)"/><path d="m40.4222 187.535h147.9998c2.209 0 4 1.791 4 4v27.792c0 2.209-1.791 4-4 4h-147.9998c-2.2091 0-4-1.791-4-4v-27.792c0-2.209 1.7909-4 4-4z" fill="url(#j)" stroke="url(#i)"/></g><path d="m51.7556 36.4943h38c1.1045 0 2 .8955 2 2v6.6667c0 1.1045-.8955 2-2 2h-38c-1.1046 0-2-.8955-2-2v-6.6667c0-1.1045.8954-2 2-2z" fill="url(#o)" filter="url(#p)" stroke="url(#m)"/><path d="m99.5889 36.2858h27.7501c1.104 0 2 .8955 2 2v6.6667c0 1.1045-.896 2-2 2h-27.7501c-1.1045 0-2-.8955-2-2v-6.6667c0-1.1045.8955-2 2-2z" fill="url(#r)" filter="url(#s)" stroke="url(#q)"/><path d="m137.672 36.3278h38c1.105 0 2 .8955 2 2v6.6665c0 1.1045-.895 2-2 2h-38c-1.104 0-2-.8955-2-2v-6.6665c0-1.1045.896-2 2-2z" fill="url(#u)" filter="url(#s)" stroke="url(#t)"/><path d="m50.6781 118.026h38c1.1046 0 2 .895 2 2v6.666c0 1.105-.8954 2-2 2h-38c-1.1046 0-2-.895-2-2v-6.666c0-1.105.8954-2 2-2z" fill="url(#o)" filter="url(#p)" stroke="url(#m)"/><path d="m98.5115 117.817h27.7495c1.105 0 2 .896 2 2v6.667c0 1.104-.895 2-2 2h-27.7495c-1.1046 0-2-.896-2-2v-6.667c0-1.104.8954-2 2-2z" fill="url(#r)" filter="url(#s)" stroke="url(#q)"/><path d="m136.595 117.859h38c1.104 0 2 .896 2 2v6.667c0 1.104-.896 2-2 2h-38c-1.105 0-2-.896-2-2v-6.667c0-1.104.895-2 2-2z" fill="url(#w)" filter="url(#s)" stroke="url(#v)"/><path d="m51.6781 200.026h38c1.1046 0 2 .895 2 2v6.666c0 1.105-.8954 2-2 2h-38c-1.1046 0-2-.895-2-2v-6.666c0-1.105.8954-2 2-2z" fill="url(#o)" filter="url(#p)" stroke="url(#m)"/><path d="m99.5115 199.817h27.7495c1.105 0 2 .896 2 2v6.667c0 1.104-.895 2-2 2h-27.7495c-1.1046 0-2-.896-2-2v-6.667c0-1.104.8954-2 2-2z" fill="url(#r)" filter="url(#s)" stroke="url(#q)"/><path d="m137.595 199.859h38c1.104 0 2 .896 2 2v6.667c0 1.104-.896 2-2 2h-38c-1.105 0-2-.896-2-2v-6.667c0-1.104.895-2 2-2z" fill="url(#w)" filter="url(#s)" stroke="url(#v)"/><path d="m72.6781 78.6935h36.1599c1.105 0 2 .8955 2 2v6.6668c0 1.1045-.895 2-2 2h-36.1599c-1.1046 0-2-.8955-2-2v-6.6668c0-1.1045.8954-2 2-2z" fill="url(#y)" filter="url(#p)" stroke="url(#x)"/><path d="m122.505 78.4836h30.333c1.105 0 2 .8955 2 2v6.6667c0 1.1045-.895 2-2 2h-30.333c-1.104 0-2-.8955-2-2v-6.6667c0-1.1045.896-2 2-2z" fill="url(#r)" filter="url(#s)" stroke="url(#q)"/><path d="m161.672 78.527h14.666c1.105 0 2 .8955 2 2v6.6665c0 1.1045-.895 2-2 2h-14.666c-1.105 0-2-.8955-2-2v-6.6665c0-1.1045.895-2 2-2z" fill="url(#A)" filter="url(#s)" stroke="url(#z)"/><path d="m51.234 78.8681h12.6045c1.1045 0 2 .8955 2 2v6.6667c0 1.1045-.8955 2-2 2h-12.6045c-1.1046 0-2-.8955-2-2v-6.6667c0-1.1045.8954-2 2-2z" fill="url(#C)" filter="url(#s)" stroke="url(#B)"/><path d="m72.6006 158.892h36.1604c1.104 0 2 .895 2 2v6.666c0 1.105-.896 2-2 2h-36.1604c-1.1045 0-2-.895-2-2v-6.666c0-1.105.8955-2 2-2z" fill="url(#E)" filter="url(#p)" stroke="url(#D)"/><path d="m122.428 158.681h30.333c1.104 0 2 .896 2 2v6.667c0 1.105-.896 2-2 2h-30.333c-1.105 0-2-.895-2-2v-6.667c0-1.104.895-2 2-2z" fill="url(#G)" filter="url(#s)" stroke="url(#F)"/><path d="m161.594 158.725h14.667c1.104 0 2 .896 2 2v6.667c0 1.104-.896 2-2 2h-14.667c-1.104 0-2-.896-2-2v-6.667c0-1.104.896-2 2-2z" fill="url(#I)" filter="url(#s)" stroke="url(#H)"/><path d="m51.1565 159.066h12.6045c1.1045 0 2 .896 2 2v6.667c0 1.104-.8955 2-2 2h-12.6045c-1.1045 0-2-.896-2-2v-6.667c0-1.104.8955-2 2-2z" fill="url(#r)" filter="url(#s)" stroke="url(#q)"/><path d="m206.422 75.9008v108.1662h-14.891l30.54 44.166 30.793-44.166-14.892-.265-.252-108.1656z" fill="url(#J)" stroke="#000" stroke-width="3"/></g></svg>