<?xml version="1.0" encoding="utf-8"?>
<!DOCTYPE svg PUBLIC "-//W3C//DTD SVG 1.1//EN" "http://www.w3.org/Graphics/SVG/1.1/DTD/svg11.dtd">
<svg x="0" y="0" width="58" height="58.08908" overflow="hidden" viewBox="0, 0, 78.13, 78.25"
     preserveAspectRatio="xMidYMid" font-size="0" id="svg" xml:space="preserve" xmlns="http://www.w3.org/2000/svg"
     xmlns:xml="http://www.w3.org/XML/1998/namespace" version="1.1">
  <g xml:space="preserve">
    <path d="M11.5 0.499988 L66.625 0.499988 C72.7002 0.499988 77.625 5.42485 77.625 11.5 L77.625 66.75 C77.625 72.8251 72.7002 77.75 66.625 77.75 L11.5 77.75 C5.42487 77.75 0.5 72.8251 0.5 66.75 L0.5 11.5 C0.5 5.42485 5.42487 0.499988 11.5 0.499988 z" stroke="#000000" stroke-linejoin="round" xml:space="preserve" style="fill:#8C9E64;" />
    <linearGradient x1="0.5" y1="-2.34738" x2="6.19475" y2="-2.34738" gradientUnits="objectBoundingBox" gradientTransform="rotate(90, 0.5, -2.347377)" id="SVGID_Fill1_" xml:space="preserve">
      <stop offset="42.7907%" stop-color="#EEEAEA" stop-opacity="1" xml:space="preserve" />
      <stop offset="57.6744%" stop-color="#FFFFFF" stop-opacity="0" xml:space="preserve" />
    </linearGradient>
    <path d="M65.9047 0.85419 L12.0427 0.85419 C6.55368 0.85419 2.0257 5.06541 1.37503 10.5032 C2.66074 13.0152 5.23251 14.7292 8.19543 14.7292 L70.1183 14.7292 C72.8569 14.7292 75.2614 13.2649 76.625 11.0596 C76.2272 5.35539 71.5795 0.85419 65.9047 0.85419 z" stroke-width="0.2" stroke-linejoin="round" xml:space="preserve" style="fill:url(#SVGID_Fill1_);" />
  </g>
  <g xml:space="preserve">
    <path d="M16.0325 39.875 L5.11249 39.875 L5.11249 18.595 L7.91251 18.595 L7.91251 37.355 L16.0325 37.355 L16.0325 39.875 z" stroke-width="0.2" stroke-linejoin="round" xml:space="preserve" style="fill:#000000;" />
    <path d="M17.2925 29.4888 C17.2925 26.0763 18.2207 23.3609 20.0772 21.3425 C21.9336 19.3242 24.4471 18.315 27.6175 18.315 C30.5721 18.315 32.9499 19.3016 34.7509 21.2747 C36.552 23.2478 37.4525 25.8167 37.4525 28.9813 C37.4525 32.4113 36.5294 35.1311 34.6831 37.1406 C32.8369 39.1502 30.3679 40.155 27.2762 40.155 C24.2604 40.155 21.8425 39.1685 20.0225 37.1953 C18.2025 35.2222 17.2925 32.6534 17.2925 29.4888 z M20.0925 29.2569 C20.0925 31.7886 20.7567 33.8178 22.0853 35.3447 C23.4138 36.8716 25.1456 37.635 27.2806 37.635 C29.576 37.635 31.3785 36.9029 32.6881 35.4388 C33.9977 33.9746 34.6525 31.9271 34.6525 29.2963 C34.6525 26.5925 34.0115 24.5064 32.7296 23.0378 C31.4478 21.5693 29.6927 20.835 27.4644 20.835 C25.271 20.835 23.494 21.6101 22.1334 23.1603 C20.7728 24.7105 20.0925 26.7427 20.0925 29.2569 z" stroke-width="0.2" stroke-linejoin="round" xml:space="preserve" style="fill:#000000;" />
    <path d="M55.9325 38.685 C54.3633 39.665 52.396 40.155 50.0306 40.155 C46.9768 40.155 44.537 39.1932 42.7112 37.2697 C40.8854 35.3462 39.9725 32.8021 39.9725 29.6375 C39.9725 26.2367 40.9999 23.4994 43.0547 21.4256 C45.1095 19.3519 47.7191 18.315 50.8837 18.315 C52.9196 18.315 54.6025 18.7117 55.9325 19.505 L55.9325 22.025 C54.3983 21.2317 52.7125 20.835 50.875 20.835 C48.4833 20.835 46.535 21.6123 45.03 23.1669 C43.525 24.7215 42.7725 26.8186 42.7725 29.4581 C42.7725 31.9636 43.4747 33.9527 44.879 35.4256 C46.2834 36.8986 48.1202 37.635 50.3893 37.635 C52.5156 37.635 54.3633 37.145 55.9325 36.165 L55.9325 38.685 z" stroke-width="0.2" stroke-linejoin="round" xml:space="preserve" style="fill:#000000;" />
    <path d="M74.9725 39.875 L71.3325 39.875 L63.4925 30.25 C63.2504 29.9117 63.0841 29.6477 62.9937 29.4581 L62.9325 29.4581 L62.9325 39.875 L60.1325 39.875 L60.1325 18.595 L62.9325 18.595 L62.9325 28.5613 L62.9937 28.5613 C63.1308 28.3163 63.2971 28.0567 63.4925 27.7825 L71.0525 18.595 L74.4125 18.595 L65.7325 28.8019 L74.9725 39.875 z" stroke-width="0.2" stroke-linejoin="round" xml:space="preserve" style="fill:#000000;" />
  </g>
  <linearGradient x1="0.499967" y1="1.01871" x2="1.53738" y2="1.01871" gradientUnits="objectBoundingBox" gradientTransform="rotate(-90, 0.499967, 1.018705)" id="SVGID_Fill2_" xml:space="preserve">
    <stop offset="0%" stop-color="#FF0000" stop-opacity="1" xml:space="preserve" />
    <stop offset="100%" stop-color="#5E1515" stop-opacity="1" xml:space="preserve" />
  </linearGradient>
  <path d="M11.6514 56.7865 L66.4733 56.7865 C67.9032 56.7865 69.0624 57.9456 69.0624 59.3755 L69.0624 59.3755 C69.0624 60.8053 67.9032 61.9645 66.4733 61.9645 L11.6514 61.9645 C10.2216 61.9645 9.06241 60.8053 9.06241 59.3755 L9.06241 59.3755 C9.06241 57.9456 10.2216 56.7865 11.6514 56.7865 z" stroke-width="0.2" stroke-linejoin="round" xml:space="preserve" style="fill:url(#SVGID_Fill2_);" />
</svg>