<?xml version="1.0" encoding="utf-8"?>
<!DOCTYPE svg PUBLIC "-//W3C//DTD SVG 1.1//EN" "http://www.w3.org/Graphics/SVG/1.1/DTD/svg11.dtd">
<svg x="0" y="0" width="58" height="58.08908" overflow="hidden" viewBox="0, 0, 78.13, 78.25"
     preserveAspectRatio="xMidYMid" font-size="0" id="svg" xml:space="preserve" xmlns="http://www.w3.org/2000/svg"
     xmlns:xml="http://www.w3.org/XML/1998/namespace" version="1.1">
  <g xml:space="preserve">
    <path d="M11.5 0.499988 L66.625 0.499988 C72.7002 0.499988 77.625 5.42485 77.625 11.5 L77.625 66.75 C77.625 72.8251 72.7002 77.75 66.625 77.75 L11.5 77.75 C5.4249 77.75 0.5 72.8251 0.5 66.75 L0.5 11.5 C0.5 5.42485 5.4249 0.499988 11.5 0.499988 z" stroke="#000000" stroke-linejoin="round" xml:space="preserve" style="fill:#8C9E64;" />
    <linearGradient x1="0.5" y1="-2.34738" x2="6.19475" y2="-2.34738" gradientUnits="objectBoundingBox" gradientTransform="rotate(90, 0.5, -2.347377)" id="SVGID_Fill1_" xml:space="preserve">
      <stop offset="42.7907%" stop-color="#EEEAEA" stop-opacity="1" xml:space="preserve" />
      <stop offset="57.6744%" stop-color="#FFFFFF" stop-opacity="0" xml:space="preserve" />
    </linearGradient>
    <path d="M65.9047 0.85419 L12.0427 0.85419 C6.55368 0.85419 2.02573 5.06541 1.375 10.5032 C2.66074 13.0152 5.23251 14.7292 8.19543 14.7292 L70.1183 14.7292 C72.8569 14.7292 75.2614 13.2649 76.625 11.0596 C76.2272 5.35539 71.5796 0.85419 65.9047 0.85419 z" stroke-width="0.2" stroke-linejoin="round" xml:space="preserve" style="fill:url(#SVGID_Fill1_);" />
  </g>
  <g xml:space="preserve">
    <path d="M27.6725 38.685 C26.1033 39.665 24.136 40.155 21.7706 40.155 C18.7168 40.155 16.2771 39.1932 14.4512 37.2697 C12.6254 35.3462 11.7125 32.8021 11.7125 29.6375 C11.7125 26.2367 12.7399 23.4994 14.7946 21.4256 C16.8495 19.3519 19.4591 18.315 22.6237 18.315 C24.6595 18.315 26.3424 18.7117 27.6725 19.505 L27.6725 22.025 C26.1383 21.2317 24.4525 20.835 22.615 20.835 C20.2233 20.835 18.275 21.6123 16.77 23.1669 C15.265 24.7215 14.5125 26.8186 14.5125 29.4581 C14.5125 31.9636 15.2146 33.9527 16.619 35.4256 C18.0234 36.8986 19.8602 37.635 22.1294 37.635 C24.2556 37.635 26.1033 37.145 27.6725 36.165 L27.6725 38.685 z" stroke-width="0.2" stroke-linejoin="round" xml:space="preserve" style="fill:#000000;" />
    <path d="M48.3925 39.875 L45.3125 39.875 L43.1731 34.275 L34.4493 34.275 L32.4325 39.875 L29.3524 39.875 L37.4725 18.595 L40.2725 18.595 L48.3925 39.875 z M42.3769 31.755 L39.1787 22.8825 C39.0767 22.5967 38.9673 22.1008 38.8506 21.395 L38.7806 21.395 C38.6814 22.0367 38.5677 22.5325 38.4394 22.8825 L35.2675 31.755 L42.3769 31.755 z" stroke-width="0.2" stroke-linejoin="round" xml:space="preserve" style="fill:#000000;" />
    <path d="M66.8724 39.875 L63.5125 39.875 L60.0956 33.9644 C59.4131 32.7831 58.7882 31.9796 58.2209 31.5538 C57.6536 31.1279 56.9762 30.915 56.1887 30.915 L54.2725 30.915 L54.2725 39.875 L51.4724 39.875 L51.4724 18.595 L57.8468 18.595 C59.8797 18.595 61.4723 19.0923 62.6243 20.0869 C63.7764 21.0815 64.3524 22.4727 64.3524 24.2606 C64.3524 27.1977 62.8051 29.1038 59.7106 29.9788 L59.7106 30.0488 C60.2939 30.2967 60.7978 30.6503 61.2221 31.1097 C61.6465 31.5691 62.1956 32.3559 62.8693 33.47 L66.8724 39.875 z M54.2725 21.115 L54.2725 28.395 L57.4312 28.395 C58.6533 28.395 59.6457 28.0399 60.4084 27.3297 C61.1711 26.6195 61.5525 25.6884 61.5525 24.5363 C61.5525 23.4629 61.2046 22.6244 60.509 22.0206 C59.8134 21.4169 58.8006 21.115 57.4706 21.115 L54.2725 21.115 z" stroke-width="0.2" stroke-linejoin="round" xml:space="preserve" style="fill:#000000;" />
  </g>
  <linearGradient x1="0.499967" y1="1.01864" x2="1.53738" y2="1.01864" gradientUnits="objectBoundingBox" gradientTransform="rotate(-90, 0.499967, 1.018645)" id="SVGID_Fill2_" xml:space="preserve">
    <stop offset="0%" stop-color="#FFFC00" stop-opacity="1" xml:space="preserve" />
    <stop offset="100%" stop-color="#69681A" stop-opacity="1" xml:space="preserve" />
  </linearGradient>
  <path d="M11.6514 56.7868 L66.4734 56.7868 C67.9032 56.7868 69.0624 57.9459 69.0624 59.3758 L69.0624 59.3758 C69.0624 60.8056 67.9032 61.9648 66.4734 61.9648 L11.6514 61.9648 C10.2216 61.9648 9.06241 60.8056 9.06241 59.3758 L9.06241 59.3758 C9.06241 57.9459 10.2216 56.7868 11.6514 56.7868 z" stroke-width="0.2" stroke-linejoin="round" xml:space="preserve" style="fill:url(#SVGID_Fill2_);" />
</svg>