<svg enable-background="new 0 0 257.00 257.00" height="257" viewBox="0 0 257 257" width="257" xmlns="http://www.w3.org/2000/svg" xmlns:xlink="http://www.w3.org/1999/xlink"><linearGradient id="a" gradientTransform="matrix(.549295007898 .835628502565 -.835628502565 .549295007898 .216917389839 -.081915162974)" gradientUnits="objectBoundingBox" x1=".184396" x2="1.11201" y1=".16013" y2=".16013"><stop offset="0" stop-color="#b7c0b8"/><stop offset="1" stop-color="#fff"/></linearGradient><linearGradient id="b"><stop offset="0" stop-color="#87af06"/><stop offset="1" stop-color="#afd27b"/></linearGradient><linearGradient id="c" gradientTransform="matrix(0 -1 1 0 -2.006341 3.006341)" gradientUnits="objectBoundingBox" x1=".5" x2="4.51269" xlink:href="#b" y1="2.50634" y2="2.50634"/><linearGradient id="d" gradientTransform="matrix(0 -1 1 0 -2.118451 3.118451)" gradientUnits="objectBoundingBox" x1=".5" x2="4.73691" y1="2.61845" y2="2.61845"><stop offset="0" stop-color="#f4f5f3"/><stop offset="1" stop-color="#b7bdb0"/></linearGradient><linearGradient id="e" gradientTransform="matrix(0 -1 1 0 -2.006324 3.006324)" gradientUnits="objectBoundingBox" x1=".5" x2="4.51266" xlink:href="#b" y1="2.50632" y2="2.50632"/><linearGradient id="f"><stop offset="0" stop-color="#f4f5f3"/><stop offset="1" stop-color="#e5f8c9"/></linearGradient><linearGradient id="g" gradientTransform="matrix(0 -1 1 0 -2.118433 3.118433)" gradientUnits="objectBoundingBox" x1=".5" x2="4.73688" xlink:href="#f" y1="2.61843" y2="2.61843"/><linearGradient id="h" gradientTransform="matrix(0 -1 1 0 -2.118451 3.118451)" gradientUnits="objectBoundingBox" x1=".5" x2="4.73691" xlink:href="#f" y1="2.61845" y2="2.61845"/><linearGradient id="i"><stop offset="0" stop-color="#3f542a"/><stop offset=".474419" stop-color="#d0d5cb"/><stop offset="1" stop-color="#0f1505"/></linearGradient><linearGradient id="j" gradientTransform="matrix(0 -1 1 0 -2.014261 3.014261)" gradientUnits="objectBoundingBox" x1=".5" x2="4.52854" xlink:href="#i" y1="2.51426" y2="2.51426"/><linearGradient id="k"><stop offset="0" stop-color="#daf5bf"/><stop offset="1" stop-color="#1d2314"/></linearGradient><linearGradient id="l" gradientTransform="matrix(0 -1 1 0 -2.203097 3.203097)" gradientUnits="objectBoundingBox" x1=".5" x2="4.90622" xlink:href="#k" y1="2.7031" y2="2.7031"/><filter id="m" filterUnits="userSpaceOnUse"><feGaussianBlur stdDeviation="2.64567"/></filter><linearGradient id="n" gradientTransform="matrix(0 -1 1 0 -2.014282 3.014282)" gradientUnits="objectBoundingBox" x1=".5" x2="4.52854" xlink:href="#i" y1="2.51428" y2="2.51428"/><linearGradient id="o" gradientTransform="matrix(0 -1 1 0 -2.20312 3.20312)" gradientUnits="objectBoundingBox" x1=".5" x2="4.90622" xlink:href="#k" y1="2.70312" y2="2.70312"/><filter id="p" filterUnits="userSpaceOnUse"><feGaussianBlur stdDeviation="3.02362"/></filter><linearGradient id="q" gradientTransform="matrix(0 -1 1 0 -2.014293 3.014293)" gradientUnits="objectBoundingBox" x1=".5" x2="4.52863" xlink:href="#i" y1="2.51429" y2="2.51429"/><linearGradient id="r" gradientTransform="matrix(0 -1 1 0 -2.203136 3.203136)" gradientUnits="objectBoundingBox" x1=".5" x2="4.90632" xlink:href="#k" y1="2.70314" y2="2.70314"/><linearGradient id="s" gradientTransform="matrix(0 -1 1 0 -2.014281 3.014283)" gradientUnits="objectBoundingBox" x1=".500001" x2="4.52854" xlink:href="#i" y1="2.51428" y2="2.51428"/><linearGradient id="t" gradientTransform="matrix(0 -1 1 0 -2.203119 3.203121)" gradientUnits="objectBoundingBox" x1=".500001" x2="4.90622" xlink:href="#k" y1="2.70312" y2="2.70312"/><linearGradient id="u" gradientTransform="matrix(0 -1 1 0 -2.014187 3.014189)" gradientUnits="objectBoundingBox" x1=".500001" x2="4.52846" xlink:href="#i" y1="2.51419" y2="2.51419"/><linearGradient id="v" gradientTransform="matrix(0 -1 1 0 -2.203011 3.203013)" gradientUnits="objectBoundingBox" x1=".500001" x2="4.90612" xlink:href="#k" y1="2.70301" y2="2.70301"/><linearGradient id="w" gradientTransform="matrix(0 -1 1 0 -2.014217 3.014221)" gradientUnits="objectBoundingBox" x1=".500002" x2="4.52854" xlink:href="#i" y1="2.51422" y2="2.51422"/><linearGradient id="x" gradientTransform="matrix(0 -1 1 0 -2.203049 3.203053)" gradientUnits="objectBoundingBox" x1=".500002" x2="4.90622" xlink:href="#k" y1="2.70305" y2="2.70305"/><linearGradient id="y" gradientTransform="matrix(0 -1 1 0 -2.014301 3.014305)" gradientUnits="objectBoundingBox" x1=".500002" x2="4.52855" xlink:href="#i" y1="2.5143" y2="2.5143"/><linearGradient id="z" gradientTransform="matrix(0 -1 1 0 -2.20314 3.203144)" gradientUnits="objectBoundingBox" x1=".500002" x2="4.90622" xlink:href="#k" y1="2.70314" y2="2.70314"/><linearGradient id="A" gradientTransform="matrix(0 -1 1 0 -2.014251 3.014251)" gradientUnits="objectBoundingBox" x1=".5" x2="4.52863" xlink:href="#i" y1="2.51425" y2="2.51425"/><linearGradient id="B" gradientTransform="matrix(0 -1 1 0 -2.20309 3.20309)" gradientUnits="objectBoundingBox" x1=".5" x2="4.90632" xlink:href="#k" y1="2.70309" y2="2.70309"/><linearGradient id="C" gradientTransform="matrix(0 -1 1 0 -2.014251 3.014251)" gradientUnits="objectBoundingBox" x1=".5" x2="4.52846" xlink:href="#i" y1="2.51425" y2="2.51425"/><linearGradient id="D" gradientTransform="matrix(0 -1 1 0 -2.203081 3.203081)" gradientUnits="objectBoundingBox" x1=".5" x2="4.90612" xlink:href="#k" y1="2.70308" y2="2.70308"/><linearGradient id="E" gradientTransform="matrix(0 -1 1 0 -2.014253 3.014249)" gradientUnits="objectBoundingBox" x1=".499998" x2="4.52863" xlink:href="#i" y1="2.51425" y2="2.51425"/><linearGradient id="F" gradientTransform="matrix(0 -1 1 0 -2.203092 3.203088)" gradientUnits="objectBoundingBox" x1=".499998" x2="4.90632" xlink:href="#k" y1="2.70309" y2="2.70309"/><radialGradient id="G" cx="170.94" cy="165.709" gradientUnits="userSpaceOnUse" r="80"><stop offset=".0139535" stop-color="#fff" stop-opacity=".4"/><stop offset="1" stop-color="#fff" stop-opacity=".498039"/></radialGradient><g stroke-linejoin="round"><path d="m18.7462 6.56064h189.9998c2.209 0 4 1.79077 4 3.99996v227.3334c0 2.209-1.791 4-4 4h-189.9998c-2.2091 0-4-1.791-4-4v-227.3334c0-2.20919 1.7909-3.99996 4-3.99996z" fill="url(#a)" stroke="#036400" stroke-width="5"/><path d="m40.2462 23.5609h147.9998c2.209 0 4 1.7908 4 4v27.7922c0 2.2092-1.791 4-4 4h-147.9998c-2.2091 0-4-1.7908-4-4v-27.7922c0-2.2092 1.7909-4 4-4z" fill="url(#d)" stroke="url(#c)" stroke-width="2"/><path d="m40.2462 64.2987h147.9998c2.209 0 4 1.7907 4 4v27.7922c0 2.2092-1.791 4.0001-4 4.0001h-147.9998c-2.2091 0-4-1.7909-4-4.0001v-27.7922c0-2.2093 1.7909-4 4-4z" fill="url(#g)" stroke="url(#e)" stroke-width="2"/><path d="m40.7462 105.743h147.9998c2.209 0 4 1.791 4 4v27.792c0 2.209-1.791 4-4 4h-147.9998c-2.2091 0-4-1.791-4-4v-27.792c0-2.209 1.7909-4 4-4z" fill="url(#d)" stroke="url(#c)" stroke-width="2"/><path d="m41.0796 146.559h148.0004c2.209 0 4 1.791 4 4v27.792c0 2.21-1.791 4.001-4 4.001h-148.0004c-2.2092 0-4-1.791-4-4.001v-27.792c0-2.209 1.7908-4 4-4z" fill="url(#h)" stroke="url(#c)" stroke-width="2"/><path d="m40.7462 187.768h147.9998c2.209 0 4 1.791 4 4v27.792c0 2.209-1.791 4-4 4h-147.9998c-2.2091 0-4-1.791-4-4v-27.792c0-2.209 1.7909-4 4-4z" fill="url(#d)" stroke="url(#c)" stroke-width="2"/><path d="m52.0795 36.7274h38c1.1046 0 2 .8955 2 2v6.6667c0 1.1045-.8954 2-2 2h-38c-1.1046 0-2-.8955-2-2v-6.6667c0-1.1045.8954-2 2-2z" fill="url(#l)" filter="url(#m)" stroke="url(#j)"/><path d="m99.9129 36.5189h27.7501c1.104 0 2 .8955 2 2v6.6667c0 1.1045-.896 2-2 2h-27.7501c-1.1046 0-2-.8955-2-2v-6.6667c0-1.1045.8954-2 2-2z" fill="url(#o)" filter="url(#p)" stroke="url(#n)"/><path d="m137.996 36.5609h38c1.105 0 2 .8955 2 2v6.6665c0 1.1045-.895 2-2 2h-38c-1.104 0-2-.8955-2-2v-6.6665c0-1.1045.896-2 2-2z" fill="url(#r)" filter="url(#p)" stroke="url(#q)"/><path d="m51.002 118.259h38c1.1046 0 2 .895 2 2v6.666c0 1.105-.8954 2-2 2h-38c-1.1045 0-2-.895-2-2v-6.666c0-1.105.8955-2 2-2z" fill="url(#l)" filter="url(#m)" stroke="url(#j)"/><path d="m98.8354 118.05h27.7496c1.105 0 2 .896 2 2v6.667c0 1.104-.895 2-2 2h-27.7496c-1.1046 0-2-.896-2-2v-6.667c0-1.104.8954-2 2-2z" fill="url(#t)" filter="url(#p)" stroke="url(#s)"/><path d="m136.919 118.092h38c1.104 0 2 .896 2 2v6.667c0 1.104-.896 2-2 2h-38c-1.105 0-2-.896-2-2v-6.667c0-1.104.895-2 2-2z" fill="url(#r)" filter="url(#p)" stroke="url(#q)"/><path d="m52.002 200.259h38c1.1046 0 2 .895 2 2v6.666c0 1.105-.8954 2-2 2h-38c-1.1045 0-2-.895-2-2v-6.666c0-1.105.8955-2 2-2z" fill="url(#l)" filter="url(#m)" stroke="url(#j)"/><path d="m99.8354 200.05h27.7496c1.105 0 2 .896 2 2v6.667c0 1.104-.895 2-2 2h-27.7496c-1.1046 0-2-.896-2-2v-6.667c0-1.104.8954-2 2-2z" fill="url(#t)" filter="url(#p)" stroke="url(#s)"/><path d="m137.919 200.092h38c1.104 0 2 .896 2 2v6.667c0 1.104-.896 2-2 2h-38c-1.105 0-2-.896-2-2v-6.667c0-1.104.895-2 2-2z" fill="url(#r)" filter="url(#p)" stroke="url(#q)"/><path d="m73.002 78.9256h36.16c1.105 0 2 .8955 2 2v6.667c0 1.1045-.895 2-2 2h-36.16c-1.1046 0-2-.8955-2-2v-6.667c0-1.1045.8954-2 2-2z" fill="url(#v)" filter="url(#m)" stroke="url(#u)"/><path d="m122.829 78.7166h30.333c1.105 0 2 .8956 2 2v6.6668c0 1.1045-.895 2-2 2h-30.333c-1.105 0-2-.8955-2-2v-6.6668c0-1.1044.895-2 2-2z" fill="url(#o)" filter="url(#p)" stroke="url(#n)"/><path d="m161.996 78.7591h14.666c1.105 0 2 .8955 2 2v6.6668c0 1.1045-.895 2-2 2h-14.666c-1.105 0-2-.8955-2-2v-6.6668c0-1.1045.895-2 2-2z" fill="url(#x)" filter="url(#p)" stroke="url(#w)"/><path d="m51.558 79.1012h12.6044c1.1046 0 2 .8955 2 2v6.6667c0 1.1045-.8954 2-2 2h-12.6044c-1.1046 0-2-.8955-2-2v-6.6667c0-1.1045.8954-2 2-2z" fill="url(#z)" filter="url(#p)" stroke="url(#y)"/><path d="m72.9245 159.124h36.1605c1.104 0 2 .895 2 2v6.666c0 1.105-.896 2-2 2h-36.1605c-1.1046 0-2-.895-2-2v-6.666c0-1.105.8954-2 2-2z" fill="url(#B)" filter="url(#m)" stroke="url(#A)"/><path d="m122.752 158.914h30.333c1.104 0 2 .896 2 2v6.667c0 1.105-.896 2-2 2h-30.333c-1.105 0-2-.895-2-2v-6.667c0-1.104.895-2 2-2z" fill="url(#D)" filter="url(#p)" stroke="url(#C)"/><path d="m161.918 158.957h14.667c1.104 0 2 .896 2 2v6.667c0 1.104-.896 2-2 2h-14.667c-1.104 0-2-.896-2-2v-6.667c0-1.104.896-2 2-2z" fill="url(#F)" filter="url(#p)" stroke="url(#E)"/><path d="m51.4805 159.299h12.6044c1.1046 0 2 .896 2 2v6.667c0 1.104-.8954 2-2 2h-12.6044c-1.1046 0-2-.896-2-2v-6.667c0-1.104.8954-2 2-2z" fill="url(#t)" filter="url(#p)" stroke="url(#s)"/><path d="m204.047 84.9649h1.114l-2.848 1.7583-1.659-.0246zm-8.124 3.4671 2.749.0498-2.526 2.3032-3.616-.0249zm-7.231 5.3991 3.987.0247-2.65 3.2444h-4.706zm.602 4.3089-1.461 2.394h-5.374l1.882-2.3774zm-8.049 4.409h5.758l-1.275 1.919-5.783.012zm-1.721 3.194 6.055.013-1.077 4.309h-6.922zm-2.328 5.944h7.071l-.31 1.944h-7.07zm-.433 3.678 7.145.037-.248 2.155-7.145-.013zm-.227 3.364 7.165-.017.017 1.949-7.232.016zm.247 4.243h7.215l.496 2.114-7.529.016zm.694 4.574h7.314l.859 2.245h-7.744zm.941 3.83h7.545l1.635 4.062-7.579.016zm2.196 5.977 7.71-.016 1.189 2.889-7.496.016zm31.841-52.4625 1.015.0249 2.897 1.7954-1.424.0124zm5.869 3.3435 3.393-.0247 3.368 2.2537-4.111.0246zm6.241 5.1513 5.176-.0249h.074l2.824 3.294h-5.375zm3.467 4.3836 5.87-.0249 1.882 2.1794-6.068-.0246zm2.828 4.0921 5.622.042 1.04 1.832-5.746-.049zm1.374 3.398 5.994.012 1.77 3.938-6.513.024zm1.721 5.745 6.229.025.545 1.796h-6.303zm.657 3.888 6.488.05.025 1.647-6.501.037zm.062 3.257 6.563-.012-.013 1.733-6.6.05zm-.236 4.347h6.576l-.483 2.018-6.303.074zm-.693 4.619h6.538l-.619 2.34h-6.959zm-1.531 3.983h7.281l-1.123 3.929h-7.876zm5.432 5.927-1.718 2.955-8.057.017 1.783-2.972zm-43.539-12.168 1.849-1.354 2.114-.925 23.247-.033 1.849 1.123 1.155 1.156zm-2.344 2.278 34.177-.066 1.023.727.462 1.188-.429.793h-36.026l-.297-.562.099-1.023zm-.298 3.963 35.333-.033.627.429.1 2.741-.661 1.386-34.969.034-1.354-2.378.066-1.453zm2.213 6.538 1.023-.33 28.597-.067 1.123.166.891 1.386-.033.859-.231.594-31.7.066-.628-.429.099-.991zm-10.777 3.812 52.635-.265-.462 1.717-51.249.265zm1.013 3.212 51.078-.223.39.65-.01.999-52.737.066.373-.852zm-1.662 3.477 53.629-.094.659.453.29.879v.663l-55.337.16.08-.76.17-.782zm-.799 4.218 55.577-.4.2 1.039-.28 1.159h-55.617l-.119-.839zm.2 3.995 54.977-.239-.439 1.478-.999 1.518-1.878 1.918-1.718 1.359-44.07.04-1.398-.56-2.397-1.758-1.359-1.718zm6.872 7.592h40.913l.959.439.12 3.037-.319.799-41.793.519-.839-.759v-3.116zm-.839 6.153 42.631.12.08 4.395h-42.631zm-.16 6.592 42.871-.08v2.278l-42.871.04zm-.04 5.434 42.991.04.04 1.918-42.991.08zm.32 10.348h45.708l.24.959-.12 1.039-45.828-.08zm-10.348-.04 4.555-.08 2.317 1.279-.16.639-6.832.04zm60.571 1.798.239-.919.999-.719 4.875.04.439.839-.24.719zm-60.611 1.412 66.804.053.639.426.213 1.332-68.402-.053.107-1.012zm-.959 2.93 68.668-.053.267 2.237-69.042-.053zm-.253 6.18 69.734.213-.067 5.114-6.579-.04-.386-.813-.16-.999-.639-.039-.64.639-1.318 1.079h-50.303l-1.957-1.199-.706-1.025h-.427l-.106 1.704-.253.613h-5.66l-.759-.506-.04-3.729zm12.04 6.232 44.948-.04-.319 1.039-1.798.999-2.597 1.319-3.756 1.358-4.155 1.079-4.156.799-9.309.08-4.115-.36-3.796-.879-3.476-1.038-4.155-1.719-2.797-1.797zm-12.027.067 6.513-.04.839 5.953-6.193.08-.999-2.397zm1.319 8.75-.24-1.798 6.393.04.519 1.279.08 1.558h-5.833zm.959 1.838 6.113.08.639 1.798h-6.233zm.919 2.757 6.352.12 1.519 3.356 1.318 2.957 1.279 2.796 2.037 3.396-.04 1.559-4.235-.08-.919-.6-2.157-2.757-2.118-3.595-2.117-3.956zm8.869 14.743 4.555.04 1.638 2.357-.519.839-3.156.04-1.838-1.758zm4.076 4.515.24-.599h2.677l.998 1.518.04 1.518h-1.278zm46.906-32.243-.08-.24 6.433-.04-.639 5.833-6.513.08zm-1.039 6.712 6.433.08-.519 2.917-6.473-.04zm-1.118 3.875 6.392.04-.439 1.918-6.473.08zm-.719 2.717 6.192-.04-.519 2.278-1.798 4.035-2.917 4.555-2.277 3.077-5.394.04 1.638-2.837 1.598-3.197 1.758-3.755zm-7.072 14.704 4.435.16-2.078 2.996-4.195-.04zm-2.518 4.075 3.157.04-2.677 2.837-1.279.159-1.118-.958z" fill="#f3f5f2" stroke="url(#G)" stroke-width="10"/><g stroke-width=".2"><path d="m203.797 84.7982-3.393 1.7336 1.659.0247 2.848-1.7583z"/><path d="m195.673 88.2655-3.393 2.3281 3.616.0247 2.526-2.3033z"/><path d="m188.442 93.6644-3.368 3.269h4.705l2.65-3.2441z"/><path d="m189.044 97.9735-4.953.0166-1.882 2.3779h5.374"/><path d="m180.995 102.382-1.3 1.932 5.783-.013 1.275-1.919z"/><path d="m179.274 105.577-1.944 4.322h6.922l1.077-4.31z"/><path d="m176.946 111.521-.309 1.944h7.07l.31-1.944z"/><path d="m176.513 115.198-.248 2.18 7.145.012.248-2.155"/><path d="m176.286 118.562-.05 1.949 7.232-.017-.017-1.948z"/><path d="m176.533 122.806.182 2.129 7.529-.016-.495-2.113z"/><path d="m177.227 127.379.429 2.245h7.744l-.859-2.245z"/><path d="m178.168 131.21 1.601 4.077 7.579-.016-1.635-4.061z"/><path d="m180.364 137.186 1.403 2.89 7.496-.017-1.189-2.889z"/><path d="m212.205 84.724 2.489 1.8325 1.424-.0122-2.898-1.7957z"/><path d="m218.074 88.0672 2.65 2.2539 4.111-.0249-3.368-2.2536z"/><path d="m224.315 93.2186 2.7 3.269h5.374l-2.824-3.2939h-.074z"/><path d="m227.782 97.6021 1.684 2.1299 6.068.0247-1.882-2.1792"/><path d="m230.61 101.695.916 1.824 5.746.05-1.04-1.833z"/><path d="m231.984 105.092 1.251 3.975 6.513-.025-1.77-3.938z"/><path d="m233.705 110.838.471 1.82h6.303l-.545-1.796z"/><path d="m234.362 114.726.012 1.733 6.501-.037-.025-1.647z"/><path d="m234.424 117.983-.05 1.77 6.6-.049.013-1.734z"/><path d="m234.188 122.329-.21 2.093 6.303-.074.483-2.019z"/><path d="m233.495 126.948-1.04 2.34h6.959l.619-2.34z"/><path d="m231.964 130.931-1.717 3.929h7.875l1.123-3.929z"/><path d="m237.396 136.858h-7.992l-1.783 2.972 8.057-.016"/><path d="m193.857 124.69 30.215-.033-1.156-1.156-1.849-1.122-23.247.032-2.114.925z"/><path d="m191.513 126.969-.991 1.056-.099 1.024.297.561h36.026l.43-.792-.463-1.189-1.023-.727z"/><path d="m191.215 130.931-.858.727-.066 1.452 1.354 2.378 34.969-.033.661-1.387-.099-2.741-.628-.429z"/><path d="m193.428 137.469-.859 1.255-.099.991.628.429 31.7-.066.231-.595.033-.858-.891-1.387-1.123-.165-28.596.066"/><path d="m182.651 141.281.924 1.717 51.249-.264.462-1.717z"/><path d="m183.664 144.494-.906.639-.373.852 52.737-.066.01-.999-.39-.649z"/><path d="m182.002 147.97-.509.519-.17.783-.08.759 55.337-.16v-.662l-.29-.88-.659-.452z"/><path d="m181.203 152.188-.239.959.119.839h55.617l.28-1.158-.2-1.039"/><path d="m181.403 156.184.719 2.038 1.359 1.718 2.397 1.758 1.398.559 44.07-.04 1.718-1.359 1.878-1.917.999-1.519.439-1.478z"/><path d="m188.275 163.775-.959.919v3.117l.839.759 41.793-.52.319-.799-.12-3.036-.958-.44z"/><path d="m187.436 169.928.08 4.515h42.631l-.079-4.395z"/><path d="m187.276 176.521v2.237l42.871-.04v-2.277z"/><path d="m187.236 181.954.04 2.038 42.991-.08-.04-1.918z"/><path d="m187.556 192.303v1.918l45.828.079.12-1.038-.24-.959z"/><path d="m177.208 192.263 4.555-.08 2.317 1.278-.16.639-6.832.04z"/><path d="m237.779 194.061 6.312-.04.24-.719-.439-.84-4.875-.04-.999.72z"/><path d="m177.168 195.472-.639.746-.107 1.012 68.402.054-.213-1.332-.639-.426z"/><path d="m176.209 198.402-.107 2.131 69.042.054-.267-2.238z"/><path d="m175.956 204.582-.266 1.012.04 3.729.759.506h5.66l.253-.612.106-1.705h.427l.706 1.025 1.957 1.199h50.303l1.318-1.079.64-.639.639.04.16.999.386.812 6.579.04.067-5.114z"/><path d="m187.996 210.815.519.839 2.797 1.798 4.155 1.718 3.476 1.039 3.796.879 4.115.359 9.309-.08 4.156-.799 4.155-1.078 3.756-1.359 2.597-1.319 1.798-.998.319-1.039z"/><path d="m175.969 210.881.16 3.596.999 2.397 6.193-.079-.839-5.954z"/><path d="m177.288 219.631.919 1.079h5.833l-.08-1.558-.519-1.279-6.393-.04"/><path d="m178.247 221.469.519 1.878h6.233l-.639-1.798z"/><path d="m179.166 224.226.919 3.196 2.117 3.956 2.118 3.596 2.157 2.757.919.599 4.235.08.04-1.558-2.037-3.397-1.279-2.796-1.318-2.957-1.519-3.356z"/><path d="m188.036 238.969.679 1.519 1.838 1.757 3.156-.04.519-.838-1.638-2.358z"/><path d="m192.111 243.484 2.677 2.437h1.278l-.04-1.518-.998-1.518h-2.677z"/><path d="m239.017 211.241-.799 5.633 6.513-.079.639-5.834-6.433.04"/><path d="m237.978 217.953-.559 2.957 6.473.04.519-2.917z"/><path d="m236.86 221.829-.52 2.038 6.473-.081.439-1.917z"/><path d="m236.141 224.546-1.718 4.155-1.759 3.756-1.598 3.196-1.638 2.837 5.394-.04 2.277-3.077 2.917-4.554 1.798-4.036.519-2.277z"/><path d="m229.069 239.249-1.838 3.116 4.195.04 2.078-2.996z"/><path d="m226.552 243.324-1.918 2.078 1.118.959 1.279-.16 2.677-2.837z"/></g></g></svg>