<svg enable-background="new 0 0 35.50 35.00" height="35" viewBox="0 0 35.5 35" width="35.5001" xmlns="http://www.w3.org/2000/svg"><path d="m9.5 1.49994h16.5001c4.4182 0 8 3.58179 8 8v16.00016c0 4.4182-3.5818 8-8 8h-16.5001c-4.41827 0-8-3.5818-8-8v-16.00016c0-4.41821 3.58173-8 8-8z" fill="#fff" stroke="#8c9e64" stroke-linejoin="round" stroke-width="3"/><path d="m9.24991 1.25391h16.99999c4.4183 0 8 3.58172 8 7.99994v16.49235c0 4.4183-3.5817 8-8 8h-16.99999c-4.41831 0-8-3.5817-8-8v-16.49235c0-4.41822 3.58169-7.99994 8-7.99994z" fill="none" stroke="#000" stroke-linejoin="round" stroke-width=".5"/></svg>