<?xml version="1.0" encoding="utf-8"?>
<!DOCTYPE svg PUBLIC "-//W3C//DTD SVG 1.1//EN" "http://www.w3.org/Graphics/SVG/1.1/DTD/svg11.dtd">
<svg x="0" y="0" width="32" height="32" overflow="hidden" viewBox="0, 0, 128, 128" preserveAspectRatio="xMidYMid"
     font-size="0" id="svg" xml:space="preserve" xmlns="http://www.w3.org/2000/svg"
     xmlns:xml="http://www.w3.org/XML/1998/namespace" version="1.1">
  <rect x="11" y="17" width="68" height="83" id="rect2" xml:space="preserve" style="fill:#FFFFFF;" />
  <rect x="11" y="17" width="68" height="83" stroke="#242C88" stroke-width="2" stroke-linecap="round" stroke-linejoin="round" stroke-miterlimit="10" id="rect4" xml:space="preserve" style="fill:none;" />
  <path d="M33 46 L23 46 C21.9 46 21 45.1 21 44 L21 34 C21 32.9 21.9 32 23 32 L33 32 C34.1 32 35 32.9 35 34 L35 44 C35 45.1 34.1 46 33 46 z" id="path6" xml:space="preserve" style="fill:#83D689;" />
  <path d="M32.8 66 L23 66 C21.9 66 21 65.1 21 64 L21 54 C21 52.9 21.9 52 23 52 L33 52 C34.1 52 35 52.9 35 54 L35 63.8 C35 65 34 66 32.8 66 z" id="path8" xml:space="preserve" style="fill:#83D689;" />
  <path d="M33 87 L23 87 C21.9 87 21 86.1 21 85 L21 75 C21 73.9 21.9 73 23 73 L33 73 C34.1 73 35 73.9 35 75 L35 85 C35 86.1 34.1 87 33 87 z" id="path10" xml:space="preserve" style="fill:#83D689;" />
  <path d="M33 46 L23 46 C21.9 46 21 45.1 21 44 L21 34 C21 32.9 21.9 32 23 32 L33 32 C34.1 32 35 32.9 35 34 L35 44 C35 45.1 34.1 46 33 46 z" stroke="#242C88" stroke-width="2" stroke-linecap="round" stroke-linejoin="round" stroke-miterlimit="10" id="path12" xml:space="preserve" style="fill:none;" />
  <path d="M32.8 66 L23 66 C21.9 66 21 65.1 21 64 L21 54 C21 52.9 21.9 52 23 52 L33 52 C34.1 52 35 52.9 35 54 L35 63.8 C35 65 34 66 32.8 66 z" stroke="#242C88" stroke-width="2" stroke-linecap="round" stroke-linejoin="round" stroke-miterlimit="10" id="path14" xml:space="preserve" style="fill:none;" />
  <path d="M33 87 L23 87 C21.9 87 21 86.1 21 85 L21 75 C21 73.9 21.9 73 23 73 L33 73 C34.1 73 35 73.9 35 75 L35 85 C35 86.1 34.1 87 33 87 z" stroke="#242C88" stroke-width="2" stroke-linecap="round" stroke-linejoin="round" stroke-miterlimit="10" id="path16" xml:space="preserve" style="fill:none;" />
  <path d="M79 101 L79 24 L28 24 C26.9 24 26 24.9 26 26 L26 101 L79 101 z" opacity="0.2" id="path18" xml:space="preserve" style="fill:#242C88;" />
  <rect x="31" y="29" width="68" height="83" id="rect20" xml:space="preserve" style="fill:#FFFFFF;" />
  <rect x="31" y="29" width="68" height="83" stroke="#242C88" stroke-width="2" stroke-linecap="round" stroke-linejoin="round" stroke-miterlimit="10" id="rect22" xml:space="preserve" style="fill:none;" />
  <line x1="63" y1="53" x2="75" y2="53" stroke="#242C88" stroke-width="2" stroke-linecap="round" stroke-linejoin="round" stroke-miterlimit="10" opacity="0.2" id="line24" xml:space="preserve" />
  <line x1="63" y1="48" x2="87" y2="48" stroke="#242C88" stroke-width="2" stroke-linecap="round" stroke-linejoin="round" stroke-miterlimit="10" opacity="0.2" id="line26" xml:space="preserve" />
  <path d="M54 58 L44 58 C42.9 58 42 57.1 42 56 L42 46 C42 44.9 42.9 44 44 44 L54 44 C55.1 44 56 44.9 56 46 L56 56 C56 57.1 55.1 58 54 58 z" id="path28" xml:space="preserve" style="fill:#83D689;" />
  <polyline points="45.3,51.7 48.2,54.4 53.9,48.6" stroke="#242C88" stroke-width="2" stroke-linecap="round" stroke-linejoin="round" stroke-miterlimit="10" id="polyline30" xml:space="preserve" style="fill:none;" />
  <line x1="63" y1="74" x2="75" y2="74" stroke="#242C88" stroke-width="2" stroke-linecap="round" stroke-linejoin="round" stroke-miterlimit="10" opacity="0.2" id="line32" xml:space="preserve" />
  <line x1="63" y1="68" x2="87" y2="68" stroke="#242C88" stroke-width="2" stroke-linecap="round" stroke-linejoin="round" stroke-miterlimit="10" opacity="0.2" id="line34" xml:space="preserve" />
  <path d="M54 78 L44 78 C42.9 78 42 77.1 42 76 L42 66 C42 64.9 42.9 64 44 64 L53.8 64 C55 64 56 65 56 66.2 L56 76 C56 77.1 55.1 78 54 78 z" id="path36" xml:space="preserve" style="fill:#83D689;" />
  <polyline points="45.3,71.9 48.2,74.6 53.9,68.9" stroke="#242C88" stroke-width="2" stroke-linecap="round" stroke-linejoin="round" stroke-miterlimit="10" id="polyline38" xml:space="preserve" style="fill:none;" />
  <line x1="63" y1="94" x2="75" y2="94" stroke="#242C88" stroke-width="2" stroke-linecap="round" stroke-linejoin="round" stroke-miterlimit="10" opacity="0.2" id="line40" xml:space="preserve" />
  <line x1="63" y1="89" x2="87" y2="89" stroke="#242C88" stroke-width="2" stroke-linecap="round" stroke-linejoin="round" stroke-miterlimit="10" opacity="0.2" id="line42" xml:space="preserve" />
  <path d="M54 98 L44 98 C42.9 98 42 97.1 42 96 L42 86 C42 84.9 42.9 84 44 84 L54 84 C55.1 84 56 84.9 56 86 L56 96 C56 97.1 55.1 98 54 98 z" id="path44" xml:space="preserve" style="fill:#83D689;" />
  <path d="M54 58 L44 58 C42.9 58 42 57.1 42 56 L42 46 C42 44.9 42.9 44 44 44 L54 44 C55.1 44 56 44.9 56 46 L56 56 C56 57.1 55.1 58 54 58 z" stroke="#242C88" stroke-width="2" stroke-linecap="round" stroke-linejoin="round" stroke-miterlimit="10" id="path46" xml:space="preserve" style="fill:none;" />
  <path d="M54 78 L44 78 C42.9 78 42 77.1 42 76 L42 66 C42 64.9 42.9 64 44 64 L53.8 64 C55 64 56 65 56 66.2 L56 76 C56 77.1 55.1 78 54 78 z" stroke="#242C88" stroke-width="2" stroke-linecap="round" stroke-linejoin="round" stroke-miterlimit="10" id="path48" xml:space="preserve" style="fill:none;" />
  <path d="M54 98 L44 98 C42.9 98 42 97.1 42 96 L42 86 C42 84.9 42.9 84 44 84 L54 84 C55.1 84 56 84.9 56 86 L56 96 C56 97.1 55.1 98 54 98 z" stroke="#242C88" stroke-width="2" stroke-linecap="round" stroke-linejoin="round" stroke-miterlimit="10" id="path50" xml:space="preserve" style="fill:none;" />
  <polygon points="99,57.6 65.2,77.5 53.6,94.9 74.4,93.1 99,78.6" opacity="0.2" id="polygon52" xml:space="preserve" style="fill:#242C88;" />
  <g id="g78" xml:space="preserve">
    <polygon points="111.4,50.1 73.8,87.7 54.1,94.6 61,74.9 98.6,37.3" id="polygon54" xml:space="preserve" class="st1" style="fill:#FFFFFF;" />
    <rect x="59.6" y="53.5" width="53.2" height="18.1" transform="matrix(0.7071, -0.7071, 0.7071, 0.7071, -18.9596, 79.2808)" id="rect56" xml:space="preserve" class="st18" style="fill:#FFC408;" />
    <rect x="64.1" y="64.4" width="53.2" height="5.3" opacity="0.2" transform="matrix(0.7071, -0.7071, 0.7071, 0.7071, -20.8293, 83.7946)" id="rect58" xml:space="preserve" class="st16" style="fill:#242C88;" />
    <polygon points="57.1,86 54.1,94.4 62.5,91.4" id="polygon60" xml:space="preserve" class="st3" style="fill:#5E61A3;" />
    <polygon points="111.4,50.1 73.8,87.7 54.1,94.6 61,74.9 98.6,37.3" stroke="#242C88" stroke-width="2" stroke-linecap="round" stroke-linejoin="round" stroke-miterlimit="10" id="polygon62" xml:space="preserve" class="st2" style="fill:none;" />
    <path d="M111.4 50.1 L117.4 44.1 C119.1 42.4 119.1 39.7 117.4 38.1 L110.6 31.3 C108.9 29.6 106.2 29.6 104.6 31.3 L98.6 37.3 L111.4 50.1 z" id="path64" xml:space="preserve" class="st13" style="fill:#F3877E;" />
    <path d="M111.4 50.1 L117.4 44.1 C119.1 42.4 119.1 39.7 117.4 38.1 L110.6 31.3 C108.9 29.6 106.2 29.6 104.6 31.3 L98.6 37.3 L111.4 50.1 z" stroke="#242C88" stroke-width="2" stroke-linecap="round" stroke-linejoin="round" stroke-miterlimit="10" id="path66" xml:space="preserve" class="st2" style="fill:none;" />
    <line x1="80.6" y1="73.4" x2="106.9" y2="47.1" stroke="#242C88" stroke-width="2" stroke-linecap="round" stroke-linejoin="round" stroke-miterlimit="10" id="line68" xml:space="preserve" class="st2" />
    <line x1="70" y1="84" x2="76.1" y2="77.9" stroke="#242C88" stroke-width="2" stroke-linecap="round" stroke-linejoin="round" stroke-miterlimit="10" id="line70" xml:space="preserve" class="st2" />
    <rect x="100.9" y="35.1" width="7.4" height="18.1" transform="matrix(0.7071, -0.7071, 0.7071, 0.7071, -0.5282, 86.9153)" id="rect72" xml:space="preserve" class="st1" style="fill:#FFFFFF;" />
    <rect x="100.9" y="35.1" width="7.4" height="18.1" opacity="0.2" transform="matrix(0.7071, -0.7071, 0.7071, 0.7071, -0.5282, 86.9153)" id="rect74" xml:space="preserve" class="st16" style="fill:#242C88;" />
    <rect x="100.9" y="35.1" width="7.4" height="18.1" stroke="#242C88" stroke-width="2" stroke-linecap="round" stroke-linejoin="round" stroke-miterlimit="10" transform="matrix(0.7071, -0.7071, 0.7071, 0.7071, -0.5282, 86.9153)" id="rect76" xml:space="preserve" class="st2" style="fill:none;" />
  </g>
</svg>