<svg enable-background="new 0 0 78.13 78.25" height="78.25" viewBox="0 0 78.13 78.25" width="78.125" xmlns="http://www.w3.org/2000/svg" xmlns:xlink="http://www.w3.org/1999/xlink"><linearGradient id="a" gradientTransform="matrix(0 1 -1 0 -1.847374 -2.847374)" gradientUnits="objectBoundingBox" x1=".5" x2="6.19475" y1="-2.34737" y2="-2.34737"><stop offset=".427907" stop-color="#eeeaea"/><stop offset=".576744" stop-color="#fff" stop-opacity="0"/></linearGradient><linearGradient id="b" gradientTransform="matrix(0 -1 1 0 -.518559 1.518489)" gradientUnits="objectBoundingBox" x1=".499965" x2="1.53741" y1="1.01852" y2="1.01852"><stop offset="0" stop-color="#1dff02"/><stop offset="1" stop-color="#3d8c33"/></linearGradient><g stroke-linejoin="round"><path d="m11.5.5h55.125c6.0751 0 11 4.92487 11 11v55.25c0 6.0751-4.9249 11-11 11h-55.125c-6.07513 0-11-4.9249-11-11v-55.25c0-6.07513 4.92487-11 11-11z" fill="#8c9e64" stroke="#000"/><path d="m65.9046.854172h-53.8619c-5.48902 0-10.017 4.211208-10.66769 9.649028 1.28572 2.512 3.8575 4.226 6.82042 4.226h61.92287c2.7386 0 5.1431-1.4643 6.5067-3.6696-.3978-5.70421-5.0455-10.205428-10.7204-10.205428z" fill="url(#a)" stroke-width=".2"/><path d="m11.6516 62.1253h54.8221c1.4298 0 2.589 1.1591 2.589 2.589l0 0c0 1.4296-1.1592 2.5888-2.589 2.5888h-54.8221c-1.4299 0-2.58894-1.1592-2.58894-2.5888l0 0c0-1.4299 1.15904-2.589 2.58894-2.589z" fill="url(#b)" stroke-width=".2"/></g></svg>