<svg enable-background="new 0 0 88.00 76.00" height="76" viewBox="0 0 88 76" width="88" xmlns="http://www.w3.org/2000/svg" xmlns:xlink="http://www.w3.org/1999/xlink"><linearGradient id="a" gradientTransform="matrix(0 1 -1 0 .228961 -.778777)" gradientUnits="objectBoundingBox" x1=".503869" x2="2.05368" y1="-.274908" y2="-.274908"><stop offset=".316279" stop-color="#f0f1ec" stop-opacity=".592157"/><stop offset=".800003" stop-color="#fff" stop-opacity="0"/></linearGradient><linearGradient id="b" gradientTransform="matrix(-.986419469397 .164245640414 -.164245640414 -.986419469397 1.939424287666 .714190121802)" gradientUnits="objectBoundingBox" x1=".940186" x2="2.52462" y1=".437275" y2=".437275"><stop offset=".274419" stop-color="#f0f1ec" stop-opacity=".501961"/><stop offset=".562791" stop-color="#fff" stop-opacity="0"/></linearGradient><linearGradient id="c" gradientTransform="matrix(-.716277780373 .697815263049 -.697815263049 -.716277780373 .621735288876 -.361327134204)" gradientUnits="objectBoundingBox" x1=".384323" x2="1.49921" y1="-.0542693" y2="-.0542693"><stop offset=".390698" stop-color="#83838f"/><stop offset=".460465" stop-color="#4f4f5e"/><stop offset=".530233" stop-color="#8d8d99"/><stop offset=".613953" stop-color="#aaabb9"/></linearGradient><linearGradient id="d" gradientTransform="matrix(-.724052404005 .689744964646 -.689744964646 -.724052404005 1.70385705707 -.194557373315)" gradientUnits="objectBoundingBox" x1=".890847" x2="1.81506" y1=".243554" y2=".243554"><stop offset=".255814" stop-color="#f5ca3f"/><stop offset=".474419" stop-color="#e7d52c"/><stop offset=".548837" stop-color="#e7d858"/><stop offset=".651163" stop-color="#d5b42b"/><stop offset=".683721" stop-color="#f5ca3f"/></linearGradient><linearGradient id="e" gradientTransform="matrix(-.225949458334 -.974139026155 .974139026155 -.225949458334 .02719032605 2.13347142391)" gradientUnits="objectBoundingBox" x1=".861223" x2="3.22655" y1="1.05593" y2="1.05593"><stop offset="0" stop-color="#545454"/><stop offset=".686401" stop-color="#878787"/><stop offset="1" stop-color="#878787"/></linearGradient><linearGradient id="f" gradientTransform="matrix(-.795563657799 .605870007831 -.605870007831 -.795563657799 1.942586538026 .04568863791)" gradientUnits="objectBoundingBox" x1=".963585" x2="2.07221" y1=".350584" y2=".350584"><stop offset="0" stop-color="#fff"/><stop offset=".639099" stop-color="#878787"/><stop offset="1" stop-color="#878787"/></linearGradient><radialGradient id="g" cx="35.368" cy="28.5666" gradientTransform="matrix(-.932484174001 -.361210832114 .361210832114 -.932484174001 58.029628499416 67.979798608658)" gradientUnits="userSpaceOnUse" r="13.9532"><stop offset="0" stop-color="#fff" stop-opacity=".517647"/><stop offset="1" stop-color="#3d3d3d" stop-opacity=".517647"/></radialGradient><linearGradient id="h" gradientTransform="matrix(-.464002598209 -.885833838175 .885833838175 -.464002598209 .493061824102 2.249824213765)" gradientUnits="objectBoundingBox" x1=".927189" x2="2.48491" y1=".975742" y2=".975742"><stop offset="0" stop-color="#ddd"/><stop offset=".686401" stop-color="#878787"/><stop offset=".893501" stop-color="#ddd"/><stop offset="1" stop-color="#ddd"/></linearGradient><linearGradient id="i" gradientTransform="matrix(-.673670773377 .739031588701 -.739031588701 -.673670773377 1.335553688776 .290888506739)" gradientUnits="objectBoundingBox" x1=".603554" x2=".763745" y1=".44031" y2=".44031"><stop offset="0"/><stop offset=".893501" stop-color="#dddde0"/><stop offset="1" stop-color="#dddde0"/></linearGradient><radialGradient id="j" cx="39.6174" cy="18.0871" gradientTransform="matrix(-.491160827667 .871068907358 -.871068907358 -.491160827667 74.830998833076 -7.538666800206)" gradientUnits="userSpaceOnUse" r="20.6293"><stop offset="0" stop-color="#c2c4d2"/><stop offset=".5" stop-color="#b1b1b6"/><stop offset="1"/></radialGradient><linearGradient id="k" gradientTransform="matrix(.211931855811 -.977284446051 .977284446051 .211931855811 -.549306883717 1.129335738581)" gradientUnits="objectBoundingBox" x1=".425592" x2="1.20913" y1=".905266" y2=".905266"><stop offset="0" stop-color="#ddd"/><stop offset=".721901" stop-color="#ddd"/><stop offset="1" stop-color="#ededeb"/></linearGradient><radialGradient id="l" cx="39.4664" cy="31.3994" gradientTransform="matrix(-.999043534583 .043726605264 -.043726605264 -.999043534583 80.268057789488 61.043075496832)" gradientUnits="userSpaceOnUse" r="5.9429"><stop offset="0" stop-color="#2d3436"/><stop offset=".721901"/><stop offset="1" stop-color="#2d3436"/></radialGradient><radialGradient id="m" cx="41.2135" cy="28.6167" gradientTransform="matrix(-.915012512131 -.403425461075 .403425461075 -.915012512131 67.379700668559 71.427961778378)" gradientUnits="userSpaceOnUse" r="1.20156"><stop offset="0" stop-color="#fff"/><stop offset=".526604" stop-color="#babcb6"/><stop offset="1" stop-color="#878985"/></radialGradient><linearGradient id="n"><stop offset="0" stop-color="#878985"/><stop offset=".6213" stop-color="#fff"/><stop offset="1" stop-color="#545652"/></linearGradient><radialGradient id="o" cx="41.1616" cy="29.4408" gradientTransform="matrix(-.98197962753 -.188986801435 .188986801435 -.98197962753 76.01743884654 66.130014251184)" gradientUnits="userSpaceOnUse" r="1.8368" xlink:href="#n"/><radialGradient id="p" cx="39.602" cy="31.935" gradientTransform="matrix(-.986155012291 -.165826088823 .165826088823 -.986155012291 73.360008467382 69.9949312312)" gradientUnits="userSpaceOnUse" r="1.81409" xlink:href="#n"/><radialGradient id="q" cx="40.4679" cy="30.5714" gradientTransform="matrix(-.987807079239 -.155682928433 .155682928433 -.987807079239 75.68286297194 67.070105035405)" gradientUnits="userSpaceOnUse" r="1.94473" xlink:href="#n"/><linearGradient id="r" gradientTransform="matrix(-.013151374909 -.999913516929 .999913516929 -.013151374909 -.400011769292 1.596738793217)" gradientUnits="objectBoundingBox" x1=".587932" x2="1.59051" y1=".995762" y2=".995762"><stop offset="0" stop-color="#545454"/><stop offset=".3965" stop-color="#878787"/><stop offset="1" stop-color="#545454"/></linearGradient><linearGradient id="s" gradientTransform="matrix(-.998419316499 .056203811633 -.056203811633 -.998419316499 1.982966316499 .901016790602)" gradientUnits="objectBoundingBox" x1=".978813" x2="1.93316" y1=".478393" y2=".478393"><stop offset="0" stop-color="#878787"/><stop offset=".893501" stop-color="#ddd"/><stop offset="1" stop-color="#c6c6cb"/></linearGradient><linearGradient id="t" gradientTransform="matrix(-.69759700613 .716490346787 -.716490346787 -.69759700613 1.243301017521 .329044501746)" gradientUnits="objectBoundingBox" x1=".552212" x2=".741952" y1=".426897" y2=".426897"><stop offset="0" stop-color="#e2ee48"/><stop offset=".212997" stop-color="#e3ee54"/><stop offset="1" stop-color="#85781d"/></linearGradient><radialGradient id="u" cx="44.6487" cy="19.0134" gradientTransform="matrix(-.987525077842 .157461806902 -.157461806902 -.987525077842 91.734361676541 30.759099075564)" gradientUnits="userSpaceOnUse" r="8.29927"><stop offset="0" stop-color="#fff"/><stop offset="1" stop-color="#878985"/></radialGradient><linearGradient id="v" gradientTransform="matrix(-.051092853108 -.998693907242 .998693907242 -.051092853108 -.544244192296 1.680723399253)" gradientUnits="objectBoundingBox" x1=".526346" x2="1.23724" y1="1.09892" y2="1.09892"><stop offset="0" stop-color="#fff" stop-opacity=".501961"/><stop offset="1" stop-opacity=".501961"/></linearGradient><linearGradient id="w" gradientTransform="matrix(-.125282723598 -.992121080901 .992121080901 -.125282723598 -.316944188495 1.642993771473)" gradientUnits="objectBoundingBox" x1=".565812" x2="1.54091" y1=".961216" y2=".961216"><stop offset="0" stop-color="#ededed"/><stop offset="1" stop-color="#525252"/></linearGradient><linearGradient id="x" gradientTransform="matrix(-.806434366409 -.591323610788 .591323610788 -.806434366409 1.200438290562 2.184063048743)" gradientUnits="objectBoundingBox" x1=".957688" x2="2.258" y1=".895554" y2=".895554"><stop offset="0" stop-color="#c8c8c8"/><stop offset=".0229034" stop-color="#b1b1b1"/><stop offset=".0500031" stop-color="#9e9e9e"/><stop offset=".0819016" stop-color="#919191"/><stop offset=".122498" stop-color="#898989"/><stop offset=".201202" stop-color="#878787"/><stop offset="1" stop-color="#676767"/></linearGradient><linearGradient id="y" gradientTransform="matrix(-.98985066643 -.142111428706 .142111428706 -.98985066643 1.988102602511 1.485692585237)" gradientUnits="objectBoundingBox" x1="1.0471" x2="2.16647" y1=".671853" y2=".671853"><stop offset="0" stop-color="#878787"/><stop offset="1" stop-color="#545454"/></linearGradient><linearGradient id="z" gradientTransform="matrix(-.952180081853 -.305537381874 .305537381874 -.952180081853 2.311445895015 2.794784382964)" gradientUnits="objectBoundingBox" x1="1.37443" x2="3.09776" y1="1.21651" y2="1.21651"><stop offset="0"/><stop offset=".893501" stop-color="#fff"/><stop offset="1" stop-color="#fff"/></linearGradient><g stroke-linejoin="round"><path d="m13.4792 2.43748h61c6.0751 0 11 4.92487 11 11.00002v49.6667c0 6.0751-4.9249 11-11 11h-61c-6.07518 0-11.00005-4.9249-11.00005-11v-49.6667c0-6.07515 4.92487-11.00002 11.00005-11.00002z" fill="#b2ae5a" stroke="#000"/><path d="m73.499 4.92154h-58.1111c-3.034 0-6.80821.84715-9.57541 4.64535h.06589c.06588 35.59881 18.16602 35.71981 38.54312 35.71981 20.377 0 37.6866-.3444 38.016-35.80359v.02792c-1.4495-2.06666-3.3602-4.18918-8.9385-4.58949z" fill="url(#a)" stroke-width=".2"/><path d="m73.2684 4.87499-16.9875 1.86187c-3.034 0-19.1508-1.78743-21.918 2.01078l-8.0819 11.91596c4.3585 7.0054 19.6778-2.0853 22.0497-3.8354 23.631-3.0163 33.5468 28.0676 33.8762-7.39164v.02793c-1.4495-2.06667-3.3602-4.18919-8.9385-4.5895z" fill="url(#b)" stroke-width=".2"/><path d="m13.7291 5.271h60.7499c4.4183 0 8 3.58171 8 8v49.9999c0 4.4182-3.5817 7.9999-8 7.9999h-60.7499c-4.41825 0-7.99997-3.5817-7.99997-7.9999v-49.9999c0-4.41829 3.58172-8 7.99997-8z" fill="none" stroke="#ffd23f" stroke-width="6"/><path d="m18.4375 19.8278 1.0267-.8748 1.6291 1.0037 16.2674 20.4207-2.2189 1.7124-16.2253-20.3678z" fill="url(#c)" stroke-width=".2"/><path d="m36.3361 40.3862-.9501.6938-.9807.2414-.613 1.1161.2452 1.991 1.1033.6033.9501.2413.613.8749.4597 1.9608 12.5046 15.3847h1.3791l3.7698-3.6199-.1839-1.448-11.5851-14.6608-1.8082-.6033-.8275-.905-.1226-1.4781-.2452-.8145-1.5324-.8145-1.8083.3318z" fill="url(#d)" stroke-width=".2"/><path d="m46.4153 32.7289c1.0784.9413 11.0467 13.4026 18.1693 22.4107-.5578.1569-1.1095.4341-1.6139.845-.6986.5688-1.2016 1.3018-1.5159 2.0874-3.8728-5.2592-15.7687-22.6659-16.4291-24.1358-.0186-.0787-.0319-.1568-.0354-.2336-.0159-.3509.1249-.6709.4-.888.3059-.2411.6862-.2675 1.025-.0857z" fill="none" stroke="#bdaa28" stroke-width="1.33333"/><g stroke-width=".2"><path d="m65.8897 57.8304c-1.3596-.1855-2.8023 1.1665-3.0122 2.8887-.1738 1.4241.9993 3.0133 2.3588 3.1988 1.3603.1864 2.8782-1.2024 3.0972-2.762.0132-.094.0328-.1966.0371-.2905.004-.0939.0029-.1889-.0017-.2826-.0132-.2805-.0717-.5506-.1598-.8155-.0294-.0883-.0555-.1705-.0933-.2557-.374-.8509-1.1519-1.5344-2.2261-1.6812zm-26.3858-44.4825c.1132.0185.1811.0357.1838.0365 3.3305.7201 5.6771 3.4383 5.6341 6.4247.0006.0136.5436 8.6572 1.8435 11.0618 1.0201 1.8875 21.5503 25.895 22.4447 27.8814.5792 1.2859.5387 2.6819.091 3.9115-.2872.778-.7339 1.4774-1.3042 2.0281-.0299.0291-.0675.0489-.0976.0771-.052.0476-.1041.1017-.1573.1467-.0736.0621-.1475.12-.224.1768-.1411.1048-.2895.2042-.4399.2906-.0183.0104-.0366.0216-.0544.0316-.0702.0387-.1422.0665-.2143.1009-.1098.0529-.2204.1083-.3341.1501l-.0385.0078c-.0827.0297-.1655.0602-.2499.084-.0434.0121-.0865.0243-.1301.0348-.0357.0086-.0683.0176-.1039.025-.0592.0125-.12.0192-.18.0284-.2262.0369-.4641.0609-.699.0524-.1379-.0048-.2822-.0195-.4224-.041-.0589-.0087-.1127-.0225-.172-.0346-.2065-.0414-.4095-.1013-.6183-.1812-.0472-.0179-.0968-.0365-.1437-.0568-.0753-.0318-.1507-.0689-.2258-.1055-.1311-.0643-.2565-.1352-.3879-.216-.0526-.0325-.1108-.0625-.1635-.0979-.0757-.0503-.1558-.1011-.2315-.1575-.0261-.0193-.0539-.0414-.0803-.0615-.1026-.0796-.2047-.1664-.3066-.2574-.0832-.0738-.1835-.1773-.2898-.2934-.0725-.0786-.1594-.1771-.2416-.2741-.1096-.1289-.2547-.3136-.3802-.4716-.1079-.1361-.2269-.2854-.3573-.4559-4.5747-6.0114-17.2156-26.5778-19.2128-28.2536-1.5074-1.2643-9.673-3.8719-9.673-3.8719-1.5488-.9756-3.4937-3.6735-3.9819-7.4336-.0428-.9742.1837-1.9639.2028-1.7829l4.7679 2.9664 3.666-2.2924.7585-1.4045.1217-2.5248-5.3009-2.8289.1801-.721c2.4742-2.1774 5.729-1.8261 6.5226-1.6986z" fill-opacity=".803922"/><path d="m28.8894 21.0422c.4379 4.0647 3.1663 7.5445 4.6946 7.9912l-.9087 1.2261c-1.5488-.976-3.4991-3.6697-3.9877-7.4298l0 0c-.0392-.8987.1493-1.8148.1937-1.8092z" fill="url(#e)"/><path d="m28.8895 21.042 4.7634 2.9696 3.6711-2.291c.3031.6051-.9469 8.7428-2.7368 8.4049-3.2761-.6195-5.1545-4.4606-5.6977-9.0835z" fill="#888a85"/><path d="m33.5564 24.1418-.2505 3.6887-.7312 1.3957c-.8322-.6152-1.5266-1.4917-2.0864-2.5586l0 0c-.7335-1.5056-1.2168-3.3495-1.4511-5.3424z" fill="url(#f)"/><path d="m36.9956 22.0801.0076.0256c.252.866-.6439 8.434-2.3988 8.1022-.3879-.0736-.7621-.1934-1.111-.3531l.6687-6.0564 2.8244-1.7322z" fill="url(#g)"/><path d="m39.7904 12.577c3.33.7204 5.6792 3.4349 5.6357 6.4212l0 0c .0007.0133.544 8.661 1.8443 11.0652l0 0c1.0201 1.8879 21.5481 25.8906 22.4429 27.8769l0 0c1.8895 4.1949-2.7578 9.5983-6.889 5.9369l0 0c-2.7247-2.4145-18.2461-27.8775-20.4758-29.7479l0 0c-1.507-1.2646-9.6723-3.8705-9.6723-3.8705l5.4111-9.9403.1487-3.3995-5.1513-2.6855c2.2804-2.0066 5.2273-1.8579 6.2961-1.7221l0 0c .2564.0326.4045.0646.4096.0656zm28.6528 47.767c.2099-1.4984-.7273-3.0837-2.4454-3.3193l0 0c-1.3599-.1865-2.8055 1.1651-3.0152 2.8873l0 0c-.1739 1.4246 1.0017 3.0169 2.3615 3.2029l.0175.0022 0 0c1.3552.1722 2.8635-1.2203 3.0816-2.7731z" fill="url(#h)"/><path d="m38.497 20.4342.1645-3.7686s-3.8208-1.9926-4.7726-2.4888c2.5762-1.8163 5.7764-1.1949 5.8132-1.1869 3.0032.6501 5.1868 3.0188 5.3051 5.7006.0041.1007.0059.2023.0043.3031l-.0001.0008c.0065.1507.5368 8.7614 1.8945 11.2739.4892.9042 4.9055 6.234 10.0195 12.4059 5.3246 6.4256 11.9507 14.4222 12.4104 15.4433.2489.5534.3734 1.1169.3978 1.6688.0702 1.5973-.7026 3.0923-1.7339 3.9731-.1791-.2871-.3702-.5909-.5747-.9125.7315-.584 1.2919-1.4697 1.4284-2.4454.1251-.8926-.1065-1.8137-.6365-2.528-.5168-.6975-1.2848-1.1478-2.1618-1.2682-.6795-.0929-1.3978.1274-2.0247.6196-.0771.0612-.1506.128-.2228.1958-4.7683-6.8931-12.8837-17.8414-26.558-34.6942.7193-1.3224 1.2474-2.2923 1.2474-2.2923z" fill="url(#i)"/><path d="m39.5465 13.0444c3.2546.9358 5.0365 3.2625 5.0997 6.1413l-3.3637 6.4471-1.1438-.6507-2.3894 4.6993.9364.5877-1.3265 1.6017-4.6831-1.6112 5.4112-9.9411.1487-3.3995-5.1513-2.6855c.7757-.6958 1.7388-1.2204 2.8094-1.5236l0 0c .8013-.0467 1.6162-.0167 2.3504.0767l0 0c .4764.0605.9187.1474 1.302.2578z" fill="url(#j)"/><path d="m44.6848 27.6801-2.581 4.5034-5.3733-2.5372 3.3727-5.3892z" fill="url(#k)"/><path d="m44.6848 27.6801-2.581 4.5034-4.5447-2.5796 2.5818-4.5033z" fill="url(#l)"/><path d="m43.6379 27.3989-2.1672 3.8027-2.6798-1.3735 2.1676-3.803z" fill="url(#m)"/><path d="m43.8299 27.7956-.1424.468-4.0629-1.6432.1429-.4683z" fill="url(#o)"/><path d="m42.1573 30.5696-.1267.3984-3.9889-1.5163.1271-.3989z" fill="url(#p)"/><path d="m43.1596 29.2573-.1305.3972-4.2623-1.5733.1293-.397z" fill="url(#q)"/><path d="m33.6516 27.3096c-.1992 1.815-.602 1.8944-.6722 2.2164l0 0c-.1388-.071-.1748-.0736-.196-.0738l0 0c-.0261-.0008-.0316.0013-.1813-.1191l0 0c .0403-.157.5425-1.2336.7447-1.6176l0 0c .0623-.9055.2746-3.4423.2925-3.683l0 0c .1649-.1026.2289-.1429.4302-.2524l0 0c .0213.1131-.3891 3.4145-.4179 3.5295z" fill="url(#r)"/><path d="m46.8524 31.9988c.9756.5588 19.5793 24.0053 19.4475 23.9599l0 0c-2.0285-.6992-4.6048 1.6654-4.3545 4.1072l0 0c-1.4322-1.5326-17.4356-24.7975-17.7169-25.8783l0 0c-.3627-1.3979.7618-2.5666 1.9617-2.4141l0 0c .2211.0281.4446.1008.6622.2253z" fill="url(#s)"/><path d="m46.4155 32.729c1.078.9413 11.0467 13.4026 18.1692 22.4107l0 0c-.5577.1565-1.1094.4337-1.6138.845l0 0c-.6991.5693-1.202 1.3017-1.5164 2.0875l0 0c-3.8723-5.2593-15.7686-22.6665-16.429-24.1363l0 0c-.0182-.0783-.0315-.1564-.0354-.2332l0 0c-.0155-.3505.1254-.6713.4004-.8884l0 0c .2056-.1619.4454-.2266.6832-.1964l0 0c .1157.0147.231.0515.3418.1111z" fill="url(#t)"/><path d="m46.5429 30.4742c.0342.0635.0884.15.1547.2484l0 0c-.1868-.2364-.3217-.4194-.3881-.5325l0 0c-1.2311-2.0769-2.6324-7.4998-2.7793-8.8662l1.0809-2.0713c.0908 1.3486.6501 8.8514 1.9318 11.2216z" fill="url(#u)"/><path d="m65.3441 63.1149c1.3599.1864 2.8802-1.2112 3.099-2.7703.21-1.4994-.7267-3.0852-2.4452-3.3204-1.3595-.1859-2.8056 1.1652-3.0153 2.8878-.1739 1.4246 1.0017 3.0169 2.3615 3.2029zm-3.7746-.7108c-.2593-.6241-.3735-1.2918-.2867-1.9388.1803-1.3429.9472-2.6281 2.0504-3.4384.877-.6437 1.8826-.9338 2.8321-.8164 1.2249.1523 2.2956.7346 3.0151 1.6393.6307.7925.9532 1.7846.9222 2.7815-.4212 3.364-4.0098 6.1433-7.2791 3.2454-.2862-.2527-.7155-.7638-1.254-1.4726z" fill="url(#v)"/><path d="m66.0551 56.6053c.8767.12 1.6442.5706 2.1618 1.2682l0 0c .5292.7142.7612 1.6354.6365 2.5284l0 0c-.2562 1.8259-1.9897 3.3478-3.5673 3.1317l0 0c-1.5701-.2147-2.9155-2.0331-2.7152-3.6711l0 0c .1257-1.0323.6714-2.0173 1.4595-2.6376l0 0c .6197-.4878 1.3309-.7078 2.0045-.6222zm2.3881 3.7387c.2099-1.4988-.7268-3.0846-2.4454-3.3193l0 0c-1.3599-.1865-2.8055 1.1651-3.0152 2.8873l0 0c-.1739 1.4246 1.0017 3.0169 2.3615 3.2029l.0175.0022 0 0c1.3552.1722 2.8635-1.2203 3.0816-2.7731z" fill="url(#w)"/><path d="m49.1836 32.9753c-.1159-.2146-.2249-.483-.328-.7919 5.0342 6.3357 20.094 24.0619 20.8573 25.7569.1487.3298.2525.6669.3236 1.0081-2.2383-3.4139-19.9364-24.2667-20.8529-25.9731z" fill="#9b9ba1" fill-opacity=".403922"/><path d="m42.3111 33.2859c2.2296 1.8704 17.7513 27.3334 20.4752 29.7482l0 0c3.4152 3.0264 7.1779-.1408 7.3158-3.6981l0 0c .2877 2.2522-.9809 4.5303-2.8177 5.3933l-.0035.0016-.0227.0107-.0136.0061-.0039.0019 0 0c-1.3084.5945-2.8969.4743-4.4164-.8724l0 0c-2.7247-2.4145-18.2461-27.8775-20.4758-29.7479l0 0c-1.507-1.2646-9.6723-3.8705-9.6723-3.8705l.3848-.7065c1.6857.5505 7.9489 2.6417 9.2501 3.7336z" fill="url(#x)"/><path d="m38.236 16.919.0017.8865-5.3361-2.8465.1831-.7255z" fill="url(#y)"/><path d="m38.1986 16.0756-.0355.8058-5.0784-2.6479c.2082-.1825.422-.3429.6391-.491z" fill="url(#z)"/></g></g></svg>