<svg enable-background="new 0 0 88.00 76.00" height="76" viewBox="0 0 88 76" width="88" xmlns="http://www.w3.org/2000/svg" xmlns:xlink="http://www.w3.org/1999/xlink"><linearGradient id="a" gradientTransform="matrix(0 1 -1 0 .228961 -.778777)" gradientUnits="objectBoundingBox" x1=".503869" x2="2.05368" y1="-.274908" y2="-.274908"><stop offset=".316279" stop-color="#f0f1ec" stop-opacity=".592157"/><stop offset=".800003" stop-color="#fff" stop-opacity="0"/></linearGradient><linearGradient id="b" gradientTransform="matrix(-.986419469397 .164245640414 -.164245640414 -.986419469397 1.939424287666 .714190121802)" gradientUnits="objectBoundingBox" x1=".940186" x2="2.52462" y1=".437275" y2=".437275"><stop offset=".274419" stop-color="#f0f1ec" stop-opacity=".501961"/><stop offset=".562791" stop-color="#fff" stop-opacity="0"/></linearGradient><linearGradient id="c" gradientTransform="matrix(-.716277597685 .69781545057 -.69781545057 -.716277597685 .621735208488 -.361327196358)" gradientUnits="objectBoundingBox" x1=".384323" x2="1.49921" y1="-.0542693" y2="-.0542693"><stop offset=".390698" stop-color="#83838f"/><stop offset=".460465" stop-color="#4f4f5e"/><stop offset=".530233" stop-color="#8d8d99"/><stop offset=".613953" stop-color="#aaabb9"/></linearGradient><linearGradient id="d" gradientTransform="matrix(-.724052404005 .689744964646 -.689744964646 -.724052404005 1.70385705707 -.194557373315)" gradientUnits="objectBoundingBox" x1=".890847" x2="1.81506" y1=".243554" y2=".243554"><stop offset=".255814" stop-color="#f5ca3f"/><stop offset=".474419" stop-color="#e7d52c"/><stop offset=".548837" stop-color="#e7d858"/><stop offset=".651163" stop-color="#d5b42b"/><stop offset=".683721" stop-color="#f5ca3f"/></linearGradient><linearGradient id="e" gradientTransform="matrix(-.225949458334 -.974139026155 .974139026155 -.225949458334 .027189351911 2.133472649859)" gradientUnits="objectBoundingBox" x1=".861223" x2="3.22655" y1="1.05593" y2="1.05593"><stop offset="0" stop-color="#545454"/><stop offset=".686401" stop-color="#878787"/><stop offset="1" stop-color="#878787"/></linearGradient><linearGradient id="f" gradientTransform="matrix(-.795562843568 .605871076991 -.605871076991 -.795562843568 1.942586128275 .045687322227)" gradientUnits="objectBoundingBox" x1=".963585" x2="2.07221" y1=".350584" y2=".350584"><stop offset="0" stop-color="#fff"/><stop offset=".639099" stop-color="#878787"/><stop offset="1" stop-color="#878787"/></linearGradient><radialGradient id="g" cx="32.018" cy="25.197" gradientTransform="matrix(-.932484079437 -.361211076238 .361211076238 -.932484079437 52.772835342616 60.258134761495)" gradientUnits="userSpaceOnUse" r="16.8229"><stop offset="0" stop-color="#fff" stop-opacity=".517647"/><stop offset="1" stop-color="#3d3d3d" stop-opacity=".517647"/></radialGradient><linearGradient id="h" gradientTransform="matrix(-.464002366298 -.88583395965 .88583395965 -.464002366298 .493061490549 2.249824100111)" gradientUnits="objectBoundingBox" x1=".927189" x2="2.48491" y1=".975742" y2=".975742"><stop offset="0" stop-color="#ddd"/><stop offset=".686401" stop-color="#878787"/><stop offset=".893501" stop-color="#ddd"/><stop offset="1" stop-color="#ddd"/></linearGradient><linearGradient id="i" gradientTransform="matrix(-.673670180045 .739032129558 -.739032129558 -.673670180045 1.335553568812 .290887919052)" gradientUnits="objectBoundingBox" x1=".603554" x2=".763745" y1=".44031" y2=".44031"><stop offset="0"/><stop offset=".893501" stop-color="#dddde0"/><stop offset="1" stop-color="#dddde0"/></linearGradient><radialGradient id="j" cx="37.1413" cy="12.5623" gradientTransform="matrix(-.491160827667 .871068907358 -.871068907358 -.491160827667 66.326233501183 -13.62017244005)" gradientUnits="userSpaceOnUse" r="24.872"><stop offset="0" stop-color="#c2c4d2"/><stop offset=".5" stop-color="#b1b1b6"/><stop offset="1"/></radialGradient><linearGradient id="k" gradientTransform="matrix(.211932111663 -.977284390567 .977284390567 .211932111663 -.549306942378 1.129335483353)" gradientUnits="objectBoundingBox" x1=".425592" x2="1.20913" y1=".905266" y2=".905266"><stop offset="0" stop-color="#ddd"/><stop offset=".721901" stop-color="#ddd"/><stop offset="1" stop-color="#ededeb"/></linearGradient><radialGradient id="l" cx="36.9593" cy="28.6125" gradientTransform="matrix(-.999043510924 .043727145799 -.043727145799 -.999043510924 75.134301223348 55.581481737707)" gradientUnits="userSpaceOnUse" r="7.16515"><stop offset="0" stop-color="#2d3436"/><stop offset=".721901"/><stop offset="1" stop-color="#2d3436"/></radialGradient><radialGradient id="m" cx="39.0657" cy="25.2575" gradientTransform="matrix(-.915013800648 -.403422538566 .403422538566 -.915013800648 64.621887997115 64.128406328174)" gradientUnits="userSpaceOnUse" r="1.44868"><stop offset="0" stop-color="#fff"/><stop offset=".526604" stop-color="#babcb6"/><stop offset="1" stop-color="#878985"/></radialGradient><linearGradient id="n"><stop offset="0" stop-color="#878985"/><stop offset=".6213" stop-color="#fff"/><stop offset="1" stop-color="#545652"/></linearGradient><radialGradient id="o" cx="39.003" cy="26.251" gradientTransform="matrix(-.98197962753 -.188986801435 .188986801435 -.98197962753 72.342104657826 59.400043782914)" gradientUnits="userSpaceOnUse" r="2.21458" xlink:href="#n"/><radialGradient id="p" cx="37.1227" cy="29.2582" gradientTransform="matrix(-.986154835743 -.165827138733 .165827138733 -.986154835743 68.879629500163 64.267326786144)" gradientUnits="userSpaceOnUse" r="2.18717" xlink:href="#n"/><radialGradient id="q" cx="38.1667" cy="27.6141" gradientTransform="matrix(-.987807038481 -.15568318704 .15568318704 -.987807038481 71.56891847801 60.83343272015)" gradientUnits="userSpaceOnUse" r="2.3447" xlink:href="#n"/><linearGradient id="r" gradientTransform="matrix(-.013151374909 -.999913516929 .999913516929 -.013151374909 -.400012769205 1.596739806368)" gradientUnits="objectBoundingBox" x1=".587932" x2="1.59051" y1=".995763" y2=".995763"><stop offset="0" stop-color="#545454"/><stop offset=".3965" stop-color="#878787"/><stop offset="1" stop-color="#545454"/></linearGradient><linearGradient id="s" gradientTransform="matrix(-.998419316499 .056203811633 -.056203811633 -.998419316499 1.982966316499 .901016790602)" gradientUnits="objectBoundingBox" x1=".978813" x2="1.93316" y1=".478393" y2=".478393"><stop offset="0" stop-color="#878787"/><stop offset=".893501" stop-color="#ddd"/><stop offset="1" stop-color="#c6c6cb"/></linearGradient><linearGradient id="t" gradientTransform="matrix(-.697596043235 .716491284289 -.716491284289 -.697596043235 1.243302583612 .329042856498)" gradientUnits="objectBoundingBox" x1=".552213" x2=".741953" y1=".426897" y2=".426897"><stop offset="0" stop-color="#e2ee48"/><stop offset=".212997" stop-color="#e3ee54"/><stop offset="1" stop-color="#85781d"/></linearGradient><radialGradient id="u" cx="43.2074" cy="13.6791" gradientTransform="matrix(-.98752478378 .157463651107 -.157463651107 -.98752478378 88.029738053348 20.383913415489)" gradientUnits="userSpaceOnUse" r="10.0061"><stop offset="0" stop-color="#fff"/><stop offset="1" stop-color="#878985"/></radialGradient><linearGradient id="v" gradientTransform="matrix(-.051093916368 -.998693852845 .998693852845 -.051093916368 -.544243520476 1.680726588845)" gradientUnits="objectBoundingBox" x1=".526347" x2="1.23724" y1="1.09892" y2="1.09892"><stop offset="0" stop-color="#fff" stop-opacity=".501961"/><stop offset="1" stop-opacity=".501961"/></linearGradient><linearGradient id="w" gradientTransform="matrix(-.125282723598 -.992121080901 .992121080901 -.125282723598 -.316945313777 1.642992779352)" gradientUnits="objectBoundingBox" x1=".565811" x2="1.54091" y1=".961216" y2=".961216"><stop offset="0" stop-color="#ededed"/><stop offset="1" stop-color="#525252"/></linearGradient><linearGradient id="x" gradientTransform="matrix(-.806434211601 -.591323821912 .591323821912 -.806434211601 1.200437953231 2.184063112295)" gradientUnits="objectBoundingBox" x1=".957688" x2="2.258" y1=".895554" y2=".895554"><stop offset="0" stop-color="#c8c8c8"/><stop offset=".0229034" stop-color="#b1b1b1"/><stop offset=".0500031" stop-color="#9e9e9e"/><stop offset=".0819016" stop-color="#919191"/><stop offset=".122498" stop-color="#898989"/><stop offset=".201202" stop-color="#878787"/><stop offset="1" stop-color="#676767"/></linearGradient><linearGradient id="y" gradientTransform="matrix(-.98985066643 -.142111428706 .142111428706 -.98985066643 1.988102460399 1.485694575087)" gradientUnits="objectBoundingBox" x1="1.0471" x2="2.16647" y1=".671854" y2=".671854"><stop offset="0" stop-color="#878787"/><stop offset="1" stop-color="#545454"/></linearGradient><linearGradient id="z" gradientTransform="matrix(-.952180081853 -.305537381874 .305537381874 -.952180081853 2.311446200552 2.794782430784)" gradientUnits="objectBoundingBox" x1="1.37443" x2="3.09776" y1="1.21651" y2="1.21651"><stop offset="0"/><stop offset=".893501" stop-color="#fff"/><stop offset="1" stop-color="#fff"/></linearGradient><g stroke-linejoin="round"><path d="m13.4792 2.43748h61c6.0751 0 11 4.92487 11 11.00002v49.6667c0 6.0751-4.9249 11-11 11h-61c-6.07518 0-11.00005-4.9249-11.00005-11v-49.6667c0-6.07515 4.92487-11.00002 11.00005-11.00002z" fill="#b2ae5a" stroke="#000"/><path d="m73.499 4.92154h-58.1111c-3.034 0-6.80821.84715-9.57541 4.64535h.06589c.06588 35.59881 18.16602 35.71981 38.54312 35.71981 20.377 0 37.6866-.3444 38.016-35.80359v.02792c-1.4495-2.06666-3.3602-4.18918-8.9385-4.58949z" fill="url(#a)" stroke-width=".2"/><path d="m73.2684 4.87499-16.9875 1.86187c-3.034 0-19.1508-1.78743-21.918 2.01078l-8.0819 11.91596c4.3585 7.0054 19.6778-2.0853 22.0497-3.8354 23.631-3.0163 33.5468 28.0676 33.8762-7.39164v.02793c-1.4495-2.06667-3.3602-4.18919-8.9385-4.5895z" fill="url(#b)" stroke-width=".2"/><path d="m13.7291 5.271h60.7499c4.4183 0 8 3.58171 8 8v49.9999c0 4.4182-3.5817 7.9999-8 7.9999h-60.7499c-4.41825 0-7.99997-3.5817-7.99997-7.9999v-49.9999c0-4.41829 3.58172-8 7.99997-8z" fill="none" stroke="#ffd23f" stroke-width="6"/><path d="m11.6055 14.661 1.2378-1.0547 1.9641 1.2102 19.6131 24.6204-2.6753 2.0646-19.5622-24.5567z" fill="url(#c)" stroke-width=".2"/><path d="m33.1852 39.4475-1.1455.8365-1.1825.291-.739 1.3457.2956 2.4005 1.3303.7274 1.1455.2909.739 1.0548.5543 2.364 15.0763 18.5489h1.6628l4.545-4.3644-.2217-1.7458-13.9677-17.676-2.1801-.7274-.9977-1.0911-.1478-1.7822-.2957-.982-1.8475-.9819-2.1802.4z" fill="url(#d)" stroke-width=".2"/><path d="m45.3372 30.2154c1.3002 1.1349 13.3187 16.1591 21.9061 27.0197-.6724.1893-1.3376.5234-1.9458 1.0188-.8423.6859-1.4487 1.5695-1.8277 2.5167-4.6693-6.3408-19.0117-27.3275-19.808-29.0996-.0223-.0949-.0384-.189-.0426-.2816-.0191-.4232.1506-.8089.4823-1.0707.3688-.2907.8273-.3225 1.2357-.1033z" fill="none" stroke="#bdaa28" stroke-width="1.33333"/><g stroke-width=".2"><path d="m68.8169 60.4794c-1.6392-.2237-3.3787 1.4064-3.6318 3.4827-.2095 1.7171 1.2048 3.6331 2.844 3.8568 1.64.2247 3.4702-1.4497 3.7341-3.3302.016-.1133.0396-.237.0448-.3501.0048-.1133.0034-.2278-.002-.3408-.016-.3381-.0864-.6638-.1927-.9832-.0354-.1065-.0669-.2055-.1125-.3083-.4509-1.0259-1.3888-1.8499-2.6839-2.0269zm-31.8125-53.63099c.1365.02229.2183.04309.2216.044 4.0155.86816 6.8448 4.14549 6.7928 7.74609.0008.0164.6555 10.4376 2.2227 13.3367 1.23 2.2757 25.9825 31.2207 27.0607 33.6157.6984 1.5503.6496 3.2334.1098 4.716-.3463.9379-.8849 1.7812-1.5724 2.4452-.036.035-.0813.0589-.1177.0929-.0627.0574-.1255.1226-.1897.1768-.0887.0749-.1778.1447-.27.2132-.1701.1264-.3491.2462-.5304.3503-.022.0126-.0441.0261-.0656.0382-.0846.0467-.1714.0802-.2583.1216-.1325.0638-.2658.1305-.4029.1809l-.0463.0095c-.0998.0358-.1997.0726-.3014.1013-.0524.0146-.1042.0293-.1568.0419-.0431.0104-.0824.0212-.1253.0301-.0714.0152-.1447.0232-.217.0343-.2728.0445-.5595.0734-.8427.0632-.1663-.0058-.3403-.0235-.5094-.0494-.071-.0105-.1358-.0272-.2073-.0417-.249-.05-.4937-.1221-.7455-.2185-.0569-.0216-.1167-.044-.1733-.0685-.0908-.0383-.1816-.083-.2721-.1272-.1581-.0775-.3093-.163-.4678-.2604-.0634-.0392-.1336-.0754-.197-.1181-.0913-.0606-.1879-.1218-.2792-.1899-.0315-.0233-.065-.0498-.0968-.0742-.1237-.0959-.2468-.2006-.3696-.3102-.1003-.089-.2213-.2138-.3495-.3538-.0874-.0947-.1921-.2135-.2913-.3305-.1321-.1554-.307-.3781-.4584-.5686-.13-.164-.2735-.3441-.4307-.5497-5.5156-7.2476-20.7562-32.0438-23.1642-34.0643-1.8175-1.5243-11.6623-4.6681-11.6623-4.6681-1.8674-1.1763-4.2124-4.4291-4.8009-8.9624-.0517-1.1747.2215-2.3679.2445-2.1497l5.7484 3.5765 4.4201-2.7638.9144-1.6933.1468-3.0441-6.3911-3.41075.217-.86926c2.9831-2.62523 6.9074-2.20174 7.8641-2.04798z" fill-opacity=".803922"/><path d="m24.2069 16.1252c.528 4.9006 3.8176 9.0961 5.6602 9.6347l-1.0957 1.4782c-1.8673-1.1767-4.2187-4.4244-4.8077-8.9578l0 0c-.0473-1.0835.18-2.1881.2335-2.1813z" fill="url(#e)"/><path d="m24.207 16.1249 5.7431 3.5803 4.4261-2.7621c.3655.7295-1.1416 10.5409-3.2996 10.1335-3.9499-.747-6.2146-5.378-6.8696-10.9517z" fill="#888a85"/><path d="m29.8338 19.8623-.3021 4.4473-.8815 1.6827c-1.0033-.7418-1.8406-1.7985-2.5155-3.0848l0 0c-.8844-1.8152-1.4671-4.0383-1.7495-6.4411z" fill="url(#f)"/><path d="m33.9803 17.3765.0092.0309c.3038 1.0441-.7764 10.1685-2.8922 9.7685-.4677-.0887-.9189-.2331-1.3395-.4257l.8063-7.3019 3.4053-2.0886z" fill="url(#g)"/><path d="m37.3499 5.91899c4.0149.86859 6.8472 4.14131 6.7948 7.74181l0 0c .0008.016.6558 10.4422 2.2236 13.3409l0 0c1.2299 2.2762 25.9797 31.2154 27.0585 33.6102l0 0c2.2781 5.0576-3.325 11.5723-8.3058 7.1579l0 0c-3.285-2.9111-21.9987-33.6109-24.6869-35.866l0 0c-1.817-1.5247-11.6616-4.6665-11.6616-4.6665l6.524-11.9847.1793-4.0986-6.2107-3.23785c2.7494-2.41933 6.3024-2.24002 7.5909-2.07626l0 0c .3091.03929.4877.07782.4939.0791zm34.5456 57.59101c.253-1.8066-.8769-3.718-2.9482-4.002l0 0c-1.6397-.2249-3.3826 1.4047-3.6355 3.481l0 0c-.2096 1.7176 1.2078 3.6375 2.8473 3.8617l.021.0026 0 0c1.6339.2077 3.4525-1.4712 3.7154-3.3433z" fill="url(#h)"/><path d="m35.7904 15.3921.1984-4.5436s-4.6067-2.40246-5.7541-3.00067c3.106-2.18989 6.9643-1.44068 7.0087-1.43109 3.6209.78386 6.2536 3.63976 6.3962 6.87306.0049.1214.0072.2439.0052.3654l-.0001.001c.0078.1816.6471 10.5633 2.2841 13.5926.5898 1.09 5.9144 7.5161 12.0801 14.9572 6.4197 7.7472 14.4086 17.3884 14.9628 18.6195.3001.6672.4501 1.3466.4796 2.0121.0847 1.9257-.8471 3.7282-2.0905 4.7902-.216-.3462-.4463-.7125-.6929-1.1002.882-.7041 1.5576-1.772 1.7222-2.9483.1509-1.0762-.1285-2.1867-.7674-3.048-.6231-.8409-1.549-1.3838-2.6064-1.529-.8193-.112-1.6853.1536-2.4412.747-.0929.0738-.1815.1544-.2686.2361-5.749-8.3108-15.5334-21.5108-32.02-41.8296.8673-1.5943 1.5039-2.7637 1.5039-2.7637z" fill="url(#i)"/><path d="m37.0559 6.48249c3.9239 1.12825 6.0722 3.93341 6.1485 7.40431l-4.0555 7.773-1.3791-.7845-2.8808 5.6658 1.129.7086-1.5993 1.9311-5.6463-1.9426 6.5241-11.9856.1793-4.0986-6.2107-3.23785c.9351-.83888 2.0964-1.47134 3.3871-1.8369l0 0c .9662-.05639 1.9486-.02013 2.8339.09238l0 0c .5743.07299 1.1076.17772 1.5698.31086z" fill="url(#j)"/><path d="m43.2508 24.1283-3.1118 5.4296-6.4783-3.059 4.0663-6.4977z" fill="url(#k)"/><path d="m43.2508 24.1283-3.1118 5.4296-5.4793-3.1103 3.1127-5.4294z" fill="url(#l)"/><path d="m41.9886 23.7892-2.6128 4.5848-3.231-1.6559 2.6134-4.5852z" fill="url(#m)"/><path d="m42.2202 24.2675-.1717.5642-4.8985-1.9811.1723-.5647z" fill="url(#o)"/><path d="m40.2035 27.612-.1527.4803-4.8093-1.8281.1533-.4809z" fill="url(#p)"/><path d="m41.412 26.0298-.1574.4789-5.1389-1.8969.1559-.4786z" fill="url(#q)"/><path d="m29.9486 23.6815c-.2403 2.1884-.7259 2.284-.8105 2.6722l0 0c-.1673-.0856-.2108-.0886-.2363-.0889l0 0c-.0314-.001-.0381.0016-.2186-.1436l0 0c .0486-.1893.6541-1.4874.8978-1.9503l0 0c .0752-1.0918.3311-4.1502.3527-4.4405l0 0c .1989-.1237.276-.1723.5186-.3043l0 0c .0258.1365-.469 4.1168-.5037 4.2554z" fill="url(#r)"/><path d="m45.8643 29.3352c1.1762.6736 23.606 28.9423 23.4471 28.8875l0 0c-2.4457-.8429-5.5518 2.0079-5.25 4.9519l0 0c-1.7268-1.8478-21.0214-29.8974-21.3606-31.2005l0 0c-.4374-1.6854.9184-3.0945 2.3651-2.9107l0 0c .2666.0339.536.1216.7984.2718z" fill="url(#s)"/><path d="m45.3375 30.2156c1.2997 1.1347 13.3187 16.1589 21.906 27.0196l0 0c-.6724.1888-1.3375.523-1.9458 1.0188l0 0c-.8428.6865-1.4491 1.5695-1.8282 2.5169l0 0c-4.6687-6.3409-19.0116-27.3282-19.8078-29.1003l0 0c-.022-.0944-.0381-.1885-.0427-.2811l0 0c-.0188-.4226.1511-.8094.4827-1.0711l0 0c .2479-.1952.5371-.2733.8237-.2369l0 0c .1395.0178.2785.0621.4121.1341z" fill="url(#t)"/><path d="m45.4912 27.497c.0411.0765.1064.1809.1864.2994l0 0c-.2252-.285-.3878-.5056-.4679-.642l0 0c-1.4843-2.504-3.1738-9.0422-3.3509-10.6896l1.3032-2.4972c.1095 1.6259.7838 10.6717 2.3292 13.5294z" fill="url(#u)"/><path d="m68.1591 66.8507c1.6395.2247 3.4725-1.4603 3.7363-3.34.2532-1.8078-.8762-3.7198-2.9481-4.0034-1.6391-.2241-3.3826 1.4049-3.6355 3.4817-.2096 1.7176 1.2078 3.6375 2.8473 3.8617zm-4.5509-.857c-.3126-.7525-.4504-1.5575-.3457-2.3376.2173-1.619 1.142-3.1686 2.4721-4.1455 1.0573-.7761 2.2697-1.1259 3.4145-.9843 1.4768.1836 2.7678.8857 3.6352 1.9765.7605.9554 1.1492 2.1515 1.112 3.3535-.5079 4.0559-4.8346 7.4067-8.7762 3.9128-.3451-.3046-.8627-.9208-1.5119-1.7754z" fill="url(#v)"/><path d="m69.0163 59.0023c1.057.1447 1.9823.688 2.6064 1.529l0 0c .638.8612.9178 1.9717.7674 3.0485l0 0c-.3089 2.2013-2.399 4.0363-4.301 3.7757l0 0c-1.893-.2588-3.5151-2.4512-3.2736-4.4261l0 0c .1516-1.2447.8095-2.4322 1.7596-3.1801l0 0c .7473-.5881 1.6047-.8533 2.4169-.7501zm2.8792 4.5077c.2531-1.8071-.8763-3.7191-2.9482-4.002l0 0c-1.6397-.2249-3.3826 1.4047-3.6355 3.481l0 0c-.2096 1.7176 1.2078 3.6375 2.8473 3.8617l.021.0026 0 0c1.6339.2077 3.4525-1.4712 3.7154-3.3433z" fill="url(#w)"/><path d="m48.6749 30.5125c-.1397-.2588-.2712-.5824-.3954-.9549 6.0695 7.6388 24.2266 29.0107 25.1468 31.0542.1793.3977.3045.8042.3902 1.2155-2.6986-4.116-24.0366-29.2574-25.1416-31.3148z" fill="#9b9ba1" fill-opacity=".403922"/><path d="m40.3889 30.8869c2.6883 2.2551 21.4022 32.9549 24.6863 35.8664l0 0c4.1175 3.6488 8.6541-.1698 8.8204-4.4587l0 0c .3468 2.7154-1.1826 5.462-3.3972 6.5025l-.0042.002-.0273.0128-.0165.0074-.0047.0023 0 0c-1.5774.7167-3.4927.5718-5.3247-1.0518l0 0c-3.285-2.9111-21.9987-33.6109-24.6869-35.866l0 0c-1.817-1.5247-11.6616-4.6665-11.6616-4.6665l.4639-.8518c2.0325.6637 9.5838 3.1849 11.1525 4.5014z" fill="url(#x)"/><path d="m35.4758 11.154.0021 1.0688-6.4335-3.43191.2207-.87474z" fill="url(#y)"/><path d="m35.4307 10.137-.0428.9717-6.1228-3.19255c.251-.22003.5088-.41345.7705-.59203z" fill="url(#z)"/></g></g></svg>