<?xml version="1.0" encoding="utf-8"?>
<!DOCTYPE svg PUBLIC "-//W3C//DTD SVG 1.1//EN" "http://www.w3.org/Graphics/SVG/1.1/DTD/svg11.dtd">
<svg xmlns="http://www.w3.org/2000/svg" xmlns:xlink="http://www.w3.org/1999/xlink" version="1.1" baseProfile="full" width="88" height="76" viewBox="0 0 88.00 76.00" enable-background="new 0 0 88.00 76.00" xml:space="preserve">
	<path fill="#B2AE5A" fill-opacity="1" stroke-width="2" stroke-linejoin="round" stroke="#000000" stroke-opacity="1" d="M 13.4792,2.43748L 74.4792,2.43748C 80.5543,2.43748 85.4792,7.36235 85.4792,13.4375L 85.4792,63.1042C 85.4792,69.1793 80.5543,74.1042 74.4792,74.1042L 13.4792,74.1042C 7.40402,74.1042 2.47915,69.1793 2.47915,63.1042L 2.47915,13.4375C 2.47915,7.36235 7.40402,2.43748 13.4792,2.43748 Z "/>
	<linearGradient id="SVGID_Fill1_" gradientUnits="objectBoundingBox" x1="0.503869" y1="-0.274908" x2="2.05368" y2="-0.274908" gradientTransform="rotate(90.000000 0.503869 -0.274908)">
		<stop offset="0.316279" stop-color="#F0F1EC" stop-opacity="0.592157"/>
		<stop offset="0.800003" stop-color="#FFFFFF" stop-opacity="0"/>
	</linearGradient>
	<path fill="url(#SVGID_Fill1_)" stroke-width="0.2" stroke-linejoin="round" d="M 73.499,4.92154L 15.3879,4.92154C 12.3539,4.92154 8.57969,5.76869 5.81249,9.56689L 5.87838,9.56689C 5.94426,45.1657 24.0444,45.2867 44.4215,45.2867C 64.7985,45.2867 82.1081,44.9423 82.4375,9.48311L 82.4375,9.51103C 80.988,7.44437 79.0773,5.32185 73.499,4.92154 Z "/>
	<linearGradient id="SVGID_Fill2_" gradientUnits="objectBoundingBox" x1="0.940186" y1="0.437275" x2="2.52462" y2="0.437275" gradientTransform="rotate(170.546585 0.940186 0.437275)">
		<stop offset="0.274419" stop-color="#F0F1EC" stop-opacity="0.501961"/>
		<stop offset="0.562791" stop-color="#FFFFFF" stop-opacity="0"/>
	</linearGradient>
	<path fill="url(#SVGID_Fill2_)" stroke-width="0.2" stroke-linejoin="round" d="M 73.2684,4.87499L 56.2809,6.73686C 53.2469,6.73686 37.1301,4.94943 34.3629,8.74764L 26.281,20.6636C 30.6395,27.669 45.9588,18.5783 48.3307,16.8282C 71.9617,13.8119 81.8775,44.8958 82.2069,9.43656L 82.2069,9.46449C 80.7574,7.39782 78.8467,5.2753 73.2684,4.87499 Z "/>
	<path fill="none" stroke-width="6" stroke-linejoin="round" stroke="#FFD23F" stroke-opacity="1" d="M 13.7291,5.271L 74.479,5.271C 78.8973,5.271 82.479,8.85271 82.479,13.271L 82.479,63.2709C 82.479,67.6891 78.8973,71.2708 74.479,71.2708L 13.7291,71.2708C 9.31085,71.2708 5.72913,67.6891 5.72913,63.2709L 5.72913,13.271C 5.72913,8.85271 9.31085,5.271 13.7291,5.271 Z "/>
	<linearGradient id="SVGID_Fill3_" gradientUnits="objectBoundingBox" x1="0.384323" y1="-0.0542693" x2="1.49921" y2="-0.0542693" gradientTransform="rotate(135.748001 0.384323 -0.054269)">
		<stop offset="0.390698" stop-color="#83838F" stop-opacity="1"/>
		<stop offset="0.460465" stop-color="#4F4F5E" stop-opacity="1"/>
		<stop offset="0.530233" stop-color="#8D8D99" stop-opacity="1"/>
		<stop offset="0.613953" stop-color="#AAABB9" stop-opacity="1"/>
	</linearGradient>
	<path fill="url(#SVGID_Fill3_)" stroke-width="0.2" stroke-linejoin="round" d="M 11.6055,14.661L 12.8433,13.6063L 14.8074,14.8165L 34.4205,39.4369L 31.7452,41.5015L 12.183,16.9448L 11.6055,14.661 Z "/>
	<linearGradient id="SVGID_Fill4_" gradientUnits="objectBoundingBox" x1="0.890847" y1="0.243554" x2="1.81506" y2="0.243554" gradientTransform="rotate(136.390076 0.890847 0.243554)">
		<stop offset="0.255814" stop-color="#F5CA3F" stop-opacity="1"/>
		<stop offset="0.474419" stop-color="#E7D52C" stop-opacity="1"/>
		<stop offset="0.548837" stop-color="#E7D858" stop-opacity="1"/>
		<stop offset="0.651163" stop-color="#D5B42B" stop-opacity="1"/>
		<stop offset="0.683721" stop-color="#F5CA3F" stop-opacity="1"/>
	</linearGradient>
	<path fill="url(#SVGID_Fill4_)" stroke-width="0.2" stroke-linejoin="round" d="M 33.1852,39.4475L 32.0397,40.284L 30.8572,40.575L 30.1182,41.9207L 30.4138,44.3212L 31.7441,45.0486L 32.8896,45.3395L 33.6286,46.3943L 34.1829,48.7583L 49.2592,67.3072L 50.922,67.3072L 55.467,62.9428L 55.2453,61.197L 41.2776,43.521L 39.0975,42.7936L 38.0998,41.7025L 37.952,39.9203L 37.6563,38.9383L 35.8088,37.9564L 33.6286,38.3564L 33.1852,39.4475 Z "/>
	<path fill="none" stroke-width="1.33333" stroke-linejoin="round" stroke="#BDAA28" stroke-opacity="1" d="M 45.3372,30.2154C 46.6374,31.3503 58.6559,46.3745 67.2433,57.2351C 66.5709,57.4244 65.9057,57.7585 65.2975,58.2539C 64.4552,58.9398 63.8488,59.8234 63.4698,60.7706C 58.8005,54.4298 44.4581,33.4431 43.6618,31.671C 43.6395,31.5761 43.6234,31.482 43.6192,31.3894C 43.6001,30.9662 43.7698,30.5805 44.1015,30.3187C 44.4703,30.028 44.9288,29.9962 45.3372,30.2154 Z "/>
	<path fill="#000000" fill-opacity="0.803922" stroke-width="0.2" stroke-linejoin="round" d="M 68.8169,60.4794C 67.1777,60.2557 65.4382,61.8858 65.1851,63.9621C 64.9756,65.6792 66.3899,67.5952 68.0291,67.8189C 69.6691,68.0436 71.4993,66.3692 71.7632,64.4887C 71.7792,64.3754 71.8028,64.2517 71.808,64.1386C 71.8128,64.0253 71.8114,63.9108 71.806,63.7978C 71.79,63.4597 71.7196,63.134 71.6133,62.8146C 71.5779,62.7081 71.5464,62.6091 71.5008,62.5063C 71.0499,61.4804 70.112,60.6564 68.8169,60.4794 Z M 37.0044,6.84841C 37.1409,6.8707 37.2227,6.8915 37.226,6.89241C 41.2415,7.76057 44.0708,11.0379 44.0188,14.6385C 44.0196,14.6549 44.6743,25.0761 46.2415,27.9752C 47.4715,30.2509 72.224,59.1959 73.3022,61.5909C 74.0006,63.1412 73.9518,64.8243 73.412,66.3069C 73.0657,67.2448 72.5271,68.0881 71.8396,68.7521C 71.8036,68.7871 71.7583,68.811 71.7219,68.845C 71.6592,68.9024 71.5964,68.9676 71.5322,69.0218C 71.4435,69.0967 71.3544,69.1665 71.2622,69.235C 71.0921,69.3614 70.9131,69.4812 70.7318,69.5853C 70.7098,69.5979 70.6877,69.6114 70.6662,69.6235C 70.5816,69.6702 70.4948,69.7037 70.4079,69.7451C 70.2754,69.8089 70.1421,69.8756 70.005,69.926L 69.9587,69.9355C 69.8589,69.9713 69.759,70.0081 69.6573,70.0368C 69.6049,70.0514 69.5531,70.0661 69.5005,70.0787C 69.4574,70.0891 69.4181,70.0999 69.3752,70.1088C 69.3038,70.124 69.2305,70.132 69.1582,70.1431C 68.8854,70.1876 68.5987,70.2165 68.3155,70.2063C 68.1492,70.2005 67.9752,70.1828 67.8061,70.1569C 67.7351,70.1464 67.6703,70.1297 67.5988,70.1152C 67.3498,70.0652 67.1051,69.9931 66.8533,69.8967C 66.7964,69.8751 66.7366,69.8527 66.68,69.8282C 66.5892,69.7899 66.4984,69.7452 66.4079,69.701C 66.2498,69.6235 66.0986,69.538 65.9401,69.4406C 65.8767,69.4014 65.8065,69.3652 65.7431,69.3225C 65.6518,69.2619 65.5552,69.2007 65.4639,69.1326C 65.4324,69.1093 65.3989,69.0828 65.3671,69.0584C 65.2434,68.9625 65.1203,68.8578 64.9975,68.7482C 64.8972,68.6592 64.7762,68.5344 64.648,68.3944C 64.5606,68.2997 64.4559,68.1809 64.3567,68.0639C 64.2246,67.9085 64.0497,67.6858 63.8983,67.4953C 63.7683,67.3313 63.6248,67.1512 63.4676,66.9456C 57.952,59.698 42.7114,34.9018 40.3034,32.8813C 38.4859,31.357 28.6411,28.2132 28.6411,28.2132C 26.7737,27.0369 24.4287,23.7841 23.8402,19.2508C 23.7885,18.0761 24.0617,16.8829 24.0847,17.1011L 29.8331,20.6776L 34.2532,17.9138L 35.1676,16.2205L 35.3144,13.1764L 28.9233,9.76565L 29.1403,8.89639C 32.1234,6.27116 36.0477,6.69465 37.0044,6.84841 Z "/>
	<linearGradient id="SVGID_Fill5_" gradientUnits="objectBoundingBox" x1="0.861223" y1="1.05593" x2="3.22655" y2="1.05593" gradientTransform="rotate(256.941284 0.861223 1.055934)">
		<stop offset="0" stop-color="#545454" stop-opacity="1"/>
		<stop offset="0.686401" stop-color="#878787" stop-opacity="1"/>
		<stop offset="1" stop-color="#878787" stop-opacity="1"/>
	</linearGradient>
	<path fill="url(#SVGID_Fill5_)" stroke-width="0.2" stroke-linejoin="round" d="M 24.2069,16.1252C 24.7349,21.0258 28.0245,25.2213 29.8671,25.7599L 28.7714,27.2381C 26.9041,26.0614 24.5527,22.8137 23.9637,18.2803L 23.9637,18.2803C 23.9164,17.1968 24.1437,16.0922 24.1972,16.099L 24.2069,16.1252 Z "/>
	<path fill="#888A85" fill-opacity="1" stroke-width="0.2" stroke-linejoin="round" d="M 24.207,16.1249L 29.9501,19.7052L 34.3762,16.9431C 34.7417,17.6726 33.2346,27.484 31.0766,27.0766C 27.1267,26.3296 24.862,21.6986 24.207,16.1249 Z "/>
	<linearGradient id="SVGID_Fill6_" gradientUnits="objectBoundingBox" x1="0.963585" y1="0.350584" x2="2.07221" y2="0.350584" gradientTransform="rotate(142.708450 0.963585 0.350584)">
		<stop offset="0" stop-color="#FFFFFF" stop-opacity="1"/>
		<stop offset="0.639099" stop-color="#878787" stop-opacity="1"/>
		<stop offset="1" stop-color="#878787" stop-opacity="1"/>
	</linearGradient>
	<path fill="url(#SVGID_Fill6_)" stroke-width="0.2" stroke-linejoin="round" d="M 29.8338,19.8623L 29.5317,24.3096L 28.6502,25.9923C 27.6469,25.2505 26.8096,24.1938 26.1347,22.9075L 26.1347,22.9075C 25.2503,21.0923 24.6676,18.8692 24.3852,16.4664L 29.8338,19.8623 Z "/>
	<radialGradient id="SVGID_Fill7_" cx="32.018" cy="25.197" r="16.8229" gradientUnits="userSpaceOnUse" gradientTransform="rotate(201.174591 32.018005 25.197039)">
		<stop offset="0" stop-color="#FFFFFF" stop-opacity="0.517647"/>
		<stop offset="1" stop-color="#3D3D3D" stop-opacity="0.517647"/>
	</radialGradient>
	<path fill="url(#SVGID_Fill7_)" stroke-width="0.2" stroke-linejoin="round" d="M 33.9803,17.3765L 33.9895,17.4074C 34.2933,18.4515 33.2131,27.5759 31.0973,27.1759C 30.6296,27.0872 30.1784,26.9428 29.7578,26.7502L 30.5641,19.4483L 33.9694,17.3597 Z "/>
	<linearGradient id="SVGID_Fill8_" gradientUnits="objectBoundingBox" x1="0.927189" y1="0.975742" x2="2.48491" y2="0.975742" gradientTransform="rotate(242.354324 0.927189 0.975742)">
		<stop offset="0" stop-color="#DDDDDD" stop-opacity="1"/>
		<stop offset="0.686401" stop-color="#878787" stop-opacity="1"/>
		<stop offset="0.893501" stop-color="#DDDDDD" stop-opacity="1"/>
		<stop offset="1" stop-color="#DDDDDD" stop-opacity="1"/>
	</linearGradient>
	<path fill="url(#SVGID_Fill8_)" stroke-width="0.2" stroke-linejoin="round" d="M 37.3499,5.91899C 41.3648,6.78758 44.1971,10.0603 44.1447,13.6608L 44.1447,13.6608C 44.1455,13.6768 44.8005,24.103 46.3683,27.0017L 46.3683,27.0017C 47.5982,29.2779 72.348,58.2171 73.4268,60.6119L 73.4268,60.6119C 75.7049,65.6695 70.1018,72.1842 65.121,67.7698L 65.121,67.7698C 61.836,64.8587 43.1223,34.1589 40.4341,31.9038L 40.4341,31.9038C 38.6171,30.3791 28.7725,27.2373 28.7725,27.2373L 35.2965,15.2526L 35.4758,11.154L 29.2651,7.91615C 32.0145,5.49682 35.5675,5.67613 36.856,5.83989L 36.856,5.83989C 37.1651,5.87918 37.3437,5.91771 37.3499,5.91899 Z M 71.8955,63.51C 72.1485,61.7034 71.0186,59.792 68.9473,59.508L 68.9473,59.508C 67.3076,59.2831 65.5647,60.9127 65.3118,62.989L 65.3118,62.989C 65.1022,64.7066 66.5196,66.6265 68.1591,66.8507L 68.1801,66.8533L 68.1801,66.8533C 69.814,67.061 71.6326,65.3821 71.8955,63.51 Z "/>
	<linearGradient id="SVGID_Fill9_" gradientUnits="objectBoundingBox" x1="0.603554" y1="0.44031" x2="0.763745" y2="0.44031" gradientTransform="rotate(132.350967 0.603554 0.440310)">
		<stop offset="0" stop-color="#000000" stop-opacity="1"/>
		<stop offset="0.893501" stop-color="#DDDDE0" stop-opacity="1"/>
		<stop offset="1" stop-color="#DDDDE0" stop-opacity="1"/>
	</linearGradient>
	<path fill="url(#SVGID_Fill9_)" stroke-width="0.2" stroke-linejoin="round" d="M 35.7904,15.3921L 35.9888,10.8485C 35.9888,10.8485 31.3821,8.44604 30.2347,7.84783C 33.3407,5.65794 37.199,6.40715 37.2434,6.41674C 40.8643,7.2006 43.497,10.0565 43.6396,13.2898C 43.6445,13.4112 43.6468,13.5337 43.6448,13.6552L 43.6447,13.6562C 43.6525,13.8378 44.2918,24.2195 45.9288,27.2488C 46.5186,28.3388 51.8432,34.7649 58.0089,42.206C 64.4286,49.9532 72.4175,59.5944 72.9717,60.8255C 73.2718,61.4927 73.4218,62.1721 73.4513,62.8376C 73.536,64.7633 72.6042,66.5658 71.3608,67.6278C 71.1448,67.2816 70.9145,66.9153 70.6679,66.5276C 71.5499,65.8235 72.2255,64.7556 72.3901,63.5793C 72.541,62.5031 72.2616,61.3926 71.6227,60.5313C 70.9996,59.6904 70.0737,59.1475 69.0163,59.0023C 68.197,58.8903 67.331,59.1559 66.5751,59.7493C 66.4822,59.8231 66.3936,59.9037 66.3065,59.9854C 60.5575,51.6746 50.7731,38.4746 34.2865,18.1558C 35.1538,16.5615 35.7904,15.3921 35.7904,15.3921 Z "/>
	<radialGradient id="SVGID_Fill10_" cx="37.1413" cy="12.5623" r="24.872" gradientUnits="userSpaceOnUse" gradientTransform="rotate(119.416908 37.141262 12.562311)">
		<stop offset="0" stop-color="#C2C4D2" stop-opacity="1"/>
		<stop offset="0.5" stop-color="#B1B1B6" stop-opacity="1"/>
		<stop offset="1" stop-color="#000000" stop-opacity="1"/>
	</radialGradient>
	<path fill="url(#SVGID_Fill10_)" stroke-width="0.2" stroke-linejoin="round" d="M 37.0559,6.48249C 40.9798,7.61074 43.1281,10.4159 43.2044,13.8868L 39.1489,21.6598L 37.7698,20.8753L 34.889,26.5411L 36.018,27.2497L 34.4187,29.1808L 28.7724,27.2382L 35.2965,15.2526L 35.4758,11.154L 29.2651,7.91615C 30.2002,7.07727 31.3615,6.44481 32.6522,6.07925L 32.6522,6.07925C 33.6184,6.02286 34.6008,6.05912 35.4861,6.17163L 35.4861,6.17163C 36.0604,6.24462 36.5937,6.34935 37.0559,6.48249 Z "/>
	<linearGradient id="SVGID_Fill11_" gradientUnits="objectBoundingBox" x1="0.425592" y1="0.905266" x2="1.20913" y2="0.905266" gradientTransform="rotate(-77.764397 0.425592 0.905266)">
		<stop offset="0" stop-color="#DDDDDD" stop-opacity="1"/>
		<stop offset="0.721901" stop-color="#DDDDDD" stop-opacity="1"/>
		<stop offset="1" stop-color="#EDEDEB" stop-opacity="1"/>
	</linearGradient>
	<path fill="url(#SVGID_Fill11_)" stroke-width="0.2" stroke-linejoin="round" d="M 43.2508,24.1283L 40.139,29.5579L 33.6607,26.4989L 37.727,20.0012L 43.2508,24.1283 Z "/>
	<radialGradient id="SVGID_Fill12_" cx="36.9593" cy="28.6125" r="7.16515" gradientUnits="userSpaceOnUse" gradientTransform="rotate(177.493820 36.959255 28.612486)">
		<stop offset="0" stop-color="#2D3436" stop-opacity="1"/>
		<stop offset="0.721901" stop-color="#000000" stop-opacity="1"/>
		<stop offset="1" stop-color="#2D3436" stop-opacity="1"/>
	</radialGradient>
	<path fill="url(#SVGID_Fill12_)" stroke-width="0.2" stroke-linejoin="round" d="M 43.2508,24.1283L 40.139,29.5579L 34.6597,26.4476L 37.7724,21.0182L 43.2508,24.1283 Z "/>
	<radialGradient id="SVGID_Fill13_" cx="39.0657" cy="25.2575" r="1.44868" gradientUnits="userSpaceOnUse" gradientTransform="rotate(203.792313 39.065685 25.257483)">
		<stop offset="0" stop-color="#FFFFFF" stop-opacity="1"/>
		<stop offset="0.526604" stop-color="#BABCB6" stop-opacity="1"/>
		<stop offset="1" stop-color="#878985" stop-opacity="1"/>
	</radialGradient>
	<path fill="url(#SVGID_Fill13_)" stroke-width="0.2" stroke-linejoin="round" d="M 41.9886,23.7892L 39.3758,28.374L 36.1448,26.7181L 38.7582,22.1329L 41.9886,23.7892 Z "/>
	<radialGradient id="SVGID_Fill14_" cx="39.003" cy="26.251" r="2.21458" gradientUnits="userSpaceOnUse" gradientTransform="rotate(190.893661 39.003025 26.251020)">
		<stop offset="0" stop-color="#878985" stop-opacity="1"/>
		<stop offset="0.6213" stop-color="#FFFFFF" stop-opacity="1"/>
		<stop offset="1" stop-color="#545652" stop-opacity="1"/>
	</radialGradient>
	<path fill="url(#SVGID_Fill14_)" stroke-width="0.2" stroke-linejoin="round" d="M 42.2202,24.2675L 42.0485,24.8317L 37.15,22.8506L 37.3223,22.2859L 42.2202,24.2675 Z "/>
	<radialGradient id="SVGID_Fill15_" cx="37.1227" cy="29.2582" r="2.18717" gradientUnits="userSpaceOnUse" gradientTransform="rotate(189.545288 37.122704 29.258230)">
		<stop offset="0" stop-color="#878985" stop-opacity="1"/>
		<stop offset="0.6213" stop-color="#FFFFFF" stop-opacity="1"/>
		<stop offset="1" stop-color="#545652" stop-opacity="1"/>
	</radialGradient>
	<path fill="url(#SVGID_Fill15_)" stroke-width="0.2" stroke-linejoin="round" d="M 40.2035,27.612L 40.0508,28.0923L 35.2415,26.2642L 35.3948,25.7833L 40.2035,27.612 Z "/>
	<radialGradient id="SVGID_Fill16_" cx="38.1667" cy="27.6141" r="2.3447" gradientUnits="userSpaceOnUse" gradientTransform="rotate(188.956421 38.166668 27.614111)">
		<stop offset="0" stop-color="#878985" stop-opacity="1"/>
		<stop offset="0.6213" stop-color="#FFFFFF" stop-opacity="1"/>
		<stop offset="1" stop-color="#545652" stop-opacity="1"/>
	</radialGradient>
	<path fill="url(#SVGID_Fill16_)" stroke-width="0.2" stroke-linejoin="round" d="M 41.412,26.0298L 41.2546,26.5087L 36.1157,24.6118L 36.2716,24.1332L 41.412,26.0298 Z "/>
	<linearGradient id="SVGID_Fill17_" gradientUnits="objectBoundingBox" x1="0.587932" y1="0.995763" x2="1.59051" y2="0.995763" gradientTransform="rotate(269.246460 0.587932 0.995763)">
		<stop offset="0" stop-color="#545454" stop-opacity="1"/>
		<stop offset="0.3965" stop-color="#878787" stop-opacity="1"/>
		<stop offset="1" stop-color="#545454" stop-opacity="1"/>
	</linearGradient>
	<path fill="url(#SVGID_Fill17_)" stroke-width="0.2" stroke-linejoin="round" d="M 29.9486,23.6815C 29.7083,25.8699 29.2227,25.9655 29.1381,26.3537L 29.1381,26.3537C 28.9708,26.2681 28.9273,26.2651 28.9018,26.2648L 28.9018,26.2648C 28.8704,26.2638 28.8637,26.2664 28.6832,26.1212L 28.6832,26.1212C 28.7318,25.9319 29.3373,24.6338 29.581,24.1709L 29.581,24.1709C 29.6562,23.0791 29.9121,20.0207 29.9337,19.7304L 29.9337,19.7304C 30.1326,19.6067 30.2097,19.5581 30.4523,19.4261L 30.4523,19.4261C 30.4781,19.5626 29.9833,23.5429 29.9486,23.6815 Z "/>
	<linearGradient id="SVGID_Fill18_" gradientUnits="objectBoundingBox" x1="0.978813" y1="0.478393" x2="1.93316" y2="0.478393" gradientTransform="rotate(176.778061 0.978813 0.478393)">
		<stop offset="0" stop-color="#878787" stop-opacity="1"/>
		<stop offset="0.893501" stop-color="#DDDDDD" stop-opacity="1"/>
		<stop offset="1" stop-color="#C6C6CB" stop-opacity="1"/>
	</linearGradient>
	<path fill="url(#SVGID_Fill18_)" stroke-width="0.2" stroke-linejoin="round" d="M 45.8643,29.3352C 47.0405,30.0088 69.4703,58.2775 69.3114,58.2227L 69.3114,58.2227C 66.8657,57.3798 63.7596,60.2306 64.0614,63.1746L 64.0614,63.1746C 62.3346,61.3268 43.04,33.2772 42.7008,31.9741L 42.7008,31.9741C 42.2634,30.2887 43.6192,28.8796 45.0659,29.0634L 45.0659,29.0634C 45.3325,29.0973 45.6019,29.185 45.8643,29.3352 Z "/>
	<linearGradient id="SVGID_Fill19_" gradientUnits="objectBoundingBox" x1="0.552213" y1="0.426897" x2="0.741953" y2="0.426897" gradientTransform="rotate(134.234451 0.552213 0.426897)">
		<stop offset="0" stop-color="#E2EE48" stop-opacity="1"/>
		<stop offset="0.212997" stop-color="#E3EE54" stop-opacity="1"/>
		<stop offset="1" stop-color="#85781D" stop-opacity="1"/>
	</linearGradient>
	<path fill="url(#SVGID_Fill19_)" stroke-width="0.2" stroke-linejoin="round" d="M 45.3375,30.2156C 46.6372,31.3503 58.6562,46.3745 67.2435,57.2352L 67.2435,57.2352C 66.5711,57.424 65.906,57.7582 65.2977,58.254L 65.2977,58.254C 64.4549,58.9405 63.8486,59.8235 63.4695,60.7709L 63.4695,60.7709C 58.8008,54.43 44.4579,33.4427 43.6617,31.6706L 43.6617,31.6706C 43.6397,31.5762 43.6236,31.4821 43.619,31.3895L 43.619,31.3895C 43.6002,30.9669 43.7701,30.5801 44.1017,30.3184L 44.1017,30.3184C 44.3496,30.1232 44.6388,30.0451 44.9254,30.0815L 44.9254,30.0815C 45.0649,30.0993 45.2039,30.1436 45.3375,30.2156 Z "/>
	<radialGradient id="SVGID_Fill20_" cx="43.2074" cy="13.6791" r="10.0061" gradientUnits="userSpaceOnUse" gradientTransform="rotate(170.940292 43.207401 13.679079)">
		<stop offset="0" stop-color="#FFFFFF" stop-opacity="1"/>
		<stop offset="1" stop-color="#878985" stop-opacity="1"/>
	</radialGradient>
	<path fill="url(#SVGID_Fill20_)" stroke-width="0.2" stroke-linejoin="round" d="M 45.4912,27.497C 45.5323,27.5735 45.5976,27.6779 45.6776,27.7964L 45.6776,27.7964C 45.4524,27.5114 45.2898,27.2908 45.2097,27.1544L 45.2097,27.1544C 43.7254,24.6504 42.0359,18.1122 41.8588,16.4648L 43.162,13.9676C 43.2715,15.5935 43.9458,24.6393 45.4912,27.497 Z "/>
	<linearGradient id="SVGID_Fill21_" gradientUnits="objectBoundingBox" x1="0.526347" y1="1.09892" x2="1.23724" y2="1.09892" gradientTransform="rotate(267.071259 0.526347 1.098919)">
		<stop offset="0" stop-color="#FFFFFF" stop-opacity="0.501961"/>
		<stop offset="1" stop-color="#000000" stop-opacity="0.501961"/>
	</linearGradient>
	<path fill="url(#SVGID_Fill21_)" stroke-width="0.2" stroke-linejoin="round" d="M 68.1591,66.8507C 69.7986,67.0754 71.6316,65.3904 71.8954,63.5107C 72.1486,61.7029 71.0192,59.7909 68.9473,59.5073C 67.3082,59.2832 65.5647,60.9122 65.3118,62.989C 65.1022,64.7066 66.5196,66.6265 68.1591,66.8507 Z M 63.6082,65.9937C 63.2956,65.2412 63.1578,64.4362 63.2625,63.6561C 63.4798,62.0371 64.4045,60.4875 65.7346,59.5106C 66.7919,58.7345 68.0043,58.3847 69.1491,58.5263C 70.6259,58.7099 71.9169,59.412 72.7843,60.5028C 73.5448,61.4582 73.9335,62.6543 73.8963,63.8563C 73.3884,67.9122 69.0617,71.263 65.1201,67.7691C 64.775,67.4645 64.2574,66.8483 63.6082,65.9937 Z "/>
	<linearGradient id="SVGID_Fill22_" gradientUnits="objectBoundingBox" x1="0.565811" y1="0.961216" x2="1.54091" y2="0.961216" gradientTransform="rotate(262.802917 0.565811 0.961216)">
		<stop offset="0" stop-color="#EDEDED" stop-opacity="1"/>
		<stop offset="1" stop-color="#525252" stop-opacity="1"/>
	</linearGradient>
	<path fill="url(#SVGID_Fill22_)" stroke-width="0.2" stroke-linejoin="round" d="M 69.0163,59.0023C 70.0733,59.147 70.9986,59.6903 71.6227,60.5313L 71.6227,60.5313C 72.2607,61.3925 72.5405,62.503 72.3901,63.5798L 72.3901,63.5798C 72.0812,65.7811 69.9911,67.6161 68.0891,67.3555L 68.0891,67.3555C 66.1961,67.0967 64.574,64.9043 64.8155,62.9294L 64.8155,62.9294C 64.9671,61.6847 65.625,60.4972 66.5751,59.7493L 66.5751,59.7493C 67.3224,59.1612 68.1798,58.896 68.992,58.9992L 69.0163,59.0023 Z M 71.8955,63.51C 72.1486,61.7029 71.0192,59.7909 68.9473,59.508L 68.9473,59.508C 67.3076,59.2831 65.5647,60.9127 65.3118,62.989L 65.3118,62.989C 65.1022,64.7066 66.5196,66.6265 68.1591,66.8507L 68.1801,66.8533L 68.1801,66.8533C 69.814,67.061 71.6326,65.3821 71.8955,63.51 Z "/>
	<path fill="#9B9BA1" fill-opacity="0.403922" stroke-width="0.2" stroke-linejoin="round" d="M 48.6749,30.5125C 48.5352,30.2537 48.4037,29.9301 48.2795,29.5576C 54.349,37.1964 72.5061,58.5683 73.4263,60.6118C 73.6056,61.0095 73.7308,61.416 73.8165,61.8273C 71.1179,57.7113 49.7799,32.5699 48.6749,30.5125 Z "/>
	<linearGradient id="SVGID_Fill23_" gradientUnits="objectBoundingBox" x1="0.957688" y1="0.895554" x2="2.258" y2="0.895554" gradientTransform="rotate(216.251007 0.957688 0.895554)">
		<stop offset="0" stop-color="#C8C8C8" stop-opacity="1"/>
		<stop offset="0.0229034" stop-color="#B1B1B1" stop-opacity="1"/>
		<stop offset="0.0500031" stop-color="#9E9E9E" stop-opacity="1"/>
		<stop offset="0.0819016" stop-color="#919191" stop-opacity="1"/>
		<stop offset="0.122498" stop-color="#898989" stop-opacity="1"/>
		<stop offset="0.201202" stop-color="#878787" stop-opacity="1"/>
		<stop offset="1" stop-color="#676767" stop-opacity="1"/>
	</linearGradient>
	<path fill="url(#SVGID_Fill23_)" stroke-width="0.2" stroke-linejoin="round" d="M 40.3889,30.8869C 43.0772,33.142 61.7911,63.8418 65.0752,66.7533L 65.0752,66.7533C 69.1927,70.4021 73.7293,66.5835 73.8956,62.2946L 73.8956,62.2946C 74.2424,65.01 72.713,67.7566 70.4984,68.7971L 70.4942,68.7991L 70.4669,68.8119L 70.4504,68.8193L 70.4457,68.8216L 70.4457,68.8216C 68.8683,69.5383 66.953,69.3934 65.121,67.7698L 65.121,67.7698C 61.836,64.8587 43.1223,34.1589 40.4341,31.9038L 40.4341,31.9038C 38.6171,30.3791 28.7725,27.2373 28.7725,27.2373L 29.2364,26.3855C 31.2689,27.0492 38.8202,29.5704 40.3889,30.8869 Z "/>
	<linearGradient id="SVGID_Fill24_" gradientUnits="objectBoundingBox" x1="1.0471" y1="0.671854" x2="2.16647" y2="0.671854" gradientTransform="rotate(188.170044 1.047104 0.671854)">
		<stop offset="0" stop-color="#878787" stop-opacity="1"/>
		<stop offset="1" stop-color="#545454" stop-opacity="1"/>
	</linearGradient>
	<path fill="url(#SVGID_Fill24_)" stroke-width="0.2" stroke-linejoin="round" d="M 35.4758,11.154L 35.4779,12.2228L 29.0444,8.79089L 29.2651,7.91615L 35.4758,11.154 Z "/>
	<linearGradient id="SVGID_Fill25_" gradientUnits="objectBoundingBox" x1="1.37443" y1="1.21651" x2="3.09776" y2="1.21651" gradientTransform="rotate(197.790497 1.374430 1.216508)">
		<stop offset="0" stop-color="#000000" stop-opacity="1"/>
		<stop offset="0.893501" stop-color="#FFFFFF" stop-opacity="1"/>
		<stop offset="1" stop-color="#FFFFFF" stop-opacity="1"/>
	</linearGradient>
	<path fill="url(#SVGID_Fill25_)" stroke-width="0.2" stroke-linejoin="round" d="M 35.4307,10.137L 35.3879,11.1087L 29.2651,7.91615C 29.5161,7.69612 29.7739,7.5027 30.0356,7.32412L 35.4307,10.137 Z "/>
</svg>
