<?xml version="1.0" encoding="utf-8"?>
<!DOCTYPE svg PUBLIC "-//W3C//DTD SVG 1.1//EN" "http://www.w3.org/Graphics/SVG/1.1/DTD/svg11.dtd">
<svg xmlns="http://www.w3.org/2000/svg" xmlns:xlink="http://www.w3.org/1999/xlink" version="1.1" baseProfile="full" width="257" height="257" viewBox="0 0 257.00 257.00" enable-background="new 0 0 257.00 257.00" xml:space="preserve">
	<linearGradient id="SVGID_Fill1_" gradientUnits="objectBoundingBox" x1="0.184396" y1="0.16013" x2="1.11201" y2="0.16013" gradientTransform="rotate(56.681332 0.184396 0.160130)">
		<stop offset="0" stop-color="#B7C0B8" stop-opacity="1"/>
		<stop offset="1" stop-color="#FFFFFF" stop-opacity="1"/>
	</linearGradient>
	<path fill="url(#SVGID_Fill1_)" stroke-width="5" stroke-linejoin="round" stroke="#036400" stroke-opacity="1" d="M 18.9224,7.03458L 208.922,7.03458C 211.132,7.03458 212.922,8.82535 212.922,11.0346L 212.922,238.368C 212.922,240.577 211.132,242.368 208.922,242.368L 18.9224,242.368C 16.7134,242.368 14.9224,240.577 14.9224,238.368L 14.9224,11.0346C 14.9224,8.82535 16.7134,7.03458 18.9224,7.03458 Z "/>
	<linearGradient id="SVGID_Stroke1_" gradientUnits="objectBoundingBox" x1="0.5" y1="2.50634" x2="4.51268" y2="2.50634" gradientTransform="rotate(-90.000000 0.500000 2.506341)">
		<stop offset="0" stop-color="#87AF06" stop-opacity="1"/>
		<stop offset="1" stop-color="#AFD27B" stop-opacity="1"/>
	</linearGradient>
	<linearGradient id="SVGID_Fill2_" gradientUnits="objectBoundingBox" x1="0.5" y1="2.61845" x2="4.7369" y2="2.61845" gradientTransform="rotate(-90.000000 0.500000 2.618451)">
		<stop offset="0" stop-color="#F4F5F3" stop-opacity="1"/>
		<stop offset="1" stop-color="#B7BDB0" stop-opacity="1"/>
	</linearGradient>
	<path fill="url(#SVGID_Fill2_)" stroke-width="2" stroke-linejoin="round" stroke="url(#SVGID_Stroke1_)" d="M 40.4224,24.0348L 188.422,24.0348C 190.632,24.0348 192.422,25.8256 192.422,28.0348L 192.422,55.8271C 192.422,58.0363 190.632,59.8271 188.422,59.8271L 40.4224,59.8271C 38.2133,59.8271 36.4224,58.0363 36.4224,55.8271L 36.4224,28.0348C 36.4224,25.8256 38.2133,24.0348 40.4224,24.0348 Z "/>
	<linearGradient id="SVGID_Stroke2_" gradientUnits="objectBoundingBox" x1="0.5" y1="2.50632" x2="4.51266" y2="2.50632" gradientTransform="rotate(-90.000000 0.500000 2.506324)">
		<stop offset="0" stop-color="#87AF06" stop-opacity="1"/>
		<stop offset="1" stop-color="#AFD27B" stop-opacity="1"/>
	</linearGradient>
	<linearGradient id="SVGID_Fill3_" gradientUnits="objectBoundingBox" x1="0.5" y1="2.61843" x2="4.73688" y2="2.61843" gradientTransform="rotate(-90.000000 0.500000 2.618433)">
		<stop offset="0" stop-color="#F4F5F3" stop-opacity="1"/>
		<stop offset="1" stop-color="#E5F8C9" stop-opacity="1"/>
	</linearGradient>
	<path fill="url(#SVGID_Fill3_)" stroke-width="2" stroke-linejoin="round" stroke="url(#SVGID_Stroke2_)" d="M 40.4224,64.7726L 188.422,64.7726C 190.632,64.7726 192.422,66.5634 192.422,68.7726L 192.422,96.5648C 192.422,98.7741 190.632,100.565 188.422,100.565L 40.4224,100.565C 38.2133,100.565 36.4224,98.7741 36.4224,96.5648L 36.4224,68.7726C 36.4224,66.5634 38.2133,64.7726 40.4224,64.7726 Z "/>
	<linearGradient id="SVGID_Stroke3_" gradientUnits="objectBoundingBox" x1="0.5" y1="2.50634" x2="4.51269" y2="2.50634" gradientTransform="rotate(-90.000000 0.500000 2.506341)">
		<stop offset="0" stop-color="#87AF06" stop-opacity="1"/>
		<stop offset="1" stop-color="#AFD27B" stop-opacity="1"/>
	</linearGradient>
	<linearGradient id="SVGID_Fill4_" gradientUnits="objectBoundingBox" x1="0.5" y1="2.61845" x2="4.73691" y2="2.61845" gradientTransform="rotate(-90.000000 0.500000 2.618451)">
		<stop offset="0" stop-color="#F4F5F3" stop-opacity="1"/>
		<stop offset="1" stop-color="#B7BDB0" stop-opacity="1"/>
	</linearGradient>
	<path fill="url(#SVGID_Fill4_)" stroke-width="2" stroke-linejoin="round" stroke="url(#SVGID_Stroke3_)" d="M 40.9224,106.217L 188.922,106.217C 191.132,106.217 192.922,108.008 192.922,110.217L 192.922,138.009C 192.922,140.218 191.132,142.009 188.922,142.009L 40.9224,142.009C 38.7133,142.009 36.9224,140.218 36.9224,138.009L 36.9224,110.217C 36.9224,108.008 38.7133,106.217 40.9224,106.217 Z "/>
	<linearGradient id="SVGID_Stroke4_" gradientUnits="objectBoundingBox" x1="0.5" y1="2.50634" x2="4.51269" y2="2.50634" gradientTransform="rotate(-90.000000 0.500000 2.506341)">
		<stop offset="0" stop-color="#87AF06" stop-opacity="1"/>
		<stop offset="1" stop-color="#AFD27B" stop-opacity="1"/>
	</linearGradient>
	<linearGradient id="SVGID_Fill5_" gradientUnits="objectBoundingBox" x1="0.5" y1="2.61845" x2="4.73691" y2="2.61845" gradientTransform="rotate(-90.000000 0.500000 2.618451)">
		<stop offset="0" stop-color="#F4F5F3" stop-opacity="1"/>
		<stop offset="1" stop-color="#E5F8C9" stop-opacity="1"/>
	</linearGradient>
	<path fill="url(#SVGID_Fill5_)" stroke-width="2" stroke-linejoin="round" stroke="url(#SVGID_Stroke4_)" d="M 41.2558,147.033L 189.256,147.033C 191.465,147.033 193.256,148.824 193.256,151.033L 193.256,178.825C 193.256,181.035 191.465,182.826 189.256,182.826L 41.2558,182.826C 39.0466,182.826 37.2558,181.035 37.2558,178.825L 37.2558,151.033C 37.2558,148.824 39.0466,147.033 41.2558,147.033 Z "/>
	<linearGradient id="SVGID_Stroke5_" gradientUnits="objectBoundingBox" x1="0.5" y1="2.50633" x2="4.51266" y2="2.50633" gradientTransform="rotate(-90.000000 0.500000 2.506331)">
		<stop offset="0" stop-color="#87AF06" stop-opacity="1"/>
		<stop offset="1" stop-color="#AFD27B" stop-opacity="1"/>
	</linearGradient>
	<linearGradient id="SVGID_Fill6_" gradientUnits="objectBoundingBox" x1="0.5" y1="2.61844" x2="4.73688" y2="2.61844" gradientTransform="rotate(-90.000000 0.500000 2.618440)">
		<stop offset="0" stop-color="#F4F5F3" stop-opacity="1"/>
		<stop offset="1" stop-color="#B7BDB0" stop-opacity="1"/>
	</linearGradient>
	<path fill="url(#SVGID_Fill6_)" stroke-width="2" stroke-linejoin="round" stroke="url(#SVGID_Stroke5_)" d="M 40.9224,188.242L 188.922,188.242C 191.132,188.242 192.922,190.033 192.922,192.242L 192.922,220.034C 192.922,222.243 191.132,224.034 188.922,224.034L 40.9224,224.034C 38.7133,224.034 36.9224,222.243 36.9224,220.034L 36.9224,192.242C 36.9224,190.033 38.7133,188.242 40.9224,188.242 Z "/>
	<linearGradient id="SVGID_Stroke6_" gradientUnits="objectBoundingBox" x1="0.5" y1="2.51426" x2="4.52854" y2="2.51426" gradientTransform="rotate(-90.000000 0.500000 2.514261)">
		<stop offset="0" stop-color="#3F542A" stop-opacity="1"/>
		<stop offset="0.474419" stop-color="#D0D5CB" stop-opacity="1"/>
		<stop offset="1" stop-color="#0F1505" stop-opacity="1"/>
	</linearGradient>
	<linearGradient id="SVGID_Fill7_" gradientUnits="objectBoundingBox" x1="0.5" y1="2.7031" x2="4.90622" y2="2.7031" gradientTransform="rotate(-90.000000 0.500000 2.703097)">
		<stop offset="0" stop-color="#DAF5BF" stop-opacity="1"/>
		<stop offset="1" stop-color="#1D2314" stop-opacity="1"/>
	</linearGradient>
	<filter id="Filter_GaussianBlur1_" filterUnits="userSpaceOnUse">
		<feGaussianBlur stdDeviation="2.64567"/>
	</filter>
	<path fill="url(#SVGID_Fill7_)" stroke-linejoin="round" stroke="url(#SVGID_Stroke6_)" filter="url(#Filter_GaussianBlur1_)" d="M 52.2558,37.2013L 90.2558,37.2013C 91.3604,37.2013 92.2558,38.0968 92.2558,39.2013L 92.2558,45.8681C 92.2558,46.9726 91.3604,47.8681 90.2558,47.8681L 52.2558,47.8681C 51.1512,47.8681 50.2558,46.9726 50.2558,45.8681L 50.2558,39.2013C 50.2558,38.0968 51.1512,37.2013 52.2558,37.2013 Z "/>
	<linearGradient id="SVGID_Stroke7_" gradientUnits="objectBoundingBox" x1="0.5" y1="2.51428" x2="4.52854" y2="2.51428" gradientTransform="rotate(-90.000000 0.500000 2.514282)">
		<stop offset="0" stop-color="#3F542A" stop-opacity="1"/>
		<stop offset="0.474419" stop-color="#D0D5CB" stop-opacity="1"/>
		<stop offset="1" stop-color="#0F1505" stop-opacity="1"/>
	</linearGradient>
	<linearGradient id="SVGID_Fill8_" gradientUnits="objectBoundingBox" x1="0.5" y1="2.70312" x2="4.90622" y2="2.70312" gradientTransform="rotate(-90.000000 0.500000 2.703120)">
		<stop offset="0" stop-color="#DAF5BF" stop-opacity="1"/>
		<stop offset="1" stop-color="#1D2314" stop-opacity="1"/>
	</linearGradient>
	<filter id="Filter_GaussianBlur2_" filterUnits="userSpaceOnUse">
		<feGaussianBlur stdDeviation="3.02362"/>
	</filter>
	<path fill="url(#SVGID_Fill8_)" stroke-linejoin="round" stroke="url(#SVGID_Stroke7_)" filter="url(#Filter_GaussianBlur2_)" d="M 100.089,36.9928L 127.839,36.9928C 128.944,36.9928 129.839,37.8883 129.839,38.9928L 129.839,45.6596C 129.839,46.7641 128.944,47.6596 127.839,47.6596L 100.089,47.6596C 98.9845,47.6596 98.0891,46.7641 98.0891,45.6596L 98.0891,38.9928C 98.0891,37.8883 98.9845,36.9928 100.089,36.9928 Z "/>
	<linearGradient id="SVGID_Stroke8_" gradientUnits="objectBoundingBox" x1="0.5" y1="2.51429" x2="4.52863" y2="2.51429" gradientTransform="rotate(-90.000000 0.500000 2.514293)">
		<stop offset="0" stop-color="#3F542A" stop-opacity="1"/>
		<stop offset="0.474419" stop-color="#D0D5CB" stop-opacity="1"/>
		<stop offset="1" stop-color="#0F1505" stop-opacity="1"/>
	</linearGradient>
	<linearGradient id="SVGID_Fill9_" gradientUnits="objectBoundingBox" x1="0.5" y1="2.70314" x2="4.90632" y2="2.70314" gradientTransform="rotate(-90.000000 0.500000 2.703136)">
		<stop offset="0" stop-color="#DAF5BF" stop-opacity="1"/>
		<stop offset="1" stop-color="#1D2314" stop-opacity="1"/>
	</linearGradient>
	<filter id="Filter_GaussianBlur3_" filterUnits="userSpaceOnUse">
		<feGaussianBlur stdDeviation="3.02362"/>
	</filter>
	<path fill="url(#SVGID_Fill9_)" stroke-linejoin="round" stroke="url(#SVGID_Stroke8_)" filter="url(#Filter_GaussianBlur3_)" d="M 138.172,37.0348L 176.172,37.0348C 177.277,37.0348 178.172,37.9303 178.172,39.0348L 178.172,45.7013C 178.172,46.8058 177.277,47.7013 176.172,47.7013L 138.172,47.7013C 137.068,47.7013 136.172,46.8058 136.172,45.7013L 136.172,39.0348C 136.172,37.9303 137.068,37.0348 138.172,37.0348 Z "/>
	<linearGradient id="SVGID_Stroke9_" gradientUnits="objectBoundingBox" x1="0.5" y1="2.51426" x2="4.52854" y2="2.51426" gradientTransform="rotate(-90.000000 0.500000 2.514261)">
		<stop offset="0" stop-color="#3F542A" stop-opacity="1"/>
		<stop offset="0.474419" stop-color="#D0D5CB" stop-opacity="1"/>
		<stop offset="1" stop-color="#0F1505" stop-opacity="1"/>
	</linearGradient>
	<linearGradient id="SVGID_Fill10_" gradientUnits="objectBoundingBox" x1="0.5" y1="2.7031" x2="4.90622" y2="2.7031" gradientTransform="rotate(-90.000000 0.500000 2.703097)">
		<stop offset="0" stop-color="#DAF5BF" stop-opacity="1"/>
		<stop offset="1" stop-color="#1D2314" stop-opacity="1"/>
	</linearGradient>
	<filter id="Filter_GaussianBlur4_" filterUnits="userSpaceOnUse">
		<feGaussianBlur stdDeviation="2.64567"/>
	</filter>
	<path fill="url(#SVGID_Fill10_)" stroke-linejoin="round" stroke="url(#SVGID_Stroke9_)" filter="url(#Filter_GaussianBlur4_)" d="M 51.1783,118.733L 89.1783,118.733C 90.2829,118.733 91.1783,119.628 91.1783,120.733L 91.1783,127.399C 91.1783,128.504 90.2829,129.399 89.1783,129.399L 51.1783,129.399C 50.0737,129.399 49.1783,128.504 49.1783,127.399L 49.1783,120.733C 49.1783,119.628 50.0737,118.733 51.1783,118.733 Z "/>
	<linearGradient id="SVGID_Stroke10_" gradientUnits="objectBoundingBox" x1="0.499999" y1="2.51428" x2="4.52854" y2="2.51428" gradientTransform="rotate(-90.000000 0.499999 2.514282)">
		<stop offset="0" stop-color="#3F542A" stop-opacity="1"/>
		<stop offset="0.474419" stop-color="#D0D5CB" stop-opacity="1"/>
		<stop offset="1" stop-color="#0F1505" stop-opacity="1"/>
	</linearGradient>
	<linearGradient id="SVGID_Fill11_" gradientUnits="objectBoundingBox" x1="0.499999" y1="2.70312" x2="4.90622" y2="2.70312" gradientTransform="rotate(-90.000000 0.499999 2.703120)">
		<stop offset="0" stop-color="#DAF5BF" stop-opacity="1"/>
		<stop offset="1" stop-color="#1D2314" stop-opacity="1"/>
	</linearGradient>
	<filter id="Filter_GaussianBlur5_" filterUnits="userSpaceOnUse">
		<feGaussianBlur stdDeviation="3.02362"/>
	</filter>
	<path fill="url(#SVGID_Fill11_)" stroke-linejoin="round" stroke="url(#SVGID_Stroke10_)" filter="url(#Filter_GaussianBlur5_)" d="M 99.0116,118.524L 126.762,118.524C 127.866,118.524 128.762,119.42 128.762,120.524L 128.762,127.191C 128.762,128.295 127.866,129.191 126.762,129.191L 99.0116,129.191C 97.907,129.191 97.0117,128.295 97.0117,127.191L 97.0117,120.524C 97.0117,119.42 97.907,118.524 99.0116,118.524 Z "/>
	<linearGradient id="SVGID_Stroke11_" gradientUnits="objectBoundingBox" x1="0.5" y1="2.51429" x2="4.52863" y2="2.51429" gradientTransform="rotate(-90.000000 0.500000 2.514293)">
		<stop offset="0" stop-color="#3F542A" stop-opacity="1"/>
		<stop offset="0.474419" stop-color="#D0D5CB" stop-opacity="1"/>
		<stop offset="1" stop-color="#0F1505" stop-opacity="1"/>
	</linearGradient>
	<linearGradient id="SVGID_Fill12_" gradientUnits="objectBoundingBox" x1="0.5" y1="2.70314" x2="4.90632" y2="2.70314" gradientTransform="rotate(-90.000000 0.500000 2.703136)">
		<stop offset="0" stop-color="#DAF5BF" stop-opacity="1"/>
		<stop offset="1" stop-color="#1D2314" stop-opacity="1"/>
	</linearGradient>
	<filter id="Filter_GaussianBlur6_" filterUnits="userSpaceOnUse">
		<feGaussianBlur stdDeviation="3.02362"/>
	</filter>
	<path fill="url(#SVGID_Fill12_)" stroke-linejoin="round" stroke="url(#SVGID_Stroke11_)" filter="url(#Filter_GaussianBlur6_)" d="M 137.095,118.566L 175.095,118.566C 176.2,118.566 177.095,119.462 177.095,120.566L 177.095,127.233C 177.095,128.337 176.2,129.233 175.095,129.233L 137.095,129.233C 135.99,129.233 135.095,128.337 135.095,127.233L 135.095,120.566C 135.095,119.462 135.99,118.566 137.095,118.566 Z "/>
	<linearGradient id="SVGID_Stroke12_" gradientUnits="objectBoundingBox" x1="0.5" y1="2.51426" x2="4.52854" y2="2.51426" gradientTransform="rotate(-90.000000 0.500000 2.514261)">
		<stop offset="0" stop-color="#3F542A" stop-opacity="1"/>
		<stop offset="0.474419" stop-color="#D0D5CB" stop-opacity="1"/>
		<stop offset="1" stop-color="#0F1505" stop-opacity="1"/>
	</linearGradient>
	<linearGradient id="SVGID_Fill13_" gradientUnits="objectBoundingBox" x1="0.5" y1="2.7031" x2="4.90622" y2="2.7031" gradientTransform="rotate(-90.000000 0.500000 2.703097)">
		<stop offset="0" stop-color="#DAF5BF" stop-opacity="1"/>
		<stop offset="1" stop-color="#1D2314" stop-opacity="1"/>
	</linearGradient>
	<filter id="Filter_GaussianBlur7_" filterUnits="userSpaceOnUse">
		<feGaussianBlur stdDeviation="2.64567"/>
	</filter>
	<path fill="url(#SVGID_Fill13_)" stroke-linejoin="round" stroke="url(#SVGID_Stroke12_)" filter="url(#Filter_GaussianBlur7_)" d="M 52.1783,200.733L 90.1783,200.733C 91.2829,200.733 92.1783,201.628 92.1783,202.733L 92.1783,209.399C 92.1783,210.504 91.2829,211.399 90.1783,211.399L 52.1783,211.399C 51.0737,211.399 50.1783,210.504 50.1783,209.399L 50.1783,202.733C 50.1783,201.628 51.0737,200.733 52.1783,200.733 Z "/>
	<linearGradient id="SVGID_Stroke13_" gradientUnits="objectBoundingBox" x1="0.499999" y1="2.51428" x2="4.52854" y2="2.51428" gradientTransform="rotate(-90.000000 0.499999 2.514282)">
		<stop offset="0" stop-color="#3F542A" stop-opacity="1"/>
		<stop offset="0.474419" stop-color="#D0D5CB" stop-opacity="1"/>
		<stop offset="1" stop-color="#0F1505" stop-opacity="1"/>
	</linearGradient>
	<linearGradient id="SVGID_Fill14_" gradientUnits="objectBoundingBox" x1="0.499999" y1="2.70312" x2="4.90622" y2="2.70312" gradientTransform="rotate(-90.000000 0.499999 2.703120)">
		<stop offset="0" stop-color="#DAF5BF" stop-opacity="1"/>
		<stop offset="1" stop-color="#1D2314" stop-opacity="1"/>
	</linearGradient>
	<filter id="Filter_GaussianBlur8_" filterUnits="userSpaceOnUse">
		<feGaussianBlur stdDeviation="3.02362"/>
	</filter>
	<path fill="url(#SVGID_Fill14_)" stroke-linejoin="round" stroke="url(#SVGID_Stroke13_)" filter="url(#Filter_GaussianBlur8_)" d="M 100.012,200.524L 127.762,200.524C 128.866,200.524 129.762,201.42 129.762,202.524L 129.762,209.191C 129.762,210.295 128.866,211.191 127.762,211.191L 100.012,211.191C 98.9071,211.191 98.0117,210.295 98.0117,209.191L 98.0117,202.524C 98.0117,201.42 98.9071,200.524 100.012,200.524 Z "/>
	<linearGradient id="SVGID_Stroke14_" gradientUnits="objectBoundingBox" x1="0.5" y1="2.51429" x2="4.52863" y2="2.51429" gradientTransform="rotate(-90.000000 0.500000 2.514293)">
		<stop offset="0" stop-color="#3F542A" stop-opacity="1"/>
		<stop offset="0.474419" stop-color="#D0D5CB" stop-opacity="1"/>
		<stop offset="1" stop-color="#0F1505" stop-opacity="1"/>
	</linearGradient>
	<linearGradient id="SVGID_Fill15_" gradientUnits="objectBoundingBox" x1="0.5" y1="2.70314" x2="4.90632" y2="2.70314" gradientTransform="rotate(-90.000000 0.500000 2.703136)">
		<stop offset="0" stop-color="#DAF5BF" stop-opacity="1"/>
		<stop offset="1" stop-color="#1D2314" stop-opacity="1"/>
	</linearGradient>
	<filter id="Filter_GaussianBlur9_" filterUnits="userSpaceOnUse">
		<feGaussianBlur stdDeviation="3.02362"/>
	</filter>
	<path fill="url(#SVGID_Fill15_)" stroke-linejoin="round" stroke="url(#SVGID_Stroke14_)" filter="url(#Filter_GaussianBlur9_)" d="M 138.095,200.566L 176.095,200.566C 177.2,200.566 178.095,201.462 178.095,202.566L 178.095,209.233C 178.095,210.337 177.2,211.233 176.095,211.233L 138.095,211.233C 136.99,211.233 136.095,210.337 136.095,209.233L 136.095,202.566C 136.095,201.462 136.99,200.566 138.095,200.566 Z "/>
	<linearGradient id="SVGID_Stroke15_" gradientUnits="objectBoundingBox" x1="0.500002" y1="2.51425" x2="4.52863" y2="2.51425" gradientTransform="rotate(-90.000000 0.500002 2.514251)">
		<stop offset="0" stop-color="#3F542A" stop-opacity="1"/>
		<stop offset="0.474419" stop-color="#D0D5CB" stop-opacity="1"/>
		<stop offset="1" stop-color="#0F1505" stop-opacity="1"/>
	</linearGradient>
	<linearGradient id="SVGID_Fill16_" gradientUnits="objectBoundingBox" x1="0.500002" y1="2.70309" x2="4.90632" y2="2.70309" gradientTransform="rotate(-90.000000 0.500002 2.703090)">
		<stop offset="0" stop-color="#DAF5BF" stop-opacity="1"/>
		<stop offset="1" stop-color="#1D2314" stop-opacity="1"/>
	</linearGradient>
	<filter id="Filter_GaussianBlur10_" filterUnits="userSpaceOnUse">
		<feGaussianBlur stdDeviation="2.64567"/>
	</filter>
	<path fill="url(#SVGID_Fill16_)" stroke-linejoin="round" stroke="url(#SVGID_Stroke15_)" filter="url(#Filter_GaussianBlur10_)" d="M 73.1783,79.4001L 109.339,79.4001C 110.443,79.4001 111.339,80.2956 111.339,81.4001L 111.339,88.0666C 111.339,89.1711 110.443,90.0666 109.339,90.0666L 73.1783,90.0666C 72.0737,90.0666 71.1783,89.1711 71.1783,88.0666L 71.1783,81.4001C 71.1783,80.2956 72.0737,79.4001 73.1783,79.4001 Z "/>
	<linearGradient id="SVGID_Stroke16_" gradientUnits="objectBoundingBox" x1="0.500002" y1="2.51428" x2="4.52855" y2="2.51428" gradientTransform="rotate(-90.000000 0.500002 2.514282)">
		<stop offset="0" stop-color="#3F542A" stop-opacity="1"/>
		<stop offset="0.474419" stop-color="#D0D5CB" stop-opacity="1"/>
		<stop offset="1" stop-color="#0F1505" stop-opacity="1"/>
	</linearGradient>
	<linearGradient id="SVGID_Fill17_" gradientUnits="objectBoundingBox" x1="0.500002" y1="2.70312" x2="4.90622" y2="2.70312" gradientTransform="rotate(-90.000000 0.500002 2.703120)">
		<stop offset="0" stop-color="#DAF5BF" stop-opacity="1"/>
		<stop offset="1" stop-color="#1D2314" stop-opacity="1"/>
	</linearGradient>
	<filter id="Filter_GaussianBlur11_" filterUnits="userSpaceOnUse">
		<feGaussianBlur stdDeviation="3.02362"/>
	</filter>
	<path fill="url(#SVGID_Fill17_)" stroke-linejoin="round" stroke="url(#SVGID_Stroke16_)" filter="url(#Filter_GaussianBlur11_)" d="M 123.005,79.1906L 153.339,79.1906C 154.443,79.1906 155.339,80.0861 155.339,81.1906L 155.339,87.8573C 155.339,88.9618 154.443,89.8573 153.339,89.8573L 123.005,89.8573C 121.901,89.8573 121.005,88.9618 121.005,87.8573L 121.005,81.1906C 121.005,80.0861 121.901,79.1906 123.005,79.1906 Z "/>
	<linearGradient id="SVGID_Stroke17_" gradientUnits="objectBoundingBox" x1="0.499997" y1="2.5142" x2="4.52854" y2="2.5142" gradientTransform="rotate(-90.000000 0.499997 2.514198)">
		<stop offset="0" stop-color="#3F542A" stop-opacity="1"/>
		<stop offset="0.474419" stop-color="#D0D5CB" stop-opacity="1"/>
		<stop offset="1" stop-color="#0F1505" stop-opacity="1"/>
	</linearGradient>
	<linearGradient id="SVGID_Fill18_" gradientUnits="objectBoundingBox" x1="0.499997" y1="2.70303" x2="4.90621" y2="2.70303" gradientTransform="rotate(-90.000000 0.499997 2.703028)">
		<stop offset="0" stop-color="#DAF5BF" stop-opacity="1"/>
		<stop offset="1" stop-color="#1D2314" stop-opacity="1"/>
	</linearGradient>
	<filter id="Filter_GaussianBlur12_" filterUnits="userSpaceOnUse">
		<feGaussianBlur stdDeviation="3.02362"/>
	</filter>
	<path fill="url(#SVGID_Fill18_)" stroke-linejoin="round" stroke="url(#SVGID_Stroke17_)" filter="url(#Filter_GaussianBlur12_)" d="M 162.172,79.2333L 176.839,79.2333C 177.943,79.2333 178.839,80.1288 178.839,81.2333L 178.839,87.9001C 178.839,89.0045 177.943,89.9001 176.839,89.9001L 162.172,89.9001C 161.067,89.9001 160.172,89.0045 160.172,87.9001L 160.172,81.2333C 160.172,80.1288 161.067,79.2333 162.172,79.2333 Z "/>
	<linearGradient id="SVGID_Stroke18_" gradientUnits="objectBoundingBox" x1="0.5" y1="2.5143" x2="4.52854" y2="2.5143" gradientTransform="rotate(-90.000000 0.500000 2.514303)">
		<stop offset="0" stop-color="#3F542A" stop-opacity="1"/>
		<stop offset="0.474419" stop-color="#D0D5CB" stop-opacity="1"/>
		<stop offset="1" stop-color="#0F1505" stop-opacity="1"/>
	</linearGradient>
	<linearGradient id="SVGID_Fill19_" gradientUnits="objectBoundingBox" x1="0.5" y1="2.70314" x2="4.90622" y2="2.70314" gradientTransform="rotate(-90.000000 0.500000 2.703142)">
		<stop offset="0" stop-color="#DAF5BF" stop-opacity="1"/>
		<stop offset="1" stop-color="#1D2314" stop-opacity="1"/>
	</linearGradient>
	<filter id="Filter_GaussianBlur13_" filterUnits="userSpaceOnUse">
		<feGaussianBlur stdDeviation="3.02362"/>
	</filter>
	<path fill="url(#SVGID_Fill19_)" stroke-linejoin="round" stroke="url(#SVGID_Stroke18_)" filter="url(#Filter_GaussianBlur13_)" d="M 51.7342,79.5751L 64.3387,79.5751C 65.4432,79.5751 66.3387,80.4706 66.3387,81.5751L 66.3387,88.2419C 66.3387,89.3463 65.4432,90.2419 64.3387,90.2419L 51.7342,90.2419C 50.6296,90.2419 49.7342,89.3463 49.7342,88.2419L 49.7342,81.5751C 49.7342,80.4706 50.6296,79.5751 51.7342,79.5751 Z "/>
	<linearGradient id="SVGID_Stroke19_" gradientUnits="objectBoundingBox" x1="0.5" y1="2.51418" x2="4.52854" y2="2.51418" gradientTransform="rotate(-90.000000 0.500000 2.514178)">
		<stop offset="0" stop-color="#3F542A" stop-opacity="1"/>
		<stop offset="0.474419" stop-color="#D0D5CB" stop-opacity="1"/>
		<stop offset="1" stop-color="#0F1505" stop-opacity="1"/>
	</linearGradient>
	<linearGradient id="SVGID_Fill20_" gradientUnits="objectBoundingBox" x1="0.5" y1="2.70301" x2="4.90622" y2="2.70301" gradientTransform="rotate(-90.000000 0.500000 2.703005)">
		<stop offset="0" stop-color="#DAF5BF" stop-opacity="1"/>
		<stop offset="1" stop-color="#1D2314" stop-opacity="1"/>
	</linearGradient>
	<filter id="Filter_GaussianBlur14_" filterUnits="userSpaceOnUse">
		<feGaussianBlur stdDeviation="2.64567"/>
	</filter>
	<path fill="url(#SVGID_Fill20_)" stroke-linejoin="round" stroke="url(#SVGID_Stroke19_)" filter="url(#Filter_GaussianBlur14_)" d="M 73.1008,159.598L 109.261,159.598C 110.366,159.598 111.261,160.494 111.261,161.598L 111.261,168.265C 111.261,169.369 110.366,170.265 109.261,170.265L 73.1008,170.265C 71.9963,170.265 71.1008,169.369 71.1008,168.265L 71.1008,161.598C 71.1008,160.494 71.9963,159.598 73.1008,159.598 Z "/>
	<linearGradient id="SVGID_Stroke20_" gradientUnits="objectBoundingBox" x1="0.5" y1="2.51425" x2="4.52846" y2="2.51425" gradientTransform="rotate(-90.000000 0.500000 2.514251)">
		<stop offset="0" stop-color="#3F542A" stop-opacity="1"/>
		<stop offset="0.474419" stop-color="#D0D5CB" stop-opacity="1"/>
		<stop offset="1" stop-color="#0F1505" stop-opacity="1"/>
	</linearGradient>
	<linearGradient id="SVGID_Fill21_" gradientUnits="objectBoundingBox" x1="0.5" y1="2.70308" x2="4.90612" y2="2.70308" gradientTransform="rotate(-90.000000 0.500000 2.703081)">
		<stop offset="0" stop-color="#DAF5BF" stop-opacity="1"/>
		<stop offset="1" stop-color="#1D2314" stop-opacity="1"/>
	</linearGradient>
	<filter id="Filter_GaussianBlur15_" filterUnits="userSpaceOnUse">
		<feGaussianBlur stdDeviation="3.02362"/>
	</filter>
	<path fill="url(#SVGID_Fill21_)" stroke-linejoin="round" stroke="url(#SVGID_Stroke20_)" filter="url(#Filter_GaussianBlur15_)" d="M 122.928,159.388L 153.261,159.388C 154.366,159.388 155.261,160.284 155.261,161.388L 155.261,168.055C 155.261,169.16 154.366,170.055 153.261,170.055L 122.928,170.055C 121.823,170.055 120.928,169.16 120.928,168.055L 120.928,161.388C 120.928,160.284 121.823,159.388 122.928,159.388 Z "/>
	<linearGradient id="SVGID_Stroke21_" gradientUnits="objectBoundingBox" x1="0.500003" y1="2.5142" x2="4.52855" y2="2.5142" gradientTransform="rotate(-90.000000 0.500003 2.514198)">
		<stop offset="0" stop-color="#3F542A" stop-opacity="1"/>
		<stop offset="0.474419" stop-color="#D0D5CB" stop-opacity="1"/>
		<stop offset="1" stop-color="#0F1505" stop-opacity="1"/>
	</linearGradient>
	<linearGradient id="SVGID_Fill22_" gradientUnits="objectBoundingBox" x1="0.500003" y1="2.70303" x2="4.90622" y2="2.70303" gradientTransform="rotate(-90.000000 0.500003 2.703028)">
		<stop offset="0" stop-color="#DAF5BF" stop-opacity="1"/>
		<stop offset="1" stop-color="#1D2314" stop-opacity="1"/>
	</linearGradient>
	<filter id="Filter_GaussianBlur16_" filterUnits="userSpaceOnUse">
		<feGaussianBlur stdDeviation="3.02362"/>
	</filter>
	<path fill="url(#SVGID_Fill22_)" stroke-linejoin="round" stroke="url(#SVGID_Stroke21_)" filter="url(#Filter_GaussianBlur16_)" d="M 162.094,159.431L 176.761,159.431C 177.866,159.431 178.761,160.327 178.761,161.431L 178.761,168.098C 178.761,169.203 177.866,170.098 176.761,170.098L 162.094,170.098C 160.99,170.098 160.094,169.203 160.094,168.098L 160.094,161.431C 160.094,160.327 160.99,159.431 162.094,159.431 Z "/>
	<linearGradient id="SVGID_Stroke22_" gradientUnits="objectBoundingBox" x1="0.5" y1="2.51428" x2="4.52854" y2="2.51428" gradientTransform="rotate(-90.000000 0.500000 2.514282)">
		<stop offset="0" stop-color="#3F542A" stop-opacity="1"/>
		<stop offset="0.474419" stop-color="#D0D5CB" stop-opacity="1"/>
		<stop offset="1" stop-color="#0F1505" stop-opacity="1"/>
	</linearGradient>
	<linearGradient id="SVGID_Fill23_" gradientUnits="objectBoundingBox" x1="0.5" y1="2.70312" x2="4.90622" y2="2.70312" gradientTransform="rotate(-90.000000 0.500000 2.703120)">
		<stop offset="0" stop-color="#DAF5BF" stop-opacity="1"/>
		<stop offset="1" stop-color="#1D2314" stop-opacity="1"/>
	</linearGradient>
	<filter id="Filter_GaussianBlur17_" filterUnits="userSpaceOnUse">
		<feGaussianBlur stdDeviation="3.02362"/>
	</filter>
	<path fill="url(#SVGID_Fill23_)" stroke-linejoin="round" stroke="url(#SVGID_Stroke22_)" filter="url(#Filter_GaussianBlur17_)" d="M 51.6567,159.773L 64.2612,159.773C 65.3657,159.773 66.2612,160.669 66.2612,161.773L 66.2612,168.44C 66.2612,169.544 65.3657,170.44 64.2612,170.44L 51.6567,170.44C 50.5522,170.44 49.6567,169.544 49.6567,168.44L 49.6567,161.773C 49.6567,160.669 50.5522,159.773 51.6567,159.773 Z "/>
	<g>
		<linearGradient id="SVGID_Fill24_" gradientUnits="objectBoundingBox" x1="-5.35861e-006" y1="0.500004" x2="1" y2="0.500004">
			<stop offset="0" stop-color="#FE0404" stop-opacity="1"/>
			<stop offset="0.548837" stop-color="#FF4131" stop-opacity="1"/>
			<stop offset="1" stop-color="#FF0000" stop-opacity="1"/>
		</linearGradient>
		<path fill="url(#SVGID_Fill24_)" stroke-width="0.2" stroke-linejoin="round" d="M 89.5917,80.1261L 100.897,71.2753L 112.372,80.1261L 112.372,102.413L 100.897,93.6947L 89.5917,102.413L 89.5917,80.1261 Z "/>
		<linearGradient id="SVGID_Fill25_" gradientUnits="objectBoundingBox" x1="0" y1="0.500004" x2="1" y2="0.500004">
			<stop offset="0" stop-color="#FE0404" stop-opacity="1"/>
			<stop offset="0.548837" stop-color="#FF4131" stop-opacity="1"/>
			<stop offset="1" stop-color="#FF0000" stop-opacity="1"/>
		</linearGradient>
		<path fill="url(#SVGID_Fill25_)" stroke-width="0.2" stroke-linejoin="round" d="M 89.5073,105.999L 100.813,97.1479L 112.288,105.999L 112.288,128.286L 100.813,119.567L 89.5073,128.286L 89.5073,105.999 Z "/>
		<linearGradient id="SVGID_Fill26_" gradientUnits="objectBoundingBox" x1="0" y1="0.5" x2="1" y2="0.5">
			<stop offset="0" stop-color="#FE0404" stop-opacity="1"/>
			<stop offset="0.548837" stop-color="#FF4131" stop-opacity="1"/>
			<stop offset="1" stop-color="#FF0000" stop-opacity="1"/>
		</linearGradient>
		<path fill="url(#SVGID_Fill26_)" stroke-width="0.2" stroke-linejoin="round" d="M 89.5073,131.668L 100.813,122.817L 112.288,131.668L 112.288,153.955L 100.813,145.236L 89.5073,153.955L 89.5073,131.668 Z "/>
		<linearGradient id="SVGID_Fill27_" gradientUnits="objectBoundingBox" x1="0.407174" y1="0.114709" x2="1.13082" y2="0.114709" gradientTransform="rotate(56.861000 0.407174 0.114709)">
			<stop offset="0" stop-color="#FE0404" stop-opacity="1"/>
			<stop offset="0.548837" stop-color="#FF4131" stop-opacity="1"/>
			<stop offset="1" stop-color="#FF0000" stop-opacity="1"/>
		</linearGradient>
		<path fill="url(#SVGID_Fill27_)" stroke-width="0.2" stroke-linejoin="round" d="M 153.351,30.9445L 166.859,35.8129L 165.465,50.237L 146.59,62.0885L 147.872,47.7345L 134.476,42.7961L 153.351,30.9445 Z "/>
		<linearGradient id="SVGID_Fill28_" gradientUnits="objectBoundingBox" x1="0.407173" y1="0.114717" x2="1.13082" y2="0.114717" gradientTransform="rotate(56.859505 0.407173 0.114717)">
			<stop offset="0" stop-color="#FE0404" stop-opacity="1"/>
			<stop offset="0.548837" stop-color="#FF4131" stop-opacity="1"/>
			<stop offset="1" stop-color="#FF0000" stop-opacity="1"/>
		</linearGradient>
		<path fill="url(#SVGID_Fill28_)" stroke-width="0.2" stroke-linejoin="round" d="M 131.395,44.631L 144.902,49.4994L 143.509,63.9235L 124.634,75.7751L 125.916,61.4211L 112.52,56.4826L 131.395,44.631 Z "/>
		<linearGradient id="SVGID_Fill29_" gradientUnits="objectBoundingBox" x1="0.407171" y1="0.114702" x2="1.13083" y2="0.114702" gradientTransform="rotate(56.862633 0.407171 0.114702)">
			<stop offset="0" stop-color="#FE0404" stop-opacity="1"/>
			<stop offset="0.548837" stop-color="#FF4131" stop-opacity="1"/>
			<stop offset="1" stop-color="#FF0000" stop-opacity="1"/>
		</linearGradient>
		<path fill="url(#SVGID_Fill29_)" stroke-width="0.2" stroke-linejoin="round" d="M 109.656,58.2809L 123.163,63.1491L 121.77,77.5734L 102.895,89.4247L 104.177,75.071L 90.781,70.1322L 109.656,58.2809 Z "/>
		<linearGradient id="SVGID_Fill30_" gradientUnits="objectBoundingBox" x1="0.246649" y1="0.246719" x2="0.976795" y2="0.246719" gradientTransform="rotate(30.740471 0.246649 0.246719)">
			<stop offset="0" stop-color="#FE0404" stop-opacity="1"/>
			<stop offset="0.548837" stop-color="#FF4131" stop-opacity="1"/>
			<stop offset="1" stop-color="#FF0000" stop-opacity="1"/>
		</linearGradient>
		<path fill="url(#SVGID_Fill30_)" stroke-width="0.2" stroke-linejoin="round" d="M 89.789,146.93L 103.974,144.709L 109.683,158.028L 98.8248,177.492L 93.0518,164.288L 78.9309,166.394L 89.789,146.93 Z "/>
		<linearGradient id="SVGID_Fill31_" gradientUnits="objectBoundingBox" x1="0.246649" y1="0.246725" x2="0.976792" y2="0.246725" gradientTransform="rotate(30.740700 0.246649 0.246725)">
			<stop offset="0" stop-color="#FE0404" stop-opacity="1"/>
			<stop offset="0.548837" stop-color="#FF4131" stop-opacity="1"/>
			<stop offset="1" stop-color="#FF0000" stop-opacity="1"/>
		</linearGradient>
		<path fill="url(#SVGID_Fill31_)" stroke-width="0.2" stroke-linejoin="round" d="M 77.1104,169.484L 91.2957,167.262L 97.0044,180.582L 86.1463,200.045L 80.3732,186.841L 66.2524,188.947L 77.1104,169.484 Z "/>
		<linearGradient id="SVGID_Fill32_" gradientUnits="objectBoundingBox" x1="0.246649" y1="0.246725" x2="0.97679" y2="0.246725" gradientTransform="rotate(30.739885 0.246649 0.246725)">
			<stop offset="0" stop-color="#FE0404" stop-opacity="1"/>
			<stop offset="0.548837" stop-color="#FF4131" stop-opacity="1"/>
			<stop offset="1" stop-color="#FF0000" stop-opacity="1"/>
		</linearGradient>
		<path fill="url(#SVGID_Fill32_)" stroke-width="0.2" stroke-linejoin="round" d="M 64.6049,191.9L 78.79,189.679L 84.4988,202.999L 73.6408,222.462L 67.8677,209.258L 53.7468,211.364L 64.6049,191.9 Z "/>
	</g>
</svg>
