<svg enable-background="new 0 0 257.00 257.00" height="257" viewBox="0 0 257 257" width="257" xmlns="http://www.w3.org/2000/svg" xmlns:xlink="http://www.w3.org/1999/xlink"><linearGradient id="a" gradientTransform="matrix(.549295109989 .835628435456 -.835628435456 .549295109989 .216917360268 -.081915166947)" gradientUnits="objectBoundingBox" x1=".184396" x2="1.11201" y1=".16013" y2=".16013"><stop offset="0" stop-color="#b7c0b8"/><stop offset="1" stop-color="#fff"/></linearGradient><linearGradient id="b"><stop offset="0" stop-color="#87af06"/><stop offset="1" stop-color="#afd27b"/></linearGradient><linearGradient id="c" gradientTransform="matrix(0 -1 1 0 -2.006341 3.006341)" gradientUnits="objectBoundingBox" x1=".5" x2="4.51268" xlink:href="#b" y1="2.50634" y2="2.50634"/><linearGradient id="d"><stop offset="0" stop-color="#f4f5f3"/><stop offset="1" stop-color="#b7bdb0"/></linearGradient><linearGradient id="e" gradientTransform="matrix(0 -1 1 0 -2.118451 3.118451)" gradientUnits="objectBoundingBox" x1=".5" x2="4.7369" xlink:href="#d" y1="2.61845" y2="2.61845"/><linearGradient id="f" gradientTransform="matrix(0 -1 1 0 -2.006324 3.006324)" gradientUnits="objectBoundingBox" x1=".5" x2="4.51266" xlink:href="#b" y1="2.50632" y2="2.50632"/><linearGradient id="g"><stop offset="0" stop-color="#f4f5f3"/><stop offset="1" stop-color="#e5f8c9"/></linearGradient><linearGradient id="h" gradientTransform="matrix(0 -1 1 0 -2.118433 3.118433)" gradientUnits="objectBoundingBox" x1=".5" x2="4.73688" xlink:href="#g" y1="2.61843" y2="2.61843"/><linearGradient id="i" gradientTransform="matrix(0 -1 1 0 -2.006341 3.006341)" gradientUnits="objectBoundingBox" x1=".5" x2="4.51269" xlink:href="#b" y1="2.50634" y2="2.50634"/><linearGradient id="j" gradientTransform="matrix(0 -1 1 0 -2.118451 3.118451)" gradientUnits="objectBoundingBox" x1=".5" x2="4.73691" xlink:href="#d" y1="2.61845" y2="2.61845"/><linearGradient id="k" gradientTransform="matrix(0 -1 1 0 -2.118451 3.118451)" gradientUnits="objectBoundingBox" x1=".5" x2="4.73691" xlink:href="#g" y1="2.61845" y2="2.61845"/><linearGradient id="l" gradientTransform="matrix(0 -1 1 0 -2.006331 3.006331)" gradientUnits="objectBoundingBox" x1=".5" x2="4.51266" xlink:href="#b" y1="2.50633" y2="2.50633"/><linearGradient id="m" gradientTransform="matrix(0 -1 1 0 -2.11844 3.11844)" gradientUnits="objectBoundingBox" x1=".5" x2="4.73688" xlink:href="#d" y1="2.61844" y2="2.61844"/><linearGradient id="n"><stop offset="0" stop-color="#3f542a"/><stop offset=".474419" stop-color="#d0d5cb"/><stop offset="1" stop-color="#0f1505"/></linearGradient><linearGradient id="o" gradientTransform="matrix(0 -1 1 0 -2.014261 3.014261)" gradientUnits="objectBoundingBox" x1=".5" x2="4.52854" xlink:href="#n" y1="2.51426" y2="2.51426"/><linearGradient id="p"><stop offset="0" stop-color="#daf5bf"/><stop offset="1" stop-color="#1d2314"/></linearGradient><linearGradient id="q" gradientTransform="matrix(0 -1 1 0 -2.203097 3.203097)" gradientUnits="objectBoundingBox" x1=".5" x2="4.90622" xlink:href="#p" y1="2.7031" y2="2.7031"/><filter id="r" filterUnits="userSpaceOnUse"><feGaussianBlur stdDeviation="2.64567"/></filter><linearGradient id="s" gradientTransform="matrix(0 -1 1 0 -2.014282 3.014282)" gradientUnits="objectBoundingBox" x1=".5" x2="4.52854" xlink:href="#n" y1="2.51428" y2="2.51428"/><linearGradient id="t" gradientTransform="matrix(0 -1 1 0 -2.20312 3.20312)" gradientUnits="objectBoundingBox" x1=".5" x2="4.90622" xlink:href="#p" y1="2.70312" y2="2.70312"/><filter id="u" filterUnits="userSpaceOnUse"><feGaussianBlur stdDeviation="3.02362"/></filter><linearGradient id="v" gradientTransform="matrix(0 -1 1 0 -2.014293 3.014293)" gradientUnits="objectBoundingBox" x1=".5" x2="4.52863" xlink:href="#n" y1="2.51429" y2="2.51429"/><linearGradient id="w" gradientTransform="matrix(0 -1 1 0 -2.203136 3.203136)" gradientUnits="objectBoundingBox" x1=".5" x2="4.90632" xlink:href="#p" y1="2.70314" y2="2.70314"/><linearGradient id="x" gradientTransform="matrix(0 -1 1 0 -2.014283 3.014281)" gradientUnits="objectBoundingBox" x1=".499999" x2="4.52854" xlink:href="#n" y1="2.51428" y2="2.51428"/><linearGradient id="y" gradientTransform="matrix(0 -1 1 0 -2.203121 3.203119)" gradientUnits="objectBoundingBox" x1=".499999" x2="4.90622" xlink:href="#p" y1="2.70312" y2="2.70312"/><linearGradient id="z" gradientTransform="matrix(0 -1 1 0 -2.014249 3.014253)" gradientUnits="objectBoundingBox" x1=".500002" x2="4.52863" xlink:href="#n" y1="2.51425" y2="2.51425"/><linearGradient id="A" gradientTransform="matrix(0 -1 1 0 -2.203088 3.203092)" gradientUnits="objectBoundingBox" x1=".500002" x2="4.90632" xlink:href="#p" y1="2.70309" y2="2.70309"/><linearGradient id="B" gradientTransform="matrix(0 -1 1 0 -2.01428 3.014284)" gradientUnits="objectBoundingBox" x1=".500002" x2="4.52855" xlink:href="#n" y1="2.51428" y2="2.51428"/><linearGradient id="C" gradientTransform="matrix(0 -1 1 0 -2.203118 3.203122)" gradientUnits="objectBoundingBox" x1=".500002" x2="4.90622" xlink:href="#p" y1="2.70312" y2="2.70312"/><linearGradient id="D" gradientTransform="matrix(0 -1 1 0 -2.014201 3.014195)" gradientUnits="objectBoundingBox" x1=".499997" x2="4.52854" xlink:href="#n" y1="2.5142" y2="2.5142"/><linearGradient id="E" gradientTransform="matrix(0 -1 1 0 -2.203031 3.203025)" gradientUnits="objectBoundingBox" x1=".499997" x2="4.90621" xlink:href="#p" y1="2.70303" y2="2.70303"/><linearGradient id="F" gradientTransform="matrix(0 -1 1 0 -2.014303 3.014303)" gradientUnits="objectBoundingBox" x1=".5" x2="4.52854" xlink:href="#n" y1="2.5143" y2="2.5143"/><linearGradient id="G" gradientTransform="matrix(0 -1 1 0 -2.203142 3.203142)" gradientUnits="objectBoundingBox" x1=".5" x2="4.90622" xlink:href="#p" y1="2.70314" y2="2.70314"/><linearGradient id="H" gradientTransform="matrix(0 -1 1 0 -2.014178 3.014178)" gradientUnits="objectBoundingBox" x1=".5" x2="4.52854" xlink:href="#n" y1="2.51418" y2="2.51418"/><linearGradient id="I" gradientTransform="matrix(0 -1 1 0 -2.203005 3.203005)" gradientUnits="objectBoundingBox" x1=".5" x2="4.90622" xlink:href="#p" y1="2.70301" y2="2.70301"/><linearGradient id="J" gradientTransform="matrix(0 -1 1 0 -2.014251 3.014251)" gradientUnits="objectBoundingBox" x1=".5" x2="4.52846" xlink:href="#n" y1="2.51425" y2="2.51425"/><linearGradient id="K" gradientTransform="matrix(0 -1 1 0 -2.203081 3.203081)" gradientUnits="objectBoundingBox" x1=".5" x2="4.90612" xlink:href="#p" y1="2.70308" y2="2.70308"/><linearGradient id="L" gradientTransform="matrix(0 -1 1 0 -2.014195 3.014201)" gradientUnits="objectBoundingBox" x1=".500003" x2="4.52855" xlink:href="#n" y1="2.5142" y2="2.5142"/><linearGradient id="M" gradientTransform="matrix(0 -1 1 0 -2.203025 3.203031)" gradientUnits="objectBoundingBox" x1=".500003" x2="4.90622" xlink:href="#p" y1="2.70303" y2="2.70303"/><linearGradient id="N"><stop offset="0" stop-color="#fe0404"/><stop offset=".548837" stop-color="#ff4131"/><stop offset="1" stop-color="#f00"/></linearGradient><linearGradient id="O" gradientUnits="objectBoundingBox" x1="-.00000535861" x2="1" xlink:href="#N" y1=".500004" y2=".500004"/><linearGradient id="P" gradientUnits="objectBoundingBox" x1="0" x2="1" xlink:href="#N" y1=".500004" y2=".500004"/><linearGradient id="Q" gradientUnits="objectBoundingBox" x1="0" x2="1" xlink:href="#N" y1=".5" y2=".5"/><linearGradient id="R" gradientTransform="matrix(.546672051502 .837346802768 -.837346802768 .546672051502 .2806345685 -.288945051426)" gradientUnits="objectBoundingBox" x1=".407174" x2="1.13082" xlink:href="#N" y1=".114709" y2=".114709"/><linearGradient id="S" gradientTransform="matrix(.546693899932 .837332538349 -.837332538349 .546693899932 .280630281485 -.288937285755)" gradientUnits="objectBoundingBox" x1=".407173" x2="1.13082" xlink:href="#N" y1=".114717" y2=".114717"/><linearGradient id="T" gradientTransform="matrix(.546648185869 .837362383252 -.837362383252 .546648185869 .280638851595 -.288949319167)" gradientUnits="objectBoundingBox" x1=".407171" x2="1.13083" xlink:href="#N" y1=".114702" y2=".114702"/><linearGradient id="U" gradientTransform="matrix(.859491434008 .511150149043 -.511150149043 .859491434008 .160766750915 -.091408540218)" gradientUnits="objectBoundingBox" x1=".246649" x2=".976795" xlink:href="#N" y1=".246719" y2=".246719"/><linearGradient id="V" gradientTransform="matrix(.859489391034 .511153584257 -.511153584257 .859489391034 .160771169267 -.091408040406)" gradientUnits="objectBoundingBox" x1=".246649" x2=".976792" xlink:href="#N" y1=".246725" y2=".246725"/><linearGradient id="W" gradientTransform="matrix(.859496661818 .511141358456 -.511141358456 .859496661818 .160766359524 -.091406818809)" gradientUnits="objectBoundingBox" x1=".246649" x2=".97679" xlink:href="#N" y1=".246725" y2=".246725"/><g stroke-linejoin="round"><path d="m18.9224 7.03458h189.9996c2.21 0 4 1.79077 4 4.00002v227.3334c0 2.209-1.79 4-4 4h-189.9996c-2.209 0-4-1.791-4-4v-227.3334c0-2.20925 1.791-4.00002 4-4.00002z" fill="url(#a)" stroke="#036400" stroke-width="5"/><path d="m40.4224 24.0348h147.9996c2.21 0 4 1.7908 4 4v27.7923c0 2.2092-1.79 4-4 4h-147.9996c-2.2091 0-4-1.7908-4-4v-27.7923c0-2.2092 1.7909-4 4-4z" fill="url(#e)" stroke="url(#c)" stroke-width="2"/><path d="m40.4224 64.7726h147.9996c2.21 0 4 1.7908 4 4v27.7922c0 2.2093-1.79 4.0002-4 4.0002h-147.9996c-2.2091 0-4-1.7909-4-4.0002v-27.7922c0-2.2092 1.7909-4 4-4z" fill="url(#h)" stroke="url(#f)" stroke-width="2"/><path d="m40.9224 106.217h147.9996c2.21 0 4 1.791 4 4v27.792c0 2.209-1.79 4-4 4h-147.9996c-2.2091 0-4-1.791-4-4v-27.792c0-2.209 1.7909-4 4-4z" fill="url(#j)" stroke="url(#i)" stroke-width="2"/><path d="m41.2558 147.033h148.0002c2.209 0 4 1.791 4 4v27.792c0 2.21-1.791 4.001-4 4.001h-148.0002c-2.2092 0-4-1.791-4-4.001v-27.792c0-2.209 1.7908-4 4-4z" fill="url(#k)" stroke="url(#i)" stroke-width="2"/><path d="m40.9224 188.242h147.9996c2.21 0 4 1.791 4 4v27.792c0 2.209-1.79 4-4 4h-147.9996c-2.2091 0-4-1.791-4-4v-27.792c0-2.209 1.7909-4 4-4z" fill="url(#m)" stroke="url(#l)" stroke-width="2"/><path d="m52.2558 37.2013h38c1.1046 0 2 .8955 2 2v6.6668c0 1.1045-.8954 2-2 2h-38c-1.1046 0-2-.8955-2-2v-6.6668c0-1.1045.8954-2 2-2z" fill="url(#q)" filter="url(#r)" stroke="url(#o)"/><path d="m100.089 36.9928h27.75c1.105 0 2 .8955 2 2v6.6668c0 1.1045-.895 2-2 2h-27.75c-1.1045 0-1.9999-.8955-1.9999-2v-6.6668c0-1.1045.8954-2 1.9999-2z" fill="url(#t)" filter="url(#u)" stroke="url(#s)"/><path d="m138.172 37.0348h38c1.105 0 2 .8955 2 2v6.6665c0 1.1045-.895 2-2 2h-38c-1.104 0-2-.8955-2-2v-6.6665c0-1.1045.896-2 2-2z" fill="url(#w)" filter="url(#u)" stroke="url(#v)"/><path d="m51.1783 118.733h38c1.1046 0 2 .895 2 2v6.666c0 1.105-.8954 2-2 2h-38c-1.1046 0-2-.895-2-2v-6.666c0-1.105.8954-2 2-2z" fill="url(#q)" filter="url(#r)" stroke="url(#o)"/><path d="m99.0116 118.524h27.7504c1.104 0 2 .896 2 2v6.667c0 1.104-.896 2-2 2h-27.7504c-1.1046 0-1.9999-.896-1.9999-2v-6.667c0-1.104.8953-2 1.9999-2z" fill="url(#y)" filter="url(#u)" stroke="url(#x)"/><path d="m137.095 118.566h38c1.105 0 2 .896 2 2v6.667c0 1.104-.895 2-2 2h-38c-1.105 0-2-.896-2-2v-6.667c0-1.104.895-2 2-2z" fill="url(#w)" filter="url(#u)" stroke="url(#v)"/><path d="m52.1783 200.733h38c1.1046 0 2 .895 2 2v6.666c0 1.105-.8954 2-2 2h-38c-1.1046 0-2-.895-2-2v-6.666c0-1.105.8954-2 2-2z" fill="url(#q)" filter="url(#r)" stroke="url(#o)"/><path d="m100.012 200.524h27.75c1.104 0 2 .896 2 2v6.667c0 1.104-.896 2-2 2h-27.75c-1.1049 0-2.0003-.896-2.0003-2v-6.667c0-1.104.8954-2 2.0003-2z" fill="url(#y)" filter="url(#u)" stroke="url(#x)"/><path d="m138.095 200.566h38c1.105 0 2 .896 2 2v6.667c0 1.104-.895 2-2 2h-38c-1.105 0-2-.896-2-2v-6.667c0-1.104.895-2 2-2z" fill="url(#w)" filter="url(#u)" stroke="url(#v)"/><path d="m73.1783 79.4001h36.1607c1.104 0 2 .8955 2 2v6.6665c0 1.1045-.896 2-2 2h-36.1607c-1.1046 0-2-.8955-2-2v-6.6665c0-1.1045.8954-2 2-2z" fill="url(#A)" filter="url(#r)" stroke="url(#z)"/><path d="m123.005 79.1906h30.334c1.104 0 2 .8955 2 2v6.6667c0 1.1045-.896 2-2 2h-30.334c-1.104 0-2-.8955-2-2v-6.6667c0-1.1045.896-2 2-2z" fill="url(#C)" filter="url(#u)" stroke="url(#B)"/><path d="m162.172 79.2333h14.667c1.104 0 2 .8955 2 2v6.6668c0 1.1044-.896 2-2 2h-14.667c-1.105 0-2-.8956-2-2v-6.6668c0-1.1045.895-2 2-2z" fill="url(#E)" filter="url(#u)" stroke="url(#D)"/><path d="m51.7342 79.5751h12.6045c1.1045 0 2 .8955 2 2v6.6668c0 1.1044-.8955 2-2 2h-12.6045c-1.1046 0-2-.8956-2-2v-6.6668c0-1.1045.8954-2 2-2z" fill="url(#G)" filter="url(#u)" stroke="url(#F)"/><path d="m73.1008 159.598h36.1602c1.105 0 2 .896 2 2v6.667c0 1.104-.895 2-2 2h-36.1602c-1.1045 0-2-.896-2-2v-6.667c0-1.104.8955-2 2-2z" fill="url(#I)" filter="url(#r)" stroke="url(#H)"/><path d="m122.928 159.388h30.333c1.105 0 2 .896 2 2v6.667c0 1.105-.895 2-2 2h-30.333c-1.105 0-2-.895-2-2v-6.667c0-1.104.895-2 2-2z" fill="url(#K)" filter="url(#u)" stroke="url(#J)"/><path d="m162.094 159.431h14.667c1.105 0 2 .896 2 2v6.667c0 1.105-.895 2-2 2h-14.667c-1.104 0-2-.895-2-2v-6.667c0-1.104.896-2 2-2z" fill="url(#M)" filter="url(#u)" stroke="url(#L)"/><path d="m51.6567 159.773h12.6045c1.1045 0 2 .896 2 2v6.667c0 1.104-.8955 2-2 2h-12.6045c-1.1045 0-2-.896-2-2v-6.667c0-1.104.8955-2 2-2z" fill="url(#t)" filter="url(#u)" stroke="url(#s)"/><g stroke-width=".2"><path d="m89.5917 80.1261 11.3053-8.8508 11.475 8.8508v22.2869l-11.475-8.7183-11.3053 8.7183z" fill="url(#O)"/><path d="m89.5073 105.999 11.3057-8.8511 11.475 8.8511v22.287l-11.475-8.719-11.3057 8.719z" fill="url(#P)"/><path d="m89.5073 131.668 11.3057-8.851 11.475 8.851v22.287l-11.475-8.719-11.3057 8.719z" fill="url(#Q)"/><path d="m153.351 30.9445 13.508 4.8684-1.394 14.4241-18.875 11.8515 1.282-14.354-13.396-4.9384z" fill="url(#R)"/><path d="m131.395 44.631 13.507 4.8684-1.393 14.4241-18.875 11.8516 1.282-14.354-13.396-4.9385z" fill="url(#S)"/><path d="m109.656 58.2809 13.507 4.8682-1.393 14.4243-18.875 11.8513 1.282-14.3537-13.396-4.9388z" fill="url(#T)"/><path d="m89.789 146.93 14.185-2.221 5.709 13.319-10.8582 19.464-5.773-13.204-14.1209 2.106z" fill="url(#U)"/><path d="m77.1104 169.484 14.1853-2.222 5.7087 13.32-10.8581 19.463-5.7731-13.204-14.1208 2.106z" fill="url(#V)"/><path d="m64.6049 191.9 14.1851-2.221 5.7088 13.32-10.858 19.463-5.7731-13.204-14.1209 2.106z" fill="url(#W)"/></g></g></svg>