<svg enable-background="new 0 0 220.00 220.00" height="220" viewBox="0 0 220 220" width="220" xmlns="http://www.w3.org/2000/svg" xmlns:xlink="http://www.w3.org/1999/xlink"><linearGradient id="a" gradientUnits="objectBoundingBox" x1="-.0487921" x2="1.04879" y1=".500001" y2=".5"><stop offset=".00925926" stop-color="#c0c0c0"/><stop offset=".197949" stop-color="#8b8b8b" stop-opacity=".501961"/><stop offset=".421296" stop-color="#575757" stop-opacity="0"/><stop offset=".611111" stop-color="#626262" stop-opacity="0"/><stop offset="1" stop-color="#c0c0c0" stop-opacity=".4"/></linearGradient><filter id="b" filterUnits="userSpaceOnUse"><feGaussianBlur stdDeviation="1.88976"/></filter><linearGradient id="c" gradientTransform="matrix(-1 0 0 -1 2.111732 1.000004)" gradientUnits="objectBoundingBox" x1="1.05587" x2="2.1676" y1=".500002" y2=".500002"><stop offset="0" stop-color="#8fc072"/><stop offset=".662037" stop-color="#87b76b"/><stop offset="1" stop-color="#80af64"/></linearGradient><linearGradient id="d" gradientTransform="matrix(-.999375856205 -.035325600269 .035325600269 -.999375856205 1.970746955365 1.345631775862)" gradientUnits="objectBoundingBox" x1=".997261" x2="2.03922" y1=".655406" y2=".655406"><stop offset="0" stop-color="#316013"/><stop offset=".662037" stop-color="#447327"/><stop offset="1" stop-color="#58873b"/></linearGradient><linearGradient id="e" gradientUnits="objectBoundingBox" x1="-.048792" x2="1.04879" y1=".5" y2=".5"><stop offset="0" stop-color="#c0c0c0" stop-opacity="0"/><stop offset=".19505" stop-color="#989898" stop-opacity="0"/><stop offset=".425926" stop-color="#707070" stop-opacity="0"/><stop offset=".787037" stop-color="#6c6c6c" stop-opacity="0"/><stop offset=".986111" stop-color="#b9b9b9" stop-opacity=".6"/></linearGradient><path d="m103.026 117.849 90.334-50.4996v47.6666l-90.334 52.833z" fill="#fff" stroke="#000" stroke-linecap="square" stroke-linejoin="bevel" stroke-width="5"/><path d="m23.0264 115.016h79.3336l.041 52.958-62.2496.25-10.75-3-6.25-9z" fill="#fff" stroke="#000" stroke-linecap="square" stroke-linejoin="bevel" stroke-width="5"/><path d="m91.3995 91.0918c32.9995-15.7351 65.8585-15.6849 73.3905.112 7.533 15.7972-13.113 41.3592-46.113 57.0942-33.0008 15.735-65.859 15.685-73.3913-.112s13.1139-41.359 46.1138-57.0942z" fill="url(#a)" filter="url(#b)" stroke-linecap="square" stroke-linejoin="bevel" stroke-width=".2"/><path d="m16.943 102.099 89.583-.291v12.75l-89.4163.208z" fill="#80af64" stroke="#000" stroke-width="5"/><path d="m16.2764 102.266 98.2146-52.7284 80.785-.4797-92.221 53.2501z" fill="url(#c)" stroke="#000" stroke-width="5"/><g stroke-linejoin="bevel"><path d="m63.443 91.2662 37.083-.0834 56.334-31.3335-38.667.3335z" fill="url(#d)" stroke-linecap="square" stroke-width=".2"/><path d="m107.61 100.933 90.375-53.3753v15.5l-90.375 51.5413z" fill="#80af64" stroke="#000" stroke-linecap="square" stroke-width="5"/><path d="m113.554 81.0796c33-15.7351 65.859-15.6849 73.391.112 7.533 15.797-13.113 41.3594-46.114 57.0944-33 15.735-65.8582 15.685-73.3905-.112s13.1139-41.3594 46.1135-57.0944z" fill="url(#e)" filter="url(#b)" stroke-linecap="square" stroke-width=".2"/><path d="m42.568 114.558 46.5.25-16.5 18h-43.75z" fill="#80af64" stroke="#000" stroke-width="5"/></g></svg>