<svg enable-background="new 0 0 257.00 257.00" height="257" viewBox="0 0 257 257" width="257" xmlns="http://www.w3.org/2000/svg" xmlns:xlink="http://www.w3.org/1999/xlink"><radialGradient id="a" cx="95.0046" cy="228.257" gradientTransform="matrix(-1 0 0 -1 190.009278 456.513854)" gradientUnits="userSpaceOnUse" r="104.738"><stop offset="0" stop-color="#a8a162"/><stop offset="1"/></radialGradient><filter id="b" filterUnits="userSpaceOnUse"><feGaussianBlur stdDeviation="7.937"/></filter><linearGradient id="c"><stop offset="0" stop-color="#ffffd6"/><stop offset=".376744" stop-color="#fffd31"/><stop offset=".740593" stop-color="#ffc817"/><stop offset="1" stop-color="#f6a700"/></linearGradient><radialGradient id="d" cx="108.03" cy="133.718" gradientTransform="matrix(-.547191417205 -.837007498734 .837007498734 -.547191417205 55.2200737196 297.309454931131)" gradientUnits="userSpaceOnUse" r="112.01" xlink:href="#c"/><linearGradient id="e"><stop offset="0" stop-color="#fffffb"/><stop offset=".755398" stop-color="#fbfbfb"/><stop offset="1" stop-color="#b3b3b3"/></linearGradient><radialGradient id="f" cx="122.179" cy="105.571" gradientTransform="matrix(-.999346870845 -.036136293828 .036136293828 -.999346870845 240.464137453464 215.488432665135)" gradientUnits="userSpaceOnUse" r="25.7769" xlink:href="#e"/><radialGradient id="g" cx="64.1553" cy="109.713" gradientTransform="matrix(-.996771946047 .080285039543 -.080285039543 -.996771946047 136.911799594661 213.922070369767)" gradientUnits="userSpaceOnUse" r="24.6536" xlink:href="#e"/><linearGradient id="h"><stop offset="0" stop-color="#b88000"/><stop offset="1" stop-color="#4f2f00"/></linearGradient><radialGradient id="i" cx="64.8301" cy="116.386" gradientUnits="userSpaceOnUse" r="14.4912" xlink:href="#h"/><radialGradient id="j" cx="122.152" cy="115.529" gradientUnits="userSpaceOnUse" r="13.6338" xlink:href="#h"/><linearGradient id="k"><stop offset="0" stop-color="#fff" stop-opacity=".388235"/><stop offset="1" stop-opacity=".388235"/></linearGradient><linearGradient id="l" gradientTransform="matrix(-.089667884086 .995971721769 -.995971721769 -.089667884086 .696137356969 -.606897303202)" gradientUnits="objectBoundingBox" x1=".625425" x2="1.68319" xlink:href="#k" y1=".0146909" y2=".0146909"/><linearGradient id="m" gradientTransform="matrix(-.08709657505 .996199872824 -.996199872824 -.08709657505 .714952349303 -.558476185984)" gradientUnits="objectBoundingBox" x1=".613366" x2="1.57977" xlink:href="#k" y1=".0483479" y2=".0483479"/><radialGradient id="n" cx="73.1387" cy="113.937" gradientUnits="userSpaceOnUse" r="11.196" xlink:href="#h"/><radialGradient id="o" cx="57.9421" cy="104.561" gradientUnits="userSpaceOnUse" r="1.86157" xlink:href="#h"/><radialGradient id="p" cx="64.2273" cy="102.318" gradientUnits="userSpaceOnUse" r="4.6748" xlink:href="#e"/><radialGradient id="q" cx="54.3086" cy="118.65" gradientUnits="userSpaceOnUse" r="12.2273" xlink:href="#h"/><radialGradient id="r" cx="115.885" cy="124.832" gradientTransform="matrix(-.547857743533 -.836571510901 .836571510901 -.547857743533 74.943063571942 290.169252057857)" gradientUnits="userSpaceOnUse" r="112.004" xlink:href="#c"/><radialGradient id="s" cx="92.0454" cy="186.773" gradientTransform="matrix(.21254956069 .977150287443 -.977150287443 .21254956069 254.986767665486 57.132506485339)" gradientUnits="userSpaceOnUse" r="69.7314"><stop offset="0" stop-color="#9e1f01"/><stop offset=".943965" stop-color="#180906"/></radialGradient><radialGradient id="t" cx="82.6855" cy="194.436" gradientUnits="userSpaceOnUse" r="24.5769"><stop offset="0" stop-color="#f1ebea"/><stop offset=".0818966" stop-color="#f77f7f"/><stop offset=".280172" stop-color="#fd1414"/><stop offset=".521552" stop-color="#f00"/><stop offset=".722198" stop-color="#ba0c01"/><stop offset=".943965" stop-color="#751803"/></radialGradient><radialGradient id="u" cx="93.2129" cy="170.767" gradientUnits="userSpaceOnUse" r="54.5447"><stop offset="0" stop-color="#f8f6f2"/><stop offset=".646512" stop-color="#f0eeea"/><stop offset="1" stop-color="#999a9d"/></radialGradient><radialGradient id="v" cx="99.5537" cy="121.139" gradientUnits="userSpaceOnUse" r="120.588"><stop offset="0" stop-color="#969ad9"/><stop offset=".378049" stop-color="#323ce7"/><stop offset=".740593" stop-color="#131ecb"/><stop offset="1" stop-color="#0803bd"/></radialGradient><radialGradient id="w" cx="117.324" cy="119.023" gradientTransform="matrix(-.99934727506 -.036125113572 .036125113572 -.99934727506 230.271657656175 242.206246773514)" gradientUnits="userSpaceOnUse" r="25.8165" xlink:href="#e"/><radialGradient id="x" cx="111.594" cy="118.647" gradientTransform="matrix(.165474289326 -.986214104326 .986214104326 .165474289326 -23.883147179603 209.069836881162)" gradientUnits="userSpaceOnUse" r="33.3585" xlink:href="#h"/><linearGradient id="y" gradientTransform="matrix(-.087095792636 .996199941229 -.996199941229 -.087095792636 .714934842755 -.558468659753)" gradientUnits="objectBoundingBox" x1=".613354" x2="1.57975" xlink:href="#k" y1=".0483445" y2=".0483445"/><linearGradient id="z" gradientTransform="matrix(-1 0 0 -1 2.07957 1.00076)" gradientUnits="objectBoundingBox" x1="1.03978" x2="2.10274" y1=".50038" y2=".50038"><stop offset=".506977" stop-color="#e7e8ee"/><stop offset="1" stop-color="#4d5793"/></linearGradient><filter id="A" filterUnits="userSpaceOnUse"><feGaussianBlur stdDeviation="2.83465"/></filter><filter id="B" filterUnits="userSpaceOnUse"><feGaussianBlur stdDeviation="2.4567"/></filter><linearGradient id="C"><stop offset="0" stop-color="#293128"/><stop offset=".272524" stop-color="#1d8c19"/><stop offset=".525581" stop-color="#11e70b" stop-opacity=".996078"/><stop offset="1" stop-color="#97bd89"/></linearGradient><linearGradient id="D" gradientTransform="matrix(-1 0 0 -1 2 .999998)" gradientUnits="objectBoundingBox" x1="1" x2="2" xlink:href="#C" y1=".499999" y2=".499999"/><linearGradient id="E" gradientTransform="matrix(-1 0 0 -1 2 .999996)" gradientUnits="objectBoundingBox" x1="1" x2="2" xlink:href="#C" y1=".499998" y2=".499998"/><g stroke-linejoin="round"><g stroke-width=".2"><path d="m15.5093 227.619c0 9.564 35.5913 17.602 79.4963 17.955l0 0c43.9034.352 79.4954-7.116 79.4954-16.679l0 0c0-9.563-35.592-17.601-79.4954-17.954l0 0c-.9968-.007-1.9895-.011-2.9773-.011l0 0c-42.5259 0-76.519 7.343-76.519 16.689z" fill="url(#a)" filter="url(#b)"/><path d="m11.6677 158.037c0 44.361 35.6472 80.323 79.6214 80.323l0 0c43.9739 0 79.6209-35.962 79.6209-80.323l0 0c0-44.36-35.647-80.3213-79.6209-80.3213l0 0c-43.9742 0-79.6214 35.9613-79.6214 80.3213z" fill="url(#d)"/><path d="m103.609 112.403c0 3.575.47 6.997 1.317 10.138l0 0c12.712.518 24.106 3.416 32.521 7.847l0 0c2.836-4.85 4.559-11.128 4.559-17.985l0 0c0-15.3697-8.887-27.3292-21.547-27.3292l0 0c-7.995 0-16.85 11.9595-16.85 27.3292z" fill="url(#f)"/><path d="m44.9561 114.633c0 6.857 1.7231 13.135 4.5585 17.985l0 0c8.4156-4.43 19.8096-7.328 32.521-7.847l0 0c .8477-3.141 1.3167-6.562 1.3167-10.138l0 0c0-15.3692-7.0674-25.6849-13.531-27.3287l0 0c-1.2647-.3213-2.5147-.4744-3.7393-.4744l0 0c-11.674-.0014-21.1259 13.8931-21.1259 27.8031z" fill="url(#g)"/><path d="m128.263 124.045c0-6.533-2.953-11.829-6.596-11.829-3.614 0-6.549 5.214-6.595 11.676 4.637.688 9.003 1.705 12.999 2.998.126-.911.192-1.864.192-2.845z"/><path d="m59.5525 102.7c-1.1863.95-2.2715 2.212-3.2207 3.723-2.4893 3.962-4.0462 9.642-4.0462 15.955 0 3.017.3558 5.89.9993 8.5 1.7278-.745 3.5518-1.432 5.4609-2.056-.3601-1.461-.5603-3.077-.5603-4.777 0-6.533 2.9539-11.829 6.5965-11.829s6.5954 5.296 6.5954 11.829c0 .618-.0263 1.225-.0771 1.818 1.9448-.303 3.9387-.547 5.9741-.73.0664-.902.1006-1.822.1006-2.755 0-7.746-2.3359-14.55-5.8713-18.386-.8401-.504-1.7088-.923-2.6016-1.251-1.511-.554-3.0928-.846-4.7273-.846-1.5903 0-3.1448.276-4.6223.805z" fill="url(#i)"/><path d="m115.478 103.992c-3.534 3.836-5.871 10.64-5.871 18.386 0 .291.004.581.011.869 1.854.165 3.674.381 5.454.645.046-6.462 2.981-11.676 6.595-11.676 3.643 0 6.596 5.296 6.596 11.829 0 .981-.066 1.934-.192 2.845 2.108.683 4.113 1.443 6.001 2.272.406-2.134.625-4.414.625-6.784 0-8.721-2.971-16.234-7.267-19.678-1.477-.529-3.032-.805-4.622-.805-2.601 0-5.068.74-7.33 2.097z" fill="url(#j)"/><path d="m71.3003 125.863c.0508-.593.0771-1.2.0771-1.818 0-6.533-2.9528-11.829-6.5954-11.829s-6.5965 5.296-6.5965 11.829c0 1.7.2002 3.316.5603 4.777 3.8655-1.262 8.0804-2.264 12.5545-2.959z"/><path d="m73.9404 115.255c0 5.71-2.6845 10.337-5.9966 10.337-3.3122 0-5.9968-4.627-5.9968-10.337 0-5.708 2.6846-10.336 5.9968-10.336 3.3121 0 5.9966 4.628 5.9966 10.336z" fill="url(#l)"/><path d="m118.707 115.594c0 5.71 2.684 10.337 5.997 10.337 3.311 0 5.996-4.627 5.996-10.337 0-5.708-2.685-10.336-5.996-10.336-3.313 0-5.997 4.628-5.997 10.336z" fill="url(#m)"/><path d="m77.3757 122.378c0-7.746-2.3371-14.55-5.8718-18.386-.8401-.505-1.709-.923-2.6018-1.251.8928.328 1.7615.747 2.6016 1.251 3.5354 3.836 5.8713 10.64 5.8713 18.386 0 .933-.0342 1.853-.0996 2.755.0664-.902.1003-1.822.1003-2.755z" fill="url(#n)"/><path d="m59.5522 102.7c-1.186.95-2.2712 2.212-3.2204 3.723.9492-1.511 2.0344-2.773 3.2204-3.723z" fill="url(#o)"/><path d="m59.5525 102.7c1.4775-.529 3.032-.805 4.6223-.805 1.6345 0 3.2163.292 4.7273.846-1.511-.554-3.0928-.846-4.7275-.846-1.5906 0-3.1448.276-4.6221.805z" fill="url(#p)"/><path d="m53.2849 130.878c-.6435-2.61-.9993-5.483-.9993-8.5 0-6.313 1.5569-11.993 4.0462-15.955-2.4895 3.962-4.0466 9.642-4.0466 15.955 0 3.017.3562 5.89.9997 8.5z" fill="url(#q)"/><path d="m91.3071 78.2061c-43.9743 0-79.6216 35.9609-79.6216 80.3209 0 44.361 35.6473 80.323 79.6216 80.323 43.9739 0 79.6209-35.962 79.6209-80.323 0-44.36-35.647-80.3209-79.6209-80.3209zm-56.4275 56.8149c0-17.747 24.3338-32.135 54.3499-32.135 30.0165 0 54.3505 14.388 54.3505 32.135 0 17.748-24.334 32.135-54.3505 32.135-30.0166 0-54.3499-14.387-54.3499-32.135z" fill="url(#r)"/></g><path d="m79.2476 87.2101s-31.2505 7.6613-43.4226 34.1229c4.3193-31.1569 43.4226-34.1229 43.4226-34.1229z" fill="#643d00" stroke="#653d00" stroke-linecap="round" stroke-width="7.224"/><path d="m110.202 90.4969s28.123 7.1821 39.353 34.1221c-8.324-30.4368-39.353-34.1221-39.353-34.1221z" fill="#643d00" stroke="#653d00" stroke-linecap="round" stroke-width="7.224"/><path d="m44.0586 147.021c-1.0786 4.288-.603 15.77.3806 23.67.9834 7.899 2.4744 12.217 4.5488 16.197 2.0743 3.98 4.7317 7.624 9.3828 10.706 4.6507 3.083 11.2947 5.606 19.2676 6.867 7.9727 1.261 17.2744 1.261 25.4136-.421 8.138-1.681 15.115-5.044 20.928-9.388 5.814-4.344 10.465-9.669 13.455-14.854 2.989-5.185 4.318-10.229 4.755-15.712s-.018-11.403-.764-14.941c-.747-3.539-1.785-4.695-3.714-4.537s-4.749 1.629-6.72 2.838-3.092 2.154-8.853 3.389c-5.762 1.235-16.164 2.759-23.0797 3.512s-10.3449.736-14.385.797c-4.0405.061-8.6911.202-14.5046-.884-5.8137-1.087-12.7898-3.399-17.5947-6.008-4.8047-2.61-7.4378-5.518-8.5164-1.231z" fill="url(#s)" stroke="#d98004" stroke-width="4"/><path d="m89.7478 179.763c8.6672 0 15.6932 5.256 15.6932 11.739s-7.026 11.739-15.6932 11.739-15.6934-5.256-15.6934-11.739 7.0257-11.739 15.6934-11.739z" fill="url(#t)" stroke-width=".2"/><path d="m46.3464 148.351c.5711 3.364 2.8015 11.004 9.3077 18.048 6.5058 7.045 17.2873 13.493 26.5471 16.483 9.2597 2.989 16.9975 2.52 25.2988-1.237 8.302-3.756 17.168-10.799 23.11-18.121 5.941-7.322 8.957-14.921 7.905-17.067-1.053-2.146-6.175 1.162-13.654 3.749-7.479 2.586-17.315 4.45-27.3102 5.44-9.9951.991-20.1497 1.108-28.4426-.509-8.293-1.619-14.7244-4.972-18.4844-7.105-3.7598-2.133-4.8484-3.045-4.2774.319z" fill="url(#u)" stroke-width=".2"/><path d="m55.5532 139.393s-13.3828 2.553-18.5957 11.37c1.8496-10.382 18.5957-11.37 18.5957-11.37z" fill="#d98004" stroke="#d98004" stroke-linecap="round" stroke-width="3"/><path d="m148.878 153.027s-7.073-11.836-17.023-13.684c10.201-1.906 17.023 13.684 17.023 13.684z" fill="#d98004" stroke="#d98004" stroke-linecap="round" stroke-width="3"/><path d="m88.6211 77.5765v160.8735c.4048.006.8101.009 1.2163.009 44.8036 0 81.1236-36.018 81.1236-80.446 0-44.429-36.32-80.4453-81.1236-80.4453-.4062 0-.8115.0029-1.2163.0088z" fill="url(#v)" stroke-linecap="round" stroke-width=".2"/><path d="m105.345 72.9256s28.654 7.1934 40.096 34.1754c-8.481-30.4842-40.096-34.1754-40.096-34.1754z" fill="#643d00" stroke="#653d00" stroke-linecap="round" stroke-width="7.224"/><path d="m98.4033 125.865c0 3.581.4783 7.008 1.3416 10.154l0 0c12.9521.519 24.5611 3.421 33.1351 7.859l0 0c2.889-4.858 4.644-11.146 4.644-18.013l0 0c0-15.393-9.055-27.371-21.953-27.371l0 0c-8.146 0-17.1677 11.978-17.1677 27.371z" fill="url(#w)" stroke-width=".2"/><path d="m110.486 100.106c-3.601 3.843-5.982 10.657-5.982 18.415l0 0c0 7.836 2.446 14.7 6.11 18.519l0 0c3.653.556 7.148 1.324 10.416 2.249l0 0c5.236-2.718 9.038-10.985 9.038-20.768l0 0c0-8.734-3.028-16.259-7.404-19.7087l0 0c-1.506-.5288-3.09-.8056-4.71-.8056l0 0c-2.65 0-5.163.7405-7.468 2.0993z" fill="url(#x)" stroke-width=".2"/><path d="m110.071 120.19c0 6.543 3.01 11.847 6.721 11.847s6.72-5.304 6.72-11.847c0-6.542-3.009-11.846-6.72-11.846s-6.721 5.304-6.721 11.846z" stroke-width=".2"/><path d="m113.775 111.732c0 5.718 2.735 10.352 6.11 10.352 3.374 0 6.11-4.634 6.11-10.352s-2.736-10.353-6.11-10.353c-3.375 0-6.11 4.635-6.11 10.353z" fill="url(#y)" stroke-width=".2"/><path d="m93.4956 162.941c1.8267-2.839 4.5986-6.245 7.4334-8.597 2.834-2.353 5.732-3.65 8.693-3.731 2.961-.082 5.984 1.054 8.126 3.001 2.142 1.946 3.402 4.704 3.591 6.326s-.693 2.109-1.575 1.298-1.764-2.92-3.591-4.542-4.598-2.758-7.937-1.379-7.244 5.272-9.6379 8.354c-2.394 3.082-3.2758 5.353-4.4726 6.326-1.197.974-2.7088.649-3.0239-.649-.3147-1.297.5671-3.568 2.394-6.407z" fill="#fe0c0c" stroke="#d98004" stroke-linecap="round" stroke-width="4"/><path d="m147.306 174.708c2.622-.41 5.9-.737 8.768-.164 2.868.574 5.326 2.049 8.215 3.871 2.889 1.823 6.209 3.993 8.974 6.153 2.766 2.161 4.979 4.312 6.331 5.818 1.352 1.505 1.844 2.366 2.074 3.011s.2 1.076-.645 1.383-2.505.491-4.21.123c-1.706-.369-3.457-1.291-5.46-2.222-2.003-.932-4.257-1.873-5.486-1.77-1.229.102-1.433 1.248-1.126 2.722.308 1.475 1.128 3.277 2.587 5.771 1.46 2.495 3.559 5.68 5.439 8.942 1.879 3.263 3.539 6.602 3.554 8.778.016 2.177-1.613 3.191-3.656 1.65-2.044-1.542-4.502-5.639-6.382-8.912-1.879-3.272-3.18-5.72-4.199-6.781-1.02-1.06-1.757-.732-1.429.579.327 1.311 1.721 3.606 3.032 6.31s2.54 5.818 3.272 8.271c.733 2.453.968 4.246.661 5.465-.307 1.218-1.157 1.864-2.141 1.29-.983-.573-2.1-2.366-3.805-5.639-1.705-3.272-4-8.025-5.147-10.401-1.147-2.377-1.147-2.377-1.347-2.208s-.599.507-.307 2.274 1.275 4.963 1.762 8.072c.486 3.108.476 6.13.143 8.01-.333 1.879-.988 2.617-1.849 2.453-.86-.164-1.926-1.229-2.827-3.408-.901-2.178-1.637-5.469-3.081-8.436-1.444-2.968-3.595-5.61-4.932-7.408-1.337-1.797-1.859-2.75-2.854-4.125-.994-1.375-2.46-3.173-3.541-5.22s-1.776-4.343-2.022-6.309c-.246-1.967-.042-3.605.88-6.308.921-2.703 2.56-6.473 4.363-8.603 1.803-2.131 3.769-2.622 6.391-3.032z" fill="url(#z)" stroke="#a9adc9" stroke-linecap="round"/><path d="m138.235 185.735-1.659 4.978 2.213 7.375 5.162 6.637 5.9 6.269 2.212 5.9 1.291 7.006" fill="none" filter="url(#A)" stroke="#16171f" stroke-linecap="round" stroke-width="4"/><path d="m156.488 204.725 1.475 3.688 4.241 7.928 2.765 6.268" fill="none" filter="url(#B)" stroke="#16171f" stroke-linecap="round" stroke-width="3"/><path d="m162.757 201.13 3.503 4.978 4.241 6.822 2.765 4.793" fill="none" filter="url(#B)" stroke="#16171f" stroke-linecap="round" stroke-width="3"/><path d="m166.444 188.593 4.794 2.028 5.531 2.581h2.213" fill="none" filter="url(#A)" stroke="#16171f" stroke-linecap="round" stroke-width="5"/><path d="m103.904 195.761-1.839-17.011 1.839-16.552 8.276-14.253 11.954-10.575 12.874-4.597 10.574-1.38.92 19.311 2.758 8.735 9.196.92 70.345-62.5288 1.839-7.3562-.46-8.2759v-.46l-6.437-6.8965-64.368-58.3906-5.517-1.3794v.4597l-5.517 2.2989-2.759 4.1379.46 22.9885-15.172 2.7586-16.552 6.8967-15.173 14.7127-9.6548 21.6091-5.5171 28.0463 2.2989 36.781 7.8159 24.368z" fill="url(#D)" stroke="#000" stroke-width="4"/><path d="m103.674 195.455 8.583 9.042 8.275 7.203 7.816 3.372h4.445l2.605-3.219.46-4.751-2.452-7.816-4.904-5.824-6.743-7.662-6.744-9.656-2.912-9.502-1.686-12.566 1.38-5.364-8.889 13.179-1.533 20.843z" fill="url(#E)" stroke="#000" stroke-width="4"/></g></svg>