<?xml version="1.0" encoding="utf-8"?>
<!DOCTYPE svg PUBLIC "-//W3C//DTD SVG 1.1//EN" "http://www.w3.org/Graphics/SVG/1.1/DTD/svg11.dtd">
<svg xmlns="http://www.w3.org/2000/svg" xmlns:xlink="http://www.w3.org/1999/xlink" version="1.1" baseProfile="full" width="257" height="257" viewBox="0 0 257.00 257.00" enable-background="new 0 0 257.00 257.00" xml:space="preserve">
	<g>
		<path fill="#FFFFFF" fill-opacity="1" stroke-width="5" stroke-linejoin="round" stroke="#333232" stroke-opacity="1" d="M 57.6794,13.8575L 211.028,13.8575C 215.612,13.8575 219.307,17.5321 219.307,22.1109L 219.307,237.115C 219.307,241.699 215.612,245.394 211.028,245.394L 57.6794,245.394C 53.0955,245.394 49.4053,241.699 49.4053,237.115L 49.4053,22.1109C 49.4053,17.5321 53.0955,13.8575 57.6794,13.8575 Z "/>
		<path fill="none" stroke-width="5" stroke-linejoin="round" stroke="#333232" stroke-opacity="1" d="M 140.049,30.933C 140.049,34.0855 137.501,36.6283 134.375,36.6283C 131.248,36.6283 128.7,34.0855 128.7,30.933C 128.7,27.7855 131.248,25.222 134.375,25.222C 137.501,25.222 140.049,27.7855 140.049,30.933 Z "/>
		<path fill="none" stroke-width="5" stroke-linejoin="round" stroke="#333232" stroke-opacity="1" d="M 90.9727,30.933C 90.9727,34.0855 88.4248,36.6283 85.2979,36.6283C 82.166,36.6283 79.6235,34.0855 79.6235,30.933C 79.6235,27.7855 82.166,25.222 85.2979,25.222C 88.4248,25.222 90.9727,27.7855 90.9727,30.933 Z "/>
		<path fill="none" stroke-width="5" stroke-linejoin="round" stroke="#333232" stroke-opacity="1" d="M 189.126,30.933C 189.126,34.0855 186.583,36.6283 183.451,36.6283C 180.322,36.6283 177.778,34.0855 177.778,30.933C 177.778,27.7855 180.322,25.222 183.451,25.222C 186.583,25.222 189.126,27.7855 189.126,30.933 Z "/>
		<path fill="#1EB265" fill-opacity="1" stroke-width="0.2" stroke-linejoin="round" d="M 219.406,51.87L 219.406,237.922C 219.406,242.103 216.057,245.473 211.876,245.493L 57.0544,245.493C 55.0337,245.493 53.1162,244.687 51.7261,243.251C 50.3101,241.819 49.5039,239.902 49.5244,237.881L 49.5244,51.8285"/>
		<path fill="none" stroke-width="5" stroke-linejoin="round" stroke="#333232" stroke-opacity="1" d="M 219.307,47.993L 219.307,237.658C 219.344,241.859 215.974,245.312 211.777,245.394L 56.9353,245.394C 52.7339,245.312 49.364,241.859 49.4053,237.658L 49.4053,47.993"/>
		<path fill="none" stroke-width="5" stroke-linejoin="round" stroke="#333232" stroke-opacity="1" d="M 70.1553,76.5003L 202.469,76.5003M 70.1553,103.07L 202.469,103.07M 70.1553,129.613L 202.469,129.613M 70.1553,156.203L 202.469,156.203M 70.1553,182.788L 134.375,182.788"/>
	</g>
	<g>
		<linearGradient id="SVGID_Fill1_" gradientUnits="objectBoundingBox" x1="1" y1="0.499999" x2="2" y2="0.499999" gradientTransform="rotate(180.000000 1.000000 0.499999)">
			<stop offset="0" stop-color="#293128" stop-opacity="1"/>
			<stop offset="0.272524" stop-color="#1D8C19" stop-opacity="1"/>
			<stop offset="0.525581" stop-color="#11E70B" stop-opacity="0.996078"/>
			<stop offset="1" stop-color="#97BD89" stop-opacity="1"/>
		</linearGradient>
		<path fill="url(#SVGID_Fill1_)" stroke-width="4" stroke-linejoin="round" stroke="#000000" stroke-opacity="1" d="M 103.904,195.761L 102.065,178.75L 103.904,162.198L 112.18,147.945L 124.134,137.37L 137.008,132.773L 147.582,131.393L 148.502,150.704L 151.26,159.439L 160.456,160.359L 230.801,97.8302L 232.64,90.474L 232.18,82.1981L 232.18,81.7381L 225.743,74.8416L 161.375,16.451L 155.858,15.0716L 155.858,15.5313L 150.341,17.8302L 147.582,21.9681L 148.042,44.9566L 132.87,47.7152L 116.318,54.6119L 101.145,69.3246L 91.4902,90.9337L 85.9731,118.98L 88.272,155.761L 96.0879,180.129L 103.904,195.761 Z "/>
		<linearGradient id="SVGID_Fill2_" gradientUnits="objectBoundingBox" x1="1" y1="0.499998" x2="2" y2="0.499998" gradientTransform="rotate(180.000000 1.000000 0.499998)">
			<stop offset="0" stop-color="#293128" stop-opacity="1"/>
			<stop offset="0.272524" stop-color="#1D8C19" stop-opacity="1"/>
			<stop offset="0.525581" stop-color="#11E70B" stop-opacity="0.996078"/>
			<stop offset="1" stop-color="#97BD89" stop-opacity="1"/>
		</linearGradient>
		<path fill="url(#SVGID_Fill2_)" stroke-width="4" stroke-linejoin="round" stroke="#000000" stroke-opacity="1" d="M 103.674,195.455L 112.257,204.497L 120.532,211.7L 128.348,215.072L 132.793,215.072L 135.398,211.853L 135.858,207.102L 133.406,199.286L 128.502,193.462L 121.759,185.8L 115.015,176.144L 112.103,166.642L 110.417,154.076L 111.797,148.712L 102.908,161.891L 101.375,182.734L 103.674,195.455 Z "/>
	</g>
</svg>
