<svg enable-background="new 0 0 220.00 220.00" height="220" viewBox="0 0 220 220" width="220" xmlns="http://www.w3.org/2000/svg" xmlns:xlink="http://www.w3.org/1999/xlink"><filter id="a" filterUnits="userSpaceOnUse"><feGaussianBlur stdDeviation="1.88976"/></filter><g stroke-linejoin="bevel"><g stroke-width="5"><path d="m187.415 70.4821-.667 18.3333-4 11.6666-5.333 10-5 8-6.667 7-5 3-4.666 1-2.667-6.333v-8.667l.333-7 3.334-7.333 8-6.0001 8-6.3333 8-7.3333z" fill="#fff" stroke="#000"/><path d="m27.0818 72.4821 11.6666 13 2.6666 1.6668 7.6667 8 6 4.3334 6.3333 2.9997 4.3334 6.667 3.3333 9.333 1.6667 9 .6666 7.334-3 2.666-6-3.333-8.3333-8.333-9.6667-10.334-5.6666-9-5-8.9997-3-10.3334-1.6667-8z" fill="#fff" stroke="#000"/><path d="m60.0818 100.149-1.3334-18.6669v-13.9998l2-12.6667 6.6666-11 5.6667-7 8.3333-6.6667 9.6667-5.6666 10.6663-1.6667 18.667 1 11.333 3 9.667 4.3333 8.667 5.6667 6.333 6 5 9.6667 2.667 10 2 9.3333-2.334 12-4.333 9.6667-4.333 7.9997-.667 9 .667 10.667 1.666 7.667 5 8.666 7 7 5.334 5.334 8.333 4.333 6.667 4 1.333 3.333-2.333 4-5.667 7.334-6.667 6.666-8 5-6.333 3.334-7.667 2-9 2.333h-11.666-11l-7.334-2-6.333-3-6-4.667-5-3.333-4.6666 4-5.3334 4.333-4 3.334-6.3333 1.333-11.6667 1.333-8.3333-.666-7-5.334 1.3333-3.333 6.6667-4.333 6.3333-6 5-8.334 1.3334-11 .6666-9-.3333-12-1.6667-8.333-3-8.333-2.6666-6.667z" fill="#fff" stroke="#000"/><path d="m81.7484 100.482 9.6668 8.333 6.3332 1.001 7.9996.666 10-1.333 7.667-1.333 6.333-3 5.667-3.667-1 3-6 8.333-7 11-6 8-6 7.334-2.667 1.666-6.333-6.666-4.6666-8-5.3334-8.334-4.6666-8.333-3.6667-6.333z" fill="#f00" stroke="#000"/><path d="m85.0818 50.8154 8.6666 8.3334 5.3333 4.0001 2.3333 6.6667.333 22-11.6663-1-.3333-17.3333.3333-11.6667z" stroke="#2d2d2d"/><path d="m130.469 51.8042-8.666 8.3334-5.333 4.0001-2.334 6.6666-.333 22 11.667-1 .333-17.3332-.333-11.6668z" stroke="#2d2d2d"/></g><path d="m95.0818 28.8154 22.0002 4.3334 12 5.3335 9.666 7.3333 8 10 1.334 13-.334 17.6667-2.666 16.9997s-.667 13-1 14.667c-.334 1.667-1 8.667-1 8.667l3.333 9.333 4 8 7.667 7.333 9 6 8.333 4 7.333 1.667 3.521-4.771-11.75-6.5-7.625-6.875-7.625-8.375-5.854-13.479.667-15.667 2.333-9.9997 5.729-16.6042 1.604-13.3958-7.104-21.1042-7.896-8.2292-14.854-9.0208-17.479-3.9792-13.333-.3333z" fill="#858383" filter="url(#a)" stroke-width=".2"/><path d="m60.2172 180.514-4.625 3.312-3.6875 2.625 5.0937 4.115 4.5 1.166 6.8333.167 5.6667-.167 7.7188-2.281 4.2812-3.385 2.7188-2.552-6.3855.885-6.5 2.167-6.3333-.667-4.8334-3-2.8228-3.448z" fill="#858383" filter="url(#a)" stroke-width=".2"/><path d="m102.748 180.545 8.469 5.781 7.938 2.813 5.562.875 18.615.885 7.166-1.667 9.834-3.833-3.834-1.667-5.666 1-8 2.334-8.834-.167-13.666-3.333-7.667-2.5z" fill="#858383" filter="url(#a)" stroke-width=".2"/></g></svg>