<?xml version="1.0" encoding="utf-8"?>
<!DOCTYPE svg PUBLIC "-//W3C//DTD SVG 1.1//EN" "http://www.w3.org/Graphics/SVG/1.1/DTD/svg11.dtd">
<svg x="0" y="0" width="32" height="45.25714" overflow="hidden" viewBox="0, 0, 744.0945, 1052.362" preserveAspectRatio="xMidYMid" font-size="0" id="svg" xml:space="default" xmlns="http://www.w3.org/2000/svg" xmlns:xlink="http://www.w3.org/1999/xlink" xmlns:xml="http://www.w3.org/XML/1998/namespace" version="1.1">
  <defs id="def1" xml:space="default">
    <radialGradient cx="50%" cy="50%" r="50%" fx="50%" fy="50%" gradientUnits="objectBoundingBox" id="svg_1" xml:space="default">
      <stop offset="0%" stop-color="#F79336" stop-opacity="1" xml:space="default" />
      <stop offset="99.2188%" stop-color="#FFFF56" stop-opacity="0.996094" xml:space="default" />
    </radialGradient>
    <radialGradient cx="50%" cy="50%" r="50%" fx="50%" fy="50%" gradientUnits="objectBoundingBox" id="svg_2" xml:space="default">
      <stop offset="0%" stop-color="#FFFF56" stop-opacity="0.996094" xml:space="default" />
      <stop offset="100%" stop-color="#FF7F00" stop-opacity="0.996094" xml:space="default" />
    </radialGradient>
  </defs>
  <g xml:space="default">
    <title xml:space="default">Layer 1</title>
    <path d="M281.742 390.9938 L484.3178 522.975 L486.3641 508.6515 L291.9731 360.3005 C291.9731 360.3005 290.95 378.7164 281.742 390.9938 z" stroke="#000000" fill-rule="evenOdd" fill-opacity="0.612022" stroke-width="2.79654px" id="path1510" xml:space="default" style="fill:#020202;" />
    <path d="M284.2367 385.1434 L407.9032 465.7139 L409.1523 456.9698 L290.4825 366.406 C290.4825 366.406 289.8579 377.6484 284.2367 385.1434 z" stroke="#000000" fill-rule="evenOdd" stroke-width="2.79654" id="path1512" xml:space="default" style="fill:#B3B3B3;" />
    <path d="M296.0656 359.2773 L490.4565 506.6053 C490.4565 506.6053 489.4334 520.9288 487.3872 525.0212 C485.3409 529.1137 475.1098 539.3448 466.925 534.2292 C458.7401 529.1137 264.3491 412.4791 264.3491 412.4791 C264.3491 412.4791 280.7189 404.2942 296.0656 359.2773 z" stroke="#000000" fill-rule="evenOdd" fill-opacity="0.584699" stroke-width="2.79654px" id="path1514" xml:space="default" style="fill:#00007F;" />
    <path d="M288.0607 383.9228 A51.84548 66.15482 0 1 1 184.3698 333.6067 A51.84548 66.15482 0 1 1 288.0607 383.9228 z" stroke="#000000" stroke-width="0.999706" id="path1516" xml:space="default" style="fill:url(#svg_1);" />
    <path d="M272.6031 365.7391 A35.36637 45.12754 0 1 1 201.8704 331.416 A35.36637 45.12754 0 1 1 272.6031 365.7391 z" stroke-width="0.999706" id="path2393" xml:space="default" style="fill:#FF7F00;" />
    <path d="M256.6355 347.0424 A18.88728 24.10019 0 1 1 218.8609 328.7122 A18.88728 24.10019 0 1 1 256.6355 347.0424 z" stroke-width="1.000605" id="path2395" xml:space="default" style="fill:url(#svg_2);" />
    <g transform="matrix(2.79654, 0, 0, 2.79654, -499.914, -748.212)" id="g2414" xml:space="default">
      <path d="M252.1982 383.8448 C252.1982 383.8448 261.7102 382.0155 269.7589 393.7227 C278.3971 406.2874 274.515 400.6738 274.515 400.6738" stroke="#000000" fill-rule="evenOdd" fill-opacity="0.75" stroke-width="1px" id="path2405" xml:space="default" style="fill:none;" />
      <path d="M259.505 377.6342 C259.505 377.6342 266.6587 376.2585 272.7119 385.063 C279.2084 394.5125 276.2887 390.2908 276.2887 390.2908" stroke="#000000" fill-rule="evenOdd" fill-opacity="0.75" stroke-width="0.752067px" id="path2407" xml:space="default" style="fill:none;" />
      <path d="M255.9169 380.646 C255.9169 380.646 264.4093 379.0128 271.5952 389.465 C279.3074 400.6828 275.8414 395.671 275.8414 395.671" stroke="#000000" fill-rule="evenOdd" fill-opacity="0.75" stroke-width="0.892804px" id="path2409" xml:space="default" style="fill:none;" />
    </g>
    <g transform="matrix(-0.316185, -2.89211, 2.90044, -0.315277, -813.05, 1261.2)" id="g2425" xml:space="default">
      <path d="M265.594 385.9318 C265.594 385.9318 270.7814 383.2631 278.8301 394.9702 C287.4683 407.5349 283.5861 401.9214 283.5861 401.9214" stroke="#000000" fill-rule="evenOdd" fill-opacity="0.75" stroke-width="1px" id="path2419" xml:space="default" style="fill:none;" />
      <path d="M270.798 378.7559 C270.798 378.7559 275.7299 377.506 281.7831 386.3106 C288.2795 395.76 285.3599 391.5383 285.3599 391.5383" stroke="#000000" fill-rule="evenOdd" fill-opacity="0.75" stroke-width="0.752067px" id="path2421" xml:space="default" style="fill:none;" />
      <path d="M267.5736 381.8073 C267.5736 381.8073 273.4805 380.2603 280.6664 390.7125 C288.3786 401.9303 284.9126 396.9185 284.9126 396.9185" stroke="#000000" fill-rule="evenOdd" fill-opacity="0.75" stroke-width="0.892804px" id="path2423" xml:space="default" style="fill:none;" />
    </g>
    <path d="M488.4103 523.9981 C488.4103 523.9981 535.6323 553.6583 527.2885 579.2461 C511.9418 626.3091 370.7526 545.4834 352.3366 569.015 C333.9206 592.5465 361.5446 613.0087 361.5446 613.0087" stroke="#000000" fill-rule="evenOdd" fill-opacity="0.75" stroke-width="10.83659" id="path2432" xml:space="default" style="fill:none;" />
    <path d="M228.9055 370.6378 C228.9055 369.6378 228.5228 368.5617 228.9055 367.6378 C229.4467 366.3313 230.3643 365.9444 230.9055 364.6378 C231.2882 363.7139 231.1984 362.3449 231.9055 361.6378 C232.6126 360.9307 233.0549 360.1635 233.9055 359.6378 C235.8076 358.4622 235.1984 358.3449 235.9055 357.6378 C236.6126 356.9307 236.3643 355.9444 236.9055 354.6378 C237.2882 353.7139 237.9055 353.6378 237.9055 352.6378 C237.9055 352.6378 238.9055 352.6378 238.9055 351.6378 C238.9055 350.6378 239.9055 350.6378 239.9055 349.6378 C239.9055 348.6378 241.1984 348.3449 241.9055 347.6378 C242.6126 346.9307 241.1984 345.3449 241.9055 344.6378 C242.6126 343.9307 243.1984 343.3449 243.9055 342.6378 C244.6126 341.9307 245.1984 342.3449 245.9055 341.6378 C246.6126 340.9307 247.1984 341.3449 247.9055 340.6378 C249.3197 339.2236 248.4913 340.052 249.9055 338.6378 C250.6126 337.9307 250.5228 336.5617 250.9055 335.6378 C251.4467 334.3313 252.599 333.179 253.9055 332.6378 C254.8294 332.2551 255.599 332.179 256.9055 331.6378 C257.8294 331.2551 257.9816 331.0205 258.9055 330.6378 C260.2121 330.0966 259.9055 328.6378 260.9055 327.6378 C261.9055 326.6378 261.9816 326.0205 262.9055 325.6378 C264.2121 325.0966 264.9055 324.6378 265.9055 324.6378 L266.9055 322.6378 L267.9055 321.6378 L268.9055 319.6378" stroke="#000000" stroke-width="2.79654px" id="svg_3" xml:space="default" style="fill:none;" />
    <path d="M271.9055 332.6378 C270.9055 332.6378 270.0528 334.8109 268.9055 335.6378 C267.0915 336.9453 266.6126 337.9307 265.9055 338.6378 C265.1984 339.3449 264.4467 339.3313 263.9055 340.6378 C263.5228 341.5617 262.4467 341.3313 261.9055 342.6378 C261.5228 343.5617 261.6709 343.7901 260.9055 345.6378 C260.3643 346.9444 258.9055 346.6378 258.9055 347.6378 C258.9055 348.6378 257.9055 348.6378 257.9055 349.6378 C257.9055 349.6378 258.2882 351.7139 257.9055 352.6378 C257.3643 353.9444 256.2882 354.7139 255.9055 355.6378 C255.3643 356.9444 254.0811 356.7357 252.9055 358.6378 C252.3798 359.4885 252.2882 360.7139 251.9055 361.6378 C251.3643 362.9444 250.2882 363.7139 249.9055 364.6378 C249.3643 365.9444 247.9055 366.6378 246.9055 367.6378 C245.9055 368.6378 245.9055 370.6378 244.9055 371.6378 C244.9055 371.6378 243.9055 372.6378 243.9055 373.6378 C243.9055 373.6378 242.9055 373.6378 242.9055 374.6378 C242.9055 375.6378 242.9055 376.6378 242.9055 376.6378 C242.9055 377.6378 242.9055 378.6378 242.9055 379.6378 C242.9055 380.6378 242.9055 380.6378 241.9055 380.6378 L241.9055 382.6378 L241.9055 383.6378 L241.9055 384.6378" stroke="#000000" fill-opacity="0.584699" stroke-width="2.79654px" id="svg_6" xml:space="default" style="fill:none;" />
    <path d="M203.9055 331.6378 C204.9055 331.6378 205.9055 331.6378 206.9055 331.6378 C208.9055 331.6378 209.1984 331.9307 209.9055 332.6378 C210.6126 333.3449 210.9055 332.6378 211.9055 332.6378 C212.9055 332.6378 213.9055 332.6378 215.9055 332.6378 C217.9055 332.6378 218.9055 332.6378 219.9055 332.6378 C220.9055 332.6378 222.9055 332.6378 223.9055 332.6378 C223.9055 332.6378 225.3643 332.3313 225.9055 333.6378 C226.2882 334.5617 226.1984 334.9307 226.9055 335.6378 C227.6126 336.3449 227.5228 335.7139 227.9055 336.6378 C228.4467 337.9444 229.9055 337.6378 230.9055 337.6378 C230.9055 337.6378 231.9055 337.6378 232.9055 338.6378 C233.9055 339.6378 235.9055 340.6378 236.9055 341.6378 C237.9055 342.6378 238.9816 342.2551 239.9055 342.6378 C241.2121 343.179 241.1984 343.9307 241.9055 344.6378 C242.6126 345.3449 241.1984 346.9307 241.9055 347.6378 C242.6126 348.3449 243.1984 346.9307 243.9055 347.6378 C244.6126 348.3449 244.1984 348.9307 244.9055 349.6378 C245.6126 350.3449 246.1984 350.9307 246.9055 351.6378 C247.6126 352.3449 249.0915 353.3304 250.9055 354.6378 C252.0528 355.4647 252.9055 356.6378 252.9055 356.6378 C252.9055 357.6378 254.3643 357.3313 254.9055 358.6378 C255.2882 359.5617 255.9055 359.6378 255.9055 360.6378 C255.9055 361.6378 256.9055 361.6378 256.9055 362.6378 C256.9055 363.6378 257.9055 363.6378 257.9055 364.6378 C257.9055 365.6378 258.9055 365.6378 258.9055 366.6378 C258.9055 366.6378 258.9055 367.6378 259.9055 368.6378 L259.9055 369.6378 L260.9055 369.6378 L260.9055 370.6378" stroke="#000000" fill-opacity="0.584699" stroke-width="2.79654px" id="svg_7" xml:space="default" style="fill:none;" />
    <path d="M203.9055 336.6378 C204.9055 336.6378 204.9055 336.6378 205.9055 336.6378 C206.9055 336.6378 208.9055 337.6378 208.9055 337.6378 C209.9055 337.6378 210.9055 337.6378 211.9055 338.6378 C211.9055 338.6378 213.1984 338.9307 213.9055 339.6378 C214.6126 340.3449 214.9816 341.2551 215.9055 341.6378 C217.2121 342.179 218.9816 342.2551 219.9055 342.6378 C221.2121 343.179 222.0915 344.3304 223.9055 345.6378 C226.2001 347.2916 227.599 349.0966 228.9055 349.6378 C229.8294 350.0205 231.0915 350.3304 232.9055 351.6378 C234.0528 352.4647 234.7583 353.8109 235.9055 354.6378 C237.7195 355.9453 239.0915 356.3304 240.9055 357.6378 C242.0528 358.4647 241.1984 358.9307 241.9055 359.6378 C242.6126 360.3449 244.1984 359.9307 244.9055 360.6378 C245.6126 361.3449 245.1984 361.9307 245.9055 362.6378 C246.6126 363.3449 247.9055 363.6378 247.9055 364.6378 C247.9055 365.6378 249.9055 365.6378 249.9055 366.6378 C249.9055 367.6378 250.1984 367.9307 250.9055 368.6378 C251.6126 369.3449 252.1984 368.9307 252.9055 369.6378 C253.6126 370.3449 253.9055 371.6378 254.9055 372.6378 L254.9055 373.6378 L255.9055 373.6378" stroke="#000000" stroke-width="2.79654px" id="svg_8" xml:space="default" style="fill:none;" />
    <path d="M201.9055 342.6378 C202.9055 342.6378 203.9816 342.2551 204.9055 342.6378 C206.2121 343.179 206.9055 343.6378 207.9055 344.6378 C208.9055 345.6378 209.1984 345.9307 209.9055 346.6378 C210.6126 347.3449 211.0915 347.3304 212.9055 348.6378 C214.0528 349.4647 214.3798 349.7872 214.9055 350.6378 C216.0811 352.5399 217.9055 353.6378 218.9055 354.6378 C219.9055 355.6378 222.2155 356.9753 224.9055 358.6378 C227.3115 360.1248 228.611 361.984 230.9055 363.6378 C232.7195 364.9453 235.7182 366.8446 237.9055 368.6378 C240.6938 370.9237 243.3244 372.0567 244.9055 373.6378 C246.4867 375.219 247.3643 375.3313 247.9055 376.6378 C248.2882 377.5617 249.1984 377.9307 249.9055 378.6378 C250.6126 379.3449 251.1984 378.9307 251.9055 379.6378 C252.6126 380.3449 252.1984 380.9307 252.9055 381.6378 C253.6126 382.3449 253.9055 382.6378 254.9055 382.6378 L254.9055 383.6378" stroke="#000000" stroke-width="2.79654px" id="svg_9" xml:space="default" style="fill:none;" />
    <path d="M198.9055 345.6378 C198.9055 345.6378 200.8397 345.7821 202.9055 346.6378 C205.8271 347.848 206.9055 348.6378 207.9055 349.6378 C208.9055 350.6378 208.9816 352.2551 209.9055 352.6378 C211.2121 353.179 211.9816 354.2551 212.9055 354.6378 C214.2121 355.179 213.599 357.0966 214.9055 357.6378 C215.8294 358.0205 216.1984 358.9307 216.9055 359.6378 C217.6126 360.3449 219.3918 360.4616 219.9055 362.6378 C220.1353 363.6111 219.9055 363.6378 220.9055 364.6378 C221.9055 365.6378 223.3244 367.0567 224.9055 368.6378 C226.4867 370.219 228.3643 369.3313 228.9055 370.6378 C229.2882 371.5617 230.4913 371.2236 231.9055 372.6378 C232.6126 373.3449 232.9816 374.2551 233.9055 374.6378 C235.2121 375.179 234.9816 376.2551 235.9055 376.6378 C237.2121 377.179 236.9055 378.6378 237.9055 378.6378 C238.9055 378.6378 239.0549 380.1121 239.9055 380.6378 C241.8076 381.8134 240.9055 382.6378 240.9055 382.6378 L240.9055 383.6378 L241.9055 383.6378" stroke="#000000" stroke-width="2.79654px" id="svg_10" xml:space="default" style="fill:none;" />
    <path d="M275.9055 344.6378 C274.9055 345.6378 273.6126 344.9307 272.9055 345.6378 C272.1984 346.3449 271.4467 346.3313 270.9055 347.6378 C270.5228 348.5617 271.6126 349.9307 270.9055 350.6378 C269.4913 352.052 269.2882 351.7139 268.9055 352.6378 C268.3643 353.9444 266.4467 354.3313 265.9055 355.6378 C265.5228 356.5617 264.9055 356.6378 264.9055 357.6378 C264.9055 358.6378 263.4467 359.3313 262.9055 360.6378 C262.5228 361.5617 262.957 361.9365 261.9055 363.6378 C260.7299 365.5399 259.9055 364.6378 259.9055 365.6378 C259.9055 366.6378 259.2882 366.7139 258.9055 367.6378 C258.3643 368.9444 257.1353 370.6646 256.9055 371.6378 C256.3918 373.8141 253.9879 375.0247 252.9055 377.6378 C252.5228 378.5617 252.4467 379.3313 251.9055 380.6378 C251.5228 381.5617 250.4467 383.3313 249.9055 384.6378 C249.5228 385.5617 248.9055 385.6378 248.9055 386.6378 C248.9055 386.6378 247.9055 387.6378 247.9055 388.6378 C247.9055 389.6378 247.9055 390.6378 247.9055 391.6378 L247.9055 391.6378 L247.9055 392.6378" stroke="#000000" stroke-width="2.79654px" id="svg_11" xml:space="default" style="fill:none;" />
  </g>
</svg>