<svg enable-background="new 0 0 41.88 38.39" height="38.3927" viewBox="0 0 41.88 38.39" width="41.8777" xmlns="http://www.w3.org/2000/svg" xmlns:xlink="http://www.w3.org/1999/xlink"><radialGradient id="a" cx="21.0156" cy="50.4285" gradientTransform="matrix(0 -1 1 0 -29.412942 71.444128)" gradientUnits="userSpaceOnUse" r="58.0992"><stop offset="0" stop-color="#f68a0c"/><stop offset=".846512" stop-color="#fab71c"/><stop offset="1" stop-color="#ffe42c"/></radialGradient><linearGradient id="b" gradientTransform="matrix(0 -1 1 0 -.85977 1.861948)" gradientUnits="objectBoundingBox" x1=".501089" x2="1.95885" y1="1.36086" y2="1.36086"><stop offset="0" stop-color="#fff"/><stop offset=".0603448" stop-color="#ffe17f"/><stop offset=".469767" stop-color="#ffc400"/><stop offset=".89642" stop-color="#ffe17f"/><stop offset="1" stop-color="#fff"/></linearGradient><g stroke-linejoin="round"><path d="m40.7527 32.3008-15.2417-28.22168c-.978-1.90912-2.8509-3.02969-5.1026-2.92688-.7052.0322-2.9092.2292-4.0121 2.30434l-14.65553 26.73462c-.47428.7965-.965337 2.3992-.74077 3.6716.31076 1.7608 1.60668 2.9206 3.19649 3.4974l33.47631-.0138c1.1288-.4687 2.397-1.2859 2.9943-2.2595.4839-.7887.3753-1.9907.0856-2.7861z" fill="url(#b)" fill-rule="evenodd" stroke="url(#a)" stroke-linecap="round" stroke-width="2"/><path d="m40.8777 32.3075-15.2762-28.36569c-.9803-1.91886-2.8574-3.045144-5.1141-2.941812-.7069.032372-2.9159.230382-4.0213 2.316092l-14.68865 26.87101c-.47536.8005-.75371 2.2239-.52863 3.5028.31146 1.7698 1.3965 3.123 2.98991 3.7028l33.55207-.0139c1.1314-.4711 2.1837-1.3187 2.7824-2.2972.485-.7928.5948-1.9747.3045-2.7741z" fill="none" stroke="#000" stroke-linecap="round" stroke-width="2"/><path d="m19.4333 26.5717-1.2092-11.2907v-5.2171h5.0391v5.2171l-1.1923 11.2907zm-1.2092 5.9178v-4.3605h5.0391v4.3605z" fill="#fff" stroke="#937209"/></g></svg>