<svg enable-background="new 0 0 257.00 257.00" height="257" viewBox="0 0 257 257" width="257" xmlns="http://www.w3.org/2000/svg" xmlns:xlink="http://www.w3.org/1999/xlink"><linearGradient id="a" gradientTransform="matrix(.549294497441 .83562883811 -.83562883811 .549294497441 .216916702068 -.081915593813)" gradientUnits="objectBoundingBox" x1=".184396" x2="1.11201" y1=".160129" y2=".160129"><stop offset="0" stop-color="#b7c0b8"/><stop offset="1" stop-color="#fff"/></linearGradient><linearGradient id="b"><stop offset="0" stop-color="#87af06"/><stop offset="1" stop-color="#afd27b"/></linearGradient><linearGradient id="c" gradientTransform="matrix(0 -1 1 0 -2.006331 3.006331)" gradientUnits="objectBoundingBox" x1=".5" x2="4.51266" xlink:href="#b" y1="2.50633" y2="2.50633"/><linearGradient id="d"><stop offset="0" stop-color="#f4f5f3"/><stop offset="1" stop-color="#b7bdb0"/></linearGradient><linearGradient id="e" gradientTransform="matrix(0 -1 1 0 -2.11844 3.11844)" gradientUnits="objectBoundingBox" x1=".5" x2="4.73687" xlink:href="#d" y1="2.61844" y2="2.61844"/><linearGradient id="f" gradientTransform="matrix(0 -1 1 0 -2.006341 3.006341)" gradientUnits="objectBoundingBox" x1=".5" x2="4.51269" xlink:href="#b" y1="2.50634" y2="2.50634"/><linearGradient id="g"><stop offset="0" stop-color="#f4f5f3"/><stop offset="1" stop-color="#e5f8c9"/></linearGradient><linearGradient id="h" gradientTransform="matrix(0 -1 1 0 -2.118451 3.118451)" gradientUnits="objectBoundingBox" x1=".5" x2="4.73691" xlink:href="#g" y1="2.61845" y2="2.61845"/><linearGradient id="i" gradientTransform="matrix(0 -1 1 0 -2.11844 3.11844)" gradientUnits="objectBoundingBox" x1=".5" x2="4.73688" xlink:href="#d" y1="2.61844" y2="2.61844"/><linearGradient id="j" gradientTransform="matrix(0 -1 1 0 -2.006323 3.006325)" gradientUnits="objectBoundingBox" x1=".500001" x2="4.51266" xlink:href="#b" y1="2.50632" y2="2.50632"/><linearGradient id="k" gradientTransform="matrix(0 -1 1 0 -2.118432 3.118434)" gradientUnits="objectBoundingBox" x1=".500001" x2="4.73687" xlink:href="#g" y1="2.61843" y2="2.61843"/><linearGradient id="l" gradientTransform="matrix(0 -1 1 0 -2.118451 3.118451)" gradientUnits="objectBoundingBox" x1=".5" x2="4.73691" xlink:href="#d" y1="2.61845" y2="2.61845"/><linearGradient id="m"><stop offset="0" stop-color="#3f542a"/><stop offset=".474419" stop-color="#d0d5cb"/><stop offset="1" stop-color="#0f1505"/></linearGradient><linearGradient id="n" gradientTransform="matrix(0 -1 1 0 -2.014261 3.014261)" gradientUnits="objectBoundingBox" x1=".5" x2="4.52854" xlink:href="#m" y1="2.51426" y2="2.51426"/><linearGradient id="o"><stop offset="0" stop-color="#daf5bf"/><stop offset="1" stop-color="#1d2314"/></linearGradient><linearGradient id="p" gradientTransform="matrix(0 -1 1 0 -2.203097 3.203097)" gradientUnits="objectBoundingBox" x1=".5" x2="4.90622" xlink:href="#o" y1="2.7031" y2="2.7031"/><filter id="q" filterUnits="userSpaceOnUse"><feGaussianBlur stdDeviation="2.64567"/></filter><filter id="r" filterUnits="userSpaceOnUse"><feGaussianBlur stdDeviation="3.02362"/></filter><linearGradient id="s" gradientTransform="matrix(0 -1 1 0 -2.014218 3.01422)" gradientUnits="objectBoundingBox" x1=".500001" x2="4.52854" xlink:href="#m" y1="2.51422" y2="2.51422"/><linearGradient id="t" gradientTransform="matrix(0 -1 1 0 -2.20305 3.203052)" gradientUnits="objectBoundingBox" x1=".500001" x2="4.90622" xlink:href="#o" y1="2.70305" y2="2.70305"/><linearGradient id="u" gradientTransform="matrix(0 -1 1 0 -2.014251 3.014251)" gradientUnits="objectBoundingBox" x1=".5" x2="4.52846" xlink:href="#m" y1="2.51425" y2="2.51425"/><linearGradient id="v" gradientTransform="matrix(0 -1 1 0 -2.203081 3.203081)" gradientUnits="objectBoundingBox" x1=".5" x2="4.90612" xlink:href="#o" y1="2.70308" y2="2.70308"/><linearGradient id="w" gradientTransform="matrix(0 -1 1 0 -2.01419 3.014186)" gradientUnits="objectBoundingBox" x1=".499998" x2="4.52846" xlink:href="#m" y1="2.51419" y2="2.51419"/><linearGradient id="x" gradientTransform="matrix(0 -1 1 0 -2.203014 3.20301)" gradientUnits="objectBoundingBox" x1=".499998" x2="4.90611" xlink:href="#o" y1="2.70301" y2="2.70301"/><linearGradient id="y" gradientTransform="matrix(0 -1 1 0 -2.014282 3.014282)" gradientUnits="objectBoundingBox" x1=".5" x2="4.52854" xlink:href="#m" y1="2.51428" y2="2.51428"/><linearGradient id="z" gradientTransform="matrix(0 -1 1 0 -2.20312 3.20312)" gradientUnits="objectBoundingBox" x1=".5" x2="4.90622" xlink:href="#o" y1="2.70312" y2="2.70312"/><linearGradient id="A" gradientTransform="matrix(0 -1 1 0 -2.01425 3.014252)" gradientUnits="objectBoundingBox" x1=".500001" x2="4.52863" xlink:href="#m" y1="2.51425" y2="2.51425"/><linearGradient id="B" gradientTransform="matrix(0 -1 1 0 -2.203089 3.203091)" gradientUnits="objectBoundingBox" x1=".500001" x2="4.90632" xlink:href="#o" y1="2.70309" y2="2.70309"/><linearGradient id="C" gradientTransform="matrix(0 -1 1 0 -2.014302 3.014304)" gradientUnits="objectBoundingBox" x1=".500001" x2="4.52854" xlink:href="#m" y1="2.5143" y2="2.5143"/><linearGradient id="D" gradientTransform="matrix(0 -1 1 0 -2.203141 3.203143)" gradientUnits="objectBoundingBox" x1=".500001" x2="4.90622" xlink:href="#o" y1="2.70314" y2="2.70314"/><linearGradient id="E" gradientTransform="matrix(0 -1 1 0 -2.014251 3.014251)" gradientUnits="objectBoundingBox" x1=".5" x2="4.52863" xlink:href="#m" y1="2.51425" y2="2.51425"/><linearGradient id="F" gradientTransform="matrix(0 -1 1 0 -2.20309 3.20309)" gradientUnits="objectBoundingBox" x1=".5" x2="4.90632" xlink:href="#o" y1="2.70309" y2="2.70309"/><linearGradient id="G"><stop offset=".0186047" stop-color="#e3d191"/><stop offset=".55814" stop-color="#e2af00"/><stop offset=".787252" stop-color="#ab7800"/><stop offset="1" stop-color="#744100"/></linearGradient><linearGradient id="H" gradientUnits="objectBoundingBox" x1="0" x2="1" xlink:href="#G" y1=".500001" y2=".500001"/><linearGradient id="I" gradientTransform="matrix(.96110325319 .276189313167 -.276189313167 .96110325319 .112568622582 -.024686078063)" gradientUnits="objectBoundingBox" x1=".143927" x2="1.07375" y1=".387308" y2=".387308"><stop offset=".0186047" stop-color="#cebe83"/><stop offset=".55814" stop-color="#c79c07"/><stop offset=".787252" stop-color="#8f6604"/><stop offset="1" stop-color="#573101"/></linearGradient><linearGradient id="J" gradientTransform="matrix(.965924249753 .258824928744 -.258824928744 .965924249753 .099962640719 -.018101770159)" gradientUnits="objectBoundingBox" x1=".118728" x2="1.11874" xlink:href="#G" y1=".370586" y2=".370586"/><linearGradient id="K"><stop offset=".0186047" stop-color="#d7b77e"/><stop offset=".55814" stop-color="#d4b780"/><stop offset=".787252" stop-color="#d7bc89"/><stop offset="1" stop-color="#dbc292"/></linearGradient><linearGradient id="L" gradientUnits="objectBoundingBox" x1=".00729997" x2=".992701" xlink:href="#K" y1=".500002" y2=".500002"/><linearGradient id="M" gradientUnits="objectBoundingBox" x1="-.014285" x2="1.01429" xlink:href="#K" y1=".500003" y2=".500003"/><linearGradient id="N"><stop offset=".0186047" stop-color="#e5d5b4"/><stop offset="1" stop-color="#efe4d0"/></linearGradient><linearGradient id="O" gradientUnits="objectBoundingBox" x1=".00854882" x2=".991453" xlink:href="#N" y1=".485936" y2=".485936"/><linearGradient id="P" gradientUnits="objectBoundingBox" x1="-.016852" x2="1.01685" xlink:href="#N" y1=".484029" y2=".484029"/><linearGradient id="Q" gradientUnits="objectBoundingBox" x1=".0152088" x2=".984791" xlink:href="#N" y1=".499997" y2=".499997"/><linearGradient id="R" gradientUnits="objectBoundingBox" x1="-.0312503" x2="1.03125" xlink:href="#N" y1=".499997" y2=".499997"/><linearGradient id="S"><stop offset=".0186047" stop-color="#d9bf8d"/><stop offset="1" stop-color="#d7b77e"/></linearGradient><linearGradient id="T" gradientUnits="objectBoundingBox" x1=".0574599" x2=".988879" xlink:href="#S" y1=".485392" y2=".485392"/><linearGradient id="U" gradientUnits="objectBoundingBox" x1=".0272269" x2="1.02228" xlink:href="#S" y1=".484616" y2=".484616"/><linearGradient id="V"><stop offset=".0186047" stop-color="#e7d7b9"/><stop offset="1" stop-color="#eee2cd"/></linearGradient><linearGradient id="W" gradientUnits="objectBoundingBox" x1=".0100081" x2=".989992" xlink:href="#V" y1=".484729" y2=".484729"/><linearGradient id="X" gradientUnits="objectBoundingBox" x1="-.0199117" x2="1.01991" xlink:href="#V" y1=".48315" y2=".48315"/><linearGradient id="Y" gradientUnits="objectBoundingBox" x1=".0160211" x2=".983979" xlink:href="#V" y1=".5" y2=".5"/><linearGradient id="Z" gradientUnits="objectBoundingBox" x1="-.0330886" x2="1.03309" xlink:href="#V" y1=".5" y2=".5"/><g stroke-linejoin="round"><path d="m18.7463 6.56088h189.9997c2.21 0 4 1.79077 4 4.00002v227.3331c0 2.209-1.79 4-4 4h-189.9997c-2.2091 0-4-1.791-4-4v-227.3331c0-2.20925 1.7909-4.00002 4-4.00002z" fill="url(#a)" stroke="#036400" stroke-width="5"/><path d="m40.2463 23.5609h147.9997c2.209 0 4 1.791 4 4v27.7925c0 2.2089-1.791 4-4 4h-147.9997c-2.2091 0-4-1.7911-4-4v-27.7925c0-2.209 1.7909-4 4-4z" fill="url(#e)" stroke="url(#c)" stroke-width="2"/><path d="m40.2463 64.2989h147.9997c2.209 0 4 1.7908 4 3.9998v27.7925c0 2.2089-1.791 3.9998-4 3.9998h-147.9997c-2.2091 0-4-1.7909-4-3.9998v-27.7925c0-2.209 1.7909-3.9998 4-3.9998z" fill="url(#h)" stroke="url(#f)" stroke-width="2"/><path d="m40.7463 105.743h147.9997c2.209 0 4 1.791 4 4v27.792c0 2.209-1.791 4-4 4h-147.9997c-2.2091 0-4-1.791-4-4v-27.792c0-2.209 1.7909-4 4-4z" fill="url(#i)" stroke="url(#c)" stroke-width="2"/><path d="m41.0796 146.559h148.0004c2.209 0 4 1.791 4 4v27.793c0 2.209-1.791 4-4 4h-148.0004c-2.2091 0-4-1.791-4-4v-27.793c0-2.209 1.7909-4 4-4z" fill="url(#k)" stroke="url(#j)" stroke-width="2"/><path d="m40.7463 187.768h147.9997c2.209 0 4 1.791 4 4v27.792c0 2.21-1.791 4.001-4 4.001h-147.9997c-2.2091 0-4-1.791-4-4.001v-27.792c0-2.209 1.7909-4 4-4z" fill="url(#l)" stroke="url(#f)" stroke-width="2"/><g fill="url(#p)" stroke="url(#n)"><path d="m52.0796 36.7276h38c1.1046 0 2 .8955 2 2v6.6668c0 1.1045-.8954 2-2 2h-38c-1.1046 0-2-.8955-2-2v-6.6668c0-1.1045.8954-2 2-2z" filter="url(#q)"/><path d="m99.913 36.5191h27.75c1.105 0 2 .8955 2 2v6.6668c0 1.1045-.895 2-2 2h-27.75c-1.1047 0-2-.8955-2-2v-6.6668c0-1.1045.8953-2 2-2z" filter="url(#r)"/><path d="m137.996 36.5609h38c1.105 0 2 .8955 2 2v6.6667c0 1.1045-.895 2-2 2h-38c-1.104 0-2-.8955-2-2v-6.6667c0-1.1045.896-2 2-2z" filter="url(#r)"/><path d="m51.0021 118.259h38c1.1046 0 2 .895 2 2v6.667c0 1.104-.8954 2-2 2h-38c-1.1045 0-2-.896-2-2v-6.667c0-1.105.8955-2 2-2z" filter="url(#q)"/><path d="m98.8354 118.05h27.7496c1.105 0 2 .896 2 2v6.667c0 1.105-.895 2-2 2h-27.7496c-1.1045 0-2-.895-2-2v-6.667c0-1.104.8955-2 2-2z" filter="url(#r)"/><path d="m136.919 118.092h38c1.104 0 2 .896 2 2v6.667c0 1.104-.896 2-2 2h-38c-1.105 0-2-.896-2-2v-6.667c0-1.104.895-2 2-2z" filter="url(#r)"/><path d="m52.0021 200.259h38c1.1046 0 2 .895 2 2v6.667c0 1.104-.8954 2-2 2h-38c-1.1045 0-2-.896-2-2v-6.667c0-1.105.8955-2 2-2z" filter="url(#q)"/><path d="m99.8354 200.05h27.7496c1.105 0 2 .896 2 2v6.667c0 1.105-.895 2-2 2h-27.7496c-1.1045 0-2-.895-2-2v-6.667c0-1.104.8955-2 2-2z" filter="url(#r)"/><path d="m137.919 200.092h38c1.104 0 2 .896 2 2v6.667c0 1.104-.896 2-2 2h-38c-1.105 0-2-.896-2-2v-6.667c0-1.104.895-2 2-2z" filter="url(#r)"/></g><path d="m73.0021 78.9259h36.1599c1.105 0 2 .8955 2 2v6.6667c0 1.1045-.895 2-2 2h-36.1599c-1.1045 0-2-.8955-2-2v-6.6667c0-1.1045.8955-2 2-2z" fill="url(#t)" filter="url(#q)" stroke="url(#s)"/><path d="m122.829 78.7166h30.333c1.105 0 2 .8956 2 2v6.667c0 1.1045-.895 2-2 2h-30.333c-1.104 0-2-.8955-2-2v-6.667c0-1.1044.896-2 2-2z" fill="url(#v)" filter="url(#r)" stroke="url(#u)"/><path d="m161.996 78.7591h14.666c1.105 0 2 .8955 2 2v6.667c0 1.1045-.895 2-2 2h-14.666c-1.105 0-2-.8955-2-2v-6.667c0-1.1045.895-2 2-2z" fill="url(#x)" filter="url(#r)" stroke="url(#w)"/><path d="m51.558 79.1014h12.6045c1.1045 0 2 .8955 2 2v6.6668c0 1.1045-.8955 2-2 2h-12.6045c-1.1045 0-2-.8955-2-2v-6.6668c0-1.1045.8955-2 2-2z" fill="url(#z)" filter="url(#r)" stroke="url(#y)"/><path d="m72.9247 159.124h36.1603c1.104 0 2 .896 2 2v6.667c0 1.104-.896 2-2 2h-36.1603c-1.1046 0-2-.896-2-2v-6.667c0-1.104.8954-2 2-2z" fill="url(#B)" filter="url(#q)" stroke="url(#A)"/><path d="m122.752 158.915h30.333c1.105 0 2 .895 2 2v6.666c0 1.105-.895 2-2 2h-30.333c-1.105 0-2-.895-2-2v-6.666c0-1.105.895-2 2-2z" fill="url(#D)" filter="url(#r)" stroke="url(#C)"/><path d="m161.918 158.957h14.667c1.105 0 2 .896 2 2v6.667c0 1.104-.895 2-2 2h-14.667c-1.104 0-2-.896-2-2v-6.667c0-1.104.896-2 2-2z" fill="url(#F)" filter="url(#r)" stroke="url(#E)"/><path d="m51.4806 159.299h12.6045c1.1045 0 2 .896 2 2v6.667c0 1.105-.8955 2-2 2h-12.6045c-1.1046 0-2-.895-2-2v-6.667c0-1.104.8954-2 2-2z" fill="url(#v)" filter="url(#r)" stroke="url(#u)"/><path d="m161.42 107.222h.559c12.703 0 23 10.297 23 23v98.091c0 12.703-10.297 23-23 23h-.559c-12.703 0-23-10.297-23-23v-98.091c0-12.703 10.297-23 23-23z" fill="#8f919a" stroke="#ababbd" stroke-width=".2"/><path d="m162.063 107.222c13.057 0 23.643 4.843 23.643 10.816s-10.586 10.816-23.643 10.816c-13.058 0-23.644-4.843-23.644-10.816s10.586-10.816 23.644-10.816z" fill="#8f919a" stroke="#ababbd" stroke-width="3"/><path d="m170.065 137.227v41.867l54.561 9.769 21.825-11.863-20.006-25.818z" fill="#8f919a" stroke="#ababbd" stroke-width="3"/><path d="m170.429 135.831 4.092-.814 6.184-2.617 3.637-3.14 1.819-3.14 49.014 10.409-10.185 13.258z" fill="#8f919a" stroke="#ababbd" stroke-width="3"/><path d="m235.175 136.529 24.007 29.307-12.367 11.862-22.552-27.911z" fill="#8f919a" stroke="#ababbd" stroke-width="3"/><path d="m158.304 137.692-32.979 23.724-16.005 35.355 23.765 1.395 25.219-20.933z" fill="#8f919a" stroke="#ababbd" stroke-width="3"/><path d="m124.84 161.416-20.854-7.443 33.464-23.259.515-.349 3.092 3.489 6.578 2.442 11.154.466z" fill="#8f919a" stroke="#ababbd" stroke-width="3"/><path d="m103.986 153.973-12.1252 31.633 16.9742 11.165 16.005-34.424z" fill="#8f919a" stroke="#ababbd" stroke-width="3"/><path d="m165.29 111.635 0 0c11.526 0 20.87 9.343 20.87 20.869v92.935c0 11.526-9.344 20.87-20.87 20.87l0 0c-11.526 0-20.869-9.344-20.869-20.87v-92.935c0-11.526 9.343-20.869 20.869-20.869z" fill="url(#H)" stroke-width=".2"/><path d="m165.616 111.635c11.706 0 21.196 4.526 21.196 10.109s-9.49 10.109-21.196 10.109-21.195-4.526-21.195-10.109 9.49-10.109 21.195-10.109z" fill="url(#J)" stroke="url(#I)" stroke-width="3"/><path d="m172.79 139.679v39.13l48.913 9.131 19.566-11.087-17.935-24.131z" fill="url(#M)" stroke="url(#L)" stroke-width="3"/><path d="m173.116 138.374 3.669-.761 5.544-2.445 3.26-2.935 1.631-2.935 43.94 9.728-9.13 12.392z" fill="url(#P)" stroke="url(#O)" stroke-width="3"/><path d="m231.16 139.026 21.522 27.392-11.087 11.087-20.218-26.087z" fill="url(#R)" stroke="url(#Q)" stroke-width="3"/><path d="m162.247 140.113-29.565 22.174-14.348 33.044 21.304 1.304 22.609-19.565z" fill="url(#U)" stroke="url(#T)" stroke-width="3"/><path d="m132.247 162.287-18.696-6.956 30-21.739.462-.327 2.772 3.261 5.897 2.283 10 .435z" fill="url(#X)" stroke="url(#W)" stroke-width="3"/><path d="m113.551 155.331-10.869 29.565 15.217 10.435 14.348-32.174z" fill="url(#Z)" stroke="url(#Y)" stroke-width="3"/></g></svg>