<?xml version="1.0" encoding="utf-8"?>
<!DOCTYPE svg PUBLIC "-//W3C//DTD SVG 1.1//EN" "http://www.w3.org/Graphics/SVG/1.1/DTD/svg11.dtd">
<svg xmlns="http://www.w3.org/2000/svg" xmlns:xlink="http://www.w3.org/1999/xlink" version="1.1" baseProfile="full" width="257" height="257" viewBox="0 0 257.00 257.00" enable-background="new 0 0 257.00 257.00" xml:space="preserve">
	<linearGradient id="SVGID_Fill1_" gradientUnits="objectBoundingBox" x1="0.184396" y1="0.160129" x2="1.11201" y2="0.160129" gradientTransform="rotate(56.681374 0.184396 0.160129)">
		<stop offset="0" stop-color="#B7C0B8" stop-opacity="1"/>
		<stop offset="1" stop-color="#FFFFFF" stop-opacity="1"/>
	</linearGradient>
	<path fill="url(#SVGID_Fill1_)" stroke-width="5" stroke-linejoin="round" stroke="#036400" stroke-opacity="1" d="M 18.7463,6.56088L 208.746,6.56088C 210.956,6.56088 212.746,8.35165 212.746,10.5609L 212.746,237.894C 212.746,240.103 210.956,241.894 208.746,241.894L 18.7463,241.894C 16.5372,241.894 14.7463,240.103 14.7463,237.894L 14.7463,10.5609C 14.7463,8.35165 16.5372,6.56088 18.7463,6.56088 Z "/>
	<linearGradient id="SVGID_Stroke1_" gradientUnits="objectBoundingBox" x1="0.5" y1="2.50633" x2="4.51266" y2="2.50633" gradientTransform="rotate(-90.000000 0.500000 2.506331)">
		<stop offset="0" stop-color="#87AF06" stop-opacity="1"/>
		<stop offset="1" stop-color="#AFD27B" stop-opacity="1"/>
	</linearGradient>
	<linearGradient id="SVGID_Fill2_" gradientUnits="objectBoundingBox" x1="0.5" y1="2.61844" x2="4.73687" y2="2.61844" gradientTransform="rotate(-90.000000 0.500000 2.618440)">
		<stop offset="0" stop-color="#F4F5F3" stop-opacity="1"/>
		<stop offset="1" stop-color="#B7BDB0" stop-opacity="1"/>
	</linearGradient>
	<path fill="url(#SVGID_Fill2_)" stroke-width="2" stroke-linejoin="round" stroke="url(#SVGID_Stroke1_)" d="M 40.2463,23.5609L 188.246,23.5609C 190.455,23.5609 192.246,25.3519 192.246,27.5609L 192.246,55.3534C 192.246,57.5623 190.455,59.3534 188.246,59.3534L 40.2463,59.3534C 38.0372,59.3534 36.2463,57.5623 36.2463,55.3534L 36.2463,27.5609C 36.2463,25.3519 38.0372,23.5609 40.2463,23.5609 Z "/>
	<linearGradient id="SVGID_Stroke2_" gradientUnits="objectBoundingBox" x1="0.5" y1="2.50634" x2="4.51269" y2="2.50634" gradientTransform="rotate(-90.000000 0.500000 2.506341)">
		<stop offset="0" stop-color="#87AF06" stop-opacity="1"/>
		<stop offset="1" stop-color="#AFD27B" stop-opacity="1"/>
	</linearGradient>
	<linearGradient id="SVGID_Fill3_" gradientUnits="objectBoundingBox" x1="0.5" y1="2.61845" x2="4.73691" y2="2.61845" gradientTransform="rotate(-90.000000 0.500000 2.618451)">
		<stop offset="0" stop-color="#F4F5F3" stop-opacity="1"/>
		<stop offset="1" stop-color="#E5F8C9" stop-opacity="1"/>
	</linearGradient>
	<path fill="url(#SVGID_Fill3_)" stroke-width="2" stroke-linejoin="round" stroke="url(#SVGID_Stroke2_)" d="M 40.2463,64.2989L 188.246,64.2989C 190.455,64.2989 192.246,66.0897 192.246,68.2987L 192.246,96.0912C 192.246,98.3001 190.455,100.091 188.246,100.091L 40.2463,100.091C 38.0372,100.091 36.2463,98.3001 36.2463,96.0912L 36.2463,68.2987C 36.2463,66.0897 38.0372,64.2989 40.2463,64.2989 Z "/>
	<linearGradient id="SVGID_Stroke3_" gradientUnits="objectBoundingBox" x1="0.5" y1="2.50633" x2="4.51266" y2="2.50633" gradientTransform="rotate(-90.000000 0.500000 2.506331)">
		<stop offset="0" stop-color="#87AF06" stop-opacity="1"/>
		<stop offset="1" stop-color="#AFD27B" stop-opacity="1"/>
	</linearGradient>
	<linearGradient id="SVGID_Fill4_" gradientUnits="objectBoundingBox" x1="0.5" y1="2.61844" x2="4.73688" y2="2.61844" gradientTransform="rotate(-90.000000 0.500000 2.618440)">
		<stop offset="0" stop-color="#F4F5F3" stop-opacity="1"/>
		<stop offset="1" stop-color="#B7BDB0" stop-opacity="1"/>
	</linearGradient>
	<path fill="url(#SVGID_Fill4_)" stroke-width="2" stroke-linejoin="round" stroke="url(#SVGID_Stroke3_)" d="M 40.7463,105.743L 188.746,105.743C 190.955,105.743 192.746,107.534 192.746,109.743L 192.746,137.535C 192.746,139.744 190.955,141.535 188.746,141.535L 40.7463,141.535C 38.5372,141.535 36.7463,139.744 36.7463,137.535L 36.7463,109.743C 36.7463,107.534 38.5372,105.743 40.7463,105.743 Z "/>
	<linearGradient id="SVGID_Stroke4_" gradientUnits="objectBoundingBox" x1="0.500001" y1="2.50632" x2="4.51266" y2="2.50632" gradientTransform="rotate(-90.000000 0.500001 2.506324)">
		<stop offset="0" stop-color="#87AF06" stop-opacity="1"/>
		<stop offset="1" stop-color="#AFD27B" stop-opacity="1"/>
	</linearGradient>
	<linearGradient id="SVGID_Fill5_" gradientUnits="objectBoundingBox" x1="0.500001" y1="2.61843" x2="4.73687" y2="2.61843" gradientTransform="rotate(-90.000000 0.500001 2.618433)">
		<stop offset="0" stop-color="#F4F5F3" stop-opacity="1"/>
		<stop offset="1" stop-color="#E5F8C9" stop-opacity="1"/>
	</linearGradient>
	<path fill="url(#SVGID_Fill5_)" stroke-width="2" stroke-linejoin="round" stroke="url(#SVGID_Stroke4_)" d="M 41.0796,146.559L 189.08,146.559C 191.289,146.559 193.08,148.35 193.08,150.559L 193.08,178.352C 193.08,180.561 191.289,182.352 189.08,182.352L 41.0796,182.352C 38.8705,182.352 37.0796,180.561 37.0796,178.352L 37.0796,150.559C 37.0796,148.35 38.8705,146.559 41.0796,146.559 Z "/>
	<linearGradient id="SVGID_Stroke5_" gradientUnits="objectBoundingBox" x1="0.5" y1="2.50634" x2="4.51269" y2="2.50634" gradientTransform="rotate(-90.000000 0.500000 2.506341)">
		<stop offset="0" stop-color="#87AF06" stop-opacity="1"/>
		<stop offset="1" stop-color="#AFD27B" stop-opacity="1"/>
	</linearGradient>
	<linearGradient id="SVGID_Fill6_" gradientUnits="objectBoundingBox" x1="0.5" y1="2.61845" x2="4.73691" y2="2.61845" gradientTransform="rotate(-90.000000 0.500000 2.618451)">
		<stop offset="0" stop-color="#F4F5F3" stop-opacity="1"/>
		<stop offset="1" stop-color="#B7BDB0" stop-opacity="1"/>
	</linearGradient>
	<path fill="url(#SVGID_Fill6_)" stroke-width="2" stroke-linejoin="round" stroke="url(#SVGID_Stroke5_)" d="M 40.7463,187.768L 188.746,187.768C 190.955,187.768 192.746,189.559 192.746,191.768L 192.746,219.56C 192.746,221.77 190.955,223.561 188.746,223.561L 40.7463,223.561C 38.5372,223.561 36.7463,221.77 36.7463,219.56L 36.7463,191.768C 36.7463,189.559 38.5372,187.768 40.7463,187.768 Z "/>
	<linearGradient id="SVGID_Stroke6_" gradientUnits="objectBoundingBox" x1="0.5" y1="2.51426" x2="4.52854" y2="2.51426" gradientTransform="rotate(-90.000000 0.500000 2.514261)">
		<stop offset="0" stop-color="#3F542A" stop-opacity="1"/>
		<stop offset="0.474419" stop-color="#D0D5CB" stop-opacity="1"/>
		<stop offset="1" stop-color="#0F1505" stop-opacity="1"/>
	</linearGradient>
	<linearGradient id="SVGID_Fill7_" gradientUnits="objectBoundingBox" x1="0.5" y1="2.7031" x2="4.90622" y2="2.7031" gradientTransform="rotate(-90.000000 0.500000 2.703097)">
		<stop offset="0" stop-color="#DAF5BF" stop-opacity="1"/>
		<stop offset="1" stop-color="#1D2314" stop-opacity="1"/>
	</linearGradient>
	<filter id="Filter_GaussianBlur1_" filterUnits="userSpaceOnUse">
		<feGaussianBlur stdDeviation="2.64567"/>
	</filter>
	<path fill="url(#SVGID_Fill7_)" stroke-linejoin="round" stroke="url(#SVGID_Stroke6_)" filter="url(#Filter_GaussianBlur1_)" d="M 52.0796,36.7276L 90.0796,36.7276C 91.1842,36.7276 92.0796,37.6231 92.0796,38.7276L 92.0796,45.3944C 92.0796,46.4989 91.1842,47.3944 90.0796,47.3944L 52.0796,47.3944C 50.975,47.3944 50.0796,46.4989 50.0796,45.3944L 50.0796,38.7276C 50.0796,37.6231 50.975,36.7276 52.0796,36.7276 Z "/>
	<linearGradient id="SVGID_Stroke7_" gradientUnits="objectBoundingBox" x1="0.5" y1="2.51426" x2="4.52854" y2="2.51426" gradientTransform="rotate(-90.000000 0.500000 2.514261)">
		<stop offset="0" stop-color="#3F542A" stop-opacity="1"/>
		<stop offset="0.474419" stop-color="#D0D5CB" stop-opacity="1"/>
		<stop offset="1" stop-color="#0F1505" stop-opacity="1"/>
	</linearGradient>
	<linearGradient id="SVGID_Fill8_" gradientUnits="objectBoundingBox" x1="0.5" y1="2.7031" x2="4.90622" y2="2.7031" gradientTransform="rotate(-90.000000 0.500000 2.703097)">
		<stop offset="0" stop-color="#DAF5BF" stop-opacity="1"/>
		<stop offset="1" stop-color="#1D2314" stop-opacity="1"/>
	</linearGradient>
	<filter id="Filter_GaussianBlur2_" filterUnits="userSpaceOnUse">
		<feGaussianBlur stdDeviation="3.02362"/>
	</filter>
	<path fill="url(#SVGID_Fill8_)" stroke-linejoin="round" stroke="url(#SVGID_Stroke7_)" filter="url(#Filter_GaussianBlur2_)" d="M 99.913,36.5191L 127.663,36.5191C 128.768,36.5191 129.663,37.4146 129.663,38.5191L 129.663,45.1859C 129.663,46.2904 128.768,47.1859 127.663,47.1859L 99.913,47.1859C 98.8083,47.1859 97.913,46.2904 97.913,45.1859L 97.913,38.5191C 97.913,37.4146 98.8083,36.5191 99.913,36.5191 Z "/>
	<linearGradient id="SVGID_Stroke8_" gradientUnits="objectBoundingBox" x1="0.5" y1="2.51426" x2="4.52854" y2="2.51426" gradientTransform="rotate(-90.000000 0.500000 2.514261)">
		<stop offset="0" stop-color="#3F542A" stop-opacity="1"/>
		<stop offset="0.474419" stop-color="#D0D5CB" stop-opacity="1"/>
		<stop offset="1" stop-color="#0F1505" stop-opacity="1"/>
	</linearGradient>
	<linearGradient id="SVGID_Fill9_" gradientUnits="objectBoundingBox" x1="0.5" y1="2.7031" x2="4.90622" y2="2.7031" gradientTransform="rotate(-90.000000 0.500000 2.703097)">
		<stop offset="0" stop-color="#DAF5BF" stop-opacity="1"/>
		<stop offset="1" stop-color="#1D2314" stop-opacity="1"/>
	</linearGradient>
	<filter id="Filter_GaussianBlur3_" filterUnits="userSpaceOnUse">
		<feGaussianBlur stdDeviation="3.02362"/>
	</filter>
	<path fill="url(#SVGID_Fill9_)" stroke-linejoin="round" stroke="url(#SVGID_Stroke8_)" filter="url(#Filter_GaussianBlur3_)" d="M 137.996,36.5609L 175.996,36.5609C 177.101,36.5609 177.996,37.4564 177.996,38.5609L 177.996,45.2276C 177.996,46.3321 177.101,47.2276 175.996,47.2276L 137.996,47.2276C 136.892,47.2276 135.996,46.3321 135.996,45.2276L 135.996,38.5609C 135.996,37.4564 136.892,36.5609 137.996,36.5609 Z "/>
	<linearGradient id="SVGID_Stroke9_" gradientUnits="objectBoundingBox" x1="0.5" y1="2.51426" x2="4.52854" y2="2.51426" gradientTransform="rotate(-90.000000 0.500000 2.514261)">
		<stop offset="0" stop-color="#3F542A" stop-opacity="1"/>
		<stop offset="0.474419" stop-color="#D0D5CB" stop-opacity="1"/>
		<stop offset="1" stop-color="#0F1505" stop-opacity="1"/>
	</linearGradient>
	<linearGradient id="SVGID_Fill10_" gradientUnits="objectBoundingBox" x1="0.5" y1="2.7031" x2="4.90622" y2="2.7031" gradientTransform="rotate(-90.000000 0.500000 2.703097)">
		<stop offset="0" stop-color="#DAF5BF" stop-opacity="1"/>
		<stop offset="1" stop-color="#1D2314" stop-opacity="1"/>
	</linearGradient>
	<filter id="Filter_GaussianBlur4_" filterUnits="userSpaceOnUse">
		<feGaussianBlur stdDeviation="2.64567"/>
	</filter>
	<path fill="url(#SVGID_Fill10_)" stroke-linejoin="round" stroke="url(#SVGID_Stroke9_)" filter="url(#Filter_GaussianBlur4_)" d="M 51.0021,118.259L 89.0021,118.259C 90.1067,118.259 91.0021,119.154 91.0021,120.259L 91.0021,126.926C 91.0021,128.03 90.1067,128.926 89.0021,128.926L 51.0021,128.926C 49.8976,128.926 49.0021,128.03 49.0021,126.926L 49.0021,120.259C 49.0021,119.154 49.8976,118.259 51.0021,118.259 Z "/>
	<linearGradient id="SVGID_Stroke10_" gradientUnits="objectBoundingBox" x1="0.5" y1="2.51426" x2="4.52854" y2="2.51426" gradientTransform="rotate(-90.000000 0.500000 2.514261)">
		<stop offset="0" stop-color="#3F542A" stop-opacity="1"/>
		<stop offset="0.474419" stop-color="#D0D5CB" stop-opacity="1"/>
		<stop offset="1" stop-color="#0F1505" stop-opacity="1"/>
	</linearGradient>
	<linearGradient id="SVGID_Fill11_" gradientUnits="objectBoundingBox" x1="0.5" y1="2.7031" x2="4.90622" y2="2.7031" gradientTransform="rotate(-90.000000 0.500000 2.703097)">
		<stop offset="0" stop-color="#DAF5BF" stop-opacity="1"/>
		<stop offset="1" stop-color="#1D2314" stop-opacity="1"/>
	</linearGradient>
	<filter id="Filter_GaussianBlur5_" filterUnits="userSpaceOnUse">
		<feGaussianBlur stdDeviation="3.02362"/>
	</filter>
	<path fill="url(#SVGID_Fill11_)" stroke-linejoin="round" stroke="url(#SVGID_Stroke10_)" filter="url(#Filter_GaussianBlur5_)" d="M 98.8354,118.05L 126.585,118.05C 127.69,118.05 128.585,118.946 128.585,120.05L 128.585,126.717C 128.585,127.822 127.69,128.717 126.585,128.717L 98.8354,128.717C 97.7309,128.717 96.8354,127.822 96.8354,126.717L 96.8354,120.05C 96.8354,118.946 97.7309,118.05 98.8354,118.05 Z "/>
	<linearGradient id="SVGID_Stroke11_" gradientUnits="objectBoundingBox" x1="0.5" y1="2.51426" x2="4.52854" y2="2.51426" gradientTransform="rotate(-90.000000 0.500000 2.514261)">
		<stop offset="0" stop-color="#3F542A" stop-opacity="1"/>
		<stop offset="0.474419" stop-color="#D0D5CB" stop-opacity="1"/>
		<stop offset="1" stop-color="#0F1505" stop-opacity="1"/>
	</linearGradient>
	<linearGradient id="SVGID_Fill12_" gradientUnits="objectBoundingBox" x1="0.5" y1="2.7031" x2="4.90622" y2="2.7031" gradientTransform="rotate(-90.000000 0.500000 2.703097)">
		<stop offset="0" stop-color="#DAF5BF" stop-opacity="1"/>
		<stop offset="1" stop-color="#1D2314" stop-opacity="1"/>
	</linearGradient>
	<filter id="Filter_GaussianBlur6_" filterUnits="userSpaceOnUse">
		<feGaussianBlur stdDeviation="3.02362"/>
	</filter>
	<path fill="url(#SVGID_Fill12_)" stroke-linejoin="round" stroke="url(#SVGID_Stroke11_)" filter="url(#Filter_GaussianBlur6_)" d="M 136.919,118.092L 174.919,118.092C 176.023,118.092 176.919,118.988 176.919,120.092L 176.919,126.759C 176.919,127.863 176.023,128.759 174.919,128.759L 136.919,128.759C 135.814,128.759 134.919,127.863 134.919,126.759L 134.919,120.092C 134.919,118.988 135.814,118.092 136.919,118.092 Z "/>
	<linearGradient id="SVGID_Stroke12_" gradientUnits="objectBoundingBox" x1="0.5" y1="2.51426" x2="4.52854" y2="2.51426" gradientTransform="rotate(-90.000000 0.500000 2.514261)">
		<stop offset="0" stop-color="#3F542A" stop-opacity="1"/>
		<stop offset="0.474419" stop-color="#D0D5CB" stop-opacity="1"/>
		<stop offset="1" stop-color="#0F1505" stop-opacity="1"/>
	</linearGradient>
	<linearGradient id="SVGID_Fill13_" gradientUnits="objectBoundingBox" x1="0.5" y1="2.7031" x2="4.90622" y2="2.7031" gradientTransform="rotate(-90.000000 0.500000 2.703097)">
		<stop offset="0" stop-color="#DAF5BF" stop-opacity="1"/>
		<stop offset="1" stop-color="#1D2314" stop-opacity="1"/>
	</linearGradient>
	<filter id="Filter_GaussianBlur7_" filterUnits="userSpaceOnUse">
		<feGaussianBlur stdDeviation="2.64567"/>
	</filter>
	<path fill="url(#SVGID_Fill13_)" stroke-linejoin="round" stroke="url(#SVGID_Stroke12_)" filter="url(#Filter_GaussianBlur7_)" d="M 52.0021,200.259L 90.0021,200.259C 91.1067,200.259 92.0021,201.154 92.0021,202.259L 92.0021,208.926C 92.0021,210.03 91.1067,210.926 90.0021,210.926L 52.0021,210.926C 50.8976,210.926 50.0021,210.03 50.0021,208.926L 50.0021,202.259C 50.0021,201.154 50.8976,200.259 52.0021,200.259 Z "/>
	<linearGradient id="SVGID_Stroke13_" gradientUnits="objectBoundingBox" x1="0.5" y1="2.51426" x2="4.52854" y2="2.51426" gradientTransform="rotate(-90.000000 0.500000 2.514261)">
		<stop offset="0" stop-color="#3F542A" stop-opacity="1"/>
		<stop offset="0.474419" stop-color="#D0D5CB" stop-opacity="1"/>
		<stop offset="1" stop-color="#0F1505" stop-opacity="1"/>
	</linearGradient>
	<linearGradient id="SVGID_Fill14_" gradientUnits="objectBoundingBox" x1="0.5" y1="2.7031" x2="4.90622" y2="2.7031" gradientTransform="rotate(-90.000000 0.500000 2.703097)">
		<stop offset="0" stop-color="#DAF5BF" stop-opacity="1"/>
		<stop offset="1" stop-color="#1D2314" stop-opacity="1"/>
	</linearGradient>
	<filter id="Filter_GaussianBlur8_" filterUnits="userSpaceOnUse">
		<feGaussianBlur stdDeviation="3.02362"/>
	</filter>
	<path fill="url(#SVGID_Fill14_)" stroke-linejoin="round" stroke="url(#SVGID_Stroke13_)" filter="url(#Filter_GaussianBlur8_)" d="M 99.8354,200.05L 127.585,200.05C 128.69,200.05 129.585,200.946 129.585,202.05L 129.585,208.717C 129.585,209.822 128.69,210.717 127.585,210.717L 99.8354,210.717C 98.7309,210.717 97.8354,209.822 97.8354,208.717L 97.8354,202.05C 97.8354,200.946 98.7309,200.05 99.8354,200.05 Z "/>
	<linearGradient id="SVGID_Stroke14_" gradientUnits="objectBoundingBox" x1="0.5" y1="2.51426" x2="4.52854" y2="2.51426" gradientTransform="rotate(-90.000000 0.500000 2.514261)">
		<stop offset="0" stop-color="#3F542A" stop-opacity="1"/>
		<stop offset="0.474419" stop-color="#D0D5CB" stop-opacity="1"/>
		<stop offset="1" stop-color="#0F1505" stop-opacity="1"/>
	</linearGradient>
	<linearGradient id="SVGID_Fill15_" gradientUnits="objectBoundingBox" x1="0.5" y1="2.7031" x2="4.90622" y2="2.7031" gradientTransform="rotate(-90.000000 0.500000 2.703097)">
		<stop offset="0" stop-color="#DAF5BF" stop-opacity="1"/>
		<stop offset="1" stop-color="#1D2314" stop-opacity="1"/>
	</linearGradient>
	<filter id="Filter_GaussianBlur9_" filterUnits="userSpaceOnUse">
		<feGaussianBlur stdDeviation="3.02362"/>
	</filter>
	<path fill="url(#SVGID_Fill15_)" stroke-linejoin="round" stroke="url(#SVGID_Stroke14_)" filter="url(#Filter_GaussianBlur9_)" d="M 137.919,200.092L 175.919,200.092C 177.023,200.092 177.919,200.988 177.919,202.092L 177.919,208.759C 177.919,209.863 177.023,210.759 175.919,210.759L 137.919,210.759C 136.814,210.759 135.919,209.863 135.919,208.759L 135.919,202.092C 135.919,200.988 136.814,200.092 137.919,200.092 Z "/>
	<linearGradient id="SVGID_Stroke15_" gradientUnits="objectBoundingBox" x1="0.500001" y1="2.51422" x2="4.52854" y2="2.51422" gradientTransform="rotate(-90.000000 0.500001 2.514219)">
		<stop offset="0" stop-color="#3F542A" stop-opacity="1"/>
		<stop offset="0.474419" stop-color="#D0D5CB" stop-opacity="1"/>
		<stop offset="1" stop-color="#0F1505" stop-opacity="1"/>
	</linearGradient>
	<linearGradient id="SVGID_Fill16_" gradientUnits="objectBoundingBox" x1="0.500001" y1="2.70305" x2="4.90622" y2="2.70305" gradientTransform="rotate(-90.000000 0.500001 2.703051)">
		<stop offset="0" stop-color="#DAF5BF" stop-opacity="1"/>
		<stop offset="1" stop-color="#1D2314" stop-opacity="1"/>
	</linearGradient>
	<filter id="Filter_GaussianBlur10_" filterUnits="userSpaceOnUse">
		<feGaussianBlur stdDeviation="2.64567"/>
	</filter>
	<path fill="url(#SVGID_Fill16_)" stroke-linejoin="round" stroke="url(#SVGID_Stroke15_)" filter="url(#Filter_GaussianBlur10_)" d="M 73.0021,78.9259L 109.162,78.9259C 110.267,78.9259 111.162,79.8214 111.162,80.9259L 111.162,87.5926C 111.162,88.6971 110.267,89.5926 109.162,89.5926L 73.0021,89.5926C 71.8976,89.5926 71.0021,88.6971 71.0021,87.5926L 71.0021,80.9259C 71.0021,79.8214 71.8976,78.9259 73.0021,78.9259 Z "/>
	<linearGradient id="SVGID_Stroke16_" gradientUnits="objectBoundingBox" x1="0.5" y1="2.51425" x2="4.52846" y2="2.51425" gradientTransform="rotate(-90.000000 0.500000 2.514251)">
		<stop offset="0" stop-color="#3F542A" stop-opacity="1"/>
		<stop offset="0.474419" stop-color="#D0D5CB" stop-opacity="1"/>
		<stop offset="1" stop-color="#0F1505" stop-opacity="1"/>
	</linearGradient>
	<linearGradient id="SVGID_Fill17_" gradientUnits="objectBoundingBox" x1="0.5" y1="2.70308" x2="4.90612" y2="2.70308" gradientTransform="rotate(-90.000000 0.500000 2.703081)">
		<stop offset="0" stop-color="#DAF5BF" stop-opacity="1"/>
		<stop offset="1" stop-color="#1D2314" stop-opacity="1"/>
	</linearGradient>
	<filter id="Filter_GaussianBlur11_" filterUnits="userSpaceOnUse">
		<feGaussianBlur stdDeviation="3.02362"/>
	</filter>
	<path fill="url(#SVGID_Fill17_)" stroke-linejoin="round" stroke="url(#SVGID_Stroke16_)" filter="url(#Filter_GaussianBlur11_)" d="M 122.829,78.7166L 153.162,78.7166C 154.267,78.7166 155.162,79.6122 155.162,80.7166L 155.162,87.3836C 155.162,88.4881 154.267,89.3836 153.162,89.3836L 122.829,89.3836C 121.725,89.3836 120.829,88.4881 120.829,87.3836L 120.829,80.7166C 120.829,79.6122 121.725,78.7166 122.829,78.7166 Z "/>
	<linearGradient id="SVGID_Stroke17_" gradientUnits="objectBoundingBox" x1="0.499998" y1="2.51419" x2="4.52846" y2="2.51419" gradientTransform="rotate(-90.000000 0.499998 2.514188)">
		<stop offset="0" stop-color="#3F542A" stop-opacity="1"/>
		<stop offset="0.474419" stop-color="#D0D5CB" stop-opacity="1"/>
		<stop offset="1" stop-color="#0F1505" stop-opacity="1"/>
	</linearGradient>
	<linearGradient id="SVGID_Fill18_" gradientUnits="objectBoundingBox" x1="0.499998" y1="2.70301" x2="4.90611" y2="2.70301" gradientTransform="rotate(-90.000000 0.499998 2.703012)">
		<stop offset="0" stop-color="#DAF5BF" stop-opacity="1"/>
		<stop offset="1" stop-color="#1D2314" stop-opacity="1"/>
	</linearGradient>
	<filter id="Filter_GaussianBlur12_" filterUnits="userSpaceOnUse">
		<feGaussianBlur stdDeviation="3.02362"/>
	</filter>
	<path fill="url(#SVGID_Fill18_)" stroke-linejoin="round" stroke="url(#SVGID_Stroke17_)" filter="url(#Filter_GaussianBlur12_)" d="M 161.996,78.7591L 176.662,78.7591C 177.767,78.7591 178.662,79.6546 178.662,80.7591L 178.662,87.4261C 178.662,88.5306 177.767,89.4261 176.662,89.4261L 161.996,89.4261C 160.891,89.4261 159.996,88.5306 159.996,87.4261L 159.996,80.7591C 159.996,79.6546 160.891,78.7591 161.996,78.7591 Z "/>
	<linearGradient id="SVGID_Stroke18_" gradientUnits="objectBoundingBox" x1="0.5" y1="2.51428" x2="4.52854" y2="2.51428" gradientTransform="rotate(-90.000000 0.500000 2.514282)">
		<stop offset="0" stop-color="#3F542A" stop-opacity="1"/>
		<stop offset="0.474419" stop-color="#D0D5CB" stop-opacity="1"/>
		<stop offset="1" stop-color="#0F1505" stop-opacity="1"/>
	</linearGradient>
	<linearGradient id="SVGID_Fill19_" gradientUnits="objectBoundingBox" x1="0.5" y1="2.70312" x2="4.90622" y2="2.70312" gradientTransform="rotate(-90.000000 0.500000 2.703120)">
		<stop offset="0" stop-color="#DAF5BF" stop-opacity="1"/>
		<stop offset="1" stop-color="#1D2314" stop-opacity="1"/>
	</linearGradient>
	<filter id="Filter_GaussianBlur13_" filterUnits="userSpaceOnUse">
		<feGaussianBlur stdDeviation="3.02362"/>
	</filter>
	<path fill="url(#SVGID_Fill19_)" stroke-linejoin="round" stroke="url(#SVGID_Stroke18_)" filter="url(#Filter_GaussianBlur13_)" d="M 51.558,79.1014L 64.1625,79.1014C 65.267,79.1014 66.1625,79.9969 66.1625,81.1014L 66.1625,87.7682C 66.1625,88.8727 65.267,89.7682 64.1625,89.7682L 51.558,89.7682C 50.4535,89.7682 49.558,88.8727 49.558,87.7682L 49.558,81.1014C 49.558,79.9969 50.4535,79.1014 51.558,79.1014 Z "/>
	<linearGradient id="SVGID_Stroke19_" gradientUnits="objectBoundingBox" x1="0.500001" y1="2.51425" x2="4.52863" y2="2.51425" gradientTransform="rotate(-90.000000 0.500001 2.514251)">
		<stop offset="0" stop-color="#3F542A" stop-opacity="1"/>
		<stop offset="0.474419" stop-color="#D0D5CB" stop-opacity="1"/>
		<stop offset="1" stop-color="#0F1505" stop-opacity="1"/>
	</linearGradient>
	<linearGradient id="SVGID_Fill20_" gradientUnits="objectBoundingBox" x1="0.500001" y1="2.70309" x2="4.90632" y2="2.70309" gradientTransform="rotate(-90.000000 0.500001 2.703090)">
		<stop offset="0" stop-color="#DAF5BF" stop-opacity="1"/>
		<stop offset="1" stop-color="#1D2314" stop-opacity="1"/>
	</linearGradient>
	<filter id="Filter_GaussianBlur14_" filterUnits="userSpaceOnUse">
		<feGaussianBlur stdDeviation="2.64567"/>
	</filter>
	<path fill="url(#SVGID_Fill20_)" stroke-linejoin="round" stroke="url(#SVGID_Stroke19_)" filter="url(#Filter_GaussianBlur14_)" d="M 72.9247,159.124L 109.085,159.124C 110.189,159.124 111.085,160.02 111.085,161.124L 111.085,167.791C 111.085,168.895 110.189,169.791 109.085,169.791L 72.9247,169.791C 71.8201,169.791 70.9247,168.895 70.9247,167.791L 70.9247,161.124C 70.9247,160.02 71.8201,159.124 72.9247,159.124 Z "/>
	<linearGradient id="SVGID_Stroke20_" gradientUnits="objectBoundingBox" x1="0.500001" y1="2.5143" x2="4.52854" y2="2.5143" gradientTransform="rotate(-90.000000 0.500001 2.514303)">
		<stop offset="0" stop-color="#3F542A" stop-opacity="1"/>
		<stop offset="0.474419" stop-color="#D0D5CB" stop-opacity="1"/>
		<stop offset="1" stop-color="#0F1505" stop-opacity="1"/>
	</linearGradient>
	<linearGradient id="SVGID_Fill21_" gradientUnits="objectBoundingBox" x1="0.500001" y1="2.70314" x2="4.90622" y2="2.70314" gradientTransform="rotate(-90.000000 0.500001 2.703142)">
		<stop offset="0" stop-color="#DAF5BF" stop-opacity="1"/>
		<stop offset="1" stop-color="#1D2314" stop-opacity="1"/>
	</linearGradient>
	<filter id="Filter_GaussianBlur15_" filterUnits="userSpaceOnUse">
		<feGaussianBlur stdDeviation="3.02362"/>
	</filter>
	<path fill="url(#SVGID_Fill21_)" stroke-linejoin="round" stroke="url(#SVGID_Stroke20_)" filter="url(#Filter_GaussianBlur15_)" d="M 122.752,158.915L 153.085,158.915C 154.19,158.915 155.085,159.81 155.085,160.915L 155.085,167.581C 155.085,168.686 154.19,169.581 153.085,169.581L 122.752,169.581C 121.647,169.581 120.752,168.686 120.752,167.581L 120.752,160.915C 120.752,159.81 121.647,158.915 122.752,158.915 Z "/>
	<linearGradient id="SVGID_Stroke21_" gradientUnits="objectBoundingBox" x1="0.5" y1="2.51425" x2="4.52863" y2="2.51425" gradientTransform="rotate(-90.000000 0.500000 2.514251)">
		<stop offset="0" stop-color="#3F542A" stop-opacity="1"/>
		<stop offset="0.474419" stop-color="#D0D5CB" stop-opacity="1"/>
		<stop offset="1" stop-color="#0F1505" stop-opacity="1"/>
	</linearGradient>
	<linearGradient id="SVGID_Fill22_" gradientUnits="objectBoundingBox" x1="0.5" y1="2.70309" x2="4.90632" y2="2.70309" gradientTransform="rotate(-90.000000 0.500000 2.703090)">
		<stop offset="0" stop-color="#DAF5BF" stop-opacity="1"/>
		<stop offset="1" stop-color="#1D2314" stop-opacity="1"/>
	</linearGradient>
	<filter id="Filter_GaussianBlur16_" filterUnits="userSpaceOnUse">
		<feGaussianBlur stdDeviation="3.02362"/>
	</filter>
	<path fill="url(#SVGID_Fill22_)" stroke-linejoin="round" stroke="url(#SVGID_Stroke21_)" filter="url(#Filter_GaussianBlur16_)" d="M 161.918,158.957L 176.585,158.957C 177.69,158.957 178.585,159.853 178.585,160.957L 178.585,167.624C 178.585,168.728 177.69,169.624 176.585,169.624L 161.918,169.624C 160.814,169.624 159.918,168.728 159.918,167.624L 159.918,160.957C 159.918,159.853 160.814,158.957 161.918,158.957 Z "/>
	<linearGradient id="SVGID_Stroke22_" gradientUnits="objectBoundingBox" x1="0.5" y1="2.51425" x2="4.52846" y2="2.51425" gradientTransform="rotate(-90.000000 0.500000 2.514251)">
		<stop offset="0" stop-color="#3F542A" stop-opacity="1"/>
		<stop offset="0.474419" stop-color="#D0D5CB" stop-opacity="1"/>
		<stop offset="1" stop-color="#0F1505" stop-opacity="1"/>
	</linearGradient>
	<linearGradient id="SVGID_Fill23_" gradientUnits="objectBoundingBox" x1="0.5" y1="2.70308" x2="4.90612" y2="2.70308" gradientTransform="rotate(-90.000000 0.500000 2.703081)">
		<stop offset="0" stop-color="#DAF5BF" stop-opacity="1"/>
		<stop offset="1" stop-color="#1D2314" stop-opacity="1"/>
	</linearGradient>
	<filter id="Filter_GaussianBlur17_" filterUnits="userSpaceOnUse">
		<feGaussianBlur stdDeviation="3.02362"/>
	</filter>
	<path fill="url(#SVGID_Fill23_)" stroke-linejoin="round" stroke="url(#SVGID_Stroke22_)" filter="url(#Filter_GaussianBlur17_)" d="M 51.4806,159.299L 64.0851,159.299C 65.1896,159.299 66.0851,160.195 66.0851,161.299L 66.0851,167.966C 66.0851,169.071 65.1896,169.966 64.0851,169.966L 51.4806,169.966C 50.376,169.966 49.4806,169.071 49.4806,167.966L 49.4806,161.299C 49.4806,160.195 50.376,159.299 51.4806,159.299 Z "/>
	<g>
		<path fill="#8F919A" fill-opacity="1" stroke-width="0.2" stroke-linejoin="round" stroke="#ABABBD" stroke-opacity="1" d="M 161.42,107.222L 161.979,107.222C 174.682,107.222 184.979,117.519 184.979,130.222L 184.979,228.313C 184.979,241.016 174.682,251.313 161.979,251.313L 161.42,251.313C 148.717,251.313 138.42,241.016 138.42,228.313L 138.42,130.222C 138.42,117.519 148.717,107.222 161.42,107.222 Z "/>
		<path fill="#8F919A" fill-opacity="1" stroke-width="3" stroke-linejoin="round" stroke="#ABABBD" stroke-opacity="1" d="M 162.063,107.222C 175.12,107.222 185.706,112.065 185.706,118.038C 185.706,124.011 175.12,128.854 162.063,128.854C 149.005,128.854 138.419,124.011 138.419,118.038C 138.419,112.065 149.005,107.222 162.063,107.222 Z "/>
		<path fill="#8F919A" fill-opacity="1" stroke-width="3" stroke-linejoin="round" stroke="#ABABBD" stroke-opacity="1" d="M 170.065,137.227L 170.065,179.094L 224.626,188.863L 246.451,177L 226.445,151.182L 170.065,137.227 Z "/>
		<path fill="#8F919A" fill-opacity="1" stroke-width="3" stroke-linejoin="round" stroke="#ABABBD" stroke-opacity="1" d="M 170.429,135.831L 174.521,135.017L 180.705,132.4L 184.342,129.26L 186.161,126.12L 235.175,136.529L 224.99,149.787L 170.429,135.831 Z "/>
		<path fill="#8F919A" fill-opacity="1" stroke-width="3" stroke-linejoin="round" stroke="#ABABBD" stroke-opacity="1" d="M 235.175,136.529L 259.182,165.836L 246.815,177.698L 224.263,149.787L 235.175,136.529 Z "/>
		<path fill="#8F919A" fill-opacity="1" stroke-width="3" stroke-linejoin="round" stroke="#ABABBD" stroke-opacity="1" d="M 158.304,137.692L 125.325,161.416L 109.32,196.771L 133.085,198.166L 158.304,177.233L 158.304,137.692 Z "/>
		<path fill="#8F919A" fill-opacity="1" stroke-width="3" stroke-linejoin="round" stroke="#ABABBD" stroke-opacity="1" d="M 124.84,161.416L 103.986,153.973L 137.45,130.714L 137.965,130.365L 141.057,133.854L 147.635,136.296L 158.789,136.762L 124.84,161.416 Z "/>
		<path fill="#8F919A" fill-opacity="1" stroke-width="3" stroke-linejoin="round" stroke="#ABABBD" stroke-opacity="1" d="M 103.986,153.973L 91.8608,185.606L 108.835,196.771L 124.84,162.347L 103.986,153.973 Z "/>
	</g>
	<g>
		<linearGradient id="SVGID_Fill24_" gradientUnits="objectBoundingBox" x1="0" y1="0.500001" x2="1" y2="0.500001">
			<stop offset="0.0186047" stop-color="#E3D191" stop-opacity="1"/>
			<stop offset="0.55814" stop-color="#E2AF00" stop-opacity="1"/>
			<stop offset="0.787252" stop-color="#AB7800" stop-opacity="1"/>
			<stop offset="1" stop-color="#744100" stop-opacity="1"/>
		</linearGradient>
		<path fill="url(#SVGID_Fill24_)" stroke-width="0.2" stroke-linejoin="round" d="M 165.29,111.635L 165.29,111.635C 176.816,111.635 186.16,120.978 186.16,132.504L 186.16,225.439C 186.16,236.965 176.816,246.309 165.29,246.309L 165.29,246.309C 153.764,246.309 144.421,236.965 144.421,225.439L 144.421,132.504C 144.421,120.978 153.764,111.635 165.29,111.635 Z "/>
		<linearGradient id="SVGID_Stroke23_" gradientUnits="objectBoundingBox" x1="0.143927" y1="0.387308" x2="1.07375" y2="0.387308" gradientTransform="rotate(16.032902 0.143927 0.387308)">
			<stop offset="0.0186047" stop-color="#CEBE83" stop-opacity="1"/>
			<stop offset="0.55814" stop-color="#C79C07" stop-opacity="1"/>
			<stop offset="0.787252" stop-color="#8F6604" stop-opacity="1"/>
			<stop offset="1" stop-color="#573101" stop-opacity="1"/>
		</linearGradient>
		<linearGradient id="SVGID_Fill25_" gradientUnits="objectBoundingBox" x1="0.118728" y1="0.370586" x2="1.11874" y2="0.370586" gradientTransform="rotate(15.000349 0.118728 0.370586)">
			<stop offset="0.0186047" stop-color="#E3D191" stop-opacity="1"/>
			<stop offset="0.55814" stop-color="#E2AF00" stop-opacity="1"/>
			<stop offset="0.787252" stop-color="#AB7800" stop-opacity="1"/>
			<stop offset="1" stop-color="#744100" stop-opacity="1"/>
		</linearGradient>
		<path fill="url(#SVGID_Fill25_)" stroke-width="3" stroke-linejoin="round" stroke="url(#SVGID_Stroke23_)" d="M 165.616,111.635C 177.322,111.635 186.812,116.161 186.812,121.744C 186.812,127.327 177.322,131.853 165.616,131.853C 153.91,131.853 144.421,127.327 144.421,121.744C 144.421,116.161 153.911,111.635 165.616,111.635 Z "/>
		<linearGradient id="SVGID_Stroke24_" gradientUnits="objectBoundingBox" x1="0.00729997" y1="0.500002" x2="0.992701" y2="0.500002">
			<stop offset="0.0186047" stop-color="#D7B77E" stop-opacity="1"/>
			<stop offset="0.55814" stop-color="#D4B780" stop-opacity="1"/>
			<stop offset="0.787252" stop-color="#D7BC89" stop-opacity="1"/>
			<stop offset="1" stop-color="#DBC292" stop-opacity="1"/>
		</linearGradient>
		<linearGradient id="SVGID_Fill26_" gradientUnits="objectBoundingBox" x1="-0.014285" y1="0.500003" x2="1.01429" y2="0.500003">
			<stop offset="0.0186047" stop-color="#D7B77E" stop-opacity="1"/>
			<stop offset="0.55814" stop-color="#D4B780" stop-opacity="1"/>
			<stop offset="0.787252" stop-color="#D7BC89" stop-opacity="1"/>
			<stop offset="1" stop-color="#DBC292" stop-opacity="1"/>
		</linearGradient>
		<path fill="url(#SVGID_Fill26_)" stroke-width="3" stroke-linejoin="round" stroke="url(#SVGID_Stroke24_)" d="M 172.79,139.679L 172.79,178.809L 221.703,187.94L 241.269,176.853L 223.334,152.722L 172.79,139.679 Z "/>
		<linearGradient id="SVGID_Stroke25_" gradientUnits="objectBoundingBox" x1="0.00854882" y1="0.485936" x2="0.991453" y2="0.485936">
			<stop offset="0.0186047" stop-color="#E5D5B4" stop-opacity="1"/>
			<stop offset="1" stop-color="#EFE4D0" stop-opacity="1"/>
		</linearGradient>
		<linearGradient id="SVGID_Fill27_" gradientUnits="objectBoundingBox" x1="-0.016852" y1="0.484029" x2="1.01685" y2="0.484029">
			<stop offset="0.0186047" stop-color="#E5D5B4" stop-opacity="1"/>
			<stop offset="1" stop-color="#EFE4D0" stop-opacity="1"/>
		</linearGradient>
		<path fill="url(#SVGID_Fill27_)" stroke-width="3" stroke-linejoin="round" stroke="url(#SVGID_Stroke25_)" d="M 173.116,138.374L 176.785,137.613L 182.329,135.168L 185.589,132.233L 187.22,129.298L 231.16,139.026L 222.03,151.418L 173.116,138.374 Z "/>
		<linearGradient id="SVGID_Stroke26_" gradientUnits="objectBoundingBox" x1="0.0152088" y1="0.499997" x2="0.984791" y2="0.499997">
			<stop offset="0.0186047" stop-color="#E5D5B4" stop-opacity="1"/>
			<stop offset="1" stop-color="#EFE4D0" stop-opacity="1"/>
		</linearGradient>
		<linearGradient id="SVGID_Fill28_" gradientUnits="objectBoundingBox" x1="-0.0312503" y1="0.499997" x2="1.03125" y2="0.499997">
			<stop offset="0.0186047" stop-color="#E5D5B4" stop-opacity="1"/>
			<stop offset="1" stop-color="#EFE4D0" stop-opacity="1"/>
		</linearGradient>
		<path fill="url(#SVGID_Fill28_)" stroke-width="3" stroke-linejoin="round" stroke="url(#SVGID_Stroke26_)" d="M 231.16,139.026L 252.682,166.418L 241.595,177.505L 221.377,151.418L 231.16,139.026 Z "/>
		<linearGradient id="SVGID_Stroke27_" gradientUnits="objectBoundingBox" x1="0.0574599" y1="0.485392" x2="0.988879" y2="0.485392">
			<stop offset="0.0186047" stop-color="#D9BF8D" stop-opacity="1"/>
			<stop offset="1" stop-color="#D7B77E" stop-opacity="1"/>
		</linearGradient>
		<linearGradient id="SVGID_Fill29_" gradientUnits="objectBoundingBox" x1="0.0272269" y1="0.484616" x2="1.02228" y2="0.484616">
			<stop offset="0.0186047" stop-color="#D9BF8D" stop-opacity="1"/>
			<stop offset="1" stop-color="#D7B77E" stop-opacity="1"/>
		</linearGradient>
		<path fill="url(#SVGID_Fill29_)" stroke-width="3" stroke-linejoin="round" stroke="url(#SVGID_Stroke27_)" d="M 162.247,140.113L 132.682,162.287L 118.334,195.331L 139.638,196.635L 162.247,177.07L 162.247,140.113 Z "/>
		<linearGradient id="SVGID_Stroke28_" gradientUnits="objectBoundingBox" x1="0.0100081" y1="0.484729" x2="0.989992" y2="0.484729">
			<stop offset="0.0186047" stop-color="#E7D7B9" stop-opacity="1"/>
			<stop offset="1" stop-color="#EEE2CD" stop-opacity="1"/>
		</linearGradient>
		<linearGradient id="SVGID_Fill30_" gradientUnits="objectBoundingBox" x1="-0.0199117" y1="0.48315" x2="1.01991" y2="0.48315">
			<stop offset="0.0186047" stop-color="#E7D7B9" stop-opacity="1"/>
			<stop offset="1" stop-color="#EEE2CD" stop-opacity="1"/>
		</linearGradient>
		<path fill="url(#SVGID_Fill30_)" stroke-width="3" stroke-linejoin="round" stroke="url(#SVGID_Stroke28_)" d="M 132.247,162.287L 113.551,155.331L 143.551,133.592L 144.013,133.265L 146.785,136.526L 152.682,138.809L 162.682,139.244L 132.247,162.287 Z "/>
		<linearGradient id="SVGID_Stroke29_" gradientUnits="objectBoundingBox" x1="0.0160211" y1="0.5" x2="0.983979" y2="0.5">
			<stop offset="0.0186047" stop-color="#E7D7B9" stop-opacity="1"/>
			<stop offset="1" stop-color="#EEE2CD" stop-opacity="1"/>
		</linearGradient>
		<linearGradient id="SVGID_Fill31_" gradientUnits="objectBoundingBox" x1="-0.0330886" y1="0.5" x2="1.03309" y2="0.5">
			<stop offset="0.0186047" stop-color="#E7D7B9" stop-opacity="1"/>
			<stop offset="1" stop-color="#EEE2CD" stop-opacity="1"/>
		</linearGradient>
		<path fill="url(#SVGID_Fill31_)" stroke-width="3" stroke-linejoin="round" stroke="url(#SVGID_Stroke29_)" d="M 113.551,155.331L 102.682,184.896L 117.899,195.331L 132.247,163.157L 113.551,155.331 Z "/>
	</g>
</svg>
