<svg enable-background="new 0 0 220.00 220.00" height="220" viewBox="0 0 220 220" width="220" xmlns="http://www.w3.org/2000/svg"><g stroke-linejoin="round" stroke-width=".2"><g fill="#808080"><path d="m115.231 29.471c17.486 1.3368 30.578 6.7737 42.925 14.9341l11.184-14.6548c-14.819-11.1839-32.893-18.2215-52.53-19.4074z"/><path d="m27.6381 91.0484c.837-3.1376 1.8592-6.1895 3.0547-9.1472l-13.1265-4.5162c-1.1875 3.5276-2.1799 7.1441-2.9645 10.8368z"/><path d="m100.016 196.864c-2.2688-.366-4.5101-.814-6.7206-1.34l-1.3618 8.599c2.4233.485 4.8764.881 7.3552 1.187z"/><path d="m82.418 192.221c-14.66-5.455-27.5116-14.473-37.325-25.971l-7.5696 7.061c11.3633 12.524 25.9388 22.125 42.3421 27.604z"/><path d="m40.0109 159.684c-1.5837-2.263-3.0581-4.602-4.4159-7.011l-9.2863 5.613c1.6388 2.704 3.4068 5.322 5.2948 7.847z"/><path d="m193.644 130.913c-1.132 6.246-2.757 12.274-4.988 17.99l6.007 2.858c2.627-6.206 4.491-12.691 5.495-19.312z"/><path d="m185.531 155.902c-2.728 5.375-6.095 10.407-10.212 15.004l4.682 4.194c4.302-4.93 8.029-10.287 11.101-15.949z"/><path d="m168.598 177.437c-1.924 1.629-3.972 3.183-6.151 4.657l4.091 5.579c2.246-1.705 4.402-3.508 6.463-5.398z"/><path d="m189.559 83.4358c1.726 5.2201 3.335 12.708 4.827 24.1252l5.562-.053c-1.461-11.5968-3.337-19.7206-5.463-25.5878z"/><path d="m179.204 67.1187c3.186 2.9304 6.058 4.3619 8.619 10.6988l4.099-1.0326c-2.931-6.6208-6.434-9.0234-9.879-10.9742z"/><path d="m200.835 115.817-5.514-.432c.034.309.068.619.101.933-.146 2.123-.334 4.23-.57 6.318l6.13.851c.083-2.549.035-5.108-.147-7.67z"/><path d="m111.631 206.068c16.696 0 32.042-4.431 45.132-11.924l-3.734-6.599c-10.233 5.043-22.74 8.671-37.96 10.522-3.002 0-5.973-.141-8.905-.418l-.139 8.263c1.857.103 3.726.156 5.606.156z"/><path d="m12.4642 108.651c0 14.616 3.2647 28.41 9.086 40.769l10.0799-4.749c-4.3192-10.034-6.7077-21.036-6.7077-32.603 0-4.393.3376-8.676.989-12.833l-12.8509-1.4408c-.3939 3.5648-.5963 7.1878-.5963 10.8568z"/><path d="m172.422 55.0677c4.274-2.2957 14.212-8.6678 12.059-11.1553-2.122-2.4512-4.363-4.7954-6.712-7.0236l-12.188 12.7862c2.273 1.7157 4.545 3.5161 6.841 5.3927z"/><path d="m96.3116 11.25 2.4462 19.3249c2.3162-.3559 4.6632-.6329 7.0362-.828l-.706-19.4123c-2.961.1743-5.8881.4815-8.7764.9154z"/><path d="m20.8815 68.8756 13.0988 5.9382c11.1862-21.256 31.831-36.6937 56.8154-42.6778l-4.3935-18.8658c-29.2423 7.5631-53.4001 28.3336-65.5207 55.6054z"/></g><ellipse cx="109.297" cy="113.401" fill="#12508c" rx="76.5" ry="77"/><path d="m77.7968 108.561 61.6662-25.3332-26 62.6672z" fill="#fff"/><path d="m200.63 54.2105h-5.6v15.9599h-4.48v-15.9599h-5.6v-3.64h15.68z"/><path d="m225.55 70.1704h-4.48v-11.7293c0-1.266.057-2.6645.17-4.1957h-.109c-.228 1.2046-.433 2.0708-.617 2.5989l-4.594 13.3261h-3.609l-4.677-13.1906c-.128-.3557-.334-1.2672-.617-2.7344h-.122c.116 1.9338.175 3.6298.175 5.0881v10.8369h-3.92v-19.5999h6.409l4.003 11.62c.321.9273.554 1.8608.7 2.7999h.083c.245-1.085.505-2.0285.779-2.8306l4.003-11.5893h6.423z"/></g></svg>