<?xml version="1.0" encoding="utf-8"?>
<!DOCTYPE svg PUBLIC "-//W3C//DTD SVG 1.1//EN" "http://www.w3.org/Graphics/SVG/1.1/DTD/svg11.dtd">
<svg x="0" y="0" width="48" height="48" overflow="hidden" viewBox="0, 0, 48, 48" preserveAspectRatio="xMidYMid"
     font-size="0" id="svg" xml:space="preserve" xmlns="http://www.w3.org/2000/svg"
     xmlns:xml="http://www.w3.org/XML/1998/namespace" version="1.1">
  <g transform="matrix(0.2150734, 0, 0, 0.3498082, -2.889791, -19.73002)" id="g1216" xml:space="preserve">
    <linearGradient x1="43.21983" y1="198.67" x2="74.81563" y2="198.67" gradientUnits="userSpaceOnUse" gradientTransform="scale(1.24027, 0.8062762)" id="SVGID_Fill1_" xml:space="preserve">
      <stop offset="0%" stop-color="#D9D9D9" stop-opacity="1" id="stop1131" xml:space="preserve" />
      <stop offset="44.5946%" stop-color="#A47C51" stop-opacity="1" id="stop1133" xml:space="preserve" />
      <stop offset="100%" stop-color="#FFFFFF" stop-opacity="1" id="stop1135" xml:space="preserve" />
    </linearGradient>
    <path d="M56.582 121.941 C56.8719 124.431 57.1601 129.396 56.9709 132.733 C56.7816 136.069 56.115 137.778 55.4896 138.967 C54.8642 140.156 54.2802 140.826 52.6759 141.597 C51.0718 142.368 48.4475 143.24 45.8438 144.134 C43.2399 145.028 40.6566 145.944 38.1983 146.903 C35.7399 147.861 33.4066 148.861 31.3649 149.799 C29.3233 150.736 27.5733 151.611 25.9899 152.799 C24.4066 153.986 22.9899 155.486 21.8858 156.986 C20.7816 158.486 19.9899 159.986 18.1774 164.288 C16.3649 168.59 13.5316 175.694 13.5872 179.885 C13.6427 184.076 16.5872 185.354 28.1979 187.845 C39.8086 190.337 60.0856 194.042 78.7193 193.396 C97.353 192.75 114.343 187.753 122.977 184.977 C131.612 182.201 131.889 181.646 130.938 176.854 C129.987 172.062 127.806 163.035 123.695 157.427 C119.584 151.819 113.542 149.632 108.459 147.715 C103.375 145.799 99.2504 144.153 95.80601 142.837 C92.36151 141.521 89.59761 140.535 88.58021 136.319 C87.5629 132.104 88.29211 124.66 88.40661 120.799 C88.52121 116.937 88.02121 116.66 83.14621 117.325 C78.27121 117.99 69.02121 119.597 63.71911 120.104 C58.41711 120.611 57.06291 120.017 56.53161 119.727 C56.00041 119.437 56.29211 119.451 56.58201 121.941 z" stroke="#D2B291" stroke-width="0.299998" stroke-linejoin="round" id="path1138" xml:space="preserve" connector-curvature="0" style="fill:url(#SVGID_Fill1_);" />
    <g id="g1146" xml:space="preserve">
      <path d="M46.1464 91.5393 C46.8042 91.2981 47.1991 91.4883 48.1578 92.8608 C48.9623 94.0131 49.6971 96.5135 50.3672 98.3418 C51.8356 102.348 52.0451 105.956 50.8351 106.399 C49.6252 106.843 48.3965 106.914 47.1464 104.414 C45.9944 102.111 43.474 94.6425 43.7089 93.6018 C44.1464 91.6641 45.5835 91.7455 46.1464 91.5393 z" stroke-width="0.2" stroke-linejoin="round" id="path1140" xml:space="preserve" connector-curvature="0" style="fill:#D5B797;" />
      <path d="M47.0214 94.2253 L47.7714 102.225 L49.1464 104.225 L50.3339 101.975 L50.0839 99.1628 L48.0214 93.3503 L47.2089 93.9128 z" fill-opacity="0.305882" stroke-width="0.2" stroke-linejoin="round" id="path1142" xml:space="preserve" connector-curvature="0" style="fill:#FFFFFF;" />
      <path d="M48.8964 100.163 L48.5214 101.913 L49.3339 102.35 L50.0214 101.975 L49.9589 100.975 L49.3339 100.288 z" fill-opacity="0.305882" stroke-width="0.2" stroke-linejoin="round" id="path1144" xml:space="preserve" connector-curvature="0" style="fill:#FFFFFF;" />
    </g>
    <g id="g1154" xml:space="preserve">
      <path d="M97.1573 90.8657 C96.4995 90.6248 96.1045 90.8148 95.1459 92.1875 C94.3412 93.3396 93.60651 95.8402 92.9364 97.6685 C91.468 101.675 91.2585 105.282 92.4684 105.726 C93.6784 106.169 94.9072 106.24 96.1572 103.741 C97.3092 101.437 99.8296 93.969 99.5947 92.92821 C99.1572 90.99061 97.72009 91.07201 97.1573 90.86571 z" stroke-width="0.2" stroke-linejoin="round" id="path1148" xml:space="preserve" connector-curvature="0" style="fill:#D5B797;" />
      <path d="M96.2822 93.552 L95.5322 101.552 L94.1572 103.552 L92.9697 101.302 L93.2197 98.4895 L95.2822 92.677 L96.0947 93.2395 z" fill-opacity="0.305882" stroke-width="0.2" stroke-linejoin="round" id="path1150" xml:space="preserve" connector-curvature="0" style="fill:#FFFFFF;" />
      <path d="M94.4072 99.4895 L94.7822 101.24 L93.9697 101.677 L93.2822 101.302 L93.3447 100.302 L93.9697 99.6145 z" fill-opacity="0.305882" stroke-width="0.2" stroke-linejoin="round" id="path1152" xml:space="preserve" connector-curvature="0" style="fill:#FFFFFF;" />
    </g>
    <radialGradient cx="72.7103" cy="164.517" r="59.3288" fx="72.7103" fy="164.517" gradientUnits="userSpaceOnUse" id="SVGID_Fill2_" xml:space="preserve">
      <stop offset="0%" stop-color="#DCD5CE" stop-opacity="1" id="stop1156" xml:space="preserve" />
      <stop offset="100%" stop-color="#FFFFFF" stop-opacity="1" id="stop1158" xml:space="preserve" />
    </radialGradient>
    <path d="M71.8373 145.819 C66.11501 145.93 60.7816 142.708 56.8302 140.253 C56.2977 139.922 55.7902 139.605 55.3096 139.296 C54.7426 140.286 54.126 140.901 52.6758 141.597 C51.0717 142.368 48.4474 143.24 45.8437 144.134 C43.2399 145.028 40.65651 145.945 38.1982 146.903 C35.7399 147.861 33.40651 148.861 31.3649 149.799 C29.3232 150.736 27.5732 151.611 25.9899 152.799 C24.4065 153.986 22.9899 155.486 21.8857 156.986 C20.7815 158.486 19.9899 159.986 18.1774 164.288 C16.3649 168.59 13.5315 175.695 13.5871 179.885 C13.6426 184.077 16.5871 185.354 28.1978 187.846 C39.8085 190.337 60.0855 194.042 78.71921 193.396 C97.35291 192.75 114.343 187.754 122.977 184.978 C131.611 182.202 131.889 181.646 130.938 176.854 C129.986 172.063 127.806 163.035 123.695 157.427 C119.584 151.82 113.542 149.632 108.459 147.715 L95.80581 142.837 C92.36141 141.521 89.59751 140.535 88.58011 136.32 C88.48031 135.906 88.39741 135.462 88.32901 134.993 C87.92571 135.939 87.42471 136.865 86.80961 137.75 C83.67071 142.264 77.55961 145.708 71.83731 145.819 z" stroke="#D2B291" stroke-width="0.299998" stroke-linejoin="round" id="path1161" xml:space="preserve" connector-curvature="0" style="fill:url(#SVGID_Fill2_);" />
    <radialGradient cx="72.005" cy="97.686" r="35.125" fx="72.005" fy="97.686" gradientUnits="userSpaceOnUse" id="SVGID_Fill3_" xml:space="preserve">
      <stop offset="0%" stop-color="#F4E0CB" stop-opacity="1" id="stop1163" xml:space="preserve" />
      <stop offset="100%" stop-color="#70573D" stop-opacity="1" id="stop1165" xml:space="preserve" />
    </radialGradient>
    <path d="M72.005 62.5614 C84.9377 62.5614 95.4217 78.2874 95.4217 97.6864 C95.4217 104.808 93.7361 111.783 90.925 116.895 C87.00111 124.03 84.6005 128.656 80.74471 130.978 C78.43121 132.371 74.72021 132.447 71.65091 132.447 C68.68451 132.447 65.03021 132.707 62.58831 130.978 C59.44881 128.755 58.03561 124.447 55.63021 120.561 C51.74991 114.293 48.58831 106.915 48.58831 97.6864 C48.58831 78.2874 59.07231 62.5614 72.00501 62.5614 z" stroke-width="0.2" stroke-linejoin="round" id="path1168" xml:space="preserve" connector-curvature="0" style="fill:url(#SVGID_Fill3_);" />
    <radialGradient cx="72.005" cy="95.6859" r="35.125" fx="72.005" fy="95.6859" gradientUnits="userSpaceOnUse" id="SVGID_Fill4_" xml:space="preserve">
      <stop offset="0%" stop-color="#F4E0CB" stop-opacity="1" id="stop1170" xml:space="preserve" />
      <stop offset="100%" stop-color="#E8BE93" stop-opacity="1" id="stop1172" xml:space="preserve" />
    </radialGradient>
    <path d="M72.005 60.5613 C84.9377 60.5613 95.4218 76.28709 95.4218 95.68629 C95.4218 102.808 93.7361 109.783 90.9251 114.895 C87.0011 122.03 84.6005 126.656 80.74471 128.978 C78.43121 130.371 74.72021 130.447 71.65091 130.447 C68.68451 130.447 65.03021 130.707 62.58831 128.978 C59.44881 126.755 58.03561 122.447 55.63021 118.561 C51.75001 112.293 48.58831 104.915 48.58831 95.68629 C48.58831 76.28709 59.07231 60.56129 72.00501 60.56129 z" stroke-width="0.2" stroke-linejoin="round" id="path1175" xml:space="preserve" connector-curvature="0" style="fill:url(#SVGID_Fill4_);" />
    <g id="g1214" xml:space="preserve">
      <path d="M47.2332 93.2113 C47.7957 93.98911 48.3825 94.0657 48.8113 93.53101 C49.2401 92.99611 49.511 91.8503 49.8026 90.62111 C50.0943 89.39201 50.4068 88.07951 50.5839 86.11071 C50.761 84.14201 50.8026 81.51701 51.511 79.44411 C52.2193 77.37111 53.5943 75.8503 54.9797 75.0378 C56.3651 74.2253 57.761 74.1211 59.261 74.3711 C60.761 74.6211 62.3651 75.2253 64.0526 75.9336 C65.7401 76.642 67.51099 77.4545 68.8026 77.9648 C70.0943 78.4753 70.9068 78.6836 72.313 78.79819 C73.7193 78.9128 75.7193 78.93359 77.2505 78.79819 C78.7818 78.6628 79.8443 78.37109 81.4033 78.19759 C82.9623 78.0239 85.0179 77.96829 86.4416 78.16969 C87.8651 78.37109 88.6568 78.82949 89.4901 79.55859 C90.32349 80.2878 91.19849 81.2878 91.9901 82.70449 C92.7818 84.12109 93.4901 85.95449 93.9068 87.48569 C94.3235 89.01699 94.4485 90.24609 94.5839 91.26699 C94.7193 92.28779 94.8651 93.10029 95.1568 93.54819 C95.4485 93.99609 95.886 94.07949 96.2505 93.90229 C96.6151 93.72529 96.9068 93.28779 97.188 92.40229 C97.4693 91.51699 97.7401 90.18359 97.9276 88.40229 C98.1151 86.62109 98.2193 84.39199 97.9589 81.76699 C97.6985 79.14199 97.0735 76.12109 95.9797 73.26699 C94.886 70.41279 93.3235 67.72529 91.3651 65.44409 C89.4068 63.16279 87.0526 61.28779 84.97279 59.96479 C82.89289 58.64199 81.0873 57.87109 79.4866 57.35029 C77.88599 56.82949 76.4901 56.55859 74.77139 56.45449 C73.05259 56.35029 71.01099 56.41279 69.07349 56.54819 C67.13599 56.68359 65.3026 56.89199 63.3443 57.64199 C61.38599 58.39199 59.3026 59.68359 57.3964 61.07949 C55.4901 62.47529 53.761 63.97529 52.2089 65.72529 C50.6568 67.47529 49.2818 69.47529 48.3547 71.54819 C47.4276 73.62109 46.9485 75.76699 46.5943 77.54819 C46.2401 79.32949 46.011 80.74609 45.8651 82.67319 C45.7193 84.60029 45.6568 87.03779 45.8947 88.99609 C46.1325 90.95448 46.6707 92.43359 47.2332 93.21129 z" stroke-width="0.2" stroke-linejoin="round" id="path1177" xml:space="preserve" connector-curvature="0" style="fill:#937258;" />
      <radialGradient cx="68.8026" cy="70.4233" r="13.875" fx="68.8026" fy="70.4233" gradientUnits="userSpaceOnUse" id="SVGID_Fill5_" xml:space="preserve">
        <stop offset="0%" stop-color="#D3B9A3" stop-opacity="0.635294" id="stop1179" xml:space="preserve" />
        <stop offset="99.0991%" stop-color="#FFFFFF" stop-opacity="0" id="stop1181" xml:space="preserve" />
      </radialGradient>
      <path d="M58.636 65.4926 C59.4832 66.1732 60.7888 67.6732 62.511 69.0205 C64.2332 70.3677 66.3721 71.562 68.7054 72.5066 C71.0388 73.451 73.5665 74.1454 75.7471 74.5342 C77.9276 74.9232 79.761 75.0066 80.8582 75.1039 C81.9554 75.201 82.3165 75.312 82.1221 75.49261 C81.9276 75.67321 81.1776 75.92321 79.0804 75.79821 C76.9832 75.67321 73.5388 75.17321 70.0526 74.13161 C66.5665 73.08981 63.0388 71.50661 60.511 70.08981 C57.9832 68.6732 56.4554 67.4232 56.0388 66.61761 C55.6221 65.812 56.3165 65.451 56.8582 65.201 C57.3998 64.951 57.7888 64.812 58.636 65.49261 z" stroke-width="0.2" stroke-linejoin="round" id="path1184" xml:space="preserve" connector-curvature="0" style="fill:url(#SVGID_Fill5_);" />
      <radialGradient cx="92.5526" cy="76.538" r="7.36462" fx="92.5526" fy="76.538" gradientUnits="userSpaceOnUse" id="SVGID_Fill6_" xml:space="preserve">
        <stop offset="0%" stop-color="#9A7C65" stop-opacity="0.635294" id="stop1186" xml:space="preserve" />
        <stop offset="99.0991%" stop-color="#FFFFFF" stop-opacity="0" id="stop1188" xml:space="preserve" />
      </radialGradient>
      <path d="M93.2296 77.3608 C93.1359 78.0276 93.3651 79.0692 93.5213 79.8783 C93.6776 80.6873 93.7609 81.2635 94.1776 82.0969 C94.59431 82.9302 95.34421 84.0205 95.67071 83.6143 C95.99701 83.208 95.89981 81.30521 95.72281 79.8885 C95.54571 78.4719 95.28871 77.5414 95.01441 76.9929 C94.74011 76.44421 94.44841 76.2776 94.09422 76.3401 C93.74011 76.4026 93.32342 76.69421 93.22961 77.3608 z" stroke-width="0.2" stroke-linejoin="round" id="path1191" xml:space="preserve" connector-curvature="0" style="fill:url(#SVGID_Fill6_);" />
      <radialGradient cx="79.3339" cy="70.1526" r="16.5938" fx="79.3339" fy="70.1526" gradientUnits="userSpaceOnUse" id="SVGID_Fill7_" xml:space="preserve">
        <stop offset="0%" stop-color="#D3B9A3" stop-opacity="1" id="stop1193" xml:space="preserve" />
        <stop offset="99.0991%" stop-color="#FFFFFF" stop-opacity="0" id="stop1195" xml:space="preserve" />
      </radialGradient>
      <path d="M71.6776 57.267 C70.44849 57.7566 68.5318 58.5482 66.9276 59.517 C65.32349 60.4857 64.0318 61.6316 63.438 63.1523 C62.8443 64.67319 62.9485 66.5691 63.9589 68.0795 C64.9693 69.5898 66.88599 70.7148 69.39639 71.6316 C71.90679 72.5482 75.01099 73.2566 77.85469 73.9648 C80.69849 74.67319 83.28179 75.3816 85.20889 75.5273 C87.13599 75.67319 88.40679 75.2566 89.47969 75.2148 C90.55259 75.17319 91.42759 75.5066 92.11509 76.2566 C92.80259 77.0066 93.30259 78.1732 93.63599 79.3711 C93.96928 80.5691 94.13599 81.7982 94.49009 82.5586 C94.84429 83.3191 95.38599 83.6107 95.63599 83.0066 C95.88599 82.4023 95.84428 80.9023 95.50049 78.4753 C95.15679 76.04819 94.51099 72.6941 92.94849 69.63159 C91.38599 66.56909 88.90678 63.79819 86.70889 61.88159 C84.51099 59.96479 82.59428 58.90229 80.52139 58.13159 C78.44849 57.36069 76.21928 56.88159 74.83389 56.73569 C73.44849 56.58979 72.90678 56.77729 71.67758 57.26699 z" stroke-width="0.2" stroke-linejoin="round" id="path1198" xml:space="preserve" connector-curvature="0" style="fill:url(#SVGID_Fill7_);" />
      <radialGradient cx="58.0861" cy="80.5247" r="9.13818" fx="58.0861" fy="80.5247" gradientUnits="userSpaceOnUse" id="SVGID_Fill8_" xml:space="preserve">
        <stop offset="43.2432%" stop-color="#70543D" stop-opacity="1" id="stop1200" xml:space="preserve" />
        <stop offset="100%" stop-color="#70543D" stop-opacity="0.431373" id="stop1202" xml:space="preserve" />
      </radialGradient>
      <path d="M49.1458 86.9446 C49.3438 88.67371 49.7604 88.98621 49.9479 89.0555 C50.1354 89.12501 50.0938 88.95151 50.118 88.5903 L50.33331 87.0872 L50.61451 85.0559 L50.73951 82.5767 C50.76731 81.8544 50.7951 81.3684 50.89931 80.7294 C51.00341 80.0906 51.18401 79.2987 51.43051 78.6909 C51.67711 78.0834 51.98961 77.6599 52.43401 77.1356 L53.96181 75.46181 C54.46881 74.93751 54.90631 74.51401 55.45491 74.28831 C56.00341 74.06271 56.66311 74.0349 57.34721 74.02781 L59.3576 74.08351 C59.97561 74.13221 60.50341 74.21561 61.0173 74.38221 C61.5312 74.54881 62.0312 74.79881 62.684 75.10441 L64.9618 76.10441 L67.2243 76.98241 L66.55209 74.79871 C65.13539 74.29871 63.96879 73.79871 62.74999 73.3196 C61.53129 72.8403 60.26039 72.3821 59.17709 72.1528 C58.09379 71.9237 57.1979 71.9237 56.15629 72.205 C55.11459 72.4862 53.92709 73.0487 52.91669 73.9028 C51.90629 74.7571 51.07289 75.9028 50.44789 76.7883 C49.82289 77.6737 49.40629 78.2987 49.18749 80.1841 C48.96879 82.0696 48.94789 85.21529 49.14579 86.9446 z" stroke-width="0.2" stroke-linejoin="round" id="path1205" xml:space="preserve" connector-curvature="0" style="fill:url(#SVGID_Fill8_);" />
      <radialGradient cx="71.1979" cy="80.6111" r="22.2708" fx="71.1979" fy="80.6111" gradientUnits="userSpaceOnUse" id="SVGID_Fill9_" xml:space="preserve">
        <stop offset="32.4324%" stop-color="#70543D" stop-opacity="1" id="stop1207" xml:space="preserve" />
        <stop offset="100%" stop-color="#70543D" stop-opacity="0" id="stop1209" xml:space="preserve" />
      </radialGradient>
      <path d="M49.948 89.0552 C49.7605 88.9858 49.3438 88.6733 49.1459 86.9442 C48.948 85.2151 48.9688 82.0692 49.1876 80.1838 C49.4063 78.2983 49.823 77.6733 50.448 76.788 C51.073 75.9026 51.9063 74.7567 52.9167 73.9026 C53.9272 73.0483 55.1147 72.4858 56.1563 72.20461 C57.198 71.9233 58.0938 71.9233 59.1772 72.1526 C60.2605 72.38171 61.5313 72.8401 62.7501 73.31921 C63.9688 73.79831 65.1355 74.29831 66.5522 74.79831 C67.9688 75.29831 69.6355 75.79831 71.4792 76.05881 C73.32301 76.31921 75.3438 76.34011 77.4167 76.37131 C79.4897 76.40261 81.6147 76.44421 83.47231 76.58641 C85.33 76.72891 86.9202 76.97201 88.17371 77.44081 C89.42721 77.90951 90.3438 78.60391 91.1702 79.45101 C91.9966 80.29831 92.7327 81.29831 93.08 82.13871 C93.4272 82.97901 93.3854 83.65951 93.3021 83.89211 C93.2188 84.12492 93.0938 83.90971 92.8212 83.36451 C92.5486 82.81931 92.12849 81.94421 91.5956 81.15261 C91.0626 80.36081 90.41669 79.65261 89.67719 79.09521 C88.93759 78.53801 88.10419 78.13171 86.89589 77.92331 C85.68759 77.71511 84.10419 77.70461 82.86989 77.75851 C81.63549 77.81241 80.74998 77.9304 79.77608 77.97201 C78.80209 78.01371 77.73969 77.97901 76.73438 78.07621 C75.72918 78.17331 74.78128 78.40261 73.88028 78.51201 C72.97918 78.62131 72.12508 78.61081 71.06078 78.34701 C69.99657 78.08331 68.72227 77.56581 67.66847 77.15451 C66.61457 76.74301 65.78127 76.43741 64.96188 76.10401 C64.14237 75.77081 63.33678 75.40971 62.68398 75.10401 C62.03128 74.79861 61.53128 74.54861 61.01738 74.38181 C60.50348 74.21521 59.97568 74.13181 59.35768 74.08331 C58.73958 74.03471 58.03128 74.02081 57.34728 74.02761 C56.66318 74.03451 56.00348 74.06241 55.45498 74.28801 C54.90628 74.51371 54.46878 74.93731 53.96188 75.46141 C53.45498 75.98581 52.87848 76.61081 52.43408 77.13531 C51.98968 77.65951 51.67718 78.08301 51.43058 78.6907 C51.18408 79.2983 51.00348 80.0902 50.89938 80.729 C50.79518 81.368 50.76738 81.854 50.73958 82.5764 C50.71178 83.2986 50.68408 84.2568 50.61458 85.0555 C50.54518 85.854 50.43408 86.493 50.33338 87.08681 C50.23268 87.6804 50.14238 88.229 50.11808 88.59011 C50.09378 88.95121 50.13548 89.12481 49.94798 89.05521 z" stroke-width="0.2" stroke-linejoin="round" id="path1212" xml:space="preserve" connector-curvature="0" style="fill:url(#SVGID_Fill9_);" />
    </g>
  </g>
  <g transform="matrix(0.2150734, 0, 0, 0.3498082, -2.889791, -19.73002)" id="g1437" xml:space="preserve">
    <radialGradient cx="178.748" cy="158.926" r="58.8167" fx="178.748" fy="158.926" gradientUnits="userSpaceOnUse" id="SVGID_Fill10_" xml:space="preserve">
      <stop offset="0%" stop-color="#E0D3C5" stop-opacity="1" id="stop1218" xml:space="preserve" />
      <stop offset="100%" stop-color="#E8BE93" stop-opacity="1" id="stop1220" xml:space="preserve" />
    </radialGradient>
    <path d="M162.467 124.961 C162.603 126.551 162.582 129.718 162.446 132.04 C162.311 134.363 162.061 135.843 161.509 137.072 C160.957 138.301 160.103 139.28 158.321 140.176 C156.54 141.072 153.832 141.884 151.592 142.395 C149.353 142.905 147.582 143.113 144.884 143.613 C142.186 144.113 138.561 144.905 136.04 145.78 C133.519 146.655 132.103 147.613 130.644 149.009 C129.186 150.405 127.686 152.238 126.655 153.78 C125.623 155.322 125.061 156.572 124.044 160.922 C123.026 165.273 121.554 172.724 122.29 177.089 C123.026 181.454 125.971 182.731 136.943 185.453 C147.915 188.176 166.915 192.343 184.797 191.537 C202.679 190.731 219.443 184.954 227.964 181.787 C236.485 178.62 236.762 178.065 236.353 173.204 C235.943 168.343 234.846 159.176 231.627 153.45 C228.408 147.724 223.068 145.44 217.818 143.968 C212.568 142.495 207.408 141.836 203.467 141.034 C199.526 140.231 196.804 139.287 195.082 136.343 C193.36 133.398 192.637 128.454 192.026 125.843 C191.415 123.231 190.915 122.954 186.36 122.731 C181.804 122.509 173.193 122.343 168.415 122.453 C163.637 122.565 162.693 122.954 162.367 123.155 C162.04 123.356 162.332 123.37 162.467 124.961 z" stroke="#D2B291" stroke-width="0.299998" stroke-linejoin="round" id="path1223" xml:space="preserve" connector-curvature="0" style="fill:url(#SVGID_Fill10_);" />
    <linearGradient x1="249.6659" y1="98.65194" x2="256.1899" y2="98.65194" gradientUnits="userSpaceOnUse" gradientTransform="scale(0.5444655, 1.836664)" id="SVGID_Fill11_" xml:space="preserve">
      <stop offset="0%" stop-color="#1F1F1F" stop-opacity="0.670588" id="stop1225" xml:space="preserve" />
      <stop offset="23.892%" stop-color="#1F1F1E" stop-opacity="0.545098" id="stop1227" xml:space="preserve" />
      <stop offset="46.8468%" stop-color="#1F1F1E" stop-opacity="0.415686" id="stop1229" xml:space="preserve" />
      <stop offset="85.5856%" stop-color="#1F1F1E" stop-opacity="0" id="stop1231" xml:space="preserve" />
    </linearGradient>
    <path d="M135.474 185.262 L132.849 184.435 L135.474 176.407 z" stroke-width="0.2" stroke-linejoin="round" id="path1234" xml:space="preserve" connector-curvature="0" style="fill:url(#SVGID_Fill11_);" />
    <linearGradient x1="403.9954" y1="98.1984" x2="410.5194" y2="98.1984" gradientUnits="userSpaceOnUse" gradientTransform="scale(0.5444655, 1.836664)" id="SVGID_Fill12_" xml:space="preserve">
      <stop offset="0%" stop-color="#1F1F1F" stop-opacity="0.670588" id="stop1236" xml:space="preserve" />
      <stop offset="23.892%" stop-color="#1F1F1E" stop-opacity="0.545098" id="stop1238" xml:space="preserve" />
      <stop offset="46.8468%" stop-color="#1F1F1E" stop-opacity="0.415686" id="stop1240" xml:space="preserve" />
      <stop offset="85.5856%" stop-color="#1F1F1E" stop-opacity="0" id="stop1242" xml:space="preserve" />
    </linearGradient>
    <path d="M220.422 184.429 L223.047 183.602 L220.422 175.574 z" stroke-width="0.2" stroke-linejoin="round" id="path1245" xml:space="preserve" connector-curvature="0" style="fill:url(#SVGID_Fill12_);" />
    <linearGradient x1="70.20893" y1="219.2925" x2="202.9312" y2="219.2925" gradientUnits="userSpaceOnUse" gradientTransform="scale(1.30415, 0.7667833)" id="SVGID_Stroke1_" xml:space="preserve">
      <stop offset="0%" stop-color="#B6B6B6" stop-opacity="1" id="stop1247" xml:space="preserve" />
      <stop offset="37.8378%" stop-color="#9D948B" stop-opacity="1" id="stop1249" xml:space="preserve" />
      <stop offset="69.5407%" stop-color="#999590" stop-opacity="1" id="stop1251" xml:space="preserve" />
      <stop offset="100%" stop-color="#969696" stop-opacity="1" id="stop1253" xml:space="preserve" />
    </linearGradient>
    <linearGradient x1="69.42907" y1="219.3256" x2="203.7124" y2="219.3256" gradientUnits="userSpaceOnUse" gradientTransform="scale(1.30415, 0.7667833)" id="SVGID_Fill13_" xml:space="preserve">
      <stop offset="0%" stop-color="#FFFFFF" stop-opacity="1" id="stop1256" xml:space="preserve" />
      <stop offset="46.3964%" stop-color="#F5CEAD" stop-opacity="1" id="stop1258" xml:space="preserve" />
      <stop offset="100%" stop-color="#FFFFFF" stop-opacity="1" id="stop1260" xml:space="preserve" />
    </linearGradient>
    <path d="M137.766 144.923 C139.929 144.336 144.245 143.193 146.273 142.776 C148.3 142.358 148.04 142.666 148.278 149.247 C148.516 155.829 149.252 168.685 149.755 175.3 C150.259 181.915 150.53 182.29 159.592 182.468 C168.655 182.645 186.509 182.624 195.707 182.415 C204.905 182.207 205.446 181.811 205.717 181.447 C205.988 181.082 205.988 180.749 206.415 174.27 C206.842 167.79 207.696 155.165 208.155 148.801 C208.613 142.436 208.676 142.332 208.884 142.218 C209.092 142.103 209.446 141.978 211.313 142.294 C213.179 142.61 216.557 143.367 218.32 143.797 C220.082 144.228 220.228 144.332 220.321 144.551 C220.415 144.77 220.457 145.103 220.511 151.738 C220.564 158.372 220.6301 171.308 220.5571 177.846 C220.483 184.384 220.2691 184.525 220.1001 184.692 C219.931 184.858 219.806 185.051 214.0811 186.681 C208.356 188.311 197.0311 191.379 183.011 191.666 C168.991 191.954 152.276 189.461 143.912 187.73 C135.547 185.999 135.5331 185.03 135.537 184.29 C135.5401 183.551 135.5611 183.04 135.564 176.65 C135.566 170.259 135.551 157.988 135.551 151.829 C135.551 145.671 135.566 145.624 135.579 145.584 L135.613 145.478 z" stroke="url(#SVGID_Stroke1_)" stroke-linejoin="round" id="path1263" xml:space="preserve" connector-curvature="0" style="fill:url(#SVGID_Fill13_);" />
    <g id="g1287" xml:space="preserve">
      <linearGradient x1="93.03398" y1="237.3247" x2="118.2443" y2="237.3247" gradientUnits="userSpaceOnUse" gradientTransform="scale(1.605478, 0.6228675)" id="SVGID_Fill14_" xml:space="preserve">
        <stop offset="0.45045%" stop-color="#E7B58A" stop-opacity="0" id="stop1265" xml:space="preserve" />
        <stop offset="48.6486%" stop-color="#E8B68B" stop-opacity="0.670588" id="stop1267" xml:space="preserve" />
        <stop offset="74.6082%" stop-color="#E7B58A" stop-opacity="0.337255" id="stop1269" xml:space="preserve" />
        <stop offset="99.5495%" stop-color="#E7B58A" stop-opacity="0" id="stop1271" xml:space="preserve" />
      </linearGradient>
      <path d="M164.122 152.417 C172.079 155.463 178.371 158.342 178.177 158.85 C177.983 159.357 171.376 157.299 163.419 154.254 C155.463 151.209 149.17 148.329 149.364 147.822 C149.558 147.314 156.165 149.372 164.122 152.417 z" stroke-width="0.2" stroke-linejoin="round" id="path1274" xml:space="preserve" connector-curvature="0" style="fill:url(#SVGID_Fill14_);" />
      <linearGradient x1="93.17465" y1="237.525" x2="118.9689" y2="237.525" gradientUnits="userSpaceOnUse" gradientTransform="scale(1.59713, 0.6261232)" id="SVGID_Fill15_" xml:space="preserve">
        <stop offset="0.45045%" stop-color="#D3C5B5" stop-opacity="0" id="stop1276" xml:space="preserve" />
        <stop offset="48.6486%" stop-color="#ECCAA4" stop-opacity="1" id="stop1278" xml:space="preserve" />
        <stop offset="74.6082%" stop-color="#DFC2A2" stop-opacity="0.501961" id="stop1280" xml:space="preserve" />
        <stop offset="99.5495%" stop-color="#D3BBA0" stop-opacity="0" id="stop1282" xml:space="preserve" />
      </linearGradient>
      <path d="M164.033 153.101 C172.174 156.217 178.557 159.307 178.29 160.002 C178.024 160.698 171.209 158.736 163.069 155.62 C154.929 152.505 148.546 149.415 148.812 148.72 C149.078 148.024 155.893 149.985 164.033 153.101 z" stroke-width="0.2" stroke-linejoin="round" id="path1285" xml:space="preserve" connector-curvature="0" style="fill:url(#SVGID_Fill15_);" />
    </g>
    <g id="g1311" xml:space="preserve">
      <linearGradient x1="132.97" y1="226.2131" x2="153.1418" y2="226.2131" gradientUnits="userSpaceOnUse" gradientTransform="scale(1.525931, 0.6553379)" id="SVGID_Fill16_" xml:space="preserve">
        <stop offset="0.45045%" stop-color="#E7B58A" stop-opacity="0" id="stop1289" xml:space="preserve" />
        <stop offset="48.6486%" stop-color="#E8B68B" stop-opacity="0.670588" id="stop1291" xml:space="preserve" />
        <stop offset="74.6082%" stop-color="#E7B58A" stop-opacity="0.337255" id="stop1293" xml:space="preserve" />
        <stop offset="99.5495%" stop-color="#E7B58A" stop-opacity="0" id="stop1295" xml:space="preserve" />
      </linearGradient>
      <path d="M191.68 152.115 C185.629 154.679 180.843 157.103 180.991 157.53 C181.139 157.957 186.164 156.225 192.215 153.661 C198.265 151.098 203.051 148.673 202.903 148.246 C202.756 147.819 197.731 149.551 191.68 152.115 z" stroke-width="0.2" stroke-linejoin="round" id="path1298" xml:space="preserve" connector-curvature="0" style="fill:url(#SVGID_Fill16_);" />
      <linearGradient x1="133.9405" y1="226.1875" x2="154.5803" y2="226.1875" gradientUnits="userSpaceOnUse" gradientTransform="scale(1.518017, 0.6587542)" id="SVGID_Fill17_" xml:space="preserve">
        <stop offset="0.45045%" stop-color="#D3C5B5" stop-opacity="0" id="stop1300" xml:space="preserve" />
        <stop offset="48.6486%" stop-color="#ECCAA4" stop-opacity="1" id="stop1302" xml:space="preserve" />
        <stop offset="74.6082%" stop-color="#DFC2A2" stop-opacity="0.501961" id="stop1304" xml:space="preserve" />
        <stop offset="99.5495%" stop-color="#D3BBA0" stop-opacity="0" id="stop1306" xml:space="preserve" />
      </linearGradient>
      <path d="M191.747 152.691 C185.556 155.314 180.702 157.915 180.905 158.5 C181.107 159.086 186.29 157.434 192.481 154.812 C198.672 152.189 203.526 149.588 203.324 149.002 C203.121 148.416 197.939 150.068 191.747 152.691 z" stroke-width="0.2" stroke-linejoin="round" id="path1309" xml:space="preserve" connector-curvature="0" style="fill:url(#SVGID_Fill17_);" />
    </g>
    <radialGradient cx="179.6" cy="157.262" r="5.34723" fx="179.6" fy="157.262" gradientUnits="userSpaceOnUse" id="SVGID_Fill18_" xml:space="preserve">
      <stop offset="0%" stop-color="#E3DBD3" stop-opacity="1" id="stop1313" xml:space="preserve" />
      <stop offset="99.0991%" stop-color="#FFFFFF" stop-opacity="0" id="stop1315" xml:space="preserve" />
    </radialGradient>
    <path d="M179.6 153.678 C182.442 153.678 184.745 155.283 184.745 157.262 C184.745 159.241 182.441 160.845 179.6 160.845 C176.758 160.845 174.454 159.241 174.454 157.262 C174.454 155.283 176.757 153.678 179.6 153.678 z" stroke-width="0.2" stroke-linejoin="round" id="path1318" xml:space="preserve" connector-curvature="0" style="fill:url(#SVGID_Fill18_);" />
    <g id="g1362" xml:space="preserve">
      <linearGradient x1="326.5841" y1="95.86848" x2="343.2408" y2="95.86848" gradientUnits="userSpaceOnUse" gradientTransform="scale(0.6091335, 1.641676)" id="SVGID_Fill19_" xml:space="preserve">
        <stop offset="0%" stop-color="#5A310F" stop-opacity="1" id="stop1320" xml:space="preserve" />
        <stop offset="53.6036%" stop-color="#713400" stop-opacity="1" id="stop1322" xml:space="preserve" />
        <stop offset="100%" stop-color="#46390F" stop-opacity="1" id="stop1324" xml:space="preserve" />
      </linearGradient>
      <path d="M193.005 120.966 C191.978 125.105 192.144 129.383 192.061 133.66 C191.978 137.938 191.644 142.216 191.2 146.091 C190.755 149.966 190.2 153.438 189.394 157.216 C188.589 160.994 187.533 165.077 186.686 168.091 C185.839 171.105 185.2 173.049 185.047 174.494 C184.894 175.938 185.228 176.882 186.228 177.604 C187.228 178.327 188.894 178.827 191.991 178.883 C195.089 178.938 199.616 178.549 203.019 177.299 C206.422 176.049 208.7 173.938 209.797 172.452 C210.894 170.966 210.811 170.105 210.505 168.883 C210.2 167.66 209.672 166.077 208.797 162.98 C207.922 159.883 206.7 155.271 205.325 151.591 C203.95 147.91 202.422 145.16 201.575 142.577 C200.728 139.994 200.561 137.577 200.325 135.091 C200.089 132.605 199.783 130.049 199.651 126.403 C199.519 122.758 199.561 118.021 199.478 115.077 C199.394 112.133 199.186 110.98 198.998 110.237 C198.811 109.494 198.644 109.16 197.45 110.994 C196.255 112.827 194.033 116.827 193.005 120.966 z" stroke-width="0.2" stroke-linejoin="round" id="path1327" xml:space="preserve" connector-curvature="0" style="fill:url(#SVGID_Fill19_);" />
      <g id="g1338" xml:space="preserve">
        <path d="M209.017 168.148 C208.059 165.461 206.169 159.978 204.397 154.31 C202.625 148.643 200.971 142.791 200.211 139.906 C199.451 137.022 199.585 137.104 200.174 139.123 C200.764 141.143 201.808 145.101 202.668 148.072 C203.527 151.042 204.201 153.027 204.888 155.058 C205.575 157.089 206.275 159.168 207.134 161.769 C207.992 164.37 209.009 167.492 209.504 169.108 C210 170.724 209.974 170.835 209.017 168.148 z" fill-opacity="0.623529" stroke-width="0.2" stroke-linejoin="round" id="path1329" xml:space="preserve" connector-curvature="0" style="fill:#3F2305;" />
        <radialGradient cx="204.714" cy="153.941" r="19.3578" fx="204.714" fy="153.941" gradientUnits="userSpaceOnUse" gradientTransform="rotate(73.33865, 204.7136, 153.9414)" id="SVGID_Fill20_" xml:space="preserve">
          <stop offset="0%" stop-color="#5C512B" stop-opacity="0.623529" id="stop1331" xml:space="preserve" />
          <stop offset="100%" stop-color="#88694D" stop-opacity="0.623529" id="stop1333" xml:space="preserve" />
        </radialGradient>
        <path d="M208.468 168.364 C207.166 165.698 204.8 160.191 203.045 154.488 C201.29 148.785 200.147 142.887 199.726 140.015 C199.305 137.142 199.606 137.296 200.195 139.316 C200.784 141.336 201.663 145.222 202.405 148.163 C203.147 151.104 203.753 153.1 204.404 155.128 C205.055 157.157 205.751 159.218 206.732 161.815 C207.713 164.412 208.979 167.546 209.494 169.2 C210.008 170.855 209.771 171.03 208.468 168.364 z" stroke-width="0.2" stroke-linejoin="round" id="path1336" xml:space="preserve" connector-curvature="0" style="fill:url(#SVGID_Fill20_);" />
      </g>
      <g id="g1349" xml:space="preserve">
        <path d="M192.239 171.329 C192.551 168.144 193.113 161.665 193.487 155.025 C193.861 148.385 194.046 141.583 194.073 138.247 C194.101 134.911 193.972 135.041 193.887 137.395 C193.802 139.748 193.761 144.325 193.645 147.784 C193.529 151.243 193.337 153.584 193.143 155.981 C192.95 158.377 192.756 160.828 192.532 163.89 C192.309 166.951 192.056 170.622 191.961 172.512 C191.865 174.403 191.927 174.513 192.239 171.329 z" fill-opacity="0.623529" stroke-width="0.2" stroke-linejoin="round" id="path1340" xml:space="preserve" connector-curvature="0" style="fill:#3F2305;" />
        <radialGradient cx="193.017" cy="154.727" r="33.7034" fx="193.017" fy="154.727" gradientUnits="userSpaceOnUse" gradientTransform="rotate(92.44006, 193.0168, 154.7269)" id="SVGID_Fill21_" xml:space="preserve">
          <stop offset="0%" stop-color="#5C512B" stop-opacity="0.623529" id="stop1342" xml:space="preserve" />
          <stop offset="100%" stop-color="#88694D" stop-opacity="0.623529" id="stop1344" xml:space="preserve" />
        </radialGradient>
        <path d="M192.929 171.391 C193.641 168.122 194.742 161.469 195.085 154.796 C195.429 148.123 195.015 141.43 194.659 138.213 C194.303 134.996 194.004 135.255 193.919 137.608 C193.834 139.961 193.963 144.41 193.972 147.801 C193.981 151.191 193.87 153.524 193.717 155.906 C193.564 158.288 193.37 160.719 193.005 163.814 C192.641 166.91 192.106 170.67 192 172.608 C191.894 174.545 192.217 174.66 192.929 171.391 z" stroke-width="0.2" stroke-linejoin="round" id="path1347" xml:space="preserve" connector-curvature="0" style="fill:url(#SVGID_Fill21_);" />
      </g>
      <g id="g1360" xml:space="preserve">
        <path d="M198.816 174.086 C198.878 172.457 198.959 169.149 198.915 165.779 C198.871 162.41 198.701 158.979 198.578 157.303 C198.455 155.626 198.379 155.705 198.424 156.894 C198.47 158.083 198.637 160.384 198.71 162.131 C198.782 163.878 198.76 165.072 198.739 166.294 C198.718 167.516 198.699 168.766 198.687 170.324 C198.675 171.883 198.671 173.75 198.691 174.708 C198.71 175.667 198.753 175.716 198.816 174.086 z" fill-opacity="0.623529" stroke-width="0.2" stroke-linejoin="round" id="path1351" xml:space="preserve" connector-curvature="0" style="fill:#3F2305;" />
        <radialGradient cx="198.606" cy="165.678" r="19.8141" fx="198.606" fy="165.678" gradientUnits="userSpaceOnUse" gradientTransform="rotate(91.00108, 198.6065, 165.6777)" id="SVGID_Fill22_" xml:space="preserve">
          <stop offset="0%" stop-color="#5C512B" stop-opacity="0.623529" id="stop1353" xml:space="preserve" />
          <stop offset="100%" stop-color="#88694D" stop-opacity="0.623529" id="stop1355" xml:space="preserve" />
        </radialGradient>
        <path d="M199.253 174.046 C199.564 172.333 199.977 168.883 199.913 165.5 C199.848 162.117 199.306 158.802 198.946 157.225 C198.586 155.648 198.408 155.808 198.454 156.997 C198.499 158.187 198.768 160.405 198.917 162.105 C199.065 163.805 199.093 164.987 199.097 166.198 C199.102 167.408 199.081 168.647 198.982 170.238 C198.883 171.828 198.704 173.769 198.719 174.752 C198.734 175.735 198.942 175.759 199.253 174.046 z" stroke-width="0.2" stroke-linejoin="round" id="path1358" xml:space="preserve" connector-curvature="0" style="fill:url(#SVGID_Fill22_);" />
      </g>
    </g>
    <radialGradient cx="177.254" cy="101.727" r="35.125" fx="177.254" fy="101.727" gradientUnits="userSpaceOnUse" id="SVGID_Fill23_" xml:space="preserve">
      <stop offset="0%" stop-color="#F4E0CB" stop-opacity="1" id="stop1364" xml:space="preserve" />
      <stop offset="100%" stop-color="#9D8062" stop-opacity="1" id="stop1366" xml:space="preserve" />
    </radialGradient>
    <path d="M177.254 66.6019 C189.956 66.6019 200.254 82.3279 200.254 101.727 C200.254 108.849 198.598 115.824 195.837 120.935 C189.67 132.352 185.293 136.852 177.254 136.852 C170.594 136.852 165.37 131.51 161.17 124.602 C157.359 118.333 154.254 110.955 154.254 101.727 C154.254 82.32789 164.551 66.60189 177.254 66.60189 z" stroke-width="0.2" stroke-linejoin="round" id="path1369" xml:space="preserve" connector-curvature="0" style="fill:url(#SVGID_Fill23_);" />
    <g id="g1392" xml:space="preserve">
      <radialGradient cx="200.816" cy="103.613" r="8.625" fx="200.816" fy="103.613" gradientUnits="userSpaceOnUse" id="SVGID_Fill24_" xml:space="preserve">
        <stop offset="0%" stop-color="#E0D3C5" stop-opacity="1" id="stop1371" xml:space="preserve" />
        <stop offset="100%" stop-color="#E8BE93" stop-opacity="1" id="stop1373" xml:space="preserve" />
      </radialGradient>
      <path d="M198.889 110.863 C199.566 109.759 200.691 107.279 201.566 105.019 C202.441 102.759 203.066 100.717 203.41 99.2064 C203.754 97.696 203.816 96.7168 203.712 96.10229 C203.608 95.48769 203.337 95.23769 203.066 95.17519 C202.795 95.11269 202.525 95.23769 201.983 96.10229 C201.441 96.9668 200.629 98.57099 199.879 101.248 C199.129 103.925 198.441 107.675 198.212 109.686 C197.983 111.696 198.212 111.967 198.889 110.863 z" stroke="#D2B291" stroke-width="0.299998" stroke-linejoin="round" id="path1376" xml:space="preserve" connector-curvature="0" style="fill:url(#SVGID_Fill24_);" />
      <radialGradient cx="153.878" cy="104.148" r="8.625" fx="153.878" fy="104.148" gradientUnits="userSpaceOnUse" gradientTransform="rotate(180, 153.8778, 104.1482)" id="SVGID_Fill25_" xml:space="preserve">
        <stop offset="0%" stop-color="#E0D3C5" stop-opacity="1" id="stop1378" xml:space="preserve" />
        <stop offset="100%" stop-color="#E8BE93" stop-opacity="1" id="stop1380" xml:space="preserve" />
      </radialGradient>
      <path d="M155.749 111.439 C155.017 110.376 153.781 107.979 152.865 105.787 C151.948 103.595 151.351 101.609 151.063 100.058 C150.774 98.5063 150.795 97.3896 150.94 96.7064 C151.086 96.0229 151.357 95.7729 151.628 95.7104 C151.899 95.6479 152.169 95.7729 152.711 96.6376 C153.253 97.5022 154.065 99.10629 154.815 101.783 C155.565 104.46 156.253 108.21 156.482 110.221 C156.711 112.231 156.482 112.502 155.749 111.439 z" stroke="#D2B291" stroke-width="0.299998" stroke-linejoin="round" id="path1383" xml:space="preserve" connector-curvature="0" style="fill:url(#SVGID_Fill25_);" />
      <radialGradient cx="177.254" cy="98.7269" r="35.125" fx="177.254" fy="98.7269" gradientUnits="userSpaceOnUse" id="SVGID_Fill26_" xml:space="preserve">
        <stop offset="0%" stop-color="#F4E0CB" stop-opacity="1" id="stop1385" xml:space="preserve" />
        <stop offset="100%" stop-color="#E8BE93" stop-opacity="1" id="stop1387" xml:space="preserve" />
      </radialGradient>
      <path d="M177.254 63.6023 C189.956 63.6023 200.254 79.32809 200.254 98.72729 C200.254 105.849 198.598 112.824 195.837 117.936 C189.67 129.352 185.293 133.852 177.254 133.852 C170.594 133.852 165.37 128.51 161.17 121.602 C157.359 115.334 154.254 107.956 154.254 98.72729 C154.254 79.32809 164.551 63.60229 177.254 63.60229 z" stroke="#D2B291" stroke-linejoin="round" id="path1390" xml:space="preserve" connector-curvature="0" style="fill:url(#SVGID_Fill26_);" />
    </g>
    <g id="g1435" xml:space="preserve">
      <radialGradient cx="177.129" cy="82.332" r="25.25" fx="177.129" fy="82.332" gradientUnits="userSpaceOnUse" id="SVGID_Fill27_" xml:space="preserve">
        <stop offset="0%" stop-color="#46390F" stop-opacity="1" id="stop1394" xml:space="preserve" />
        <stop offset="98.64861%" stop-color="#4C3016" stop-opacity="1" id="stop1396" xml:space="preserve" />
      </radialGradient>
      <path d="M153.955 100.644 C153.588 99.9882 153.255 98.7382 153.041 97.8232 C152.828 96.90839 152.733 96.3285 152.483 95.78339 C152.233 95.2383 151.827 94.72789 151.639 93.57169 C151.452 92.41539 151.483 90.6133 151.57 89.0126 C151.656 87.4119 151.799 86.0126 152.502 83.4832 C153.205 80.9535 154.469 77.2938 156.809 74.0542 C159.149 70.8147 162.566 67.9954 165.757 66.2627 C168.948 64.53 171.913 63.884 175.104 63.7173 C178.295 63.5507 181.712 63.8632 184.587 64.64439 C187.462 65.4257 189.795 66.6757 192.441 68.95689 C195.087 71.2382 198.045 74.5507 199.691 77.48819 C201.337 80.42569 201.67 82.98819 201.9 86.11319 C202.129 89.23819 202.254 92.92569 202.222 95.44649 C202.191 97.96729 202.004 99.32149 201.795 100.009 C201.587 100.697 201.358 100.717 200.775 100.686 C200.191 100.655 199.254 100.572 198.733 99.84229 C198.212 99.11319 198.108 97.73819 197.92 96.30069 C197.733 94.86319 197.462 93.36319 196.493 91.50899 C195.525 89.65479 193.858 87.44649 192.066 85.58189 C190.275 83.71729 188.358 82.19649 187.108 81.26939 C185.858 80.34229 185.275 80.00899 185.15 79.41528 C185.025 78.82148 185.358 77.96729 185.785 76.92568 C186.212 75.88398 186.733 74.65479 186.952 73.42568 C187.17 72.19648 187.087 70.96729 186.983 70.45688 C186.879 69.94648 186.754 70.15478 186.577 70.81098 C186.4 71.46729 186.17 72.57148 185.587 73.93598 C185.004 75.30068 184.066 76.92568 182.941 78.25898 C181.816 79.59228 180.504 80.63398 178.597 81.51938 C176.691 82.40478 174.191 83.13398 172.066 83.87348 C169.941 84.61318 168.191 85.36318 166.462 86.49848 C164.733 87.63398 163.025 89.15479 161.493 90.57148 C159.962 91.98818 158.608 93.30068 157.733 94.32148 C156.858 95.34228 156.462 96.07148 156.202 97.12348 C155.941 98.17568 155.816 99.55068 155.66 100.322 C155.504 101.092 155.316 101.259 155.021 101.311 C154.726 101.363 154.323 101.301 153.955 100.644 z" stroke-width="0.2" stroke-linejoin="round" id="path1399" xml:space="preserve" connector-curvature="0" style="fill:url(#SVGID_Fill27_);" />
      <linearGradient x1="166.6162" y1="75.82771" x2="181.5803" y2="75.82771" gradientUnits="userSpaceOnUse" gradientTransform="scale(0.9925893, 1.007466)" id="SVGID_Fill28_" xml:space="preserve">
        <stop offset="0%" stop-color="#623507" stop-opacity="0" id="stop1401" xml:space="preserve" />
        <stop offset="31.5315%" stop-color="#723400" stop-opacity="0.368627" id="stop1403" xml:space="preserve" />
        <stop offset="63.5135%" stop-color="#643807" stop-opacity="0.368627" id="stop1405" xml:space="preserve" />
        <stop offset="81.6622%" stop-color="#5C3609" stop-opacity="0.184314" id="stop1407" xml:space="preserve" />
        <stop offset="99.0991%" stop-color="#54340C" stop-opacity="0" id="stop1409" xml:space="preserve" />
      </linearGradient>
      <path d="M176.835 66.1683 L180.313 72.81319 C181.337 74.77039 180.581 77.18749 178.624 78.2122 L172.531 81.4014 C170.574 82.4257 168.157 81.6697 167.132 79.7123 L163.654 73.0676 C162.63 71.1102 163.386 68.6931 165.343 67.66879 L171.436 64.47949 C173.393 63.45499 175.811 64.21119 176.835 66.16829 z" stroke-width="0.2" stroke-linejoin="round" id="path1412" xml:space="preserve" connector-curvature="0" style="fill:url(#SVGID_Fill28_);" />
      <radialGradient cx="171.149" cy="82.3738" r="15.4792" fx="171.149" fy="82.3738" gradientUnits="userSpaceOnUse" id="SVGID_Fill29_" xml:space="preserve">
        <stop offset="0%" stop-color="#A6977B" stop-opacity="1" id="stop1414" xml:space="preserve" />
        <stop offset="98.64861%" stop-color="#8B592D" stop-opacity="1" id="stop1416" xml:space="preserve" />
      </radialGradient>
      <path d="M156.754 92.7869 C157.754 91.5228 159.712 89.1619 161.872 87.2244 C164.031 85.2869 166.393 83.7728 168.656 82.6132 C170.92 81.45351 173.087 80.6478 174.913 80.06451 C176.74 79.48121 178.226 79.12011 179.809 78.06451 C181.393 77.009 183.073 75.259 184.226 73.8597 C185.379 72.4603 186.004 71.4119 185.775 71.9187 C185.545 72.4257 184.462 74.4882 183.302 76.0957 C182.143 77.70351 180.906 78.8562 179.156 79.6687 C177.406 80.4812 175.143 80.9535 172.948 81.7103 C170.754 82.46731 168.629 83.509 166.573 84.7937 C164.518 86.0785 162.531 87.6062 160.92 89.1478 C159.309 90.68951 158.073 92.2451 157.261 93.1201 C156.448 93.9951 156.059 94.1895 155.886 94.2035 C155.712 94.2173 155.754 94.0507 156.754 92.7869 z" stroke-width="0.2" stroke-linejoin="round" id="path1419" xml:space="preserve" connector-curvature="0" style="fill:url(#SVGID_Fill29_);" />
      <radialGradient cx="170.274" cy="78.0613" r="10.5938" fx="170.274" fy="78.0613" gradientUnits="userSpaceOnUse" id="SVGID_Fill30_" xml:space="preserve">
        <stop offset="0%" stop-color="#5C512B" stop-opacity="0.623529" id="stop1421" xml:space="preserve" />
        <stop offset="100%" stop-color="#88694D" stop-opacity="0.623529" id="stop1423" xml:space="preserve" />
      </radialGradient>
      <path d="M178.816 73.061 C176.847 73.3632 172.952 74.1965 169.441 75.9882 C165.931 77.7798 162.806 80.5298 161.347 81.95689 C159.889 83.384 160.097 83.4882 161.241 82.68349 C162.386 81.87879 164.465 80.1654 166.16 78.9744 C167.854 77.78339 169.163 77.115 170.426 76.5029 C171.688 75.891 172.903 75.3353 174.636 74.7972 C176.368 74.259 178.618 73.7382 179.722 73.3632 C180.827 72.9882 180.785 72.759 178.816 73.061 z" stroke-width="0.2" stroke-linejoin="round" id="path1426" xml:space="preserve" connector-curvature="0" style="fill:url(#SVGID_Fill30_);" />
      <radialGradient cx="168.51" cy="72.8304" r="14.3542" fx="168.51" fy="72.8304" gradientUnits="userSpaceOnUse" id="SVGID_Fill31_" xml:space="preserve">
        <stop offset="0%" stop-color="#5C512B" stop-opacity="0.533333" id="stop1428" xml:space="preserve" />
        <stop offset="100%" stop-color="#88694D" stop-opacity="0.533333" id="stop1430" xml:space="preserve" />
      </radialGradient>
      <path d="M182.014 67.0204 C179.799 66.4301 175.425 65.6287 170.422 68.0005 C165.419 70.37241 159.787 75.9174 157.112 78.77611 C154.438 81.63501 154.72 81.80741 156.27 80.47631 C157.821 79.14531 160.639 76.31101 162.935 74.34081 C165.23 72.37081 167.004 71.26511 168.996 70.13271 C170.987 69.00002 173.196 67.84061 175.79 67.54221 C178.384 67.24371 181.363 67.80641 182.824 67.89822 C184.286 67.98962 184.229 67.61062 182.014 67.02042 z" stroke-width="0.2" stroke-linejoin="round" id="path1433" xml:space="preserve" connector-curvature="0" style="fill:url(#SVGID_Fill31_);" />
    </g>
  </g>
</svg>