<?xml version="1.0" encoding="utf-8"?>
<!DOCTYPE svg PUBLIC "-//W3C//DTD SVG 1.1//EN" "http://www.w3.org/Graphics/SVG/1.1/DTD/svg11.dtd">
<svg x="0" y="0" width="48" height="48" overflow="hidden" viewBox="0, 0, 48, 48" preserveAspectRatio="xMidYMid"
     font-size="0" id="svg" xml:space="preserve" xmlns="http://www.w3.org/2000/svg"
     xmlns:xml="http://www.w3.org/XML/1998/namespace" version="1.1">
  <g transform="matrix(0.1892379, 0, 0, 0.234861, 3.951013, -1.75553)" id="g881" xml:space="preserve">
    <g id="g16" xml:space="preserve">
      <path d="M122.387 122.764 C123.637 124.597 125.553 127.93 126.345 130.93 C127.137 133.93 126.803 136.597 125.97 138.847 C125.137 141.097 123.803 142.93 121.803 144.472 C119.803 146.014 117.137 147.264 112.137 148.764 C107.137 150.264 99.8032 152.014 93.3866 153.93 C86.96999 155.847 81.46999 157.93 77.5532 160.347 C73.6366 162.764 71.3032 165.514 69.845 168.389 C68.3866 171.264 67.8032 174.264 67.845 177.43 C67.8866 180.597 68.5532 183.93 68.8032 185.597 C69.0532 187.264 68.8866 187.264 67.595 186.555 C66.3032 185.847 63.8866 184.43 61.4282 181.597 C58.97 178.764 56.47 174.514 52.8032 168.889 C49.1366 163.264 44.3032 156.264 41.1366 151.889 C37.97 147.514 36.47 145.764 34.47 144.264 C32.47 142.764 29.97 141.514 27.97 140.764 C25.97 140.014 24.47 139.764 23.72 139.43 C22.97 139.097 22.97 138.68 22.9282 136.805 C22.8866 134.93 22.8032 131.597 23.345 128.222 C23.8866 124.847 25.0532 121.43 26.845 118.514 C28.6366 115.597 31.0532 113.18 33.0116 111.347 C34.97 109.514 36.47 108.264 38.3866 106.972 C40.3032 105.68 42.6366 104.347 45.5116 103.139 C48.3866 101.93 51.8032 100.847 54.5116 100.264 C57.22 99.68028 59.22 99.59698 70.0116 103.014 C80.8032 106.43 100.387 113.347 110.47 116.972 C120.553 120.597 121.137 120.93 122.387 122.764 z" stroke="#000000" stroke-width="3" stroke-linejoin="round" id="path2" xml:space="preserve" connector-curvature="0" style="fill:#FFFFFF;" />
      <path d="M91.0266 133.588 C91.4989 133.379 92.58231 133.129 93.8879 132.921 C95.19341 132.713 96.7211 132.546 97.8877 132.407 C99.05441 132.268 99.8601 132.157 101.082 132.171 C102.304 132.185 103.943 132.324 105.86 132.796 C107.777 133.268 109.971 134.074 111.457 134.574 C112.943 135.074 113.721 135.268 114.36 135.129 C114.999 134.99 115.499 134.518 116.11 134.268 C116.721 134.018 117.443 133.99 118.499 133.977 C119.554 133.963 120.943 133.963 121.999 134.032 C123.054 134.101 123.777 134.24 124.43 134.574 C125.082 134.907 125.666 135.435 126.027 136.199 C126.388 136.963 126.527 137.963 126.305 139.004 C126.082 140.046 125.499 141.129 124.707 142.102 C123.916 143.074 122.916 143.935 121.443 144.782 C119.971 145.629 118.027 146.463 116.027 147.143 C114.027 147.824 111.971 148.351 110.777 148.588 C109.582 148.824 109.249 148.768 108.86 148.518 C108.471 148.268 108.027 147.824 106.86 146.893 C105.693 145.963 103.804 144.546 101.291 142.574 C98.7767 140.601 95.6377 138.074 93.7905 136.574 C91.9434 135.074 91.3877 134.601 91.0405 134.282 C90.6934 133.963 90.5544 133.796 91.0266 133.588 z" stroke="#000000" stroke-width="3" stroke-linejoin="round" id="path4" xml:space="preserve" connector-curvature="0" style="fill:#000000;" />
      <path d="M79.0823 122.727 C79.7211 123.157 80.7767 124.185 82.3739 125.726 C83.9711 127.268 86.1101 129.324 87.4296 130.615 C88.7489 131.907 89.2489 132.435 89.6099 132.81 C89.9711 133.185 90.19341 133.407 90.2905 133.546 C90.3877 133.685 90.36011 133.74 89.94341 133.796 C89.5267 133.851 88.72111 133.907 87.47111 134.074 C86.22111 134.24 84.52671 134.518 82.84621 135.004 C81.1655 135.49 79.49891 136.185 78.0546 136.879 C76.61011 137.574 75.3877 138.268 74.3599 138.893 C73.3323 139.518 72.4989 140.074 71.7349 140.602 C70.9711 141.129 70.2767 141.629 69.8323 141.949 C69.3877 142.268 69.1934 142.407 68.9851 142.435 C68.7767 142.463 68.5544 142.379 67.7766 141.754 C66.99889 141.129 65.6655 139.963 64.4016 138.754 C63.1377 137.546 61.9434 136.296 60.9989 135.324 C60.0544 134.351 59.3601 133.657 58.9155 133.199 C58.4711 132.74 58.2767 132.518 58.1934 132.351 C58.1101 132.185 58.1377 132.074 58.4573 131.713 C58.7767 131.351 59.3877 130.74 60.4711 129.99 C61.5544 129.24 63.1101 128.351 64.4573 127.671 C65.8044 126.99 66.9434 126.518 68.1101 126.046 C69.2767 125.574 70.4711 125.101 71.7211 124.601 C72.9711 124.101 74.2767 123.574 75.2351 123.24 C76.1934 122.907 76.8044 122.768 77.2073 122.699 C77.6101 122.629 77.8044 122.629 78.0127 122.546 C78.22109 122.463 78.4434 122.296 79.0823 122.727 z" stroke="#000000" stroke-width="3" stroke-linejoin="round" id="path6" xml:space="preserve" connector-curvature="0" style="fill:#000000;" />
      <path d="M64.1239 110.768 C64.5823 111.296 65.6655 112.296 67.0266 113.49 C68.3877 114.685 70.0267 116.074 71.45731 117.199 C72.8877 118.324 74.11011 119.185 75.06841 119.754 C76.0267 120.324 76.72111 120.601 77.33231 120.81 C77.94341 121.018 78.47111 121.157 79.0266 121.31 C79.58231 121.463 80.1655 121.629 81.08231 121.713 C81.99891 121.796 83.24891 121.796 84.23491 121.824 C85.22111 121.851 85.94341 121.907 86.38791 121.921 C86.83231 121.935 86.99891 121.907 86.30461 121.213 C85.61011 120.518 84.05441 119.157 81.92941 117.49 C79.80441 115.824 77.11012 113.851 75.15171 112.546 C73.19341 111.24 71.97111 110.601 71.19321 110.296 C70.4155 109.99 70.08231 110.018 69.1655 110.004 C68.2489 109.99 66.7489 109.935 65.7905 109.949 C64.83231 109.963 64.4155 110.046 64.1239 110.115 C63.8323 110.185 63.6655 110.24 64.1239 110.768 z" stroke="#000000" stroke-width="3" stroke-linejoin="round" id="path8" xml:space="preserve" connector-curvature="0" style="fill:#000000;" />
      <path d="M53.0962 102.06 C53.5267 102.324 54.2211 102.935 55.1794 103.699 C56.1377 104.463 57.3601 105.379 58.3462 106.115 C59.3323 106.851 60.0823 107.407 60.7766 107.977 C61.4711 108.546 62.1101 109.129 62.4851 109.504 C62.8601 109.879 62.9711 110.046 62.8739 110.213 C62.7767 110.379 62.4711 110.546 61.8739 110.81 C61.2767 111.074 60.3877 111.435 58.9294 112.115 C57.4711 112.796 55.4434 113.796 53.7212 114.685 C51.9989 115.574 50.5823 116.351 49.2629 117.157 C47.9434 117.963 46.7211 118.796 45.9711 119.352 C45.2211 119.907 44.9434 120.185 44.5405 120.157 C44.1377 120.129 43.6101 119.796 42.9712 119.324 C42.3323 118.851 41.5823 118.24 40.3879 117.227 C39.1934 116.213 37.5544 114.796 36.4294 113.824 C35.3044 112.851 34.6934 112.324 34.4712 111.907 C34.2489 111.49 34.4155 111.185 36.8599 109.796 C39.3044 108.407 44.0267 105.935 46.8739 104.476 C49.7211 103.018 50.6934 102.574 51.2905 102.324 C51.8877 102.074 52.1101 102.018 52.3046 101.949 C52.4989 101.879 52.6655 101.796 53.0962 102.06 z" stroke="#000000" stroke-width="3" stroke-linejoin="round" id="path10" xml:space="preserve" connector-curvature="0" style="fill:#000000;" />
      <path d="M33.8323 142.879 C33.5544 142.407 33.5267 141.935 33.5684 141.032 C33.6101 140.129 33.7211 138.796 33.9711 137.615 C34.2211 136.435 34.6101 135.407 35.1101 134.338 C35.6101 133.268 36.2211 132.157 36.9155 131.004 C37.6101 129.851 38.3877 128.657 39.1794 127.504 C39.9711 126.351 40.7767 125.24 41.4155 124.393 C42.0544 123.546 42.5267 122.963 42.9017 122.518 C43.2767 122.074 43.55439 121.768 43.73489 121.601 C43.91549 121.435 43.99889 121.407 44.13789 121.421 C44.2767 121.435 44.47109 121.49 45.29049 122.074 C46.11009 122.657 47.55439 123.768 49.16549 125.088 C50.77669 126.407 52.55439 127.935 53.81819 129.032 C55.08229 130.129 55.83229 130.796 56.27659 131.24 C56.72109 131.685 56.86009 131.907 56.90169 132.102 C56.94339 132.296 56.88769 132.463 56.42939 132.768 C55.97109 133.074 55.11009 133.518 54.34619 134.129 C53.58229 134.74 52.91549 135.518 52.04049 136.782 C51.16549 138.046 50.08229 139.796 49.19319 141.365 C48.30439 142.935 47.61009 144.324 47.02669 145.74 C46.44339 147.157 45.97109 148.601 45.56819 149.699 C45.16549 150.796 44.83229 151.546 44.60989 152.171 C44.38769 152.796 44.27669 153.296 44.17959 153.615 C44.08229 153.935 43.99889 154.074 43.87389 154.102 C43.74889 154.129 43.58229 154.046 42.73489 153.074 C41.88769 152.101 40.36009 150.24 38.98509 148.629 C37.61009 147.018 36.38769 145.657 35.51269 144.74 C34.63769 143.824 34.11009 143.351 33.83229 142.879 z" stroke="#000000" stroke-width="3" stroke-linejoin="round" id="path12" xml:space="preserve" connector-curvature="0" style="fill:#000000;" />
      <path d="M68.7767 187.31 C68.3601 187.213 67.6377 186.963 66.6655 186.449 C65.69341 185.935 64.47111 185.157 63.4155 184.088 C62.3601 183.018 61.4711 181.657 60.42941 179.963 C59.38771 178.268 58.19341 176.24 57.44341 174.477 C56.69341 172.713 56.38771 171.213 56.17941 169.879 C55.9711 168.546 55.8601 167.379 56.15171 165.463 C56.44341 163.546 57.13771 160.879 58.19321 158.088 C59.24891 155.296 60.66551 152.379 61.87391 150.379 C63.08231 148.379 64.08231 147.296 65.08231 146.254 C66.08231 145.213 67.08231 144.213 67.7905 143.685 C68.4989 143.157 68.9155 143.101 69.3046 143.171 C69.69341 143.24 70.05441 143.435 70.81821 144.074 C71.58231 144.713 72.74891 145.796 74.62391 147.393 C76.49891 148.99 79.08231 151.101 80.72121 152.504 C82.36011 153.907 83.05441 154.601 83.5405 155.185 C84.0267 155.768 84.30441 156.24 84.42941 156.602 C84.55441 156.963 84.5267 157.213 84.31841 157.421 C84.11011 157.629 83.72111 157.796 82.97111 158.088 C82.22111 158.379 81.11011 158.796 79.72121 159.49 C78.33231 160.185 76.6655 161.157 75.1796 162.365 C73.69341 163.574 72.3877 165.018 71.42941 166.338 C70.47111 167.657 69.86011 168.851 69.4296 170.31 C68.9989 171.768 68.7489 173.49 68.6239 175.185 C68.4989 176.879 68.4989 178.546 68.5962 180.254 C68.6934 181.963 68.8877 183.713 69.0405 184.893 C69.1934 186.074 69.3044 186.685 69.3044 187.018 C69.3044 187.351 69.1934 187.407 68.7767 187.31 z" stroke="#000000" stroke-width="3" stroke-linejoin="round" id="path14" xml:space="preserve" connector-curvature="0" style="fill:#000000;" />
    </g>
    <g id="g36" xml:space="preserve">
      <path d="M130.887 26.1944 C126.275 26.5832 117.498 28.3609 108.442 30.6941 C99.3866 33.0275 90.05319 35.9165 80.66429 39.6944 C71.27539 43.472 61.83109 48.1387 55.16439 52.0276 C48.49779 55.9165 44.60879 59.0275 41.33089 63.1941 C38.05319 67.3609 35.38659 72.58321 34.16429 75.472 C32.94209 78.3609 33.16439 78.9165 38.27559 83.1387 C43.38659 87.3609 53.38659 95.2498 62.05319 102.028 C70.71999 108.805 78.05319 114.472 86.44229 119.916 C94.83109 125.361 104.275 130.583 109.442 133.305 C114.609 136.027 115.498 136.25 115.664 135.805 C115.831 135.361 115.275 134.25 114.887 132.472 C114.498 130.694 114.275 128.25 115.72 125.861 C117.164 123.472 120.275 121.139 124.609 119.361 C128.942 117.583 134.498 116.361 140.053 115.694 C145.609 115.027 151.164 114.917 153.942 114.694 C156.72 114.472 156.72 114.139 153.331 99.6387 C149.942 85.1387 143.164 56.472 139.553 41.6387 C135.942 26.8053 135.498 25.8053 130.887 26.1944 z" stroke="#000000" stroke-width="3" stroke-linejoin="round" id="path18" xml:space="preserve" connector-curvature="0" style="fill:#FFFFFF;" />
      <path d="M107.254 32.4908 C105.848 32.8423 103.087 33.5973 100.415 34.3291 C97.7434 35.0608 95.16 35.7692 92.8475 36.4463 C90.535 37.12329 88.4934 37.7692 86.44131 38.4776 C84.38921 39.18579 82.32671 39.9567 81.31631 40.3838 C80.30591 40.81079 80.3475 40.8942 80.68091 41.4983 C81.01421 42.1026 81.63921 43.2276 82.61841 44.8421 C83.59751 46.4567 84.93091 48.5608 86.03501 50.4151 C87.13921 52.2692 88.01421 53.8733 88.81631 55.3838 C89.61842 56.8942 90.34751 58.3108 90.77471 59.1129 C91.20171 59.9151 91.32671 60.1026 91.38921 60.1963 C91.45171 60.2901 91.45171 60.2901 92.48291 59.9879 C93.51421 59.6858 95.57671 59.0817 97.69131 58.4463 C99.80591 57.8108 101.973 57.1442 104.077 56.5296 C106.181 55.9151 108.223 55.3526 110.045 54.8213 C111.868 54.2901 113.473 53.7901 114.681 53.3733 C115.889 52.9567 116.702 52.6233 117.087 52.3629 C117.473 52.1026 117.431 51.9151 117.014 50.9358 C116.598 49.9567 115.806 48.1858 114.993 46.3004 C114.181 44.4151 113.348 42.4151 112.535 40.5296 C111.723 38.6442 110.931 36.8733 110.4 35.7171 C109.868 34.5608 109.598 34.0192 109.41 33.6442 C109.223 33.2692 109.118 33.0608 109.025 32.8551 C108.931 32.6494 108.848 32.4464 108.78 32.3189 C108.712 32.1912 108.66 32.1392 107.254 32.4908 z" stroke="#000000" stroke-width="0.2" stroke-linejoin="round" id="path20" xml:space="preserve" connector-curvature="0" style="fill:#000000;" />
      <path d="M67.2278 71.562 C67.3528 71.4787 67.3528 71.39529 66.186 70.062 C65.01939 68.7287 62.686 66.14529 60.436 63.66619 C58.186 61.187 56.0194 58.812 54.5403 57.2495 C53.061 55.687 52.2694 54.937 51.811 54.687 C51.3528 54.437 51.2278 54.687 50.2485 55.4995 C49.2694 56.312 47.436 57.687 45.5819 59.312 C43.7278 60.937 41.8528 62.812 40.3528 64.6245 C38.8528 66.437 37.7278 68.187 36.8528 69.4995 C35.9778 70.812 35.3528 71.687 34.7903 72.89529 C34.2278 74.10369 33.7278 75.64529 33.4778 76.58279 C33.2278 77.52029 33.2278 77.85369 33.311 78.062 C33.3944 78.27029 33.561 78.3537 36.0819 80.3745 C38.6028 82.39529 43.4778 86.3537 46.1028 88.437 C48.7278 90.52029 49.1028 90.7287 49.311 90.77029 C49.5194 90.812 49.561 90.687 49.8528 89.95779 C50.1444 89.22869 50.686 87.89529 51.2485 86.72869 C51.811 85.56199 52.3944 84.56199 53.061 83.64529 C53.7278 82.72869 54.4778 81.89529 55.2278 81.062 C55.9778 80.2287 56.7278 79.39529 57.6444 78.4995 C58.561 77.6037 59.6444 76.64529 60.6653 75.83279 C61.686 75.02029 62.6444 74.35369 63.4569 73.79119 C64.2694 73.22869 64.936 72.77029 65.436 72.45779 C65.936 72.14529 66.2694 71.97869 66.561 71.85369 C66.85281 71.72869 67.10281 71.64529 67.22781 71.56199 z" stroke="#000000" stroke-linejoin="round" id="path22" xml:space="preserve" connector-curvature="0" style="fill:#000000;" />
      <path d="M81.6135 89.0876 C81.39481 89.1813 81.3739 89.2022 79.676 87.1292 C77.978 85.0563 74.603 80.8897 72.301 78.0251 C69.9989 75.1604 68.76981 73.5979 68.1655 72.7959 C67.5614 71.9938 67.58231 71.9522 68.13431 71.5459 C68.68641 71.1397 69.76981 70.3688 71.45731 69.3792 C73.14481 68.38969 75.43641 67.1813 77.3427 66.2438 C79.2489 65.3063 80.76981 64.63969 82.08231 64.0563 C83.39481 63.4729 84.49891 62.9729 85.56141 62.4938 C86.62391 62.0147 87.64481 61.5563 88.51981 61.1917 C89.39481 60.8272 90.12391 60.5563 90.5927 60.3688 C91.0614 60.1813 91.26981 60.0772 91.38431 60.0354 C91.49891 59.9938 91.51981 60.0147 91.80101 60.5354 C92.08231 61.0563 92.62391 62.0772 93.44681 63.5251 C94.26981 64.9729 95.37391 66.8479 96.81141 69.1917 C98.24891 71.53539 100.02 74.34789 101.114 76.08759 C102.207 77.82719 102.624 78.49379 102.832 78.86879 C103.041 79.24379 103.041 79.32719 102.676 79.50419 C102.311 79.68129 101.582 79.95219 100.166 80.55629 C98.74891 81.16039 96.64481 82.09789 94.88431 82.90009 C93.12391 83.70219 91.70731 84.36879 90.31141 85.01469 C88.91551 85.66039 87.54051 86.28539 86.26981 86.88969 C84.99891 87.4938 83.83231 88.07719 83.24891 88.3688 C82.66551 88.6604 82.66551 88.6604 82.45731 88.7438 C82.24891 88.82719 81.83231 88.9938 81.6135 89.0876 z" stroke="#000000" stroke-linejoin="round" id="path24" xml:space="preserve" connector-curvature="0" style="fill:#000000;" />
      <path d="M80.8948 89.3167 C80.9573 89.3063 80.9989 89.3272 81.6655 90.0772 C82.3323 90.8272 83.62389 92.3063 85.30099 94.3897 C86.978 96.4729 89.0405 99.1604 90.42599 101.004 C91.81139 102.848 92.5198 103.848 93.2073 104.785 C93.8948 105.723 94.5614 106.598 95.0198 107.15 C95.478 107.702 95.728 107.931 95.7489 108.108 C95.7698 108.285 95.5614 108.41 95.0718 108.858 C94.5823 109.306 93.8114 110.077 93.1343 110.973 C92.4573 111.869 91.8739 112.89 91.3948 113.963 C90.9155 115.035 90.5405 116.16 90.3218 117.327 C90.103 118.494 90.0405 119.702 90.0093 120.4 C89.978 121.098 89.978 121.285 88.4052 120.275 C86.8323 119.265 83.68639 117.056 80.11349 114.525 C76.5405 111.994 72.5405 109.14 70.42599 107.535 C68.31139 105.931 68.0823 105.577 67.98849 105.181 C67.8948 104.785 67.93639 104.348 68.103 103.577 C68.2698 102.806 68.56139 101.702 69.0093 100.754 C69.4573 99.80629 70.0614 99.01469 71.0093 97.86879 C71.9573 96.72289 73.2489 95.22289 74.3218 94.18129 C75.3948 93.13969 76.2489 92.55629 77.0302 91.98339 C77.81139 91.41039 78.5198 90.84789 79.11349 90.42089 C79.7073 89.99379 80.18639 89.70219 80.4677 89.53539 C80.74889 89.36879 80.8323 89.32719 80.8948 89.3167 z" stroke="#000000" stroke-linejoin="round" id="path26" xml:space="preserve" connector-curvature="0" style="fill:#000000;" />
      <path d="M114.634 98.5459 C114.603 98.4938 114.561 98.4729 113.999 98.6501 C113.436 98.8272 112.353 99.2022 111.03 99.7542 C109.707 100.306 108.145 101.035 106.843 101.671 C105.541 102.306 104.499 102.848 103.124 103.629 C101.749 104.41 100.041 105.431 98.8739 106.16 C97.7073 106.89 97.0823 107.327 96.7073 107.608 C96.3323 107.89 96.2073 108.015 96.5614 108.598 C96.9155 109.181 97.7489 110.223 99.2593 112.004 C100.77 113.785 102.957 116.306 105.041 118.692 C107.124 121.077 109.103 123.327 110.311 124.66 C111.52 125.994 111.957 126.41 112.572 126.775 C113.186 127.14 113.978 127.452 114.749 127.598 C115.52 127.744 116.27 127.723 117.218 127.035 C118.166 126.348 119.311 124.994 120.134 123.806 C120.957 122.619 121.457 121.598 121.853 120.827 C122.249 120.056 122.541 119.535 122.739 118.9 C122.936 118.265 123.041 117.515 123.009 116.858 C122.978 116.202 122.811 115.64 122.332 114.525 C121.853 113.41 121.061 111.744 120.134 109.723 C119.207 107.702 118.145 105.327 117.291 103.535 C116.436 101.744 115.791 100.535 115.447 99.88969 C115.103 99.24379 115.061 99.16039 114.989 99.06669 C114.916 98.97289 114.811 98.86879 114.749 98.77509 C114.686 98.68128 114.666 98.59789 114.634 98.54588 z" stroke="#000000" stroke-linejoin="round" id="path28" xml:space="preserve" connector-curvature="0" style="fill:#000000;" />
      <path d="M126.259 72.5876 C126.416 72.5979 126.436 72.6813 126.822 73.7751 C127.207 74.8688 127.957 76.9729 128.947 79.5979 C129.936 82.2229 131.166 85.3688 132.009 87.6397 C132.853 89.9104 133.311 91.3063 133.468 92.0042 C133.624 92.7022 133.478 92.7022 132.978 92.79591 C132.478 92.88971 131.624 93.07721 130.478 93.38971 C129.332 93.70221 127.895 94.13971 126.395 94.58761 C124.895 95.03541 123.332 95.4938 121.926 95.90011 C120.52 96.3063 119.27 96.66041 118.134 97.01471 C116.999 97.36881 115.978 97.72291 115.457 97.88971 C114.936 98.05631 114.916 98.03541 114.301 97.20221 C113.686 96.36881 112.478 94.72291 111.093 92.68131 C109.707 90.63971 108.145 88.20221 106.947 86.27512 C105.749 84.34792 104.916 82.93131 104.364 81.94172 C103.811 80.95222 103.541 80.38972 103.384 80.08762 C103.228 79.78542 103.186 79.74381 103.426 79.61881 C103.666 79.49381 104.186 79.28542 106.103 78.66042 C108.02 78.03542 111.332 76.99381 114.114 76.12922 C116.895 75.26472 119.145 74.57722 120.957 74.03542 C122.77 73.49381 124.145 73.09792 124.978 72.86881 C125.811 72.63971 126.103 72.57721 126.259 72.58762 z" stroke="#000000" stroke-linejoin="round" id="path30" xml:space="preserve" connector-curvature="0" style="fill:#000000;" />
      <path d="M139.186 48.5876 C139.082 48.5147 138.853 48.5147 137.832 48.5979 C136.811 48.6813 134.999 48.8479 132.895 49.1604 C130.791 49.4729 128.395 49.9313 126.03 50.4417 C123.666 50.9522 121.332 51.5147 119.957 51.8479 C118.582 52.1813 118.166 52.2854 118.218 52.9104 C118.27 53.5354 118.791 54.6813 119.384 56.0876 C119.978 57.4938 120.645 59.1604 121.332 60.7959 C122.02 62.4313 122.728 64.0354 123.405 65.5876 C124.082 67.1397 124.728 68.6397 125.155 69.6917 C125.582 70.7438 125.791 71.3479 125.936 71.7229 C126.082 72.0979 126.166 72.2438 126.228 72.3167 C126.291 72.3897 126.332 72.3897 126.676 72.3376 C127.02 72.2854 127.666 72.1813 128.999 71.9417 C130.332 71.7022 132.353 71.3272 134.03 70.9104 C135.707 70.4938 137.041 70.0354 138.228 69.6813 C139.416 69.32719 140.457 69.07719 141.395 68.9104 C142.332 68.7438 143.166 68.6604 143.739 68.6084 C144.311 68.5563 144.624 68.5354 144.77 68.4729 C144.916 68.4104 144.895 68.3063 144.009 65.2126 C143.124 62.1188 141.374 56.0354 140.436 52.8272 C139.499 49.6188 139.374 49.2854 139.322 49.0459 C139.27 48.8063 139.291 48.6604 139.186 48.5876 z" stroke="#000000" stroke-linejoin="round" id="path32" xml:space="preserve" connector-curvature="0" style="fill:#000000;" />
      <path d="M149.905 89.8688 C149.728 89.8063 149.457 89.82719 148.374 89.95219 C147.291 90.07719 145.395 90.3063 143.614 90.60839 C141.832 90.91039 140.166 91.28539 138.739 91.59789 C137.311 91.91039 136.124 92.16039 135.364 92.34789 C134.603 92.53539 134.27 92.66039 134.124 92.83759 C133.978 93.01469 134.02 93.24379 134.447 94.4417 C134.874 95.63969 135.686 97.8063 136.728 100.567 C137.77 103.327 139.041 106.681 139.905 108.9 C140.77 111.119 141.228 112.202 141.582 113.004 C141.936 113.806 142.186 114.327 142.895 114.546 C143.603 114.765 144.77 114.681 146.103 114.629 C147.436 114.577 148.936 114.556 150.374 114.546 C151.811 114.535 153.186 114.535 154.28 114.577 C155.374 114.619 156.186 114.702 156.593 114.744 L156.999 114.744 C156.999 114.702 156.999 114.619 155.884 110.567 C154.77 106.515 152.541 98.49379 151.416 94.4417 C150.291 90.38969 150.27 90.3063 150.218 90.1917 C150.166 90.07719 150.082 89.9313 149.905 89.8688 z" stroke="#000000" stroke-linejoin="round" id="path34" xml:space="preserve" connector-curvature="0" style="fill:#000000;" />
    </g>
    <path d="M168.666 157.461 C160.916 125.977 147.999 73.6158 141.624 47.4352 C135.249 21.2545 135.416 21.2545 136.499 21.1712 C137.582 21.0879 139.582 20.9212 140.582 20.9212 C141.582 20.9212 141.582 21.0879 149.499 52.4212 C157.416 83.75449 173.249 146.255 181.166 177.505 C189.082 208.755 189.082 208.755 187.989 208.947 C186.895 209.14 184.707 209.526 183.457 209.76 C182.207 209.994 181.895 210.078 180.447 204.815 C178.999 199.553 176.416 188.946 168.666 157.461 z" stroke="#000000" stroke-width="4" stroke-linejoin="round" id="path38" xml:space="preserve" connector-curvature="0" style="fill:#FFFFFF;" />
    <path d="M136.582 7.90054 C131.335 7.90054 127.082 11.4171 127.082 15.7547 C127.082 20.0923 131.335 23.6087 136.582 23.6087 C141.829 23.6087 146.082 20.0923 146.082 15.7547 C146.082 11.4171 141.829 7.90054 136.582 7.90054 z" stroke-width="0.2" stroke-linejoin="round" id="path40" xml:space="preserve" connector-curvature="0" style="fill:#000000;" />
    <path d="M138.062 9.81705 C134.506 9.81705 131.624 12.1397 131.624 15.0045 C131.624 17.8694 134.506 20.192 138.062 20.192 C141.617 20.192 144.499 17.8694 144.499 15.0045 C144.499 12.1397 141.617 9.817049 138.062 9.817049 z" stroke-width="0.2" stroke-linejoin="round" id="path42" xml:space="preserve" connector-curvature="0" style="fill:#FFFFFF;" />
  </g>
</svg>