<?xml version="1.0" encoding="utf-8"?>
<!DOCTYPE svg PUBLIC "-//W3C//DTD SVG 1.1//EN" "http://www.w3.org/Graphics/SVG/1.1/DTD/svg11.dtd">
<svg x="0" y="0" width="48" height="47.99681" overflow="hidden" viewBox="0, 0, 48, 47.99681"
     preserveAspectRatio="xMidYMid" font-size="0" id="svg" xml:space="preserve" xmlns="http://www.w3.org/2000/svg"
     xmlns:xml="http://www.w3.org/XML/1998/namespace" version="1.1">
  <g transform="matrix(0.7997046, 0, 0, 0.8809627, 0.0079323, 0.01245012)" id="g14" xml:space="preserve">
    <g id="g6" xml:space="preserve">
      <path d="M0.576172 11.8563 C0.107727 10.483 -0.053833 9.20154 0 7.58606 C0.053894 5.97046 0.32312 4.02112 1.52393 2.56189 C2.72482 1.10242 4.85727 0.133179 6.67331 -0.00012207 C8.48944 -0.133423 9.98911 0.569458 11.0217 1.88196 C12.0543 3.19446 12.6197 5.11707 13.0397 6.75671 C13.4598 8.39636 13.7344 9.75354 14.0898 11.0619 C14.4452 12.3705 14.8814 13.6306 15.4064 14.923 C15.9315 16.2155 16.5453 17.5402 17.1229 18.7047 C17.7004 19.869 18.2416 20.8734 18.5122 21.5262 C18.7828 22.1793 18.7828 22.4808 17.7058 23.3855 C16.6288 24.2902 14.4749 25.798 13.2525 26.6111 C12.0301 27.4242 11.7393 27.5426 11.2061 27.3219 C10.673 27.1012 9.89758 26.5411 8.83676 25.2325 C7.77594 23.924 6.42966 21.8668 5.34192 20.2299 C4.25415 18.5929 3.42487 17.3759 2.6225 16.035 C1.82013 14.6942 1.04468 13.2294 0.576172 11.8563 z" stroke-width="0.2" stroke-linejoin="round" id="path2" xml:space="preserve" connector-curvature="0" style="fill:#D56416;" />
      <path d="M14.3402 29.1636 C15.428 28.2966 17.4527 26.6703 18.5782 25.8842 C19.7036 25.098 19.9298 25.1517 20.2206 25.4103 C20.5114 25.6688 20.8668 26.1318 21.4214 26.8695 C21.9761 27.6073 22.73 28.6198 23.1016 29.702 C23.4731 30.7845 23.4623 31.9369 23.0719 32.8873 C22.6815 33.8378 21.9115 34.5863 20.8398 34.9686 C19.7683 35.351 18.3951 35.3671 17.4985 35.1328 C16.6019 34.8986 16.1819 34.4139 15.6003 33.7031 C15.0187 32.9923 14.2756 32.0553 13.8071 31.4414 C13.3386 30.8275 13.1447 30.5367 13.1232 30.3375 C13.1017 30.1383 13.2524 30.0306 14.3402 29.1636 z" stroke-width="0.2" stroke-linejoin="round" id="path4" xml:space="preserve" connector-curvature="0" style="fill:#D56416;" />
    </g>
    <g id="g12" xml:space="preserve">
      <path d="M56.8595 23.4459 C56.3047 22.1053 55.5798 21.0363 54.4727 19.8584 C53.3657 18.6807 51.8764 17.3944 50.011 17.0912 C48.1456 16.788 45.904 17.468 44.4521 18.567 C43.0001 19.6659 42.3377 21.184 42.4288 22.8514 C42.52 24.519 43.3646 26.3363 44.1318 27.8451 C44.899 29.3539 45.5887 30.5543 46.1857 31.7719 C46.7828 32.9893 47.2871 34.2236 47.7461 35.5409 C48.2051 36.8583 48.6187 38.2584 48.9538 39.5143 C49.2889 40.7703 49.5455 41.882 49.7733 42.5509 C50.0012 43.2198 50.2003 43.4464 51.6065 43.41479 C53.0127 43.38319 55.6259 43.0934 57.0809 42.89709 C58.5358 42.7007 58.8325 42.59769 59.0871 42.0798 C59.3417 41.5621 59.5543 40.6295 59.4871 38.9462 C59.4199 37.2631 59.0728 34.8292 58.8088 32.8815 C58.545 30.934 58.3643 29.4723 58.0816 27.9354 C57.7989 26.3988 57.4142 24.7867 56.8595 23.4459 z" stroke-width="0.2" stroke-linejoin="round" id="path8" xml:space="preserve" connector-curvature="0" style="fill:#D56416;" />
      <path d="M57.9492 45.5323 C56.5598 45.5994 53.9654 45.7147 52.601 45.8673 C51.2367 46.02 51.1024 46.2098 51.0546 46.5958 C51.0069 46.9821 51.0457 47.5646 51.1162 48.4847 C51.1868 49.4052 51.2889 50.6632 51.7245 51.7214 C52.1601 52.7797 52.9291 53.6381 53.8498 54.0941 C54.7706 54.5502 55.8431 54.6039 56.9004 54.1835 C57.9576 53.7631 58.9996 52.8687 59.5184 52.1007 C60.0371 51.3329 60.0326 50.6915 60 49.7737 C59.9675 48.8558 59.907 47.6615 59.8535 46.891 C59.8 46.1207 59.7537 45.7743 59.6383 45.6105 C59.5229 45.4467 59.3386 45.4652 57.9492 45.5323 z" stroke-width="0.2" stroke-linejoin="round" id="path10" xml:space="preserve" connector-curvature="0" style="fill:#D56416;" />
    </g>
  </g>
</svg>