<?xml version="1.0" encoding="utf-8"?>
<!DOCTYPE svg PUBLIC "-//W3C//DTD SVG 1.1//EN" "http://www.w3.org/Graphics/SVG/1.1/DTD/svg11.dtd">
<svg xmlns="http://www.w3.org/2000/svg" xmlns:xlink="http://www.w3.org/1999/xlink" version="1.1" baseProfile="full" width="257" height="257" viewBox="0 0 257.00 257.00" enable-background="new 0 0 257.00 257.00" xml:space="preserve">
	<g>
		<linearGradient id="SVGID_Fill1_" gradientUnits="objectBoundingBox" x1="0" y1="0.500002" x2="1" y2="0.500002">
			<stop offset="0.0186047" stop-color="#E3D191" stop-opacity="1"/>
			<stop offset="0.55814" stop-color="#E2AF00" stop-opacity="1"/>
			<stop offset="0.787252" stop-color="#AB7800" stop-opacity="1"/>
			<stop offset="1" stop-color="#744100" stop-opacity="1"/>
		</linearGradient>
		<path fill="url(#SVGID_Fill1_)" stroke-width="0.2" stroke-linejoin="round" d="M 98.5776,26.1908L 116.578,26.1908C 129.28,26.1908 139.578,36.4881 139.578,49.1908L 139.578,209.691C 139.578,222.393 129.28,232.691 116.578,232.691L 98.5776,232.691C 85.875,232.691 75.5776,222.393 75.5776,209.691L 75.5776,49.1908C 75.5776,36.4881 85.875,26.1908 98.5776,26.1908 Z "/>
		<linearGradient id="SVGID_Stroke1_" gradientUnits="objectBoundingBox" x1="0.135552" y1="0.382006" x2="1.08855" y2="0.382006" gradientTransform="rotate(15.690264 0.135552 0.382006)">
			<stop offset="0.0186047" stop-color="#CEBE83" stop-opacity="1"/>
			<stop offset="0.55814" stop-color="#C79C07" stop-opacity="1"/>
			<stop offset="0.787252" stop-color="#8F6604" stop-opacity="1"/>
			<stop offset="1" stop-color="#573101" stop-opacity="1"/>
		</linearGradient>
		<linearGradient id="SVGID_Fill2_" gradientUnits="objectBoundingBox" x1="0.118731" y1="0.370587" x2="1.11874" y2="0.370587" gradientTransform="rotate(15.000356 0.118731 0.370587)">
			<stop offset="0.0186047" stop-color="#E3D191" stop-opacity="1"/>
			<stop offset="0.55814" stop-color="#E2AF00" stop-opacity="1"/>
			<stop offset="0.787252" stop-color="#AB7800" stop-opacity="1"/>
			<stop offset="1" stop-color="#744100" stop-opacity="1"/>
		</linearGradient>
		<path fill="url(#SVGID_Fill2_)" stroke-width="3" stroke-linejoin="round" stroke="url(#SVGID_Stroke1_)" d="M 108.077,26.1915C 126.026,26.1915 140.577,33.1317 140.577,41.6917C 140.577,50.252 126.027,57.1917 108.077,57.1917C 90.1279,57.1917 75.5774,50.252 75.5774,41.6917C 75.5774,33.1317 90.1289,26.1915 108.077,26.1915 Z "/>
		<linearGradient id="SVGID_Stroke2_" gradientUnits="objectBoundingBox" x1="0" y1="0.5" x2="1" y2="0.5">
			<stop offset="0.0186047" stop-color="#D7B77E" stop-opacity="1"/>
			<stop offset="0.55814" stop-color="#D4B780" stop-opacity="1"/>
			<stop offset="0.787252" stop-color="#D7BC89" stop-opacity="1"/>
			<stop offset="1" stop-color="#DBC292" stop-opacity="1"/>
		</linearGradient>
		<linearGradient id="SVGID_Fill3_" gradientUnits="objectBoundingBox" x1="-0.0142857" y1="0.5" x2="1.01429" y2="0.5">
			<stop offset="0.0186047" stop-color="#D7B77E" stop-opacity="1"/>
			<stop offset="0.55814" stop-color="#D4B780" stop-opacity="1"/>
			<stop offset="0.787252" stop-color="#D7BC89" stop-opacity="1"/>
			<stop offset="1" stop-color="#DBC292" stop-opacity="1"/>
		</linearGradient>
		<path fill="url(#SVGID_Fill3_)" stroke-width="3" stroke-linejoin="round" stroke="url(#SVGID_Stroke2_)" d="M 119.078,69.1915L 119.078,129.191L 194.078,143.191L 224.078,126.191L 196.578,89.1915L 119.078,69.1915 Z "/>
		<linearGradient id="SVGID_Stroke3_" gradientUnits="objectBoundingBox" x1="0" y1="0.485328" x2="1" y2="0.485328">
			<stop offset="0.0186047" stop-color="#E5D5B4" stop-opacity="1"/>
			<stop offset="1" stop-color="#EFE4D0" stop-opacity="1"/>
		</linearGradient>
		<linearGradient id="SVGID_Fill4_" gradientUnits="objectBoundingBox" x1="-0.0168539" y1="0.484031" x2="1.01685" y2="0.484031">
			<stop offset="0.0186047" stop-color="#E5D5B4" stop-opacity="1"/>
			<stop offset="1" stop-color="#EFE4D0" stop-opacity="1"/>
		</linearGradient>
		<path fill="url(#SVGID_Fill4_)" stroke-width="3" stroke-linejoin="round" stroke="url(#SVGID_Stroke3_)" d="M 119.578,67.1915L 125.203,66.0247L 133.703,62.2747L 138.703,57.7747L 141.203,53.2747L 208.578,68.1915L 194.578,87.1915L 119.578,67.1915 Z "/>
		<linearGradient id="SVGID_Stroke4_" gradientUnits="objectBoundingBox" x1="0" y1="0.5" x2="1" y2="0.5">
			<stop offset="0.0186047" stop-color="#E5D5B4" stop-opacity="1"/>
			<stop offset="1" stop-color="#EFE4D0" stop-opacity="1"/>
		</linearGradient>
		<linearGradient id="SVGID_Fill5_" gradientUnits="objectBoundingBox" x1="-0.03125" y1="0.5" x2="1.03125" y2="0.5">
			<stop offset="0.0186047" stop-color="#E5D5B4" stop-opacity="1"/>
			<stop offset="1" stop-color="#EFE4D0" stop-opacity="1"/>
		</linearGradient>
		<path fill="url(#SVGID_Fill5_)" stroke-width="3" stroke-linejoin="round" stroke="url(#SVGID_Stroke4_)" d="M 208.578,68.1915L 241.578,110.191L 224.578,127.191L 193.578,87.1915L 208.578,68.1915 Z "/>
		<linearGradient id="SVGID_Stroke5_" gradientUnits="objectBoundingBox" x1="0.0473923" y1="0.485131" x2="1" y2="0.485131">
			<stop offset="0.0186047" stop-color="#D9BF8D" stop-opacity="1"/>
			<stop offset="1" stop-color="#D7B77E" stop-opacity="1"/>
		</linearGradient>
		<linearGradient id="SVGID_Fill6_" gradientUnits="objectBoundingBox" x1="0.0272265" y1="0.484616" x2="1.02228" y2="0.484616">
			<stop offset="0.0186047" stop-color="#D9BF8D" stop-opacity="1"/>
			<stop offset="1" stop-color="#D7B77E" stop-opacity="1"/>
		</linearGradient>
		<path fill="url(#SVGID_Fill6_)" stroke-width="3" stroke-linejoin="round" stroke="url(#SVGID_Stroke5_)" d="M 102.911,69.8582L 57.5776,103.858L 35.5776,154.525L 68.2441,156.525L 102.911,126.525L 102.911,69.8582 Z "/>
		<linearGradient id="SVGID_Stroke6_" gradientUnits="objectBoundingBox" x1="0" y1="0.484211" x2="1" y2="0.484211">
			<stop offset="0.0186047" stop-color="#E7D7B9" stop-opacity="1"/>
			<stop offset="1" stop-color="#EEE2CD" stop-opacity="1"/>
		</linearGradient>
		<linearGradient id="SVGID_Fill7_" gradientUnits="objectBoundingBox" x1="-0.0199115" y1="0.483146" x2="1.01991" y2="0.483146">
			<stop offset="0.0186047" stop-color="#E7D7B9" stop-opacity="1"/>
			<stop offset="1" stop-color="#EEE2CD" stop-opacity="1"/>
		</linearGradient>
		<path fill="url(#SVGID_Fill7_)" stroke-width="3" stroke-linejoin="round" stroke="url(#SVGID_Stroke6_)" d="M 56.9109,103.858L 28.2441,93.1915L 74.2441,59.8582L 74.9529,59.3582L 79.2029,64.3582L 88.2441,67.8582L 103.578,68.5247L 56.9109,103.858 Z "/>
		<linearGradient id="SVGID_Stroke7_" gradientUnits="objectBoundingBox" x1="0" y1="0.500002" x2="1" y2="0.500002">
			<stop offset="0.0186047" stop-color="#E7D7B9" stop-opacity="1"/>
			<stop offset="1" stop-color="#EEE2CD" stop-opacity="1"/>
		</linearGradient>
		<linearGradient id="SVGID_Fill8_" gradientUnits="objectBoundingBox" x1="-0.0330883" y1="0.500002" x2="1.03309" y2="0.500002">
			<stop offset="0.0186047" stop-color="#E7D7B9" stop-opacity="1"/>
			<stop offset="1" stop-color="#EEE2CD" stop-opacity="1"/>
		</linearGradient>
		<path fill="url(#SVGID_Fill8_)" stroke-width="3" stroke-linejoin="round" stroke="url(#SVGID_Stroke7_)" d="M 28.2441,93.1915L 11.5776,138.525L 34.9109,154.525L 56.9109,105.191L 28.2441,93.1915 Z "/>
	</g>
	<g>
		<linearGradient id="SVGID_Stroke8_" gradientUnits="objectBoundingBox" x1="0.0713832" y1="0.283012" x2="1.03221" y2="0.283012" gradientTransform="rotate(33.362267 0.071383 0.283012)">
			<stop offset="0.0186047" stop-color="#58A406" stop-opacity="1"/>
			<stop offset="1" stop-color="#163B02" stop-opacity="1"/>
		</linearGradient>
		<linearGradient id="SVGID_Fill9_" gradientUnits="objectBoundingBox" x1="0.0669872" y1="0.281063" x2="1.03742" y2="0.281063" gradientTransform="rotate(33.395496 0.066987 0.281063)">
			<stop offset="0.0186047" stop-color="#7DE30F" stop-opacity="1"/>
			<stop offset="1" stop-color="#235E03" stop-opacity="1"/>
		</linearGradient>
		<path fill="url(#SVGID_Fill9_)" stroke-linejoin="round" stroke="url(#SVGID_Stroke8_)" d="M 115.586,155.344L 148.253,160.678L 148.92,125.344L 178.253,128.011L 178.086,166.178L 212.586,171.678L 212.586,204.178L 179.086,198.178L 179.086,236.678L 149.086,229.178L 149.086,192.178L 115.086,184.678L 115.586,155.344 Z "/>
		<linearGradient id="SVGID_Fill10_" gradientUnits="objectBoundingBox" x1="0" y1="0.5" x2="1" y2="0.5">
			<stop offset="0.0186047" stop-color="#7DE30F" stop-opacity="1"/>
			<stop offset="1" stop-color="#64BE0C" stop-opacity="1"/>
		</linearGradient>
		<path fill="url(#SVGID_Fill10_)" stroke-width="0.2" stroke-linejoin="round" d="M 115.836,155.178L 144.836,149.178L 149.336,149.678L 149.336,161.178L 115.836,155.178 Z "/>
		<linearGradient id="SVGID_Fill11_" gradientUnits="objectBoundingBox" x1="0" y1="0.368428" x2="1" y2="0.368428">
			<stop offset="0.0186047" stop-color="#7DE30F" stop-opacity="1"/>
			<stop offset="1" stop-color="#235E03" stop-opacity="1"/>
		</linearGradient>
		<path fill="url(#SVGID_Fill11_)" stroke-width="0.2" stroke-linejoin="round" d="M 149.17,125.678L 175.253,120.094L 202.836,122.011L 177.503,128.011L 149.17,125.678 Z "/>
		<linearGradient id="SVGID_Fill12_" gradientUnits="objectBoundingBox" x1="0.0100334" y1="0.5" x2="1" y2="0.5">
			<stop offset="0.0186047" stop-color="#7DE30F" stop-opacity="1"/>
			<stop offset="1" stop-color="#235E03" stop-opacity="1"/>
		</linearGradient>
		<path fill="url(#SVGID_Fill12_)" stroke-width="0.2" stroke-linejoin="round" d="M 177.836,166.011L 202.503,159.678L 202.503,122.011L 177.586,127.928L 177.836,166.011 Z "/>
		<linearGradient id="SVGID_Fill13_" gradientUnits="objectBoundingBox" x1="0" y1="0.49999" x2="0.964238" y2="0.49999">
			<stop offset="0.0186047" stop-color="#7DE30F" stop-opacity="1"/>
			<stop offset="1" stop-color="#163A01" stop-opacity="1"/>
		</linearGradient>
		<path fill="url(#SVGID_Fill13_)" stroke-width="0.2" stroke-linejoin="round" d="M 202.503,159.678L 239.42,167.011L 212.17,172.011L 176.503,166.011L 202.503,159.678 Z "/>
		<linearGradient id="SVGID_Fill14_" gradientUnits="objectBoundingBox" x1="-0.0252396" y1="0.504507" x2="0.971609" y2="0.504507">
			<stop offset="0.0186047" stop-color="#2E6F05" stop-opacity="1"/>
			<stop offset="1" stop-color="#133401" stop-opacity="1"/>
		</linearGradient>
		<path fill="url(#SVGID_Fill14_)" stroke-width="0.2" stroke-linejoin="round" d="M 212.503,204.011L 238.92,198.511L 238.92,167.011L 212.586,172.094L 212.503,204.011 Z "/>
		<linearGradient id="SVGID_Fill15_" gradientUnits="objectBoundingBox" x1="0" y1="0.499997" x2="1" y2="0.499997">
			<stop offset="0.0186047" stop-color="#3C8406" stop-opacity="1"/>
			<stop offset="1" stop-color="#153801" stop-opacity="1"/>
		</linearGradient>
		<path fill="url(#SVGID_Fill15_)" stroke-width="0.2" stroke-linejoin="round" d="M 178.836,236.011L 202.503,229.678L 202.503,201.011L 178.503,196.678L 178.836,236.011 Z "/>
	</g>
</svg>
