<?xml version="1.0" encoding="utf-8"?>
<!DOCTYPE svg PUBLIC "-//W3C//DTD SVG 1.1//EN" "http://www.w3.org/Graphics/SVG/1.1/DTD/svg11.dtd">
<svg xmlns="http://www.w3.org/2000/svg" xmlns:xlink="http://www.w3.org/1999/xlink" version="1.1" baseProfile="full" width="95" height="95" viewBox="0 0 95.00 95.00" enable-background="new 0 0 95.00 95.00" xml:space="preserve">
	<path fill="#000000" fill-opacity="1" stroke-linejoin="round" stroke="#000000" stroke-opacity="1" d="M 15.5,2.49983L 79.5,2.49983C 86.6797,2.49983 92.5,8.32014 92.5,15.4998L 92.5,79.4996C 92.5,86.6793 86.6797,92.4998 79.5,92.4998L 15.5,92.4998C 8.32031,92.4998 2.50002,86.6793 2.50002,79.4996L 2.50002,15.4998C 2.50002,8.32014 8.32031,2.49983 15.5,2.49983 Z "/>
	<g>
		<path fill="#FFFFFF" fill-opacity="1" stroke-linejoin="round" stroke="#FFFFFF" stroke-opacity="0.501961" d="M 20.1766,55.7103L 20.1766,55.8074L 28.7548,55.8074L 28.7548,60.0633L 15.0078,60.0633L 15.0078,56.0631L 21.0541,49.7664C 22.2728,48.5045 23.1297,47.4466 23.6248,46.5924C 24.1199,45.7381 24.3675,44.8404 24.3675,43.8992C 24.3675,41.7984 23.3057,40.7481 21.1821,40.7481C 19.3357,40.7481 17.5701,41.512 15.8853,43.0399L 15.8853,38.5948C 17.7316,37.4115 19.8141,36.8199 22.1327,36.8199C 24.305,36.8199 26.0005,37.4029 27.2192,38.5692C 28.438,39.7354 29.0473,41.3109 29.0473,43.2955C 29.0473,45.9454 27.5544,48.6837 24.5686,51.5108L 20.1766,55.7103 Z "/>
		<path fill="#FFFFFF" fill-opacity="1" stroke-linejoin="round" stroke="#FFFFFF" stroke-opacity="0.501961" d="M 46.5967,55.1527L 44.2568,55.1527L 44.2568,60.0633L 40.1619,60.0633L 40.1619,55.1527L 31.0947,55.1527L 31.0947,51.9351L 39.8329,37.147L 44.2568,37.147L 44.2568,51.5516L 46.5967,51.5516L 46.5967,55.1527 Z M 40.2213,42.0577L 40.1345,42.0577C 39.9974,42.4464 39.7339,43.0501 39.3439,43.8685L 34.8377,51.5516L 40.1619,51.5516L 40.1619,44.2677C 40.1619,43.6231 40.1817,42.8863 40.2213,42.0577 Z "/>
		<path fill="#FFFFFF" fill-opacity="1" stroke-linejoin="round" stroke="#FFFFFF" stroke-opacity="0.501961" d="M 79.6481,39.4796L 72.0434,60.0633L 67.3635,60.0633L 74.9682,41.4029L 65.0236,41.4029L 65.0236,37.147L 79.6481,37.147L 79.6481,39.4796 Z "/>
	</g>
	<g>
		<path fill="#FFFFFF" fill-opacity="1" stroke-linejoin="round" stroke="#FFFFFF" stroke-opacity="0.545098" d="M 63.8631,22.2838L 47.7606,72.7428L 44.1831,72.7428L 60.2331,22.2838L 63.8631,22.2838 Z "/>
	</g>
	<g>
		<path fill="none" stroke-width="3" stroke-linejoin="round" stroke="#FF0000" stroke-opacity="1" d="M 15.7365,6.08943L 79.4033,6.08943C 84.9261,6.08943 89.4033,10.567 89.4033,16.0897L 89.4033,80.0826C 89.4033,85.6055 84.9261,90.0828 79.4033,90.0828L 15.7365,90.0828C 10.2136,90.0828 5.73643,85.6055 5.73643,80.0826L 5.73643,16.0897C 5.73643,10.567 10.2136,6.08943 15.7365,6.08943 Z "/>
		<line fill="none" stroke-width="3" stroke-linejoin="round" stroke="#FF0000" stroke-opacity="1" x1="8.23633" y1="9.08357" x2="86.903" y2="87.0836"/>
	</g>
	<g>
		<radialGradient id="SVGID_Fill1_" cx="-15.8808" cy="9.7906" r="118.102" gradientUnits="userSpaceOnUse">
			<stop offset="0" stop-color="#FFFFFF" stop-opacity="0.843137"/>
			<stop offset="0.77027" stop-color="#FFFFFF" stop-opacity="0.32549"/>
			<stop offset="1" stop-color="#FFFFFF" stop-opacity="0"/>
		</radialGradient>
		<path fill="url(#SVGID_Fill1_)" stroke-width="0.2" stroke-linejoin="round" d="M 16.4964,3.35164L 80.4964,3.35164C 86.5715,3.35164 91.4964,8.27644 91.4964,14.3516L 91.4964,77.3512C 91.4964,83.4263 86.5715,88.3512 80.4964,88.3512L 16.4964,88.3512C 10.4212,88.3512 5.49638,83.4263 5.49638,77.3512L 5.49638,14.3516C 5.49638,8.27644 10.4212,3.35164 16.4964,3.35164 Z "/>
		<radialGradient id="SVGID_Stroke1_" cx="73.516" cy="47.3521" r="669.951" gradientUnits="userSpaceOnUse">
			<stop offset="0.869369" stop-color="#F1F1F1" stop-opacity="0"/>
			<stop offset="1" stop-color="#EEEEEE" stop-opacity="0.898039"/>
		</radialGradient>
		<path fill="none" stroke-width="4" stroke-linejoin="round" stroke="url(#SVGID_Stroke1_)" d="M 82.7463,7.35115L 82.7463,7.35115C 86.7504,7.35115 89.9963,10.597 89.9963,14.6012L 89.9963,80.1014C 89.9963,84.1055 86.7504,87.3514 82.7463,87.3514L 82.7463,87.3514C 78.7423,87.3514 75.4964,84.1055 75.4964,80.1014L 75.4964,14.6012C 75.4964,10.597 78.7423,7.35115 82.7463,7.35115 Z "/>
		<radialGradient id="SVGID_Stroke2_" cx="21.4767" cy="47.3504" r="669.951" gradientUnits="userSpaceOnUse" gradientTransform="rotate(180.000000 21.476700 47.350418)">
			<stop offset="0.869369" stop-color="#F1F1F1" stop-opacity="0"/>
			<stop offset="1" stop-color="#EEEEEE" stop-opacity="0.898039"/>
		</radialGradient>
		<path fill="none" stroke-width="4" stroke-linejoin="round" stroke="url(#SVGID_Stroke2_)" d="M 12.2464,87.3514L 12.2464,87.3514C 8.24231,87.3514 4.99638,84.1055 4.99638,80.1016L 4.99638,14.6012C 4.99638,10.597 8.24231,7.35115 12.2464,7.35115L 12.2464,7.35115C 16.2504,7.35115 19.4964,10.597 19.4964,14.6012L 19.4964,80.1016C 19.4964,84.1055 16.2504,87.3514 12.2464,87.3514 Z "/>
		<radialGradient id="SVGID_Stroke3_" cx="47.4978" cy="21.3319" r="79.1195" gradientUnits="userSpaceOnUse" gradientTransform="rotate(-90.000000 47.497803 21.331863)">
			<stop offset="0.869369" stop-color="#F1F1F1" stop-opacity="0"/>
			<stop offset="1" stop-color="#EEEEEE" stop-opacity="0.898039"/>
		</radialGradient>
		<path fill="none" stroke-width="4" stroke-linejoin="round" stroke="url(#SVGID_Stroke3_)" d="M 7.49646,12.1014L 7.49646,12.1014C 7.49646,8.09724 10.7424,4.85139 14.7464,4.85139L 80.2468,4.85139C 84.2509,4.85139 87.4968,8.09724 87.4968,12.1014L 87.4968,12.1014C 87.4968,16.1055 84.2509,19.3514 80.2468,19.3514L 14.7464,19.3514C 10.7424,19.3514 7.49646,16.1055 7.49646,12.1014 Z "/>
		<radialGradient id="SVGID_Stroke4_" cx="47.4954" cy="73.3709" r="79.1194" gradientUnits="userSpaceOnUse" gradientTransform="rotate(90.000000 47.495392 73.370926)">
			<stop offset="0.869369" stop-color="#F1F1F1" stop-opacity="0"/>
			<stop offset="1" stop-color="#EEEEEE" stop-opacity="0.898039"/>
		</radialGradient>
		<path fill="none" stroke-width="4" stroke-linejoin="round" stroke="url(#SVGID_Stroke4_)" d="M 87.4967,82.6014L 87.4967,82.6014C 87.4967,86.6055 84.2508,89.8514 80.2468,89.8514L 14.7464,89.8514C 10.7422,89.8514 7.49641,86.6055 7.49641,82.6014L 7.49641,82.6014C 7.49641,78.5972 10.7422,75.3514 14.7464,75.3514L 80.2468,75.3514C 84.2508,75.3514 87.4967,78.5972 87.4967,82.6014 Z "/>
	</g>
</svg>
