<?xml version="1.0" encoding="utf-8"?>
<!DOCTYPE svg PUBLIC "-//W3C//DTD SVG 1.1//EN" "http://www.w3.org/Graphics/SVG/1.1/DTD/svg11.dtd">
<svg xmlns="http://www.w3.org/2000/svg" xmlns:xlink="http://www.w3.org/1999/xlink" version="1.1" baseProfile="full" width="95" height="95" viewBox="0 0 95.00 95.00" enable-background="new 0 0 95.00 95.00" xml:space="preserve">
	<path fill="#000000" fill-opacity="1" stroke-linejoin="round" stroke="#C0C0CC" stroke-opacity="1" d="M 15.5001,2.49991L 79.5001,2.49991C 86.6797,2.49991 92.5001,8.32022 92.5001,15.4999L 92.5001,79.4997C 92.5001,86.6794 86.6797,92.4999 79.5001,92.4999L 15.5001,92.4999C 8.32037,92.4999 2.50006,86.6794 2.50006,79.4997L 2.50006,15.4999C 2.50006,8.32022 8.32037,2.49991 15.5001,2.49991 Z "/>
	<path fill="#FFFFFF" fill-opacity="1" stroke-linejoin="round" d="M 20.1662,43.8354L 20.1663,53.6054C 20.5469,53.4308 20.9705,53.3334 21.4167,53.3334L 24.1667,53.3334L 24.8765,53.4179C 26.1204,52.5751 27.6178,52.0832 29.2292,52.0832C 33.5439,52.0832 37.0417,55.609 37.0417,59.9582C 37.0417,64.3075 33.5439,67.8332 29.2292,67.8332C 27.4965,67.8332 25.8954,67.2646 24.5998,66.3022L 24.1667,66.3334L 21.4167,66.3334C 20.9705,66.3334 20.5469,66.2357 20.1663,66.0612L 20.1663,75.9599C 20.1663,77.6169 21.5094,78.9599 23.1663,78.9599L 69.5408,78.9599C 71.1976,78.9599 72.5408,77.6169 72.5408,75.9599L 72.5408,66.5517L 71.7914,66.6461L 69.0414,66.6461L 68.6083,66.6151C 67.3126,67.5773 65.7117,68.1459 63.9788,68.1459C 59.6641,68.1459 56.1663,64.6203 56.1663,60.2709C 56.1663,55.9218 59.6641,52.3959 63.9788,52.3959C 65.5902,52.3959 67.0877,52.8878 68.3316,53.7306L 69.0414,53.6461L 71.7914,53.6461L 72.5408,53.7406L 72.5406,43.8354C 72.5406,42.1784 71.1975,40.8354 69.5406,40.8354L 54.8463,40.8354L 54.8542,40.6457C 54.8542,39.1271 53.343,37.8957 51.4792,37.8957L 51.4167,34.9584L 51.3454,34.3051C 54.0901,32.661 55.9166,29.7333 55.9166,26.3959C 55.9166,21.2526 51.5795,17.0834 46.2292,17.0834C 40.8789,17.0834 36.5417,21.2526 36.5417,26.3959C 36.5417,29.9145 38.5719,32.9774 41.5677,34.5614L 41.5417,34.9584L 41.5416,38.225C 39.9034,38.3725 38.6184,39.476 38.545,40.8354L 23.1662,40.8354C 21.5093,40.8354 20.1662,42.1784 20.1662,43.8354 Z M 48.2715,73.7943L 43.0449,73.7943L 43.0449,67.9355L 48.2715,67.9355L 48.2715,73.7943 Z M 48.6303,62.5536C 48.3678,63.1684 48.2482,64.2648 48.2715,65.8429L 43.0449,65.8429L 43.0274,64.4762C 43.0274,62.7848 43.2899,61.3942 43.8149,60.3044C 44.3399,59.2145 45.3918,57.9884 46.9707,56.6261C 48.5496,55.2641 49.4927,54.3715 49.7999,53.9486C 50.2744,53.2816 50.5115,52.547 50.5115,51.7448C 50.5115,50.6725 50.1353,49.7548 49.3828,48.9921C 48.6303,48.2292 47.6163,47.8476 46.3407,47.8476C 45.1118,47.8476 44.0842,48.227 43.2578,48.9853C 42.4314,49.744 41.8627,50.8991 41.5516,52.4511L 36.3249,52.0326C 36.461,49.5871 37.3992,47.5109 39.1395,45.8041C 40.8798,44.0976 43.1654,43.244 45.9966,43.244C 48.9716,43.244 51.3389,44.1117 53.0986,45.8466C 54.8583,47.5817 55.7382,49.6022 55.7382,51.9084C 55.7382,53.1769 55.4174,54.3756 54.7757,55.5048C 54.134,56.6337 52.7613,58.1728 50.6573,60.1212C 49.5685,61.1283 48.8928,61.9391 48.6303,62.5536 Z "/>
	<g>
		<radialGradient id="SVGID_Fill1_" cx="-16.0265" cy="9.8793" r="118.102" gradientUnits="userSpaceOnUse">
			<stop offset="0" stop-color="#FFFFFF" stop-opacity="0.843137"/>
			<stop offset="0.77027" stop-color="#FFFFFF" stop-opacity="0.32549"/>
			<stop offset="1" stop-color="#FFFFFF" stop-opacity="0"/>
		</radialGradient>
		<path fill="url(#SVGID_Fill1_)" stroke-width="0.2" stroke-linejoin="round" d="M 16.3506,3.44034L 80.3506,3.44034C 86.4258,3.44034 91.3506,8.36539 91.3506,14.4403L 91.3506,77.4401C 91.3506,83.5153 86.4258,88.4401 80.3506,88.4401L 16.3506,88.4401C 10.2755,88.4401 5.35065,83.5153 5.35065,77.4401L 5.35065,14.4403C 5.35065,8.36539 10.2755,3.44034 16.3506,3.44034 Z "/>
		<radialGradient id="SVGID_Stroke1_" cx="73.3702" cy="47.4408" r="669.951" gradientUnits="userSpaceOnUse">
			<stop offset="0.869369" stop-color="#F1F1F1" stop-opacity="0"/>
			<stop offset="1" stop-color="#EEEEEE" stop-opacity="0.898039"/>
		</radialGradient>
		<path fill="none" stroke-width="4" stroke-linejoin="round" stroke="url(#SVGID_Stroke1_)" d="M 82.6006,7.43985L 82.6006,7.43985C 86.6046,7.43985 89.8506,10.6859 89.8506,14.6898L 89.8506,80.1903C 89.8506,84.1942 86.6046,87.4403 82.6006,87.4403L 82.6006,87.4403C 78.5965,87.4403 75.3506,84.1942 75.3506,80.1903L 75.3506,14.6898C 75.3506,10.6859 78.5965,7.43985 82.6006,7.43985 Z "/>
		<radialGradient id="SVGID_Stroke2_" cx="21.3311" cy="47.4396" r="669.951" gradientUnits="userSpaceOnUse" gradientTransform="rotate(180.000000 21.331055 47.439606)">
			<stop offset="0.869369" stop-color="#F1F1F1" stop-opacity="0"/>
			<stop offset="1" stop-color="#EEEEEE" stop-opacity="0.898039"/>
		</radialGradient>
		<path fill="none" stroke-width="4" stroke-linejoin="round" stroke="url(#SVGID_Stroke2_)" d="M 12.1007,87.4406L 12.1007,87.4406C 8.09668,87.4406 4.85071,84.1947 4.85071,80.1908L 4.85071,14.6903C 4.85071,10.6862 8.09668,7.44034 12.1007,7.44034L 12.1007,7.44034C 16.1047,7.44034 19.3507,10.6862 19.3507,14.6903L 19.3507,80.1908C 19.3507,84.1947 16.1047,87.4406 12.1007,87.4406 Z "/>
		<radialGradient id="SVGID_Stroke3_" cx="47.3519" cy="21.4208" r="79.1194" gradientUnits="userSpaceOnUse" gradientTransform="rotate(-90.000000 47.351929 21.420807)">
			<stop offset="0.869369" stop-color="#F1F1F1" stop-opacity="0"/>
			<stop offset="1" stop-color="#EEEEEE" stop-opacity="0.898039"/>
		</radialGradient>
		<path fill="none" stroke-width="4" stroke-linejoin="round" stroke="url(#SVGID_Stroke3_)" d="M 7.35059,12.1903L 7.35059,12.1903C 7.35059,8.18619 10.5966,4.94034 14.6006,4.94034L 80.1009,4.94034C 84.1051,4.94034 87.3509,8.18619 87.3509,12.1903L 87.3509,12.1903C 87.3509,16.1942 84.1051,19.4403 80.1009,19.4403L 14.6006,19.4403C 10.5966,19.4403 7.35059,16.1942 7.35059,12.1903 Z "/>
		<radialGradient id="SVGID_Stroke4_" cx="47.3492" cy="73.4599" r="79.1184" gradientUnits="userSpaceOnUse" gradientTransform="rotate(90.000000 47.349243 73.459869)">
			<stop offset="0.869369" stop-color="#F1F1F1" stop-opacity="0"/>
			<stop offset="1" stop-color="#EEEEEE" stop-opacity="0.898039"/>
		</radialGradient>
		<path fill="none" stroke-width="4" stroke-linejoin="round" stroke="url(#SVGID_Stroke4_)" d="M 87.3506,82.6903L 87.3506,82.6903C 87.3506,86.6942 84.1046,89.9403 80.1006,89.9403L 14.6002,89.9403C 10.5961,89.9403 7.35022,86.6942 7.35022,82.6903L 7.35022,82.6903C 7.35022,78.6862 10.5961,75.4403 14.6002,75.4403L 80.1006,75.4403C 84.1046,75.4403 87.3506,78.6862 87.3506,82.6903 Z "/>
	</g>
</svg>
