<?xml version="1.0" encoding="utf-8"?>
<!DOCTYPE svg PUBLIC "-//W3C//DTD SVG 1.1//EN" "http://www.w3.org/Graphics/SVG/1.1/DTD/svg11.dtd">
<svg xmlns="http://www.w3.org/2000/svg" xmlns:xlink="http://www.w3.org/1999/xlink" version="1.1" baseProfile="full" width="95" height="95" viewBox="0 0 95.00 95.00" enable-background="new 0 0 95.00 95.00" xml:space="preserve">
	<path fill="#000000" fill-opacity="1" stroke-linejoin="round" stroke="#C0C0CC" stroke-opacity="1" d="M 15.5001,2.49983L 79.5001,2.49983C 86.6797,2.49983 92.5001,8.32014 92.5001,15.4998L 92.5001,79.4996C 92.5001,86.6793 86.6797,92.4998 79.5001,92.4998L 15.5001,92.4998C 8.32037,92.4998 2.50006,86.6793 2.50006,79.4996L 2.50006,15.4998C 2.50006,8.32014 8.32037,2.49983 15.5001,2.49983 Z "/>
	<path fill="#FFFFFF" fill-opacity="1" stroke-linejoin="round" d="M 28.0626,52.9195C 31.376,52.9195 34.0626,55.6702 34.0626,59.0626C 34.0626,62.4552 31.3763,65.2054 28.0626,65.2054C 24.7488,65.2054 22.0626,62.4552 22.0626,59.0626C 22.0626,55.6702 24.7491,52.9195 28.0626,52.9195 Z "/>
	<path fill="#FFFFFF" fill-opacity="1" stroke-linejoin="round" d="M 71.3751,52.4998C 74.6115,52.4998 77.2355,55.1864 77.2355,58.4998C 77.2355,61.8136 74.6117,64.4998 71.3751,64.4998C 68.1384,64.4998 65.5146,61.8136 65.5146,58.4998C 65.5146,55.1864 68.1386,52.4998 71.3751,52.4998 Z "/>
	<path fill="#FFFFFF" fill-opacity="1" stroke-linejoin="round" d="M 63.8751,58.2913C 63.8751,54.0689 67.3591,50.6456 71.6563,50.6456C 75.9536,50.6456 79.4377,54.0689 79.4377,58.2913L 79.4362,58.4415L 81.6876,58.4373L 81.8126,43.1873L 76.5626,33.0623L 20.5626,32.9373L 14.8125,45.5626L 15.0626,58.5623L 20.0208,58.5531L 20,57.9898C 20,53.7674 23.4841,50.3438 27.7813,50.3438C 32.0784,50.3438 35.5626,53.7674 35.5626,57.9898L 35.5439,58.524L 63.8772,58.4708L 63.8751,58.2913 Z M 68.7083,37.4586C 68.7083,36.3541 69.6037,35.4586 70.7083,35.4586L 75.7917,35.4586L 78.8541,40.8907L 78.9583,43.6043C 78.9583,44.7088 78.0629,45.6043 76.9583,45.6043L 70.7083,45.6043C 69.6037,45.6043 68.7083,44.7088 68.7083,43.6043L 68.7083,37.4586 Z M 20.1876,35.3543L 20.7812,35.2918C 21.8858,35.2918 22.7812,36.1873 22.7812,37.2918L 22.7812,43.7086C 22.7812,44.8131 21.8858,45.7086 20.7812,45.7086L 18.8749,45.7086C 17.7703,45.7086 17.0469,45.1619 17.0469,44.0574L 17.0157,42.5731L 20.1876,35.3543 Z M 53.3749,37.5418C 53.3749,36.4373 54.2704,35.5418 55.3749,35.5418L 64.2083,35.5418C 65.3129,35.5418 66.2083,36.4373 66.2083,37.5418L 66.2083,43.5418C 66.2083,44.6463 65.3129,45.5418 64.2083,45.5418L 55.3749,45.5418C 54.2704,45.5418 53.3749,44.6463 53.3749,43.5418L 53.3749,37.5418 Z M 40.4583,37.4586C 40.4583,36.3541 41.3537,35.4586 42.4583,35.4586L 48.7916,35.4586C 49.8962,35.4586 50.7916,36.3541 50.7916,37.4586L 50.7916,43.4586C 50.7916,44.5631 49.8962,45.4586 48.7916,45.4586L 42.4583,45.4586C 41.3537,45.4586 40.4583,44.5631 40.4583,43.4586L 40.4583,37.4586 Z M 25.3751,37.7095C 25.3751,36.6051 26.2706,35.7095 27.3751,35.7095L 35.7913,35.7095C 36.8959,35.7095 37.7913,36.6051 37.7913,37.7095L 37.7913,43.793C 37.7913,44.8975 36.8959,45.793 35.7913,45.793L 27.3751,45.793C 26.2706,45.793 25.3751,44.8975 25.3751,43.793L 25.3751,37.7095 Z "/>
	<g>
		<radialGradient id="SVGID_Fill1_" cx="-16.0266" cy="9.87947" r="118.103" gradientUnits="userSpaceOnUse">
			<stop offset="0" stop-color="#FFFFFF" stop-opacity="0.843137"/>
			<stop offset="0.77027" stop-color="#FFFFFF" stop-opacity="0.32549"/>
			<stop offset="1" stop-color="#FFFFFF" stop-opacity="0"/>
		</radialGradient>
		<path fill="url(#SVGID_Fill1_)" stroke-width="0.2" stroke-linejoin="round" d="M 16.3506,3.44051L 80.3506,3.44051C 86.4258,3.44051 91.3506,8.36531 91.3506,14.4405L 91.3506,77.44C 91.3506,83.5152 86.4258,88.44 80.3506,88.44L 16.3506,88.44C 10.2755,88.44 5.35065,83.5152 5.35065,77.44L 5.35065,14.4405C 5.35065,8.36531 10.2755,3.44051 16.3506,3.44051 Z "/>
		<radialGradient id="SVGID_Stroke1_" cx="73.3702" cy="47.441" r="669.951" gradientUnits="userSpaceOnUse">
			<stop offset="0.869369" stop-color="#F1F1F1" stop-opacity="0"/>
			<stop offset="1" stop-color="#EEEEEE" stop-opacity="0.898039"/>
		</radialGradient>
		<path fill="none" stroke-width="4" stroke-linejoin="round" stroke="url(#SVGID_Stroke1_)" d="M 82.6006,7.44002L 82.6006,7.44002C 86.6046,7.44002 89.8505,10.6859 89.8505,14.6898L 89.8505,80.1903C 89.8505,84.1944 86.6046,87.4403 82.6006,87.4403L 82.6006,87.4403C 78.5965,87.4403 75.3506,84.1944 75.3506,80.1903L 75.3506,14.6898C 75.3506,10.6859 78.5965,7.44002 82.6006,7.44002 Z "/>
		<radialGradient id="SVGID_Stroke2_" cx="21.331" cy="47.4395" r="669.951" gradientUnits="userSpaceOnUse" gradientTransform="rotate(180.000000 21.330994 47.439529)">
			<stop offset="0.869369" stop-color="#F1F1F1" stop-opacity="0"/>
			<stop offset="1" stop-color="#EEEEEE" stop-opacity="0.898039"/>
		</radialGradient>
		<path fill="none" stroke-width="4" stroke-linejoin="round" stroke="url(#SVGID_Stroke2_)" d="M 12.1006,87.4405L 12.1006,87.4405C 8.09662,87.4405 4.85071,84.1947 4.85071,80.1908L 4.85071,14.6903C 4.85071,10.6861 8.09662,7.44026 12.1006,7.44026L 12.1006,7.44026C 16.1047,7.44026 19.3506,10.6861 19.3506,14.6903L 19.3506,80.1908C 19.3506,84.1947 16.1047,87.4405 12.1006,87.4405 Z "/>
		<radialGradient id="SVGID_Stroke3_" cx="47.3519" cy="21.4207" r="79.1194" gradientUnits="userSpaceOnUse" gradientTransform="rotate(-90.000000 47.351868 21.420731)">
			<stop offset="0.869369" stop-color="#F1F1F1" stop-opacity="0"/>
			<stop offset="1" stop-color="#EEEEEE" stop-opacity="0.898039"/>
		</radialGradient>
		<path fill="none" stroke-width="4" stroke-linejoin="round" stroke="url(#SVGID_Stroke3_)" d="M 7.35052,12.1903L 7.35052,12.1903C 7.35052,8.18611 10.5965,4.94026 14.6005,4.94026L 80.1009,4.94026C 84.105,4.94026 87.3508,8.18611 87.3508,12.1903L 87.3508,12.1903C 87.3508,16.1944 84.105,19.4403 80.1009,19.4403L 14.6005,19.4403C 10.5965,19.4403 7.35052,16.1944 7.35052,12.1903 Z "/>
		<radialGradient id="SVGID_Stroke4_" cx="47.3495" cy="73.4598" r="79.1194" gradientUnits="userSpaceOnUse" gradientTransform="rotate(90.000000 47.349487 73.459793)">
			<stop offset="0.869369" stop-color="#F1F1F1" stop-opacity="0"/>
			<stop offset="1" stop-color="#EEEEEE" stop-opacity="0.898039"/>
		</radialGradient>
		<path fill="none" stroke-width="4" stroke-linejoin="round" stroke="url(#SVGID_Stroke4_)" d="M 87.3508,82.6903L 87.3508,82.6903C 87.3508,86.6944 84.1049,89.9403 80.1008,89.9403L 14.6005,89.9403C 10.5963,89.9403 7.35052,86.6944 7.35052,82.6903L 7.35052,82.6903C 7.35052,78.6861 10.5963,75.4403 14.6005,75.4403L 80.1008,75.4403C 84.1049,75.4403 87.3508,78.6861 87.3508,82.6903 Z "/>
	</g>
</svg>
