<?xml version="1.0" encoding="utf-8"?>
<!DOCTYPE svg PUBLIC "-//W3C//DTD SVG 1.1//EN" "http://www.w3.org/Graphics/SVG/1.1/DTD/svg11.dtd">
<svg xmlns="http://www.w3.org/2000/svg" xmlns:xlink="http://www.w3.org/1999/xlink" version="1.1" baseProfile="full" width="95" height="95" viewBox="0 0 95.00 95.00" enable-background="new 0 0 95.00 95.00" xml:space="preserve">
	<path fill="#000000" fill-opacity="1" stroke-linejoin="round" stroke="#C0C0CC" stroke-opacity="1" d="M 15.5,2.49991L 79.5,2.49991C 86.6797,2.49991 92.5,8.32022 92.5,15.4999L 92.5,79.4997C 92.5,86.6794 86.6797,92.4999 79.5,92.4999L 15.5,92.4999C 8.32028,92.4999 2.49998,86.6794 2.49998,79.4997L 2.49998,15.4999C 2.49998,8.32022 8.32028,2.49991 15.5,2.49991 Z "/>
	<path fill="#FFFFFF" fill-opacity="1" stroke-linejoin="round" d="M 26.4999,40.1488C 27.9855,40.1488 29.4137,40.402 30.7512,40.8644C 31.7847,38.5175 32.9954,35.7702 34.4142,32.5448L 33.5109,29.9999L 30.4001,29.9413L 30.4001,27.2834L 42.0999,27.2834C 43.1231,28.7169 41.6855,28.7099 36.5043,29.8835L 37.4111,32.4862L 60.523,32.4862C 58.9672,26.9242 59.8474,27.328 52.8364,27.3412L 52.8364,24.6254C 62.4864,24.7209 60.8141,23.6095 65.9781,40.6044C 66.771,40.4538 67.5836,40.3715 68.4167,40.3715C 75.7445,40.3715 81.7083,46.4711 81.7083,53.9665C 81.7083,61.4611 75.7445,67.5607 68.4167,67.5607C 61.0881,67.5607 55.1243,61.4611 55.1243,53.9665C 55.1243,48.359 58.4654,43.5329 63.215,41.4591C 62.9273,40.529 62.6165,39.5334 62.2817,38.4728C 42.8389,59.4496 50.1341,56.05 39.6682,56.4738C 39.6185,56.4738 39.5714,56.4738 39.5209,56.4738C 38.2836,62.6654 32.9158,67.3383 26.4999,67.3383C 19.1721,67.3383 13.2084,61.2387 13.2084,53.744C 13.2084,46.2484 19.1721,40.1488 26.4999,40.1488 Z M 58.2351,53.9665C 58.2351,59.7096 62.804,64.3791 68.4167,64.3791C 74.032,64.3791 78.5975,59.7096 78.5975,53.9665C 78.5975,48.226 74.032,43.5531 68.4167,43.5531C 67.9115,43.5531 67.4132,43.5941 66.9277,43.6659C 70.172,54.1269 69.7807,52.9367 69.8013,53.8192C 69.8176,54.5612 69.2293,55.1532 68.493,55.2047C 67.1692,55.0683 67.4663,55.2897 64.1586,44.5111C 60.6668,46.1635 58.2351,49.7787 58.2351,53.9665 Z M 45.1105,53.3192L 61.1917,35.3944L 38.5747,35.3534M 39.7889,53.696L 42.2643,53.6889L 35.845,36.4613L 33.3568,42.1027C 37.197,44.477 39.7718,48.7838 39.7889,53.696 Z M 32.0655,45.0312L 28.2261,53.7299L 36.6816,53.703C 36.6679,50.0766 34.8321,46.8852 32.0655,45.0312 Z M 26.4999,64.1566C 31.1964,64.1566 35.1566,60.8866 36.3271,56.4599C 25.731,56.4701 24.7849,57.0246 24.6376,55.1425C 24.6504,54.5951 24.8516,54.2231 29.4634,43.7824C 28.5275,43.4882 27.5308,43.3305 26.4999,43.3305C 20.8881,43.3305 16.3191,47.9999 16.3191,53.744C 16.3191,59.4872 20.8846,64.1566 26.4999,64.1566 Z "/>
	<g>
		<radialGradient id="SVGID_Fill1_" cx="-16.0266" cy="9.8793" r="118.102" gradientUnits="userSpaceOnUse">
			<stop offset="0" stop-color="#FFFFFF" stop-opacity="0.843137"/>
			<stop offset="0.77027" stop-color="#FFFFFF" stop-opacity="0.32549"/>
			<stop offset="1" stop-color="#FFFFFF" stop-opacity="0"/>
		</radialGradient>
		<path fill="url(#SVGID_Fill1_)" stroke-width="0.2" stroke-linejoin="round" d="M 16.3506,3.44034L 80.3506,3.44034C 86.4257,3.44034 91.3506,8.36539 91.3506,14.4403L 91.3506,77.4401C 91.3506,83.5153 86.4257,88.4401 80.3506,88.4401L 16.3506,88.4401C 10.2754,88.4401 5.35057,83.5153 5.35057,77.4401L 5.35057,14.4403C 5.35057,8.36539 10.2754,3.44034 16.3506,3.44034 Z "/>
		<radialGradient id="SVGID_Stroke1_" cx="73.3702" cy="47.4408" r="669.951" gradientUnits="userSpaceOnUse">
			<stop offset="0.869369" stop-color="#F1F1F1" stop-opacity="0"/>
			<stop offset="1" stop-color="#EEEEEE" stop-opacity="0.898039"/>
		</radialGradient>
		<path fill="none" stroke-width="4" stroke-linejoin="round" stroke="url(#SVGID_Stroke1_)" d="M 82.6005,7.43985L 82.6005,7.43985C 86.6046,7.43985 89.8505,10.6859 89.8505,14.6898L 89.8505,80.1903C 89.8505,84.1942 86.6046,87.4403 82.6005,87.4403L 82.6005,87.4403C 78.5965,87.4403 75.3505,84.1942 75.3505,80.1903L 75.3505,14.6898C 75.3505,10.6859 78.5965,7.43985 82.6005,7.43985 Z "/>
		<radialGradient id="SVGID_Stroke2_" cx="21.3309" cy="47.4396" r="669.951" gradientUnits="userSpaceOnUse" gradientTransform="rotate(180.000000 21.330948 47.439606)">
			<stop offset="0.869369" stop-color="#F1F1F1" stop-opacity="0"/>
			<stop offset="1" stop-color="#EEEEEE" stop-opacity="0.898039"/>
		</radialGradient>
		<path fill="none" stroke-width="4" stroke-linejoin="round" stroke="url(#SVGID_Stroke2_)" d="M 12.1006,87.4406L 12.1006,87.4406C 8.09656,87.4406 4.85062,84.1947 4.85062,80.1908L 4.85062,14.6903C 4.85062,10.6862 8.09656,7.44034 12.1006,7.44034L 12.1006,7.44034C 16.1047,7.44034 19.3506,10.6862 19.3506,14.6903L 19.3506,80.1908C 19.3506,84.1947 16.1047,87.4406 12.1006,87.4406 Z "/>
		<radialGradient id="SVGID_Stroke3_" cx="47.3518" cy="21.4208" r="79.1194" gradientUnits="userSpaceOnUse" gradientTransform="rotate(-90.000000 47.351776 21.420807)">
			<stop offset="0.869369" stop-color="#F1F1F1" stop-opacity="0"/>
			<stop offset="1" stop-color="#EEEEEE" stop-opacity="0.898039"/>
		</radialGradient>
		<path fill="none" stroke-width="4" stroke-linejoin="round" stroke="url(#SVGID_Stroke3_)" d="M 7.35043,12.1903L 7.35043,12.1903C 7.35043,8.18619 10.5964,4.94034 14.6004,4.94034L 80.1008,4.94034C 84.1049,4.94034 87.3508,8.18619 87.3508,12.1903L 87.3508,12.1903C 87.3508,16.1942 84.1049,19.4403 80.1008,19.4403L 14.6004,19.4403C 10.5964,19.4403 7.35043,16.1942 7.35043,12.1903 Z "/>
		<radialGradient id="SVGID_Stroke4_" cx="47.3494" cy="73.4599" r="79.1183" gradientUnits="userSpaceOnUse" gradientTransform="rotate(90.000000 47.349365 73.459869)">
			<stop offset="0.869369" stop-color="#F1F1F1" stop-opacity="0"/>
			<stop offset="1" stop-color="#EEEEEE" stop-opacity="0.898039"/>
		</radialGradient>
		<path fill="none" stroke-width="4" stroke-linejoin="round" stroke="url(#SVGID_Stroke4_)" d="M 87.3507,82.6903L 87.3507,82.6903C 87.3507,86.6942 84.1047,89.9403 80.1007,89.9403L 14.6004,89.9403C 10.5962,89.9403 7.3504,86.6942 7.3504,82.6903L 7.3504,82.6903C 7.3504,78.6862 10.5962,75.4403 14.6004,75.4403L 80.1007,75.4403C 84.1047,75.4403 87.3507,78.6862 87.3507,82.6903 Z "/>
	</g>
</svg>
