<?xml version="1.0" encoding="utf-8"?>
<!DOCTYPE svg PUBLIC "-//W3C//DTD SVG 1.1//EN" "http://www.w3.org/Graphics/SVG/1.1/DTD/svg11.dtd">
<svg xmlns="http://www.w3.org/2000/svg" xmlns:xlink="http://www.w3.org/1999/xlink" version="1.1" baseProfile="full" width="95" height="95" viewBox="0 0 95.00 95.00" enable-background="new 0 0 95.00 95.00" xml:space="preserve">
	<path fill="#000000" fill-opacity="1" stroke-linejoin="round" stroke="#C0C0CC" stroke-opacity="1" d="M 15.5,2.49976L 79.5,2.49976C 86.6797,2.49976 92.5,8.32007 92.5,15.4998L 92.5,79.4998C 92.5,86.6794 86.6797,92.4998 79.5,92.4998L 15.5,92.4998C 8.32031,92.4998 2.5,86.6794 2.5,79.4998L 2.5,15.4998C 2.5,8.32007 8.32031,2.49976 15.5,2.49976 Z "/>
	<path fill="#FFFFFF" fill-opacity="1" stroke-linejoin="round" d="M 67.8655,62.6875C 69.7887,62.6875 71.3403,61.2034 71.3403,59.3733C 71.3403,57.562 69.7887,56.0779 67.8655,56.0779C 65.9345,56.0779 64.3829,57.562 64.3829,59.3733C 64.3865,61.2034 65.9345,62.6875 67.8655,62.6875 Z M 59.8253,59.3733C 59.8253,55.1755 63.4209,51.7612 67.8655,51.7612C 72.2952,51.7612 75.8909,55.1755 75.8909,59.3733C 75.8909,63.5889 72.2952,67 67.8655,67C 63.4209,67 59.8253,63.5889 59.8253,59.3733 Z "/>
	<path fill="#FFFFFF" fill-opacity="1" stroke-linejoin="round" d="M 79.8183,51.2214L 79.8007,43.5425C 79.8007,40.4832 76.9323,40.8035 76.9323,40.8035L 60.6973,40.8035L 54.7752,31.3333L 51.289,31.3333L 57.212,40.8035L 52.7267,48.0007L 42.4977,47.9883C 38.9673,41.1072 31.7867,41.541 31.7867,41.541L 12.3938,41.541L 12.3938,57.8889L 15.166,57.8889C 15.5385,52.3308 21.1711,47.9172 27.1249,47.9172C 33.0761,47.9172 38.7264,52.3406 39.0812,57.8889L 55.9402,57.9048C 56.295,52.3374 61.9426,47.9172 67.9,47.9172C 73.8503,47.9172 79.5147,52.3374 79.8563,57.9148L 80.9039,57.9246C 82.0653,57.9246 83,57.0291 83,55.9324L 83,51.2214"/>
	<path fill="#FFFFFF" fill-opacity="1" stroke-linejoin="round" d="M 27.0905,62.6875C 29.0181,62.6875 30.5793,61.2034 30.5793,59.3733C 30.5793,57.562 29.0181,56.0779 27.0905,56.0779C 25.1771,56.0779 23.6122,57.562 23.6122,59.3733C 23.6122,61.2034 25.1771,62.6875 27.0905,62.6875 Z M 19.0652,59.3733C 19.0652,55.1755 22.6608,51.7612 27.0905,51.7612C 31.5378,51.7612 35.1202,55.1755 35.1202,59.3733C 35.1202,63.5889 31.5378,67 27.0905,67C 22.6608,67 19.0652,63.5889 19.0652,59.3733 Z "/>
	<g>
		<radialGradient id="SVGID_Fill1_" cx="-16.0266" cy="9.87939" r="118.103" gradientUnits="userSpaceOnUse">
			<stop offset="0" stop-color="#FFFFFF" stop-opacity="0.843137"/>
			<stop offset="0.77027" stop-color="#FFFFFF" stop-opacity="0.32549"/>
			<stop offset="1" stop-color="#FFFFFF" stop-opacity="0"/>
		</radialGradient>
		<path fill="url(#SVGID_Fill1_)" stroke-width="0.2" stroke-linejoin="round" d="M 16.3506,3.44043L 80.3506,3.44043C 86.4258,3.44043 91.3506,8.36548 91.3506,14.4404L 91.3506,77.4402C 91.3506,83.5154 86.4258,88.4402 80.3506,88.4402L 16.3506,88.4402C 10.2755,88.4402 5.35059,83.5154 5.35059,77.4402L 5.35059,14.4404C 5.35059,8.36548 10.2755,3.44043 16.3506,3.44043 Z "/>
		<radialGradient id="SVGID_Stroke1_" cx="73.3702" cy="47.4409" r="669.951" gradientUnits="userSpaceOnUse">
			<stop offset="0.869369" stop-color="#F1F1F1" stop-opacity="0"/>
			<stop offset="1" stop-color="#EEEEEE" stop-opacity="0.898039"/>
		</radialGradient>
		<path fill="none" stroke-width="4" stroke-linejoin="round" stroke="url(#SVGID_Stroke1_)" d="M 82.6006,7.43994L 82.6006,7.43994C 86.6046,7.43994 89.8505,10.6858 89.8505,14.6897L 89.8505,80.1902C 89.8505,84.1943 86.6046,87.4402 82.6006,87.4402L 82.6006,87.4402C 78.5965,87.4402 75.3505,84.1943 75.3505,80.1902L 75.3505,14.6897C 75.3505,10.6858 78.5965,7.43994 82.6006,7.43994 Z "/>
		<radialGradient id="SVGID_Stroke2_" cx="21.331" cy="47.4397" r="669.951" gradientUnits="userSpaceOnUse" gradientTransform="rotate(180.000000 21.330963 47.439697)">
			<stop offset="0.869369" stop-color="#F1F1F1" stop-opacity="0"/>
			<stop offset="1" stop-color="#EEEEEE" stop-opacity="0.898039"/>
		</radialGradient>
		<path fill="none" stroke-width="4" stroke-linejoin="round" stroke="url(#SVGID_Stroke2_)" d="M 12.1006,87.4407L 12.1006,87.4407C 8.09659,87.4407 4.85065,84.1946 4.85065,80.1907L 4.85065,14.6902C 4.85065,10.6863 8.09659,7.44019 12.1006,7.44019L 12.1006,7.44019C 16.1047,7.44019 19.3506,10.6863 19.3506,14.6902L 19.3506,80.1907C 19.3506,84.1946 16.1047,87.4407 12.1006,87.4407 Z "/>
		<radialGradient id="SVGID_Stroke3_" cx="47.3519" cy="21.4207" r="79.1183" gradientUnits="userSpaceOnUse" gradientTransform="rotate(-90.000000 47.351868 21.420654)">
			<stop offset="0.869369" stop-color="#F1F1F1" stop-opacity="0"/>
			<stop offset="1" stop-color="#EEEEEE" stop-opacity="0.898039"/>
		</radialGradient>
		<path fill="none" stroke-width="4" stroke-linejoin="round" stroke="url(#SVGID_Stroke3_)" d="M 7.35052,12.1902L 7.35052,12.1902C 7.35052,8.18628 10.5965,4.94019 14.6005,4.94019L 80.1009,4.94019C 84.1051,4.94019 87.3509,8.18628 87.3509,12.1902L 87.3509,12.1902C 87.3509,16.1943 84.1051,19.4402 80.1009,19.4402L 14.6005,19.4402C 10.5965,19.4402 7.35052,16.1943 7.35052,12.1902 Z "/>
		<radialGradient id="SVGID_Stroke4_" cx="47.3494" cy="73.4597" r="79.1194" gradientUnits="userSpaceOnUse" gradientTransform="rotate(90.000000 47.349365 73.459717)">
			<stop offset="0.869369" stop-color="#F1F1F1" stop-opacity="0"/>
			<stop offset="1" stop-color="#EEEEEE" stop-opacity="0.898039"/>
		</radialGradient>
		<path fill="none" stroke-width="4" stroke-linejoin="round" stroke="url(#SVGID_Stroke4_)" d="M 87.3507,82.6902L 87.3507,82.6902C 87.3507,86.6943 84.1047,89.9402 80.1007,89.9402L 14.6003,89.9402C 10.5962,89.9402 7.35037,86.6943 7.35037,82.6902L 7.35037,82.6902C 7.35037,78.6863 10.5962,75.4402 14.6003,75.4402L 80.1007,75.4402C 84.1047,75.4402 87.3507,78.6863 87.3507,82.6902 Z "/>
	</g>
</svg>
