<?xml version="1.0" encoding="utf-8"?>
<!DOCTYPE svg PUBLIC "-//W3C//DTD SVG 1.1//EN" "http://www.w3.org/Graphics/SVG/1.1/DTD/svg11.dtd">
<svg xmlns="http://www.w3.org/2000/svg" xmlns:xlink="http://www.w3.org/1999/xlink" version="1.1" baseProfile="full" width="95" height="95" viewBox="0 0 95.00 95.00" enable-background="new 0 0 95.00 95.00" xml:space="preserve">
	<path fill="#000000" fill-opacity="1" stroke-linejoin="round" stroke="#C0C0CC" stroke-opacity="1" d="M 15.5,2.49976L 79.5,2.49976C 86.6797,2.49976 92.5,8.32007 92.5,15.4998L 92.5,79.4998C 92.5,86.6794 86.6797,92.4998 79.5,92.4998L 15.5,92.4998C 8.32031,92.4998 2.5,86.6794 2.5,79.4998L 2.5,15.4998C 2.5,8.32007 8.32031,2.49976 15.5,2.49976 Z "/>
	<path fill="#FFFFFF" fill-opacity="1" stroke-linejoin="round" d="M 42.3154,32.1448C 45.1599,32.1448 47.47,29.9485 47.47,27.2156C 47.4666,24.5115 45.1599,22.302 42.3154,22.302C 39.4665,22.302 37.1633,24.5115 37.1633,27.2156C 37.1633,29.9485 39.4665,32.1448 42.3154,32.1448 Z "/>
	<path fill="#FFFFFF" fill-opacity="1" stroke-linejoin="round" d="M 14.2364,75.552L 38.7528,75.552L 40.8,71.8889L 16.0784,71.8889L 14.0313,75.552"/>
	<path fill="#FFFFFF" fill-opacity="1" stroke-linejoin="round" d="M 48.3794,71.8889L 62.2739,71.8889C 62.2513,71.759 62.2395,71.6257 62.2395,71.4895L 62.2395,67.4675L 15.4694,67.4675C 14.4359,67.4675 13.5903,66.6543 13.5903,65.6672C 13.5903,65.3777 16.882,50.2468 17.0208,50L 23.9375,54.3333L 36.651,54.6199C 35.4994,53.7161 34.6411,51.7119 34.6411,50.1843L 34.6411,38.1328C 34.6411,35.4155 36.9547,33.2061 39.8026,33.2061C 42.6549,33.2061 44.965,35.4155 44.965,38.1328L 44.9547,43.322L 54.7228,45.3394C 55.689,45.3525 56.601,45.905 56.9682,46.8342C 57.4501,48.0281 56.8234,49.3811 55.5675,49.8315C 55.2477,49.96 54.9141,50.0051 54.5943,49.9888L 44.965,47.988L 44.6145,53.2395L 51.802,57.302L 57.524,47.2776L 57.524,47.2322L 57.177,43.8801C 57.1614,43.1301 56.9246,42.6116 57.4504,42.1458L 57.7239,41.9426C 58.4721,41.3352 59.1399,41.6353 59.7864,42.3489L 59.802,44.7083L 64.9635,48.5574L 70.0193,48.76C 73.5621,49.2678 74.4947,50.9563 74.4947,50.9563L 76.5104,59.2185L 67.6221,65.6804C 67.2767,65.9392 66.9459,66.1614 66.6315,66.3518C 66.7808,66.6575 66.8645,67.0012 66.8645,67.3645L 66.8645,71.4895C 66.8645,71.6257 66.8528,71.759 66.8302,71.8889L 72.8881,71.8889C 72.8881,71.8889 76.4896,71.3645 77.622,70.5774L 79.9897,68.6672L 79.9897,73.0886L 77.5177,74.9985C 77.5177,74.9985 75.8885,75.2622 73.1475,75.5552L 46.3253,75.5552L 48.3794,71.8889 Z "/>
	<g>
		<path fill="none" stroke-width="3" stroke-linejoin="round" stroke="#FF0000" stroke-opacity="1" d="M 15.5425,6.09497L 79.2102,6.09497C 84.733,6.09497 89.2102,10.572 89.2102,16.095L 89.2102,80.083C 89.2102,85.6057 84.733,90.083 79.2102,90.083L 15.5425,90.083C 10.0197,90.083 5.54248,85.6057 5.54248,80.083L 5.54248,16.095C 5.54248,10.572 10.0197,6.09497 15.5425,6.09497 Z "/>
		<line fill="none" stroke-width="3" stroke-linejoin="round" stroke="#FF0000" stroke-opacity="1" x1="8.04211" y1="9.08911" x2="86.7088" y2="87.0891"/>
	</g>
	<g>
		<radialGradient id="SVGID_Fill1_" cx="-16.0266" cy="9.87939" r="118.103" gradientUnits="userSpaceOnUse">
			<stop offset="0" stop-color="#FFFFFF" stop-opacity="0.843137"/>
			<stop offset="0.77027" stop-color="#FFFFFF" stop-opacity="0.32549"/>
			<stop offset="1" stop-color="#FFFFFF" stop-opacity="0"/>
		</radialGradient>
		<path fill="url(#SVGID_Fill1_)" stroke-width="0.2" stroke-linejoin="round" d="M 16.3506,3.44043L 80.3506,3.44043C 86.4257,3.44043 91.3506,8.36548 91.3506,14.4404L 91.3506,77.4402C 91.3506,83.5154 86.4257,88.4402 80.3506,88.4402L 16.3506,88.4402C 10.2755,88.4402 5.35059,83.5154 5.35059,77.4402L 5.35059,14.4404C 5.35059,8.36548 10.2755,3.44043 16.3506,3.44043 Z "/>
		<radialGradient id="SVGID_Stroke1_" cx="73.3702" cy="47.4409" r="669.951" gradientUnits="userSpaceOnUse">
			<stop offset="0.869369" stop-color="#F1F1F1" stop-opacity="0"/>
			<stop offset="1" stop-color="#EEEEEE" stop-opacity="0.898039"/>
		</radialGradient>
		<path fill="none" stroke-width="4" stroke-linejoin="round" stroke="url(#SVGID_Stroke1_)" d="M 82.6005,7.43994L 82.6005,7.43994C 86.6046,7.43994 89.8505,10.6858 89.8505,14.6897L 89.8505,80.1902C 89.8505,84.1943 86.6046,87.4402 82.6005,87.4402L 82.6005,87.4402C 78.5964,87.4402 75.3505,84.1943 75.3505,80.1902L 75.3505,14.6897C 75.3505,10.6858 78.5964,7.43994 82.6005,7.43994 Z "/>
		<radialGradient id="SVGID_Stroke2_" cx="21.3309" cy="47.4397" r="669.951" gradientUnits="userSpaceOnUse" gradientTransform="rotate(180.000000 21.330933 47.439697)">
			<stop offset="0.869369" stop-color="#F1F1F1" stop-opacity="0"/>
			<stop offset="1" stop-color="#EEEEEE" stop-opacity="0.898039"/>
		</radialGradient>
		<path fill="none" stroke-width="4" stroke-linejoin="round" stroke="url(#SVGID_Stroke2_)" d="M 12.1006,87.4407L 12.1006,87.4407C 8.09656,87.4407 4.85065,84.1948 4.85065,80.1909L 4.85065,14.6904C 4.85065,10.6863 8.09656,7.44043 12.1006,7.44043L 12.1006,7.44043C 16.1047,7.44043 19.3506,10.6863 19.3506,14.6904L 19.3506,80.1909C 19.3506,84.1948 16.1047,87.4407 12.1006,87.4407 Z "/>
		<radialGradient id="SVGID_Stroke3_" cx="47.3517" cy="21.4207" r="79.1184" gradientUnits="userSpaceOnUse" gradientTransform="rotate(-90.000000 47.351688 21.420654)">
			<stop offset="0.869369" stop-color="#F1F1F1" stop-opacity="0"/>
			<stop offset="1" stop-color="#EEEEEE" stop-opacity="0.898039"/>
		</radialGradient>
		<path fill="none" stroke-width="4" stroke-linejoin="round" stroke="url(#SVGID_Stroke3_)" d="M 7.35034,12.1902L 7.35034,12.1902C 7.35034,8.18628 10.5963,4.94019 14.6003,4.94019L 80.1007,4.94019C 84.1049,4.94019 87.3507,8.18628 87.3507,12.1902L 87.3507,12.1902C 87.3507,16.1943 84.1049,19.4402 80.1007,19.4402L 14.6003,19.4402C 10.5963,19.4402 7.35034,16.1943 7.35034,12.1902 Z "/>
		<radialGradient id="SVGID_Stroke4_" cx="47.3494" cy="73.4597" r="79.1195" gradientUnits="userSpaceOnUse" gradientTransform="rotate(90.000000 47.349365 73.459717)">
			<stop offset="0.869369" stop-color="#F1F1F1" stop-opacity="0"/>
			<stop offset="1" stop-color="#EEEEEE" stop-opacity="0.898039"/>
		</radialGradient>
		<path fill="none" stroke-width="4" stroke-linejoin="round" stroke="url(#SVGID_Stroke4_)" d="M 87.3507,82.6902L 87.3507,82.6902C 87.3507,86.6943 84.1047,89.9402 80.1007,89.9402L 14.6003,89.9402C 10.5962,89.9402 7.35034,86.6943 7.35034,82.6902L 7.35034,82.6902C 7.35034,78.6863 10.5962,75.4402 14.6003,75.4402L 80.1007,75.4402C 84.1047,75.4402 87.3507,78.6863 87.3507,82.6902 Z "/>
	</g>
</svg>
