<?xml version="1.0" encoding="utf-8"?>
<!DOCTYPE svg PUBLIC "-//W3C//DTD SVG 1.1//EN" "http://www.w3.org/Graphics/SVG/1.1/DTD/svg11.dtd">
<svg xmlns="http://www.w3.org/2000/svg" xmlns:xlink="http://www.w3.org/1999/xlink" version="1.1" baseProfile="full" width="95" height="95" viewBox="0 0 95.00 95.00" enable-background="new 0 0 95.00 95.00" xml:space="preserve">
	<path fill="#000000" fill-opacity="1" stroke-linejoin="round" stroke="#C0C0CC" stroke-opacity="1" d="M 15.5001,2.49983L 79.5001,2.49983C 86.6797,2.49983 92.5001,8.32014 92.5001,15.4998L 92.5001,79.4996C 92.5001,86.6793 86.6797,92.4998 79.5001,92.4998L 15.5001,92.4998C 8.32037,92.4998 2.50006,86.6793 2.50006,79.4996L 2.50006,15.4998C 2.50006,8.32014 8.32037,2.49983 15.5001,2.49983 Z "/>
	<path fill="#FFFFFF" fill-opacity="1" stroke-linejoin="round" d="M 63.714,30.1798C 64.9841,29.3934 66.8835,28.4906 66.8835,28.4906C 66.8835,28.4906 66.5503,29.3502 66.3299,30.0499C 66.1095,30.7481 65.7994,31.8878 65.7994,31.8878C 65.7994,31.8878 68.064,30.3358 69.5977,29.9508C 71.1243,29.5631 73.9663,29.1038 73.9663,29.1038C 73.9663,29.1038 73.593,29.8338 73.3573,30.5545C 73.1199,31.2711 73.2526,31.7945 73.2526,31.7945C 73.2526,31.7945 75.0205,30.4486 76.046,30.15C 77.0687,29.8536 79.2771,29.5631 79.2771,29.5631C 79.2771,29.5631 78.5181,31.0179 78.2948,31.7235C 78.0724,32.4263 77.9968,33.276 77.9968,33.276C 77.9968,33.276 80.1097,32.6173 81.5294,32.5887C 82.9497,32.5589 85.369,33.2545 85.369,33.2545C 85.369,33.2545 84.7334,34.8065 84.1414,35.9508C 83.5509,37.099 82.2856,38.5694 82.2856,38.5694C 82.2856,38.5694 82.5117,39.0111 83.1624,39.2332C 83.8082,39.4508 84.3241,39.2557 84.3241,39.2557C 84.3241,39.2557 83.0826,41.004 82.3059,42.0152C 81.527,43.024 80.1157,44.5797 80.1157,44.5797C 80.1157,44.5797 80.3746,44.7669 81.0858,44.9183C 81.796,45.0679 82.2885,44.971 82.2885,44.971C 82.2885,44.971 80.47,47.5072 79.5338,48.5587C 78.5977,49.6033 77.1014,50.8709 77.1014,50.8709C 77.1014,50.8709 77.7461,51.3072 78.1727,51.5509C 78.5992,51.7899 79.7655,52.0958 79.7655,52.0958C 79.7655,52.0958 78.3729,54.0594 77.389,54.8475C 76.4047,55.6353 74.8215,56.3341 74.8215,56.3341C 74.8215,56.3341 74.7164,56.7052 75.1766,57.1273C 75.638,57.5528 76.0403,57.5865 76.0403,57.5865C 76.0403,57.5865 74.8672,59.0706 73.6529,59.8033C 72.4393,60.5333 70.863,60.6561 70.863,60.6561C 70.863,60.6561 70.8162,61.1507 71.0717,61.5426C 71.3293,61.9329 72.1915,62.4549 72.1915,62.4549C 72.1915,62.4549 69.9754,63.0848 68.8771,63.1114C 67.7788,63.1373 66.5997,62.8389 66.5997,62.8389C 66.5997,62.8389 66.5467,63.21 66.7881,63.7711C 67.0327,64.3336 67.4537,64.6695 67.4537,64.6695C 67.4537,64.6695 65.5956,65.2095 63.6392,64.2901C 61.6836,63.367 60.8578,62.3145 60.8578,62.3145C 60.8578,62.3145 60.7276,62.2637 60.8218,63.4078C 60.9136,64.5494 61.2586,65.2557 61.2586,65.2557C 61.2586,65.2557 57.125,62.566 54.0715,58.1099C 52.4633,61.252 49.9108,68.1644 51.0095,74.0037C 51.0095,74.0037 48.3817,68.1402 47.0342,67.3536L 47.3912,65.9058L 46.9862,62.5672C 46.9862,62.5672 47.0767,62.5172 47.2358,62.43C 44.6595,60.4823 40.9736,59.3136 38.9281,58.8704C 39.5093,61.9947 38.5837,64.8919 38.5837,64.8919C 38.5837,64.8919 38.4138,64.4581 37.881,63.9625C 37.3481,63.4639 37.3021,63.5426 37.3021,63.5426C 37.3021,63.5426 37.3817,64.3262 36.7651,65.5577C 36.1469,66.7882 34.8353,67.3936 34.8353,67.3936C 34.8353,67.3936 34.8975,67.0733 34.7466,66.7415C 34.5944,66.4115 34.3748,66.2869 34.3748,66.2869C 34.3748,66.2869 33.8708,66.9259 33.2458,67.4002C 32.621,67.8746 31.0652,68.6019 31.0652,68.6019C 31.0652,68.6019 31.2783,68.0137 31.2224,67.7445C 31.1625,67.4752 30.8838,67.2987 30.8838,67.2987C 30.8838,67.2987 29.9439,67.9459 28.8942,68.1905C 27.8426,68.4337 26.4317,68.3609 26.4317,68.3609C 26.4317,68.3609 26.6377,68.169 26.6758,67.796C 26.7164,67.4246 26.4682,67.3231 26.4682,67.3231C 26.4682,67.3231 25.2301,67.7437 24.2782,67.8634C 23.3277,67.984 21.5469,67.8158 21.5469,67.8158C 21.5469,67.8158 22.0395,67.1798 22.1547,66.8956C 22.2679,66.6102 22.4028,66.1517 22.4028,66.1517C 22.4028,66.1517 20.9221,66.3077 19.8645,66.3035C 18.8063,66.2974 16.4962,66.0894 16.4962,66.0894C 16.4962,66.0894 16.8188,65.9102 17.1394,65.5369C 17.4564,65.1629 17.5057,64.9744 17.5057,64.9744C 17.5057,64.9744 15.9235,64.9776 14.9738,64.9193C 14.0243,64.8587 12.4373,64.7091 12.4373,64.7091C 12.4373,64.7091 12.8249,64.5594 13.073,64.1878C 13.3209,63.8114 13.2217,63.5362 13.2217,63.5362C 13.2217,63.5362 11.7637,63.5079 10.8474,63.3111C 9.93353,63.1168 8.7851,62.7779 8.7851,62.7779C 8.7851,62.7779 9.77576,61.4327 10.5812,60.8177C 11.3864,60.2022 12.899,59.5323 12.899,59.5323C 12.899,59.5323 12.4235,59.2269 11.9394,59.045C 11.4537,58.8624 10.2864,58.6173 10.2864,58.6173C 10.2864,58.6173 11.6644,57.7581 12.3859,57.4246C 13.1093,57.0909 14.782,56.8472 14.782,56.8472C 14.782,56.8472 14.5892,56.5797 14.0891,56.3995C 13.5889,56.2159 13.0084,56.0902 13.0084,56.0902C 13.0084,56.0902 14.8247,55.0174 15.873,54.4981C 16.9235,53.9752 18.979,53.5941 18.979,53.5941L 17.7419,53.0953C 17.2621,52.9139 16.6356,52.7183 16.6356,52.7183C 16.6356,52.7183 18.1563,52.2398 19.2658,51.9932C 20.3748,51.7447 22.2161,51.5887 22.2161,51.5887L 21.4878,51.1312L 20.6935,50.5958C 20.6935,50.5958 23.0303,50.5213 23.8714,50.6102C 24.709,50.6998 26.6359,51.0274 26.6359,51.0274C 26.6359,51.0274 26.3552,50.5843 25.8649,50.2286C 25.376,49.8739 24.9272,49.628 24.9272,49.628C 24.9272,49.628 35.2379,51.0577 37.816,55.8643C 38.0593,56.3175 38.304,56.7725 38.48,57.2391C 37.9346,57.1795 37.3943,57.1417 36.8575,57.1202C 35.2986,55.7271 34.238,54.9893 33.2275,54.4786C 32.1267,53.9205 30.088,52.9884 29.1414,52.9083C 30.0753,53.2103 32.0021,53.9425 33.6108,55.1207C 34.921,56.0797 35.2852,56.2916 35.9957,57.0992C 34.7807,57.0887 33.583,57.1539 32.4123,57.2596L 31.7609,57.3267C 30.5858,56.397 29.2498,55.4788 27.9332,55.0272C 26.4161,54.5084 24.5695,53.9754 23.6372,53.9757C 24.5997,54.1571 27.138,55.0216 28.5948,55.8148C 29.6713,56.4017 30.1589,56.8555 30.8275,57.4364C 29.2892,57.6339 27.7825,57.9019 26.3004,58.2139C 25.1919,57.4566 23.9325,56.7027 22.7416,56.3831C 21.4217,56.0274 19.823,55.681 19.0411,55.7384C 19.8643,55.8355 22.0798,56.4268 23.3766,57.023C 24.4188,57.4993 24.865,57.8868 25.5706,58.4039C 22.3845,59.2874 19.333,60.3536 16.4305,61.5867C 19.0958,60.7423 21.8508,60.0313 24.6651,59.4649C 24.5771,59.9657 24.5428,60.3407 24.1884,60.8887C 23.7229,61.6068 22.5939,62.5098 22.0781,62.7515C 22.6866,62.6356 23.5638,62.0465 24.2337,61.5045C 24.8536,61.0059 25.1659,60.1475 25.3664,59.3277L 26.9698,59.0382C 27.8447,58.8563 28.7249,58.6927 29.6118,58.5501C 29.6134,59.3768 29.7114,59.9234 29.3747,60.8463C 28.9782,61.9495 27.8019,63.4522 27.2193,63.9014C 27.9449,63.6073 28.8873,62.5943 29.5874,61.6934C 30.2318,60.866 30.4072,59.6048 30.4551,58.4241C 31.2899,58.3021 32.1346,58.2027 32.9874,58.1295C 33.6145,58.0758 34.2454,58.0343 34.8804,58.0137C 34.8827,59.1417 34.9267,59.2843 34.5164,60.3343C 34.0548,61.5191 33.0688,63.1558 32.5519,63.6925C 33.3042,63.315 34.3898,61.951 34.8794,61.2791C 35.325,60.6671 35.8126,59.5301 35.7646,57.9957C 36.7626,57.9913 37.6664,58.0255 38.6675,58.1473L 38.7725,58.1715C 46.1329,57.8753 46.2865,59.0592 46.3346,58.6998L 46.3141,58.6876L 47.2556,54.0235C 46.8079,51.0596 46.2407,48.4505 45.8259,47.189C 42.9347,50.8687 39.3062,52.7166 39.3062,52.7166C 39.3062,52.7166 39.6499,52.1107 39.8237,51.0557C 39.9983,50.0011 39.887,50.0272 39.887,50.0272C 39.887,50.0272 39.1182,50.8802 37.4314,51.4268C 35.7446,51.9708 34.2626,51.1646 34.2626,51.1646C 34.2626,51.1646 34.6377,50.9161 34.8865,50.4307C 35.1335,49.9442 35.1215,49.5867 35.1215,49.5867C 35.1215,49.5867 34.1263,49.6754 33.2255,49.4752C 32.3248,49.2706 30.5573,48.3206 30.5573,48.3206C 30.5573,48.3206 31.3093,47.9759 31.5551,47.6502C 31.7991,47.3245 31.8026,46.8536 31.8026,46.8536C 31.8026,46.8536 30.5172,46.4823 29.5811,45.6033C 28.6458,44.7213 27.8076,43.1434 27.8076,43.1434C 27.8076,43.1434 28.1418,43.1732 28.5574,42.8502C 28.9718,42.5306 28.9171,42.1668 28.9171,42.1668C 28.9171,42.1668 27.6757,41.2537 26.9331,40.3585C 26.1915,39.461 25.2144,37.397 25.2144,37.397C 25.2144,37.397 26.1988,37.2994 26.5696,37.1456C 26.9418,36.9864 27.5092,36.6837 27.5092,36.6837C 27.5092,36.6837 26.3868,35.2535 25.7068,34.1241C 25.0272,32.9866 23.7484,30.3175 23.7484,30.3175C 23.7484,30.3175 24.1446,30.4869 24.7418,30.4615C 25.3395,30.4354 25.568,30.3035 25.568,30.3035C 25.568,30.3035 24.54,28.6187 23.986,27.547C 23.434,26.4749 22.5626,24.6373 22.5626,24.6373C 22.5626,24.6373 22.9709,24.9007 23.5194,24.8033C 24.0743,24.7012 24.2968,24.3241 24.2968,24.3241C 24.2968,24.3241 23.3827,22.7423 22.9951,21.5714C 22.6057,20.4049 22.2163,18.849 22.2163,18.849C 22.2163,18.849 24.2649,18.5892 25.43,18.8465C 26.5942,19.1026 28.275,20.0626 28.275,20.0626C 28.275,20.0626 28.2862,19.2545 28.1638,18.5594C 28.04,17.8636 27.5403,16.379 27.5403,16.379C 27.5403,16.379 29.331,17.0089 30.1469,17.4517C 30.9639,17.8973 32.3019,19.4439 32.3019,19.4439C 32.3019,19.4439 32.4563,18.9757 32.3218,18.2655C 32.1898,17.5526 31.9453,16.8072 31.9453,16.8072C 31.9453,16.8072 34.2423,17.6988 35.4651,18.3096C 36.6941,18.918 38.4227,20.7386 38.4227,20.7386C 38.4227,20.7386 38.2653,19.6197 38.1433,18.9307C 38.0226,18.2393 37.8212,17.3814 37.8212,17.3814C 37.8212,17.3814 39.3058,18.5343 40.2833,19.4771C 41.2604,20.418 42.6165,22.2335 42.6165,22.2335C 42.6165,22.2335 42.6036,21.7008 42.6234,21.0042L 42.6678,19.6361C 42.6678,19.6361 44.261,22.0535 44.7117,23.0396C 45.1609,24.0211 46.0665,26.3988 46.0665,26.3988C 46.0665,26.3988 46.3476,25.6637 46.402,24.793C 46.4567,23.9244 46.4231,23.2044 46.4231,23.2044C 46.4231,23.2044 51.606,35.6055 48.2483,43.0592C 47.9331,43.7652 47.6153,44.4718 47.241,45.1148C 46.9508,44.4747 46.6408,43.8614 46.3152,43.2681C 46.762,40.243 46.8469,38.3875 46.7262,36.8092C 46.5977,35.0892 46.2515,32.002 45.7224,30.9119C 46.0117,32.2047 46.4929,34.9783 46.3032,37.847C 46.1493,40.1827 46.1635,40.7799 45.7789,42.3284C 45.0032,41.0206 44.1593,39.8057 43.2905,38.6588L 42.7993,38.0308C 43.0093,35.866 43.1042,33.543 42.7239,31.6971C 42.2832,29.5684 41.645,27.0787 41.0409,26.0821C 41.4756,27.286 42.2137,30.8428 42.3285,33.1741C 42.4121,34.8966 42.2534,35.8629 42.0797,37.1431C 40.8766,35.6932 39.6193,34.3492 38.3334,33.0733C 38.4081,31.1483 38.38,29.0655 37.9441,27.483C 37.4603,25.7271 36.7881,23.6827 36.2206,22.9039C 36.6522,23.8768 37.4694,26.8189 37.6849,28.7867C 37.8625,30.3658 37.7457,31.2198 37.6621,32.4796C 34.6752,29.9425 31.584,27.7308 28.413,25.8419C 31.0243,27.8595 33.5507,30.1033 35.9662,32.5506C 35.3862,32.9469 34.9714,33.2794 34.1681,33.4351C 33.1165,33.6412 31.4413,33.3214 30.8544,33.0081C 31.3697,33.543 32.5542,33.9017 33.5549,34.0875C 34.4769,34.2611 35.5764,33.7554 36.5643,33.1666L 37.9057,34.5955C 38.6628,35.3477 39.4032,36.1265 40.1281,36.9359C 39.2635,37.7469 38.7551,38.3863 37.5724,38.9307C 36.162,39.5865 33.8275,39.8018 32.9823,39.6195C 33.7589,40.106 35.4293,40.1195 36.8243,39.9857C 38.1071,39.8634 39.5386,38.816 40.8051,37.7095C 41.4738,38.4813 42.1232,39.2899 42.7536,40.1246C 43.2155,40.743 43.6673,41.3761 44.1002,42.0318C 42.9218,43.1383 42.8015,43.3265 41.4376,43.9151C 39.9004,44.5826 37.5504,45.1324 36.6548,45.1065C 37.5361,45.5382 39.6654,45.3626 40.6843,45.2276C 41.6127,45.1041 43.1188,44.5096 44.6909,42.9591C 45.342,44.0179 45.8918,45.0172 46.4131,46.2054L 46.4554,46.3428C 49.2391,53.8526 48.5222,53.4762 48.3478,53.3219L 51.6392,56.5611L 52.5122,58.6646C 52.784,58.2386 53.0827,57.7191 53.4115,57.0892L 53.4766,56.9542C 54.2288,55.8165 54.9947,54.8819 55.8879,53.9053C 57.5981,55.8582 59.3329,56.7923 60.4288,57.1138C 61.631,57.4654 64.156,58.0928 65.2563,57.8194C 64.1839,57.6612 61.4357,56.5982 59.6718,55.5821C 58.1056,54.6798 57.9822,54.4595 56.6951,53.0553C 57.2843,52.4564 57.8929,51.8834 58.5125,51.3316C 59.3555,50.585 60.2209,49.8741 61.1033,49.2027C 62.496,50.6236 64.0917,52.0191 65.6113,52.4124C 67.2645,52.8414 69.2613,53.1729 70.2432,52.8221C 69.2115,52.8372 66.4468,52.1285 64.8333,51.1495C 63.4795,50.3345 62.9412,49.5587 61.9974,48.5279C 62.9513,47.8311 63.9207,47.1663 64.9065,46.5323L 66.666,45.3111C 67.7813,46.1326 69.0409,46.8902 70.161,46.9007C 71.3766,46.9112 72.832,46.7796 73.5052,46.3241C 72.7701,46.5333 70.7336,46.5235 69.4987,46.0887C 68.556,45.7569 68.097,45.3243 67.4473,44.7894C 70.5994,42.7198 73.8636,40.887 77.2021,39.3089C 73.2085,40.6387 69.2734,42.3211 65.429,44.3646C 65.4662,43.024 65.42,42.1041 65.8035,40.4847C 66.2761,38.4652 67.573,35.5474 68.1942,34.6148C 67.4319,35.3136 66.4052,37.3201 65.6364,39.0643C 64.9425,40.6344 64.6829,42.8131 64.5616,44.8468C 62.8862,45.9198 61.2388,47.0714 59.6431,48.3431C 59.5743,46.9644 59.4906,45.9156 59.7777,44.127C 60.1675,41.7064 61.4385,38.128 62.0887,36.9544C 61.2578,37.8739 60.2242,40.3546 59.4659,42.4959C 58.8109,44.3531 58.6705,46.8126 58.6866,49.127L 58.0308,49.6846C 56.8674,50.7071 55.7271,51.8072 54.6575,53.0179C 54.3671,51.3145 54.4496,50.6915 54.5191,48.2091C 54.6057,45.1593 55.4835,42.3487 55.9692,41.0535C 55.2183,42.0858 54.4686,45.2545 54.1273,47.0318C 53.8115,48.6624 53.7096,50.6268 53.9138,53.8951C 53.4608,54.4488 53.0242,55.0311 52.6068,55.6412C 52.2295,54.8883 51.9274,54.0819 51.6266,53.2777C 48.4283,44.7623 55.9713,32.8219 55.9713,32.8219C 55.9713,32.8219 55.8536,33.5692 55.824,34.4928C 55.7938,35.419 56.0497,36.2462 56.0497,36.2462C 56.0497,36.2462 57.3906,33.9395 58.0344,33.003C 58.6815,32.0621 60.8469,29.8531 60.8469,29.8531L 60.7523,31.2987C 60.6993,32.0355 60.6261,32.5887 60.6261,32.5887C 60.6261,32.5887 62.4438,30.9647 63.714,30.1798 Z M 47.9662,63.0318C 47.9618,63.2066 47.9556,63.3785 47.9478,63.5474L 47.996,63.0589 Z M 46.3348,58.6976L 46.3345,58.6998L 46.4042,58.7408L 46.3348,58.6976 Z M 46.4042,58.7408L 47.8823,59.6617C 47.8811,59.6444 47.8799,59.6268 47.8788,59.6092L 46.4042,58.7408 Z "/>
	<g>
		<path fill="none" stroke-width="3" stroke-linejoin="round" stroke="#FF0000" stroke-opacity="1" d="M 15.5426,6.0948L 79.2103,6.0948C 84.7332,6.0948 89.2103,10.5721 89.2103,16.0948L 89.2103,80.0831C 89.2103,85.6058 84.7332,90.0831 79.2103,90.0831L 15.5426,90.0831C 10.0197,90.0831 5.5426,85.6058 5.5426,80.0831L 5.5426,16.0948C 5.5426,10.5721 10.0197,6.0948 15.5426,6.0948 Z "/>
		<line fill="none" stroke-width="3" stroke-linejoin="round" stroke="#FF0000" stroke-opacity="1" x1="8.04224" y1="9.08919" x2="86.7089" y2="87.0892"/>
	</g>
	<g>
		<radialGradient id="SVGID_Fill1_" cx="-16.0265" cy="9.87947" r="118.102" gradientUnits="userSpaceOnUse">
			<stop offset="0" stop-color="#FFFFFF" stop-opacity="0.843137"/>
			<stop offset="0.77027" stop-color="#FFFFFF" stop-opacity="0.32549"/>
			<stop offset="1" stop-color="#FFFFFF" stop-opacity="0"/>
		</radialGradient>
		<path fill="url(#SVGID_Fill1_)" stroke-width="0.2" stroke-linejoin="round" d="M 16.3506,3.44051L 80.3506,3.44051C 86.4258,3.44051 91.3506,8.36531 91.3506,14.4405L 91.3506,77.44C 91.3506,83.5152 86.4258,88.44 80.3506,88.44L 16.3506,88.44C 10.2755,88.44 5.35065,83.5152 5.35065,77.44L 5.35065,14.4405C 5.35065,8.36531 10.2755,3.44051 16.3506,3.44051 Z "/>
		<radialGradient id="SVGID_Stroke1_" cx="73.3702" cy="47.441" r="669.951" gradientUnits="userSpaceOnUse">
			<stop offset="0.869369" stop-color="#F1F1F1" stop-opacity="0"/>
			<stop offset="1" stop-color="#EEEEEE" stop-opacity="0.898039"/>
		</radialGradient>
		<path fill="none" stroke-width="4" stroke-linejoin="round" stroke="url(#SVGID_Stroke1_)" d="M 82.6006,7.44002L 82.6006,7.44002C 86.6046,7.44002 89.8506,10.6859 89.8506,14.6898L 89.8506,80.1903C 89.8506,84.1944 86.6046,87.4403 82.6006,87.4403L 82.6006,87.4403C 78.5965,87.4403 75.3506,84.1944 75.3506,80.1903L 75.3506,14.6898C 75.3506,10.6859 78.5965,7.44002 82.6006,7.44002 Z "/>
		<radialGradient id="SVGID_Stroke2_" cx="21.3311" cy="47.4395" r="669.951" gradientUnits="userSpaceOnUse" gradientTransform="rotate(180.000000 21.331055 47.439529)">
			<stop offset="0.869369" stop-color="#F1F1F1" stop-opacity="0"/>
			<stop offset="1" stop-color="#EEEEEE" stop-opacity="0.898039"/>
		</radialGradient>
		<path fill="none" stroke-width="4" stroke-linejoin="round" stroke="url(#SVGID_Stroke2_)" d="M 12.1007,87.4405L 12.1007,87.4405C 8.09668,87.4405 4.85071,84.1947 4.85071,80.1908L 4.85071,14.6903C 4.85071,10.6861 8.09668,7.44026 12.1007,7.44026L 12.1007,7.44026C 16.1047,7.44026 19.3507,10.6861 19.3507,14.6903L 19.3507,80.1908C 19.3507,84.1947 16.1047,87.4405 12.1007,87.4405 Z "/>
		<radialGradient id="SVGID_Stroke3_" cx="47.3518" cy="21.4207" r="79.1195" gradientUnits="userSpaceOnUse" gradientTransform="rotate(-90.000000 47.351810 21.420731)">
			<stop offset="0.869369" stop-color="#F1F1F1" stop-opacity="0"/>
			<stop offset="1" stop-color="#EEEEEE" stop-opacity="0.898039"/>
		</radialGradient>
		<path fill="none" stroke-width="4" stroke-linejoin="round" stroke="url(#SVGID_Stroke3_)" d="M 7.35046,12.1903L 7.35046,12.1903C 7.35046,8.18611 10.5964,4.94026 14.6005,4.94026L 80.1008,4.94026C 84.105,4.94026 87.3508,8.18611 87.3508,12.1903L 87.3508,12.1903C 87.3508,16.1944 84.105,19.4403 80.1008,19.4403L 14.6005,19.4403C 10.5964,19.4403 7.35046,16.1944 7.35046,12.1903 Z "/>
		<radialGradient id="SVGID_Stroke4_" cx="47.3496" cy="73.4598" r="79.1194" gradientUnits="userSpaceOnUse" gradientTransform="rotate(90.000000 47.349609 73.459793)">
			<stop offset="0.869369" stop-color="#F1F1F1" stop-opacity="0"/>
			<stop offset="1" stop-color="#EEEEEE" stop-opacity="0.898039"/>
		</radialGradient>
		<path fill="none" stroke-width="4" stroke-linejoin="round" stroke="url(#SVGID_Stroke4_)" d="M 87.351,82.6903L 87.351,82.6903C 87.351,86.6944 84.105,89.9403 80.101,89.9403L 14.6006,89.9403C 10.5964,89.9403 7.35065,86.6944 7.35065,82.6903L 7.35065,82.6903C 7.35065,78.6861 10.5964,75.4403 14.6006,75.4403L 80.101,75.4403C 84.105,75.4403 87.351,78.6861 87.351,82.6903 Z "/>
	</g>
</svg>
