<?xml version="1.0" encoding="utf-8"?>
<!DOCTYPE svg PUBLIC "-//W3C//DTD SVG 1.1//EN" "http://www.w3.org/Graphics/SVG/1.1/DTD/svg11.dtd">
<svg xmlns="http://www.w3.org/2000/svg" xmlns:xlink="http://www.w3.org/1999/xlink" version="1.1" baseProfile="full" width="95" height="95" viewBox="0 0 95.00 95.00" enable-background="new 0 0 95.00 95.00" xml:space="preserve">
	<path fill="#FACD00" fill-opacity="1" stroke-width="5" stroke-linejoin="round" stroke="#000000" stroke-opacity="1" d="M 16.5,3.49976L 78.5,3.49976C 85.6797,3.49976 91.5,9.32007 91.5,16.4998L 91.5,78.4998C 91.5,85.6794 85.6797,91.4998 78.5,91.4998L 16.5,91.4998C 9.32031,91.4998 3.5,85.6794 3.5,78.4998L 3.5,16.4998C 3.5,9.32007 9.32031,3.49976 16.5,3.49976 Z "/>
	<g>
		<path fill="#000000" fill-opacity="1" stroke-width="0.2" stroke-linejoin="round" d="M 30.3333,29.854C 34.7499,25.2498 34.4999,23.5415 28.8541,27.2498C 23.2083,30.9583 12.1666,40.0833 12.6666,49.5208C 13.1666,58.9583 25.2083,68.7083 31.4166,72.604C 37.6249,76.4998 37.9999,74.5415 33.0833,69.7083C 28.1666,64.8748 17.9583,57.1665 17.3958,49.5623C 16.8333,41.9583 25.9166,34.4583 30.3333,29.854 Z "/>
		<path fill="#000000" fill-opacity="1" stroke-width="0.2" stroke-linejoin="round" d="M 37.4825,34.2009C 40.7594,30.6919 40.574,29.3899 36.3851,32.2161C 32.1962,35.0425 24.004,41.9971 24.3749,49.1897C 24.7459,56.3826 33.6801,63.8132 38.2864,66.7825C 42.8926,69.7517 43.1708,68.259 39.5229,64.5754C 35.875,60.8918 28.301,55.0168 27.8837,49.2214C 27.4664,43.426 34.2056,37.71 37.4825,34.2009 Z "/>
		<path fill="#000000" fill-opacity="1" stroke-width="0.2" stroke-linejoin="round" d="M 63.8123,30.0452C 59.3956,25.4409 59.6456,23.7327 65.2915,27.4409C 70.9373,31.1492 81.979,40.2742 81.479,49.7117C 80.979,59.1492 68.9373,68.8992 62.729,72.7952C 56.5206,76.6909 56.1456,74.7327 61.0623,69.8992C 65.979,65.0659 76.1873,57.3577 76.7498,49.7534C 77.3123,42.1492 68.229,34.6492 63.8123,30.0452 Z "/>
		<path fill="#000000" fill-opacity="1" stroke-width="0.2" stroke-linejoin="round" d="M 58.038,34.2671C 54.761,30.7581 54.9465,29.4561 59.1354,32.2825C 63.3243,35.1086 71.5166,42.0632 71.1456,49.2559C 70.7747,56.4485 61.8404,63.8794 57.2342,66.8486C 52.628,69.8179 52.3497,68.3254 55.9976,64.6416C 59.6455,60.9578 67.2195,55.083 67.6368,49.2876C 68.0542,43.4922 61.3148,37.7761 58.038,34.2671 Z "/>
		<path fill="#000000" fill-opacity="1" stroke-width="0.2" stroke-linejoin="round" d="M 47.8125,35.3333C 55.2339,35.3333 61.25,41.4614 61.25,49.0208C 61.25,56.5798 55.2339,62.7083 47.8125,62.7083C 40.3911,62.7083 34.375,56.5798 34.375,49.0208C 34.375,41.4614 40.3911,35.3333 47.8125,35.3333 Z "/>
	</g>
	<g>
		<path fill="none" stroke-width="3" stroke-linejoin="round" stroke="#FF0000" stroke-opacity="1" d="M 15.5425,6.09473L 79.2102,6.09473C 84.733,6.09473 89.2102,10.572 89.2102,16.0947L 89.2102,80.0828C 89.2102,85.6057 84.733,90.0828 79.2102,90.0828L 15.5425,90.0828C 10.0197,90.0828 5.54248,85.6057 5.54248,80.0828L 5.54248,16.0947C 5.54248,10.572 10.0197,6.09473 15.5425,6.09473 Z "/>
		<line fill="none" stroke-width="3" stroke-linejoin="round" stroke="#FF0000" stroke-opacity="1" x1="8.04211" y1="9.08911" x2="86.7088" y2="87.0891"/>
	</g>
	<g>
		<radialGradient id="SVGID_Fill1_" cx="-16.0266" cy="9.87915" r="118.102" gradientUnits="userSpaceOnUse">
			<stop offset="0" stop-color="#FFFFFF" stop-opacity="0.843137"/>
			<stop offset="0.77027" stop-color="#FFFFFF" stop-opacity="0.32549"/>
			<stop offset="1" stop-color="#FFFFFF" stop-opacity="0"/>
		</radialGradient>
		<path fill="url(#SVGID_Fill1_)" stroke-width="0.2" stroke-linejoin="round" d="M 16.3506,3.44019L 80.3506,3.44019C 86.4257,3.44019 91.3506,8.36523 91.3506,14.4402L 91.3506,77.4399C 91.3506,83.5151 86.4257,88.4399 80.3506,88.4399L 16.3506,88.4399C 10.2755,88.4399 5.35059,83.5151 5.35059,77.4399L 5.35059,14.4402C 5.35059,8.36523 10.2755,3.44019 16.3506,3.44019 Z "/>
		<radialGradient id="SVGID_Stroke1_" cx="73.3702" cy="47.4407" r="669.951" gradientUnits="userSpaceOnUse">
			<stop offset="0.869369" stop-color="#F1F1F1" stop-opacity="0"/>
			<stop offset="1" stop-color="#EEEEEE" stop-opacity="0.898039"/>
		</radialGradient>
		<path fill="none" stroke-width="4" stroke-linejoin="round" stroke="url(#SVGID_Stroke1_)" d="M 82.6005,7.4397L 82.6005,7.4397C 86.6046,7.4397 89.8505,10.6858 89.8505,14.6897L 89.8505,80.1902C 89.8505,84.1941 86.6046,87.4402 82.6005,87.4402L 82.6005,87.4402C 78.5964,87.4402 75.3505,84.1941 75.3505,80.1902L 75.3505,14.6897C 75.3505,10.6858 78.5964,7.4397 82.6005,7.4397 Z "/>
		<radialGradient id="SVGID_Stroke2_" cx="21.3309" cy="47.4397" r="669.951" gradientUnits="userSpaceOnUse" gradientTransform="rotate(180.000000 21.330933 47.439697)">
			<stop offset="0.869369" stop-color="#F1F1F1" stop-opacity="0"/>
			<stop offset="1" stop-color="#EEEEEE" stop-opacity="0.898039"/>
		</radialGradient>
		<path fill="none" stroke-width="4" stroke-linejoin="round" stroke="url(#SVGID_Stroke2_)" d="M 12.1006,87.4407L 12.1006,87.4407C 8.09656,87.4407 4.85065,84.1948 4.85065,80.1909L 4.85065,14.6904C 4.85065,10.6863 8.09656,7.44043 12.1006,7.44043L 12.1006,7.44043C 16.1047,7.44043 19.3506,10.6863 19.3506,14.6904L 19.3506,80.1909C 19.3506,84.1948 16.1047,87.4407 12.1006,87.4407 Z "/>
		<radialGradient id="SVGID_Stroke3_" cx="47.3519" cy="21.4207" r="79.1195" gradientUnits="userSpaceOnUse" gradientTransform="rotate(-90.000000 47.351868 21.420654)">
			<stop offset="0.869369" stop-color="#F1F1F1" stop-opacity="0"/>
			<stop offset="1" stop-color="#EEEEEE" stop-opacity="0.898039"/>
		</radialGradient>
		<path fill="none" stroke-width="4" stroke-linejoin="round" stroke="url(#SVGID_Stroke3_)" d="M 7.35046,12.1902L 7.35046,12.1902C 7.35046,8.18604 10.5965,4.94019 14.6005,4.94019L 80.1008,4.94019C 84.105,4.94019 87.3508,8.18604 87.3508,12.1902L 87.3508,12.1902C 87.3508,16.1941 84.105,19.4402 80.1008,19.4402L 14.6005,19.4402C 10.5965,19.4402 7.35046,16.1941 7.35046,12.1902 Z "/>
		<radialGradient id="SVGID_Stroke4_" cx="47.3489" cy="73.4597" r="79.1184" gradientUnits="userSpaceOnUse" gradientTransform="rotate(90.000000 47.348938 73.459717)">
			<stop offset="0.869369" stop-color="#F1F1F1" stop-opacity="0"/>
			<stop offset="1" stop-color="#EEEEEE" stop-opacity="0.898039"/>
		</radialGradient>
		<path fill="none" stroke-width="4" stroke-linejoin="round" stroke="url(#SVGID_Stroke4_)" d="M 87.3503,82.6902L 87.3503,82.6902C 87.3503,86.6941 84.1043,89.9402 80.1003,89.9402L 14.6,89.9402C 10.5958,89.9402 7.34998,86.6941 7.34998,82.6902L 7.34998,82.6902C 7.34998,78.686 10.5958,75.4402 14.6,75.4402L 80.1003,75.4402C 84.1043,75.4402 87.3503,78.686 87.3503,82.6902 Z "/>
	</g>
</svg>
