<?xml version="1.0" encoding="utf-8"?>
<!DOCTYPE svg PUBLIC "-//W3C//DTD SVG 1.1//EN" "http://www.w3.org/Graphics/SVG/1.1/DTD/svg11.dtd">
<svg xmlns="http://www.w3.org/2000/svg" xmlns:xlink="http://www.w3.org/1999/xlink" version="1.1" baseProfile="full" width="95" height="95" viewBox="0 0 95.00 95.00" enable-background="new 0 0 95.00 95.00" xml:space="preserve">
	<path fill="#000000" fill-opacity="1" stroke-linejoin="round" stroke="#C0C0CC" stroke-opacity="1" d="M 15.5001,2.50006L 79.5001,2.50006C 86.6797,2.50006 92.5001,8.32037 92.5001,15.5001L 92.5001,79.4998C 92.5001,86.6795 86.6797,92.4999 79.5001,92.4999L 15.5001,92.4999C 8.32037,92.4999 2.50006,86.6795 2.50006,79.4998L 2.50006,15.5001C 2.50006,8.32037 8.32037,2.50006 15.5001,2.50006 Z "/>
	<g>
		<path fill="#FFFFFF" fill-opacity="1" stroke-linejoin="round" d="M 66.2866,33.3463C 63.2296,33.3463 60.7509,30.8668 60.7509,27.8096C 60.7509,24.7525 63.2296,22.273 66.2866,22.273C 69.3452,22.273 71.8234,24.7525 71.8234,27.8096C 71.8234,30.8668 69.3452,33.3463 66.2866,33.3463 Z "/>
		<path fill="#FFFFFF" fill-opacity="1" stroke-linejoin="round" d="M 50.7203,26.5504L 48.0479,26.5511C 47.7557,26.8304 47.5775,27.1949 47.5775,27.5955L 47.5775,31.846C 47.5775,32.7318 47.7875,33.5435 48.276,34.2247C 48.4887,34.5484 48.7957,34.8648 49.211,35.16C 52.4844,37.4869 52.4067,40.4285 59.4733,42.4747C 59.708,42.5428 59.9896,42.6653 60.1892,42.8919C 60.186,45.3148 60.1779,48.8841 60.158,52.795C 60.0864,54.3118 60.0032,55.6685 59.9106,56.5313C 59.9069,56.5655 59.9863,56.5987 60.135,56.6304C 60.0896,63.1605 60.0076,69.9081 59.86,73.4904C 59.7181,76.9245 65.0419,76.91 65.1823,73.4904C 65.3809,68.6854 65.4705,60.4026 65.499,56.9193C 65.7878,56.9219 66.0779,56.9234 66.3666,56.9232C 66.3953,60.409 66.4852,68.6871 66.6837,73.4904C 66.8241,76.91 72.1479,76.9245 72.006,73.4904C 71.8577,69.8919 71.7757,63.0992 71.7303,56.5418C 71.8298,56.4971 71.8839,56.4483 71.8857,56.3946C 72.0182,52.306 71.9369,49.4168 72.1094,46.1895C 72.1222,45.9568 72.4619,45.888 72.6702,46.1102C 74.2213,47.7703 76.6776,50.7496 77.6857,52.0047C 78.3522,52.8384 79.4496,53.2886 80.5665,53.2886C 81.2313,53.2886 81.8995,53.1299 82.4921,52.7979C 84.0818,51.9078 84.5045,50.1094 83.4409,48.7803C 80.8358,45.5357 74.8239,39.4595 71.9742,36.9359C 69.1246,34.4122 63.8734,34.7676 61.6362,36.1768C 60.2484,37.0501 58.7391,36.3995 57.3677,36.0469C 54.6282,34.4566 51.1907,30.5191 51.1907,30.5191L 51.1907,27.5955C 51.1907,27.1949 51.0125,26.8304 50.7203,26.5504 Z "/>
	</g>
	<g>
		<path fill="#FFFFFF" fill-opacity="1" stroke-linejoin="round" d="M 28.1957,33.119C 31.2527,33.119 33.7314,30.6395 33.7314,27.5823C 33.7314,24.5252 31.2527,22.0457 28.1957,22.0457C 25.1371,22.0457 22.659,24.5252 22.659,27.5823C 22.659,30.6395 25.1371,33.119 28.1957,33.119 Z "/>
		<path fill="#FFFFFF" fill-opacity="1" stroke-linejoin="round" d="M 43.762,26.3228L 46.4344,26.3238C 46.7267,26.6031 46.9048,26.9676 46.9048,27.3682L 46.9048,31.6187C 46.9048,32.5045 46.6949,33.316 46.2064,33.9971C 45.9937,34.3209 45.6867,34.6375 45.2714,34.9327C 41.9979,37.2596 42.0756,40.2012 35.009,42.2474C 34.7743,42.3155 34.4927,42.438 34.2931,42.6646C 34.2964,45.0875 34.3044,48.6568 34.3243,52.5677C 34.396,54.0845 34.4791,55.441 34.5717,56.3038C 34.5754,56.3382 34.4961,56.3714 34.3473,56.4031C 34.3928,62.9332 34.4747,69.6808 34.6223,73.263C 34.7643,76.6971 29.4404,76.6826 29.3,73.263C 29.1014,68.4581 29.0118,60.1754 28.9834,56.692C 28.6945,56.6946 28.4044,56.6959 28.1158,56.6959C 28.0871,60.1817 27.9972,68.4598 27.7986,73.263C 27.6582,76.6826 22.3344,76.6971 22.4764,73.263C 22.6246,69.6645 22.7067,62.8719 22.752,56.3145C 22.6525,56.2698 22.5984,56.2208 22.5967,56.1671C 22.4641,52.0787 22.5455,49.1895 22.373,45.962C 22.3601,45.7296 22.0205,45.6607 21.8122,45.8829C 20.261,47.543 17.8048,50.522 16.7966,51.7774C 16.1302,52.6109 15.0327,53.0611 13.9159,53.0611C 13.2511,53.0611 12.5828,52.9026 11.9902,52.5706C 10.4005,51.6802 9.97791,49.8821 11.0414,48.553C 13.6466,45.3084 19.6584,39.2322 22.5081,36.7086C 25.3577,34.1846 30.6089,34.5401 32.8462,35.9493C 34.2339,36.8228 35.7433,36.1719 37.1147,35.8196C 39.8542,34.2293 43.2917,30.2918 43.2917,30.2918L 43.2917,27.3682C 43.2917,26.9676 43.4698,26.6031 43.762,26.3228 Z "/>
	</g>
	<g>
		<radialGradient id="SVGID_Fill1_" cx="-15.964" cy="10.317" r="118.103" gradientUnits="userSpaceOnUse">
			<stop offset="0" stop-color="#FFFFFF" stop-opacity="0.843137"/>
			<stop offset="0.77027" stop-color="#FFFFFF" stop-opacity="0.32549"/>
			<stop offset="1" stop-color="#FFFFFF" stop-opacity="0"/>
		</radialGradient>
		<path fill="url(#SVGID_Fill1_)" stroke-width="0.2" stroke-linejoin="round" d="M 16.4131,3.87799L 80.4131,3.87799C 86.4883,3.87799 91.4131,8.8028 91.4131,14.878L 91.4131,77.8776C 91.4131,83.9528 86.4883,88.8776 80.4131,88.8776L 16.4131,88.8776C 10.338,88.8776 5.41315,83.9528 5.41315,77.8776L 5.41315,14.878C 5.41315,8.8028 10.338,3.87799 16.4131,3.87799 Z "/>
		<radialGradient id="SVGID_Stroke1_" cx="73.3702" cy="47.441" r="669.951" gradientUnits="userSpaceOnUse">
			<stop offset="0.869369" stop-color="#F1F1F1" stop-opacity="0"/>
			<stop offset="1" stop-color="#EEEEEE" stop-opacity="0.898039"/>
		</radialGradient>
		<path fill="none" stroke-width="4" stroke-linejoin="round" stroke="url(#SVGID_Stroke1_)" d="M 82.6006,7.44L 82.6006,7.44C 86.6046,7.44 89.8506,10.6861 89.8506,14.69L 89.8506,80.1904C 89.8506,84.1945 86.6046,87.4404 82.6006,87.4404L 82.6006,87.4404C 78.5966,87.4404 75.3506,84.1945 75.3506,80.1904L 75.3506,14.69C 75.3506,10.6861 78.5966,7.44 82.6006,7.44 Z "/>
		<radialGradient id="SVGID_Stroke2_" cx="21.3311" cy="47.4402" r="669.951" gradientUnits="userSpaceOnUse" gradientTransform="rotate(180.000000 21.331055 47.440247)">
			<stop offset="0.869369" stop-color="#F1F1F1" stop-opacity="0"/>
			<stop offset="1" stop-color="#EEEEEE" stop-opacity="0.898039"/>
		</radialGradient>
		<path fill="none" stroke-width="4" stroke-linejoin="round" stroke="url(#SVGID_Stroke2_)" d="M 12.1007,87.4412L 12.1007,87.4412C 8.09668,87.4412 4.85071,84.1953 4.85071,80.1913L 4.85071,14.691C 4.85071,10.6868 8.09668,7.44098 12.1007,7.44098L 12.1007,7.44098C 16.1047,7.44098 19.3507,10.6868 19.3507,14.691L 19.3507,80.1913C 19.3507,84.1953 16.1047,87.4412 12.1007,87.4412 Z "/>
		<radialGradient id="SVGID_Stroke3_" cx="47.3523" cy="21.421" r="79.1195" gradientUnits="userSpaceOnUse" gradientTransform="rotate(-90.000000 47.352299 21.420959)">
			<stop offset="0.869369" stop-color="#F1F1F1" stop-opacity="0"/>
			<stop offset="1" stop-color="#EEEEEE" stop-opacity="0.898039"/>
		</radialGradient>
		<path fill="none" stroke-width="4" stroke-linejoin="round" stroke="url(#SVGID_Stroke3_)" d="M 7.35095,12.1905L 7.35095,12.1905C 7.35095,8.18634 10.5969,4.94049 14.601,4.94049L 80.1013,4.94049C 84.1055,4.94049 87.3513,8.18634 87.3513,12.1905L 87.3513,12.1905C 87.3513,16.1944 84.1055,19.4405 80.1013,19.4405L 14.601,19.4405C 10.5969,19.4405 7.35095,16.1944 7.35095,12.1905 Z "/>
		<radialGradient id="SVGID_Stroke4_" cx="47.349" cy="73.4599" r="79.1195" gradientUnits="userSpaceOnUse" gradientTransform="rotate(90.000000 47.348999 73.459900)">
			<stop offset="0.869369" stop-color="#F1F1F1" stop-opacity="0"/>
			<stop offset="1" stop-color="#EEEEEE" stop-opacity="0.898039"/>
		</radialGradient>
		<path fill="none" stroke-width="4" stroke-linejoin="round" stroke="url(#SVGID_Stroke4_)" d="M 87.3503,82.6904L 87.3503,82.6904C 87.3503,86.6945 84.1044,89.9404 80.1003,89.9404L 14.6,89.9404C 10.5958,89.9404 7.34998,86.6945 7.34998,82.6904L 7.34998,82.6904C 7.34998,78.6863 10.5958,75.4404 14.6,75.4404L 80.1003,75.4404C 84.1044,75.4404 87.3503,78.6863 87.3503,82.6904 Z "/>
	</g>
</svg>
