<?xml version="1.0" encoding="utf-8"?>
<!DOCTYPE svg PUBLIC "-//W3C//DTD SVG 1.1//EN" "http://www.w3.org/Graphics/SVG/1.1/DTD/svg11.dtd">
<svg xmlns="http://www.w3.org/2000/svg" xmlns:xlink="http://www.w3.org/1999/xlink" version="1.1" baseProfile="full" width="91" height="91" viewBox="0 0 91.00 91.00" enable-background="new 0 0 91.00 91.00" xml:space="preserve">
	<path fill="#000000" fill-opacity="1" stroke-linejoin="round" stroke="#000000" stroke-opacity="1" d="M 13.5,0.5L 77.5,0.5C 84.6797,0.5 90.5,6.32031 90.5,13.5L 90.5,77.4998C 90.5,84.6794 84.6797,90.5 77.5,90.5L 13.5,90.5C 6.32031,90.5 0.5,84.6794 0.5,77.4998L 0.5,13.5C 0.5,6.32031 6.32031,0.5 13.5,0.5 Z "/>
	<g>
		<path fill="#FFFFFF" fill-opacity="1" stroke-width="0.2" stroke-linejoin="round" d="M 37.0339,54.7336L 37.0339,75.3774L 22.5322,75.3774L 22.5322,15.1663L 44.8513,15.1663C 60.7881,15.1663 68.7566,21.5769 68.7566,34.3987C 68.7566,40.4646 66.4883,45.3704 61.9518,49.1155C 57.4153,52.8608 51.3563,54.7336 43.775,54.7336L 37.0339,54.7336 Z M 37.0339,25.488L 37.0339,44.4116L 42.4154,44.4116C 49.7041,44.4116 53.3484,41.2219 53.3484,34.8423C 53.3484,28.6062 49.7041,25.488 42.4154,25.488L 37.0339,25.488 Z "/>
	</g>
	<g>
		<path fill="none" stroke-width="3" stroke-linejoin="round" stroke="#FF0000" stroke-opacity="1" d="M 13.7365,4.08838L 77.4034,4.08838C 82.9262,4.08838 87.4034,8.56567 87.4034,14.0884L 87.4034,78.0818C 87.4034,83.6047 82.9262,88.0818 77.4034,88.0818L 13.7365,88.0818C 8.21359,88.0818 3.73645,83.6047 3.73645,78.0818L 3.73645,14.0884C 3.73645,8.56567 8.21359,4.08838 13.7365,4.08838 Z "/>
		<line fill="none" stroke-width="3" stroke-linejoin="round" stroke="#FF0000" stroke-opacity="1" x1="6.23633" y1="7.08374" x2="84.903" y2="85.0837"/>
	</g>
	<g>
		<radialGradient id="SVGID_Fill1_" cx="-18.1029" cy="7.46069" r="118.103" gradientUnits="userSpaceOnUse">
			<stop offset="0" stop-color="#FFFFFF" stop-opacity="0.843137"/>
			<stop offset="0.77027" stop-color="#FFFFFF" stop-opacity="0.32549"/>
			<stop offset="1" stop-color="#FFFFFF" stop-opacity="0"/>
		</radialGradient>
		<path fill="url(#SVGID_Fill1_)" stroke-width="0.2" stroke-linejoin="round" d="M 14.2743,1.02173L 78.2743,1.02173C 84.3494,1.02173 89.2743,5.94653 89.2743,12.0217L 89.2743,75.0212C 89.2743,81.0964 84.3494,86.0212 78.2743,86.0212L 14.2743,86.0212C 8.19919,86.0212 3.27429,81.0964 3.27429,75.0212L 3.27429,12.0217C 3.27429,5.94653 8.19919,1.02173 14.2743,1.02173 Z "/>
		<radialGradient id="SVGID_Stroke1_" cx="71.2939" cy="45.0222" r="669.951" gradientUnits="userSpaceOnUse">
			<stop offset="0.869369" stop-color="#F1F1F1" stop-opacity="0"/>
			<stop offset="1" stop-color="#EEEEEE" stop-opacity="0.898039"/>
		</radialGradient>
		<path fill="none" stroke-width="4" stroke-linejoin="round" stroke="url(#SVGID_Stroke1_)" d="M 80.5242,5.02124L 80.5242,5.02124C 84.5283,5.02124 87.7742,8.26709 87.7742,12.2712L 87.7742,77.7715C 87.7742,81.7756 84.5283,85.0215 80.5242,85.0215L 80.5242,85.0215C 76.5202,85.0215 73.2743,81.7756 73.2743,77.7715L 73.2743,12.2712C 73.2743,8.26709 76.5202,5.02124 80.5242,5.02124 Z "/>
		<radialGradient id="SVGID_Stroke2_" cx="19.2546" cy="45.0205" r="669.951" gradientUnits="userSpaceOnUse" gradientTransform="rotate(180.000000 19.254608 45.020508)">
			<stop offset="0.869369" stop-color="#F1F1F1" stop-opacity="0"/>
			<stop offset="1" stop-color="#EEEEEE" stop-opacity="0.898039"/>
		</radialGradient>
		<path fill="none" stroke-width="4" stroke-linejoin="round" stroke="url(#SVGID_Stroke2_)" d="M 10.0243,85.0215L 10.0243,85.0215C 6.02023,85.0215 2.77429,81.7756 2.77429,77.7717L 2.77429,12.2712C 2.77429,8.26709 6.02023,5.02124 10.0243,5.02124L 10.0243,5.02124C 14.0283,5.02124 17.2743,8.26709 17.2743,12.2712L 17.2743,77.7717C 17.2743,81.7756 14.0283,85.0215 10.0243,85.0215 Z "/>
		<radialGradient id="SVGID_Stroke3_" cx="45.2757" cy="19.002" r="79.1195" gradientUnits="userSpaceOnUse" gradientTransform="rotate(-90.000000 45.275665 19.001953)">
			<stop offset="0.869369" stop-color="#F1F1F1" stop-opacity="0"/>
			<stop offset="1" stop-color="#EEEEEE" stop-opacity="0.898039"/>
		</radialGradient>
		<path fill="none" stroke-width="4" stroke-linejoin="round" stroke="url(#SVGID_Stroke3_)" d="M 5.27432,9.77148L 5.27432,9.77148C 5.27432,5.76733 8.52029,2.52148 12.5243,2.52148L 78.0247,2.52148C 82.0289,2.52148 85.2747,5.76733 85.2747,9.77148L 85.2747,9.77148C 85.2747,13.7756 82.0289,17.0215 78.0247,17.0215L 12.5243,17.0215C 8.52029,17.0215 5.27432,13.7756 5.27432,9.77148 Z "/>
		<radialGradient id="SVGID_Stroke4_" cx="45.2733" cy="71.041" r="79.1195" gradientUnits="userSpaceOnUse" gradientTransform="rotate(90.000000 45.273315 71.041016)">
			<stop offset="0.869369" stop-color="#F1F1F1" stop-opacity="0"/>
			<stop offset="1" stop-color="#EEEEEE" stop-opacity="0.898039"/>
		</radialGradient>
		<path fill="none" stroke-width="4" stroke-linejoin="round" stroke="url(#SVGID_Stroke4_)" d="M 85.2747,80.2715L 85.2747,80.2715C 85.2747,84.2756 82.0287,87.5215 78.0247,87.5215L 12.5243,87.5215C 8.52014,87.5215 5.27432,84.2756 5.27432,80.2715L 5.27432,80.2715C 5.27432,76.2673 8.52014,73.0215 12.5243,73.0215L 78.0247,73.0215C 82.0287,73.0215 85.2747,76.2673 85.2747,80.2715 Z "/>
	</g>
</svg>
