<?xml version="1.0" encoding="utf-8"?>
<!DOCTYPE svg PUBLIC "-//W3C//DTD SVG 1.1//EN" "http://www.w3.org/Graphics/SVG/1.1/DTD/svg11.dtd">
<svg xmlns="http://www.w3.org/2000/svg" xmlns:xlink="http://www.w3.org/1999/xlink" version="1.1" baseProfile="full" width="91" height="91" viewBox="0 0 91.00 91.00" enable-background="new 0 0 91.00 91.00" xml:space="preserve">
	<path fill="#000000" fill-opacity="1" stroke-linejoin="round" stroke="#000000" stroke-opacity="1" d="M 13.5,0.5L 77.5,0.5C 84.6797,0.5 90.5,6.32031 90.5,13.5L 90.5,77.4998C 90.5,84.6794 84.6797,90.5 77.5,90.5L 13.5,90.5C 6.3203,90.5 0.5,84.6794 0.5,77.4998L 0.5,13.5C 0.5,6.32031 6.3203,0.5 13.5,0.5 Z "/>
	<g>
		<path fill="#FFFFFF" fill-opacity="1" stroke-linejoin="round" stroke="#FFFFFF" stroke-opacity="0.501961" d="M 18.1766,53.7104L 18.1766,53.8076L 26.7548,53.8076L 26.7548,58.0635L 13.0078,58.0635L 13.0078,54.0632L 19.0541,47.7666C 20.2728,46.5046 21.1297,45.4468 21.6248,44.5925C 22.1199,43.7383 22.3675,42.8406 22.3675,41.8994C 22.3675,39.7986 21.3056,38.7483 19.1821,38.7483C 17.3357,38.7483 15.5701,39.5122 13.8852,41.04L 13.8852,36.595C 15.7316,35.4116 17.8141,34.8201 20.1327,34.8201C 22.305,34.8201 24.0005,35.4031 25.2192,36.5693C 26.4379,37.7356 27.0473,39.311 27.0473,41.2957C 27.0473,43.9456 25.5544,46.6838 22.5685,49.511L 18.1766,53.7104 Z "/>
		<path fill="#FFFFFF" fill-opacity="1" stroke-linejoin="round" stroke="#FFFFFF" stroke-opacity="0.501961" d="M 44.5967,53.1528L 42.2568,53.1528L 42.2568,58.0635L 38.1619,58.0635L 38.1619,53.1528L 29.0947,53.1528L 29.0947,49.9353L 37.8329,35.1472L 42.2568,35.1472L 42.2568,49.5518L 44.5967,49.5518L 44.5967,53.1528 Z M 38.2213,40.0579L 38.1345,40.0579C 37.9974,40.4465 37.7338,41.0503 37.3439,41.8687L 32.8377,49.5518L 38.1619,49.5518L 38.1619,42.2678C 38.1619,41.6233 38.1817,40.8865 38.2213,40.0579 Z "/>
		<path fill="#FFFFFF" fill-opacity="1" stroke-linejoin="round" stroke="#FFFFFF" stroke-opacity="0.501961" d="M 77.6481,37.4797L 70.0434,58.0635L 65.3635,58.0635L 72.9682,39.4031L 63.0236,39.4031L 63.0236,35.1472L 77.6481,35.1472L 77.6481,37.4797 Z "/>
	</g>
	<g>
		<path fill="#FFFFFF" fill-opacity="1" stroke-linejoin="round" stroke="#FFFFFF" stroke-opacity="0.545098" d="M 61.8631,20.2839L 45.7606,70.7429L 42.1831,70.7429L 58.2331,20.2839L 61.8631,20.2839 Z "/>
	</g>
	<g>
		<radialGradient id="SVGID_Fill1_" cx="-17.8808" cy="7.79077" r="118.102" gradientUnits="userSpaceOnUse">
			<stop offset="0" stop-color="#FFFFFF" stop-opacity="0.843137"/>
			<stop offset="0.77027" stop-color="#FFFFFF" stop-opacity="0.32549"/>
			<stop offset="1" stop-color="#FFFFFF" stop-opacity="0"/>
		</radialGradient>
		<path fill="url(#SVGID_Fill1_)" stroke-width="0.2" stroke-linejoin="round" d="M 14.4964,1.35181L 78.4964,1.35181C 84.5715,1.35181 89.4964,6.27661 89.4964,12.3518L 89.4964,75.3513C 89.4964,81.4265 84.5715,86.3513 78.4964,86.3513L 14.4964,86.3513C 8.42123,86.3513 3.49637,81.4265 3.49637,75.3513L 3.49637,12.3518C 3.49637,6.27661 8.42123,1.35181 14.4964,1.35181 Z "/>
		<radialGradient id="SVGID_Stroke1_" cx="71.516" cy="45.3523" r="669.951" gradientUnits="userSpaceOnUse">
			<stop offset="0.869369" stop-color="#F1F1F1" stop-opacity="0"/>
			<stop offset="1" stop-color="#EEEEEE" stop-opacity="0.898039"/>
		</radialGradient>
		<path fill="none" stroke-width="4" stroke-linejoin="round" stroke="url(#SVGID_Stroke1_)" d="M 80.7463,5.35132L 80.7463,5.35132C 84.7504,5.35132 87.9963,8.59717 87.9963,12.6013L 87.9963,78.1016C 87.9963,82.1057 84.7504,85.3516 80.7463,85.3516L 80.7463,85.3516C 76.7423,85.3516 73.4964,82.1057 73.4964,78.1016L 73.4964,12.6013C 73.4964,8.59717 76.7423,5.35132 80.7463,5.35132 Z "/>
		<radialGradient id="SVGID_Stroke2_" cx="19.4767" cy="45.3506" r="669.951" gradientUnits="userSpaceOnUse" gradientTransform="rotate(180.000000 19.476685 45.350586)">
			<stop offset="0.869369" stop-color="#F1F1F1" stop-opacity="0"/>
			<stop offset="1" stop-color="#EEEEEE" stop-opacity="0.898039"/>
		</radialGradient>
		<path fill="none" stroke-width="4" stroke-linejoin="round" stroke="url(#SVGID_Stroke2_)" d="M 10.2464,85.3516L 10.2464,85.3516C 6.24229,85.3516 2.99637,82.1057 2.99637,78.1018L 2.99637,12.6013C 2.99637,8.59717 6.24229,5.35132 10.2464,5.35132L 10.2464,5.35132C 14.2504,5.35132 17.4963,8.59717 17.4963,12.6013L 17.4963,78.1018C 17.4963,82.1057 14.2504,85.3516 10.2464,85.3516 Z "/>
		<radialGradient id="SVGID_Stroke3_" cx="45.4978" cy="19.332" r="79.1195" gradientUnits="userSpaceOnUse" gradientTransform="rotate(-90.000000 45.497787 19.332031)">
			<stop offset="0.869369" stop-color="#F1F1F1" stop-opacity="0"/>
			<stop offset="1" stop-color="#EEEEEE" stop-opacity="0.898039"/>
		</radialGradient>
		<path fill="none" stroke-width="4" stroke-linejoin="round" stroke="url(#SVGID_Stroke3_)" d="M 5.49644,10.1016L 5.49644,10.1016C 5.49644,6.09741 8.74242,2.85156 12.7464,2.85156L 78.2468,2.85156C 82.2509,2.85156 85.4968,6.09741 85.4968,10.1016L 85.4968,10.1016C 85.4968,14.1057 82.2509,17.3516 78.2468,17.3516L 12.7464,17.3516C 8.74242,17.3516 5.49644,14.1057 5.49644,10.1016 Z "/>
		<radialGradient id="SVGID_Stroke4_" cx="45.4954" cy="71.3711" r="79.1194" gradientUnits="userSpaceOnUse" gradientTransform="rotate(90.000000 45.495377 71.371094)">
			<stop offset="0.869369" stop-color="#F1F1F1" stop-opacity="0"/>
			<stop offset="1" stop-color="#EEEEEE" stop-opacity="0.898039"/>
		</radialGradient>
		<path fill="none" stroke-width="4" stroke-linejoin="round" stroke="url(#SVGID_Stroke4_)" d="M 85.4967,80.6016L 85.4967,80.6016C 85.4967,84.6057 82.2507,87.8516 78.2467,87.8516L 12.7464,87.8516C 8.74223,87.8516 5.4964,84.6057 5.4964,80.6016L 5.4964,80.6016C 5.4964,76.5974 8.74223,73.3516 12.7464,73.3516L 78.2467,73.3516C 82.2507,73.3516 85.4967,76.5974 85.4967,80.6016 Z "/>
	</g>
</svg>
