<?xml version="1.0" encoding="utf-8"?>
<!DOCTYPE svg PUBLIC "-//W3C//DTD SVG 1.1//EN" "http://www.w3.org/Graphics/SVG/1.1/DTD/svg11.dtd">
<svg xmlns="http://www.w3.org/2000/svg" xmlns:xlink="http://www.w3.org/1999/xlink" version="1.1" baseProfile="full" width="88" height="76" viewBox="0 0 88.00 76.00" enable-background="new 0 0 88.00 76.00" xml:space="preserve">
	<g>
		<path fill="#FFD23F" fill-opacity="1" stroke-width="0.2" stroke-linejoin="round" d="M 75.1966,74.0833L 85.3334,63.093L 85.3334,36.0833C 85.3334,33.8742 83.5425,32.0833 81.3334,32.0833L 70.3334,32.0833C 68.1242,32.0833 66.3334,33.8742 66.3334,36.0833L 66.3334,70.0833C 66.3334,72.2924 68.1242,74.0833 70.3334,74.0833L 75.1966,74.0833 Z "/>
		<path fill="#646464" fill-opacity="1" stroke-width="0.2" stroke-linejoin="round" d="M 73.4584,34.9166L 77.4584,34.9166C 78.5629,34.9166 79.4584,35.8121 79.4584,36.9166L 79.4584,40.9166C 79.4584,42.0212 78.5629,42.9166 77.4584,42.9166L 73.4584,42.9166C 72.3538,42.9166 71.4584,42.0212 71.4584,40.9166L 71.4584,36.9166C 71.4584,35.8121 72.3538,34.9166 73.4584,34.9166 Z "/>
		<path fill="#646464" fill-opacity="1" stroke-width="0.2" stroke-linejoin="round" d="M 73.5209,47.3541L 77.5209,47.3541C 78.6254,47.3541 79.5209,48.2496 79.5209,49.3541L 79.5209,53.3541C 79.5209,54.4587 78.6254,55.3541 77.5209,55.3541L 73.5209,55.3541C 72.4163,55.3541 71.5209,54.4587 71.5209,53.3541L 71.5209,49.3541C 71.5209,48.2496 72.4163,47.3541 73.5209,47.3541 Z "/>
		<path fill="#646464" fill-opacity="1" stroke-width="0.2" stroke-linejoin="round" d="M 73.2709,59.7291L 77.2709,59.7291C 78.3754,59.7291 79.2709,60.6246 79.2709,61.7291L 79.2709,65.7291C 79.2709,66.8337 78.3754,67.7291 77.2709,67.7291L 73.2709,67.7291C 72.1663,67.7291 71.2709,66.8337 71.2709,65.7291L 71.2709,61.7291C 71.2709,60.6246 72.1663,59.7291 73.2709,59.7291 Z "/>
	</g>
</svg>
