<?xml version="1.0" encoding="utf-8"?>
<!DOCTYPE svg PUBLIC "-//W3C//DTD SVG 1.1//EN" "http://www.w3.org/Graphics/SVG/1.1/DTD/svg11.dtd">
<svg xmlns="http://www.w3.org/2000/svg" xmlns:xlink="http://www.w3.org/1999/xlink" version="1.1" baseProfile="full" width="211.593" height="152.708" viewBox="0 0 211.59 152.71" enable-background="new 0 0 211.59 152.71" xml:space="preserve">
	<path fill="#FFFFFF" fill-opacity="1" stroke-width="4" stroke-linejoin="round" stroke="#96B66E" stroke-opacity="1" d="M 193.628,174.874L 17.9655,174.874C 11.3508,174.874 5.98848,169.512 5.98848,162.898L 5.98848,23.1664L 5.98848,-12.7642C 5.98848,-19.3792 11.3508,-24.7415 17.9655,-24.7415L 193.628,-24.7415C 200.242,-24.7415 205.605,-19.3792 205.605,-12.7642L 205.605,23.1664L 205.605,162.898C 205.605,169.512 200.242,174.874 193.628,174.874 Z "/>
	<path fill="none" stroke-width="2" stroke-linejoin="round" stroke="#000000" stroke-opacity="1" d="M 192.614,177.225L 17.7011,177.266C 11.0473,177.183 4.22706,168.949 4.22707,163.293L 4.18549,22.5658L 4.18549,-14.0831C 4.26865,-19.5628 10.2571,-26.2998 16.402,-26.2999L 194.361,-26.2582C 201.108,-26.2582 207.752,-20.1866 207.918,-11.5365L 207.793,22.5658L 207.835,162.877C 207.835,170.238 199.361,177.225 192.614,177.225 Z "/>
</svg>
