<?xml version="1.0" encoding="utf-8"?>
<!DOCTYPE svg PUBLIC "-//W3C//DTD SVG 1.1//EN" "http://www.w3.org/Graphics/SVG/1.1/DTD/svg11.dtd">
<svg xmlns="http://www.w3.org/2000/svg" xmlns:xlink="http://www.w3.org/1999/xlink" version="1.1" baseProfile="full" width="211.593" height="29.9417" viewBox="0 0 211.59 29.94" enable-background="new 0 0 211.59 29.94" xml:space="preserve">
	<path fill="#FFFFFF" fill-opacity="1" stroke-width="4" stroke-linejoin="round" stroke="#96B66E" stroke-opacity="1" d="M 193.628,204.814L 17.9655,204.814C 11.3508,204.814 5.98848,199.452 5.98848,192.838L 5.98848,53.1062L 5.98848,17.1756C 5.98848,10.5606 11.3508,5.19826 17.9655,5.19826L 193.628,5.19826C 200.242,5.19826 205.605,10.5606 205.605,17.1756L 205.605,53.1062L 205.605,192.838C 205.605,199.452 200.242,204.814 193.628,204.814 Z "/>
	<path fill="none" stroke-width="2" stroke-linejoin="round" stroke="#000000" stroke-opacity="1" d="M 192.614,207.165L 17.7011,207.206C 11.0473,207.123 4.22706,198.889 4.22707,193.233L 4.18549,52.5056L 4.18549,15.8566C 4.26865,10.377 10.2571,3.63997 16.402,3.63985L 194.361,3.68159C 201.108,3.68159 207.752,9.75319 207.918,18.4033L 207.793,52.5056L 207.835,192.817C 207.835,200.178 199.361,207.165 192.614,207.165 Z "/>
</svg>
