<?xml version="1.0" encoding="utf-8"?>
<!DOCTYPE svg PUBLIC "-//W3C//DTD SVG 1.1//EN" "http://www.w3.org/Graphics/SVG/1.1/DTD/svg11.dtd">
<svg xmlns="http://www.w3.org/2000/svg" xmlns:xlink="http://www.w3.org/1999/xlink" version="1.1" baseProfile="full" width="513" height="513" viewBox="0 0 513.00 513.00" enable-background="new 0 0 513.00 513.00" xml:space="preserve">
	<g>
		<linearGradient id="SVGID_Fill1_" gradientUnits="objectBoundingBox" x1="0.814661" y1="0.888576" x2="1.81466" y2="0.888576" gradientTransform="rotate(231.000031 0.814661 0.888576)">
			<stop offset="0" stop-color="#425E7E" stop-opacity="1"/>
			<stop offset="0.893501" stop-color="#70ACF1" stop-opacity="1"/>
			<stop offset="1" stop-color="#90C5F1" stop-opacity="1"/>
		</linearGradient>
		<path fill="url(#SVGID_Fill1_)" stroke-width="0.2" stroke-linejoin="round" d="M 167.237,42.4009C 242.348,42.4009 303.236,103.289 303.236,178.4C 303.236,253.51 242.347,314.399 167.237,314.399C 92.1261,314.399 31.2366,253.51 31.2366,178.4C 31.2366,103.289 92.125,42.4009 167.237,42.4009 Z "/>
		<g>
			<radialGradient id="SVGID_Fill2_" cx="136.904" cy="121.068" r="93.3333" gradientUnits="userSpaceOnUse">
				<stop offset="0.125" stop-color="#90F19D" stop-opacity="1"/>
				<stop offset="0.323276" stop-color="#8CF186" stop-opacity="1"/>
				<stop offset="0.323276" stop-color="#89F170" stop-opacity="1"/>
				<stop offset="0.50431" stop-color="#7EDF69" stop-opacity="1"/>
				<stop offset="1" stop-color="#447E42" stop-opacity="1"/>
			</radialGradient>
			<path fill="url(#SVGID_Fill2_)" stroke-width="2" stroke-linejoin="round" stroke="#006432" stroke-opacity="1" d="M 79.571,84.7349L 79.571,88.0681L 77.571,89.4014L 60.2377,88.7349L 45.571,110.068L 45.571,114.735L 51.571,120.068L 50.9044,126.068L 53.571,130.735L 58.9044,135.401L 60.2377,158.068L 65.571,164.068L 83.571,184.735L 98.2377,195.401L 114.238,200.735L 120.904,204.068L 122.238,192.735L 113.571,186.068L 105.571,183.401L 103.571,175.401L 116.238,175.401L 120.238,182.735L 126.238,188.068L 134.904,191.401L 152.904,186.735L 155.571,179.401L 138.904,179.401L 132.238,170.068L 131.571,163.401L 154.904,136.068L 163.571,128.735L 152.238,108.735L 158.904,100.068L 152.904,88.0681L 144.238,81.4014L 141.571,74.0681L 145.571,66.7349L 151.571,60.0681L 154.238,73.4014L 164.904,76.7349L 169.571,83.4014L 172.904,100.735L 178.238,108.735L 182.238,113.401L 191.571,106.735L 194.238,102.068L 217.571,103.401L 219.571,108.735L 228.238,100.735L 224.904,94.7349L 216.904,92.7349L 211.571,88.0681L 210.904,80.0681L 216.238,76.7349L 217.571,52.7349L 207.571,44.7349L 198.904,42.0681L 183.571,42.0681L 175.571,46.0681L 170.238,51.4014L 163.571,50.7349L 158.904,43.4014L 156.238,38.7349L 146.904,38.0681L 141.571,40.7349L 136.238,44.7349L 123.571,46.7349L 122.238,50.0681L 124.238,56.0681L 118.238,57.4014L 115.571,53.4014L 104.238,52.0681L 100.904,58.0681L 100.238,66.0681L 100.238,69.4014L 96.9044,71.4014L 90.9044,71.4014L 88.9044,64.0681L 84.9044,63.4014L 80.9044,68.0681L 74.2377,74.0681L 76.2377,84.0681L 79.571,84.7349 Z M 113.081,70.3904L 108.415,66.3904L 114.415,67.7236L 120.415,67.7236L 128.415,68.3904L 129.081,77.0571L 131.748,79.0571L 136.415,86.3904L 140.415,89.7236L 139.748,97.7236L 133.748,99.0571L 129.081,96.3904L 126.415,90.3904L 121.748,83.0571L 114.415,81.7236L 114.415,78.3904L 113.081,70.3904 Z M 107.748,117.724L 111.081,110.39L 119.748,107.724L 126.415,114.39L 125.081,123.057L 120.415,129.724L 112.415,127.057L 107.081,121.057L 107.748,117.724 Z "/>
			<radialGradient id="SVGID_Fill3_" cx="150.081" cy="191.724" r="55.3333" gradientUnits="userSpaceOnUse">
				<stop offset="0" stop-color="#7EDF69" stop-opacity="1"/>
				<stop offset="1" stop-color="#447E42" stop-opacity="1"/>
			</radialGradient>
			<path fill="url(#SVGID_Fill3_)" stroke-width="2" stroke-linejoin="round" stroke="#006432" stroke-opacity="1" d="M 145.081,200.39L 133.748,200.39L 125.748,210.39L 122.415,221.724L 121.748,229.057L 136.415,239.057L 143.748,244.39L 150.415,257.724L 135.748,259.057L 134.415,269.724L 133.748,283.057L 137.081,298.39L 139.748,301.724L 162.415,307.057L 198.415,294.39L 145.081,200.39 Z "/>
			<radialGradient id="SVGID_Fill4_" cx="212.581" cy="121.057" r="32.8333" gradientUnits="userSpaceOnUse">
				<stop offset="0" stop-color="#7EDF69" stop-opacity="1"/>
				<stop offset="1" stop-color="#447E42" stop-opacity="1"/>
			</radialGradient>
			<path fill="url(#SVGID_Fill4_)" stroke-width="2" stroke-linejoin="round" stroke="#006432" stroke-opacity="1" d="M 225.748,126.224L 226.415,118.224L 233.748,113.224L 237.081,115.224L 253.081,133.224L 249.415,117.89L 247.415,113.557L 250.081,108.224L 256.415,102.89L 263.081,94.5571L 262.081,88.2236L 266.415,84.2236L 272.748,86.5571L 287.415,106.89L 274.081,125.89L 253.748,137.89L 225.748,126.224 Z "/>
		</g>
	</g>
	<linearGradient id="SVGID_Fill5_" gradientUnits="objectBoundingBox" x1="0.335258" y1="-0.157286" x2="1.69049" y2="-0.157286" gradientTransform="rotate(49.056816 0.335258 -0.157286)">
		<stop offset="0.0186047" stop-color="#343A4D" stop-opacity="1"/>
		<stop offset="0.488372" stop-color="#72B2D9" stop-opacity="1"/>
		<stop offset="0.772093" stop-color="#485270" stop-opacity="1"/>
	</linearGradient>
	<path fill="url(#SVGID_Fill5_)" stroke-width="3" stroke-linecap="round" stroke-linejoin="round" stroke="#263854" stroke-opacity="1" d="M 266.175,388.404L 287.175,412.404L 303.175,423.404L 332.175,441.404L 354.175,453.404L 377.175,460.404L 394.175,461.404L 408.175,457.404L 421.175,449.404L 426.175,436.404L 424.175,430.404L 413.175,434.404L 389.175,432.404L 368.175,425.404L 346.175,415.404L 326.175,401.404L 312.175,389.404L 305.175,382.404L 301.175,377.404L 299.175,375.404L 266.175,388.404 Z "/>
	<linearGradient id="SVGID_Stroke1_" gradientUnits="objectBoundingBox" x1="0.5" y1="-0.196872" x2="1.28343" y2="-0.196872" gradientTransform="rotate(35.059597 0.500000 -0.196872)">
		<stop offset="0" stop-color="#4A647E" stop-opacity="1"/>
		<stop offset="0.0560345" stop-color="#263854" stop-opacity="1"/>
		<stop offset="0.978448" stop-color="#293C58" stop-opacity="0.996078"/>
		<stop offset="1" stop-color="#628DB1" stop-opacity="1"/>
	</linearGradient>
	<radialGradient id="SVGID_Fill6_" cx="292.546" cy="346.606" r="49.3921" gradientUnits="userSpaceOnUse" gradientTransform="rotate(35.000107 292.545685 346.606201)">
		<stop offset="0" stop-color="#F2F6F8" stop-opacity="1"/>
		<stop offset="1" stop-color="#5F8EAF" stop-opacity="1"/>
	</radialGradient>
	<ellipse fill="url(#SVGID_Fill6_)" stroke-width="3" stroke-linejoin="round" stroke="url(#SVGID_Stroke1_)" cx="292.546" cy="388.651" rx="30" ry="28.6666"/>
	<g>
		<linearGradient id="SVGID_Stroke2_" gradientUnits="objectBoundingBox" x1="0.0922552" y1="0.238722" x2="1.05405" y2="0.238722" gradientTransform="rotate(40.169872 0.092255 0.238722)">
			<stop offset="0.00431034" stop-color="#ADB1B2" stop-opacity="1"/>
			<stop offset="0.185345" stop-color="#9EA8AB" stop-opacity="1"/>
			<stop offset="1" stop-color="#D4E2E3" stop-opacity="1"/>
		</linearGradient>
		<linearGradient id="SVGID_Fill7_" gradientUnits="objectBoundingBox" x1="0.088967" y1="0.23691" x2="1.05822" y2="0.23691" gradientTransform="rotate(40.201588 0.088967 0.236910)">
			<stop offset="0.00431034" stop-color="#B3B8B9" stop-opacity="1"/>
			<stop offset="0.185345" stop-color="#A4AFB2" stop-opacity="1"/>
			<stop offset="1" stop-color="#E2F0F1" stop-opacity="1"/>
		</linearGradient>
		<path fill="url(#SVGID_Fill7_)" stroke-width="2" stroke-linejoin="round" stroke="url(#SVGID_Stroke2_)" d="M 212.248,162.72L 402.248,115.387C 408.248,113.387 428.248,110.109 428.248,128.887L 428.581,313.551C 428.581,332.329 414.953,352.457 396.175,352.457L 215.509,402.29C 196.731,402.29 180.581,402.332 180.581,383.554L 180.581,195.554C 180.581,176.776 190.248,166.72 212.248,162.72 Z "/>
		<linearGradient id="SVGID_Stroke3_" gradientUnits="objectBoundingBox" x1="0.30613" y1="0.854942" x2="1.13963" y2="0.854942" gradientTransform="rotate(-72.851868 0.306130 0.854942)">
			<stop offset="0" stop-color="#7D8181" stop-opacity="1"/>
			<stop offset="0.616379" stop-color="#D1E2E3" stop-opacity="1"/>
			<stop offset="1" stop-color="#7D8181" stop-opacity="1"/>
		</linearGradient>
		<linearGradient id="SVGID_Fill8_" gradientUnits="objectBoundingBox" x1="0.304705" y1="0.857278" x2="1.14378" y2="0.857278" gradientTransform="rotate(-72.864182 0.304705 0.857278)">
			<stop offset="0" stop-color="#898E8F" stop-opacity="1"/>
			<stop offset="0.616379" stop-color="#E4F7F8" stop-opacity="1"/>
			<stop offset="1" stop-color="#898E8F" stop-opacity="1"/>
		</linearGradient>
		<path fill="url(#SVGID_Fill8_)" stroke-width="2" stroke-linejoin="round" stroke="url(#SVGID_Stroke3_)" d="M 177.081,137.718L 367.081,90.3845C 374.498,88.4736 377.873,90.8064 382.04,93.4731L 417.477,114.056L 211.415,163.724C 189.415,167.724 179.748,177.779 179.748,196.557L 180.373,393.556L 150.373,375.556C 144.811,371.39 145.373,368.827 145.415,358.551L 145.415,170.551C 145.415,151.773 155.081,141.718 177.081,137.718 Z "/>
	</g>
	<g>
		<radialGradient id="SVGID_Stroke4_" cx="232.314" cy="280.604" r="18.9716" gradientUnits="userSpaceOnUse" gradientTransform="rotate(37.195328 232.313599 280.603760)">
			<stop offset="0.00431034" stop-color="#C3C7C7" stop-opacity="1"/>
			<stop offset="1" stop-color="#1D1F1F" stop-opacity="1"/>
		</radialGradient>
		<radialGradient id="SVGID_Fill9_" cx="232.314" cy="280.604" r="19.0014" gradientUnits="userSpaceOnUse" gradientTransform="rotate(37.340691 232.313599 280.603760)">
			<stop offset="0.00431034" stop-color="#7F8181" stop-opacity="1"/>
			<stop offset="1" stop-color="#485657" stop-opacity="1"/>
		</radialGradient>
		<path fill="url(#SVGID_Fill9_)" stroke-width="2" stroke-linejoin="round" stroke="url(#SVGID_Stroke4_)" d="M 241.456,267.618C 247.088,271.583 247.56,280.611 242.511,287.783C 237.461,294.955 228.803,297.554 223.171,293.589C 217.539,289.624 217.067,280.596 222.117,273.425C 227.166,266.253 235.824,263.653 241.456,267.618 Z "/>
		<radialGradient id="SVGID_Stroke5_" cx="379.949" cy="239.425" r="18.9717" gradientUnits="userSpaceOnUse" gradientTransform="rotate(37.195374 379.949005 239.425049)">
			<stop offset="0.00431034" stop-color="#C3C7C7" stop-opacity="1"/>
			<stop offset="1" stop-color="#1D1F1F" stop-opacity="1"/>
		</radialGradient>
		<radialGradient id="SVGID_Fill10_" cx="379.949" cy="239.425" r="19.0014" gradientUnits="userSpaceOnUse" gradientTransform="rotate(37.340744 379.949005 239.425049)">
			<stop offset="0.00431034" stop-color="#7F8181" stop-opacity="1"/>
			<stop offset="1" stop-color="#485657" stop-opacity="1"/>
		</radialGradient>
		<path fill="url(#SVGID_Fill10_)" stroke-width="2" stroke-linejoin="round" stroke="url(#SVGID_Stroke5_)" d="M 389.092,226.439C 394.723,230.404 395.195,239.433 390.146,246.604C 385.097,253.776 376.438,256.376 370.806,252.411C 365.175,248.446 364.703,239.417 369.752,232.246C 374.801,225.074 383.46,222.474 389.092,226.439 Z "/>
	</g>
	<g>
		<linearGradient id="SVGID_Stroke6_" gradientUnits="objectBoundingBox" x1="0.476049" y1="-0.0817553" x2="1.5512" y2="-0.0817553" gradientTransform="rotate(73.250473 0.476049 -0.081755)">
			<stop offset="0.0646552" stop-color="#6A6C6C" stop-opacity="1"/>
			<stop offset="0.437209" stop-color="#C6C7C7" stop-opacity="1"/>
			<stop offset="0.790698" stop-color="#CED5D5" stop-opacity="1"/>
			<stop offset="1" stop-color="#5F6565" stop-opacity="1"/>
		</linearGradient>
		<linearGradient id="SVGID_Fill11_" gradientUnits="objectBoundingBox" x1="0.475475" y1="-0.0986586" x2="1.58164" y2="-0.0986586" gradientTransform="rotate(73.171692 0.475475 -0.098659)">
			<stop offset="0.0646552" stop-color="#707373" stop-opacity="1"/>
			<stop offset="0.790698" stop-color="#F3F5F5" stop-opacity="1"/>
			<stop offset="1" stop-color="#6C7373" stop-opacity="1"/>
		</linearGradient>
		<path fill="url(#SVGID_Fill11_)" stroke-width="2" stroke-linecap="round" stroke-linejoin="round" stroke="url(#SVGID_Stroke6_)" d="M 271.404,293.925L 338.404,274.925L 339.404,317.925L 255.904,343.758L 271.404,293.925 Z "/>
		<linearGradient id="SVGID_Stroke7_" gradientUnits="objectBoundingBox" x1="0.735961" y1="0.131387" x2="1.36482" y2="0.131387" gradientTransform="rotate(71.714188 0.735961 0.131387)">
			<stop offset="0.0646552" stop-color="#707373" stop-opacity="1"/>
			<stop offset="0.49569" stop-color="#C3C7C7" stop-opacity="1"/>
			<stop offset="1" stop-color="#6C7373" stop-opacity="1"/>
		</linearGradient>
		<linearGradient id="SVGID_Fill12_" gradientUnits="objectBoundingBox" x1="0.743007" y1="0.118645" x2="1.39343" y2="0.118645" gradientTransform="rotate(71.636208 0.743007 0.118645)">
			<stop offset="0" stop-color="#656565" stop-opacity="1"/>
			<stop offset="0.323276" stop-color="#DCDEDE" stop-opacity="1"/>
			<stop offset="0.400862" stop-color="#EEF1F1" stop-opacity="1"/>
			<stop offset="0.762931" stop-color="#E6E8E8" stop-opacity="1"/>
			<stop offset="1" stop-color="#1D1F1F" stop-opacity="1"/>
		</linearGradient>
		<path fill="url(#SVGID_Fill12_)" stroke-width="2" stroke-linejoin="round" stroke="url(#SVGID_Stroke7_)" d="M 270.946,251.592L 337.779,233.094L 337.923,272.454L 271.09,290.952L 270.946,251.592 Z "/>
		<linearGradient id="SVGID_Stroke8_" gradientUnits="objectBoundingBox" x1="0.567559" y1="0.0350217" x2="1.58162" y2="0.0350217" gradientTransform="rotate(29.477417 0.567559 0.035022)">
			<stop offset="0.0646552" stop-color="#707373" stop-opacity="1"/>
			<stop offset="0.49569" stop-color="#F3F5F5" stop-opacity="1"/>
			<stop offset="1" stop-color="#6C7373" stop-opacity="1"/>
		</linearGradient>
		<path fill="none" stroke-width="2" stroke-linecap="round" stroke-linejoin="round" stroke="url(#SVGID_Stroke8_)" d="M 337.904,233.092L 337.988,272.717L 271.196,290.967"/>
	</g>
	<g>
		<linearGradient id="SVGID_Stroke9_" gradientUnits="objectBoundingBox" x1="-0.020979" y1="0.679102" x2="1.02797" y2="0.679102">
			<stop offset="0" stop-color="#A1A4A4" stop-opacity="1"/>
			<stop offset="0.539535" stop-color="#B1B2B2" stop-opacity="1"/>
		</linearGradient>
		<path fill="#FFFFFF" fill-opacity="1" stroke-linecap="round" stroke-linejoin="round" stroke="url(#SVGID_Stroke9_)" d="M 314.413,313.568L 366.413,292.068C 370.413,290.318 371.05,291.342 376.571,296.547L 376.571,318.547C 376.571,322.965 376.071,326.797 371.071,329.047L 314.071,351.047C 310.342,349.446 306.092,350.446 306.071,343.047L 306.071,321.047C 306.071,316.629 307.913,316.068 314.413,313.568 Z "/>
		<linearGradient id="SVGID_Fill13_" gradientUnits="objectBoundingBox" x1="0.211204" y1="1.05093" x2="1.45528" y2="1.05093" gradientTransform="rotate(-49.044613 0.211204 1.050931)">
			<stop offset="0.0646552" stop-color="#707373" stop-opacity="1"/>
			<stop offset="0.353488" stop-color="#F3F5F5" stop-opacity="1"/>
			<stop offset="0.790698" stop-color="#E7EAEA" stop-opacity="1"/>
			<stop offset="1" stop-color="#6C7373" stop-opacity="1"/>
		</linearGradient>
		<path fill="url(#SVGID_Fill13_)" stroke-width="0.2" stroke-linecap="round" stroke-linejoin="round" d="M 306.8,317.925L 306.821,317.916L 306.821,317.758L 306.972,317.849L 370.12,290.282L 428.367,326.331L 364.98,352.885L 365.321,353.092L 364.821,384.758L 306.821,349.258L 306.821,317.938L 306.8,317.925 Z "/>
		<linearGradient id="SVGID_Stroke10_" gradientUnits="objectBoundingBox" x1="0.113627" y1="0.268983" x2="1.24453" y2="0.268983" gradientTransform="rotate(37.659439 0.113627 0.268983)">
			<stop offset="0" stop-color="#636565" stop-opacity="1"/>
			<stop offset="0.539535" stop-color="#B3B9B9" stop-opacity="1"/>
		</linearGradient>
		<linearGradient id="SVGID_Fill14_" gradientUnits="objectBoundingBox" x1="0.108147" y1="0.265151" x2="1.25652" y2="0.265151" gradientTransform="rotate(37.593849 0.108147 0.265151)">
			<stop offset="0" stop-color="#707373" stop-opacity="1"/>
			<stop offset="0.539535" stop-color="#F3F5F5" stop-opacity="1"/>
		</linearGradient>
		<path fill="url(#SVGID_Fill14_)" stroke-linecap="round" stroke-linejoin="round" stroke="url(#SVGID_Stroke10_)" d="M 370.071,348.758L 422.071,327.258C 426.071,325.508 432.571,327.84 432.571,332.258L 432.571,354.258C 432.571,358.676 432.071,362.508 427.071,364.758L 370.071,386.758C 366.321,388.008 362.071,383.176 362.071,378.758L 362.071,356.758C 362.071,352.34 363.571,351.258 370.071,348.758 Z "/>
	</g>
	<linearGradient id="SVGID_Fill15_" gradientUnits="objectBoundingBox" x1="0.0949174" y1="0.263209" x2="1.0214" y2="0.263209" gradientTransform="rotate(49.812660 0.094917 0.263209)">
		<stop offset="0" stop-color="#6EADD2" stop-opacity="1"/>
		<stop offset="0.939535" stop-color="#414B69" stop-opacity="1"/>
	</linearGradient>
	<path fill="url(#SVGID_Fill15_)" stroke-width="3" stroke-linecap="round" stroke-linejoin="round" stroke="#21324B" stroke-opacity="1" d="M 394.175,461.404L 421.841,461.071L 432.841,458.404L 442.175,452.404L 449.508,446.404L 457.841,435.071L 460.508,421.737L 460.175,410.737L 456.175,399.404L 441.841,382.071L 417.591,355.237L 412.591,351.237L 382.841,362.487L 382.425,366.071L 388.091,371.237L 398.341,382.237L 409.841,393.737L 416.841,401.987L 424.591,418.737L 424.591,428.487L 423.591,440.071L 414.925,452.404L 394.175,461.404 Z "/>
</svg>
