<?xml version="1.0" encoding="utf-8"?>
<!DOCTYPE svg PUBLIC "-//W3C//DTD SVG 1.1//EN" "http://www.w3.org/Graphics/SVG/1.1/DTD/svg11.dtd">
<svg xmlns="http://www.w3.org/2000/svg" xmlns:xlink="http://www.w3.org/1999/xlink" version="1.1" baseProfile="full" width="257" height="257" viewBox="0 0 257.00 257.00" enable-background="new 0 0 257.00 257.00" xml:space="preserve">
	<g>
		<path fill="#FFFFFF" fill-opacity="1" stroke-width="5" stroke-linejoin="round" stroke="#333232" stroke-opacity="1" d="M 50.4167,17.0896L 203.765,17.0896C 208.349,17.0896 212.045,20.7642 212.045,25.343L 212.045,240.347C 212.045,244.931 208.349,248.626 203.765,248.626L 50.4167,248.626C 45.8328,248.626 42.1426,244.931 42.1426,240.347L 42.1426,25.343C 42.1426,20.7642 45.8328,17.0896 50.4167,17.0896 Z "/>
		<path fill="none" stroke-width="5" stroke-linejoin="round" stroke="#333232" stroke-opacity="1" d="M 132.786,34.165C 132.786,37.3176 130.239,39.8604 127.112,39.8604C 123.985,39.8604 121.437,37.3176 121.437,34.165C 121.437,31.0176 123.985,28.4541 127.112,28.4541C 130.239,28.4541 132.786,31.0176 132.786,34.165 Z "/>
		<path fill="none" stroke-width="5" stroke-linejoin="round" stroke="#333232" stroke-opacity="1" d="M 83.7097,34.165C 83.7097,37.3176 81.1619,39.8604 78.0352,39.8604C 74.9033,39.8604 72.3606,37.3176 72.3606,34.165C 72.3606,31.0176 74.9033,28.4541 78.0352,28.4541C 81.1619,28.4541 83.7097,31.0176 83.7097,34.165 Z "/>
		<path fill="none" stroke-width="5" stroke-linejoin="round" stroke="#333232" stroke-opacity="1" d="M 181.863,34.165C 181.863,37.3176 179.32,39.8604 176.188,39.8604C 173.059,39.8604 170.516,37.3176 170.516,34.165C 170.516,31.0176 173.059,28.4541 176.188,28.4541C 179.32,28.4541 181.863,31.0176 181.863,34.165 Z "/>
		<path fill="#1EB265" fill-opacity="1" stroke-width="0.2" stroke-linejoin="round" d="M 212.143,55.1021L 212.143,241.154C 212.143,245.335 208.794,248.705 204.613,248.726L 49.7913,248.726C 47.7708,248.726 45.8533,247.919 44.4631,246.483C 43.0469,245.051 42.2407,243.134 42.2615,241.113L 42.2615,55.0605"/>
		<path fill="none" stroke-width="5" stroke-linejoin="round" stroke="#333232" stroke-opacity="1" d="M 212.045,51.2251L 212.045,240.89C 212.081,245.092 208.711,248.544 204.515,248.626L 49.6726,248.626C 45.4709,248.544 42.1013,245.092 42.1426,240.89L 42.1426,51.2251"/>
		<path fill="none" stroke-width="5" stroke-linejoin="round" stroke="#333232" stroke-opacity="1" d="M 62.8926,79.7324L 195.206,79.7324M 62.8926,106.302L 195.206,106.302M 62.8926,132.845L 195.206,132.845M 62.8926,159.435L 195.206,159.435M 62.8926,186.02L 127.112,186.02"/>
	</g>
</svg>
