<?xml version="1.0" encoding="utf-8"?>
<!DOCTYPE svg PUBLIC "-//W3C//DTD SVG 1.1//EN" "http://www.w3.org/Graphics/SVG/1.1/DTD/svg11.dtd">
<svg xmlns="http://www.w3.org/2000/svg" xmlns:xlink="http://www.w3.org/1999/xlink" version="1.1" baseProfile="full" width="59" height="59" viewBox="0 0 59.00 59.00" enable-background="new 0 0 59.00 59.00" xml:space="preserve">
	<linearGradient id="SVGID_Fill1_" gradientUnits="objectBoundingBox" x1="0.5" y1="0.997407" x2="1.49481" y2="0.997407" gradientTransform="rotate(-90.000000 0.500000 0.997407)">
		<stop offset="0" stop-color="#F3F8F8" stop-opacity="1"/>
		<stop offset="1" stop-color="#769A9A" stop-opacity="1"/>
	</linearGradient>
	<path fill="url(#SVGID_Fill1_)" stroke-width="0.2" stroke-linejoin="round" d="M 8.27082,9.4479L 50.7708,9.4479C 52.4277,9.4479 53.7708,10.791 53.7708,12.4479L 53.7708,55.5729C 53.7708,57.2298 52.4277,58.5729 50.7708,58.5729L 8.27082,58.5729C 6.61396,58.5729 5.27082,57.2298 5.27082,55.5729L 5.27082,12.4479C 5.27082,10.791 6.61396,9.4479 8.27082,9.4479 Z "/>
	<radialGradient id="SVGID_Stroke1_" cx="23.8232" cy="42.8277" r="15.5314" gradientUnits="userSpaceOnUse">
		<stop offset="0" stop-color="#F3F8F8" stop-opacity="1"/>
		<stop offset="1" stop-color="#00EEFC" stop-opacity="1"/>
	</radialGradient>
	<path fill="#000000" fill-opacity="1" stroke-linejoin="round" stroke="url(#SVGID_Stroke1_)" d="M 29.5849,48.5066C 20.6593,48.5066 13.4012,41.3673 13.2095,32.4878L 8.72285,32.4362C 8.73466,43.9164 18.1991,53.2193 29.8723,53.2193C 33.1109,53.2193 36.1796,52.5032 38.9235,51.2231L 36.301,47.0708C 34.2516,47.9933 31.9782,48.5066 29.5849,48.5066 Z "/>
	<radialGradient id="SVGID_Stroke2_" cx="36.4599" cy="23.9845" r="14.9928" gradientUnits="userSpaceOnUse">
		<stop offset="0" stop-color="#F3F8F8" stop-opacity="1"/>
		<stop offset="1" stop-color="#00EEFC" stop-opacity="1"/>
	</radialGradient>
	<path fill="#000000" fill-opacity="1" stroke-linejoin="round" stroke="url(#SVGID_Stroke2_)" d="M 45.4123,36.359L 50.8898,34.7509C 50.9769,33.984 51.0217,33.2045 51.0217,32.4147C 51.0217,20.9246 41.5528,11.6101 29.8723,11.6101C 27.0511,11.6101 24.359,12.1535 21.8981,13.1396L 23.4416,16.939C 25.3387,16.1709 27.4124,15.748 29.5849,15.748C 38.631,15.748 45.9642,23.0812 45.9642,32.1273C 45.9642,33.5906 45.7723,35.0091 45.4123,36.359 Z "/>
	<path fill="#03D1DD" fill-opacity="1" stroke-width="0.2" stroke-linejoin="round" d="M 14.5836,27.1118L 14.2388,31.0773L 13.8074,39.4097L 13.635,46.7373L 14.4971,48.3752L 15.8764,49.2373L 17.7729,49.3235L 19.8419,48.72L 21.6526,47.1118L 23.8936,45.0994L 23.9802,43.4049L 23.635,42.5132L 22.6867,42.4269L 22.0833,42.7718L 20.1009,44.1807L 18.7216,45.3014L 17.9454,45.1856L 17.4281,44.5821L 17.5143,38.2028L 17.7729,34.6683L 18.2902,30.789L 18.635,26.9959L 17.7733,25.7325L 16.394,25.3876L 15.0147,25.9911L 14.5836,27.1118 Z "/>
	<path fill="#03D1DD" fill-opacity="1" stroke-width="0.2" stroke-linejoin="round" d="M 25.7905,28.8359L 25.1009,29.698L 24.8422,30.6463L 24.6698,32.4566L 24.6698,37.4566L 24.5836,44.5256L 25.1009,45.5601L 26.1354,45.7325L 27.6871,45.6463L 28.6354,45.0428L 28.5491,43.9221L 28.2043,42.7152L 28.0319,35.9049L 28.4629,33.8359L 28.6354,30.6463L 28.5491,29.4394L 27.3422,28.6635L 25.7905,28.8359 Z "/>
	<path fill="#03D1DD" fill-opacity="1" stroke-width="0.2" stroke-linejoin="round" d="M 25.5319,22.7152L 24.8422,23.4911L 24.4974,25.4738L 24.9284,27.2842L 25.8767,28.1463L 27.6871,28.1463L 28.2905,27.0256L 28.6354,25.0428L 28.2905,23.7497L 26.9112,22.7152L 25.5319,22.7152 Z "/>
	<path fill="#03D1DD" fill-opacity="1" stroke-width="0.2" stroke-linejoin="round" d="M 29.7273,27.198L 29.1526,28.4624L 29.325,30.8187L 31.9687,38.175L 33.4055,42.6578L 34.2675,43.3474L 35.6468,43.2899L 36.3365,42.7152L 37.5434,40.3589L 39.0951,36.0486L 39.5549,33.8072L 40.2445,31.1635L 40.5894,29.152L 40.7043,26.1635L 39.6124,24.8991L 38.5204,24.3819L 37.6583,24.3244L 37.1411,25.244L 36.8537,29.5543L 36.5089,32.5428L 35.8193,36.0486L 35.3595,37.2555L 34.9572,37.198L 34.6124,35.6463L 34.3825,33.1175L 33.6354,29.7842L 33.2905,28.2899L 32.256,27.4279L 29.7273,27.198 Z "/>
	<path fill="#03D1DD" fill-opacity="1" stroke-width="0.2" stroke-linejoin="round" d="M 47.0333,20.7756L 46.1713,21.3503L 44.5046,22.5572L 43.5851,24.2238L 42.4356,25.7756L 41.9759,27.4422L 41.5161,29.2238L 41.4012,33.0744L 41.8609,35.5457L 42.6081,37.0974L 43.7,38.1319L 44.6195,38.879L 46.8035,38.994L 48.5276,38.4767L 49.677,37.5572L 50.8264,36.1204L 51.4586,35.4882L 51.9184,34.1664L 51.746,33.1319L 51.2862,32.6721L 50.1368,32.6721L 48.8149,33.6491L 47.8379,34.7411L 46.5161,35.2009L 45.1368,34.2813L 44.7345,33.1319L 44.677,31.6376L 45.7115,31.4078L 46.3437,32.0974L 47.5506,32.1549L 48.8724,30.7756L 50.4816,29.1089L 51.2862,27.4422L 51.9184,25.5457L 51.631,23.1894L 50.8264,21.925L 50.0218,21.4078L 48.4701,20.7756L 47.0333,20.7756 Z M 46.1713,29.5112L 45.0793,29.6836L 44.792,28.3618L 45.108,26.7238L 46.0563,25.0284L 47.4572,23.5773L 48.2618,23.7497L 48.4342,26.3359L 47.6871,28.0601L 46.1713,29.5112 Z "/>
	<radialGradient id="SVGID_Stroke3_" cx="43.2775" cy="48.7889" r="9.14144" gradientUnits="userSpaceOnUse" gradientTransform="rotate(-3.190691 43.277519 48.788872)">
		<stop offset="0" stop-color="#F3F8F8" stop-opacity="1"/>
		<stop offset="1" stop-color="#00EEFC" stop-opacity="1"/>
	</radialGradient>
	<path fill="#000000" fill-opacity="1" stroke-linejoin="round" stroke="url(#SVGID_Stroke3_)" d="M 36.4346,43.9821L 43.8895,57.3053L 44.9374,57.607L 45.605,57.0616L 45.3899,56.0352L 42.0391,50.1344L 49.5419,39.6422L 36.4346,43.9821 Z "/>
	<radialGradient id="SVGID_Stroke4_" cx="14.6999" cy="21.921" r="9.39655" gradientUnits="userSpaceOnUse">
		<stop offset="0" stop-color="#F3F8F8" stop-opacity="1"/>
		<stop offset="1" stop-color="#00EEFC" stop-opacity="1"/>
	</radialGradient>
	<path fill="#000000" fill-opacity="1" stroke-linejoin="round" stroke="url(#SVGID_Stroke4_)" d="M 8.96718,31.059L 12.7603,31.059L 12.9327,24.9383L 13.4499,22.7831L 14.4844,21.5762L 15.7775,21.7486L 17.1568,22.6969L 19.0534,25.2831L 19.8293,25.8866L 21.7258,26.059L 22.7603,26.059L 22.8465,24.421L 20.0017,21.5762L 18.0189,20.1969L 16.2948,19.1624L 18.4499,16.49L 19.5706,14.1624L 20.0017,13.0417L 18.2775,13.7314L 16.4672,15.8866L 15.1741,17.0935L 14.312,17.5245L 12.5879,16.8348L 11.5534,16.5762L 10.9499,17.2659L 10.9499,16.2314L 10.6051,15.4555L 8.10511,12.8693L 7.32925,12.7831L 7.41546,14.2486L 8.88098,16.1452L 9.65684,16.5762L 6.55339,16.5762L 7.50167,17.7831L 10.2603,17.5245L 8.79477,18.4728L 7.84649,19.0762L 7.67408,19.8521L 8.53615,20.0245L 9.31201,19.5935L 10.2603,18.99L 10.9499,18.9038L 11.6396,19.9383L 10.8637,22.0072L 10.0879,23.3004L 9.39822,25.1969L 8.96718,27.3521L 8.96718,31.059 Z "/>
	<radialGradient id="SVGID_Stroke5_" cx="14.0965" cy="14.6797" r="2.11207" gradientUnits="userSpaceOnUse">
		<stop offset="0" stop-color="#F3F8F8" stop-opacity="1"/>
		<stop offset="1" stop-color="#00EEFC" stop-opacity="1"/>
	</radialGradient>
	<path fill="#000000" fill-opacity="1" stroke-linejoin="round" stroke="url(#SVGID_Stroke5_)" d="M 14.0534,12.9555L 13.0189,13.2141L 12.5017,14.0762L 12.243,15.4555L 12.7603,16.2314L 13.4499,16.059L 13.7086,15.4555L 14.3407,15.513L 14.3982,15.9728L 14.8005,16.3751L 15.4902,15.9728L 15.6913,15.1107L 15.9499,14.1624L 15.4327,13.2141L 14.0534,12.9555 Z "/>
	<radialGradient id="SVGID_Fill2_" cx="29.7708" cy="20.8852" r="25.083" gradientUnits="userSpaceOnUse">
		<stop offset="0" stop-color="#F3F8F8" stop-opacity="0.352941"/>
		<stop offset="1" stop-color="#F3F8F8" stop-opacity="0.239216"/>
	</radialGradient>
	<path fill="url(#SVGID_Fill2_)" stroke-width="0.2" stroke-linejoin="round" d="M 4.77084,33.1275C 10.8581,28.0342 19.9401,24.8019 30.0855,24.8019C 39.8869,24.8019 48.6959,27.8188 54.7708,32.6161L 54.7708,11.7956C 54.7708,10.0544 53.3593,8.64291 51.6182,8.64291L 7.92349,8.64291C 6.18233,8.64291 4.77084,10.0544 4.77084,11.7956L 4.77084,33.1275 Z "/>
	<g>
		<path fill="#15D5D5" fill-opacity="1" stroke-width="0.2" stroke-linejoin="round" d="M 11.7492,4.77876C 11.7492,5.05542 11.7008,5.31959 11.6042,5.57125C 11.5075,5.82292 11.3577,6.04417 11.1548,6.23501C 10.9519,6.42583 10.6942,6.57792 10.3817,6.69125C 10.0692,6.80459 9.6954,6.86126 9.2604,6.86126L 8.4754,6.86126L 8.06915,8.78126L 6.7954,8.78126L 7.98665,3.18125L 9.90915,3.18125C 10.2267,3.18125 10.5012,3.2223 10.7329,3.30438C 10.9646,3.38647 11.1554,3.49876 11.3054,3.64126C 11.4554,3.78375 11.5669,3.95209 11.6398,4.14626C 11.7127,4.34042 11.7492,4.55125 11.7492,4.77876 Z M 10.4129,4.85751C 10.4129,4.64001 10.34,4.46626 10.1942,4.33625C 10.0483,4.20625 9.83332,4.14126 9.54915,4.14126L 9.0529,4.14126L 8.6829,5.90125L 9.2604,5.90125C 9.46124,5.90125 9.63394,5.87313 9.77853,5.81688C 9.92311,5.76063 10.0423,5.68459 10.136,5.58875C 10.2298,5.49292 10.2994,5.38188 10.3448,5.25563C 10.3902,5.12938 10.4129,4.99667 10.4129,4.85751 Z "/>
		<path fill="#15D5D5" fill-opacity="1" stroke-width="0.2" stroke-linejoin="round" d="M 17.5467,5.49375C 17.5467,5.71626 17.5271,5.94022 17.4879,6.16563C 17.4487,6.39104 17.3908,6.60917 17.3142,6.82001C 17.2375,7.03084 17.1412,7.23334 17.0254,7.42751C 16.9096,7.62167 16.7746,7.79917 16.6204,7.96001C 16.4904,8.0975 16.3485,8.22188 16.1948,8.33313C 16.041,8.44438 15.8737,8.53876 15.6929,8.61626C 15.5121,8.69376 15.3162,8.75396 15.1054,8.79688C 14.8946,8.8398 14.6667,8.86126 14.4217,8.86126C 14.0517,8.86126 13.7214,8.80042 13.431,8.67876C 13.1406,8.55709 12.8952,8.38938 12.6948,8.17563C 12.4944,7.96188 12.3414,7.70876 12.236,7.41625C 12.1306,7.12376 12.0779,6.80667 12.0779,6.465C 12.0779,6.22417 12.0987,5.98647 12.1404,5.75188C 12.1821,5.5173 12.2452,5.29209 12.3298,5.07626C 12.4144,4.86042 12.5198,4.65459 12.646,4.45876C 12.7723,4.26292 12.9187,4.08376 13.0854,3.92126C 13.2154,3.79626 13.356,3.68397 13.5073,3.58438C 13.6585,3.48479 13.8214,3.39875 13.996,3.32626C 14.1706,3.25375 14.3581,3.19813 14.5585,3.15938C 14.7589,3.12063 14.9737,3.10126 15.2029,3.10126C 15.5496,3.10126 15.8667,3.15563 16.1542,3.26438C 16.4417,3.37313 16.6883,3.53042 16.8942,3.73626C 17.1,3.94209 17.2602,4.19334 17.3748,4.49001C 17.4894,4.78667 17.5467,5.12125 17.5467,5.49375 Z M 16.2104,5.53876C 16.2104,5.33208 16.1837,5.1473 16.1304,4.98438C 16.0771,4.82146 16.001,4.68355 15.9023,4.57063C 15.8035,4.45771 15.6831,4.37125 15.541,4.31126C 15.3989,4.25126 15.2379,4.22125 15.0579,4.22125C 14.8496,4.22125 14.6517,4.26833 14.4642,4.3625C 14.2767,4.45667 14.11,4.58792 13.9642,4.75626C 13.8758,4.85792 13.7979,4.9748 13.7304,5.10688C 13.6629,5.23896 13.6056,5.37896 13.5585,5.52688C 13.5114,5.6748 13.4756,5.82563 13.451,5.97938C 13.4264,6.13313 13.4142,6.285 13.4142,6.43501C 13.4142,6.64167 13.4408,6.82646 13.4942,6.98938C 13.5475,7.1523 13.6235,7.28917 13.7223,7.4C 13.821,7.51084 13.9402,7.59542 14.0798,7.65376C 14.2194,7.71209 14.375,7.74126 14.5467,7.74126C 14.76,7.74126 14.9637,7.69542 15.1579,7.60375C 15.3521,7.51209 15.5221,7.37584 15.6679,7.19501C 15.7587,7.08834 15.8381,6.96813 15.906,6.83438C 15.9739,6.70063 16.03,6.56126 16.0742,6.41625C 16.1183,6.27126 16.1521,6.12376 16.1754,5.97375C 16.1987,5.82375 16.2104,5.67876 16.2104,5.53876 Z "/>
		<path fill="#15D5D5" fill-opacity="1" stroke-width="0.2" stroke-linejoin="round" d="M 23.5792,8.80125L 22.2354,8.80125L 21.9967,5.16875C 21.9942,5.12959 21.9948,5.08271 21.9985,5.02813C 22.0023,4.97355 22.0075,4.9175 22.0142,4.86001C 22.0208,4.80251 22.0281,4.74667 22.036,4.6925C 22.0439,4.63834 22.0517,4.59167 22.0592,4.55251L 22.0442,4.55251C 22.0308,4.59417 22.0144,4.64272 21.9948,4.69813C 21.9752,4.75355 21.955,4.80979 21.9342,4.86688C 21.9133,4.92397 21.8925,4.97834 21.8717,5.03001C 21.8508,5.08167 21.8312,5.12709 21.8129,5.16625L 20.0354,8.78126L 18.5942,8.78126L 18.3092,3.18125L 19.6379,3.18125L 19.6767,6.915C 19.6792,6.95918 19.6785,7.0098 19.6748,7.06688C 19.671,7.12396 19.6652,7.18125 19.6573,7.23875C 19.6494,7.29626 19.6414,7.35043 19.6335,7.40125C 19.6256,7.45209 19.6192,7.49417 19.6142,7.5275L 19.6379,7.5275C 19.6479,7.48833 19.6621,7.44209 19.6804,7.38876C 19.6987,7.33543 19.7189,7.27959 19.741,7.22125C 19.7631,7.16293 19.7864,7.10563 19.811,7.04938C 19.8356,6.99313 19.8571,6.94542 19.8754,6.90626L 21.6767,3.18125L 23.0129,3.18125L 23.1967,6.95376C 23.1992,6.99043 23.1998,7.03271 23.1985,7.08063C 23.1973,7.12855 23.1952,7.17855 23.1923,7.23063C 23.1894,7.28271 23.1854,7.33418 23.1804,7.385C 23.1754,7.43584 23.1704,7.48084 23.1654,7.52L 23.1804,7.52C 23.1912,7.48334 23.205,7.43896 23.2217,7.38688C 23.2383,7.3348 23.2564,7.28146 23.276,7.22688C 23.2956,7.17229 23.3152,7.11897 23.3348,7.06688C 23.3544,7.01479 23.3721,6.96917 23.3879,6.93L 24.9379,3.18125L 26.2592,3.18125L 23.5792,8.80125 Z "/>
		<path fill="#15D5D5" fill-opacity="1" stroke-width="0.2" stroke-linejoin="round" d="M 29.9954,4.22125L 28.0379,4.22125L 27.7717,5.42126L 29.5967,5.42126L 29.3742,6.46125L 27.5579,6.46125L 27.2842,7.74126L 29.3742,7.74126L 29.1554,8.78126L 25.7954,8.78126L 26.9867,3.18125L 30.2142,3.18125L 29.9954,4.22125 Z "/>
		<path fill="#15D5D5" fill-opacity="1" stroke-width="0.2" stroke-linejoin="round" d="M 34.9417,4.5975C 34.9417,4.83334 34.8987,5.04626 34.8129,5.23626C 34.7271,5.42625 34.61,5.59126 34.4616,5.73125C 34.3133,5.87125 34.1396,5.98521 33.9404,6.07313C 33.7412,6.16105 33.5283,6.22042 33.3017,6.25126L 33.3017,6.26751C 33.4625,6.32001 33.6002,6.41959 33.7148,6.56625C 33.8294,6.71292 33.9154,6.90834 33.9729,7.1525L 34.3642,8.78126L 33.0117,8.78126L 32.7079,7.33001C 32.6604,7.09584 32.5781,6.91917 32.461,6.8C 32.3439,6.68084 32.1837,6.62125 31.9804,6.62125L 31.7667,6.62125L 31.3092,8.78126L 30.0354,8.78126L 31.2266,3.18125L 33.1417,3.18125C 33.4667,3.18125 33.7437,3.21938 33.9729,3.29563C 34.2021,3.37188 34.3883,3.47543 34.5317,3.60625C 34.675,3.73708 34.7792,3.88792 34.8442,4.05875C 34.9091,4.22959 34.9417,4.40917 34.9417,4.5975 Z M 33.5979,4.81126C 33.5979,4.60043 33.5341,4.43604 33.4067,4.31813C 33.2792,4.20022 33.0866,4.14126 32.8292,4.14126L 32.3017,4.14126L 31.9654,5.66125L 32.4766,5.66125C 32.67,5.66125 32.8369,5.63772 32.9773,5.59063C 33.1177,5.54355 33.2335,5.48125 33.3248,5.40376C 33.416,5.32626 33.4844,5.23605 33.5298,5.13313C 33.5752,5.03021 33.5979,4.92292 33.5979,4.81126 Z "/>
		<path fill="#15D5D5" fill-opacity="1" stroke-width="0.2" stroke-linejoin="round" d="M 40.8192,5.44625C 40.8192,5.74043 40.7894,6.0275 40.7298,6.3075C 40.6702,6.5875 40.5798,6.85105 40.4585,7.09813C 40.3373,7.34521 40.1842,7.57167 39.9992,7.7775C 39.8142,7.98334 39.596,8.16042 39.3448,8.30875C 39.0935,8.45708 38.8077,8.57292 38.4873,8.65626C 38.1669,8.73959 37.8117,8.78126 37.4217,8.78126L 35.1554,8.78126L 36.3467,3.18125L 38.3154,3.18125C 38.7271,3.18125 39.0885,3.2373 39.3998,3.34938C 39.711,3.46146 39.9721,3.61709 40.1829,3.81625C 40.3937,4.01542 40.5525,4.25355 40.6592,4.53063C 40.7658,4.80772 40.8192,5.11292 40.8192,5.44625 Z M 39.4842,5.54501C 39.4842,5.33917 39.4548,5.15417 39.396,4.99001C 39.3373,4.82584 39.2473,4.68709 39.126,4.57375C 39.0048,4.46043 38.8519,4.37334 38.6673,4.31251C 38.4827,4.25167 38.2642,4.22125 38.0117,4.22125L 37.3979,4.22125L 36.6441,7.74126L 37.4129,7.74126C 37.7312,7.74126 38.0179,7.68896 38.2729,7.58438C 38.5279,7.4798 38.7452,7.33125 38.9248,7.13876C 39.1044,6.94625 39.2425,6.71522 39.3391,6.44563C 39.4358,6.17605 39.4842,5.87584 39.4842,5.54501 Z "/>
		<path fill="#15D5D5" fill-opacity="1" stroke-width="0.2" stroke-linejoin="round" d="M 48.1867,4.44376C 48.1867,4.61709 48.1581,4.77917 48.101,4.93C 48.0439,5.08084 47.9587,5.21667 47.8454,5.3375C 47.7321,5.45834 47.5921,5.56146 47.4254,5.64688C 47.2587,5.73229 47.0646,5.79584 46.8429,5.8375L 46.8429,5.85375C 47.0204,5.87959 47.1754,5.92709 47.3079,5.99625C 47.4404,6.06542 47.5517,6.15084 47.6417,6.2525C 47.7317,6.35417 47.7987,6.46896 47.8429,6.59688C 47.8871,6.7248 47.9092,6.86167 47.9092,7.00751C 47.9092,7.26084 47.8598,7.49522 47.761,7.71063C 47.6623,7.92605 47.5139,8.11333 47.316,8.27251C 47.1181,8.43167 46.8712,8.55625 46.5754,8.64626C 46.2796,8.73626 45.9337,8.78126 45.5379,8.78126L 43.3154,8.78126L 44.5067,3.18125L 46.4917,3.18125C 46.7958,3.18125 47.0554,3.21313 47.2704,3.27688C 47.4854,3.34063 47.6606,3.42896 47.796,3.54188C 47.9314,3.65479 48.0304,3.78855 48.0929,3.94313C 48.1554,4.09771 48.1867,4.26459 48.1867,4.44376 Z M 46.8592,4.70251C 46.8592,4.61417 46.8454,4.53563 46.8179,4.46688C 46.7904,4.39813 46.7467,4.3398 46.6867,4.29188C 46.6267,4.24397 46.5485,4.20688 46.4523,4.18063C 46.356,4.15438 46.2387,4.14126 46.1004,4.14126L 45.5816,4.14126L 45.2917,5.42126L 45.8854,5.42126C 46.0371,5.42126 46.1727,5.40438 46.2923,5.37063C 46.4119,5.33688 46.5139,5.28855 46.5985,5.22563C 46.6831,5.16271 46.7477,5.08667 46.7923,4.99751C 46.8369,4.90834 46.8592,4.81001 46.8592,4.70251 Z M 46.5729,7.01C 46.5729,6.81918 46.5052,6.66667 46.3698,6.55251C 46.2344,6.43834 46.0329,6.38126 45.7654,6.38126L 45.1004,6.38126L 44.7804,7.82125L 45.4842,7.82125C 45.6767,7.82125 45.8419,7.80021 45.9798,7.75813C 46.1177,7.71604 46.2302,7.65834 46.3173,7.58501C 46.4044,7.51167 46.4687,7.42605 46.5104,7.32813C 46.5521,7.23022 46.5729,7.12417 46.5729,7.01 Z "/>
		<path fill="#15D5D5" fill-opacity="1" stroke-width="0.2" stroke-linejoin="round" d="M 51.1554,6.75001L 50.7342,8.78126L 49.4604,8.78126L 49.8854,6.77375L 48.8779,3.18125L 50.2454,3.18125L 50.6904,5.31001C 50.7112,5.39834 50.7237,5.48022 50.7279,5.55563C 50.7321,5.63105 50.7367,5.69875 50.7417,5.75875L 50.7492,5.75875C 50.7775,5.68542 50.8094,5.61105 50.8448,5.53563C 50.8802,5.46021 50.9175,5.39001 50.9567,5.325L 52.3229,3.18125L 53.7417,3.18125L 51.1554,6.75001 Z "/>
	</g>
</svg>
