<?xml version="1.0" encoding="utf-8"?>
<!DOCTYPE svg PUBLIC "-//W3C//DTD SVG 1.1//EN" "http://www.w3.org/Graphics/SVG/1.1/DTD/svg11.dtd">
<svg xmlns="http://www.w3.org/2000/svg" xmlns:xlink="http://www.w3.org/1999/xlink" version="1.1" baseProfile="full" width="245" height="245.954" viewBox="0 0 245.00 245.95" enable-background="new 0 0 245.00 245.95" xml:space="preserve">
	<path fill="#030104" fill-opacity="1" stroke-linejoin="round" d="M 88.9125,160.573C 104.92,177.056 125.026,183.078 131.43,176.488L 157.202,149.968C 161.113,145.945 164.521,132.477 162.96,118.846L 240.968,38.5714C 245.587,33.818 241.845,22.2335 232.585,12.7145C 223.335,3.19568 212.087,-0.657593 207.456,4.09827L 129.452,84.3707C 116.206,82.7574 103.128,86.274 99.2186,90.2896L 73.4447,116.81C 67.0433,123.408 72.8954,144.1 88.9125,160.573 Z "/>
	<path fill="#FF0000" fill-opacity="1" stroke-linejoin="round" d="M 174.693,80.3575C 178.251,84.0167 177.092,91.1428 172.117,96.2626C 167.132,101.392 160.208,102.585 156.652,98.9232C 153.094,95.2642 154.243,88.1281 159.228,83.0084C 164.203,77.8788 171.138,76.6959 174.693,80.3575 Z "/>
	<path fill="#9D9696" fill-opacity="1" stroke-linejoin="round" d="M 110.168,138.691C 122.572,151.458 125.69,168.305 124.589,169.438C 123.487,170.582 107.759,166.711 95.3524,153.944C 82.9481,141.179 79.2228,124.954 80.2885,123.86C 81.3615,122.756 97.7611,125.926 110.168,138.691 Z "/>
</svg>
