<?xml version="1.0" encoding="utf-8"?>
<!DOCTYPE svg PUBLIC "-//W3C//DTD SVG 1.1//EN" "http://www.w3.org/Graphics/SVG/1.1/DTD/svg11.dtd">
<svg xmlns="http://www.w3.org/2000/svg" xmlns:xlink="http://www.w3.org/1999/xlink" version="1.1" baseProfile="full" width="50.9969" height="61.4555" viewBox="0 0 51.00 61.46" enable-background="new 0 0 51.00 61.46" xml:space="preserve">
	<g>
		<g>
			<path fill="#FFFFFF" fill-opacity="1" stroke-linejoin="round" stroke="#000000" stroke-opacity="1" d="M 30.5334,34.6852C 30.9109,35.2386 31.4897,36.2452 31.7287,37.1512C 31.9678,38.0571 31.8672,38.8624 31.6155,39.5419C 31.3639,40.2213 30.9612,40.7748 30.3573,41.2404C 29.7534,41.7059 28.9481,42.0834 27.4382,42.5363C 25.9284,42.9894 23.714,43.5177 21.7763,44.0966C 19.8387,44.6753 18.1778,45.3043 16.9951,46.0342C 15.8124,46.7639 15.1078,47.5944 14.6674,48.4625C 14.2271,49.3307 14.0509,50.2367 14.0635,51.1927C 14.0761,52.149 14.2774,53.1556 14.3529,53.6589C 14.4284,54.1622 14.378,54.1622 13.988,53.9484C 13.598,53.7345 12.8682,53.3066 12.1259,52.451C 11.3835,51.5955 10.6286,50.3121 9.52136,48.6134C 8.41413,46.9149 6.95461,44.8011 5.99837,43.4801C 5.04214,42.1588 4.58918,41.6305 3.98524,41.1775C 3.38129,40.7245 2.62637,40.347 2.02243,40.1206C 1.4185,39.8942 0.965538,39.8186 0.739067,39.7179C 0.512581,39.6173 0.512581,39.4916 0.5,38.9253C 0.487419,38.359 0.46225,37.3525 0.625824,36.3334C 0.789391,35.3143 1.14169,34.2826 1.68272,33.4017C 2.22375,32.521 2.95351,31.7913 3.54487,31.2377C 4.13622,30.684 4.58918,30.3065 5.16796,29.9165C 5.74673,29.5265 6.45132,29.1239 7.31949,28.7589C 8.18765,28.3942 9.21939,28.067 10.0372,27.8907C 10.8551,27.7147 11.459,27.6896 14.7178,28.7213C 17.9765,29.7529 23.8901,31.8417 26.935,32.9362C 29.9798,34.0309 30.156,34.1315 30.5334,34.6852 Z "/>
			<path fill="#000000" fill-opacity="1" stroke-linejoin="round" stroke="#000000" stroke-opacity="1" d="M 21.0637,37.9536C 21.2063,37.8907 21.5334,37.8153 21.9277,37.7523C 22.3219,37.6893 22.7832,37.639 23.1355,37.597C 23.4878,37.5552 23.7311,37.5216 24.1002,37.5258C 24.4692,37.5299 24.9642,37.5719 25.5429,37.7145C 26.1217,37.8571 26.7843,38.1005 27.2331,38.2513C 27.6819,38.4025 27.9167,38.4611 28.1096,38.4191C 28.3026,38.3773 28.4536,38.2346 28.6381,38.1591C 28.8226,38.0836 29.0408,38.0753 29.3595,38.0712C 29.6782,38.0668 30.0976,38.0668 30.4164,38.0878C 30.7351,38.1088 30.9532,38.1508 31.1504,38.2513C 31.3475,38.3521 31.5236,38.5114 31.6326,38.7421C 31.7417,38.9728 31.7836,39.2748 31.7166,39.5892C 31.6494,39.9039 31.4733,40.2311 31.2342,40.5245C 30.9952,40.8182 30.6932,41.0782 30.2486,41.334C 29.804,41.5898 29.2169,41.8414 28.613,42.047C 28.009,42.2526 27.3883,42.4119 27.0276,42.4832C 26.6669,42.5546 26.5663,42.5377 26.4488,42.4623C 26.3314,42.3866 26.1972,42.2526 25.8449,41.9716C 25.4926,41.6906 24.9222,41.2627 24.1631,40.6671C 23.404,40.0717 22.4561,39.3082 21.8983,38.8553C 21.3405,38.4025 21.1727,38.2598 21.0679,38.1632C 20.9631,38.0668 20.9211,38.0165 21.0637,37.9536 Z "/>
			<path fill="#000000" fill-opacity="1" stroke-linejoin="round" stroke="#000000" stroke-opacity="1" d="M 17.4568,34.674C 17.6497,34.8038 17.9685,35.1143 18.4508,35.5797C 18.9331,36.0453 19.579,36.6661 19.9775,37.056C 20.3759,37.4462 20.5269,37.6056 20.6359,37.7188C 20.7449,37.8319 20.8121,37.899 20.8414,37.941C 20.8707,37.983 20.8624,37.9998 20.7366,38.0165C 20.6107,38.0333 20.3675,38.0502 19.99,38.1005C 19.6125,38.1508 19.1009,38.2346 18.5934,38.3815C 18.0859,38.5282 17.5826,38.7379 17.1465,38.9476C 16.7103,39.1573 16.3412,39.3671 16.0308,39.5558C 15.7205,39.7445 15.4688,39.9122 15.2382,40.0717C 15.0075,40.2311 14.7978,40.382 14.6636,40.4784C 14.5294,40.5748 14.4707,40.6168 14.4078,40.6252C 14.3449,40.6337 14.2777,40.6085 14.0428,40.4198C 13.808,40.2311 13.4054,39.8787 13.0237,39.5138C 12.6421,39.1489 12.2814,38.7714 11.9962,38.4779C 11.711,38.1842 11.5013,37.9746 11.3671,37.8363C 11.2329,37.6979 11.1742,37.6307 11.149,37.5803C 11.1239,37.5299 11.1322,37.4965 11.2287,37.3873C 11.3252,37.2784 11.5097,37.0939 11.8368,36.8673C 12.1639,36.641 12.6337,36.3724 13.0405,36.1669C 13.4473,35.9615 13.7913,35.8188 14.1436,35.6763C 14.4959,35.5337 14.8565,35.391 15.234,35.2401C 15.6114,35.089 16.0057,34.9298 16.2951,34.8291C 16.5845,34.7284 16.769,34.6864 16.8906,34.6654C 17.0123,34.6445 17.071,34.6445 17.1339,34.6194C 17.1968,34.5941 17.2639,34.5438 17.4568,34.674 Z "/>
			<path fill="#000000" fill-opacity="1" stroke-linejoin="round" stroke="#000000" stroke-opacity="1" d="M 12.9398,31.0629C 13.0783,31.2223 13.4054,31.5242 13.8164,31.8849C 14.2274,32.2455 14.7223,32.6649 15.1543,33.0048C 15.5863,33.3444 15.9554,33.6044 16.2448,33.7764C 16.5342,33.9484 16.7438,34.0321 16.9284,34.0951C 17.1129,34.1581 17.2723,34.2001 17.44,34.2462C 17.6078,34.2922 17.784,34.3427 18.0608,34.3678C 18.3376,34.3929 18.715,34.3929 19.0128,34.4012C 19.3106,34.4097 19.5287,34.4264 19.6629,34.4305C 19.7971,34.4348 19.8474,34.4264 19.6378,34.2167C 19.428,34.007 18.9583,33.5961 18.3166,33.0928C 17.6749,32.5895 16.8613,31.9939 16.2699,31.5997C 15.6786,31.2054 15.3095,31.0126 15.0746,30.9203C 14.8398,30.828 14.7391,30.8363 14.4623,30.8322C 14.1855,30.828 13.7325,30.8112 13.4431,30.8153C 13.1537,30.8196 13.0279,30.8447 12.9398,30.8656C 12.8518,30.8866 12.8015,30.9034 12.9398,31.0629 Z "/>
			<path fill="#000000" fill-opacity="1" stroke-linejoin="round" stroke="#000000" stroke-opacity="1" d="M 9.60983,28.4332C 9.73983,28.5128 9.94949,28.6974 10.2389,28.9281C 10.5283,29.1588 10.8974,29.4355 11.1952,29.6578C 11.4929,29.88 11.7194,30.048 11.9291,30.2198C 12.1388,30.3917 12.3317,30.568 12.445,30.6813C 12.5582,30.7943 12.5917,30.8447 12.5624,30.8951C 12.5331,30.9454 12.4407,30.9957 12.2604,31.0754C 12.0801,31.1552 11.8116,31.264 11.3713,31.4696C 10.9309,31.6752 10.3186,31.9772 9.79855,32.2455C 9.27847,32.514 8.85068,32.7489 8.45227,32.9921C 8.05383,33.2354 7.68472,33.4869 7.45824,33.6548C 7.23176,33.8225 7.14792,33.9064 7.02628,33.8979C 6.90463,33.8895 6.74529,33.7889 6.55238,33.6464C 6.35943,33.5038 6.13294,33.3192 5.77229,33.0131C 5.41159,32.7069 4.91666,32.2792 4.57694,31.9855C 4.23722,31.692 4.05273,31.5326 3.98563,31.4067C 3.9185,31.2809 3.96882,31.1886 4.70694,30.7692C 5.44511,30.3499 6.8711,29.6033 7.73087,29.163C 8.59063,28.7225 8.88425,28.5884 9.06458,28.5128C 9.2449,28.4374 9.31203,28.4205 9.37077,28.3995C 9.42945,28.3787 9.47977,28.3534 9.60983,28.4332 Z "/>
			<path fill="#000000" fill-opacity="1" stroke-linejoin="round" stroke="#000000" stroke-opacity="1" d="M 3.79267,40.7594C 3.70878,40.6168 3.70042,40.4742 3.71301,40.2015C 3.72559,39.9291 3.7591,39.5264 3.83459,39.1698C 3.9101,38.8134 4.02756,38.5031 4.17854,38.1801C 4.32953,37.8571 4.51403,37.5216 4.72375,37.1735C 4.93347,36.8253 5.1683,36.4647 5.40736,36.1166C 5.64642,35.7684 5.88971,35.433 6.08261,35.1771C 6.27552,34.9213 6.41815,34.7452 6.53139,34.611C 6.64463,34.4768 6.72848,34.3844 6.78299,34.3341C 6.83755,34.2838 6.8627,34.2755 6.90467,34.2797C 6.9466,34.2838 7.00529,34.3007 7.25275,34.4768C 7.50021,34.653 7.93636,34.9884 8.42288,35.3868C 8.9094,35.7853 9.44621,36.2467 9.82785,36.578C 10.2095,36.9093 10.436,37.1107 10.5702,37.2448C 10.7044,37.379 10.7464,37.4462 10.759,37.5049C 10.7716,37.5636 10.7548,37.6139 10.6163,37.7062C 10.4779,37.7985 10.2179,37.9326 9.9873,38.1172C 9.75658,38.3018 9.55527,38.5365 9.29105,38.9182C 9.02682,39.2999 8.69968,39.8284 8.43124,40.3022C 8.16284,40.7762 7.95316,41.1957 7.77702,41.6234C 7.60087,42.0511 7.45824,42.4874 7.3366,42.8187C 7.215,43.15 7.11435,43.3766 7.04721,43.5653C 6.98013,43.754 6.9466,43.9049 6.91726,44.0013C 6.88787,44.0978 6.8627,44.1398 6.82496,44.1483C 6.78721,44.1566 6.73689,44.1315 6.48102,43.8378C 6.2252,43.5443 5.76389,42.9823 5.34867,42.4957C 4.93347,42.0092 4.56436,41.5983 4.30014,41.3214C 4.03591,41.0446 3.87656,40.902 3.79267,40.7594 Z "/>
			<path fill="#000000" fill-opacity="1" stroke-linejoin="round" stroke="#000000" stroke-opacity="1" d="M 14.3449,54.1761C 14.2191,54.1469 14.0009,54.0713 13.7074,53.9161C 13.4138,53.7609 13.0447,53.526 12.726,53.2031C 12.4072,52.8802 12.1388,52.4691 11.8242,51.9574C 11.5097,51.4458 11.149,50.8335 10.9225,50.3009C 10.6961,49.7682 10.6038,49.3153 10.5409,48.9127C 10.4779,48.51 10.4444,48.1577 10.5325,47.579C 10.6206,47.0001 10.8302,46.1949 11.149,45.3519C 11.4678,44.5089 11.8955,43.6281 12.2604,43.0243C 12.6253,42.4203 12.9273,42.0931 13.2292,41.7786C 13.5312,41.464 13.8332,41.162 14.0471,41.0028C 14.261,40.8434 14.3868,40.8265 14.5043,40.8475C 14.6217,40.8685 14.7307,40.9271 14.9613,41.12C 15.192,41.3131 15.5443,41.6403 16.1105,42.1224C 16.6767,42.6049 17.4568,43.2423 17.9518,43.6659C 18.4466,44.0895 18.6563,44.2992 18.8031,44.4753C 18.9499,44.6515 19.0338,44.7941 19.0715,44.9032C 19.1093,45.0121 19.1009,45.0878 19.038,45.1505C 18.9751,45.2135 18.8576,45.2638 18.6311,45.3519C 18.4047,45.4401 18.0692,45.5658 17.6498,45.7755C 17.2303,45.9852 16.7271,46.2787 16.2783,46.6437C 15.8296,47.0085 15.4353,47.4447 15.1459,47.8431C 14.8565,48.2416 14.672,48.6022 14.542,49.0426C 14.412,49.483 14.3365,50.0031 14.2987,50.5148C 14.261,51.0265 14.261,51.5297 14.2904,52.0455C 14.3197,52.5614 14.3784,53.09 14.4245,53.4464C 14.4707,53.8029 14.5042,53.9874 14.5042,54.088C 14.5042,54.1886 14.4707,54.2054 14.3449,54.1761 Z "/>
		</g>
		<g>
			<path fill="#FFFFFF" fill-opacity="1" stroke-linejoin="round" stroke="#000000" stroke-opacity="1" d="M 33.1002,5.52405C 31.7078,5.64148 29.0572,6.17834 26.3227,6.88293C 23.5881,7.58752 20.7697,8.45984 17.9346,9.60071C 15.0994,10.7413 12.2475,12.1505 10.2344,13.325C 8.22122,14.4993 7.04687,15.4387 6.05706,16.6969C 5.0673,17.9552 4.26205,19.5321 3.89294,20.4044C 3.52387,21.2767 3.59101,21.4446 5.13444,22.7196C 6.6778,23.9945 9.69751,26.3768 12.3146,28.4235C 14.9317,30.4701 17.1461,32.1813 19.6793,33.8253C 22.2125,35.4694 25.0644,37.0464 26.6246,37.8684C 28.1848,38.6904 28.4532,38.7576 28.5036,38.6234C 28.5539,38.4891 28.3861,38.1537 28.2687,37.6168C 28.1513,37.08 28.0841,36.3418 28.5203,35.6205C 28.9565,34.899 29.896,34.1945 31.2045,33.6576C 32.513,33.1207 34.1907,32.7516 35.8683,32.5504C 37.5459,32.349 39.2235,32.3156 40.0623,32.2484C 40.9011,32.1813 40.9011,32.0807 39.8777,27.702C 38.8544,23.3235 36.8077,14.6671 35.7173,10.1879C 34.6268,5.70862 34.4926,5.40662 33.1002,5.52405 Z "/>
			<path fill="#000000" fill-opacity="1" stroke-linejoin="round" stroke="#000000" stroke-opacity="1" d="M 25.9639,7.42542C 25.5392,7.53162 24.7056,7.75964 23.8988,7.98059C 23.0919,8.20154 22.3118,8.41541 21.6135,8.61975C 20.9152,8.82434 20.2987,9.01941 19.679,9.23328C 19.0594,9.44714 18.4366,9.67981 18.1314,9.80896C 17.8263,9.93787 17.8389,9.96301 17.9396,10.1454C 18.0402,10.3279 18.229,10.6676 18.5246,11.1552C 18.8203,11.6427 19.2229,12.2781 19.5564,12.838C 19.8898,13.3978 20.154,13.8823 20.3962,14.3385C 20.6384,14.7946 20.8586,15.2223 20.9876,15.4645C 21.1165,15.7067 21.1543,15.7633 21.1732,15.7916C 21.192,15.8199 21.192,15.8199 21.5034,15.7286C 21.8148,15.6376 22.4377,15.4551 23.0762,15.2632C 23.7147,15.0714 24.369,14.87 25.0044,14.6844C 25.6398,14.4989 26.2563,14.329 26.8068,14.1686C 27.3573,14.0082 27.8417,13.8571 28.2066,13.7313C 28.5714,13.6056 28.8168,13.5048 28.9332,13.4261C 29.0495,13.3475 29.037,13.2909 28.9111,12.9952C 28.7853,12.6996 28.5463,12.1649 28.3009,11.5956C 28.0556,11.0262 27.8039,10.4222 27.5586,9.85291C 27.3132,9.28357 27.0742,8.7489 26.9137,8.39966C 26.7533,8.05042 26.6715,7.88696 26.6149,7.7738C 26.5583,7.66052 26.5268,7.59753 26.4985,7.53552C 26.4702,7.47327 26.4451,7.41199 26.4247,7.37341C 26.4042,7.33496 26.3885,7.31921 25.9639,7.42542 Z "/>
			<path fill="#000000" fill-opacity="1" stroke-linejoin="round" stroke="#000000" stroke-opacity="1" d="M 13.8771,19.2238C 13.9149,19.1986 13.9149,19.1735 13.5626,18.7708C 13.2103,18.368 12.5057,17.588 11.8262,16.8395C 11.1468,16.0907 10.4925,15.3737 10.0459,14.9017C 9.59921,14.4299 9.36014,14.2035 9.22174,14.1281C 9.08334,14.0525 9.04559,14.1281 8.74991,14.3734C 8.45423,14.6188 7.90061,15.0338 7.34072,15.5245C 6.78082,16.0153 6.21462,16.5814 5.76166,17.1288C 5.30871,17.6761 4.96899,18.2045 4.70477,18.601C 4.44054,18.9972 4.25181,19.2615 4.08195,19.6263C 3.9121,19.9912 3.76111,20.4567 3.68562,20.7399C 3.61013,21.0229 3.61013,21.1237 3.63528,21.1865C 3.66045,21.2494 3.71078,21.2745 4.47199,21.8849C 5.23322,22.495 6.70532,23.6903 7.49799,24.3195C 8.29066,24.9486 8.4039,25.0115 8.4668,25.024C 8.52972,25.0367 8.5423,24.9989 8.63038,24.7787C 8.71845,24.5585 8.88202,24.1559 9.05188,23.8036C 9.22174,23.4513 9.39789,23.1493 9.59921,22.8724C 9.80051,22.5957 10.027,22.3441 10.2535,22.0924C 10.4799,21.8407 10.7064,21.5892 10.9832,21.3187C 11.26,21.0482 11.5872,20.7587 11.8954,20.5133C 12.2037,20.2679 12.4931,20.0668 12.7384,19.8969C 12.9838,19.7269 13.1851,19.5885 13.3361,19.4943C 13.4871,19.3998 13.5877,19.3495 13.6758,19.3119C 13.7639,19.274 13.8394,19.2489 13.8771,19.2238 Z "/>
			<path fill="#000000" fill-opacity="1" stroke-linejoin="round" stroke="#000000" stroke-opacity="1" d="M 18.2212,24.516C 18.1551,24.5443 18.1488,24.5505 17.6361,23.9247C 17.1234,23.2987 16.1042,22.0404 15.4091,21.1754C 14.7139,20.3104 14.3428,19.8385 14.1603,19.5963C 13.9779,19.3541 13.9842,19.3416 14.1509,19.2189C 14.3176,19.0963 14.6447,18.8634 15.1543,18.5646C 15.6639,18.2657 16.3559,17.901 16.9315,17.6178C 17.5072,17.3347 17.9664,17.1334 18.3627,16.9573C 18.7591,16.7811 19.0925,16.6301 19.4133,16.4855C 19.7342,16.3407 20.0424,16.2023 20.3067,16.0922C 20.5709,15.9821 20.7911,15.9003 20.9326,15.8438C 21.0742,15.7871 21.1371,15.7557 21.1717,15.743C 21.2063,15.7306 21.2126,15.7367 21.2975,15.8942C 21.3824,16.0514 21.546,16.3596 21.7945,16.7968C 22.043,17.234 22.3764,17.8002 22.8105,18.5079C 23.2446,19.2157 23.7793,20.0651 24.1096,20.5903C 24.4399,21.1156 24.5657,21.317 24.6286,21.4302C 24.6915,21.5433 24.6915,21.5686 24.5814,21.6221C 24.4713,21.6755 24.2511,21.7573 23.8234,21.9398C 23.3956,22.1222 22.7602,22.4054 22.2286,22.6476C 21.697,22.8898 21.2692,23.0909 20.8477,23.286C 20.4262,23.4811 20.011,23.6698 19.6272,23.8522C 19.2435,24.0347 18.8912,24.2108 18.715,24.299C 18.5389,24.387 18.5389,24.387 18.476,24.4122C 18.4131,24.4374 18.2872,24.4877 18.2212,24.516 Z "/>
			<path fill="#000000" fill-opacity="1" stroke-linejoin="round" stroke="#000000" stroke-opacity="1" d="M 18.0042,24.5851C 18.023,24.5819 18.0356,24.5883 18.2369,24.8148C 18.4382,25.0413 18.8283,25.4879 19.3347,26.1171C 19.8411,26.7462 20.4639,27.5577 20.8823,28.1144C 21.3006,28.6713 21.5145,28.9731 21.7222,29.2562C 21.9298,29.5394 22.1311,29.8036 22.2695,29.9703C 22.4079,30.1371 22.4834,30.2062 22.4897,30.2596C 22.496,30.3131 22.433,30.351 22.2852,30.4862C 22.1374,30.6215 21.9046,30.8541 21.7001,31.1246C 21.4957,31.3951 21.3195,31.7035 21.1748,32.0275C 21.0301,32.3514 20.9169,32.6912 20.8508,33.0435C 20.7848,33.3958 20.7659,33.7606 20.7565,33.9713C 20.747,34.1821 20.747,34.2388 20.2721,33.9337C 19.7971,33.6285 18.8472,32.9617 17.7682,32.1974C 16.6893,31.433 15.4814,30.5712 14.8429,30.0867C 14.2044,29.6022 14.1352,29.4952 14.1068,29.3759C 14.0785,29.2562 14.0911,29.1241 14.1414,28.8914C 14.1918,28.6586 14.2798,28.3252 14.4151,28.0389C 14.5504,27.7527 14.7328,27.5135 15.019,27.1676C 15.3053,26.8217 15.6953,26.3687 16.0193,26.0541C 16.3433,25.7396 16.6012,25.5634 16.8372,25.3905C 17.0731,25.2174 17.287,25.0475 17.4663,24.9186C 17.6456,24.7897 17.7903,24.7015 17.8752,24.6512C 17.9601,24.601 17.9853,24.5883 18.0042,24.5851 Z "/>
			<path fill="#000000" fill-opacity="1" stroke-linejoin="round" stroke="#000000" stroke-opacity="1" d="M 28.1925,27.3721C 28.1831,27.3563 28.1705,27.35 28.0006,27.4034C 27.8308,27.457 27.5036,27.5702 27.1041,27.7369C 26.7047,27.9037 26.2328,28.1239 25.8396,28.3158C 25.4465,28.5077 25.1319,28.6713 24.7167,28.9071C 24.3015,29.1429 23.7856,29.4513 23.4333,29.6715C 23.081,29.8917 22.8923,30.0238 22.7791,30.1088C 22.6658,30.1936 22.6281,30.2313 22.735,30.4076C 22.842,30.5836 23.0936,30.8983 23.5497,31.4362C 24.0058,31.974 24.6664,32.7352 25.2955,33.4554C 25.9246,34.1759 26.5222,34.8553 26.8871,35.2579C 27.252,35.6605 27.3841,35.7863 27.5697,35.8964C 27.7553,36.0065 27.9943,36.101 28.2271,36.1449C 28.4599,36.189 28.6863,36.1827 28.9726,35.9751C 29.2588,35.7675 29.6048,35.3585 29.8533,34.9999C 30.1018,34.6415 30.2528,34.3331 30.3723,34.1003C 30.4919,33.8676 30.5799,33.7103 30.6397,33.5184C 30.6995,33.3265 30.7309,33.1001 30.7215,32.902C 30.7121,32.7037 30.6617,32.5338 30.517,32.1974C 30.3723,31.8607 30.1333,31.3575 29.8533,30.7472C 29.5734,30.1371 29.2525,29.4198 28.9946,28.8788C 28.7367,28.3378 28.5416,27.9728 28.4379,27.778C 28.334,27.5829 28.3215,27.5577 28.2994,27.5294C 28.2774,27.5011 28.246,27.4696 28.2271,27.4413C 28.2082,27.413 28.2019,27.3878 28.1925,27.3721 Z "/>
			<path fill="#000000" fill-opacity="1" stroke-linejoin="round" stroke="#000000" stroke-opacity="1" d="M 31.7029,19.5334C 31.7501,19.5365 31.7564,19.5618 31.8728,19.892C 31.9891,20.2223 32.2156,20.8578 32.5145,21.6504C 32.8133,22.443 33.1844,23.3929 33.4392,24.0787C 33.694,24.7645 33.8324,25.1859 33.8796,25.3966C 33.9268,25.6075 33.8827,25.6075 33.7318,25.6357C 33.5808,25.6641 33.3228,25.7207 32.9768,25.8151C 32.6308,25.9094 32.1967,26.0416 31.7438,26.1769C 31.2908,26.3121 30.819,26.4504 30.3944,26.5731C 29.9697,26.6958 29.5923,26.8027 29.2494,26.9098C 28.9065,27.0167 28.5983,27.1237 28.441,27.174C 28.2837,27.2242 28.2774,27.2179 28.0918,26.9663C 27.9063,26.7147 27.5414,26.2177 27.123,25.6012C 26.7047,24.9846 26.2328,24.2487 25.8711,23.6666C 25.5094,23.0847 25.2577,22.6569 25.091,22.358C 24.9243,22.0592 24.8425,21.8895 24.7953,21.7982C 24.7482,21.7069 24.7356,21.6945 24.8079,21.6566C 24.8803,21.619 25.0375,21.556 25.6163,21.3673C 26.1951,21.1786 27.1954,20.864 28.0352,20.6029C 28.8751,20.3419 29.5545,20.1342 30.1018,19.9706C 30.6492,19.807 31.0644,19.6876 31.316,19.6183C 31.5676,19.5492 31.6557,19.5304 31.7029,19.5334 Z "/>
			<path fill="#000000" fill-opacity="1" stroke-linejoin="round" stroke="#000000" stroke-opacity="1" d="M 35.6065,12.2863C 35.575,12.264 35.5058,12.264 35.1976,12.2893C 34.8893,12.3145 34.342,12.3649 33.7066,12.4591C 33.0712,12.5536 32.3477,12.692 31.6337,12.8461C 30.9197,13.0001 30.2151,13.17 29.7999,13.2706C 29.3846,13.3715 29.2588,13.4028 29.2746,13.5916C 29.2903,13.7803 29.4476,14.1263 29.6268,14.5509C 29.8062,14.9756 30.0075,15.4789 30.2151,15.9728C 30.4227,16.4666 30.6366,16.951 30.841,17.4196C 31.0455,17.8883 31.2405,18.3412 31.3695,18.6591C 31.4984,18.9767 31.5614,19.1591 31.6054,19.2723C 31.6494,19.3856 31.6746,19.4296 31.6935,19.4517C 31.7123,19.4738 31.7249,19.4738 31.8287,19.4579C 31.9325,19.4423 32.1275,19.4108 32.5302,19.3385C 32.9328,19.266 33.543,19.1528 34.0495,19.027C 34.5559,18.9012 34.9585,18.7628 35.3171,18.6559C 35.6757,18.549 35.9902,18.4734 36.2733,18.423C 36.5564,18.3727 36.8081,18.3475 36.9811,18.3319C 37.1541,18.316 37.2485,18.3098 37.2925,18.2909C 37.3365,18.2721 37.3302,18.2406 37.0629,17.3064C 36.7955,16.3722 36.267,14.5353 35.984,13.5663C 35.7009,12.5975 35.6631,12.4969 35.6474,12.4246C 35.6317,12.3522 35.638,12.3082 35.6065,12.2863 Z "/>
			<path fill="#000000" fill-opacity="1" stroke-linejoin="round" stroke="#000000" stroke-opacity="1" d="M 38.8432,24.7518C 38.7898,24.733 38.708,24.7394 38.3808,24.777C 38.0537,24.8148 37.4812,24.8839 36.9433,24.9752C 36.4055,25.0664 35.9022,25.1796 35.4712,25.274C 35.0403,25.3683 34.6817,25.444 34.4521,25.5005C 34.2225,25.5571 34.1218,25.5948 34.0778,25.6483C 34.0337,25.7018 34.0463,25.771 34.1753,26.1327C 34.3042,26.4945 34.5496,27.1488 34.8642,27.9823C 35.1787,28.8158 35.5625,29.8287 35.8235,30.4987C 36.0846,31.1688 36.223,31.4958 36.33,31.7382C 36.4369,31.9803 36.5124,32.1376 36.7263,32.2036C 36.9402,32.2697 37.2925,32.2445 37.6951,32.2288C 38.0977,32.213 38.5507,32.2067 38.9848,32.2036C 39.4189,32.2006 39.8341,32.2006 40.1644,32.213C 40.4946,32.2257 40.74,32.2509 40.8627,32.2633L 40.9853,32.2633C 40.9853,32.2509 40.9853,32.2257 40.6488,31.0021C 40.3122,29.7784 39.6391,27.3563 39.2993,26.1327C 38.9596,24.9091 38.9533,24.8839 38.9376,24.8494C 38.9219,24.8148 38.8967,24.7708 38.8432,24.7518 Z "/>
		</g>
		<path fill="#FFFFFF" fill-opacity="1" stroke-linejoin="round" stroke="#000000" stroke-opacity="1" d="M 44.5083,45.1627C 42.168,35.6554 38.2676,19.8439 36.3425,11.9381C 34.4175,4.03235 34.4678,4.03235 34.7949,4.0072C 35.1221,3.98206 35.726,3.93176 36.028,3.93176C 36.33,3.93176 36.33,3.98206 38.7206,13.4437C 41.1112,22.9056 45.8923,41.7787 48.2829,51.2152C 50.6735,60.6517 50.6735,60.6517 50.3433,60.7101C 50.013,60.7682 49.3525,60.8846 48.975,60.9554C 48.5975,61.0262 48.5032,61.0514 48.066,59.4623C 47.6287,57.8733 46.8486,54.67 44.5083,45.1627 Z "/>
		<path fill="#000000" fill-opacity="1" stroke-width="0.2" stroke-linejoin="round" d="M 34.8201,-0.00012207C 33.2357,-0.00012207 31.9513,1.06177 31.9513,2.3717C 31.9513,3.68152 33.2357,4.74329 34.8201,4.74329C 36.4044,4.74329 37.6888,3.68152 37.6888,2.3717C 37.6888,1.06177 36.4044,-0.00012207 34.8201,-0.00012207 Z "/>
		<path fill="#FFFFFF" fill-opacity="1" stroke-width="0.2" stroke-linejoin="round" d="M 35.2668,0.578613C 34.1933,0.578613 33.3229,1.27991 33.3229,2.14514C 33.3229,3.01013 34.1933,3.71155 35.2668,3.71155C 36.3404,3.71155 37.2108,3.01013 37.2108,2.14514C 37.2108,1.27991 36.3404,0.578613 35.2668,0.578613 Z "/>
	</g>
</svg>
