<?xml version="1.0" encoding="utf-8"?>
<!DOCTYPE svg PUBLIC "-//W3C//DTD SVG 1.1//EN" "http://www.w3.org/Graphics/SVG/1.1/DTD/svg11.dtd">
<svg xmlns="http://www.w3.org/2000/svg" xmlns:xlink="http://www.w3.org/1999/xlink" version="1.1" baseProfile="full" width="258" height="258" viewBox="0 0 258.00 258.00" enable-background="new 0 0 258.00 258.00" xml:space="preserve">
	<g>
		<g>
			<path fill="#FFFFFF" fill-opacity="1" stroke-width="3" stroke-linejoin="round" stroke="#000000" stroke-opacity="1" d="M 142.349,143.178C 143.599,145.012 145.515,148.345 146.307,151.345C 147.099,154.345 146.765,157.012 145.932,159.262C 145.099,161.512 143.765,163.345 141.765,164.887C 139.765,166.428 137.099,167.678 132.099,169.178C 127.099,170.678 119.765,172.428 113.349,174.345C 106.932,176.262 101.432,178.345 97.5153,180.762C 93.5986,183.178 91.2653,185.928 89.807,188.803C 88.3486,191.678 87.7653,194.678 87.807,197.845C 87.8486,201.012 88.5153,204.345 88.7653,206.012C 89.0153,207.678 88.8486,207.678 87.557,206.97C 86.2653,206.262 83.8486,204.845 81.3903,202.012C 78.932,199.178 76.432,194.928 72.7653,189.303C 69.0986,183.678 64.2653,176.678 61.0986,172.303C 57.932,167.928 56.432,166.178 54.432,164.678C 52.432,163.178 49.932,161.928 47.932,161.178C 45.932,160.428 44.432,160.178 43.682,159.845C 42.932,159.512 42.932,159.095 42.8903,157.22C 42.8486,155.345 42.7653,152.012 43.307,148.637C 43.8486,145.262 45.0153,141.845 46.807,138.928C 48.5986,136.012 51.0153,133.595 52.9736,131.762C 54.932,129.928 56.432,128.678 58.3486,127.387C 60.2653,126.095 62.5986,124.762 65.4736,123.553C 68.3486,122.345 71.7653,121.262 74.4736,120.678C 77.182,120.095 79.182,120.012 89.9736,123.428C 100.765,126.845 120.349,133.762 130.432,137.387C 140.515,141.012 141.099,141.345 142.349,143.178 Z "/>
			<path fill="#000000" fill-opacity="1" stroke-width="3" stroke-linejoin="round" stroke="#000000" stroke-opacity="1" d="M 110.989,154.002C 111.461,153.794 112.544,153.544 113.85,153.336C 115.155,153.127 116.683,152.961 117.85,152.822C 119.016,152.683 119.822,152.572 121.044,152.586C 122.266,152.599 123.905,152.738 125.822,153.211C 127.739,153.683 129.933,154.488 131.419,154.988C 132.905,155.488 133.683,155.683 134.322,155.544C 134.961,155.405 135.461,154.933 136.072,154.683C 136.683,154.433 137.405,154.405 138.461,154.391C 139.516,154.377 140.905,154.377 141.961,154.447C 143.016,154.516 143.739,154.655 144.392,154.988C 145.044,155.322 145.628,155.849 145.989,156.613C 146.35,157.377 146.489,158.377 146.267,159.419C 146.044,160.461 145.461,161.544 144.669,162.516C 143.878,163.488 142.878,164.349 141.405,165.197C 139.933,166.044 137.989,166.877 135.989,167.558C 133.989,168.238 131.933,168.766 130.739,169.002C 129.544,169.238 129.211,169.183 128.822,168.933C 128.433,168.683 127.989,168.238 126.822,167.308C 125.655,166.377 123.766,164.961 121.253,162.988C 118.739,161.016 115.6,158.488 113.753,156.988C 111.905,155.488 111.35,155.016 111.003,154.697C 110.655,154.377 110.516,154.211 110.989,154.002 Z "/>
			<path fill="#000000" fill-opacity="1" stroke-width="3" stroke-linejoin="round" stroke="#000000" stroke-opacity="1" d="M 99.0443,143.141C 99.6831,143.572 100.739,144.599 102.336,146.141C 103.933,147.683 106.072,149.738 107.392,151.03C 108.711,152.322 109.211,152.849 109.572,153.224C 109.933,153.599 110.155,153.822 110.253,153.961C 110.35,154.099 110.322,154.155 109.905,154.211C 109.489,154.266 108.683,154.322 107.433,154.488C 106.183,154.655 104.489,154.933 102.808,155.419C 101.128,155.905 99.4609,156.599 98.0166,157.294C 96.5721,157.988 95.3497,158.683 94.3219,159.308C 93.2943,159.933 92.4609,160.488 91.6969,161.016C 90.9331,161.544 90.2388,162.044 89.7943,162.363C 89.3497,162.683 89.1554,162.822 88.9471,162.85C 88.7388,162.877 88.5165,162.794 87.7386,162.169C 86.9609,161.544 85.6276,160.377 84.3636,159.169C 83.0997,157.961 81.9054,156.711 80.9609,155.738C 80.0165,154.766 79.3221,154.072 78.8776,153.613C 78.4331,153.155 78.2388,152.933 78.1554,152.766C 78.0721,152.599 78.0997,152.488 78.4193,152.127C 78.7388,151.766 79.3497,151.155 80.4331,150.405C 81.5165,149.655 83.0721,148.766 84.4193,148.086C 85.7665,147.405 86.9054,146.933 88.0721,146.461C 89.2388,145.988 90.4331,145.516 91.6831,145.016C 92.9331,144.516 94.2388,143.988 95.1971,143.655C 96.1554,143.322 96.7665,143.183 97.1693,143.113C 97.5721,143.044 97.7665,143.044 97.9747,142.961C 98.1831,142.877 98.4054,142.711 99.0443,143.141 Z "/>
			<path fill="#000000" fill-opacity="1" stroke-width="3" stroke-linejoin="round" stroke="#000000" stroke-opacity="1" d="M 84.0859,131.183C 84.5443,131.711 85.6276,132.711 86.9886,133.905C 88.3497,135.099 89.9888,136.488 91.4193,137.613C 92.8497,138.738 94.0721,139.599 95.0304,140.169C 95.9888,140.738 96.6831,141.016 97.2943,141.224C 97.9054,141.433 98.4331,141.572 98.9886,141.725C 99.5443,141.877 100.128,142.044 101.044,142.127C 101.961,142.211 103.211,142.211 104.197,142.238C 105.183,142.266 105.905,142.322 106.35,142.336C 106.794,142.349 106.961,142.322 106.267,141.627C 105.572,140.933 104.016,139.572 101.891,137.905C 99.7665,136.238 97.0721,134.266 95.1138,132.961C 93.1554,131.655 91.9331,131.016 91.1553,130.711C 90.3776,130.405 90.0443,130.433 89.1276,130.419C 88.2109,130.405 86.7109,130.349 85.7526,130.363C 84.7943,130.377 84.3776,130.461 84.0859,130.53C 83.7943,130.599 83.6276,130.655 84.0859,131.183 Z "/>
			<path fill="#000000" fill-opacity="1" stroke-width="3" stroke-linejoin="round" stroke="#000000" stroke-opacity="1" d="M 73.0582,122.475C 73.4888,122.738 74.1831,123.349 75.1415,124.113C 76.0997,124.877 77.3221,125.794 78.3082,126.53C 79.2943,127.266 80.0443,127.822 80.7386,128.391C 81.4331,128.961 82.0721,129.544 82.4471,129.919C 82.8221,130.294 82.9331,130.461 82.8359,130.627C 82.7388,130.794 82.4331,130.961 81.8359,131.225C 81.2388,131.488 80.3497,131.849 78.8915,132.53C 77.4331,133.211 75.4054,134.211 73.6832,135.1C 71.9609,135.988 70.5443,136.766 69.225,137.572C 67.9054,138.377 66.6831,139.211 65.9331,139.766C 65.1831,140.322 64.9054,140.599 64.5026,140.572C 64.0997,140.544 63.5721,140.211 62.9332,139.738C 62.2943,139.266 61.5443,138.655 60.35,137.641C 59.1554,136.627 57.5165,135.211 56.3915,134.238C 55.2665,133.266 54.6554,132.738 54.4332,132.322C 54.2109,131.905 54.3776,131.599 56.8219,130.211C 59.2665,128.822 63.9888,126.349 66.8359,124.891C 69.6831,123.433 70.6554,122.988 71.2526,122.738C 71.8497,122.488 72.0721,122.433 72.2666,122.363C 72.4609,122.294 72.6276,122.211 73.0582,122.475 Z "/>
			<path fill="#000000" fill-opacity="1" stroke-width="3" stroke-linejoin="round" stroke="#000000" stroke-opacity="1" d="M 53.7943,163.294C 53.5165,162.822 53.4888,162.349 53.5304,161.447C 53.5721,160.544 53.6831,159.211 53.9331,158.03C 54.1831,156.849 54.5721,155.822 55.0721,154.752C 55.5721,153.683 56.1831,152.572 56.8776,151.419C 57.5721,150.266 58.3497,149.072 59.1415,147.919C 59.9331,146.766 60.7388,145.655 61.3776,144.808C 62.0165,143.961 62.4888,143.377 62.8638,142.933C 63.2388,142.488 63.5165,142.183 63.6969,142.016C 63.8776,141.849 63.9609,141.822 64.1,141.836C 64.2388,141.849 64.4331,141.905 65.2526,142.488C 66.0721,143.072 67.5165,144.183 69.1276,145.502C 70.7388,146.822 72.5165,148.349 73.7803,149.447C 75.0443,150.544 75.7943,151.211 76.2386,151.655C 76.6831,152.099 76.8221,152.322 76.8638,152.516C 76.9054,152.711 76.8497,152.877 76.3915,153.183C 75.9331,153.488 75.0721,153.933 74.3082,154.544C 73.5443,155.155 72.8776,155.933 72.0026,157.197C 71.1276,158.461 70.0443,160.211 69.1553,161.78C 68.2665,163.349 67.5721,164.738 66.9888,166.155C 66.4054,167.572 65.9331,169.016 65.5303,170.113C 65.1276,171.211 64.7943,171.961 64.5719,172.586C 64.3497,173.211 64.2388,173.711 64.1416,174.03C 64.0443,174.349 63.9609,174.488 63.8359,174.516C 63.7109,174.544 63.5443,174.461 62.6969,173.488C 61.8497,172.516 60.3221,170.655 58.9471,169.044C 57.5721,167.433 56.3497,166.072 55.4747,165.155C 54.5997,164.238 54.0721,163.766 53.7943,163.294 Z "/>
			<path fill="#000000" fill-opacity="1" stroke-width="3" stroke-linejoin="round" stroke="#000000" stroke-opacity="1" d="M 88.7388,207.725C 88.3221,207.627 87.5997,207.377 86.6276,206.863C 85.6554,206.349 84.4331,205.572 83.3776,204.502C 82.3221,203.433 81.4331,202.072 80.3915,200.377C 79.3497,198.683 78.1554,196.655 77.4054,194.891C 76.6554,193.127 76.3497,191.627 76.1415,190.294C 75.9331,188.961 75.8221,187.794 76.1138,185.877C 76.4054,183.961 77.0997,181.294 78.1553,178.502C 79.2109,175.711 80.6276,172.794 81.8359,170.794C 83.0443,168.794 84.0443,167.711 85.0443,166.669C 86.0443,165.627 87.0443,164.627 87.7526,164.1C 88.4609,163.572 88.8776,163.516 89.2666,163.586C 89.6554,163.655 90.0165,163.849 90.7803,164.488C 91.5443,165.127 92.7109,166.211 94.5859,167.808C 96.4609,169.405 99.0443,171.516 100.683,172.919C 102.322,174.322 103.016,175.016 103.503,175.599C 103.989,176.183 104.266,176.655 104.391,177.016C 104.516,177.377 104.489,177.627 104.28,177.836C 104.072,178.044 103.683,178.211 102.933,178.502C 102.183,178.794 101.072,179.211 99.6832,179.905C 98.2943,180.599 96.6276,181.572 95.1416,182.78C 93.6554,183.988 92.3497,185.433 91.3915,186.752C 90.4331,188.072 89.8221,189.266 89.3916,190.724C 88.9609,192.183 88.7109,193.905 88.5859,195.6C 88.4609,197.294 88.4609,198.961 88.5582,200.669C 88.6554,202.377 88.8497,204.127 89.0026,205.308C 89.1554,206.488 89.2665,207.099 89.2665,207.433C 89.2665,207.766 89.1554,207.822 88.7388,207.725 Z "/>
		</g>
		<g>
			<path fill="#FFFFFF" fill-opacity="1" stroke-width="3" stroke-linejoin="round" stroke="#000000" stroke-opacity="1" d="M 150.849,46.6091C 146.237,46.9979 137.46,48.7756 128.404,51.1089C 119.349,53.4422 110.015,56.3313 100.626,60.1091C 91.2374,63.8867 81.7931,68.5534 75.1265,72.4424C 68.4598,76.3313 64.5708,79.4422 61.293,83.6089C 58.0153,87.7756 55.3486,92.9979 54.1263,95.8867C 52.9042,98.7756 53.1265,99.3313 58.2377,103.553C 63.3486,107.776 73.3486,115.665 82.0153,122.442C 90.682,129.22 98.0153,134.887 106.404,140.331C 114.793,145.776 124.237,150.998 129.404,153.72C 134.571,156.442 135.46,156.665 135.626,156.22C 135.793,155.776 135.237,154.665 134.849,152.887C 134.46,151.109 134.237,148.665 135.682,146.276C 137.126,143.887 140.237,141.553 144.571,139.776C 148.904,137.998 154.46,136.776 160.015,136.109C 165.571,135.442 171.126,135.331 173.904,135.109C 176.682,134.887 176.682,134.553 173.293,120.053C 169.904,105.553 163.126,76.8867 159.515,62.0534C 155.904,47.2201 155.46,46.2201 150.849,46.6091 Z "/>
			<path fill="#000000" fill-opacity="1" stroke-width="0.2" stroke-linejoin="round" stroke="#000000" stroke-opacity="1" d="M 127.216,52.9055C 125.81,53.257 123.049,54.0121 120.377,54.7439C 117.705,55.4756 115.122,56.1839 112.81,56.8611C 110.497,57.5381 108.455,58.1839 106.403,58.8923C 104.351,59.6006 102.289,60.3714 101.278,60.7986C 100.268,61.2256 100.31,61.3089 100.643,61.9131C 100.976,62.5173 101.601,63.6423 102.58,65.2568C 103.56,66.8714 104.893,68.9756 105.997,70.8298C 107.101,72.6839 107.976,74.2881 108.778,75.7986C 109.58,77.3089 110.31,78.7256 110.737,79.5277C 111.164,80.3298 111.289,80.5173 111.351,80.6111C 111.414,80.7048 111.414,80.7048 112.445,80.4027C 113.476,80.1006 115.539,79.4964 117.653,78.8611C 119.768,78.2256 121.935,77.5589 124.039,76.9443C 126.143,76.3298 128.185,75.7673 130.007,75.2361C 131.83,74.7048 133.435,74.2048 134.643,73.7881C 135.851,73.3714 136.664,73.0381 137.049,72.7777C 137.435,72.5173 137.393,72.3298 136.976,71.3506C 136.56,70.3714 135.768,68.6006 134.955,66.7152C 134.143,64.8298 133.31,62.8298 132.497,60.9443C 131.685,59.0589 130.893,57.2881 130.362,56.1318C 129.83,54.9756 129.56,54.4339 129.372,54.0589C 129.185,53.6839 129.08,53.4756 128.987,53.2699C 128.893,53.0642 128.81,52.8612 128.742,52.7336C 128.674,52.6059 128.622,52.5539 127.216,52.9055 Z "/>
			<path fill="#000000" fill-opacity="1" stroke-linejoin="round" stroke="#000000" stroke-opacity="1" d="M 87.1898,91.9768C 87.3148,91.8934 87.3148,91.81 86.1481,90.4768C 84.9814,89.1434 82.6481,86.56 80.3981,84.0809C 78.1481,81.6018 75.9814,79.2268 74.5023,77.6643C 73.0231,76.1018 72.2314,75.3518 71.7731,75.1018C 71.3148,74.8518 71.1898,75.1018 70.2106,75.9143C 69.2314,76.7268 67.3981,78.1018 65.5439,79.7268C 63.6898,81.3518 61.8148,83.2268 60.3148,85.0393C 58.8148,86.8518 57.6898,88.6018 56.8148,89.9143C 55.9398,91.2268 55.3148,92.1018 54.7523,93.31C 54.1898,94.5184 53.6898,96.06 53.4398,96.9975C 53.1898,97.935 53.1898,98.2684 53.2731,98.4768C 53.3564,98.685 53.5231,98.7684 56.0439,100.789C 58.5648,102.81 63.4398,106.768 66.0648,108.852C 68.6898,110.935 69.0648,111.143 69.2731,111.185C 69.4814,111.227 69.5231,111.102 69.8148,110.373C 70.1064,109.643 70.6481,108.31 71.2106,107.143C 71.7731,105.977 72.3564,104.977 73.0231,104.06C 73.6898,103.143 74.4398,102.31 75.1898,101.477C 75.9398,100.643 76.6898,99.81 77.6064,98.9143C 78.5231,98.0184 79.6064,97.06 80.6273,96.2475C 81.6481,95.435 82.6064,94.7684 83.4189,94.2059C 84.2314,93.6434 84.8981,93.185 85.3981,92.8725C 85.8981,92.56 86.2314,92.3934 86.5231,92.2684C 86.8148,92.1434 87.0648,92.06 87.1898,91.9768 Z "/>
			<path fill="#000000" fill-opacity="1" stroke-linejoin="round" stroke="#000000" stroke-opacity="1" d="M 101.576,109.502C 101.357,109.596 101.336,109.617 99.6381,107.544C 97.9401,105.471 94.5651,101.304 92.2631,98.4398C 89.9609,95.5752 88.7318,94.0127 88.1276,93.2107C 87.5234,92.4085 87.5443,92.3669 88.0963,91.9607C 88.6484,91.5544 89.7318,90.7835 91.4193,89.7939C 93.1068,88.8044 95.3984,87.596 97.3047,86.6585C 99.2109,85.721 100.732,85.0544 102.044,84.471C 103.357,83.8877 104.461,83.3877 105.523,82.9085C 106.586,82.4294 107.607,81.971 108.482,81.6064C 109.357,81.2419 110.086,80.971 110.555,80.7835C 111.023,80.596 111.232,80.4919 111.346,80.4502C 111.461,80.4085 111.482,80.4294 111.763,80.9502C 112.044,81.471 112.586,82.4919 113.409,83.9398C 114.232,85.3877 115.336,87.2627 116.773,89.6064C 118.211,91.9502 119.982,94.7627 121.076,96.5023C 122.169,98.2419 122.586,98.9085 122.794,99.2835C 123.003,99.6585 123.003,99.7419 122.638,99.9189C 122.273,100.096 121.544,100.367 120.128,100.971C 118.711,101.575 116.607,102.513 114.846,103.315C 113.086,104.117 111.669,104.784 110.273,105.429C 108.878,106.075 107.503,106.7 106.232,107.304C 104.961,107.909 103.794,108.492 103.211,108.784C 102.628,109.075 102.628,109.075 102.419,109.159C 102.211,109.242 101.794,109.409 101.576,109.502 Z "/>
			<path fill="#000000" fill-opacity="1" stroke-linejoin="round" stroke="#000000" stroke-opacity="1" d="M 100.857,109.731C 100.919,109.721 100.961,109.742 101.628,110.492C 102.294,111.242 103.586,112.721 105.263,114.804C 106.94,116.888 109.003,119.575 110.388,121.419C 111.773,123.263 112.482,124.263 113.169,125.2C 113.857,126.138 114.523,127.013 114.982,127.565C 115.44,128.117 115.69,128.346 115.711,128.523C 115.732,128.7 115.523,128.825 115.034,129.273C 114.544,129.721 113.773,130.492 113.096,131.388C 112.419,132.284 111.836,133.304 111.357,134.377C 110.878,135.45 110.503,136.575 110.284,137.742C 110.065,138.909 110.003,140.117 109.971,140.815C 109.94,141.513 109.94,141.7 108.367,140.69C 106.794,139.679 103.648,137.471 100.076,134.94C 96.5026,132.409 92.5026,129.554 90.3881,127.95C 88.2734,126.346 88.0443,125.992 87.9506,125.596C 87.8568,125.2 87.8984,124.763 88.0651,123.992C 88.2318,123.221 88.5234,122.117 88.9713,121.169C 89.4193,120.221 90.0234,119.429 90.9713,118.284C 91.9193,117.138 93.2109,115.638 94.2838,114.596C 95.3568,113.554 96.2109,112.971 96.9922,112.398C 97.7734,111.825 98.4818,111.263 99.0756,110.836C 99.6693,110.409 100.148,110.117 100.43,109.95C 100.711,109.784 100.794,109.742 100.857,109.731 Z "/>
			<path fill="#000000" fill-opacity="1" stroke-linejoin="round" stroke="#000000" stroke-opacity="1" d="M 134.596,118.961C 134.565,118.909 134.523,118.888 133.961,119.065C 133.398,119.242 132.315,119.617 130.992,120.169C 129.669,120.721 128.107,121.45 126.805,122.086C 125.503,122.721 124.461,123.263 123.086,124.044C 121.711,124.825 120.003,125.846 118.836,126.575C 117.669,127.304 117.044,127.742 116.669,128.023C 116.294,128.304 116.169,128.429 116.523,129.013C 116.878,129.596 117.711,130.638 119.221,132.419C 120.732,134.2 122.919,136.721 125.003,139.106C 127.086,141.492 129.065,143.742 130.273,145.075C 131.482,146.409 131.919,146.825 132.534,147.19C 133.148,147.554 133.94,147.867 134.711,148.013C 135.482,148.159 136.232,148.138 137.18,147.45C 138.128,146.763 139.273,145.409 140.096,144.221C 140.919,143.034 141.419,142.013 141.815,141.242C 142.211,140.471 142.503,139.95 142.701,139.315C 142.898,138.679 143.003,137.929 142.971,137.273C 142.94,136.617 142.773,136.054 142.294,134.94C 141.815,133.825 141.023,132.159 140.096,130.138C 139.169,128.117 138.107,125.742 137.253,123.95C 136.398,122.159 135.753,120.95 135.409,120.304C 135.065,119.659 135.023,119.575 134.951,119.481C 134.878,119.388 134.773,119.284 134.711,119.19C 134.648,119.096 134.628,119.013 134.596,118.961 Z "/>
			<path fill="#000000" fill-opacity="1" stroke-linejoin="round" stroke="#000000" stroke-opacity="1" d="M 146.221,93.0023C 146.378,93.0127 146.398,93.096 146.784,94.1898C 147.169,95.2835 147.919,97.3877 148.909,100.013C 149.898,102.638 151.128,105.784 151.971,108.054C 152.815,110.325 153.273,111.721 153.43,112.419C 153.586,113.117 153.44,113.117 152.94,113.211C 152.44,113.304 151.586,113.492 150.44,113.804C 149.294,114.117 147.857,114.554 146.357,115.002C 144.857,115.45 143.294,115.909 141.888,116.315C 140.482,116.721 139.232,117.075 138.096,117.429C 136.961,117.784 135.94,118.138 135.419,118.304C 134.898,118.471 134.878,118.45 134.263,117.617C 133.648,116.784 132.44,115.138 131.055,113.096C 129.669,111.054 128.107,108.617 126.909,106.69C 125.711,104.763 124.878,103.346 124.326,102.356C 123.773,101.367 123.503,100.804 123.346,100.502C 123.19,100.2 123.148,100.159 123.388,100.034C 123.628,99.9085 124.148,99.7002 126.065,99.0752C 127.982,98.4502 131.294,97.4085 134.076,96.5439C 136.857,95.6794 139.107,94.9919 140.919,94.4502C 142.732,93.9085 144.107,93.5127 144.94,93.2835C 145.773,93.0544 146.065,92.9919 146.221,93.0023 Z "/>
			<path fill="#000000" fill-opacity="1" stroke-linejoin="round" stroke="#000000" stroke-opacity="1" d="M 159.148,69.0023C 159.044,68.9294 158.815,68.9294 157.794,69.0127C 156.773,69.096 154.961,69.2627 152.857,69.5752C 150.753,69.8877 148.357,70.346 145.992,70.8564C 143.628,71.3669 141.294,71.9294 139.919,72.2627C 138.544,72.596 138.128,72.7002 138.18,73.3252C 138.232,73.9502 138.753,75.096 139.346,76.5023C 139.94,77.9085 140.607,79.5752 141.294,81.2107C 141.982,82.846 142.69,84.4502 143.367,86.0023C 144.044,87.5544 144.69,89.0544 145.117,90.1064C 145.544,91.1585 145.753,91.7627 145.898,92.1377C 146.044,92.5127 146.128,92.6585 146.19,92.7314C 146.253,92.8044 146.294,92.8044 146.638,92.7523C 146.982,92.7002 147.628,92.596 148.961,92.3564C 150.294,92.1169 152.315,91.7419 153.992,91.3252C 155.669,90.9085 157.003,90.4502 158.19,90.096C 159.378,89.7419 160.419,89.4919 161.357,89.3252C 162.294,89.1585 163.128,89.0752 163.701,89.0232C 164.273,88.971 164.586,88.9502 164.732,88.8877C 164.878,88.8252 164.857,88.721 163.971,85.6273C 163.086,82.5335 161.336,76.4502 160.398,73.2419C 159.461,70.0335 159.336,69.7002 159.284,69.4607C 159.232,69.221 159.253,69.0752 159.148,69.0023 Z "/>
			<path fill="#000000" fill-opacity="1" stroke-linejoin="round" stroke="#000000" stroke-opacity="1" d="M 169.867,110.284C 169.69,110.221 169.419,110.242 168.336,110.367C 167.253,110.492 165.357,110.721 163.576,111.023C 161.794,111.325 160.128,111.7 158.701,112.013C 157.273,112.325 156.086,112.575 155.326,112.763C 154.565,112.95 154.232,113.075 154.086,113.252C 153.94,113.429 153.982,113.659 154.409,114.856C 154.836,116.054 155.648,118.221 156.69,120.981C 157.732,123.742 159.003,127.096 159.867,129.315C 160.732,131.534 161.19,132.617 161.544,133.419C 161.898,134.221 162.148,134.742 162.857,134.961C 163.565,135.179 164.732,135.096 166.065,135.044C 167.398,134.992 168.898,134.971 170.336,134.961C 171.773,134.95 173.148,134.95 174.242,134.992C 175.336,135.034 176.148,135.117 176.555,135.159L 176.961,135.159C 176.961,135.117 176.961,135.034 175.846,130.981C 174.732,126.929 172.503,118.909 171.378,114.856C 170.253,110.804 170.232,110.721 170.18,110.606C 170.128,110.492 170.044,110.346 169.867,110.284 Z "/>
		</g>
		<path fill="#FFFFFF" fill-opacity="1" stroke-width="4" stroke-linejoin="round" stroke="#000000" stroke-opacity="1" d="M 188.628,177.876C 180.878,146.391 167.961,94.0305 161.586,67.8499C 155.211,41.6693 155.378,41.6693 156.461,41.5859C 157.544,41.5027 159.544,41.3359 160.544,41.3359C 161.544,41.3359 161.544,41.5027 169.461,72.8359C 177.378,104.169 193.211,166.669 201.128,197.919C 209.044,229.169 209.044,229.169 207.951,229.362C 206.857,229.555 204.669,229.94 203.419,230.175C 202.169,230.409 201.857,230.492 200.409,225.23C 198.961,219.968 196.378,209.36 188.628,177.876 Z "/>
		<path fill="#000000" fill-opacity="1" stroke-width="0.2" stroke-linejoin="round" d="M 156.544,28.3153C 151.297,28.3153 147.044,31.8319 147.044,36.1694C 147.044,40.507 151.297,44.0234 156.544,44.0234C 161.791,44.0234 166.044,40.507 166.044,36.1694C 166.044,31.8319 161.791,28.3153 156.544,28.3153 Z "/>
		<path fill="#FFFFFF" fill-opacity="1" stroke-width="0.2" stroke-linejoin="round" d="M 158.024,30.2318C 154.468,30.2318 151.586,32.5544 151.586,35.4193C 151.586,38.2841 154.468,40.6068 158.024,40.6068C 161.579,40.6068 164.461,38.2841 164.461,35.4193C 164.461,32.5544 161.579,30.2318 158.024,30.2318 Z "/>
	</g>
</svg>
