<?xml version="1.0" encoding="utf-8"?>
<!DOCTYPE svg PUBLIC "-//W3C//DTD SVG 1.1//EN" "http://www.w3.org/Graphics/SVG/1.1/DTD/svg11.dtd">
<svg xmlns="http://www.w3.org/2000/svg" xmlns:xlink="http://www.w3.org/1999/xlink" version="1.1" baseProfile="full" width="258" height="258" viewBox="0 0 258.00 258.00" enable-background="new 0 0 258.00 258.00" xml:space="preserve">
	<linearGradient id="SVGID_Fill1_" gradientUnits="objectBoundingBox" x1="0.5" y1="1.08111" x2="1.66222" y2="1.08111" gradientTransform="rotate(-90.000000 0.500000 1.081108)">
		<stop offset="0" stop-color="#ABC4AB" stop-opacity="1"/>
		<stop offset="0.771552" stop-color="#D5E1D5" stop-opacity="1"/>
		<stop offset="1" stop-color="#FFFFFF" stop-opacity="1"/>
	</linearGradient>
	<path fill="url(#SVGID_Fill1_)" stroke-width="8" stroke-linecap="square" stroke-linejoin="bevel" stroke="#000000" stroke-opacity="1" d="M 44,4.00006L 214,4.00006C 236.092,4.00006 254,21.9086 254,43.9999L 254,214C 254,236.092 236.092,254 214,254L 44,254C 21.9086,254 4,236.092 4,214L 4,43.9999C 4,21.9086 21.9086,4.00006 44,4.00006 Z "/>
	<radialGradient id="SVGID_Fill2_" cx="130.959" cy="204.856" r="105.055" gradientUnits="userSpaceOnUse" gradientTransform="rotate(180.000000 130.959473 204.856018)">
		<stop offset="0" stop-color="#A8A162" stop-opacity="1"/>
		<stop offset="1" stop-color="#000000" stop-opacity="1"/>
	</radialGradient>
	<filter id="Filter_GaussianBlur1_" filterUnits="userSpaceOnUse">
		<feGaussianBlur stdDeviation="7.937"/>
	</filter>
	<path fill="url(#SVGID_Fill2_)" stroke-width="0.2" stroke-linejoin="round" filter="url(#Filter_GaussianBlur1_)" d="M 51.2236,204.122C 51.2236,215.128 86.9226,224.376 130.96,224.783L 130.96,224.783C 174.997,225.188 210.697,216.595 210.697,205.591L 210.697,205.591C 210.697,194.586 174.997,185.337 130.96,184.931L 130.96,184.931C 129.961,184.923 128.965,184.918 127.974,184.918L 127.974,184.918C 85.3195,184.918 51.2236,193.367 51.2236,204.122 Z "/>
	<g>
		<radialGradient id="SVGID_Fill3_" cx="149.517" cy="89.4859" r="139.918" gradientUnits="userSpaceOnUse" gradientTransform="rotate(236.825409 149.516602 89.485901)">
			<stop offset="0" stop-color="#FFFFD6" stop-opacity="1"/>
			<stop offset="0.376744" stop-color="#FFFD31" stop-opacity="1"/>
			<stop offset="0.740593" stop-color="#FFC817" stop-opacity="1"/>
			<stop offset="1" stop-color="#F6A700" stop-opacity="1"/>
		</radialGradient>
		<path fill="url(#SVGID_Fill3_)" stroke-width="0.2" stroke-linejoin="round" d="M 28.5042,119.507C 28.5042,174.267 73.27,218.66 128.493,218.66L 128.493,218.66C 183.716,218.66 228.481,174.267 228.481,119.507L 228.481,119.507C 228.481,64.746 183.716,20.3543 128.493,20.3543L 128.493,20.3543C 73.27,20.3543 28.5042,64.746 28.5042,119.507 Z "/>
		<g>
			<radialGradient id="SVGID_Fill4_" cx="167.286" cy="54.7403" r="31.8201" gradientUnits="userSpaceOnUse" gradientTransform="rotate(182.070908 167.285889 54.740295)">
				<stop offset="0" stop-color="#FFFFFB" stop-opacity="1"/>
				<stop offset="0.755398" stop-color="#FBFBFB" stop-opacity="1"/>
				<stop offset="1" stop-color="#B3B3B3" stop-opacity="1"/>
			</radialGradient>
			<path fill="url(#SVGID_Fill4_)" stroke-width="0.2" stroke-linejoin="round" d="M 143.965,63.1736C 143.965,67.5873 144.554,71.8111 145.619,75.6885L 145.619,75.6885C 161.583,76.3287 175.892,79.9056 186.459,85.3753L 186.459,85.3753C 190.021,79.3878 192.184,71.6379 192.184,63.1736L 192.184,63.1736C 192.184,44.2007 181.023,29.4374 165.125,29.4374L 165.125,29.4374C 155.085,29.4374 143.965,44.2007 143.965,63.1736 Z "/>
			<radialGradient id="SVGID_Fill5_" cx="94.4182" cy="59.8535" r="30.4337" gradientUnits="userSpaceOnUse" gradientTransform="rotate(175.394791 94.418213 59.853455)">
				<stop offset="0" stop-color="#FFFFFB" stop-opacity="1"/>
				<stop offset="0.755398" stop-color="#FBFBFB" stop-opacity="1"/>
				<stop offset="1" stop-color="#B3B3B3" stop-opacity="1"/>
			</radialGradient>
			<path fill="url(#SVGID_Fill5_)" stroke-width="0.2" stroke-linejoin="round" d="M 70.3077,65.9268C 70.3077,74.3912 72.4714,82.1411 76.0327,88.1286L 76.0327,88.1286C 86.6008,82.659 100.909,79.082 116.873,78.4418L 116.873,78.4418C 117.937,74.5645 118.526,70.3406 118.526,65.9268L 118.526,65.9268C 118.526,46.954 109.651,34.2198 101.534,32.1909L 101.534,32.1909C 99.9456,31.7943 98.3757,31.605 96.8379,31.605L 96.8379,31.605C 82.1775,31.6035 70.3077,48.7547 70.3077,65.9268 Z "/>
			<path fill="#000000" fill-opacity="1" stroke-width="0.2" stroke-linejoin="round" d="M 174.926,77.5391C 174.926,69.4747 171.217,62.9374 166.642,62.9374C 162.104,62.9374 158.417,69.373 158.36,77.3505C 164.183,78.2001 169.667,79.4547 174.684,81.0518C 174.842,79.9266 174.926,78.7501 174.926,77.5391 Z "/>
			<radialGradient id="SVGID_Fill6_" cx="95.2661" cy="68.085" r="17.8884" gradientUnits="userSpaceOnUse">
				<stop offset="0" stop-color="#B88000" stop-opacity="1"/>
				<stop offset="1" stop-color="#4F2F00" stop-opacity="1"/>
			</radialGradient>
			<path fill="url(#SVGID_Fill6_)" stroke-width="0.2" stroke-linejoin="round" d="M 88.6382,51.1895C 87.1487,52.3636 85.786,53.9205 84.5938,55.7857C 81.4677,60.6766 79.5123,67.6884 79.5123,75.4816C 79.5123,79.2061 79.9595,82.7524 80.7675,85.9738C 82.9371,85.0543 85.2278,84.2064 87.6254,83.4366C 87.1731,81.6331 86.9219,79.6378 86.9219,77.5391C 86.9219,69.4747 90.6311,62.9374 95.2054,62.9374C 99.7798,62.9374 103.488,69.4747 103.488,77.5391C 103.488,78.3023 103.455,79.0518 103.391,79.7833C 105.833,79.4101 108.338,79.1085 110.894,78.8829C 110.977,77.769 111.02,76.6337 111.02,75.4814C 111.02,65.92 108.086,57.5211 103.647,52.7851C 102.592,52.1625 101.501,51.6453 100.38,51.241C 98.4818,50.5571 96.4956,50.1966 94.443,50.1966C 92.4458,50.1966 90.4939,50.5379 88.6382,51.1895 Z "/>
			<radialGradient id="SVGID_Fill7_" cx="167.252" cy="67.0267" r="16.8301" gradientUnits="userSpaceOnUse">
				<stop offset="0" stop-color="#B88000" stop-opacity="1"/>
				<stop offset="1" stop-color="#4F2F00" stop-opacity="1"/>
			</radialGradient>
			<path fill="url(#SVGID_Fill7_)" stroke-width="0.2" stroke-linejoin="round" d="M 158.87,52.7846C 154.431,57.5211 151.498,65.9195 151.498,75.4816C 151.498,75.8409 151.502,76.1987 151.51,76.5545C 153.839,76.7579 156.125,77.0242 158.36,77.3505C 158.417,69.373 162.104,62.9374 166.642,62.9374C 171.217,62.9374 174.926,69.4747 174.926,77.5391C 174.926,78.7501 174.842,79.9266 174.684,81.0518C 177.332,81.8943 179.85,82.8325 182.22,83.8566C 182.73,81.2222 183.006,78.4069 183.006,75.4816C 183.006,64.7162 179.274,55.4418 173.879,51.1898C 172.024,50.5379 170.072,50.1966 168.075,50.1966C 164.808,50.1966 161.711,51.1094 158.87,52.7846 Z "/>
			<path fill="#000000" fill-opacity="1" stroke-width="0.2" stroke-linejoin="round" d="M 103.391,79.7833C 103.455,79.0518 103.488,78.3023 103.488,77.5391C 103.488,69.4747 99.7798,62.9374 95.2054,62.9374C 90.6311,62.9374 86.9219,69.4747 86.9219,77.5391C 86.9219,79.6378 87.1731,81.6331 87.6254,83.4366C 92.4796,81.8785 97.7727,80.6419 103.391,79.7833 Z "/>
			<linearGradient id="SVGID_Fill8_" gradientUnits="objectBoundingBox" x1="0.625434" y1="0.0146943" x2="1.6832" y2="0.0146943" gradientTransform="rotate(95.144234 0.625434 0.014694)">
				<stop offset="0" stop-color="#FFFFFF" stop-opacity="0.388235"/>
				<stop offset="1" stop-color="#000000" stop-opacity="0.388235"/>
			</linearGradient>
			<path fill="url(#SVGID_Fill8_)" stroke-width="0.2" stroke-linejoin="round" d="M 106.706,66.6951C 106.706,73.7427 103.335,79.4551 99.1755,79.4551C 95.0161,79.4551 91.645,73.7427 91.645,66.6951C 91.645,59.648 95.0161,53.935 99.1755,53.935C 103.335,53.935 106.706,59.648 106.706,66.6951 Z "/>
			<linearGradient id="SVGID_Fill9_" gradientUnits="objectBoundingBox" x1="0.61336" y1="0.0483495" x2="1.57975" y2="0.0483495" gradientTransform="rotate(94.996574 0.613360 0.048350)">
				<stop offset="0" stop-color="#FFFFFF" stop-opacity="0.388235"/>
				<stop offset="1" stop-color="#000000" stop-opacity="0.388235"/>
			</linearGradient>
			<path fill="url(#SVGID_Fill9_)" stroke-width="0.2" stroke-linejoin="round" d="M 162.924,67.1133C 162.924,74.1612 166.295,79.8735 170.455,79.8735C 174.613,79.8735 177.985,74.1612 177.985,67.1133C 177.985,60.0665 174.613,54.3533 170.455,54.3533C 166.295,54.3533 162.924,60.0665 162.924,67.1133 Z "/>
			<radialGradient id="SVGID_Fill10_" cx="105.7" cy="65.062" r="13.8209" gradientUnits="userSpaceOnUse">
				<stop offset="0" stop-color="#B88000" stop-opacity="1"/>
				<stop offset="1" stop-color="#4F2F00" stop-opacity="1"/>
			</radialGradient>
			<path fill="url(#SVGID_Fill10_)" stroke-width="0.2" stroke-linejoin="round" d="M 111.021,75.4816C 111.021,65.9195 108.086,57.5211 103.647,52.7846C 102.592,52.1622 101.501,51.6451 100.38,51.241C 101.501,51.6453 102.592,52.1625 103.647,52.7851C 108.086,57.5211 111.02,65.92 111.02,75.4814C 111.02,76.6337 110.977,77.769 110.895,78.8826C 110.978,77.769 111.021,76.6339 111.021,75.4816 Z "/>
			<radialGradient id="SVGID_Fill11_" cx="86.616" cy="53.4876" r="2.29822" gradientUnits="userSpaceOnUse">
				<stop offset="0" stop-color="#B88000" stop-opacity="1"/>
				<stop offset="1" stop-color="#4F2F00" stop-opacity="1"/>
			</radialGradient>
			<path fill="url(#SVGID_Fill11_)" stroke-width="0.2" stroke-linejoin="round" d="M 88.6378,51.1898C 87.1484,52.3637 85.786,53.9205 84.5938,55.7857C 85.786,53.9205 87.1487,52.3636 88.6378,51.1898 Z "/>
			<radialGradient id="SVGID_Fill12_" cx="94.5089" cy="50.7187" r="5.87061" gradientUnits="userSpaceOnUse">
				<stop offset="0" stop-color="#FFFFFB" stop-opacity="1"/>
				<stop offset="0.755398" stop-color="#FBFBFB" stop-opacity="1"/>
				<stop offset="1" stop-color="#B3B3B3" stop-opacity="1"/>
			</radialGradient>
			<path fill="url(#SVGID_Fill12_)" stroke-width="0.2" stroke-linejoin="round" d="M 88.6382,51.1895C 90.4939,50.5379 92.4458,50.1966 94.443,50.1966C 96.4956,50.1966 98.4818,50.5571 100.38,51.241C 98.4818,50.5569 96.4956,50.1962 94.4429,50.1962C 92.4456,50.1962 90.4934,50.5375 88.6382,51.1895 Z "/>
			<radialGradient id="SVGID_Fill13_" cx="82.053" cy="70.8797" r="15.094" gradientUnits="userSpaceOnUse">
				<stop offset="0" stop-color="#B88000" stop-opacity="1"/>
				<stop offset="1" stop-color="#4F2F00" stop-opacity="1"/>
			</radialGradient>
			<path fill="url(#SVGID_Fill13_)" stroke-width="0.2" stroke-linejoin="round" d="M 80.7675,85.9738C 79.9595,82.7524 79.5123,79.2061 79.5123,75.4816C 79.5123,67.6884 81.4677,60.6766 84.5938,55.7857C 81.4674,60.6767 79.5122,67.6883 79.5122,75.4814C 79.5122,79.2061 79.9592,82.7524 80.7675,85.9738 Z "/>
		</g>
		<radialGradient id="SVGID_Fill14_" cx="159.382" cy="78.5115" r="139.91" gradientUnits="userSpaceOnUse" gradientTransform="rotate(236.779953 159.381592 78.511536)">
			<stop offset="0" stop-color="#FFFFD6" stop-opacity="1"/>
			<stop offset="0.376744" stop-color="#FFFD31" stop-opacity="1"/>
			<stop offset="0.740593" stop-color="#FFC817" stop-opacity="1"/>
			<stop offset="1" stop-color="#F6A700" stop-opacity="1"/>
		</radialGradient>
		<path fill="url(#SVGID_Fill14_)" stroke-width="0.2" stroke-linejoin="round" d="M 128.516,20.9539C 73.2927,20.9539 28.5269,65.3456 28.5269,120.106C 28.5269,174.867 73.2927,219.26 128.516,219.26C 183.738,219.26 228.504,174.867 228.504,120.106C 228.504,65.3456 183.738,20.9539 128.516,20.9539 Z M 57.6538,91.0889C 57.6538,69.1805 88.2125,51.4195 125.907,51.4195C 163.601,51.4195 194.16,69.1805 194.16,91.0889C 194.16,112.998 163.602,130.758 125.907,130.758C 88.2118,130.758 57.6538,112.998 57.6538,91.0889 Z "/>
		<path fill="#643D00" fill-opacity="1" stroke-width="7.224" stroke-linecap="round" stroke-linejoin="round" stroke="#653D00" stroke-opacity="1" d="M 113.371,32.0748C 113.371,32.0748 74.1268,41.5323 58.8406,74.1973C 64.2651,35.7363 113.371,32.0748 113.371,32.0748 Z "/>
		<path fill="#643D00" fill-opacity="1" stroke-width="7.224" stroke-linecap="round" stroke-linejoin="round" stroke="#653D00" stroke-opacity="1" d="M 152.244,36.1321C 152.244,36.1321 187.561,44.998 201.664,78.2547C 191.211,40.6815 152.244,36.1321 152.244,36.1321 Z "/>
		<radialGradient id="SVGID_Fill15_" cx="129.443" cy="154.98" r="87.5694" gradientUnits="userSpaceOnUse" gradientTransform="rotate(77.728630 129.442993 154.979553)">
			<stop offset="0" stop-color="#9E1F01" stop-opacity="1"/>
			<stop offset="0.943965" stop-color="#180906" stop-opacity="1"/>
		</radialGradient>
		<path fill="url(#SVGID_Fill15_)" stroke-width="4" stroke-linejoin="round" stroke="#D98004" stroke-opacity="1" d="M 69.1808,105.908C 67.8262,111.201 68.4236,125.375 69.6587,135.127C 70.8937,144.878 72.7661,150.208 75.3711,155.121C 77.9761,160.035 81.3136,164.532 87.1541,168.338C 92.9945,172.143 101.338,175.257 111.351,176.814C 121.363,178.371 133.044,178.371 143.265,176.295C 153.486,174.219 162.246,170.068 169.547,164.705C 176.848,159.343 182.688,152.769 186.443,146.369C 190.198,139.969 191.866,133.742 192.415,126.974C 192.964,120.206 192.392,112.897 191.455,108.529C 190.518,104.162 189.214,102.734 186.791,102.929C 184.369,103.124 180.827,104.94 178.353,106.432C 175.878,107.924 174.47,109.092 167.234,110.617C 159.999,112.141 146.936,114.022 138.251,114.952C 129.566,115.881 125.26,115.86 120.186,115.935C 115.112,116.011 109.272,116.184 101.971,114.843C 94.6704,113.503 85.9097,110.648 79.8759,107.427C 73.842,104.205 70.5354,100.616 69.1808,105.908 Z "/>
		<radialGradient id="SVGID_Fill16_" cx="117.689" cy="164.439" r="30.8634" gradientUnits="userSpaceOnUse">
			<stop offset="0" stop-color="#F1EBEA" stop-opacity="1"/>
			<stop offset="0.0818966" stop-color="#F77F7F" stop-opacity="1"/>
			<stop offset="0.280172" stop-color="#FD1414" stop-opacity="1"/>
			<stop offset="0.521552" stop-color="#FF0000" stop-opacity="1"/>
			<stop offset="0.722198" stop-color="#BA0C01" stop-opacity="1"/>
			<stop offset="0.943965" stop-color="#751803" stop-opacity="1"/>
		</radialGradient>
		<path fill="url(#SVGID_Fill16_)" stroke-width="0.2" stroke-linejoin="round" d="M 126.558,146.326C 137.442,146.326 146.266,152.814 146.266,160.817C 146.266,168.82 137.442,175.308 126.558,175.308C 115.673,175.308 106.85,168.82 106.85,160.817C 106.85,152.814 115.673,146.326 126.558,146.326 Z "/>
		<radialGradient id="SVGID_Fill17_" cx="130.909" cy="135.221" r="68.4973" gradientUnits="userSpaceOnUse">
			<stop offset="0" stop-color="#F8F6F2" stop-opacity="1"/>
			<stop offset="0.646512" stop-color="#F0EEEA" stop-opacity="1"/>
			<stop offset="1" stop-color="#999A9D" stop-opacity="1"/>
		</radialGradient>
		<path fill="url(#SVGID_Fill17_)" stroke-width="0.2" stroke-linejoin="round" d="M 72.054,107.55C 72.7709,111.702 75.5721,121.133 83.7426,129.829C 91.9128,138.525 105.452,146.485 117.081,150.175C 128.709,153.866 138.426,153.286 148.852,148.649C 159.277,144.012 170.411,135.317 177.872,126.28C 185.333,117.242 189.121,107.86 187.799,105.211C 186.477,102.563 180.045,106.646 170.653,109.839C 161.261,113.031 148.909,115.332 136.357,116.555C 123.805,117.778 111.052,117.923 100.638,115.925C 90.224,113.928 82.1475,109.788 77.4258,107.156C 72.704,104.523 71.3369,103.397 72.054,107.55 Z "/>
		<path fill="#D98004" fill-opacity="1" stroke-width="3" stroke-linecap="round" stroke-linejoin="round" stroke="#D98004" stroke-opacity="1" d="M 83.6156,96.4915C 83.6156,96.4915 66.8091,99.6429 60.2627,110.528C 62.5858,97.7116 83.6156,96.4915 83.6156,96.4915 Z "/>
		<path fill="#D98004" fill-opacity="1" stroke-width="3" stroke-linecap="round" stroke-linejoin="round" stroke="#D98004" stroke-opacity="1" d="M 200.814,113.322C 200.814,113.322 191.931,98.7105 179.436,96.4295C 192.247,94.0773 200.814,113.322 200.814,113.322 Z "/>
	</g>
</svg>
