<?xml version="1.0" encoding="utf-8"?>
<!DOCTYPE svg PUBLIC "-//W3C//DTD SVG 1.1//EN" "http://www.w3.org/Graphics/SVG/1.1/DTD/svg11.dtd">
<svg xmlns="http://www.w3.org/2000/svg" xmlns:xlink="http://www.w3.org/1999/xlink" version="1.1" baseProfile="full" width="37.8665" height="56" viewBox="0 0 37.87 56.00" enable-background="new 0 0 37.87 56.00" xml:space="preserve">
	<g>
		<path fill="#0025C1" fill-opacity="1" stroke-linejoin="round" stroke="#000000" stroke-opacity="1" d="M 17.5845,43.9606C 20.7297,43.9606 23.2793,46.5436 23.2793,49.7303C 23.2793,52.9169 20.7297,55.4999 17.5845,55.4999C 14.4393,55.4999 11.8896,52.9169 11.8896,49.7303C 11.8896,46.5436 14.4393,43.9606 17.5845,43.9606 Z "/>
		<path fill="#0025C1" fill-opacity="1" stroke-linejoin="round" stroke="#000000" stroke-opacity="1" d="M 9.64172,25.2274L 4.54636,22.9796L 1.84875,19.6825L 0.649872,16.6852L 0.5,12.7889L 1.69888,9.64172L 3.49728,6.79431L 5.44553,4.84607L 8.74252,2.59802L 11.2902,1.54895L 14.5872,0.949585L 18.0341,0.799683L 21.6308,0.499878L 25.0776,0.949585L 27.3256,1.99866L 30.3229,3.49719L 33.0204,5.44543L 34.9687,7.54358L 37.0668,11.1403L 37.3665,14.4374L 36.9169,18.6334L 35.5681,20.8815L 33.3201,23.2792L 30.6226,26.2765L 27.0259,28.8243L 23.4291,31.8214L 21.4809,35.2684L 20.4319,37.6661L 20.5134,38.7252L 20.3382,39.6705L 19.4765,40.1202L 16.2357,40.0641L 15.0368,39.1649L 15.0368,36.4674L 16.985,33.3202L 19.5327,29.5736L 22.9796,25.6771L 24.3283,23.579L 25.5273,20.1322L 25.5273,16.985L 24.7779,13.3883L 22.9796,11.59L 19.9823,10.2411L 17.2847,9.94153L 15.0368,10.0912L 12.3392,10.9904L 10.5409,12.639L 10.5409,14.5873L 11.1403,16.5355L 13.3883,18.0341L 14.8869,18.9332L 15.3365,20.4318L 15.0368,22.0804L 14.1376,23.2792L 13.0885,24.3282L 11.1403,24.778L 9.64172,25.2274 Z "/>
		<linearGradient id="SVGID_Fill1_" gradientUnits="objectBoundingBox" x1="0.992412" y1="0.442435" x2="1.98393" y2="0.442435" gradientTransform="rotate(165.104401 0.992412 0.442435)">
			<stop offset="0.00925926" stop-color="#FFFFFF" stop-opacity="1"/>
			<stop offset="1" stop-color="#FCFCFF" stop-opacity="0"/>
		</linearGradient>
		<path fill="url(#SVGID_Fill1_)" stroke-width="0.2" stroke-linejoin="round" d="M 23.2294,2.44812L 26.6263,4.74597L 29.4237,6.94421L 31.9214,10.0414L 33.0204,12.8387L 33.4201,16.5355L 32.8206,20.1322L 31.8215,21.8307L 33.2095,22.2941L 36.0177,18.5336L 36.5173,15.6364L 36.4174,11.7399L 34.2585,8.20691L 32.9205,6.64441L 32.421,5.94495L 31.0223,5.04578L 29.0241,3.54724L 27.0259,2.64807L 25.2275,2.24841L 23.2294,2.44812 Z "/>
		<linearGradient id="SVGID_Fill2_" gradientUnits="objectBoundingBox" x1="0.99241" y1="0.440352" x2="1.98442" y2="0.440352" gradientTransform="rotate(165.604156 0.992410 0.440352)">
			<stop offset="0.00925926" stop-color="#FFFFFF" stop-opacity="1"/>
			<stop offset="1" stop-color="#FFFFFF" stop-opacity="0"/>
		</linearGradient>
		<path fill="url(#SVGID_Fill2_)" stroke-width="0.2" stroke-linejoin="round" d="M 10.2911,16.2606L 9.40442,15.6488L 8.69254,17.3597L 9.89145,18.6586L 11.0904,20.0573L 11.3901,21.6559L 11.2902,23.4542L 11.1278,24.066L 12.4517,23.8412L 13.5507,23.2169L 14.3999,22.4176L 14.3749,21.3685L 14.4748,20.3444L 14.175,19.4952L 12.7763,18.5961L 11.7522,17.9467L 10.8531,17.2972"/>
		<linearGradient id="SVGID_Fill3_" gradientUnits="objectBoundingBox" x1="1.012" y1="0.456829" x2="2.01998" y2="0.456829" gradientTransform="rotate(160.124969 1.012000 0.456829)">
			<stop offset="0.00925926" stop-color="#FFFFFF" stop-opacity="1"/>
			<stop offset="1" stop-color="#FFFFFF" stop-opacity="0"/>
		</linearGradient>
		<path fill="url(#SVGID_Fill3_)" stroke-width="0.2" stroke-linejoin="round" d="M 18.0341,44.8097L 19.1331,46.1085L 19.8325,47.5072L 19.7325,49.5055L 19.3329,51.5035L 18.6335,53.202L 18.8333,54.1012L 19.8404,54.0714L 20.9893,53.3971L 21.9135,52.1481L 22.413,50.6744C 22.413,50.6744 22.6555,49.5619 22.53,49.1058C 22.4207,48.7086 22.2302,47.5072 22.2302,47.5072L 21.8306,46.3085L 20.8315,45.4093L 19.9323,44.8097L 18.0341,44.8097 Z "/>
	</g>
</svg>
