<?xml version="1.0" encoding="utf-8"?>
<!DOCTYPE svg PUBLIC "-//W3C//DTD SVG 1.1//EN" "http://www.w3.org/Graphics/SVG/1.1/DTD/svg11.dtd">
<svg xmlns="http://www.w3.org/2000/svg" xmlns:xlink="http://www.w3.org/1999/xlink" version="1.1" baseProfile="full" width="47.5004" height="48.9744" viewBox="0 0 47.50 48.97" enable-background="new 0 0 47.50 48.97" xml:space="preserve">
	<linearGradient id="SVGID_Fill1_" gradientUnits="objectBoundingBox" x1="0.48889" y1="0.968453" x2="1.48431" y2="0.968453" gradientTransform="rotate(-94.902473 0.488890 0.968453)">
		<stop offset="0" stop-color="#07620C" stop-opacity="1"/>
		<stop offset="1" stop-color="#389D3E" stop-opacity="1"/>
	</linearGradient>
	<path fill="url(#SVGID_Fill1_)" stroke-linejoin="round" stroke="#00C800" stroke-opacity="1" d="M 22.1421,9.21033L 22.0751,6.32922L 23.1136,3.81653L 25.8943,1.5719L 29.6465,0.500122L 32.3267,0.969116L 34.6047,2.04114L 36.6149,3.38123L 38.625,5.32434L 39.362,7.87024L 38.692,10.1486L 37.0839,11.4215L 34.8058,11.8905L 33.8007,12.7616L 33.5997,15.1737L 35.8109,17.3177L 47.0004,22.2091L 44.4655,27.3795L 42.433,26.5531L 40.7356,25.6151L 39.0828,24.3644L 38.1002,23.1136L 36.1362,22.2936L 34.4372,22.0863L 32.7845,22.8903L 31.2211,24.5878L 29.814,26.7543L 29.1217,28.6525L 29.1887,30.6849L 29.747,32.4493L 30.6404,33.9235L 32.3825,35.3529L 34.1246,35.4423L 36.09,35.3082L 39.7305,35.2413L 39.2949,38.1908L 34.3368,48.4745L 21.4178,42.2382L 22.2218,37.347L 25.0233,35.9447L 25.8273,33.8676L 25.6263,30.9865L 24.6212,28.8424L 22.3431,27.1002L 19.663,26.1622L 16.7818,26.2963L 14.9057,26.8324L 12.5606,28.2394L 11.3546,29.4454L 11.0865,31.0536L 11.4215,32.9965L 12.4266,35.0067L 11.7566,36.4808L 8.47339,36.9498L 0.5,33.1976L 11.0195,7.46838L 21.5391,12.1586L 22.5441,11.8905L 22.1421,9.21033 Z "/>
</svg>
