<?xml version="1.0" encoding="utf-8"?>
<!DOCTYPE svg PUBLIC "-//W3C//DTD SVG 1.1//EN" "http://www.w3.org/Graphics/SVG/1.1/DTD/svg11.dtd">
<svg xmlns="http://www.w3.org/2000/svg" xmlns:xlink="http://www.w3.org/1999/xlink" version="1.1" baseProfile="full" width="60" height="54.1835" viewBox="0 0 60.00 54.18" enable-background="new 0 0 60.00 54.18" xml:space="preserve">
	<g>
		<g>
			<path fill="#7A1111" fill-opacity="1" stroke-width="0.2" stroke-linejoin="round" d="M 0.576164,11.8564C 0.107674,10.4832 -0.0538483,9.20166 -1.52588e-005,7.58618C 0.0538406,5.9707 0.323082,4.02124 1.5239,2.56201C 2.72476,1.10254 4.85721,0.133301 6.67327,0C 8.48937,-0.133301 9.98906,0.56958 11.0217,1.88208C 12.0542,3.1947 12.6196,5.11719 13.0397,6.75684C 13.4597,8.39648 13.7343,9.75366 14.0897,11.0621C 14.4451,12.3706 14.8813,13.6307 15.4063,14.9231C 15.9314,16.2156 16.5453,17.5403 17.1228,18.7047C 17.7003,19.8691 18.2416,20.8735 18.5121,21.5264C 18.7827,22.1793 18.7827,22.481 17.7057,23.3855C 16.6288,24.2903 14.4748,25.7981 13.2524,26.6111C 12.03,27.4243 11.7392,27.5427 11.2061,27.322C 10.673,27.1013 9.89753,26.5413 8.8367,25.2327C 7.77588,23.9241 6.42963,21.8669 5.34188,20.23C 4.25411,18.593 3.42482,17.376 2.62244,16.0352C 1.82009,14.6943 1.04465,13.2295 0.576164,11.8564 Z "/>
			<path fill="#7A1111" fill-opacity="1" stroke-width="0.2" stroke-linejoin="round" d="M 14.3401,29.1636C 15.4279,28.2966 17.4526,26.6704 18.5781,25.8843C 19.7036,25.098 19.9297,25.1519 20.2205,25.4104C 20.5113,25.6687 20.8667,26.1318 21.4214,26.8696C 21.976,27.6074 22.7299,28.6199 23.1015,29.7021C 23.4731,30.7844 23.4623,31.9369 23.0719,32.8873C 22.6815,33.8378 21.9114,34.5863 20.8398,34.9686C 19.7682,35.3508 18.395,35.3672 17.4984,35.1328C 16.6018,34.8987 16.1818,34.4141 15.6002,33.7031C 15.0187,32.9924 14.2755,32.0554 13.807,31.4414C 13.3385,30.8276 13.1447,30.5369 13.1231,30.3376C 13.1016,30.1384 13.2524,30.0305 14.3401,29.1636 Z "/>
		</g>
		<g>
			<path fill="#7A1111" fill-opacity="1" stroke-width="0.2" stroke-linejoin="round" d="M 56.8592,23.446C 56.3044,22.1055 55.5796,21.0363 54.4725,19.8584C 53.3654,18.6807 51.8762,17.3945 50.0108,17.0913C 48.1454,16.7881 45.9038,17.468 44.4519,18.5671C 42.9999,19.666 42.3375,21.1841 42.4287,22.8516C 42.5198,24.519 43.3644,26.3362 44.1316,27.8451C 44.8988,29.354 45.5885,30.5544 46.1855,31.772C 46.7825,32.9893 47.2869,34.2236 47.7459,35.541C 48.2049,36.8583 48.6184,38.2585 48.9535,39.5144C 49.2886,40.7703 49.5452,41.8818 49.7731,42.551C 50.0009,43.22 50.2001,43.4465 51.6063,43.4148C 53.0124,43.3833 55.6257,43.0935 57.0806,42.8971C 58.5356,42.7007 58.8322,42.5977 59.0868,42.0798C 59.3415,41.562 59.5541,40.6294 59.4868,38.9463C 59.4196,37.2632 59.0725,34.8293 58.8086,32.8816C 58.5447,30.9338 58.364,29.4724 58.0814,27.9355C 57.7987,26.3987 57.414,24.7866 56.8592,23.446 Z "/>
			<path fill="#7A1111" fill-opacity="1" stroke-width="0.2" stroke-linejoin="round" d="M 57.9491,45.5323C 56.5597,45.5994 53.9653,45.7148 52.601,45.8674C 51.2366,46.02 51.1023,46.2098 51.0546,46.5959C 51.0068,46.9821 51.0457,47.5646 51.1162,48.4849C 51.1867,49.4052 51.2889,50.6632 51.7245,51.7214C 52.1601,52.7797 52.929,53.6381 53.8498,54.0941C 54.7705,54.5502 55.8431,54.6039 56.9003,54.1836C 57.9576,53.7632 58.9996,52.8687 59.5183,52.1007C 60.037,51.3329 60.0325,50.6915 60,49.7737C 59.9674,48.8558 59.9069,47.6615 59.8535,46.8911C 59.8,46.1207 59.7536,45.7744 59.6382,45.6105C 59.5229,45.4467 59.3385,45.4653 57.9491,45.5323 Z "/>
		</g>
	</g>
</svg>
