<?xml version="1.0" encoding="utf-8"?>
<!DOCTYPE svg PUBLIC "-//W3C//DTD SVG 1.1//EN" "http://www.w3.org/Graphics/SVG/1.1/DTD/svg11.dtd">
<svg xmlns="http://www.w3.org/2000/svg" xmlns:xlink="http://www.w3.org/1999/xlink" version="1.1" baseProfile="full" width="73" height="64.3477" viewBox="0 0 73.00 64.35" enable-background="new 0 0 73.00 64.35" xml:space="preserve">
	<g>
		<linearGradient id="SVGID_Fill1_" gradientUnits="objectBoundingBox" x1="0" y1="0.500005" x2="1" y2="0.500005">
			<stop offset="0.0186047" stop-color="#E3D191" stop-opacity="1"/>
			<stop offset="0.55814" stop-color="#E2AF00" stop-opacity="1"/>
			<stop offset="0.787252" stop-color="#AB7800" stop-opacity="1"/>
			<stop offset="1" stop-color="#744100" stop-opacity="1"/>
		</linearGradient>
		<path fill="url(#SVGID_Fill1_)" stroke-width="0.2" stroke-linejoin="round" d="M 30.7174,1.49951L 30.7174,1.49951C 36.0962,1.49951 40.4565,5.85986 40.4565,11.2388L 40.4565,54.6085C 40.4565,59.9872 36.0962,64.3475 30.7174,64.3475L 30.7174,64.3475C 25.3386,64.3475 20.9783,59.9872 20.9783,54.6085L 20.9783,11.2388C 20.9783,5.85986 25.3386,1.49951 30.7174,1.49951 Z "/>
		<linearGradient id="SVGID_Stroke1_" gradientUnits="objectBoundingBox" x1="0.168935" y1="0.401808" x2="1.03036" y2="0.401808" gradientTransform="rotate(17.047531 0.168935 0.401808)">
			<stop offset="0.0186047" stop-color="#CEBE83" stop-opacity="1"/>
			<stop offset="0.55814" stop-color="#C79C07" stop-opacity="1"/>
			<stop offset="0.787252" stop-color="#8F6604" stop-opacity="1"/>
			<stop offset="1" stop-color="#573101" stop-opacity="1"/>
		</linearGradient>
		<linearGradient id="SVGID_Fill2_" gradientUnits="objectBoundingBox" x1="0.11873" y1="0.370586" x2="1.11874" y2="0.370586" gradientTransform="rotate(15.000367 0.118730 0.370586)">
			<stop offset="0.0186047" stop-color="#E3D191" stop-opacity="1"/>
			<stop offset="0.55814" stop-color="#E2AF00" stop-opacity="1"/>
			<stop offset="0.787252" stop-color="#AB7800" stop-opacity="1"/>
			<stop offset="1" stop-color="#744100" stop-opacity="1"/>
		</linearGradient>
		<path fill="url(#SVGID_Fill2_)" stroke-width="3" stroke-linejoin="round" stroke="url(#SVGID_Stroke1_)" d="M 30.8695,1.5C 36.3321,1.5 40.7608,3.61218 40.7608,6.21741C 40.7608,8.82288 36.3324,10.9349 30.8695,10.9349C 25.4067,10.9349 20.9782,8.82288 20.9782,6.21741C 20.9782,3.61218 25.407,1.5 30.8695,1.5 Z "/>
		<linearGradient id="SVGID_Fill3_" gradientUnits="objectBoundingBox" x1="-0.0142854" y1="0.5" x2="1.01429" y2="0.5">
			<stop offset="0.0186047" stop-color="#D7B77E" stop-opacity="1"/>
			<stop offset="0.55814" stop-color="#D4B780" stop-opacity="1"/>
			<stop offset="0.787252" stop-color="#D7BC89" stop-opacity="1"/>
			<stop offset="1" stop-color="#DBC292" stop-opacity="1"/>
		</linearGradient>
		<path fill="url(#SVGID_Fill3_)" stroke-linejoin="round" stroke="#000000" stroke-opacity="1" d="M 34.2174,14.5868L 34.2174,32.8477L 57.0435,37.1085L 66.1739,31.9347L 57.8044,20.6737L 34.2174,14.5868 Z "/>
		<linearGradient id="SVGID_Fill4_" gradientUnits="objectBoundingBox" x1="-0.0168542" y1="0.484035" x2="1.01685" y2="0.484035">
			<stop offset="0.0186047" stop-color="#E5D5B4" stop-opacity="1"/>
			<stop offset="1" stop-color="#EFE4D0" stop-opacity="1"/>
		</linearGradient>
		<path fill="url(#SVGID_Fill4_)" stroke-linejoin="round" stroke="#000000" stroke-opacity="1" d="M 34.3696,13.9781L 36.0816,13.623L 38.6685,12.4818L 40.1903,11.1122L 40.9511,9.74255L 61.4565,14.2825L 57.1957,20.0651L 34.3696,13.9781 Z "/>
		<linearGradient id="SVGID_Fill5_" gradientUnits="objectBoundingBox" x1="-0.0312504" y1="0.5" x2="1.03125" y2="0.5">
			<stop offset="0.0186047" stop-color="#E5D5B4" stop-opacity="1"/>
			<stop offset="1" stop-color="#EFE4D0" stop-opacity="1"/>
		</linearGradient>
		<path fill="url(#SVGID_Fill5_)" stroke-linejoin="round" stroke="#000000" stroke-opacity="1" d="M 61.4565,14.2825L 71.5,27.0651L 66.3261,32.239L 56.8913,20.0651L 61.4565,14.2825 Z "/>
		<linearGradient id="SVGID_Fill6_" gradientUnits="objectBoundingBox" x1="0.027228" y1="0.484619" x2="1.02228" y2="0.484619">
			<stop offset="0.0186047" stop-color="#D9BF8D" stop-opacity="1"/>
			<stop offset="1" stop-color="#D7B77E" stop-opacity="1"/>
		</linearGradient>
		<path fill="url(#SVGID_Fill6_)" stroke-linejoin="round" stroke="#000000" stroke-opacity="1" d="M 29.2971,14.7897L 15.5,25.1376L 8.80435,40.5579L 18.7464,41.1665L 29.2971,32.036L 29.2971,14.7897 Z "/>
		<linearGradient id="SVGID_Fill7_" gradientUnits="objectBoundingBox" x1="-0.0199118" y1="0.483145" x2="1.01991" y2="0.483145">
			<stop offset="0.0186047" stop-color="#E7D7B9" stop-opacity="1"/>
			<stop offset="1" stop-color="#EEE2CD" stop-opacity="1"/>
		</linearGradient>
		<path fill="url(#SVGID_Fill7_)" stroke-linejoin="round" stroke="#000000" stroke-opacity="1" d="M 15.2971,25.1376L 6.57247,21.8912L 20.5725,11.7462L 20.7881,11.5941L 22.0816,13.1158L 24.8333,14.181L 29.5,14.3839L 15.2971,25.1376 Z "/>
		<linearGradient id="SVGID_Fill8_" gradientUnits="objectBoundingBox" x1="-0.0330881" y1="0.499997" x2="1.03309" y2="0.499997">
			<stop offset="0.0186047" stop-color="#E7D7B9" stop-opacity="1"/>
			<stop offset="1" stop-color="#EEE2CD" stop-opacity="1"/>
		</linearGradient>
		<path fill="url(#SVGID_Fill8_)" stroke-linejoin="round" stroke="#000000" stroke-opacity="1" d="M 6.57247,21.8912L 1.50001,35.6882L 8.60145,40.5579L 15.2971,25.5433L 6.57247,21.8912 Z "/>
	</g>
</svg>
