<?xml version="1.0" encoding="utf-8"?>
<!DOCTYPE svg PUBLIC "-//W3C//DTD SVG 1.1//EN" "http://www.w3.org/Graphics/SVG/1.1/DTD/svg11.dtd">
<svg xmlns="http://www.w3.org/2000/svg" xmlns:xlink="http://www.w3.org/1999/xlink" version="1.1" baseProfile="full" width="90" height="77.7273" viewBox="0 0 90.00 77.73" enable-background="new 0 0 90.00 77.73" xml:space="preserve">
	<path fill="#8C9E64" fill-opacity="1" stroke-linejoin="round" stroke="#000000" stroke-opacity="1" d="M 13.5404,2.33398L 74.5404,2.33398C 80.6155,2.33398 85.5404,7.25885 85.5404,13.334L 85.5404,63.0007C 85.5404,69.0758 80.6155,74.0007 74.5404,74.0007L 13.5404,74.0007C 7.46522,74.0007 2.54036,69.0758 2.54036,63.0007L 2.54036,13.334C 2.54036,7.25885 7.46522,2.33398 13.5404,2.33398 Z "/>
	<linearGradient id="SVGID_Fill1_" gradientUnits="objectBoundingBox" x1="0.503869" y1="-0.274908" x2="2.05368" y2="-0.274908" gradientTransform="rotate(90.000000 0.503869 -0.274908)">
		<stop offset="0.316279" stop-color="#F0F1EC" stop-opacity="0.592157"/>
		<stop offset="0.800003" stop-color="#FFFFFF" stop-opacity="0"/>
	</linearGradient>
	<path fill="url(#SVGID_Fill1_)" stroke-width="0.2" stroke-linejoin="round" d="M 73.5602,4.81805L 15.4491,4.81805C 12.4151,4.81805 8.64089,5.66519 5.87369,9.46339L 5.93958,9.46339C 6.00546,45.0622 24.1056,45.1832 44.4827,45.1832C 64.8597,45.1832 82.1693,44.8388 82.4987,9.37962L 82.4987,9.40754C 81.0492,7.34087 79.1385,5.21835 73.5602,4.81805 Z "/>
	<linearGradient id="SVGID_Fill2_" gradientUnits="objectBoundingBox" x1="0.940186" y1="0.437275" x2="2.52462" y2="0.437275" gradientTransform="rotate(170.546585 0.940186 0.437275)">
		<stop offset="0.274419" stop-color="#F0F1EC" stop-opacity="0.501961"/>
		<stop offset="0.562791" stop-color="#FFFFFF" stop-opacity="0"/>
	</linearGradient>
	<path fill="url(#SVGID_Fill2_)" stroke-width="0.2" stroke-linejoin="round" d="M 73.3296,4.7715L 56.3421,6.63337C 53.3081,6.63337 37.1913,4.84594 34.4241,8.64414L 26.3422,20.5601C 30.7007,27.5655 46.02,18.4748 48.3919,16.7247C 72.0229,13.7084 81.9387,44.7923 82.2681,9.33307L 82.2681,9.36099C 80.8186,7.29433 78.9079,5.17181 73.3296,4.7715 Z "/>
	<linearGradient id="SVGID_Fill3_" gradientUnits="objectBoundingBox" x1="0.997261" y1="0.384958" x2="2.01805" y2="0.384958" gradientTransform="rotate(177.266220 0.997261 0.384958)">
		<stop offset="0" stop-color="#000000" stop-opacity="0.862745"/>
		<stop offset="0.418605" stop-color="#000000" stop-opacity="0.862745"/>
		<stop offset="0.655814" stop-color="#1E1E1E" stop-opacity="0.411765"/>
		<stop offset="0.902326" stop-color="#3A3A3A" stop-opacity="0"/>
	</linearGradient>
	<path fill="url(#SVGID_Fill3_)" stroke-width="0.2" stroke-linejoin="round" d="M 35.2308,57.1067L 17.9258,53.834C 19.1739,61.4473 37.7377,65.002 40.849,65.3947L 43.3727,58.5347L 35.2308,57.1067 Z "/>
	<linearGradient id="SVGID_Fill4_" gradientUnits="objectBoundingBox" x1="0.227681" y1="-0.765391" x2="3.01549" y2="-0.765391" gradientTransform="rotate(25.282509 0.227681 -0.765391)">
		<stop offset="0" stop-color="#000000" stop-opacity="0.862745"/>
		<stop offset="0.502326" stop-color="#000000" stop-opacity="0.862745"/>
		<stop offset="0.693023" stop-color="#1E1E1E" stop-opacity="0.411765"/>
		<stop offset="0.800003" stop-color="#3A3A3A" stop-opacity="0"/>
	</linearGradient>
	<path fill="url(#SVGID_Fill4_)" stroke-width="0.2" stroke-linejoin="round" d="M 40.8669,65.3965C 45.928,65.8995 70.1886,68.0215 73.1758,64.084L 61.8559,61.0215L 44.0232,58.5347L 40.849,65.3947 Z "/>
	<linearGradient id="SVGID_Stroke1_" gradientUnits="objectBoundingBox" x1="0.5" y1="0.736763" x2="0.973527" y2="0.736763" gradientTransform="rotate(-90.000000 0.500000 0.736763)">
		<stop offset="0" stop-color="#1A1C1C" stop-opacity="1"/>
		<stop offset="0.15814" stop-color="#383B3B" stop-opacity="1"/>
		<stop offset="0.739535" stop-color="#6B7070" stop-opacity="1"/>
		<stop offset="0.990698" stop-color="#4B4D4D" stop-opacity="1"/>
	</linearGradient>
	<linearGradient id="SVGID_Fill5_" gradientUnits="objectBoundingBox" x1="0.5" y1="0.742927" x2="0.985854" y2="0.742927" gradientTransform="rotate(-90.000000 0.500000 0.742927)">
		<stop offset="0" stop-color="#1A1C1C" stop-opacity="1"/>
		<stop offset="0.15814" stop-color="#383B3B" stop-opacity="1"/>
		<stop offset="0.739535" stop-color="#6B7070" stop-opacity="1"/>
		<stop offset="0.990698" stop-color="#4B4D4D" stop-opacity="1"/>
	</linearGradient>
	<path fill="url(#SVGID_Fill5_)" stroke-linejoin="round" stroke="url(#SVGID_Stroke1_)" d="M 50.0422,59.1656L 49.419,63.3717C 59.9091,62.5466 67.082,54.1248 67.082,42.8965C 67.082,36.9719 63.5502,28.8363 59.6862,24.959L 56.3737,26.959C 59.343,30.1251 62.4154,37.0183 62.4154,41.8132C 62.4154,50.5619 57.5751,57.8388 50.0422,59.1656 Z "/>
	<linearGradient id="SVGID_Stroke2_" gradientUnits="objectBoundingBox" x1="0.491356" y1="0.839498" x2="1.17035" y2="0.839498" gradientTransform="rotate(-90.000000 0.491356 0.839498)">
		<stop offset="0" stop-color="#1A1C1C" stop-opacity="1"/>
		<stop offset="0.15814" stop-color="#383B3B" stop-opacity="1"/>
		<stop offset="0.739535" stop-color="#6B7070" stop-opacity="1"/>
		<stop offset="0.990698" stop-color="#4B4D4D" stop-opacity="1"/>
	</linearGradient>
	<linearGradient id="SVGID_Fill6_" gradientUnits="objectBoundingBox" x1="0.491006" y1="0.848562" x2="1.18813" y2="0.848562" gradientTransform="rotate(-90.000000 0.491006 0.848562)">
		<stop offset="0" stop-color="#1A1C1C" stop-opacity="1"/>
		<stop offset="0.15814" stop-color="#383B3B" stop-opacity="1"/>
		<stop offset="0.739535" stop-color="#6B7070" stop-opacity="1"/>
		<stop offset="0.990698" stop-color="#4B4D4D" stop-opacity="1"/>
	</linearGradient>
	<path fill="url(#SVGID_Fill6_)" stroke-linejoin="round" stroke="url(#SVGID_Stroke2_)" d="M 30.0084,39.5467C 30.0618,33.6585 31.2466,28.8693 34.1654,26.4798L 33.9154,25.9798L 29.2487,27.3965C 24.9291,30.2465 25.4462,31.5572 25.3737,39.218C 25.2617,51.0454 36.2986,63.4382 47.7105,63.4382C 48.2891,63.4382 48.8588,63.4158 49.419,63.3717L 50.0422,59.1656C 49.2349,59.3077 48.3966,59.3816 47.5301,59.3816C 38.5782,59.3816 29.9206,49.2326 30.0084,39.5467 Z "/>
	<path fill="#6F7070" fill-opacity="1" stroke-linejoin="round" stroke="#6F7070" stroke-opacity="1" d="M 25.1029,40.1367C 25.1547,33.9677 26.0833,29.8583 28.9172,27.3549L 28.9163,27.3548L 26.2066,23.6093C 22.0126,26.5952 20.6733,31.7662 20.6029,39.7923C 20.4942,52.1836 31.2101,65.1673 42.2904,65.1673C 53.3706,65.1673 62.3529,55.1217 62.3529,42.7298C 62.3529,36.5227 59.9894,30.9043 56.2377,26.8422L 53.1592,29.649C 56.0422,32.9661 57.8528,37.5188 57.8528,42.5423C 57.8528,52.6906 50.8069,60.9173 42.1152,60.9173C 33.4235,60.9173 25.0176,50.2844 25.1029,40.1367 Z "/>
	<path fill="#4B4D4D" fill-opacity="1" stroke-linejoin="round" stroke="#4B4D4D" stroke-opacity="1" d="M 26.24,23.5347L 30.9981,22.0599L 33.8818,25.8905L 29.1237,27.3653L 26.24,23.5347 Z "/>
	<g>
		<linearGradient id="SVGID_Stroke3_" gradientUnits="objectBoundingBox" x1="0" y1="0.45625" x2="1" y2="0.45625">
			<stop offset="0.111628" stop-color="#EEBB18" stop-opacity="1"/>
			<stop offset="1" stop-color="#9A802B" stop-opacity="1"/>
		</linearGradient>
		<linearGradient id="SVGID_Fill7_" gradientUnits="objectBoundingBox" x1="-0.0851064" y1="0.451499" x2="1.08511" y2="0.451499">
			<stop offset="0.111628" stop-color="#EEBB18" stop-opacity="1"/>
			<stop offset="1" stop-color="#9A802B" stop-opacity="1"/>
		</linearGradient>
		<path fill="url(#SVGID_Fill7_)" stroke-width="2" stroke-linejoin="round" stroke="url(#SVGID_Stroke3_)" d="M 41.2383,10.959L 45.3737,10.2507L 52.9883,25.9434L 49.1966,28.6673L 41.2383,10.959 Z "/>
		<path fill="#E2BB3C" fill-opacity="1" stroke-width="2" stroke-linejoin="round" stroke="#E2BB3C" stroke-opacity="1" d="M 41.207,10.9173L 32.707,26.9173L 49.0924,28.7507L 41.207,10.9173 Z "/>
	</g>
	<linearGradient id="SVGID_Stroke4_" gradientUnits="objectBoundingBox" x1="0.224825" y1="0.0722379" x2="0.831643" y2="0.0722379" gradientTransform="rotate(90.000000 0.224825 0.072238)">
		<stop offset="0.334884" stop-color="#000000" stop-opacity="1"/>
		<stop offset="0.995349" stop-color="#3A3A3A" stop-opacity="1"/>
	</linearGradient>
	<linearGradient id="SVGID_Fill8_" gradientUnits="objectBoundingBox" x1="0.182192" y1="0.0256788" x2="0.855058" y2="0.0256788" gradientTransform="rotate(90.000000 0.182192 0.025679)">
		<stop offset="0.339535" stop-color="#000000" stop-opacity="1"/>
		<stop offset="0.995349" stop-color="#3A3A3A" stop-opacity="1"/>
	</linearGradient>
	<path fill="url(#SVGID_Fill8_)" stroke-linejoin="round" stroke="url(#SVGID_Stroke4_)" d="M 35.8255,45.27L 36.9987,50.2715L 39.5924,48.459L 42.2799,46.3757L 39.5924,41.8729L 36.8216,41.084L 35.8255,45.27 Z "/>
	<path fill="#3A3A3A" fill-opacity="1" stroke-linejoin="round" stroke="#3A3A3A" stroke-opacity="1" d="M 42.6545,29.5659L 38.467,28.9409L 33.1706,32.6621L 37.2383,33.2923L 39.9247,31.5516L 42.6545,29.5659 Z "/>
	<linearGradient id="SVGID_Stroke5_" gradientUnits="objectBoundingBox" x1="0.432549" y1="0.814219" x2="0.954299" y2="0.814219" gradientTransform="rotate(254.138474 0.432549 0.814219)">
		<stop offset="0.0697674" stop-color="#000000" stop-opacity="1"/>
		<stop offset="0.995349" stop-color="#3A3A3A" stop-opacity="1"/>
	</linearGradient>
	<linearGradient id="SVGID_Fill9_" gradientUnits="objectBoundingBox" x1="0.425123" y1="0.840587" x2="0.993119" y2="0.840587" gradientTransform="rotate(254.494293 0.425123 0.840587)">
		<stop offset="0.120934" stop-color="#000000" stop-opacity="1"/>
		<stop offset="0.995349" stop-color="#3A3A3A" stop-opacity="1"/>
	</linearGradient>
	<path fill="url(#SVGID_Fill9_)" stroke-linejoin="round" stroke="url(#SVGID_Stroke5_)" d="M 37.4883,33.209L 42.8633,41.459L 46.4883,33.9173L 42.7383,29.5423L 37.4049,33.2507"/>
	<path fill="#3A3A3A" fill-opacity="1" stroke-linejoin="round" stroke="#3A3A3A" stroke-opacity="1" d="M 47.4987,52.834L 52.5716,50.0423L 52.5716,31.334L 47.4466,30.584L 43.0612,33.459L 45.6549,40.2715L 43.4638,36.9371L 42.4802,43.9579L 47.4987,52.834 Z "/>
	<path fill="#69696A" fill-opacity="1" stroke-linejoin="round" stroke="#69696A" stroke-opacity="1" d="M 33.1237,32.709L 33.2487,49.334L 36.9987,50.2715L 36.9987,50.209L 36.9987,41.5215L 37.3084,41.2108L 43.5612,51.5215L 47.4362,52.834L 47.4362,34.2089L 43.0612,33.5215L 43.0612,42.084L 37.3112,33.334L 33.1237,32.709 Z "/>
</svg>
