<?xml version="1.0" encoding="utf-8"?>
<!DOCTYPE svg PUBLIC "-//W3C//DTD SVG 1.1//EN" "http://www.w3.org/Graphics/SVG/1.1/DTD/svg11.dtd">
<svg xmlns="http://www.w3.org/2000/svg" xmlns:xlink="http://www.w3.org/1999/xlink" version="1.1" baseProfile="full" width="200" height="200" viewBox="0 0 200.00 200.00" enable-background="new 0 0 200.00 200.00" xml:space="preserve">
	<g>
		<path fill="#1B4212" fill-opacity="1" stroke-linejoin="round" d="M 26.4191,98.066C 18.59,107.337 5.49719,124.837 7.32654,144.267C 9.15588,163.698 25.9073,185.059 53.5929,193.552C 81.2787,202.045 119.898,197.67 141.9,190.566C 163.901,183.462 169.284,173.629 173.489,167.934C 177.695,162.24 180.723,160.684 183.912,158.247C 187.101,155.809 190.451,152.49 191.958,145.177C 193.465,137.865 193.129,126.559 188.194,119.073C 183.26,111.587 173.728,107.92 167.588,97.823C 161.448,87.7257 158.7,71.198 152.476,60.9757C 146.252,50.7535 136.552,46.8368 128.022,45.8368C 119.492,44.8368 112.132,46.7535 106.469,49.5453C 100.806,52.3368 96.8387,56.0035 92.6263,55.8439C 88.4139,55.684 83.9562,51.6981 77.7252,50.9203C 71.494,50.1425 63.4899,52.5731 56.2145,57.8231C 48.9391,63.0731 42.3926,71.1423 39.7081,76.4272C 37.0237,81.7119 38.2013,84.2119 37.5073,85.9827C 36.8135,87.7535 34.2482,88.7952 26.4191,98.066 Z "/>
		<path fill="#459D2F" fill-opacity="1" stroke-linejoin="round" d="M 27.9513,96.0659C 20.1942,105.337 7.22205,122.837 9.03455,142.267C 10.847,161.698 27.4442,183.059 54.8748,191.552C 82.3053,200.045 120.569,195.67 142.368,188.566C 164.166,181.462 169.5,171.628 173.666,165.934C 177.833,160.24 180.833,158.684 183.993,156.246C 187.153,153.809 190.472,150.49 191.965,143.177C 193.458,135.865 193.125,124.559 188.236,117.073C 183.347,109.587 173.903,105.92 167.819,95.8229C 161.736,85.7256 159.014,69.1979 152.847,58.9755C 146.68,48.7533 137.069,44.8368 128.617,43.0817C 120.165,41.3265 112.871,41.733 108.725,42.8944C 104.578,44.056 103.578,45.9728 101.245,48.2291C 98.9131,50.4852 95.2482,53.0812 91.5753,52.7181C 87.9026,52.3553 84.222,49.0336 78.4165,48.5878C 72.611,48.1422 64.6804,50.5729 57.472,55.8229C 50.2638,61.0729 43.7776,69.1422 41.1179,74.427C 38.4581,79.7117 39.6249,82.2117 38.9374,83.9825C 38.2499,85.7534 35.7081,86.795 27.9513,96.0659 Z "/>
		<linearGradient id="SVGID_Fill1_" gradientUnits="objectBoundingBox" x1="-0.0454864" y1="0.473557" x2="1.01003" y2="0.473557">
			<stop offset="0" stop-color="#0C3B01" stop-opacity="0"/>
			<stop offset="0.459916" stop-color="#000300" stop-opacity="0.254902"/>
			<stop offset="0.924051" stop-color="#000000" stop-opacity="0.27451"/>
			<stop offset="0.962785" stop-color="#000000" stop-opacity="0.137255"/>
			<stop offset="1" stop-color="#000000" stop-opacity="0"/>
		</linearGradient>
		<path fill="url(#SVGID_Fill1_)" stroke-linejoin="round" d="M 166.801,167.033C 169.745,167.297 171.856,169.102 168.523,173.13C 165.189,177.158 156.411,183.408 143.55,187.894C 130.689,192.38 113.745,195.102 101.661,195.824C 89.5782,196.547 82.3561,195.269 80.0623,191.832C 77.7684,188.394 80.4031,182.797 88.7086,179.784C 97.0143,176.77 110.991,176.339 123.201,175.026C 135.411,173.713 145.856,171.519 152.967,169.783C 160.078,168.047 163.856,166.769 166.801,167.033 Z "/>
		<radialGradient id="SVGID_Fill2_" cx="98.5377" cy="153.076" r="72.75" gradientUnits="userSpaceOnUse">
			<stop offset="0" stop-color="#000000" stop-opacity="1"/>
			<stop offset="0.51" stop-color="#111111" stop-opacity="0.960784"/>
			<stop offset="1" stop-color="#232223" stop-opacity="0.917647"/>
		</radialGradient>
		<path fill="url(#SVGID_Fill2_)" stroke-linejoin="round" d="M 27.0343,131.736C 26.4406,134.736 25.8433,140.52 26.7843,145.902C 27.7252,151.284 30.2043,156.263 35.4613,161.079C 40.7183,165.895 48.7531,170.548 57.1454,173.208C 65.5377,175.867 74.2877,176.534 87.5725,176.663C 100.857,176.791 118.677,176.381 132.357,174.642C 146.038,172.902 155.579,169.833 161.378,167.746C 167.177,165.659 169.232,164.555 169.843,163.92C 170.454,163.284 169.621,163.117 167.781,163.555C 165.941,163.992 163.093,165.034 156.545,166.69C 149.996,168.347 139.746,170.618 127.899,172.052C 116.052,173.486 102.607,174.083 89.9545,173.687C 77.3016,173.291 65.4406,171.902 56.746,169.506C 48.0516,167.111 42.5238,163.708 38.3536,160.027C 34.1835,156.347 31.371,152.388 29.7877,148.993C 28.2043,145.597 27.8502,142.763 27.8918,139.409C 27.9335,136.055 28.371,132.18 28.2947,130.35C 28.2183,128.52 27.6281,128.736 27.0343,131.736 Z "/>
		<radialGradient id="SVGID_Fill3_" cx="102.359" cy="66.9283" r="17.5" gradientUnits="userSpaceOnUse">
			<stop offset="0" stop-color="#AED291" stop-opacity="0.286275"/>
			<stop offset="0.51" stop-color="#78B460" stop-opacity="0.501961"/>
			<stop offset="1" stop-color="#42962F" stop-opacity="0.713725"/>
		</radialGradient>
		<path fill="url(#SVGID_Fill3_)" stroke-linejoin="round" d="M 85.5808,55.1781C 88.0808,55.1991 93.9696,56.6573 99.6432,59.3241C 105.317,61.9906 110.775,65.8657 114.109,69.0532C 117.442,72.2407 118.65,74.7407 118.393,76.9629C 118.136,79.1852 116.414,81.1296 114.06,79.713C 111.706,78.2964 108.72,73.5186 105.372,69.8795C 102.025,66.2407 98.3169,63.7406 94.8378,61.9491C 91.3585,60.1573 88.1085,59.0741 86.0391,57.8241C 83.9696,56.5741 83.0808,55.1573 85.5808,55.1781 Z "/>
		<radialGradient id="SVGID_Fill4_" cx="93.4824" cy="131.323" r="53.4999" gradientUnits="userSpaceOnUse">
			<stop offset="0" stop-color="#AED291" stop-opacity="0.219608"/>
			<stop offset="0.51" stop-color="#78B460" stop-opacity="0.384314"/>
			<stop offset="1" stop-color="#42962F" stop-opacity="0.545098"/>
		</radialGradient>
		<path fill="url(#SVGID_Fill4_)" stroke-linejoin="round" d="M 41.4825,123.906C 41.6493,129.406 43.3159,137.739 56.8993,143.156C 70.4825,148.572 95.9825,151.072 112.983,149.072C 129.983,147.072 138.483,140.572 141.566,134.156C 144.649,127.739 142.316,121.406 139.899,117.239C 137.483,113.072 134.983,111.072 129.816,112.156C 124.649,113.239 116.816,117.406 109.399,121.072C 101.983,124.739 94.9825,127.906 86.5659,128.156C 78.1493,128.406 68.3159,125.739 60.9825,122.739C 53.6493,119.739 48.8159,116.406 45.7325,116.072C 42.6493,115.739 41.3159,118.406 41.4825,123.906 Z "/>
		<radialGradient id="SVGID_Fill5_" cx="81.7582" cy="96.4479" r="44.7329" gradientUnits="userSpaceOnUse">
			<stop offset="0" stop-color="#699E3F" stop-opacity="1"/>
			<stop offset="0.51" stop-color="#559A37" stop-opacity="0.960784"/>
			<stop offset="1" stop-color="#42962F" stop-opacity="0.917647"/>
		</radialGradient>
		<path fill="url(#SVGID_Fill5_)" stroke-linejoin="round" d="M 65.3336,56.559C 60.4894,58.9811 53.5259,62.6141 49.0602,68.7451C 44.5945,74.8761 42.6265,83.5046 43.005,94.0256C 43.3834,104.547 46.1083,116.96 54.1315,125.134C 62.1545,133.309 75.476,137.245 86.8295,137.699C 98.183,138.153 107.569,135.125 113.245,128.389C 118.922,121.652 120.89,111.207 120.133,101.065C 119.376,90.9224 115.895,81.0826 109.461,73.2866C 103.027,65.4905 93.6416,59.7382 87.5107,56.4833C 81.3799,53.2286 78.5035,52.4718 75.7031,52.6989C 72.9026,52.9259 70.1777,54.1371 65.3336,56.559 Z "/>
		<radialGradient id="SVGID_Fill6_" cx="64.5242" cy="73.8235" r="15.7499" gradientUnits="userSpaceOnUse">
			<stop offset="0" stop-color="#AED291" stop-opacity="0.14902"/>
			<stop offset="0.51" stop-color="#78B460" stop-opacity="0.258824"/>
			<stop offset="1" stop-color="#42962F" stop-opacity="0.368627"/>
		</radialGradient>
		<path fill="url(#SVGID_Fill6_)" stroke-linejoin="round" d="M 71.2186,59.601C 68.0798,60.1288 62.302,62.1844 59.052,65.3234C 55.802,68.4622 55.0798,72.6846 54.6075,76.4624C 54.1354,80.24 53.9132,83.5734 54.0798,85.6843C 54.2465,87.7955 54.802,88.6846 55.9409,86.49C 57.0798,84.2955 58.802,79.0178 60.7186,74.7124C 62.6354,70.4067 64.7465,67.0734 67.2186,64.9624C 69.6909,62.8512 72.5243,61.9623 73.6909,61.0177C 74.8575,60.0734 74.3575,59.0734 71.2186,59.601 Z "/>
		<radialGradient id="SVGID_Fill7_" cx="134.357" cy="51.1569" r="5.29163" gradientUnits="userSpaceOnUse">
			<stop offset="0" stop-color="#AED291" stop-opacity="0.286275"/>
			<stop offset="0.51" stop-color="#78B460" stop-opacity="0.501961"/>
			<stop offset="1" stop-color="#42962F" stop-opacity="0.713725"/>
		</radialGradient>
		<path fill="url(#SVGID_Fill7_)" stroke-linejoin="round" d="M 135.566,47.3788C 133.927,48.2955 131.871,50.1844 130.719,51.7679C 129.566,53.3512 129.316,54.6288 130.01,55.1288C 130.705,55.6288 132.344,55.3512 133.774,54.2262C 135.205,53.1012 136.427,51.1288 137.371,49.7123C 138.316,48.2955 138.983,47.4344 138.705,46.9762C 138.427,46.5179 137.205,46.4623 135.566,47.3788 Z "/>
		<radialGradient id="SVGID_Fill8_" cx="132.691" cy="61.2196" r="16.0625" gradientUnits="userSpaceOnUse">
			<stop offset="0" stop-color="#AED291" stop-opacity="0.215686"/>
			<stop offset="0.51" stop-color="#78B460" stop-opacity="0.372549"/>
			<stop offset="1" stop-color="#42962F" stop-opacity="0.529412"/>
		</radialGradient>
		<path fill="url(#SVGID_Fill8_)" stroke-linejoin="round" d="M 134.732,47.0526C 133.024,48.1151 130.857,51.0736 129.441,54.4486C 128.024,57.8236 127.357,61.6151 126.982,65.0735C 126.607,68.5319 126.524,71.6569 126.962,73.636C 127.399,75.6152 128.357,76.4485 128.878,75.7194C 129.399,74.9902 129.482,72.6985 129.962,69.261C 130.441,65.8235 131.316,61.2401 132.482,57.9069C 133.649,54.5736 135.107,52.4901 136.232,50.9901C 137.357,49.4901 138.149,48.5736 137.92,47.6986C 137.691,46.8236 136.441,45.9901 134.732,47.0526 Z "/>
		<radialGradient id="SVGID_Fill9_" cx="159.482" cy="120.323" r="26" gradientUnits="userSpaceOnUse">
			<stop offset="0" stop-color="#AED291" stop-opacity="0.188235"/>
			<stop offset="0.51" stop-color="#78B460" stop-opacity="0.32549"/>
			<stop offset="1" stop-color="#42962F" stop-opacity="0.462745"/>
		</radialGradient>
		<path fill="url(#SVGID_Fill9_)" stroke-linejoin="round" d="M 136.899,112.073C 138.483,116.073 143.482,124.573 150.899,128.823C 158.316,133.073 168.149,133.073 174.316,131.406C 180.482,129.739 182.982,126.406 182.732,122.906C 182.482,119.406 179.482,115.739 177.149,113.323C 174.816,110.906 173.149,109.739 170.566,110.073C 167.982,110.406 164.482,112.239 159.066,112.323C 153.649,112.406 146.316,110.739 141.732,109.656C 137.149,108.573 135.316,108.073 136.899,112.073 Z "/>
		<radialGradient id="SVGID_Fill10_" cx="107.309" cy="64.5757" r="9.4502" gradientUnits="userSpaceOnUse">
			<stop offset="0" stop-color="#000000" stop-opacity="0.168627"/>
			<stop offset="0.505696" stop-color="#061D00" stop-opacity="0.176471"/>
			<stop offset="0.991561" stop-color="#0C3B01" stop-opacity="0.180392"/>
		</radialGradient>
		<path fill="url(#SVGID_Fill10_)" stroke-linejoin="round" d="M 101.117,60.2689C 103.909,62.6857 109.959,67.0056 113.109,69.3323C 116.259,71.6588 116.509,71.9922 115.801,70.4504C 115.092,68.9088 113.426,65.4922 110.509,62.9088C 107.592,60.3256 103.426,58.5756 101.109,57.9574C 98.7921,57.339 98.3253,57.8524 101.117,60.2689 Z "/>
		<radialGradient id="SVGID_Fill11_" cx="135.674" cy="101.407" r="31.666" gradientUnits="userSpaceOnUse">
			<stop offset="0" stop-color="#FFFFFF" stop-opacity="0.223529"/>
			<stop offset="0.51" stop-color="#A0CA97" stop-opacity="0.231373"/>
			<stop offset="1" stop-color="#42962F" stop-opacity="0.235294"/>
		</radialGradient>
		<path fill="url(#SVGID_Fill11_)" stroke-linejoin="round" d="M 118.346,83.4238C 123.721,93.9791 136.102,113.526 144.213,122.526C 152.324,131.526 156.166,129.979 158.008,127.908C 159.85,125.837 159.694,123.241 155.187,117.889C 150.68,112.537 141.824,104.429 134.606,95.9448C 127.389,87.4607 121.811,78.6007 118.207,74.9526C 114.603,71.3047 112.972,72.8684 118.346,83.4238 Z "/>
		<g>
			<radialGradient id="SVGID_Fill12_" cx="88.3086" cy="95.9097" r="31.5856" gradientUnits="userSpaceOnUse">
				<stop offset="0" stop-color="#232223" stop-opacity="0.705882"/>
				<stop offset="1" stop-color="#000000" stop-opacity="1"/>
			</radialGradient>
			<path fill="url(#SVGID_Fill12_)" stroke-linejoin="round" d="M 75.2649,67.1506C 72.1709,68.6421 68.6539,70.957 66.339,77.6124C 64.024,84.2678 62.911,95.2639 63.4675,104.301C 64.024,113.338 66.2499,120.417 73.8625,121.752C 81.4752,123.088 94.4745,118.68 102.198,115.586C 109.922,112.492 112.371,110.712 112.081,104.924C 111.792,99.137 108.765,89.343 103.578,81.9084C 98.3921,74.4739 91.0465,69.3989 86.0382,67.1953C 81.0299,64.9917 78.3589,65.6593 75.2649,67.1506 Z "/>
			<radialGradient id="SVGID_Fill13_" cx="88.2305" cy="95.7742" r="29.5625" gradientUnits="userSpaceOnUse">
				<stop offset="0" stop-color="#E0DADE" stop-opacity="1"/>
				<stop offset="0.468182" stop-color="#D9D3D8" stop-opacity="1"/>
				<stop offset="0.768182" stop-color="#A29CA9" stop-opacity="1"/>
				<stop offset="1" stop-color="#534D65" stop-opacity="1"/>
			</radialGradient>
			<path fill="url(#SVGID_Fill13_)" stroke-linejoin="round" d="M 76.0222,68.8574C 73.1263,70.2532 69.8347,72.4199 67.6681,78.649C 65.5013,84.8782 64.4597,95.1699 64.9806,103.628C 65.5013,112.087 67.5847,118.712 74.7097,119.962C 81.8347,121.212 94.0013,117.087 101.231,114.191C 108.46,111.295 110.751,109.628 110.481,104.212C 110.21,98.7949 107.376,89.6282 102.522,82.6699C 97.6681,75.7115 90.7931,70.9615 86.1056,68.899C 81.4181,66.8365 78.9181,67.4615 76.0222,68.8574 Z "/>
			<radialGradient id="SVGID_Fill14_" cx="89.5205" cy="90.1492" r="19.9375" gradientUnits="userSpaceOnUse">
				<stop offset="0" stop-color="#0C1D8C" stop-opacity="1"/>
				<stop offset="0.468182" stop-color="#0022FC" stop-opacity="1"/>
				<stop offset="0.777273" stop-color="#1A2ED9" stop-opacity="1"/>
				<stop offset="1" stop-color="#004DFF" stop-opacity="1"/>
			</radialGradient>
			<path fill="url(#SVGID_Fill14_)" stroke-linejoin="round" d="M 75.5206,74.274C 73.0831,78.0865 74.4581,85.9615 76.979,92.6074C 79.4999,99.2532 83.1665,104.67 87.3401,106.962C 91.5138,109.253 96.1943,108.42 99.611,106.441C 103.028,104.462 105.18,101.337 103.444,95.2324C 101.708,89.1282 96.0831,80.0449 90.1458,75.3781C 84.2083,70.7114 77.9581,70.4615 75.5206,74.274 Z "/>
			<radialGradient id="SVGID_Fill15_" cx="82.2499" cy="81.5239" r="3.125" gradientUnits="userSpaceOnUse">
				<stop offset="0" stop-color="#FFFFFF" stop-opacity="1"/>
				<stop offset="1" stop-color="#FFFFFF" stop-opacity="0"/>
			</radialGradient>
			<path fill="url(#SVGID_Fill15_)" stroke-linejoin="round" d="M 82.2499,78.4614C 83.9755,78.4614 85.3749,79.8326 85.3749,81.5239C 85.3749,83.2153 83.9757,84.5864 82.2499,84.5864C 80.5239,84.5864 79.1249,83.2153 79.1249,81.5239C 79.1249,79.8326 80.5242,78.4614 82.2499,78.4614 Z "/>
		</g>
		<g>
			<radialGradient id="SVGID_Fill16_" cx="147.586" cy="86.756" r="33.5295" gradientUnits="userSpaceOnUse">
				<stop offset="0" stop-color="#232223" stop-opacity="0.705882"/>
				<stop offset="1" stop-color="#000000" stop-opacity="1"/>
			</radialGradient>
			<path fill="url(#SVGID_Fill16_)" stroke-linejoin="round" d="M 138.881,55.9679C 137.3,56.8929 135.223,58.433 134.155,65.2607C 133.086,72.0886 133.027,84.2047 135.533,92.501C 138.04,100.797 143.113,105.273 147.627,106.928C 152.141,108.583 156.096,107.416 159.006,106.424C 161.915,105.432 163.78,104.614 163.503,98.6323C 163.227,92.6504 160.81,81.504 156.975,73.275C 153.14,65.046 147.888,59.7343 144.719,57.2333C 141.55,54.7325 140.463,55.0426 138.881,55.9679 Z "/>
			<radialGradient id="SVGID_Fill17_" cx="147.649" cy="86.3921" r="31.2098" gradientUnits="userSpaceOnUse">
				<stop offset="0" stop-color="#E0DADE" stop-opacity="1"/>
				<stop offset="0.468182" stop-color="#D9D3D8" stop-opacity="1"/>
				<stop offset="0.768182" stop-color="#A29CA9" stop-opacity="1"/>
				<stop offset="1" stop-color="#534D65" stop-opacity="1"/>
			</radialGradient>
			<path fill="url(#SVGID_Fill17_)" stroke-linejoin="round" d="M 139.547,57.734C 138.075,58.5951 136.142,60.0284 135.147,66.3839C 134.153,72.7395 134.097,84.0173 136.431,91.7395C 138.764,99.4617 143.486,103.629 147.688,105.169C 151.89,106.709 155.571,105.623 158.279,104.699C 160.988,103.776 162.723,103.015 162.466,97.4468C 162.208,91.8785 159.958,81.5035 156.389,73.8438C 152.82,66.1841 147.931,61.2396 144.981,58.912C 142.031,56.5841 141.019,56.8727 139.547,57.734 Z "/>
			<radialGradient id="SVGID_Fill18_" cx="149.751" cy="80.4531" r="21.0485" gradientUnits="userSpaceOnUse">
				<stop offset="0" stop-color="#0C1D8C" stop-opacity="1"/>
				<stop offset="0.468182" stop-color="#0022FC" stop-opacity="1"/>
				<stop offset="0.777273" stop-color="#1A2ED9" stop-opacity="1"/>
				<stop offset="1" stop-color="#004DFF" stop-opacity="1"/>
			</radialGradient>
			<path fill="url(#SVGID_Fill18_)" stroke-linejoin="round" d="M 140.111,64.0902C 138.333,67.7568 138.437,76.1091 139.267,82.8965C 140.097,89.6837 141.652,94.9058 144.597,97.2114C 147.541,99.5168 151.875,98.9058 154.43,97.3224C 156.986,95.739 157.764,93.1837 156.597,87.2114C 155.43,81.239 152.319,71.8502 148.934,66.6462C 145.548,61.4423 141.888,60.4235 140.111,64.0902 Z "/>
			<radialGradient id="SVGID_Fill19_" cx="146.375" cy="71.7952" r="3.41427" gradientUnits="userSpaceOnUse" gradientTransform="rotate(-29.031406 146.374634 71.795166)">
				<stop offset="0" stop-color="#FFFFFF" stop-opacity="1"/>
				<stop offset="1" stop-color="#FFFFFF" stop-opacity="0"/>
			</radialGradient>
			<path fill="url(#SVGID_Fill19_)" stroke-linejoin="round" d="M 145.175,68.7927C 146.212,68.3785 147.59,69.3872 148.252,71.0454C 148.914,72.7036 148.611,74.3834 147.574,74.7976C 146.537,75.2117 145.16,74.2032 144.497,72.545C 143.835,70.887 144.139,69.2068 145.175,68.7927 Z "/>
		</g>
	</g>
	<path fill="#2D2908" fill-opacity="0.501961" stroke-linejoin="round" d="M 69.3892,48.6698C 69.3997,46.3705 69.5109,42.4816 68.733,38.7594C 67.9552,35.0372 66.2886,31.4816 65.108,28.8011C 63.9275,26.1205 63.233,24.3148 63.0455,22.2557C 62.858,20.1969 63.1775,17.8844 64.4484,15.058C 65.7191,12.2316 67.9413,8.89148 70.3649,6.67957C 72.7886,4.46765 75.4136,3.3844 78.7052,2.92615C 81.9969,2.46765 85.9552,2.6344 89.3198,4.0614C 92.6844,5.48865 95.4552,8.17615 97.0594,10.8844C 98.6636,13.5927 99.1011,16.3219 99.049,19.5614C 98.9969,22.8011 98.4552,26.5511 98.2052,29.4677C 97.9552,32.3844 97.9969,34.4677 98.7813,36.8158C 99.5656,39.1639 101.093,41.7765 102.502,43.826C 103.911,45.8754 105.203,47.3615 104.675,48.6254C 104.147,49.8893 101.8,50.931 99.6027,52.1044C 97.405,53.2777 95.3569,54.5829 93.4163,54.8602C 91.4756,55.1381 89.6422,54.3881 87.3715,53.3881C 85.1006,52.3881 82.3922,51.1381 79.3506,50.9296C 76.309,50.7213 72.934,51.5546 71.2013,51.6166C 69.4689,51.6786 69.3787,50.9689 69.3892,48.6698 Z "/>
	<path fill="#DDC617" fill-opacity="1" stroke-linejoin="round" d="M 70.3892,47.6698C 70.3997,45.3707 70.5109,41.4818 69.733,37.7596C 68.9552,34.0375 67.2886,30.4818 66.108,27.8011C 64.9275,25.1207 64.233,23.3151 64.0455,21.256C 63.858,19.1971 64.1775,16.8846 65.4484,14.058C 66.7191,11.2318 68.9413,7.89148 71.3649,5.67981C 73.7886,3.4679 76.4136,2.38464 79.7052,1.92615C 82.9969,1.4679 86.9552,1.63464 90.3197,3.06165C 93.6843,4.48865 96.4552,7.17615 98.0593,9.88464C 99.6635,12.5929 100.101,15.3221 100.049,18.5616C 99.9968,21.8011 99.4552,25.5511 99.2052,28.4679C 98.9552,31.3846 98.9968,33.4679 99.7052,35.8636C 100.413,38.2596 101.788,40.9679 102.663,42.7284C 103.538,44.4886 103.913,45.3011 103.438,46.4615C 102.962,47.6219 101.635,49.13 99.972,50.5924C 98.3088,52.0548 96.3088,53.4716 94.3922,53.8048C 92.4755,54.1381 90.6422,53.3881 88.3713,52.3881C 86.1005,51.3881 83.3922,50.1381 80.3506,49.9298C 77.309,49.7216 73.934,50.5548 72.2013,50.6166C 70.4689,50.6786 70.3787,49.9691 70.3892,47.6698 Z "/>
	<g>
		<radialGradient id="SVGID_Fill20_" cx="91.3414" cy="8.84924" r="6.10815" gradientUnits="userSpaceOnUse">
			<stop offset="0" stop-color="#FFFFFF" stop-opacity="1"/>
			<stop offset="0.978903" stop-color="#FFFFFF" stop-opacity="0"/>
		</radialGradient>
		<path fill="url(#SVGID_Fill20_)" stroke-linejoin="round" d="M 85.2335,8.78357C 85.2335,11.5453 88.0564,13.7836 91.5378,13.7836C 92.46,13.7836 93.3358,13.6266 94.1254,13.3446C 94.6351,11.8553 94.8937,10.5194 94.8297,9.54407C 95.542,9.99963 96.0884,10.827 96.5072,11.861C 96.9025,11.4601 97.2223,11.0101 97.4497,10.5243C 95.8981,7.93127 93.2803,5.36511 90.0995,3.91443C 87.3109,4.43079 85.2335,6.41565 85.2335,8.78357 Z "/>
		<radialGradient id="SVGID_Fill21_" cx="75.6002" cy="13.347" r="7.5" gradientUnits="userSpaceOnUse">
			<stop offset="0" stop-color="#FFFFFF" stop-opacity="0.545098"/>
			<stop offset="0.978903" stop-color="#FFFFFF" stop-opacity="0"/>
		</radialGradient>
		<path fill="url(#SVGID_Fill21_)" stroke-linejoin="round" d="M 75.6002,5.84705C 79.0521,5.84705 81.8502,9.20447 81.8502,13.347C 81.8502,17.4889 79.0521,20.847 75.6002,20.847C 72.1483,20.847 69.3502,17.4889 69.3502,13.347C 69.3502,9.20447 72.1483,5.84705 75.6002,5.84705 Z "/>
		<radialGradient id="SVGID_Fill22_" cx="82.663" cy="16.8463" r="6.07495" gradientUnits="userSpaceOnUse">
			<stop offset="0" stop-color="#FFFFFF" stop-opacity="0.372549"/>
			<stop offset="0.978903" stop-color="#FFFFFF" stop-opacity="0"/>
		</radialGradient>
		<path fill="url(#SVGID_Fill22_)" stroke-linejoin="round" d="M 82.663,12.3463C 86.0192,12.3463 88.7379,14.3602 88.7379,16.8463C 88.7379,19.3317 86.0181,21.3463 82.663,21.3463C 79.3079,21.3463 76.588,19.3317 76.588,16.8463C 76.588,14.3602 79.3068,12.3463 82.663,12.3463 Z "/>
		<radialGradient id="SVGID_Fill23_" cx="75.5769" cy="13.4633" r="2.25" gradientUnits="userSpaceOnUse">
			<stop offset="0" stop-color="#FFFFFF" stop-opacity="0.901961"/>
			<stop offset="0.978903" stop-color="#FFFFFF" stop-opacity="0"/>
		</radialGradient>
		<path fill="url(#SVGID_Fill23_)" stroke-linejoin="round" d="M 75.5769,11.2133C 76.6124,11.2133 77.4519,12.2206 77.4519,13.4633C 77.4519,14.7059 76.6124,15.7133 75.5769,15.7133C 74.5414,15.7133 73.7019,14.7059 73.7019,13.4633C 73.7019,12.2206 74.5414,11.2133 75.5769,11.2133 Z "/>
		<radialGradient id="SVGID_Fill24_" cx="82.681" cy="16.8593" r="1.6875" gradientUnits="userSpaceOnUse">
			<stop offset="0" stop-color="#FFFFFF" stop-opacity="0.901961"/>
			<stop offset="0.978903" stop-color="#FFFFFF" stop-opacity="0"/>
		</radialGradient>
		<path fill="url(#SVGID_Fill24_)" stroke-linejoin="round" d="M 82.681,15.6093C 83.6134,15.6093 84.3685,16.1688 84.3685,16.8593C 84.3685,17.5497 83.613,18.1093 82.681,18.1093C 81.7491,18.1093 80.9935,17.5497 80.9935,16.8593C 80.9935,16.1688 81.7488,15.6093 82.681,15.6093 Z "/>
		<radialGradient id="SVGID_Fill25_" cx="91.517" cy="8.88269" r="1.8125" gradientUnits="userSpaceOnUse">
			<stop offset="0" stop-color="#FFFFFF" stop-opacity="0.901961"/>
			<stop offset="0.978903" stop-color="#FFFFFF" stop-opacity="0"/>
		</radialGradient>
		<path fill="url(#SVGID_Fill25_)" stroke-linejoin="round" d="M 91.517,7.44519C 92.5179,7.44519 93.3295,8.08875 93.3295,8.88269C 93.3295,9.67639 92.5179,10.3202 91.517,10.3202C 90.516,10.3202 89.7045,9.67639 89.7045,8.88269C 89.7045,8.08875 90.5161,7.44519 91.517,7.44519 Z "/>
	</g>
	<linearGradient id="SVGID_Fill26_" gradientUnits="objectBoundingBox" x1="0.208859" y1="0.607719" x2="1" y2="0.607719">
		<stop offset="0" stop-color="#3F3C3C" stop-opacity="0.0666667"/>
		<stop offset="1" stop-color="#000000" stop-opacity="0.121569"/>
	</linearGradient>
	<path fill="url(#SVGID_Fill26_)" stroke-linejoin="round" d="M 85.7505,32.0966C 92.41,32.0966 97.8085,27.6564 97.8085,22.1791C 97.8085,18.9945 97.604,11.2858 94.7671,9.47107C 95.0114,13.1945 90.5555,22.1749 85.3669,24.8495C 82.2333,26.4647 72.8546,23.5199 69.5795,23.5961C 71.7018,26.4308 73.267,32.1586 85.7505,32.0966 Z "/>
</svg>
