<?xml version="1.0" encoding="utf-8"?>
<!DOCTYPE svg PUBLIC "-//W3C//DTD SVG 1.1//EN" "http://www.w3.org/Graphics/SVG/1.1/DTD/svg11.dtd">
<svg xmlns="http://www.w3.org/2000/svg" xmlns:xlink="http://www.w3.org/1999/xlink" version="1.1" baseProfile="full" width="253.904" height="259.401" viewBox="0 0 253.90 259.40" enable-background="new 0 0 253.90 259.40" xml:space="preserve">
	<g>
		<path fill="#000000" fill-opacity="0.227451" stroke-width="0.32" stroke-linejoin="round" d="M 152.398,178.179L 149.965,181.092L 212.752,234.554L 229.769,214.181L 166.982,160.718L 164.555,163.623L 154.3,154.891L 153.89,155.382C 154.432,154.733 154.684,154.111 155.06,153.324C 155.848,152.062 156.79,150.933 157.282,149.688C 157.936,148.585 158.428,147.34 159.05,145.939L 160.572,142.8L 162.044,139.068L 163.237,135.667L 164.284,132.124L 165.296,128.283L 165.873,124.627C 166.077,123.407 166.41,122.03 166.444,120.678L 166.682,116.45C 166.736,115.389 166.933,114.177 166.833,112.984L 166.64,105.348C 166.439,102.959 166.074,100.434 165.56,97.7794C 165.451,96.5934 165.055,95.419 164.818,94.3902C 164.559,93.0631 164.302,91.7376 163.908,90.5609C 163.649,89.234 163.09,87.9342 162.685,86.7662L 161.505,83.2606C 160.946,81.961 160.558,80.7894 159.867,79.648C 159.338,78.6441 158.935,77.4776 158.242,76.3343L 156.333,73.0448L 154.423,69.7574C 153.73,68.6139 153.066,67.7757 152.242,66.7901C 151.551,65.6485 150.719,64.6705 149.897,63.6864L 147.099,60.4808C 146.426,59.6378 145.601,58.6522 144.804,57.9737C 143.29,56.45 141.699,54.9605 140.057,53.5257C 163.32,78.9376 164.727,118.455 142.067,145.586C 117.525,174.97 74.036,178.708 44.926,153.921C 15.8237,129.141 12.1346,85.2313 36.6766,55.8473C 37.3027,55.0977 37.9413,54.3648 38.5917,53.6483L 38.2993,53.9044C 37.325,54.7352 36.488,55.4168 35.6843,56.379C 33.8975,58.1822 32.2505,59.8341 30.6346,61.7691L 30.4963,61.9347C 2.94019,94.9273 7.08093,144.113 39.7568,171.936C 70.0244,197.708 114.332,195.857 142.547,168.963L 142.143,169.447L 152.398,178.179 Z M 148.679,162.282C 150.032,160.663 151.377,159.052 152.572,157.297C 151.516,158.886 150.163,160.505 148.811,162.125L 148.679,162.282 Z "/>
		<path fill="#C9E3BA" fill-opacity="1" stroke-width="0.914027" stroke-linejoin="round" stroke="#1D1E1C" stroke-opacity="1" d="M 29.7236,51.0338C 2.16748,84.0265 6.3147,133.221 38.9827,161.037C 71.6609,188.862 120.384,184.686 147.94,151.693C 175.496,118.701 171.349,69.5062 138.671,41.6812C 106.003,13.8651 57.2798,18.0411 29.7236,51.0338 Z M 136.88,142.276C 114.455,169.125 74.8965,172.522 48.3031,149.878C 21.7197,127.243 18.349,87.2921 40.7738,60.443C 63.1986,33.5938 102.767,30.2054 129.351,52.8407C 155.944,75.4845 159.305,115.427 136.88,142.276 Z "/>
		<linearGradient id="SVGID_Fill1_" gradientUnits="objectBoundingBox" x1="0.550637" y1="4.16956" x2="4.98494" y2="4.16956" gradientTransform="rotate(258.582672 0.550637 4.169559)">
			<stop offset="0" stop-color="#FFFFFF" stop-opacity="0.00392157"/>
			<stop offset="1" stop-color="#FFFFFF" stop-opacity="0.27451"/>
		</linearGradient>
		<path fill="url(#SVGID_Fill1_)" stroke-width="47" stroke-linejoin="round" d="M 120.163,63.8402C 99.9595,46.3531 69.5293,48.6739 52.2102,69.0738"/>
		<path fill="none" stroke-width="0.914027" stroke-linejoin="round" stroke="#1D1E1C" stroke-opacity="1" d="M 120.163,63.8402C 99.9595,46.3531 69.5293,48.6739 52.2102,69.0738"/>
		<path fill="#5AAF2C" fill-opacity="1" stroke-width="0.914027" stroke-linejoin="round" stroke="#1D1D1B" stroke-opacity="1" d="M 149.201,170.198L 166.217,149.824L 179.99,161.552L 162.974,181.926L 149.201,170.198 Z "/>
		<path fill="#5AAF2C" fill-opacity="1" stroke-width="0.914027" stroke-linejoin="round" stroke="#1D1D1B" stroke-opacity="1" d="M 162.974,181.926L 179.99,161.552L 218.431,194.283L 201.414,214.657L 162.974,181.926 Z "/>
		<path fill="#2E5B16" fill-opacity="1" stroke-width="0.914027" stroke-linejoin="round" d="M 157.709,160.011L 166.217,149.824L 218.275,194.15L 209.766,204.337L 157.709,160.011 Z "/>
		<path fill="#FFFFFF" fill-opacity="1" stroke-width="0.914027" stroke-linejoin="round" stroke="#1D1E1C" stroke-opacity="1" d="M 157.53,177.29L 174.546,156.917L 181.43,162.778L 164.413,183.151L 157.53,177.29 Z "/>
		<path fill="#F5FCEB" fill-opacity="1" stroke-width="0.914027" stroke-linejoin="round" stroke="#1D1E1C" stroke-opacity="1" d="M 147.94,151.693C 145.916,154.117 143.727,156.401 141.374,158.563L 151.627,167.293L 163.791,152.729L 153.537,143.999C 151.825,146.706 149.965,149.269 147.94,151.693 Z "/>
		<path fill="#A9CB97" fill-opacity="1" stroke-width="0.914027" stroke-linejoin="round" d="M 82.2767,23.5545C 61.0277,25.3802 42.4211,35.8314 29.7236,51.0338L 40.7738,60.443C 51.1748,47.9898 66.0847,39.6595 83.5139,38.1617C 118.057,35.1988 148.489,61.1109 151.425,95.9867C 152.906,113.587 147.281,129.823 136.88,142.276L 147.94,151.693C 160.638,136.491 167.699,116.21 165.893,94.7525C 162.279,51.8272 124.792,19.9076 82.2767,23.5545 Z "/>
		<path fill="none" stroke-width="0.914027" stroke-linejoin="round" stroke="#1D1E1C" stroke-opacity="1" d="M 29.7236,51.0338C 2.16748,84.0265 6.3147,133.221 38.9827,161.037C 71.6609,188.862 120.384,184.686 147.94,151.693C 175.496,118.701 171.349,69.5062 138.671,41.6812C 106.003,13.8651 57.2798,18.0411 29.7236,51.0338 Z M 136.88,142.276C 114.455,169.125 74.8965,172.522 48.3031,149.878C 21.7197,127.243 18.349,87.2921 40.7738,60.443C 63.1986,33.5938 102.767,30.2054 129.351,52.8407C 155.944,75.4845 159.305,115.427 136.88,142.276 Z "/>
		<path fill="none" stroke-width="0.914027" stroke-linejoin="round" stroke="#1D1E1C" stroke-opacity="1" d="M 149.201,170.198L 166.217,149.824L 218.275,194.15L 201.258,214.524L 149.201,170.198 Z "/>
		<path fill="#F5FCEB" fill-opacity="1" stroke-width="0.95712" stroke-linejoin="round" stroke="#1D1E1C" stroke-opacity="1" d="M 197.574,211.387L 214.591,191.014L 229.004,203.287L 211.988,223.66L 197.574,211.387 Z "/>
		<path fill="#C7DCA9" fill-opacity="1" stroke-width="0.95712" stroke-linejoin="round" d="M 206.082,201.2L 214.591,191.014L 229.005,203.287L 220.496,213.474L 206.082,201.2 Z "/>
		<path fill="none" stroke-width="0.95712" stroke-linejoin="round" stroke="#1D1D1B" stroke-opacity="1" d="M 197.574,211.387L 214.591,191.014L 229.004,203.287L 211.988,223.66L 197.574,211.387 Z "/>
		<path fill="#000000" fill-opacity="1" stroke-width="0.32" stroke-linejoin="round" d="M 148.811,162.124C 150.163,160.505 151.516,158.885 152.571,157.297C 151.377,159.051 150.031,160.662 148.679,162.282L 148.811,162.124 Z "/>
		<path fill="#FFFFFF" fill-opacity="1" stroke-width="0.32" stroke-linejoin="round" d="M 140.057,53.5257C 138.125,51.4154 136.042,49.4019 133.81,47.5013C 105.45,23.3536 63.4286,26.2906 38.5917,53.6483L 41.3425,51.2374C 42.605,50.3822 43.5732,49.5428 44.7061,48.847C 45.5439,48.18 46.5106,47.3426 47.5116,46.8006L 50.8989,44.714L 54.0249,42.9444C 55.1752,42.5435 56.306,41.8458 57.4709,41.4435C 58.6215,41.0465 59.7523,40.349 60.9105,39.9547L 64.3749,38.7569L 67.9774,37.3929L 72.0659,36.4395L 75.2581,35.5631C 80.3895,34.6781 85.5453,34.0797 90.6112,34.2457C 91.7943,34.1456 93.0009,34.3499 94.052,34.4044C 95.3911,34.4378 96.7284,34.4693 98.2334,34.6402C 99.5785,34.6788 100.944,35.0177 102.142,35.2149L 105.764,35.7975L 109.569,36.8204C 110.644,37.1822 111.843,37.3795 113.076,37.8763L 116.453,39.0875L 120.143,40.5689C 121.236,41.2296 122.312,41.5894 123.414,42.2435L 126.831,44.0465L 130.277,46.1568C 131.081,46.8419 132.176,47.5042 133.111,48.0174C 135.482,49.7169 137.818,51.5704 140.057,53.5257 Z "/>
	</g>
</svg>
