<?xml version="1.0" encoding="utf-8"?>
<!DOCTYPE svg PUBLIC "-//W3C//DTD SVG 1.1//EN" "http://www.w3.org/Graphics/SVG/1.1/DTD/svg11.dtd">
<svg xmlns="http://www.w3.org/2000/svg" xmlns:xlink="http://www.w3.org/1999/xlink" version="1.1" baseProfile="full" width="210" height="210" viewBox="0 0 210.00 210.00" enable-background="new 0 0 210.00 210.00" xml:space="preserve">
	<g>
		<g>
			<radialGradient id="SVGID_Fill1_" cx="86.1807" cy="93.3578" r="67.0314" gradientUnits="userSpaceOnUse">
				<stop offset="0" stop-color="#FFFFFF" stop-opacity="1"/>
				<stop offset="0.870003" stop-color="#E1E1E2" stop-opacity="1"/>
				<stop offset="1" stop-color="#C3C4C6" stop-opacity="1"/>
			</radialGradient>
			<path fill="url(#SVGID_Fill1_)" stroke-width="0.2" stroke-linejoin="round" d="M 11.4082,81.8636L 7.84473,95.3126C 10.4689,97.4064 12.2437,95.4706 14.3799,93.5345L 14.3799,93.5345C 16.0162,92.0526 17.8647,90.5712 20.4707,90.8959L 20.4707,90.8959C 24.7028,91.4318 30.6842,95.2251 35.6881,97.5465L 35.6881,97.5465C 49.8234,104.297 68.126,104.444 83.6783,104.137L 83.6783,104.137C 101.442,103.827 120.82,100.213 137.449,93.6644L 137.449,93.6644C 151.886,87.9427 155.552,76.0121 174.959,69.0702L 174.959,69.0702C 146.581,56.0244 126.968,46.8219 91.4004,40.6278L 91.4004,40.6278C 88.3755,40.0953 85.1011,39.8356 81.6543,39.8356L 81.6543,39.8356C 54.5594,39.8369 17.0944,55.9095 11.4082,81.8636 Z "/>
			<path fill="none" stroke-width="2.17067" stroke-linejoin="round" stroke="#231F20" stroke-opacity="1" d="M 11.4081,81.8634C 17.818,52.6084 64.6005,35.9076 91.4008,40.6278C 126.968,46.8218 146.582,56.0243 174.958,69.0699C 155.553,76.0112 151.887,87.9434 137.449,93.665C 120.82,100.213 101.442,103.827 83.6788,104.137C 68.1259,104.444 49.8232,104.297 35.6885,97.5464C 30.684,95.225 24.7025,91.4316 20.4703,90.8965C 14.4609,90.1459 12.4785,99.0087 7.84436,95.3131L 11.4081,81.8634 Z "/>
			<path fill="none" stroke-width="2.17067" stroke-linejoin="round" stroke="#231F20" stroke-opacity="1" d="M 11.4081,81.8634C 17.818,52.6084 64.6005,35.9076 91.4008,40.6278C 126.968,46.8218 146.582,56.0243 174.958,69.0699C 155.553,76.0112 151.887,87.9434 137.449,93.665C 120.82,100.213 101.442,103.827 83.6788,104.137C 68.1259,104.444 49.8232,104.297 35.6885,97.5464C 30.684,95.225 24.7025,91.4316 20.4703,90.8965C 14.4609,90.1459 12.4785,99.0087 7.84436,95.3131L 11.4081,81.8634 Z "/>
			<path fill="#FAC7CD" fill-opacity="1" stroke-width="0.2" stroke-linejoin="round" d="M 174.959,69.0699C 155.552,76.0112 151.886,87.9427 137.449,93.665C 120.82,100.213 101.442,103.827 83.6783,104.137C 68.1254,104.444 49.8234,104.297 35.6881,97.5465C 30.6842,95.2251 24.7028,91.4318 20.4698,90.8965L 19.899,90.3838C 23.8306,90.7933 29.2733,91.8712 33.8726,93.7203C 46.7705,99.0831 63.4645,99.2042 77.736,98.9526C 93.9542,98.6923 110.779,96.4863 126.294,92.505C 143.861,87.9987 147.555,79.2111 161.121,71.1284L 174.959,69.0699 Z "/>
			<radialGradient id="SVGID_Fill2_" cx="83.735" cy="66.3203" r="30.0128" gradientUnits="userSpaceOnUse" gradientTransform="rotate(-76.279144 83.734985 66.320313)">
				<stop offset="0" stop-color="#6DF8FF" stop-opacity="1"/>
				<stop offset="0.870003" stop-color="#36A0F1" stop-opacity="1"/>
				<stop offset="1" stop-color="#0049E4" stop-opacity="1"/>
			</radialGradient>
			<path fill="url(#SVGID_Fill2_)" stroke-width="0.2" stroke-linejoin="round" d="M 54.1362,61.8925C 51.611,78.1632 62.811,93.3446 79.1564,95.798L 79.1564,95.798C 95.5244,98.254 110.84,87.0214 113.336,70.7196L 113.336,70.7196C 115.843,54.4316 104.618,39.2661 88.2653,36.8346L 88.2653,36.8346C 86.7765,36.6144 85.295,36.5078 83.8322,36.5078L 83.8322,36.5078C 69.2533,36.5078 56.4277,47.1138 54.1362,61.8925 Z "/>
			<path fill="#060959" fill-opacity="1" stroke-width="0.2" stroke-linejoin="round" d="M 88.2655,36.835C 88.2655,36.835 88.9854,36.9766 90.334,37.2404C 90.6698,37.3156 91.0532,37.3619 91.4579,37.481C 91.8627,37.6034 92.3042,37.7373 92.7813,37.8823C 93.2557,38.0341 93.7773,38.1652 94.3125,38.3649C 94.8409,38.5844 95.4015,38.818 95.995,39.0649C 98.3295,40.1053 101.119,41.6079 103.785,44.0182C 106.46,46.391 109.077,49.5752 111.014,53.5577C 112.92,57.5479 114.08,62.3159 113.954,67.4429C 113.95,68.0814 113.853,68.7056 113.807,69.3439L 113.72,70.3003L 113.671,70.7987L 113.577,71.2784C 113.319,72.5602 113.126,73.877 112.682,75.1449C 111.976,77.7358 110.761,80.2274 109.313,82.6071C 108.922,83.1875 108.531,83.7692 108.139,84.3544C 107.729,84.9271 107.253,85.4528 106.81,86.0079L 106.13,86.8324L 105.375,87.5905C 104.861,88.088 104.38,88.6268 103.833,89.0951C 101.671,91.0098 99.1893,92.5869 96.5479,93.8837C 93.8744,95.1305 91.0013,95.9624 88.0591,96.4546C 85.1237,96.8833 82.0031,96.8436 79.141,96.4819C 78.339,96.333 77.6533,96.1805 76.9048,96.0294C 76.5399,95.9459 76.1665,95.8955 75.8091,95.7833L 74.7372,95.4478L 73.666,95.1113C 73.3071,95.0048 72.9517,94.8898 72.6127,94.7291L 70.5522,93.848C 67.8813,92.522 65.3712,90.8888 63.1879,88.9043C 61.0454,86.8871 59.1403,84.6442 57.6528,82.1675C 57.274,81.5557 56.9733,80.8994 56.6328,80.2705L 56.14,79.319L 55.7394,78.3291C 55.4852,77.666 55.181,77.0248 54.9717,76.3522C 54.7728,75.6761 54.5739,75.0034 54.3763,74.3329C 53.725,71.6196 53.3092,68.8949 53.4316,66.1891C 53.3906,64.826 53.6224,63.547 53.7509,62.2578C 53.774,62.0897 53.7775,61.9536 53.8164,61.7603L 53.9204,61.2831L 54.1283,60.3335C 54.2821,59.7074 54.3661,59.0675 54.5752,58.4659C 56.0088,53.5721 58.5634,49.3624 61.5786,46.1359C 64.6323,42.9298 68.0646,40.6591 71.3226,39.1818C 74.5792,37.6636 77.6849,37.0387 80.2217,36.7242C 80.8602,36.6606 81.4652,36.6006 82.0345,36.5438C 82.6046,36.5083 83.142,36.5342 83.6403,36.5267C 84.1393,36.5267 84.6007,36.5267 85.0233,36.5267C 85.4457,36.5302 85.8257,36.5972 86.1683,36.623C 87.5361,36.7612 88.2655,36.835 88.2655,36.835 Z M 88.2655,36.835C 88.2655,36.835 87.5355,36.7672 86.1669,36.6407C 85.8243,36.6177 85.4429,36.5541 85.0205,36.5541C 84.5986,36.5581 84.1381,36.5615 83.6396,36.5656C 83.1426,36.578 82.606,36.5562 82.038,36.5963C 81.4698,36.6578 80.8671,36.7228 80.2299,36.792C 77.7012,37.127 74.6122,37.7762 71.3834,39.3143C 68.1616,40.8175 64.7383,43.0811 61.7994,46.3397C 58.8833,49.5983 56.4613,53.8038 55.1611,58.6259C 54.9683,59.2198 54.9008,59.8495 54.7626,60.4655L 54.5801,61.3979L 54.4878,61.8662C 54.4618,61.9878 54.455,62.1764 54.4371,62.329C 54.3368,63.6134 54.1317,64.9293 54.2061,66.2186C 54.1426,68.8115 54.6068,71.4816 55.293,74.084C 55.4974,74.7286 55.704,75.3746 55.9103,76.024C 56.1256,76.6694 56.4354,77.2838 56.6937,77.9189L 57.0997,78.8651L 57.5953,79.7729C 57.9379,80.3717 58.2393,80.9972 58.6167,81.5782C 60.0927,83.934 61.9266,86.0839 64.0034,88.0013C 66.1151,89.8881 68.5356,91.4308 71.1025,92.6805C 73.6831,93.8877 76.516,94.6548 79.2755,95.1244C 82.2321,95.5031 85.0116,95.5537 87.8724,95.1729C 90.6929,94.7238 93.4561,93.952 96.0332,92.7769C 98.5815,91.5532 100.976,90.0499 103.082,88.2372C 103.62,87.7975 104.092,87.2882 104.599,86.8193L 105.346,86.1044L 106.016,85.3229C 106.455,84.7959 106.928,84.299 107.336,83.7534C 107.727,83.1957 108.119,82.6412 108.507,82.0875C 109.959,79.8146 111.195,77.4214 111.935,74.9139C 112.396,73.6869 112.61,72.4086 112.891,71.1616L 112.992,70.6934L 113.047,70.2313L 113.156,69.277C 113.215,68.644 113.326,68.0096 113.342,67.3888C 113.571,62.4274 112.541,57.6654 110.739,53.687C 108.926,49.6899 106.321,46.514 103.687,44.1276C 101.055,41.7062 98.2876,40.1852 95.9668,39.1278C 95.3776,38.8761 94.8192,38.6383 94.2941,38.4147C 93.7616,38.2111 93.2421,38.0757 92.7697,37.9191C 92.2946,37.7709 91.8544,37.6334 91.4517,37.5077C 91.047,37.3853 90.6649,37.3354 90.3306,37.2582C 88.9839,36.9819 88.2655,36.835 88.2655,36.835 Z "/>
			<path fill="#56C7EA" fill-opacity="1" fill-rule="evenodd" stroke-width="0.2" stroke-linejoin="round" d="M 78.953,92.5405C 78.5454,91.1617 79.912,75.2285 76.0537,79.231C 72.1942,83.234 61.8281,93.1572 66.4609,85.1298C 71.0792,77.1139 72.7562,70.7627 68.7538,73.0773C 64.7396,75.4049 55.0366,73.9707 62.5787,70.2227C 70.121,66.4723 68.6553,62.6476 64.4095,62.4481C 60.1738,62.2491 56.9316,57.4408 64.7172,56.494C 72.5127,55.5553 76.4169,55.2252 71.808,50.8248C 67.1884,46.4259 70.639,41.0557 76.451,46.2052C 82.2499,51.3431 84.9398,49.9874 84.7422,44.65C 84.5331,39.314 90.3094,41.0782 90.7524,45.83C 91.1816,50.583 93.8716,55.4248 98.8885,51.9058C 103.896,48.377 109.079,55.8207 104.359,56.5043C 99.6514,57.1879 98.2828,66.8915 105.351,67.4205C 112.431,67.9401 112.453,74.4233 106.046,71.8646C 99.6289,69.3169 92.395,70.2109 99.5072,77.224C 106.609,84.2369 106.454,88.7574 99.7607,83.1234C 89.3633,74.3911 81.6436,75.647 81.9189,78.7238C 82.2061,81.8121 79.3617,93.918 78.953,92.5405 Z "/>
			<path fill="#000000" fill-opacity="1" fill-rule="evenodd" stroke-width="2.15067" stroke-linejoin="round" stroke="#001A1C" stroke-opacity="1" d="M 95.8898,65.2596C 95.2733,58.5446 89.3506,53.5599 82.6473,54.1224C 75.9438,54.6953 71.0035,60.6069 71.6093,67.3329C 72.2157,74.0587 78.1493,79.0538 84.8519,78.481C 91.5565,77.9073 96.4976,71.9855 95.8898,65.2596 Z "/>
			<path fill="#FFFFFF" fill-opacity="1" fill-rule="evenodd" stroke-width="0.2" stroke-linejoin="round" d="M 87.202,53.4391C 88.3812,58.048 90.7848,62.6793 93.3872,59.9996C 96.0116,57.2762 97.2235,51.5865 94.3456,48.7963C 91.4464,45.9854 88.2158,43.2495 85.5594,46.1494C 82.9336,49.0171 86.1978,49.5236 87.202,53.4391 Z "/>
			<path fill="#99E5FF" fill-opacity="0.603922" fill-rule="evenodd" stroke-width="0.2" stroke-linejoin="round" d="M 82.9009,79.3619C 82.4594,74.4894 78.6669,72.8131 73.3525,73.2657C 68.0361,73.7169 58.8965,75.2393 59.3368,80.1017C 59.7777,84.9764 68.7539,89.4635 74.0682,89.0123C 79.3832,88.5488 83.3418,84.2257 82.9009,79.3619 Z "/>
			<path fill="#FFFFFF" fill-opacity="1" fill-rule="evenodd" stroke-width="0.2" stroke-linejoin="round" d="M 71.1396,80.5675C 70.9297,78.2407 68.8893,76.5206 66.5739,76.7189C 64.2599,76.9171 62.5605,78.9576 62.7704,81.2833C 62.9789,83.6001 65.0201,85.3193 67.3348,85.1211C 69.6405,84.9229 71.3488,82.8829 71.1396,80.5675 Z "/>
			<path fill="#549ACD" fill-opacity="1" fill-rule="evenodd" stroke-width="0.2" stroke-linejoin="round" d="M 63.108,74.3579C 62.9425,72.5048 61.1119,71.1484 59.0277,71.3248C 56.944,71.5011 55.4005,73.1445 55.5659,75.0079C 55.73,76.8593 57.549,78.2271 59.6339,78.0405C 61.7183,77.8627 63.2721,76.2207 63.108,74.3579 Z "/>
			<path fill="#549ACD" fill-opacity="1" fill-rule="evenodd" stroke-width="0.2" stroke-linejoin="round" d="M 94.954,89.3423C 94.8104,87.7213 93.7515,86.4862 92.5934,86.5853C 91.4347,86.6851 90.6097,88.0748 90.7628,89.7065C 90.9064,91.3273 91.9653,92.5736 93.1219,92.4738C 94.2813,92.3746 95.0953,90.9746 94.954,89.3423 Z "/>
			<path fill="#549ACD" fill-opacity="1" fill-rule="evenodd" stroke-width="0.2" stroke-linejoin="round" d="M 89.5826,90.9971C 89.4391,89.3641 87.6317,88.1952 85.548,88.3721C 83.463,88.5492 81.8861,90.0148 82.0405,91.6362C 82.1835,93.2681 83.9922,94.437 86.0765,94.2593C 88.1602,94.0835 89.7275,92.6166 89.5826,90.9971 Z "/>
			<path fill="#549ACD" fill-opacity="1" fill-rule="evenodd" stroke-width="0.2" stroke-linejoin="round" d="M 106.796,64.7523C 106.63,62.8998 104.998,61.5215 103.147,61.687C 101.304,61.8408 99.9364,63.474 100.103,65.3263C 100.279,67.1776 101.911,68.5565 103.763,68.4033C 105.606,68.2365 106.972,66.6055 106.796,64.7523 Z "/>
			<path fill="#D6DCE3" fill-opacity="1" stroke-width="0.2" stroke-linejoin="round" d="M 2.80627,94.1841C 2.80627,94.1841 2.76404,93.3234 2.68457,91.7089C 2.64844,90.9015 2.57178,89.9082 2.61365,88.7318C 2.62109,88.1432 2.62854,87.5103 2.63757,86.8354C 2.64502,86.4971 2.65186,86.1484 2.6593,85.7896C 2.6886,85.4327 2.71875,85.0656 2.74951,84.6876C 2.81104,83.9323 2.87659,83.1353 2.94434,82.2992C 3.00586,81.4624 3.17676,80.5997 3.29639,79.6913C 3.42969,78.7842 3.54871,77.8353 3.78857,76.8735C 4.0094,75.9088 4.20154,74.8971 4.4696,73.8705C 5.52356,69.7573 7.22168,65.2162 9.7865,60.6217C 12.3309,56.0177 15.8116,51.4205 20.1224,47.191C 21.1698,46.1007 22.3434,45.1185 23.496,44.0815C 24.0626,43.5509 24.6971,43.0985 25.3013,42.5988C 25.9193,42.1168 26.5175,41.6001 27.1621,41.1393C 28.4532,40.2233 29.7262,39.243 31.1078,38.4034C 31.7906,37.9716 32.4688,37.5216 33.1654,37.0986C 33.8722,36.691 34.5817,36.2823 35.2941,35.8716C 36.0016,35.4491 36.7318,35.0649 37.4707,34.6896C 38.2075,34.3102 38.9473,33.9287 39.6896,33.5459C 40.4471,33.1953 41.2072,32.8424 41.9694,32.4891L 43.1172,31.9606L 44.2867,31.4761C 47.3882,30.1183 50.6421,29.0425 53.9342,28.0211C 54.7656,27.7928 55.5981,27.5645 56.4321,27.3354L 57.6846,26.9923L 58.9506,26.6949C 59.7954,26.4967 60.6411,26.2985 61.4882,26.1002L 64.0516,25.5972L 65.3353,25.3456L 66.6273,25.1398L 69.2153,24.729L 71.8185,24.4097L 73.1207,24.2505L 74.4277,24.1356L 77.0433,23.9224L 79.6627,23.8013C 81.4072,23.6919 83.1547,23.735 84.8964,23.6981C 88.3929,23.7925 91.7466,23.8232 95.2042,24.0741C 102.059,24.4479 108.709,25.2423 115.135,26.0757C 121.561,26.8871 127.734,27.8468 133.589,28.6323C 136.517,29.0562 139.366,29.3617 142.122,29.7233C 143.501,29.871 144.856,30.0157 146.188,30.1581C 146.853,30.2291 147.512,30.2994 148.165,30.3693C 148.819,30.4199 149.466,30.4697 150.106,30.5197C 151.39,30.6182 152.645,30.7152 153.872,30.8096C 155.1,30.8649 156.299,30.9189 157.469,30.9708C 158.639,31.0092 159.781,31.1089 160.889,31.0939C 161.998,31.0946 163.076,31.0952 164.12,31.0967C 166.214,31.1479 168.16,30.975 169.971,30.9121C 170.873,30.86 171.745,30.8566 172.57,30.7692C 173.395,30.6831 174.182,30.6017 174.93,30.5244C 175.677,30.4464 176.384,30.3734 177.051,30.3043C 177.719,30.2407 178.345,30.1832 178.918,30.0739C 180.074,29.8873 181.055,29.728 181.851,29.5996C 183.447,29.3412 184.298,29.2031 184.298,29.2031C 184.298,29.2031 183.461,29.4039 181.889,29.7814C 181.102,29.9701 180.131,30.2025 178.99,30.4766C 177.849,30.7726 176.507,30.9298 175.019,31.1984C 174.271,31.3229 173.485,31.4541 172.66,31.5923C 171.833,31.7316 170.96,31.7897 170.054,31.8984C 168.239,32.0858 166.273,32.3408 164.164,32.4043C 163.109,32.457 162.021,32.5117 160.9,32.5684C 159.778,32.6416 158.626,32.6006 157.441,32.6217C 156.256,32.6271 155.04,32.6388 153.796,32.6177C 152.554,32.5724 151.283,32.526 149.985,32.4781C 149.336,32.4542 148.679,32.4303 148.017,32.4049C 147.356,32.3613 146.688,32.3175 146.016,32.2731C 144.667,32.1836 143.294,32.0927 141.898,31.9996C 139.116,31.7446 136.23,31.4985 133.284,31.1656C 127.378,30.5464 121.178,29.7889 114.774,29.0636C 111.573,28.6884 108.318,28.3834 105.024,28.069C 103.377,27.9432 101.718,27.816 100.052,27.689C 98.3843,27.5352 96.7197,27.4585 95.0477,27.3702C 91.7357,27.1447 88.2494,27.1304 84.8842,27.0586C 83.1957,27.1051 81.5004,27.0709 79.8091,27.1879L 77.2695,27.3198L 74.7347,27.5377L 73.4659,27.6411L 72.2032,27.7887L 69.6774,28.0834L 67.1666,28.4674L 65.913,28.6588L 64.6681,28.8961L 62.1812,29.3685C 61.3602,29.5565 60.5405,29.7438 59.7217,29.9312L 58.494,30.2114L 57.2806,30.5375C 56.4712,30.7534 55.6637,30.9702 54.8585,31.1862C 48.4745,33.0968 42.3022,35.4347 36.7455,38.5C 31.183,41.5337 26.1122,45.0508 21.8785,49.0293C 17.6382,52.9901 14.1108,57.2653 11.473,61.608C 8.83838,65.9523 6.95764,70.2657 5.72034,74.23C 5.15039,76.2233 4.59387,78.0944 4.26514,79.8668C 4.09277,80.7515 3.87061,81.5917 3.76062,82.4113C 3.64246,83.2316 3.52966,84.0128 3.42224,84.7545C 3.36816,85.1259 3.31628,85.4874 3.26563,85.8389C 3.23694,86.1923 3.20837,86.5347 3.18079,86.8668C 3.12354,87.5333 3.06946,88.1576 3.01953,88.7379C 2.89111,89.8994 2.89246,90.8994 2.86914,91.7067C 2.82813,93.3221 2.80627,94.1841 2.80627,94.1841 Z "/>
			<path fill="#D6DCE3" fill-opacity="1" stroke-width="0.2" stroke-linejoin="round" d="M 4.95313,101.471C 4.95313,101.471 5.15625,101.483 5.53699,101.505C 5.91699,101.545 6.47559,101.535 7.18372,101.667C 7.53711,101.726 7.93909,101.774 8.36572,101.859C 8.79016,101.949 9.24548,102.065 9.73694,102.181C 10.2196,102.328 10.7338,102.484 11.275,102.649C 11.8036,102.848 12.3661,103.053 12.9355,103.301C 14.0791,103.79 15.2919,104.388 16.5101,105.114C 17.7275,105.835 18.9969,106.624 20.2363,107.509C 21.4716,108.379 22.7485,109.279 24.0459,110.193C 24.6885,110.639 25.3359,111.089 25.9867,111.54L 26.4747,111.874L 26.7202,112.041L 26.751,112.062L 26.766,112.073C 26.811,112.101 26.7216,112.044 26.7367,112.054L 26.8016,112.093L 26.9301,112.172L 27.9615,112.804C 28.6459,113.222 29.3301,113.68 30.0103,114.067C 30.687,114.421 31.3604,114.774 32.0289,115.124C 32.6818,115.501 33.3969,115.77 34.0804,116.078C 34.4249,116.229 34.7667,116.379 35.1064,116.527L 35.6151,116.75L 36.1373,116.921C 36.83,117.154 37.517,117.366 38.1813,117.609C 38.8466,117.85 39.5314,117.976 40.1815,118.159C 41.483,118.53 42.7552,118.74 43.9257,118.978C 44.2188,119.036 44.5059,119.093 44.787,119.148C 45.0713,119.188 45.3488,119.227 45.6188,119.264C 46.161,119.348 46.6757,119.427 47.1591,119.5C 48.1263,119.659 48.9786,119.757 49.6807,119.845C 51.0848,120.023 51.8929,120.156 51.8929,120.156C 51.8929,120.156 51.0869,120.26 49.6678,120.389C 48.9581,120.45 48.0956,120.546 47.1016,120.546C 46.1083,120.546 44.9803,120.652 43.7526,120.54C 43.1353,120.503 42.4941,120.466 41.829,120.427C 41.1605,120.411 40.4838,120.254 39.7775,120.16C 39.0775,120.036 38.3419,119.972 37.6133,119.789C 36.8824,119.618 36.1429,119.405 35.3854,119.208L 34.8153,119.056L 34.2574,118.853C 33.8837,118.717 33.5077,118.579 33.1295,118.44C 32.3721,118.16 31.5962,117.905 30.8588,117.504C 30.1122,117.133 29.3589,116.759 28.6035,116.384C 27.8851,115.983 27.2206,115.549 26.526,115.13L 25.5006,114.488L 25.3721,114.408L 25.2006,114.295L 24.9476,114.119L 24.4438,113.767C 23.765,113.306 23.1265,112.807 22.4799,112.33C 21.1947,111.366 19.9937,110.364 18.8082,109.439C 17.6229,108.514 16.4984,107.62 15.3993,106.816C 14.2953,106.027 13.2377,105.306 12.2266,104.694C 11.7235,104.381 11.2169,104.133 10.7509,103.854C 10.2681,103.61 9.81006,103.377 9.38025,103.159C 8.93848,102.966 8.52014,102.792 8.13672,102.614C 7.7511,102.446 7.38879,102.322 7.06201,102.194C 6.41345,101.933 5.86572,101.782 5.50769,101.658C 5.146,101.536 4.95313,101.471 4.95313,101.471 Z "/>
		</g>
		<path fill="#001105" fill-opacity="1" stroke-width="0.2" stroke-linejoin="round" d="M 114.373,22.7858C 114.813,29.3348 110.351,35.9474 105.11,39.8815C 112.532,36.9374 120.48,31.0128 122.707,25.4686C 122.673,32.6654 116.686,39.5229 110.523,42.7979C 119.119,41.1022 129.583,36.1025 132.844,30.8568C 131.676,37.222 125.846,42.4969 119.855,45.0543C 128.207,43.9818 138.72,39.1259 142.215,33.4996C 141.048,39.8682 135.206,45.1305 129.231,47.6866C 137.563,46.619 148.057,41.765 151.554,36.1359C 150.374,42.5587 144.454,47.8638 138.41,50.394C 146.352,48.8749 155.524,44.3395 158.773,39.1631C 157.509,45.9034 151.055,51.4014 144.718,53.7671C 153.404,53.3042 164.191,49.9844 168.146,45.3832C 166.026,51.4839 159.482,55.8051 153.183,57.433C 161.579,57.6299 172.657,54.422 176.975,49.3927C 174.854,55.5128 168.286,59.8359 161.979,61.4551C 170.383,61.6675 181.51,58.4515 185.84,53.4139C 183.698,59.5996 176.988,63.9564 170.627,65.5299C 178.727,65.2469 188.525,62.1432 192.493,57.4916C 189.871,65.0507 180.469,69.8715 173.144,70.2316L 172.932,70.1177L 166.079,73.6617C 171.045,73.5055 177.438,75.9435 179.827,80.6514C 176.684,77.838 169.719,76.6104 164.166,77.1488C 168.654,77.6503 173.651,79.9979 175.663,84.0446C 172.649,81.3436 166.101,80.0936 160.674,80.4745C 164.768,81.2531 168.973,83.5278 170.759,87.1713C 167.1,83.8656 158.146,82.7365 152.409,84.1097C 157.373,83.8627 163.936,86.3027 166.325,91.108C 162.027,87.2178 149.064,86.226 143.86,88.79L 151.774,84.2759C 151.076,84.4747 150.435,84.7147 149.869,84.996L 156.484,80.2157L 157.037,80.1831L 160.114,77.9625L 158.869,78.4694L 164.532,74.3829C 136.944,62.5804 120.859,52.5468 87.5073,48.9266C 61.9503,46.1627 20.3729,60.9865 14.0558,83.4584C 10.0294,100.238 8.21582,95.6974 8.21582,95.6974L 7.84473,95.3131L 11.4082,81.8634C 13.1696,73.8236 17.9803,66.7319 24.5874,60.7725C 21.0638,56.6094 17.8312,48.632 20.4354,43.4595C 19.901,49.3033 23.257,54.6694 28.3042,57.6796L 28.6016,57.4521C 25.2484,53.1641 22.3688,45.6161 24.8422,40.653C 24.3063,46.401 27.5508,51.6831 32.4652,54.7174L 33.9242,53.7794C 30.1517,48.975 26.8812,40.5226 29.6759,34.9595C 29.0973,41.5947 32.963,47.6632 38.7255,50.9966L 39.0082,50.8458C 35.1945,46.0898 31.7755,37.459 34.6476,31.8047C 34.0052,38.693 38.1997,44.9932 44.3735,48.2261L 44.39,48.2188C 41.1984,42.1445 39.3575,31.8667 43.7455,26.297C 41.6332,33.421 44.5034,40.9347 50.0887,45.8842L 50.459,45.7562C 47.3275,39.673 45.5249,29.4766 49.8926,23.92C 47.9121,30.5044 50.2218,37.3993 54.9769,42.314C 55.7455,36.5006 55.9673,28.563 54.1266,21.9965C 58.48,29.955 60.4899,36.1837 60.016,42.4264C 63.7233,36.0111 63.245,26.1171 59.9664,19.7238C 65.1958,24.3151 67.6357,33.6678 66.2549,40.3237C 70.5555,34.1205 73.0468,24.5225 71.2183,18.3778C 75.5425,23.8666 75.066,32.87 72.2676,39.0538C 77.9794,33.7372 82.6051,24.6251 82.0977,17.9634C 85.2047,24.4276 82.9186,33.2065 78.8671,38.8627C 85.3378,34.3768 91.2841,25.7632 91.6382,18.9904C 93.8917,25.6869 90.6274,33.9105 86.0015,39.0234C 93.7064,35.5607 102.468,27.6646 104.131,21.1556C 105.015,28.3761 99.8854,36.0342 94.1315,40.0433C 102.251,37.3325 112.231,29.506 114.373,22.7858 Z M 97.504,41.7526L 97.7882,41.7349L 97.0319,41.6659L 97.504,41.7526 Z M 105.432,43.4032L 106.197,43.3724L 101.98,42.6559L 105.432,43.4032 Z M 118.019,46.5464L 116.808,46.1167L 116.627,46.1642L 118.019,46.5464 Z M 131.985,50.8999L 132.25,50.915L 126.189,48.7513L 125.797,48.8529L 131.985,50.8999 Z M 67.9625,102.989C 68.7314,106.684 68.026,111.12 65.6758,115.955C 66.922,110.508 65.576,105.345 64.7031,103.288L 67.9625,102.989 Z M 89.1163,104.115C 92.6396,105.834 96.2676,110.196 95.9625,114.468C 94.8651,111.04 89.9899,107.055 85.7939,105.423C 88.4127,108.027 90.3556,112.325 89.3473,115.958C 88.9424,112.334 85.5421,107.897 81.9625,105.68C 84.3022,108.577 85.7599,113.216 84.2802,116.745C 84.3805,112.287 80.0472,105.922 75.9164,104.167L 79.7484,104.618L 79.4408,104.523L 84.7134,104.476L 84.7587,104.511L 89.1163,104.115 Z M 76.2515,104.476C 78.2701,107.657 78.7363,113.516 76.3842,116.826C 77.3945,112.661 75.8857,107.021 72.3906,104.476L 76.2515,104.476 Z M 71.9551,104.329C 73.3619,107.81 72.351,113.595 69.4313,116.402C 71.2148,112.513 71.2148,107.605 68.2596,104.476L 71.9551,104.329 Z M 42.6035,99.9066L 46.5996,101.16L 46.6298,101.146L 51.5313,102.242L 51.3112,102.26L 54.8916,102.569L 54.1691,102.753L 57.6119,102.291C 53.8187,103.986 49.9203,109.84 50.0248,113.929C 48.5972,110.627 50.0336,106.243 52.2456,103.566C 48.7281,105.441 45.2335,109.335 44.6157,112.709C 43.9229,109.088 46.1847,105.055 48.9419,102.821C 45.1714,104.178 41.1044,107.648 40.0468,110.944C 39.8086,107.347 42.4731,103.725 45.434,101.815C 41.202,102.511 35.8346,105.247 34.1742,108.225C 34.7394,104.165 38.9708,100.831 42.6035,99.9066 Z M 56.3727,103.243L 60.2638,102.992C 56.8788,105.348 55.4268,111.023 56.3058,115.028C 54.1532,111.811 54.3896,106.212 56.3727,103.243 Z M 61.6757,103.683L 65.373,102.166C 64.1249,103.911 61.4097,110.193 61.4404,115.541C 60.2345,110.526 60.2017,106.971 61.6757,103.683 Z M 127.902,110.352C 126.258,106.561 120.07,102.943 114.778,101.798C 118.287,103.999 121.55,108.067 121.693,112.359C 120.195,108.715 115.051,104.878 110.397,103.09C 113.834,105.31 116.957,109.293 117.091,113.481C 115.474,109.573 109.597,105.383 104.685,103.835C 108.056,106.081 111.076,110.014 111.211,114.154C 109.615,110.221 103.698,106.026 98.7753,104.479C 102.172,106.723 105.234,110.666 105.371,114.792C 103.356,109.839 93.2822,103.751 88.1758,103.805L 96.4008,103.216L 97.0829,103.517L 102.282,102.55L 102.984,102.861L 106.854,102.14L 105.671,102.062L 112.761,100.753L 112.951,100.833L 116.455,99.8809L 116.019,99.9286L 123.812,97.547L 124.915,97.8707L 130.06,95.9009L 130.904,95.9879L 136.206,93.2902L 137.012,93.3721L 141,91.3275L 139.73,91.6373L 146.984,87.944C 152.021,88.2769 158.398,91.7427 160.112,96.9845C 157.421,93.7212 150.737,91.4496 145.189,91.1312C 149.534,92.309 154.073,95.3917 155.446,99.6787C 152.544,96.1337 144.924,93.7715 139.145,93.8082C 143.474,94.999 147.945,98.058 149.331,102.312C 146.414,98.7886 138.819,96.4092 133.043,96.4326C 137.356,97.6357 141.795,100.698 143.155,104.933C 140.499,101.693 133.111,99.2529 127.137,98.8203C 130.995,100.813 134.555,104.481 135.125,108.726C 132.948,104.802 126.009,101.165 120.34,100.133C 124.238,101.986 127.848,105.885 127.902,110.352 Z "/>
	</g>
	<g>
		<filter id="Filter_GaussianBlur1_" filterUnits="userSpaceOnUse">
			<feGaussianBlur stdDeviation="5.66929"/>
		</filter>
		<path fill="#000000" fill-opacity="1" stroke-width="0.2" stroke-linejoin="round" filter="url(#Filter_GaussianBlur1_)" d="M 150.227,91.2041C 147.945,91.2041 146.502,93.083 146.111,95.3297L 144.16,106.527C 140.581,107.877 137.302,109.803 134.398,112.187L 123.708,108.251C 121.712,107.149 119.224,107.775 118.083,109.752L 111.87,120.53C 110.731,122.506 111.619,124.696 113.37,126.158L 122.108,133.442C 121.806,135.284 121.646,137.173 121.646,139.101C 121.646,141.023 121.786,142.912 122.085,144.75L 113.37,152.034C 111.417,153.212 110.719,155.684 111.859,157.66L 118.083,168.44C 119.224,170.415 121.567,170.725 123.708,169.938L 134.375,166.027C 137.286,168.417 140.584,170.334 144.172,171.687L 146.111,182.884C 146.111,185.164 147.945,187 150.227,187L 162.673,187C 164.955,187 166.4,185.13 166.789,182.884L 168.728,171.687C 172.316,170.334 175.616,168.417 178.525,166.027L 189.192,169.938C 191.167,171.079 193.678,170.404 194.817,168.429L 201.042,157.648C 202.182,155.674 201.282,153.496 199.53,152.034L 190.803,144.738C 191.102,142.904 191.266,141.02 191.266,139.101C 191.266,137.178 191.104,135.291 190.803,133.452L 199.53,126.169C 201.506,125.028 202.182,122.518 201.042,120.542L 194.817,109.775C 193.678,107.799 191.333,107.476 189.192,108.263L 178.525,112.187C 175.616,109.797 172.316,107.879 168.728,106.527L 166.789,95.3297C 166.745,93.0497 164.955,91.2041 162.673,91.2041M 156.45,126.653C 163.325,126.653 168.898,132.226 168.898,139.101C 168.898,145.976 163.325,151.55 156.45,151.55C 149.575,151.55 144.003,145.976 144.003,139.101C 144.003,132.226 149.575,126.653 156.45,126.653 Z "/>
		<path fill="#B3B3B3" fill-opacity="1" stroke-width="0.2" stroke-linejoin="round" d="M 154.58,73.432C 152.298,73.432 150.855,75.3109 150.464,77.5576L 148.513,88.7552C 144.934,90.1053 141.655,92.0313 138.751,94.4147L 128.061,90.4794C 126.065,89.377 123.577,90.0031 122.436,91.9795L 116.223,102.758C 115.084,104.734 115.972,106.924 117.723,108.385L 126.461,115.67C 126.159,117.512 125.999,119.401 125.999,121.329C 125.999,123.251 126.139,125.14 126.438,126.978L 117.723,134.262C 115.77,135.44 115.072,137.912 116.212,139.888L 122.436,150.668C 123.577,152.643 125.92,152.953 128.061,152.166L 138.728,148.255C 141.639,150.645 144.937,152.562 148.525,153.915L 150.464,165.112C 150.464,167.392 152.298,169.227 154.58,169.227L 167.026,169.227C 169.308,169.227 170.752,167.358 171.141,165.112L 173.081,153.915C 176.668,152.562 179.969,150.645 182.878,148.255L 193.545,152.166C 195.52,153.307 198.031,152.632 199.17,150.656L 205.395,139.876C 206.535,137.902 205.635,135.724 203.883,134.262L 195.156,126.966C 195.455,125.132 195.619,123.248 195.619,121.329C 195.619,119.406 195.457,117.519 195.156,115.68L 203.883,108.397C 205.859,107.256 206.535,104.746 205.395,102.77L 199.17,92.0026C 198.031,90.0265 195.685,89.7041 193.545,90.4908L 182.878,94.4147C 179.969,92.0243 176.668,90.1069 173.081,88.7552L 171.141,77.5576C 171.098,75.2775 169.308,73.432 167.026,73.432M 160.803,108.881C 167.678,108.881 173.251,114.454 173.251,121.329C 173.251,128.204 167.678,133.778 160.803,133.778C 153.928,133.778 148.356,128.204 148.356,121.329C 148.356,114.454 153.928,108.881 160.803,108.881 Z "/>
		<path fill="none" stroke-width="2.04213" stroke-linejoin="round" stroke="#999999" stroke-opacity="1" d="M 160.803,73.432C 152.298,73.432 150.855,75.3109 150.464,77.5576L 148.513,88.7552C 144.934,90.1053 141.655,92.0313 138.751,94.4147L 128.061,90.4794C 126.065,89.377 123.577,90.0031 122.436,91.9795L 116.223,102.758C 115.084,104.734 115.972,106.924 117.723,108.385L 126.461,115.67C 126.159,117.512 125.999,119.401 125.999,121.329C 125.999,123.251 126.139,125.14 126.438,126.978L 117.723,134.262C 115.77,135.44 115.072,137.912 116.212,139.888L 122.436,150.668C 123.577,152.643 125.92,152.953 128.061,152.166L 138.728,148.255C 141.639,150.645 144.937,152.562 148.525,153.915L 150.464,165.112C 150.464,167.392 152.298,169.227 154.58,169.227L 167.026,169.227C 169.308,169.227 170.752,167.358 171.141,165.112L 173.081,153.915C 176.668,152.562 179.969,150.645 182.878,148.255L 193.545,152.166C 195.52,153.307 198.031,152.632 199.17,150.656L 205.395,139.876C 206.535,137.902 205.635,135.724 203.883,134.262L 195.156,126.966C 195.455,125.132 195.619,123.248 195.619,121.329C 195.619,119.406 195.457,117.519 195.156,115.68L 203.883,108.397C 205.859,107.256 206.535,104.746 205.395,102.77L 199.17,92.0026C 198.031,90.0265 195.685,89.7041 193.545,90.4908L 182.878,94.4147C 179.969,92.0243 176.668,90.1069 173.081,88.7552L 171.141,77.5576C 171.098,75.2775 169.308,73.432 160.803,73.432 Z M 160.803,108.881C 167.678,108.881 173.251,114.454 173.251,121.329C 173.251,128.204 167.678,133.778 160.803,133.778C 153.928,133.778 148.356,128.204 148.356,121.329C 148.356,114.454 153.928,108.881 160.803,108.881 Z "/>
		<linearGradient id="SVGID_Fill3_" gradientUnits="objectBoundingBox" x1="0.499975" y1="0.998563" x2="1.4971" y2="0.998563" gradientTransform="rotate(-90.000000 0.499975 0.998563)">
			<stop offset="0" stop-color="#505050" stop-opacity="1"/>
			<stop offset="1" stop-color="#C4C0C0" stop-opacity="1"/>
		</linearGradient>
		<path fill="url(#SVGID_Fill3_)" stroke-width="3.15801" stroke-linejoin="miter" stroke="#666666" stroke-opacity="1" d="M 160.803,75.3242C 152.298,75.3242 150.855,77.2035 150.464,79.4518L 148.513,90.6479C 144.934,91.9991 141.655,93.9233 138.751,96.309L 128.061,92.3732C 126.065,91.2709 123.577,91.8973 122.436,93.8734L 116.223,104.652C 115.084,106.628 115.972,108.816 117.723,110.278L 126.461,117.562C 126.159,119.404 125.999,121.295 125.999,123.223C 125.999,125.145 126.139,127.033 126.438,128.872L 117.723,136.155C 115.77,137.334 115.072,139.806 116.212,141.782L 122.436,152.561C 123.577,154.536 125.92,154.846 128.061,154.061L 138.728,150.147C 141.639,152.537 144.937,154.457 148.525,155.808L 150.464,167.004C 150.464,169.286 152.298,171.12 154.58,171.12L 167.026,171.12C 169.308,171.12 170.752,169.252 171.141,167.004L 173.081,155.808C 176.668,154.457 179.969,152.539 182.878,150.147L 193.545,154.061C 195.52,155.201 198.031,154.525 199.17,152.549L 205.395,141.77C 206.535,139.794 205.635,137.616 203.883,136.155L 195.156,128.86C 195.455,127.026 195.619,125.14 195.619,123.223C 195.619,121.3 195.457,119.411 195.156,117.574L 203.883,110.29C 205.859,109.149 206.535,106.638 205.395,104.664L 199.17,93.8951C 198.031,91.9191 195.685,91.5985 193.545,92.3853L 182.878,96.309C 179.969,93.9186 176.668,92.0009 173.081,90.6479L 171.141,79.4518C 171.098,77.1719 169.308,75.3242 160.803,75.3242 Z M 160.803,110.774C 167.678,110.774 173.251,116.348 173.251,123.223C 173.251,130.098 167.678,135.67 160.803,135.67C 153.928,135.67 148.356,130.098 148.356,123.223C 148.356,116.348 153.928,110.774 160.803,110.774 Z "/>
		<path fill="none" stroke-width="10.1561" stroke-linejoin="miter" stroke="#FFFFFF" stroke-opacity="1" d="M 184.614,123.223C 184.614,136.372 173.954,147.032 160.806,147.032C 147.656,147.032 136.999,136.372 136.999,123.223C 136.999,110.072 147.656,99.4137 160.806,99.4137C 173.954,99.4137 184.614,110.072 184.614,123.223 Z "/>
	</g>
</svg>
