<?xml version="1.0" encoding="utf-8"?>
<!DOCTYPE svg PUBLIC "-//W3C//DTD SVG 1.1//EN" "http://www.w3.org/Graphics/SVG/1.1/DTD/svg11.dtd">
<svg xmlns="http://www.w3.org/2000/svg" xmlns:xlink="http://www.w3.org/1999/xlink" version="1.1" baseProfile="full" width="257" height="75" viewBox="0 0 257.00 75.00" enable-background="new 0 0 257.00 75.00" xml:space="preserve">
	<rect x="10.7501" y="44.1669" fill="#DADADA" fill-opacity="1" stroke-width="0.2" stroke-linejoin="miter" width="16.9167" height="16.9166"/>
	<rect x="80.3334" y="22.1669" fill="#DADADA" fill-opacity="1" stroke-width="0.2" stroke-linejoin="miter" width="38.6667" height="38.6667"/>
	<rect x="130.667" y="15.8003" fill="#DADADA" fill-opacity="1" stroke-width="0.2" stroke-linejoin="miter" width="45" height="45"/>
	<rect x="188.667" y="10.0836" fill="#BEBDBD" fill-opacity="1" stroke-width="0.2" stroke-linejoin="miter" width="62.4668" height="56.7111"/>
	<rect x="39.2668" y="32.8003" fill="#CED0D3" fill-opacity="1" stroke-width="0.2" stroke-linejoin="miter" width="28.4333" height="28.4333"/>
	<rect x="3.36438" y="7.16689" fill="none" stroke-width="6" stroke-linejoin="miter" stroke="#ABABAB" stroke-opacity="1" width="249.636" height="62.6667"/>
	<path fill="#861D23" fill-opacity="1" stroke-linejoin="round" d="M 209.091,16.0159L 213.091,16.0159L 213.091,20.0159L 209.091,20.0159L 209.091,16.0159 Z M 217.091,16.0159L 221.091,16.0159L 221.091,20.0159L 217.091,20.0159L 217.091,16.0159 Z M 225.091,16.0159L 229.091,16.0159L 229.091,20.0159L 225.091,20.0159L 225.091,16.0159 Z M 233.091,16.0159L 237.091,16.0159L 237.091,20.0159L 233.091,20.0159L 233.091,16.0159 Z M 241.091,16.0159L 243.091,16.0159L 243.091,22.0159L 239.091,22.0159L 239.091,18.0159L 241.091,20.0159L 241.091,16.0159 Z M 243.091,26.0159L 243.091,30.0159L 239.091,30.0159L 239.091,26.0159L 243.091,26.0159 Z M 243.091,34.0159L 243.091,38.0159L 239.091,38.0159L 239.091,34.0159L 243.091,34.0159 Z M 243.091,42.0159L 243.091,46.0159L 239.091,46.0159L 239.091,42.0159L 243.091,42.0159 Z M 243.091,50.0159L 243.091,54.0159L 239.091,54.0159L 239.091,50.0159L 243.091,50.0159 Z M 243.091,58.0159L 243.091,60.0159L 237.091,60.0159L 237.091,56.0159L 241.091,56.0159L 239.091,58.0159L 243.091,58.0159 Z M 233.091,60.0159L 229.091,60.0159L 229.091,56.0159L 233.091,56.0159L 233.091,60.0159 Z M 225.091,60.0159L 221.091,60.0159L 221.091,56.0159L 225.091,56.0159L 225.091,60.0159 Z M 217.091,60.0159L 213.091,60.0159L 213.091,56.0159L 217.091,56.0159L 217.091,60.0159 Z M 209.091,60.0159L 205.091,60.0159L 205.091,56.0159L 209.091,56.0159L 209.091,60.0159 Z M 201.091,60.0159L 199.091,60.0159L 199.091,54.0159L 203.091,54.0159L 203.091,58.0159L 201.091,56.0159L 201.091,60.0159 Z M 199.091,50.0159L 199.091,46.0159L 203.091,46.0159L 203.091,50.0159L 199.091,50.0159 Z M 199.091,42.0159L 199.091,38.0159L 203.091,38.0159L 203.091,42.0159L 199.091,42.0159 Z M 199.091,34.0159L 199.091,30.0159L 203.091,30.0159L 203.091,34.0159L 199.091,34.0159 Z M 199.091,26.0159L 199.091,22.0159L 203.091,22.0159L 203.091,26.0159L 199.091,26.0159 Z M 199.091,18.0159L 199.091,16.0159C 199.758,16.0159 200.424,16.0159 201.091,16.0159L 205.091,16.0159L 205.091,20.0159L 201.091,20.0159L 203.091,18.0159L 199.091,18.0159 Z "/>
</svg>
