<?xml version="1.0" encoding="utf-8"?>
<!DOCTYPE svg PUBLIC "-//W3C//DTD SVG 1.1//EN" "http://www.w3.org/Graphics/SVG/1.1/DTD/svg11.dtd">
<svg xmlns="http://www.w3.org/2000/svg" xmlns:xlink="http://www.w3.org/1999/xlink" version="1.1" baseProfile="full" width="42" height="42" viewBox="0 0 42.00 42.00" enable-background="new 0 0 42.00 42.00" xml:space="preserve">
	<radialGradient id="SVGID_Stroke1_" cx="21.0767" cy="52.2322" r="58.0992" gradientUnits="userSpaceOnUse" gradientTransform="rotate(-90.000000 21.076738 52.232185)">
		<stop offset="0" stop-color="#F68A0C" stop-opacity="1"/>
		<stop offset="0.846512" stop-color="#FAB71C" stop-opacity="1"/>
		<stop offset="1" stop-color="#FFE42C" stop-opacity="1"/>
	</radialGradient>
	<linearGradient id="SVGID_Fill1_" gradientUnits="objectBoundingBox" x1="0.501089" y1="1.36086" x2="1.95885" y2="1.36086" gradientTransform="rotate(-90.000000 0.501089 1.360859)">
		<stop offset="0" stop-color="#FFFFFF" stop-opacity="1"/>
		<stop offset="0.0603448" stop-color="#FFE17F" stop-opacity="1"/>
		<stop offset="0.469767" stop-color="#FFC400" stop-opacity="1"/>
		<stop offset="0.89642" stop-color="#FFE17F" stop-opacity="1"/>
		<stop offset="1" stop-color="#FFFFFF" stop-opacity="1"/>
	</linearGradient>
	<path fill="url(#SVGID_Fill1_)" fill-rule="evenodd" stroke-width="2" stroke-linecap="round" stroke-linejoin="round" stroke="url(#SVGID_Stroke1_)" d="M 40.8139,34.1045L 25.5722,5.88278C 24.5941,3.97365 22.7212,2.85308 20.4696,2.9559C 19.7643,2.98809 17.5603,3.1851 16.4574,5.26023L 1.80192,31.9949C 1.32764,32.7914 0.836578,34.3941 1.06115,35.6665C 1.3719,37.4273 2.66783,38.587 4.25764,39.1639L 37.734,39.15C 38.8628,38.6813 40.1309,37.8641 40.7282,36.8906C 41.2121,36.1019 41.1036,34.8999 40.8139,34.1045 Z "/>
	<path fill="none" fill-rule="evenodd" stroke-width="2" stroke-linecap="round" stroke-linejoin="round" stroke="#000000" stroke-opacity="1" d="M 40.9389,34.1111L 25.6627,5.74546C 24.6824,3.8266 22.8052,2.70032 20.5485,2.80365C 19.8417,2.83602 17.6327,3.03404 16.5272,5.11975L 1.83859,31.9908C 1.36324,32.7913 1.08489,34.2146 1.30996,35.4935C 1.62142,37.2633 2.70646,38.6166 4.29987,39.1963L 37.852,39.1824C 38.9833,38.7113 40.0357,37.8638 40.6344,36.8852C 41.1194,36.0925 41.2292,34.9106 40.9389,34.1111 Z "/>
	<path fill="#FFFFFF" fill-opacity="1" stroke-linejoin="round" stroke="#937209" stroke-opacity="1" d="M 19.4944,28.3753L 18.2852,17.0847L 18.2852,11.8676L 23.3243,11.8676L 23.3243,17.0847L 22.1321,28.3753L 19.4944,28.3753 Z M 18.2852,34.2932L 18.2852,29.9327L 23.3243,29.9327L 23.3243,34.2932L 18.2852,34.2932 Z "/>
</svg>
