<?xml version="1.0" encoding="utf-8"?>
<!DOCTYPE svg PUBLIC "-//W3C//DTD SVG 1.1//EN" "http://www.w3.org/Graphics/SVG/1.1/DTD/svg11.dtd">
<svg xmlns="http://www.w3.org/2000/svg" xmlns:xlink="http://www.w3.org/1999/xlink" version="1.1" baseProfile="full" width="1194.12" height="296.116" viewBox="0 0 1194.12 296.12" enable-background="new 0 0 1194.12 296.12" xml:space="preserve">
	<path fill="none" stroke-width="20" stroke-linejoin="round" stroke="#EE701D" stroke-opacity="1" d="M 407.77,104.062L 407.77,70.3943C 407.77,39.4664 432.842,14.3943 463.77,14.3943L 744.103,14.3943C 770.061,14.3943 791.894,32.0555 798.24,56.0169"/>
	<path fill="none" stroke-width="20" stroke-linejoin="round" stroke="#EE701D" stroke-opacity="1" d="M 630.437,254.061L 463.77,254.061C 432.842,254.061 407.77,228.989 407.77,198.061L 407.77,164.561"/>
	<g>
		<path fill="#829357" fill-opacity="1" stroke-width="6" stroke-linejoin="round" stroke="#829357" stroke-opacity="1" d="M 58.1203,196.3C 21.3734,196.3 3.00001,175.605 3.00001,134.216L 3.00001,133.681C 3.11008,92.5357 21.5477,71.963 58.313,71.963L 102.343,71.963L 102.343,93.5869L 52.8367,93.5869C 43.2051,93.5869 36.0135,96.8435 31.2619,103.357C 26.5103,109.87 24.1345,120.185 24.1345,134.3C 24.1345,161.218 33.6469,174.676 52.6716,174.676L 102.151,174.676L 102.151,196.3L 58.1203,196.3 Z "/>
		<path fill="#829357" fill-opacity="1" stroke-width="6" stroke-linejoin="round" stroke="#829357" stroke-opacity="1" d="M 213.629,196.3L 179.479,97.5568C 178.653,95.2668 177.121,94.1218 174.883,94.1218C 172.663,94.1218 171.14,95.2668 170.315,97.5568L 136.136,196.3L 113.598,196.3L 151.299,88.0119C 153.171,82.606 156.161,78.5797 160.27,75.933C 164.38,73.2863 169.251,71.963 174.883,71.963C 180.533,71.963 185.413,73.2863 189.523,75.933C 193.632,78.5797 196.623,82.606 198.494,88.0119L 236.195,196.3L 213.629,196.3 Z "/>
		<path fill="#829357" fill-opacity="1" stroke-width="6" stroke-linejoin="round" stroke="#829357" stroke-opacity="1" d="M 302.928,196.3C 266.181,196.3 247.808,175.605 247.808,134.216L 247.808,133.681C 247.918,92.5357 266.356,71.963 303.121,71.963L 347.151,71.963L 347.151,93.5869L 297.645,93.5869C 288.013,93.5869 280.821,96.8435 276.07,103.357C 271.318,109.87 268.942,120.185 268.942,134.3C 268.942,161.218 278.455,174.676 297.479,174.676L 346.958,174.676L 346.958,196.3L 302.928,196.3 Z "/>
		<path fill="#829357" fill-opacity="1" stroke-width="6" stroke-linejoin="round" stroke="#829357" stroke-opacity="1" d="M 440.66,144.042L 384.301,144.042L 384.301,196.3L 363.167,196.3L 363.167,71.963L 384.301,71.963L 384.301,122.419L 440.66,122.419L 440.66,71.963L 461.795,71.963L 461.795,196.3L 440.66,196.3L 440.66,144.042 Z "/>
		<path fill="#829357" fill-opacity="1" stroke-width="6" stroke-linejoin="round" stroke="#829357" stroke-opacity="1" d="M 577.122,93.5869L 513.195,93.5869C 511.306,93.5869 509.54,93.9763 507.898,94.7553C 506.256,95.5343 504.821,96.5807 503.591,97.8947C 502.362,99.2086 501.367,100.729 500.606,102.456C 499.844,104.183 499.464,106.004 499.464,107.918C 499.464,111.973 500.752,115.403 503.33,118.209C 505.908,121.015 509.251,122.419 513.361,122.419L 577.122,122.419L 577.122,144.042L 513.195,144.042C 511.306,144.042 509.54,144.441 507.898,145.239C 506.256,146.037 504.821,147.111 503.591,148.463C 502.362,149.814 501.367,151.382 500.606,153.165C 499.844,154.948 499.464,156.825 499.464,158.796C 499.464,163.47 500.752,167.285 503.33,170.242C 505.908,173.198 509.251,174.676 513.361,174.676L 577.122,174.676L 577.122,196.3L 516.525,196.3C 509.48,196.3 503.527,195.24 498.665,193.118C 493.804,190.997 489.873,188.177 486.874,184.658C 483.874,181.138 481.7,177.163 480.352,172.733C 479.003,168.304 478.329,163.78 478.329,159.162C 478.329,154.075 479.329,149.195 481.329,144.521C 483.328,139.847 486.676,136.056 491.373,133.146C 486.676,130.293 483.328,126.539 481.329,121.884C 479.329,117.229 478.329,112.695 478.329,108.284C 478.329,103.029 479.09,98.1669 480.613,93.6994C 482.136,89.232 484.457,85.3887 487.575,82.1695C 490.694,78.9504 494.657,76.4445 499.464,74.6519C 504.27,72.8593 509.957,71.963 516.525,71.963L 577.122,71.963L 577.122,93.5869 Z "/>
	</g>
	<g>
		<path fill="#000000" fill-opacity="1" stroke-width="6" stroke-linejoin="round" stroke="#000000" stroke-opacity="1" d="M 715.12,71.3906C 722.117,71.3906 728.073,72.315 732.987,74.1639C 737.902,76.0128 741.9,78.575 744.982,81.8505C 748.064,85.126 750.285,88.974 751.646,93.3945C 753.006,97.815 753.687,102.587 753.687,107.712C 753.687,112.123 752.622,116.656 750.494,121.311C 748.365,125.966 744.931,129.72 740.192,132.574C 744.931,135.483 748.365,139.275 750.494,143.949C 752.622,148.623 753.687,153.503 753.687,158.59C 753.687,163.207 753.006,167.759 751.646,172.246C 750.285,176.732 748.064,180.706 744.982,184.17C 741.9,187.633 737.929,190.425 733.07,192.546C 728.211,194.667 722.228,195.728 715.12,195.728L 654.006,195.728L 654.006,174.104L 718.313,174.104C 722.459,174.104 725.837,172.626 728.447,169.669C 731.057,166.713 732.362,162.898 732.362,158.224C 732.362,156.253 731.978,154.376 731.21,152.593C 730.442,150.809 729.433,149.242 728.184,147.891C 726.934,146.539 725.481,145.464 723.824,144.667C 722.168,143.869 720.395,143.47 718.507,143.47L 654.006,143.47L 654.006,121.846L 718.313,121.846C 722.459,121.846 725.837,120.443 728.447,117.637C 731.057,114.831 732.362,111.4 732.362,107.346C 732.362,105.431 731.978,103.61 731.21,101.884C 730.442,100.157 729.433,98.6362 728.184,97.3223C 726.934,96.0083 725.481,94.9619 723.824,94.1829C 722.168,93.4039 720.395,93.0144 718.507,93.0144L 654.006,93.0144L 654.006,71.3906L 715.12,71.3906 Z "/>
		<path fill="#000000" fill-opacity="1" stroke-width="6" stroke-linejoin="round" stroke="#000000" stroke-opacity="1" d="M 819.076,93.0144C 809.358,93.0144 802.102,96.2711 797.307,102.785C 792.513,109.298 790.116,119.612 790.116,133.728C 790.116,160.645 799.714,174.104 818.909,174.104L 839.512,174.104C 858.708,174.104 868.305,160.645 868.305,133.728C 868.305,119.612 865.876,109.298 861.017,102.785C 856.158,96.2711 848.934,93.0144 839.345,93.0144L 819.076,93.0144 Z M 833.82,71.3906C 870.675,71.3906 889.278,91.9632 889.63,133.109L 889.63,133.644C 889.63,175.033 871.091,195.728 834.014,195.728L 824.407,195.728C 787.33,195.728 768.792,175.033 768.792,133.644L 768.792,133.109C 768.903,91.9632 787.506,71.3906 824.601,71.3906L 833.82,71.3906 Z "/>
		<path fill="#000000" fill-opacity="1" stroke-width="6" stroke-linejoin="round" stroke="#000000" stroke-opacity="1" d="M 1008.63,195.728L 983.054,195.728L 953.011,145.385L 922.996,195.728L 897.229,195.728L 936.49,131.842L 897.229,71.3906L 922.635,71.3906L 953.011,121.199L 983.22,71.3906L 1008.63,71.3906L 969.198,131.842L 1008.63,195.728 Z "/>
	</g>
	<g>
		<path fill="#000000" fill-opacity="1" stroke-width="3" stroke-linejoin="round" stroke="#000000" stroke-opacity="1" d="M 659.937,233.673L 665.042,233.673L 665.042,243.218L 672.448,243.218L 672.448,246.889L 665.042,246.889L 665.042,270.982C 665.042,271.992 665.341,272.756 665.939,273.277C 666.537,273.797 667.439,274.057 668.644,274.057C 669.734,274.057 671.002,273.674 672.448,272.909L 672.448,277.728C 670.568,278.217 668.736,278.462 666.952,278.462C 664.763,278.462 662.972,277.915 661.578,276.822C 660.185,275.728 659.488,274.072 659.488,271.854L 659.488,246.889L 653.934,246.889L 653.934,243.218L 659.488,243.218L 659.937,233.673 Z "/>
		<path fill="#000000" fill-opacity="1" stroke-width="3" stroke-linejoin="round" stroke="#000000" stroke-opacity="1" d="M 694.347,242.484C 699.188,242.484 703.228,244.126 706.468,247.411C 709.708,250.696 711.328,255.043 711.328,260.45C 711.328,263.578 710.687,266.533 709.405,269.313C 708.122,272.093 706.141,274.313 703.46,275.973C 700.779,277.632 697.664,278.462 694.116,278.462C 688.832,278.462 684.671,276.766 681.633,273.374C 678.596,269.982 677.077,265.735 677.077,260.634C 677.077,256.572 678.034,253.062 679.948,250.102C 681.862,247.142 684.201,245.132 686.963,244.073C 689.726,243.014 692.187,242.484 694.347,242.484 Z M 694.752,246.889C 690.731,246.889 687.706,248.146 685.676,250.658C 683.646,253.171 682.631,256.595 682.631,260.932C 682.631,264.657 683.629,267.775 685.625,270.288C 687.621,272.8 690.423,274.057 694.029,274.057C 697.443,274.057 700.254,272.888 702.462,270.552C 704.67,268.215 705.774,264.81 705.774,260.335C 705.774,256.068 704.694,252.76 702.534,250.411C 700.374,248.063 697.78,246.889 694.752,246.889 Z "/>
		<path fill="#000000" fill-opacity="1" stroke-width="3" stroke-linejoin="round" stroke="#000000" stroke-opacity="1" d="M 734.153,242.484C 738.994,242.484 743.034,244.126 746.274,247.411C 749.514,250.696 751.134,255.043 751.134,260.45C 751.134,263.578 750.493,266.533 749.211,269.313C 747.928,272.093 745.947,274.313 743.266,275.973C 740.585,277.632 737.47,278.462 733.922,278.462C 728.638,278.462 724.477,276.766 721.439,273.374C 718.401,269.982 716.883,265.735 716.883,260.634C 716.883,256.572 717.84,253.062 719.754,250.102C 721.668,247.142 724.006,245.132 726.769,244.073C 729.532,243.014 731.993,242.484 734.153,242.484 Z M 734.558,246.889C 730.537,246.889 727.512,248.146 725.482,250.658C 723.452,253.171 722.437,256.595 722.437,260.932C 722.437,264.657 723.435,267.775 725.431,270.288C 727.427,272.8 730.229,274.057 733.835,274.057C 737.249,274.057 740.06,272.888 742.268,270.552C 744.476,268.215 745.58,264.81 745.58,260.335C 745.58,256.068 744.5,252.76 742.34,250.411C 740.18,248.063 737.586,246.889 734.558,246.889 Z "/>
		<path fill="#000000" fill-opacity="1" stroke-width="3" stroke-linejoin="round" stroke="#000000" stroke-opacity="1" d="M 805.26,248.369C 806.446,246.396 807.907,244.922 809.643,243.947C 811.379,242.971 813.37,242.484 815.617,242.484C 818.934,242.484 821.513,243.358 823.355,245.105C 825.197,246.853 826.118,249.161 826.118,252.029L 826.118,277.728L 820.564,277.728L 820.564,252.201C 820.564,250.572 819.999,249.28 818.871,248.323C 817.743,247.367 816.33,246.889 814.633,246.889C 812.203,246.889 810.115,247.8 808.37,249.62C 806.625,251.44 805.752,253.498 805.752,255.792L 805.752,277.728L 800.198,277.728L 800.198,252.144C 800.198,250.392 799.725,249.079 798.78,248.203C 797.835,247.327 796.398,246.889 794.47,246.889C 791.828,246.889 789.653,247.796 787.946,249.608C 786.24,251.421 785.386,253.693 785.386,256.423L 785.386,277.728L 779.832,277.728L 779.832,243.218L 784.793,243.218L 785.386,247.83C 786.64,246.048 788.115,244.711 789.812,243.82C 791.509,242.929 793.448,242.484 795.627,242.484C 798.038,242.484 800.046,242.971 801.651,243.947C 803.257,244.922 804.46,246.396 805.26,248.369 Z "/>
		<path fill="#000000" fill-opacity="1" stroke-width="3" stroke-linejoin="round" stroke="#000000" stroke-opacity="1" d="M 835.838,245.421C 840.553,243.463 844.512,242.484 847.713,242.484C 852.332,242.484 855.828,243.524 858.2,245.604C 860.572,247.708 861.758,250.526 861.758,254.06L 861.758,272.083C 861.758,273.399 862.515,274.057 864.029,274.057C 864.81,274.057 865.596,273.877 866.387,273.517L 866.387,277.728C 864.979,278.217 863.547,278.462 862.091,278.462C 858.282,278.462 856.319,276.55 856.204,272.726C 854.709,274.623 853.051,276.053 851.228,277.017C 849.406,277.98 847.429,278.462 845.298,278.462C 841.826,278.462 838.919,277.464 836.576,275.468C 834.232,273.472 833.061,271.032 833.061,268.148C 833.061,265.097 834.514,262.561 837.422,260.542C 840.329,258.523 846.59,257.154 856.204,256.435L 856.204,253.509C 856.204,251.589 855.384,250.006 853.745,248.759C 852.106,247.513 850.071,246.889 847.641,246.889C 844.169,246.889 840.235,248.113 835.838,250.561L 835.838,245.421 Z M 856.204,260.106C 848.538,260.81 843.69,261.798 841.66,263.072C 839.63,264.345 838.615,265.961 838.615,267.919C 838.615,269.701 839.36,271.169 840.85,272.324C 842.34,273.479 844.218,274.057 846.484,274.057C 849.299,274.057 851.623,273.169 853.456,271.395C 855.288,269.621 856.204,267.341 856.204,264.557L 856.204,260.106 Z "/>
		<path fill="#000000" fill-opacity="1" stroke-width="3" stroke-linejoin="round" stroke="#000000" stroke-opacity="1" d="M 873.33,243.218L 878.349,243.218L 878.913,248.358C 880.475,246.4 882.252,244.931 884.243,243.952C 886.234,242.973 888.43,242.484 890.831,242.484C 894.66,242.484 897.637,243.472 899.763,245.45C 901.889,247.427 902.953,250.063 902.953,253.36L 902.953,277.728L 897.398,277.728L 897.398,253.498C 897.398,251.486 896.692,249.882 895.279,248.685C 893.867,247.488 892.042,246.889 889.805,246.889C 886.757,246.889 884.175,247.889 882.059,249.889C 879.942,251.89 878.884,254.197 878.884,256.813L 878.884,277.728L 873.33,277.728L 873.33,243.218 Z "/>
		<path fill="#000000" fill-opacity="1" stroke-width="3" stroke-linejoin="round" stroke="#000000" stroke-opacity="1" d="M 908.507,243.218L 914.987,243.218L 924.707,271.785L 933.501,243.218L 939.186,243.218L 925.864,283.407C 924.399,287.728 922.889,290.677 921.337,292.252C 919.784,293.828 917.542,294.616 914.611,294.616C 913.57,294.616 912.461,294.36 911.284,293.847L 911.284,289.751C 912.47,290.057 913.444,290.21 914.206,290.21C 915.787,290.21 917.06,289.585 918.025,288.334C 918.989,287.084 920.088,284.508 921.322,280.608L 922.219,277.728L 908.507,243.218 Z "/>
		<path fill="#000000" fill-opacity="1" stroke-width="3" stroke-linejoin="round" stroke="#000000" stroke-opacity="1" d="M 964.976,270.385C 969.007,272.833 972.849,274.057 976.504,274.057C 979.329,274.057 981.663,273.474 983.505,272.307C 985.347,271.141 986.268,269.663 986.268,267.873C 986.268,266.573 985.602,265.487 984.271,264.615C 982.941,263.743 980.467,262.875 976.851,262.01C 972.406,260.924 969.161,259.685 967.117,258.293C 965.072,256.894 964.05,254.955 964.05,252.477C 964.05,249.639 965.403,247.264 968.107,245.352C 970.812,243.44 974.156,242.484 978.138,242.484C 981.34,242.484 984.975,243.44 989.045,245.352L 989.045,250.561C 985.544,248.113 981.957,246.889 978.283,246.889C 975.757,246.889 973.679,247.427 972.049,248.501C 970.419,249.576 969.605,250.874 969.605,252.396C 969.605,253.681 970.405,254.733 972.006,255.551C 973.568,256.393 976.027,257.219 979.383,258.029C 987.637,260.018 991.783,263.253 991.822,267.735C 991.822,270.764 990.349,273.309 987.403,275.37C 984.457,277.432 980.887,278.462 976.692,278.462C 972.816,278.462 968.91,277.437 964.976,275.388L 964.976,270.385 Z "/>
		<path fill="#000000" fill-opacity="1" stroke-width="3" stroke-linejoin="round" stroke="#000000" stroke-opacity="1" d="M 1028.85,273.724C 1024.14,276.883 1019.53,278.462 1015.04,278.462C 1009.77,278.462 1005.51,276.82 1002.26,273.535C 999.003,270.25 997.376,265.972 997.376,260.702C 997.376,255.272 999.032,250.878 1002.34,247.52C 1005.66,244.163 1009.84,242.484 1014.91,242.484C 1019.39,242.484 1022.99,243.803 1025.7,246.442C 1028.42,249.081 1029.78,252.419 1029.78,256.458L 1029.78,258.637L 1002.93,258.637L 1002.93,260.416C 1002.93,264.913 1004.15,268.311 1006.6,270.609C 1009.04,272.908 1011.9,274.057 1015.18,274.057C 1019.72,274.057 1024.28,272.099 1028.85,268.183L 1028.85,273.724 Z M 1024.22,254.966C 1024.1,252.274 1023.12,250.255 1021.3,248.909C 1019.48,247.562 1017.35,246.889 1014.92,246.889C 1012.46,246.889 1010.17,247.562 1008.05,248.909C 1005.93,250.255 1004.42,252.274 1003.52,254.966L 1024.22,254.966 Z "/>
		<path fill="#000000" fill-opacity="1" stroke-width="3" stroke-linejoin="round" stroke="#000000" stroke-opacity="1" d="M 1062.18,276.076C 1058.9,277.667 1055.71,278.462 1052.6,278.462C 1047.47,278.462 1043.31,276.772 1040.12,273.391C 1036.93,270.011 1035.33,265.831 1035.33,260.852C 1035.33,255.727 1036.99,251.385 1040.32,247.824C 1043.65,244.264 1047.94,242.484 1053.21,242.484C 1056.14,242.484 1059.13,243.222 1062.18,244.698L 1062.18,249.826C 1059.21,247.868 1056.34,246.889 1053.58,246.889C 1050,246.889 1046.98,248.186 1044.54,250.779C 1042.1,253.371 1040.89,256.634 1040.89,260.565C 1040.89,264.137 1041.99,267.278 1044.19,269.99C 1046.39,272.701 1049.36,274.057 1053.09,274.057C 1055.83,274.057 1058.86,273.078 1062.18,271.12L 1062.18,276.076 Z "/>
		<path fill="#000000" fill-opacity="1" stroke-width="3" stroke-linejoin="round" stroke="#000000" stroke-opacity="1" d="M 1074.44,248.679C 1075.83,246.599 1077.38,245.046 1079.09,244.021C 1080.79,242.996 1082.66,242.484 1084.68,242.484C 1086.19,242.484 1087.71,242.759 1089.25,243.31L 1089.25,247.681C 1087.47,247.153 1085.96,246.889 1084.73,246.889C 1081.8,246.889 1079.36,247.956 1077.39,250.09C 1075.43,252.224 1074.44,254.672 1074.44,257.433L 1074.44,277.728L 1068.89,277.728L 1068.89,243.218L 1073.95,243.218L 1074.44,248.679 Z "/>
		<path fill="#000000" fill-opacity="1" stroke-width="3" stroke-linejoin="round" stroke="#000000" stroke-opacity="1" d="M 1127.44,273.724C 1122.72,276.883 1118.12,278.462 1113.63,278.462C 1108.36,278.462 1104.1,276.82 1100.85,273.535C 1097.59,270.25 1095.97,265.972 1095.97,260.702C 1095.97,255.272 1097.62,250.878 1100.93,247.52C 1104.25,244.163 1108.43,242.484 1113.5,242.484C 1117.98,242.484 1121.58,243.803 1124.29,246.442C 1127.01,249.081 1128.37,252.419 1128.37,256.458L 1128.37,258.637L 1101.52,258.637L 1101.52,260.416C 1101.52,264.913 1102.74,268.311 1105.19,270.609C 1107.63,272.908 1110.49,274.057 1113.77,274.057C 1118.31,274.057 1122.87,272.099 1127.44,268.183L 1127.44,273.724 Z M 1122.81,254.966C 1122.69,252.274 1121.71,250.255 1119.89,248.909C 1118.07,247.562 1115.94,246.889 1113.51,246.889C 1111.05,246.889 1108.76,247.562 1106.64,248.909C 1104.52,250.255 1103.01,252.274 1102.11,254.966L 1122.81,254.966 Z "/>
		<path fill="#000000" fill-opacity="1" stroke-width="3" stroke-linejoin="round" stroke="#000000" stroke-opacity="1" d="M 1139,233.673L 1144.1,233.673L 1144.1,243.218L 1151.51,243.218L 1151.51,246.889L 1144.1,246.889L 1144.1,270.982C 1144.1,271.992 1144.4,272.756 1145,273.277C 1145.6,273.797 1146.5,274.057 1147.7,274.057C 1148.79,274.057 1150.06,273.674 1151.51,272.909L 1151.51,277.728C 1149.63,278.217 1147.8,278.462 1146.01,278.462C 1143.82,278.462 1142.03,277.915 1140.64,276.822C 1139.25,275.728 1138.55,274.072 1138.55,271.854L 1138.55,246.889L 1132.99,246.889L 1132.99,243.218L 1138.55,243.218L 1139,233.673 Z "/>
		<path fill="#000000" fill-opacity="1" stroke-width="3" stroke-linejoin="round" stroke="#000000" stroke-opacity="1" d="M 1155.91,270.385C 1159.94,272.833 1163.78,274.057 1167.43,274.057C 1170.26,274.057 1172.59,273.474 1174.43,272.307C 1176.28,271.141 1177.2,269.663 1177.2,267.873C 1177.2,266.573 1176.53,265.487 1175.2,264.615C 1173.87,263.743 1171.4,262.875 1167.78,262.01C 1163.34,260.924 1160.09,259.685 1158.05,258.293C 1156,256.894 1154.98,254.955 1154.98,252.477C 1154.98,249.639 1156.33,247.264 1159.04,245.352C 1161.74,243.44 1165.09,242.484 1169.07,242.484C 1172.27,242.484 1175.91,243.44 1179.97,245.352L 1179.97,250.561C 1176.47,248.113 1172.89,246.889 1169.21,246.889C 1166.69,246.889 1164.61,247.427 1162.98,248.501C 1161.35,249.576 1160.53,250.874 1160.53,252.396C 1160.53,253.681 1161.33,254.733 1162.94,255.551C 1164.5,256.393 1166.96,257.219 1170.31,258.029C 1178.57,260.018 1182.71,263.253 1182.75,267.735C 1182.75,270.764 1181.28,273.309 1178.33,275.37C 1175.39,277.432 1171.82,278.462 1167.62,278.462C 1163.75,278.462 1159.84,277.437 1155.91,275.388L 1155.91,270.385 Z "/>
		<path fill="#000000" fill-opacity="1" stroke-width="3" stroke-linejoin="round" stroke="#000000" stroke-opacity="1" d="M 1188.84,268.917C 1191.36,268.917 1192.62,270.351 1192.62,273.219C 1192.62,276.225 1191.39,277.728 1188.94,277.728C 1187.74,277.728 1186.82,277.317 1186.17,276.495C 1185.53,275.672 1185.21,274.638 1185.21,273.391C 1185.21,272.007 1185.57,270.915 1186.28,270.116C 1187,269.317 1187.85,268.917 1188.84,268.917 Z "/>
	</g>
</svg>
