<?xml version="1.0" encoding="utf-8"?>
<!DOCTYPE svg PUBLIC "-//W3C//DTD SVG 1.1//EN" "http://www.w3.org/Graphics/SVG/1.1/DTD/svg11.dtd">
<svg xmlns="http://www.w3.org/2000/svg" xmlns:xlink="http://www.w3.org/1999/xlink" version="1.1" baseProfile="full" width="259.2" height="259.2" viewBox="0 0 259.20 259.20" enable-background="new 0 0 259.20 259.20" xml:space="preserve">
	<g>
		<linearGradient id="SVGID_Fill1_" gradientUnits="objectBoundingBox" x1="0.439183" y1="-0.100606" x2="1.62552" y2="-0.100606" gradientTransform="rotate(101.132439 0.439183 -0.100606)">
			<stop offset="0.451163" stop-color="#231F1F" stop-opacity="0.690196"/>
			<stop offset="0.865116" stop-color="#6C6464" stop-opacity="0.0980392"/>
		</linearGradient>
		<filter id="Filter_GaussianBlur1_" filterUnits="userSpaceOnUse">
			<feGaussianBlur stdDeviation="0"/>
		</filter>
		<path fill="url(#SVGID_Fill1_)" stroke-width="0.2" stroke-linejoin="round" filter="url(#Filter_GaussianBlur1_)" d="M 121.285,244.291L 223.644,128.809L 157.295,72.7297L 6.35861,184.587L 121.285,244.291 Z "/>
		<linearGradient id="SVGID_Stroke1_" gradientUnits="objectBoundingBox" x1="0.4934" y1="0.150593" x2="1.20677" y2="0.150593" gradientTransform="rotate(90.000000 0.493400 0.150593)">
			<stop offset="0.116279" stop-color="#231E1E" stop-opacity="1"/>
			<stop offset="1" stop-color="#262323" stop-opacity="1"/>
		</linearGradient>
		<linearGradient id="SVGID_Fill2_" gradientUnits="objectBoundingBox" x1="0.493189" y1="0.142983" x2="1.22209" y2="0.142983" gradientTransform="rotate(90.000000 0.493189 0.142983)">
			<stop offset="0.111628" stop-color="#262A27" stop-opacity="1"/>
			<stop offset="1" stop-color="#606561" stop-opacity="1"/>
		</linearGradient>
		<path fill="url(#SVGID_Fill2_)" stroke-width="3" stroke-linejoin="round" stroke="url(#SVGID_Stroke1_)" d="M 157.688,122.016L 232.358,54.3405C 232.098,49.1064 232.983,51.3923 232.983,62.3854L 233.233,70.2226C 234.233,85.8976 219.607,96.5964 226.108,89.7541L 141.686,187.369C 138.019,194.005 139.686,183.719 142.353,166.801L 142.019,153.2C 142.019,142.207 137.339,121.175 157.688,122.016 Z "/>
		<linearGradient id="SVGID_Stroke2_" gradientUnits="objectBoundingBox" x1="0.352097" y1="1.09436" x2="1.59173" y2="1.09436" gradientTransform="rotate(-72.032715 0.352097 1.094362)">
			<stop offset="0.227907" stop-color="#000000" stop-opacity="1"/>
			<stop offset="1" stop-color="#FFFFFF" stop-opacity="1"/>
		</linearGradient>
		<linearGradient id="SVGID_Fill3_" gradientUnits="objectBoundingBox" x1="0.348476" y1="1.11204" x2="1.62468" y2="1.11204" gradientTransform="rotate(-71.946419 0.348476 1.112039)">
			<stop offset="0.232558" stop-color="#171F18" stop-opacity="1"/>
			<stop offset="1" stop-color="#989D99" stop-opacity="1"/>
		</linearGradient>
		<path fill="url(#SVGID_Fill3_)" stroke-width="3" stroke-linejoin="round" stroke="url(#SVGID_Stroke2_)" d="M 45.9463,96.5907L 129.696,117.803C 140.579,117.803 141.519,122.941 141.519,133.839L 141.519,180.209C 141.519,191.107 134.065,196.426 115.344,189.52L 32.8912,161.953C 15.4835,156.014 19.3422,121.897 19.3435,117.556L 19.3435,96.5907C 19.3435,85.693 35.0631,96.5907 45.9463,96.5907 Z "/>
		<path fill="#F9CC3E" fill-opacity="1" stroke-width="0.2" stroke-linejoin="round" d="M 143.248,92.8417L 198.05,49.8005L 134.521,40.8586L 76.7685,77.717L 143.248,92.8417 Z "/>
		<path fill="#DDB637" fill-opacity="1" stroke-width="3" stroke-linejoin="round" stroke="#B29331" stroke-opacity="1" d="M 62.3127,88.8864L 85.9431,94.6711C 96.6697,97.2968 103.226,108.079 100.588,118.754L 99.7475,122.153C 97.1089,132.828 92.3255,141.685 81.5989,139.059L 47.3469,128.982C 36.6202,126.357 34.6341,117.534 37.2727,106.859L 38.1129,103.46C 40.7515,92.7853 51.5862,86.2604 62.3127,88.8864 Z "/>
		<path fill="#DDB637" fill-opacity="1" stroke-width="9" stroke-linejoin="round" stroke="#DDB637" stroke-opacity="1" d="M 132.394,25.6237L 15.0532,91.3088L 142.269,126.826L 241.025,39.2458L 132.394,25.6237 Z M 134.956,36.882L 209.211,46.7724L 144.394,97.2802L 65.0562,79.6979L 134.956,36.882 Z "/>
		<path fill="#967D2D" fill-opacity="1" stroke-width="3" stroke-linejoin="round" stroke="#B29331" stroke-opacity="1" d="M 196.623,48.8007L 135.477,40.2624L 76.8518,76.2902L 78.5394,76.634L 135.727,41.2575L 195.623,50.0507L 196.623,48.8007 Z "/>
		<line fill="none" stroke-width="3" stroke-linejoin="round" stroke="#6C5B24" stroke-opacity="1" x1="38.4713" y1="105.905" x2="99.35" y2="122.949"/>
		<line fill="none" stroke-linejoin="round" stroke="#B29331" stroke-opacity="1" x1="38.0963" y1="107.336" x2="98.975" y2="124.38"/>
	</g>
	<g>
		<linearGradient id="SVGID_Stroke3_" gradientUnits="objectBoundingBox" x1="0.0713832" y1="0.283011" x2="1.03221" y2="0.283011" gradientTransform="rotate(33.362209 0.071383 0.283011)">
			<stop offset="0.0186047" stop-color="#58A406" stop-opacity="1"/>
			<stop offset="1" stop-color="#163B02" stop-opacity="1"/>
		</linearGradient>
		<linearGradient id="SVGID_Fill4_" gradientUnits="objectBoundingBox" x1="0.0669872" y1="0.281062" x2="1.03742" y2="0.281062" gradientTransform="rotate(33.395439 0.066987 0.281062)">
			<stop offset="0.0186047" stop-color="#7DE30F" stop-opacity="1"/>
			<stop offset="1" stop-color="#235E03" stop-opacity="1"/>
		</linearGradient>
		<path fill="url(#SVGID_Fill4_)" stroke-linejoin="round" stroke="url(#SVGID_Stroke3_)" d="M 111.594,153.084L 144.261,158.417L 144.927,123.084L 174.261,125.75L 174.094,163.917L 208.594,169.417L 208.594,201.917L 175.094,195.917L 175.094,234.417L 145.094,226.917L 145.094,189.917L 111.094,182.417L 111.594,153.084 Z "/>
		<linearGradient id="SVGID_Fill5_" gradientUnits="objectBoundingBox" x1="0" y1="0.5" x2="1" y2="0.5">
			<stop offset="0.0186047" stop-color="#7DE30F" stop-opacity="1"/>
			<stop offset="1" stop-color="#64BE0C" stop-opacity="1"/>
		</linearGradient>
		<path fill="url(#SVGID_Fill5_)" stroke-width="0.2" stroke-linejoin="round" d="M 111.844,152.917L 140.844,146.917L 145.344,147.417L 145.344,158.917L 111.844,152.917 Z "/>
		<linearGradient id="SVGID_Fill6_" gradientUnits="objectBoundingBox" x1="0" y1="0.368408" x2="1" y2="0.368408">
			<stop offset="0.0186047" stop-color="#7DE30F" stop-opacity="1"/>
			<stop offset="1" stop-color="#235E03" stop-opacity="1"/>
		</linearGradient>
		<path fill="url(#SVGID_Fill6_)" stroke-width="0.2" stroke-linejoin="round" d="M 145.177,123.417L 171.261,117.834L 198.844,119.75L 173.511,125.75L 145.177,123.417 Z "/>
		<linearGradient id="SVGID_Fill7_" gradientUnits="objectBoundingBox" x1="0.0100334" y1="0.5" x2="1" y2="0.5">
			<stop offset="0.0186047" stop-color="#7DE30F" stop-opacity="1"/>
			<stop offset="1" stop-color="#235E03" stop-opacity="1"/>
		</linearGradient>
		<path fill="url(#SVGID_Fill7_)" stroke-width="0.2" stroke-linejoin="round" d="M 173.844,163.75L 198.511,157.417L 198.511,119.75L 173.594,125.667L 173.844,163.75 Z "/>
		<linearGradient id="SVGID_Fill8_" gradientUnits="objectBoundingBox" x1="0" y1="0.50001" x2="0.964238" y2="0.50001">
			<stop offset="0.0186047" stop-color="#7DE30F" stop-opacity="1"/>
			<stop offset="1" stop-color="#163A01" stop-opacity="1"/>
		</linearGradient>
		<path fill="url(#SVGID_Fill8_)" stroke-width="0.2" stroke-linejoin="round" d="M 198.511,157.417L 235.427,164.75L 208.177,169.75L 172.511,163.75L 198.511,157.417 Z "/>
		<linearGradient id="SVGID_Fill9_" gradientUnits="objectBoundingBox" x1="-0.0252374" y1="0.504507" x2="0.971609" y2="0.504507">
			<stop offset="0.0186047" stop-color="#2E6F05" stop-opacity="1"/>
			<stop offset="1" stop-color="#133401" stop-opacity="1"/>
		</linearGradient>
		<path fill="url(#SVGID_Fill9_)" stroke-width="0.2" stroke-linejoin="round" d="M 208.511,201.75L 234.927,196.25L 234.927,164.75L 208.594,169.834L 208.511,201.75 Z "/>
		<linearGradient id="SVGID_Fill10_" gradientUnits="objectBoundingBox" x1="0" y1="0.500003" x2="1" y2="0.500003">
			<stop offset="0.0186047" stop-color="#3C8406" stop-opacity="1"/>
			<stop offset="1" stop-color="#153801" stop-opacity="1"/>
		</linearGradient>
		<path fill="url(#SVGID_Fill10_)" stroke-width="0.2" stroke-linejoin="round" d="M 174.844,233.75L 198.511,227.417L 198.511,198.75L 174.511,194.417L 174.844,233.75 Z "/>
	</g>
</svg>
