<?xml version="1.0" encoding="utf-8"?>
<!DOCTYPE svg PUBLIC "-//W3C//DTD SVG 1.1//EN" "http://www.w3.org/Graphics/SVG/1.1/DTD/svg11.dtd">
<svg xmlns="http://www.w3.org/2000/svg" xmlns:xlink="http://www.w3.org/1999/xlink" version="1.1" baseProfile="full" width="95" height="95" viewBox="0 0 95.00 95.00" enable-background="new 0 0 95.00 95.00" xml:space="preserve">
	<path fill="#000000" fill-opacity="1" stroke-linejoin="round" stroke="#C0C0CC" stroke-opacity="1" d="M 15.5,2.50006L 79.5,2.50006C 86.6797,2.50006 92.5,8.32037 92.5,15.5001L 92.5,79.4998C 92.5,86.6795 86.6797,92.5001 79.5,92.5001L 15.5,92.5001C 8.3203,92.5001 2.5,86.6795 2.5,79.4998L 2.5,15.5001C 2.5,8.32037 8.3203,2.50006 15.5,2.50006 Z "/>
	<path fill="#FFFFFF" fill-opacity="1" fill-rule="evenodd" stroke-linejoin="round" d="M 17.6531,61.3472C 17.573,60.2051 17.4911,58.8196 17.3746,57.1165C 17.3352,55.3101 17.1245,53.0203 17.0578,51.0335C 17.0038,49.0147 16.8739,46.8616 16.756,45.2757C 16.7005,43.6683 16.4141,42.4166 16.391,41.4171C 16.2863,40.334 16.5548,39.8882 16.5576,38.9537C 16.6336,37.963 16.8881,36.1336 16.9805,35.5435C 17.1402,34.8807 17.1649,34.9424 17.4624,34.9205C 17.8336,34.795 18.1875,34.7955 18.7458,34.8355C 19.2912,34.7857 19.9815,34.7496 20.4596,34.7725C 20.9135,34.782 21.2331,34.7032 21.4747,34.8926C 21.6868,34.9532 21.8762,35.0206 22.0121,35.4708C 22.2225,35.8868 22.4739,36.7462 22.6174,37.4566C 22.8084,38.0528 22.8472,38.5645 22.836,39.2393C 22.8112,39.8248 22.5458,40.7481 22.3125,41.3455C 22.1281,41.826 21.7488,42.1705 21.5397,42.5892C 21.3477,42.9302 21.2847,43.2444 21.1417,43.7081C 21.0551,44.0818 20.9223,44.5157 20.8627,45.0694C 20.7726,45.6099 20.7155,46.3516 20.6748,47.0159C 20.6628,47.5704 20.7739,48.1505 20.868,48.6165C 20.9891,49.0953 21.2305,49.4048 21.5231,49.8404C 21.837,50.2191 22.2418,50.584 22.7371,50.938C 23.2601,51.1839 23.906,51.4512 24.4285,51.5772C 24.9479,51.7037 25.4327,51.6783 25.8304,51.6129C 26.2683,51.5355 26.7715,51.1412 26.9442,51.0462C 27.151,50.7974 27.1195,50.6636 27.0981,50.5547C 27.0954,50.3643 27.0461,50.2408 27.0322,50.149C 27.0842,49.9849 27.1342,49.8707 27.2102,49.8853C 27.3045,49.8248 27.4692,49.8304 27.5817,50.0484C 27.7607,50.2632 27.9507,50.6202 28.0342,51.0679C 28.1743,51.418 28.1304,52.0113 28.0713,52.3963C 28.0369,52.7191 27.9284,52.9808 27.7466,53.1736C 27.554,53.2742 27.2267,53.4056 26.9357,53.4988C 26.6499,53.5421 26.4953,53.6273 26.3142,53.8199C 26.1933,53.9891 26.1657,54.335 26.2494,54.6627C 26.389,54.8934 26.7324,55.1619 27.165,55.4207L 27.1646,58.4205C 24.0015,59.3995 20.8421,60.3777 17.6531,61.3472 Z "/>
	<path fill="#FFFFFF" fill-opacity="1" fill-rule="evenodd" stroke-linejoin="round" d="M 41.9562,38.7486C 40.9328,38.9498 40.0803,39.1468 39.1667,39.4258C 38.3169,39.7034 37.5742,39.9786 36.7694,40.3326C 36.0699,40.7056 35.4349,40.9781 34.5312,41.692C 33.6291,42.4464 32.5873,43.5386 31.2244,44.8165C 29.9955,46.1312 28.5712,47.5123 26.6528,49.5753C 24.7328,51.6985 21.3769,55.4571 19.7101,57.2576C 18.1042,59.0587 17.2093,60.1075 17.0229,60.3299L 23.253,64.7186C 23.8872,64.2879 24.3684,63.9007 24.7027,63.5547C 25.1025,63.2686 25.3562,63.1849 25.371,62.8465C 25.4678,62.5486 25.1555,62.0005 25.019,61.6465C 24.9047,61.3536 24.7702,61.0804 24.6149,60.9039C 24.6755,60.7657 24.4126,60.4742 23.9931,59.9493C 23.5745,59.4649 22.9164,58.7881 22.0148,57.918C 22.2758,58.0108 22.6447,58.2598 23.0373,58.5057C 23.4952,58.8338 23.9938,59.1578 24.5431,59.639C 24.9053,59.6114 25.2644,59.4256 25.7057,59.0772C 26.1502,58.8311 26.2274,58.5494 27.0835,57.6815C 28.0691,56.7857 29.6596,55.2049 31.0604,53.806C 32.5462,52.4449 34.0974,51.0237 35.3694,49.7081C 36.6478,48.532 37.522,47.4615 38.3938,46.4129C 39.3116,45.3607 40.0787,44.3145 40.6106,43.3516C 41.2105,42.4654 41.596,41.627 41.7684,40.8306C 42.0321,40.0919 42.0353,39.399 41.9562,38.7486 Z "/>
	<path fill="#FFFFFF" fill-opacity="1" fill-rule="evenodd" stroke-linejoin="round" d="M 74.8363,65.5526C 75.4494,63.2896 75.8897,60.9107 76.3212,57.95C 76.8438,55.0049 77.1386,51.764 77.4759,48.2408C 77.8404,44.6148 78.2665,39.7989 78.4406,37.0186C 78.8063,34.3253 78.8559,33.3152 78.8717,32.0909C 78.982,30.7706 78.653,30.4083 78.4925,29.4576C 78.3547,28.6368 78.1554,27.5836 77.8987,26.7239L 75.3586,26.6363L 73.8757,28.7706C 73.0668,29.213 72.2625,29.7007 71.4932,30.4C 70.7849,31.065 69.9273,32.0208 69.3502,32.8057C 68.8362,33.5538 68.5027,34.0721 68.1138,34.942C 67.7561,35.8316 67.4982,36.6702 67.1303,37.7825C 68.8314,37.8702 70.1877,37.8943 71.2293,38.0233C 72.3148,38.025 73.0365,38.1011 73.498,38.3184C 74.0474,38.4407 74.2138,38.8931 74.2856,39.441C 74.4092,40.064 74.3523,41.0264 74.2502,42.1177C 74.2487,43.157 74.1467,44.4039 73.9495,45.857C 73.8203,47.3165 73.5514,49.5352 73.1811,50.7613C 72.8955,51.9691 72.4277,52.48 71.7166,52.9864C 71.024,53.3521 69.8195,53.6983 68.8716,53.4769C 68.0617,53.2608 67.1518,52.6033 66.6446,51.9698C 66.275,51.3443 66.2129,50.73 66.0985,50.0342C 66.1515,49.2996 66.1472,48.4854 66.2875,47.8807C 66.5046,47.3292 66.8366,46.9249 66.9118,46.5862C 67.037,46.2796 67.0726,45.9571 66.9192,45.9737C 66.8332,45.9976 66.5124,46.0582 66.1572,46.4473C 65.9067,46.6734 65.535,47.0884 65.1669,47.9354C 64.9901,48.8621 64.577,50.6002 64.4526,51.7186C 64.4104,52.7679 64.5049,53.0589 64.429,54.3238C 64.4375,55.5635 64.4276,57.2149 64.3997,59.2789C 67.8582,61.3834 71.333,63.461 74.8363,65.5526 Z "/>
	<path fill="#FFFFFF" fill-opacity="1" fill-rule="evenodd" stroke-linejoin="round" d="M 70.7842,67.847C 69.804,66.8477 68.8628,65.8975 68.0474,65.0103C 67.1341,64.0167 66.3886,63.1426 65.7957,62.4761C 65.186,61.7825 64.7389,61.5093 64.6457,61.0552C 64.5164,60.5259 64.7906,60.0518 65.1475,59.502C 65.4413,58.8922 65.7685,58.5211 66.4912,57.813C 67.2291,57.0159 68.9271,55.2647 69.1995,54.98C 69.3583,54.6758 68.1465,55.4288 67.6028,56.0023C 66.9623,56.4664 66.1031,57.4791 65.6315,57.8734C 65.1516,58.1754 65.1079,58.0086 64.7899,57.9849C 64.381,57.9722 63.7897,57.7474 63.4184,57.6241C 63.0208,57.3555 63.4054,57.7142 62.4642,56.764C 61.4392,55.754 59.5315,53.6873 57.7043,51.8646C 55.893,49.9312 53.6485,47.6507 51.8651,45.6954C 50.0362,43.7344 48.3675,41.9131 46.9413,40.334C 45.4967,38.7283 44.1795,37.5154 43.1413,36.2711C 42.0843,35.0018 41.3893,33.9268 40.5768,32.7156C 39.7093,31.4044 38.6071,30.1285 38.0037,28.7393C 37.3649,27.275 37.012,25.5982 36.8142,24.5706C 36.5675,23.5611 36.4945,22.9671 36.5881,22.7945C 37.2114,22.7689 38.0375,22.9359 39.1551,23.3099C 40.2624,23.5845 41.6094,23.9661 43.1439,24.7945C 44.6324,25.616 46.6124,26.856 48.1638,28.1973C 49.6918,29.3965 50.5223,30.6334 52.2551,32.4859C 53.9444,34.3135 55.7965,36.4393 58.1884,39.2735C 60.5405,42.0794 63.9365,46.2449 66.1975,49.0352C 68.4075,51.7042 70.0203,53.587 71.473,55.2859C 72.8465,56.9039 73.8232,57.9503 74.6597,59.0013C 75.4742,60.0274 76.0135,60.7554 76.4257,61.3978C 76.8201,62.0132 76.9359,62.3326 76.9245,62.5611C 74.8809,64.3087 72.8341,66.0784 70.7842,67.847 Z "/>
	<path fill="#FFFFFF" fill-opacity="1" fill-rule="evenodd" stroke-linejoin="round" d="M 77.6269,68.1246C 77.2946,68.4781 76.9679,68.7352 76.5533,69.1075C 76.1422,69.4576 75.8315,69.7161 75.1579,70.0772C 74.4473,70.2874 73.5491,70.6805 72.1773,70.8116C 70.6448,70.9197 68.4081,70.9317 66.5565,70.9525C 64.684,70.918 63.9182,70.9527 61.0833,70.888C 58.1631,70.8228 53.2577,70.5826 49.3755,70.5445C 45.4309,70.3922 40.7837,70.3878 37.8258,70.3194C 34.8879,70.2147 33.5393,70.1937 31.8321,70.1251C 30.0402,70.0338 28.7182,69.8624 27.3107,69.8004C 25.9242,69.6846 24.6185,69.6072 23.3927,69.4962C 22.0675,69.3404 20.4223,69.178 19.4639,68.8831C 18.4303,68.4512 17.9205,67.9385 17.3944,67.3316C 16.8095,66.6819 16.4474,65.9659 16.2243,65.2518C 16.0246,64.4991 15.9006,63.8658 16.0823,63.1243C 16.1462,62.3253 16.6083,61.6304 17.0091,60.9527C 17.3928,60.2379 18.0123,59.6653 18.6504,59.2247C 19.2255,58.7623 19.8554,58.6097 20.8684,58.4112C 21.8397,58.1522 23.2754,57.9839 24.7062,57.8912C 26.0991,57.7794 27.5494,57.7855 29.36,57.761C 31.1562,57.6995 33.049,57.6802 35.5054,57.6353C 37.9432,57.5538 40.9037,57.5264 43.8416,57.535C 46.6827,57.5042 49.3008,57.524 52.782,57.5511C 56.267,57.5186 61.659,57.5628 64.5379,57.6295C 67.2956,57.6329 68.1171,57.7525 69.504,57.8502C 70.8889,57.9478 71.614,57.9898 72.6752,58.21C 73.6352,58.3526 74.5574,58.5714 75.4298,59.0172C 76.2408,59.4815 76.9672,60.1719 77.5318,60.8755C 77.9749,61.5211 78.2797,62.1392 78.443,62.8157C 78.5866,63.4498 78.6273,64.138 78.6531,64.6578C 78.6809,65.1351 78.7118,65.4034 78.6674,65.6119L 75.6748,65.3143L 75.378,68.0015C 76.1192,68.0421 76.8639,68.0845 77.6269,68.1246 Z "/>
	<g>
		<radialGradient id="SVGID_Fill1_" cx="-16.0266" cy="9.87946" r="118.103" gradientUnits="userSpaceOnUse">
			<stop offset="0" stop-color="#FFFFFF" stop-opacity="0.843137"/>
			<stop offset="0.77027" stop-color="#FFFFFF" stop-opacity="0.32549"/>
			<stop offset="1" stop-color="#FFFFFF" stop-opacity="0"/>
		</radialGradient>
		<path fill="url(#SVGID_Fill1_)" stroke-width="0.2" stroke-linejoin="round" d="M 16.3506,3.44049L 80.3506,3.44049C 86.4257,3.44049 91.3506,8.36554 91.3506,14.4405L 91.3506,77.4402C 91.3506,83.5154 86.4257,88.4402 80.3506,88.4402L 16.3506,88.4402C 10.2754,88.4402 5.35058,83.5154 5.35058,77.4402L 5.35058,14.4405C 5.35058,8.36554 10.2754,3.44049 16.3506,3.44049 Z "/>
		<radialGradient id="SVGID_Stroke1_" cx="73.3702" cy="47.441" r="669.951" gradientUnits="userSpaceOnUse">
			<stop offset="0.869369" stop-color="#F1F1F1" stop-opacity="0"/>
			<stop offset="1" stop-color="#EEEEEE" stop-opacity="0.898039"/>
		</radialGradient>
		<path fill="none" stroke-width="4" stroke-linejoin="round" stroke="url(#SVGID_Stroke1_)" d="M 82.6005,7.44L 82.6005,7.44C 86.6046,7.44 89.8505,10.6861 89.8505,14.69L 89.8505,80.1905C 89.8505,84.1944 86.6046,87.4405 82.6005,87.4405L 82.6005,87.4405C 78.5965,87.4405 75.3505,84.1944 75.3505,80.1905L 75.3505,14.69C 75.3505,10.6861 78.5965,7.44 82.6005,7.44 Z "/>
		<radialGradient id="SVGID_Stroke2_" cx="21.331" cy="47.4398" r="669.951" gradientUnits="userSpaceOnUse" gradientTransform="rotate(180.000000 21.330967 47.439758)">
			<stop offset="0.869369" stop-color="#F1F1F1" stop-opacity="0"/>
			<stop offset="1" stop-color="#EEEEEE" stop-opacity="0.898039"/>
		</radialGradient>
		<path fill="none" stroke-width="4" stroke-linejoin="round" stroke="url(#SVGID_Stroke2_)" d="M 12.1006,87.4407L 12.1006,87.4407C 8.09657,87.4407 4.85064,84.1949 4.85064,80.191L 4.85064,14.6905C 4.85064,10.6863 8.09657,7.44049 12.1006,7.44049L 12.1006,7.44049C 16.1047,7.44049 19.3506,10.6863 19.3506,14.6905L 19.3506,80.191C 19.3506,84.1949 16.1047,87.4407 12.1006,87.4407 Z "/>
		<radialGradient id="SVGID_Stroke3_" cx="47.3518" cy="21.421" r="79.1194" gradientUnits="userSpaceOnUse" gradientTransform="rotate(-90.000000 47.351845 21.420959)">
			<stop offset="0.869369" stop-color="#F1F1F1" stop-opacity="0"/>
			<stop offset="1" stop-color="#EEEEEE" stop-opacity="0.898039"/>
		</radialGradient>
		<path fill="none" stroke-width="4" stroke-linejoin="round" stroke="url(#SVGID_Stroke3_)" d="M 7.35051,12.1905L 7.35051,12.1905C 7.35051,8.18634 10.5965,4.94049 14.6005,4.94049L 80.1009,4.94049C 84.105,4.94049 87.3508,8.18634 87.3508,12.1905L 87.3508,12.1905C 87.3508,16.1944 84.105,19.4405 80.1009,19.4405L 14.6005,19.4405C 10.5965,19.4405 7.35051,16.1944 7.35051,12.1905 Z "/>
		<radialGradient id="SVGID_Stroke4_" cx="47.3491" cy="73.46" r="79.1183" gradientUnits="userSpaceOnUse" gradientTransform="rotate(90.000000 47.349144 73.460022)">
			<stop offset="0.869369" stop-color="#F1F1F1" stop-opacity="0"/>
			<stop offset="1" stop-color="#EEEEEE" stop-opacity="0.898039"/>
		</radialGradient>
		<path fill="none" stroke-width="4" stroke-linejoin="round" stroke="url(#SVGID_Stroke4_)" d="M 87.3505,82.6905L 87.3505,82.6905C 87.3505,86.6944 84.1045,89.9405 80.1005,89.9405L 14.6001,89.9405C 10.596,89.9405 7.35015,86.6944 7.35015,82.6905L 7.35015,82.6905C 7.35015,78.6863 10.596,75.4405 14.6001,75.4405L 80.1005,75.4405C 84.1045,75.4405 87.3505,78.6863 87.3505,82.6905 Z "/>
	</g>
</svg>
