<?xml version="1.0" encoding="utf-8"?>
<!DOCTYPE svg PUBLIC "-//W3C//DTD SVG 1.1//EN" "http://www.w3.org/Graphics/SVG/1.1/DTD/svg11.dtd">
<svg xmlns="http://www.w3.org/2000/svg" xmlns:xlink="http://www.w3.org/1999/xlink" version="1.1" baseProfile="full" width="91" height="91" viewBox="0 0 91.00 91.00" enable-background="new 0 0 91.00 91.00" xml:space="preserve">
	<path fill="#000000" fill-opacity="1" stroke-linejoin="round" stroke="#000000" stroke-opacity="1" d="M 13.5,0.5L 77.5,0.5C 84.6797,0.5 90.5,6.32031 90.5,13.5L 90.5,77.4998C 90.5,84.6794 84.6797,90.5 77.5,90.5L 13.5,90.5C 6.32029,90.5 0.5,84.6794 0.5,77.4998L 0.5,13.5C 0.5,6.32031 6.32029,0.5 13.5,0.5 Z "/>
	<g>
		<path fill="#FFFFFF" fill-opacity="1" fill-rule="evenodd" stroke-linejoin="round" d="M 62.514,74.6157C 54.9721,75.8867 56.2065,71.5042 56.1182,66.5056L 55.6748,56.7039L 53.7369,66.1741C 53.3827,67.9697 52.9393,69.6165 55.3231,70.936C 57.0016,72.4919 55.1083,74.7102 53.3,74.4226C 47.7755,74.6157 48.5763,70.699 49.0545,67.9221L 49.3649,63.9143C 49.5862,61.1819 50.0741,59.4805 50.2038,55.6624L 49.4597,53.592C 43.5016,51.9419 39.3915,50.7175 34.7626,48.0759L 31.4475,48.5461C 29.9473,48.7834 30.3493,50.6699 30.1718,51.8953L 29.6879,55.2397L 26.9459,62.832L 26.7303,63.4919C 26.5496,64.0129 26.5942,66.0857 27.3066,67.1646L 28.7566,70.324C 29.9027,72.1196 30.2099,76.55 27.1259,75.1292L 24.8305,74.0979C 23.2005,73.3914 21.8704,68.5378 21.3039,65L 21.3485,60.0493C 19.9325,59.5793 19.3594,68.491 19.9325,70.324L 21.6728,74.9661C 22.1097,76.4673 20.3211,76.3965 19.1718,76.3965C 16.4776,76.3965 15.1237,74.0503 14.5506,71.595L 14.4012,68.3894C 14.4012,67.4358 14.385,64.9719 15.1821,61.793L 15.7818,58.5947C 17.017,55.5237 15.516,53.3081 15.1682,51.7522C 14.0189,46.7539 13.0909,41.8977 16.3143,37.0916L 16.5388,36.76C 16.4472,36.384 15.516,35.5867 14.9429,33.7026C 13.7085,29.4548 11.3704,22.5723 12.9193,22.5723L 14.2293,22.5723C 16.8376,22.5723 17.017,33.9321 20.11,33.1814L 42.529,33.4187L 46.4551,32.282C 47.9149,31.8628 49.1493,30.8713 50.4259,30.0229L 52.9806,28.325C 55.9374,31.4871 58.5019,33.4187 62.7353,35.0688C 63.8878,44.4441 62.6088,46.5237 61.5033,52.1245L 61.0575,54.3904C 60.2689,58.3982 60.003,62.5481 60.1805,66.6511L 60.2689,68.5818C 60.2243,70.5603 61.2788,70.7024 62.7353,71.1724C 63.6633,71.6936 64.3247,73.6755 62.514,74.6157 Z "/>
		<path fill="#FFFFFF" fill-opacity="1" fill-rule="evenodd" stroke-linejoin="round" d="M 67.2531,17.3467C 67.9016,18.678 68.4139,19.9697 69.6483,21.3801L 72.189,23.5259C 73.2022,24.6521 75.3713,24.0403 76.7419,24.3242L 77.2233,24.4187C 78.7244,25.261 78.2462,26.9624 77.755,28.2334L 77.4446,29.0352C 76.0294,32.668 71.8407,32.9519 68.8806,31.2473L 67.5635,30.5L 67.1169,30.5L 66.1929,31.1589L 64.2963,32.7625C 60.4585,30.9666 57.3242,28.8022 54.8043,25.9268L 60.5914,18.1926L 62.5294,15.1785L 62.9249,14.1882L 63.3715,13.0989C 63.7233,11.8816 65.1798,10.698 66.2432,11.1672C 67.2531,11.6409 67.9153,13.7112 67.6495,14.8037L 67.3828,16.0281"/>
	</g>
	<g>
		<radialGradient id="SVGID_Fill1_" cx="-17.8771" cy="8.4397" r="118.103" gradientUnits="userSpaceOnUse">
			<stop offset="0" stop-color="#FFFFFF" stop-opacity="0.388235"/>
			<stop offset="0.90991" stop-color="#FFFFFF" stop-opacity="0.156863"/>
			<stop offset="1" stop-color="#FFFFFF" stop-opacity="0"/>
		</radialGradient>
		<path fill="url(#SVGID_Fill1_)" stroke-linejoin="round" d="M 14.5,2.00073L 78.5,2.00073C 84.5751,2.00073 89.5,6.92554 89.5,13.0007L 89.5,76.0002C 89.5,82.0754 84.5751,87.0002 78.5,87.0002L 14.5,87.0002C 8.42486,87.0002 3.5,82.0754 3.5,76.0002L 3.5,13.0007C 3.5,6.92554 8.42486,2.00073 14.5,2.00073 Z "/>
		<radialGradient id="SVGID_Stroke1_" cx="71.5196" cy="46.0012" r="669.951" gradientUnits="userSpaceOnUse">
			<stop offset="0.869369" stop-color="#F1F1F1" stop-opacity="0"/>
			<stop offset="1" stop-color="#EEEEEE" stop-opacity="0.376471"/>
		</radialGradient>
		<path fill="none" stroke-width="4" stroke-linejoin="round" stroke="url(#SVGID_Stroke1_)" d="M 80.7499,6.00024L 80.7499,6.00024C 84.754,6.00024 87.9999,9.24609 87.9999,13.2502L 87.9999,78.7505C 87.9999,82.7546 84.754,86.0005 80.7499,86.0005L 80.7499,86.0005C 76.7459,86.0005 73.4999,82.7546 73.4999,78.7505L 73.4999,13.2502C 73.4999,9.24609 76.7459,6.00024 80.7499,6.00024 Z "/>
		<radialGradient id="SVGID_Stroke2_" cx="19.4803" cy="45.9995" r="669.951" gradientUnits="userSpaceOnUse" gradientTransform="rotate(180.000000 19.480328 45.999512)">
			<stop offset="0.869369" stop-color="#F1F1F1" stop-opacity="0"/>
			<stop offset="1" stop-color="#EEEEEE" stop-opacity="0.376471"/>
		</radialGradient>
		<path fill="none" stroke-width="4" stroke-linejoin="round" stroke="url(#SVGID_Stroke2_)" d="M 10.25,86.0005L 10.25,86.0005C 6.24593,86.0005 3,82.7546 3,78.7507L 3,13.2502C 3,9.24609 6.24593,6.00024 10.25,6.00024L 10.25,6.00024C 14.2541,6.00024 17.5,9.24609 17.5,13.2502L 17.5,78.7507C 17.5,82.7546 14.2541,86.0005 10.25,86.0005 Z "/>
		<radialGradient id="SVGID_Stroke3_" cx="45.5013" cy="19.981" r="79.1194" gradientUnits="userSpaceOnUse" gradientTransform="rotate(-90.000000 45.501255 19.980957)">
			<stop offset="0.869369" stop-color="#F1F1F1" stop-opacity="0"/>
			<stop offset="1" stop-color="#EEEEEE" stop-opacity="0.376471"/>
		</radialGradient>
		<path fill="none" stroke-width="4" stroke-linejoin="round" stroke="url(#SVGID_Stroke3_)" d="M 5.49992,10.7505L 5.49992,10.7505C 5.49992,6.74634 8.74589,3.50049 12.7499,3.50049L 78.2503,3.50049C 82.2544,3.50049 85.5002,6.74634 85.5002,10.7505L 85.5002,10.7505C 85.5002,14.7546 82.2544,18.0005 78.2503,18.0005L 12.7499,18.0005C 8.74589,18.0005 5.49992,14.7546 5.49992,10.7505 Z "/>
		<radialGradient id="SVGID_Stroke4_" cx="45.499" cy="72.02" r="79.1194" gradientUnits="userSpaceOnUse" gradientTransform="rotate(90.000000 45.499039 72.020020)">
			<stop offset="0.869369" stop-color="#F1F1F1" stop-opacity="0"/>
			<stop offset="1" stop-color="#EEEEEE" stop-opacity="0.376471"/>
		</radialGradient>
		<path fill="none" stroke-width="4" stroke-linejoin="round" stroke="url(#SVGID_Stroke4_)" d="M 85.5004,81.2505L 85.5004,81.2505C 85.5004,85.2546 82.2544,88.5005 78.2504,88.5005L 12.75,88.5005C 8.74587,88.5005 5.50005,85.2546 5.50005,81.2505L 5.50005,81.2505C 5.50005,77.2463 8.74587,74.0005 12.75,74.0005L 78.2504,74.0005C 82.2544,74.0005 85.5004,77.2463 85.5004,81.2505 Z "/>
	</g>
</svg>
