<?xml version="1.0" encoding="utf-8"?>
<!DOCTYPE svg PUBLIC "-//W3C//DTD SVG 1.1//EN" "http://www.w3.org/Graphics/SVG/1.1/DTD/svg11.dtd">
<svg xmlns="http://www.w3.org/2000/svg" xmlns:xlink="http://www.w3.org/1999/xlink" version="1.1" baseProfile="full" width="95" height="95" viewBox="0 0 95.00 95.00" enable-background="new 0 0 95.00 95.00" xml:space="preserve">
	<path fill="#000000" fill-opacity="1" stroke-linejoin="round" stroke="#C0C0CC" stroke-opacity="1" d="M 15.5,2.50006L 79.5,2.50006C 86.6797,2.50006 92.5,8.32037 92.5,15.5001L 92.5,79.4998C 92.5,86.6795 86.6797,92.5001 79.5,92.5001L 15.5,92.5001C 8.32031,92.5001 2.50003,86.6795 2.50003,79.4998L 2.50003,15.5001C 2.50003,8.32037 8.32031,2.50006 15.5,2.50006 Z "/>
	<g>
		<g>
			<path fill="#000000" fill-opacity="1" stroke-width="2" stroke-linecap="square" stroke-linejoin="bevel" stroke="#FFFFFF" stroke-opacity="1" d="M 49.5765,64.3206L 73.9845,55.2151L 72.0034,67.5113L 47.4984,77.2188L 49.5765,64.3206 Z "/>
			<path fill="#000000" fill-opacity="1" stroke-width="2" stroke-linecap="square" stroke-linejoin="bevel" stroke="#FFFFFF" stroke-opacity="1" d="M 29.9371,60.1168L 49.5296,63.5609L 47.3388,77.2239L 31.9549,74.586L 29.4247,73.3453L 28.2552,70.7523L 29.9371,60.1168 Z "/>
			<path fill="#FFFFFF" fill-opacity="1" stroke-width="2" stroke-linejoin="miter" stroke="#FFFFFF" stroke-opacity="1" d="M 28.9716,56.5206L 51.1076,60.3343L 50.5777,63.6234L 28.4863,59.7952L 28.9716,56.5206 Z "/>
			<path fill="#FFFFFF" fill-opacity="1" stroke-width="2" stroke-linejoin="miter" stroke="#FFFFFF" stroke-opacity="1" d="M 28.8,56.5347L 55.2471,47.1964L 75.2182,50.5799L 50.2294,60.3128L 28.8,56.5347 Z "/>
			<path fill="#FFFFFF" fill-opacity="1" stroke-width="2" stroke-linecap="square" stroke-linejoin="bevel" stroke="#FFFFFF" stroke-opacity="1" d="M 51.4116,60.1553L 75.9494,50.3101L 75.3052,54.3087L 50.8435,63.6807L 51.4116,60.1553 Z "/>
		</g>
		<path fill="#FFFFFF" fill-opacity="1" stroke-linejoin="round" d="M 49.6951,31.2825C 49.6951,23.2742 43.0914,16.7825 34.9451,16.7825C 26.7989,16.7825 20.1951,23.2742 20.1951,31.2825C 20.1951,39.2906 26.799,45.7825 34.9451,45.7825C 43.0914,45.7825 49.6951,39.2906 49.6951,31.2825 Z M 35.6592,33.7034L 33.775,33.7034L 33.775,39.7835L 29.7217,39.7835L 29.7217,22.0501L 35.96,22.0501C 40.4144,22.0501 42.6417,23.9383 42.6417,27.7144C 42.6417,29.501 42.0077,30.9459 40.7397,32.0489C 39.4717,33.1519 37.7782,33.7034 35.6592,33.7034 Z "/>
		<path fill="#FFFFFF" fill-opacity="1" stroke-linejoin="round" d="M 35.2792,25.0899L 33.775,25.0899L 33.775,30.6634L 35.2792,30.6634C 37.3164,30.6634 38.335,29.7239 38.335,27.845C 38.335,26.0084 37.3164,25.0899 35.2792,25.0899 Z "/>
	</g>
	<g>
		<radialGradient id="SVGID_Fill1_" cx="-16.0266" cy="9.87946" r="118.102" gradientUnits="userSpaceOnUse">
			<stop offset="0" stop-color="#FFFFFF" stop-opacity="0.843137"/>
			<stop offset="0.77027" stop-color="#FFFFFF" stop-opacity="0.32549"/>
			<stop offset="1" stop-color="#FFFFFF" stop-opacity="0"/>
		</radialGradient>
		<path fill="url(#SVGID_Fill1_)" stroke-width="0.2" stroke-linejoin="round" d="M 16.3506,3.44049L 80.3506,3.44049C 86.4257,3.44049 91.3506,8.36554 91.3506,14.4405L 91.3506,77.4402C 91.3506,83.5154 86.4257,88.4402 80.3506,88.4402L 16.3506,88.4402C 10.2755,88.4402 5.35059,83.5154 5.35059,77.4402L 5.35059,14.4405C 5.35059,8.36554 10.2755,3.44049 16.3506,3.44049 Z "/>
		<radialGradient id="SVGID_Stroke1_" cx="73.3702" cy="47.441" r="669.951" gradientUnits="userSpaceOnUse">
			<stop offset="0.869369" stop-color="#F1F1F1" stop-opacity="0"/>
			<stop offset="1" stop-color="#EEEEEE" stop-opacity="0.898039"/>
		</radialGradient>
		<path fill="none" stroke-width="4" stroke-linejoin="round" stroke="url(#SVGID_Stroke1_)" d="M 82.6005,7.44L 82.6005,7.44C 86.6046,7.44 89.8505,10.6861 89.8505,14.69L 89.8505,80.1905C 89.8505,84.1944 86.6046,87.4405 82.6005,87.4405L 82.6005,87.4405C 78.5965,87.4405 75.3505,84.1944 75.3505,80.1905L 75.3505,14.69C 75.3505,10.6861 78.5965,7.44 82.6005,7.44 Z "/>
		<radialGradient id="SVGID_Stroke2_" cx="21.331" cy="47.4398" r="669.951" gradientUnits="userSpaceOnUse" gradientTransform="rotate(180.000000 21.330978 47.439758)">
			<stop offset="0.869369" stop-color="#F1F1F1" stop-opacity="0"/>
			<stop offset="1" stop-color="#EEEEEE" stop-opacity="0.898039"/>
		</radialGradient>
		<path fill="none" stroke-width="4" stroke-linejoin="round" stroke="url(#SVGID_Stroke2_)" d="M 12.1006,87.4407L 12.1006,87.4407C 8.09659,87.4407 4.85065,84.1949 4.85065,80.191L 4.85065,14.6905C 4.85065,10.6863 8.09659,7.44049 12.1006,7.44049L 12.1006,7.44049C 16.1047,7.44049 19.3506,10.6863 19.3506,14.6905L 19.3506,80.191C 19.3506,84.1949 16.1047,87.4407 12.1006,87.4407 Z "/>
		<radialGradient id="SVGID_Stroke3_" cx="47.3519" cy="21.421" r="79.1194" gradientUnits="userSpaceOnUse" gradientTransform="rotate(-90.000000 47.351944 21.420959)">
			<stop offset="0.869369" stop-color="#F1F1F1" stop-opacity="0"/>
			<stop offset="1" stop-color="#EEEEEE" stop-opacity="0.898039"/>
		</radialGradient>
		<path fill="none" stroke-width="4" stroke-linejoin="round" stroke="url(#SVGID_Stroke3_)" d="M 7.35062,12.1905L 7.35062,12.1905C 7.35062,8.18634 10.5966,4.94049 14.6006,4.94049L 80.101,4.94049C 84.1051,4.94049 87.3509,8.18634 87.3509,12.1905L 87.3509,12.1905C 87.3509,16.1944 84.1051,19.4405 80.101,19.4405L 14.6006,19.4405C 10.5966,19.4405 7.35062,16.1944 7.35062,12.1905 Z "/>
		<radialGradient id="SVGID_Stroke4_" cx="47.3491" cy="73.46" r="79.1183" gradientUnits="userSpaceOnUse" gradientTransform="rotate(90.000000 47.349075 73.460022)">
			<stop offset="0.869369" stop-color="#F1F1F1" stop-opacity="0"/>
			<stop offset="1" stop-color="#EEEEEE" stop-opacity="0.898039"/>
		</radialGradient>
		<path fill="none" stroke-width="4" stroke-linejoin="round" stroke="url(#SVGID_Stroke4_)" d="M 87.3504,82.6905L 87.3504,82.6905C 87.3504,86.6944 84.1044,89.9405 80.1004,89.9405L 14.6001,89.9405C 10.5959,89.9405 7.35008,86.6944 7.35008,82.6905L 7.35008,82.6905C 7.35008,78.6863 10.5959,75.4405 14.6001,75.4405L 80.1004,75.4405C 84.1044,75.4405 87.3504,78.6863 87.3504,82.6905 Z "/>
	</g>
</svg>
