<?xml version="1.0" encoding="utf-8"?>
<!DOCTYPE svg PUBLIC "-//W3C//DTD SVG 1.1//EN" "http://www.w3.org/Graphics/SVG/1.1/DTD/svg11.dtd">
<svg xmlns="http://www.w3.org/2000/svg" xmlns:xlink="http://www.w3.org/1999/xlink" version="1.1" baseProfile="full" width="95" height="95" viewBox="0 0 95.00 95.00" enable-background="new 0 0 95.00 95.00" xml:space="preserve">
	<path fill="#000000" fill-opacity="1" stroke-linejoin="round" stroke="#C0C0CC" stroke-opacity="1" d="M 15.5,2.49992L 79.5,2.49992C 86.6797,2.49992 92.5,8.32024 92.5,15.4999L 92.5,79.4997C 92.5,86.6794 86.6797,92.4999 79.5,92.4999L 15.5,92.4999C 8.32031,92.4999 2.5,86.6794 2.5,79.4997L 2.5,15.4999C 2.5,8.32024 8.32031,2.49992 15.5,2.49992 Z "/>
	<path fill="#FFFFFF" fill-opacity="1" stroke-linejoin="round" d="M 57.5291,53.2309C 57.5291,53.3193 57.534,53.4047 57.534,53.4931C 57.534,62.456 50.7831,69.7482 42.4865,69.7482C 34.1927,69.7482 27.4411,62.456 27.4411,53.4931C 27.4411,48.0766 29.9105,43.2743 33.6928,40.3183L 33.1796,35.4623C 27.332,38.9997 23.3693,45.7551 23.3693,53.4931C 23.3693,64.8832 31.9449,74.1464 42.4865,74.1464C 51.425,74.1464 58.9463,67.4887 61.0297,58.5226"/>
	<path fill="#FFFFFF" fill-opacity="1" stroke-linejoin="round" d="M 71.3944,59.706L 60.4781,43.2184C 59.9076,42.3537 58.9547,41.9467 57.9849,42.0351C 57.9136,42.0268 57.8402,42.0207 57.7689,42.0207L 45.2991,42.0207L 44.988,39.0881L 54.2571,39.0881C 55.3359,39.0881 56.2098,38.144 56.2098,36.9819C 56.2098,35.8166 55.3359,34.8725 54.2571,34.8725L 44.5455,34.8725L 44.0379,30.058C 43.7401,27.2411 41.386,25.2172 38.7804,25.539C 36.1726,25.8598 34.299,28.4032 34.5967,31.2172L 36.0279,44.8173C 36.3062,47.446 38.3763,49.384 40.796,49.3688L 57.111,49.3688L 66.4732,63.5087C 67.366,64.8598 69.1928,65.1044 70.5533,64.0546C 71.9131,63.0041 72.29,61.0571 71.3944,59.706 Z "/>
	<path fill="#FFFFFF" fill-opacity="1" stroke-linejoin="round" d="M 44.8978,18.9838C 44.8978,21.8866 42.7186,24.2406 40.0339,24.2406C 37.3465,24.2406 35.1673,21.8866 35.1673,18.9838C 35.1673,16.0837 37.3465,13.7297 40.0339,13.7297C 42.7186,13.7297 44.8978,16.0837 44.8978,18.9838 Z "/>
	<g>
		<path fill="none" stroke-width="3" stroke-linejoin="round" stroke="#FF0000" stroke-opacity="1" d="M 15.5425,6.09489L 79.2102,6.09489C 84.7331,6.09489 89.2102,10.5722 89.2102,16.0949L 89.2102,80.0829C 89.2102,85.6059 84.7331,90.0829 79.2102,90.0829L 15.5425,90.0829C 10.0197,90.0829 5.54251,85.6059 5.54251,80.0829L 5.54251,16.0949C 5.54251,10.5722 10.0197,6.09489 15.5425,6.09489 Z "/>
		<line fill="none" stroke-width="3" stroke-linejoin="round" stroke="#FF0000" stroke-opacity="1" x1="8.04214" y1="9.08928" x2="86.7088" y2="87.0893"/>
	</g>
	<g>
		<radialGradient id="SVGID_Fill1_" cx="-16.0266" cy="9.87932" r="118.103" gradientUnits="userSpaceOnUse">
			<stop offset="0" stop-color="#FFFFFF" stop-opacity="0.843137"/>
			<stop offset="0.77027" stop-color="#FFFFFF" stop-opacity="0.32549"/>
			<stop offset="1" stop-color="#FFFFFF" stop-opacity="0"/>
		</radialGradient>
		<path fill="url(#SVGID_Fill1_)" stroke-width="0.2" stroke-linejoin="round" d="M 16.3506,3.44035L 80.3506,3.44035C 86.4257,3.44035 91.3506,8.3654 91.3506,14.4404L 91.3506,77.4401C 91.3506,83.5153 86.4257,88.4401 80.3506,88.4401L 16.3506,88.4401C 10.2755,88.4401 5.35059,83.5153 5.35059,77.4401L 5.35059,14.4404C 5.35059,8.3654 10.2755,3.44035 16.3506,3.44035 Z "/>
		<radialGradient id="SVGID_Stroke1_" cx="73.3702" cy="47.4408" r="669.951" gradientUnits="userSpaceOnUse">
			<stop offset="0.869369" stop-color="#F1F1F1" stop-opacity="0"/>
			<stop offset="1" stop-color="#EEEEEE" stop-opacity="0.898039"/>
		</radialGradient>
		<path fill="none" stroke-width="4" stroke-linejoin="round" stroke="url(#SVGID_Stroke1_)" d="M 82.6005,7.43987L 82.6005,7.43987C 86.6046,7.43987 89.8505,10.686 89.8505,14.6899L 89.8505,80.1904C 89.8505,84.1943 86.6046,87.4404 82.6005,87.4404L 82.6005,87.4404C 78.5965,87.4404 75.3505,84.1943 75.3505,80.1904L 75.3505,14.6899C 75.3505,10.686 78.5965,7.43987 82.6005,7.43987 Z "/>
		<radialGradient id="SVGID_Stroke2_" cx="21.331" cy="47.4394" r="669.951" gradientUnits="userSpaceOnUse" gradientTransform="rotate(180.000000 21.330963 47.439377)">
			<stop offset="0.869369" stop-color="#F1F1F1" stop-opacity="0"/>
			<stop offset="1" stop-color="#EEEEEE" stop-opacity="0.898039"/>
		</radialGradient>
		<path fill="none" stroke-width="4" stroke-linejoin="round" stroke="url(#SVGID_Stroke2_)" d="M 12.1006,87.4404L 12.1006,87.4404C 8.09656,87.4404 4.85065,84.1945 4.85065,80.1906L 4.85065,14.6901C 4.85065,10.686 8.09656,7.44011 12.1006,7.44011L 12.1006,7.44011C 16.1047,7.44011 19.3506,10.686 19.3506,14.6901L 19.3506,80.1906C 19.3506,84.1945 16.1047,87.4404 12.1006,87.4404 Z "/>
		<radialGradient id="SVGID_Stroke3_" cx="47.3518" cy="21.4208" r="79.1194" gradientUnits="userSpaceOnUse" gradientTransform="rotate(-90.000000 47.351807 21.420822)">
			<stop offset="0.869369" stop-color="#F1F1F1" stop-opacity="0"/>
			<stop offset="1" stop-color="#EEEEEE" stop-opacity="0.898039"/>
		</radialGradient>
		<path fill="none" stroke-width="4" stroke-linejoin="round" stroke="url(#SVGID_Stroke3_)" d="M 7.35046,12.1904L 7.35046,12.1904C 7.35046,8.1862 10.5964,4.94035 14.6005,4.94035L 80.1008,4.94035C 84.105,4.94035 87.3508,8.1862 87.3508,12.1904L 87.3508,12.1904C 87.3508,16.1943 84.105,19.4404 80.1008,19.4404L 14.6005,19.4404C 10.5964,19.4404 7.35046,16.1943 7.35046,12.1904 Z "/>
		<radialGradient id="SVGID_Stroke4_" cx="47.3494" cy="73.4599" r="79.1183" gradientUnits="userSpaceOnUse" gradientTransform="rotate(90.000000 47.349426 73.459885)">
			<stop offset="0.869369" stop-color="#F1F1F1" stop-opacity="0"/>
			<stop offset="1" stop-color="#EEEEEE" stop-opacity="0.898039"/>
		</radialGradient>
		<path fill="none" stroke-width="4" stroke-linejoin="round" stroke="url(#SVGID_Stroke4_)" d="M 87.3508,82.6904L 87.3508,82.6904C 87.3508,86.6943 84.1048,89.9404 80.1008,89.9404L 14.6004,89.9404C 10.5963,89.9404 7.35043,86.6943 7.35043,82.6904L 7.35043,82.6904C 7.35043,78.6862 10.5963,75.4404 14.6004,75.4404L 80.1008,75.4404C 84.1048,75.4404 87.3508,78.6862 87.3508,82.6904 Z "/>
	</g>
</svg>
