<?xml version="1.0" encoding="utf-8"?>
<!DOCTYPE svg PUBLIC "-//W3C//DTD SVG 1.1//EN" "http://www.w3.org/Graphics/SVG/1.1/DTD/svg11.dtd">
<svg xmlns="http://www.w3.org/2000/svg" xmlns:xlink="http://www.w3.org/1999/xlink" version="1.1" baseProfile="full" width="95" height="95" viewBox="0 0 95.00 95.00" enable-background="new 0 0 95.00 95.00" xml:space="preserve">
	<path fill="#000000" fill-opacity="1" stroke-linejoin="round" stroke="#C0C0CC" stroke-opacity="1" d="M 15.5,2.49992L 79.5,2.49992C 86.6797,2.49992 92.5,8.32024 92.5,15.4999L 92.5,79.4997C 92.5,86.6794 86.6797,92.4999 79.5,92.4999L 15.5,92.4999C 8.32031,92.4999 2.5,86.6794 2.5,79.4997L 2.5,15.4999C 2.5,8.32024 8.32031,2.49992 15.5,2.49992 Z "/>
	<path fill="#FFFFFF" fill-opacity="1" stroke-linejoin="round" d="M 50.8489,80.6823L 79.0989,80.6823L 79.0982,28.4311L 50.8489,16.4323L 50.8489,80.6823 Z M 67.9742,30.4718C 67.9634,32.7187 66.151,34.5326 63.9282,34.5219C 61.6804,34.5326 59.8688,32.7187 59.8843,30.4718C 59.8688,28.2433 61.6804,26.4291 63.9282,26.4218C 66.151,26.4291 67.9634,28.2433 67.9742,30.4718 Z M 54.5198,40.9697C 54.5089,38.0307 56.7986,35.673 59.6447,35.6601L 68.1531,35.6894C 71.2686,35.6757 73.3441,38.3349 73.3387,41.0622L 73.3387,53.5087C 73.3496,55.9643 69.8546,55.9643 69.8628,53.5087L 69.8628,42.0524L 69.0525,42.0524L 69.0525,73.818C 69.0424,77.0654 64.3367,76.9679 64.3502,73.818L 64.3502,55.2194L 63.54,55.2194L 63.54,73.818C 63.5325,76.9679 58.8533,77.0654 58.8641,73.818L 58.8641,42.0524L 58.0248,42.0524L 58.0248,53.5087C 58.0221,55.9452 54.5089,55.9452 54.5198,53.5087L 54.5198,40.9697 Z "/>
	<path fill="#FFFFFF" fill-opacity="1" stroke-linejoin="round" d="M 16.3387,28.4218L 16.338,80.673L 44.588,80.673L 44.588,16.423L 16.3387,28.4218 Z M 30.83,60.3447L 29.6908,60.3447L 29.6908,74.5043C 29.7037,77.0607 25.8873,77.0607 25.8846,74.5043L 25.8846,60.3447L 20.8206,60.3447L 26.2459,41.5375L 25.3755,41.5375L 22.2,52.276C 21.443,54.623 18.233,53.6596 18.9637,51.1669L 22.4984,39.4965C 22.886,38.1608 24.5659,35.8031 27.4727,35.8058L 33.0487,35.8058C 35.9231,35.8031 37.6111,38.1791 38.0521,39.4965L 41.5889,51.1352C 42.2958,53.6462 39.1094,54.6864 38.3499,52.2443L 35.1743,41.5375L 34.2459,41.5375L 39.7003,60.3447L 34.6361,60.3447L 34.6361,74.5336C 34.6334,77.058 30.8326,77.0446 30.83,74.5336L 30.83,60.3447 Z M 34.3357,30.5883C 34.3485,32.8351 32.5369,34.6493 30.2898,34.6386C 28.0663,34.6493 26.254,32.8351 26.2459,30.5883C 26.254,28.3598 28.0663,26.5458 30.2898,26.5383C 32.5369,26.5458 34.3485,28.3598 34.3357,30.5883 Z "/>
	<g>
		<radialGradient id="SVGID_Fill1_" cx="-16.0266" cy="9.87932" r="118.102" gradientUnits="userSpaceOnUse">
			<stop offset="0" stop-color="#FFFFFF" stop-opacity="0.843137"/>
			<stop offset="0.77027" stop-color="#FFFFFF" stop-opacity="0.32549"/>
			<stop offset="1" stop-color="#FFFFFF" stop-opacity="0"/>
		</radialGradient>
		<path fill="url(#SVGID_Fill1_)" stroke-width="0.2" stroke-linejoin="round" d="M 16.3506,3.44035L 80.3506,3.44035C 86.4257,3.44035 91.3506,8.3654 91.3506,14.4404L 91.3506,77.4401C 91.3506,83.5153 86.4257,88.4401 80.3506,88.4401L 16.3506,88.4401C 10.2755,88.4401 5.35059,83.5153 5.35059,77.4401L 5.35059,14.4404C 5.35059,8.3654 10.2755,3.44035 16.3506,3.44035 Z "/>
		<radialGradient id="SVGID_Stroke1_" cx="73.3702" cy="47.4408" r="669.951" gradientUnits="userSpaceOnUse">
			<stop offset="0.869369" stop-color="#F1F1F1" stop-opacity="0"/>
			<stop offset="1" stop-color="#EEEEEE" stop-opacity="0.898039"/>
		</radialGradient>
		<path fill="none" stroke-width="4" stroke-linejoin="round" stroke="url(#SVGID_Stroke1_)" d="M 82.6005,7.43987L 82.6005,7.43987C 86.6046,7.43987 89.8505,10.686 89.8505,14.6899L 89.8505,80.1904C 89.8505,84.1943 86.6046,87.4404 82.6005,87.4404L 82.6005,87.4404C 78.5964,87.4404 75.3505,84.1943 75.3505,80.1904L 75.3505,14.6899C 75.3505,10.686 78.5964,7.43987 82.6005,7.43987 Z "/>
		<radialGradient id="SVGID_Stroke2_" cx="21.3309" cy="47.4396" r="669.951" gradientUnits="userSpaceOnUse" gradientTransform="rotate(180.000000 21.330933 47.439621)">
			<stop offset="0.869369" stop-color="#F1F1F1" stop-opacity="0"/>
			<stop offset="1" stop-color="#EEEEEE" stop-opacity="0.898039"/>
		</radialGradient>
		<path fill="none" stroke-width="4" stroke-linejoin="round" stroke="url(#SVGID_Stroke2_)" d="M 12.1006,87.4406L 12.1006,87.4406C 8.09656,87.4406 4.85065,84.1947 4.85065,80.1908L 4.85065,14.6904C 4.85065,10.6862 8.09656,7.44035 12.1006,7.44035L 12.1006,7.44035C 16.1047,7.44035 19.3506,10.6862 19.3506,14.6904L 19.3506,80.1908C 19.3506,84.1947 16.1047,87.4406 12.1006,87.4406 Z "/>
		<radialGradient id="SVGID_Stroke3_" cx="47.3518" cy="21.4208" r="79.1194" gradientUnits="userSpaceOnUse" gradientTransform="rotate(-90.000000 47.351807 21.420822)">
			<stop offset="0.869369" stop-color="#F1F1F1" stop-opacity="0"/>
			<stop offset="1" stop-color="#EEEEEE" stop-opacity="0.898039"/>
		</radialGradient>
		<path fill="none" stroke-width="4" stroke-linejoin="round" stroke="url(#SVGID_Stroke3_)" d="M 7.3504,12.1904L 7.3504,12.1904C 7.3504,8.1862 10.5964,4.94035 14.6004,4.94035L 80.1007,4.94035C 84.105,4.94035 87.3507,8.1862 87.3507,12.1904L 87.3507,12.1904C 87.3507,16.1943 84.105,19.4404 80.1007,19.4404L 14.6004,19.4404C 10.5964,19.4404 7.3504,16.1943 7.3504,12.1904 Z "/>
		<radialGradient id="SVGID_Stroke4_" cx="47.3494" cy="73.4599" r="79.1183" gradientUnits="userSpaceOnUse" gradientTransform="rotate(90.000000 47.349365 73.459885)">
			<stop offset="0.869369" stop-color="#F1F1F1" stop-opacity="0"/>
			<stop offset="1" stop-color="#EEEEEE" stop-opacity="0.898039"/>
		</radialGradient>
		<path fill="none" stroke-width="4" stroke-linejoin="round" stroke="url(#SVGID_Stroke4_)" d="M 87.3507,82.6904L 87.3507,82.6904C 87.3507,86.6943 84.1047,89.9404 80.1007,89.9404L 14.6004,89.9404C 10.5962,89.9404 7.3504,86.6943 7.3504,82.6904L 7.3504,82.6904C 7.3504,78.6862 10.5962,75.4404 14.6004,75.4404L 80.1007,75.4404C 84.1047,75.4404 87.3507,78.6862 87.3507,82.6904 Z "/>
	</g>
</svg>
