<?xml version="1.0" encoding="utf-8"?>
<!DOCTYPE svg PUBLIC "-//W3C//DTD SVG 1.1//EN" "http://www.w3.org/Graphics/SVG/1.1/DTD/svg11.dtd">
<svg xmlns="http://www.w3.org/2000/svg" xmlns:xlink="http://www.w3.org/1999/xlink" version="1.1" baseProfile="full" width="95" height="95" viewBox="0 0 95.00 95.00" enable-background="new 0 0 95.00 95.00" xml:space="preserve">
	<path fill="#000000" fill-opacity="1" stroke-linejoin="round" stroke="#000000" stroke-opacity="1" d="M 15.5,2.49968L 79.5,2.49968C 86.6797,2.49968 92.5,8.31999 92.5,15.4997L 92.5,79.4994C 92.5,86.6791 86.6797,92.4997 79.5,92.4997L 15.5,92.4997C 8.32031,92.4997 2.5,86.6791 2.5,79.4994L 2.5,15.4997C 2.5,8.31999 8.32031,2.49968 15.5,2.49968 Z "/>
	<g>
		<path fill="none" stroke-width="2" stroke-linejoin="round" stroke="#FFFFFF" stroke-opacity="1" d="M 48.7026,15.1532C 65.1793,15.1532 78.5359,28.8827 78.5359,45.8197C 78.5359,62.7563 65.1791,76.4863 48.7026,76.4863C 32.2261,76.4863 18.8693,62.7563 18.8693,45.8197C 18.8693,28.8827 32.2259,15.1532 48.7026,15.1532 Z "/>
		<path fill="none" stroke-width="3" stroke-linecap="round" stroke-linejoin="round" stroke="#FFFFFF" stroke-opacity="1" d="M 57.2026,32.1528L 48.2026,47.8193L 48.5359,21.486"/>
		<g>
			<line fill="none" stroke-width="3" stroke-linecap="round" stroke-linejoin="round" stroke="#FFFFFF" stroke-opacity="1" x1="22.2024" y1="45.8193" x2="25.2441" y2="45.8193"/>
			<line fill="none" stroke-width="3" stroke-linecap="round" stroke-linejoin="round" stroke="#FFFFFF" stroke-opacity="1" x1="72.0987" y1="45.9858" x2="75.1404" y2="45.9858"/>
		</g>
		<g>
			<line fill="none" stroke-width="3" stroke-linecap="round" stroke-linejoin="round" stroke="#FFFFFF" stroke-opacity="1" x1="29.8439" y1="64.6432" x2="31.9947" y2="62.4926"/>
			<line fill="none" stroke-width="3" stroke-linecap="round" stroke-linejoin="round" stroke="#FFFFFF" stroke-opacity="1" x1="65.2437" y1="29.4792" x2="67.3945" y2="27.3283"/>
		</g>
		<g>
			<line fill="none" stroke-width="3" stroke-linecap="round" stroke-linejoin="round" stroke="#FFFFFF" stroke-opacity="1" x1="29.9622" y1="27.2106" x2="32.113" y2="29.3615"/>
			<line fill="none" stroke-width="3" stroke-linecap="round" stroke-linejoin="round" stroke="#FFFFFF" stroke-opacity="1" x1="65.1265" y1="62.6105" x2="67.2773" y2="64.7614"/>
		</g>
		<g>
			<line fill="none" stroke-width="3" stroke-linecap="round" stroke-linejoin="round" stroke="#FFFFFF" stroke-opacity="1" x1="48.5354" y1="72.4552" x2="48.5354" y2="69.4135"/>
			<line fill="none" stroke-width="3" stroke-linecap="round" stroke-linejoin="round" stroke="#FFFFFF" stroke-opacity="1" x1="48.7021" y1="22.559" x2="48.7021" y2="19.5173"/>
		</g>
	</g>
	<g>
		<path fill="none" stroke-width="3" stroke-linejoin="round" stroke="#FF0000" stroke-opacity="1" d="M 15.7365,6.08928L 79.4035,6.08928C 84.9263,6.08928 89.4035,10.5663 89.4035,16.0893L 89.4035,80.0798C 89.4035,85.6025 84.9263,90.0798 79.4035,90.0798L 15.7365,90.0798C 10.2136,90.0798 5.73645,85.6025 5.73645,80.0798L 5.73645,16.0893C 5.73645,10.5663 10.2136,6.08928 15.7365,6.08928 Z "/>
		<line fill="none" stroke-width="3" stroke-linejoin="round" stroke="#FF0000" stroke-opacity="1" x1="8.23633" y1="9.08342" x2="86.903" y2="87.0834"/>
	</g>
	<g>
		<radialGradient id="SVGID_Fill1_" cx="-15.8324" cy="9.8737" r="118.102" gradientUnits="userSpaceOnUse">
			<stop offset="0" stop-color="#FFFFFF" stop-opacity="0.843137"/>
			<stop offset="0.77027" stop-color="#FFFFFF" stop-opacity="0.32549"/>
			<stop offset="1" stop-color="#FFFFFF" stop-opacity="0"/>
		</radialGradient>
		<path fill="url(#SVGID_Fill1_)" stroke-width="0.2" stroke-linejoin="round" d="M 16.5447,3.43473L 80.5447,3.43473C 86.6199,3.43473 91.5447,8.35978 91.5447,14.4347L 91.5447,77.4345C 91.5447,83.5097 86.6199,88.4345 80.5447,88.4345L 16.5447,88.4345C 10.4697,88.4345 5.54474,83.5097 5.54474,77.4345L 5.54474,14.4347C 5.54474,8.35978 10.4697,3.43473 16.5447,3.43473 Z "/>
		<radialGradient id="SVGID_Stroke1_" cx="73.5644" cy="47.4352" r="669.951" gradientUnits="userSpaceOnUse">
			<stop offset="0.869369" stop-color="#F1F1F1" stop-opacity="0"/>
			<stop offset="1" stop-color="#EEEEEE" stop-opacity="0.898039"/>
		</radialGradient>
		<path fill="none" stroke-width="4" stroke-linejoin="round" stroke="url(#SVGID_Stroke1_)" d="M 82.7947,7.43425L 82.7947,7.43425C 86.7988,7.43425 90.0447,10.6801 90.0447,14.6842L 90.0447,80.1845C 90.0447,84.1886 86.7988,87.4345 82.7947,87.4345L 82.7947,87.4345C 78.7906,87.4345 75.5447,84.1886 75.5447,80.1845L 75.5447,14.6842C 75.5447,10.6801 78.7906,7.43425 82.7947,7.43425 Z "/>
		<radialGradient id="SVGID_Stroke2_" cx="21.5251" cy="47.4335" r="669.951" gradientUnits="userSpaceOnUse" gradientTransform="rotate(180.000000 21.525085 47.433514)">
			<stop offset="0.869369" stop-color="#F1F1F1" stop-opacity="0"/>
			<stop offset="1" stop-color="#EEEEEE" stop-opacity="0.898039"/>
		</radialGradient>
		<path fill="none" stroke-width="4" stroke-linejoin="round" stroke="url(#SVGID_Stroke2_)" d="M 12.2947,87.4345L 12.2947,87.4345C 8.29071,87.4345 5.0448,84.1886 5.0448,80.1847L 5.0448,14.6842C 5.0448,10.6801 8.29071,7.43425 12.2947,7.43425L 12.2947,7.43425C 16.2988,7.43425 19.5447,10.6801 19.5447,14.6842L 19.5447,80.1847C 19.5447,84.1886 16.2988,87.4345 12.2947,87.4345 Z "/>
		<radialGradient id="SVGID_Stroke3_" cx="47.5458" cy="21.415" r="79.1184" gradientUnits="userSpaceOnUse" gradientTransform="rotate(-90.000000 47.545841 21.414959)">
			<stop offset="0.869369" stop-color="#F1F1F1" stop-opacity="0"/>
			<stop offset="1" stop-color="#EEEEEE" stop-opacity="0.898039"/>
		</radialGradient>
		<path fill="none" stroke-width="4" stroke-linejoin="round" stroke="url(#SVGID_Stroke3_)" d="M 7.54449,12.1845L 7.54449,12.1845C 7.54449,8.18058 10.7905,4.93449 14.7945,4.93449L 80.2949,4.93449C 84.2991,4.93449 87.5449,8.18058 87.5449,12.1845L 87.5449,12.1845C 87.5449,16.1886 84.2991,19.4345 80.2949,19.4345L 14.7945,19.4345C 10.7905,19.4345 7.54449,16.1886 7.54449,12.1845 Z "/>
		<radialGradient id="SVGID_Stroke4_" cx="47.5438" cy="73.454" r="79.1194" gradientUnits="userSpaceOnUse" gradientTransform="rotate(90.000000 47.543823 73.454025)">
			<stop offset="0.869369" stop-color="#F1F1F1" stop-opacity="0"/>
			<stop offset="1" stop-color="#EEEEEE" stop-opacity="0.898039"/>
		</radialGradient>
		<path fill="none" stroke-width="4" stroke-linejoin="round" stroke="url(#SVGID_Stroke4_)" d="M 87.5452,82.6845L 87.5452,82.6845C 87.5452,86.6886 84.2991,89.9345 80.2952,89.9345L 14.7948,89.9345C 10.7906,89.9345 7.54486,86.6886 7.54486,82.6845L 7.54486,82.6845C 7.54486,78.6806 10.7906,75.4345 14.7948,75.4345L 80.2952,75.4345C 84.2991,75.4345 87.5452,78.6806 87.5452,82.6845 Z "/>
	</g>
</svg>
