<?xml version="1.0" encoding="utf-8"?>
<!DOCTYPE svg PUBLIC "-//W3C//DTD SVG 1.1//EN" "http://www.w3.org/Graphics/SVG/1.1/DTD/svg11.dtd">
<svg xmlns="http://www.w3.org/2000/svg" xmlns:xlink="http://www.w3.org/1999/xlink" version="1.1" baseProfile="full" width="91" height="91" viewBox="0 0 91.00 91.00" enable-background="new 0 0 91.00 91.00" xml:space="preserve">
	<path fill="#000000" fill-opacity="1" stroke-linejoin="round" stroke="#000000" stroke-opacity="1" d="M 13.5,0.5L 77.5,0.5C 84.6797,0.5 90.5,6.32031 90.5,13.5L 90.5,77.4998C 90.5,84.6794 84.6797,90.5 77.5,90.5L 13.5,90.5C 6.32031,90.5 0.5,84.6794 0.5,77.4998L 0.5,13.5C 0.5,6.32031 6.32031,0.5 13.5,0.5 Z "/>
	<g>
		<path fill="none" stroke-width="2" stroke-linejoin="round" stroke="#FFFFFF" stroke-opacity="1" d="M 46.7026,13.1536C 63.1793,13.1536 76.5359,26.8831 76.5359,43.8201C 76.5359,60.7566 63.1791,74.4866 46.7026,74.4866C 30.2261,74.4866 16.8693,60.7566 16.8693,43.8201C 16.8693,26.8831 30.2259,13.1536 46.7026,13.1536 Z "/>
		<path fill="none" stroke-width="3" stroke-linecap="round" stroke-linejoin="round" stroke="#FFFFFF" stroke-opacity="1" d="M 55.2026,30.1531L 46.2026,45.8196L 46.5359,19.4863"/>
		<g>
			<line fill="none" stroke-width="3" stroke-linecap="round" stroke-linejoin="round" stroke="#FFFFFF" stroke-opacity="1" x1="20.2024" y1="43.8196" x2="23.2441" y2="43.8196"/>
			<line fill="none" stroke-width="3" stroke-linecap="round" stroke-linejoin="round" stroke="#FFFFFF" stroke-opacity="1" x1="70.0987" y1="43.9861" x2="73.1404" y2="43.9861"/>
		</g>
		<g>
			<line fill="none" stroke-width="3" stroke-linecap="round" stroke-linejoin="round" stroke="#FFFFFF" stroke-opacity="1" x1="27.8439" y1="62.6436" x2="29.9947" y2="60.4929"/>
			<line fill="none" stroke-width="3" stroke-linecap="round" stroke-linejoin="round" stroke="#FFFFFF" stroke-opacity="1" x1="63.2437" y1="27.4795" x2="65.3945" y2="25.3286"/>
		</g>
		<g>
			<line fill="none" stroke-width="3" stroke-linecap="round" stroke-linejoin="round" stroke="#FFFFFF" stroke-opacity="1" x1="27.9622" y1="25.2109" x2="30.113" y2="27.3618"/>
			<line fill="none" stroke-width="3" stroke-linecap="round" stroke-linejoin="round" stroke="#FFFFFF" stroke-opacity="1" x1="63.1265" y1="60.6108" x2="65.2773" y2="62.7617"/>
		</g>
		<g>
			<line fill="none" stroke-width="3" stroke-linecap="round" stroke-linejoin="round" stroke="#FFFFFF" stroke-opacity="1" x1="46.5354" y1="70.4556" x2="46.5354" y2="67.4138"/>
			<line fill="none" stroke-width="3" stroke-linecap="round" stroke-linejoin="round" stroke="#FFFFFF" stroke-opacity="1" x1="46.7021" y1="20.5593" x2="46.7021" y2="17.5176"/>
		</g>
	</g>
	<g>
		<radialGradient id="SVGID_Fill1_" cx="-17.8324" cy="7.87402" r="118.102" gradientUnits="userSpaceOnUse">
			<stop offset="0" stop-color="#FFFFFF" stop-opacity="0.843137"/>
			<stop offset="0.77027" stop-color="#FFFFFF" stop-opacity="0.32549"/>
			<stop offset="1" stop-color="#FFFFFF" stop-opacity="0"/>
		</radialGradient>
		<path fill="url(#SVGID_Fill1_)" stroke-width="0.2" stroke-linejoin="round" d="M 14.5447,1.43506L 78.5447,1.43506C 84.6199,1.43506 89.5447,6.36011 89.5447,12.4351L 89.5447,75.4348C 89.5447,81.51 84.6199,86.4348 78.5447,86.4348L 14.5447,86.4348C 8.46967,86.4348 3.54474,81.51 3.54474,75.4348L 3.54474,12.4351C 3.54474,6.36011 8.46967,1.43506 14.5447,1.43506 Z "/>
		<radialGradient id="SVGID_Stroke1_" cx="71.5644" cy="45.4355" r="669.951" gradientUnits="userSpaceOnUse">
			<stop offset="0.869369" stop-color="#F1F1F1" stop-opacity="0"/>
			<stop offset="1" stop-color="#EEEEEE" stop-opacity="0.898039"/>
		</radialGradient>
		<path fill="none" stroke-width="4" stroke-linejoin="round" stroke="url(#SVGID_Stroke1_)" d="M 80.7947,5.43457L 80.7947,5.43457C 84.7988,5.43457 88.0447,8.68042 88.0447,12.6846L 88.0447,78.1848C 88.0447,82.189 84.7988,85.4348 80.7947,85.4348L 80.7947,85.4348C 76.7906,85.4348 73.5447,82.189 73.5447,78.1848L 73.5447,12.6846C 73.5447,8.68042 76.7906,5.43457 80.7947,5.43457 Z "/>
		<radialGradient id="SVGID_Stroke2_" cx="19.5251" cy="45.4338" r="669.951" gradientUnits="userSpaceOnUse" gradientTransform="rotate(180.000000 19.525085 45.433838)">
			<stop offset="0.869369" stop-color="#F1F1F1" stop-opacity="0"/>
			<stop offset="1" stop-color="#EEEEEE" stop-opacity="0.898039"/>
		</radialGradient>
		<path fill="none" stroke-width="4" stroke-linejoin="round" stroke="url(#SVGID_Stroke2_)" d="M 10.2947,85.4348L 10.2947,85.4348C 6.29071,85.4348 3.0448,82.189 3.0448,78.1851L 3.0448,12.6846C 3.0448,8.68042 6.29071,5.43457 10.2947,5.43457L 10.2947,5.43457C 14.2988,5.43457 17.5447,8.68042 17.5447,12.6846L 17.5447,78.1851C 17.5447,82.189 14.2988,85.4348 10.2947,85.4348 Z "/>
		<radialGradient id="SVGID_Stroke3_" cx="45.5458" cy="19.4153" r="79.1184" gradientUnits="userSpaceOnUse" gradientTransform="rotate(-90.000000 45.545841 19.415283)">
			<stop offset="0.869369" stop-color="#F1F1F1" stop-opacity="0"/>
			<stop offset="1" stop-color="#EEEEEE" stop-opacity="0.898039"/>
		</radialGradient>
		<path fill="none" stroke-width="4" stroke-linejoin="round" stroke="url(#SVGID_Stroke3_)" d="M 5.54449,10.1848L 5.54449,10.1848C 5.54449,6.18091 8.79047,2.93481 12.7945,2.93481L 78.2949,2.93481C 82.2991,2.93481 85.5449,6.18091 85.5449,10.1848L 85.5449,10.1848C 85.5449,14.189 82.2991,17.4348 78.2949,17.4348L 12.7945,17.4348C 8.79047,17.4348 5.54449,14.189 5.54449,10.1848 Z "/>
		<radialGradient id="SVGID_Stroke4_" cx="45.5438" cy="71.4543" r="79.1194" gradientUnits="userSpaceOnUse" gradientTransform="rotate(90.000000 45.543823 71.454346)">
			<stop offset="0.869369" stop-color="#F1F1F1" stop-opacity="0"/>
			<stop offset="1" stop-color="#EEEEEE" stop-opacity="0.898039"/>
		</radialGradient>
		<path fill="none" stroke-width="4" stroke-linejoin="round" stroke="url(#SVGID_Stroke4_)" d="M 85.5452,80.6848L 85.5452,80.6848C 85.5452,84.689 82.2991,87.9348 78.2952,87.9348L 12.7948,87.9348C 8.79065,87.9348 5.54486,84.689 5.54486,80.6848L 5.54486,80.6848C 5.54486,76.6809 8.79065,73.4348 12.7948,73.4348L 78.2952,73.4348C 82.2991,73.4348 85.5452,76.6809 85.5452,80.6848 Z "/>
	</g>
</svg>
