<?xml version="1.0" encoding="utf-8"?>
<!DOCTYPE svg PUBLIC "-//W3C//DTD SVG 1.1//EN" "http://www.w3.org/Graphics/SVG/1.1/DTD/svg11.dtd">
<svg xmlns="http://www.w3.org/2000/svg" xmlns:xlink="http://www.w3.org/1999/xlink" version="1.1" baseProfile="full" width="95" height="95" viewBox="0 0 95.00 95.00" enable-background="new 0 0 95.00 95.00" xml:space="preserve">
	<path fill="#000000" fill-opacity="1" stroke-linejoin="round" stroke="#000000" stroke-opacity="1" d="M 15.5,2.49968L 79.5,2.49968C 86.6797,2.49968 92.5,8.31999 92.5,15.4997L 92.5,79.4994C 92.5,86.6791 86.6797,92.4997 79.5,92.4997L 15.5,92.4997C 8.32031,92.4997 2.5,86.6791 2.5,79.4994L 2.5,15.4997C 2.5,8.31999 8.32031,2.49968 15.5,2.49968 Z "/>
	<g>
		<path fill="#FFFFFF" fill-opacity="1" stroke-linejoin="round" stroke="#FFFFFF" stroke-opacity="1" d="M 32.3316,22.2055C 30.9566,22.6012 28.79,23.1845 26.7691,24.2055C 24.7483,25.2262 22.8733,26.6845 21.5816,28.2262C 20.29,29.768 19.5816,31.393 19.2066,33.4345C 18.8316,35.4762 18.79,37.9345 19.04,40.268C 19.29,42.6012 19.8316,44.8095 19.9566,46.497C 20.0816,48.1845 19.79,49.3512 18.915,50.7055C 18.04,52.0595 16.5816,53.6012 15.6441,55.393C 14.7066,57.1845 14.29,59.2262 14.6858,61.4762C 15.0816,63.7262 16.29,66.1845 18.0608,68.372C 19.8316,70.5595 22.165,72.4762 31.1025,73.4555C 40.04,74.4345 55.5816,74.4762 64.4566,73.997C 73.3316,73.518 75.54,72.518 77.1441,70.8095C 78.7483,69.1012 79.7483,66.6845 80.4566,63.872C 81.165,61.0595 81.5816,57.8512 80.8941,55.7055C 80.2066,53.5595 78.415,52.4762 76.9358,50.7055C 75.4566,48.9345 74.29,46.4762 73.4983,44.143C 72.7066,41.8095 72.29,39.6012 71.5816,37.9555C 70.8733,36.3095 69.8733,35.2262 68.79,33.8512C 67.7066,32.4762 66.54,30.8095 65.165,29.1637C 63.79,27.518 62.2066,25.893 60.29,24.643C 58.3733,23.393 56.1233,22.518 53.2483,22.018C 50.3733,21.518 46.8733,21.393 43.7066,21.3512C 40.54,21.3095 37.7066,21.3512 35.9983,21.4762C 34.29,21.6012 33.7066,21.8095 32.3316,22.2055 Z "/>
		<path fill="#FFFFFF" fill-opacity="0.611765" stroke-width="2" stroke-linejoin="round" stroke="#FFFFFF" stroke-opacity="0.415686" d="M 31.4445,20.4071C 29.9797,20.8278 27.6717,21.4477 25.519,22.5329C 23.3663,23.6178 21.369,25.1679 19.993,26.8066C 18.6171,28.4452 17.8625,30.1723 17.4631,32.3424C 17.0636,34.5124 17.0192,37.1254 17.2855,39.6054C 17.5518,42.0854 18.1288,44.4328 18.262,46.2265C 18.3951,48.0199 18.0845,49.2599 17.1524,50.6994C 16.2203,52.1386 14.6668,53.7773 13.6682,55.6816C 12.6694,57.5859 12.2256,59.756 12.6473,62.1474C 13.0689,64.539 14.3561,67.152 16.2425,69.477C 18.1288,71.8022 20.6144,73.8393 30.1351,74.8801C 39.6557,75.9208 56.2115,75.965 65.6656,75.4557C 75.1196,74.9465 77.472,73.8837 79.1809,72.0678C 80.8897,70.2521 81.955,67.6835 82.7095,64.694C 83.4641,61.7045 83.9079,58.2946 83.1756,56.0138C 82.4432,53.7328 80.5346,52.5815 78.959,50.6994C 77.3833,48.8171 76.1405,46.2043 75.2972,43.724C 74.4539,41.2441 74.01,38.8969 73.2554,37.1474C 72.5009,35.3981 71.4357,34.2467 70.2816,32.7853C 69.1276,31.3237 67.8848,29.5522 66.4201,27.8029C 64.9554,26.0536 63.2687,24.3266 61.227,22.998C 59.1853,21.6694 56.7885,20.7392 53.7259,20.2077C 50.6633,19.6762 46.9349,19.5434 43.5616,19.4992C 40.1884,19.455 37.1702,19.4992 35.3503,19.632C 33.5306,19.7648 32.9092,19.9862 31.4445,20.4071 Z "/>
		<path fill="#000000" fill-opacity="1" stroke-width="0.2" stroke-linejoin="round" d="M 26.3177,43.1535C 25.7448,42.88 24.9583,42.5258 24.6059,43.2802C 24.2535,44.0346 24.335,45.8974 24.3151,47.3495C 24.2951,48.8017 24.1736,49.8434 24.0191,50.9684C 23.8646,52.0934 23.6771,53.3017 23.2396,54.1767C 22.8021,55.0517 22.1146,55.5934 21.375,56.0622C 20.6354,56.5309 19.8438,56.9267 19.0208,57.4372C 18.1979,57.9477 17.3438,58.5727 17.2083,59.4267C 17.0729,60.2809 17.6563,61.3642 18.5347,62.5102C 19.4131,63.6559 20.5868,64.8644 21.4826,65.8124C 22.3785,66.7602 22.9965,67.4477 23.7535,68.0727C 24.5104,68.6977 25.4063,69.2602 26.625,69.5102C 27.8438,69.7602 29.3854,69.6977 30.5729,69.1838C 31.7604,68.6698 32.5937,67.7045 33.6562,67.2255C 34.7187,66.7463 36.0104,66.7533 36.6667,66.34C 37.3229,65.9267 37.3438,65.0934 36.8542,64.2914C 36.3646,63.4892 35.3646,62.7184 34.0625,61.8329C 32.7604,60.9477 31.1563,59.9477 30.0313,58.6352C 28.9063,57.3227 28.2604,55.6977 27.8229,54.2704C 27.3854,52.8434 27.1563,51.6142 27.1285,50.2445C 27.1007,48.8747 27.2743,47.3642 27.388,46.269C 27.5017,45.1733 27.5555,44.4928 27.4028,44.0563C 27.2499,43.6195 26.8906,43.4269 26.3177,43.1535 Z "/>
		<path fill="#000000" fill-opacity="1" stroke-width="0.2" stroke-linejoin="round" d="M 67.4426,45.5234C 67.7221,46.7934 67.8246,48.4018 67.8029,50.0082C 67.7813,51.6142 67.6354,53.2187 67.1562,54.5102C 66.6771,55.8019 65.8646,56.7809 64.9479,58.0204C 64.0313,59.2602 63.0104,60.7602 62.1354,61.7392C 61.2604,62.7184 60.5313,63.1767 60.0729,63.9477C 59.6146,64.7184 59.4271,65.8017 60.0938,66.6454C 60.7604,67.4892 62.2812,68.0937 63.6874,68.5832C 65.0937,69.0727 66.3854,69.4477 67.8229,69.2497C 69.2604,69.0517 70.8438,68.2809 72.2188,67.2704C 73.5938,66.2602 74.7604,65.0102 75.7083,63.6767C 76.6563,62.3434 77.3854,60.9267 77.7604,59.7602C 78.1354,58.5934 78.1563,57.6767 77.5208,56.8122C 76.8854,55.9477 75.5938,55.1352 74.6042,54.3122C 73.6146,53.4892 72.9271,52.6559 72.2292,51.9997C 71.5313,51.3434 70.8229,50.8642 70.4583,49.9579C 70.0938,49.0517 70.0729,47.7184 69.8889,46.5221C 69.7049,45.3261 69.3576,44.267 69.0573,43.518C 68.7569,42.769 68.5035,42.3295 68.0434,42.1933C 67.5833,42.057 66.9166,42.2238 66.8116,42.7729C 66.7065,43.3222 67.1631,44.2536 67.4426,45.5234 Z "/>
		<path fill="#000000" fill-opacity="1" stroke-width="0.2" stroke-linejoin="round" d="M 25.0364,42.432C 25.2604,41.5309 25.6563,39.8852 27.1979,37.6091C 28.7396,35.3329 31.4271,32.4267 33.7448,30.4892C 36.0625,28.5517 38.0104,27.5829 40.0573,26.8486C 42.1042,26.1142 44.25,25.6142 47.125,25.7966C 50,25.9789 53.6042,26.8434 56.3646,28.0361C 59.125,29.2289 61.0417,30.7497 62.8333,32.5204C 64.625,34.2914 66.2917,36.3122 67.2083,37.9892C 68.125,39.6664 68.2917,40.9997 68.3438,41.7289C 68.3958,42.4579 68.3333,42.5829 67.9271,42.7289C 67.5208,42.8747 66.7708,43.0414 65.2292,43.4267C 63.6875,43.8122 61.3542,44.4164 58.9156,44.6445C 56.477,44.8727 53.9332,44.7248 52.7081,43.2343C 51.483,41.7436 51.5768,38.9103 51.3372,38.6186C 51.0976,38.3271 50.5247,40.5771 49.8227,41.9218C 49.1207,43.2665 48.2895,43.706 46.8531,43.9987C 45.4167,44.2914 43.375,44.4372 41.2188,44.5622C 39.0625,44.6872 36.7917,44.7914 35.0208,44.7809C 33.25,44.7704 31.9792,44.6454 30.6354,44.5414C 29.2917,44.4372 27.875,44.3539 26.875,44.2079C 25.875,44.0622 25.2917,43.8539 25.0261,43.6716C 24.7604,43.4892 24.8125,43.3329 25.0364,42.432 Z "/>
		<path fill="#000000" fill-opacity="1" stroke-width="0.2" stroke-linejoin="round" d="M 45.4167,59.1454C 45.8472,59.2704 46.5695,59.6039 47.5695,59.7983C 48.5695,59.9926 49.8472,60.0483 51,59.9233C 52.1528,59.7983 53.1805,59.4926 53.7639,59.4372C 54.3472,59.3818 54.4861,59.5761 53.9722,60.3539C 53.4583,61.1318 52.2917,62.4926 50.9583,62.9789C 49.625,63.465 48.125,63.0761 47.0972,62.6039C 46.0695,62.1318 45.5139,61.5761 45.1944,60.9926C 44.875,60.4093 44.7917,59.7983 44.8194,59.4511C 44.8472,59.1039 44.9861,59.0204 45.4167,59.1454 Z "/>
		<path fill="#000000" fill-opacity="1" stroke-width="0.2" stroke-linejoin="round" d="M 42.6667,48.0204C 43.1528,47.2426 44.0972,47.1318 44.8611,47.3539C 45.625,47.5761 46.2083,48.1318 46.5833,48.7846C 46.9583,49.4372 47.125,50.1872 47.0833,51.0761C 47.0417,51.965 46.7917,52.9926 46.5417,53.6315C 46.2917,54.2704 46.0417,54.5204 45.4722,54.6733C 44.9028,54.8261 44.0139,54.8818 43.375,54.8122C 42.7361,54.7426 42.3472,54.5483 42.1805,54.0068C 42.0139,53.465 42.0695,52.5761 42.1111,51.4093C 42.1528,50.2426 42.1805,48.7983 42.6667,48.0204 Z "/>
		<path fill="#000000" fill-opacity="1" stroke-width="0.2" stroke-linejoin="round" d="M 52.9028,47.5346C 53.4028,47.2983 54.3472,47.2426 55.0555,47.4648C 55.7639,47.6872 56.2361,48.1874 56.5555,48.8261C 56.8749,49.4653 57.0416,50.2428 56.9999,51.0903C 56.9583,51.9374 56.7083,52.8539 56.1111,53.4511C 55.5139,54.0483 54.5694,54.3261 53.875,54.2846C 53.1805,54.2428 52.7361,53.8818 52.5139,52.8818C 52.2916,51.8818 52.2917,50.2428 52.3194,49.215C 52.3472,48.1872 52.4028,47.7704 52.9028,47.5346 Z "/>
		<path fill="#FFFFFF" fill-opacity="1" stroke-width="0.2" stroke-linejoin="round" d="M 42.5625,49.1559C 42.9167,49.0414 43.5417,49.0414 43.8958,49.3227C 44.25,49.6039 44.3333,50.1664 44.2917,50.6454C 44.25,51.1247 44.0833,51.5204 43.75,51.6559C 43.4167,51.7914 42.9167,51.6664 42.6042,51.3017C 42.2917,50.9372 42.1667,50.3329 42.1458,49.9164C 42.125,49.4997 42.2083,49.2704 42.5625,49.1559 Z "/>
		<path fill="#FFFFFF" fill-opacity="1" stroke-width="0.2" stroke-linejoin="round" d="M 52.7188,48.6872C 53.0625,48.3954 53.5208,48.3122 53.8542,48.4997C 54.1875,48.6872 54.3958,49.1454 54.4583,49.6247C 54.5208,50.1039 54.4375,50.6039 54.125,50.8539C 53.8125,51.1039 53.2708,51.1039 52.8646,50.9164C 52.4583,50.7289 52.1875,50.3539 52.1667,49.9164C 52.1458,49.4789 52.375,48.9789 52.7188,48.6872 Z "/>
		<path fill="#FFFFFF" fill-opacity="1" stroke-linejoin="round" stroke="#FFFFFF" stroke-opacity="1" d="M 27.3096,36.8676C 26.8998,37.298 26.1776,38.3537 25.8582,39.2912C 25.5388,40.2287 25.6221,41.048 25.8443,41.6176C 26.0665,42.1869 26.4276,42.5063 26.9763,42.7909C 27.5248,43.0758 28.2609,43.3258 28.8651,43.2983C 29.4693,43.2704 29.9415,42.9648 30.2748,42.2909C 30.6082,41.6176 30.8026,40.5758 30.7818,39.7633C 30.7609,38.9508 30.5248,38.3676 30.3096,37.8398C 30.0943,37.3119 29.8998,36.8398 29.6846,36.7008C 29.4693,36.5619 29.2332,36.7563 28.9346,36.8327C 28.6359,36.9091 28.2748,36.8676 28.0457,36.7494C 27.8165,36.6313 27.7193,36.4369 27.3096,36.8676 Z "/>
		<path fill="#FFFFFF" fill-opacity="1" stroke-linejoin="round" stroke="#FFFFFF" stroke-opacity="1" d="M 30.6915,36.8188C 30.7609,37.298 31.1915,38.2287 31.636,38.9858C 32.0804,39.7426 32.5388,40.3258 33.0735,40.6383C 33.6082,40.9508 34.2193,40.9926 34.6984,40.7841C 35.1776,40.5758 35.5248,40.1176 35.8513,39.5483C 36.1776,38.9787 36.4832,38.298 36.6152,37.7077C 36.7471,37.1176 36.7054,36.6176 36.379,36.0273C 36.0526,35.4369 35.4415,34.7563 34.8721,34.3327C 34.3026,33.9091 33.7748,33.7426 33.3096,33.5966C 32.8443,33.4508 32.4415,33.3258 32.129,33.3744C 31.8165,33.423 31.5943,33.6454 31.5318,33.9858C 31.4693,34.3258 31.5665,34.7841 31.5388,35.1869C 31.5109,35.5898 31.3582,35.9369 31.136,36.1244C 30.9138,36.3119 30.6221,36.3398 30.6915,36.8188 Z "/>
		<path fill="#FFFFFF" fill-opacity="1" stroke-linejoin="round" stroke="#FFFFFF" stroke-opacity="1" d="M 31.6985,32.7287C 32.2471,32.8119 33.2054,32.7563 34.004,32.3534C 34.8026,31.9508 35.4415,31.2008 35.761,30.5483C 36.0804,29.8954 36.0804,29.3398 35.8373,28.7633C 35.5943,28.1869 35.1082,27.5898 34.6568,27.4508C 34.2054,27.3119 33.7888,27.6313 33.2054,28.173C 32.6221,28.7148 31.8721,29.4787 31.4554,30.1869C 31.0388,30.8954 30.9554,31.548 30.9832,31.9855C 31.0109,32.423 31.1498,32.6454 31.6985,32.7287 Z "/>
		<path fill="none" stroke-linejoin="round" stroke="#000000" stroke-opacity="1" d="M 35.0388,63.3676C 36.8929,64.2841 39.0596,65.4509 41.4138,65.9926C 43.7679,66.5341 46.3096,66.4509 48.9554,66.3884C 51.6013,66.3259 54.3513,66.2841 56.6638,65.8466C 58.9763,65.4091 60.8513,64.5759 62.7888,62.6176C 64.7263,60.6591 66.7263,57.5758 67.6846,54.3051C 68.6429,51.0341 68.5596,47.5758 68.0388,44.9926C 67.5179,42.4091 66.5596,40.7008 63.8096,39.2008C 61.0596,37.7008 56.5179,36.4091 52.5388,36.4716C 48.5596,36.5341 45.1429,37.9508 42.4346,39.3466C 39.7263,40.7426 37.7263,42.1176 35.3929,42.8883C 33.0596,43.6591 30.3929,43.8258 28.7471,43.8258C 27.1013,43.8258 26.4763,43.6591 25.9971,45.2426C 25.5179,46.8258 25.1846,50.1591 25.8929,53.0966C 26.6013,56.0341 28.3513,58.5758 29.9971,60.1801C 31.6429,61.7841 33.1846,62.4508 35.0388,63.3676 Z "/>
		<path fill="#000000" fill-opacity="1" stroke-linejoin="round" stroke="#000000" stroke-opacity="1" d="M 35.86,34.7011C 35.6068,34.4738 35.3705,34.2133 35.1003,34.0195C 34.82,33.818 34.5279,33.6291 34.2168,33.5209C 33.883,33.4052 33.5306,33.4028 33.1865,33.3551C 33.0757,33.3398 32.9639,33.3395 32.8527,33.3317C 33.3887,33.1171 33.9666,33.0263 34.4606,32.6877C 34.9145,32.3764 35.3235,31.9345 35.6403,31.4198C 35.9431,30.9281 36.1541,30.3368 36.2789,29.7345C 36.3726,29.2826 36.3643,28.788 36.2801,28.3329C 36.2047,27.9262 36.0204,27.5531 35.8143,27.2265C 35.6677,26.9938 35.4374,26.8695 35.2469,26.6945C 35.0911,26.5517 34.9203,26.4328 34.7753,26.2729C 34.6415,26.1254 34.5383,25.9386 34.415,25.7773C 34.2429,25.5519 34.1056,25.266 33.8893,25.1127C 33.574,24.8886 33.2179,24.748 32.8607,24.6737C 32.4586,24.5905 32.0406,24.5641 31.6383,24.6462C 31.3226,24.7106 31.0032,24.8576 30.7505,25.1047C 30.4864,25.3627 30.2949,25.7343 30.1415,26.1086C 29.9814,26.4994 29.9036,26.9377 29.8237,27.3659C 29.6877,28.0944 29.6044,28.8371 29.4948,29.5727C 29.4384,29.1034 29.4142,28.6261 29.3254,28.165C 29.2298,27.6684 29.1183,27.1703 28.9435,26.7094C 28.7957,26.3195 28.6392,25.8984 28.3665,25.6366C 27.8909,25.1801 27.3565,24.7292 26.7651,24.6181C 26.1736,24.5068 25.5759,24.8127 24.9974,25.0033C 24.8397,25.0553 24.7227,25.2248 24.5858,25.3363C 24.4676,25.4325 24.3524,25.5351 24.2319,25.6266C 24.1423,25.6945 24.0468,25.7492 23.956,25.8144C 23.7908,25.9333 23.5963,26.0065 23.4641,26.1789C 23.2068,26.5141 22.9374,26.871 22.8093,27.3085C 22.6725,27.7756 22.6406,28.3027 22.6979,28.7951C 22.7576,29.3085 22.9437,29.7948 23.1511,30.2433C 23.3262,30.622 23.5909,30.9237 23.8299,31.2424C 23.9276,31.3727 24.0487,31.4716 24.1581,31.5863C 24.1105,31.5795 24.063,31.56 24.0154,31.5661C 23.5823,31.621 23.1301,31.5854 22.7198,31.7685C 22.3556,31.9306 21.967,32.1689 21.7534,32.5746C 21.4611,33.1296 21.3528,33.8241 21.2888,34.4858C 21.2575,34.8083 21.412,35.1169 21.4765,35.4316C 21.5316,35.7001 21.6008,35.9643 21.6474,36.2353C 21.669,36.361 21.6697,36.4909 21.6805,36.6188C 21.6903,36.7353 21.6805,36.8571 21.7092,36.9687C 21.8248,37.4167 21.9033,37.8964 22.1108,38.2885C 22.3182,38.6803 22.6107,39.0041 22.9232,39.2626C 23.1464,39.4469 23.426,39.4902 23.6816,39.5871C 23.7156,39.6 23.7537,39.6022 23.7881,39.591C 24.0866,39.4936 24.4,39.4369 24.6756,39.2629C 24.9685,39.078 25.2062,38.7785 25.4684,38.5312C 25.5147,38.4872 25.5566,38.4369 25.6007,38.3896C 25.451,38.8793 25.2167,39.3403 25.1517,39.8583C 25.0826,40.4089 25.0814,40.9945 25.207,41.5287C 25.3049,41.9457 25.5325,42.3212 25.7962,42.6015C 26.1005,42.9252 26.4947,43.0861 26.8597,43.2865C 26.9872,43.3566 27.1308,43.3656 27.2657,43.4089C 27.4625,43.4716 27.6601,43.5309 27.8547,43.6039C 27.929,43.6318 27.9988,43.6767 28.0714,43.7111C 28.1844,43.7651 28.2939,43.8344 28.4116,43.8691C 28.5652,43.9147 28.725,43.9833 28.8809,43.9508C 29.2562,43.873 29.6514,43.7956 29.9755,43.5444C 30.3231,43.2753 30.6231,42.8837 30.8306,42.4411C 31.0598,41.9521 31.2018,41.3866 31.2516,40.8222C 31.3066,40.2006 31.1764,39.5746 31.1387,38.9511C 31.2479,39.133 31.3458,39.3266 31.4662,39.497C 31.7549,39.9057 32.0117,40.3666 32.3645,40.6852C 32.7239,41.0097 33.1541,41.1908 33.566,41.3932C 33.657,41.4379 33.7606,41.4233 33.8582,41.4186C 34.0364,41.4103 34.2174,41.4076 34.3908,41.3549C 34.6754,41.2685 34.9686,41.1852 35.2236,41.0041C 35.4341,40.8544 35.6008,40.6171 35.7565,40.384C 35.8406,40.2582 35.8735,40.09 35.9322,39.943C 35.9871,39.8056 36.0302,39.6591 36.0975,39.5304C 36.1739,39.3844 36.2717,39.2582 36.3607,39.1239C 36.3817,39.0922 36.4135,39.0702 36.4274,39.0329C 36.668,38.3822 37.0645,37.7797 37.1221,37.0656C 37.1611,36.5824 36.9103,36.1142 36.6951,35.7113C 36.4798,35.3078 36.1384,35.0378 35.86,34.7011 Z M 31.8,35.1786C 31.6693,34.957 31.7877,36.3388 31.5255,36.0544C 31.6563,35.8735 31.8392,35.2895 31.8,35.1786 Z M 31.6291,35.2331C 31.6414,35.2548 31.6561,35.2743 31.666,35.2978C 31.6977,35.3725 31.7825,35.4501 31.7535,35.5265C 31.6951,35.6806 31.5809,35.8227 31.4501,35.8671C 30.9117,36.0502 30.3329,35.8849 29.7773,35.9633C 29.3579,36.2558 28.9377,36.5468 28.5192,36.8412C 28.4207,36.9106 28.3386,37.0671 28.2263,37.0546C 28.1553,37.0468 28.176,36.8864 28.1547,36.8007C 28.1328,36.7123 28.1279,36.6183 28.1067,36.5297C 28.0449,36.2709 27.9465,36.0214 27.8185,35.8046C 27.6439,35.5441 27.4385,35.3066 27.2048,35.1352C 27.0511,35.0221 26.8439,35.0248 26.7136,34.8722C 26.6688,34.8197 26.6547,34.7353 26.6391,34.6606C 26.6356,34.6445 26.6497,34.6281 26.66,34.6171C 26.7014,34.5737 26.7476,34.538 26.7923,34.4999C 26.8966,34.4108 27.0056,34.3266 27.0956,34.2157C 27.1312,34.1718 27.1662,34.1274 27.2144,34.0671C 27.3788,33.6383 27.5396,33.2074 27.7039,32.7687C 27.7094,32.592 27.7157,32.4154 27.7191,32.2387C 27.7237,32.0004 27.6546,31.7619 27.679,31.5258C 27.6851,31.467 27.7556,31.444 27.8025,31.4399C 27.8501,31.4399 27.8978,31.446 27.9446,31.457C 28.4197,31.6632 29.8099,31.8935 30.0258,31.7978C 30.1844,31.7275 30.3327,31.6181 30.4962,31.5683C 30.6214,31.5302 30.7532,31.5431 30.882,31.5368C 30.8915,31.5363 30.9028,31.539 30.9093,31.5478C 30.9464,31.5988 31.4151,34.7033 31.6291,35.2331 Z M 28.6434,36.9757C 28.6819,36.9247 28.7177,36.8698 28.7589,36.8222C 28.8179,36.7536 28.882,36.6925 28.9435,36.6278L 28.6434,36.9757 Z M 26.8221,34.2279C 26.7803,34.2619 26.7347,34.2895 26.6968,34.33C 26.6216,34.4106 26.4982,34.466 26.4842,34.589C 26.4661,34.7472 26.5361,34.9147 26.6158,35.039C 26.6729,35.1278 26.7805,35.1352 26.8638,35.1806C 26.8803,35.1896 26.898,35.1947 26.916,35.2028C 26.715,35.3315 26.6172,34.1703 26.8221,34.2279 Z M 29.9833,27.4125C 30.0837,27.0129 30.1333,26.5868 30.2844,26.2135C 30.4267,25.8617 30.6035,25.5107 30.8508,25.2685C 31.0859,25.0382 31.3849,24.9052 31.6791,24.8473C 32.0601,24.7724 32.4551,24.8 32.8358,24.8781C 33.1686,24.9465 33.5016,25.0732 33.7955,25.2817C 33.9988,25.4259 34.1266,25.6962 34.2881,25.9086C 34.4166,26.078 34.5253,26.2724 34.6652,26.4267C 34.8172,26.5942 34.9954,26.7196 35.1588,26.8693C 35.3397,27.0348 35.5629,27.1474 35.698,27.372C 35.8994,27.707 36.0665,28.0927 36.1408,28.5024C 36.2109,28.8886 36.2047,29.31 36.1185,29.6911C 35.9894,30.2614 35.7975,30.8278 35.5086,31.2958C 35.2056,31.787 34.8089,32.195 34.3813,32.5055C 33.9726,32.8027 33.508,32.9843 33.0433,33.0871C 32.4256,33.2233 31.7632,33.1286 31.1395,33.0478L 31.1514,33.4555L 31.8126,35.5751L 31.2236,36.0236L 30.1899,35.9692L 29.673,36.2411L 28.5914,36.8935L 28.1226,36.7438L 27.7019,35.7111L 26.7643,34.9775L 26.8726,34.5019L 27.3413,33.8088L 27.6418,32.7284L 27.8041,31.4853L 29.5534,31.8058C 29.5521,31.4628 29.516,31.1176 29.5493,30.7773C 29.6596,29.6493 29.8386,28.5341 29.9833,27.4125 Z M 23.94,31.0898C 23.7238,30.7724 23.4592,30.4985 23.2916,30.1374C 23.0942,29.7121 22.9179,29.2499 22.8599,28.7626C 22.8058,28.308 22.8394,27.8212 22.9649,27.3896C 23.0818,26.9867 23.3255,26.654 23.562,26.3456C 23.688,26.1811 23.8738,26.1117 24.0314,25.9985C 24.1247,25.9316 24.2227,25.8754 24.3146,25.8056C 24.4387,25.7113 24.5572,25.6061 24.6788,25.5072C 24.8118,25.3991 24.9256,25.2355 25.0786,25.1845C 25.6225,25.0038 26.185,24.7167 26.7415,24.8212C 27.2978,24.9259 27.8012,25.349 28.2478,25.7802C 28.5081,26.0312 28.658,26.4335 28.7988,26.8066C 28.9666,27.2511 29.0935,27.7255 29.165,28.2094C 29.2901,29.0568 29.3451,29.9198 29.3856,30.7802C 29.4025,31.1396 29.353,31.4989 29.3367,31.8583L 28.5151,31.5722C 28.1812,31.453 27.7068,31.2455 27.6358,31.412C 27.5772,31.5497 27.5862,31.6977 27.5817,31.9218C 27.5751,32.2475 27.5482,32.5693 27.5178,32.893C 26.5216,32.4526 25.517,32.0419 24.508,31.651L 23.94,31.0898 Z M 25.3624,38.3735C 25.0975,38.6164 24.863,38.924 24.5674,39.1025C 24.2964,39.266 23.994,39.3842 23.6935,39.3808C 23.4515,39.3778 23.2083,39.2531 23.0068,39.0844C 22.7161,38.8407 22.4439,38.5375 22.2501,38.1718C 22.0562,37.8056 21.9796,37.3588 21.8713,36.9403C 21.8434,36.8324 21.8535,36.7143 21.844,36.6015C 21.8328,36.4687 21.8318,36.3337 21.8095,36.203C 21.7613,35.9218 21.6903,35.6474 21.633,35.3688C 21.571,35.0673 21.4232,34.7721 21.4517,34.4628C 21.5075,33.8554 21.6192,33.2262 21.8777,32.7089C 22.0506,32.3627 22.3762,32.1611 22.6774,32.0087C 23.2306,31.7287 23.8707,31.7509 24.4614,31.8515C 25.4716,32.2426 26.4772,32.6532 27.4727,33.0993C 27.3264,33.4474 27.1912,33.8239 26.9601,34.0893C 26.7067,34.0087 26.8351,35.4548 27.0739,35.2878L 27.6517,35.8703C 26.8907,36.7077 26.1309,37.5468 25.3624,38.3735 Z M 30.8019,38.3481L 30.858,38.4501C 30.9398,39.153 31.1343,39.8495 31.1033,40.5585C 31.0762,41.1759 30.9352,41.8041 30.6879,42.3378C 30.4713,42.8053 30.1461,43.2304 29.7579,43.4621C 29.363,43.6977 28.8942,43.6545 28.4573,43.6698C 28.3422,43.6737 28.241,43.5702 28.1332,43.519C 28.0583,43.4836 27.986,43.4386 27.9093,43.4098C 27.7083,43.3344 27.5043,43.2719 27.3011,43.2065C 27.1689,43.1642 27.0283,43.1552 26.903,43.0873C 26.5622,42.9025 26.1951,42.7526 25.9103,42.4528C 25.6663,42.1962 25.4344,41.8588 25.3641,41.4682C 25.251,40.8403 25.2691,40.1642 25.3852,39.5375C 25.4922,38.9591 25.806,38.475 26.0164,37.9435L 27.6887,36.1059L 27.748,36.0402C 27.8399,36.2389 27.9231,36.4501 27.9637,36.6745C 27.861,36.9465 29.0991,36.9657 29.1031,36.4921L 29.8021,36.1679L 29.803,36.1679L 29.9562,36.1464L 29.9714,36.1454C 30.0347,36.4379 30.0795,36.7431 30.1904,37.0121C 30.3376,37.3695 30.4928,37.7221 30.6525,38.071C 30.6968,38.1676 30.7521,38.2558 30.8019,38.3481 Z M 36.3054,38.8954C 36.0955,39.1813 35.9212,39.5121 35.7822,39.86C 35.7272,39.9977 35.7169,40.1835 35.6177,40.2738C 35.2298,40.6266 34.8133,40.9487 34.3629,41.1518C 34.1196,41.2614 33.8381,41.2726 33.5884,41.1889C 33.1843,41.0534 32.7934,40.8207 32.4547,40.5116C 32.1173,40.204 31.8635,39.7704 31.5945,39.3695C 31.0986,38.631 30.6849,37.7992 30.3422,36.9335C 30.2433,36.6835 30.2023,36.4037 30.139,36.1362C 30.2709,36.1393 30.4028,36.1491 30.5346,36.1454C 30.8052,36.1383 31.0754,36.1176 31.3458,36.1039C 31.6467,36.4355 31.907,35.0253 31.6412,34.8954C 31.4772,34.4662 31.3036,34.0426 31.1492,33.6078C 31.1365,33.5722 31.1444,33.5297 31.1412,33.4755C 31.8198,33.5041 32.4993,33.5065 33.1768,33.5614C 33.5113,33.5885 33.8511,33.6091 34.1743,33.7211C 34.4728,33.8246 34.7528,34.0077 35.0217,34.2016C 35.2836,34.3905 35.5276,34.6195 35.759,34.8639C 36.0393,35.1601 36.3463,35.4382 36.5526,35.8188C 36.7547,36.1916 36.993,36.6247 36.957,37.0739C 36.9037,37.7365 36.5226,38.2882 36.3054,38.8954 Z "/>
	</g>
	<g>
		<radialGradient id="SVGID_Fill1_" cx="-15.7279" cy="9.5214" r="118.103" gradientUnits="userSpaceOnUse">
			<stop offset="0" stop-color="#FFFFFF" stop-opacity="0.843137"/>
			<stop offset="0.77027" stop-color="#FFFFFF" stop-opacity="0.32549"/>
			<stop offset="1" stop-color="#FFFFFF" stop-opacity="0"/>
		</radialGradient>
		<path fill="url(#SVGID_Fill1_)" stroke-width="0.2" stroke-linejoin="round" d="M 16.6492,3.08244L 80.6492,3.08244C 86.7244,3.08244 91.6492,8.00749 91.6492,14.0824L 91.6492,77.0822C 91.6492,83.1574 86.7244,88.0822 80.6492,88.0822L 16.6492,88.0822C 10.5742,88.0822 5.64923,83.1574 5.64923,77.0822L 5.64923,14.0824C 5.64923,8.00749 10.5742,3.08244 16.6492,3.08244 Z "/>
		<radialGradient id="SVGID_Stroke1_" cx="73.6689" cy="47.0829" r="669.951" gradientUnits="userSpaceOnUse">
			<stop offset="0.869369" stop-color="#F1F1F1" stop-opacity="0"/>
			<stop offset="1" stop-color="#EEEEEE" stop-opacity="0.898039"/>
		</radialGradient>
		<path fill="none" stroke-width="4" stroke-linejoin="round" stroke="url(#SVGID_Stroke1_)" d="M 82.8992,7.08195L 82.8992,7.08195C 86.9033,7.08195 90.1492,10.328 90.1492,14.332L 90.1492,79.8324C 90.1492,83.8363 86.9033,87.0824 82.8992,87.0824L 82.8992,87.0824C 78.8952,87.0824 75.6492,83.8363 75.6492,79.8324L 75.6492,14.332C 75.6492,10.328 78.8952,7.08195 82.8992,7.08195 Z "/>
		<radialGradient id="SVGID_Stroke2_" cx="21.6296" cy="47.0815" r="669.951" gradientUnits="userSpaceOnUse" gradientTransform="rotate(180.000000 21.629578 47.081463)">
			<stop offset="0.869369" stop-color="#F1F1F1" stop-opacity="0"/>
			<stop offset="1" stop-color="#EEEEEE" stop-opacity="0.898039"/>
		</radialGradient>
		<path fill="none" stroke-width="4" stroke-linejoin="round" stroke="url(#SVGID_Stroke2_)" d="M 12.3992,87.0824L 12.3992,87.0824C 8.3952,87.0824 5.14929,83.8363 5.14929,79.8324L 5.14929,14.332C 5.14929,10.328 8.3952,7.08195 12.3992,7.08195L 12.3992,7.08195C 16.4033,7.08195 19.6492,10.328 19.6492,14.332L 19.6492,79.8324C 19.6492,83.8363 16.4033,87.0824 12.3992,87.0824 Z "/>
		<radialGradient id="SVGID_Stroke3_" cx="47.6507" cy="21.0629" r="79.1194" gradientUnits="userSpaceOnUse" gradientTransform="rotate(-90.000000 47.650696 21.062908)">
			<stop offset="0.869369" stop-color="#F1F1F1" stop-opacity="0"/>
			<stop offset="1" stop-color="#EEEEEE" stop-opacity="0.898039"/>
		</radialGradient>
		<path fill="none" stroke-width="4" stroke-linejoin="round" stroke="url(#SVGID_Stroke3_)" d="M 7.64935,11.8324L 7.64935,11.8324C 7.64935,7.82829 10.8953,4.58244 14.8994,4.58244L 80.3997,4.58244C 84.4039,4.58244 87.6497,7.82829 87.6497,11.8324L 87.6497,11.8324C 87.6497,15.8363 84.4039,19.0824 80.3997,19.0824L 14.8994,19.0824C 10.8953,19.0824 7.64935,15.8363 7.64935,11.8324 Z "/>
		<radialGradient id="SVGID_Stroke4_" cx="47.6483" cy="73.102" r="79.1183" gradientUnits="userSpaceOnUse" gradientTransform="rotate(90.000000 47.648315 73.101974)">
			<stop offset="0.869369" stop-color="#F1F1F1" stop-opacity="0"/>
			<stop offset="1" stop-color="#EEEEEE" stop-opacity="0.898039"/>
		</radialGradient>
		<path fill="none" stroke-width="4" stroke-linejoin="round" stroke="url(#SVGID_Stroke4_)" d="M 87.6497,82.3324L 87.6497,82.3324C 87.6497,86.3363 84.4037,89.5824 80.3997,89.5824L 14.8993,89.5824C 10.8951,89.5824 7.64935,86.3363 7.64935,82.3324L 7.64935,82.3324C 7.64935,78.3283 10.8951,75.0824 14.8993,75.0824L 80.3997,75.0824C 84.4037,75.0824 87.6497,78.3283 87.6497,82.3324 Z "/>
	</g>
</svg>
