<?xml version="1.0" encoding="utf-8"?>
<!DOCTYPE svg PUBLIC "-//W3C//DTD SVG 1.1//EN" "http://www.w3.org/Graphics/SVG/1.1/DTD/svg11.dtd">
<svg xmlns="http://www.w3.org/2000/svg" xmlns:xlink="http://www.w3.org/1999/xlink" version="1.1" baseProfile="full" width="95" height="95" viewBox="0 0 95.00 95.00" enable-background="new 0 0 95.00 95.00" xml:space="preserve">
	<path fill="#000000" fill-opacity="1" stroke-linejoin="round" stroke="#C0C0CC" stroke-opacity="1" d="M 15.5,2.49983L 79.5,2.49983C 86.6797,2.49983 92.5,8.32014 92.5,15.4998L 92.5,79.4996C 92.5,86.6793 86.6797,92.4998 79.5,92.4998L 15.5,92.4998C 8.32031,92.4998 2.5,86.6793 2.5,79.4996L 2.5,15.4998C 2.5,8.32014 8.32031,2.49983 15.5,2.49983 Z "/>
	<g>
		<path fill="#FFFFFF" fill-opacity="1" fill-rule="evenodd" stroke-linejoin="round" d="M 69.1362,24.6449C 68.8171,24.6449 67.8737,24.7974 67.6013,24.8145C 66.528,24.8868 65.1602,25.8197 65.2409,26.8243C 65.2409,26.8243 62.5242,28.5894 60.4791,31.8109C 58.8332,34.4014 57.8027,39.7823 57.8027,39.7823C 57.8027,39.7823 51.2343,40.2974 48.2021,40.8966C 44.2047,41.6881 39.2575,42.9837 37.0825,44.8057C 34.1677,47.2503 32.0641,52.1588 33.6791,55.4869C 35.4794,59.2008 40.2998,59.5516 44.6752,59.733C 47.6794,59.8568 52.3637,59.5775 55.4416,57.8704C 57.7314,56.6007 59.9033,54.6314 61.2831,52.5103C 61.8588,51.6229 62.5614,49.4613 62.5614,49.4613C 63.4335,49.6832 66.2278,50.3856 67.1221,52.2855C 67.7748,53.6705 67.7003,56.8424 66.5676,57.931C 64.7333,59.6961 61.1816,60.565 57.8803,61.2098C 52.385,62.2808 46.4382,63.1275 40.8385,62.7701C 36.0861,62.4678 30.7556,61.6041 26.5197,59.5723C 24.187,58.452 21.4672,55.8209 21.1178,53.4019C 20.7986,51.2027 22.6425,48.5054 24.7557,47.4832C 27.4938,46.1588 31.3337,45.1485 34.3198,44.0953C 36.4695,43.3345 38.5953,42.3905 40.1581,40.8184C 41.853,39.1204 43.0349,35.9705 41.6796,33.9725C 40.1858,31.7733 36.8037,30.3477 33.9974,30.2904C 31.1975,30.233 28.2954,30.5579 25.5168,30.2159C 23.7751,30.0001 20.9507,29.3573 20.9507,29.3573C 20.4952,29.2135 19.5178,29.3839 19.9971,30.3973C 20.4089,31.088 20.9966,31.5057 22.0453,32.0238C 23.0639,32.5272 25.52,33.0225 26.2662,33.1116C 29.4186,33.4979 31.4391,33.702 34.1187,34.1568C 35.6038,34.4073 37.0453,35.504 37.0453,36.9093C 37.0453,38.5242 35.5198,38.5618 33.9974,39.3333C 32.9147,39.8831 29.5548,40.3814 27.3425,40.8848C 24.8824,41.4434 21.5907,42.2181 19.5583,43.4298C 16.1484,45.4593 12.6618,48.2091 12.238,51.9547C 11.9442,54.5482 12.0859,58.0982 13.6487,60.4698C 15.152,62.753 17.7571,65.4793 19.9265,66.9762C 23.1161,69.182 32.7262,71.7667 38.9977,72.2589C 48.4462,73.002 59.3124,72.2044 68.1581,69.0235C 72.5453,67.4456 76.4968,63.7835 79.0393,60.0985C 80.2496,58.3482 80.2742,56.1114 80.2433,53.4771C 80.2124,51.1226 79.0425,48.6895 77.3935,46.7926C 75.8743,45.0482 73.35,43.3663 71.3635,42.5343C 69.1545,41.6099 64.597,40.5626 64.597,40.5626C 64.597,40.5626 64.4853,38.8897 64.7238,37.8792C 64.9463,36.9176 65.4263,36.2645 65.7233,35.6832C 66.014,35.1068 66.692,34.2459 67.9197,34.1251C 69.6218,33.9556 70.2839,34.3321 71.9734,34.0821C 73.1425,33.9119 75.2589,33.6217 76.3638,33.2296C 77.0656,32.9796 78.3312,32.8441 78.8849,32.3687C 79.4386,31.8941 79.8314,31.1629 79.9645,30.4718C 80.0635,29.9447 80.027,28.8946 79.037,28.5372C 78.7455,28.431 78.0065,28.3153 77.5883,27.9469C 77.1923,27.5928 76.5705,27.1671 76.1626,26.8966C 74.603,25.8624 73.8046,25.2323 71.914,24.9273C 71.2059,24.8145 70.0923,24.6539 69.1362,24.6449 Z M 53.3229,49.5306C 53.3229,49.5306 52.1902,51.2117 48.6782,51.9112C 47.1654,52.2132 44.3195,52.1358 44.3195,52.1358C 43.8522,52.0665 43.3137,51.701 44.1984,51.2462C 44.1984,51.2462 45.9432,50.3736 47.1227,49.942C 50.275,48.7877 53.3197,48.7935 53.3197,48.7935"/>
		<path fill="#000000" fill-opacity="1" fill-rule="evenodd" stroke-width="0.377953" stroke-linejoin="round" d="M 68.8757,24.0001C 66.3237,24.0177 64.829,25.9722 64.6928,26.8529C 60.0641,29.0845 57.8677,35.5355 57.4748,39.4918C 50.854,39.9605 43.6075,40.2081 37.949,43.6632C 34.2826,45.9 31.6584,50.4945 32.8561,54.6637C 34.0133,58.6856 38.9573,60.0123 42.9794,60.22C 46.3552,60.3953 49.8759,60.3519 53.1027,59.3275C 55.4852,58.5699 57.7133,57.1827 59.5999,55.4493C 60.6185,54.5113 61.4478,52.9303 62.0323,51.6287C 62.3721,50.8687 62.4062,50.3595 62.9352,50.1407C 63.4462,50.1925 63.938,50.3419 64.3839,50.5408L 64.3959,50.5321C 64.4545,50.5579 64.517,50.5836 64.5756,50.6102C 65.8223,51.1917 66.6761,52.1041 67.103,53.2523C 67.5917,54.5628 67.1157,57.1593 65.6924,57.9249C 59.2102,61.1729 51.5099,62.232 44.2665,62.3043C 37.0049,62.3787 29.3695,61.2305 23.376,56.9837C 20.8976,55.2247 21.1852,51.0125 23.2397,49.1185C 25.9066,46.651 30.9472,45.7159 33.3107,44.7657C 36.8876,43.3292 40.962,41.7286 42.3917,37.9198C 43.6787,34.4854 40.7212,31.3958 37.4104,30.4576C 32.8188,29.159 27.8867,30.8084 23.3173,29.4234C 21.5756,28.8973 17.8134,28.2606 19.8363,30.8431C 22.0707,33.3392 25.9692,33.3304 29.1461,33.814C 30.3904,34.0186 32.853,33.9901 34.6074,34.6002L 34.7309,34.6031C 36.3182,35.1619 37.0793,36.6934 36.6429,37.4017C 35.9094,38.5933 33.858,39.1749 31.5935,39.7076C 28.8032,40.3665 25.7394,40.5509 23.5954,41.2471C 18.8747,42.7794 13.9211,45.8138 12.2745,50.3565C 10.5051,55.2305 12.7418,62.0133 16.9469,65.4852C 20.1491,68.128 24.088,69.9647 28.1964,70.9781C 37.9767,73.3939 48.6078,73.5811 58.5671,72.0953C 66.0979,70.9722 74.0613,67.6239 78.6465,61.599C 81.8147,57.4298 81.1501,50.244 77.6445,46.4239C 74.5254,42.7191 69.5909,41.1036 64.8077,40.2022C 64.9463,37.5682 65.5071,34.295 69.3058,34.6143C 70.9644,34.7559 72.7592,34.442 74.5627,34.1595C 76.4779,33.8575 78.6687,33.3333 79.9708,32.0523C 81.886,29.8067 79.4758,27.5987 77.5796,27.5235C 77.2422,26.522 76.5927,26.1851 75.9614,25.8336C 73.8886,24.6766 71.2582,23.983 68.8757,24.0001 Z M 68.4305,25.0162C 71.8,25.0826 75.0641,26.2139 77.2358,28.1514C 78.6037,28.6209 79.2287,29.2105 79.3768,29.8126C 79.2714,30.1783 78.7368,30.5062 78.2726,30.8895C 77.7095,31.3531 76.7099,31.7186 75.6549,31.9891C 74.6926,32.2366 72.7219,32.651 70.9612,32.6744C 69.198,32.6973 67.6259,32.5706 66.8615,32.3487C 66.6389,32.2852 66.0884,31.8248 65.5435,31.5426C 65.7202,32.0406 66.4409,32.5159 67.4342,32.8094C 68.5295,33.1351 70.1937,33.0767 71.6201,33.0025C 73.4055,32.9073 75.2407,32.5933 75.822,32.4786C 76.9855,32.2506 77.9416,31.796 78.6069,31.252C 79.0244,30.9093 79.1978,30.7081 79.3586,30.4952C 79.1819,31.1026 78.6497,31.8136 77.9416,32.2655C 76.843,32.9649 74.2253,33.253 73.3373,33.4056C 71.6392,33.6929 69.8848,33.679 68.5137,33.6356C 67.6599,33.6068 67.1276,33.4373 66.3268,33.0628C 65.5071,32.6798 64.6556,32.2596 64.0806,31.5719C 63.8264,31.2662 63.5546,30.837 63.7582,30.4635C 64.0893,29.8673 65.1198,28.9141 65.6735,28.4971C 65.3486,28.3179 65.0176,28.5518 64.6992,28.7877C 64.0837,29.2452 63.6719,29.4552 63.2853,30.1002C 62.9329,30.6876 63.0778,31.4451 63.5325,31.9346C 64.121,32.5675 64.9526,33.1837 65.6956,33.5899C 64.2873,34.8272 63.6505,36.3013 63.2355,38.0435C 62.7657,40.0128 62.5178,41.8148 62.2485,43.712C 61.9611,45.7564 61.6394,47.8892 60.8007,49.9359C 59.9223,52.0723 58.7865,54.0069 57.2609,55.7662C 57.0661,55.9903 56.225,56.7074 56.0452,56.8311C 54.2631,58.0548 52.0508,58.6856 49.8386,58.9185C 45.5409,59.3673 40.8852,59.5831 36.9218,57.7437C 33.6973,56.2496 32.9243,52.4005 34.3935,49.5274C 35.0992,48.1544 35.7146,46.8353 36.7974,45.7503C 38.1558,44.3914 40.2571,43.3751 42.1968,42.7449C 47.1227,41.147 52.2456,40.649 57.4344,40.3062C 57.0724,43.3721 56.655,44.858 55.0488,46.7667C 53.8456,46.5855 52.02,46.8123 50.8041,46.9937C 49.0869,47.2501 47.1844,47.6217 45.575,48.2408C 44.7551,48.554 43.9513,49.0206 43.3723,49.6832C 43.0507,50.0487 42.7845,50.4342 42.6143,50.9351C 42.528,51.1888 42.4503,51.5225 42.6205,51.7357C 42.8931,52.0782 43.1987,52.0894 43.5948,52.1646C 45.2661,52.4896 47.9084,52.536 49.5075,52.234C 50.6869,52.0089 52.8429,50.2735 53.9138,49.4642C 55.0305,48.6173 55.7331,47.6275 56.3762,46.5538C 57.7101,44.325 58.2946,41.8089 58.4554,40.0814C 58.7524,36.9351 59.9809,33.0054 62.2485,30.0484C 63.0746,28.9688 64.2477,28.0682 65.2719,27.3136C 65.2964,27.2818 65.7756,27.2044 66.0045,27.0548C 66.2865,26.8678 67.0286,26.9044 67.0935,26.8934C 67.1221,26.6944 66.6761,26.6973 66.4813,26.6915C 66.2675,26.6834 65.5657,26.8211 65.5903,26.7838C 65.77,26.4071 65.9704,26.0614 66.2524,25.8106C 66.9296,25.3414 67.7129,25.0015 68.4305,25.0162 Z M 20.9253,29.692C 21.5321,29.6573 22.7479,30.1637 23.4623,30.2872C 25.5637,30.6478 27.2341,30.6588 28.8372,30.711C 30.2756,30.7569 31.683,30.7281 33.2704,30.6588C 36.5907,30.5152 41.1141,32.0723 41.7604,35.3858C 41.9211,36.212 41.3121,37.2572 40.863,37.8792C 39.9038,39.2095 38.6698,40.1851 37.1625,40.9708C 34.5637,42.327 31.8129,43.3868 29.0043,44.2933C 26.937,44.9588 24.7866,45.575 22.9863,46.752C 21.9035,47.4574 21.037,48.5113 20.6069,49.6712C 20.2014,50.7679 20.1618,52.3082 20.4557,53.3968C 20.7646,54.5252 21.3745,56.4222 22.1047,57.0819C 27.4851,61.9415 35.1174,63.2425 42.2927,63.4386C 49.7309,63.6456 57.2673,62.6727 64.2287,60.0843C 65.1356,59.7476 65.9767,59.3673 66.7134,58.8433C 67.7407,58.1121 68.7339,57.3206 69.2472,56.2032C 69.7177,55.1788 69.6155,52.4608 68.9747,51.5655C 68.2111,50.4886 67.168,49.588 65.9427,48.9805C 65.1229,48.5745 64.2849,48.1773 63.3938,47.921C 63.576,47.2015 63.8081,46.3516 64.022,45.4276C 64.2509,44.4229 64.3745,43.398 64.5447,42.5084C 64.6652,41.8812 64.6588,41.3682 64.7301,40.9688C 68.9161,41.887 73.2629,43.3609 76.1904,46.4615C 78.1768,48.3438 79.4853,50.9786 79.071,53.595C 78.3899,57.8883 75.2153,62.5975 71.2804,64.9412C 66.1344,68.0042 59.9001,69.2481 53.9628,69.922C 42.2182,71.2515 29.7869,69.8092 19.1718,64.5838C 18.2957,64.1527 16.7861,63.0035 16.0399,62.2835C 14.0289,60.3409 12.8939,56.8341 12.6991,54.0875C 12.3925,49.7376 15.9473,46.0902 19.5986,43.9425C 23.7783,41.484 28.8649,41.3858 33.4874,40.0675C 34.5978,39.7506 36.0117,39.1461 37.0889,38.4093C 37.6235,38.0406 38.029,37.586 38.3633,37.0242C 38.8766,36.1575 38.8425,35.1243 38.1217,34.3438C 37.0081,33.138 35.5388,32.6973 33.9143,32.4298C 32.5804,32.2081 31.2751,32.2366 29.9263,32.2882C 28.6914,32.3377 27.4321,32.8241 26.2036,32.6973C 23.475,32.418 20.4589,31.1915 20.5602,29.9425C 20.5856,29.775 20.7218,29.703 20.9253,29.692 Z M 31.5873,32.6141C 31.5104,32.838 31.4946,33.0689 31.516,33.2928C 30.3127,33.1837 28.7659,33.0719 28.1497,32.9737C 28.5117,32.9449 29.3845,32.6715 29.7496,32.6568C 30.2724,32.6339 31.0431,32.6051 31.5873,32.6141 Z M 32.0641,32.6397C 33.0105,32.6856 33.9452,32.8065 34.8481,33.046C 34.7341,33.2501 34.6445,33.4749 34.5947,33.7166C 33.8461,33.5323 33.0478,33.4432 32.2557,33.3563C 32.1813,33.3482 32.0546,33.3392 31.9714,33.3304C 31.9373,33.1033 31.965,32.8638 32.0641,32.6397 Z M 35.2877,33.169C 35.6592,33.2847 36.0244,33.4166 36.3832,33.5721C 36.875,33.7882 37.3391,34.085 37.6733,34.4793C 37.4223,34.6002 37.2275,34.825 37.0667,35.1383C 36.5226,34.4825 35.8232,34.0904 35.0461,33.8433C 35.0961,33.5958 35.1792,33.3563 35.2877,33.169 Z M 66.1534,33.8199C 66.3237,33.797 66.6484,33.9178 66.9019,34.0733C 66.3483,34.1654 65.9863,34.5714 65.8286,34.6837C 65.5903,34.9024 65.4294,35.1383 65.29,35.4036C 65.1538,35.3829 65.0144,35.3402 64.8632,35.2481C 65.2188,34.7213 65.652,34.2376 66.1534,33.8199 Z M 37.9237,34.8331C 38.0258,35.0145 38.1035,35.2135 38.1439,35.4322C 38.2207,35.8326 38.1526,37.0816 37.4167,37.3492C 37.5466,36.7362 37.6147,35.9881 37.3827,35.5731C 37.4104,35.4669 37.4445,35.3602 37.4968,35.265C 37.6116,35.0433 37.7724,34.8936 37.9237,34.8331 Z M 64.6342,35.6019C 64.7982,35.6939 64.959,35.7515 65.111,35.7862C 64.9962,36.0655 64.8877,36.3736 64.7546,36.7508C 64.6809,36.9639 64.6183,37.2174 64.5629,37.4849C 64.319,37.5711 64.1884,37.5682 64.0869,37.5455C 64.0307,37.5306 63.9658,37.4989 63.8945,37.4649C 64.0029,37.1163 64.1083,36.7677 64.2382,36.4229C 64.3435,36.1378 64.4829,35.8673 64.6342,35.6019 Z M 41.8348,36.9925C 42.0756,37.6632 41.3953,38.973 40.5905,39.8773C 40.5937,39.7506 40.585,39.6236 40.5446,39.5028C 40.5105,39.4107 40.4606,39.3245 40.3901,39.2493C 40.4266,39.2008 40.4702,39.1573 40.5073,39.1085C 41.0056,38.432 41.4634,37.7325 41.8348,36.9925 Z M 63.7677,37.8734C 63.8295,37.899 63.8889,37.9256 63.9689,37.9483C 64.1115,37.983 64.2817,37.9801 64.4853,37.9366C 64.3839,38.544 64.3095,39.1632 64.235,39.6871C 63.9166,39.7882 63.6132,39.8316 63.3131,39.805C 63.4398,39.1549 63.5856,38.5101 63.7677,37.8734 Z M 40.1177,39.6353C 40.1517,39.7276 40.1581,39.8602 40.1328,40.0069C 40.1113,40.1536 40.0559,40.315 39.9846,40.4705C 39.3596,41.0174 38.6294,41.5128 37.8809,41.9473C 37.8959,41.7486 37.8556,41.5443 37.7565,41.3682C 38.623,40.8765 39.4397,40.3179 40.0986,39.5977 Z M 64.1606,40.1475C 64.1574,40.1734 64.1519,40.211 64.1487,40.234C 64.1052,40.4527 63.9539,41.3106 63.8207,42.0426C 63.6473,42.1109 63.4865,42.1951 63.3439,42.2437C 63.1705,42.3013 63.0438,42.3241 62.8925,42.2554C 62.9915,41.5731 63.1024,40.8907 63.2299,40.2139C 63.5451,40.2486 63.8572,40.2227 64.1606,40.1475 Z M 37.3795,41.5731C 37.435,41.6763 37.454,41.8031 37.435,41.9503C 37.4199,42.0565 37.3795,42.1634 37.3232,42.2608C 36.7665,42.5636 36.2192,42.8341 35.7241,43.064C 35.2441,43.2887 34.7681,43.4871 34.2944,43.6744C 34.3103,43.5968 34.3198,43.5216 34.3198,43.4473C 34.3167,43.3145 34.2794,43.1937 34.2295,43.0816C 34.7776,42.8541 35.3218,42.6153 35.854,42.3507C 36.3586,42.097 36.875,41.8436 37.3795,41.5731 Z M 63.7305,42.5401C 63.6964,42.7301 63.6687,42.8887 63.641,43.044C 63.5388,43.565 63.4184,44.0516 63.2917,44.5758C 63.0746,44.7054 62.8457,44.7745 62.5337,44.7428C 62.6359,44.0487 62.7317,43.3551 62.8339,42.6607C 63.0683,42.7213 63.3036,42.7012 63.4984,42.6351C 63.5824,42.6063 63.6537,42.5719 63.7305,42.5401 Z M 33.8248,43.2511C 33.8493,43.3175 33.8676,43.3868 33.8707,43.4583C 33.8739,43.5821 33.8303,43.7266 33.7281,43.8851C 32.6921,44.2677 31.6616,44.5985 30.6376,44.9212C 30.6621,44.7598 30.6376,44.5904 30.5544,44.4259C 31.6554,44.0574 32.7507,43.6803 33.8248,43.2511 Z M 30.1393,44.5638C 30.2011,44.6678 30.2138,44.7657 30.1948,44.8668C 30.1829,44.9351 30.1425,45.0133 30.099,45.088C 29.0661,45.4137 28.0388,45.7474 27.0178,46.1475C 27.021,46.0694 27.0146,45.9952 27.002,45.9229C 26.9838,45.8277 26.9497,45.7503 26.9157,45.6722C 27.0764,45.6148 27.2404,45.5572 27.4012,45.4998C 28.3081,45.1749 29.2238,44.869 30.1393,44.5638 Z M 63.1769,45.0797C 63.1245,45.3067 63.0746,45.4969 63.0224,45.7642C 62.8988,46.3834 62.8521,46.7808 62.7808,47.1671C 62.5337,47.2413 62.3262,47.2154 62.1068,47.1522C 62.2454,46.4874 62.3634,45.8197 62.4688,45.1483C 62.7317,45.1749 62.9694,45.1453 63.1769,45.0797 Z M 26.4982,45.8197C 26.5228,45.877 26.5505,45.9317 26.56,45.9923C 26.5782,46.0872 26.5688,46.2081 26.5378,46.3516C 25.7831,46.6627 25.0345,47.0084 24.2916,47.4285C 24.1617,47.5037 24.0286,47.5928 23.8955,47.6851C 23.8805,47.5406 23.8528,47.4088 23.8092,47.2989C 23.7688,47.2095 23.7229,47.1353 23.6761,47.0689C 24.5363,46.533 25.52,46.1646 26.4982,45.8197 Z M 23.3079,47.3194C 23.3356,47.3592 23.3665,47.3939 23.3886,47.4483C 23.4441,47.5811 23.4781,47.7652 23.4441,48.0308C 22.3922,48.8936 21.3554,50.2152 21.1052,51.4473C 21.0244,50.42 21.7823,48.7965 22.4667,48.0506C 22.7202,47.7742 23.0077,47.5384 23.3079,47.3194 Z M 62.026,47.5611C 62.2208,47.6099 62.4434,47.6304 62.6818,47.6041C 62.6541,47.7108 62.6295,47.8148 62.5891,47.9327C 62.4062,48.4884 62.2272,49.1126 62.0474,49.608C 62.0078,49.6285 61.9611,49.6595 61.9238,49.6712C 61.7567,49.7318 61.6268,49.7376 61.4193,49.585C 61.6577,48.9491 61.8588,48.3072 62.0046,47.6702C 62.0101,47.6326 62.0165,47.5987 62.026,47.5611 Z M 53.5732,47.5723C 53.8638,47.5782 54.1332,47.5958 54.3652,47.6304C 54.2289,47.8692 53.6381,48.5084 53.4187,48.5745C 53.1154,48.5369 52.7748,48.5369 52.4223,48.5489C 52.5181,48.3526 52.5681,48.1485 52.5736,47.9527C 52.5768,47.8287 52.5617,47.7078 52.5371,47.5928C 52.8959,47.5753 53.2484,47.564 53.5732,47.5723 Z M 52.0786,47.6158C 52.1071,47.7169 52.1284,47.8258 52.1252,47.9408C 52.1157,48.1544 52.0476,48.3756 51.89,48.5775C 50.8445,48.6607 49.8046,48.8648 49.1083,49.0206C 49.22,48.7442 49.2635,48.4935 49.2477,48.2725C 49.2414,48.1627 49.22,48.0645 49.1923,47.9725C 49.7245,47.8751 50.2568,47.7911 50.7795,47.7337C 51.1724,47.6881 51.6239,47.6475 52.0786,47.6158 Z M 48.7463,48.0594C 48.7717,48.1309 48.7931,48.2091 48.7994,48.3011C 48.8145,48.5172 48.7559,48.7965 48.5547,49.1444L 48.5087,49.1561C 47.4846,49.4007 46.6364,49.6712 45.9464,49.9534C 45.9623,49.8438 45.9655,49.7347 45.9623,49.6307C 45.9464,49.3602 45.872,49.1156 45.7706,48.9053C 45.826,48.8826 45.8815,48.8509 45.937,48.8304C 46.828,48.4993 47.7848,48.2518 48.7463,48.0594 Z M 63.2632,48.5399C 63.7336,48.6837 64.1914,48.8599 64.6406,49.0582C 64.5352,49.2225 64.4362,49.3978 64.3522,49.5968C 63.9198,49.4324 63.4833,49.2911 63.0746,49.17C 63.1119,48.952 63.2014,48.733 63.2632,48.5399 Z M 45.3713,49.1016C 45.4419,49.2598 45.5013,49.4522 45.5132,49.6544C 45.5226,49.8385 45.4918,50.0199 45.4142,50.1893C 44.5231,50.6102 43.9513,51.0472 43.6693,51.4591C 43.4934,51.4393 43.5331,51.5137 43.3168,51.4334C 43.5893,50.5203 44.4336,49.6256 45.3713,49.1016 Z M 52.8365,49.1678C 51.5067,50.0279 50.1174,51.0333 48.7931,51.3524C 46.9642,51.7762 44.7307,51.8306 44.3964,51.5831C 45.5568,50.857 47.026,50.2874 48.2458,49.991C 49.9004,49.599 51.757,49.2393 52.8365,49.1678 Z M 65.0485,49.2423C 65.5348,49.4752 66.0045,49.7318 66.4567,50.0169C 66.9518,50.3309 67.3937,50.7164 67.7842,51.1451C 67.6354,51.2027 67.4872,51.2838 67.3415,51.39C 67.267,51.4444 67.1989,51.5108 67.134,51.5831C 66.8124,51.2144 66.4259,50.8946 65.9521,50.4886C 65.6029,50.1893 65.191,49.9654 64.78,49.7286C 64.8449,49.5704 64.944,49.4068 65.0485,49.2423 Z M 61.2648,49.9881C 61.4565,50.0892 61.6545,50.129 61.8344,50.1148C 61.5745,50.6529 61.3393,51.1541 61.1104,51.6317C 60.9805,51.6949 60.8537,51.7584 60.7389,51.7989C 60.6217,51.8394 60.525,51.8565 60.426,51.8419C 60.7325,51.2345 61.0145,50.6124 61.2648,49.9881 Z M 68.0836,51.502C 68.2911,51.7642 68.4828,52.0347 68.6467,52.3199C 68.8638,52.6973 68.8884,53.4661 68.8392,54.2113C 68.802,54.2032 68.7648,54.1854 68.7275,54.1824C 68.5478,54.1597 68.3593,54.1854 68.189,54.2489C 68.1398,54.2686 68.0931,54.2952 68.0472,54.3179C 68.0717,53.7535 68.0409,53.2471 67.9292,52.9473C 67.778,52.5389 67.6044,52.2191 67.4096,51.9368C 67.465,51.8565 67.5331,51.7843 67.6227,51.7178C 67.7684,51.609 67.9387,51.5455 68.0836,51.502 Z M 60.8197,52.2081C 60.4174,52.9967 59.996,53.7078 59.4581,54.3668C 59.405,54.3726 59.3496,54.3844 59.3092,54.3814C 59.1888,54.3726 59.1144,54.3321 59.0463,54.2576C 59.4518,53.6009 59.851,52.9273 60.2256,52.2161C 60.4355,52.2735 60.6399,52.2596 60.8197,52.2081 Z M 79.9154,54.1251C 80.1506,54.629 79.9708,55.5584 79.73,56.4657C 79.7111,56.5291 79.6738,56.6324 79.6556,56.7044C 79.5661,56.6124 79.4726,56.5321 79.3705,56.4686C 79.3,56.4251 79.2192,56.3995 79.1415,56.3707C 79.4418,55.5357 79.7142,54.7352 79.9154,54.1251 Z M 68.6594,54.5885C 68.7086,54.5914 68.7553,54.6085 68.7988,54.6319C 68.749,55.0611 68.684,55.4635 68.6096,55.7198C 68.4773,56.1637 67.6448,57.1046 67.465,57.1217C 67.7185,56.647 67.9165,55.7315 68.0068,54.8502C 68.1208,54.753 68.2421,54.6807 68.3561,54.6373C 68.4709,54.5943 68.5699,54.5767 68.6594,54.5885 Z M 58.811,54.6231C 58.8981,54.6895 58.9972,54.7381 59.1049,54.7669C 58.8173,55.075 58.5053,55.377 58.1401,55.6712C 58.3596,55.3424 58.5853,54.9769 58.811,54.6231 Z M 78.9998,56.765C 79.0393,56.7767 79.0766,56.7877 79.1201,56.8165C 79.2438,56.8946 79.3768,57.0245 79.4948,57.2086C 79.1725,58.1815 78.6869,59.4107 78.325,60.1566C 78.2449,59.9119 78.0961,59.6671 77.83,59.4969C 78.2631,58.659 78.6528,57.7061 78.9998,56.765 Z M 77.6287,59.8714C 77.8173,60.0011 77.8917,60.1763 77.9352,60.3953C 77.9598,60.525 77.9598,60.6629 77.963,60.8013C 77.502,61.4693 77.0006,62.0992 76.4597,62.6956C 76.4438,62.6036 76.4311,62.5142 76.4034,62.4361C 76.3353,62.2408 76.2244,62.0736 76.085,61.9498C 76.4438,61.5523 76.7907,61.1383 77.1123,60.6976C 77.2889,60.4559 77.4584,60.1705 77.6287,59.8714 Z M 75.7848,62.2667C 75.8593,62.3331 75.9274,62.431 75.9765,62.5631C 76.0327,62.7242 76.0446,62.9315 76.0018,63.168C 75.2343,63.9508 74.4019,64.6707 73.5077,65.3267C 73.4982,65.2691 73.495,65.2117 73.4831,65.1573C 73.4182,64.9215 73.297,64.7105 73.133,64.5499C 74.0399,63.8961 74.946,63.1414 75.7848,62.2667 Z M 16.455,63.4674C 17.3864,64.1666 18.4787,64.8175 19.6572,65.4217C 19.5273,65.5743 19.437,65.7645 19.3666,66.015C 18.1721,65.2374 17.1575,64.3826 16.455,63.4674 Z M 72.7742,64.8028C 72.8859,64.9036 72.9944,65.065 73.0466,65.2581C 73.0776,65.379 73.0839,65.505 73.0712,65.6378C 72.1801,66.2569 71.24,66.8184 70.2618,67.3277C 70.2562,67.2384 70.2468,67.1492 70.2277,67.066C 70.1755,66.8353 70.0828,66.64 69.9956,66.4727C 70.779,66.0665 71.5488,65.629 72.2919,65.1424C 72.4495,65.0391 72.6134,64.9154 72.7742,64.8028 Z M 20.0683,65.6319C 20.9784,66.0843 21.9463,66.4957 22.9277,66.8868C 22.7384,67.1146 22.6179,67.388 22.5712,67.6644C 22.5657,67.6961 22.5657,67.7279 22.5625,67.7596C 21.5788,67.3018 20.6346,66.8038 19.7682,66.2686C 19.7777,66.2052 19.7903,66.1417 19.8085,66.0814C 19.8671,65.8795 19.9757,65.721 20.0683,65.6319 Z M 69.5996,66.6717C 69.6741,66.8184 69.7485,66.9791 69.7889,67.1551C 69.8198,67.2901 69.8262,67.4285 69.8103,67.5665C 68.7861,68.0736 67.7217,68.5164 66.6389,68.9137C 66.6389,68.8621 66.6421,68.8106 66.6389,68.7589C 66.6144,68.4906 66.5399,68.2379 66.4314,68.0189C 67.5117,67.6268 68.5731,67.181 69.5996,66.6717 Z M 23.3514,67.0543C 24.3969,67.4632 25.4519,67.8399 26.5038,68.1766C 26.3676,68.4303 26.2875,68.7242 26.2749,69.0177C 26.2717,69.0899 26.2813,69.159 26.2844,69.2305C 25.1858,68.856 24.0786,68.442 22.999,67.9615C 22.999,67.8834 23.0013,67.8082 23.0172,67.7308C 23.0607,67.4713 23.1716,67.2266 23.3514,67.0543 Z M 66.0045,68.1715C 66.0916,68.3409 66.1685,68.5628 66.1906,68.7957C 66.2001,68.8907 66.197,68.9859 66.1906,69.078C 65.3645,69.3692 64.5289,69.6248 63.6845,69.8555C 63.6782,69.8092 63.6845,69.7603 63.675,69.7139C 63.6164,69.4464 63.4952,69.1959 63.3408,68.983C 64.2414,68.7413 65.1293,68.4737 66.0045,68.1715 Z M 26.9402,68.3094C 27.8899,68.6033 28.8214,68.868 29.7188,69.1009C 29.5453,69.3316 29.4313,69.6219 29.4003,69.93C 29.3908,70.014 29.3972,70.0972 29.4003,70.1805C 28.5583,69.9617 27.6674,69.6942 26.7581,69.3949C 26.7327,69.2799 26.7177,69.159 26.724,69.0323C 26.7358,68.7701 26.8167,68.5084 26.9402,68.3094 Z M 62.8703,69.1097C 63.0319,69.294 63.1801,69.5416 63.2355,69.7979C 63.2482,69.8585 63.2513,69.919 63.2545,69.9764C 62.1868,70.2557 61.1135,70.4886 60.0458,70.6817C 60.0522,70.6383 60.0641,70.5955 60.0673,70.5521C 60.0925,70.3192 60.0862,70.0885 60.0395,69.8873C 60.0276,69.835 60.0023,69.7921 59.9841,69.7457C 60.9528,69.5587 61.9175,69.3543 62.8703,69.1097 Z M 30.1892,69.2247C 30.9314,69.4119 31.6522,69.5821 32.3175,69.7198C 32.5377,69.7664 32.7571,69.8062 32.9733,69.8497C 32.8774,70.0567 32.7975,70.2955 32.7634,70.5491C 32.7444,70.6641 32.738,70.7857 32.7444,70.9036C 32.2035,70.8055 31.6648,70.7017 31.1262,70.5897C 30.7271,70.5094 30.2883,70.3966 29.855,70.2904C 29.8391,70.1866 29.8328,70.0775 29.8455,69.9705C 29.8796,69.6624 30.0253,69.3831 30.1892,69.2247 Z M 59.5476,69.835C 59.5667,69.8756 59.5848,69.919 59.5999,69.9764C 59.634,70.1231 59.6403,70.3133 59.6221,70.5094C 59.6125,70.5955 59.5944,70.6817 59.5754,70.7679C 59.4455,70.7879 59.3187,70.8145 59.192,70.8343C 58.4245,70.961 57.6515,71.0731 56.8776,71.1771C 56.8776,71.1395 56.8808,71.099 56.8808,71.0592C 56.8808,70.846 56.8594,70.6383 56.8159,70.4571C 56.8032,70.3936 56.7817,70.3389 56.7628,70.2845C 57.691,70.1519 58.6193,70.0081 59.5476,69.835 Z M 33.4374,69.9388C 34.3784,70.1173 35.3218,70.2696 36.2627,70.4112C 36.1882,70.5926 36.1447,70.7996 36.1328,71.0186C 36.1265,71.1512 36.1296,71.2862 36.1447,71.4246C 35.161,71.3009 34.1804,71.1512 33.2054,70.984C 33.1904,70.8631 33.1872,70.7393 33.2086,70.6065C 33.2426,70.3568 33.3385,70.129 33.4374,69.9388 Z M 56.3049,70.3448C 56.3303,70.3936 56.358,70.4571 56.3762,70.543C 56.4103,70.6876 56.4293,70.8719 56.4316,71.0621C 56.4316,71.1224 56.4198,71.18 56.4166,71.2403C 55.4139,71.3724 54.4088,71.4879 53.3997,71.5853C 53.3569,71.3841 53.326,71.1224 53.3442,70.6905C 53.8607,70.6383 54.3866,70.5926 54.8943,70.5321C 55.3647,70.4776 55.8352,70.4083 56.3049,70.3448 Z M 36.7324,70.4718C 37.7661,70.6095 38.7997,70.7193 39.8302,70.8084C 39.7462,71.0245 39.7058,71.2603 39.7026,71.4991C 39.7026,71.5941 39.709,71.6893 39.7216,71.7843C 38.6785,71.7069 37.6425,71.606 36.6088,71.482C 36.5844,71.3355 36.5717,71.1859 36.5812,71.0413C 36.5907,70.857 36.6279,70.6876 36.6801,70.5609C 36.696,70.5233 36.7142,70.5006 36.7324,70.4718 Z M 52.8928,70.7364C 52.8801,71.1453 52.9142,71.4097 52.9545,71.6287C 52.1435,71.7039 51.33,71.7696 50.5134,71.8219C 50.4912,71.7069 50.4762,71.5911 50.473,71.4762C 50.4667,71.2779 50.4825,71.085 50.5103,70.9176C 51.3149,70.869 52.1094,70.8084 52.8928,70.7364 Z M 40.3062,70.846C 41.4016,70.9322 42.4907,70.9928 43.5734,71.0274C 43.5393,71.1939 43.518,71.3724 43.5117,71.5596C 43.5085,71.6951 43.5148,71.8306 43.5299,71.9657C 42.413,71.9398 41.2963,71.8912 40.1826,71.816C 40.1636,71.712 40.1517,71.609 40.1517,71.502C 40.1549,71.2574 40.2135,71.0245 40.3062,70.846 Z M 50.0556,70.9464C 50.0334,71.1165 50.0184,71.295 50.0248,71.4879C 50.0303,71.606 50.0429,71.7269 50.062,71.8477C 49.1028,71.9022 48.1404,71.9427 47.1813,71.9657C 47.1567,71.8646 47.1377,71.7613 47.1282,71.6575C 47.1036,71.4356 47.1227,71.2227 47.1567,71.0504C 48.134,71.0355 49.0996,71.0015 50.0556,70.9464 Z M 44.0439,71.0413C 44.9286,71.0643 45.8102,71.0731 46.683,71.0643C 46.6553,71.2633 46.6584,71.4791 46.6799,71.6981C 46.6894,71.7901 46.7076,71.8824 46.7266,71.9744C 45.8134,71.9913 44.9009,71.9884 43.9885,71.9744C 43.9694,71.8419 43.9568,71.7069 43.96,71.5714C 43.9662,71.3812 44.0004,71.1939 44.0439,71.0413 Z "/>
		<path fill="#000000" fill-opacity="1" fill-rule="evenodd" stroke-width="0.377953" stroke-linejoin="round" d="M 70.0796,28.7471L 70.5588,29.064C 71.1932,29.1532 71.6882,29.1134 71.9449,28.8538C 72.5144,28.6754 73.3127,28.618 74.1793,29.4066C 75.0854,29.6514 75.7666,30.0367 76.8953,30.1436C 77.1772,30.4053 75.2311,30.2327 74.2379,30.2476C 73.6439,30.5291 72.9817,30.9727 72.5952,30.9063C 72.0939,30.8201 71.6265,30.6041 71.4071,29.8267L 70.8439,29.3551L 70.3331,29.4581C 70.1288,29.1243 69.9624,28.9232 70.0796,28.7471 Z "/>
		<path fill="#000000" fill-opacity="1" fill-rule="evenodd" stroke-width="0.755906" stroke-linejoin="round" stroke="#FFFFFF" stroke-opacity="1" d="M 73.1956,29.8209C 73.1956,30.0863 72.9849,30.3023 72.7219,30.3023C 72.4589,30.3023 72.2451,30.0863 72.2451,29.8209C 72.2451,29.5592 72.4589,29.3433 72.7219,29.3433C 72.9817,29.3433 73.1956,29.5562 73.1956,29.8209 Z "/>
	</g>
	<g>
		<path fill="none" stroke-width="3" stroke-linejoin="round" stroke="#FF0000" stroke-opacity="1" d="M 15.5425,6.0948L 79.2102,6.0948C 84.7331,6.0948 89.2102,10.5721 89.2102,16.0948L 89.2102,80.0831C 89.2102,85.6058 84.7331,90.0831 79.2102,90.0831L 15.5425,90.0831C 10.0197,90.0831 5.54248,85.6058 5.54248,80.0831L 5.54248,16.0948C 5.54248,10.5721 10.0197,6.0948 15.5425,6.0948 Z "/>
		<line fill="none" stroke-width="3" stroke-linejoin="round" stroke="#FF0000" stroke-opacity="1" x1="8.04218" y1="9.08919" x2="86.7089" y2="87.0892"/>
	</g>
	<g>
		<radialGradient id="SVGID_Fill1_" cx="-16.0265" cy="9.87947" r="118.102" gradientUnits="userSpaceOnUse">
			<stop offset="0" stop-color="#FFFFFF" stop-opacity="0.843137"/>
			<stop offset="0.77027" stop-color="#FFFFFF" stop-opacity="0.32549"/>
			<stop offset="1" stop-color="#FFFFFF" stop-opacity="0"/>
		</radialGradient>
		<path fill="url(#SVGID_Fill1_)" stroke-width="0.2" stroke-linejoin="round" d="M 16.3506,3.44051L 80.3506,3.44051C 86.4257,3.44051 91.3506,8.36531 91.3506,14.4405L 91.3506,77.44C 91.3506,83.5152 86.4257,88.44 80.3506,88.44L 16.3506,88.44C 10.2755,88.44 5.35059,83.5152 5.35059,77.44L 5.35059,14.4405C 5.35059,8.36531 10.2755,3.44051 16.3506,3.44051 Z "/>
		<radialGradient id="SVGID_Stroke1_" cx="73.3702" cy="47.441" r="669.951" gradientUnits="userSpaceOnUse">
			<stop offset="0.869369" stop-color="#F1F1F1" stop-opacity="0"/>
			<stop offset="1" stop-color="#EEEEEE" stop-opacity="0.898039"/>
		</radialGradient>
		<path fill="none" stroke-width="4" stroke-linejoin="round" stroke="url(#SVGID_Stroke1_)" d="M 82.6005,7.44002L 82.6005,7.44002C 86.6046,7.44002 89.8505,10.6859 89.8505,14.6898L 89.8505,80.1903C 89.8505,84.1944 86.6046,87.4403 82.6005,87.4403L 82.6005,87.4403C 78.5964,87.4403 75.3505,84.1944 75.3505,80.1903L 75.3505,14.6898C 75.3505,10.6859 78.5964,7.44002 82.6005,7.44002 Z "/>
		<radialGradient id="SVGID_Stroke2_" cx="21.331" cy="47.4395" r="669.951" gradientUnits="userSpaceOnUse" gradientTransform="rotate(180.000000 21.330994 47.439529)">
			<stop offset="0.869369" stop-color="#F1F1F1" stop-opacity="0"/>
			<stop offset="1" stop-color="#EEEEEE" stop-opacity="0.898039"/>
		</radialGradient>
		<path fill="none" stroke-width="4" stroke-linejoin="round" stroke="url(#SVGID_Stroke2_)" d="M 12.1007,87.4405L 12.1007,87.4405C 8.09662,87.4405 4.85071,84.1947 4.85071,80.1908L 4.85071,14.6903C 4.85071,10.6861 8.09662,7.44026 12.1007,7.44026L 12.1007,7.44026C 16.1047,7.44026 19.3507,10.6861 19.3507,14.6903L 19.3507,80.1908C 19.3507,84.1947 16.1047,87.4405 12.1007,87.4405 Z "/>
		<radialGradient id="SVGID_Stroke3_" cx="47.3519" cy="21.4207" r="79.1194" gradientUnits="userSpaceOnUse" gradientTransform="rotate(-90.000000 47.351929 21.420731)">
			<stop offset="0.869369" stop-color="#F1F1F1" stop-opacity="0"/>
			<stop offset="1" stop-color="#EEEEEE" stop-opacity="0.898039"/>
		</radialGradient>
		<path fill="none" stroke-width="4" stroke-linejoin="round" stroke="url(#SVGID_Stroke3_)" d="M 7.35052,12.1903L 7.35052,12.1903C 7.35052,8.18611 10.5966,4.94026 14.6005,4.94026L 80.1008,4.94026C 84.1051,4.94026 87.3508,8.18611 87.3508,12.1903L 87.3508,12.1903C 87.3508,16.1944 84.1051,19.4403 80.1008,19.4403L 14.6005,19.4403C 10.5966,19.4403 7.35052,16.1944 7.35052,12.1903 Z "/>
		<radialGradient id="SVGID_Stroke4_" cx="47.3496" cy="73.4598" r="79.1194" gradientUnits="userSpaceOnUse" gradientTransform="rotate(90.000000 47.349609 73.459793)">
			<stop offset="0.869369" stop-color="#F1F1F1" stop-opacity="0"/>
			<stop offset="1" stop-color="#EEEEEE" stop-opacity="0.898039"/>
		</radialGradient>
		<path fill="none" stroke-width="4" stroke-linejoin="round" stroke="url(#SVGID_Stroke4_)" d="M 87.351,82.6903L 87.351,82.6903C 87.351,86.6944 84.105,89.9403 80.101,89.9403L 14.6007,89.9403C 10.5964,89.9403 7.35071,86.6944 7.35071,82.6903L 7.35071,82.6903C 7.35071,78.6861 10.5964,75.4403 14.6007,75.4403L 80.101,75.4403C 84.105,75.4403 87.351,78.6861 87.351,82.6903 Z "/>
	</g>
</svg>
