<?xml version="1.0" encoding="utf-8"?>
<!DOCTYPE svg PUBLIC "-//W3C//DTD SVG 1.1//EN" "http://www.w3.org/Graphics/SVG/1.1/DTD/svg11.dtd">
<svg xmlns="http://www.w3.org/2000/svg" xmlns:xlink="http://www.w3.org/1999/xlink" version="1.1" baseProfile="full" width="95" height="95" viewBox="0 0 95.00 95.00" enable-background="new 0 0 95.00 95.00" xml:space="preserve">
	<path fill="#000000" fill-opacity="1" stroke-linejoin="round" stroke="#C0C0CC" stroke-opacity="1" d="M 15.5,2.49976L 79.5,2.49976C 86.6797,2.49976 92.5,8.32007 92.5,15.4998L 92.5,79.4998C 92.5,86.6794 86.6797,92.4998 79.5,92.4998L 15.5,92.4998C 8.32031,92.4998 2.5,86.6794 2.5,79.4998L 2.5,15.4998C 2.5,8.32007 8.32031,2.49976 15.5,2.49976 Z "/>
	<path fill="#FFFFFF" fill-opacity="1" stroke-linejoin="round" d="M 30.6821,34.188L 25.4321,34.188L 25.4321,26.4958L 17.6663,21.189L 17.6663,72.8557L 40.8329,72.8557L 40.8331,52.0593L 40.8489,52.1458L 43.5156,52.1458L 43.5989,54.5623L 51.5014,54.6951L 51.3333,73.0208L 74.5,73.0208L 74.5,34.1873L 71.8281,34.4797L 71.8281,34.6345L 71.9166,34.625L 71.9166,41.875L 69.4166,42.25L 69.1666,39.375L 66.6666,39.4375L 66.7083,49.6042L 63.9583,49.6875L 63.9583,52.0625L 61.4166,52.1458L 61.4166,47.0208L 58.9166,46.9792L 58.927,39.2917L 53.8437,39.375L 53.7415,36.8184L 51.6654,36.8184L 51.5713,47.0769L 40.8332,47.1404L 40.8333,37.3262L 46.052,37L 46.052,34.3333L 30.6821,30.082L 30.6821,34.188 Z M 28.1352,49.636L 25.6352,49.657L 25.5725,36.5952L 33.1975,36.5952L 33.1975,47.011L 28.1977,47.032L 28.1352,49.636 Z M 33.3332,65.188L 25.3332,65.188L 25.3332,54.688L 33.3332,54.688L 33.3332,65.188 Z M 66.4999,65.5212L 58.8332,65.5212L 58.8332,54.5212L 66.4999,54.5212L 66.4999,65.5212 Z "/>
	<g>
		<radialGradient id="SVGID_Fill1_" cx="-16.0266" cy="9.87939" r="118.103" gradientUnits="userSpaceOnUse">
			<stop offset="0" stop-color="#FFFFFF" stop-opacity="0.843137"/>
			<stop offset="0.77027" stop-color="#FFFFFF" stop-opacity="0.32549"/>
			<stop offset="1" stop-color="#FFFFFF" stop-opacity="0"/>
		</radialGradient>
		<path fill="url(#SVGID_Fill1_)" stroke-width="0.2" stroke-linejoin="round" d="M 16.3506,3.44043L 80.3506,3.44043C 86.4257,3.44043 91.3506,8.36548 91.3506,14.4404L 91.3506,77.4402C 91.3506,83.5154 86.4257,88.4402 80.3506,88.4402L 16.3506,88.4402C 10.2755,88.4402 5.35059,83.5154 5.35059,77.4402L 5.35059,14.4404C 5.35059,8.36548 10.2755,3.44043 16.3506,3.44043 Z "/>
		<radialGradient id="SVGID_Stroke1_" cx="73.3702" cy="47.4409" r="669.951" gradientUnits="userSpaceOnUse">
			<stop offset="0.869369" stop-color="#F1F1F1" stop-opacity="0"/>
			<stop offset="1" stop-color="#EEEEEE" stop-opacity="0.898039"/>
		</radialGradient>
		<path fill="none" stroke-width="4" stroke-linejoin="round" stroke="url(#SVGID_Stroke1_)" d="M 82.6005,7.43994L 82.6005,7.43994C 86.6046,7.43994 89.8505,10.6858 89.8505,14.6897L 89.8505,80.1902C 89.8505,84.1943 86.6046,87.4402 82.6005,87.4402L 82.6005,87.4402C 78.5965,87.4402 75.3505,84.1943 75.3505,80.1902L 75.3505,14.6897C 75.3505,10.6858 78.5965,7.43994 82.6005,7.43994 Z "/>
		<radialGradient id="SVGID_Stroke2_" cx="21.331" cy="47.4397" r="669.951" gradientUnits="userSpaceOnUse" gradientTransform="rotate(180.000000 21.330963 47.439697)">
			<stop offset="0.869369" stop-color="#F1F1F1" stop-opacity="0"/>
			<stop offset="1" stop-color="#EEEEEE" stop-opacity="0.898039"/>
		</radialGradient>
		<path fill="none" stroke-width="4" stroke-linejoin="round" stroke="url(#SVGID_Stroke2_)" d="M 12.1006,87.4407L 12.1006,87.4407C 8.09656,87.4407 4.85065,84.1948 4.85065,80.1909L 4.85065,14.6904C 4.85065,10.6863 8.09656,7.44043 12.1006,7.44043L 12.1006,7.44043C 16.1047,7.44043 19.3506,10.6863 19.3506,14.6904L 19.3506,80.1909C 19.3506,84.1948 16.1047,87.4407 12.1006,87.4407 Z "/>
		<radialGradient id="SVGID_Stroke3_" cx="47.3518" cy="21.4207" r="79.1183" gradientUnits="userSpaceOnUse" gradientTransform="rotate(-90.000000 47.351841 21.420654)">
			<stop offset="0.869369" stop-color="#F1F1F1" stop-opacity="0"/>
			<stop offset="1" stop-color="#EEEEEE" stop-opacity="0.898039"/>
		</radialGradient>
		<path fill="none" stroke-width="4" stroke-linejoin="round" stroke="url(#SVGID_Stroke3_)" d="M 7.35052,12.1902L 7.35052,12.1902C 7.35052,8.18628 10.5965,4.94019 14.6005,4.94019L 80.1009,4.94019C 84.105,4.94019 87.3508,8.18628 87.3508,12.1902L 87.3508,12.1902C 87.3508,16.1943 84.105,19.4402 80.1009,19.4402L 14.6005,19.4402C 10.5965,19.4402 7.35052,16.1943 7.35052,12.1902 Z "/>
		<radialGradient id="SVGID_Stroke4_" cx="47.349" cy="73.4597" r="79.1195" gradientUnits="userSpaceOnUse" gradientTransform="rotate(90.000000 47.348999 73.459717)">
			<stop offset="0.869369" stop-color="#F1F1F1" stop-opacity="0"/>
			<stop offset="1" stop-color="#EEEEEE" stop-opacity="0.898039"/>
		</radialGradient>
		<path fill="none" stroke-width="4" stroke-linejoin="round" stroke="url(#SVGID_Stroke4_)" d="M 87.3503,82.6902L 87.3503,82.6902C 87.3503,86.6943 84.1044,89.9402 80.1003,89.9402L 14.6,89.9402C 10.5958,89.9402 7.34998,86.6943 7.34998,82.6902L 7.34998,82.6902C 7.34998,78.6863 10.5958,75.4402 14.6,75.4402L 80.1003,75.4402C 84.1044,75.4402 87.3503,78.6863 87.3503,82.6902 Z "/>
	</g>
</svg>
