<?xml version="1.0" encoding="utf-8"?>
<!DOCTYPE svg PUBLIC "-//W3C//DTD SVG 1.1//EN" "http://www.w3.org/Graphics/SVG/1.1/DTD/svg11.dtd">
<svg xmlns="http://www.w3.org/2000/svg" xmlns:xlink="http://www.w3.org/1999/xlink" version="1.1" baseProfile="full" width="95" height="95" viewBox="0 0 95.00 95.00" enable-background="new 0 0 95.00 95.00" xml:space="preserve">
	<path fill="#000000" fill-opacity="1" stroke-linejoin="round" stroke="#000000" stroke-opacity="1" d="M 15.5,2.49983L 79.5,2.49983C 86.6797,2.49983 92.5,8.32014 92.5,15.4998L 92.5,79.4996C 92.5,86.6793 86.6797,92.4998 79.5,92.4998L 15.5,92.4998C 8.32031,92.4998 2.5,86.6793 2.5,79.4996L 2.5,15.4998C 2.5,8.32014 8.32031,2.49983 15.5,2.49983 Z "/>
	<path fill="#FFFFFF" fill-opacity="1" stroke-linejoin="round" d="M 41.8695,47.8348L 44.7022,51.7786L 49.9755,51.7786L 52.4098,47.8348L 49.8465,43.6344L 44.5625,43.6344M 44.0405,79.5572L 44.0405,70.6368L 38.7565,73.4395L 36.0635,71.9859L 36.0635,68.8465L 43.9009,64.6461L 43.9009,58.7825L 38.2149,62.2283L 38.2149,56.0196L 32.7795,58.9708L 32.7795,67.3922L 29.8072,69.1302L 27.2923,67.5609L 27.2923,61.9185L 19.0431,66.3072L 15.521,64.9093L 15.521,61.348L 24.1803,56.8868L 18.7628,54.3179L 18.7628,51.0636L 21.8372,49.4776L 29.6039,53.7904L 35.0008,50.856L 34.8709,50.7598L 29.3559,47.7791L 34.7107,44.6431L 29.3353,41.7088L 21.5678,46.0116L 18.6545,44.6431L 18.6545,41.3983L 23.9108,38.6126L 15.521,34.3192L 15.521,30.7611L 18.7458,29.1944L 27.0129,33.6954L 27.0129,27.9586L 29.5063,26.3724L 32.5593,28.0338L 32.5387,36.6204L 38.0922,39.6146L 38.0743,33.5443L 43.9009,36.4989L 43.9009,30.6387L 36.0635,26.4281L 36.0635,23.3123L 38.7565,21.8409L 44.0405,24.6446L 44.0405,15.7447L 47.0622,13.8748L 50.116,15.7447L 50.116,24.6446L 55.5925,21.7852L 58.3446,23.503L 58.3446,26.3067L 50.2378,30.6387L 50.2378,36.4989L 55.785,33.3096L 55.785,39.6905L 61.4988,36.753L 61.4988,27.5694L 64.2518,26.3624L 67.1436,27.5694L 67.1436,33.4422L 75.6525,29.1092L 78.6249,30.817L 78.6249,34.1378L 70.3156,38.5924L 75.5128,41.3392L 75.5128,44.5113L 72.8198,45.9195L 64.8427,41.4742L 59.3277,44.7747L 64.661,47.9107L 59.1665,50.8949L 64.8427,53.6949L 72.8198,49.4937L 75.383,51.2056L 75.383,54.2325L 70.3783,56.8868L 78.3456,61.348L 78.3456,64.8536L 74.9738,66.3072L 67.1436,62.1068L 67.1436,67.6663L 64.3324,69.147L 61.5793,67.6663L 61.5793,59.2249L 55.7815,56.1116L 55.7815,61.9742L 50.2342,58.7825L 50.2342,64.6461L 58.0752,68.8465L 58.0752,72.1673L 55.3687,73.4395L 50.116,70.6368L 50.116,79.5572L 47.0622,81.4066"/>
	<g>
		<path fill="none" stroke-width="3" stroke-linejoin="round" stroke="#FF0000" stroke-opacity="1" d="M 15.5426,6.0948L 79.2103,6.0948C 84.7332,6.0948 89.2103,10.5721 89.2103,16.0948L 89.2103,80.0831C 89.2103,85.6058 84.7332,90.0831 79.2103,90.0831L 15.5426,90.0831C 10.0197,90.0831 5.5426,85.6058 5.5426,80.0831L 5.5426,16.0948C 5.5426,10.5721 10.0197,6.0948 15.5426,6.0948 Z "/>
		<line fill="none" stroke-width="3" stroke-linejoin="round" stroke="#FF0000" stroke-opacity="1" x1="8.04214" y1="9.08919" x2="86.7088" y2="87.0892"/>
	</g>
	<g>
		<radialGradient id="SVGID_Fill1_" cx="-16.0265" cy="9.87947" r="118.103" gradientUnits="userSpaceOnUse">
			<stop offset="0" stop-color="#FFFFFF" stop-opacity="0.843137"/>
			<stop offset="0.77027" stop-color="#FFFFFF" stop-opacity="0.32549"/>
			<stop offset="1" stop-color="#FFFFFF" stop-opacity="0"/>
		</radialGradient>
		<path fill="url(#SVGID_Fill1_)" stroke-width="0.2" stroke-linejoin="round" d="M 16.3506,3.44051L 80.3506,3.44051C 86.4258,3.44051 91.3506,8.36531 91.3506,14.4405L 91.3506,77.44C 91.3506,83.5152 86.4258,88.44 80.3506,88.44L 16.3506,88.44C 10.2755,88.44 5.35062,83.5152 5.35062,77.44L 5.35062,14.4405C 5.35062,8.36531 10.2755,3.44051 16.3506,3.44051 Z "/>
		<radialGradient id="SVGID_Stroke1_" cx="73.3702" cy="47.441" r="669.951" gradientUnits="userSpaceOnUse">
			<stop offset="0.869369" stop-color="#F1F1F1" stop-opacity="0"/>
			<stop offset="1" stop-color="#EEEEEE" stop-opacity="0.898039"/>
		</radialGradient>
		<path fill="none" stroke-width="4" stroke-linejoin="round" stroke="url(#SVGID_Stroke1_)" d="M 82.6006,7.44002L 82.6006,7.44002C 86.6046,7.44002 89.8505,10.6859 89.8505,14.6898L 89.8505,80.1903C 89.8505,84.1944 86.6046,87.4403 82.6006,87.4403L 82.6006,87.4403C 78.5965,87.4403 75.3506,84.1944 75.3506,80.1903L 75.3506,14.6898C 75.3506,10.6859 78.5965,7.44002 82.6006,7.44002 Z "/>
		<radialGradient id="SVGID_Stroke2_" cx="21.331" cy="47.4393" r="669.951" gradientUnits="userSpaceOnUse" gradientTransform="rotate(180.000000 21.330963 47.439285)">
			<stop offset="0.869369" stop-color="#F1F1F1" stop-opacity="0"/>
			<stop offset="1" stop-color="#EEEEEE" stop-opacity="0.898039"/>
		</radialGradient>
		<path fill="none" stroke-width="4" stroke-linejoin="round" stroke="url(#SVGID_Stroke2_)" d="M 12.1006,87.4403L 12.1006,87.4403C 8.09659,87.4403 4.85068,84.1944 4.85068,80.1905L 4.85068,14.69C 4.85068,10.6859 8.09659,7.44002 12.1006,7.44002L 12.1006,7.44002C 16.1047,7.44002 19.3506,10.6859 19.3506,14.69L 19.3506,80.1905C 19.3506,84.1944 16.1047,87.4403 12.1006,87.4403 Z "/>
		<radialGradient id="SVGID_Stroke3_" cx="47.3521" cy="21.4207" r="79.1194" gradientUnits="userSpaceOnUse" gradientTransform="rotate(-90.000000 47.352051 21.420731)">
			<stop offset="0.869369" stop-color="#F1F1F1" stop-opacity="0"/>
			<stop offset="1" stop-color="#EEEEEE" stop-opacity="0.898039"/>
		</radialGradient>
		<path fill="none" stroke-width="4" stroke-linejoin="round" stroke="url(#SVGID_Stroke3_)" d="M 7.35071,12.1903L 7.35071,12.1903C 7.35071,8.18611 10.5967,4.94026 14.6007,4.94026L 80.1011,4.94026C 84.1052,4.94026 87.351,8.18611 87.351,12.1903L 87.351,12.1903C 87.351,16.1944 84.1052,19.4403 80.1011,19.4403L 14.6007,19.4403C 10.5967,19.4403 7.35071,16.1944 7.35071,12.1903 Z "/>
		<radialGradient id="SVGID_Stroke4_" cx="47.3495" cy="73.4598" r="79.1195" gradientUnits="userSpaceOnUse" gradientTransform="rotate(90.000000 47.349518 73.459793)">
			<stop offset="0.869369" stop-color="#F1F1F1" stop-opacity="0"/>
			<stop offset="1" stop-color="#EEEEEE" stop-opacity="0.898039"/>
		</radialGradient>
		<path fill="none" stroke-width="4" stroke-linejoin="round" stroke="url(#SVGID_Stroke4_)" d="M 87.3509,82.6903L 87.3509,82.6903C 87.3509,86.6944 84.1049,89.9403 80.1009,89.9403L 14.6005,89.9403C 10.5963,89.9403 7.35056,86.6944 7.35056,82.6903L 7.35056,82.6903C 7.35056,78.6861 10.5963,75.4403 14.6005,75.4403L 80.1009,75.4403C 84.1049,75.4403 87.3509,78.6861 87.3509,82.6903 Z "/>
	</g>
</svg>
