<?xml version="1.0" encoding="utf-8"?>
<!DOCTYPE svg PUBLIC "-//W3C//DTD SVG 1.1//EN" "http://www.w3.org/Graphics/SVG/1.1/DTD/svg11.dtd">
<svg xmlns="http://www.w3.org/2000/svg" xmlns:xlink="http://www.w3.org/1999/xlink" version="1.1" baseProfile="full" width="255" height="255" viewBox="0 0 255.00 255.00" enable-background="new 0 0 255.00 255.00" xml:space="preserve">
	<g>
		<linearGradient id="SVGID_Fill1_" gradientUnits="objectBoundingBox" x1="0.814661" y1="0.888576" x2="1.81466" y2="0.888576" gradientTransform="rotate(231.000061 0.814661 0.888576)">
			<stop offset="0" stop-color="#425E7E" stop-opacity="1"/>
			<stop offset="0.893501" stop-color="#70ACF1" stop-opacity="1"/>
			<stop offset="1" stop-color="#90C5F1" stop-opacity="1"/>
		</linearGradient>
		<path fill="url(#SVGID_Fill1_)" stroke-width="0.2" stroke-linejoin="round" d="M 116.201,25.4359C 171.43,25.4359 216.201,70.2064 216.201,125.435C 216.201,180.663 171.43,225.434 116.201,225.434C 60.9733,225.434 16.2017,180.663 16.2017,125.435C 16.2017,70.2064 60.9725,25.4359 116.201,25.4359 Z "/>
		<g>
			<radialGradient id="SVGID_Fill2_" cx="93.8988" cy="83.28" r="68.6273" gradientUnits="userSpaceOnUse">
				<stop offset="0.125" stop-color="#90F19D" stop-opacity="1"/>
				<stop offset="0.323276" stop-color="#8CF186" stop-opacity="1"/>
				<stop offset="0.323276" stop-color="#89F170" stop-opacity="1"/>
				<stop offset="0.50431" stop-color="#7EDF69" stop-opacity="1"/>
				<stop offset="1" stop-color="#447E42" stop-opacity="1"/>
			</radialGradient>
			<path fill="url(#SVGID_Fill2_)" stroke-width="2" stroke-linejoin="round" stroke="#006432" stroke-opacity="1" d="M 51.7421,56.5643L 51.7421,59.0154L 50.2714,59.9958L 37.5264,59.5056L 26.7421,75.1918L 26.7421,78.6233L 31.1538,82.5448L 30.6636,86.9564L 32.6244,90.3879L 36.546,93.8192L 37.5264,110.486L 41.4479,114.898L 54.6832,130.094L 65.4675,137.937L 77.2322,141.858L 82.1342,144.309L 83.1145,135.976L 76.742,131.074L 70.8596,129.113L 69.3891,123.231L 78.7028,123.231L 81.644,128.623L 86.0557,132.545L 92.4283,134.996L 105.664,131.564L 107.624,126.172L 95.3694,126.172L 90.4675,119.309L 89.9773,114.407L 107.134,94.3094L 113.507,88.9172L 105.173,74.2114L 110.075,67.8389L 105.664,59.0154L 99.291,54.1135L 97.3302,48.7212L 100.271,43.3291L 104.683,38.4271L 106.644,48.231L 114.487,50.682L 117.918,55.584L 120.369,68.3291L 124.291,74.2114L 127.232,77.6428L 134.095,72.7407L 136.056,69.3094L 153.212,70.2899L 154.683,74.2114L 161.056,68.3291L 158.605,63.9174L 152.722,62.4467L 148.801,59.0154L 148.31,53.1331L 152.232,50.682L 153.212,33.035L 145.86,27.1527L 139.487,25.1919L 128.213,25.1919L 122.33,28.1331L 118.409,32.0546L 113.507,31.5645L 110.075,26.1722L 108.115,22.741L 101.252,22.2507L 97.3302,24.2114L 93.4086,27.1527L 84.0949,28.6233L 83.1145,31.0742L 84.5851,35.4861L 80.1734,36.4663L 78.2126,33.5253L 69.8793,32.5448L 67.4283,36.9565L 66.9381,42.8389L 66.9381,45.2899L 64.4871,46.7605L 60.0753,46.7605L 58.6048,41.3684L 55.6636,40.8782L 52.7224,44.3094L 47.8205,48.7212L 49.291,56.0742L 51.7421,56.5643 Z M 76.382,46.0171L 72.9506,43.0759L 77.3624,44.0562L 81.7742,44.0562L 87.6565,44.5464L 88.1467,50.9189L 90.1075,52.3895L 93.5388,57.7817L 96.48,60.2328L 95.9898,66.1151L 91.5781,67.0955L 88.1467,65.1346L 86.1859,60.7229L 82.7545,55.3308L 77.3624,54.3503L 77.3624,51.8994L 76.382,46.0171 Z M 72.4604,80.8208L 74.9114,75.4287L 81.284,73.468L 86.1859,78.37L 85.2055,84.7426L 81.7742,89.6444L 75.8918,87.6836L 71.9702,83.2719L 72.4604,80.8208 Z "/>
			<radialGradient id="SVGID_Fill3_" cx="103.588" cy="135.233" r="40.6863" gradientUnits="userSpaceOnUse">
				<stop offset="0" stop-color="#7EDF69" stop-opacity="1"/>
				<stop offset="1" stop-color="#447E42" stop-opacity="1"/>
			</radialGradient>
			<path fill="url(#SVGID_Fill3_)" stroke-width="2" stroke-linejoin="round" stroke="#006432" stroke-opacity="1" d="M 99.9114,141.605L 91.5781,141.605L 85.6957,148.958L 83.2448,157.291L 82.7545,162.683L 93.5388,170.036L 98.931,173.958L 103.833,183.762L 93.0486,184.742L 92.0683,192.585L 91.5781,202.389L 94.0291,213.664L 95.9898,216.115L 112.656,220.036L 139.127,210.723L 99.9114,141.605 Z "/>
			<radialGradient id="SVGID_Fill4_" cx="149.543" cy="83.2719" r="24.1421" gradientUnits="userSpaceOnUse">
				<stop offset="0" stop-color="#7EDF69" stop-opacity="1"/>
				<stop offset="1" stop-color="#447E42" stop-opacity="1"/>
			</radialGradient>
			<path fill="url(#SVGID_Fill4_)" stroke-width="2" stroke-linejoin="round" stroke="#006432" stroke-opacity="1" d="M 159.225,87.0708L 159.715,81.1885L 165.107,77.5121L 167.558,78.9827L 179.323,92.218L 176.627,80.9434L 175.156,77.7572L 177.117,73.8357L 181.774,69.9141L 186.676,63.7866L 185.941,59.1298L 189.127,56.1887L 193.784,57.9043L 204.568,72.8552L 194.764,86.8259L 179.813,95.6493L 159.225,87.0708 Z "/>
		</g>
	</g>
	<g>
		<path fill="#000000" fill-opacity="1" stroke-width="0.2" stroke-linejoin="round" d="M 33.6671,233.573L 33.6671,166.373L 58.2371,166.373C 65.767,166.373 71.5546,167.743 75.5995,170.483C 79.6446,173.223 81.6671,177.083 81.6671,182.063C 81.6671,185.673 80.437,188.831 77.9771,191.536C 75.517,194.241 72.3721,196.123 68.5421,197.183L 68.5421,197.378C 73.402,197.968 77.2845,199.736 80.1896,202.681C 83.0945,205.626 84.5471,209.213 84.5471,213.443C 84.5471,219.623 82.3271,224.523 77.887,228.143C 73.4471,231.763 67.382,233.573 59.692,233.573L 33.6671,233.573 Z M 49.027,177.893L 49.027,193.253L 55.522,193.253C 58.5721,193.253 60.972,192.523 62.722,191.063C 64.472,189.603 65.347,187.593 65.347,185.033C 65.347,180.273 61.7521,177.893 54.562,177.893L 49.027,177.893 Z M 49.027,204.773L 49.027,222.053L 57.142,222.053C 60.6021,222.053 63.3146,221.261 65.2795,219.676C 67.2445,218.091 68.2271,215.928 68.2271,213.188C 68.2271,210.568 67.262,208.511 65.3321,207.016C 63.402,205.521 60.7021,204.773 57.2321,204.773L 49.027,204.773 Z "/>
		<path fill="#000000" fill-opacity="1" stroke-width="0.2" stroke-linejoin="round" d="M 171.907,233.573L 156.547,233.573L 156.547,193.358C 156.547,189.018 156.742,184.223 157.132,178.973L 156.757,178.973C 155.977,183.103 155.272,186.073 154.642,187.883L 138.892,233.573L 126.517,233.573L 110.482,188.348C 110.042,187.128 109.337,184.003 108.367,178.973L 107.947,178.973C 108.347,185.603 108.547,191.418 108.547,196.418L 108.547,233.573L 95.1071,233.573L 95.1071,166.373L 117.082,166.373L 130.807,206.213C 131.907,209.393 132.707,212.593 133.207,215.813L 133.492,215.813C 134.332,212.093 135.222,208.858 136.162,206.108L 149.887,166.373L 171.907,166.373L 171.907,233.573 Z "/>
		<path fill="#000000" fill-opacity="1" stroke-width="0.2" stroke-linejoin="round" d="M 202.627,210.533L 202.627,233.573L 187.267,233.573L 187.267,166.373L 210.907,166.373C 227.787,166.373 236.227,173.528 236.227,187.838C 236.227,194.608 233.825,200.083 229.02,204.263C 224.215,208.443 217.797,210.533 209.767,210.533L 202.627,210.533 Z M 202.627,177.893L 202.627,199.013L 208.327,199.013C 216.047,199.013 219.907,195.453 219.907,188.333C 219.907,181.373 216.047,177.893 208.327,177.893L 202.627,177.893 Z "/>
	</g>
</svg>
