<?xml version="1.0" encoding="utf-8"?>
<!DOCTYPE svg PUBLIC "-//W3C//DTD SVG 1.1//EN" "http://www.w3.org/Graphics/SVG/1.1/DTD/svg11.dtd">
<svg x="0px" y="0px" width="32" height="31.99993" overflow="hidden" viewBox="0, 0, 512, 511.9988" preserveAspectRatio="xMidYMid" font-size="0" id="svg" xml:space="preserve" xmlns="http://www.w3.org/2000/svg" xmlns:xlink="http://www.w3.org/1999/xlink" xmlns:xml="http://www.w3.org/XML/1998/namespace" version="1.1">
  <g stroke="#000000" transform="matrix(-1.023214, 0, 0, 1.699395, 511.4884, -168.303)" id="g4" xml:space="preserve" style="fill:#C40000;">
    <path d="M499.356 276.85 C498.235 257.824 489.918 245.791 471.695 236.894 C471.709 236.877 471.717 236.856 471.728 236.833 C471.396 236.683 470.995 236.535 470.658 236.385 C470.453 236.289 470.275 236.188 470.065 236.09 L470.043 236.128 C460.971 232.123 449.961 228.744 436.916 225.062 L343.9789 201.208 L343.9789 161.956 C343.9789 127.485 316.0399 99.53701 281.5679 99.53701 L79.061 99.53701 C44.596 99.53701 16.647 127.48 16.647 161.956 L16.647 217.408 C6.344 228.535 0 243.383 0 259.745 L0 293.725 C0 310.481 6.645 325.649 17.397 336.844 L25.282 336.992 C25.075 338.957 24.962 340.942 24.962 342.95 C24.962 374.359 50.418 399.82 81.83 399.82 C113.231 399.82 138.693 374.359 138.693 342.95 C138.693 341.67 138.581 340.414 138.504 339.158 L341.203 343.038 C341.245 374.404 366.691 399.82 398.067 399.82 C428.709 399.82 453.617 375.563 454.821 345.21 L490.806 345.9 C496.189 336.679 499.319 292.685 499.319 281.232 L499.319 279.154 C499.319 278.353 499.266 277.615 499.22 276.859 z M81.422 381.466 C58.637 381.466 40.163 360.807 40.163 335.346 L67.03 335.346 C66.713 336.539 66.495 337.776 66.495 339.067 C66.495 347.187 73.08299 353.775 81.203 353.775 C89.321 353.775 95.91199 347.187 95.91199 339.067 C95.91199 337.776 95.69299 336.54 95.37299 335.346 L122.683 335.346 C122.684 360.807 104.21 381.466 81.42199 381.466 z M90.504 222.634 L70.221 222.634 L70.221 216.398 L90.504 216.398 z M178.926 202.166 L51.729 202.166 L51.729 163.782 C51.729 142.469 68.998 125.199 90.308 125.199 L178.926 125.199 z M228.34 222.634 L208.05 222.634 L208.05 216.398 L228.34 216.398 z M310.693 202.166 L198.688 202.166 L198.688 125.2 L272.112 125.2 C293.418 125.2 310.693 142.469 310.693 163.783 z M399.75 381.466 C376.954 381.466 358.482 366.409 358.482 340.948 L384.822 340.948 C384.802 341.26 384.729 341.551 384.729 341.868 C384.729 349.988 391.32 356.579 399.44 356.579 C407.554 356.579 414.147 349.988 414.147 341.868 C414.147 341.551 414.078 341.261 414.053 340.948 L441 340.948 C441.005 366.409 422.535 381.466 399.75 381.466 z M488.584 277.77 C476.14 277.77 466.045 266.749 466.045 253.151 C466.045 248.467 467.255 244.095 469.343 240.369 C486.487 248.572 494.028 259.176 495.167 276.654 C493.075 277.354 490.871 277.77 488.584 277.77 z" stroke="#000000" id="path2" xml:space="preserve" connector-curvature="0" />
  </g>
  <g transform="matrix(-1, 0, 0, 1, 511.4943, 111.6845)" id="g6" xml:space="preserve" />
  <g transform="matrix(-1, 0, 0, 1, 511.4943, 111.6845)" id="g8" xml:space="preserve" />
  <g transform="matrix(-1, 0, 0, 1, 511.4943, 111.6845)" id="g10" xml:space="preserve" />
  <g transform="matrix(-1, 0, 0, 1, 511.4943, 111.6845)" id="g12" xml:space="preserve" />
  <g transform="matrix(-1, 0, 0, 1, 511.4943, 111.6845)" id="g14" xml:space="preserve" />
  <g transform="matrix(-1, 0, 0, 1, 511.4943, 111.6845)" id="g16" xml:space="preserve" />
  <g transform="matrix(-1, 0, 0, 1, 511.4943, 111.6845)" id="g18" xml:space="preserve" />
  <g transform="matrix(-1, 0, 0, 1, 511.4943, 111.6845)" id="g20" xml:space="preserve" />
  <g transform="matrix(-1, 0, 0, 1, 511.4943, 111.6845)" id="g22" xml:space="preserve" />
  <g transform="matrix(-1, 0, 0, 1, 511.4943, 111.6845)" id="g24" xml:space="preserve" />
  <g transform="matrix(-1, 0, 0, 1, 511.4943, 111.6845)" id="g26" xml:space="preserve" />
  <g transform="matrix(-1, 0, 0, 1, 511.4943, 111.6845)" id="g28" xml:space="preserve" />
  <g transform="matrix(-1, 0, 0, 1, 511.4943, 111.6845)" id="g30" xml:space="preserve" />
  <g transform="matrix(-1, 0, 0, 1, 511.4943, 111.6845)" id="g32" xml:space="preserve" />
  <g transform="matrix(-1, 0, 0, 1, 511.4943, 111.6845)" id="g34" xml:space="preserve" />
</svg>