<?xml version="1.0" encoding="utf-8"?>
<!DOCTYPE svg PUBLIC "-//W3C//DTD SVG 1.1//EN" "http://www.w3.org/Graphics/SVG/1.1/DTD/svg11.dtd">
<svg xmlns="http://www.w3.org/2000/svg" xmlns:xlink="http://www.w3.org/1999/xlink" version="1.1" baseProfile="full" width="257" height="257" viewBox="0 0 257.00 257.00" enable-background="new 0 0 257.00 257.00" xml:space="preserve">
	<ellipse fill="#16376C" fill-opacity="1" stroke-width="0.2" stroke-linejoin="round" cx="127.649" cy="127.725" rx="96.8333" ry="97.6667"/>
	<path fill="#339B2C" fill-opacity="1" stroke-width="0.2" stroke-linejoin="round" d="M 131.149,31.2246C 169.133,35.5465 186.401,54.3736 176.816,53.0579C 142.816,48.3911 134.739,58.667 134.149,59.0579C 105.732,77.8911 114.196,106.903 128.482,125.391C 156.816,162.058 140.482,186.725 131.816,195.391C 102.041,225.166 32.8158,197.724 34.3157,128.891C 35.4907,74.9646 78.0067,25.1779 131.149,31.2246 Z "/>
	<ellipse fill="none" stroke-width="5" stroke-linejoin="round" stroke="#16376C" stroke-opacity="1" cx="125.941" cy="128.308" rx="96.8334" ry="97.6667"/>
	<radialGradient id="SVGID_Stroke1_" cx="92.1056" cy="150.594" r="39.2039" gradientUnits="userSpaceOnUse">
		<stop offset="0" stop-color="#F3F8F8" stop-opacity="1"/>
		<stop offset="1" stop-color="#00EEFC" stop-opacity="1"/>
	</radialGradient>
	<path fill="#FFFFFF" fill-opacity="1" stroke-linejoin="round" stroke="url(#SVGID_Stroke1_)" d="M 66.1566,188.719L 83.3259,188.719L 84.1063,163.182L 86.4476,154.19L 91.1301,149.155L 96.9833,149.874L 103.227,153.831L 111.811,164.621L 115.323,167.138L 123.908,167.858L 128.59,167.858L 128.981,161.024L 116.104,149.155L 107.129,143.4L 99.3246,139.084L 109.08,127.934L 114.153,118.223L 116.104,113.548L 108.299,116.425L 100.105,125.417L 94.2518,130.452L 90.3497,132.251L 82.5455,129.373L 77.8629,128.294L 75.1315,131.171L 75.1315,126.855L 73.5707,123.618L 62.2545,112.828L 58.7426,112.469L 59.1328,118.583L 65.7664,126.496L 69.2783,128.294L 55.2306,128.294L 59.5231,133.329L 72.0098,132.251L 65.3761,136.207L 61.0839,138.724L 60.3033,141.962L 64.2056,142.681L 67.7174,140.882L 72.0098,138.365L 75.1315,138.005L 78.2532,142.321L 74.7412,150.953L 71.2294,156.348L 68.1077,164.261L 66.1566,173.253L 66.1566,188.719 Z "/>
	<radialGradient id="SVGID_Stroke2_" cx="89.3741" cy="120.381" r="9.56018" gradientUnits="userSpaceOnUse">
		<stop offset="0" stop-color="#F3F8F8" stop-opacity="1"/>
		<stop offset="1" stop-color="#00EEFC" stop-opacity="1"/>
	</radialGradient>
	<path fill="#FFFFFF" fill-opacity="1" stroke-linejoin="round" stroke="url(#SVGID_Stroke2_)" d="M 89.1791,113.188L 84.4965,114.267L 82.1553,117.864L 80.9846,123.618L 83.3259,126.855L 86.4476,126.136L 87.6183,123.618L 90.4799,123.858L 90.7399,125.776L 92.5609,127.455L 95.6826,125.776L 96.5931,122.18L 97.7638,118.223L 95.4225,114.267L 89.1791,113.188 Z "/>
	<g>
		<path fill="#FFFFFF" fill-opacity="1" stroke-linejoin="round" stroke="#FFFFFF" stroke-opacity="1" d="M 161.184,122.646C 155.751,122.11 145.813,122.888 143.365,119.885C 140.918,116.882 145.962,110.098 148.139,105.419C 150.316,100.74 149.626,98.1651 145.552,101.905C 141.477,105.646 134.019,115.701 134.349,120.957C 134.68,126.212 142.798,126.668 149.782,126.856C 156.766,127.044 162.616,126.963 165.079,125.998C 167.541,125.033 166.616,123.183 161.184,122.646 Z "/>
		<path fill="#FFFFFF" fill-opacity="1" stroke-linejoin="round" stroke="#FFFFFF" stroke-opacity="1" d="M 137.714,99.4888C 136.1,99.3302 138.736,97.7127 142.146,95.8958C 145.556,94.0793 149.74,92.064 151.891,91.3644C 154.043,90.6651 154.162,91.2818 155.347,94.9876C 156.532,98.6935 158.783,105.488 158.246,106.346C 157.709,107.204 154.383,102.126 149.788,100.236C 145.193,98.3472 139.328,99.6476 137.714,99.4888 Z "/>
	</g>
	<g>
		<path fill="#FFFFFF" fill-opacity="1" stroke-linejoin="round" stroke="#FFFFFF" stroke-opacity="1" d="M 195.768,101.9C 197.967,106.395 203.686,113.738 202.015,117.144C 200.343,120.55 191.282,120.017 185.682,120.663C 180.083,121.309 177.946,123.133 183.589,124.433C 189.232,125.732 202.655,126.507 207.556,123.622C 212.457,120.737 208.838,114.193 205.526,108.666C 202.215,103.138 199.213,98.6272 197.051,97.1944C 194.889,95.7613 193.568,97.406 195.768,101.9 Z "/>
		<path fill="#FFFFFF" fill-opacity="1" stroke-linejoin="round" stroke="#FFFFFF" stroke-opacity="1" d="M 185.178,131.738C 185.833,133.074 182.955,131.831 179.499,130.087C 176.042,128.342 172.008,126.095 170.258,124.771C 168.508,123.447 169.043,123.045 172.022,120.27C 175.002,117.495 180.427,112.347 181.523,112.336C 182.619,112.325 179.385,117.451 179.862,121.971C 180.338,126.491 184.524,130.403 185.178,131.738 Z "/>
	</g>
	<g>
		<path fill="#FFFFFF" fill-opacity="1" stroke-linejoin="round" stroke="#FFFFFF" stroke-opacity="1" d="M 159.646,85.4021C 162.88,81.4441 167.099,73.3228 171.218,72.9202C 175.337,72.5177 179.354,79.8338 182.776,83.8672C 186.199,87.9004 189.026,88.6509 187.457,83.611C 185.888,78.5711 179.924,67.7409 174.692,65.3701C 169.461,62.9991 164.962,69.0872 161.289,74.427C 157.616,79.7668 154.769,84.3584 154.468,86.7566C 154.167,89.1551 156.413,89.3601 159.646,85.4021 Z "/>
		<path fill="#FFFFFF" fill-opacity="1" stroke-linejoin="round" stroke="#FFFFFF" stroke-opacity="1" d="M 193.705,78.7213C 194.665,77.5446 194.906,80.4046 194.953,83.966C 194.999,87.5274 194.85,91.7898 194.448,93.8133C 194.047,95.8369 193.393,95.6214 189.228,94.6906C 185.063,93.7598 177.387,92.1136 176.828,91.2664C 176.27,90.4195 182.828,90.3717 186.948,87.7414C 191.066,85.1109 192.745,79.8977 193.705,78.7213 Z "/>
	</g>
	<g>
		<path fill="#000000" fill-opacity="1" stroke-width="0.2" stroke-linejoin="round" d="M 206.935,33.6286L 201.335,33.6286L 201.335,49.5885L 196.855,49.5885L 196.855,33.6286L 191.255,33.6286L 191.255,29.9886L 206.935,29.9886L 206.935,33.6286 Z "/>
		<path fill="#000000" fill-opacity="1" stroke-width="0.2" stroke-linejoin="round" d="M 231.855,49.5885L 227.375,49.5885L 227.375,37.8592C 227.375,36.5933 227.432,35.1949 227.546,33.6636L 227.436,33.6636C 227.209,34.8682 227.003,35.7344 226.819,36.2624L 222.225,49.5885L 218.616,49.5885L 213.939,36.398C 213.811,36.0421 213.605,35.1306 213.322,33.6636L 213.2,33.6636C 213.317,35.5973 213.375,37.2932 213.375,38.7516L 213.375,49.5885L 209.455,49.5885L 209.455,29.9886L 215.864,29.9886L 219.867,41.6086C 220.188,42.5359 220.422,43.4694 220.567,44.4085L 220.651,44.4085C 220.895,43.3235 221.155,42.38 221.429,41.5779L 225.432,29.9886L 231.855,29.9886L 231.855,49.5885 Z "/>
	</g>
</svg>
