<?xml version="1.0" encoding="utf-8"?>
<!DOCTYPE svg PUBLIC "-//W3C//DTD SVG 1.1//EN" "http://www.w3.org/Graphics/SVG/1.1/DTD/svg11.dtd">
<svg xmlns="http://www.w3.org/2000/svg" xmlns:xlink="http://www.w3.org/1999/xlink" version="1.1" baseProfile="full" width="242" height="242" viewBox="0 0 242.00 242.00" enable-background="new 0 0 242.00 242.00" xml:space="preserve">
	<g>
		<path fill="#FFFFFF" fill-opacity="1" stroke-linecap="square" stroke-linejoin="bevel" stroke="#000000" stroke-opacity="1" d="M 157.11,70.0718L 191.957,50.5911L 191.957,68.9789L 157.11,89.3597L 157.11,70.0718 Z "/>
		<path fill="#FFFFFF" fill-opacity="1" stroke-linecap="square" stroke-linejoin="bevel" stroke="#000000" stroke-opacity="1" d="M 126.249,68.9788L 156.853,68.9788L 156.869,89.408L 132.856,89.5045L 128.709,88.3471L 126.298,84.8753L 126.249,68.9788 Z "/>
		<linearGradient id="SVGID_Fill1_" gradientUnits="objectBoundingBox" x1="-0.0487921" y1="0.5" x2="1.04879" y2="0.5">
			<stop offset="0.00925926" stop-color="#C0C0C0" stop-opacity="1"/>
			<stop offset="0.197949" stop-color="#8B8B8B" stop-opacity="0.501961"/>
			<stop offset="0.421296" stop-color="#575757" stop-opacity="0"/>
			<stop offset="0.611111" stop-color="#626262" stop-opacity="0"/>
			<stop offset="1" stop-color="#C0C0C0" stop-opacity="0.4"/>
		</linearGradient>
		<filter id="Filter_GaussianBlur1_" filterUnits="userSpaceOnUse">
			<feGaussianBlur stdDeviation="1.88976"/>
		</filter>
		<path fill="url(#SVGID_Fill1_)" stroke-width="0.2" stroke-linecap="square" stroke-linejoin="bevel" filter="url(#Filter_GaussianBlur1_)" d="M 152.625,59.7499C 165.355,53.68 178.03,53.6993 180.936,59.793C 183.842,65.887 175.877,75.7476 163.147,81.8177C 150.417,87.8875 137.742,87.8682 134.836,81.7745C 131.931,75.6806 139.895,65.8199 152.625,59.7499 Z "/>
		<path fill="#80AF64" fill-opacity="1" stroke-linejoin="miter" stroke="#000000" stroke-opacity="1" d="M 123.903,63.9962L 158.46,63.8836L 158.46,68.8021L 123.967,68.8825L 123.903,63.9962 Z "/>
		<linearGradient id="SVGID_Fill2_" gradientUnits="objectBoundingBox" x1="1.05587" y1="0.500003" x2="2.1676" y2="0.500003" gradientTransform="rotate(180.000000 1.055866 0.500003)">
			<stop offset="0" stop-color="#8FC072" stop-opacity="1"/>
			<stop offset="0.662037" stop-color="#87B76B" stop-opacity="1"/>
			<stop offset="1" stop-color="#80AF64" stop-opacity="1"/>
		</linearGradient>
		<path fill="url(#SVGID_Fill2_)" stroke-linejoin="miter" stroke="#000000" stroke-opacity="1" d="M 123.646,64.0605L 161.533,43.7202L 192.696,43.5351L 157.121,64.0767L 123.646,64.0605 Z "/>
		<linearGradient id="SVGID_Fill3_" gradientUnits="objectBoundingBox" x1="0.99726" y1="0.655406" x2="2.03922" y2="0.655406" gradientTransform="rotate(182.024445 0.997260 0.655406)">
			<stop offset="0" stop-color="#316013" stop-opacity="1"/>
			<stop offset="0.662037" stop-color="#447327" stop-opacity="1"/>
			<stop offset="1" stop-color="#58873B" stop-opacity="1"/>
		</linearGradient>
		<path fill="url(#SVGID_Fill3_)" stroke-width="0.2" stroke-linecap="square" stroke-linejoin="bevel" d="M 141.84,59.8172L 156.146,59.7851L 177.877,47.6978L 162.961,47.8266L 141.84,59.8172 Z "/>
		<path fill="#80AF64" fill-opacity="1" stroke-linecap="square" stroke-linejoin="bevel" stroke="#000000" stroke-opacity="1" d="M 158.878,63.5462L 193.741,42.9564L 193.741,48.9356L 158.878,68.8182L 158.878,63.5462 Z "/>
		<linearGradient id="SVGID_Fill4_" gradientUnits="objectBoundingBox" x1="-0.0487921" y1="0.500002" x2="1.04879" y2="0.500002">
			<stop offset="0" stop-color="#C0C0C0" stop-opacity="0"/>
			<stop offset="0.19505" stop-color="#989898" stop-opacity="0"/>
			<stop offset="0.425926" stop-color="#707070" stop-opacity="0"/>
			<stop offset="0.787037" stop-color="#6C6C6C" stop-opacity="0"/>
			<stop offset="0.986111" stop-color="#B9B9B9" stop-opacity="0.6"/>
		</linearGradient>
		<filter id="Filter_GaussianBlur2_" filterUnits="userSpaceOnUse">
			<feGaussianBlur stdDeviation="1.88976"/>
		</filter>
		<path fill="url(#SVGID_Fill4_)" stroke-width="0.2" stroke-linecap="square" stroke-linejoin="bevel" filter="url(#Filter_GaussianBlur2_)" d="M 161.171,55.8878C 173.901,49.8178 186.577,49.8372 189.482,55.931C 192.388,62.0248 184.424,71.8854 171.694,77.9554C 158.963,84.0255 146.288,84.006 143.383,77.9122C 140.477,71.8184 148.441,61.9576 161.171,55.8878 Z "/>
		<path fill="#80AF64" fill-opacity="1" stroke-linejoin="bevel" stroke="#000000" stroke-opacity="1" d="M 133.788,68.8022L 151.726,68.8986L 145.361,75.8423L 128.484,75.8423L 133.788,68.8022 Z "/>
	</g>
	<linearGradient id="SVGID_Fill5_" gradientUnits="objectBoundingBox" x1="0.5" y1="1.06035" x2="1.62071" y2="1.06035" gradientTransform="rotate(-90.000000 0.500000 1.060354)">
		<stop offset="0" stop-color="#91C791" stop-opacity="1"/>
		<stop offset="1" stop-color="#FFFFFF" stop-opacity="1"/>
	</linearGradient>
	<path fill="url(#SVGID_Fill5_)" stroke-width="8" stroke-linecap="square" stroke-linejoin="bevel" stroke="#000000" stroke-opacity="1" d="M 41,1.00006L 201,1.00006C 223.091,1.00006 241,18.9086 241,40.9999L 241,201C 241,223.091 223.091,241 201,241L 41,241C 18.9086,241 1,223.091 1,201L 1,40.9999C 1,18.9086 18.9086,1.00006 41,1.00006 Z "/>
	<g>
		<path fill="#FFFFFF" fill-opacity="1" stroke-linecap="square" stroke-linejoin="bevel" stroke="#000000" stroke-opacity="1" d="M 197.701,70.5495L 232.548,51.0688L 232.548,69.4566L 197.701,89.8375L 197.701,70.5495 Z "/>
		<path fill="#FFFFFF" fill-opacity="1" stroke-linecap="square" stroke-linejoin="bevel" stroke="#000000" stroke-opacity="1" d="M 166.841,69.4566L 197.444,69.4566L 197.46,89.8857L 173.447,89.9821L 169.3,88.8248L 166.889,85.3531L 166.841,69.4566 Z "/>
		<linearGradient id="SVGID_Fill6_" gradientUnits="objectBoundingBox" x1="-0.0487921" y1="0.499999" x2="1.04879" y2="0.499999">
			<stop offset="0.00925926" stop-color="#C0C0C0" stop-opacity="1"/>
			<stop offset="0.197949" stop-color="#8B8B8B" stop-opacity="0.501961"/>
			<stop offset="0.421296" stop-color="#575757" stop-opacity="0"/>
			<stop offset="0.611111" stop-color="#626262" stop-opacity="0"/>
			<stop offset="1" stop-color="#C0C0C0" stop-opacity="0.4"/>
		</linearGradient>
		<filter id="Filter_GaussianBlur3_" filterUnits="userSpaceOnUse">
			<feGaussianBlur stdDeviation="1.88976"/>
		</filter>
		<path fill="url(#SVGID_Fill6_)" stroke-width="0.2" stroke-linecap="square" stroke-linejoin="bevel" filter="url(#Filter_GaussianBlur3_)" d="M 193.216,60.2276C 205.946,54.1578 218.622,54.1772 221.527,60.2709C 224.433,66.3648 216.469,76.2254 203.739,82.2955C 191.009,88.3653 178.333,88.346 175.428,82.2523C 172.522,76.1584 180.486,66.2977 193.216,60.2276 Z "/>
		<path fill="#80AF64" fill-opacity="1" stroke-linejoin="miter" stroke="#000000" stroke-opacity="1" d="M 164.494,64.4741L 199.052,64.3615L 199.052,69.2798L 164.558,69.3604L 164.494,64.4741 Z "/>
		<linearGradient id="SVGID_Fill7_" gradientUnits="objectBoundingBox" x1="1.05587" y1="0.5" x2="2.1676" y2="0.5" gradientTransform="rotate(180.000000 1.055866 0.500000)">
			<stop offset="0" stop-color="#8FC072" stop-opacity="1"/>
			<stop offset="0.662037" stop-color="#87B76B" stop-opacity="1"/>
			<stop offset="1" stop-color="#80AF64" stop-opacity="1"/>
		</linearGradient>
		<path fill="url(#SVGID_Fill7_)" stroke-linejoin="miter" stroke="#000000" stroke-opacity="1" d="M 164.237,64.5383L 202.124,44.1978L 233.288,44.0128L 197.712,64.5545L 164.237,64.5383 Z "/>
		<linearGradient id="SVGID_Fill8_" gradientUnits="objectBoundingBox" x1="0.997261" y1="0.655402" x2="2.03922" y2="0.655402" gradientTransform="rotate(182.024399 0.997261 0.655402)">
			<stop offset="0" stop-color="#316013" stop-opacity="1"/>
			<stop offset="0.662037" stop-color="#447327" stop-opacity="1"/>
			<stop offset="1" stop-color="#58873B" stop-opacity="1"/>
		</linearGradient>
		<path fill="url(#SVGID_Fill8_)" stroke-width="0.2" stroke-linecap="square" stroke-linejoin="bevel" d="M 182.432,60.2949L 196.737,60.2628L 218.468,48.1756L 203.552,48.3043L 182.432,60.2949 Z "/>
		<path fill="#80AF64" fill-opacity="1" stroke-linecap="square" stroke-linejoin="bevel" stroke="#000000" stroke-opacity="1" d="M 199.47,64.024L 234.332,43.4341L 234.332,49.4134L 199.47,69.296L 199.47,64.024 Z "/>
		<linearGradient id="SVGID_Fill9_" gradientUnits="objectBoundingBox" x1="-0.0487921" y1="0.500002" x2="1.04879" y2="0.500002">
			<stop offset="0" stop-color="#C0C0C0" stop-opacity="0"/>
			<stop offset="0.19505" stop-color="#989898" stop-opacity="0"/>
			<stop offset="0.425926" stop-color="#707070" stop-opacity="0"/>
			<stop offset="0.787037" stop-color="#6C6C6C" stop-opacity="0"/>
			<stop offset="0.986111" stop-color="#B9B9B9" stop-opacity="0.6"/>
		</linearGradient>
		<filter id="Filter_GaussianBlur4_" filterUnits="userSpaceOnUse">
			<feGaussianBlur stdDeviation="1.88976"/>
		</filter>
		<path fill="url(#SVGID_Fill9_)" stroke-width="0.2" stroke-linecap="square" stroke-linejoin="bevel" filter="url(#Filter_GaussianBlur4_)" d="M 201.763,56.3655C 214.493,50.2955 227.168,50.3149 230.074,56.4086C 232.979,62.5025 225.015,72.3631 212.285,78.4332C 199.555,84.5031 186.88,84.4837 183.974,78.39C 181.068,72.2962 189.033,62.4354 201.763,56.3655 Z "/>
		<path fill="#80AF64" fill-opacity="1" stroke-linejoin="bevel" stroke="#000000" stroke-opacity="1" d="M 174.379,69.2798L 192.317,69.3763L 185.952,76.3199L 169.075,76.3199L 174.379,69.2798 Z "/>
	</g>
	<g>
		<path fill="#FFFFFF" fill-opacity="1" stroke-linecap="square" stroke-linejoin="bevel" stroke="#000000" stroke-opacity="1" d="M 153.827,108.742L 188.673,89.2608L 188.673,107.649L 153.827,128.029L 153.827,108.742 Z "/>
		<path fill="#FFFFFF" fill-opacity="1" stroke-linecap="square" stroke-linejoin="bevel" stroke="#000000" stroke-opacity="1" d="M 122.966,107.648L 153.569,107.648L 153.585,128.078L 129.572,128.174L 125.425,127.017L 123.014,123.545L 122.966,107.648 Z "/>
		<linearGradient id="SVGID_Fill10_" gradientUnits="objectBoundingBox" x1="-0.0487921" y1="0.5" x2="1.04879" y2="0.5">
			<stop offset="0.00925926" stop-color="#C0C0C0" stop-opacity="1"/>
			<stop offset="0.197949" stop-color="#8B8B8B" stop-opacity="0.501961"/>
			<stop offset="0.421296" stop-color="#575757" stop-opacity="0"/>
			<stop offset="0.611111" stop-color="#626262" stop-opacity="0"/>
			<stop offset="1" stop-color="#C0C0C0" stop-opacity="0.4"/>
		</linearGradient>
		<filter id="Filter_GaussianBlur5_" filterUnits="userSpaceOnUse">
			<feGaussianBlur stdDeviation="1.88976"/>
		</filter>
		<path fill="url(#SVGID_Fill10_)" stroke-width="0.2" stroke-linecap="square" stroke-linejoin="bevel" filter="url(#Filter_GaussianBlur5_)" d="M 149.341,98.4196C 162.071,92.3497 174.747,92.369 177.652,98.4628C 180.558,104.557 172.594,114.417 159.864,120.487C 147.134,126.557 134.458,126.538 131.553,120.444C 128.647,114.35 136.611,104.49 149.341,98.4196 Z "/>
		<path fill="#80AF64" fill-opacity="1" stroke-linejoin="miter" stroke="#000000" stroke-opacity="1" d="M 120.619,102.666L 155.177,102.553L 155.177,107.472L 120.684,107.552L 120.619,102.666 Z "/>
		<linearGradient id="SVGID_Fill11_" gradientUnits="objectBoundingBox" x1="1.05587" y1="0.500003" x2="2.1676" y2="0.500003" gradientTransform="rotate(180.000000 1.055866 0.500003)">
			<stop offset="0" stop-color="#8FC072" stop-opacity="1"/>
			<stop offset="0.662037" stop-color="#87B76B" stop-opacity="1"/>
			<stop offset="1" stop-color="#80AF64" stop-opacity="1"/>
		</linearGradient>
		<path fill="url(#SVGID_Fill11_)" stroke-linejoin="miter" stroke="#000000" stroke-opacity="1" d="M 120.362,102.73L 158.249,82.3897L 189.413,82.2048L 153.838,102.746L 120.362,102.73 Z "/>
		<linearGradient id="SVGID_Fill12_" gradientUnits="objectBoundingBox" x1="0.99726" y1="0.655406" x2="2.03922" y2="0.655406" gradientTransform="rotate(182.024414 0.997260 0.655406)">
			<stop offset="0" stop-color="#316013" stop-opacity="1"/>
			<stop offset="0.662037" stop-color="#447327" stop-opacity="1"/>
			<stop offset="1" stop-color="#58873B" stop-opacity="1"/>
		</linearGradient>
		<path fill="url(#SVGID_Fill12_)" stroke-width="0.2" stroke-linecap="square" stroke-linejoin="bevel" d="M 138.557,98.4869L 152.862,98.4547L 174.593,86.3675L 159.677,86.4962L 138.557,98.4869 Z "/>
		<path fill="#80AF64" fill-opacity="1" stroke-linecap="square" stroke-linejoin="bevel" stroke="#000000" stroke-opacity="1" d="M 155.595,102.216L 190.457,81.626L 190.457,87.6053L 155.595,107.488L 155.595,102.216 Z "/>
		<linearGradient id="SVGID_Fill13_" gradientUnits="objectBoundingBox" x1="-0.0487921" y1="0.500002" x2="1.04879" y2="0.500002">
			<stop offset="0" stop-color="#C0C0C0" stop-opacity="0"/>
			<stop offset="0.19505" stop-color="#989898" stop-opacity="0"/>
			<stop offset="0.425926" stop-color="#707070" stop-opacity="0"/>
			<stop offset="0.787037" stop-color="#6C6C6C" stop-opacity="0"/>
			<stop offset="0.986111" stop-color="#B9B9B9" stop-opacity="0.6"/>
		</linearGradient>
		<filter id="Filter_GaussianBlur6_" filterUnits="userSpaceOnUse">
			<feGaussianBlur stdDeviation="1.88976"/>
		</filter>
		<path fill="url(#SVGID_Fill13_)" stroke-width="0.2" stroke-linecap="square" stroke-linejoin="bevel" filter="url(#Filter_GaussianBlur6_)" d="M 157.888,94.5574C 170.618,88.4875 183.293,88.5069 186.199,94.6006C 189.104,100.694 181.14,110.555 168.41,116.625C 155.68,122.695 143.005,122.676 140.099,116.582C 137.193,110.488 145.158,100.627 157.888,94.5574 Z "/>
		<path fill="#80AF64" fill-opacity="1" stroke-linejoin="bevel" stroke="#000000" stroke-opacity="1" d="M 130.504,107.472L 148.442,107.568L 142.077,114.512L 125.2,114.512L 130.504,107.472 Z "/>
	</g>
	<g>
		<path fill="#FFFFFF" fill-opacity="1" stroke-linecap="square" stroke-linejoin="bevel" stroke="#000000" stroke-opacity="1" d="M 194.418,109.219L 229.265,89.7386L 229.265,108.126L 194.418,128.507L 194.418,109.219 Z "/>
		<path fill="#FFFFFF" fill-opacity="1" stroke-linecap="square" stroke-linejoin="bevel" stroke="#000000" stroke-opacity="1" d="M 163.557,108.126L 194.161,108.126L 194.177,128.555L 170.163,128.652L 166.016,127.494L 163.606,124.023L 163.557,108.126 Z "/>
		<linearGradient id="SVGID_Fill14_" gradientUnits="objectBoundingBox" x1="-0.0487918" y1="0.5" x2="1.04879" y2="0.5">
			<stop offset="0.00925926" stop-color="#C0C0C0" stop-opacity="1"/>
			<stop offset="0.197949" stop-color="#8B8B8B" stop-opacity="0.501961"/>
			<stop offset="0.421296" stop-color="#575757" stop-opacity="0"/>
			<stop offset="0.611111" stop-color="#626262" stop-opacity="0"/>
			<stop offset="1" stop-color="#C0C0C0" stop-opacity="0.4"/>
		</linearGradient>
		<filter id="Filter_GaussianBlur7_" filterUnits="userSpaceOnUse">
			<feGaussianBlur stdDeviation="1.88976"/>
		</filter>
		<path fill="url(#SVGID_Fill14_)" stroke-width="0.2" stroke-linecap="square" stroke-linejoin="bevel" filter="url(#Filter_GaussianBlur7_)" d="M 189.933,98.8974C 202.663,92.8275 215.338,92.8467 218.244,98.9406C 221.15,105.034 213.185,114.895 200.455,120.965C 187.725,127.035 175.05,127.016 172.144,120.922C 169.238,114.828 177.203,104.967 189.933,98.8974 Z "/>
		<path fill="#80AF64" fill-opacity="1" stroke-linejoin="miter" stroke="#000000" stroke-opacity="1" d="M 161.211,103.144L 195.768,103.031L 195.768,107.95L 161.275,108.03L 161.211,103.144 Z "/>
		<linearGradient id="SVGID_Fill15_" gradientUnits="objectBoundingBox" x1="1.05587" y1="0.500003" x2="2.1676" y2="0.500003" gradientTransform="rotate(180.000000 1.055866 0.500003)">
			<stop offset="0" stop-color="#8FC072" stop-opacity="1"/>
			<stop offset="0.662037" stop-color="#87B76B" stop-opacity="1"/>
			<stop offset="1" stop-color="#80AF64" stop-opacity="1"/>
		</linearGradient>
		<path fill="url(#SVGID_Fill15_)" stroke-linejoin="miter" stroke="#000000" stroke-opacity="1" d="M 160.953,103.208L 198.841,82.8675L 230.004,82.6826L 194.429,103.224L 160.953,103.208 Z "/>
		<linearGradient id="SVGID_Fill16_" gradientUnits="objectBoundingBox" x1="0.997261" y1="0.655412" x2="2.03922" y2="0.655412" gradientTransform="rotate(182.024414 0.997261 0.655412)">
			<stop offset="0" stop-color="#316013" stop-opacity="1"/>
			<stop offset="0.662037" stop-color="#447327" stop-opacity="1"/>
			<stop offset="1" stop-color="#58873B" stop-opacity="1"/>
		</linearGradient>
		<path fill="url(#SVGID_Fill16_)" stroke-width="0.2" stroke-linecap="square" stroke-linejoin="bevel" d="M 179.148,98.9645L 193.453,98.9324L 215.184,86.8453L 200.269,86.9739L 179.148,98.9645 Z "/>
		<path fill="#80AF64" fill-opacity="1" stroke-linecap="square" stroke-linejoin="bevel" stroke="#000000" stroke-opacity="1" d="M 196.186,102.694L 231.049,82.1038L 231.049,88.0831L 196.186,107.966L 196.186,102.694 Z "/>
		<linearGradient id="SVGID_Fill17_" gradientUnits="objectBoundingBox" x1="-0.0487918" y1="0.500002" x2="1.04879" y2="0.500002">
			<stop offset="0" stop-color="#C0C0C0" stop-opacity="0"/>
			<stop offset="0.19505" stop-color="#989898" stop-opacity="0"/>
			<stop offset="0.425926" stop-color="#707070" stop-opacity="0"/>
			<stop offset="0.787037" stop-color="#6C6C6C" stop-opacity="0"/>
			<stop offset="0.986111" stop-color="#B9B9B9" stop-opacity="0.6"/>
		</linearGradient>
		<filter id="Filter_GaussianBlur8_" filterUnits="userSpaceOnUse">
			<feGaussianBlur stdDeviation="1.88976"/>
		</filter>
		<path fill="url(#SVGID_Fill17_)" stroke-width="0.2" stroke-linecap="square" stroke-linejoin="bevel" filter="url(#Filter_GaussianBlur8_)" d="M 198.479,95.0351C 211.209,88.9651 223.885,88.9846 226.79,95.0783C 229.696,101.172 221.732,111.033 209.002,117.103C 196.271,123.173 183.596,123.153 180.69,117.06C 177.785,110.966 185.749,101.105 198.479,95.0351 Z "/>
		<path fill="#80AF64" fill-opacity="1" stroke-linejoin="bevel" stroke="#000000" stroke-opacity="1" d="M 171.096,107.95L 189.033,108.046L 182.668,114.99L 165.792,114.99L 171.096,107.95 Z "/>
	</g>
	<g>
		<path fill="#FFFFFF" fill-opacity="1" stroke-linecap="square" stroke-linejoin="bevel" stroke="#000000" stroke-opacity="1" d="M 155.326,146.24L 190.173,126.759L 190.173,145.147L 155.326,165.527L 155.326,146.24 Z "/>
		<path fill="#FFFFFF" fill-opacity="1" stroke-linecap="square" stroke-linejoin="bevel" stroke="#000000" stroke-opacity="1" d="M 124.466,145.147L 155.069,145.147L 155.085,165.576L 131.072,165.672L 126.925,164.515L 124.514,161.043L 124.466,145.147 Z "/>
		<linearGradient id="SVGID_Fill18_" gradientUnits="objectBoundingBox" x1="-0.0487918" y1="0.5" x2="1.04879" y2="0.5">
			<stop offset="0.00925926" stop-color="#C0C0C0" stop-opacity="1"/>
			<stop offset="0.197949" stop-color="#8B8B8B" stop-opacity="0.501961"/>
			<stop offset="0.421296" stop-color="#575757" stop-opacity="0"/>
			<stop offset="0.611111" stop-color="#626262" stop-opacity="0"/>
			<stop offset="1" stop-color="#C0C0C0" stop-opacity="0.4"/>
		</linearGradient>
		<filter id="Filter_GaussianBlur9_" filterUnits="userSpaceOnUse">
			<feGaussianBlur stdDeviation="1.88976"/>
		</filter>
		<path fill="url(#SVGID_Fill18_)" stroke-width="0.2" stroke-linecap="square" stroke-linejoin="bevel" filter="url(#Filter_GaussianBlur9_)" d="M 150.841,135.918C 163.571,129.848 176.247,129.867 179.152,135.961C 182.058,142.055 174.094,151.915 161.364,157.985C 148.633,164.055 135.958,164.036 133.053,157.942C 130.147,151.848 138.111,141.988 150.841,135.918 Z "/>
		<path fill="#80AF64" fill-opacity="1" stroke-linejoin="miter" stroke="#000000" stroke-opacity="1" d="M 122.119,140.164L 156.677,140.051L 156.677,144.97L 122.183,145.05L 122.119,140.164 Z "/>
		<linearGradient id="SVGID_Fill19_" gradientUnits="objectBoundingBox" x1="1.05587" y1="0.500003" x2="2.1676" y2="0.500003" gradientTransform="rotate(180.000000 1.055866 0.500003)">
			<stop offset="0" stop-color="#8FC072" stop-opacity="1"/>
			<stop offset="0.662037" stop-color="#87B76B" stop-opacity="1"/>
			<stop offset="1" stop-color="#80AF64" stop-opacity="1"/>
		</linearGradient>
		<path fill="url(#SVGID_Fill19_)" stroke-linejoin="miter" stroke="#000000" stroke-opacity="1" d="M 121.862,140.228L 159.749,119.888L 190.913,119.703L 155.337,140.244L 121.862,140.228 Z "/>
		<linearGradient id="SVGID_Fill20_" gradientUnits="objectBoundingBox" x1="0.997261" y1="0.655406" x2="2.03922" y2="0.655406" gradientTransform="rotate(182.024429 0.997261 0.655406)">
			<stop offset="0" stop-color="#316013" stop-opacity="1"/>
			<stop offset="0.662037" stop-color="#447327" stop-opacity="1"/>
			<stop offset="1" stop-color="#58873B" stop-opacity="1"/>
		</linearGradient>
		<path fill="url(#SVGID_Fill20_)" stroke-width="0.2" stroke-linecap="square" stroke-linejoin="bevel" d="M 140.057,135.985L 154.362,135.953L 176.093,123.866L 161.177,123.994L 140.057,135.985 Z "/>
		<path fill="#80AF64" fill-opacity="1" stroke-linecap="square" stroke-linejoin="bevel" stroke="#000000" stroke-opacity="1" d="M 157.095,139.714L 191.957,119.124L 191.957,125.103L 157.095,144.986L 157.095,139.714 Z "/>
		<linearGradient id="SVGID_Fill21_" gradientUnits="objectBoundingBox" x1="-0.0487918" y1="0.500002" x2="1.04879" y2="0.500002">
			<stop offset="0" stop-color="#C0C0C0" stop-opacity="0"/>
			<stop offset="0.19505" stop-color="#989898" stop-opacity="0"/>
			<stop offset="0.425926" stop-color="#707070" stop-opacity="0"/>
			<stop offset="0.787037" stop-color="#6C6C6C" stop-opacity="0"/>
			<stop offset="0.986111" stop-color="#B9B9B9" stop-opacity="0.6"/>
		</linearGradient>
		<filter id="Filter_GaussianBlur10_" filterUnits="userSpaceOnUse">
			<feGaussianBlur stdDeviation="1.88976"/>
		</filter>
		<path fill="url(#SVGID_Fill21_)" stroke-width="0.2" stroke-linecap="square" stroke-linejoin="bevel" filter="url(#Filter_GaussianBlur10_)" d="M 159.388,132.055C 172.118,125.986 184.793,126.005 187.699,132.099C 190.604,138.192 182.64,148.053 169.91,154.123C 157.18,160.193 144.505,160.174 141.599,154.08C 138.693,147.986 146.658,138.125 159.388,132.055 Z "/>
		<path fill="#80AF64" fill-opacity="1" stroke-linejoin="bevel" stroke="#000000" stroke-opacity="1" d="M 132.004,144.97L 149.942,145.066L 143.577,152.01L 126.7,152.01L 132.004,144.97 Z "/>
	</g>
	<g>
		<path fill="#FFFFFF" fill-opacity="1" stroke-linecap="square" stroke-linejoin="bevel" stroke="#000000" stroke-opacity="1" d="M 195.918,146.717L 230.765,127.237L 230.765,145.624L 195.918,166.005L 195.918,146.717 Z "/>
		<path fill="#FFFFFF" fill-opacity="1" stroke-linecap="square" stroke-linejoin="bevel" stroke="#000000" stroke-opacity="1" d="M 165.057,145.624L 195.661,145.624L 195.677,166.053L 171.663,166.15L 167.516,164.992L 165.105,161.521L 165.057,145.624 Z "/>
		<linearGradient id="SVGID_Fill22_" gradientUnits="objectBoundingBox" x1="-0.0487922" y1="0.5" x2="1.04879" y2="0.5">
			<stop offset="0.00925926" stop-color="#C0C0C0" stop-opacity="1"/>
			<stop offset="0.197949" stop-color="#8B8B8B" stop-opacity="0.501961"/>
			<stop offset="0.421296" stop-color="#575757" stop-opacity="0"/>
			<stop offset="0.611111" stop-color="#626262" stop-opacity="0"/>
			<stop offset="1" stop-color="#C0C0C0" stop-opacity="0.4"/>
		</linearGradient>
		<filter id="Filter_GaussianBlur11_" filterUnits="userSpaceOnUse">
			<feGaussianBlur stdDeviation="1.88976"/>
		</filter>
		<path fill="url(#SVGID_Fill22_)" stroke-width="0.2" stroke-linecap="square" stroke-linejoin="bevel" filter="url(#Filter_GaussianBlur11_)" d="M 191.433,136.395C 204.163,130.326 216.838,130.345 219.744,136.439C 222.65,142.533 214.685,152.393 201.955,158.463C 189.225,164.533 176.55,164.514 173.644,158.42C 170.738,152.326 178.703,142.465 191.433,136.395 Z "/>
		<path fill="#80AF64" fill-opacity="1" stroke-linejoin="miter" stroke="#000000" stroke-opacity="1" d="M 162.711,140.642L 197.268,140.529L 197.268,145.448L 162.775,145.528L 162.711,140.642 Z "/>
		<linearGradient id="SVGID_Fill23_" gradientUnits="objectBoundingBox" x1="1.05587" y1="0.500003" x2="2.1676" y2="0.500003" gradientTransform="rotate(180.000000 1.055866 0.500003)">
			<stop offset="0" stop-color="#8FC072" stop-opacity="1"/>
			<stop offset="0.662037" stop-color="#87B76B" stop-opacity="1"/>
			<stop offset="1" stop-color="#80AF64" stop-opacity="1"/>
		</linearGradient>
		<path fill="url(#SVGID_Fill23_)" stroke-linejoin="miter" stroke="#000000" stroke-opacity="1" d="M 162.453,140.706L 200.341,120.366L 231.504,120.181L 195.929,140.722L 162.453,140.706 Z "/>
		<linearGradient id="SVGID_Fill24_" gradientUnits="objectBoundingBox" x1="0.997261" y1="0.655412" x2="2.03922" y2="0.655412" gradientTransform="rotate(182.024445 0.997261 0.655412)">
			<stop offset="0" stop-color="#316013" stop-opacity="1"/>
			<stop offset="0.662037" stop-color="#447327" stop-opacity="1"/>
			<stop offset="1" stop-color="#58873B" stop-opacity="1"/>
		</linearGradient>
		<path fill="url(#SVGID_Fill24_)" stroke-width="0.2" stroke-linecap="square" stroke-linejoin="bevel" d="M 180.648,136.463L 194.953,136.43L 216.684,124.343L 201.768,124.472L 180.648,136.463 Z "/>
		<path fill="#80AF64" fill-opacity="1" stroke-linecap="square" stroke-linejoin="bevel" stroke="#000000" stroke-opacity="1" d="M 197.686,140.192L 232.549,119.602L 232.549,125.581L 197.686,145.464L 197.686,140.192 Z "/>
		<linearGradient id="SVGID_Fill25_" gradientUnits="objectBoundingBox" x1="-0.0487922" y1="0.500002" x2="1.04879" y2="0.500002">
			<stop offset="0" stop-color="#C0C0C0" stop-opacity="0"/>
			<stop offset="0.19505" stop-color="#989898" stop-opacity="0"/>
			<stop offset="0.425926" stop-color="#707070" stop-opacity="0"/>
			<stop offset="0.787037" stop-color="#6C6C6C" stop-opacity="0"/>
			<stop offset="0.986111" stop-color="#B9B9B9" stop-opacity="0.6"/>
		</linearGradient>
		<filter id="Filter_GaussianBlur12_" filterUnits="userSpaceOnUse">
			<feGaussianBlur stdDeviation="1.88976"/>
		</filter>
		<path fill="url(#SVGID_Fill25_)" stroke-width="0.2" stroke-linecap="square" stroke-linejoin="bevel" filter="url(#Filter_GaussianBlur12_)" d="M 199.979,132.533C 212.709,126.463 225.385,126.483 228.29,132.576C 231.196,138.67 223.232,148.531 210.501,154.601C 197.771,160.671 185.096,160.651 182.19,154.558C 179.285,148.464 187.249,138.603 199.979,132.533 Z "/>
		<path fill="#80AF64" fill-opacity="1" stroke-linejoin="bevel" stroke="#000000" stroke-opacity="1" d="M 172.596,145.448L 190.533,145.544L 184.168,152.488L 167.291,152.488L 172.596,145.448 Z "/>
	</g>
	<g>
		<path fill="#FFFFFF" fill-opacity="1" stroke-linecap="square" stroke-linejoin="bevel" stroke="#000000" stroke-opacity="1" d="M 155.326,183.738L 190.173,164.257L 190.173,182.645L 155.326,203.026L 155.326,183.738 Z "/>
		<path fill="#FFFFFF" fill-opacity="1" stroke-linecap="square" stroke-linejoin="bevel" stroke="#000000" stroke-opacity="1" d="M 124.466,182.645L 155.069,182.645L 155.085,203.074L 131.072,203.17L 126.925,202.013L 124.514,198.541L 124.466,182.645 Z "/>
		<linearGradient id="SVGID_Fill26_" gradientUnits="objectBoundingBox" x1="-0.0487918" y1="0.5" x2="1.04879" y2="0.5">
			<stop offset="0.00925926" stop-color="#C0C0C0" stop-opacity="1"/>
			<stop offset="0.197949" stop-color="#8B8B8B" stop-opacity="0.501961"/>
			<stop offset="0.421296" stop-color="#575757" stop-opacity="0"/>
			<stop offset="0.611111" stop-color="#626262" stop-opacity="0"/>
			<stop offset="1" stop-color="#C0C0C0" stop-opacity="0.4"/>
		</linearGradient>
		<filter id="Filter_GaussianBlur13_" filterUnits="userSpaceOnUse">
			<feGaussianBlur stdDeviation="1.88976"/>
		</filter>
		<path fill="url(#SVGID_Fill26_)" stroke-width="0.2" stroke-linecap="square" stroke-linejoin="bevel" filter="url(#Filter_GaussianBlur13_)" d="M 150.841,173.416C 163.571,167.346 176.247,167.365 179.152,173.459C 182.058,179.553 174.094,189.414 161.364,195.483C 148.633,201.553 135.958,201.534 133.053,195.44C 130.147,189.346 138.111,179.486 150.841,173.416 Z "/>
		<path fill="#80AF64" fill-opacity="1" stroke-linejoin="miter" stroke="#000000" stroke-opacity="1" d="M 122.119,177.662L 156.677,177.549L 156.677,182.468L 122.183,182.548L 122.119,177.662 Z "/>
		<linearGradient id="SVGID_Fill27_" gradientUnits="objectBoundingBox" x1="1.05587" y1="0.5" x2="2.1676" y2="0.5" gradientTransform="rotate(180.000000 1.055866 0.500000)">
			<stop offset="0" stop-color="#8FC072" stop-opacity="1"/>
			<stop offset="0.662037" stop-color="#87B76B" stop-opacity="1"/>
			<stop offset="1" stop-color="#80AF64" stop-opacity="1"/>
		</linearGradient>
		<path fill="url(#SVGID_Fill27_)" stroke-linejoin="miter" stroke="#000000" stroke-opacity="1" d="M 121.862,177.726L 159.749,157.386L 190.913,157.201L 155.337,177.742L 121.862,177.726 Z "/>
		<linearGradient id="SVGID_Fill28_" gradientUnits="objectBoundingBox" x1="0.997261" y1="0.655412" x2="2.03922" y2="0.655412" gradientTransform="rotate(182.024429 0.997261 0.655412)">
			<stop offset="0" stop-color="#316013" stop-opacity="1"/>
			<stop offset="0.662037" stop-color="#447327" stop-opacity="1"/>
			<stop offset="1" stop-color="#58873B" stop-opacity="1"/>
		</linearGradient>
		<path fill="url(#SVGID_Fill28_)" stroke-width="0.2" stroke-linecap="square" stroke-linejoin="bevel" d="M 140.057,173.483L 154.362,173.451L 176.093,161.364L 161.177,161.492L 140.057,173.483 Z "/>
		<path fill="#80AF64" fill-opacity="1" stroke-linecap="square" stroke-linejoin="bevel" stroke="#000000" stroke-opacity="1" d="M 157.095,177.212L 191.957,156.622L 191.957,162.602L 157.095,182.484L 157.095,177.212 Z "/>
		<linearGradient id="SVGID_Fill29_" gradientUnits="objectBoundingBox" x1="-0.0487918" y1="0.5" x2="1.04879" y2="0.5">
			<stop offset="0" stop-color="#C0C0C0" stop-opacity="0"/>
			<stop offset="0.19505" stop-color="#989898" stop-opacity="0"/>
			<stop offset="0.425926" stop-color="#707070" stop-opacity="0"/>
			<stop offset="0.787037" stop-color="#6C6C6C" stop-opacity="0"/>
			<stop offset="0.986111" stop-color="#B9B9B9" stop-opacity="0.6"/>
		</linearGradient>
		<filter id="Filter_GaussianBlur14_" filterUnits="userSpaceOnUse">
			<feGaussianBlur stdDeviation="1.88976"/>
		</filter>
		<path fill="url(#SVGID_Fill29_)" stroke-width="0.2" stroke-linecap="square" stroke-linejoin="bevel" filter="url(#Filter_GaussianBlur14_)" d="M 159.388,169.554C 172.118,163.484 184.793,163.503 187.699,169.597C 190.604,175.691 182.64,185.551 169.91,191.621C 157.18,197.691 144.505,197.672 141.599,191.578C 138.693,185.484 146.658,175.623 159.388,169.554 Z "/>
		<path fill="#80AF64" fill-opacity="1" stroke-linejoin="bevel" stroke="#000000" stroke-opacity="1" d="M 132.004,182.468L 149.942,182.565L 143.577,189.508L 126.7,189.508L 132.004,182.468 Z "/>
	</g>
	<g>
		<path fill="#FFFFFF" fill-opacity="1" stroke-linecap="square" stroke-linejoin="bevel" stroke="#000000" stroke-opacity="1" d="M 195.918,184.215L 230.765,164.735L 230.765,183.122L 195.918,203.503L 195.918,184.215 Z "/>
		<path fill="#FFFFFF" fill-opacity="1" stroke-linecap="square" stroke-linejoin="bevel" stroke="#000000" stroke-opacity="1" d="M 165.057,183.122L 195.661,183.122L 195.677,203.552L 171.663,203.648L 167.516,202.491L 165.106,199.019L 165.057,183.122 Z "/>
		<linearGradient id="SVGID_Fill30_" gradientUnits="objectBoundingBox" x1="-0.0487922" y1="0.5" x2="1.04879" y2="0.5">
			<stop offset="0.00925926" stop-color="#C0C0C0" stop-opacity="1"/>
			<stop offset="0.197949" stop-color="#8B8B8B" stop-opacity="0.501961"/>
			<stop offset="0.421296" stop-color="#575757" stop-opacity="0"/>
			<stop offset="0.611111" stop-color="#626262" stop-opacity="0"/>
			<stop offset="1" stop-color="#C0C0C0" stop-opacity="0.4"/>
		</linearGradient>
		<filter id="Filter_GaussianBlur15_" filterUnits="userSpaceOnUse">
			<feGaussianBlur stdDeviation="1.88976"/>
		</filter>
		<path fill="url(#SVGID_Fill30_)" stroke-width="0.2" stroke-linecap="square" stroke-linejoin="bevel" filter="url(#Filter_GaussianBlur15_)" d="M 191.433,173.894C 204.163,167.824 216.838,167.843 219.744,173.937C 222.65,180.031 214.685,189.891 201.955,195.961C 189.225,202.031 176.55,202.012 173.644,195.918C 170.738,189.824 178.703,179.963 191.433,173.894 Z "/>
		<path fill="#80AF64" fill-opacity="1" stroke-linejoin="miter" stroke="#000000" stroke-opacity="1" d="M 162.711,178.14L 197.268,178.027L 197.268,182.946L 162.775,183.026L 162.711,178.14 Z "/>
		<linearGradient id="SVGID_Fill31_" gradientUnits="objectBoundingBox" x1="1.05587" y1="0.5" x2="2.1676" y2="0.5" gradientTransform="rotate(180.000000 1.055866 0.500000)">
			<stop offset="0" stop-color="#8FC072" stop-opacity="1"/>
			<stop offset="0.662037" stop-color="#87B76B" stop-opacity="1"/>
			<stop offset="1" stop-color="#80AF64" stop-opacity="1"/>
		</linearGradient>
		<path fill="url(#SVGID_Fill31_)" stroke-linejoin="miter" stroke="#000000" stroke-opacity="1" d="M 162.453,178.204L 200.341,157.864L 231.504,157.679L 195.929,178.22L 162.453,178.204 Z "/>
		<linearGradient id="SVGID_Fill32_" gradientUnits="objectBoundingBox" x1="0.997261" y1="0.655406" x2="2.03922" y2="0.655406" gradientTransform="rotate(182.024414 0.997261 0.655406)">
			<stop offset="0" stop-color="#316013" stop-opacity="1"/>
			<stop offset="0.662037" stop-color="#447327" stop-opacity="1"/>
			<stop offset="1" stop-color="#58873B" stop-opacity="1"/>
		</linearGradient>
		<path fill="url(#SVGID_Fill32_)" stroke-width="0.2" stroke-linecap="square" stroke-linejoin="bevel" d="M 180.648,173.961L 194.953,173.929L 216.684,161.841L 201.769,161.97L 180.648,173.961 Z "/>
		<path fill="#80AF64" fill-opacity="1" stroke-linecap="square" stroke-linejoin="bevel" stroke="#000000" stroke-opacity="1" d="M 197.686,177.69L 232.549,157.1L 232.549,163.079L 197.686,182.962L 197.686,177.69 Z "/>
		<linearGradient id="SVGID_Fill33_" gradientUnits="objectBoundingBox" x1="-0.0487922" y1="0.500002" x2="1.04879" y2="0.500002">
			<stop offset="0" stop-color="#C0C0C0" stop-opacity="0"/>
			<stop offset="0.19505" stop-color="#989898" stop-opacity="0"/>
			<stop offset="0.425926" stop-color="#707070" stop-opacity="0"/>
			<stop offset="0.787037" stop-color="#6C6C6C" stop-opacity="0"/>
			<stop offset="0.986111" stop-color="#B9B9B9" stop-opacity="0.6"/>
		</linearGradient>
		<filter id="Filter_GaussianBlur16_" filterUnits="userSpaceOnUse">
			<feGaussianBlur stdDeviation="1.88976"/>
		</filter>
		<path fill="url(#SVGID_Fill33_)" stroke-width="0.2" stroke-linecap="square" stroke-linejoin="bevel" filter="url(#Filter_GaussianBlur16_)" d="M 199.979,170.031C 212.709,163.961 225.385,163.981 228.29,170.075C 231.196,176.168 223.232,186.029 210.501,192.099C 197.771,198.169 185.096,198.15 182.19,192.056C 179.285,185.962 187.249,176.101 199.979,170.031 Z "/>
		<path fill="#80AF64" fill-opacity="1" stroke-linejoin="bevel" stroke="#000000" stroke-opacity="1" d="M 172.596,182.946L 190.533,183.042L 184.168,189.986L 167.292,189.986L 172.596,182.946 Z "/>
	</g>
	<g>
		<path fill="#000000" fill-opacity="1" stroke-width="2" stroke-linejoin="round" stroke="#FFFFFF" stroke-opacity="1" d="M 58.5091,145.083L 16.2691,145.083L 16.2691,133.563L 30.6691,133.563L 30.6691,91.3233L 16.2691,94.2034L 16.2691,82.6834L 45.0691,76.9234L 45.0691,133.563L 58.5091,133.563L 58.5091,145.083 Z "/>
		<path fill="#000000" fill-opacity="1" stroke-width="2" stroke-linejoin="round" stroke="#FFFFFF" stroke-opacity="1" d="M 91.7191,146.043C 75.3391,146.043 67.1491,134.873 67.1491,112.533C 67.1491,100.943 69.3641,92.1109 73.7941,86.0358C 78.2241,79.9609 84.6491,76.9234 93.0691,76.9234C 109.069,76.9234 117.069,88.2784 117.069,110.988C 117.069,122.298 114.884,130.968 110.514,136.998C 106.144,143.028 99.8791,146.043 91.7191,146.043 Z M 92.4241,88.4434C 85.8141,88.4434 82.5091,96.3533 82.5091,112.173C 82.5091,127.073 85.7491,134.523 92.2291,134.523C 98.5491,134.523 101.709,126.843 101.709,111.483C 101.709,96.1234 98.6141,88.4434 92.4241,88.4434 Z "/>
		<path fill="#000000" fill-opacity="1" stroke-width="2" stroke-linejoin="round" stroke="#FFFFFF" stroke-opacity="1" d="M 175.629,121.083L 131.469,141.243L 131.469,130.023L 163.149,117.393L 163.149,117.198L 131.469,103.593L 131.469,92.2834L 175.629,113.403L 175.629,121.083 Z "/>
	</g>
</svg>
