<?xml version="1.0" encoding="utf-8"?>
<!DOCTYPE svg PUBLIC "-//W3C//DTD SVG 1.1//EN" "http://www.w3.org/Graphics/SVG/1.1/DTD/svg11.dtd">
<svg xmlns="http://www.w3.org/2000/svg" xmlns:xlink="http://www.w3.org/1999/xlink" version="1.1" baseProfile="full" width="87.9999" height="76" viewBox="0 0 88.00 76.00" enable-background="new 0 0 88.00 76.00" xml:space="preserve">
	<rect x="-3.91006e-005" y="-1.28746e-005" fill="none" stroke-width="0.2" stroke-linejoin="round" stroke="#000000" stroke-opacity="1" width="88" height="76"/>
	<g>
		<path fill="#FF451A" fill-opacity="1" stroke-width="0.2" stroke-linejoin="round" d="M 75.1966,74.0833L 85.3333,63.093L 85.3333,36.0833C 85.3333,33.8742 83.5424,32.0833 81.3333,32.0833L 70.3333,32.0833C 68.1242,32.0833 66.3333,33.8742 66.3333,36.0833L 66.3333,70.0833C 66.3333,72.2924 68.1242,74.0833 70.3333,74.0833L 75.1966,74.0833 Z "/>
		<path fill="#646464" fill-opacity="1" stroke-width="0.2" stroke-linejoin="round" d="M 73.4583,34.9166L 77.4583,34.9166C 78.5629,34.9166 79.4583,35.8121 79.4583,36.9166L 79.4583,40.9166C 79.4583,42.0212 78.5629,42.9166 77.4583,42.9166L 73.4583,42.9166C 72.3537,42.9166 71.4583,42.0212 71.4583,40.9166L 71.4583,36.9166C 71.4583,35.8121 72.3537,34.9166 73.4583,34.9166 Z "/>
		<path fill="#646464" fill-opacity="1" stroke-width="0.2" stroke-linejoin="round" d="M 73.5208,47.3542L 77.5208,47.3542C 78.6254,47.3542 79.5208,48.2496 79.5208,49.3542L 79.5208,53.3541C 79.5208,54.4587 78.6254,55.3541 77.5208,55.3541L 73.5208,55.3541C 72.4162,55.3541 71.5208,54.4587 71.5208,53.3541L 71.5208,49.3542C 71.5208,48.2496 72.4162,47.3542 73.5208,47.3542 Z "/>
		<path fill="#646464" fill-opacity="1" stroke-width="0.2" stroke-linejoin="round" d="M 73.2708,59.7292L 77.2708,59.7292C 78.3754,59.7292 79.2708,60.6246 79.2708,61.7292L 79.2708,65.7291C 79.2708,66.8337 78.3754,67.7291 77.2708,67.7291L 73.2708,67.7291C 72.1662,67.7291 71.2708,66.8337 71.2708,65.7291L 71.2708,61.7292C 71.2708,60.6246 72.1662,59.7292 73.2708,59.7292 Z "/>
	</g>
</svg>
