<?xml version="1.0" encoding="utf-8"?>
<!DOCTYPE svg PUBLIC "-//W3C//DTD SVG 1.1//EN" "http://www.w3.org/Graphics/SVG/1.1/DTD/svg11.dtd">
<svg xmlns="http://www.w3.org/2000/svg" xmlns:xlink="http://www.w3.org/1999/xlink" version="1.1" baseProfile="full" width="379.33" height="378.718" viewBox="0 0 379.33 378.72" enable-background="new 0 0 379.33 378.72" xml:space="preserve">
	<radialGradient id="SVGID_Fill1_" cx="189.106" cy="189.666" r="181.5" gradientUnits="userSpaceOnUse">
		<stop offset="0.337838" stop-color="#FFFFFF" stop-opacity="1"/>
		<stop offset="1" stop-color="#87A876" stop-opacity="1"/>
	</radialGradient>
	<path fill="url(#SVGID_Fill1_)" fill-rule="evenodd" stroke-width="2" stroke-linejoin="round" stroke="#161F11" stroke-opacity="1" d="M 189.106,9.16631C 288.517,9.16631 369.106,89.9789 369.106,189.666C 369.106,289.354 288.517,370.166 189.106,370.166C 89.6947,370.166 9.10596,289.354 9.10596,189.666C 9.10596,89.9789 89.6946,9.16631 189.106,9.16631 Z M 189.356,64.5383C 120.32,64.5383 64.3559,120.503 64.3559,189.538C 64.3559,258.574 120.32,314.538 189.356,314.538C 258.391,314.538 314.356,258.574 314.356,189.538C 314.356,120.503 258.392,64.5383 189.356,64.5383 Z "/>
	<g>
		<line fill="none" stroke-width="2" stroke-linejoin="round" stroke="#000000" stroke-opacity="1" x1="298.302" y1="251.566" x2="319.26" y2="263.666"/>
		<line fill="none" stroke-width="2" stroke-linejoin="round" stroke="#000000" stroke-opacity="1" x1="252.312" y1="297.71" x2="264.356" y2="318.57"/>
		<line fill="none" stroke-width="4" stroke-linejoin="round" stroke="#000000" stroke-opacity="1" x1="189.356" y1="314.788" x2="189.356" y2="338.666"/>
		<line fill="none" stroke-width="4" stroke-linejoin="round" stroke="#000000" stroke-opacity="1" x1="314.438" y1="188.666" x2="339.356" y2="188.666"/>
		<line fill="none" stroke-width="2" stroke-linejoin="round" stroke="#000000" stroke-opacity="1" x1="297.673" y1="126.13" x2="319.26" y2="113.667"/>
		<line fill="none" stroke-width="2" stroke-linejoin="round" stroke="#000000" stroke-opacity="1" x1="251.556" y1="80.9338" x2="264.357" y2="58.7625"/>
		<line fill="none" stroke-width="4" stroke-linejoin="round" stroke="#000000" stroke-opacity="1" x1="189.356" y1="64.2773" x2="189.356" y2="38.6663"/>
		<line fill="none" stroke-width="2" stroke-linejoin="round" stroke="#000000" stroke-opacity="1" x1="127.061" y1="80.7669" x2="114.357" y2="58.7624"/>
		<line fill="none" stroke-width="2" stroke-linejoin="round" stroke="#000000" stroke-opacity="1" x1="81.4645" y1="126.375" x2="53.6181" y2="110.298"/>
		<line fill="none" stroke-width="4" stroke-linejoin="round" stroke="#000000" stroke-opacity="1" x1="64.1671" y1="188.666" x2="39.3561" y2="188.666"/>
		<line fill="none" stroke-width="2" stroke-linejoin="round" stroke="#000000" stroke-opacity="1" x1="80.9419" y1="251.259" x2="59.4522" y2="263.666"/>
		<line fill="none" stroke-width="2" stroke-linejoin="round" stroke="#000000" stroke-opacity="1" x1="126.5" y1="297.679" x2="114.418" y2="318.606"/>
	</g>
	<g>
		<linearGradient id="SVGID_Fill2_" gradientUnits="objectBoundingBox" x1="0.502833" y1="0.54777" x2="1.06501" y2="0.54777" gradientTransform="rotate(-89.972023 0.502833 0.547770)">
			<stop offset="0" stop-color="#4A5B41" stop-opacity="1"/>
			<stop offset="1" stop-color="#000000" stop-opacity="1"/>
		</linearGradient>
		<path fill="url(#SVGID_Fill2_)" stroke-width="2" stroke-linejoin="round" stroke="#E3FCD1" stroke-opacity="1" d="M 210.889,345.268L 196.209,345.864C 195.965,343.609 195.417,341.887 194.564,340.697C 193.175,338.762 191.159,337.77 188.513,337.721C 186.541,337.685 185.013,338.155 183.929,339.132C 182.845,340.109 182.291,341.253 182.267,342.566C 182.244,343.809 182.696,344.932 183.622,345.935C 184.555,346.938 186.979,347.914 190.893,348.86C 197.302,350.444 201.856,352.461 204.555,354.914C 207.281,357.367 208.61,360.451 208.542,364.166C 208.497,366.617 207.743,368.916 206.279,371.063C 204.816,373.21 202.645,374.879 199.765,376.069C 196.885,377.26 192.956,377.809 187.977,377.718C 181.874,377.606 177.241,376.37 174.079,374.009C 170.917,371.649 169.077,367.95 168.558,362.911L 183.239,362.295C 183.515,364.627 184.152,366.332 185.15,367.409C 186.148,368.487 187.543,369.042 189.334,369.075C 190.806,369.102 191.922,368.756 192.682,368.037C 193.442,367.318 193.831,366.435 193.85,365.386C 193.864,364.622 193.703,363.928 193.368,363.304C 193.046,362.666 191.592,362.049 189.005,361.453C 182.615,359.94 178.044,358.444 175.293,356.966C 172.542,355.488 170.554,353.681 169.329,351.543C 168.104,349.406 167.516,347.029 167.564,344.411C 167.62,341.342 168.519,338.526 170.261,335.964C 172.003,333.402 174.407,331.479 177.472,330.194C 180.538,328.91 184.383,328.311 189.007,328.395C 197.131,328.544 202.728,330.198 205.799,333.355C 208.87,336.513 210.567,340.484 210.889,345.268 Z "/>
	</g>
	<g>
		<linearGradient id="SVGID_Fill3_" gradientUnits="objectBoundingBox" x1="-0.0196457" y1="0.499627" x2="0.541833" y2="0.499626">
			<stop offset="0" stop-color="#4A5B41" stop-opacity="1"/>
			<stop offset="1" stop-color="#000000" stop-opacity="1"/>
		</linearGradient>
		<path fill="url(#SVGID_Fill3_)" stroke-width="2" stroke-linejoin="round" stroke="#E3FCD1" stroke-opacity="1" d="M 378.33,167.722L 378.114,207.054L 366.781,206.992L 366.917,182.326L 360.25,182.289L 360.125,204.956L 350.126,204.901L 350.25,182.234L 341.584,182.187L 341.444,207.52L 330.111,207.457L 330.331,167.458L 378.33,167.722 Z "/>
	</g>
	<g>
		<path fill="#FF0000" fill-opacity="1" stroke-width="2" stroke-linejoin="round" stroke="#000000" stroke-opacity="1" d="M 166.773,0.999959L 180.679,0.999959L 198.773,27.9375L 198.773,0.999959L 212.773,0.999959L 212.773,49L 198.773,49L 180.773,22.2187L 180.773,49L 166.773,49L 166.773,0.999959 Z "/>
	</g>
	<g>
		<linearGradient id="SVGID_Fill4_" gradientUnits="objectBoundingBox" x1="1.01329" y1="0.511036" x2="1.56659" y2="0.511036" gradientTransform="rotate(180.988632 1.013287 0.511036)">
			<stop offset="0" stop-color="#4A5B41" stop-opacity="1"/>
			<stop offset="1" stop-color="#000000" stop-opacity="1"/>
		</linearGradient>
		<path fill="url(#SVGID_Fill4_)" stroke-width="2" stroke-linejoin="round" stroke="#E3FCD1" stroke-opacity="1" d="M 1,219.428L 1.25842,205.118L 26.3641,200.643L 1.47301,193.234L 1.74234,178.32L 26.9796,171.754L 1.95713,166.426L 2.21573,152.106L 50.0163,163.585L 49.7526,178.187L 19.3862,186.088L 49.4485,195.028L 49.1853,209.598L 1,219.428 Z "/>
	</g>
</svg>
