<?xml version="1.0" encoding="utf-8"?>
<!DOCTYPE svg PUBLIC "-//W3C//DTD SVG 1.1//EN" "http://www.w3.org/Graphics/SVG/1.1/DTD/svg11.dtd">
<svg xmlns="http://www.w3.org/2000/svg" xmlns:xlink="http://www.w3.org/1999/xlink" version="1.1" baseProfile="full" width="190" height="207.076" viewBox="0 0 190.00 207.08" enable-background="new 0 0 190.00 207.08" xml:space="preserve">
	<g>
		<linearGradient id="SVGID_Stroke1_" gradientUnits="objectBoundingBox" x1="0.517447" y1="0.503451" x2="1.45647" y2="0.503451" gradientTransform="rotate(91.878006 0.517447 0.503451)">
			<stop offset="0" stop-color="#000000" stop-opacity="1"/>
			<stop offset="1" stop-color="#F8F8F8" stop-opacity="1"/>
		</linearGradient>
		<ellipse fill="#939A95" fill-opacity="1" stroke-width="6" stroke-linejoin="round" stroke="url(#SVGID_Stroke1_)" cx="95.2915" cy="140.517" rx="88.125" ry="29.6249"/>
		<linearGradient id="SVGID_Stroke2_" gradientUnits="objectBoundingBox" x1="0.526166" y1="0.374913" x2="1.46529" y2="0.374913" gradientTransform="rotate(92.817139 0.526166 0.374913)">
			<stop offset="0" stop-color="#000000" stop-opacity="1"/>
			<stop offset="1" stop-color="#F8F8F8" stop-opacity="1"/>
		</linearGradient>
		<ellipse fill="#939A95" fill-opacity="1" stroke-width="6" stroke-linejoin="round" stroke="url(#SVGID_Stroke2_)" cx="94.6249" cy="89.1836" rx="88.1249" ry="29.6249"/>
		<linearGradient id="SVGID_Stroke3_" gradientUnits="objectBoundingBox" x1="0.37059" y1="0.226982" x2="1.31376" y2="0.226982" gradientTransform="rotate(75.877869 0.370590 0.226982)">
			<stop offset="0" stop-color="#000000" stop-opacity="1"/>
			<stop offset="1" stop-color="#F8F8F8" stop-opacity="1"/>
		</linearGradient>
		<path fill="#939A95" fill-opacity="1" stroke-width="6" stroke-linejoin="round" stroke="url(#SVGID_Stroke3_)" d="M 95.4165,6.60046C 144.086,6.60046 183.542,19.8639 183.542,36.2252C 183.542,52.5868 144.086,65.8502 95.4165,65.8502C 46.7463,65.8502 7.2915,52.5868 7.2915,36.2252C 7.2915,19.8639 46.7466,6.60046 95.4165,6.60046 Z "/>
		<linearGradient id="SVGID_Fill1_" gradientUnits="objectBoundingBox" x1="-0.0164748" y1="0.5004" x2="1.01693" y2="0.5004">
			<stop offset="0" stop-color="#6F6F6F" stop-opacity="1"/>
			<stop offset="0.18018" stop-color="#DFDFDF" stop-opacity="1"/>
			<stop offset="0.22973" stop-color="#F8F8F8" stop-opacity="1"/>
			<stop offset="0.963964" stop-color="#1A1A1A" stop-opacity="1"/>
		</linearGradient>
		<path fill="url(#SVGID_Fill1_)" stroke-width="6" stroke-linejoin="round" d="M 4.04834,36.7841C 3.95801,36.2389 3.95801,36.2946 3.94409,42.8085C 3.93018,49.3224 3.90259,62.2946 3.88867,68.7809C 3.87476,75.2668 3.87476,75.2668 5.30859,76.385C 6.74268,77.5029 9.61084,79.739 13.458,82.3466C 17.3052,84.9543 22.1318,87.9335 28.1006,90.4231C 34.0693,92.9126 41.1802,94.9126 48.6248,96.3016C 56.0693,97.6904 63.8469,98.4681 73.0691,98.9681C 82.2915,99.4681 92.958,99.6904 104.514,99.1904C 116.069,98.6904 128.514,97.4681 139.347,95.6903C 150.18,93.9126 159.402,91.5793 166.569,88.8016C 173.736,86.0238 178.847,82.8015 181.792,80.3015C 184.736,77.8015 185.514,76.0238 185.986,74.8954C 186.458,73.7668 186.625,73.2876 186.677,66.9647C 186.729,60.6417 186.667,48.4752 186.635,42.4542C 186.604,36.4335 186.604,36.5585 186.469,37.2877C 186.333,38.0167 186.062,39.3502 185.719,40.4752C 185.375,41.6002 184.958,42.5167 184.073,43.8292C 183.187,45.1417 181.833,46.8502 180.354,48.3292C 178.875,49.8085 177.271,51.0585 175.677,52.1315C 174.083,53.2042 172.5,54.1002 170.26,55.194C 168.021,56.2877 165.125,57.5792 162.489,58.621C 159.854,59.6627 157.479,60.4542 155.073,61.173C 152.667,61.8917 150.229,62.5377 146.948,63.2877C 143.667,64.0377 139.542,64.8917 135.823,65.5516C 132.104,66.2113 128.792,66.6764 124.33,67.1522C 119.868,67.6281 114.257,68.1139 108.333,68.3986C 102.409,68.6835 96.1733,68.7667 92.2429,68.7877C 88.3123,68.8085 86.6873,68.7667 84.5103,68.6661C 82.333,68.5656 79.604,68.4056 75.6143,68.0758C 71.6248,67.746 66.3748,67.246 60.7915,66.4542C 55.208,65.6627 49.2915,64.5792 43.9373,63.3085C 38.583,62.0377 33.7915,60.5792 29.979,59.2667C 26.1665,57.9542 23.333,56.7877 20.4165,55.2042C 17.4998,53.621 14.4998,51.621 12.1455,49.621C 9.7915,47.621 8.08301,45.621 6.9165,43.9542C 5.74976,42.2877 5.12476,40.9542 4.72217,39.7147C 4.31934,38.4752 4.13867,37.3292 4.04834,36.7841 Z "/>
		<linearGradient id="SVGID_Fill2_" gradientUnits="objectBoundingBox" x1="-0.0164745" y1="0.5004" x2="1.01693" y2="0.5004">
			<stop offset="0" stop-color="#6F6F6F" stop-opacity="1"/>
			<stop offset="0.18018" stop-color="#DFDFDF" stop-opacity="1"/>
			<stop offset="0.22973" stop-color="#F8F8F8" stop-opacity="1"/>
			<stop offset="0.963964" stop-color="#1A1A1A" stop-opacity="1"/>
		</linearGradient>
		<path fill="url(#SVGID_Fill2_)" stroke-width="6" stroke-linejoin="round" d="M 3.46362,87.8049C 3.37354,87.2598 3.37354,87.3154 3.35938,93.8293C 3.3457,100.343 3.31787,113.315 3.3042,119.802C 3.29004,126.288 3.29004,126.288 4.72412,127.406C 6.1582,128.524 9.02637,130.76 12.8735,133.367C 16.7207,135.975 21.5471,138.954 27.5159,141.444C 33.4846,143.933 40.5957,145.933 48.04,147.323C 55.4846,148.711 63.2622,149.489 72.4844,149.989C 81.7068,150.489 92.3735,150.711 103.929,150.211C 115.485,149.711 127.929,148.489 138.762,146.711C 149.596,144.933 158.818,142.6 165.984,139.823C 173.151,137.045 178.262,133.822 181.207,131.322C 184.151,128.822 184.929,127.045 185.401,125.916C 185.874,124.788 186.04,124.308 186.092,117.986C 186.144,111.663 186.082,99.496 186.051,93.4751C 186.019,87.4543 186.019,87.5793 185.884,88.3085C 185.749,89.0376 185.478,90.371 185.134,91.496C 184.79,92.621 184.374,93.5376 183.488,94.8501C 182.603,96.1626 181.249,97.871 179.769,99.3501C 178.29,100.829 176.686,102.079 175.092,103.152C 173.499,104.225 171.915,105.121 169.676,106.215C 167.436,107.308 164.54,108.6 161.905,109.642C 159.269,110.683 156.894,111.475 154.488,112.194C 152.082,112.913 149.644,113.558 146.363,114.308C 143.082,115.058 138.957,115.913 135.238,116.573C 131.519,117.232 128.207,117.697 123.745,118.173C 119.283,118.649 113.672,119.135 107.749,119.419C 101.825,119.704 95.5889,119.788 91.6582,119.808C 87.7275,119.829 86.1025,119.788 83.9255,119.687C 81.7485,119.586 79.0193,119.427 75.0298,119.097C 71.04,118.767 65.79,118.267 60.2068,117.475C 54.6235,116.683 48.7068,115.6 43.3525,114.329C 37.9985,113.058 33.2068,111.6 29.3943,110.288C 25.5818,108.975 22.7485,107.808 19.8318,106.225C 16.915,104.642 13.915,102.642 11.561,100.642C 9.20679,98.6418 7.49854,96.6418 6.33179,94.9751C 5.16504,93.3085 4.54004,91.9751 4.13745,90.7356C 3.73462,89.496 3.55396,88.3501 3.46362,87.8049 Z "/>
		<linearGradient id="SVGID_Fill3_" gradientUnits="objectBoundingBox" x1="-0.016475" y1="0.5004" x2="1.01693" y2="0.5004">
			<stop offset="0" stop-color="#6F6F6F" stop-opacity="1"/>
			<stop offset="0.18018" stop-color="#DFDFDF" stop-opacity="1"/>
			<stop offset="0.22973" stop-color="#F8F8F8" stop-opacity="1"/>
			<stop offset="0.963964" stop-color="#1A1A1A" stop-opacity="1"/>
		</linearGradient>
		<path fill="url(#SVGID_Fill3_)" stroke-width="6" stroke-linejoin="round" d="M 4.20117,140.805C 4.11108,140.26 4.11108,140.316 4.09717,146.829C 4.08325,153.343 4.05566,166.316 4.04199,172.802C 4.02783,179.288 4.02783,179.288 5.45874,180.406C 6.88965,181.524 9.75171,183.76 13.5908,186.368C 17.4297,188.975 22.2458,191.954 28.2017,194.444C 34.1577,196.934 41.2534,198.934 48.6821,200.323C 56.1108,201.711 63.8716,202.489 73.0742,202.989C 82.2769,203.489 92.9207,203.711 104.452,203.211C 115.982,202.711 128.4,201.489 139.21,199.711C 150.021,197.934 159.223,195.6 166.374,192.823C 173.525,190.045 178.626,186.823 181.564,184.323C 184.502,181.823 185.278,180.045 185.749,178.916C 186.22,177.788 186.387,177.309 186.439,170.986C 186.491,164.663 186.428,152.496 186.397,146.475C 186.366,140.454 186.366,140.579 186.231,141.309C 186.096,142.038 185.826,143.371 185.482,144.496C 185.139,145.621 184.724,146.538 183.84,147.85C 182.957,149.163 181.605,150.871 180.129,152.35C 178.653,153.829 177.052,155.079 175.462,156.152C 173.872,157.225 172.292,158.121 170.057,159.215C 167.822,160.309 164.933,161.6 162.303,162.642C 159.673,163.684 157.303,164.475 154.902,165.194C 152.501,165.913 150.069,166.559 146.795,167.309C 143.52,168.059 139.404,168.913 135.693,169.573C 131.983,170.232 128.677,170.698 124.225,171.173C 119.773,171.649 114.174,172.135 108.263,172.42C 102.352,172.704 96.1289,172.788 92.207,172.809C 88.2847,172.829 86.6631,172.788 84.4907,172.687C 82.3184,172.586 79.595,172.427 75.614,172.097C 71.6328,171.767 66.394,171.267 60.8228,170.475C 55.2515,169.684 49.3474,168.6 44.0046,167.329C 38.6621,166.059 33.8806,164.6 30.0762,163.288C 26.272,161.975 23.4446,160.809 20.5342,159.225C 17.6238,157.642 14.6301,155.642 12.281,153.642C 9.93188,151.642 8.22729,149.642 7.06299,147.975C 5.89893,146.309 5.27515,144.975 4.87354,143.736C 4.47144,142.496 4.29102,141.35 4.20117,140.805 Z "/>
	</g>
</svg>
