<?xml version="1.0" encoding="utf-8"?>
<!DOCTYPE svg PUBLIC "-//W3C//DTD SVG 1.1//EN" "http://www.w3.org/Graphics/SVG/1.1/DTD/svg11.dtd">
<svg xmlns="http://www.w3.org/2000/svg" xmlns:xlink="http://www.w3.org/1999/xlink" version="1.1" baseProfile="full" width="88" height="76" viewBox="0 0 88.00 76.00" enable-background="new 0 0 88.00 76.00" xml:space="preserve">
	<path fill="#932626" fill-opacity="1" stroke-linejoin="round" stroke="#000000" stroke-opacity="1" d="M 15.3763,-1.15789L 70.5013,-1.15789C 76.5764,-1.15789 81.5013,3.76697 81.5013,9.84212L 81.5013,65.0921C 81.5013,71.1672 76.5764,76.0921 70.5013,76.0921L 15.3763,76.0921C 9.30117,76.0921 4.3763,71.1672 4.3763,65.0921L 4.3763,9.84212C 4.3763,3.76697 9.30117,-1.15789 15.3763,-1.15789 Z "/>
	<linearGradient id="SVGID_Fill1_" gradientUnits="objectBoundingBox" x1="0.5" y1="-2.34737" x2="6.19475" y2="-2.34737" gradientTransform="rotate(90.000000 0.500000 -2.347375)">
		<stop offset="0.427907" stop-color="#EEEAEA" stop-opacity="1"/>
		<stop offset="0.576744" stop-color="#FFFFFF" stop-opacity="0"/>
	</linearGradient>
	<path fill="url(#SVGID_Fill1_)" stroke-width="0.2" stroke-linejoin="round" d="M 69.7809,-0.803713L 15.919,-0.803713C 10.43,-0.803713 5.90199,3.40751 5.25131,8.84532C 6.53702,11.3573 9.1088,13.0713 12.0717,13.0713L 73.9946,13.0713C 76.7332,13.0713 79.1377,11.607 80.5013,9.40174C 80.1035,3.69749 75.4558,-0.803713 69.7809,-0.803713 Z "/>
	<path fill="#757576" fill-opacity="1" stroke-linejoin="round" stroke="#757576" stroke-opacity="1" d="M 20.1087,10.0446L 63.8553,13.2934L 63.8553,18.6696L 20.1087,15.4208L 20.1087,10.0446 Z "/>
	<radialGradient id="SVGID_Fill2_" cx="44.4603" cy="64.0774" r="25.8326" gradientUnits="userSpaceOnUse">
		<stop offset="0" stop-color="#000000" stop-opacity="0.25098"/>
		<stop offset="1" stop-color="#111111" stop-opacity="0.117647"/>
	</radialGradient>
	<path fill="url(#SVGID_Fill2_)" stroke-width="0.2" stroke-linejoin="round" d="M 22.97,57.3813L 69.7116,66.6556L 65.9506,70.7735L 19.209,61.4992L 22.97,57.3813 Z "/>
	<path fill="#DEB73A" fill-opacity="1" stroke-linejoin="round" stroke="#DEB73A" stroke-opacity="1" d="M 20.6174,25.4685L 63.9964,30.0714L 63.8026,35.7306L 20.6174,30.8448L 20.6174,25.4685 Z "/>
	<path fill="#757576" fill-opacity="1" stroke-linejoin="round" stroke="#757576" stroke-opacity="1" d="M 20.9807,38.8384L 64.146,44.9173L 64.146,50.2935L 20.9807,44.2147L 20.9807,38.8384 Z "/>
	<path fill="#757576" fill-opacity="1" stroke-linejoin="round" stroke="#757576" stroke-opacity="1" d="M 21.4894,52.3498L 64.0733,59.6307L 64.0733,65.007L 21.4894,57.726L 21.4894,52.3498 Z "/>
	<path fill="#E7C456" fill-opacity="1" stroke-linejoin="round" stroke="#E7C456" stroke-opacity="1" d="M 63.8995,30.1657L 67.5814,28.3736L 67.5814,33.9385L 63.9907,35.6225L 63.8995,30.1657 Z "/>
	<path fill="#92929A" fill-opacity="1" stroke-linejoin="round" stroke="#92929A" stroke-opacity="1" d="M 64.3277,44.955L 67.9248,43.1157L 67.9248,48.3505L 64.3277,50.1897L 64.3277,44.955 Z "/>
	<path fill="#92929A" fill-opacity="1" stroke-linejoin="round" stroke="#92929A" stroke-opacity="1" d="M 64.037,59.6689L 67.3434,57.2644L 67.3434,62.4992L 64.037,64.9037L 64.037,59.6689 Z "/>
	<path fill="#C4A02E" fill-opacity="1" stroke-linejoin="round" stroke="#C4A02E" stroke-opacity="1" d="M 24.2658,23.9446L 67.4633,28.0145L 63.2696,30.1185L 20.4435,25.3082L 24.2658,23.9446 Z "/>
	<path fill="#92929A" fill-opacity="1" stroke-linejoin="round" stroke="#92929A" stroke-opacity="1" d="M 63.928,13.3717L 67.9248,12.804L 67.9248,18.0387L 63.928,18.6065L 63.928,13.3717 Z "/>
	<path fill="#5E5E60" fill-opacity="1" stroke-linejoin="round" stroke="#5E5E60" stroke-opacity="1" d="M 24.5198,9.34212L 67.5932,12.6524L 63.3541,13.2092L 20.2807,9.89892L 24.5198,9.34212 Z "/>
	<path fill="#5E5E60" fill-opacity="1" stroke-linejoin="round" stroke="#5E5E60" stroke-opacity="1" d="M 24.725,36.9456L 67.4185,42.9338L 63.8756,44.652L 21.1821,38.6638L 24.725,36.9456 Z "/>
	<path fill="#5E5E60" fill-opacity="1" stroke-linejoin="round" stroke="#5E5E60" stroke-opacity="1" d="M 24.9733,49.9196L 67.0609,57.085L 63.8127,59.606L 21.7251,52.4406L 24.9733,49.9196 Z "/>
</svg>
