<?xml version="1.0" encoding="utf-8"?>
<!DOCTYPE svg PUBLIC "-//W3C//DTD SVG 1.1//EN" "http://www.w3.org/Graphics/SVG/1.1/DTD/svg11.dtd">
<svg xmlns="http://www.w3.org/2000/svg" xmlns:xlink="http://www.w3.org/1999/xlink" version="1.1" baseProfile="full" width="88" height="76" viewBox="0 0 88.00 76.00" enable-background="new 0 0 88.00 76.00" xml:space="preserve">
	<path fill="#932626" fill-opacity="1" stroke-linejoin="round" stroke="#000000" stroke-opacity="1" d="M 13.4792,2.43748L 74.4792,2.43748C 80.5543,2.43748 85.4792,7.36235 85.4792,13.4375L 85.4792,63.1042C 85.4792,69.1793 80.5543,74.1042 74.4792,74.1042L 13.4792,74.1042C 7.40402,74.1042 2.47915,69.1793 2.47915,63.1042L 2.47915,13.4375C 2.47915,7.36235 7.40402,2.43748 13.4792,2.43748 Z "/>
	<linearGradient id="SVGID_Fill1_" gradientUnits="objectBoundingBox" x1="0.503869" y1="-0.274908" x2="2.05368" y2="-0.274908" gradientTransform="rotate(90.000000 0.503869 -0.274908)">
		<stop offset="0.316279" stop-color="#F0F1EC" stop-opacity="0.592157"/>
		<stop offset="0.800003" stop-color="#FFFFFF" stop-opacity="0"/>
	</linearGradient>
	<path fill="url(#SVGID_Fill1_)" stroke-width="0.2" stroke-linejoin="round" d="M 73.499,4.92154L 15.3879,4.92154C 12.3539,4.92154 8.57968,5.76869 5.81249,9.56689L 5.87837,9.56689C 5.94426,45.1657 24.0444,45.2867 44.4215,45.2867C 64.7985,45.2867 82.1081,44.9423 82.4375,9.48311L 82.4375,9.51103C 80.988,7.44437 79.0773,5.32185 73.499,4.92154 Z "/>
	<linearGradient id="SVGID_Fill2_" gradientUnits="objectBoundingBox" x1="0.940186" y1="0.437275" x2="2.52462" y2="0.437275" gradientTransform="rotate(170.546570 0.940186 0.437275)">
		<stop offset="0.274419" stop-color="#F0F1EC" stop-opacity="0.501961"/>
		<stop offset="0.562791" stop-color="#FFFFFF" stop-opacity="0"/>
	</linearGradient>
	<path fill="url(#SVGID_Fill2_)" stroke-width="0.2" stroke-linejoin="round" d="M 73.2684,4.87499L 56.2809,6.73686C 53.2469,6.73686 37.1301,4.94943 34.3629,8.74764L 26.281,20.6636C 30.6395,27.669 45.9588,18.5783 48.3307,16.8282C 71.9617,13.8119 81.8775,44.8958 82.2069,9.43656L 82.2069,9.46449C 80.7574,7.39782 78.8467,5.2753 73.2684,4.87499 Z "/>
	<path fill="none" stroke-width="6" stroke-linejoin="round" stroke="#FF451A" stroke-opacity="1" d="M 13.7291,5.271L 74.479,5.271C 78.8973,5.271 82.479,8.85271 82.479,13.271L 82.479,63.2709C 82.479,67.6891 78.8973,71.2708 74.479,71.2708L 13.7291,71.2708C 9.31085,71.2708 5.72913,67.6891 5.72913,63.2709L 5.72913,13.271C 5.72913,8.85271 9.31085,5.271 13.7291,5.271 Z "/>
	<path fill="#757576" fill-opacity="1" stroke-linejoin="round" stroke="#757576" stroke-opacity="1" d="M 21.9828,15.1185L 59.6078,17.9889L 59.6078,22.7389L 21.9828,19.8685L 21.9828,15.1185 Z "/>
	<radialGradient id="SVGID_Fill3_" cx="42.9268" cy="62.8574" r="22.2178" gradientUnits="userSpaceOnUse">
		<stop offset="0" stop-color="#000000" stop-opacity="0.207843"/>
		<stop offset="1" stop-color="#111111" stop-opacity="0.0980392"/>
	</radialGradient>
	<path fill="url(#SVGID_Fill3_)" stroke-width="0.2" stroke-linejoin="round" d="M 24.4437,56.9413L 64.6446,65.1352L 61.4098,68.7735L 21.209,60.5795L 24.4437,56.9413 Z "/>
	<path fill="#DEB73A" fill-opacity="1" stroke-linejoin="round" stroke="#DEB73A" stroke-opacity="1" d="M 22.4203,28.7458L 59.7292,32.8125L 59.5625,37.8125L 22.4203,33.4958L 22.4203,28.7458 Z "/>
	<path fill="#757576" fill-opacity="1" stroke-linejoin="round" stroke="#757576" stroke-opacity="1" d="M 22.7328,40.5583L 59.8578,45.9291L 59.8578,50.6791L 22.7328,45.3083L 22.7328,40.5583 Z "/>
	<path fill="#757576" fill-opacity="1" stroke-linejoin="round" stroke="#757576" stroke-opacity="1" d="M 23.1703,52.4958L 59.7953,58.9287L 59.7953,63.6787L 23.1703,57.2458L 23.1703,52.4958 Z "/>
	<path fill="#E7C456" fill-opacity="1" stroke-linejoin="round" stroke="#E7C456" stroke-opacity="1" d="M 59.6458,32.8958L 62.8125,31.3125L 62.8125,36.2292L 59.7243,37.717L 59.6458,32.8958 Z "/>
	<path fill="#92929A" fill-opacity="1" stroke-linejoin="round" stroke="#92929A" stroke-opacity="1" d="M 60.0141,45.9624L 63.1078,44.3374L 63.1078,48.9624L 60.0141,50.5874L 60.0141,45.9624 Z "/>
	<path fill="#92929A" fill-opacity="1" stroke-linejoin="round" stroke="#92929A" stroke-opacity="1" d="M 59.7641,58.9624L 62.6078,56.838L 62.6078,61.463L 59.7641,63.5874L 59.7641,58.9624 Z "/>
	<path fill="#C4A02E" fill-opacity="1" stroke-linejoin="round" stroke="#C4A02E" stroke-opacity="1" d="M 25.5583,27.3994L 62.711,30.9952L 59.1042,32.8542L 22.2708,28.6042L 25.5583,27.3994 Z "/>
	<path fill="#92929A" fill-opacity="1" stroke-linejoin="round" stroke="#92929A" stroke-opacity="1" d="M 59.6703,18.0581L 63.1078,17.5565L 63.1078,22.1815L 59.6703,22.6831L 59.6703,18.0581 Z "/>
	<path fill="#5E5E60" fill-opacity="1" stroke-linejoin="round" stroke="#5E5E60" stroke-opacity="1" d="M 25.7767,14.4979L 62.8227,17.4225L 59.1768,17.9145L 22.1308,14.9898L 25.7767,14.4979 Z "/>
	<path fill="#5E5E60" fill-opacity="1" stroke-linejoin="round" stroke="#5E5E60" stroke-opacity="1" d="M 25.9532,38.886L 62.6724,44.1767L 59.6254,45.6948L 22.9061,40.404L 25.9532,38.886 Z "/>
	<path fill="#5E5E60" fill-opacity="1" stroke-linejoin="round" stroke="#5E5E60" stroke-opacity="1" d="M 26.1668,50.3488L 62.3649,56.6795L 59.5712,58.9068L 23.3731,52.5761L 26.1668,50.3488 Z "/>
</svg>
