<?xml version="1.0" encoding="utf-8"?>
<!DOCTYPE svg PUBLIC "-//W3C//DTD SVG 1.1//EN" "http://www.w3.org/Graphics/SVG/1.1/DTD/svg11.dtd">
<svg xmlns="http://www.w3.org/2000/svg" xmlns:xlink="http://www.w3.org/1999/xlink" version="1.1" baseProfile="full" width="88" height="76" viewBox="0 0 88.00 76.00" enable-background="new 0 0 88.00 76.00" xml:space="preserve">
	<path fill="#8C9E64" fill-opacity="1" stroke-width="2" stroke-linejoin="round" stroke="#000000" stroke-opacity="1" d="M 13.4791,2.43747L 74.4791,2.43747C 80.5543,2.43747 85.4791,7.36234 85.4791,13.4375L 85.4791,63.1042C 85.4791,69.1793 80.5543,74.1042 74.4791,74.1042L 13.4791,74.1042C 7.40401,74.1042 2.47914,69.1793 2.47914,63.1042L 2.47914,13.4375C 2.47914,7.36234 7.40401,2.43747 13.4791,2.43747 Z "/>
	<linearGradient id="SVGID_Fill1_" gradientUnits="objectBoundingBox" x1="0.503869" y1="-0.274908" x2="2.05368" y2="-0.274908" gradientTransform="rotate(90.000000 0.503869 -0.274908)">
		<stop offset="0.316279" stop-color="#F0F1EC" stop-opacity="0.592157"/>
		<stop offset="0.800003" stop-color="#FFFFFF" stop-opacity="0"/>
	</linearGradient>
	<path fill="url(#SVGID_Fill1_)" stroke-width="0.2" stroke-linejoin="round" d="M 73.499,4.92154L 15.3879,4.92154C 12.3539,4.92154 8.57967,5.76868 5.81248,9.56688L 5.87836,9.56688C 5.94425,45.1657 24.0444,45.2867 44.4215,45.2867C 64.7985,45.2867 82.108,44.9423 82.4375,9.48311L 82.4375,9.51103C 80.988,7.44436 79.0773,5.32184 73.499,4.92154 Z "/>
	<linearGradient id="SVGID_Fill2_" gradientUnits="objectBoundingBox" x1="0.940186" y1="0.437275" x2="2.52462" y2="0.437275" gradientTransform="rotate(170.546570 0.940186 0.437275)">
		<stop offset="0.274419" stop-color="#F0F1EC" stop-opacity="0.501961"/>
		<stop offset="0.562791" stop-color="#FFFFFF" stop-opacity="0"/>
	</linearGradient>
	<path fill="url(#SVGID_Fill2_)" stroke-width="0.2" stroke-linejoin="round" d="M 73.2684,4.87499L 56.2809,6.73686C 53.2469,6.73686 37.1301,4.94943 34.3629,8.74763L 26.281,20.6636C 30.6395,27.669 45.9588,18.5783 48.3307,16.8282C 71.9617,13.8119 81.8774,44.8957 82.2069,9.43656L 82.2069,9.46448C 80.7574,7.39782 78.8467,5.2753 73.2684,4.87499 Z "/>
	<path fill="#C0533D" fill-opacity="1" stroke-width="2" stroke-linejoin="round" stroke="#000000" stroke-opacity="1" d="M 13.4791,2.43747L 74.4791,2.43747C 80.5543,2.43747 85.4791,7.36234 85.4791,13.4375L 85.4791,63.1042C 85.4791,69.1793 80.5543,74.1042 74.4791,74.1042L 13.4791,74.1042C 7.40401,74.1042 2.47914,69.1793 2.47914,63.1042L 2.47914,13.4375C 2.47914,7.36234 7.40401,2.43747 13.4791,2.43747 Z "/>
	<linearGradient id="SVGID_Fill3_" gradientUnits="objectBoundingBox" x1="0.503869" y1="-0.274908" x2="2.05368" y2="-0.274908" gradientTransform="rotate(90.000000 0.503869 -0.274908)">
		<stop offset="0.316279" stop-color="#F0F1EC" stop-opacity="0.592157"/>
		<stop offset="0.800003" stop-color="#FFFFFF" stop-opacity="0"/>
	</linearGradient>
	<path fill="url(#SVGID_Fill3_)" stroke-width="0.2" stroke-linejoin="round" d="M 73.499,4.92154L 15.3879,4.92154C 12.3539,4.92154 8.57967,5.76868 5.81248,9.56688L 5.87836,9.56688C 5.94425,45.1657 24.0444,45.2867 44.4215,45.2867C 64.7985,45.2867 82.108,44.9423 82.4375,9.48311L 82.4375,9.51103C 80.988,7.44436 79.0773,5.32184 73.499,4.92154 Z "/>
	<linearGradient id="SVGID_Fill4_" gradientUnits="objectBoundingBox" x1="0.940186" y1="0.437275" x2="2.52462" y2="0.437275" gradientTransform="rotate(170.546570 0.940186 0.437275)">
		<stop offset="0.274419" stop-color="#F0F1EC" stop-opacity="0.501961"/>
		<stop offset="0.562791" stop-color="#FFFFFF" stop-opacity="0"/>
	</linearGradient>
	<path fill="url(#SVGID_Fill4_)" stroke-width="0.2" stroke-linejoin="round" d="M 73.2684,4.87499L 56.2809,6.73686C 53.2469,6.73686 37.1301,4.94943 34.3629,8.74763L 26.281,20.6636C 30.6395,27.669 45.9588,18.5783 48.3307,16.8282C 71.9617,13.8119 81.8774,44.8957 82.2069,9.43656L 82.2069,9.46448C 80.7574,7.39782 78.8467,5.2753 73.2684,4.87499 Z "/>
</svg>
