<?xml version="1.0" encoding="utf-8"?>
<!DOCTYPE svg PUBLIC "-//W3C//DTD SVG 1.1//EN" "http://www.w3.org/Graphics/SVG/1.1/DTD/svg11.dtd">
<svg xmlns="http://www.w3.org/2000/svg" xmlns:xlink="http://www.w3.org/1999/xlink" version="1.1" baseProfile="full" width="257" height="257" viewBox="0 0 257.00 257.00" enable-background="new 0 0 257.00 257.00" xml:space="preserve">
	<g>
		<linearGradient id="SVGID_Stroke1_" gradientUnits="objectBoundingBox" x1="0.37904" y1="0.014424" x2="1.37987" y2="0.014424" gradientTransform="rotate(75.987991 0.379040 0.014424)">
			<stop offset="0.0186047" stop-color="#C70707" stop-opacity="1"/>
			<stop offset="1" stop-color="#420101" stop-opacity="1"/>
		</linearGradient>
		<linearGradient id="SVGID_Fill1_" gradientUnits="objectBoundingBox" x1="0.372454" y1="-0.0120404" x2="1.42783" y2="-0.0120404" gradientTransform="rotate(75.987343 0.372454 -0.012040)">
			<stop offset="0.0186047" stop-color="#F17B7B" stop-opacity="1"/>
			<stop offset="1" stop-color="#EE0606" stop-opacity="1"/>
		</linearGradient>
		<path fill="url(#SVGID_Fill1_)" stroke-width="9" stroke-linejoin="round" stroke="url(#SVGID_Stroke1_)" d="M 45.9597,78.4663L 78.4468,45.9785L 128.742,96.2729L 178.76,46.2539L 211.248,78.7417L 161.229,128.761L 210.818,178.35L 178.331,210.837L 128.742,161.248L 78.877,211.113L 46.3892,178.626L 96.2539,128.76L 45.9597,78.4663 Z "/>
		<linearGradient id="SVGID_Fill2_" gradientUnits="objectBoundingBox" x1="0.503328" y1="0.269657" x2="1.02034" y2="0.269657" gradientTransform="rotate(90.000000 0.503328 0.269657)">
			<stop offset="0.0186047" stop-color="#F8F8F8" stop-opacity="0.643137"/>
			<stop offset="1" stop-color="#EAE8E8" stop-opacity="0.25098"/>
		</linearGradient>
		<path fill="url(#SVGID_Fill2_)" stroke-width="0.2" stroke-linejoin="round" d="M 78.4373,42.5459L 41.854,78.2959L 58.604,95.2959C 77.4526,105.992 106.722,112.546 133.604,112.546C 153.41,112.546 178.503,107.673 194.437,101.546L 215.437,78.5459L 178.437,42.2126L 128.771,91.2126L 78.4373,42.5459 Z "/>
	</g>
</svg>
