<?xml version="1.0" encoding="utf-8"?>
<!DOCTYPE svg PUBLIC "-//W3C//DTD SVG 1.1//EN" "http://www.w3.org/Graphics/SVG/1.1/DTD/svg11.dtd">
<svg xmlns="http://www.w3.org/2000/svg" xmlns:xlink="http://www.w3.org/1999/xlink" version="1.1" baseProfile="full" width="106" height="14.9997" viewBox="0 0 106.00 15.00" enable-background="new 0 0 106.00 15.00" xml:space="preserve">
	<path fill="#FFFFFF" fill-opacity="1" stroke-width="4" stroke-linejoin="round" stroke="#96B66E" stroke-opacity="1" d="M 97,102.604L 9.00001,102.604C 5.68631,102.604 3.00001,99.9179 3.00001,96.6042L 3.00001,26.6041L 3.00001,8.60423C 3.00001,5.29044 5.68631,2.6041 9.00001,2.6041L 97,2.6041C 100.314,2.6041 103,5.29044 103,8.60423L 103,26.6041L 103,96.6042C 103,99.9179 100.314,102.604 97,102.604 Z "/>
	<path fill="none" stroke-linejoin="round" stroke="#394629" stroke-opacity="1" d="M 96.4923,103.781L 8.86758,103.802C 5.53426,103.761 2.1176,99.6357 2.1176,96.8024L 2.09677,26.3034L 2.09677,7.94358C 2.13844,5.19859 5.13843,1.82359 8.21675,1.8234L 97.3673,1.8444C 100.747,1.8444 104.076,4.88596 104.159,9.2194L 104.096,26.3034L 104.117,96.5941C 104.117,100.281 99.8722,103.781 96.4923,103.781 Z "/>
</svg>
