<?xml version="1.0" encoding="utf-8"?>
<!DOCTYPE svg PUBLIC "-//W3C//DTD SVG 1.1//EN" "http://www.w3.org/Graphics/SVG/1.1/DTD/svg11.dtd">
<svg xmlns="http://www.w3.org/2000/svg" xmlns:xlink="http://www.w3.org/1999/xlink" version="1.1" baseProfile="full" width="104" height="76.5007" viewBox="0 0 104.00 76.50" enable-background="new 0 0 104.00 76.50" xml:space="preserve">
	<path fill="#FFFFFF" fill-opacity="1" stroke-width="4" stroke-linejoin="round" stroke="#96B66E" stroke-opacity="1" d="M 96,87.6054L 7.99999,87.6054C 4.68629,87.6054 1.99999,84.9192 1.99999,81.6056L 1.99999,11.6054L 1.99999,-6.39445C 1.99999,-9.70823 4.68629,-12.3946 7.99999,-12.3946L 96,-12.3946C 99.3137,-12.3946 102,-9.70823 102,-6.39445L 102,11.6054L 102,81.6056C 102,84.9192 99.3137,87.6054 96,87.6054 Z "/>
	<path fill="none" stroke-linejoin="round" stroke="#394629" stroke-opacity="1" d="M 95.4923,88.7828L 7.86757,88.8037C 4.53424,88.762 1.11758,84.637 1.11758,81.8037L 1.09676,11.3047L 1.09676,-7.05509C 1.13842,-9.80009 4.13841,-13.1751 7.21674,-13.1753L 96.3672,-13.1543C 99.7472,-13.1543 103.076,-10.1127 103.159,-5.77927L 103.096,11.3047L 103.117,81.5954C 103.117,85.2828 98.8722,88.7828 95.4923,88.7828 Z "/>
</svg>
