<?xml version="1.0" encoding="utf-8"?>
<!DOCTYPE svg PUBLIC "-//W3C//DTD SVG 1.1//EN" "http://www.w3.org/Graphics/SVG/1.1/DTD/svg11.dtd">
<svg xmlns="http://www.w3.org/2000/svg" xmlns:xlink="http://www.w3.org/1999/xlink" version="1.1" baseProfile="full" width="248.021" height="67.992" viewBox="0 0 248.02 67.99" enable-background="new 0 0 248.02 67.99" xml:space="preserve">
	<path fill="#FFFFFF" fill-opacity="1" stroke-width="4" stroke-linejoin="round" stroke="#96B66E" stroke-opacity="1" d="M 193.628,204.816L 17.9655,204.816C 11.3508,204.816 5.98849,199.454 5.98849,192.839L 5.98849,53.1076L 5.98849,17.177C 5.98849,10.5621 11.3508,5.19972 17.9655,5.19972L 193.628,5.19972C 200.242,5.19972 205.605,10.5621 205.605,17.177L 205.605,53.1076L 205.605,192.839C 205.605,199.454 200.242,204.816 193.628,204.816 Z "/>
	<path fill="none" stroke-width="2" stroke-linejoin="round" stroke="#000000" stroke-opacity="1" d="M 192.614,207.166L 17.7011,207.208C 11.0473,207.124 4.22707,198.89 4.22708,193.235L 4.18551,52.5071L 4.18551,15.8581C 4.26866,10.3785 10.2571,3.64143 16.402,3.64131L 194.361,3.68306C 201.108,3.68306 207.752,9.75465 207.918,18.4048L 207.793,52.5071L 207.835,192.819C 207.835,200.179 199.361,207.166 192.614,207.166 Z "/>
	<rect x="202.047" y="52.7407" fill="#FFFFFF" fill-opacity="1" fill-rule="evenodd" stroke-width="0.2" stroke-linejoin="round" width="47.1933" height="16.3347"/>
	<rect x="9.36725" y="26.1804" fill="#FFFFFF" fill-opacity="1" fill-rule="evenodd" stroke-width="0.2" stroke-linejoin="round" width="198.684" height="43.1453"/>
	<path fill="#FFFFFF" fill-opacity="1" fill-rule="evenodd" stroke-width="4" stroke-linejoin="round" stroke="#96B66E" stroke-opacity="1" d="M 5.90667,68.1585L 5.98849,28.7485L 5.98849,17.177C 5.98849,10.5621 11.3508,5.19972 17.9655,5.19972L 193.628,5.19972C 200.242,5.19972 205.605,10.5621 205.605,17.177L 205.605,30.0474"/>
	<path fill="none" stroke-width="2" stroke-linejoin="round" stroke="#000000" stroke-opacity="1" d="M 4.17746,68.1797L 4.18551,29.5977L 4.18551,15.8581C 4.26866,10.3785 10.2571,3.64143 16.402,3.64131L 194.361,3.68306C 201.108,3.68306 206.991,9.32399 207.157,17.9744L 207.136,29.7764"/>
	<path fill="none" fill-rule="evenodd" stroke-width="4" stroke-linejoin="round" stroke="#96B66E" stroke-opacity="1" d="M 249.751,54.7891L 217.618,54.7891C 211.003,54.7891 205.641,49.4268 205.641,42.8118L 205.641,29.9415"/>
	<path fill="none" stroke-width="2" stroke-linejoin="round" stroke="#000000" stroke-opacity="1" d="M 249.72,53.5263L 218.782,53.5261C 210.845,53.3387 206.796,49.332 207.157,39.4013L 207.095,29.2763"/>
</svg>
