<?xml version="1.0" encoding="utf-8"?>
<!DOCTYPE svg PUBLIC "-//W3C//DTD SVG 1.1//EN" "http://www.w3.org/Graphics/SVG/1.1/DTD/svg11.dtd">
<svg xmlns="http://www.w3.org/2000/svg" xmlns:xlink="http://www.w3.org/1999/xlink" version="1.1" baseProfile="full" width="106" height="13.1048" viewBox="0 0 106.00 13.10" enable-background="new 0 0 106.00 13.10" xml:space="preserve">
	<path fill="#FFFFFF" fill-opacity="1" stroke-width="4" stroke-linejoin="round" stroke="#96B66E" stroke-opacity="1" d="M 97,11.1047L 9.00001,11.1047C 5.68631,11.1047 3.00001,8.41844 3.00001,5.10478L 3.00001,-64.8953L 3.00001,-82.8952C 3.00001,-86.209 5.68631,-88.8953 9.00001,-88.8953L 97,-88.8953C 100.314,-88.8953 103,-86.209 103,-82.8952L 103,-64.8953L 103,5.10478C 103,8.41844 100.314,11.1047 97,11.1047 Z "/>
	<path fill="none" stroke-linejoin="round" stroke="#394629" stroke-opacity="1" d="M 96.4923,12.282L 8.86758,12.3029C 5.53426,12.2612 2.1176,8.13628 2.1176,5.30296L 2.09677,-65.1961L 2.09677,-83.5559C 2.13844,-86.3009 5.13843,-89.6759 8.21675,-89.676L 97.3673,-89.655C 100.747,-89.655 104.076,-86.6135 104.159,-82.28L 104.096,-65.1961L 104.117,5.09465C 104.117,8.78203 99.8722,12.282 96.4923,12.282 Z "/>
</svg>
