<?xml version="1.0" encoding="utf-8"?>
<!DOCTYPE svg PUBLIC "-//W3C//DTD SVG 1.1//EN" "http://www.w3.org/Graphics/SVG/1.1/DTD/svg11.dtd">
<svg xmlns="http://www.w3.org/2000/svg" xmlns:xlink="http://www.w3.org/1999/xlink" version="1.1" baseProfile="full" width="260" height="260" viewBox="0 0 260.00 260.00" enable-background="new 0 0 260.00 260.00" xml:space="preserve">
	<g>
		<path fill="#FFFFFF" fill-opacity="1" stroke-width="5" stroke-linejoin="round" stroke="#333232" stroke-opacity="1" d="M 133.799,13.5193L 220.143,39.625C 222.724,40.4053 224.18,43.1035 223.4,45.6816L 186.798,166.742C 186.018,169.323 183.308,170.775 180.727,169.995L 94.3821,143.889C 91.8009,143.108 90.3522,140.4 91.1327,137.818L 127.735,16.7578C 128.514,14.1794 131.218,12.7385 133.799,13.5193 Z "/>
		<path fill="none" stroke-width="5" stroke-linejoin="round" stroke="#333232" stroke-opacity="1" d="M 177.271,37.1563C 176.734,38.9314 174.867,39.929 173.106,39.3967C 171.346,38.8645 170.344,36.999 170.881,35.2239C 171.416,33.4519 173.287,32.4424 175.048,32.9746C 176.808,33.5068 177.807,35.3838 177.271,37.1563 Z "/>
		<path fill="none" stroke-width="5" stroke-linejoin="round" stroke="#333232" stroke-opacity="1" d="M 149.638,28.8015C 149.101,30.5764 147.234,31.5745 145.473,31.042C 143.71,30.509 142.711,28.6445 143.247,26.8694C 143.783,25.0969 145.651,24.0867 147.415,24.6199C 149.175,25.1521 150.174,27.0293 149.638,28.8015 Z "/>
		<path fill="none" stroke-width="5" stroke-linejoin="round" stroke="#333232" stroke-opacity="1" d="M 204.904,45.5107C 204.367,47.2859 202.503,48.2849 200.739,47.7517C 198.978,47.219 197.978,45.3542 198.515,43.5791C 199.051,41.8069 200.919,40.7966 202.681,41.3293C 204.445,41.8623 205.44,43.7385 204.904,45.5107 Z "/>
		<path fill="#1EB265" fill-opacity="1" stroke-width="0.2" stroke-linejoin="round" d="M 218.389,62.4543L 186.716,167.214C 186.004,169.568 183.545,170.895 181.187,170.195L 94.0128,143.838C 92.8751,143.494 91.9327,142.714 91.3945,141.668C 90.8409,140.621 90.7134,139.404 91.069,138.27L 122.742,33.5107"/>
		<path fill="none" stroke-width="5" stroke-linejoin="round" stroke="#333232" stroke-opacity="1" d="M 218.994,60.2549L 186.706,167.048C 186.011,169.42 183.526,170.79 181.149,170.122L 93.963,143.762C 91.6112,143 90.3016,140.483 91.0402,138.124L 123.329,31.3308"/>
		<path fill="none" stroke-width="5" stroke-linejoin="round" stroke="#333232" stroke-opacity="1" d="M 130.159,50.9148L 204.66,73.4395M 125.636,65.875L 200.136,88.3997M 121.117,80.8206L 195.618,103.345M 116.591,95.7922L 191.091,118.317M 112.065,110.761L 148.224,121.694"/>
	</g>
	<g>
		<path fill="#FFFFFF" fill-opacity="1" stroke-width="5" stroke-linejoin="round" stroke="#333232" stroke-opacity="1" d="M 143.731,23.6487L 230.076,49.7546C 232.657,50.5349 234.112,53.2332 233.333,55.8113L 196.731,176.872C 195.95,179.453 193.241,180.905 190.66,180.124L 104.315,154.018C 101.734,153.238 100.285,150.529 101.065,147.948L 137.667,26.8875C 138.447,24.3088 141.15,22.8682 143.731,23.6487 Z "/>
		<path fill="none" stroke-width="5" stroke-linejoin="round" stroke="#333232" stroke-opacity="1" d="M 187.204,47.2859C 186.667,49.0608 184.8,50.0586 183.039,49.5264C 181.278,48.9941 180.277,47.1287 180.813,45.3535C 181.349,43.5813 183.22,42.572 184.981,43.1042C 186.741,43.6365 187.74,45.5134 187.204,47.2859 Z "/>
		<path fill="none" stroke-width="5" stroke-linejoin="round" stroke="#333232" stroke-opacity="1" d="M 159.571,38.9309C 159.034,40.7061 157.166,41.7041 155.406,41.1716C 153.642,40.6387 152.644,38.7742 153.18,36.999C 153.716,35.2266 155.584,34.2161 157.348,34.7493C 159.108,35.2815 160.106,37.1589 159.571,38.9309 Z "/>
		<path fill="none" stroke-width="5" stroke-linejoin="round" stroke="#333232" stroke-opacity="1" d="M 214.837,55.6404C 214.3,57.4153 212.435,58.4143 210.672,57.8811C 208.91,57.3486 207.911,55.4836 208.448,53.7087C 208.984,51.9365 210.852,50.926 212.614,51.459C 214.377,51.9919 215.373,53.8682 214.837,55.6404 Z "/>
		<path fill="#1EB265" fill-opacity="1" stroke-width="0.2" stroke-linejoin="round" d="M 228.322,72.584L 196.649,177.343C 195.937,179.697 193.477,181.024 191.12,180.324L 103.946,153.968C 102.808,153.624 101.865,152.844 101.327,151.798C 100.774,150.75 100.646,149.533 101.002,148.399L 132.675,43.6404"/>
		<path fill="none" stroke-width="5" stroke-linejoin="round" stroke="#333232" stroke-opacity="1" d="M 228.927,70.3845L 196.638,177.177C 195.943,179.55 193.458,180.92 191.081,180.252L 103.896,153.892C 101.544,153.13 100.234,150.612 100.973,148.254L 133.261,41.4602"/>
		<path fill="none" stroke-width="5" stroke-linejoin="round" stroke="#333232" stroke-opacity="1" d="M 140.092,61.0442L 214.592,83.5691M 135.569,76.0046L 210.069,98.5293M 131.05,90.9502L 205.55,113.475M 126.523,105.922L 201.024,128.447M 121.998,120.891L 158.157,131.823"/>
	</g>
	<g>
		<linearGradient id="SVGID_Fill1_" gradientUnits="objectBoundingBox" x1="-0.000904824" y1="0.499999" x2="1.0014" y2="0.499999">
			<stop offset="0" stop-color="#0A4D04" stop-opacity="1"/>
			<stop offset="1" stop-color="#042D01" stop-opacity="1"/>
		</linearGradient>
		<path fill="url(#SVGID_Fill1_)" stroke-width="4" stroke-linejoin="round" stroke="#006432" stroke-opacity="1" d="M 144.709,166.575C 169.052,144.002 169.175,143.531 169.011,143.081C 168.847,142.632 168.418,142.365 167.967,142.365L 136.915,142.365L 136.976,91.573C 136.976,90.7129 136.649,89.8538 135.995,89.1995C 135.34,88.5457 134.481,88.2178 133.621,88.2178L 103.204,88.2178C 102.344,88.2178 101.485,88.5457 100.83,89.1995C 100.176,89.8538 99.8485,90.7129 99.8485,91.573L 99.9097,142.365L 68.8986,142.365C 68.4484,142.365 68.0397,142.632 67.8549,143.081C 67.6912,143.51 67.8138,144.002 68.1415,144.309L 116.152,188.842C 116.745,189.394 117.543,189.742 118.423,189.742C 119.302,189.742 120.1,189.394 144.709,166.575 Z "/>
		<linearGradient id="SVGID_Fill2_" gradientUnits="objectBoundingBox" x1="-0.00221737" y1="0.500002" x2="1.0022" y2="0.500002">
			<stop offset="0" stop-color="#0A4D04" stop-opacity="1"/>
			<stop offset="1" stop-color="#042D01" stop-opacity="1"/>
		</linearGradient>
		<path fill="url(#SVGID_Fill2_)" stroke-width="4" stroke-linejoin="round" stroke="#006432" stroke-opacity="1" d="M 216.285,200.891L 186.194,177.632C 184.496,176.302 181.326,175.218 179.157,175.218L 161.728,175.218L 190.736,204.123L 161.811,204.123L 147.082,225.05L 89.129,225.05L 75.0355,204.123L 46.1102,204.123L 74.9327,175.218L 57.1772,175.218C 55.0089,175.218 51.8586,176.302 50.1405,177.632L 20.0485,200.891C 18.3517,202.22 17.4915,205.002 18.1667,207.048L 30.1748,243.787C 30.8499,245.853 33.1614,247.53 35.3297,247.53L 201.23,247.53C 203.398,247.53 205.709,245.853 206.364,243.787L 218.167,207.048C 218.842,204.982 218.003,202.22 216.285,200.891 Z "/>
	</g>
</svg>
