<?xml version="1.0" encoding="utf-8"?>
<!DOCTYPE svg PUBLIC "-//W3C//DTD SVG 1.1//EN" "http://www.w3.org/Graphics/SVG/1.1/DTD/svg11.dtd">
<svg xmlns="http://www.w3.org/2000/svg" xmlns:xlink="http://www.w3.org/1999/xlink" version="1.1" baseProfile="full" width="90" height="90" viewBox="0 0 90.00 90.00" enable-background="new 0 0 90.00 90.00" xml:space="preserve">
	<g>
		<g>
			<linearGradient id="SVGID_Fill1_" gradientUnits="objectBoundingBox" x1="0.330144" y1="-0.036206" x2="1.38971" y2="-0.036206" gradientTransform="rotate(73.510460 0.330144 -0.036206)">
				<stop offset="0" stop-color="#0066C8" stop-opacity="1"/>
				<stop offset="1" stop-color="#242F6B" stop-opacity="1"/>
			</linearGradient>
			<path fill="url(#SVGID_Fill1_)" stroke-linejoin="round" d="M 67.3391,87.651L 69.4974,76.7062L 81.988,72.2388C 68.4555,63.9791 56.9717,41.7946 56.9717,41.7946L 40.6541,43.8633C 59.6239,81.9595 67.3391,87.651 67.3391,87.651 Z "/>
			<g>
				<defs>
					<path id="SVG_CLIPPER1_" d="M -34.9105,25.0981L 116.811,-10.1614L 137.47,78.7345L -14.2515,113.994L -34.9105,25.0981 Z "/>
				</defs>
				<clipPath id="SVG_CLIPPER2_">
					<use xlink:href="#SVG_CLIPPER1_" overflow="visible"/>
				</clipPath>
				<g clip-path="url(#SVG_CLIPPER2_)">
					<linearGradient id="SVGID_Fill2_" gradientUnits="objectBoundingBox" x1="0.795416" y1="0.81012" x2="1.81227" y2="0.81012" gradientTransform="rotate(245.015854 0.795416 0.810120)">
						<stop offset="0" stop-color="#5EB6FF" stop-opacity="0.431373"/>
						<stop offset="1" stop-color="#000000" stop-opacity="0.431373"/>
					</linearGradient>
					<path fill="url(#SVGID_Fill2_)" stroke-linejoin="round" d="M 66.4339,84.7041L 68.0661,76.4255L 68.2115,75.6886L 68.9531,75.4235L 78.9313,71.8542C 67.6401,63.6453 58.3659,47.3655 56.1531,43.2859L 42.8055,44.978C 55.7198,70.7106 63.2511,80.9863 66.4339,84.7041 Z "/>
				</g>
			</g>
		</g>
		<g>
			<linearGradient id="SVGID_Fill3_" gradientUnits="objectBoundingBox" x1="0.688872" y1="-0.0363125" x2="1.76848" y2="-0.0363125" gradientTransform="rotate(107.382256 0.688872 -0.036312)">
				<stop offset="0" stop-color="#0066C8" stop-opacity="1"/>
				<stop offset="1" stop-color="#242F6B" stop-opacity="1"/>
			</linearGradient>
			<path fill="url(#SVGID_Fill3_)" stroke-linejoin="round" d="M 29.0246,42.2104C 29.0246,42.2104 16.8146,64.1124 3.48787,72.2859L 15.0706,76.6658L 16.4679,87.4551C 16.4679,87.4551 24.124,81.8258 44.3797,44.2164L 29.0246,42.2104 Z "/>
			<g>
				<defs>
					<path id="SVG_CLIPPER3_" d="M -5.9604,-14.4402L 120.767,29.4534L 78.8811,125.358L -47.8467,81.4648L -5.9604,-14.4402 Z "/>
				</defs>
				<clipPath id="SVG_CLIPPER4_">
					<use xlink:href="#SVG_CLIPPER3_" overflow="visible"/>
				</clipPath>
				<g clip-path="url(#SVG_CLIPPER4_)">
					<linearGradient id="SVGID_Fill4_" gradientUnits="objectBoundingBox" x1="0.195488" y1="0.803448" x2="1.21067" y2="0.803448" gradientTransform="rotate(-61.786682 0.195488 0.803448)">
						<stop offset="0" stop-color="#5EB6FF" stop-opacity="0.431373"/>
						<stop offset="1" stop-color="#000000" stop-opacity="0.431373"/>
					</linearGradient>
					<path fill="url(#SVGID_Fill4_)" stroke-linejoin="round" d="M 17.5017,84.5469L 16.4448,76.3862L 16.3506,75.6594L 15.663,75.3995L 6.41037,71.9006C 17.6077,63.7814 27.3715,47.7073 29.7126,43.6793L 42.2727,45.3203C 28.4951,70.7244 20.7412,80.8737 17.5017,84.5469 Z "/>
				</g>
			</g>
		</g>
		<g>
			<linearGradient id="SVGID_Fill5_" gradientUnits="objectBoundingBox" x1="0.5" y1="2.15623e-006" x2="1.5" y2="2.15623e-006" gradientTransform="rotate(90.000000 0.500000 0.000002)">
				<stop offset="0" stop-color="#0066C8" stop-opacity="1"/>
				<stop offset="1" stop-color="#242F6B" stop-opacity="1"/>
			</linearGradient>
			<path fill="url(#SVGID_Fill5_)" stroke-linejoin="round" d="M 37.1932,7.89307L 32.046,6.4884L 30.0957,11.4539L 24.7667,11.7087L 24.446,17.0343L 19.4567,18.923L 20.7972,24.087L 16.6354,27.4254L 19.5064,31.9221L 16.58,36.3829L 20.7,39.7727L 19.2954,44.9196L 24.2612,46.8702L 24.516,52.1992L 29.8412,52.52L 31.7302,57.5093L 36.8942,56.1687L 40.2325,60.3302L 44.7292,57.4595L 49.1905,60.3857L 52.5797,56.2657L 57.7267,57.6702L 59.6772,52.7047L 65.0062,52.4502L 65.327,47.1245L 70.3162,45.2358L 68.9757,40.0718L 73.1374,36.7335L 70.2665,32.2365L 73.1929,27.7756L 69.0729,24.386L 70.4775,19.239L 65.512,17.2886L 65.2572,11.9595L 59.932,11.6389L 58.0427,6.64917L 52.8787,7.99023L 49.5404,3.82837L 45.0437,6.69922L 40.5825,3.77295L 37.1932,7.89307 Z "/>
			<linearGradient id="SVGID_Fill6_" gradientUnits="objectBoundingBox" x1="0.5" y1="0.964368" x2="1.94587" y2="0.964368" gradientTransform="rotate(-90.000000 0.500000 0.964368)">
				<stop offset="0" stop-color="#0066C8" stop-opacity="1"/>
				<stop offset="1" stop-color="#242F6B" stop-opacity="1"/>
			</linearGradient>
			<path fill="url(#SVGID_Fill6_)" stroke-linejoin="round" d="M 39.124,9.4812L 38.0957,10.7307L 36.535,10.3049L 33.5527,9.49097L 32.4225,12.3683L 31.831,13.8737L 30.2149,13.9509L 27.127,14.0988L 26.9414,17.1842L 26.8442,18.7993L 25.3312,19.3722L 22.4402,20.4664L 23.217,23.4587L 23.6235,25.025L 22.3615,26.0376L 19.9502,27.9718L 21.6137,30.5768L 22.4844,31.9407L 21.597,33.2937L 19.9012,35.8785L 22.2882,37.8419L 23.5377,38.8699L 23.1117,40.4309L 22.298,43.4132L 25.1749,44.5435L 26.6812,45.135L 26.7582,46.7507L 26.9057,49.8386L 29.9915,50.0245L 31.6067,50.1216L 32.1792,51.6348L 33.2737,54.5255L 36.266,53.7487L 37.8317,53.3424L 38.844,54.6045L 40.7785,57.0157L 43.3839,55.3522L 44.7477,54.4814L 46.1007,55.3689L 48.6852,57.0645L 50.6487,54.6775L 51.6767,53.4282L 53.238,53.8542L 56.2199,54.668L 57.3502,51.7906L 57.9417,50.2848L 59.558,50.2075L 62.6459,50.0601L 62.8317,46.9742L 62.9287,45.3591L 64.4419,44.7864L 67.3325,43.6921L 66.556,40.7L 66.1497,39.1339L 67.4114,38.1221L 69.8229,36.1873L 68.1595,33.5817L 67.2887,32.2179L 68.1762,30.8652L 69.8722,28.2808L 67.4844,26.3165L 66.2355,25.2886L 66.6612,23.7277L 67.4752,20.7457L 64.5977,19.6152L 63.092,19.0237L 63.0147,17.408L 62.8672,14.3198L 59.7814,14.1343L 58.1665,14.0372L 57.5937,12.524L 56.4995,9.63281L 53.507,10.4098L 51.941,10.8162L 50.9284,9.55396L 48.9942,7.14307L 46.3892,8.8064L 45.0252,9.67725L 43.6725,8.78967L 41.0875,7.09448L 39.124,9.4812 Z "/>
			<g>
				<defs>
					<rect id="SVG_CLIPPER5_" x="-50.6025" y="-13.7161" width="200" height="150"/>
				</defs>
				<clipPath id="SVG_CLIPPER6_">
					<use xlink:href="#SVG_CLIPPER5_" overflow="visible"/>
				</clipPath>
				<g clip-path="url(#SVG_CLIPPER6_)">
					<linearGradient id="SVGID_Fill7_" gradientUnits="objectBoundingBox" x1="0.5" y1="-0.00613497" x2="2.22393" y2="-0.00613497" gradientTransform="rotate(90.000000 0.500000 -0.006135)">
						<stop offset="0" stop-color="#8CCAEB" stop-opacity="0.811765"/>
						<stop offset="1" stop-color="#28449E" stop-opacity="0.811765"/>
					</linearGradient>
					<ellipse fill="url(#SVGID_Fill7_)" stroke-linejoin="round" cx="44.5225" cy="31.9089" rx="20.375" ry="20.375"/>
				</g>
			</g>
			<linearGradient id="SVGID_Fill8_" gradientUnits="objectBoundingBox" x1="0.499999" y1="-0.00613708" x2="2.22393" y2="-0.00613708" gradientTransform="rotate(90.000000 0.499999 -0.006137)">
				<stop offset="0" stop-color="#8CCAEB" stop-opacity="1"/>
				<stop offset="1" stop-color="#28449E" stop-opacity="1"/>
			</linearGradient>
			<path fill="url(#SVGID_Fill8_)" stroke-linejoin="round" d="M 25.3977,31.9089C 25.3977,42.4547 33.977,51.0339 44.5225,51.0339L 44.5225,51.0339C 55.068,51.0339 63.6475,42.4547 63.6475,31.9089L 63.6475,31.9089C 63.6475,21.3638 55.068,12.7843 44.5225,12.7843L 44.5225,12.7843C 33.977,12.7843 25.3977,21.3638 25.3977,31.9089 Z "/>
			<linearGradient id="SVGID_Fill9_" gradientUnits="objectBoundingBox" x1="0.5" y1="0.0143284" x2="1.45704" y2="0.0143284" gradientTransform="rotate(90.000000 0.500000 0.014328)">
				<stop offset="0" stop-color="#FFFFFF" stop-opacity="0.623529"/>
				<stop offset="1" stop-color="#000000" stop-opacity="0.623529"/>
			</linearGradient>
			<path fill="url(#SVGID_Fill9_)" stroke-linejoin="round" d="M 60.2725,29.5133C 60.2725,38.3613 53.2582,45.5339 44.6057,45.5339C 35.9535,45.5339 28.9392,38.3613 28.9392,29.5133C 28.9392,20.6652 35.9535,13.4922 44.6057,13.4922C 53.2582,13.4922 60.2725,20.6652 60.2725,29.5133 Z "/>
		</g>
	</g>
</svg>
