<?xml version="1.0" encoding="utf-8"?>
<!DOCTYPE svg PUBLIC "-//W3C//DTD SVG 1.1//EN" "http://www.w3.org/Graphics/SVG/1.1/DTD/svg11.dtd">
<svg xmlns="http://www.w3.org/2000/svg" xmlns:xlink="http://www.w3.org/1999/xlink" version="1.1" baseProfile="full" width="38.4971" height="50" viewBox="0 0 38.50 50.00" enable-background="new 0 0 38.50 50.00" xml:space="preserve">
	<g>
		<linearGradient id="SVGID_Fill1_" gradientUnits="objectBoundingBox" x1="1.5359e-005" y1="5.95093e-006" x2="1.00002" y2="5.95093e-006">
			<stop offset="0" stop-color="#B6EEAF" stop-opacity="1"/>
			<stop offset="1" stop-color="#41733A" stop-opacity="1"/>
		</linearGradient>
		<path fill="url(#SVGID_Fill1_)" stroke-width="0.2" stroke-linejoin="round" d="M 2.70901,0C 1.20111,0 0,1.2171 0,2.72559L 0,47.2768C 0,48.7853 1.20111,50 2.70901,50L 35.7881,50C 37.2966,50 38.4971,48.7853 38.4971,47.2768L 38.4971,13.8001L 28.5328,13.8001C 26.4925,13.8001 24.7133,12.3126 24.7133,10.3344L 24.7133,0M 26.608,0L 26.608,10.3344C 26.608,11.147 27.3809,11.9057 28.5328,11.9057L 38.4971,11.9057L 26.608,0 Z "/>
		<path fill="#4D4D4D" fill-opacity="1" stroke-width="0.2" stroke-linejoin="round" d="M 5.94573,11.9217L 22.2886,11.9217C 22.7535,11.9217 23.1261,12.2942 23.1261,12.7591L 23.1261,14.0153C 23.1261,14.4785 22.7535,14.8528 22.2886,14.8528L 5.94573,14.8528C 5.48317,14.8528 5.10827,14.4785 5.10827,14.0153L 5.10827,12.7591C 5.10827,12.2942 5.48317,11.9217 5.94573,11.9217 Z "/>
		<path fill="#4D4D4D" fill-opacity="1" stroke-width="0.2" stroke-linejoin="round" d="M 5.94573,25.581L 32.5513,25.581C 33.0163,25.581 33.3888,25.9553 33.3888,26.4185L 33.3888,27.6747C 33.3888,28.1396 33.0163,28.5118 32.5513,28.5118L 5.94573,28.5118C 5.48317,28.5118 5.10827,28.1396 5.10827,27.6747L 5.10827,26.4185C 5.10827,25.9553 5.48317,25.581 5.94573,25.581 Z "/>
		<path fill="#4D4D4D" fill-opacity="1" stroke-width="0.2" stroke-linejoin="round" d="M 5.94573,18.751L 22.2886,18.751C 22.7535,18.751 23.1261,19.1259 23.1261,19.5885L 23.1261,20.8453C 23.1261,21.3078 22.7535,21.6827 22.2886,21.6827L 5.94573,21.6827C 5.48317,21.6827 5.10827,21.3078 5.10827,20.8453L 5.10827,19.5885C 5.10827,19.1259 5.48317,18.751 5.94573,18.751 Z "/>
		<path fill="#4D4D4D" fill-opacity="1" stroke-width="0.2" stroke-linejoin="round" d="M 5.94573,32.4104L 32.5513,32.4104C 33.0163,32.4104 33.3888,32.7853 33.3888,33.2478L 33.3888,34.504C 33.3888,34.969 33.0163,35.3415 32.5513,35.3415L 5.94573,35.3415C 5.48317,35.3415 5.10827,34.969 5.10827,34.504L 5.10827,33.2478C 5.10827,32.7853 5.48317,32.4104 5.94573,32.4104 Z "/>
		<path fill="#4D4D4D" fill-opacity="1" stroke-width="0.2" stroke-linejoin="round" d="M 5.94573,39.2398L 32.5513,39.2398C 33.0163,39.2398 33.3888,39.6147 33.3888,40.0772L 33.3888,41.3334C 33.3888,41.7984 33.0163,42.1709 32.5513,42.1709L 5.94573,42.1709C 5.48317,42.1709 5.10827,41.7984 5.10827,41.3334L 5.10827,40.0772C 5.10827,39.6147 5.48317,39.2398 5.94573,39.2398 Z "/>
	</g>
</svg>
