<?xml version="1.0" encoding="utf-8"?>
<!DOCTYPE svg PUBLIC "-//W3C//DTD SVG 1.1//EN" "http://www.w3.org/Graphics/SVG/1.1/DTD/svg11.dtd">
<svg xmlns="http://www.w3.org/2000/svg" xmlns:xlink="http://www.w3.org/1999/xlink" version="1.1" baseProfile="full" width="220" height="220" viewBox="0 0 220.00 220.00" enable-background="new 0 0 220.00 220.00" xml:space="preserve">
	<g>
		<path fill="#FFFFFF" fill-opacity="1" stroke-width="3" stroke-linejoin="round" stroke="#000000" stroke-opacity="1" d="M 122.387,122.764C 123.637,124.597 125.553,127.93 126.345,130.93C 127.137,133.93 126.803,136.597 125.97,138.847C 125.137,141.097 123.803,142.93 121.803,144.472C 119.803,146.014 117.137,147.264 112.137,148.764C 107.137,150.264 99.8035,152.014 93.3867,153.93C 86.9701,155.847 81.4701,157.93 77.5535,160.347C 73.6367,162.764 71.3035,165.514 69.8451,168.389C 68.3867,171.264 67.8035,174.264 67.8451,177.43C 67.8867,180.597 68.5535,183.93 68.8035,185.597C 69.0535,187.264 68.8867,187.264 67.5951,186.555C 66.3035,185.847 63.8867,184.43 61.4285,181.597C 58.9701,178.764 56.4701,174.514 52.8035,168.889C 49.1367,163.264 44.3035,156.264 41.1367,151.889C 37.9701,147.514 36.4701,145.764 34.4701,144.264C 32.4701,142.764 29.9701,141.514 27.9701,140.764C 25.9701,140.014 24.4701,139.764 23.7201,139.43C 22.9701,139.097 22.9701,138.68 22.9285,136.805C 22.8867,134.93 22.8035,131.597 23.3451,128.222C 23.8867,124.847 25.0535,121.43 26.8451,118.514C 28.6367,115.597 31.0535,113.18 33.0117,111.347C 34.9701,109.514 36.4701,108.264 38.3867,106.972C 40.3035,105.68 42.6367,104.347 45.5117,103.139C 48.3867,101.93 51.8035,100.847 54.5117,100.264C 57.2201,99.6805 59.2201,99.5972 70.0117,103.014C 80.8035,106.43 100.387,113.347 110.47,116.972C 120.553,120.597 121.137,120.93 122.387,122.764 Z "/>
		<path fill="#000000" fill-opacity="1" stroke-width="3" stroke-linejoin="round" stroke="#000000" stroke-opacity="1" d="M 91.0267,133.588C 91.499,133.379 92.5824,133.129 93.8881,132.921C 95.1936,132.713 96.7212,132.546 97.8879,132.407C 99.0546,132.268 99.8602,132.157 101.082,132.171C 102.305,132.185 103.944,132.324 105.86,132.796C 107.777,133.268 109.971,134.074 111.457,134.574C 112.944,135.074 113.721,135.268 114.36,135.129C 114.999,134.991 115.499,134.518 116.11,134.268C 116.721,134.018 117.444,133.991 118.499,133.977C 119.555,133.963 120.944,133.963 121.999,134.032C 123.055,134.102 123.777,134.241 124.43,134.574C 125.082,134.907 125.666,135.435 126.027,136.199C 126.388,136.963 126.527,137.963 126.305,139.004C 126.082,140.046 125.499,141.129 124.707,142.102C 123.916,143.074 122.916,143.935 121.443,144.782C 119.971,145.629 118.027,146.463 116.027,147.143C 114.027,147.824 111.971,148.352 110.777,148.588C 109.582,148.824 109.249,148.768 108.86,148.518C 108.471,148.268 108.027,147.824 106.86,146.893C 105.694,145.963 103.805,144.546 101.291,142.574C 98.7769,140.602 95.6379,138.074 93.7908,136.574C 91.9436,135.074 91.3879,134.602 91.0408,134.282C 90.6936,133.963 90.5546,133.796 91.0267,133.588 Z "/>
		<path fill="#000000" fill-opacity="1" stroke-width="3" stroke-linejoin="round" stroke="#000000" stroke-opacity="1" d="M 79.0824,122.727C 79.7212,123.157 80.7769,124.185 82.374,125.727C 83.9712,127.268 86.1102,129.324 87.4297,130.616C 88.749,131.907 89.249,132.435 89.6101,132.81C 89.9712,133.185 90.1936,133.407 90.2908,133.546C 90.3879,133.685 90.3602,133.741 89.9436,133.796C 89.5269,133.852 88.7212,133.907 87.4712,134.074C 86.2212,134.241 84.5269,134.518 82.8464,135.004C 81.1658,135.491 79.499,136.185 78.0547,136.879C 76.6102,137.574 75.3879,138.268 74.3601,138.893C 73.3324,139.518 72.499,140.074 71.7351,140.602C 70.9712,141.129 70.2769,141.629 69.8324,141.949C 69.3879,142.268 69.1936,142.407 68.9852,142.435C 68.7769,142.463 68.5546,142.379 67.7767,141.754C 66.999,141.129 65.6658,139.963 64.4017,138.754C 63.1379,137.546 61.9436,136.296 60.999,135.324C 60.0546,134.352 59.3602,133.657 58.9158,133.199C 58.4712,132.741 58.2769,132.518 58.1936,132.352C 58.1102,132.185 58.1379,132.074 58.4574,131.713C 58.7769,131.352 59.3879,130.741 60.4712,129.991C 61.5546,129.241 63.1102,128.352 64.4574,127.671C 65.8046,126.991 66.9436,126.518 68.1102,126.046C 69.2769,125.574 70.4712,125.102 71.7212,124.602C 72.9712,124.102 74.2769,123.574 75.2352,123.241C 76.1936,122.907 76.8046,122.768 77.2074,122.699C 77.6102,122.629 77.8046,122.629 78.0129,122.546C 78.2212,122.463 78.4436,122.296 79.0824,122.727 Z "/>
		<path fill="#000000" fill-opacity="1" stroke-width="3" stroke-linejoin="round" stroke="#000000" stroke-opacity="1" d="M 64.124,110.768C 64.5824,111.296 65.6658,112.296 67.0267,113.49C 68.3879,114.685 70.0269,116.074 71.4574,117.199C 72.8879,118.324 74.1102,119.185 75.0686,119.754C 76.0269,120.324 76.7212,120.602 77.3324,120.81C 77.9436,121.018 78.4712,121.157 79.0267,121.31C 79.5824,121.463 80.1658,121.629 81.0824,121.713C 81.999,121.796 83.249,121.796 84.2351,121.824C 85.2212,121.852 85.9436,121.907 86.3881,121.921C 86.8324,121.935 86.999,121.907 86.3047,121.213C 85.6102,120.518 84.0546,119.157 81.9296,117.491C 79.8046,115.824 77.1102,113.852 75.1519,112.546C 73.1936,111.241 71.9712,110.602 71.1934,110.296C 70.4158,109.991 70.0824,110.018 69.1658,110.004C 68.249,109.991 66.749,109.935 65.7908,109.949C 64.8324,109.963 64.4158,110.046 64.124,110.115C 63.8324,110.185 63.6658,110.241 64.124,110.768 Z "/>
		<path fill="#000000" fill-opacity="1" stroke-width="3" stroke-linejoin="round" stroke="#000000" stroke-opacity="1" d="M 53.0964,102.06C 53.5269,102.324 54.2212,102.935 55.1796,103.699C 56.1379,104.463 57.3602,105.379 58.3464,106.115C 59.3324,106.852 60.0824,107.407 60.7767,107.977C 61.4712,108.546 62.1102,109.129 62.4852,109.504C 62.8602,109.879 62.9712,110.046 62.874,110.213C 62.7769,110.379 62.4712,110.546 61.874,110.81C 61.2769,111.074 60.3879,111.435 58.9296,112.115C 57.4712,112.796 55.4436,113.796 53.7214,114.685C 51.999,115.574 50.5824,116.352 49.2631,117.157C 47.9436,117.963 46.7212,118.796 45.9712,119.352C 45.2212,119.907 44.9436,120.185 44.5408,120.157C 44.1379,120.129 43.6102,119.796 42.9714,119.324C 42.3324,118.852 41.5824,118.241 40.3881,117.227C 39.1936,116.213 37.5546,114.796 36.4296,113.824C 35.3046,112.852 34.6936,112.324 34.4714,111.907C 34.249,111.491 34.4158,111.185 36.8601,109.796C 39.3046,108.407 44.0269,105.935 46.874,104.477C 49.7212,103.018 50.6936,102.574 51.2908,102.324C 51.8879,102.074 52.1102,102.018 52.3047,101.949C 52.499,101.879 52.6658,101.796 53.0964,102.06 Z "/>
		<path fill="#000000" fill-opacity="1" stroke-width="3" stroke-linejoin="round" stroke="#000000" stroke-opacity="1" d="M 33.8324,142.879C 33.5546,142.407 33.5269,141.935 33.5686,141.032C 33.6102,140.129 33.7212,138.796 33.9712,137.615C 34.2212,136.435 34.6102,135.407 35.1102,134.338C 35.6102,133.268 36.2212,132.157 36.9158,131.004C 37.6102,129.852 38.3879,128.657 39.1796,127.504C 39.9712,126.352 40.7769,125.241 41.4158,124.393C 42.0546,123.546 42.5269,122.963 42.9019,122.518C 43.2769,122.074 43.5546,121.768 43.7351,121.602C 43.9158,121.435 43.999,121.407 44.1381,121.421C 44.2769,121.435 44.4712,121.491 45.2908,122.074C 46.1102,122.657 47.5546,123.768 49.1658,125.088C 50.7769,126.407 52.5546,127.935 53.8184,129.032C 55.0824,130.129 55.8324,130.796 56.2767,131.24C 56.7212,131.685 56.8602,131.907 56.9019,132.102C 56.9436,132.296 56.8879,132.463 56.4296,132.768C 55.9712,133.074 55.1102,133.518 54.3464,134.129C 53.5824,134.741 52.9158,135.518 52.0408,136.782C 51.1658,138.046 50.0824,139.796 49.1934,141.365C 48.3046,142.935 47.6102,144.324 47.0269,145.741C 46.4436,147.157 45.9712,148.602 45.5684,149.699C 45.1658,150.796 44.8324,151.546 44.6101,152.171C 44.3879,152.796 44.2769,153.296 44.1797,153.615C 44.0824,153.935 43.999,154.074 43.874,154.102C 43.749,154.129 43.5824,154.046 42.7351,153.074C 41.8879,152.102 40.3602,150.241 38.9852,148.629C 37.6102,147.018 36.3879,145.657 35.5129,144.741C 34.6379,143.824 34.1102,143.352 33.8324,142.879 Z "/>
		<path fill="#000000" fill-opacity="1" stroke-width="3" stroke-linejoin="round" stroke="#000000" stroke-opacity="1" d="M 68.7769,187.31C 68.3602,187.213 67.6379,186.963 66.6658,186.449C 65.6936,185.935 64.4712,185.157 63.4158,184.088C 62.3602,183.018 61.4712,181.657 60.4296,179.963C 59.3879,178.268 58.1936,176.241 57.4436,174.477C 56.6936,172.713 56.3879,171.213 56.1796,169.879C 55.9712,168.546 55.8602,167.379 56.1519,165.463C 56.4436,163.546 57.1379,160.879 58.1934,158.088C 59.249,155.296 60.6658,152.379 61.874,150.379C 63.0824,148.379 64.0824,147.296 65.0824,146.254C 66.0824,145.213 67.0824,144.213 67.7908,143.685C 68.499,143.157 68.9158,143.102 69.3047,143.171C 69.6936,143.241 70.0546,143.435 70.8184,144.074C 71.5824,144.713 72.749,145.796 74.624,147.393C 76.499,148.991 79.0824,151.102 80.7214,152.504C 82.3602,153.907 83.0546,154.602 83.5408,155.185C 84.0269,155.768 84.3046,156.241 84.4296,156.602C 84.5546,156.963 84.5269,157.213 84.3186,157.421C 84.1102,157.629 83.7212,157.796 82.9712,158.088C 82.2212,158.379 81.1102,158.796 79.7214,159.49C 78.3324,160.185 76.6658,161.157 75.1797,162.366C 73.6936,163.574 72.3879,165.018 71.4296,166.338C 70.4712,167.657 69.8602,168.852 69.4297,170.31C 68.999,171.768 68.749,173.491 68.624,175.185C 68.499,176.879 68.499,178.546 68.5964,180.254C 68.6936,181.963 68.8879,183.713 69.0408,184.893C 69.1936,186.074 69.3046,186.685 69.3046,187.018C 69.3046,187.352 69.1936,187.407 68.7769,187.31 Z "/>
	</g>
	<g>
		<path fill="#FFFFFF" fill-opacity="1" stroke-width="3" stroke-linejoin="round" stroke="#000000" stroke-opacity="1" d="M 130.887,26.1945C 126.276,26.5833 117.498,28.361 108.442,30.6944C 99.3867,33.0276 90.0535,35.9167 80.6644,39.6945C 71.2756,43.4722 61.8313,48.1388 55.1646,52.0279C 48.4979,55.9167 44.6089,59.0276 41.3311,63.1944C 38.0535,67.361 35.3867,72.5833 34.1644,75.4722C 32.9423,78.361 33.1646,78.9167 38.2758,83.1388C 43.3867,87.361 53.3867,95.25 62.0535,102.028C 70.7201,108.805 78.0535,114.472 86.4424,119.917C 94.8313,125.361 104.276,130.583 109.442,133.305C 114.609,136.028 115.498,136.25 115.665,135.805C 115.831,135.361 115.276,134.25 114.887,132.472C 114.498,130.694 114.276,128.25 115.72,125.861C 117.165,123.472 120.276,121.139 124.609,119.361C 128.942,117.583 134.498,116.361 140.053,115.694C 145.609,115.028 151.165,114.917 153.942,114.694C 156.72,114.472 156.72,114.139 153.331,99.6388C 149.942,85.1388 143.165,56.4722 139.553,41.6388C 135.942,26.8055 135.498,25.8055 130.887,26.1945 Z "/>
		<path fill="#000000" fill-opacity="1" stroke-width="0.2" stroke-linejoin="round" stroke="#000000" stroke-opacity="1" d="M 107.254,32.4909C 105.848,32.8424 103.087,33.5974 100.415,34.3293C 97.7435,35.0611 95.1602,35.7693 92.8477,36.4464C 90.5352,37.1236 88.4935,37.7693 86.4414,38.4777C 84.3894,39.1861 82.3269,39.9568 81.3164,40.3839C 80.306,40.8111 80.3477,40.8943 80.681,41.4986C 81.0144,42.1027 81.6394,43.2277 82.6185,44.8423C 83.5977,46.4568 84.931,48.5611 86.0352,50.4152C 87.1394,52.2693 88.0144,53.8736 88.8164,55.3839C 89.6185,56.8943 90.3477,58.3111 90.7748,59.1131C 91.2019,59.9152 91.3269,60.1027 91.3894,60.1964C 91.4519,60.2902 91.4519,60.2902 92.4832,59.9881C 93.5144,59.6861 95.5769,59.0818 97.6914,58.4464C 99.806,57.8111 101.973,57.1443 104.077,56.5298C 106.181,55.9152 108.223,55.3527 110.046,54.8214C 111.869,54.2902 113.473,53.7902 114.681,53.3736C 115.889,52.9568 116.702,52.6236 117.087,52.3631C 117.473,52.1027 117.431,51.9152 117.014,50.9361C 116.598,49.9568 115.806,48.1861 114.994,46.3006C 114.181,44.4152 113.348,42.4152 112.535,40.5298C 111.723,38.6443 110.931,36.8736 110.4,35.7173C 109.869,34.5611 109.598,34.0193 109.41,33.6443C 109.223,33.2693 109.119,33.0611 109.025,32.8553C 108.931,32.6496 108.848,32.4466 108.78,32.319C 108.712,32.1914 108.66,32.1393 107.254,32.4909 Z "/>
		<path fill="#000000" fill-opacity="1" stroke-linejoin="round" stroke="#000000" stroke-opacity="1" d="M 67.2279,71.5622C 67.3529,71.4788 67.3529,71.3955 66.1863,70.0622C 65.0195,68.7288 62.6863,66.1455 60.4363,63.6663C 58.1863,61.1872 56.0195,58.8122 54.5404,57.2497C 53.0613,55.6872 52.2695,54.9372 51.8113,54.6872C 51.3529,54.4372 51.2279,54.6872 50.2488,55.4997C 49.2695,56.3122 47.4363,57.6872 45.582,59.3122C 43.7279,60.9372 41.8529,62.8122 40.3529,64.6247C 38.8529,66.4372 37.7279,68.1872 36.8529,69.4997C 35.9779,70.8122 35.3529,71.6872 34.7904,72.8955C 34.2279,74.1038 33.7279,75.6455 33.4779,76.583C 33.2279,77.5205 33.2279,77.8538 33.3113,78.0622C 33.3945,78.2705 33.5613,78.3538 36.082,80.3747C 38.6029,82.3955 43.4779,86.3538 46.1029,88.4372C 48.7279,90.5205 49.1029,90.7288 49.3113,90.7705C 49.5195,90.8122 49.5613,90.6872 49.8529,89.958C 50.1445,89.2288 50.6863,87.8955 51.2488,86.7288C 51.8113,85.5622 52.3945,84.5622 53.0613,83.6455C 53.7279,82.7288 54.4779,81.8955 55.2279,81.0622C 55.9779,80.2288 56.7279,79.3955 57.6445,78.4997C 58.5613,77.6038 59.6445,76.6455 60.6654,75.833C 61.6863,75.0205 62.6445,74.3538 63.457,73.7913C 64.2695,73.2288 64.9363,72.7705 65.4363,72.458C 65.9363,72.1455 66.2695,71.9788 66.5613,71.8538C 66.8529,71.7288 67.1029,71.6455 67.2279,71.5622 Z "/>
		<path fill="#000000" fill-opacity="1" stroke-linejoin="round" stroke="#000000" stroke-opacity="1" d="M 81.6136,89.0877C 81.3949,89.1814 81.374,89.2023 79.6761,87.1294C 77.9783,85.0564 74.6033,80.8898 72.3011,78.0252C 69.999,75.1607 68.7699,73.5982 68.1658,72.7961C 67.5615,71.9939 67.5824,71.9523 68.1345,71.5461C 68.6865,71.1398 69.7699,70.3689 71.4574,69.3794C 73.1449,68.3898 75.4365,67.1814 77.3428,66.2439C 79.249,65.3064 80.7699,64.6398 82.0824,64.0564C 83.3949,63.4732 84.499,62.9732 85.5615,62.4939C 86.624,62.0148 87.6449,61.5564 88.5199,61.1919C 89.3949,60.8273 90.124,60.5564 90.5928,60.3689C 91.0615,60.1814 91.2699,60.0773 91.3845,60.0357C 91.499,59.9939 91.5199,60.0148 91.8011,60.5357C 92.0824,61.0564 92.624,62.0773 93.447,63.5252C 94.2699,64.9732 95.374,66.8482 96.8115,69.1919C 98.249,71.5357 100.02,74.3482 101.114,76.0877C 102.207,77.8273 102.624,78.4939 102.832,78.8689C 103.041,79.2439 103.041,79.3273 102.676,79.5044C 102.312,79.6814 101.582,79.9523 100.166,80.5564C 98.749,81.1607 96.6449,82.0982 94.8845,82.9002C 93.124,83.7023 91.7074,84.3689 90.3115,85.0148C 88.9158,85.6607 87.5408,86.2857 86.2699,86.8898C 84.999,87.4939 83.8324,88.0773 83.249,88.3689C 82.6658,88.6607 82.6658,88.6607 82.4574,88.7439C 82.249,88.8273 81.8324,88.9939 81.6136,89.0877 Z "/>
		<path fill="#000000" fill-opacity="1" stroke-linejoin="round" stroke="#000000" stroke-opacity="1" d="M 80.8949,89.3169C 80.9574,89.3064 80.999,89.3273 81.6658,90.0773C 82.3324,90.8273 83.624,92.3064 85.3011,94.3898C 86.9783,96.4732 89.0408,99.1607 90.4261,101.004C 91.8115,102.848 92.5199,103.848 93.2074,104.786C 93.8949,105.723 94.5615,106.598 95.0199,107.15C 95.4783,107.702 95.7283,107.931 95.749,108.109C 95.7699,108.286 95.5615,108.411 95.072,108.859C 94.5824,109.306 93.8115,110.077 93.1345,110.973C 92.4574,111.869 91.874,112.89 91.3949,113.963C 90.9158,115.036 90.5408,116.161 90.322,117.327C 90.1033,118.494 90.0408,119.702 90.0095,120.4C 89.9783,121.098 89.9783,121.286 88.4053,120.275C 86.8324,119.265 83.6865,117.056 80.1136,114.525C 76.5408,111.994 72.5408,109.14 70.4261,107.536C 68.3115,105.931 68.0824,105.577 67.9886,105.181C 67.8949,104.786 67.9365,104.348 68.1033,103.577C 68.2699,102.806 68.5615,101.702 69.0095,100.754C 69.4574,99.8064 70.0615,99.0148 71.0095,97.8689C 71.9574,96.7232 73.249,95.2232 74.322,94.1814C 75.3949,93.1398 76.249,92.5564 77.0303,91.9836C 77.8115,91.4107 78.5199,90.8482 79.1136,90.4211C 79.7074,89.9939 80.1865,89.7023 80.4678,89.5357C 80.749,89.3689 80.8324,89.3273 80.8949,89.3169 Z "/>
		<path fill="#000000" fill-opacity="1" stroke-linejoin="round" stroke="#000000" stroke-opacity="1" d="M 114.635,98.5461C 114.603,98.4939 114.562,98.4732 113.999,98.6502C 113.437,98.8273 112.353,99.2023 111.03,99.7544C 109.707,100.306 108.145,101.036 106.843,101.671C 105.541,102.306 104.499,102.848 103.124,103.629C 101.749,104.411 100.041,105.431 98.874,106.161C 97.7074,106.89 97.0824,107.327 96.7074,107.609C 96.3324,107.89 96.2074,108.015 96.5615,108.598C 96.9158,109.181 97.749,110.223 99.2595,112.004C 100.77,113.786 102.957,116.306 105.041,118.692C 107.124,121.077 109.103,123.327 110.312,124.661C 111.52,125.994 111.957,126.411 112.572,126.775C 113.187,127.14 113.978,127.452 114.749,127.598C 115.52,127.744 116.27,127.723 117.218,127.036C 118.166,126.348 119.312,124.994 120.135,123.806C 120.957,122.619 121.457,121.598 121.853,120.827C 122.249,120.056 122.541,119.536 122.739,118.9C 122.937,118.265 123.041,117.515 123.01,116.859C 122.978,116.202 122.812,115.64 122.332,114.525C 121.853,113.411 121.062,111.744 120.135,109.723C 119.207,107.702 118.145,105.327 117.291,103.536C 116.437,101.744 115.791,100.536 115.447,99.8898C 115.103,99.2439 115.062,99.1607 114.989,99.0669C 114.916,98.9732 114.812,98.8689 114.749,98.7752C 114.687,98.6814 114.666,98.5982 114.635,98.5461 Z "/>
		<path fill="#000000" fill-opacity="1" stroke-linejoin="round" stroke="#000000" stroke-opacity="1" d="M 126.26,72.5877C 126.416,72.5982 126.437,72.6814 126.822,73.7752C 127.207,74.8689 127.957,76.9732 128.947,79.5982C 129.937,82.2232 131.166,85.3689 132.01,87.6398C 132.853,89.9107 133.312,91.3064 133.468,92.0044C 133.624,92.7023 133.478,92.7023 132.978,92.7961C 132.478,92.8898 131.624,93.0773 130.478,93.3898C 129.332,93.7023 127.895,94.1398 126.395,94.5877C 124.895,95.0357 123.332,95.4939 121.926,95.9002C 120.52,96.3064 119.27,96.6607 118.135,97.0148C 116.999,97.3689 115.978,97.7232 115.457,97.8898C 114.937,98.0564 114.916,98.0357 114.301,97.2023C 113.687,96.3689 112.478,94.7232 111.093,92.6814C 109.707,90.6398 108.145,88.2023 106.947,86.2752C 105.749,84.3482 104.916,82.9314 104.364,81.9419C 103.812,80.9523 103.541,80.3898 103.385,80.0877C 103.228,79.7857 103.187,79.7439 103.426,79.6189C 103.666,79.4939 104.187,79.2857 106.103,78.6607C 108.02,78.0357 111.332,76.9939 114.114,76.1294C 116.895,75.2648 119.145,74.5773 120.957,74.0357C 122.77,73.4939 124.145,73.0982 124.978,72.8689C 125.812,72.6398 126.103,72.5773 126.26,72.5877 Z "/>
		<path fill="#000000" fill-opacity="1" stroke-linejoin="round" stroke="#000000" stroke-opacity="1" d="M 139.187,48.5877C 139.082,48.5148 138.853,48.5148 137.832,48.5982C 136.812,48.6814 134.999,48.8482 132.895,49.1607C 130.791,49.4732 128.395,49.9314 126.03,50.4419C 123.666,50.9523 121.332,51.5148 119.957,51.8482C 118.582,52.1814 118.166,52.2857 118.218,52.9107C 118.27,53.5357 118.791,54.6814 119.385,56.0877C 119.978,57.4939 120.645,59.1607 121.332,60.7961C 122.02,62.4314 122.728,64.0357 123.405,65.5877C 124.082,67.1398 124.728,68.6398 125.155,69.6919C 125.582,70.7439 125.791,71.3482 125.937,71.7232C 126.082,72.0982 126.166,72.2439 126.228,72.3169C 126.291,72.3898 126.332,72.3898 126.676,72.3377C 127.02,72.2857 127.666,72.1814 128.999,71.9419C 130.332,71.7023 132.353,71.3273 134.03,70.9107C 135.707,70.4939 137.041,70.0357 138.228,69.6814C 139.416,69.3273 140.457,69.0773 141.395,68.9107C 142.332,68.7439 143.166,68.6607 143.739,68.6086C 144.312,68.5564 144.624,68.5357 144.77,68.4732C 144.916,68.4107 144.895,68.3064 144.01,65.2127C 143.124,62.1189 141.374,56.0357 140.437,52.8273C 139.499,49.6189 139.374,49.2857 139.322,49.0461C 139.27,48.8064 139.291,48.6607 139.187,48.5877 Z "/>
		<path fill="#000000" fill-opacity="1" stroke-linejoin="round" stroke="#000000" stroke-opacity="1" d="M 149.905,89.8689C 149.728,89.8064 149.457,89.8273 148.374,89.9523C 147.291,90.0773 145.395,90.3064 143.614,90.6086C 141.832,90.9107 140.166,91.2857 138.739,91.5982C 137.312,91.9107 136.124,92.1607 135.364,92.3482C 134.603,92.5357 134.27,92.6607 134.124,92.8377C 133.978,93.0148 134.02,93.2439 134.447,94.4419C 134.874,95.6398 135.687,97.8064 136.728,100.567C 137.77,103.327 139.041,106.681 139.905,108.9C 140.77,111.119 141.228,112.202 141.582,113.004C 141.937,113.806 142.187,114.327 142.895,114.546C 143.603,114.765 144.77,114.681 146.103,114.629C 147.437,114.577 148.937,114.556 150.374,114.546C 151.812,114.536 153.187,114.536 154.28,114.577C 155.374,114.619 156.187,114.702 156.593,114.744L 156.999,114.744C 156.999,114.702 156.999,114.619 155.885,110.567C 154.77,106.515 152.541,98.4939 151.416,94.4419C 150.291,90.3898 150.27,90.3064 150.218,90.1919C 150.166,90.0773 150.082,89.9314 149.905,89.8689 Z "/>
	</g>
	<path fill="#FFFFFF" fill-opacity="1" stroke-width="4" stroke-linejoin="round" stroke="#000000" stroke-opacity="1" d="M 168.666,157.461C 160.916,125.977 147.999,73.6159 141.624,47.4353C 135.249,21.2547 135.416,21.2547 136.499,21.1714C 137.582,21.088 139.582,20.9214 140.582,20.9214C 141.582,20.9214 141.582,21.088 149.499,52.4214C 157.416,83.7547 173.249,146.255 181.166,177.505C 189.082,208.755 189.082,208.755 187.989,208.947C 186.895,209.14 184.708,209.526 183.458,209.76C 182.208,209.994 181.895,210.078 180.447,204.816C 178.999,199.553 176.416,188.946 168.666,157.461 Z "/>
	<path fill="#000000" fill-opacity="1" stroke-width="4" stroke-linejoin="round" d="M 136.582,7.90054C 131.335,7.90054 127.082,11.4171 127.082,15.7547C 127.082,20.0923 131.335,23.6087 136.582,23.6087C 141.829,23.6087 146.082,20.0923 146.082,15.7547C 146.082,11.4171 141.829,7.90054 136.582,7.90054 Z "/>
	<path fill="#FFFFFF" fill-opacity="1" stroke-width="4" stroke-linejoin="round" d="M 138.062,9.81705C 134.506,9.81705 131.624,12.1397 131.624,15.0045C 131.624,17.8694 134.506,20.192 138.062,20.192C 141.617,20.192 144.499,17.8694 144.499,15.0045C 144.499,12.1397 141.617,9.81705 138.062,9.81705 Z "/>
</svg>
