<?xml version="1.0" encoding="utf-8"?>
<!DOCTYPE svg PUBLIC "-//W3C//DTD SVG 1.1//EN" "http://www.w3.org/Graphics/SVG/1.1/DTD/svg11.dtd">
<svg x="0px" y="0px" width="32" height="32" overflow="hidden" viewBox="0, 0, 1000, 1000" preserveAspectRatio="xMidYMid"
     font-size="0" id="svg" xml:space="preserve" xmlns="http://www.w3.org/2000/svg"
     xmlns:xml="http://www.w3.org/XML/1998/namespace" version="1.1">
  <g xml:space="preserve">
    <g transform="translate(0, 511) scale(0.1, -0.1)" xml:space="preserve">
      <path d="M9507.1 4366.9 C9368.399 4273.8 9364.3 4253.1 9364.3 3520.5 L9364.3 2864.5 L9062.2 2227 L8760 1589.7 L8400 -117.6 L8039.9 -1824.9 L8044.1 -2921.7 C8050.3 -3960.6 8052.4 -4022.7 8089.6 -4076.4 C8139.3 -4148.8 8224.1 -4194.4 8313.1 -4194.4 C8406.199 -4194.4 8474.5 -4155.101 8530.399 -4072.3 L8577.999 -4001.9 L8577.999 -2923.7 L8577.999 -1845.5 L8919.4 -217 L9262.9 1411.7 L9577.5 2069.8 L9892.1 2727.9 L9898.3 3472.9 C9902.5 4191 9902.5 4220 9861.1 4286.2 C9817.699 4356.6 9712.1 4414.5 9627.3 4414.5 C9600.3 4414.5 9546.4 4393.8 9507.1 4366.9 z" xml:space="preserve" />
      <path d="M2121.3 3715 C1761.2 3619.8 1492.2 3319.7 1438.4 2951.4 C1428.1 2872.8 1423.9 2775.5 1432.2 2734.1 L1442.5 2657.5 L821.7001 2347.1 C190.5001 2030.5 130.5001 1991.1 103.6002 1867 C74.60016 1740.8 227.8002 1558.7 364.4001 1558.7 C397.5002 1558.7 689.3002 1691.1 1045.2 1869.1 L1670.2 2181.6 L1777.8 2100.9 C1918.5 1991.2 1988.9 1958.1 2156.5 1918.8 C2251.7 1896 2340.7 1889.8 2431.7 1898.1 L2566.2 1912.6 L2978 1498.7 L3389.8 1086.9 L3064.9 -372.0999 L2740 -1831.1 L2746.2 -2923.8 C2752.4 -3958.5 2754.5 -4022.7 2791.7 -4076.5 C2841.4 -4148.9 2926.2 -4194.5 3015.2 -4194.5 C3108.301 -4194.5 3176.6 -4155.2 3232.5 -4072.4 L3280.101 -4002 L3280.101 -2923.8 L3280.101 -1843.6 L3466.401 -1007.5 C3567.801 -546.0001 3658.901 -146.6001 3665.101 -117.6001 C3675.401 -82.4001 3737.5 -322.5001 3865.801 -883.3001 L4054.101 -1700.7 L4064.401 -2859.6 C4076.801 -3952.3 4078.901 -4022.6 4116.101 -4076.4 C4165.801 -4148.8 4250.601 -4194.4 4339.601 -4194.4 C4432.701 -4194.4 4501 -4155.101 4556.9 -4072.3 L4604.5 -4001.9 L4604.5 -2892.7 L4604.5 -1781.4 L4275.5 -303.8004 C4093.4 509.4996 3940.2 1204.8 3932 1237.9 C3921.7 1281.4 3778.9 1440.7 3468.4 1753.199 C3222.1 2001.5 3035.9 2202.3 3052.4 2196.099 C3068.9 2189.899 3513.9 2042.999 4041.6 1867.099 L4997.7 1548.399 L5972.4 1873.299 L6949.2 2198.199 L7065.1 2107.099 C7207.9 1995.399 7325.8 1941.499 7505.9 1908.399 C8044 1809.099 8577.9 2262.299 8577.9 2821 C8577.9 3270.1 8238.5 3661.199 7783.2 3735.699 C7402.4 3797.8 6988.5 3580.5 6820.9 3230.699 C6752.601 3085.8 6707.101 2856.099 6725.7 2752.699 L6738.1 2686.5 L6307.7 2543.699 C6071.8 2465.099 5864.8 2396.8 5850.4 2390.599 C5831.8 2384.399 5838 2417.499 5869 2491.999 C6036.601 2918.299 5838 3435.699 5426.101 3638.499 C5047.4 3826.799 4639.701 3762.699 4347.9 3468.799 C4089.2 3212.199 4004.4 2804.499 4141 2479.599 C4157.601 2438.199 4167.9 2398.899 4163.8 2394.799 C4159.7 2390.699 3958.9 2452.699 3718.9 2533.499 L3280.2 2680.399 L3280.2 2790.099 C3280.2 3253.699 2961.5 3646.899 2516.601 3731.699 C2365.5 3760.5 2280.6 3756.4 2121.3 3715 z M2574.5 3145.9 C2682.1 3075.5 2742.1 2957.6 2742.1 2821 C2742.1 2564.4 2518.6 2386.4 2255.8 2436.1 C2110.9 2465.1 1957.8 2657.5 1955.7 2816.9 C1955.7 2955.6 2063.3 3125.3 2193.7 3185.3 C2291 3230.7 2473.1 3212.1 2574.5 3145.9 z M5157.1 3183.1 C5308.2 3119 5391 2992.7 5391 2821 C5391 2564.4 5167.5 2386.4 4904.7 2436.1 C4759.8 2465.1 4606.7 2657.5 4604.6 2816.9 C4604.6 2957.6 4714.3 3127.3 4842.6 3185.3 C4925.4 3222.4 5066.1 3220.4 5157.1 3183.1 z M7806 3183.1 C7957.1 3118.9 8039.8 2992.7 8039.8 2820.9 C8039.8 2564.3 7816.3 2386.3 7553.5 2436 C7408.6 2465 7255.5 2657.4 7253.4 2816.8 C7253.4 2957.5 7363.1 3127.2 7491.4 3185.2 C7574.3 3222.4 7715 3220.4 7806 3183.1 z" xml:space="preserve" />
      <path d="M898.2 1386.9 C858.9 1362.1 811.3 1306.2 790.6 1264.8 L753.3 1188.2 L1080.3 -266.6 L1407.3 -1721.4 L1417.7 -2869.9 C1428 -3954.3 1430.1 -4022.6 1467.4 -4076.4 C1517.1 -4148.8 1601.9 -4194.4 1690.9 -4194.4 C1784 -4194.4 1852.3 -4155.1 1908.2 -4072.3 L1955.8 -4001.9 L1955.8 -2892.7 L1955.8 -1781.4 L1616.3 -256.3 C1425.9 594.2 1260.4 1293.7 1241.7 1322.7 C1204.5 1380.6 1094.8 1434.4 1018.2 1434.4 C991.4 1434.4 937.5 1413.8 898.2 1386.9 z" xml:space="preserve" />
      <path d="M6204.3 1393.1 C6167.1 1372.4 6123.6 1333.1 6107.1 1306.2 C6090.5 1279.3 5920.8 563.2999 5732.5 -285.2001 L5389 -1831.1 L5395.2 -2923.8 C5401.4 -3958.5 5403.5 -4022.7 5440.7 -4076.5 C5490.4 -4148.9 5575.2 -4194.5 5664.2 -4194.5 C5757.3 -4194.5 5825.6 -4155.2 5881.5 -4072.4 L5929.1 -4002 L5929.1 -2923.8 L5929.1 -1843.6 L6115.399 -1007.5 C6216.7 -546 6307.8 -146.6 6314 -117.6 C6324.4 -82.39999 6386.4 -322.5 6514.7 -883.3 L6703 -1700.7 L6713.4 -2859.6 C6725.8 -3952.3 6727.9 -4022.6 6765.1 -4076.4 C6814.7 -4148.8 6899.6 -4194.4 6988.6 -4194.4 C7081.7 -4194.4 7150 -4155.101 7205.9 -4072.3 L7253.5 -4001.9 L7253.5 -2892.7 L7253.5 -1783.5 L6914.1 -256.3 C6721.6 606.7 6560.2 1291.7 6539.5 1322.7 C6502.3 1380.6 6394.6 1434.4 6318.1 1434.4 C6291.2 1434.4 6241.5 1415.8 6204.3 1393.1 z" xml:space="preserve" />
    </g>
  </g>
</svg>