<?xml version="1.0" encoding="utf-8"?>
<!DOCTYPE svg PUBLIC "-//W3C//DTD SVG 1.1//EN" "http://www.w3.org/Graphics/SVG/1.1/DTD/svg11.dtd">
<svg xmlns="http://www.w3.org/2000/svg" xmlns:xlink="http://www.w3.org/1999/xlink" version="1.1" baseProfile="full" width="48.625" height="58.1458" viewBox="0 0 48.63 58.15" enable-background="new 0 0 48.63 58.15" xml:space="preserve">
	<linearGradient id="SVGID_Fill1_" gradientUnits="objectBoundingBox" x1="0.5" y1="0.997407" x2="1.49481" y2="0.997407" gradientTransform="rotate(-90.000000 0.500000 0.997407)">
		<stop offset="0" stop-color="#F3F8F8" stop-opacity="1"/>
		<stop offset="1" stop-color="#769A9A" stop-opacity="1"/>
	</linearGradient>
	<path fill="url(#SVGID_Fill1_)" stroke-width="0.2" stroke-linejoin="round" d="M 3.08333,9.02083L 45.5833,9.02083C 47.2402,9.02083 48.5833,10.364 48.5833,12.0208L 48.5833,55.1459C 48.5833,56.8027 47.2402,58.1459 45.5833,58.1459L 3.08333,58.1459C 1.42647,58.1459 0.0833302,56.8027 0.0833302,55.1459L 0.0833302,12.0208C 0.0833302,10.364 1.42647,9.02083 3.08333,9.02083 Z "/>
	<radialGradient id="SVGID_Stroke1_" cx="18.6357" cy="42.4007" r="15.5314" gradientUnits="userSpaceOnUse">
		<stop offset="0" stop-color="#F3F8F8" stop-opacity="1"/>
		<stop offset="1" stop-color="#00EEFC" stop-opacity="1"/>
	</radialGradient>
	<path fill="#000000" fill-opacity="1" stroke-linejoin="round" stroke="url(#SVGID_Stroke1_)" d="M 24.3974,48.0795C 15.4719,48.0795 8.21375,40.9403 8.022,32.0607L 3.53535,32.0091C 3.54717,43.4893 13.0116,52.7922 24.6848,52.7922C 27.9234,52.7922 30.9921,52.0761 33.736,50.7961L 31.1135,46.6437C 29.0641,47.5662 26.7907,48.0795 24.3974,48.0795 Z "/>
	<radialGradient id="SVGID_Stroke2_" cx="31.2724" cy="23.5575" r="14.9928" gradientUnits="userSpaceOnUse">
		<stop offset="0" stop-color="#F3F8F8" stop-opacity="1"/>
		<stop offset="1" stop-color="#00EEFC" stop-opacity="1"/>
	</radialGradient>
	<path fill="#000000" fill-opacity="1" stroke-linejoin="round" stroke="url(#SVGID_Stroke2_)" d="M 40.2248,35.9319L 45.7023,34.3238C 45.7894,33.5569 45.8342,32.7774 45.8342,31.9876C 45.8342,20.4976 36.3653,11.1831 24.6848,11.1831C 21.8636,11.1831 19.1715,11.7264 16.7106,12.7126L 18.2541,16.5119C 20.1512,15.7439 22.2249,15.3209 24.3974,15.3209C 33.4435,15.3209 40.7767,22.6541 40.7767,31.7002C 40.7767,33.1635 40.5848,34.582 40.2248,35.9319 Z "/>
	<path fill="#03D1DD" fill-opacity="1" stroke-width="0.2" stroke-linejoin="round" d="M 9.39613,26.6847L 9.05131,30.6502L 8.61993,38.9826L 8.44752,46.3102L 9.30959,47.9482L 10.6889,48.8102L 12.5854,48.8964L 14.6544,48.293L 16.4651,46.6847L 18.7061,44.6723L 18.7927,42.9778L 18.4475,42.0861L 17.4992,41.9999L 16.8958,42.3447L 14.9134,43.7537L 13.5341,44.8744L 12.7579,44.7585L 12.2406,44.155L 12.3268,37.7757L 12.5854,34.2413L 13.1027,30.3619L 13.4475,26.5688L 12.5858,25.3054L 11.2065,24.9606L 9.82717,25.564L 9.39613,26.6847 Z "/>
	<path fill="#03D1DD" fill-opacity="1" stroke-width="0.2" stroke-linejoin="round" d="M 20.603,28.4088L 19.9134,29.2709L 19.6548,30.2192L 19.4823,32.0295L 19.4823,37.0295L 19.3961,44.0985L 19.9134,45.133L 20.9479,45.3054L 22.4996,45.2192L 23.4479,44.6157L 23.3617,43.4951L 23.0168,42.2882L 22.8444,35.4778L 23.2754,33.4088L 23.4479,30.2192L 23.3617,29.0123L 22.1548,28.2364L 20.603,28.4088 Z "/>
	<path fill="#03D1DD" fill-opacity="1" stroke-width="0.2" stroke-linejoin="round" d="M 20.3444,22.2882L 19.6548,23.064L 19.3099,25.0468L 19.741,26.8571L 20.6892,27.7192L 22.4996,27.7192L 23.103,26.5985L 23.4479,24.6157L 23.103,23.3226L 21.7237,22.2882L 20.3444,22.2882 Z "/>
	<path fill="#03D1DD" fill-opacity="1" stroke-width="0.2" stroke-linejoin="round" d="M 24.5398,26.7709L 23.9651,28.0353L 24.1375,30.3916L 26.7812,37.7479L 28.218,42.2307L 29.08,42.9203L 30.4594,42.8629L 31.149,42.2882L 32.3559,39.9318L 33.9076,35.6215L 34.3674,33.3801L 35.0571,30.7364L 35.4019,28.7249L 35.5168,25.7364L 34.4249,24.4721L 33.3329,23.9548L 32.4708,23.8974L 31.9536,24.8169L 31.6662,29.1272L 31.3214,32.1157L 30.6318,35.6215L 30.172,36.8284L 29.7697,36.7709L 29.4249,35.2192L 29.195,32.6905L 28.4479,29.3571L 28.103,27.8629L 27.0685,27.0008L 24.5398,26.7709 Z "/>
	<path fill="#03D1DD" fill-opacity="1" stroke-width="0.2" stroke-linejoin="round" d="M 41.8458,20.3485L 40.9838,20.9232L 39.3171,22.1301L 38.3976,23.7968L 37.2481,25.3485L 36.7884,27.0152L 36.3286,28.7968L 36.2137,32.6474L 36.6734,35.1186L 37.4206,36.6703L 38.5125,37.7048L 39.432,38.452L 41.616,38.5669L 43.3401,38.0497L 44.4895,37.1301L 45.6389,35.6933L 46.2711,35.0611L 46.7309,33.7393L 46.5585,32.7048L 46.0987,32.2451L 44.9493,32.2451L 43.6274,33.2221L 42.6504,34.314L 41.3286,34.7738L 39.9493,33.8543L 39.547,32.7048L 39.4895,31.2106L 40.524,30.9807L 41.1562,31.6703L 42.3631,31.7278L 43.6849,30.3485L 45.2941,28.6818L 46.0987,27.0152L 46.7309,25.1186L 46.4435,22.7623L 45.6389,21.4979L 44.8344,20.9807L 43.2826,20.3485L 41.8458,20.3485 Z M 40.9838,29.0841L 39.8918,29.2565L 39.6045,27.9347L 39.9206,26.2968L 40.8688,24.6014L 42.2697,23.1502L 43.0743,23.3226L 43.2467,25.9088L 42.4996,27.633L 40.9838,29.0841 Z "/>
	<radialGradient id="SVGID_Stroke3_" cx="38.09" cy="48.3618" r="9.14144" gradientUnits="userSpaceOnUse" gradientTransform="rotate(-3.190698 38.090027 48.361801)">
		<stop offset="0" stop-color="#F3F8F8" stop-opacity="1"/>
		<stop offset="1" stop-color="#00EEFC" stop-opacity="1"/>
	</radialGradient>
	<path fill="#000000" fill-opacity="1" stroke-linejoin="round" stroke="url(#SVGID_Stroke3_)" d="M 31.2471,43.555L 38.702,56.8782L 39.7499,57.1799L 40.4175,56.6345L 40.2024,55.6081L 36.8516,49.7074L 44.3544,39.2151L 31.2471,43.555 Z "/>
	<radialGradient id="SVGID_Stroke4_" cx="9.51245" cy="21.494" r="9.39655" gradientUnits="userSpaceOnUse">
		<stop offset="0" stop-color="#F3F8F8" stop-opacity="1"/>
		<stop offset="1" stop-color="#00EEFC" stop-opacity="1"/>
	</radialGradient>
	<path fill="#000000" fill-opacity="1" stroke-linejoin="round" stroke="url(#SVGID_Stroke4_)" d="M 3.77969,30.6319L 7.57279,30.6319L 7.74521,24.5112L 8.26245,22.356L 9.29693,21.1491L 10.59,21.3216L 11.9693,22.2698L 13.8659,24.856L 14.6418,25.4595L 16.5383,25.6319L 17.5728,25.6319L 17.659,23.994L 14.8142,21.1491L 12.8314,19.7698L 11.1073,18.7353L 13.2624,16.0629L 14.3831,13.7354L 14.8142,12.6147L 13.09,13.3043L 11.2797,15.4595L 9.98659,16.6664L 9.12452,17.0974L 7.40038,16.4078L 6.3659,16.1491L 5.76245,16.8388L 5.76245,15.8043L 5.41762,15.0285L 2.91762,12.4422L 2.14176,12.356L 2.22797,13.8216L 3.69348,15.7181L 4.46935,16.1491L 1.3659,16.1491L 2.31417,17.356L 5.07279,17.0974L 3.60728,18.0457L 2.659,18.6491L 2.48659,19.425L 3.34866,19.5974L 4.12452,19.1664L 5.07279,18.5629L 5.76245,18.4767L 6.4521,19.5112L 5.67624,21.5802L 4.90038,22.8733L 4.21073,24.7698L 3.77969,26.925L 3.77969,30.6319 Z "/>
	<radialGradient id="SVGID_Stroke5_" cx="8.909" cy="14.2526" r="2.11207" gradientUnits="userSpaceOnUse">
		<stop offset="0" stop-color="#F3F8F8" stop-opacity="1"/>
		<stop offset="1" stop-color="#00EEFC" stop-opacity="1"/>
	</radialGradient>
	<path fill="#000000" fill-opacity="1" stroke-linejoin="round" stroke="url(#SVGID_Stroke5_)" d="M 8.8659,12.5285L 7.83142,12.7871L 7.31417,13.6491L 7.05555,15.0285L 7.57279,15.8043L 8.26245,15.6319L 8.52107,15.0285L 9.15325,15.0859L 9.21073,15.5457L 9.61302,15.948L 10.3027,15.5457L 10.5038,14.6836L 10.7624,13.7354L 10.2452,12.7871L 8.8659,12.5285 Z "/>
	<radialGradient id="SVGID_Fill2_" cx="24.5833" cy="20.4581" r="25.083" gradientUnits="userSpaceOnUse">
		<stop offset="0" stop-color="#F3F8F8" stop-opacity="0.352941"/>
		<stop offset="1" stop-color="#F3F8F8" stop-opacity="0.239216"/>
	</radialGradient>
	<path fill="url(#SVGID_Fill2_)" stroke-width="0.2" stroke-linejoin="round" d="M -0.416656,32.7004C 5.67062,27.6071 14.7526,24.3748 24.898,24.3748C 34.6994,24.3748 43.5084,27.3917 49.5833,32.189L 49.5833,11.3685C 49.5833,9.62733 48.1719,8.21584 46.4307,8.21584L 2.736,8.21584C 0.994835,8.21584 -0.416656,9.62733 -0.416656,11.3685L -0.416656,32.7004 Z "/>
	<g>
		<path fill="#15D5D5" fill-opacity="1" stroke-linejoin="round" d="M 6.56166,4.35168C 6.56166,4.62835 6.51333,4.89252 6.41666,5.14418C 6.31999,5.39585 6.1702,5.6171 5.96729,5.80794C 5.76437,5.99876 5.50666,6.15085 5.19416,6.26418C 4.88166,6.37752 4.50791,6.43419 4.07291,6.43419L 3.28791,6.43419L 2.88166,8.35419L 1.60791,8.35419L 2.79916,2.75418L 4.72166,2.75418C 5.03916,2.75418 5.31374,2.79523 5.54541,2.87731C 5.77708,2.9594 5.96791,3.07169 6.11791,3.21419C 6.26791,3.35669 6.37937,3.52502 6.45229,3.71918C 6.5252,3.91335 6.56166,4.12418 6.56166,4.35168 Z M 5.22541,4.43044C 5.22541,4.21294 5.15249,4.03918 5.00666,3.90918C 4.86083,3.77918 4.64583,3.71419 4.36166,3.71419L 3.86541,3.71419L 3.49541,5.47418L 4.07291,5.47418C 4.27374,5.47418 4.44645,5.44606 4.59104,5.38981C 4.73562,5.33356 4.85479,5.25752 4.94854,5.16168C 5.04229,5.06585 5.11187,4.95481 5.15728,4.82856C 5.2027,4.70231 5.22541,4.5696 5.22541,4.43044 Z "/>
		<path fill="#15D5D5" fill-opacity="1" stroke-linejoin="round" d="M 12.3592,5.06668C 12.3592,5.28918 12.3396,5.51315 12.3004,5.73856C 12.2612,5.96397 12.2033,6.1821 12.1267,6.39294C 12.05,6.60377 11.9537,6.80627 11.8379,7.00043C 11.7221,7.1946 11.5871,7.3721 11.4329,7.53294C 11.3029,7.67043 11.161,7.79481 11.0073,7.90606C 10.8535,8.01731 10.6862,8.11169 10.5054,8.18919C 10.3246,8.26669 10.1287,8.32689 9.91791,8.36981C 9.70708,8.41273 9.47916,8.43419 9.23416,8.43419C 8.86416,8.43419 8.53395,8.37335 8.24354,8.25169C 7.95312,8.13002 7.7077,7.96231 7.50728,7.74856C 7.30687,7.53481 7.15395,7.28168 7.04854,6.98918C 6.94312,6.69669 6.89041,6.3796 6.89041,6.03793C 6.89041,5.7971 6.91125,5.55939 6.95291,5.32481C 6.99458,5.09023 7.0577,4.86502 7.14229,4.64919C 7.22687,4.43335 7.33228,4.22752 7.45854,4.03168C 7.58478,3.83585 7.73125,3.65668 7.89791,3.49419C 8.02791,3.36919 8.16854,3.2569 8.31978,3.15731C 8.47104,3.05772 8.63395,2.97169 8.80853,2.89919C 8.98312,2.82668 9.17062,2.77106 9.37103,2.73231C 9.57145,2.69356 9.78625,2.67419 10.0154,2.67419C 10.3621,2.67419 10.6792,2.72856 10.9667,2.83731C 11.2542,2.94606 11.5008,3.10335 11.7067,3.30919C 11.9125,3.51501 12.0727,3.76627 12.1873,4.06293C 12.3019,4.3596 12.3592,4.69418 12.3592,5.06668 Z M 11.0229,5.11169C 11.0229,4.90501 10.9962,4.72023 10.9429,4.55731C 10.8896,4.39439 10.8135,4.25648 10.7148,4.14355C 10.616,4.03064 10.4956,3.94418 10.3535,3.88419C 10.2115,3.82419 10.0504,3.79419 9.87041,3.79419C 9.66208,3.79419 9.46416,3.84126 9.27666,3.93543C 9.08916,4.0296 8.92249,4.16085 8.77666,4.32919C 8.68833,4.43085 8.61041,4.54773 8.54291,4.67981C 8.47541,4.81189 8.41812,4.95189 8.37103,5.09981C 8.32395,5.24773 8.28812,5.39856 8.26354,5.55231C 8.23895,5.70605 8.22666,5.85793 8.22666,6.00793C 8.22666,6.2146 8.25333,6.39939 8.30666,6.56231C 8.35999,6.72523 8.43603,6.8621 8.53478,6.97293C 8.63354,7.08377 8.7527,7.16835 8.89229,7.22668C 9.03187,7.28502 9.18749,7.31419 9.35916,7.31419C 9.57249,7.31419 9.77624,7.26835 9.97041,7.17668C 10.1646,7.08502 10.3346,6.94877 10.4804,6.76794C 10.5712,6.66127 10.6506,6.54106 10.7185,6.40731C 10.7865,6.27356 10.8425,6.13419 10.8867,5.98918C 10.9308,5.84418 10.9646,5.69669 10.9879,5.54668C 11.0112,5.39668 11.0229,5.25169 11.0229,5.11169 Z "/>
		<path fill="#15D5D5" fill-opacity="1" stroke-linejoin="round" d="M 18.3917,8.37418L 17.0479,8.37418L 16.8092,4.74168C 16.8067,4.70251 16.8073,4.65564 16.811,4.60106C 16.8148,4.54648 16.82,4.49043 16.8267,4.43294C 16.8333,4.37543 16.8406,4.3196 16.8485,4.26543C 16.8565,4.21127 16.8642,4.1646 16.8717,4.12543L 16.8567,4.12543C 16.8433,4.1671 16.8269,4.21564 16.8073,4.27106C 16.7877,4.32648 16.7675,4.38273 16.7467,4.43981C 16.7258,4.49689 16.705,4.55127 16.6842,4.60294C 16.6633,4.6546 16.6437,4.70002 16.6254,4.73918L 14.8479,8.35419L 13.4067,8.35419L 13.1217,2.75418L 14.4504,2.75418L 14.4892,6.48793C 14.4917,6.5321 14.491,6.58273 14.4873,6.63981C 14.4835,6.69689 14.4777,6.75418 14.4698,6.81168C 14.4619,6.86919 14.454,6.92336 14.446,6.97418C 14.4381,7.02502 14.4317,7.0671 14.4267,7.10043L 14.4504,7.10043C 14.4604,7.06126 14.4746,7.01501 14.4929,6.96169C 14.5112,6.90836 14.5315,6.85252 14.5535,6.79419C 14.5756,6.73586 14.599,6.67856 14.6235,6.62231C 14.6481,6.56606 14.6696,6.51835 14.6879,6.47919L 16.4892,2.75418L 17.8254,2.75418L 18.0092,6.52669C 18.0117,6.56335 18.0123,6.60564 18.011,6.65356C 18.0098,6.70148 18.0077,6.75148 18.0048,6.80356C 18.0019,6.85564 17.9979,6.9071 17.9929,6.95793C 17.9879,7.00877 17.9829,7.05377 17.9779,7.09293L 17.9929,7.09293C 18.0037,7.05627 18.0175,7.01189 18.0342,6.95981C 18.0508,6.90773 18.069,6.85439 18.0885,6.7998C 18.1081,6.74522 18.1277,6.69189 18.1473,6.63981C 18.1669,6.58772 18.1846,6.5421 18.2004,6.50293L 19.7504,2.75418L 21.0717,2.75418L 18.3917,8.37418 Z "/>
		<path fill="#15D5D5" fill-opacity="1" stroke-linejoin="round" d="M 24.8079,3.79419L 22.8504,3.79419L 22.5842,4.99419L 24.4092,4.99419L 24.1867,6.03418L 22.3704,6.03418L 22.0967,7.31419L 24.1867,7.31419L 23.9679,8.35419L 20.6079,8.35419L 21.7992,2.75418L 25.0267,2.75418L 24.8079,3.79419 Z "/>
		<path fill="#15D5D5" fill-opacity="1" stroke-linejoin="round" d="M 29.7542,4.17043C 29.7542,4.40627 29.7112,4.61919 29.6254,4.80919C 29.5396,4.99918 29.4225,5.16418 29.2742,5.30418C 29.1258,5.44418 28.9521,5.55814 28.7529,5.64606C 28.5537,5.73398 28.3408,5.79335 28.1142,5.82419L 28.1142,5.84044C 28.275,5.89294 28.4127,5.99252 28.5273,6.13918C 28.6419,6.28585 28.7279,6.48127 28.7854,6.72543L 29.1767,8.35419L 27.8242,8.35419L 27.5204,6.90294C 27.4729,6.66877 27.3906,6.4921 27.2735,6.37293C 27.1565,6.25377 26.9962,6.19418 26.7929,6.19418L 26.5792,6.19418L 26.1217,8.35419L 24.8479,8.35419L 26.0392,2.75418L 27.9542,2.75418C 28.2792,2.75418 28.5562,2.79231 28.7854,2.86856C 29.0146,2.94481 29.2008,3.04836 29.3442,3.17918C 29.4875,3.31001 29.5917,3.46085 29.6567,3.63168C 29.7217,3.80252 29.7542,3.9821 29.7542,4.17043 Z M 28.4104,4.38419C 28.4104,4.17336 28.3467,4.00897 28.2192,3.89106C 28.0917,3.77315 27.8992,3.71419 27.6417,3.71419L 27.1142,3.71419L 26.7779,5.23418L 27.2892,5.23418C 27.4825,5.23418 27.6494,5.21065 27.7898,5.16356C 27.9302,5.11648 28.046,5.05418 28.1373,4.97668C 28.2285,4.89919 28.2969,4.80898 28.3423,4.70605C 28.3877,4.60314 28.4104,4.49585 28.4104,4.38419 Z "/>
		<path fill="#15D5D5" fill-opacity="1" stroke-linejoin="round" d="M 35.6317,5.01918C 35.6317,5.31335 35.6019,5.60043 35.5423,5.88043C 35.4827,6.16043 35.3923,6.42398 35.271,6.67106C 35.1498,6.91814 34.9967,7.1446 34.8117,7.35043C 34.6267,7.55627 34.4085,7.73335 34.1573,7.88168C 33.906,8.03001 33.6202,8.14585 33.2998,8.22919C 32.9794,8.31252 32.6242,8.35419 32.2342,8.35419L 29.9679,8.35419L 31.1592,2.75418L 33.1279,2.75418C 33.5396,2.75418 33.901,2.81023 34.2123,2.92231C 34.5235,3.03439 34.7846,3.19002 34.9954,3.38918C 35.2062,3.58835 35.365,3.82648 35.4717,4.10356C 35.5783,4.38065 35.6317,4.68585 35.6317,5.01918 Z M 34.2967,5.11794C 34.2967,4.9121 34.2673,4.7271 34.2085,4.56293C 34.1498,4.39877 34.0598,4.26002 33.9385,4.14668C 33.8173,4.03336 33.6644,3.94627 33.4798,3.88544C 33.2952,3.8246 33.0767,3.79419 32.8242,3.79419L 32.2104,3.79419L 31.4567,7.31419L 32.2254,7.31419C 32.5437,7.31419 32.8304,7.26189 33.0854,7.15731C 33.3404,7.05273 33.5577,6.90418 33.7373,6.71169C 33.9169,6.51918 34.055,6.28815 34.1517,6.01855C 34.2483,5.74898 34.2967,5.44877 34.2967,5.11794 Z "/>
		<path fill="#15D5D5" fill-opacity="1" stroke-linejoin="round" d="M 42.9992,4.01669C 42.9992,4.19002 42.9706,4.3521 42.9135,4.50293C 42.8565,4.65377 42.7712,4.7896 42.6579,4.91043C 42.5446,5.03127 42.4046,5.13439 42.2379,5.21981C 42.0712,5.30522 41.8771,5.36877 41.6554,5.41043L 41.6554,5.42668C 41.8329,5.45251 41.9879,5.50002 42.1204,5.56918C 42.2529,5.63835 42.3642,5.72377 42.4542,5.82544C 42.5442,5.9271 42.6112,6.04189 42.6554,6.16981C 42.6996,6.29773 42.7217,6.4346 42.7217,6.58044C 42.7217,6.83377 42.6723,7.06815 42.5735,7.28356C 42.4748,7.49898 42.3264,7.68626 42.1285,7.84544C 41.9306,8.0046 41.6837,8.12918 41.3879,8.21918C 41.0921,8.30919 40.7462,8.35419 40.3504,8.35419L 38.1279,8.35419L 39.3192,2.75418L 41.3042,2.75418C 41.6083,2.75418 41.8679,2.78606 42.0829,2.84981C 42.2979,2.91356 42.4731,3.00189 42.6085,3.11481C 42.7439,3.22772 42.8429,3.36148 42.9054,3.51606C 42.9679,3.67064 42.9992,3.83752 42.9992,4.01669 Z M 41.6717,4.27544C 41.6717,4.1871 41.6579,4.10856 41.6304,4.03981C 41.6029,3.97106 41.5592,3.91273 41.4992,3.86481C 41.4392,3.81689 41.361,3.77981 41.2648,3.75356C 41.1685,3.72731 41.0512,3.71419 40.9129,3.71419L 40.3942,3.71419L 40.1042,4.99419L 40.6979,4.99419C 40.8496,4.99419 40.9852,4.97731 41.1048,4.94356C 41.2244,4.90981 41.3264,4.86148 41.411,4.79856C 41.4956,4.73564 41.5602,4.6596 41.6048,4.57043C 41.6494,4.48127 41.6717,4.38293 41.6717,4.27544 Z M 41.3854,6.58293C 41.3854,6.39211 41.3177,6.2396 41.1823,6.12543C 41.0469,6.01127 40.8454,5.95419 40.5779,5.95419L 39.9129,5.95419L 39.5929,7.39418L 40.2967,7.39418C 40.4892,7.39418 40.6544,7.37314 40.7923,7.33105C 40.9302,7.28898 41.0427,7.23127 41.1298,7.15794C 41.2169,7.0846 41.2812,6.99898 41.3229,6.90106C 41.3646,6.80315 41.3854,6.6971 41.3854,6.58293 Z "/>
		<path fill="#15D5D5" fill-opacity="1" stroke-linejoin="round" d="M 45.9679,6.32294L 45.5467,8.35419L 44.2729,8.35419L 44.6979,6.34668L 43.6904,2.75418L 45.0579,2.75418L 45.5029,4.88293C 45.5237,4.97127 45.5362,5.05315 45.5404,5.12856C 45.5446,5.20398 45.5492,5.27168 45.5542,5.33168L 45.5617,5.33168C 45.59,5.25835 45.6219,5.18398 45.6573,5.10856C 45.6927,5.03314 45.73,4.96294 45.7692,4.89793L 47.1354,2.75418L 48.5542,2.75418L 45.9679,6.32294 Z "/>
	</g>
</svg>
