<?xml version="1.0" encoding="utf-8"?>
<!DOCTYPE svg PUBLIC "-//W3C//DTD SVG 1.1//EN" "http://www.w3.org/Graphics/SVG/1.1/DTD/svg11.dtd">
<svg x="0px" y="0px" width="32" height="32" overflow="hidden" viewBox="0, 0, 150, 150" preserveAspectRatio="xMidYMid"
     font-size="0" id="svg" xml:space="preserve" xmlns="http://www.w3.org/2000/svg"
     xmlns:xml="http://www.w3.org/XML/1998/namespace" version="1.1">
  <path d="M140.8 150 L9.2 150 C4.1 150 0 146.7614 0 142.733 L0 142.733 L0 7.266983 C0 3.238547 4.1 0 9.2 0 L140.8 0 C145.9 0 150 3.238547 150 7.266983 C150 7.266983 150 7.266983 150 7.266983 L150 142.654 C150 146.6825 145.9 150 140.8 150 C140.8 150 140.8 150 140.8 150 z" stroke-width="0.8887572" id="path6" xml:space="preserve" style="fill:#00884D;" />
  <path d="M129.8 77.4 L129.8 128 L100 128 L94.2 104.4 C96.6 101.6 99 100.2 104.9 99.3 C111.1 98.60001 116.1 94.2 117.7 88.2 C112.6 89.4 108.5 88.2 103.8 87.00001 C99.3 85.80001 94.6 86.00001 90.2 87.50001 C86.89999 88.7 86.1 89.7 86.1 89.7 L95.6 128 L79.3 128 L79.3 77.4 z M71.6 19.1 L71.6 69.7 L38.9 69.7 C39.1 61 42.1 51.6 47.9 45.9 C53.6 50.2 57.5 56.4 58.9 63.4 L67.3 63.4 C65.6 54.6 60.3 47 52.7 42.2 C60.8 35.7 62.4 28.9 62.4 25.4 L59.2 25.4 C58.7 28.8 56.9 33.9 48 39.1 C38.5 33.7 37 28.8 36.7 25.4 L33.5 25.4 C33.5 29.3 35.1 36.2 43.2 42.3 C35.9 49.7 31.5 59.4 30.6 69.7 L21 69.7 L21 19.1 z M52.1 31 C52.1 28.7 50.2 26.8 47.9 26.7 C45.6 26.7 43.7 28.6 43.6 30.9 C43.6 33.2 45.5 35.1 47.8 35.2 C47.8 35.2 47.8 35.2 47.8 35.2 C50.2 35.2 52.1 33.3 52.1 31 z M79.3 19.1 L79.3 28.7 C88.4 29.5 97 33 104 38.8 L98.2 44.6 C92.8 40.3 86.2 37.6 79.3 36.9 L79.3 69.6 L112 69.6 C111.3 62.7 108.6 56.2 104.3 50.8 L110.1 45 C115.9 52 119.3 60.6 120.1 69.7 L129.7 69.7 L129.7 19.1 z M47 108.3 L52.8 102.5 C58.2 106.8 64.7 109.4 71.60001 110.1 L71.60001 77.4 L38.9 77.4 C39.6 84.3 42.3 90.9 46.6 96.3 L40.8 102.1 C35 95.1 31.4 86.4 30.7 77.3 L21.1 77.3 L21.1 128 L71.6 128 L71.6 118.4 C62.6 117.6 54 114.1 47 108.3 z M136.1 19 C138.6 19 140.7 21 140.7 23.6 C140.7 26.1 138.7 28.2 136.1 28.2 C133.6 28.2 131.5 26.2 131.5 23.7 C131.4 21.2 133.4 19.2 135.8 19.1 C135.9 19 136 19 136.1 19 z M136.1 27.4 C138.2 27.4 139.9 25.7 139.9 23.7 C139.9 21.6 138.2 19.9 136.2 19.9 C134.1 19.9 132.4 21.6 132.4 23.6 C132.4 23.6 132.4 23.6 132.4 23.6 C132.3 25.6 133.9 27.4 135.9 27.4 C136 27.4 136 27.4 136.1 27.4 z M134.3 21.4 L136.3 21.4 C137.1 21.3 137.8 21.9 137.9 22.7 C137.9 22.8 137.9 22.8 137.9 22.9 C137.9 23.6 137.4 24.1 136.8 24.3 L138 25.7 L138 25.9 L137 25.9 L135.7 24.4 L135.3 24.4 L135.3 25.9 L134.3 25.9 z M135.3 22.3 L135.3 23.6 L136.3 23.6 C136.6 23.6 136.9 23.3 137 23 C137 23 137 23 137 22.9 C137 22.6 136.8 22.3 136.4 22.2 C136.4 22.2 136.3 22.2 136.3 22.2 C136.3 22.3 135.3 22.3 135.3 22.3 z" id="path8" xml:space="preserve" style="fill:#FFFFFF;" />
  <path d="M24.8 3.4 L26.8 3.4 L31.2 14.5 L29.4 14.5 L28.4 12.1 L22.9 12.1 L21.9 14.5 L20.1 14.5 z M23.4 10.8 L28 10.8 L25.8 5.1 z" id="path10" xml:space="preserve" style="fill:#FFFFFF;" />
  <path d="M33.7 9.9 C33.7 11.9 34.7 13.2 36.9 13.2 C38.6 13.3 40 12.1 40.1 10.5 C40.1 10.3 40.1 10.1 40.1 9.9 L40.1 3.5 L41.8 3.5 L41.8 10 C41.9 12.5 40 14.7 37.4 14.8 C37.2 14.8 37 14.8 36.8 14.8 C33.6 14.8 31.9 12.8 31.9 10 L31.9 3.5 L33.6 3.5 L33.6 9.9 z" id="path12" xml:space="preserve" style="fill:#FFFFFF;" />
  <path d="M49.1 4.9 L49.1 14.5 L47.4 14.5 L47.4 4.9 L43.4 4.9 L43.4 3.4 L52.9 3.4 L52.9 4.9 z" id="path14" xml:space="preserve" style="fill:#FFFFFF;" />
  <path d="M63.2 9.7 L56.3 9.7 L56.3 14.6 L54.6 14.6 L54.6 3.5 L56.3 3.5 L56.3 8.3 L63.2 8.3 L63.2 3.5 L64.9 3.5 L64.9 14.6 L63.2 14.6 z" id="path16" xml:space="preserve" style="fill:#FFFFFF;" />
  <path d="M73.2 3.3 C76.39999 3.3 78.89999 5.8 78.89999 9 C78.89999 12.2 76.39999 14.7 73.2 14.7 C70 14.7 67.5 12.2 67.5 9 C67.4 5.9 69.9 3.3 72.9 3.3 C73 3.3 73.1 3.3 73.2 3.3 z M73.2 13.1 C75.5 13.2 77.39999 11.4 77.39999 9.1 C77.39999 6.8 75.7 4.900001 73.39999 4.900001 C71.09999 4.800001 69.2 6.6 69.2 8.900001 C69.2 8.900001 69.2 9.000001 69.2 9.000001 C69.1 11.2 70.89999 13.1 73.2 13.1 C73.1 13.1 73.2 13.1 73.2 13.1 z" id="path18" xml:space="preserve" style="fill:#FFFFFF;" />
  <path d="M81.5 3.4 L86.4 3.4 C88.9 3.4 90.6 4.5 90.6 7 C90.6 8.8 89.2 10.3 87.4 10.4 L91.3 14.2 L91.3 14.5 L89.3 14.5 L85.3 10.4 L83.3 10.4 L83.3 14.5 L81.60001 14.5 z M83.2 4.9 L83.2 9.1 L86.5 9.1 C87.6 9.200001 88.6 8.400001 88.7 7.3 C88.7 7.2 88.7 7.1 88.7 7 C88.8 5.9 87.89999 4.9 86.8 4.9 C86.7 4.9 86.6 4.9 86.49999 4.9 z" id="path20" xml:space="preserve" style="fill:#FFFFFF;" />
  <path d="M93.4 3.4 L95.1 3.4 L95.1 14.5 L93.4 14.5 z" id="path22" xml:space="preserve" style="fill:#FFFFFF;" />
  <path d="M103.9 4.9 L97.7 4.9 L97.7 3.4 L106.1 3.4 L106.1 4.6 L99.9 13 L106.1 13 L106.1 14.5 L97.7 14.5 L97.7 13.3 z" id="path24" xml:space="preserve" style="fill:#FFFFFF;" />
  <path d="M108.6 14.6 L108.6 3.5 L117.2 3.5 L117.2 5 L110.2 5 L110.2 8.1 L116 8.1 L116 9.6 L110.2 9.6 L110.2 13.1 L117.2 13.1 L117.2 14.6 z" id="path26" xml:space="preserve" style="fill:#FFFFFF;" />
  <path d="M119.8 3.4 L124.3 3.4 C127.6 3.4 130 5.4 130 9 C130 12.6 127.6 14.5 124.3 14.5 L119.8 14.5 z M121.5 4.9 L121.5 13 L124.3 13 C126.5 13 128.4 11.2 128.4 8.9 C128.4 6.7 126.6 4.8 124.3 4.8 L121.5 4.8 z" id="path28" xml:space="preserve" style="fill:#FFFFFF;" />
  <path d="M21.8 131.7 L26.8 131.7 C30.1 131.7 32.5 133.7 32.5 137.3 C32.5 140.9 30 142.8 26.8 142.8 L21.8 142.8 z M24.6 134.1 L24.6 140.4 L26.7 140.4 C28.5 140.4 29.9 139 29.9 137.2 C29.9 135.5 28.5 134 26.7 134 z" id="path30" xml:space="preserve" style="fill:#FFFFFF;" />
  <path d="M35.5 142.9 L35.5 131.8 L44.4 131.8 L44.4 134.2 L38.1 134.2 L38.1 136.1 L43.2 136.1 L43.2 138.4 L38.1 138.4 L38.1 140.5 L44.4 140.5 L44.4 142.9 z" id="path32" xml:space="preserve" style="fill:#FFFFFF;" />
  <path d="M46.2 131.7 L49.2 131.7 L52.1 140.2 L55.1 131.7 L58.1 131.7 L53.8 142.8 L50.3 142.8 z" id="path34" xml:space="preserve" style="fill:#FFFFFF;" />
  <path d="M60 142.9 L60 131.8 L68.9 131.8 L68.9 134.2 L62.6 134.2 L62.6 136.1 L67.7 136.1 L67.7 138.4 L62.60001 138.4 L62.60001 140.5 L68.90001 140.5 L68.90001 142.9 z" id="path36" xml:space="preserve" style="fill:#FFFFFF;" />
  <path d="M72 142.9 L72 131.8 L74.7 131.8 L74.7 140.5 L80.2 140.5 L80.2 142.9 z" id="path38" xml:space="preserve" style="fill:#FFFFFF;" />
  <path d="M87.3 131.6 C90.5 131.6 93 134.1 93 137.3 C93 140.5 90.5 143 87.3 143 C84.10001 143 81.60001 140.5 81.60001 137.3 C81.50001 134.2 84.00001 131.6 87.00001 131.6 C87.2 131.6 87.30001 131.6 87.30001 131.6 z M87.3 140.4 C89 140.5 90.5 139.1 90.60001 137.4 C90.7 135.7 89.3 134.2 87.60001 134.1 C85.90001 134 84.40001 135.4 84.3 137.1 C84.3 137.1 84.3 137.2 84.3 137.2 C84.2 138.9 85.5 140.2 87.2 140.3 C87.3 140.4 87.3 140.4 87.3 140.4 z" id="path40" xml:space="preserve" style="fill:#FFFFFF;" />
  <path d="M95.8 131.7 L101.3 131.7 C103.4 131.5 105.2 133.1 105.4 135.2 C105.4 135.4 105.4 135.6 105.4 135.8 C105.5 138 103.8 139.8 101.6 139.9 C101.5 139.9 101.4 139.9 101.3 139.9 L98.49999 139.9 L98.49999 142.8 L95.8 142.8 z M98.60001 134.1 L98.60001 137.5 L100.9 137.5 C101.8 137.5 102.6 136.7 102.6 135.8 C102.6 134.9 101.8 134.1 100.9 134.1 z" id="path42" xml:space="preserve" style="fill:#FFFFFF;" />
  <path d="M108.1 142.9 L108.1 131.8 L117 131.8 L117 134.2 L110.7 134.2 L110.7 136.1 L115.8 136.1 L115.8 138.4 L110.7 138.4 L110.7 140.5 L117 140.5 L117 142.9 z" id="path44" xml:space="preserve" style="fill:#FFFFFF;" />
  <path d="M119.9 131.7 L125.2 131.7 C127.8 131.7 129.5 132.9 129.5 135.4 C129.5 137 128.4 138.4 126.9 138.7 L130.1 142.3 L130.1 142.8 L127.2 142.8 L123.8 138.9 L122.7 138.9 L122.7 142.8 L120 142.8 z M122.7 134.1 L122.7 136.9 L125.2 136.9 C125.9 137 126.6 136.4 126.7 135.7 C126.7 135.6 126.7 135.6 126.7 135.5 C126.7 134.8 126.1 134.1 125.4 134.1 C125.3 134.1 125.3 134.1 125.2 134.1 z" id="path46" xml:space="preserve" style="fill:#FFFFFF;" />
</svg>