<?xml version="1.0" encoding="utf-8"?>
<!DOCTYPE svg PUBLIC "-//W3C//DTD SVG 1.1//EN" "http://www.w3.org/Graphics/SVG/1.1/DTD/svg11.dtd">
<svg xmlns="http://www.w3.org/2000/svg" xmlns:xlink="http://www.w3.org/1999/xlink" version="1.1" baseProfile="full" width="259" height="259.511" viewBox="0 0 259.00 259.51" enable-background="new 0 0 259.00 259.51" xml:space="preserve">
	<g>
		<linearGradient id="SVGID_Stroke1_" gradientUnits="objectBoundingBox" x1="0.515483" y1="0.50234" x2="1.15287" y2="0.50234" gradientTransform="rotate(91.435913 0.515483 0.502340)">
			<stop offset="0" stop-color="#000000" stop-opacity="1"/>
			<stop offset="1" stop-color="#F8F8F8" stop-opacity="1"/>
		</linearGradient>
		<path fill="#939A95" fill-opacity="1" stroke-width="6" stroke-linejoin="round" stroke="url(#SVGID_Stroke1_)" d="M 126.983,225.768C 137.02,225.768 145.156,227.923 145.156,230.582C 145.156,233.24 137.02,235.395 126.983,235.395C 116.947,235.395 108.811,233.24 108.811,230.582C 108.811,227.923 116.947,225.768 126.983,225.768 Z "/>
		<linearGradient id="SVGID_Stroke2_" gradientUnits="objectBoundingBox" x1="0.524599" y1="0.397268" x2="1.29624" y2="0.397268" gradientTransform="rotate(92.461540 0.524599 0.397268)">
			<stop offset="0" stop-color="#000000" stop-opacity="1"/>
			<stop offset="1" stop-color="#F8F8F8" stop-opacity="1"/>
		</linearGradient>
		<path fill="#939A95" fill-opacity="1" stroke-width="6" stroke-linejoin="round" stroke="url(#SVGID_Stroke2_)" d="M 126.706,204.389C 143.294,204.389 156.741,208.328 156.741,213.188C 156.741,218.047 143.294,221.987 126.706,221.987C 110.119,221.987 96.6719,218.047 96.6719,213.188C 96.6719,208.328 110.119,204.389 126.706,204.389 Z "/>
		<linearGradient id="SVGID_Stroke3_" gradientUnits="objectBoundingBox" x1="0.378338" y1="0.275779" x2="1.16193" y2="0.275779" gradientTransform="rotate(77.604675 0.378338 0.275779)">
			<stop offset="0" stop-color="#000000" stop-opacity="1"/>
			<stop offset="1" stop-color="#F8F8F8" stop-opacity="1"/>
		</linearGradient>
		<path fill="#939A95" fill-opacity="1" stroke-width="6" stroke-linejoin="round" stroke="url(#SVGID_Stroke3_)" d="M 126.976,188.66C 143.564,188.66 157.01,192.599 157.01,197.458C 157.01,202.318 143.564,206.258 126.976,206.258C 110.389,206.258 96.9417,202.318 96.9417,197.458C 96.9417,192.599 110.389,188.66 126.976,188.66 Z "/>
		<linearGradient id="SVGID_Fill1_" gradientUnits="objectBoundingBox" x1="-0.0164754" y1="0.500401" x2="1.01693" y2="0.500401">
			<stop offset="0" stop-color="#6F6F6F" stop-opacity="1"/>
			<stop offset="0.180183" stop-color="#DFDFDF" stop-opacity="1"/>
			<stop offset="0.22973" stop-color="#F8F8F8" stop-opacity="1"/>
			<stop offset="0.963964" stop-color="#1A1A1A" stop-opacity="1"/>
		</linearGradient>
		<path fill="url(#SVGID_Fill1_)" stroke-width="0.2" stroke-linejoin="round" d="M 95.8367,197.62C 95.8059,197.458 95.8059,197.474 95.801,199.409C 95.7964,201.344 95.7869,205.197 95.7822,207.123C 95.7773,209.05 95.7773,209.05 96.2661,209.382C 96.7549,209.714 97.7324,210.378 99.0437,211.153C 100.355,211.927 102,212.812 104.034,213.551C 106.068,214.291 108.492,214.885 111.029,215.297C 113.566,215.71 116.217,215.941 119.36,216.089C 122.503,216.238 126.138,216.304 130.077,216.155C 134.015,216.007 138.256,215.644 141.948,215.116C 145.641,214.588 148.784,213.895 151.226,213.07C 153.669,212.245 155.411,211.288 156.414,210.545C 157.418,209.803 157.683,209.275 157.844,208.939C 158.005,208.604 158.062,208.462 158.079,206.584C 158.097,204.706 158.076,201.092 158.065,199.304C 158.054,197.516 158.054,197.553 158.008,197.769C 157.962,197.986 157.87,198.382 157.753,198.716C 157.635,199.05 157.493,199.323 157.192,199.712C 156.89,200.102 156.428,200.61 155.924,201.049C 155.42,201.488 154.874,201.86 154.33,202.178C 153.787,202.497 153.248,202.763 152.484,203.088C 151.721,203.413 150.734,203.796 149.836,204.106C 148.938,204.415 148.128,204.65 147.308,204.864C 146.488,205.077 145.657,205.269 144.539,205.492C 143.421,205.715 142.015,205.968 140.747,206.164C 139.48,206.36 138.351,206.498 136.83,206.64C 135.31,206.781 133.397,206.925 131.378,207.01C 129.36,207.094 127.234,207.119 125.895,207.125C 124.555,207.132 124.001,207.119 123.259,207.089C 122.517,207.059 121.587,207.012 120.227,206.914C 118.868,206.816 117.078,206.667 115.176,206.432C 113.273,206.197 111.256,205.875 109.431,205.498C 107.607,205.12 105.973,204.687 104.674,204.298C 103.375,203.908 102.409,203.561 101.415,203.091C 100.421,202.621 99.3987,202.027 98.5962,201.433C 97.7939,200.839 97.2117,200.245 96.8142,199.75C 96.4165,199.255 96.2034,198.858 96.0662,198.49C 95.929,198.122 95.8674,197.782 95.8367,197.62 Z "/>
		<linearGradient id="SVGID_Fill2_" gradientUnits="objectBoundingBox" x1="-0.0164754" y1="0.500401" x2="1.01692" y2="0.500401">
			<stop offset="0" stop-color="#6F6F6F" stop-opacity="1"/>
			<stop offset="0.180183" stop-color="#DFDFDF" stop-opacity="1"/>
			<stop offset="0.22973" stop-color="#F8F8F8" stop-opacity="1"/>
			<stop offset="0.963964" stop-color="#1A1A1A" stop-opacity="1"/>
		</linearGradient>
		<path fill="url(#SVGID_Fill2_)" stroke-width="0.2" stroke-linejoin="round" d="M 95.6372,212.774C 95.6064,212.612 95.6064,212.628 95.6018,214.563C 95.5969,216.498 95.5876,220.351 95.5828,222.277C 95.5779,224.203 95.5779,224.203 96.0667,224.536C 96.5554,224.868 97.533,225.532 98.8442,226.306C 100.156,227.081 101.8,227.966 103.835,228.705C 105.869,229.445 108.292,230.039 110.83,230.451C 113.367,230.864 116.018,231.095 119.16,231.243C 122.304,231.392 125.939,231.458 129.877,231.309C 133.816,231.161 138.057,230.798 141.749,230.27C 145.441,229.742 148.584,229.049 151.027,228.224C 153.469,227.398 155.211,226.441 156.215,225.699C 157.218,224.956 157.483,224.428 157.644,224.093C 157.805,223.758 157.862,223.616 157.88,221.738C 157.898,219.86 157.876,216.246 157.866,214.458C 157.855,212.67 157.855,212.707 157.809,212.923C 157.763,213.14 157.67,213.536 157.553,213.87C 157.436,214.204 157.294,214.476 156.992,214.866C 156.691,215.256 156.229,215.763 155.725,216.203C 155.221,216.642 154.674,217.013 154.131,217.332C 153.588,217.651 153.048,217.917 152.285,218.242C 151.521,218.566 150.534,218.95 149.636,219.26C 148.738,219.569 147.929,219.804 147.109,220.018C 146.289,220.231 145.458,220.423 144.34,220.646C 143.221,220.868 141.815,221.122 140.548,221.318C 139.281,221.514 138.152,221.652 136.631,221.793C 135.11,221.935 133.198,222.079 131.179,222.164C 129.16,222.248 127.035,222.273 125.695,222.279C 124.356,222.285 123.802,222.273 123.06,222.243C 122.318,222.213 121.388,222.166 120.028,222.068C 118.668,221.97 116.879,221.821 114.976,221.586C 113.073,221.351 111.057,221.029 109.232,220.652C 107.407,220.274 105.774,219.841 104.475,219.451C 103.176,219.062 102.21,218.715 101.216,218.245C 100.222,217.774 99.1992,217.18 98.3967,216.586C 97.5945,215.992 97.0125,215.398 96.6147,214.903C 96.217,214.408 96.0042,214.012 95.8669,213.644C 95.7295,213.276 95.668,212.936 95.6372,212.774 Z "/>
		<linearGradient id="SVGID_Fill3_" gradientUnits="objectBoundingBox" x1="-0.0164714" y1="0.500408" x2="1.01693" y2="0.500408">
			<stop offset="0" stop-color="#6F6F6F" stop-opacity="1"/>
			<stop offset="0.180183" stop-color="#DFDFDF" stop-opacity="1"/>
			<stop offset="0.22973" stop-color="#F8F8F8" stop-opacity="1"/>
			<stop offset="0.963964" stop-color="#1A1A1A" stop-opacity="1"/>
		</linearGradient>
		<path fill="url(#SVGID_Fill3_)" stroke-width="0.2" stroke-linejoin="round" d="M 108.199,230.628C 108.18,230.54 108.18,230.549 108.177,231.607C 108.175,232.666 108.169,234.773 108.166,235.827C 108.163,236.881 108.163,236.881 108.458,237.063C 108.754,237.244 109.344,237.608 110.135,238.031C 110.927,238.455 111.92,238.939 113.148,239.344C 114.377,239.748 115.84,240.073 117.372,240.299C 118.904,240.524 120.504,240.651 122.402,240.732C 124.3,240.813 126.494,240.849 128.872,240.768C 131.25,240.687 133.811,240.488 136.04,240.199C 138.269,239.911 140.167,239.531 141.641,239.08C 143.116,238.629 144.168,238.105 144.774,237.699C 145.38,237.293 145.54,237.004 145.637,236.821C 145.734,236.637 145.768,236.559 145.779,235.532C 145.79,234.505 145.777,232.528 145.771,231.55C 145.764,230.572 145.764,230.592 145.736,230.71C 145.708,230.829 145.653,231.045 145.582,231.228C 145.511,231.411 145.426,231.56 145.243,231.773C 145.061,231.986 144.782,232.264 144.478,232.504C 144.174,232.745 143.844,232.948 143.516,233.122C 143.188,233.296 142.862,233.442 142.401,233.62C 141.94,233.797 141.344,234.007 140.802,234.177C 140.26,234.346 139.771,234.474 139.276,234.591C 138.781,234.708 138.279,234.813 137.604,234.935C 136.929,235.057 136.08,235.195 135.315,235.303C 134.55,235.41 133.868,235.485 132.95,235.563C 132.031,235.64 130.877,235.719 129.658,235.765C 128.439,235.811 127.156,235.825 126.347,235.828C 125.538,235.832 125.204,235.825 124.756,235.809C 124.308,235.792 123.746,235.766 122.926,235.713C 122.104,235.659 121.024,235.578 119.875,235.449C 118.726,235.321 117.509,235.145 116.407,234.938C 115.305,234.732 114.319,234.495 113.535,234.281C 112.75,234.068 112.167,233.879 111.567,233.621C 110.967,233.364 110.35,233.039 109.865,232.714C 109.381,232.389 109.029,232.064 108.789,231.793C 108.549,231.523 108.421,231.306 108.338,231.104C 108.255,230.903 108.218,230.717 108.199,230.628 Z "/>
	</g>
	<g>
		<path fill="#F6DF3D" fill-opacity="1" stroke-width="4" stroke-linejoin="round" stroke="#E2A007" stroke-opacity="1" d="M 146.753,197.431C 137.121,197.535 117.788,197.535 108.01,197.48C 98.2327,197.424 98.0103,197.313 97.9548,194.035C 97.8992,190.758 98.0103,184.313 96.3992,177.591C 94.7881,170.869 91.4548,163.869 87.0105,156.813C 82.5659,149.758 77.0103,142.646 72.2881,134.535C 67.5659,126.424 63.677,117.313 61.3992,109.258C 59.1213,101.202 58.4548,94.202 58.8992,86.2577C 59.3435,78.3131 60.8992,69.4242 64.3992,61.4796C 67.8992,53.5353 73.3435,46.5353 79.177,40.7577C 85.0103,34.9799 91.2327,30.4242 98.2881,27.1464C 105.344,23.8688 113.233,21.8688 121.066,20.9244C 128.899,19.9799 136.677,20.0909 145.01,22.202C 153.344,24.3131 162.233,28.4242 169.844,34.0909C 177.455,39.7574 183.788,46.9799 188.732,55.0353C 193.677,63.0909 197.233,71.9799 199.01,81.702C 200.788,91.4242 200.788,101.98 199.01,110.758C 197.233,119.535 193.677,126.535 189.899,132.258C 186.121,137.98 182.121,142.424 177.51,148.702C 172.899,154.98 167.677,163.091 164.177,169.758C 160.677,176.424 158.899,181.646 157.865,185.931C 156.83,190.216 156.538,193.563 156.427,195.341C 156.316,197.119 156.385,197.327 146.753,197.431 Z "/>
		<g>
			<radialGradient id="SVGID_Fill4_" cx="128.6" cy="22.973" r="54.2739" gradientUnits="userSpaceOnUse">
				<stop offset="0" stop-color="#FFFFFF" stop-opacity="1"/>
				<stop offset="1" stop-color="#FFFFFF" stop-opacity="0"/>
			</radialGradient>
			<path fill="url(#SVGID_Fill4_)" stroke-width="0.2" stroke-linejoin="round" d="M 125.809,26.6395C 120.976,26.9313 115.226,27.5145 110.726,28.6395C 106.226,29.7645 102.976,31.4313 99.7256,33.6395C 96.4756,35.8478 93.2256,38.5978 90.6838,41.5563C 88.1423,44.5145 86.3088,47.6813 86.2673,51.8895C 86.2256,56.0978 87.9756,61.3478 91.7673,64.8063C 95.5588,68.2645 101.392,69.9313 110.351,70.7228C 119.309,71.5145 131.392,71.4313 140.392,71.1813C 149.392,70.9313 155.309,70.5145 159.809,68.0978C 164.309,65.6813 167.392,61.2645 169.309,57.0563C 171.226,52.8478 171.976,48.8478 170.642,44.5563C 169.309,40.2645 165.892,35.6813 160.184,32.5978C 154.476,29.5145 146.476,27.9313 140.517,27.1395C 134.559,26.3478 130.642,26.3478 125.809,26.6395 Z "/>
			<radialGradient id="SVGID_Fill5_" cx="62.2087" cy="92.4767" r="102.817" gradientUnits="userSpaceOnUse" gradientTransform="rotate(-90.000000 62.208740 92.476685)">
				<stop offset="0" stop-color="#FFFFFF" stop-opacity="1"/>
				<stop offset="1" stop-color="#FFFFFF" stop-opacity="0"/>
			</radialGradient>
			<path fill="url(#SVGID_Fill5_)" stroke-width="0.2" stroke-linejoin="round" d="M 65.8752,95.2682C 66.167,100.101 66.7502,105.851 67.8752,110.351C 69.0002,114.851 70.667,118.101 72.8752,121.351C 75.0837,124.601 77.8337,127.851 80.792,130.393C 83.7502,132.935 86.917,134.768 91.1252,134.81C 95.3337,134.851 100.584,133.101 104.042,129.31C 107.5,125.518 109.167,119.685 109.959,110.726C 110.75,101.768 110.667,89.6847 110.417,80.6847C 110.167,71.6847 109.75,65.7682 107.334,61.2682C 104.917,56.7682 100.5,53.6847 96.292,51.7682C 92.0837,49.8514 88.0837,49.1014 83.792,50.4347C 79.5002,51.7682 74.917,55.1847 71.8337,60.8932C 68.7502,66.6014 67.167,74.6014 66.3752,80.5597C 65.5837,86.5182 65.5837,90.4347 65.8752,95.2682 Z "/>
			<radialGradient id="SVGID_Fill6_" cx="197.757" cy="90.5502" r="102.817" gradientUnits="userSpaceOnUse" gradientTransform="rotate(90.000000 197.756836 90.550171)">
				<stop offset="0" stop-color="#FFFFFF" stop-opacity="1"/>
				<stop offset="1" stop-color="#FFFFFF" stop-opacity="0"/>
			</radialGradient>
			<path fill="url(#SVGID_Fill6_)" stroke-width="0.2" stroke-linejoin="round" d="M 194.09,87.7587C 193.799,82.9254 193.215,77.1754 192.09,72.6754C 190.965,68.1754 189.299,64.9254 187.09,61.6754C 184.882,58.4254 182.132,55.1754 179.174,52.6337C 176.215,50.0919 173.049,48.2587 168.84,48.2169C 164.632,48.1754 159.382,49.9254 155.924,53.7169C 152.465,57.5087 150.799,63.3419 150.007,72.3004C 149.215,81.2587 149.299,93.3419 149.549,102.342C 149.799,111.342 150.215,117.259 152.632,121.759C 155.049,126.259 159.465,129.342 163.674,131.259C 167.882,133.175 171.882,133.925 176.174,132.592C 180.465,131.259 185.049,127.842 188.132,122.134C 191.215,116.425 192.799,108.425 193.59,102.467C 194.382,96.5087 194.382,92.5919 194.09,87.7587 Z "/>
			<radialGradient id="SVGID_Fill7_" cx="129.847" cy="84.1434" r="54.2737" gradientUnits="userSpaceOnUse">
				<stop offset="0" stop-color="#FFFFFF" stop-opacity="1"/>
				<stop offset="1" stop-color="#FFFFFF" stop-opacity="0"/>
			</radialGradient>
			<path fill="url(#SVGID_Fill7_)" stroke-width="0.2" stroke-linejoin="round" d="M 127.056,85.7511C 122.222,85.8788 116.472,86.1346 111.972,86.6278C 107.472,87.121 104.222,87.8517 100.972,88.8199C 97.7224,89.788 94.4724,90.9938 91.9307,92.2906C 89.3889,93.5875 87.5557,94.976 87.5139,96.8209C 87.4724,98.6659 89.2224,100.967 93.0139,102.484C 96.8057,104 102.639,104.731 111.597,105.078C 120.556,105.425 132.639,105.388 141.639,105.279C 150.639,105.169 156.556,104.986 161.056,103.927C 165.556,102.867 168.639,100.931 170.556,99.0861C 172.472,97.2411 173.222,95.4874 171.889,93.6058C 170.556,91.7242 167.139,89.715 161.431,88.3632C 155.722,87.0114 147.722,86.3173 141.764,85.9701C 135.806,85.6232 131.889,85.6232 127.056,85.7511 Z "/>
		</g>
	</g>
	<g>
		<radialGradient id="SVGID_Fill8_" cx="131.073" cy="138.226" r="27.9629" gradientUnits="userSpaceOnUse">
			<stop offset="0" stop-color="#5B5B5A" stop-opacity="0.568627"/>
			<stop offset="1" stop-color="#626262" stop-opacity="0"/>
		</radialGradient>
		<path fill="url(#SVGID_Fill8_)" stroke-width="0.2" stroke-linejoin="round" d="M 129.562,134.221C 126.944,134.293 123.829,134.436 121.392,134.711C 118.954,134.987 117.194,135.396 115.434,135.938C 113.673,136.479 111.913,137.153 110.536,137.879C 109.16,138.604 108.167,139.381 108.144,140.413C 108.122,141.445 109.069,142.732 111.123,143.58C 113.177,144.428 116.336,144.837 121.189,145.031C 126.041,145.225 132.586,145.204 137.461,145.143C 142.335,145.082 145.54,144.98 147.978,144.387C 150.415,143.794 152.085,142.711 153.123,141.68C 154.161,140.648 154.568,139.667 153.845,138.615C 153.123,137.562 151.273,136.438 148.181,135.682C 145.089,134.926 140.756,134.538 137.528,134.344C 134.301,134.15 132.179,134.15 129.562,134.221 Z "/>
		<radialGradient id="SVGID_Fill9_" cx="126.437" cy="123.004" r="23.3344" gradientUnits="userSpaceOnUse" gradientTransform="rotate(-90.000000 126.437012 123.003784)">
			<stop offset="0" stop-color="#5B5B5A" stop-opacity="0.552941"/>
			<stop offset="1" stop-color="#626262" stop-opacity="0"/>
		</radialGradient>
		<path fill="url(#SVGID_Fill9_)" stroke-width="0.2" stroke-linejoin="round" d="M 122.432,124.516C 122.503,127.134 122.646,130.248 122.922,132.685C 123.198,135.123 123.607,136.883 124.148,138.643C 124.69,140.404 125.364,142.164 126.09,143.541C 126.815,144.917 127.592,145.911 128.623,145.933C 129.655,145.956 130.943,145.008 131.791,142.954C 132.639,140.9 133.047,137.741 133.241,132.888C 133.436,128.036 133.415,121.491 133.354,116.617C 133.293,111.742 133.19,108.537 132.598,106.1C 132.005,103.662 130.922,101.992 129.89,100.954C 128.858,99.9156 127.877,99.5096 126.825,100.232C 125.773,100.954 124.649,102.805 123.893,105.897C 123.137,108.988 122.749,113.322 122.554,116.549C 122.36,119.776 122.36,121.897 122.432,124.516 Z "/>
		<radialGradient id="SVGID_Fill10_" cx="128.993" cy="158.976" r="16.2793" gradientUnits="userSpaceOnUse">
			<stop offset="0" stop-color="#5B5B5A" stop-opacity="0.733333"/>
			<stop offset="1" stop-color="#626262" stop-opacity="0"/>
		</radialGradient>
		<path fill="url(#SVGID_Fill10_)" stroke-width="0.2" stroke-linejoin="round" d="M 128.113,154.971C 126.589,155.043 124.776,155.186 123.357,155.462C 121.938,155.738 120.913,156.146 119.888,156.688C 118.863,157.229 117.838,157.904 117.037,158.629C 116.235,159.354 115.657,160.131 115.644,161.163C 115.631,162.195 116.183,163.482 117.378,164.33C 118.574,165.178 120.413,165.587 123.238,165.781C 126.063,165.975 129.873,165.955 132.711,165.893C 135.549,165.832 137.415,165.73 138.834,165.137C 140.253,164.545 141.225,163.462 141.83,162.43C 142.434,161.398 142.671,160.417 142.25,159.365C 141.83,158.312 140.752,157.188 138.952,156.432C 137.152,155.676 134.63,155.288 132.751,155.094C 130.872,154.9 129.637,154.9 128.113,154.971 Z "/>
		<radialGradient id="SVGID_Fill11_" cx="126.312" cy="174.777" r="17.459" gradientUnits="userSpaceOnUse" gradientTransform="rotate(-90.000000 126.311768 174.776855)">
			<stop offset="0" stop-color="#D5C33E" stop-opacity="1"/>
			<stop offset="1" stop-color="#E0E083" stop-opacity="0"/>
		</radialGradient>
		<path fill="url(#SVGID_Fill11_)" stroke-width="0.2" stroke-linejoin="round" d="M 115.085,175.908C 115.286,177.867 115.687,180.197 116.46,182.021C 117.233,183.844 118.379,185.161 119.896,186.478C 121.414,187.795 123.304,189.113 125.338,190.143C 127.371,191.173 129.548,191.916 132.44,191.932C 135.333,191.949 138.941,191.24 141.318,189.703C 143.695,188.167 144.841,185.803 145.385,182.173C 145.929,178.542 145.872,173.645 145.7,169.998C 145.528,166.351 145.241,163.953 143.58,162.129C 141.919,160.306 138.884,159.056 135.991,158.28C 133.099,157.503 130.349,157.199 127.4,157.739C 124.45,158.28 121.3,159.664 119.18,161.977C 117.061,164.291 115.973,167.533 115.429,169.948C 114.885,172.362 114.885,173.949 115.085,175.908 Z "/>
		<radialGradient id="SVGID_Fill12_" cx="140.164" cy="171.637" r="13.585" gradientUnits="userSpaceOnUse" gradientTransform="rotate(-90.000000 140.163818 171.636597)">
			<stop offset="0" stop-color="#5B5B5A" stop-opacity="0.631373"/>
			<stop offset="1" stop-color="#626262" stop-opacity="0"/>
		</radialGradient>
		<path fill="url(#SVGID_Fill12_)" stroke-width="0.2" stroke-linejoin="round" d="M 137.728,172.517C 137.771,174.041 137.858,175.854 138.026,177.273C 138.194,178.692 138.443,179.717 138.772,180.742C 139.101,181.766 139.511,182.791 139.952,183.593C 140.394,184.394 140.866,184.972 141.493,184.985C 142.121,184.999 142.904,184.447 143.42,183.251C 143.936,182.056 144.184,180.216 144.302,177.391C 144.42,174.566 144.408,170.756 144.371,167.918C 144.333,165.08 144.271,163.214 143.911,161.795C 143.55,160.376 142.892,159.404 142.264,158.8C 141.636,158.196 141.04,157.959 140.4,158.379C 139.76,158.8 139.076,159.877 138.616,161.677C 138.157,163.477 137.921,166 137.802,167.879C 137.684,169.758 137.684,170.993 137.728,172.517 Z "/>
	</g>
</svg>
