<?xml version="1.0" encoding="utf-8"?>
<!DOCTYPE svg PUBLIC "-//W3C//DTD SVG 1.1//EN" "http://www.w3.org/Graphics/SVG/1.1/DTD/svg11.dtd">
<svg xmlns="http://www.w3.org/2000/svg" xmlns:xlink="http://www.w3.org/1999/xlink" version="1.1" baseProfile="full" width="258" height="258" viewBox="0 0 258.00 258.00" enable-background="new 0 0 258.00 258.00" xml:space="preserve">
	<linearGradient id="SVGID_Fill1_" gradientUnits="objectBoundingBox" x1="0.5" y1="1.08111" x2="1.66222" y2="1.08111" gradientTransform="rotate(-90.000000 0.500000 1.081108)">
		<stop offset="0" stop-color="#ABC4AB" stop-opacity="1"/>
		<stop offset="0.771552" stop-color="#D5E1D5" stop-opacity="1"/>
		<stop offset="1" stop-color="#FFFFFF" stop-opacity="1"/>
	</linearGradient>
	<path fill="url(#SVGID_Fill1_)" stroke-width="8" stroke-linecap="square" stroke-linejoin="bevel" stroke="#000000" stroke-opacity="1" d="M 44,4L 214,4C 236.091,4 254,21.9086 254,43.9999L 254,214C 254,236.091 236.091,254 214,254L 44,254C 21.9086,254 4,236.091 4,214L 4,43.9999C 4,21.9086 21.9086,4 44,4 Z "/>
	<g>
		<path fill="#FFDE19" fill-opacity="1" stroke-width="5" stroke-linejoin="bevel" stroke="#000000" stroke-opacity="1" d="M 47.508,66.1849L 209.508,65.8827L 209.508,79.0918L 47.8094,79.3077L 47.508,66.1849 Z "/>
		<path fill="#FFDE19" fill-opacity="1" stroke-width="5" stroke-linejoin="bevel" stroke="#000000" stroke-opacity="1" d="M 207.55,66.2759L 237.55,47.3107L 237.55,60.5605L 207.621,79.3988L 207.55,66.2759 Z "/>
		<path fill="#FFDE19" fill-opacity="1" stroke-width="5" stroke-linejoin="bevel" stroke="#000000" stroke-opacity="1" d="M 86.7996,47.3077L 238.55,46.3077L 208.954,66.4303L 50.2996,65.808L 86.7996,47.3077 Z "/>
		<path fill="#FFFFFF" fill-opacity="1" stroke-width="5" stroke-linecap="square" stroke-linejoin="bevel" stroke="#000000" stroke-opacity="1" d="M 205.55,80.308L 235.341,63.4452L 235.341,111.112L 205.55,130.808L 205.55,80.308 Z "/>
		<rect x="57.9247" y="79.8085" fill="#FFFFFF" fill-opacity="1" stroke-width="5" stroke-linecap="square" stroke-linejoin="bevel" stroke="#000000" stroke-opacity="1" width="146.875" height="51.25"/>
		<path fill="#FFFFFF" fill-opacity="1" stroke-width="5" stroke-linecap="square" stroke-linejoin="bevel" stroke="#000000" stroke-opacity="1" d="M 109.754,157.467L 200.087,106.968L 200.087,154.634L 109.754,207.467L 109.754,157.467 Z "/>
		<linearGradient id="SVGID_Fill2_" gradientUnits="objectBoundingBox" x1="-0.0487922" y1="0.500001" x2="1.04879" y2="0.499999">
			<stop offset="0.00925926" stop-color="#C0C0C0" stop-opacity="1"/>
			<stop offset="0.197949" stop-color="#8B8B8B" stop-opacity="0.501961"/>
			<stop offset="0.421296" stop-color="#575757" stop-opacity="0"/>
			<stop offset="0.611111" stop-color="#626262" stop-opacity="0"/>
			<stop offset="1" stop-color="#C0C0C0" stop-opacity="0.4"/>
		</linearGradient>
		<filter id="Filter_GaussianBlur1_" filterUnits="userSpaceOnUse">
			<feGaussianBlur stdDeviation="1.88976"/>
		</filter>
		<path fill="url(#SVGID_Fill2_)" stroke-width="0.2" stroke-linecap="square" stroke-linejoin="bevel" filter="url(#Filter_GaussianBlur1_)" d="M 98.1269,130.71C 131.127,114.975 163.986,115.025 171.518,130.822C 179.05,146.619 158.404,172.181 125.404,187.916C 92.4036,203.651 59.5454,203.601 52.0131,187.804C 44.4808,172.007 65.127,146.445 98.1269,130.71 Z "/>
		<path fill="#FFFFFF" fill-opacity="1" stroke-width="5" stroke-linecap="square" stroke-linejoin="bevel" stroke="#000000" stroke-opacity="1" d="M 29.7537,154.634L 109.087,154.634L 109.129,207.593L 46.8787,207.843L 36.1287,204.843L 29.8787,195.843L 29.7537,154.634 Z "/>
		<path fill="#FFDE19" fill-opacity="1" stroke-width="5" stroke-linejoin="miter" stroke="#000000" stroke-opacity="1" d="M 23.6703,141.718L 113.254,141.426L 113.254,154.176L 23.837,154.384L 23.6703,141.718 Z "/>
		<path fill="#FFDE19" fill-opacity="1" stroke-width="5" stroke-linejoin="miter" stroke="#000000" stroke-opacity="1" d="M 23.0037,141.884L 121.219,89.1558L 202.004,88.6761L 109.782,141.926L 23.0037,141.884 Z "/>
		<linearGradient id="SVGID_Fill3_" gradientUnits="objectBoundingBox" x1="0.997261" y1="0.655398" x2="2.03921" y2="0.655398" gradientTransform="rotate(182.024399 0.997261 0.655398)">
			<stop offset="0.00462963" stop-color="#B24E04" stop-opacity="1"/>
			<stop offset="0.660537" stop-color="#D06515" stop-opacity="1"/>
			<stop offset="0.99537" stop-color="#EE7C27" stop-opacity="1"/>
		</linearGradient>
		<path fill="url(#SVGID_Fill3_)" stroke-width="0.2" stroke-linecap="square" stroke-linejoin="bevel" d="M 75.6746,60.2179L 201.091,60.0996L 215.008,50.1831L 91.758,51.433L 75.6746,60.2179 Z "/>
		<path fill="#FFDE19" fill-opacity="1" stroke-width="5" stroke-linecap="square" stroke-linejoin="bevel" stroke="#000000" stroke-opacity="1" d="M 114.337,140.551L 204.712,87.1758L 204.712,102.676L 114.337,154.217L 114.337,140.551 Z "/>
		<linearGradient id="SVGID_Fill4_" gradientUnits="objectBoundingBox" x1="-0.0487919" y1="0.5" x2="1.04879" y2="0.5">
			<stop offset="0" stop-color="#C0C0C0" stop-opacity="0"/>
			<stop offset="0.19505" stop-color="#989898" stop-opacity="0"/>
			<stop offset="0.425926" stop-color="#707070" stop-opacity="0"/>
			<stop offset="0.787037" stop-color="#6C6C6C" stop-opacity="0"/>
			<stop offset="0.986111" stop-color="#B9B9B9" stop-opacity="0.6"/>
		</linearGradient>
		<filter id="Filter_GaussianBlur2_" filterUnits="userSpaceOnUse">
			<feGaussianBlur stdDeviation="1.88976"/>
		</filter>
		<path fill="url(#SVGID_Fill4_)" stroke-width="0.2" stroke-linecap="square" stroke-linejoin="bevel" filter="url(#Filter_GaussianBlur2_)" d="M 120.282,120.698C 153.281,104.963 186.14,105.013 193.672,120.81C 201.205,136.607 180.559,162.169 147.559,177.904C 114.558,193.639 81.7,193.589 74.1677,177.792C 66.6354,161.995 87.2816,136.433 120.282,120.698 Z "/>
		<path fill="#FFDE19" fill-opacity="1" stroke-width="5" stroke-linejoin="bevel" stroke="#000000" stroke-opacity="1" d="M 49.2953,154.176L 95.7953,154.426L 79.2953,172.426L 35.5453,172.426L 49.2953,154.176 Z "/>
		<linearGradient id="SVGID_Fill5_" gradientUnits="objectBoundingBox" x1="0.99726" y1="0.655409" x2="2.03922" y2="0.655409" gradientTransform="rotate(182.024414 0.997260 0.655409)">
			<stop offset="0.00462963" stop-color="#B24E04" stop-opacity="1"/>
			<stop offset="0.660537" stop-color="#D06515" stop-opacity="1"/>
			<stop offset="0.99537" stop-color="#EE7C27" stop-opacity="1"/>
		</linearGradient>
		<path fill="url(#SVGID_Fill5_)" stroke-width="0.2" stroke-linecap="square" stroke-linejoin="bevel" d="M 71.4663,129.391L 108.55,129.308L 164.883,97.9745L 126.216,98.308L 71.4663,129.391 Z "/>
	</g>
</svg>
