<?xml version="1.0" encoding="utf-8"?>
<!DOCTYPE svg PUBLIC "-//W3C//DTD SVG 1.1//EN" "http://www.w3.org/Graphics/SVG/1.1/DTD/svg11.dtd">
<svg xmlns="http://www.w3.org/2000/svg" xmlns:xlink="http://www.w3.org/1999/xlink" version="1.1" baseProfile="full" width="57.7884" height="60.0001" viewBox="0 0 57.79 60.00" enable-background="new 0 0 57.79 60.00" xml:space="preserve">
	<g>
		<g>
			<path fill="#808080" fill-opacity="1" stroke-width="0.2" stroke-linejoin="round" d="M 31.5035,5.86389C 36.8638,6.27356 40.8769,7.94019 44.6618,10.4418L 48.0902,5.94946C 43.5476,2.52112 38.0072,0.36377 31.9876,0.000244141L 31.5035,5.86389 Z "/>
			<path fill="#808080" fill-opacity="1" stroke-width="0.2" stroke-linejoin="round" d="M 4.65265,24.7399C 4.90924,23.778 5.22256,22.8425 5.58905,21.9359L 1.56525,20.5514C 1.20123,21.6328 0.897003,22.7413 0.656494,23.8734L 4.65265,24.7399 Z "/>
			<path fill="#808080" fill-opacity="1" stroke-width="0.2" stroke-linejoin="round" d="M 26.8394,57.1766C 26.144,57.0643 25.4569,56.9271 24.7794,56.766L 24.3619,59.402C 25.1048,59.5504 25.8567,59.672 26.6165,59.7659L 26.8394,57.1766 Z "/>
			<path fill="#808080" fill-opacity="1" stroke-width="0.2" stroke-linejoin="round" d="M 21.445,55.7534C 16.9511,54.0813 13.0115,51.3169 10.0033,47.7921L 7.68289,49.9569C 11.1663,53.796 15.6342,56.7391 20.6625,58.4186L 21.445,55.7534 Z "/>
			<path fill="#808080" fill-opacity="1" stroke-width="0.2" stroke-linejoin="round" d="M 8.44543,45.7794C 7.95999,45.0858 7.50797,44.3688 7.0918,43.6304L 4.24515,45.3508C 4.7475,46.1798 5.28946,46.9824 5.86823,47.7563L 8.44543,45.7794 Z "/>
			<path fill="#808080" fill-opacity="1" stroke-width="0.2" stroke-linejoin="round" d="M 55.5403,36.96C 55.1933,38.8746 54.6953,40.7225 54.0113,42.4747L 55.8526,43.3507C 56.6581,41.4484 57.2293,39.4606 57.5372,37.431L 55.5403,36.96 Z "/>
			<path fill="#808080" fill-opacity="1" stroke-width="0.2" stroke-linejoin="round" d="M 53.0533,44.62C 52.2173,46.2678 51.1852,47.8102 49.9231,49.2194L 51.3582,50.5051C 52.677,48.9939 53.8195,47.3517 54.761,45.6161L 53.0533,44.62 Z "/>
			<path fill="#808080" fill-opacity="1" stroke-width="0.2" stroke-linejoin="round" d="M 47.8626,51.2216C 47.273,51.7208 46.6452,52.1971 45.9773,52.649L 47.2314,54.3593C 47.9198,53.8365 48.5808,53.2841 49.2124,52.7045L 47.8626,51.2216 Z "/>
			<path fill="#808080" fill-opacity="1" stroke-width="0.2" stroke-linejoin="round" d="M 54.2881,22.4063C 54.8174,24.0065 55.3105,26.3019 55.7679,29.8016L 57.4727,29.7854C 57.025,26.2305 56.4498,23.7402 55.7981,21.9417L 54.2881,22.4063 Z "/>
			<path fill="#808080" fill-opacity="1" stroke-width="0.2" stroke-linejoin="round" d="M 51.1125,17.4066C 52.0891,18.3049 52.9694,18.7438 53.7544,20.6862L 55.0111,20.3698C 54.1125,18.3401 53.0388,17.6036 51.9827,17.0056L 51.1125,17.4066 Z "/>
			<path fill="#808080" fill-opacity="1" stroke-width="0.2" stroke-linejoin="round" d="M 57.7445,32.3324L 56.0545,32.2C 56.0648,32.2946 56.0752,32.3899 56.0855,32.486C 56.0407,33.1366 55.9829,33.7826 55.9106,34.4229L 57.7899,34.6837C 57.8151,33.9022 57.8005,33.1177 57.7445,32.3324 Z "/>
			<path fill="#808080" fill-opacity="1" stroke-width="0.2" stroke-linejoin="round" d="M 30.3999,59.998C 35.5179,59.998 40.2221,58.6396 44.2348,56.3428L 43.0902,54.3202C 39.9533,55.866 36.1194,56.978 31.4539,57.5455C 30.5336,57.5455 29.6229,57.5022 28.7241,57.4174L 28.6815,59.9503C 29.2508,59.9821 29.8237,59.998 30.3999,59.998 Z "/>
			<path fill="#808080" fill-opacity="1" stroke-width="0.2" stroke-linejoin="round" d="M 0.00125122,30.1357C 0.00125122,34.6161 1.00201,38.8446 2.7865,42.6332L 5.87637,41.1774C 4.55237,38.1016 3.82019,34.7289 3.82019,31.1831C 3.82019,29.8365 3.92371,28.5236 4.12335,27.2494L 0.184021,26.8077C 0.0632629,27.9005 0.00125122,29.011 0.00125122,30.1357 Z "/>
			<path fill="#808080" fill-opacity="1" stroke-width="0.2" stroke-linejoin="round" d="M 49.035,13.7103C 50.3451,13.0065 53.3916,11.0532 52.7315,10.2906C 52.081,9.53931 51.3943,8.82068 50.6739,8.1377L 46.9378,12.0571C 47.6346,12.5831 48.3312,13.135 49.035,13.7103 Z "/>
			<path fill="#808080" fill-opacity="1" stroke-width="0.2" stroke-linejoin="round" d="M 25.7039,0.27832L 26.4538,6.20227C 27.1638,6.09314 27.8831,6.00818 28.6107,5.94836L 28.3943,-0.00231934C 27.4867,0.0511475 26.5893,0.145264 25.7039,0.27832 Z "/>
			<path fill="#808080" fill-opacity="1" stroke-width="0.2" stroke-linejoin="round" d="M 2.58148,17.943L 6.59683,19.7633C 10.0258,13.2474 16.3543,8.51514 24.0131,6.68079L 22.6663,0.897583C 13.7023,3.21594 6.29694,9.58301 2.58148,17.943 Z "/>
		</g>
		<ellipse fill="#12508C" fill-opacity="1" stroke-width="0.2" stroke-linejoin="round" cx="29.6833" cy="31.5891" rx="23.4503" ry="23.6038"/>
		<path fill="#FFFFFF" fill-opacity="1" stroke-width="0.2" stroke-linejoin="round" d="M 20.0284,30.1083L 38.9317,22.3425L 30.9616,41.5525L 20.0284,30.1083 Z "/>
	</g>
</svg>
