<?xml version="1.0" encoding="utf-8"?>
<!DOCTYPE svg PUBLIC "-//W3C//DTD SVG 1.1//EN" "http://www.w3.org/Graphics/SVG/1.1/DTD/svg11.dtd">
<svg xmlns="http://www.w3.org/2000/svg" xmlns:xlink="http://www.w3.org/1999/xlink" version="1.1" baseProfile="full" width="257" height="257" viewBox="0 0 257.00 257.00" enable-background="new 0 0 257.00 257.00" xml:space="preserve">
	<path fill="#0025C1" fill-opacity="1" stroke-width="5" stroke-linejoin="round" stroke="#000000" stroke-opacity="1" d="M 121.889,180.457C 132.382,180.457 140.889,189.075 140.889,199.707C 140.889,210.338 132.382,218.957 121.889,218.957C 111.395,218.957 102.889,210.338 102.889,199.707C 102.889,189.075 111.395,180.457 121.889,180.457 Z "/>
	<path fill="#0025C1" fill-opacity="1" stroke-width="5" stroke-linejoin="round" stroke="#000000" stroke-opacity="1" d="M 95.3886,117.957L 78.3886,110.457L 69.3885,99.4569L 65.3885,89.4569L 64.8885,76.4569L 68.8885,65.9569L 74.8885,56.4569L 81.3885,49.9569L 92.3885,42.4569L 100.889,38.9569L 111.889,36.9569L 123.389,36.4569L 135.389,35.4569L 146.889,36.9569L 154.389,40.4569L 164.389,45.4569L 173.389,51.9569L 179.889,58.9569L 186.889,70.9569L 187.889,81.9569L 186.389,95.9569L 181.889,103.457L 174.389,111.457L 165.389,121.457L 153.389,129.957L 141.389,139.957L 134.889,151.457L 131.389,159.457L 131.66,162.99L 131.076,166.144L 128.201,167.644L 117.389,167.457L 113.389,164.457L 113.389,155.457L 119.889,144.957L 128.389,132.457L 139.889,119.457L 144.389,112.457L 148.389,100.957L 148.389,90.4569L 145.889,78.4569L 139.889,72.4569L 129.889,67.9569L 120.889,66.9569L 113.389,67.4569L 104.389,70.4569L 98.3885,75.9569L 98.3885,82.4569L 100.389,88.9569L 107.889,93.9569L 112.889,96.9569L 114.389,101.957L 113.389,107.457L 110.389,111.457L 106.889,114.957L 100.389,116.457L 95.3886,117.957 Z "/>
	<linearGradient id="SVGID_Fill1_" gradientUnits="objectBoundingBox" x1="0.992414" y1="0.442438" x2="1.98393" y2="0.442438" gradientTransform="rotate(165.104248 0.992414 0.442438)">
		<stop offset="0.00925926" stop-color="#FFFFFF" stop-opacity="1"/>
		<stop offset="1" stop-color="#FCFCFF" stop-opacity="0"/>
	</linearGradient>
	<path fill="url(#SVGID_Fill1_)" stroke-width="0.2" stroke-linejoin="round" d="M 140.722,41.9567L 152.055,49.6234L 161.389,56.9569L 169.722,67.2902L 173.389,76.6235L 174.722,88.9569L 172.722,100.957L 169.389,106.624L 174.019,108.17L 183.389,95.6235L 185.055,85.9569L 184.722,72.9569L 177.519,61.1698L 173.055,55.9569L 171.389,53.6235L 166.722,50.6235L 160.055,45.6235L 153.389,42.6235L 147.389,41.2902L 140.722,41.9567 Z "/>
	<linearGradient id="SVGID_Fill2_" gradientUnits="objectBoundingBox" x1="0.992401" y1="0.440365" x2="1.9844" y2="0.440365" gradientTransform="rotate(165.603821 0.992401 0.440365)">
		<stop offset="0.00925926" stop-color="#FFFFFF" stop-opacity="1"/>
		<stop offset="1" stop-color="#FFFFFF" stop-opacity="0"/>
	</linearGradient>
	<path fill="url(#SVGID_Fill2_)" stroke-width="0.2" stroke-linejoin="round" d="M 97.5552,88.0402L 94.5969,85.9985L 92.2219,91.7067L 96.2219,96.0402L 100.222,100.707L 101.222,106.04L 100.889,112.04L 100.347,114.082L 104.764,113.332L 108.43,111.248L 111.264,108.582L 111.18,105.082L 111.514,101.665L 110.514,98.8319L 105.847,95.8319L 102.43,93.6652L 99.4302,91.4985"/>
	<linearGradient id="SVGID_Fill3_" gradientUnits="objectBoundingBox" x1="1.01199" y1="0.456821" x2="2.01995" y2="0.456821" gradientTransform="rotate(160.124634 1.011991 0.456821)">
		<stop offset="0.00925926" stop-color="#FFFFFF" stop-opacity="1"/>
		<stop offset="1" stop-color="#FFFFFF" stop-opacity="0"/>
	</linearGradient>
	<path fill="url(#SVGID_Fill3_)" stroke-width="0.2" stroke-linejoin="round" d="M 123.389,183.29L 127.055,187.623L 129.389,192.29L 129.055,198.957L 127.722,205.624L 125.389,211.29L 126.055,214.29L 129.415,214.191L 133.248,211.941L 136.332,207.774L 137.998,202.857C 137.998,202.857 138.807,199.145 138.389,197.624C 138.024,196.298 137.389,192.29 137.389,192.29L 136.055,188.29L 132.722,185.29L 129.722,183.29L 123.389,183.29 Z "/>
</svg>
