<?xml version="1.0" encoding="utf-8"?>
<!DOCTYPE svg PUBLIC "-//W3C//DTD SVG 1.1//EN" "http://www.w3.org/Graphics/SVG/1.1/DTD/svg11.dtd">
<svg xmlns="http://www.w3.org/2000/svg" xmlns:xlink="http://www.w3.org/1999/xlink" version="1.1" baseProfile="full" width="150" height="78.25" viewBox="0 0 150.00 78.25" enable-background="new 0 0 150.00 78.25" xml:space="preserve">
	<path fill="#8C9E64" fill-opacity="1" stroke-linejoin="round" stroke="#000000" stroke-opacity="1" d="M -112.083,0.499992L 110.667,0.499992C 131.999,0.499992 149.292,17.793 149.292,39.125L 149.292,39.125C 149.292,60.457 131.999,77.75 110.667,77.75L -112.083,77.75C -133.415,77.75 -150.708,60.457 -150.708,39.125L -150.708,39.125C -150.708,17.793 -133.415,0.499992 -112.083,0.499992 Z "/>
	<linearGradient id="SVGID_Fill1_" gradientUnits="objectBoundingBox" x1="0.5" y1="-9.56931" x2="20.6386" y2="-9.56931" gradientTransform="rotate(90.000000 0.500000 -9.569311)">
		<stop offset="0.427907" stop-color="#EEEAEA" stop-opacity="1"/>
		<stop offset="0.576744" stop-color="#FFFFFF" stop-opacity="0"/>
	</linearGradient>
	<path fill="url(#SVGID_Fill1_)" stroke-width="0.2" stroke-linejoin="round" d="M 103.639,1.18751L -105.872,1.18751C -111.419,1.18751 -116.713,1.4717 -121.556,1.98777C -128.905,3.82732 -135.418,7.77177 -140.42,13.1432C -135.171,14.339 -128.325,15.0625 -120.837,15.0625L 120.03,15.0625C 127.231,15.0625 133.839,14.3933 139.003,13.2783C 134.104,7.96698 127.735,4.03311 120.54,2.12341C 115.372,1.52172 109.654,1.18751 103.639,1.18751 Z "/>
	<g>
		<g>
			<path fill="#000000" fill-opacity="1" stroke-linejoin="round" d="M 121.258,42.855L 112.138,42.855L 112.138,51.975L 107.338,51.975L 107.338,42.855L 98.2182,42.855L 98.2182,38.055L 107.338,38.055L 107.338,28.935L 112.138,28.935L 112.138,38.055L 121.258,38.055L 121.258,42.855 Z "/>
		</g>
		<radialGradient id="SVGID_Stroke1_" cx="90.1248" cy="27.9583" r="39" gradientUnits="userSpaceOnUse" gradientTransform="rotate(-30.000000 90.124817 27.958344)">
			<stop offset="0" stop-color="#4D5735" stop-opacity="0.403922"/>
			<stop offset="1" stop-color="#273110" stop-opacity="0.403922"/>
		</radialGradient>
		<radialGradient id="SVGID_Fill2_" cx="90.1248" cy="27.9583" r="39" gradientUnits="userSpaceOnUse" gradientTransform="rotate(-29.999998 90.124817 27.958344)">
			<stop offset="0" stop-color="#A8AEBD" stop-opacity="0.403922"/>
			<stop offset="0.274419" stop-color="#A2A8B7" stop-opacity="0.403922"/>
			<stop offset="0.967442" stop-color="#142935" stop-opacity="0.403922"/>
			<stop offset="1" stop-color="#102531" stop-opacity="0.403922"/>
		</radialGradient>
		<ellipse fill="url(#SVGID_Fill2_)" stroke-width="3" stroke-linejoin="round" stroke="url(#SVGID_Stroke1_)" cx="109.625" cy="40.9583" rx="18" ry="18"/>
		<radialGradient id="SVGID_Stroke2_" cx="128.792" cy="58.2917" r="7.33337" gradientUnits="userSpaceOnUse">
			<stop offset="0" stop-color="#4D5735" stop-opacity="1"/>
			<stop offset="1" stop-color="#273110" stop-opacity="1"/>
		</radialGradient>
		<line fill="none" stroke-width="3" stroke-linejoin="round" stroke="url(#SVGID_Stroke2_)" x1="122.958" y1="53.2083" x2="134.625" y2="63.375"/>
	</g>
</svg>
