<?xml version="1.0" encoding="utf-8"?>
<!DOCTYPE svg PUBLIC "-//W3C//DTD SVG 1.1//EN" "http://www.w3.org/Graphics/SVG/1.1/DTD/svg11.dtd">
<svg xmlns="http://www.w3.org/2000/svg" xmlns:xlink="http://www.w3.org/1999/xlink" version="1.1" baseProfile="full" width="230" height="230" viewBox="0 0 230.00 230.00" enable-background="new 0 0 230.00 230.00" xml:space="preserve">
	<g>
		<linearGradient id="SVGID_Fill1_" gradientUnits="objectBoundingBox" x1="0.439183" y1="-0.100607" x2="1.62552" y2="-0.100607" gradientTransform="rotate(101.132492 0.439183 -0.100607)">
			<stop offset="0.451163" stop-color="#231F1F" stop-opacity="0.690196"/>
			<stop offset="0.865116" stop-color="#6C6464" stop-opacity="0.0980392"/>
		</linearGradient>
		<path fill="url(#SVGID_Fill1_)" stroke-width="0.2" stroke-linejoin="round" d="M 114.373,227.182L 201.61,128.761L 145.063,80.9655L 16.4243,176.298L 114.373,227.182 Z "/>
		<linearGradient id="SVGID_Stroke1_" gradientUnits="objectBoundingBox" x1="0.493438" y1="0.151878" x2="1.20418" y2="0.151878" gradientTransform="rotate(90.000000 0.493438 0.151878)">
			<stop offset="0.116279" stop-color="#231E1E" stop-opacity="1"/>
			<stop offset="1" stop-color="#262323" stop-opacity="1"/>
		</linearGradient>
		<linearGradient id="SVGID_Fill2_" gradientUnits="objectBoundingBox" x1="0.493192" y1="0.142982" x2="1.2221" y2="0.142982" gradientTransform="rotate(90.000000 0.493192 0.142982)">
			<stop offset="0.111628" stop-color="#262A27" stop-opacity="1"/>
			<stop offset="1" stop-color="#606561" stop-opacity="1"/>
		</linearGradient>
		<path fill="url(#SVGID_Fill2_)" stroke-width="3" stroke-linejoin="round" stroke="url(#SVGID_Stroke1_)" d="M 145.398,122.971L 209.038,65.293C 208.816,60.832 209.57,62.7803 209.57,72.1493L 209.783,78.829C 210.636,92.1881 198.171,101.306 203.711,95.475L 131.76,178.67C 128.635,184.325 130.056,175.558 132.328,161.14L 132.044,149.548C 132.044,140.179 128.056,122.254 145.398,122.971 Z "/>
		<linearGradient id="SVGID_Stroke2_" gradientUnits="objectBoundingBox" x1="0.352709" y1="1.0914" x2="1.58622" y2="1.0914" gradientTransform="rotate(-72.047195 0.352709 1.091400)">
			<stop offset="0.227907" stop-color="#000000" stop-opacity="1"/>
			<stop offset="1" stop-color="#FFFFFF" stop-opacity="1"/>
		</linearGradient>
		<linearGradient id="SVGID_Fill3_" gradientUnits="objectBoundingBox" x1="0.348478" y1="1.11204" x2="1.62468" y2="1.11204" gradientTransform="rotate(-71.946465 0.348478 1.112038)">
			<stop offset="0.232558" stop-color="#171F18" stop-opacity="1"/>
			<stop offset="1" stop-color="#989D99" stop-opacity="1"/>
		</linearGradient>
		<path fill="url(#SVGID_Fill3_)" stroke-width="3" stroke-linejoin="round" stroke="url(#SVGID_Stroke2_)" d="M 50.1637,101.302L 121.541,119.38C 130.817,119.38 131.618,123.759 131.618,133.047L 131.618,172.567C 131.618,181.855 125.265,186.389 109.31,180.503L 39.0372,157.008C 24.2012,151.946 27.4899,122.87 27.4908,119.17L 27.4908,101.302C 27.4908,92.0138 40.8883,101.302 50.1637,101.302 Z "/>
		<path fill="#F9CC3E" fill-opacity="1" stroke-width="0.2" stroke-linejoin="round" d="M 133.091,98.1063L 179.797,61.4233L 125.654,53.8026L 76.4327,85.2159L 133.091,98.1063 Z "/>
		<path fill="#DDB637" fill-opacity="1" stroke-width="3" stroke-linejoin="round" stroke="#B29331" stroke-opacity="1" d="M 64.1124,94.7354L 84.2521,99.6655C 93.3939,101.903 98.9821,111.093 96.733,120.191L 96.0172,123.088C 93.7682,132.185 89.6915,139.734 80.5494,137.496L 51.3575,128.908C 42.2155,126.67 40.5226,119.151 42.7716,110.053L 43.4874,107.156C 45.7365,98.0585 54.9703,92.4974 64.1124,94.7354 Z "/>
		<path fill="#DDB637" fill-opacity="1" stroke-width="9" stroke-linejoin="round" stroke="#DDB637" stroke-opacity="1" d="M 123.841,40.8184L 23.8345,96.7999L 132.257,127.07L 216.424,52.4282L 123.841,40.8184 Z M 126.025,50.4137L 189.31,58.8428L 134.068,101.889L 66.4508,86.9043L 126.025,50.4137 Z "/>
		<path fill="#967D2D" fill-opacity="1" stroke-width="3" stroke-linejoin="round" stroke="#B29331" stroke-opacity="1" d="M 178.581,60.5714L 126.469,53.2943L 76.504,84L 77.942,84.293L 126.682,54.1426L 177.729,61.6367L 178.581,60.5714 Z "/>
		<line fill="none" stroke-width="3" stroke-linejoin="round" stroke="#6C5B24" stroke-opacity="1" x1="43.7933" y1="109.24" x2="95.6786" y2="123.766"/>
		<line fill="none" stroke-linejoin="round" stroke="#B29331" stroke-opacity="1" x1="43.4735" y1="110.46" x2="95.3588" y2="124.985"/>
	</g>
	<g>
		<linearGradient id="SVGID_Fill4_" gradientUnits="objectBoundingBox" x1="0" y1="0.5" x2="1" y2="0.5">
			<stop offset="0" stop-color="#000000" stop-opacity="1"/>
			<stop offset="0.272524" stop-color="#080573" stop-opacity="1"/>
			<stop offset="0.525581" stop-color="#110BE7" stop-opacity="0.996078"/>
			<stop offset="1" stop-color="#9789BD" stop-opacity="1"/>
		</linearGradient>
		<path fill="url(#SVGID_Fill4_)" stroke-width="4" stroke-linejoin="round" stroke="#000000" stroke-opacity="1" d="M 199.326,120.859L 200.326,130.109L 199.326,139.109L 194.826,146.859L 188.326,152.609L 181.326,155.109L 175.576,155.859L 175.076,145.359L 173.576,140.609L 168.576,140.109L 130.326,174.109L 129.326,178.109L 129.576,182.609L 129.576,182.859L 133.076,186.609L 168.076,218.359L 171.076,219.109L 171.076,218.859L 174.076,217.609L 175.576,215.359L 175.326,202.859L 183.576,201.359L 192.576,197.609L 200.826,189.609L 206.076,177.859L 209.076,162.609L 207.826,142.609L 203.576,129.359L 199.326,120.859 Z "/>
		<linearGradient id="SVGID_Fill5_" gradientUnits="objectBoundingBox" x1="0" y1="0.5" x2="1" y2="0.5">
			<stop offset="0" stop-color="#574781" stop-opacity="1"/>
			<stop offset="0.272524" stop-color="#4A4186" stop-opacity="1"/>
			<stop offset="0.525581" stop-color="#3E3C8C" stop-opacity="0.996078"/>
			<stop offset="1" stop-color="#190257" stop-opacity="1"/>
		</linearGradient>
		<path fill="url(#SVGID_Fill5_)" stroke-width="4" stroke-linejoin="round" stroke="#000000" stroke-opacity="1" d="M 199.451,121.026L 194.784,116.109L 190.284,112.193L 186.034,110.359L 183.618,110.359L 182.201,112.109L 181.951,114.693L 183.284,118.943L 185.951,122.109L 189.618,126.276L 193.284,131.526L 194.868,136.693L 195.784,143.526L 195.034,146.443L 199.868,139.276L 200.701,127.943L 199.451,121.026 Z "/>
	</g>
	<g>
		<linearGradient id="SVGID_Fill6_" gradientUnits="objectBoundingBox" x1="1" y1="0.5" x2="2" y2="0.5" gradientTransform="rotate(180.000000 1.000000 0.500000)">
			<stop offset="0" stop-color="#000000" stop-opacity="1"/>
			<stop offset="0.272524" stop-color="#080573" stop-opacity="1"/>
			<stop offset="0.525581" stop-color="#110BE7" stop-opacity="0.996078"/>
			<stop offset="1" stop-color="#9789BD" stop-opacity="1"/>
		</linearGradient>
		<path fill="url(#SVGID_Fill6_)" stroke-width="4" stroke-linejoin="round" stroke="#000000" stroke-opacity="1" d="M 20.826,103.068L 19.826,93.8175L 20.826,84.8175L 25.326,77.0675L 31.826,71.3175L 38.826,68.8175L 44.576,68.0675L 45.076,78.5675L 46.576,83.3175L 51.576,83.8175L 89.826,49.8175L 90.826,45.8175L 90.576,41.3175L 90.576,41.0675L 87.076,37.3175L 52.076,5.5675L 49.076,4.8175L 49.076,5.0675L 46.076,6.3175L 44.576,8.5675L 44.826,21.0675L 36.576,22.5675L 27.576,26.3175L 19.326,34.3175L 14.076,46.0675L 11.076,61.3175L 12.326,81.3175L 16.576,94.5675L 20.826,103.068 Z "/>
		<linearGradient id="SVGID_Fill7_" gradientUnits="objectBoundingBox" x1="1" y1="0.5" x2="2" y2="0.5" gradientTransform="rotate(180.000000 1.000000 0.500000)">
			<stop offset="0" stop-color="#574781" stop-opacity="1"/>
			<stop offset="0.272524" stop-color="#4A4186" stop-opacity="1"/>
			<stop offset="0.525581" stop-color="#3E3C8C" stop-opacity="0.996078"/>
			<stop offset="1" stop-color="#190257" stop-opacity="1"/>
		</linearGradient>
		<path fill="url(#SVGID_Fill7_)" stroke-width="4" stroke-linejoin="round" stroke="#000000" stroke-opacity="1" d="M 20.701,102.901L 25.3678,107.818L 29.8678,111.734L 34.1178,113.568L 36.5343,113.568L 37.951,111.818L 38.201,109.234L 36.8678,104.984L 34.201,101.818L 30.5343,97.6509L 26.8678,92.4009L 25.2843,87.2343L 24.3677,80.4009L 25.1177,77.4843L 20.2844,84.6509L 19.451,95.9843L 20.701,102.901 Z "/>
	</g>
</svg>
