<?xml version="1.0" encoding="utf-8"?>
<!DOCTYPE svg PUBLIC "-//W3C//DTD SVG 1.1//EN" "http://www.w3.org/Graphics/SVG/1.1/DTD/svg11.dtd">
<svg x="0" y="0" width="32" height="31.998" overflow="hidden" viewBox="0, 0, 32.002, 32" preserveAspectRatio="xMidYMid" font-size="0" id="svg" xml:space="default" style="fill:#000000;" xmlns="http://www.w3.org/2000/svg" xmlns:xlink="http://www.w3.org/1999/xlink" xmlns:xml="http://www.w3.org/XML/1998/namespace" version="1.1">
  <g id="g824" xml:space="default">
    <path d="M23.586 9.444 C24.466 10.11 25.558 10.508 26.746 10.508 C29.648 10.508 32 8.156 32 5.254 C32 2.352 29.648 0 26.746 0 C23.846 0 21.492 2.352 21.492 5.254 C21.492 5.256 21.492 5.258 21.492 5.258 L8.524 11.528 C7.626 10.812 6.49 10.38 5.254 10.38 C2.352 10.38 0 12.734 0 15.634 C0 18.534 2.352 20.888 5.254 20.888 C6.302 20.888 7.278 20.576 8.098001 20.048 L21.494 26.524 C21.494 26.526 21.494 26.528 21.494 26.528 C21.494 29.43 23.846 31.782 26.748 31.782 C29.65 31.782 32.002 29.43 32.002 26.528 C32.002 23.626 29.65 21.274 26.748 21.274 C25.56 21.274 24.468 21.672 23.588 22.338 L10.488 16.006 C10.494 15.926 10.498 15.848 10.5 15.768 z" id="path2" xml:space="default" connector-curvature="0" style="fill:#00FF00;" />
  </g>
</svg>