<?xml version="1.0" encoding="utf-8"?>
<!DOCTYPE svg PUBLIC "-//W3C//DTD SVG 1.1//EN" "http://www.w3.org/Graphics/SVG/1.1/DTD/svg11.dtd">
<svg xmlns="http://www.w3.org/2000/svg" xmlns:xlink="http://www.w3.org/1999/xlink" version="1.1" baseProfile="full" width="219.1" height="195" viewBox="0 0 219.10 195.00" enable-background="new 0 0 219.10 195.00" xml:space="preserve">
	<linearGradient id="SVGID_Fill1_" gradientUnits="objectBoundingBox" x1="9.21285e-006" y1="0.499999" x2="1.00001" y2="0.499999">
		<stop offset="0" stop-color="#8EB044" stop-opacity="1"/>
		<stop offset="0.344186" stop-color="#586B2F" stop-opacity="1"/>
		<stop offset="1" stop-color="#23271B" stop-opacity="1"/>
	</linearGradient>
	<path fill="url(#SVGID_Fill1_)" stroke-width="0.5" stroke-linejoin="round" stroke="#000000" stroke-opacity="1" d="M 205.6,0.250427L 205.6,0.250427C 212.918,0.250427 218.85,6.1828 218.85,13.5004L 218.85,181.5C 218.85,188.818 212.918,194.75 205.6,194.75L 205.6,194.75C 198.282,194.75 192.35,188.818 192.35,181.5L 192.35,13.5004C 192.35,6.1828 198.282,0.250427 205.6,0.250427 Z "/>
	<linearGradient id="SVGID_Fill2_" gradientUnits="objectBoundingBox" x1="1.01887" y1="0.500026" x2="2.05634" y2="0.500026" gradientTransform="rotate(180.000000 1.018866 0.500026)">
		<stop offset="0" stop-color="#9BC049" stop-opacity="1"/>
		<stop offset="1" stop-color="#23271B" stop-opacity="1"/>
	</linearGradient>
	<path fill="url(#SVGID_Fill2_)" stroke-width="0.2" stroke-linejoin="round" d="M 200.543,184.519L 200.543,7.56854C 200.543,4.93158 202.681,2.79364 205.319,2.79364L 205.319,2.79364C 207.956,2.79364 210.093,4.93158 210.093,7.56854L 210.093,184.519C 210.093,187.156 207.956,189.294 205.319,189.294L 205.319,189.294C 202.681,189.294 200.543,187.156 200.543,184.519 Z "/>
</svg>
