<?xml version="1.0" encoding="utf-8"?>
<!DOCTYPE svg PUBLIC "-//W3C//DTD SVG 1.1//EN" "http://www.w3.org/Graphics/SVG/1.1/DTD/svg11.dtd">
<svg xmlns="http://www.w3.org/2000/svg" xmlns:xlink="http://www.w3.org/1999/xlink" version="1.1" baseProfile="full" width="260" height="260" viewBox="0 0 260.00 260.00" enable-background="new 0 0 260.00 260.00" xml:space="preserve">
	<g>
		<path fill="#000000" fill-opacity="1" stroke-width="0.2" stroke-linejoin="round" d="M 119.217,3.69308L 113.91,6.40495L 116.505,6.4437L 120.961,3.69308L 119.217,3.69308 Z "/>
		<path fill="#000000" fill-opacity="1" stroke-width="0.2" stroke-linejoin="round" d="M 106.51,9.11681L 101.203,12.7585L 106.859,12.7972L 110.81,9.19431L 106.51,9.11681 Z "/>
		<path fill="#000000" fill-opacity="1" stroke-width="0.2" stroke-linejoin="round" d="M 95.1978,17.5623L 89.9291,22.6761L 97.2899,22.6761L 101.435,17.6011L 95.1978,17.5623 Z "/>
		<path fill="#000000" fill-opacity="1" stroke-width="0.2" stroke-linejoin="round" d="M 96.1405,24.3032L 88.3923,24.3291L 85.448,28.0482L 93.8548,28.0482"/>
		<path fill="#000000" fill-opacity="1" stroke-width="0.2" stroke-linejoin="round" d="M 83.5497,31.1991L 81.5158,34.2209L 90.5618,34.2016L 92.557,31.1991L 83.5497,31.1991 Z "/>
		<path fill="#000000" fill-opacity="1" stroke-width="0.2" stroke-linejoin="round" d="M 80.8572,36.1967L 77.8161,42.957L 88.6442,42.957L 90.3294,36.2161L 80.8572,36.1967 Z "/>
		<path fill="#000000" fill-opacity="1" stroke-width="0.2" stroke-linejoin="round" d="M 77.2156,45.4945L 76.7313,48.5357L 87.7919,48.5357L 88.2761,45.4945L 77.2156,45.4945 Z "/>
		<path fill="#000000" fill-opacity="1" stroke-width="0.2" stroke-linejoin="round" d="M 76.5376,51.2476L 76.1502,54.6568L 87.327,54.6761L 87.7144,51.3057"/>
		<path fill="#000000" fill-opacity="1" stroke-width="0.2" stroke-linejoin="round" d="M 76.1825,56.5099L 76.105,59.5575L 87.4174,59.5316L 87.3915,56.484L 76.1825,56.5099 Z "/>
		<path fill="#000000" fill-opacity="1" stroke-width="0.2" stroke-linejoin="round" d="M 76.5699,63.1475L 76.854,66.4792L 88.6312,66.4534L 87.8564,63.1475L 76.5699,63.1475 Z "/>
		<path fill="#000000" fill-opacity="1" stroke-width="0.2" stroke-linejoin="round" d="M 77.6547,70.3016L 78.3262,73.8142L 90.4392,73.8141L 89.0961,70.3016L 77.6547,70.3016 Z "/>
		<path fill="#000000" fill-opacity="1" stroke-width="0.2" stroke-linejoin="round" d="M 79.1268,76.2936L 81.6321,82.6729L 93.4868,82.6471L 90.9299,76.2935L 79.1268,76.2936 Z "/>
		<path fill="#000000" fill-opacity="1" stroke-width="0.2" stroke-linejoin="round" d="M 82.5618,85.643L 84.7572,90.1628L 96.4827,90.137L 94.6232,85.6172L 82.5618,85.643 Z "/>
		<path fill="#000000" fill-opacity="1" stroke-width="0.2" stroke-linejoin="round" d="M 132.37,3.57687L 136.263,6.44368L 138.491,6.42433L 133.958,3.61562L 132.37,3.57687 Z "/>
		<path fill="#000000" fill-opacity="1" stroke-width="0.2" stroke-linejoin="round" d="M 141.551,8.8069L 145.697,12.3323L 152.128,12.2935L 146.859,8.76816L 141.551,8.8069 Z "/>
		<path fill="#000000" fill-opacity="1" stroke-width="0.2" stroke-linejoin="round" d="M 151.314,16.865L 155.537,21.9788L 163.944,21.9788L 159.527,16.8262L 159.411,16.8262L 151.314,16.865 Z "/>
		<path fill="#000000" fill-opacity="1" stroke-width="0.2" stroke-linejoin="round" d="M 156.738,23.7221L 159.372,27.0539L 168.864,27.0926L 165.919,23.6834"/>
		<path fill="#000000" fill-opacity="1" stroke-width="0.2" stroke-linejoin="round" d="M 161.161,30.1239L 162.594,32.9781L 171.582,33.0556L 169.955,30.1888L 161.161,30.1239 Z "/>
		<path fill="#000000" fill-opacity="1" stroke-width="0.2" stroke-linejoin="round" d="M 163.311,35.4382L 165.267,41.6561L 175.456,41.6174L 172.686,35.4576L 163.311,35.4382 Z "/>
		<path fill="#000000" fill-opacity="1" stroke-width="0.2" stroke-linejoin="round" d="M 166.003,44.4261L 166.739,47.2735L 176.599,47.2735L 175.747,44.4648L 166.003,44.4261 Z "/>
		<path fill="#000000" fill-opacity="1" stroke-width="0.2" stroke-linejoin="round" d="M 167.03,50.5084L 167.049,53.2203L 177.219,53.1622L 177.18,50.5859L 167.03,50.5084 Z "/>
		<path fill="#000000" fill-opacity="1" stroke-width="0.2" stroke-linejoin="round" d="M 167.127,55.6028L 167.049,58.3728L 177.374,58.2953L 177.393,55.5835L 167.127,55.6028 Z "/>
		<path fill="#000000" fill-opacity="1" stroke-width="0.2" stroke-linejoin="round" d="M 166.759,62.4019L 166.43,65.6755L 176.289,65.5592L 177.044,62.4019L 166.759,62.4019 Z "/>
		<path fill="#000000" fill-opacity="1" stroke-width="0.2" stroke-linejoin="round" d="M 165.674,69.627L 164.047,73.2881L 174.933,73.2881L 175.902,69.6271L 165.674,69.627 Z "/>
		<path fill="#000000" fill-opacity="1" stroke-width="0.2" stroke-linejoin="round" d="M 163.279,75.8579L 160.593,82.0048L 172.912,82.0048L 174.668,75.8579L 163.279,75.8579 Z "/>
		<path fill="#000000" fill-opacity="1" stroke-width="0.2" stroke-linejoin="round" d="M 171.776,85.1299L 159.275,85.1299L 156.486,89.7788L 169.09,89.753"/>
		<path fill="#000000" fill-opacity="1" stroke-width="0.2" stroke-linejoin="round" d="M 103.669,66.0952L 150.933,66.0435L 149.125,64.2356L 146.233,62.4794L 109.868,62.531L 106.562,63.9773L 103.669,66.0952 Z "/>
		<path fill="#000000" fill-opacity="1" stroke-width="0.2" stroke-linejoin="round" d="M 100.002,69.6593L 98.4521,71.3123L 98.2972,72.9136L 98.762,73.7917L 155.117,73.7917L 155.789,72.552L 155.066,70.6925L 153.464,69.556L 100.002,69.6593 Z "/>
		<path fill="#000000" fill-opacity="1" stroke-width="0.2" stroke-linejoin="round" d="M 99.5369,75.8579L 98.1939,76.9943L 98.0905,79.2671L 100.208,82.9862L 154.911,82.9346L 155.944,80.7651L 155.789,76.4778L 154.807,75.8062L 99.5369,75.8579 Z "/>
		<path fill="#000000" fill-opacity="1" stroke-width="0.2" stroke-linejoin="round" d="M 102.998,86.0855L 101.655,88.0484L 101.5,89.598L 102.481,90.2695L 152.07,90.1662L 152.431,89.2364L 152.483,87.8934L 151.088,85.7239L 149.332,85.4656L 104.599,85.569"/>
		<path fill="#000000" fill-opacity="1" stroke-width="0.2" stroke-linejoin="round" d="M 86.1389,92.0482L 87.5853,94.7342L 167.753,94.321L 168.476,91.6349L 86.1389,92.0482 Z "/>
		<path fill="#000000" fill-opacity="1" stroke-width="0.2" stroke-linejoin="round" d="M 87.724,97.0742L 86.3073,98.0742L 85.724,99.4075L 168.219,99.3034L 168.234,97.7409L 167.625,96.7252L 87.724,97.0742 Z "/>
		<path fill="#000000" fill-opacity="1" stroke-width="0.2" stroke-linejoin="round" d="M 85.125,102.512L 84.3281,103.324L 84.0625,104.548L 83.9375,105.736L 170.5,105.486L 170.5,104.449L 170.047,103.074L 169.016,102.366L 85.125,102.512 Z "/>
		<path fill="#000000" fill-opacity="1" stroke-width="0.2" stroke-linejoin="round" d="M 83.875,109.111L 83.5,110.611L 83.6875,111.923L 170.688,111.923L 171.125,110.111L 170.813,108.486"/>
		<path fill="#000000" fill-opacity="1" stroke-width="0.2" stroke-linejoin="round" d="M 84.1875,115.361L 85.3125,118.548L 87.4375,121.236L 91.1875,123.986L 93.375,124.861L 162.313,124.798L 165,122.673L 167.938,119.673L 169.5,117.298L 170.188,114.986L 84.1875,115.361 Z "/>
		<path fill="#000000" fill-opacity="1" stroke-width="0.2" stroke-linejoin="round" d="M 94.9375,127.236L 93.4375,128.673L 93.4375,133.548L 94.75,134.736L 160.125,133.923L 160.625,132.673L 160.438,127.923L 158.938,127.236L 94.9375,127.236 Z "/>
		<path fill="#000000" fill-opacity="1" stroke-width="0.2" stroke-linejoin="round" d="M 93.625,136.861L 93.75,143.923L 160.438,143.923L 160.313,137.048L 93.625,136.861 Z "/>
		<path fill="#000000" fill-opacity="1" stroke-width="0.2" stroke-linejoin="round" d="M 93.375,147.173L 93.375,150.673L 160.438,150.611L 160.438,147.048L 93.375,147.173 Z "/>
		<path fill="#000000" fill-opacity="1" stroke-width="0.2" stroke-linejoin="round" d="M 93.3125,155.673L 93.375,158.861L 160.625,158.736L 160.563,155.736L 93.3125,155.673 Z "/>
		<path fill="#000000" fill-opacity="1" stroke-width="0.2" stroke-linejoin="round" d="M 93.8125,171.861L 93.8125,174.861L 165.5,174.986L 165.688,173.361L 165.313,171.861L 93.8125,171.861 Z "/>
		<path fill="#000000" fill-opacity="1" stroke-width="0.2" stroke-linejoin="round" d="M 77.625,171.798L 84.75,171.673L 88.375,173.673L 88.125,174.673L 77.4375,174.736L 77.625,171.798 Z "/>
		<path fill="#000000" fill-opacity="1" stroke-width="0.2" stroke-linejoin="round" d="M 172.375,174.611L 182.25,174.548L 182.625,173.423L 181.938,172.111L 174.313,172.048L 172.75,173.173L 172.375,174.611 Z "/>
		<path fill="#000000" fill-opacity="1" stroke-width="0.2" stroke-linejoin="round" d="M 77.5625,176.819L 76.5625,177.986L 76.3959,179.569L 183.396,179.652L 183.063,177.569L 182.063,176.902L 77.5625,176.819 Z "/>
		<path fill="#000000" fill-opacity="1" stroke-width="0.2" stroke-linejoin="round" d="M 76.0625,181.402L 75.8959,184.736L 183.896,184.819L 183.479,181.319L 76.0625,181.402 Z "/>
		<path fill="#000000" fill-opacity="1" stroke-width="0.2" stroke-linejoin="round" d="M 75.6667,191.069L 75.25,192.652L 75.3125,198.486L 76.5,199.277L 85.3542,199.277L 85.75,198.319L 85.9167,195.652L 86.5834,195.652L 87.6875,197.256L 90.75,199.131L 169.438,199.131L 171.5,197.444L 172.5,196.444L 173.5,196.506L 173.75,198.069L 174.354,199.34L 184.646,199.402L 184.75,191.402L 75.6667,191.069 Z "/>
		<path fill="#000000" fill-opacity="1" stroke-width="0.2" stroke-linejoin="round" d="M 94.5,200.819L 95.3125,202.131L 99.6875,204.944L 106.188,207.631L 111.625,209.256L 117.563,210.631L 124,211.194L 138.563,211.069L 145.063,209.819L 151.563,208.131L 157.438,206.006L 161.5,203.944L 164.313,202.381L 164.813,200.756L 94.5,200.819 Z "/>
		<path fill="#000000" fill-opacity="1" stroke-width="0.2" stroke-linejoin="round" d="M 75.6875,200.923L 75.9375,206.548L 77.5,210.298L 87.1875,210.173L 85.875,200.861L 75.6875,200.923 Z "/>
		<path fill="#000000" fill-opacity="1" stroke-width="0.2" stroke-linejoin="round" d="M 77.75,214.611L 79.1875,216.298L 88.3125,216.298L 88.1875,213.861L 87.375,211.861L 77.375,211.798"/>
		<path fill="#000000" fill-opacity="1" stroke-width="0.2" stroke-linejoin="round" d="M 79.25,217.486L 80.0625,220.423L 89.8125,220.423L 88.8125,217.611L 79.25,217.486 Z "/>
		<path fill="#000000" fill-opacity="1" stroke-width="0.2" stroke-linejoin="round" d="M 80.6875,221.798L 82.125,226.798L 85.4375,232.986L 88.75,238.611L 92.125,242.923L 93.5625,243.861L 100.188,243.986L 100.25,241.548L 97.0625,236.236L 95.0625,231.861L 93,227.236L 90.625,221.986L 80.6875,221.798 Z "/>
		<path fill="#000000" fill-opacity="1" stroke-width="0.2" stroke-linejoin="round" d="M 94.5625,244.861L 95.625,247.236L 98.5,249.986L 103.438,249.923L 104.25,248.611L 101.688,244.923L 94.5625,244.861 Z "/>
		<path fill="#000000" fill-opacity="1" stroke-width="0.2" stroke-linejoin="round" d="M 100.938,251.923L 105.125,255.736L 107.125,255.736L 107.063,253.361L 105.5,250.986L 101.313,250.986L 100.938,251.923 Z "/>
		<path fill="#000000" fill-opacity="1" stroke-width="0.2" stroke-linejoin="round" d="M 174.313,201.486L 173.063,210.298L 183.25,210.173L 184.25,201.048L 174.188,201.111"/>
		<path fill="#000000" fill-opacity="1" stroke-width="0.2" stroke-linejoin="round" d="M 172.688,211.986L 171.813,216.611L 181.938,216.673L 182.75,212.111L 172.688,211.986 Z "/>
		<path fill="#000000" fill-opacity="1" stroke-width="0.2" stroke-linejoin="round" d="M 170.938,218.048L 170.125,221.236L 180.25,221.111L 180.938,218.111L 170.938,218.048 Z "/>
		<path fill="#000000" fill-opacity="1" stroke-width="0.2" stroke-linejoin="round" d="M 169.813,222.298L 167.125,228.798L 164.375,234.673L 161.875,239.673L 159.313,244.111L 167.75,244.048L 171.313,239.236L 175.875,232.111L 178.688,225.798L 179.5,222.236L 169.813,222.298 Z "/>
		<path fill="#000000" fill-opacity="1" stroke-width="0.2" stroke-linejoin="round" d="M 158.75,245.298L 155.875,250.173L 162.438,250.236L 165.688,245.548L 158.75,245.298 Z "/>
		<path fill="#000000" fill-opacity="1" stroke-width="0.2" stroke-linejoin="round" d="M 154.813,251.673L 151.813,254.923L 153.563,256.423L 155.563,256.173L 159.75,251.736L 154.813,251.673 Z "/>
	</g>
	<linearGradient id="SVGID_Fill1_" gradientUnits="objectBoundingBox" x1="-0.0246912" y1="0.5" x2="1.02469" y2="0.5">
		<stop offset="0" stop-color="#000000" stop-opacity="1"/>
		<stop offset="0.0868217" stop-color="#080123" stop-opacity="1"/>
		<stop offset="0.167442" stop-color="#100346" stop-opacity="0.996078"/>
		<stop offset="0.525581" stop-color="#110BE7" stop-opacity="0.996078"/>
		<stop offset="0.87907" stop-color="#150346" stop-opacity="0.996078"/>
		<stop offset="1" stop-color="#000000" stop-opacity="1"/>
	</linearGradient>
	<path fill="url(#SVGID_Fill1_)" stroke-width="3" stroke-linejoin="round" stroke="#000000" stroke-opacity="1" d="M 204.325,132.582L 204.325,217.089L 192.134,217.089L 217.135,251.595L 242.342,217.089L 230.152,216.883L 229.945,132.376L 204.325,132.582 Z "/>
</svg>
