<?xml version="1.0" encoding="utf-8"?>
<!DOCTYPE svg PUBLIC "-//W3C//DTD SVG 1.1//EN" "http://www.w3.org/Graphics/SVG/1.1/DTD/svg11.dtd">
<svg xmlns="http://www.w3.org/2000/svg" xmlns:xlink="http://www.w3.org/1999/xlink" version="1.1" baseProfile="full" width="88" height="76" viewBox="0 0 88.00 76.00" enable-background="new 0 0 88.00 76.00" xml:space="preserve">
	<path fill="#8C9E64" fill-opacity="1" stroke-width="2" stroke-linejoin="round" stroke="#000000" stroke-opacity="1" d="M 13.4792,2.43747L 74.4792,2.43747C 80.5543,2.43747 85.4792,7.36234 85.4792,13.4375L 85.4792,63.1042C 85.4792,69.1793 80.5543,74.1042 74.4792,74.1042L 13.4792,74.1042C 7.40403,74.1042 2.47917,69.1793 2.47917,63.1042L 2.47917,13.4375C 2.47917,7.36234 7.40403,2.43747 13.4792,2.43747 Z "/>
	<linearGradient id="SVGID_Fill1_" gradientUnits="objectBoundingBox" x1="0.503869" y1="-0.274908" x2="2.05368" y2="-0.274908" gradientTransform="rotate(90.000000 0.503869 -0.274908)">
		<stop offset="0.316279" stop-color="#F0F1EC" stop-opacity="0.592157"/>
		<stop offset="0.800003" stop-color="#FFFFFF" stop-opacity="0"/>
	</linearGradient>
	<path fill="url(#SVGID_Fill1_)" stroke-width="0.2" stroke-linejoin="round" d="M 73.499,4.92154L 15.3879,4.92154C 12.3539,4.92154 8.5797,5.76868 5.8125,9.56688L 5.87839,9.56688C 5.94427,45.1657 24.0444,45.2867 44.4215,45.2867C 64.7986,45.2867 82.1081,44.9423 82.4375,9.48311L 82.4375,9.51103C 80.988,7.44436 79.0773,5.32184 73.499,4.92154 Z "/>
	<linearGradient id="SVGID_Fill2_" gradientUnits="objectBoundingBox" x1="0.940186" y1="0.437275" x2="2.52462" y2="0.437275" gradientTransform="rotate(170.546570 0.940186 0.437275)">
		<stop offset="0.274419" stop-color="#F0F1EC" stop-opacity="0.501961"/>
		<stop offset="0.562791" stop-color="#FFFFFF" stop-opacity="0"/>
	</linearGradient>
	<path fill="url(#SVGID_Fill2_)" stroke-width="0.2" stroke-linejoin="round" d="M 73.2684,4.87499L 56.2809,6.73686C 53.247,6.73686 37.1301,4.94943 34.3629,8.74763L 26.281,20.6636C 30.6395,27.669 45.9588,18.5783 48.3307,16.8282C 71.9617,13.8119 81.8775,44.8957 82.2069,9.43656L 82.2069,9.46448C 80.7574,7.39782 78.8467,5.2753 73.2684,4.87499 Z "/>
	<linearGradient id="SVGID_Fill3_" gradientUnits="objectBoundingBox" x1="0.384323" y1="-0.0542693" x2="1.49921" y2="-0.0542693" gradientTransform="rotate(135.748016 0.384323 -0.054269)">
		<stop offset="0.390698" stop-color="#83838F" stop-opacity="1"/>
		<stop offset="0.460465" stop-color="#4F4F5E" stop-opacity="1"/>
		<stop offset="0.530233" stop-color="#8D8D99" stop-opacity="1"/>
		<stop offset="0.613953" stop-color="#AAABB9" stop-opacity="1"/>
	</linearGradient>
	<path fill="url(#SVGID_Fill3_)" stroke-width="0.2" stroke-linejoin="round" d="M 18.4375,19.8278L 19.4642,18.953L 21.0933,19.9567L 37.3607,40.3773L 35.1418,42.0898L 18.9165,21.722L 18.4375,19.8278 Z "/>
	<linearGradient id="SVGID_Fill4_" gradientUnits="objectBoundingBox" x1="0.890847" y1="0.243554" x2="1.81506" y2="0.243554" gradientTransform="rotate(136.390076 0.890847 0.243554)">
		<stop offset="0.255814" stop-color="#F5CA3F" stop-opacity="1"/>
		<stop offset="0.474419" stop-color="#E7D52C" stop-opacity="1"/>
		<stop offset="0.548837" stop-color="#E7D858" stop-opacity="1"/>
		<stop offset="0.651163" stop-color="#D5B42B" stop-opacity="1"/>
		<stop offset="0.683721" stop-color="#F5CA3F" stop-opacity="1"/>
	</linearGradient>
	<path fill="url(#SVGID_Fill4_)" stroke-width="0.2" stroke-linejoin="round" d="M 36.3361,40.3862L 35.386,41.08L 34.4053,41.3214L 33.7923,42.4375L 34.0375,44.4285L 35.1409,45.0318L 36.091,45.2731L 36.7039,46.1479L 37.1637,48.1088L 49.6682,63.4935L 51.0474,63.4935L 54.8171,59.8736L 54.6332,58.4256L 43.0481,43.7648L 41.2399,43.1615L 40.4124,42.2565L 40.2898,40.7784L 40.0446,39.9639L 38.5122,39.1494L 36.7039,39.4812L 36.3361,40.3862 Z "/>
	<path fill="none" stroke-width="1.33333" stroke-linejoin="round" stroke="#BDAA28" stroke-opacity="1" d="M 46.4153,32.7289C 47.4937,33.6702 57.462,46.1315 64.5846,55.1396C 64.0269,55.2965 63.4751,55.5737 62.9707,55.9846C 62.2721,56.5534 61.7691,57.2863 61.4548,58.0719C 57.582,52.8128 45.6861,35.406 45.0257,33.9362C 45.0072,33.8575 44.9938,33.7794 44.9903,33.7026C 44.9744,33.3517 45.1152,33.0317 45.3903,32.8146C 45.6962,32.5735 46.0765,32.5471 46.4153,32.7289 Z "/>
	<path fill="#000000" fill-opacity="0.803922" stroke-width="0.2" stroke-linejoin="round" d="M 65.8897,57.8304C 64.5302,57.6449 63.0874,58.9969 62.8775,60.719C 62.7037,62.1432 63.8768,63.7324 65.2363,63.9179C 66.5966,64.1043 68.1145,62.7155 68.3335,61.1559C 68.3467,61.0619 68.3663,60.9593 68.3706,60.8654C 68.3746,60.7715 68.3735,60.6765 68.369,60.5828C 68.3557,60.3023 68.2973,60.0322 68.2091,59.7673C 68.1798,59.679 68.1536,59.5968 68.1158,59.5116C 67.7419,58.6606 66.9639,57.9772 65.8897,57.8304 Z M 39.5039,13.3479C 39.6171,13.3664 39.685,13.3836 39.6877,13.3844C 43.0182,14.1045 45.3649,16.8227 45.3218,19.8091C 45.3224,19.8227 45.8654,28.4663 47.1653,30.8709C 48.1855,32.7584 68.7157,56.7659 69.61,58.7523C 70.1892,60.0382 70.1487,61.4342 69.701,62.6638C 69.4138,63.4418 68.9671,64.1412 68.3968,64.6919C 68.3669,64.721 68.3294,64.7408 68.2992,64.769C 68.2472,64.8166 68.1951,64.8707 68.1419,64.9157C 68.0683,64.9778 67.9944,65.0357 67.9179,65.0925C 67.7768,65.1973 67.6284,65.2967 67.478,65.3831C 67.4597,65.3935 67.4414,65.4047 67.4236,65.4147C 67.3534,65.4534 67.2814,65.4812 67.2093,65.5156C 67.0995,65.5685 66.9889,65.6239 66.8752,65.6657L 66.8368,65.6735C 66.754,65.7032 66.6712,65.7337 66.5868,65.7575C 66.5434,65.7696 66.5003,65.7818 66.4567,65.7923C 66.421,65.8009 66.3884,65.8099 66.3528,65.8173C 66.2936,65.8298 66.2328,65.8365 66.1728,65.8457C 65.9466,65.8826 65.7087,65.9066 65.4738,65.8981C 65.3359,65.8933 65.1916,65.8786 65.0514,65.8571C 64.9925,65.8484 64.9387,65.8346 64.8794,65.8225C 64.6729,65.7811 64.47,65.7212 64.2611,65.6413C 64.2139,65.6234 64.1643,65.6048 64.1174,65.5845C 64.0421,65.5527 63.9667,65.5156 63.8917,65.479C 63.7605,65.4147 63.6351,65.3438 63.5037,65.263C 63.4511,65.2305 63.3929,65.2005 63.3402,65.1651C 63.2645,65.1148 63.1844,65.064 63.1087,65.0076C 63.0826,64.9883 63.0548,64.9662 63.0284,64.9461C 62.9258,64.8665 62.8238,64.7797 62.7218,64.6887C 62.6387,64.6149 62.5383,64.5114 62.432,64.3953C 62.3595,64.3167 62.2726,64.2182 62.1904,64.1212C 62.0808,63.9923 61.9357,63.8076 61.8102,63.6496C 61.7023,63.5135 61.5833,63.3642 61.4529,63.1937C 56.8782,57.1823 44.2373,36.6159 42.2401,34.9401C 40.7327,33.6758 32.5672,31.0682 32.5672,31.0682C 31.0183,30.0926 29.0734,27.3947 28.5852,23.6346C 28.5424,22.6604 28.7689,21.6707 28.788,21.8517L 33.5559,24.8181L 37.2219,22.5257L 37.9804,21.1212L 38.1021,18.5964L 32.8012,15.7675L 32.9813,15.0465C 35.4555,12.8691 38.7104,13.2204 39.5039,13.3479 Z "/>
	<linearGradient id="SVGID_Fill5_" gradientUnits="objectBoundingBox" x1="0.861223" y1="1.05593" x2="3.22655" y2="1.05593" gradientTransform="rotate(256.941284 0.861223 1.055933)">
		<stop offset="0" stop-color="#545454" stop-opacity="1"/>
		<stop offset="0.686401" stop-color="#878787" stop-opacity="1"/>
		<stop offset="1" stop-color="#878787" stop-opacity="1"/>
	</linearGradient>
	<path fill="url(#SVGID_Fill5_)" stroke-width="0.2" stroke-linejoin="round" d="M 28.8894,21.0422C 29.3273,25.1069 32.0557,28.5867 33.584,29.0334L 32.6753,30.2595C 31.1265,29.2835 29.1762,26.5898 28.6876,22.8297L 28.6876,22.8297C 28.6484,21.931 28.8369,21.0149 28.8813,21.0205L 28.8894,21.0422 Z "/>
	<path fill="#888A85" fill-opacity="1" stroke-width="0.2" stroke-linejoin="round" d="M 28.8895,21.042L 33.6529,24.0116L 37.324,21.7206C 37.6271,22.3257 36.3771,30.4634 34.5872,30.1255C 31.3111,29.506 29.4327,25.6649 28.8895,21.042 Z "/>
	<linearGradient id="SVGID_Fill6_" gradientUnits="objectBoundingBox" x1="0.963585" y1="0.350584" x2="2.07221" y2="0.350584" gradientTransform="rotate(142.708527 0.963585 0.350584)">
		<stop offset="0" stop-color="#FFFFFF" stop-opacity="1"/>
		<stop offset="0.639099" stop-color="#878787" stop-opacity="1"/>
		<stop offset="1" stop-color="#878787" stop-opacity="1"/>
	</linearGradient>
	<path fill="url(#SVGID_Fill6_)" stroke-width="0.2" stroke-linejoin="round" d="M 33.5564,24.1418L 33.3059,27.8305L 32.5748,29.2262C 31.7425,28.6109 31.0481,27.7345 30.4883,26.6676L 30.4883,26.6676C 29.7548,25.162 29.2715,23.3181 29.0372,21.3252L 33.5564,24.1418 Z "/>
	<radialGradient id="SVGID_Fill7_" cx="35.3681" cy="28.5666" r="13.9532" gradientUnits="userSpaceOnUse" gradientTransform="rotate(201.174576 35.368057 28.566584)">
		<stop offset="0" stop-color="#FFFFFF" stop-opacity="0.517647"/>
		<stop offset="1" stop-color="#3D3D3D" stop-opacity="0.517647"/>
	</radialGradient>
	<path fill="url(#SVGID_Fill7_)" stroke-width="0.2" stroke-linejoin="round" d="M 36.9957,22.0801L 37.0033,22.1057C 37.2553,22.9717 36.3593,30.5397 34.6044,30.2079C 34.2165,30.1343 33.8423,30.0145 33.4934,29.8548L 34.1622,23.7984L 36.9866,22.0662 Z "/>
	<linearGradient id="SVGID_Fill8_" gradientUnits="objectBoundingBox" x1="0.927189" y1="0.975742" x2="2.48491" y2="0.975742" gradientTransform="rotate(242.354309 0.927189 0.975742)">
		<stop offset="0" stop-color="#DDDDDD" stop-opacity="1"/>
		<stop offset="0.686401" stop-color="#878787" stop-opacity="1"/>
		<stop offset="0.893501" stop-color="#DDDDDD" stop-opacity="1"/>
		<stop offset="1" stop-color="#DDDDDD" stop-opacity="1"/>
	</linearGradient>
	<path fill="url(#SVGID_Fill8_)" stroke-width="0.2" stroke-linejoin="round" d="M 39.7904,12.577C 43.1204,13.2974 45.4696,16.0119 45.4261,18.9982L 45.4261,18.9982C 45.4269,19.0115 45.9701,27.6592 47.2705,30.0634L 47.2705,30.0634C 48.2906,31.9513 68.8185,55.954 69.7133,57.9403L 69.7133,57.9403C 71.6028,62.1352 66.9555,67.5386 62.8243,63.8772L 62.8243,63.8772C 60.0996,61.4627 44.5782,35.9997 42.3485,34.1293L 42.3485,34.1293C 40.8415,32.8647 32.6762,30.2588 32.6762,30.2588L 38.0873,20.3185L 38.236,16.919L 33.0847,14.2335C 35.3651,12.2269 38.3121,12.3756 39.3808,12.5114L 39.3808,12.5114C 39.6372,12.544 39.7853,12.5759 39.7904,12.577 Z M 68.4432,60.344C 68.6531,58.8456 67.7159,57.2603 65.9979,57.0247L 65.9979,57.0247C 64.6379,56.8382 63.1923,58.1898 62.9826,59.912L 62.9826,59.912C 62.8087,61.3366 63.9843,62.9289 65.3441,63.1149L 65.3616,63.1171L 65.3616,63.1171C 66.7168,63.2893 68.2252,61.8968 68.4432,60.344 Z "/>
	<linearGradient id="SVGID_Fill9_" gradientUnits="objectBoundingBox" x1="0.603554" y1="0.44031" x2="0.763745" y2="0.44031" gradientTransform="rotate(132.351013 0.603554 0.440310)">
		<stop offset="0" stop-color="#000000" stop-opacity="1"/>
		<stop offset="0.893501" stop-color="#DDDDE0" stop-opacity="1"/>
		<stop offset="1" stop-color="#DDDDE0" stop-opacity="1"/>
	</linearGradient>
	<path fill="url(#SVGID_Fill9_)" stroke-width="0.2" stroke-linejoin="round" d="M 38.497,20.4342L 38.6615,16.6656C 38.6615,16.6656 34.8407,14.673 33.8889,14.1768C 36.4651,12.3605 39.6653,12.9819 39.7021,12.9899C 42.7053,13.64 44.8889,16.0087 45.0072,18.6905C 45.0113,18.7912 45.0132,18.8928 45.0115,18.9936L 45.0114,18.9944C 45.0179,19.1451 45.5482,27.7558 46.906,30.2683C 47.3951,31.1725 51.8114,36.5023 56.9254,42.6742C 62.25,49.0998 68.8761,57.0964 69.3358,58.1175C 69.5848,58.6709 69.7092,59.2344 69.7336,59.7863C 69.8038,61.3836 69.031,62.8786 67.9997,63.7594C 67.8206,63.4723 67.6295,63.1685 67.425,62.8469C 68.1566,62.2629 68.7169,61.3772 68.8535,60.4015C 68.9786,59.5089 68.7469,58.5878 68.2169,57.8735C 67.7001,57.176 66.9322,56.7257 66.0552,56.6053C 65.3756,56.5124 64.6573,56.7327 64.0304,57.2249C 63.9533,57.2861 63.8799,57.3529 63.8076,57.4207C 59.0393,50.5276 50.9239,39.5793 37.2496,22.7265C 37.9689,21.4041 38.497,20.4342 38.497,20.4342 Z "/>
	<radialGradient id="SVGID_Fill10_" cx="39.6174" cy="18.0871" r="20.6293" gradientUnits="userSpaceOnUse" gradientTransform="rotate(119.416908 39.617386 18.087111)">
		<stop offset="0" stop-color="#C2C4D2" stop-opacity="1"/>
		<stop offset="0.5" stop-color="#B1B1B6" stop-opacity="1"/>
		<stop offset="1" stop-color="#000000" stop-opacity="1"/>
	</radialGradient>
	<path fill="url(#SVGID_Fill10_)" stroke-width="0.2" stroke-linejoin="round" d="M 39.5466,13.0444C 42.8011,13.9802 44.583,16.3069 44.6463,19.1857L 41.2825,25.6328L 40.1387,24.982L 37.7493,29.6814L 38.6857,30.2691L 37.3592,31.8708L 32.6761,30.2596L 38.0873,20.3185L 38.236,16.919L 33.0847,14.2335C 33.8604,13.5377 34.8235,13.0131 35.8941,12.7099L 35.8941,12.7099C 36.6954,12.6632 37.5103,12.6932 38.2446,12.7866L 38.2446,12.7866C 38.7209,12.8471 39.1632,12.934 39.5466,13.0444 Z "/>
	<linearGradient id="SVGID_Fill11_" gradientUnits="objectBoundingBox" x1="0.425592" y1="0.905266" x2="1.20913" y2="0.905266" gradientTransform="rotate(-77.764435 0.425592 0.905266)">
		<stop offset="0" stop-color="#DDDDDD" stop-opacity="1"/>
		<stop offset="0.721901" stop-color="#DDDDDD" stop-opacity="1"/>
		<stop offset="1" stop-color="#EDEDEB" stop-opacity="1"/>
	</linearGradient>
	<path fill="url(#SVGID_Fill11_)" stroke-width="0.2" stroke-linejoin="round" d="M 44.6848,27.6801L 42.1038,32.1835L 36.7305,29.6463L 40.1032,24.2571L 44.6848,27.6801 Z "/>
	<radialGradient id="SVGID_Fill12_" cx="39.4664" cy="31.3994" r="5.9429" gradientUnits="userSpaceOnUse" gradientTransform="rotate(177.493851 39.466419 31.399416)">
		<stop offset="0" stop-color="#2D3436" stop-opacity="1"/>
		<stop offset="0.721901" stop-color="#000000" stop-opacity="1"/>
		<stop offset="1" stop-color="#2D3436" stop-opacity="1"/>
	</radialGradient>
	<path fill="url(#SVGID_Fill12_)" stroke-width="0.2" stroke-linejoin="round" d="M 44.6848,27.6801L 42.1038,32.1835L 37.5591,29.6039L 40.1409,25.1006L 44.6848,27.6801 Z "/>
	<radialGradient id="SVGID_Fill13_" cx="41.2135" cy="28.6167" r="1.20156" gradientUnits="userSpaceOnUse" gradientTransform="rotate(203.792496 41.213535 28.616716)">
		<stop offset="0" stop-color="#FFFFFF" stop-opacity="1"/>
		<stop offset="0.526604" stop-color="#BABCB6" stop-opacity="1"/>
		<stop offset="1" stop-color="#878985" stop-opacity="1"/>
	</radialGradient>
	<path fill="url(#SVGID_Fill13_)" stroke-width="0.2" stroke-linejoin="round" d="M 43.6379,27.3989L 41.4707,31.2016L 38.7909,29.8281L 40.9585,26.0251L 43.6379,27.3989 Z "/>
	<radialGradient id="SVGID_Fill14_" cx="41.1616" cy="29.4408" r="1.8368" gradientUnits="userSpaceOnUse" gradientTransform="rotate(190.893661 41.161564 29.440775)">
		<stop offset="0" stop-color="#878985" stop-opacity="1"/>
		<stop offset="0.6213" stop-color="#FFFFFF" stop-opacity="1"/>
		<stop offset="1" stop-color="#545652" stop-opacity="1"/>
	</radialGradient>
	<path fill="url(#SVGID_Fill14_)" stroke-width="0.2" stroke-linejoin="round" d="M 43.8299,27.7956L 43.6875,28.2636L 39.6246,26.6204L 39.7675,26.1521L 43.8299,27.7956 Z "/>
	<radialGradient id="SVGID_Fill15_" cx="39.602" cy="31.935" r="1.81409" gradientUnits="userSpaceOnUse" gradientTransform="rotate(189.545227 39.601990 31.935011)">
		<stop offset="0" stop-color="#878985" stop-opacity="1"/>
		<stop offset="0.6213" stop-color="#FFFFFF" stop-opacity="1"/>
		<stop offset="1" stop-color="#545652" stop-opacity="1"/>
	</radialGradient>
	<path fill="url(#SVGID_Fill15_)" stroke-width="0.2" stroke-linejoin="round" d="M 42.1573,30.5696L 42.0306,30.968L 38.0417,29.4517L 38.1688,29.0528L 42.1573,30.5696 Z "/>
	<radialGradient id="SVGID_Fill16_" cx="40.4679" cy="30.5713" r="1.94473" gradientUnits="userSpaceOnUse" gradientTransform="rotate(188.956406 40.467873 30.571348)">
		<stop offset="0" stop-color="#878985" stop-opacity="1"/>
		<stop offset="0.6213" stop-color="#FFFFFF" stop-opacity="1"/>
		<stop offset="1" stop-color="#545652" stop-opacity="1"/>
	</radialGradient>
	<path fill="url(#SVGID_Fill16_)" stroke-width="0.2" stroke-linejoin="round" d="M 43.1596,29.2573L 43.0291,29.6545L 38.7668,28.0812L 38.8961,27.6842L 43.1596,29.2573 Z "/>
	<linearGradient id="SVGID_Fill17_" gradientUnits="objectBoundingBox" x1="0.587932" y1="0.995762" x2="1.59051" y2="0.995762" gradientTransform="rotate(269.246460 0.587932 0.995762)">
		<stop offset="0" stop-color="#545454" stop-opacity="1"/>
		<stop offset="0.3965" stop-color="#878787" stop-opacity="1"/>
		<stop offset="1" stop-color="#545454" stop-opacity="1"/>
	</linearGradient>
	<path fill="url(#SVGID_Fill17_)" stroke-width="0.2" stroke-linejoin="round" d="M 33.6516,27.3096C 33.4524,29.1246 33.0496,29.204 32.9794,29.526L 32.9794,29.526C 32.8407,29.455 32.8046,29.4524 32.7834,29.4522L 32.7834,29.4522C 32.7574,29.4514 32.7518,29.4535 32.6021,29.3331L 32.6021,29.3331C 32.6424,29.1761 33.1446,28.0995 33.3468,27.7155L 33.3468,27.7155C 33.4091,26.81 33.6214,24.2732 33.6393,24.0325L 33.6393,24.0325C 33.8042,23.9299 33.8682,23.8896 34.0695,23.7801L 34.0695,23.7801C 34.0908,23.8932 33.6804,27.1946 33.6516,27.3096 Z "/>
	<linearGradient id="SVGID_Fill18_" gradientUnits="objectBoundingBox" x1="0.978813" y1="0.478393" x2="1.93316" y2="0.478393" gradientTransform="rotate(176.778076 0.978813 0.478393)">
		<stop offset="0" stop-color="#878787" stop-opacity="1"/>
		<stop offset="0.893501" stop-color="#DDDDDD" stop-opacity="1"/>
		<stop offset="1" stop-color="#C6C6CB" stop-opacity="1"/>
	</linearGradient>
	<path fill="url(#SVGID_Fill18_)" stroke-width="0.2" stroke-linejoin="round" d="M 46.8524,31.9988C 47.828,32.5576 66.4317,56.0041 66.2999,55.9586L 66.2999,55.9586C 64.2714,55.2595 61.6951,57.6241 61.9454,60.0659L 61.9454,60.0659C 60.5132,58.5333 44.5099,35.2684 44.2285,34.1876L 44.2285,34.1876C 43.8658,32.7897 44.9903,31.621 46.1902,31.7735L 46.1902,31.7735C 46.4113,31.8016 46.6348,31.8743 46.8524,31.9988 Z "/>
	<linearGradient id="SVGID_Fill19_" gradientUnits="objectBoundingBox" x1="0.552212" y1="0.426897" x2="0.741952" y2="0.426897" gradientTransform="rotate(134.234543 0.552212 0.426897)">
		<stop offset="0" stop-color="#E2EE48" stop-opacity="1"/>
		<stop offset="0.212997" stop-color="#E3EE54" stop-opacity="1"/>
		<stop offset="1" stop-color="#85781D" stop-opacity="1"/>
	</linearGradient>
	<path fill="url(#SVGID_Fill19_)" stroke-width="0.2" stroke-linejoin="round" d="M 46.4155,32.729C 47.4935,33.6702 57.4622,46.1316 64.5848,55.1397L 64.5848,55.1397C 64.027,55.2962 63.4754,55.5734 62.9709,55.9847L 62.9709,55.9847C 62.2718,56.554 61.7689,57.2864 61.4545,58.0722L 61.4545,58.0722C 57.5822,52.8129 45.6859,35.4057 45.0255,33.9358L 45.0255,33.9358C 45.0073,33.8576 44.994,33.7795 44.9901,33.7027L 44.9901,33.7027C 44.9746,33.3522 45.1155,33.0314 45.3905,32.8143L 45.3905,32.8143C 45.5961,32.6524 45.8359,32.5876 46.0737,32.6179L 46.0737,32.6179C 46.1894,32.6326 46.3047,32.6694 46.4155,32.729 Z "/>
	<radialGradient id="SVGID_Fill20_" cx="44.6487" cy="19.0134" r="8.29927" gradientUnits="userSpaceOnUse" gradientTransform="rotate(170.940399 44.648746 19.013376)">
		<stop offset="0" stop-color="#FFFFFF" stop-opacity="1"/>
		<stop offset="1" stop-color="#878985" stop-opacity="1"/>
	</radialGradient>
	<path fill="url(#SVGID_Fill20_)" stroke-width="0.2" stroke-linejoin="round" d="M 46.5429,30.4742C 46.5771,30.5377 46.6313,30.6242 46.6976,30.7226L 46.6976,30.7226C 46.5108,30.4862 46.376,30.3032 46.3095,30.19L 46.3095,30.19C 45.0784,28.1132 43.6771,22.6903 43.5302,21.3239L 44.6111,19.2526C 44.7019,20.6012 45.2612,28.104 46.5429,30.4742 Z "/>
	<linearGradient id="SVGID_Fill21_" gradientUnits="objectBoundingBox" x1="0.526346" y1="1.09892" x2="1.23724" y2="1.09892" gradientTransform="rotate(267.071289 0.526346 1.098918)">
		<stop offset="0" stop-color="#FFFFFF" stop-opacity="0.501961"/>
		<stop offset="1" stop-color="#000000" stop-opacity="0.501961"/>
	</linearGradient>
	<path fill="url(#SVGID_Fill21_)" stroke-width="0.2" stroke-linejoin="round" d="M 65.3441,63.1149C 66.704,63.3013 68.2243,61.9037 68.4431,60.3446C 68.6531,58.8452 67.7164,57.2594 65.9979,57.0242C 64.6384,56.8382 63.1923,58.1894 62.9826,59.912C 62.8087,61.3366 63.9843,62.9289 65.3441,63.1149 Z M 61.5695,62.4041C 61.3103,61.78 61.196,61.1123 61.2828,60.4653C 61.4631,59.1224 62.23,57.8372 63.3332,57.0269C 64.2102,56.3832 65.2158,56.093 66.1653,56.2105C 67.3902,56.3628 68.461,56.9451 69.1804,57.8498C 69.8111,58.6423 70.1336,59.6344 70.1027,60.6313C 69.6814,63.9953 66.0928,66.7746 62.8235,63.8767C 62.5373,63.624 62.108,63.1129 61.5695,62.4041 Z "/>
	<linearGradient id="SVGID_Fill22_" gradientUnits="objectBoundingBox" x1="0.565811" y1="0.961216" x2="1.54091" y2="0.961216" gradientTransform="rotate(262.802887 0.565811 0.961216)">
		<stop offset="0" stop-color="#EDEDED" stop-opacity="1"/>
		<stop offset="1" stop-color="#525252" stop-opacity="1"/>
	</linearGradient>
	<path fill="url(#SVGID_Fill22_)" stroke-width="0.2" stroke-linejoin="round" d="M 66.0552,56.6053C 66.9318,56.7253 67.6993,57.1759 68.2169,57.8735L 68.2169,57.8735C 68.7461,58.5877 68.9782,59.5089 68.8534,60.4019L 68.8534,60.4019C 68.5972,62.2278 66.8637,63.7497 65.2861,63.5336L 65.2861,63.5336C 63.716,63.3189 62.3706,61.5005 62.5709,59.8625L 62.5709,59.8625C 62.6966,58.8302 63.2423,57.8452 64.0304,57.2249L 64.0304,57.2249C 64.6501,56.7371 65.3613,56.5171 66.0349,56.6027L 66.0552,56.6053 Z M 68.4432,60.344C 68.6531,58.8452 67.7164,57.2594 65.9979,57.0247L 65.9979,57.0247C 64.6379,56.8382 63.1923,58.1898 62.9826,59.912L 62.9826,59.912C 62.8087,61.3366 63.9843,62.9289 65.3441,63.1149L 65.3616,63.1171L 65.3616,63.1171C 66.7168,63.2893 68.2252,61.8968 68.4432,60.344 Z "/>
	<path fill="#9B9BA1" fill-opacity="0.403922" stroke-width="0.2" stroke-linejoin="round" d="M 49.1836,32.9753C 49.0677,32.7607 48.9587,32.4923 48.8557,32.1833C 53.8898,38.5191 68.9496,56.2453 69.7129,57.9403C 69.8616,58.2701 69.9654,58.6072 70.0365,58.9484C 67.7982,55.5345 50.1001,34.6817 49.1836,32.9753 Z "/>
	<linearGradient id="SVGID_Fill23_" gradientUnits="objectBoundingBox" x1="0.957688" y1="0.895554" x2="2.258" y2="0.895554" gradientTransform="rotate(216.250992 0.957688 0.895554)">
		<stop offset="0" stop-color="#C8C8C8" stop-opacity="1"/>
		<stop offset="0.0229034" stop-color="#B1B1B1" stop-opacity="1"/>
		<stop offset="0.0500031" stop-color="#9E9E9E" stop-opacity="1"/>
		<stop offset="0.0819016" stop-color="#919191" stop-opacity="1"/>
		<stop offset="0.122498" stop-color="#898989" stop-opacity="1"/>
		<stop offset="0.201202" stop-color="#878787" stop-opacity="1"/>
		<stop offset="1" stop-color="#676767" stop-opacity="1"/>
	</linearGradient>
	<path fill="url(#SVGID_Fill23_)" stroke-width="0.2" stroke-linejoin="round" d="M 42.3111,33.2859C 44.5407,35.1563 60.0624,60.6193 62.7863,63.0341L 62.7863,63.0341C 66.2015,66.0605 69.9642,62.8933 70.1021,59.336L 70.1021,59.336C 70.3898,61.5882 69.1212,63.8663 67.2844,64.7293L 67.281,64.7309L 67.2583,64.7416L 67.2446,64.7477L 67.2407,64.7496L 67.2407,64.7496C 65.9323,65.3441 64.3438,65.2239 62.8243,63.8772L 62.8243,63.8772C 60.0996,61.4627 44.5782,35.9997 42.3485,34.1293L 42.3485,34.1293C 40.8415,32.8647 32.6762,30.2588 32.6762,30.2588L 33.061,29.5523C 34.7467,30.1028 41.0099,32.194 42.3111,33.2859 Z "/>
	<linearGradient id="SVGID_Fill24_" gradientUnits="objectBoundingBox" x1="1.0471" y1="0.671853" x2="2.16647" y2="0.671853" gradientTransform="rotate(188.170044 1.047104 0.671853)">
		<stop offset="0" stop-color="#878787" stop-opacity="1"/>
		<stop offset="1" stop-color="#545454" stop-opacity="1"/>
	</linearGradient>
	<path fill="url(#SVGID_Fill24_)" stroke-width="0.2" stroke-linejoin="round" d="M 38.236,16.919L 38.2378,17.8055L 32.9017,14.959L 33.0847,14.2335L 38.236,16.919 Z "/>
	<linearGradient id="SVGID_Fill25_" gradientUnits="objectBoundingBox" x1="1.37443" y1="1.21651" x2="3.09776" y2="1.21651" gradientTransform="rotate(197.790497 1.374430 1.216509)">
		<stop offset="0" stop-color="#000000" stop-opacity="1"/>
		<stop offset="0.893501" stop-color="#FFFFFF" stop-opacity="1"/>
		<stop offset="1" stop-color="#FFFFFF" stop-opacity="1"/>
	</linearGradient>
	<path fill="url(#SVGID_Fill25_)" stroke-width="0.2" stroke-linejoin="round" d="M 38.1986,16.0755L 38.1631,16.8814L 33.0847,14.2335C 33.2929,14.051 33.5067,13.8906 33.7238,13.7425L 38.1986,16.0755 Z "/>
</svg>
