<?xml version="1.0" encoding="utf-8"?>
<!DOCTYPE svg PUBLIC "-//W3C//DTD SVG 1.1//EN" "http://www.w3.org/Graphics/SVG/1.1/DTD/svg11.dtd">
<svg xmlns="http://www.w3.org/2000/svg" xmlns:xlink="http://www.w3.org/1999/xlink" version="1.1" baseProfile="full" width="90" height="77.7273" viewBox="0 0 90.00 77.73" enable-background="new 0 0 90.00 77.73" xml:space="preserve">
	<path fill="#B2AE5A" fill-opacity="1" stroke-linejoin="round" stroke="#000000" stroke-opacity="1" d="M 13.5404,2.33398L 74.5404,2.33398C 80.6155,2.33398 85.5404,7.25885 85.5404,13.334L 85.5404,63.0007C 85.5404,69.0758 80.6155,74.0007 74.5404,74.0007L 13.5404,74.0007C 7.46522,74.0007 2.54036,69.0758 2.54036,63.0007L 2.54036,13.334C 2.54036,7.25885 7.46522,2.33398 13.5404,2.33398 Z "/>
	<linearGradient id="SVGID_Fill1_" gradientUnits="objectBoundingBox" x1="0.503869" y1="-0.274908" x2="2.05368" y2="-0.274908" gradientTransform="rotate(90.000000 0.503869 -0.274908)">
		<stop offset="0.316279" stop-color="#F0F1EC" stop-opacity="0.592157"/>
		<stop offset="0.800003" stop-color="#FFFFFF" stop-opacity="0"/>
	</linearGradient>
	<path fill="url(#SVGID_Fill1_)" stroke-width="0.2" stroke-linejoin="round" d="M 73.5602,4.81805L 15.4491,4.81805C 12.4151,4.81805 8.64089,5.66519 5.87369,9.46339L 5.93958,9.46339C 6.00546,45.0622 24.1056,45.1832 44.4827,45.1832C 64.8597,45.1832 82.1693,44.8388 82.4987,9.37962L 82.4987,9.40754C 81.0492,7.34087 79.1385,5.21835 73.5602,4.81805 Z "/>
	<linearGradient id="SVGID_Fill2_" gradientUnits="objectBoundingBox" x1="0.940186" y1="0.437275" x2="2.52462" y2="0.437275" gradientTransform="rotate(170.546585 0.940186 0.437275)">
		<stop offset="0.274419" stop-color="#F0F1EC" stop-opacity="0.501961"/>
		<stop offset="0.562791" stop-color="#FFFFFF" stop-opacity="0"/>
	</linearGradient>
	<path fill="url(#SVGID_Fill2_)" stroke-width="0.2" stroke-linejoin="round" d="M 73.3296,4.7715L 56.3421,6.63337C 53.3081,6.63337 37.1913,4.84594 34.4241,8.64414L 26.3422,20.5601C 30.7007,27.5655 46.02,18.4748 48.3919,16.7247C 72.0229,13.7084 81.9387,44.7923 82.2681,9.33307L 82.2681,9.36099C 80.8186,7.29433 78.9079,5.17181 73.3296,4.7715 Z "/>
	<path fill="none" stroke-width="6" stroke-linejoin="round" stroke="#FFD23F" stroke-opacity="1" d="M 13.7903,5.1675L 74.5402,5.1675C 78.9585,5.1675 82.5402,8.74921 82.5402,13.1675L 82.5402,63.1674C 82.5402,67.5856 78.9585,71.1673 74.5402,71.1673L 13.7903,71.1673C 9.37205,71.1673 5.79034,67.5856 5.79034,63.1674L 5.79034,13.1675C 5.79034,8.74921 9.37205,5.1675 13.7903,5.1675 Z "/>
	<linearGradient id="SVGID_Fill3_" gradientUnits="objectBoundingBox" x1="0.384323" y1="-0.0542693" x2="1.49921" y2="-0.0542693" gradientTransform="rotate(135.748016 0.384323 -0.054269)">
		<stop offset="0.390698" stop-color="#83838F" stop-opacity="1"/>
		<stop offset="0.460465" stop-color="#4F4F5E" stop-opacity="1"/>
		<stop offset="0.530233" stop-color="#8D8D99" stop-opacity="1"/>
		<stop offset="0.613953" stop-color="#AAABB9" stop-opacity="1"/>
	</linearGradient>
	<path fill="url(#SVGID_Fill3_)" stroke-width="0.2" stroke-linejoin="round" d="M 18.4987,19.7243L 19.5254,18.8495L 21.1545,19.8533L 37.4219,40.2739L 35.203,41.9863L 18.9777,21.6186L 18.4987,19.7243 Z "/>
	<linearGradient id="SVGID_Fill4_" gradientUnits="objectBoundingBox" x1="0.890847" y1="0.243554" x2="1.81506" y2="0.243554" gradientTransform="rotate(136.390076 0.890847 0.243554)">
		<stop offset="0.255814" stop-color="#F5CA3F" stop-opacity="1"/>
		<stop offset="0.474419" stop-color="#E7D52C" stop-opacity="1"/>
		<stop offset="0.548837" stop-color="#E7D858" stop-opacity="1"/>
		<stop offset="0.651163" stop-color="#D5B42B" stop-opacity="1"/>
		<stop offset="0.683721" stop-color="#F5CA3F" stop-opacity="1"/>
	</linearGradient>
	<path fill="url(#SVGID_Fill4_)" stroke-width="0.2" stroke-linejoin="round" d="M 36.3973,40.2827L 35.4472,40.9765L 34.4665,41.2179L 33.8535,42.334L 34.0987,44.325L 35.202,44.9283L 36.1521,45.1696L 36.7651,46.0445L 37.2248,48.0053L 49.7294,63.39L 51.1085,63.39L 54.8783,59.7701L 54.6944,58.3221L 43.1093,43.6613L 41.3011,43.058L 40.4736,42.153L 40.351,40.6749L 40.1058,39.8604L 38.5734,39.0459L 36.7651,39.3777L 36.3973,40.2827 Z "/>
	<path fill="none" stroke-width="1.33333" stroke-linejoin="round" stroke="#BDAA28" stroke-opacity="1" d="M 46.4765,32.6254C 47.5549,33.5667 57.5232,46.028 64.6458,55.0361C 64.0881,55.193 63.5363,55.4702 63.0319,55.8811C 62.3333,56.45 61.8303,57.1829 61.516,57.9685C 57.6432,52.7093 45.7473,35.3026 45.0869,33.8327C 45.0683,33.754 45.055,33.6759 45.0515,33.5991C 45.0356,33.2482 45.1764,32.9282 45.4515,32.7111C 45.7574,32.47 46.1377,32.4436 46.4765,32.6254 Z "/>
	<path fill="#000000" fill-opacity="0.803922" stroke-width="0.2" stroke-linejoin="round" d="M 65.9509,57.7269C 64.5913,57.5414 63.1486,58.8934 62.9387,60.6156C 62.7649,62.0397 63.938,63.6289 65.2975,63.8144C 66.6578,64.0008 68.1757,62.612 68.3947,61.0524C 68.4079,60.9584 68.4275,60.8558 68.4318,60.7619C 68.4358,60.668 68.4347,60.573 68.4301,60.4793C 68.4169,60.1988 68.3585,59.9287 68.2703,59.6638C 68.241,59.5755 68.2148,59.4933 68.177,59.4081C 67.803,58.5572 67.0251,57.8737 65.9509,57.7269 Z M 39.5651,13.2444C 39.6783,13.2629 39.7462,13.2801 39.7489,13.2809C 43.0794,14.001 45.426,16.7192 45.383,19.7056C 45.3836,19.7192 45.9266,28.3628 47.2265,30.7674C 48.2466,32.6549 68.7768,56.6624 69.6712,58.6488C 70.2504,59.9347 70.2099,61.3307 69.7622,62.5603C 69.475,63.3383 69.0283,64.0377 68.458,64.5884C 68.4281,64.6175 68.3905,64.6373 68.3604,64.6655C 68.3084,64.7131 68.2563,64.7672 68.2031,64.8122C 68.1295,64.8743 68.0556,64.9322 67.9791,64.989C 67.838,65.0938 67.6896,65.1932 67.5392,65.2796C 67.5209,65.29 67.5026,65.3012 67.4848,65.3112C 67.4146,65.3499 67.3426,65.3777 67.2705,65.4121C 67.1607,65.465 67.0501,65.5204 66.9364,65.5622L 66.8979,65.57C 66.8152,65.5997 66.7324,65.6302 66.648,65.654C 66.6046,65.6661 66.5615,65.6783 66.5179,65.6888C 66.4822,65.6974 66.4496,65.7064 66.414,65.7138C 66.3548,65.7263 66.294,65.733 66.234,65.7422C 66.0078,65.7791 65.7699,65.8031 65.535,65.7946C 65.3971,65.7898 65.2528,65.7751 65.1126,65.7536C 65.0537,65.7449 64.9999,65.7311 64.9406,65.719C 64.7341,65.6776 64.5311,65.6177 64.3223,65.5378C 64.2751,65.5199 64.2255,65.5013 64.1786,65.481C 64.1033,65.4492 64.0279,65.4122 63.9528,65.3755C 63.8217,65.3112 63.6963,65.2403 63.5649,65.1595C 63.5123,65.127 63.4541,65.097 63.4014,65.0616C 63.3257,65.0113 63.2456,64.9605 63.1699,64.9041C 63.1438,64.8848 63.116,64.8628 63.0896,64.8426C 62.987,64.763 62.8849,64.6762 62.783,64.5852C 62.6998,64.5114 62.5995,64.4079 62.4932,64.2918C 62.4207,64.2132 62.3338,64.1147 62.2516,64.0177C 62.142,63.8888 61.9969,63.7041 61.8714,63.5461C 61.7635,63.41 61.6445,63.2607 61.5141,63.0902C 56.9394,57.0788 44.2985,36.5124 42.3013,34.8366C 40.7939,33.5723 32.6283,30.9647 32.6283,30.9647C 31.0795,29.9891 29.1346,27.2912 28.6464,23.5312C 28.6036,22.5569 28.8301,21.5672 28.8492,21.7482L 33.6171,24.7146L 37.2831,22.4222L 38.0416,21.0177L 38.1633,18.4929L 32.8624,15.664L 33.0425,14.943C 35.5167,12.7656 38.7715,13.1169 39.5651,13.2444 Z "/>
	<linearGradient id="SVGID_Fill5_" gradientUnits="objectBoundingBox" x1="0.861223" y1="1.05593" x2="3.22655" y2="1.05593" gradientTransform="rotate(256.941284 0.861223 1.055933)">
		<stop offset="0" stop-color="#545454" stop-opacity="1"/>
		<stop offset="0.686401" stop-color="#878787" stop-opacity="1"/>
		<stop offset="1" stop-color="#878787" stop-opacity="1"/>
	</linearGradient>
	<path fill="url(#SVGID_Fill5_)" stroke-width="0.2" stroke-linejoin="round" d="M 28.9506,20.9387C 29.3885,25.0034 32.1169,28.4832 33.6452,28.9299L 32.7365,30.156C 31.1877,29.18 29.2374,26.4863 28.7488,22.7262L 28.7488,22.7262C 28.7096,21.8275 28.8981,20.9114 28.9425,20.917L 28.9506,20.9387 Z "/>
	<path fill="#888A85" fill-opacity="1" stroke-width="0.2" stroke-linejoin="round" d="M 28.9507,20.9385L 33.7141,23.9081L 37.3852,21.6171C 37.6883,22.2222 36.4383,30.36 34.6484,30.0221C 31.3723,29.4025 29.4939,25.5615 28.9507,20.9385 Z "/>
	<linearGradient id="SVGID_Fill6_" gradientUnits="objectBoundingBox" x1="0.963585" y1="0.350584" x2="2.07221" y2="0.350584" gradientTransform="rotate(142.708527 0.963585 0.350584)">
		<stop offset="0" stop-color="#FFFFFF" stop-opacity="1"/>
		<stop offset="0.639099" stop-color="#878787" stop-opacity="1"/>
		<stop offset="1" stop-color="#878787" stop-opacity="1"/>
	</linearGradient>
	<path fill="url(#SVGID_Fill6_)" stroke-width="0.2" stroke-linejoin="round" d="M 33.6176,24.0383L 33.3671,27.727L 32.6359,29.1227C 31.8037,28.5075 31.1093,27.631 30.5495,26.5641L 30.5495,26.5641C 29.816,25.0585 29.3327,23.2146 29.0984,21.2217L 33.6176,24.0383 Z "/>
	<radialGradient id="SVGID_Fill7_" cx="35.4292" cy="28.4631" r="13.9532" gradientUnits="userSpaceOnUse" gradientTransform="rotate(201.174576 35.429249 28.463093)">
		<stop offset="0" stop-color="#FFFFFF" stop-opacity="0.517647"/>
		<stop offset="1" stop-color="#3D3D3D" stop-opacity="0.517647"/>
	</radialGradient>
	<path fill="url(#SVGID_Fill7_)" stroke-width="0.2" stroke-linejoin="round" d="M 37.0568,21.9766L 37.0644,22.0022C 37.3164,22.8682 36.4205,30.4362 34.6656,30.1044C 34.2777,30.0308 33.9035,29.911 33.5546,29.7513L 34.2233,23.695L 37.0477,21.9627 Z "/>
	<linearGradient id="SVGID_Fill8_" gradientUnits="objectBoundingBox" x1="0.927189" y1="0.975742" x2="2.48491" y2="0.975742" gradientTransform="rotate(242.354309 0.927189 0.975742)">
		<stop offset="0" stop-color="#DDDDDD" stop-opacity="1"/>
		<stop offset="0.686401" stop-color="#878787" stop-opacity="1"/>
		<stop offset="0.893501" stop-color="#DDDDDD" stop-opacity="1"/>
		<stop offset="1" stop-color="#DDDDDD" stop-opacity="1"/>
	</linearGradient>
	<path fill="url(#SVGID_Fill8_)" stroke-width="0.2" stroke-linejoin="round" d="M 39.8516,12.4735C 43.1816,13.1939 45.5308,15.9084 45.4873,18.8948L 45.4873,18.8948C 45.488,18.908 46.0313,27.5557 47.3316,29.9599L 47.3316,29.9599C 48.3517,31.8478 68.8797,55.8505 69.7745,57.8368L 69.7745,57.8368C 71.664,62.0317 67.0167,67.4351 62.8855,63.7737L 62.8855,63.7737C 60.1608,61.3592 44.6394,35.8963 42.4097,34.0258L 42.4097,34.0258C 40.9027,32.7612 32.7374,30.1553 32.7374,30.1553L 38.1485,20.215L 38.2972,16.8155L 33.1459,14.13C 35.4263,12.1234 38.3732,12.2721 39.442,12.4079L 39.442,12.4079C 39.6984,12.4405 39.8465,12.4725 39.8516,12.4735 Z M 68.5044,60.2405C 68.7143,58.7421 67.7771,57.1568 66.0591,56.9212L 66.0591,56.9212C 64.6991,56.7347 63.2535,58.0863 63.0438,59.8085L 63.0438,59.8085C 62.8699,61.2331 64.0455,62.8254 65.4053,63.0114L 65.4228,63.0136L 65.4228,63.0136C 66.778,63.1858 68.2863,61.7933 68.5044,60.2405 Z "/>
	<linearGradient id="SVGID_Fill9_" gradientUnits="objectBoundingBox" x1="0.603554" y1="0.44031" x2="0.763745" y2="0.44031" gradientTransform="rotate(132.351013 0.603554 0.440310)">
		<stop offset="0" stop-color="#000000" stop-opacity="1"/>
		<stop offset="0.893501" stop-color="#DDDDE0" stop-opacity="1"/>
		<stop offset="1" stop-color="#DDDDE0" stop-opacity="1"/>
	</linearGradient>
	<path fill="url(#SVGID_Fill9_)" stroke-width="0.2" stroke-linejoin="round" d="M 38.5582,20.3307L 38.7227,16.5621C 38.7227,16.5621 34.9019,14.5695 33.9501,14.0733C 36.5263,12.257 39.7265,12.8784 39.7633,12.8864C 42.7665,13.5365 44.9501,15.9052 45.0684,18.587C 45.0725,18.6877 45.0743,18.7893 45.0727,18.8901L 45.0726,18.8909C 45.0791,19.0416 45.6094,27.6523 46.9671,30.1648C 47.4563,31.069 51.8726,36.3988 56.9866,42.5707C 62.3112,48.9963 68.9373,56.9929 69.397,58.014C 69.646,58.5674 69.7704,59.1309 69.7948,59.6828C 69.865,61.2801 69.0922,62.7751 68.0609,63.656C 67.8818,63.3688 67.6907,63.065 67.4862,62.7434C 68.2178,62.1594 68.7781,61.2737 68.9146,60.298C 69.0397,59.4054 68.8081,58.4843 68.2781,57.77C 67.7613,57.0725 66.9933,56.6222 66.1163,56.5018C 65.4368,56.4089 64.7185,56.6292 64.0916,57.1214C 64.0145,57.1826 63.941,57.2494 63.8688,57.3172C 59.1005,50.4241 50.9851,39.4758 37.3108,22.623C 38.0301,21.3006 38.5582,20.3307 38.5582,20.3307 Z "/>
	<radialGradient id="SVGID_Fill10_" cx="39.6786" cy="17.9836" r="20.6293" gradientUnits="userSpaceOnUse" gradientTransform="rotate(119.416908 39.678577 17.983620)">
		<stop offset="0" stop-color="#C2C4D2" stop-opacity="1"/>
		<stop offset="0.5" stop-color="#B1B1B6" stop-opacity="1"/>
		<stop offset="1" stop-color="#000000" stop-opacity="1"/>
	</radialGradient>
	<path fill="url(#SVGID_Fill10_)" stroke-width="0.2" stroke-linejoin="round" d="M 39.6077,12.9409C 42.8623,13.8767 44.6442,16.2034 44.7075,19.0822L 41.3437,25.5293L 40.1999,24.8786L 37.8105,29.5779L 38.7469,30.1656L 37.4204,31.7673L 32.7373,30.1561L 38.1485,20.215L 38.2972,16.8155L 33.1459,14.13C 33.9216,13.4342 34.8847,12.9096 35.9553,12.6064L 35.9553,12.6064C 36.7566,12.5597 37.5715,12.5898 38.3058,12.6831L 38.3058,12.6831C 38.7821,12.7436 39.2244,12.8305 39.6077,12.9409 Z "/>
	<linearGradient id="SVGID_Fill11_" gradientUnits="objectBoundingBox" x1="0.425592" y1="0.905266" x2="1.20913" y2="0.905266" gradientTransform="rotate(-77.764427 0.425592 0.905266)">
		<stop offset="0" stop-color="#DDDDDD" stop-opacity="1"/>
		<stop offset="0.721901" stop-color="#DDDDDD" stop-opacity="1"/>
		<stop offset="1" stop-color="#EDEDEB" stop-opacity="1"/>
	</linearGradient>
	<path fill="url(#SVGID_Fill11_)" stroke-width="0.2" stroke-linejoin="round" d="M 44.746,27.5766L 42.165,32.0801L 36.7917,29.5429L 40.1644,24.1536L 44.746,27.5766 Z "/>
	<radialGradient id="SVGID_Fill12_" cx="39.5276" cy="31.2959" r="5.9429" gradientUnits="userSpaceOnUse" gradientTransform="rotate(177.493851 39.527611 31.295925)">
		<stop offset="0" stop-color="#2D3436" stop-opacity="1"/>
		<stop offset="0.721901" stop-color="#000000" stop-opacity="1"/>
		<stop offset="1" stop-color="#2D3436" stop-opacity="1"/>
	</radialGradient>
	<path fill="url(#SVGID_Fill12_)" stroke-width="0.2" stroke-linejoin="round" d="M 44.746,27.5766L 42.165,32.0801L 37.6203,29.5004L 40.2021,24.9971L 44.746,27.5766 Z "/>
	<radialGradient id="SVGID_Fill13_" cx="41.2747" cy="28.5132" r="1.20156" gradientUnits="userSpaceOnUse" gradientTransform="rotate(203.792496 41.274727 28.513226)">
		<stop offset="0" stop-color="#FFFFFF" stop-opacity="1"/>
		<stop offset="0.526604" stop-color="#BABCB6" stop-opacity="1"/>
		<stop offset="1" stop-color="#878985" stop-opacity="1"/>
	</radialGradient>
	<path fill="url(#SVGID_Fill13_)" stroke-width="0.2" stroke-linejoin="round" d="M 43.6991,27.2954L 41.5319,31.0981L 38.8521,29.7246L 41.0197,25.9216L 43.6991,27.2954 Z "/>
	<radialGradient id="SVGID_Fill14_" cx="41.2228" cy="29.3373" r="1.8368" gradientUnits="userSpaceOnUse" gradientTransform="rotate(190.893661 41.222755 29.337284)">
		<stop offset="0" stop-color="#878985" stop-opacity="1"/>
		<stop offset="0.6213" stop-color="#FFFFFF" stop-opacity="1"/>
		<stop offset="1" stop-color="#545652" stop-opacity="1"/>
	</radialGradient>
	<path fill="url(#SVGID_Fill14_)" stroke-width="0.2" stroke-linejoin="round" d="M 43.8911,27.6921L 43.7487,28.1601L 39.6858,26.5169L 39.8287,26.0486L 43.8911,27.6921 Z "/>
	<radialGradient id="SVGID_Fill15_" cx="39.6632" cy="31.8315" r="1.81409" gradientUnits="userSpaceOnUse" gradientTransform="rotate(189.545227 39.663181 31.831520)">
		<stop offset="0" stop-color="#878985" stop-opacity="1"/>
		<stop offset="0.6213" stop-color="#FFFFFF" stop-opacity="1"/>
		<stop offset="1" stop-color="#545652" stop-opacity="1"/>
	</radialGradient>
	<path fill="url(#SVGID_Fill15_)" stroke-width="0.2" stroke-linejoin="round" d="M 42.2185,30.4661L 42.0918,30.8645L 38.1029,29.3482L 38.23,28.9494L 42.2185,30.4661 Z "/>
	<radialGradient id="SVGID_Fill16_" cx="40.5291" cy="30.4679" r="1.94473" gradientUnits="userSpaceOnUse" gradientTransform="rotate(188.956406 40.529064 30.467857)">
		<stop offset="0" stop-color="#878985" stop-opacity="1"/>
		<stop offset="0.6213" stop-color="#FFFFFF" stop-opacity="1"/>
		<stop offset="1" stop-color="#545652" stop-opacity="1"/>
	</radialGradient>
	<path fill="url(#SVGID_Fill16_)" stroke-width="0.2" stroke-linejoin="round" d="M 43.2208,29.1538L 43.0903,29.551L 38.828,27.9777L 38.9573,27.5807L 43.2208,29.1538 Z "/>
	<linearGradient id="SVGID_Fill17_" gradientUnits="objectBoundingBox" x1="0.587932" y1="0.995762" x2="1.59051" y2="0.995762" gradientTransform="rotate(269.246460 0.587932 0.995762)">
		<stop offset="0" stop-color="#545454" stop-opacity="1"/>
		<stop offset="0.3965" stop-color="#878787" stop-opacity="1"/>
		<stop offset="1" stop-color="#545454" stop-opacity="1"/>
	</linearGradient>
	<path fill="url(#SVGID_Fill17_)" stroke-width="0.2" stroke-linejoin="round" d="M 33.7128,27.2061C 33.5136,29.0212 33.1108,29.1005 33.0406,29.4225L 33.0406,29.4225C 32.9019,29.3515 32.8658,29.3489 32.8446,29.3487L 32.8446,29.3487C 32.8186,29.3479 32.813,29.35 32.6633,29.2296L 32.6633,29.2296C 32.7036,29.0726 33.2058,27.996 33.408,27.612L 33.408,27.612C 33.4703,26.7065 33.6826,24.1697 33.7005,23.929L 33.7005,23.929C 33.8654,23.8264 33.9294,23.7861 34.1307,23.6766L 34.1307,23.6766C 34.152,23.7897 33.7416,27.0911 33.7128,27.2061 Z "/>
	<linearGradient id="SVGID_Fill18_" gradientUnits="objectBoundingBox" x1="0.978813" y1="0.478393" x2="1.93316" y2="0.478393" gradientTransform="rotate(176.778061 0.978813 0.478393)">
		<stop offset="0" stop-color="#878787" stop-opacity="1"/>
		<stop offset="0.893501" stop-color="#DDDDDD" stop-opacity="1"/>
		<stop offset="1" stop-color="#C6C6CB" stop-opacity="1"/>
	</linearGradient>
	<path fill="url(#SVGID_Fill18_)" stroke-width="0.2" stroke-linejoin="round" d="M 46.9136,31.8953C 47.8892,32.4541 66.4929,55.9006 66.3611,55.8552L 66.3611,55.8552C 64.3326,55.1561 61.7563,57.5206 62.0066,59.9624L 62.0066,59.9624C 60.5744,58.4298 44.5711,35.1649 44.2897,34.0841L 44.2897,34.0841C 43.927,32.6862 45.0515,31.5175 46.2514,31.67L 46.2514,31.67C 46.4725,31.6981 46.696,31.7708 46.9136,31.8953 Z "/>
	<linearGradient id="SVGID_Fill19_" gradientUnits="objectBoundingBox" x1="0.552212" y1="0.426897" x2="0.741952" y2="0.426897" gradientTransform="rotate(134.234528 0.552212 0.426897)">
		<stop offset="0" stop-color="#E2EE48" stop-opacity="1"/>
		<stop offset="0.212997" stop-color="#E3EE54" stop-opacity="1"/>
		<stop offset="1" stop-color="#85781D" stop-opacity="1"/>
	</linearGradient>
	<path fill="url(#SVGID_Fill19_)" stroke-width="0.2" stroke-linejoin="round" d="M 46.4767,32.6255C 47.5547,33.5668 57.5234,46.0281 64.646,55.0362L 64.646,55.0362C 64.0882,55.1927 63.5365,55.4699 63.0321,55.8812L 63.0321,55.8812C 62.333,56.4505 61.8301,57.1829 61.5157,57.9687L 61.5157,57.9687C 57.6434,52.7094 45.7471,35.3022 45.0867,33.8324L 45.0867,33.8324C 45.0685,33.7541 45.0552,33.676 45.0513,33.5992L 45.0513,33.5992C 45.0358,33.2487 45.1767,32.9279 45.4517,32.7108L 45.4517,32.7108C 45.6573,32.5489 45.8971,32.4842 46.1349,32.5144L 46.1349,32.5144C 46.2506,32.5291 46.3659,32.5659 46.4767,32.6255 Z "/>
	<radialGradient id="SVGID_Fill20_" cx="44.7099" cy="18.9099" r="8.29927" gradientUnits="userSpaceOnUse" gradientTransform="rotate(170.940399 44.709938 18.909885)">
		<stop offset="0" stop-color="#FFFFFF" stop-opacity="1"/>
		<stop offset="1" stop-color="#878985" stop-opacity="1"/>
	</radialGradient>
	<path fill="url(#SVGID_Fill20_)" stroke-width="0.2" stroke-linejoin="round" d="M 46.6041,30.3707C 46.6383,30.4342 46.6925,30.5207 46.7588,30.6191L 46.7588,30.6191C 46.572,30.3827 46.4371,30.1997 46.3707,30.0866L 46.3707,30.0866C 45.1396,28.0097 43.7383,22.5868 43.5914,21.2204L 44.6723,19.1491C 44.7631,20.4977 45.3224,28.0005 46.6041,30.3707 Z "/>
	<linearGradient id="SVGID_Fill21_" gradientUnits="objectBoundingBox" x1="0.526346" y1="1.09892" x2="1.23724" y2="1.09892" gradientTransform="rotate(267.071320 0.526346 1.098918)">
		<stop offset="0" stop-color="#FFFFFF" stop-opacity="0.501961"/>
		<stop offset="1" stop-color="#000000" stop-opacity="0.501961"/>
	</linearGradient>
	<path fill="url(#SVGID_Fill21_)" stroke-width="0.2" stroke-linejoin="round" d="M 65.4053,63.0114C 66.7652,63.1978 68.2855,61.8002 68.5043,60.2411C 68.7143,58.7417 67.7776,57.1559 66.0591,56.9207C 64.6996,56.7348 63.2535,58.0859 63.0438,59.8085C 62.8699,61.2331 64.0455,62.8254 65.4053,63.0114 Z M 61.6307,62.3006C 61.3715,61.6765 61.2572,61.0088 61.344,60.3618C 61.5243,59.0189 62.2912,57.7337 63.3944,56.9234C 64.2714,56.2797 65.277,55.9896 66.2265,56.107C 67.4514,56.2593 68.5221,56.8416 69.2416,57.7463C 69.8723,58.5388 70.1948,59.5309 70.1638,60.5278C 69.7426,63.8918 66.154,66.6711 62.8847,63.7732C 62.5985,63.5205 62.1692,63.0094 61.6307,62.3006 Z "/>
	<linearGradient id="SVGID_Fill22_" gradientUnits="objectBoundingBox" x1="0.565812" y1="0.961216" x2="1.54091" y2="0.961216" gradientTransform="rotate(262.802917 0.565812 0.961216)">
		<stop offset="0" stop-color="#EDEDED" stop-opacity="1"/>
		<stop offset="1" stop-color="#525252" stop-opacity="1"/>
	</linearGradient>
	<path fill="url(#SVGID_Fill22_)" stroke-width="0.2" stroke-linejoin="round" d="M 66.1163,56.5018C 66.993,56.6218 67.7605,57.0724 68.2781,57.77L 68.2781,57.77C 68.8073,58.4842 69.0394,59.4054 68.9146,60.2984L 68.9146,60.2984C 68.6584,62.1243 66.9249,63.6462 65.3473,63.4301L 65.3473,63.4301C 63.7772,63.2154 62.4318,61.397 62.6321,59.759L 62.6321,59.759C 62.7578,58.7267 63.3035,57.7417 64.0916,57.1214L 64.0916,57.1214C 64.7113,56.6336 65.4225,56.4136 66.0961,56.4993L 66.1163,56.5018 Z M 68.5044,60.2405C 68.7143,58.7417 67.7776,57.1559 66.0591,56.9212L 66.0591,56.9212C 64.6991,56.7347 63.2535,58.0863 63.0438,59.8085L 63.0438,59.8085C 62.8699,61.2331 64.0455,62.8254 65.4053,63.0114L 65.4228,63.0136L 65.4228,63.0136C 66.778,63.1858 68.2863,61.7933 68.5044,60.2405 Z "/>
	<path fill="#9B9BA1" fill-opacity="0.403922" stroke-width="0.2" stroke-linejoin="round" d="M 49.2448,32.8718C 49.1289,32.6572 49.0199,32.3888 48.9168,32.0799C 53.951,38.4156 69.0108,56.1418 69.7741,57.8368C 69.9228,58.1666 70.0266,58.5037 70.0977,58.8449C 67.8594,55.431 50.1613,34.5783 49.2448,32.8718 Z "/>
	<linearGradient id="SVGID_Fill23_" gradientUnits="objectBoundingBox" x1="0.957688" y1="0.895554" x2="2.258" y2="0.895554" gradientTransform="rotate(216.250992 0.957688 0.895554)">
		<stop offset="0" stop-color="#C8C8C8" stop-opacity="1"/>
		<stop offset="0.0229034" stop-color="#B1B1B1" stop-opacity="1"/>
		<stop offset="0.0500031" stop-color="#9E9E9E" stop-opacity="1"/>
		<stop offset="0.0819016" stop-color="#919191" stop-opacity="1"/>
		<stop offset="0.122498" stop-color="#898989" stop-opacity="1"/>
		<stop offset="0.201202" stop-color="#878787" stop-opacity="1"/>
		<stop offset="1" stop-color="#676767" stop-opacity="1"/>
	</linearGradient>
	<path fill="url(#SVGID_Fill23_)" stroke-width="0.2" stroke-linejoin="round" d="M 42.3723,33.1824C 44.6019,35.0528 60.1236,60.5158 62.8475,62.9306L 62.8475,62.9306C 66.2627,65.9571 70.0254,62.7898 70.1633,59.2325L 70.1633,59.2325C 70.451,61.4847 69.1824,63.7628 67.3456,64.6258L 67.3421,64.6274L 67.3194,64.6381L 67.3058,64.6442L 67.3019,64.6461L 67.3019,64.6461C 65.9935,65.2406 64.405,65.1204 62.8855,63.7737L 62.8855,63.7737C 60.1608,61.3592 44.6394,35.8963 42.4097,34.0258L 42.4097,34.0258C 40.9027,32.7612 32.7374,30.1553 32.7374,30.1553L 33.1222,29.4488C 34.8079,29.9993 41.0711,32.0905 42.3723,33.1824 Z "/>
	<linearGradient id="SVGID_Fill24_" gradientUnits="objectBoundingBox" x1="1.0471" y1="0.671853" x2="2.16647" y2="0.671853" gradientTransform="rotate(188.170044 1.047104 0.671853)">
		<stop offset="0" stop-color="#878787" stop-opacity="1"/>
		<stop offset="1" stop-color="#545454" stop-opacity="1"/>
	</linearGradient>
	<path fill="url(#SVGID_Fill24_)" stroke-width="0.2" stroke-linejoin="round" d="M 38.2972,16.8155L 38.2989,17.702L 32.9628,14.8555L 33.1459,14.13L 38.2972,16.8155 Z "/>
	<linearGradient id="SVGID_Fill25_" gradientUnits="objectBoundingBox" x1="1.37443" y1="1.21651" x2="3.09776" y2="1.21651" gradientTransform="rotate(197.790497 1.374430 1.216509)">
		<stop offset="0" stop-color="#000000" stop-opacity="1"/>
		<stop offset="0.893501" stop-color="#FFFFFF" stop-opacity="1"/>
		<stop offset="1" stop-color="#FFFFFF" stop-opacity="1"/>
	</linearGradient>
	<path fill="url(#SVGID_Fill25_)" stroke-width="0.2" stroke-linejoin="round" d="M 38.2598,15.9721L 38.2243,16.7779L 33.1459,14.13C 33.3541,13.9475 33.5679,13.7871 33.785,13.639L 38.2598,15.9721 Z "/>
</svg>
