<?xml version="1.0" encoding="utf-8"?>
<!DOCTYPE svg PUBLIC "-//W3C//DTD SVG 1.1//EN" "http://www.w3.org/Graphics/SVG/1.1/DTD/svg11.dtd">
<svg xmlns="http://www.w3.org/2000/svg" xmlns:xlink="http://www.w3.org/1999/xlink" version="1.1" baseProfile="full" width="257" height="257" viewBox="0 0 257.00 257.00" enable-background="new 0 0 257.00 257.00" xml:space="preserve">
	<path fill="#FFFFFF" fill-opacity="1" stroke-width="5" stroke-linejoin="bevel" stroke="#000000" stroke-opacity="1" d="M 205.915,88.9821L 205.248,107.315L 201.248,118.982L 195.915,128.982L 190.915,136.982L 184.248,143.982L 179.248,146.982L 174.582,147.982L 171.915,141.649L 171.915,132.982L 172.248,125.982L 175.582,118.649L 183.582,112.649L 191.582,106.316L 199.582,98.9823L 205.915,88.9821 Z "/>
	<path fill="#FFFFFF" fill-opacity="1" stroke-width="5" stroke-linejoin="bevel" stroke="#000000" stroke-opacity="1" d="M 45.5818,90.9821L 57.2484,103.982L 59.915,105.649L 67.5817,113.649L 73.5817,117.982L 79.915,120.982L 84.2484,127.649L 87.5817,136.982L 89.2484,145.982L 89.915,153.316L 86.915,155.982L 80.915,152.649L 72.5817,144.316L 62.915,133.982L 57.2484,124.982L 52.2484,115.982L 49.2484,105.649L 47.5817,97.6489L 45.5818,90.9821 Z "/>
	<path fill="#FFFFFF" fill-opacity="1" stroke-width="5" stroke-linejoin="bevel" stroke="#000000" stroke-opacity="1" d="M 78.5818,118.649L 77.2484,99.9821L 77.2484,85.9823L 79.2484,73.3156L 85.915,62.3156L 91.5817,55.3156L 99.915,48.6489L 109.582,42.9823L 120.248,41.3156L 138.915,42.3156L 150.248,45.3156L 159.915,49.6489L 168.582,55.3156L 174.915,61.3156L 179.915,70.9823L 182.582,80.9823L 184.582,90.3156L 182.248,102.316L 177.915,111.982L 173.582,119.982L 172.915,128.982L 173.582,139.649L 175.248,147.316L 180.248,155.982L 187.248,162.982L 192.582,168.316L 200.915,172.649L 207.582,176.649L 208.915,179.982L 206.582,183.982L 200.915,191.316L 194.248,197.982L 186.248,202.982L 179.915,206.316L 172.248,208.316L 163.248,210.649L 151.582,210.649L 140.582,210.649L 133.248,208.649L 126.915,205.649L 120.915,200.982L 115.915,197.649L 111.248,201.649L 105.915,205.982L 101.915,209.316L 95.5817,210.649L 83.915,211.982L 75.5817,211.316L 68.5817,205.982L 69.915,202.649L 76.5817,198.316L 82.915,192.316L 87.915,183.982L 89.2484,172.982L 89.915,163.982L 89.5817,151.982L 87.915,143.649L 84.915,135.316L 82.2484,128.649L 78.5818,118.649 Z "/>
	<path fill="#FF0000" fill-opacity="1" stroke-width="5" stroke-linejoin="bevel" stroke="#000000" stroke-opacity="1" d="M 100.248,118.982L 109.915,127.315L 116.248,128.316L 124.248,128.982L 134.248,127.649L 141.915,126.316L 148.248,123.316L 153.915,119.649L 152.915,122.649L 146.915,130.982L 139.915,141.982L 133.915,149.982L 127.915,157.316L 125.248,158.982L 118.915,152.316L 114.248,144.316L 108.915,135.982L 104.248,127.649L 100.582,121.316L 100.248,118.982 Z "/>
	<path fill="#000000" fill-opacity="1" stroke-width="5" stroke-linejoin="bevel" stroke="#2D2D2D" stroke-opacity="1" d="M 103.582,69.3154L 112.248,77.6488L 117.582,81.6489L 119.915,88.3156L 120.248,110.316L 108.582,109.316L 108.248,91.9823L 108.582,80.3156L 103.582,69.3154 Z "/>
	<path fill="#000000" fill-opacity="1" stroke-width="5" stroke-linejoin="bevel" stroke="#2D2D2D" stroke-opacity="1" d="M 148.969,70.3042L 140.303,78.6376L 134.97,82.6377L 132.636,89.3043L 132.303,111.304L 143.97,110.304L 144.303,92.9711L 143.97,81.3043L 148.969,70.3042 Z "/>
	<filter id="Filter_GaussianBlur1_" filterUnits="userSpaceOnUse">
		<feGaussianBlur stdDeviation="1.88976"/>
	</filter>
	<path fill="#858383" fill-opacity="1" stroke-width="0.2" stroke-linejoin="bevel" filter="url(#Filter_GaussianBlur1_)" d="M 113.582,47.3154L 135.582,51.6488L 147.582,56.9823L 157.248,64.3156L 165.248,74.3156L 166.582,87.3156L 166.248,104.982L 163.582,121.982C 163.582,121.982 162.915,134.982 162.582,136.649C 162.248,138.316 161.582,145.316 161.582,145.316L 164.915,154.649L 168.915,162.649L 176.582,169.982L 185.582,175.982L 193.915,179.982L 201.248,181.649L 204.769,176.878L 193.019,170.378L 185.394,163.503L 177.769,155.128L 171.915,141.649L 172.582,125.982L 174.915,115.982L 180.644,99.3781L 182.248,85.9823L 175.144,64.8781L 167.248,56.6489L 152.394,47.6281L 134.915,43.6489L 121.582,43.3156L 113.582,47.3154 Z "/>
	<filter id="Filter_GaussianBlur2_" filterUnits="userSpaceOnUse">
		<feGaussianBlur stdDeviation="1.88976"/>
	</filter>
	<path fill="#858383" fill-opacity="1" stroke-width="0.2" stroke-linejoin="bevel" filter="url(#Filter_GaussianBlur2_)" d="M 78.7172,199.014L 74.0922,202.326L 70.4047,204.951L 75.4984,209.066L 79.9984,210.232L 86.8317,210.399L 92.4984,210.232L 100.217,207.951L 104.498,204.566L 107.217,202.014L 100.832,202.899L 94.3317,205.066L 87.9984,204.399L 83.165,201.399L 80.3422,197.951L 78.7172,199.014 Z "/>
	<filter id="Filter_GaussianBlur3_" filterUnits="userSpaceOnUse">
		<feGaussianBlur stdDeviation="1.88976"/>
	</filter>
	<path fill="#858383" fill-opacity="1" stroke-width="0.2" stroke-linejoin="bevel" filter="url(#Filter_GaussianBlur3_)" d="M 121.248,199.045L 129.717,204.826L 137.655,207.639L 143.217,208.514L 161.832,209.399L 168.998,207.732L 178.832,203.899L 174.998,202.232L 169.332,203.232L 161.332,205.566L 152.498,205.399L 138.832,202.066L 131.165,199.566L 121.248,199.045 Z "/>
</svg>
