<?xml version="1.0" encoding="utf-8"?>
<!DOCTYPE svg PUBLIC "-//W3C//DTD SVG 1.1//EN" "http://www.w3.org/Graphics/SVG/1.1/DTD/svg11.dtd">
<svg xmlns="http://www.w3.org/2000/svg" xmlns:xlink="http://www.w3.org/1999/xlink" version="1.1" baseProfile="full" width="200" height="200" viewBox="0 0 200.00 200.00" enable-background="new 0 0 200.00 200.00" xml:space="preserve">
	<path fill="#8C8C8C" fill-opacity="1" stroke-width="0.2" stroke-linejoin="round" d="M 196.189,148.219C 196.189,159.725 181.723,157.526 174.222,157.526L 35.4231,157.526C 27.9832,157.526 14.6452,159.421 14.6452,148.157L 14.6452,65.2987C 14.6452,56.9188 12.9441,44.7844 25.1209,44.7844L 175.423,44.7844C 181.592,44.7844 191.133,43.1311 194.888,49.3887C 198.678,55.6957 196.189,68.515 196.189,75.3319L 196.189,148.219 Z "/>
	<path fill="#3F3F3F" fill-opacity="1" stroke-width="0.2" stroke-linejoin="round" d="M 24.1809,44.0784C 10.3101,44.0784 13.9548,64.7871 13.9548,73.5068L 13.9548,125.09C 13.9548,133 10.4907,151.966 19.0227,156.849C 24.8447,160.182 35.6727,158.212 41.923,158.212L 179.684,158.212C 187.981,158.212 196.893,157.665 196.893,146.637L 196.893,68.3842C 196.893,60.0573 199.48,44.0784 186.66,44.0784C 180.976,43.3101 174.643,44.0784 168.923,44.0784L 24.1809,44.0784 Z M 15.3444,148.219L 15.3444,66.7992C 15.3444,58.6744 13.0751,45.4678 25.1209,45.4678L 184.842,45.4678C 196.444,45.4678 195.504,55.446 195.504,63.8685L 195.504,143.303C 195.504,151.005 193.118,156.82 184.295,156.82L 34.276,156.82C 27.4999,156.82 15.3444,158.509 15.3444,148.219 Z "/>
	<path fill="#B2B2B2" fill-opacity="1" stroke-width="0.2" stroke-linejoin="round" d="M 188.873,146.775C 188.873,158.288 173.051,155.728 165.654,155.728L 30.0312,155.728C 21.4708,155.728 14.6381,153.924 14.6381,143.663L 14.6381,58.4199C 14.6381,47.6946 22.7223,47.1477 30.9783,47.1477L 173.489,47.1477C 180.091,47.1477 188.873,47.031 188.873,56.3789L 188.873,81.5557C 188.873,103.302 188.873,125.034 188.873,146.775 Z "/>
	<path fill="#E5E5E5" fill-opacity="1" stroke-width="0.2" stroke-linejoin="round" d="M 140.173,111.51C 140.173,127.02 129.083,143.109 112.424,143.109C 95.7672,143.109 84.6702,127.02 84.6702,111.51C 84.6702,96 95.7601,79.8951 112.424,79.8951C 129.083,79.8951 140.173,96 140.173,111.51 Z "/>
	<path fill="#3F3F3F" fill-opacity="1" stroke-width="0.2" stroke-linejoin="round" d="M 53.9972,45.2678C 53.9972,50.364 25.4802,50.364 25.4802,45.2678C 25.4802,40.1858 53.9972,40.1787 53.9972,45.2678 Z "/>
	<path fill="#666666" fill-opacity="1" stroke-width="0.2" stroke-linejoin="round" d="M 51.0301,45.6484C 51.0301,49.3813 25.8059,49.3813 25.8059,45.6484C 25.8059,41.9346 51.0301,41.9346 51.0301,45.6484 Z "/>
	<path fill="#3F3F3F" fill-opacity="1" stroke-width="0.2" stroke-linejoin="round" d="M 139.945,44.8801C 139.945,51.3801 89.8354,51.3801 89.8354,44.8801C 89.8354,38.373 139.945,38.373 139.945,44.8801 Z "/>
	<path fill="#666666" fill-opacity="1" stroke-width="0.2" stroke-linejoin="round" d="M 134.739,45.365C 134.739,50.0596 90.4158,50.0525 90.4158,45.365C 90.4158,40.6619 134.739,40.6619 134.739,45.365 Z "/>
	<path fill="#C6C6C6" fill-opacity="1" stroke-width="0.2" stroke-linejoin="round" d="M 184.628,62.1249L 147.772,62.1249C 145.609,62.1249 145.388,56.2833 146.466,55.1895C 148.976,52.6316 167.127,55.1895 170.784,55.1895L 183.313,55.1895C 186.03,55.1895 184.628,59.9263 184.628,62.1249 Z "/>
	<path fill="#FFFFFF" fill-opacity="1" stroke-width="0.2" stroke-linejoin="round" d="M 179.261,50.8899C 179.261,53.821 38.8395,52.3342 24.2216,52.3342C 19.0493,52.3342 15.3586,49.4436 21.9824,49.4436L 155.462,49.4436C 157.536,49.4436 179.261,47.8323 179.261,50.8899 Z "/>
	<path fill="#8C8C8C" fill-opacity="1" stroke-width="0.2" stroke-linejoin="round" d="M 176.247,49.4648L 170.501,49.4648C 178.411,77.3446 185.588,131.596 149.404,143.856C 132.768,149.492 113.794,148.033 96.5903,146.801C 68.5442,144.783 36.7653,144.465 11.1669,131.907C 11.1669,142.571 9.5224,154.574 23.3932,154.574L 176.087,154.574C 188.547,154.574 185.402,137.211 185.402,129.252L 185.402,80.2563C 185.402,72.1719 189.439,49.4648 176.247,49.4648 Z "/>
	<path fill="#5E5D5D" fill-opacity="1" stroke-width="0.2" stroke-linejoin="round" d="M 188.907,61.3512L 61.8867,61.3512C 57.0595,61.3512 43.0365,64.0472 39.5033,59.8165L 166.775,59.8165C 170.017,59.8165 188.783,57.9774 188.907,61.3512 Z "/>
	<path fill="#5E5D5D" fill-opacity="1" stroke-width="0.2" stroke-linejoin="round" d="M 158.926,143.87C 158.926,152.928 144.855,152.942 144.855,143.87C 144.862,134.77 158.926,134.777 158.926,143.87 Z "/>
	<radialGradient id="SVGID_Fill1_" cx="151.883" cy="143.864" r="143.181" gradientUnits="userSpaceOnUse" gradientTransform="rotate(180.000000 151.883118 143.863770)">
		<stop offset="0" stop-color="#F9F9F9" stop-opacity="1"/>
		<stop offset="1" stop-color="#141414" stop-opacity="1"/>
	</radialGradient>
	<path fill="url(#SVGID_Fill1_)" stroke-width="0.2" stroke-linejoin="round" d="M 157.826,143.87C 157.826,151.517 145.94,151.517 145.94,143.87C 145.94,136.202 157.826,136.194 157.826,143.87 Z "/>
	<path fill="#5E5D5D" fill-opacity="1" stroke-width="0.2" stroke-linejoin="round" d="M 184.628,62.1249L 147.772,62.1249C 145.609,62.1249 145.388,56.2833 146.466,55.1895C 148.976,52.6316 167.127,55.1895 170.784,55.1895L 183.313,55.1895C 186.03,55.1895 184.628,59.9263 184.628,62.1249 Z "/>
	<path fill="#FFFFFF" fill-opacity="1" stroke-width="0.2" stroke-linejoin="round" d="M 181.738,61.3512L 150.863,61.3512C 148.733,61.3512 148.029,57.2847 149.356,55.9506C 151.374,53.9114 165.792,55.9506 168.697,55.9506L 180.229,55.9506C 183.003,55.9506 181.738,58.958 181.738,61.3512 Z "/>
	<path fill="#3F3F3F" fill-opacity="1" stroke-width="0.2" stroke-linejoin="round" d="M 116.547,150.12C 101.867,151.676 86.1641,146.173 77.3754,133.927C 94.3563,164.773 141.341,159.691 151.438,126.052C 145.407,139.866 131.227,148.559 116.547,150.12 Z "/>
	<path fill="#C6C6C6" fill-opacity="1" stroke-width="0.2" stroke-linejoin="round" d="M 154.631,110.12C 154.631,133.228 135.326,152.506 112.231,152.506C 89.1221,152.506 69.8311,133.228 69.8311,110.12C 69.8311,87.0112 89.1221,67.7133 112.231,67.7133C 135.333,67.7133 154.631,87.0112 154.631,110.12 Z "/>
	<path fill="#5E5D5D" fill-opacity="1" stroke-width="0.2" stroke-linejoin="round" d="M 154.631,110.12C 154.631,133.228 135.326,152.506 112.231,152.506C 89.1221,152.506 69.8311,133.228 69.8311,110.12C 69.8311,87.0112 89.1221,67.7133 112.231,67.7133C 135.333,67.7133 154.631,87.0112 154.631,110.12 Z "/>
	<path fill="#8C8C8C" fill-opacity="1" stroke-width="0.2" stroke-linejoin="round" d="M 148.333,110.12C 148.333,156.675 76.131,156.675 76.131,110.12C 76.131,63.5356 148.333,63.5356 148.333,110.12 Z "/>
	<path fill="#E5E5E5" fill-opacity="1" stroke-width="0.2" stroke-linejoin="round" d="M 112.134,72.6696C 124.505,72.6696 137.836,77.8348 144.653,88.6504C 132.609,62.7408 91.6604,62.7479 79.6075,88.6504C 86.4261,77.8348 99.757,72.6696 112.134,72.6696 Z "/>
	<path fill="#666666" fill-opacity="1" stroke-width="0.2" stroke-linejoin="round" d="M 112.1,137.66C 100.38,137.779 90.1945,129.923 85.7411,119.352C 94.8626,148.378 129.573,148.012 138.098,118.804C 133.853,129.48 123.827,137.543 112.1,137.66 Z "/>
	<path fill="#FFFFFF" fill-opacity="1" stroke-width="0.2" stroke-linejoin="round" d="M 112.46,79.3146C 124.546,79.3146 137.788,84.4941 143.984,95.4264C 132.997,69.2479 91.9436,69.2549 80.9564,95.4264C 87.159,84.4941 100.38,79.3146 112.46,79.3146 Z "/>
	<radialGradient id="SVGID_Fill2_" cx="112.226" cy="110.112" r="82.0671" gradientUnits="userSpaceOnUse" gradientTransform="rotate(180.000000 112.226486 110.112183)">
		<stop offset="0" stop-color="#FFFFFF" stop-opacity="1"/>
		<stop offset="0.126099" stop-color="#E6E6E6" stop-opacity="1"/>
		<stop offset="0.395203" stop-color="#A3A3A3" stop-opacity="1"/>
		<stop offset="0.782501" stop-color="#3D3D3D" stop-opacity="1"/>
		<stop offset="1" stop-color="#000000" stop-opacity="1"/>
	</radialGradient>
	<path fill="url(#SVGID_Fill2_)" stroke-width="0.2" stroke-linejoin="round" d="M 139.98,110.106C 139.98,145.909 84.4754,145.904 84.4754,110.106C 84.4754,74.3158 139.98,74.3158 139.98,110.106 Z "/>
	<path fill="#5E5D5D" fill-opacity="1" stroke-width="0.2" stroke-linejoin="round" d="M 108.684,96.8373C 120.792,96.8373 130.368,107.451 129.283,119.421C 151.305,91.4579 95.5123,69.7379 92.434,104.822C 96.3425,99.8661 102.35,96.8373 108.684,96.8373 Z "/>
	<path fill="#5E5D5D" fill-opacity="1" stroke-width="0.2" stroke-linejoin="round" d="M 110.454,130.649C 98.9216,129.751 86.4598,121.024 87.4563,108.26C 84.9534,140.427 134.137,144.236 136.64,112.083C 135.657,124.848 121.981,131.548 110.454,130.649 Z "/>
	<path fill="#383838" fill-opacity="1" stroke-width="0.2" stroke-linejoin="round" d="M 113.109,89.8594C 114.575,92.8739 102.379,98.703 100.932,95.662C 99.5092,92.6119 111.684,86.8378 113.109,89.8594 Z "/>
	<path fill="#E5E5E5" fill-opacity="1" stroke-width="0.2" stroke-linejoin="round" d="M 127.023,97.963C 127.023,100.287 123.64,100.287 123.64,97.963C 123.64,95.6478 127.023,95.6478 127.023,97.963 Z "/>
	<path fill="#E5E5E5" fill-opacity="1" stroke-width="0.2" stroke-linejoin="round" d="M 122.257,92.5713C 122.257,96.2762 116.864,96.269 116.864,92.5713C 116.864,88.8716 122.257,88.8646 122.257,92.5713 Z "/>
	<path fill="#383838" fill-opacity="1" stroke-width="0.2" stroke-linejoin="round" d="M 100.601,59.8165C 100.601,70.7418 83.647,70.7472 83.647,59.8165C 83.647,48.863 100.601,48.8699 100.601,59.8165 Z "/>
	<path fill="#383838" fill-opacity="1" stroke-width="0.2" stroke-linejoin="round" d="M 117.57,59.8165C 117.57,67.7609 105.234,67.7609 105.234,59.8165C 105.234,51.844 117.57,51.8508 117.57,59.8165 Z "/>
	<path fill="#5E5D5D" fill-opacity="1" stroke-width="0.2" stroke-linejoin="round" d="M 91.2108,56.4762C 94.813,56.4762 97.2824,59.5262 97.1231,62.9551C 103.359,55.0371 87.4156,48.5657 86.543,58.7721C 87.7396,57.2847 89.2955,56.5171 91.2108,56.4762 Z "/>
	<path fill="#5E5D5D" fill-opacity="1" stroke-width="0.2" stroke-linejoin="round" d="M 110.364,57.8252C 113.04,57.8252 114.52,59.9883 114.555,62.4152C 119.014,56.6763 107.689,52.3821 107.066,59.4572C 107.91,58.4058 109.017,57.8588 110.364,57.8252 Z "/>
	<path fill="#494848" fill-opacity="1" stroke-width="0.2" stroke-linejoin="round" d="M 55.1159,111.075C 55.1159,123.63 53.4856,136.492 50.1719,148.628C 47.5928,158.038 37.5738,158.875 29.456,158.875C 22.6391,158.875 10.1579,161.302 5.92548,154.27C 3.54818,150.329 4.61912,143.684 4.61912,139.34L 4.61912,64.3109C 4.61912,62.7075 4.50937,60.9707 4.95899,59.4147C 5.7467,56.7118 8.02132,54.8867 10.6978,54.2424C 13.1795,53.6548 16.8579,55.5144 14.169,58.2821C 23.3295,58.2821 35.8249,55.5559 42.2275,63.6613C 51.6525,75.5956 55.1159,96.5736 55.1159,111.075 Z "/>
	<path fill="#7C7C7C" fill-opacity="1" stroke-width="0.2" stroke-linejoin="round" d="M 6.784,55.5559C 2.24005,59.436 4.04559,70.0215 4.04559,75.2222L 4.04559,111.136C 4.04559,122.019 -2.5234,159.456 15.2187,159.456C 24.1261,159.456 36.4745,161.467 44.5517,156.758C 55.7531,150.225 55.2894,125.692 55.6292,115.05C 56.1262,99.2428 52.3793,82.3929 45.6229,68.0513C 39.4059,54.9417 26.9052,57.7065 14.7974,57.7065C 15.5232,52.0298 10.8907,52.0364 6.784,55.5559 Z M 5.19971,149.589L 5.19971,66.0599C 5.19971,63.8065 4.88818,60.9229 5.78741,58.8058C 7.51685,54.7273 16.3605,52.1555 13.3388,58.7579C 23.7933,59.4625 36.3914,55.4531 43.0577,65.8174C 52.4822,80.4635 55.3106,102.017 54.2938,118.859C 53.5051,132.033 53.7759,155.901 36.6268,158.079C 28.5514,159.109 5.19971,161.821 5.19971,149.589 Z "/>
	<path fill="#5E5D5D" fill-opacity="1" stroke-width="0.2" stroke-linejoin="round" d="M 16.7552,155.59C 16.7552,159.725 7.3168,157.284 7.3168,152.687L 7.3168,78.6437C 7.3168,76.3427 5.51834,61.7461 8.04964,59.9263C 10.0888,58.4678 16.7552,61.808 16.7552,64.0065C 17.2792,65.1959 16.7552,67.8158 16.7552,69.0815L 16.7552,155.59 Z "/>
	<path fill="#FFFFFF" fill-opacity="1" stroke-width="0.2" stroke-linejoin="round" d="M 22.8817,53.814C 22.8817,59.5953 16.61,59.5953 16.61,53.814C 16.61,48.0398 22.8817,48.0398 22.8817,53.814 Z "/>
	<path fill="#C6C6C6" fill-opacity="1" stroke-width="0.2" stroke-linejoin="round" d="M 12.4821,152.901C 12.737,154.491 12.3015,155.778 11.1669,156.751C 8.78248,156.751 8.78248,62.5409 11.1669,62.5409C 13.8716,62.5409 12.4821,144.374 12.4821,152.901 Z "/>
	<path fill="#E5E5E5" fill-opacity="1" stroke-width="0.2" stroke-linejoin="round" d="M 11.2996,152.901C 11.4784,154.27 11.2784,155.556 10.6836,156.751C 9.57727,156.751 9.57727,62.5409 10.6836,62.5409C 11.9493,62.5409 11.2996,144.672 11.2996,152.901 Z "/>
	<path fill="#5E5D5D" fill-opacity="1" stroke-width="0.2" stroke-linejoin="round" d="M 53.5741,111.676C 53.5741,121.715 48.7965,138.483 36.1084,138.483C 23.4127,138.483 18.6351,121.715 18.6351,111.676C 18.6351,101.636 23.4127,84.8746 36.1084,84.8746C 48.7965,84.8746 53.5741,101.643 53.5741,111.676 Z "/>
	<path fill="#383838" fill-opacity="1" stroke-width="0.2" stroke-linejoin="round" d="M 53.8715,110.944C 53.8715,123.335 52.3163,136.002 49.1417,147.984C 46.8122,156.772 31.219,162.782 25.0731,154.353C 22.2656,150.508 23.3171,143.842 23.3171,139.39L 23.3171,110.646C 23.3171,97.0039 21.2142,81.5201 23.3171,68.0106C 23.3171,51.9536 41.0451,60.9159 44.6544,69.6001C 50.0338,82.5381 53.8715,96.8779 53.8715,110.944 Z "/>
	<path fill="#5E5D5D" fill-opacity="1" stroke-width="0.2" stroke-linejoin="round" d="M 52.7864,110.784C 52.7864,121.626 50.5525,132.481 46.4316,142.495C 45.7129,144.222 41.7991,155.126 39.1581,155.126C 35.7771,155.126 35.7771,62.9976 39.1581,62.9976C 41.7584,62.9976 45.789,75.6293 46.4316,77.3516C 50.3808,88.0132 52.7864,99.3951 52.7864,110.784 Z "/>
	<path fill="#666666" fill-opacity="1" stroke-width="0.2" stroke-linejoin="round" d="M 190.305,157.776C 190.305,155.652 44.0808,155.728 44.0808,157.776C 44.0808,160.679 190.305,160.803 190.305,157.776 Z "/>
</svg>
