<?xml version="1.0" encoding="utf-8"?>
<!DOCTYPE svg PUBLIC "-//W3C//DTD SVG 1.1//EN" "http://www.w3.org/Graphics/SVG/1.1/DTD/svg11.dtd">
<svg xmlns="http://www.w3.org/2000/svg" xmlns:xlink="http://www.w3.org/1999/xlink" version="1.1" baseProfile="full" width="257" height="257" viewBox="0 0 257.00 257.00" enable-background="new 0 0 257.00 257.00" xml:space="preserve">
	<g>
		<path fill="#808080" fill-opacity="1" stroke-linejoin="round" d="M 133.731,47.971C 151.217,49.3078 164.309,54.7447 176.656,62.9051L 187.84,48.2503C 173.021,37.0664 154.948,30.0288 135.31,28.8429L 133.731,47.971 Z "/>
		<path fill="#808080" fill-opacity="1" stroke-linejoin="round" d="M 46.1382,109.548C 46.9752,106.411 47.9973,103.359 49.1929,100.401L 36.0664,95.885C 34.8789,99.4126 33.8864,103.029 33.1019,106.722L 46.1382,109.548 Z "/>
		<path fill="#808080" fill-opacity="1" stroke-linejoin="round" d="M 118.516,215.364C 116.247,214.998 114.006,214.55 111.795,214.024L 110.434,222.623C 112.857,223.108 115.31,223.504 117.789,223.81L 118.516,215.364 Z "/>
		<path fill="#808080" fill-opacity="1" stroke-linejoin="round" d="M 100.918,210.721C 86.2581,205.266 73.4064,196.248 63.593,184.75L 56.0234,191.811C 67.3868,204.335 81.9622,213.936 98.3655,219.415L 100.918,210.721 Z "/>
		<path fill="#808080" fill-opacity="1" stroke-linejoin="round" d="M 58.511,178.184C 56.9273,175.921 55.4528,173.582 54.095,171.173L 44.8088,176.786C 46.4476,179.49 48.2155,182.108 50.1036,184.633L 58.511,178.184 Z "/>
		<path fill="#808080" fill-opacity="1" stroke-linejoin="round" d="M 212.144,149.413C 211.012,155.659 209.387,161.687 207.156,167.403L 213.163,170.261C 215.79,164.055 217.654,157.57 218.658,150.949L 212.144,149.413 Z "/>
		<path fill="#808080" fill-opacity="1" stroke-linejoin="round" d="M 204.031,174.402C 201.303,179.777 197.937,184.809 193.819,189.406L 198.501,193.6C 202.803,188.67 206.53,183.313 209.602,177.651L 204.031,174.402 Z "/>
		<path fill="#808080" fill-opacity="1" stroke-linejoin="round" d="M 187.098,195.937C 185.174,197.566 183.126,199.12 180.947,200.594L 185.038,206.173C 187.284,204.468 189.44,202.665 191.501,200.775L 187.098,195.937 Z "/>
		<path fill="#808080" fill-opacity="1" stroke-linejoin="round" d="M 208.059,101.936C 209.786,107.156 211.394,114.644 212.886,126.061L 218.448,126.008C 216.987,114.411 215.111,106.287 212.985,100.42L 208.059,101.936 Z "/>
		<path fill="#808080" fill-opacity="1" stroke-linejoin="round" d="M 197.704,85.6187C 200.89,88.5491 203.762,89.9806 206.323,96.3175L 210.422,95.2849C 207.491,88.6641 203.988,86.2615 200.543,84.3107L 197.704,85.6187 Z "/>
		<path fill="#808080" fill-opacity="1" stroke-linejoin="round" d="M 219.335,134.317L 213.821,133.885C 213.855,134.194 213.889,134.504 213.922,134.818C 213.776,136.941 213.588,139.048 213.352,141.136L 219.483,141.987C 219.565,139.438 219.517,136.879 219.335,134.317 Z "/>
		<path fill="#808080" fill-opacity="1" stroke-linejoin="round" d="M 130.131,224.568C 146.827,224.568 162.173,220.137 175.263,212.644L 171.529,206.045C 161.296,211.088 148.789,214.716 133.569,216.567C 130.567,216.567 127.596,216.426 124.664,216.149L 124.525,224.412C 126.382,224.515 128.251,224.568 130.131,224.568 Z "/>
		<path fill="#808080" fill-opacity="1" stroke-linejoin="round" d="M 30.9643,127.151C 30.9643,141.767 34.229,155.561 40.0503,167.92L 50.1301,163.171C 45.811,153.137 43.4224,142.135 43.4224,130.568C 43.4224,126.175 43.7601,121.892 44.4114,117.735L 31.5605,116.294C 31.1667,119.859 30.9643,123.482 30.9643,127.151 Z "/>
		<path fill="#808080" fill-opacity="1" stroke-linejoin="round" d="M 190.922,73.5677C 195.196,71.272 205.134,64.8999 202.981,62.4124C 200.859,59.9612 198.619,57.617 196.269,55.3888L 184.081,68.175C 186.354,69.8907 188.626,71.6911 190.922,73.5677 Z "/>
		<path fill="#808080" fill-opacity="1" stroke-linejoin="round" d="M 114.812,29.75L 117.258,49.0749C 119.574,48.719 121.921,48.442 124.294,48.2469L 123.588,28.8346C 120.628,29.0089 117.7,29.3161 114.812,29.75 Z "/>
		<path fill="#808080" fill-opacity="1" stroke-linejoin="round" d="M 39.3816,87.3756L 52.4804,93.3138C 63.6666,72.0578 84.3113,56.6201 109.296,50.636L 104.902,31.7702C 75.66,39.3333 51.5022,60.1038 39.3816,87.3756 Z "/>
	</g>
	<ellipse fill="#12508C" fill-opacity="1" stroke-linejoin="round" cx="127.797" cy="131.901" rx="76.5" ry="77"/>
	<path fill="#FFFFFF" fill-opacity="1" stroke-linejoin="round" d="M 96.2969,127.061L 157.964,101.728L 131.963,164.395L 96.2969,127.061 Z "/>
	<g>
		<path fill="#000000" fill-opacity="1" stroke-width="0.2" stroke-linejoin="round" d="M 219.13,72.7105L 213.53,72.7105L 213.53,88.6704L 209.05,88.6704L 209.05,72.7105L 203.45,72.7105L 203.45,69.0705L 219.13,69.0705L 219.13,72.7105 Z "/>
		<path fill="#000000" fill-opacity="1" stroke-width="0.2" stroke-linejoin="round" d="M 244.05,88.6704L 239.57,88.6704L 239.57,76.9411C 239.57,75.6751 239.627,74.2766 239.74,72.7454L 239.631,72.7454C 239.403,73.95 239.198,74.8162 239.014,75.3443L 234.42,88.6704L 230.811,88.6704L 226.134,75.4798C 226.006,75.1241 225.8,74.2126 225.517,72.7454L 225.395,72.7454C 225.511,74.6792 225.57,76.3752 225.57,77.8335L 225.57,88.6704L 221.65,88.6704L 221.65,69.0705L 228.059,69.0705L 232.062,80.6905C 232.383,81.6178 232.616,82.5513 232.762,83.4904L 232.845,83.4904C 233.09,82.4054 233.35,81.4619 233.624,80.6598L 237.627,69.0705L 244.05,69.0705L 244.05,88.6704 Z "/>
	</g>
</svg>
