# Blender v2.77 (sub 0) OBJ File: 'Pfeil.blend'
# www.blender.org
mtllib Pfeil.mtl
o Cube.003
v 1.628172 0.130469 0.607165
v -0.371828 0.130469 0.607165
v 0.643862 0.130469 -2.621738
v 0.628172 0.630186 0.019804
v 0.628172 -0.310374 0.019804
v 0.628172 0.159906 0.019804
v 0.628172 -0.075234 0.019804
v 1.330738 0.159906 1.518211
v 0.628172 0.395046 0.019804
v 0.617332 -0.211440 1.518211
v 0.617332 0.531251 1.518211
v 0.022137 0.159906 1.518211
vn -0.4683 0.8720 0.1427
vn 0.5135 0.8437 -0.1566
vn -0.5157 0.8413 -0.1622
vn 0.4704 0.8699 0.1480
vn 0.5065 0.0000 0.8623
vn -0.5065 0.0000 0.8623
vn -0.4513 -0.8669 0.2116
vn 0.5176 -0.8296 0.2093
vn 0.5176 0.8296 0.2093
vn -0.4513 0.8669 0.2116
vn 0.0000 0.0000 -1.0000
usemtl Grün_1.001
s off
f 5//1 1//1 3//1
f 4//2 1//2 3//2
f 2//3 4//3 3//3
f 2//4 5//4 3//4
f 2//5 5//5 7//5 6//5 9//5 4//5
f 4//6 9//6 6//6 7//6 5//6 1//6
f 11//7 6//7 8//7
f 11//8 12//8 6//8
f 10//9 6//9 12//9
f 6//10 10//10 8//10
f 11//11 8//11 10//11 12//11
o Cube.002
v 0.987221 0.046645 1.000000
v -1.012779 0.046645 1.000000
v 0.002912 0.046645 -2.228903
v -0.012779 0.546362 0.412639
v -0.012779 -0.394198 0.412639
vn -0.4683 0.8720 0.1427
vn 0.5135 0.8437 -0.1566
vn -0.5157 0.8413 -0.1622
vn 0.4704 0.8699 0.1480
vn 0.5065 0.0000 0.8623
vn -0.5065 0.0000 0.8623
usemtl Glas
s off
f 17//12 13//12 15//12
f 16//13 13//13 15//13
f 14//14 16//14 15//14
f 14//15 17//15 15//15
f 14//16 17//16 16//16
f 16//17 17//17 13//17
o Cube.001
v 0.987221 -0.006378 1.000000
v 0.987221 0.446332 1.000000
v -1.012779 0.446332 1.000000
v 0.002912 0.045834 -2.228903
v -0.012779 -0.122835 1.000000
v -0.012779 0.656261 1.000000
v 0.002912 -0.006378 -2.228903
v -1.012779 -0.006378 1.000000
vn 0.9565 0.0000 -0.2916
vn 0.2021 0.9625 -0.1810
vn -0.2020 0.9622 -0.1829
vn -0.9539 0.0000 -0.3001
vn -0.0000 0.0000 1.0000
usemtl Grün_1.001
s off
f 21//18 19//18 18//18 24//18
f 23//19 19//19 21//19
f 20//20 23//20 21//20
f 20//21 21//21 24//21 25//21
f 19//22 23//22 20//22 25//22 22//22 18//22
o Cube
v 0.987221 -0.006378 1.000000
v 0.987221 0.446332 1.000000
v -1.012779 0.446332 1.000000
v 0.002912 0.045834 -2.228903
v -0.012779 0.139712 0.199779
v -0.012779 0.270227 0.199779
v 0.002912 -0.006378 -2.228903
v -1.012779 -0.006378 1.000000
vn 0.9565 0.0000 -0.2916
vn -0.1007 0.9906 -0.0922
vn 0.1017 0.9907 -0.0909
vn -0.9539 0.0000 -0.3001
vn -0.0000 -0.0000 1.0000
usemtl Glas
s off
f 29//23 27//23 26//23 32//23
f 31//24 27//24 29//24
f 28//25 31//25 29//25
f 28//26 29//26 32//26 33//26
f 27//27 31//27 28//27 33//27 30//27 26//27
