<?xml version="1.0" encoding="utf-8"?>
<!DOCTYPE svg PUBLIC "-//W3C//DTD SVG 1.1//EN" "http://www.w3.org/Graphics/SVG/1.1/DTD/svg11.dtd">
<svg x="0" y="0" width="48" height="49.19445" overflow="hidden" viewBox="0, 0, 47.5785, 48.76246"
     preserveAspectRatio="xMidYMid" font-size="0" id="svg" xml:space="preserve" xmlns="http://www.w3.org/2000/svg"
     xmlns:xml="http://www.w3.org/XML/1998/namespace" version="1.1">
  <g transform="matrix(0.178028, 0, 0, 0.1934457, 3.868288, 3.31878)" id="g48" xml:space="preserve">
    <linearGradient x1="82.4466" y1="-42.6168" x2="357.3083" y2="-42.6168" gradientUnits="userSpaceOnUse" gradientTransform="scale(1.125397, 0.8885756)" id="SVGID_Fill1_" xml:space="preserve">
      <stop offset="45.1163%" stop-color="#231F1F" stop-opacity="0.690196" id="stop2" xml:space="preserve" />
      <stop offset="86.5116%" stop-color="#6C6464" stop-opacity="0.0980392" id="stop4" xml:space="preserve" />
    </linearGradient>
    <filter x="none" y="none" width="none" height="none" color-interpolation-filters="auto" id="Filter_GaussianBlur1_" xml:space="preserve" filterUnits="userSpaceOnUse">
      <feGaussianBlur stdDeviation="1" id="feGaussianBlur7" xml:space="preserve" />
    </filter>
    <path d="M121.285 244.291 L223.644 128.809 L157.295 72.7297 L6.35861 184.587 z" filter="url(#Filter_GaussianBlur1_)" stroke-width="0.2" stroke-linejoin="round" id="path10" xml:space="preserve" connector-curvature="0" style="fill:url(#SVGID_Fill1_);" />
    <linearGradient x1="224.0887" y1="59.159" x2="307.3078" y2="59.159" gradientUnits="userSpaceOnUse" gradientTransform="scale(0.8290738, 1.206165)" id="SVGID_Stroke1_" xml:space="preserve">
      <stop offset="11.6279%" stop-color="#231E1E" stop-opacity="1" id="stop12" xml:space="preserve" />
      <stop offset="100%" stop-color="#262323" stop-opacity="1" id="stop14" xml:space="preserve" />
    </linearGradient>
    <linearGradient x1="224.0641" y1="58.27124" x2="309.095" y2="58.27124" gradientUnits="userSpaceOnUse" gradientTransform="scale(0.8290738, 1.206165)" id="SVGID_Fill2_" xml:space="preserve">
      <stop offset="11.1628%" stop-color="#262A27" stop-opacity="1" id="stop17" xml:space="preserve" />
      <stop offset="100%" stop-color="#606561" stop-opacity="1" id="stop19" xml:space="preserve" />
    </linearGradient>
    <path d="M157.688 122.016 L232.358 54.3405 C232.098 49.1064 232.983 51.3923 232.983 62.3854 L233.233 70.2226 C234.233 85.8976 219.607 96.5964 226.108 89.7541 L141.686 187.369 C138.019 194.005 139.686 183.719 142.353 166.801 L142.019 153.2 C142.019 142.207 137.339 121.175 157.688 122.016 z" stroke="url(#SVGID_Stroke1_)" stroke-width="3" stroke-linejoin="round" id="path22" xml:space="preserve" connector-curvature="0" style="fill:url(#SVGID_Fill2_);" />
    <linearGradient x1="56.115" y1="224.1657" x2="197.6963" y2="224.1657" gradientUnits="userSpaceOnUse" gradientTransform="scale(1.099187, 0.9097635)" id="SVGID_Stroke2_" xml:space="preserve">
      <stop offset="22.7907%" stop-color="#000000" stop-opacity="1" id="stop24" xml:space="preserve" />
      <stop offset="100%" stop-color="#FFFFFF" stop-opacity="1" id="stop26" xml:space="preserve" />
    </linearGradient>
    <linearGradient x1="55.70144" y1="226.185" x2="201.4596" y2="226.185" gradientUnits="userSpaceOnUse" gradientTransform="scale(1.099187, 0.9097635)" id="SVGID_Fill3_" xml:space="preserve">
      <stop offset="23.2558%" stop-color="#171F18" stop-opacity="1" id="stop29" xml:space="preserve" />
      <stop offset="100%" stop-color="#989D99" stop-opacity="1" id="stop31" xml:space="preserve" />
    </linearGradient>
    <path d="M45.9463 96.5907 L129.696 117.803 C140.579 117.803 141.519 122.941 141.519 133.839 L141.519 180.209 C141.519 191.107 134.065 196.426 115.344 189.52 L32.8912 161.953 C15.4835 156.014 19.3422 121.897 19.3435 117.556 L19.3435 96.5907 C19.3435 85.693 35.0631 96.5907 45.9463 96.5907 z" stroke="url(#SVGID_Stroke2_)" stroke-width="3" stroke-linejoin="round" id="path34" xml:space="preserve" connector-curvature="0" style="fill:url(#SVGID_Fill3_);" />
    <path d="M143.248 92.8417 L198.05 49.8005 L134.521 40.8586 L76.7685 77.717 z" stroke-width="0.2" stroke-linejoin="round" id="path36" xml:space="preserve" connector-curvature="0" style="fill:#F9CC3E;" />
    <path d="M62.3127 88.8864 L85.9431 94.6711 C96.6697 97.2968 103.226 108.079 100.588 118.754 L99.7475 122.153 C97.10889 132.828 92.3255 141.685 81.5989 139.059 L47.3469 128.982 C36.6202 126.357 34.6341 117.534 37.2727 106.859 L38.1129 103.46 C40.7515 92.7853 51.5862 86.2604 62.3127 88.8864 z" stroke="#B29331" stroke-width="3" stroke-linejoin="round" id="path38" xml:space="preserve" connector-curvature="0" style="fill:#DDB637;" />
    <path d="M132.394 25.6237 L15.0532 91.3088 L142.269 126.826 L241.025 39.2458 z M134.956 36.882 L209.211 46.7724 L144.394 97.2802 L65.0562 79.6979 z" stroke="#DDB637" stroke-width="9" stroke-linejoin="round" id="path40" xml:space="preserve" connector-curvature="0" style="fill:#DDB637;" />
    <path d="M196.623 48.8007 L135.477 40.2624 L76.85181 76.29021 L78.53941 76.63401 L135.727 41.25751 L195.623 50.05071 z" stroke="#B29331" stroke-width="3" stroke-linejoin="round" id="path42" xml:space="preserve" connector-curvature="0" style="fill:#967D2D;" />
    <line x1="38.4713" y1="105.905" x2="99.35" y2="122.949" stroke="#6C5B24" stroke-width="3" stroke-linejoin="round" id="line44" xml:space="preserve" />
    <line x1="38.0963" y1="107.336" x2="98.975" y2="124.38" stroke="#B29331" stroke-linejoin="round" id="line46" xml:space="preserve" />
  </g>
  <g transform="matrix(0.178028, 0, 0, 0.1934457, 3.868288, 3.31878)" id="g104" xml:space="preserve">
    <linearGradient x1="125.6134" y1="144.5582" x2="226.6822" y2="144.5582" gradientUnits="userSpaceOnUse" gradientTransform="scale(0.9364066, 1.067912)" id="SVGID_Stroke3_" xml:space="preserve">
      <stop offset="1.86047%" stop-color="#58A406" stop-opacity="1" id="stop50" xml:space="preserve" />
      <stop offset="100%" stop-color="#163B02" stop-opacity="1" id="stop52" xml:space="preserve" />
    </linearGradient>
    <linearGradient x1="125.151" y1="144.3532" x2="227.2302" y2="144.3532" gradientUnits="userSpaceOnUse" gradientTransform="scale(0.9364066, 1.067912)" id="SVGID_Fill4_" xml:space="preserve">
      <stop offset="1.86047%" stop-color="#7DE30F" stop-opacity="1" id="stop55" xml:space="preserve" />
      <stop offset="100%" stop-color="#235E03" stop-opacity="1" id="stop57" xml:space="preserve" />
    </linearGradient>
    <path d="M111.594 153.084 L144.261 158.417 L144.927 123.084 L174.261 125.75 L174.094 163.917 L208.594 169.417 L208.594 201.917 L175.094 195.917 L175.094 234.417 L145.094 226.917 L145.094 189.917 L111.094 182.417 z" stroke="url(#SVGID_Stroke3_)" stroke-linejoin="round" id="path60" xml:space="preserve" connector-curvature="0" style="fill:url(#SVGID_Fill4_);" />
    <linearGradient x1="66.93926" y1="255.498" x2="86.9892" y2="255.498" gradientUnits="userSpaceOnUse" gradientTransform="scale(1.670828, 0.5985056)" id="SVGID_Fill5_" xml:space="preserve">
      <stop offset="1.86047%" stop-color="#7DE30F" stop-opacity="1" id="stop62" xml:space="preserve" />
      <stop offset="100%" stop-color="#64BE0C" stop-opacity="1" id="stop64" xml:space="preserve" />
    </linearGradient>
    <path d="M111.844 152.917 L140.844 146.917 L145.344 147.417 L145.344 158.917 z" stroke-width="0.2" stroke-linejoin="round" id="path67" xml:space="preserve" connector-curvature="0" style="fill:url(#SVGID_Fill5_);" />
    <linearGradient x1="55.7567" y1="314.4047" x2="76.36806" y2="314.4047" gradientUnits="userSpaceOnUse" gradientTransform="scale(2.603759, 0.3840601)" id="SVGID_Fill6_" xml:space="preserve">
      <stop offset="1.86047%" stop-color="#7DE30F" stop-opacity="1" id="stop69" xml:space="preserve" />
      <stop offset="100%" stop-color="#235E03" stop-opacity="1" id="stop71" xml:space="preserve" />
    </linearGradient>
    <path d="M145.177 123.417 L171.261 117.834 L198.844 119.75 L173.511 125.75 z" stroke-width="0.2" stroke-linejoin="round" id="path74" xml:space="preserve" connector-curvature="0" style="fill:url(#SVGID_Fill6_);" />
    <linearGradient x1="231.0139" y1="106.6706" x2="263.7928" y2="106.6706" gradientUnits="userSpaceOnUse" gradientTransform="scale(0.752526, 1.328858)" id="SVGID_Fill7_" xml:space="preserve">
      <stop offset="1.86047%" stop-color="#7DE30F" stop-opacity="1" id="stop76" xml:space="preserve" />
      <stop offset="100%" stop-color="#235E03" stop-opacity="1" id="stop78" xml:space="preserve" />
    </linearGradient>
    <path d="M173.844 163.75 L198.511 157.417 L198.511 119.75 L173.594 125.667 z" stroke-width="0.2" stroke-linejoin="round" id="path81" xml:space="preserve" connector-curvature="0" style="fill:url(#SVGID_Fill7_);" />
    <linearGradient x1="76.37841" y1="369.4758" x2="103.238" y2="369.4758" gradientUnits="userSpaceOnUse" gradientTransform="scale(2.258636, 0.4427451)" id="SVGID_Fill8_" xml:space="preserve">
      <stop offset="1.86047%" stop-color="#7DE30F" stop-opacity="1" id="stop83" xml:space="preserve" />
      <stop offset="100%" stop-color="#163A01" stop-opacity="1" id="stop85" xml:space="preserve" />
    </linearGradient>
    <path d="M198.511 157.417 L235.427 164.75 L208.177 169.75 L172.511 163.75 z" stroke-width="0.2" stroke-linejoin="round" id="path88" xml:space="preserve" connector-curvature="0" style="fill:url(#SVGID_Fill8_);" />
    <linearGradient x1="245.9832" y1="154.9786" x2="277.1479" y2="154.9786" gradientUnits="userSpaceOnUse" gradientTransform="scale(0.8449532, 1.183498)" id="SVGID_Fill9_" xml:space="preserve">
      <stop offset="1.86047%" stop-color="#2E6F05" stop-opacity="1" id="stop90" xml:space="preserve" />
      <stop offset="100%" stop-color="#133401" stop-opacity="1" id="stop92" xml:space="preserve" />
    </linearGradient>
    <path d="M208.511 201.75 L234.927 196.25 L234.927 164.75 L208.594 169.834 z" stroke-width="0.2" stroke-linejoin="round" id="path95" xml:space="preserve" connector-curvature="0" style="fill:url(#SVGID_Fill9_);" />
    <linearGradient x1="223.4065" y1="167.2286" x2="254.1309" y2="167.2286" gradientUnits="userSpaceOnUse" gradientTransform="scale(0.7811368, 1.280185)" id="SVGID_Fill10_" xml:space="preserve">
      <stop offset="1.86047%" stop-color="#3C8406" stop-opacity="1" id="stop97" xml:space="preserve" />
      <stop offset="100%" stop-color="#153801" stop-opacity="1" id="stop99" xml:space="preserve" />
    </linearGradient>
    <path d="M174.844 233.75 L198.511 227.417 L198.511 198.75 L174.511 194.417 z" stroke-width="0.2" stroke-linejoin="round" id="path102" xml:space="preserve" connector-curvature="0" style="fill:url(#SVGID_Fill10_);" />
  </g>
</svg>