<?xml version="1.0" encoding="utf-8"?>
<!DOCTYPE svg PUBLIC "-//W3C//DTD SVG 1.1//EN" "http://www.w3.org/Graphics/SVG/1.1/DTD/svg11.dtd">
<svg xmlns="http://www.w3.org/2000/svg" xmlns:xlink="http://www.w3.org/1999/xlink" version="1.1" baseProfile="full" width="513" height="513" viewBox="0 0 513.00 513.00" enable-background="new 0 0 513.00 513.00" xml:space="preserve">
	<path fill="#0E0E0E" fill-opacity="1" stroke-width="0.2" stroke-linejoin="round" d="M 46.0464,35.8011L 309.38,35.8011C 319.873,35.8011 328.38,44.3077 328.38,54.8011L 328.38,316.801C 328.38,327.294 319.873,335.801 309.38,335.801L 46.0464,335.801C 35.553,335.801 27.0464,327.294 27.0464,316.801L 27.0464,54.8011C 27.0464,44.3077 35.553,35.8011 46.0464,35.8011 Z "/>
	<radialGradient id="SVGID_Stroke1_" cx="143.306" cy="238.153" r="90.0819" gradientUnits="userSpaceOnUse">
		<stop offset="0" stop-color="#F3F8F8" stop-opacity="1"/>
		<stop offset="1" stop-color="#00EEFC" stop-opacity="1"/>
	</radialGradient>
	<path fill="#FFFFFF" fill-opacity="1" stroke-width="3" stroke-linejoin="round" stroke="url(#SVGID_Stroke1_)" d="M 176.724,271.09C 124.956,271.09 82.8588,229.682 81.7466,178.181L 55.7241,177.882C 55.7927,244.467 110.686,298.423 178.391,298.423C 197.175,298.423 214.973,294.27 230.888,286.846L 215.677,262.762C 203.791,268.113 190.605,271.09 176.724,271.09 Z "/>
	<radialGradient id="SVGID_Stroke2_" cx="216.599" cy="128.862" r="86.9583" gradientUnits="userSpaceOnUse">
		<stop offset="0" stop-color="#F3F8F8" stop-opacity="1"/>
		<stop offset="1" stop-color="#00EEFC" stop-opacity="1"/>
	</radialGradient>
	<path fill="#FFFFFF" fill-opacity="1" stroke-width="3" stroke-linejoin="round" stroke="url(#SVGID_Stroke2_)" d="M 268.523,200.634L 300.293,191.307C 300.798,186.859 301.057,182.338 301.057,177.757C 301.057,111.115 246.138,57.0906 178.391,57.0906C 162.028,57.0906 146.414,60.2421 132.141,65.9615L 141.093,87.9979C 152.096,83.5431 164.124,81.09 176.724,81.09C 229.191,81.09 271.724,123.623 271.724,176.09C 271.724,184.577 270.611,192.804 268.523,200.634 Z "/>
	<path fill="#03D1DD" fill-opacity="1" stroke-width="0.2" stroke-linejoin="round" d="M 89.7166,147L 87.7166,170L 85.2147,218.328L 84.2147,260.828L 89.2147,270.328L 97.2147,275.328L 108.215,275.828L 120.215,272.328L 130.717,263L 143.715,251.328L 144.217,241.5L 142.215,236.328L 136.715,235.828L 133.215,237.828L 121.717,246L 113.717,252.5L 109.215,251.828L 106.215,248.328L 106.715,211.328L 108.215,190.828L 111.215,168.328L 113.215,146.328L 108.217,139L 100.217,137L 92.2166,140.5L 89.7166,147 Z "/>
	<path fill="#03D1DD" fill-opacity="1" stroke-width="0.2" stroke-linejoin="round" d="M 154.717,157L 150.717,162L 149.217,167.5L 148.217,178L 148.217,207L 147.717,248L 150.717,254L 156.717,255L 165.717,254.5L 171.217,251L 170.717,244.5L 168.717,237.5L 167.717,198L 170.217,186L 171.217,167.5L 170.717,160.5L 163.717,156L 154.717,157 Z "/>
	<path fill="#03D1DD" fill-opacity="1" stroke-width="0.2" stroke-linejoin="round" d="M 153.217,121.5L 149.217,126L 147.217,137.5L 149.717,148L 155.217,153L 165.717,153L 169.217,146.5L 171.217,135L 169.217,127.5L 161.217,121.5L 153.217,121.5 Z "/>
	<path fill="#03D1DD" fill-opacity="1" stroke-width="0.2" stroke-linejoin="round" d="M 177.55,147.5L 174.217,154.833L 175.217,168.5L 190.55,211.167L 198.883,237.167L 203.883,241.167L 211.883,240.833L 215.883,237.5L 222.883,223.833L 231.883,198.833L 234.55,185.833L 238.55,170.5L 240.55,158.833L 241.217,141.5L 234.883,134.167L 228.55,131.167L 223.55,130.833L 220.55,136.167L 218.883,161.167L 216.883,178.5L 212.883,198.833L 210.217,205.833L 207.883,205.5L 205.883,196.5L 204.55,181.833L 200.217,162.5L 198.217,153.833L 192.217,148.833L 177.55,147.5 Z "/>
	<path fill="#03D1DD" fill-opacity="1" stroke-width="0.2" stroke-linejoin="round" d="M 277.925,110.25L 272.925,113.583L 263.258,120.583L 257.925,130.25L 251.258,139.25L 248.592,148.917L 245.925,159.25L 245.258,181.583L 247.925,195.917L 252.258,204.917L 258.592,210.917L 263.925,215.25L 276.592,215.917L 286.592,212.917L 293.258,207.583L 299.925,199.25L 303.592,195.583L 306.258,187.917L 305.258,181.917L 302.592,179.25L 295.925,179.25L 288.258,184.917L 282.592,191.25L 274.925,193.917L 266.925,188.583L 264.592,181.917L 264.258,173.25L 270.258,171.917L 273.925,175.917L 280.925,176.25L 288.592,168.25L 297.925,158.583L 302.592,148.917L 306.258,137.917L 304.592,124.25L 299.925,116.917L 295.258,113.917L 286.258,110.25L 277.925,110.25 Z M 272.925,160.917L 266.592,161.917L 264.925,154.25L 266.758,144.75L 272.258,134.917L 280.383,126.5L 285.05,127.5L 286.05,142.5L 281.717,152.5L 272.925,160.917 Z "/>
	<radialGradient id="SVGID_Stroke3_" cx="256.141" cy="272.727" r="53.0208" gradientUnits="userSpaceOnUse" gradientTransform="rotate(-3.219636 256.141296 272.727051)">
		<stop offset="0" stop-color="#F3F8F8" stop-opacity="1"/>
		<stop offset="1" stop-color="#00EEFC" stop-opacity="1"/>
	</radialGradient>
	<path fill="#FFFFFF" fill-opacity="1" stroke-width="3" stroke-linejoin="round" stroke="url(#SVGID_Stroke3_)" d="M 216.452,244.848L 259.691,322.123L 265.768,323.872L 269.641,320.709L 268.393,314.756L 248.958,280.531L 292.474,219.676L 216.452,244.848 Z "/>
	<radialGradient id="SVGID_Stroke4_" cx="90.3913" cy="116.894" r="54.5" gradientUnits="userSpaceOnUse">
		<stop offset="0" stop-color="#F3F8F8" stop-opacity="1"/>
		<stop offset="1" stop-color="#00EEFC" stop-opacity="1"/>
	</radialGradient>
	<path fill="#FFFFFF" fill-opacity="1" stroke-width="3" stroke-linejoin="round" stroke="url(#SVGID_Stroke4_)" d="M 57.1413,169.894L 79.1413,169.894L 80.1413,134.394L 83.1413,121.894L 89.1413,114.894L 96.6413,115.894L 104.641,121.394L 115.641,136.394L 120.141,139.894L 131.141,140.894L 137.141,140.894L 137.641,131.394L 121.141,114.894L 109.641,106.894L 99.6413,100.894L 112.141,85.3938L 118.641,71.8938L 121.141,65.3938L 111.141,69.3938L 100.641,81.8938L 93.1413,88.8938L 88.1413,91.3938L 78.1413,87.3938L 72.1413,85.8938L 68.6413,89.8938L 68.6413,83.8938L 66.6413,79.3938L 52.1413,64.3938L 47.6413,63.8938L 48.1413,72.3938L 56.6413,83.3938L 61.1413,85.8938L 43.1413,85.8938L 48.6413,92.8938L 64.6413,91.3938L 56.1413,96.8938L 50.6413,100.394L 49.6413,104.894L 54.6413,105.894L 59.1413,103.394L 64.6413,99.8938L 68.6413,99.3938L 72.6413,105.394L 68.1413,117.394L 63.6413,124.894L 59.6413,135.894L 57.1413,148.394L 57.1413,169.894 Z "/>
	<radialGradient id="SVGID_Stroke5_" cx="86.8913" cy="74.8938" r="12.25" gradientUnits="userSpaceOnUse">
		<stop offset="0" stop-color="#F3F8F8" stop-opacity="1"/>
		<stop offset="1" stop-color="#00EEFC" stop-opacity="1"/>
	</radialGradient>
	<path fill="#FFFFFF" fill-opacity="1" stroke-width="3" stroke-linejoin="round" stroke="url(#SVGID_Stroke5_)" d="M 86.6413,64.8938L 80.6413,66.3938L 77.6413,71.3938L 76.1413,79.3938L 79.1413,83.8938L 83.1413,82.8938L 84.6413,79.3938L 88.3079,79.7272L 88.6413,82.3938L 90.9746,84.7272L 94.9746,82.3938L 96.1413,77.3938L 97.6413,71.8938L 94.6413,66.3938L 86.6413,64.8938 Z "/>
	<radialGradient id="SVGID_Fill1_" cx="177.802" cy="110.886" r="145.481" gradientUnits="userSpaceOnUse">
		<stop offset="0" stop-color="#F3F8F8" stop-opacity="0.352941"/>
		<stop offset="1" stop-color="#F3F8F8" stop-opacity="0.239216"/>
	</radialGradient>
	<path fill="url(#SVGID_Fill1_)" stroke-width="0.2" stroke-linejoin="round" d="M 32.8024,181.891C 68.1086,152.35 120.784,133.603 179.627,133.603C 236.476,133.603 287.568,151.101 322.802,178.925L 322.802,58.1661C 322.802,48.0673 314.616,39.8807 304.517,39.8807L 51.0878,39.8807C 40.9891,39.8807 32.8024,48.0673 32.8024,58.1661L 32.8024,181.891 Z "/>
	<linearGradient id="SVGID_Fill2_" gradientUnits="objectBoundingBox" x1="0.335258" y1="-0.157289" x2="1.6905" y2="-0.157289" gradientTransform="rotate(49.056931 0.335258 -0.157289)">
		<stop offset="0.0186047" stop-color="#343A4D" stop-opacity="1"/>
		<stop offset="0.488372" stop-color="#6EADD2" stop-opacity="1"/>
		<stop offset="0.772093" stop-color="#485270" stop-opacity="1"/>
	</linearGradient>
	<path fill="url(#SVGID_Fill2_)" stroke-width="3" stroke-linecap="round" stroke-linejoin="round" stroke="#21324B" stroke-opacity="1" d="M 280.174,405.162L 301.174,429.162L 317.174,440.162L 346.174,458.162L 368.174,470.162L 391.174,477.162L 408.174,478.162L 422.174,474.162L 435.174,466.162L 440.174,453.162L 438.174,447.162L 427.174,451.162L 403.174,449.162L 382.174,442.162L 360.174,432.162L 340.174,418.162L 326.174,406.162L 319.174,399.162L 315.174,394.162L 313.174,392.162L 280.174,405.162 Z "/>
	<g>
		<linearGradient id="SVGID_Stroke6_" gradientUnits="objectBoundingBox" x1="0.0922551" y1="0.238722" x2="1.05405" y2="0.238722" gradientTransform="rotate(40.169903 0.092255 0.238722)">
			<stop offset="0.00431034" stop-color="#ADB1B2" stop-opacity="1"/>
			<stop offset="0.185345" stop-color="#9EA8AB" stop-opacity="1"/>
			<stop offset="1" stop-color="#D4E2E3" stop-opacity="1"/>
		</linearGradient>
		<linearGradient id="SVGID_Fill3_" gradientUnits="objectBoundingBox" x1="0.0889669" y1="0.23691" x2="1.05822" y2="0.23691" gradientTransform="rotate(40.201622 0.088967 0.236910)">
			<stop offset="0.00431034" stop-color="#B3B8B9" stop-opacity="1"/>
			<stop offset="0.185345" stop-color="#A4AFB2" stop-opacity="1"/>
			<stop offset="1" stop-color="#E2F0F1" stop-opacity="1"/>
		</linearGradient>
		<path fill="url(#SVGID_Fill3_)" stroke-width="2" stroke-linejoin="round" stroke="url(#SVGID_Stroke6_)" d="M 226.248,179.478L 416.248,132.145C 422.248,130.145 442.248,126.867 442.248,145.645L 442.581,330.309C 442.581,349.086 428.953,369.215 410.175,369.215L 229.508,419.048C 210.73,419.048 194.581,419.09 194.581,400.312L 194.581,212.312C 194.581,193.534 204.248,183.478 226.248,179.478 Z "/>
		<linearGradient id="SVGID_Stroke7_" gradientUnits="objectBoundingBox" x1="0.30613" y1="0.854941" x2="1.13963" y2="0.854941" gradientTransform="rotate(-72.851875 0.306130 0.854941)">
			<stop offset="0" stop-color="#7D8181" stop-opacity="1"/>
			<stop offset="0.616379" stop-color="#D1E2E3" stop-opacity="1"/>
			<stop offset="1" stop-color="#7D8181" stop-opacity="1"/>
		</linearGradient>
		<linearGradient id="SVGID_Fill4_" gradientUnits="objectBoundingBox" x1="0.304705" y1="0.857278" x2="1.14378" y2="0.857278" gradientTransform="rotate(-72.864189 0.304705 0.857278)">
			<stop offset="0" stop-color="#898E8F" stop-opacity="1"/>
			<stop offset="0.616379" stop-color="#E4F7F8" stop-opacity="1"/>
			<stop offset="1" stop-color="#898E8F" stop-opacity="1"/>
		</linearGradient>
		<path fill="url(#SVGID_Fill4_)" stroke-width="2" stroke-linejoin="round" stroke="url(#SVGID_Stroke7_)" d="M 191.081,154.476L 381.081,107.142C 388.498,105.232 391.873,107.564 396.039,110.231L 431.477,130.814L 225.414,180.482C 203.414,184.482 193.748,194.537 193.748,213.315L 194.373,410.314L 164.373,392.314C 158.81,388.148 159.373,385.585 159.414,375.309L 159.414,187.309C 159.414,168.531 169.081,158.476 191.081,154.476 Z "/>
	</g>
	<g>
		<radialGradient id="SVGID_Stroke8_" cx="246.313" cy="297.362" r="18.9715" gradientUnits="userSpaceOnUse" gradientTransform="rotate(37.196003 246.313171 297.361816)">
			<stop offset="0.00431034" stop-color="#C3C7C7" stop-opacity="1"/>
			<stop offset="1" stop-color="#1D1F1F" stop-opacity="1"/>
		</radialGradient>
		<radialGradient id="SVGID_Fill5_" cx="246.313" cy="297.362" r="19.0013" gradientUnits="userSpaceOnUse" gradientTransform="rotate(37.341370 246.313171 297.361816)">
			<stop offset="0.00431034" stop-color="#7F8181" stop-opacity="1"/>
			<stop offset="1" stop-color="#485657" stop-opacity="1"/>
		</radialGradient>
		<path fill="url(#SVGID_Fill5_)" stroke-width="2" stroke-linejoin="round" stroke="url(#SVGID_Stroke8_)" d="M 255.456,284.376C 261.087,288.341 261.56,297.369 256.51,304.541C 251.461,311.713 242.802,314.313 237.171,310.347C 231.539,306.382 231.067,297.354 236.116,290.183C 241.165,283.011 249.824,280.411 255.456,284.376 Z "/>
		<radialGradient id="SVGID_Stroke9_" cx="393.949" cy="256.183" r="18.9715" gradientUnits="userSpaceOnUse" gradientTransform="rotate(37.196037 393.948608 256.183105)">
			<stop offset="0.00431034" stop-color="#C3C7C7" stop-opacity="1"/>
			<stop offset="1" stop-color="#1D1F1F" stop-opacity="1"/>
		</radialGradient>
		<radialGradient id="SVGID_Fill6_" cx="393.949" cy="256.183" r="19.0013" gradientUnits="userSpaceOnUse" gradientTransform="rotate(37.341408 393.948608 256.183105)">
			<stop offset="0.00431034" stop-color="#7F8181" stop-opacity="1"/>
			<stop offset="1" stop-color="#485657" stop-opacity="1"/>
		</radialGradient>
		<path fill="url(#SVGID_Fill6_)" stroke-width="2" stroke-linejoin="round" stroke="url(#SVGID_Stroke9_)" d="M 403.091,243.197C 408.723,247.163 409.195,256.191 404.146,263.362C 399.096,270.534 390.438,273.134 384.806,269.169C 379.174,265.204 378.702,256.176 383.752,249.004C 388.801,241.832 397.46,239.232 403.091,243.197 Z "/>
	</g>
	<g>
		<linearGradient id="SVGID_Stroke10_" gradientUnits="objectBoundingBox" x1="0.476049" y1="-0.0817556" x2="1.5512" y2="-0.0817556" gradientTransform="rotate(73.250427 0.476049 -0.081756)">
			<stop offset="0.0646552" stop-color="#6A6C6C" stop-opacity="1"/>
			<stop offset="0.437209" stop-color="#C6C7C7" stop-opacity="1"/>
			<stop offset="0.790698" stop-color="#CED5D5" stop-opacity="1"/>
			<stop offset="1" stop-color="#5F6565" stop-opacity="1"/>
		</linearGradient>
		<linearGradient id="SVGID_Fill7_" gradientUnits="objectBoundingBox" x1="0.475475" y1="-0.0986589" x2="1.58164" y2="-0.0986589" gradientTransform="rotate(73.171638 0.475475 -0.098659)">
			<stop offset="0.0646552" stop-color="#707373" stop-opacity="1"/>
			<stop offset="0.790698" stop-color="#F3F5F5" stop-opacity="1"/>
			<stop offset="1" stop-color="#6C7373" stop-opacity="1"/>
		</linearGradient>
		<path fill="url(#SVGID_Fill7_)" stroke-width="2" stroke-linecap="round" stroke-linejoin="round" stroke="url(#SVGID_Stroke10_)" d="M 285.404,310.683L 352.404,291.683L 353.404,334.683L 269.904,360.516L 285.404,310.683 Z "/>
		<linearGradient id="SVGID_Stroke11_" gradientUnits="objectBoundingBox" x1="0.735961" y1="0.131391" x2="1.36482" y2="0.131391" gradientTransform="rotate(71.714188 0.735961 0.131391)">
			<stop offset="0.0646552" stop-color="#707373" stop-opacity="1"/>
			<stop offset="0.49569" stop-color="#C3C7C7" stop-opacity="1"/>
			<stop offset="1" stop-color="#6C7373" stop-opacity="1"/>
		</linearGradient>
		<linearGradient id="SVGID_Fill8_" gradientUnits="objectBoundingBox" x1="0.743007" y1="0.118649" x2="1.39343" y2="0.118649" gradientTransform="rotate(71.636208 0.743007 0.118649)">
			<stop offset="0" stop-color="#656565" stop-opacity="1"/>
			<stop offset="0.323276" stop-color="#DCDEDE" stop-opacity="1"/>
			<stop offset="0.400862" stop-color="#EEF1F1" stop-opacity="1"/>
			<stop offset="0.762931" stop-color="#E6E8E8" stop-opacity="1"/>
			<stop offset="1" stop-color="#1D1F1F" stop-opacity="1"/>
		</linearGradient>
		<path fill="url(#SVGID_Fill8_)" stroke-width="2" stroke-linejoin="round" stroke="url(#SVGID_Stroke11_)" d="M 284.946,268.35L 351.779,249.852L 351.923,289.212L 285.089,307.709L 284.946,268.35 Z "/>
		<linearGradient id="SVGID_Stroke12_" gradientUnits="objectBoundingBox" x1="0.567559" y1="0.0350217" x2="1.58161" y2="0.0350217" gradientTransform="rotate(29.477354 0.567559 0.035022)">
			<stop offset="0.0646552" stop-color="#707373" stop-opacity="1"/>
			<stop offset="0.49569" stop-color="#F3F5F5" stop-opacity="1"/>
			<stop offset="1" stop-color="#6C7373" stop-opacity="1"/>
		</linearGradient>
		<path fill="none" stroke-width="2" stroke-linecap="round" stroke-linejoin="round" stroke="url(#SVGID_Stroke12_)" d="M 351.904,249.85L 351.987,289.475L 285.196,307.725"/>
	</g>
	<g>
		<linearGradient id="SVGID_Stroke13_" gradientUnits="objectBoundingBox" x1="-0.020979" y1="0.679102" x2="1.02797" y2="0.679102">
			<stop offset="0" stop-color="#A1A4A4" stop-opacity="1"/>
			<stop offset="0.539535" stop-color="#B1B2B2" stop-opacity="1"/>
		</linearGradient>
		<path fill="#FFFFFF" fill-opacity="1" stroke-linecap="round" stroke-linejoin="round" stroke="url(#SVGID_Stroke13_)" d="M 328.413,330.326L 380.413,308.826C 384.413,307.076 385.05,308.1 390.571,313.305L 390.571,335.305C 390.571,339.723 390.071,343.555 385.071,345.805L 328.071,367.805C 324.341,366.204 320.091,367.204 320.071,359.805L 320.071,337.805C 320.071,333.387 321.913,332.826 328.413,330.326 Z "/>
		<linearGradient id="SVGID_Fill9_" gradientUnits="objectBoundingBox" x1="0.211204" y1="1.05093" x2="1.45529" y2="1.05093" gradientTransform="rotate(-49.044449 0.211204 1.050934)">
			<stop offset="0.0646552" stop-color="#707373" stop-opacity="1"/>
			<stop offset="0.353488" stop-color="#F3F5F5" stop-opacity="1"/>
			<stop offset="0.790698" stop-color="#E7EAEA" stop-opacity="1"/>
			<stop offset="1" stop-color="#6C7373" stop-opacity="1"/>
		</linearGradient>
		<path fill="url(#SVGID_Fill9_)" stroke-width="0.2" stroke-linecap="round" stroke-linejoin="round" d="M 320.8,334.683L 320.821,334.674L 320.821,334.516L 320.972,334.607L 384.119,307.04L 442.367,343.089L 378.979,369.643L 379.321,369.85L 378.821,401.516L 320.821,366.016L 320.821,334.696L 320.8,334.683 Z "/>
		<linearGradient id="SVGID_Stroke14_" gradientUnits="objectBoundingBox" x1="0.113628" y1="0.268983" x2="1.24453" y2="0.268983" gradientTransform="rotate(37.659393 0.113628 0.268983)">
			<stop offset="0" stop-color="#636565" stop-opacity="1"/>
			<stop offset="0.539535" stop-color="#B3B9B9" stop-opacity="1"/>
		</linearGradient>
		<linearGradient id="SVGID_Fill10_" gradientUnits="objectBoundingBox" x1="0.108147" y1="0.265151" x2="1.25652" y2="0.265151" gradientTransform="rotate(37.593815 0.108147 0.265151)">
			<stop offset="0" stop-color="#707373" stop-opacity="1"/>
			<stop offset="0.539535" stop-color="#F3F5F5" stop-opacity="1"/>
		</linearGradient>
		<path fill="url(#SVGID_Fill10_)" stroke-linecap="round" stroke-linejoin="round" stroke="url(#SVGID_Stroke14_)" d="M 384.071,365.516L 436.071,344.016C 440.071,342.266 446.571,344.598 446.571,349.016L 446.571,371.016C 446.571,375.434 446.071,379.266 441.071,381.516L 384.071,403.516C 380.321,404.766 376.071,399.934 376.071,395.516L 376.071,373.516C 376.071,369.098 377.571,368.016 384.071,365.516 Z "/>
	</g>
	<linearGradient id="SVGID_Fill11_" gradientUnits="objectBoundingBox" x1="0.0949163" y1="0.263209" x2="1.0214" y2="0.263209" gradientTransform="rotate(49.812622 0.094916 0.263209)">
		<stop offset="0" stop-color="#6EADD2" stop-opacity="1"/>
		<stop offset="0.939535" stop-color="#414B69" stop-opacity="1"/>
	</linearGradient>
	<path fill="url(#SVGID_Fill11_)" stroke-width="3" stroke-linecap="round" stroke-linejoin="round" stroke="#21324B" stroke-opacity="1" d="M 408.174,478.162L 435.841,477.829L 446.841,475.162L 456.174,469.162L 463.507,463.162L 471.841,451.829L 474.507,438.495L 474.174,427.495L 470.174,416.162L 455.841,398.829L 431.591,371.995L 426.591,367.995L 396.841,379.245L 396.424,382.829L 402.091,387.995L 412.341,398.995L 423.841,410.495L 430.841,418.745L 438.591,435.495L 438.591,445.245L 437.591,456.829L 428.924,469.162L 408.174,478.162 Z "/>
	<g>
		<linearGradient id="SVGID_Stroke15_" gradientUnits="objectBoundingBox" x1="0.377285" y1="0.00737609" x2="1.39264" y2="0.00737609" gradientTransform="rotate(75.987999 0.377285 0.007376)">
			<stop offset="0.0186047" stop-color="#C70707" stop-opacity="1"/>
			<stop offset="1" stop-color="#420101" stop-opacity="1"/>
		</linearGradient>
		<linearGradient id="SVGID_Fill12_" gradientUnits="objectBoundingBox" x1="0.372453" y1="-0.0120424" x2="1.42783" y2="-0.0120424" gradientTransform="rotate(75.987503 0.372453 -0.012042)">
			<stop offset="0.0186047" stop-color="#F17B7B" stop-opacity="1"/>
			<stop offset="1" stop-color="#EE0606" stop-opacity="1"/>
		</linearGradient>
		<path fill="url(#SVGID_Fill12_)" stroke-width="6" stroke-linejoin="round" stroke="url(#SVGID_Stroke15_)" d="M 177.75,355.366L 207.695,325.421L 254.054,371.78L 300.159,325.675L 330.105,355.62L 284,401.725L 329.708,447.434L 299.763,477.379L 254.055,431.671L 208.092,477.634L 178.146,447.688L 224.109,401.725L 177.75,355.366 Z "/>
		<linearGradient id="SVGID_Fill13_" gradientUnits="objectBoundingBox" x1="0.503329" y1="0.269653" x2="1.02035" y2="0.269653" gradientTransform="rotate(90.000000 0.503329 0.269653)">
			<stop offset="0.0186047" stop-color="#F8F8F8" stop-opacity="0.643137"/>
			<stop offset="1" stop-color="#EAE8E8" stop-opacity="0.25098"/>
		</linearGradient>
		<path fill="url(#SVGID_Fill13_)" stroke-width="0.2" stroke-linejoin="round" d="M 207.686,322.257L 173.966,355.209L 189.405,370.879C 206.779,380.738 233.758,386.779 258.536,386.779C 276.792,386.779 299.922,382.288 314.609,376.64L 333.966,355.44L 299.861,321.95L 254.081,367.115L 207.686,322.257 Z "/>
	</g>
</svg>
