<?xml version="1.0" encoding="utf-8"?>
<!DOCTYPE svg PUBLIC "-//W3C//DTD SVG 1.1//EN" "http://www.w3.org/Graphics/SVG/1.1/DTD/svg11.dtd">
<svg xmlns="http://www.w3.org/2000/svg" xmlns:xlink="http://www.w3.org/1999/xlink" version="1.1" baseProfile="full" width="207" height="207" viewBox="0 0 207.00 207.00" enable-background="new 0 0 207.00 207.00" xml:space="preserve">
	<g>
		<path fill="#388F00" fill-opacity="1" stroke-width="1.12885" stroke-linejoin="round" stroke="#000000" stroke-opacity="1" d="M 160.66,61.2671C 185.475,61.2671 205.617,80.1803 205.617,103.494C 205.617,126.806 185.475,145.734 160.66,145.734C 142.024,145.734 126.027,135.062 119.214,119.872L 107.533,119.872C 107.378,111.597 107.853,112.731 107.853,112.731L 98.1953,116.545L 97.2122,116.545L 92.4124,109.406L 88.0315,116.014L 86.6155,116.064L 80.7607,109.651L 71.8213,117.539L 67.9346,117.543L 57.7175,109.406L 50.8672,116.856L 49.2932,116.796L 44.8804,113.685L 38.8074,116.006L 33.4565,115.758L 26.5935,108.466L 21.4092,115.12L 18.199,115.12L 1.38281,93.316L 1.38281,87.1149L 119.214,87.1149C 126.027,71.929 142.024,61.2671 160.66,61.2671 Z M 182.112,91.74C 175.619,91.74 170.359,97.0149 170.359,103.508C 170.359,110.001 175.619,115.26 182.112,115.26C 188.606,115.26 193.88,109.986 193.88,103.494C 193.88,97.0001 188.606,91.74 182.112,91.74 Z "/>
		<rect x="7.7356" y="90.9653" fill="#1B4600" fill-opacity="1" stroke-width="1.12885" stroke-linejoin="round" stroke="#000000" stroke-opacity="1" width="109.177" height="3.54077"/>
		<rect x="13.3657" y="98.7898" fill="#1B4600" fill-opacity="1" stroke-width="1.12885" stroke-linejoin="round" stroke="#000000" stroke-opacity="1" width="103.546" height="3.53979"/>
		<path fill="#0B006C" fill-opacity="0.643137" stroke-width="0.2" stroke-linejoin="round" d="M 161.819,80.0313L 126.469,80.0313L 131.907,85.6882L 167.248,85.6882M 158.089,121.156L 157.281,115.924L 164.399,110.536L 156.12,110.556L 155.684,110.632L 157.326,121.282"/>
		<path fill="#0B006C" fill-opacity="0.643137" stroke-width="0.2" stroke-linejoin="round" d="M 133.226,88.4688L 133.226,125.278L 168.612,125.278L 168.612,88.4688M 149.512,119.515L 149.568,122.451L 135.898,122.451L 135.898,108.24L 139.156,108.22C 139.453,111.656 141.094,113.984 141.094,113.984L 143.211,112.506C 142.413,111.213 141.902,109.744 141.736,108.22L 149.568,108.24L 149.512,116.821C 147.072,116.349 145.606,115.037 145.606,115.037L 145.587,115.037L 144.083,117.169C 145.67,118.425 147.545,119.226 149.512,119.515 Z M 149.568,105.47L 141.429,105.45C 141.382,104.773 141.206,101.859 141.596,100.487C 142.042,98.9426 142.515,98.3445 142.515,98.3445C 144.63,98.3141 146.05,101.308 146.162,101.52C 146.906,101.347 148.399,101.673 148.659,101.839C 147.711,98.5942 143.537,96.6946 143.537,96.6946C 145.113,95.1588 146.107,93.2559 146.43,92.156L 146.015,92.1354C 144.278,94.6274 142.515,95.6604 142.515,95.6604C 141.985,95.4678 141.465,95.2247 140.974,94.9265L 141.401,94.541L 137.782,96.7134L 138.386,97.262L 139.778,96.0066C 140.408,96.79 140.881,97.272 140.881,97.272C 138.747,100.371 138.887,104.145 139.025,105.45L 135.898,105.47L 135.898,91.249L 149.568,91.249M 165.893,122.451L 152.232,122.451L 152.232,108.24L 165.893,108.24M 165.893,105.47L 162.783,105.45C 162.448,102.089 160.864,99.7927 160.864,99.7927L 158.738,101.268C 159.647,102.746 160.056,104.234 160.204,105.45L 152.232,105.47L 152.223,96.9259C 154.793,97.3584 156.352,98.7301 156.352,98.7301L 156.371,98.7399L 157.865,96.6077C 156.221,95.3116 154.273,94.4816 152.223,94.2321L 152.232,91.249L 165.893,91.249M 125.115,118.212L 130.553,123.86L 130.553,87.0969L 125.115,81.4399"/>
		<path fill="#0B006C" fill-opacity="0.643137" stroke-width="0.2" stroke-linejoin="round" d="M 142.311,94.6069C 143.841,94.6069 143.841,92.2223 142.311,92.2223C 140.788,92.2223 140.788,94.6069 142.311,94.6069 Z M 142.282,93.7573C 142.496,93.7573 142.673,93.8936 142.673,94.0662C 142.673,94.2419 142.496,94.3751 142.282,94.3751C 142.059,94.3751 141.893,94.2419 141.893,94.0662C 141.893,93.8936 142.068,93.7573 142.282,93.7573 Z M 139.025,94.9734C 139.118,95.1094 139.201,95.2247 139.322,95.3813L 140.631,94.6841C 140.519,94.6177 140.417,94.541 140.324,94.462L 141.104,94.1531L 140.184,94.3556L 139.619,94.4718L 137.02,95.0426L 137.374,95.6206M 139.887,94.1257C 139.192,93.5845 138.59,92.9175 138.115,92.166L 137.345,92.1165C 137.725,92.9568 138.134,93.6511 138.607,94.3556"/>
	</g>
</svg>
