<?xml version="1.0" encoding="utf-8"?>
<!DOCTYPE svg PUBLIC "-//W3C//DTD SVG 1.1//EN" "http://www.w3.org/Graphics/SVG/1.1/DTD/svg11.dtd">
<svg xmlns="http://www.w3.org/2000/svg" xmlns:xlink="http://www.w3.org/1999/xlink" version="1.1" baseProfile="full" width="95" height="95" viewBox="0 0 95.00 95.00" enable-background="new 0 0 95.00 95.00" xml:space="preserve">
	<path fill="#000000" fill-opacity="1" stroke-linejoin="round" stroke="#000000" stroke-opacity="1" d="M 15.5,2.5L 79.5,2.5C 86.6797,2.5 92.5,8.32031 92.5,15.5L 92.5,79.4998C 92.5,86.6794 86.6797,92.5 79.5,92.5L 15.5,92.5C 8.32031,92.5 2.5,86.6794 2.5,79.4998L 2.5,15.5C 2.5,8.32031 8.32031,2.5 15.5,2.5 Z "/>
	<path fill="#FFFFFF" fill-opacity="1" stroke-linejoin="round" d="M 36.8008,43.416C 36.612,44.0847 36.5081,44.8135 36.5024,45.5808C 36.5082,45.9629 36.5294,46.344 36.5803,46.7202L 39.1534,63.9304L 35.5664,77.4475C 35.436,77.8481 35.3561,78.3125 35.3588,78.78C 35.3537,80.9417 36.9199,82.7393 38.8577,82.8213C 40.3593,82.8884 41.6509,81.8662 42.1365,80.3926L 46.0941,65.6072C 46.1719,65.2644 46.2335,64.9109 46.2299,64.5276C 46.2221,64.356 46.2109,64.1638 46.1879,63.9939L 44.7021,53.3479L 54.2813,56.575L 57.1382,66.8101C 57.6354,68.2927 58.916,69.3645 60.4031,69.4333C 62.3373,69.4949 63.8975,67.8147 63.9053,65.6736C 63.901,65.3086 63.8523,64.9485 63.7761,64.6084L 60.3048,52.2693C 59.9263,51.0803 59.0676,50.1294 57.9871,49.7302L 49.4096,46.7668L 53.1823,36.1292L 56.2057,39.4104C 56.509,39.7039 56.8818,39.9333 57.2858,40.054L 67.3879,41.969C 68.7119,42.1104 69.9231,41.1873 70.2423,39.7385C 70.5947,38.0886 69.6815,36.3958 68.2065,35.9456C 68.1565,35.9314 68.1094,35.9209 68.0598,35.9099L 59.2819,34.2236L 51.809,26.5398C 50.7095,25.5349 49.3326,24.8928 47.8303,24.8257C 45.207,24.731 42.9631,26.4119 41.9914,28.9077"/>
	<path fill="#FFFFFF" fill-opacity="1" stroke-linejoin="round" d="M 47.5702,81.1858L 34.2656,84.0886L 24.0916,89.6174L 23.5698,92.7971L 79.9584,92.9583C 85.8751,92.7083 93.375,86.9583 92.7917,78.6248L 93.0001,14.0208L 84.6605,7.69995L 75.7443,19.5364L 69.2917,27.7708L 66.4037,51.2932L 66.4834,68.3308L 56.179,69.5747"/>
	<path fill="#FFFFFF" fill-opacity="1" stroke-linejoin="round" d="M 52.0409,24.7634C 55.0195,24.3782 57.0573,21.1895 56.5793,17.6511C 56.1015,14.1125 53.2873,11.5525 50.3087,11.9377C 47.3237,12.3237 45.289,15.511 45.7668,19.0496C 46.2448,22.5879 49.059,25.1492 52.0409,24.7634 Z "/>
	<path fill="#FFFFFF" fill-opacity="1" stroke-linejoin="round" d="M 41.4291,27.1565C 41.725,26.2332 41.3324,25.1289 40.5171,24.7351L 37.6565,23.2571C 36.8416,22.8594 35.9384,23.2651 35.6303,24.2122L 29.7916,41.772C 29.4956,42.6956 29.8859,43.7815 30.7041,44.197L 33.5768,45.6516C 34.3792,46.0691 35.2798,45.6453 35.5909,44.72"/>
	<g>
		<radialGradient id="SVGID_Fill1_" cx="-16.0264" cy="9.87964" r="118.102" gradientUnits="userSpaceOnUse">
			<stop offset="0" stop-color="#FFFFFF" stop-opacity="0.843137"/>
			<stop offset="0.77027" stop-color="#FFFFFF" stop-opacity="0.32549"/>
			<stop offset="1" stop-color="#FFFFFF" stop-opacity="0"/>
		</radialGradient>
		<path fill="url(#SVGID_Fill1_)" stroke-width="0.2" stroke-linejoin="round" d="M 16.3507,3.44067L 80.3507,3.44067C 86.4258,3.44067 91.3507,8.36548 91.3507,14.4407L 91.3507,77.4402C 91.3507,83.5154 86.4258,88.4402 80.3507,88.4402L 16.3507,88.4402C 10.2756,88.4402 5.35071,83.5154 5.35071,77.4402L 5.35071,14.4407C 5.35071,8.36548 10.2756,3.44067 16.3507,3.44067 Z "/>
		<radialGradient id="SVGID_Stroke1_" cx="73.3702" cy="47.4412" r="669.951" gradientUnits="userSpaceOnUse">
			<stop offset="0.869369" stop-color="#F1F1F1" stop-opacity="0"/>
			<stop offset="1" stop-color="#EEEEEE" stop-opacity="0.898039"/>
		</radialGradient>
		<path fill="none" stroke-width="4" stroke-linejoin="round" stroke="url(#SVGID_Stroke1_)" d="M 82.6005,7.44019L 82.6005,7.44019C 86.6046,7.44019 89.8505,10.686 89.8505,14.6899L 89.8505,80.1904C 89.8505,84.1946 86.6046,87.4404 82.6005,87.4404L 82.6005,87.4404C 78.5964,87.4404 75.3505,84.1946 75.3505,80.1904L 75.3505,14.6899C 75.3505,10.686 78.5964,7.44019 82.6005,7.44019 Z "/>
		<radialGradient id="SVGID_Stroke2_" cx="21.331" cy="47.4392" r="669.951" gradientUnits="userSpaceOnUse" gradientTransform="rotate(180.000000 21.330994 47.439209)">
			<stop offset="0.869369" stop-color="#F1F1F1" stop-opacity="0"/>
			<stop offset="1" stop-color="#EEEEEE" stop-opacity="0.898039"/>
		</radialGradient>
		<path fill="none" stroke-width="4" stroke-linejoin="round" stroke="url(#SVGID_Stroke2_)" d="M 12.1007,87.4402L 12.1007,87.4402C 8.09662,87.4402 4.85071,84.1941 4.85071,80.1902L 4.85071,14.6897C 4.85071,10.6858 8.09662,7.4397 12.1007,7.4397L 12.1007,7.4397C 16.1047,7.4397 19.3507,10.6858 19.3507,14.6897L 19.3507,80.1902C 19.3507,84.1941 16.1047,87.4402 12.1007,87.4402 Z "/>
		<radialGradient id="SVGID_Stroke3_" cx="47.352" cy="21.4209" r="79.1195" gradientUnits="userSpaceOnUse" gradientTransform="rotate(-90.000000 47.351990 21.420898)">
			<stop offset="0.869369" stop-color="#F1F1F1" stop-opacity="0"/>
			<stop offset="1" stop-color="#EEEEEE" stop-opacity="0.898039"/>
		</radialGradient>
		<path fill="none" stroke-width="4" stroke-linejoin="round" stroke="url(#SVGID_Stroke3_)" d="M 7.35059,12.1904L 7.35059,12.1904C 7.35059,8.18628 10.5966,4.94043 14.6006,4.94043L 80.101,4.94043C 84.1052,4.94043 87.351,8.18628 87.351,12.1904L 87.351,12.1904C 87.351,16.1946 84.1052,19.4404 80.101,19.4404L 14.6006,19.4404C 10.5966,19.4404 7.35059,16.1946 7.35059,12.1904 Z "/>
		<radialGradient id="SVGID_Stroke4_" cx="47.3494" cy="73.46" r="79.1194" gradientUnits="userSpaceOnUse" gradientTransform="rotate(90.000000 47.349365 73.459961)">
			<stop offset="0.869369" stop-color="#F1F1F1" stop-opacity="0"/>
			<stop offset="1" stop-color="#EEEEEE" stop-opacity="0.898039"/>
		</radialGradient>
		<path fill="none" stroke-width="4" stroke-linejoin="round" stroke="url(#SVGID_Stroke4_)" d="M 87.3508,82.6904L 87.3508,82.6904C 87.3508,86.6946 84.1047,89.9404 80.1008,89.9404L 14.6005,89.9404C 10.5962,89.9404 7.35046,86.6946 7.35046,82.6904L 7.35046,82.6904C 7.35046,78.6863 10.5962,75.4404 14.6005,75.4404L 80.1008,75.4404C 84.1047,75.4404 87.3508,78.6863 87.3508,82.6904 Z "/>
	</g>
</svg>
