<?xml version="1.0" encoding="utf-8"?>
<!DOCTYPE svg PUBLIC "-//W3C//DTD SVG 1.1//EN" "http://www.w3.org/Graphics/SVG/1.1/DTD/svg11.dtd">
<svg xmlns="http://www.w3.org/2000/svg" xmlns:xlink="http://www.w3.org/1999/xlink" version="1.1" baseProfile="full" width="95" height="95" viewBox="0 0 95.00 95.00" enable-background="new 0 0 95.00 95.00" xml:space="preserve">
	<path fill="#000000" fill-opacity="1" stroke-linejoin="round" stroke="#C0C0CC" stroke-opacity="1" d="M 15.5001,2.49976L 79.5001,2.49976C 86.6797,2.49976 92.5001,8.32007 92.5001,15.4998L 92.5001,79.4998C 92.5001,86.6794 86.6797,92.4998 79.5001,92.4998L 15.5001,92.4998C 8.32037,92.4998 2.50006,86.6794 2.50006,79.4998L 2.50006,15.4998C 2.50006,8.32007 8.32037,2.49976 15.5001,2.49976 Z "/>
	<path fill="#FFFFFF" fill-opacity="1" stroke-linejoin="round" d="M 20.0779,31.6104L 32.3345,28.814L 32.4167,13.9165L 35.5834,10.9165L 57.5834,11.0833L 63.4167,13.9165L 63.5778,21.6858L 73.9825,19.312C 75.3877,18.9915 76.7867,19.8701 77.1072,21.2754C 77.4279,22.6807 76.5486,24.0796 75.1434,24.4001L 63.6882,27.0137L 64.0834,46.0833L 80.9167,50.7498L 67.4167,58.4165L 82.2501,76.5833L 82.4167,80.4165L 80.4167,82.9165L 16.4167,82.9165L 12.4167,80.7498L 12.5834,74.4165L 24.0834,58.4165L 13.2501,50.5833L 32.2501,44.0833L 32.3048,34.1738L 21.2388,36.6985C 19.8336,37.0193 18.4347,36.1399 18.1141,34.7346C 17.7935,33.3293 18.6727,31.9309 20.0779,31.6104 Z M 57.9583,52.0002L 58.077,28.2942L 35.0965,33.5371L 35.0416,52.0002L 57.9583,52.0002 Z M 35.1249,24.0002L 35.1124,28.1804L 58.1039,22.9348L 58.1249,18.7502L 50.2916,18.7502L 35.1249,24.0002 Z "/>
	<g>
		<radialGradient id="SVGID_Fill1_" cx="-16.0265" cy="9.87939" r="118.102" gradientUnits="userSpaceOnUse">
			<stop offset="0" stop-color="#FFFFFF" stop-opacity="0.843137"/>
			<stop offset="0.77027" stop-color="#FFFFFF" stop-opacity="0.32549"/>
			<stop offset="1" stop-color="#FFFFFF" stop-opacity="0"/>
		</radialGradient>
		<path fill="url(#SVGID_Fill1_)" stroke-width="0.2" stroke-linejoin="round" d="M 16.3506,3.44043L 80.3506,3.44043C 86.4258,3.44043 91.3506,8.36548 91.3506,14.4404L 91.3506,77.4402C 91.3506,83.5154 86.4258,88.4402 80.3506,88.4402L 16.3506,88.4402C 10.2755,88.4402 5.35065,83.5154 5.35065,77.4402L 5.35065,14.4404C 5.35065,8.36548 10.2755,3.44043 16.3506,3.44043 Z "/>
		<radialGradient id="SVGID_Stroke1_" cx="73.3702" cy="47.4409" r="669.951" gradientUnits="userSpaceOnUse">
			<stop offset="0.869369" stop-color="#F1F1F1" stop-opacity="0"/>
			<stop offset="1" stop-color="#EEEEEE" stop-opacity="0.898039"/>
		</radialGradient>
		<path fill="none" stroke-width="4" stroke-linejoin="round" stroke="url(#SVGID_Stroke1_)" d="M 82.6006,7.43994L 82.6006,7.43994C 86.6046,7.43994 89.8506,10.6858 89.8506,14.6897L 89.8506,80.1902C 89.8506,84.1943 86.6046,87.4402 82.6006,87.4402L 82.6006,87.4402C 78.5965,87.4402 75.3506,84.1943 75.3506,80.1902L 75.3506,14.6897C 75.3506,10.6858 78.5965,7.43994 82.6006,7.43994 Z "/>
		<radialGradient id="SVGID_Stroke2_" cx="21.3311" cy="47.4397" r="669.951" gradientUnits="userSpaceOnUse" gradientTransform="rotate(180.000000 21.331055 47.439697)">
			<stop offset="0.869369" stop-color="#F1F1F1" stop-opacity="0"/>
			<stop offset="1" stop-color="#EEEEEE" stop-opacity="0.898039"/>
		</radialGradient>
		<path fill="none" stroke-width="4" stroke-linejoin="round" stroke="url(#SVGID_Stroke2_)" d="M 12.1007,87.4407L 12.1007,87.4407C 8.09668,87.4407 4.85071,84.1946 4.85071,80.1907L 4.85071,14.6902C 4.85071,10.6863 8.09668,7.44019 12.1007,7.44019L 12.1007,7.44019C 16.1048,7.44019 19.3507,10.6863 19.3507,14.6902L 19.3507,80.1907C 19.3507,84.1946 16.1048,87.4407 12.1007,87.4407 Z "/>
		<radialGradient id="SVGID_Stroke3_" cx="47.3519" cy="21.4207" r="79.1184" gradientUnits="userSpaceOnUse" gradientTransform="rotate(-90.000000 47.351868 21.420654)">
			<stop offset="0.869369" stop-color="#F1F1F1" stop-opacity="0"/>
			<stop offset="1" stop-color="#EEEEEE" stop-opacity="0.898039"/>
		</radialGradient>
		<path fill="none" stroke-width="4" stroke-linejoin="round" stroke="url(#SVGID_Stroke3_)" d="M 7.35046,12.1902L 7.35046,12.1902C 7.35046,8.18628 10.5965,4.94019 14.6005,4.94019L 80.1008,4.94019C 84.105,4.94019 87.3508,8.18628 87.3508,12.1902L 87.3508,12.1902C 87.3508,16.1943 84.105,19.4402 80.1008,19.4402L 14.6005,19.4402C 10.5965,19.4402 7.35046,16.1943 7.35046,12.1902 Z "/>
		<radialGradient id="SVGID_Stroke4_" cx="47.3492" cy="73.4597" r="79.1194" gradientUnits="userSpaceOnUse" gradientTransform="rotate(90.000000 47.349243 73.459717)">
			<stop offset="0.869369" stop-color="#F1F1F1" stop-opacity="0"/>
			<stop offset="1" stop-color="#EEEEEE" stop-opacity="0.898039"/>
		</radialGradient>
		<path fill="none" stroke-width="4" stroke-linejoin="round" stroke="url(#SVGID_Stroke4_)" d="M 87.3506,82.6902L 87.3506,82.6902C 87.3506,86.6943 84.1046,89.9402 80.1006,89.9402L 14.6003,89.9402C 10.5961,89.9402 7.35034,86.6943 7.35034,82.6902L 7.35034,82.6902C 7.35034,78.6863 10.5961,75.4402 14.6003,75.4402L 80.1006,75.4402C 84.1046,75.4402 87.3506,78.6863 87.3506,82.6902 Z "/>
	</g>
</svg>
