<?xml version="1.0" encoding="utf-8"?>
<!DOCTYPE svg PUBLIC "-//W3C//DTD SVG 1.1//EN" "http://www.w3.org/Graphics/SVG/1.1/DTD/svg11.dtd">
<svg xmlns="http://www.w3.org/2000/svg" xmlns:xlink="http://www.w3.org/1999/xlink" version="1.1" baseProfile="full" width="95" height="95" viewBox="0 0 95.00 95.00" enable-background="new 0 0 95.00 95.00" xml:space="preserve">
	<path fill="#000000" fill-opacity="1" stroke-linejoin="round" stroke="#C0C0CC" stroke-opacity="1" d="M 15.5,2.49976L 79.5,2.49976C 86.6797,2.49976 92.5,8.32007 92.5,15.4998L 92.5,79.4998C 92.5,86.6794 86.6797,92.4998 79.5,92.4998L 15.5,92.4998C 8.32031,92.4998 2.5,86.6794 2.5,79.4998L 2.5,15.4998C 2.5,8.32007 8.32031,2.49976 15.5,2.49976 Z "/>
	<path fill="#FFFFFF" fill-opacity="1" stroke-linejoin="round" d="M 57.4375,14.6284C 58.6528,15.1943 60.8473,16.4719 62.3334,17.7219C 63.8195,18.9719 64.5973,20.1943 64.875,21.8054C 65.1528,23.4165 64.9306,25.4165 63.4723,28.4583C 62.0139,31.4998 59.3195,35.5833 54.2951,44.479C 49.2709,53.3748 41.9167,67.0833 38.1979,73.9441C 34.4792,80.8054 34.3959,80.8193 33.3889,80.1389C 32.382,79.4583 30.4514,78.0833 29.4862,77.3748C 28.5209,76.6665 28.5209,76.6248 33.6701,68.1838C 38.8195,59.7429 49.1181,42.9026 54.3229,34.3506C 59.5278,25.7986 59.6389,25.5344 59.7292,24.8123C 59.8195,24.0901 59.8889,22.9094 59.7639,21.8123C 59.6389,20.7151 59.3195,19.7012 58.7084,18.7151C 58.0973,17.729 57.1945,16.7708 56.6528,16.0483C 56.1111,15.3262 55.9306,14.8401 55.9584,14.5242C 55.9861,14.2083 56.2223,14.0623 57.4375,14.6284 Z "/>
	<path fill="#FFFFFF" fill-opacity="1" stroke-linejoin="round" d="M 36.5839,14.9822C 35.3687,15.5481 33.1742,16.8259 31.6881,18.0759C 30.202,19.3259 29.4242,20.5481 29.1464,22.1594C 28.8687,23.7703 29.0908,25.7703 30.5492,28.812C 32.0075,31.8538 34.702,35.937 39.7263,44.8328C 44.7506,53.7288 52.1047,67.437 55.8235,74.2981C 59.5422,81.1592 59.6256,81.1731 60.6326,80.4927C 61.6395,79.812 63.57,78.437 64.5353,77.7288C 65.5006,77.0203 65.5006,76.9788 60.3513,68.5376C 55.202,60.0967 44.9033,43.2566 39.6985,34.7043C 34.4937,26.1523 34.3825,25.8884 34.2922,25.1663C 34.202,24.4441 34.1325,23.2634 34.2575,22.1663C 34.3825,21.0691 34.702,20.0549 35.3131,19.0688C 35.9242,18.0828 36.827,17.1245 37.3687,16.4021C 37.9103,15.6799 38.0908,15.1941 38.0631,14.8782C 38.0353,14.562 37.7992,14.4163 36.5839,14.9822 Z "/>
	<line fill="none" stroke-width="2" stroke-linecap="round" stroke-linejoin="round" stroke="#FFFFFF" stroke-opacity="1" x1="19.625" y1="19.5623" x2="19.625" y2="75.3123"/>
	<path fill="none" stroke-width="2.5" stroke-linejoin="round" stroke="#FFFFFF" stroke-opacity="1" d="M 19.5624,63.1873C 23.3593,63.1873 26.4374,64.8523 26.4374,66.9063C 26.4374,68.9602 23.3593,70.6252 19.5624,70.6252C 15.7654,70.6252 12.6874,68.9602 12.6874,66.9063C 12.6874,64.8523 15.7655,63.1873 19.5624,63.1873 Z "/>
	<line fill="none" stroke-width="2" stroke-linecap="round" stroke-linejoin="round" stroke="#FFFFFF" stroke-opacity="1" x1="73.2919" y1="19.8748" x2="73.2919" y2="75.6248"/>
	<path fill="none" stroke-width="2.5" stroke-linejoin="round" stroke="#FFFFFF" stroke-opacity="1" d="M 73.2292,63.4998C 77.0261,63.4998 80.1042,65.165 80.1042,67.219C 80.1042,69.2727 77.0261,70.9377 73.2292,70.9377C 69.4323,70.9377 66.3542,69.2727 66.3542,67.219C 66.3542,65.165 69.4323,63.4998 73.2292,63.4998 Z "/>
	<g>
		<radialGradient id="SVGID_Fill1_" cx="-16.0265" cy="9.87939" r="118.102" gradientUnits="userSpaceOnUse">
			<stop offset="0" stop-color="#FFFFFF" stop-opacity="0.843137"/>
			<stop offset="0.77027" stop-color="#FFFFFF" stop-opacity="0.32549"/>
			<stop offset="1" stop-color="#FFFFFF" stop-opacity="0"/>
		</radialGradient>
		<path fill="url(#SVGID_Fill1_)" stroke-width="0.2" stroke-linejoin="round" d="M 16.3506,3.44043L 80.3506,3.44043C 86.4257,3.44043 91.3506,8.36548 91.3506,14.4404L 91.3506,77.4402C 91.3506,83.5154 86.4257,88.4402 80.3506,88.4402L 16.3506,88.4402C 10.2755,88.4402 5.35059,83.5154 5.35059,77.4402L 5.35059,14.4404C 5.35059,8.36548 10.2755,3.44043 16.3506,3.44043 Z "/>
		<radialGradient id="SVGID_Stroke1_" cx="73.3702" cy="47.4409" r="669.951" gradientUnits="userSpaceOnUse">
			<stop offset="0.869369" stop-color="#F1F1F1" stop-opacity="0"/>
			<stop offset="1" stop-color="#EEEEEE" stop-opacity="0.898039"/>
		</radialGradient>
		<path fill="none" stroke-width="4" stroke-linejoin="round" stroke="url(#SVGID_Stroke1_)" d="M 82.6005,7.43994L 82.6005,7.43994C 86.6046,7.43994 89.8505,10.6858 89.8505,14.6897L 89.8505,80.1902C 89.8505,84.1943 86.6046,87.4402 82.6005,87.4402L 82.6005,87.4402C 78.5964,87.4402 75.3505,84.1943 75.3505,80.1902L 75.3505,14.6897C 75.3505,10.6858 78.5964,7.43994 82.6005,7.43994 Z "/>
		<radialGradient id="SVGID_Stroke2_" cx="21.331" cy="47.4397" r="669.951" gradientUnits="userSpaceOnUse" gradientTransform="rotate(180.000000 21.330994 47.439697)">
			<stop offset="0.869369" stop-color="#F1F1F1" stop-opacity="0"/>
			<stop offset="1" stop-color="#EEEEEE" stop-opacity="0.898039"/>
		</radialGradient>
		<path fill="none" stroke-width="4" stroke-linejoin="round" stroke="url(#SVGID_Stroke2_)" d="M 12.1007,87.4407L 12.1007,87.4407C 8.09662,87.4407 4.85071,84.1946 4.85071,80.1907L 4.85071,14.6902C 4.85071,10.6863 8.09662,7.44019 12.1007,7.44019L 12.1007,7.44019C 16.1047,7.44019 19.3507,10.6863 19.3507,14.6902L 19.3507,80.1907C 19.3507,84.1946 16.1047,87.4407 12.1007,87.4407 Z "/>
		<radialGradient id="SVGID_Stroke3_" cx="47.3519" cy="21.4207" r="79.1183" gradientUnits="userSpaceOnUse" gradientTransform="rotate(-90.000000 47.351929 21.420654)">
			<stop offset="0.869369" stop-color="#F1F1F1" stop-opacity="0"/>
			<stop offset="1" stop-color="#EEEEEE" stop-opacity="0.898039"/>
		</radialGradient>
		<path fill="none" stroke-width="4" stroke-linejoin="round" stroke="url(#SVGID_Stroke3_)" d="M 7.35052,12.1902L 7.35052,12.1902C 7.35052,8.18628 10.5966,4.94019 14.6005,4.94019L 80.1008,4.94019C 84.1051,4.94019 87.3508,8.18628 87.3508,12.1902L 87.3508,12.1902C 87.3508,16.1943 84.1051,19.4402 80.1008,19.4402L 14.6005,19.4402C 10.5966,19.4402 7.35052,16.1943 7.35052,12.1902 Z "/>
		<radialGradient id="SVGID_Stroke4_" cx="47.3491" cy="73.4597" r="79.1194" gradientUnits="userSpaceOnUse" gradientTransform="rotate(90.000000 47.349121 73.459717)">
			<stop offset="0.869369" stop-color="#F1F1F1" stop-opacity="0"/>
			<stop offset="1" stop-color="#EEEEEE" stop-opacity="0.898039"/>
		</radialGradient>
		<path fill="none" stroke-width="4" stroke-linejoin="round" stroke="url(#SVGID_Stroke4_)" d="M 87.3505,82.6902L 87.3505,82.6902C 87.3505,86.6943 84.1045,89.9402 80.1005,89.9402L 14.6002,89.9402C 10.5959,89.9402 7.35022,86.6943 7.35022,82.6902L 7.35022,82.6902C 7.35022,78.6863 10.5959,75.4402 14.6002,75.4402L 80.1005,75.4402C 84.1045,75.4402 87.3505,78.6863 87.3505,82.6902 Z "/>
	</g>
</svg>
