<?xml version="1.0" encoding="utf-8"?>
<!DOCTYPE svg PUBLIC "-//W3C//DTD SVG 1.1//EN" "http://www.w3.org/Graphics/SVG/1.1/DTD/svg11.dtd">
<svg xmlns="http://www.w3.org/2000/svg" xmlns:xlink="http://www.w3.org/1999/xlink" version="1.1" baseProfile="full" width="95" height="94.9998" viewBox="0 0 95.00 95.00" enable-background="new 0 0 95.00 95.00" xml:space="preserve">
	<path fill="#000000" fill-opacity="1" stroke-linejoin="round" stroke="#000000" stroke-opacity="1" d="M 15.5,2.49976L 79.5,2.49976C 86.6797,2.49976 92.5,8.32007 92.5,15.4998L 92.5,79.4995C 92.5,86.6792 86.6797,92.4998 79.5,92.4998L 15.5,92.4998C 8.32031,92.4998 2.5,86.6792 2.5,79.4995L 2.5,15.4998C 2.5,8.32007 8.32031,2.49976 15.5,2.49976 Z "/>
	<path fill="#FFFFFF" fill-opacity="1" stroke-linejoin="round" d="M 43.8541,32.0693C 43.75,27.0972 43.6666,20.7358 44.243,17.2847C 44.8194,13.8333 46.0555,13.2915 47.4583,13.1804C 48.8611,13.0693 50.4305,13.3887 51.1041,18.2778C 51.7777,23.1665 51.5555,32.625 51.6319,38.104C 51.7083,43.5833 52.0833,45.083 52.875,45.979C 53.6666,46.8748 54.875,47.1665 55.7708,46.7705C 56.6666,46.3748 57.25,45.2915 57.5104,43.1143C 57.7708,40.9373 57.7083,37.6665 58.0624,35.552C 58.4166,33.4375 59.1874,32.479 60.0729,32.302C 60.9583,32.125 61.9583,32.729 62.3958,35.5313C 62.8333,38.3333 62.7083,43.333 62.3819,46.7324C 62.0555,50.1318 61.5277,51.9304 59.6874,53.3784C 57.8472,54.8262 54.6944,55.9236 53.1388,56.7361C 51.5833,57.5486 51.6249,58.0762 51.5486,63.6492C 51.4722,69.2222 51.2777,79.8401 51.118,85.2117C 50.9583,90.583 50.8333,90.708 49.6458,90.729C 48.4583,90.7498 46.2083,90.6665 45.0208,90.583C 43.8333,90.4998 43.7083,90.4165 43.5833,85.0674C 43.4583,79.7185 43.3333,69.104 43.2968,63.2395C 43.2604,57.375 43.3124,56.2603 42.1198,55.8333C 40.927,55.4063 38.4895,55.6665 36.5885,54.9063C 34.6874,54.1458 33.3229,52.3643 32.4739,50.6404C 31.625,48.9165 31.2916,47.2498 31.1666,42.8955C 31.0416,38.5415 31.125,31.4998 31.4375,27.5623C 31.75,23.6248 32.2916,22.7915 33.0625,22.2915C 33.8333,21.7915 34.8333,21.6248 35.4791,22.0623C 36.125,22.4998 36.4166,23.5415 36.5295,26.4773C 36.6423,29.4131 36.5764,34.2429 36.5242,37.5034C 36.4722,40.7637 36.434,42.4548 36.6909,43.9355C 36.9479,45.4165 37.4999,46.6875 38.4739,47.302C 39.4479,47.9165 40.8437,47.875 41.8698,47.25C 42.8958,46.625 43.5521,45.4165 43.8177,43.0205C 44.0833,40.6248 43.9583,37.0415 43.8541,32.0693 Z "/>
	<g>
		<radialGradient id="SVGID_Fill1_" cx="-16.0266" cy="9.87939" r="118.103" gradientUnits="userSpaceOnUse">
			<stop offset="0" stop-color="#FFFFFF" stop-opacity="0.843137"/>
			<stop offset="0.77027" stop-color="#FFFFFF" stop-opacity="0.32549"/>
			<stop offset="1" stop-color="#FFFFFF" stop-opacity="0"/>
		</radialGradient>
		<path fill="url(#SVGID_Fill1_)" stroke-width="0.2" stroke-linejoin="round" d="M 16.3506,3.44043L 80.3506,3.44043C 86.4257,3.44043 91.3506,8.36523 91.3506,14.4404L 91.3506,77.4399C 91.3506,83.5151 86.4257,88.4399 80.3506,88.4399L 16.3506,88.4399C 10.2755,88.4399 5.35059,83.5151 5.35059,77.4399L 5.35059,14.4404C 5.35059,8.36523 10.2755,3.44043 16.3506,3.44043 Z "/>
		<radialGradient id="SVGID_Stroke1_" cx="73.3702" cy="47.4409" r="669.951" gradientUnits="userSpaceOnUse">
			<stop offset="0.869369" stop-color="#F1F1F1" stop-opacity="0"/>
			<stop offset="1" stop-color="#EEEEEE" stop-opacity="0.898039"/>
		</radialGradient>
		<path fill="none" stroke-width="4" stroke-linejoin="round" stroke="url(#SVGID_Stroke1_)" d="M 82.6005,7.43994L 82.6005,7.43994C 86.6046,7.43994 89.8505,10.6858 89.8505,14.6897L 89.8505,80.1902C 89.8505,84.1943 86.6046,87.4402 82.6005,87.4402L 82.6005,87.4402C 78.5964,87.4402 75.3505,84.1943 75.3505,80.1902L 75.3505,14.6897C 75.3505,10.6858 78.5964,7.43994 82.6005,7.43994 Z "/>
		<radialGradient id="SVGID_Stroke2_" cx="21.3309" cy="47.4395" r="669.951" gradientUnits="userSpaceOnUse" gradientTransform="rotate(180.000000 21.330933 47.439453)">
			<stop offset="0.869369" stop-color="#F1F1F1" stop-opacity="0"/>
			<stop offset="1" stop-color="#EEEEEE" stop-opacity="0.898039"/>
		</radialGradient>
		<path fill="none" stroke-width="4" stroke-linejoin="round" stroke="url(#SVGID_Stroke2_)" d="M 12.1006,87.4404L 12.1006,87.4404C 8.09656,87.4404 4.85065,84.1946 4.85065,80.1907L 4.85065,14.6902C 4.85065,10.686 8.09656,7.44019 12.1006,7.44019L 12.1006,7.44019C 16.1047,7.44019 19.3506,10.686 19.3506,14.6902L 19.3506,80.1907C 19.3506,84.1946 16.1047,87.4404 12.1006,87.4404 Z "/>
		<radialGradient id="SVGID_Stroke3_" cx="47.3517" cy="21.4207" r="79.1194" gradientUnits="userSpaceOnUse" gradientTransform="rotate(-90.000000 47.351746 21.420654)">
			<stop offset="0.869369" stop-color="#F1F1F1" stop-opacity="0"/>
			<stop offset="1" stop-color="#EEEEEE" stop-opacity="0.898039"/>
		</radialGradient>
		<path fill="none" stroke-width="4" stroke-linejoin="round" stroke="url(#SVGID_Stroke3_)" d="M 7.3504,12.1902L 7.3504,12.1902C 7.3504,8.18604 10.5964,4.94019 14.6004,4.94019L 80.1008,4.94019C 84.1049,4.94019 87.3507,8.18604 87.3507,12.1902L 87.3507,12.1902C 87.3507,16.1943 84.1049,19.4402 80.1008,19.4402L 14.6004,19.4402C 10.5964,19.4402 7.3504,16.1943 7.3504,12.1902 Z "/>
		<radialGradient id="SVGID_Stroke4_" cx="47.3495" cy="73.4597" r="79.1194" gradientUnits="userSpaceOnUse" gradientTransform="rotate(90.000000 47.349548 73.459717)">
			<stop offset="0.869369" stop-color="#F1F1F1" stop-opacity="0"/>
			<stop offset="1" stop-color="#EEEEEE" stop-opacity="0.898039"/>
		</radialGradient>
		<path fill="none" stroke-width="4" stroke-linejoin="round" stroke="url(#SVGID_Stroke4_)" d="M 87.3509,82.6902L 87.3509,82.6902C 87.3509,86.6943 84.1049,89.9402 80.1009,89.9402L 14.6005,89.9402C 10.5964,89.9402 7.35059,86.6943 7.35059,82.6902L 7.35059,82.6902C 7.35059,78.686 10.5964,75.4402 14.6005,75.4402L 80.1009,75.4402C 84.1049,75.4402 87.3509,78.686 87.3509,82.6902 Z "/>
	</g>
</svg>
