<?xml version="1.0" encoding="utf-8"?>
<!DOCTYPE svg PUBLIC "-//W3C//DTD SVG 1.1//EN" "http://www.w3.org/Graphics/SVG/1.1/DTD/svg11.dtd">
<svg xmlns="http://www.w3.org/2000/svg" xmlns:xlink="http://www.w3.org/1999/xlink" version="1.1" baseProfile="full" width="95" height="95" viewBox="0 0 95.00 95.00" enable-background="new 0 0 95.00 95.00" xml:space="preserve">
	<path fill="#000000" fill-opacity="1" stroke-linejoin="round" stroke="#C0C0CC" stroke-opacity="1" d="M 15.5,2.49994L 79.5,2.49994C 86.6797,2.49994 92.5,8.32025 92.5,15.4999L 92.5,79.4999C 92.5,86.6796 86.6797,92.4999 79.5,92.4999L 15.5,92.4999C 8.32031,92.4999 2.5,86.6796 2.5,79.4999L 2.5,15.4999C 2.5,8.32025 8.32031,2.49994 15.5,2.49994 Z "/>
	<g>
		<path fill="#FFFFFF" fill-opacity="1" stroke-linejoin="round" d="M 22.4052,67.2211L 26.4052,67.2211L 26.4052,18.2211C 26.4052,17.1166 27.3007,16.2209 28.4052,16.2209L 57.9052,16.2209C 59.0098,16.2209 59.9052,17.1166 59.9052,18.2211L 59.9052,67.2211L 64.1552,67.2211C 64.7074,67.2211 65.1552,67.6689 65.1552,68.2211L 65.1552,74.2211C 65.1552,74.7734 64.7074,75.2211 64.1552,75.2211L 22.4052,75.2211C 21.8529,75.2211 21.4052,74.7734 21.4052,74.2211L 21.4052,68.2211C 21.4052,67.6689 21.8529,67.2211 22.4052,67.2211 Z M 29.1559,20.8444L 29.1559,34.4694C 29.1559,35.5739 30.0514,36.4694 31.1559,36.4694L 55.5309,36.4694C 56.6355,36.4694 57.5309,35.5739 57.5309,34.4694L 57.5309,20.8444C 57.5309,19.7399 56.6355,18.8444 55.5309,18.8444L 31.1559,18.8444C 30.0514,18.8444 29.1559,19.7399 29.1559,20.8444 Z "/>
		<path fill="none" stroke-width="2" stroke-linejoin="round" stroke="#FFFFFF" stroke-opacity="1" d="M 58.9063,43.2187C 59.6146,43.1354 60.3229,43.0522 61.5521,44.3229C 62.7813,45.5937 64.5313,48.2187 65.5313,50.8229C 66.5313,53.4272 66.7813,56.0104 67.3438,57.7812C 67.9063,59.5522 68.7813,60.5104 69.8854,60.7604C 70.9896,61.0104 72.3229,60.5522 73.1563,59.4687C 73.9896,58.3854 74.3229,56.6772 74.4479,52.5937C 74.5729,48.5104 74.4896,42.0522 74.4063,35.5937"/>
		<path fill="#FFFFFF" fill-opacity="1" stroke-width="0.2" stroke-linejoin="round" stroke="#FFFFFF" stroke-opacity="1" d="M 69.2813,26.5729C 67.9896,25.4687 66.6979,24.8437 65.9063,24.8022C 65.1146,24.7604 64.8229,25.3022 65.0104,25.8854C 65.1979,26.4687 65.8646,27.0937 66.2188,27.7397C 66.5729,28.3854 66.6146,29.0522 66.7813,30.0937C 66.9479,31.1354 67.2396,32.5522 68.1146,33.3647C 68.9896,34.1772 70.4479,34.3854 71.3021,34.7187C 72.1563,35.0522 72.4063,35.5104 73.0729,35.7812C 73.7396,36.0522 74.8229,36.1354 75.4063,35.7812C 75.9896,35.4272 76.0729,34.6354 75.6146,33.7397C 75.1563,32.8437 74.1563,31.8437 73.0104,30.5522C 71.8646,29.2604 70.5729,27.6772 69.2813,26.5729 Z M 67.8993,31.507C 67.5034,30.6669 67.309,29.6669 67.2465,29.1633C 67.184,28.6599 67.2534,28.653 67.9027,29.4726C 68.552,30.2919 69.7812,31.9377 70.3923,32.8403C 71.0034,33.7431 70.9965,33.903 70.743,33.9238C 70.4895,33.9448 69.9895,33.8266 69.4409,33.4272C 68.8923,33.028 68.2951,32.3474 67.8993,31.507 Z "/>
		<line fill="none" stroke-linejoin="round" stroke="#FFFFFF" stroke-opacity="1" x1="65.2597" y1="25.3613" x2="62.9536" y2="24.5449"/>
	</g>
	<g>
		<radialGradient id="SVGID_Fill1_" cx="-16.0265" cy="9.87958" r="118.102" gradientUnits="userSpaceOnUse">
			<stop offset="0" stop-color="#FFFFFF" stop-opacity="0.843137"/>
			<stop offset="0.77027" stop-color="#FFFFFF" stop-opacity="0.32549"/>
			<stop offset="1" stop-color="#FFFFFF" stop-opacity="0"/>
		</radialGradient>
		<path fill="url(#SVGID_Fill1_)" stroke-width="0.2" stroke-linejoin="round" d="M 16.3506,3.44061L 80.3506,3.44061C 86.4257,3.44061 91.3506,8.36566 91.3506,14.4406L 91.3506,77.4404C 91.3506,83.5156 86.4257,88.4404 80.3506,88.4404L 16.3506,88.4404C 10.2755,88.4404 5.35059,83.5156 5.35059,77.4404L 5.35059,14.4406C 5.35059,8.36566 10.2755,3.44061 16.3506,3.44061 Z "/>
		<radialGradient id="SVGID_Stroke1_" cx="73.3702" cy="47.4411" r="669.951" gradientUnits="userSpaceOnUse">
			<stop offset="0.869369" stop-color="#F1F1F1" stop-opacity="0"/>
			<stop offset="1" stop-color="#EEEEEE" stop-opacity="0.898039"/>
		</radialGradient>
		<path fill="none" stroke-width="4" stroke-linejoin="round" stroke="url(#SVGID_Stroke1_)" d="M 82.6005,7.44012L 82.6005,7.44012C 86.6046,7.44012 89.8505,10.686 89.8505,14.6899L 89.8505,80.1904C 89.8505,84.1945 86.6046,87.4404 82.6005,87.4404L 82.6005,87.4404C 78.5964,87.4404 75.3505,84.1945 75.3505,80.1904L 75.3505,14.6899C 75.3505,10.686 78.5964,7.44012 82.6005,7.44012 Z "/>
		<radialGradient id="SVGID_Stroke2_" cx="21.331" cy="47.4401" r="669.951" gradientUnits="userSpaceOnUse" gradientTransform="rotate(180.000000 21.330994 47.440125)">
			<stop offset="0.869369" stop-color="#F1F1F1" stop-opacity="0"/>
			<stop offset="1" stop-color="#EEEEEE" stop-opacity="0.898039"/>
		</radialGradient>
		<path fill="none" stroke-width="4" stroke-linejoin="round" stroke="url(#SVGID_Stroke2_)" d="M 12.1007,87.4411L 12.1007,87.4411C 8.09662,87.4411 4.85071,84.1953 4.85071,80.1913L 4.85071,14.6909C 4.85071,10.6867 8.09662,7.44086 12.1007,7.44086L 12.1007,7.44086C 16.1047,7.44086 19.3507,10.6867 19.3507,14.6909L 19.3507,80.1913C 19.3507,84.1953 16.1047,87.4411 12.1007,87.4411 Z "/>
		<radialGradient id="SVGID_Stroke3_" cx="47.3518" cy="21.4208" r="79.1183" gradientUnits="userSpaceOnUse" gradientTransform="rotate(-90.000000 47.351807 21.420837)">
			<stop offset="0.869369" stop-color="#F1F1F1" stop-opacity="0"/>
			<stop offset="1" stop-color="#EEEEEE" stop-opacity="0.898039"/>
		</radialGradient>
		<path fill="none" stroke-width="4" stroke-linejoin="round" stroke="url(#SVGID_Stroke3_)" d="M 7.35046,12.1904L 7.35046,12.1904C 7.35046,8.18646 10.5964,4.94037 14.6005,4.94037L 80.1008,4.94037C 84.105,4.94037 87.3508,8.18646 87.3508,12.1904L 87.3508,12.1904C 87.3508,16.1945 84.105,19.4404 80.1008,19.4404L 14.6005,19.4404C 10.5964,19.4404 7.35046,16.1945 7.35046,12.1904 Z "/>
		<radialGradient id="SVGID_Stroke4_" cx="47.3489" cy="73.4599" r="79.1194" gradientUnits="userSpaceOnUse" gradientTransform="rotate(90.000000 47.348877 73.459900)">
			<stop offset="0.869369" stop-color="#F1F1F1" stop-opacity="0"/>
			<stop offset="1" stop-color="#EEEEEE" stop-opacity="0.898039"/>
		</radialGradient>
		<path fill="none" stroke-width="4" stroke-linejoin="round" stroke="url(#SVGID_Stroke4_)" d="M 87.3503,82.6904L 87.3503,82.6904C 87.3503,86.6945 84.1042,89.9404 80.1003,89.9404L 14.6,89.9404C 10.5957,89.9404 7.34998,86.6945 7.34998,82.6904L 7.34998,82.6904C 7.34998,78.6865 10.5957,75.4404 14.6,75.4404L 80.1003,75.4404C 84.1042,75.4404 87.3503,78.6865 87.3503,82.6904 Z "/>
	</g>
</svg>
