<?xml version="1.0" encoding="utf-8"?>
<!DOCTYPE svg PUBLIC "-//W3C//DTD SVG 1.1//EN" "http://www.w3.org/Graphics/SVG/1.1/DTD/svg11.dtd">
<svg xmlns="http://www.w3.org/2000/svg" xmlns:xlink="http://www.w3.org/1999/xlink" version="1.1" baseProfile="full" width="95" height="95" viewBox="0 0 95.00 95.00" enable-background="new 0 0 95.00 95.00" xml:space="preserve">
	<path fill="#000000" fill-opacity="1" stroke-linejoin="round" stroke="#C0C0CC" stroke-opacity="1" d="M 15.5,2.49994L 79.5,2.49994C 86.6797,2.49994 92.5,8.32025 92.5,15.4999L 92.5,79.4997C 92.5,86.6794 86.6797,92.4998 79.5,92.4998L 15.5,92.4998C 8.32029,92.4998 2.5,86.6794 2.5,79.4997L 2.5,15.4999C 2.5,8.32025 8.32029,2.49994 15.5,2.49994 Z "/>
	<g>
		<path fill="#000000" fill-opacity="1" stroke-linejoin="round" d="M 82.6638,46.4589C 83.1391,46.2416 83.3795,45.7504 83.2448,45.2792L 83.1302,26.0312C 83.0535,25.7575 82.8523,25.5266 82.5819,25.3896C 82.3115,25.2563 81.9897,25.2297 81.6978,25.3127L 62.066,31.6909C 59.8955,30.5815 51.6801,26.4348 49.0998,26.0439L 47.7432,25.9462C 45.5034,25.9462 43.3544,26.6718 42.7809,26.8788C 41.458,27.019 34.4551,27.8549 29.7445,30.0099C 25.6373,28.0722 11.4668,21.2416 11.434,21.2187C 11.1861,21.0483 10.8718,20.9782 10.5677,21.0312C 10.2608,21.0783 9.99418,21.2416 9.82296,21.476L 9.49476,41.6904C 9.16169,42.1513 9.28987,42.769 9.77918,43.0898L 23.9523,52.3439C 23.4621,53.3867 23.4368,54.4321 23.8934,55.3818C 24.6755,57.0124 26.6271,57.9313 27.6656,58.3188C 28.4581,61.2534 30.4902,61.7075 31.6783,61.7075C 32.076,61.7075 32.4493,61.6579 32.7739,61.5878C 33.9069,63.883 35.4712,64.3981 36.6444,64.3981C 37.2478,64.3981 37.7886,64.2578 38.2162,64.09C 38.9179,64.8088 40.1603,65.7582 41.9735,65.9653L 42.5068,65.9987C 43.6033,65.9987 44.2788,65.5744 44.6558,65.2167C 45.1676,64.7319 45.3827,64.1303 45.4744,63.6725L 47.9743,65.2768L 48.0398,65.3168C 48.2587,65.4374 49.8342,66.2656 51.508,66.2656C 52.0085,66.2656 52.5203,66.1921 53.0059,66.0021C 53.5906,65.7712 54.3147,65.2997 54.7863,64.3246C 55.7434,64.3708 57.2019,64.2775 58.4294,63.4955C 59.365,62.9042 60.0012,62.0419 60.3268,60.9291C 61.2764,60.852 62.7022,60.5712 63.824,59.6354C 64.6576,58.9409 65.1759,58.0219 65.3733,56.8986C 66.3753,56.8849 67.7852,56.6813 68.8602,55.7958C 69.8866,54.9506 70.3693,53.704 70.3113,52.1061L 82.6638,46.4589 Z M 80.8431,44.9953L 68.9042,50.4526L 60.4905,42.7597C 60.3595,42.6391 60.1986,42.5527 60.0199,42.5024C 59.9357,42.4792 51.6764,40.1496 50.4704,34.2612C 50.3675,33.77 49.8997,33.4228 49.3664,33.4228L 49.242,33.4286L 45.2003,33.8403C 44.9701,33.8632 44.7503,33.9506 44.5791,34.0908C 43.5771,34.8959 40.4784,36.9919 38.161,36.9919C 37.4013,36.9919 36.824,36.7746 36.3525,36.31C 36.2758,36.1262 35.9652,35.09 38.044,33.1054C 41.8416,29.4858 43.4498,28.8442 43.5191,28.821C 43.5368,28.8107 45.6381,27.9987 47.7404,27.9987L 48.7302,28.0688C 50.5649,28.3461 57.3039,31.5876 61.3896,33.6999C 61.6637,33.8403 61.9893,33.8701 62.2887,33.7836L 80.806,27.852L 80.8431,44.9953 Z M 68.0594,52.5341C 68.0341,53.3134 67.8039,53.8976 67.3614,54.2656C 66.7187,54.8002 65.6699,54.874 65.0047,54.8439L 56.445,47.7455C 55.9885,47.3676 55.2793,47.3984 54.863,47.8159C 54.4429,48.2368 54.4794,48.8886 54.9397,49.2661L 63.1953,56.1169C 63.1373,56.986 62.8519,57.6645 62.3186,58.1154C 61.6057,58.7133 60.6112,58.8605 60.0162,58.8906L 51.9758,51.8727C 51.5258,51.4819 50.8175,51.4955 50.39,51.9062C 49.9587,52.3141 49.9764,52.9653 50.4265,53.3561L 58.2067,60.154C 58.0346,60.9062 57.6987,61.457 57.158,61.8044C 56.6284,62.1423 55.9885,62.2526 55.444,62.2758L 55.3673,62.1757L 48.3654,56.1032C 47.9154,55.7123 47.2062,55.7294 46.7786,56.1401C 46.3511,56.5515 46.3698,57.2036 46.8188,57.591L 52.9329,62.8942L 52.9114,62.9841C 52.6924,63.8901 52.2649,64.0602 52.1217,64.1176C 51.2488,64.465 49.7313,63.8395 49.2242,63.5727L 45.7083,61.3203L 45.9965,58.4225L 45.9497,58.2455C 45.2845,55.9501 43.7707,55.0004 42.5947,54.7131C 41.3148,52.2902 39.4474,51.9096 38.4098,51.9096L 37.5762,51.9831C 36.8343,49.7639 35.3103,49.3994 34.3859,49.3994C 33.2857,49.3994 32.2266,49.9145 31.495,50.372C 30.4649,49.3566 29.3936,48.8417 28.2971,48.8417C 27.1136,48.8417 26.0246,49.4396 25.089,50.5663L 11.9647,41.9941L 11.9381,23.9977C 13.3191,24.8764 26.0574,30.6218 29.2477,32.082C 29.577,32.2328 29.9643,32.226 30.2853,32.0624C 32.7196,30.8493 36.0962,30.0434 38.7934,29.549L 36.4255,31.6843C 32.7561,35.1867 34.3532,37.3093 34.5871,37.5829C 35.4899,38.5422 36.7249,39.0468 38.161,39.0468C 41.3083,39.0468 44.783,36.6035 45.785,35.8456L 48.5038,35.571C 50.3535,41.4064 57.549,43.912 59.0946,44.3869L 67.8881,52.4272L 68.0594,52.5341 Z M 43.3656,63.0012L 43.3656,63.0541C 43.3656,63.2184 43.2702,63.6093 43.069,63.7968C 43.0288,63.8337 42.8903,63.9431 42.5245,63.9431L 42.2579,63.9304C 40.7376,63.7568 39.817,62.6769 39.5681,62.3493C 39.192,60.4611 39.6158,58.3224 40.5804,57.2665C 40.9537,56.862 41.3513,56.6652 41.8088,56.6618C 41.9622,56.6686 43.1317,56.7756 43.7277,58.603L 43.3329,62.9345L 43.3656,63.0012 Z M 37.2843,62.2192C 37.0907,62.2895 36.8708,62.3459 36.6444,62.3459C 35.6358,62.3459 34.9632,61.1901 34.5581,60.1437L 34.5655,60.1437C 34.1595,58.1052 36.4068,55.2512 37.4556,54.1552C 37.6314,54.0849 37.9898,53.9643 38.4098,53.9643C 39.0825,53.9643 39.671,54.3058 40.1715,54.9706C 39.6888,55.1982 39.2462,55.5258 38.8552,55.9536C 37.551,57.383 36.9513,59.8495 37.2843,62.2192 Z M 31.6783,59.6562C 31.305,59.6562 30.1795,59.6562 29.737,57.3737L 29.737,57.3666C 29.4339,55.8398 30.4686,54.2392 31.3312,53.2123L 32.1021,52.5478C 32.5915,52.1235 33.6477,51.4518 34.3859,51.4518C 35.0296,51.4518 35.3729,52.2304 35.5554,53.0292C 34.5983,54.0678 32.3098,56.8483 32.2846,59.5825L 31.6783,59.6562 Z M 27.5225,55.9628C 26.8722,55.6122 26.222,55.1347 25.9442,54.5532C 25.728,54.0988 25.7645,53.624 26.0536,53.0627C 26.7553,51.706 27.5917,50.894 28.2971,50.894C 28.7182,50.894 29.229,51.1782 29.7772,51.6992C 28.9184,52.6752 27.8153,54.2219 27.5225,55.9628 Z "/>
		<path fill="#FFFFFF" fill-opacity="1" stroke-linejoin="round" d="M 26.0536,53.0624C 25.7645,53.6237 25.728,54.0986 25.9442,54.5529C 26.222,55.1347 26.8723,55.612 27.5225,55.9628C 27.8153,54.2216 28.9184,52.675 29.7772,51.6989C 29.229,51.1779 28.7182,50.894 28.2971,50.894C 27.5917,50.894 26.7553,51.7057 26.0536,53.0624 Z "/>
		<path fill="#FFFFFF" fill-opacity="1" stroke-linejoin="round" d="M 29.737,57.3666L 29.737,57.3735C 30.1795,59.6559 31.305,59.6559 31.6783,59.6559L 32.2846,59.5825C 32.3099,56.8481 34.5983,54.0678 35.5554,53.0292C 35.373,52.2302 35.0296,51.4516 34.3859,51.4516C 33.6477,51.4516 32.5915,52.1232 32.1022,52.5475L 31.3312,53.2123C 30.4686,54.239 29.4339,55.8395 29.737,57.3666 Z "/>
		<path fill="#FFFFFF" fill-opacity="1" stroke-linejoin="round" d="M 34.5581,60.1435C 34.9632,61.1899 35.6358,62.3456 36.6444,62.3456C 36.8708,62.3456 37.0907,62.2892 37.2843,62.2192C 36.9513,59.8493 37.551,57.3828 38.8552,55.9533C 39.2463,55.5256 39.6888,55.1979 40.1715,54.9704C 39.671,54.3056 39.0825,53.9643 38.4099,53.9643C 37.9898,53.9643 37.6314,54.0849 37.4556,54.155C 36.4068,55.2509 34.1595,58.1049 34.5655,60.1435L 34.5581,60.1435 Z "/>
		<path fill="#FFFFFF" fill-opacity="1" stroke-linejoin="round" d="M 43.069,63.7968C 43.2702,63.6093 43.3656,63.2182 43.3656,63.0541L 43.3656,63.0009L 43.3329,62.9343L 43.7277,58.603C 43.1317,56.7753 41.9622,56.6684 41.8088,56.6616C 41.3513,56.665 40.9537,56.8618 40.5804,57.2665C 39.6158,58.3222 39.192,60.4609 39.5681,62.3491C 39.817,62.6767 40.7376,63.7565 42.2579,63.9301L 42.5245,63.9428C 42.8904,63.9428 43.0288,63.8334 43.069,63.7968 Z "/>
		<path fill="#FFFFFF" fill-opacity="1" stroke-linejoin="round" d="M 65.0047,54.8437C 65.6699,54.8737 66.7187,54.8002 67.3614,54.2653C 67.804,53.8974 68.0341,53.3132 68.0594,52.5339L 67.8882,52.4269L 59.0946,44.3867C 57.549,43.912 50.3535,41.4062 48.5038,35.5707L 45.785,35.8454C 44.783,36.6035 41.3083,39.0468 38.161,39.0468C 36.7249,39.0468 35.4899,38.5419 34.5871,37.5829C 34.3532,37.309 32.7561,35.1865 36.4255,31.684L 38.7934,29.5488C 36.0962,30.0434 32.7196,30.8491 30.2853,32.0624C 29.9644,32.2258 29.577,32.2326 29.2477,32.082C 26.0574,30.6215 13.334,24.8945 11.9531,24.0156L 11.9647,41.9941L 25.089,50.5661C 26.0246,49.4394 27.1136,48.8415 28.2971,48.8415C 29.3937,48.8415 30.4649,49.3564 31.495,50.372C 32.2266,49.9142 33.2857,49.3994 34.3859,49.3994C 35.3103,49.3994 36.8343,49.7636 37.5762,51.9828L 38.4099,51.9094C 39.4474,51.9094 41.3148,52.29 42.5947,54.7128C 43.7707,55.0004 45.2845,55.9499 45.9497,58.2453L 45.9965,58.4223L 45.7083,61.32L 49.2242,63.5724C 49.7313,63.8393 51.2488,64.4648 52.1217,64.1176C 52.2649,64.06 52.6924,63.8898 52.9114,62.9838L 52.9329,62.894L 46.8189,57.5908C 46.3698,57.2033 46.3511,56.5512 46.7786,56.1398C 47.2062,55.7292 47.9154,55.7121 48.3654,56.103L 55.3673,62.1755L 55.444,62.2756C 55.9885,62.2524 56.6284,62.142 57.158,61.8041C 57.6987,61.457 58.0346,60.9059 58.2068,60.1537L 50.4265,53.3559C 49.9764,52.965 49.9587,52.3139 50.39,51.9059C 50.8175,51.4953 51.5258,51.4816 51.9758,51.8725L 60.0162,58.8903C 60.6112,58.8603 61.6057,58.7133 62.3186,58.1152C 62.8519,57.6645 63.1373,56.9858 63.1953,56.1166L 54.9397,49.2658C 54.4794,48.8886 54.4429,48.2368 54.863,47.8159C 55.2793,47.3981 55.9885,47.3674 56.4451,47.7455L 65.0047,54.8437 Z "/>
		<path fill="#FFFFFF" fill-opacity="1" stroke-linejoin="round" d="M 60.4905,42.7597L 68.9042,50.4523L 80.8431,44.9951L 80.7864,27.8491L 62.2887,33.7836C 61.9893,33.8701 61.6637,33.84 61.3896,33.6996C 57.3039,31.5873 50.5649,28.3459 48.7302,28.0688L 47.7404,27.9985C 45.6382,27.9985 43.5368,28.8105 43.5191,28.8207C 43.4498,28.8439 41.8416,29.4855 38.044,33.1052C 35.9652,35.0898 36.2758,36.1259 36.3525,36.31C 36.824,36.7744 37.4013,36.9916 38.161,36.9916C 40.4784,36.9916 43.5771,34.8957 44.5791,34.0908C 44.7503,33.9504 44.9701,33.8632 45.2003,33.84L 49.242,33.4286L 49.3664,33.4225C 49.8997,33.4225 50.3675,33.77 50.4704,34.2609C 51.6764,40.1494 59.9357,42.4789 60.0199,42.5021C 60.1986,42.5527 60.3595,42.6391 60.4905,42.7597 Z "/>
	</g>
	<g>
		<radialGradient id="SVGID_Fill1_" cx="-16.0266" cy="9.87933" r="118.103" gradientUnits="userSpaceOnUse">
			<stop offset="0" stop-color="#FFFFFF" stop-opacity="0.843137"/>
			<stop offset="0.77027" stop-color="#FFFFFF" stop-opacity="0.32549"/>
			<stop offset="1" stop-color="#FFFFFF" stop-opacity="0"/>
		</radialGradient>
		<path fill="url(#SVGID_Fill1_)" stroke-width="0.2" stroke-linejoin="round" d="M 16.3506,3.44037L 80.3506,3.44037C 86.4257,3.44037 91.3506,8.36542 91.3506,14.4404L 91.3506,77.4401C 91.3506,83.5153 86.4257,88.4401 80.3506,88.4401L 16.3506,88.4401C 10.2754,88.4401 5.35058,83.5153 5.35058,77.4401L 5.35058,14.4404C 5.35058,8.36542 10.2754,3.44037 16.3506,3.44037 Z "/>
		<radialGradient id="SVGID_Stroke1_" cx="73.3702" cy="47.4409" r="669.951" gradientUnits="userSpaceOnUse">
			<stop offset="0.869369" stop-color="#F1F1F1" stop-opacity="0"/>
			<stop offset="1" stop-color="#EEEEEE" stop-opacity="0.898039"/>
		</radialGradient>
		<path fill="none" stroke-width="4" stroke-linejoin="round" stroke="url(#SVGID_Stroke1_)" d="M 82.6005,7.43988L 82.6005,7.43988C 86.6046,7.43988 89.8505,10.686 89.8505,14.6899L 89.8505,80.1902C 89.8505,84.1944 86.6046,87.4402 82.6005,87.4402L 82.6005,87.4402C 78.5965,87.4402 75.3505,84.1944 75.3505,80.1902L 75.3505,14.6899C 75.3505,10.686 78.5965,7.43988 82.6005,7.43988 Z "/>
		<radialGradient id="SVGID_Stroke2_" cx="21.331" cy="47.4401" r="669.951" gradientUnits="userSpaceOnUse" gradientTransform="rotate(180.000000 21.330967 47.440125)">
			<stop offset="0.869369" stop-color="#F1F1F1" stop-opacity="0"/>
			<stop offset="1" stop-color="#EEEEEE" stop-opacity="0.898039"/>
		</radialGradient>
		<path fill="none" stroke-width="4" stroke-linejoin="round" stroke="url(#SVGID_Stroke2_)" d="M 12.1006,87.4411L 12.1006,87.4411C 8.09657,87.4411 4.85064,84.1951 4.85064,80.1912L 4.85064,14.6909C 4.85064,10.6867 8.09657,7.44086 12.1006,7.44086L 12.1006,7.44086C 16.1047,7.44086 19.3506,10.6867 19.3506,14.6909L 19.3506,80.1912C 19.3506,84.1951 16.1047,87.4411 12.1006,87.4411 Z "/>
		<radialGradient id="SVGID_Stroke3_" cx="47.3518" cy="21.4208" r="79.1194" gradientUnits="userSpaceOnUse" gradientTransform="rotate(-90.000000 47.351845 21.420837)">
			<stop offset="0.869369" stop-color="#F1F1F1" stop-opacity="0"/>
			<stop offset="1" stop-color="#EEEEEE" stop-opacity="0.898039"/>
		</radialGradient>
		<path fill="none" stroke-width="4" stroke-linejoin="round" stroke="url(#SVGID_Stroke3_)" d="M 7.35051,12.1904L 7.35051,12.1904C 7.35051,8.18622 10.5965,4.94037 14.6005,4.94037L 80.1008,4.94037C 84.105,4.94037 87.3508,8.18622 87.3508,12.1904L 87.3508,12.1904C 87.3508,16.1943 84.105,19.4404 80.1008,19.4404L 14.6005,19.4404C 10.5965,19.4404 7.35051,16.1943 7.35051,12.1904 Z "/>
		<radialGradient id="SVGID_Stroke4_" cx="47.349" cy="73.4598" r="79.1194" gradientUnits="userSpaceOnUse" gradientTransform="rotate(90.000000 47.348976 73.459778)">
			<stop offset="0.869369" stop-color="#F1F1F1" stop-opacity="0"/>
			<stop offset="1" stop-color="#EEEEEE" stop-opacity="0.898039"/>
		</radialGradient>
		<path fill="none" stroke-width="4" stroke-linejoin="round" stroke="url(#SVGID_Stroke4_)" d="M 87.3503,82.6902L 87.3503,82.6902C 87.3503,86.6944 84.1043,89.9402 80.1003,89.9402L 14.6,89.9402C 10.5958,89.9402 7.34999,86.6944 7.34999,82.6902L 7.34999,82.6902C 7.34999,78.6862 10.5958,75.4402 14.6,75.4402L 80.1003,75.4402C 84.1043,75.4402 87.3503,78.6862 87.3503,82.6902 Z "/>
	</g>
</svg>
