<?xml version="1.0" encoding="utf-8"?>
<!DOCTYPE svg PUBLIC "-//W3C//DTD SVG 1.1//EN" "http://www.w3.org/Graphics/SVG/1.1/DTD/svg11.dtd">
<svg xmlns="http://www.w3.org/2000/svg" xmlns:xlink="http://www.w3.org/1999/xlink" version="1.1" baseProfile="full" width="95" height="95" viewBox="0 0 95.00 95.00" enable-background="new 0 0 95.00 95.00" xml:space="preserve">
	<path fill="#000000" fill-opacity="1" stroke-linejoin="round" stroke="#000000" stroke-opacity="1" d="M 15.5,2.49959L 79.5,2.49959C 86.6797,2.49959 92.5,8.3199 92.5,15.4996L 92.5,79.4996C 92.5,86.6793 86.6797,92.4996 79.5,92.4996L 15.5,92.4996C 8.3203,92.4996 2.50002,86.6793 2.50002,79.4996L 2.50002,15.4996C 2.50002,8.3199 8.3203,2.49959 15.5,2.49959 Z "/>
	<g>
		<g>
			<path fill="#FFFFFF" fill-opacity="1" stroke-width="0.2" stroke-linejoin="round" d="M 29.4467,55.3206L 37.8578,54.6124C 38.371,57.7777 39.4129,60.1038 40.9838,61.5907C 42.5546,63.0775 44.6762,63.8209 47.3484,63.8209C 50.1709,63.8209 52.2988,63.1458 53.7319,61.7955C 55.165,60.4451 55.8816,58.866 55.8816,57.0582C 55.8816,55.9 55.5843,54.9146 54.9898,54.1031C 54.3953,53.2916 53.3595,52.5831 51.8826,51.9781C 50.8687,51.5426 48.5594,50.7716 44.9547,49.6646C 40.3173,48.2408 37.063,46.525 35.1918,44.5181C 32.5633,41.6993 31.249,38.2608 31.249,34.2025C 31.249,31.5904 31.8514,29.148 33.0561,26.8756C 34.2608,24.6026 35.9975,22.8724 38.2661,21.6844C 40.5347,20.4964 43.2743,19.9024 46.4848,19.9024C 51.723,19.9024 55.6673,21.2545 58.3176,23.9591C 60.968,26.6632 62.3589,30.2696 62.4903,34.7782L 54.0792,35.4864C 53.7288,32.9703 52.9731,31.1607 51.8121,30.0575C 50.6512,28.9544 48.9099,28.4029 46.5881,28.4029C 44.1974,28.4029 42.3231,29.0042 40.965,30.2069C 40.0951,30.9818 39.6602,32.0147 39.6602,33.306C 39.6602,34.4867 40.0826,35.4976 40.9274,36.3387C 42.0039,37.4088 44.6136,38.5579 48.7565,39.7865C 52.8995,41.015 55.963,42.2564 57.9468,43.5108C 59.9307,44.7652 61.4843,46.4771 62.6077,48.6466C 63.731,50.816 64.2927,53.5018 64.2927,56.7042C 64.2927,59.5968 63.6106,62.3082 62.2463,64.8392C 60.882,67.3702 58.9528,69.2498 56.4589,70.4786C 53.965,71.7071 50.8562,72.3214 47.1325,72.3214C 41.7129,72.3214 37.5511,70.8731 34.6473,67.9771C 31.7435,65.0809 30.0099,60.8621 29.4467,55.3206 Z "/>
		</g>
		<path fill="#FFFFFF" fill-opacity="1" stroke-width="0.2" stroke-linejoin="round" d="M 44.541,12.7525L 50.3743,12.7525C 50.9266,12.7525 51.3743,13.2003 51.3743,13.7525L 51.3743,22.5025C 51.3743,23.0548 50.9266,23.5025 50.3743,23.5025L 44.541,23.5025C 43.9887,23.5025 43.541,23.0548 43.541,22.5025L 43.541,13.7525C 43.541,13.2003 43.9887,12.7525 44.541,12.7525 Z "/>
		<path fill="#FFFFFF" fill-opacity="1" stroke-width="0.2" stroke-linejoin="round" d="M 43.6443,68.1136L 49.4776,68.1136C 50.0299,68.1136 50.4776,68.5614 50.4776,69.1136L 50.4776,77.8636C 50.4776,78.4158 50.0299,78.8636 49.4776,78.8636L 43.6443,78.8636C 43.092,78.8636 42.6443,78.4158 42.6443,77.8636L 42.6443,69.1136C 42.6443,68.5614 43.092,68.1136 43.6443,68.1136 Z "/>
	</g>
	<g>
		<radialGradient id="SVGID_Fill1_" cx="-15.8324" cy="9.87362" r="118.103" gradientUnits="userSpaceOnUse">
			<stop offset="0" stop-color="#FFFFFF" stop-opacity="0.843137"/>
			<stop offset="0.77027" stop-color="#FFFFFF" stop-opacity="0.32549"/>
			<stop offset="1" stop-color="#FFFFFF" stop-opacity="0"/>
		</radialGradient>
		<path fill="url(#SVGID_Fill1_)" stroke-width="0.2" stroke-linejoin="round" d="M 16.5448,3.43465L 80.5448,3.43465C 86.6199,3.43465 91.5448,8.3597 91.5448,14.4347L 91.5448,77.4344C 91.5448,83.5096 86.6199,88.4344 80.5448,88.4344L 16.5448,88.4344C 10.4696,88.4344 5.54477,83.5096 5.54477,77.4344L 5.54477,14.4347C 5.54477,8.3597 10.4696,3.43465 16.5448,3.43465 Z "/>
		<radialGradient id="SVGID_Stroke1_" cx="73.5644" cy="47.4351" r="669.951" gradientUnits="userSpaceOnUse">
			<stop offset="0.869369" stop-color="#F1F1F1" stop-opacity="0"/>
			<stop offset="1" stop-color="#EEEEEE" stop-opacity="0.898039"/>
		</radialGradient>
		<path fill="none" stroke-width="4" stroke-linejoin="round" stroke="url(#SVGID_Stroke1_)" d="M 82.7947,7.43416L 82.7947,7.43416C 86.7988,7.43416 90.0447,10.6803 90.0447,14.6842L 90.0447,80.1846C 90.0447,84.1886 86.7988,87.4346 82.7947,87.4346L 82.7947,87.4346C 78.7906,87.4346 75.5447,84.1886 75.5447,80.1846L 75.5447,14.6842C 75.5447,10.6803 78.7906,7.43416 82.7947,7.43416 Z "/>
		<radialGradient id="SVGID_Stroke2_" cx="21.5251" cy="47.4337" r="669.951" gradientUnits="userSpaceOnUse" gradientTransform="rotate(180.000000 21.525101 47.433674)">
			<stop offset="0.869369" stop-color="#F1F1F1" stop-opacity="0"/>
			<stop offset="1" stop-color="#EEEEEE" stop-opacity="0.898039"/>
		</radialGradient>
		<path fill="none" stroke-width="4" stroke-linejoin="round" stroke="url(#SVGID_Stroke2_)" d="M 12.2948,87.4346L 12.2948,87.4346C 8.29071,87.4346 5.04478,84.1886 5.04478,80.1846L 5.04478,14.6842C 5.04478,10.6803 8.29071,7.43416 12.2948,7.43416L 12.2948,7.43416C 16.2988,7.43416 19.5448,10.6803 19.5448,14.6842L 19.5448,80.1846C 19.5448,84.1886 16.2988,87.4346 12.2948,87.4346 Z "/>
		<radialGradient id="SVGID_Stroke3_" cx="47.5459" cy="21.4151" r="79.1195" gradientUnits="userSpaceOnUse" gradientTransform="rotate(-90.000000 47.545914 21.415119)">
			<stop offset="0.869369" stop-color="#F1F1F1" stop-opacity="0"/>
			<stop offset="1" stop-color="#EEEEEE" stop-opacity="0.898039"/>
		</radialGradient>
		<path fill="none" stroke-width="4" stroke-linejoin="round" stroke="url(#SVGID_Stroke3_)" d="M 7.54457,12.1847L 7.54457,12.1847C 7.54457,8.1805 10.7905,4.93465 14.7946,4.93465L 80.2949,4.93465C 84.2991,4.93465 87.5449,8.1805 87.5449,12.1847L 87.5449,12.1847C 87.5449,16.1886 84.2991,19.4347 80.2949,19.4347L 14.7946,19.4347C 10.7905,19.4347 7.54457,16.1886 7.54457,12.1847 Z "/>
		<radialGradient id="SVGID_Stroke4_" cx="47.5437" cy="73.4542" r="79.1183" gradientUnits="userSpaceOnUse" gradientTransform="rotate(90.000000 47.543686 73.454178)">
			<stop offset="0.869369" stop-color="#F1F1F1" stop-opacity="0"/>
			<stop offset="1" stop-color="#EEEEEE" stop-opacity="0.898039"/>
		</radialGradient>
		<path fill="none" stroke-width="4" stroke-linejoin="round" stroke="url(#SVGID_Stroke4_)" d="M 87.545,82.6846L 87.545,82.6846C 87.545,86.6886 84.2991,89.9346 80.295,89.9346L 14.7947,89.9346C 10.7905,89.9346 7.54471,86.6886 7.54471,82.6846L 7.54471,82.6846C 7.54471,78.6805 10.7905,75.4346 14.7947,75.4346L 80.295,75.4346C 84.2991,75.4346 87.545,78.6805 87.545,82.6846 Z "/>
	</g>
</svg>
