<?xml version="1.0" encoding="utf-8"?>
<!DOCTYPE svg PUBLIC "-//W3C//DTD SVG 1.1//EN" "http://www.w3.org/Graphics/SVG/1.1/DTD/svg11.dtd">
<svg xmlns="http://www.w3.org/2000/svg" xmlns:xlink="http://www.w3.org/1999/xlink" version="1.1" baseProfile="full" width="95" height="95" viewBox="0 0 95.00 95.00" enable-background="new 0 0 95.00 95.00" xml:space="preserve">
	<path fill="#000000" fill-opacity="1" stroke-linejoin="round" stroke="#C0C0CC" stroke-opacity="1" d="M 15.5,2.49976L 79.5,2.49976C 86.6797,2.49976 92.5,8.32007 92.5,15.4998L 92.5,79.4998C 92.5,86.6794 86.6797,92.4998 79.5,92.4998L 15.5,92.4998C 8.32031,92.4998 2.5,86.6794 2.5,79.4998L 2.5,15.4998C 2.5,8.32007 8.32031,2.49976 15.5,2.49976 Z "/>
	<path fill="#FFFFFF" fill-opacity="1" stroke-linejoin="round" d="M 62.3854,56.156L 57.2604,60.031L 54.3854,62.156L 52.6354,67.156L 47.1354,68.531L 44.6354,68.781L 44.6354,72.156L 52.5104,70.906L 58.1354,71.781L 65.8854,71.656L 69.1354,69.906L 74.6354,71.406L 77.3854,72.156L 80.6354,68.781L 77.1354,64.031L 74.5104,63.531L 72.3854,61.656L 71.2604,63.781L 68.8854,65.656L 66.5104,64.531L 66.5104,58.531L 62.3854,56.156 Z "/>
	<path fill="#FFFFFF" fill-opacity="1" stroke-linejoin="round" d="M 18.8854,66.406L 45.5104,32.531L 38.6354,27.281L 30.5104,23.781L 21.3854,20.406L 38.6354,20.281L 50.0104,24.406L 58.2604,30.531L 68.2604,38.406L 62.6354,46.281L 52.3854,38.406L 24.5104,71.906L 18.8854,66.406 Z "/>
	<g>
		<radialGradient id="SVGID_Fill1_" cx="-16.0266" cy="9.87939" r="118.102" gradientUnits="userSpaceOnUse">
			<stop offset="0" stop-color="#FFFFFF" stop-opacity="0.843137"/>
			<stop offset="0.77027" stop-color="#FFFFFF" stop-opacity="0.32549"/>
			<stop offset="1" stop-color="#FFFFFF" stop-opacity="0"/>
		</radialGradient>
		<path fill="url(#SVGID_Fill1_)" stroke-width="0.2" stroke-linejoin="round" d="M 16.3506,3.44043L 80.3506,3.44043C 86.4257,3.44043 91.3506,8.36548 91.3506,14.4404L 91.3506,77.4402C 91.3506,83.5154 86.4257,88.4402 80.3506,88.4402L 16.3506,88.4402C 10.2755,88.4402 5.35059,83.5154 5.35059,77.4402L 5.35059,14.4404C 5.35059,8.36548 10.2755,3.44043 16.3506,3.44043 Z "/>
		<radialGradient id="SVGID_Stroke1_" cx="73.3702" cy="47.4409" r="669.951" gradientUnits="userSpaceOnUse">
			<stop offset="0.869369" stop-color="#F1F1F1" stop-opacity="0"/>
			<stop offset="1" stop-color="#EEEEEE" stop-opacity="0.898039"/>
		</radialGradient>
		<path fill="none" stroke-width="4" stroke-linejoin="round" stroke="url(#SVGID_Stroke1_)" d="M 82.6005,7.43994L 82.6005,7.43994C 86.6046,7.43994 89.8505,10.6858 89.8505,14.6897L 89.8505,80.1902C 89.8505,84.1943 86.6046,87.4402 82.6005,87.4402L 82.6005,87.4402C 78.5964,87.4402 75.3505,84.1943 75.3505,80.1902L 75.3505,14.6897C 75.3505,10.6858 78.5964,7.43994 82.6005,7.43994 Z "/>
		<radialGradient id="SVGID_Stroke2_" cx="21.3309" cy="47.4397" r="669.951" gradientUnits="userSpaceOnUse" gradientTransform="rotate(180.000000 21.330933 47.439697)">
			<stop offset="0.869369" stop-color="#F1F1F1" stop-opacity="0"/>
			<stop offset="1" stop-color="#EEEEEE" stop-opacity="0.898039"/>
		</radialGradient>
		<path fill="none" stroke-width="4" stroke-linejoin="round" stroke="url(#SVGID_Stroke2_)" d="M 12.1006,87.4407L 12.1006,87.4407C 8.09656,87.4407 4.85065,84.1946 4.85065,80.1907L 4.85065,14.6902C 4.85065,10.6863 8.09656,7.44019 12.1006,7.44019L 12.1006,7.44019C 16.1047,7.44019 19.3506,10.6863 19.3506,14.6902L 19.3506,80.1907C 19.3506,84.1946 16.1047,87.4407 12.1006,87.4407 Z "/>
		<radialGradient id="SVGID_Stroke3_" cx="47.3518" cy="21.4207" r="79.1183" gradientUnits="userSpaceOnUse" gradientTransform="rotate(-90.000000 47.351807 21.420654)">
			<stop offset="0.869369" stop-color="#F1F1F1" stop-opacity="0"/>
			<stop offset="1" stop-color="#EEEEEE" stop-opacity="0.898039"/>
		</radialGradient>
		<path fill="none" stroke-width="4" stroke-linejoin="round" stroke="url(#SVGID_Stroke3_)" d="M 7.3504,12.1902L 7.3504,12.1902C 7.3504,8.18628 10.5964,4.94019 14.6004,4.94019L 80.1007,4.94019C 84.105,4.94019 87.3507,8.18628 87.3507,12.1902L 87.3507,12.1902C 87.3507,16.1943 84.105,19.4402 80.1007,19.4402L 14.6004,19.4402C 10.5964,19.4402 7.3504,16.1943 7.3504,12.1902 Z "/>
		<radialGradient id="SVGID_Stroke4_" cx="47.3495" cy="73.4597" r="79.1194" gradientUnits="userSpaceOnUse" gradientTransform="rotate(90.000000 47.349487 73.459717)">
			<stop offset="0.869369" stop-color="#F1F1F1" stop-opacity="0"/>
			<stop offset="1" stop-color="#EEEEEE" stop-opacity="0.898039"/>
		</radialGradient>
		<path fill="none" stroke-width="4" stroke-linejoin="round" stroke="url(#SVGID_Stroke4_)" d="M 87.3509,82.6902L 87.3509,82.6902C 87.3509,86.6943 84.1049,89.9402 80.1009,89.9402L 14.6006,89.9402C 10.5963,89.9402 7.35059,86.6943 7.35059,82.6902L 7.35059,82.6902C 7.35059,78.6863 10.5963,75.4402 14.6006,75.4402L 80.1009,75.4402C 84.1049,75.4402 87.3509,78.6863 87.3509,82.6902 Z "/>
	</g>
</svg>
