<?xml version="1.0" encoding="utf-8"?>
<!DOCTYPE svg PUBLIC "-//W3C//DTD SVG 1.1//EN" "http://www.w3.org/Graphics/SVG/1.1/DTD/svg11.dtd">
<svg xmlns="http://www.w3.org/2000/svg" xmlns:xlink="http://www.w3.org/1999/xlink" version="1.1" baseProfile="full" width="95" height="95.0002" viewBox="0 0 95.00 95.00" enable-background="new 0 0 95.00 95.00" xml:space="preserve">
	<path fill="#000000" fill-opacity="1" stroke-linejoin="round" stroke="#000000" stroke-opacity="1" d="M 15.5,2.50008L 79.5,2.50008C 86.6797,2.50008 92.5,8.32039 92.5,15.5001L 92.5,79.4998C 92.5,86.6795 86.6797,92.5001 79.5,92.5001L 15.5,92.5001C 8.32029,92.5001 2.5,86.6795 2.5,79.4998L 2.5,15.5001C 2.5,8.32039 8.32029,2.50008 15.5,2.50008 Z "/>
	<g>
		<path fill="#FFFFFF" fill-opacity="1" fill-rule="evenodd" stroke-width="0.2" stroke-linejoin="round" d="M 64.514,76.6158C 56.9721,77.8868 58.2065,73.5042 58.1182,68.5057L 57.6748,58.7039L 55.7369,68.1741C 55.3827,69.9698 54.9393,71.6165 57.3231,72.9361C 59.0016,74.492 57.1081,76.7103 55.3,76.4227C 49.7755,76.6158 50.5763,72.6988 51.0545,69.9222L 51.3649,65.9144C 51.5862,63.182 52.0741,61.4805 52.2038,57.6624L 51.4597,55.5921C 45.5016,53.942 41.3915,52.7176 36.7626,50.076L 33.4475,50.5462C 31.9473,50.7835 32.3493,52.67 32.1718,53.8953L 31.6879,57.2398L 28.9457,64.8321L 28.7303,65.492C 28.5496,66.013 28.5943,68.0858 29.3066,69.1646L 30.7566,72.3241C 31.9027,74.1197 32.2099,78.5501 29.1262,77.1292L 26.8305,76.098C 25.2005,75.3914 23.8704,70.5379 23.3039,67.0001L 23.3485,62.0494C 21.9325,61.5794 21.3594,70.491 21.9325,72.3241L 23.6728,76.9661C 24.1097,78.4674 22.3211,78.3966 21.1718,78.3966C 18.4776,78.3966 17.1237,76.0504 16.5506,73.595L 16.4012,70.3895C 16.4012,69.4359 16.385,66.972 17.1821,63.793L 17.7818,60.5948C 19.017,57.5238 17.516,55.3082 17.1682,53.7523C 16.0189,48.754 15.0909,43.8978 18.3143,39.0916L 18.5388,38.7601C 18.4472,38.3841 17.516,37.5868 16.9429,35.7027C 15.7085,31.4549 13.3704,24.5723 14.9193,24.5723L 16.2293,24.5723C 18.8376,24.5723 19.017,35.9322 22.11,35.1815L 44.529,35.4188L 48.4551,34.2821C 49.9148,33.8629 51.1493,32.8714 52.4259,32.023L 54.9805,30.325C 57.9374,33.4871 60.5019,35.4188 64.7353,37.0689C 65.8878,46.4442 64.6088,48.5238 63.5033,54.1246L 63.0575,56.3905C 62.2689,60.3983 62.003,64.5482 62.1805,68.6512L 62.2689,70.5819C 62.2243,72.5604 63.2788,72.7025 64.7353,73.1724C 65.6633,73.6937 66.3247,75.6756 64.514,76.6158 Z "/>
		<path fill="#FFFFFF" fill-opacity="1" fill-rule="evenodd" stroke-width="0.2" stroke-linejoin="round" d="M 69.2531,19.3468C 69.9016,20.6781 70.4139,21.9698 71.6483,23.3802L 74.189,25.526C 75.2022,26.6522 77.3713,26.0404 78.7419,26.3243L 79.2233,26.4188C 80.7244,27.2611 80.2462,28.9625 79.755,30.2335L 79.4446,31.0352C 78.0294,34.668 73.8407,34.9522 70.8806,33.2474L 69.5635,32.5001L 69.1169,32.5001L 68.1929,33.159L 66.2963,34.7625C 62.4585,32.9666 59.3242,30.8023 56.8042,27.9268L 62.5914,20.1927L 64.5294,17.1785L 64.9249,16.1883L 65.3717,15.099C 65.7233,13.8817 67.1798,12.6981 68.2432,13.1673C 69.2531,13.6409 69.9153,15.7113 69.6495,16.8038L 69.3828,18.0282"/>
	</g>
	<g>
		<radialGradient id="SVGID_Fill1_" cx="-15.8772" cy="10.4398" r="118.103" gradientUnits="userSpaceOnUse">
			<stop offset="0" stop-color="#FFFFFF" stop-opacity="0.843137"/>
			<stop offset="0.77027" stop-color="#FFFFFF" stop-opacity="0.32549"/>
			<stop offset="1" stop-color="#FFFFFF" stop-opacity="0"/>
		</radialGradient>
		<path fill="url(#SVGID_Fill1_)" stroke-width="0.2" stroke-linejoin="round" d="M 16.5,4.00081L 80.5,4.00081C 86.5751,4.00081 91.5,8.92562 91.5,15.0008L 91.5,78.0003C 91.5,84.0755 86.5751,89.0003 80.5,89.0003L 16.5,89.0003C 10.4249,89.0003 5.5,84.0755 5.5,78.0003L 5.5,15.0008C 5.5,8.92562 10.4249,4.00081 16.5,4.00081 Z "/>
		<radialGradient id="SVGID_Stroke1_" cx="73.5196" cy="48.0013" r="669.951" gradientUnits="userSpaceOnUse">
			<stop offset="0.869369" stop-color="#F1F1F1" stop-opacity="0"/>
			<stop offset="1" stop-color="#EEEEEE" stop-opacity="0.898039"/>
		</radialGradient>
		<path fill="none" stroke-width="4" stroke-linejoin="round" stroke="url(#SVGID_Stroke1_)" d="M 82.7499,8.00032L 82.7499,8.00032C 86.754,8.00032 89.9999,11.2462 89.9999,15.2503L 89.9999,80.7506C 89.9999,84.7547 86.754,88.0006 82.7499,88.0006L 82.7499,88.0006C 78.7459,88.0006 75.4999,84.7547 75.4999,80.7506L 75.4999,15.2503C 75.4999,11.2462 78.7459,8.00032 82.7499,8.00032 Z "/>
		<radialGradient id="SVGID_Stroke2_" cx="21.4803" cy="47.9996" r="669.951" gradientUnits="userSpaceOnUse" gradientTransform="rotate(180.000000 21.480328 47.999592)">
			<stop offset="0.869369" stop-color="#F1F1F1" stop-opacity="0"/>
			<stop offset="1" stop-color="#EEEEEE" stop-opacity="0.898039"/>
		</radialGradient>
		<path fill="none" stroke-width="4" stroke-linejoin="round" stroke="url(#SVGID_Stroke2_)" d="M 12.25,88.0006L 12.25,88.0006C 8.24593,88.0006 5,84.7547 5,80.7508L 5,15.2503C 5,11.2462 8.24593,8.00032 12.25,8.00032L 12.25,8.00032C 16.2541,8.00032 19.5,11.2462 19.5,15.2503L 19.5,80.7508C 19.5,84.7547 16.2541,88.0006 12.25,88.0006 Z "/>
		<radialGradient id="SVGID_Stroke3_" cx="47.5013" cy="21.981" r="79.1194" gradientUnits="userSpaceOnUse" gradientTransform="rotate(-90.000000 47.501255 21.981037)">
			<stop offset="0.869369" stop-color="#F1F1F1" stop-opacity="0"/>
			<stop offset="1" stop-color="#EEEEEE" stop-opacity="0.898039"/>
		</radialGradient>
		<path fill="none" stroke-width="4" stroke-linejoin="round" stroke="url(#SVGID_Stroke3_)" d="M 7.49992,12.7506L 7.49992,12.7506C 7.49992,8.74642 10.7459,5.50057 14.7499,5.50057L 80.2503,5.50057C 84.2544,5.50057 87.5002,8.74642 87.5002,12.7506L 87.5002,12.7506C 87.5002,16.7547 84.2544,20.0006 80.2503,20.0006L 14.7499,20.0006C 10.7459,20.0006 7.49992,16.7547 7.49992,12.7506 Z "/>
		<radialGradient id="SVGID_Stroke4_" cx="47.499" cy="74.0201" r="79.1194" gradientUnits="userSpaceOnUse" gradientTransform="rotate(90.000000 47.499039 74.020096)">
			<stop offset="0.869369" stop-color="#F1F1F1" stop-opacity="0"/>
			<stop offset="1" stop-color="#EEEEEE" stop-opacity="0.898039"/>
		</radialGradient>
		<path fill="none" stroke-width="4" stroke-linejoin="round" stroke="url(#SVGID_Stroke4_)" d="M 87.5004,83.2506L 87.5004,83.2506C 87.5004,87.2547 84.2544,90.5006 80.2504,90.5006L 14.75,90.5006C 10.7459,90.5006 7.50005,87.2547 7.50005,83.2506L 7.50005,83.2506C 7.50005,79.2464 10.7459,76.0006 14.75,76.0006L 80.2504,76.0006C 84.2544,76.0006 87.5004,79.2464 87.5004,83.2506 Z "/>
	</g>
</svg>
