<?xml version="1.0" encoding="utf-8"?>
<!DOCTYPE svg PUBLIC "-//W3C//DTD SVG 1.1//EN" "http://www.w3.org/Graphics/SVG/1.1/DTD/svg11.dtd">
<svg x="0" y="0" width="48" height="48" overflow="hidden" viewBox="0, 0, 95, 95" preserveAspectRatio="xMidYMid" font-size="0" id="svg" xml:space="default" xmlns="http://www.w3.org/2000/svg" xmlns:xlink="http://www.w3.org/1999/xlink" xmlns:xml="http://www.w3.org/XML/1998/namespace" version="1.1">
  <defs id="def1" xml:space="default">
    <radialGradient cx="-16.0266" cy="9.87939" r="118.102" fx="-16.0266" fy="9.87939" gradientUnits="userSpaceOnUse" id="SVGID_Fill1_-0" xml:space="default">
      <stop offset="0%" stop-color="#FFFFFF" stop-opacity="0.843137" id="stop14-5" xml:space="default" />
      <stop offset="77.027%" stop-color="#FFFFFF" stop-opacity="0.32549" id="stop16-7" xml:space="default" />
      <stop offset="100%" stop-color="#FFFFFF" stop-opacity="0" id="stop18-2" xml:space="default" />
    </radialGradient>
    <radialGradient cx="73.3702" cy="47.4409" r="669.951" fx="73.3702" fy="47.4409" gradientUnits="userSpaceOnUse" id="SVGID_Stroke1_-7" xml:space="default">
      <stop offset="86.9369%" stop-color="#F1F1F1" stop-opacity="0" id="stop23-9" xml:space="default" />
      <stop offset="100%" stop-color="#EEEEEE" stop-opacity="0.898039" id="stop25-5" xml:space="default" />
    </radialGradient>
    <radialGradient cx="21.3309" cy="47.4397" r="669.951" fx="21.3309" fy="47.4397" gradientUnits="userSpaceOnUse" gradientTransform="rotate(180, 21.33093, 47.4397)" id="SVGID_Stroke2_-7" xml:space="default">
      <stop offset="86.9369%" stop-color="#F1F1F1" stop-opacity="0" id="stop30-6" xml:space="default" />
      <stop offset="100%" stop-color="#EEEEEE" stop-opacity="0.898039" id="stop32-4" xml:space="default" />
    </radialGradient>
    <radialGradient cx="47.3518" cy="21.4207" r="79.1183" fx="47.3518" fy="21.4207" gradientUnits="userSpaceOnUse" gradientTransform="rotate(-90, 47.35181, 21.42065)" id="SVGID_Stroke3_-9" xml:space="default">
      <stop offset="86.9369%" stop-color="#F1F1F1" stop-opacity="0" id="stop37-4" xml:space="default" />
      <stop offset="100%" stop-color="#EEEEEE" stop-opacity="0.898039" id="stop39-6" xml:space="default" />
    </radialGradient>
    <radialGradient cx="47.3495" cy="73.4597" r="79.1194" fx="47.3495" fy="73.4597" gradientUnits="userSpaceOnUse" gradientTransform="rotate(90, 47.34949, 73.45972)" id="SVGID_Stroke4_-0" xml:space="default">
      <stop offset="86.9369%" stop-color="#F1F1F1" stop-opacity="0" id="stop44-3" xml:space="default" />
      <stop offset="100%" stop-color="#EEEEEE" stop-opacity="0.898039" id="stop46-8" xml:space="default" />
    </radialGradient>
  </defs>
  <g id="g835" xml:space="default">
    <rect x="0" y="0" width="95" height="95" rx="11.875" ry="11.875" stroke-width="2.375" id="rect4" xml:space="default" />
    <path d="M69.3975 41.77625 L69.3975 29.1175 A2.945 2.945 0 0 0 66.5 26.125 L53.69875 26.125 C49.47125 26.125 48.52125 22.515 50.6825 19.8075 A6.3175 6.3175 0 0 0 45.81375 9.19125 A6.3175 6.3175 0 0 0 40.945 19.8075 A3.68125 3.68125 0 0 1 38 26.125 L25.24625 26.125 A3.04 3.04 0 0 0 22.0875 29.07 L22.0875 70.1575 A3.25375 3.25375 0 0 0 25.24625 73.3875 L66.3575 73.3875 A3.11125 3.11125 0 0 0 69.3975 70.22875 L69.3975 57.5225 C69.3975 53.27125 72.93625 52.32125 75.715 54.4825 A6.34125 6.34125 0 1 0 79.61 43.13 A6.2225 6.2225 0 0 0 75.335 44.81625 C72.93625 47.5 69.3975 46.00375 69.3975 41.77625 z" stroke-width="2.375" id="path6" xml:space="default" connector-curvature="0" style="fill:#FFFFFF;" />
    <g transform="scale(2.375)" id="hqsolutionchecker-Symbols" xml:space="default">
      <g id="hqsolutionchecker-enable" xml:space="default">
        <g id="hqsolutionchecker-_23enablelisting" xml:space="default" data-name="23enablelisting">
          <circle cx="19.17" cy="20.88" r="7.09" id="hqsolutionchecker-Oval" xml:space="default" />
        </g>
      </g>
    </g>
    <path d="M43.1775 57.83125 A1.8525 1.8525 0 0 1 41.895 57.285 L36.3375 51.75125 A1.8525 1.8525 0 0 1 38.95 49.13875 L43.1775 53.36625 L52.9625 43.605 A1.838939 1.838939 0 0 1 55.55125 46.2175 L44.48375 57.285 A1.87625 1.87625 0 0 1 43.1775 57.83125 z" stroke-width="2.375" id="hqsolutionchecker-Path-6" xml:space="default" connector-curvature="0" style="fill:#FFFFFF;" />
  </g>
  <g transform="translate(0.00496333, 0.1849657)" id="g829" xml:space="default">
    <path d="M13.61968 2.747737 L81.70376 2.747737 C87.60965 2.747737 92.39742 7.516876 92.39742 13.40023 L92.39742 81.5632 C92.39742 87.44624 87.60965 92.21567 81.70375 92.21567 L13.61967 92.21567 C7.713772 92.21567 2.925984 87.44624 2.925984 81.5632 L2.925984 13.40023 C2.925984 7.516876 7.713772 2.747737 13.61967 2.747737 z" stroke="#FF0000" stroke-width="3.201912" stroke-linejoin="round" id="path6-5" xml:space="default" connector-curvature="0" style="fill:none;" />
    <line x1="5.599016" y1="5.937233" x2="89.72251" y2="89.02643" stroke="#FF0000" stroke-width="3.201912" stroke-linejoin="round" id="line8" xml:space="default" />
  </g>
  <g transform="matrix(1.127404, 0, 0, 1.127427, -7.172327, -4.697677)" id="g51" xml:space="default">
    <radialGradient cx="-16.0266" cy="9.87939" r="118.102" fx="-16.0266" fy="9.87939" gradientUnits="userSpaceOnUse" id="radialGradient1100" xml:space="default">
      <stop offset="0%" stop-color="#FFFFFF" stop-opacity="0.843137" id="stop1094" xml:space="default" />
      <stop offset="77.027%" stop-color="#FFFFFF" stop-opacity="0.32549" id="stop1096" xml:space="default" />
      <stop offset="100%" stop-color="#FFFFFF" stop-opacity="0" id="stop1098" xml:space="default" />
    </radialGradient>
    <path d="M16.3506 3.44043 L80.3506 3.44043 C86.4257 3.44043 91.3506 8.365479 91.3506 14.4404 L91.3506 77.4402 C91.3506 83.5154 86.4257 88.4402 80.3506 88.4402 L16.3506 88.4402 C10.2755 88.4402 5.350592 83.5154 5.350592 77.4402 L5.350592 14.4404 C5.350592 8.36548 10.2755 3.44043 16.3506 3.44043 z" stroke-width="0.2" stroke-linejoin="round" id="path21" xml:space="default" connector-curvature="0" style="fill:url(#SVGID_Fill1_-0);" />
    <radialGradient cx="73.3702" cy="47.4409" r="669.951" fx="73.3702" fy="47.4409" gradientUnits="userSpaceOnUse" id="radialGradient1107" xml:space="default">
      <stop offset="86.9369%" stop-color="#F1F1F1" stop-opacity="0" id="stop1103" xml:space="default" />
      <stop offset="100%" stop-color="#EEEEEE" stop-opacity="0.898039" id="stop1105" xml:space="default" />
    </radialGradient>
    <path d="M82.6005 7.43994 L82.6005 7.43994 C86.6046 7.43994 89.8505 10.6858 89.8505 14.6897 L89.8505 80.1902 C89.8505 84.1943 86.6046 87.4402 82.6005 87.4402 L82.6005 87.4402 C78.59641 87.4402 75.3505 84.1943 75.3505 80.1902 L75.3505 14.6897 C75.3505 10.6858 78.59641 7.43994 82.6005 7.43994 z" stroke="url(#SVGID_Stroke1_-7)" stroke-width="4" stroke-linejoin="round" id="path28" xml:space="default" connector-curvature="0" style="fill:none;" />
    <radialGradient cx="21.3309" cy="47.4397" r="669.951" fx="21.3309" fy="47.4397" gradientUnits="userSpaceOnUse" gradientTransform="rotate(180, 21.33093, 47.4397)" id="radialGradient1114" xml:space="default">
      <stop offset="86.9369%" stop-color="#F1F1F1" stop-opacity="0" id="stop1110" xml:space="default" />
      <stop offset="100%" stop-color="#EEEEEE" stop-opacity="0.898039" id="stop1112" xml:space="default" />
    </radialGradient>
    <path d="M12.1006 87.4407 L12.1006 87.4407 C8.09656 87.4407 4.85065 84.1946 4.85065 80.1907 L4.85065 14.6902 C4.85065 10.6863 8.09656 7.44019 12.1006 7.44019 L12.1006 7.44019 C16.1047 7.44019 19.3506 10.6863 19.3506 14.6902 L19.3506 80.1907 C19.3506 84.1946 16.1047 87.4407 12.1006 87.4407 z" stroke="url(#SVGID_Stroke2_-7)" stroke-width="4" stroke-linejoin="round" id="path35" xml:space="default" connector-curvature="0" style="fill:none;" />
    <radialGradient cx="47.3518" cy="21.4207" r="79.1183" fx="47.3518" fy="21.4207" gradientUnits="userSpaceOnUse" gradientTransform="rotate(-90, 47.35181, 21.42065)" id="radialGradient1121" xml:space="default">
      <stop offset="86.9369%" stop-color="#F1F1F1" stop-opacity="0" id="stop1117" xml:space="default" />
      <stop offset="100%" stop-color="#EEEEEE" stop-opacity="0.898039" id="stop1119" xml:space="default" />
    </radialGradient>
    <path d="M7.3504 12.1902 L7.3504 12.1902 C7.3504 8.186279 10.5964 4.94019 14.6004 4.94019 L80.1007 4.94019 C84.105 4.94019 87.3507 8.186279 87.3507 12.1902 L87.3507 12.1902 C87.3507 16.1943 84.105 19.4402 80.1007 19.4402 L14.6004 19.4402 C10.5964 19.4402 7.3504 16.1943 7.3504 12.1902 z" stroke="url(#SVGID_Stroke3_-9)" stroke-width="4" stroke-linejoin="round" id="path42" xml:space="default" connector-curvature="0" style="fill:none;" />
    <radialGradient cx="47.3495" cy="73.4597" r="79.1194" fx="47.3495" fy="73.4597" gradientUnits="userSpaceOnUse" gradientTransform="rotate(90, 47.34949, 73.45972)" id="radialGradient1128" xml:space="default">
      <stop offset="86.9369%" stop-color="#F1F1F1" stop-opacity="0" id="stop1124" xml:space="default" />
      <stop offset="100%" stop-color="#EEEEEE" stop-opacity="0.898039" id="stop1126" xml:space="default" />
    </radialGradient>
    <path d="M87.3509 82.6902 L87.3509 82.6902 C87.3509 86.6943 84.1049 89.9402 80.1009 89.9402 L14.6006 89.9402 C10.5963 89.9402 7.35059 86.6943 7.35059 82.6902 L7.35059 82.6902 C7.35059 78.6863 10.5963 75.4402 14.6006 75.4402 L80.1009 75.4402 C84.1049 75.4402 87.3509 78.6863 87.3509 82.6902 z" stroke="url(#SVGID_Stroke4_-0)" stroke-width="4" stroke-linejoin="round" id="path49" xml:space="default" connector-curvature="0" style="fill:none;" />
  </g>
</svg>