<?xml version="1.0" encoding="utf-8"?>
<!DOCTYPE svg PUBLIC "-//W3C//DTD SVG 1.1//EN" "http://www.w3.org/Graphics/SVG/1.1/DTD/svg11.dtd">
<svg xmlns="http://www.w3.org/2000/svg" xmlns:xlink="http://www.w3.org/1999/xlink" version="1.1" baseProfile="full" width="95" height="95" viewBox="0 0 95.00 95.00" enable-background="new 0 0 95.00 95.00" xml:space="preserve">
	<path fill="#000000" fill-opacity="1" stroke-linejoin="round" stroke="#C0C0CC" stroke-opacity="1" d="M 15.5,2.50009L 79.5,2.50009C 86.6797,2.50009 92.5,8.3204 92.5,15.5001L 92.5,79.4998C 92.5,86.6795 86.6797,92.5001 79.5,92.5001L 15.5,92.5001C 8.32031,92.5001 2.5,86.6795 2.5,79.4998L 2.5,15.5001C 2.5,8.3204 8.32031,2.50009 15.5,2.50009 Z "/>
	<g>
		<path fill="#FF0000" fill-opacity="1" stroke-width="2.5" stroke-linejoin="round" stroke="#FF0000" stroke-opacity="1" d="M 53.2893,47.7301L 52.7624,49.9564L 50.6106,50.1212L 48.3129,49.2562L 45.8415,47.3727L 45.1492,46.763L 44.4693,48.5233L 41.926,50.7867L 38.9135,51.0177L 35.5829,50.2318L 34.0443,48.1998L 33.2915,45.1117L 33.7852,42.9825L 34.5732,41.881L 37.4059,39.5997L 36.7965,38.9884L 35.0291,35.9464L 34.3065,32.982L 34.8056,30.8209L 36.6931,29.554L 39.1015,30.442L 39.1511,30.5196L 40.6026,32.4273L 41.089,34.4227L 40.5899,36.5477L 38.9892,38.8653L 40.4824,40.3148L 45.2976,44.692L 47.2157,36.7701L 48.0413,35.6073L 49.1732,35.5204L 50.5703,36.5763L 51.1344,38.8902L 48.6555,39.0802L 47.9998,36.3902L 47.5956,37.0343L 45.7293,45.1141L 49.1803,47.7611L 51.2767,48.5919L 52.1332,48.5262L 52.7965,47.5965L 52.5754,46.6895L 53.0273,46.6549L 53.2893,47.7301 Z M 40.1782,33.5279L 38.8091,30.7711L 36.8515,30.006L 35.3297,31.0108L 35.4951,34.2071L 36.7177,36.7049L 38.6619,38.6021L 38.7878,38.5069L 40.1907,36.4386L 40.1782,33.5279 Z M 44.723,46.4171L 39.5299,41.8031L 38.1239,40.3153L 36.2566,43.0501L 35.7972,45.0323L 36.4908,47.877L 37.8486,49.6886L 39.9041,50.4774L 41.7202,50.3385L 44.0354,48.2003L 44.723,46.4171 Z "/>
		<path fill="#FFFFFF" fill-opacity="1" stroke-width="2.5" stroke-linejoin="round" d="M 12.8367,75.0777L 13.1046,75.8873L 33.531,72.1422L 33.2477,70.9798L 31.791,70.5782L 29.3594,68.7237L 19.4284,38.3409L 20.43,35.8734L 23.7174,34.9037L 24.1175,34.8319L 23.8496,34.0226L 0.624023,38.1705L 0.891876,38.9798L 1.29178,38.9088L 5.05008,38.6202L 7.49466,40.4723L 17.4256,70.8551L 16.4113,73.3248L 13.2367,75.0069L 12.8367,75.0777 Z "/>
		<path fill="#FFFFFF" fill-opacity="1" stroke-width="2.5" stroke-linejoin="round" d="M 37.6668,70.9337L 46.2221,69.1942L 44.2556,58.1349L 43.2886,58.2428L 43.1048,65.5267L 42.318,66.9798L 40.6477,68.3446L 36.8459,69.7452L 37.6668,70.9337 Z "/>
		<path fill="#FFFFFF" fill-opacity="1" stroke-width="0.2" stroke-linejoin="round" d="M 76.3135,36.6656L 75.8177,37.1961L 73.086,38.3224L 73.7844,40.2562L 77.0579,40.0409L 77.8763,40.2503L 84.0463,45.0108L 77.5966,30.2171L 76.3135,36.6656 Z "/>
		<path fill="#FFFFFF" fill-opacity="1" stroke-width="0.2" stroke-linejoin="round" d="M 68.0201,22.2372L 68.2572,22.8353L 73.9997,22.2481L 75.9547,22.5824L 77.2711,23.2682L 80.6031,28.0255L 81.482,27.7738L 78.227,19.7584L 68.0201,22.2372 Z "/>
		<path fill="#FFFFFF" fill-opacity="1" stroke-width="0.2" stroke-linejoin="round" d="M 63.9568,27.3634L 64.6513,25.0352L 65.1083,24.8211L 64.6272,23.5797L 46.3182,27.7281L 46.6408,28.4681L 47.0033,28.3861L 50.714,28.193L 53.1425,29.8136L 64.9348,57.8365L 64.2288,60.1671L 61.3907,61.3863L 61.0282,61.4681L 61.3508,62.2081L 82.3982,57.4393L 82.0756,56.6993L 81.7131,56.7818L 78.1661,57.0091L 75.7492,55.3861L 63.9568,27.3634 Z "/>
		<path fill="none" stroke-width="4" stroke-linecap="round" stroke-linejoin="round" stroke="#FF0000" stroke-opacity="1" d="M 8.02444,28.9615C 9.07788,28.4146 10.2238,27.9967 11.4462,27.7323L 71.4258,14.7647C 78.7872,13.1729 86.1333,17.7618 87.8336,25.0135L 90.7977,37.6549"/>
		<path fill="none" stroke-width="4" stroke-linecap="round" stroke-linejoin="round" stroke="#FF0000" stroke-opacity="1" d="M 87.7502,66.9059C 86.7351,67.4137 85.6363,67.804 84.468,68.0548L 24.2357,80.9903C 16.8433,82.578 9.46304,77.9852 7.75159,70.732L 4.67267,57.6837"/>
	</g>
	<g>
		<path fill="none" stroke-width="3" stroke-linejoin="round" stroke="#FF0000" stroke-opacity="1" d="M 15.5425,6.09506L 79.2102,6.09506C 84.7331,6.09506 89.2102,10.5724 89.2102,16.0951L 89.2102,80.0831C 89.2102,85.606 84.7331,90.0831 79.2102,90.0831L 15.5425,90.0831C 10.0197,90.0831 5.54251,85.606 5.54251,80.0831L 5.54251,16.0951C 5.54251,10.5724 10.0197,6.09506 15.5425,6.09506 Z "/>
		<line fill="none" stroke-width="3" stroke-linejoin="round" stroke="#FF0000" stroke-opacity="1" x1="8.04214" y1="9.08945" x2="86.7088" y2="87.0894"/>
	</g>
	<g>
		<radialGradient id="SVGID_Fill1_" cx="-16.0266" cy="9.87949" r="118.103" gradientUnits="userSpaceOnUse">
			<stop offset="0" stop-color="#FFFFFF" stop-opacity="0.843137"/>
			<stop offset="0.77027" stop-color="#FFFFFF" stop-opacity="0.32549"/>
			<stop offset="1" stop-color="#FFFFFF" stop-opacity="0"/>
		</radialGradient>
		<path fill="url(#SVGID_Fill1_)" stroke-width="0.2" stroke-linejoin="round" d="M 16.3506,3.44052L 80.3506,3.44052C 86.4258,3.44052 91.3506,8.36557 91.3506,14.4405L 91.3506,77.4403C 91.3506,83.5155 86.4258,88.4403 80.3506,88.4403L 16.3506,88.4403C 10.2755,88.4403 5.35059,83.5155 5.35059,77.4403L 5.35059,14.4405C 5.35059,8.36557 10.2755,3.44052 16.3506,3.44052 Z "/>
		<radialGradient id="SVGID_Stroke1_" cx="73.3702" cy="47.441" r="669.951" gradientUnits="userSpaceOnUse">
			<stop offset="0.869369" stop-color="#F1F1F1" stop-opacity="0"/>
			<stop offset="1" stop-color="#EEEEEE" stop-opacity="0.898039"/>
		</radialGradient>
		<path fill="none" stroke-width="4" stroke-linejoin="round" stroke="url(#SVGID_Stroke1_)" d="M 82.6006,7.44003L 82.6006,7.44003C 86.6046,7.44003 89.8505,10.6861 89.8505,14.69L 89.8505,80.1905C 89.8505,84.1944 86.6046,87.4405 82.6006,87.4405L 82.6006,87.4405C 78.5965,87.4405 75.3505,84.1944 75.3505,80.1905L 75.3505,14.69C 75.3505,10.6861 78.5965,7.44003 82.6006,7.44003 Z "/>
		<radialGradient id="SVGID_Stroke2_" cx="21.331" cy="47.4398" r="669.951" gradientUnits="userSpaceOnUse" gradientTransform="rotate(180.000000 21.330963 47.439789)">
			<stop offset="0.869369" stop-color="#F1F1F1" stop-opacity="0"/>
			<stop offset="1" stop-color="#EEEEEE" stop-opacity="0.898039"/>
		</radialGradient>
		<path fill="none" stroke-width="4" stroke-linejoin="round" stroke="url(#SVGID_Stroke2_)" d="M 12.1006,87.4408L 12.1006,87.4408C 8.09659,87.4408 4.85065,84.1949 4.85065,80.191L 4.85065,14.6905C 4.85065,10.6864 8.09659,7.44052 12.1006,7.44052L 12.1006,7.44052C 16.1047,7.44052 19.3506,10.6864 19.3506,14.6905L 19.3506,80.191C 19.3506,84.1949 16.1047,87.4408 12.1006,87.4408 Z "/>
		<radialGradient id="SVGID_Stroke3_" cx="47.3519" cy="21.421" r="79.1195" gradientUnits="userSpaceOnUse" gradientTransform="rotate(-90.000000 47.351868 21.420990)">
			<stop offset="0.869369" stop-color="#F1F1F1" stop-opacity="0"/>
			<stop offset="1" stop-color="#EEEEEE" stop-opacity="0.898039"/>
		</radialGradient>
		<path fill="none" stroke-width="4" stroke-linejoin="round" stroke="url(#SVGID_Stroke3_)" d="M 7.35052,12.1905L 7.35052,12.1905C 7.35052,8.18637 10.5965,4.94052 14.6005,4.94052L 80.1009,4.94052C 84.1051,4.94052 87.3509,8.18637 87.3509,12.1905L 87.3509,12.1905C 87.3509,16.1944 84.1051,19.4405 80.1009,19.4405L 14.6005,19.4405C 10.5965,19.4405 7.35052,16.1944 7.35052,12.1905 Z "/>
		<radialGradient id="SVGID_Stroke4_" cx="47.3492" cy="73.4601" r="79.1183" gradientUnits="userSpaceOnUse" gradientTransform="rotate(90.000000 47.349182 73.460052)">
			<stop offset="0.869369" stop-color="#F1F1F1" stop-opacity="0"/>
			<stop offset="1" stop-color="#EEEEEE" stop-opacity="0.898039"/>
		</radialGradient>
		<path fill="none" stroke-width="4" stroke-linejoin="round" stroke="url(#SVGID_Stroke4_)" d="M 87.3506,82.6905L 87.3506,82.6905C 87.3506,86.6944 84.1046,89.9405 80.1005,89.9405L 14.6002,89.9405C 10.596,89.9405 7.35022,86.6944 7.35022,82.6905L 7.35022,82.6905C 7.35022,78.6864 10.596,75.4405 14.6002,75.4405L 80.1005,75.4405C 84.1046,75.4405 87.3506,78.6864 87.3506,82.6905 Z "/>
	</g>
</svg>
