<?xml version="1.0" encoding="utf-8"?>
<!DOCTYPE svg PUBLIC "-//W3C//DTD SVG 1.1//EN" "http://www.w3.org/Graphics/SVG/1.1/DTD/svg11.dtd">
<svg xmlns="http://www.w3.org/2000/svg" xmlns:xlink="http://www.w3.org/1999/xlink" version="1.1" baseProfile="full" width="95" height="95" viewBox="0 0 95.00 95.00" enable-background="new 0 0 95.00 95.00" xml:space="preserve">
	<path fill="#000000" fill-opacity="1" stroke-linejoin="round" stroke="#C0C0CC" stroke-opacity="1" d="M 15.5,2.50009L 79.5,2.50009C 86.6797,2.50009 92.5,8.3204 92.5,15.5001L 92.5,79.4998C 92.5,86.6795 86.6797,92.5001 79.5,92.5001L 15.5,92.5001C 8.32031,92.5001 2.50003,86.6795 2.50003,79.4998L 2.50003,15.5001C 2.50003,8.3204 8.32031,2.50009 15.5,2.50009 Z "/>
	<path fill="#FFFFFF" fill-opacity="1" stroke-linejoin="round" d="M 60.0346,46.0633L 56.8401,44.556L 56.1608,42.1573L 49.2917,40.8748L 48.8638,54.0367C 49.2229,53.8687 49.5505,53.6339 49.8286,53.3473L 56.3211,46.7984L 73.7509,55.044C 74.0745,55.1861 74.3513,55.4012 74.5659,55.6656C 79.5355,56.9874 82.6714,61.4898 81.6972,66.3199C 80.8551,70.4952 77.1816,73.6515 72.8142,74.3936C 70.8308,78.6344 66.0631,81.3485 61.175,80.6949C 55.4346,79.9273 51.6836,74.8263 52.7967,69.308L 53.1209,68.0929L 36.6733,65.8936C 35.4757,66.5077 34.1735,66.9054 32.8276,67.0411C 31.3448,72.3243 26.0241,75.9361 20.5426,75.2032C 14.7984,74.4352 11.0788,69.1798 12.2299,63.4723C 13.2308,58.5091 17.6068,54.8246 22.5185,54.4706C 22.9616,52.7994 23.7713,51.2867 24.838,50.0147L 19.6909,47.4791L 21.8478,45.2C 22.6056,44.4059 23.7314,43.9644 24.871,44.1168L 25.5656,44.2782L 30.1358,46.4278C 31.49,45.9942 32.9299,45.8253 34.3829,45.9754C 35.5264,41.9859 36.7816,36.7223 37.7947,34.7682C 39.4149,32.7264 41.2133,32.2833 43.0972,32.6041L 53.8427,36.2625L 54.7305,36.3812C 55.5422,36.4898 56.2514,36.8084 56.8171,37.2752L 58.0597,37.6983C 58.3737,38.8167 58.6751,40.0611 58.689,41.3228L 60.0346,46.0633 Z M 61.7403,60.7867C 62.6651,59.1422 64.0686,57.776 65.7533,56.8155C 60.8131,57.5103 56.4216,60.838 54.4425,65.4596C 56.1189,63.0372 58.7758,61.3263 61.7403,60.7867 Z M 65.8057,73.398C 66.4453,72.8326 66.9095,72.0782 67.0829,71.2186C 67.5016,69.1424 66.1053,67.2425 63.9464,66.9539C 62.8438,66.8065 61.7584,67.1185 60.9089,67.7408C 60.1139,68.3231 59.5255,69.1773 59.3231,70.181C 58.909,72.2337 60.3028,74.1502 62.4373,74.4356C 63.6922,74.6036 64.9179,74.1827 65.8057,73.398 Z M 75.1433,65.4444C 75.5428,63.4635 74.1147,61.6383 71.9354,61.3468C 70.8807,61.2059 69.8461,61.4591 69.0178,61.9867C 71.2536,63.2782 72.8529,65.37 73.4794,67.8143C 74.3242,67.2625 74.9451,66.4273 75.1433,65.4444 Z M 32.4984,60.4547C 33.5127,60.4017 34.4772,59.9469 35.203,59.2252C 34.4038,56.7804 32.8615,54.6583 30.7835,53.1456C 29.7835,53.7501 29.0189,54.7711 28.7714,55.9986C 27.593,55.2513 26.2226,54.7391 24.7107,54.537C 26.2226,54.7391 27.593,55.2513 28.7711,55.9998C 30.458,57.0719 31.7504,58.6288 32.4984,60.4547 Z M 26.493,65.5509L 26.5286,65.3912C 26.9597,63.2535 25.5613,61.2948 23.4281,61.0094L 22.8153,60.9747C 20.8907,61.0118 19.149,62.4181 18.759,64.3521C 18.328,66.4889 19.7157,68.441 21.8711,68.7291C 23.9507,69.0072 25.9923,67.6012 26.493,65.5509 Z "/>
	<path fill="#FFFFFF" fill-opacity="1" stroke-linejoin="round" d="M 65.3515,48.5145L 66.8525,41.0721L 66.1588,40.9793C 64.0807,40.7015 62.071,42.1466 61.6568,44.2C 61.2412,46.2603 62.579,48.1468 64.6571,48.4247L 65.3509,48.5174"/>
	<path fill="#FFFFFF" fill-opacity="1" fill-rule="evenodd" stroke-linejoin="round" d="M 50.0288,34.0006L 50.0941,30.1319L 45.9335,29.443L 46.0078,26.3731L 50.2499,27.211C 50.0034,24.4378 48.3379,22.3963 44.576,21.7262C 42.2013,21.8419 39.7121,21.9151 38.1868,26.4815C 37.7281,28.296 37.9417,30.1485 38.9958,31.765C 42.5803,29.8394 45.1936,31.2767 47.5533,33.5909"/>
	<g>
		<radialGradient id="SVGID_Fill1_" cx="-16.0266" cy="9.87949" r="118.103" gradientUnits="userSpaceOnUse">
			<stop offset="0" stop-color="#FFFFFF" stop-opacity="0.843137"/>
			<stop offset="0.77027" stop-color="#FFFFFF" stop-opacity="0.32549"/>
			<stop offset="1" stop-color="#FFFFFF" stop-opacity="0"/>
		</radialGradient>
		<path fill="url(#SVGID_Fill1_)" stroke-width="0.2" stroke-linejoin="round" d="M 16.3506,3.44052L 80.3506,3.44052C 86.4258,3.44052 91.3506,8.36557 91.3506,14.4405L 91.3506,77.4403C 91.3506,83.5155 86.4258,88.4403 80.3506,88.4403L 16.3506,88.4403C 10.2755,88.4403 5.35059,83.5155 5.35059,77.4403L 5.35059,14.4405C 5.35059,8.36557 10.2755,3.44052 16.3506,3.44052 Z "/>
		<radialGradient id="SVGID_Stroke1_" cx="73.3702" cy="47.441" r="669.951" gradientUnits="userSpaceOnUse">
			<stop offset="0.869369" stop-color="#F1F1F1" stop-opacity="0"/>
			<stop offset="1" stop-color="#EEEEEE" stop-opacity="0.898039"/>
		</radialGradient>
		<path fill="none" stroke-width="4" stroke-linejoin="round" stroke="url(#SVGID_Stroke1_)" d="M 82.6006,7.44003L 82.6006,7.44003C 86.6046,7.44003 89.8505,10.6861 89.8505,14.69L 89.8505,80.1905C 89.8505,84.1944 86.6046,87.4405 82.6006,87.4405L 82.6006,87.4405C 78.5965,87.4405 75.3506,84.1944 75.3506,80.1905L 75.3506,14.69C 75.3506,10.6861 78.5965,7.44003 82.6006,7.44003 Z "/>
		<radialGradient id="SVGID_Stroke2_" cx="21.331" cy="47.4398" r="669.951" gradientUnits="userSpaceOnUse" gradientTransform="rotate(180.000000 21.330963 47.439789)">
			<stop offset="0.869369" stop-color="#F1F1F1" stop-opacity="0"/>
			<stop offset="1" stop-color="#EEEEEE" stop-opacity="0.898039"/>
		</radialGradient>
		<path fill="none" stroke-width="4" stroke-linejoin="round" stroke="url(#SVGID_Stroke2_)" d="M 12.1006,87.4408L 12.1006,87.4408C 8.09659,87.4408 4.85065,84.1949 4.85065,80.191L 4.85065,14.6905C 4.85065,10.6864 8.09659,7.44052 12.1006,7.44052L 12.1006,7.44052C 16.1047,7.44052 19.3506,10.6864 19.3506,14.6905L 19.3506,80.191C 19.3506,84.1949 16.1047,87.4408 12.1006,87.4408 Z "/>
		<radialGradient id="SVGID_Stroke3_" cx="47.3519" cy="21.421" r="79.1194" gradientUnits="userSpaceOnUse" gradientTransform="rotate(-90.000000 47.351933 21.420990)">
			<stop offset="0.869369" stop-color="#F1F1F1" stop-opacity="0"/>
			<stop offset="1" stop-color="#EEEEEE" stop-opacity="0.898039"/>
		</radialGradient>
		<path fill="none" stroke-width="4" stroke-linejoin="round" stroke="url(#SVGID_Stroke3_)" d="M 7.35062,12.1905L 7.35062,12.1905C 7.35062,8.18637 10.5966,4.94052 14.6006,4.94052L 80.101,4.94052C 84.1051,4.94052 87.3509,8.18637 87.3509,12.1905L 87.3509,12.1905C 87.3509,16.1944 84.1051,19.4405 80.101,19.4405L 14.6006,19.4405C 10.5966,19.4405 7.35062,16.1944 7.35062,12.1905 Z "/>
		<radialGradient id="SVGID_Stroke4_" cx="47.3494" cy="73.4601" r="79.1183" gradientUnits="userSpaceOnUse" gradientTransform="rotate(90.000000 47.349396 73.460052)">
			<stop offset="0.869369" stop-color="#F1F1F1" stop-opacity="0"/>
			<stop offset="1" stop-color="#EEEEEE" stop-opacity="0.898039"/>
		</radialGradient>
		<path fill="none" stroke-width="4" stroke-linejoin="round" stroke="url(#SVGID_Stroke4_)" d="M 87.3507,82.6905L 87.3507,82.6905C 87.3507,86.6944 84.1048,89.9405 80.1007,89.9405L 14.6004,89.9405C 10.5962,89.9405 7.3504,86.6944 7.3504,82.6905L 7.3504,82.6905C 7.3504,78.6864 10.5962,75.4405 14.6004,75.4405L 80.1007,75.4405C 84.1048,75.4405 87.3507,78.6864 87.3507,82.6905 Z "/>
	</g>
</svg>
