<?xml version="1.0" encoding="utf-8"?>
<!DOCTYPE svg PUBLIC "-//W3C//DTD SVG 1.1//EN" "http://www.w3.org/Graphics/SVG/1.1/DTD/svg11.dtd">
<svg xmlns="http://www.w3.org/2000/svg" xmlns:xlink="http://www.w3.org/1999/xlink" version="1.1" baseProfile="full" width="95" height="95" viewBox="0 0 95.00 95.00" enable-background="new 0 0 95.00 95.00" xml:space="preserve">
	<path fill="#000000" fill-opacity="1" stroke-linejoin="round" stroke="#C0C0CC" stroke-opacity="1" d="M 15.5,2.5L 79.5,2.5C 86.6797,2.5 92.5,8.32031 92.5,15.5L 92.5,79.4998C 92.5,86.6794 86.6797,92.5 79.5,92.5L 15.5,92.5C 8.3203,92.5 2.5,86.6794 2.5,79.4998L 2.5,15.5C 2.5,8.32031 8.3203,2.5 15.5,2.5 Z "/>
	<path fill="#FFFFFF" fill-opacity="1" stroke-linejoin="round" d="M 34.3101,46.7737L 26.9072,52.6885L 17.4411,59.9973C 14.7375,62.1301 12.5252,59.5583 12.5252,59.5583C 10.4227,56.7839 12.8403,54.9612 12.8403,54.9612L 24.6396,45.6665C 24.6396,45.6665 25.929,44.312 29.3248,45.2869"/>
	<path fill="#FFFFFF" fill-opacity="1" stroke-linejoin="round" d="M 49.7646,32.3967C 46.0604,32.3967 43.0716,29.3855 43.0716,25.6553C 43.0716,21.9214 46.0604,18.8848 49.7646,18.8848C 53.4717,18.8848 56.4792,21.9214 56.4792,25.6553C 56.4792,29.3855 53.4717,32.3967 49.7646,32.3967 Z "/>
	<path fill="#FFFFFF" fill-opacity="1" stroke-linejoin="round" d="M 31.5445,71.863C 31.5445,69.8672 29.94,68.251 27.9584,68.251C 25.9769,68.251 24.3723,69.8672 24.3723,71.863C 24.3723,73.8599 25.9769,75.4758 27.9584,75.4758C 29.94,75.4797 31.5445,73.8635 31.5445,71.863 Z M 64.7554,71.863C 64.7554,69.8672 63.1508,68.251 61.1693,68.251C 59.199,68.251 57.5907,69.8672 57.5907,71.863C 57.5907,73.8599 59.199,75.4758 61.1693,75.4758C 63.1508,75.4797 64.7554,73.8635 64.7554,71.863 Z M 23.5808,64.761C 23.1194,63.48 22.9253,62.0857 23.2366,60.6765C 23.6136,59.0974 24.4745,57.7617 25.6177,56.7839L 75.2361,17.001C 76.4449,16.1084 77.9285,15.5623 79.5443,15.5623C 83.4971,15.5623 86.6875,18.7759 86.6875,22.7683C 86.6875,25.0891 85.6362,27.1521 83.9697,28.4802C 83.3799,29.0007 82.5115,28.9373 82.0135,28.3328C 81.4893,27.7388 81.5699,26.8196 82.1711,26.3181C 83.2401,25.5286 83.9144,24.2297 83.9144,22.7683C 83.9144,20.3372 81.9507,18.3591 79.5443,18.3591C 78.5184,18.3591 77.6172,18.7021 76.8772,19.2595L 62.4587,30.8303L 54.9161,52.8169L 59.4878,63.7681C 60.0224,63.6462 60.5982,63.5432 61.1693,63.5432C 65.741,63.5432 69.4368,67.2771 69.4368,71.863C 69.4368,76.4829 65.741,80.1836 61.1693,80.1836C 56.6126,80.1836 52.9158,76.4792 52.9158,71.863C 52.9158,68.8933 54.4547,66.2732 56.7992,64.8269L 53.5057,56.8945L 53.2271,57.739C 52.2237,60.8494 48.8861,62.5505 45.798,61.521L 30.482,56.4336L 27.497,58.8384C 26.7862,59.4221 26.2516,60.259 26.0134,61.2339C 25.8081,62.134 25.9544,62.9973 26.2516,63.7681C 26.7862,63.6653 27.376,63.5432 27.9584,63.5432C 32.5114,63.5432 36.2081,67.2771 36.2081,71.8669C 36.2081,76.4829 32.5114,80.1875 27.9584,80.1875C 23.4017,80.1875 19.6871,76.4792 19.6871,71.8669C 19.6909,68.8564 21.1998,66.2183 23.5808,64.761 Z "/>
	<g>
		<radialGradient id="SVGID_Fill1_" cx="-16.0266" cy="9.87964" r="118.102" gradientUnits="userSpaceOnUse">
			<stop offset="0" stop-color="#FFFFFF" stop-opacity="0.843137"/>
			<stop offset="0.77027" stop-color="#FFFFFF" stop-opacity="0.32549"/>
			<stop offset="1" stop-color="#FFFFFF" stop-opacity="0"/>
		</radialGradient>
		<path fill="url(#SVGID_Fill1_)" stroke-width="0.2" stroke-linejoin="round" d="M 16.3506,3.44067L 80.3506,3.44067C 86.4257,3.44067 91.3506,8.36548 91.3506,14.4407L 91.3506,77.4402C 91.3506,83.5154 86.4257,88.4402 80.3506,88.4402L 16.3506,88.4402C 10.2754,88.4402 5.35058,83.5154 5.35058,77.4402L 5.35058,14.4407C 5.35058,8.36548 10.2754,3.44067 16.3506,3.44067 Z "/>
		<radialGradient id="SVGID_Stroke1_" cx="73.3702" cy="47.4412" r="669.951" gradientUnits="userSpaceOnUse">
			<stop offset="0.869369" stop-color="#F1F1F1" stop-opacity="0"/>
			<stop offset="1" stop-color="#EEEEEE" stop-opacity="0.898039"/>
		</radialGradient>
		<path fill="none" stroke-width="4" stroke-linejoin="round" stroke="url(#SVGID_Stroke1_)" d="M 82.6005,7.44019L 82.6005,7.44019C 86.6046,7.44019 89.8505,10.686 89.8505,14.6899L 89.8505,80.1904C 89.8505,84.1946 86.6046,87.4404 82.6005,87.4404L 82.6005,87.4404C 78.5965,87.4404 75.3505,84.1946 75.3505,80.1904L 75.3505,14.6899C 75.3505,10.686 78.5965,7.44019 82.6005,7.44019 Z "/>
		<radialGradient id="SVGID_Stroke2_" cx="21.331" cy="47.4397" r="669.951" gradientUnits="userSpaceOnUse" gradientTransform="rotate(180.000000 21.330967 47.439697)">
			<stop offset="0.869369" stop-color="#F1F1F1" stop-opacity="0"/>
			<stop offset="1" stop-color="#EEEEEE" stop-opacity="0.898039"/>
		</radialGradient>
		<path fill="none" stroke-width="4" stroke-linejoin="round" stroke="url(#SVGID_Stroke2_)" d="M 12.1006,87.4407L 12.1006,87.4407C 8.09657,87.4407 4.85064,84.1948 4.85064,80.1909L 4.85064,14.6904C 4.85064,10.6863 8.09657,7.44043 12.1006,7.44043L 12.1006,7.44043C 16.1047,7.44043 19.3506,10.6863 19.3506,14.6904L 19.3506,80.1909C 19.3506,84.1948 16.1047,87.4407 12.1006,87.4407 Z "/>
		<radialGradient id="SVGID_Stroke3_" cx="47.3518" cy="21.4209" r="79.1194" gradientUnits="userSpaceOnUse" gradientTransform="rotate(-90.000000 47.351765 21.420898)">
			<stop offset="0.869369" stop-color="#F1F1F1" stop-opacity="0"/>
			<stop offset="1" stop-color="#EEEEEE" stop-opacity="0.898039"/>
		</radialGradient>
		<path fill="none" stroke-width="4" stroke-linejoin="round" stroke="url(#SVGID_Stroke3_)" d="M 7.35043,12.1904L 7.35043,12.1904C 7.35043,8.18628 10.5964,4.94043 14.6004,4.94043L 80.1008,4.94043C 84.1049,4.94043 87.3508,8.18628 87.3508,12.1904L 87.3508,12.1904C 87.3508,16.1946 84.1049,19.4404 80.1008,19.4404L 14.6004,19.4404C 10.5964,19.4404 7.35043,16.1946 7.35043,12.1904 Z "/>
		<radialGradient id="SVGID_Stroke4_" cx="47.3492" cy="73.46" r="79.1194" gradientUnits="userSpaceOnUse" gradientTransform="rotate(90.000000 47.349224 73.459961)">
			<stop offset="0.869369" stop-color="#F1F1F1" stop-opacity="0"/>
			<stop offset="1" stop-color="#EEEEEE" stop-opacity="0.898039"/>
		</radialGradient>
		<path fill="none" stroke-width="4" stroke-linejoin="round" stroke="url(#SVGID_Stroke4_)" d="M 87.3506,82.6904L 87.3506,82.6904C 87.3506,86.6946 84.1046,89.9404 80.1006,89.9404L 14.6002,89.9404C 10.5961,89.9404 7.35023,86.6946 7.35023,82.6904L 7.35023,82.6904C 7.35023,78.6863 10.5961,75.4404 14.6002,75.4404L 80.1006,75.4404C 84.1046,75.4404 87.3506,78.6863 87.3506,82.6904 Z "/>
	</g>
</svg>
