<?xml version="1.0" encoding="utf-8"?>
<!DOCTYPE svg PUBLIC "-//W3C//DTD SVG 1.1//EN" "http://www.w3.org/Graphics/SVG/1.1/DTD/svg11.dtd">
<svg xmlns="http://www.w3.org/2000/svg" xmlns:xlink="http://www.w3.org/1999/xlink" version="1.1" baseProfile="full" width="95" height="94.9998" viewBox="0 0 95.00 95.00" enable-background="new 0 0 95.00 95.00" xml:space="preserve">
	<path fill="#000000" fill-opacity="1" stroke-linejoin="round" stroke="#C0C0CC" stroke-opacity="1" d="M 15.5,2.49985L 79.5,2.49985C 86.6797,2.49985 92.5,8.32016 92.5,15.4998L 92.5,79.4996C 92.5,86.6793 86.6797,92.4998 79.5,92.4998L 15.5,92.4998C 8.32031,92.4998 2.50002,86.6793 2.50002,79.4996L 2.50002,15.4998C 2.50002,8.32016 8.32031,2.49985 15.5,2.49985 Z "/>
	<path fill="#FFFFFF" fill-opacity="1" stroke-linejoin="round" d="M 21.5825,30.8397C 22.2692,30.9984 23.1095,31.2303 23.4319,31.3397L 24.0347,31.5477L 24.6236,31.1688C 25.0996,30.8636 25.3382,30.7904 25.9405,30.7904C 26.8936,30.7904 27.1737,31.0101 27.0757,31.6942C 27.034,31.9752 26.9637,32.2804 26.9212,32.39C 26.8511,32.5365 26.9916,32.6222 27.5658,32.7686C 29.5408,33.3058 31.9924,33.3792 34.8931,32.9764C 37.9749,32.5614 40.7071,32.5365 44.0699,32.9151C 48.0631,33.3426 50.3463,33.4764 54.1713,33.4764C 57.7437,33.4764 59.9431,33.3543 63.5441,32.9764C 67.1309,32.5977 69.1485,32.5003 70.9558,32.6349C 73.3794,32.8055 75.2707,33.3185 76.3777,34.1241C 76.6023,34.2828 77.134,34.5516 77.5547,34.7225C 78.5763,35.1246 79.0941,35.5277 79.557,36.2718C 80.2854,37.4195 80.3558,38.0792 80.3558,43.5606L 80.3558,48.578L 80.6922,48.8463C 81.2246,49.2738 81.6449,50.2865 81.7292,51.2391C 81.7853,52.0819 81.435,54.3155 81.2106,54.5113C 81.0146,54.682 79.6833,53.4002 79.2073,52.5577C 78.8152,51.8619 78.7313,51.5687 78.6888,50.7142C 78.6464,49.8104 78.6888,49.6278 79.0252,49.0291L 79.4034,48.3573L 79.333,44.243C 79.2631,40.1288 79.0948,38.6151 78.6602,38.1632C 78.4367,37.9315 78.2539,38.0658 78.2539,38.4686C 78.2539,38.6642 78.0992,39.4698 77.9036,40.2874C 77.3147,42.839 77.0908,44.536 77.0908,46.6602C 77.0908,49.4684 77.4132,50.9698 78.4496,53.0697C 78.6456,53.4723 78.8138,53.912 78.8138,54.0584C 78.8138,54.1932 78.6177,54.7667 78.3935,55.316C 77.4829,57.4891 76.4041,61.2249 76.1659,63.0809C 75.9273,64.8382 75.8855,64.9366 75.2971,65.5345C 74.7507,66.0836 74.7507,66.0958 74.7646,67.0728C 74.7782,67.61 74.7221,68.0982 74.6525,68.1593C 74.5826,68.2206 73.3916,68.2569 71.9064,68.2447L 69.3006,68.2083L 69.8609,67.171C 70.323,66.3043 70.6169,65.974 71.6125,65.1322C 72.2706,64.5706 72.887,63.9359 72.9998,63.7039C 73.2798,63.1178 73.5183,61.2625 73.5462,59.4803C 73.5602,58.1126 73.5323,57.8932 73.2234,57.307L 72.887,56.66L 71.6964,58.4056C 69.8755,61.0912 69.0481,62.5443 68.9364,63.2894C 68.8107,64.1808 68.39,64.9007 67.7311,65.3529C 66.9602,65.89 66.7088,66.3419 66.8205,67.0499C 66.8769,67.3673 66.8484,67.7699 66.7641,67.953L 66.6238,68.2704L 64.0319,68.2704C 62.2525,68.2704 61.4401,68.2332 61.4401,68.1358C 61.4401,68.0623 61.734,67.5133 62.0982,66.9027C 62.7563,65.7796 62.9671,65.596 64.3962,64.8517C 64.8868,64.5829 65.0682,64.3639 65.7135,63.2037C 66.988,60.9081 67.7451,58.3692 67.7451,56.4159C 67.7451,55.671 67.7172,55.5982 67.4226,55.525C 66.7498,55.3663 66.526,55.4395 66.4003,55.8426C 66.1617,56.5382 65.2789,56.3797 65.3914,55.6717C 65.4479,55.3421 65.4193,55.3177 64.9154,55.2809C 64.8175,55.2689 64.7055,55.4034 64.6633,55.5621C 64.565,55.9156 64.2287,56.1234 63.9069,56.0262C 63.7527,55.9769 63.6823,55.806 63.6823,55.4764L 63.6823,55.0125L 62.7157,54.7445C 62.1832,54.5855 61.3843,54.3045 60.9501,54.1217L 60.1513,53.7672L 59.3528,54.0116C 56.7046,54.805 53.6366,55.3177 50.8628,55.4154C 49.0415,55.4764 48.4112,55.4395 46.0993,55.1468C 43.2136,54.7806 41.8687,54.7806 40.6771,55.1468L 40.0189,55.3421L 39.9351,56.16C 39.8932,56.6117 39.7529,57.2833 39.6408,57.6493C 39.5151,58.0155 39.2905,58.6988 39.1362,59.1756C 38.9262,59.847 38.8423,60.5794 38.772,62.557C 38.6742,65.0594 38.6742,65.0843 38.3098,65.4261C 37.707,65.9874 37.5813,66.2806 37.6931,66.9886C 37.7349,67.3424 37.7349,67.7699 37.6796,67.953L 37.5953,68.2704L 35.2281,68.2704C 33.4208,68.2704 32.8598,68.2332 32.8598,68.1117C 32.8598,67.733 33.7425,66.4144 34.5414,65.5848C 35.5359,64.547 35.9427,63.912 35.9427,63.4237C 35.9427,62.7276 34.9056,58.2474 34.7935,58.4305C 34.7235,58.5279 34.4856,59.2364 34.2471,59.993C 33.9246,61.0426 33.7989,61.7757 33.7286,63.045L 33.6168,64.7301L 33.1123,65.182C 32.3838,65.8539 32.2995,66.0606 32.2995,67.2206L 32.2995,68.2708L 27.284,68.2708L 27.5504,67.6483C 27.9985,66.6107 28.3767,66.0614 29.2881,65.036C 29.778,64.4989 30.3943,63.6932 30.6753,63.2535C 31.1375,62.5213 31.18,62.3626 31.18,61.4832C 31.18,60.9579 31.0257,59.493 30.8297,58.2235L 30.4793,55.9283L 29.7369,55.2935C 28.8542,54.5365 28.42,53.8285 27.1868,51.1795C 26.1081,48.8353 25.3517,47.5653 24.0207,45.869C 22.6195,44.0741 21.5546,42.9996 21.1765,42.9996C 21.0082,42.9996 20.3076,43.1583 19.6356,43.3661C 18.3185,43.745 16.0067,44.2206 15.4189,44.2206C 14.8725,44.2206 14.2558,43.9037 13.3591,43.1463C 12.3507,42.3158 12.3221,42.0841 13.0931,40.5946C 13.6395,39.5321 13.8077,38.9344 14.0876,36.8343C 14.158,36.224 14.2697,35.6134 14.3115,35.4669C 14.3954,35.223 14.3394,35.1986 13.5406,35.1124C 12.6024,35.0272 11.5376,34.5018 10.5145,33.6351C 9.89772,33.1224 9.91173,32.7928 10.5566,32.4142C 11.6779,31.7674 13.121,31.7794 14.7875,32.4513L 15.5439,32.7564L 15.8238,32.4149C 17.1834,30.7293 18.9906,30.2413 21.5825,30.8397 Z "/>
	<g>
		<radialGradient id="SVGID_Fill1_" cx="-16.0266" cy="9.87924" r="118.103" gradientUnits="userSpaceOnUse">
			<stop offset="0" stop-color="#FFFFFF" stop-opacity="0.843137"/>
			<stop offset="0.77027" stop-color="#FFFFFF" stop-opacity="0.32549"/>
			<stop offset="1" stop-color="#FFFFFF" stop-opacity="0"/>
		</radialGradient>
		<path fill="url(#SVGID_Fill1_)" stroke-width="0.2" stroke-linejoin="round" d="M 16.3506,3.44028L 80.3506,3.44028C 86.4258,3.44028 91.3506,8.36533 91.3506,14.4403L 91.3506,77.44C 91.3506,83.5152 86.4258,88.44 80.3506,88.44L 16.3506,88.44C 10.2755,88.44 5.35059,83.5152 5.35059,77.44L 5.35059,14.4403C 5.35059,8.36533 10.2755,3.44028 16.3506,3.44028 Z "/>
		<radialGradient id="SVGID_Stroke1_" cx="73.3702" cy="47.4408" r="669.951" gradientUnits="userSpaceOnUse">
			<stop offset="0.869369" stop-color="#F1F1F1" stop-opacity="0"/>
			<stop offset="1" stop-color="#EEEEEE" stop-opacity="0.898039"/>
		</radialGradient>
		<path fill="none" stroke-width="4" stroke-linejoin="round" stroke="url(#SVGID_Stroke1_)" d="M 82.6005,7.43979L 82.6005,7.43979C 86.6046,7.43979 89.8505,10.6859 89.8505,14.6898L 89.8505,80.1903C 89.8505,84.1942 86.6046,87.4403 82.6005,87.4403L 82.6005,87.4403C 78.5965,87.4403 75.3506,84.1942 75.3506,80.1903L 75.3506,14.6898C 75.3506,10.6859 78.5965,7.43979 82.6005,7.43979 Z "/>
		<radialGradient id="SVGID_Stroke2_" cx="21.331" cy="47.4395" r="669.951" gradientUnits="userSpaceOnUse" gradientTransform="rotate(180.000000 21.330978 47.439545)">
			<stop offset="0.869369" stop-color="#F1F1F1" stop-opacity="0"/>
			<stop offset="1" stop-color="#EEEEEE" stop-opacity="0.898039"/>
		</radialGradient>
		<path fill="none" stroke-width="4" stroke-linejoin="round" stroke="url(#SVGID_Stroke2_)" d="M 12.1006,87.4405L 12.1006,87.4405C 8.09657,87.4405 4.85065,84.1947 4.85065,80.1908L 4.85065,14.6903C 4.85065,10.6861 8.09657,7.44028 12.1006,7.44028L 12.1006,7.44028C 16.1047,7.44028 19.3506,10.6861 19.3506,14.6903L 19.3506,80.1908C 19.3506,84.1947 16.1047,87.4405 12.1006,87.4405 Z "/>
		<radialGradient id="SVGID_Stroke3_" cx="47.3519" cy="21.4207" r="79.1194" gradientUnits="userSpaceOnUse" gradientTransform="rotate(-90.000000 47.351898 21.420746)">
			<stop offset="0.869369" stop-color="#F1F1F1" stop-opacity="0"/>
			<stop offset="1" stop-color="#EEEEEE" stop-opacity="0.898039"/>
		</radialGradient>
		<path fill="none" stroke-width="4" stroke-linejoin="round" stroke="url(#SVGID_Stroke3_)" d="M 7.35057,12.1903L 7.35057,12.1903C 7.35057,8.18613 10.5965,4.94028 14.6005,4.94028L 80.1009,4.94028C 84.1051,4.94028 87.3509,8.18613 87.3509,12.1903L 87.3509,12.1903C 87.3509,16.1942 84.1051,19.4403 80.1009,19.4403L 14.6005,19.4403C 10.5965,19.4403 7.35057,16.1942 7.35057,12.1903 Z "/>
		<radialGradient id="SVGID_Stroke4_" cx="47.3492" cy="73.4598" r="79.1183" gradientUnits="userSpaceOnUse" gradientTransform="rotate(90.000000 47.349182 73.459808)">
			<stop offset="0.869369" stop-color="#F1F1F1" stop-opacity="0"/>
			<stop offset="1" stop-color="#EEEEEE" stop-opacity="0.898039"/>
		</radialGradient>
		<path fill="none" stroke-width="4" stroke-linejoin="round" stroke="url(#SVGID_Stroke4_)" d="M 87.3505,82.6903L 87.3505,82.6903C 87.3505,86.6942 84.1046,89.9403 80.1006,89.9403L 14.6002,89.9403C 10.596,89.9403 7.3502,86.6942 7.3502,82.6903L 7.3502,82.6903C 7.3502,78.6861 10.596,75.4403 14.6002,75.4403L 80.1006,75.4403C 84.1046,75.4403 87.3505,78.6861 87.3505,82.6903 Z "/>
	</g>
</svg>
