<?xml version="1.0" encoding="utf-8"?>
<!DOCTYPE svg PUBLIC "-//W3C//DTD SVG 1.1//EN" "http://www.w3.org/Graphics/SVG/1.1/DTD/svg11.dtd">
<svg xmlns="http://www.w3.org/2000/svg" xmlns:xlink="http://www.w3.org/1999/xlink" version="1.1" baseProfile="full" width="95" height="95" viewBox="0 0 95.00 95.00" enable-background="new 0 0 95.00 95.00" xml:space="preserve">
	<path fill="#000000" fill-opacity="1" stroke-linejoin="round" stroke="#C0C0CC" stroke-opacity="1" d="M 15.5,2.49994L 79.5,2.49994C 86.6797,2.49994 92.5,8.32025 92.5,15.4999L 92.5,79.4998C 92.5,86.6795 86.6797,92.5001 79.5,92.5001L 15.5,92.5001C 8.32031,92.5001 2.50003,86.6795 2.50003,79.4998L 2.50003,15.4999C 2.50003,8.32025 8.32031,2.49994 15.5,2.49994 Z "/>
	<path fill="#FFFFFF" fill-opacity="1" stroke-linejoin="round" d="M 71.2605,33.1166C 69.8865,32.1223 68.8973,30.5624 69.0705,29.0327C 69.6819,23.6337 66.3727,19.0224 61.0228,18.1811C 60.0728,18.0312 59.1263,17.624 58.2705,17.165C 56.6562,16.3005 54.9737,15.9814 53.2343,16.4665C 52.2956,16.7285 51.7173,16.6118 50.9707,15.9362C 46.7126,12.081 40.0385,13.4589 37.9521,18.6911C 37.3532,20.1935 36.4672,21.0707 35.0788,21.642C 34.7687,21.7702 34.4283,21.9142 34.2083,22.1503C 33.515,22.8928 32.8544,22.7094 32.0146,22.352C 26.593,20.0436 20.7551,23.8425 20.5291,29.7172C 20.497,30.5566 20.1489,31.4672 19.6987,32.1904C 18.0869,34.7834 17.8022,37.384 18.8839,40.0783C 18.1047,42.0244 18.7844,44.4501 20.7035,45.8574C 22.8088,47.4023 25.2367,46.5961 27.0977,45.101C 27.6244,45.0507 28.1604,44.944 28.7071,44.7768C 29.8013,44.4411 30.7887,44.0405 31.711,44.4875C 31.8574,44.5959 32.0075,44.6921 32.16,44.7809C 32.2002,44.8154 32.2412,44.8466 32.2814,44.8847C 32.2869,44.8764 32.2916,44.8693 32.2969,44.861C 32.6006,45.0246 32.9154,45.1494 33.238,45.2436C 40.9688,47.8647 42.4187,52.3019 42.5052,52.3019L 42.1302,77.8436L 52.3646,77.6354C 52.6861,77.6354 52.1555,53.9736 52.4479,51.3854C 56.1622,51.0322 57.7361,47.1762 60.3438,44.4897C 61.5313,44.9272 63.5217,44.7604 64.3312,44.2155L 64.6563,44.1147C 66.4206,45.5383 68.2188,48.4269 70.3438,47.2394C 72.2188,45.4897 73.9228,43.4943 73.9063,43.3022C 77.0938,39.0522 74.6053,35.5383 71.2605,33.1166 Z M 39.8438,44.8647C 39.8646,44.8569 40.7376,41.5829 40.7585,41.5751C 41.1421,41.4286 41.8112,41.5966 42.1563,41.8647C 42.6432,42.2436 43.1033,42.6562 43.5535,43.0761C 43.5624,43.1115 43.831,43.9911 44.5183,46.288C 44.6826,47.4455 44.7868,48.5956 44.8438,49.7397C 41.2868,46.8159 40.6563,49.4269 39.8438,44.8647 Z M 50.4063,48.7397C 50.567,48.3547 51.8435,42.8881 52.4063,41.9272C 53.1234,42.5593 54.3077,43.1411 55.1036,43.6042C 53.7716,44.7812 53.3438,48.0519 50.4063,48.7397 Z "/>
	<g>
		<path fill="none" stroke-width="3" stroke-linejoin="round" stroke="#FF0000" stroke-opacity="1" d="M 15.5425,6.09515L 79.2103,6.09515C 84.7331,6.09515 89.2103,10.5722 89.2103,16.0952L 89.2103,80.0832C 89.2103,85.606 84.7331,90.0832 79.2103,90.0832L 15.5425,90.0832C 10.0197,90.0832 5.54254,85.606 5.54254,80.0832L 5.54254,16.0952C 5.54254,10.5722 10.0197,6.09515 15.5425,6.09515 Z "/>
		<line fill="none" stroke-width="3" stroke-linejoin="round" stroke="#FF0000" stroke-opacity="1" x1="8.04218" y1="9.08929" x2="86.7088" y2="87.0894"/>
	</g>
	<g>
		<radialGradient id="SVGID_Fill1_" cx="-15.9641" cy="10.3168" r="118.102" gradientUnits="userSpaceOnUse">
			<stop offset="0" stop-color="#FFFFFF" stop-opacity="0.843137"/>
			<stop offset="0.77027" stop-color="#FFFFFF" stop-opacity="0.32549"/>
			<stop offset="1" stop-color="#FFFFFF" stop-opacity="0"/>
		</radialGradient>
		<path fill="url(#SVGID_Fill1_)" stroke-width="0.2" stroke-linejoin="round" d="M 16.4131,3.87787L 80.4131,3.87787C 86.4882,3.87787 91.4131,8.80292 91.4131,14.8779L 91.4131,77.8776C 91.4131,83.9528 86.4882,88.8776 80.4131,88.8776L 16.4131,88.8776C 10.338,88.8776 5.41309,83.9528 5.41309,77.8776L 5.41309,14.8779C 5.41309,8.80292 10.338,3.87787 16.4131,3.87787 Z "/>
		<radialGradient id="SVGID_Stroke1_" cx="73.3702" cy="47.4411" r="669.951" gradientUnits="userSpaceOnUse">
			<stop offset="0.869369" stop-color="#F1F1F1" stop-opacity="0"/>
			<stop offset="1" stop-color="#EEEEEE" stop-opacity="0.898039"/>
		</radialGradient>
		<path fill="none" stroke-width="4" stroke-linejoin="round" stroke="url(#SVGID_Stroke1_)" d="M 82.6006,7.44012L 82.6006,7.44012C 86.6046,7.44012 89.8505,10.686 89.8505,14.6899L 89.8505,80.1905C 89.8505,84.1945 86.6046,87.4405 82.6006,87.4405L 82.6006,87.4405C 78.5965,87.4405 75.3506,84.1945 75.3506,80.1905L 75.3506,14.6899C 75.3506,10.686 78.5965,7.44012 82.6006,7.44012 Z "/>
		<radialGradient id="SVGID_Stroke2_" cx="21.331" cy="47.4404" r="669.951" gradientUnits="userSpaceOnUse" gradientTransform="rotate(180.000000 21.330994 47.440369)">
			<stop offset="0.869369" stop-color="#F1F1F1" stop-opacity="0"/>
			<stop offset="1" stop-color="#EEEEEE" stop-opacity="0.898039"/>
		</radialGradient>
		<path fill="none" stroke-width="4" stroke-linejoin="round" stroke="url(#SVGID_Stroke2_)" d="M 12.1006,87.4412L 12.1006,87.4412C 8.09659,87.4412 4.85065,84.1954 4.85065,80.1915L 4.85065,14.6909C 4.85065,10.687 8.09659,7.44086 12.1006,7.44086L 12.1006,7.44086C 16.1047,7.44086 19.3506,10.687 19.3506,14.6909L 19.3506,80.1915C 19.3506,84.1954 16.1047,87.4412 12.1006,87.4412 Z "/>
		<radialGradient id="SVGID_Stroke3_" cx="47.3521" cy="21.4208" r="79.1183" gradientUnits="userSpaceOnUse" gradientTransform="rotate(-90.000000 47.352112 21.420837)">
			<stop offset="0.869369" stop-color="#F1F1F1" stop-opacity="0"/>
			<stop offset="1" stop-color="#EEEEEE" stop-opacity="0.898039"/>
		</radialGradient>
		<path fill="none" stroke-width="4" stroke-linejoin="round" stroke="url(#SVGID_Stroke3_)" d="M 7.35077,12.1904L 7.35077,12.1904C 7.35077,8.18646 10.5967,4.94037 14.6008,4.94037L 80.1011,4.94037C 84.1053,4.94037 87.3511,8.18646 87.3511,12.1904L 87.3511,12.1904C 87.3511,16.1945 84.1053,19.4404 80.1011,19.4404L 14.6008,19.4404C 10.5967,19.4404 7.35077,16.1945 7.35077,12.1904 Z "/>
		<radialGradient id="SVGID_Stroke4_" cx="47.3489" cy="73.46" r="79.1189" gradientUnits="userSpaceOnUse" gradientTransform="rotate(90.000000 47.348938 73.460022)">
			<stop offset="0.869369" stop-color="#F1F1F1" stop-opacity="0"/>
			<stop offset="1" stop-color="#EEEEEE" stop-opacity="0.898039"/>
		</radialGradient>
		<path fill="none" stroke-width="4" stroke-linejoin="round" stroke="url(#SVGID_Stroke4_)" d="M 87.3503,82.6905L 87.3503,82.6905C 87.3503,86.6945 84.1043,89.9405 80.1003,89.9405L 14.5999,89.9405C 10.5958,89.9405 7.34991,86.6945 7.34991,82.6905L 7.34991,82.6905C 7.34991,78.6863 10.5958,75.4405 14.5999,75.4405L 80.1003,75.4405C 84.1043,75.4405 87.3503,78.6863 87.3503,82.6905 Z "/>
	</g>
</svg>
