<?xml version="1.0" encoding="utf-8"?>
<!DOCTYPE svg PUBLIC "-//W3C//DTD SVG 1.1//EN" "http://www.w3.org/Graphics/SVG/1.1/DTD/svg11.dtd">
<svg xmlns="http://www.w3.org/2000/svg" xmlns:xlink="http://www.w3.org/1999/xlink" version="1.1" baseProfile="full" width="95" height="95" viewBox="0 0 95.00 95.00" enable-background="new 0 0 95.00 95.00" xml:space="preserve">
	<path fill="#000000" fill-opacity="1" stroke-linejoin="round" stroke="#C0C0CC" stroke-opacity="1" d="M 15.5,2.49983L 79.5,2.49983C 86.6797,2.49983 92.5,8.32014 92.5,15.4998L 92.5,79.4996C 92.5,86.6793 86.6797,92.4998 79.5,92.4998L 15.5,92.4998C 8.32031,92.4998 2.5,86.6793 2.5,79.4996L 2.5,15.4998C 2.5,8.32014 8.32031,2.49983 15.5,2.49983 Z "/>
	<path fill="#FFFFFF" fill-opacity="1" fill-rule="evenodd" stroke-linejoin="round" d="M 79.2789,46.9285L 61.901,46.9285L 57.2274,31.536L 66.4444,31.5272L 66.4444,26.8453L 25.5824,26.8453L 25.5757,31.5616L 35.1694,31.5553L 30.5123,46.9005L 12.9039,46.9005L 12.9039,50.8985L 29.2513,50.8985L 23.2393,70.4696L 30.3016,70.4696L 36.2969,50.8985L 55.8177,50.8985L 61.7418,70.4696L 69.1119,70.4696L 63.0709,50.9232L 79.2789,50.9232M 37.5739,46.9285L 42.2674,31.5391L 49.9901,31.5335L 54.55,46.9285"/>
	<line fill="none" stroke-width="2" stroke-linecap="round" stroke-linejoin="round" stroke="#FFFFFF" stroke-opacity="1" x1="15.1542" y1="43.8446" x2="25.0292" y2="43.8446"/>
	<line fill="none" stroke-width="2" stroke-linecap="round" stroke-linejoin="round" stroke="#FFFFFF" stroke-opacity="1" x1="66.2792" y1="43.9696" x2="76.6542" y2="43.8446"/>
	<g>
		<radialGradient id="SVGID_Fill1_" cx="-16.0266" cy="9.87947" r="118.102" gradientUnits="userSpaceOnUse">
			<stop offset="0" stop-color="#FFFFFF" stop-opacity="0.843137"/>
			<stop offset="0.77027" stop-color="#FFFFFF" stop-opacity="0.32549"/>
			<stop offset="1" stop-color="#FFFFFF" stop-opacity="0"/>
		</radialGradient>
		<path fill="url(#SVGID_Fill1_)" stroke-width="0.2" stroke-linejoin="round" d="M 16.3506,3.44051L 80.3506,3.44051C 86.4257,3.44051 91.3506,8.36531 91.3506,14.4405L 91.3506,77.44C 91.3506,83.5152 86.4257,88.44 80.3506,88.44L 16.3506,88.44C 10.2755,88.44 5.35059,83.5152 5.35059,77.44L 5.35059,14.4405C 5.35059,8.36531 10.2755,3.44051 16.3506,3.44051 Z "/>
		<radialGradient id="SVGID_Stroke1_" cx="73.3702" cy="47.441" r="669.951" gradientUnits="userSpaceOnUse">
			<stop offset="0.869369" stop-color="#F1F1F1" stop-opacity="0"/>
			<stop offset="1" stop-color="#EEEEEE" stop-opacity="0.898039"/>
		</radialGradient>
		<path fill="none" stroke-width="4" stroke-linejoin="round" stroke="url(#SVGID_Stroke1_)" d="M 82.6005,7.44002L 82.6005,7.44002C 86.6046,7.44002 89.8505,10.6859 89.8505,14.6898L 89.8505,80.1903C 89.8505,84.1944 86.6046,87.4403 82.6005,87.4403L 82.6005,87.4403C 78.5964,87.4403 75.3505,84.1944 75.3505,80.1903L 75.3505,14.6898C 75.3505,10.6859 78.5964,7.44002 82.6005,7.44002 Z "/>
		<radialGradient id="SVGID_Stroke2_" cx="21.3309" cy="47.4395" r="669.951" gradientUnits="userSpaceOnUse" gradientTransform="rotate(180.000000 21.330933 47.439529)">
			<stop offset="0.869369" stop-color="#F1F1F1" stop-opacity="0"/>
			<stop offset="1" stop-color="#EEEEEE" stop-opacity="0.898039"/>
		</radialGradient>
		<path fill="none" stroke-width="4" stroke-linejoin="round" stroke="url(#SVGID_Stroke2_)" d="M 12.1006,87.4405L 12.1006,87.4405C 8.09656,87.4405 4.85065,84.1947 4.85065,80.1908L 4.85065,14.6903C 4.85065,10.6861 8.09656,7.44026 12.1006,7.44026L 12.1006,7.44026C 16.1047,7.44026 19.3506,10.6861 19.3506,14.6903L 19.3506,80.1908C 19.3506,84.1947 16.1047,87.4405 12.1006,87.4405 Z "/>
		<radialGradient id="SVGID_Stroke3_" cx="47.3519" cy="21.4207" r="79.1194" gradientUnits="userSpaceOnUse" gradientTransform="rotate(-90.000000 47.351929 21.420731)">
			<stop offset="0.869369" stop-color="#F1F1F1" stop-opacity="0"/>
			<stop offset="1" stop-color="#EEEEEE" stop-opacity="0.898039"/>
		</radialGradient>
		<path fill="none" stroke-width="4" stroke-linejoin="round" stroke="url(#SVGID_Stroke3_)" d="M 7.35059,12.1903L 7.35059,12.1903C 7.35059,8.18611 10.5966,4.94026 14.6006,4.94026L 80.1009,4.94026C 84.1051,4.94026 87.3509,8.18611 87.3509,12.1903L 87.3509,12.1903C 87.3509,16.1944 84.1051,19.4403 80.1009,19.4403L 14.6006,19.4403C 10.5966,19.4403 7.35059,16.1944 7.35059,12.1903 Z "/>
		<radialGradient id="SVGID_Stroke4_" cx="47.3494" cy="73.4598" r="79.1194" gradientUnits="userSpaceOnUse" gradientTransform="rotate(90.000000 47.349365 73.459793)">
			<stop offset="0.869369" stop-color="#F1F1F1" stop-opacity="0"/>
			<stop offset="1" stop-color="#EEEEEE" stop-opacity="0.898039"/>
		</radialGradient>
		<path fill="none" stroke-width="4" stroke-linejoin="round" stroke="url(#SVGID_Stroke4_)" d="M 87.3507,82.6903L 87.3507,82.6903C 87.3507,86.6944 84.1047,89.9403 80.1007,89.9403L 14.6004,89.9403C 10.5962,89.9403 7.3504,86.6944 7.3504,82.6903L 7.3504,82.6903C 7.3504,78.6861 10.5962,75.4403 14.6004,75.4403L 80.1007,75.4403C 84.1047,75.4403 87.3507,78.6861 87.3507,82.6903 Z "/>
	</g>
</svg>
