<?xml version="1.0" encoding="utf-8"?>
<!DOCTYPE svg PUBLIC "-//W3C//DTD SVG 1.1//EN" "http://www.w3.org/Graphics/SVG/1.1/DTD/svg11.dtd">
<svg xmlns="http://www.w3.org/2000/svg" xmlns:xlink="http://www.w3.org/1999/xlink" version="1.1" baseProfile="full" width="95" height="95" viewBox="0 0 95.00 95.00" enable-background="new 0 0 95.00 95.00" xml:space="preserve">
	<path fill="#000000" fill-opacity="1" stroke-linejoin="round" stroke="#C0C0CC" stroke-opacity="1" d="M 15.5,2.49991L 79.5,2.49991C 86.6797,2.49991 92.5,8.32022 92.5,15.4999L 92.5,79.4997C 92.5,86.6794 86.6797,92.4999 79.5,92.4999L 15.5,92.4999C 8.32031,92.4999 2.5,86.6794 2.5,79.4997L 2.5,15.4999C 2.5,8.32022 8.32031,2.49991 15.5,2.49991 Z "/>
	<path fill="#FFFFFF" fill-opacity="1" stroke-linejoin="round" d="M 42.0916,23.0795C 44.6199,23.0795 46.6616,21.1474 46.6616,18.7709C 46.6616,16.3793 44.6199,14.4479 42.0916,14.4479C 39.5789,14.4479 37.5372,16.3793 37.5372,18.7709C 37.5372,21.1474 39.5789,23.0795 42.0916,23.0795 Z "/>
	<path fill="#FFFFFF" fill-opacity="1" stroke-linejoin="round" d="M 75.1684,44.349L 70.3297,43.4716L 68.8474,45.1017C 71.569,45.5456 74.5886,46.4601 75.1684,44.349 Z M 65.5203,48.7607C 65.5967,48.7785 65.6737,48.6811 65.751,48.5067L 65.5203,48.7607 Z M 15.7515,49.2773C 15.7515,45.7711 18.7534,42.9198 22.4598,42.9198L 36.6112,42.9198L 36.6112,28.307C 36.6112,25.9162 38.6497,23.984 41.1812,23.984C 43.7095,23.984 45.7512,25.9162 45.7512,28.307L 45.7512,32.7914L 53.4882,36.4257C 54.6654,36.6801 55.4208,37.7946 55.152,38.9081C 54.8866,40.0375 53.7085,40.7365 52.5148,40.4823L 45.7512,37.205L 45.7512,42.9198L 52.5356,42.9198L 71.1013,28.7484L 70.5508,33.4745L 79.6907,39.2238C 81.1982,40.0414 81.7488,41.8822 80.8844,43.3168C 80.2094,44.4521 78.8583,45.0033 77.5851,44.7792L 76.8486,44.6459C 76.0164,47.8361 71.3022,46.6515 67.5635,46.5136L 65.8115,48.4403C 65.4482,49.3864 65.0925,50.3056 64.7485,50.2167L 59.8231,59.5976L 61.8231,77.9682C 61.8231,79.5431 61.091,80.8019 59.427,80.8019C 57.7631,80.8019 56.7744,79.5431 56.7744,77.9682L 54.7744,59.1894L 54.3298,59.1913L 52.0983,78.6654C 51.9488,79.9699 50.7703,80.9062 49.4658,80.7567C 48.1614,80.6071 47.2252,79.4286 47.3748,78.1244L 49.5417,59.2133L 34.7813,59.2812L 30.9063,63.1147L 33.6146,75.2394C 34.1563,77.2812 34.1415,78.5092 32.6979,79.2812C 31.0313,79.6144 30.1979,78.5312 29.6146,76.9479L 27.4063,66.0312L 27.5729,60.6977L 24.7396,64.1144L 24.5587,77.9682C 24.5587,79.5431 23.7785,80.6562 22.1145,80.6562C 20.4506,80.6562 19.5107,79.5431 19.5107,77.9682L 19.9896,62.0732L 23.0095,58.3112L 23.0095,45.7865L 20.5262,49.3837L 20.5262,59.8131L 15.7515,59.8131L 15.7515,49.2773 Z "/>
	<g>
		<path fill="none" stroke-width="3" stroke-linejoin="round" stroke="#FF0000" stroke-opacity="1" d="M 15.5425,6.09488L 79.2102,6.09488C 84.7331,6.09488 89.2102,10.5722 89.2102,16.0949L 89.2102,80.0829C 89.2102,85.6059 84.7331,90.0829 79.2102,90.0829L 15.5425,90.0829C 10.0197,90.0829 5.54254,85.6059 5.54254,80.0829L 5.54254,16.0949C 5.54254,10.5722 10.0197,6.09488 15.5425,6.09488 Z "/>
		<line fill="none" stroke-width="3" stroke-linejoin="round" stroke="#FF0000" stroke-opacity="1" x1="8.04218" y1="9.08926" x2="86.7089" y2="87.0893"/>
	</g>
	<g>
		<radialGradient id="SVGID_Fill1_" cx="-16.0266" cy="9.8793" r="118.102" gradientUnits="userSpaceOnUse">
			<stop offset="0" stop-color="#FFFFFF" stop-opacity="0.843137"/>
			<stop offset="0.77027" stop-color="#FFFFFF" stop-opacity="0.32549"/>
			<stop offset="1" stop-color="#FFFFFF" stop-opacity="0"/>
		</radialGradient>
		<path fill="url(#SVGID_Fill1_)" stroke-width="0.2" stroke-linejoin="round" d="M 16.3506,3.44034L 80.3506,3.44034C 86.4257,3.44034 91.3506,8.36539 91.3506,14.4403L 91.3506,77.4401C 91.3506,83.5153 86.4257,88.4401 80.3506,88.4401L 16.3506,88.4401C 10.2755,88.4401 5.35059,83.5153 5.35059,77.4401L 5.35059,14.4403C 5.35059,8.36539 10.2755,3.44034 16.3506,3.44034 Z "/>
		<radialGradient id="SVGID_Stroke1_" cx="73.3702" cy="47.4408" r="669.951" gradientUnits="userSpaceOnUse">
			<stop offset="0.869369" stop-color="#F1F1F1" stop-opacity="0"/>
			<stop offset="1" stop-color="#EEEEEE" stop-opacity="0.898039"/>
		</radialGradient>
		<path fill="none" stroke-width="4" stroke-linejoin="round" stroke="url(#SVGID_Stroke1_)" d="M 82.6005,7.43985L 82.6005,7.43985C 86.6046,7.43985 89.8505,10.6859 89.8505,14.6898L 89.8505,80.1903C 89.8505,84.1942 86.6046,87.4403 82.6005,87.4403L 82.6005,87.4403C 78.5964,87.4403 75.3505,84.1942 75.3505,80.1903L 75.3505,14.6898C 75.3505,10.6859 78.5964,7.43985 82.6005,7.43985 Z "/>
		<radialGradient id="SVGID_Stroke2_" cx="21.331" cy="47.4398" r="669.951" gradientUnits="userSpaceOnUse" gradientTransform="rotate(180.000000 21.330994 47.439850)">
			<stop offset="0.869369" stop-color="#F1F1F1" stop-opacity="0"/>
			<stop offset="1" stop-color="#EEEEEE" stop-opacity="0.898039"/>
		</radialGradient>
		<path fill="none" stroke-width="4" stroke-linejoin="round" stroke="url(#SVGID_Stroke2_)" d="M 12.1006,87.4408L 12.1006,87.4408C 8.09662,87.4408 4.85071,84.1947 4.85071,80.1908L 4.85071,14.6903C 4.85071,10.6864 8.09662,7.44034 12.1006,7.44034L 12.1006,7.44034C 16.1047,7.44034 19.3506,10.6864 19.3506,14.6903L 19.3506,80.1908C 19.3506,84.1947 16.1047,87.4408 12.1006,87.4408 Z "/>
		<radialGradient id="SVGID_Stroke3_" cx="47.3517" cy="21.4208" r="79.1195" gradientUnits="userSpaceOnUse" gradientTransform="rotate(-90.000000 47.351688 21.420807)">
			<stop offset="0.869369" stop-color="#F1F1F1" stop-opacity="0"/>
			<stop offset="1" stop-color="#EEEEEE" stop-opacity="0.898039"/>
		</radialGradient>
		<path fill="none" stroke-width="4" stroke-linejoin="round" stroke="url(#SVGID_Stroke3_)" d="M 7.35034,12.1903L 7.35034,12.1903C 7.35034,8.18619 10.5963,4.94034 14.6003,4.94034L 80.1007,4.94034C 84.1049,4.94034 87.3507,8.18619 87.3507,12.1903L 87.3507,12.1903C 87.3507,16.1942 84.1049,19.4403 80.1007,19.4403L 14.6003,19.4403C 10.5963,19.4403 7.35034,16.1942 7.35034,12.1903 Z "/>
		<radialGradient id="SVGID_Stroke4_" cx="47.3494" cy="73.4599" r="79.1184" gradientUnits="userSpaceOnUse" gradientTransform="rotate(90.000000 47.349365 73.459869)">
			<stop offset="0.869369" stop-color="#F1F1F1" stop-opacity="0"/>
			<stop offset="1" stop-color="#EEEEEE" stop-opacity="0.898039"/>
		</radialGradient>
		<path fill="none" stroke-width="4" stroke-linejoin="round" stroke="url(#SVGID_Stroke4_)" d="M 87.3507,82.6903L 87.3507,82.6903C 87.3507,86.6942 84.1047,89.9403 80.1007,89.9403L 14.6003,89.9403C 10.5962,89.9403 7.35034,86.6942 7.35034,82.6903L 7.35034,82.6903C 7.35034,78.6862 10.5962,75.4403 14.6003,75.4403L 80.1007,75.4403C 84.1047,75.4403 87.3507,78.6862 87.3507,82.6903 Z "/>
	</g>
</svg>
