<?xml version="1.0" encoding="utf-8"?>
<!DOCTYPE svg PUBLIC "-//W3C//DTD SVG 1.1//EN" "http://www.w3.org/Graphics/SVG/1.1/DTD/svg11.dtd">
<svg xmlns="http://www.w3.org/2000/svg" xmlns:xlink="http://www.w3.org/1999/xlink" version="1.1" baseProfile="full" width="95" height="95" viewBox="0 0 95.00 95.00" enable-background="new 0 0 95.00 95.00" xml:space="preserve">
	<path fill="#000000" fill-opacity="1" stroke-linejoin="round" stroke="#000000" stroke-opacity="1" d="M 15.5,2.49992L 79.5,2.49992C 86.6797,2.49992 92.5,8.32024 92.5,15.4999L 92.5,79.4999C 92.5,86.6796 86.6797,92.4999 79.5,92.4999L 15.5,92.4999C 8.32029,92.4999 2.5,86.6796 2.5,79.4999L 2.5,15.4999C 2.5,8.32024 8.32029,2.49992 15.5,2.49992 Z "/>
	<path fill="#FFFFFF" fill-opacity="1" stroke-width="0.2" stroke-linejoin="round" d="M 31.1353,66.4164C 32.1959,69.1125 34.0559,70.9037 36.1745,70.9037C 38.1255,70.9037 39.8611,69.3725 40.949,67.04L 40.8948,66.8713C 41.9761,69.3725 43.769,70.9904 45.7973,70.9904C 47.9091,70.9904 49.7622,69.2143 50.8194,66.5287L 50.803,66.6623C 51.8903,69.1689 53.6832,70.8075 55.715,70.8075C 57.8449,70.8075 59.716,68.9799 60.7671,66.2582C 61.8251,68.9843 63.6954,70.8127 65.8406,70.8127C 67.9189,70.8127 69.7522,69.0512 70.8197,66.4269C 71.8734,69.1125 73.7333,70.9093 75.852,70.9093C 77.803,70.9093 79.5383,69.3779 80.6264,67.04L 80.6832,66.9328L 80.75,75.1877L 80.2163,75.1901L 80.1832,71.0907L 80.1264,71.1979C 79.0383,73.5358 77.303,75.0673 75.352,75.0673C 73.2333,75.0673 71.3734,73.2704 70.3197,70.5849C 69.2522,73.2094 67.4189,74.9706 65.3406,74.9706C 63.1954,74.9706 61.3251,73.1423 60.2671,70.4164C 59.216,73.1381 57.3449,74.9655 55.215,74.9655C 53.1832,74.9655 51.3903,73.3268 50.303,70.8202L 50.3194,70.6869C 49.2622,73.3725 47.4091,75.1484 45.2973,75.1484C 43.269,75.1484 41.4761,73.5307 40.3948,71.0292L 40.449,71.1979C 39.3611,73.5307 37.6255,75.0619 35.6745,75.0619C 33.5559,75.0619 31.6959,73.2704 30.6353,70.5746C 29.4298,73.2529 27.6945,74.7841 25.7434,74.7841C 23.6248,74.7841 21.7648,72.9877 20.7111,70.3022C 19.6436,72.9262 17.8103,74.6874 15.7321,74.6874L 15.02,74.6196C 14.9722,74.7824 14.9119,75.0986 14.8405,75.4975L 14.25,75.5002C 14.8354,75.0405 15.3048,71.194 15.52,70.4616L 16.2321,70.5295C 18.3103,70.5295 20.1436,68.768 21.2111,66.144C 22.2648,68.8295 24.1248,70.6261 26.2434,70.6261C 28.1945,70.6261 29.9298,69.0949 31.1353,66.4164 Z "/>
	<path fill="#FFFFFF" fill-opacity="1" stroke-linejoin="round" d="M 38.4956,68.9506L 37.4125,70.1662C 36.493,71.1879 34.8979,71.3061 33.8426,70.4162C 33.222,69.893 32.9798,69.1506 33.0173,68.4186L 33.0105,68.4179L 34.1256,66.3578L 40.4569,59.2778L 42.4155,45.3486L 46.5294,34.8097L 40.8346,37.978L 37.4402,44.4179C 36.4119,46.4589 34.5594,45.3857 34.5594,45.3857C 32.8839,44.4584 33.5318,42.8854 33.5318,42.8854L 37.0065,36.0793C 37.9402,34.35 38.6848,34.089 38.6848,34.089L 46.8125,29.7836C 48.5796,28.6059 50.6349,29.5209 50.6349,29.5209L 55.3156,31.2363C 57.6546,32.0478 57.7491,33.3173 57.7491,33.3173L 60.6443,42.2858L 66.8775,44.4179C 66.8775,44.4179 68.5529,45.1117 67.9719,46.905C 67.1747,48.6852 65.4722,48.1503 65.4722,48.1503L 58.3024,45.5309C 57.5856,45.2812 57.0323,44.7055 56.8439,43.9987L 55.2189,39.4186L 52.6908,46.1601L 60.1827,53.714C 61.1165,55.298 61.0354,56.4623 61.0354,56.4623L 61.0119,68.9682L 61.0354,68.9635L 61.0354,69.5019C 61.0354,70.849 59.8997,71.9487 58.5051,71.9487C 57.2741,71.9487 56.302,71.0832 56.0716,69.9589L 56.0937,69.9545L 55.977,67.8642L 55.977,58.3717L 48.0292,50.6894L 46.8125,58.7402C 46.6098,59.7616 45.8517,60.7165 45.4179,61.1874L 38.4629,68.9472L 38.4956,68.9506 Z "/>
	<path fill="#FFFFFF" fill-opacity="1" stroke-linejoin="round" d="M 55.6797,29.9809C 58.2078,29.9809 60.2495,27.9906 60.2495,25.5405C 60.2495,23.0939 58.2078,21.1039 55.6797,21.1039C 53.1487,21.1039 51.0935,23.0939 51.0935,25.5405C 51.0963,27.9906 53.1487,29.9809 55.6797,29.9809 Z "/>
	<g>
		<radialGradient id="SVGID_Fill1_" cx="-16.0265" cy="9.87956" r="118.103" gradientUnits="userSpaceOnUse">
			<stop offset="0" stop-color="#FFFFFF" stop-opacity="0.843137"/>
			<stop offset="0.77027" stop-color="#FFFFFF" stop-opacity="0.32549"/>
			<stop offset="1" stop-color="#FFFFFF" stop-opacity="0"/>
		</radialGradient>
		<path fill="url(#SVGID_Fill1_)" stroke-width="0.2" stroke-linejoin="round" d="M 16.3506,3.4406L 80.3506,3.4406C 86.4258,3.4406 91.3506,8.36565 91.3506,14.4406L 91.3506,77.4404C 91.3506,83.5155 86.4258,88.4404 80.3506,88.4404L 16.3506,88.4404C 10.2755,88.4404 5.3506,83.5155 5.3506,77.4404L 5.3506,14.4406C 5.3506,8.36565 10.2755,3.4406 16.3506,3.4406 Z "/>
		<radialGradient id="SVGID_Stroke1_" cx="73.3702" cy="47.4411" r="669.951" gradientUnits="userSpaceOnUse">
			<stop offset="0.869369" stop-color="#F1F1F1" stop-opacity="0"/>
			<stop offset="1" stop-color="#EEEEEE" stop-opacity="0.898039"/>
		</radialGradient>
		<path fill="none" stroke-width="4" stroke-linejoin="round" stroke="url(#SVGID_Stroke1_)" d="M 82.6005,7.44011L 82.6005,7.44011C 86.6046,7.44011 89.8505,10.686 89.8505,14.6899L 89.8505,80.1904C 89.8505,84.1945 86.6046,87.4404 82.6005,87.4404L 82.6005,87.4404C 78.5965,87.4404 75.3505,84.1945 75.3505,80.1904L 75.3505,14.6899C 75.3505,10.686 78.5965,7.44011 82.6005,7.44011 Z "/>
		<radialGradient id="SVGID_Stroke2_" cx="21.331" cy="47.4399" r="669.951" gradientUnits="userSpaceOnUse" gradientTransform="rotate(180.000000 21.330967 47.439865)">
			<stop offset="0.869369" stop-color="#F1F1F1" stop-opacity="0"/>
			<stop offset="1" stop-color="#EEEEEE" stop-opacity="0.898039"/>
		</radialGradient>
		<path fill="none" stroke-width="4" stroke-linejoin="round" stroke="url(#SVGID_Stroke2_)" d="M 12.1006,87.4408L 12.1006,87.4408C 8.09657,87.4408 4.85064,84.1947 4.85064,80.1908L 4.85064,14.6904C 4.85064,10.6864 8.09657,7.44035 12.1006,7.44035L 12.1006,7.44035C 16.1047,7.44035 19.3506,10.6864 19.3506,14.6904L 19.3506,80.1908C 19.3506,84.1947 16.1047,87.4408 12.1006,87.4408 Z "/>
		<radialGradient id="SVGID_Stroke3_" cx="47.3518" cy="21.4208" r="79.1183" gradientUnits="userSpaceOnUse" gradientTransform="rotate(-90.000000 47.351845 21.420822)">
			<stop offset="0.869369" stop-color="#F1F1F1" stop-opacity="0"/>
			<stop offset="1" stop-color="#EEEEEE" stop-opacity="0.898039"/>
		</radialGradient>
		<path fill="none" stroke-width="4" stroke-linejoin="round" stroke="url(#SVGID_Stroke3_)" d="M 7.35051,12.1904L 7.35051,12.1904C 7.35051,8.18645 10.5965,4.94035 14.6005,4.94035L 80.1008,4.94035C 84.105,4.94035 87.3508,8.18645 87.3508,12.1904L 87.3508,12.1904C 87.3508,16.1945 84.105,19.4404 80.1008,19.4404L 14.6005,19.4404C 10.5965,19.4404 7.35051,16.1945 7.35051,12.1904 Z "/>
		<radialGradient id="SVGID_Stroke4_" cx="47.3495" cy="73.4599" r="79.1194" gradientUnits="userSpaceOnUse" gradientTransform="rotate(90.000000 47.349464 73.459885)">
			<stop offset="0.869369" stop-color="#F1F1F1" stop-opacity="0"/>
			<stop offset="1" stop-color="#EEEEEE" stop-opacity="0.898039"/>
		</radialGradient>
		<path fill="none" stroke-width="4" stroke-linejoin="round" stroke="url(#SVGID_Stroke4_)" d="M 87.3508,82.6904L 87.3508,82.6904C 87.3508,86.6945 84.1048,89.9404 80.1008,89.9404L 14.6005,89.9404C 10.5963,89.9404 7.35048,86.6945 7.35048,82.6904L 7.35048,82.6904C 7.35048,78.6864 10.5963,75.4404 14.6005,75.4404L 80.1008,75.4404C 84.1048,75.4404 87.3508,78.6864 87.3508,82.6904 Z "/>
	</g>
</svg>
