<?xml version="1.0" encoding="utf-8"?>
<!DOCTYPE svg PUBLIC "-//W3C//DTD SVG 1.1//EN" "http://www.w3.org/Graphics/SVG/1.1/DTD/svg11.dtd">
<svg x="0" y="0" width="48" height="48" overflow="hidden" viewBox="0, 0, 95, 95" preserveAspectRatio="xMidYMid" font-size="0" id="svg" xml:space="default" xmlns="http://www.w3.org/2000/svg" xmlns:xlink="http://www.w3.org/1999/xlink" xmlns:xml="http://www.w3.org/XML/1998/namespace" version="1.1">
  <defs id="def1" xml:space="default">
    <radialGradient cx="-16.0266" cy="9.87939" r="118.102" fx="-16.0266" fy="9.87939" gradientUnits="userSpaceOnUse" id="SVGID_Fill1_-0" xml:space="default">
      <stop offset="0%" stop-color="#FFFFFF" stop-opacity="0.843137" id="stop14-5" xml:space="default" />
      <stop offset="77.027%" stop-color="#FFFFFF" stop-opacity="0.32549" id="stop16-7" xml:space="default" />
      <stop offset="100%" stop-color="#FFFFFF" stop-opacity="0" id="stop18-2" xml:space="default" />
    </radialGradient>
    <radialGradient cx="73.3702" cy="47.4409" r="669.951" fx="73.3702" fy="47.4409" gradientUnits="userSpaceOnUse" id="SVGID_Stroke1_-7" xml:space="default">
      <stop offset="86.9369%" stop-color="#F1F1F1" stop-opacity="0" id="stop23-9" xml:space="default" />
      <stop offset="100%" stop-color="#EEEEEE" stop-opacity="0.898039" id="stop25-5" xml:space="default" />
    </radialGradient>
    <radialGradient cx="21.3309" cy="47.4397" r="669.951" fx="21.3309" fy="47.4397" gradientUnits="userSpaceOnUse" gradientTransform="rotate(180, 21.33093, 47.4397)" id="SVGID_Stroke2_-7" xml:space="default">
      <stop offset="86.9369%" stop-color="#F1F1F1" stop-opacity="0" id="stop30-6" xml:space="default" />
      <stop offset="100%" stop-color="#EEEEEE" stop-opacity="0.898039" id="stop32-4" xml:space="default" />
    </radialGradient>
    <radialGradient cx="47.3518" cy="21.4207" r="79.1183" fx="47.3518" fy="21.4207" gradientUnits="userSpaceOnUse" gradientTransform="rotate(-90, 47.35181, 21.42065)" id="SVGID_Stroke3_-9" xml:space="default">
      <stop offset="86.9369%" stop-color="#F1F1F1" stop-opacity="0" id="stop37-4" xml:space="default" />
      <stop offset="100%" stop-color="#EEEEEE" stop-opacity="0.898039" id="stop39-6" xml:space="default" />
    </radialGradient>
    <radialGradient cx="47.3495" cy="73.4597" r="79.1194" fx="47.3495" fy="73.4597" gradientUnits="userSpaceOnUse" gradientTransform="rotate(90, 47.34949, 73.45972)" id="SVGID_Stroke4_-0" xml:space="default">
      <stop offset="86.9369%" stop-color="#F1F1F1" stop-opacity="0" id="stop44-3" xml:space="default" />
      <stop offset="100%" stop-color="#EEEEEE" stop-opacity="0.898039" id="stop46-8" xml:space="default" />
    </radialGradient>
  </defs>
  <g id="g822" xml:space="default">
    <rect x="0" y="0" width="95" height="95" rx="11.875" ry="11.875" stroke-width="2.375" id="rect4" xml:space="default" />
    <path d="M35.7675 70.49 L25.08 70.49 L10.925 73.625 C10.925 73.625 10.56875 73.625 10.56875 74.31375 L10.56875 75.64375 A0.54625 0.54625 0 0 0 11.0675 76.2375 L11.495 76.2375 L11.495 81.67625 A2.66 2.66 0 0 0 13.87 84.4075 L22.04 84.4075 A2.1375 2.1375 0 0 0 23.10875 84.09875 L33.25 80.15625 C35.3875 79.20625 35.435 78.44625 35.3875 76.95 L35.3875 72.57999 L35.64875 72.57999 A0.40375 0.40375 0 0 0 35.91 72.2 L35.91 70.84624 A0.3325 0.3325 0 0 0 35.74375 70.60874 z M23.25125 81.8425 A1.3775 1.3775 0 0 1 22.11125 83.3625 L13.89375 83.3625 A1.35375 1.35375 0 0 1 12.70625 81.89 L12.70625 76.3325 L23.2275 76.3325 z M32.87 79.1825 L24.43875 82.38875 A2.09 2.09 0 0 0 24.43875 81.8425 L24.43875 76.21375 C26.22 75.69125 31.6825 73.83875 34.27125 73.00749 L34.27125 77.14 C34.27125 78.375 34.27125 78.565 32.84625 79.15875 z M50.73 40.63625 L40.0425 40.63625 L25.7925 43.8425 C25.7925 43.8425 25.43625 43.8425 25.43625 44.53125 L25.43625 45.86125 A0.54625 0.54625 0 0 0 25.935 46.455 L26.3625 46.455 L26.3625 51.89375 A2.68375 2.68375 0 0 0 28.7375 54.64875 L36.88375 54.64875 A2.375 2.375 0 0 0 37.9525 54.31625 L48.1175 50.30251 C50.255 49.37626 50.3025 48.61626 50.255 47.09626 L50.255 42.75 L50.51625 42.63125 A0.38 0.38 0 0 0 50.7775 42.25125 L50.7775 40.8975 A0.3325 0.3325 0 0 0 50.61125 40.66 z M38.21375 51.98875 A1.35375 1.35375 0 0 1 37.07375 53.50875 L28.85625 53.50875 A1.33 1.33 0 0 1 27.66875 52.03625 L27.66875 46.47875 L38.19 46.47875 z M47.8325 49.32875 L39.40125 52.535 A2.11375 2.11375 0 0 0 39.40125 51.98875 L39.40125 46.36 C41.1825 45.86125 46.645 43.985 49.23375 43.15375 L49.23375 47.28625 C49.23375 48.52125 49.23375 48.735 47.80875 49.305 z M72.3425 10.80625 L61.75 10.80625 L47.5 14.0125 C47.5 14.0125 47.14375 14.0125 47.14375 14.6775 L47.14375 16.0075 A0.54625 0.54625 0 0 0 47.6425 16.60125 L48.07 16.60125 L48.07 22.04 A2.68375 2.68375 0 0 0 50.445 24.795 L58.59125 24.795 A2.16125 2.16125 0 0 0 59.66 24.4625 L69.825 20.44875 C71.9625 19.5225 72.01 18.7625 71.9625 17.2425 L71.9625 12.89625 L72.22375 12.89625 A0.38 0.38 0 0 0 72.48501 12.51625 L72.48501 11.04375 A0.3325 0.3325 0 0 0 72.31876 10.80625 z M59.82625 22.15875 A1.35375 1.35375 0 0 1 58.68625 23.655 L50.46875 23.655 A1.33 1.33 0 0 1 49.28125 22.1825 L49.28125 16.625 L59.8025 16.625 z M69.32625 19.475 L61.01375 22.68125 A2.11375 2.11375 0 0 0 61.01375 22.135 L61.01375 16.625 C62.795 16.12625 68.13875 14.25 70.84625 13.41875 L70.84625 17.45625 C70.84625 18.6675 70.84625 18.88125 69.42125 19.45125 z M44.9825 85.5 L42.6075 85.5 C42.6075 83.8375 42.6075 82.19875 42.7975 80.75 L45.125 80.75 C45.125 82.34125 44.98249 83.885 44.98249 85.5 z M46.6925 72.41375 L44.3175 71.74875 A37.69125 37.69125 0 0 1 47.785 63.4125 L49.85125 64.5525 A36.12375 36.12375 0 0 0 46.6925 72.41375 z M54.88625 57.59375 L53.08125 56.02625 A88.42125 88.42125 0 0 1 59.375 49.6375 L61.01375 51.37125 A75.0975 75.0975 0 0 0 54.88625 57.59375 z M67.42625 45.43375 L65.81125 43.7 A79.1825 79.1825 0 0 0 71.8675 37.4775 L73.6725 39.045 A84.455 84.455 0 0 1 67.42625 45.43375 z M78.87375 31.65875 L76.8075 30.51875 A36.8125 36.8125 0 0 0 80.06125 22.6575 L82.43625 23.3225 A39.06875 39.06875 0 0 1 78.87375 31.65875 z M83.95625 14.25 L81.58125 14.06 C81.58125 12.56375 81.77125 11.02 81.77125 9.31 L84.14625 9.31 C84.17 11.1625 84.09875 12.80125 83.95625 14.25 z" stroke-width="2.375" id="path6" xml:space="default" connector-curvature="0" style="fill:#FFFFFF;" />
  </g>
  <g transform="translate(0.00496333, -0.1483683)" id="g829" xml:space="default">
    <path d="M13.61968 2.747737 L81.70376 2.747737 C87.60965 2.747737 92.39742 7.516876 92.39742 13.40023 L92.39742 81.5632 C92.39742 87.44624 87.60965 92.21567 81.70375 92.21567 L13.61967 92.21567 C7.713772 92.21567 2.925984 87.44624 2.925984 81.5632 L2.925984 13.40023 C2.925984 7.516876 7.713772 2.747737 13.61967 2.747737 z" stroke="#FF0000" stroke-width="3.201912" stroke-linejoin="round" id="path6-5" xml:space="default" connector-curvature="0" style="fill:none;" />
    <line x1="5.599016" y1="5.937233" x2="89.72251" y2="89.02643" stroke="#FF0000" stroke-width="3.201912" stroke-linejoin="round" id="line8" xml:space="default" />
  </g>
  <g transform="matrix(1.127404, 0, 0, 1.127427, -7.172327, -4.697677)" id="g51" xml:space="default">
    <radialGradient cx="-16.0266" cy="9.87939" r="118.102" fx="-16.0266" fy="9.87939" gradientUnits="userSpaceOnUse" id="radialGradient1100" xml:space="default">
      <stop offset="0%" stop-color="#FFFFFF" stop-opacity="0.843137" id="stop1094" xml:space="default" />
      <stop offset="77.027%" stop-color="#FFFFFF" stop-opacity="0.32549" id="stop1096" xml:space="default" />
      <stop offset="100%" stop-color="#FFFFFF" stop-opacity="0" id="stop1098" xml:space="default" />
    </radialGradient>
    <path d="M16.3506 3.44043 L80.3506 3.44043 C86.4257 3.44043 91.3506 8.365479 91.3506 14.4404 L91.3506 77.4402 C91.3506 83.5154 86.4257 88.4402 80.3506 88.4402 L16.3506 88.4402 C10.2755 88.4402 5.350592 83.5154 5.350592 77.4402 L5.350592 14.4404 C5.350592 8.36548 10.2755 3.44043 16.3506 3.44043 z" stroke-width="0.2" stroke-linejoin="round" id="path21" xml:space="default" connector-curvature="0" style="fill:url(#SVGID_Fill1_-0);" />
    <radialGradient cx="73.3702" cy="47.4409" r="669.951" fx="73.3702" fy="47.4409" gradientUnits="userSpaceOnUse" id="radialGradient1107" xml:space="default">
      <stop offset="86.9369%" stop-color="#F1F1F1" stop-opacity="0" id="stop1103" xml:space="default" />
      <stop offset="100%" stop-color="#EEEEEE" stop-opacity="0.898039" id="stop1105" xml:space="default" />
    </radialGradient>
    <path d="M82.6005 7.43994 L82.6005 7.43994 C86.6046 7.43994 89.8505 10.6858 89.8505 14.6897 L89.8505 80.1902 C89.8505 84.1943 86.6046 87.4402 82.6005 87.4402 L82.6005 87.4402 C78.59641 87.4402 75.3505 84.1943 75.3505 80.1902 L75.3505 14.6897 C75.3505 10.6858 78.59641 7.43994 82.6005 7.43994 z" stroke="url(#SVGID_Stroke1_-7)" stroke-width="4" stroke-linejoin="round" id="path28" xml:space="default" connector-curvature="0" style="fill:none;" />
    <radialGradient cx="21.3309" cy="47.4397" r="669.951" fx="21.3309" fy="47.4397" gradientUnits="userSpaceOnUse" gradientTransform="rotate(180, 21.33093, 47.4397)" id="radialGradient1114" xml:space="default">
      <stop offset="86.9369%" stop-color="#F1F1F1" stop-opacity="0" id="stop1110" xml:space="default" />
      <stop offset="100%" stop-color="#EEEEEE" stop-opacity="0.898039" id="stop1112" xml:space="default" />
    </radialGradient>
    <path d="M12.1006 87.4407 L12.1006 87.4407 C8.09656 87.4407 4.85065 84.1946 4.85065 80.1907 L4.85065 14.6902 C4.85065 10.6863 8.09656 7.44019 12.1006 7.44019 L12.1006 7.44019 C16.1047 7.44019 19.3506 10.6863 19.3506 14.6902 L19.3506 80.1907 C19.3506 84.1946 16.1047 87.4407 12.1006 87.4407 z" stroke="url(#SVGID_Stroke2_-7)" stroke-width="4" stroke-linejoin="round" id="path35" xml:space="default" connector-curvature="0" style="fill:none;" />
    <radialGradient cx="47.3518" cy="21.4207" r="79.1183" fx="47.3518" fy="21.4207" gradientUnits="userSpaceOnUse" gradientTransform="rotate(-90, 47.35181, 21.42065)" id="radialGradient1121" xml:space="default">
      <stop offset="86.9369%" stop-color="#F1F1F1" stop-opacity="0" id="stop1117" xml:space="default" />
      <stop offset="100%" stop-color="#EEEEEE" stop-opacity="0.898039" id="stop1119" xml:space="default" />
    </radialGradient>
    <path d="M7.3504 12.1902 L7.3504 12.1902 C7.3504 8.186279 10.5964 4.94019 14.6004 4.94019 L80.1007 4.94019 C84.105 4.94019 87.3507 8.186279 87.3507 12.1902 L87.3507 12.1902 C87.3507 16.1943 84.105 19.4402 80.1007 19.4402 L14.6004 19.4402 C10.5964 19.4402 7.3504 16.1943 7.3504 12.1902 z" stroke="url(#SVGID_Stroke3_-9)" stroke-width="4" stroke-linejoin="round" id="path42" xml:space="default" connector-curvature="0" style="fill:none;" />
    <radialGradient cx="47.3495" cy="73.4597" r="79.1194" fx="47.3495" fy="73.4597" gradientUnits="userSpaceOnUse" gradientTransform="rotate(90, 47.34949, 73.45972)" id="radialGradient1128" xml:space="default">
      <stop offset="86.9369%" stop-color="#F1F1F1" stop-opacity="0" id="stop1124" xml:space="default" />
      <stop offset="100%" stop-color="#EEEEEE" stop-opacity="0.898039" id="stop1126" xml:space="default" />
    </radialGradient>
    <path d="M87.3509 82.6902 L87.3509 82.6902 C87.3509 86.6943 84.1049 89.9402 80.1009 89.9402 L14.6006 89.9402 C10.5963 89.9402 7.35059 86.6943 7.35059 82.6902 L7.35059 82.6902 C7.35059 78.6863 10.5963 75.4402 14.6006 75.4402 L80.1009 75.4402 C84.1049 75.4402 87.3509 78.6863 87.3509 82.6902 z" stroke="url(#SVGID_Stroke4_-0)" stroke-width="4" stroke-linejoin="round" id="path49" xml:space="default" connector-curvature="0" style="fill:none;" />
  </g>
</svg>