<?xml version="1.0" encoding="utf-8"?>
<!DOCTYPE svg PUBLIC "-//W3C//DTD SVG 1.1//EN" "http://www.w3.org/Graphics/SVG/1.1/DTD/svg11.dtd">
<svg xmlns="http://www.w3.org/2000/svg" xmlns:xlink="http://www.w3.org/1999/xlink" version="1.1" baseProfile="full" width="95" height="95" viewBox="0 0 95.00 95.00" enable-background="new 0 0 95.00 95.00" xml:space="preserve">
	<path fill="#000000" fill-opacity="1" stroke-linejoin="round" stroke="#C0C0CC" stroke-opacity="1" d="M 15.5,2.49991L 79.5,2.49991C 86.6797,2.49991 92.5,8.32022 92.5,15.4999L 92.5,79.4997C 92.5,86.6794 86.6797,92.4999 79.5,92.4999L 15.5,92.4999C 8.32031,92.4999 2.5,86.6794 2.5,79.4997L 2.5,15.4999C 2.5,8.32022 8.32031,2.49991 15.5,2.49991 Z "/>
	<g>
		<path fill="#FFFFFF" fill-opacity="1" stroke-linejoin="round" d="M 41.9221,69.1217C 43.4115,69.1217 44.6113,67.8625 44.6113,66.2907C 44.6113,64.7187 43.4115,63.4533 41.9221,63.4533C 40.4428,63.4533 39.243,64.7223 39.243,66.2907C 39.243,67.8625 40.4428,69.1217 41.9221,69.1217 Z M 35.7394,66.2907C 35.7394,62.6791 38.4995,59.7582 41.9221,59.7582C 45.3473,59.7582 48.1049,62.6791 48.1049,66.2907C 48.1049,69.8959 45.3473,72.8229 41.9221,72.8229C 38.4995,72.8229 35.7394,69.8959 35.7394,66.2907 Z "/>
		<path fill="#FFFFFF" fill-opacity="1" stroke-width="0.5" stroke-linejoin="round" d="M 79.1614,54.1147L 79.1614,54.1147C 79.8748,54.1147 80.4531,54.693 80.4531,55.4064L 80.4531,56.0732C 80.4531,56.7865 79.8748,57.3647 79.1614,57.3647L 79.1614,57.3647C 78.448,57.3647 77.8698,56.7865 77.8698,56.0732L 77.8698,55.4064C 77.8698,54.693 78.448,54.1147 79.1614,54.1147 Z "/>
		<path fill="#FFFFFF" fill-opacity="1" stroke-linejoin="round" d="M 23.8913,63.6979C 19.4515,63.6979 15.8604,59.8857 15.8604,55.1906L 15.8438,40.33C 15.8438,33.9501 20.7231,28.7812 26.7399,28.7812L 63.7911,28.7812C 69.8044,28.7812 74.693,33.9501 74.693,40.33L 74.7064,61.3087L 77.7864,61.3087L 77.7864,60.9897C 77.7864,60.2301 78.402,59.6147 79.1614,59.6147C 79.9208,59.6147 80.5364,60.2301 80.5364,60.9897L 80.5364,61.3148C 81.6877,61.403 82.5938,62.4425 82.5938,63.6801L 80.5364,63.6801L 80.5364,68.6562C 80.5364,69.4157 79.9208,70.0312 79.1614,70.0312C 78.402,70.0312 77.7864,69.4157 77.7864,68.6562L 77.7864,63.6801L 50.821,63.6806C 50.5406,58.913 46.8311,55.1317 42.2553,55.1317C 37.6796,55.1317 33.97,58.913 33.6896,63.6982L 23.8913,63.6979 Z M 54.9269,40.6024L 54.9269,45.0692C 54.9269,47.0895 56.6991,48.7272 58.8853,48.7272C 61.0714,48.7272 62.8436,47.0895 62.8436,45.0692L 62.8436,40.6024C 62.8436,38.5819 61.0714,36.9442 58.8853,36.9442C 56.6991,36.9442 54.9269,38.5819 54.9269,40.6024 Z M 29.1768,46.3017C 29.1768,47.6415 30.3521,48.7274 31.8018,48.7274L 42.2185,48.7274C 43.6682,48.7274 44.8435,47.6415 44.8435,46.3017C 44.8435,44.9618 43.6682,43.8756 42.2185,43.8756L 31.8018,43.8756C 30.3521,43.8756 29.1768,44.9618 29.1768,46.3017 Z M 29.2603,39.37C 29.2603,40.7099 30.4355,41.7961 31.8853,41.7961L 42.3019,41.7961C 43.7516,41.7961 44.9269,40.7099 44.9269,39.37C 44.9269,38.0302 43.7516,36.9442 42.3019,36.9442L 31.8853,36.9442C 30.4355,36.9442 29.2603,38.0302 29.2603,39.37 Z "/>
	</g>
	<g>
		<path fill="none" stroke-width="3" stroke-linejoin="round" stroke="#FF0000" stroke-opacity="1" d="M 15.5425,6.09488L 79.2103,6.09488C 84.7331,6.09488 89.2103,10.5722 89.2103,16.0949L 89.2103,80.0829C 89.2103,85.6059 84.7331,90.0829 79.2103,90.0829L 15.5425,90.0829C 10.0197,90.0829 5.54254,85.6059 5.54254,80.0829L 5.54254,16.0949C 5.54254,10.5722 10.0197,6.09488 15.5425,6.09488 Z "/>
		<line fill="none" stroke-width="3" stroke-linejoin="round" stroke="#FF0000" stroke-opacity="1" x1="8.04218" y1="9.08926" x2="86.7089" y2="87.0893"/>
	</g>
	<g>
		<radialGradient id="SVGID_Fill1_" cx="-16.0266" cy="9.8793" r="118.103" gradientUnits="userSpaceOnUse">
			<stop offset="0" stop-color="#FFFFFF" stop-opacity="0.843137"/>
			<stop offset="0.77027" stop-color="#FFFFFF" stop-opacity="0.32549"/>
			<stop offset="1" stop-color="#FFFFFF" stop-opacity="0"/>
		</radialGradient>
		<path fill="url(#SVGID_Fill1_)" stroke-width="0.2" stroke-linejoin="round" d="M 16.3506,3.44034L 80.3506,3.44034C 86.4258,3.44034 91.3506,8.36539 91.3506,14.4403L 91.3506,77.4401C 91.3506,83.5153 86.4258,88.4401 80.3506,88.4401L 16.3506,88.4401C 10.2755,88.4401 5.35059,83.5153 5.35059,77.4401L 5.35059,14.4403C 5.35059,8.36539 10.2755,3.44034 16.3506,3.44034 Z "/>
		<radialGradient id="SVGID_Stroke1_" cx="73.3702" cy="47.4408" r="669.951" gradientUnits="userSpaceOnUse">
			<stop offset="0.869369" stop-color="#F1F1F1" stop-opacity="0"/>
			<stop offset="1" stop-color="#EEEEEE" stop-opacity="0.898039"/>
		</radialGradient>
		<path fill="none" stroke-width="4" stroke-linejoin="round" stroke="url(#SVGID_Stroke1_)" d="M 82.6006,7.43985L 82.6006,7.43985C 86.6046,7.43985 89.8505,10.6859 89.8505,14.6898L 89.8505,80.1903C 89.8505,84.1942 86.6046,87.4403 82.6006,87.4403L 82.6006,87.4403C 78.5965,87.4403 75.3506,84.1942 75.3506,80.1903L 75.3506,14.6898C 75.3506,10.6859 78.5965,7.43985 82.6006,7.43985 Z "/>
		<radialGradient id="SVGID_Stroke2_" cx="21.331" cy="47.4398" r="669.951" gradientUnits="userSpaceOnUse" gradientTransform="rotate(180.000000 21.330994 47.439850)">
			<stop offset="0.869369" stop-color="#F1F1F1" stop-opacity="0"/>
			<stop offset="1" stop-color="#EEEEEE" stop-opacity="0.898039"/>
		</radialGradient>
		<path fill="none" stroke-width="4" stroke-linejoin="round" stroke="url(#SVGID_Stroke2_)" d="M 12.1006,87.4408L 12.1006,87.4408C 8.09662,87.4408 4.85071,84.1947 4.85071,80.1908L 4.85071,14.6903C 4.85071,10.6864 8.09662,7.44034 12.1006,7.44034L 12.1006,7.44034C 16.1047,7.44034 19.3506,10.6864 19.3506,14.6903L 19.3506,80.1908C 19.3506,84.1947 16.1047,87.4408 12.1006,87.4408 Z "/>
		<radialGradient id="SVGID_Stroke3_" cx="47.3519" cy="21.4208" r="79.1194" gradientUnits="userSpaceOnUse" gradientTransform="rotate(-90.000000 47.351868 21.420807)">
			<stop offset="0.869369" stop-color="#F1F1F1" stop-opacity="0"/>
			<stop offset="1" stop-color="#EEEEEE" stop-opacity="0.898039"/>
		</radialGradient>
		<path fill="none" stroke-width="4" stroke-linejoin="round" stroke="url(#SVGID_Stroke3_)" d="M 7.35052,12.1903L 7.35052,12.1903C 7.35052,8.18619 10.5965,4.94034 14.6005,4.94034L 80.1009,4.94034C 84.105,4.94034 87.3508,8.18619 87.3508,12.1903L 87.3508,12.1903C 87.3508,16.1942 84.105,19.4403 80.1009,19.4403L 14.6005,19.4403C 10.5965,19.4403 7.35052,16.1942 7.35052,12.1903 Z "/>
		<radialGradient id="SVGID_Stroke4_" cx="47.3492" cy="73.4599" r="79.1183" gradientUnits="userSpaceOnUse" gradientTransform="rotate(90.000000 47.349182 73.459869)">
			<stop offset="0.869369" stop-color="#F1F1F1" stop-opacity="0"/>
			<stop offset="1" stop-color="#EEEEEE" stop-opacity="0.898039"/>
		</radialGradient>
		<path fill="none" stroke-width="4" stroke-linejoin="round" stroke="url(#SVGID_Stroke4_)" d="M 87.3505,82.6903L 87.3505,82.6903C 87.3505,86.6942 84.1046,89.9403 80.1005,89.9403L 14.6002,89.9403C 10.596,89.9403 7.35022,86.6942 7.35022,82.6903L 7.35022,82.6903C 7.35022,78.6862 10.596,75.4403 14.6002,75.4403L 80.1005,75.4403C 84.1046,75.4403 87.3505,78.6862 87.3505,82.6903 Z "/>
	</g>
</svg>
