<?xml version="1.0" encoding="utf-8"?>
<!DOCTYPE svg PUBLIC "-//W3C//DTD SVG 1.1//EN" "http://www.w3.org/Graphics/SVG/1.1/DTD/svg11.dtd">
<svg xmlns="http://www.w3.org/2000/svg" xmlns:xlink="http://www.w3.org/1999/xlink" version="1.1" baseProfile="full" width="95" height="95" viewBox="0 0 95.00 95.00" enable-background="new 0 0 95.00 95.00" xml:space="preserve">
	<path fill="#000000" fill-opacity="1" stroke-linejoin="round" stroke="#C0C0CC" stroke-opacity="1" d="M 15.5,2.49976L 79.5,2.49976C 86.6797,2.49976 92.5,8.32007 92.5,15.4998L 92.5,79.4998C 92.5,86.6794 86.6797,92.4998 79.5,92.4998L 15.5,92.4998C 8.32031,92.4998 2.5,86.6794 2.5,79.4998L 2.5,15.4998C 2.5,8.32007 8.32031,2.49976 15.5,2.49976 Z "/>
	<path fill="#FFFFFF" fill-opacity="1" stroke-linejoin="round" d="M 70.6667,61.5452C 70.6667,55.5188 64.3788,36.8213 61.4792,30.1665L 61.4793,18.0415C 61.4793,17.4783 59.6355,16.479 59.0417,16.479C 58.4495,16.479 56.5417,17.5408 56.5417,18.1038L 56.6042,30.604C 53.7047,37.2588 47.1667,55.5188 47.1667,61.5452C 47.1667,68.9509 52.4275,74.9553 58.916,74.9553C 65.4059,74.9548 70.6667,68.9509 70.6667,61.5452 Z M 57.7122,36.1821C 58.142,35.1565 58.5476,34.2009 58.9164,33.3401C 59.2853,34.2009 59.6909,35.1565 60.1206,36.1821M 57.8434,40.2639L 57.8434,38.2229L 59.9895,38.2229L 59.9895,40.2639M 54.4169,44.3452C 54.6213,43.8174 54.8299,43.2808 55.0456,42.7346C 55.102,42.5908 55.1584,42.4475 55.2154,42.304L 55.6982,42.304L 55.6982,44.3452M 57.8434,44.3452L 57.8434,42.304L 59.9895,42.304L 59.9895,44.3452M 62.1348,44.3452L 62.1348,42.304L 62.6179,42.304C 62.6745,42.4475 62.7309,42.5908 62.7878,42.7346C 63.003,43.2808 63.2122,43.8174 63.4165,44.3452M 52.8851,48.426C 53.1248,47.7654 53.3763,47.0847 53.6395,46.3857L 64.1934,46.3857C 64.4557,47.0847 64.7072,47.7654 64.9478,48.426M 53.5526,52.5085L 53.5526,50.467L 55.6982,50.467L 55.6982,52.5085M 57.8434,52.5085L 57.8434,50.467L 59.9895,50.467L 59.9895,52.5085M 62.1348,52.5085L 62.1348,50.467L 64.2808,50.467L 64.2808,52.5085M 50.2248,56.5891C 50.3992,55.9524 50.5971,55.271 50.8171,54.5474L 51.4065,54.5474L 51.4065,56.5891M 53.5526,56.5891L 53.5526,54.5474L 55.6982,54.5474L 55.6982,56.5891M 57.8434,56.5891L 57.8434,54.5474L 59.9895,54.5474L 59.9895,56.5891M 62.1348,56.5891L 62.1348,54.5474L 64.2808,54.5474L 64.2808,56.5891M 66.4265,56.5891L 66.4265,54.5474L 67.0158,54.5474C 67.2368,55.2705 67.4348,55.9524 67.6086,56.5891M 49.3648,60.6692C 49.4277,60.094 49.5475,59.4106 49.717,58.6306L 51.4065,58.6306L 51.4065,60.6692M 53.5526,60.6692L 53.5526,58.6306L 55.6982,58.6306L 55.6982,60.6692M 57.8434,60.6692L 57.8434,58.6306L 59.9895,58.6306L 59.9895,60.6692M 62.1348,60.6692L 62.1348,58.6306L 64.2808,58.6306L 64.2808,60.6692M 66.4265,60.6692L 66.4265,58.6306L 68.1154,58.6306C 68.2863,59.4106 68.4052,60.094 68.468,60.6692M 67.4332,66.7913C 67.147,67.4385 66.811,68.0466 66.4265,68.6174L 66.4265,66.7913M 49.7012,64.7524C 49.5349,64.0859 49.4218,63.4045 49.362,62.7109L 68.4709,62.7109C 68.4114,63.4045 68.2981,64.0859 68.1316,64.7524M 50.3992,66.7913L 51.4065,66.7913L 51.4065,68.6174C 51.0214,68.0466 50.685,67.4385 50.3992,66.7913 Z M 53.5526,68.8328L 53.5526,66.7913L 55.6982,66.7913L 55.6982,68.8328M 57.8434,68.8328L 57.8434,66.7913L 59.9895,66.7913L 59.9895,68.8328M 62.1348,68.8328L 62.1348,66.7913L 64.2808,66.7913L 64.2808,68.8328M 64.2808,70.8743L 64.2808,70.9658C 63.6104,71.5039 62.89,71.936 62.1348,72.2554L 62.1348,70.8743M 53.5526,70.9658L 53.5526,70.8748L 55.6982,70.8748L 55.6982,72.2554C 54.9434,71.936 54.2229,71.5039 53.5526,70.9658 Z M 57.8434,70.8743L 59.9895,70.8743L 59.9895,72.843C 59.6355,72.8894 59.2774,72.9131 58.916,72.9131C 58.5555,72.9131 58.1979,72.8894 57.8434,72.843"/>
	<path fill="#FFFFFF" fill-opacity="1" stroke-linejoin="round" d="M 42.5833,29.9639C 42.5833,35.99 36.2954,54.6877 33.3958,61.3425L 33.3959,73.4675C 33.3959,74.0308 31.5522,75.03 30.9583,75.03C 30.366,75.03 28.4583,73.9683 28.4583,73.405L 28.5208,60.905C 25.6213,54.2502 19.0833,35.99 19.0833,29.9639C 19.0833,22.5579 24.3441,16.5537 30.8325,16.5537C 37.3225,16.5542 42.5833,22.5579 42.5833,29.9639 Z M 29.6288,55.3269C 30.0586,56.3523 30.4642,57.3081 30.833,58.1687C 31.2019,57.3081 31.6075,56.3523 32.0372,55.3269M 29.76,51.2449L 29.76,53.2861L 31.9061,53.2861L 31.9061,51.2449M 26.3335,47.1638C 26.5378,47.6917 26.7465,48.2283 26.9622,48.7742C 27.0186,48.9182 27.075,49.0615 27.132,49.2048L 27.6147,49.2048L 27.6147,47.1638M 29.76,47.1638L 29.76,49.2048L 31.9061,49.2048L 31.9061,47.1638M 34.0513,47.1638L 34.0513,49.2048L 34.5345,49.2048C 34.5911,49.0615 34.6475,48.9182 34.7044,48.7742C 34.9196,48.2283 35.1287,47.6917 35.3331,47.1638M 24.8017,43.083C 25.0414,43.7434 25.2929,44.4243 25.5561,45.1233L 36.11,45.1233C 36.3723,44.4243 36.6238,43.7434 36.8644,43.083M 25.4692,39.0002L 25.4692,41.0417L 27.6147,41.0417L 27.6147,39.0002M 29.76,39.0002L 29.76,41.0417L 31.9061,41.0417L 31.9061,39.0002M 34.0513,39.0002L 34.0513,41.0417L 36.1974,41.0417L 36.1974,39.0002M 22.1414,34.9199C 22.3157,35.5566 22.5137,36.238 22.7336,36.9617L 23.3231,36.9617L 23.3231,34.9199M 25.4692,34.9199L 25.4692,36.9617L 27.6147,36.9617L 27.6147,34.9199M 29.76,34.9199L 29.76,36.9617L 31.9061,36.9617L 31.9061,34.9199M 34.0513,34.9199L 34.0513,36.9617L 36.1974,36.9617L 36.1974,34.9199M 38.343,34.9199L 38.343,36.9617L 38.9324,36.9617C 39.1534,36.2385 39.3513,35.5566 39.5252,34.9199M 21.2814,30.8396C 21.3443,31.415 21.4641,32.0984 21.6336,32.8784L 23.3231,32.8784L 23.3231,30.8396M 25.4692,30.8396L 25.4692,32.8784L 27.6147,32.8784L 27.6147,30.8396M 29.76,30.8396L 29.76,32.8784L 31.9061,32.8784L 31.9061,30.8396M 34.0513,30.8396L 34.0513,32.8784L 36.1974,32.8784L 36.1974,30.8396M 38.343,30.8396L 38.343,32.8784L 40.032,32.8784C 40.2029,32.0984 40.3218,31.415 40.3847,30.8396M 39.3499,24.7178C 39.0635,24.0706 38.7276,23.4622 38.343,22.8914L 38.343,24.7178M 21.6179,26.7566C 21.4514,27.4231 21.3384,28.1045 21.2786,28.7981L 40.3875,28.7981C 40.3281,28.1045 40.2147,27.4231 40.0482,26.7566M 22.3157,24.7178L 23.3231,24.7178L 23.3231,22.8914C 22.938,23.4622 22.6016,24.0706 22.3157,24.7178 Z M 25.4692,22.6763L 25.4692,24.7178L 27.6147,24.7178L 27.6147,22.6763M 29.76,22.6763L 29.76,24.7178L 31.9061,24.7178L 31.9061,22.6763M 34.0513,22.6763L 34.0513,24.7178L 36.1974,24.7178L 36.1974,22.6763M 36.1974,20.6345L 36.1974,20.5432C 35.5271,20.0051 34.8066,19.573 34.0513,19.2537L 34.0513,20.6345M 25.4692,20.5432L 25.4692,20.634L 27.6147,20.634L 27.6147,19.2537C 26.8599,19.573 26.1396,20.0051 25.4692,20.5432 Z M 29.76,20.6345L 31.9061,20.6345L 31.9061,18.6658C 31.5521,18.6196 31.194,18.5959 30.8325,18.5959C 30.4721,18.5959 30.1145,18.6196 29.76,18.6658"/>
	<g>
		<radialGradient id="SVGID_Fill1_" cx="-16.0266" cy="9.87939" r="118.102" gradientUnits="userSpaceOnUse">
			<stop offset="0" stop-color="#FFFFFF" stop-opacity="0.843137"/>
			<stop offset="0.77027" stop-color="#FFFFFF" stop-opacity="0.32549"/>
			<stop offset="1" stop-color="#FFFFFF" stop-opacity="0"/>
		</radialGradient>
		<path fill="url(#SVGID_Fill1_)" stroke-width="0.2" stroke-linejoin="round" d="M 16.3506,3.44043L 80.3506,3.44043C 86.4257,3.44043 91.3506,8.36548 91.3506,14.4404L 91.3506,77.4402C 91.3506,83.5154 86.4257,88.4402 80.3506,88.4402L 16.3506,88.4402C 10.2755,88.4402 5.35059,83.5154 5.35059,77.4402L 5.35059,14.4404C 5.35059,8.36548 10.2755,3.44043 16.3506,3.44043 Z "/>
		<radialGradient id="SVGID_Stroke1_" cx="73.3702" cy="47.4409" r="669.951" gradientUnits="userSpaceOnUse">
			<stop offset="0.869369" stop-color="#F1F1F1" stop-opacity="0"/>
			<stop offset="1" stop-color="#EEEEEE" stop-opacity="0.898039"/>
		</radialGradient>
		<path fill="none" stroke-width="4" stroke-linejoin="round" stroke="url(#SVGID_Stroke1_)" d="M 82.6005,7.43994L 82.6005,7.43994C 86.6046,7.43994 89.8505,10.6858 89.8505,14.6897L 89.8505,80.1902C 89.8505,84.1943 86.6046,87.4402 82.6005,87.4402L 82.6005,87.4402C 78.5964,87.4402 75.3505,84.1943 75.3505,80.1902L 75.3505,14.6897C 75.3505,10.6858 78.5964,7.43994 82.6005,7.43994 Z "/>
		<radialGradient id="SVGID_Stroke2_" cx="21.331" cy="47.4397" r="669.951" gradientUnits="userSpaceOnUse" gradientTransform="rotate(180.000000 21.330994 47.439697)">
			<stop offset="0.869369" stop-color="#F1F1F1" stop-opacity="0"/>
			<stop offset="1" stop-color="#EEEEEE" stop-opacity="0.898039"/>
		</radialGradient>
		<path fill="none" stroke-width="4" stroke-linejoin="round" stroke="url(#SVGID_Stroke2_)" d="M 12.1006,87.4407L 12.1006,87.4407C 8.09662,87.4407 4.85065,84.1946 4.85065,80.1907L 4.85065,14.6902C 4.85065,10.6863 8.09662,7.44019 12.1006,7.44019L 12.1006,7.44019C 16.1047,7.44019 19.3506,10.6863 19.3506,14.6902L 19.3506,80.1907C 19.3506,84.1946 16.1047,87.4407 12.1006,87.4407 Z "/>
		<radialGradient id="SVGID_Stroke3_" cx="47.3519" cy="21.4207" r="79.1183" gradientUnits="userSpaceOnUse" gradientTransform="rotate(-90.000000 47.351868 21.420654)">
			<stop offset="0.869369" stop-color="#F1F1F1" stop-opacity="0"/>
			<stop offset="1" stop-color="#EEEEEE" stop-opacity="0.898039"/>
		</radialGradient>
		<path fill="none" stroke-width="4" stroke-linejoin="round" stroke="url(#SVGID_Stroke3_)" d="M 7.35052,12.1902L 7.35052,12.1902C 7.35052,8.18628 10.5965,4.94019 14.6005,4.94019L 80.1008,4.94019C 84.105,4.94019 87.3508,8.18628 87.3508,12.1902L 87.3508,12.1902C 87.3508,16.1943 84.105,19.4402 80.1008,19.4402L 14.6005,19.4402C 10.5965,19.4402 7.35052,16.1943 7.35052,12.1902 Z "/>
		<radialGradient id="SVGID_Stroke4_" cx="47.3491" cy="73.4597" r="79.1195" gradientUnits="userSpaceOnUse" gradientTransform="rotate(90.000000 47.349121 73.459717)">
			<stop offset="0.869369" stop-color="#F1F1F1" stop-opacity="0"/>
			<stop offset="1" stop-color="#EEEEEE" stop-opacity="0.898039"/>
		</radialGradient>
		<path fill="none" stroke-width="4" stroke-linejoin="round" stroke="url(#SVGID_Stroke4_)" d="M 87.3505,82.6902L 87.3505,82.6902C 87.3505,86.6943 84.1045,89.9402 80.1005,89.9402L 14.6002,89.9402C 10.5959,89.9402 7.35016,86.6943 7.35016,82.6902L 7.35016,82.6902C 7.35016,78.6863 10.5959,75.4402 14.6002,75.4402L 80.1005,75.4402C 84.1045,75.4402 87.3505,78.6863 87.3505,82.6902 Z "/>
	</g>
</svg>
