<?xml version="1.0" encoding="utf-8"?>
<!DOCTYPE svg PUBLIC "-//W3C//DTD SVG 1.1//EN" "http://www.w3.org/Graphics/SVG/1.1/DTD/svg11.dtd">
<svg xmlns="http://www.w3.org/2000/svg" xmlns:xlink="http://www.w3.org/1999/xlink" version="1.1" baseProfile="full" width="95" height="95" viewBox="0 0 95.00 95.00" enable-background="new 0 0 95.00 95.00" xml:space="preserve">
	<path fill="#000000" fill-opacity="1" stroke-linejoin="round" stroke="#C0C0CC" stroke-opacity="1" d="M 15.5,2.50006L 79.5,2.50006C 86.6797,2.50006 92.5,8.32037 92.5,15.5001L 92.5,79.4998C 92.5,86.6795 86.6797,92.5001 79.5,92.5001L 15.5,92.5001C 8.32031,92.5001 2.5,86.6795 2.5,79.4998L 2.5,15.5001C 2.5,8.32037 8.32031,2.50006 15.5,2.50006 Z "/>
	<g>
		<path fill="#FFFFFF" fill-opacity="1" stroke-linejoin="round" d="M 43.1073,78.4771L 37.5338,78.4771L 31.8233,66.2047C 31.7144,65.9691 31.5406,65.4498 31.3021,64.6468L 31.2359,64.6468L 31.2359,78.4771L 26.7135,78.4771L 26.7135,50.2239L 31.2359,50.2239L 31.2359,63.5811L 31.3021,63.5811C 31.4141,63.2154 31.5966,62.6898 31.8498,62.0045L 37.2732,50.2239L 42.542,50.2239L 35.6877,63.7007L 43.1073,78.4771 Z "/>
		<path fill="#FFFFFF" fill-opacity="1" stroke-linejoin="round" d="M 67.6979,78.4771L 63.1755,78.4771L 63.1755,61.5694C 63.1755,59.7447 63.2329,57.7286 63.3478,55.5213L 63.2373,55.5213C 63.0077,57.2579 62.8001,58.5064 62.6146,59.2674L 57.9774,78.4771L 54.3338,78.4771L 49.6127,59.463C 49.4831,58.95 49.2755,57.636 48.9899,55.5213L 48.8663,55.5213C 48.984,58.3087 49.0429,60.7535 49.0429,62.8558L 49.0429,78.4771L 45.0858,78.4771L 45.0858,50.2239L 51.5559,50.2239L 55.5969,66.9739C 55.9208,68.3111 56.1563,69.6563 56.3035,71.0101L 56.3875,71.0101C 56.6348,69.4461 56.8969,68.086 57.1736,66.9297L 61.2146,50.2239L 67.6979,50.2239L 67.6979,78.4771 Z "/>
	</g>
	<path fill="#FFFFFF" fill-opacity="1" stroke-linejoin="round" d="M 39.2182,39.8099L 25.1115,33.3697L 25.1115,30.9166L 39.2182,24.1697L 39.2182,27.7635L 29.0982,32.0665L 29.0982,32.1575L 39.2182,36.2112L 39.2182,39.8099 Z "/>
	<g>
		<path fill="#FFFFFF" fill-opacity="1" stroke-linejoin="round" d="M 49.8149,43.5447L 46.0485,43.5447L 46.0485,23.463C 44.678,25.5108 43.0638,27.0245 41.2057,28.0037L 41.2057,22.5645C 42.1866,22.1111 43.2516,21.253 44.4006,19.9903C 45.5496,18.7276 46.3385,17.2545 46.7673,15.5709L 49.8149,15.5709L 49.8149,43.5447 Z "/>
		<path fill="#FFFFFF" fill-opacity="1" stroke-linejoin="round" d="M 61.5181,15.5709C 63.4041,15.5709 64.8782,16.5301 65.9403,18.4483C 67.207,20.723 67.8405,24.4949 67.8405,29.7642C 67.8405,35.0174 67.2029,38.7935 65.9277,41.0921C 64.874,42.9864 63.4041,43.9332 61.5181,43.9332C 59.6235,43.9332 58.0962,42.8941 56.936,40.816C 55.7758,38.7379 55.1957,35.0338 55.1957,29.7037C 55.1957,24.4747 55.8333,20.7108 57.1083,18.4122C 58.1621,16.5181 59.632,15.5709 61.5181,15.5709 Z M 61.5181,20.2332C 61.0416,20.2332 60.6157,20.4337 60.2401,20.8343C 59.8646,21.2349 59.5745,21.9512 59.3699,22.9832C 59.0981,24.327 58.9622,26.5872 58.9622,29.7642C 58.9622,32.9371 59.0841,35.1177 59.3279,36.3055C 59.5717,37.4932 59.8786,38.2845 60.2485,38.679C 60.6185,39.0738 61.0416,39.2711 61.5181,39.2711C 61.9944,39.2711 62.4204,39.0706 62.796,38.67C 63.1715,38.2693 63.4615,37.5528 63.6661,36.5211C 63.938,35.1895 64.0739,32.9371 64.0739,29.7642C 64.0739,26.5872 63.952,24.4048 63.7082,23.2169C 63.4644,22.0291 63.1575,21.2349 62.7876,20.8343C 62.4176,20.4337 61.9944,20.2332 61.5181,20.2332 Z "/>
	</g>
	<g>
		<radialGradient id="SVGID_Fill1_" cx="-16.0266" cy="9.87946" r="118.103" gradientUnits="userSpaceOnUse">
			<stop offset="0" stop-color="#FFFFFF" stop-opacity="0.843137"/>
			<stop offset="0.77027" stop-color="#FFFFFF" stop-opacity="0.32549"/>
			<stop offset="1" stop-color="#FFFFFF" stop-opacity="0"/>
		</radialGradient>
		<path fill="url(#SVGID_Fill1_)" stroke-width="0.2" stroke-linejoin="round" d="M 16.3506,3.44049L 80.3506,3.44049C 86.4258,3.44049 91.3506,8.36554 91.3506,14.4405L 91.3506,77.4402C 91.3506,83.5154 86.4258,88.4402 80.3506,88.4402L 16.3506,88.4402C 10.2755,88.4402 5.35059,83.5154 5.35059,77.4402L 5.35059,14.4405C 5.35059,8.36554 10.2755,3.44049 16.3506,3.44049 Z "/>
		<radialGradient id="SVGID_Stroke1_" cx="73.3702" cy="47.441" r="669.951" gradientUnits="userSpaceOnUse">
			<stop offset="0.869369" stop-color="#F1F1F1" stop-opacity="0"/>
			<stop offset="1" stop-color="#EEEEEE" stop-opacity="0.898039"/>
		</radialGradient>
		<path fill="none" stroke-width="4" stroke-linejoin="round" stroke="url(#SVGID_Stroke1_)" d="M 82.6006,7.44L 82.6006,7.44C 86.6046,7.44 89.8505,10.6861 89.8505,14.69L 89.8505,80.1905C 89.8505,84.1944 86.6046,87.4405 82.6006,87.4405L 82.6006,87.4405C 78.5965,87.4405 75.3506,84.1944 75.3506,80.1905L 75.3506,14.69C 75.3506,10.6861 78.5965,7.44 82.6006,7.44 Z "/>
		<radialGradient id="SVGID_Stroke2_" cx="21.331" cy="47.44" r="669.951" gradientUnits="userSpaceOnUse" gradientTransform="rotate(180.000000 21.330994 47.440002)">
			<stop offset="0.869369" stop-color="#F1F1F1" stop-opacity="0"/>
			<stop offset="1" stop-color="#EEEEEE" stop-opacity="0.898039"/>
		</radialGradient>
		<path fill="none" stroke-width="4" stroke-linejoin="round" stroke="url(#SVGID_Stroke2_)" d="M 12.1006,87.441L 12.1006,87.441C 8.09662,87.441 4.85071,84.1951 4.85071,80.1912L 4.85071,14.6907C 4.85071,10.6866 8.09662,7.44073 12.1006,7.44073L 12.1006,7.44073C 16.1047,7.44073 19.3506,10.6866 19.3506,14.6907L 19.3506,80.1912C 19.3506,84.1951 16.1047,87.441 12.1006,87.441 Z "/>
		<radialGradient id="SVGID_Stroke3_" cx="47.3518" cy="21.421" r="79.1194" gradientUnits="userSpaceOnUse" gradientTransform="rotate(-90.000000 47.351807 21.420959)">
			<stop offset="0.869369" stop-color="#F1F1F1" stop-opacity="0"/>
			<stop offset="1" stop-color="#EEEEEE" stop-opacity="0.898039"/>
		</radialGradient>
		<path fill="none" stroke-width="4" stroke-linejoin="round" stroke="url(#SVGID_Stroke3_)" d="M 7.35046,12.1905L 7.35046,12.1905C 7.35046,8.18634 10.5964,4.94049 14.6005,4.94049L 80.1008,4.94049C 84.105,4.94049 87.3508,8.18634 87.3508,12.1905L 87.3508,12.1905C 87.3508,16.1944 84.105,19.4405 80.1008,19.4405L 14.6005,19.4405C 10.5964,19.4405 7.35046,16.1944 7.35046,12.1905 Z "/>
		<radialGradient id="SVGID_Stroke4_" cx="47.3489" cy="73.46" r="79.1183" gradientUnits="userSpaceOnUse" gradientTransform="rotate(90.000000 47.348938 73.460022)">
			<stop offset="0.869369" stop-color="#F1F1F1" stop-opacity="0"/>
			<stop offset="1" stop-color="#EEEEEE" stop-opacity="0.898039"/>
		</radialGradient>
		<path fill="none" stroke-width="4" stroke-linejoin="round" stroke="url(#SVGID_Stroke4_)" d="M 87.3503,82.6905L 87.3503,82.6905C 87.3503,86.6944 84.1043,89.9405 80.1003,89.9405L 14.5999,89.9405C 10.5958,89.9405 7.34998,86.6944 7.34998,82.6905L 7.34998,82.6905C 7.34998,78.6863 10.5958,75.4405 14.5999,75.4405L 80.1003,75.4405C 84.1043,75.4405 87.3503,78.6863 87.3503,82.6905 Z "/>
	</g>
</svg>
