<?xml version="1.0" encoding="utf-8"?>
<!DOCTYPE svg PUBLIC "-//W3C//DTD SVG 1.1//EN" "http://www.w3.org/Graphics/SVG/1.1/DTD/svg11.dtd">
<svg xmlns="http://www.w3.org/2000/svg" xmlns:xlink="http://www.w3.org/1999/xlink" version="1.1" baseProfile="full" width="95" height="95" viewBox="0 0 95.00 95.00" enable-background="new 0 0 95.00 95.00" xml:space="preserve">
	<path fill="#000000" fill-opacity="1" stroke-linejoin="round" stroke="#C0C0CC" stroke-opacity="1" d="M 15.5,2.49983L 79.5,2.49983C 86.6797,2.49983 92.5,8.32014 92.5,15.4998L 92.5,79.4996C 92.5,86.6793 86.6797,92.4998 79.5,92.4998L 15.5,92.4998C 8.3203,92.4998 2.5,86.6793 2.5,79.4996L 2.5,15.4998C 2.5,8.32014 8.3203,2.49983 15.5,2.49983 Z "/>
	<path fill="#FFFFFF" fill-opacity="1" stroke-linejoin="round" d="M 16.375,70.5831L 13.875,66.5831L 46.5,19.7081L 50.625,19.7081L 52.25,22.7081L 48.25,29.2081L 46.875,32.8331L 47.25,40.3331L 50.125,44.0831L 55.125,53.5831L 59.75,60.9581L 61.5,69.4581L 61.5,70.5831L 16.375,70.5831 Z "/>
	<path fill="#FFFFFF" fill-opacity="1" stroke-linejoin="round" d="M 71.625,51.4581L 66.875,54.3331L 64.125,58.2081L 64.875,63.2081L 66.75,64.9581L 71.375,67.8331L 76,66.4581L 79.375,61.3331L 78.25,55.4581L 74.5,53.7081L 71.625,51.4581 Z "/>
	<path fill="#FFFFFF" fill-opacity="1" stroke-linejoin="round" d="M 61.75,48.9581L 59.125,51.5831L 61.75,52.4581L 63.875,52.4581L 63.25,51.3331L 62.75,50.0831L 61.75,48.9581 Z "/>
	<path fill="#FFFFFF" fill-opacity="1" stroke-linejoin="round" d="M 57.875,44.4581L 65.75,44.3331L 65.625,40.5831L 62.5,36.2081L 61,36.3331L 58.375,40.0831L 57.75,42.0831L 58.5,44.3331L 57.875,44.4581 Z "/>
	<path fill="#FFFFFF" fill-opacity="1" stroke-linejoin="round" d="M 53.125,37.9581L 51.5,39.7081L 53.375,42.5831L 56.125,42.9581L 56.5,39.2081L 55,37.7081L 53.125,37.9581 Z "/>
	<path fill="#FFFFFF" fill-opacity="1" stroke-linejoin="round" d="M 53.125,34.2081L 57.75,33.5831L 58.375,29.2081L 52.75,31.4581L 52,33.5831L 53.125,34.2081 Z "/>
	<g>
		<path fill="none" stroke-width="3" stroke-linejoin="round" stroke="#FF0000" stroke-opacity="1" d="M 15.5425,6.0948L 79.2102,6.0948C 84.7331,6.0948 89.2102,10.5721 89.2102,16.0948L 89.2102,80.0831C 89.2102,85.6058 84.7331,90.0831 79.2102,90.0831L 15.5425,90.0831C 10.0197,90.0831 5.54251,85.6058 5.54251,80.0831L 5.54251,16.0948C 5.54251,10.5721 10.0197,6.0948 15.5425,6.0948 Z "/>
		<line fill="none" stroke-width="3" stroke-linejoin="round" stroke="#FF0000" stroke-opacity="1" x1="8.04214" y1="9.08919" x2="86.7088" y2="87.0892"/>
	</g>
	<g>
		<radialGradient id="SVGID_Fill1_" cx="-16.0266" cy="9.87947" r="118.103" gradientUnits="userSpaceOnUse">
			<stop offset="0" stop-color="#FFFFFF" stop-opacity="0.843137"/>
			<stop offset="0.77027" stop-color="#FFFFFF" stop-opacity="0.32549"/>
			<stop offset="1" stop-color="#FFFFFF" stop-opacity="0"/>
		</radialGradient>
		<path fill="url(#SVGID_Fill1_)" stroke-width="0.2" stroke-linejoin="round" d="M 16.3506,3.44051L 80.3506,3.44051C 86.4257,3.44051 91.3506,8.36531 91.3506,14.4405L 91.3506,77.44C 91.3506,83.5152 86.4257,88.44 80.3506,88.44L 16.3506,88.44C 10.2754,88.44 5.35058,83.5152 5.35058,77.44L 5.35058,14.4405C 5.35058,8.36531 10.2754,3.44051 16.3506,3.44051 Z "/>
		<radialGradient id="SVGID_Stroke1_" cx="73.3702" cy="47.441" r="669.951" gradientUnits="userSpaceOnUse">
			<stop offset="0.869369" stop-color="#F1F1F1" stop-opacity="0"/>
			<stop offset="1" stop-color="#EEEEEE" stop-opacity="0.898039"/>
		</radialGradient>
		<path fill="none" stroke-width="4" stroke-linejoin="round" stroke="url(#SVGID_Stroke1_)" d="M 82.6005,7.44002L 82.6005,7.44002C 86.6046,7.44002 89.8505,10.6859 89.8505,14.6898L 89.8505,80.1903C 89.8505,84.1944 86.6046,87.4403 82.6005,87.4403L 82.6005,87.4403C 78.5965,87.4403 75.3505,84.1944 75.3505,80.1903L 75.3505,14.6898C 75.3505,10.6859 78.5965,7.44002 82.6005,7.44002 Z "/>
		<radialGradient id="SVGID_Stroke2_" cx="21.331" cy="47.4395" r="669.951" gradientUnits="userSpaceOnUse" gradientTransform="rotate(180.000000 21.330967 47.439529)">
			<stop offset="0.869369" stop-color="#F1F1F1" stop-opacity="0"/>
			<stop offset="1" stop-color="#EEEEEE" stop-opacity="0.898039"/>
		</radialGradient>
		<path fill="none" stroke-width="4" stroke-linejoin="round" stroke="url(#SVGID_Stroke2_)" d="M 12.1006,87.4405L 12.1006,87.4405C 8.09657,87.4405 4.85064,84.1947 4.85064,80.1908L 4.85064,14.6903C 4.85064,10.6861 8.09657,7.44026 12.1006,7.44026L 12.1006,7.44026C 16.1047,7.44026 19.3506,10.6861 19.3506,14.6903L 19.3506,80.1908C 19.3506,84.1947 16.1047,87.4405 12.1006,87.4405 Z "/>
		<radialGradient id="SVGID_Stroke3_" cx="47.3518" cy="21.4207" r="79.1194" gradientUnits="userSpaceOnUse" gradientTransform="rotate(-90.000000 47.351765 21.420731)">
			<stop offset="0.869369" stop-color="#F1F1F1" stop-opacity="0"/>
			<stop offset="1" stop-color="#EEEEEE" stop-opacity="0.898039"/>
		</radialGradient>
		<path fill="none" stroke-width="4" stroke-linejoin="round" stroke="url(#SVGID_Stroke3_)" d="M 7.35043,12.1903L 7.35043,12.1903C 7.35043,8.18611 10.5964,4.94026 14.6004,4.94026L 80.1008,4.94026C 84.1049,4.94026 87.3507,8.18611 87.3507,12.1903L 87.3507,12.1903C 87.3507,16.1944 84.1049,19.4403 80.1008,19.4403L 14.6004,19.4403C 10.5964,19.4403 7.35043,16.1944 7.35043,12.1903 Z "/>
		<radialGradient id="SVGID_Stroke4_" cx="47.3495" cy="73.4598" r="79.1194" gradientUnits="userSpaceOnUse" gradientTransform="rotate(90.000000 47.349548 73.459793)">
			<stop offset="0.869369" stop-color="#F1F1F1" stop-opacity="0"/>
			<stop offset="1" stop-color="#EEEEEE" stop-opacity="0.898039"/>
		</radialGradient>
		<path fill="none" stroke-width="4" stroke-linejoin="round" stroke="url(#SVGID_Stroke4_)" d="M 87.3509,82.6903L 87.3509,82.6903C 87.3509,86.6944 84.1049,89.9403 80.1009,89.9403L 14.6005,89.9403C 10.5964,89.9403 7.35056,86.6944 7.35056,82.6903L 7.35056,82.6903C 7.35056,78.6861 10.5964,75.4403 14.6005,75.4403L 80.1009,75.4403C 84.1049,75.4403 87.3509,78.6861 87.3509,82.6903 Z "/>
	</g>
</svg>
