<?xml version="1.0" encoding="utf-8"?>
<!DOCTYPE svg PUBLIC "-//W3C//DTD SVG 1.1//EN" "http://www.w3.org/Graphics/SVG/1.1/DTD/svg11.dtd">
<svg xmlns="http://www.w3.org/2000/svg" xmlns:xlink="http://www.w3.org/1999/xlink" version="1.1" baseProfile="full" width="95" height="95" viewBox="0 0 95.00 95.00" enable-background="new 0 0 95.00 95.00" xml:space="preserve">
	<path fill="#000000" fill-opacity="1" stroke-linejoin="round" stroke="#C0C0CC" stroke-opacity="1" d="M 15.5001,2.49976L 79.5001,2.49976C 86.6797,2.49976 92.5001,8.32007 92.5001,15.4998L 92.5001,79.4998C 92.5001,86.6794 86.6797,92.4998 79.5001,92.4998L 15.5001,92.4998C 8.32037,92.4998 2.50006,86.6794 2.50006,79.4998L 2.50006,15.4998C 2.50006,8.32007 8.32037,2.49976 15.5001,2.49976 Z "/>
	<g>
		<path fill="#FFFFFF" fill-opacity="1" stroke-linejoin="round" d="M 43.1073,78.4768L 37.5338,78.4768L 31.8233,66.2043C 31.7144,65.969 31.5406,65.4497 31.3022,64.6467L 31.2359,64.6467L 31.2359,78.4768L 26.7135,78.4768L 26.7135,50.2239L 31.2359,50.2239L 31.2359,63.5808L 31.3022,63.5808C 31.4141,63.2151 31.5966,62.6897 31.8498,62.0042L 37.2732,50.2239L 42.542,50.2239L 35.6877,63.7007L 43.1073,78.4768 Z "/>
		<path fill="#FFFFFF" fill-opacity="1" stroke-linejoin="round" d="M 67.6979,78.4768L 63.1756,78.4768L 63.1756,61.5691C 63.1756,59.7444 63.233,57.7285 63.3478,55.5212L 63.2374,55.5212C 63.0077,57.2576 62.8001,58.5063 62.6146,59.2673L 57.9774,78.4768L 54.3338,78.4768L 49.6127,59.4626C 49.4831,58.95 49.2756,57.636 48.9899,55.5212L 48.8663,55.5212C 48.9841,58.3086 49.0429,60.7534 49.0429,62.8557L 49.0429,78.4768L 45.0858,78.4768L 45.0858,50.2239L 51.5559,50.2239L 55.597,66.9739C 55.9208,68.3108 56.1564,69.6563 56.3035,71.01L 56.3875,71.01C 56.6348,69.446 56.8969,68.0859 57.1736,66.9297L 61.2147,50.2239L 67.6979,50.2239L 67.6979,78.4768 Z "/>
	</g>
	<g>
		<path fill="#FFFFFF" fill-opacity="1" stroke-linejoin="round" d="M 48.3075,44.7458L 44.541,44.7458L 44.541,24.6638C 43.1706,26.7117 41.5563,28.2253 39.6983,29.2048L 39.6983,23.7654C 40.6791,23.3123 41.7441,22.4541 42.8931,21.1914C 44.0421,19.9287 44.831,18.4556 45.2598,16.772L 48.3075,16.772L 48.3075,44.7458 Z "/>
		<path fill="#FFFFFF" fill-opacity="1" stroke-linejoin="round" d="M 60.0106,16.772C 61.8967,16.772 63.3708,17.7312 64.4329,19.6497C 65.6996,21.9241 66.3329,25.696 66.3329,30.9653C 66.3329,36.2185 65.6954,39.9944 64.4203,42.2932C 63.3666,44.1873 61.8967,45.1343 60.0106,45.1343C 58.1161,45.1343 56.5888,44.0952 55.4286,42.0168C 54.2684,39.9387 53.6882,36.2346 53.6882,30.9045C 53.6882,25.6755 54.3258,21.9119 55.601,19.613C 56.6547,17.719 58.1246,16.772 60.0106,16.772 Z M 60.0106,21.4343C 59.5342,21.4343 59.1082,21.6345 58.7327,22.0354C 58.3571,22.4358 58.0671,23.1523 57.8625,24.1843C 57.5907,25.5281 57.4548,27.7883 57.4548,30.9653C 57.4548,34.1382 57.5767,36.3186 57.8205,37.5066C 58.0643,38.6943 58.3712,39.4856 58.7411,39.8801C 59.111,40.2747 59.5342,40.4719 60.0106,40.4719C 60.487,40.4719 60.913,40.2717 61.2885,39.8708C 61.6641,39.4705 61.9542,38.7542 62.1588,37.7219C 62.4305,36.3904 62.5665,34.1382 62.5665,30.9653C 62.5665,27.7883 62.4445,25.6057 62.2007,24.418C 61.9569,23.2302 61.6501,22.4358 61.2802,22.0354C 60.9102,21.6345 60.487,21.4343 60.0106,21.4343 Z "/>
	</g>
	<path fill="#FFFFFF" fill-opacity="1" stroke-linejoin="round" d="M 24.674,39.9766L 38.7806,33.5364L 38.7806,31.0833L 24.674,24.3364L 24.674,27.9302L 34.7939,32.2332L 34.7939,32.3242L 24.674,36.3779L 24.674,39.9766 Z "/>
	<g>
		<path fill="none" stroke-width="3" stroke-linejoin="round" stroke="#FF0000" stroke-opacity="1" d="M 15.5425,6.09497L 79.2103,6.09497C 84.7331,6.09497 89.2103,10.572 89.2103,16.095L 89.2103,80.083C 89.2103,85.6057 84.7331,90.083 79.2103,90.083L 15.5425,90.083C 10.0197,90.083 5.54254,85.6057 5.54254,80.083L 5.54254,16.095C 5.54254,10.572 10.0197,6.09497 15.5425,6.09497 Z "/>
		<line fill="none" stroke-width="3" stroke-linejoin="round" stroke="#FF0000" stroke-opacity="1" x1="8.04218" y1="9.08911" x2="86.7089" y2="87.0891"/>
	</g>
	<g>
		<radialGradient id="SVGID_Fill1_" cx="-16.0266" cy="9.87939" r="118.103" gradientUnits="userSpaceOnUse">
			<stop offset="0" stop-color="#FFFFFF" stop-opacity="0.843137"/>
			<stop offset="0.77027" stop-color="#FFFFFF" stop-opacity="0.32549"/>
			<stop offset="1" stop-color="#FFFFFF" stop-opacity="0"/>
		</radialGradient>
		<path fill="url(#SVGID_Fill1_)" stroke-width="0.2" stroke-linejoin="round" d="M 16.3506,3.44043L 80.3506,3.44043C 86.4257,3.44043 91.3506,8.36548 91.3506,14.4404L 91.3506,77.4402C 91.3506,83.5154 86.4257,88.4402 80.3506,88.4402L 16.3506,88.4402C 10.2755,88.4402 5.35065,83.5154 5.35065,77.4402L 5.35065,14.4404C 5.35065,8.36548 10.2755,3.44043 16.3506,3.44043 Z "/>
		<radialGradient id="SVGID_Stroke1_" cx="73.3702" cy="47.4409" r="669.951" gradientUnits="userSpaceOnUse">
			<stop offset="0.869369" stop-color="#F1F1F1" stop-opacity="0"/>
			<stop offset="1" stop-color="#EEEEEE" stop-opacity="0.898039"/>
		</radialGradient>
		<path fill="none" stroke-width="4" stroke-linejoin="round" stroke="url(#SVGID_Stroke1_)" d="M 82.6005,7.43994L 82.6005,7.43994C 86.6046,7.43994 89.8505,10.6858 89.8505,14.6897L 89.8505,80.1902C 89.8505,84.1943 86.6046,87.4402 82.6005,87.4402L 82.6005,87.4402C 78.5965,87.4402 75.3505,84.1943 75.3505,80.1902L 75.3505,14.6897C 75.3505,10.6858 78.5965,7.43994 82.6005,7.43994 Z "/>
		<radialGradient id="SVGID_Stroke2_" cx="21.331" cy="47.4399" r="669.951" gradientUnits="userSpaceOnUse" gradientTransform="rotate(180.000000 21.330994 47.439941)">
			<stop offset="0.869369" stop-color="#F1F1F1" stop-opacity="0"/>
			<stop offset="1" stop-color="#EEEEEE" stop-opacity="0.898039"/>
		</radialGradient>
		<path fill="none" stroke-width="4" stroke-linejoin="round" stroke="url(#SVGID_Stroke2_)" d="M 12.1006,87.4409L 12.1006,87.4409C 8.09662,87.4409 4.85071,84.1951 4.85071,80.1912L 4.85071,14.6907C 4.85071,10.6865 8.09662,7.44067 12.1006,7.44067L 12.1006,7.44067C 16.1047,7.44067 19.3506,10.6865 19.3506,14.6907L 19.3506,80.1912C 19.3506,84.1951 16.1047,87.4409 12.1006,87.4409 Z "/>
		<radialGradient id="SVGID_Stroke3_" cx="47.3518" cy="21.4207" r="79.1183" gradientUnits="userSpaceOnUse" gradientTransform="rotate(-90.000000 47.351807 21.420654)">
			<stop offset="0.869369" stop-color="#F1F1F1" stop-opacity="0"/>
			<stop offset="1" stop-color="#EEEEEE" stop-opacity="0.898039"/>
		</radialGradient>
		<path fill="none" stroke-width="4" stroke-linejoin="round" stroke="url(#SVGID_Stroke3_)" d="M 7.35046,12.1902L 7.35046,12.1902C 7.35046,8.18628 10.5964,4.94019 14.6005,4.94019L 80.1008,4.94019C 84.105,4.94019 87.3508,8.18628 87.3508,12.1902L 87.3508,12.1902C 87.3508,16.1943 84.105,19.4402 80.1008,19.4402L 14.6005,19.4402C 10.5964,19.4402 7.35046,16.1943 7.35046,12.1902 Z "/>
		<radialGradient id="SVGID_Stroke4_" cx="47.3489" cy="73.4597" r="79.1194" gradientUnits="userSpaceOnUse" gradientTransform="rotate(90.000000 47.348938 73.459717)">
			<stop offset="0.869369" stop-color="#F1F1F1" stop-opacity="0"/>
			<stop offset="1" stop-color="#EEEEEE" stop-opacity="0.898039"/>
		</radialGradient>
		<path fill="none" stroke-width="4" stroke-linejoin="round" stroke="url(#SVGID_Stroke4_)" d="M 87.3503,82.6902L 87.3503,82.6902C 87.3503,86.6943 84.1043,89.9402 80.1003,89.9402L 14.5999,89.9402C 10.5958,89.9402 7.34998,86.6943 7.34998,82.6902L 7.34998,82.6902C 7.34998,78.6863 10.5958,75.4402 14.5999,75.4402L 80.1003,75.4402C 84.1043,75.4402 87.3503,78.6863 87.3503,82.6902 Z "/>
	</g>
</svg>
