<?xml version="1.0" encoding="utf-8"?>
<!DOCTYPE svg PUBLIC "-//W3C//DTD SVG 1.1//EN" "http://www.w3.org/Graphics/SVG/1.1/DTD/svg11.dtd">
<svg xmlns="http://www.w3.org/2000/svg" xmlns:xlink="http://www.w3.org/1999/xlink" version="1.1" baseProfile="full" width="250" height="250" viewBox="0 0 250.00 250.00" enable-background="new 0 0 250.00 250.00" xml:space="preserve">
	<g>
		<linearGradient id="SVGID_Fill1_" gradientUnits="objectBoundingBox" x1="0.34033" y1="0.564199" x2="0.672352" y2="0.564199">
			<stop offset="0" stop-color="#D9D9D9" stop-opacity="1"/>
			<stop offset="0.445946" stop-color="#A47C51" stop-opacity="1"/>
			<stop offset="1" stop-color="#FFFFFF" stop-opacity="1"/>
		</linearGradient>
		<path fill="url(#SVGID_Fill1_)" stroke-width="0.299998" stroke-linejoin="round" stroke="#D2B291" stroke-opacity="1" d="M 56.582,121.941C 56.8719,124.431 57.1601,129.396 56.9709,132.733C 56.7816,136.069 56.115,137.778 55.4896,138.967C 54.8642,140.156 54.2802,140.826 52.6759,141.597C 51.0718,142.368 48.4475,143.24 45.8438,144.134C 43.2399,145.028 40.6566,145.944 38.1983,146.903C 35.7399,147.861 33.4066,148.861 31.3649,149.799C 29.3233,150.736 27.5733,151.611 25.9899,152.799C 24.4066,153.986 22.9899,155.486 21.8858,156.986C 20.7816,158.486 19.9899,159.986 18.1774,164.288C 16.3649,168.59 13.5316,175.694 13.5872,179.885C 13.6427,184.076 16.5872,185.354 28.1979,187.845C 39.8086,190.337 60.0856,194.042 78.7193,193.396C 97.353,192.75 114.343,187.753 122.977,184.977C 131.612,182.201 131.889,181.646 130.938,176.854C 129.987,172.062 127.806,163.035 123.695,157.427C 119.584,151.819 113.542,149.632 108.459,147.715C 103.375,145.799 99.2504,144.153 95.806,142.837C 92.3615,141.521 89.5976,140.535 88.5802,136.319C 87.5629,132.104 88.2921,124.66 88.4066,120.799C 88.5212,116.937 88.0212,116.66 83.1462,117.325C 78.2712,117.99 69.0212,119.597 63.7191,120.104C 58.4171,120.611 57.0629,120.017 56.5316,119.727C 56.0004,119.437 56.2921,119.451 56.582,121.941 Z "/>
		<g>
			<path fill="#D5B797" fill-opacity="1" stroke-width="0.2" stroke-linejoin="round" d="M 46.1464,91.5393C 46.8042,91.2981 47.1991,91.4883 48.1578,92.8608C 48.9623,94.0131 49.6971,96.5135 50.3672,98.3418C 51.8356,102.348 52.0451,105.956 50.8351,106.399C 49.6252,106.843 48.3965,106.914 47.1464,104.414C 45.9944,102.111 43.474,94.6425 43.7089,93.6018C 44.1464,91.6641 45.5835,91.7455 46.1464,91.5393 Z "/>
			<path fill="#FFFFFF" fill-opacity="0.305882" stroke-width="0.2" stroke-linejoin="round" d="M 47.0214,94.2253L 47.7714,102.225L 49.1464,104.225L 50.3339,101.975L 50.0839,99.1628L 48.0214,93.3503L 47.2089,93.9128L 47.0214,94.2253 Z "/>
			<path fill="#FFFFFF" fill-opacity="0.305882" stroke-width="0.2" stroke-linejoin="round" d="M 48.8964,100.163L 48.5214,101.913L 49.3339,102.35L 50.0214,101.975L 49.9589,100.975L 49.3339,100.288L 48.8964,100.163 Z "/>
		</g>
		<g>
			<path fill="#D5B797" fill-opacity="1" stroke-width="0.2" stroke-linejoin="round" d="M 97.1573,90.8657C 96.4995,90.6248 96.1045,90.8148 95.1459,92.1875C 94.3412,93.3396 93.6065,95.8402 92.9364,97.6685C 91.468,101.675 91.2585,105.282 92.4684,105.726C 93.6784,106.169 94.9072,106.24 96.1572,103.741C 97.3092,101.437 99.8296,93.969 99.5947,92.9282C 99.1572,90.9906 97.7201,91.072 97.1573,90.8657 Z "/>
			<path fill="#FFFFFF" fill-opacity="0.305882" stroke-width="0.2" stroke-linejoin="round" d="M 96.2822,93.552L 95.5322,101.552L 94.1572,103.552L 92.9697,101.302L 93.2197,98.4895L 95.2822,92.677L 96.0947,93.2395L 96.2822,93.552 Z "/>
			<path fill="#FFFFFF" fill-opacity="0.305882" stroke-width="0.2" stroke-linejoin="round" d="M 94.4072,99.4895L 94.7822,101.24L 93.9697,101.677L 93.2822,101.302L 93.3447,100.302L 93.9697,99.6145L 94.4072,99.4895 Z "/>
		</g>
		<radialGradient id="SVGID_Fill2_" cx="72.7103" cy="164.517" r="59.3288" gradientUnits="userSpaceOnUse">
			<stop offset="0" stop-color="#DCD5CE" stop-opacity="1"/>
			<stop offset="1" stop-color="#FFFFFF" stop-opacity="1"/>
		</radialGradient>
		<path fill="url(#SVGID_Fill2_)" stroke-width="0.299998" stroke-linejoin="round" stroke="#D2B291" stroke-opacity="1" d="M 71.8373,145.819C 66.115,145.93 60.7816,142.708 56.8302,140.253C 56.2977,139.922 55.7902,139.605 55.3096,139.296C 54.7426,140.286 54.126,140.901 52.6758,141.597C 51.0717,142.368 48.4474,143.24 45.8437,144.134C 43.2399,145.028 40.6565,145.945 38.1982,146.903C 35.7399,147.861 33.4065,148.861 31.3649,149.799C 29.3232,150.736 27.5732,151.611 25.9899,152.799C 24.4065,153.986 22.9899,155.486 21.8857,156.986C 20.7815,158.486 19.9899,159.986 18.1774,164.288C 16.3649,168.59 13.5315,175.695 13.5871,179.885C 13.6426,184.077 16.5871,185.354 28.1978,187.846C 39.8085,190.337 60.0855,194.042 78.7192,193.396C 97.3529,192.75 114.343,187.754 122.977,184.978C 131.611,182.202 131.889,181.646 130.938,176.854C 129.986,172.063 127.806,163.035 123.695,157.427C 119.584,151.82 113.542,149.632 108.459,147.715L 95.8058,142.837C 92.3614,141.521 89.5975,140.535 88.5801,136.32C 88.4803,135.906 88.3974,135.462 88.329,134.993C 87.9257,135.939 87.4247,136.865 86.8096,137.75C 83.6707,142.264 77.5596,145.708 71.8373,145.819 Z "/>
		<radialGradient id="SVGID_Fill3_" cx="72.005" cy="97.686" r="35.125" gradientUnits="userSpaceOnUse">
			<stop offset="0" stop-color="#F4E0CB" stop-opacity="1"/>
			<stop offset="1" stop-color="#70573D" stop-opacity="1"/>
		</radialGradient>
		<path fill="url(#SVGID_Fill3_)" stroke-width="0.2" stroke-linejoin="round" d="M 72.005,62.5614C 84.9377,62.5614 95.4217,78.2874 95.4217,97.6864C 95.4217,104.808 93.7361,111.783 90.925,116.895C 87.0011,124.03 84.6005,128.656 80.7447,130.978C 78.4312,132.371 74.7202,132.447 71.6509,132.447C 68.6845,132.447 65.0302,132.707 62.5883,130.978C 59.4488,128.755 58.0356,124.447 55.6302,120.561C 51.7499,114.293 48.5883,106.915 48.5883,97.6864C 48.5883,78.2874 59.0723,62.5614 72.005,62.5614 Z "/>
		<radialGradient id="SVGID_Fill4_" cx="72.005" cy="95.6859" r="35.125" gradientUnits="userSpaceOnUse">
			<stop offset="0" stop-color="#F4E0CB" stop-opacity="1"/>
			<stop offset="1" stop-color="#E8BE93" stop-opacity="1"/>
		</radialGradient>
		<path fill="url(#SVGID_Fill4_)" stroke-width="0.2" stroke-linejoin="round" d="M 72.005,60.5613C 84.9377,60.5613 95.4218,76.2871 95.4218,95.6863C 95.4218,102.808 93.7361,109.783 90.9251,114.895C 87.0011,122.03 84.6005,126.656 80.7447,128.978C 78.4312,130.371 74.7202,130.447 71.6509,130.447C 68.6845,130.447 65.0302,130.707 62.5883,128.978C 59.4488,126.755 58.0356,122.447 55.6302,118.561C 51.75,112.293 48.5883,104.915 48.5883,95.6863C 48.5883,76.2871 59.0723,60.5613 72.005,60.5613 Z "/>
		<g>
			<path fill="#937258" fill-opacity="1" stroke-width="0.2" stroke-linejoin="round" d="M 47.2332,93.2113C 47.7957,93.9891 48.3825,94.0657 48.8113,93.531C 49.2401,92.9961 49.511,91.8503 49.8026,90.6211C 50.0943,89.392 50.4068,88.0795 50.5839,86.1107C 50.761,84.142 50.8026,81.517 51.511,79.4441C 52.2193,77.3711 53.5943,75.8503 54.9797,75.0378C 56.3651,74.2253 57.761,74.1211 59.261,74.3711C 60.761,74.6211 62.3651,75.2253 64.0526,75.9336C 65.7401,76.642 67.511,77.4545 68.8026,77.9648C 70.0943,78.4753 70.9068,78.6836 72.313,78.7982C 73.7193,78.9128 75.7193,78.9336 77.2505,78.7982C 78.7818,78.6628 79.8443,78.3711 81.4033,78.1976C 82.9623,78.0239 85.0179,77.9683 86.4416,78.1697C 87.8651,78.3711 88.6568,78.8295 89.4901,79.5586C 90.3235,80.2878 91.1985,81.2878 91.9901,82.7045C 92.7818,84.1211 93.4901,85.9545 93.9068,87.4857C 94.3235,89.017 94.4485,90.2461 94.5839,91.267C 94.7193,92.2878 94.8651,93.1003 95.1568,93.5482C 95.4485,93.9961 95.886,94.0795 96.2505,93.9023C 96.6151,93.7253 96.9068,93.2878 97.188,92.4023C 97.4693,91.517 97.7401,90.1836 97.9276,88.4023C 98.1151,86.6211 98.2193,84.392 97.9589,81.767C 97.6985,79.142 97.0735,76.1211 95.9797,73.267C 94.886,70.4128 93.3235,67.7253 91.3651,65.4441C 89.4068,63.1628 87.0526,61.2878 84.9728,59.9648C 82.8929,58.642 81.0873,57.8711 79.4866,57.3503C 77.886,56.8295 76.4901,56.5586 74.7714,56.4545C 73.0526,56.3503 71.011,56.4128 69.0735,56.5482C 67.136,56.6836 65.3026,56.892 63.3443,57.642C 61.386,58.392 59.3026,59.6836 57.3964,61.0795C 55.4901,62.4753 53.761,63.9753 52.2089,65.7253C 50.6568,67.4753 49.2818,69.4753 48.3547,71.5482C 47.4276,73.6211 46.9485,75.767 46.5943,77.5482C 46.2401,79.3295 46.011,80.7461 45.8651,82.6732C 45.7193,84.6003 45.6568,87.0378 45.8947,88.9961C 46.1325,90.9545 46.6707,92.4336 47.2332,93.2113 Z "/>
			<radialGradient id="SVGID_Fill5_" cx="68.8026" cy="70.4233" r="13.875" gradientUnits="userSpaceOnUse">
				<stop offset="0" stop-color="#D3B9A3" stop-opacity="0.635294"/>
				<stop offset="0.990991" stop-color="#FFFFFF" stop-opacity="0"/>
			</radialGradient>
			<path fill="url(#SVGID_Fill5_)" stroke-width="0.2" stroke-linejoin="round" d="M 58.636,65.4926C 59.4832,66.1732 60.7888,67.6732 62.511,69.0205C 64.2332,70.3677 66.3721,71.562 68.7054,72.5066C 71.0388,73.451 73.5665,74.1454 75.7471,74.5342C 77.9276,74.9232 79.761,75.0066 80.8582,75.1039C 81.9554,75.201 82.3165,75.312 82.1221,75.4926C 81.9276,75.6732 81.1776,75.9232 79.0804,75.7982C 76.9832,75.6732 73.5388,75.1732 70.0526,74.1316C 66.5665,73.0898 63.0388,71.5066 60.511,70.0898C 57.9832,68.6732 56.4554,67.4232 56.0388,66.6176C 55.6221,65.812 56.3165,65.451 56.8582,65.201C 57.3998,64.951 57.7888,64.812 58.636,65.4926 Z "/>
			<radialGradient id="SVGID_Fill6_" cx="92.5526" cy="76.538" r="7.36462" gradientUnits="userSpaceOnUse">
				<stop offset="0" stop-color="#9A7C65" stop-opacity="0.635294"/>
				<stop offset="0.990991" stop-color="#FFFFFF" stop-opacity="0"/>
			</radialGradient>
			<path fill="url(#SVGID_Fill6_)" stroke-width="0.2" stroke-linejoin="round" d="M 93.2296,77.3608C 93.1359,78.0276 93.3651,79.0692 93.5213,79.8783C 93.6776,80.6873 93.7609,81.2635 94.1776,82.0969C 94.5943,82.9302 95.3442,84.0205 95.6707,83.6143C 95.997,83.208 95.8998,81.3052 95.7228,79.8885C 95.5457,78.4719 95.2887,77.5414 95.0144,76.9929C 94.7401,76.4442 94.4484,76.2776 94.0942,76.3401C 93.7401,76.4026 93.3234,76.6942 93.2296,77.3608 Z "/>
			<radialGradient id="SVGID_Fill7_" cx="79.3339" cy="70.1526" r="16.5938" gradientUnits="userSpaceOnUse">
				<stop offset="0" stop-color="#D3B9A3" stop-opacity="1"/>
				<stop offset="0.990991" stop-color="#FFFFFF" stop-opacity="0"/>
			</radialGradient>
			<path fill="url(#SVGID_Fill7_)" stroke-width="0.2" stroke-linejoin="round" d="M 71.6776,57.267C 70.4485,57.7566 68.5318,58.5482 66.9276,59.517C 65.3235,60.4857 64.0318,61.6316 63.438,63.1523C 62.8443,64.6732 62.9485,66.5691 63.9589,68.0795C 64.9693,69.5898 66.886,70.7148 69.3964,71.6316C 71.9068,72.5482 75.011,73.2566 77.8547,73.9648C 80.6985,74.6732 83.2818,75.3816 85.2089,75.5273C 87.136,75.6732 88.4068,75.2566 89.4797,75.2148C 90.5526,75.1732 91.4276,75.5066 92.1151,76.2566C 92.8026,77.0066 93.3026,78.1732 93.636,79.3711C 93.9693,80.5691 94.136,81.7982 94.4901,82.5586C 94.8443,83.3191 95.386,83.6107 95.636,83.0066C 95.886,82.4023 95.8443,80.9023 95.5005,78.4753C 95.1568,76.0482 94.511,72.6941 92.9485,69.6316C 91.386,66.5691 88.9068,63.7982 86.7089,61.8816C 84.511,59.9648 82.5943,58.9023 80.5214,58.1316C 78.4485,57.3607 76.2193,56.8816 74.8339,56.7357C 73.4485,56.5898 72.9068,56.7773 71.6776,57.267 Z "/>
			<radialGradient id="SVGID_Fill8_" cx="58.0861" cy="80.5247" r="9.13818" gradientUnits="userSpaceOnUse">
				<stop offset="0.432432" stop-color="#70543D" stop-opacity="1"/>
				<stop offset="1" stop-color="#70543D" stop-opacity="0.431373"/>
			</radialGradient>
			<path fill="url(#SVGID_Fill8_)" stroke-width="0.2" stroke-linejoin="round" d="M 49.1458,86.9446C 49.3438,88.6737 49.7604,88.9862 49.9479,89.0555C 50.1354,89.125 50.0938,88.9515 50.118,88.5903L 50.3333,87.0872L 50.6145,85.0559L 50.7395,82.5767C 50.7673,81.8544 50.7951,81.3684 50.8993,80.7294C 51.0034,80.0906 51.184,79.2987 51.4305,78.6909C 51.6771,78.0834 51.9896,77.6599 52.434,77.1356L 53.9618,75.4618C 54.4688,74.9375 54.9063,74.514 55.4549,74.2883C 56.0034,74.0627 56.6631,74.0349 57.3472,74.0278L 59.3576,74.0835C 59.9756,74.1322 60.5034,74.2156 61.0173,74.3822C 61.5312,74.5488 62.0312,74.7988 62.684,75.1044L 64.9618,76.1044L 67.2243,76.9824L 66.5521,74.7987C 65.1354,74.2987 63.9688,73.7987 62.75,73.3196C 61.5313,72.8403 60.2604,72.3821 59.1771,72.1528C 58.0938,71.9237 57.1979,71.9237 56.1563,72.205C 55.1146,72.4862 53.9271,73.0487 52.9167,73.9028C 51.9063,74.7571 51.0729,75.9028 50.4479,76.7883C 49.8229,77.6737 49.4063,78.2987 49.1875,80.1841C 48.9688,82.0696 48.9479,85.2153 49.1458,86.9446 Z "/>
			<radialGradient id="SVGID_Fill9_" cx="71.1979" cy="80.6111" r="22.2708" gradientUnits="userSpaceOnUse">
				<stop offset="0.324324" stop-color="#70543D" stop-opacity="1"/>
				<stop offset="1" stop-color="#70543D" stop-opacity="0"/>
			</radialGradient>
			<path fill="url(#SVGID_Fill9_)" stroke-width="0.2" stroke-linejoin="round" d="M 49.948,89.0552C 49.7605,88.9858 49.3438,88.6733 49.1459,86.9442C 48.948,85.2151 48.9688,82.0692 49.1876,80.1838C 49.4063,78.2983 49.823,77.6733 50.448,76.788C 51.073,75.9026 51.9063,74.7567 52.9167,73.9026C 53.9272,73.0483 55.1147,72.4858 56.1563,72.2046C 57.198,71.9233 58.0938,71.9233 59.1772,72.1526C 60.2605,72.3817 61.5313,72.8401 62.7501,73.3192C 63.9688,73.7983 65.1355,74.2983 66.5522,74.7983C 67.9688,75.2983 69.6355,75.7983 71.4792,76.0588C 73.323,76.3192 75.3438,76.3401 77.4167,76.3713C 79.4897,76.4026 81.6147,76.4442 83.4723,76.5864C 85.33,76.7289 86.9202,76.972 88.1737,77.4408C 89.4272,77.9095 90.3438,78.6039 91.1702,79.451C 91.9966,80.2983 92.7327,81.2983 93.08,82.1387C 93.4272,82.979 93.3854,83.6595 93.3021,83.8921C 93.2188,84.1249 93.0938,83.9097 92.8212,83.3645C 92.5486,82.8193 92.1285,81.9442 91.5956,81.1526C 91.0626,80.3608 90.4167,79.6526 89.6772,79.0952C 88.9376,78.538 88.1042,78.1317 86.8959,77.9233C 85.6876,77.7151 84.1042,77.7046 82.8699,77.7585C 81.6355,77.8124 80.75,77.9304 79.7761,77.972C 78.8021,78.0137 77.7397,77.979 76.7344,78.0762C 75.7292,78.1733 74.7813,78.4026 73.8803,78.512C 72.9792,78.6213 72.1251,78.6108 71.0608,78.347C 69.9966,78.0833 68.7223,77.5658 67.6685,77.1545C 66.6146,76.743 65.7813,76.4374 64.9619,76.104C 64.1424,75.7708 63.3368,75.4097 62.684,75.104C 62.0313,74.7986 61.5313,74.5486 61.0174,74.3818C 60.5035,74.2152 59.9757,74.1318 59.3577,74.0833C 58.7396,74.0347 58.0313,74.0208 57.3473,74.0276C 56.6632,74.0345 56.0035,74.0624 55.455,74.288C 54.9063,74.5137 54.4688,74.9373 53.9619,75.4614C 53.455,75.9858 52.8785,76.6108 52.4341,77.1353C 51.9897,77.6595 51.6772,78.083 51.4306,78.6907C 51.1841,79.2983 51.0035,80.0902 50.8994,80.729C 50.7952,81.368 50.7674,81.854 50.7396,82.5764C 50.7118,83.2986 50.6841,84.2568 50.6146,85.0555C 50.5452,85.854 50.4341,86.493 50.3334,87.0868C 50.2327,87.6804 50.1424,88.229 50.1181,88.5901C 50.0938,88.9512 50.1355,89.1248 49.948,89.0552 Z "/>
		</g>
	</g>
	<g>
		<radialGradient id="SVGID_Fill10_" cx="178.748" cy="158.926" r="58.8167" gradientUnits="userSpaceOnUse">
			<stop offset="0" stop-color="#E0D3C5" stop-opacity="1"/>
			<stop offset="1" stop-color="#E8BE93" stop-opacity="1"/>
		</radialGradient>
		<path fill="url(#SVGID_Fill10_)" stroke-width="0.299998" stroke-linejoin="round" stroke="#D2B291" stroke-opacity="1" d="M 162.467,124.961C 162.603,126.551 162.582,129.718 162.446,132.04C 162.311,134.363 162.061,135.843 161.509,137.072C 160.957,138.301 160.103,139.28 158.321,140.176C 156.54,141.072 153.832,141.884 151.592,142.395C 149.353,142.905 147.582,143.113 144.884,143.613C 142.186,144.113 138.561,144.905 136.04,145.78C 133.519,146.655 132.103,147.613 130.644,149.009C 129.186,150.405 127.686,152.238 126.655,153.78C 125.623,155.322 125.061,156.572 124.044,160.922C 123.026,165.273 121.554,172.724 122.29,177.089C 123.026,181.454 125.971,182.731 136.943,185.453C 147.915,188.176 166.915,192.343 184.797,191.537C 202.679,190.731 219.443,184.954 227.964,181.787C 236.485,178.62 236.762,178.065 236.353,173.204C 235.943,168.343 234.846,159.176 231.627,153.45C 228.408,147.724 223.068,145.44 217.818,143.968C 212.568,142.495 207.408,141.836 203.467,141.034C 199.526,140.231 196.804,139.287 195.082,136.343C 193.36,133.398 192.637,128.454 192.026,125.843C 191.415,123.231 190.915,122.954 186.36,122.731C 181.804,122.509 173.193,122.343 168.415,122.453C 163.637,122.565 162.693,122.954 162.367,123.155C 162.04,123.356 162.332,123.37 162.467,124.961 Z "/>
		<linearGradient id="SVGID_Fill11_" gradientUnits="objectBoundingBox" x1="1.17541" y1="0.540196" x2="2.52859" y2="0.540196" gradientTransform="rotate(217.203827 1.175409 0.540196)">
			<stop offset="0" stop-color="#1F1F1F" stop-opacity="0.670588"/>
			<stop offset="0.23892" stop-color="#1F1F1E" stop-opacity="0.545098"/>
			<stop offset="0.468468" stop-color="#1F1F1E" stop-opacity="0.415686"/>
			<stop offset="0.855856" stop-color="#1F1F1E" stop-opacity="0"/>
		</linearGradient>
		<path fill="url(#SVGID_Fill11_)" stroke-width="0.2" stroke-linejoin="round" d="M 135.474,185.262L 132.849,184.435L 135.474,176.407L 135.474,185.262 Z "/>
		<linearGradient id="SVGID_Fill12_" gradientUnits="objectBoundingBox" x1="-0.175409" y1="0.540196" x2="1.17778" y2="0.540196" gradientTransform="rotate(-37.202816 -0.175409 0.540196)">
			<stop offset="0" stop-color="#1F1F1F" stop-opacity="0.670588"/>
			<stop offset="0.23892" stop-color="#1F1F1E" stop-opacity="0.545098"/>
			<stop offset="0.468468" stop-color="#1F1F1E" stop-opacity="0.415686"/>
			<stop offset="0.855856" stop-color="#1F1F1E" stop-opacity="0"/>
		</linearGradient>
		<path fill="url(#SVGID_Fill12_)" stroke-width="0.2" stroke-linejoin="round" d="M 220.422,184.429L 223.047,183.602L 220.422,175.574L 220.422,184.429 Z "/>
		<linearGradient id="SVGID_Stroke1_" gradientUnits="objectBoundingBox" x1="-0.505203" y1="0.524873" x2="1.50624" y2="0.524873">
			<stop offset="0" stop-color="#B6B6B6" stop-opacity="1"/>
			<stop offset="0.378378" stop-color="#9D948B" stop-opacity="1"/>
			<stop offset="0.695407" stop-color="#999590" stop-opacity="1"/>
			<stop offset="1" stop-color="#969696" stop-opacity="1"/>
		</linearGradient>
		<linearGradient id="SVGID_Fill13_" gradientUnits="objectBoundingBox" x1="-0.517022" y1="0.525374" x2="1.51808" y2="0.525374">
			<stop offset="0" stop-color="#FFFFFF" stop-opacity="1"/>
			<stop offset="0.463964" stop-color="#F5CEAD" stop-opacity="1"/>
			<stop offset="1" stop-color="#FFFFFF" stop-opacity="1"/>
		</linearGradient>
		<path fill="url(#SVGID_Fill13_)" stroke-linejoin="round" stroke="url(#SVGID_Stroke1_)" d="M 137.766,144.923C 139.929,144.336 144.245,143.193 146.273,142.776C 148.3,142.358 148.04,142.666 148.278,149.247C 148.516,155.829 149.252,168.685 149.755,175.3C 150.259,181.915 150.53,182.29 159.592,182.468C 168.655,182.645 186.509,182.624 195.707,182.415C 204.905,182.207 205.446,181.811 205.717,181.447C 205.988,181.082 205.988,180.749 206.415,174.27C 206.842,167.79 207.696,155.165 208.155,148.801C 208.613,142.436 208.676,142.332 208.884,142.218C 209.092,142.103 209.446,141.978 211.313,142.294C 213.179,142.61 216.557,143.367 218.32,143.797C 220.082,144.228 220.228,144.332 220.321,144.551C 220.415,144.77 220.457,145.103 220.511,151.738C 220.564,158.372 220.63,171.308 220.557,177.846C 220.483,184.384 220.269,184.525 220.1,184.692C 219.931,184.858 219.806,185.051 214.081,186.681C 208.356,188.311 197.031,191.379 183.011,191.666C 168.991,191.954 152.276,189.461 143.912,187.73C 135.547,185.999 135.533,185.03 135.537,184.29C 135.54,183.551 135.561,183.04 135.564,176.65C 135.566,170.259 135.551,157.988 135.551,151.829C 135.551,145.671 135.566,145.624 135.579,145.584L 135.613,145.478 Z "/>
		<g>
			<linearGradient id="SVGID_Fill14_" gradientUnits="objectBoundingBox" x1="0.000151945" y1="0.00687371" x2="1.40446" y2="0.00687371" gradientTransform="rotate(8.446095 0.000152 0.006874)">
				<stop offset="0.0045045" stop-color="#E7B58A" stop-opacity="0"/>
				<stop offset="0.486486" stop-color="#E8B68B" stop-opacity="0.670588"/>
				<stop offset="0.746082" stop-color="#E7B58A" stop-opacity="0.337255"/>
				<stop offset="0.995495" stop-color="#E7B58A" stop-opacity="0"/>
			</linearGradient>
			<path fill="url(#SVGID_Fill14_)" stroke-width="0.2" stroke-linejoin="round" d="M 164.122,152.417C 172.079,155.463 178.371,158.342 178.177,158.85C 177.983,159.357 171.376,157.299 163.419,154.254C 155.463,151.209 149.17,148.329 149.364,147.822C 149.558,147.314 156.165,149.372 164.122,152.417 Z "/>
			<linearGradient id="SVGID_Fill15_" gradientUnits="objectBoundingBox" x1="0.000272641" y1="0.012126" x2="1.39705" y2="0.012126" gradientTransform="rotate(8.533600 0.000273 0.012126)">
				<stop offset="0.0045045" stop-color="#D3C5B5" stop-opacity="0"/>
				<stop offset="0.486486" stop-color="#ECCAA4" stop-opacity="1"/>
				<stop offset="0.746082" stop-color="#DFC2A2" stop-opacity="0.501961"/>
				<stop offset="0.995495" stop-color="#D3BBA0" stop-opacity="0"/>
			</linearGradient>
			<path fill="url(#SVGID_Fill15_)" stroke-width="0.2" stroke-linejoin="round" d="M 164.033,153.101C 172.174,156.217 178.557,159.307 178.29,160.002C 178.024,160.698 171.209,158.736 163.069,155.62C 154.929,152.505 148.546,149.415 148.812,148.72C 149.078,148.024 155.893,149.985 164.033,153.101 Z "/>
		</g>
		<g>
			<linearGradient id="SVGID_Fill16_" gradientUnits="objectBoundingBox" x1="0.999848" y1="0.0068749" x2="2.40416" y2="0.0068749" gradientTransform="rotate(171.554092 0.999848 0.006875)">
				<stop offset="0.0045045" stop-color="#E7B58A" stop-opacity="0"/>
				<stop offset="0.486486" stop-color="#E8B68B" stop-opacity="0.670588"/>
				<stop offset="0.746082" stop-color="#E7B58A" stop-opacity="0.337255"/>
				<stop offset="0.995495" stop-color="#E7B58A" stop-opacity="0"/>
			</linearGradient>
			<path fill="url(#SVGID_Fill16_)" stroke-width="0.2" stroke-linejoin="round" d="M 191.68,152.115C 185.629,154.679 180.843,157.103 180.991,157.53C 181.139,157.957 186.164,156.225 192.215,153.661C 198.265,151.098 203.051,148.673 202.903,148.246C 202.756,147.819 197.731,149.551 191.68,152.115 Z "/>
			<linearGradient id="SVGID_Fill17_" gradientUnits="objectBoundingBox" x1="0.999728" y1="0.0121282" x2="2.39651" y2="0.0121282" gradientTransform="rotate(171.466476 0.999728 0.012128)">
				<stop offset="0.0045045" stop-color="#D3C5B5" stop-opacity="0"/>
				<stop offset="0.486486" stop-color="#ECCAA4" stop-opacity="1"/>
				<stop offset="0.746082" stop-color="#DFC2A2" stop-opacity="0.501961"/>
				<stop offset="0.995495" stop-color="#D3BBA0" stop-opacity="0"/>
			</linearGradient>
			<path fill="url(#SVGID_Fill17_)" stroke-width="0.2" stroke-linejoin="round" d="M 191.747,152.691C 185.556,155.314 180.702,157.915 180.905,158.5C 181.107,159.086 186.29,157.434 192.481,154.812C 198.672,152.189 203.526,149.588 203.324,149.002C 203.121,148.416 197.939,150.068 191.747,152.691 Z "/>
		</g>
		<radialGradient id="SVGID_Fill18_" cx="179.6" cy="157.262" r="5.34723" gradientUnits="userSpaceOnUse">
			<stop offset="0" stop-color="#E3DBD3" stop-opacity="1"/>
			<stop offset="0.990991" stop-color="#FFFFFF" stop-opacity="0"/>
		</radialGradient>
		<path fill="url(#SVGID_Fill18_)" stroke-width="0.2" stroke-linejoin="round" d="M 179.6,153.678C 182.442,153.678 184.745,155.283 184.745,157.262C 184.745,159.241 182.441,160.845 179.6,160.845C 176.758,160.845 174.454,159.241 174.454,157.262C 174.454,155.283 176.757,153.678 179.6,153.678 Z "/>
		<g>
			<linearGradient id="SVGID_Fill19_" gradientUnits="objectBoundingBox" x1="0.541847" y1="0.689467" x2="0.936743" y2="0.689467" gradientTransform="rotate(268.140594 0.541847 0.689467)">
				<stop offset="0" stop-color="#5A310F" stop-opacity="1"/>
				<stop offset="0.536036" stop-color="#713400" stop-opacity="1"/>
				<stop offset="1" stop-color="#46390F" stop-opacity="1"/>
			</linearGradient>
			<path fill="url(#SVGID_Fill19_)" stroke-width="0.2" stroke-linejoin="round" d="M 193.005,120.966C 191.978,125.105 192.144,129.383 192.061,133.66C 191.978,137.938 191.644,142.216 191.2,146.091C 190.755,149.966 190.2,153.438 189.394,157.216C 188.589,160.994 187.533,165.077 186.686,168.091C 185.839,171.105 185.2,173.049 185.047,174.494C 184.894,175.938 185.228,176.882 186.228,177.604C 187.228,178.327 188.894,178.827 191.991,178.883C 195.089,178.938 199.616,178.549 203.019,177.299C 206.422,176.049 208.7,173.938 209.797,172.452C 210.894,170.966 210.811,170.105 210.505,168.883C 210.2,167.66 209.672,166.077 208.797,162.98C 207.922,159.883 206.7,155.271 205.325,151.591C 203.95,147.91 202.422,145.16 201.575,142.577C 200.728,139.994 200.561,137.577 200.325,135.091C 200.089,132.605 199.783,130.049 199.651,126.403C 199.519,122.758 199.561,118.021 199.478,115.077C 199.394,112.133 199.186,110.98 198.998,110.237C 198.811,109.494 198.644,109.16 197.45,110.994C 196.255,112.827 194.033,116.827 193.005,120.966 Z "/>
			<g>
				<path fill="#3F2305" fill-opacity="0.623529" stroke-width="0.2" stroke-linejoin="round" d="M 209.017,168.148C 208.059,165.461 206.169,159.978 204.397,154.31C 202.625,148.643 200.971,142.791 200.211,139.906C 199.451,137.022 199.585,137.104 200.174,139.123C 200.764,141.143 201.808,145.101 202.668,148.072C 203.527,151.042 204.201,153.027 204.888,155.058C 205.575,157.089 206.275,159.168 207.134,161.769C 207.992,164.37 209.009,167.492 209.504,169.108C 210,170.724 209.974,170.835 209.017,168.148 Z "/>
				<radialGradient id="SVGID_Fill20_" cx="204.714" cy="153.941" r="19.3578" gradientUnits="userSpaceOnUse" gradientTransform="rotate(73.338646 204.713593 153.941406)">
					<stop offset="0" stop-color="#5C512B" stop-opacity="0.623529"/>
					<stop offset="1" stop-color="#88694D" stop-opacity="0.623529"/>
				</radialGradient>
				<path fill="url(#SVGID_Fill20_)" stroke-width="0.2" stroke-linejoin="round" d="M 208.468,168.364C 207.166,165.698 204.8,160.191 203.045,154.488C 201.29,148.785 200.147,142.887 199.726,140.015C 199.305,137.142 199.606,137.296 200.195,139.316C 200.784,141.336 201.663,145.222 202.405,148.163C 203.147,151.104 203.753,153.1 204.404,155.128C 205.055,157.157 205.751,159.218 206.732,161.815C 207.713,164.412 208.979,167.546 209.494,169.2C 210.008,170.855 209.771,171.03 208.468,168.364 Z "/>
			</g>
			<g>
				<path fill="#3F2305" fill-opacity="0.623529" stroke-width="0.2" stroke-linejoin="round" d="M 192.239,171.329C 192.551,168.144 193.113,161.665 193.487,155.025C 193.861,148.385 194.046,141.583 194.073,138.247C 194.101,134.911 193.972,135.041 193.887,137.395C 193.802,139.748 193.761,144.325 193.645,147.784C 193.529,151.243 193.337,153.584 193.143,155.981C 192.95,158.377 192.756,160.828 192.532,163.89C 192.309,166.951 192.056,170.622 191.961,172.512C 191.865,174.403 191.927,174.513 192.239,171.329 Z "/>
				<radialGradient id="SVGID_Fill21_" cx="193.017" cy="154.727" r="33.7034" gradientUnits="userSpaceOnUse" gradientTransform="rotate(92.440063 193.016815 154.726929)">
					<stop offset="0" stop-color="#5C512B" stop-opacity="0.623529"/>
					<stop offset="1" stop-color="#88694D" stop-opacity="0.623529"/>
				</radialGradient>
				<path fill="url(#SVGID_Fill21_)" stroke-width="0.2" stroke-linejoin="round" d="M 192.929,171.391C 193.641,168.122 194.742,161.469 195.085,154.796C 195.429,148.123 195.015,141.43 194.659,138.213C 194.303,134.996 194.004,135.255 193.919,137.608C 193.834,139.961 193.963,144.41 193.972,147.801C 193.981,151.191 193.87,153.524 193.717,155.906C 193.564,158.288 193.37,160.719 193.005,163.814C 192.641,166.91 192.106,170.67 192,172.608C 191.894,174.545 192.217,174.66 192.929,171.391 Z "/>
			</g>
			<g>
				<path fill="#3F2305" fill-opacity="0.623529" stroke-width="0.2" stroke-linejoin="round" d="M 198.816,174.086C 198.878,172.457 198.959,169.149 198.915,165.779C 198.871,162.41 198.701,158.979 198.578,157.303C 198.455,155.626 198.379,155.705 198.424,156.894C 198.47,158.083 198.637,160.384 198.71,162.131C 198.782,163.878 198.76,165.072 198.739,166.294C 198.718,167.516 198.699,168.766 198.687,170.324C 198.675,171.883 198.671,173.75 198.691,174.708C 198.71,175.667 198.753,175.716 198.816,174.086 Z "/>
				<radialGradient id="SVGID_Fill22_" cx="198.606" cy="165.678" r="19.8141" gradientUnits="userSpaceOnUse" gradientTransform="rotate(91.001083 198.606476 165.677734)">
					<stop offset="0" stop-color="#5C512B" stop-opacity="0.623529"/>
					<stop offset="1" stop-color="#88694D" stop-opacity="0.623529"/>
				</radialGradient>
				<path fill="url(#SVGID_Fill22_)" stroke-width="0.2" stroke-linejoin="round" d="M 199.253,174.046C 199.564,172.333 199.977,168.883 199.913,165.5C 199.848,162.117 199.306,158.802 198.946,157.225C 198.586,155.648 198.408,155.808 198.454,156.997C 198.499,158.187 198.768,160.405 198.917,162.105C 199.065,163.805 199.093,164.987 199.097,166.198C 199.102,167.408 199.081,168.647 198.982,170.238C 198.883,171.828 198.704,173.769 198.719,174.752C 198.734,175.735 198.942,175.759 199.253,174.046 Z "/>
			</g>
		</g>
		<radialGradient id="SVGID_Fill23_" cx="177.254" cy="101.727" r="35.125" gradientUnits="userSpaceOnUse">
			<stop offset="0" stop-color="#F4E0CB" stop-opacity="1"/>
			<stop offset="1" stop-color="#9D8062" stop-opacity="1"/>
		</radialGradient>
		<path fill="url(#SVGID_Fill23_)" stroke-width="0.2" stroke-linejoin="round" d="M 177.254,66.6019C 189.956,66.6019 200.254,82.3279 200.254,101.727C 200.254,108.849 198.598,115.824 195.837,120.935C 189.67,132.352 185.293,136.852 177.254,136.852C 170.594,136.852 165.37,131.51 161.17,124.602C 157.359,118.333 154.254,110.955 154.254,101.727C 154.254,82.3279 164.551,66.6019 177.254,66.6019 Z "/>
		<g>
			<radialGradient id="SVGID_Fill24_" cx="200.816" cy="103.613" r="8.625" gradientUnits="userSpaceOnUse">
				<stop offset="0" stop-color="#E0D3C5" stop-opacity="1"/>
				<stop offset="1" stop-color="#E8BE93" stop-opacity="1"/>
			</radialGradient>
			<path fill="url(#SVGID_Fill24_)" stroke-width="0.299998" stroke-linejoin="round" stroke="#D2B291" stroke-opacity="1" d="M 198.889,110.863C 199.566,109.759 200.691,107.279 201.566,105.019C 202.441,102.759 203.066,100.717 203.41,99.2064C 203.754,97.696 203.816,96.7168 203.712,96.1023C 203.608,95.4877 203.337,95.2377 203.066,95.1752C 202.795,95.1127 202.525,95.2377 201.983,96.1023C 201.441,96.9668 200.629,98.571 199.879,101.248C 199.129,103.925 198.441,107.675 198.212,109.686C 197.983,111.696 198.212,111.967 198.889,110.863 Z "/>
			<radialGradient id="SVGID_Fill25_" cx="153.878" cy="104.148" r="8.625" gradientUnits="userSpaceOnUse" gradientTransform="rotate(180.000000 153.877808 104.148193)">
				<stop offset="0" stop-color="#E0D3C5" stop-opacity="1"/>
				<stop offset="1" stop-color="#E8BE93" stop-opacity="1"/>
			</radialGradient>
			<path fill="url(#SVGID_Fill25_)" stroke-width="0.299998" stroke-linejoin="round" stroke="#D2B291" stroke-opacity="1" d="M 155.749,111.439C 155.017,110.376 153.781,107.979 152.865,105.787C 151.948,103.595 151.351,101.609 151.063,100.058C 150.774,98.5063 150.795,97.3896 150.94,96.7064C 151.086,96.0229 151.357,95.7729 151.628,95.7104C 151.899,95.6479 152.169,95.7729 152.711,96.6376C 153.253,97.5022 154.065,99.1063 154.815,101.783C 155.565,104.46 156.253,108.21 156.482,110.221C 156.711,112.231 156.482,112.502 155.749,111.439 Z "/>
			<radialGradient id="SVGID_Fill26_" cx="177.254" cy="98.7269" r="35.125" gradientUnits="userSpaceOnUse">
				<stop offset="0" stop-color="#F4E0CB" stop-opacity="1"/>
				<stop offset="1" stop-color="#E8BE93" stop-opacity="1"/>
			</radialGradient>
			<path fill="url(#SVGID_Fill26_)" stroke-linejoin="round" stroke="#D2B291" stroke-opacity="1" d="M 177.254,63.6023C 189.956,63.6023 200.254,79.3281 200.254,98.7273C 200.254,105.849 198.598,112.824 195.837,117.936C 189.67,129.352 185.293,133.852 177.254,133.852C 170.594,133.852 165.37,128.51 161.17,121.602C 157.359,115.334 154.254,107.956 154.254,98.7273C 154.254,79.3281 164.551,63.6023 177.254,63.6023 Z "/>
		</g>
		<g>
			<radialGradient id="SVGID_Fill27_" cx="177.129" cy="82.332" r="25.25" gradientUnits="userSpaceOnUse">
				<stop offset="0" stop-color="#46390F" stop-opacity="1"/>
				<stop offset="0.986486" stop-color="#4C3016" stop-opacity="1"/>
			</radialGradient>
			<path fill="url(#SVGID_Fill27_)" stroke-width="0.2" stroke-linejoin="round" d="M 153.955,100.644C 153.588,99.9882 153.255,98.7382 153.041,97.8232C 152.828,96.9084 152.733,96.3285 152.483,95.7834C 152.233,95.2383 151.827,94.7279 151.639,93.5717C 151.452,92.4154 151.483,90.6133 151.57,89.0126C 151.656,87.4119 151.799,86.0126 152.502,83.4832C 153.205,80.9535 154.469,77.2938 156.809,74.0542C 159.149,70.8147 162.566,67.9954 165.757,66.2627C 168.948,64.53 171.913,63.884 175.104,63.7173C 178.295,63.5507 181.712,63.8632 184.587,64.6444C 187.462,65.4257 189.795,66.6757 192.441,68.9569C 195.087,71.2382 198.045,74.5507 199.691,77.4882C 201.337,80.4257 201.67,82.9882 201.9,86.1132C 202.129,89.2382 202.254,92.9257 202.222,95.4465C 202.191,97.9673 202.004,99.3215 201.795,100.009C 201.587,100.697 201.358,100.717 200.775,100.686C 200.191,100.655 199.254,100.572 198.733,99.8423C 198.212,99.1132 198.108,97.7382 197.92,96.3007C 197.733,94.8632 197.462,93.3632 196.493,91.509C 195.525,89.6548 193.858,87.4465 192.066,85.5819C 190.275,83.7173 188.358,82.1965 187.108,81.2694C 185.858,80.3423 185.275,80.009 185.15,79.4153C 185.025,78.8215 185.358,77.9673 185.785,76.9257C 186.212,75.884 186.733,74.6548 186.952,73.4257C 187.17,72.1965 187.087,70.9673 186.983,70.4569C 186.879,69.9465 186.754,70.1548 186.577,70.811C 186.4,71.4673 186.17,72.5715 185.587,73.936C 185.004,75.3007 184.066,76.9257 182.941,78.259C 181.816,79.5923 180.504,80.634 178.597,81.5194C 176.691,82.4048 174.191,83.134 172.066,83.8735C 169.941,84.6132 168.191,85.3632 166.462,86.4985C 164.733,87.634 163.025,89.1548 161.493,90.5715C 159.962,91.9882 158.608,93.3007 157.733,94.3215C 156.858,95.3423 156.462,96.0715 156.202,97.1235C 155.941,98.1757 155.816,99.5507 155.66,100.322C 155.504,101.092 155.316,101.259 155.021,101.311C 154.726,101.363 154.323,101.301 153.955,100.644 Z "/>
			<linearGradient id="SVGID_Fill28_" gradientUnits="objectBoundingBox" x1="0.124294" y1="0.693625" x2="0.969553" y2="0.693625" gradientTransform="rotate(-27.924204 0.124294 0.693625)">
				<stop offset="0" stop-color="#623507" stop-opacity="0"/>
				<stop offset="0.315315" stop-color="#723400" stop-opacity="0.368627"/>
				<stop offset="0.635135" stop-color="#643807" stop-opacity="0.368627"/>
				<stop offset="0.816622" stop-color="#5C3609" stop-opacity="0.184314"/>
				<stop offset="0.990991" stop-color="#54340C" stop-opacity="0"/>
			</linearGradient>
			<path fill="url(#SVGID_Fill28_)" stroke-width="0.2" stroke-linejoin="round" d="M 176.835,66.1683L 180.313,72.8132C 181.337,74.7704 180.581,77.1875 178.624,78.2122L 172.531,81.4014C 170.574,82.4257 168.157,81.6697 167.132,79.7123L 163.654,73.0676C 162.63,71.1102 163.386,68.6931 165.343,67.6688L 171.436,64.4795C 173.393,63.455 175.811,64.2112 176.835,66.1683 Z "/>
			<radialGradient id="SVGID_Fill29_" cx="171.149" cy="82.3738" r="15.4792" gradientUnits="userSpaceOnUse">
				<stop offset="0" stop-color="#A6977B" stop-opacity="1"/>
				<stop offset="0.986486" stop-color="#8B592D" stop-opacity="1"/>
			</radialGradient>
			<path fill="url(#SVGID_Fill29_)" stroke-width="0.2" stroke-linejoin="round" d="M 156.754,92.7869C 157.754,91.5228 159.712,89.1619 161.872,87.2244C 164.031,85.2869 166.393,83.7728 168.656,82.6132C 170.92,81.4535 173.087,80.6478 174.913,80.0645C 176.74,79.4812 178.226,79.1201 179.809,78.0645C 181.393,77.009 183.073,75.259 184.226,73.8597C 185.379,72.4603 186.004,71.4119 185.775,71.9187C 185.545,72.4257 184.462,74.4882 183.302,76.0957C 182.143,77.7035 180.906,78.8562 179.156,79.6687C 177.406,80.4812 175.143,80.9535 172.948,81.7103C 170.754,82.4673 168.629,83.509 166.573,84.7937C 164.518,86.0785 162.531,87.6062 160.92,89.1478C 159.309,90.6895 158.073,92.2451 157.261,93.1201C 156.448,93.9951 156.059,94.1895 155.886,94.2035C 155.712,94.2173 155.754,94.0507 156.754,92.7869 Z "/>
			<radialGradient id="SVGID_Fill30_" cx="170.274" cy="78.0613" r="10.5938" gradientUnits="userSpaceOnUse">
				<stop offset="0" stop-color="#5C512B" stop-opacity="0.623529"/>
				<stop offset="1" stop-color="#88694D" stop-opacity="0.623529"/>
			</radialGradient>
			<path fill="url(#SVGID_Fill30_)" stroke-width="0.2" stroke-linejoin="round" d="M 178.816,73.061C 176.847,73.3632 172.952,74.1965 169.441,75.9882C 165.931,77.7798 162.806,80.5298 161.347,81.9569C 159.889,83.384 160.097,83.4882 161.241,82.6835C 162.386,81.8788 164.465,80.1654 166.16,78.9744C 167.854,77.7834 169.163,77.115 170.426,76.5029C 171.688,75.891 172.903,75.3353 174.636,74.7972C 176.368,74.259 178.618,73.7382 179.722,73.3632C 180.827,72.9882 180.785,72.759 178.816,73.061 Z "/>
			<radialGradient id="SVGID_Fill31_" cx="168.51" cy="72.8304" r="14.3542" gradientUnits="userSpaceOnUse">
				<stop offset="0" stop-color="#5C512B" stop-opacity="0.533333"/>
				<stop offset="1" stop-color="#88694D" stop-opacity="0.533333"/>
			</radialGradient>
			<path fill="url(#SVGID_Fill31_)" stroke-width="0.2" stroke-linejoin="round" d="M 182.014,67.0204C 179.799,66.4301 175.425,65.6287 170.422,68.0005C 165.419,70.3724 159.787,75.9174 157.112,78.7761C 154.438,81.635 154.72,81.8074 156.27,80.4763C 157.821,79.1453 160.639,76.311 162.935,74.3408C 165.23,72.3708 167.004,71.2651 168.996,70.1327C 170.987,69 173.196,67.8406 175.79,67.5422C 178.384,67.2437 181.363,67.8064 182.824,67.8982C 184.286,67.9896 184.229,67.6106 182.014,67.0204 Z "/>
		</g>
	</g>
</svg>
