<?xml version="1.0" encoding="utf-8"?>
<!DOCTYPE svg PUBLIC "-//W3C//DTD SVG 1.1//EN" "http://www.w3.org/Graphics/SVG/1.1/DTD/svg11.dtd">
<svg x="0" y="0" width="32" height="24" overflow="hidden" viewBox="0, 0, 600, 450" preserveAspectRatio="xMidYMid" font-size="0" id="svg" xml:space="default" xmlns="http://www.w3.org/2000/svg" xmlns:xlink="http://www.w3.org/1999/xlink" xmlns:xml="http://www.w3.org/XML/1998/namespace" version="1.1">
  <defs id="def1" xml:space="default">
    <linearGradient x1="0%" y1="0%" x2="100%" y2="0%" gradientUnits="objectBoundingBox" id="linearGradient4135" xml:space="default">
      <stop offset="0%" stop-color="#FFFFFF" stop-opacity="1" id="stop4137" xml:space="default" />
      <stop offset="100%" stop-color="#E3E936" stop-opacity="0" id="stop4139" xml:space="default" />
    </linearGradient>
    <linearGradient x1="0%" y1="0%" x2="100%" y2="0%" gradientUnits="objectBoundingBox" id="linearGradient4123" xml:space="default">
      <stop offset="0%" stop-color="#FFC378" stop-opacity="1" id="stop4125" xml:space="default" />
      <stop offset="100%" stop-color="#FFC378" stop-opacity="0" id="stop4127" xml:space="default" />
    </linearGradient>
    <linearGradient x1="0%" y1="0%" x2="100%" y2="0%" gradientUnits="objectBoundingBox" id="linearGradient3127" xml:space="default">
      <stop offset="0%" stop-color="#000000" stop-opacity="1" id="stop3129" xml:space="default" />
      <stop offset="100%" stop-color="#FF8D00" stop-opacity="0" id="stop3131" xml:space="default" />
    </linearGradient>
    <linearGradient x1="322" y1="547.47" x2="322" y2="430.89" gradientUnits="userSpaceOnUse" xlink:href="#linearGradient3127" id="linearGradient3133" xml:space="default" />
    <linearGradient x1="322" y1="580.64" x2="322" y2="440.91" gradientUnits="userSpaceOnUse" xlink:href="#linearGradient3127" gradientTransform="matrix(1, 0, 0, -1, 0, 1092.641)" id="linearGradient4114" xml:space="default" />
    <linearGradient x1="257.72" y1="749.53" x2="257.72" y2="604.27" gradientUnits="userSpaceOnUse" xlink:href="#linearGradient4123" gradientTransform="matrix(0.984086, 0, 0, 1.002227, 2.154329, -1.653368)" id="linearGradient4129" xml:space="default" />
    <radialGradient cx="404" cy="230" r="154" fx="404" fy="230" gradientUnits="userSpaceOnUse" xlink:href="#linearGradient4135" id="radialGradient4141" xml:space="default" />
  </defs>
  <g transform="translate(-73.72015, -292.3622)" id="layer1" xml:space="default">
    <rect x="74.14" y="-742.36" width="600" height="254.57" rx="68" ry="68" transform="scale(1, -1)" id="rect3163" xml:space="default" style="fill:#C48A20;" />
    <rect x="74.98" y="292.36" width="598.32" height="254.57" rx="68" ry="68" id="rect2184" xml:space="default" style="fill:#ABB400;" />
    <path d="M141.89 741.84 C117.15 741.84 95.63 728.3 84.05 708.08 L494.51 514.8 L178.37 741.84 L141.89 741.84 z M494.51 514.8 L308.7 741.84 L227.05 741.84 L494.51 514.8 z M494.51 514.8 L391.45 741.84 L337.33 741.84 L494.51 514.8 z M494.51 514.8 L455.94 741.84 L412.55 741.84 L494.51 514.8 z M494.51 514.8 L514.74 741.84 L474.27 741.84 L494.51 514.8 z M494.51 514.8 L576.46 741.84 L533.07 741.84 L494.51 514.8 z M494.51 514.8 L643.72 730.31 C633.06 737.6 620.24 741.84 606.38 741.84 L597.56 741.84 L494.51 514.8 z M494.51 514.8 L673.3 666.58 L673.3 673.69 C673.3 689.63 667.97 704.26 659.03 715.84 L494.51 514.8 z M494.51 514.8 L673.3 598.99 L673.3 643.21 L494.51 514.8 z M494.51 514.8 L672.69 546.18 C673.09 549.21 673.3 552.29 673.3 555.42 L673.3 581.76 L494.51 514.8 z M494.51 514.8 L75.04 553.61 L494.51 514.8 z M494.51 514.8 L74.98 671.9 L74.98 588.69 L494.51 514.8 z" id="path3169" xml:space="default" style="fill:url(#linearGradient4129);" />
    <path d="M141.89 292.38 C117.15 292.38 95.63 305.91 84.05 326.14 L494.51 519.41 L178.37 292.38 L141.89 292.38 z M494.51 519.41 L308.7 292.38 L227.05 292.38 L494.51 519.41 z M494.51 519.41 L391.45 292.38 L337.33 292.38 L494.51 519.41 z M494.51 519.41 L455.94 292.38 L412.55 292.38 L494.51 519.41 z M494.51 519.41 L514.74 292.38 L474.27 292.38 L494.51 519.41 z M494.51 519.41 L576.46 292.38 L533.07 292.38 L494.51 519.41 z M494.51 519.41 L643.72 303.9 C633.06 296.61 620.24 292.38 606.38 292.38 L597.56 292.38 L494.51 519.41 z M494.51 519.41 L673.3 367.64 L673.3 360.53 C673.3 344.59 667.97 329.95 659.03 318.37 L494.51 519.41 z M494.51 519.41 L673.3 435.22 L673.3 391 L494.51 519.41 z M494.51 519.41 L672.69 488.03 C673.09 485 673.3 481.93 673.3 478.79 L673.3 452.45 L494.51 519.41 z M494.51 519.41 L75.04 480.61 C75.98 517.51 105.42 546.94 141.89 546.94 L196.82 546.94 L494.51 519.41 z M494.51 519.41 L74.98 362.31 L74.98 445.53 L494.51 519.41 z" id="path2158" xml:space="default" style="fill:#E3E936;" />
    <path d="M558 230 C558 315.0518 489.0518 384 404 384 C318.9482 384 250 315.0518 250 230 C250 144.9482 318.9482 76 404 76 C489.0518 76 558 144.9482 558 230 L558 230 z" transform="matrix(1.571429, 0, 0, 1.571429, -148.137, 150.9336)" id="path4133" xml:space="default" style="fill:url(#radialGradient4141);" />
    <path d="M176.03 453.31 C176.06 454.49 175.6 455.06 174.75 455.63 C174.6 457.35 173.4 454.45 172.38 455.78 C170.65 457.36 172.68 460.34 170.81 461.63 C170.93 462.8 170.94 462.98 170 462 C168.16 461.12 168.62 463.93 169.22 464.66 C168.54 465.31 168.28 465.63 167.53 464.72 C165.17 464.51 167.17 468.21 166.69 469.44 C165.71 468.92 162.88 468.67 164.06 470.5 C164.45 471.7 165.28 474.97 163.38 473.22 C162.17 472.24 158.53 473.91 160.38 475.09 C162.3 475.29 162.83 478.89 160.72 479.03 C160.27 479.94 160.6 481.29 159.25 481.66 C157.93 481.87 156.13 482.3 156.88 484.13 C156.7 485.09 158.46 486.12 158 486.63 C155.24 487.02 152.47 485.48 149.63 485.63 C147.15 485.6 145.07 484.81 142.97 484 C141.37 484.2 141.9 482.62 143.22 482.81 C144.84 481.73 142.67 480.15 141.38 480.69 C140.19 480.9 138.17 479.87 139.47 478.63 C140.11 477.51 138.51 475.42 140.44 475.63 C142.19 475.37 141.61 472.9 139.81 473.63 C138.41 473.93 137.9 473.04 137.69 471.97 C137.12 471.23 135.72 472.25 136.5 470.69 C137.03 469.5 136.32 468.33 135.56 467.94 C135.48 466.06 135.01 463.38 133.06 463 C131.76 461.79 133.72 460.65 132.81 459.28 C132.07 457.7 131.28 454.71 129.19 454.78 C128.3 455.8 128.13 456.03 127.44 454.78 C126.34 453.49 125.2 455.37 125.81 456.31 C124.48 456.2 122.72 456.01 121.66 456.44 C121.14 455.1 119.72 454.99 118.97 456.03 C116.62 455.92 118.39 459.73 116.97 460.78 C116.42 462.09 116.42 463.72 116.66 465.03 C115.12 463.2 114.13 466.36 114.31 467.62 C114.76 469.92 112.11 470.8 112.09 472.75 C112.19 473.38 110.82 474.05 111.56 475.06 C111.66 476.38 111.46 478.84 109.53 477.72 C108.08 476.79 104.79 478.44 104.84 475.94 C103.98 474.41 103.06 472 101.22 471.63 C100.4 472.47 101.32 474.13 99.66 474 C98.1 474.61 97.29 476.31 96.56 477.41 C95.25 477.55 96.16 479.33 94.47 479.38 C93.16 480.31 91.08 480.33 91.03 478.34 C91 477.08 89.27 476.91 88.97 476.44 C89.75 475.72 90.75 473.88 88.84 474.16 C88.06 474.24 85.49 474.78 87.41 474.13 C88.52 473.27 85.67 473.29 86.88 472.19 C88.13 470.6 85.86 470.16 85.28 469.44 C86.1 468.39 85.2 467.17 84.22 467.59 C83.9 465.98 81.63 468.17 81.03 466.41 C80.1 465.63 80.07 462.16 78.41 463.81 C77.47 464.86 77.37 467.39 76.06 467.63 C74.2 465.99 73.37 469 73.78 470.47 C73.62 472.46 74.89 473.88 74.06 475.72 C73.25 499.64 73.79 523.6 73.63 547.53 C273.96 547.53 474.29 547.53 674.63 547.53 C674.63 525.7 674.63 503.86 674.63 482.03 C673.53 482.19 675.15 480.36 674.56 479.44 C674.05 476.92 675.64 473.13 672.37 472.22 C668.51 469.9 664.75 467.29 660.84 465.13 C646.59 466.2 632.26 466.44 618.06 468 C613.24 469.15 608.84 472.57 603.6 471.33 C600.09 471.36 595.81 469.25 592.69 471.34 C591.89 472.22 592.93 473.33 591.53 473.59 C589.76 475.22 588.58 477.82 586.19 475.08 C583.01 473.63 580.24 470.31 576.45 471.52 C565.42 472.16 554.35 473.46 543.31 472.78 C537.34 472.33 531.13 470.73 525.38 470.44 C524.16 471.84 522.56 473.7 522.25 475.28 C517.89 479.34 513.68 484.45 510.5 489.5 C508.36 488.9 507.03 493.3 509.88 492.88 C511.52 493.24 510.4 496.02 510.44 497.25 C510.23 500.26 507.61 502.81 507.66 505.72 C508.69 506.08 509.99 506.36 510.19 507.78 C510.88 509.55 511.12 512.03 510.19 513.66 C508.81 512.37 506.87 514.66 508.38 515.69 C507.33 516.56 507.9 513.73 507.06 513.22 C506.42 511.76 505.26 512.66 504.69 513.53 C503.73 514.02 505.45 511.86 503.19 512.4 C501.82 512.22 499.51 512.3 498.66 511.53 C499.63 511.15 501.42 512.57 501.47 510.78 C502.89 509.49 500.63 507.14 499.94 509.13 C500.22 510.32 497.71 509.56 498.53 508.31 C498.69 505.21 498.49 501.1 498.88 498.56 C500.07 499.31 503.83 498.63 502.22 496.78 C501.11 496.13 499.52 496.86 498.75 497.75 C497.74 494.17 500.35 495.21 502.72 495.16 C504.57 495.28 503.93 493.03 502.38 493.31 C501.03 492.87 498.16 494.05 498.78 491.66 C497.93 488.82 502.68 491.9 502.31 489.28 C499.55 487.1 495.38 488.26 492.16 488.59 C493.54 489.57 497.67 489.78 496.97 492.22 C496.23 493.04 493.24 492.5 494.34 494.06 C496.94 494.24 496.43 497.18 496.47 499.06 C495.77 501.43 498.11 505.96 494.84 506.5 C493.72 506.45 491.94 509.51 492.34 507.13 C492.33 505.47 493.91 504.38 493.19 502.47 C491.57 500.55 493.02 497.33 491.59 495.19 C489.69 495.56 490.76 498.73 490.29 500.19 C490.04 503.7 490.55 507.63 488.88 510.75 C489.52 511.49 488.03 513.53 487.69 511.69 C486.38 502.93 487.93 493.69 486.5 484.91 C485.08 483.78 485.09 486.23 484.44 486.66 C483.11 486.74 483.53 487.74 484.38 488.19 C485.16 495.49 484.92 502.94 484.59 510.28 C484.55 511.55 482.26 510.67 482.38 512.28 C481.85 513.43 482.95 515.49 481.28 515.53 C480.21 516.06 480.28 518.08 478.99 516.41 C477.84 515.67 476.24 514.81 476.59 513.34 C475.31 513.3 475.88 512.05 475.66 510.84 C475.66 508.87 474.16 503.66 473.98 508.19 C473.68 509.69 474.38 512.31 473.53 513.38 C472.04 512.65 470.12 513.51 469.16 514 C468.86 512.74 467.7 513.31 467.19 514 C465.06 514.86 463.55 512.07 464.94 510.69 C466.37 511.03 467.66 509.51 465.81 509.16 C464.26 507.36 465.33 504.1 464.97 501.84 C464.85 493.31 465.86 484.66 465 476.19 C464.43 474.67 462.68 475.82 463.03 477.19 C462.46 486.23 463.04 495.51 461.53 504.41 C460.27 504.43 460.43 506.07 459.09 505.94 C458.22 506.47 458.54 508.3 457.69 506.75 C456.19 505.59 454.84 508.34 454.59 509.56 C455.5 511.79 459.16 509.8 460.53 511.03 C461.16 514.39 458.46 513.53 456.16 513.18 C454.14 513.36 451.96 512.35 452.31 510.06 C451.81 504.35 452.92 498.26 451.5 492.75 C449.76 492.08 450.28 495.52 450.05 496.62 C449.67 501.89 450.39 507.35 449.41 512.5 C444.05 512.56 438.51 512.48 433.25 511.56 C432.47 510.95 432.53 508.15 431.31 509.59 C431.28 510.56 431.42 512.61 429.91 511.53 C428.63 510.8 426.62 509.72 425.78 511.59 C424.14 513.27 424.26 510.19 424.41 509.59 C425.73 511.3 428.19 507.51 425.63 507.72 C424.73 507.75 424.01 509.8 424.28 507.81 C424.64 502.5 423.57 496.87 425.06 491.75 C425.62 490.64 429.15 487.75 426.53 488.34 C425.48 489.19 424.38 490.74 423.09 489.66 C421.39 490.98 422.5 494.31 422.13 496.34 C421.83 500 422.74 504.26 421 507.56 C419.87 507.95 417.88 509.2 418.54 507.03 C419.01 505.96 418.07 503.08 417.06 505.03 C417.02 505.98 415.62 507.82 415.72 505.84 C415.5 504.31 418.29 503.56 416.75 502.09 C415.9 501.23 414.53 500.45 415.91 499.44 C416.71 497.7 414.89 496.33 413.53 496.22 C413.58 495.21 413.82 491.9 412.03 493 C411.16 494.44 409.07 491.58 408.72 493.59 C408.95 494.58 409.6 496.56 407.81 495.56 C405.6 495.24 408.82 494.29 408.25 492.94 C408.59 491.73 407.17 491.66 406.91 491.22 C406.76 489.27 406.47 486.04 404.44 485.38 C403.73 485.93 404.3 488.47 403.59 486.47 C403.71 484.53 401.62 482.21 399.81 483.81 C399.18 484.66 400.36 485.97 399.19 486.44 C398.22 489.15 401.15 490.86 401.19 493.31 C399.93 494.26 395.72 494.41 396.84 496.81 C397.31 497.62 398.26 499.77 397.53 500.13 C394.91 499.24 396.08 503.67 398 503.53 C399 505.14 396.47 505.48 396.47 507.13 C395.59 505.62 394.76 507.15 394.81 508.31 C394.24 507.44 393.1 507.61 394.31 506.88 C394.83 504.81 391.74 505.63 390.78 505.31 C390.34 504.05 388.23 504.86 389.03 502.91 C388.91 499.71 390.47 496.26 389.56 493.22 C387.93 492.09 388.01 495.48 387.78 496.5 C387.13 499.38 387.98 503.36 385.63 505.47 C384.4 506.02 382.35 505.87 383.09 504.03 C383.39 502.95 385.15 502.49 384 501.16 C382.33 498.3 383.54 494.59 382.44 491.53 C381.19 494.64 381.63 498.41 379.88 501.25 C379.73 502.37 381.93 504.49 379.5 504.34 C376.97 504.96 373.85 503.35 374.69 500.38 C374.53 498.64 376.22 497.68 377.75 497.72 C378.23 495.68 374.69 497.47 375.28 495.31 C374.68 493.27 378.83 494.88 377.5 493.06 C376.52 492.36 374.24 491.29 373.72 492.91 C373.01 492.27 371.7 491.86 370.91 492.63 C370.6 491.31 371.73 488.37 369.97 488.06 C368.21 490.55 370.05 494.32 368.38 496.75 C367.29 496.38 365.93 496.69 365.78 497.97 C365.07 493.82 364.47 497.54 363 499.16 C361.79 500.41 361.56 499.2 362.09 498 C362.56 496.28 360.16 496.06 360.13 497.72 C360.43 499.35 359.41 498.86 358.38 498.97 C357.2 499.04 357.41 501.62 356.56 499.97 C355.43 499.53 355.82 501.13 354.69 500.94 C353.13 501.46 352.51 504.66 351.03 502.19 C349.48 499.65 348.3 500.51 347.03 502.53 C345.92 503.58 343.21 504.07 343.56 501.75 C343.35 499.95 343.14 497 341.09 496.56 C340.62 497.5 340.47 497.87 339.72 496.59 C339.02 495.41 338.27 492.2 336.38 493.69 C335.7 494.16 334.84 496.68 334.59 494.63 C334.97 493.29 333.73 490.87 332.34 492.34 C331.87 493.84 330.26 493.06 330.66 491.66 C330.7 490.01 328.78 489.62 328.91 487.91 C328.86 486.22 327.01 486.69 326.69 487.91 C326.77 485.99 326.37 482.07 323.53 483.31 C322.03 483.64 321.23 485.46 320.72 486.34 C319.65 485.7 319.27 487.7 318.47 486.06 C316.57 484.43 315.81 487.94 315.44 489.22 C315.34 490.28 315.79 490.73 314.47 490.75 C314.26 490.55 314.15 489.3 313.56 489.22 C314.62 488.29 314.16 485.8 312.63 486.91 C312.07 487.82 310 489.02 309.97 487.16 C310.05 486.11 308.8 485.71 308.13 486.22 C308.87 485.49 309.77 484.1 308.03 484 C305.52 484.45 308.18 481.56 308.09 480.38 C308.43 478.61 309.81 473.24 307.49 476.98 C307.26 477.42 304.92 479.87 306.19 478.31 C307.51 477.23 306.26 474.26 304.78 475.94 C304.19 476.79 303.72 479.55 303.25 477.16 C303.88 476.12 303.12 475.42 302.31 475.44 C301.49 473.64 301.74 469.45 300.64 469.31 C299.88 471.08 299.77 473.88 299.97 475.38 C299.54 474.61 298.58 473.78 298.03 475.16 C297.53 475.93 297.01 476.18 297.06 475.13 C296.66 473.73 294.4 473.21 294.75 475.19 C294.76 477.29 292.65 475.67 291.91 475 C289.91 474.97 291.38 478.81 291 478.84 C289.87 477.42 288.41 478.91 289.34 480.25 C290.06 481.93 291.25 483.56 291.25 485.28 C292.4 485.88 290.93 487.75 292.53 487.38 C293.65 486.67 293.81 490.72 292.22 489.25 C291.7 488.32 289.88 486.68 289 488.19 C288.46 489.47 291.85 491.09 289.13 490.81 C284.41 491 279.2 489.12 274.75 490.88 C273.72 491.59 273.75 493.06 274.03 494.19 C272.85 493.63 272.6 494.55 272.47 492.88 C271.6 490.88 270.89 493.41 270.19 494.06 C269.1 494.55 269.81 495.62 270.72 495.63 C271.58 497.18 269.75 497.47 270.19 499.19 C270.37 500.54 270.3 502.17 268.56 501.91 C267.73 501.88 267.35 503.99 266.81 502.59 C266.5 497.01 267.71 491.38 267.69 485.84 C266.12 484.06 265.96 487.95 265.88 488.97 C265.19 494.04 265.21 499.37 264.72 504.34 C263.67 505.32 261.58 505.64 261.22 506.97 C260.11 506.26 259.79 502.6 258.16 503.84 C257.38 504.28 255.55 502.34 255.25 504.25 C254.36 504.79 254.41 502.75 253.59 502.63 C254.65 502.04 254.21 500.49 255.47 500.03 C255.76 498.01 254.05 495.91 255.47 494 C255.33 492.57 253.85 491.62 254.03 489.91 C254.38 488.12 253.29 486.98 251.75 487.5 C250.37 486.03 254.52 485.05 252.59 483.59 C251 483.75 248.23 484.24 247.44 482.34 C248.02 481.48 249.18 480.35 247.94 479.44 C247.41 477.67 247.68 475.5 247.03 473.91 C248.13 473.25 249.47 470.56 247.16 470.91 C245.04 471.05 244.05 469.14 243.53 467.47 C243.22 466.66 240.67 465.58 242.69 465.69 C243.86 467.17 247.53 466.08 246.31 464.13 C242.89 462.21 239.62 465.4 237.47 467.75 C237.36 463.24 238.73 458.38 237.59 454.03 C235.54 452.81 235.27 456.46 235.02 457.78 C234.61 461.51 233.74 465.18 232.47 468.56 C233.31 469.26 233.94 471.46 232.81 472.13 C231.9 471.95 229.15 472.23 230.69 473.47 C232.74 473.83 232.85 475.54 232.22 477.3 C230.96 480.49 231.05 483.93 230.65 487.33 C230.74 489.36 227.82 491.29 229.66 493.13 C227.09 493.41 224.2 493.66 225.31 490.22 C224.91 488.29 227.13 487.08 226.03 485.22 C225.36 484 226.78 480.68 224.81 480.97 C224.28 481.3 223.09 483.45 223.63 481.63 C224.2 479.78 222.44 478.6 222.97 476.66 C223.3 475.38 222.76 473.54 222.13 473.03 C222.9 472.07 221.95 471.33 222.69 470.28 C222.77 468.45 220.33 468.76 219.63 467.31 C218.64 466.56 218.12 467.76 217.22 467.16 C215.48 467.84 215.84 470.35 215.66 471.38 C214.61 470.73 212.82 471.35 213.63 472.78 C211.93 473.2 213.27 475.3 213.5 476.34 C212.53 474.8 210.59 475.14 209.22 474.78 C208.69 473.6 207.22 475.59 207.72 473.88 C208.32 472.56 206.68 472.42 206.38 472.34 C205.96 470.3 202.97 473.02 202.19 471.25 C199.75 470.83 198.5 474.76 196 474.38 C195.28 473.27 193.71 473.22 192.75 472.41 C191.07 472.64 190.14 474.67 188.47 474.44 C187.86 475.42 187.49 477.66 186.22 476.16 C185.31 475.96 187.48 474.57 186.72 473.47 C186.22 471.67 183.58 470.85 184.47 468.75 C183.73 467.42 180.61 469.52 182.09 467.75 C182.74 466.42 183 464.02 181.38 463.38 C183.33 461.05 181.01 458.54 179.5 456.84 C179.65 455.39 178.18 455.18 177.38 454.56 C177.18 454.07 176.58 451.72 176.03 453.31 z M237.31 470.91 C238.52 471.64 236.29 472.7 237.06 471.47 C237.15 471.58 237.14 470.68 237.31 470.91 z M526.72 473.22 C527.14 473.24 527.13 472.13 526.72 473.22 z M527.06 473.47 C527.3 473.79 527.72 472.21 527.06 473.47 z M526.66 473.41 L526.66 473.38 L526.66 473.41 z M528.38 474.72 C529.72 476.13 529.2 475.88 529.19 474.88 C529.03 475.65 528.33 474.32 528.38 474.72 z M527.28 475.66 C527.67 476.11 527.96 475.08 527.28 475.66 z M529.44 476.03 C529.67 476.34 530.35 475.1 529.44 476.03 z M527.28 475.94 C528.6 476.33 527.13 475.43 527.28 475.94 z M527.22 476.06 C528.32 476.75 527.35 475.61 527.22 476.06 z M527.16 476.22 C528.29 477.11 527.14 475.86 527.16 476.22 z M529.31 476.34 C529.35 475.99 528.05 476.28 529.31 476.34 z M529.69 476.44 C529.65 476.83 530.84 475.52 529.69 476.44 z M527 476.47 C527.98 477.43 527.13 476.08 527 476.47 z M529.84 476.78 C530.07 477.08 530.85 476.01 529.84 476.78 z M526.84 476.66 C527.1 478.14 527.58 476.04 526.84 476.66 z M526.94 477.25 C526.85 476.73 526.13 476.76 526.94 477.25 z M524.28 476.91 L524.31 476.88 L524.28 476.91 z M529.94 477 C530.45 478.85 530.75 474.98 529.94 477 z M526.31 477.13 C526.89 478.37 526.55 476.8 526.31 477.13 z M530.97 477.34 C529.92 477.4 533.11 478.44 531.44 478.47 C529.39 478.61 531.47 479.08 532.69 479 C532.47 478.18 532.42 478.28 531.81 477.75 C531.71 477.79 531.34 477.09 530.97 477.34 z M523.56 477.38 L523.59 477.34 L523.56 477.38 z M523.22 477.47 L523.5 477.38 L523.22 477.47 z M523.03 477.53 L523.16 477.5 L523.03 477.53 z M522.78 477.56 C522.88 477.62 523.26 477.43 522.78 477.56 z M192.53 477.84 C192.6 478.49 192.35 477.84 192.53 477.84 z M525.31 478.66 C525.85 479.74 528.49 478.22 526.06 478.72 C524.61 479.24 526.52 477.91 525.31 478.66 z M528.19 479.16 C528.85 478.49 527.48 478.49 528.19 479.16 z M521.41 479.41 L521.75 479.09 L521.41 479.41 z M520.38 479.69 C520.92 480.54 521.75 478.69 520.38 479.69 z M150.13 487.63 C152.5 487.61 148.58 488.09 149.81 487.66 L150.09 487.63 L150.13 487.63 z M449.56 490.19 C448.04 491.82 451.9 493.25 451.25 490.97 C451.03 490.41 450.02 489.36 449.56 490.19 z M308.84 490.25 C309.38 490.51 308.32 490.8 308.84 490.25 z M270.69 490.69 C269.33 490.49 269.02 492.21 270.56 492.03 C271.64 492.43 274.41 491.72 272.59 490.78 C271.98 490.63 271.32 490.62 270.69 490.69 z M290.38 490.75 C290.43 490.71 290.41 490.85 290.38 490.75 z M152.09 493.22 C152.05 493.25 151.98 493.11 152.09 493.22 z M152.03 493.38 L152.03 493.41 L152.03 493.38 z M370.91 493.81 C371.89 494.94 374.37 492.98 373.63 495.19 C374.11 497.22 371.75 495.74 370.81 495.94 C370.85 495.27 370.84 494.35 370.91 493.81 z M272.84 494.63 C274.32 496.58 274.2 499.67 273.22 501.81 C271.06 502.36 273.9 503.99 275.06 503.69 C277.11 503.62 278.76 505.94 281.06 505.16 C283.46 505.05 279.4 505.42 278.59 505.16 C277.07 505.11 275.64 504.55 274.69 503.78 C273.83 503.96 274.35 505.53 273 505.06 C271.01 506.18 272.54 503.32 272 502.09 C272.07 500.6 271.56 498.49 271.5 497.38 C272.65 497.34 272.54 494.32 272.84 494.63 z M370.81 496.94 C373.32 497.57 373.81 501.83 371.94 502.94 C371.4 501.83 373.95 499.38 371.63 499.22 C370.17 500.21 370.92 497.46 370.81 496.94 z M495.19 499.44 C493.84 499.68 492.26 502.36 494.5 501.78 C495.72 501.75 497.26 499.28 495.19 499.44 z M494.31 504 C493.08 505.03 494.75 507.74 495.41 505.59 C495.67 504.89 495.23 503.33 494.31 504 z M268.09 504.72 C269.63 504.76 269.44 505.12 268.16 505.13 C267.63 505.87 267.33 505.3 266.72 504.97 C267.16 504.79 267.62 504.74 268.09 504.72 z M272.09 506.06 C273.86 507.46 276.92 506.35 278.75 507.38 C278.92 508.74 279.48 511.38 277.13 510.68 C275.3 510.38 273.31 511.56 271.81 511.38 C271.73 509.9 270.38 506.97 272.09 506.06 z M268.31 506.47 C269.13 507.47 268.84 507.83 268.31 506.47 z M381.13 507.28 C382.55 507.37 387.83 507.39 383.81 507.47 C382.92 507.51 377.72 507.07 381.13 507.28 z M389.69 507.38 C391.11 506.68 388.15 509.86 388.88 508.34 C388.86 507.75 389.03 507.34 389.69 507.38 z M397.88 508.25 C397.89 509.48 397.2 511.12 397.59 508.94 C397.56 508.99 397.83 507.69 397.88 508.25 z M496.16 508.16 C496.62 509.01 495.68 509.97 495 509.28 C495.28 508.83 495.73 508.43 496.16 508.16 z M434.91 508.59 C433.07 509.03 433.96 511.46 435.56 510.44 C436.46 509.87 436.07 508.27 434.91 508.59 z M415.47 508.69 C417.56 509.09 414.87 510.32 415.13 508.75 L415.38 508.69 L415.47 508.69 z M419.25 509.06 C420.89 508.61 422.36 510.17 421.13 511.53 C418.33 513.12 417.62 508.79 419.25 509.06 z M376.53 509.31 C379.12 509.6 382.39 509.18 384.56 510.59 C384.71 511.7 382.36 509.94 381.47 510.25 C379.89 509.84 377.37 510.08 376.44 510.66 C376.37 509.34 372.97 510.55 374.47 509.41 C375.15 509.31 375.85 509.37 376.53 509.31 z M503.78 509.44 C502.27 509.39 502.11 511.23 503.66 511.34 C504.55 512.09 507.09 512.2 506.06 510.56 C505.59 509.79 504.7 509.24 503.78 509.44 z M386.41 510.19 C386.35 511.86 386.17 510.37 386.41 510.19 z M386.19 512.84 L386.19 512.81 L386.19 512.84 z M386.19 512.84 C385.4 513.15 386.06 515.16 385.91 515.13 C385.59 515.92 385.99 515.6 385.63 516.41 C386.33 517.18 386.22 515.57 386.06 515.53 C385.9 514.89 386.95 513.48 386.19 512.84 z M386.19 512.88 C386.29 512.84 386.14 512.82 386.19 512.88 z M386.16 512.97 C386.02 513.04 386.14 512.87 386.16 512.97 z M386.22 512.94 C386.17 513.06 386.17 512.82 386.22 512.94 z M503.31 513.81 C502.78 514.03 501.49 515.31 502.25 514.19 C502.3 513.95 504.08 513.55 503.31 513.81 z M448.13 514.84 C449.16 515.09 450.78 517.44 448.78 517.28 C444.37 516.86 439.46 517.44 435.41 515.5 C435.4 514.28 440.27 515.22 442.09 514.97 C444.12 514.75 445.89 515.52 447.72 515.91 C448.62 515.88 447.81 514.58 448.13 514.84 z M454.34 515.28 C453 517 456.55 516.32 456.75 516.84 C455.61 517.21 453.12 518.19 452.25 517.06 C451.81 515.85 453.58 516.76 453.59 515.47 C453.8 515.34 454.07 515.35 454.34 515.28 z M501.38 515.97 C500.9 517.34 501.5 514.87 501.38 515.97 z M419.59 519.22 C423.33 519.16 418.85 519.66 419.09 519.25 C419.26 519.25 419.43 519.22 419.59 519.22 z M423.88 519.22 C425.2 519.57 423.59 519.78 423.88 519.22 z M435.03 519.28 C439.15 519.4 444.37 519.7 447.75 519.97 C442.82 520 437.75 520.37 432.91 519.47 C433.58 519.24 434.33 519.36 435.03 519.28 z M501.22 519.78 C501.55 520.91 503.42 519.9 503.47 520.19 C502.64 520.21 499.43 521.12 501.22 519.78 z M452.47 520.06 C453.77 519.9 454.13 520.72 452.75 520.81 C452 520.98 451.28 520.09 452.47 520.06 z M499.66 529.44 C500.08 530.37 497.91 530.03 499.41 529.5 C499.5 529.51 499.56 529.41 499.66 529.44 z" id="path3305" xml:space="default" />
    <use xlink:href="#path3305" x="0" y="0" opacity="0.6775956" transform="matrix(1, 0, 0, -1, -2.465306E-07, 1093.074)" id="use2230" xml:space="default" width="744.09003" height="1052.36" style="fill:url(#linearGradient3133);" />
  </g>
</svg>