<?xml version="1.0" encoding="utf-8"?>
<!DOCTYPE svg PUBLIC "-//W3C//DTD SVG 1.1//EN" "http://www.w3.org/Graphics/SVG/1.1/DTD/svg11.dtd">
<svg x="0" y="0" width="32" height="32" overflow="hidden" viewBox="0, 0, 600, 600" preserveAspectRatio="xMidYMid" font-size="0px" id="svg" xml:space="default" xmlns="http://www.w3.org/2000/svg" xmlns:xlink="http://www.w3.org/1999/xlink" xmlns:xml="http://www.w3.org/XML/1998/namespace" version="1.1">
  <defs id="def1" xml:space="default">
    <linearGradient x1="0" y1="0" x2="1" y2="0" gradientUnits="objectBoundingBox" id="linearGradient4135" xml:space="default">
      <stop offset="0%" stop-color="#FFFFFF" stop-opacity="1" id="stop4137" xml:space="default" />
      <stop offset="100%" stop-color="#E3E936" stop-opacity="0" id="stop4139" xml:space="default" />
    </linearGradient>
    <linearGradient x1="0" y1="0" x2="1" y2="0" gradientUnits="objectBoundingBox" id="linearGradient4123" xml:space="default">
      <stop offset="0%" stop-color="#FFC378" stop-opacity="1" id="stop4125" xml:space="default" />
      <stop offset="100%" stop-color="#FFC378" stop-opacity="0" id="stop4127" xml:space="default" />
    </linearGradient>
    <linearGradient x1="0" y1="0" x2="1" y2="0" gradientUnits="objectBoundingBox" id="linearGradient3127" xml:space="default">
      <stop offset="0%" stop-color="#000000" stop-opacity="1" id="stop3129" xml:space="default" />
      <stop offset="100%" stop-color="#FF8D00" stop-opacity="0" id="stop3131" xml:space="default" />
    </linearGradient>
    <linearGradient x1="322" y1="547.47" x2="322" y2="430.89" gradientUnits="userSpaceOnUse" xlink:href="#linearGradient3127" gradientTransform="matrix(1.091868, 0, 0, 0.8066669, -6.893021, 176.8041)" id="linearGradient3133" xml:space="default" />
    <linearGradient x1="322" y1="580.64" x2="322" y2="440.91" gradientUnits="userSpaceOnUse" xlink:href="#linearGradient3127" gradientTransform="matrix(1, 0, 0, -1, 0, 1092.641)" id="linearGradient4114" xml:space="default" />
    <linearGradient x1="257.72" y1="749.53" x2="257.72" y2="604.27" gradientUnits="userSpaceOnUse" xlink:href="#linearGradient4123" gradientTransform="matrix(1.074492, 0, 0, 0.8084633, -4.540781, 33.18958)" id="linearGradient4129" xml:space="default" />
    <radialGradient cx="404" cy="230" r="154" fx="404" fy="230" gradientUnits="userSpaceOnUse" xlink:href="#linearGradient4135" gradientTransform="matrix(1.091868, 0, 0, 0.8066669, -13.04676, 3.399988)" id="radialGradient4141" xml:space="default" />
  </defs>
  <g transform="matrix(0.9158617, 0, 0, 1.239669, -67.40709, -335.1597)" id="layer1" xml:space="default">
    <rect x="74.14" y="-742.36" width="600" height="254.57" rx="68" ry="68" transform="scale(1, -1)" id="rect3163" xml:space="default" style="fill:#C48A20;" />
    <rect x="74.98" y="292.36" width="598.32" height="254.57" rx="68" ry="68" id="rect2184" xml:space="default" style="fill:#ABB400;" />
    <path d="M141.89 741.84 C117.15 741.84 95.63 728.3 84.05 708.08 L494.51 514.8 L178.37 741.84 z M494.51 514.8 L308.7 741.84 L227.05 741.84 z M494.51 514.8 L391.45 741.84 L337.33 741.84 z M494.51 514.8 L455.94 741.84 L412.55 741.84 z M494.51 514.8 L514.74 741.84 L474.27 741.84 z M494.51 514.8 L576.46 741.84 L533.07 741.84 z M494.51 514.8 L643.72 730.31 C633.0601 737.6 620.2401 741.84 606.38 741.84 L597.56 741.84 z M494.51 514.8 L673.3 666.58 L673.3 673.6899 C673.3 689.6299 667.97 704.2599 659.03 715.84 z M494.51 514.8 L673.3 598.99 L673.3 643.21 z M494.51 514.8 L672.69 546.18 C673.09 549.21 673.3 552.29 673.3 555.42 L673.3 581.76 z M494.51 514.8 L75.04001 553.61 z M494.51 514.8 L74.98001 671.9 L74.98001 588.69 z" id="path3169" xml:space="default" connector-curvature="0" style="fill:url(#linearGradient4129);" />
    <path d="M141.89 292.38 C117.15 292.38 95.63 305.91 84.05 326.14 L494.51 519.41 L178.37 292.38 z M494.51 519.41 L308.7 292.38 L227.05 292.38 z M494.51 519.41 L391.45 292.38 L337.33 292.38 z M494.51 519.41 L455.94 292.38 L412.55 292.38 z M494.51 519.41 L514.74 292.38 L474.27 292.38 z M494.51 519.41 L576.46 292.38 L533.07 292.38 z M494.51 519.41 L643.72 303.9 C633.0601 296.61 620.2401 292.38 606.38 292.38 L597.56 292.38 z M494.51 519.41 L673.3 367.64 L673.3 360.53 C673.3 344.59 667.97 329.95 659.03 318.37 z M494.51 519.41 L673.3 435.22 L673.3 391 z M494.51 519.41 L672.69 488.03 C673.09 485 673.3 481.93 673.3 478.79 L673.3 452.45 z M494.51 519.41 L75.04001 480.61 C75.98001 517.51 105.42 546.94 141.89 546.94 L196.82 546.94 z M494.51 519.41 L74.98001 362.31 L74.98001 445.53 z" id="path2158" xml:space="default" connector-curvature="0" style="fill:#E3E936;" />
    <path d="M558 230 C558 315.0518 489.0518 384 404 384 C318.9482 384 250 315.0518 250 230 C250 144.9482 318.9482 76 404 76 C489.0518 76 558 144.9482 558 230 z" transform="matrix(1.571429, 0, 0, 1.571429, -148.137, 150.9336)" id="path4133" xml:space="default" connector-curvature="0" style="fill:url(#radialGradient4141);" />
    <path d="M176.03 453.31 C176.06 454.49 175.6 455.06 174.75 455.63 C174.6 457.35 173.4 454.45 172.38 455.78 C170.65 457.36 172.68 460.34 170.81 461.63 C170.93 462.8 170.94 462.98 170 462 C168.16 461.12 168.62 463.93 169.22 464.66 C168.54 465.31 168.28 465.63 167.53 464.72 C165.17 464.51 167.17 468.21 166.69 469.44 C165.71 468.92 162.88 468.67 164.06 470.5 C164.45 471.7 165.28 474.97 163.38 473.22 C162.17 472.24 158.53 473.91 160.38 475.09 C162.3 475.29 162.83 478.89 160.72 479.03 C160.27 479.94 160.6 481.29 159.25 481.66 C157.93 481.87 156.13 482.3 156.88 484.13 C156.7 485.09 158.46 486.12 158 486.63 C155.24 487.02 152.47 485.48 149.63 485.63 C147.15 485.6 145.07 484.81 142.97 484 C141.37 484.2 141.9 482.62 143.22 482.81 C144.84 481.73 142.67 480.15 141.38 480.69 C140.19 480.9 138.17 479.87 139.47 478.63 C140.11 477.51 138.51 475.42 140.44 475.63 C142.19 475.37 141.61 472.9 139.81 473.63 C138.41 473.93 137.9 473.04 137.69 471.97 C137.12 471.23 135.72 472.25 136.5 470.69 C137.03 469.5 136.32 468.33 135.56 467.94 C135.48 466.06 135.01 463.38 133.06 463 C131.76 461.79 133.72 460.65 132.81 459.28 C132.07 457.7 131.28 454.71 129.19 454.78 C128.3 455.8 128.13 456.03 127.44 454.78 C126.34 453.49 125.2 455.37 125.81 456.31 C124.48 456.2 122.72 456.01 121.66 456.44 C121.14 455.1 119.72 454.99 118.97 456.03 C116.62 455.92 118.39 459.73 116.97 460.78 C116.42 462.09 116.42 463.72 116.66 465.03 C115.12 463.2 114.13 466.36 114.31 467.62 C114.76 469.92 112.11 470.8 112.09 472.75 C112.19 473.38 110.82 474.05 111.56 475.06 C111.66 476.38 111.46 478.84 109.53 477.72 C108.08 476.79 104.79 478.44 104.84 475.94 C103.98 474.41 103.06 472 101.22 471.63 C100.4 472.47 101.32 474.13 99.66 474 C98.10001 474.61 97.29 476.31 96.56001 477.41 C95.25001 477.55 96.16 479.33 94.47001 479.38 C93.16001 480.31 91.08001 480.33 91.03001 478.34 C91.00001 477.08 89.27 476.91 88.97001 476.44 C89.75001 475.72 90.75001 473.88 88.84001 474.16 C88.06001 474.24 85.49001 474.78 87.41001 474.13 C88.52001 473.27 85.67001 473.29 86.88001 472.19 C88.13001 470.6 85.86002 470.16 85.28001 469.44 C86.10001 468.39 85.20001 467.17 84.22002 467.59 C83.90002 465.98 81.63002 468.17 81.03001 466.41 C80.10001 465.63 80.07001 462.16 78.41001 463.81 C77.47001 464.86 77.37001 467.39 76.06001 467.63 C74.20001 465.99 73.37001 469 73.78001 470.47 C73.62001 472.46 74.89001 473.88 74.06001 475.72 C73.25002 499.64 73.79002 523.6 73.63001 547.53 C273.96 547.53 474.29 547.53 674.63 547.53 C674.63 525.7 674.63 503.86 674.63 482.03 C673.53 482.19 675.15 480.36 674.56 479.44 C674.05 476.92 675.64 473.13 672.37 472.22 C668.51 469.9 664.75 467.29 660.84 465.13 C646.59 466.2 632.2599 466.44 618.0599 468 C613.2399 469.15 608.84 472.57 603.5999 471.33 C600.0899 471.36 595.8099 469.25 592.6899 471.34 C591.89 472.22 592.9299 473.33 591.53 473.59 C589.7599 475.22 588.58 477.82 586.1899 475.08 C583.0099 473.63 580.2399 470.31 576.45 471.52 C565.4199 472.16 554.35 473.46 543.3099 472.78 C537.34 472.33 531.1299 470.73 525.3799 470.44 C524.16 471.84 522.5599 473.7 522.2499 475.28 C517.89 479.34 513.6799 484.45 510.4999 489.5 C508.3599 488.9 507.0299 493.3 509.8799 492.88 C511.52 493.24 510.3999 496.0201 510.4399 497.25 C510.2299 500.26 507.61 502.81 507.6599 505.72 C508.6899 506.08 509.9899 506.36 510.1899 507.78 C510.8799 509.55 511.1199 512.03 510.1899 513.66 C508.8099 512.3701 506.8699 514.66 508.3799 515.6901 C507.33 516.5601 507.8999 513.73 507.0599 513.2201 C506.4199 511.7601 505.2599 512.6601 504.6899 513.5301 C503.7299 514.0201 505.45 511.8601 503.1899 512.4001 C501.8199 512.2201 499.5099 512.3001 498.6599 511.5301 C499.6299 511.1501 501.42 512.5701 501.4699 510.7801 C502.89 509.4901 500.6299 507.1401 499.9399 509.1301 C500.2199 510.3201 497.7099 509.5601 498.5299 508.3101 C498.6899 505.2101 498.4899 501.1001 498.8799 498.5601 C500.0699 499.3101 503.83 498.6301 502.2199 496.7801 C501.11 496.1301 499.5199 496.8601 498.7499 497.7501 C497.7399 494.1701 500.3499 495.2101 502.7199 495.1601 C504.5699 495.2801 503.9299 493.0301 502.3799 493.3101 C501.0299 492.8701 498.1599 494.0501 498.7799 491.6601 C497.9299 488.8201 502.6799 491.9001 502.3099 489.2801 C499.5499 487.1001 495.3799 488.2601 492.1599 488.5901 C493.5399 489.5701 497.67 489.7801 496.9699 492.2201 C496.2299 493.0401 493.2399 492.5001 494.3399 494.0601 C496.9399 494.2401 496.4299 497.1801 496.4699 499.0601 C495.7699 501.4301 498.11 505.9601 494.8399 506.5001 C493.7199 506.4501 491.9399 509.5101 492.3399 507.1301 C492.3299 505.4701 493.9099 504.3801 493.1899 502.4701 C491.5699 500.5501 493.0199 497.3301 491.5899 495.1901 C489.6899 495.5601 490.7599 498.7301 490.2899 500.1901 C490.0399 503.7001 490.55 507.6301 488.8799 510.7501 C489.52 511.4901 488.0299 513.5301 487.6899 511.6901 C486.3799 502.9301 487.9299 493.6901 486.4999 484.9101 C485.0799 483.7801 485.0899 486.2301 484.4399 486.6601 C483.11 486.7401 483.5299 487.7401 484.3799 488.1901 C485.1599 495.4901 484.92 502.9401 484.5899 510.2801 C484.5499 511.5501 482.2599 510.6701 482.3799 512.2801 C481.8499 513.4301 482.95 515.4901 481.2799 515.5301 C480.2099 516.0601 480.2799 518.0801 478.9899 516.4101 C477.8399 515.6701 476.2399 514.8101 476.5899 513.3401 C475.3099 513.3001 475.8799 512.0501 475.6599 510.8401 C475.6599 508.8701 474.1599 503.6601 473.9799 508.1901 C473.68 509.6901 474.3799 512.3101 473.5299 513.3801 C472.0399 512.6501 470.1199 513.5101 469.1599 514.0001 C468.86 512.7401 467.7 513.3101 467.1899 514.0001 C465.0599 514.86 463.5499 512.0701 464.9399 510.6901 C466.3699 511.0301 467.6599 509.5101 465.8099 509.1601 C464.2599 507.3601 465.3299 504.1001 464.9699 501.8401 C464.8499 493.3101 465.86 484.6601 464.9999 476.1901 C464.4299 474.6701 462.6799 475.8201 463.0299 477.1901 C462.4599 486.2301 463.0399 495.5101 461.5299 504.4101 C460.2699 504.4301 460.4299 506.0701 459.0899 505.9401 C458.2199 506.4701 458.5399 508.3 457.6899 506.7501 C456.1899 505.5901 454.8399 508.3401 454.5899 509.5601 C455.4999 511.7901 459.1599 509.8 460.5299 511.0301 C461.1599 514.3901 458.4599 513.53 456.1599 513.1801 C454.14 513.36 451.9599 512.35 452.3099 510.0601 C451.8099 504.3501 452.9199 498.2601 451.4999 492.7501 C449.7599 492.08 450.2799 495.5201 450.0499 496.6201 C449.6699 501.89 450.3899 507.3501 449.4099 512.5001 C444.0499 512.5601 438.5099 512.48 433.2499 511.5601 C432.4699 510.9501 432.5299 508.1501 431.3099 509.5901 C431.2799 510.5601 431.4199 512.61 429.9099 511.5301 C428.6299 510.8 426.6199 509.7201 425.7799 511.5901 C424.1399 513.2701 424.2599 510.1901 424.4099 509.5901 C425.7299 511.3 428.1899 507.5101 425.6299 507.7201 C424.7299 507.7501 424.0099 509.8 424.2799 507.8101 C424.6399 502.5001 423.5699 496.8701 425.0599 491.7501 C425.6199 490.6401 429.1499 487.7501 426.5299 488.3401 C425.4799 489.1901 424.3799 490.7401 423.0899 489.6601 C421.3899 490.9801 422.4999 494.3101 422.1299 496.3401 C421.8299 500.0001 422.7399 504.2601 420.9999 507.5601 C419.8699 507.9501 417.8799 509.2001 418.5399 507.0301 C419.0099 505.9601 418.0699 503.08 417.0599 505.0301 C417.0199 505.9801 415.6199 507.8201 415.7199 505.8401 C415.4999 504.3101 418.2899 503.5601 416.7499 502.0901 C415.8999 501.2301 414.5299 500.45 415.9099 499.4401 C416.7099 497.7001 414.8899 496.3301 413.5299 496.2201 C413.5799 495.2101 413.8199 491.9001 412.0299 493.0001 C411.1599 494.4401 409.0699 491.58 408.7199 493.5901 C408.9499 494.58 409.5999 496.5601 407.8099 495.5601 C405.5999 495.2401 408.8199 494.2901 408.2499 492.9401 C408.5899 491.7301 407.1699 491.6601 406.9099 491.2201 C406.7599 489.2701 406.4699 486.0401 404.4399 485.3801 C403.7299 485.9301 404.2999 488.4701 403.5899 486.4701 C403.7099 484.5301 401.6199 482.2101 399.8099 483.8101 C399.1799 484.6601 400.3599 485.9701 399.1899 486.4401 C398.2199 489.1501 401.1499 490.8601 401.1899 493.3101 C399.9299 494.2601 395.7199 494.4101 396.8399 496.8101 C397.3099 497.6201 398.2599 499.7701 397.5299 500.1301 C394.9099 499.2401 396.0799 503.6701 397.9999 503.5301 C398.9999 505.14 396.4699 505.4801 396.4699 507.1301 C395.5899 505.6201 394.7599 507.1501 394.8099 508.3101 C394.2399 507.4401 393.0999 507.61 394.3099 506.8801 C394.8299 504.8101 391.7399 505.6301 390.7799 505.3101 C390.3399 504.05 388.2299 504.86 389.0299 502.9101 C388.9099 499.7101 390.4699 496.2601 389.5599 493.2201 C387.9299 492.0901 388.0099 495.4801 387.7799 496.5001 C387.1299 499.3801 387.9799 503.36 385.6299 505.4701 C384.3999 506.0201 382.3499 505.8701 383.0899 504.0301 C383.3899 502.9501 385.1499 502.4901 383.9999 501.1601 C382.3299 498.3001 383.5399 494.5901 382.4399 491.5301 C381.1899 494.64 381.6299 498.4101 379.8799 501.2501 C379.7299 502.3701 381.9299 504.4901 379.4999 504.3401 C376.9699 504.9601 373.8499 503.3501 374.6899 500.3801 C374.5299 498.6401 376.2199 497.6801 377.7499 497.7201 C378.2299 495.6801 374.6899 497.4701 375.2799 495.3101 C374.6799 493.2701 378.8299 494.8801 377.4999 493.0601 C376.5199 492.36 374.2399 491.2901 373.7199 492.9101 C373.0099 492.2701 371.6999 491.8601 370.9099 492.6301 C370.5999 491.3101 371.7299 488.3701 369.9699 488.0601 C368.2099 490.55 370.0499 494.3201 368.3799 496.7501 C367.2899 496.3801 365.9299 496.6901 365.7799 497.9701 C365.0699 493.8201 364.4699 497.5401 362.9999 499.1601 C361.7899 500.4101 361.5599 499.2001 362.0899 498.0001 C362.5599 496.2801 360.1599 496.0601 360.1299 497.7201 C360.4299 499.3501 359.4099 498.8601 358.3799 498.9701 C357.1999 499.0401 357.4099 501.6201 356.5599 499.9701 C355.4299 499.5301 355.8199 501.1301 354.6899 500.9401 C353.1299 501.4601 352.5099 504.6601 351.0299 502.1901 C349.4799 499.6501 348.2999 500.5101 347.0299 502.5301 C345.9199 503.58 343.2099 504.0701 343.5599 501.7501 C343.3499 499.9501 343.1399 497.0001 341.0899 496.5601 C340.6199 497.5001 340.4699 497.8701 339.7199 496.5901 C339.0199 495.4101 338.2699 492.2 336.3799 493.6901 C335.6999 494.1601 334.8399 496.6801 334.5899 494.6301 C334.9699 493.2901 333.7299 490.8701 332.3399 492.3401 C331.8699 493.8401 330.2599 493.0601 330.6599 491.6601 C330.6999 490.0101 328.7799 489.6201 328.9099 487.9101 C328.8599 486.2201 327.0099 486.6901 326.6899 487.9101 C326.7699 485.9901 326.3699 482.0701 323.5299 483.3101 C322.0299 483.64 321.2299 485.4601 320.7199 486.3401 C319.6499 485.7 319.2699 487.7 318.4699 486.0601 C316.5699 484.4301 315.8099 487.9401 315.4399 489.2201 C315.3399 490.2801 315.7899 490.7301 314.4699 490.7501 C314.2599 490.55 314.1499 489.3 313.5599 489.2201 C314.6199 488.2901 314.1599 485.8 312.6299 486.9101 C312.0699 487.8201 309.9999 489.0201 309.9699 487.1601 C310.0499 486.1101 308.7999 485.7101 308.1299 486.2201 C308.8699 485.4901 309.7699 484.1001 308.0299 484.0001 C305.5199 484.4501 308.1799 481.5601 308.0899 480.3801 C308.4299 478.6101 309.8099 473.2401 307.4899 476.9801 C307.2599 477.4201 304.9199 479.8701 306.1899 478.3101 C307.5099 477.2301 306.2599 474.2601 304.7799 475.9401 C304.1899 476.7901 303.7199 479.55 303.2499 477.1601 C303.8799 476.1201 303.1199 475.4201 302.3099 475.4401 C301.4899 473.6401 301.7399 469.4501 300.6399 469.3101 C299.8799 471.08 299.7699 473.8801 299.9699 475.3801 C299.5399 474.6101 298.5799 473.7801 298.0299 475.1601 C297.5299 475.9301 297.0099 476.1801 297.0599 475.1301 C296.6599 473.7301 294.3999 473.2101 294.7499 475.1901 C294.7599 477.2901 292.6499 475.6701 291.9099 475.0001 C289.9099 474.9701 291.3799 478.8101 290.9999 478.8401 C289.8699 477.42 288.4099 478.9101 289.3399 480.2501 C290.0599 481.9301 291.2499 483.5601 291.2499 485.2801 C292.3999 485.8801 290.9299 487.7501 292.5299 487.3801 C293.6499 486.6701 293.8099 490.7201 292.2199 489.2501 C291.6999 488.3201 289.8799 486.6801 288.9999 488.1901 C288.4599 489.4701 291.8499 491.0901 289.1299 490.8101 C284.4099 491.0001 279.1999 489.1201 274.7499 490.8801 C273.7199 491.5901 273.7499 493.0601 274.0299 494.1901 C272.8499 493.6301 272.5999 494.55 272.4699 492.8801 C271.5999 490.8801 270.8899 493.4101 270.1899 494.0601 C269.0999 494.55 269.8099 495.6201 270.7199 495.6301 C271.5799 497.1801 269.7499 497.4701 270.1899 499.1901 C270.3699 500.5401 270.2999 502.1701 268.5599 501.9101 C267.7299 501.8801 267.3499 503.9901 266.8099 502.5901 C266.4999 497.0101 267.7099 491.3801 267.6899 485.8401 C266.1199 484.0601 265.9599 487.95 265.8799 488.9701 C265.1899 494.0401 265.2099 499.3701 264.7199 504.3401 C263.6699 505.3201 261.5799 505.64 261.2199 506.9701 C260.1099 506.2601 259.7899 502.6001 258.1599 503.8401 C257.3799 504.2801 255.5499 502.3401 255.2499 504.2501 C254.3599 504.7901 254.4099 502.7501 253.5899 502.6301 C254.6499 502.0401 254.2099 500.4901 255.4699 500.0301 C255.7599 498.0101 254.0499 495.9101 255.4699 494.0001 C255.3299 492.5701 253.8499 491.6201 254.0299 489.9101 C254.3799 488.1201 253.2899 486.9801 251.7499 487.5001 C250.3699 486.0301 254.5199 485.05 252.5899 483.5901 C250.9999 483.7501 248.2299 484.2401 247.4399 482.3401 C248.0199 481.4801 249.1799 480.3501 247.9399 479.4401 C247.4099 477.6701 247.6799 475.5001 247.0299 473.9101 C248.1299 473.2501 249.4699 470.5601 247.1599 470.9101 C245.0399 471.0501 244.0499 469.1401 243.5299 467.4701 C243.2199 466.6601 240.6699 465.58 242.6899 465.6901 C243.8599 467.1701 247.5299 466.0801 246.3099 464.1301 C242.8899 462.2101 239.6199 465.4001 237.4699 467.7501 C237.3599 463.2401 238.7299 458.3801 237.5899 454.0301 C235.5399 452.8101 235.2699 456.4601 235.0199 457.7801 C234.6099 461.5101 233.7399 465.1801 232.4699 468.5601 C233.3099 469.2601 233.9399 471.4601 232.8099 472.1301 C231.8999 471.9501 229.1499 472.2301 230.6899 473.4701 C232.7399 473.83 232.8499 475.5401 232.2199 477.3 C230.9599 480.4901 231.0499 483.9301 230.6499 487.33 C230.7399 489.36 227.8199 491.29 229.6599 493.13 C227.0898 493.41 224.1998 493.66 225.3098 490.22 C224.9099 488.29 227.1299 487.08 226.0298 485.22 C225.3598 484 226.7798 480.68 224.8098 480.97 C224.2798 481.3 223.0898 483.45 223.6299 481.63 C224.1999 479.78 222.4398 478.6 222.9698 476.66 C223.2999 475.38 222.7598 473.54 222.1299 473.03 C222.8999 472.07 221.9499 471.33 222.6898 470.28 C222.7699 468.45 220.3298 468.76 219.6299 467.31 C218.6398 466.56 218.1199 467.76 217.2198 467.16 C215.4798 467.84 215.8398 470.35 215.6599 471.38 C214.6098 470.73 212.8199 471.35 213.6299 472.78 C211.9299 473.2 213.2699 475.3 213.4998 476.34 C212.5298 474.8 210.5898 475.14 209.2198 474.78 C208.6898 473.6 207.2198 475.59 207.7198 473.88 C208.3199 472.56 206.6799 472.42 206.3799 472.34 C205.9599 470.3 202.9698 473.02 202.1898 471.25 C199.7498 470.83 198.4998 474.76 195.9998 474.38 C195.2798 473.2701 193.7099 473.22 192.7498 472.41 C191.0699 472.64 190.1398 474.67 188.4698 474.44 C187.8598 475.42 187.4899 477.66 186.2198 476.16 C185.3098 475.96 187.4798 474.57 186.7198 473.47 C186.2198 471.67 183.5798 470.85 184.4698 468.75 C183.7298 467.42 180.6098 469.52 182.0898 467.75 C182.7398 466.42 182.9998 464.02 181.3798 463.38 C183.3298 461.05 181.0098 458.54 179.4998 456.84 C179.6498 455.39 178.1798 455.18 177.3798 454.56 C177.1798 454.07 176.5798 451.72 176.0298 453.31 z M237.31 470.91 C238.52 471.64 236.29 472.7 237.06 471.47 C237.15 471.58 237.14 470.68 237.31 470.91 z M526.72 473.22 C527.14 473.24 527.1299 472.13 526.72 473.22 z M527.06 473.47 C527.3 473.79 527.72 472.21 527.06 473.47 z M526.66 473.41 L526.66 473.38 z M528.3799 474.72 C529.72 476.13 529.2 475.88 529.1899 474.88 C529.03 475.65 528.33 474.32 528.3799 474.72 z M527.28 475.66 C527.67 476.11 527.96 475.08 527.28 475.66 z M529.4399 476.03 C529.6699 476.34 530.3499 475.1 529.4399 476.03 z M527.28 475.94 C528.6 476.33 527.1299 475.43 527.28 475.94 z M527.22 476.06 C528.3199 476.75 527.35 475.61 527.22 476.06 z M527.16 476.22 C528.29 477.11 527.14 475.86 527.16 476.22 z M529.31 476.34 C529.35 475.99 528.05 476.28 529.31 476.34 z M529.69 476.44 C529.65 476.83 530.84 475.52 529.69 476.44 z M527 476.47 C527.98 477.43 527.13 476.08 527 476.47 z M529.84 476.78 C530.07 477.08 530.85 476.01 529.84 476.78 z M526.84 476.66 C527.1 478.14 527.58 476.04 526.84 476.66 z M526.94 477.25 C526.85 476.73 526.13 476.76 526.94 477.25 z M524.28 476.91 L524.3101 476.88 z M529.94 477 C530.45 478.85 530.75 474.98 529.94 477 z M526.31 477.13 C526.89 478.37 526.55 476.8 526.31 477.13 z M530.97 477.34 C529.92 477.4 533.11 478.44 531.4399 478.47 C529.39 478.61 531.47 479.08 532.6899 479 C532.47 478.18 532.4199 478.28 531.8099 477.75 C531.71 477.79 531.34 477.09 530.9699 477.34 z M523.56 477.38 L523.59 477.34 z M523.22 477.47 L523.5 477.38 z M523.03 477.53 L523.16 477.5 z M522.78 477.56 C522.8799 477.62 523.2599 477.43 522.78 477.56 z M192.53 477.84 C192.6 478.49 192.35 477.84 192.53 477.84 z M525.3099 478.66 C525.8499 479.74 528.4899 478.22 526.0599 478.72 C524.6099 479.24 526.52 477.91 525.3099 478.66 z M528.1899 479.16 C528.8499 478.49 527.4799 478.49 528.1899 479.16 z M521.4099 479.41 L521.7499 479.09 z M520.3799 479.69 C520.9199 480.54 521.7499 478.69 520.3799 479.69 z M150.1299 487.63 C152.4999 487.61 148.5799 488.09 149.8099 487.66 L150.0899 487.63 z M449.5599 490.19 C448.0399 491.82 451.8999 493.25 451.2499 490.97 C451.0299 490.41 450.0199 489.36 449.5599 490.19 z M308.8399 490.25 C309.3799 490.51 308.3199 490.8 308.8399 490.25 z M270.6899 490.69 C269.3299 490.49 269.0199 492.21 270.5599 492.03 C271.6399 492.43 274.4099 491.72 272.5899 490.78 C271.9799 490.63 271.3199 490.62 270.6899 490.69 z M290.3799 490.75 C290.4299 490.71 290.4099 490.85 290.3799 490.75 z M152.0899 493.22 C152.0499 493.25 151.9799 493.11 152.0899 493.22 z M152.0299 493.38 L152.0299 493.41 z M370.9099 493.81 C371.8899 494.94 374.3699 492.98 373.6299 495.19 C374.1099 497.22 371.7499 495.74 370.8099 495.94 C370.8499 495.27 370.8399 494.35 370.9099 493.81 z M272.8399 494.63 C274.3199 496.58 274.1999 499.67 273.2199 501.81 C271.0599 502.36 273.8999 503.99 275.0599 503.69 C277.1099 503.62 278.7599 505.94 281.0599 505.16 C283.4599 505.05 279.3999 505.42 278.5899 505.16 C277.0699 505.11 275.6399 504.55 274.6899 503.78 C273.8299 503.96 274.3499 505.53 272.9999 505.06 C271.0099 506.18 272.5399 503.32 271.9999 502.09 C272.0699 500.6 271.5599 498.49 271.4999 497.38 C272.6499 497.34 272.5399 494.32 272.8399 494.63 z M370.8099 496.94 C373.3199 497.57 373.8099 501.83 371.9399 502.94 C371.3999 501.83 373.9499 499.38 371.6299 499.22 C370.1699 500.21 370.9199 497.46 370.8099 496.94 z M495.1899 499.44 C493.8399 499.68 492.2599 502.36 494.4999 501.78 C495.7199 501.75 497.2599 499.28 495.1899 499.44 z M494.3099 504 C493.0799 505.03 494.7499 507.74 495.4099 505.59 C495.6699 504.89 495.2299 503.33 494.3099 504 z M268.0899 504.72 C269.6299 504.76 269.4399 505.12 268.1599 505.13 C267.6299 505.87 267.3299 505.3 266.7199 504.97 C267.1599 504.79 267.6199 504.74 268.0899 504.72 z M272.0899 506.06 C273.8599 507.46 276.9199 506.35 278.7499 507.38 C278.9199 508.74 279.4799 511.38 277.1299 510.68 C275.2999 510.38 273.3099 511.56 271.8099 511.38 C271.7299 509.9 270.3799 506.97 272.0899 506.06 z M268.3099 506.47 C269.1299 507.47 268.8399 507.83 268.3099 506.47 z M381.1299 507.28 C382.5499 507.37 387.8299 507.39 383.8099 507.47 C382.9199 507.51 377.7199 507.07 381.1299 507.28 z M389.6899 507.38 C391.1099 506.68 388.1499 509.86 388.8799 508.34 C388.8599 507.75 389.0299 507.34 389.6899 507.38 z M397.8799 508.25 C397.8899 509.48 397.1999 511.12 397.5899 508.94 C397.5599 508.99 397.8299 507.69 397.8799 508.25 z M496.1599 508.16 C496.6199 509.01 495.6799 509.97 494.9999 509.28 C495.2799 508.83 495.7299 508.43 496.1599 508.16 z M434.9099 508.59 C433.0699 509.03 433.9599 511.46 435.5599 510.44 C436.4599 509.87 436.0699 508.27 434.9099 508.59 z M415.4699 508.69 C417.5599 509.09 414.8699 510.32 415.1299 508.75 L415.3799 508.69 z M419.2499 509.06 C420.8899 508.61 422.3599 510.17 421.1299 511.53 C418.3299 513.12 417.6199 508.79 419.2499 509.06 z M376.5299 509.31 C379.1199 509.6 382.3899 509.18 384.5599 510.59 C384.7099 511.7 382.3599 509.94 381.4699 510.25 C379.8899 509.84 377.3699 510.08 376.4399 510.66 C376.3699 509.34 372.9699 510.55 374.4699 509.41 C375.1499 509.31 375.8499 509.37 376.5299 509.31 z M503.7799 509.44 C502.2699 509.39 502.1099 511.23 503.6599 511.34 C504.5499 512.09 507.0899 512.2 506.0599 510.56 C505.5899 509.79 504.6999 509.24 503.7799 509.44 z M386.4099 510.19 C386.3499 511.86 386.1699 510.37 386.4099 510.19 z M386.1899 512.84 L386.1899 512.81 z M386.1899 512.84 C385.3999 513.15 386.0599 515.16 385.9099 515.13 C385.5899 515.92 385.9899 515.6 385.6299 516.41 C386.3299 517.1801 386.2199 515.57 386.0599 515.53 C385.8999 514.89 386.9499 513.48 386.1899 512.84 z M386.1899 512.88 C386.2899 512.84 386.1399 512.82 386.1899 512.88 z M386.1599 512.97 C386.0199 513.04 386.1399 512.8701 386.1599 512.97 z M386.2199 512.94 C386.1699 513.06 386.1699 512.82 386.2199 512.94 z M503.3099 513.81 C502.7799 514.03 501.4899 515.31 502.2499 514.19 C502.2999 513.95 504.0799 513.55 503.3099 513.81 z M448.1299 514.84 C449.1599 515.09 450.7799 517.44 448.7799 517.28 C444.3699 516.86 439.4599 517.44 435.4099 515.5 C435.3999 514.28 440.2699 515.22 442.0899 514.97 C444.1199 514.75 445.8899 515.52 447.7199 515.91 C448.6199 515.8799 447.8099 514.58 448.1299 514.84 z M454.3399 515.28 C452.9999 517 456.5499 516.32 456.7499 516.84 C455.6099 517.21 453.1199 518.19 452.2499 517.06 C451.8099 515.85 453.5799 516.76 453.5899 515.47 C453.7999 515.34 454.0699 515.35 454.3399 515.28 z M501.3799 515.97 C500.8999 517.34 501.4999 514.8701 501.3799 515.97 z M419.5899 519.22 C423.3299 519.16 418.8499 519.66 419.0899 519.2501 C419.2599 519.2501 419.4299 519.22 419.5899 519.22 z M423.8799 519.22 C425.1999 519.57 423.5899 519.78 423.8799 519.22 z M435.0299 519.28 C439.1499 519.4 444.3699 519.7 447.7499 519.97 C442.8199 520.0001 437.7499 520.3701 432.9099 519.47 C433.5799 519.2401 434.3299 519.36 435.0299 519.28 z M501.2199 519.78 C501.5499 520.91 503.4199 519.9 503.4699 520.19 C502.6399 520.21 499.4299 521.12 501.2199 519.78 z M452.4699 520.0601 C453.7699 519.9001 454.1299 520.72 452.7499 520.8101 C451.9999 520.98 451.2799 520.0901 452.4699 520.0601 z M499.6599 529.4401 C500.0799 530.3701 497.9099 530.0301 499.4099 529.5001 C499.4999 529.5101 499.5599 529.41 499.6599 529.4401 z" id="path3305" xml:space="default" connector-curvature="0" />
    <use xlink:href="#path3305" x="0" y="0" opacity="0.6775956" transform="matrix(1, 0, 0, -1, -2.465306E-07, 1093.074)" id="use2230" xml:space="default" width="744.09003" height="1052.36" style="fill:url(#linearGradient3133);" />
  </g>
</svg>