<?xml version="1.0" encoding="utf-8"?>
<!DOCTYPE svg PUBLIC "-//W3C//DTD SVG 1.1//EN" "http://www.w3.org/Graphics/SVG/1.1/DTD/svg11.dtd">
<svg xmlns="http://www.w3.org/2000/svg" xmlns:xlink="http://www.w3.org/1999/xlink" version="1.1" baseProfile="full" width="253.333" height="250" viewBox="0 0 253.33 250.00" enable-background="new 0 0 253.33 250.00" xml:space="preserve">
	<g>
		<radialGradient id="SVGID_Fill1_" cx="112.891" cy="183.534" r="78.1173" gradientUnits="userSpaceOnUse" gradientTransform="rotate(-10.665434 112.891479 183.534485)">
			<stop offset="0" stop-color="#151515" stop-opacity="1"/>
			<stop offset="1" stop-color="#999C9D" stop-opacity="0.180392"/>
		</radialGradient>
		<path fill="url(#SVGID_Fill1_)" stroke-width="0.2" stroke-linejoin="round" d="M 180.453,187.762C 178.862,204.902 147.302,216.919 110.014,214.59C 72.7177,212.261 43.7379,196.464 45.3285,179.324C 46.9199,162.171 78.4808,150.15 115.777,152.479C 153.065,154.808 182.044,170.609 180.453,187.762 Z "/>
		<radialGradient id="SVGID_Fill2_" cx="172.461" cy="86.1021" r="87.5711" gradientUnits="userSpaceOnUse" gradientTransform="rotate(-3.229122 172.460938 86.102112)">
			<stop offset="0" stop-color="#62A8BC" stop-opacity="0.603922"/>
			<stop offset="0.369697" stop-color="#A6C8D2" stop-opacity="0.603922"/>
			<stop offset="0.639317" stop-color="#8BB4C0" stop-opacity="0.603922"/>
			<stop offset="0.763713" stop-color="#AAD2D2" stop-opacity="0.603922"/>
			<stop offset="1" stop-color="#62A8BC" stop-opacity="0.603922"/>
		</radialGradient>
		<path fill="url(#SVGID_Fill2_)" stroke-width="0.2" stroke-linejoin="round" d="M 134.891,70.6119C 96.1949,70.6119 64.7872,78.334 64.7872,87.8157C 64.7872,88.1734 64.8906,88.5242 64.9401,88.8751L 84.6274,201.611L 84.6758,201.611C 84.6274,201.392 84.6274,201.161 84.6274,200.936C 84.6274,194.135 107.148,188.645 134.891,188.645C 162.627,188.645 185.157,194.135 185.157,200.936L 185.157,201.572L 204.892,88.9227C 204.966,88.5582 204.966,88.1871 204.997,87.8157C 204.997,78.334 173.589,70.6119 134.891,70.6119 Z "/>
		<radialGradient id="SVGID_Fill3_" cx="134.89" cy="201.904" r="211.758" gradientUnits="userSpaceOnUse" gradientTransform="rotate(180.000000 134.890015 201.903870)">
			<stop offset="0" stop-color="#FDFDFD" stop-opacity="1"/>
			<stop offset="1" stop-color="#979797" stop-opacity="1"/>
		</radialGradient>
		<path fill="url(#SVGID_Fill3_)" stroke-width="0.2" stroke-linejoin="round" stroke="#383838" stroke-opacity="1" d="M 185.318,201.902C 185.318,208.724 162.724,214.266 134.891,214.266C 107.052,214.266 84.4576,208.724 84.4576,201.902C 84.4576,195.082 107.052,189.545 134.891,189.545C 162.724,189.545 185.318,195.082 185.318,201.902 Z "/>
		<path fill="#747171" fill-opacity="1" stroke-width="0.2" stroke-linejoin="round" d="M 185.318,204.372C 185.318,211.194 162.724,216.729 134.891,216.729C 107.052,216.729 84.4576,211.194 84.4576,204.372C 84.4576,197.545 107.052,192.008 134.891,192.008C 162.724,192.008 185.318,197.545 185.318,204.372 Z "/>
		<path fill="#747171" fill-opacity="1" stroke-width="0.2" stroke-linejoin="round" d="M 185.318,203.545C 185.318,210.372 162.724,215.908 134.891,215.908C 107.052,215.908 84.4576,210.372 84.4576,203.545C 84.4576,196.725 107.052,191.188 134.891,191.188C 162.724,191.188 185.318,196.725 185.318,203.545 Z "/>
		<path fill="#747171" fill-opacity="1" stroke-width="0.2" stroke-linejoin="round" d="M 185.318,202.46C 185.318,209.287 162.724,214.822 134.891,214.822C 107.052,214.822 84.4576,209.287 84.4576,202.46C 84.4576,195.638 107.052,190.101 134.891,190.101C 162.724,190.101 185.318,195.638 185.318,202.46 Z "/>
		<radialGradient id="SVGID_Fill4_" cx="159.83" cy="196.849" r="236.698" gradientUnits="userSpaceOnUse" gradientTransform="rotate(180.000000 159.829956 196.848694)">
			<stop offset="0" stop-color="#FDFDFD" stop-opacity="1"/>
			<stop offset="1" stop-color="#979797" stop-opacity="1"/>
		</radialGradient>
		<path fill="url(#SVGID_Fill4_)" stroke-width="0.2" stroke-linejoin="round" stroke="#383838" stroke-opacity="1" d="M 185.318,201.082C 185.318,207.901 162.724,213.438 134.891,213.438C 107.052,213.438 84.4576,207.901 84.4576,201.082C 84.4576,194.261 107.052,188.725 134.891,188.725C 162.724,188.725 185.318,194.261 185.318,201.082 Z "/>
		<linearGradient id="SVGID_Fill5_" gradientUnits="objectBoundingBox" x1="0" y1="0.500006" x2="1" y2="0.500006">
			<stop offset="0" stop-color="#151515" stop-opacity="1"/>
			<stop offset="0.324895" stop-color="#929293" stop-opacity="1"/>
			<stop offset="0.392405" stop-color="#494949" stop-opacity="1"/>
			<stop offset="0.472574" stop-color="#000000" stop-opacity="1"/>
			<stop offset="0.696203" stop-color="#E5E9EE" stop-opacity="1"/>
			<stop offset="0.822785" stop-color="#898B8C" stop-opacity="1"/>
		</linearGradient>
		<path fill="url(#SVGID_Fill5_)" stroke-width="0.2" stroke-linejoin="round" d="M 204.635,82.2386C 204.635,73.6729 173.396,66.7288 134.86,66.7288C 96.3251,66.7288 65.0856,73.6729 65.0856,82.2386C 65.0856,83.4732 65.7345,84.6739 66.9606,85.8253C 74.2418,78.9888 101.879,73.9022 134.86,73.9022C 167.842,73.9022 195.479,78.9888 202.76,85.8253C 203.986,84.6739 204.635,83.4732 204.635,82.2386 Z "/>
		<linearGradient id="SVGID_Fill6_" gradientUnits="objectBoundingBox" x1="0" y1="0.500015" x2="1" y2="0.500015">
			<stop offset="0" stop-color="#151515" stop-opacity="1"/>
			<stop offset="0.324895" stop-color="#929293" stop-opacity="1"/>
			<stop offset="0.392405" stop-color="#494949" stop-opacity="1"/>
			<stop offset="0.472574" stop-color="#000000" stop-opacity="1"/>
			<stop offset="0.696203" stop-color="#E5E9EE" stop-opacity="1"/>
			<stop offset="0.822785" stop-color="#898B8C" stop-opacity="1"/>
		</linearGradient>
		<path fill="url(#SVGID_Fill6_)" stroke-width="0.2" stroke-linejoin="round" d="M 197.974,83.3631L 204.64,83.3961C 204.753,83.0352 204.811,82.6707 204.811,82.3033C 204.811,73.7376 173.571,66.7935 135.036,66.7935C 96.5001,66.7935 65.2607,73.7376 65.2607,82.3033C 65.2607,82.4385 65.2686,82.5731 65.2838,82.7073L 72.8633,82.7447C 72.7979,82.5345 72.7648,82.3228 72.7648,82.1094C 72.7648,75.8995 100.88,70.8651 135.562,70.8651C 170.244,70.8651 198.36,75.8995 198.36,82.1094C 198.36,82.5333 198.229,82.9515 197.974,83.3631 Z "/>
	</g>
	<g>
		<g>
			<linearGradient id="SVGID_Fill7_" gradientUnits="objectBoundingBox" x1="-0.00912114" y1="0.0832602" x2="0.834306" y2="0.0832602" gradientTransform="rotate(-11.225678 -0.009121 0.083260)">
				<stop offset="0" stop-color="#B6EEAF" stop-opacity="1"/>
				<stop offset="1" stop-color="#41733A" stop-opacity="1"/>
			</linearGradient>
			<path fill="url(#SVGID_Fill7_)" stroke-width="0.2" stroke-linejoin="round" d="M 127.109,47.847C 124.658,48.2618 123.041,50.5704 123.455,53.022L 135.709,125.432C 136.124,127.884 138.411,129.527 140.861,129.113L 194.625,120.014C 197.077,119.599 198.694,117.295 198.279,114.843L 189.071,60.4329L 172.876,63.1736C 169.56,63.7349 166.259,61.8065 165.715,58.5914L 162.873,41.7945M 165.952,41.2735L 168.795,58.0701C 169.018,59.3907 170.483,60.4114 172.355,60.0945L 188.55,57.3538L 165.952,41.2735 Z "/>
			<path fill="#4D4D4D" fill-opacity="1" stroke-width="0.2" stroke-linejoin="round" d="M 135.649,66.3331L 162.211,61.838C 162.966,61.71 163.674,62.2132 163.802,62.9688L 164.148,65.0106C 164.275,65.7632 163.773,66.4742 163.017,66.6021L 136.455,71.0972C 135.703,71.2244 134.991,70.7191 134.863,69.9664L 134.518,67.9246C 134.39,67.169 134.897,66.4605 135.649,66.3331 Z "/>
			<path fill="#4D4D4D" fill-opacity="1" stroke-width="0.2" stroke-linejoin="round" d="M 139.406,88.534L 182.648,81.2159C 183.404,81.088 184.112,81.5941 184.24,82.3467L 184.585,84.3885C 184.713,85.1441 184.21,85.8516 183.454,85.9796L 140.212,93.2974C 139.46,93.4246 138.748,92.9229 138.62,92.1671L 138.275,90.1255C 138.147,89.3726 138.654,88.6612 139.406,88.534 Z "/>
			<path fill="#4D4D4D" fill-opacity="1" stroke-width="0.2" stroke-linejoin="round" d="M 137.527,77.4332L 164.089,72.938C 164.845,72.8101 165.554,73.317 165.681,74.0687L 166.026,76.1114C 166.154,76.8631 165.651,77.575 164.896,77.7027L 138.333,82.1981C 137.582,82.3253 136.869,81.8189 136.742,81.0672L 136.396,79.0245C 136.269,78.2728 136.775,77.5604 137.527,77.4332 Z "/>
			<path fill="#4D4D4D" fill-opacity="1" stroke-width="0.2" stroke-linejoin="round" d="M 141.284,99.6339L 184.526,92.316C 185.282,92.188 185.991,92.6949 186.118,93.4466L 186.464,95.4883C 186.591,96.244 186.088,96.952 185.333,97.0799L 142.09,104.398C 141.338,104.525 140.627,104.023 140.499,103.267L 140.153,101.225C 140.026,100.473 140.532,99.761 141.284,99.6339 Z "/>
			<path fill="#4D4D4D" fill-opacity="1" stroke-width="0.2" stroke-linejoin="round" d="M 143.162,110.734L 186.405,103.416C 187.161,103.288 187.869,103.795 187.996,104.546L 188.342,106.588C 188.47,107.344 187.967,108.052 187.211,108.18L 143.969,115.498C 143.217,115.625 142.505,115.123 142.377,114.367L 142.032,112.325C 141.904,111.573 142.411,110.861 143.162,110.734 Z "/>
		</g>
		<g>
			<linearGradient id="SVGID_Fill8_" gradientUnits="objectBoundingBox" x1="0.609643" y1="0.116548" x2="2.58477" y2="0.116548" gradientTransform="rotate(108.692596 0.609643 0.116548)">
				<stop offset="0" stop-color="#5DCF64" stop-opacity="1"/>
				<stop offset="0.153397" stop-color="#18891F" stop-opacity="1"/>
				<stop offset="1" stop-color="#18891F" stop-opacity="1"/>
			</linearGradient>
			<path fill="url(#SVGID_Fill8_)" stroke-width="0.2" stroke-linejoin="round" d="M 121.729,61.5679L 122.405,59.3311C 122.658,58.493 122.179,57.5992 121.34,57.3458L 98.5186,50.4517C 97.6802,50.1983 96.7863,50.6776 96.5331,51.5159L 95.8574,53.7525L 93.4445,53.0235C 92.9127,52.8629 91.8018,53.2757 91.5341,54.1104L 78.7233,96.8865C 78.4561,97.7208 78.923,98.6116 79.7612,98.8658L 138.024,116.466C 138.862,116.72 139.747,116.241 139.989,115.399L 152.674,72.5799C 152.917,71.7376 152.431,70.8423 151.591,70.5887L 121.729,61.5679 Z "/>
			<linearGradient id="SVGID_Fill9_" gradientUnits="objectBoundingBox" x1="0.403002" y1="0.861492" x2="1.15024" y2="0.861492" gradientTransform="rotate(-71.033310 0.403002 0.861492)">
				<stop offset="0" stop-color="#E6E6E6" stop-opacity="1"/>
				<stop offset="0.633102" stop-color="#E8E8E8" stop-opacity="1"/>
				<stop offset="0.9487" stop-color="#EFEFEF" stop-opacity="1"/>
				<stop offset="1" stop-color="#F2F2F2" stop-opacity="1"/>
			</linearGradient>
			<path fill="url(#SVGID_Fill9_)" stroke-width="0.2" stroke-linejoin="round" d="M 136.414,115.262L 81.4443,98.6568L 94.3711,55.316L 149.645,72.0132L 136.414,115.262 Z "/>
			<linearGradient id="SVGID_Fill10_" gradientUnits="objectBoundingBox" x1="0.401143" y1="0.857435" x2="1.13349" y2="0.857435" gradientTransform="rotate(-70.435493 0.401143 0.857435)">
				<stop offset="0" stop-color="#CCCCCC" stop-opacity="1"/>
				<stop offset="0.4272" stop-color="#CDCDCD" stop-opacity="1"/>
				<stop offset="0.640297" stop-color="#D6D6D6" stop-opacity="1"/>
				<stop offset="0.806099" stop-color="#E2E2E2" stop-opacity="1"/>
				<stop offset="0.946602" stop-color="#F6F6F6" stop-opacity="1"/>
				<stop offset="1" stop-color="#FFFFFF" stop-opacity="1"/>
			</linearGradient>
			<path fill="url(#SVGID_Fill10_)" stroke-width="0.2" stroke-linejoin="round" d="M 136.414,115.262L 81.4443,98.6568L 92.8571,57.0223L 149.961,74.2725L 136.414,115.262 Z "/>
			<linearGradient id="SVGID_Fill11_" gradientUnits="objectBoundingBox" x1="0.572197" y1="0.160224" x2="1.27773" y2="0.160224" gradientTransform="rotate(111.074371 0.572197 0.160224)">
				<stop offset="0" stop-color="#67D86E" stop-opacity="1"/>
				<stop offset="0.5951" stop-color="#54C459" stop-opacity="1"/>
				<stop offset="0.9571" stop-color="#5BCA60" stop-opacity="1"/>
				<stop offset="1" stop-color="#18891F" stop-opacity="1"/>
			</linearGradient>
			<path fill="url(#SVGID_Fill11_)" stroke-width="0.2" stroke-linejoin="round" d="M 139.917,115.378C 139.649,116.212 138.745,116.685 137.907,116.43L 79.6436,98.8301C 78.8058,98.5748 78.256,97.5489 78.4951,96.7064L 88.2714,59.6695C 88.5104,58.827 89.3916,58.3438 90.2306,58.5972L 151.276,77.0381C 152.115,77.2916 152.582,78.1817 152.314,79.0157L 139.917,115.378 Z "/>
		</g>
		<g>
			<linearGradient id="SVGID_Fill12_" gradientUnits="objectBoundingBox" x1="0.481598" y1="-0.0166212" x2="1.19891" y2="-0.0166212" gradientTransform="rotate(35.412239 0.481598 -0.016621)">
				<stop offset="0" stop-color="#B6EEAF" stop-opacity="1"/>
				<stop offset="1" stop-color="#41733A" stop-opacity="1"/>
			</linearGradient>
			<path fill="url(#SVGID_Fill12_)" stroke-width="0.2" stroke-linejoin="round" d="M 117.284,79.2769C 115.528,78.2139 113.27,78.7852 112.207,80.5428L 80.8022,132.447C 79.7389,134.205 80.2819,136.466 82.0387,137.529L 120.577,160.847C 122.335,161.911 124.59,161.342 125.653,159.584L 149.251,120.582L 137.642,113.558C 135.266,112.12 134.241,109.133 135.636,106.828L 142.92,94.7881M 145.128,96.1236L 137.843,108.164C 137.27,109.11 137.636,110.539 138.978,111.351L 150.587,118.375L 145.128,96.1236 Z "/>
			<path fill="#4D4D4D" fill-opacity="1" stroke-width="0.2" stroke-linejoin="round" d="M 112.651,95.4478L 131.692,106.968C 132.234,107.296 132.405,107.992 132.077,108.534L 131.192,109.998C 130.865,110.537 130.167,110.711 129.626,110.383L 110.585,98.8629C 110.047,98.5367 109.874,97.8362 110.2,97.2967L 111.086,95.8331C 111.413,95.2916 112.113,95.1219 112.651,95.4478 Z "/>
			<path fill="#4D4D4D" fill-opacity="1" stroke-width="0.2" stroke-linejoin="round" d="M 103.023,111.362L 134.02,130.116C 134.561,130.444 134.732,131.143 134.405,131.682L 133.52,133.146C 133.192,133.688 132.495,133.858 131.954,133.531L 100.957,114.776C 100.418,114.45 100.244,113.752 100.571,113.211L 101.457,111.747C 101.783,111.208 102.484,111.036 103.023,111.362 Z "/>
			<path fill="#4D4D4D" fill-opacity="1" stroke-width="0.2" stroke-linejoin="round" d="M 107.837,103.404L 126.878,114.925C 127.419,115.253 127.589,115.952 127.263,116.491L 126.377,117.955C 126.051,118.494 125.353,118.668 124.811,118.34L 105.771,106.82C 105.232,106.494 105.059,105.793 105.386,105.254L 106.271,103.79C 106.598,103.251 107.298,103.078 107.837,103.404 Z "/>
			<path fill="#4D4D4D" fill-opacity="1" stroke-width="0.2" stroke-linejoin="round" d="M 98.2089,119.318L 129.206,138.073C 129.747,138.401 129.917,139.1 129.591,139.639L 128.705,141.102C 128.378,141.644 127.681,141.815 127.14,141.488L 96.1426,122.733C 95.6036,122.407 95.4296,121.709 95.7573,121.167L 96.6427,119.704C 96.9688,119.165 97.6699,118.992 98.2089,119.318 Z "/>
			<path fill="#4D4D4D" fill-opacity="1" stroke-width="0.2" stroke-linejoin="round" d="M 93.3947,127.275L 124.391,146.029C 124.933,146.357 125.103,147.057 124.777,147.596L 123.891,149.059C 123.564,149.601 122.867,149.772 122.325,149.444L 91.3285,130.69C 90.7896,130.364 90.6154,129.665 90.9432,129.124L 91.8286,127.66C 92.1548,127.121 92.8558,126.949 93.3947,127.275 Z "/>
		</g>
	</g>
	<g>
		<radialGradient id="SVGID_Fill13_" cx="115.829" cy="112.989" r="1907.8" gradientUnits="userSpaceOnUse" gradientTransform="rotate(182.623978 115.829102 112.988831)">
			<stop offset="0" stop-color="#62A8BC" stop-opacity="0.560784"/>
			<stop offset="0.338077" stop-color="#FFFFFF" stop-opacity="0.560784"/>
			<stop offset="0.546719" stop-color="#62A8BC" stop-opacity="0.560784"/>
			<stop offset="0.760126" stop-color="#FDFFFF" stop-opacity="0.560784"/>
			<stop offset="1" stop-color="#62A8BC" stop-opacity="0.560784"/>
		</radialGradient>
		<path fill="url(#SVGID_Fill13_)" stroke-width="0.2" stroke-linejoin="round" d="M 204.861,89.0025C 202.803,98.0347 172.234,105.233 134.86,105.233C 97.7118,105.233 67.2897,98.1331 64.9154,89.1736L 84.5962,201.909L 84.6993,201.909C 86.0488,208.412 107.988,213.605 134.86,213.605C 161.788,213.605 183.816,208.392 185.077,201.863L 185.124,201.863L 204.861,89.2142C 204.877,89.1465 204.844,89.0735 204.861,89.0025 Z "/>
		<linearGradient id="SVGID_Fill14_" gradientUnits="objectBoundingBox" x1="-0.00167047" y1="0.491137" x2="1.00109" y2="0.491137">
			<stop offset="0" stop-color="#151515" stop-opacity="1"/>
			<stop offset="0.324895" stop-color="#929293" stop-opacity="1"/>
			<stop offset="0.392405" stop-color="#494949" stop-opacity="1"/>
			<stop offset="0.472574" stop-color="#000000" stop-opacity="1"/>
			<stop offset="0.696203" stop-color="#E5E9EE" stop-opacity="1"/>
			<stop offset="0.822785" stop-color="#898B8C" stop-opacity="1"/>
		</linearGradient>
		<path fill="url(#SVGID_Fill14_)" stroke-width="0.2" stroke-linejoin="round" d="M 134.86,104.922C 173.396,104.922 204.635,97.9776 204.635,89.4119C 204.635,88.5164 204.986,83.0384 204.756,82.0689C 204.669,81.7032 203.097,86.1414 202.76,85.8253C 195.479,92.6617 167.842,97.7484 134.86,97.7484C 101.879,97.7484 74.2418,92.6617 66.9606,85.8253C 66.8073,85.9693 64.8165,82.2982 65.1953,83.0787C 65.3599,83.418 65.0966,81.3582 65.0636,81.8428C 65.0233,82.4371 65.0856,88.8362 65.0856,89.4119C 65.0856,97.9776 96.3248,104.922 134.86,104.922 Z "/>
		<linearGradient id="SVGID_Fill15_" gradientUnits="objectBoundingBox" x1="0.179396" y1="0.500008" x2="1.1794" y2="0.500008">
			<stop offset="0" stop-color="#151515" stop-opacity="1"/>
			<stop offset="0.272727" stop-color="#929293" stop-opacity="1"/>
			<stop offset="0.466316" stop-color="#BBBDC0" stop-opacity="1"/>
			<stop offset="0.696203" stop-color="#E5E9EE" stop-opacity="1"/>
			<stop offset="0.822785" stop-color="#898B8C" stop-opacity="1"/>
		</linearGradient>
		<path fill="url(#SVGID_Fill15_)" stroke-width="0.2" stroke-linejoin="round" d="M 65.2838,82.7073C 66.2477,91.0865 97.1075,97.813 135.036,97.813C 171.919,97.813 202.118,91.4522 204.64,83.3961L 197.974,83.3631C 194.492,88.9835 167.878,93.3541 135.562,93.3541C 102.071,93.3541 74.7028,88.6595 72.8633,82.7447L 65.2838,82.7073 Z "/>
	</g>
</svg>
