<?xml version="1.0" encoding="utf-8"?>
<!DOCTYPE svg PUBLIC "-//W3C//DTD SVG 1.1//EN" "http://www.w3.org/Graphics/SVG/1.1/DTD/svg11.dtd">
<svg xmlns="http://www.w3.org/2000/svg" xmlns:xlink="http://www.w3.org/1999/xlink" version="1.1" baseProfile="full" width="211.593" height="26.1593" viewBox="0 0 211.59 26.16" enable-background="new 0 0 211.59 26.16" xml:space="preserve">
	<path fill="#FFFFFF" fill-opacity="1" stroke-width="4" stroke-linejoin="round" stroke="#96B66E" stroke-opacity="1" d="M 193.628,22.1667L 17.9655,22.1667C 11.3508,22.1667 5.9885,16.8047 5.9885,10.1901L 5.9885,-129.541L 5.9885,-165.472C 5.9885,-172.087 11.3508,-177.449 17.9655,-177.449L 193.628,-177.449C 200.242,-177.449 205.605,-172.087 205.605,-165.472L 205.605,-129.541L 205.605,10.1901C 205.605,16.8047 200.242,22.1667 193.628,22.1667 Z "/>
	<path fill="none" stroke-width="2" stroke-linejoin="round" stroke="#000000" stroke-opacity="1" d="M 192.614,24.5169L 17.7011,24.5586C 11.0473,24.4754 4.22708,16.2413 4.22709,10.5855L 4.18552,-130.142L 4.18552,-166.791C 4.26867,-172.271 10.2571,-179.008 16.402,-179.008L 194.361,-178.966C 201.108,-178.966 207.752,-172.894 207.918,-164.244L 207.793,-130.142L 207.835,10.1696C 207.835,17.5304 199.361,24.5169 192.614,24.5169 Z "/>
</svg>
