<?xml version="1.0" encoding="utf-8"?>
<!DOCTYPE svg PUBLIC "-//W3C//DTD SVG 1.1//EN" "http://www.w3.org/Graphics/SVG/1.1/DTD/svg11.dtd">
<svg x="0" y="0" width="32" height="31.6585" overflow="hidden" viewBox="0, 0, 953.4014, 943.2269" preserveAspectRatio="xMidYMid" font-size="0" id="svg" xml:space="default" xmlns="http://www.w3.org/2000/svg" xmlns:xlink="http://www.w3.org/1999/xlink" xmlns:xml="http://www.w3.org/XML/1998/namespace" version="1.1">
  <defs id="def1" xml:space="default">
    <linearGradient x1="0%" y1="0%" x2="100%" y2="0%" gradientUnits="objectBoundingBox" id="linearGradient4360" xml:space="default">
      <stop offset="0%" stop-color="#000000" stop-opacity="1" id="stop4362" xml:space="default" />
      <stop offset="100%" stop-color="#646464" stop-opacity="1" id="stop4364" xml:space="default" />
    </linearGradient>
    <linearGradient x1="0%" y1="0%" x2="100%" y2="0%" gradientUnits="objectBoundingBox" id="linearGradient4301" xml:space="default">
      <stop offset="0%" stop-color="#33FF33" stop-opacity="1" id="stop4303" xml:space="default" />
      <stop offset="77.03342%" stop-color="#339633" stop-opacity="1" id="stop4309" xml:space="default" />
      <stop offset="100%" stop-color="#333333" stop-opacity="1" id="stop4305" xml:space="default" />
    </linearGradient>
    <linearGradient x1="0%" y1="0%" x2="100%" y2="0%" gradientUnits="objectBoundingBox" id="linearGradient2985" xml:space="default">
      <stop offset="0%" stop-color="#33FF33" stop-opacity="1" id="stop2987" xml:space="default" />
      <stop offset="100%" stop-color="#AD33FF" stop-opacity="1" id="stop2989" xml:space="default" />
    </linearGradient>
    <radialGradient cx="367.2813" cy="465.7031" r="198.25" fx="367.2813" fy="465.7031" gradientUnits="userSpaceOnUse" xlink:href="#linearGradient4301" gradientTransform="matrix(1, 0, 0, 1.000079, -5.64665, -0.03670168)" id="radialGradient4307" xml:space="default" />
    <filter x="-0.06919342" y="-0.156713" width="1.138387" height="1.313426" color-interpolation-filters="auto" id="filter4342" xml:space="default">
      <feGaussianBlur stdDeviation="10.8862486" id="feGaussianBlur4344" xml:space="default" />
    </filter>
    <clipPath id="clipPath4348" xml:space="default">
      <path d="M361.6346 267.4375 C252.1441 267.4375 163.3846 356.2282 163.3846 465.7188 C163.3846 575.2093 252.1441 663.9688 361.6346 663.9688 C471.1252 663.9688 559.8846 575.2093 559.8846 465.7188 C559.8846 356.2282 471.1252 267.4375 361.6346 267.4375 z M430.8221 324.6875 C431.2515 324.6855 431.6707 324.6855 432.1034 324.7187 C434.0779 324.87 436.0545 325.2915 437.9471 326.0624 C441.7323 327.6044 445.232 330.867 446.2284 335.5937 L446.2909 335.9062 L446.3221 336.2187 C447.0544 357.9402 446.4993 379.6712 446.6346 401.2187 L470.8533 401.2187 L470.8533 401.2499 C483.882 399.663 497.3677 408.3892 499.0408 422.0624 L499.072 422.2499 L499.072 422.4374 C499.7432 461.1297 499.156 499.9389 499.3532 538.5624 C500.9622 550.9627 493.8879 564.3837 480.8532 567.3436 L480.6657 567.3748 L480.447 567.406 C466.4322 569.0039 452.5468 567.892 439.1345 568.0935 L439.1345 586.5935 L439.1033 586.5935 C439.6423 590.1348 439.5042 594.0256 438.0721 597.656 C436.5543 601.5036 433.2566 605.1266 428.4158 606.1248 L428.0721 606.1873 L427.6971 606.2184 C385.7541 606.8104 343.7623 606.2961 301.8846 606.4684 L301.8846 606.4373 C298.5871 606.8801 294.8502 606.9367 291.1971 605.8123 C287.3564 604.6301 283.4822 601.8141 282.0096 597.1873 L281.9471 596.906 L281.8846 596.6248 C280.3352 586.7444 281.3301 577.1387 281.2283 568.0935 L252.4158 568.0935 L252.4158 568.0623 C239.3861 569.6511 225.9016 560.9241 224.2283 547.2498 L224.1971 547.0623 L224.1971 546.8748 C223.5261 508.1931 224.1126 469.3943 223.9158 430.7811 C223.9148 430.7709 223.9169 430.76 223.9158 430.7499 C222.4212 418.8039 228.8029 405.8083 241.2283 402.3124 L241.3846 402.2499 L241.5408 402.2187 C253.5866 399.9849 265.4939 401.4685 276.6346 401.2812 L276.6346 343.9374 C275.9231 339.9854 276.4764 335.8191 278.4158 332.2187 C279.9584 329.3549 282.5786 326.8417 285.9471 325.6874 L285.9471 325.0312 L289.6658 325 C335.4467 324.9271 381.2342 324.9896 427.0096 324.9688 L427.0096 325.0313 C428.2509 324.8299 429.534 324.6938 430.8221 324.6876 z M290.2596 331.25 C286.173 331.25 282.9159 334.7346 282.9159 338.8125 L282.9159 407.5 L248.4159 407.5 C238.3251 407.5 230.1971 415.6281 230.1971 425.7188 L230.1971 543.5625 C230.1971 553.6532 238.3251 561.7813 248.4159 561.7813 L287.5721 561.7813 C287.5564 561.9797 287.5409 562.1732 287.5409 562.375 L287.5409 592.5938 C287.5409 596.6717 290.798 600.1563 294.8847 600.1563 L425.5097 600.1563 C429.5963 600.1563 432.8534 596.6717 432.8534 592.5938 L432.8534 562.375 C432.8534 562.1732 432.8378 561.9797 432.8222 561.7813 L474.8535 561.7813 C484.9442 561.7813 493.0722 553.6532 493.0722 543.5625 L493.0722 425.7188 C493.0722 415.6281 484.9442 407.5 474.8535 407.5 L440.3535 407.5 L440.3535 338.8125 C440.3535 334.7346 437.0964 331.25 433.0097 331.25 L290.2597 331.25 z M290.2596 383.3438 L433.0096 383.3438 C434.1163 383.3438 435.0409 384.2465 435.0409 385.5938 L435.0409 407.5 L288.2284 407.5 L288.2284 385.5938 C288.2284 384.2465 289.1529 383.3438 290.2596 383.3438 z M451.9471 414.0313 L476.8221 414.0313 C482.5212 414.0313 487.9784 417.8552 487.9784 423.625 L487.9784 548.8438 C487.9784 554.6136 482.5212 558.4375 476.8221 558.4375 L451.9471 558.4375 C446.248 558.4375 440.7909 554.6136 440.7909 548.8438 L440.7909 423.625 C440.7909 417.8552 446.248 414.0313 451.9471 414.0313 z M451.9471 421.4063 C449.3783 421.4063 448.1659 422.8486 448.1659 423.625 L448.1659 548.8438 C448.1659 549.6202 449.3783 551.0625 451.9471 551.0625 L476.8221 551.0625 C479.3909 551.0625 480.6034 549.6202 480.6034 548.8438 L480.6034 423.625 C480.6034 422.8486 479.3909 421.4063 476.8221 421.4063 L451.9471 421.4063 z M252.0721 430.7188 L270.1659 430.7188 C272.7625 430.7188 274.8534 432.8096 274.8534 435.4063 L274.8534 450.9063 C274.8534 453.5029 272.7625 455.5938 270.1659 455.5938 L252.0721 455.5938 C249.4754 455.5938 247.3846 453.5029 247.3846 450.9063 L247.3846 435.4063 C247.3846 432.8096 249.4754 430.7188 252.0721 430.7188 z M282.5721 430.7188 L300.6971 430.7188 C303.2938 430.7188 305.3846 432.8096 305.3846 435.4063 L305.3846 450.9063 C305.3846 453.5029 303.2938 455.5938 300.6971 455.5938 L282.5721 455.5938 C279.9754 455.5938 277.8846 453.5029 277.8846 450.9063 L277.8846 435.4063 C277.8846 432.8096 279.9754 430.7188 282.5721 430.7188 z M313.1034 430.7188 L331.1971 430.7188 C333.7938 430.7188 335.8846 432.8096 335.8846 435.4063 L335.8846 450.9063 C335.8846 453.5029 333.7938 455.5938 331.1971 455.5938 L313.1034 455.5938 C310.5067 455.5938 308.4159 453.5029 308.4159 450.9063 L308.4159 435.4063 C308.4159 432.8096 310.5067 430.7188 313.1034 430.7188 z M354.6034 441.7813 L427.2284 441.7813 L427.2284 466.0625 L354.6034 466.0625 L354.6034 441.7813 z M252.0721 458.5625 L270.1659 458.5625 C272.7625 458.5625 274.8534 460.6533 274.8534 463.25 L274.8534 478.7813 C274.8534 481.3779 272.7625 483.4688 270.1659 483.4688 L252.0721 483.4688 C249.4754 483.4688 247.3846 481.3779 247.3846 478.7813 L247.3846 463.25 C247.3846 460.6533 249.4754 458.5625 252.0721 458.5625 z M282.5721 458.5625 L300.6971 458.5625 C303.2938 458.5625 305.3846 460.6533 305.3846 463.25 L305.3846 478.7813 C305.3846 481.3779 303.2938 483.4688 300.6971 483.4688 L282.5721 483.4688 C279.9754 483.4688 277.8846 481.3779 277.8846 478.7813 L277.8846 463.25 C277.8846 460.6533 279.9754 458.5625 282.5721 458.5625 z M313.1034 458.5625 L331.1971 458.5625 C333.7938 458.5625 335.8846 460.6533 335.8846 463.25 L335.8846 478.7813 C335.8846 481.3779 333.7938 483.4688 331.1971 483.4688 L313.1034 483.4688 C310.5067 483.4688 308.4159 481.3779 308.4159 478.7813 L308.4159 463.25 C308.4159 460.6533 310.5067 458.5625 313.1034 458.5625 z M360.4784 480.4375 L373.8221 480.4375 C375.7338 480.4375 377.2596 481.9633 377.2596 483.875 L377.2596 495.3125 C377.2596 497.2242 375.7338 498.75 373.8221 498.75 L360.4784 498.75 C358.5667 498.75 357.0409 497.2242 357.0409 495.3125 L357.0409 483.875 C357.0409 481.9633 358.5667 480.4375 360.4784 480.4375 z M382.9471 480.4375 L396.2909 480.4375 C398.2025 480.4375 399.7284 481.9633 399.7284 483.875 L399.7284 495.3125 C399.7284 497.2242 398.2025 498.75 396.2909 498.75 L382.9471 498.75 C381.0354 498.75 379.5096 497.2242 379.5096 495.3125 L379.5096 483.875 C379.5096 481.9633 381.0354 480.4375 382.9471 480.4375 z M405.4159 480.4375 L418.7596 480.4375 C420.6713 480.4375 422.1971 481.9633 422.1971 483.875 L422.1971 495.3125 C422.1971 497.2242 420.6713 498.75 418.7596 498.75 L405.4159 498.75 C403.5042 498.75 401.9471 497.2242 401.9471 495.3125 L401.9471 483.875 C401.9471 481.9633 403.5042 480.4375 405.4159 480.4375 z M252.0721 486.4063 L270.1659 486.4063 C272.7625 486.4063 274.8534 488.4971 274.8534 491.0938 L274.8534 506.625 C274.8534 509.2217 272.7625 511.3125 270.1659 511.3125 L252.0721 511.3125 C249.4754 511.3125 247.3846 509.2217 247.3846 506.625 L247.3846 491.0938 C247.3846 488.4971 249.4754 486.4063 252.0721 486.4063 z M282.5721 486.4063 L300.6971 486.4063 C303.2938 486.4063 305.3846 488.4971 305.3846 491.0938 L305.3846 506.625 C305.3846 509.2217 303.2938 511.3125 300.6971 511.3125 L282.5721 511.3125 C279.9754 511.3125 277.8846 509.2217 277.8846 506.625 L277.8846 491.0938 C277.8846 488.4971 279.9754 486.4063 282.5721 486.4063 z M313.1034 486.4063 L331.1971 486.4063 C333.7938 486.4063 335.8846 488.4971 335.8846 491.0938 L335.8846 506.625 C335.8846 509.2217 333.7938 511.3125 331.1971 511.3125 L313.1034 511.3125 C310.5067 511.3125 308.4159 509.2217 308.4159 506.625 L308.4159 491.0938 C308.4159 488.4971 310.5067 486.4063 313.1034 486.4063 z M252.0721 514.2813 L270.1659 514.2813 C272.7625 514.2813 274.8534 516.3721 274.8534 518.9688 L274.8534 534.4688 C274.8534 537.0654 272.7625 539.1563 270.1659 539.1563 L252.0721 539.1563 C249.4754 539.1563 247.3846 537.0654 247.3846 534.4688 L247.3846 518.9688 C247.3846 516.3721 249.4754 514.2813 252.0721 514.2813 z M282.5721 514.2813 L300.6971 514.2813 C303.2938 514.2813 305.3846 516.3721 305.3846 518.9688 L305.3846 534.4688 C305.3846 537.0654 303.2938 539.1563 300.6971 539.1563 L282.5721 539.1563 C279.9754 539.1563 277.8846 537.0654 277.8846 534.4688 L277.8846 518.9688 C277.8846 516.3721 279.9754 514.2813 282.5721 514.2813 z M313.1034 514.2813 L331.1971 514.2813 C333.7938 514.2813 335.8846 516.3721 335.8846 518.9688 L335.8846 534.4688 C335.8846 537.0654 333.7938 539.1563 331.1971 539.1563 L313.1034 539.1563 C310.5067 539.1563 308.4159 537.0654 308.4159 534.4688 L308.4159 518.9688 C308.4159 516.3721 310.5067 514.2813 313.1034 514.2813 z M292.9159 561.7813 L427.4784 561.7813 C427.5229 561.9712 427.5409 562.1589 427.5409 562.375 L427.5409 577.0625 C427.5409 578.4098 426.6163 579.3125 425.5096 579.3125 L294.8846 579.3125 C293.7779 579.3125 292.8534 578.4098 292.8534 577.0625 L292.8534 562.375 C292.8534 562.1589 292.8714 561.9712 292.9159 561.7813 z" display="inline" enable-background="accumulate" stroke-width="5.31496" color="#000000" id="path4350" xml:space="default" marker="none" overflow="visible" style="fill:url(#radialGradient4352);" />
    </clipPath>
    <radialGradient cx="367.2813" cy="465.7031" r="198.25" fx="367.2813" fy="465.7031" gradientUnits="userSpaceOnUse" xlink:href="#linearGradient4301" gradientTransform="matrix(1, 0, 0, 1.000079, -5.64665, -0.03670168)" id="radialGradient4352" xml:space="default" />
    <radialGradient cx="350.2657" cy="470.3651" r="209.1016" fx="350.2657" fy="470.3651" gradientUnits="userSpaceOnUse" xlink:href="#linearGradient4360" gradientTransform="matrix(1, 0.0007617629, -0.0007728186, 0.985507, 0.6207737, 6.540117)" id="radialGradient4366" xml:space="default" />
    <radialGradient cx="350.2657" cy="470.3651" r="209.1016" fx="350.2657" fy="470.3651" gradientUnits="userSpaceOnUse" xlink:href="#linearGradient4360" gradientTransform="matrix(1, 0.0007617629, -0.0007728186, 0.985507, 0.6207737, 6.540117)" id="radialGradient4370" xml:space="default" />
    <filter x="-0.06785151" y="-0.1640617" width="1.135703" height="1.328123" color-interpolation-filters="auto" id="filter4387" xml:space="default">
      <feGaussianBlur stdDeviation="10.51875" id="feGaussianBlur4389" xml:space="default" />
    </filter>
    <clipPath id="clipPath4393" xml:space="default">
      <path d="M1045.523 272.3086 C934.7892 272.3086 845.0231 362.0748 845.0231 472.8086 C845.0231 583.5424 934.7892 673.3087 1045.523 673.3087 C1156.257 673.3087 1246.023 583.5425 1246.023 472.8087 C1246.023 362.0749 1156.257 272.3087 1045.523 272.3087 z M1047.273 344.6524 C1065.093 344.6526 1081.627 347.1789 1096.929 352.2149 C1112.231 357.0576 1125.419 364.2238 1136.46 373.7149 C1147.695 383.2064 1156.505 395.0437 1162.898 409.1836 C1169.29 423.1302 1172.491 439.1947 1172.492 457.4024 C1172.491 471.5425 1170.934 484.1428 1167.835 495.1836 C1164.93 506.0309 1160.583 515.1356 1154.773 522.4961 C1149.155 529.8567 1142.37 535.4659 1134.429 539.3398 C1126.487 543.2139 1117.557 545.1523 1107.679 545.1523 C1102.061 545.1523 1096.452 544.477 1090.835 543.1211 C1085.218 541.7652 1080.578 539.3265 1076.898 535.8398 C1068.375 541.8445 1057.625 544.8398 1044.648 544.8398 C1034.963 544.8398 1026.033 543.4016 1017.898 540.4961 C1009.956 537.3969 1003.084 532.8445 997.2726 526.8398 C991.6553 520.8351 987.2217 513.4626 983.929 504.7461 C980.8297 495.836 979.2726 485.5869 979.2726 473.9648 C979.2726 464.0862 980.8297 454.894 983.929 446.3711 C987.2217 437.8484 991.9493 430.4759 998.1476 424.2773 C1004.346 417.8854 1011.894 412.864 1020.804 409.1836 C1029.908 405.5034 1040.188 403.6525 1051.616 403.6523 C1063.045 403.6525 1073.119 404.7093 1081.835 406.8398 C1090.745 408.777 1098.118 410.803 1103.929 412.9336 L1103.929 504.1836 C1103.929 508.6387 1104.779 511.634 1106.523 513.1836 C1108.459 514.7332 1111.192 515.4962 1114.679 515.4961 C1117.778 515.4962 1120.773 514.6457 1123.679 512.9023 C1126.778 511.1591 1129.392 508.045 1131.523 503.5898 C1133.653 498.9411 1135.385 492.7441 1136.741 484.9961 C1138.097 477.0545 1138.772 467.0993 1138.773 455.0898 C1138.772 443.0806 1136.659 432.1249 1132.398 422.2461 C1128.33 412.1738 1122.308 403.657 1114.366 396.6836 C1106.618 389.5168 1097.045 383.9953 1085.616 380.1211 C1074.382 376.0536 1061.606 374.0275 1047.273 374.0273 C1033.52 374.0275 1020.832 376.3475 1009.21 380.9961 C997.782 385.6451 987.7956 392.311 979.2728 401.0273 C970.9437 409.5503 964.3653 420.0057 959.5228 432.4023 C954.874 444.7993 952.5541 458.7502 952.5541 474.2461 C952.5541 490.3233 954.874 504.4805 959.5228 516.6836 C964.1716 528.693 970.7499 538.767 979.2728 546.9023 C987.9893 555.0377 998.4446 561.1159 1010.648 565.1836 C1023.044 569.445 1036.995 571.5898 1052.491 571.5898 C1062.176 571.5898 1071.281 570.9145 1079.804 569.5586 C1088.52 568.3964 1095.774 567.2208 1101.585 566.0586 L1105.96 593.3711 C1101.118 594.9206 1093.745 596.5652 1083.866 598.3086 C1073.988 600.0518 1063.532 600.9335 1052.491 600.9336 C1033.896 600.9335 1016.45 598.4948 1000.179 593.6523 C983.9081 588.8098 969.6945 581.2622 957.4915 570.9961 C945.4821 560.73 935.9647 547.6608 928.9915 531.7773 C922.0183 515.7003 918.554 496.5217 918.554 474.2461 C918.554 452.7455 922.2247 433.9483 929.5853 417.8711 C936.9459 401.6004 946.6383 388.0622 958.6477 377.2148 C970.6571 366.3678 984.3141 358.2324 999.6165 352.8086 C1015.112 347.3852 1031.002 344.6526 1047.273 344.6523 z M1053.367 434.7461 C1046.974 434.7462 1041.54 435.803 1037.085 437.9336 C1032.63 439.8707 1029.047 442.5721 1026.335 446.0586 C1023.623 449.5453 1021.597 453.7162 1020.242 458.5586 C1019.079 463.2075 1018.492 468.3477 1018.492 473.9649 C1018.492 479.5822 1018.992 484.8099 1019.96 489.6524 C1020.929 494.3012 1022.573 498.3533 1024.898 501.8399 C1027.416 505.3265 1030.705 508.1467 1034.773 510.2774 C1038.84 512.2144 1043.862 513.1837 1049.867 513.1836 C1053.353 513.1837 1056.642 512.9773 1059.742 512.5898 C1062.841 512.0088 1065.161 511.3334 1066.71 510.5586 C1066.323 509.009 1066.06 506.8079 1065.867 503.9023 C1065.673 500.8032 1065.554 497.8954 1065.554 495.1836 L1065.554 435.9023 C1061.68 435.1277 1057.628 434.7462 1053.367 434.7461 z" display="inline" enable-background="accumulate" stroke-width="7.440945" color="#000000" id="path4395" xml:space="default" marker="none" overflow="visible" style="fill:url(#radialGradient4397);" />
    </clipPath>
    <radialGradient cx="1080.863" cy="492.7377" r="230.3148" fx="1080.863" fy="492.7377" gradientUnits="userSpaceOnUse" xlink:href="#linearGradient4301" gradientTransform="matrix(0.8705533, 0, 0, 0.8705533, 104.5662, 43.84443)" id="radialGradient4397" xml:space="default" />
    <clipPath id="clipPath4393-2" xml:space="default">
      <path d="M1045.523 272.3086 C934.7892 272.3086 845.0231 362.0748 845.0231 472.8086 C845.0231 583.5424 934.7892 673.3087 1045.523 673.3087 C1156.257 673.3087 1246.023 583.5425 1246.023 472.8087 C1246.023 362.0749 1156.257 272.3087 1045.523 272.3087 z M1047.273 344.6524 C1065.093 344.6526 1081.627 347.1789 1096.929 352.2149 C1112.231 357.0576 1125.419 364.2238 1136.46 373.7149 C1147.695 383.2064 1156.505 395.0437 1162.898 409.1836 C1169.29 423.1302 1172.491 439.1947 1172.492 457.4024 C1172.491 471.5425 1170.934 484.1428 1167.835 495.1836 C1164.93 506.0309 1160.583 515.1356 1154.773 522.4961 C1149.155 529.8567 1142.37 535.4659 1134.429 539.3398 C1126.487 543.2139 1117.557 545.1523 1107.679 545.1523 C1102.061 545.1523 1096.452 544.477 1090.835 543.1211 C1085.218 541.7652 1080.578 539.3265 1076.898 535.8398 C1068.375 541.8445 1057.625 544.8398 1044.648 544.8398 C1034.963 544.8398 1026.033 543.4016 1017.898 540.4961 C1009.956 537.3969 1003.084 532.8445 997.2726 526.8398 C991.6553 520.8351 987.2217 513.4626 983.929 504.7461 C980.8297 495.836 979.2726 485.5869 979.2726 473.9648 C979.2726 464.0862 980.8297 454.894 983.929 446.3711 C987.2217 437.8484 991.9493 430.4759 998.1476 424.2773 C1004.346 417.8854 1011.894 412.864 1020.804 409.1836 C1029.908 405.5034 1040.188 403.6525 1051.616 403.6523 C1063.045 403.6525 1073.119 404.7093 1081.835 406.8398 C1090.745 408.777 1098.118 410.803 1103.929 412.9336 L1103.929 504.1836 C1103.929 508.6387 1104.779 511.634 1106.523 513.1836 C1108.459 514.7332 1111.192 515.4962 1114.679 515.4961 C1117.778 515.4962 1120.773 514.6457 1123.679 512.9023 C1126.778 511.1591 1129.392 508.045 1131.523 503.5898 C1133.653 498.9411 1135.385 492.7441 1136.741 484.9961 C1138.097 477.0545 1138.772 467.0993 1138.773 455.0898 C1138.772 443.0806 1136.659 432.1249 1132.398 422.2461 C1128.33 412.1738 1122.308 403.657 1114.366 396.6836 C1106.618 389.5168 1097.045 383.9953 1085.616 380.1211 C1074.382 376.0536 1061.606 374.0275 1047.273 374.0273 C1033.52 374.0275 1020.832 376.3475 1009.21 380.9961 C997.782 385.6451 987.7956 392.311 979.2728 401.0273 C970.9437 409.5503 964.3653 420.0057 959.5228 432.4023 C954.874 444.7993 952.5541 458.7502 952.5541 474.2461 C952.5541 490.3233 954.874 504.4805 959.5228 516.6836 C964.1716 528.693 970.7499 538.767 979.2728 546.9023 C987.9893 555.0377 998.4446 561.1159 1010.648 565.1836 C1023.044 569.445 1036.995 571.5898 1052.491 571.5898 C1062.176 571.5898 1071.281 570.9145 1079.804 569.5586 C1088.52 568.3964 1095.774 567.2208 1101.585 566.0586 L1105.96 593.3711 C1101.118 594.9206 1093.745 596.5652 1083.866 598.3086 C1073.988 600.0518 1063.532 600.9335 1052.491 600.9336 C1033.896 600.9335 1016.45 598.4948 1000.179 593.6523 C983.9081 588.8098 969.6945 581.2622 957.4915 570.9961 C945.4821 560.73 935.9647 547.6608 928.9915 531.7773 C922.0183 515.7003 918.554 496.5217 918.554 474.2461 C918.554 452.7455 922.2247 433.9483 929.5853 417.8711 C936.9459 401.6004 946.6383 388.0622 958.6477 377.2148 C970.6571 366.3678 984.3141 358.2324 999.6165 352.8086 C1015.112 347.3852 1031.002 344.6526 1047.273 344.6523 z M1053.367 434.7461 C1046.974 434.7462 1041.54 435.803 1037.085 437.9336 C1032.63 439.8707 1029.047 442.5721 1026.335 446.0586 C1023.623 449.5453 1021.597 453.7162 1020.242 458.5586 C1019.079 463.2075 1018.492 468.3477 1018.492 473.9649 C1018.492 479.5822 1018.992 484.8099 1019.96 489.6524 C1020.929 494.3012 1022.573 498.3533 1024.898 501.8399 C1027.416 505.3265 1030.705 508.1467 1034.773 510.2774 C1038.84 512.2144 1043.862 513.1837 1049.867 513.1836 C1053.353 513.1837 1056.642 512.9773 1059.742 512.5898 C1062.841 512.0088 1065.161 511.3334 1066.71 510.5586 C1066.323 509.009 1066.06 506.8079 1065.867 503.9023 C1065.673 500.8032 1065.554 497.8954 1065.554 495.1836 L1065.554 435.9023 C1061.68 435.1277 1057.628 434.7462 1053.367 434.7461 z" display="inline" enable-background="accumulate" stroke-width="7.440945" color="#000000" id="path4395-1" xml:space="default" marker="none" overflow="visible" style="fill:url(#radialGradient4397);" />
    </clipPath>
    <filter x="-0.06785151" y="-0.1640617" width="1.135703" height="1.328123" color-interpolation-filters="auto" id="filter4387-3" xml:space="default">
      <feGaussianBlur stdDeviation="10.51875" id="feGaussianBlur4389-0" xml:space="default" />
    </filter>
    <clipPath id="clipPath4512" xml:space="default">
      <path d="M1719.809 339.75 C1612.406 339.75 1525.34 426.8154 1525.34 534.2188 C1525.34 641.6221 1612.406 728.6875 1719.809 728.6875 C1827.212 728.6875 1914.278 641.6221 1914.278 534.2188 C1914.278 426.8154 1827.212 339.75 1719.809 339.75 z M1720.059 392.9375 A10.82779 10.82779 0 0 1 1726.09 395.0313 L1854.559 489.1563 A10.82779 10.82779 0 1 1 1841.778 506.5938 L1719.684 417.1875 L1597.621 506.5938 A10.82779 10.82779 0 1 1 1584.809 489.1563 L1713.278 395.0313 A10.82779 10.82779 0 0 1 1720.059 392.9375 z M1816.028 499.0938 A10.82779 10.82779 0 0 1 1826.778 510.3438 L1826.778 641.8125 A10.82779 10.82779 0 0 1 1815.965 652.625 L1623.465 652.625 A10.82779 10.82779 0 0 1 1612.621 641.8125 L1612.621 510.3438 A10.82779 10.82779 0 0 1 1623.277 499.3438 A10.82779 10.82779 0 0 1 1634.277 510.3438 L1634.277 631 L1805.121 631 L1805.121 510.3438 A10.82779 10.82779 0 0 1 1816.027 499.0938 z" display="inline" enable-background="accumulate" stroke-width="22.6063" color="#000000" id="path4514" xml:space="default" marker="none" overflow="visible" style="fill:url(#radialGradient4516);" />
    </clipPath>
    <radialGradient cx="1768.571" cy="489.505" r="237.1429" fx="1768.571" fy="489.505" gradientUnits="userSpaceOnUse" xlink:href="#linearGradient4301" gradientTransform="matrix(0.8200581, 0, 0, 0.8200581, 269.468, 132.7883)" id="radialGradient4516" xml:space="default" />
    <radialGradient cx="350.2657" cy="470.3651" r="209.1016" fx="350.2657" fy="470.3651" gradientUnits="userSpaceOnUse" xlink:href="#linearGradient4360" gradientTransform="matrix(1, 0.0007617629, -0.0007728186, 0.985507, 0.6207737, 6.540117)" id="radialGradient4524" xml:space="default" />
    <radialGradient cx="1768.571" cy="489.505" r="237.1429" fx="1768.571" fy="489.505" gradientUnits="userSpaceOnUse" xlink:href="#linearGradient4301" gradientTransform="matrix(0.8200581, 0, 0, 0.8200581, -1090.532, 521.3597)" id="radialGradient4526" xml:space="default" />
    <radialGradient cx="1080.863" cy="492.7377" r="230.3148" fx="1080.863" fy="492.7377" gradientUnits="userSpaceOnUse" xlink:href="#linearGradient4301" gradientTransform="matrix(0.8705533, 0, 0, 0.8705533, -115.4338, 35.273)" id="radialGradient4528" xml:space="default" />
    <linearGradient x1="0%" y1="0%" x2="100%" y2="0%" gradientUnits="objectBoundingBox" id="linearGradient4301-6" xml:space="default">
      <stop offset="0%" stop-color="#33FF33" stop-opacity="1" id="stop4303-4" xml:space="default" />
      <stop offset="77.03342%" stop-color="#339633" stop-opacity="1" id="stop4309-9" xml:space="default" />
      <stop offset="100%" stop-color="#333333" stop-opacity="1" id="stop4305-9" xml:space="default" />
    </linearGradient>
    <radialGradient cx="1768.571" cy="489.505" r="237.1429" fx="1768.571" fy="489.505" gradientUnits="userSpaceOnUse" xlink:href="#linearGradient4301-6" gradientTransform="matrix(0.8200581, 0, 0, 0.8200581, -1255.872, -206.9617)" id="radialGradient4613" xml:space="default" />
    <linearGradient x1="0%" y1="0%" x2="100%" y2="0%" gradientUnits="objectBoundingBox" id="linearGradient4301-4" xml:space="default">
      <stop offset="0%" stop-color="#33FF33" stop-opacity="1" id="stop4303-0" xml:space="default" />
      <stop offset="77.03342%" stop-color="#339633" stop-opacity="1" id="stop4309-8" xml:space="default" />
      <stop offset="100%" stop-color="#333333" stop-opacity="1" id="stop4305-4" xml:space="default" />
    </linearGradient>
    <radialGradient cx="1768.571" cy="489.505" r="237.1429" fx="1768.571" fy="489.505" gradientUnits="userSpaceOnUse" xlink:href="#linearGradient4301-4" gradientTransform="matrix(0.8200581, 0, 0, 0.8200581, -1255.872, -206.9617)" id="radialGradient4649" xml:space="default" />
    <radialGradient cx="1183.745" cy="1007.203" r="203.75" fx="1183.745" fy="1007.203" gradientUnits="userSpaceOnUse" xlink:href="#linearGradient4301-4" gradientTransform="matrix(1, 0, 0, 0.9999234, 335.5239, -531.3514)" id="radialGradient4675" xml:space="default" />
    <clipPath id="clipPath4393-9" xml:space="default">
      <path d="M1045.523 272.3086 C934.7892 272.3086 845.0231 362.0748 845.0231 472.8086 C845.0231 583.5424 934.7892 673.3087 1045.523 673.3087 C1156.257 673.3087 1246.023 583.5425 1246.023 472.8087 C1246.023 362.0749 1156.257 272.3087 1045.523 272.3087 z M1047.273 344.6524 C1065.093 344.6526 1081.627 347.1789 1096.929 352.2149 C1112.231 357.0576 1125.419 364.2238 1136.46 373.7149 C1147.695 383.2064 1156.505 395.0437 1162.898 409.1836 C1169.29 423.1302 1172.491 439.1947 1172.492 457.4024 C1172.491 471.5425 1170.934 484.1428 1167.835 495.1836 C1164.93 506.0309 1160.583 515.1356 1154.773 522.4961 C1149.155 529.8567 1142.37 535.4659 1134.429 539.3398 C1126.487 543.2139 1117.557 545.1523 1107.679 545.1523 C1102.061 545.1523 1096.452 544.477 1090.835 543.1211 C1085.218 541.7652 1080.578 539.3265 1076.898 535.8398 C1068.375 541.8445 1057.625 544.8398 1044.648 544.8398 C1034.963 544.8398 1026.033 543.4016 1017.898 540.4961 C1009.956 537.3969 1003.084 532.8445 997.2726 526.8398 C991.6553 520.8351 987.2217 513.4626 983.929 504.7461 C980.8297 495.836 979.2726 485.5869 979.2726 473.9648 C979.2726 464.0862 980.8297 454.894 983.929 446.3711 C987.2217 437.8484 991.9493 430.4759 998.1476 424.2773 C1004.346 417.8854 1011.894 412.864 1020.804 409.1836 C1029.908 405.5034 1040.188 403.6525 1051.616 403.6523 C1063.045 403.6525 1073.119 404.7093 1081.835 406.8398 C1090.745 408.777 1098.118 410.803 1103.929 412.9336 L1103.929 504.1836 C1103.929 508.6387 1104.779 511.634 1106.523 513.1836 C1108.459 514.7332 1111.192 515.4962 1114.679 515.4961 C1117.778 515.4962 1120.773 514.6457 1123.679 512.9023 C1126.778 511.1591 1129.392 508.045 1131.523 503.5898 C1133.653 498.9411 1135.385 492.7441 1136.741 484.9961 C1138.097 477.0545 1138.772 467.0993 1138.773 455.0898 C1138.772 443.0806 1136.659 432.1249 1132.398 422.2461 C1128.33 412.1738 1122.308 403.657 1114.366 396.6836 C1106.618 389.5168 1097.045 383.9953 1085.616 380.1211 C1074.382 376.0536 1061.606 374.0275 1047.273 374.0273 C1033.52 374.0275 1020.832 376.3475 1009.21 380.9961 C997.782 385.6451 987.7956 392.311 979.2728 401.0273 C970.9437 409.5503 964.3653 420.0057 959.5228 432.4023 C954.874 444.7993 952.5541 458.7502 952.5541 474.2461 C952.5541 490.3233 954.874 504.4805 959.5228 516.6836 C964.1716 528.693 970.7499 538.767 979.2728 546.9023 C987.9893 555.0377 998.4446 561.1159 1010.648 565.1836 C1023.044 569.445 1036.995 571.5898 1052.491 571.5898 C1062.176 571.5898 1071.281 570.9145 1079.804 569.5586 C1088.52 568.3964 1095.774 567.2208 1101.585 566.0586 L1105.96 593.3711 C1101.118 594.9206 1093.745 596.5652 1083.866 598.3086 C1073.988 600.0518 1063.532 600.9335 1052.491 600.9336 C1033.896 600.9335 1016.45 598.4948 1000.179 593.6523 C983.9081 588.8098 969.6945 581.2622 957.4915 570.9961 C945.4821 560.73 935.9647 547.6608 928.9915 531.7773 C922.0183 515.7003 918.554 496.5217 918.554 474.2461 C918.554 452.7455 922.2247 433.9483 929.5853 417.8711 C936.9459 401.6004 946.6383 388.0622 958.6477 377.2148 C970.6571 366.3678 984.3141 358.2324 999.6165 352.8086 C1015.112 347.3852 1031.002 344.6526 1047.273 344.6523 z M1053.367 434.7461 C1046.974 434.7462 1041.54 435.803 1037.085 437.9336 C1032.63 439.8707 1029.047 442.5721 1026.335 446.0586 C1023.623 449.5453 1021.597 453.7162 1020.242 458.5586 C1019.079 463.2075 1018.492 468.3477 1018.492 473.9649 C1018.492 479.5822 1018.992 484.8099 1019.96 489.6524 C1020.929 494.3012 1022.573 498.3533 1024.898 501.8399 C1027.416 505.3265 1030.705 508.1467 1034.773 510.2774 C1038.84 512.2144 1043.862 513.1837 1049.867 513.1836 C1053.353 513.1837 1056.642 512.9773 1059.742 512.5898 C1062.841 512.0088 1065.161 511.3334 1066.71 510.5586 C1066.323 509.009 1066.06 506.8079 1065.867 503.9023 C1065.673 500.8032 1065.554 497.8954 1065.554 495.1836 L1065.554 435.9023 C1061.68 435.1277 1057.628 434.7462 1053.367 434.7461 z" display="inline" enable-background="accumulate" stroke-width="7.440945" color="#000000" id="path4395-4" xml:space="default" marker="none" overflow="visible" style="fill:url(#radialGradient4397);" />
    </clipPath>
    <filter x="-0.06785151" y="-0.1640617" width="1.135703" height="1.328123" color-interpolation-filters="auto" id="filter4387-4" xml:space="default">
      <feGaussianBlur stdDeviation="10.51875" id="feGaussianBlur4389-4" xml:space="default" />
    </filter>
    <clipPath id="clipPath4713" xml:space="default">
      <path d="M1519.269 272.0402 C1406.747 272.0402 1315.519 363.2364 1315.519 475.7589 C1315.519 588.2816 1406.747 679.509 1519.269 679.509 C1631.792 679.509 1723.019 588.2816 1723.019 475.7589 C1723.019 363.2364 1631.792 272.0402 1519.269 272.0402 z M1442.926 349.6652 C1455.849 349.3632 1469.612 352.9792 1481.926 360.9777 C1539.999 398.701 1599.35 450.4378 1638.363 518.0714 C1652.911 545.7007 1647.462 578.3209 1624.582 593.7277 C1599.778 610.4294 1563.896 600.5663 1544.457 571.6964 C1525.474 543.5052 1529.177 507.638 1552.457 490.4152 C1539.525 472.2916 1523.211 456.0622 1505.801 440.4464 C1505.768 440.4981 1505.74 440.5198 1505.707 440.5714 C1489.557 465.7382 1452.718 470.9304 1423.425 452.1339 C1394.133 433.3374 1383.495 397.6757 1399.644 372.5089 C1408.98 357.9594 1425.215 350.079 1442.925 349.6652 z" filter="url(#filter4387-3-7)" display="inline" enable-background="accumulate" stroke-width="22.6063" color="#000000" id="path4715" xml:space="default" marker="none" overflow="visible" style="fill:url(#radialGradient4717);" />
    </clipPath>
    <radialGradient cx="1183.745" cy="1007.203" r="203.75" fx="1183.745" fy="1007.203" gradientUnits="userSpaceOnUse" xlink:href="#linearGradient4301-4" gradientTransform="matrix(1, 0, 0, 0.9999234, 335.5239, -531.3514)" id="radialGradient4717" xml:space="default" />
    <radialGradient cx="350.2657" cy="470.3651" r="209.1016" fx="350.2657" fy="470.3651" gradientUnits="userSpaceOnUse" xlink:href="#linearGradient4360" gradientTransform="matrix(1, 0.0007617629, -0.0007728186, 0.985507, 0.6207737, 6.540117)" id="radialGradient4721" xml:space="default" />
    <radialGradient cx="350.2657" cy="470.3651" r="209.1016" fx="350.2657" fy="470.3651" gradientUnits="userSpaceOnUse" xlink:href="#linearGradient4360" gradientTransform="matrix(1, 0.0007617629, -0.0007728186, 0.985507, -1559.996, -35.03152)" id="radialGradient4728" xml:space="default" />
    <radialGradient cx="1183.745" cy="1007.203" r="203.75" fx="1183.745" fy="1007.203" gradientUnits="userSpaceOnUse" xlink:href="#linearGradient4301-4" gradientTransform="matrix(1, 0, 0, 0.9999234, -1143.335, -571.3176)" id="radialGradient4730" xml:space="default" />
    <radialGradient cx="350.2657" cy="470.3651" r="209.1016" fx="350.2657" fy="470.3651" gradientUnits="userSpaceOnUse" xlink:href="#linearGradient4360" gradientTransform="matrix(1, 0.0007617629, -0.0007728186, 0.985507, 0.6207737, 6.540117)" id="radialGradient4747" xml:space="default" />
    <radialGradient cx="1768.571" cy="489.505" r="237.1429" fx="1768.571" fy="489.505" gradientUnits="userSpaceOnUse" xlink:href="#linearGradient4301" gradientTransform="matrix(0.8200581, 0, 0, 0.8200581, -1090.532, 521.3597)" id="radialGradient4749" xml:space="default" />
    <radialGradient cx="350.2657" cy="470.3651" r="209.1016" fx="350.2657" fy="470.3651" gradientUnits="userSpaceOnUse" xlink:href="#linearGradient4360" gradientTransform="matrix(0.4810184, 0.0003514968, -0.00037174, 0.4547379, 307.9941, 140.3271)" id="radialGradient4751" xml:space="default" />
    <radialGradient cx="1080.863" cy="492.7377" r="230.3148" fx="1080.863" fy="492.7377" gradientUnits="userSpaceOnUse" xlink:href="#linearGradient4301" gradientTransform="matrix(0.4187522, 0, 0, 0.4016954, 492.0966, 154.6883)" id="radialGradient4753" xml:space="default" />
    <radialGradient cx="350.2657" cy="470.3651" r="209.1016" fx="350.2657" fy="470.3651" gradientUnits="userSpaceOnUse" xlink:href="#linearGradient4360" gradientTransform="matrix(1, 0.0007617629, -0.0007728186, 0.985507, -1517.869, -33.91244)" id="radialGradient4755" xml:space="default" />
    <radialGradient cx="367.2813" cy="465.7031" r="198.25" fx="367.2813" fy="465.7031" gradientUnits="userSpaceOnUse" xlink:href="#linearGradient4301" gradientTransform="matrix(1, 0, 0, 1.000079, -1444.586, -38.92695)" id="radialGradient4757" xml:space="default" />
    <radialGradient cx="1768.571" cy="489.505" r="237.1429" fx="1768.571" fy="489.505" gradientUnits="userSpaceOnUse" xlink:href="#linearGradient4301" gradientTransform="matrix(0.8591546, 0, 0, 0.8591546, -2792.475, 270.5244)" id="radialGradient4761" xml:space="default" />
    <radialGradient cx="350.2657" cy="470.3651" r="209.1016" fx="350.2657" fy="470.3651" gradientUnits="userSpaceOnUse" xlink:href="#linearGradient4360" gradientTransform="matrix(1, 0.0007617629, -0.0007728186, 0.985507, -1517.081, -33.89146)" id="radialGradient4770" xml:space="default" />
    <linearGradient x1="625.0231" y1="464.2372" x2="1026.023" y2="464.2372" gradientUnits="userSpaceOnUse" xlink:href="#linearGradient4301-4" id="linearGradient4610" xml:space="default" />
  </defs>
  <g transform="matrix(2.112519, 0, 0, 2.202221, -1278.268, -543.8614)" id="g4732" xml:space="default" style="fill:url(#linearGradient4610);">
    <path d="M559.6245 470.5143 A209.1016 206.0711 0 1 1 141.4214 470.5143 A209.1016 206.0711 0 1 1 559.6245 470.5143 z" display="inline" enable-background="accumulate" stroke-width="7.440945" color="#000000" transform="matrix(0.9476121, 0, 0, 0.9613792, 493.3633, 11.8945)" id="path4368" xml:space="default" connector-curvature="0" overflow="visible" marker="none" />
    <path d="M825.523 263.7372 C714.7893 263.7372 625.0231 353.5034 625.0231 464.2372 C625.0231 574.971 714.7892 664.7372 825.5229 664.7372 C936.2568 664.7372 1026.023 574.971 1026.023 464.2372 C1026.023 353.5034 936.2568 263.7372 825.5229 263.7372 z M827.273 336.0809 C845.0933 336.0811 861.6268 338.6075 876.9293 343.6434 C892.2314 348.4861 905.4194 355.6523 916.4606 365.1434 C927.6949 374.6349 936.5057 386.4722 942.898 400.6122 C949.2899 414.5587 952.4915 430.6232 952.4918 448.8309 C952.4915 462.9711 950.9345 475.5714 947.8356 486.6122 C944.9298 497.4594 940.5839 506.5641 934.773 513.9247 C929.1555 521.2853 922.3708 526.8945 914.4293 530.7684 C906.4874 534.6425 897.5578 536.5809 887.6793 536.5809 C882.0618 536.5809 876.4527 535.9056 870.8356 534.5497 C865.2181 533.1938 860.5782 530.7551 856.898 527.2684 C848.3751 533.2731 837.6258 536.2684 824.648 536.2684 C814.9629 536.2684 806.0333 534.8302 797.898 531.9247 C789.9562 528.8255 783.084 524.2731 777.2731 518.2684 C771.6558 512.2637 767.2222 504.8912 763.9294 496.1747 C760.8301 487.2646 759.2731 477.0155 759.2731 465.3934 C759.2731 455.5148 760.8301 446.3226 763.9294 437.7997 C767.2222 429.277 771.9497 421.9044 778.1481 415.7059 C784.3464 409.314 791.894 404.2926 800.8043 400.6122 C809.9081 396.932 820.1884 395.0811 831.6168 395.0809 C843.0449 395.0811 853.1189 396.1379 861.8356 398.2684 C870.7456 400.2056 878.1181 402.2316 883.9293 404.3622 L883.9293 495.6122 C883.9291 500.0673 884.7795 503.0626 886.523 504.6122 C888.4598 506.1618 891.1925 506.9247 894.6793 506.9247 C897.7783 506.9247 900.7736 506.0743 903.6793 504.3309 C906.7783 502.5877 909.3922 499.4736 911.523 495.0184 C913.6535 490.3697 915.3857 484.1727 916.7418 476.4247 C918.0975 468.4831 918.7728 458.5279 918.773 446.5184 C918.7728 434.5092 916.6592 423.5535 912.398 413.6747 C908.3301 403.6024 902.3083 395.0855 894.3668 388.1122 C886.6186 380.9454 877.0449 375.4239 865.6168 371.5497 C854.382 367.4822 841.6068 365.4561 827.273 365.4559 C813.5202 365.4561 800.8324 367.7761 789.2106 372.4247 C777.7823 377.0736 767.7959 383.7396 759.2731 392.4559 C750.944 400.9789 744.3656 411.4343 739.5231 423.8309 C734.8743 436.2278 732.5544 450.1788 732.5544 465.6747 C732.5544 481.7519 734.8743 495.9091 739.5231 508.1122 C744.1719 520.1216 750.7502 530.1956 759.2731 538.3309 C767.9896 546.4663 778.4449 552.5445 790.648 556.6122 C803.0447 560.8736 816.9957 563.0184 832.4918 563.0184 C842.1766 563.0184 851.2813 562.3431 859.8043 560.9872 C868.5206 559.825 875.7744 558.6494 881.5856 557.4872 L885.9606 584.7997 C881.1179 586.3492 873.7454 587.9938 863.8668 589.7372 C853.9879 591.4804 843.5325 592.3621 832.4918 592.3622 C813.8965 592.3621 796.45 589.9234 780.1793 585.0809 C763.9084 580.2383 749.6949 572.6908 737.4919 562.4247 C725.4824 552.1586 715.965 539.0894 708.9919 523.2059 C702.0187 507.1289 698.5544 487.9503 698.5544 465.6747 C698.5544 444.1741 702.225 425.3769 709.5856 409.2997 C716.9462 393.029 726.6387 379.4908 738.6481 368.6434 C750.6575 357.7964 764.3145 349.661 779.6169 344.2372 C795.1127 338.8138 811.0021 336.0811 827.2731 336.0809 z M833.3668 426.1747 C826.9746 426.1748 821.5405 427.2316 817.0856 429.3622 C812.6303 431.2993 809.0472 434.0007 806.3356 437.4872 C803.6237 440.9739 801.5977 445.1448 800.2418 449.9872 C799.0795 454.6361 798.4917 459.7762 798.4918 465.3934 C798.4917 471.0108 798.9919 476.2385 799.9606 481.0809 C800.929 485.7298 802.5735 489.7819 804.898 493.2684 C807.416 496.7551 810.7052 499.5753 814.773 501.7059 C818.8406 503.643 823.862 504.6122 829.8668 504.6122 C833.3533 504.6122 836.6424 504.4059 839.7418 504.0184 C842.8408 503.4374 845.1608 502.762 846.7106 501.9872 C846.3231 500.4376 846.0603 498.2365 845.8668 495.3309 C845.6729 492.2318 845.5541 489.324 845.5543 486.6122 L845.5543 427.3309 C841.6801 426.5562 837.6281 426.1748 833.3668 426.1747 z" display="inline" enable-background="accumulate" stroke-width="7.440945" color="#000000" id="path4311" xml:space="default" connector-curvature="0" overflow="visible" marker="none" />
    <path d="M1045.531 272.3125 C961.266 272.3125 889.1646 324.2911 859.5001 397.9375 C880.8304 405.798 904.4726 412.3251 929.8751 417.2813 C937.2018 401.2769 946.7945 387.9328 958.6563 377.2188 C970.6657 366.3717 984.3226 358.2363 999.6251 352.8125 C1015.121 347.3891 1031.01 344.6565 1047.281 344.6563 C1065.102 344.6565 1081.635 347.1828 1096.938 352.2188 C1112.24 357.0615 1125.427 364.2276 1136.469 373.7188 C1147.703 383.2102 1156.514 395.0475 1162.906 409.1875 C1163.974 411.517 1164.954 413.896 1165.844 416.3438 C1189.471 411.5111 1211.55 405.3124 1231.563 397.9375 C1201.898 324.2911 1129.797 272.3125 1045.531 272.3125 z M1047.281 374.0313 C1033.529 374.0314 1020.841 376.3514 1009.219 381 C997.7905 385.649 987.8041 392.3149 979.2813 401.0313 C973.1959 407.2584 968.0347 414.5188 963.8126 422.8125 C974.4286 424.212 985.2881 425.3362 996.3438 426.1875 C996.9371 425.5409 997.5334 424.9042 998.1563 424.2813 C1004.355 417.8893 1011.902 412.868 1020.813 409.1875 C1029.916 405.5074 1040.197 403.6564 1051.625 403.6563 C1063.053 403.6564 1073.127 404.7132 1081.844 406.8438 C1090.754 408.7809 1098.126 410.8069 1103.938 412.9375 L1103.938 425.4375 C1113.583 424.5488 1123.052 423.4343 1132.344 422.125 C1128.276 412.1093 1122.282 403.6309 1114.375 396.6875 C1106.627 389.5208 1097.053 383.9992 1085.625 380.125 C1074.39 376.0575 1061.615 374.0314 1047.281 374.0313 z" clip-path="url(#clipPath4393)" filter="url(#filter4387)" display="inline" enable-background="accumulate" stroke-width="7.440945" opacity="0.45" color="#000000" transform="translate(-220, -8.571426)" id="path4372" xml:space="default" connector-curvature="0" overflow="visible" marker="none" />
  </g>
</svg>