<?xml version="1.0" encoding="utf-8"?>
<!DOCTYPE svg PUBLIC "-//W3C//DTD SVG 1.1//EN" "http://www.w3.org/Graphics/SVG/1.1/DTD/svg11.dtd">
<svg x="0" y="0" width="48" height="48.15379" overflow="hidden" viewBox="0, 0, 47.96112, 48.11478"
     preserveAspectRatio="xMidYMid" font-size="0px" id="svg" xml:space="preserve" xmlns="http://www.w3.org/2000/svg"
     xmlns:xml="http://www.w3.org/XML/1998/namespace" version="1.1">
  <g stroke-width="1.000008" transform="matrix(0.4493786, 0, 0, 0.3080238, -7.339858E-06, -0.0031337)" id="g205" xml:space="preserve">
    <linearGradient x1="36.58432" y1="122.9942" x2="71.83375" y2="122.9942" gradientUnits="userSpaceOnUse" gradientTransform="matrix(0.8997998, 0, 0, 1.111376, 0.00538801, -2.445355)" id="SVGID_Stroke1_" xml:space="preserve">
      <stop offset="21.1207%" stop-color="#C0AB95" stop-opacity="1" id="stop2" xml:space="preserve" />
      <stop offset="57.3276%" stop-color="#F2D7BA" stop-opacity="1" id="stop4" xml:space="preserve" />
      <stop offset="84.0517%" stop-color="#C0AB95" stop-opacity="1" id="stop6" xml:space="preserve" />
    </linearGradient>
    <linearGradient x1="37.59657" y1="123.3081" x2="75.05547" y2="123.3081" gradientUnits="userSpaceOnUse" gradientTransform="matrix(0.8997998, 0, 0, 1.111376, 0.00538801, -2.445355)" id="SVGID_Fill1_" xml:space="preserve">
      <stop offset="21.1207%" stop-color="#C0AB95" stop-opacity="1" id="stop9" xml:space="preserve" />
      <stop offset="57.3276%" stop-color="#F2D7BA" stop-opacity="1" id="stop11" xml:space="preserve" />
      <stop offset="84.0517%" stop-color="#C0AB95" stop-opacity="1" id="stop13" xml:space="preserve" />
    </linearGradient>
    <path d="M6.45508 141.513 C8.45703 143.623 10.854 146.428 12.6267 148.83 C12.7456 148.99 12.8613 149.15 12.9746 149.307 L34.3035 138.784 C34.1323 138.069 33.8933 137.277 33.397 136.198 C32.7229 134.731 31.5742 132.733 29.8013 130.331 C28.0283 127.93 25.6313 125.125 23.6299 123.014 C21.6279 120.903 20.0215 119.486 17.9956 117.871 C15.9697 116.256 13.5244 114.441 11.2952 113.004 C9.807612 112.046 8.416492 111.256 7.057124 110.521 L3.275874 138.423 C4.307612 139.338 5.317623 140.313 6.455072 141.513 z" stroke="url(#SVGID_Stroke1_)" stroke-width="2.000016" stroke-linejoin="round" id="path16" xml:space="preserve" connector-curvature="0" style="fill:url(#SVGID_Fill1_);" />
    <linearGradient x1="14.72905" y1="129.5553" x2="30.21048" y2="129.5553" gradientUnits="userSpaceOnUse" gradientTransform="matrix(0.8622764, 0, 0, 1.159739, 0.00538801, -2.445355)" id="SVGID_Stroke2_" xml:space="preserve">
      <stop offset="0%" stop-color="#39393B" stop-opacity="1" id="stop18" xml:space="preserve" />
      <stop offset="52.5862%" stop-color="#AFABAB" stop-opacity="1" id="stop20" xml:space="preserve" />
      <stop offset="100%" stop-color="#39393B" stop-opacity="1" id="stop22" xml:space="preserve" />
    </linearGradient>
    <linearGradient x1="15.8358" y1="129.9061" x2="33.77885" y2="129.9061" gradientUnits="userSpaceOnUse" gradientTransform="matrix(0.8622764, 0, 0, 1.159739, 0.00538801, -2.445355)" id="SVGID_Fill2_" xml:space="preserve">
      <stop offset="0%" stop-color="#39393B" stop-opacity="1" id="stop25" xml:space="preserve" />
      <stop offset="53.4483%" stop-color="#AFABAB" stop-opacity="1" id="stop27" xml:space="preserve" />
      <stop offset="100%" stop-color="#39393B" stop-opacity="1" id="stop29" xml:space="preserve" />
    </linearGradient>
    <path d="M3.27588 138.423 L1 155.215 L12.9746 149.307 C12.8613 149.15 12.7456 148.99 12.6267 148.83 C10.854 146.428 8.457028 143.623 6.45508 141.513 C5.31763 140.313 4.30762 139.338 3.27588 138.423 z" stroke="url(#SVGID_Stroke2_)" stroke-width="2.000016" stroke-linejoin="round" id="path32" xml:space="preserve" connector-curvature="0" style="fill:url(#SVGID_Fill2_);" />
    <linearGradient x1="65.24526" y1="23.11336" x2="106.7897" y2="23.11336" gradientUnits="userSpaceOnUse" gradientTransform="matrix(0.9268574, 0, 0, 1.078931, 0.00538801, -2.445355)" id="SVGID_Stroke3_" xml:space="preserve">
      <stop offset="4.97804%" stop-color="#839597" stop-opacity="1" id="stop34" xml:space="preserve" />
      <stop offset="8.345531%" stop-color="#DADCDC" stop-opacity="1" id="stop36" xml:space="preserve" />
      <stop offset="10.5417%" stop-color="#C4CBCC" stop-opacity="1" id="stop38" xml:space="preserve" />
      <stop offset="12.8843%" stop-color="#839597" stop-opacity="1" id="stop40" xml:space="preserve" />
      <stop offset="15.9592%" stop-color="#475253" stop-opacity="1" id="stop42" xml:space="preserve" />
      <stop offset="19.7657%" stop-color="#353E3F" stop-opacity="1" id="stop44" xml:space="preserve" />
      <stop offset="20.6442%" stop-color="#FFFFFF" stop-opacity="1" id="stop46" xml:space="preserve" />
      <stop offset="21.2299%" stop-color="#F1F1F1" stop-opacity="1" id="stop48" xml:space="preserve" />
      <stop offset="39.0922%" stop-color="#DCE4E5" stop-opacity="1" id="stop50" xml:space="preserve" />
      <stop offset="46.7057%" stop-color="#839597" stop-opacity="1" id="stop52" xml:space="preserve" />
      <stop offset="48.6091%" stop-color="#676C6C" stop-opacity="1" id="stop54" xml:space="preserve" />
      <stop offset="50.5124%" stop-color="#444949" stop-opacity="1" id="stop56" xml:space="preserve" />
      <stop offset="52.8551%" stop-color="#323434" stop-opacity="1" id="stop58" xml:space="preserve" />
      <stop offset="55.6369%" stop-color="#484D4D" stop-opacity="1" id="stop60" xml:space="preserve" />
      <stop offset="60.6149%" stop-color="#839597" stop-opacity="1" id="stop62" xml:space="preserve" />
      <stop offset="77.4524%" stop-color="#839597" stop-opacity="1" id="stop64" xml:space="preserve" />
      <stop offset="78.6237%" stop-color="#FFFFFF" stop-opacity="1" id="stop66" xml:space="preserve" />
      <stop offset="87.2621%" stop-color="#FFFFFF" stop-opacity="1" id="stop68" xml:space="preserve" />
      <stop offset="98.5359%" stop-color="#839597" stop-opacity="1" id="stop70" xml:space="preserve" />
    </linearGradient>
    <linearGradient x1="64.29685" y1="22.69114" x2="107.9124" y2="22.69114" gradientUnits="userSpaceOnUse" gradientTransform="matrix(0.9268574, 0, 0, 1.078931, 0.00538801, -2.445355)" id="SVGID_Fill3_" xml:space="preserve">
      <stop offset="4.97804%" stop-color="#839597" stop-opacity="1" id="stop73" xml:space="preserve" />
      <stop offset="8.345531%" stop-color="#DADCDC" stop-opacity="1" id="stop75" xml:space="preserve" />
      <stop offset="10.5417%" stop-color="#C4CBCC" stop-opacity="1" id="stop77" xml:space="preserve" />
      <stop offset="12.8843%" stop-color="#839597" stop-opacity="1" id="stop79" xml:space="preserve" />
      <stop offset="15.9592%" stop-color="#475253" stop-opacity="1" id="stop81" xml:space="preserve" />
      <stop offset="19.7657%" stop-color="#353E3F" stop-opacity="1" id="stop83" xml:space="preserve" />
      <stop offset="20.6442%" stop-color="#FFFFFF" stop-opacity="1" id="stop85" xml:space="preserve" />
      <stop offset="21.2299%" stop-color="#F1F1F1" stop-opacity="1" id="stop87" xml:space="preserve" />
      <stop offset="39.0922%" stop-color="#DCE4E5" stop-opacity="1" id="stop89" xml:space="preserve" />
      <stop offset="46.7057%" stop-color="#839597" stop-opacity="1" id="stop91" xml:space="preserve" />
      <stop offset="48.6091%" stop-color="#676C6C" stop-opacity="1" id="stop93" xml:space="preserve" />
      <stop offset="50.5124%" stop-color="#444949" stop-opacity="1" id="stop95" xml:space="preserve" />
      <stop offset="52.8551%" stop-color="#323434" stop-opacity="1" id="stop97" xml:space="preserve" />
      <stop offset="55.6369%" stop-color="#484D4D" stop-opacity="1" id="stop99" xml:space="preserve" />
      <stop offset="60.6149%" stop-color="#839597" stop-opacity="1" id="stop101" xml:space="preserve" />
      <stop offset="77.4524%" stop-color="#839597" stop-opacity="1" id="stop103" xml:space="preserve" />
      <stop offset="78.6237%" stop-color="#FFFFFF" stop-opacity="1" id="stop105" xml:space="preserve" />
      <stop offset="87.2621%" stop-color="#FFFFFF" stop-opacity="1" id="stop107" xml:space="preserve" />
      <stop offset="98.5359%" stop-color="#839597" stop-opacity="1" id="stop109" xml:space="preserve" />
    </linearGradient>
    <path d="M63.4844 32.9128 C65.7136 34.3493 68.15891 36.1637 70.1851 37.7794 C72.2107 39.3952 73.81712 40.8117 75.81911 42.9225 C77.82082 45.0331 80.21751 47.8378 81.99072 50.2394 C83.7634 52.6408 84.91212 54.6396 85.58642 56.1061 C85.94732 56.8913 86.17192 57.5241 86.33372 58.0861 L96.9868 41.4245 C96.8064 40.6051 96.5789 39.7323 95.9937 38.4596 C95.3193 36.9928 94.1707 34.9943 92.3979 32.5927 C90.6248 30.1913 88.228 27.3866 86.2263 25.276 C84.2246 23.1652 82.6182 21.7482 80.5923 20.1327 C78.5662 18.5172 76.1208 16.7023 73.8916 15.2658 C72.2349 14.1982 70.6973 13.3395 69.1902 12.5341 L58.1296 29.8336 C59.8467 30.7414 61.5874 31.6903 63.4844 32.9128 z" stroke="url(#SVGID_Stroke3_)" stroke-width="2.000016" stroke-linejoin="round" id="path112" xml:space="preserve" connector-curvature="0" style="fill:url(#SVGID_Fill3_);" />
    <linearGradient x1="37.7819" y1="62.61237" x2="110.8236" y2="62.61237" gradientUnits="userSpaceOnUse" gradientTransform="matrix(0.8025047, 0, 0, 1.246118, 0.00538801, -2.445355)" id="SVGID_Stroke4_" xml:space="preserve">
      <stop offset="0%" stop-color="#F40000" stop-opacity="1" id="stop114" xml:space="preserve" />
      <stop offset="46.9828%" stop-color="#E20001" stop-opacity="1" id="stop116" xml:space="preserve" />
      <stop offset="65.9483%" stop-color="#570B0D" stop-opacity="1" id="stop118" xml:space="preserve" />
    </linearGradient>
    <linearGradient x1="36.58897" y1="62.32603" x2="112.0686" y2="62.32603" gradientUnits="userSpaceOnUse" gradientTransform="matrix(0.8025047, 0, 0, 1.246118, 0.00538801, -2.445355)" id="SVGID_Fill4_" xml:space="preserve">
      <stop offset="0%" stop-color="#F40000" stop-opacity="1" id="stop121" xml:space="preserve" />
      <stop offset="46.9828%" stop-color="#E20001" stop-opacity="1" id="stop123" xml:space="preserve" />
      <stop offset="65.9483%" stop-color="#570B0D" stop-opacity="1" id="stop125" xml:space="preserve" />
    </linearGradient>
    <path d="M30.0046 130.288 C31.7773 132.689 32.9263 134.688 33.6006 136.154 C34.1663 137.385 34.3977 138.242 34.5754 139.038 L86.3337 58.0861 C86.17191 57.5241 85.9473 56.8913 85.5864 56.1061 C84.9121 54.6396 83.7634 52.6408 81.9907 50.2394 C81.7124 49.8629 81.4189 49.4765 81.1143 49.0841 L29.104 129.101 C29.4175 129.504 29.7192 129.901 30.0046 130.288 z" stroke="url(#SVGID_Stroke4_)" stroke-width="2.000016" stroke-linejoin="round" id="path128" xml:space="preserve" connector-curvature="0" style="fill:url(#SVGID_Fill4_);" />
    <linearGradient x1="18.82741" y1="51.9903" x2="99.80556" y2="51.9903" gradientUnits="userSpaceOnUse" gradientTransform="matrix(0.8458753, 0, 0, 1.182226, 0.00538801, -2.445355)" id="SVGID_Stroke5_" xml:space="preserve">
      <stop offset="0%" stop-color="#F40000" stop-opacity="1" id="stop130" xml:space="preserve" />
      <stop offset="46.9828%" stop-color="#E20001" stop-opacity="1" id="stop132" xml:space="preserve" />
      <stop offset="65.9483%" stop-color="#570B0D" stop-opacity="1" id="stop134" xml:space="preserve" />
    </linearGradient>
    <linearGradient x1="17.74076" y1="51.64063" x2="100.9852" y2="51.64063" gradientUnits="userSpaceOnUse" gradientTransform="matrix(0.8458753, 0, 0, 1.182226, 0.00538801, -2.445355)" id="SVGID_Fill5_" xml:space="preserve">
      <stop offset="0%" stop-color="#F40000" stop-opacity="1" id="stop137" xml:space="preserve" />
      <stop offset="46.9828%" stop-color="#E20001" stop-opacity="1" id="stop139" xml:space="preserve" />
      <stop offset="65.9483%" stop-color="#570B0D" stop-opacity="1" id="stop141" xml:space="preserve" />
    </linearGradient>
    <path d="M18.199 117.828 C20.2251 119.443 21.8315 120.86 23.833 122.971 C25.5125 124.741 27.47 127.001 29.104 129.101 L81.1143 49.0841 C79.4756 46.9755 77.50681 44.7023 75.81911 42.9225 C73.81712 40.8117 72.21072 39.3952 70.1851 37.7794 C68.3745 36.3356 66.22852 34.7326 64.2019 33.3827 L13.1843 114.089 C14.9128 115.284 16.6748 116.612 18.199 117.828 z" stroke="url(#SVGID_Stroke5_)" stroke-width="2.000016" stroke-linejoin="round" id="path144" xml:space="preserve" connector-curvature="0" style="fill:url(#SVGID_Fill5_);" />
    <linearGradient x1="10.0974" y1="45.50795" x2="81.33028" y2="45.50795" gradientUnits="userSpaceOnUse" gradientTransform="matrix(0.8301755, 0, 0, 1.204583, 0.00538801, -2.445355)" id="SVGID_Stroke6_" xml:space="preserve">
      <stop offset="0%" stop-color="#F40000" stop-opacity="1" id="stop146" xml:space="preserve" />
      <stop offset="47.4138%" stop-color="#E20001" stop-opacity="1" id="stop148" xml:space="preserve" />
      <stop offset="54.3103%" stop-color="#570B0D" stop-opacity="1" id="stop150" xml:space="preserve" />
    </linearGradient>
    <linearGradient x1="8.96163" y1="45.17001" x2="82.54842" y2="45.17001" gradientUnits="userSpaceOnUse" gradientTransform="matrix(0.8301755, 0, 0, 1.204583, 0.00538801, -2.445355)" id="SVGID_Fill6_" xml:space="preserve">
      <stop offset="0%" stop-color="#F40000" stop-opacity="1" id="stop153" xml:space="preserve" />
      <stop offset="47.4138%" stop-color="#E20001" stop-opacity="1" id="stop155" xml:space="preserve" />
      <stop offset="54.3103%" stop-color="#570B0D" stop-opacity="1" id="stop157" xml:space="preserve" />
    </linearGradient>
    <path d="M64.2019 33.3827 C63.9607 33.2223 63.7214 33.0653 63.4844 32.9128 C61.5874 31.6903 59.8467 30.7414 58.1296 29.8336 L6.74512 110.201 C8.26855 111.015 9.82251 111.881 11.4985 112.961 C12.0503 113.316 12.6157 113.695 13.1843 114.089 z" stroke="url(#SVGID_Stroke6_)" stroke-width="2.000016" stroke-linejoin="round" id="path160" xml:space="preserve" connector-curvature="0" style="fill:url(#SVGID_Fill6_);" />
    <linearGradient x1="10.25749" y1="49.03434" x2="91.9097" y2="49.03434" gradientUnits="userSpaceOnUse" gradientTransform="matrix(0.9274771, 0, 0, 1.078211, 0.00538801, -2.445355)" id="SVGID_Fill7_" xml:space="preserve">
      <stop offset="43.5345%" stop-color="#EEEBEB" stop-opacity="0.156863" id="stop162" xml:space="preserve" />
      <stop offset="69.8276%" stop-color="#EEEEEE" stop-opacity="0.392157" id="stop164" xml:space="preserve" />
    </linearGradient>
    <path d="M57.6724 29.1212 L5.88062 110.374 L14.8774 116.264 L32.4578 89.758 L46.5942 73.05 L59.9597 59.2653 L69.2947 51.7238 L73.3535 49.6686 L77.5544 47.963 L80.855 47.1535 L78.272 44.206 L75.8386 41.7274 L73.04 39.153 L69.3611 35.9162 L65.7126 33.1564 L61.1101 30.4577 z" stroke-width="0.2000016" stroke-linejoin="round" id="path167" xml:space="preserve" connector-curvature="0" style="fill:url(#SVGID_Fill7_);" />
    <path d="M59.3457 25.6129 C61.3591 26.6715 63.3726 27.7296 65.6016 29.1662 C67.8308 30.6027 70.2761 32.4176 72.3022 34.0331 C74.3281 35.6486 75.9346 37.0656 77.9363 39.1764 C79.938 41.287 82.335 44.0917 84.1079 46.4931 C85.8806 48.8947 87.0293 50.8932 87.70361 52.36 C88.37772 53.8268 88.5771 54.7616 88.77692 55.6969" stroke="#000000" stroke-width="1.000008" stroke-linejoin="round" id="path169" xml:space="preserve" connector-curvature="0" style="fill:none;" />
    <path d="M60.2742 25.1542 C62.2871 26.2128 64.3005 27.2711 66.53 28.7077 C68.7593 30.1442 71.2046 31.9589 73.2305 33.5744 C75.2563 35.1901 76.8628 36.6071 78.8643 38.7177 C80.8662 40.8283 83.2632 43.633 85.0359 46.0343 C86.8091 48.4362 87.95779 50.4345 88.6318 51.9013 C89.3062 53.3681 89.5056 54.3029 89.7048 55.2382" stroke="#E8EDEE" stroke-width="1.000008" stroke-linejoin="round" id="path171" xml:space="preserve" connector-curvature="0" style="fill:none;" />
    <path d="M59.8716 25.1005 C61.8848 26.1591 63.8982 27.2174 66.1274 28.654 C68.3564 30.0905 70.8018 31.9052 72.8279 33.5207 C74.854 35.1364 76.4604 36.5534 78.46191 38.664 C80.46362 40.7746 82.86082 43.5793 84.63351 45.9806 C86.4063 48.3825 87.55521 50.3808 88.22922 51.8476 C88.90332 53.3144 89.10302 54.2492 89.30252 55.1845" stroke="#678185" stroke-width="1.000008" stroke-linejoin="round" id="path173" xml:space="preserve" connector-curvature="0" style="fill:none;" />
    <path d="M65.7666 16.1823 C67.7798 17.2409 69.793 18.299 72.0225 19.7355 C74.2517 21.172 76.697 22.987 78.7231 24.6024 C80.7488 26.2179 82.3552 27.6349 84.3569 29.7458 C86.35889 31.8564 88.75558 34.661 90.5283 37.0624 C92.3015 39.464 93.4502 41.4626 94.1245 42.9294 C94.7986 44.3961 94.99799 45.331 95.1973 46.2663" stroke="#000000" stroke-width="1.000008" stroke-linejoin="round" id="path175" xml:space="preserve" connector-curvature="0" style="fill:none;" />
    <path d="M66.6951 15.7245 C68.708 16.7831 70.7214 17.8415 72.9509 19.278 C75.1802 20.7145 77.6255 22.5292 79.6514 24.1447 C81.6772 25.7604 83.2837 27.1774 85.28519 29.288 C87.28709 31.3986 89.6841 34.2033 91.45679 36.6046 C93.23 39.0065 94.37868 41.0048 95.0527 42.4716 C95.7271 43.9384 95.9265 44.8732 96.12569 45.8085" stroke="#E8EDEE" stroke-width="1.000008" stroke-linejoin="round" id="path177" xml:space="preserve" connector-curvature="0" style="fill:none;" />
    <path d="M66.2925 15.6706 C68.3054 16.7292 70.3188 17.7873 72.5483 19.2238 C74.7773 20.6603 77.2227 22.4753 79.2488 24.0907 C81.2744 25.7062 82.88091 27.1232 84.8826 29.234 C86.8845 31.3446 89.2813 34.1493 91.0542 36.5507 C92.8271 38.9523 93.9761 40.9508 94.6501 42.4176 C95.3242 43.8844 95.5239 44.8192 95.7231 45.7545" stroke="#678185" stroke-width="1.000008" stroke-linejoin="round" id="path179" xml:space="preserve" connector-curvature="0" style="fill:none;" />
    <linearGradient x1="75.58527" y1="9.61958" x2="113.975" y2="9.61958" gradientUnits="userSpaceOnUse" gradientTransform="matrix(0.9536728, 0, 0, 1.048594, 0.00538801, -2.445355)" id="SVGID_Stroke7_" xml:space="preserve">
      <stop offset="0%" stop-color="#BD0707" stop-opacity="1" id="stop181" xml:space="preserve" />
      <stop offset="9.31373%" stop-color="#FC0909" stop-opacity="1" id="stop183" xml:space="preserve" />
      <stop offset="20.5882%" stop-color="#FEAFAF" stop-opacity="1" id="stop185" xml:space="preserve" />
      <stop offset="85.7843%" stop-color="#FF0606" stop-opacity="1" id="stop187" xml:space="preserve" />
      <stop offset="100%" stop-color="#AF0F0F" stop-opacity="1" id="stop189" xml:space="preserve" />
    </linearGradient>
    <linearGradient x1="74.66374" y1="9.103868" x2="115.1517" y2="9.103868" gradientUnits="userSpaceOnUse" gradientTransform="matrix(0.9536728, 0, 0, 1.048594, 0.00538801, -2.445355)" id="SVGID_Fill8_" xml:space="preserve">
      <stop offset="0%" stop-color="#BD0707" stop-opacity="1" id="stop192" xml:space="preserve" />
      <stop offset="9.31373%" stop-color="#FC0909" stop-opacity="1" id="stop194" xml:space="preserve" />
      <stop offset="20.5882%" stop-color="#FEAFAF" stop-opacity="1" id="stop196" xml:space="preserve" />
      <stop offset="85.7843%" stop-color="#FF0606" stop-opacity="1" id="stop198" xml:space="preserve" />
      <stop offset="100%" stop-color="#AF0F0F" stop-opacity="1" id="stop200" xml:space="preserve" />
    </linearGradient>
    <path d="M74.6431 14.3913 C76.8721 15.8278 79.3174 17.6425 81.3435 19.258 C83.3696 20.8737 84.9761 22.2907 86.9775 24.4013 C88.9792 26.5119 91.376 29.3166 93.1492 31.7179 C94.9219 34.1198 96.0708 36.1181 96.7449 37.5849 C97.3301 38.8576 97.5576 39.7304 97.73801 40.5497 L103.156 30.8229 C102.997 30.2821 108.665 26.4794 103.778 21.205 C103.104 19.7382 104.006 21.4064 102.233 19.005 C100.46 16.6034 98.0632 13.7987 96.0615 11.6881 C94.0601 9.5773 92.4536 8.1608 90.4275 6.54483 C88.4019 4.92935 85.9565 3.1149 83.7271 1.67838 C78.8271 -0.146332 77.33739 2.1442 74.5789 3.31802 L69.9414 11.6593 C71.4487 12.4648 72.9861 13.3234 74.6431 14.3913 z" stroke="url(#SVGID_Stroke7_)" stroke-width="2.000016" stroke-linejoin="round" id="path203" xml:space="preserve" connector-curvature="0" style="fill:url(#SVGID_Fill8_);" />
  </g>
</svg>