<?xml version="1.0" encoding="utf-8"?>
<!DOCTYPE svg PUBLIC "-//W3C//DTD SVG 1.1//EN" "http://www.w3.org/Graphics/SVG/1.1/DTD/svg11.dtd">
<svg xmlns="http://www.w3.org/2000/svg" xmlns:xlink="http://www.w3.org/1999/xlink" version="1.1" baseProfile="full" width="210" height="210" viewBox="0 0 210.00 210.00" enable-background="new 0 0 210.00 210.00" xml:space="preserve">
	<linearGradient id="SVGID_Fill1_" gradientUnits="objectBoundingBox" x1="0.823092" y1="0.739076" x2="1.32309" y2="0.739076" gradientTransform="rotate(253.000092 0.823092 0.739076)">
		<stop offset="0" stop-color="#12E00C" stop-opacity="1"/>
		<stop offset="1" stop-color="#1E851A" stop-opacity="1"/>
	</linearGradient>
	<path fill="url(#SVGID_Fill1_)" stroke-width="5" stroke-linejoin="round" stroke="#000000" stroke-opacity="1" d="M 104.997,5.00256C 160.226,5.00256 204.997,49.774 204.997,105.002C 204.997,160.231 160.225,205.002 104.997,205.002C 49.7688,205.002 4.99707,160.231 4.99707,105.002C 4.99707,49.774 49.7681,5.00256 104.997,5.00256 Z "/>
	<linearGradient id="SVGID_Fill2_" gradientUnits="objectBoundingBox" x1="0.666146" y1="0.726326" x2="1.22325" y2="0.726326" gradientTransform="rotate(233.556961 0.666146 0.726326)">
		<stop offset="0" stop-color="#AFB6AF" stop-opacity="1"/>
		<stop offset="1" stop-color="#FFFFFF" stop-opacity="1"/>
	</linearGradient>
	<path fill="url(#SVGID_Fill2_)" stroke-width="5" stroke-linejoin="round" stroke="#045E04" stroke-opacity="1" d="M 100.454,100.893C 112.379,88.9626 135.431,66.7755 148.011,55.8331C 160.591,44.8907 162.7,45.1932 164.188,46.8187C 165.677,48.4442 166.546,51.3927 154.533,71.4276C 142.52,91.4626 117.625,128.584 104.153,147.75C 90.6799,166.915 88.6289,168.125 86.6536,168.004C 84.6782,167.883 82.7788,166.431 76.4521,155.733C 70.1252,145.035 59.3706,125.091 53.687,112.957C 48.0034,100.823 47.3911,96.4979 48.8938,94.7061C 50.3967,92.9143 54.0146,93.6552 60.7073,97.6547C 67.3997,101.654 77.1665,108.912 82.4492,111.704C 87.7314,114.497 88.5288,112.823 100.454,100.893 Z "/>
</svg>
