<?xml version="1.0" encoding="utf-8"?>
<!DOCTYPE svg PUBLIC "-//W3C//DTD SVG 1.1//EN" "http://www.w3.org/Graphics/SVG/1.1/DTD/svg11.dtd">
<svg xmlns="http://www.w3.org/2000/svg" xmlns:xlink="http://www.w3.org/1999/xlink" version="1.1" baseProfile="full" width="250" height="250" viewBox="0 0 250.00 250.00" enable-background="new 0 0 250.00 250.00" xml:space="preserve">
	<g>
		<linearGradient id="SVGID_Stroke1_" gradientUnits="objectBoundingBox" x1="0.00799091" y1="0.501567" x2="0.988159" y2="0.501567">
			<stop offset="0" stop-color="#0697EE" stop-opacity="1"/>
			<stop offset="1" stop-color="#D9D9D9" stop-opacity="1"/>
		</linearGradient>
		<path fill="#FFFFFF" fill-opacity="1" stroke-width="2" stroke-linejoin="round" stroke="url(#SVGID_Stroke1_)" d="M 124.373,44.3754C 122.456,47.3754 119.956,53.0421 120.331,61.8339C 120.706,70.6254 123.956,82.5421 132.789,93.0004C 141.623,103.459 156.039,112.459 162.081,120.042C 168.123,127.625 165.789,133.792 157.769,142.181C 149.748,150.57 136.039,161.181 128.657,172.959C 121.276,184.737 120.22,197.681 120.164,204.598C 120.109,211.514 121.053,212.403 137.963,212.835C 154.873,213.266 187.748,213.239 204.526,213.017C 221.303,212.795 221.984,212.377 222.185,206.557C 222.387,200.737 222.109,189.514 217.637,179.903C 213.164,170.292 204.498,162.292 197.498,155.792C 190.498,149.292 185.164,144.292 181.089,139.529C 177.013,134.767 174.194,130.241 179.965,122.727C 185.736,115.213 200.096,104.711 209.151,94.7934C 218.206,84.8754 221.956,75.5421 222.623,66.7089C 223.289,57.8754 220.873,49.5421 219.164,45.2921C 217.456,41.0421 216.456,40.8754 201.539,40.7921C 186.623,40.7089 157.789,40.7089 142.706,40.8754C 127.623,41.0421 126.289,41.3754 124.373,44.3754 Z "/>
		<linearGradient id="SVGID_Fill1_" gradientUnits="objectBoundingBox" x1="0.0342885" y1="0.498526" x2="0.937343" y2="0.498526">
			<stop offset="0" stop-color="#6EB9E7" stop-opacity="1"/>
			<stop offset="1" stop-color="#0023FF" stop-opacity="1"/>
		</linearGradient>
		<path fill="url(#SVGID_Fill1_)" stroke-width="0.2" stroke-linejoin="round" d="M 126.927,77.7782C 125.648,78.247 124.922,78.4066 125.768,80.7575C 126.613,83.1081 129.03,87.6498 133.948,93.0143C 138.867,98.3788 146.287,104.566 152.718,110.683C 159.149,116.798 164.591,122.843 167.312,126.365C 170.033,129.887 170.033,130.888 170.005,134.86C 169.977,138.832 169.922,145.776 170.003,153.757C 170.084,161.739 170.302,170.757 170.079,175.451C 169.857,180.145 169.195,180.517 166.494,181.419C 163.792,182.322 159.052,183.757 153.736,185.703C 148.419,187.649 142.528,190.106 137.021,192.405C 131.514,194.703 126.392,196.843 123.622,198.121C 120.853,199.4 120.436,199.817 120.311,201.869C 120.186,203.921 120.353,207.608 120.842,209.64C 121.332,211.671 122.145,212.046 137.745,212.4C 153.345,212.754 183.732,213.088 200.01,213.22C 216.288,213.352 218.455,213.283 219.797,212.319C 221.138,211.355 221.654,209.497 221.878,207.789C 222.102,206.08 222.035,204.521 222.128,203.315C 222.221,202.108 222.474,201.254 220.393,199.827C 218.311,198.4 213.895,196.4 207.29,193.462C 200.686,190.525 191.895,186.65 185.811,184.441C 179.728,182.233 176.353,181.691 174.591,181.217C 172.829,180.743 172.681,180.336 172.65,175.461C 172.62,170.585 172.706,161.242 172.722,152.667C 172.738,144.092 172.682,136.287 173.039,131.983C 173.396,127.68 174.166,126.878 177.32,123.817C 180.474,120.756 186.013,115.434 191.66,110.308C 197.308,105.181 203.065,100.249 207.546,95.4845C 212.028,90.7204 215.235,86.1244 216.521,83.5861C 217.808,81.0478 217.174,80.5675 215.691,79.6051C 214.207,78.6427 211.874,77.1982 197.763,76.4762C 183.651,75.7538 157.763,75.7538 143.901,76.143C 130.04,76.5316 128.207,77.3095 126.927,77.7782 Z "/>
		<linearGradient id="SVGID_Stroke2_" gradientUnits="objectBoundingBox" x1="0.00799105" y1="0.501568" x2="0.98816" y2="0.501568">
			<stop offset="0" stop-color="#0697EE" stop-opacity="1"/>
			<stop offset="1" stop-color="#D9D9D9" stop-opacity="1"/>
		</linearGradient>
		<path fill="none" stroke-width="2" stroke-linejoin="round" stroke="url(#SVGID_Stroke2_)" d="M 124.052,44.3625C 122.136,47.3625 119.636,53.0292 120.011,61.8207C 120.386,70.6125 123.636,82.5292 132.469,92.9875C 141.302,103.446 155.719,112.446 161.76,120.029C 167.802,127.612 165.469,133.779 157.448,142.168C 149.427,150.557 135.719,161.168 128.337,172.946C 120.955,184.724 119.899,197.668 119.844,204.585C 119.788,211.501 120.733,212.39 137.642,212.822C 154.552,213.253 187.427,213.226 204.205,213.004C 220.983,212.782 221.663,212.364 221.865,206.544C 222.066,200.724 221.788,189.501 217.316,179.89C 212.844,170.279 204.177,162.279 197.177,155.779C 190.177,149.279 184.844,144.279 180.768,139.516C 176.692,134.754 173.874,130.228 179.644,122.714C 185.415,115.2 199.775,104.698 208.83,94.7802C 217.885,84.8625 221.635,75.5292 222.302,66.6957C 222.969,57.8625 220.552,49.5292 218.844,45.2792C 217.135,41.0292 216.135,40.8625 201.219,40.7792C 186.302,40.6957 157.469,40.6957 142.385,40.8625C 127.302,41.0292 125.969,41.3625 124.052,44.3625 Z "/>
		<g>
			<linearGradient id="SVGID_Fill2_" gradientUnits="objectBoundingBox" x1="-0.0191818" y1="0.505041" x2="1.02672" y2="0.505041">
				<stop offset="0" stop-color="#D5D5D5" stop-opacity="0.403922"/>
				<stop offset="1" stop-color="#ACADB2" stop-opacity="0"/>
			</linearGradient>
			<path fill="url(#SVGID_Fill2_)" stroke-width="0.2" stroke-linejoin="round" d="M 127.512,48.5541C 128.178,51.7206 129.178,59.0541 132.178,67.443C 135.178,75.8319 140.178,85.2763 144.012,91.8317C 147.845,98.3874 150.512,102.054 151.933,104.726C 153.355,107.398 153.531,109.076 150.586,106.965C 147.642,104.854 141.577,98.954 136.658,93.5895C 131.74,88.2248 127.968,83.3957 125.913,78.2289C 123.857,73.0624 123.518,67.558 123.848,62.3617C 124.178,57.1652 125.178,52.2763 125.845,49.3317C 126.512,46.3874 126.845,45.3874 127.512,48.5541 Z "/>
			<linearGradient id="SVGID_Fill3_" gradientUnits="objectBoundingBox" x1="0.507792" y1="0.130056" x2="1.30529" y2="0.130056" gradientTransform="rotate(90.000000 0.507792 0.130056)">
				<stop offset="0" stop-color="#D5D5D5" stop-opacity="0.403922"/>
				<stop offset="1" stop-color="#ACADB2" stop-opacity="0"/>
			</linearGradient>
			<path fill="url(#SVGID_Fill3_)" stroke-width="0.2" stroke-linejoin="round" d="M 149.734,44.4984C 148.512,46.0541 147.178,48.3874 146.401,51.8317C 145.623,55.2763 145.401,59.8319 146.067,64.7206C 146.734,69.6095 148.29,74.8319 150.845,79.943C 153.401,85.0541 156.956,90.0541 159.29,93.443C 161.623,96.8319 162.734,98.6095 165.79,95.3874C 168.845,92.1652 173.845,83.9428 177.512,76.1649C 181.178,68.3874 183.512,61.0541 185.067,55.7763C 186.623,50.4984 187.401,47.2763 188.012,45.2206C 188.623,43.1652 189.067,42.2763 183.234,41.8317C 177.401,41.3874 165.29,41.3874 158.678,41.7763C 152.067,42.1652 150.956,42.9428 149.734,44.4984 Z "/>
			<linearGradient id="SVGID_Fill4_" gradientUnits="objectBoundingBox" x1="0.487235" y1="0.216262" x2="1.08506" y2="0.216262" gradientTransform="rotate(90.000000 0.487235 0.216262)">
				<stop offset="0" stop-color="#D5D5D5" stop-opacity="0.403922"/>
				<stop offset="1" stop-color="#ACADB2" stop-opacity="0"/>
			</linearGradient>
			<path fill="url(#SVGID_Fill4_)" stroke-width="0.2" stroke-linejoin="round" d="M 190.845,84.4984C 191.29,80.6095 192.734,76.8319 193.567,72.3874C 194.401,67.9428 194.623,62.8319 194.401,58.6652C 194.178,54.4984 193.512,51.2763 192.623,48.5541C 191.734,45.8319 190.623,43.6095 190.79,42.4428C 190.956,41.2763 192.401,41.1652 196.671,41.05C 200.942,40.9347 208.039,40.8153 211.928,41.5932C 215.816,42.371 216.497,44.0458 217.282,45.2721C 218.067,46.4984 218.956,47.2763 219.678,49.5541C 220.401,51.8319 220.956,55.6095 221.067,60.2206C 221.178,64.8319 220.845,70.2763 219.901,74.6095C 218.956,78.9428 217.401,82.1652 215.456,85.0541C 213.512,87.9428 211.178,90.4984 207.123,92.3319C 203.067,94.1652 197.29,95.2763 194.123,93.8317C 190.956,92.3874 190.401,88.3874 190.845,84.4984 Z "/>
			<linearGradient id="SVGID_Fill5_" gradientUnits="objectBoundingBox" x1="1.01517" y1="0.508397" x2="2.04387" y2="0.508397" gradientTransform="rotate(180.000000 1.015171 0.508397)">
				<stop offset="0" stop-color="#D5D5D5" stop-opacity="0.403922"/>
				<stop offset="1" stop-color="#ACADB2" stop-opacity="0"/>
			</linearGradient>
			<path fill="url(#SVGID_Fill5_)" stroke-width="0.2" stroke-linejoin="round" d="M 157.345,149.165C 154.29,153.054 148.734,160.387 143.567,167.665C 138.401,174.943 133.623,182.165 130.623,186.998C 127.623,191.832 126.401,194.276 125.567,195.276C 124.734,196.276 124.29,195.832 124.345,194.11C 124.401,192.387 124.956,189.387 126.012,185.776C 127.067,182.165 128.623,177.943 131.067,173.943C 133.512,169.943 136.845,166.165 141.401,161.498C 145.956,156.832 151.734,151.276 155.012,148.276C 158.29,145.276 159.067,144.832 159.734,144.61C 160.401,144.387 160.956,144.387 160.956,144.61C 160.956,144.832 160.401,145.276 157.345,149.165 Z "/>
			<linearGradient id="SVGID_Fill6_" gradientUnits="objectBoundingBox" x1="0.494907" y1="0.0992616" x2="1.29974" y2="0.0992616" gradientTransform="rotate(90.000000 0.494907 0.099262)">
				<stop offset="0" stop-color="#D5D5D5" stop-opacity="0.403922"/>
				<stop offset="1" stop-color="#ACADB2" stop-opacity="0"/>
			</linearGradient>
			<path fill="url(#SVGID_Fill6_)" stroke-width="0.2" stroke-linejoin="round" d="M 149.567,205.554C 148.734,202.276 147.29,197.165 146.845,192.832C 146.401,188.498 146.956,184.943 149.178,179.387C 151.401,173.832 155.29,166.276 158.734,159.943C 162.178,153.61 165.178,148.498 167.29,145.776C 169.401,143.054 170.623,142.721 171.734,142.776C 172.845,142.832 173.845,143.276 176.623,146.11C 179.401,148.943 183.956,154.165 188.178,160.387C 192.401,166.61 196.29,173.832 198.345,179.276C 200.401,184.721 200.623,188.387 200.512,192.165C 200.401,195.943 199.956,199.832 199.512,202.332C 199.067,204.832 198.623,205.943 197.901,207.11C 197.178,208.276 196.178,209.498 188.29,210.276C 180.401,211.054 165.623,211.387 158.123,210.832C 150.623,210.276 150.401,208.832 149.567,205.554 Z "/>
			<linearGradient id="SVGID_Fill7_" gradientUnits="objectBoundingBox" x1="0.451457" y1="0.244561" x2="0.969875" y2="0.244561" gradientTransform="rotate(90.000000 0.451457 0.244561)">
				<stop offset="0" stop-color="#D5D5D5" stop-opacity="0.403922"/>
				<stop offset="1" stop-color="#ACADB2" stop-opacity="0"/>
			</linearGradient>
			<path fill="url(#SVGID_Fill7_)" stroke-width="0.2" stroke-linejoin="round" d="M 200.401,160.61C 201.512,162.721 204.178,166.721 206.401,170.832C 208.623,174.943 210.401,179.165 211.401,183.054C 212.401,186.943 212.623,190.498 211.956,193.332C 211.29,196.165 209.734,198.276 207.678,200.276C 205.623,202.276 203.067,204.165 201.401,205.276C 199.734,206.387 198.956,206.721 197.734,207.776C 196.512,208.832 194.845,210.61 196.79,211.832C 198.734,213.054 204.29,213.721 208.864,213.656C 213.438,213.592 217.03,212.796 218.975,212.074C 220.919,211.351 221.216,210.703 221.419,207.934C 221.623,205.165 221.734,200.276 221.456,195.887C 221.178,191.498 220.512,187.61 219.012,183.276C 217.512,178.943 215.178,174.165 212.29,170.11C 209.401,166.054 205.956,162.721 203.845,160.832C 201.734,158.943 200.956,158.498 200.345,158.387C 199.734,158.276 199.29,158.498 200.401,160.61 Z "/>
			<linearGradient id="SVGID_Fill8_" gradientUnits="objectBoundingBox" x1="-0.0408693" y1="0.509723" x2="1.06949" y2="0.509723">
				<stop offset="0" stop-color="#FFFFFF" stop-opacity="0.403922"/>
				<stop offset="1" stop-color="#FFFFFF" stop-opacity="0"/>
			</linearGradient>
			<path fill="url(#SVGID_Fill8_)" stroke-width="0.2" stroke-linejoin="round" d="M 135.053,71.0124C 135.678,73.6374 137.678,77.6374 140.47,81.8041C 143.262,85.9706 146.845,90.3041 149.803,93.1791C 152.762,96.0541 155.095,97.4706 157.553,98.7206C 160.012,99.9706 162.595,101.054 163.109,100.415C 163.623,99.7763 162.067,97.4152 159.567,93.5402C 157.067,89.6652 153.623,84.2763 151.317,80.0399C 149.012,75.8041 147.845,72.7206 147.012,70.3041C 146.178,67.8874 145.678,66.1374 143.887,65.5124C 142.095,64.8874 139.012,65.3874 137.095,66.2624C 135.178,67.1374 134.428,68.3874 135.053,71.0124 Z "/>
			<linearGradient id="SVGID_Fill9_" gradientUnits="objectBoundingBox" x1="0.465781" y1="0.0292722" x2="1.44795" y2="0.0292722" gradientTransform="rotate(90.000000 0.465781 0.029272)">
				<stop offset="0" stop-color="#FFFFFF" stop-opacity="0.403922"/>
				<stop offset="1" stop-color="#FFFFFF" stop-opacity="0"/>
			</linearGradient>
			<path fill="url(#SVGID_Fill9_)" stroke-width="0.2" stroke-linejoin="round" d="M 180.873,72.9848C 179.567,73.9984 179.206,74.8595 177.748,76.9845C 176.29,79.1095 173.734,82.4984 171.956,85.318C 170.178,88.1374 169.178,90.3874 170.595,92.1791C 172.012,93.9706 175.845,95.3041 178.845,95.2206C 181.845,95.1374 184.012,93.6374 186.012,91.1374C 188.012,88.6374 189.845,85.1374 190.97,82.2624C 192.095,79.3874 192.512,77.1374 192.678,75.2206C 192.845,73.3041 192.762,71.7206 191.72,70.8456C 190.678,69.9706 188.678,69.8041 186.553,70.3041C 184.428,70.8041 182.178,71.9706 180.873,72.9848 Z "/>
			<linearGradient id="SVGID_Fill10_" gradientUnits="objectBoundingBox" x1="-0.0308157" y1="0.486577" x2="1.036" y2="0.486577">
				<stop offset="0" stop-color="#FFFFFF" stop-opacity="0.403922"/>
				<stop offset="1" stop-color="#FFFFFF" stop-opacity="0"/>
			</linearGradient>
			<path fill="url(#SVGID_Fill10_)" stroke-width="0.2" stroke-linejoin="round" d="M 136.592,189.235C 136.509,191.541 136.842,193.708 137.898,195.874C 138.953,198.041 140.731,200.208 142.398,201.93C 144.064,203.652 145.62,204.93 146.731,205.735C 147.842,206.541 148.509,206.874 149.009,207.071C 149.51,207.267 149.844,207.328 149.65,206.438C 149.455,205.55 148.732,203.712 148.176,200.96C 147.62,198.208 147.231,194.541 147.064,191.541C 146.898,188.541 146.953,186.208 147.009,184.402C 147.064,182.597 147.12,181.319 145.564,181.013C 144.009,180.708 140.842,181.374 139.009,182.93C 137.176,184.486 136.676,186.93 136.592,189.235 Z "/>
			<linearGradient id="SVGID_Fill11_" gradientUnits="objectBoundingBox" x1="0.492821" y1="0.197577" x2="1.1019" y2="0.197577" gradientTransform="rotate(90.000000 0.492821 0.197577)">
				<stop offset="0" stop-color="#FFFFFF" stop-opacity="0.403922"/>
				<stop offset="1" stop-color="#FFFFFF" stop-opacity="0"/>
			</linearGradient>
			<path fill="url(#SVGID_Fill11_)" stroke-width="0.2" stroke-linejoin="round" d="M 198.761,205.941C 198.566,205.161 198.954,203.267 199.371,201.071C 199.787,198.874 200.231,196.374 200.426,193.763C 200.62,191.152 200.565,188.43 200.481,186.735C 200.398,185.041 200.287,184.374 200.926,183.763C 201.565,183.152 202.953,182.597 204.426,182.597C 205.898,182.597 207.453,183.152 208.731,183.763C 210.009,184.374 211.009,185.041 211.62,186.124C 212.231,187.208 212.453,188.708 212.287,190.208C 212.12,191.708 211.565,193.208 210.62,194.874C 209.676,196.541 208.342,198.374 206.926,199.847C 205.509,201.319 204.009,202.43 202.926,203.404C 201.843,204.379 201.177,205.216 200.456,205.802C 199.734,206.387 198.956,206.721 198.761,205.941 Z "/>
		</g>
		<g>
			<linearGradient id="SVGID_Fill12_" gradientUnits="objectBoundingBox" x1="-0.0856533" y1="0.5" x2="0.914346" y2="0.5">
				<stop offset="0" stop-color="#1A1C1C" stop-opacity="1"/>
				<stop offset="0.218605" stop-color="#30312E" stop-opacity="1"/>
				<stop offset="0.409302" stop-color="#7A7A78" stop-opacity="1"/>
				<stop offset="0.716712" stop-color="#535452" stop-opacity="1"/>
				<stop offset="1" stop-color="#171818" stop-opacity="1"/>
			</linearGradient>
			<path fill="url(#SVGID_Fill12_)" stroke-linejoin="round" stroke="#000000" stroke-opacity="1" d="M 123.623,34.9999L 217.498,34.9999C 219.155,34.9999 220.498,36.3432 220.498,37.9999L 220.498,39.7499C 220.498,41.4066 219.155,42.7499 217.498,42.7499L 123.623,42.7499C 121.966,42.7499 120.623,41.4066 120.623,39.7499L 120.623,37.9999C 120.623,36.3432 121.966,34.9999 123.623,34.9999 Z "/>
			<linearGradient id="SVGID_Fill13_" gradientUnits="objectBoundingBox" x1="-0.0856531" y1="0.499987" x2="0.914347" y2="0.499987">
				<stop offset="0" stop-color="#1A1C1C" stop-opacity="1"/>
				<stop offset="0.218605" stop-color="#30312E" stop-opacity="1"/>
				<stop offset="0.409302" stop-color="#7A7A78" stop-opacity="1"/>
				<stop offset="0.716712" stop-color="#535452" stop-opacity="1"/>
				<stop offset="1" stop-color="#171818" stop-opacity="1"/>
			</linearGradient>
			<path fill="url(#SVGID_Fill13_)" stroke-linejoin="round" stroke="#000000" stroke-opacity="1" d="M 114.248,17.5004L 224.998,17.5004C 226.655,17.5004 227.998,18.8434 227.998,20.5004L 227.998,32.7504C 227.998,34.4071 226.655,35.7504 224.998,35.7504L 114.248,35.7504C 112.591,35.7504 111.248,34.4071 111.248,32.7504L 111.248,20.5004C 111.248,18.8434 112.591,17.5004 114.248,17.5004 Z "/>
		</g>
		<g>
			<linearGradient id="SVGID_Fill14_" gradientUnits="objectBoundingBox" x1="-0.0856535" y1="0.500034" x2="0.914346" y2="0.500034">
				<stop offset="0" stop-color="#1A1C1C" stop-opacity="1"/>
				<stop offset="0.218605" stop-color="#30312E" stop-opacity="1"/>
				<stop offset="0.409302" stop-color="#7A7A78" stop-opacity="1"/>
				<stop offset="0.716712" stop-color="#535452" stop-opacity="1"/>
				<stop offset="1" stop-color="#171818" stop-opacity="1"/>
			</linearGradient>
			<path fill="url(#SVGID_Fill14_)" stroke-linejoin="round" stroke="#000000" stroke-opacity="1" d="M 123.748,216.213L 217.623,216.213C 219.28,216.213 220.623,214.87 220.623,213.213L 220.623,212C 220.623,210.343 219.28,209 217.623,209L 123.748,209C 122.091,209 120.748,210.343 120.748,212L 120.748,213.213C 120.748,214.87 122.091,216.213 123.748,216.213 Z "/>
			<linearGradient id="SVGID_Fill15_" gradientUnits="objectBoundingBox" x1="-0.0856531" y1="0.500036" x2="0.914347" y2="0.500036">
				<stop offset="0" stop-color="#1A1C1C" stop-opacity="1"/>
				<stop offset="0.218605" stop-color="#30312E" stop-opacity="1"/>
				<stop offset="0.409302" stop-color="#7A7A78" stop-opacity="1"/>
				<stop offset="0.716712" stop-color="#535452" stop-opacity="1"/>
				<stop offset="1" stop-color="#171818" stop-opacity="1"/>
			</linearGradient>
			<path fill="url(#SVGID_Fill15_)" stroke-linejoin="round" stroke="#000000" stroke-opacity="1" d="M 114.373,232.499L 225.123,232.499C 226.78,232.499 228.123,231.156 228.123,229.499L 228.123,218.514C 228.123,216.857 226.78,215.514 225.123,215.514L 114.373,215.514C 112.716,215.514 111.373,216.857 111.373,218.514L 111.373,229.499C 111.373,231.156 112.716,232.499 114.373,232.499 Z "/>
		</g>
	</g>
	<g>
		<linearGradient id="SVGID_Fill16_" gradientUnits="objectBoundingBox" x1="-0.111987" y1="0.604659" x2="0.899999" y2="0.604659" gradientTransform="rotate(-24.455736 -0.111987 0.604659)">
			<stop offset="0" stop-color="#176505" stop-opacity="1"/>
			<stop offset="1" stop-color="#7A8F75" stop-opacity="1"/>
		</linearGradient>
		<path fill="url(#SVGID_Fill16_)" stroke-width="0.2" stroke-linejoin="round" d="M 23.489,148.341C 29.0288,177.409 40.9416,191.843 72.0268,202.715L 78.4144,182.098C 61.8014,172.926 50.0927,158.888 46.8136,141.683C 43.3917,123.728 49.7752,105.604 62.9479,90.5807L 59.1327,68.0063C 27.7503,89.5619 17.7837,118.405 23.489,148.341 Z "/>
		<linearGradient id="SVGID_Fill17_" gradientUnits="objectBoundingBox" x1="0.334914" y1="0.0466417" x2="1.19441" y2="0.0466417" gradientTransform="rotate(43.312435 0.334914 0.046642)">
			<stop offset="0" stop-color="#176505" stop-opacity="1"/>
			<stop offset="1" stop-color="#7A8F75" stop-opacity="1"/>
		</linearGradient>
		<path fill="url(#SVGID_Fill17_)" stroke-width="0.2" stroke-linejoin="round" d="M 88.8178,56.8398L 21.3771,80.913L 62.3192,115.172L 88.8178,56.8398 Z "/>
	</g>
</svg>
