<?xml version="1.0" encoding="utf-8"?>
<!DOCTYPE svg PUBLIC "-//W3C//DTD SVG 1.1//EN" "http://www.w3.org/Graphics/SVG/1.1/DTD/svg11.dtd">
<svg x="0px" y="0px" width="48" height="48" overflow="hidden" viewBox="0, 0, 48, 48" preserveAspectRatio="xMidYMid"
     font-size="0px" id="svg" xml:space="preserve" xmlns="http://www.w3.org/2000/svg"
     xmlns:xml="http://www.w3.org/XML/1998/namespace" version="1.1">
  <path d="M45.056 48 L2.944 48 C1.312 48 0 46.96365 0 45.67456 L0 45.67456 L0 2.325434 C0 1.036336 1.312 0 2.944 0 L45.056 0 C46.688 0 48 1.036336 48 2.325434 C48 2.325434 48 2.325434 48 2.325434 L48 45.64928 C48 46.9384 46.688 48 45.056 48 C45.056 48 45.056 48 45.056 48 z" stroke-width="0.2844023" id="path6" xml:space="preserve" style="fill:#00884D;" />
  <path d="M41.536 24.768 L41.536 40.96 L32 40.96 L30.144 33.408 C30.912 32.512 31.68 32.064 33.568 31.776 C35.552 31.552 37.152 30.144 37.664 28.224 C36.032 28.608 34.72 28.224 33.216 27.84 C31.776 27.456 30.272 27.52 28.864 28 C27.808 28.384 27.552 28.704 27.552 28.704 L30.592 40.96 L25.376 40.96 L25.376 24.768 z M22.912 6.112 L22.912 22.304 L12.448 22.304 C12.512 19.52 13.472 16.512 15.328 14.688 C17.152 16.064 18.4 18.048 18.848 20.288 L21.536 20.288 C20.992 17.472 19.296 15.04 16.864 13.504 C19.456 11.424 19.968 9.247999 19.968 8.128 L18.944 8.128 C18.784 9.216001 18.208 10.848 15.36 12.512 C12.32 10.784 11.84 9.216 11.744 8.128 L10.72 8.128 C10.72 9.376 11.232 11.584 13.824 13.536 C11.488 15.904 10.08 19.008 9.792 22.304 L6.72 22.304 L6.72 6.112 z M16.672 9.92 C16.672 9.184 16.064 8.576 15.328 8.544 C14.592 8.544 13.984 9.151999 13.952 9.888 C13.952 10.624 14.56 11.232 15.296 11.264 C15.296 11.264 15.296 11.264 15.296 11.264 C16.064 11.264 16.672 10.656 16.672 9.92 z M25.376 6.112 L25.376 9.184 C28.288 9.44 31.04 10.56 33.28 12.416 L31.424 14.272 C29.696 12.896 27.584 12.032 25.376 11.808 L25.376 22.272 L35.84 22.272 C35.616 20.064 34.752 17.984 33.376 16.256 L35.232 14.4 C37.088 16.64 38.176 19.392 38.432 22.304 L41.504 22.304 L41.504 6.112 z M15.04 34.656 L16.896 32.8 C18.624 34.176 20.704 35.008 22.912 35.232 L22.912 24.768 L12.448 24.768 C12.672 26.976 13.536 29.088 14.912 30.816 L13.056 32.672 C11.2 30.432 10.048 27.648 9.824 24.736 L6.752 24.736 L6.752 40.96 L22.912 40.96 L22.912 37.888 C20.032 37.632 17.28 36.512 15.04 34.656 z M43.552 6.08 C44.352 6.08 45.024 6.72 45.024 7.552 C45.024 8.352 44.384 9.024 43.552 9.024 C42.752 9.024 42.08 8.384 42.08 7.584 C42.048 6.784 42.688 6.144 43.456 6.112 C43.488 6.08 43.52 6.08 43.552 6.08 z M43.552 8.768 C44.224 8.768 44.768 8.224 44.768 7.584 C44.768 6.912 44.224 6.368 43.584 6.368 C42.912 6.368 42.368 6.912 42.368 7.552 C42.368 7.552 42.368 7.552 42.368 7.552 C42.336 8.191999 42.848 8.768 43.488 8.768 C43.52 8.768 43.52 8.768 43.552 8.768 z M42.976 6.848 L43.616 6.848 C43.872 6.816 44.096 7.007999 44.128 7.263999 C44.128 7.296 44.128 7.296 44.128 7.328 C44.128 7.552 43.968 7.711999 43.776 7.776 L44.16 8.224 L44.16 8.288 L43.84 8.288 L43.424 7.808 L43.296 7.808 L43.296 8.288 L42.976 8.288 z M43.296 7.136 L43.296 7.552 L43.616 7.552 C43.712 7.552 43.808 7.455999 43.84 7.36 C43.84 7.36 43.84 7.36 43.84 7.328 C43.84 7.231999 43.776 7.136 43.64799 7.104 C43.64799 7.104 43.61599 7.104 43.61599 7.104 C43.61599 7.136 43.29599 7.136 43.29599 7.136 z" stroke-width="0.32" id="path8" xml:space="preserve" style="fill:#FFFFFF;" />
  <path d="M7.936 1.088 L8.576 1.088 L9.984 4.64 L9.408 4.64 L9.088 3.872 L7.328 3.872 L7.008 4.64 L6.432 4.64 z M7.488 3.456 L8.96 3.456 L8.256 1.632 z" stroke-width="0.32" id="path10" xml:space="preserve" style="fill:#FFFFFF;" />
  <path d="M10.784 3.168 C10.784 3.808 11.104 4.224 11.808 4.224 C12.352 4.256 12.8 3.872 12.832 3.36 C12.832 3.296 12.832 3.232 12.832 3.168 L12.832 1.12 L13.376 1.12 L13.376 3.2 C13.408 4 12.8 4.704 11.968 4.736 C11.904 4.736 11.84 4.736 11.776 4.736 C10.752 4.736 10.208 4.096 10.208 3.2 L10.208 1.12 L10.752 1.12 L10.752 3.168 z" stroke-width="0.32" id="path12" xml:space="preserve" style="fill:#FFFFFF;" />
  <path d="M15.712 1.568 L15.712 4.64 L15.168 4.64 L15.168 1.568 L13.888 1.568 L13.888 1.088 L16.928 1.088 L16.928 1.568 z" stroke-width="0.32" id="path14" xml:space="preserve" style="fill:#FFFFFF;" />
  <path d="M20.224 3.104 L18.016 3.104 L18.016 4.672 L17.472 4.672 L17.472 1.12 L18.016 1.12 L18.016 2.656 L20.224 2.656 L20.224 1.12 L20.768 1.12 L20.768 4.672 L20.224 4.672 z" stroke-width="0.32" id="path16" xml:space="preserve" style="fill:#FFFFFF;" />
  <path d="M23.424 1.056 C24.448 1.056 25.248 1.856 25.248 2.88 C25.248 3.904 24.448 4.704 23.424 4.704 C22.4 4.704 21.6 3.904 21.6 2.88 C21.568 1.888 22.368 1.056 23.328 1.056 C23.36 1.056 23.392 1.056 23.424 1.056 z M23.424 4.192 C24.16 4.224 24.768 3.648 24.768 2.912 C24.768 2.176 24.224 1.568 23.488 1.568 C22.752 1.536 22.144 2.112 22.144 2.848 C22.144 2.848 22.144 2.88 22.144 2.88 C22.112 3.584 22.688 4.192 23.424 4.192 C23.392 4.192 23.424 4.192 23.424 4.192 z" stroke-width="0.32" id="path18" xml:space="preserve" style="fill:#FFFFFF;" />
  <path d="M26.08 1.088 L27.648 1.088 C28.448 1.088 28.992 1.44 28.992 2.24 C28.992 2.816 28.544 3.296 27.968 3.328 L29.216 4.544 L29.216 4.64 L28.576 4.64 L27.296 3.328 L26.656 3.328 L26.656 4.64 L26.112 4.64 z M26.624 1.568 L26.624 2.912 L27.68 2.912 C28.032 2.944 28.352 2.688 28.384 2.336 C28.384 2.304 28.384 2.272 28.384 2.24 C28.416 1.888 28.128 1.568 27.776 1.568 C27.744 1.568 27.712 1.568 27.68 1.568 z" stroke-width="0.32" id="path20" xml:space="preserve" style="fill:#FFFFFF;" />
  <path d="M29.888 1.088 L30.432 1.088 L30.432 4.64 L29.888 4.64 z" stroke-width="0.32" id="path22" xml:space="preserve" style="fill:#FFFFFF;" />
  <path d="M33.248 1.568 L31.264 1.568 L31.264 1.088 L33.952 1.088 L33.952 1.472 L31.968 4.16 L33.952 4.16 L33.952 4.64 L31.264 4.64 L31.264 4.256 z" stroke-width="0.32" id="path24" xml:space="preserve" style="fill:#FFFFFF;" />
  <path d="M34.752 4.672 L34.752 1.12 L37.504 1.12 L37.504 1.6 L35.264 1.6 L35.264 2.592 L37.12 2.592 L37.12 3.072 L35.264 3.072 L35.264 4.192 L37.504 4.192 L37.504 4.672 z" stroke-width="0.32" id="path26" xml:space="preserve" style="fill:#FFFFFF;" />
  <path d="M38.336 1.088 L39.776 1.088 C40.832 1.088 41.6 1.728 41.6 2.88 C41.6 4.032 40.832 4.64 39.776 4.64 L38.336 4.64 z M38.88 1.568 L38.88 4.16 L39.776 4.16 C40.48 4.16 41.088 3.584 41.088 2.848 C41.088 2.144 40.512 1.536 39.776 1.536 L38.88 1.536 z" stroke-width="0.32" id="path28" xml:space="preserve" style="fill:#FFFFFF;" />
  <path d="M6.976 42.144 L8.576 42.144 C9.632 42.144 10.4 42.784 10.4 43.936 C10.4 45.088 9.6 45.696 8.576 45.696 L6.976 45.696 z M7.872 42.912 L7.872 44.928 L8.544 44.928 C9.12 44.928 9.568 44.48 9.568 43.904 C9.568 43.36 9.12 42.88 8.544 42.88 z" stroke-width="0.32" id="path30" xml:space="preserve" style="fill:#FFFFFF;" />
  <path d="M11.36 45.728 L11.36 42.176 L14.208 42.176 L14.208 42.944 L12.192 42.944 L12.192 43.55201 L13.824 43.55201 L13.824 44.28801 L12.192 44.28801 L12.192 44.96001 L14.208 44.96001 L14.208 45.72801 z" stroke-width="0.32" id="path32" xml:space="preserve" style="fill:#FFFFFF;" />
  <path d="M14.784 42.144 L15.744 42.144 L16.672 44.864 L17.632 42.144 L18.592 42.144 L17.216 45.696 L16.096 45.696 z" stroke-width="0.32" id="path34" xml:space="preserve" style="fill:#FFFFFF;" />
  <path d="M19.2 45.728 L19.2 42.176 L22.048 42.176 L22.048 42.944 L20.032 42.944 L20.032 43.55201 L21.664 43.55201 L21.664 44.28801 L20.032 44.28801 L20.032 44.96001 L22.048 44.96001 L22.048 45.72801 z" stroke-width="0.32" id="path36" xml:space="preserve" style="fill:#FFFFFF;" />
  <path d="M23.04 45.728 L23.04 42.176 L23.904 42.176 L23.904 44.96 L25.664 44.96 L25.664 45.728 z" stroke-width="0.32" id="path38" xml:space="preserve" style="fill:#FFFFFF;" />
  <path d="M27.936 42.112 C28.96 42.112 29.76 42.912 29.76 43.936 C29.76 44.96 28.96 45.76 27.936 45.76 C26.912 45.76 26.112 44.96 26.112 43.936 C26.08 42.944 26.88 42.112 27.84 42.112 C27.904 42.112 27.936 42.112 27.936 42.112 z M27.936 44.928 C28.48 44.96 28.96 44.512 28.992 43.968 C29.024 43.424 28.576 42.944 28.03201 42.912 C27.488 42.88 27.00801 43.328 26.976 43.872 C26.976 43.872 26.976 43.904 26.976 43.904 C26.944 44.448 27.36 44.864 27.904 44.896 C27.936 44.92801 27.936 44.92801 27.936 44.92801 z" stroke-width="0.32" id="path40" xml:space="preserve" style="fill:#FFFFFF;" />
  <path d="M30.656 42.144 L32.416 42.144 C33.088 42.08 33.664 42.592 33.728 43.264 C33.728 43.328 33.728 43.392 33.728 43.456 C33.76 44.16 33.216 44.736 32.512 44.768 C32.48 44.768 32.448 44.768 32.416 44.768 L31.52 44.768 L31.52 45.696 L30.656 45.696 z M31.552 42.912 L31.552 44 L32.288 44 C32.576 44 32.832 43.744 32.832 43.456 C32.832 43.168 32.576 42.912 32.288 42.912 z" stroke-width="0.32" id="path42" xml:space="preserve" style="fill:#FFFFFF;" />
  <path d="M34.592 45.728 L34.592 42.176 L37.44 42.176 L37.44 42.944 L35.424 42.944 L35.424 43.55201 L37.056 43.55201 L37.056 44.28801 L35.424 44.28801 L35.424 44.96001 L37.44 44.96001 L37.44 45.72801 z" stroke-width="0.32" id="path44" xml:space="preserve" style="fill:#FFFFFF;" />
  <path d="M38.368 42.144 L40.064 42.144 C40.896 42.144 41.44 42.528 41.44 43.328 C41.44 43.84 41.088 44.288 40.608 44.384 L41.632 45.536 L41.632 45.696 L40.70399 45.696 L39.61599 44.448 L39.26399 44.448 L39.26399 45.696 L38.4 45.696 z M39.264 42.912 L39.264 43.808 L40.064 43.808 C40.288 43.84 40.512 43.648 40.544 43.424 C40.544 43.392 40.544 43.392 40.544 43.36 C40.544 43.13601 40.352 42.912 40.128 42.912 C40.096 42.912 40.096 42.912 40.064 42.912 z" stroke-width="0.32" id="path46" xml:space="preserve" style="fill:#FFFFFF;" />
</svg>