<?xml version="1.0" encoding="utf-8"?>
<!DOCTYPE svg PUBLIC "-//W3C//DTD SVG 1.1//EN" "http://www.w3.org/Graphics/SVG/1.1/DTD/svg11.dtd">
<svg x="0" y="0" width="48" height="48" overflow="hidden" viewBox="0, 0, 48, 48" preserveAspectRatio="xMidYMid"
     font-size="0" id="svg" xml:space="preserve" xmlns="http://www.w3.org/2000/svg"
     xmlns:xml="http://www.w3.org/XML/1998/namespace" version="1.1">
  <linearGradient x1="0.404272" y1="-0.385649" x2="2.18571" y2="-0.385649" gradientUnits="objectBoundingBox" gradientTransform="rotate(72.72807, 0.404272, -0.385649)" id="SVGID_Stroke1_" xml:space="preserve">
    <stop offset="0%" stop-color="#5B5B5B" stop-opacity="1" id="stop23" xml:space="preserve" />
    <stop offset="27.5862%" stop-color="#656565" stop-opacity="0.996078" id="stop25" xml:space="preserve" />
    <stop offset="38.3621%" stop-color="#F7F7F7" stop-opacity="1" id="stop27" xml:space="preserve" />
    <stop offset="39.6552%" stop-color="#FEFEFE" stop-opacity="0.0666667" id="stop29" xml:space="preserve" />
    <stop offset="100%" stop-color="#FFFFFF" stop-opacity="0" id="stop31" xml:space="preserve" />
  </linearGradient>
  <filter x="none" y="none" width="none" height="none" color-interpolation-filters="auto" id="Filter_GaussianBlur4_" xml:space="preserve">
    <feGaussianBlur stdDeviation="1.88976" id="feGaussianBlur34" xml:space="preserve" />
  </filter>
  <g transform="matrix(0.2676979, 0, 0, 0.3114552, -5.216808, -9.57838)" id="g860" xml:space="preserve">
    <path d="M22.5968 84.7583 C22.5968 103.138 22.4301 138.473 22.6384 156.601 C22.8468 174.729 23.4303 175.65 24.4305 176.739 C25.4307 177.827 26.8476 179.083 28.473 180.004 C30.0983 180.925 31.932 181.511 39.1418 180.548 C46.3517 179.586 58.9376 177.074 74.5242 173.557 C90.1107 170.04 108.698 165.519 127.994 160.955 C147.289 156.392 167.293 151.786 178.337 149.107 C189.381 146.427 191.465 145.674 192.799 145.171 C194.132 144.669 194.716 144.418 195.257 143.748 C195.799 143.078 196.299 141.99 196.466 125.034 C196.633 108.078 196.466 75.25468 196.299 58.63378 C196.133 42.01278 195.966 41.59398 194.257 40.25438 C192.549 38.91468 189.298 36.65398 187.047 35.06298 C184.797 33.47198 183.547 32.55088 181.505 32.00688 C179.462 31.46258 176.629 31.29508 172.294 31.71368 C167.96 32.13238 162.126 33.13718 143.205 36.61198 C124.284 40.08688 92.27777 46.03188 71.06507 50.05109 C49.85237 54.07029 39.43357 56.16359 33.09887 58.08949 C26.76427 60.01529 24.51377 61.77369 23.47197 63.36449 C22.43007 64.95559 22.59677 66.37909 22.59677 84.75829 z" stroke-width="0.2" stroke-linejoin="round" id="path2" xml:space="preserve" connector-curvature="0" style="fill:#FFFFFF;" />
    <path d="M65.4259 165.958 C74.5509 155.25 94.88431 133.833 106.426 121.458 C117.968 109.083 120.718 105.75 124.634 103.667 C128.551 101.583 133.634 100.75 138.343 101.417 C143.051 102.083 147.384 104.25 156.343 110.5 C165.301 116.75 178.884 127.083 185.968 133.083 C193.051 139.083 193.634 140.75 193.926 142 C194.218 143.25 194.218 144.083 193.551 145.042 C192.884 146 191.551 147.083 170.718 152.167 C149.884 157.25 109.551 166.333 87.92589 171.083 C66.30089 175.833 63.38429 176.25 60.88429 176.458 C58.38429 176.667 56.30089 176.667 65.42589 165.958 z" stroke="#000000" stroke-width="5" stroke-linejoin="round" id="path21" xml:space="preserve" connector-curvature="0" style="fill:none;" />
    <path d="M22.0509 86.5417 C22.0509 104.833 21.8843 140 22.0926 158.042 C22.3009 176.083 22.8843 177 23.8843 178.083 C24.8843 179.167 26.3009 180.417 27.9259 181.333 C29.5509 182.25 31.3843 182.833 38.5926 181.875 C45.8009 180.917 58.3843 178.417 73.9676 174.917 C89.5509 171.417 108.134 166.917 127.426 162.375 C146.718 157.833 166.718 153.25 177.759 150.583 C188.801 147.917 190.884 147.167 192.218 146.667 C193.551 146.167 194.134 145.917 194.676 145.25 C195.218 144.583 195.718 143.5 195.884 126.625 C196.051 109.75 195.884 77.0833 195.718 60.5417 C195.551 44 195.384 43.5833 193.676 42.25 C191.968 40.9167 188.718 38.6667 186.468 37.0833 C184.218 35.5 182.968 34.5833 180.926 34.0417 C178.884 33.5 176.051 33.3333 171.718 33.75 C167.384 34.1667 161.551 35.1667 142.634 38.625 C123.718 42.0833 91.7176 48 70.5093 52 C49.3009 56 38.8843 58.0833 32.5509 60 C26.2176 61.9167 23.9676 63.6667 22.9259 65.25 C21.8843 66.8333 22.0509 68.25 22.0509 86.5417 z" stroke="#000000" stroke-width="5" stroke-linejoin="round" id="path39" xml:space="preserve" connector-curvature="0" style="fill:none;" />
    <path d="M25.9259 66.2917 C27.2176 67.6667 31.9676 68.4167 35.5509 69.5 C39.1343 70.5833 41.5509 72 44.7593 73.7083 C47.9676 75.41669 51.9676 77.41669 62.4676 82.875 C72.9676 88.3333 89.9676 97.25 101.509 103.417 C113.051 109.583 119.134 113 123.676 115.5 C128.218 118 131.218 119.583 133.926 120.25 C136.634 120.917 139.051 120.667 141.384 120.458 C143.718 120.25 145.968 120.083 147.926 119.125 C149.884 118.167 151.551 116.417 153.134 114.167 C154.718 111.917 156.218 109.167 162.051 98.2917 C167.884 87.4167 178.051 68.4167 183.384 57.4167 C188.718 46.4167 189.218 43.4167 189.134 41.375 C189.051 39.3333 188.384 38.25 187.093 37 C185.801 35.75 183.884 34.3333 180.634 33.625 C177.384 32.9167 172.801 32.9167 149.009 37.0833 C125.218 41.25 82.21761 49.5833 59.0093 54.25 C35.8009 58.9167 32.3843 59.9167 29.5926 61.4167 C26.8009 62.9167 24.6343 64.9167 25.9259 66.2917 z" stroke="#000000" stroke-width="5" stroke-linejoin="round" id="path41" xml:space="preserve" connector-curvature="0" style="fill:none;" />
  </g>
</svg>