<?xml version="1.0" encoding="utf-8"?>
<!DOCTYPE svg PUBLIC "-//W3C//DTD SVG 1.1//EN" "http://www.w3.org/Graphics/SVG/1.1/DTD/svg11.dtd">
<svg x="0" y="0" width="48" height="48" overflow="hidden" viewBox="0, 0, 48, 48" preserveAspectRatio="xMidYMid"
     font-size="0" id="svg" xml:space="preserve" xmlns="http://www.w3.org/2000/svg"
     xmlns:xml="http://www.w3.org/XML/1998/namespace" version="1.1">
  <g transform="matrix(0.2573752, 0, 0, 0.308678, -4.294563, -6.913503)" id="g842" xml:space="preserve">
    <path d="M109.936 24.8991 C160.056 24.8991 200.686 53.105 200.686 87.8991 C200.686 102.817 193.217 116.524 180.733 127.316 L176.186 132.399 L166.186 139.399 L159.186 150.899 L152.186 164.899 L144.686 175.399 L139.686 174.399 L138.186 165.399 L136.925 148.066 C128.399 149.907 119.334 150.899 109.936 150.899 C59.8162 150.899 19.186 122.693 19.186 87.8991 C19.186 53.105 59.8162 24.8991 109.936 24.8991 z" stroke="#000000" stroke-width="5" stroke-linejoin="round" id="path2" xml:space="preserve" connector-curvature="0" style="fill:#E4E4E1;" />
    <path d="M178.686 50.2969 C162.646 35.7801 137.199 26.3991 108.549 26.3991 C60.0232 26.3991 20.68591 53.3096 20.68591 86.5056 C20.68591 95.9743 23.88621 104.931 29.58741 112.899 L50.12991 102.054 C45.69621 96.5996 43.19621 90.4239 43.19621 83.8816 C43.19621 61.7511 71.80521 43.8107 107.096 43.8107 C124.889 43.8107 140.984 48.3711 152.57 55.7298 z" stroke-width="0.2" stroke-linejoin="round" id="path4" xml:space="preserve" connector-curvature="0" style="fill:#9BCBE0;" />
    <ellipse cx="108.686" cy="84.8987" rx="66" ry="41.9999" stroke-width="0.2" stroke-linejoin="round" id="ellipse6" xml:space="preserve" style="fill:#FFFFFF;" />
    <g id="g16" xml:space="preserve">
      <path d="M80.741 104.132 L71.1418 104.132 L71.1418 87.0031 C71.1418 82.6402 69.392 80.4586 65.8925 80.4586 C64.2324 80.4586 62.8793 81.1131 61.8328 82.422 C60.7861 83.731 60.2629 85.36539 60.2629 87.3255 L60.2629 104.132 L50.6639 104.132 L50.6639 86.8229 C50.6639 82.5801 48.9408 80.4586 45.4944 80.4586 C43.7612 80.4586 42.3763 81.0847 41.33981 82.3367 C40.30321 83.5887 39.785 85.2896 39.785 87.4395 L39.785 104.132 L30.1859 104.132 L30.1859 73.7815 L39.785 73.7815 L39.785 78.7705 L39.9149 78.7705 C40.9349 77.1138 42.368 75.7671 44.2146 74.73 C46.061 73.693 48.0775 73.1745 50.2639 73.1745 C54.7968 73.1745 57.8965 75.0999 59.563 78.9507 C61.9961 75.0999 65.5791 73.1745 70.3119 73.1745 C77.2645 73.1745 80.741 77.2277 80.741 85.3338 z" stroke="#A9090B" stroke-width="2" stroke-linejoin="round" id="path8" xml:space="preserve" connector-curvature="0" style="fill:#A9090B;" />
      <path d="M117.217 91.3849 L96.7393 91.3849 C97.0726 95.8365 99.9756 98.0622 105.448 98.0622 C108.941 98.0622 112.011 97.2527 114.657 95.6341 L114.657 102.463 C111.731 103.981 107.932 104.739 103.259 104.739 C98.1526 104.739 94.1895 103.393 91.3699 100.699 C88.5502 98.0052 87.14011 94.24931 87.14011 89.43121 C87.14011 84.4297 88.65331 80.4698 91.6797 77.5518 C94.7061 74.63361 98.4258 73.17451 102.839 73.17451 C107.418 73.17451 110.959 74.46291 113.463 77.0396 C115.966 79.6162 117.217 83.1114 117.217 87.5247 z M108.258 85.92191 C108.258 81.87521 106.435 79.85171 102.789 79.85171 C101.236 79.85171 99.8906 80.43181 98.7542 81.59211 C97.61761 82.75251 96.926 84.19561 96.67921 85.92191 z" stroke="#A9090B" stroke-width="2" stroke-linejoin="round" id="path10" xml:space="preserve" connector-curvature="0" style="fill:#A9090B;" />
      <path d="M154.333 100.851 C154.333 106.522 152.665 110.915 149.329 114.029 C145.993 117.144 141.161 118.701 134.835 118.701 C130.656 118.701 127.343 118.151 124.896 117.05 L124.896 109.595 C128.09 111.214 131.309 112.024 134.556 112.024 C137.788 112.024 140.293 111.134 142.07 109.354 C143.846 107.574 144.735 105.153 144.735 102.093 L144.735 99.5323 L144.615 99.5323 C142.395 103.004 139.122 104.739 134.795 104.739 C130.783 104.739 127.596 103.388 125.237 100.685 C122.877 97.9816 121.697 94.35699 121.697 89.8106 C121.697 84.7141 123.008 80.6673 125.631 77.6702 C128.254 74.6731 131.709 73.1745 135.995 73.1745 C139.828 73.1745 142.698 74.6353 144.604 77.5564 L144.735 77.5564 L144.735 73.78149 L154.333 73.78149 z M144.854 89.5354 L144.854 87.2023 C144.854 85.3369 144.281 83.7467 143.135 82.4314 C141.988 81.1164 140.498 80.4586 138.665 80.4586 C136.572 80.4586 134.927 81.2459 133.731 82.8205 C132.534 84.39481 131.936 86.6143 131.936 89.47871 C131.936 91.93191 132.504 93.87471 133.641 95.30691 C134.777 96.73901 136.332 97.45511 138.305 97.45511 C140.258 97.45511 141.838 96.72961 143.045 95.27851 C144.251 93.82731 144.854 91.91291 144.854 89.53541 z" stroke="#A9090B" stroke-width="2" stroke-linejoin="round" id="path12" xml:space="preserve" connector-curvature="0" style="fill:#A9090B;" />
      <path d="M190.17 104.132 L180.571 104.132 L180.571 99.6082 L180.441 99.6082 C178.274 103.029 175.068 104.739 170.822 104.739 C167.689 104.739 165.224 103.909 163.428 102.25 C161.631 100.59 160.733 98.3752 160.733 95.6056 C160.733 89.7569 164.442 86.3804 171.862 85.4761 L180.631 84.3854 C180.631 81.3629 178.721 79.8517 174.901 79.8517 C171.055 79.8517 167.399 80.8634 163.932 82.8867 L163.932 75.7544 C165.326 75.0714 167.234 74.4709 169.657 73.9523 C172.08 73.4337 174.285 73.1745 176.271 73.1745 C185.537 73.1745 190.17 77.4743 190.17 86.0735 z M180.631 91.8307 L180.631 89.8484 L174.651 90.5408 C171.345 90.9202 169.692 92.2513 169.692 94.5338 C169.692 95.5646 170.094 96.4103 170.897 97.071 C171.7 97.7317 172.788 98.0622 174.161 98.0622 C176.075 98.0622 177.631 97.47421 178.831 96.298 C180.031 95.1219 180.631 93.6328 180.631 91.8307 z" stroke="#A9090B" stroke-width="2" stroke-linejoin="round" id="path14" xml:space="preserve" connector-curvature="0" style="fill:#A9090B;" />
    </g>
  </g>
</svg>