<?xml version="1.0" encoding="utf-8"?>
<!DOCTYPE svg PUBLIC "-//W3C//DTD SVG 1.1//EN" "http://www.w3.org/Graphics/SVG/1.1/DTD/svg11.dtd">
<svg x="0" y="0" width="48" height="48" overflow="hidden" viewBox="0, 0, 48, 48" preserveAspectRatio="xMidYMid"
     font-size="0" id="svg" xml:space="preserve" xmlns="http://www.w3.org/2000/svg"
     xmlns:xml="http://www.w3.org/XML/1998/namespace" version="1.1">
  <g transform="matrix(0.8304417, 0, 0, 0.7999957, -0.00103907, 0.00185546)" id="g40" xml:space="preserve">
    <g id="g34" xml:space="preserve">
      <path d="M31.5035 5.86389 C36.8638 6.27356 40.8769 7.94019 44.6618 10.4418 L48.0902 5.94946 C43.5476 2.52112 38.0072 0.36377 31.9876 0.000244141 z" stroke-width="0.2" stroke-linejoin="round" id="path2" xml:space="preserve" connector-curvature="0" style="fill:#808080;" />
      <path d="M4.65265 24.7399 C4.90924 23.778 5.22256 22.8425 5.58905 21.9359 L1.56525 20.5514 C1.20123 21.6328 0.8970029 22.7413 0.6564939 23.8734 z" stroke-width="0.2" stroke-linejoin="round" id="path4" xml:space="preserve" connector-curvature="0" style="fill:#808080;" />
      <path d="M26.8394 57.1766 C26.144 57.0643 25.4569 56.9271 24.7794 56.766 L24.3619 59.402 C25.1048 59.5504 25.8567 59.672 26.6165 59.7659 z" stroke-width="0.2" stroke-linejoin="round" id="path6" xml:space="preserve" connector-curvature="0" style="fill:#808080;" />
      <path d="M21.445 55.7534 C16.9511 54.0813 13.0115 51.3169 10.0033 47.7921 L7.68289 49.9569 C11.1663 53.796 15.6342 56.7391 20.6625 58.4186 z" stroke-width="0.2" stroke-linejoin="round" id="path8" xml:space="preserve" connector-curvature="0" style="fill:#808080;" />
      <path d="M8.44543 45.7794 C7.95999 45.0858 7.50797 44.3688 7.0918 43.6304 L4.245151 45.3508 C4.7475 46.1798 5.289461 46.9824 5.868231 47.7563 z" stroke-width="0.2" stroke-linejoin="round" id="path10" xml:space="preserve" connector-curvature="0" style="fill:#808080;" />
      <path d="M55.5403 36.96 C55.1933 38.8746 54.6953 40.7225 54.0113 42.4747 L55.8526 43.3507 C56.6581 41.4484 57.2293 39.4606 57.5372 37.431 z" stroke-width="0.2" stroke-linejoin="round" id="path12" xml:space="preserve" connector-curvature="0" style="fill:#808080;" />
      <path d="M53.0533 44.62 C52.2173 46.2678 51.1852 47.8102 49.9231 49.2194 L51.3582 50.5051 C52.677 48.9939 53.8195 47.3517 54.761 45.6161 z" stroke-width="0.2" stroke-linejoin="round" id="path14" xml:space="preserve" connector-curvature="0" style="fill:#808080;" />
      <path d="M47.8626 51.2216 C47.273 51.7208 46.6452 52.1971 45.9773 52.649 L47.2314 54.3593 C47.9198 53.8365 48.5808 53.2841 49.2124 52.7045 z" stroke-width="0.2" stroke-linejoin="round" id="path16" xml:space="preserve" connector-curvature="0" style="fill:#808080;" />
      <path d="M54.2881 22.4063 C54.8174 24.0065 55.3105 26.3019 55.7679 29.8016 L57.4727 29.7854 C57.025 26.2305 56.4498 23.7402 55.7981 21.9417 z" stroke-width="0.2" stroke-linejoin="round" id="path18" xml:space="preserve" connector-curvature="0" style="fill:#808080;" />
      <path d="M51.1125 17.4066 C52.0891 18.3049 52.9694 18.7438 53.7544 20.6862 L55.0111 20.3698 C54.1125 18.3401 53.0388 17.6036 51.9827 17.0056 z" stroke-width="0.2" stroke-linejoin="round" id="path20" xml:space="preserve" connector-curvature="0" style="fill:#808080;" />
      <path d="M57.7445 32.3324 L56.0545 32.2 C56.0648 32.2946 56.0752 32.3899 56.0855 32.486 C56.0407 33.1366 55.9829 33.7826 55.9106 34.4229 L57.7899 34.6837 C57.8151 33.9022 57.8005 33.1177 57.7445 32.3324 z" stroke-width="0.2" stroke-linejoin="round" id="path22" xml:space="preserve" connector-curvature="0" style="fill:#808080;" />
      <path d="M30.3999 59.998 C35.5179 59.998 40.2221 58.6396 44.2348 56.3428 L43.0902 54.3202 C39.9533 55.866 36.1194 56.978 31.4539 57.5455 C30.5336 57.5455 29.6229 57.5022 28.7241 57.4174 L28.6815 59.9503 C29.2508 59.9821 29.8237 59.998 30.3999 59.998 z" stroke-width="0.2" stroke-linejoin="round" id="path24" xml:space="preserve" connector-curvature="0" style="fill:#808080;" />
      <path d="M0.00125122 30.1357 C0.00125122 34.6161 1.00201 38.8446 2.7865 42.6332 L5.87637 41.1774 C4.55237 38.1016 3.82019 34.7289 3.82019 31.1831 C3.82019 29.8365 3.92371 28.5236 4.12335 27.2494 L0.184021 26.8077 C0.06326289 27.9005 0.001251221 29.011 0.001251221 30.1357 z" stroke-width="0.2" stroke-linejoin="round" id="path26" xml:space="preserve" connector-curvature="0" style="fill:#808080;" />
      <path d="M49.035 13.7103 C50.3451 13.0065 53.3916 11.0532 52.7315 10.2906 C52.081 9.53931 51.3943 8.82068 50.6739 8.1377 L46.9378 12.0571 C47.6346 12.5831 48.3312 13.135 49.035 13.7103 z" stroke-width="0.2" stroke-linejoin="round" id="path28" xml:space="preserve" connector-curvature="0" style="fill:#808080;" />
      <path d="M25.7039 0.27832 L26.4538 6.20227 C27.1638 6.09314 27.8831 6.00818 28.6107 5.94836 L28.3943 -0.00231934 C27.4867 0.0511475 26.5893 0.145264 25.7039 0.27832 z" stroke-width="0.2" stroke-linejoin="round" id="path30" xml:space="preserve" connector-curvature="0" style="fill:#808080;" />
      <path d="M2.58148 17.943 L6.59683 19.7633 C10.0258 13.2474 16.3543 8.51514 24.0131 6.68079 L22.6663 0.897583 C13.7023 3.21594 6.29694 9.58301 2.58148 17.943 z" stroke-width="0.2" stroke-linejoin="round" id="path32" xml:space="preserve" connector-curvature="0" style="fill:#808080;" />
    </g>
    <ellipse cx="29.6833" cy="31.5891" rx="23.4503" ry="23.6038" stroke-width="0.2" stroke-linejoin="round" id="ellipse36" xml:space="preserve" style="fill:#12508C;" />
    <path d="M20.0284 30.1083 L38.9317 22.3425 L30.9616 41.5525 z" stroke-width="0.2" stroke-linejoin="round" id="path38" xml:space="preserve" connector-curvature="0" style="fill:#FFFFFF;" />
  </g>
</svg>