<?xml version="1.0" encoding="utf-8"?>
<!DOCTYPE svg PUBLIC "-//W3C//DTD SVG 1.1//EN" "http://www.w3.org/Graphics/SVG/1.1/DTD/svg11.dtd">
<svg x="0" y="0" width="48" height="48" overflow="hidden" viewBox="0, 0, 40, 40" preserveAspectRatio="xMidYMid"
     font-size="0px" id="svg" xml:space="preserve" xmlns="http://www.w3.org/2000/svg"
     xmlns:xml="http://www.w3.org/XML/1998/namespace" version="1.1">
  <g transform="matrix(1.039041, 0, 0, 0.8, -0.780803, -0.7807984)" id="g19" xml:space="preserve">
    <linearGradient x1="0.857085" y1="0.8566629" x2="44.73042" y2="0.8566629" gradientUnits="userSpaceOnUse" gradientTransform="scale(0.8774626, 1.13965)" id="SVGID_Fill1_" xml:space="preserve">
      <stop offset="0%" stop-color="#B6EEAF" stop-opacity="1" id="stop2" xml:space="preserve" />
      <stop offset="100%" stop-color="#41733A" stop-opacity="1" id="stop4" xml:space="preserve" />
    </linearGradient>
    <path d="M3.46048 0.975998 C1.95258 0.975998 0.7514651 2.1931 0.7514651 3.7016 L0.7514651 48.2528 C0.7514651 49.7613 1.95258 50.976 3.46048 50.976 L36.5395 50.976 C38.048 50.976 39.2485 49.7613 39.2485 48.2528 L39.2485 14.7761 L29.2843 14.7761 C27.244 14.7761 25.4648 13.2886 25.4648 11.3104 L25.4648 0.975998 M27.3595 0.975998 L27.3595 11.3104 C27.3595 12.123 28.1324 12.8817 29.2843 12.8817 L39.2485 12.8817 z" stroke-width="0.2" stroke-linejoin="round" id="path7" xml:space="preserve" connector-curvature="0" style="fill:url(#SVGID_Fill1_);" />
    <path d="M6.6972 12.8977 L23.0401 12.8977 C23.505 12.8977 23.8775 13.2702 23.8775 13.7351 L23.8775 14.9913 C23.8775 15.4545 23.505 15.8288 23.0401 15.8288 L6.6972 15.8288 C6.23465 15.8288 5.85974 15.4545 5.85974 14.9913 L5.85974 13.7351 C5.85974 13.2702 6.23465 12.8977 6.6972 12.8977 z" stroke-width="0.2" stroke-linejoin="round" id="path9" xml:space="preserve" connector-curvature="0" style="fill:#4D4D4D;" />
    <path d="M6.6972 26.557 L33.3028 26.557 C33.7677 26.557 34.1403 26.9313 34.1403 27.3945 L34.1403 28.6507 C34.1403 29.1156 33.7677 29.4878 33.3028 29.4878 L6.6972 29.4878 C6.23465 29.4878 5.85974 29.1156 5.85974 28.6507 L5.85974 27.3945 C5.85974 26.9313 6.23465 26.557 6.6972 26.557 z" stroke-width="0.2" stroke-linejoin="round" id="path11" xml:space="preserve" connector-curvature="0" style="fill:#4D4D4D;" />
    <path d="M6.6972 19.727 L23.0401 19.727 C23.505 19.727 23.8775 20.1019 23.8775 20.5645 L23.8775 21.8213 C23.8775 22.2838 23.505 22.6587 23.0401 22.6587 L6.6972 22.6587 C6.23465 22.6587 5.85974 22.2838 5.85974 21.8213 L5.85974 20.5645 C5.85974 20.1019 6.23465 19.727 6.6972 19.727 z" stroke-width="0.2" stroke-linejoin="round" id="path13" xml:space="preserve" connector-curvature="0" style="fill:#4D4D4D;" />
    <path d="M6.6972 33.3864 L33.3028 33.3864 C33.7677 33.3864 34.1403 33.7613 34.1403 34.2238 L34.1403 35.48 C34.1403 35.945 33.7677 36.3175 33.3028 36.3175 L6.6972 36.3175 C6.23465 36.3175 5.85974 35.945 5.85974 35.48 L5.85974 34.2238 C5.85974 33.7613 6.23465 33.3864 6.6972 33.3864 z" stroke-width="0.2" stroke-linejoin="round" id="path15" xml:space="preserve" connector-curvature="0" style="fill:#4D4D4D;" />
    <path d="M6.6972 40.2158 L33.3028 40.2158 C33.7677 40.2158 34.1403 40.5907 34.1403 41.0532 L34.1403 42.3094 C34.1403 42.7743 33.7677 43.1469 33.3028 43.1469 L6.6972 43.1469 C6.23465 43.1469 5.85974 42.7743 5.85974 42.3094 L5.85974 41.0532 C5.85974 40.5907 6.23465 40.2158 6.6972 40.2158 z" stroke-width="0.2" stroke-linejoin="round" id="path17" xml:space="preserve" connector-curvature="0" style="fill:#4D4D4D;" />
  </g>
  <g transform="matrix(1.039041, 0, 0, 0.8, -0.780803, -0.7807984)" id="g27" xml:space="preserve">
    <path d="M15.7842 46.8819 C14.7033 47.7323 13.2809 48.3014 11.5169 48.589 C9.56154 48.9078 7.93515 48.6409 6.63773 47.7884 C5.3403 46.9359 4.5433 45.6003 4.2468 43.7816 C3.94855 41.9525 4.32471 40.3603 5.37524 39.0052 C6.42578 37.65 7.97928 36.8048 10.0357 36.4695 C11.3303 36.2584 12.5004 36.2447 13.546 36.4283 L13.9525 38.9211 C12.9245 38.51651 11.7335 38.4245 10.3794 38.64531 C9.245509 38.8302 8.379499 39.3362 7.781309 40.16341 C7.183139 40.99051 6.980739 41.99731 7.174179 43.18361 C7.370439 44.38731 7.837309 45.26711 8.574799 45.8228 C9.312268 46.3786 10.2163 46.5692 11.287 46.3946 C11.9297 46.2898 12.4255 46.1187 12.7741 45.8812 L12.4081 43.6366 L9.981568 44.0322 L9.627109 41.8582 L14.8269 41.0104 z" stroke="#000000" stroke-width="0.5" stroke-linejoin="round" id="path21" xml:space="preserve" connector-curvature="0" style="fill:#FFFFFF;" />
    <path d="M20.2897 42.8666 L20.9441 46.8802 L18.1708 47.3324 L16.2621 35.626 L20.5303 34.9301 C23.578 34.4332 25.3051 35.4311 25.7115 37.9239 C25.9038 39.1033 25.6255 40.1278 24.8767 40.9974 C24.1279 41.867 23.0286 42.42 21.5788 42.6564 z M19.3626 37.1806 L19.9625 40.8598 L20.9916 40.692 C22.3854 40.4647 22.9812 39.7309 22.779 38.4906 C22.5813 37.2782 21.7856 36.78559 20.3917 37.0128 z" stroke="#000000" stroke-width="0.5" stroke-linejoin="round" id="path23" xml:space="preserve" connector-curvature="0" style="fill:#FFFFFF;" />
    <path d="M37.9301 44.1107 L34.6315 44.6485 L31.8839 41.1827 C31.7815 41.0546 31.6558 40.8068 31.507 40.4394 L31.4718 40.4452 C31.4613 40.6311 31.4109 40.9192 31.3207 41.3094 L29.8027 45.4358 L26.4905 45.9759 L29.4686 39.4815 L24.9285 34.2129 L28.3057 33.6623 L30.6382 36.8846 C30.8209 37.141 30.9973 37.4502 31.1676 37.8123 L31.2028 37.8065 C31.2342 37.5671 31.3061 37.2067 31.4185 36.7252 L32.7905 32.9311 L35.8481 32.4325 L33.1626 38.8282 z" stroke="#000000" stroke-width="0.5" stroke-linejoin="round" id="path25" xml:space="preserve" connector-curvature="0" style="fill:#FFFFFF;" />
  </g>
</svg>