<?xml version="1.0" encoding="utf-8"?>
<!DOCTYPE svg PUBLIC "-//W3C//DTD SVG 1.1//EN" "http://www.w3.org/Graphics/SVG/1.1/DTD/svg11.dtd">
<svg xmlns="http://www.w3.org/2000/svg" xmlns:xlink="http://www.w3.org/1999/xlink" version="1.1" baseProfile="full" width="40" height="51.952" viewBox="0 0 40.00 51.95" enable-background="new 0 0 40.00 51.95" xml:space="preserve">
	<g>
		<linearGradient id="SVGID_Fill1_" gradientUnits="objectBoundingBox" x1="1.54581e-005" y1="5.95093e-006" x2="1.00002" y2="5.95093e-006">
			<stop offset="0" stop-color="#B6EEAF" stop-opacity="1"/>
			<stop offset="1" stop-color="#41733A" stop-opacity="1"/>
		</linearGradient>
		<path fill="url(#SVGID_Fill1_)" stroke-width="0.2" stroke-linejoin="round" d="M 3.46048,0.975998C 1.95258,0.975998 0.751465,2.1931 0.751465,3.7016L 0.751465,48.2528C 0.751465,49.7613 1.95258,50.976 3.46048,50.976L 36.5395,50.976C 38.048,50.976 39.2485,49.7613 39.2485,48.2528L 39.2485,14.7761L 29.2843,14.7761C 27.244,14.7761 25.4648,13.2886 25.4648,11.3104L 25.4648,0.975998M 27.3595,0.975998L 27.3595,11.3104C 27.3595,12.123 28.1324,12.8817 29.2843,12.8817L 39.2485,12.8817L 27.3595,0.975998 Z "/>
		<path fill="#4D4D4D" fill-opacity="1" stroke-width="0.2" stroke-linejoin="round" d="M 6.6972,12.8977L 23.0401,12.8977C 23.505,12.8977 23.8775,13.2702 23.8775,13.7351L 23.8775,14.9913C 23.8775,15.4545 23.505,15.8288 23.0401,15.8288L 6.6972,15.8288C 6.23465,15.8288 5.85974,15.4545 5.85974,14.9913L 5.85974,13.7351C 5.85974,13.2702 6.23465,12.8977 6.6972,12.8977 Z "/>
		<path fill="#4D4D4D" fill-opacity="1" stroke-width="0.2" stroke-linejoin="round" d="M 6.6972,26.557L 33.3028,26.557C 33.7677,26.557 34.1403,26.9313 34.1403,27.3945L 34.1403,28.6507C 34.1403,29.1156 33.7677,29.4878 33.3028,29.4878L 6.6972,29.4878C 6.23465,29.4878 5.85974,29.1156 5.85974,28.6507L 5.85974,27.3945C 5.85974,26.9313 6.23465,26.557 6.6972,26.557 Z "/>
		<path fill="#4D4D4D" fill-opacity="1" stroke-width="0.2" stroke-linejoin="round" d="M 6.6972,19.727L 23.0401,19.727C 23.505,19.727 23.8775,20.1019 23.8775,20.5645L 23.8775,21.8213C 23.8775,22.2838 23.505,22.6587 23.0401,22.6587L 6.6972,22.6587C 6.23465,22.6587 5.85974,22.2838 5.85974,21.8213L 5.85974,20.5645C 5.85974,20.1019 6.23465,19.727 6.6972,19.727 Z "/>
		<path fill="#4D4D4D" fill-opacity="1" stroke-width="0.2" stroke-linejoin="round" d="M 6.6972,33.3864L 33.3028,33.3864C 33.7677,33.3864 34.1403,33.7613 34.1403,34.2238L 34.1403,35.48C 34.1403,35.945 33.7677,36.3175 33.3028,36.3175L 6.6972,36.3175C 6.23465,36.3175 5.85974,35.945 5.85974,35.48L 5.85974,34.2238C 5.85974,33.7613 6.23465,33.3864 6.6972,33.3864 Z "/>
		<path fill="#4D4D4D" fill-opacity="1" stroke-width="0.2" stroke-linejoin="round" d="M 6.6972,40.2158L 33.3028,40.2158C 33.7677,40.2158 34.1403,40.5907 34.1403,41.0532L 34.1403,42.3094C 34.1403,42.7743 33.7677,43.1469 33.3028,43.1469L 6.6972,43.1469C 6.23465,43.1469 5.85974,42.7743 5.85974,42.3094L 5.85974,41.0532C 5.85974,40.5907 6.23465,40.2158 6.6972,40.2158 Z "/>
	</g>
	<g>
		<path fill="#FFFFFF" fill-opacity="1" stroke-width="0.5" stroke-linejoin="round" stroke="#000000" stroke-opacity="1" d="M 15.7842,46.8819C 14.7033,47.7323 13.2809,48.3014 11.5169,48.589C 9.56154,48.9078 7.93515,48.6409 6.63773,47.7884C 5.3403,46.9359 4.5433,45.6003 4.2468,43.7816C 3.94855,41.9525 4.32471,40.3603 5.37524,39.0052C 6.42578,37.65 7.97928,36.8048 10.0357,36.4695C 11.3303,36.2584 12.5004,36.2447 13.546,36.4283L 13.9525,38.9211C 12.9245,38.5165 11.7335,38.4245 10.3794,38.6453C 9.24551,38.8302 8.3795,39.3362 7.78131,40.1634C 7.18314,40.9905 6.98074,41.9973 7.17418,43.1836C 7.37044,44.3873 7.83731,45.2671 8.5748,45.8228C 9.31227,46.3786 10.2163,46.5692 11.287,46.3946C 11.9297,46.2898 12.4255,46.1187 12.7741,45.8812L 12.4081,43.6366L 9.98157,44.0322L 9.62711,41.8582L 14.8269,41.0104L 15.7842,46.8819 Z "/>
		<path fill="#FFFFFF" fill-opacity="1" stroke-width="0.5" stroke-linejoin="round" stroke="#000000" stroke-opacity="1" d="M 20.2897,42.8666L 20.9441,46.8802L 18.1708,47.3324L 16.2621,35.626L 20.5303,34.9301C 23.578,34.4332 25.3051,35.4311 25.7115,37.9239C 25.9038,39.1033 25.6255,40.1278 24.8767,40.9974C 24.1279,41.867 23.0286,42.42 21.5788,42.6564L 20.2897,42.8666 Z M 19.3626,37.1806L 19.9625,40.8598L 20.9916,40.692C 22.3854,40.4647 22.9812,39.7309 22.779,38.4906C 22.5813,37.2782 21.7856,36.7856 20.3917,37.0128L 19.3626,37.1806 Z "/>
		<path fill="#FFFFFF" fill-opacity="1" stroke-width="0.5" stroke-linejoin="round" stroke="#000000" stroke-opacity="1" d="M 37.9301,44.1107L 34.6315,44.6485L 31.8839,41.1827C 31.7815,41.0546 31.6558,40.8068 31.507,40.4394L 31.4718,40.4452C 31.4613,40.6311 31.4109,40.9192 31.3207,41.3094L 29.8027,45.4358L 26.4905,45.9759L 29.4686,39.4815L 24.9285,34.2129L 28.3057,33.6623L 30.6382,36.8846C 30.8209,37.141 30.9973,37.4502 31.1676,37.8123L 31.2028,37.8065C 31.2342,37.5671 31.3061,37.2067 31.4185,36.7252L 32.7905,32.9311L 35.8481,32.4325L 33.1626,38.8282L 37.9301,44.1107 Z "/>
	</g>
</svg>
