<?xml version="1.0" encoding="utf-8"?>
<!DOCTYPE svg PUBLIC "-//W3C//DTD SVG 1.1//EN" "http://www.w3.org/Graphics/SVG/1.1/DTD/svg11.dtd">
<svg x="0" y="0" width="48" height="48" overflow="hidden" viewBox="0, 0, 48, 48" preserveAspectRatio="xMidYMid"
     font-size="0" id="svg" xml:space="default" xmlns="http://www.w3.org/2000/svg"
     xmlns:xml="http://www.w3.org/XML/1998/namespace" version="1.1">
  <defs id="def1" xml:space="default">
    <linearGradient x1="34.40774" y1="38.21864" x2="58.57169" y2="38.21864" gradientUnits="userSpaceOnUse" gradientTransform="scale(1.007935, 0.9921277)" id="SVGID_Fill1_" xml:space="default">
      <stop offset="0%" stop-color="#04A100" stop-opacity="1" id="stop2" xml:space="default" />
      <stop offset="100%" stop-color="#FFFFFF" stop-opacity="1" id="stop4" xml:space="default" />
    </linearGradient>
  </defs>
  <path d="M27.59298 30.07226 C27.67801 29.71835 27.73637 29.34386 27.75388 28.94304 C28.09071 21.66483 24.06219 15.70515 18.02358 11.87386 C14.43193 9.594023 11.02537 12.07963 10.15997 15.24918 C7.933945 13.5002 4.07884 16.11749 5.81297 18.9924 C5.876333 19.09692 5.941362 19.20227 6.006392 19.30762 C4.265593 19.30103 -1.281956 19.28375 0.2712579 19.30923 C2.107101 19.34049 6.512459 24.21788 6.512459 24.21788 L6.512459 20.10264 C7.865581 22.14544 9.595542 24.05656 12.17006 24.34545 C13.34393 24.47796 14.31354 24.11911 15.11058 23.49113 C16.11687 24.70677 16.62961 26.07138 16.72965 27.70924 C15.84842 27.69607 14.96468 27.73146 14.0726 27.83435 C10.99535 28.19237 9.096148 28.86151 8.474195 32.0393 C7.538765 36.83272 10.06409 40.33396 12.78784 43.99817 C15.00386 46.97842 20.10454 44.09035 17.85934 41.06812 C16.0235 38.59898 14.17682 36.57017 14.25268 33.70103 C16.04684 33.43189 17.83099 33.50432 19.65266 33.67634 C20.54391 34.05494 21.54937 34.20803 22.54483 34.13148 C24.02967 39.03273 26.8493 43.39817 30.50098 47.12164 C33.14053 49.81382 37.28993 45.70435 34.65456 43.02369 C31.03373 39.32656 28.60844 35.04918 27.59298 30.07222 z" stroke-width="0.8283645" id="path2-8" xml:space="default" style="fill:#010002;" />
  <path d="M5.361929 6.54381 C5.369429 6.626115 5.371934 6.70842 5.383606 6.791547 C5.757945 9.474681 8.263263 11.3504 10.97951 10.98086 C13.69742 10.61213 15.59496 8.139698 15.22313 5.456565 C15.14643 4.898539 14.97301 4.379196 14.7279 3.905121 C14.89548 3.825286 14.97134 3.635162 14.91465 3.239276 L14.75291 2.068081 C14.56949 0.7586125 13.34643 -0.1582616 12.02166 0.0228088 L6.734227 0.7388593 C5.404449 0.9199296 4.47819 2.12734 4.660774 3.438454 L4.79 4.385781 C4.048826 4.969321 3.422705 5.706771 3.558601 6.488666 C3.676989 7.182495 4.45568 7.010478 5.361929 6.54381 z" stroke-width="0.8283645" id="path4-8" xml:space="default" style="fill:#010002;" />
  <path d="M18.77559 11.02777 C18.77559 11.02777 30.68106 17.32902 29.27458 26.61628 C26.1915 34.35951 39.65352 42.33483 46.97355 24.47636 C46.97271 24.47636 56.29366 0.0005874634 18.77559 11.02777 z M38.93235 25.60064 L38.93235 27.09365 L37.32328 27.09365 L37.32328 25.68871 C36.57794 25.61957 35.83677 25.37677 35.35738 25.04097 L35.13144 24.88048 L35.71504 23.26895 L36.10689 23.52656 C36.61462 23.86154 37.27076 24.05496 37.89938 24.05496 C38.6689 24.05496 39.18246 23.66072 39.18246 23.07553 C39.18246 22.68047 39.02322 22.25167 37.84518 21.78088 C36.60128 21.30022 35.32653 20.59981 35.32653 19.07553 C35.32653 17.85001 36.14273 16.89445 37.42249 16.57593 L37.42249 15.1249 L39.01739 15.1249 L39.01739 16.47717 C39.62683 16.53808 40.15958 16.70515 40.63897 16.98252 L40.90659 17.1389 L40.29798 18.72573 L39.92281 18.51503 C39.70271 18.39075 39.1833 18.09692 38.35875 18.09692 C37.54588 18.09692 37.25658 18.51832 37.25658 18.91256 C37.25658 19.33972 37.47168 19.61627 38.74977 20.13973 C39.85527 20.58417 41.12836 21.3101 41.12836 22.98006 C41.12586 24.24508 40.25629 25.26731 38.93235 25.60064 z" stroke="#000000" stroke-width="0.828" id="path6-9" xml:space="default" style="fill:none;" />
  <g transform="matrix(0.1278539, 0, 0, 0.08700944, 20.379, 9.688778)" id="g118" xml:space="default">
    <path d="M119.217 3.69308 L113.91 6.40495 L116.505 6.44369 L120.96 3.69308 z" stroke-width="0.2" stroke-linejoin="round" id="path2" xml:space="default" connector-curvature="0" style="fill:#000000;" />
    <path d="M106.51 9.1168 L101.203 12.7585 L106.859 12.7972 L110.81 9.1943 z" stroke-width="0.2" stroke-linejoin="round" id="path4" xml:space="default" connector-curvature="0" style="fill:#000000;" />
    <path d="M95.1978 17.5623 L89.929 22.6761 L97.2898 22.6761 L101.435 17.6011 z" stroke-width="0.2" stroke-linejoin="round" id="path6" xml:space="default" connector-curvature="0" style="fill:#000000;" />
    <path d="M96.1405 24.3032 L88.3923 24.3291 L85.44801 28.0482 L93.8548 28.0482" stroke-width="0.2" stroke-linejoin="round" id="path8" xml:space="default" connector-curvature="0" style="fill:#000000;" />
    <path d="M83.5497 31.1991 L81.5158 34.2209 L90.5618 34.2016 L92.5569 31.1991 z" stroke-width="0.2" stroke-linejoin="round" id="path10-3" xml:space="default" connector-curvature="0" style="fill:#000000;" />
    <path d="M80.8572 36.1967 L77.816 42.957 L88.6441 42.957 L90.32932 36.2161 z" stroke-width="0.2" stroke-linejoin="round" id="path12-7" xml:space="default" connector-curvature="0" style="fill:#000000;" />
    <path d="M77.2155 45.4945 L76.7313 48.5357 L87.7918 48.5357 L88.2761 45.4945 z" stroke-width="0.2" stroke-linejoin="round" id="path14" xml:space="default" connector-curvature="0" style="fill:#000000;" />
    <path d="M76.5376 51.2476 L76.1502 54.6567 L87.3269 54.6761 L87.71429 51.3057" stroke-width="0.2" stroke-linejoin="round" id="path16" xml:space="default" connector-curvature="0" style="fill:#000000;" />
    <path d="M76.1824 56.5099 L76.105 59.5575 L87.4173 59.5316 L87.3915 56.484 z" stroke-width="0.2" stroke-linejoin="round" id="path18" xml:space="default" connector-curvature="0" style="fill:#000000;" />
    <path d="M76.5699 63.1475 L76.854 66.4792 L88.6312 66.4533 L87.8564 63.1475 z" stroke-width="0.2" stroke-linejoin="round" id="path20" xml:space="default" connector-curvature="0" style="fill:#000000;" />
    <path d="M77.6546 70.3016 L78.3261 73.81419 L90.4391 73.81409 L89.0961 70.3016 z" stroke-width="0.2" stroke-linejoin="round" id="path22" xml:space="default" connector-curvature="0" style="fill:#000000;" />
    <path d="M79.1268 76.2936 L81.632 82.6729 L93.4867 82.6471 L90.9298 76.2935 z" stroke-width="0.2" stroke-linejoin="round" id="path24" xml:space="default" connector-curvature="0" style="fill:#000000;" />
    <path d="M82.5618 85.643 L84.7571 90.1628 L96.4827 90.13699 L94.6231 85.6172 z" stroke-width="0.2" stroke-linejoin="round" id="path26" xml:space="default" connector-curvature="0" style="fill:#000000;" />
    <path d="M132.37 3.57687 L136.263 6.44368 L138.491 6.42433 L133.958 3.61561 z" stroke-width="0.2" stroke-linejoin="round" id="path28" xml:space="default" connector-curvature="0" style="fill:#000000;" />
    <path d="M141.551 8.8069 L145.697 12.3323 L152.128 12.2935 L146.859 8.76815 z" stroke-width="0.2" stroke-linejoin="round" id="path30" xml:space="default" connector-curvature="0" style="fill:#000000;" />
    <path d="M151.314 16.865 L155.537 21.9788 L163.944 21.9788 L159.527 16.8262 L159.411 16.8262 z" stroke-width="0.2" stroke-linejoin="round" id="path32" xml:space="default" connector-curvature="0" style="fill:#000000;" />
    <path d="M156.738 23.7221 L159.372 27.0539 L168.864 27.0926 L165.919 23.6834" stroke-width="0.2" stroke-linejoin="round" id="path34" xml:space="default" connector-curvature="0" style="fill:#000000;" />
    <path d="M161.161 30.1239 L162.594 32.9781 L171.582 33.0556 L169.955 30.1888 z" stroke-width="0.2" stroke-linejoin="round" id="path36" xml:space="default" connector-curvature="0" style="fill:#000000;" />
    <path d="M163.311 35.4382 L165.267 41.6561 L175.456 41.6174 L172.686 35.4576 z" stroke-width="0.2" stroke-linejoin="round" id="path38" xml:space="default" connector-curvature="0" style="fill:#000000;" />
    <path d="M166.003 44.4261 L166.739 47.2735 L176.599 47.2735 L175.747 44.4648 z" stroke-width="0.2" stroke-linejoin="round" id="path40" xml:space="default" connector-curvature="0" style="fill:#000000;" />
    <path d="M167.03 50.5084 L167.049 53.2203 L177.219 53.1622 L177.18 50.5859 z" stroke-width="0.2" stroke-linejoin="round" id="path42" xml:space="default" connector-curvature="0" style="fill:#000000;" />
    <path d="M167.127 55.6028 L167.049 58.3728 L177.374 58.2953 L177.393 55.5835 z" stroke-width="0.2" stroke-linejoin="round" id="path44" xml:space="default" connector-curvature="0" style="fill:#000000;" />
    <path d="M166.759 62.4019 L166.429 65.6755 L176.289 65.5592 L177.044 62.4019 z" stroke-width="0.2" stroke-linejoin="round" id="path46" xml:space="default" connector-curvature="0" style="fill:#000000;" />
    <path d="M165.674 69.627 L164.047 73.2881 L174.933 73.2881 L175.902 69.6271 z" stroke-width="0.2" stroke-linejoin="round" id="path48" xml:space="default" connector-curvature="0" style="fill:#000000;" />
    <path d="M163.279 75.8579 L160.592 82.00481 L172.912 82.00481 L174.668 75.85791 z" stroke-width="0.2" stroke-linejoin="round" id="path50" xml:space="default" connector-curvature="0" style="fill:#000000;" />
    <path d="M171.776 85.1299 L159.275 85.1299 L156.486 89.7788 L169.09 89.753" stroke-width="0.2" stroke-linejoin="round" id="path52" xml:space="default" connector-curvature="0" style="fill:#000000;" />
    <path d="M103.669 66.0952 L150.933 66.0435 L149.125 64.2356 L146.233 62.4794 L109.868 62.53101 L106.562 63.97731 z" stroke-width="0.2" stroke-linejoin="round" id="path54" xml:space="default" connector-curvature="0" style="fill:#000000;" />
    <path d="M100.002 69.6593 L98.4521 71.3123 L98.2971 72.9136 L98.762 73.7917 L155.117 73.7917 L155.789 72.552 L155.065 70.6925 L153.464 69.55602 z" stroke-width="0.2" stroke-linejoin="round" id="path56" xml:space="default" connector-curvature="0" style="fill:#000000;" />
    <path d="M99.5368 75.8579 L98.19379 76.9943 L98.09048 79.2671 L100.208 82.9862 L154.91 82.9346 L155.944 80.7651 L155.789 76.4777 L154.807 75.8062 z" stroke-width="0.2" stroke-linejoin="round" id="path58" xml:space="default" connector-curvature="0" style="fill:#000000;" />
    <path d="M102.998 86.0855 L101.655 88.0484 L101.5 89.598 L102.481 90.2695 L152.069 90.1662 L152.431 89.2364 L152.483 87.89339 L151.088 85.72388 L149.332 85.46558 L104.599 85.56898" stroke-width="0.2" stroke-linejoin="round" id="path60" xml:space="default" connector-curvature="0" style="fill:#000000;" />
    <path d="M86.1389 92.0482 L87.5852 94.7342 L167.753 94.321 L168.476 91.6349 z" stroke-width="0.2" stroke-linejoin="round" id="path62" xml:space="default" connector-curvature="0" style="fill:#000000;" />
    <path d="M87.7239 97.0742 L86.3073 98.0742 L85.7239 99.4075 L168.219 99.3034 L168.234 97.7409 L167.625 96.7252 z" stroke-width="0.2" stroke-linejoin="round" id="path64" xml:space="default" connector-curvature="0" style="fill:#000000;" />
    <path d="M85.125 102.512 L84.3281 103.324 L84.0625 104.548 L83.9375 105.736 L170.5 105.486 L170.5 104.449 L170.047 103.074 L169.016 102.366 z" stroke-width="0.2" stroke-linejoin="round" id="path66" xml:space="default" connector-curvature="0" style="fill:#000000;" />
    <path d="M83.875 109.111 L83.5 110.611 L83.6875 111.923 L170.687 111.923 L171.125 110.111 L170.812 108.486" stroke-width="0.2" stroke-linejoin="round" id="path68" xml:space="default" connector-curvature="0" style="fill:#000000;" />
    <path d="M84.1875 115.361 L85.3125 118.548 L87.4375 121.236 L91.1875 123.986 L93.375 124.861 L162.312 124.798 L165 122.673 L167.937 119.673 L169.5 117.298 L170.187 114.986 z" stroke-width="0.2" stroke-linejoin="round" id="path70" xml:space="default" connector-curvature="0" style="fill:#000000;" />
    <path d="M94.9375 127.236 L93.4375 128.673 L93.4375 133.548 L94.75 134.736 L160.125 133.923 L160.625 132.673 L160.437 127.923 L158.937 127.236 z" stroke-width="0.2" stroke-linejoin="round" id="path72" xml:space="default" connector-curvature="0" style="fill:#000000;" />
    <path d="M93.625 136.861 L93.75 143.923 L160.437 143.923 L160.312 137.048 z" stroke-width="0.2" stroke-linejoin="round" id="path74" xml:space="default" connector-curvature="0" style="fill:#000000;" />
    <path d="M93.375 147.173 L93.375 150.673 L160.437 150.611 L160.437 147.048 z" stroke-width="0.2" stroke-linejoin="round" id="path76" xml:space="default" connector-curvature="0" style="fill:#000000;" />
    <path d="M93.3125 155.673 L93.375 158.861 L160.625 158.736 L160.562 155.736 z" stroke-width="0.2" stroke-linejoin="round" id="path78" xml:space="default" connector-curvature="0" style="fill:#000000;" />
    <path d="M93.8125 171.861 L93.8125 174.861 L165.5 174.986 L165.687 173.361 L165.312 171.861 z" stroke-width="0.2" stroke-linejoin="round" id="path80" xml:space="default" connector-curvature="0" style="fill:#000000;" />
    <path d="M77.625 171.798 L84.75 171.673 L88.375 173.673 L88.125 174.673 L77.4375 174.736 z" stroke-width="0.2" stroke-linejoin="round" id="path82" xml:space="default" connector-curvature="0" style="fill:#000000;" />
    <path d="M172.375 174.611 L182.25 174.548 L182.625 173.423 L181.937 172.111 L174.312 172.048 L172.75 173.173 z" stroke-width="0.2" stroke-linejoin="round" id="path84" xml:space="default" connector-curvature="0" style="fill:#000000;" />
    <path d="M77.5625 176.819 L76.5625 177.986 L76.3958 179.569 L183.396 179.652 L183.062 177.569 L182.062 176.902 z" stroke-width="0.2" stroke-linejoin="round" id="path86" xml:space="default" connector-curvature="0" style="fill:#000000;" />
    <path d="M76.0625 181.402 L75.8958 184.736 L183.896 184.819 L183.479 181.319 z" stroke-width="0.2" stroke-linejoin="round" id="path88" xml:space="default" connector-curvature="0" style="fill:#000000;" />
    <path d="M75.6666 191.069 L75.25 192.652 L75.3125 198.486 L76.5 199.277 L85.3541 199.277 L85.75 198.319 L85.9166 195.652 L86.58331 195.652 L87.68752 197.256 L90.75002 199.131 L169.437 199.131 L171.5 197.444 L172.5 196.444 L173.5 196.506 L173.75 198.069 L174.354 199.34 L184.646 199.402 L184.75 191.402 z" stroke-width="0.2" stroke-linejoin="round" id="path90" xml:space="default" connector-curvature="0" style="fill:#000000;" />
    <path d="M94.5 200.819 L95.3125 202.131 L99.6875 204.944 L106.187 207.631 L111.625 209.256 L117.562 210.631 L124 211.194 L138.562 211.069 L145.062 209.819 L151.562 208.131 L157.437 206.006 L161.5 203.944 L164.312 202.381 L164.812 200.756 z" stroke-width="0.2" stroke-linejoin="round" id="path92" xml:space="default" connector-curvature="0" style="fill:#000000;" />
    <path d="M75.6875 200.923 L75.9375 206.548 L77.5 210.298 L87.1875 210.173 L85.875 200.861 z" stroke-width="0.2" stroke-linejoin="round" id="path94" xml:space="default" connector-curvature="0" style="fill:#000000;" />
    <path d="M77.75 214.611 L79.1875 216.298 L88.3125 216.298 L88.1875 213.861 L87.375 211.861 L77.375 211.798" stroke-width="0.2" stroke-linejoin="round" id="path96" xml:space="default" connector-curvature="0" style="fill:#000000;" />
    <path d="M79.25 217.486 L80.0625 220.423 L89.8125 220.423 L88.8125 217.611 z" stroke-width="0.2" stroke-linejoin="round" id="path98" xml:space="default" connector-curvature="0" style="fill:#000000;" />
    <path d="M80.6875 221.798 L82.125 226.798 L85.4375 232.986 L88.75 238.611 L92.125 242.923 L93.5625 243.861 L100.187 243.986 L100.25 241.548 L97.0625 236.236 L95.0625 231.861 L93 227.236 L90.625 221.986 z" stroke-width="0.2" stroke-linejoin="round" id="path100" xml:space="default" connector-curvature="0" style="fill:#000000;" />
    <path d="M94.5625 244.861 L95.625 247.236 L98.5 249.986 L103.437 249.923 L104.25 248.611 L101.687 244.923 z" stroke-width="0.2" stroke-linejoin="round" id="path102" xml:space="default" connector-curvature="0" style="fill:#000000;" />
    <path d="M100.937 251.923 L105.125 255.736 L107.125 255.736 L107.062 253.361 L105.5 250.986 L101.312 250.986 z" stroke-width="0.2" stroke-linejoin="round" id="path104" xml:space="default" connector-curvature="0" style="fill:#000000;" />
    <path d="M174.312 201.486 L173.062 210.298 L183.25 210.173 L184.25 201.048 L174.187 201.111" stroke-width="0.2" stroke-linejoin="round" id="path106" xml:space="default" connector-curvature="0" style="fill:#000000;" />
    <path d="M172.687 211.986 L171.812 216.611 L181.937 216.673 L182.75 212.111 z" stroke-width="0.2" stroke-linejoin="round" id="path108" xml:space="default" connector-curvature="0" style="fill:#000000;" />
    <path d="M170.937 218.048 L170.125 221.236 L180.25 221.111 L180.937 218.111 z" stroke-width="0.2" stroke-linejoin="round" id="path110" xml:space="default" connector-curvature="0" style="fill:#000000;" />
    <path d="M169.812 222.298 L167.125 228.798 L164.375 234.673 L161.875 239.673 L159.312 244.111 L167.75 244.048 L171.312 239.236 L175.875 232.111 L178.687 225.798 L179.5 222.236 z" stroke-width="0.2" stroke-linejoin="round" id="path112" xml:space="default" connector-curvature="0" style="fill:#000000;" />
    <path d="M158.75 245.298 L155.875 250.173 L162.437 250.236 L165.687 245.548 z" stroke-width="0.2" stroke-linejoin="round" id="path114" xml:space="default" connector-curvature="0" style="fill:#000000;" />
    <path d="M154.812 251.673 L151.812 254.923 L153.562 256.423 L155.562 256.173 L159.75 251.736 z" stroke-width="0.2" stroke-linejoin="round" id="path116" xml:space="default" connector-curvature="0" style="fill:#000000;" />
  </g>
</svg>