<?xml version="1.0" encoding="utf-8"?>
<!DOCTYPE svg PUBLIC "-//W3C//DTD SVG 1.1//EN" "http://www.w3.org/Graphics/SVG/1.1/DTD/svg11.dtd">
<svg x="0" y="0" width="48" height="48" overflow="hidden" viewBox="0, 0, 48, 48" preserveAspectRatio="xMidYMid" font-size="0" id="svg" xml:space="default" xmlns="http://www.w3.org/2000/svg" xmlns:xlink="http://www.w3.org/1999/xlink" xmlns:xml="http://www.w3.org/XML/1998/namespace" version="1.1">
  <defs id="def1" xml:space="default">
    <linearGradient x1="0%" y1="0%" x2="100%" y2="0%" gradientUnits="objectBoundingBox" id="linearGradient3057" xml:space="default">
      <stop offset="0%" stop-color="#282828" stop-opacity="1" id="stop3059" xml:space="default" />
      <stop offset="100%" stop-color="#282828" stop-opacity="0" id="stop3061" xml:space="default" />
    </linearGradient>
    <linearGradient x1="0%" y1="0%" x2="100%" y2="0%" gradientUnits="objectBoundingBox" id="linearGradient2834" xml:space="default">
      <stop offset="0%" stop-color="#FFE19C" stop-opacity="1" id="stop2836" xml:space="default" />
      <stop offset="100%" stop-color="#B79E4F" stop-opacity="0" id="stop2838" xml:space="default" />
    </linearGradient>
    <linearGradient x1="0%" y1="0%" x2="100%" y2="0%" gradientUnits="objectBoundingBox" id="linearGradient2780" xml:space="default">
      <stop offset="0%" stop-color="#FFFFFF" stop-opacity="1" id="stop2782" xml:space="default" />
      <stop offset="100%" stop-color="#FFFFFF" stop-opacity="0" id="stop2784" xml:space="default" />
    </linearGradient>
    <linearGradient x1="0%" y1="0%" x2="100%" y2="0%" gradientUnits="objectBoundingBox" id="linearGradient2713" xml:space="default">
      <stop offset="0%" stop-color="#000000" stop-opacity="1" id="stop2715" xml:space="default" />
      <stop offset="100%" stop-color="#FFFFFF" stop-opacity="1" id="stop2717" xml:space="default" />
    </linearGradient>
    <linearGradient x1="0%" y1="0%" x2="100%" y2="0%" gradientUnits="objectBoundingBox" id="linearGradient2701" xml:space="default">
      <stop offset="0%" stop-color="#A47C44" stop-opacity="1" id="stop2703" xml:space="default" />
      <stop offset="75%" stop-color="#BAA363" stop-opacity="1" id="stop2770" xml:space="default" />
      <stop offset="100%" stop-color="#D6C795" stop-opacity="1" id="stop2705" xml:space="default" />
    </linearGradient>
    <linearGradient x1="29.61385" y1="52.60892" x2="44.72355" y2="52.60892" spreadMethod="reflect" gradientUnits="userSpaceOnUse" xlink:href="#linearGradient2701" gradientTransform="matrix(2.151801, 0, 0, 1.77085, -0.0513035, 4.351838)" id="linearGradient2707" xml:space="default" />
    <linearGradient x1="28.07149" y1="40.27223" x2="28.07149" y2="42.64563" spreadMethod="reflect" gradientUnits="userSpaceOnUse" xlink:href="#linearGradient2713" gradientTransform="matrix(1.121224, 0, 0, 0.891883, 0, 4)" id="linearGradient2719" xml:space="default" />
    <linearGradient x1="29.09364" y1="46.35706" x2="29.09364" y2="47.29552" spreadMethod="reflect" gradientUnits="userSpaceOnUse" xlink:href="#linearGradient2713" gradientTransform="matrix(2.21879, 0, 0, 1.825981, -0.0513035, -1.012826)" id="linearGradient2732" xml:space="default" />
    <linearGradient x1="24.26146" y1="44.011" x2="24.60586" y2="45.88784" spreadMethod="reflect" gradientUnits="userSpaceOnUse" xlink:href="#linearGradient2713" gradientTransform="matrix(2.21879, 0, 0, 1.825981, -0.0513035, -1.012826)" id="linearGradient2736" xml:space="default" />
    <linearGradient x1="17.68186" y1="60.43385" x2="17.42541" y2="62.77998" spreadMethod="reflect" gradientUnits="userSpaceOnUse" xlink:href="#linearGradient2713" gradientTransform="scale(1.102326, 0.907173)" id="linearGradient2740" xml:space="default" />
    <radialGradient cx="20.36058" cy="22.5464" r="15.15659" fx="20.36058" fy="22.5464" gradientUnits="userSpaceOnUse" xlink:href="#linearGradient2780" gradientTransform="matrix(0.433337, 0, 0, 1.434961, 6.40989, -0.113137)" id="radialGradient2788" xml:space="default" />
    <radialGradient cx="20.36058" cy="22.5464" r="15.15659" fx="20.36058" fy="22.5464" gradientUnits="userSpaceOnUse" xlink:href="#linearGradient2780" gradientTransform="matrix(0.500069, 0, 0, 1.675192, 5.00297, -5.108149)" id="radialGradient2792" xml:space="default" />
    <radialGradient cx="20.36058" cy="22.5464" r="15.15659" fx="20.36058" fy="22.5464" gradientUnits="userSpaceOnUse" xlink:href="#linearGradient2780" gradientTransform="matrix(0.621397, 0, 0, 1.882058, 2.388831, -9.409409)" id="radialGradient2796" xml:space="default" />
    <radialGradient cx="20.36058" cy="22.5464" r="15.15659" fx="20.36058" fy="22.5464" gradientUnits="userSpaceOnUse" xlink:href="#linearGradient2780" gradientTransform="matrix(0.433337, 0, 0, 1.434961, 6.40989, -0.113137)" id="radialGradient2811" xml:space="default" />
    <radialGradient cx="20.36058" cy="22.5464" r="15.15659" fx="20.36058" fy="22.5464" gradientUnits="userSpaceOnUse" xlink:href="#linearGradient2780" gradientTransform="matrix(0.500069, 0, 0, 1.675192, 5.00297, -5.108149)" id="radialGradient2813" xml:space="default" />
    <radialGradient cx="20.36058" cy="22.5464" r="15.15659" fx="20.36058" fy="22.5464" gradientUnits="userSpaceOnUse" xlink:href="#linearGradient2780" gradientTransform="matrix(0.621397, 0, 0, 1.882058, 2.388831, -9.409409)" id="radialGradient2815" xml:space="default" />
    <radialGradient cx="20.36058" cy="22.5464" r="15.15659" fx="20.36058" fy="22.5464" gradientUnits="userSpaceOnUse" xlink:href="#linearGradient2780" gradientTransform="matrix(0.433337, 0, 0, 1.434961, 6.40989, -0.113137)" id="radialGradient2817" xml:space="default" />
    <radialGradient cx="20.36058" cy="22.5464" r="15.15659" fx="20.36058" fy="22.5464" gradientUnits="userSpaceOnUse" xlink:href="#linearGradient2780" gradientTransform="matrix(0.500069, 0, 0, 1.675192, 5.00297, -5.108149)" id="radialGradient2819" xml:space="default" />
    <radialGradient cx="20.36058" cy="22.5464" r="15.15659" fx="20.36058" fy="22.5464" gradientUnits="userSpaceOnUse" xlink:href="#linearGradient2780" gradientTransform="matrix(0.621397, 0, 0, 1.882058, 2.388831, -9.409409)" id="radialGradient2821" xml:space="default" />
    <radialGradient cx="17.19187" cy="14.63901" r="3.56494" fx="17.19187" fy="14.63901" gradientUnits="userSpaceOnUse" xlink:href="#linearGradient2834" gradientTransform="scale(1.896245, 0.527358)" id="radialGradient2840" xml:space="default" />
    <radialGradient cx="21.59511" cy="8.981355" r="6.067888" fx="21.59511" fy="8.981355" gradientUnits="userSpaceOnUse" xlink:href="#linearGradient2834" gradientTransform="matrix(2.366562, 0, 0, 1.726511, -0.404355, -0.012826)" id="radialGradient2869" xml:space="default" />
    <radialGradient cx="21.59511" cy="8.981355" r="6.067888" fx="21.59511" fy="8.981355" gradientUnits="userSpaceOnUse" xlink:href="#linearGradient2834" gradientTransform="matrix(-2.366562, 0, 0, 1.726511, 129.1226, -0.112925)" id="radialGradient2873" xml:space="default" />
    <linearGradient x1="33.18405" y1="24.38458" x2="33.18405" y2="-13.17009" gradientUnits="userSpaceOnUse" xlink:href="#linearGradient2780" gradientTransform="matrix(2.161083, 0, 0, 1.804543, -0.0513035, 2.267068)" id="linearGradient2895" xml:space="default" />
    <radialGradient cx="27.27032" cy="16.27809" r="13.6387" fx="27.27032" fy="16.27809" gradientUnits="userSpaceOnUse" xlink:href="#linearGradient2780" gradientTransform="scale(0.973329, 1.027402)" id="radialGradient2929" xml:space="default" />
    <linearGradient x1="33.18405" y1="24.38458" x2="33.18405" y2="-13.17009" gradientUnits="userSpaceOnUse" xlink:href="#linearGradient2780" gradientTransform="matrix(2.210222, 0, 0, 1.964283, -1.515862, -2.171324)" id="linearGradient2935" xml:space="default" />
    <linearGradient x1="38.78185" y1="9.574553" x2="38.78185" y2="7.586317" gradientUnits="userSpaceOnUse" xlink:href="#linearGradient2780" gradientTransform="matrix(1.632005, 0, 0, 2.482509, -0.0513035, -0.012826)" id="linearGradient2943" xml:space="default" />
    <linearGradient x1="38.36289" y1="11.17015" x2="39.72362" y2="6.091837" gradientUnits="userSpaceOnUse" xlink:href="#linearGradient2780" gradientTransform="matrix(1.63752, 0, 0, 2.47415, -0.0513035, -0.012826)" id="linearGradient2951" xml:space="default" />
    <radialGradient cx="21.59511" cy="8.981355" r="6.067888" fx="21.59511" fy="8.981355" gradientUnits="userSpaceOnUse" xlink:href="#linearGradient2834" gradientTransform="matrix(3.085042, 0, 0, 2.052895, -15.9848, -3.14928)" id="radialGradient2955" xml:space="default" />
    <radialGradient cx="21.59511" cy="8.981355" r="6.067888" fx="21.59511" fy="8.981355" gradientUnits="userSpaceOnUse" xlink:href="#linearGradient2834" gradientTransform="matrix(-2.846279, 0, 0, 2.087943, 139.5254, -3.586178)" id="radialGradient2959" xml:space="default" />
    <radialGradient cx="8.017838" cy="231.9828" r="7.483315" fx="8.017838" fy="231.9828" gradientUnits="userSpaceOnUse" xlink:href="#linearGradient3057" gradientTransform="scale(3.741657, 0.267261)" id="radialGradient3063" xml:space="default" />
    <radialGradient cx="8.017838" cy="231.9828" r="7.483315" fx="8.017838" fy="231.9828" gradientUnits="userSpaceOnUse" xlink:href="#linearGradient3057" gradientTransform="scale(3.741657, 0.267261)" id="radialGradient3069" xml:space="default" />
    <radialGradient cx="8.017838" cy="231.9828" r="7.483315" fx="8.017838" fy="231.9828" gradientUnits="userSpaceOnUse" xlink:href="#linearGradient3057" gradientTransform="scale(3.741657, 0.267261)" id="radialGradient3071" xml:space="default" />
    <linearGradient x1="26.97445" y1="68.68003" x2="26.97445" y2="44.9812" gradientUnits="userSpaceOnUse" xlink:href="#linearGradient2780" gradientTransform="matrix(2.136116, 0, 0, 1.825981, 2.348697, -1.012826)" id="linearGradient3080" xml:space="default" />
    <linearGradient x1="35.99571" y1="1.624638" x2="35.99571" y2="11.71063" gradientUnits="userSpaceOnUse" xlink:href="#linearGradient2780" gradientTransform="matrix(1.632005, 0, 0, 2.436073, -0.0513035, 2.009678)" id="linearGradient3084" xml:space="default" />
    <linearGradient x1="17.68186" y1="60.43385" x2="17.42541" y2="62.77998" spreadMethod="reflect" gradientUnits="userSpaceOnUse" xlink:href="#linearGradient2713" gradientTransform="matrix(2.21879, 0, 0, 1.825981, -0.0513035, -1.012826)" id="linearGradient3086" xml:space="default" />
  </defs>
  <g transform="matrix(0.4258405, 0, 0, 0.3785249, -3.406724, -0.7570497)" id="layer2" xml:space="default">
    <path d="M64.35912 2 C44.28723 2 28.12826 18.15897 28.12826 38.23087 L28.12826 78.48738 L38.19239 78.48738 L38.19239 38.23087 C38.19239 23.73449 49.86275 12.06413 64.35913 12.06413 C78.8555 12.06413 90.52586 23.73449 90.52586 38.23087 L90.52586 78.48739 L100.59 78.48739 L100.59 38.23087 C100.59 18.15897 84.43102 2 64.35912 2 z" fill-rule="evenOdd" stroke-width="0.625" stroke-linecap="round" stroke-linejoin="round" id="rect2723" xml:space="default" connector-curvature="0" style="fill:#282828;" />
    <path d="M64.35912 4.629254 C45.40233 4.629254 30.14108 20.93581 30.14108 39.53802 L30.14108 77.06637 C30.14108 91.15557 38.91747 103.1161 51.40156 108.1137 C42.45665 104.0408 36.17956 95.31382 36.17956 84.96707 L36.17956 37.56285 C36.17956 23.33763 47.84993 10.94174 62.3463 10.94174 L66.37195 10.94174 C80.86832 10.94174 92.53868 23.33763 92.53868 37.56285 L92.53868 84.96707 C92.53868 95.31382 86.2616 104.0408 77.31668 108.1137 C89.80077 103.1161 98.57716 91.15557 98.57716 77.06637 L98.57716 39.53802 C98.57716 20.93581 83.31591 4.629253 64.35912 4.629253 z" fill-rule="evenOdd" stroke-width="0.625" stroke-linecap="round" stroke-linejoin="round" opacity="0.65" id="path3082" xml:space="default" connector-curvature="0" style="fill:url(#linearGradient3084);" />
    <path d="M64.35912 2.853941 C44.8491 2.853941 29.14247 18.45497 29.14247 37.83384 L29.14247 76.92901 C29.14247 91.60645 38.17499 104.0663 51.0234 109.2726 C41.81745 105.0296 35.35717 95.9383 35.35717 85.15958 L35.35717 35.7762 C35.35717 20.95707 47.36813 6.693924 62.28756 6.693924 L66.43069 6.693924 C81.35013 6.693924 93.36108 20.95707 93.36108 35.7762 L93.36108 85.15958 C93.36108 95.93831 86.9008 105.0296 77.69484 109.2726 C90.54326 104.0663 99.57578 91.60645 99.57578 76.92901 L99.57578 37.83384 C99.57578 18.45498 83.86916 2.853943 64.35913 2.853943 z" fill-rule="evenOdd" stroke-width="0.625" stroke-linecap="round" stroke-linejoin="round" opacity="0.5" id="path2931" xml:space="default" connector-curvature="0" style="fill:url(#linearGradient2951);" />
    <path d="M49.47064 12.0032 C44.03225 15.40845 40.97192 21.21333 41.57113 23.14835 C42.21677 25.2333 46.03779 15.91478 56.85431 13.02894 C65.19488 10.80368 56.85382 7.380232 49.47064 12.0032 z" fill-rule="evenOdd" stroke-width="1px" opacity="0.8" id="path2861" xml:space="default" connector-curvature="0" style="fill:url(#radialGradient2869);" />
    <path d="M79.24761 11.9031 C84.686 15.30835 87.74633 21.11323 87.14713 23.04825 C86.50148 25.1332 82.68047 15.81468 71.86395 12.92884 C63.52338 10.70358 71.86444 7.280132 79.24761 11.9031 z" fill-rule="evenOdd" stroke-width="1px" opacity="0.8" id="path2871" xml:space="default" connector-curvature="0" style="fill:url(#radialGradient2873);" />
    <path d="M64.35912 6.279404 C45.40233 6.279404 30.14108 19.27407 30.14108 38.23087 L30.14108 76.47456 C30.14108 90.83232 38.91747 103.0208 51.40156 108.1137 C42.45665 103.9632 36.17956 95.06984 36.17956 84.52586 L36.17956 36.21804 C36.17956 21.72167 47.84993 10.03575 62.3463 10.03575 L66.37195 10.03575 C80.86832 10.03575 92.53868 21.72167 92.53868 36.21804 L92.53868 84.52586 C92.53868 95.06984 86.2616 103.9632 77.31668 108.1137 C89.80077 103.0208 98.57716 90.83232 98.57716 76.47456 L98.57716 38.23087 C98.57716 19.27407 83.31591 6.279402 64.35912 6.279402 z" fill-rule="evenOdd" stroke-width="0.625" stroke-linecap="round" stroke-linejoin="round" opacity="0.5" id="rect2875" xml:space="default" connector-curvature="0" style="fill:url(#linearGradient2943);" />
    <path d="M64.35912 4.038935 C37.59741 4.038935 31.42163 27.35419 31.42163 37.89901 C31.42163 69.53349 33.48022 69.53349 33.48022 37.89901 C33.48022 14.70039 49.94286 5.544205 64.35912 5.544205 C78.77538 5.544205 95.23802 15.64679 95.23802 37.89901 C95.23802 69.53349 97.29662 69.53349 97.29662 37.89901 C97.29662 27.35419 91.12083 4.038933 64.35912 4.038933 z" fill-rule="evenOdd" stroke-width="0.625" stroke-linecap="round" stroke-linejoin="round" opacity="0.8" id="path2933" xml:space="default" connector-curvature="0" style="fill:url(#linearGradient2935);" />
    <path d="M64.35912 7.091337 C38.19239 7.091337 32.15391 29.39147 32.15391 39.07876 C32.15391 68.14063 34.16673 68.14063 34.16673 39.07876 C34.16673 17.76673 50.26337 8.474197 64.35912 8.474197 C78.45487 8.474197 94.55151 18.63616 94.55151 39.07876 C94.55151 68.14063 96.56434 68.14063 96.56434 39.07876 C96.56434 29.39147 90.52586 7.091337 64.35912 7.091337 z" fill-rule="evenOdd" stroke-width="0.625" stroke-linecap="round" stroke-linejoin="round" opacity="0.6" id="path2885" xml:space="default" connector-curvature="0" style="fill:url(#linearGradient2895);" />
    <path d="M36.97962 16.48755 C34.10437 21.7358 40.00668 18.41868 41.37759 16.76137 C45.2315 12.10233 51.74525 8.725083 57.4627 7.62284 C62.25743 6.698483 62.98848 4.847127 59.04023 4.540655 C51.16814 3.929607 39.73603 11.45623 36.97962 16.48755 z" fill-rule="evenOdd" stroke-width="1px" opacity="0.8" id="path2897" xml:space="default" connector-curvature="0" style="fill:#FFFFFF;" />
    <path d="M32.62343 25.15564 C32.92821 27.72041 37.88692 19.35784 41.79115 15.43191 C46.55949 10.63707 53.78742 7.28111 57.26461 6.837667 C63.46303 6.04719 60.52098 3.009662 56.63594 3.777092 C42.516 6.566261 31.84625 18.61557 32.62343 25.15564 z" fill-rule="evenOdd" stroke-width="1px" opacity="0.6" id="path2901" xml:space="default" connector-curvature="0" style="fill:#FFFFFF;" />
    <path d="M91.57993 16.4516 C94.47449 21.68922 88.56001 18.39386 87.183 16.7416 C83.31197 12.09679 76.78583 8.743542 71.06436 7.662356 C66.26626 6.755657 64.91592 4.910219 68.86301 4.589214 C76.7328 3.949188 88.80502 11.43046 91.57993 16.4516 z" fill-rule="evenOdd" stroke-width="1px" opacity="0.8" id="path2909" xml:space="default" connector-curvature="0" style="fill:#FFFFFF;" />
    <path d="M95.79832 24.92469 C95.50299 27.49056 90.51352 19.1463 86.59486 15.23478 C81.8089 10.45753 74.56867 7.128199 71.08987 6.69756 C64.88858 5.929908 67.79742 3.002405 71.70663 3.635335 C85.84827 5.936772 96.55141 18.38181 95.79832 24.92469 z" fill-rule="evenOdd" stroke-width="1px" opacity="0.6" id="path2911" xml:space="default" connector-curvature="0" style="fill:#FFFFFF;" />
    <path d="M49.03209 11.13828 C41.94262 15.18726 37.95319 22.08951 38.73431 24.39032 C39.57597 26.86942 44.55704 15.7893 58.65742 12.35792 C69.53015 9.711998 58.65678 5.641373 49.03209 11.13828 z" fill-rule="evenOdd" stroke-width="1px" opacity="0.4" id="path2953" xml:space="default" connector-curvature="0" style="fill:url(#radialGradient2955);" />
    <path d="M79.54042 10.9453 C86.08121 15.06341 89.76189 22.0835 89.04121 24.42359 C88.26469 26.94501 83.66913 15.67573 70.66003 12.18577 C60.62878 9.494671 70.66063 5.354552 79.54041 10.9453 z" fill-rule="evenOdd" stroke-width="1px" opacity="0.4" id="path2957" xml:space="default" connector-curvature="0" style="fill:url(#radialGradient2959);" />
    <path d="M58 62 A28 2 0 1 1 2 62 A28 2 0 1 1 58 62 z" fill-rule="evenOdd" stroke-width="0.625" stroke-linecap="round" stroke-linejoin="round" opacity="0.4" transform="matrix(2.012826, 0, 0, 2.012826, 3.974348, -0.012826)" id="path3055" xml:space="default" connector-curvature="0" style="fill:url(#radialGradient3063);" />
    <path d="M58 62 A28 2 0 1 1 2 62 A28 2 0 1 1 58 62 z" fill-rule="evenOdd" stroke-width="0.625" stroke-linecap="round" stroke-linejoin="round" opacity="0.4" transform="matrix(2.012826, 0, 0, 2.516032, 3.974348, -34.23087)" id="path3065" xml:space="default" connector-curvature="0" style="fill:url(#radialGradient3071);" />
    <path d="M58 62 A28 2 0 1 1 2 62 A28 2 0 1 1 58 62 z" fill-rule="evenOdd" stroke-width="0.625" stroke-linecap="round" stroke-linejoin="round" opacity="0.4" transform="matrix(2.012826, 0, 0, 2.012826, 3.974348, -2.025652)" id="path3067" xml:space="default" connector-curvature="0" style="fill:url(#radialGradient3069);" />
  </g>
  <g transform="matrix(0.4258405, 0, 0, 0.3785249, -3.406724, -0.7570497)" id="layer1" xml:space="default">
    <rect x="24.10261" y="57.35913" width="80.51304" height="66.25911" rx="0.5" ry="0.5" fill-rule="evenOdd" stroke-width="0.625" stroke-linecap="round" stroke-linejoin="round" id="rect1941" xml:space="default" style="fill:url(#linearGradient2707);" />
    <rect x="24.10261" y="57.35913" width="80.51304" height="66.25911" rx="0.5" ry="0.5" fill-rule="evenOdd" stroke-width="0.625" stroke-linecap="round" stroke-linejoin="round" opacity="0.02999998" id="rect2709" xml:space="default" style="fill:url(#linearGradient2732);" />
    <rect x="24.10261" y="57.35913" width="80.51304" height="66.25911" rx="0.5" ry="0.5" fill-rule="evenOdd" stroke-width="0.625" stroke-linecap="round" stroke-linejoin="round" opacity="0.02999998" id="rect2734" xml:space="default" style="fill:url(#linearGradient2736);" />
    <rect x="24.10261" y="57.35913" width="80.51304" height="66.25911" rx="0.5" ry="0.5" fill-rule="evenOdd" stroke-width="0.625" stroke-linecap="round" stroke-linejoin="round" opacity="0.02999998" id="rect2738" xml:space="default" style="fill:url(#linearGradient3086);" />
    <path d="M26.61864 57.35913 C28.42873 59.48078 44.76397 61.14536 65.27405 61.14536 C85.50262 61.14536 101.5673 59.49821 103.7579 57.41829 C103.7271 57.41509 103.7324 57.35913 103.7007 57.35913 z" fill-rule="evenOdd" stroke-width="0.625" stroke-linecap="round" stroke-linejoin="round" opacity="0.5" id="path2727" xml:space="default" connector-curvature="0" style="fill:#FFFFFF;" />
    <g transform="matrix(1.719497, 0, 0, 1.981605, 4.420926, 1.487591)" id="g2798" xml:space="default">
      <path d="M13.97125 30.76686 C13.5317 33.39639 13.04037 50.07573 14.66769 53.64686 C16.25955 57.14019 16.06057 36.98019 19.94074 33.80686 C23.8619 30.6 14.38579 28.28686 13.97125 30.76686 z" fill-rule="evenOdd" stroke-width="1px" opacity="0.4027778" id="path2778" xml:space="default" connector-curvature="0" style="fill:url(#radialGradient2817);" />
      <path d="M13.72872 30.94157 C13.22149 34.01131 12.6545 53.48299 14.53241 57.65198 C16.36941 61.73014 16.13978 38.19509 20.61747 34.4905 C25.14247 30.74677 14.20711 28.04638 13.72872 30.94157 z" fill-rule="evenOdd" stroke-width="1px" opacity="0.3" id="path2790" xml:space="default" connector-curvature="0" style="fill:url(#radialGradient2819);" />
      <path d="M13.23167 31.09201 C12.60137 34.54082 11.89681 56.41702 14.23035 61.10083 C16.51305 65.68259 16.22771 39.24126 21.7918 35.07919 C27.41468 30.87316 13.82612 27.8393 13.23167 31.09201 z" fill-rule="evenOdd" stroke-width="1px" opacity="0.2" id="path2794" xml:space="default" connector-curvature="0" style="fill:url(#radialGradient2821);" />
    </g>
    <g transform="matrix(-1.719497, 0, 0, 1.981605, 124.2973, 1.487605)" id="g2803" xml:space="default">
      <path d="M13.97125 30.76686 C13.5317 33.39639 13.04037 50.07573 14.66769 53.64686 C16.25955 57.14019 16.06057 36.98019 19.94074 33.80686 C23.8619 30.6 14.38579 28.28686 13.97125 30.76686 z" fill-rule="evenOdd" stroke-width="1px" opacity="0.4027778" id="path2805" xml:space="default" connector-curvature="0" style="fill:url(#radialGradient2811);" />
      <path d="M13.72872 30.94157 C13.22149 34.01131 12.6545 53.48299 14.53241 57.65198 C16.36941 61.73014 16.13978 38.19509 20.61747 34.4905 C25.14247 30.74677 14.20711 28.04638 13.72872 30.94157 z" fill-rule="evenOdd" stroke-width="1px" opacity="0.3" id="path2807" xml:space="default" connector-curvature="0" style="fill:url(#radialGradient2813);" />
      <path d="M13.23167 31.09201 C12.60137 34.54082 11.89681 56.41702 14.23035 61.10083 C16.51305 65.68259 16.22771 39.24126 21.7918 35.07919 C27.41468 30.87316 13.82612 27.8393 13.23167 31.09201 z" fill-rule="evenOdd" stroke-width="1px" opacity="0.2" id="path2809" xml:space="default" connector-curvature="0" style="fill:url(#radialGradient2815);" />
    </g>
    <path d="M103.1156 114.7247 L103.1156 122.6118 C103.1156 123.1694 102.6835 123.6182 102.1467 123.6182 L26.57152 123.6182 C26.03474 123.6182 25.60261 123.1694 25.60261 122.6118 L25.60261 94.59641 C25.60261 124.1129 103.1156 73.71741 103.1156 114.7247 z" fill-rule="evenOdd" stroke-width="0.625" stroke-linecap="round" stroke-linejoin="round" opacity="0.2499999" id="rect3077" xml:space="default" connector-curvature="0" style="fill:url(#linearGradient3080);" />
    <path d="M25.64654 123.6182 C27.45663 121.4966 43.79186 119.832 64.30194 119.832 C84.53052 119.832 100.5952 121.4791 102.7858 123.5591 C102.755 123.5621 102.7603 123.6183 102.7286 123.6183 z" fill-rule="evenOdd" stroke-width="0.625" stroke-linecap="round" stroke-linejoin="round" opacity="0.5" id="path2768" xml:space="default" connector-curvature="0" style="fill:#000000;" />
  </g>
</svg>