<?xml version="1.0" encoding="utf-8"?>
<!DOCTYPE svg PUBLIC "-//W3C//DTD SVG 1.1//EN" "http://www.w3.org/Graphics/SVG/1.1/DTD/svg11.dtd">
<svg xmlns="http://www.w3.org/2000/svg" xmlns:xlink="http://www.w3.org/1999/xlink" version="1.1" baseProfile="full" width="259.2" height="259.2" viewBox="0 0 259.20 259.20" enable-background="new 0 0 259.20 259.20" xml:space="preserve">
	<g>
		<linearGradient id="SVGID_Fill1_" gradientUnits="objectBoundingBox" x1="0.368936" y1="-0.0843766" x2="1.56675" y2="-0.0843766" gradientTransform="rotate(67.761124 0.368936 -0.084377)">
			<stop offset="0.00930233" stop-color="#847BF5" stop-opacity="1"/>
			<stop offset="1" stop-color="#94F5C9" stop-opacity="1"/>
		</linearGradient>
		<path fill="url(#SVGID_Fill1_)" stroke-width="0.2" stroke-linejoin="round" d="M 14.6874,119.58L 165.479,74.6767L 191.25,158.359L 40.4582,203.262L 14.6874,119.58 Z "/>
		<linearGradient id="SVGID_Fill2_" gradientUnits="objectBoundingBox" x1="0.369125" y1="-0.920773" x2="2.78757" y2="-0.920773" gradientTransform="rotate(52.656845 0.369125 -0.920773)">
			<stop offset="0.00465116" stop-color="#77E75D" stop-opacity="1"/>
			<stop offset="1" stop-color="#0A7007" stop-opacity="1"/>
		</linearGradient>
		<path fill="url(#SVGID_Fill2_)" stroke-width="0.2" stroke-linejoin="round" d="M 40.2298,158.08L 54.8403,163.684L 76.768,176.612L 104.561,174.218L 149.241,160.913L 182.695,145.521L 181.594,159.877L 86.4719,193.18L 44.0654,204.902L 30.5469,165.488L 40.2298,158.08 Z "/>
		<linearGradient id="SVGID_Fill3_" gradientUnits="objectBoundingBox" x1="0.359575" y1="-0.0551204" x2="1.60108" y2="-0.0551204" gradientTransform="rotate(71.317062 0.359575 -0.055120)">
			<stop offset="0.00930233" stop-color="#3E4DAB" stop-opacity="1"/>
			<stop offset="1" stop-color="#7081BD" stop-opacity="1"/>
		</linearGradient>
		<path fill="url(#SVGID_Fill3_)" stroke-width="0.2" stroke-linejoin="round" d="M 38.5733,137.758L 41.3101,119.749L 33.4556,116.658L 17.3492,119.644L 18.1508,135.695L 38.5733,137.758 Z "/>
		<linearGradient id="SVGID_Stroke1_" gradientUnits="objectBoundingBox" x1="0.627855" y1="1.0518" x2="1.76069" y2="1.0518" gradientTransform="rotate(248.407516 0.627855 1.051800)">
			<stop offset="0" stop-color="#BBD9C2" stop-opacity="1"/>
			<stop offset="1" stop-color="#E0D0D0" stop-opacity="1"/>
		</linearGradient>
		<path fill="none" stroke-width="7" stroke-linejoin="round" stroke="url(#SVGID_Stroke1_)" d="M 12.5344,117.458L 167.651,71.2673L 195.222,160.797L 40.1055,206.987L 12.5344,117.458 Z "/>
		<linearGradient id="SVGID_Fill4_" gradientUnits="objectBoundingBox" x1="0.082995" y1="0.310483" x2="0.999094" y2="0.310483" gradientTransform="rotate(14.965743 0.082995 0.310483)">
			<stop offset="0.0139535" stop-color="#490202" stop-opacity="1"/>
			<stop offset="0.367442" stop-color="#F80707" stop-opacity="1"/>
			<stop offset="1" stop-color="#310C05" stop-opacity="1"/>
		</linearGradient>
		<path fill="url(#SVGID_Fill4_)" stroke-width="0.2" stroke-linejoin="round" d="M 91.1275,35.0182L 237.516,85.1908L 208.381,167.389L 61.9922,117.216L 91.1275,35.0182 Z "/>
		<linearGradient id="SVGID_Fill5_" gradientUnits="objectBoundingBox" x1="0.166578" y1="0.37752" x2="1.00852" y2="0.37752" gradientTransform="rotate(24.390587 0.166578 0.377520)">
			<stop offset="0.0186047" stop-color="#8A78A1" stop-opacity="0.101961"/>
			<stop offset="0.372093" stop-color="#E0E3EA" stop-opacity="0.815686"/>
			<stop offset="1" stop-color="#050731" stop-opacity="0.101961"/>
		</linearGradient>
		<path fill="url(#SVGID_Fill5_)" stroke-width="0.2" stroke-linejoin="round" d="M 129.823,46.9047L 104.9,76.4284L 87.8335,121.946L 107.266,136.861L 145.42,147.644L 164.634,107.909L 166.584,57.6696L 129.823,46.9047 Z "/>
		<linearGradient id="SVGID_Fill6_" gradientUnits="objectBoundingBox" x1="0.779302" y1="0.0739423" x2="1.67236" y2="0.0739423" gradientTransform="rotate(106.763794 0.779302 0.073942)">
			<stop offset="0.0186047" stop-color="#133ED9" stop-opacity="0.611765"/>
			<stop offset="0.372093" stop-color="#5A6FA1" stop-opacity="0.384314"/>
			<stop offset="1" stop-color="#050731" stop-opacity="0.101961"/>
		</linearGradient>
		<path fill="url(#SVGID_Fill6_)" stroke-width="0.2" stroke-linejoin="round" d="M 136.95,45.2194L 106.809,89.4655L 151.918,110.888L 164.005,103.106L 164.524,55.5873L 136.95,45.2194 Z "/>
		<linearGradient id="SVGID_Stroke2_" gradientUnits="objectBoundingBox" x1="0.356072" y1="1.02576" x2="1.44628" y2="1.02576" gradientTransform="rotate(-66.069565 0.356072 1.025761)">
			<stop offset="0" stop-color="#BBD9C2" stop-opacity="1"/>
			<stop offset="1" stop-color="#E0D0D0" stop-opacity="1"/>
		</linearGradient>
		<path fill="none" stroke-width="7" stroke-linejoin="round" stroke="url(#SVGID_Stroke2_)" d="M 88.8249,30.3305L 241.868,82.7839L 210.558,171.116L 57.5152,118.663L 88.8249,30.3305 Z "/>
		<linearGradient id="SVGID_Stroke3_" gradientUnits="objectBoundingBox" x1="0.822778" y1="0.92528" x2="1.89058" y2="0.92528" gradientTransform="rotate(229.371521 0.822778 0.925280)">
			<stop offset="0.00465116" stop-color="#380101" stop-opacity="1"/>
			<stop offset="0.311628" stop-color="#150202" stop-opacity="1"/>
			<stop offset="0.599998" stop-color="#150101" stop-opacity="1"/>
			<stop offset="1" stop-color="#621616" stop-opacity="1"/>
		</linearGradient>
		<linearGradient id="SVGID_Fill7_" gradientUnits="objectBoundingBox" x1="0.822778" y1="0.92528" x2="1.89058" y2="0.92528" gradientTransform="rotate(229.371521 0.822778 0.925280)">
			<stop offset="0.00465116" stop-color="#723711" stop-opacity="1"/>
			<stop offset="0.172093" stop-color="#783A11" stop-opacity="1"/>
			<stop offset="0.274419" stop-color="#C75F1C" stop-opacity="1"/>
			<stop offset="0.432558" stop-color="#DC691F" stop-opacity="1"/>
			<stop offset="0.516279" stop-color="#9C6A60" stop-opacity="1"/>
			<stop offset="0.972093" stop-color="#936B6B" stop-opacity="1"/>
		</linearGradient>
		<path fill="url(#SVGID_Fill7_)" stroke-width="0.2" stroke-linecap="round" stroke-linejoin="round" stroke="url(#SVGID_Stroke3_)" d="M 45.8616,157.725L 167.911,60.7192L 222.5,127.348L 100.45,224.354L 45.8616,157.725 Z "/>
		<linearGradient id="SVGID_Stroke4_" gradientUnits="objectBoundingBox" x1="0.160941" y1="0.636255" x2="1.34268" y2="0.636255" gradientTransform="rotate(-26.498985 0.160941 0.636255)">
			<stop offset="0.00465116" stop-color="#380101" stop-opacity="1"/>
			<stop offset="0.311628" stop-color="#150202" stop-opacity="1"/>
			<stop offset="0.599998" stop-color="#150101" stop-opacity="1"/>
			<stop offset="1" stop-color="#621616" stop-opacity="1"/>
		</linearGradient>
		<path fill="none" stroke-width="25" stroke-linecap="round" stroke-linejoin="round" stroke="url(#SVGID_Stroke4_)" d="M 57.5545,159.544C 64.4441,167.953 70.7733,177.795 79.5376,184.3C 84.7292,188.153 83.7308,197.436 88.9224,201.289C 90.8503,202.72 98.5263,208.895 100.834,209.602C 102.626,210.151 107.451,217.678 107.846,208.475C 107.87,207.897 114.752,205.796 115.335,205.855C 115.919,205.915 109.605,198.681 110.164,198.852C 110.79,199.044 121.523,189.328 122.179,189.303C 123.009,189.273 117.381,204.114 118.081,203.673C 124.812,199.435 127.689,194.184 129.888,193.178C 135.246,190.725 130.635,188.556 135.993,186.102C 136.589,185.83 137.262,185.709 137.918,185.684C 138.748,185.653 139.582,186.115 140.394,185.939C 140.968,185.814 141.309,185.211 141.767,184.848C 142.453,184.302 143.14,183.756 143.826,183.211C 146.115,181.392 148.403,179.573 150.692,177.754C 157.786,172.116 167.21,162.403 174.304,156.764C 186.435,147.122 198.687,142.941 207.122,131.791"/>
		<linearGradient id="SVGID_Stroke5_" gradientUnits="objectBoundingBox" x1="0.771593" y1="0.855035" x2="1.6656" y2="0.855035" gradientTransform="rotate(229.594391 0.771593 0.855035)">
			<stop offset="0" stop-color="#BBD9C2" stop-opacity="1"/>
			<stop offset="1" stop-color="#E0D0D0" stop-opacity="1"/>
		</linearGradient>
		<path fill="none" stroke-width="7" stroke-linejoin="round" stroke="url(#SVGID_Stroke5_)" d="M 40.9101,157.215L 167.232,56.8139L 226.784,129.5L 100.461,229.901L 40.9101,157.215 Z "/>
		<linearGradient id="SVGID_Fill8_" gradientUnits="objectBoundingBox" x1="0.889624" y1="1.08762" x2="2.31153" y2="1.08762" gradientTransform="rotate(225.130127 0.889624 1.087620)">
			<stop offset="0.367442" stop-color="#292C31" stop-opacity="0"/>
			<stop offset="0.488372" stop-color="#292C31" stop-opacity="0.584314"/>
			<stop offset="0.623256" stop-color="#6B6C7A" stop-opacity="0"/>
		</linearGradient>
		<path fill="url(#SVGID_Fill8_)" stroke-width="0.2" stroke-linejoin="round" d="M 70.0862,155.209L 78.0508,140.544L 95.9709,127.135L 103.555,128.608L 119.677,118.712L 135.786,102.574L 139.894,93.0585L 156.222,83.414L 167.964,74.9155L 175.337,74.0563L 177.674,82.6166L 172.221,89.4511L 160.277,99.7778L 146.772,103.01L 130.865,117.321L 126.277,118.466L 118.359,130.594L 98.9492,146.854L 87.6982,142.461L 79.8815,153.675L 76.6442,159.582L 73.5507,159.957L 70.0862,155.209 Z "/>
		<radialGradient id="SVGID_Fill9_" cx="153.484" cy="91.905" r="23.7712" gradientUnits="userSpaceOnUse" gradientTransform="rotate(-45.388691 153.484497 91.904953)">
			<stop offset="0.00465116" stop-color="#C0BABA" stop-opacity="0.360784"/>
			<stop offset="0.972093" stop-color="#936B6B" stop-opacity="0.258824"/>
		</radialGradient>
		<path fill="url(#SVGID_Fill9_)" stroke-width="0.2" stroke-linejoin="round" d="M 170.519,85.5048L 170.847,76.4447L 150.706,81.9946L 148.989,87.6628L 149.33,97.4858L 140.145,111.959L 153.415,102.916L 169.805,91.7458L 170.519,85.5048 Z "/>
		<radialGradient id="SVGID_Fill10_" cx="118.392" cy="134.527" r="26.349" gradientUnits="userSpaceOnUse" gradientTransform="rotate(-36.912407 118.392334 134.526779)">
			<stop offset="0.00465116" stop-color="#F80F0F" stop-opacity="1"/>
			<stop offset="0.972093" stop-color="#936B6B" stop-opacity="1"/>
		</radialGradient>
		<path fill="url(#SVGID_Fill10_)" stroke-width="0.2" stroke-linecap="round" stroke-linejoin="round" d="M 107.089,120.73C 118.085,111.99 132.058,111.082 138.302,118.703C 144.545,126.322 140.692,139.584 129.696,148.324C 118.7,157.063 104.726,157.971 98.4829,150.351C 92.2396,142.73 96.0925,129.469 107.089,120.73 Z "/>
	</g>
</svg>
