<?xml version="1.0" encoding="utf-8"?>
<!DOCTYPE svg PUBLIC "-//W3C//DTD SVG 1.1//EN" "http://www.w3.org/Graphics/SVG/1.1/DTD/svg11.dtd">
<svg x="0" y="0" width="48" height="48" overflow="hidden" viewBox="0, 0, 210, 210" preserveAspectRatio="xMidYMid"
     font-size="0" id="svg" xml:space="preserve" xmlns="http://www.w3.org/2000/svg"
     xmlns:xml="http://www.w3.org/XML/1998/namespace" version="1.1">
  <linearGradient x1="-0.000904824" y1="0.499999" x2="1.0014" y2="0.499999" gradientUnits="objectBoundingBox" id="SVGID_Fill1_" xml:space="preserve">
    <stop offset="0%" stop-color="#0A4D04" stop-opacity="1" xml:space="preserve" />
    <stop offset="100%" stop-color="#042D01" stop-opacity="1" xml:space="preserve" />
  </linearGradient>
  <path d="M131.542 103.701 C155.885 81.1278 156.008 80.6572 155.844 80.2067 C155.68 79.7572 155.251 79.4906 154.801 79.4906 L123.749 79.4906 L123.81 28.6989 C123.81 27.8387 123.482 26.9799 122.828 26.3256 C122.173 25.6714 121.315 25.3436 120.454 25.3436 L90.0369 25.3436 C89.1769 25.3436 88.318 25.6714 87.6637 26.3256 C87.0096 26.9799 86.6818 27.8387 86.6818 28.6989 L86.7429 79.4906 L55.7318 79.4906 C55.2816 79.4906 54.8729 79.7572 54.6881 80.2067 C54.5244 80.6364 54.6471 81.1278 54.9747 81.4344 L102.985 125.967 C103.578 126.52 104.376 126.868 105.256 126.868 C106.135 126.868 106.933 126.52 131.542 103.701 z" stroke="#006432" stroke-width="4" stroke-linejoin="round" xml:space="preserve" style="fill:url(#SVGID_Fill1_);" />
  <linearGradient x1="-0.00221738" y1="0.500003" x2="1.0022" y2="0.500003" gradientUnits="objectBoundingBox" id="SVGID_Fill2_" xml:space="preserve">
    <stop offset="0%" stop-color="#0A4D04" stop-opacity="1" xml:space="preserve" />
    <stop offset="100%" stop-color="#042D01" stop-opacity="1" xml:space="preserve" />
  </linearGradient>
  <path d="M203.118 138.016 L173.027 114.757 C171.329 113.428 168.159 112.343 165.99 112.343 L148.562 112.343 L177.569 141.249 L148.644 141.249 L133.915 162.175 L75.9623 162.175 L61.8688 141.249 L32.9435 141.249 L61.766 112.343 L44.0105 112.343 C41.8422 112.343 38.6919 113.428 36.9738 114.757 L6.88171 138.016 C5.18494 139.346 4.32471 142.128 5 144.173 L17.0081 180.912 C17.6831 182.979 19.9946 184.656 22.163 184.656 L188.063 184.656 C190.231 184.656 192.543 182.979 193.197 180.912 L205 144.173 C205.675 142.108 204.836 139.346 203.118 138.016 z" stroke="#006432" stroke-width="4" stroke-linejoin="round" xml:space="preserve" style="fill:url(#SVGID_Fill2_);" />
</svg>