<?xml version="1.0" encoding="utf-8"?>
<!DOCTYPE svg PUBLIC "-//W3C//DTD SVG 1.1//EN" "http://www.w3.org/Graphics/SVG/1.1/DTD/svg11.dtd">
<svg xmlns="http://www.w3.org/2000/svg" xmlns:xlink="http://www.w3.org/1999/xlink" version="1.1" baseProfile="full" width="242.909" height="243.854" viewBox="0 0 242.91 243.85" enable-background="new 0 0 242.91 243.85" xml:space="preserve">
	<g>
		<path fill="#807D81" fill-opacity="0.498039" stroke-width="0.2" stroke-linejoin="round" d="M 88.9125,158.474C 104.92,174.957 125.026,180.979 131.43,174.389L 157.202,147.868C 161.113,143.845 164.521,130.377 162.96,116.747L 240.968,36.4717C 245.587,31.7183 241.845,20.1338 232.585,10.615C 223.335,1.09619 212.087,-2.75732 207.456,1.99854L 129.452,82.271C 116.206,80.658 103.128,84.1743 99.2186,88.1899L 73.4447,114.711C 67.0433,121.308 72.8954,142.001 88.9125,158.474 Z "/>
		<path fill="#854545" fill-opacity="0.498039" stroke-width="0.2" stroke-linejoin="round" d="M 174.693,78.2578C 178.251,81.917 177.093,89.0432 172.117,94.163C 167.132,99.2926 160.208,100.485 156.652,96.8236C 153.094,93.1654 154.243,86.0286 159.227,80.9087C 164.203,75.7793 171.138,74.5964 174.693,78.2578 Z "/>
		<path fill="#9D9696" fill-opacity="0.498039" stroke-width="0.2" stroke-linejoin="round" d="M 110.168,136.591C 122.572,149.358 125.69,166.205 124.589,167.339C 123.487,168.482 107.759,164.612 95.3524,151.844C 82.9481,139.079 79.2228,122.855 80.2885,121.761C 81.3615,120.656 97.7611,123.826 110.168,136.591 Z "/>
	</g>
</svg>
