<?xml version="1.0" encoding="utf-8"?>
<!DOCTYPE svg PUBLIC "-//W3C//DTD SVG 1.1//EN" "http://www.w3.org/Graphics/SVG/1.1/DTD/svg11.dtd">
<svg xmlns="http://www.w3.org/2000/svg" xmlns:xlink="http://www.w3.org/1999/xlink" version="1.1" baseProfile="full" width="245" height="245.954" viewBox="0 0 245.00 245.95" enable-background="new 0 0 245.00 245.95" xml:space="preserve">
	<g>
		<path fill="#030104" fill-opacity="1" stroke-width="0.2" stroke-linejoin="round" d="M 88.9125,160.573C 104.92,177.056 125.026,183.078 131.43,176.488L 157.202,149.968C 161.113,145.945 164.521,132.477 162.96,118.847L 240.968,38.5714C 245.587,33.818 241.845,22.2335 232.585,12.7145C 223.335,3.19568 212.087,-0.657593 207.456,4.09827L 129.452,84.3707C 116.206,82.7574 103.128,86.274 99.2186,90.2896L 73.4447,116.81C 67.0433,123.408 72.8954,144.1 88.9125,160.573 Z "/>
		<path fill="#FF0000" fill-opacity="1" stroke-width="0.2" stroke-linejoin="round" d="M 174.693,80.3575C 178.251,84.0167 177.093,91.1428 172.117,96.2626C 167.132,101.392 160.208,102.585 156.652,98.9232C 153.094,95.265 154.243,88.1281 159.227,83.0084C 164.203,77.8788 171.138,76.6959 174.693,80.3575 Z "/>
		<path fill="#9D9696" fill-opacity="1" stroke-width="0.2" stroke-linejoin="round" d="M 110.168,138.691C 122.572,151.458 125.69,168.305 124.589,169.438C 123.487,170.582 107.759,166.711 95.3524,153.944C 82.9481,141.179 79.2228,124.954 80.2885,123.86C 81.3615,122.756 97.7611,125.926 110.168,138.691 Z "/>
	</g>
	<path fill="#FFFF00" fill-opacity="0.807843" stroke-width="0.2" stroke-linejoin="round" d="M 80.2885,123.86L 2.35657,173.985L 2.09131,243.854L 86.6898,242.985L 124.589,169.438L 124.742,166.621L 122.367,158.058L 116.805,146.746L 112.055,140.621L 107.117,135.933L 104.18,133.485L 97.4921,128.923L 92.9608,126.798L 87.1796,124.725L 82.6171,123.704L 80.7631,123.662L 80.2885,123.86 Z "/>
	<g>
		<path fill="#807D81" fill-opacity="0.498039" stroke-width="0.2" stroke-linejoin="round" d="M 91.0038,158.474C 107.012,174.957 127.117,180.979 133.521,174.389L 159.293,147.868C 163.204,143.845 166.612,130.377 165.052,116.747L 243.059,36.4718C 247.678,31.7184 243.936,20.1339 234.676,10.6151C 225.426,1.09631 214.179,-2.7572 209.548,1.99866L 131.543,82.2711C 118.297,80.6581 105.219,84.1744 101.31,88.1901L 75.536,114.711C 69.1346,121.308 74.9867,142.001 91.0038,158.474 Z "/>
		<path fill="#854545" fill-opacity="0.498039" stroke-width="0.2" stroke-linejoin="round" d="M 176.785,78.2579C 180.342,81.9171 179.184,89.0433 174.208,94.1631C 169.224,99.2927 162.299,100.485 158.743,96.8237C 155.185,93.1655 156.335,86.0287 161.319,80.9088C 166.294,75.7794 173.229,74.5966 176.785,78.2579 Z "/>
		<path fill="#9D9696" fill-opacity="0.498039" stroke-width="0.2" stroke-linejoin="round" d="M 112.259,136.591C 124.663,149.358 127.782,166.205 126.68,167.339C 125.578,168.482 109.85,164.612 97.4437,151.844C 85.0394,139.08 81.3141,122.855 82.3798,121.761C 83.4528,120.657 99.8524,123.826 112.259,136.591 Z "/>
	</g>
</svg>
