<?xml version="1.0" encoding="utf-8"?>
<!DOCTYPE svg PUBLIC "-//W3C//DTD SVG 1.1//EN" "http://www.w3.org/Graphics/SVG/1.1/DTD/svg11.dtd">
<svg xmlns="http://www.w3.org/2000/svg" xmlns:xlink="http://www.w3.org/1999/xlink" version="1.1" baseProfile="full" width="257" height="257" viewBox="0 0 257.00 257.00" enable-background="new 0 0 257.00 257.00" xml:space="preserve">
	<radialGradient id="SVGID_Fill1_" cx="128.228" cy="220.222" r="115.574" gradientUnits="userSpaceOnUse" gradientTransform="rotate(180.000000 128.227539 220.222015)">
		<stop offset="0" stop-color="#626CA8" stop-opacity="1"/>
		<stop offset="1" stop-color="#000000" stop-opacity="1"/>
	</radialGradient>
	<filter id="Filter_GaussianBlur1_" filterUnits="userSpaceOnUse">
		<feGaussianBlur stdDeviation="7.937"/>
	</filter>
	<path fill="url(#SVGID_Fill1_)" stroke-width="0.2" stroke-linejoin="round" filter="url(#Filter_GaussianBlur1_)" d="M 40.5083,219.415C 40.5083,231.522 79.7817,241.697 128.229,242.144L 128.229,242.144C 176.674,242.589 215.948,233.136 215.948,221.03L 215.948,221.03C 215.948,208.924 176.674,198.749 128.229,198.302L 128.229,198.302C 127.129,198.293 126.033,198.287 124.943,198.287L 124.943,198.287C 78.0181,198.287 40.5083,207.583 40.5083,219.415 Z "/>
	<g>
		<radialGradient id="SVGID_Fill2_" cx="148.324" cy="95.8514" r="153.928" gradientUnits="userSpaceOnUse" gradientTransform="rotate(236.825394 148.323975 95.851410)">
			<stop offset="0" stop-color="#969AD9" stop-opacity="1"/>
			<stop offset="0.378049" stop-color="#323CE7" stop-opacity="1"/>
			<stop offset="0.740593" stop-color="#131ECB" stop-opacity="1"/>
			<stop offset="1" stop-color="#0803BD" stop-opacity="1"/>
		</radialGradient>
		<path fill="url(#SVGID_Fill2_)" stroke-width="0.2" stroke-linejoin="round" d="M 15.1953,128.878C 15.1953,189.121 64.4434,237.959 125.196,237.959L 125.196,237.959C 185.947,237.959 235.195,189.121 235.195,128.878L 235.195,128.878C 235.195,68.6344 185.947,19.7979 125.196,19.7979L 125.196,19.7979C 64.4434,19.7979 15.1953,68.6344 15.1953,128.878 Z "/>
		<path fill="#643D00" fill-opacity="1" stroke-width="7.224" stroke-linecap="round" stroke-linejoin="round" stroke="#653D00" stroke-opacity="1" d="M 102.096,15.5035C 102.096,15.5035 58.9224,25.9081 42.1055,61.8436C 48.0732,19.5316 102.096,15.5035 102.096,15.5035 Z "/>
		<path fill="#643D00" fill-opacity="1" stroke-width="7.224" stroke-linecap="round" stroke-linejoin="round" stroke="#653D00" stroke-opacity="1" d="M 146.223,13.5033C 146.223,13.5033 185.076,23.2572 200.591,59.8436C 189.091,18.5081 146.223,13.5033 146.223,13.5033 Z "/>
		<radialGradient id="SVGID_Fill3_" cx="162.466" cy="76.0091" r="35.0062" gradientUnits="userSpaceOnUse" gradientTransform="rotate(182.071121 162.466064 76.009125)">
			<stop offset="0" stop-color="#FFFFFB" stop-opacity="1"/>
			<stop offset="0.755398" stop-color="#FBFBFB" stop-opacity="1"/>
			<stop offset="1" stop-color="#B3B3B3" stop-opacity="1"/>
		</radialGradient>
		<path fill="url(#SVGID_Fill3_)" stroke-width="0.2" stroke-linejoin="round" d="M 136.811,85.2867C 136.811,90.1424 137.458,94.7892 138.629,99.0548L 138.629,99.0548C 156.192,99.7591 171.933,103.694 183.559,109.712L 183.559,109.712C 187.477,103.124 189.856,94.5985 189.856,85.2867L 189.856,85.2867C 189.856,64.4144 177.579,48.1729 160.089,48.1729L 160.089,48.1729C 149.043,48.1729 136.811,64.4144 136.811,85.2867 Z "/>
		<radialGradient id="SVGID_Fill4_" cx="154.697" cy="75.4996" r="45.2335" gradientUnits="userSpaceOnUse" gradientTransform="rotate(-80.475266 154.696533 75.499603)">
			<stop offset="0" stop-color="#B88000" stop-opacity="1"/>
			<stop offset="1" stop-color="#4F2F00" stop-opacity="1"/>
		</radialGradient>
		<path fill="url(#SVGID_Fill4_)" stroke-width="0.2" stroke-linejoin="round" d="M 153.194,50.3592C 148.311,55.5702 145.083,64.8092 145.083,75.3287L 145.083,75.3287C 145.083,85.9542 148.4,95.2613 153.368,100.44L 153.368,100.44C 158.321,101.193 163.06,102.235 167.491,103.49L 167.491,103.49C 174.591,99.8031 179.746,88.5941 179.746,75.3287L 179.746,75.3287C 179.746,63.4854 175.64,53.2826 169.706,48.6046L 169.706,48.6046C 167.665,47.8875 165.517,47.5121 163.32,47.5121L 163.32,47.5121C 159.727,47.5121 156.319,48.5162 153.194,50.3592 Z "/>
		<path fill="#000000" fill-opacity="1" stroke-width="0.2" stroke-linejoin="round" d="M 152.632,77.5921C 152.632,86.4642 156.712,93.6561 161.744,93.6561C 166.777,93.6561 170.857,86.4642 170.857,77.5921C 170.857,68.7206 166.777,61.5287 161.744,61.5287C 156.712,61.5287 152.632,68.7206 152.632,77.5921 Z "/>
		<linearGradient id="SVGID_Fill5_" gradientUnits="objectBoundingBox" x1="0.613361" y1="0.0483491" x2="1.57974" y2="0.0483491" gradientTransform="rotate(94.996887 0.613361 0.048349)">
			<stop offset="0" stop-color="#FFFFFF" stop-opacity="0.388235"/>
			<stop offset="1" stop-color="#000000" stop-opacity="0.388235"/>
		</linearGradient>
		<path fill="url(#SVGID_Fill5_)" stroke-width="0.2" stroke-linejoin="round" d="M 157.654,66.1229C 157.654,73.8763 161.362,80.1605 165.938,80.1605C 170.513,80.1605 174.223,73.8763 174.223,66.1229C 174.223,58.3702 170.513,52.0851 165.938,52.0851C 161.362,52.0851 157.654,58.3702 157.654,66.1229 Z "/>
		<radialGradient id="SVGID_Fill6_" cx="82.303" cy="78.6053" r="33.4808" gradientUnits="userSpaceOnUse" gradientTransform="rotate(175.394806 82.302979 78.605316)">
			<stop offset="0" stop-color="#FFFFFB" stop-opacity="1"/>
			<stop offset="0.755398" stop-color="#FBFBFB" stop-opacity="1"/>
			<stop offset="1" stop-color="#B3B3B3" stop-opacity="1"/>
		</radialGradient>
		<path fill="url(#SVGID_Fill6_)" stroke-width="0.2" stroke-linejoin="round" d="M 55.7786,85.2867C 55.7786,94.5985 58.1589,103.124 62.0767,109.712L 62.0767,109.712C 73.7029,103.694 89.4441,99.7591 107.006,99.0548L 107.006,99.0548C 108.177,94.7892 108.824,90.1424 108.824,85.2867L 108.824,85.2867C 108.824,64.4144 99.0605,50.4051 90.1309,48.1729L 90.1309,48.1729C 88.3838,47.7367 86.6567,47.5287 84.9648,47.5287L 84.9648,47.5287C 68.8369,47.5267 55.7786,66.3954 55.7786,85.2867 Z "/>
		<radialGradient id="SVGID_Fill7_" cx="83.2217" cy="75.4996" r="17.7908" gradientUnits="userSpaceOnUse" gradientTransform="rotate(180.000000 83.221680 75.499603)">
			<stop offset="0" stop-color="#B88000" stop-opacity="1"/>
			<stop offset="1" stop-color="#4F2F00" stop-opacity="1"/>
		</radialGradient>
		<path fill="url(#SVGID_Fill7_)" stroke-width="0.2" stroke-linejoin="round" d="M 75.9292,48.6046C 69.9946,53.2826 65.8901,63.4854 65.8901,75.3287L 65.8901,75.3287C 65.8901,88.5941 71.0442,99.8031 78.145,103.49L 78.145,103.49C 82.5762,102.235 87.314,101.193 92.269,100.44L 92.269,100.44C 97.2363,95.2613 100.554,85.9542 100.554,75.3287L 100.554,75.3287C 100.554,64.8092 97.3247,55.5702 92.4414,50.3592L 92.4414,50.3592C 89.3162,48.5162 85.9084,47.5121 82.3157,47.5121L 82.3157,47.5121C 80.1187,47.5121 77.9709,47.8875 75.9292,48.6046 Z "/>
		<path fill="none" stroke-width="1.33333" stroke-linejoin="round" stroke="#5C3900" stroke-opacity="1" d="M 82.3154,47.5116C 80.1182,47.5116 77.9707,47.8873 75.9302,48.6043C 69.9946,53.2823 65.8901,63.4852 65.8901,75.3285C 65.8901,88.5938 71.0439,99.8028 78.1448,103.491C 82.5762,102.235 87.314,101.194 92.269,100.441C 97.2361,95.2611 100.553,85.9539 100.553,75.3285C 100.553,64.8099 97.3252,55.5697 92.4412,50.3597C 89.3159,48.516 85.9082,47.5116 82.3154,47.5116 Z "/>
		<path fill="#000000" fill-opacity="1" stroke-width="0.2" stroke-linejoin="round" d="M 92.2666,77.5921C 92.2666,86.4642 88.187,93.6561 83.1545,93.6561C 78.1221,93.6561 74.0415,86.4642 74.0415,77.5921C 74.0415,68.7206 78.1221,61.5287 83.1545,61.5287C 88.187,61.5287 92.2666,68.7206 92.2666,77.5921 Z "/>
		<linearGradient id="SVGID_Fill8_" gradientUnits="objectBoundingBox" x1="0.625444" y1="0.014696" x2="1.68321" y2="0.014696" gradientTransform="rotate(95.144249 0.625444 0.014696)">
			<stop offset="0" stop-color="#FFFFFF" stop-opacity="0.388235"/>
			<stop offset="1" stop-color="#000000" stop-opacity="0.388235"/>
		</linearGradient>
		<path fill="url(#SVGID_Fill8_)" stroke-width="0.2" stroke-linejoin="round" d="M 95.8066,65.6624C 95.8066,73.4159 92.0979,79.7003 87.522,79.7003C 82.9463,79.7003 79.2375,73.4159 79.2375,65.6624C 79.2375,57.91 82.9463,51.6248 87.522,51.6248C 92.0979,51.6248 95.8066,57.91 95.8066,65.6624 Z "/>
		<path fill="#FE0C0C" fill-opacity="1" stroke-width="4" stroke-linecap="round" stroke-linejoin="round" stroke="#D98004" stroke-opacity="1" d="M 130.156,135.56C 132.633,131.711 136.391,127.092 140.235,123.902C 144.079,120.713 148.008,118.953 152.023,118.843C 156.037,118.733 160.137,120.273 163.042,122.913C 165.946,125.552 167.654,129.291 167.91,131.491C 168.167,133.691 166.971,134.35 165.775,133.251C 164.579,132.151 163.383,129.291 160.906,127.092C 158.429,124.892 154.671,123.352 150.144,125.222C 145.616,127.092 140.321,132.371 137.075,136.55C 133.829,140.729 132.633,143.809 131.01,145.128C 129.387,146.448 127.337,146.008 126.91,144.248C 126.483,142.489 127.679,139.41 130.156,135.56 Z "/>
		<linearGradient id="SVGID_Fill9_" gradientUnits="objectBoundingBox" x1="-0.039778" y1="0.500379" x2="1.02317" y2="0.500379">
			<stop offset="0.506977" stop-color="#E7E8EE" stop-opacity="1"/>
			<stop offset="1" stop-color="#4D5793" stop-opacity="1"/>
		</linearGradient>
		<path fill="url(#SVGID_Fill9_)" stroke-linecap="round" stroke-linejoin="round" stroke="#A9ADC9" stroke-opacity="1" d="M 55.6875,146.954C 52.1321,146.399 47.6877,145.954 43.7988,146.732C 39.9099,147.51 36.5767,149.51 32.6594,151.981C 28.7422,154.452 24.2412,157.395 20.4907,160.324C 16.7402,163.254 13.7402,166.171 11.907,168.212C 10.0737,170.254 9.40698,171.421 9.09448,172.296C 8.78198,173.171 8.82373,173.754 9.96948,174.171C 11.1152,174.587 13.3652,174.837 15.6777,174.337C 17.9902,173.837 20.3652,172.587 23.0811,171.324C 25.7969,170.061 28.8535,168.786 30.52,168.925C 32.1868,169.063 32.4634,170.617 32.0464,172.616C 31.6292,174.615 30.5181,177.059 28.5391,180.441C 26.5598,183.824 23.7124,188.143 21.1638,192.566C 18.6152,196.99 16.3652,201.518 16.3445,204.469C 16.3237,207.421 18.532,208.796 21.3027,206.705C 24.0737,204.615 27.407,199.059 29.9556,194.622C 32.5042,190.184 34.2681,186.865 35.6501,185.428C 37.032,183.99 38.032,184.434 37.5876,186.212C 37.1431,187.99 35.2542,191.101 33.4763,194.768C 31.6987,198.434 30.032,202.657 29.0388,205.983C 28.0459,209.309 27.7266,211.74 28.1431,213.393C 28.5598,215.046 29.7124,215.921 31.0459,215.143C 32.3792,214.365 33.8931,211.934 36.2056,207.497C 38.5181,203.059 41.6292,196.615 43.1846,193.393C 44.7402,190.171 44.7402,190.171 45.0112,190.4C 45.282,190.629 45.8237,191.087 45.4277,193.483C 45.032,195.879 43.6987,200.212 43.0388,204.428C 42.3792,208.643 42.3931,212.74 42.8445,215.289C 43.2959,217.837 44.1848,218.837 45.3516,218.615C 46.5181,218.393 47.9624,216.949 49.0181,213.893C 50.0737,210.837 50.7402,206.171 51.6362,202.872C 52.532,199.574 53.657,197.643 55.5527,195.233C 57.4487,192.824 60.1152,189.934 62.5254,187.345C 64.9358,184.756 67.0894,182.466 68.6382,179.765C 70.1868,177.063 71.1301,173.951 71.4634,171.284C 71.7969,168.617 71.52,166.397 70.2705,162.731C 69.021,159.065 66.7988,153.954 64.3542,151.066C 61.9099,148.177 59.2432,147.51 55.6875,146.954 Z "/>
		<linearGradient id="SVGID_Fill10_" gradientUnits="objectBoundingBox" x1="1.03978" y1="0.500379" x2="2.10273" y2="0.500379" gradientTransform="rotate(180.000000 1.039778 0.500379)">
			<stop offset="0.506977" stop-color="#E7E8EE" stop-opacity="1"/>
			<stop offset="1" stop-color="#4D5793" stop-opacity="1"/>
		</linearGradient>
		<path fill="url(#SVGID_Fill10_)" stroke-linecap="round" stroke-linejoin="round" stroke="#A9ADC9" stroke-opacity="1" d="M 203.121,151.516C 206.677,150.96 211.121,150.516 215.01,151.294C 218.899,152.071 222.232,154.071 226.149,156.543C 230.066,159.014 234.567,161.956 238.318,164.886C 242.068,167.816 245.068,170.732 246.902,172.774C 248.735,174.816 249.402,175.982 249.714,176.857C 250.027,177.732 249.985,178.316 248.839,178.732C 247.693,179.149 245.443,179.399 243.131,178.899C 240.818,178.399 238.443,177.149 235.728,175.886C 233.012,174.623 229.955,173.347 228.289,173.486C 226.622,173.625 226.345,175.179 226.762,177.178C 227.18,179.177 228.291,181.621 230.27,185.003C 232.249,188.385 235.096,192.704 237.645,197.128C 240.193,201.552 242.443,206.079 242.464,209.031C 242.485,211.982 240.277,213.357 237.506,211.267C 234.735,209.177 231.402,203.621 228.853,199.183C 226.305,194.746 224.541,191.427 223.159,189.989C 221.777,188.552 220.777,188.996 221.221,190.774C 221.666,192.552 223.555,195.663 225.333,199.329C 227.11,202.996 228.777,207.218 229.77,210.545C 230.763,213.871 231.082,216.302 230.666,217.954C 230.249,219.607 229.096,220.482 227.763,219.704C 226.43,218.927 224.916,216.496 222.603,212.058C 220.291,207.621 217.18,201.177 215.624,197.954C 214.068,194.732 214.068,194.732 213.798,194.961C 213.527,195.191 212.985,195.649 213.381,198.045C 213.777,200.441 215.11,204.774 215.77,208.989C 216.43,213.204 216.416,217.302 215.964,219.85C 215.513,222.399 214.624,223.399 213.457,223.177C 212.291,222.954 210.846,221.51 209.625,218.556C 208.403,215.602 207.404,211.139 205.446,207.116C 203.488,203.093 200.571,199.51 198.759,197.072C 196.946,194.635 196.238,193.343 194.89,191.478C 193.542,189.614 191.553,187.176 190.088,184.4C 188.622,181.625 187.679,178.512 187.345,175.845C 187.012,173.179 187.289,170.958 188.538,167.293C 189.788,163.627 192.01,158.516 194.455,155.627C 196.899,152.738 199.565,152.071 203.121,151.516 Z "/>
		<filter id="Filter_GaussianBlur2_" filterUnits="userSpaceOnUse">
			<feGaussianBlur stdDeviation="2.83465"/>
		</filter>
		<path fill="none" stroke-width="4" stroke-linecap="round" stroke-linejoin="round" stroke="#16171F" stroke-opacity="1" filter="url(#Filter_GaussianBlur2_)" d="M 190.821,166.468L 188.571,173.218L 191.571,183.218L 198.571,192.218L 206.571,200.718L 209.571,208.718L 211.321,218.218"/>
		<filter id="Filter_GaussianBlur3_" filterUnits="userSpaceOnUse">
			<feGaussianBlur stdDeviation="2.4567"/>
		</filter>
		<path fill="none" stroke-width="3" stroke-linecap="round" stroke-linejoin="round" stroke="#16171F" stroke-opacity="1" filter="url(#Filter_GaussianBlur3_)" d="M 215.571,192.218L 217.571,197.218L 223.321,207.968L 227.071,216.468"/>
		<filter id="Filter_GaussianBlur4_" filterUnits="userSpaceOnUse">
			<feGaussianBlur stdDeviation="2.4567"/>
		</filter>
		<path fill="none" stroke-width="3" stroke-linecap="round" stroke-linejoin="round" stroke="#16171F" stroke-opacity="1" filter="url(#Filter_GaussianBlur4_)" d="M 224.071,187.343L 228.821,194.093L 234.571,203.343L 238.321,209.843"/>
		<filter id="Filter_GaussianBlur5_" filterUnits="userSpaceOnUse">
			<feGaussianBlur stdDeviation="2.83465"/>
		</filter>
		<path fill="none" stroke-width="5" stroke-linecap="round" stroke-linejoin="round" stroke="#16171F" stroke-opacity="1" filter="url(#Filter_GaussianBlur5_)" d="M 229.071,170.343L 235.571,173.093L 243.071,176.593L 246.071,176.593"/>
		<linearGradient id="SVGID_Fill11_" gradientUnits="objectBoundingBox" x1="0.542686" y1="0.175434" x2="1.01829" y2="0.175434">
			<stop offset="0.506977" stop-color="#E7E8EE" stop-opacity="1"/>
			<stop offset="1" stop-color="#4D5793" stop-opacity="1"/>
		</linearGradient>
		<filter id="Filter_GaussianBlur6_" filterUnits="userSpaceOnUse">
			<feGaussianBlur stdDeviation="2.64567"/>
		</filter>
		<path fill="url(#SVGID_Fill11_)" stroke-width="3" stroke-linecap="round" stroke-linejoin="round" stroke="#040618" stroke-opacity="1" filter="url(#Filter_GaussianBlur6_)" d="M 40.5767,151.011L 28.5767,157.677L 19.5767,164.011L 13.2432,170.011"/>
		<linearGradient id="SVGID_Fill12_" gradientUnits="objectBoundingBox" x1="0.411117" y1="0.222894" x2="1.1" y2="0.222894">
			<stop offset="0.506977" stop-color="#E7E8EE" stop-opacity="1"/>
			<stop offset="1" stop-color="#4D5793" stop-opacity="1"/>
		</linearGradient>
		<filter id="Filter_GaussianBlur7_" filterUnits="userSpaceOnUse">
			<feGaussianBlur stdDeviation="2.64567"/>
		</filter>
		<path fill="url(#SVGID_Fill12_)" stroke-width="3" stroke-linecap="round" stroke-linejoin="round" stroke="#040618" stroke-opacity="1" filter="url(#Filter_GaussianBlur7_)" d="M 33.2432,176.344L 25.9099,188.677L 20.2432,198.344L 18.2432,204.011"/>
		<linearGradient id="SVGID_Fill13_" gradientUnits="objectBoundingBox" x1="0.378795" y1="0.194805" x2="1.13636" y2="0.194805">
			<stop offset="0.506977" stop-color="#E7E8EE" stop-opacity="1"/>
			<stop offset="1" stop-color="#4D5793" stop-opacity="1"/>
		</linearGradient>
		<filter id="Filter_GaussianBlur8_" filterUnits="userSpaceOnUse">
			<feGaussianBlur stdDeviation="2.83465"/>
		</filter>
		<path fill="url(#SVGID_Fill13_)" stroke-width="3" stroke-linecap="round" stroke-linejoin="round" stroke="#040618" stroke-opacity="1" filter="url(#Filter_GaussianBlur8_)" d="M 40.2432,185.677L 34.9099,195.677L 31.2432,205.011L 29.2432,211.344"/>
		<linearGradient id="SVGID_Fill14_" gradientUnits="objectBoundingBox" x1="-0.136361" y1="0.226028" x2="1.40908" y2="0.226028">
			<stop offset="0.506977" stop-color="#E7E8EE" stop-opacity="1"/>
			<stop offset="1" stop-color="#4D5793" stop-opacity="1"/>
		</linearGradient>
		<filter id="Filter_GaussianBlur9_" filterUnits="userSpaceOnUse">
			<feGaussianBlur stdDeviation="2.83465"/>
		</filter>
		<path fill="url(#SVGID_Fill14_)" stroke-width="3" stroke-linecap="round" stroke-linejoin="round" stroke="#040618" stroke-opacity="1" filter="url(#Filter_GaussianBlur9_)" d="M 47.9099,190.344L 45.2432,201.344L 44.5767,207.344L 44.2432,214.677"/>
	</g>
</svg>
