<?xml version="1.0" encoding="utf-8"?>
<!DOCTYPE svg PUBLIC "-//W3C//DTD SVG 1.1//EN" "http://www.w3.org/Graphics/SVG/1.1/DTD/svg11.dtd">
<svg x="0" y="0" width="48" height="48" overflow="hidden" viewBox="0, 0, 48, 48" preserveAspectRatio="xMidYMid"
     font-size="0" id="svg" xml:space="preserve" xmlns="http://www.w3.org/2000/svg"
     xmlns:xml="http://www.w3.org/XML/1998/namespace" version="1.1">
  <radialGradient cx="25" cy="25" r="24" fx="25" fy="25" gradientUnits="userSpaceOnUse" id="SVGID_Fill1_" xml:space="preserve">
    <stop offset="0%" stop-color="#FCD7D7" stop-opacity="1" id="stop2" xml:space="preserve" />
    <stop offset="99.1379%" stop-color="#FF0000" stop-opacity="1" id="stop4" xml:space="preserve" />
  </radialGradient>
  <circle cx="24" cy="24" r="22.97872" stroke="#000000" stroke-width="2.042553" stroke-linejoin="round" id="ellipse7" xml:space="preserve" style="fill:url(#SVGID_Fill1_);" />
  <radialGradient cx="25" cy="-6.03447" r="40" fx="25" fy="-6.03447" gradientUnits="userSpaceOnUse" id="SVGID_Fill2_" xml:space="preserve">
    <stop offset="0%" stop-color="#FFFFFF" stop-opacity="0.486275" id="stop9" xml:space="preserve" />
    <stop offset="27.1552%" stop-color="#FFF1F1" stop-opacity="0.486275" id="stop11" xml:space="preserve" />
    <stop offset="100%" stop-color="#FF0000" stop-opacity="0.486275" id="stop13" xml:space="preserve" />
  </radialGradient>
  <circle cx="24" cy="24" r="20.42553" stroke-width="0.2042553" stroke-linejoin="round" id="ellipse16" xml:space="preserve" style="fill:url(#SVGID_Fill2_);" />
  <radialGradient cx="25" cy="12.5862" r="40" fx="25" fy="12.5862" gradientUnits="userSpaceOnUse" gradientTransform="rotate(180, 25.00002, 12.58622)" id="SVGID_Fill3_" xml:space="preserve">
    <stop offset="11.6379%" stop-color="#FFFFFF" stop-opacity="0" id="stop18" xml:space="preserve" />
    <stop offset="100%" stop-color="#FFE700" stop-opacity="0.513725" id="stop20" xml:space="preserve" />
  </radialGradient>
  <circle cx="24" cy="24" r="20.42553" stroke-width="0.2042553" stroke-linejoin="round" id="ellipse23" xml:space="preserve" style="fill:url(#SVGID_Fill3_);" />
  <g transform="matrix(1.021277, 0, 0, 1.021277, -1.531915, -1.531915)" id="g47" xml:space="preserve">
    <path d="M13.8812 25.8959 L12.4992 25.8959 L12.4992 21.9861 C12.4992 21.5641 12.5167 21.0979 12.5518 20.5875 L12.5181 20.5875 C12.4479 20.9891 12.3845 21.2778 12.3278 21.4538 L10.9107 25.8959 L9.79721 25.8959 L8.35443 21.499 C8.31485 21.3804 8.25141 21.0765 8.16413 20.5875 L8.12635 20.5875 C8.162331 21.2321 8.18033 21.7975 8.18033 22.2836 L8.18033 25.8959 L6.97105 25.8959 L6.97105 19.3625 L8.948279 19.3625 L10.1832 23.2359 C10.2822 23.545 10.3542 23.8561 10.3992 24.1692 L10.4248 24.1692 C10.5004 23.8075 10.5805 23.493 10.665 23.2257 L11.9 19.3625 L13.8812 19.3625 z" stroke="#FFFFFF" stroke-width="0.299998" stroke-linejoin="round" id="path25" xml:space="preserve" connector-curvature="0" style="fill:#000000;" />
    <path d="M17.1636 19.3625 L17.1636 20.4825 L16.6453 20.4825 L16.6453 24.7759 L17.1636 24.7759 L17.1636 25.8959 L14.745 25.8959 L14.745 24.7759 L15.2633 24.7759 L15.2633 20.4825 L14.745 20.4825 L14.745 19.3625 z" stroke="#FFFFFF" stroke-width="0.299998" stroke-linejoin="round" id="path27" xml:space="preserve" connector-curvature="0" style="fill:#000000;" />
    <path d="M17.7682 25.6348 L17.7682 24.2159 C18.0121 24.4336 18.2766 24.597 18.5618 24.7059 C18.847 24.8147 19.135 24.8692 19.4256 24.8692 C19.5965 24.8692 19.7457 24.8517 19.873 24.8167 C20.0003 24.7817 20.1067 24.7333 20.1922 24.6716 C20.2777 24.6099 20.3413 24.5372 20.3832 24.4536 C20.425 24.37 20.4459 24.279 20.4459 24.1809 C20.4459 24.0545 20.4126 23.9414 20.346 23.8418 C20.2795 23.7421 20.1886 23.65 20.0734 23.5654 C19.9582 23.4809 19.8217 23.3992 19.6638 23.3204 C19.5059 23.2417 19.3356 23.1615 19.153 23.0798 C18.6869 22.8688 18.3396 22.6107 18.111 22.3054 C17.8825 22.0002 17.7682 21.6317 17.7682 21.2 C17.7682 20.8617 17.8314 20.571 17.9578 20.3279 C18.0843 20.0849 18.2566 19.8846 18.4748 19.7271 C18.693 19.5696 18.9456 19.4539 19.2326 19.38 C19.5196 19.3061 19.8237 19.2692 20.1449 19.2692 C20.4599 19.2692 20.739 19.2894 20.9824 19.3297 C21.2258 19.3701 21.4501 19.432 21.6552 19.5156 L21.6552 20.8559 C21.5553 20.7781 21.4465 20.7095 21.3286 20.6502 C21.2107 20.5909 21.0893 20.5418 20.9642 20.5029 C20.8391 20.464 20.715 20.4354 20.5917 20.4169 C20.4684 20.3984 20.351 20.3892 20.2394 20.3892 C20.0874 20.3892 19.9488 20.4057 19.8237 20.4388 C19.6987 20.4718 19.5932 20.5185 19.5072 20.5788 C19.4213 20.639 19.3547 20.7112 19.3075 20.7953 C19.2603 20.8794 19.2366 20.9735 19.2366 21.0775 C19.2366 21.1864 19.263 21.2839 19.3156 21.3699 C19.3682 21.456 19.4431 21.5374 19.5403 21.6142 C19.6375 21.691 19.7554 21.7666 19.8939 21.841 C20.0325 21.9153 20.189 21.9914 20.3636 22.0692 C20.602 22.1781 20.8162 22.2938 21.006 22.4163 C21.1959 22.5388 21.3587 22.6771 21.4946 22.8312 C21.6305 22.9853 21.7344 23.1612 21.8064 23.3591 C21.8783 23.5569 21.9143 23.7871 21.9143 24.0496 C21.9143 24.4122 21.85 24.7165 21.7213 24.9625 C21.5927 25.2085 21.4181 25.4078 21.1977 25.5604 C20.9772 25.7131 20.7208 25.8227 20.4284 25.8893 C20.136 25.9559 19.8273 25.9892 19.5025 25.9892 C19.1687 25.9892 18.8513 25.9595 18.5503 25.9002 C18.2494 25.8409 17.9887 25.7525 17.7682 25.6348 z" stroke="#FFFFFF" stroke-width="0.299998" stroke-linejoin="round" id="path29" xml:space="preserve" connector-curvature="0" style="fill:#000000;" />
    <path d="M22.6054 25.6348 L22.6054 24.2159 C22.8492 24.4336 23.1137 24.597 23.3989 24.7059 C23.6842 24.8147 23.9721 24.8692 24.2627 24.8692 C24.4337 24.8692 24.5828 24.8517 24.7101 24.8167 C24.8374 24.7817 24.9438 24.7333 25.0293 24.6716 C25.1148 24.6099 25.1785 24.5372 25.2203 24.4536 C25.2621 24.37 25.2831 24.279 25.2831 24.1809 C25.2831 24.0545 25.2498 23.9414 25.1832 23.8418 C25.1166 23.7421 25.0257 23.65 24.9105 23.5654 C24.7954 23.4809 24.6588 23.3992 24.5009 23.3204 C24.343 23.2417 24.1727 23.1615 23.9901 23.0798 C23.524 22.8688 23.1767 22.6107 22.9482 22.3054 C22.7196 22.0002 22.6054 21.6317 22.6054 21.2 C22.6054 20.8617 22.6686 20.571 22.795 20.3279 C22.9214 20.0849 23.0937 19.8846 23.3119 19.7271 C23.5301 19.5696 23.7827 19.4539 24.0697 19.38 C24.3567 19.3061 24.6609 19.2692 24.9821 19.2692 C25.297 19.2692 25.5762 19.2894 25.8195 19.3297 C26.0629 19.3701 26.2872 19.432 26.4923 19.5156 L26.4923 20.8559 C26.3925 20.7781 26.2836 20.7095 26.1657 20.6502 C26.0479 20.5909 25.9264 20.5418 25.8013 20.5029 C25.6763 20.464 25.5521 20.4354 25.4288 20.4169 C25.3055 20.3984 25.1881 20.3892 25.0766 20.3892 C24.9245 20.3892 24.7859 20.4057 24.6609 20.4388 C24.5358 20.4718 24.4303 20.5185 24.3444 20.5788 C24.2584 20.639 24.1919 20.7112 24.1446 20.7953 C24.0974 20.8794 24.0738 20.9735 24.0738 21.0775 C24.0738 21.1864 24.1001 21.2839 24.1527 21.3699 C24.2054 21.456 24.2803 21.5374 24.3774 21.6142 C24.4746 21.691 24.5925 21.7666 24.731 21.841 C24.8696 21.9153 25.0262 21.9914 25.2007 22.0692 C25.4392 22.1781 25.6533 22.2938 25.8432 22.4163 C26.033 22.5388 26.1959 22.6771 26.3317 22.8312 C26.4676 22.9853 26.5715 23.1612 26.6435 23.3591 C26.7155 23.5569 26.7515 23.7871 26.7515 24.0496 C26.7515 24.4122 26.6871 24.7165 26.5585 24.9625 C26.4298 25.2085 26.2552 25.4078 26.0348 25.5604 C25.8144 25.7131 25.5579 25.8227 25.2655 25.8893 C24.97309 25.9559 24.6645 25.9892 24.3396 25.9892 C24.0058 25.9892 23.6884 25.9595 23.3875 25.9002 C23.08649 25.8409 22.82579 25.7525 22.60539 25.6348 z" stroke="#FFFFFF" stroke-width="0.299998" stroke-linejoin="round" id="path31" xml:space="preserve" connector-curvature="0" style="fill:#000000;" />
    <path d="M29.6019 19.3625 L29.6019 20.4825 L29.0837 20.4825 L29.0837 24.7759 L29.6019 24.7759 L29.6019 25.8959 L27.1834 25.8959 L27.1834 24.7759 L27.7016 24.7759 L27.7016 20.4825 L27.1834 20.4825 L27.1834 19.3625 z" stroke="#FFFFFF" stroke-width="0.299998" stroke-linejoin="round" id="path33" xml:space="preserve" connector-curvature="0" style="fill:#000000;" />
    <path d="M35.9075 25.8959 L34.5227 25.8959 L32.0461 21.7906 C31.9013 21.5505 31.8005 21.3697 31.7438 21.2481 L31.7276 21.2481 C31.7501 21.4786 31.7614 21.831 31.7614 22.3054 L31.7614 25.8959 L30.4657 25.8959 L30.4657 19.3625 L31.9422 19.3625 L34.327 23.3394 C34.4359 23.5193 34.53671 23.6972 34.6294 23.8731 L34.6456 23.8731 C34.6231 23.7215 34.6118 23.4225 34.6118 22.9763 L34.6118 19.3625 L35.90751 19.3625 z" stroke="#FFFFFF" stroke-width="0.299998" stroke-linejoin="round" id="path35" xml:space="preserve" connector-curvature="0" style="fill:#000000;" />
    <path d="M42.2994 25.4394 C41.7074 25.8059 40.9718 25.9892 40.0927 25.9892 C39.1183 25.9892 38.3499 25.7 37.7875 25.1215 C37.2252 24.543 36.944 23.7463 36.944 22.7313 C36.944 21.7104 37.25261 20.8782 37.8699 20.2346 C38.4871 19.591 39.30811 19.2692 40.333 19.2692 C40.9781 19.2692 41.5472 19.3654 42.0403 19.5579 L42.0403 20.9492 C41.5733 20.6381 41.0024 20.4825 40.3276 20.4825 C39.7625 20.4825 39.3021 20.6809 38.9462 21.0775 C38.5903 21.4742 38.4124 22.0036 38.4124 22.6656 C38.4124 23.3375 38.5694 23.8571 38.8834 24.2246 C39.1975 24.5921 39.6213 24.7759 40.1548 24.7759 C40.47511 24.7759 40.72931 24.7268 40.9174 24.6286 L40.9174 23.3759 L39.7081 23.3759 L39.7081 22.1625 L42.2994 22.1625 z" stroke="#FFFFFF" stroke-width="0.299998" stroke-linejoin="round" id="path37" xml:space="preserve" connector-curvature="0" style="fill:#000000;" />
    <path d="M16.343 31.9625 L16.343 33.0825 L15.8247 33.0825 L15.8247 37.3759 L16.343 37.3759 L16.343 38.4959 L13.9244 38.4959 L13.9244 37.3759 L14.4427 37.3759 L14.4427 33.0825 L13.9244 33.0825 L13.9244 31.9625 z" stroke="#FFFFFF" stroke-width="0.299998" stroke-linejoin="round" id="path39" xml:space="preserve" connector-curvature="0" style="fill:#000000;" />
    <path d="M21.5256 38.245 C21.0893 38.4745 20.5193 38.5892 19.8156 38.5892 C18.897 38.5892 18.1749 38.2961 17.6495 37.7098 C17.124 37.1236 16.8613 36.3429 16.8613 35.3677 C16.8613 34.3284 17.1568 33.4855 17.748 32.839 C18.3391 32.1925 19.1062 31.8692 20.0491 31.8692 C20.6331 31.8692 21.1252 31.9509 21.5256 32.1142 L21.5256 33.5492 C21.1315 33.3003 20.6826 33.1759 20.1787 33.1759 C19.6253 33.1759 19.1788 33.3635 18.8392 33.7388 C18.4995 34.11411 18.3297 34.62251 18.3297 35.2642 C18.3297 35.8796 18.4898 36.3699 18.8102 36.7349 C19.1305 37.1 19.5619 37.2825 20.1045 37.2825 C20.6218 37.2825 21.0956 37.1581 21.5256 36.9092 z" stroke="#FFFFFF" stroke-width="0.299998" stroke-linejoin="round" id="path41" xml:space="preserve" connector-curvature="0" style="fill:#000000;" />
    <path d="M25.1697 38.5892 C24.2987 38.5892 23.5888 38.2863 23.0399 37.6806 C22.4911 37.075 22.2167 36.2855 22.2167 35.3123 C22.2167 34.2856 22.4951 33.4551 23.0521 32.8208 C23.609 32.1864 24.3473 31.8692 25.2669 31.8692 C26.1351 31.8692 26.8372 32.1728 27.373 32.7799 C27.9088 33.3871 28.1767 34.1875 28.1767 35.1811 C28.1767 36.2029 27.8989 37.0263 27.3433 37.6515 C26.7877 38.2766 26.0632 38.5892 25.1697 38.5892 z M25.2277 33.1759 C24.7553 33.1759 24.3801 33.3642 24.1021 33.741 C23.8241 34.1177 23.6851 34.6167 23.6851 35.2379 C23.6851 35.8679 23.8241 36.3662 24.1021 36.7327 C24.3801 37.0993 24.7441 37.2825 25.194 37.2825 C25.6583 37.2825 26.0267 37.1044 26.2993 36.748 C26.572 36.3917 26.7083 35.8971 26.7083 35.2642 C26.7083 34.605 26.5762 34.0922 26.3122 33.7257 C26.0481 33.3591 25.6866 33.1759 25.2277 33.1759 z" stroke="#FFFFFF" stroke-width="0.299998" stroke-linejoin="round" id="path43" xml:space="preserve" connector-curvature="0" style="fill:#000000;" />
    <path d="M34.5686 38.4959 L33.1839 38.4959 L30.7073 34.3906 C30.5624 34.1505 30.4617 33.9697 30.405 33.8481 L30.3888 33.8481 C30.4113 34.0786 30.4225 34.431 30.4225 34.9054 L30.4225 38.4959 L29.1269 38.4959 L29.1269 31.9625 L30.6034 31.9625 L32.9882 35.9394 C33.0971 36.1193 33.1978 36.2972 33.2905 36.4731 L33.3067 36.4731 C33.2842 36.3215 33.273 36.0225 33.273 35.5763 L33.273 31.9625 L34.5686 31.9625 z" stroke="#FFFFFF" stroke-width="0.299998" stroke-linejoin="round" id="path45" xml:space="preserve" connector-curvature="0" style="fill:#000000;" />
  </g>
</svg>