<?xml version="1.0" encoding="utf-8"?>
<!DOCTYPE svg PUBLIC "-//W3C//DTD SVG 1.1//EN" "http://www.w3.org/Graphics/SVG/1.1/DTD/svg11.dtd">
<svg x="0" y="0" width="48" height="48" overflow="hidden" viewBox="0, 0, 48, 48" preserveAspectRatio="xMidYMid"
     font-size="0" id="svg" xml:space="preserve" xmlns="http://www.w3.org/2000/svg"
     xmlns:xml="http://www.w3.org/XML/1998/namespace" version="1.1">
  <defs id="def1" xml:space="preserve">
    <radialGradient cx="125.168" cy="223.167" r="110.973" fx="125.168" fy="223.167" gradientUnits="userSpaceOnUse" id="SVGID_Fill1_" xml:space="preserve">
      <stop offset="0%" stop-color="#545755" stop-opacity="0.552941" id="stop2" xml:space="preserve" />
      <stop offset="97.8448%" stop-color="#000000" stop-opacity="0.313725" id="stop4" xml:space="preserve" />
    </radialGradient>
    <filter x="none" y="none" width="none" height="none" color-interpolation-filters="auto" id="Filter_GaussianBlur1_" xml:space="preserve">
      <feGaussianBlur stdDeviation="4.53544" id="feGaussianBlur7" xml:space="preserve" />
    </filter>
    <linearGradient x1="48.95932" y1="54.89615" x2="232.5561" y2="54.89615" gradientUnits="userSpaceOnUse" gradientTransform="matrix(0.1684575, 0, 0, 0.2033265, -10.40987, -104.2549)" id="SVGID_Fill2_" xml:space="preserve">
      <stop offset="0%" stop-color="#719671" stop-opacity="1" id="stop12" xml:space="preserve" />
      <stop offset="100%" stop-color="#394D39" stop-opacity="1" id="stop14" xml:space="preserve" />
    </linearGradient>
    <linearGradient x1="117.3273" y1="99.73315" x2="231.771" y2="99.73315" gradientUnits="userSpaceOnUse" gradientTransform="matrix(0.1602257, 0, 0, 0.2137726, -10.40987, -104.2549)" id="SVGID_Fill3_" xml:space="preserve">
      <stop offset="0%" stop-color="#EFEFEF" stop-opacity="1" id="stop19" xml:space="preserve" />
      <stop offset="59.9287%" stop-color="#E8E8E8" stop-opacity="1" id="stop21" xml:space="preserve" />
      <stop offset="82.7586%" stop-color="#FFFFFF" stop-opacity="1" id="stop23" xml:space="preserve" />
      <stop offset="100%" stop-color="#D8D8D3" stop-opacity="1" id="stop25" xml:space="preserve" />
    </linearGradient>
    <linearGradient x1="130.7328" y1="140.4553" x2="191.3369" y2="140.4553" gradientUnits="userSpaceOnUse" gradientTransform="matrix(0.1691645, 0, 0, 0.2024767, -10.40987, -104.2549)" id="SVGID_Fill4_" xml:space="preserve">
      <stop offset="0%" stop-color="#FFFFFF" stop-opacity="1" id="stop34" xml:space="preserve" />
      <stop offset="37.931%" stop-color="#D5D7D6" stop-opacity="1" id="stop36" xml:space="preserve" />
      <stop offset="100%" stop-color="#ABAFAD" stop-opacity="1" id="stop38" xml:space="preserve" />
    </linearGradient>
    <linearGradient x1="75.61946" y1="53.50564" x2="118.2017" y2="53.50564" gradientUnits="userSpaceOnUse" gradientTransform="matrix(0.2841975, 0, 0, 0.1205214, -10.40987, -104.2549)" id="SVGID_Fill5_" xml:space="preserve">
      <stop offset="0%" stop-color="#979789" stop-opacity="1" id="stop47" xml:space="preserve" />
      <stop offset="50%" stop-color="#C1C1B8" stop-opacity="1" id="stop49" xml:space="preserve" />
      <stop offset="100%" stop-color="#7C7C6E" stop-opacity="1" id="stop51" xml:space="preserve" />
    </linearGradient>
    <linearGradient x1="75.73705" y1="34.50343" x2="86.27718" y2="34.50343" gradientUnits="userSpaceOnUse" gradientTransform="matrix(0.284149, 0, 0, 0.1205419, -10.40987, -104.2549)" id="SVGID_Fill6_" xml:space="preserve">
      <stop offset="0%" stop-color="#979789" stop-opacity="1" id="stop56" xml:space="preserve" />
      <stop offset="50%" stop-color="#C1C1B8" stop-opacity="1" id="stop58" xml:space="preserve" />
      <stop offset="100%" stop-color="#7C7C6E" stop-opacity="1" id="stop60" xml:space="preserve" />
    </linearGradient>
    <linearGradient x1="72.7583" y1="58.82835" x2="111.8811" y2="58.82835" gradientUnits="userSpaceOnUse" gradientTransform="matrix(0.2953943, 0, 0, 0.1159531, -10.40987, -104.2549)" id="SVGID_Fill7_" xml:space="preserve">
      <stop offset="0%" stop-color="#979789" stop-opacity="1" id="stop65" xml:space="preserve" />
      <stop offset="50%" stop-color="#C1C1B8" stop-opacity="1" id="stop67" xml:space="preserve" />
      <stop offset="100%" stop-color="#7C7C6E" stop-opacity="1" id="stop69" xml:space="preserve" />
    </linearGradient>
    <linearGradient x1="128.4372" y1="83.81046" x2="174.3245" y2="83.81046" gradientUnits="userSpaceOnUse" gradientTransform="matrix(0.1676813, 0, 0, 0.2042676, -10.40987, -104.2549)" id="SVGID_Fill8_" xml:space="preserve">
      <stop offset="0%" stop-color="#FFFFFF" stop-opacity="0.317647" id="stop74" xml:space="preserve" />
      <stop offset="73.2759%" stop-color="#7F7F7F" stop-opacity="0.317647" id="stop76" xml:space="preserve" />
      <stop offset="100%" stop-color="#000000" stop-opacity="0.317647" id="stop78" xml:space="preserve" />
    </linearGradient>
  </defs>
  <g transform="translate(7.307693, 106.1538)" id="g1180" xml:space="preserve">
    <path d="M198.386 239.842 L51.95 239.842 C36.3328 239.903 14.1951 232.357 14.1951 223.138 C14.1951 213.915 31.6223 206.435 51.95 206.435 L51.95 206.43 L198.386 206.43 L198.386 206.435 C218.714 206.435 236.141 213.915 236.141 223.138 C236.141 232.357 214.006 239.903 198.386 239.842 z" filter="url(#Filter_GaussianBlur1_)" stroke-width="0.2" stroke-linejoin="round" transform="matrix(0.1727379, 0, 0, 0.1982881, -10.40987, -104.2549)" id="path10" xml:space="preserve" connector-curvature="0" style="fill:url(#SVGID_Fill1_);" />
    <path d="M-3.627073 -97.18005 C-4.249119 -97.18005 -4.754222 -96.6011 -4.754222 -95.88614 L-4.754222 -60.21234 C-4.754222 -59.49751 -4.249119 -58.91851 -3.627073 -58.91851 L25.81845 -58.91851 C26.44134 -58.91851 26.94573 -59.49751 26.94573 -60.21234 L26.94573 -95.88614 C26.94573 -96.6011 26.44134 -97.18005 25.81845 -97.18005 z" stroke-width="0.03701452" stroke-linejoin="round" id="path17" xml:space="preserve" connector-curvature="0" style="fill:url(#SVGID_Fill2_);" />
    <path d="M-0.9902983 -95.28862 C-1.244465 -95.28862 -1.450731 -95.05087 -1.450731 -94.76003 L-1.450731 -62.28009 C-1.450731 -61.98821 -1.244465 -61.75245 -0.9902983 -61.75245 L23.22479 -61.75245 C23.4782 -61.75245 23.68513 -61.98821 23.68513 -62.28009 L23.68513 -94.76003 C23.68513 -95.05087 23.47819 -95.28862 23.22479 -95.28862 z" stroke-width="0.03701452" stroke-linejoin="round" id="path28" xml:space="preserve" connector-curvature="0" style="fill:url(#SVGID_Fill3_);" />
    <path d="M-0.9906265 -95.28838 L23.22444 -95.28838 C23.47854 -95.28838 23.68496 -95.05155 23.68496 -94.75979 L23.68496 -62.2797 C23.68496 -61.98801 23.47854 -61.75126 23.22444 -61.75126 L-0.9906265 -61.75126 C-1.243998 -61.75126 -1.45023 -61.98801 -1.45023 -62.2797 L-1.45023 -94.75979 C-1.45023 -95.05155 -1.243998 -95.28838 -0.9906266 -95.28838 z" stroke="#888A85" stroke-width="0.2467629" stroke-linejoin="round" id="path30" xml:space="preserve" connector-curvature="0" style="fill:none;" />
    <path d="M7.03683 -101.3749 L15.18349 -101.3749 C15.62536 -101.3749 15.98258 -100.9647 15.98258 -100.4576 L15.98258 -98.56342 C15.98258 -98.05629 15.62536 -97.64615 15.18349 -97.64615 L7.03683 -97.64615 C6.595952 -97.64615 6.237832 -98.05629 6.237832 -98.56342 L6.237832 -100.4576 C6.237832 -100.9647 6.595952 -101.3749 7.03683 -101.3749 z" stroke-width="0.03701452" stroke-linejoin="round" id="path32" xml:space="preserve" connector-curvature="0" style="fill:#5C5C5C;" />
    <rect x="-4.002881" y="-96.35408" width="30.35971" height="36.35514" stroke="#4A634A" stroke-width="0.3701453" stroke-linejoin="round" id="rect41" xml:space="preserve" style="fill:url(#SVGID_Fill4_);" />
    <path d="M-3.573472 -96.31244 L25.76576 -96.31244 C25.98013 -96.31244 26.1539 -96.11294 26.1539 -95.86591 L26.1539 -60.31704 C26.1539 -60.06997 25.98013 -59.87069 25.76576 -59.87069 L-3.573472 -59.87069 C-3.78784 -59.87069 -3.962426 -60.06997 -3.962426 -60.31704 L-3.962426 -95.86591 C-3.962426 -96.11294 -3.78784 -96.31244 -3.573472 -96.31244 z" stroke="#4A634A" stroke-width="0.2467629" stroke-linejoin="round" id="path43" xml:space="preserve" connector-curvature="0" style="fill:#C1C9C1;" />
    <path d="M4.759316 -97.20591 L17.89202 -97.20591 C18.51405 -97.20591 19.01845 -96.6261 19.01845 -95.9121 L19.01845 -91.97452 C19.01845 -91.25955 18.51405 -90.68071 17.89202 -90.68071 L4.759316 -90.68071 C4.13727 -90.68071 3.632133 -91.25955 3.632133 -91.97452 L3.632133 -95.9121 C3.632133 -96.6261 4.13727 -97.20591 4.759316 -97.20591 z" stroke="#000000" fill-opacity="0.109804" stroke-width="0.2467629" stroke-linejoin="round" stroke-opacity="0.109804" id="path45" xml:space="preserve" connector-curvature="0" style="fill:#000000;" />
    <path d="M4.54393 -98.11224 C3.921901 -98.11224 3.416798 -97.5333 3.416798 -96.81931 L3.416798 -92.88075 C3.416798 -92.16579 3.9219 -91.58694 4.54393 -91.58694 L17.67662 -91.58694 C18.29882 -91.58694 18.80391 -92.16578 18.80391 -92.88075 L18.80391 -96.81931 C18.80391 -97.5333 18.29882 -98.11224 17.67662 -98.11224 z" stroke-width="0.03701452" stroke-linejoin="round" id="path54" xml:space="preserve" connector-curvature="0" style="fill:url(#SVGID_Fill5_);" />
    <path d="M7.43741 -100.2488 C7.291101 -100.2488 7.172603 -100.1118 7.172603 -99.94489 L7.172603 -97.21172 C7.172603 -97.0449 7.291101 -96.90784 7.43741 -96.90784 L14.78447 -96.90784 C14.9294 -96.90784 15.04807 -97.04489 15.04807 -97.21172 L15.04807 -99.94489 C15.04807 -100.1118 14.9294 -100.2488 14.78447 -100.2488 z" stroke-width="0.03701452" stroke-linejoin="round" id="path63" xml:space="preserve" connector-curvature="0" style="fill:url(#SVGID_Fill6_);" />
    <path d="M4.586147 -97.7039 C4.132209 -97.7039 3.764381 -97.28161 3.764381 -96.76053 L3.764381 -92.88074 C3.764381 -92.35879 4.132209 -91.9365 4.586147 -91.9365 L17.63534 -91.9365 C18.08929 -91.9365 18.45705 -92.3588 18.45705 -92.88074 L18.45705 -96.76053 C18.45705 -97.28161 18.08929 -97.7039 17.63534 -97.7039 z" stroke-width="0.03701452" stroke-linejoin="round" id="path72" xml:space="preserve" connector-curvature="0" style="fill:url(#SVGID_Fill7_);" />
    <rect x="-3.791174" y="-96.35408" width="29.84357" height="36.35514" stroke-width="0.03701452" stroke-linejoin="round" id="rect81" xml:space="preserve" style="fill:url(#SVGID_Fill8_);" />
    <rect x="2.98967" y="-87.3921" width="17.05339" height="1.864372" fill-opacity="0.333333" stroke-width="0.03701452" stroke-linejoin="round" id="rect83" xml:space="preserve" style="fill:#000000;" />
    <rect x="2.98967" y="-83.66329" width="16.24132" height="1.864325" fill-opacity="0.333333" stroke-width="0.03701452" stroke-linejoin="round" id="rect85" xml:space="preserve" style="fill:#000000;" />
    <rect x="2.98967" y="-79.93468" width="14.61718" height="1.864372" fill-opacity="0.333333" stroke-width="0.03701452" stroke-linejoin="round" id="rect87" xml:space="preserve" style="fill:#000000;" />
    <rect x="2.98967" y="-76.20587" width="17.05339" height="1.864372" fill-opacity="0.333333" stroke-width="0.03701452" stroke-linejoin="round" id="rect89" xml:space="preserve" style="fill:#000000;" />
    <rect x="2.98967" y="-72.47726" width="10.55682" height="1.864372" fill-opacity="0.333333" stroke-width="0.03701452" stroke-linejoin="round" id="rect91" xml:space="preserve" style="fill:#000000;" />
  </g>
  <g transform="matrix(0.2304635, 0, 0, 0.2219905, -9.994122, -9.320401)" id="g298" xml:space="preserve">
    <linearGradient x1="190.4677" y1="166.0365" x2="225.7168" y2="166.0365" gradientUnits="userSpaceOnUse" gradientTransform="scale(0.899869, 1.111273)" id="SVGID_Stroke1_" xml:space="preserve">
      <stop offset="21.1207%" stop-color="#C0AB95" stop-opacity="1" id="stop95" xml:space="preserve" />
      <stop offset="57.3276%" stop-color="#F2D7BA" stop-opacity="1" id="stop97" xml:space="preserve" />
      <stop offset="84.0517%" stop-color="#C0AB95" stop-opacity="1" id="stop99" xml:space="preserve" />
    </linearGradient>
    <linearGradient x1="191.4799" y1="166.3504" x2="228.9385" y2="166.3504" gradientUnits="userSpaceOnUse" gradientTransform="scale(0.899869, 1.111273)" id="SVGID_Fill9_" xml:space="preserve">
      <stop offset="21.1207%" stop-color="#C0AB95" stop-opacity="1" id="stop102" xml:space="preserve" />
      <stop offset="57.3276%" stop-color="#F2D7BA" stop-opacity="1" id="stop104" xml:space="preserve" />
      <stop offset="84.0517%" stop-color="#C0AB95" stop-opacity="1" id="stop106" xml:space="preserve" />
    </linearGradient>
    <path d="M144.93 189.345 C146.932 191.456 149.329 194.261 151.102 196.663 C151.22 196.823 151.336 196.982 151.449 197.14 L172.778 186.617 C172.607 185.902 172.368 185.11 171.872 184.031 C171.198 182.564 170.049 180.565 168.276 178.164 C166.503 175.762 164.106 172.958 162.105 170.847 C160.103 168.736 158.496 167.319 156.47 165.704 C154.445 164.088 151.999 162.273 149.77 160.837 C148.282 159.879 146.891 159.089 145.532 158.354 L141.751 186.255 C142.782 187.17 143.792 188.146 144.93 189.345 z" stroke="url(#SVGID_Stroke1_)" stroke-width="2" stroke-linejoin="round" id="path109" xml:space="preserve" connector-curvature="0" style="fill:url(#SVGID_Fill9_);" />
    <linearGradient x1="175.3107" y1="170.7996" x2="190.7918" y2="170.7996" gradientUnits="userSpaceOnUse" gradientTransform="scale(0.8623324, 1.159646)" id="SVGID_Stroke2_" xml:space="preserve">
      <stop offset="0%" stop-color="#39393B" stop-opacity="1" id="stop111" xml:space="preserve" />
      <stop offset="52.5862%" stop-color="#AFABAB" stop-opacity="1" id="stop113" xml:space="preserve" />
      <stop offset="100%" stop-color="#39393B" stop-opacity="1" id="stop115" xml:space="preserve" />
    </linearGradient>
    <linearGradient x1="176.4174" y1="171.1504" x2="194.3601" y2="171.1504" gradientUnits="userSpaceOnUse" gradientTransform="scale(0.8623324, 1.159646)" id="SVGID_Fill10_" xml:space="preserve">
      <stop offset="0%" stop-color="#39393B" stop-opacity="1" id="stop118" xml:space="preserve" />
      <stop offset="53.4483%" stop-color="#AFABAB" stop-opacity="1" id="stop120" xml:space="preserve" />
      <stop offset="100%" stop-color="#39393B" stop-opacity="1" id="stop122" xml:space="preserve" />
    </linearGradient>
    <path d="M141.751 186.255 L139.475 203.047 L151.449 197.14 C151.336 196.982 151.22 196.823 151.102 196.663 C149.329 194.261 146.932 191.456 144.93 189.345 C143.792 188.146 142.782 187.17 141.751 186.255 z" stroke="url(#SVGID_Stroke2_)" stroke-width="2" stroke-linejoin="round" id="path125" xml:space="preserve" connector-curvature="0" style="fill:url(#SVGID_Fill10_);" />
    <linearGradient x1="214.6326" y1="67.45199" x2="256.1775" y2="67.45199" gradientUnits="userSpaceOnUse" gradientTransform="scale(0.9269456, 1.078812)" id="SVGID_Stroke3_" xml:space="preserve">
      <stop offset="4.97804%" stop-color="#839597" stop-opacity="1" id="stop127" xml:space="preserve" />
      <stop offset="8.345531%" stop-color="#DADCDC" stop-opacity="1" id="stop129" xml:space="preserve" />
      <stop offset="10.5417%" stop-color="#C4CBCC" stop-opacity="1" id="stop131" xml:space="preserve" />
      <stop offset="12.8843%" stop-color="#839597" stop-opacity="1" id="stop133" xml:space="preserve" />
      <stop offset="15.9592%" stop-color="#475253" stop-opacity="1" id="stop135" xml:space="preserve" />
      <stop offset="19.7657%" stop-color="#353E3F" stop-opacity="1" id="stop137" xml:space="preserve" />
      <stop offset="20.6442%" stop-color="#FFFFFF" stop-opacity="1" id="stop139" xml:space="preserve" />
      <stop offset="21.2299%" stop-color="#F1F1F1" stop-opacity="1" id="stop141" xml:space="preserve" />
      <stop offset="39.0922%" stop-color="#DCE4E5" stop-opacity="1" id="stop143" xml:space="preserve" />
      <stop offset="46.7057%" stop-color="#839597" stop-opacity="1" id="stop145" xml:space="preserve" />
      <stop offset="48.6091%" stop-color="#676C6C" stop-opacity="1" id="stop147" xml:space="preserve" />
      <stop offset="50.5124%" stop-color="#444949" stop-opacity="1" id="stop149" xml:space="preserve" />
      <stop offset="52.8551%" stop-color="#323434" stop-opacity="1" id="stop151" xml:space="preserve" />
      <stop offset="55.6369%" stop-color="#484D4D" stop-opacity="1" id="stop153" xml:space="preserve" />
      <stop offset="60.6149%" stop-color="#839597" stop-opacity="1" id="stop155" xml:space="preserve" />
      <stop offset="77.4524%" stop-color="#839597" stop-opacity="1" id="stop157" xml:space="preserve" />
      <stop offset="78.6237%" stop-color="#FFFFFF" stop-opacity="1" id="stop159" xml:space="preserve" />
      <stop offset="87.2621%" stop-color="#FFFFFF" stop-opacity="1" id="stop161" xml:space="preserve" />
      <stop offset="98.5359%" stop-color="#839597" stop-opacity="1" id="stop163" xml:space="preserve" />
    </linearGradient>
    <linearGradient x1="213.6842" y1="67.02976" x2="257.3002" y2="67.02976" gradientUnits="userSpaceOnUse" gradientTransform="scale(0.9269456, 1.078812)" id="SVGID_Fill11_" xml:space="preserve">
      <stop offset="4.97804%" stop-color="#839597" stop-opacity="1" id="stop166" xml:space="preserve" />
      <stop offset="8.345531%" stop-color="#DADCDC" stop-opacity="1" id="stop168" xml:space="preserve" />
      <stop offset="10.5417%" stop-color="#C4CBCC" stop-opacity="1" id="stop170" xml:space="preserve" />
      <stop offset="12.8843%" stop-color="#839597" stop-opacity="1" id="stop172" xml:space="preserve" />
      <stop offset="15.9592%" stop-color="#475253" stop-opacity="1" id="stop174" xml:space="preserve" />
      <stop offset="19.7657%" stop-color="#353E3F" stop-opacity="1" id="stop176" xml:space="preserve" />
      <stop offset="20.6442%" stop-color="#FFFFFF" stop-opacity="1" id="stop178" xml:space="preserve" />
      <stop offset="21.2299%" stop-color="#F1F1F1" stop-opacity="1" id="stop180" xml:space="preserve" />
      <stop offset="39.0922%" stop-color="#DCE4E5" stop-opacity="1" id="stop182" xml:space="preserve" />
      <stop offset="46.7057%" stop-color="#839597" stop-opacity="1" id="stop184" xml:space="preserve" />
      <stop offset="48.6091%" stop-color="#676C6C" stop-opacity="1" id="stop186" xml:space="preserve" />
      <stop offset="50.5124%" stop-color="#444949" stop-opacity="1" id="stop188" xml:space="preserve" />
      <stop offset="52.8551%" stop-color="#323434" stop-opacity="1" id="stop190" xml:space="preserve" />
      <stop offset="55.6369%" stop-color="#484D4D" stop-opacity="1" id="stop192" xml:space="preserve" />
      <stop offset="60.6149%" stop-color="#839597" stop-opacity="1" id="stop194" xml:space="preserve" />
      <stop offset="77.4524%" stop-color="#839597" stop-opacity="1" id="stop196" xml:space="preserve" />
      <stop offset="78.6237%" stop-color="#FFFFFF" stop-opacity="1" id="stop198" xml:space="preserve" />
      <stop offset="87.2621%" stop-color="#FFFFFF" stop-opacity="1" id="stop200" xml:space="preserve" />
      <stop offset="98.5359%" stop-color="#839597" stop-opacity="1" id="stop202" xml:space="preserve" />
    </linearGradient>
    <path d="M201.959 80.7456 C204.188 82.1821 206.634 83.9966 208.66 85.6123 C210.686 87.228 212.292 88.6445 214.294 90.75539 C216.296 92.866 218.692 95.67069 220.466 98.0723 C222.238 100.474 223.387 102.472 224.061 103.939 C224.422 104.724 224.647 105.357 224.809 105.919 L235.462 89.2573 C235.281 88.438 235.054 87.5652 234.469 86.2925 C233.794 84.82571 232.646 82.8271 230.873 80.42551 C229.1 78.02421 226.703 75.21951 224.701 73.10891 C222.699 70.99801 221.093 69.58111 219.067 67.96561 C217.041 66.35011 214.596 64.53521 212.366 63.09861 C210.71 62.03101 209.172 61.17241 207.665 60.36691 L196.604 77.6665 C198.322 78.5742 200.062 79.5232 201.959 80.74561 z" stroke="url(#SVGID_Stroke3_)" stroke-width="2" stroke-linejoin="round" id="path205" xml:space="preserve" connector-curvature="0" style="fill:url(#SVGID_Fill11_);" />
    <linearGradient x1="210.3201" y1="101.002" x2="283.362" y2="101.002" gradientUnits="userSpaceOnUse" gradientTransform="scale(0.8025756, 1.245988)" id="SVGID_Stroke4_" xml:space="preserve">
      <stop offset="0%" stop-color="#F40000" stop-opacity="1" id="stop207" xml:space="preserve" />
      <stop offset="46.9828%" stop-color="#E20001" stop-opacity="1" id="stop209" xml:space="preserve" />
      <stop offset="65.9483%" stop-color="#570B0D" stop-opacity="1" id="stop211" xml:space="preserve" />
    </linearGradient>
    <linearGradient x1="209.1272" y1="100.7157" x2="284.607" y2="100.7157" gradientUnits="userSpaceOnUse" gradientTransform="scale(0.8025756, 1.245988)" id="SVGID_Fill12_" xml:space="preserve">
      <stop offset="0%" stop-color="#F40000" stop-opacity="1" id="stop214" xml:space="preserve" />
      <stop offset="46.9828%" stop-color="#E20001" stop-opacity="1" id="stop216" xml:space="preserve" />
      <stop offset="65.9483%" stop-color="#570B0D" stop-opacity="1" id="stop218" xml:space="preserve" />
    </linearGradient>
    <path d="M168.479 178.121 C170.252 180.522 171.401 182.521 172.075 183.987 C172.641 185.218 172.873 186.075 173.05 186.871 L224.809 105.919 C224.647 105.357 224.422 104.724 224.061 103.939 C223.387 102.472 222.238 100.474 220.466 98.0723 C220.187 97.69579 219.894 97.3093 219.589 96.917 L167.579 176.934 C167.892 177.337 168.194 177.734 168.479 178.121 z" stroke="url(#SVGID_Stroke4_)" stroke-width="2" stroke-linejoin="round" id="path221" xml:space="preserve" connector-curvature="0" style="fill:url(#SVGID_Fill12_);" />
    <linearGradient x1="182.5192" y1="92.45444" x2="263.4973" y2="92.45444" gradientUnits="userSpaceOnUse" gradientTransform="scale(0.845948, 1.182106)" id="SVGID_Stroke5_" xml:space="preserve">
      <stop offset="0%" stop-color="#F40000" stop-opacity="1" id="stop223" xml:space="preserve" />
      <stop offset="46.9828%" stop-color="#E20001" stop-opacity="1" id="stop225" xml:space="preserve" />
      <stop offset="65.9483%" stop-color="#570B0D" stop-opacity="1" id="stop227" xml:space="preserve" />
    </linearGradient>
    <linearGradient x1="181.4325" y1="92.10477" x2="264.677" y2="92.10477" gradientUnits="userSpaceOnUse" gradientTransform="scale(0.845948, 1.182106)" id="SVGID_Fill13_" xml:space="preserve">
      <stop offset="0%" stop-color="#F40000" stop-opacity="1" id="stop230" xml:space="preserve" />
      <stop offset="46.9828%" stop-color="#E20001" stop-opacity="1" id="stop232" xml:space="preserve" />
      <stop offset="65.9483%" stop-color="#570B0D" stop-opacity="1" id="stop234" xml:space="preserve" />
    </linearGradient>
    <path d="M156.674 165.661 C158.7 167.276 160.306 168.693 162.308 170.803 C163.987 172.574 165.945 174.834 167.579 176.934 L219.589 96.91699 C217.95 94.80829 215.982 92.53519 214.294 90.75539 C212.292 88.64449 210.686 87.228 208.66 85.6123 C206.849 84.1685 204.703 82.5654 202.677 81.2156 L151.659 161.921 C153.388 163.117 155.15 164.445 156.674 165.661 z" stroke="url(#SVGID_Stroke5_)" stroke-width="2" stroke-linejoin="round" id="path237" xml:space="preserve" connector-curvature="0" style="fill:url(#SVGID_Fill13_);" />
    <linearGradient x1="176.8837" y1="85.22146" x2="248.1163" y2="85.22146" gradientUnits="userSpaceOnUse" gradientTransform="scale(0.8302531, 1.204452)" id="SVGID_Stroke6_" xml:space="preserve">
      <stop offset="0%" stop-color="#F40000" stop-opacity="1" id="stop239" xml:space="preserve" />
      <stop offset="47.4138%" stop-color="#E20001" stop-opacity="1" id="stop241" xml:space="preserve" />
      <stop offset="54.3103%" stop-color="#570B0D" stop-opacity="1" id="stop243" xml:space="preserve" />
    </linearGradient>
    <linearGradient x1="175.7479" y1="84.88352" x2="249.3345" y2="84.88352" gradientUnits="userSpaceOnUse" gradientTransform="scale(0.8302531, 1.204452)" id="SVGID_Fill14_" xml:space="preserve">
      <stop offset="0%" stop-color="#F40000" stop-opacity="1" id="stop246" xml:space="preserve" />
      <stop offset="47.4138%" stop-color="#E20001" stop-opacity="1" id="stop248" xml:space="preserve" />
      <stop offset="54.3103%" stop-color="#570B0D" stop-opacity="1" id="stop250" xml:space="preserve" />
    </linearGradient>
    <path d="M202.677 81.2156 C202.436 81.0552 202.196 80.8982 201.959 80.7456 C200.062 79.5232 198.322 78.5742 196.604 77.6665 L145.22 158.034 C146.743 158.847 148.297 159.714 149.973 160.794 C150.525 161.149 151.091 161.528 151.659 161.921 z" stroke="url(#SVGID_Stroke6_)" stroke-width="2" stroke-linejoin="round" id="path253" xml:space="preserve" connector-curvature="0" style="fill:url(#SVGID_Fill14_);" />
    <linearGradient x1="159.5463" y1="93.40244" x2="241.1989" y2="93.40244" gradientUnits="userSpaceOnUse" gradientTransform="scale(0.9275604, 1.078097)" id="SVGID_Fill15_" xml:space="preserve">
      <stop offset="43.5345%" stop-color="#EEEBEB" stop-opacity="0.156863" id="stop255" xml:space="preserve" />
      <stop offset="69.8276%" stop-color="#EEEEEE" stop-opacity="0.392157" id="stop257" xml:space="preserve" />
    </linearGradient>
    <path d="M196.147 76.9541 L144.355 158.207 L153.352 164.097 L170.933 137.591 L185.069 120.883 L198.435 107.098 L207.77 99.55661 L211.828 97.50151 L216.029 95.79591 L219.33 94.98631 L216.747 92.03881 L214.313 89.56031 L211.515 86.98581 L207.836 83.74901 L204.188 80.98931 L199.585 78.29051 z" stroke-width="0.2" stroke-linejoin="round" id="path260" xml:space="preserve" connector-curvature="0" style="fill:url(#SVGID_Fill15_);" />
    <path d="M197.821 73.4458 C199.834 74.5044 201.847 75.5625 204.076 76.999 C206.306 78.4355 208.751 80.2505 210.777 81.866 C212.803 83.4814 214.409 84.8984 216.411 87.0093 C218.413 89.1199 220.81 91.9246 222.583 94.3259 C224.355 96.72749 225.504 98.7261 226.178 100.193 C226.853 101.66 227.052 102.594 227.252 103.53" stroke="#000000" stroke-linejoin="round" id="path262" xml:space="preserve" connector-curvature="0" style="fill:none;" />
    <path d="M198.749 72.9871 C200.762 74.0457 202.775 75.104 205.005 76.5405 C207.234 77.9771 209.679 79.79169 211.705 81.4072 C213.731 83.0229 215.338 84.4399 217.339 86.5505 C219.341 88.6611 221.738 91.4658 223.511 93.8672 C225.284 96.269 226.433 98.2673 227.107 99.7341 C227.781 101.201 227.98 102.136 228.18 103.071" stroke="#E8EDEE" stroke-linejoin="round" id="path264" xml:space="preserve" connector-curvature="0" style="fill:none;" />
    <path d="M198.346 72.9333 C200.36 73.9919 202.373 75.05029 204.602 76.48679 C206.831 77.92329 209.277 79.73799 211.303 81.35349 C213.329 82.96919 214.935 84.38619 216.937 86.4968 C218.938 88.6074 221.336 91.41209 223.108 93.81349 C224.881 96.21529 226.03 98.21359 226.704 99.68039 C227.378 101.147 227.578 102.082 227.777 103.017" stroke="#678185" stroke-linejoin="round" id="path266" xml:space="preserve" connector-curvature="0" style="fill:none;" />
    <path d="M204.241 64.0151 C206.255 65.0737 208.268 66.1318 210.497 67.5684 C212.727 69.0049 215.172 70.81979 217.198 72.4353 C219.224 74.0508 220.83 75.4678 222.832 77.5786 C224.834 79.6892 227.23 82.4939 229.003 84.89529 C230.776 87.29689 231.925 89.29539 232.599 90.76219 C233.273 92.22899 233.473 93.16379 233.672 94.09909" stroke="#000000" stroke-linejoin="round" id="path268" xml:space="preserve" connector-curvature="0" style="fill:none;" />
    <path d="M205.17 63.5574 C207.183 64.616 209.196 65.6743 211.426 67.1108 C213.655 68.5474 216.1 70.3621 218.126 71.9775 C220.152 73.5933 221.759 75.0103 223.76 77.1208 C225.762 79.23141 228.159 82.0361 229.932 84.4375 C231.705 86.8394 232.854 88.8376 233.528 90.3044 C234.202 91.77119 234.401 92.7061 234.601 93.6414" stroke="#E8EDEE" stroke-linejoin="round" id="path270" xml:space="preserve" connector-curvature="0" style="fill:none;" />
    <path d="M204.767 63.5034 C206.78 64.562 208.794 65.6201 211.023 67.0566 C213.252 68.4932 215.698 70.30811 217.724 71.9236 C219.749 73.5391 221.356 74.9561 223.357 77.0669 C225.359 79.17751 227.756 81.9822 229.529 84.3835 C231.302 86.7852 232.451 88.7837 233.125 90.2505 C233.799 91.71729 233.999 92.6521 234.198 93.58739" stroke="#678185" stroke-linejoin="round" id="path272" xml:space="preserve" connector-curvature="0" style="fill:none;" />
    <linearGradient x1="220.7731" y1="55.2407" x2="259.1631" y2="55.2407" gradientUnits="userSpaceOnUse" gradientTransform="scale(0.9537596, 1.048482)" id="SVGID_Stroke7_" xml:space="preserve">
      <stop offset="0%" stop-color="#BD0707" stop-opacity="1" id="stop274" xml:space="preserve" />
      <stop offset="9.31373%" stop-color="#FC0909" stop-opacity="1" id="stop276" xml:space="preserve" />
      <stop offset="20.5882%" stop-color="#FEAFAF" stop-opacity="1" id="stop278" xml:space="preserve" />
      <stop offset="85.7843%" stop-color="#FF0606" stop-opacity="1" id="stop280" xml:space="preserve" />
      <stop offset="100%" stop-color="#AF0F0F" stop-opacity="1" id="stop282" xml:space="preserve" />
    </linearGradient>
    <linearGradient x1="219.8516" y1="54.72495" x2="260.3398" y2="54.72495" gradientUnits="userSpaceOnUse" gradientTransform="scale(0.9537596, 1.048482)" id="SVGID_Fill16_" xml:space="preserve">
      <stop offset="0%" stop-color="#BD0707" stop-opacity="1" id="stop285" xml:space="preserve" />
      <stop offset="9.31373%" stop-color="#FC0909" stop-opacity="1" id="stop287" xml:space="preserve" />
      <stop offset="20.5882%" stop-color="#FEAFAF" stop-opacity="1" id="stop289" xml:space="preserve" />
      <stop offset="85.7843%" stop-color="#FF0606" stop-opacity="1" id="stop291" xml:space="preserve" />
      <stop offset="100%" stop-color="#AF0F0F" stop-opacity="1" id="stop293" xml:space="preserve" />
    </linearGradient>
    <path d="M213.118 62.2241 C215.347 63.6606 217.792 65.4753 219.818 67.0908 C221.844 68.7065 223.451 70.1235 225.452 72.2341 C227.454 74.3447 229.851 77.1494 231.624 79.5508 C233.397 81.9526 234.546 83.9509 235.22 85.41769 C235.805 86.69039 236.032 87.56319 236.213 88.38259 L241.631 78.65579 C241.472 78.11499 247.14 74.31229 242.253 69.0378 C241.579 67.571 242.481 69.2393 240.708 66.8379 C238.935 64.43629 236.538 61.6316 234.536 59.521 C232.535 57.4102 230.928 55.9937 228.902 54.3777 C226.877 52.7622 224.431 50.9478 222.202 49.5112 C217.302 47.6865 215.812 49.9771 213.054 51.1509 L208.416 59.4922 C209.924 60.2976 211.461 61.1563 213.118 62.2241 z" stroke="url(#SVGID_Stroke7_)" stroke-width="2" stroke-linejoin="round" id="path296" xml:space="preserve" connector-curvature="0" style="fill:url(#SVGID_Fill16_);" />
  </g>
</svg>