<?xml version="1.0" encoding="utf-8"?>
<!DOCTYPE svg PUBLIC "-//W3C//DTD SVG 1.1//EN" "http://www.w3.org/Graphics/SVG/1.1/DTD/svg11.dtd">
<svg x="0" y="0" width="58" height="58.08908" overflow="hidden" viewBox="0, 0, 78.13, 78.25"
     preserveAspectRatio="xMidYMid" font-size="0" id="svg" xml:space="preserve" xmlns="http://www.w3.org/2000/svg"
     xmlns:xml="http://www.w3.org/XML/1998/namespace" version="1.1">
  <g xml:space="preserve">
    <path d="M11.5 0.499988 L66.625 0.499988 C72.7001 0.499988 77.625 5.42485 77.625 11.5 L77.625 66.75 C77.625 72.8251 72.7001 77.75 66.625 77.75 L11.5 77.75 C5.42487 77.75 0.5 72.8251 0.5 66.75 L0.5 11.5 C0.5 5.42485 5.42487 0.499988 11.5 0.499988 z" stroke="#000000" stroke-linejoin="round" xml:space="preserve" style="fill:#8C9E64;" />
    <linearGradient x1="0.5" y1="-2.34738" x2="6.19475" y2="-2.34738" gradientUnits="objectBoundingBox" gradientTransform="rotate(90, 0.5, -2.347377)" id="SVGID_Fill1_" xml:space="preserve">
      <stop offset="42.7907%" stop-color="#EEEAEA" stop-opacity="1" xml:space="preserve" />
      <stop offset="57.6744%" stop-color="#FFFFFF" stop-opacity="0" xml:space="preserve" />
    </linearGradient>
    <path d="M65.9047 0.85419 L12.0427 0.85419 C6.5537 0.85419 2.0257 5.06541 1.37502 10.5032 C2.66072 13.0152 5.23253 14.7292 8.19543 14.7292 L70.1183 14.7292 C72.8569 14.7292 75.2614 13.2649 76.625 11.0596 C76.2272 5.35539 71.5795 0.85419 65.9047 0.85419 z" stroke-width="0.2" stroke-linejoin="round" xml:space="preserve" style="fill:url(#SVGID_Fill1_);" />
  </g>
  <g xml:space="preserve">
    <path d="M44.5925 19.595 L38.4325 40.875 L35.3525 40.875 L31.205 25.4488 C31.0183 24.7459 30.9075 24.0079 30.8725 23.235 L30.5925 23.235 C30.5371 23.9992 30.4073 24.7269 30.2031 25.4181 L25.8325 40.875 L22.7525 40.875 L16.5925 19.595 L19.6725 19.595 L23.8244 35.6163 C24.0081 36.3396 24.1175 37.0658 24.1525 37.795 L24.4325 37.795 C24.4791 37.2467 24.6293 36.5204 24.8831 35.6163 L29.4725 19.595 L32.2725 19.595 L36.4156 35.765 C36.5527 36.2958 36.665 36.9725 36.7525 37.795 L37.0325 37.795 C37.0762 37.2 37.206 36.5044 37.4219 35.7081 L41.5125 19.595 L44.5925 19.595 z" stroke-width="0.2" stroke-linejoin="round" xml:space="preserve" style="fill:#000000;" />
    <path d="M50.4725 33.035 L50.4725 40.875 L47.6725 40.875 L47.6725 19.595 L53.6531 19.595 C55.9281 19.595 57.6934 20.1536 58.949 21.2706 C60.2047 22.3877 60.8325 23.9861 60.8325 26.0656 C60.8325 28.1715 60.104 29.8777 58.6472 31.1844 C57.1903 32.4911 55.3696 33.1079 53.185 33.035 L50.4725 33.035 z M50.4725 22.115 L50.4725 30.515 L52.9794 30.515 C54.6331 30.515 55.8887 30.141 56.7462 29.3928 C57.6037 28.6447 58.0325 27.5736 58.0325 26.1794 C58.0325 23.4698 56.4341 22.115 53.2375 22.115 L50.4725 22.115 z" stroke-width="0.2" stroke-linejoin="round" xml:space="preserve" style="fill:#000000;" />
  </g>
  <linearGradient x1="0.499968" y1="1.01874" x2="1.53738" y2="1.01874" gradientUnits="objectBoundingBox" gradientTransform="rotate(-90, 0.499968, 1.018736)" id="SVGID_Fill2_" xml:space="preserve">
    <stop offset="0%" stop-color="#FF00D2" stop-opacity="1" xml:space="preserve" />
    <stop offset="100%" stop-color="#461F49" stop-opacity="1" xml:space="preserve" />
  </linearGradient>
  <path d="M11.6514 56.7863 L66.4733 56.7863 C67.9032 56.7863 69.0624 57.9455 69.0624 59.3753 L69.0624 59.3753 C69.0624 60.8051 67.9032 61.9643 66.4733 61.9643 L11.6514 61.9643 C10.2216 61.9643 9.06239 60.8051 9.06239 59.3753 L9.06239 59.3753 C9.06239 57.9455 10.2216 56.7863 11.6514 56.7863 z" stroke-width="0.2" stroke-linejoin="round" xml:space="preserve" style="fill:url(#SVGID_Fill2_);" />
</svg>