<?xml version="1.0" encoding="utf-8"?>
<!DOCTYPE svg PUBLIC "-//W3C//DTD SVG 1.1//EN" "http://www.w3.org/Graphics/SVG/1.1/DTD/svg11.dtd">
<svg x="0" y="0" width="48" height="48" overflow="hidden" viewBox="0, 0, 48, 48" preserveAspectRatio="xMidYMid"
     font-size="0" id="svg" xml:space="preserve" xmlns="http://www.w3.org/2000/svg"
     xmlns:xml="http://www.w3.org/XML/1998/namespace" version="1.1">
  <g stroke-width="0.955464" transform="matrix(1.182935, 0, 0, 0.925999, 1.100682, 1.11395)" id="g19" xml:space="preserve">
    <linearGradient x1="0.0006781958" y1="0.0002610862" x2="43.87405" y2="0.0002610862" gradientUnits="userSpaceOnUse" gradientTransform="matrix(0.7417682, 0, 0, 1.230723, -0.9304667, -1.20297)" id="SVGID_Fill1_" xml:space="preserve">
      <stop offset="0%" stop-color="#B6EEAF" stop-opacity="1" id="stop2" xml:space="preserve" />
      <stop offset="100%" stop-color="#41733A" stop-opacity="1" id="stop4" xml:space="preserve" />
    </linearGradient>
    <path d="M2.70901 0 C1.20111 0 0 1.2171 0 2.7256 L0 47.2768 C0 48.7853 1.20111 50 2.70901 50 L35.7881 50 C37.2966 50 38.4971 48.7853 38.4971 47.2768 L38.4971 13.8003 L28.5328 13.8003 C26.4925 13.8003 24.7133 12.3126 24.7133 10.3344 L24.7133 0 M26.608 0 L26.608 10.3344 C26.608 11.147 27.3809 11.9057 28.5328 11.9057 L38.4971 11.9057 z" stroke-width="0.955464" stroke-linejoin="round" id="path7" xml:space="preserve" connector-curvature="0" style="fill:url(#SVGID_Fill1_);" />
    <path d="M5.94572 11.9217 L22.2886 11.9217 C22.7535 11.9217 23.1261 12.2942 23.1261 12.7591 L23.1261 14.0153 C23.1261 14.4785 22.7535 14.8528 22.2886 14.8528 L5.94572 14.8528 C5.48317 14.8528 5.10826 14.4785 5.10826 14.0153 L5.10826 12.7591 C5.10826 12.2942 5.48317 11.9217 5.94572 11.9217 z" stroke-width="0.955464" stroke-linejoin="round" id="path9" xml:space="preserve" connector-curvature="0" style="fill:#4D4D4D;" />
    <path d="M5.94572 25.581 L32.5513 25.581 C33.0163 25.581 33.3888 25.9553 33.3888 26.4185 L33.3888 27.6747 C33.3888 28.1396 33.0163 28.5121 32.5513 28.5121 L5.94572 28.5121 C5.48317 28.5121 5.10826 28.1396 5.10826 27.6747 L5.10826 26.4185 C5.10826 25.9553 5.48317 25.581 5.94572 25.581 z" stroke-width="0.955464" stroke-linejoin="round" id="path11" xml:space="preserve" connector-curvature="0" style="fill:#4D4D4D;" />
    <path d="M5.94572 18.751 L22.2886 18.751 C22.7535 18.751 23.1261 19.1259 23.1261 19.5885 L23.1261 20.8453 C23.1261 21.3078 22.7535 21.6827 22.2886 21.6827 L5.94572 21.6827 C5.48317 21.6827 5.10826 21.3078 5.10826 20.8453 L5.10826 19.5885 C5.10826 19.1259 5.48317 18.751 5.94572 18.751 z" stroke-width="0.955464" stroke-linejoin="round" id="path13" xml:space="preserve" connector-curvature="0" style="fill:#4D4D4D;" />
    <path d="M5.94572 32.4104 L32.5513 32.4104 C33.0163 32.4104 33.3888 32.7853 33.3888 33.2479 L33.3888 34.5041 C33.3888 34.969 33.0163 35.3415 32.5513 35.3415 L5.94572 35.3415 C5.48317 35.3415 5.10826 34.969 5.10826 34.5041 L5.10826 33.2479 C5.10826 32.7853 5.48317 32.4104 5.94572 32.4104 z" stroke-width="0.955464" stroke-linejoin="round" id="path15" xml:space="preserve" connector-curvature="0" style="fill:#4D4D4D;" />
    <path d="M5.94572 39.2398 L32.5513 39.2398 C33.0163 39.2398 33.3888 39.6147 33.3888 40.0772 L33.3888 41.3334 C33.3888 41.7983 33.0163 42.1709 32.5513 42.1709 L5.94572 42.1709 C5.48317 42.1709 5.10826 41.7983 5.10826 41.3334 L5.10826 40.0772 C5.10826 39.6147 5.48317 39.2398 5.94572 39.2398 z" stroke-width="0.955464" stroke-linejoin="round" id="path17" xml:space="preserve" connector-curvature="0" style="fill:#4D4D4D;" />
  </g>
  <g transform="translate(0, -2.000151)" id="g121" xml:space="preserve">
    <linearGradient x1="18.36386" y1="62.55344" x2="60.10176" y2="62.55344" gradientUnits="userSpaceOnUse" gradientTransform="matrix(1.145514, 0, 0, 0.8729705, 0, 2.000151)" id="SVGID_Stroke1_" xml:space="preserve">
      <stop offset="0%" stop-color="#719671" stop-opacity="1" id="stop21" xml:space="preserve" />
      <stop offset="100%" stop-color="#394D39" stop-opacity="1" id="stop23" xml:space="preserve" />
    </linearGradient>
    <linearGradient x1="18.36386" y1="65.20322" x2="65.40192" y2="65.20322" gradientUnits="userSpaceOnUse" gradientTransform="matrix(1.145514, 0, 0, 0.8729705, 0, 2.000151)" id="SVGID_Fill2_" xml:space="preserve">
      <stop offset="0%" stop-color="#719671" stop-opacity="1" id="stop26" xml:space="preserve" />
      <stop offset="100%" stop-color="#394D39" stop-opacity="1" id="stop28" xml:space="preserve" />
    </linearGradient>
    <path d="M24.6513 24.5767 L37.0048 39.7407 L17.4208 48.2017 L5.067309 33.0377 z" stroke="url(#SVGID_Stroke1_)" stroke-width="3" stroke-linejoin="round" id="path31" xml:space="preserve" connector-curvature="0" style="fill:url(#SVGID_Fill2_);" />
    <linearGradient x1="28.40618" y1="55.73829" x2="62.76198" y2="55.73829" gradientUnits="userSpaceOnUse" gradientTransform="matrix(1.156926, 0, 0, 0.8643593, 0, 2.000151)" id="SVGID_Fill3_" xml:space="preserve">
      <stop offset="0%" stop-color="#BDE089" stop-opacity="1" id="stop33" xml:space="preserve" />
      <stop offset="99.0698%" stop-color="#F5F3F0" stop-opacity="1" id="stop35" xml:space="preserve" />
    </linearGradient>
    <path d="M24.6076 24.6551 L36.6427 39.7057 L17.3771 48.0404 L5.34198 32.9897 z" stroke-width="0.2" stroke-linejoin="round" id="path38" xml:space="preserve" connector-curvature="0" style="fill:url(#SVGID_Fill3_);" />
    <radialGradient cx="18.6233" cy="41.3593" r="3.70985" fx="18.6233" fy="41.3593" gradientUnits="userSpaceOnUse" gradientTransform="rotate(12.62345, 9.581654, 42.35934)" id="SVGID_Fill4_" xml:space="preserve">
      <stop offset="0%" stop-color="#F17E0F" stop-opacity="0.568627" id="stop40" xml:space="preserve" />
      <stop offset="59.0698%" stop-color="#C0BDB3" stop-opacity="0.568627" id="stop42" xml:space="preserve" />
      <stop offset="86.0465%" stop-color="#F17E0F" stop-opacity="0.568627" id="stop44" xml:space="preserve" />
    </radialGradient>
    <path d="M19.3324 38.7813 C21.217 39.4358 22.4273 41.1205 22.0356 42.5443 C21.6439 43.9681 19.7987 44.5917 17.914 43.9373 C16.0294 43.2828 14.8192 41.5981 15.2109 40.1744 C15.6025 38.7506 17.4478 38.1269 19.3324 38.7813 z" stroke="#FF7D00" stroke-width="3" stroke-linejoin="round" stroke-opacity="0.5686267" id="path47" xml:space="preserve" connector-curvature="0" style="fill:url(#SVGID_Fill4_);" />
    <linearGradient x1="19.902" y1="31.55508" x2="35.38123" y2="31.55508" gradientUnits="userSpaceOnUse" gradientTransform="matrix(0.903201, 0, 0, 1.107173, 0, 2.000151)" id="SVGID_Fill5_" xml:space="preserve">
      <stop offset="1.39535%" stop-color="#F17E0F" stop-opacity="0.227451" id="stop49" xml:space="preserve" />
      <stop offset="58.1897%" stop-color="#71A846" stop-opacity="0.568627" id="stop51" xml:space="preserve" />
      <stop offset="86.0465%" stop-color="#F17E0F" stop-opacity="0.282353" id="stop53" xml:space="preserve" />
    </linearGradient>
    <path d="M24.7196 26.6686 L25.5407 28.1446 L25.2123 31.0966 L20.9427 32.3881 L19.7932 34.2331 L24.7196 38.661 L30.1387 40.506 L29.4818 41.4285" stroke="#FF7D00" stroke-width="3" stroke-linejoin="round" stroke-opacity="0.5686267" id="path56" xml:space="preserve" connector-curvature="0" style="fill:url(#SVGID_Fill5_);" />
    <linearGradient x1="19.36137" y1="23.68423" x2="28.49701" y2="23.68423" gradientUnits="userSpaceOnUse" gradientTransform="matrix(0.7756913, 0, 0, 1.289173, 0, 2.000151)" id="SVGID_Fill6_" xml:space="preserve">
      <stop offset="1.39535%" stop-color="#F17E0F" stop-opacity="0.227451" id="stop58" xml:space="preserve" />
      <stop offset="58.1897%" stop-color="#8DD258" stop-opacity="0.568627" id="stop60" xml:space="preserve" />
      <stop offset="86.0465%" stop-color="#F17E0F" stop-opacity="0.282353" id="stop62" xml:space="preserve" />
    </linearGradient>
    <path d="M20.1217 29.4361 L18.1511 29.4361 L17.0016 32.0191 L17.0016 33.8641 L17.9048 35.9858 L20.1217 37.185 L20.1217 38.1075" stroke="#FF7D00" stroke-width="3" stroke-linejoin="round" stroke-opacity="0.5686267" id="path65" xml:space="preserve" connector-curvature="0" style="fill:url(#SVGID_Fill6_);" />
    <linearGradient x1="11.80221" y1="28.39177" x2="18.50599" y2="28.39177" gradientUnits="userSpaceOnUse" gradientTransform="matrix(0.8289722, 0, 0, 1.206313, 0, 2.000151)" id="SVGID_Fill7_" xml:space="preserve">
      <stop offset="1.39535%" stop-color="#F17E0F" stop-opacity="0.227451" id="stop67" xml:space="preserve" />
      <stop offset="59.0698%" stop-color="#D2B658" stop-opacity="0.568627" id="stop69" xml:space="preserve" />
      <stop offset="86.0465%" stop-color="#F17E0F" stop-opacity="0.282353" id="stop71" xml:space="preserve" />
    </linearGradient>
    <path d="M15.031 30.7276 L14.21 32.7571 L11.911 33.495 L11.7468 35.709 L14.0458 36.078 L14.6205 38.8455" stroke="#FF7D00" stroke-width="3" stroke-linejoin="round" stroke-opacity="0.5686267" id="path74" xml:space="preserve" connector-curvature="0" style="fill:url(#SVGID_Fill7_);" />
    <linearGradient x1="17.99282" y1="43.0696" x2="25.23622" y2="43.0696" gradientUnits="userSpaceOnUse" gradientTransform="matrix(1.24433, 0, 0, 0.8036454, 0, 2.000151)" id="SVGID_Fill8_" xml:space="preserve">
      <stop offset="1.39535%" stop-color="#F17E0F" stop-opacity="0.227451" id="stop76" xml:space="preserve" />
      <stop offset="59.0698%" stop-color="#D2B658" stop-opacity="0.568627" id="stop78" xml:space="preserve" />
      <stop offset="86.0465%" stop-color="#F17E0F" stop-opacity="0.282353" id="stop80" xml:space="preserve" />
    </linearGradient>
    <path d="M24.8017 32.7571 L24.3912 34.0485 L24.227 35.709 L25.8691 35.709 L28.4965 34.0485 L30.3029 35.1555 L32.1092 37.3695 L32.2735 39.3068" stroke="#FF7D00" stroke-width="3" stroke-linejoin="round" stroke-opacity="0.5686267" id="path83" xml:space="preserve" connector-curvature="0" style="fill:url(#SVGID_Fill8_);" />
    <linearGradient x1="7.531157" y1="27.4276" x2="11.61541" y2="27.4276" gradientUnits="userSpaceOnUse" gradientTransform="matrix(0.8699092, 0, 0, 1.149545, 0, 2.000151)" id="SVGID_Fill9_" xml:space="preserve">
      <stop offset="1.39535%" stop-color="#F17E0F" stop-opacity="0.227451" id="stop85" xml:space="preserve" />
      <stop offset="59.0698%" stop-color="#D2B658" stop-opacity="0.568627" id="stop87" xml:space="preserve" />
      <stop offset="86.0465%" stop-color="#F17E0F" stop-opacity="0.282353" id="stop89" xml:space="preserve" />
    </linearGradient>
    <path d="M9.77621 32.3881 L8.13408 33.1261 L7.64144 34.7865 L11.0899 35.5245 L12.1573 39.2145 L11.3362 39.5835" stroke="#FF7D00" stroke-width="3" stroke-linejoin="round" stroke-opacity="0.5686267" id="path92" xml:space="preserve" connector-curvature="0" style="fill:url(#SVGID_Fill9_);" />
    <linearGradient x1="22.22929" y1="28.38602" x2="25.504" y2="28.38602" gradientUnits="userSpaceOnUse" gradientTransform="matrix(0.9852105, 0, 0, 1.015012, 0, 2.000151)" id="SVGID_Fill10_" xml:space="preserve">
      <stop offset="1.39535%" stop-color="#F17E0F" stop-opacity="0.227451" id="stop94" xml:space="preserve" />
      <stop offset="59.0698%" stop-color="#D2B658" stop-opacity="0.568627" id="stop96" xml:space="preserve" />
      <stop offset="86.0465%" stop-color="#F17E0F" stop-opacity="0.282353" id="stop98" xml:space="preserve" />
    </linearGradient>
    <path d="M23.3238 26.9454 L22.0101 29.8051 L20.6143 28.9748" stroke="#FF7D00" stroke-width="3" stroke-linejoin="round" stroke-opacity="0.5686267" id="path101" xml:space="preserve" connector-curvature="0" style="fill:url(#SVGID_Fill10_);" />
    <linearGradient x1="27.50877" y1="31.54018" x2="31.40888" y2="31.54018" gradientUnits="userSpaceOnUse" gradientTransform="matrix(0.760973, 0, 0, 1.314107, 0, 2.000151)" id="SVGID_Fill11_" xml:space="preserve">
      <stop offset="1.39535%" stop-color="#F17E0F" stop-opacity="0.227451" id="stop103" xml:space="preserve" />
      <stop offset="59.0698%" stop-color="#D2B658" stop-opacity="0.568627" id="stop105" xml:space="preserve" />
      <stop offset="86.0465%" stop-color="#F17E0F" stop-opacity="0.282353" id="stop107" xml:space="preserve" />
    </linearGradient>
    <path d="M23.6523 39.1223 L23.3238 43.089 L24.3091 44.1037" stroke="#FF7D00" stroke-width="3" stroke-linejoin="round" stroke-opacity="0.5686267" id="path110" xml:space="preserve" connector-curvature="0" style="fill:url(#SVGID_Fill11_);" />
    <linearGradient x1="21.33386" y1="37.27222" x2="24.24715" y2="37.27222" gradientUnits="userSpaceOnUse" gradientTransform="matrix(1.04977, 0, 0, 0.9525898, 0, 2.000151)" id="SVGID_Fill12_" xml:space="preserve">
      <stop offset="1.39535%" stop-color="#F17E0F" stop-opacity="0.227451" id="stop112" xml:space="preserve" />
      <stop offset="59.0698%" stop-color="#D2B658" stop-opacity="0.568627" id="stop114" xml:space="preserve" />
      <stop offset="86.0465%" stop-color="#F17E0F" stop-opacity="0.282353" id="stop116" xml:space="preserve" />
    </linearGradient>
    <path d="M23.9807 34.0485 L23.3238 35.6168 L24.3912 35.6168 L22.5849 34.5098 L23.1596 33.495" stroke="#FF7D00" stroke-width="3" stroke-linejoin="round" stroke-opacity="0.5686267" id="path119" xml:space="preserve" connector-curvature="0" style="fill:url(#SVGID_Fill12_);" />
  </g>
</svg>