<?xml version="1.0" encoding="utf-8"?>
<!DOCTYPE svg PUBLIC "-//W3C//DTD SVG 1.1//EN" "http://www.w3.org/Graphics/SVG/1.1/DTD/svg11.dtd">
<svg xmlns="http://www.w3.org/2000/svg" xmlns:xlink="http://www.w3.org/1999/xlink" version="1.1" baseProfile="full" width="258" height="258" viewBox="0 0 258.00 258.00" enable-background="new 0 0 258.00 258.00" xml:space="preserve">
	<linearGradient id="SVGID_Fill1_" gradientUnits="objectBoundingBox" x1="0.5" y1="1.08111" x2="1.66222" y2="1.08111" gradientTransform="rotate(-90.000000 0.500000 1.081108)">
		<stop offset="0" stop-color="#ABC4AB" stop-opacity="1"/>
		<stop offset="0.771552" stop-color="#D5E1D5" stop-opacity="1"/>
		<stop offset="1" stop-color="#FFFFFF" stop-opacity="1"/>
	</linearGradient>
	<path fill="url(#SVGID_Fill1_)" stroke-width="8" stroke-linecap="square" stroke-linejoin="bevel" stroke="#000000" stroke-opacity="1" d="M 43.9999,4.00012L 214,4.00012C 236.091,4.00012 254,21.9087 254,44L 254,214C 254,236.092 236.091,254 214,254L 43.9999,254C 21.9084,254 3.99988,236.092 3.99988,214L 3.99988,44C 3.99988,21.9087 21.9084,4.00012 43.9999,4.00012 Z "/>
	<g>
		<g>
			<path fill="#FFFFFF" fill-opacity="1" stroke-width="3" stroke-linejoin="round" stroke="#000000" stroke-opacity="1" d="M 142.349,143.179C 143.599,145.012 145.515,148.345 146.307,151.345C 147.099,154.345 146.765,157.012 145.932,159.262C 145.099,161.512 143.765,163.345 141.765,164.887C 139.765,166.429 137.099,167.679 132.099,169.179C 127.099,170.679 119.765,172.429 113.349,174.345C 106.932,176.262 101.432,178.345 97.5151,180.762C 93.5985,183.179 91.2651,185.929 89.8069,188.804C 88.3485,191.679 87.7651,194.679 87.8069,197.845C 87.8485,201.012 88.5151,204.345 88.7651,206.012C 89.0151,207.679 88.8485,207.679 87.5569,206.97C 86.2651,206.262 83.8485,204.845 81.3901,202.012C 78.9319,199.179 76.4319,194.929 72.7651,189.304C 69.0985,183.679 64.2651,176.679 61.0985,172.304C 57.9319,167.929 56.4319,166.179 54.4319,164.679C 52.4319,163.179 49.9319,161.929 47.9319,161.179C 45.9319,160.429 44.4319,160.179 43.6819,159.845C 42.9319,159.512 42.9319,159.095 42.8901,157.22C 42.8485,155.345 42.7651,152.012 43.3069,148.637C 43.8485,145.262 45.0151,141.845 46.8069,138.929C 48.5985,136.012 51.0151,133.595 52.9735,131.762C 54.9319,129.929 56.4319,128.679 58.3485,127.387C 60.2651,126.095 62.5985,124.762 65.4735,123.554C 68.3485,122.345 71.7651,121.262 74.4735,120.679C 77.1819,120.095 79.1819,120.012 89.9735,123.429C 100.765,126.845 120.349,133.762 130.432,137.387C 140.515,141.012 141.099,141.345 142.349,143.179 Z "/>
			<path fill="#000000" fill-opacity="1" stroke-width="3" stroke-linejoin="round" stroke="#000000" stroke-opacity="1" d="M 110.989,154.002C 111.461,153.794 112.544,153.544 113.85,153.336C 115.155,153.127 116.683,152.961 117.85,152.822C 119.016,152.683 119.822,152.572 121.044,152.586C 122.266,152.6 123.905,152.739 125.822,153.211C 127.739,153.683 129.933,154.489 131.419,154.989C 132.905,155.489 133.683,155.683 134.322,155.544C 134.961,155.405 135.461,154.933 136.072,154.683C 136.683,154.433 137.405,154.405 138.461,154.391C 139.516,154.377 140.905,154.377 141.961,154.447C 143.016,154.516 143.739,154.655 144.391,154.989C 145.044,155.322 145.627,155.85 145.989,156.613C 146.35,157.377 146.489,158.377 146.266,159.419C 146.044,160.461 145.461,161.544 144.669,162.516C 143.877,163.489 142.877,164.35 141.405,165.197C 139.933,166.044 137.989,166.877 135.989,167.558C 133.989,168.239 131.933,168.766 130.739,169.002C 129.544,169.239 129.211,169.183 128.822,168.933C 128.433,168.683 127.989,168.239 126.822,167.308C 125.655,166.377 123.766,164.961 121.252,162.988C 118.739,161.016 115.6,158.489 113.752,156.989C 111.905,155.489 111.35,155.016 111.002,154.697C 110.655,154.377 110.516,154.211 110.989,154.002 Z "/>
			<path fill="#000000" fill-opacity="1" stroke-width="3" stroke-linejoin="round" stroke="#000000" stroke-opacity="1" d="M 99.0442,143.141C 99.683,143.572 100.739,144.6 102.336,146.141C 103.933,147.683 106.072,149.739 107.391,151.03C 108.711,152.322 109.211,152.85 109.572,153.225C 109.933,153.6 110.155,153.822 110.252,153.961C 110.35,154.1 110.322,154.155 109.905,154.211C 109.489,154.266 108.683,154.322 107.433,154.489C 106.183,154.655 104.489,154.933 102.808,155.419C 101.127,155.905 99.4608,156.6 98.0165,157.294C 96.572,157.989 95.3496,158.683 94.3218,159.308C 93.2942,159.933 92.4608,160.489 91.6968,161.016C 90.933,161.544 90.2386,162.044 89.7942,162.363C 89.3496,162.683 89.1553,162.822 88.947,162.85C 88.7386,162.877 88.5164,162.794 87.7385,162.169C 86.9608,161.544 85.6274,160.377 84.3635,159.169C 83.0996,157.961 81.9053,156.711 80.9608,155.738C 80.0164,154.766 79.322,154.072 78.8774,153.614C 78.433,153.155 78.2386,152.933 78.1553,152.766C 78.072,152.6 78.0996,152.489 78.4192,152.127C 78.7386,151.766 79.3496,151.155 80.433,150.405C 81.5164,149.655 83.072,148.766 84.4192,148.086C 85.7664,147.405 86.9053,146.933 88.072,146.461C 89.2386,145.989 90.433,145.516 91.683,145.016C 92.933,144.516 94.2386,143.989 95.197,143.655C 96.1553,143.322 96.7664,143.183 97.1692,143.113C 97.572,143.044 97.7664,143.044 97.9746,142.961C 98.183,142.877 98.4053,142.711 99.0442,143.141 Z "/>
			<path fill="#000000" fill-opacity="1" stroke-width="3" stroke-linejoin="round" stroke="#000000" stroke-opacity="1" d="M 84.0858,131.183C 84.5442,131.711 85.6274,132.711 86.9885,133.905C 88.3496,135.1 89.9886,136.489 91.4192,137.614C 92.8496,138.739 94.072,139.6 95.0303,140.169C 95.9886,140.739 96.683,141.016 97.2942,141.225C 97.9053,141.433 98.433,141.572 98.9885,141.725C 99.5442,141.877 100.127,142.044 101.044,142.127C 101.961,142.211 103.211,142.211 104.197,142.238C 105.183,142.266 105.905,142.322 106.35,142.336C 106.794,142.35 106.961,142.322 106.266,141.627C 105.572,140.933 104.016,139.572 101.891,137.905C 99.7664,136.239 97.072,134.266 95.1136,132.961C 93.1553,131.655 91.933,131.016 91.1552,130.711C 90.3774,130.405 90.0442,130.433 89.1274,130.419C 88.2108,130.405 86.7108,130.35 85.7524,130.363C 84.7942,130.377 84.3774,130.461 84.0858,130.53C 83.7942,130.6 83.6274,130.655 84.0858,131.183 Z "/>
			<path fill="#000000" fill-opacity="1" stroke-width="3" stroke-linejoin="round" stroke="#000000" stroke-opacity="1" d="M 73.0581,122.475C 73.4886,122.739 74.183,123.35 75.1414,124.113C 76.0996,124.877 77.322,125.794 78.3081,126.53C 79.2942,127.266 80.0442,127.822 80.7385,128.391C 81.433,128.961 82.072,129.544 82.447,129.919C 82.822,130.294 82.933,130.461 82.8358,130.627C 82.7386,130.794 82.433,130.961 81.8358,131.225C 81.2386,131.489 80.3496,131.85 78.8914,132.53C 77.433,133.211 75.4053,134.211 73.6831,135.1C 71.9608,135.989 70.5442,136.766 69.2249,137.572C 67.9053,138.377 66.683,139.211 65.933,139.766C 65.183,140.322 64.9053,140.6 64.5024,140.572C 64.0996,140.544 63.572,140.211 62.9331,139.738C 62.2942,139.266 61.5442,138.655 60.3499,137.641C 59.1553,136.627 57.5164,135.211 56.3914,134.238C 55.2664,133.266 54.6553,132.739 54.4331,132.322C 54.2108,131.905 54.3774,131.6 56.8218,130.211C 59.2664,128.822 63.9886,126.35 66.8358,124.891C 69.683,123.433 70.6553,122.989 71.2524,122.739C 71.8496,122.489 72.072,122.433 72.2665,122.363C 72.4608,122.294 72.6274,122.211 73.0581,122.475 Z "/>
			<path fill="#000000" fill-opacity="1" stroke-width="3" stroke-linejoin="round" stroke="#000000" stroke-opacity="1" d="M 53.7942,163.294C 53.5164,162.822 53.4886,162.35 53.5303,161.447C 53.572,160.544 53.683,159.211 53.933,158.03C 54.183,156.85 54.572,155.822 55.072,154.752C 55.572,153.683 56.183,152.572 56.8774,151.419C 57.572,150.266 58.3496,149.072 59.1414,147.919C 59.933,146.766 60.7386,145.655 61.3774,144.808C 62.0164,143.961 62.4886,143.377 62.8636,142.933C 63.2386,142.489 63.5164,142.183 63.6968,142.016C 63.8774,141.85 63.9608,141.822 64.0999,141.836C 64.2386,141.85 64.433,141.905 65.2524,142.489C 66.072,143.072 67.5164,144.183 69.1274,145.502C 70.7386,146.822 72.5164,148.35 73.7802,149.447C 75.0442,150.544 75.7942,151.211 76.2385,151.655C 76.683,152.1 76.822,152.322 76.8636,152.516C 76.9053,152.711 76.8496,152.877 76.3914,153.183C 75.933,153.489 75.072,153.933 74.3081,154.544C 73.5442,155.155 72.8774,155.933 72.0024,157.197C 71.1274,158.461 70.0442,160.211 69.1552,161.78C 68.2664,163.35 67.572,164.739 66.9886,166.155C 66.4053,167.572 65.933,169.016 65.5302,170.113C 65.1274,171.211 64.7942,171.961 64.5718,172.586C 64.3496,173.211 64.2386,173.711 64.1415,174.03C 64.0442,174.35 63.9608,174.489 63.8358,174.516C 63.7108,174.544 63.5442,174.461 62.6968,173.488C 61.8496,172.516 60.322,170.655 58.947,169.044C 57.572,167.433 56.3496,166.072 55.4746,165.155C 54.5996,164.239 54.072,163.766 53.7942,163.294 Z "/>
			<path fill="#000000" fill-opacity="1" stroke-width="3" stroke-linejoin="round" stroke="#000000" stroke-opacity="1" d="M 88.7386,207.725C 88.322,207.627 87.5996,207.377 86.6274,206.863C 85.6553,206.35 84.433,205.572 83.3774,204.502C 82.322,203.433 81.433,202.072 80.3914,200.377C 79.3496,198.683 78.1553,196.655 77.4053,194.891C 76.6553,193.127 76.3496,191.627 76.1414,190.294C 75.933,188.961 75.822,187.794 76.1136,185.877C 76.4053,183.961 77.0996,181.294 78.1552,178.502C 79.2108,175.711 80.6274,172.794 81.8358,170.794C 83.0442,168.794 84.0442,167.711 85.0442,166.669C 86.0442,165.627 87.0442,164.627 87.7524,164.1C 88.4608,163.572 88.8774,163.516 89.2665,163.586C 89.6553,163.655 90.0164,163.85 90.7802,164.488C 91.5442,165.127 92.7108,166.211 94.5858,167.808C 96.4608,169.405 99.0442,171.516 100.683,172.919C 102.322,174.322 103.016,175.016 103.502,175.6C 103.989,176.183 104.266,176.655 104.391,177.016C 104.516,177.377 104.489,177.627 104.28,177.836C 104.072,178.044 103.683,178.211 102.933,178.502C 102.183,178.794 101.072,179.211 99.6831,179.905C 98.2942,180.6 96.6274,181.572 95.1415,182.78C 93.6553,183.989 92.3496,185.433 91.3914,186.752C 90.433,188.072 89.822,189.266 89.3915,190.725C 88.9608,192.183 88.7108,193.905 88.5858,195.6C 88.4608,197.294 88.4608,198.961 88.5581,200.669C 88.6553,202.377 88.8496,204.127 89.0024,205.308C 89.1553,206.489 89.2664,207.1 89.2664,207.433C 89.2664,207.766 89.1553,207.822 88.7386,207.725 Z "/>
		</g>
		<g>
			<path fill="#FFFFFF" fill-opacity="1" stroke-width="3" stroke-linejoin="round" stroke="#000000" stroke-opacity="1" d="M 150.849,46.6093C 146.237,46.998 137.46,48.7758 128.404,51.109C 119.349,53.4424 110.015,56.3314 100.626,60.1093C 91.2373,63.8868 81.793,68.5536 75.1263,72.4425C 68.4597,76.3314 64.5707,79.4424 61.2928,83.609C 58.0151,87.7758 55.3485,92.998 54.1262,95.8868C 52.9041,98.7758 53.1263,99.3314 58.2375,103.554C 63.3485,107.776 73.3485,115.665 82.0151,122.443C 90.6819,129.22 98.0151,134.887 106.404,140.331C 114.793,145.776 124.237,150.998 129.404,153.72C 134.571,156.442 135.46,156.665 135.626,156.22C 135.793,155.776 135.237,154.665 134.849,152.887C 134.46,151.109 134.237,148.665 135.682,146.276C 137.126,143.887 140.237,141.554 144.571,139.776C 148.904,137.998 154.46,136.776 160.015,136.109C 165.571,135.442 171.126,135.331 173.904,135.109C 176.682,134.887 176.682,134.554 173.293,120.054C 169.904,105.554 163.126,76.8868 159.515,62.0536C 155.904,47.2202 155.46,46.2202 150.849,46.6093 Z "/>
			<path fill="#000000" fill-opacity="1" stroke-width="0.2" stroke-linejoin="round" stroke="#000000" stroke-opacity="1" d="M 127.216,52.9056C 125.81,53.2572 123.049,54.0122 120.377,54.744C 117.705,55.4757 115.122,56.1841 112.809,56.8612C 110.497,57.5382 108.455,58.1841 106.403,58.8925C 104.351,59.6007 102.289,60.3716 101.278,60.7987C 100.268,61.2257 100.309,61.3091 100.643,61.9132C 100.976,62.5175 101.601,63.6425 102.58,65.257C 103.559,66.8716 104.893,68.9757 105.997,70.83C 107.101,72.6841 107.976,74.2882 108.778,75.7987C 109.58,77.3091 110.309,78.7257 110.737,79.5278C 111.164,80.33 111.289,80.5175 111.351,80.6112C 111.414,80.705 111.414,80.705 112.445,80.4028C 113.476,80.1007 115.539,79.4966 117.653,78.8612C 119.768,78.2257 121.934,77.5591 124.039,76.9445C 126.143,76.33 128.184,75.7675 130.007,75.2362C 131.83,74.705 133.434,74.205 134.643,73.7882C 135.851,73.3716 136.664,73.0382 137.049,72.7778C 137.434,72.5175 137.393,72.33 136.976,71.3507C 136.559,70.3716 135.768,68.6007 134.955,66.7153C 134.143,64.83 133.309,62.83 132.497,60.9445C 131.684,59.0591 130.893,57.2882 130.362,56.132C 129.83,54.9757 129.559,54.4341 129.372,54.0591C 129.184,53.6841 129.08,53.4757 128.987,53.27C 128.893,53.0643 128.81,52.8613 128.742,52.7338C 128.674,52.6061 128.622,52.5541 127.216,52.9056 Z "/>
			<path fill="#000000" fill-opacity="1" stroke-linejoin="round" stroke="#000000" stroke-opacity="1" d="M 87.1897,91.9769C 87.3147,91.8936 87.3147,91.8102 86.1479,90.4769C 84.9813,89.1436 82.6479,86.5602 80.3979,84.0811C 78.1479,81.6019 75.9813,79.2269 74.5022,77.6644C 73.0229,76.1019 72.2313,75.3519 71.7729,75.1019C 71.3147,74.8519 71.1897,75.1019 70.2104,75.9144C 69.2313,76.7269 67.3979,78.1019 65.5438,79.7269C 63.6897,81.3519 61.8147,83.2269 60.3147,85.0394C 58.8147,86.8519 57.6897,88.6019 56.8147,89.9144C 55.9397,91.2269 55.3147,92.1019 54.7522,93.3102C 54.1897,94.5186 53.6897,96.0602 53.4397,96.9977C 53.1897,97.9352 53.1897,98.2686 53.2729,98.4769C 53.3563,98.6852 53.5229,98.7686 56.0438,100.789C 58.5647,102.81 63.4397,106.769 66.0647,108.852C 68.6897,110.935 69.0647,111.144 69.2729,111.185C 69.4813,111.227 69.5229,111.102 69.8147,110.373C 70.1063,109.644 70.6479,108.31 71.2104,107.144C 71.7729,105.977 72.3563,104.977 73.0229,104.06C 73.6897,103.144 74.4397,102.31 75.1897,101.477C 75.9397,100.644 76.6897,99.8102 77.6063,98.9144C 78.5229,98.0186 79.6063,97.0602 80.6272,96.2477C 81.6479,95.4352 82.6063,94.7686 83.4188,94.2061C 84.2313,93.6436 84.8979,93.1852 85.3979,92.8727C 85.8979,92.5602 86.2313,92.3936 86.5229,92.2686C 86.8147,92.1436 87.0647,92.0602 87.1897,91.9769 Z "/>
			<path fill="#000000" fill-opacity="1" stroke-linejoin="round" stroke="#000000" stroke-opacity="1" d="M 101.575,109.502C 101.357,109.596 101.336,109.617 99.6379,107.544C 97.9399,105.471 94.5649,101.305 92.2629,98.4399C 89.9608,95.5753 88.7317,94.0128 88.1274,93.2108C 87.5233,92.4087 87.5442,92.3671 88.0962,91.9608C 88.6483,91.5546 89.7317,90.7837 91.4192,89.7941C 93.1067,88.8046 95.3983,87.5962 97.3046,86.6587C 99.2108,85.7212 100.732,85.0546 102.044,84.4712C 103.357,83.8878 104.461,83.3878 105.523,82.9087C 106.586,82.4296 107.607,81.9712 108.482,81.6066C 109.357,81.2421 110.086,80.9712 110.555,80.7837C 111.023,80.5962 111.232,80.4921 111.346,80.4503C 111.461,80.4087 111.482,80.4296 111.763,80.9503C 112.044,81.4712 112.586,82.4921 113.409,83.9399C 114.232,85.3878 115.336,87.2628 116.773,89.6066C 118.211,91.9503 119.982,94.7628 121.075,96.5024C 122.169,98.2421 122.586,98.9087 122.794,99.2837C 123.002,99.6587 123.002,99.7421 122.638,99.9191C 122.273,100.096 121.544,100.367 120.127,100.971C 118.711,101.575 116.607,102.513 114.846,103.315C 113.086,104.117 111.669,104.784 110.273,105.43C 108.877,106.075 107.502,106.7 106.232,107.305C 104.961,107.909 103.794,108.492 103.211,108.784C 102.627,109.075 102.627,109.075 102.419,109.159C 102.211,109.242 101.794,109.409 101.575,109.502 Z "/>
			<path fill="#000000" fill-opacity="1" stroke-linejoin="round" stroke="#000000" stroke-opacity="1" d="M 100.857,109.732C 100.919,109.721 100.961,109.742 101.627,110.492C 102.294,111.242 103.586,112.721 105.263,114.805C 106.94,116.888 109.002,119.575 110.388,121.419C 111.773,123.263 112.482,124.263 113.169,125.2C 113.857,126.138 114.523,127.013 114.982,127.565C 115.44,128.117 115.69,128.346 115.711,128.523C 115.732,128.7 115.523,128.825 115.034,129.273C 114.544,129.721 113.773,130.492 113.096,131.388C 112.419,132.284 111.836,133.305 111.357,134.377C 110.877,135.45 110.502,136.575 110.284,137.742C 110.065,138.909 110.002,140.117 109.971,140.815C 109.94,141.513 109.94,141.7 108.367,140.69C 106.794,139.68 103.648,137.471 100.075,134.94C 96.5024,132.409 92.5024,129.555 90.3879,127.95C 88.2733,126.346 88.0442,125.992 87.9504,125.596C 87.8567,125.2 87.8983,124.763 88.0649,123.992C 88.2317,123.221 88.5233,122.117 88.9712,121.169C 89.4192,120.221 90.0233,119.43 90.9712,118.284C 91.9192,117.138 93.2108,115.638 94.2837,114.596C 95.3567,113.555 96.2108,112.971 96.9921,112.398C 97.7733,111.825 98.4817,111.263 99.0754,110.836C 99.6692,110.409 100.148,110.117 100.43,109.95C 100.711,109.784 100.794,109.742 100.857,109.732 Z "/>
			<path fill="#000000" fill-opacity="1" stroke-linejoin="round" stroke="#000000" stroke-opacity="1" d="M 134.596,118.961C 134.565,118.909 134.523,118.888 133.961,119.065C 133.398,119.242 132.315,119.617 130.992,120.169C 129.669,120.721 128.107,121.45 126.805,122.086C 125.502,122.721 124.461,123.263 123.086,124.044C 121.711,124.825 120.002,125.846 118.836,126.575C 117.669,127.305 117.044,127.742 116.669,128.023C 116.294,128.305 116.169,128.43 116.523,129.013C 116.877,129.596 117.711,130.638 119.221,132.419C 120.732,134.2 122.919,136.721 125.002,139.107C 127.086,141.492 129.065,143.742 130.273,145.075C 131.482,146.409 131.919,146.825 132.534,147.19C 133.148,147.555 133.94,147.867 134.711,148.013C 135.482,148.159 136.232,148.138 137.18,147.45C 138.127,146.763 139.273,145.409 140.096,144.221C 140.919,143.034 141.419,142.013 141.815,141.242C 142.211,140.471 142.502,139.95 142.7,139.315C 142.898,138.68 143.002,137.93 142.971,137.273C 142.94,136.617 142.773,136.055 142.294,134.94C 141.815,133.825 141.023,132.159 140.096,130.138C 139.169,128.117 138.107,125.742 137.252,123.95C 136.398,122.159 135.752,120.95 135.409,120.305C 135.065,119.659 135.023,119.575 134.95,119.482C 134.877,119.388 134.773,119.284 134.711,119.19C 134.648,119.096 134.627,119.013 134.596,118.961 Z "/>
			<path fill="#000000" fill-opacity="1" stroke-linejoin="round" stroke="#000000" stroke-opacity="1" d="M 146.221,93.0024C 146.377,93.0128 146.398,93.0962 146.784,94.1899C 147.169,95.2837 147.919,97.3878 148.909,100.013C 149.898,102.638 151.127,105.784 151.971,108.055C 152.815,110.325 153.273,111.721 153.43,112.419C 153.586,113.117 153.44,113.117 152.94,113.211C 152.44,113.305 151.586,113.492 150.44,113.805C 149.294,114.117 147.857,114.555 146.357,115.002C 144.857,115.45 143.294,115.909 141.888,116.315C 140.482,116.721 139.232,117.075 138.096,117.43C 136.961,117.784 135.94,118.138 135.419,118.305C 134.898,118.471 134.877,118.45 134.263,117.617C 133.648,116.784 132.44,115.138 131.055,113.096C 129.669,111.055 128.107,108.617 126.909,106.69C 125.711,104.763 124.877,103.346 124.325,102.357C 123.773,101.367 123.502,100.805 123.346,100.502C 123.19,100.2 123.148,100.159 123.388,100.034C 123.627,99.9087 124.148,99.7003 126.065,99.0753C 127.982,98.4503 131.294,97.4087 134.075,96.5441C 136.857,95.6796 139.107,94.9921 140.919,94.4503C 142.732,93.9087 144.107,93.5128 144.94,93.2837C 145.773,93.0546 146.065,92.9921 146.221,93.0024 Z "/>
			<path fill="#000000" fill-opacity="1" stroke-linejoin="round" stroke="#000000" stroke-opacity="1" d="M 159.148,69.0024C 159.044,68.9296 158.815,68.9296 157.794,69.0128C 156.773,69.0962 154.961,69.2628 152.857,69.5753C 150.752,69.8878 148.357,70.3462 145.992,70.8566C 143.627,71.3671 141.294,71.9296 139.919,72.2628C 138.544,72.5962 138.127,72.7003 138.18,73.3253C 138.232,73.9503 138.752,75.0962 139.346,76.5024C 139.94,77.9087 140.607,79.5753 141.294,81.2108C 141.982,82.8462 142.69,84.4503 143.367,86.0024C 144.044,87.5546 144.69,89.0546 145.117,90.1066C 145.544,91.1587 145.752,91.7628 145.898,92.1378C 146.044,92.5128 146.127,92.6587 146.19,92.7316C 146.252,92.8046 146.294,92.8046 146.638,92.7524C 146.982,92.7003 147.627,92.5962 148.961,92.3566C 150.294,92.1171 152.315,91.7421 153.992,91.3253C 155.669,90.9087 157.002,90.4503 158.19,90.0962C 159.377,89.7421 160.419,89.4921 161.357,89.3253C 162.294,89.1587 163.127,89.0753 163.7,89.0233C 164.273,88.9712 164.586,88.9503 164.732,88.8878C 164.877,88.8253 164.857,88.7212 163.971,85.6274C 163.086,82.5337 161.336,76.4503 160.398,73.2421C 159.461,70.0337 159.336,69.7003 159.284,69.4608C 159.232,69.2212 159.252,69.0753 159.148,69.0024 Z "/>
			<path fill="#000000" fill-opacity="1" stroke-linejoin="round" stroke="#000000" stroke-opacity="1" d="M 169.867,110.284C 169.69,110.221 169.419,110.242 168.336,110.367C 167.252,110.492 165.357,110.721 163.575,111.023C 161.794,111.325 160.127,111.7 158.7,112.013C 157.273,112.325 156.086,112.575 155.325,112.763C 154.565,112.95 154.232,113.075 154.086,113.252C 153.94,113.43 153.982,113.659 154.409,114.857C 154.836,116.055 155.648,118.221 156.69,120.982C 157.732,123.742 159.002,127.096 159.867,129.315C 160.732,131.534 161.19,132.617 161.544,133.419C 161.898,134.221 162.148,134.742 162.857,134.961C 163.565,135.18 164.732,135.096 166.065,135.044C 167.398,134.992 168.898,134.971 170.336,134.961C 171.773,134.95 173.148,134.95 174.242,134.992C 175.336,135.034 176.148,135.117 176.555,135.159L 176.961,135.159C 176.961,135.117 176.961,135.034 175.846,130.982C 174.732,126.93 172.502,118.909 171.377,114.857C 170.252,110.805 170.232,110.721 170.18,110.607C 170.127,110.492 170.044,110.346 169.867,110.284 Z "/>
		</g>
		<path fill="#FFFFFF" fill-opacity="1" stroke-width="4" stroke-linejoin="round" stroke="#000000" stroke-opacity="1" d="M 188.627,177.876C 180.877,146.392 167.961,94.0306 161.586,67.8501C 155.211,41.6694 155.377,41.6694 156.461,41.5861C 157.544,41.5028 159.544,41.3361 160.544,41.3361C 161.544,41.3361 161.544,41.5028 169.461,72.8361C 177.377,104.169 193.211,166.669 201.127,197.919C 209.044,229.169 209.044,229.169 207.95,229.362C 206.857,229.555 204.669,229.94 203.419,230.175C 202.169,230.409 201.857,230.493 200.409,225.23C 198.961,219.968 196.377,209.36 188.627,177.876 Z "/>
		<path fill="#000000" fill-opacity="1" stroke-width="0.2" stroke-linejoin="round" d="M 156.544,28.3154C 151.297,28.3154 147.044,31.832 147.044,36.1696C 147.044,40.5072 151.297,44.0236 156.544,44.0236C 161.791,44.0236 166.044,40.5072 166.044,36.1696C 166.044,31.832 161.791,28.3154 156.544,28.3154 Z "/>
		<path fill="#FFFFFF" fill-opacity="1" stroke-width="0.2" stroke-linejoin="round" d="M 158.023,30.2319C 154.468,30.2319 151.586,32.5546 151.586,35.4194C 151.586,38.2843 154.468,40.6069 158.023,40.6069C 161.579,40.6069 164.461,38.2843 164.461,35.4194C 164.461,32.5546 161.579,30.2319 158.023,30.2319 Z "/>
	</g>
</svg>
