<?xml version="1.0" encoding="utf-8"?>
<!DOCTYPE svg PUBLIC "-//W3C//DTD SVG 1.1//EN" "http://www.w3.org/Graphics/SVG/1.1/DTD/svg11.dtd">
<svg xmlns="http://www.w3.org/2000/svg" xmlns:xlink="http://www.w3.org/1999/xlink" version="1.1" baseProfile="full" width="60" height="54.1835" viewBox="0 0 60.00 54.18" enable-background="new 0 0 60.00 54.18" xml:space="preserve">
	<g>
		<g>
			<path fill="#7A1111" fill-opacity="1" stroke-width="0.2" stroke-linejoin="round" d="M 0.576164,11.8564C 0.107674,10.4832 -0.0538483,9.20166 -1.52588e-005,7.58618C 0.0538406,5.9707 0.323082,4.02124 1.5239,2.56201C 2.72476,1.10254 4.85721,0.133301 6.67327,0C 8.48937,-0.133301 9.98906,0.56958 11.0217,1.88208C 12.0542,3.1947 12.6196,5.11719 13.0397,6.75684C 13.4597,8.39648 13.7343,9.75366 14.0897,11.0621C 14.4451,12.3706 14.8813,13.6307 15.4063,14.9231C 15.9314,16.2156 16.5453,17.5403 17.1228,18.7047C 17.7003,19.8691 18.2416,20.8735 18.5121,21.5264C 18.7827,22.1793 18.7827,22.481 17.7057,23.3855C 16.6288,24.2903 14.4748,25.7981 13.2524,26.6111C 12.03,27.4243 11.7392,27.5427 11.2061,27.322C 10.673,27.1013 9.89753,26.5413 8.8367,25.2327C 7.77588,23.9241 6.42963,21.8669 5.34188,20.23C 4.25411,18.593 3.42482,17.376 2.62244,16.0352C 1.82009,14.6943 1.04465,13.2295 0.576164,11.8564 Z "/>
			<path fill="#7A1111" fill-opacity="1" stroke-width="0.2" stroke-linejoin="round" d="M 14.3401,29.1636C 15.4279,28.2966 17.4526,26.6704 18.5781,25.8843C 19.7036,25.098 19.9297,25.1519 20.2205,25.4104C 20.5113,25.6687 20.8667,26.1318 21.4214,26.8696C 21.976,27.6074 22.7299,28.6199 23.1015,29.7021C 23.4731,30.7844 23.4623,31.9369 23.0719,32.8873C 22.6815,33.8378 21.9114,34.5863 20.8398,34.9686C 19.7682,35.3508 18.395,35.3672 17.4984,35.1328C 16.6018,34.8987 16.1818,34.4141 15.6002,33.7031C 15.0187,32.9924 14.2755,32.0554 13.807,31.4414C 13.3385,30.8276 13.1447,30.5369 13.1231,30.3376C 13.1016,30.1384 13.2524,30.0305 14.3401,29.1636 Z "/>
		</g>
		<g>
			<path fill="#7A1111" fill-opacity="1" stroke-width="0.2" stroke-linejoin="round" d="M 56.8604,23.4451C 56.3056,22.1045 55.5807,21.0353 54.4737,19.8574C 53.3666,18.6797 51.8773,17.3936 50.012,17.0903C 48.1465,16.7871 45.905,17.467 44.4531,18.566C 43.0011,19.665 42.3387,21.183 42.4298,22.8506C 42.521,24.5181 43.3656,26.3352 44.1327,27.844C 44.8999,29.3529 45.5896,30.5535 46.1866,31.7709C 46.7837,32.9883 47.2881,34.2227 47.747,35.54C 48.206,36.8572 48.6196,38.2576 48.9547,39.5134C 49.2898,40.7693 49.5464,41.8809 49.7742,42.5499C 50.0021,43.219 50.2012,43.4454 51.6074,43.4138C 53.0135,43.3821 55.6268,43.0925 57.0817,42.896C 58.5367,42.6997 58.8333,42.5967 59.0879,42.0789C 59.3426,41.561 59.5552,40.6284 59.4879,38.9453C 59.4207,37.2621 59.0736,34.8284 58.8097,32.8806C 58.5459,30.9329 58.3652,29.4714 58.0825,27.9346C 57.7998,26.3977 57.4151,24.7856 56.8604,23.4451 Z "/>
			<path fill="#7A1111" fill-opacity="1" stroke-width="0.2" stroke-linejoin="round" d="M 57.9502,45.5314C 56.5608,45.5984 53.9664,45.7139 52.602,45.8665C 51.2377,46.019 51.1034,46.2087 51.0556,46.595C 51.0079,46.9811 51.0468,47.5636 51.1173,48.4838C 51.1878,49.4041 51.29,50.6622 51.7256,51.7205C 52.1612,52.7787 52.9301,53.6371 53.8508,54.0931C 54.7716,54.5492 55.8441,54.6029 56.9014,54.1825C 57.9586,53.7622 59.0006,52.8677 59.5194,52.0997C 60.0381,51.3319 60.0336,50.6906 60.001,49.7727C 59.9685,48.8549 59.908,47.6605 59.8545,46.8901C 59.8011,46.1198 59.7547,45.7734 59.6393,45.6095C 59.5239,45.4456 59.3396,45.4644 57.9502,45.5314 Z "/>
		</g>
	</g>
</svg>
