<?xml version="1.0" encoding="utf-8"?>
<!DOCTYPE svg PUBLIC "-//W3C//DTD SVG 1.1//EN" "http://www.w3.org/Graphics/SVG/1.1/DTD/svg11.dtd">
<svg xmlns="http://www.w3.org/2000/svg" xmlns:xlink="http://www.w3.org/1999/xlink" version="1.1" baseProfile="full" width="258" height="258" viewBox="0 0 258.00 258.00" enable-background="new 0 0 258.00 258.00" xml:space="preserve">
	<linearGradient id="SVGID_Fill1_" gradientUnits="objectBoundingBox" x1="0.5" y1="1.08111" x2="1.66222" y2="1.08111" gradientTransform="rotate(-90.000000 0.500000 1.081107)">
		<stop offset="0" stop-color="#ABC4AB" stop-opacity="1"/>
		<stop offset="0.771552" stop-color="#D5E1D5" stop-opacity="1"/>
		<stop offset="1" stop-color="#FFFFFF" stop-opacity="1"/>
	</linearGradient>
	<path fill="url(#SVGID_Fill1_)" stroke-width="8" stroke-linecap="square" stroke-linejoin="bevel" stroke="#000000" stroke-opacity="1" d="M 44,3.99994L 214,3.99994C 236.091,3.99994 254,21.9085 254,43.9999L 254,214C 254,236.091 236.091,254 214,254L 44,254C 21.9086,254 4,236.091 4,214L 4,43.9999C 4,21.9085 21.9086,3.99994 44,3.99994 Z "/>
	<radialGradient id="SVGID_Fill2_" cx="178.495" cy="213.639" r="199.244" gradientUnits="userSpaceOnUse" gradientTransform="rotate(7.720263 178.495117 213.638733)">
		<stop offset="0" stop-color="#C7C400" stop-opacity="1"/>
		<stop offset="0.387213" stop-color="#BEAD00" stop-opacity="1"/>
		<stop offset="0.520927" stop-color="#B69600" stop-opacity="1"/>
		<stop offset="0.706977" stop-color="#E88500" stop-opacity="1"/>
		<stop offset="0.916279" stop-color="#EEB100" stop-opacity="1"/>
		<stop offset="0.986046" stop-color="#F4DD00" stop-opacity="1"/>
	</radialGradient>
	<path fill="url(#SVGID_Fill2_)" stroke-width="4" stroke-linejoin="round" stroke="#FC9100" stroke-opacity="1" d="M 194.547,225.465L 169.226,149.117L 234.195,101.692L 153.76,102.181L 128.733,25.7363L 104.341,102.386L 23.9047,102.565L 89.2655,149.449L 64.5797,226.004L 129.366,178.33L 194.547,225.465 Z "/>
</svg>
