<?xml version="1.0" encoding="utf-8"?>
<!DOCTYPE svg PUBLIC "-//W3C//DTD SVG 1.1//EN" "http://www.w3.org/Graphics/SVG/1.1/DTD/svg11.dtd">
<svg xmlns="http://www.w3.org/2000/svg" xmlns:xlink="http://www.w3.org/1999/xlink" version="1.1" baseProfile="full" width="37.8665" height="56" viewBox="0 0 37.87 56.00" enable-background="new 0 0 37.87 56.00" xml:space="preserve">
	<g>
		<path fill="#FF0000" fill-opacity="1" stroke-linejoin="round" stroke="#000000" stroke-opacity="1" d="M 17.5854,43.9604C 20.7307,43.9604 23.2803,46.5437 23.2803,49.7302C 23.2803,52.9167 20.7306,55.5 17.5854,55.5C 14.4402,55.5 11.8906,52.9167 11.8906,49.7302C 11.8906,46.5437 14.4402,43.9604 17.5854,43.9604 Z "/>
		<path fill="#FF0000" fill-opacity="1" stroke-linejoin="round" stroke="#000000" stroke-opacity="1" d="M 9.64172,25.2275L 4.54636,22.9795L 1.84882,19.6826L 0.649872,16.6853L 0.5,12.7888L 1.69894,9.6416L 3.49728,6.79419L 5.44553,4.84595L 8.74252,2.59814L 11.2902,1.54907L 14.5872,0.949463L 18.0341,0.799805L 21.6308,0.5L 25.0777,0.949463L 27.3257,1.99854L 30.3229,3.49731L 33.0205,5.44556L 34.9687,7.5437L 37.0668,11.1404L 37.3665,14.4373L 36.917,18.6335L 35.5682,20.8816L 33.3203,23.2793L 30.6227,26.2766L 27.0259,28.8242L 23.4292,31.8215L 21.481,35.2686L 20.4319,37.6663L 20.5134,38.7253L 20.3383,39.6707L 19.4765,40.1204L 16.2357,40.064L 15.0368,39.1648L 15.0368,36.4673L 16.985,33.3203L 19.5327,29.5735L 22.9796,25.6772L 24.3284,23.5791L 25.5273,20.1321L 25.5273,16.9851L 24.778,13.3882L 22.9796,11.5898L 19.9823,10.2412L 17.2848,9.94141L 15.0368,10.0913L 12.3392,10.9905L 10.5409,12.6389L 10.5409,14.5872L 11.1404,16.5354L 13.3883,18.0342L 14.8869,18.9333L 15.3365,20.4319L 15.0368,22.0803L 14.1376,23.2793L 13.0886,24.3284L 11.1404,24.7778L 9.64172,25.2275 Z "/>
		<linearGradient id="SVGID_Fill1_" gradientUnits="objectBoundingBox" x1="0.992412" y1="0.442442" x2="1.98393" y2="0.442442" gradientTransform="rotate(165.103867 0.992412 0.442442)">
			<stop offset="0.00925926" stop-color="#FFFFFF" stop-opacity="1"/>
			<stop offset="1" stop-color="#FCFCFF" stop-opacity="0"/>
		</linearGradient>
		<path fill="url(#SVGID_Fill1_)" stroke-width="0.2" stroke-linejoin="round" d="M 23.2294,2.44824L 26.6263,4.74609L 29.4238,6.94409L 31.9215,10.0413L 33.0205,12.8389L 33.4201,16.5354L 32.8207,20.1321L 31.8216,21.8306L 33.2095,22.2942L 36.0178,18.5337L 36.5173,15.6362L 36.4174,11.7397L 34.2586,8.20679L 32.9206,6.64429L 32.421,5.94507L 31.0223,5.0459L 29.0241,3.54712L 27.0259,2.64795L 25.2275,2.24829L 23.2294,2.44824 Z "/>
		<linearGradient id="SVGID_Fill2_" gradientUnits="objectBoundingBox" x1="0.992405" y1="0.440368" x2="1.98441" y2="0.440368" gradientTransform="rotate(165.603348 0.992405 0.440368)">
			<stop offset="0.00925926" stop-color="#FFFFFF" stop-opacity="1"/>
			<stop offset="1" stop-color="#FFFFFF" stop-opacity="0"/>
		</linearGradient>
		<path fill="url(#SVGID_Fill2_)" stroke-width="0.2" stroke-linejoin="round" d="M 10.2911,16.2607L 9.40448,15.6487L 8.6926,17.3596L 9.89148,18.6584L 11.0904,20.0571L 11.3901,21.6558L 11.2902,23.4541L 11.1279,24.0662L 12.4517,23.8413L 13.5507,23.2168L 14.3999,22.4175L 14.375,21.3684L 14.4748,20.3445L 14.1751,19.4954L 12.7764,18.5959L 11.7523,17.9468L 10.8531,17.2974"/>
		<linearGradient id="SVGID_Fill3_" gradientUnits="objectBoundingBox" x1="1.012" y1="0.456803" x2="2.01996" y2="0.456803" gradientTransform="rotate(160.125153 1.011996 0.456803)">
			<stop offset="0.00925926" stop-color="#FFFFFF" stop-opacity="1"/>
			<stop offset="1" stop-color="#FFFFFF" stop-opacity="0"/>
		</linearGradient>
		<path fill="url(#SVGID_Fill3_)" stroke-width="0.2" stroke-linejoin="round" d="M 18.0341,44.8098L 19.1331,46.1086L 19.8325,47.5073L 19.7325,49.5056L 19.3329,51.5037L 18.6335,53.2021L 18.8334,54.1013L 19.8404,54.0715L 20.9894,53.3972L 21.9135,52.1482L 22.4131,50.6746C 22.4131,50.6746 22.6556,49.562 22.53,49.106C 22.4207,48.7087 22.2303,47.5073 22.2303,47.5073L 21.8307,46.3083L 20.8315,45.4092L 19.9324,44.8098L 18.0341,44.8098 Z "/>
	</g>
</svg>
