<?xml version="1.0" encoding="utf-8"?>
<!DOCTYPE svg PUBLIC "-//W3C//DTD SVG 1.1//EN" "http://www.w3.org/Graphics/SVG/1.1/DTD/svg11.dtd">
<svg xmlns="http://www.w3.org/2000/svg" xmlns:xlink="http://www.w3.org/1999/xlink" version="1.1" baseProfile="full" width="60.2504" height="57.663" viewBox="0 0 60.25 57.66" enable-background="new 0 0 60.25 57.66" xml:space="preserve">
	<g>
		<path fill="#FFFFFF" fill-opacity="1" stroke-width="0.2" stroke-linejoin="round" d="M 16.9072,19.5726C 16.5455,19.5546 15.9304,19.5424 15.8542,18.8866C 15.8152,18.5587 17.1658,17.3446 16.8273,16.8628C 16.7421,16.7421 16.4957,16.611 15.9182,16.4463C 15.2272,16.2938 13.99,16.395 11.8508,17.1639C 11.7551,17.1993 11.8794,17.1537 11.8032,17.1798C 11.7197,17.2103 11.7624,17.1921 11.7075,17.2117C 11.7728,17.1908 11.6116,17.2526 11.3245,17.3573C 11.3014,17.3678 11.2855,17.3768 10.9417,17.4847C 10.4721,15.7958 11.7374,12.6783 12.8081,12.5721C 13.2441,12.5297 13.7314,13.1356 14.3552,12.7955C 15.4803,12.182 15.5956,11.2429 15.4395,10.0837C 15.3211,9.20313 14.4101,10.0361 13.7967,10.2753C 13.132,10.536 13.118,10.6918 12.9356,10.5148C 12.3808,9.97766 12.6891,8.75854 14.8656,6.35352C 15.6292,5.5083 15.9731,4.30652 16.0139,3.89722C 16.0601,3.4259 14.5412,4.74609 14.387,4.42346C 14.2808,4.19849 15.6046,2.91003 16.2852,2.5575C 16.6005,2.39417 16.6022,2.7417 16.8273,2.71667C 17.1195,2.68323 18.9574,1.00671 18.8372,0.739136C 18.7573,0.563599 17.4316,1.32935 17.3695,1.13794C 17.3359,1.03491 18.7415,0.324463 18.7415,0.324463C 18.7415,0.324463 18.7325,0.289063 18.7415,0.260498C 18.1884,0.459229 10.9189,2.78064 5.20157,11.3441C -3.94662,25.0469 -0.164673,43.5328 13.6375,52.6156C 27.4395,61.6981 46.0635,57.9447 55.2117,44.2433C 59.7858,37.3922 61.1346,29.3302 59.6143,21.8534C 58.0918,14.3761 53.2463,7.66333 51.4492,6.79822C 51.8077,7.15112 52.045,7.37244 51.942,7.5C 51.8835,7.57629 51.4443,7.65967 51.0328,7.21277C 50.6236,6.76819 48.6972,5.27417 48.4667,4.93396C 48.2349,4.59192 48.2789,4.47668 48.4032,4.45532C 48.5271,4.43396 48.7326,4.50525 48.8178,4.55103C 48.9009,4.59729 46.9373,3.02527 46.808,2.93994C 46.6787,2.8551 46.3189,2.70813 46.25,2.73254C 46.1293,2.77527 46.5635,3.07471 46.4891,3.14734C 46.4215,3.21497 46.2196,3.1759 46.0586,3.03577C 45.9769,2.96497 43.8305,1.40369 42.5175,0.898315C 41.7412,1.01538 41.2449,1.08984 41.1618,1.24951C 41.0448,1.47815 42.9127,2.22949 43.012,2.4137C 43.1164,2.60693 42.7176,2.88867 42.3419,2.93994C 41.1687,3.09973 40.7132,2.52893 40.5716,2.20642C 40.0789,1.07397 37.9575,1.48865 36.0914,2.70081C 35.2852,3.22351 32.1339,3.21851 32.104,2.8125C 32.0472,2.03259 32.3363,1.51904 30.4289,1.83972C 29.0892,2.06482 28.7294,2.54114 28.8501,2.63684C 29.0733,2.81604 29.9898,3.13867 30.0623,3.43445C 30.1118,3.63501 28.914,4.76196 25.6139,4.53516C 25.2859,6.28772 25.2986,6.67615 25.6299,7.2146C 25.9596,7.75183 26.4896,7.96094 26.7944,7.88464C 27.4945,7.7074 28.1872,6.87256 28.7068,6.86389C 29.6173,6.84436 30.2343,7.72009 30.2057,8.90552C 30.2057,8.94641 30.1935,8.97815 30.1898,9.01709C 30.188,9.03308 30.1916,9.04895 30.1898,9.06482C 30.0446,10.3727 28.5398,9.8855 27.5262,9.63904C 26.2378,9.32385 26.2292,13.6425 27.4464,14.4701C 25.0645,14.2169 22.0502,15.3511 20.4623,16.0493C 19.1525,16.6251 21.7009,17.8373 21.2594,18.2501C 20.7422,18.7343 19.6629,19.1952 18.8354,19.3988C 18.369,19.5105 17.2543,19.5905 16.9072,19.5726 Z "/>
		<radialGradient id="SVGID_Fill1_" cx="13.6779" cy="18.7101" r="108.128" gradientUnits="userSpaceOnUse" gradientTransform="rotate(-90.000000 13.677887 18.710083)">
			<stop offset="0" stop-color="#FFFFFF" stop-opacity="1"/>
			<stop offset="0.235199" stop-color="#FFFFFF" stop-opacity="1"/>
			<stop offset="0.3321" stop-color="#E9E9E9" stop-opacity="1"/>
			<stop offset="0.677299" stop-color="#C8C8C8" stop-opacity="1"/>
			<stop offset="0.701698" stop-color="#C8C8C8" stop-opacity="1"/>
			<stop offset="0.887199" stop-color="#909090" stop-opacity="1"/>
			<stop offset="1" stop-color="#626262" stop-opacity="1"/>
		</radialGradient>
		<path fill="url(#SVGID_Fill1_)" stroke-width="0.2" stroke-linejoin="round" d="M 16.9072,19.5726C 16.5455,19.5546 15.9322,19.5424 15.8542,18.8866C 15.8152,18.5587 17.1658,17.3446 16.8273,16.8628C 16.7421,16.7421 16.4975,16.611 15.9182,16.4463C 15.2272,16.2938 13.99,16.395 11.8508,17.1639C 11.7551,17.1993 11.8812,17.1537 11.8032,17.1798C 11.7215,17.2103 11.7642,17.1921 11.7075,17.2117C 11.7746,17.1908 11.6116,17.2526 11.3245,17.3573C 11.3014,17.3678 11.2855,17.3768 10.9417,17.4847C 10.4739,15.7958 11.7392,12.6783 12.8081,12.5721C 13.2441,12.5297 13.7314,13.1356 14.3552,12.7955C 15.4803,12.182 15.5956,11.2429 15.4395,10.0837C 15.3211,9.20313 14.4101,10.0361 13.7967,10.2753C 13.132,10.536 13.118,10.6918 12.9356,10.5148C 12.3808,9.97766 12.6891,8.75854 14.8656,6.35352C 15.6292,5.5083 15.9731,4.30652 16.0139,3.89722C 16.0601,3.4259 14.5412,4.74609 14.387,4.42346C 14.2808,4.19849 15.6065,2.91003 16.2852,2.5575C 16.6005,2.39417 16.6022,2.7417 16.8273,2.71667C 17.1213,2.68323 18.9574,1.00671 18.8372,0.739136C 18.7573,0.563599 17.4316,1.32935 17.3695,1.13794C 17.3359,1.03491 18.7415,0.324463 18.7415,0.324463C 18.7415,0.324463 18.7342,0.289063 18.7415,0.260498C 18.1884,0.459229 10.9189,2.78064 5.20157,11.3441C -3.94662,25.0469 -0.164673,43.5328 13.6375,52.6156C 27.4395,61.6981 46.0635,57.9467 55.2117,44.2433C 59.7876,37.3922 61.1346,29.3302 59.6143,21.8534C 58.0918,14.3761 53.2463,7.66333 51.4492,6.79993C 51.8077,7.15112 52.045,7.37244 51.942,7.50183C 51.8835,7.57629 51.4443,7.65967 51.0346,7.2146C 50.6236,6.76819 48.699,5.276 48.4667,4.93396C 48.2349,4.59192 48.2789,4.47668 48.4032,4.45532C 48.5271,4.43396 48.7326,4.50525 48.8178,4.55103C 48.9027,4.59729 46.9373,3.0271 46.808,2.93994C 46.6787,2.8551 46.3189,2.70813 46.25,2.73254C 46.1293,2.77527 46.5635,3.07471 46.4891,3.14734C 46.4215,3.21497 46.2196,3.17761 46.0586,3.03577C 45.9787,2.96497 43.8305,1.40369 42.5175,0.898315C 41.7412,1.01538 41.2449,1.08984 41.1637,1.24951C 41.0448,1.47815 42.9127,2.22949 43.0138,2.4137C 43.1182,2.60693 42.7176,2.88867 42.3437,2.93994C 41.1687,3.09973 40.7132,2.52893 40.5735,2.20642C 40.0789,1.07397 37.9593,1.48865 36.0914,2.70081C 35.2852,3.22351 32.1339,3.21851 32.1058,2.8125C 32.0472,2.03259 32.3376,1.51904 30.4308,1.83972C 29.0892,2.06482 28.7312,2.54114 28.8519,2.63684C 29.0752,2.81799 29.9915,3.13867 30.0642,3.43445C 30.1136,3.63684 28.9154,4.76196 25.6139,4.53516C 25.2859,6.28772 25.3004,6.67615 25.6299,7.2146C 25.9596,7.75354 26.4914,7.96094 26.7944,7.88464C 27.4963,7.7074 28.1872,6.87439 28.7081,6.86389C 29.6173,6.84436 30.2361,7.72009 30.2076,8.90552C 30.2057,8.94641 30.1935,8.97815 30.1916,9.01709C 30.1898,9.03308 30.1935,9.04895 30.1916,9.06482C 30.0465,10.3746 28.5398,9.88733 27.528,9.63904C 26.2396,9.32385 26.2309,13.6425 27.4482,14.4701C 25.0663,14.2186 22.052,15.3511 20.4641,16.0493C 19.1525,16.6251 21.7027,17.8373 21.2594,18.2501C 20.7422,18.7343 19.6646,19.1967 18.8372,19.3988C 18.369,19.5123 17.2543,19.5905 16.9072,19.5726 Z "/>
		<path fill="#5A5A5A" fill-opacity="1" stroke-width="0.2" stroke-linejoin="round" stroke="#5A5A5A" stroke-opacity="1" d="M 16.3506,11.9979C 18.4987,12.1045 19.8081,11.5355 21.1338,10.9879C 18.7659,9.27209 25.0432,8.43591 23.2729,10.5714C 24.9035,10.7113 26.1933,9.73132 27.7318,9.32019C 28.3484,9.15552 29.5874,9.16418 30.2112,8.90735C 30.1776,10.4244 28.577,9.89783 27.5244,9.64099C 26.2359,9.32556 26.2219,13.6425 27.4395,14.4718C 25.0591,14.2186 22.0588,15.3566 20.4709,16.0565C 19.1611,16.6322 21.6972,17.8341 21.2563,18.2469C 20.7368,18.7306 19.6575,19.2002 18.8299,19.4039C 18.364,19.5172 17.2511,19.6117 16.9054,19.5726C 16.5596,19.5336 16.581,19.2872 17.2066,18.5374C 17.6567,17.9952 17.8871,17.5804 17.1693,17.0402C 16.5987,16.6093 16.2974,16.5365 15.9236,16.455C 15.2322,16.3029 13.99,16.4 11.8527,17.1696C 12.2233,14.8671 12.7918,14.1864 13.2101,13.6906C 13.6021,13.2223 14.1778,13.5009 14.9486,13.6034C 15.7585,13.7101 16.2266,12.7546 16.3506,11.9979 Z "/>
		<path fill="#000000" fill-opacity="1" stroke-width="0.2" stroke-linejoin="round" stroke="#000000" stroke-opacity="1" d="M 18.7714,0.260498C 18.7714,0.260498 17.3305,1.02942 17.3645,1.13245C 17.4262,1.32385 18.7482,0.572632 18.8281,0.747681C 18.9488,1.01538 17.1126,2.68677 16.8201,2.72034C 16.595,2.74719 16.6022,2.38733 16.287,2.55017C 15.6078,2.90271 14.2858,4.19666 14.3924,4.42175C 14.5466,4.74609 16.0615,3.42957 16.0157,3.90088C 15.9749,4.31018 15.6328,5.51697 14.8692,6.36035C 12.6929,8.76721 12.3862,9.974 12.941,10.5129C 13.1234,10.6898 13.7917,10.286 13.7917,10.286C 14.5039,8.21277 16.3256,7.49817 16.684,5.5791C 16.7652,5.13953 16.6908,5.13403 16.253,4.38806C 16.253,4.38806 16.7067,3.98035 16.9902,3.81018C 17.2865,3.63135 17.272,3.99475 17.5682,3.90088C 18.197,3.69861 18.7061,3.11365 19.1453,2.55017C 19.5849,1.98669 19.2781,1.88013 19.2927,1.68909C 19.3085,1.49231 19.4397,1.71362 19.2927,1.36975C 19.147,1.0282 18.7714,0.260498 18.7714,0.260498 Z M 41.1601,1.30261C 41.1705,1.59656 41.1314,1.90515 41.1832,2.1886C 41.2254,2.41907 41.8846,2.75403 42.3528,2.93677C 42.7303,2.9082 43.1255,2.60876 43.0206,2.41553C 42.9217,2.23132 42.0321,2.00256 41.1601,1.30261 Z M 28.8537,2.6405C 28.8233,2.8302 28.8714,3.66858 28.9794,4.17358C 29.4135,3.96802 30.1173,3.63684 30.0678,3.43628C 29.9947,3.1405 29.0239,2.8728 28.8537,2.6405 Z M 46.2428,2.7771C 46.1347,2.92041 46.0976,2.9845 46.0603,3.03931C 46.2409,3.17957 46.4233,3.21851 46.4927,3.15271C 46.5653,3.07837 46.3067,2.88867 46.2428,2.7771 Z M 48.4082,4.44482C 48.2843,4.46619 48.2331,4.59192 48.4649,4.93213C 48.7857,4.57239 48.5184,4.88269 48.8161,4.54736C 48.7307,4.50159 48.5325,4.42346 48.4082,4.44482 Z M 51.4479,6.79309C 51.0241,7.21277 51.3839,6.86389 51.0278,7.21277C 51.4388,7.65784 51.8767,7.5708 51.9352,7.49634C 52.0377,7.36707 51.8077,7.14392 51.4479,6.79309 Z M 28.719,6.86023C 28.1977,6.87073 27.4908,7.71643 26.789,7.89331C 26.1828,8.04578 25.8798,7.42737 25.4742,7.0304C 25.6262,7.9292 25.8498,8.80066 26.6651,8.99219C 27.4342,9.17505 28.2884,8.01587 29.047,8.0177C 29.4898,8.01941 29.9685,8.81531 30.1916,9.06165C 30.3015,7.79626 29.669,6.84082 28.719,6.86023 Z M 15.2784,9.72937C 15.2095,10.9258 15.4839,12.1788 14.3588,12.7936C 13.735,13.1339 13.2405,12.5228 12.8045,12.5668C 11.7356,12.6715 10.4757,15.7889 10.9453,17.4775C 11.6562,17.2562 10.9825,17.4689 11.7959,17.1818C 12.0709,15.6968 12.4392,14.2736 13.3503,13.5077C 13.8217,13.109 15.048,13.8553 15.6065,13.3925C 16.3115,12.8114 16.992,10.899 15.2784,9.72937 Z M 16.831,16.8646C 17.1798,17.3463 15.9499,18.433 15.856,18.8849C 15.7603,19.3348 16.2335,19.5319 16.7067,19.53C 16.3274,19.2819 17.3255,18.5342 17.5682,17.8518C 17.6707,17.5609 17.492,17.3042 16.831,16.8646 Z "/>
		<path fill="#000000" fill-opacity="1" stroke-width="0.2" stroke-linejoin="round" stroke="#000000" stroke-opacity="1" d="M 5.58447,33.8462C 5.15347,33.8903 5.00467,34.2518 5.26553,34.8969C 4.3808,34.7355 3.76068,34.5511 3.0166,34.1652C 2.8428,34.6219 4.08319,34.8793 4.67529,35.1537C 4.70703,35.3737 4.72656,35.6024 4.75513,35.8239C 4.6839,35.7299 4.59363,35.6573 4.49969,35.5847C 4.24097,35.3842 4.03192,35.2494 3.79785,35.2494C 3.6579,35.2494 3.57462,35.2335 3.49478,35.3292C 3.23798,35.6395 3.38318,36.0719 3.76605,36.4299C 4.15079,36.786 4.67346,36.9581 4.91437,36.7008C 4.9906,37.0555 5.0845,37.4081 5.26553,37.7362C 5.31314,37.7838 5.54727,37.9716 5.53638,37.9276C 5.25281,36.5275 5.15887,36.1903 5.07404,35.2494C 5.1785,35.2743 5.32904,35.3275 5.64798,35.3773C 5.79361,36.233 5.69061,35.6801 6.09488,37.704C 6.28766,37.9044 6.41565,38.0428 6.60526,38.2465C 6.35892,36.8324 6.16202,36.4476 6.07898,35.4408C 6.22052,35.5226 6.33575,35.5189 6.46146,35.5847C 6.45963,35.5756 6.54312,35.3878 6.41382,35.2018C 5.11307,34.9446 5.14835,33.3339 7.49811,35.0104C 7.50903,35.0177 7.88104,34.8507 7.578,34.6433C 6.7345,34.0658 6.01501,33.7999 5.58447,33.8462 Z M 3.83002,35.6483C 3.96118,35.6573 4.17896,35.7457 4.32413,35.8715C 4.55823,36.0719 4.79214,36.3429 4.61136,36.4935C 4.43256,36.6427 4.14355,36.4122 3.92532,36.1891C 3.70938,35.9672 3.58685,35.7885 3.73431,35.6642C 3.75699,35.6447 3.78552,35.6447 3.83002,35.6483 Z "/>
		<path fill="#000000" fill-opacity="1" stroke-width="0.2" stroke-linejoin="round" stroke="#000000" stroke-opacity="1" d="M 5.17297,42.8187C 5.98822,43.1342 6.38202,44.1285 6.55219,44.3446L 7.38651,44.7982L 6.71509,43.4371C 6.995,43.4054 9.05609,44.433 9.93851,45.4135C 10.6531,46.2074 10.9947,47.058 10.4739,47.6283C 10.4135,47.6959 10.1068,47.7081 10.0501,47.5135C 10.2665,47.2618 10.3605,46.8898 10.1994,46.4587C 10.0379,46.0282 9.68716,45.4896 9.42813,45.275C 8.89322,44.83 8.18774,44.4086 7.3974,44.1073C 7.71817,44.8585 8.14325,45.7411 8.68225,46.6166C 8.19135,46.2056 7.98584,45.7037 7.67377,45.3373L 6.8194,44.8585C 6.90106,44.9792 7.1297,45.4135 7.26447,45.6807C 6.95413,45.2837 6.77905,44.9843 6.41382,44.3835C 6.25049,44.1178 6.12662,43.8483 5.91748,43.5841C 5.73511,43.3505 5.49237,43.1517 5.43384,43.1305C 5.39847,43.1163 5.16434,43.1359 5.17297,42.8187 Z "/>
		<path fill="#000000" fill-opacity="1" stroke-width="0.2" stroke-linejoin="round" d="M 56.2892,23.4907C 55.9385,23.8273 55.8305,24.2529 55.9476,24.4335C 56.2398,24.8854 56.6916,24.423 56.8831,24.173C 57.0179,23.9974 57.0995,23.7548 57.08,23.5529C 57.0637,23.3737 56.8777,22.9272 56.2892,23.4907 Z M 58.0545,24.4335C 58.0228,24.2688 57.5142,22.3157 57.5051,22.2894C 57.4965,22.2626 57.4892,22.2413 57.4856,22.2255C 57.4625,22.1456 57.3296,22.1583 57.2411,22.1405C 57.1526,22.1246 57.0655,22.1173 56.9807,22.1229C 56.8954,22.1278 56.8495,22.1173 56.8423,22.0907C 56.8318,22.0498 56.8654,22.0057 56.9416,21.9576C 57.0233,21.9047 57.1526,21.8571 57.3277,21.8126C 57.5051,21.7699 57.599,21.7843 57.6131,21.8571C 57.6576,22.0729 57.7161,22.1918 57.8222,22.6083L 58.216,24.1608C 58.2564,24.3201 58.3454,24.7865 58.3771,25.0238C 58.4088,25.2615 58.3612,25.4066 58.299,25.4457C 58.2514,25.4757 58.1271,24.8005 58.0545,24.4335 Z M 57.8508,24.1554L 56.9648,25.1586L 57.0673,25.5573C 57.0904,25.6422 57.0904,25.7201 57.1154,25.8427C 57.1417,25.9664 57.1612,26.1139 57.1721,26.2872C 57.1844,26.4611 57.1631,26.5641 57.1081,26.5939C 57.0818,26.5975 57.0496,26.5549 57.0124,26.4664C 56.9734,26.3793 56.9453,26.2927 56.9258,26.2042C 56.9062,26.1171 56.8885,26.0536 56.874,26.0109L 56.7307,25.3622L 56.2733,25.7379C 56.2502,25.761 56.2098,25.8073 56.1549,25.8762C 56.0982,25.9452 56.052,25.9915 56.0166,26.0145C 55.9562,26.0536 55.8374,26.08 55.655,26.0995C 55.4726,26.1171 55.375,26.0995 55.3592,26.0446L 55.3696,26.0006L 55.4013,25.9684C 55.586,25.8885 55.7934,25.775 56.027,25.6262C 56.2026,25.5146 56.4544,25.2914 56.7289,25.0469C 57.002,24.8041 57.2252,24.5682 57.4148,24.3912L 57.7887,23.9747M 56.394,23.1273C 56.5642,23.0266 56.7484,22.8973 56.9239,22.9381C 57.0977,22.9767 57.2483,23.1895 57.2679,23.3917C 57.2923,23.6377 57.2533,23.8615 57.1349,24.0864C 57.0143,24.3114 56.8441,24.5382 56.6508,24.6962C 56.1531,25.1 55.8551,24.9475 55.7099,24.6571C 55.5665,24.37 55.7543,23.7657 56.052,23.4449C 56.0574,23.4359 56.0855,23.4095 56.1336,23.3615C 56.1831,23.3138 56.2116,23.2853 56.2166,23.2748C 56.2312,23.2479 56.2343,23.2249 56.2293,23.2072C 56.2239,23.1895 56.2116,23.1736 56.1867,23.1595C 56.1635,23.1454 56.1513,23.131 56.1477,23.1205L 56.1513,23.101L 56.1812,23.0779C 56.208,23.0602 56.2502,23.046 56.3037,23.0333C 56.3586,23.0229 56.3886,23.0302 56.3958,23.0529C 56.4027,23.0851 56.3995,23.131 56.38,23.1931"/>
		<path fill="#000000" fill-opacity="1" stroke-width="0.2" stroke-linejoin="round" d="M 31.5527,3.96619L 31.9198,3.79065L 32.1942,4.51196L 33.2522,3.97839C 33.7377,5.78821 33.5431,7.40784 32.2174,9.37329C 32.0454,9.21399 31.9425,9.01892 31.8594,8.89148C 33.3462,6.45288 33.2346,6.08765 32.9759,4.49609L 31.3472,5.37854L 31.3436,6.64929L 30.9112,6.96143L 30.9289,5.20154L 31.8027,4.71436M 35.3506,4.46069L 36.561,6.48279L 36.2493,6.70959L 35.1895,5.00476C 35.0956,5.2052 34.8102,5.72961 34.5266,6.02917C 34.4945,5.98828 34.4609,5.95837 34.4273,5.93518C 34.3955,5.89624 34.3706,5.86804 34.3493,5.84998C 34.3493,5.84998 34.3016,5.82361 34.2022,5.76868C 34.4876,5.29187 34.6169,5.14124 34.8297,4.66443C 35.0157,4.24792 35.1718,3.98206 35.2036,3.37415L 35.5738,3.35828C 35.542,3.87231 35.4195,4.14368 35.3506,4.46069 Z "/>
		<path fill="#5A5A5A" fill-opacity="1" stroke-width="0.2" stroke-linejoin="round" stroke="#5A5A5A" stroke-opacity="1" d="M 58.643,31.6943C 59.2382,30.8082 58.3717,30.6381 58.4729,30.0162C 58.6516,28.9137 59.8943,26.8208 60.0839,26.7111C 59.7082,26.6224 59.3589,22.5607 59.5236,22.2858C 59.2754,22.4344 59.4601,25.1017 59.8979,26.7111C 59.0204,28.0507 58.3807,29.6478 58.354,30.0002C 58.3009,30.7321 58.976,31.0248 58.643,31.6943 Z "/>
		<path fill="#000000" fill-opacity="1" stroke-width="0.2" stroke-linejoin="round" d="M 13.8661,3.84912C 14.1869,3.54114 14.5856,3.14233 14.5693,3.12781C 14.5108,3.07837 14.1247,3.21301 13.9935,3.26257C 13.2827,3.88818 12.6947,4.54919 12.0795,5.21741L 11.7996,5.26013C 12.6661,4.34192 13.5522,3.42407 14.6846,2.5094L 14.9205,2.46863L 14.1692,3.1051C 14.2576,3.08374 14.3974,3.03748 14.4613,3.02344C 14.5199,3.01306 14.8052,2.92957 14.8937,2.97034C 15.0071,3.02344 14.4155,3.52844 14.1705,3.79785"/>
		<path fill="#000000" fill-opacity="1" stroke-width="0.2" stroke-linejoin="round" d="M 15.2235,22.2023C 15.1736,22.2113 15.1296,22.2255 15.0924,22.2504C 15.0212,22.2998 14.9772,22.3566 14.9613,22.4259C 14.9468,22.4845 14.9576,22.5394 14.9949,22.5961C 15.0321,22.6547 15.0974,22.6968 15.1863,22.7076C 15.2095,22.7095 15.2516,22.7059 15.3034,22.7003C 15.3565,22.6932 15.3882,22.6864 15.3991,22.6864C 15.4662,22.6949 15.4912,22.7484 15.4699,22.8424C 15.4449,22.9523 15.3723,23.0425 15.2626,23.1083C 15.1509,23.1718 15.0248,23.223 14.8919,23.2657L 14.8692,23.3773C 15.3828,23.2816 15.684,23.0602 15.7639,22.7126C 15.7888,22.6029 15.7639,22.4967 15.6985,22.39C 15.6346,22.2821 15.5334,22.215 15.3882,22.1991C 15.3279,22.1918 15.2712,22.1936 15.2235,22.2023 Z M 18.3213,22.0321C 17.5115,22.1456 16.8255,22.4401 16.37,22.8438C 15.9145,23.2479 15.6205,23.8468 15.6877,24.3201C 15.748,24.7456 15.8986,25.1688 16.2992,25.3976C 16.698,25.6281 16.9744,25.7201 17.4212,25.7201L 17.4371,25.9823L 16.9122,26.075C 16.684,26.1067 16.5138,26.0975 16.4018,26.0586C 16.2884,26.0197 16.1468,25.8854 16.0883,25.7543L 15.8029,25.7719L 15.8828,26.5531L 18.197,26.2274L 18.1671,25.536C 17.4103,25.4457 17.2688,25.2401 17.0329,25.0504C 16.8432,24.8981 16.6377,24.5311 16.5914,24.212C 16.5315,23.7706 16.7334,23.1986 17.0701,22.8815C 17.389,22.5834 17.7061,22.4401 18.3018,22.307C 18.6793,22.2235 19.3703,22.1901 19.7622,22.3955C 19.936,22.4877 20.3824,22.837 20.4532,23.3365C 20.5598,24.1023 20.2087,24.8749 19.1276,25.4012L 19.1611,26.0536L 21.6941,25.6866L 21.5965,24.861L 21.3606,24.8663C 21.3075,24.9706 21.1551,25.1852 21.0893,25.2823C 21.0294,25.3749 20.9405,25.442 20.6801,25.4792L 19.927,25.5841L 19.9179,25.3109C 20.4319,25.1285 20.8502,24.8573 21.1215,24.5347C 21.391,24.212 21.4953,23.6469 21.4386,23.2479C 21.3697,22.7552 21.063,22.3888 20.5208,22.1442C 19.9764,21.8978 19.1062,21.9205 18.3213,22.0321 Z "/>
		<path fill="#000000" fill-opacity="1" stroke-width="0.2" stroke-linejoin="round" d="M 52.4188,11.7393C 52.2383,11.7623 51.8431,11.8759 51.7827,12.0369C 51.7383,12.1522 51.6761,12.3151 52.0681,12.4943C 52.2029,12.5546 52.4669,12.3704 52.6901,12.3612C 53.1329,12.3417 53.4841,13.1039 53.2749,13.671C 53.1297,14.0643 52.6774,14.3761 52.2079,14.5695C 51.8835,14.7059 51.6375,14.6774 51.4139,14.6224C 51.1712,14.5626 50.9924,14.3956 50.879,14.1193C 50.7992,13.9297 50.7479,13.7186 50.7229,13.485C 50.7247,13.2882 50.8808,13.2545 50.9638,13.6992C 51.0559,13.9225 51.2242,14.1461 51.4248,14.1937C 51.6248,14.24 51.8694,14.2046 52.1548,14.0858C 52.3748,13.9955 52.6207,13.7699 52.8176,13.5077C 53.1456,13.0717 53.0195,12.7423 52.8017,12.6735C 52.6969,12.6412 52.3907,12.8503 52.162,12.8273C 51.7473,12.7867 51.437,12.2638 51.4352,12.0758C 51.4352,11.8405 51.6053,11.7057 51.765,11.5958C 52.0182,11.4203 52.4615,11.2094 52.4188,11.7393 Z M 53.4328,14.2559L 53.3829,14.7377L 52.8426,14.6864L 52.931,14.2345M 52.7024,14.734L 52.6597,15.2164L 52.1212,15.17L 52.1584,14.6901"/>
		<path fill="#000000" fill-opacity="1" stroke-width="0.2" stroke-linejoin="round" d="M 17.8304,34.6859L 17.7293,34.7391C 18.0714,34.9713 18.2946,35.152 18.3867,35.2885C 18.4806,35.4249 18.5854,35.4323 18.722,35.3043C 18.8567,35.1769 18.8866,35.0743 18.8,35.0104C 18.7147,34.9464 18.3903,34.8365 17.8304,34.6859 Z M 20.4038,34.6383C 20.4655,34.9501 20.6892,36.3055 21.2209,38.5564L 20.6374,38.5741L 20.3507,38.4642L 20.6732,38.7745C 20.9106,38.7052 21.1782,38.6556 21.474,38.6222L 26.0767,38.0958L 25.2242,37.777L 24.6906,38.1082L 23.9004,34.6346L 24.2882,34.4681L 23.6041,34.234L 23.1327,34.5194L 21.1106,34.7518M 20.999,34.8634L 23.2625,34.6097L 23.4589,35.6891L 21.2563,35.944M 19.1597,35.3737L 18.9415,35.5775L 16.7706,35.7902L 17.0596,35.9086C 17.2597,35.8538 17.4811,35.8184 17.7293,35.7933L 18.8762,35.6749C 18.6226,36.111 18.3073,36.4952 17.9298,36.8234C 17.5523,37.1495 17.1536,37.4349 16.7225,37.683L 16.8255,37.7271C 17.4335,37.4258 17.9348,37.1405 18.3159,36.8605C 18.4239,37.9647 18.4792,38.6398 18.4792,38.8807L 18.9701,38.6613C 18.9238,38.4362 18.8531,37.8514 18.761,36.8905C 19.2323,37.0624 19.5391,37.208 19.6879,37.3392C 19.8366,37.4684 19.955,37.4897 20.0368,37.3904C 20.1183,37.2928 20.1397,37.2008 20.1075,37.1173C 20.0776,37.036 19.8117,36.9458 19.3031,36.8514C 19.5354,36.6708 19.7763,36.483 20.0313,36.288L 20.2953,36.2135L 19.7037,36.0275C 19.5939,36.3038 19.4111,36.5751 19.1629,36.8304L 18.7451,36.7665L 18.7288,36.5629C 18.9311,36.3129 19.1434,36.0385 19.3635,35.7385L 19.7269,35.5934M 21.2685,36.0488L 23.4839,35.7933L 23.7143,36.8959L 21.4686,37.1476M 21.4935,37.2521L 23.7547,36.9899L 24.0138,38.2357L 21.7508,38.4979"/>
		<path fill="#000000" fill-opacity="1" stroke-width="0.2" stroke-linejoin="round" d="M 42.8559,27.0939C 42.973,27.0585 43.0792,27.0513 43.1785,27.0708C 43.2779,27.0922 43.3364,27.1348 43.3559,27.1964C 43.4054,27.3544 43.2743,27.5421 42.964,27.7618C 42.654,27.98 42.1241,28.205 41.3742,28.4374C 40.6211,28.671 40.0558,28.7843 39.6783,28.7775C 39.3009,28.7704 39.0863,28.6886 39.0386,28.5331C 39.0191,28.4708 39.044,28.4032 39.1112,28.3307C 39.1801,28.2582 39.2758,28.2032 39.3984,28.1642C 39.5222,28.127 39.6357,28.1166 39.7368,28.1342C 39.8398,28.152 39.9936,28.2123 40.2027,28.3148C 40.4954,28.4636 40.8747,28.4655 41.3388,28.3221C 41.7998,28.1801 42.1101,27.9641 42.2711,27.6752C 42.381,27.4713 42.4712,27.3348 42.5443,27.264C 42.6169,27.1927 42.7212,27.1361 42.8559,27.0939 Z M 43.3591,28.5789C 43.2974,28.3805 43.0297,28.4691 42.6291,28.5558L 42.5992,28.4581L 44.9969,27.6166L 45.0268,27.7141C 44.6018,27.9215 44.256,28.1093 44.3232,28.3112L 44.9597,31.1449C 44.9897,31.2247 45.2823,31.1681 45.7165,31.0656L 45.7464,31.1626L 43.3913,32.0541L 43.3627,31.9567C 43.8413,31.7174 44.1303,31.5455 44.0432,31.2728L 43.5632,29.0094L 40.5929,32.7115C 40.7472,32.7346 41.1333,32.7047 41.4241,32.6407L 41.4522,32.7383L 38.8136,33.5414L 38.7832,33.442C 39.3398,33.1779 39.6216,33.0394 39.5953,32.8961L 38.9678,30.0392C 38.9483,29.8727 38.4592,29.8973 38.0514,29.9984L 38.0215,29.9009L 40.8266,29.0184L 40.857,29.1161C 40.5608,29.2594 39.8148,29.527 39.8929,29.7806L 40.4228,32.1803"/>
		<path fill="#000000" fill-opacity="1" stroke-width="0.2" stroke-linejoin="round" d="M 58.3294,34.8048C 58.2124,34.8793 57.6843,35.9635 57.3777,36.5909L 56.9008,37.119L 56.9326,35.8751C 56.7289,36.2489 56.3781,36.3306 56.3282,36.2758C 56.2575,36.194 56.3446,35.783 56.5428,35.5208C 56.6971,35.3188 57.0301,34.9591 57.2519,34.9323C 57.599,34.8915 57.305,35.8646 57.3404,36.3129C 57.6294,35.6447 57.9729,35.0299 58.3807,34.4078L 58.4606,33.4261C 58.4442,33.2401 58.3381,33.1547 58.1399,33.2505C 57.9375,33.348 57.7143,33.5695 57.4734,33.837C 57.1417,34.2023 56.6562,34.7408 56.477,35.2477L 55.9635,35.7262C 56.0429,34.8066 57.4203,33.3693 58.299,32.6302C 58.4959,32.4637 58.6978,32.5272 58.7582,32.7633C 58.8186,32.9987 58.7155,33.2931 58.7264,33.8457C 59.0277,33.559 59.0876,33.5608 59.0417,33.9257C 58.9955,34.3121 58.6978,34.8579 58.4533,35.2299C 58.26,35.5208 58.271,35.1927 58.3294,34.8048 Z M 56.7624,35.5031C 56.6281,35.6696 56.5605,35.7477 56.5746,35.9C 56.5836,36.0135 56.6812,35.9371 56.7982,35.8324C 56.9185,35.7245 56.9983,35.5934 56.9929,35.4408C 56.9861,35.2531 56.8549,35.3915 56.7624,35.5031 Z M 58.6711,34.2994C 58.6021,34.4451 58.5722,34.6415 58.6253,34.6755C 58.6729,34.7037 58.7264,34.567 58.7832,34.4359C 58.8203,34.3492 58.8979,34.1279 58.8485,34.078C 58.8009,34.0321 58.7155,34.2109 58.6711,34.2994 Z "/>
		<path fill="#000000" fill-opacity="1" stroke-width="0.2" stroke-linejoin="round" d="M 41.1192,14.6547C 41.1247,14.6759 41.1211,14.6969 41.1084,14.7201C 41.0943,14.743 41.0766,14.7572 41.0534,14.7645C 40.8729,14.8317 40.7345,14.9187 40.6388,15.0231C 40.5412,15.1278 40.4618,15.2963 40.396,15.5267L 39.5313,18.9965C 39.5258,19.0265 39.4959,19.0514 39.4374,19.069C 39.3929,19.0831 39.3539,19.08 39.3203,19.0604L 37.7873,17.8658L 37.0219,19.7637C 37.0061,19.7977 36.9738,19.8221 36.9298,19.8368C 36.8745,19.8527 36.8341,19.8507 36.8092,19.8295L 34.0426,17.4794C 33.8688,17.3341 33.7077,17.2438 33.5571,17.2117C 33.4047,17.1798 33.2096,17.1908 32.9723,17.2438C 32.9529,17.2506 32.9333,17.2489 32.9102,17.2402C 32.8888,17.2294 32.8748,17.2172 32.8694,17.1976C 32.8553,17.15 32.8675,17.1195 32.9065,17.1073C 33.0749,17.0579 33.2505,17.0098 33.4364,16.964C 33.6084,16.9213 33.7699,16.8787 33.9187,16.8324C 34.0711,16.7865 34.2481,16.7262 34.4522,16.6537C 34.6664,16.5756 34.856,16.5116 35.0226,16.4622C 35.0634,16.4498 35.0902,16.4677 35.106,16.5153C 35.1201,16.5615 35.1151,16.5897 35.0902,16.5969C 34.9254,16.6573 34.8029,16.7262 34.7213,16.8043C 34.6401,16.8822 34.6115,16.962 34.6364,17.0416C 34.6487,17.0824 34.6841,17.1268 34.7426,17.1763L 37.0183,19.0818L 37.5518,17.683L 36.3768,16.7653C 36.1659,16.6024 36.003,16.5048 35.8896,16.4745C 35.7775,16.4427 35.6237,16.4498 35.4268,16.494C 35.4091,16.4994 35.3896,16.4976 35.3701,16.4889C 35.3487,16.478 35.3365,16.4657 35.331,16.4463C 35.3152,16.3982 35.3256,16.37 35.3614,16.3596C 35.5279,16.308 35.6822,16.2653 35.8255,16.2335C 35.964,16.2035 36.1073,16.1646 36.2597,16.1183C 36.4085,16.0724 36.5664,16.0194 36.7293,15.9572C 36.8994,15.8951 37.0678,15.8383 37.2343,15.787C 37.2733,15.7743 37.3018,15.7926 37.3159,15.8402C 37.33,15.8864 37.325,15.9146 37.3001,15.9218C 36.9702,16.0385 36.8232,16.1554 36.8586,16.2689C 36.8731,16.3207 36.9367,16.3859 37.0465,16.4694L 37.8177,17.0524L 38.1453,16.2035C 38.1916,16.0847 38.2038,15.9908 38.1843,15.9249C 38.1367,15.7694 37.9434,15.7372 37.6068,15.8297C 37.5764,15.8383 37.5537,15.8188 37.5392,15.7711C 37.5341,15.7549 37.5373,15.7357 37.5482,15.7163C 37.5569,15.6968 37.5714,15.6841 37.5854,15.6791C 37.7057,15.6432 37.8531,15.6029 38.0318,15.5602C 38.202,15.5194 38.3404,15.4823 38.4465,15.4486C 38.5246,15.4254 38.6362,15.3865 38.7832,15.3334C 38.9696,15.2626 39.1253,15.2091 39.2532,15.17C 39.2832,15.1615 39.3045,15.1774 39.3167,15.2181C 39.3326,15.2712 39.3131,15.3066 39.26,15.3243C 39.0686,15.3969 38.9234,15.4803 38.824,15.576C 38.7233,15.6718 38.6167,15.8524 38.5051,16.1165L 38.0622,17.2384L 39.446,18.2892L 40.0399,15.6151C 40.0648,15.5157 40.0666,15.4327 40.0453,15.3634C 39.9936,15.1969 39.8008,15.1595 39.4637,15.2517C 39.4337,15.2609 39.4106,15.2413 39.3966,15.1932C 39.3825,15.1456 39.3966,15.1151 39.4428,15.1012C 39.5631,15.0638 39.7101,15.0249 39.8802,14.984C 40.0381,14.9469 40.1692,14.9132 40.274,14.8815C 40.3838,14.8475 40.5077,14.8035 40.6515,14.7487C 40.7967,14.6937 40.9295,14.6473 41.0503,14.6102C 41.082,14.5997 41.107,14.6139 41.1192,14.6547 Z "/>
		<path fill="#000000" fill-opacity="1" stroke-width="0.2" stroke-linejoin="round" d="M 46.5154,43.3859C 46.5086,42.0121 46.4891,41.9554 46.441,40.9791C 44.8336,41.5961 42.2589,42.6378 41.8529,42.7177C 41.4277,42.8011 40.896,42.7548 40.9845,42.4413C 41.0571,42.1841 41.5693,41.6456 42.0284,41.4772C 41.8814,41.6705 41.7766,41.8456 42.0284,41.8615C 42.3528,41.8846 43.6944,41.3212 44.3499,41.1066C 45.0005,40.8942 46.3543,40.1552 46.755,40.3163C 47.1606,40.4796 47.0739,41.8192 47.0739,42.7885C 47.0757,42.9268 47.1165,43.0438 47.0526,43.1414C 46.9337,43.3219 46.7037,43.3433 46.5154,43.3859 Z "/>
		<path fill="#000000" fill-opacity="1" stroke-width="0.2" stroke-linejoin="round" d="M 24.0773,48.3038C 24.1767,48.4222 24.5863,48.4386 24.795,48.5112C 25.006,48.5819 26.0658,48.6246 26.3974,48.6014C 26.7695,48.5765 27.2,48.4083 27.3951,48.2736C 27.5616,48.1583 27.6591,48.0236 27.6488,47.8729C 27.6256,47.5326 26.7024,47.246 25.9719,47.0917C 25.304,46.9479 24.0383,47.0862 23.1046,47.1234C 21.9491,47.1678 21.0843,47.2174 20.0599,47.2264C 19.9373,47.2281 19.7763,47.1149 19.7763,46.9996C 19.7781,46.8275 20.0227,46.7599 20.0526,46.5404C 20.0599,46.4873 20.0653,46.4393 20.0349,46.4269C 20.0172,46.4198 19.8471,46.413 19.7641,46.4252C 19.6983,46.4357 19.6452,46.4696 19.4397,46.4781C 19.3544,46.4818 19.197,46.4781 19.0885,46.4325C 18.9946,46.3915 18.7074,46.2318 19.1062,46.1647C 19.2482,46.1416 19.9587,46.0372 20.2441,46.2782C 20.5349,46.5227 20.2177,46.8312 20.2177,46.8312C 20.2177,46.8312 21.1283,46.8326 21.5965,46.8185C 22.8265,46.7814 25.6529,46.5331 25.6529,46.5331C 25.8444,46.5192 26.2909,46.3881 26.4079,46.3173C 26.5177,46.2496 26.5975,46.1715 26.5639,46.1062C 26.4274,45.83 26.25,45.8405 25.8762,45.7733C 26.431,45.6561 27.0195,45.7927 27.0494,46.1202C 27.0866,46.5068 26.6524,46.7179 26.1651,46.9105C 26.681,46.9906 27.333,47.2032 27.6469,47.3876C 27.9622,47.5698 28.1696,47.7191 28.1855,47.9459C 28.2013,48.1759 28.0829,48.3801 27.7885,48.568C 27.4536,48.7789 27.0086,48.9327 26.2555,48.965C 25.6352,48.9913 24.5863,48.8319 24.212,48.6686C 23.8668,48.8815 23.2021,49.1083 22.5924,49.151C 22.0429,49.1881 21.2525,49.0997 20.994,48.9667C 20.6642,48.7965 20.4605,48.6777 20.4464,48.4667C 20.4338,48.3002 20.4818,48.1301 20.7368,48.0643C 20.8416,48.038 21.2295,47.9528 21.6795,47.983C 22.2503,48.0204 22.8954,48.2716 22.5266,48.5856C 22.4417,48.6582 22.2948,48.6388 22.1015,48.5819C 22.5216,48.1405 20.8642,48.2118 20.8788,48.4154C 20.8875,48.5375 20.999,48.6351 21.2154,48.7076C 21.4332,48.7838 22.2166,48.8339 22.5321,48.8107C 22.8686,48.7875 23.404,48.6405 23.6078,48.5411C 23.8114,48.4418 23.9852,48.4349 24.0773,48.3038 Z M 19.7001,46.2782C 19.7001,46.241 19.5458,46.2338 19.4592,46.2355C 19.3739,46.2374 19.2269,46.255 19.2287,46.285C 19.2287,46.3153 19.3689,46.3544 19.4537,46.3527C 19.5372,46.3507 19.6983,46.3153 19.7001,46.2782 Z "/>
		<path fill="#000000" fill-opacity="1" stroke-width="0.2" stroke-linejoin="round" d="M 45.9964,7.0835C 45.0604,5.08459 44.7787,4.58643 46.0195,4.38452C 45.6525,4.19299 45.55,4.03015 45.3104,4.09558C 44.7646,4.24255 43.9865,3.66321 43.6358,3.51611C 43.9847,3.38147 44.4883,3.25208 44.7238,3.23438C 44.7701,3.22888 45.2483,3.41858 45.3086,3.41003C 45.2201,3.2113 44.3395,2.66003 44.1993,2.69226C 43.4408,2.86731 42.3315,3.18445 41.8424,3.31238C 42.0017,3.65271 43.6499,3.85278 44.5042,4.29785C 44.511,4.58459 44.9012,6.51819 45.9964,7.0835 Z "/>
		<path fill="#000000" fill-opacity="1" stroke-width="0.2" stroke-linejoin="round" d="M 4.96927,22.0094L 4.73196,22.5765C 4.74243,22.6437 4.81183,23.1771 4.59723,23.5846L 5.33813,23.5724C 5.34863,23.296 5.64117,22.8546 5.0564,22.5797L 5.24783,22.057L 5.93878,22.0411C 5.64282,22.5179 5.49918,23.3083 5.50464,23.567L 5.74734,23.5619C 5.47964,24.3219 5.38031,24.7316 5.31134,25.7787C 4.65759,25.1621 3.41174,25.1285 3.25931,25.2115C 3.28741,24.806 3.64551,24.1217 3.70572,24.0156L 3.56555,23.9962L 3.75519,23.5565L 4.40933,23.5883C 4.50858,23.4022 4.6503,23.2003 4.5777,22.6029C 4.28372,22.5797 4.04248,22.5533 3.94849,22.6083C 3.78375,22.7076 3.64905,22.8883 3.59955,23.4077C 3.55328,22.9077 3.55865,22.5358 3.70032,22.3157C 3.77335,22.2008 3.89355,22.1315 3.98929,22.0394M 5.24939,24.2811C 5.0564,23.9835 4.05841,23.9962 3.94501,24.0029C 3.78375,24.1412 3.64905,24.5524 3.59778,24.7297C 4.22858,24.6499 4.95166,25.2079 5.20328,25.4562C 5.19266,25.114 5.26178,24.6676 5.24939,24.2811 Z M 5.97064,21.7789C 5.84671,21.7858 5.58264,21.538 5.31671,21.2844C 4.98514,20.9637 4.35089,20.7264 4.11676,21.0045C 4.05688,21.0735 4.00882,21.141 4.01236,21.2863C 4.01416,21.3484 4.06372,21.421 4.15079,21.4564C 4.21796,21.4828 4.31366,21.5009 4.44299,21.5077C 4.41302,21.7362 4.39517,21.8925 4.27466,21.8942C 3.78375,21.8978 3.6579,21.4386 3.69348,21.2173C 3.73566,20.9601 3.79422,20.8644 3.89175,20.7405C 4.08865,20.4923 4.31366,20.4833 4.52277,20.4709C 5.06329,20.4392 5.58963,21.3607 5.97064,21.7789 Z "/>
		<path fill="#000000" fill-opacity="1" stroke-width="0.2" stroke-linejoin="round" d="M 6.34802,13.1675L 7.3938,11.149L 8.01031,10.993L 8.27258,11.1989L 7.55347,12.6376C 7.48224,12.7797 7.52307,12.932 7.70911,12.9211C 7.90784,12.9108 8.21075,12.829 8.28888,12.6625L 8.84512,11.4771L 8.62555,11.08L 9.24756,10.7823L 9.37866,10.9258L 9.58417,10.9154L 9.20306,11.1422L 9.07013,10.963L 8.81519,11.0819L 9.02798,11.463L 8.48355,12.6271C 8.32611,12.9637 7.65601,13.1271 7.43643,13.024C 7.31213,12.9656 7.3493,12.7423 7.40967,12.618L 8.06705,11.2484L 7.94681,11.1349L 7.48407,11.2411L 6.80899,12.5155C 6.92239,12.441 7.2327,12.3453 7.034,12.7052C 6.92056,12.9088 6.53406,13.2015 6.53406,13.2015M 6.58755,12.9691L 6.74319,12.6661C 6.93475,12.5082 7.00745,12.535 6.92963,12.6766C 6.87296,12.7777 6.71869,12.9406 6.58755,12.9691 Z "/>
		<radialGradient id="SVGID_Stroke1_" cx="8.75516" cy="19.4869" r="137.125" gradientUnits="userSpaceOnUse" gradientTransform="rotate(-90.000000 8.755157 19.486938)">
			<stop offset="0" stop-color="#1F1F1F" stop-opacity="1"/>
			<stop offset="1" stop-color="#000000" stop-opacity="1"/>
		</radialGradient>
		<radialGradient id="SVGID_Fill2_" cx="8.75516" cy="19.4869" r="137.175" gradientUnits="userSpaceOnUse" gradientTransform="rotate(-90.000000 8.755157 19.486938)">
			<stop offset="0" stop-color="#1F1F1F" stop-opacity="1"/>
			<stop offset="1" stop-color="#000000" stop-opacity="1"/>
		</radialGradient>
		<path fill="url(#SVGID_Fill2_)" stroke-width="0.5" stroke-linejoin="round" stroke="url(#SVGID_Stroke1_)" d="M 21.9472,29.993C 21.21,30.5692 22.7997,31.0175 23.1082,31.5632C 23.4162,32.109 22.3778,32.6888 22.3991,32.6925C 22.4313,32.6937 23.5705,32.0028 23.2801,31.4821C 22.9875,30.9608 21.4673,30.493 21.9472,29.993 Z M 18.697,0.25C 18.7165,0.237305 18.6153,0.28186 18.5269,0.315308C 18.511,0.345825 17.6725,0.710571 17.2139,1.13062C 17.1957,1.22644 17.5432,1.44592 18.4348,0.999512C 18.2928,1.21057 17.4439,2.10388 16.8858,2.44226C 16.6431,2.59106 16.7048,2.24536 16.3469,2.4032C 15.8029,2.64417 14.3479,3.7113 14.2467,4.54419C 14.1991,4.93396 15.9095,3.69177 15.8224,4.04431C 15.7126,4.48572 15.0003,6.33765 13.7083,7.24817C 12.5454,7.45911 12.4801,7.44873 11.6862,7.60291C 10.6513,7.60291 13.671,5.88708 12.2637,5.81628C 10.4897,5.72791 10.2062,6.67065 9.8074,7.44507C 10.2593,6.68286 10.614,5.74377 12.2904,5.84314C 13.4478,5.91211 10.5324,7.65417 11.6594,7.65417C 12.4533,7.50183 12.5722,7.5 13.735,7.28723C 15.0248,6.37659 15.7639,4.49255 15.8737,3.99109C 15.9517,3.63684 14.2114,4.89307 14.2717,4.5033C 14.387,3.77649 15.8297,2.67407 16.3737,2.42957C 16.6785,2.29163 16.6286,2.65637 16.8718,2.50757C 17.4298,2.16736 18.3922,1.19104 18.5518,0.907471C 17.6621,1.35388 17.2615,1.22644 17.2792,1.13062C 17.717,0.730103 18.6049,0.308594 18.697,0.25 Z M 9.80923,7.44507C 9.47076,8.01587 9.08289,8.49585 8.04935,8.35071C 8.85059,7.39746 9.92627,6.29504 10.6104,5.42297C 10.1636,5.75281 10.1567,5.6925 10.3605,5.46204C 10.0557,5.78284 9.97073,5.91931 10.4652,5.55408C 9.61774,6.47913 8.79749,7.4364 7.99628,8.38965C 9.14273,8.53674 9.50433,8.03528 9.80923,7.44507 Z M 18.4737,0.329468C 18.3817,0.356201 18.1421,0.441528 17.6993,0.592163C 16.5914,1.15735 15.5511,1.80579 14.4169,2.33752C 13.6053,3.06433 13.118,3.34607 12.4873,3.92712C 12.6057,3.66321 12.4692,3.69666 12.2124,3.86194C 12.432,3.73938 12.5472,3.74475 12.4356,3.99304C 13.0649,3.41138 13.6302,3.09058 14.4436,2.36426C 15.5779,1.83252 16.6182,1.18372 17.7256,0.618408C 18.1548,0.453735 18.33,0.382935 18.4737,0.329468 Z M 42.9607,1.13062C 43.8322,1.60388 44.8853,2.42102 45.9147,2.98083C 45.3426,2.59973 44.3712,1.82019 42.9607,1.13062 Z M 39.363,1.56299C 39.1007,1.55945 38.7746,1.59839 38.3653,1.66785C 41.068,1.30078 39.1026,3.64001 42.5797,2.95447C 39.8929,3.1582 41.1918,1.58618 39.363,1.56299 Z M 30.9588,1.78625C 30.174,1.83972 29.2702,2.11609 28.9635,2.3905C 29.4118,2.06665 30.9643,1.74402 31.5899,1.97083C 32.143,2.17102 31.193,2.53259 32.0631,3.04651C 32.4124,3.25391 33.7077,3.2594 34.8456,3.06067C 33.715,3.20264 32.5028,3.04651 32.2455,2.9563C 31.8131,2.802 32.3698,2.02576 31.8399,1.85205C 31.6076,1.77576 31.2923,1.76355 30.9588,1.78625 Z M 36.5927,2.41736C 36.4689,2.86243 38.2342,5.09497 39.5204,5.13403C 39.9051,5.14673 40.0685,4.72656 40.3339,4.46436C 40.5979,4.20215 40.7717,4.03381 40.9242,4.00525C 41.0448,3.98206 40.6142,3.81189 40.3339,4.01746C 40.0522,4.22473 39.7954,4.74792 39.5594,4.8064C 38.7196,5.01013 37.0537,2.7594 36.5927,2.41736 Z M 28.8587,2.52209C 28.8501,2.55017 28.8429,2.57336 28.8587,2.59973C 28.8519,2.57336 28.8501,2.55017 28.8587,2.52209 Z M 46.255,2.75757C 46.2464,2.78259 46.3933,2.87646 46.4782,2.98083C 46.4464,2.91541 46.4019,2.84973 46.3208,2.7843C 46.5635,2.73254 48.2063,4.02649 48.4209,4.21619C 48.7734,4.52478 48.0556,4.22839 48.0929,4.4906C 48.155,4.92664 49.5107,6.11267 50.654,7.20959C 50.0583,7.41333 49.3138,8.14148 49.3138,8.58838C 49.3138,9.35925 50.4411,9.66223 50.8114,10.1495C 51.1607,10.6105 50.5827,10.8727 49.2484,11.2521C 49.9893,11.5709 51.501,11.1136 51.2174,10.2416C 50.9071,9.28113 49.8827,9.49768 49.6826,8.62744C 49.6064,8.29761 50.712,7.46277 50.9035,7.3938C 52.162,8.32751 53.9818,10.3641 53.8438,10.8197C 53.7976,10.9735 53.2377,10.4171 52.9383,10.5836C 52.4134,10.8727 54.3415,13.8108 54.9458,14.0748C 55.1659,14.1705 55.3111,12.6344 55.1305,12.6307C 54.7689,12.6271 55.1001,13.818 54.8805,13.7084C 54.6482,13.5912 53.1506,11.6718 53.1878,10.9771C 53.2005,10.7307 54.1378,11.2783 54.1183,10.9381C 54.0883,10.3818 52.3213,8.37195 50.8772,7.14392C 48.7911,5.1626 48.1745,4.65759 48.2898,4.4906C 48.4154,4.33142 48.9204,4.63953 48.8161,4.50525C 48.5697,4.19128 46.9056,2.90454 46.4392,2.7843C 46.3099,2.75037 46.2604,2.74536 46.255,2.75757 Z M 46.4782,2.98083C 46.5154,3.06238 46.519,3.12964 46.5172,3.16492C 46.5581,3.10828 46.5263,3.04114 46.4782,2.98083 Z M 46.505,3.17761C 46.4768,3.20764 46.4342,3.22168 46.4251,3.23083C 46.4696,3.25024 46.4891,3.22351 46.505,3.17761 Z M 45.9664,3.00757C 46.1347,3.11731 46.2781,3.20264 46.3739,3.21851C 46.2354,3.15454 46.1043,3.08191 45.9664,3.00757 Z M 40.9649,4.18945C 41.7503,4.6449 42.753,5.55774 42.973,6.21155C 43.1499,6.73962 42.5456,6.54675 41.7907,6.55176C 42.5157,6.83716 43.4585,6.91516 43.3663,6.26331C 43.2511,5.43884 41.89,4.18579 40.9649,4.18945 Z M 28.7013,4.3595C 27.6714,4.69617 26.7536,4.49609 25.6299,4.57056C 25.6262,4.60583 25.6212,4.67175 25.6158,4.71436C 26.6134,4.64856 27.5725,4.79187 28.7013,4.3595 Z M 25.6035,4.8064C 25.5078,5.45837 25.3817,6.11584 25.4066,6.57849C 25.4102,6.08411 25.5432,5.3009 25.6035,4.8064 Z M 11.9093,5.90845C 11.4185,5.93701 10.7256,6.19568 10.5836,6.48645C 9.97754,7.72681 9.10236,8.88416 7.91824,8.50854C 7.17401,9.13782 5.64981,11.0746 5.67291,11.9484C 5.67838,12.1466 6.55716,10.9862 6.63159,11.1862C 6.75226,11.516 6.35709,12.3241 6.01501,12.8807C 5.72058,13.3571 5.354,13.9865 4.9375,14.245C 4.85767,14.2948 4.7565,13.5577 4.63617,13.7206C 3.80145,14.8529 2.83374,16.5774 2.86395,17.6849C 2.88184,18.316 4.01788,18.752 4.79413,17.6849C 5.06506,17.3129 4.7619,16.0687 5.09537,15.7286C 5.29547,15.5267 5.67114,15.2626 6.13391,15.1774C 6.58215,15.0956 7.5834,15.2712 7.5108,15.7286C 7.38153,16.5739 6.20105,17.1958 6.64612,17.6337C 7.37787,18.3513 9.6817,18.1848 10.7946,17.5415C 10.2647,15.8188 11.4666,12.8448 12.7106,12.4606C 13.1411,12.3278 13.5327,12.8839 14.0766,12.7351C 15.0766,12.4625 15.3084,11.4806 15.3242,10.871C 15.3388,10.2948 15.4803,9.58423 14.9827,9.70313C 14.3443,9.85559 13.2582,11.0605 12.7637,10.5961C 11.9588,9.84094 13.1588,8.45862 13.7083,7.44507C 13.1606,7.44873 11.4697,7.96094 11.149,7.68103C 11.1472,8.1842 12.8807,7.62073 13.485,7.61523C 12.9356,8.62878 11.8635,9.91223 12.6185,10.713C 13.0064,11.1241 14.1724,10.1178 14.8125,9.96533C 15.3102,9.84656 15.1668,10.4136 15.1528,10.9899C 15.1382,11.5973 15.023,12.3436 14.0236,12.618C 13.4796,12.7673 13.1411,12.1434 12.7106,12.2765C 11.4647,12.6608 10.0147,15.7408 10.5447,17.4615C 9.43182,18.1068 7.57452,18.0696 6.84256,17.5928C 6.31989,17.2543 7.5249,16.4957 7.65601,15.6505C 7.72681,15.1913 6.66016,14.9772 6.21191,15.0602C 5.75098,15.1437 5.1911,15.4731 4.9906,15.6774C 4.65759,16.0157 4.98697,17.2915 4.67529,17.6337C 3.89896,18.4825 2.98621,18.2892 2.96851,17.6586C 2.93854,16.5507 3.88312,14.9803 4.60962,13.9564C 4.72656,13.7914 4.83133,14.465 4.91071,14.4152C 5.32721,14.1566 5.7438,13.4547 6.06628,12.9974C 6.44031,12.4711 6.92603,11.3331 6.7627,10.963C 6.67776,10.7679 5.72964,11.9308 5.77728,11.7374C 5.99902,10.8636 7.22729,9.26892 7.9715,8.63965C 9.15546,9.01526 10.0306,7.84387 10.6354,6.60535C 10.7982,6.27368 11.6789,5.99548 12.1593,6.03955C 12.2355,6.04675 12.28,6.06091 12.3172,6.07861C 12.3489,5.99377 12.2991,5.94067 12.1062,5.92114C 12.0459,5.91565 11.9801,5.90527 11.9093,5.90845 Z M 12.3172,6.08044C 12.2124,6.35168 11.2306,6.92419 11.0959,7.51086C 11.0782,7.58704 11.1031,7.64197 11.149,7.68103C 11.149,7.66333 11.144,7.65063 11.149,7.62927C 11.3087,6.93103 12.6557,6.25781 12.3172,6.08044 Z M 41.293,6.25061C 40.9527,6.23828 40.749,6.59631 40.754,6.95959C 40.7631,7.5354 42.1082,10.2574 43.1839,10.6227C 41.3905,11.7588 40.9863,11.4417 38.3508,11.8563C 40.0612,11.7479 42.3156,12.0953 43.8396,10.5184C 42.4857,9.8678 41.6577,8.3634 41.2399,6.97192C 41.0838,6.45288 41.3637,6.50769 41.6723,6.39441C 41.5321,6.29675 41.4064,6.25415 41.293,6.25061 Z M 25.4066,6.67065C 25.4121,6.80896 25.4279,6.9115 25.4724,6.95959C 25.4864,6.97546 25.4969,6.98279 25.5114,6.99866C 25.481,6.9469 25.4492,6.89563 25.4315,6.82849C 25.4206,6.7804 25.4121,6.72375 25.4066,6.67065 Z M 28.5044,6.69739C 28.4459,6.69568 28.386,6.69739 28.3343,6.70959C 27.4713,6.92737 26.8493,7.79443 26.2468,7.76038C 25.9896,7.50549 25.8548,7.37793 25.7346,7.26086C 26.2323,7.82617 26.3689,7.97681 26.8634,7.81213C 27.6079,7.5658 28.1092,6.79138 28.9653,6.82849C 29.0148,6.83032 29.0611,6.83899 29.1087,6.85303C 28.9154,6.76636 28.7068,6.70239 28.5044,6.69739 Z M 7.47174,8.32434L 7.45953,8.35071L 7.73404,8.45544C 7.2486,8.99768 5.54181,10.6123 5.52936,11.8954C 5.52774,12.0106 5.56131,12.0758 5.60718,12.1185C 5.69791,12.2015 5.89615,12.0192 6.35709,11.5406C 6.36572,11.5319 6.46869,11.4166 6.47415,11.5282C 6.49548,11.8917 5.40164,13.5045 5.14835,13.7985C 5.0119,13.9596 4.98514,13.9547 4.93933,13.8253C 4.8277,13.5223 4.7887,13.3766 4.72833,13.3925C 4.60767,13.423 3.76788,14.5394 3.15271,15.9005C 2.95804,16.3311 2.77161,16.8378 2.65308,17.3055C 2.56107,17.2311 2.34293,17.047 2.24713,17.017L 2.22083,17.1073C 2.37146,17.1727 2.50616,17.2474 2.69385,17.5148C 2.90137,16.2726 3.92398,14.2948 4.70157,13.485C 4.81,13.3717 4.92664,14.1212 5.04364,13.9968C 5.66251,13.3308 6.55374,11.8368 6.52722,11.4894C 6.50226,11.1686 5.88562,12.0529 5.68713,12.0795C 5.65344,12.085 5.57367,12.0497 5.5686,11.9874C 5.47623,10.9789 6.75772,9.52576 7.79984,8.45728M 47.0031,8.91589C 45.5073,8.88416 43.6054,10.0929 43.8255,10.3197C 44.1353,10.6385 45.8122,8.76721 47.9477,9.16418C 47.6782,8.99939 47.3484,8.92322 47.0031,8.91589 Z M 47.2141,9.27075C 49.1173,9.56653 47.0349,11.9467 49.7466,11.5673C 47.5081,11.3868 49.6223,9.16052 47.2141,9.27075 Z M 36.0805,9.54529C 33.8175,9.61963 31.6021,10.6509 32.299,11.5406C 32.6393,11.9747 34.1456,12.4198 33.8089,12.8807C 33.059,13.9047 31.1948,14.015 27.8756,14.3639C 32.834,14.2559 33.1815,13.9669 34.2821,12.9584C 35.0316,12.2692 33.0486,11.9003 32.7455,11.1989C 32.4174,10.4403 35.4018,9.46533 37.5373,9.64954C 37.2098,9.58972 36.8713,9.55432 36.5274,9.54529C 36.3768,9.54163 36.2312,9.54163 36.0805,9.54529 Z M 36.6318,9.82153C 36.5274,9.8197 36.4244,9.82874 36.3165,9.83423C 35.7988,9.86597 35.2462,9.97937 34.8456,10.1764C 35.87,10.0306 36.7348,9.80554 37.183,10.2294C 37.4135,10.4454 36.88,11.1666 36.9475,11.5814C 37.075,12.3862 37.4561,12.2479 41.082,12.0405C 37.7946,11.9344 36.9671,12.441 37.761,10.4525C 37.9257,10.0397 37.3549,9.83069 36.6318,9.82153 Z M 43.9829,10.8051C 43.9548,10.8051 43.9316,10.816 43.9176,10.8319C 43.6395,11.1649 45.858,12.6112 45.8086,14.1406C 45.789,14.7413 45.8153,14.7926 44.864,14.7059C 45.6543,14.9559 46.3081,15.0535 46.3208,14.1937C 46.3421,12.7478 44.4139,10.816 43.9829,10.8051 Z M 55.3397,12.9851C 56.0465,14.0767 56.5855,14.6473 57.1789,16.3207C 56.2806,16.9725 55.4263,18.0963 55.4971,19.0636C 55.552,19.8009 56.4966,20.191 56.4684,20.6534C 56.4331,21.2614 55.4458,22.1619 54.7884,22.3334C 55.7489,22.9645 56.9258,21.2101 56.9149,20.4038C 56.9117,20.0033 56.1513,19.8417 55.9562,19.0636C 55.7384,18.1903 57.1295,16.7987 57.2569,16.6891C 57.7868,17.15 58.5595,22.1193 59.0681,19.9178C 58.5223,21.3888 58.0582,17.8146 57.4271,16.6093C 57.7179,16.4354 57.5849,16.4908 57.8472,16.2548C 57.8082,16.1646 57.8508,16.0792 57.7161,15.9396C 57.3954,16.184 57.4856,16.0847 57.3087,16.2548C 56.899,14.8761 56.2148,13.6974 55.3397,12.9851 Z M 33.573,13.8657C 30.8314,14.5712 30.0605,14.5394 28.2422,14.6401C 30.1082,14.9132 31.5033,14.5253 33.573,13.8657 Z M 26.8121,14.4828C 26.6347,14.4845 26.3938,14.495 26.0622,14.509C 26.8615,14.5162 27.1329,14.7804 27.1397,14.7717C 28.0244,15.5565 28.5933,16.9249 28.5434,18.08C 28.5008,19.0995 28.1555,19.7338 26.5354,19.2872C 24.9779,18.858 23.1504,19.4342 23.4766,21.2559C 23.6966,22.4857 23.7461,24.111 25.9311,23.9481C 24.5827,23.9657 23.7833,22.3351 23.8845,20.9423C 24.0193,19.0337 25.7627,19.1757 27.1914,19.5105C 27.9677,19.6929 28.6854,19.785 29.0965,18.0537C 29.2507,17.3981 28.7403,15.9658 27.4409,14.509C 27.303,14.509 27.3384,14.4773 26.8121,14.4828 Z M 44.0895,14.6261C 43.9457,14.6224 43.82,14.6315 43.6944,14.6401C 42.9444,14.6882 42.5121,14.986 42.473,15.5707C 42.39,16.9 43.5243,19.2269 45.153,18.8141C 43.5292,18.0854 42.9853,16.8079 43.051,15.4274C 43.081,14.837 43.6853,14.6901 44.5487,14.6652C 44.3872,14.6456 44.231,14.6298 44.0895,14.6261 Z M 26.0109,14.6669C 24.0918,14.7096 21.2917,15.9164 20.3911,16.3719C 19.9641,16.5897 21.8338,17.7738 21.4673,18.2892C 20.4514,19.7216 17.3981,19.9679 16.0316,19.6027C 14.5906,19.2161 17.2987,17.3007 16.517,16.8182C 15.5247,16.2072 13.4156,16.6981 11.1349,17.6726C 11.3831,19.755 11.4788,20.088 11.016,21.5057C 10.8531,22.0077 10.2488,23.2888 8.86282,22.215C 8.12378,21.6442 7.47,22.2577 7.3139,23.3846C 7.09979,24.9335 7.40604,26.4506 8.79749,25.2347C 9.3501,24.7528 10.2153,24.9921 10.3727,25.4457C 11.0324,27.3544 11.5673,28.6642 10.674,30.3424C 15.1437,29.1373 16.8736,29.8954 17.5151,30.1454C 18.3781,30.4821 17.5768,31.3204 16.8718,32.2845C 17.9121,31.2035 18.4293,30.4485 17.6585,29.9613C 16.2816,29.0875 13.0277,29.5375 10.977,30.0924C 11.6789,28.5947 10.9594,26.5092 10.4916,25.4049C 10.2189,24.7633 9.22977,24.5382 8.71939,25.0646C 7.22729,26.5995 7.42056,24.2211 7.5639,23.2267C 7.65237,22.601 8.06204,21.8868 8.77075,22.3868C 9.5275,22.9186 10.2575,23.4449 11.1472,21.7291C 11.7837,20.5028 11.7161,19.0746 11.4362,17.6849C 13.6942,16.7987 15.3084,16.3646 16.3469,17.0433C 16.8115,17.3463 14.6705,18.7819 15.4005,19.4716C 16.1858,20.2142 20.2867,19.9711 21.4794,18.5392C 22.2503,17.6122 19.897,16.6908 20.5862,16.3469C 21.9259,15.6805 24.6199,14.6583 26.7713,14.7328C 26.5409,14.6847 26.284,14.6597 26.0109,14.6669 Z M 44.325,14.995C 44.1707,14.9967 44.0188,15.0126 43.8518,15.0463C 44.5822,15.2943 44.8799,15.3456 45.7428,15.1913C 45.2097,15.0992 44.7859,14.9877 44.325,14.995 Z M 6.33032,15.3615C 5.94424,15.3651 5.54727,15.4554 5.31848,15.6647C 4.89847,16.0493 5.21744,17.1781 4.87173,17.7914C 4.38626,18.6544 3.39029,18.8032 2.66724,18.027C 2.4209,19.4891 1.79163,22.4718 1.32751,22.3461L 1.35382,22.3868C 1.81476,22.5747 2.49893,19.7655 2.74527,18.316C 3.46121,19.0781 4.6272,18.5587 5.10944,17.7115C 5.44974,17.1127 4.98331,15.9999 5.47623,15.7303C 6.04333,15.4182 7.51627,15.4572 7.11731,15.9396C 6.72388,16.4164 6.00775,17.1798 6.31628,17.8695C 6.67422,18.6703 9.3537,18.7396 10.7416,17.9349C 10.8513,19.5424 10.9684,21.4796 9.95303,22.1368C 9.44763,22.4631 8.87552,21.4796 8.24625,21.4528C 6.87613,21.3978 6.07898,25.4457 7.74811,26.1403C 8.32928,26.3829 8.65051,25.4969 9.62503,25.339C 10.1476,25.256 10.8159,29.0697 10.2416,29.9344C 9.33105,31.3082 5.84851,30.3619 5.2265,29.6459C 4.90555,29.277 6.23639,28.338 5.84305,27.7423C 5.1748,26.7323 3.27338,26.3726 2.6922,26.9415C 1.97253,27.6466 3.24661,29.13 2.67947,29.5924C 2.30927,29.8954 1.45135,29.3978 1.13062,28.7135C 1.19641,27.358 1.49048,22.8406 0.827545,24.026C 0.824371,23.5229 0.811646,23.1681 0.842041,22.8438C 0.797607,23.2675 0.783508,23.714 0.788513,24.2103C 1.44275,23.0321 1.06348,27.496 1.02444,28.8715C 1.45499,29.7026 2.36951,30.1259 2.74527,29.816C 3.31964,29.3429 2.09467,27.8185 2.82318,27.099C 3.41174,26.5177 4.73541,26.9396 5.58084,27.7689C 6.10004,28.2758 4.80276,29.224 4.9906,29.6849C 5.27417,30.3881 9.32559,31.7389 10.5574,29.9879C 11.1648,29.121 10.4276,24.9901 9.63727,25.1815C 8.66638,25.4171 8.35785,26.2415 7.78717,25.9561C 6.23822,25.1835 7.18097,21.6937 8.27258,21.715C 8.90909,21.7291 9.5202,22.6918 10.0306,22.3583C 11.0587,21.6886 11.0092,19.3635 10.8976,17.7239C 9.36957,18.6422 6.66714,18.3069 6.47415,17.855C 6.17108,17.1481 6.92963,16.3719 7.32666,15.8864C 7.57977,15.5797 6.97183,15.3566 6.33032,15.3615 Z M 46.9904,16.9904C 46.0372,17.0914 45.0182,18.2556 45.1793,18.5128C 45.4665,18.9733 46.4446,17.0646 47.3715,17.0153C 47.3062,16.9994 47.2404,16.9921 47.1751,16.9904C 47.1111,16.9867 47.0544,16.9835 46.9904,16.9904 Z M 2.20813,17.3304C 2.14777,17.3287 2.0965,17.3555 2.0752,17.4227C 2.02029,17.6036 2.6618,17.3024 2.47052,18.2238C 2.30927,18.9965 2.04163,20.6307 1.51172,21.6515C 1.4462,21.7753 1.33276,20.8539 1.20868,20.9015C 0.811646,21.0631 0.430573,24.3292 0.696411,24.6713C 0.701843,24.6766 0.848877,24.361 0.893311,24.5133C 1.14648,25.3781 0.801208,25.8336 0.815308,28.2032C 0.756744,27.9904 0.2854,27.0214 0.25,27.402C 0.240906,27.5135 0.597534,28.235 0.866577,28.5311C 0.834778,27.2373 1.28302,25.0823 0.958649,24.2633C 0.918274,24.1591 0.768982,24.453 0.723175,24.4993C 0.666504,23.473 0.731812,21.8392 1.15555,21.1124C 1.23904,20.9709 1.33276,22.0907 1.41779,21.965C 1.99213,21.1266 2.32336,19.2306 2.5343,18.1971C 2.64774,17.6532 2.3837,17.3414 2.20813,17.3304 Z M 47.2404,17.3446C 47.1927,17.35 47.1519,17.3732 47.1216,17.4103C 47.0898,17.4476 50.0937,20.3844 49.0125,22.1368C 47.9935,23.787 43.5011,24.0243 43.1182,24.3558C 44.8159,24.0365 48.5343,24.214 49.6295,21.965C 50.4004,20.3844 47.9513,17.2526 47.2404,17.3446 Z M 25.5237,19.5636C 25.3199,19.5618 25.1321,19.5972 24.9724,19.7216C 25.6194,19.6788 27.2019,20.3788 28.347,19.838C 26.9841,19.9764 26.1366,19.5673 25.5237,19.5636 Z M 53.5671,19.5758C 52.0876,19.613 49.8564,21.1887 50.2071,21.5839C 51.515,20.985 51.5595,20.2533 54.1451,19.6539C 53.9731,19.5885 53.7799,19.5709 53.5671,19.5758 Z M 53.9872,19.9569C 54.5244,20.9618 53.0816,23.606 55.0116,22.5179C 53.5639,22.787 55.0525,20.2123 53.9872,19.9569 Z M 41.9753,21.4279C 39.6289,21.3873 36.3092,22.6705 36.2774,23.9747C 36.2579,24.7828 38.9519,25.1586 37.8653,25.9701C 35.1006,28.0367 31.3363,27.2623 31.2356,27.755C 32.9138,27.7654 36.2384,27.9764 38.5885,25.8658C 39.4746,25.0663 36.6658,24.3541 36.8146,23.7371C 37.0946,22.5978 40.9028,21.382 42.9072,21.5326C 42.6236,21.4686 42.3102,21.4332 41.9753,21.4279 Z M 1.09158,21.5448C 0.965881,21.9545 0.889679,22.3566 0.842041,22.7925C 0.871979,22.4877 0.948242,22.2023 1.06525,21.8217C 1.09705,21.9437 1.13968,22.0924 1.21045,22.215C 1.13605,22.0253 1.12878,21.6906 1.09158,21.5448 Z M 42.356,21.9259C 41.929,21.9222 41.3175,22.0077 40.6369,22.0308C 42.3633,22.0179 42.748,21.8302 41.8175,23.5406C 41.082,24.8944 43.292,24.7543 43.8518,24.7225C 43.2584,24.6976 41.9626,24.423 42.5139,23.4889C 43.2761,22.1936 43.0651,21.9314 42.356,21.9259 Z M 28.386,22.1229C 27.1097,22.165 26.2695,23.3297 25.4579,23.5406C 26.2768,24.0316 27.411,22.0289 29.3446,22.2948C 28.9989,22.1583 28.6818,22.1138 28.386,22.1229 Z M 49.6559,22.5303C 48.3783,23.0707 49.9929,28.0526 51.4796,27.0599C 49.7851,26.3744 49.8296,24.4054 49.6559,22.5303 Z M 28.6355,22.5692C 28.6056,22.5729 28.572,22.5747 28.5434,22.5834C 29.3233,23.6469 30.8813,25.6227 30.0533,27.5067C 27.8806,27.4623 22.5851,28.7172 21.5203,29.5411C 19.9873,30.7267 22.9558,31.496 22.4381,32.0345C 21.4686,33.045 18.6244,33.254 16.8718,32.6127C 17.8781,33.4683 21.9064,33.2914 22.7802,32.0345C 23.2674,31.3346 20.5453,30.693 21.4813,29.8302C 22.5216,28.8678 27.6537,27.6732 30.4734,27.7813C 30.5143,27.652 30.7002,27.5135 30.8277,27.1915C 31.393,25.7645 29.6831,22.7412 28.7276,22.5692C 28.6958,22.5638 28.6677,22.5675 28.6355,22.5692 Z M 53.4237,24.6835C 52.5998,24.7225 51.6638,26.6276 51.3358,26.7056C 52.3054,27.2159 52.8353,24.806 53.764,24.8005C 53.6542,24.7206 53.5407,24.6781 53.4237,24.6835 Z M 53.5548,25.0377C 53.3529,25.6334 54.6768,26.0109 54.0013,28.4636C 53.328,28.5204 52.4029,28.274 51.5858,29.2521C 51.3291,29.557 50.4394,33.1407 51.8607,34.5157C 49.943,36.4708 46.4201,36.7648 45.9928,37.0502C 45.7251,37.5923 50.2389,36.6976 51.8997,34.9232C 52.3762,34.4147 56.2502,31.0442 56.6404,31.3009C 56.86,31.4447 55.9666,33.775 56.1672,34.1488C 56.3654,34.5194 58.2319,32.6053 58.6094,31.7723C 57.9466,32.7346 56.6617,34.087 56.5873,33.7682C 56.394,32.9437 57.4752,30.7552 56.6013,31.0248C 55.7276,31.2937 52.9737,33.4047 52.334,34.0957C 51.687,33.922 51.437,30.757 52.0572,29.4222C 52.5023,28.4691 54.2903,29.1869 54.5525,28.3856C 55.0044,27.0087 54.4323,25.2488 53.5548,25.0377 Z M 3.62589,27.0214C 3.26294,27.0104 2.94354,27.1451 2.79837,27.5317C 2.60327,28.0563 3.51611,29.3002 3.06058,29.8033C 2.5629,30.3546 1.90869,30.3209 1.07935,29.318C 1.30618,29.821 2.3179,30.6313 3.23254,29.8568C 3.84912,29.3319 2.70447,28.2281 2.95624,27.5317C 3.22391,26.7946 4.28873,27.1525 4.88623,27.6378C 5.65698,28.2617 4.47839,28.8551 4.63617,29.5679C 5.02252,31.3065 8.93542,31.4022 9.79517,31.1698C 9.26709,32.9901 9.6214,36.7062 12.5795,35.5665C 10.1123,36.4049 9.44446,33.1102 10.125,30.9467C 8.50305,31.4108 5.04364,30.9961 4.8327,29.6459C 4.65936,28.5311 6.11938,28.2386 4.76736,27.4147C 4.40579,27.1947 3.98755,27.0299 3.62589,27.0214 Z M 34.7675,27.8612C 34.5797,27.8842 34.1138,27.9586 33.7554,27.9781C 33.279,28.0045 31.2265,28.0648 31.2088,28.1234C 31.1716,28.2494 33.0998,28.0844 33.573,28.0702C 34.0444,28.058 34.7444,27.9215 34.8456,27.8593C 34.8633,27.8507 34.8297,27.8524 34.7675,27.8612 Z M 28.9367,28.0844C 28.7453,28.0917 28.5666,28.1146 28.386,28.1361C 29.0788,28.1605 29.5111,28.1129 29.791,28.2013C 29.7452,29.0343 28.3275,33.431 32.2723,33.4135C 29.3111,32.7188 30.1454,30.0819 30.2643,28.1361C 30.0837,28.1075 29.5111,28.0612 28.9367,28.0844 Z M 0.921448,29.0819C 0.678741,30.0198 0.871979,32.5114 1.34155,33.0731C 1.57928,33.3566 1.61987,32.5096 2.0752,33.1388C 2.55743,33.7999 2.92947,35.5897 2.57513,36.4867C 3.20938,35.7671 2.72217,34.1774 2.33923,33.2433C 1.80615,31.9442 1.28485,33.3517 1.15738,32.5078C 1.02444,31.6327 0.733643,30.5387 0.921448,29.0819 Z M 16.1377,29.9879C 15.9145,29.9825 15.6736,29.9911 15.4023,30.0002C 16.6218,30.1083 16.9425,30.1473 16.9371,30.5778C 16.9317,31.2211 15.3157,32.3131 16.1237,32.9279C 16.8523,33.481 17.0596,33.2736 18.9202,33.5055C 17.0292,33.1547 16.3895,33.0858 16.4517,32.4156C 16.5152,31.7352 17.6158,31.0283 17.3981,30.4998C 17.2384,30.1173 16.8024,30.0038 16.1377,29.9879 Z M 14.1674,30.0002C 12.8893,30.0216 11.6008,30.1686 10.6227,30.6168C 10.0769,32.4406 9.75977,34.8384 11.4893,35.4091C 12.4002,35.7103 13.235,34.4518 14.1156,34.6346C 15.5919,34.9396 16.3151,37.1759 15.4272,38.599C 16.6536,37.713 16.028,34.4291 13.9052,34.3988C 12.8113,34.3829 11.9556,35.4872 11.4629,35.225C 10.2062,34.5585 10.3727,32.2565 10.7805,30.7089C 12.0386,30.243 12.6996,30.0837 15.4272,30.0126C 15.018,30.0002 14.5943,29.993 14.1674,30.0002 Z M 59.9223,31.037C 58.9565,31.5206 58.9106,33.3993 59.3838,34.4379C 59.0826,33.4225 59.0789,31.7474 59.9223,31.037 Z M 35.6201,31.3259C 34.2109,31.3151 33.3816,32.7809 31.9588,32.9811C 33.24,33.6493 34.4486,31.3613 36.2634,31.432C 36.0348,31.3613 35.8219,31.3278 35.6201,31.3259 Z M 30.6966,31.4181C 30.5746,31.4657 30.6363,31.932 30.9344,32.2987C 31.232,32.6639 31.7723,32.9225 31.932,32.8627C 32.0046,32.8358 31.56,32.5414 31.2497,32.1803C 30.938,31.8187 30.7533,31.3967 30.6966,31.4181 Z M 35.8963,31.707C 35.836,31.7229 35.7956,31.7742 35.7775,31.8522C 35.7335,32.0668 36.6672,32.5804 36.6445,33.5712C 36.6318,34.1488 37.0555,35.5652 35.4109,35.3701C 33.6669,35.1627 31.4143,35.1042 31.2765,37.9435C 31.2284,38.9288 30.9557,39.6515 31.7351,40.7662C 29.6758,41.0607 23.7638,42.0035 23.3845,42.9054C 22.9539,43.9318 25.1711,44.2347 24.9212,44.6C 24.6072,45.0555 22.0075,45.3531 19.7092,45.0197C 20.1397,45.8385 24.4602,45.7959 25.5377,44.6776C 25.9596,44.2401 23.6222,43.733 23.9498,43.0103C 24.3681,42.0919 31.5033,41.0253 32.6407,41.0535C 31.471,39.5065 31.8381,38.5758 31.9198,37.9435C 32.143,36.1818 32.593,35.4 34.6505,35.6056C 36.3165,35.7738 37.2964,35.9427 37.3141,33.6244C 37.3232,32.6779 36.3768,31.7297 35.9621,31.707C 35.939,31.7052 35.9159,31.7015 35.8963,31.707 Z M 2.35193,34.4379C 2.5733,35.7689 2.54657,36.4264 2.02393,35.4091C 1.82703,35.0299 1.44458,34.4877 1.4462,35.069C 1.81839,34.6896 2.31656,36.5665 2.47052,36.0525C 2.69037,35.3153 2.49893,34.4379 2.35193,34.4379 Z M 45.6117,34.4506C 43.6748,34.4537 39.9691,35.8842 39.3362,37.1691C 38.9801,37.8917 41.5852,38.4113 40.8851,38.9288C 37.8459,41.1705 33.3407,40.5643 33.362,41.0162C 34.4731,41.1688 39.5014,40.8639 41.5815,38.7833C 42.1595,38.2057 39.6679,37.5978 40.1497,36.9458C 41.0199,35.7689 44.6335,34.5408 46.6093,34.6879C 46.411,34.5177 46.0586,34.4506 45.6117,34.4506 Z M 52.5835,34.5426C 51.8748,35.1964 53.3792,37.0502 52.412,38.2448C 51.5595,39.3009 49.9911,38.3453 49.0783,39.8734C 48.4386,40.9419 48.0539,43.0348 49.8528,42.7743C 48.8886,42.14 49.0216,41.0289 49.6295,40.0309C 50.5278,38.5527 51.9402,39.6942 52.8194,38.3759C 53.4664,37.4081 53.4713,35.6251 52.5835,34.5426 Z M 45.9397,34.8312C 45.8847,34.8402 45.8366,34.8829 45.8086,34.9767C 45.417,36.2758 44.7982,36.4812 44.8109,37.13C 44.8195,37.5287 45.0572,37.6118 45.9147,37.4703C 45.5781,37.3959 45.4524,37.121 45.4683,36.933C 45.511,36.3768 46.039,35.8488 46.294,35.239C 46.3525,35.1024 46.1098,34.8098 45.9397,34.8312 Z M 14.1283,34.8969C 15.1473,36.3768 15.2748,37.6263 14.587,38.3246C 14.2309,38.6875 12.3594,36.9879 11.516,37.7202C 10.2561,38.8136 10.8904,41.5961 11.9361,42.6041C 10.4489,42.7444 8.07794,42.2675 7.10489,41.1473C 6.69556,40.6742 7.60294,40.2455 7.20959,39.6498C 6.69373,38.8702 3.86542,37.6295 3.69168,38.2838C 3.66309,38.3934 3.70032,38.546 3.75699,38.7037C 3.73248,38.6132 3.73749,38.5477 3.78375,38.507C 4.38452,37.9611 6.29858,39.276 7.09253,39.7667C 7.51263,40.0291 6.61206,40.9205 6.95959,41.2522C 8.11151,42.3474 10.2593,43.1659 12.4216,42.709C 11.3368,41.4506 10.7062,39.2333 11.6612,38.1136C 12.2442,37.4293 14.0059,38.9534 14.9028,38.5599C 15.9572,38.099 15.3528,35.1183 14.1283,34.8969 Z M 13.0917,35.3312C 12.9796,35.3878 12.8661,35.4427 12.7637,35.4889C 12.8698,35.4445 12.9782,35.3895 13.0917,35.3312 Z M 1.72086,35.3434C 1.50641,37.1422 2.8374,40.0132 4.40033,40.662C 5.49918,41.1156 4.38989,39.8698 3.92715,39.0721C 4.3046,39.7863 4.97473,40.6124 4.70157,40.5558C 3.17764,40.2418 1.8075,37.6385 1.72086,35.3434 Z M 34.0975,35.8434C 33.9328,35.8488 33.8194,35.8683 33.823,35.8947C 33.8334,36.0171 35.5897,36.1818 35.581,36.0258C 35.5738,35.9037 34.5902,35.8275 34.0975,35.8434 Z M 12.0405,38.1788C 11.3776,38.2289 11.4185,41.6383 12.5917,42.5121C 13.0861,42.881 18.3781,41.9113 20.5489,43.1696C 19.1153,41.5961 13.9918,42.4431 12.8026,42.2621C 11.6116,42.0834 11.4843,38.1222 12.1062,38.1935C 12.0831,38.188 12.0618,38.1771 12.0405,38.1788 Z M 4.34723,38.599C 3.39404,38.5795 5.26688,40.4315 5.10944,41.0022C 5.65344,40.2169 3.89539,39.0472 4.34723,38.599 Z M 6.46146,39.6498C 6.86023,40.0807 5.64981,40.7771 7.06573,41.7499C 5.98306,40.5345 7.66327,40.0875 6.46146,39.6498 Z M 52.6761,40.451C 51.623,40.4296 50.6821,41.8796 49.904,42.6823C 50.8645,41.9767 51.7437,40.887 52.8852,40.4777C 52.8139,40.4618 52.745,40.4528 52.6761,40.451 Z M 52.4383,40.8053C 52.4206,40.8053 52.4029,40.8163 52.3871,40.8322C 52.0096,41.1882 52.8602,42.7389 52.0041,44.0751C 50.8985,45.358 48.0947,46.5563 46.4129,47.2386C 47.6038,47.1891 50.7424,45.6171 51.6375,44.7184C 51.1394,46.152 50.4198,47.299 51.4016,47.1729C 50.5882,46.9232 51.7596,45.1915 52.084,44.2987C 53.3829,43.439 54.1147,42.4537 55.3537,41.3442C 54.5865,41.9078 53.2962,43.3165 52.5304,43.6945C 53.2341,42.4767 52.7164,40.809 52.4383,40.8053 Z M 55.958,41.0675C 54.0689,44.5482 55.3501,42.9498 56.7715,41.1473C 55.4581,42.3456 54.2299,44.6371 55.958,41.0675 Z M 33.1266,41.3175C 32.9687,41.3693 32.7949,41.6473 32.8643,41.7377C 33.4278,42.4713 34.1773,43.6781 34.151,44.0096C 33.9663,46.2391 32.5186,45.4274 31.0124,45.2697C 29.9879,45.1617 28.5629,45.6969 28.4781,46.5831C 28.352,47.9052 29.5111,48.9491 30.291,48.7223C 29.3818,48.1283 28.983,47.4192 29.1355,46.5685C 29.3532,45.3512 31.6449,45.5214 32.5753,45.6898C 34.0017,45.9465 34.7181,44.8055 34.7798,43.9032C 34.8206,43.3274 34.0693,42.3474 33.2718,41.3566C 33.2309,41.307 33.1778,41.2999 33.1266,41.3175 Z M 13.1039,42.9321C 12.9392,43.1237 14.8107,44.7574 14.587,46.2941C 15.4113,45.2697 13.2582,42.7531 13.1039,42.9321 Z M 19.0658,42.9445C 19.5921,43.3878 19.4501,43.6036 19.1171,43.9032C 18.2928,44.6439 18.2592,44.9647 19.6166,45.3744C 18.761,44.6617 19.2392,44.5006 19.5903,44.1798C 20.2,43.6215 20.1502,43.0084 19.0658,42.9445 Z M 12.5795,43.0365C 12.4501,42.9359 14.2064,45.2379 13.7472,46.2142C 13.4655,46.8148 11.1295,44.8195 10.5574,45.5848C 10.2879,45.9447 11.2288,47.5363 12.1062,48.2631C 11.1599,47.2477 10.3586,46.0245 10.8069,45.7164C 11.5001,45.2379 13.3307,47.2228 14.0626,46.491C 14.8992,45.6525 13.1357,43.4745 12.5795,43.0365 Z M 53.528,44.9933C 53.1402,44.9647 52.0681,46.347 51.5858,46.9623C 52.1371,46.3667 53.1896,45.2269 53.3176,45.2555C 53.4328,45.2823 53.2463,45.83 53.0957,46.0441C 52.2614,47.2296 50.9674,47.6996 50.232,48.6686C 49.7021,49.3229 49.0837,49.9218 49.0374,50.7317C 49.1386,50.1522 49.8777,49.298 50.3509,48.7753C 51.3449,47.6144 52.2115,47.1783 53.0816,46.241C 53.4396,45.8544 53.734,45.1281 53.5938,45.0197C 53.5743,45.0038 53.5548,44.9951 53.528,44.9933 Z M 46.9514,45.3353C 44.9243,45.3617 40.6533,47.3466 40.8588,48.0399C 40.9649,48.3978 42.1986,48.5717 41.8973,48.8796C 40.5789,50.2162 36.2561,50.4906 35.8432,50.8486C 38.2342,50.6627 41.401,49.934 42.6963,48.6564C 42.9607,48.3978 41.2979,48.0947 41.4894,47.7899C 41.773,47.3362 45.1616,45.6031 47.3185,45.3477C 47.205,45.3318 47.0862,45.3336 46.9514,45.3353 Z M 46.911,45.6239C 46.6751,45.5233 44.2791,48.4418 46.255,47.4088C 45.4329,47.3026 47.4246,45.844 46.911,45.6239 Z M 11.0305,46.1488C 11.4824,47.6251 12.4533,48.8566 13.735,48.3021C 14.4791,47.9794 17.0451,49.5071 17.5292,51.2297C 17.4529,49.7638 15.1155,47.7582 13.7083,48.0662C 12.2764,48.3783 12.3489,48.0184 11.0305,46.1488 Z M 7.99628,47.2386C 7.74628,47.2491 8.91589,48.1071 9.50613,48.8407C 9.60196,48.9595 8.93402,48.4686 8.75845,48.4454C 8.92142,48.6102 9.9317,49.2198 9.82193,49.0107C 9.57874,48.5465 8.06204,47.4618 8.29935,47.4886C 8.76392,47.5399 12.427,49.3492 11.516,49.6681C 12.7654,49.3314 9.13049,47.632 8.19318,47.2916C 8.09558,47.2545 8.03348,47.2368 7.99628,47.2386 Z M 33.7962,47.3966C 32.7314,47.4813 31.7088,48.1937 30.6844,48.5375C 31.6185,48.8212 32.848,47.3839 34.8719,47.5667C 34.509,47.421 34.151,47.3679 33.7962,47.3966 Z M 34.2163,47.8942C 34.1383,47.9069 34.0761,47.9478 34.0194,48.0131C 34.5675,48.5448 35.1273,48.9132 35.2267,49.8119C 35.3011,50.2177 35.1133,50.4711 34.9254,50.7974C 35.1451,50.9108 35.2494,50.8187 35.4762,50.8219C 35.7671,50.4445 35.9018,49.9839 35.8183,49.6151C 35.6627,48.9418 34.7517,47.8162 34.2163,47.8942 Z M 14.9559,48.7753C 17.7097,51.8004 17.8536,52.7469 11.594,49.943C 16.0297,52.9489 19.6166,52.4701 14.9559,48.7753 Z M 11.1226,49.0906C 11.0995,49.0834 11.0818,49.0924 11.0569,49.1029C 10.9063,49.1703 10.8781,49.6132 11.2538,49.7853C 11.3495,49.5443 11.2751,49.1295 11.1226,49.0906 Z M 34.1773,50.8627C 31.7973,50.9725 27.8347,51.8572 26.6665,52.2665C 25.8816,52.5427 28.3665,53.3353 27.9268,53.422C 26.2042,53.7623 25.4474,53.7269 23.5279,53.5282C 24.5241,53.8544 27.4359,54.0013 28.5824,53.4487C 29.1459,53.1774 26.7395,52.6156 27.2304,52.4384C 29.341,51.6725 31.8789,51.4567 35.0811,50.8754C 34.8188,50.8558 34.5158,50.8468 34.1773,50.8627 Z M 48.4618,51.1639C 47.4178,51.3291 43.0882,54.6874 45.9537,52.3054C 42.4145,54.9989 47.9581,51.203 48.6319,51.1766C 48.5942,51.1571 48.5307,51.1534 48.4618,51.1639 Z M 35.0829,51.2421C 34.2962,51.2775 34.2218,52.1122 34.2286,52.7006C 34.2376,53.3422 34.9377,53.8011 35.8963,53.5797C 35.2335,53.3068 34.9164,53.2111 34.8719,52.5427C 34.8315,51.9298 34.9286,51.7118 35.2408,51.2438C 35.1804,51.2384 35.1346,51.2401 35.0829,51.2421 Z M 18.4348,51.6761C 17.9121,51.6815 17.5841,51.703 17.5945,51.7419C 17.6512,51.951 22.1386,51.6976 24.3949,52.5963C 23.3065,51.85 20.0031,51.6603 18.4348,51.6761 Z M 16.9249,52.0182C 16.9054,52.0165 16.8804,52.0219 16.8591,52.0309C 16.4712,52.2152 17.5913,53.5865 18.6317,54.0385C 17.4225,53.2024 17.2171,52.0309 16.9249,52.0182 Z M 17.4902,52.1354C 18.1176,53.5245 18.7873,54.3007 20.4038,54.2106C 21.4813,54.1503 22.8424,54.3239 23.6467,55.1428C 22.9167,54.244 21.8302,53.9677 20.088,53.9872C 18.8885,53.9995 17.9402,52.933 17.4902,52.1354 Z M 39.6112,52.1354C 38.6148,52.1334 36.6762,53.3617 36.0805,53.4095C 36.894,53.7336 38.1775,52.3956 39.9655,52.2152C 39.8697,52.1566 39.7545,52.1354 39.6112,52.1354 Z M 45.5464,52.2274C 44.4493,52.4279 41.6596,53.3739 40.7807,54.2496C 40.6546,54.3751 41.4631,54.3365 41.346,54.434C 40.3112,55.2794 36.8586,55.641 36.1055,56.1527C 35.7725,56.3815 36.8836,56.4028 36.5927,56.5607C 35.8042,56.9874 33.6034,56.8192 32.9156,57.413C 33.4632,57.1154 36.6159,56.8016 36.9598,56.5216C 37.1939,56.3302 36.0896,56.1691 36.4353,56.0607C 37.7465,55.6515 40.6887,55.2916 41.8052,54.3153C 42.0247,54.1219 40.754,54.3063 41.371,53.9733C 42.6559,53.2819 44.4829,52.5573 45.3884,52.3462C 45.6294,52.2894 44.6725,52.9061 44.4298,53.2128C 44.7292,53.0322 45.8335,52.1761 45.5464,52.2274 Z M 22.9503,52.3976C 23.6522,52.8976 21.6051,53.3335 23.2393,53.7233C 22.6259,53.0109 24.6657,52.6439 22.9503,52.3976 Z M 39.5985,52.5554C 39.4587,52.5465 39.2922,52.5853 39.113,52.6738C 39.9673,52.9896 39.3416,54.0227 38.4697,54.0531C 37.5923,54.0829 36.8872,54.014 36.0932,54.4073C 35.3614,54.7706 34.8969,55.3075 35.1487,56.075C 33.676,56.2733 30.8314,56.6776 29.83,56.9008C 29.6812,56.9362 29.9063,57.0021 30.1454,57.0602C 30.0515,56.9965 30.1685,56.9064 30.2765,56.8759C 31.2284,56.61 34.1687,56.3551 35.8432,56.1405C 35.6999,55.788 35.5171,55.3838 35.9884,54.8805C 36.4866,54.3452 37.291,54.2654 38.4166,54.2106C 39.0563,54.1787 39.696,53.858 40.0453,53.2909C 40.24,52.9755 40.0222,52.5836 39.5985,52.5554 Z M 22.0715,54.4463C 22.4522,54.7386 23.0815,55.3392 22.7412,55.3519C 21.9508,55.3838 19.5159,54.6183 19.8648,55.0897C 21.2063,56.899 25.4456,56.4703 27.7036,56.9415C 25.8,56.4167 21.5521,56.7411 20.3507,55.2739C 19.755,54.5421 22.9839,55.944 23.2657,55.4708C 23.4326,55.1904 22.4844,54.6642 22.0715,54.4463 Z "/>
		<radialGradient id="SVGID_Stroke2_" cx="33.4276" cy="29.1017" r="28.4302" gradientUnits="userSpaceOnUse">
			<stop offset="0" stop-color="#1F1F1F" stop-opacity="1"/>
			<stop offset="1" stop-color="#000000" stop-opacity="1"/>
		</radialGradient>
		<path fill="#FFFFFF" fill-opacity="1" stroke-width="0.5" stroke-linejoin="round" stroke="url(#SVGID_Stroke2_)" d="M 42.1595,0.841675C 41.6967,1.00671 41.5071,0.999512 41.293,1.24768C 41.4241,1.41968 41.8211,1.58069 42.0284,1.69421C 43.625,2.5697 43.3237,2.47949 42.6432,3.09973C 43.9103,2.47766 42.964,2.19409 42.0674,1.69421C 41.6546,1.46545 41.6723,1.46729 41.371,1.24768C 41.5783,1.08301 41.8052,0.972778 42.1595,0.841675 Z M 36.8019,2.29846C 36.7611,2.29846 36.7806,2.32166 36.6708,2.33752C 37.2007,2.8125 38.8721,5.0968 39.7032,4.59546C 38.7478,4.65759 37.7007,3.10876 36.8019,2.29846 Z M 46.4909,2.87646C 46.6928,3.14233 46.6483,3.21667 46.5562,3.29651C 47.0385,3.36011 46.6256,2.99353 46.4909,2.87646 Z M 41.0961,4.09729C 41.8619,4.31189 42.4217,4.7052 42.9199,5.30603C 43.292,5.75464 43.5773,6.28088 43.3151,6.69739C 44.0664,6.28455 43.4939,5.74194 42.959,5.14673C 42.4041,4.53149 41.7821,4.22351 41.0961,4.09729 Z M 40.8071,4.20215C 40.5539,4.43762 40.2155,4.81689 40.3076,4.89856C 40.5467,5.1095 40.8161,4.64319 40.8071,4.20215 Z M 41.4241,6.55176C 41.2272,6.54993 41.4187,7.42737 41.7644,8.0885C 42.2621,9.03662 42.998,9.95447 43.6023,10.3197C 43.5827,10.2257 43.6267,10.1373 43.6944,10.0697C 42.3279,8.83972 42.473,8.55115 41.9345,7.77307C 41.3991,6.99866 41.7199,6.69373 41.4631,6.56445L 41.4241,6.55176 Z M 52.0327,7.26086C 52.1706,7.65784 51.8022,7.63477 51.5327,7.65613C 53.073,9.14832 54.0743,10.3319 54.1859,10.9771C 54.0866,10.0453 52.6067,8.62378 51.77,7.74817C 52.2047,7.70056 52.1175,7.33533 52.0327,7.26086 Z M 50.9284,7.53723C 49.8405,8.25671 49.5284,8.53674 50.076,9.03308C 49.6967,8.57935 50.2107,8.07617 50.9284,7.53723 Z M 47.974,9.22986C 49.0497,9.65686 48.2879,11.296 49.1436,11.1349C 48.5484,10.7965 49.385,9.59143 47.974,9.22986 Z M 46.4251,9.30933C 44.4049,9.94397 43.4426,11.2484 42.3687,11.5941C 42.8736,11.4611 43.5047,11.1014 44.0238,10.6886C 44.7274,11.0782 45.3231,11.6844 45.7038,12.434C 46.1347,13.2809 46.8452,14.451 45.9274,15.0339C 47.127,14.451 46.7672,13.5645 46.0848,12.4216C 45.6665,11.7234 44.9933,11.0605 44.3908,10.5165C 45.0591,10.0697 45.6012,9.75623 46.4251,9.30933 Z M 50.4303,9.33606C 51.5913,10.1283 51.6071,10.7484 50.5473,11.4484C 52.1053,10.5538 51.3925,9.99353 50.4303,9.33606 Z M 37.55,9.75623C 38.6698,10.5392 36.7647,11.7465 38.1666,11.8295C 37.3781,11.3582 39.3045,10.1105 37.55,9.75623 Z M 27.1134,9.82153C 26.2909,12.3278 26.8706,13.5948 27.7177,14.5997C 28.4354,15.4536 29.8781,17.5538 28.6764,19.2216C 27.8025,20.432 25.9846,18.7872 24.7102,19.6293C 23.5156,20.4178 23.7547,22.1193 24.6853,23.2516C 26.2468,25.1549 28.0421,21.6034 29.1618,22.6351C 31.1698,24.4852 31.3899,26.6647 30.6186,27.8612C 30.3033,28.3519 30.0642,30.1368 30.2379,31.2089C 30.4131,32.2809 31.0088,32.6371 32.0363,33.2968C 33.2613,34.078 34.5956,32.2224 35.8841,31.707C 36.9915,31.2638 38.741,34.975 36.3573,35.8434C 38.9746,36.1781 38.2057,31.0192 35.8963,31.4711C 34.234,31.7955 33.2273,33.7273 31.7478,33.0341C 29.9666,32.1979 30.2466,29.6368 30.6331,28.1111C 34.4554,27.7159 37.5074,28.1429 39.3362,25.761C 39.9387,24.9779 36.7878,24.0931 37.4861,23.5424C 38.2111,22.9681 40.274,22.1722 40.2953,22.1637C 38.927,22.4064 38.3349,22.4503 37.144,23.4889C 36.306,24.2194 39.3789,25.0201 38.785,25.7201C 37.0819,27.7318 33.8529,27.9481 31.0514,27.7689C 31.526,25.8549 31.3826,24.462 29.6458,22.7272C 28.2476,21.329 26.3067,24.4213 25.2878,23.528C 24.0102,22.4095 24.0011,20.6959 24.5523,19.9305C 25.4597,18.674 27.7018,20.6503 29.1214,19.3136C 30.2997,18.2043 28.8183,16.0529 28.1768,14.653C 28.969,14.5536 29.9398,14.4491 30.8935,14.3126C 29.7185,14.4279 28.5489,14.4083 27.847,14.4315C 27.0195,12.8309 26.647,11.7321 27.1134,9.82153 Z M 35.0565,10.0062C 34.1474,10.2916 34.1755,10.1708 33.1919,10.7008C 31.8717,11.4113 34.9731,11.9376 34.4786,12.8026C 34.1261,13.4156 33.4242,13.7863 32.5876,14.0236C 33.5272,13.8253 34.3193,13.5699 34.7018,13.2491C 36.0238,12.1344 32.049,11.2448 33.4278,10.6617C 33.9718,10.4313 34.259,10.2843 35.0565,10.0062 Z M 32.5876,14.0219C 32.0686,14.1315 31.5064,14.2273 30.9344,14.3108C 31.5033,14.254 32.0686,14.1688 32.5876,14.0219 Z M 53.2658,10.963C 53.0957,10.963 53.6524,12.1593 53.9627,12.5527C 54.1909,12.8448 54.836,13.6906 54.8805,13.5771C 54.9073,13.5077 54.2975,12.8094 54.0013,12.4216C 53.6682,11.9838 53.3548,10.9647 53.2658,10.963 Z M 55.3147,13.0509C 55.3465,13.8375 55.2916,13.7914 55.1568,14.0095C 55.5257,14.1884 55.4708,13.446 55.3147,13.0509 Z M 55.9049,13.3273C 56.2452,13.7845 56.5519,14.2968 56.7982,14.7572C 56.5696,14.2504 56.2965,13.8126 55.9049,13.3273 Z M 56.7982,14.7717C 56.9716,15.1578 57.1313,15.5834 57.31,16.097C 57.4007,16.058 57.1739,15.475 56.7982,14.7717 Z M 43.4321,15.0602C 42.9249,15.181 43.0669,17.5165 44.8372,18.3817C 42.7176,16.62 44.0627,15.2377 43.5505,15.0729C 43.5115,15.0602 43.4657,15.0516 43.4321,15.0602 Z M 57.56,16.6359C 57.7514,17.2457 57.9483,17.8391 58.0971,18.3673C 58.2496,18.9098 58.5631,20.2727 58.9247,20.035C 58.5545,20.1448 58.2813,18.9166 58.1235,18.3019C 57.996,17.8037 57.8136,17.3092 57.5849,16.6219 Z M 57.2569,16.806C 56.9716,17.0487 56.6281,17.4867 56.5746,17.5538C 56.0465,18.2294 55.8568,18.7787 56.1281,19.3014C 55.9476,18.9116 56.2842,18.1531 56.5873,17.7384C 56.8954,17.3165 57.0392,17.1268 57.2569,16.806 Z M 47.8697,17.1481C 47.7989,17.1342 47.7563,17.1586 47.7526,17.2384C 47.7367,17.5292 50.0088,19.4307 49.8387,21.598C 50.1095,21.3661 49.9571,21.4386 50.1272,21.2948C 50.2619,19.4252 48.366,17.2384 47.8697,17.1481 Z M 46.8452,17.4757C 46.5581,17.4847 45.5213,18.5836 45.6897,18.6581C 45.8562,18.7289 47.0988,17.6512 46.8983,17.4884C 46.8861,17.4794 46.8647,17.4744 46.8452,17.4757 Z M 56.1672,19.3794C 56.2293,19.4801 56.291,19.5813 56.3904,19.6805C 57.0818,20.3734 57.0088,20.4301 56.8758,20.9161C 56.7733,21.2968 56.5002,21.7009 56.1141,22.0979C 57.3032,20.9546 57.2819,20.274 56.2325,19.4447C 56.208,19.4252 56.1849,19.4025 56.1672,19.3794 Z M 54.3683,19.8136C 54.3415,19.8082 54.3134,19.8173 54.2903,19.8258C 54.1505,19.8771 54.6465,19.9623 54.5652,20.9283C 54.5262,21.3978 54.3701,22.0533 54.5262,22.2948C 54.6342,22.2485 54.5403,22.2186 54.6573,22.2413C 54.4586,21.7168 54.6855,21.318 54.7226,20.9015C 54.7866,20.2032 54.5561,19.8435 54.3683,19.8136 Z M 53.1737,19.9838C 52.8852,20.0245 51.6748,20.6697 49.787,22.057C 49.7039,25.1335 50.5333,26.7891 51.1657,26.5872C 51.3485,26.5287 50.2497,25.9896 50.1028,22.2679C 52.6157,20.2709 53.264,20.1429 53.2395,19.996C 53.2359,19.9783 53.2146,19.9764 53.1737,19.9838 Z M 59.0948,20.2191C 59.0399,20.2405 58.9406,20.4106 59.0028,20.5082C 59.162,20.7618 59.0771,20.2777 59.0948,20.2191 Z M 42.5261,21.6107C 41.9998,21.6461 41.3973,21.8197 40.9382,21.9401C 41.8442,21.8302 43.0669,21.6851 43.0919,22.1619C 43.1236,22.8334 42.17,23.8632 42.5919,24.2371C 43.6853,25.2079 47.5081,24.5275 49.1295,23.1469C 49.1241,23.0656 49.2589,22.7858 49.1826,22.7662C 48.327,23.6591 44.5146,25.2469 42.973,24.3292C 42.3987,23.9871 43.9035,22.812 43.6694,22.1368C 43.5133,21.6851 43.0528,21.5753 42.5261,21.6107 Z M 59.607,22.6083C 59.598,22.6278 59.5998,22.6669 59.5948,22.7145C 59.5998,22.6686 59.598,22.6351 59.607,22.6083 Z M 59.6338,23.9091C 59.6565,24.2242 59.6778,24.5116 59.6869,24.6444C 59.6937,24.7596 59.7064,24.8944 59.7259,25.0504C 59.7082,24.8981 59.7046,24.756 59.6992,24.6444C 59.6919,24.4707 59.6583,24.1981 59.6338,23.9091 Z M 54.0529,24.9066C 53.9963,25.0786 54.7086,26.0409 54.7494,26.9945C 54.8324,28.9246 54.0439,28.8837 54.1982,29.0289C 54.3542,29.1744 55.1251,28.4391 55.0774,27.0067C 55.0403,25.8854 54.1945,24.8927 54.067,24.8927 Z M 53.3316,25.2079C 52.8158,25.6761 52.3712,26.3019 51.9402,26.8494C 52.7005,26.5109 53.0359,25.8622 53.3316,25.2079 Z M 59.8425,25.7999C 59.8906,26.0446 59.9437,26.2645 60.0004,26.4171C 59.9474,26.2538 59.8906,26.0377 59.8425,25.7999 Z M 59.6601,27.4001C 59.3112,28.2367 58.9016,28.8217 58.5826,29.738C 58.3612,30.3741 58.9193,30.7284 58.9247,31.0509C 58.9265,31.1998 58.8857,31.3737 58.8059,31.5614C 58.8557,31.4589 58.9088,31.3595 58.9637,31.2479C 59.0789,31.0088 58.7722,30.6844 58.6357,30.2235C 58.4814,29.7062 59.3711,28.3307 59.6601,27.4001 Z M 53.3316,28.9496C 53.0426,28.9581 52.7627,29.0009 52.7663,29.0557C 52.7786,29.1777 53.9305,29.2098 53.9218,29.0557C 53.9182,28.9723 53.6206,28.9423 53.3316,28.9496 Z M 52.5694,29.0946C 51.8961,29.0557 51.7523,30.7728 51.756,31.5492C 51.7596,32.462 51.9048,33.8529 52.3213,34.0444C 52.3639,33.9559 52.564,33.8335 52.6084,33.7413C 52.015,33.2469 52.1529,32.3326 52.084,31.6149C 52.0023,30.7643 52.6969,29.1014 52.5694,29.0946 Z M 57.1789,31.09C 56.9593,31.1417 57.1472,31.6486 56.9416,32.2968C 56.7715,32.834 56.4544,33.5676 56.7325,33.7023C 56.7093,33.2365 57.002,32.6693 57.1385,32.1144C 57.2765,31.5582 57.3917,31.0406 57.1789,31.09 Z M 59.8039,31.2747C 59.3625,31.6272 59.1071,33.0327 59.3711,33.9133C 59.1888,32.9492 59.3943,31.682 59.8039,31.2747 Z M 56.1549,31.5883C 54.9867,32.3785 53.6401,33.3729 52.5962,34.3597C 53.9981,36.5079 53.3371,38.629 51.6108,39.4656C 54.092,38.629 54.0829,35.2604 52.9895,34.2023C 53.7676,33.4225 55.8605,31.9515 56.1549,31.5883 Z M 58.4392,32.1925C 58.3186,32.3663 58.177,32.5558 57.966,32.809C 58.1448,32.5912 58.3081,32.3822 58.4392,32.1925 Z M 10.2806,34.4645C 10.9063,35.5402 11.5337,35.7579 12.2246,35.5934C 13.0118,35.4037 13.8003,34.6346 14.3248,34.8846C 15.2803,35.3347 15.92,37.2648 15.2058,38.3368C 14.465,39.4479 12.9959,37.7057 11.8704,38.0355C 10.747,38.3649 11.555,42.0585 12.5277,42.7479C 10.1409,43.2828 7.97314,42.2552 6.8548,41.2911C 7.29803,42.6469 10.7982,43.7579 12.5935,42.9321C 13.6656,43.944 14.8761,45.9166 14.0644,46.5422C 13.2827,47.1429 11.3318,45.4415 10.8477,45.8988C 10.5623,46.1683 11.8844,48.3763 12.8435,48.6564C 13.4973,48.8478 14.1352,48.2045 15.048,48.9845C 14.3302,48.0875 13.9101,48.4777 13.0399,48.4862C 11.8508,48.4967 10.6921,46.2001 10.9525,45.952C 11.3953,45.53 13.3539,47.6107 14.3266,46.6221C 15.1242,45.8104 13.6161,43.9615 12.9215,42.8663C 15.5674,42.7743 19.2891,42.3065 19.0781,43.8109C 19.3793,43.5275 19.3916,43.2987 18.9343,42.8792C 20.6764,42.9603 19.9818,44.0378 19.2891,44.4952C 18.8177,44.8036 19.6842,45.4116 20.0635,45.5446C 21.5149,46.0582 24.565,45.9642 26.1157,44.8744C 26.5531,44.5677 23.943,43.3895 24.3042,43.1676C 26.3407,41.9237 30.1667,41.7412 32.5363,41.2645C 30.3972,41.4613 26.2768,41.8475 24.095,43.0243C 23.5991,43.292 26.1706,44.3251 25.7097,44.7574C 25.045,45.3794 23.2253,45.7001 21.7186,45.6488C 20.2105,45.5995 18.9538,45.0872 19.5903,44.639C 22.9027,42.2961 16.5048,42.5194 12.7904,42.709C 11.5124,41.9999 11.0269,38.4662 11.8721,38.2057C 12.9125,37.8849 14.5643,39.6112 15.4821,38.3636C 16.2884,37.2679 15.626,35.0939 14.1565,34.7001C 13.5009,34.5267 12.785,35.2584 12.1471,35.45C 11.2891,35.7067 10.7733,35.0562 10.2806,34.4645 Z M 52.2029,34.6879C 50.8645,36.3219 48.5765,37.0592 47.3842,37.3002C 50.0619,36.944 51.4121,35.6573 52.295,34.911C 52.3231,34.6024 52.2577,34.7391 52.2029,34.6879 Z M 46.3081,34.7921C 46.9691,35.1042 45.3335,36.8854 45.5994,36.9191C 45.844,36.9528 47.4423,35.1024 46.3081,34.7921 Z M 44.7188,35.0812C 43.1889,35.3932 41.6223,35.8379 40.5431,36.7347C 39.407,37.683 42.6504,38.0319 41.7394,38.8632C 39.5472,40.8602 36.3024,40.9686 33.3766,41.3035C 34.3493,42.5421 35.1537,43.3541 34.7018,44.7184C 33.984,46.8824 31.0138,44.9012 29.5556,46.1222C 28.6922,46.8452 29.3873,48.2684 30.4875,48.5643C 29.8355,48.0521 28.8429,46.9691 29.6068,46.3063C 30.9643,45.1299 34.298,46.8612 35.1487,44.9153C 35.5298,44.0433 34.328,42.1682 33.8869,41.4877C 36.8305,41.2753 40.0875,40.598 42.2248,38.7179C 42.7834,38.2269 39.8503,37.5001 40.6887,36.8531C 42.007,35.8379 44.1195,35.239 44.7188,35.0812 Z M 33.2046,35.8947C 33.0363,35.8768 32.8607,36.0433 32.6924,36.3147C 32.8448,36.1447 33.0113,36.0012 33.2046,35.8947 Z M 32.6674,36.3556C 31.6308,37.5624 31.6235,40.0844 32.9955,41.0553C 31.7088,39.7632 32.079,37.3568 32.6674,36.3556 Z M 50.3509,39.4796C 49.3705,39.8326 48.7893,41.9913 49.6949,42.5652C 49.8437,42.0303 49.1971,40.9686 50.3509,39.4796 Z M 52.8993,40.6478C 52.8761,40.6498 52.853,40.6637 52.8316,40.6869C 52.564,41.0059 53.4024,42.0919 52.6352,43.6019C 53.6842,43.0121 53.2254,40.6266 52.8993,40.6478 Z M 56.2325,40.9491C 56.1635,40.912 55.547,42.2731 55.1817,42.8663C 55.625,42.2836 56.2824,40.9772 56.2325,40.9491 Z M 52.0981,41.0022C 51.4089,41.4791 50.737,42.2604 50.0229,42.7621C 51.1181,42.2394 51.5699,41.5109 52.0981,41.0022 Z M 55.4726,41.4095C 54.3933,42.317 53.3139,43.5524 52.123,44.3232C 51.834,45.0941 50.8095,46.7087 51.3748,47.0277C 51.1626,46.6166 51.7718,45.1493 52.2274,44.3763C 53.2481,43.4993 54.7494,42.1986 55.4726,41.4095 Z M 51.5205,44.8885C 50.076,46.0673 48.9118,46.5831 46.6238,47.4496C 48.2929,46.8879 49.6704,46.4746 51.4547,45.0464C 51.4833,44.9647 51.4706,44.9916 51.5205,44.8885 Z M 53.7127,44.9153C 53.6451,44.9049 54.0689,45.5355 52.2419,47.1075C 53.5816,46.2142 54.161,44.9879 53.7127,44.9153 Z M 47.2654,45.4537C 47.2245,45.4611 47.18,45.4701 47.1216,45.4928C 47.6959,45.4362 46.397,46.7015 46.1629,47.2386C 46.7336,46.7567 47.896,45.33 47.2654,45.4537 Z M 53.2005,45.4537C 52.9469,45.5551 51.6425,46.9479 51.6516,46.9764C 51.6638,47.0172 53.3244,45.5319 53.2268,45.4537L 53.2005,45.4537 Z M 46.5971,45.6757C 45.3426,46.0265 42.5638,46.7885 41.6986,47.7899C 41.4771,48.0485 43.1499,48.3412 42.8292,48.6564C 41.1034,50.3436 37.1353,50.8999 35.5152,50.9408C 35.0194,51.8536 34.5443,53.1879 35.8573,53.422C 34.9377,52.9238 35.4762,51.8677 35.6999,51.1639C 36.8232,50.9408 41.562,50.4816 43.1822,48.5785C 43.5614,48.1337 41.6845,48.1869 41.8833,47.8698C 42.3741,47.0844 44.981,46.2338 46.5971,45.6757 Z M 34.6097,47.724C 36.5256,49.4169 36.0044,50.2339 35.7262,50.744C 36.1323,50.5419 36.1359,50.5438 36.4743,50.3505C 36.6958,49.2412 35.5329,48.0892 34.6097,47.724 Z M 33.8479,47.7777C 32.7596,47.8551 32.0313,48.7095 30.5392,48.8923C 32.2473,48.9471 32.8871,48.038 34.0584,47.7777C 33.9823,47.7758 33.9205,47.7721 33.8479,47.7777 Z M 51.1126,48.1178C 50.9284,48.121 49.7747,49.4186 49.1826,50.4675C 50.0052,49.2023 51.1675,48.2435 51.1394,48.1442L 51.1126,48.1178 Z M 34.5566,51.2174C 32.1357,51.4352 29.0929,51.8961 27.3488,52.4652C 26.975,52.5872 29.1672,53.264 28.8056,53.422C 27.6646,53.9252 25.623,54.0635 24.0546,53.764C 25.4297,54.0511 28.1342,54.1874 29.1087,53.5018C 29.4245,53.2787 27.1415,52.5853 27.5335,52.4774C 29.1019,52.045 32.2936,51.5592 34.5566,51.2174 Z M 45.9787,52.0963C 45.9451,52.0573 44.6299,53.1066 44.6671,53.1862C 44.7025,53.264 46.0617,52.1884 45.9787,52.0963 Z M 39.8997,52.4633C 39.8167,52.4652 39.7264,52.4652 39.6252,52.4774C 40.3697,52.7184 40.4654,53.2787 39.2832,54.0531C 38.8045,54.3666 37.0714,54.1627 36.2121,54.735C 35.6006,55.141 35.6695,56.0411 35.9494,55.9296C 36.1409,55.8533 35.8732,55.2667 36.3678,54.8666C 37.3849,54.0441 38.677,54.5898 39.7173,53.9872C 40.4278,53.5743 41.1564,52.4506 39.8997,52.4633 Z M 23.6345,52.4774C 24.301,52.7469 22.9662,53.3068 23.3968,53.5797C 23.4113,53.3707 24.9229,52.917 23.6345,52.4774 Z M 39.1007,52.4774C 38.9764,52.4561 38.349,52.7167 37.722,53.0284C 37.3463,53.2147 36.8359,53.4646 36.5396,53.4873C 36.2103,53.5123 36.0683,53.5159 36.0542,53.5548C 36.2616,53.6896 37.4012,53.328 38.1276,52.9769C 38.824,52.6403 39.113,52.5499 39.1253,52.5042C 39.1307,52.4879 39.1167,52.4811 39.1007,52.4774 Z M 44.9293,52.5427C 43.6785,52.8726 42.2784,53.5548 41.2662,54.0795C 41.0022,54.2159 41.9681,54.0865 41.8442,54.2885C 41.3424,55.0985 36.3854,55.9722 36.4085,56.1405C 36.4208,56.2289 36.9915,56.2856 37.0378,56.4293C 37.1104,56.649 36.3591,56.7643 35.9476,56.8495C 36.5202,56.8849 37.5287,56.4471 37.222,56.3763C 36.903,56.3019 36.7506,56.16 36.7098,56.0874C 36.6213,55.9332 41.1052,55.2242 42.1718,54.2622C 42.3083,54.1398 41.4862,54.1024 41.5802,54.0122C 41.9272,53.6896 44.7274,52.6403 44.9293,52.5427 Z M 23.4113,53.6188C 23.5016,53.647 23.6041,53.661 23.6998,53.6842C 23.5973,53.6561 23.4803,53.6239 23.4113,53.5922 Z M 22.6101,54.604C 23.0284,54.8574 23.6413,55.4672 23.3047,55.5751C 22.5002,55.8339 21.063,55.1288 20.4301,55.1161C 20.1025,55.1093 20.9423,55.7135 21.3357,55.8783C 21.1124,55.7667 20.3911,55.21 20.5739,55.2208C 21.2386,55.2599 22.7802,55.9259 23.5814,55.6674C 24.0759,55.5079 23.257,54.9178 22.6101,54.604 Z M 32.7845,56.5465C 31.1825,56.7307 29.7434,56.9167 30.2502,57.0338C 30.1898,56.9095 31.4289,56.7184 32.7845,56.5465 Z M 23.8309,56.6119C 25.2878,56.782 26.9006,56.9698 26.9292,56.9415C 26.8988,56.8954 25.265,56.7574 23.8309,56.6119 Z M 27.6909,57.046C 27.5616,57.0602 27.4604,57.1722 27.4799,57.1771C 27.5544,57.1948 27.8896,57.11 27.8221,57.0729C 27.7744,57.046 27.7336,57.0411 27.6909,57.046 Z M 31.4057,57.0729C 31.7174,57.2338 31.207,57.3173 30.3954,57.3618C 31.1893,57.3296 31.9425,57.2643 31.4057,57.0729 Z "/>
	</g>
</svg>
