<?xml version="1.0" encoding="utf-8"?>
<!DOCTYPE svg PUBLIC "-//W3C//DTD SVG 1.1//EN" "http://www.w3.org/Graphics/SVG/1.1/DTD/svg11.dtd">
<svg xmlns="http://www.w3.org/2000/svg" xmlns:xlink="http://www.w3.org/1999/xlink" version="1.1" baseProfile="full" width="258" height="258" viewBox="0 0 258.00 258.00" enable-background="new 0 0 258.00 258.00" xml:space="preserve">
	<g>
		<path fill="#FFFFFF" fill-opacity="1" stroke-width="0.2" stroke-linejoin="round" d="M 101.512,102.044C 100.45,101.99 98.6418,101.954 98.418,100.028C 98.3032,99.0635 102.273,95.4955 101.278,94.0795C 101.027,93.7248 100.303,93.3395 98.606,92.8555C 96.5752,92.4075 92.9392,92.7049 86.6525,94.9648C 86.3712,95.0688 86.7366,94.9343 86.5125,95.0115C 86.2672,95.1009 86.3926,95.0475 86.2312,95.1049C 86.4231,95.0435 85.9497,95.2248 85.106,95.5329C 85.0378,95.5635 84.9912,95.5903 83.9806,95.9075C 82.6006,90.9435 86.3191,81.7822 89.4659,81.4702C 90.7472,81.3449 92.1792,83.1262 94.0125,82.1262C 97.3191,80.3235 97.6578,77.5635 97.1992,74.1569C 96.8512,71.5688 94.174,74.0169 92.3712,74.7195C 90.418,75.4863 90.3767,75.9435 89.8406,75.4235C 88.2101,73.8449 89.1163,70.2621 95.5125,63.1942C 97.7565,60.7101 98.7672,57.1782 98.8872,55.9755C 99.0232,54.5901 94.5592,58.4702 94.106,57.5222C 93.7939,56.8608 97.6846,53.0742 99.6846,52.0383C 100.611,51.5583 100.616,52.5795 101.278,52.5062C 102.136,52.4075 107.538,47.4809 107.185,46.6942C 106.95,46.1782 103.054,48.4289 102.871,47.8661C 102.773,47.5635 106.903,45.4755 106.903,45.4755C 106.903,45.4755 106.877,45.3715 106.903,45.2875C 105.278,45.8715 83.9138,52.6942 67.1113,77.8608C 40.2258,118.132 51.3406,172.46 91.9033,199.152C 132.466,225.845 187.199,214.814 214.085,174.547C 227.527,154.413 231.491,130.72 227.023,108.746C 222.549,86.7715 208.309,67.0435 203.027,64.5009C 204.081,65.5383 204.778,66.1889 204.475,66.5635C 204.303,66.7875 203.012,67.0329 201.803,65.7195C 200.601,64.4129 194.939,60.0222 194.262,59.0222C 193.581,58.0169 193.71,57.6782 194.075,57.6155C 194.439,57.5529 195.043,57.7621 195.294,57.8969C 195.538,58.0329 189.767,53.4129 189.387,53.1622C 189.007,52.9129 187.95,52.4809 187.747,52.5529C 187.393,52.6782 188.669,53.5583 188.45,53.7715C 188.251,53.9702 187.658,53.8555 187.185,53.4435C 186.944,53.2355 180.636,48.6475 176.778,47.1622C 174.497,47.5062 173.038,47.7249 172.794,48.1942C 172.45,48.8661 177.939,51.0742 178.231,51.6155C 178.538,52.1835 177.366,53.0115 176.262,53.1622C 172.814,53.6315 171.475,51.9543 171.059,51.0062C 169.611,47.6782 163.377,48.8969 157.893,52.4595C 155.523,53.9955 146.262,53.9809 146.174,52.7875C 146.007,50.4955 146.857,48.9863 141.251,49.9289C 137.314,50.5901 136.256,51.9902 136.611,52.2715C 137.267,52.7982 139.961,53.7463 140.174,54.6155C 140.319,55.2049 136.799,58.5169 127.101,57.8503C 126.136,63.0009 126.174,64.1423 127.147,65.7248C 128.116,67.3035 129.674,67.9182 130.57,67.6942C 132.627,67.1728 134.663,64.7195 136.19,64.6942C 138.866,64.6369 140.679,67.2101 140.595,70.6942C 140.595,70.8141 140.559,70.9075 140.549,71.0222C 140.543,71.0688 140.554,71.1155 140.549,71.1622C 140.122,75.0062 135.699,73.5742 132.72,72.8503C 128.934,71.9235 128.908,84.6155 132.486,87.0475C 125.486,86.3035 116.627,89.6369 111.961,91.6889C 108.111,93.3808 115.601,96.9435 114.303,98.1569C 112.783,99.5795 109.611,100.934 107.179,101.533C 105.809,101.861 102.532,102.096 101.512,102.044 Z "/>
		<radialGradient id="SVGID_Fill1_" cx="92.0221" cy="99.5085" r="317.775" gradientUnits="userSpaceOnUse" gradientTransform="rotate(-90.000000 92.022095 99.508484)">
			<stop offset="0" stop-color="#FFFFFF" stop-opacity="1"/>
			<stop offset="0.235199" stop-color="#FFFFFF" stop-opacity="1"/>
			<stop offset="0.3321" stop-color="#E9E9E9" stop-opacity="1"/>
			<stop offset="0.677299" stop-color="#C8C8C8" stop-opacity="1"/>
			<stop offset="0.701698" stop-color="#C8C8C8" stop-opacity="1"/>
			<stop offset="0.887199" stop-color="#909090" stop-opacity="1"/>
			<stop offset="1" stop-color="#626262" stop-opacity="1"/>
		</radialGradient>
		<path fill="url(#SVGID_Fill1_)" stroke-width="0.2" stroke-linejoin="round" d="M 101.512,102.044C 100.45,101.99 98.6472,101.954 98.418,100.028C 98.3032,99.0635 102.273,95.4955 101.278,94.0795C 101.027,93.7248 100.309,93.3395 98.606,92.8555C 96.5752,92.4075 92.9392,92.7049 86.6525,94.9648C 86.3712,95.0688 86.7418,94.9343 86.5125,95.0115C 86.2726,95.1009 86.3979,95.0475 86.2312,95.1049C 86.4285,95.0435 85.9497,95.2248 85.106,95.5329C 85.0378,95.5635 84.9912,95.5903 83.9806,95.9075C 82.606,90.9435 86.3245,81.7822 89.4659,81.4702C 90.7472,81.3449 92.1792,83.1262 94.0125,82.1262C 97.3191,80.3235 97.6578,77.5635 97.1992,74.1569C 96.8512,71.5688 94.174,74.0169 92.3712,74.7195C 90.418,75.4863 90.3767,75.9435 89.8406,75.4235C 88.2101,73.8449 89.1163,70.2621 95.5125,63.1942C 97.7565,60.7101 98.7672,57.1782 98.8872,55.9755C 99.0232,54.5901 94.5592,58.4702 94.106,57.5222C 93.7939,56.8608 97.6899,53.0742 99.6846,52.0383C 100.611,51.5583 100.616,52.5795 101.278,52.5062C 102.142,52.4075 107.538,47.4809 107.185,46.6942C 106.95,46.1782 103.054,48.4289 102.871,47.8661C 102.773,47.5635 106.903,45.4755 106.903,45.4755C 106.903,45.4755 106.882,45.3715 106.903,45.2875C 105.278,45.8715 83.9138,52.6942 67.1113,77.8608C 40.2258,118.132 51.3406,172.46 91.9033,199.152C 132.466,225.845 187.199,214.82 214.085,174.547C 227.532,154.413 231.491,130.72 227.023,108.746C 222.549,86.7715 208.309,67.0435 203.027,64.5062C 204.081,65.5383 204.778,66.1889 204.475,66.5688C 204.303,66.7875 203.012,67.0329 201.809,65.7248C 200.601,64.4129 194.944,60.0275 194.262,59.0222C 193.581,58.0169 193.71,57.6782 194.075,57.6155C 194.439,57.5529 195.043,57.7621 195.294,57.8969C 195.543,58.0329 189.767,53.4182 189.387,53.1622C 189.007,52.9129 187.95,52.4809 187.747,52.5529C 187.393,52.6782 188.669,53.5583 188.45,53.7715C 188.251,53.9702 187.658,53.8608 187.185,53.4435C 186.95,53.2355 180.636,48.6475 176.778,47.1622C 174.497,47.5062 173.038,47.7249 172.799,48.1942C 172.45,48.8661 177.939,51.0742 178.237,51.6155C 178.543,52.1835 177.366,53.0115 176.267,53.1622C 172.814,53.6315 171.475,51.9543 171.065,51.0062C 169.611,47.6782 163.382,48.8969 157.893,52.4595C 155.523,53.9955 146.262,53.9809 146.179,52.7875C 146.007,50.4955 146.86,48.9863 141.256,49.9289C 137.314,50.5901 136.262,51.9902 136.616,52.2715C 137.273,52.8035 139.966,53.7463 140.179,54.6155C 140.324,55.2101 136.803,58.5169 127.101,57.8503C 126.136,63.0009 126.179,64.1423 127.147,65.7248C 128.116,67.3089 129.679,67.9182 130.57,67.6942C 132.633,67.1728 134.663,64.7249 136.194,64.6942C 138.866,64.6369 140.685,67.2101 140.601,70.6942C 140.595,70.8141 140.559,70.9075 140.554,71.0222C 140.549,71.0688 140.559,71.1155 140.554,71.1622C 140.127,75.0115 135.699,73.5795 132.726,72.8503C 128.939,71.9235 128.914,84.6155 132.491,87.0475C 125.491,86.3089 116.633,89.6369 111.966,91.6889C 108.111,93.3808 115.606,96.9435 114.303,98.1569C 112.783,99.5795 109.616,100.938 107.185,101.533C 105.809,101.866 102.532,102.096 101.512,102.044 Z "/>
		<path fill="#5A5A5A" fill-opacity="1" stroke-width="0.2" stroke-linejoin="round" stroke="#5A5A5A" stroke-opacity="1" d="M 99.8767,79.7822C 106.19,80.0955 110.038,78.4235 113.934,76.8141C 106.975,71.7715 125.423,69.3141 120.22,75.5903C 125.012,76.0009 128.803,73.1209 133.324,71.9129C 135.136,71.4289 138.778,71.4543 140.611,70.6995C 140.512,75.1581 135.809,73.6102 132.715,72.8555C 128.928,71.9289 128.887,84.6155 132.466,87.0529C 125.47,86.3089 116.652,89.6529 111.986,91.7101C 108.136,93.4022 115.59,96.9343 114.294,98.1475C 112.767,99.5688 109.595,100.949 107.163,101.548C 105.794,101.881 102.523,102.158 101.507,102.044C 100.491,101.929 100.554,101.205 102.393,99.0009C 103.715,97.4075 104.393,96.1889 102.283,94.6009C 100.606,93.3342 99.7205,93.1209 98.6218,92.8808C 96.5898,92.4343 92.9392,92.7195 86.6578,94.9809C 87.7472,88.2142 89.418,86.2142 90.6472,84.7569C 91.7993,83.3808 93.4912,84.1995 95.7565,84.5009C 98.1365,84.8141 99.5125,82.0062 99.8767,79.7822 Z "/>
		<path fill="#000000" fill-opacity="1" stroke-width="0.2" stroke-linejoin="round" stroke="#000000" stroke-opacity="1" d="M 106.991,45.2875C 106.991,45.2875 102.756,47.5475 102.857,47.8503C 103.038,48.4129 106.923,46.2049 107.158,46.7195C 107.512,47.5062 102.116,52.4182 101.256,52.5169C 100.595,52.5955 100.616,51.5383 99.6899,52.0169C 97.6938,53.0529 93.8086,56.8555 94.1218,57.5169C 94.5752,58.4702 99.0271,54.6009 98.8926,55.9863C 98.7726,57.1889 97.7672,60.7355 95.5232,63.2142C 89.1272,70.2875 88.2258,73.8342 89.8566,75.4182C 90.3926,75.9382 92.3566,74.7515 92.3566,74.7515C 94.4497,68.6581 99.8032,66.5582 100.857,60.9182C 101.095,59.6262 100.877,59.6102 99.5898,57.4182C 99.5898,57.4182 100.923,56.2195 101.756,55.7195C 102.627,55.1942 102.585,56.2621 103.455,55.9863C 105.303,55.3915 106.799,53.6728 108.09,52.0169C 109.382,50.3608 108.481,50.0475 108.523,49.4863C 108.57,48.9075 108.955,49.5583 108.523,48.5475C 108.095,47.5435 106.991,45.2875 106.991,45.2875 Z M 172.789,48.3503C 172.819,49.2142 172.705,50.1209 172.857,50.9543C 172.981,51.6315 174.918,52.6155 176.294,53.1529C 177.403,53.0688 178.565,52.1889 178.256,51.6209C 177.966,51.0795 175.351,50.4075 172.789,48.3503 Z M 136.622,52.2822C 136.532,52.8395 136.674,55.3035 136.991,56.7875C 138.267,56.1835 140.335,55.2101 140.19,54.6209C 139.975,53.7515 137.122,52.9648 136.622,52.2822 Z M 187.726,52.6835C 187.408,53.1049 187.299,53.2929 187.19,53.4543C 187.72,53.8661 188.256,53.9809 188.461,53.7875C 188.674,53.5688 187.914,53.0115 187.726,52.6835 Z M 194.09,57.5849C 193.726,57.6475 193.575,58.0169 194.256,59.0169C 195.199,57.9595 194.414,58.8715 195.289,57.8862C 195.038,57.7515 194.455,57.5222 194.09,57.5849 Z M 203.023,64.4863C 201.778,65.7195 202.835,64.6942 201.789,65.7195C 202.997,67.0275 204.283,66.7715 204.455,66.5529C 204.757,66.1728 204.081,65.5169 203.023,64.4863 Z M 136.226,64.6835C 134.694,64.7142 132.616,67.1995 130.554,67.7195C 128.773,68.1675 127.882,66.3503 126.69,65.1835C 127.136,67.8249 127.794,70.3862 130.19,70.9489C 132.45,71.4863 134.961,68.0795 137.19,68.0849C 138.491,68.0903 139.898,70.4289 140.554,71.1529C 140.877,67.4343 139.018,64.6262 136.226,64.6835 Z M 96.7258,73.1155C 96.5232,76.6315 97.3298,80.3141 94.0232,82.1209C 92.1899,83.1209 90.7366,81.3249 89.4552,81.4543C 86.314,81.7621 82.6111,90.9235 83.9912,95.8862C 86.0806,95.2355 84.1006,95.8608 86.4912,95.0169C 87.2993,90.6529 88.382,86.4702 91.0592,84.2195C 92.4445,83.0475 96.0486,85.2409 97.6899,83.8808C 99.7618,82.1728 101.762,76.5529 96.7258,73.1155 Z M 101.289,94.0849C 102.314,95.5009 98.6992,98.6942 98.4231,100.022C 98.1418,101.345 99.5325,101.924 100.923,101.918C 99.8086,101.189 102.742,98.9915 103.455,96.9863C 103.756,96.1315 103.231,95.3769 101.289,94.0849 Z "/>
		<path fill="#000000" fill-opacity="1" stroke-width="0.2" stroke-linejoin="round" stroke="#000000" stroke-opacity="1" d="M 68.2366,143.992C 66.9698,144.121 66.5325,145.184 67.2993,147.08C 64.6992,146.605 62.8767,146.064 60.6899,144.929C 60.1792,146.272 63.8245,147.027 65.5646,147.834C 65.6578,148.481 65.7151,149.153 65.7993,149.804C 65.5898,149.527 65.3245,149.314 65.0485,149.101C 64.2882,148.512 63.674,148.116 62.9858,148.116C 62.5747,148.116 62.3298,148.069 62.0952,148.35C 61.3406,149.262 61.7672,150.533 62.8926,151.585C 64.0232,152.631 65.5592,153.137 66.2672,152.381C 66.4912,153.424 66.7672,154.46 67.2993,155.424C 67.4392,155.564 68.1272,156.116 68.0952,155.986C 67.2618,151.872 66.9858,150.881 66.7366,148.116C 67.0435,148.189 67.4858,148.345 68.4231,148.492C 68.8512,151.006 68.5485,149.381 69.7366,155.329C 70.3032,155.918 70.6792,156.325 71.2366,156.924C 70.5125,152.768 69.9338,151.637 69.6899,148.678C 70.106,148.918 70.4446,148.908 70.814,149.101C 70.8086,149.074 71.0538,148.522 70.674,147.976C 66.8512,147.22 66.9548,142.486 73.8605,147.413C 73.8926,147.434 74.9858,146.943 74.0952,146.334C 71.6163,144.637 69.502,143.856 68.2366,143.992 Z M 63.0806,149.288C 63.4659,149.314 64.106,149.574 64.5325,149.943C 65.2205,150.533 65.908,151.329 65.3767,151.772C 64.8512,152.21 64.002,151.533 63.3605,150.877C 62.7258,150.225 62.3658,149.7 62.7993,149.334C 62.8658,149.277 62.9497,149.277 63.0806,149.288 Z "/>
		<path fill="#000000" fill-opacity="1" stroke-width="0.2" stroke-linejoin="round" stroke="#000000" stroke-opacity="1" d="M 67.0271,170.361C 69.4231,171.288 70.5806,174.21 71.0806,174.845L 73.5325,176.178L 71.5592,172.178C 72.3818,172.085 78.4392,175.105 81.0325,177.986C 83.1326,180.32 84.1365,182.82 82.606,184.495C 82.4285,184.694 81.5271,184.73 81.3605,184.158C 81.9966,183.418 82.2726,182.325 81.7993,181.058C 81.3245,179.793 80.2939,178.21 79.5325,177.58C 77.9606,176.272 75.8872,175.033 73.5646,174.148C 74.5073,176.356 75.7565,178.949 77.3406,181.522C 75.8979,180.314 75.2939,178.839 74.3767,177.762L 71.8658,176.356C 72.106,176.71 72.778,177.986 73.174,178.772C 72.2618,177.605 71.7472,176.725 70.674,174.96C 70.1938,174.178 69.8298,173.386 69.2151,172.61C 68.6792,171.924 67.9659,171.339 67.7939,171.277C 67.6899,171.235 67.002,171.293 67.0271,170.361 Z "/>
		<path fill="#000000" fill-opacity="1" stroke-width="0.2" stroke-linejoin="round" d="M 217.251,113.558C 216.22,114.548 215.903,115.798 216.247,116.329C 217.106,117.657 218.434,116.298 218.997,115.564C 219.393,115.048 219.633,114.334 219.575,113.741C 219.527,113.214 218.981,111.902 217.251,113.558 Z M 222.439,116.329C 222.346,115.845 220.851,110.105 220.824,110.028C 220.799,109.949 220.778,109.886 220.767,109.84C 220.699,109.605 220.309,109.642 220.049,109.59C 219.789,109.544 219.532,109.522 219.283,109.538C 219.032,109.553 218.898,109.522 218.877,109.444C 218.846,109.324 218.944,109.194 219.169,109.053C 219.408,108.897 219.789,108.757 220.303,108.626C 220.824,108.501 221.101,108.544 221.142,108.757C 221.273,109.392 221.444,109.741 221.757,110.965L 222.914,115.528C 223.032,115.996 223.294,117.366 223.387,118.064C 223.481,118.762 223.341,119.189 223.158,119.304C 223.018,119.392 222.652,117.408 222.439,116.329 Z M 221.841,115.512L 219.236,118.46L 219.538,119.632C 219.606,119.881 219.606,120.11 219.679,120.47C 219.757,120.834 219.814,121.268 219.846,121.777C 219.882,122.288 219.819,122.59 219.658,122.678C 219.581,122.689 219.486,122.564 219.377,122.304C 219.262,122.048 219.179,121.793 219.122,121.533C 219.065,121.277 219.012,121.09 218.97,120.965L 218.549,119.058L 217.205,120.162C 217.136,120.23 217.018,120.366 216.857,120.569C 216.69,120.772 216.554,120.908 216.45,120.976C 216.273,121.09 215.923,121.168 215.387,121.225C 214.851,121.277 214.565,121.225 214.518,121.064L 214.549,120.934L 214.642,120.84C 215.185,120.605 215.794,120.272 216.481,119.834C 216.997,119.506 217.736,118.85 218.543,118.132C 219.346,117.418 220.002,116.725 220.559,116.205L 221.658,114.981M 217.559,112.49C 218.059,112.194 218.601,111.814 219.116,111.934C 219.627,112.048 220.07,112.673 220.127,113.268C 220.199,113.99 220.085,114.648 219.736,115.309C 219.382,115.97 218.882,116.637 218.314,117.101C 216.851,118.288 215.975,117.84 215.549,116.986C 215.127,116.142 215.679,114.366 216.554,113.424C 216.57,113.397 216.652,113.32 216.794,113.178C 216.939,113.038 217.023,112.954 217.038,112.924C 217.081,112.845 217.09,112.777 217.075,112.725C 217.059,112.673 217.023,112.626 216.95,112.585C 216.882,112.544 216.846,112.501 216.835,112.47L 216.846,112.413L 216.934,112.345C 217.012,112.293 217.136,112.252 217.294,112.214C 217.455,112.184 217.543,112.205 217.565,112.272C 217.585,112.366 217.575,112.501 217.518,112.684"/>
		<path fill="#000000" fill-opacity="1" stroke-width="0.2" stroke-linejoin="round" d="M 144.554,56.1782L 145.633,55.6622L 146.439,57.7822L 149.549,56.2142C 150.975,61.5329 150.403,66.2929 146.507,72.0688C 146.002,71.6009 145.699,71.0275 145.455,70.6529C 149.824,63.4863 149.497,62.4129 148.737,57.7355L 143.95,60.3288L 143.939,64.0635L 142.669,64.9809L 142.72,59.8089L 145.289,58.3769M 155.715,57.6315L 159.273,63.5742L 158.357,64.2409L 155.242,59.2302C 154.966,59.8195 154.127,61.3608 153.294,62.2409C 153.199,62.1209 153.101,62.0329 153.002,61.9648C 152.908,61.8503 152.835,61.7675 152.773,61.7142C 152.773,61.7142 152.633,61.6369 152.341,61.4755C 153.179,60.0742 153.559,59.6315 154.185,58.2302C 154.731,57.0062 155.19,56.2249 155.283,54.4382L 156.371,54.3915C 156.278,55.9022 155.918,56.6995 155.715,57.6315 Z "/>
		<path fill="#5A5A5A" fill-opacity="1" stroke-width="0.2" stroke-linejoin="round" stroke="#5A5A5A" stroke-opacity="1" d="M 224.169,137.668C 225.918,135.064 223.371,134.564 223.669,132.735C 224.194,129.496 227.846,123.345 228.403,123.022C 227.299,122.762 226.273,110.825 226.757,110.017C 226.027,110.454 226.57,118.293 227.857,123.022C 225.278,126.96 223.398,131.653 223.319,132.689C 223.163,134.839 225.147,135.7 224.169,137.668 Z "/>
		<path fill="#000000" fill-opacity="1" stroke-width="0.2" stroke-linejoin="round" d="M 92.5752,55.8342C 93.5178,54.9289 94.6899,53.7568 94.6418,53.7142C 94.4698,53.5688 93.3352,53.9648 92.9497,54.1102C 90.8605,55.9489 89.1326,57.8915 87.3245,59.8555L 86.502,59.9809C 89.0486,57.2822 91.6525,54.5849 94.9806,51.8969L 95.674,51.7768L 93.4659,53.6475C 93.7258,53.5849 94.1365,53.4489 94.3245,53.4075C 94.4966,53.3769 95.3352,53.1315 95.5952,53.2515C 95.9285,53.4075 94.1899,54.8915 93.4698,55.6835"/>
		<path fill="#000000" fill-opacity="1" stroke-width="0.2" stroke-linejoin="round" d="M 96.5646,109.772C 96.418,109.798 96.2886,109.84 96.1792,109.913C 95.9698,110.058 95.8406,110.225 95.7939,110.429C 95.7512,110.601 95.783,110.762 95.8926,110.929C 96.002,111.101 96.1938,111.225 96.4552,111.257C 96.5232,111.262 96.6472,111.252 96.7993,111.236C 96.9552,111.214 97.0486,111.194 97.0806,111.194C 97.2778,111.22 97.3512,111.377 97.2886,111.653C 97.2153,111.976 97.002,112.241 96.6792,112.434C 96.3512,112.621 95.9806,112.772 95.5898,112.897L 95.5232,113.225C 97.0325,112.944 97.918,112.293 98.1525,111.272C 98.2258,110.949 98.1525,110.637 97.9606,110.324C 97.7726,110.006 97.4752,109.809 97.0486,109.762C 96.8712,109.741 96.7046,109.746 96.5646,109.772 Z M 105.669,109.272C 103.289,109.605 101.273,110.47 99.9338,111.657C 98.5952,112.845 97.7312,114.605 97.9285,115.996C 98.106,117.246 98.5486,118.49 99.7258,119.162C 100.898,119.84 101.71,120.11 103.023,120.11L 103.07,120.881L 101.527,121.153C 100.857,121.246 100.357,121.22 100.027,121.105C 99.6938,120.99 99.2778,120.596 99.106,120.21L 98.2672,120.262L 98.502,122.558L 105.303,121.601L 105.215,119.569C 102.991,119.304 102.575,118.7 101.882,118.142C 101.324,117.694 100.72,116.616 100.585,115.678C 100.408,114.381 101.002,112.7 101.991,111.768C 102.928,110.892 103.86,110.47 105.611,110.08C 106.72,109.834 108.751,109.736 109.903,110.34C 110.414,110.61 111.726,111.637 111.934,113.105C 112.247,115.356 111.215,117.626 108.038,119.173L 108.136,121.09L 115.581,120.012L 115.294,117.585L 114.601,117.601C 114.444,117.908 113.997,118.538 113.803,118.824C 113.627,119.096 113.366,119.293 112.601,119.402L 110.387,119.71L 110.36,118.908C 111.871,118.372 113.101,117.574 113.898,116.626C 114.69,115.678 114.997,114.017 114.83,112.845C 114.627,111.397 113.726,110.32 112.133,109.601C 110.532,108.877 107.975,108.944 105.669,109.272 Z "/>
		<path fill="#000000" fill-opacity="1" stroke-width="0.2" stroke-linejoin="round" d="M 205.877,79.0222C 205.346,79.0903 204.185,79.4235 204.007,79.8969C 203.877,80.2355 203.694,80.7142 204.846,81.2409C 205.242,81.4182 206.018,80.8769 206.674,80.8503C 207.975,80.7929 209.007,83.0329 208.393,84.6995C 207.966,85.8555 206.636,86.7715 205.257,87.3395C 204.303,87.7409 203.581,87.6569 202.923,87.4955C 202.21,87.3195 201.685,86.8288 201.351,86.0169C 201.116,85.4595 200.966,84.8395 200.893,84.1529C 200.898,83.5742 201.357,83.4755 201.601,84.7822C 201.871,85.4382 202.366,86.0955 202.955,86.2355C 203.543,86.3715 204.262,86.2675 205.101,85.9182C 205.747,85.6529 206.47,84.9902 207.049,84.2195C 208.012,82.9382 207.642,81.9702 207.002,81.7675C 206.694,81.6728 205.794,82.2875 205.122,82.2195C 203.903,82.1009 202.991,80.5635 202.986,80.0115C 202.986,79.3195 203.486,78.9235 203.955,78.6009C 204.699,78.0849 206.002,77.4648 205.877,79.0222 Z M 208.857,86.4182L 208.71,87.8342L 207.122,87.6835L 207.382,86.3555M 206.71,87.8235L 206.585,89.2409L 205.002,89.1049L 205.111,87.6942"/>
		<path fill="#000000" fill-opacity="1" stroke-width="0.2" stroke-linejoin="round" d="M 104.226,146.46L 103.928,146.616C 104.934,147.298 105.59,147.829 105.86,148.23C 106.136,148.631 106.444,148.653 106.846,148.277C 107.242,147.902 107.33,147.601 107.075,147.413C 106.824,147.225 105.871,146.902 104.226,146.46 Z M 111.789,146.32C 111.97,147.235 112.627,151.22 114.19,157.834L 112.475,157.886L 111.633,157.564L 112.581,158.476C 113.278,158.272 114.065,158.126 114.934,158.027L 128.461,156.481L 125.955,155.544L 124.387,156.517L 122.065,146.309L 123.205,145.82L 121.194,145.131L 119.809,145.97L 113.866,146.653M 113.538,146.981L 120.19,146.235L 120.767,149.408L 114.294,150.157M 108.133,148.481L 107.491,149.08L 101.111,149.705L 101.961,150.053C 102.549,149.891 103.199,149.788 103.928,149.714L 107.299,149.366C 106.554,150.648 105.627,151.777 104.518,152.741C 103.408,153.7 102.237,154.538 100.97,155.268L 101.273,155.397C 103.059,154.512 104.532,153.673 105.652,152.85C 105.97,156.096 106.133,158.08 106.133,158.788L 107.575,158.142C 107.439,157.481 107.231,155.762 106.961,152.938C 108.346,153.443 109.247,153.872 109.685,154.257C 110.122,154.637 110.47,154.7 110.71,154.408C 110.95,154.121 111.012,153.85 110.918,153.605C 110.83,153.366 110.049,153.101 108.554,152.824C 109.237,152.293 109.944,151.741 110.694,151.168L 111.47,150.949L 109.731,150.402C 109.408,151.214 108.871,152.012 108.142,152.762L 106.914,152.574L 106.866,151.976C 107.461,151.241 108.085,150.434 108.731,149.553L 109.799,149.126M 114.33,150.465L 120.841,149.714L 121.518,152.954L 114.918,153.694M 114.991,154.001L 121.636,153.23L 122.398,156.891L 115.747,157.662"/>
		<path fill="#000000" fill-opacity="1" stroke-width="0.2" stroke-linejoin="round" d="M 177.773,124.148C 178.116,124.044 178.428,124.022 178.72,124.08C 179.012,124.142 179.185,124.268 179.242,124.449C 179.387,124.913 179.002,125.465 178.09,126.11C 177.179,126.752 175.622,127.413 173.418,128.096C 171.205,128.782 169.543,129.116 168.434,129.096C 167.324,129.074 166.694,128.834 166.554,128.377C 166.497,128.194 166.57,127.996 166.767,127.782C 166.97,127.569 167.251,127.408 167.611,127.293C 167.975,127.184 168.309,127.153 168.606,127.205C 168.908,127.257 169.36,127.434 169.975,127.736C 170.835,128.173 171.95,128.178 173.314,127.757C 174.669,127.34 175.581,126.705 176.054,125.856C 176.377,125.257 176.642,124.856 176.857,124.648C 177.07,124.438 177.377,124.272 177.773,124.148 Z M 179.251,128.512C 179.07,127.929 178.283,128.189 177.106,128.444L 177.018,128.157L 184.065,125.684L 184.152,125.97C 182.903,126.58 181.887,127.132 182.085,127.725L 183.955,136.053C 184.043,136.288 184.903,136.121 186.179,135.82L 186.267,136.105L 179.346,138.725L 179.262,138.438C 180.669,137.735 181.518,137.23 181.262,136.429L 179.851,129.777L 171.122,140.657C 171.575,140.725 172.71,140.637 173.565,140.449L 173.647,140.735L 165.893,143.096L 165.803,142.804C 167.439,142.027 168.267,141.621 168.19,141.2L 166.346,132.804C 166.289,132.314 164.851,132.386 163.652,132.684L 163.565,132.397L 171.809,129.804L 171.898,130.09C 171.027,130.512 168.835,131.298 169.065,132.044L 170.622,139.096"/>
		<path fill="#000000" fill-opacity="1" stroke-width="0.2" stroke-linejoin="round" d="M 223.247,146.809C 222.903,147.027 221.351,150.214 220.45,152.058L 219.049,153.61L 219.142,149.954C 218.543,151.053 217.512,151.293 217.366,151.131C 217.158,150.891 217.414,149.684 217.997,148.913C 218.45,148.32 219.428,147.262 220.081,147.184C 221.101,147.064 220.236,149.924 220.341,151.241C 221.19,149.277 222.199,147.47 223.398,145.642L 223.633,142.757C 223.585,142.21 223.273,141.96 222.69,142.241C 222.095,142.527 221.439,143.178 220.731,143.965C 219.757,145.038 218.33,146.621 217.803,148.11L 216.294,149.517C 216.527,146.814 220.575,142.59 223.158,140.418C 223.736,139.929 224.33,140.116 224.507,140.809C 224.685,141.501 224.382,142.366 224.414,143.99C 225.299,143.148 225.475,143.153 225.341,144.225C 225.205,145.361 224.33,146.965 223.611,148.058C 223.043,148.913 223.075,147.949 223.247,146.809 Z M 218.642,148.861C 218.247,149.35 218.049,149.58 218.09,150.027C 218.116,150.361 218.403,150.137 218.747,149.829C 219.101,149.512 219.335,149.126 219.319,148.678C 219.299,148.126 218.914,148.533 218.642,148.861 Z M 224.251,145.324C 224.049,145.752 223.961,146.329 224.116,146.429C 224.257,146.512 224.414,146.11 224.581,145.725C 224.69,145.47 224.918,144.82 224.773,144.673C 224.633,144.538 224.382,145.064 224.251,145.324 Z "/>
		<path fill="#000000" fill-opacity="1" stroke-width="0.2" stroke-linejoin="round" d="M 172.669,87.5903C 172.685,87.6529 172.674,87.7142 172.636,87.7822C 172.595,87.8503 172.543,87.8915 172.475,87.9129C 171.944,88.1102 171.538,88.3661 171.256,88.6728C 170.97,88.9809 170.737,89.4755 170.543,90.1529L 168.002,100.35C 167.986,100.438 167.898,100.512 167.726,100.564C 167.595,100.605 167.481,100.596 167.382,100.538L 162.877,97.0275L 160.627,102.605C 160.581,102.705 160.486,102.777 160.357,102.82C 160.194,102.866 160.075,102.861 160.002,102.798L 151.871,95.8915C 151.36,95.4648 150.887,95.1995 150.444,95.1049C 149.997,95.0115 149.423,95.0435 148.726,95.1995C 148.669,95.2195 148.611,95.2142 148.543,95.1889C 148.481,95.1569 148.439,95.1209 148.423,95.0635C 148.382,94.9235 148.418,94.8342 148.532,94.7982C 149.027,94.6529 149.543,94.5115 150.09,94.3769C 150.595,94.2515 151.07,94.1262 151.507,93.9902C 151.955,93.8555 152.475,93.6782 153.075,93.4648C 153.705,93.2355 154.262,93.0475 154.751,92.9022C 154.871,92.8661 154.95,92.9182 154.997,93.0582C 155.038,93.1942 155.023,93.2768 154.95,93.2982C 154.466,93.4755 154.106,93.6782 153.866,93.9075C 153.627,94.1369 153.543,94.3715 153.616,94.6049C 153.652,94.7248 153.756,94.8555 153.928,95.0009L 160.616,100.601L 162.185,96.4902L 158.731,93.7929C 158.111,93.3141 157.633,93.0275 157.299,92.9382C 156.97,92.8449 156.518,92.8661 155.939,92.9955C 155.887,93.0115 155.83,93.0062 155.773,92.9809C 155.71,92.9489 155.674,92.9129 155.658,92.8555C 155.611,92.7142 155.642,92.6315 155.747,92.6009C 156.237,92.4489 156.69,92.3235 157.111,92.2302C 157.518,92.1423 157.939,92.0275 158.387,91.8915C 158.824,91.7569 159.289,91.6009 159.767,91.4182C 160.267,91.2355 160.762,91.0688 161.251,90.9182C 161.366,90.8808 161.45,90.9343 161.491,91.0742C 161.532,91.2101 161.518,91.2929 161.444,91.3141C 160.475,91.6569 160.043,92.0009 160.147,92.3342C 160.19,92.4863 160.377,92.6782 160.699,92.9235L 162.966,94.6369L 163.928,92.1423C 164.065,91.7929 164.101,91.5169 164.043,91.3235C 163.903,90.8661 163.335,90.7715 162.346,91.0435C 162.256,91.0688 162.19,91.0115 162.147,90.8715C 162.133,90.8235 162.142,90.7675 162.174,90.7101C 162.199,90.6529 162.242,90.6155 162.283,90.6009C 162.636,90.4955 163.07,90.3769 163.595,90.2515C 164.095,90.1315 164.502,90.0222 164.814,89.9235C 165.043,89.8555 165.371,89.7409 165.803,89.5849C 166.351,89.3769 166.809,89.2195 167.185,89.1049C 167.273,89.0795 167.335,89.1262 167.371,89.2463C 167.418,89.4022 167.36,89.5062 167.205,89.5582C 166.642,89.7715 166.215,90.0169 165.923,90.2982C 165.627,90.5795 165.314,91.1102 164.986,91.8862L 163.685,95.1835L 167.751,98.2715L 169.497,90.4129C 169.57,90.1209 169.575,89.8769 169.512,89.6728C 169.36,89.1835 168.794,89.0742 167.803,89.3449C 167.715,89.3715 167.647,89.3141 167.606,89.1728C 167.565,89.0329 167.606,88.9435 167.742,88.9022C 168.095,88.7929 168.527,88.6782 169.027,88.5582C 169.491,88.4489 169.877,88.3503 170.185,88.2569C 170.507,88.1569 170.871,88.0275 171.294,87.8661C 171.72,87.7049 172.111,87.5688 172.466,87.4595C 172.559,87.4289 172.633,87.4702 172.669,87.5903 Z "/>
		<path fill="#000000" fill-opacity="1" stroke-width="0.2" stroke-linejoin="round" d="M 188.527,172.027C 188.507,167.99 188.45,167.824 188.309,164.954C 183.585,166.768 176.018,169.829 174.824,170.064C 173.575,170.309 172.012,170.173 172.273,169.252C 172.486,168.495 173.991,166.913 175.341,166.418C 174.908,166.986 174.601,167.501 175.341,167.547C 176.294,167.616 180.237,165.96 182.163,165.329C 184.075,164.705 188.054,162.533 189.231,163.006C 190.423,163.486 190.169,167.424 190.169,170.272C 190.174,170.678 190.294,171.022 190.106,171.309C 189.756,171.839 189.081,171.902 188.527,172.027 Z "/>
		<path fill="#000000" fill-opacity="1" stroke-width="0.2" stroke-linejoin="round" d="M 122.585,186.481C 122.877,186.829 124.081,186.877 124.694,187.09C 125.314,187.298 128.428,187.424 129.403,187.356C 130.497,187.282 131.762,186.788 132.335,186.391C 132.824,186.053 133.111,185.657 133.081,185.214C 133.012,184.214 130.299,183.372 128.152,182.918C 126.19,182.495 122.47,182.902 119.726,183.012C 116.33,183.142 113.789,183.288 110.778,183.314C 110.418,183.32 109.944,182.986 109.944,182.648C 109.95,182.142 110.669,181.943 110.756,181.298C 110.778,181.142 110.794,181.001 110.705,180.965C 110.652,180.943 110.152,180.924 109.908,180.96C 109.715,180.99 109.559,181.09 108.955,181.116C 108.705,181.126 108.242,181.116 107.923,180.981C 107.647,180.861 106.803,180.391 107.975,180.194C 108.393,180.126 110.481,179.82 111.319,180.527C 112.174,181.246 111.242,182.153 111.242,182.153C 111.242,182.153 113.918,182.157 115.294,182.116C 118.908,182.006 127.215,181.277 127.215,181.277C 127.778,181.235 129.09,180.85 129.434,180.642C 129.756,180.443 129.991,180.214 129.893,180.022C 129.491,179.21 128.97,179.241 127.871,179.044C 129.502,178.7 131.231,179.101 131.319,180.064C 131.428,181.2 130.152,181.82 128.72,182.386C 130.237,182.621 132.152,183.246 133.075,183.788C 134.002,184.324 134.611,184.762 134.658,185.429C 134.705,186.105 134.357,186.705 133.491,187.257C 132.507,187.877 131.199,188.329 128.986,188.424C 127.163,188.501 124.081,188.033 122.981,187.553C 121.966,188.178 120.012,188.845 118.22,188.97C 116.606,189.08 114.283,188.82 113.523,188.429C 112.554,187.929 111.955,187.58 111.914,186.96C 111.877,186.47 112.018,185.97 112.767,185.777C 113.075,185.7 114.215,185.449 115.538,185.538C 117.215,185.648 119.111,186.386 118.027,187.309C 117.778,187.522 117.346,187.465 116.778,187.298C 118.012,186.001 113.142,186.21 113.185,186.809C 113.21,187.168 113.538,187.454 114.174,187.668C 114.814,187.891 117.116,188.038 118.043,187.97C 119.032,187.902 120.606,187.47 121.205,187.178C 121.803,186.886 122.314,186.866 122.585,186.481 Z M 109.72,180.527C 109.72,180.418 109.267,180.397 109.012,180.402C 108.762,180.408 108.33,180.46 108.335,180.547C 108.335,180.637 108.747,180.752 108.997,180.746C 109.242,180.741 109.715,180.637 109.72,180.527 Z "/>
		<path fill="#000000" fill-opacity="1" stroke-width="0.2" stroke-linejoin="round" d="M 187.002,65.3395C 184.251,59.4648 183.423,58.0009 187.07,57.4075C 185.991,56.8449 185.69,56.3661 184.986,56.5583C 183.382,56.9902 181.095,55.2875 180.065,54.8555C 181.09,54.4595 182.57,54.0795 183.262,54.0275C 183.398,54.0115 184.803,54.5688 184.981,54.5435C 184.72,53.9595 182.133,52.3395 181.72,52.4343C 179.491,52.9489 176.231,53.8808 174.794,54.2568C 175.262,55.2568 180.106,55.8449 182.616,57.1529C 182.636,57.9955 183.783,63.6782 187.002,65.3395 Z "/>
		<path fill="#000000" fill-opacity="1" stroke-width="0.2" stroke-linejoin="round" d="M 66.4285,109.205L 65.7312,110.872C 65.7618,111.069 65.9659,112.637 65.3352,113.834L 67.5125,113.798C 67.5435,112.986 68.4033,111.689 66.6846,110.881L 67.2472,109.345L 69.278,109.298C 68.408,110.7 67.9858,113.022 68.002,113.782L 68.7151,113.768C 67.9285,116.001 67.6365,117.205 67.4338,120.282C 65.5125,118.47 61.8512,118.372 61.4033,118.616C 61.4858,117.424 62.5382,115.413 62.7151,115.101L 62.3032,115.044L 62.8605,113.752L 64.783,113.845C 65.0747,113.298 65.4912,112.705 65.278,110.949C 64.4138,110.881 63.7048,110.804 63.4285,110.965C 62.9446,111.257 62.5485,111.788 62.4033,113.314C 62.2672,111.845 62.283,110.752 62.6992,110.105C 62.9138,109.768 63.2672,109.564 63.5485,109.293M 67.2517,115.881C 66.6846,115.006 63.7517,115.044 63.4185,115.064C 62.9446,115.47 62.5485,116.678 62.3979,117.2C 64.2517,116.965 66.3767,118.605 67.1163,119.334C 67.0851,118.329 67.2882,117.017 67.2517,115.881 Z M 69.3716,108.528C 69.0073,108.548 68.2312,107.82 67.4497,107.074C 66.4752,106.132 64.6113,105.434 63.9231,106.252C 63.7472,106.454 63.606,106.653 63.6163,107.08C 63.6216,107.262 63.7672,107.476 64.0232,107.58C 64.2205,107.657 64.502,107.71 64.8818,107.73C 64.7939,108.402 64.7413,108.861 64.3872,108.866C 62.9446,108.877 62.5747,107.528 62.6792,106.877C 62.8032,106.121 62.9752,105.84 63.2618,105.476C 63.8406,104.746 64.502,104.72 65.1163,104.684C 66.7048,104.59 68.2517,107.298 69.3716,108.528 Z "/>
		<path fill="#000000" fill-opacity="1" stroke-width="0.2" stroke-linejoin="round" d="M 70.4806,83.2195L 73.5538,77.2875L 75.3658,76.8288L 76.1365,77.4343L 74.0232,81.6622C 73.814,82.0795 73.9338,82.5275 74.4806,82.4955C 75.0646,82.4648 75.9548,82.2248 76.1846,81.7355L 77.8191,78.2515L 77.174,77.0849L 79.002,76.2101L 79.3872,76.6315L 79.9912,76.6009L 78.8712,77.2675L 78.4806,76.7409L 77.7312,77.0903L 78.3566,78.2101L 76.7565,81.6315C 76.2939,82.6209 74.3245,83.1009 73.6792,82.7982C 73.314,82.6262 73.4231,81.9702 73.6006,81.6049L 75.5325,77.5795L 75.1792,77.2463L 73.8191,77.5582L 71.8352,81.3035C 72.1686,81.0849 73.0806,80.8035 72.4966,81.8608C 72.1632,82.4595 71.0271,83.3195 71.0271,83.3195M 71.1846,82.6369L 71.6418,81.7463C 72.2048,81.2822 72.4185,81.3608 72.1899,81.7768C 72.0232,82.0742 71.5699,82.5529 71.1846,82.6369 Z "/>
		<radialGradient id="SVGID_Stroke1_" cx="77.5548" cy="101.792" r="403.039" gradientUnits="userSpaceOnUse" gradientTransform="rotate(-90.000000 77.554810 101.791687)">
			<stop offset="0" stop-color="#1F1F1F" stop-opacity="1"/>
			<stop offset="1" stop-color="#000000" stop-opacity="1"/>
		</radialGradient>
		<radialGradient id="SVGID_Fill2_" cx="77.5548" cy="101.792" r="403.139" gradientUnits="userSpaceOnUse" gradientTransform="rotate(-90.000000 77.554810 101.791687)">
			<stop offset="0" stop-color="#1F1F1F" stop-opacity="1"/>
			<stop offset="1" stop-color="#000000" stop-opacity="1"/>
		</radialGradient>
		<path fill="url(#SVGID_Fill2_)" stroke-linejoin="round" stroke="url(#SVGID_Stroke1_)" d="M 116.324,132.668C 114.158,134.361 118.83,135.678 119.737,137.282C 120.642,138.886 117.59,140.59 117.652,140.601C 117.747,140.605 121.095,138.574 120.242,137.044C 119.382,135.512 114.914,134.137 116.324,132.668 Z M 106.773,45.2568C 106.83,45.2195 106.532,45.3503 106.273,45.4489C 106.226,45.5383 103.762,46.6102 102.414,47.8449C 102.36,48.1262 103.382,48.7715 106.002,47.4595C 105.585,48.0795 103.09,50.7049 101.45,51.6995C 100.737,52.1369 100.918,51.1209 99.8658,51.5849C 98.2672,52.2929 93.9912,55.4289 93.6938,57.8769C 93.5538,59.0222 98.5806,55.3715 98.3245,56.4075C 98.002,57.7049 95.9084,63.1475 92.1111,65.8235C 88.6938,66.4435 88.502,66.4129 86.1686,66.8661C 83.1272,66.8661 92.002,61.8235 87.8658,61.6155C 82.6525,61.3555 81.8191,64.1262 80.6472,66.4022C 81.9752,64.1622 83.0178,61.4022 87.9445,61.6942C 91.3458,61.8969 82.7778,67.0169 86.0898,67.0169C 88.4231,66.5688 88.7726,66.5635 92.1899,65.9382C 95.9806,63.2621 98.1525,57.7249 98.4752,56.2515C 98.7046,55.2101 93.5898,58.9022 93.7672,57.7568C 94.106,55.6209 98.3458,52.3808 99.9445,51.6622C 100.841,51.2568 100.694,52.3288 101.408,51.8915C 103.049,50.8915 105.877,48.0222 106.346,47.1889C 103.731,48.5009 102.554,48.1262 102.606,47.8449C 103.893,46.6675 106.502,45.4289 106.773,45.2568 Z M 80.6525,66.4022C 79.6578,68.0795 78.5178,69.4902 75.4806,69.0635C 77.8352,66.2621 80.9966,63.0222 83.0073,60.4595C 81.6938,61.4289 81.674,61.2515 82.2726,60.5742C 81.3767,61.5169 81.1272,61.9182 82.5806,60.8449C 80.0898,63.5635 77.6792,66.3769 75.3245,69.1782C 78.6938,69.6102 79.7565,68.1369 80.6525,66.4022 Z M 106.116,45.4902C 105.846,45.5688 105.142,45.8195 103.841,46.2621C 100.585,47.9235 97.5271,49.8288 94.1938,51.3915C 91.8086,53.5275 90.3767,54.3555 88.5232,56.0635C 88.8712,55.2875 88.4698,55.3862 87.7153,55.8715C 88.3605,55.5115 88.6992,55.5275 88.3712,56.2568C 90.2205,54.5475 91.882,53.6049 94.2726,51.4702C 97.606,49.9075 100.663,48.0009 103.918,46.3395C 105.179,45.8555 105.694,45.6475 106.116,45.4902 Z M 178.081,47.8449C 180.642,49.2355 183.737,51.6369 186.762,53.2822C 185.081,52.1622 182.226,49.8715 178.081,47.8449 Z M 167.507,49.1155C 166.737,49.1049 165.778,49.2195 164.575,49.4235C 172.518,48.3449 166.742,55.2195 176.961,53.2049C 169.065,53.8035 172.882,49.1835 167.507,49.1155 Z M 142.809,49.7715C 140.502,49.9289 137.846,50.7409 136.944,51.5475C 138.262,50.5955 142.824,49.6475 144.663,50.3141C 146.289,50.9022 143.497,51.9648 146.054,53.4755C 147.081,54.0849 150.887,54.1009 154.231,53.5169C 150.908,53.9343 147.346,53.4755 146.59,53.2101C 145.319,52.7568 146.955,50.4755 145.398,49.9648C 144.715,49.7409 143.789,49.7049 142.809,49.7715 Z M 159.366,51.6262C 159.002,52.9343 164.19,59.4955 167.97,59.6102C 169.101,59.6475 169.581,58.4129 170.36,57.6423C 171.136,56.8715 171.647,56.3769 172.095,56.2929C 172.45,56.2249 171.185,55.7249 170.36,56.3288C 169.532,56.9382 168.778,58.4755 168.085,58.6475C 165.616,59.2463 160.72,52.6315 159.366,51.6262 Z M 136.636,51.9343C 136.611,52.0169 136.59,52.0849 136.636,52.1622C 136.616,52.0849 136.611,52.0169 136.636,51.9343 Z M 187.762,52.6262C 187.737,52.6995 188.169,52.9755 188.418,53.2822C 188.324,53.0901 188.194,52.8969 187.955,52.7049C 188.669,52.5529 193.497,56.3555 194.127,56.9129C 195.163,57.8195 193.054,56.9489 193.163,57.7195C 193.346,59.0009 197.33,62.4863 200.69,65.7101C 198.939,66.3089 196.751,68.4489 196.751,69.7621C 196.751,72.0275 200.065,72.9182 201.152,74.3503C 202.179,75.7049 200.481,76.4755 196.559,77.5903C 198.737,78.5275 203.179,77.1835 202.346,74.6209C 201.434,71.7982 198.423,72.4343 197.835,69.8769C 197.611,68.9075 200.86,66.4543 201.423,66.2515C 205.122,68.9955 210.47,74.9809 210.065,76.3195C 209.928,76.7715 208.283,75.1369 207.403,75.6262C 205.86,76.4755 211.527,85.1102 213.303,85.8862C 213.95,86.1675 214.377,81.6529 213.846,81.6423C 212.783,81.6315 213.757,85.1315 213.111,84.8089C 212.428,84.4648 208.027,78.8235 208.136,76.7822C 208.174,76.0582 210.928,77.6675 210.871,76.6675C 210.783,75.0329 205.59,69.1262 201.346,65.5169C 195.215,59.6942 193.403,58.2101 193.742,57.7195C 194.111,57.2515 195.595,58.1569 195.289,57.7621C 194.565,56.8395 189.674,53.0583 188.303,52.7049C 187.923,52.6049 187.778,52.5901 187.762,52.6262 Z M 188.418,53.2822C 188.527,53.5222 188.538,53.7195 188.532,53.8235C 188.652,53.6569 188.559,53.4595 188.418,53.2822 Z M 188.497,53.8608C 188.414,53.9489 188.289,53.9902 188.262,54.0169C 188.393,54.0742 188.45,53.9955 188.497,53.8608 Z M 186.914,53.3608C 187.408,53.6835 187.83,53.9343 188.111,53.9809C 187.705,53.7929 187.319,53.5795 186.914,53.3608 Z M 172.215,56.8342C 174.523,58.1728 177.47,60.8555 178.116,62.7768C 178.636,64.3288 176.86,63.7621 174.642,63.7768C 176.773,64.6155 179.543,64.8449 179.273,62.9289C 178.934,60.5062 174.934,56.8235 172.215,56.8342 Z M 136.174,57.3342C 133.147,58.3235 130.45,57.7355 127.147,57.9543C 127.136,58.0583 127.122,58.2515 127.106,58.3769C 130.038,58.1835 132.857,58.6049 136.174,57.3342 Z M 127.07,58.6475C 126.789,60.5635 126.418,62.4955 126.491,63.8555C 126.502,62.4022 126.893,60.1009 127.07,58.6475 Z M 86.8245,61.8862C 85.382,61.9702 83.3458,62.7302 82.9285,63.5849C 81.1472,67.2302 78.5752,70.6315 75.0952,69.5275C 72.908,71.3769 68.4285,77.0688 68.4966,79.6369C 68.5125,80.2195 71.0952,76.8089 71.314,77.3969C 71.6686,78.3661 70.5073,80.7409 69.502,82.3769C 68.6365,83.7768 67.5592,85.6262 66.3352,86.3862C 66.1006,86.5329 65.8032,84.3661 65.4497,84.8449C 62.9966,88.1728 60.1525,93.2409 60.2413,96.4955C 60.2939,98.3503 63.6326,99.6315 65.9138,96.4955C 66.7101,95.4022 65.8191,91.7463 66.7993,90.7463C 67.3872,90.1529 68.4912,89.3769 69.8512,89.1262C 71.1686,88.8862 74.1113,89.4022 73.8979,90.7463C 73.5178,93.2302 70.0485,95.0582 71.3566,96.3449C 73.5073,98.4543 80.2778,97.9648 83.5486,96.0742C 81.9912,91.0115 85.5232,82.2715 89.1792,81.1423C 90.4445,80.7515 91.5952,82.3862 93.1938,81.9489C 96.1326,81.1475 96.814,78.2621 96.8605,76.4702C 96.9033,74.7768 97.3191,72.6889 95.8566,73.0383C 93.9806,73.4863 90.7886,77.0275 89.3352,75.6622C 86.9698,73.4435 90.4966,69.3808 92.1111,66.4022C 90.502,66.4129 85.5325,67.9182 84.5898,67.0955C 84.5846,68.5742 89.6792,66.9182 91.4552,66.9022C 89.8406,69.8808 86.6899,73.6529 88.9084,76.0062C 90.0486,77.2142 93.4752,74.2569 95.3566,73.8089C 96.8191,73.4595 96.3979,75.1262 96.3566,76.8195C 96.314,78.6049 95.9752,80.7982 93.0378,81.6049C 91.4392,82.0435 90.4445,80.2101 89.1792,80.6009C 85.5178,81.7302 81.2565,90.7822 82.814,95.8395C 79.5435,97.7355 74.0851,97.6262 71.9338,96.2248C 70.3979,95.2302 73.9392,93.0009 74.3245,90.5169C 74.5325,89.1675 71.3979,88.5383 70.0806,88.7822C 68.7258,89.0275 67.0806,89.9955 66.4912,90.5955C 65.5125,91.5903 66.4806,95.3395 65.5646,96.3449C 63.283,98.8395 60.6006,98.2715 60.5485,96.4182C 60.4606,93.1622 63.2366,88.5475 65.3716,85.5383C 65.7151,85.0529 66.0232,87.0329 66.2565,86.8862C 67.4806,86.1262 68.7048,84.0635 69.6525,82.7195C 70.7517,81.1728 72.1792,77.8288 71.6992,76.7409C 71.4497,76.1675 68.6632,79.5849 68.8032,79.0169C 69.4548,76.4489 73.0646,71.7621 75.2517,69.9129C 78.7312,71.0169 81.3032,67.5742 83.0806,63.9343C 83.5592,62.9595 86.1472,62.1423 87.5592,62.2715C 87.783,62.2929 87.9138,62.3342 88.0232,62.3862C 88.1163,62.1369 87.9698,61.9809 87.4033,61.9235C 87.2258,61.9075 87.0325,61.8769 86.8245,61.8862 Z M 88.0232,62.3915C 87.7153,63.1889 84.8298,64.8715 84.4338,66.5955C 84.382,66.8195 84.4552,66.9809 84.5898,67.0955C 84.5898,67.0435 84.5752,67.0062 84.5898,66.9435C 85.0592,64.8915 89.0178,62.9129 88.0232,62.3915 Z M 173.179,62.8915C 172.179,62.8555 171.581,63.9075 171.595,64.9755C 171.622,66.6675 175.575,74.6675 178.737,75.7409C 173.466,79.0795 172.278,78.1475 164.532,79.3661C 169.559,79.0475 176.185,80.0688 180.663,75.4343C 176.685,73.5222 174.251,69.1009 173.023,65.0115C 172.565,63.4863 173.387,63.6475 174.294,63.3141C 173.882,63.0275 173.512,62.9022 173.179,62.8915 Z M 126.491,64.1262C 126.507,64.5329 126.554,64.8342 126.685,64.9755C 126.726,65.0222 126.756,65.0435 126.799,65.0901C 126.71,64.9382 126.616,64.7875 126.565,64.5901C 126.532,64.4489 126.507,64.2822 126.491,64.1262 Z M 135.595,64.2049C 135.423,64.1995 135.247,64.2049 135.095,64.2409C 132.559,64.8808 130.731,67.4289 128.961,67.3288C 128.205,66.5795 127.809,66.2049 127.455,65.8608C 128.918,67.5222 129.319,67.9648 130.773,67.4809C 132.961,66.7569 134.434,64.4809 136.95,64.5901C 137.095,64.5955 137.231,64.6209 137.371,64.6622C 136.803,64.4075 136.19,64.2195 135.595,64.2049 Z M 73.783,68.9863L 73.7472,69.0635L 74.5538,69.3715C 73.1272,70.9648 68.1113,75.7101 68.0747,79.4809C 68.0699,79.8195 68.1686,80.0115 68.3032,80.1369C 68.5699,80.3808 69.1525,79.8449 70.5073,78.4382C 70.5325,78.4129 70.8352,78.0742 70.8512,78.4022C 70.9138,79.4702 67.6992,84.2101 66.9548,85.0742C 66.5538,85.5475 66.4752,85.5329 66.3406,85.1529C 66.0125,84.2621 65.8979,83.8342 65.7205,83.8808C 65.3658,83.9702 62.8979,87.2515 61.0898,91.2515C 60.5178,92.5169 59.9698,94.0062 59.6216,95.3808C 59.3512,95.1622 58.7101,94.6209 58.4285,94.5329L 58.3512,94.7982C 58.7939,94.9902 59.1899,95.2101 59.7413,95.9955C 60.3512,92.3449 63.3566,86.5329 65.6418,84.1529C 65.9606,83.8195 66.3032,86.0222 66.6472,85.6569C 68.4659,83.6995 71.0851,79.3089 71.0073,78.2875C 70.9338,77.3449 69.1216,79.9435 68.5382,80.0222C 68.4392,80.0383 68.2048,79.9343 68.1899,79.7515C 67.9185,76.7875 71.6846,72.5169 74.7472,69.3769M 189.961,70.7248C 185.565,70.6315 179.975,74.1835 180.622,74.8503C 181.532,75.7875 186.461,70.2875 192.737,71.4543C 191.944,70.9702 190.975,70.7463 189.961,70.7248 Z M 190.581,71.7675C 196.174,72.6369 190.054,79.6315 198.023,78.5169C 191.444,77.9863 197.658,71.4435 190.581,71.7675 Z M 157.86,72.5742C 151.21,72.7929 144.699,75.8235 146.747,78.4382C 147.747,79.7142 152.174,81.0222 151.185,82.3769C 148.981,85.3862 143.502,85.7101 133.747,86.7355C 148.319,86.4182 149.341,85.5688 152.575,82.6049C 154.778,80.5795 148.95,79.4955 148.059,77.4343C 147.095,75.2049 155.866,72.3395 162.142,72.8808C 161.179,72.7049 160.185,72.6009 159.174,72.5742C 158.731,72.5635 158.303,72.5635 157.86,72.5742 Z M 159.481,73.3862C 159.174,73.3808 158.871,73.4075 158.554,73.4235C 157.032,73.5169 155.408,73.8503 154.231,74.4289C 157.242,74.0009 159.783,73.3395 161.101,74.5849C 161.778,75.2195 160.21,77.3395 160.408,78.5582C 160.783,80.9235 161.903,80.5169 172.559,79.9075C 162.898,79.5955 160.466,81.0849 162.799,75.2409C 163.283,74.0275 161.606,73.4129 159.481,73.3862 Z M 181.085,76.2768C 181.002,76.2768 180.934,76.3089 180.893,76.3555C 180.075,77.3342 186.595,81.5849 186.45,86.0795C 186.393,87.8449 186.47,87.9955 183.674,87.7409C 185.997,88.4755 187.918,88.7621 187.955,86.2355C 188.018,81.9863 182.351,76.3089 181.085,76.2768 Z M 214.461,82.6835C 216.538,85.8915 218.122,87.5688 219.866,92.4863C 217.226,94.4022 214.715,97.7049 214.923,100.548C 215.085,102.714 217.86,103.861 217.778,105.22C 217.674,107.006 214.773,109.653 212.841,110.157C 215.663,112.012 219.122,106.856 219.09,104.486C 219.081,103.309 216.846,102.834 216.273,100.548C 215.633,97.9809 219.72,93.8915 220.095,93.5688C 221.652,94.9235 223.923,109.528 225.418,103.058C 223.814,107.381 222.45,96.8769 220.595,93.3342C 221.45,92.8235 221.059,92.9863 221.83,92.2929C 221.715,92.0275 221.841,91.7768 221.444,91.3661C 220.502,92.0849 220.767,91.7929 220.247,92.2929C 219.043,88.2409 217.032,84.7768 214.461,82.6835 Z M 150.491,85.2715C 142.434,87.3449 140.169,87.2515 134.824,87.5475C 140.309,88.3503 144.408,87.2101 150.491,85.2715 Z M 130.622,87.0849C 130.101,87.0903 129.393,87.1209 128.418,87.1622C 130.767,87.1835 131.565,87.9595 131.585,87.9343C 134.185,90.2409 135.857,94.2621 135.71,97.6569C 135.585,100.653 134.57,102.517 129.809,101.205C 125.231,99.9435 119.86,101.637 120.819,106.99C 121.466,110.605 121.611,115.381 128.032,114.902C 124.07,114.954 121.72,110.162 122.018,106.069C 122.414,100.46 127.538,100.877 131.737,101.861C 134.018,102.397 136.127,102.668 137.335,97.5795C 137.789,95.6529 136.289,91.4435 132.47,87.1622C 132.065,87.1622 132.169,87.0688 130.622,87.0849 Z M 181.398,87.5062C 180.975,87.4955 180.606,87.5222 180.237,87.5475C 178.032,87.6889 176.762,88.5635 176.647,90.2822C 176.403,94.1889 179.737,101.028 184.523,99.8141C 179.751,97.6728 178.152,93.9182 178.346,89.8608C 178.434,88.1262 180.21,87.6942 182.747,87.6209C 182.273,87.5635 181.814,87.5169 181.398,87.5062 Z M 128.267,87.6262C 122.627,87.7515 114.398,91.2982 111.751,92.6369C 110.497,93.2768 115.991,96.7569 114.914,98.2715C 111.928,102.481 102.955,103.205 98.9392,102.132C 94.7046,100.996 102.663,95.3661 100.366,93.9489C 97.4497,92.1529 91.2512,93.5955 84.5486,96.4595C 85.2778,102.58 85.5592,103.558 84.1992,107.725C 83.7205,109.2 81.9445,112.965 77.8712,109.809C 75.6992,108.132 73.778,109.934 73.3191,113.246C 72.6899,117.798 73.5898,122.257 77.6792,118.684C 79.3032,117.268 81.8458,117.97 82.3086,119.304C 84.2472,124.913 85.8191,128.762 83.1938,133.694C 96.3298,130.153 101.414,132.381 103.299,133.116C 105.835,134.105 103.481,136.569 101.408,139.402C 104.466,136.225 105.986,134.006 103.72,132.574C 99.674,130.006 90.1111,131.329 84.0846,132.96C 86.1472,128.558 84.0325,122.429 82.6578,119.184C 81.8566,117.298 78.9497,116.637 77.4497,118.184C 73.0646,122.694 73.6326,115.705 74.0538,112.782C 74.314,110.944 75.5178,108.845 77.6006,110.314C 79.8245,111.877 81.9698,113.424 84.5846,108.381C 86.4552,104.777 86.2565,100.58 85.4338,96.4955C 92.0699,93.8915 96.814,92.6155 99.8658,94.6102C 101.231,95.5009 94.9392,99.7195 97.0846,101.746C 99.3926,103.929 111.444,103.214 114.95,99.0062C 117.215,96.2822 110.299,93.5742 112.324,92.5635C 116.262,90.6049 124.179,87.6009 130.502,87.8195C 129.824,87.6782 129.07,87.6049 128.267,87.6262 Z M 182.09,88.5903C 181.636,88.5955 181.19,88.6423 180.699,88.7409C 182.846,89.4702 183.72,89.6209 186.256,89.1675C 184.69,88.8969 183.444,88.5688 182.09,88.5903 Z M 70.4285,89.6675C 69.2939,89.6782 68.1272,89.9435 67.4548,90.5582C 66.2205,91.6889 67.1578,95.0062 66.1418,96.8089C 64.7151,99.3449 61.7882,99.7822 59.6632,97.5009C 58.9392,101.798 57.0898,110.564 55.7258,110.194L 55.8032,110.314C 57.1578,110.866 59.1686,102.61 59.8926,98.3503C 61.9966,100.59 65.4231,99.0635 66.8406,96.5742C 67.8406,94.8141 66.4698,91.5435 67.9185,90.7515C 69.5851,89.8342 73.9138,89.9489 72.7413,91.3661C 71.5851,92.7675 69.4806,95.0115 70.3872,97.0383C 71.4392,99.3915 79.314,99.5955 83.3926,97.2302C 83.7153,101.954 84.0592,107.648 81.0752,109.58C 79.5898,110.538 77.9084,107.648 76.0592,107.569C 72.0325,107.408 69.6899,119.304 74.5952,121.345C 76.3032,122.058 77.2472,119.454 80.1111,118.99C 81.6472,118.746 83.6111,129.954 81.9231,132.495C 79.2472,136.533 69.0125,133.752 67.1846,131.648C 66.2413,130.564 70.1525,127.804 68.9966,126.053C 67.0325,123.085 61.4446,122.028 59.7366,123.7C 57.6216,125.772 61.3658,130.132 59.6992,131.49C 58.6113,132.381 56.0898,130.918 55.1472,128.908C 55.3406,124.924 56.2048,111.648 54.2565,115.132C 54.2472,113.653 54.21,112.61 54.2993,111.657C 54.1686,112.902 54.1272,114.214 54.1418,115.673C 56.0646,112.21 54.9498,125.329 54.8352,129.372C 56.1006,131.814 58.7882,133.058 59.8926,132.148C 61.5806,130.757 57.9806,126.277 60.1216,124.162C 61.8512,122.454 65.7413,123.694 68.2258,126.132C 69.7517,127.621 65.9392,130.408 66.4912,131.762C 67.3245,133.829 79.2312,137.798 82.8512,132.653C 84.6365,130.105 82.4698,117.965 80.1472,118.528C 77.2939,119.22 76.3872,121.642 74.7101,120.804C 70.1578,118.533 72.9285,108.277 76.1365,108.34C 78.0073,108.381 79.8032,111.21 81.3032,110.23C 84.3245,108.262 84.1792,101.429 83.8512,96.6102C 79.3605,99.3089 71.4185,98.3235 70.8512,96.9955C 69.9606,94.9182 72.1899,92.6369 73.3566,91.2101C 74.1006,90.3089 72.314,89.6529 70.4285,89.6675 Z M 189.923,94.4543C 187.122,94.7515 184.127,98.1728 184.601,98.9289C 185.444,100.282 188.319,94.6728 191.043,94.5275C 190.851,94.4809 190.658,94.4595 190.466,94.4543C 190.278,94.4435 190.111,94.4343 189.923,94.4543 Z M 58.314,95.4543C 58.1365,95.4489 57.9858,95.5275 57.9231,95.7248C 57.7618,96.2569 59.6472,95.3715 59.0851,98.0795C 58.6113,100.35 57.8245,105.153 56.2672,108.153C 56.0747,108.517 55.7413,105.809 55.3767,105.949C 54.21,106.424 53.0898,116.022 53.8712,117.028C 53.8872,117.044 54.3191,116.116 54.4498,116.564C 55.1938,119.105 54.1792,120.444 54.2205,127.408C 54.0485,126.782 52.6632,123.934 52.5592,125.053C 52.5325,125.381 53.5806,127.501 54.3712,128.372C 54.278,124.569 55.5952,118.236 54.6418,115.829C 54.5232,115.522 54.0846,116.386 53.9498,116.522C 53.7832,113.506 53.9752,108.705 55.2205,106.569C 55.4659,106.153 55.7413,109.444 55.9912,109.074C 57.6792,106.61 58.6525,101.038 59.2726,98.0009C 59.606,96.4022 58.8298,95.4863 58.314,95.4543 Z M 190.658,95.4955C 190.518,95.5115 190.398,95.5795 190.309,95.6889C 190.215,95.7982 199.043,104.429 195.866,109.58C 192.871,114.429 179.669,115.126 178.543,116.101C 183.532,115.162 194.461,115.684 197.679,109.074C 199.944,104.429 192.747,95.2248 190.658,95.4955 Z M 126.835,102.017C 126.237,102.012 125.685,102.116 125.215,102.481C 127.116,102.356 131.767,104.413 135.133,102.824C 131.127,103.23 128.636,102.028 126.835,102.017 Z M 209.251,102.053C 204.903,102.162 198.346,106.793 199.377,107.954C 203.22,106.194 203.351,104.044 210.95,102.282C 210.444,102.09 209.877,102.038 209.251,102.053 Z M 210.486,103.173C 212.065,106.126 207.824,113.897 213.497,110.7C 209.242,111.49 213.616,103.924 210.486,103.173 Z M 175.185,107.496C 168.289,107.377 158.532,111.148 158.439,114.981C 158.382,117.356 166.299,118.46 163.106,120.845C 154.981,126.918 143.918,124.642 143.622,126.09C 148.554,126.121 158.324,126.741 165.231,120.538C 167.835,118.189 159.581,116.096 160.018,114.282C 160.841,110.934 172.032,107.361 177.923,107.804C 177.09,107.616 176.169,107.512 175.185,107.496 Z M 55.0325,107.84C 54.6632,109.044 54.4392,110.225 54.2993,111.506C 54.3872,110.61 54.6113,109.772 54.9552,108.653C 55.0485,109.012 55.174,109.449 55.3818,109.809C 55.1632,109.252 55.1418,108.268 55.0325,107.84 Z M 176.303,108.96C 175.049,108.949 173.251,109.2 171.251,109.268C 176.324,109.23 177.455,108.678 174.72,113.705C 172.559,117.684 179.054,117.272 180.699,117.178C 178.955,117.105 175.147,116.298 176.767,113.553C 179.007,109.746 178.387,108.976 176.303,108.96 Z M 135.247,109.538C 131.497,109.662 129.027,113.085 126.642,113.705C 129.049,115.148 132.382,109.262 138.065,110.044C 137.049,109.642 136.116,109.512 135.247,109.538 Z M 197.756,110.736C 194.002,112.324 198.747,126.965 203.116,124.048C 198.136,122.033 198.267,116.246 197.756,110.736 Z M 135.981,110.85C 135.893,110.861 135.794,110.866 135.71,110.892C 138.002,114.017 142.581,119.824 140.147,125.361C 133.762,125.23 118.199,128.918 115.07,131.339C 110.565,134.824 119.289,137.085 117.767,138.668C 114.918,141.637 106.559,142.252 101.408,140.366C 104.366,142.881 116.205,142.361 118.773,138.668C 120.205,136.61 112.205,134.725 114.955,132.189C 118.012,129.361 133.095,125.85 141.382,126.168C 141.502,125.788 142.049,125.381 142.423,124.434C 144.085,120.241 139.059,111.356 136.251,110.85C 136.158,110.834 136.075,110.845 135.981,110.85 Z M 208.83,117.064C 206.408,117.178 203.658,122.777 202.694,123.006C 205.543,124.506 207.101,117.424 209.83,117.408C 209.507,117.173 209.174,117.048 208.83,117.064 Z M 209.215,118.105C 208.622,119.856 212.512,120.965 210.527,128.173C 208.549,128.34 205.83,127.616 203.428,130.49C 202.674,131.386 200.059,141.918 204.237,145.96C 198.601,151.705 188.247,152.569 186.991,153.408C 186.205,155.001 199.47,152.372 204.351,147.157C 205.751,145.662 217.136,135.757 218.283,136.512C 218.928,136.934 216.303,143.782 216.893,144.881C 217.475,145.97 222.961,140.345 224.07,137.897C 222.122,140.725 218.346,144.7 218.127,143.762C 217.559,141.339 220.736,134.908 218.169,135.7C 215.601,136.49 207.507,142.694 205.627,144.725C 203.726,144.214 202.991,134.913 204.814,130.99C 206.122,128.189 211.377,130.298 212.147,127.944C 213.475,123.897 211.794,118.725 209.215,118.105 Z M 62.4806,123.934C 61.4138,123.902 60.4752,124.298 60.0485,125.434C 59.4752,126.976 62.1578,130.632 60.8191,132.11C 59.3566,133.73 57.4338,133.631 54.9966,130.684C 55.6632,132.162 58.6365,134.544 61.3245,132.268C 63.1365,130.725 59.7726,127.481 60.5125,125.434C 61.2993,123.268 64.4285,124.32 66.1846,125.746C 68.4497,127.58 64.9858,129.324 65.4497,131.418C 66.5851,136.527 78.0846,136.809 80.6111,136.126C 79.0592,141.476 80.1006,152.397 88.7939,149.047C 81.5435,151.512 79.5806,141.829 81.5806,135.47C 76.814,136.834 66.6472,135.616 66.0271,131.648C 65.5178,128.372 69.8086,127.512 65.8352,125.09C 64.7726,124.444 63.5435,123.96 62.4806,123.934 Z M 154.002,126.402C 153.45,126.47 152.081,126.689 151.027,126.746C 149.627,126.824 143.595,127.001 143.543,127.173C 143.434,127.544 149.101,127.058 150.491,127.017C 151.877,126.981 153.934,126.58 154.231,126.397C 154.283,126.372 154.185,126.377 154.002,126.402 Z M 136.866,127.058C 136.303,127.08 135.778,127.148 135.247,127.21C 137.283,127.282 138.554,127.142 139.377,127.402C 139.242,129.85 135.075,142.772 146.669,142.72C 137.966,140.678 140.418,132.929 140.767,127.21C 140.237,127.126 138.554,126.99 136.866,127.058 Z M 54.5325,129.99C 53.8191,132.746 54.3872,140.069 55.7672,141.72C 56.4659,142.553 56.5851,140.064 57.9231,141.913C 59.3406,143.856 60.4338,149.116 59.3926,151.752C 61.2565,149.637 59.8245,144.965 58.6992,142.22C 57.1326,138.402 55.6006,142.538 55.2258,140.058C 54.8352,137.486 53.9806,134.272 54.5325,129.99 Z M 99.2512,132.653C 98.5952,132.637 97.8872,132.662 97.0898,132.689C 100.674,133.006 101.616,133.121 101.601,134.386C 101.585,136.277 96.8352,139.486 99.2101,141.293C 101.351,142.918 101.961,142.309 107.428,142.99C 101.871,141.96 99.9912,141.757 100.174,139.788C 100.36,137.788 103.595,135.71 102.955,134.157C 102.486,133.033 101.205,132.7 99.2512,132.653 Z M 93.4606,132.689C 89.7046,132.752 85.918,133.184 83.0435,134.501C 81.4392,139.861 80.5073,146.908 85.5898,148.585C 88.2672,149.47 90.7205,145.772 93.3086,146.309C 97.6472,147.205 99.7726,153.777 97.1632,157.96C 100.767,155.356 98.9285,145.705 92.6899,145.616C 89.4752,145.569 86.9606,148.814 85.5125,148.044C 81.8191,146.085 82.3086,139.32 83.5073,134.772C 87.2046,133.402 89.1472,132.934 97.1632,132.725C 95.9606,132.689 94.7153,132.668 93.4606,132.689 Z M 227.928,135.735C 225.09,137.157 224.955,142.678 226.346,145.73C 225.461,142.746 225.45,137.824 227.928,135.735 Z M 156.507,136.585C 152.366,136.553 149.928,140.861 145.747,141.449C 149.512,143.413 153.065,136.689 158.398,136.897C 157.726,136.689 157.101,136.59 156.507,136.585 Z M 142.038,136.856C 141.679,136.995 141.86,138.366 142.737,139.443C 143.611,140.517 145.199,141.277 145.669,141.101C 145.882,141.022 144.575,140.157 143.663,139.096C 142.747,138.033 142.205,136.793 142.038,136.856 Z M 157.319,137.705C 157.142,137.752 157.023,137.902 156.97,138.131C 156.841,138.762 159.585,140.272 159.518,143.184C 159.481,144.881 160.726,149.044 155.893,148.47C 150.767,147.861 144.147,147.689 143.742,156.033C 143.601,158.929 142.799,161.053 145.09,164.329C 139.038,165.194 121.663,167.965 120.549,170.616C 119.283,173.631 125.799,174.522 125.065,175.596C 124.142,176.934 116.502,177.809 109.747,176.829C 111.012,179.235 123.71,179.11 126.877,175.824C 128.116,174.538 121.247,173.047 122.21,170.924C 123.439,168.225 144.408,165.09 147.751,165.173C 144.314,160.626 145.393,157.891 145.633,156.033C 146.289,150.856 147.611,148.558 153.658,149.162C 158.554,149.657 161.434,150.153 161.486,143.339C 161.512,140.558 158.731,137.772 157.512,137.705C 157.444,137.7 157.377,137.689 157.319,137.705 Z M 58.7366,145.73C 59.3872,149.642 59.3086,151.574 57.7726,148.585C 57.1938,147.47 56.0699,145.877 56.0747,147.585C 57.1686,146.47 58.6326,151.986 59.0851,150.476C 59.7312,148.309 59.1686,145.73 58.7366,145.73 Z M 185.871,145.768C 180.179,145.777 169.289,149.981 167.428,153.757C 166.382,155.881 174.038,157.408 171.981,158.929C 163.049,165.517 149.809,163.735 149.871,165.064C 153.136,165.512 167.914,164.616 174.027,158.501C 175.726,156.804 168.403,155.017 169.819,153.101C 172.377,149.642 182.997,146.033 188.803,146.465C 188.22,145.965 187.185,145.768 185.871,145.768 Z M 206.36,146.038C 204.278,147.96 208.699,153.408 205.857,156.918C 203.351,160.022 198.742,157.214 196.059,161.705C 194.179,164.845 193.049,170.995 198.335,170.23C 195.502,168.366 195.893,165.101 197.679,162.168C 200.319,157.824 204.47,161.178 207.054,157.304C 208.955,154.46 208.97,149.22 206.36,146.038 Z M 186.835,146.886C 186.674,146.913 186.532,147.038 186.45,147.314C 185.299,151.131 183.481,151.735 183.518,153.642C 183.543,154.814 184.242,155.058 186.762,154.642C 185.773,154.424 185.403,153.616 185.45,153.064C 185.575,151.429 187.127,149.877 187.877,148.085C 188.049,147.684 187.335,146.824 186.835,146.886 Z M 93.3458,147.08C 96.3406,151.429 96.7153,155.101 94.6938,157.153C 93.6472,158.22 88.1472,153.225 85.6686,155.377C 81.9659,158.59 83.8298,166.768 86.9033,169.73C 82.5325,170.142 75.5646,168.741 72.7048,165.449C 71.502,164.058 74.1686,162.798 73.0125,161.047C 71.4966,158.757 63.1846,155.11 62.674,157.033C 62.5898,157.356 62.6992,157.804 62.8658,158.268C 62.7939,158.001 62.8086,157.809 62.9446,157.689C 64.7101,156.085 70.3352,159.949 72.6686,161.391C 73.9033,162.162 71.2565,164.782 72.278,165.757C 75.6632,168.976 81.9752,171.381 88.3298,170.038C 85.1418,166.339 83.2886,159.824 86.0952,156.533C 87.8086,154.522 92.9858,159.001 95.6218,157.845C 98.7205,156.49 96.9445,147.73 93.3458,147.08 Z M 90.2993,148.356C 89.9698,148.522 89.6365,148.684 89.3352,148.82C 89.6472,148.689 89.9659,148.527 90.2993,148.356 Z M 56.8818,148.391C 56.2517,153.678 60.1632,162.116 64.7565,164.022C 67.9858,165.356 64.7258,161.694 63.3658,159.35C 64.4752,161.449 66.4446,163.877 65.6418,163.71C 61.1632,162.788 57.1365,155.137 56.8818,148.391 Z M 152.032,149.861C 151.549,149.877 151.215,149.934 151.226,150.012C 151.256,150.372 156.418,150.856 156.393,150.397C 156.371,150.038 153.481,149.814 152.032,149.861 Z M 87.2101,156.725C 85.2618,156.872 85.382,166.891 88.8298,169.46C 90.283,170.544 105.835,167.694 112.215,171.391C 108.002,166.768 92.9445,169.257 89.4497,168.725C 85.9497,168.2 85.5752,156.558 87.4033,156.768C 87.3352,156.752 87.2726,156.72 87.2101,156.725 Z M 64.6006,157.96C 61.7993,157.902 67.3032,163.345 66.8406,165.022C 68.4392,162.714 63.2726,159.277 64.6006,157.96 Z M 70.814,161.047C 71.9858,162.314 68.4285,164.361 72.5898,167.22C 69.408,163.648 74.3458,162.334 70.814,161.047 Z M 206.633,163.402C 203.538,163.339 200.773,167.601 198.486,169.96C 201.309,167.886 203.893,164.684 207.247,163.481C 207.038,163.434 206.835,163.408 206.633,163.402 Z M 205.934,164.443C 205.882,164.443 205.83,164.476 205.783,164.522C 204.674,165.569 207.174,170.126 204.658,174.053C 201.408,177.824 193.169,181.345 188.226,183.35C 191.726,183.205 200.95,178.585 203.581,175.943C 202.116,180.157 200.002,183.527 202.887,183.157C 200.497,182.424 203.939,177.334 204.893,174.71C 208.71,172.184 210.86,169.288 214.502,166.027C 212.247,167.684 208.455,171.824 206.205,172.934C 208.273,169.356 206.751,164.454 205.934,164.443 Z M 216.278,165.214C 210.726,175.443 214.491,170.746 218.669,165.449C 214.809,168.97 211.199,175.705 216.278,165.214 Z M 149.179,165.949C 148.715,166.101 148.205,166.918 148.408,167.184C 150.065,169.339 152.267,172.886 152.19,173.861C 151.647,180.413 147.393,178.027 142.966,177.564C 139.955,177.246 135.767,178.82 135.518,181.424C 135.147,185.309 138.554,188.377 140.846,187.71C 138.174,185.965 137.002,183.881 137.45,181.381C 138.09,177.804 144.824,178.304 147.559,178.798C 151.751,179.553 153.857,176.2 154.038,173.547C 154.158,171.856 151.95,168.976 149.606,166.064C 149.486,165.918 149.33,165.897 149.179,165.949 Z M 90.3352,170.694C 89.8512,171.257 95.3512,176.058 94.6938,180.574C 97.1163,177.564 90.7886,170.168 90.3352,170.694 Z M 107.857,170.73C 109.403,172.033 108.986,172.668 108.007,173.547C 105.585,175.725 105.486,176.668 109.475,177.872C 106.961,175.777 108.366,175.304 109.398,174.361C 111.19,172.72 111.043,170.918 107.857,170.73 Z M 88.7939,171.001C 88.4138,170.705 93.5752,177.47 92.2258,180.339C 91.3979,182.105 84.5325,176.241 82.8512,178.49C 82.0592,179.547 84.8245,184.225 87.4033,186.361C 84.6218,183.377 82.2672,179.782 83.5846,178.877C 85.6218,177.47 91.002,183.304 93.1525,181.153C 95.6111,178.689 90.4285,172.288 88.7939,171.001 Z M 209.136,176.752C 207.997,176.668 204.846,180.73 203.428,182.538C 205.049,180.788 208.142,177.438 208.518,177.522C 208.857,177.601 208.309,179.21 207.866,179.839C 205.414,183.324 201.611,184.705 199.45,187.553C 197.893,189.476 196.075,191.235 195.939,193.616C 196.237,191.913 198.408,189.402 199.799,187.866C 202.72,184.454 205.267,183.173 207.824,180.418C 208.877,179.282 209.742,177.148 209.33,176.829C 209.273,176.782 209.215,176.757 209.136,176.752 Z M 189.809,177.757C 183.851,177.834 171.299,183.668 171.903,185.705C 172.215,186.757 175.841,187.268 174.955,188.173C 171.081,192.101 158.377,192.908 157.163,193.96C 164.19,193.413 173.497,191.272 177.303,187.517C 178.081,186.757 173.194,185.866 173.756,184.97C 174.59,183.637 184.549,178.544 190.887,177.793C 190.554,177.746 190.205,177.752 189.809,177.757 Z M 189.69,178.605C 188.997,178.309 181.955,186.886 187.762,183.85C 185.346,183.538 191.199,179.252 189.69,178.605 Z M 84.2418,180.148C 85.5699,184.486 88.4231,188.105 92.1899,186.476C 94.3767,185.527 101.918,190.017 103.341,195.08C 103.116,190.772 96.2472,184.877 92.1111,185.782C 87.9033,186.7 88.1163,185.642 84.2418,180.148 Z M 75.3245,183.35C 74.5898,183.381 78.0271,185.902 79.7618,188.058C 80.0435,188.408 78.0806,186.965 77.5646,186.897C 78.0435,187.381 81.0125,189.173 80.6899,188.558C 79.9752,187.194 75.5178,184.006 76.2151,184.085C 77.5806,184.235 88.3458,189.553 85.6686,190.49C 89.3406,189.501 78.6578,184.506 75.9033,183.506C 75.6163,183.397 75.4338,183.345 75.3245,183.35 Z M 151.147,183.814C 148.018,184.064 145.012,186.157 142.002,187.168C 144.747,188.001 148.36,183.777 154.309,184.314C 153.242,183.886 152.19,183.73 151.147,183.814 Z M 152.382,185.277C 152.152,185.314 151.97,185.434 151.803,185.626C 153.414,187.189 155.059,188.272 155.351,190.913C 155.57,192.105 155.018,192.85 154.466,193.809C 155.111,194.142 155.418,193.872 156.085,193.881C 156.939,192.772 157.335,191.418 157.09,190.334C 156.633,188.356 153.955,185.047 152.382,185.277 Z M 95.7778,187.866C 103.871,196.757 104.294,199.538 85.8979,191.298C 98.9338,200.131 109.475,198.725 95.7778,187.866 Z M 84.5125,188.793C 84.4445,188.772 84.3926,188.798 84.3191,188.829C 83.8767,189.027 83.7939,190.329 84.8979,190.834C 85.1792,190.126 84.9606,188.908 84.5125,188.793 Z M 152.267,194.001C 145.273,194.324 133.627,196.924 130.194,198.126C 127.887,198.938 135.19,201.268 133.898,201.522C 128.835,202.522 126.611,202.418 120.97,201.834C 123.898,202.793 132.455,203.225 135.824,201.601C 137.481,200.804 130.408,199.152 131.851,198.631C 138.054,196.381 145.512,195.746 154.923,194.038C 154.152,193.981 153.262,193.954 152.267,194.001 Z M 194.247,194.886C 191.179,195.372 178.455,205.241 186.877,198.241C 176.475,206.157 192.767,195.001 194.747,194.924C 194.636,194.866 194.45,194.856 194.247,194.886 Z M 154.928,195.116C 152.616,195.22 152.398,197.673 152.418,199.402C 152.444,201.288 154.502,202.637 157.319,201.986C 155.371,201.184 154.439,200.902 154.309,198.938C 154.19,197.137 154.475,196.496 155.393,195.121C 155.215,195.105 155.081,195.11 154.928,195.116 Z M 106.002,196.391C 104.466,196.408 103.502,196.47 103.532,196.585C 103.699,197.199 116.887,196.454 123.518,199.096C 120.319,196.902 110.611,196.345 106.002,196.391 Z M 101.565,197.397C 101.507,197.391 101.434,197.408 101.371,197.434C 100.231,197.976 103.523,202.006 106.581,203.334C 103.027,200.877 102.423,197.434 101.565,197.397 Z M 103.226,197.741C 105.07,201.824 107.038,204.105 111.789,203.839C 114.955,203.663 118.955,204.173 121.319,206.58C 119.174,203.938 115.981,203.126 110.86,203.184C 107.335,203.22 104.549,200.085 103.226,197.741 Z M 168.237,197.741C 165.309,197.735 159.611,201.345 157.86,201.486C 160.251,202.438 164.023,198.506 169.278,197.976C 168.997,197.804 168.658,197.741 168.237,197.741 Z M 185.679,198.012C 182.455,198.601 174.256,201.381 171.674,203.954C 171.303,204.324 173.679,204.21 173.335,204.496C 170.294,206.981 160.147,208.044 157.934,209.547C 156.955,210.22 160.22,210.283 159.366,210.746C 157.049,212.001 150.581,211.506 148.559,213.252C 150.169,212.377 159.434,211.454 160.444,210.631C 161.133,210.069 157.887,209.596 158.903,209.277C 162.756,208.074 171.403,207.017 174.685,204.148C 175.33,203.58 171.595,204.121 173.408,203.142C 177.185,201.11 182.554,198.981 185.215,198.361C 185.923,198.194 183.111,200.006 182.398,200.908C 183.278,200.377 186.523,197.861 185.679,198.012 Z M 119.273,198.512C 121.335,199.981 115.319,201.262 120.122,202.408C 118.319,200.314 124.314,199.235 119.273,198.512 Z M 168.199,198.976C 167.789,198.949 167.299,199.064 166.773,199.324C 169.283,200.252 167.444,203.288 164.882,203.377C 162.303,203.465 160.231,203.262 157.898,204.418C 155.747,205.486 154.382,207.064 155.122,209.319C 150.794,209.902 142.434,211.09 139.491,211.746C 139.054,211.85 139.715,212.044 140.418,212.214C 140.142,212.027 140.486,211.762 140.803,211.673C 143.601,210.891 152.242,210.142 157.163,209.512C 156.742,208.476 156.205,207.288 157.59,205.809C 159.054,204.235 161.418,204.001 164.726,203.839C 166.606,203.746 168.486,202.804 169.512,201.137C 170.085,200.21 169.444,199.058 168.199,198.976 Z M 116.69,204.533C 117.809,205.391 119.658,207.157 118.658,207.194C 116.335,207.288 109.179,205.038 110.205,206.424C 114.147,211.741 126.606,210.481 133.242,211.866C 127.647,210.324 115.163,211.277 111.633,206.965C 109.882,204.814 119.371,208.934 120.199,207.544C 120.69,206.72 117.903,205.173 116.69,204.533 Z "/>
		<radialGradient id="SVGID_Stroke2_" cx="150.064" cy="130.048" r="83.5527" gradientUnits="userSpaceOnUse">
			<stop offset="0" stop-color="#1F1F1F" stop-opacity="1"/>
			<stop offset="1" stop-color="#000000" stop-opacity="1"/>
		</radialGradient>
		<path fill="#FFFFFF" fill-opacity="1" stroke-linejoin="round" stroke="url(#SVGID_Stroke2_)" d="M 175.726,46.9955C 174.366,47.4809 173.809,47.4595 173.179,48.1889C 173.565,48.6942 174.731,49.1675 175.341,49.5009C 180.032,52.0742 179.147,51.8089 177.147,53.6315C 180.871,51.8035 178.09,50.9702 175.455,49.5009C 174.242,48.8288 174.294,48.8342 173.408,48.1889C 174.018,47.7049 174.685,47.3808 175.726,46.9955 Z M 159.981,51.2768C 159.86,51.2768 159.918,51.3449 159.595,51.3915C 161.152,52.7875 166.065,59.5009 168.507,58.0275C 165.699,58.2101 162.622,53.6581 159.981,51.2768 Z M 188.455,52.9755C 189.049,53.7568 188.918,53.9755 188.647,54.2101C 190.065,54.3969 188.851,53.3195 188.455,52.9755 Z M 172.601,56.5635C 174.851,57.1942 176.497,58.3503 177.961,60.1155C 179.054,61.4343 179.893,62.9809 179.122,64.2049C 181.33,62.9915 179.647,61.3969 178.075,59.6475C 176.444,57.8395 174.616,56.9343 172.601,56.5635 Z M 171.751,56.8715C 171.007,57.5635 170.012,58.6782 170.283,58.9182C 170.986,59.5383 171.778,58.1675 171.751,56.8715 Z M 173.565,63.7768C 172.986,63.7715 173.549,66.3503 174.565,68.2929C 176.027,71.0795 178.19,73.7768 179.966,74.8503C 179.908,74.5742 180.038,74.3141 180.237,74.1155C 176.22,70.5009 176.647,69.6529 175.065,67.3661C 173.491,65.0901 174.434,64.1942 173.679,63.8141L 173.565,63.7768 Z M 204.742,65.8608C 205.147,67.0275 204.065,66.9595 203.273,67.0222C 207.799,71.4075 210.742,74.8862 211.07,76.7822C 210.778,74.0435 206.428,69.8661 203.97,67.2929C 205.247,67.1529 204.991,66.0795 204.742,65.8608 Z M 201.497,66.6728C 198.299,68.7875 197.382,69.6102 198.991,71.0688C 197.877,69.7355 199.387,68.2569 201.497,66.6728 Z M 192.814,71.6475C 195.975,72.9022 193.737,77.7195 196.251,77.2463C 194.502,76.2515 196.961,72.7101 192.814,71.6475 Z M 188.262,71.8808C 182.324,73.7463 179.497,77.5795 176.341,78.5955C 177.824,78.2049 179.679,77.1475 181.205,75.9343C 183.273,77.0795 185.023,78.8608 186.142,81.0635C 187.408,83.5529 189.497,86.9915 186.799,88.7049C 190.324,86.9915 189.267,84.3862 187.262,81.0275C 186.032,78.9755 184.054,77.0275 182.283,75.4289C 184.247,74.1155 185.841,73.1942 188.262,71.8808 Z M 200.032,71.9595C 203.444,74.2875 203.491,76.1102 200.377,78.1675C 204.955,75.5383 202.86,73.8915 200.032,71.9595 Z M 162.179,73.1942C 165.47,75.4955 159.871,79.0435 163.991,79.2875C 161.674,77.9022 167.335,74.2355 162.179,73.1942 Z M 131.507,73.3862C 129.09,80.7515 130.794,84.4755 133.283,87.4289C 135.393,89.9382 139.633,96.1102 136.101,101.012C 133.532,104.569 128.19,99.7355 124.444,102.21C 120.934,104.528 121.636,109.528 124.371,112.856C 128.961,118.449 134.237,108.012 137.527,111.044C 143.428,116.481 144.075,122.886 141.809,126.402C 140.882,127.845 140.179,133.09 140.69,136.241C 141.205,139.391 142.955,140.438 145.975,142.377C 149.575,144.673 153.497,139.22 157.283,137.705C 160.538,136.402 165.679,147.309 158.674,149.861C 166.366,150.845 164.106,135.684 157.319,137.012C 152.434,137.965 149.475,143.642 145.127,141.605C 139.893,139.148 140.715,131.621 141.851,127.137C 153.085,125.976 162.054,127.23 167.428,120.23C 169.199,117.929 159.939,115.329 161.991,113.71C 164.122,112.022 170.185,109.684 170.247,109.658C 166.226,110.372 164.486,110.501 160.986,113.553C 158.523,115.7 167.554,118.053 165.809,120.11C 160.803,126.022 151.314,126.658 143.081,126.132C 144.475,120.506 144.054,116.413 138.95,111.314C 134.841,107.205 129.136,116.293 126.142,113.668C 122.387,110.381 122.36,105.345 123.981,103.096C 126.647,99.4022 133.237,105.21 137.408,101.282C 140.871,98.0222 136.518,91.6995 134.633,87.5849C 136.961,87.2929 139.814,86.9863 142.616,86.5849C 139.163,86.9235 135.726,86.8661 133.663,86.9343C 131.231,82.2302 130.136,79.0009 131.507,73.3862 Z M 154.851,73.9289C 152.179,74.7675 152.262,74.4129 149.371,75.9702C 145.491,78.0582 154.606,79.6049 153.152,82.1475C 152.116,83.9489 150.054,85.0383 147.595,85.7355C 150.357,85.1529 152.685,84.4022 153.809,83.4595C 157.694,80.1835 146.012,77.5688 150.065,75.8555C 151.663,75.1782 152.507,74.7463 154.851,73.9289 Z M 147.595,85.7302C 146.07,86.0529 144.418,86.3342 142.737,86.5795C 144.408,86.4129 146.07,86.1622 147.595,85.7302 Z M 208.366,76.7409C 207.866,76.7409 209.502,80.2569 210.414,81.4129C 211.085,82.2715 212.981,84.7569 213.111,84.4235C 213.19,84.2195 211.398,82.1675 210.527,81.0275C 209.549,79.7409 208.627,76.7463 208.366,76.7409 Z M 214.387,82.8769C 214.481,85.1889 214.319,85.0529 213.923,85.6942C 215.007,86.2195 214.846,84.0383 214.387,82.8769 Z M 216.122,83.6889C 217.122,85.0329 218.023,86.5383 218.747,87.8915C 218.075,86.4022 217.273,85.1155 216.122,83.6889 Z M 218.747,87.9343C 219.257,89.0688 219.726,90.3195 220.251,91.8288C 220.518,91.7142 219.851,90.0009 218.747,87.9343 Z M 179.466,88.7822C 177.975,89.1369 178.393,96.0009 183.595,98.5435C 177.366,93.3661 181.319,89.3035 179.814,88.8195C 179.699,88.7822 179.565,88.7569 179.466,88.7822 Z M 220.986,93.4129C 221.549,95.2049 222.127,96.9489 222.565,98.5009C 223.012,100.096 223.934,104.101 224.997,103.402C 223.908,103.725 223.106,100.116 222.642,98.3089C 222.267,96.8449 221.731,95.3915 221.059,93.3715 Z M 220.095,93.9129C 219.257,94.6262 218.247,95.9129 218.09,96.1102C 216.538,98.0955 215.981,99.7101 216.778,101.246C 216.247,100.101 217.236,97.8715 218.127,96.6529C 219.032,95.4129 219.455,94.8555 220.095,93.9129 Z M 192.507,94.9182C 192.299,94.8769 192.174,94.9489 192.163,95.1835C 192.116,96.0383 198.794,101.626 198.294,107.996C 199.09,107.314 198.642,107.528 199.142,107.105C 199.538,101.61 193.966,95.1835 192.507,94.9182 Z M 189.497,95.8808C 188.652,95.9075 185.606,99.1369 186.101,99.3555C 186.59,99.5635 190.242,96.3969 189.652,95.9182C 189.616,95.8915 189.554,95.8769 189.497,95.8808 Z M 216.893,101.476C 217.075,101.772 217.257,102.069 217.549,102.361C 219.581,104.397 219.366,104.564 218.975,105.992C 218.674,107.11 217.871,108.298 216.736,109.465C 220.231,106.105 220.169,104.105 217.085,101.668C 217.012,101.61 216.944,101.544 216.893,101.476 Z M 211.606,102.752C 211.527,102.736 211.444,102.762 211.377,102.788C 210.966,102.938 212.423,103.189 212.185,106.028C 212.07,107.408 211.611,109.334 212.07,110.044C 212.387,109.908 212.111,109.82 212.455,109.886C 211.871,108.345 212.538,107.173 212.647,105.949C 212.835,103.897 212.158,102.84 211.606,102.752 Z M 208.095,103.252C 207.247,103.372 203.69,105.268 198.142,109.345C 197.898,118.386 200.335,123.252 202.194,122.658C 202.731,122.486 199.502,120.902 199.07,109.965C 206.455,104.096 208.36,103.72 208.289,103.288C 208.278,103.236 208.215,103.23 208.095,103.252 Z M 225.497,103.944C 225.335,104.006 225.043,104.506 225.226,104.793C 225.694,105.538 225.444,104.116 225.497,103.944 Z M 176.803,108.033C 175.256,108.137 173.486,108.648 172.136,109.001C 174.799,108.678 178.393,108.252 178.466,109.653C 178.559,111.626 175.756,114.653 176.997,115.752C 180.21,118.605 191.444,116.605 196.21,112.548C 196.194,112.309 196.59,111.486 196.366,111.429C 193.851,114.053 182.647,118.72 178.116,116.022C 176.428,115.017 180.851,111.564 180.163,109.58C 179.705,108.252 178.351,107.929 176.803,108.033 Z M 227.002,110.965C 226.975,111.022 226.981,111.137 226.966,111.277C 226.981,111.142 226.975,111.044 227.002,110.965 Z M 227.081,114.788C 227.147,115.714 227.21,116.558 227.236,116.949C 227.257,117.288 227.294,117.684 227.351,118.142C 227.299,117.694 227.289,117.277 227.273,116.949C 227.251,116.438 227.152,115.637 227.081,114.788 Z M 210.679,117.72C 210.512,118.225 212.606,121.053 212.726,123.856C 212.97,129.528 210.652,129.408 211.106,129.834C 211.565,130.262 213.83,128.101 213.69,123.892C 213.581,120.596 211.095,117.678 210.72,117.678 Z M 208.559,118.605C 207.043,119.981 205.736,121.82 204.47,123.429C 206.705,122.434 207.69,120.528 208.559,118.605 Z M 227.694,120.345C 227.835,121.064 227.991,121.71 228.158,122.158C 228.002,121.678 227.835,121.044 227.694,120.345 Z M 227.158,125.048C 226.133,127.506 224.928,129.225 223.991,131.918C 223.341,133.788 224.981,134.829 224.997,135.777C 225.002,136.214 224.882,136.725 224.647,137.277C 224.794,136.976 224.95,136.684 225.111,136.356C 225.45,135.653 224.549,134.7 224.147,133.345C 223.694,131.825 226.309,127.782 227.158,125.048 Z M 208.559,129.601C 207.71,129.626 206.887,129.752 206.898,129.913C 206.934,130.272 210.319,130.366 210.294,129.913C 210.283,129.668 209.408,129.58 208.559,129.601 Z M 206.319,130.028C 204.341,129.913 203.918,134.96 203.928,137.241C 203.939,139.924 204.366,144.012 205.59,144.574C 205.715,144.314 206.303,143.954 206.434,143.684C 204.69,142.23 205.095,139.544 204.893,137.434C 204.652,134.934 206.694,130.048 206.319,130.028 Z M 219.866,135.891C 219.22,136.044 219.773,137.533 219.169,139.438C 218.669,141.017 217.736,143.173 218.554,143.569C 218.486,142.2 219.346,140.533 219.747,138.902C 220.152,137.268 220.491,135.746 219.866,135.891 Z M 227.581,136.434C 226.283,137.47 225.532,141.601 226.309,144.189C 225.773,141.356 226.377,137.631 227.581,136.434 Z M 216.857,137.356C 213.423,139.678 209.466,142.601 206.398,145.501C 210.518,151.814 208.575,158.047 203.502,160.506C 210.794,158.047 210.767,148.148 207.554,145.038C 209.841,142.746 215.991,138.424 216.857,137.356 Z M 223.57,139.131C 223.215,139.642 222.799,140.2 222.179,140.943C 222.705,140.304 223.185,139.689 223.57,139.131 Z M 82.0378,145.809C 83.8767,148.97 85.7205,149.61 87.7512,149.126C 90.0646,148.569 92.382,146.309 93.9231,147.044C 96.7312,148.366 98.6111,154.038 96.5125,157.189C 94.3352,160.454 90.0178,155.334 86.7101,156.304C 83.4084,157.272 85.783,168.126 88.6418,170.153C 81.6272,171.725 75.2565,168.705 71.9698,165.872C 73.2726,169.856 83.5592,173.121 88.8352,170.694C 91.9858,173.668 95.5435,179.465 93.1578,181.304C 90.8605,183.069 85.1272,178.069 83.7046,179.413C 82.8658,180.205 86.7512,186.694 89.5699,187.517C 91.4912,188.08 93.3658,186.189 96.0486,188.481C 93.9392,185.845 92.7046,186.992 90.1472,187.017C 86.6525,187.047 83.2472,180.298 84.0125,179.569C 85.314,178.329 91.0699,184.443 93.9285,181.538C 96.2726,179.153 91.8406,173.72 89.7993,170.501C 97.5752,170.23 108.512,168.856 107.893,173.277C 108.778,172.443 108.814,171.772 107.47,170.538C 112.59,170.777 110.549,173.943 108.512,175.288C 107.127,176.194 109.674,177.981 110.789,178.372C 115.054,179.881 124.018,179.605 128.575,176.402C 129.86,175.501 122.19,172.038 123.251,171.386C 129.237,167.73 140.481,167.194 147.444,165.793C 141.158,166.372 129.049,167.506 122.636,170.965C 121.179,171.752 128.737,174.788 127.382,176.058C 125.428,177.886 120.081,178.829 115.652,178.678C 111.22,178.533 107.527,177.027 109.398,175.71C 119.133,168.825 100.33,169.481 89.4138,170.038C 85.6578,167.954 84.2312,157.569 86.7153,156.804C 89.7726,155.861 94.6272,160.934 97.3245,157.268C 99.6938,154.047 97.7472,147.658 93.4285,146.501C 91.502,145.992 89.3979,148.142 87.5232,148.705C 85.002,149.46 83.4858,147.547 82.0378,145.809 Z M 205.242,146.465C 201.309,151.268 194.585,153.434 191.081,154.142C 198.95,153.096 202.918,149.314 205.512,147.121C 205.595,146.214 205.403,146.616 205.242,146.465 Z M 187.918,146.772C 189.86,147.689 185.054,152.924 185.835,153.022C 186.554,153.121 191.251,147.684 187.918,146.772 Z M 183.247,147.621C 178.751,148.538 174.147,149.845 170.975,152.481C 167.636,155.268 177.169,156.293 174.491,158.735C 168.049,164.605 158.512,164.924 149.914,165.908C 152.773,169.547 155.136,171.934 153.809,175.943C 151.699,182.304 142.97,176.481 138.685,180.069C 136.147,182.194 138.19,186.377 141.423,187.246C 139.507,185.741 136.59,182.558 138.835,180.61C 142.824,177.153 152.622,182.241 155.122,176.522C 156.242,173.96 152.71,168.449 151.414,166.449C 160.065,165.825 169.636,163.834 175.918,158.309C 177.559,156.866 168.939,154.73 171.403,152.829C 175.278,149.845 181.486,148.085 183.247,147.621 Z M 149.408,150.012C 148.914,149.96 148.398,150.449 147.903,151.246C 148.351,150.746 148.841,150.325 149.408,150.012 Z M 147.83,151.366C 144.783,154.913 144.762,162.325 148.794,165.178C 145.012,161.381 146.101,154.309 147.83,151.366 Z M 199.799,160.547C 196.918,161.585 195.21,167.929 197.871,169.616C 198.309,168.044 196.408,164.924 199.799,160.547 Z M 207.289,163.981C 207.22,163.986 207.152,164.027 207.09,164.096C 206.303,165.033 208.767,168.225 206.512,172.662C 209.595,170.929 208.247,163.918 207.289,163.981 Z M 217.085,164.866C 216.882,164.757 215.07,168.757 213.997,170.501C 215.299,168.788 217.231,164.949 217.085,164.866 Z M 204.934,165.022C 202.908,166.424 200.934,168.72 198.835,170.194C 202.054,168.658 203.382,166.517 204.934,165.022 Z M 214.851,166.22C 211.679,168.886 208.507,172.517 205.007,174.782C 204.158,177.047 201.147,181.793 202.809,182.73C 202.185,181.522 203.975,177.21 205.314,174.938C 208.314,172.361 212.726,168.538 214.851,166.22 Z M 203.237,176.443C 198.991,179.908 195.57,181.424 188.846,183.97C 193.751,182.32 197.799,181.105 203.043,176.908C 203.127,176.668 203.09,176.746 203.237,176.443 Z M 209.679,176.522C 209.481,176.492 210.726,178.345 205.357,182.965C 209.294,180.339 210.997,176.735 209.679,176.522 Z M 190.731,178.105C 190.611,178.126 190.481,178.153 190.309,178.22C 191.997,178.053 188.179,181.772 187.491,183.35C 189.169,181.934 192.585,177.741 190.731,178.105 Z M 208.174,178.105C 207.428,178.402 203.595,182.495 203.622,182.58C 203.658,182.7 208.538,178.334 208.251,178.105L 208.174,178.105 Z M 188.767,178.757C 185.081,179.788 176.914,182.027 174.371,184.97C 173.72,185.73 178.636,186.59 177.694,187.517C 172.622,192.476 160.961,194.11 156.199,194.23C 154.742,196.913 153.346,200.834 157.205,201.522C 154.502,200.058 156.085,196.954 156.742,194.886C 160.043,194.23 173.97,192.881 178.731,187.288C 179.846,185.981 174.33,186.137 174.914,185.205C 176.357,182.897 184.018,180.397 188.767,178.757 Z M 153.538,184.777C 159.169,189.752 157.636,192.153 156.819,193.652C 158.012,193.058 158.023,193.064 159.018,192.495C 159.669,189.235 156.251,185.85 153.538,184.777 Z M 151.299,184.934C 148.101,185.162 145.961,187.673 141.575,188.21C 146.595,188.372 148.475,185.7 151.918,184.934C 151.694,184.929 151.512,184.918 151.299,184.934 Z M 202.038,185.934C 201.497,185.943 198.106,189.757 196.366,192.839C 198.783,189.121 202.199,186.304 202.116,186.012L 202.038,185.934 Z M 153.382,195.044C 146.267,195.684 137.324,197.038 132.199,198.71C 131.101,199.069 137.543,201.058 136.481,201.522C 133.127,203.001 127.127,203.408 122.518,202.527C 126.559,203.372 134.507,203.772 137.371,201.757C 138.299,201.101 131.59,199.064 132.742,198.746C 137.351,197.476 146.731,196.047 153.382,195.044 Z M 186.95,197.626C 186.851,197.512 182.986,200.596 183.095,200.829C 183.199,201.058 187.194,197.897 186.95,197.626 Z M 169.085,198.705C 168.841,198.71 168.575,198.71 168.278,198.746C 170.466,199.454 170.747,201.101 167.273,203.377C 165.866,204.298 160.773,203.699 158.247,205.381C 156.45,206.574 156.652,209.22 157.475,208.891C 158.038,208.668 157.251,206.943 158.705,205.768C 161.694,203.35 165.491,204.954 168.549,203.184C 170.636,201.97 172.778,198.668 169.085,198.705 Z M 121.283,198.746C 123.242,199.538 119.319,201.184 120.585,201.986C 120.627,201.372 125.07,200.038 121.283,198.746 Z M 166.737,198.746C 166.371,198.684 164.527,199.449 162.685,200.366C 161.581,200.913 160.081,201.648 159.21,201.714C 158.242,201.788 157.824,201.798 157.783,201.913C 158.393,202.309 161.742,201.246 163.877,200.214C 165.923,199.225 166.773,198.96 166.809,198.825C 166.824,198.777 166.783,198.757 166.737,198.746 Z M 183.866,198.938C 180.19,199.908 176.075,201.913 173.101,203.454C 172.324,203.856 175.163,203.476 174.799,204.069C 173.324,206.449 158.756,209.017 158.824,209.512C 158.86,209.772 160.538,209.938 160.674,210.361C 160.887,211.006 158.679,211.345 157.47,211.596C 159.152,211.699 162.116,210.413 161.215,210.205C 160.278,209.986 159.83,209.569 159.71,209.356C 159.45,208.902 172.627,206.819 175.762,203.992C 176.163,203.631 173.747,203.522 174.023,203.257C 175.043,202.309 183.273,199.225 183.866,198.938 Z M 120.627,202.101C 120.893,202.184 121.194,202.225 121.475,202.293C 121.174,202.21 120.83,202.116 120.627,202.022 Z M 118.273,204.996C 119.502,205.741 121.303,207.533 120.314,207.85C 117.95,208.61 113.726,206.538 111.866,206.501C 110.903,206.481 113.371,208.257 114.527,208.741C 113.871,208.413 111.751,206.777 112.289,206.809C 114.242,206.924 118.773,208.881 121.127,208.121C 122.581,207.652 120.174,205.918 118.273,204.996 Z M 148.174,210.705C 143.466,211.246 139.237,211.793 140.726,212.137C 140.549,211.772 144.19,211.21 148.174,210.705 Z M 121.86,210.897C 126.142,211.397 130.882,211.949 130.966,211.866C 130.877,211.73 126.075,211.325 121.86,210.897 Z M 133.205,212.173C 132.824,212.214 132.527,212.544 132.585,212.558C 132.803,212.61 133.789,212.361 133.59,212.252C 133.45,212.173 133.33,212.158 133.205,212.173 Z M 144.122,212.252C 145.038,212.725 143.538,212.97 141.152,213.101C 143.486,213.006 145.699,212.814 144.122,212.252 Z "/>
	</g>
	<path fill="#000000" fill-opacity="1" stroke-width="0.2" stroke-linejoin="round" d="M 230.569,110.796C 230.422,111.363 230.124,111.846 229.642,112.312C 229.136,112.768 228.67,112.971 228.186,112.964C 224.289,113.167 220.9,114.198 218.058,115.993C 215.179,117.784 211.898,121.28 208.153,126.409L 153.942,204.635C 153.509,205.326 152.707,205.699 151.49,205.665C 150.559,205.654 149.916,205.264 149.553,204.517L 136.396,162.943L 101.664,203.389C 101.003,204.097 100.167,204.441 99.2379,204.445C 98.0967,204.392 97.4152,204.024 97.2223,203.302L 75.6724,123.506C 74.2915,118.554 72.5115,115.05 70.2571,113.055C 67.9661,111.057 64.4524,109.763 59.7288,109.168C 59.3127,109.179 58.9943,108.978 58.6895,108.582C 58.4417,108.144 58.3356,107.731 58.4612,107.209C 58.7546,105.927 59.3108,105.279 60.1274,105.291C 63.6115,105.424 67.2062,105.648 70.9567,106.011C 74.4269,106.34 77.7158,106.586 80.8248,106.64C 83.9918,106.735 87.7487,106.67 92.1168,106.522C 96.72,106.32 100.739,106.267 104.191,106.385C 105.039,106.411 105.304,107.059 105.043,108.355C 104.764,109.603 104.36,110.253 103.844,110.232C 100.301,110.395 97.3928,111.108 95.0923,112.369C 92.7996,113.635 91.4011,115.365 90.9382,117.513C 90.6901,118.613 90.8032,119.987 91.262,121.669L 109.3,186.628L 134.368,156.573L 124.308,124.654C 122.48,118.969 120.75,115.273 119.122,113.62C 117.533,111.945 114.778,110.893 110.859,110.398C 110.49,110.39 110.171,110.189 109.929,109.821C 109.682,109.384 109.607,108.985 109.733,108.463C 110,107.156 110.499,106.549 111.24,106.58C 114.718,106.642 117.88,106.83 120.731,107.197C 123.474,107.569 126.406,107.758 129.578,107.842C 132.682,107.908 136.026,107.868 139.559,107.646C 143.218,107.482 146.784,107.436 150.257,107.51C 151.078,107.51 151.37,108.184 151.077,109.466C 150.799,110.714 150.394,111.364 149.879,111.342C 142.829,111.565 138.952,113.262 138.287,116.328C 137.955,117.713 138.321,119.825 139.287,122.751L 146.11,143.225L 161.388,125.016C 163.535,122.47 164.808,120.263 165.212,118.493C 166.141,114.293 163.146,111.957 156.249,111.536C 155.624,111.504 155.449,110.844 155.735,109.559C 155.833,109.118 156.103,108.676 156.513,108.284C 156.883,107.875 157.279,107.679 157.579,107.669C 160.074,107.751 163.093,107.94 166.681,108.323C 170.099,108.682 172.925,108.876 175.149,108.901C 176.767,108.957 179.147,108.893 182.301,108.766C 186.342,108.521 189.651,108.452 192.315,108.518C 192.933,108.546 193.124,109.106 192.876,110.206C 192.553,111.635 191.814,112.348 190.692,112.357C 186.544,112.607 183.078,113.494 180.27,115.049C 177.439,116.592 173.547,120.17 168.625,125.757L 148.26,149.746L 160.446,186.597L 200.963,125.731C 202.519,123.493 203.488,121.47 203.901,119.596C 204.882,115.097 201.951,112.642 195.052,112.205C 194.429,112.188 194.247,111.525 194.546,110.232C 194.839,108.951 195.427,108.317 196.39,108.342C 198.9,108.391 201.896,108.609 205.314,108.968C 208.478,109.318 211.136,109.543 213.316,109.602C 215.609,109.645 218.258,109.556 221.378,109.359C 224.521,109.174 227.354,109.101 229.872,109.154C 230.542,109.152 230.817,109.696 230.569,110.796 Z "/>
</svg>
