<?xml version="1.0" encoding="utf-8"?>
<!DOCTYPE svg PUBLIC "-//W3C//DTD SVG 1.1//EN" "http://www.w3.org/Graphics/SVG/1.1/DTD/svg11.dtd">
<svg x="0" y="0" width="48" height="48" overflow="hidden" viewBox="0, 0, 48, 48" preserveAspectRatio="xMidYMid"
     font-size="0" id="svg" xml:space="preserve" xmlns="http://www.w3.org/2000/svg"
     xmlns:xml="http://www.w3.org/XML/1998/namespace" version="1.1">
  <g stroke-width="4.660077" transform="matrix(0.2133619, 0, 0, 0.2158227, -2.82058, -3.523668)" id="g40" xml:space="preserve">
    <linearGradient x1="179.1328" y1="203.15" x2="379.1313" y2="203.15" gradientUnits="userSpaceOnUse" gradientTransform="matrix(4.686886, 0, 0, 4.63342, 13.2197, 16.32668)" id="SVGID_Fill1_" xml:space="preserve">
      <stop offset="0%" stop-color="#425E7E" stop-opacity="1" id="stop2" xml:space="preserve" />
      <stop offset="89.3501%" stop-color="#70ACF1" stop-opacity="1" id="stop4" xml:space="preserve" />
      <stop offset="100%" stop-color="#90C5F1" stop-opacity="1" id="stop6" xml:space="preserve" />
    </linearGradient>
    <path d="M116.201 25.4359 C171.43 25.4359 216.201 70.2064 216.201 125.435 C216.201 180.663 171.43 225.434 116.201 225.434 C60.97329 225.434 16.20169 180.663 16.20169 125.435 C16.20169 70.20639 60.97249 25.43589 116.201 25.43589 z" stroke-width="0.9320152" stroke-linejoin="round" id="path9" xml:space="preserve" connector-curvature="0" style="fill:url(#SVGID_Fill1_);" />
    <g stroke-width="4.660077" id="g38" xml:space="preserve">
      <radialGradient cx="93.8988" cy="83.28" r="68.6273" fx="93.8988" fy="83.28" gradientUnits="userSpaceOnUse" gradientTransform="matrix(4.686872, 0, 0, 4.633433, 13.2197, 16.32668)" id="SVGID_Fill2_" xml:space="preserve">
        <stop offset="12.5%" stop-color="#90F19D" stop-opacity="1" id="stop11" xml:space="preserve" />
        <stop offset="32.3276%" stop-color="#8CF186" stop-opacity="1" id="stop13" xml:space="preserve" />
        <stop offset="32.3276%" stop-color="#89F170" stop-opacity="1" id="stop15" xml:space="preserve" />
        <stop offset="50.431%" stop-color="#7EDF69" stop-opacity="1" id="stop17" xml:space="preserve" />
        <stop offset="100%" stop-color="#447E42" stop-opacity="1" id="stop19" xml:space="preserve" />
      </radialGradient>
      <path d="M51.7421 56.5643 L51.7421 59.0154 L50.2714 59.9958 L37.5264 59.5056 L26.7421 75.1918 L26.7421 78.62331 L31.1538 82.54481 L30.6636 86.95641 L32.6244 90.38791 L36.546 93.81921 L37.5264 110.486 L41.4479 114.898 L54.6832 130.094 L65.46751 137.937 L77.23221 141.858 L82.13421 144.309 L83.11451 135.976 L76.74201 131.074 L70.85961 129.113 L69.38911 123.231 L78.70281 123.231 L81.64401 128.623 L86.05571 132.545 L92.42831 134.996 L105.664 131.564 L107.624 126.172 L95.3694 126.172 L90.4675 119.309 L89.9773 114.407 L107.134 94.30941 L113.507 88.91721 L105.173 74.21141 L110.075 67.83891 L105.664 59.01541 L99.291 54.11351 L97.3302 48.72121 L100.271 43.32911 L104.683 38.42711 L106.644 48.23101 L114.487 50.68201 L117.918 55.58401 L120.369 68.32911 L124.291 74.21141 L127.232 77.64281 L134.095 72.74071 L136.056 69.30941 L153.212 70.28991 L154.683 74.21141 L161.056 68.32911 L158.605 63.91741 L152.722 62.44671 L148.801 59.01541 L148.31 53.13311 L152.232 50.68201 L153.212 33.03501 L145.86 27.15271 L139.487 25.19191 L128.213 25.19191 L122.33 28.13311 L118.409 32.05461 L113.507 31.56451 L110.075 26.17221 L108.115 22.74101 L101.252 22.25071 L97.33018 24.21141 L93.40858 27.15271 L84.09489 28.62331 L83.11449 31.07421 L84.58508 35.48611 L80.17339 36.46631 L78.21259 33.52531 L69.87929 32.54481 L67.42829 36.95651 L66.9381 42.83891 L66.9381 45.28991 L64.4871 46.76051 L60.0753 46.76051 L58.6048 41.36841 L55.6636 40.87821 L52.7224 44.30941 L47.8205 48.72121 L49.291 56.07421 z M76.382 46.0171 L72.95061 43.0759 L77.3624 44.0562 L81.7742 44.0562 L87.6565 44.5464 L88.1467 50.9189 L90.1075 52.3895 L93.5388 57.7817 L96.48 60.2328 L95.9898 66.1151 L91.5781 67.0955 L88.14671 65.13461 L86.18591 60.7229 L82.75451 55.3308 L77.36241 54.3503 L77.36241 51.8994 z M72.4604 80.8208 L74.9114 75.4287 L81.284 73.468 L86.1859 78.37 L85.2055 84.7426 L81.7742 89.6444 L75.8918 87.6836 L71.9702 83.2719 z" stroke="#006432" stroke-width="9.320153" stroke-linejoin="round" id="path22" xml:space="preserve" connector-curvature="0" style="fill:url(#SVGID_Fill2_);" />
      <radialGradient cx="103.588" cy="135.233" r="40.6863" fx="103.588" fy="135.233" gradientUnits="userSpaceOnUse" gradientTransform="matrix(4.686872, 0, 0, 4.633433, 13.2197, 16.32668)" id="SVGID_Fill3_" xml:space="preserve">
        <stop offset="0%" stop-color="#7EDF69" stop-opacity="1" id="stop24" xml:space="preserve" />
        <stop offset="100%" stop-color="#447E42" stop-opacity="1" id="stop26" xml:space="preserve" />
      </radialGradient>
      <path d="M99.9114 141.605 L91.5781 141.605 L85.6957 148.958 L83.2448 157.291 L82.7545 162.683 L93.5388 170.036 L98.931 173.958 L103.833 183.762 L93.0486 184.742 L92.0683 192.585 L91.5781 202.389 L94.0291 213.664 L95.9898 216.115 L112.656 220.036 L139.127 210.723 z" stroke="#006432" stroke-width="9.320153" stroke-linejoin="round" id="path29" xml:space="preserve" connector-curvature="0" style="fill:url(#SVGID_Fill3_);" />
      <radialGradient cx="149.543" cy="83.2719" r="24.1421" fx="149.543" fy="83.2719" gradientUnits="userSpaceOnUse" gradientTransform="matrix(4.686872, 0, 0, 4.633433, 13.2197, 16.32668)" id="SVGID_Fill4_" xml:space="preserve">
        <stop offset="0%" stop-color="#7EDF69" stop-opacity="1" id="stop31" xml:space="preserve" />
        <stop offset="100%" stop-color="#447E42" stop-opacity="1" id="stop33" xml:space="preserve" />
      </radialGradient>
      <path d="M159.225 87.0708 L159.715 81.1885 L165.107 77.5121 L167.558 78.9827 L179.323 92.21799 L176.627 80.9434 L175.156 77.75719 L177.117 73.83569 L181.774 69.91409 L186.676 63.78659 L185.941 59.1298 L189.127 56.18869 L193.784 57.90429 L204.568 72.85519 L194.764 86.8259 L179.813 95.6493 z" stroke="#006432" stroke-width="9.320153" stroke-linejoin="round" id="path36" xml:space="preserve" connector-curvature="0" style="fill:url(#SVGID_Fill4_);" />
    </g>
  </g>
  <g stroke-width="4.660077" transform="matrix(0.2133619, 0, 0, 0.2158227, -2.82058, -3.523668)" id="g48" xml:space="preserve">
    <path d="M33.6671 233.573 L33.6671 166.373 L58.2371 166.373 C65.767 166.373 71.5546 167.743 75.5995 170.483 C79.6446 173.223 81.6671 177.083 81.6671 182.063 C81.6671 185.673 80.437 188.831 77.9771 191.536 C75.517 194.241 72.37209 196.123 68.5421 197.183 L68.5421 197.378 C73.402 197.968 77.2845 199.736 80.1896 202.681 C83.0945 205.626 84.5471 209.213 84.5471 213.443 C84.5471 219.623 82.3271 224.523 77.88699 228.143 C73.44709 231.763 67.382 233.573 59.69199 233.573 z M49.027 177.893 L49.027 193.253 L55.522 193.253 C58.5721 193.253 60.972 192.523 62.722 191.063 C64.472 189.603 65.347 187.593 65.347 185.033 C65.347 180.273 61.7521 177.893 54.562 177.893 z M49.027 204.773 L49.027 222.053 L57.142 222.053 C60.6021 222.053 63.3146 221.261 65.2795 219.676 C67.24449 218.091 68.2271 215.928 68.2271 213.188 C68.2271 210.568 67.26199 208.511 65.3321 207.016 C63.402 205.521 60.7021 204.773 57.2321 204.773 z" stroke-width="0.9320152" stroke-linejoin="round" id="path42" xml:space="preserve" connector-curvature="0" style="fill:#000000;" />
    <path d="M171.907 233.573 L156.547 233.573 L156.547 193.358 C156.547 189.018 156.742 184.223 157.132 178.973 L156.757 178.973 C155.977 183.103 155.272 186.073 154.642 187.883 L138.892 233.573 L126.517 233.573 L110.482 188.348 C110.042 187.128 109.337 184.003 108.367 178.973 L107.947 178.973 C108.347 185.603 108.547 191.418 108.547 196.418 L108.547 233.573 L95.1071 233.573 L95.1071 166.373 L117.082 166.373 L130.807 206.213 C131.907 209.393 132.707 212.593 133.207 215.813 L133.492 215.813 C134.332 212.093 135.222 208.858 136.162 206.108 L149.887 166.373 L171.907 166.373 z" stroke-width="0.9320152" stroke-linejoin="round" id="path44" xml:space="preserve" connector-curvature="0" style="fill:#000000;" />
    <path d="M202.627 210.533 L202.627 233.573 L187.267 233.573 L187.267 166.373 L210.907 166.373 C227.787 166.373 236.227 173.528 236.227 187.838 C236.227 194.608 233.825 200.083 229.02 204.263 C224.215 208.443 217.797 210.533 209.767 210.533 z M202.627 177.893 L202.627 199.013 L208.327 199.013 C216.047 199.013 219.907 195.453 219.907 188.333 C219.907 181.373 216.047 177.893 208.327 177.893 z" stroke-width="0.9320152" stroke-linejoin="round" id="path46" xml:space="preserve" connector-curvature="0" style="fill:#000000;" />
  </g>
</svg>