<?xml version="1.0" encoding="utf-8"?>
<!DOCTYPE svg PUBLIC "-//W3C//DTD SVG 1.1//EN" "http://www.w3.org/Graphics/SVG/1.1/DTD/svg11.dtd">
<svg x="0" y="0" width="32" height="40.95809" overflow="hidden" viewBox="0, 0, 431.2143, 551.9286" preserveAspectRatio="xMidYMid" font-size="0" id="svg" xml:space="default" xmlns="http://www.w3.org/2000/svg" xmlns:xlink="http://www.w3.org/1999/xlink" xmlns:xml="http://www.w3.org/XML/1998/namespace" version="1.1">
  <defs id="def1" xml:space="default">
    <linearGradient x1="0%" y1="0%" x2="100%" y2="0%" gradientUnits="objectBoundingBox" id="linearGradient2822" xml:space="default">
      <stop offset="0%" stop-color="#FFFFFF" stop-opacity="1" id="stop2824" xml:space="default" />
      <stop offset="100%" stop-color="#B3AFE9" stop-opacity="1" id="stop2826" xml:space="default" />
    </linearGradient>
    <linearGradient x1="188.5714" y1="679.5051" x2="513.3571" y2="251.8622" gradientUnits="userSpaceOnUse" xlink:href="#linearGradient2822" id="linearGradient2828" xml:space="default" />
    <linearGradient x1="188.5714" y1="679.5051" x2="513.3571" y2="251.8622" gradientUnits="userSpaceOnUse" xlink:href="#linearGradient2822" id="linearGradient2916" xml:space="default" />
    <linearGradient x1="188.5714" y1="679.5051" x2="513.3571" y2="251.8622" gradientUnits="userSpaceOnUse" xlink:href="#linearGradient2822" id="linearGradient2843" xml:space="default" />
  </defs>
  <g transform="translate(-136.6429, -200.9336)" id="layer1" xml:space="default">
    <g id="g2894" xml:space="default">
      <path d="M137.1429 658.0765 L282.8571 752.3622 C282.8571 752.3622 417.0274 627.9546 434.2857 543.7908 C438.6019 522.7421 420.2802 502.4185 420 480.9336 C419.8734 471.222 422.3694 461.4805 425.7143 452.3622 C450.0854 385.9261 528.5714 266.6479 528.5714 266.6479 L491.4286 238.0765 C491.4286 238.0765 419.737 374.4591 362.8571 423.7907 C356.4219 429.372 348.4327 434.0146 340 435.2193 C318.9181 438.231 296.534 414.9875 277.1428 423.7907 C194.3036 461.3981 137.1428 658.0765 137.1428 658.0765 z" stroke="#800080" stroke-width="1px" id="path2816" xml:space="default" nodetypes="ccaaaccaaac" style="fill:#800080;" />
      <g transform="matrix(0.8827308, 0.4698791, -0.4698791, 0.8827308, 72.34158, -240.4493)" id="g2856" xml:space="default">
        <path d="M572.375 480.4063 C563.711 479.9354 552.7722 481.4966 549.0938 490.625 C542.4218 504.4256 550.6566 521.578 563.75 528.2188 C582.5998 538.2756 605.0959 537.9703 625.9688 536.6563 C630.0589 536.1597 635.7791 535.0562 635.8125 529.8438 C636.1096 524.3995 638.4187 518.5334 636.9688 513.2188 C634.9531 511.6723 638.6702 508.4305 638.0313 505.875 C638.3011 495.2621 626.8425 489.7078 618.5 486.1875 C606.4786 480.9132 593.3202 479.67 580.2813 480.375 C577.6458 480.379 575.0102 480.3571 572.375 480.4062 z" fill-rule="evenOdd" id="path2850" xml:space="default" style="fill:#803300;" />
        <path d="M547.0792 508.905 C547.0792 508.905 545.3414 527.1223 544.0634 535.5618 C539.232 595.9805 534.5581 656.4118 529.7813 716.8349 C544.0386 738.1932 570.5515 746.9389 595.1328 748.8662 C606.8519 749.0983 618.3206 746.3519 629.6943 743.8429 C635.2455 673.0349 639.9129 602.1493 644.6875 531.2827 C644.2286 531.0333 644.7269 529.5409 644.2631 529.428 C640.4811 530.655 634.7877 533.7679 630.7454 534.3835 C616.3729 537.6797 601.204 536.1476 586.7243 534.6626 C571.9552 532.616 554.1025 525.5015 549.4426 510.0732 C548.0106 509.1208 548.6478 507.2098 547.7806 508.0452 C547.6185 508.2013 547.0792 508.905 547.0792 508.905 z" fill-rule="evenOdd" id="path2848" xml:space="default" nodetypes="ccccccccccsc" style="fill:#FFB380;" />
        <path d="M547.5946 498.3907 C547.5946 498.3907 530.3301 716.9916 530.3301 716.9916 C530.3301 716.9916 538.6363 728.446 544.4722 732.1439 C559.4039 741.6051 577.3622 746.8611 594.9799 748.3063 C606.5126 749.2523 629.3251 743.2555 629.3251 743.2555 L644.4774 529.1031 C644.4774 529.1031 630.0247 535.9559 622.254 536.1742 C598.6205 536.8381 568.6594 536.6928 553.5637 518.4965 C547.0596 510.6566 545.5903 496.2697 551.5433 488.0038 C556.9763 480.46 568.7518 481.3761 577.8073 480.9327 C592.1274 480.2315 607.2077 482.0139 620.2337 488.0038 C626.7334 490.9926 634.7984 494.8794 636.692 501.7782 C638.1139 506.9586 635.3862 513.4416 631.3454 516.9813 C622.9578 524.3286 609.6471 525.3586 598.6021 523.8282 C587.2024 522.2488 573.2517 518.0805 568.0016 507.8391 C565.8293 503.6016 566.2051 496.5443 570.022 493.697 C577.3887 488.2017 588.6006 494.7617 597.2961 497.7376 C603.1444 499.7391 614.7523 500.7846 613.4585 506.829 C611.9016 514.1025 591.2351 508.8493 591.2351 508.8493" stroke="#000000" stroke-width="1px" id="path2842" xml:space="default" nodetypes="ccaaccaaaaaaaaaaaaa" style="fill:none;" />
        <path d="M637.0734 503.8494 L634.3759 533.1438" stroke="#000000" stroke-width="1px" id="path2844" xml:space="default" nodetypes="cc" style="fill:none;" />
      </g>
      <g display="inline" enable-background="accumulate" stroke="#000000" stroke-width="1.285691px" text-anchor="middle" font-family="Copperplate Gothic Bold" font-size="25.71383px" font-style="normal" font-weight="400" color="#000000" transform="matrix(0.5638773, -0.8258585, 0.8258585, 0.5638773, 0, 0)" id="text2862" xml:space="default" text-indent="0" text-align="center" line-height="normal" text-transform="none" block-progression="tb" font-stretch="normal" letter-spacing="normal" word-spacing="normal" direction="ltr" writing-mode="lr-tb" marker="none" overflow="visible" />
-inkscape-font-specification="'Copperplate Gothic Bold,'" style="fill:#000000;"&gt;
        <path d="M-408.303 564.0345 L-408.303 570.0738 L-404.687 570.0738 C-404.4359 570.0738 -404.2559 570.1219 -404.1471 570.2182 C-404.0383 570.3145 -403.9839 570.4421 -403.9839 570.6011 C-403.9839 570.7518 -404.0383 570.8774 -404.1471 570.9778 C-404.2559 571.0782 -404.4359 571.1285 -404.687 571.1285 L-410.7764 571.1285 C-411.0275 571.1285 -411.2075 571.0783 -411.3163 570.9778 C-411.4251 570.8773 -411.4795 570.7518 -411.4795 570.6011 C-411.4795 570.4421 -411.4251 570.3145 -411.3163 570.2182 C-411.2075 570.1219 -411.0275 570.0738 -410.7764 570.0738 L-409.3576 570.0738 L-409.3576 557.4931 L-410.7764 557.4931 C-411.0275 557.4931 -411.2075 557.445 -411.3163 557.3487 C-411.4251 557.2525 -411.4795 557.1248 -411.4795 556.9658 C-411.4795 556.8067 -411.4167 556.6728 -411.2912 556.564 C-411.1991 556.4803 -411.0275 556.4384 -410.7764 556.4384 L-399.1625 556.4384 L-399.1625 560.067 C-399.1625 560.3181 -399.2127 560.498 -399.3131 560.6069 C-399.4136 560.7157 -399.5392 560.7701 -399.6898 560.7701 C-399.8489 560.7701 -399.9786 560.7157 -400.079 560.6069 C-400.1795 560.498 -400.2297 560.3181 -400.2297 560.067 L-400.2297 557.493 L-408.3029 557.493 L-408.3029 562.9799 L-404.5237 562.9799 L-404.5237 561.787 C-404.5237 561.5359 -404.4735 561.356 -404.373 561.2471 C-404.2726 561.1383 -404.1429 561.0839 -403.9838 561.0839 C-403.8332 561.0839 -403.7076 561.1383 -403.6071 561.2471 C-403.5067 561.356 -403.4565 561.5359 -403.4565 561.787 L-403.4565 565.2273 C-403.4565 565.4784 -403.5067 565.6584 -403.6071 565.7672 C-403.7076 565.876 -403.8332 565.9304 -403.9838 565.9304 C-404.1429 565.9304 -404.2726 565.876 -404.373 565.7672 C-404.4735 565.6584 -404.5237 565.4785 -404.5237 565.2273 L-404.5237 564.0345 z" display="inline" enable-background="accumulate" stroke="#000000" font-family="Courier New" id="path2864" xml:space="default" marker="none" />
-inkscape-font-specification="Courier New" /&gt;
        <path d="M-384.4474 565.717 C-384.4474 567.3241 -385.0229 568.6968 -386.1738 569.8352 C-387.3247 570.9736 -388.7121 571.5428 -390.3359 571.5428 C-391.9766 571.5428 -393.3702 570.9715 -394.5169 569.829 C-395.6637 568.6864 -396.2371 567.3158 -396.2371 565.717 C-396.2371 564.1099 -395.6637 562.7351 -394.5169 561.5925 C-393.3702 560.45 -391.9765 559.8787 -390.3359 559.8787 C-388.7121 559.8787 -387.3247 560.4479 -386.1738 561.5862 C-385.0229 562.7246 -384.4474 564.1016 -384.4474 565.717 z M-385.5146 565.717 C-385.5146 564.3945 -385.9855 563.2687 -386.9271 562.3395 C-387.8688 561.4105 -389.0093 560.9459 -390.3485 560.9459 C-391.6878 560.9459 -392.8282 561.4125 -393.7699 562.3458 C-394.7116 563.2791 -395.1824 564.4028 -395.1824 565.717 C-395.1824 567.0228 -394.7116 568.1444 -393.7699 569.0819 C-392.8282 570.0194 -391.6878 570.4882 -390.3485 570.4882 C-389.0092 570.4882 -387.8688 570.0215 -386.9271 569.0882 C-385.9855 568.1549 -385.5146 567.0312 -385.5146 565.717 z" display="inline" enable-background="accumulate" stroke="#000000" font-family="Courier New" id="path2866" xml:space="default" marker="none" />
-inkscape-font-specification="Courier New" /&gt;
        <path d="M-376.1858 560.2553 L-376.1858 562.9171 C-374.8131 561.6783 -373.7856 560.881 -373.1034 560.5253 C-372.4212 560.1696 -371.7914 559.9916 -371.2138 559.9916 C-370.586 559.9916 -370.0022 560.203 -369.4623 560.6257 C-368.9225 561.0484 -368.6525 561.3685 -368.6525 561.5862 C-368.6525 561.7452 -368.7048 561.8771 -368.8094 561.9817 C-368.9141 562.0863 -369.0459 562.1386 -369.2049 562.1386 C-369.2886 562.1386 -369.3598 562.124 -369.4184 562.0947 C-369.477 562.0654 -369.5858 561.9713 -369.7448 561.8123 C-370.0378 561.5193 -370.2931 561.3184 -370.5107 561.2096 C-370.7284 561.1008 -370.9418 561.0464 -371.1511 561.0464 C-371.6115 561.0464 -372.166 561.2305 -372.8147 561.5988 C-373.4634 561.9671 -374.5871 562.8669 -376.1859 564.2983 L-376.1859 570.0739 L-371.5152 570.0739 C-371.2557 570.0739 -371.0715 570.1219 -370.9627 570.2183 C-370.8539 570.3146 -370.7995 570.4422 -370.7995 570.6012 C-370.7995 570.7519 -370.8539 570.8774 -370.9627 570.9778 C-371.0716 571.0783 -371.2557 571.1285 -371.5152 571.1285 L-379.7893 571.1285 C-380.0404 571.1285 -380.2204 571.0804 -380.3292 570.9841 C-380.438 570.8878 -380.4924 570.7644 -380.4924 570.6138 C-380.4924 570.4715 -380.4401 570.3522 -380.3354 570.2559 C-380.2308 570.1596 -380.0488 570.1115 -379.7893 570.1115 L-377.2405 570.1115 L-377.2405 561.3226 L-379.1866 561.3226 C-379.4377 561.3226 -379.6177 561.2725 -379.7265 561.1719 C-379.8353 561.0715 -379.8897 560.9418 -379.8897 560.7827 C-379.8897 560.6321 -379.8374 560.5065 -379.7327 560.4061 C-379.6281 560.3057 -379.446 560.2554 -379.1866 560.2554 z" display="inline" enable-background="accumulate" stroke="#000000" font-family="Courier New" id="path2868" xml:space="default" marker="none" />
-inkscape-font-specification="Courier New" /&gt;
        path d="M-353.7992 565.9429 L-364.5468 565.9429 C-364.3626 567.3073 -363.7914 568.4059 -362.8329 569.2388 C-361.8745 570.0717 -360.688 570.488 -359.2734 570.488 C-358.4866 570.488 -357.6621 570.3583 -356.8 570.0988 C-355.9378 569.8394 -355.2347 569.4962 -354.6906 569.0693 C-354.5316 568.9437 -354.3935 568.8809 -354.2763 568.8809 C-354.1424 568.8809 -354.0252 568.9332 -353.9247 569.0378 C-353.8243 569.1425 -353.7741 569.2659 -353.7741 569.4082 C-353.7741 569.5505 -353.8411 569.6886 -353.975 569.8226 C-354.3768 570.2411 -355.0903 570.6324 -356.1157 570.9965 C-357.1411 571.3607 -358.1937 571.5427 -359.2734 571.5427 C-361.0815 571.5427 -362.5902 570.9504 -363.7997 569.7661 C-365.0092 568.5817 -365.614 567.1482 -365.614 565.4658 C-365.614 563.934 -365.0469 562.6198 -363.9127 561.5233 C-362.7785 560.4268 -361.3744 559.8785 -359.7003 559.8785 C-357.976 559.8785 -356.5572 560.4415 -355.4439 561.5673 C-354.3307 562.6931 -353.7824 564.1516 -353.7992 565.9429 z M-354.8665 564.8757 C-355.0757 563.7123 -355.6261 562.7664 -356.5175 562.0381 C-357.409 561.3099 -358.4699 560.9458 -359.7003 560.9458 C-360.9308 560.9458 -361.9897 561.3057 -362.8769 562.0256 C-363.7642 562.7454 -364.3166 563.6955 -364.5343 564.8757 z" display="inline" enable-background="accumulate" stroke="#000000" font-family="Courier New" id="path2870" xml:space="default" marker="none" -inkscape-font-specification="Courier New" /&gt;
        <path d="M-339.6867 561.3225 L-339.6867 560.9709 C-339.6867 560.7115 -339.6365 560.5273 -339.5361 560.4185 C-339.4356 560.3097 -339.3101 560.2553 -339.1594 560.2553 C-339.0004 560.2553 -338.8706 560.3097 -338.7702 560.4185 C-338.6697 560.5273 -338.6195 560.7115 -338.6195 560.9709 L-338.6195 563.3565 C-338.6275 563.616 -338.6802 563.8002 -338.7765 563.9089 C-338.8728 564.0178 -339.0004 564.0721 -339.1594 564.0721 C-339.3017 564.0721 -339.421 564.024 -339.5172 563.9277 C-339.6136 563.8315 -339.67 563.6703 -339.6867 563.4443 C-339.7369 562.85 -340.1283 562.285 -340.8607 561.7493 C-341.5931 561.2136 -342.5787 560.9458 -343.8175 560.9457 C-345.3828 560.9457 -346.5714 561.4354 -347.3833 562.4147 C-348.1953 563.3941 -348.6012 564.5157 -348.6012 565.7796 C-348.6012 567.144 -348.1534 568.2698 -347.2578 569.157 C-346.3622 570.0443 -345.2029 570.4879 -343.7799 570.4879 C-342.9596 570.4879 -342.1247 570.3373 -341.2751 570.0359 C-340.4255 569.7346 -339.6575 569.2491 -338.9711 568.5795 C-338.7953 568.412 -338.6405 568.3284 -338.5065 568.3284 C-338.3643 568.3284 -338.245 568.3765 -338.1487 568.4728 C-338.0525 568.5691 -338.0043 568.6883 -338.0043 568.8306 C-338.0043 569.1906 -338.4271 569.6467 -339.2724 570.1992 C-340.6368 571.0948 -342.156 571.5426 -343.8301 571.5426 C-345.5293 571.5426 -346.925 571.0006 -348.0174 569.9166 C-349.1097 568.8326 -349.6559 567.4578 -349.6559 565.7921 C-349.6559 564.093 -349.0972 562.6825 -347.9797 561.5609 C-346.8623 560.4393 -345.454 559.8785 -343.7548 559.8785 C-342.1393 559.8785 -340.7833 560.3598 -339.6868 561.3224 z" display="inline" enable-background="accumulate" stroke="#000000" font-family="Courier New" id="path2872" xml:space="default" marker="none" />
-inkscape-font-specification="Courier New" /&gt;
        <path d="M-328.1356 555.3712 L-328.1356 570.0737 L-323.9923 570.0737 C-323.7328 570.0737 -323.5487 570.1218 -323.4398 570.2181 C-323.3311 570.3145 -323.2766 570.4421 -323.2766 570.6011 C-323.2766 570.7518 -323.3311 570.8773 -323.4398 570.9777 C-323.5487 571.0782 -323.7328 571.1284 -323.9923 571.1284 L-333.3336 571.1284 C-333.5847 571.1284 -333.7647 571.0782 -333.8735 570.9777 C-333.9823 570.8773 -334.0367 570.7517 -334.0367 570.6011 C-334.0367 570.442 -333.9823 570.3144 -333.8735 570.2181 C-333.7647 570.1218 -333.5847 570.0737 -333.3336 570.0737 L-329.1903 570.0737 L-329.1903 556.4384 L-332.2287 556.4384 C-332.4799 556.4384 -332.6619 556.3882 -332.7749 556.2877 C-332.8879 556.1873 -332.9444 556.0575 -332.9444 555.8984 C-332.9444 555.7478 -332.89 555.6223 -332.7812 555.5218 C-332.6724 555.4214 -332.4882 555.3712 -332.2287 555.3712 z" display="inline" enable-background="accumulate" stroke="#000000" font-family="Courier New" id="path2874" xml:space="default" marker="none" />
-inkscape-font-specification="Courier New" /&gt;
        <path d="M-307.3561 565.717 C-307.3562 567.3241 -307.9316 568.6968 -309.0825 569.8352 C-310.2335 570.9736 -311.6208 571.5428 -313.2447 571.5428 C-314.8853 571.5428 -316.279 570.9715 -317.4257 569.829 C-318.5724 568.6864 -319.1458 567.3158 -319.1458 565.717 C-319.1458 564.1099 -318.5724 562.7351 -317.4257 561.5925 C-316.279 560.45 -314.8853 559.8787 -313.2447 559.8787 C-311.6208 559.8787 -310.2335 560.4479 -309.0825 561.5862 C-307.9316 562.7246 -307.3561 564.1016 -307.3561 565.717 z M-308.4234 565.717 C-308.4234 564.3945 -308.8942 563.2687 -309.8359 562.3395 C-310.7776 561.4105 -311.918 560.9459 -313.2573 560.9459 C-314.5965 560.9459 -315.737 561.4125 -316.6786 562.3458 C-317.6203 563.2791 -318.0912 564.4028 -318.0912 565.717 C-318.0912 567.0228 -317.6203 568.1444 -316.6786 569.0819 C-315.737 570.0194 -314.5965 570.4882 -313.2573 570.4882 C-311.918 570.4882 -310.7776 570.0215 -309.8359 569.0882 C-308.8942 568.1549 -308.4234 567.0312 -308.4234 565.717 z" display="inline" enable-background="accumulate" stroke="#000000" font-family="Courier New" id="path2876" xml:space="default" marker="none" />
-inkscape-font-specification="Courier New" /&gt;
        <path d="M-294.3485 560.9459 C-294.3485 560.7031 -294.2983 560.5273 -294.1979 560.4185 C-294.0974 560.3097 -293.9719 560.2553 -293.8212 560.2553 C-293.6622 560.2553 -293.5325 560.3097 -293.432 560.4185 C-293.3316 560.5273 -293.2814 560.7115 -293.2813 560.9709 L-293.2813 562.7789 C-293.2813 563.03 -293.3315 563.21 -293.432 563.3188 C-293.5325 563.4277 -293.6622 563.4821 -293.8212 563.4821 C-293.9635 563.4821 -294.0828 563.436 -294.179 563.3439 C-294.2754 563.2518 -294.3318 563.1012 -294.3485 562.8919 C-294.3987 562.3897 -294.6583 561.9753 -295.127 561.6489 C-295.8134 561.1802 -296.7216 560.9458 -297.8515 560.9458 C-299.0318 560.9458 -299.9483 561.1844 -300.6012 561.6615 C-301.0951 562.0214 -301.342 562.4232 -301.342 562.8668 C-301.342 563.3691 -301.049 563.7876 -300.4631 564.1224 C-300.0613 564.3568 -299.2996 564.5367 -298.178 564.6622 C-296.7132 564.8213 -295.6962 565.0012 -295.127 565.2021 C-294.3151 565.4951 -293.7103 565.9011 -293.3127 566.42 C-292.9151 566.939 -292.7163 567.4998 -292.7163 568.1025 C-292.7163 568.9981 -293.1474 569.7954 -294.0095 570.4943 C-294.8717 571.1932 -296.1356 571.5427 -297.8013 571.5427 C-299.467 571.5427 -300.8314 571.12 -301.8944 570.2746 C-301.8944 570.5592 -301.9112 570.7433 -301.9446 570.827 C-301.9781 570.9107 -302.0388 570.9819 -302.1266 571.0405 C-302.2145 571.0991 -302.3129 571.1284 -302.4217 571.1284 C-302.5724 571.1284 -302.6979 571.074 -302.7984 570.9651 C-302.8988 570.8563 -302.9491 570.6764 -302.9491 570.4252 L-302.9491 568.2531 C-302.9491 568.002 -302.901 567.822 -302.8047 567.7132 C-302.7085 567.6044 -302.5808 567.55 -302.4218 567.55 C-302.2711 567.55 -302.1434 567.6023 -302.0388 567.7069 C-301.9342 567.8115 -301.8818 567.9517 -301.8818 568.1275 C-301.8818 568.5126 -301.7855 568.8348 -301.593 569.0943 C-301.3001 569.4961 -300.8334 569.8288 -300.1931 570.0925 C-299.5528 570.3561 -298.768 570.488 -297.8389 570.488 C-296.4662 570.488 -295.445 570.2327 -294.7754 569.7221 C-294.1057 569.2115 -293.7709 568.6716 -293.7709 568.1024 C-293.7709 567.4495 -294.11 566.9264 -294.7879 566.533 C-295.4743 566.1395 -296.4725 565.8759 -297.7824 565.7419 C-299.0924 565.608 -300.032 565.4323 -300.6012 565.2146 C-301.1703 564.997 -301.614 564.6705 -301.9321 564.2353 C-302.2502 563.8 -302.4092 563.3313 -302.4092 562.829 C-302.4092 561.925 -301.9655 561.2073 -301.0783 560.6758 C-300.191 560.1443 -299.1322 559.8785 -297.9017 559.8785 C-296.4453 559.8785 -295.2609 560.2343 -294.3485 560.9457 z" display="inline" enable-background="accumulate" stroke="#000000" font-family="Courier New" id="path2878" xml:space="default" marker="none" />
-inkscape-font-specification="Courier New" /&gt;
        <path d="M-278.8047 571.1284 L-278.8047 569.5841 C-280.2445 570.8899 -281.8014 571.5428 -283.4754 571.5428 C-284.505 571.5428 -285.2876 571.2624 -285.8233 570.7015 C-286.5181 569.965 -286.8654 569.107 -286.8654 568.1276 L-286.8654 561.3225 L-288.2842 561.3225 C-288.5353 561.3225 -288.7153 561.2723 -288.8241 561.1718 C-288.9329 561.0714 -288.9873 560.9417 -288.9873 560.7826 C-288.9873 560.632 -288.9329 560.5064 -288.8241 560.4059 C-288.7153 560.3055 -288.5353 560.2553 -288.2842 560.2553 L-285.8108 560.2553 L-285.8108 568.1276 C-285.8108 568.814 -285.5932 569.379 -285.1579 569.8226 C-284.7226 570.2662 -284.1786 570.4881 -283.5257 570.4881 C-281.8098 570.4881 -280.2361 569.7013 -278.8048 568.1276 L-278.8048 561.3225 L-280.7509 561.3225 C-281.002 561.3225 -281.182 561.2723 -281.2908 561.1718 C-281.3996 561.0714 -281.454 560.9417 -281.454 560.7826 C-281.454 560.632 -281.3996 560.5064 -281.2908 560.4059 C-281.182 560.3055 -281.002 560.2553 -280.7509 560.2553 L-277.7501 560.2553 L-277.7501 570.0738 L-276.8586 570.0738 C-276.6075 570.0738 -276.4276 570.1219 -276.3188 570.2182 C-276.21 570.3145 -276.1555 570.4421 -276.1555 570.6011 C-276.1555 570.7518 -276.21 570.8774 -276.3188 570.9778 C-276.4276 571.0782 -276.6075 571.1285 -276.8586 571.1285 z" display="inline" enable-background="accumulate" stroke="#000000" font-family="Courier New" id="path2880" xml:space="default" marker="none" />
-inkscape-font-specification="Courier New" /&gt;
        <path d="M-268.2581 560.2553 L-268.2581 562.9171 C-266.8853 561.6783 -265.8578 560.881 -265.1757 560.5253 C-264.4935 560.1696 -263.8636 559.9916 -263.286 559.9916 C-262.6583 559.9916 -262.0744 560.203 -261.5345 560.6257 C-260.9947 561.0484 -260.7247 561.3685 -260.7247 561.5862 C-260.7247 561.7452 -260.777 561.8771 -260.8817 561.9817 C-260.9863 562.0863 -261.1181 562.1386 -261.2772 562.1386 C-261.3609 562.1386 -261.432 562.124 -261.4906 562.0947 C-261.5492 562.0654 -261.658 561.9713 -261.817 561.8123 C-262.11 561.5193 -262.3653 561.3184 -262.5829 561.2096 C-262.8006 561.1008 -263.014 561.0464 -263.2233 561.0464 C-263.6837 561.0464 -264.2382 561.2305 -264.8869 561.5988 C-265.5356 561.9671 -266.6593 562.8669 -268.2581 564.2983 L-268.2581 570.0739 L-263.5874 570.0739 C-263.3279 570.0739 -263.1438 570.1219 -263.035 570.2183 C-262.9262 570.3146 -262.8718 570.4422 -262.8717 570.6012 C-262.8717 570.7519 -262.9261 570.8774 -263.035 570.9778 C-263.1438 571.0783 -263.3279 571.1285 -263.5874 571.1285 L-271.8615 571.1285 C-272.1126 571.1285 -272.2926 571.0804 -272.4014 570.9841 C-272.5102 570.8878 -272.5646 570.7644 -272.5646 570.6138 C-272.5646 570.4715 -272.5123 570.3522 -272.4077 570.2559 C-272.3031 570.1596 -272.121 570.1115 -271.8615 570.1115 L-269.3127 570.1115 L-269.3127 561.3226 L-271.2588 561.3226 C-271.5099 561.3226 -271.6899 561.2725 -271.7987 561.1719 C-271.9075 561.0715 -271.9619 560.9418 -271.9619 560.7827 C-271.9619 560.6321 -271.9096 560.5065 -271.805 560.4061 C-271.7003 560.3057 -271.5183 560.2554 -271.2588 560.2554 z" display="inline" enable-background="accumulate" stroke="#000000" font-family="Courier New" id="path2882" xml:space="default" marker="none" />
-inkscape-font-specification="Courier New" /&gt;
        <path d="M-245.8715 565.9429 L-256.619 565.9429 C-256.4349 567.3073 -255.8636 568.4059 -254.9052 569.2388 C-253.9468 570.0717 -252.7603 570.488 -251.3457 570.488 C-250.5589 570.488 -249.7344 570.3583 -248.8723 570.0988 C-248.0101 569.8394 -247.307 569.4962 -246.7629 569.0693 C-246.6039 568.9437 -246.4658 568.8809 -246.3486 568.8809 C-246.2147 568.8809 -246.0975 568.9332 -245.997 569.0378 C-245.8966 569.1425 -245.8464 569.2659 -245.8464 569.4082 C-245.8464 569.5505 -245.9134 569.6886 -246.0473 569.8226 C-246.4491 570.2411 -247.1626 570.6324 -248.188 570.9965 C-249.2134 571.3607 -250.266 571.5427 -251.3457 571.5427 C-253.1537 571.5427 -254.6625 570.9504 -255.872 569.7661 C-257.0815 568.5817 -257.6863 567.1482 -257.6863 565.4658 C-257.6863 563.934 -257.1192 562.6198 -255.985 561.5233 C-254.8508 560.4268 -253.4467 559.8785 -251.7726 559.8785 C-250.0483 559.8785 -248.6295 560.4415 -247.5163 561.5673 C-246.403 562.6931 -245.8548 564.1516 -245.8715 565.9429 z M-246.9387 564.8757 C-247.148 563.7123 -247.6983 562.7664 -248.5897 562.0381 C-249.4812 561.3099 -250.5421 560.9458 -251.7726 560.9458 C-253.003 560.9458 -254.0619 561.3057 -254.9491 562.0256 C-255.8364 562.7454 -256.3889 563.6955 -256.6065 564.8757 z" display="inline" enable-background="accumulate" stroke="#000000" font-family="Courier New" id="path2884" xml:space="default" marker="none" />
-inkscape-font-specification="Courier New" /&gt;
        <path d="M-348.2245 596.1642 L-355.218 596.1642 L-355.218 602.2161 L-353.7992 602.2161 C-353.5481 602.2161 -353.3682 602.2642 -353.2593 602.3605 C-353.1505 602.4568 -353.0961 602.5844 -353.0961 602.7434 C-353.0961 602.894 -353.1505 603.0197 -353.2593 603.1201 C-353.3682 603.2205 -353.5481 603.2708 -353.7992 603.2708 L-357.4655 603.2708 C-357.7166 603.2708 -357.8965 603.2206 -358.0053 603.1201 C-358.1141 603.0196 -358.1685 602.894 -358.1685 602.7434 C-358.1685 602.5844 -358.1141 602.4567 -358.0053 602.3605 C-357.8965 602.2642 -357.7166 602.2161 -357.4655 602.2161 L-356.2727 602.2161 L-356.2727 589.6354 L-356.9256 589.6354 C-357.1851 589.6354 -357.3692 589.5873 -357.478 589.491 C-357.5868 589.3948 -357.6412 589.2671 -357.6412 589.108 C-357.6412 588.949 -357.5868 588.8214 -357.478 588.7251 C-357.3692 588.6289 -357.185 588.5807 -356.9256 588.5807 L-353.7992 588.5807 C-353.5481 588.5807 -353.3682 588.6288 -353.2593 588.7251 C-353.1505 588.8214 -353.0961 588.949 -353.0961 589.108 C-353.0961 589.2671 -353.1505 589.3947 -353.2593 589.491 C-353.3682 589.5873 -353.5481 589.6354 -353.7992 589.6354 L-355.218 589.6354 L-355.218 595.1096 L-348.2245 595.1096 L-348.2245 589.6354 L-349.6308 589.6354 C-349.8819 589.6354 -350.0619 589.5873 -350.1707 589.491 C-350.2795 589.3948 -350.3339 589.2671 -350.3339 589.108 C-350.3339 588.949 -350.2816 588.8214 -350.1769 588.7251 C-350.0723 588.6289 -349.8902 588.5807 -349.6307 588.5807 L-346.5044 588.5807 C-346.2449 588.5807 -346.0608 588.6288 -345.9519 588.7251 C-345.8431 588.8214 -345.7887 588.949 -345.7887 589.108 C-345.7887 589.2671 -345.8431 589.3947 -345.9519 589.491 C-346.0608 589.5873 -346.2449 589.6354 -346.5044 589.6354 L-347.1573 589.6354 L-347.1573 602.2161 L-345.9645 602.2161 C-345.7134 602.2161 -345.5334 602.2642 -345.4246 602.3605 C-345.3158 602.4568 -345.2614 602.5844 -345.2614 602.7434 C-345.2614 602.894 -345.3158 603.0197 -345.4246 603.1201 C-345.5334 603.2205 -345.7134 603.2708 -345.9645 603.2708 L-349.6307 603.2708 C-349.8819 603.2708 -350.0618 603.2206 -350.1706 603.1201 C-350.2794 603.0196 -350.3339 602.894 -350.3338 602.7434 C-350.3338 602.5844 -350.2815 602.4567 -350.1769 602.3605 C-350.0722 602.2642 -349.8902 602.2161 -349.6307 602.2161 L-348.2245 602.2161 z" display="inline" enable-background="accumulate" stroke="#000000" font-family="Courier New" id="path2886" xml:space="default" marker="none" />
-inkscape-font-specification="Courier New" /&gt;
        <path d="M-330.6718 598.0853 L-341.4194 598.0853 C-341.2353 599.4496 -340.664 600.5482 -339.7056 601.3811 C-338.7472 602.214 -337.5607 602.6304 -336.1461 602.6304 C-335.3593 602.6304 -334.5348 602.5006 -333.6726 602.2411 C-332.8105 601.9817 -332.1074 601.6385 -331.5633 601.2116 C-331.4043 601.0861 -331.2661 601.0233 -331.149 601.0233 C-331.015 601.0233 -330.8979 601.0756 -330.7974 601.1802 C-330.697 601.2848 -330.6468 601.4083 -330.6467 601.5505 C-330.6468 601.6928 -330.7137 601.8309 -330.8476 601.9648 C-331.2494 602.3834 -331.963 602.7747 -332.9883 603.1388 C-334.0137 603.5029 -335.0663 603.6849 -336.1461 603.6849 C-337.9541 603.6849 -339.4628 603.0927 -340.6723 601.9083 C-341.8819 600.7239 -342.4866 599.2905 -342.4866 597.608 C-342.4866 596.0762 -341.9195 594.7621 -340.7853 593.6656 C-339.6511 592.5691 -338.247 592.0208 -336.5729 592.0208 C-334.8486 592.0208 -333.4298 592.5837 -332.3166 593.7095 C-331.2033 594.8353 -330.6551 596.2939 -330.6718 598.0851 z M-331.7391 597.0181 C-331.9483 595.8546 -332.4987 594.9088 -333.3901 594.1805 C-334.2816 593.4523 -335.3425 593.0881 -336.573 593.0881 C-337.8034 593.0881 -338.8623 593.4481 -339.7495 594.1679 C-340.6368 594.8878 -341.1892 595.8378 -341.4069 597.018 z" display="inline" enable-background="accumulate" stroke="#000000" font-family="Courier New" id="path2888" xml:space="default" marker="none" />
-inkscape-font-specification="Courier New" /&gt;
        <path d="M-320.4265 587.5134 L-320.4265 602.216 L-316.2831 602.216 C-316.0237 602.216 -315.8395 602.2641 -315.7307 602.3604 C-315.6219 602.4567 -315.5675 602.5844 -315.5675 602.7433 C-315.5675 602.894 -315.6219 603.0196 -315.7307 603.12 C-315.8395 603.2205 -316.0237 603.2707 -316.2831 603.2707 L-325.6245 603.2707 C-325.8756 603.2707 -326.0556 603.2205 -326.1644 603.12 C-326.2732 603.0195 -326.3276 602.894 -326.3276 602.7433 C-326.3276 602.5843 -326.2732 602.4567 -326.1644 602.3604 C-326.0556 602.2641 -325.8756 602.216 -325.6245 602.216 L-321.4811 602.216 L-321.4811 588.5806 L-324.5196 588.5806 C-324.7707 588.5806 -324.9528 588.5305 -325.0658 588.43 C-325.1788 588.3296 -325.2353 588.1998 -325.2353 588.0408 C-325.2353 587.8901 -325.1808 587.7646 -325.072 587.6641 C-324.9632 587.5637 -324.7791 587.5135 -324.5196 587.5134 z" display="inline" enable-background="accumulate" stroke="#000000" font-family="Courier New" id="path2890" xml:space="default" marker="none" />
-inkscape-font-specification="Courier New" /&gt;
        <path d="M-309.5157 592.3976 L-309.5157 594.3186 C-308.8879 593.5569 -308.2141 592.9835 -307.4942 592.5985 C-306.7744 592.2135 -305.9248 592.0209 -304.9455 592.0209 C-303.9075 592.0209 -302.9492 592.2637 -302.0702 592.7491 C-301.1913 593.2346 -300.5113 593.9105 -300.0299 594.7769 C-299.5486 595.6432 -299.308 596.5535 -299.308 597.5077 C-299.308 599.0227 -299.85 600.3181 -300.9339 601.3936 C-302.0179 602.4692 -303.3509 603.007 -304.9329 603.007 C-306.8162 603.007 -308.3438 602.2411 -309.5157 600.7094 L-309.5157 607.0625 L-306.9543 607.0625 C-306.7032 607.0625 -306.5233 607.1106 -306.4145 607.2069 C-306.3057 607.3032 -306.2513 607.4308 -306.2513 607.5898 C-306.2513 607.7405 -306.3057 607.8661 -306.4145 607.9665 C-306.5233 608.067 -306.7032 608.1171 -306.9543 608.1171 L-311.9891 608.1171 C-312.2402 608.1171 -312.4202 608.069 -312.529 607.9727 C-312.6378 607.8764 -312.6922 607.7488 -312.6922 607.5898 C-312.6922 607.4307 -312.6378 607.3031 -312.529 607.2068 C-312.4202 607.1105 -312.2402 607.0624 -311.9891 607.0624 L-310.5703 607.0624 L-310.5703 593.4647 L-311.9891 593.4647 C-312.2402 593.4647 -312.4202 593.4146 -312.529 593.3141 C-312.6378 593.2136 -312.6922 593.0839 -312.6922 592.9249 C-312.6922 592.7742 -312.6378 592.6487 -312.529 592.5482 C-312.4202 592.4478 -312.2402 592.3976 -311.9891 592.3975 z M-300.3752 597.5077 C-300.3752 596.294 -300.8168 595.254 -301.6998 594.3876 C-302.5829 593.5213 -303.6606 593.0881 -304.9329 593.0881 C-306.2136 593.0881 -307.2975 593.5234 -308.1848 594.3939 C-309.0721 595.2645 -309.5157 596.3024 -309.5157 597.5077 C-309.5157 598.7214 -309.0721 599.7635 -308.1848 600.634 C-307.2975 601.5046 -306.2136 601.9398 -304.9329 601.9398 C-303.669 601.9398 -302.5934 601.5067 -301.7061 600.6403 C-300.8189 599.774 -300.3752 598.7298 -300.3752 597.5077 z" display="inline" enable-background="accumulate" stroke="#000000" font-family="Courier New" id="path2892" xml:space="default" marker="none" />
-inkscape-font-specification="Courier New" /&gt;
      </g>
    <path d="M147.1429 653.7908 L281.4286 735.2194 C281.4286 735.2194 391.7489 626.4494 412.8571 555.2194 C420.3096 530.0709 406.9284 502.8258 408.5714 476.6479 C409.2384 466.0209 410.6792 455.2379 414.2857 445.2194 C437.0326 382.0309 512.8571 269.5051 512.8571 269.5051 L495.7143 252.3622 C495.7143 252.3622 428.1709 396.5054 364.2857 436.6479 C352.4204 444.1036 336.8607 444.3109 322.8571 443.7908 C311.085 443.3536 299.5298 430.8963 288.5714 435.2194 C207.8469 467.0653 147.1429 653.7908 147.1429 653.7908 z" opacity="0.6800003" id="path2818" xml:space="default" nodetypes="ccaaaccaaac" style="fill:url(#linearGradient2843);" />
    <path d="M491.0714 237.3622 L504.2857 200.9336 L567.8572 239.1479 L529.2858 266.2907 L491.0715 237.3622 z" id="path2830" xml:space="default" style="fill:#D3BC5F;" />
    <path d="M513.5714 223.6122 A2.321429 2.321429 0 1 1 508.9286 223.6122 A2.321429 2.321429 0 1 1 513.5714 223.6122 z" fill-rule="evenOdd" id="path2832" xml:space="default" ry="2.3214285" rx="2.3214285" cy="223.61218" cx="511.25" type="arc" style="fill:#FFFFFF;" />
    <path d="M537.5 236.1122 A3.214286 3.392857 0 1 1 531.0714 236.1122 A3.214286 3.392857 0 1 1 537.5 236.1122 z" fill-rule="evenOdd" id="path2834" xml:space="default" ry="3.3928571" rx="3.2142856" cy="236.11218" cx="534.28571" type="arc" style="fill:#FFFFFF;" />
    <path d="M521.4286 238.7908 A2.5 2.5 0 1 1 516.4286 238.7908 A2.5 2.5 0 1 1 521.4286 238.7908 z" fill-rule="evenOdd" id="path2836" xml:space="default" ry="2.5" rx="2.5" cy="238.79076" cx="518.92859" type="arc" style="fill:#FFFFFF;" />
    <path d="M510.3571 237.7193 A2.142857 2.142857 0 1 1 506.0714 237.7193 A2.142857 2.142857 0 1 1 510.3571 237.7193 z" fill-rule="evenOdd" id="path2838" xml:space="default" ry="2.1428571" rx="2.1428571" cy="237.71933" cx="508.21429" type="arc" style="fill:#FFFFFF;" />
    <path d="M526.7857 250.9336 A1.785714 1.785714 0 1 1 523.2143 250.9336 A1.785714 1.785714 0 1 1 526.7857 250.9336 z" fill-rule="evenOdd" id="path2840" xml:space="default" ry="1.7857143" rx="1.7857143" cy="250.93361" cx="525" type="arc" style="fill:#FFFFFF;" />
  </g>
</svg>