<?xml version="1.0" encoding="utf-8"?>
<!DOCTYPE svg PUBLIC "-//W3C//DTD SVG 1.1//EN" "http://www.w3.org/Graphics/SVG/1.1/DTD/svg11.dtd">
<svg xmlns="http://www.w3.org/2000/svg" xmlns:xlink="http://www.w3.org/1999/xlink" version="1.1" baseProfile="full" width="250" height="250" viewBox="0 0 250.00 250.00" enable-background="new 0 0 250.00 250.00" xml:space="preserve">
	<g>
		<linearGradient id="SVGID_Stroke1_" gradientUnits="objectBoundingBox" x1="0.950842" y1="0.966174" x2="2.24788" y2="0.966174" gradientTransform="rotate(262.941406 0.950842 0.966174)">
			<stop offset="0" stop-color="#1F2D27" stop-opacity="1"/>
			<stop offset="0.665116" stop-color="#B2CEBF" stop-opacity="1"/>
			<stop offset="0.990698" stop-color="#FFFFFF" stop-opacity="1"/>
		</linearGradient>
		<linearGradient id="SVGID_Fill1_" gradientUnits="objectBoundingBox" x1="0.978099" y1="1.01447" x2="2.38274" y2="1.01447" gradientTransform="rotate(262.657318 0.978099 1.014467)">
			<stop offset="0" stop-color="#4C5E56" stop-opacity="1"/>
			<stop offset="0.665116" stop-color="#D0D9D4" stop-opacity="1"/>
			<stop offset="0.990698" stop-color="#FFFFFF" stop-opacity="1"/>
		</linearGradient>
		<path fill="url(#SVGID_Fill1_)" stroke-width="9" stroke-linejoin="round" stroke="url(#SVGID_Stroke1_)" d="M 163.034,36.1123C 203.631,49.0354 231.325,75.894 224.892,96.1033C 218.459,116.313 180.334,122.219 139.738,109.296C 99.1416,96.3732 71.4468,69.5143 77.8801,49.3052C 84.3132,29.0958 122.438,23.1892 163.034,36.1123 Z "/>
		<line fill="none" stroke-width="3" stroke-linejoin="round" stroke="#72A18C" stroke-opacity="1" x1="98.96" y1="84.413" x2="158.895" y2="42.863"/>
		<line fill="none" stroke-width="3" stroke-linejoin="round" stroke="#466C5B" stroke-opacity="1" x1="173.419" y1="50.2113" x2="217.542" y2="99.8506"/>
		<path fill="none" stroke-width="3" stroke-linejoin="round" stroke="#6D9A86" stroke-opacity="1" d="M 164.594,49.1158L 141.429,86.621L 184.45,89.3787"/>
		<linearGradient id="SVGID_Stroke2_" gradientUnits="objectBoundingBox" x1="1.04388" y1="0.862246" x2="2.35084" y2="0.862246" gradientTransform="rotate(239.618332 1.043879 0.862246)">
			<stop offset="0" stop-color="#3A4941" stop-opacity="1"/>
			<stop offset="0.665116" stop-color="#769685" stop-opacity="1"/>
			<stop offset="0.990698" stop-color="#D2D5D4" stop-opacity="1"/>
		</linearGradient>
		<linearGradient id="SVGID_Fill2_" gradientUnits="objectBoundingBox" x1="1.12841" y1="0.943648" x2="2.6669" y2="0.943648" gradientTransform="rotate(238.142120 1.128410 0.943648)">
			<stop offset="0" stop-color="#1F2D27" stop-opacity="1"/>
			<stop offset="0.665116" stop-color="#B2CEBF" stop-opacity="1"/>
			<stop offset="0.990698" stop-color="#FFFFFF" stop-opacity="1"/>
		</linearGradient>
		<path fill="url(#SVGID_Fill2_)" stroke-width="3" stroke-linejoin="round" stroke="url(#SVGID_Stroke2_)" d="M 169.365,39.6573C 174.542,41.8835 177.714,46.0704 176.451,49.0085C 175.188,51.9468 169.966,52.5239 164.79,50.2977C 159.613,48.0715 156.44,43.8849 157.704,40.9465C 158.967,38.0084 164.188,37.4312 169.365,39.6573 Z "/>
		<linearGradient id="SVGID_Stroke3_" gradientUnits="objectBoundingBox" x1="0.499999" y1="0.0128281" x2="1.47436" y2="0.0128281" gradientTransform="rotate(90.000000 0.499999 0.012828)">
			<stop offset="0" stop-color="#070707" stop-opacity="1"/>
			<stop offset="0.990698" stop-color="#2C312F" stop-opacity="1"/>
		</linearGradient>
		<path fill="none" stroke-width="15" stroke-linecap="round" stroke-linejoin="round" stroke="url(#SVGID_Stroke3_)" d="M 98.2246,174.867L 126.845,123.389L 168.823,174.867"/>
		<linearGradient id="SVGID_Stroke4_" gradientUnits="objectBoundingBox" x1="0.5" y1="0.21148" x2="1.07705" y2="0.21148" gradientTransform="rotate(90.000000 0.500000 0.211480)">
			<stop offset="0" stop-color="#070707" stop-opacity="1"/>
			<stop offset="0.990698" stop-color="#2C312F" stop-opacity="1"/>
		</linearGradient>
		<path fill="none" stroke-width="15" stroke-linecap="round" stroke-linejoin="round" stroke="url(#SVGID_Stroke4_)" d="M 151.173,118.977L 127.559,120.652L 126.17,179.279"/>
		<linearGradient id="SVGID_Stroke5_" gradientUnits="objectBoundingBox" x1="0.0360857" y1="0.5" x2="0.963903" y2="0.5">
			<stop offset="0" stop-color="#070707" stop-opacity="1"/>
			<stop offset="0.990698" stop-color="#2C312F" stop-opacity="1"/>
		</linearGradient>
		<path fill="none" stroke-width="12" stroke-linejoin="round" stroke="url(#SVGID_Stroke5_)" d="M 126.905,108.683L 114.771,119.714L 139.039,131.848L 146.761,116.405"/>
		<linearGradient id="SVGID_Stroke6_" gradientUnits="objectBoundingBox" x1="0.0556249" y1="0.5" x2="0.944392" y2="0.5">
			<stop offset="0" stop-color="#070707" stop-opacity="1"/>
			<stop offset="0.990698" stop-color="#2C312F" stop-opacity="1"/>
		</linearGradient>
		<line fill="none" stroke-width="12" stroke-linejoin="round" stroke="url(#SVGID_Stroke6_)" x1="126.905" y1="111.992" x2="143.451" y2="120.817"/>
	</g>
	<g>
		<linearGradient id="SVGID_Fill3_" gradientUnits="objectBoundingBox" x1="0" y1="0.500002" x2="0.999994" y2="0.500002">
			<stop offset="0.0186047" stop-color="#E3D191" stop-opacity="1"/>
			<stop offset="0.55814" stop-color="#E2AF00" stop-opacity="1"/>
			<stop offset="0.787252" stop-color="#AB7800" stop-opacity="1"/>
			<stop offset="1" stop-color="#744100" stop-opacity="1"/>
		</linearGradient>
		<path fill="url(#SVGID_Fill3_)" stroke-width="0.2" stroke-linejoin="round" d="M 81.6899,95.2207L 81.6899,95.2207C 92.8159,95.2207 101.835,104.24 101.835,115.366L 101.835,205.075C 101.835,216.201 92.8159,225.221 81.6899,225.221L 81.6899,225.221C 70.564,225.221 61.5444,216.201 61.5444,205.075L 61.5444,115.366C 61.5444,104.24 70.564,95.2207 81.6899,95.2207 Z "/>
		<linearGradient id="SVGID_Stroke7_" gradientUnits="objectBoundingBox" x1="0.144773" y1="0.387827" x2="1.07226" y2="0.387827" gradientTransform="rotate(16.067101 0.144773 0.387827)">
			<stop offset="0.0186047" stop-color="#CEBE83" stop-opacity="1"/>
			<stop offset="0.55814" stop-color="#C79C07" stop-opacity="1"/>
			<stop offset="0.787252" stop-color="#8F6604" stop-opacity="1"/>
			<stop offset="1" stop-color="#573101" stop-opacity="1"/>
		</linearGradient>
		<linearGradient id="SVGID_Fill4_" gradientUnits="objectBoundingBox" x1="0.118729" y1="0.370583" x2="1.11873" y2="0.370583" gradientTransform="rotate(15.000444 0.118729 0.370583)">
			<stop offset="0.0186047" stop-color="#E3D191" stop-opacity="1"/>
			<stop offset="0.55814" stop-color="#E2AF00" stop-opacity="1"/>
			<stop offset="0.787252" stop-color="#AB7800" stop-opacity="1"/>
			<stop offset="1" stop-color="#744100" stop-opacity="1"/>
		</linearGradient>
		<path fill="url(#SVGID_Fill4_)" stroke-width="3" stroke-linejoin="round" stroke="url(#SVGID_Stroke7_)" d="M 82,95.2207C 93.2991,95.2207 102.46,99.5897 102.46,104.979C 102.46,110.368 93.2998,114.737 82,114.737C 70.7002,114.737 61.54,110.368 61.54,104.979C 61.54,99.5897 70.7007,95.2207 82,95.2207 Z "/>
		<linearGradient id="SVGID_Stroke8_" gradientUnits="objectBoundingBox" x1="0.00804127" y1="0.499999" x2="0.991959" y2="0.499999">
			<stop offset="0.0186047" stop-color="#D7B77E" stop-opacity="1"/>
			<stop offset="0.55814" stop-color="#D4B780" stop-opacity="1"/>
			<stop offset="0.787252" stop-color="#D7BC89" stop-opacity="1"/>
			<stop offset="1" stop-color="#DBC292" stop-opacity="1"/>
		</linearGradient>
		<linearGradient id="SVGID_Fill5_" gradientUnits="objectBoundingBox" x1="-0.0142861" y1="0.499999" x2="1.01429" y2="0.499999">
			<stop offset="0.0186047" stop-color="#D7B77E" stop-opacity="1"/>
			<stop offset="0.55814" stop-color="#D4B780" stop-opacity="1"/>
			<stop offset="0.787252" stop-color="#D7BC89" stop-opacity="1"/>
			<stop offset="1" stop-color="#DBC292" stop-opacity="1"/>
		</linearGradient>
		<path fill="url(#SVGID_Fill5_)" stroke-width="3" stroke-linejoin="round" stroke="url(#SVGID_Stroke8_)" d="M 88.9294,122.292L 88.9294,160.064L 136.145,168.877L 155.031,158.175L 137.719,134.882L 88.9294,122.292 Z "/>
		<linearGradient id="SVGID_Stroke9_" gradientUnits="objectBoundingBox" x1="0.0094134" y1="0.485997" x2="0.990587" y2="0.485997">
			<stop offset="0.0186047" stop-color="#E5D5B4" stop-opacity="1"/>
			<stop offset="1" stop-color="#EFE4D0" stop-opacity="1"/>
		</linearGradient>
		<linearGradient id="SVGID_Fill6_" gradientUnits="objectBoundingBox" x1="-0.0168544" y1="0.484029" x2="1.01685" y2="0.484029">
			<stop offset="0.0186047" stop-color="#E5D5B4" stop-opacity="1"/>
			<stop offset="1" stop-color="#EFE4D0" stop-opacity="1"/>
		</linearGradient>
		<path fill="url(#SVGID_Fill6_)" stroke-width="3" stroke-linejoin="round" stroke="url(#SVGID_Stroke9_)" d="M 89.2441,121.032L 92.7854,120.298L 98.1365,117.937L 101.284,115.104L 102.858,112.271L 145.273,121.662L 136.459,133.623L 89.2441,121.032 Z "/>
		<linearGradient id="SVGID_Stroke10_" gradientUnits="objectBoundingBox" x1="0.0167279" y1="0.5" x2="0.983272" y2="0.5">
			<stop offset="0.0186047" stop-color="#E5D5B4" stop-opacity="1"/>
			<stop offset="1" stop-color="#EFE4D0" stop-opacity="1"/>
		</linearGradient>
		<linearGradient id="SVGID_Fill7_" gradientUnits="objectBoundingBox" x1="-0.031251" y1="0.5" x2="1.03125" y2="0.5">
			<stop offset="0.0186047" stop-color="#E5D5B4" stop-opacity="1"/>
			<stop offset="1" stop-color="#EFE4D0" stop-opacity="1"/>
		</linearGradient>
		<path fill="url(#SVGID_Fill7_)" stroke-width="3" stroke-linejoin="round" stroke="url(#SVGID_Stroke10_)" d="M 145.273,121.662L 166.048,148.103L 155.346,158.805L 135.83,133.623L 145.273,121.662 Z "/>
		<linearGradient id="SVGID_Stroke11_" gradientUnits="objectBoundingBox" x1="0.0584786" y1="0.485418" x2="0.987758" y2="0.485418">
			<stop offset="0.0186047" stop-color="#D9BF8D" stop-opacity="1"/>
			<stop offset="1" stop-color="#D7B77E" stop-opacity="1"/>
		</linearGradient>
		<linearGradient id="SVGID_Fill8_" gradientUnits="objectBoundingBox" x1="0.0272309" y1="0.484616" x2="1.02228" y2="0.484616">
			<stop offset="0.0186047" stop-color="#D9BF8D" stop-opacity="1"/>
			<stop offset="1" stop-color="#D7B77E" stop-opacity="1"/>
		</linearGradient>
		<path fill="url(#SVGID_Fill8_)" stroke-width="3" stroke-linejoin="round" stroke="url(#SVGID_Stroke11_)" d="M 78.752,122.711L 50.2129,144.115L 36.3628,176.012L 56.9277,177.271L 78.752,158.385L 78.752,122.711 Z "/>
		<linearGradient id="SVGID_Stroke12_" gradientUnits="objectBoundingBox" x1="0.0110196" y1="0.484774" x2="0.988976" y2="0.484774">
			<stop offset="0.0186047" stop-color="#E7D7B9" stop-opacity="1"/>
			<stop offset="1" stop-color="#EEE2CD" stop-opacity="1"/>
		</linearGradient>
		<linearGradient id="SVGID_Fill9_" gradientUnits="objectBoundingBox" x1="-0.0199121" y1="0.483143" x2="1.01991" y2="0.483143">
			<stop offset="0.0186047" stop-color="#E7D7B9" stop-opacity="1"/>
			<stop offset="1" stop-color="#EEE2CD" stop-opacity="1"/>
		</linearGradient>
		<path fill="url(#SVGID_Fill9_)" stroke-width="3" stroke-linejoin="round" stroke="url(#SVGID_Stroke12_)" d="M 49.793,144.115L 31.7463,137.4L 60.7051,116.416L 61.1511,116.101L 63.8267,119.249L 69.5186,121.452L 79.1716,121.872L 49.793,144.115 Z "/>
		<linearGradient id="SVGID_Stroke13_" gradientUnits="objectBoundingBox" x1="0.0176183" y1="0.500001" x2="0.982382" y2="0.500001">
			<stop offset="0.0186047" stop-color="#E7D7B9" stop-opacity="1"/>
			<stop offset="1" stop-color="#EEE2CD" stop-opacity="1"/>
		</linearGradient>
		<linearGradient id="SVGID_Fill10_" gradientUnits="objectBoundingBox" x1="-0.0330892" y1="0.500002" x2="1.03309" y2="0.500002">
			<stop offset="0.0186047" stop-color="#E7D7B9" stop-opacity="1"/>
			<stop offset="1" stop-color="#EEE2CD" stop-opacity="1"/>
		</linearGradient>
		<path fill="url(#SVGID_Fill10_)" stroke-width="3" stroke-linejoin="round" stroke="url(#SVGID_Stroke13_)" d="M 31.7463,137.4L 21.2539,165.939L 35.9434,176.012L 49.793,144.955L 31.7463,137.4 Z "/>
	</g>
</svg>
