<?xml version="1.0" encoding="utf-8"?>
<!DOCTYPE svg PUBLIC "-//W3C//DTD SVG 1.1//EN" "http://www.w3.org/Graphics/SVG/1.1/DTD/svg11.dtd">
<svg xmlns="http://www.w3.org/2000/svg" xmlns:xlink="http://www.w3.org/1999/xlink" version="1.1" baseProfile="full" width="150" height="78.25" viewBox="0 0 150.00 78.25" enable-background="new 0 0 150.00 78.25" xml:space="preserve">
	<path fill="#8C9E64" fill-opacity="1" stroke-linejoin="round" stroke="#000000" stroke-opacity="1" d="M 39.4169,0.5L 262.167,0.5C 283.499,0.5 300.792,17.793 300.792,39.125L 300.792,39.125C 300.792,60.457 283.499,77.75 262.167,77.75L 39.4169,77.75C 18.0849,77.75 0.791855,60.457 0.791855,39.125L 0.791855,39.125C 0.791855,17.793 18.0849,0.5 39.4169,0.5 Z "/>
	<linearGradient id="SVGID_Fill1_" gradientUnits="objectBoundingBox" x1="0.5" y1="-9.56931" x2="20.6386" y2="-9.56931" gradientTransform="rotate(90.000000 0.500000 -9.569310)">
		<stop offset="0.427907" stop-color="#EEEAEA" stop-opacity="1"/>
		<stop offset="0.576744" stop-color="#FFFFFF" stop-opacity="0"/>
	</linearGradient>
	<path fill="url(#SVGID_Fill1_)" stroke-width="0.2" stroke-linejoin="round" d="M 255.139,1.18752L 45.6278,1.18752C 40.0812,1.18752 34.7868,1.47171 29.9437,1.98778C 22.5954,3.82733 16.0816,7.77177 11.0801,13.1432C 16.3289,14.339 23.1746,15.0625 30.6626,15.0625L 271.53,15.0625C 278.731,15.0625 285.339,14.3933 290.503,13.2783C 285.604,7.96699 279.235,4.03312 272.04,2.12342C 266.872,1.52173 261.154,1.18752 255.139,1.18752 Z "/>
	<g>
		<g>
			<rect x="34.0824" y="38.9079" fill="#000000" fill-opacity="1" stroke-width="0.2" stroke-linejoin="round" width="17.9186" height="5.28"/>
		</g>
		<radialGradient id="SVGID_Stroke1_" cx="24.2987" cy="58.6846" r="7.33331" gradientUnits="userSpaceOnUse" gradientTransform="rotate(180.000000 24.298721 58.684578)">
			<stop offset="0" stop-color="#4D5735" stop-opacity="1"/>
			<stop offset="1" stop-color="#273110" stop-opacity="1"/>
		</radialGradient>
		<line fill="none" stroke-width="3" stroke-linejoin="round" stroke="url(#SVGID_Stroke1_)" x1="30.132" y1="53.6012" x2="18.4653" y2="63.7679"/>
		<radialGradient id="SVGID_Stroke2_" cx="24.4583" cy="27.875" r="39" gradientUnits="userSpaceOnUse" gradientTransform="rotate(-29.999994 24.458267 27.875008)">
			<stop offset="0" stop-color="#4D5735" stop-opacity="0.403922"/>
			<stop offset="1" stop-color="#273110" stop-opacity="0.403922"/>
		</radialGradient>
		<radialGradient id="SVGID_Fill2_" cx="24.4583" cy="27.875" r="39" gradientUnits="userSpaceOnUse" gradientTransform="rotate(-29.999990 24.458267 27.875008)">
			<stop offset="0" stop-color="#A8AEBD" stop-opacity="0.403922"/>
			<stop offset="0.274419" stop-color="#A2A8B7" stop-opacity="0.403922"/>
			<stop offset="0.967442" stop-color="#142935" stop-opacity="0.403922"/>
			<stop offset="1" stop-color="#102531" stop-opacity="0.403922"/>
		</radialGradient>
		<ellipse fill="url(#SVGID_Fill2_)" stroke-width="3" stroke-linejoin="round" stroke="url(#SVGID_Stroke2_)" cx="43.9583" cy="40.875" rx="18" ry="18"/>
	</g>
</svg>
