<?xml version="1.0" encoding="utf-8"?>
<!DOCTYPE svg PUBLIC "-//W3C//DTD SVG 1.1//EN" "http://www.w3.org/Graphics/SVG/1.1/DTD/svg11.dtd">
<svg x="0" y="0" width="32" height="28.4984" overflow="hidden" viewBox="0, 0, 381.6631, 339.8996" preserveAspectRatio="xMidYMid" font-size="0" id="svg" xml:space="default" xmlns="http://www.w3.org/2000/svg" xmlns:xlink="http://www.w3.org/1999/xlink" xmlns:xml="http://www.w3.org/XML/1998/namespace" version="1.1">
  <metadata id="metadata205" xml:space="default"></metadata>
  <namedview id="namedview203" xml:space="default" />
  <defs id="def1" xml:space="default">
    <linearGradient x1="0%" y1="0%" x2="100%" y2="0%" gradientUnits="objectBoundingBox" id="linearGradient5162" xml:space="default">
      <stop offset="0%" stop-color="#A99FFF" stop-opacity="0" id="stop5164" xml:space="default" />
      <stop offset="33.91528%" stop-color="#FFFFFF" stop-opacity="0.6293706" id="stop5166" xml:space="default" />
      <stop offset="100%" stop-color="#FFFFFF" stop-opacity="0" id="stop5168" xml:space="default" />
    </linearGradient>
    <linearGradient x1="0%" y1="0%" x2="100%" y2="0%" gradientUnits="objectBoundingBox" id="linearGradient5134" xml:space="default">
      <stop offset="0%" stop-color="#A99FFF" stop-opacity="0" id="stop5136" xml:space="default" />
      <stop offset="54.2467%" stop-color="#FFFFFF" stop-opacity="0.6293706" id="stop5140" xml:space="default" />
      <stop offset="100%" stop-color="#FFFFFF" stop-opacity="0" id="stop5138" xml:space="default" />
    </linearGradient>
    <linearGradient x1="0%" y1="0%" x2="100%" y2="0%" gradientUnits="objectBoundingBox" id="linearGradient4985" xml:space="default">
      <stop offset="0%" stop-color="#CACBFF" stop-opacity="1" id="stop4987" xml:space="default" />
      <stop offset="100%" stop-color="#FFFFFF" stop-opacity="0" id="stop4989" xml:space="default" />
    </linearGradient>
    <marker refX="0" refY="0" orient="auto" overflow="visible" markerWidth="3" markerHeight="3" id="Arrow2Mend" xml:space="default">
      <path d="M8.718588 4.033735 L-2.207289 0.01601326 L8.718589 -4.001708 C6.97309 -1.629647 6.983148 1.615744 8.718588 4.033735 z" fill-rule="evenOdd" stroke-width="0.625" stroke-linejoin="round" font-size="12" transform="scale(0.6) rotate(180, 0, 0) translate(0, 0)" id="path4124" xml:space="default" />
    </marker>
    <linearGradient x1="0%" y1="0%" x2="100%" y2="0%" gradientUnits="objectBoundingBox" id="linearGradient5643" xml:space="default">
      <stop offset="0%" stop-color="#4D4D4D" stop-opacity="1" id="stop5645" xml:space="default" />
      <stop offset="100%" stop-color="#4D4D4D" stop-opacity="0.3006993" id="stop5647" xml:space="default" />
    </linearGradient>
    <marker refX="0" refY="0" orient="auto" overflow="visible" markerWidth="3" markerHeight="3" id="DotS" xml:space="default">
      <path d="M-2.5 -1 C-2.5 1.76 -4.74 4 -7.5 4 C-10.26 4 -12.5 1.76 -12.5 -1 C-12.5 -3.76 -10.26 -6 -7.5 -6 C-4.74 -6 -2.5 -3.76 -2.5 -1 z" stroke="#000000" fill-rule="evenOdd" stroke-width="1pt" transform="matrix(0.2, 0, 0, 0.2, 1.48, 0.2)" id="path4187" xml:space="default" />
    </marker>
    <marker refX="0" refY="0" orient="auto" overflow="visible" markerWidth="3" markerHeight="3" id="Arrow2Send" xml:space="default">
      <path d="M8.718588 4.033735 L-2.207289 0.01601326 L8.718589 -4.001708 C6.97309 -1.629647 6.983148 1.615744 8.718588 4.033735 z" fill-rule="evenOdd" stroke-width="0.625" stroke-linejoin="round" font-size="12px" transform="matrix(-0.3, 0, 0, -0.3, 0.69, 0)" id="path4152" xml:space="default" />
    </marker>
    <marker refX="0" refY="0" orient="auto" overflow="visible" markerWidth="3" markerHeight="3" id="SquareS" xml:space="default">
      <path d="M-5 -5 L-5 5 L5 5 L5 -5 L-5 -5 z" stroke="#000000" fill-rule="evenOdd" stroke-width="1pt" transform="scale(0.2)" id="path4196" xml:space="default" />
    </marker>
    <marker refX="0" refY="0" orient="auto" overflow="visible" markerWidth="3" markerHeight="3" id="Arrow1Send" xml:space="default">
      <path d="M0 0 L5 -5 L-12.5 0 L5 5 L0 0 z" stroke="#000000" fill-rule="evenOdd" stroke-width="1pt" transform="matrix(-0.2, 0, 0, -0.2, -1.2, 0)" id="path4134" xml:space="default" />
    </marker>
    <linearGradient x1="0%" y1="0%" x2="100%" y2="0%" gradientUnits="objectBoundingBox" id="linearGradient4100" xml:space="default">
      <stop offset="0%" stop-color="#5B5B5D" stop-opacity="1" id="stop4102" xml:space="default" />
      <stop offset="100%" stop-color="#7F7980" stop-opacity="0" id="stop4104" xml:space="default" />
    </linearGradient>
    <linearGradient x1="0%" y1="0%" x2="100%" y2="0%" gradientUnits="objectBoundingBox" id="linearGradient4074" xml:space="default">
      <stop offset="0%" stop-color="#494444" stop-opacity="0" id="stop4076" xml:space="default" />
      <stop offset="51.80857%" stop-color="#444949" stop-opacity="1" id="stop4078" xml:space="default" />
      <stop offset="100%" stop-color="#999999" stop-opacity="0" id="stop4080" xml:space="default" />
    </linearGradient>
    <linearGradient x1="0%" y1="0%" x2="100%" y2="0%" gradientUnits="objectBoundingBox" id="linearGradient4056" xml:space="default">
      <stop offset="0%" stop-color="#B9B9B7" stop-opacity="0.06293707" id="stop4058" xml:space="default" />
      <stop offset="56.60752%" stop-color="#C9C9C6" stop-opacity="1" id="stop4060" xml:space="default" />
      <stop offset="100%" stop-color="#DADAD6" stop-opacity="0" id="stop4062" xml:space="default" />
    </linearGradient>
    <linearGradient x1="0%" y1="0%" x2="100%" y2="0%" gradientUnits="objectBoundingBox" id="linearGradient3980" xml:space="default">
      <stop offset="0%" stop-color="#B9B9B7" stop-opacity="0" id="stop3982" xml:space="default" />
      <stop offset="54.91006%" stop-color="#5F605F" stop-opacity="0.5104895" id="stop3984" xml:space="default" />
      <stop offset="100%" stop-color="#DADAD6" stop-opacity="0" id="stop3986" xml:space="default" />
    </linearGradient>
    <linearGradient x1="0%" y1="0%" x2="100%" y2="0%" gradientUnits="objectBoundingBox" id="linearGradient3928" xml:space="default">
      <stop offset="0%" stop-color="#B9B9B7" stop-opacity="0.1048951" id="stop3930" xml:space="default" />
      <stop offset="79.67419%" stop-color="#C9C9C6" stop-opacity="1" id="stop3932" xml:space="default" />
      <stop offset="100%" stop-color="#DADAD6" stop-opacity="0" id="stop3934" xml:space="default" />
    </linearGradient>
    <linearGradient x1="0%" y1="0%" x2="100%" y2="0%" gradientUnits="objectBoundingBox" id="linearGradient3765" xml:space="default">
      <stop offset="0%" stop-color="#494444" stop-opacity="0" id="stop3767" xml:space="default" />
      <stop offset="47.85461%" stop-color="#444949" stop-opacity="1" id="stop3771" xml:space="default" />
      <stop offset="100%" stop-color="#999999" stop-opacity="0" id="stop3769" xml:space="default" />
    </linearGradient>
    <linearGradient x1="0%" y1="0%" x2="100%" y2="0%" gradientUnits="objectBoundingBox" id="linearGradient3745" xml:space="default">
      <stop offset="0%" stop-color="#B9B9B7" stop-opacity="1" id="stop3751" xml:space="default" />
      <stop offset="79.67419%" stop-color="#C9C9C6" stop-opacity="1" id="stop3753" xml:space="default" />
      <stop offset="100%" stop-color="#DADAD6" stop-opacity="0" id="stop3749" xml:space="default" />
    </linearGradient>
    <linearGradient x1="0%" y1="0%" x2="100%" y2="0%" gradientUnits="objectBoundingBox" id="linearGradient3729" xml:space="default">
      <stop offset="0%" stop-color="#464642" stop-opacity="1" id="stop3731" xml:space="default" />
      <stop offset="100%" stop-color="#999999" stop-opacity="0" id="stop3733" xml:space="default" />
    </linearGradient>
    <linearGradient x1="0%" y1="0%" x2="100%" y2="0%" gradientUnits="objectBoundingBox" id="linearGradient3681" xml:space="default">
      <stop offset="0%" stop-color="#0B0B0B" stop-opacity="1" id="stop3683" xml:space="default" />
      <stop offset="100%" stop-color="#A9A9A6" stop-opacity="1" id="stop3685" xml:space="default" />
    </linearGradient>
    <linearGradient x1="0%" y1="0%" x2="100%" y2="0%" gradientUnits="objectBoundingBox" id="linearGradient3653" xml:space="default">
      <stop offset="0%" stop-color="#D4D2D2" stop-opacity="1" id="stop3655" xml:space="default" />
      <stop offset="100%" stop-color="#888888" stop-opacity="1" id="stop3657" xml:space="default" />
    </linearGradient>
    <linearGradient x1="180.251" y1="373.8617" x2="539.9916" y2="373.8617" gradientUnits="userSpaceOnUse" xlink:href="#linearGradient3653" id="linearGradient3651" xml:space="default" />
    <linearGradient x1="170.4506" y1="442.4685" x2="180.512" y2="442.4685" gradientUnits="userSpaceOnUse" xlink:href="#linearGradient3729" id="linearGradient3727" xml:space="default" />
    <linearGradient x1="172.864" y1="223.2923" x2="182.2355" y2="281.1227" gradientUnits="userSpaceOnUse" xlink:href="#linearGradient3745" id="linearGradient3743" xml:space="default" />
    <linearGradient x1="392.7153" y1="464.2493" x2="397.8726" y2="487.1196" gradientUnits="userSpaceOnUse" xlink:href="#linearGradient3765" gradientTransform="matrix(0.9999968, 0.00251754, -0.00251754, 0.9999968, 2.338703, 0.1773586)" id="linearGradient3763" xml:space="default" />
    <filter x="-0.1633044" y="-0.01295172" width="1.326609" height="1.025903" color-interpolation-filters="auto" id="filter3828" xml:space="default">
      <feGaussianBlur stdDeviation="0.874905944" id="feGaussianBlur3830" xml:space="default" collect="always" />
    </filter>
    <filter x="none" y="none" width="none" height="none" color-interpolation-filters="auto" id="filter3846" xml:space="default">
      <feGaussianBlur stdDeviation="0.2124711" id="feGaussianBlur3848" xml:space="default" collect="always" />
    </filter>
    <linearGradient x1="508.2222" y1="423.9952" x2="515.3228" y2="423.9952" gradientUnits="userSpaceOnUse" xlink:href="#linearGradient3653" id="linearGradient3856" xml:space="default" />
    <filter x="-0.2250001" y="-0.4499996" width="1.45" height="1.899999" color-interpolation-filters="auto" id="filter3906" xml:space="default">
      <feGaussianBlur stdDeviation="0.7411963" id="feGaussianBlur3908" xml:space="default" collect="always" />
    </filter>
    <linearGradient x1="332.132" y1="260.1949" x2="468.98" y2="260.1949" gradientUnits="userSpaceOnUse" xlink:href="#linearGradient4056" id="linearGradient3926" xml:space="default" />
    <filter x="none" y="none" width="none" height="none" color-interpolation-filters="auto" id="filter3948" xml:space="default">
      <feGaussianBlur stdDeviation="0.976931751" id="feGaussianBlur3950" xml:space="default" collect="always" />
    </filter>
    <linearGradient x1="306.4159" y1="454.4632" x2="494.6961" y2="454.4632" gradientUnits="userSpaceOnUse" xlink:href="#linearGradient3928" gradientTransform="translate(-40.25126, 7.267589)" id="linearGradient3960" xml:space="default" />
    <filter x="none" y="none" width="none" height="none" color-interpolation-filters="auto" id="filter3966" xml:space="default">
      <feGaussianBlur stdDeviation="1.12368107" id="feGaussianBlur3968" xml:space="default" collect="always" />
    </filter>
    <linearGradient x1="223.9323" y1="271.6207" x2="206.2877" y2="289.2653" gradientUnits="userSpaceOnUse" xlink:href="#linearGradient3980" gradientTransform="translate(-2.236181, -3.354272)" id="linearGradient3978" xml:space="default" />
    <filter x="-0.1772614" y="-0.0163124" width="1.354523" height="1.032625" color-interpolation-filters="auto" id="filter4042" xml:space="default">
      <feGaussianBlur stdDeviation="1.23871458" id="feGaussianBlur4044" xml:space="default" collect="always" />
    </filter>
    <filter x="-0.2184753" y="-0.2662669" width="1.436951" height="1.532534" color-interpolation-filters="auto" id="filter4052" xml:space="default">
      <feGaussianBlur stdDeviation="1.40342069" id="feGaussianBlur4054" xml:space="default" collect="always" />
    </filter>
    <linearGradient x1="192.9834" y1="295.3985" x2="215.1082" y2="266.0432" gradientUnits="userSpaceOnUse" xlink:href="#linearGradient4074" gradientTransform="matrix(1.125, 0, 0, 1.019802, -23.1305, -2.180026)" id="linearGradient4072" xml:space="default" />
    <linearGradient x1="214.1144" y1="394.6454" x2="218.0277" y2="394.6454" gradientUnits="userSpaceOnUse" xlink:href="#linearGradient4100" id="linearGradient4090" xml:space="default" />
    <filter x="none" y="none" width="none" height="none" color-interpolation-filters="auto" id="filter4096" xml:space="default">
      <feGaussianBlur stdDeviation="0.02473602" id="feGaussianBlur4098" xml:space="default" collect="always" />
    </filter>
    <linearGradient x1="170.4506" y1="442.4685" x2="180.512" y2="442.4685" gradientUnits="userSpaceOnUse" xlink:href="#linearGradient3729" id="linearGradient5576" xml:space="default" />
    <linearGradient x1="192.9834" y1="295.3985" x2="215.1082" y2="266.0432" gradientUnits="userSpaceOnUse" xlink:href="#linearGradient4074" gradientTransform="matrix(1.125, 0, 0, 1.019802, -23.1305, -2.180026)" id="linearGradient5578" xml:space="default" />
    <linearGradient x1="172.864" y1="223.2923" x2="182.2355" y2="281.1227" gradientUnits="userSpaceOnUse" xlink:href="#linearGradient3745" id="linearGradient5580" xml:space="default" />
    <linearGradient x1="180.251" y1="373.8617" x2="539.9916" y2="373.8617" gradientUnits="userSpaceOnUse" xlink:href="#linearGradient3653" id="linearGradient5582" xml:space="default" />
    <linearGradient x1="392.7153" y1="464.2493" x2="397.8726" y2="487.1196" gradientUnits="userSpaceOnUse" xlink:href="#linearGradient3765" gradientTransform="matrix(0.9999968, 0.00251754, -0.00251754, 0.9999968, 2.338703, 0.1773586)" id="linearGradient5584" xml:space="default" />
    <linearGradient x1="508.2222" y1="423.9952" x2="515.3228" y2="423.9952" gradientUnits="userSpaceOnUse" xlink:href="#linearGradient3653" id="linearGradient5586" xml:space="default" />
    <linearGradient x1="306.4159" y1="454.4632" x2="494.6961" y2="454.4632" gradientUnits="userSpaceOnUse" xlink:href="#linearGradient3928" gradientTransform="translate(-40.25126, 7.267589)" id="linearGradient5588" xml:space="default" />
    <linearGradient x1="332.132" y1="260.1949" x2="468.98" y2="260.1949" gradientUnits="userSpaceOnUse" xlink:href="#linearGradient4056" id="linearGradient5590" xml:space="default" />
    <linearGradient x1="214.1144" y1="394.6454" x2="218.0277" y2="394.6454" gradientUnits="userSpaceOnUse" xlink:href="#linearGradient4100" id="linearGradient5592" xml:space="default" />
    <linearGradient x1="392.7153" y1="464.2493" x2="397.8726" y2="487.1196" gradientUnits="userSpaceOnUse" xlink:href="#linearGradient3765" gradientTransform="matrix(0.9999968, 0.00251754, -0.00251754, 0.9999968, 2.338703, 0.1773586)" id="linearGradient5614" xml:space="default" />
    <linearGradient x1="180.251" y1="373.8617" x2="539.9916" y2="373.8617" gradientUnits="userSpaceOnUse" xlink:href="#linearGradient3653" id="linearGradient5617" xml:space="default" />
    <linearGradient x1="172.864" y1="223.2923" x2="182.2355" y2="281.1227" gradientUnits="userSpaceOnUse" xlink:href="#linearGradient3745" id="linearGradient5620" xml:space="default" />
    <linearGradient x1="192.9834" y1="295.3985" x2="215.1082" y2="266.0432" gradientUnits="userSpaceOnUse" xlink:href="#linearGradient4074" gradientTransform="matrix(1.125, 0, 0, 1.019802, -23.1305, -2.180026)" id="linearGradient5623" xml:space="default" />
    <linearGradient x1="170.4506" y1="442.4685" x2="180.512" y2="442.4685" gradientUnits="userSpaceOnUse" xlink:href="#linearGradient3729" id="linearGradient5626" xml:space="default" />
    <linearGradient x1="229.4467" y1="360.5583" x2="510.9977" y2="360.5583" gradientUnits="userSpaceOnUse" xlink:href="#linearGradient5643" id="linearGradient5641" xml:space="default" />
    <linearGradient x1="229.4467" y1="360.5583" x2="510.9977" y2="360.5583" gradientUnits="userSpaceOnUse" xlink:href="#linearGradient5643" id="linearGradient5682" xml:space="default" />
    <linearGradient x1="170.4506" y1="442.4685" x2="180.512" y2="442.4685" gradientUnits="userSpaceOnUse" xlink:href="#linearGradient3729" id="linearGradient5684" xml:space="default" />
    <linearGradient x1="192.9834" y1="295.3985" x2="215.1082" y2="266.0432" gradientUnits="userSpaceOnUse" xlink:href="#linearGradient4074" gradientTransform="matrix(1.125, 0, 0, 1.019802, -23.1305, -2.180026)" id="linearGradient5686" xml:space="default" />
    <linearGradient x1="172.864" y1="223.2923" x2="182.2355" y2="281.1227" gradientUnits="userSpaceOnUse" xlink:href="#linearGradient3745" id="linearGradient5688" xml:space="default" />
    <linearGradient x1="180.251" y1="373.8617" x2="539.9916" y2="373.8617" gradientUnits="userSpaceOnUse" xlink:href="#linearGradient3653" id="linearGradient5690" xml:space="default" />
    <linearGradient x1="392.7153" y1="464.2493" x2="397.8726" y2="487.1196" gradientUnits="userSpaceOnUse" xlink:href="#linearGradient3765" gradientTransform="matrix(0.9999968, 0.00251754, -0.00251754, 0.9999968, 2.338703, 0.1773586)" id="linearGradient5692" xml:space="default" />
    <linearGradient x1="508.2222" y1="423.9952" x2="515.3228" y2="423.9952" gradientUnits="userSpaceOnUse" xlink:href="#linearGradient3653" id="linearGradient5694" xml:space="default" />
    <linearGradient x1="306.4159" y1="454.4632" x2="494.6961" y2="454.4632" gradientUnits="userSpaceOnUse" xlink:href="#linearGradient3928" gradientTransform="translate(-40.25126, 7.267589)" id="linearGradient5696" xml:space="default" />
    <linearGradient x1="332.132" y1="260.1949" x2="468.98" y2="260.1949" gradientUnits="userSpaceOnUse" xlink:href="#linearGradient4056" id="linearGradient5698" xml:space="default" />
    <linearGradient x1="214.1144" y1="394.6454" x2="218.0277" y2="394.6454" gradientUnits="userSpaceOnUse" xlink:href="#linearGradient4100" id="linearGradient5700" xml:space="default" />
    <linearGradient x1="392.7153" y1="464.2493" x2="397.8726" y2="487.1196" gradientUnits="userSpaceOnUse" xlink:href="#linearGradient3765" gradientTransform="matrix(0.9999968, 0.00251754, -0.00251754, 0.9999968, 2.338703, 0.1773586)" id="linearGradient5722" xml:space="default" />
    <linearGradient x1="180.251" y1="373.8617" x2="539.9916" y2="373.8617" gradientUnits="userSpaceOnUse" xlink:href="#linearGradient3653" id="linearGradient5725" xml:space="default" />
    <linearGradient x1="172.864" y1="223.2923" x2="182.2355" y2="281.1227" gradientUnits="userSpaceOnUse" xlink:href="#linearGradient3745" id="linearGradient5728" xml:space="default" />
    <linearGradient x1="192.9834" y1="295.3985" x2="215.1082" y2="266.0432" gradientUnits="userSpaceOnUse" xlink:href="#linearGradient4074" gradientTransform="matrix(1.125, 0, 0, 1.019802, -23.1305, -2.180026)" id="linearGradient5731" xml:space="default" />
    <linearGradient x1="170.4506" y1="442.4685" x2="180.512" y2="442.4685" gradientUnits="userSpaceOnUse" xlink:href="#linearGradient3729" id="linearGradient5734" xml:space="default" />
    <linearGradient x1="229.4467" y1="360.5583" x2="510.9977" y2="360.5583" gradientUnits="userSpaceOnUse" xlink:href="#linearGradient5643" id="linearGradient5741" xml:space="default" />
    <linearGradient x1="392.7153" y1="464.2493" x2="397.8726" y2="487.1196" gradientUnits="userSpaceOnUse" xlink:href="#linearGradient3765" gradientTransform="matrix(0.9999968, 0.00251754, -0.00251754, 0.9999968, 2.338703, 0.1773586)" id="linearGradient2995" xml:space="default" />
    <linearGradient x1="180.251" y1="373.8617" x2="539.9916" y2="373.8617" gradientUnits="userSpaceOnUse" xlink:href="#linearGradient3653" id="linearGradient2998" xml:space="default" />
    <linearGradient x1="172.864" y1="223.2923" x2="182.2355" y2="281.1227" gradientUnits="userSpaceOnUse" xlink:href="#linearGradient3745" id="linearGradient3001" xml:space="default" />
    <linearGradient x1="192.9834" y1="295.3985" x2="215.1082" y2="266.0432" gradientUnits="userSpaceOnUse" xlink:href="#linearGradient4074" gradientTransform="matrix(1.125, 0, 0, 1.019802, -23.1305, -2.180026)" id="linearGradient3004" xml:space="default" />
    <linearGradient x1="170.4506" y1="442.4685" x2="180.512" y2="442.4685" gradientUnits="userSpaceOnUse" xlink:href="#linearGradient3729" id="linearGradient3007" xml:space="default" />
    <filter x="none" y="none" width="none" height="none" color-interpolation-filters="auto" id="filter4991" xml:space="default">
      <feGaussianBlur stdDeviation="0.0122988271" id="feGaussianBlur4993" xml:space="default" collect="always" />
    </filter>
    <radialGradient cx="697.6949" cy="130.2924" r="1.229883" fx="697.6949" fy="130.2924" gradientUnits="userSpaceOnUse" xlink:href="#linearGradient4985" id="radialGradient5002" xml:space="default" />
    <radialGradient cx="697.6949" cy="130.2924" r="1.229883" fx="697.6949" fy="130.2924" gradientUnits="userSpaceOnUse" xlink:href="#linearGradient4985" id="radialGradient5122" xml:space="default" />
    <linearGradient x1="285.6103" y1="372.1765" x2="423.0357" y2="487.6335" gradientUnits="userSpaceOnUse" xlink:href="#linearGradient5134" id="linearGradient5132" xml:space="default" />
    <linearGradient x1="76.02926" y1="64.29022" x2="273.3731" y2="183.9259" gradientUnits="userSpaceOnUse" xlink:href="#linearGradient5134" gradientTransform="matrix(1.075435, 0, 0, 1.051119, 154.1307, 201.3482)" id="linearGradient5150" xml:space="default" />
    <linearGradient x1="94.47866" y1="44.72363" x2="226.4134" y2="173.3041" gradientUnits="userSpaceOnUse" xlink:href="#linearGradient5162" id="linearGradient5160" xml:space="default" />
    <linearGradient x1="94.47866" y1="44.72363" x2="226.4134" y2="173.3041" gradientUnits="userSpaceOnUse" xlink:href="#linearGradient5162" gradientTransform="matrix(1, 0, 0, 0.8481928, 162.1022, 245.1163)" id="linearGradient5178" xml:space="default" />
    <filter x="none" y="none" width="none" height="none" color-interpolation-filters="auto" id="filter5192" xml:space="default">
      <feGaussianBlur stdDeviation="4.49472475" id="feGaussianBlur5194" xml:space="default" collect="always" />
    </filter>
    <linearGradient x1="94.47866" y1="44.72363" x2="226.4134" y2="173.3041" gradientUnits="userSpaceOnUse" xlink:href="#linearGradient5162" gradientTransform="matrix(1, 0, 0, 0.8481928, 176.3332, 241.1633)" id="linearGradient5196" xml:space="default" />
  </defs>
  <g transform="translate(-159.866, -203.786)" id="layer1" xml:space="default">
    <g id="g5198" xml:space="default">
      <path d="M204.3419 535.4413 C207.6457 532.6724 211.1105 523.6297 211.4157 516.9793 C211.5581 513.8774 207.3855 457.9907 202.1432 392.7865 C196.901 327.5823 192.7587 273.2487 192.938 272.0451 C193.1174 270.8416 194.2218 267.7214 195.3921 265.1113 C197.4471 260.5282 197.7317 260.2809 203.7026 257.8917 C207.103 256.531 230.1207 249.8844 254.8531 243.1214 C316.1586 226.3575 340.9409 221.3919 393.9315 215.2542 C439.3634 209.9921 478.2766 207.0277 494.8927 207.563 C506.3603 207.9325 506.472 207.9532 511.0886 210.5569 C515.1045 212.822 516.153 213.9911 518.7925 219.147 L521.8478 225.1152 L530.1816 334.1218 C538.2233 439.3072 538.4641 443.3481 537.0522 449.3956 C536.2475 452.8426 534.5139 457.6428 533.1995 460.0626 L530.8099 464.4624 L367.9637 500.7195 C278.3983 520.6609 195.1886 542.1597 194.4072 542.2135 C193.2694 542.2919 202.6874 536.8278 204.3418 535.4412 L204.3418 535.4412 z" display="inline" enable-background="accumulate" stroke-width="1.5" color="#000000" id="path2850" xml:space="default" nodetypes="cssssssssscccscccscc" marker="none" overflow="visible" style="fill:#343334;" />
      <path d="M165.5757 352.8098 C165.5757 352.8098 159.4693 283.6753 159.8864 279.3808 C161.4494 272.1201 159.4577 269.88 167.288 265.3923 C172.039 262.8182 189.1461 254.4497 192.2707 254.3222 C193.4895 254.2725 186.2741 262.2472 183.3574 265.5874 L178.0543 271.6606 L177.4447 280.4277 C177.0873 285.5648 178.6593 312.5427 181.2409 345.5832 C185.8925 405.1167 186.1277 422.3679 182.3834 429.3751 C181.399 431.2174 178.4818 434.3833 175.9006 436.4105 C173.3195 438.4377 171.487 439.9529 171.4169 439.9481 C170.0899 410.8834 167.8086 381.8309 165.5757 352.8098 z" display="inline" enable-background="accumulate" stroke-width="4" color="#000000" id="path3663" xml:space="default" nodetypes="cccscccssscc" marker="none" overflow="visible" style="fill:#000000;" />
      <path d="M179.5287 525.7641 C179.3241 524.4754 178.0662 523.5831 177.1444 522.6596 C175.2408 520.7524 171.0233 520.2443 170.7424 517.7236 C168.8609 500.844 165.7012 463.9942 165.7012 463.9942 C165.7012 463.9942 165.3933 461.5393 166.218 459.6841 C167.0721 457.7631 171.9286 456.0679 171.9286 456.0679 C171.9881 456.3667 172.3399 456.7259 171.569 446.8175 C171.4548 442.124 171.4364 439.1184 171.4334 438.936 C171.4304 438.7535 171.6969 437.6628 173.2314 435.9092 C176.0999 432.4619 177.938 428.3737 180.3833 424.6027 C186.0988 415.95 182.7177 414.4876 182.7162 401.1446 C182.7153 393.8924 180.8768 377.4424 177.3158 338.4385 C174.0486 302.6532 170.5013 278.6152 174.7045 268.3785 C178.9078 258.1419 176.2241 264.8377 179.0822 261.6364 C181.9403 258.4351 185.0758 257.1776 190.849 253.9974 L219.8553 245.6506 C285.1628 227.1304 334.6383 219.4712 350.6589 217.4237 C372.4682 213.4744 326.9704 224.6454 314.1418 228.0956 C295.9576 231.9012 211.0687 251.3369 201.6295 255.059 L196.4109 258.0322 L194.2648 262.2896 C192.1775 267.3463 188.3309 260.9842 198.9488 393.1683 C204.138 457.7701 209.221 512.6591 209.2214 515.4847 C209.222 520.3677 211.8167 520.0468 208.569 526.6215 L206.3697 532.2603 L200.3646 535.3732 C194.4524 538.4387 193.6357 539.6323 189.103 539.9151 L180.9542 540.1383 C180.9542 540.1383 180.2746 532.7612 180.2746 532.7612 C180.2746 532.7612 179.9058 528.1396 179.5287 525.7642 z M177.7175 515.9158 C180.2645 514.6164 180.2458 514.733 179.3433 505.8028 C178.7726 500.156 178.7103 499.9749 176.6099 497.8571 C174.8392 496.0718 174.2034 495.7545 173.0014 496.0561 C171.8564 496.3435 171.5974 496.6898 171.7981 497.6653 C171.9388 498.349 172.3376 502.6747 172.6844 507.2782 C173.0313 511.8817 173.4139 515.962 173.5347 516.3456 C173.8495 517.3456 175.1835 517.2085 177.7175 515.9158 z" display="inline" enable-background="accumulate" stroke-width="3" color="#000000" id="path3713" xml:space="default" nodetypes="casczccsccsszzcccccccssccccccscssssccc" marker="none" overflow="visible" style="fill:#999999;" />
      <g transform="matrix(1.157462, 0, 0, 1.101224, -3.143243, -51.19408)" id="g3715" xml:space="default">
        <path d="M151.9124 497.3183 L153.7267 515.928" stroke="#C4C3C3" stroke-width="2.214363" stroke-linecap="round" id="path3665" xml:space="default" nodetypes="cc" style="fill:none;" />
        <path d="M154.7356 516.5966 C154.1089 509.7521 153.4576 503.259 152.6492 496.4271 C152.7071 496.3571 156.7773 499.2441 157.2612 500.1802 C157.8442 501.3079 158.5508 512.2296 158.5508 514.2698 C158.5508 514.7366 158.1126 515.4536 156.6847 516.0215 L154.7356 516.5967 z" display="inline" enable-background="accumulate" stroke-width="4" color="#000000" id="path3669" xml:space="default" nodetypes="ccsscc" marker="none" overflow="visible" style="fill:#000000;" />
      </g>
      <path d="M176.7636 430.4612 L179.8624 424.9134 L179.9202 444.5399 L182.2875 450.8529 L172.2262 455.9822 L171.2891 438.5229 L176.7636 430.4612 z" id="path3719" xml:space="default" nodetypes="ccccccc" style="fill:url(#linearGradient3007);" />
      <path d="M195.7357 263.7374 C205.4824 253.6812 239.9702 250.6912 239.9702 250.6912 L260.5151 269.9727 C260.5151 269.9727 233.0869 277.9524 226.4134 289.7054 C222.4832 296.627 225.7146 314.4224 225.7146 314.4224 L198.0418 314.1428 L193.9887 272.2892 C193.9887 272.2892 193.7108 265.8266 195.7357 263.7374 z" id="path4064" xml:space="default" nodetypes="cccscccs" style="fill:url(#linearGradient3004);" />
      <path d="M173.9341 291.7959 L190.1416 290.2147 L191.5872 273.2166 L192.214 264.2883 L195.2805 258.195 L205.0954 253.8946 L240.6728 244.012 L307.1203 228.036 L321.9699 223.2924 L241.5312 239.6157 L202.0007 250.6842 L188.5604 254.8688 C188.5604 254.8688 180.2596 258.8781 177.424 262.3316 C174.9145 265.3881 172.864 273.2844 172.864 273.2844 L173.9341 291.7959 z" id="path3735" xml:space="default" nodetypes="ccccccccccccscc" style="fill:url(#linearGradient3001);" />
      <path d="M182.5645 541.492 C182.5645 541.492 188.3814 542.0295 191.1542 541.3132 C196.2886 539.9869 201.6258 537.7893 205.2299 533.8994 C208.2379 530.653 209.5939 526.046 210.5049 521.715 C211.3348 517.7695 210.8974 513.639 210.5783 509.6199 C204.3344 430.9719 197.0406 343.7827 191.7964 275.9424 C191.5987 273.3843 191.6347 270.491 192.3721 267.9099 C193.2528 264.8276 194.4888 261.5639 196.8559 259.4023 C200.44 256.1295 205.6429 255.1778 210.2993 253.8084 C240.1461 245.0305 269.7573 236.8376 299.847 229.7885 C317.8465 225.5717 335.9608 221.7493 354.222 218.8695 C381.3412 214.5929 436.0445 209.4476 436.0445 209.4476 C436.0445 209.4476 468.0361 206.4684 484.083 206.2313 C491.8269 206.1169 499.8798 204.8831 507.3011 207.0979 C510.8524 208.1578 514.3149 210.1107 516.8217 212.8405 C519.8704 216.1607 522.3766 220.4842 522.7958 224.9723 C529.7993 299.949 534.4318 370.2836 539.4915 443.6387 C539.8468 448.7896 537.6263 452.7598 535.2506 456.6564 C533.5152 459.5027 528.2164 463.7653 528.2164 463.7653" stroke="url(#linearGradient2998)" stroke-width="4" stroke-linecap="round" id="path2844" xml:space="default" nodetypes="caaassaasaacaaassaa" style="fill:none;" />
      <path d="M212.2486 498.0278 L537.4309 433.4688 L537.275 449.1449 L528.4224 461.6585 L209.0186 533.5587 L213.0392 518.5837 L212.2486 498.0279 z" id="path3755" xml:space="default" nodetypes="ccccccc" style="fill:url(#linearGradient2995);" />
      <g font-family="URW Chancery L" font-size="12px" font-style="italic" font-weight="700" transform="matrix(0.9849693, -0.1727295, 0.1727295, 0.9849693, 0, 0)" id="text5539" xml:space="default" font-stretch="normal" />
-inkscape-font-specification="URW Chancery L Bold Italic" style="fill:#C8D39B;"&gt;
        <path d="M271.3676 537.6672 L270.8396 538.9152 C271.2596 539.4792 271.8236 539.7432 272.6036 539.7432 C274.4396 539.7432 276.2396 538.2432 276.2396 536.7192 C276.2396 536.2272 276.0476 535.9752 275.1596 535.2792 C274.2836 534.5952 274.1396 534.3912 274.1396 533.8752 C274.1396 533.0952 274.7276 532.4232 275.4356 532.4232 C275.9396 532.4232 276.1196 532.6392 276.2516 533.4072 L277.0436 532.8431 C276.9716 532.1832 276.6116 531.8591 275.9756 531.8591 C274.7396 531.8591 273.3356 533.2271 273.3356 534.4152 C273.3356 534.9551 273.5876 535.3511 274.2836 535.8912 C275.0996 536.5392 275.3156 536.8632 275.3156 537.4152 C275.3156 538.3511 274.4156 539.1791 273.3716 539.1791 C272.8556 539.1791 272.3276 538.9511 272.0036 538.5911 C271.7516 538.3151 271.6556 538.0631 271.5596 537.5351 L271.3676 537.6671" id="path5746" xml:space="default" /><path d="M282.2748 537.3312 C281.3748 537.9312 281.1949 538.0392 281.0748 538.0392 C280.9908 538.0392 280.9308 537.9432 280.9308 537.7992 C280.9308 537.4872 281.2188 536.1672 281.6508 534.5712 C281.7828 534.3912 281.8068 534.3552 281.9988 534.1392 C281.4228 534.0071 281.0028 533.9592 280.4868 533.9592 C279.9948 533.9592 279.7668 534.0071 279.4548 534.1992 C279.0228 534.4512 278.5188 534.8232 278.3628 534.9911 C277.9188 535.4952 277.4148 537.1152 277.4148 538.0872 C277.4148 538.6631 277.6068 539.0472 277.9068 539.0472 C278.1708 539.0472 278.5668 538.8072 280.0668 537.7272 C279.9468 538.2792 279.8868 538.6512 279.8868 538.7952 C279.8868 538.9512 279.9588 539.0472 280.0788 539.0472 C280.2228 539.0472 280.2228 539.0472 281.1828 538.4352 C281.5308 538.2072 281.8068 538.0152 282.2628 537.6792 L282.2748 537.3312 M279.9348 537.4032 C279.2268 537.9192 278.8668 538.1232 278.6508 538.1232 C278.4588 538.1232 278.3388 537.9072 278.3388 537.5232 C278.3388 536.9232 278.5308 536.1072 278.8308 535.4232 C279.1188 534.7632 279.3828 534.5112 279.7908 534.5112 C280.0068 534.5112 280.3788 534.5712 280.8108 534.6672 C280.5708 535.5792 280.4868 535.8552 280.4748 535.9152 C280.4028 536.2152 280.3428 536.5152 280.2708 536.8272 C280.2588 536.8872 280.2227 537.0312 280.1628 537.2472 L279.9348 537.4032" id="path5748" xml:space="default" /><path d="M285.7659 537.3792 C284.8539 537.9191 284.4699 538.1232 284.3019 538.1232 C284.1459 538.1232 283.9539 537.8112 283.9539 537.5591 C283.9539 537.3911 284.1579 536.4672 284.4699 535.2072 C284.6379 535.1951 284.7579 535.1951 284.8179 535.1951 L285.2979 535.1831 C285.3459 535.1831 285.4659 535.1711 285.6579 535.1471 L286.1139 534.7991 L284.5779 534.7991 L285.0579 532.8551 C284.8299 532.9751 284.7339 533.0111 284.5539 533.0951 C284.4699 533.1431 284.3739 533.1791 284.2779 533.2271 C284.2299 533.2511 284.1699 533.2751 284.1099 533.2991 L283.7739 534.7991 C283.6659 534.8112 283.5939 534.8112 283.5579 534.8112 L283.2699 534.8112 C283.2459 534.8112 283.1859 534.8112 283.0899 534.8232 C282.9579 534.9072 282.9459 534.9072 282.7419 535.0752 C282.7059 535.0992 282.6459 535.1472 282.5619 535.2072 L282.8499 535.2072 L283.4019 535.2072 L283.6659 535.2072 C283.0299 537.8712 283.0299 537.8712 283.0299 538.2432 C283.0299 538.6272 283.282 539.0472 283.5099 539.0472 C283.774 539.0472 284.5899 538.5432 285.7419 537.6793 L285.7659 537.3793" id="path5750" xml:space="default" /><path d="M287.2216 538.6631 L287.9297 535.8431 C289.4297 534.8951 289.4657 534.8831 289.6337 534.8831 C289.7177 534.8831 289.7657 534.9431 289.7657 535.0391 C289.7657 535.2191 289.6696 535.6751 289.3217 537.0432 C289.0576 538.1111 289.0096 538.3151 289.0096 538.5432 C289.0096 538.7112 289.0576 538.8671 289.1896 539.0831 C289.7416 538.8311 290.5696 538.3151 291.4096 537.6911 L291.4937 537.3551 C290.2936 538.0391 290.2457 538.0631 290.1256 538.0631 C290.0056 538.0631 289.9337 537.9311 289.9337 537.7391 C289.9337 537.4871 290.0177 537.0911 290.2457 536.2631 C290.8097 534.2471 290.8097 534.2471 290.8097 534.1631 C290.8097 534.0311 290.7256 533.9592 290.5697 533.9592 C290.3897 533.9592 290.1257 534.0671 289.6937 534.3431 L288.0497 535.3632 C288.1577 534.9672 288.3376 534.2112 288.3376 534.1152 C288.3376 534.0312 288.2657 533.9592 288.1816 533.9592 C288.0497 533.9592 287.1856 534.4031 286.2976 534.9312 L286.2256 535.2432 C286.9937 534.8951 287.0417 534.8832 287.1497 534.8832 C287.2337 534.8832 287.2937 534.9552 287.2937 535.0512 C287.2937 535.3032 287.0657 536.2992 286.7657 537.3912 L286.4897 538.3632 C286.4657 538.4472 286.4056 538.6752 286.3217 539.0112 L287.2216 538.6632" id="path5752" xml:space="default" /><path d="M296.6889 537.3312 C295.7889 537.9312 295.6089 538.0392 295.4889 538.0392 C295.4049 538.0392 295.3449 537.9432 295.3449 537.7992 C295.3449 537.4872 295.6329 536.1672 296.0649 534.5712 C296.1969 534.3912 296.2209 534.3552 296.4129 534.1392 C295.8369 534.0071 295.4169 533.9592 294.9009 533.9592 C294.4089 533.9592 294.1809 534.0071 293.8689 534.1992 C293.4369 534.4512 292.9329 534.8232 292.7769 534.9911 C292.3329 535.4952 291.8289 537.1152 291.8289 538.0872 C291.8289 538.6631 292.0208 539.0472 292.3209 539.0472 C292.5849 539.0472 292.9809 538.8072 294.4809 537.7272 C294.3609 538.2792 294.3009 538.6512 294.3009 538.7952 C294.3009 538.9512 294.3729 539.0472 294.4929 539.0472 C294.6369 539.0472 294.6369 539.0472 295.5969 538.4352 C295.9449 538.2072 296.2209 538.0152 296.6768 537.6792 L296.6888 537.3312 M294.3488 537.4032 C293.6408 537.9192 293.2809 538.1232 293.0648 538.1232 C292.8729 538.1232 292.7528 537.9072 292.7528 537.5232 C292.7528 536.9232 292.9448 536.1072 293.2448 535.4232 C293.5328 534.7632 293.7968 534.5112 294.2048 534.5112 C294.4208 534.5112 294.7928 534.5712 295.2248 534.6672 C294.9848 535.5792 294.9008 535.8552 294.8888 535.9152 C294.8168 536.2152 294.7568 536.5152 294.6848 536.8272 C294.6728 536.8872 294.6368 537.0312 294.5768 537.2472 L294.3488 537.4032" id="path5754" xml:space="default" /><path d="M297.072 536.3112 C297.132 536.1312 297.192 535.9631 297.2039 535.9031 C297.468 535.1472 297.552 535.0751 298.2 535.0872 C298.68 535.0751 298.812 535.0632 299.0999 535.0032 C298.404 535.7832 298.2 536.0352 298.032 536.3112 C297.684 536.8871 297.4799 537.5712 297.4799 538.1592 C297.4799 538.7112 297.732 539.0472 298.128 539.0472 C299.076 539.0472 300.324 538.0512 301.1519 536.6352 C301.6199 535.8432 301.9439 534.8832 301.9439 534.2952 C301.9439 534.0192 301.8599 533.8392 301.6319 533.6472 C301.3439 533.7311 301.1999 533.7911 300.8279 533.9711 C300.972 534.2951 301.0199 534.4871 301.0199 534.7991 C301.0199 535.5311 300.8039 536.2991 300.3959 536.9951 C299.9279 537.7871 299.2679 538.3631 298.8239 538.3631 C298.5599 538.3631 298.3439 538.0511 298.3439 537.6431 C298.3439 537.0911 298.5359 536.4312 298.8719 535.8192 C299.1119 535.3992 299.34 535.0872 299.904 534.4391 C299.916 534.4031 299.916 534.3671 299.916 534.3552 C299.916 534.3192 299.916 534.3072 299.892 534.2231 L299.772 534.2231 C299.64 534.3792 299.508 534.4152 299.124 534.4152 L298.836 534.4152 C298.092 534.3792 297.972 534.3792 297.876 534.3792 C297.648 534.3792 297.528 534.4152 297.456 534.5112 C297.3 534.7032 297.108 535.2072 296.868 536.0591 L297.072 536.3112" id="path5756" xml:space="default" /><path d="M304.3578 539.0952 C304.8738 538.5311 305.0179 538.4352 305.3178 538.4352 C305.4378 538.4352 305.5938 538.4592 305.7858 538.5072 C306.6738 538.7112 307.8498 538.9272 308.0418 538.9272 C308.1378 538.9272 308.1978 538.9152 308.3178 538.8672 L309.3738 537.2832 L309.2778 537.0072 C308.5098 537.9792 308.4258 538.0632 308.1018 538.0632 C308.0418 538.0632 307.9578 538.0512 307.8498 538.0272 C307.0218 537.8832 306.3018 537.7752 305.7018 537.6792 L307.1778 536.3112 L308.2458 535.3152 L308.8458 534.7512 C309.1938 534.2232 309.3378 533.8152 309.3378 533.2872 C309.3378 532.5192 308.8458 532.0272 308.1018 532.0272 C307.4898 532.0272 306.8539 532.2552 306.3618 532.6632 C305.9298 532.9992 305.7018 533.4312 305.7018 533.9232 C305.7018 534.0192 305.7138 534.0792 305.7379 534.2112 L306.5898 534.3073 C306.4818 533.9833 306.4458 533.8152 306.4458 533.5992 C306.4458 532.9393 306.8418 532.5073 307.4418 532.5073 C308.0058 532.5073 308.4138 532.9993 308.4138 533.6833 C308.4138 534.0553 308.2938 534.4753 308.1018 534.7753 C307.8498 535.1833 307.5498 535.5073 306.6258 536.3713 C305.0778 537.8233 304.8978 538.0033 304.3098 538.7473 L304.3578 539.0953" id="path5758" xml:space="default" /><path d="M313.5793 531.9792 C312.7153 531.9792 311.7433 532.5792 311.1553 533.4672 C310.5913 534.3312 310.1473 535.8792 310.1473 537.0071 C310.1473 538.3032 310.6273 538.9752 311.5393 538.9752 C312.5713 538.9752 313.5073 538.3392 314.0593 537.2592 C314.5393 536.3472 314.8873 534.9072 314.8873 533.8992 C314.8873 532.6272 314.4433 531.9792 313.5793 531.9792 M312.9912 532.4832 C313.5313 532.4832 313.8432 533.1192 313.8432 534.2712 C313.8432 535.2313 313.5912 536.4672 313.2072 537.3912 C312.9073 538.1232 312.5112 538.5313 312.1032 538.5313 C311.5752 538.5313 311.1913 537.8472 311.1913 536.8873 C311.1913 536.2273 311.4193 534.8832 311.6592 534.1033 C311.9832 533.0233 312.4392 532.4833 312.9912 532.4833" id="path5760" xml:space="default" /><path d="M318.8527 531.9792 C317.9887 531.9792 317.0167 532.5792 316.4287 533.4672 C315.8647 534.3312 315.4207 535.8792 315.4207 537.0071 C315.4207 538.3032 315.9007 538.9752 316.8127 538.9752 C317.8447 538.9752 318.7807 538.3392 319.3327 537.2592 C319.8127 536.3472 320.1607 534.9072 320.1607 533.8992 C320.1607 532.6272 319.7167 531.9792 318.8527 531.9792 M318.2647 532.4832 C318.8047 532.4832 319.1167 533.1192 319.1167 534.2712 C319.1167 535.2313 318.8647 536.4672 318.4807 537.3912 C318.1807 538.1232 317.7847 538.5313 317.3767 538.5313 C316.8487 538.5313 316.4647 537.8472 316.4647 536.8873 C316.4647 536.2273 316.6927 534.8832 316.9327 534.1033 C317.2567 533.0233 317.7127 532.4833 318.2647 532.4833" id="path5762" xml:space="default" /><path d="M324.1262 531.9792 C323.2621 531.9792 322.2902 532.5792 321.7021 533.4672 C321.1382 534.3312 320.6942 535.8792 320.6942 537.0071 C320.6942 538.3032 321.1742 538.9752 322.0862 538.9752 C323.1182 538.9752 324.0541 538.3392 324.6061 537.2592 C325.0862 536.3472 325.4341 534.9072 325.4341 533.8992 C325.4341 532.6272 324.9901 531.9792 324.1261 531.9792 M323.5381 532.4832 C324.0781 532.4832 324.3901 533.1192 324.3901 534.2712 C324.3901 535.2313 324.1381 536.4672 323.7541 537.3912 C323.4541 538.1232 323.0581 538.5313 322.6501 538.5313 C322.1221 538.5313 321.7381 537.8472 321.7381 536.8873 C321.7381 536.2273 321.9661 534.8832 322.2061 534.1033 C322.5301 533.0233 322.9861 532.4833 323.5381 532.4833" id="path5764" xml:space="default" /></g>
    <path d="M500.9046 247.896 L513.7626 410.0191" filter="url(#filter3828)" stroke="#797779" stroke-width="1.948297" stroke-linecap="round" transform="matrix(1, 0, 0, 1.053779, 0, -14.89589)" id="path3810" xml:space="default" style="fill:none;" />
    <path d="M513.5994 423.9996 C513.5994 423.9996 514.0709 423.4266 513.1613 425.6796 C512.3213 427.7604 509.5698 428.7471 509.5698 428.7471" filter="url(#filter3846)" stroke="url(#linearGradient5694)" stroke-width="2.026289" stroke-linecap="round" transform="matrix(1, 0, 0, 0.9742205, 0, 11.06605)" id="path3832" xml:space="default" nodetypes="css" style="fill:none;" />
    <path d="M498.8542 243.793 C498.8542 243.793 497.2945 241.7424 495.9917 240.9277 C494.4962 239.9925 492.3918 239.739 492.3918 239.739" filter="url(#filter3906)" stroke="#918E8E" stroke-width="2.8" id="path3896" xml:space="default" nodetypes="csc" style="fill:none;" />
    <path d="M266.6646 480.4588 L453.9448 443.0028" filter="url(#filter3966)" stroke="url(#linearGradient5696)" stroke-width="1px" id="path3952" xml:space="default" style="fill:none;" />
    <path d="M227.6955 294.563 L230.4627 288.6334 L237.5781 283.4945 L243.1124 281.9133" filter="url(#filter4052)" stroke="#000000" stroke-width="1.778049" transform="matrix(1.126263, 0, 0, 1.123396, -30.90863, -34.57913)" id="path4046" xml:space="default" style="fill:none;" />
    <path d="M243.1847 479.8998 L226.4134 297.651" filter="url(#filter4042)" stroke="#000000" stroke-width="2" id="path4032" xml:space="default" style="fill:none;" />
    <path d="M247.098 279.7615 L468.48 240.6284" filter="url(#filter3948)" stroke="url(#linearGradient5698)" stroke-width="1px" id="path3918" xml:space="default" style="fill:none;" />
    <path d="M218.0277 394.6454 A1.956659 3.074749 0 1 1 214.1143 394.6454 A1.956659 3.074749 0 1 1 218.0277 394.6454 z" filter="url(#filter4096)" display="inline" enable-background="accumulate" stroke="url(#linearGradient5700)" stroke-width="0.4997297" color="#000000" transform="matrix(-1.321429, 0, 0, 1.090909, 502.0826, -36.29613)" id="path4082" xml:space="default" ry="3.0747492" rx="1.9566586" cy="394.64536" cx="216.07101" type="arc" marker="none" overflow="visible" style="fill:#000000;" />
    <path d="M192.9248 505.504 C192.9248 506.1994 192.3513 506.7632 191.6438 506.7632 C190.9364 506.7632 190.3628 506.1994 190.3628 505.504 C190.3628 504.8086 190.9364 504.2448 191.6438 504.2448 C192.3513 504.2448 192.9248 504.8086 192.9248 505.504 z" display="inline" enable-background="accumulate" stroke-width="0.475807" color="#000000" id="path4110" xml:space="default" marker="none" overflow="visible" style="fill:#000000;" />
    <path d="M191.0209 505.6736 L183.1629 506.7593" marker-end="url(#Arrow2Send)" stroke="#000000" stroke-width="0.8" id="path4114" xml:space="default" style="fill:none;" />
    <path d="M187.7516 505.845 C187.7516 505.845 187.7785 504.3747 186.6813 504.2765 C185.8808 504.2049 184.7549 504.252 184.7549 504.252" marker-end="url(#SquareS)" stroke="#000000" stroke-width="0.8" id="path4564" xml:space="default" nodetypes="csc" style="fill:none;" />
    <path d="M188.9927 506.1593 C188.9927 506.1593 189.2231 507.4062 188.8716 507.9022 C188.3682 508.6126 186.6315 508.5594 186.6315 508.5594" marker-end="url(#DotS)" stroke="#000000" stroke-width="0.8" id="path5318" xml:space="default" nodetypes="csc" style="fill:none;" />
    <path d="M173.0446 496.5637 L175.0212 517.1196" stroke="#737375" stroke-width="0.3" id="path5526" xml:space="default" style="fill:none;" />
    <g font-family="Symbol" font-size="18px" font-style="normal" font-weight="400" transform="matrix(0.9079552, -0.1142531, 0.171376, 1.079811, 0, 0)" id="text5528" xml:space="default" font-stretch="normal" />
-inkscape-font-specification="Symbol" style="fill:#CFCFCF;"&gt;
        <path d="M333.8153 264.5651 L333.8153 261.0407 L330.9149 261.0407 L330.9149 259.5817 L335.5731 259.5817 L335.5731 265.2155 C334.8876 265.7018 334.1317 266.071 333.3055 266.3229 C332.4794 266.569 331.5975 266.6921 330.66 266.6921 C328.6093 266.6921 327.0038 266.0944 325.8436 264.8991 C324.6893 263.6979 324.1122 262.028 324.1122 259.8893 C324.1122 257.7448 324.6893 256.0749 325.8436 254.8796 C327.0038 253.6784 328.6093 253.0778 330.66 253.0778 C331.5155 253.0778 332.327 253.1833 333.0946 253.3942 C333.868 253.6052 334.58 253.9157 335.2303 254.3259 L335.2303 256.2155 C334.5741 255.6589 333.8768 255.2399 333.1385 254.9587 C332.4003 254.6774 331.6239 254.5368 330.8094 254.5368 C329.204 254.5368 327.9969 254.9851 327.1884 255.8815 C326.3856 256.778 325.9843 258.114 325.9843 259.8893 C325.9843 261.6589 326.3856 262.9919 327.1884 263.8884 C327.9969 264.7849 329.204 265.2331 330.8094 265.2331 C331.4364 265.2331 331.996 265.1804 332.4882 265.0749 C332.9803 264.9636 333.4227 264.7936 333.8153 264.5651" id="path5533" xml:space="default" /><path d="M346.3309 254.7741 L346.3309 259.7048 L348.5634 259.7048 C349.3895 259.7048 350.0282 259.4909 350.4794 259.0632 C350.9305 258.6354 351.1561 258.0261 351.1561 257.235 C351.1561 256.4499 350.9305 255.8435 350.4794 255.4157 C350.0282 254.988 349.3895 254.7741 348.5634 254.7741 L346.3309 254.7741 M344.5555 253.3151 L348.5634 253.3151 C350.0341 253.3151 351.1444 253.6491 351.8944 254.3171 C352.6503 254.9792 353.0282 255.9518 353.0282 257.235 C353.0282 258.53 352.6503 259.5085 351.8944 260.1706 C351.1444 260.8327 350.0341 261.1638 348.5634 261.1638 L346.3309 261.1638 L346.3309 266.4372 L344.5555 266.4372 L344.5555 253.3151" id="path5535" xml:space="default" /><path d="M369.0155 253.7458 L369.0155 255.4772 C368.3417 255.155 367.7059 254.9147 367.1083 254.7565 C366.5106 254.5983 365.9335 254.5192 365.3768 254.5192 C364.41 254.5192 363.663 254.7067 363.1356 255.0817 C362.6141 255.4567 362.3534 255.9899 362.3534 256.6813 C362.3534 257.2614 362.5262 257.7009 362.8719 257.9997 C363.2235 258.2927 363.8856 258.53 364.8583 258.7116 L365.9305 258.9313 C367.2548 259.1833 368.2303 259.6286 368.8573 260.2673 C369.4901 260.9001 369.8065 261.7497 369.8065 262.8161 C369.8065 264.0876 369.3788 265.0515 368.5233 265.7077 C367.6737 266.364 366.4257 266.6921 364.7792 266.6921 C364.1581 266.6921 363.496 266.6218 362.7928 266.4811 C362.0956 266.3405 361.3719 266.1325 360.6219 265.8571 L360.6219 264.029 C361.3427 264.4333 362.0487 264.738 362.7401 264.9431 C363.4315 265.1481 364.1112 265.2507 364.7792 265.2507 C365.7928 265.2507 366.5751 265.0515 367.1259 264.653 C367.6766 264.2546 367.952 263.6862 367.952 262.9479 C367.952 262.3034 367.7528 261.7995 367.3544 261.4362 C366.9618 261.0729 366.3143 260.8005 365.412 260.6188 L364.3309 260.4079 C363.0067 260.1442 362.0487 259.7311 361.4569 259.1686 C360.8651 258.6061 360.5692 257.8239 360.5692 256.822 C360.5692 255.6618 360.9764 254.7478 361.7909 254.0798 C362.6112 253.4118 363.7391 253.0778 365.1747 253.0778 C365.7899 253.0778 366.4169 253.1335 367.0555 253.2448 C367.6942 253.3562 368.3475 253.5231 369.0155 253.7458" id="path5537" xml:space="default" /></g>
  <path d="M186.6078 509.4139 C186.2608 509.3316 186.0003 509.0618 185.9384 508.7207 C185.7859 507.8795 186.8778 507.3621 187.424 508.0168 L187.5444 508.1611 L187.8625 508.0855 C188.254 507.9924 188.5215 507.8583 188.6387 507.6964 C188.7155 507.5903 188.7297 507.4959 188.7421 507.0091 C188.7552 506.4868 188.75 506.4447 188.6772 506.4431 C188.4681 506.4381 184.6393 506.9931 184.6393 507.028 C184.6393 507.0499 184.6991 507.1661 184.7722 507.286 C184.8454 507.4059 184.8795 507.4943 184.8479 507.4825 C184.8165 507.4706 184.2601 507.3453 183.6117 507.2039 C182.9632 507.0625 182.4329 506.9369 182.4331 506.9249 C182.4335 506.9013 182.4706 506.8806 183.7446 506.1981 C184.2163 505.9453 184.6089 505.7453 184.6169 505.7535 C184.6249 505.7615 184.6066 505.8667 184.5761 505.9867 C184.5228 506.1964 184.5242 506.2054 184.6124 506.2169 C184.7105 506.2298 187.4463 505.8538 187.4765 505.8233 C187.5172 505.7823 187.393 505.2773 187.2936 505.0794 C187.1465 504.7867 186.9752 504.7174 186.3158 504.6844 L185.8074 504.6591 L185.8074 504.8937 L185.8074 505.1284 L185.4937 505.1523 C185.3212 505.1654 184.9318 505.1871 184.6284 505.2003 L184.0768 505.2244 L184.0768 504.947 C184.0768 504.7944 184.0642 504.4036 184.0487 504.0784 L184.0206 503.4873 L184.6652 503.4599 C185.0197 503.4449 185.412 503.4263 185.537 503.4187 L185.7641 503.4049 L185.7641 503.6522 L185.7641 503.8995 L186.4037 503.9428 C186.9384 503.979 187.0826 504.0043 187.2827 504.0967 C187.7351 504.3056 188.0336 504.7392 188.1643 505.3774 C188.2031 505.5671 188.2388 505.7251 188.2434 505.7285 C188.2484 505.7314 188.7407 505.666 189.3382 505.5822 L190.4245 505.4297 L190.4966 505.1989 C190.592 504.8937 190.8844 504.5667 191.1744 504.4408 C191.628 504.244 192.1987 504.3498 192.5252 504.6912 C192.7815 504.9592 192.8812 505.1998 192.8812 505.5503 C192.8812 505.8928 192.7837 506.1358 192.5421 506.3957 C192.082 506.8905 191.2255 506.8717 190.7652 506.3568 L190.5961 506.1676 L190.1595 506.2224 C189.9193 506.2526 189.6667 506.2884 189.5981 506.3023 L189.4734 506.3273 L189.5017 506.7055 C189.5351 507.1522 189.4748 507.6439 189.3521 507.924 C189.1485 508.3891 188.6358 508.7084 187.8706 508.847 C187.6295 508.8907 187.5845 508.9166 187.4184 509.1071 C187.1946 509.3637 186.8869 509.4803 186.6077 509.414 L186.6077 509.414 z" display="inline" enable-background="accumulate" stroke-width="2.5" color="#000000" id="path3820" xml:space="default" style="fill:#B3B3B3;" />
  <g transform="translate(-342.9616, -10.54185)" id="g5061" xml:space="default">
    <path d="M590.9481 486.9896 C589.3691 484.9547 589.3382 480.0095 589.3382 480.0095 L581.385 394.0756 L573.8271 306.1652 L575.8177 302.8883 C577.0912 300.7919 578.5792 299.1782 579.9481 298.4088 C586.4051 294.7798 588.0169 294.4615 710.6067 272.6066 C776.09 260.9324 830.1124 251.3808 830.6563 251.3808 C831.2001 251.3808 833.2409 251.8811 835.1913 252.4926 C838.5314 253.5396 838.8448 253.7886 840.582 256.7741 L842.4263 259.944 L848.9023 345.2528 L855.3782 430.5616 L854.3119 433.0945 C853.3698 435.3323 852.7579 435.8836 849.0605 437.8262 C844.9384 439.992 843.0553 440.3974 723.6069 464.8347 C656.9092 478.4801 601.9188 489.6148 601.4061 489.5785 C596.7025 490.1017 592.5272 489.0245 590.9481 486.9896 z" display="inline" enable-background="accumulate" stroke-width="0.5" color="#000000" id="path3691-0" xml:space="default" nodetypes="cccccsssscccccsscz" marker="none" overflow="visible" style="fill:#FFF6D5;" />
    <path d="M819.3191 311.1129 C814.4381 310.4949 810.3328 309.8727 810.1962 309.7303 C809.9957 309.5214 811.9804 284.7455 812.2651 283.9031 C812.3098 283.771 814.1773 283.8575 816.4152 284.0953 C818.6531 284.3331 823.8146 284.7567 827.8853 285.0367 L835.2865 285.5457 L835.788 291.5987 C836.0639 294.9278 836.5374 300.9759 836.8401 305.0389 L837.3907 312.4263 L832.7922 312.3313 C830.263 312.2791 824.2001 311.7308 819.3192 311.1128 L819.3192 311.1128 z" display="inline" enable-background="accumulate" color="#000000" id="path3935" xml:space="default" marker="none" overflow="visible" style="fill:#98C464;" />
    <path d="M732.2563 371.5613 C726.051 369.9967 723.3534 362.2786 727.1476 356.9445 C730.8464 351.7446 736.7217 350.2359 742.1599 353.0896 C748.0664 356.189 748.4005 365.1409 742.7587 369.1353 C738.8219 371.9225 736.1431 372.5414 732.2564 371.5613 L732.2564 371.5613 z" display="inline" enable-background="accumulate" color="#000000" id="path3937" xml:space="default" marker="none" overflow="visible" style="fill:#98C464;" />
    <path d="M464.4759 125.6766 C441.6471 119.9252 453.017 122.9898 449.2824 121.2742 C445.5478 119.5587 449.8297 114.601 458.5464 114.517 C468.332 114.4227 464.6589 114.3443 477.9276 114.6245 L502.7513 115.134 L506.2774 125.8386 C509.8066 136.0098 509.3208 136.2613 507.6835 136.1987 C506.7482 136.163 487.3048 131.428 464.476 125.6766 z" display="inline" enable-background="accumulate" color="#000000" transform="translate(159.866, 203.786)" id="path3939" xml:space="default" nodetypes="czscccsc" marker="none" overflow="visible" style="fill:#98C464;" />
    <path d="M595.4088 488.8294 C592.1758 488.1154 590.342 486.248 589.9365 483.2569 C589.2523 478.2098 585.0999 431.7189 585.26 430.8981 C585.6219 429.043 593.4799 446.743 595.755 454.5379 C599.3309 466.7897 601.8196 469.4703 604.0793 474.2891 C606.6625 479.7977 607.0496 480.0521 607.9998 483.2996 L609.0383 487.7526 L605.0593 488.2939 C600.1182 489.2287 597.7996 489.3574 595.4088 488.8293 L595.4088 488.8293 z" display="inline" enable-background="accumulate" stroke="#8CB2D8" stroke-width="0.9999999" stroke-linecap="round" color="#000000" id="path3943" xml:space="default" nodetypes="cssssccccc" marker="none" overflow="visible" style="fill:#8CB2D8;" />

        path d="M598.4349 433.9964 L580.7894 381.898 L578.9835 361.1406 C577.9903 349.724 577.1879 340.1257 577.2003 339.8111 C577.2127 339.4966 578.2089 342.0854 579.414 345.564 C592.0506 382.0419 593.3062 385.4243 594.2794 385.6125 C594.6284 385.6801 607.5113 381.6112 622.908 376.5706 C683.4675 356.7448 676.4783 359.1755 676.1931 358.039 C675.7165 356.1403 672.6605 348.5463 672.0599 347.7686 C671.4148 346.9332 653.6589 342.4688 601.0693 329.9193 L575.7454 323.8762 L575.1769 317.1028 L574.6083 310.3293 L580.9332 310.4626 C596.6972 310.7946 660.347 311.3209 660.6691 311.1219 C660.8669 310.9996 660.908 310.3497 660.7604 309.6777 C660.4885 308.4398 655.588 296.6951 651.9341 288.5243 C650.59 285.5186 650.0953 284.0122 650.42 283.9133 C651.3176 283.64 658.1259 282.5129 658.8649 282.5152 C659.4377 282.5172 659.9394 283.4504 661.149 286.7647 C663.0482 291.9684 668.4452 305.5952 669.8425 308.7145 C670.4056 309.9716 671.1166 311.0962 671.4225 311.2135 C671.9863 311.4299 704.3381 305.1218 708.5179 303.9805 C710.1762 303.5277 710.7909 303.1739 710.7909 302.6721 C710.7909 301.9726 701.5957 279.5116 701.1097 279.024 C700.9636 278.8774 696.459 278.6685 691.0995 278.5598 L681.3549 278.3622 L703.4648 274.4279 L725.5746 270.4935 L754.452 272.1992 C770.3345 273.1373 796.7598 274.7325 813.1748 275.7441 L843.0203 277.5834 L843.3158 278.961 C843.5898 280.2388 853.8994 415.8759 853.8937 418.1291 C853.8917 419.1172 852.8392 419.5213 814.0642 433.4286 C792.1594 441.2851 764.7203 451.0963 753.0884 455.2312 L731.9396 462.7492 L674.4916 474.422 C642.8953 480.8421 616.827 486.0948 616.5621 486.0948 C616.2753 486.0948 608.9445 465.0254 598.4351 433.9964 z M649.4625 476.032 C670.9476 471.0164 697.5204 464.6391 701.8964 463.4481 C704.2586 462.8052 704.2485 463.3959 702.0433 454.8658 C699.0461 443.2725 694.8146 429.171 694.3328 429.171 C692.7825 429.171 617.6631 449.5582 616.2699 450.3571 C615.8921 450.5737 624.4236 478.6997 625.4616 480.6594 C625.6631 481.0399 626.0189 481.3512 626.2523 481.3512 C626.4856 481.3512 636.9302 478.9576 649.4625 476.032 L649.4625 476.032 z M720.871 457.4737 C736.0132 452.1738 749.5306 447.1201 749.5306 446.7588 C749.5306 446.059 740.1706 421.0664 738.4654 417.213 C738.0084 416.1803 737.3986 415.3353 737.1104 415.3353 C736.4108 415.3353 729.0482 417.6681 713.9034 422.6882 L701.4016 426.8323 L701.91 429.484 C702.6598 433.3952 707.9371 453.045 709.6557 458.3247 C710.098 459.6836 710.6678 460.7952 710.9218 460.7949 C711.1758 460.7946 715.653 459.3001 720.871 457.4737 L720.871 457.4737 z M780.4158 436.7605 C787.7277 434.1514 794.0871 431.8148 794.548 431.5681 C795.0089 431.3215 795.3859 430.8482 795.3859 430.5164 C795.3859 429.9437 753.2184 373.5077 751.2769 371.482 L750.3541 370.5191 L746.8787 372.1479 C742.696 374.1082 740.9088 374.6138 738.1531 374.6168 C736.7159 374.6188 735.9982 374.7939 735.85 375.1802 C735.6335 375.7444 739.792 390.1284 749.9163 423.8344 C752.9203 433.8356 755.5784 442.7633 755.8231 443.6737 L756.2679 445.329 L761.6948 443.4167 C764.6795 442.365 773.104 439.3697 780.4158 436.7605 L780.4158 436.7605 z M632.835 440.025 C643.2067 437.2979 651.9959 434.976 652.3666 434.865 C653.1868 434.6195 653.5963 435.7308 647.6476 422.0555 C640.0411 404.5692 629.6805 381.5821 629.1417 380.9966 C628.7239 380.5425 627.9538 380.6531 624.3123 381.6904 C618.9553 383.2162 595.2762 391.1577 594.8613 391.5677 C594.6947 391.7323 598.4756 403.364 603.2634 417.4159 C613.5603 447.6377 612.5884 444.9832 613.3566 444.9832 C613.6981 444.9832 622.4634 442.752 632.8351 440.025 L632.8351 440.025 z M670.2328 429.9636 C682.4387 426.7714 691.3514 424.1684 692.3774 423.4962 L693.334 422.8694 L689.5784 408.1326 C684.826 389.4842 678.0712 363.9048 677.8373 363.671 C677.4074 363.2411 638.5096 376.4958 637.5026 377.4154 C637.0196 377.8564 646.5283 401.2104 656.5231 424.1309 L659.9276 431.9381 L661.3052 431.9381 C662.0629 431.9381 666.0803 431.0496 670.2327 429.9636 z M809.3979 424.4001 C829.0402 418.1982 843.199 413.5615 844.5025 412.9043 C845.3178 412.4932 845.9849 411.892 845.9849 411.5684 C845.9849 411.2448 844.9056 402.6653 843.5864 392.503 C842.2673 382.3407 840.975 372.3361 840.7148 370.2706 L840.2416 366.5152 L838.0731 366.6245 C831.0795 366.9769 791.9983 369.2479 778.6086 370.08 C769.9246 370.6197 762.3154 371.0612 761.6992 371.0612 L760.5787 371.0612 L761.2048 372.2718 C762.884 375.5191 802.0039 426.4039 802.8212 426.4039 C802.948 426.4039 805.9075 425.5022 809.3979 424.4001 L809.3979 424.4001 z M710.8107 418.6801 C723.1928 414.862 733.8223 411.3691 734.2521 410.9771 C734.4369 410.8086 734.1152 409.0074 733.5372 406.9746 C731.8933 401.1932 725.3468 380.3981 722.3736 371.5132 L719.6807 363.4661 L717.1134 362.4995 C708.7451 359.3487 679.9579 349.582 679.7253 349.8146 C679.6594 349.8806 680.2886 352.3311 681.1238 355.2601 C681.9589 358.1892 686.4194 373.9272 691.036 390.2335 C695.6526 406.5399 699.6776 420.2816 699.9804 420.7708 C700.2832 421.26 700.6693 421.6602 700.8384 421.6602 C701.0074 421.6602 705.495 420.3192 710.8107 418.6801 z M741.1423 369.9192 C745.0886 367.9271 746.8185 365.1826 746.9197 360.7532 C746.9796 358.136 745.2509 355.5089 742.4151 353.9074 C740.4453 352.795 739.9252 352.6811 736.8809 352.6956 C734.0414 352.7092 733.2145 352.8721 731.5443 353.7472 C727.5916 355.818 725.417 359.0338 725.417 362.8083 C725.417 369.7479 733.8908 373.5797 741.1423 369.9192 L741.1423 369.9192 z M782.0315 365.3275 C824.7942 361.8803 840.8732 360.4926 841.1397 360.226 C841.276 360.0897 841.1791 357.7662 840.9243 355.0626 C840.4084 349.5884 837.3782 323.8749 837.1031 322.6364 C836.9396 321.9003 835.8681 321.7256 821.5601 320.1016 L806.1928 318.3575 L795.3539 325.8131 C770.3796 342.9921 754.8119 353.8137 753.9778 354.575 C753.1706 355.3118 753.0867 355.7552 753.0711 359.3698 C753.0621 361.5605 752.8998 364.1517 752.7114 365.1282 C752.5231 366.1047 752.4524 367.0386 752.5543 367.2036 C752.8431 367.6707 753.4175 367.6342 782.0315 365.3275 L782.0315 365.3275 z M721.9789 355.0308 C722.8056 353.8401 724.5386 352.0235 725.8298 350.9939 C727.1212 349.9642 728.1791 348.8837 728.1809 348.5927 C728.1839 348.1223 715.1832 310.6107 714.8844 310.2273 C714.5133 309.7511 671.4703 317.7539 670.8032 318.4231 C670.4979 318.7293 671.0178 320.5059 675.3046 333.8078 L678.5227 343.7933 L686.6518 346.4131 C701.3237 351.1414 720.0765 357.1389 720.278 357.1675 C720.3867 357.183 721.1521 356.2214 721.9788 355.0308 z M752.4117 349.2443 C762.74 342.3036 798.1531 316.6369 798.1531 316.0919 C798.1531 315.9494 797.0413 315.7259 795.6824 315.595 C794.3235 315.4642 788.7646 314.9096 783.3292 314.3626 C753.7255 311.3834 725.3026 308.9154 724.4342 309.2487 C724.0898 309.3808 723.8956 309.7753 723.999 310.1323 C724.1017 310.4871 726.6251 319.2423 729.6064 329.5884 L735.027 348.3996 L739.2402 349.0325 C741.6616 349.3963 744.3673 350.0825 745.6025 350.646 C746.7846 351.1853 747.9809 351.6411 748.261 351.6589 C748.5411 351.6767 750.409 350.5901 752.4117 349.2443 z M670.3811 340.9193 C670.2859 340.6475 668.5498 335.5332 666.5231 329.5542 C664.4965 323.5753 662.7229 318.5497 662.5819 318.3864 C662.2852 318.0428 624.9357 317.0619 596.8556 316.6602 C578.6973 316.4005 577.5807 316.4245 577.3292 317.0798 C576.9588 318.0452 577.3438 318.2189 583.8842 320.0381 C594.0113 322.8547 668.2532 341.4017 669.4248 341.4077 C670.1588 341.4117 670.4936 341.2404 670.381 340.9193 z M836.8873 310.0855 C836.8773 305.8421 835.3711 285.9701 835.0367 285.6732 C834.7441 285.4135 827.8652 284.8707 816.8525 284.2385 L812.4267 283.9844 L812.2254 284.9287 C811.9688 286.1326 810.8975 299.0813 810.5582 305.0811 C810.3361 309.0079 810.3864 309.6963 810.91 309.8972 C811.246 310.0261 814.6057 310.5002 818.3762 310.9507 C828.9459 312.2135 831.3438 312.4486 834.2247 312.5044 L836.893 312.5561 L836.887 310.0854 L836.887 310.0854 z M799.8906 307.6387 C800.3073 305.9785 801.3146 291.2155 801.3151 286.7625 C801.3154 282.6188 801.2933 282.513 800.426 282.5136 C799.9368 282.514 779.9034 281.705 755.9073 280.7159 C731.9112 279.7267 712.1823 279.0131 712.0653 279.1301 C711.8137 279.3817 714.9183 288.0598 718.4375 296.9416 C720.8885 303.1276 720.9732 303.273 722.2908 303.5656 C723.0318 303.7301 737.2465 304.7532 753.8789 305.8391 C770.5114 306.9249 786.3433 307.9657 789.061 308.1518 C791.7787 308.338 795.2727 308.5157 796.8254 308.5467 C799.5093 308.6003 799.6605 308.5557 799.8906 307.6387 L799.8906 307.6387 z" display="inline" enable-background="accumulate" color="#000000" id="path4078" xml:space="default" marker="none" overflow="visible" style="fill:#E6E646;" /&gt;
        <rect x="557.8967" y="556.6664" width="264.6191" height="42.79732" rx="12.47736" ry="12.47736" display="inline" enable-background="accumulate" opacity="0.37" color="#000000" transform="matrix(0.9801666, -0.1981753, 0.07459583, 0.9972138, 0, 0)" id="rect4080" xml:space="default" marker="none" overflow="visible" style="fill:#00FFFF;" /><g text-anchor="middle" font-family="Arial Black" font-size="12px" font-style="normal" font-weight="700" transform="matrix(0.9684493, -0.2492107, 0.2492107, 0.9684493, 0, 0)" id="text4082" xml:space="default" text-align="center" font-stretch="normal" />
-inkscape-font-specification="'Arial Black, Bold'" style="fill:#2D2DFF;"&gt;
          <path d="M512.687 591.0145 L512.687 599.7508 L510.2729 599.7508 L510.2729 594.0262 C509.8823 594.3231 509.5034 594.5633 509.1362 594.7469 C508.7729 594.9305 508.3159 595.1063 507.7651 595.2742 L507.7651 593.3172 C508.5776 593.0555 509.2084 592.741 509.6577 592.3738 C510.1069 592.0067 510.4584 591.5535 510.7123 591.0145 L512.687 591.0145" id="path5031" xml:space="default" /><path d="M519.5483 593.5281 L521.7748 593.5281 L521.7748 594.4363 C522.0952 594.0574 522.4174 593.7879 522.7416 593.6277 C523.0698 593.4676 523.4643 593.3875 523.9252 593.3875 C524.4213 593.3875 524.8139 593.4754 525.103 593.6512 C525.392 593.827 525.6284 594.0887 525.812 594.4363 C526.187 594.0301 526.5287 593.7547 526.8373 593.6102 C527.1459 593.4617 527.5268 593.3875 527.9799 593.3875 C528.6479 593.3875 529.1694 593.5867 529.5444 593.9852 C529.9194 594.3797 530.1069 594.9988 530.1069 595.8426 L530.1069 599.7508 L527.7162 599.7508 L527.7162 596.2059 C527.7162 595.9246 527.6616 595.7156 527.5522 595.5789 C527.392 595.3641 527.1928 595.2567 526.9545 595.2567 C526.6733 595.2567 526.4467 595.3582 526.2748 595.5613 C526.103 595.7645 526.017 596.0906 526.017 596.5399 L526.017 599.7508 L523.6264 599.7508 L523.6264 596.3231 C523.6264 596.0496 523.6108 595.8641 523.5795 595.7664 C523.5287 595.6102 523.4409 595.4852 523.3159 595.3914 C523.1909 595.2937 523.0444 595.2449 522.8764 595.2449 C522.603 595.2449 522.3784 595.3484 522.2026 595.5555 C522.0268 595.7625 521.9389 596.1024 521.9389 596.575 L521.9389 599.7508 L519.5483 599.7508 L519.5483 593.5281" id="path5033" xml:space="default" /><path d="M531.6186 591.1609 L534.0034 591.1609 L534.0034 592.784 L531.6186 592.784 L531.6186 591.1609 M531.6186 593.5281 L534.0034 593.5281 L534.0034 599.7508 L531.6186 599.7508 L531.6186 593.5281" id="path5035" xml:space="default" /><path d="M510.601 606.1609 L512.9916 606.1609 L512.9916 614.7508 L510.601 614.7508 L510.601 606.1609" id="path5037" xml:space="default" /><path d="M521.435 612.2313 L516.6537 612.2313 C516.6968 612.6141 516.8002 612.8992 516.9643 613.0867 C517.1948 613.3563 517.4955 613.491 517.8666 613.491 C518.101 613.491 518.3237 613.4324 518.5346 613.3152 C518.6635 613.241 518.8022 613.1102 518.9506 612.9227 L521.3002 613.1395 C520.9409 613.7645 520.5073 614.2137 519.9995 614.4871 C519.4916 614.7567 518.7631 614.8914 517.8139 614.8914 C516.9897 614.8914 516.3412 614.7762 515.8686 614.5457 C515.3959 614.3113 515.0034 613.9422 514.6909 613.4383 C514.3823 612.9305 514.228 612.3348 514.228 611.6512 C514.228 610.6785 514.5385 609.8914 515.1596 609.2899 C515.7846 608.6883 516.6459 608.3875 517.7436 608.3875 C518.6342 608.3875 519.3373 608.5223 519.853 608.7918 C520.3686 609.0613 520.7612 609.452 521.0307 609.9637 C521.3002 610.4754 521.435 611.1414 521.435 611.9617 L521.435 612.2313 M519.0092 611.0887 C518.9623 610.6277 518.8373 610.2977 518.6342 610.0984 C518.435 609.8992 518.1713 609.7996 517.8432 609.7996 C517.4643 609.7996 517.1616 609.95 516.935 610.2508 C516.7905 610.4383 516.6987 610.7176 516.6596 611.0887 L519.0092 611.0887" id="path5039" xml:space="default" /><path d="M525.1967 608.5281 L526.3334 608.5281 L526.3334 610.2742 L525.1967 610.2742 L525.1967 614.7508 L522.8061 614.7508 L522.8061 610.2742 L521.9155 610.2742 L521.9155 608.5281 L522.8061 608.5281 L522.8061 608.2469 C522.8061 607.993 522.8334 607.7137 522.8881 607.409 C522.9427 607.1043 523.0443 606.8563 523.1927 606.6649 C523.3451 606.4695 523.556 606.3133 523.8256 606.1961 C524.099 606.075 524.4974 606.0145 525.0209 606.0145 C525.4388 606.0145 526.0463 606.0633 526.8431 606.1609 L526.5795 607.6024 C526.2943 607.5555 526.0638 607.532 525.8881 607.532 C525.6732 607.532 525.5189 607.5692 525.4252 607.6434 C525.3315 607.7137 525.265 607.827 525.226 607.9832 C525.2065 608.0691 525.1967 608.2508 525.1967 608.5281" id="path5041" xml:space="default" /><path d="M530.0834 606.1609 L530.0834 608.5281 L531.3959 608.5281 L531.3959 610.2684 L530.0834 610.2684 L530.0834 612.4774 C530.0834 612.743 530.1088 612.9188 530.1596 613.0047 C530.2377 613.1375 530.3745 613.2039 530.5698 613.2039 C530.7455 613.2039 530.9916 613.1531 531.308 613.0516 L531.4838 614.6981 C530.894 614.827 530.3432 614.8914 529.8315 614.8914 C529.2377 614.8914 528.8002 614.8152 528.519 614.6629 C528.2377 614.5106 528.0287 614.2801 527.892 613.9715 C527.7592 613.659 527.6928 613.1551 527.6928 612.4598 L527.6928 610.2684 L526.8139 610.2684 L526.8139 608.5281 L527.6928 608.5281 L527.6928 607.3856 L530.0834 606.1609" id="path5043" xml:space="default" /></g>
  <g font-family="Arial Black" font-size="18px" font-style="normal" font-weight="700" transform="matrix(0.9824964, -0.1862816, 0.1862816, 0.9824964, 0, 0)" id="text4088" xml:space="default" />
-inkscape-font-specification="'Arial Black, Bold'" style="fill:#000000;"&gt;
          <path d="M594.4186 561.2759 L601.8718 561.2759 C603.114 561.2759 604.0661 561.5836 604.7282 562.1988 C605.3962 562.814 605.7302 563.5757 605.7302 564.4839 C605.7302 565.2457 605.4929 565.899 605.0182 566.4439 C604.7018 566.8072 604.239 567.0943 603.6296 567.3052 C604.5554 567.5279 605.235 567.9117 605.6686 568.4566 C606.1081 568.9957 606.3278 569.6754 606.3278 570.4957 C606.3278 571.1636 606.1725 571.7642 605.862 572.2974 C605.5515 572.8306 605.1266 573.2525 604.5876 573.563 C604.2536 573.7564 603.7497 573.897 603.0759 573.9849 C602.1794 574.1021 601.5847 574.1607 601.2917 574.1607 L594.4186 574.1607 L594.4186 561.2759 M598.4352 566.3297 L600.1667 566.3297 C600.7878 566.3297 601.2184 566.2242 601.4587 566.0132 C601.7048 565.7964 601.8278 565.4859 601.8278 565.0816 C601.8278 564.7066 601.7048 564.4136 601.4587 564.2027 C601.2184 563.9918 600.7966 563.8863 600.1931 563.8863 L598.4352 563.8863 L598.4352 566.3297 M598.4352 571.3922 L600.4655 571.3922 C601.1511 571.3922 601.6345 571.272 601.9157 571.0318 C602.197 570.7857 602.3376 570.4576 602.3376 570.0474 C602.3376 569.6666 602.197 569.3619 601.9157 569.1334 C601.6403 568.899 601.154 568.7818 600.4567 568.7818 L598.4352 568.7818 L598.4352 571.3922" id="path5014" xml:space="default" /><path d="M611.4255 567.8502 L608.0065 567.4898 C608.1354 566.8922 608.32 566.4234 608.5602 566.0836 C608.8063 565.7379 609.1579 565.439 609.6149 565.1871 C609.9431 565.0054 610.3942 564.8648 610.9684 564.7652 C611.5427 564.6656 612.1638 564.6158 612.8317 564.6158 C613.904 564.6158 614.7653 564.6773 615.4157 564.8004 C616.0661 564.9175 616.6081 565.1666 617.0417 565.5474 C617.3464 565.8111 617.5866 566.1861 617.7624 566.6724 C617.9382 567.1529 618.0261 567.6129 618.0261 568.0523 L618.0261 572.1744 C618.0261 572.6138 618.0525 572.9595 618.1052 573.2115 C618.1638 573.4576 618.2868 573.774 618.4743 574.1607 L615.1169 574.1607 C614.9821 573.9205 614.8942 573.7388 614.8532 573.6158 C614.8122 573.4869 614.7712 573.2877 614.7302 573.0181 C614.2614 573.4693 613.7956 573.7916 613.3327 573.9849 C612.6999 574.2427 611.9645 574.3716 611.1266 574.3716 C610.0134 574.3716 609.1667 574.1138 608.5866 573.5982 C608.0124 573.0826 607.7253 572.4468 607.7253 571.691 C607.7253 570.982 607.9333 570.399 608.3493 569.942 C608.7653 569.4849 609.5329 569.1451 610.652 568.9224 C611.9938 568.6529 612.864 568.4654 613.2624 568.3599 C613.6608 568.2486 614.0827 568.105 614.528 567.9293 C614.528 567.4898 614.4372 567.1822 614.2556 567.0064 C614.0739 566.8306 613.7546 566.7427 613.2975 566.7427 C612.7116 566.7427 612.2722 566.8364 611.9792 567.024 C611.7507 567.1705 611.5661 567.4459 611.4255 567.8502 M614.528 569.731 C614.0358 569.9068 613.5231 570.0621 612.9899 570.1968 C612.2634 570.3902 611.8034 570.5806 611.61 570.7681 C611.4108 570.9615 611.3112 571.1812 611.3112 571.4273 C611.3112 571.7086 611.4079 571.94 611.6013 572.1216 C611.8005 572.2974 612.0905 572.3853 612.4714 572.3853 C612.8698 572.3853 613.239 572.2886 613.5788 572.0953 C613.9245 571.9019 614.1677 571.6675 614.3083 571.3922 C614.4548 571.1109 614.528 570.7476 614.528 570.3023 L614.528 569.731" id="path5016" xml:space="default" /><path d="M620.1882 561.2759 L623.8444 561.2759 L623.8444 567.9205 L626.5163 564.8267 L630.9196 564.8267 L627.571 568.0963 L631.113 574.1607 L627.0788 574.1607 L625.1891 570.4166 L623.8444 571.7349 L623.8444 574.1607 L620.1882 574.1607 L620.1882 561.2759" id="path5018" xml:space="default" /><path d="M641.9763 570.3814 L634.8044 570.3814 C634.8688 570.9556 635.0241 571.3834 635.2702 571.6646 C635.6159 572.0689 636.0671 572.2711 636.6237 572.2711 C636.9753 572.2711 637.3093 572.1832 637.6257 572.0074 C637.819 571.8961 638.027 571.6998 638.2497 571.4185 L641.7741 571.7437 C641.235 572.6812 640.5847 573.355 639.8229 573.7652 C639.0612 574.1695 637.9684 574.3716 636.5446 574.3716 C635.3083 574.3716 634.3356 574.1988 633.6266 573.8531 C632.9177 573.5015 632.3288 572.9478 631.86 572.192 C631.3972 571.4302 631.1657 570.5367 631.1657 569.5113 C631.1657 568.0523 631.6315 566.8716 632.5632 565.9693 C633.5007 565.067 634.7927 564.6158 636.4391 564.6158 C637.7751 564.6158 638.8298 564.8179 639.6032 565.2222 C640.3766 565.6265 640.9655 566.2125 641.3698 566.98 C641.7741 567.7476 641.9763 568.7466 641.9763 569.9771 L641.9763 570.3814 M638.3376 568.6675 C638.2673 567.9761 638.0798 567.481 637.7751 567.1822 C637.4763 566.8834 637.0807 566.7339 636.5886 566.7339 C636.0202 566.7339 635.5661 566.9595 635.2263 567.4107 C635.0095 567.692 634.8718 568.1109 634.8132 568.6675 L638.3376 568.6675" id="path5020" xml:space="default" /><path d="M643.6725 564.8267 L647.0212 564.8267 L647.0212 566.356 C647.3434 565.6939 647.6745 565.2398 648.0143 564.9937 C648.36 564.7418 648.7849 564.6158 649.2888 564.6158 C649.8161 564.6158 650.3932 564.7798 651.0202 565.108 L649.9128 567.6568 C649.4909 567.481 649.1569 567.3931 648.9108 567.3931 C648.4421 567.3931 648.0788 567.5865 647.821 567.9732 C647.4518 568.5181 647.2673 569.5377 647.2673 571.0318 L647.2673 574.1607 L643.6725 574.1607 L643.6725 564.8267" id="path5022" xml:space="default" /><path d="M657.1725 569.898 L660.9606 569.6607 C661.0426 570.2759 661.2097 570.7447 661.4616 571.067 C661.8718 571.5884 662.4577 571.8492 663.2194 571.8492 C663.7878 571.8492 664.2243 571.7173 664.529 571.4537 C664.8395 571.1841 664.9948 570.8736 664.9948 570.522 C664.9948 570.188 664.8483 569.8892 664.5554 569.6255 C664.2624 569.3619 663.5827 569.1129 662.5163 568.8785 C660.7702 568.4859 659.5251 567.9644 658.7809 567.314 C658.0309 566.6636 657.6559 565.8345 657.6559 564.8267 C657.6559 564.1646 657.8464 563.5406 658.2272 562.9547 C658.614 562.3629 659.1911 561.9 659.9587 561.566 C660.7321 561.2261 661.7897 561.0562 663.1315 561.0562 C664.778 561.0562 666.0319 561.3638 666.8932 561.9791 C667.7604 562.5884 668.2761 563.5611 668.4401 564.897 L664.6872 565.1168 C664.5876 564.5367 664.3766 564.1148 664.0544 563.8511 C663.738 563.5875 663.2985 563.4556 662.736 563.4556 C662.2731 563.4556 661.9245 563.5552 661.6901 563.7545 C661.4557 563.9478 661.3386 564.1851 661.3386 564.4664 C661.3386 564.6714 661.4352 564.856 661.6286 565.0201 C661.8161 565.19 662.2614 565.3482 662.9645 565.4947 C664.7048 565.8697 665.9499 566.2505 666.6999 566.6373 C667.4557 567.0181 668.0036 567.4927 668.3434 568.0611 C668.6891 568.6295 668.862 569.2652 668.862 569.9683 C668.862 570.7945 668.6335 571.5562 668.1765 572.2535 C667.7194 572.9507 667.0807 573.481 666.2604 573.8443 C665.4401 574.2017 664.4059 574.3804 663.1579 574.3804 C660.9665 574.3804 659.4489 573.9586 658.6052 573.1148 C657.7614 572.2711 657.2839 571.1988 657.1725 569.898" id="path5024" xml:space="default" /><path d="M674.9528 561.2759 L674.9528 564.8267 L676.9216 564.8267 L676.9216 567.4371 L674.9528 567.4371 L674.9528 570.7505 C674.9528 571.149 674.9909 571.4127 675.0671 571.5416 C675.1843 571.7408 675.3893 571.8404 675.6823 571.8404 C675.946 571.8404 676.3151 571.7642 676.7897 571.6119 L677.0534 574.0816 C676.1686 574.275 675.3425 574.3716 674.5749 574.3716 C673.6843 574.3716 673.028 574.2574 672.6061 574.0289 C672.1843 573.8004 671.8708 573.4547 671.6657 572.9918 C671.4665 572.523 671.3669 571.7672 671.3669 570.7242 L671.3669 567.4371 L670.0485 567.4371 L670.0485 564.8267 L671.3669 564.8267 L671.3669 563.1129 L674.9528 561.2759" id="path5026" xml:space="default" /><path d="M678.6266 570.5748 L682.4499 570.5748 L682.4499 574.1607 L678.6266 574.1607 L678.6266 570.5748" id="path5028" xml:space="default" /></svg>