<?xml version="1.0" encoding="utf-8"?>
<!DOCTYPE svg PUBLIC "-//W3C//DTD SVG 1.1//EN" "http://www.w3.org/Graphics/SVG/1.1/DTD/svg11.dtd">
<svg x="0" y="0" width="48" height="48" overflow="hidden" viewBox="0, 0, 230, 230" preserveAspectRatio="xMidYMid"
     font-size="0" id="svg" xml:space="preserve" xmlns="http://www.w3.org/2000/svg"
     xmlns:xml="http://www.w3.org/XML/1998/namespace" version="1.1">
  <g xml:space="preserve">
    <linearGradient x1="0.439183" y1="-0.100607" x2="1.62552" y2="-0.100607" gradientUnits="objectBoundingBox" gradientTransform="rotate(101.1325, 0.439183, -0.100607)" id="SVGID_Fill1_" xml:space="preserve">
      <stop offset="45.1163%" stop-color="#231F1F" stop-opacity="0.690196" xml:space="preserve" />
      <stop offset="86.5116%" stop-color="#6C6464" stop-opacity="0.0980392" xml:space="preserve" />
    </linearGradient>
    <path d="M114.373 227.182 L201.61 128.761 L145.063 80.9655 L16.4243 176.298 L114.373 227.182 z" stroke-width="0.2" stroke-linejoin="round" xml:space="preserve" style="fill:url(#SVGID_Fill1_);" />
    <linearGradient x1="0.493438" y1="0.151878" x2="1.20418" y2="0.151878" gradientUnits="objectBoundingBox" gradientTransform="rotate(90, 0.493438, 0.151878)" id="SVGID_Stroke1_" xml:space="preserve">
      <stop offset="11.6279%" stop-color="#231E1E" stop-opacity="1" xml:space="preserve" />
      <stop offset="100%" stop-color="#262323" stop-opacity="1" xml:space="preserve" />
    </linearGradient>
    <linearGradient x1="0.493192" y1="0.142982" x2="1.2221" y2="0.142982" gradientUnits="objectBoundingBox" gradientTransform="rotate(90, 0.493192, 0.142982)" id="SVGID_Fill2_" xml:space="preserve">
      <stop offset="11.1628%" stop-color="#262A27" stop-opacity="1" xml:space="preserve" />
      <stop offset="100%" stop-color="#606561" stop-opacity="1" xml:space="preserve" />
    </linearGradient>
    <path d="M145.398 122.971 L209.038 65.293 C208.816 60.832 209.57 62.7803 209.57 72.1493 L209.783 78.829 C210.636 92.1881 198.171 101.306 203.711 95.475 L131.76 178.67 C128.635 184.325 130.056 175.558 132.328 161.14 L132.044 149.548 C132.044 140.179 128.056 122.254 145.398 122.971 z" stroke="url(#SVGID_Stroke1_)" stroke-width="3" stroke-linejoin="round" xml:space="preserve" style="fill:url(#SVGID_Fill2_);" />
    <linearGradient x1="0.352709" y1="1.0914" x2="1.58622" y2="1.0914" gradientUnits="objectBoundingBox" gradientTransform="rotate(-72.0472, 0.352709, 1.0914)" id="SVGID_Stroke2_" xml:space="preserve">
      <stop offset="22.7907%" stop-color="#000000" stop-opacity="1" xml:space="preserve" />
      <stop offset="100%" stop-color="#FFFFFF" stop-opacity="1" xml:space="preserve" />
    </linearGradient>
    <linearGradient x1="0.348478" y1="1.11204" x2="1.62468" y2="1.11204" gradientUnits="objectBoundingBox" gradientTransform="rotate(-71.94646, 0.348478, 1.112038)" id="SVGID_Fill3_" xml:space="preserve">
      <stop offset="23.2558%" stop-color="#171F18" stop-opacity="1" xml:space="preserve" />
      <stop offset="100%" stop-color="#989D99" stop-opacity="1" xml:space="preserve" />
    </linearGradient>
    <path d="M50.1637 101.302 L121.541 119.38 C130.817 119.38 131.618 123.759 131.618 133.047 L131.618 172.567 C131.618 181.855 125.265 186.389 109.31 180.503 L39.0372 157.008 C24.2012 151.946 27.4899 122.87 27.4908 119.17 L27.4908 101.302 C27.4908 92.0138 40.8883 101.302 50.1637 101.302 z" stroke="url(#SVGID_Stroke2_)" stroke-width="3" stroke-linejoin="round" xml:space="preserve" style="fill:url(#SVGID_Fill3_);" />
    <path d="M133.091 98.1063 L179.797 61.4233 L125.654 53.8026 L76.4327 85.2159 L133.091 98.1063 z" stroke-width="0.2" stroke-linejoin="round" xml:space="preserve" style="fill:#F9CC3E;" />
    <path d="M64.1124 94.7354 L84.2521 99.6655 C93.3939 101.903 98.9821 111.093 96.733 120.191 L96.0172 123.088 C93.7682 132.185 89.6915 139.734 80.5494 137.496 L51.3575 128.908 C42.2155 126.67 40.5226 119.151 42.7716 110.053 L43.4874 107.156 C45.7365 98.0585 54.9703 92.4974 64.1124 94.7354 z" stroke="#B29331" stroke-width="3" stroke-linejoin="round" xml:space="preserve" style="fill:#DDB637;" />
    <path d="M123.841 40.8184 L23.8345 96.7999 L132.257 127.07 L216.424 52.4282 L123.841 40.8184 z M126.025 50.4137 L189.31 58.8428 L134.068 101.889 L66.4508 86.9043 L126.025 50.4137 z" stroke="#DDB637" stroke-width="9" stroke-linejoin="round" xml:space="preserve" style="fill:#DDB637;" />
    <path d="M178.581 60.5714 L126.469 53.2943 L76.504 84 L77.942 84.293 L126.682 54.1426 L177.729 61.6367 L178.581 60.5714 z" stroke="#B29331" stroke-width="3" stroke-linejoin="round" xml:space="preserve" style="fill:#967D2D;" />
    <line x1="43.7933" y1="109.24" x2="95.6786" y2="123.766" stroke="#6C5B24" stroke-width="3" stroke-linejoin="round" xml:space="preserve" />
    <line x1="43.4735" y1="110.46" x2="95.3588" y2="124.985" stroke="#B29331" stroke-linejoin="round" xml:space="preserve" />
  </g>
  <g xml:space="preserve">
    <linearGradient x1="0" y1="0.5" x2="1" y2="0.5" gradientUnits="objectBoundingBox" id="SVGID_Fill4_" xml:space="preserve">
      <stop offset="0%" stop-color="#000000" stop-opacity="1" xml:space="preserve" />
      <stop offset="27.2524%" stop-color="#080573" stop-opacity="1" xml:space="preserve" />
      <stop offset="52.5581%" stop-color="#110BE7" stop-opacity="0.996078" xml:space="preserve" />
      <stop offset="100%" stop-color="#9789BD" stop-opacity="1" xml:space="preserve" />
    </linearGradient>
    <path d="M199.326 120.859 L200.326 130.109 L199.326 139.109 L194.826 146.859 L188.326 152.609 L181.326 155.109 L175.576 155.859 L175.076 145.359 L173.576 140.609 L168.576 140.109 L130.326 174.109 L129.326 178.109 L129.576 182.609 L129.576 182.859 L133.076 186.609 L168.076 218.359 L171.076 219.109 L171.076 218.859 L174.076 217.609 L175.576 215.359 L175.326 202.859 L183.576 201.359 L192.576 197.609 L200.826 189.609 L206.076 177.859 L209.076 162.609 L207.826 142.609 L203.576 129.359 L199.326 120.859 z" stroke="#000000" stroke-width="4" stroke-linejoin="round" xml:space="preserve" style="fill:url(#SVGID_Fill4_);" />
    <linearGradient x1="0" y1="0.5" x2="1" y2="0.5" gradientUnits="objectBoundingBox" id="SVGID_Fill5_" xml:space="preserve">
      <stop offset="0%" stop-color="#574781" stop-opacity="1" xml:space="preserve" />
      <stop offset="27.2524%" stop-color="#4A4186" stop-opacity="1" xml:space="preserve" />
      <stop offset="52.5581%" stop-color="#3E3C8C" stop-opacity="0.996078" xml:space="preserve" />
      <stop offset="100%" stop-color="#190257" stop-opacity="1" xml:space="preserve" />
    </linearGradient>
    <path d="M199.451 121.026 L194.784 116.109 L190.284 112.193 L186.034 110.359 L183.618 110.359 L182.201 112.109 L181.951 114.693 L183.284 118.943 L185.951 122.109 L189.618 126.276 L193.284 131.526 L194.868 136.693 L195.784 143.526 L195.034 146.443 L199.868 139.276 L200.701 127.943 L199.451 121.026 z" stroke="#000000" stroke-width="4" stroke-linejoin="round" xml:space="preserve" style="fill:url(#SVGID_Fill5_);" />
  </g>
  <g xml:space="preserve">
    <linearGradient x1="1" y1="0.5" x2="2" y2="0.5" gradientUnits="objectBoundingBox" gradientTransform="rotate(180, 1, 0.5)" id="SVGID_Fill6_" xml:space="preserve">
      <stop offset="0%" stop-color="#000000" stop-opacity="1" xml:space="preserve" />
      <stop offset="27.2524%" stop-color="#080573" stop-opacity="1" xml:space="preserve" />
      <stop offset="52.5581%" stop-color="#110BE7" stop-opacity="0.996078" xml:space="preserve" />
      <stop offset="100%" stop-color="#9789BD" stop-opacity="1" xml:space="preserve" />
    </linearGradient>
    <path d="M20.826 103.068 L19.826 93.8175 L20.826 84.8175 L25.326 77.0675 L31.826 71.3175 L38.826 68.8175 L44.576 68.0675 L45.076 78.5675 L46.576 83.3175 L51.576 83.8175 L89.826 49.8175 L90.826 45.8175 L90.576 41.3175 L90.576 41.0675 L87.076 37.3175 L52.076 5.5675 L49.076 4.8175 L49.076 5.0675 L46.076 6.3175 L44.576 8.5675 L44.826 21.0675 L36.576 22.5675 L27.576 26.3175 L19.326 34.3175 L14.076 46.0675 L11.076 61.3175 L12.326 81.3175 L16.576 94.5675 L20.826 103.068 z" stroke="#000000" stroke-width="4" stroke-linejoin="round" xml:space="preserve" style="fill:url(#SVGID_Fill6_);" />
    <linearGradient x1="1" y1="0.5" x2="2" y2="0.5" gradientUnits="objectBoundingBox" gradientTransform="rotate(180, 1, 0.5)" id="SVGID_Fill7_" xml:space="preserve">
      <stop offset="0%" stop-color="#574781" stop-opacity="1" xml:space="preserve" />
      <stop offset="27.2524%" stop-color="#4A4186" stop-opacity="1" xml:space="preserve" />
      <stop offset="52.5581%" stop-color="#3E3C8C" stop-opacity="0.996078" xml:space="preserve" />
      <stop offset="100%" stop-color="#190257" stop-opacity="1" xml:space="preserve" />
    </linearGradient>
    <path d="M20.701 102.901 L25.3678 107.818 L29.8678 111.734 L34.1178 113.568 L36.5343 113.568 L37.951 111.818 L38.201 109.234 L36.8678 104.984 L34.201 101.818 L30.5343 97.6509 L26.8678 92.4009 L25.2843 87.2343 L24.3677 80.4009 L25.1177 77.4843 L20.2844 84.6509 L19.451 95.9843 L20.701 102.901 z" stroke="#000000" stroke-width="4" stroke-linejoin="round" xml:space="preserve" style="fill:url(#SVGID_Fill7_);" />
  </g>
</svg>