<?xml version="1.0" encoding="UTF-8" standalone="no"?>
<svg
        xmlns:dc="http://purl.org/dc/elements/1.1/"
        xmlns:cc="http://creativecommons.org/ns#"
        xmlns:rdf="http://www.w3.org/1999/02/22-rdf-syntax-ns#"
        xmlns="http://www.w3.org/2000/svg"
        xmlns:sodipodi="http://sodipodi.sourceforge.net/DTD/sodipodi-0.dtd"
        xmlns:inkscape="http://www.inkscape.org/namespaces/inkscape"
        x="0"
        y="0"
        width="48"
        height="48"
        overflow="hidden"
        viewBox="0, 0, 48, 48"
        preserveAspectRatio="xMidYMid"
        font-size="0"
        id="svg"
        xml:space="default"
        version="1.1"
        sodipodi:docname="retrieve.svg"
        inkscape:version="0.92.2 (5c3e80d, 2017-08-06)">
  <metadata
     id="metadata14">
    <rdf:RDF>
      <cc:Work
         rdf:about="">
        <dc:format>image/svg+xml</dc:format>
        <dc:type
           rdf:resource="http://purl.org/dc/dcmitype/StillImage" />
        <dc:title></dc:title>
      </cc:Work>
    </rdf:RDF>
  </metadata>
  <defs
     id="defs12" />
  <sodipodi:namedview
     pagecolor="#ffffff"
     bordercolor="#666666"
     borderopacity="1"
     objecttolerance="10"
     gridtolerance="10"
     guidetolerance="10"
     inkscape:pageopacity="0"
     inkscape:pageshadow="2"
     inkscape:window-width="1920"
     inkscape:window-height="1017"
     id="namedview10"
     showgrid="false"
     inkscape:zoom="4.9166667"
     inkscape:cx="24"
     inkscape:cy="-8.5423729"
     inkscape:window-x="-8"
     inkscape:window-y="-8"
     inkscape:window-maximized="1"
     inkscape:current-layer="svg" />
  <g
     style="fill:#00b265"
     xml:space="default"
     id="g14"
     transform="matrix(2.823529,0,0,2.666667,-8.470588,-8)">
    <path
       inkscape:connector-curvature="0"
       connector-curvature="0"
       xml:space="default"
       id="path10"
       d="M 15,18.96893 17,19 V 9.031069 L 15,9" />
    <path
       inkscape:connector-curvature="0"
       connector-curvature="0"
       xml:space="default"
       id="path12"
       d="m 15,5 v 5 h 5" />
  </g>
  <g
     transform="matrix(0.2739726,0,0,0.18983878,-20.616438,-0.67902863)"
     id="g118">
    <path
       style="fill:#000000;fill-opacity:1;stroke-width:0.2;stroke-linejoin:round"
       inkscape:connector-curvature="0"
       d="m 119.217,3.69308 -5.307,2.71187 2.595,0.03874 4.455,-2.75061 z"
       id="path2" />
    <path
       style="fill:#000000;fill-opacity:1;stroke-width:0.2;stroke-linejoin:round"
       inkscape:connector-curvature="0"
       d="m 106.51,9.1168 -5.307,3.6417 5.656,0.0387 3.951,-3.6029 z"
       id="path4" />
    <path
       style="fill:#000000;fill-opacity:1;stroke-width:0.2;stroke-linejoin:round"
       inkscape:connector-curvature="0"
       d="m 95.1978,17.5623 -5.2688,5.1138 h 7.3608 l 4.1452,-5.075 z"
       id="path6" />
    <path
       style="fill:#000000;fill-opacity:1;stroke-width:0.2;stroke-linejoin:round"
       inkscape:connector-curvature="0"
       d="m 96.1405,24.3032 -7.7482,0.0259 -2.9443,3.7191 h 8.4068"
       id="path8" />
    <path
       style="fill:#000000;fill-opacity:1;stroke-width:0.2;stroke-linejoin:round"
       inkscape:connector-curvature="0"
       d="m 83.5497,31.1991 -2.0339,3.0218 9.046,-0.0193 1.9951,-3.0025 z"
       id="path10-3" />
    <path
       style="fill:#000000;fill-opacity:1;stroke-width:0.2;stroke-linejoin:round"
       inkscape:connector-curvature="0"
       d="M 80.8572,36.1967 77.816,42.957 h 10.8281 l 1.6852,-6.7409 z"
       id="path12-7" />
    <path
       style="fill:#000000;fill-opacity:1;stroke-width:0.2;stroke-linejoin:round"
       inkscape:connector-curvature="0"
       d="m 77.2155,45.4945 -0.4842,3.0412 h 11.0605 l 0.4843,-3.0412 z"
       id="path14" />
    <path
       style="fill:#000000;fill-opacity:1;stroke-width:0.2;stroke-linejoin:round"
       inkscape:connector-curvature="0"
       d="m 76.5376,51.2476 -0.3874,3.4091 11.1767,0.0194 0.3874,-3.3704"
       id="path16" />
    <path
       style="fill:#000000;fill-opacity:1;stroke-width:0.2;stroke-linejoin:round"
       inkscape:connector-curvature="0"
       d="M 76.1824,56.5099 76.105,59.5575 87.4173,59.5316 87.3915,56.484 Z"
       id="path18" />
    <path
       style="fill:#000000;fill-opacity:1;stroke-width:0.2;stroke-linejoin:round"
       inkscape:connector-curvature="0"
       d="m 76.5699,63.1475 0.2841,3.3317 11.7772,-0.0259 -0.7748,-3.3058 z"
       id="path20" />
    <path
       style="fill:#000000;fill-opacity:1;stroke-width:0.2;stroke-linejoin:round"
       inkscape:connector-curvature="0"
       d="m 77.6546,70.3016 0.6715,3.5126 12.113,-1e-4 -1.343,-3.5125 z"
       id="path22" />
    <path
       style="fill:#000000;fill-opacity:1;stroke-width:0.2;stroke-linejoin:round"
       inkscape:connector-curvature="0"
       d="m 79.1268,76.2936 2.5052,6.3793 11.8547,-0.0258 -2.5569,-6.3536 z"
       id="path24" />
    <path
       style="fill:#000000;fill-opacity:1;stroke-width:0.2;stroke-linejoin:round"
       inkscape:connector-curvature="0"
       d="m 82.5618,85.643 2.1953,4.5198 11.7256,-0.0258 -1.8596,-4.5198 z"
       id="path26" />
    <path
       style="fill:#000000;fill-opacity:1;stroke-width:0.2;stroke-linejoin:round"
       inkscape:connector-curvature="0"
       d="m 132.37,3.57687 3.893,2.86681 2.228,-0.01935 -4.533,-2.80872 z"
       id="path28" />
    <path
       style="fill:#000000;fill-opacity:1;stroke-width:0.2;stroke-linejoin:round"
       inkscape:connector-curvature="0"
       d="m 141.551,8.8069 4.146,3.5254 6.431,-0.0388 -5.269,-3.52535 z"
       id="path30" />
    <path
       style="fill:#000000;fill-opacity:1;stroke-width:0.2;stroke-linejoin:round"
       inkscape:connector-curvature="0"
       d="m 151.314,16.865 4.223,5.1138 h 8.407 l -4.417,-5.1526 h -0.116 z"
       id="path32" />
    <path
       style="fill:#000000;fill-opacity:1;stroke-width:0.2;stroke-linejoin:round"
       inkscape:connector-curvature="0"
       d="m 156.738,23.7221 2.634,3.3318 9.492,0.0387 -2.945,-3.4092"
       id="path34" />
    <path
       style="fill:#000000;fill-opacity:1;stroke-width:0.2;stroke-linejoin:round"
       inkscape:connector-curvature="0"
       d="m 161.161,30.1239 1.433,2.8542 8.988,0.0775 -1.627,-2.8668 z"
       id="path36" />
    <path
       style="fill:#000000;fill-opacity:1;stroke-width:0.2;stroke-linejoin:round"
       inkscape:connector-curvature="0"
       d="m 163.311,35.4382 1.956,6.2179 10.189,-0.0387 -2.77,-6.1598 z"
       id="path38" />
    <path
       style="fill:#000000;fill-opacity:1;stroke-width:0.2;stroke-linejoin:round"
       inkscape:connector-curvature="0"
       d="m 166.003,44.4261 0.736,2.8474 h 9.86 l -0.852,-2.8087 z"
       id="path40" />
    <path
       style="fill:#000000;fill-opacity:1;stroke-width:0.2;stroke-linejoin:round"
       inkscape:connector-curvature="0"
       d="m 167.03,50.5084 0.019,2.7119 10.17,-0.0581 -0.039,-2.5763 z"
       id="path42" />
    <path
       style="fill:#000000;fill-opacity:1;stroke-width:0.2;stroke-linejoin:round"
       inkscape:connector-curvature="0"
       d="m 167.127,55.6028 -0.078,2.77 10.325,-0.0775 0.019,-2.7118 z"
       id="path44" />
    <path
       style="fill:#000000;fill-opacity:1;stroke-width:0.2;stroke-linejoin:round"
       inkscape:connector-curvature="0"
       d="m 166.759,62.4019 -0.33,3.2736 9.86,-0.1163 0.755,-3.1573 z"
       id="path46" />
    <path
       style="fill:#000000;fill-opacity:1;stroke-width:0.2;stroke-linejoin:round"
       inkscape:connector-curvature="0"
       d="m 165.674,69.627 -1.627,3.6611 h 10.886 l 0.969,-3.661 z"
       id="path48" />
    <path
       style="fill:#000000;fill-opacity:1;stroke-width:0.2;stroke-linejoin:round"
       inkscape:connector-curvature="0"
       d="m 163.279,75.8579 -2.687,6.1469 h 12.32 l 1.756,-6.1469 z"
       id="path50" />
    <path
       style="fill:#000000;fill-opacity:1;stroke-width:0.2;stroke-linejoin:round"
       inkscape:connector-curvature="0"
       d="m 171.776,85.1299 h -12.501 l -2.789,4.6489 12.604,-0.0258"
       id="path52" />
    <path
       style="fill:#000000;fill-opacity:1;stroke-width:0.2;stroke-linejoin:round"
       inkscape:connector-curvature="0"
       d="m 103.669,66.0952 47.264,-0.0517 -1.808,-1.8079 -2.892,-1.7562 -36.365,0.0516 -3.306,1.4463 z"
       id="path54" />
    <path
       style="fill:#000000;fill-opacity:1;stroke-width:0.2;stroke-linejoin:round"
       inkscape:connector-curvature="0"
       d="m 100.002,69.6593 -1.5499,1.653 -0.155,1.6013 0.4649,0.8781 h 56.355 l 0.672,-1.2397 -0.724,-1.8595 -1.601,-1.1365 z"
       id="path56" />
    <path
       style="fill:#000000;fill-opacity:1;stroke-width:0.2;stroke-linejoin:round"
       inkscape:connector-curvature="0"
       d="m 99.5368,75.8579 -1.343,1.1364 -0.1033,2.2728 2.1175,3.7191 54.702,-0.0516 1.034,-2.1695 -0.155,-4.2874 -0.982,-0.6715 z"
       id="path58" />
    <path
       style="fill:#000000;fill-opacity:1;stroke-width:0.2;stroke-linejoin:round"
       inkscape:connector-curvature="0"
       d="m 102.998,86.0855 -1.343,1.9629 -0.155,1.5496 0.981,0.6715 49.588,-0.1033 0.362,-0.9298 0.052,-1.343 -1.395,-2.1695 -1.756,-0.2583 -44.733,0.1034"
       id="path60" />
    <path
       style="fill:#000000;fill-opacity:1;stroke-width:0.2;stroke-linejoin:round"
       inkscape:connector-curvature="0"
       d="m 86.1389,92.0482 1.4463,2.686 80.1678,-0.4132 0.723,-2.6861 z"
       id="path62" />
    <path
       style="fill:#000000;fill-opacity:1;stroke-width:0.2;stroke-linejoin:round"
       inkscape:connector-curvature="0"
       d="m 87.7239,97.0742 -1.4166,1 -0.5834,1.3333 82.4951,-0.1041 0.015,-1.5625 -0.609,-1.0157 z"
       id="path64" />
    <path
       style="fill:#000000;fill-opacity:1;stroke-width:0.2;stroke-linejoin:round"
       inkscape:connector-curvature="0"
       d="m 85.125,102.512 -0.7969,0.812 -0.2656,1.224 -0.125,1.188 86.5625,-0.25 v -1.037 l -0.453,-1.375 -1.031,-0.708 z"
       id="path66" />
    <path
       style="fill:#000000;fill-opacity:1;stroke-width:0.2;stroke-linejoin:round"
       inkscape:connector-curvature="0"
       d="m 83.875,109.111 -0.375,1.5 0.1875,1.312 h 86.9995 l 0.438,-1.812 -0.313,-1.625"
       id="path68" />
    <path
       style="fill:#000000;fill-opacity:1;stroke-width:0.2;stroke-linejoin:round"
       inkscape:connector-curvature="0"
       d="m 84.1875,115.361 1.125,3.187 2.125,2.688 3.75,2.75 2.1875,0.875 68.937,-0.063 2.688,-2.125 2.937,-3 1.563,-2.375 0.687,-2.312 z"
       id="path70" />
    <path
       style="fill:#000000;fill-opacity:1;stroke-width:0.2;stroke-linejoin:round"
       inkscape:connector-curvature="0"
       d="m 94.9375,127.236 -1.5,1.437 v 4.875 l 1.3125,1.188 65.375,-0.813 0.5,-1.25 -0.188,-4.75 -1.5,-0.687 z"
       id="path72" />
    <path
       style="fill:#000000;fill-opacity:1;stroke-width:0.2;stroke-linejoin:round"
       inkscape:connector-curvature="0"
       d="m 93.625,136.861 0.125,7.062 h 66.687 l -0.125,-6.875 z"
       id="path74" />
    <path
       style="fill:#000000;fill-opacity:1;stroke-width:0.2;stroke-linejoin:round"
       inkscape:connector-curvature="0"
       d="m 93.375,147.173 v 3.5 l 67.062,-0.062 v -3.563 z"
       id="path76" />
    <path
       style="fill:#000000;fill-opacity:1;stroke-width:0.2;stroke-linejoin:round"
       inkscape:connector-curvature="0"
       d="m 93.3125,155.673 0.0625,3.188 67.25,-0.125 -0.063,-3 z"
       id="path78" />
    <path
       style="fill:#000000;fill-opacity:1;stroke-width:0.2;stroke-linejoin:round"
       inkscape:connector-curvature="0"
       d="m 93.8125,171.861 v 3 l 71.6875,0.125 0.187,-1.625 -0.375,-1.5 z"
       id="path80" />
    <path
       style="fill:#000000;fill-opacity:1;stroke-width:0.2;stroke-linejoin:round"
       inkscape:connector-curvature="0"
       d="m 77.625,171.798 7.125,-0.125 3.625,2 -0.25,1 -10.6875,0.063 z"
       id="path82" />
    <path
       style="fill:#000000;fill-opacity:1;stroke-width:0.2;stroke-linejoin:round"
       inkscape:connector-curvature="0"
       d="m 172.375,174.611 9.875,-0.063 0.375,-1.125 -0.688,-1.312 -7.625,-0.063 -1.562,1.125 z"
       id="path84" />
    <path
       style="fill:#000000;fill-opacity:1;stroke-width:0.2;stroke-linejoin:round"
       inkscape:connector-curvature="0"
       d="m 77.5625,176.819 -1,1.167 -0.1667,1.583 107.0002,0.083 -0.334,-2.083 -1,-0.667 z"
       id="path86" />
    <path
       style="fill:#000000;fill-opacity:1;stroke-width:0.2;stroke-linejoin:round"
       inkscape:connector-curvature="0"
       d="m 76.0625,181.402 -0.1667,3.334 108.0002,0.083 -0.417,-3.5 z"
       id="path88" />
    <path
       style="fill:#000000;fill-opacity:1;stroke-width:0.2;stroke-linejoin:round"
       inkscape:connector-curvature="0"
       d="m 75.6666,191.069 -0.4166,1.583 0.0625,5.834 1.1875,0.791 h 8.8541 l 0.3959,-0.958 0.1666,-2.667 h 0.6667 l 1.1042,1.604 3.0625,1.875 h 78.687 l 2.063,-1.687 1,-1 1,0.062 0.25,1.563 0.604,1.271 10.292,0.062 0.104,-8 z"
       id="path90" />
    <path
       style="fill:#000000;fill-opacity:1;stroke-width:0.2;stroke-linejoin:round"
       inkscape:connector-curvature="0"
       d="m 94.5,200.819 0.8125,1.312 4.375,2.813 6.4995,2.687 5.438,1.625 5.937,1.375 6.438,0.563 14.562,-0.125 6.5,-1.25 6.5,-1.688 5.875,-2.125 4.063,-2.062 2.812,-1.563 0.5,-1.625 z"
       id="path92" />
    <path
       style="fill:#000000;fill-opacity:1;stroke-width:0.2;stroke-linejoin:round"
       inkscape:connector-curvature="0"
       d="m 75.6875,200.923 0.25,5.625 1.5625,3.75 9.6875,-0.125 -1.3125,-9.312 z"
       id="path94" />
    <path
       style="fill:#000000;fill-opacity:1;stroke-width:0.2;stroke-linejoin:round"
       inkscape:connector-curvature="0"
       d="m 77.75,214.611 1.4375,1.687 h 9.125 l -0.125,-2.437 -0.8125,-2 -10,-0.063"
       id="path96" />
    <path
       style="fill:#000000;fill-opacity:1;stroke-width:0.2;stroke-linejoin:round"
       inkscape:connector-curvature="0"
       d="m 79.25,217.486 0.8125,2.937 h 9.75 l -1,-2.812 z"
       id="path98" />
    <path
       style="fill:#000000;fill-opacity:1;stroke-width:0.2;stroke-linejoin:round"
       inkscape:connector-curvature="0"
       d="m 80.6875,221.798 1.4375,5 3.3125,6.188 3.3125,5.625 3.375,4.312 1.4375,0.938 6.6245,0.125 0.063,-2.438 -3.1875,-5.312 -2,-4.375 -2.0625,-4.625 -2.375,-5.25 z"
       id="path100" />
    <path
       style="fill:#000000;fill-opacity:1;stroke-width:0.2;stroke-linejoin:round"
       inkscape:connector-curvature="0"
       d="m 94.5625,244.861 1.0625,2.375 2.875,2.75 4.937,-0.063 0.813,-1.312 -2.563,-3.688 z"
       id="path102" />
    <path
       style="fill:#000000;fill-opacity:1;stroke-width:0.2;stroke-linejoin:round"
       inkscape:connector-curvature="0"
       d="m 100.937,251.923 4.188,3.813 h 2 l -0.063,-2.375 -1.562,-2.375 h -4.188 z"
       id="path104" />
    <path
       style="fill:#000000;fill-opacity:1;stroke-width:0.2;stroke-linejoin:round"
       inkscape:connector-curvature="0"
       d="m 174.312,201.486 -1.25,8.812 10.188,-0.125 1,-9.125 -10.063,0.063"
       id="path106" />
    <path
       style="fill:#000000;fill-opacity:1;stroke-width:0.2;stroke-linejoin:round"
       inkscape:connector-curvature="0"
       d="m 172.687,211.986 -0.875,4.625 10.125,0.062 0.813,-4.562 z"
       id="path108" />
    <path
       style="fill:#000000;fill-opacity:1;stroke-width:0.2;stroke-linejoin:round"
       inkscape:connector-curvature="0"
       d="m 170.937,218.048 -0.812,3.188 10.125,-0.125 0.687,-3 z"
       id="path110" />
    <path
       style="fill:#000000;fill-opacity:1;stroke-width:0.2;stroke-linejoin:round"
       inkscape:connector-curvature="0"
       d="m 169.812,222.298 -2.687,6.5 -2.75,5.875 -2.5,5 -2.563,4.438 8.438,-0.063 3.562,-4.812 4.563,-7.125 2.812,-6.313 0.813,-3.562 z"
       id="path112" />
    <path
       style="fill:#000000;fill-opacity:1;stroke-width:0.2;stroke-linejoin:round"
       inkscape:connector-curvature="0"
       d="m 158.75,245.298 -2.875,4.875 6.562,0.063 3.25,-4.688 z"
       id="path114" />
    <path
       style="fill:#000000;fill-opacity:1;stroke-width:0.2;stroke-linejoin:round"
       inkscape:connector-curvature="0"
       d="m 154.812,251.673 -3,3.25 1.75,1.5 2,-0.25 4.188,-4.437 z"
       id="path116" />
  </g>
</svg>
