<?xml version="1.0" encoding="utf-8"?>
<!DOCTYPE svg PUBLIC "-//W3C//DTD SVG 1.1//EN" "http://www.w3.org/Graphics/SVG/1.1/DTD/svg11.dtd">
<svg xmlns="http://www.w3.org/2000/svg" xmlns:xlink="http://www.w3.org/1999/xlink" version="1.1" baseProfile="full" width="250" height="250" viewBox="0 0 250.00 250.00" enable-background="new 0 0 250.00 250.00" xml:space="preserve">
	<g>
		<linearGradient id="SVGID_Fill1_" gradientUnits="objectBoundingBox" x1="0" y1="0.500003" x2="1" y2="0.500003">
			<stop offset="0.0186047" stop-color="#E3D191" stop-opacity="1"/>
			<stop offset="0.55814" stop-color="#E2AF00" stop-opacity="1"/>
			<stop offset="0.787252" stop-color="#AB7800" stop-opacity="1"/>
			<stop offset="1" stop-color="#744100" stop-opacity="1"/>
		</linearGradient>
		<path fill="url(#SVGID_Fill1_)" stroke-width="0.2" stroke-linejoin="round" d="M 98.8933,16.7709L 116.893,16.7709C 129.596,16.7709 139.893,27.0681 139.893,39.7706L 139.893,200.271C 139.893,212.974 129.596,223.271 116.893,223.271L 98.8933,223.271C 86.1909,223.271 75.8933,212.974 75.8933,200.271L 75.8933,39.7706C 75.8933,27.0681 86.1909,16.7709 98.8933,16.7709 Z "/>
		<linearGradient id="SVGID_Stroke1_" gradientUnits="objectBoundingBox" x1="0.135548" y1="0.382006" x2="1.08855" y2="0.382006" gradientTransform="rotate(15.690504 0.135548 0.382006)">
			<stop offset="0.0186047" stop-color="#CEBE83" stop-opacity="1"/>
			<stop offset="0.55814" stop-color="#C79C07" stop-opacity="1"/>
			<stop offset="0.787252" stop-color="#8F6604" stop-opacity="1"/>
			<stop offset="1" stop-color="#573101" stop-opacity="1"/>
		</linearGradient>
		<linearGradient id="SVGID_Fill2_" gradientUnits="objectBoundingBox" x1="0.118727" y1="0.370588" x2="1.11874" y2="0.370588" gradientTransform="rotate(15.000405 0.118727 0.370588)">
			<stop offset="0.0186047" stop-color="#E3D191" stop-opacity="1"/>
			<stop offset="0.55814" stop-color="#E2AF00" stop-opacity="1"/>
			<stop offset="0.787252" stop-color="#AB7800" stop-opacity="1"/>
			<stop offset="1" stop-color="#744100" stop-opacity="1"/>
		</linearGradient>
		<path fill="url(#SVGID_Fill2_)" stroke-width="3" stroke-linejoin="round" stroke="url(#SVGID_Stroke1_)" d="M 108.393,16.7716C 126.342,16.7716 140.893,23.7118 140.893,32.2719C 140.893,40.8324 126.342,47.7721 108.393,47.7721C 90.4438,47.7721 75.8931,40.8324 75.8931,32.2719C 75.8931,23.7118 90.4446,16.7716 108.393,16.7716 Z "/>
		<linearGradient id="SVGID_Stroke2_" gradientUnits="objectBoundingBox" x1="0" y1="0.5" x2="1" y2="0.5">
			<stop offset="0.0186047" stop-color="#D7B77E" stop-opacity="1"/>
			<stop offset="0.55814" stop-color="#D4B780" stop-opacity="1"/>
			<stop offset="0.787252" stop-color="#D7BC89" stop-opacity="1"/>
			<stop offset="1" stop-color="#DBC292" stop-opacity="1"/>
		</linearGradient>
		<linearGradient id="SVGID_Fill3_" gradientUnits="objectBoundingBox" x1="-0.0142857" y1="0.5" x2="1.01429" y2="0.5">
			<stop offset="0.0186047" stop-color="#D7B77E" stop-opacity="1"/>
			<stop offset="0.55814" stop-color="#D4B780" stop-opacity="1"/>
			<stop offset="0.787252" stop-color="#D7BC89" stop-opacity="1"/>
			<stop offset="1" stop-color="#DBC292" stop-opacity="1"/>
		</linearGradient>
		<path fill="url(#SVGID_Fill3_)" stroke-width="3" stroke-linejoin="round" stroke="url(#SVGID_Stroke2_)" d="M 119.393,59.7716L 119.393,119.772L 194.393,133.772L 224.393,116.772L 196.893,79.7716L 119.393,59.7716 Z "/>
		<linearGradient id="SVGID_Stroke3_" gradientUnits="objectBoundingBox" x1="0" y1="0.485327" x2="1" y2="0.485327">
			<stop offset="0.0186047" stop-color="#E5D5B4" stop-opacity="1"/>
			<stop offset="1" stop-color="#EFE4D0" stop-opacity="1"/>
		</linearGradient>
		<linearGradient id="SVGID_Fill4_" gradientUnits="objectBoundingBox" x1="-0.016854" y1="0.484029" x2="1.01685" y2="0.484029">
			<stop offset="0.0186047" stop-color="#E5D5B4" stop-opacity="1"/>
			<stop offset="1" stop-color="#EFE4D0" stop-opacity="1"/>
		</linearGradient>
		<path fill="url(#SVGID_Fill4_)" stroke-width="3" stroke-linejoin="round" stroke="url(#SVGID_Stroke3_)" d="M 119.893,57.7716L 125.519,56.605L 134.019,52.855L 139.019,48.355L 141.519,43.855L 208.893,58.7716L 194.893,77.7716L 119.893,57.7716 Z "/>
		<linearGradient id="SVGID_Stroke4_" gradientUnits="objectBoundingBox" x1="0" y1="0.5" x2="1" y2="0.5">
			<stop offset="0.0186047" stop-color="#E5D5B4" stop-opacity="1"/>
			<stop offset="1" stop-color="#EFE4D0" stop-opacity="1"/>
		</linearGradient>
		<linearGradient id="SVGID_Fill5_" gradientUnits="objectBoundingBox" x1="-0.0312502" y1="0.5" x2="1.03125" y2="0.5">
			<stop offset="0.0186047" stop-color="#E5D5B4" stop-opacity="1"/>
			<stop offset="1" stop-color="#EFE4D0" stop-opacity="1"/>
		</linearGradient>
		<path fill="url(#SVGID_Fill5_)" stroke-width="3" stroke-linejoin="round" stroke="url(#SVGID_Stroke4_)" d="M 208.893,58.7716L 241.893,100.772L 224.893,117.772L 193.893,77.7716L 208.893,58.7716 Z "/>
		<linearGradient id="SVGID_Stroke5_" gradientUnits="objectBoundingBox" x1="0.0473923" y1="0.48513" x2="1" y2="0.48513">
			<stop offset="0.0186047" stop-color="#D9BF8D" stop-opacity="1"/>
			<stop offset="1" stop-color="#D7B77E" stop-opacity="1"/>
		</linearGradient>
		<linearGradient id="SVGID_Fill6_" gradientUnits="objectBoundingBox" x1="0.0272265" y1="0.484616" x2="1.02228" y2="0.484616">
			<stop offset="0.0186047" stop-color="#D9BF8D" stop-opacity="1"/>
			<stop offset="1" stop-color="#D7B77E" stop-opacity="1"/>
		</linearGradient>
		<path fill="url(#SVGID_Fill6_)" stroke-width="3" stroke-linejoin="round" stroke="url(#SVGID_Stroke5_)" d="M 103.227,60.4384L 57.8933,94.4384L 35.8933,145.105L 68.5601,147.105L 103.227,117.105L 103.227,60.4384 Z "/>
		<linearGradient id="SVGID_Stroke6_" gradientUnits="objectBoundingBox" x1="0" y1="0.484211" x2="1" y2="0.484211">
			<stop offset="0.0186047" stop-color="#E7D7B9" stop-opacity="1"/>
			<stop offset="1" stop-color="#EEE2CD" stop-opacity="1"/>
		</linearGradient>
		<linearGradient id="SVGID_Fill7_" gradientUnits="objectBoundingBox" x1="-0.0199115" y1="0.483146" x2="1.01991" y2="0.483146">
			<stop offset="0.0186047" stop-color="#E7D7B9" stop-opacity="1"/>
			<stop offset="1" stop-color="#EEE2CD" stop-opacity="1"/>
		</linearGradient>
		<path fill="url(#SVGID_Fill7_)" stroke-width="3" stroke-linejoin="round" stroke="url(#SVGID_Stroke6_)" d="M 57.2266,94.4384L 28.5601,83.7716L 74.5601,50.4384L 75.2686,49.9384L 79.5186,54.9384L 88.5601,58.4384L 103.893,59.105L 57.2266,94.4384 Z "/>
		<linearGradient id="SVGID_Stroke7_" gradientUnits="objectBoundingBox" x1="0" y1="0.500001" x2="1" y2="0.500001">
			<stop offset="0.0186047" stop-color="#E7D7B9" stop-opacity="1"/>
			<stop offset="1" stop-color="#EEE2CD" stop-opacity="1"/>
		</linearGradient>
		<linearGradient id="SVGID_Fill8_" gradientUnits="objectBoundingBox" x1="-0.0330883" y1="0.500001" x2="1.03309" y2="0.500001">
			<stop offset="0.0186047" stop-color="#E7D7B9" stop-opacity="1"/>
			<stop offset="1" stop-color="#EEE2CD" stop-opacity="1"/>
		</linearGradient>
		<path fill="url(#SVGID_Fill8_)" stroke-width="3" stroke-linejoin="round" stroke="url(#SVGID_Stroke7_)" d="M 28.5601,83.7716L 11.8933,129.105L 35.2266,145.105L 57.2266,95.7716L 28.5601,83.7716 Z "/>
	</g>
	<g>
		<g>
			<radialGradient id="SVGID_Fill9_" cx="164.538" cy="185.014" r="52.2754" gradientUnits="userSpaceOnUse">
				<stop offset="0" stop-color="#FFFFFF" stop-opacity="1"/>
				<stop offset="0.870003" stop-color="#E1E1E2" stop-opacity="1"/>
				<stop offset="1" stop-color="#C3C4C6" stop-opacity="1"/>
			</radialGradient>
			<path fill="url(#SVGID_Fill9_)" stroke-width="0.2" stroke-linejoin="round" d="M 106.226,176.05L 103.447,186.539C 105.494,188.171 106.877,186.662 108.543,185.152L 108.543,185.152C 109.82,183.996 111.261,182.841 113.293,183.094L 113.293,183.094C 116.594,183.512 121.259,186.47 125.161,188.281L 125.161,188.281C 136.185,193.545 150.458,193.66 162.587,193.42L 162.587,193.42C 176.44,193.178 191.552,190.36 204.521,185.253L 204.521,185.253C 215.779,180.791 218.638,171.487 233.773,166.073L 233.773,166.073C 211.643,155.899 196.347,148.722 168.609,143.892L 168.609,143.892C 166.25,143.477 163.696,143.274 161.008,143.274L 161.008,143.274C 139.878,143.275 110.66,155.809 106.226,176.05 Z "/>
			<path fill="none" stroke-width="2.17067" stroke-linejoin="round" stroke="#231F20" stroke-opacity="1" d="M 106.226,176.05C 111.225,153.235 147.708,140.211 168.609,143.892C 196.347,148.722 211.643,155.899 233.773,166.073C 218.639,171.486 215.78,180.791 204.521,185.253C 191.552,190.36 176.44,193.178 162.587,193.42C 150.458,193.66 136.184,193.545 125.161,188.281C 121.258,186.47 116.594,183.512 113.293,183.094C 108.607,182.509 107.061,189.421 103.447,186.539L 106.226,176.05 Z "/>
			<path fill="none" stroke-width="2.17067" stroke-linejoin="round" stroke="#231F20" stroke-opacity="1" d="M 106.226,176.05C 111.225,153.235 147.708,140.211 168.609,143.892C 196.347,148.722 211.643,155.899 233.773,166.073C 218.639,171.486 215.78,180.791 204.521,185.253C 191.552,190.36 176.44,193.178 162.587,193.42C 150.458,193.66 136.184,193.545 125.161,188.281C 121.258,186.47 116.594,183.512 113.293,183.094C 108.607,182.509 107.061,189.421 103.447,186.539L 106.226,176.05 Z "/>
			<path fill="#FAC7CD" fill-opacity="1" stroke-width="0.2" stroke-linejoin="round" d="M 233.773,166.073C 218.638,171.486 215.779,180.791 204.521,185.253C 191.552,190.36 176.439,193.178 162.587,193.42C 150.458,193.66 136.185,193.545 125.161,188.281C 121.259,186.47 116.594,183.512 113.293,183.094L 112.848,182.695C 115.914,183.014 120.158,183.855 123.745,185.297C 133.804,189.479 146.823,189.573 157.952,189.377C 170.601,189.174 183.722,187.454 195.821,184.349C 209.521,180.835 212.402,173.982 222.982,167.678L 233.773,166.073 Z "/>
			<radialGradient id="SVGID_Fill10_" cx="162.631" cy="163.928" r="23.406" gradientUnits="userSpaceOnUse" gradientTransform="rotate(-76.279160 162.630859 163.928467)">
				<stop offset="0" stop-color="#6DF8FF" stop-opacity="1"/>
				<stop offset="0.870003" stop-color="#36A0F1" stop-opacity="1"/>
				<stop offset="1" stop-color="#0049E4" stop-opacity="1"/>
			</radialGradient>
			<path fill="url(#SVGID_Fill10_)" stroke-width="0.2" stroke-linejoin="round" d="M 139.548,160.475C 137.579,173.164 146.313,185.003 159.06,186.917L 159.06,186.917C 171.825,188.833 183.769,180.072 185.716,167.359L 185.716,167.359C 187.671,154.657 178.917,142.83 166.164,140.934L 166.164,140.934C 165.003,140.762 163.848,140.679 162.707,140.679L 162.707,140.679C 151.337,140.679 141.335,148.95 139.548,160.475 Z "/>
			<path fill="#060959" fill-opacity="1" stroke-width="0.2" stroke-linejoin="round" d="M 166.164,140.934C 166.164,140.934 166.725,141.044 167.777,141.25C 168.039,141.309 168.338,141.345 168.654,141.438C 168.969,141.533 169.314,141.638 169.686,141.751C 170.056,141.869 170.462,141.971 170.88,142.127C 171.292,142.298 171.729,142.481 172.192,142.673C 174.012,143.484 176.188,144.656 178.267,146.536C 180.353,148.386 182.394,150.87 183.904,153.975C 185.391,157.087 186.296,160.806 186.197,164.804C 186.194,165.302 186.119,165.789 186.083,166.286L 186.015,167.032L 185.977,167.421L 185.903,167.795C 185.703,168.795 185.552,169.822 185.206,170.81C 184.655,172.831 183.708,174.774 182.578,176.63C 182.273,177.082 181.969,177.536 181.663,177.993C 181.343,178.439 180.972,178.849 180.626,179.282L 180.096,179.925L 179.507,180.516C 179.106,180.904 178.731,181.324 178.304,181.69C 176.619,183.183 174.683,184.413 172.623,185.424C 170.538,186.396 168.298,187.045 166.003,187.429C 163.714,187.763 161.28,187.732 159.048,187.45C 158.423,187.334 157.888,187.215 157.304,187.097C 157.02,187.032 156.729,186.993 156.45,186.906L 155.614,186.644L 154.778,186.381C 154.499,186.298 154.221,186.209 153.957,186.083L 152.35,185.396C 150.267,184.362 148.31,183.089 146.607,181.541C 144.936,179.968 143.45,178.219 142.291,176.287C 141.995,175.81 141.76,175.298 141.495,174.808L 141.111,174.066L 140.798,173.294C 140.6,172.776 140.363,172.276 140.199,171.752C 140.044,171.225 139.889,170.7 139.735,170.177C 139.227,168.061 138.903,165.936 138.999,163.826C 138.966,162.763 139.147,161.766 139.247,160.76C 139.266,160.629 139.268,160.523 139.299,160.372L 139.38,160L 139.542,159.26C 139.662,158.771 139.727,158.272 139.89,157.803C 141.008,153.987 143,150.704 145.352,148.187C 147.733,145.687 150.41,143.916 152.951,142.764C 155.491,141.58 157.913,141.093 159.891,140.848C 160.389,140.798 160.861,140.751 161.305,140.707C 161.75,140.679 162.168,140.699 162.557,140.693C 162.946,140.693 163.306,140.693 163.635,140.693C 163.965,140.696 164.261,140.748 164.528,140.769C 165.595,140.876 166.164,140.934 166.164,140.934 Z M 166.164,140.934C 166.164,140.934 165.595,140.881 164.527,140.783C 164.26,140.764 163.963,140.715 163.633,140.715C 163.304,140.718 162.945,140.721 162.557,140.724C 162.169,140.734 161.75,140.716 161.307,140.748C 160.864,140.796 160.394,140.847 159.897,140.9C 157.925,141.162 155.516,141.668 152.999,142.868C 150.486,144.04 147.816,145.805 145.524,148.346C 143.25,150.888 141.361,154.167 140.347,157.928C 140.197,158.391 140.144,158.882 140.036,159.362L 139.894,160.09L 139.822,160.455C 139.802,160.55 139.796,160.697 139.783,160.816C 139.704,161.818 139.544,162.844 139.603,163.849C 139.553,165.871 139.915,167.953 140.45,169.983C 140.609,170.486 140.771,170.99 140.932,171.496C 141.099,171.999 141.341,172.479 141.542,172.974L 141.859,173.712L 142.246,174.42C 142.513,174.887 142.748,175.374 143.042,175.828C 144.193,177.665 145.623,179.341 147.243,180.837C 148.89,182.308 150.777,183.511 152.779,184.486C 154.792,185.427 157.001,186.025 159.153,186.392C 161.459,186.687 163.626,186.727 165.857,186.429C 168.057,186.079 170.212,185.477 172.222,184.561C 174.209,183.607 176.076,182.434 177.719,181.021C 178.138,180.678 178.507,180.281 178.902,179.915L 179.484,179.357L 180.007,178.748C 180.35,178.337 180.719,177.949 181.036,177.524C 181.342,177.089 181.646,176.656 181.95,176.225C 183.082,174.452 184.045,172.586 184.623,170.63C 184.982,169.673 185.15,168.676 185.368,167.704L 185.447,167.339L 185.49,166.978L 185.575,166.234C 185.622,165.741 185.708,165.246 185.721,164.762C 185.899,160.892 185.095,157.179 183.69,154.076C 182.277,150.959 180.245,148.482 178.191,146.621C 176.138,144.733 173.98,143.547 172.17,142.722C 171.71,142.526 171.275,142.34 170.865,142.166C 170.45,142.007 170.045,141.901 169.677,141.779C 169.306,141.664 168.963,141.557 168.649,141.459C 168.333,141.363 168.035,141.324 167.774,141.264C 166.724,141.049 166.164,140.934 166.164,140.934 Z "/>
			<path fill="#56C7EA" fill-opacity="1" fill-rule="evenodd" stroke-width="0.2" stroke-linejoin="round" d="M 158.901,184.376C 158.584,183.301 159.649,170.876 156.641,173.997C 153.631,177.119 145.547,184.857 149.159,178.597C 152.761,172.346 154.069,167.393 150.948,169.198C 147.817,171.013 140.25,169.895 146.132,166.972C 152.014,164.047 150.871,161.064 147.56,160.909C 144.256,160.754 141.728,157.004 147.8,156.265C 153.879,155.533 156.924,155.276 153.33,151.844C 149.727,148.414 152.418,144.225 156.95,148.241C 161.473,152.248 163.57,151.191 163.417,147.029C 163.253,142.867 167.758,144.243 168.104,147.949C 168.438,151.655 170.536,155.432 174.448,152.687C 178.354,149.935 182.396,155.74 178.715,156.273C 175.043,156.806 173.976,164.374 179.489,164.786C 185.01,165.192 185.026,170.248 180.031,168.252C 175.026,166.265 169.385,166.963 174.931,172.432C 180.469,177.901 180.348,181.426 175.129,177.032C 167.02,170.223 161,171.202 161.215,173.601C 161.438,176.01 159.22,185.451 158.901,184.376 Z "/>
			<path fill="#000000" fill-opacity="1" fill-rule="evenodd" stroke-width="2.15067" stroke-linejoin="round" stroke="#001A1C" stroke-opacity="1" d="M 172.11,163.101C 171.629,157.865 167.01,153.977 161.783,154.416C 156.555,154.863 152.702,159.473 153.175,164.718C 153.647,169.963 158.275,173.859 163.502,173.412C 168.73,172.965 172.584,168.346 172.11,163.101 Z "/>
			<path fill="#FFFFFF" fill-opacity="1" fill-rule="evenodd" stroke-width="0.2" stroke-linejoin="round" d="M 165.335,153.883C 166.254,157.477 168.129,161.089 170.158,158.999C 172.205,156.875 173.15,152.438 170.906,150.262C 168.645,148.07 166.125,145.936 164.054,148.198C 162.006,150.434 164.552,150.829 165.335,153.883 Z "/>
			<path fill="#99E5FF" fill-opacity="0.603922" fill-rule="evenodd" stroke-width="0.2" stroke-linejoin="round" d="M 161.98,174.099C 161.636,170.299 158.678,168.992 154.534,169.345C 150.388,169.697 143.26,170.884 143.604,174.676C 143.948,178.478 150.948,181.977 155.092,181.625C 159.237,181.264 162.324,177.892 161.98,174.099 Z "/>
			<path fill="#FFFFFF" fill-opacity="1" fill-rule="evenodd" stroke-width="0.2" stroke-linejoin="round" d="M 152.808,175.039C 152.645,173.225 151.053,171.883 149.248,172.038C 147.443,172.193 146.118,173.784 146.281,175.598C 146.444,177.404 148.036,178.745 149.841,178.59C 151.639,178.436 152.971,176.845 152.808,175.039 Z "/>
			<path fill="#549ACD" fill-opacity="1" fill-rule="evenodd" stroke-width="0.2" stroke-linejoin="round" d="M 146.545,170.197C 146.416,168.751 144.988,167.694 143.363,167.831C 141.738,167.969 140.534,169.25 140.663,170.704C 140.791,172.147 142.209,173.214 143.835,173.068C 145.461,172.93 146.673,171.649 146.545,170.197 Z "/>
			<path fill="#549ACD" fill-opacity="1" fill-rule="evenodd" stroke-width="0.2" stroke-linejoin="round" d="M 171.38,181.882C 171.268,180.618 170.442,179.655 169.539,179.732C 168.636,179.81 167.992,180.894 168.112,182.167C 168.224,183.431 169.049,184.402 169.951,184.325C 170.855,184.247 171.49,183.155 171.38,181.882 Z "/>
			<path fill="#549ACD" fill-opacity="1" fill-rule="evenodd" stroke-width="0.2" stroke-linejoin="round" d="M 167.191,183.173C 167.079,181.899 165.67,180.988 164.045,181.126C 162.419,181.264 161.189,182.407 161.31,183.671C 161.421,184.944 162.832,185.855 164.457,185.717C 166.082,185.58 167.304,184.436 167.191,183.173 Z "/>
			<path fill="#549ACD" fill-opacity="1" fill-rule="evenodd" stroke-width="0.2" stroke-linejoin="round" d="M 180.615,162.706C 180.486,161.261 179.213,160.186 177.769,160.315C 176.333,160.435 175.266,161.709 175.395,163.153C 175.533,164.597 176.805,165.672 178.25,165.553C 179.688,165.423 180.752,164.151 180.615,162.706 Z "/>
			<path fill="#D6DCE3" fill-opacity="1" stroke-width="0.2" stroke-linejoin="round" d="M 99.5176,185.658C 99.5176,185.658 99.4846,184.987 99.4229,183.728C 99.3945,183.098 99.335,182.324 99.3672,181.406C 99.373,180.947 99.3792,180.454 99.386,179.927C 99.3918,179.664 99.3972,179.392 99.4031,179.112C 99.426,178.833 99.4495,178.547 99.4734,178.252C 99.5215,177.663 99.5725,177.042 99.6255,176.39C 99.6733,175.737 99.8066,175.064 99.8999,174.356C 100.004,173.649 100.097,172.909 100.284,172.158C 100.456,171.406 100.606,170.617 100.815,169.817C 101.637,166.609 102.961,163.067 104.961,159.484C 106.946,155.894 109.66,152.309 113.022,149.01C 113.839,148.16 114.754,147.394 115.653,146.585C 116.095,146.172 116.589,145.819 117.061,145.429C 117.542,145.053 118.009,144.65 118.512,144.291C 119.519,143.576 120.511,142.812 121.589,142.157C 122.122,141.82 122.65,141.47 123.194,141.14C 123.745,140.822 124.298,140.503 124.854,140.183C 125.405,139.853 125.975,139.554 126.551,139.261C 127.126,138.965 127.703,138.667 128.281,138.369C 128.872,138.095 129.465,137.82 130.06,137.545L 130.955,137.133L 131.867,136.755C 134.285,135.696 136.823,134.857 139.391,134.06C 140.039,133.882 140.688,133.704 141.338,133.526L 142.315,133.258L 143.302,133.026C 143.961,132.871 144.621,132.717 145.281,132.562L 147.281,132.17L 148.282,131.974L 149.289,131.813L 151.308,131.493L 153.338,131.244L 154.353,131.12L 155.373,131.03L 157.412,130.864L 159.455,130.77C 160.815,130.684 162.178,130.718 163.537,130.689C 166.263,130.763 168.879,130.786 171.575,130.982C 176.921,131.274 182.107,131.893 187.119,132.543C 192.13,133.176 196.944,133.924 201.51,134.537C 203.794,134.868 206.016,135.106 208.165,135.388C 209.24,135.503 210.297,135.616 211.335,135.727C 211.854,135.782 212.368,135.837 212.877,135.892C 213.388,135.931 213.893,135.97 214.392,136.009C 215.392,136.086 216.371,136.161 217.328,136.235C 218.286,136.278 219.221,136.32 220.133,136.361C 221.045,136.391 221.936,136.468 222.8,136.457C 223.665,136.457 224.506,136.458 225.32,136.459C 226.953,136.499 228.471,136.364 229.883,136.315C 230.587,136.274 231.267,136.272 231.91,136.203C 232.553,136.136 233.167,136.073 233.75,136.013C 234.333,135.952 234.885,135.895 235.405,135.841C 235.925,135.791 236.414,135.747 236.861,135.661C 237.762,135.516 238.527,135.391 239.148,135.291C 240.393,135.09 241.057,134.982 241.057,134.982C 241.057,134.982 240.403,135.139 239.178,135.433C 238.564,135.58 237.807,135.762 236.916,135.975C 236.027,136.206 234.981,136.329 233.82,136.538C 233.237,136.635 232.623,136.738 231.98,136.845C 231.335,136.954 230.655,136.999 229.948,137.084C 228.532,137.23 226.999,137.429 225.354,137.479C 224.532,137.52 223.684,137.562 222.809,137.607C 221.934,137.664 221.035,137.632 220.111,137.648C 219.187,137.652 218.239,137.661 217.269,137.645C 216.3,137.61 215.309,137.574 214.296,137.536C 213.791,137.518 213.278,137.499 212.762,137.479C 212.247,137.445 211.726,137.411 211.201,137.376C 210.149,137.307 209.079,137.236 207.99,137.163C 205.82,136.964 203.57,136.772 201.272,136.513C 196.667,136.03 191.831,135.439 186.837,134.873C 184.341,134.581 181.802,134.343 179.233,134.098C 177.949,134 176.655,133.901 175.356,133.801C 174.055,133.681 172.757,133.622 171.453,133.553C 168.87,133.377 166.151,133.366 163.527,133.31C 162.21,133.346 160.888,133.319 159.569,133.411L 157.589,133.513L 155.612,133.683L 154.623,133.764L 153.638,133.879L 151.668,134.109L 149.71,134.409L 148.732,134.558L 147.761,134.743L 145.822,135.111C 145.182,135.258 144.542,135.404 143.904,135.55L 142.946,135.768L 142,136.023C 141.369,136.191 140.739,136.36 140.111,136.529C 135.133,138.019 130.319,139.842 125.985,142.232C 121.647,144.598 117.693,147.341 114.391,150.444C 111.084,153.533 108.334,156.867 106.276,160.254C 104.222,163.641 102.755,167.005 101.79,170.097C 101.346,171.651 100.912,173.111 100.655,174.493C 100.521,175.183 100.348,175.838 100.262,176.477C 100.17,177.117 100.082,177.726 99.998,178.305C 99.9561,178.594 99.9155,178.876 99.876,179.15C 99.8535,179.426 99.8311,179.693 99.8098,179.952C 99.7651,180.472 99.7229,180.958 99.6841,181.411C 99.5837,182.317 99.585,183.097 99.5667,183.726C 99.5347,184.986 99.5176,185.658 99.5176,185.658 Z "/>
			<path fill="#D6DCE3" fill-opacity="1" stroke-width="0.2" stroke-linejoin="round" d="M 101.192,191.341C 101.192,191.341 101.35,191.351 101.647,191.368C 101.944,191.399 102.379,191.391 102.932,191.494C 103.207,191.54 103.521,191.577 103.853,191.644C 104.184,191.713 104.539,191.804 104.923,191.895C 105.299,192.009 105.7,192.131 106.122,192.26C 106.534,192.415 106.973,192.574 107.417,192.768C 108.309,193.15 109.255,193.616 110.205,194.182C 111.154,194.745 112.144,195.36 113.111,196.05C 114.074,196.729 115.07,197.43 116.082,198.143C 116.583,198.491 117.088,198.842 117.595,199.194L 117.976,199.454L 118.167,199.584L 118.191,199.601L 118.203,199.609C 118.238,199.631 118.168,199.587 118.18,199.594L 118.231,199.625L 118.331,199.686L 119.135,200.179C 119.669,200.505 120.203,200.862 120.733,201.165C 121.261,201.44 121.786,201.716 122.307,201.989C 122.816,202.283 123.374,202.492 123.907,202.733C 124.176,202.851 124.442,202.967 124.708,203.083L 125.104,203.256L 125.511,203.39C 126.051,203.572 126.587,203.737 127.105,203.927C 127.624,204.115 128.158,204.213 128.665,204.355C 129.68,204.645 130.672,204.808 131.585,204.994C 131.814,205.039 132.038,205.084 132.257,205.126C 132.479,205.158 132.695,205.188 132.906,205.217C 133.328,205.283 133.73,205.345 134.107,205.402C 134.861,205.525 135.526,205.602 136.073,205.67C 137.168,205.809 137.798,205.913 137.798,205.913C 137.798,205.913 137.17,205.994 136.063,206.094C 135.51,206.142 134.837,206.217 134.062,206.217C 133.287,206.217 132.408,206.299 131.45,206.212C 130.969,206.184 130.469,206.154 129.95,206.124C 129.429,206.112 128.901,205.989 128.35,205.916C 127.804,205.819 127.23,205.769 126.662,205.626C 126.092,205.493 125.516,205.328 124.925,205.173L 124.48,205.055L 124.045,204.897C 123.754,204.791 123.46,204.683 123.166,204.575C 122.575,204.356 121.97,204.157 121.395,203.845C 120.813,203.556 120.225,203.264 119.636,202.971C 119.076,202.658 118.557,202.32 118.016,201.994L 117.216,201.493L 117.116,201.43L 116.982,201.342L 116.785,201.205L 116.392,200.93C 115.863,200.571 115.365,200.181 114.86,199.809C 113.858,199.058 112.921,198.277 111.997,197.555C 111.073,196.833 110.196,196.137 109.338,195.51C 108.478,194.894 107.653,194.332 106.864,193.854C 106.472,193.61 106.077,193.417 105.713,193.199C 105.337,193.009 104.98,192.828 104.644,192.657C 104.3,192.507 103.974,192.371 103.675,192.232C 103.374,192.102 103.091,192.005 102.837,191.905C 102.331,191.701 101.904,191.583 101.624,191.487C 101.342,191.392 101.192,191.341 101.192,191.341 Z "/>
		</g>
		<path fill="#001105" fill-opacity="1" stroke-width="0.2" stroke-linejoin="round" d="M 186.524,129.978C 186.867,135.085 183.387,140.242 179.3,143.31C 185.089,141.014 191.287,136.393 193.023,132.07C 192.997,137.682 188.328,143.03 183.522,145.584C 190.225,144.262 198.386,140.363 200.929,136.272C 200.019,141.236 195.472,145.349 190.799,147.344C 197.313,146.507 205.512,142.72 208.238,138.333C 207.327,143.299 202.771,147.403 198.111,149.397C 204.609,148.564 212.793,144.779 215.52,140.389C 214.6,145.398 209.984,149.535 205.27,151.508C 211.464,150.323 218.616,146.786 221.15,142.75C 220.165,148.006 215.131,152.294 210.189,154.139C 216.963,153.778 225.375,151.189 228.459,147.6C 226.807,152.358 221.703,155.728 216.791,156.997C 223.338,157.151 231.978,154.649 235.345,150.727C 233.691,155.5 228.569,158.871 223.651,160.134C 230.205,160.3 238.882,157.792 242.259,153.863C 240.588,158.687 235.355,162.085 230.394,163.312C 236.711,163.091 244.353,160.671 247.447,157.043C 245.402,162.938 238.07,166.698 232.358,166.979L 232.193,166.89L 226.848,169.654C 230.721,169.532 235.706,171.433 237.569,175.105C 235.118,172.911 229.687,171.953 225.355,172.373C 228.856,172.764 232.753,174.595 234.322,177.751C 231.972,175.645 226.865,174.67 222.633,174.967C 225.825,175.574 229.104,177.348 230.497,180.189C 227.644,177.611 220.661,176.731 216.187,177.802C 220.058,177.609 225.177,179.512 227.04,183.259C 223.688,180.225 213.578,179.452 209.52,181.452L 215.692,177.931C 215.147,178.086 214.647,178.274 214.206,178.493L 219.365,174.765L 219.796,174.74L 222.196,173.008L 221.225,173.403L 225.642,170.216C 204.126,161.012 191.582,153.187 165.573,150.364C 145.642,148.208 113.217,159.769 108.291,177.294C 105.151,190.38 103.736,186.838 103.736,186.838L 103.447,186.539L 106.226,176.05C 107.6,169.78 111.351,164.249 116.504,159.602C 113.756,156.355 111.235,150.134 113.266,146.1C 112.849,150.658 115.466,154.842 119.402,157.19L 119.634,157.012C 117.019,153.668 114.774,147.782 116.703,143.911C 116.285,148.394 118.815,152.513 122.647,154.88L 123.785,154.148C 120.843,150.401 118.293,143.81 120.472,139.471C 120.021,144.646 123.036,149.379 127.53,151.978L 127.75,151.86C 124.776,148.151 122.11,141.421 124.35,137.011C 123.848,142.383 127.12,147.296 131.934,149.817L 131.947,149.812C 129.458,145.075 128.022,137.059 131.444,132.716C 129.797,138.272 132.036,144.131 136.391,147.991L 136.68,147.891C 134.238,143.147 132.832,135.195 136.238,130.862C 134.694,135.997 136.495,141.374 140.204,145.207C 140.803,140.673 140.976,134.483 139.541,129.362C 142.936,135.568 144.503,140.426 144.133,145.295C 147.024,140.291 146.651,132.575 144.095,127.59C 148.173,131.17 150.076,138.464 148.999,143.655C 152.353,138.817 154.295,131.332 152.87,126.54C 156.242,130.82 155.87,137.842 153.688,142.664C 158.142,138.518 161.75,131.412 161.354,126.217C 163.777,131.258 161.994,138.104 158.834,142.515C 163.881,139.017 168.518,132.299 168.794,127.018C 170.552,132.24 168.006,138.653 164.398,142.641C 170.407,139.94 177.24,133.782 178.537,128.706C 179.226,134.337 175.226,140.309 170.739,143.436C 177.071,141.322 184.854,135.218 186.524,129.978 Z M 173.369,144.769L 173.59,144.755L 173,144.701L 173.369,144.769 Z M 179.551,146.056L 180.148,146.032L 176.859,145.474L 179.551,146.056 Z M 189.367,148.507L 188.423,148.172L 188.282,148.209L 189.367,148.507 Z M 200.259,151.903L 200.466,151.914L 195.739,150.227L 195.434,150.306L 200.259,151.903 Z M 150.331,192.525C 150.93,195.407 150.38,198.866 148.547,202.636C 149.519,198.389 148.469,194.362 147.789,192.758L 150.331,192.525 Z M 166.828,193.403C 169.575,194.744 172.405,198.145 172.167,201.477C 171.311,198.803 167.509,195.696 164.237,194.423C 166.279,196.454 167.794,199.806 167.008,202.639C 166.692,199.813 164.04,196.352 161.249,194.624C 163.073,196.883 164.21,200.5 163.056,203.253C 163.134,199.776 159.755,194.812 156.533,193.443L 159.522,193.795L 159.282,193.721L 163.394,193.685L 163.429,193.712L 166.828,193.403 Z M 156.795,193.685C 158.369,196.165 158.732,200.734 156.898,203.316C 157.686,200.068 156.51,195.669 153.784,193.685L 156.795,193.685 Z M 153.444,193.57C 154.541,196.285 153.753,200.796 151.476,202.985C 152.867,199.953 152.867,196.125 150.562,193.685L 153.444,193.57 Z M 130.554,190.121L 133.67,191.098L 133.694,191.087L 137.516,191.942L 137.345,191.957L 140.137,192.197L 139.573,192.341L 142.259,191.98C 139.3,193.303 136.26,197.868 136.342,201.057C 135.228,198.481 136.348,195.063 138.073,192.975C 135.33,194.437 132.605,197.474 132.123,200.105C 131.583,197.281 133.347,194.136 135.497,192.394C 132.557,193.453 129.385,196.159 128.56,198.729C 128.374,195.924 130.452,193.099 132.761,191.609C 129.461,192.152 125.275,194.286 123.98,196.608C 124.421,193.442 127.721,190.842 130.554,190.121 Z M 141.292,192.723L 144.327,192.527C 141.687,194.365 140.554,198.791 141.24,201.914C 139.561,199.405 139.746,195.039 141.292,192.723 Z M 145.427,193.066L 148.311,191.883C 147.338,193.244 145.22,198.144 145.244,202.313C 144.304,198.403 144.278,195.63 145.427,193.066 Z M 197.075,198.267C 195.793,195.311 190.968,192.489 186.84,191.596C 189.577,193.312 192.121,196.485 192.233,199.832C 191.064,196.99 187.053,193.998 183.424,192.604C 186.104,194.335 188.539,197.441 188.644,200.708C 187.383,197.66 182.8,194.392 178.969,193.185C 181.598,194.937 183.953,198.003 184.058,201.232C 182.814,198.165 178.199,194.894 174.36,193.688C 177.009,195.437 179.397,198.512 179.504,201.73C 177.932,197.867 170.076,193.119 166.094,193.161L 172.508,192.702L 173.04,192.937L 177.095,192.183L 177.643,192.425L 180.661,191.863L 179.738,191.802L 185.267,190.781L 185.415,190.843L 188.147,190.101L 187.808,190.138L 193.885,188.281L 194.745,188.533L 198.758,186.997L 199.416,187.065L 203.551,184.961L 204.179,185.025L 207.29,183.431L 206.299,183.672L 211.956,180.792C 215.885,181.052 220.857,183.754 222.195,187.842C 220.096,185.297 214.883,183.526 210.557,183.277C 213.945,184.196 217.484,186.6 218.556,189.943C 216.292,187.179 210.35,185.336 205.843,185.365C 209.219,186.294 212.706,188.679 213.787,191.997C 211.512,189.249 205.589,187.394 201.084,187.412C 204.448,188.35 207.91,190.738 208.97,194.041C 206.899,191.514 201.137,189.611 196.478,189.274C 199.487,190.828 202.263,193.689 202.708,196.999C 201.01,193.939 195.599,191.103 191.177,190.298C 194.218,191.743 197.033,194.783 197.075,198.267 Z "/>
	</g>
</svg>
