<?xml version="1.0" encoding="utf-8"?>
<!DOCTYPE svg PUBLIC "-//W3C//DTD SVG 1.1//EN" "http://www.w3.org/Graphics/SVG/1.1/DTD/svg11.dtd">
<svg xmlns="http://www.w3.org/2000/svg" xmlns:xlink="http://www.w3.org/1999/xlink" version="1.1" baseProfile="full" width="250" height="250" viewBox="0 0 250.00 250.00" enable-background="new 0 0 250.00 250.00" xml:space="preserve">
	<g>
		<path fill="#4B6983" fill-opacity="1" fill-rule="evenodd" stroke-width="0.32" stroke-linejoin="round" d="M 95.9606,31.1084L 141.77,227.321L 50.198,181.544C 41.7366,174.062 30.9984,172.11 25.7512,154.572C 20.8065,138.01 23.7785,128.448 30.5731,116.129"/>
		<path fill="none" fill-rule="evenodd" stroke-width="3.55928" stroke-linejoin="round" stroke="#000000" stroke-opacity="1" d="M 95.9606,31.1084L 141.77,227.321L 50.198,181.544C 41.7366,174.062 30.9984,172.11 25.7512,154.572C 20.8065,138.01 23.7785,128.448 30.5731,116.129"/>
		<path fill="#9DB8D2" fill-opacity="1" fill-rule="evenodd" stroke-width="5.82869" stroke-linejoin="miter" stroke="#000000" stroke-opacity="1" d="M 78.8749,141.652C 93.5903,198.955 134.551,237.95 170.365,228.751C 206.179,219.56 223.286,165.653 208.57,108.35C 193.853,51.0454 152.892,12.05 117.078,21.2488C 81.2642,30.4404 64.1575,84.3547 78.8749,141.652 Z "/>
		<path fill="#7590AE" fill-opacity="1" fill-rule="evenodd" stroke-width="3.05944" stroke-linejoin="miter" stroke="#000000" stroke-opacity="1" d="M 101.512,135.782C 114.478,186.26 147.356,221.431 174.957,214.34C 202.558,207.256 214.425,160.588 201.458,110.113C 188.497,59.6436 155.615,24.4692 128.02,31.5542C 100.419,38.6387 88.5516,85.3064 101.512,135.782 Z "/>
		<path fill="#314E6C" fill-opacity="1" fill-rule="evenodd" stroke-width="1.56706" stroke-linejoin="miter" stroke="#000000" stroke-opacity="1" d="M 109.144,132.548C 113.777,150.6 125.669,163.154 135.699,160.575C 145.721,158.001 150.09,141.273 145.458,123.221C 140.817,105.161 128.931,92.6135 118.903,95.1868C 108.873,97.7605 104.503,114.489 109.144,132.548 Z "/>
	</g>
	<g>
		<path fill="#000000" fill-opacity="1" fill-rule="evenodd" stroke-width="1.56706" stroke-linejoin="miter" d="M 129.363,58.9404C 124.846,54.511 110.482,66.0325 106.139,70.6313C 101.789,75.2302 91.4827,89.824 96.123,94.1204L 128.554,124.16L 97.4198,157.293C 93.0837,161.906 104.145,175.108 108.746,179.451C 113.352,183.801 126.467,193.445 130.796,188.825L 162.335,155.139L 193.758,185.678C 198.297,190.087 213.938,181.18 218.281,176.581C 222.631,171.982 230.579,157.367 226.015,152.985L 192.01,120.351L 222.415,86.7793C 226.67,82.0923 219.531,71.4006 214.932,67.0576C 210.332,62.7095 195.975,54.4556 191.604,59.0354L 161.552,90.5535"/>
		<path fill="none" fill-rule="evenodd" stroke-width="1.94607" stroke-linejoin="miter" stroke="#0D3D07" stroke-opacity="1" d="M 129.363,58.9404C 124.846,54.511 110.482,66.0325 106.139,70.6313C 101.789,75.2302 91.4827,89.824 96.123,94.1204L 128.554,124.16L 97.4198,157.293C 93.0837,161.906 104.145,175.108 108.746,179.451C 113.352,183.801 126.467,193.445 130.796,188.825L 162.335,155.139L 193.758,185.678C 198.297,190.087 213.938,181.18 218.281,176.581C 222.631,171.982 230.579,157.367 226.015,152.985L 192.01,120.351L 222.415,86.7793C 226.67,82.0923 219.531,71.4006 214.932,67.0576C 210.332,62.7095 195.975,54.4556 191.604,59.0354L 161.552,90.5535"/>
		<path fill="#FF1500" fill-opacity="1" fill-rule="evenodd" stroke-width="1.94607" stroke-linejoin="miter" d="M 127.148,67.687C 124.09,64.8101 113.48,71.7864 110.596,74.8376C 107.705,77.8979 101.296,87.4883 104.349,90.3789L 139.346,123.491L 104.059,160.967C 101.175,164.025 107.989,172.651 111.049,175.533C 114.1,178.417 123.488,185.785 126.365,182.727L 161.701,145.13L 197.432,178.317C 200.513,181.173 210.447,174.954 213.331,171.901C 216.215,168.847 221.483,158.251 218.47,155.327L 182.527,120.351L 216.478,85.1714C 219.396,82.1528 212.797,73.9475 209.745,71.0566C 206.692,68.1729 197.555,62.2029 194.569,65.1609L 160.39,98.9751"/>
		<path fill="#7E0000" fill-opacity="1" fill-rule="evenodd" stroke-width="1.94607" stroke-linejoin="miter" d="M 156.298,133.256L 119.489,172.779C 118.025,174.345 117.309,175.872 118.869,177.343C 120.423,178.816 124.65,180.606 126.115,179.039L 162.942,139.449L 201.62,176.513C 203.167,177.991 207.529,176.202 209.002,174.643C 210.473,173.088 209.421,171.373 207.875,169.888L 169.298,132.805C 164.901,128.576 160.458,128.792 156.298,133.256 Z "/>
		<path fill="#EBF8E9" fill-opacity="1" fill-rule="evenodd" stroke-width="1.94607" stroke-linejoin="miter" d="M 168.008,112.158L 203.43,74.6077C 204.903,73.0483 205.361,71.2795 203.802,69.8066C 202.249,68.3352 198.027,66.551 196.556,68.1123L 161.113,105.735L 124.671,70.78C 123.124,69.2932 118.755,71.0825 117.281,72.6438C 115.815,74.2034 116.87,75.9182 118.409,77.405L 154.757,112.381C 159.154,116.608 163.82,116.603 168.008,112.158 Z "/>
	</g>
</svg>
