<?xml version="1.0" encoding="utf-8"?>
<!DOCTYPE svg PUBLIC "-//W3C//DTD SVG 1.1//EN" "http://www.w3.org/Graphics/SVG/1.1/DTD/svg11.dtd">
<svg x="0" y="0" width="48" height="48" overflow="hidden" viewBox="0, 0, 48, 48" preserveAspectRatio="xMidYMid"
     font-size="0" id="svg" xml:space="preserve" xmlns="http://www.w3.org/2000/svg"
     xmlns:xml="http://www.w3.org/XML/1998/namespace" version="1.1">
  <g transform="matrix(0.2762776, 0, 0, 0.2795947, -3.738636, -3.932213)" id="g12" xml:space="preserve">
    <path d="M145.311 185.539 C164.13 177.744 178.087 163.172 185.527 145.822 L117.122 117.487 z" stroke-width="0.2" stroke-linejoin="round" id="path2" xml:space="preserve" connector-curvature="0" style="fill:#FF0000;" />
    <path d="M185.181 55.7439 C177.256 36.6154 162.328 22.5094 144.598 15.1667 L115.906 84.4381 z" stroke-width="0.2" stroke-linejoin="round" id="path4" xml:space="preserve" connector-curvature="0" style="fill:#FF0000;" />
    <path d="M55.3929 14.4607 C35.9519 22.5133 21.6985 37.7993 14.4597 55.9083 L82.8573 84.2402 L84.0862 83.73109 z" stroke-width="0.2" stroke-linejoin="round" id="path6" xml:space="preserve" connector-curvature="0" style="fill:#FF0000;" />
    <path d="M83.7258 117.127 L82.8569 116.767 L14.813 144.957 C22.7366 164.086 37.66261 178.193 55.3901 185.537 z" stroke-width="0.2" stroke-linejoin="round" id="path8" xml:space="preserve" connector-curvature="0" style="fill:#FF0000;" />
    <path d="M54.3247 54.1998 C79.7089 28.8157 120.865 28.8157 146.249 54.1998 C171.633 79.584 171.633 120.74 146.249 146.124 C120.865 171.508 79.70889 171.508 54.32469 146.124 C28.94069 120.74 28.94069 79.58399 54.32469 54.19979 z" stroke="#000000" stroke-width="10" stroke-linejoin="round" id="path10" xml:space="preserve" connector-curvature="0" style="fill:none;" />
  </g>
</svg>