<?xml version="1.0" encoding="utf-8"?>
<!DOCTYPE svg PUBLIC "-//W3C//DTD SVG 1.1//EN" "http://www.w3.org/Graphics/SVG/1.1/DTD/svg11.dtd">
<svg xmlns="http://www.w3.org/2000/svg" xmlns:xlink="http://www.w3.org/1999/xlink" version="1.1" baseProfile="full" width="78.125" height="78.25" viewBox="0 0 78.13 78.25" enable-background="new 0 0 78.13 78.25" xml:space="preserve">
	<g>
		<path fill="#8C9E64" fill-opacity="1" stroke-linejoin="round" stroke="#000000" stroke-opacity="1" d="M 11.5,0.5L 66.625,0.5C 72.7001,0.5 77.625,5.42487 77.625,11.5L 77.625,66.75C 77.625,72.8251 72.7001,77.75 66.625,77.75L 11.5,77.75C 5.42487,77.75 0.5,72.8251 0.5,66.75L 0.5,11.5C 0.5,5.42487 5.42487,0.5 11.5,0.5 Z "/>
		<linearGradient id="SVGID_Fill1_" gradientUnits="objectBoundingBox" x1="0.5" y1="-2.34737" x2="6.19475" y2="-2.34737" gradientTransform="rotate(90.000000 0.500000 -2.347374)">
			<stop offset="0.427907" stop-color="#EEEAEA" stop-opacity="1"/>
			<stop offset="0.576744" stop-color="#FFFFFF" stop-opacity="0"/>
		</linearGradient>
		<path fill="url(#SVGID_Fill1_)" stroke-width="0.2" stroke-linejoin="round" d="M 65.9046,0.854172L 12.0427,0.854172C 6.55368,0.854172 2.0257,5.06538 1.37501,10.5032C 2.66073,13.0152 5.23251,14.7292 8.19543,14.7292L 70.1183,14.7292C 72.8569,14.7292 75.2614,13.2649 76.625,11.0596C 76.2272,5.35539 71.5795,0.854172 65.9046,0.854172 Z "/>
	</g>
	<linearGradient id="SVGID_Fill2_" gradientUnits="objectBoundingBox" x1="0.499965" y1="1.01852" x2="1.53741" y2="1.01852" gradientTransform="rotate(-90.000000 0.499965 1.018524)">
		<stop offset="0" stop-color="#1DFF02" stop-opacity="1"/>
		<stop offset="1" stop-color="#3D8C33" stop-opacity="1"/>
	</linearGradient>
	<path fill="url(#SVGID_Fill2_)" stroke-width="0.2" stroke-linejoin="round" d="M 11.6516,62.1253L 66.4737,62.1253C 67.9035,62.1253 69.0627,63.2844 69.0627,64.7143L 69.0627,64.7143C 69.0627,66.1439 67.9035,67.3031 66.4737,67.3031L 11.6516,67.3031C 10.2217,67.3031 9.06266,66.1439 9.06266,64.7143L 9.06266,64.7143C 9.06266,63.2844 10.2217,62.1253 11.6516,62.1253 Z "/>
</svg>
