<?xml version="1.0" encoding="utf-8"?>
<!DOCTYPE svg PUBLIC "-//W3C//DTD SVG 1.1//EN" "http://www.w3.org/Graphics/SVG/1.1/DTD/svg11.dtd">
<svg xmlns="http://www.w3.org/2000/svg" xmlns:xlink="http://www.w3.org/1999/xlink" version="1.1" baseProfile="full" width="90" height="77.7273" viewBox="0 0 90.00 77.73" enable-background="new 0 0 90.00 77.73" xml:space="preserve">
	<path fill="#B2AE5A" fill-opacity="1" stroke-linejoin="round" stroke="#000000" stroke-opacity="1" d="M 13.5404,2.33398L 74.5404,2.33398C 80.6155,2.33398 85.5404,7.25885 85.5404,13.334L 85.5404,63.0007C 85.5404,69.0758 80.6155,74.0007 74.5404,74.0007L 13.5404,74.0007C 7.46522,74.0007 2.54036,69.0758 2.54036,63.0007L 2.54036,13.334C 2.54036,7.25885 7.46522,2.33398 13.5404,2.33398 Z "/>
	<linearGradient id="SVGID_Fill1_" gradientUnits="objectBoundingBox" x1="0.503869" y1="-0.274908" x2="2.05368" y2="-0.274908" gradientTransform="rotate(90.000000 0.503869 -0.274908)">
		<stop offset="0.316279" stop-color="#F0F1EC" stop-opacity="0.592157"/>
		<stop offset="0.800003" stop-color="#FFFFFF" stop-opacity="0"/>
	</linearGradient>
	<path fill="url(#SVGID_Fill1_)" stroke-width="0.2" stroke-linejoin="round" d="M 73.5602,4.81805L 15.4491,4.81805C 12.4151,4.81805 8.64089,5.66519 5.87369,9.46339L 5.93958,9.46339C 6.00546,45.0622 24.1056,45.1832 44.4827,45.1832C 64.8597,45.1832 82.1693,44.8388 82.4987,9.37962L 82.4987,9.40754C 81.0492,7.34087 79.1385,5.21835 73.5602,4.81805 Z "/>
	<linearGradient id="SVGID_Fill2_" gradientUnits="objectBoundingBox" x1="0.940186" y1="0.437275" x2="2.52462" y2="0.437275" gradientTransform="rotate(170.546585 0.940186 0.437275)">
		<stop offset="0.274419" stop-color="#F0F1EC" stop-opacity="0.501961"/>
		<stop offset="0.562791" stop-color="#FFFFFF" stop-opacity="0"/>
	</linearGradient>
	<path fill="url(#SVGID_Fill2_)" stroke-width="0.2" stroke-linejoin="round" d="M 73.3296,4.7715L 56.3421,6.63337C 53.3081,6.63337 37.1913,4.84594 34.4241,8.64414L 26.3422,20.5601C 30.7007,27.5655 46.02,18.4748 48.3919,16.7247C 72.0229,13.7084 81.9387,44.7923 82.2681,9.33307L 82.2681,9.36099C 80.8186,7.29433 78.9079,5.17181 73.3296,4.7715 Z "/>
	<path fill="none" stroke-width="6" stroke-linejoin="round" stroke="#FFD23F" stroke-opacity="1" d="M 13.7903,5.1675L 74.5402,5.1675C 78.9585,5.1675 82.5402,8.74921 82.5402,13.1675L 82.5402,63.1674C 82.5402,67.5856 78.9585,71.1673 74.5402,71.1673L 13.7903,71.1673C 9.37205,71.1673 5.79034,67.5856 5.79034,63.1674L 5.79034,13.1675C 5.79034,8.74921 9.37205,5.1675 13.7903,5.1675 Z "/>
	<linearGradient id="SVGID_Fill3_" gradientUnits="objectBoundingBox" x1="0.384323" y1="-0.0542693" x2="1.49921" y2="-0.0542693" gradientTransform="rotate(135.748001 0.384323 -0.054269)">
		<stop offset="0.390698" stop-color="#83838F" stop-opacity="1"/>
		<stop offset="0.460465" stop-color="#4F4F5E" stop-opacity="1"/>
		<stop offset="0.530233" stop-color="#8D8D99" stop-opacity="1"/>
		<stop offset="0.613953" stop-color="#AAABB9" stop-opacity="1"/>
	</linearGradient>
	<path fill="url(#SVGID_Fill3_)" stroke-width="0.2" stroke-linejoin="round" d="M 11.6667,14.5575L 12.9045,13.5028L 14.8686,14.713L 34.4817,39.3334L 31.8064,41.398L 12.2442,16.8413L 11.6667,14.5575 Z "/>
	<linearGradient id="SVGID_Fill4_" gradientUnits="objectBoundingBox" x1="0.890847" y1="0.243554" x2="1.81506" y2="0.243554" gradientTransform="rotate(136.390076 0.890847 0.243554)">
		<stop offset="0.255814" stop-color="#F5CA3F" stop-opacity="1"/>
		<stop offset="0.474419" stop-color="#E7D52C" stop-opacity="1"/>
		<stop offset="0.548837" stop-color="#E7D858" stop-opacity="1"/>
		<stop offset="0.651163" stop-color="#D5B42B" stop-opacity="1"/>
		<stop offset="0.683721" stop-color="#F5CA3F" stop-opacity="1"/>
	</linearGradient>
	<path fill="url(#SVGID_Fill4_)" stroke-width="0.2" stroke-linejoin="round" d="M 33.2464,39.344L 32.1009,40.1806L 30.9184,40.4715L 30.1794,41.8172L 30.475,44.2177L 31.8053,44.9451L 32.9508,45.236L 33.6898,46.2908L 34.2441,48.6548L 49.3204,67.2037L 50.9832,67.2037L 55.5282,62.8393L 55.3065,61.0935L 41.3388,43.4175L 39.1587,42.6901L 38.161,41.599L 38.0132,39.8169L 37.7175,38.8349L 35.87,37.8529L 33.6898,38.2529L 33.2464,39.344 Z "/>
	<path fill="none" stroke-width="1.33333" stroke-linejoin="round" stroke="#BDAA28" stroke-opacity="1" d="M 45.3984,30.1119C 46.6987,31.2468 58.7171,46.271 67.3045,57.1316C 66.6321,57.3209 65.9669,57.6551 65.3587,58.1504C 64.5164,58.8363 63.91,59.7199 63.531,60.6671C 58.8617,54.3263 44.5193,33.3396 43.723,31.5675C 43.7007,31.4726 43.6846,31.3785 43.6804,31.2859C 43.6613,30.8628 43.831,30.477 44.1627,30.2152C 44.5315,29.9245 44.99,29.8927 45.3984,30.1119 Z "/>
	<path fill="#000000" fill-opacity="0.803922" stroke-width="0.2" stroke-linejoin="round" d="M 68.8781,60.3759C 67.2389,60.1522 65.4994,61.7823 65.2463,63.8586C 65.0368,65.5757 66.4511,67.4917 68.0903,67.7154C 69.7303,67.9401 71.5605,66.2657 71.8244,64.3852C 71.8404,64.2719 71.864,64.1482 71.8692,64.0351C 71.874,63.9218 71.8726,63.8073 71.8672,63.6943C 71.8512,63.3562 71.7808,63.0305 71.6745,62.7111C 71.6391,62.6046 71.6076,62.5056 71.562,62.4028C 71.1111,61.3769 70.1732,60.5529 68.8781,60.3759 Z M 37.0656,6.74491C 37.2021,6.7672 37.2839,6.788 37.2872,6.78891C 41.3027,7.65707 44.132,10.9344 44.08,14.535C 44.0808,14.5514 44.7355,24.9726 46.3027,27.8717C 47.5327,30.1474 72.2852,59.0924 73.3634,61.4874C 74.0618,63.0378 74.013,64.7208 73.4732,66.2034C 73.1269,67.1413 72.5883,67.9846 71.9008,68.6486C 71.8648,68.6836 71.8195,68.7075 71.7831,68.7415C 71.7204,68.7989 71.6576,68.8641 71.5934,68.9183C 71.5047,68.9932 71.4156,69.063 71.3234,69.1315C 71.1533,69.2579 70.9743,69.3777 70.793,69.4818C 70.771,69.4944 70.7489,69.5079 70.7274,69.52C 70.6428,69.5667 70.556,69.6002 70.4691,69.6416C 70.3366,69.7055 70.2033,69.7722 70.0662,69.8225L 70.0199,69.832C 69.9201,69.8678 69.8203,69.9046 69.7185,69.9333C 69.6661,69.9479 69.6143,69.9626 69.5617,69.9752C 69.5186,69.9856 69.4793,69.9964 69.4364,70.0053C 69.3651,70.0205 69.2917,70.0285 69.2194,70.0396C 68.9466,70.0841 68.6599,70.113 68.3767,70.1028C 68.2104,70.097 68.0364,70.0793 67.8673,70.0534C 67.7963,70.0429 67.7315,70.0262 67.66,70.0117C 67.411,69.9617 67.1663,69.8896 66.9145,69.7932C 66.8576,69.7716 66.7978,69.7492 66.7412,69.7247C 66.6505,69.6864 66.5596,69.6417 66.4691,69.5975C 66.311,69.52 66.1598,69.4345 66.0013,69.3371C 65.9379,69.2979 65.8677,69.2617 65.8043,69.219C 65.713,69.1584 65.6164,69.0972 65.5251,69.0291C 65.4936,69.0058 65.4601,68.9793 65.4283,68.955C 65.3046,68.8591 65.1815,68.7543 65.0587,68.6447C 64.9584,68.5557 64.8374,68.4309 64.7092,68.2909C 64.6218,68.1962 64.5171,68.0774 64.4179,67.9604C 64.2858,67.805 64.1109,67.5823 63.9595,67.3918C 63.8295,67.2278 63.686,67.0477 63.5288,66.8422C 58.0133,59.5945 42.7726,34.7983 40.3646,32.7778C 38.5471,31.2535 28.7023,28.1097 28.7023,28.1097C 26.8349,26.9335 24.49,23.6806 23.9014,19.1473C 23.8497,17.9726 24.1229,16.7794 24.1459,16.9976L 29.8943,20.5741L 34.3144,17.8103L 35.2288,16.117L 35.3756,13.0729L 28.9845,9.66216L 29.2015,8.79289C 32.1846,6.16766 36.1089,6.59116 37.0656,6.74491 Z "/>
	<linearGradient id="SVGID_Fill5_" gradientUnits="objectBoundingBox" x1="0.861223" y1="1.05593" x2="3.22655" y2="1.05593" gradientTransform="rotate(256.941284 0.861223 1.055934)">
		<stop offset="0" stop-color="#545454" stop-opacity="1"/>
		<stop offset="0.686401" stop-color="#878787" stop-opacity="1"/>
		<stop offset="1" stop-color="#878787" stop-opacity="1"/>
	</linearGradient>
	<path fill="url(#SVGID_Fill5_)" stroke-width="0.2" stroke-linejoin="round" d="M 24.2681,16.0217C 24.7961,20.9223 28.0857,25.1178 29.9283,25.6564L 28.8326,27.1346C 26.9653,25.9579 24.6139,22.7102 24.0249,18.1768L 24.0249,18.1768C 23.9776,17.0933 24.2049,15.9887 24.2584,15.9955L 24.2681,16.0217 Z "/>
	<path fill="#888A85" fill-opacity="1" stroke-width="0.2" stroke-linejoin="round" d="M 24.2682,16.0214L 30.0113,19.6017L 34.4374,16.8396C 34.8029,17.5691 33.2958,27.3805 31.1378,26.9731C 27.1879,26.2261 24.9232,21.5951 24.2682,16.0214 Z "/>
	<linearGradient id="SVGID_Fill6_" gradientUnits="objectBoundingBox" x1="0.963585" y1="0.350584" x2="2.07221" y2="0.350584" gradientTransform="rotate(142.708450 0.963585 0.350584)">
		<stop offset="0" stop-color="#FFFFFF" stop-opacity="1"/>
		<stop offset="0.639099" stop-color="#878787" stop-opacity="1"/>
		<stop offset="1" stop-color="#878787" stop-opacity="1"/>
	</linearGradient>
	<path fill="url(#SVGID_Fill6_)" stroke-width="0.2" stroke-linejoin="round" d="M 29.895,19.7588L 29.5929,24.2061L 28.7114,25.8888C 27.7081,25.147 26.8708,24.0903 26.1959,22.804L 26.1959,22.804C 25.3115,20.9888 24.7288,18.7657 24.4464,16.3629L 29.895,19.7588 Z "/>
	<radialGradient id="SVGID_Fill7_" cx="32.0792" cy="25.0935" r="16.8229" gradientUnits="userSpaceOnUse" gradientTransform="rotate(201.174591 32.079208 25.093544)">
		<stop offset="0" stop-color="#FFFFFF" stop-opacity="0.517647"/>
		<stop offset="1" stop-color="#3D3D3D" stop-opacity="0.517647"/>
	</radialGradient>
	<path fill="url(#SVGID_Fill7_)" stroke-width="0.2" stroke-linejoin="round" d="M 34.0415,17.273L 34.0507,17.3039C 34.3545,18.348 33.2743,27.4724 31.1585,27.0724C 30.6908,26.9837 30.2396,26.8393 29.819,26.6467L 30.6253,19.3448L 34.0306,17.2563 Z "/>
	<linearGradient id="SVGID_Fill8_" gradientUnits="objectBoundingBox" x1="0.927189" y1="0.975742" x2="2.48491" y2="0.975742" gradientTransform="rotate(242.354324 0.927189 0.975742)">
		<stop offset="0" stop-color="#DDDDDD" stop-opacity="1"/>
		<stop offset="0.686401" stop-color="#878787" stop-opacity="1"/>
		<stop offset="0.893501" stop-color="#DDDDDD" stop-opacity="1"/>
		<stop offset="1" stop-color="#DDDDDD" stop-opacity="1"/>
	</linearGradient>
	<path fill="url(#SVGID_Fill8_)" stroke-width="0.2" stroke-linejoin="round" d="M 37.4111,5.81549C 41.426,6.68408 44.2583,9.95681 44.2059,13.5573L 44.2059,13.5573C 44.2067,13.5733 44.8617,23.9995 46.4295,26.8982L 46.4295,26.8982C 47.6594,29.1744 72.4092,58.1136 73.488,60.5084L 73.488,60.5084C 75.7661,65.566 70.163,72.0807 65.1822,67.6663L 65.1822,67.6663C 61.8972,64.7552 43.1835,34.0554 40.4953,31.8003L 40.4953,31.8003C 38.6783,30.2756 28.8337,27.1338 28.8337,27.1338L 35.3577,15.1491L 35.537,11.0505L 29.3263,7.81265C 32.0757,5.39333 35.6287,5.57264 36.9172,5.7364L 36.9172,5.7364C 37.2263,5.77568 37.4049,5.81422 37.4111,5.81549 Z M 71.9567,63.4065C 72.2097,61.5999 71.0798,59.6885 69.0085,59.4045L 69.0085,59.4045C 67.3688,59.1796 65.6259,60.8092 65.373,62.8855L 65.373,62.8855C 65.1634,64.6031 66.5808,66.523 68.2203,66.7472L 68.2413,66.7499L 68.2413,66.7499C 69.8753,66.9575 71.6938,65.2786 71.9567,63.4065 Z "/>
	<linearGradient id="SVGID_Fill9_" gradientUnits="objectBoundingBox" x1="0.603554" y1="0.44031" x2="0.763745" y2="0.44031" gradientTransform="rotate(132.350952 0.603554 0.440310)">
		<stop offset="0" stop-color="#000000" stop-opacity="1"/>
		<stop offset="0.893501" stop-color="#DDDDE0" stop-opacity="1"/>
		<stop offset="1" stop-color="#DDDDE0" stop-opacity="1"/>
	</linearGradient>
	<path fill="url(#SVGID_Fill9_)" stroke-width="0.2" stroke-linejoin="round" d="M 35.8516,15.2886L 36.05,10.745C 36.05,10.745 31.4433,8.34254 30.2959,7.74434C 33.4019,5.55444 37.2602,6.30365 37.3046,6.31325C 40.9255,7.09711 43.5582,9.95296 43.7008,13.1863C 43.7057,13.3077 43.708,13.4302 43.706,13.5517L 43.7059,13.5527C 43.7137,13.7344 44.353,24.116 45.99,27.1453C 46.5798,28.2353 51.9044,34.6614 58.0701,42.1025C 64.4898,49.8497 72.4787,59.4909 73.0329,60.722C 73.333,61.3893 73.483,62.0686 73.5125,62.7341C 73.5972,64.6598 72.6654,66.4623 71.422,67.5243C 71.206,67.1781 70.9757,66.8118 70.7291,66.4241C 71.6111,65.72 72.2867,64.6521 72.4513,63.4758C 72.6022,62.3996 72.3228,61.2891 71.6839,60.4278C 71.0608,59.5869 70.1349,59.044 69.0775,58.8988C 68.2582,58.7868 67.3922,59.0524 66.6363,59.6458C 66.5434,59.7196 66.4548,59.8002 66.3677,59.8819C 60.6187,51.5711 50.8343,38.3711 34.3477,18.0523C 35.215,16.458 35.8516,15.2886 35.8516,15.2886 Z "/>
	<radialGradient id="SVGID_Fill10_" cx="37.2025" cy="12.4588" r="24.872" gradientUnits="userSpaceOnUse" gradientTransform="rotate(119.416908 37.202465 12.458817)">
		<stop offset="0" stop-color="#C2C4D2" stop-opacity="1"/>
		<stop offset="0.5" stop-color="#B1B1B6" stop-opacity="1"/>
		<stop offset="1" stop-color="#000000" stop-opacity="1"/>
	</radialGradient>
	<path fill="url(#SVGID_Fill10_)" stroke-width="0.2" stroke-linejoin="round" d="M 37.1171,6.379C 41.041,7.50725 43.1893,10.3124 43.2656,13.7833L 39.2101,21.5563L 37.831,20.7718L 34.9502,26.4376L 36.0792,27.1462L 34.4799,29.0773L 28.8336,27.1347L 35.3577,15.1491L 35.537,11.0505L 29.3263,7.81265C 30.2614,6.97378 31.4227,6.34132 32.7134,5.97575L 32.7134,5.97575C 33.6796,5.91936 34.662,5.95563 35.5473,6.06814L 35.5473,6.06814C 36.1216,6.14112 36.6549,6.24586 37.1171,6.379 Z "/>
	<linearGradient id="SVGID_Fill11_" gradientUnits="objectBoundingBox" x1="0.425592" y1="0.905266" x2="1.20913" y2="0.905266" gradientTransform="rotate(-77.764397 0.425592 0.905266)">
		<stop offset="0" stop-color="#DDDDDD" stop-opacity="1"/>
		<stop offset="0.721901" stop-color="#DDDDDD" stop-opacity="1"/>
		<stop offset="1" stop-color="#EDEDEB" stop-opacity="1"/>
	</linearGradient>
	<path fill="url(#SVGID_Fill11_)" stroke-width="0.2" stroke-linejoin="round" d="M 43.312,24.0248L 40.2002,29.4544L 33.7219,26.3954L 37.7882,19.8977L 43.312,24.0248 Z "/>
	<radialGradient id="SVGID_Fill12_" cx="37.0205" cy="28.509" r="7.16515" gradientUnits="userSpaceOnUse" gradientTransform="rotate(177.493820 37.020458 28.508991)">
		<stop offset="0" stop-color="#2D3436" stop-opacity="1"/>
		<stop offset="0.721901" stop-color="#000000" stop-opacity="1"/>
		<stop offset="1" stop-color="#2D3436" stop-opacity="1"/>
	</radialGradient>
	<path fill="url(#SVGID_Fill12_)" stroke-width="0.2" stroke-linejoin="round" d="M 43.312,24.0248L 40.2002,29.4544L 34.7209,26.3442L 37.8336,20.9147L 43.312,24.0248 Z "/>
	<radialGradient id="SVGID_Fill13_" cx="39.1269" cy="25.154" r="1.44868" gradientUnits="userSpaceOnUse" gradientTransform="rotate(203.792313 39.126888 25.153988)">
		<stop offset="0" stop-color="#FFFFFF" stop-opacity="1"/>
		<stop offset="0.526604" stop-color="#BABCB6" stop-opacity="1"/>
		<stop offset="1" stop-color="#878985" stop-opacity="1"/>
	</radialGradient>
	<path fill="url(#SVGID_Fill13_)" stroke-width="0.2" stroke-linejoin="round" d="M 42.0498,23.6857L 39.437,28.2705L 36.206,26.6146L 38.8194,22.0294L 42.0498,23.6857 Z "/>
	<radialGradient id="SVGID_Fill14_" cx="39.0642" cy="26.1475" r="2.21458" gradientUnits="userSpaceOnUse" gradientTransform="rotate(190.893661 39.064228 26.147526)">
		<stop offset="0" stop-color="#878985" stop-opacity="1"/>
		<stop offset="0.6213" stop-color="#FFFFFF" stop-opacity="1"/>
		<stop offset="1" stop-color="#545652" stop-opacity="1"/>
	</radialGradient>
	<path fill="url(#SVGID_Fill14_)" stroke-width="0.2" stroke-linejoin="round" d="M 42.2814,24.164L 42.1097,24.7282L 37.2112,22.7471L 37.3835,22.1825L 42.2814,24.164 Z "/>
	<radialGradient id="SVGID_Fill15_" cx="37.1839" cy="29.1547" r="2.18717" gradientUnits="userSpaceOnUse" gradientTransform="rotate(189.545288 37.183907 29.154736)">
		<stop offset="0" stop-color="#878985" stop-opacity="1"/>
		<stop offset="0.6213" stop-color="#FFFFFF" stop-opacity="1"/>
		<stop offset="1" stop-color="#545652" stop-opacity="1"/>
	</radialGradient>
	<path fill="url(#SVGID_Fill15_)" stroke-width="0.2" stroke-linejoin="round" d="M 40.2647,27.5085L 40.112,27.9888L 35.3027,26.1607L 35.456,25.6798L 40.2647,27.5085 Z "/>
	<radialGradient id="SVGID_Fill16_" cx="38.2279" cy="27.5106" r="2.3447" gradientUnits="userSpaceOnUse" gradientTransform="rotate(188.956421 38.227871 27.510616)">
		<stop offset="0" stop-color="#878985" stop-opacity="1"/>
		<stop offset="0.6213" stop-color="#FFFFFF" stop-opacity="1"/>
		<stop offset="1" stop-color="#545652" stop-opacity="1"/>
	</radialGradient>
	<path fill="url(#SVGID_Fill16_)" stroke-width="0.2" stroke-linejoin="round" d="M 41.4732,25.9263L 41.3158,26.4052L 36.1769,24.5083L 36.3328,24.0297L 41.4732,25.9263 Z "/>
	<linearGradient id="SVGID_Fill17_" gradientUnits="objectBoundingBox" x1="0.587932" y1="0.995763" x2="1.59051" y2="0.995763" gradientTransform="rotate(269.246460 0.587932 0.995763)">
		<stop offset="0" stop-color="#545454" stop-opacity="1"/>
		<stop offset="0.3965" stop-color="#878787" stop-opacity="1"/>
		<stop offset="1" stop-color="#545454" stop-opacity="1"/>
	</linearGradient>
	<path fill="url(#SVGID_Fill17_)" stroke-width="0.2" stroke-linejoin="round" d="M 30.0098,23.578C 29.7695,25.7664 29.2839,25.862 29.1993,26.2502L 29.1993,26.2502C 29.032,26.1646 28.9885,26.1616 28.963,26.1613L 28.963,26.1613C 28.9316,26.1603 28.9249,26.1629 28.7444,26.0177L 28.7444,26.0177C 28.793,25.8284 29.3985,24.5303 29.6422,24.0674L 29.6422,24.0674C 29.7174,22.9757 29.9733,19.9172 29.9949,19.6269L 29.9949,19.6269C 30.1938,19.5032 30.2709,19.4546 30.5135,19.3226L 30.5135,19.3226C 30.5393,19.4591 30.0445,23.4394 30.0098,23.578 Z "/>
	<linearGradient id="SVGID_Fill18_" gradientUnits="objectBoundingBox" x1="0.978813" y1="0.478393" x2="1.93316" y2="0.478393" gradientTransform="rotate(176.778061 0.978813 0.478393)">
		<stop offset="0" stop-color="#878787" stop-opacity="1"/>
		<stop offset="0.893501" stop-color="#DDDDDD" stop-opacity="1"/>
		<stop offset="1" stop-color="#C6C6CB" stop-opacity="1"/>
	</linearGradient>
	<path fill="url(#SVGID_Fill18_)" stroke-width="0.2" stroke-linejoin="round" d="M 45.9255,29.2317C 47.1017,29.9053 69.5315,58.174 69.3727,58.1192L 69.3727,58.1192C 66.9269,57.2763 63.8208,60.1271 64.1226,63.0711L 64.1226,63.0711C 62.3958,61.2233 43.1012,33.1737 42.762,31.8706L 42.762,31.8706C 42.3246,30.1852 43.6804,28.7761 45.1271,28.96L 45.1271,28.96C 45.3937,28.9938 45.6631,29.0815 45.9255,29.2317 Z "/>
	<linearGradient id="SVGID_Fill19_" gradientUnits="objectBoundingBox" x1="0.552213" y1="0.426897" x2="0.741953" y2="0.426897" gradientTransform="rotate(134.234436 0.552213 0.426897)">
		<stop offset="0" stop-color="#E2EE48" stop-opacity="1"/>
		<stop offset="0.212997" stop-color="#E3EE54" stop-opacity="1"/>
		<stop offset="1" stop-color="#85781D" stop-opacity="1"/>
	</linearGradient>
	<path fill="url(#SVGID_Fill19_)" stroke-width="0.2" stroke-linejoin="round" d="M 45.3987,30.1121C 46.6984,31.2468 58.7174,46.271 67.3047,57.1318L 67.3047,57.1318C 66.6323,57.3205 65.9672,57.6547 65.3589,58.1506L 65.3589,58.1506C 64.5161,58.837 63.9098,59.72 63.5307,60.6674L 63.5307,60.6674C 58.862,54.3265 44.5191,33.3392 43.7229,31.5671L 43.7229,31.5671C 43.7009,31.4727 43.6848,31.3786 43.6802,31.286L 43.6802,31.286C 43.6614,30.8634 43.8313,30.4766 44.1629,30.2149L 44.1629,30.2149C 44.4108,30.0197 44.7,29.9416 44.9866,29.978L 44.9866,29.978C 45.1261,29.9958 45.2651,30.0402 45.3987,30.1121 Z "/>
	<radialGradient id="SVGID_Fill20_" cx="43.2686" cy="13.5756" r="10.0061" gradientUnits="userSpaceOnUse" gradientTransform="rotate(170.940292 43.268604 13.575584)">
		<stop offset="0" stop-color="#FFFFFF" stop-opacity="1"/>
		<stop offset="1" stop-color="#878985" stop-opacity="1"/>
	</radialGradient>
	<path fill="url(#SVGID_Fill20_)" stroke-width="0.2" stroke-linejoin="round" d="M 45.5524,27.3935C 45.5935,27.47 45.6589,27.5744 45.7388,27.6929L 45.7388,27.6929C 45.5136,27.4079 45.351,27.1873 45.2709,27.0509L 45.2709,27.0509C 43.7866,24.5469 42.0971,18.0087 41.92,16.3613L 43.2232,13.8641C 43.3327,15.49 44.007,24.5358 45.5524,27.3935 Z "/>
	<linearGradient id="SVGID_Fill21_" gradientUnits="objectBoundingBox" x1="0.526347" y1="1.09892" x2="1.23724" y2="1.09892" gradientTransform="rotate(267.071259 0.526347 1.098919)">
		<stop offset="0" stop-color="#FFFFFF" stop-opacity="0.501961"/>
		<stop offset="1" stop-color="#000000" stop-opacity="0.501961"/>
	</linearGradient>
	<path fill="url(#SVGID_Fill21_)" stroke-width="0.2" stroke-linejoin="round" d="M 68.2203,66.7472C 69.8598,66.9719 71.6928,65.2869 71.9566,63.4072C 72.2098,61.5994 71.0804,59.6874 69.0085,59.4038C 67.3694,59.1797 65.6259,60.8087 65.373,62.8855C 65.1634,64.6031 66.5808,66.523 68.2203,66.7472 Z M 63.6694,65.8902C 63.3568,65.1377 63.219,64.3327 63.3237,63.5526C 63.541,61.9336 64.4657,60.384 65.7958,59.4071C 66.8531,58.631 68.0655,58.2812 69.2103,58.4229C 70.6871,58.6065 71.9781,59.3085 72.8455,60.3993C 73.606,61.3547 73.9947,62.5508 73.9575,63.7528C 73.4496,67.8087 69.1229,71.1595 65.1813,67.6657C 64.8362,67.361 64.3186,66.7448 63.6694,65.8902 Z "/>
	<linearGradient id="SVGID_Fill22_" gradientUnits="objectBoundingBox" x1="0.565811" y1="0.961216" x2="1.54091" y2="0.961216" gradientTransform="rotate(262.802917 0.565811 0.961216)">
		<stop offset="0" stop-color="#EDEDED" stop-opacity="1"/>
		<stop offset="1" stop-color="#525252" stop-opacity="1"/>
	</linearGradient>
	<path fill="url(#SVGID_Fill22_)" stroke-width="0.2" stroke-linejoin="round" d="M 69.0775,58.8988C 70.1345,59.0435 71.0598,59.5868 71.6839,60.4278L 71.6839,60.4278C 72.3219,61.289 72.6017,62.3996 72.4513,63.4763L 72.4513,63.4763C 72.1424,65.6776 70.0523,67.5126 68.1503,67.2521L 68.1503,67.2521C 66.2573,66.9932 64.6352,64.8008 64.8767,62.8259L 64.8767,62.8259C 65.0283,61.5813 65.6862,60.3937 66.6363,59.6458L 66.6363,59.6458C 67.3836,59.0577 68.241,58.7925 69.0532,58.8957L 69.0775,58.8988 Z M 71.9567,63.4065C 72.2098,61.5994 71.0804,59.6874 69.0085,59.4045L 69.0085,59.4045C 67.3688,59.1796 65.6259,60.8092 65.373,62.8855L 65.373,62.8855C 65.1634,64.6031 66.5808,66.523 68.2203,66.7472L 68.2413,66.7499L 68.2413,66.7499C 69.8753,66.9575 71.6938,65.2786 71.9567,63.4065 Z "/>
	<path fill="#9B9BA1" fill-opacity="0.403922" stroke-width="0.2" stroke-linejoin="round" d="M 48.7361,30.409C 48.5964,30.1502 48.4649,29.8266 48.3407,29.4542C 54.4102,37.0929 72.5673,58.4648 73.4875,60.5083C 73.6668,60.906 73.792,61.3125 73.8777,61.7238C 71.1791,57.6078 49.8411,32.4664 48.7361,30.409 Z "/>
	<linearGradient id="SVGID_Fill23_" gradientUnits="objectBoundingBox" x1="0.957688" y1="0.895554" x2="2.258" y2="0.895554" gradientTransform="rotate(216.251007 0.957688 0.895554)">
		<stop offset="0" stop-color="#C8C8C8" stop-opacity="1"/>
		<stop offset="0.0229034" stop-color="#B1B1B1" stop-opacity="1"/>
		<stop offset="0.0500031" stop-color="#9E9E9E" stop-opacity="1"/>
		<stop offset="0.0819016" stop-color="#919191" stop-opacity="1"/>
		<stop offset="0.122498" stop-color="#898989" stop-opacity="1"/>
		<stop offset="0.201202" stop-color="#878787" stop-opacity="1"/>
		<stop offset="1" stop-color="#676767" stop-opacity="1"/>
	</linearGradient>
	<path fill="url(#SVGID_Fill23_)" stroke-width="0.2" stroke-linejoin="round" d="M 40.4501,30.7834C 43.1384,33.0385 61.8523,63.7383 65.1364,66.6498L 65.1364,66.6498C 69.254,70.2987 73.7905,66.48 73.9568,62.1911L 73.9568,62.1911C 74.3036,64.9065 72.7742,67.6531 70.5596,68.6936L 70.5554,68.6956L 70.5281,68.7085L 70.5116,68.7158L 70.5069,68.7181L 70.5069,68.7181C 68.9295,69.4348 67.0142,69.2899 65.1822,67.6663L 65.1822,67.6663C 61.8972,64.7552 43.1835,34.0554 40.4953,31.8003L 40.4953,31.8003C 38.6783,30.2756 28.8337,27.1338 28.8337,27.1338L 29.2976,26.282C 31.3301,26.9457 38.8814,29.4669 40.4501,30.7834 Z "/>
	<linearGradient id="SVGID_Fill24_" gradientUnits="objectBoundingBox" x1="1.0471" y1="0.671854" x2="2.16647" y2="0.671854" gradientTransform="rotate(188.170044 1.047104 0.671854)">
		<stop offset="0" stop-color="#878787" stop-opacity="1"/>
		<stop offset="1" stop-color="#545454" stop-opacity="1"/>
	</linearGradient>
	<path fill="url(#SVGID_Fill24_)" stroke-width="0.2" stroke-linejoin="round" d="M 35.537,11.0505L 35.5391,12.1193L 29.1056,8.68739L 29.3263,7.81265L 35.537,11.0505 Z "/>
	<linearGradient id="SVGID_Fill25_" gradientUnits="objectBoundingBox" x1="1.37443" y1="1.21651" x2="3.09776" y2="1.21651" gradientTransform="rotate(197.790497 1.374430 1.216508)">
		<stop offset="0" stop-color="#000000" stop-opacity="1"/>
		<stop offset="0.893501" stop-color="#FFFFFF" stop-opacity="1"/>
		<stop offset="1" stop-color="#FFFFFF" stop-opacity="1"/>
	</linearGradient>
	<path fill="url(#SVGID_Fill25_)" stroke-width="0.2" stroke-linejoin="round" d="M 35.4919,10.0336L 35.4491,11.0052L 29.3263,7.81265C 29.5773,7.59263 29.8351,7.3992 30.0968,7.22063L 35.4919,10.0336 Z "/>
</svg>
