<?xml version="1.0" encoding="utf-8"?>
<!DOCTYPE svg PUBLIC "-//W3C//DTD SVG 1.1//EN" "http://www.w3.org/Graphics/SVG/1.1/DTD/svg11.dtd">
<svg x="0" y="0" width="48" height="48" overflow="hidden" viewBox="0, 0, 42, 42" preserveAspectRatio="xMidYMid"
     font-size="0" id="svg" xml:space="preserve" xmlns="http://www.w3.org/2000/svg"
     xmlns:xml="http://www.w3.org/XML/1998/namespace" version="1.1">
  <radialGradient cx="21.0767" cy="52.2322" r="58.0992" fx="21.0767" fy="52.2322" gradientUnits="userSpaceOnUse" gradientTransform="rotate(-90, 21.07674, 52.23219)" id="SVGID_Stroke1_" xml:space="preserve">
    <stop offset="0%" stop-color="#F68A0C" stop-opacity="1" xml:space="preserve" />
    <stop offset="84.6512%" stop-color="#FAB71C" stop-opacity="1" xml:space="preserve" />
    <stop offset="100%" stop-color="#FFE42C" stop-opacity="1" xml:space="preserve" />
  </radialGradient>
  <linearGradient x1="0.501089" y1="1.36086" x2="1.95885" y2="1.36086" gradientUnits="objectBoundingBox" gradientTransform="rotate(-90, 0.501089, 1.360859)" id="SVGID_Fill1_" xml:space="preserve">
    <stop offset="0%" stop-color="#FFFFFF" stop-opacity="1" xml:space="preserve" />
    <stop offset="6.03448%" stop-color="#FFE17F" stop-opacity="1" xml:space="preserve" />
    <stop offset="46.9767%" stop-color="#FFC400" stop-opacity="1" xml:space="preserve" />
    <stop offset="89.642%" stop-color="#FFE17F" stop-opacity="1" xml:space="preserve" />
    <stop offset="100%" stop-color="#FFFFFF" stop-opacity="1" xml:space="preserve" />
  </linearGradient>
  <path d="M40.8139 34.1045 L25.5722 5.88278 C24.5941 3.97365 22.7212 2.85308 20.4696 2.9559 C19.7643 2.98809 17.5603 3.1851 16.4574 5.26023 L1.80192 31.9949 C1.32764 32.7914 0.836578 34.3941 1.06115 35.6665 C1.3719 37.4273 2.66783 38.587 4.25764 39.1639 L37.734 39.15 C38.8628 38.6813 40.1309 37.8641 40.7282 36.8906 C41.2121 36.1019 41.1036 34.8999 40.8139 34.1045 z" stroke="url(#SVGID_Stroke1_)" fill-rule="evenOdd" stroke-width="2" stroke-linecap="round" stroke-linejoin="round" xml:space="preserve" style="fill:url(#SVGID_Fill1_);" />
  <path d="M40.9389 34.1111 L25.6627 5.74546 C24.6824 3.8266 22.8052 2.70032 20.5485 2.80365 C19.8417 2.83602 17.6327 3.03404 16.5272 5.11975 L1.83859 31.9908 C1.36324 32.7913 1.08489 34.2146 1.30996 35.4935 C1.62142 37.2633 2.70646 38.6166 4.29987 39.1963 L37.852 39.1824 C38.9833 38.7113 40.0357 37.8638 40.6344 36.8852 C41.1194 36.0925 41.2292 34.9106 40.9389 34.1111 z" stroke="#000000" fill-rule="evenOdd" stroke-width="2" stroke-linecap="round" stroke-linejoin="round" xml:space="preserve" style="fill:none;" />
  <path d="M19.4944 28.3753 L18.2852 17.0847 L18.2852 11.8676 L23.3243 11.8676 L23.3243 17.0847 L22.1321 28.3753 L19.4944 28.3753 z M18.2852 34.2932 L18.2852 29.9327 L23.3243 29.9327 L23.3243 34.2932 L18.2852 34.2932 z" stroke="#937209" stroke-linejoin="round" xml:space="preserve" style="fill:#FFFFFF;" />
</svg>