<?xml version="1.0" encoding="utf-8"?>
<!DOCTYPE svg PUBLIC "-//W3C//DTD SVG 1.1//EN" "http://www.w3.org/Graphics/SVG/1.1/DTD/svg11.dtd">
<svg x="0" y="0" width="48" height="48" overflow="hidden" viewBox="0, 0, 48, 48" preserveAspectRatio="xMidYMid"
     font-size="0" id="svg" xml:space="preserve" xmlns="http://www.w3.org/2000/svg"
     xmlns:xml="http://www.w3.org/XML/1998/namespace" version="1.1">
  <radialGradient cx="151.883" cy="143.864" r="143.181" fx="151.883" fy="143.864" gradientUnits="userSpaceOnUse" gradientTransform="rotate(180, 151.8831, 143.8638)" id="SVGID_Fill1_" xml:space="preserve">
    <stop offset="0%" stop-color="#F9F9F9" stop-opacity="1" id="stop28" xml:space="preserve" />
    <stop offset="100%" stop-color="#141414" stop-opacity="1" id="stop30" xml:space="preserve" />
  </radialGradient>
  <radialGradient cx="112.226" cy="110.112" r="82.0671" fx="112.226" fy="110.112" gradientUnits="userSpaceOnUse" gradientTransform="rotate(180, 112.2265, 110.1122)" id="SVGID_Fill2_" xml:space="preserve">
    <stop offset="0%" stop-color="#FFFFFF" stop-opacity="1" id="stop53" xml:space="preserve" />
    <stop offset="12.6099%" stop-color="#E6E6E6" stop-opacity="1" id="stop55" xml:space="preserve" />
    <stop offset="39.5203%" stop-color="#A3A3A3" stop-opacity="1" id="stop57" xml:space="preserve" />
    <stop offset="78.2501%" stop-color="#3D3D3D" stop-opacity="1" id="stop59" xml:space="preserve" />
    <stop offset="100%" stop-color="#000000" stop-opacity="1" id="stop61" xml:space="preserve" />
  </radialGradient>
  <g transform="matrix(0.2471038, 0, 0, 0.2999994, -0.7058626, -5.99991)" id="g960" xml:space="preserve">
    <path d="M196.189 148.219 C196.189 159.725 181.723 157.526 174.222 157.526 L35.4231 157.526 C27.9832 157.526 14.6452 159.421 14.6452 148.157 L14.6452 65.2987 C14.6452 56.9188 12.9441 44.7844 25.1209 44.7844 L175.423 44.7844 C181.592 44.7844 191.133 43.1311 194.888 49.3887 C198.678 55.6957 196.189 68.515 196.189 75.3319 z" stroke-width="0.2" stroke-linejoin="round" id="path2" xml:space="preserve" connector-curvature="0" style="fill:#8C8C8C;" />
    <path d="M24.1809 44.0784 C10.3101 44.0784 13.9548 64.7871 13.9548 73.5068 L13.9548 125.09 C13.9548 133 10.4907 151.966 19.0227 156.849 C24.8447 160.182 35.6727 158.212 41.923 158.212 L179.684 158.212 C187.981 158.212 196.893 157.665 196.893 146.637 L196.893 68.3842 C196.893 60.0573 199.48 44.0784 186.66 44.0784 C180.976 43.3101 174.643 44.0784 168.923 44.0784 z M15.3444 148.219 L15.3444 66.7992 C15.3444 58.6744 13.0751 45.4678 25.1209 45.4678 L184.842 45.4678 C196.444 45.4678 195.504 55.446 195.504 63.8685 L195.504 143.303 C195.504 151.005 193.118 156.82 184.295 156.82 L34.276 156.82 C27.4999 156.82 15.3444 158.509 15.3444 148.219 z" stroke-width="0.2" stroke-linejoin="round" id="path4" xml:space="preserve" connector-curvature="0" style="fill:#3F3F3F;" />
    <path d="M188.873 146.775 C188.873 158.288 173.051 155.728 165.654 155.728 L30.0312 155.728 C21.4708 155.728 14.6381 153.924 14.6381 143.663 L14.6381 58.4199 C14.6381 47.6946 22.7223 47.1477 30.9783 47.1477 L173.489 47.1477 C180.091 47.1477 188.873 47.031 188.873 56.3789 L188.873 81.55569 C188.873 103.302 188.873 125.034 188.873 146.775 z" stroke-width="0.2" stroke-linejoin="round" id="path6" xml:space="preserve" connector-curvature="0" style="fill:#B2B2B2;" />
    <path d="M140.173 111.51 C140.173 127.02 129.083 143.109 112.424 143.109 C95.7672 143.109 84.6702 127.02 84.6702 111.51 C84.6702 96.00001 95.7601 79.89511 112.424 79.89511 C129.083 79.89511 140.173 96.00002 140.173 111.51 z" stroke-width="0.2" stroke-linejoin="round" id="path8" xml:space="preserve" connector-curvature="0" style="fill:#E5E5E5;" />
    <path d="M53.9972 45.2678 C53.9972 50.364 25.4802 50.364 25.4802 45.2678 C25.4802 40.1858 53.9972 40.1787 53.9972 45.2678 z" stroke-width="0.2" stroke-linejoin="round" id="path10" xml:space="preserve" connector-curvature="0" style="fill:#3F3F3F;" />
    <path d="M51.0301 45.6484 C51.0301 49.3813 25.8059 49.3813 25.8059 45.6484 C25.8059 41.9346 51.0301 41.9346 51.0301 45.6484 z" stroke-width="0.2" stroke-linejoin="round" id="path12" xml:space="preserve" connector-curvature="0" style="fill:#666666;" />
    <path d="M139.945 44.8801 C139.945 51.3801 89.8354 51.3801 89.8354 44.8801 C89.8354 38.373 139.945 38.373 139.945 44.8801 z" stroke-width="0.2" stroke-linejoin="round" id="path14" xml:space="preserve" connector-curvature="0" style="fill:#3F3F3F;" />
    <path d="M134.739 45.365 C134.739 50.0596 90.4158 50.0525 90.4158 45.365 C90.4158 40.6619 134.739 40.6619 134.739 45.365 z" stroke-width="0.2" stroke-linejoin="round" id="path16" xml:space="preserve" connector-curvature="0" style="fill:#666666;" />
    <path d="M184.628 62.1249 L147.772 62.1249 C145.609 62.1249 145.388 56.2833 146.466 55.1895 C148.976 52.6316 167.127 55.1895 170.784 55.1895 L183.313 55.1895 C186.03 55.1895 184.628 59.9263 184.628 62.1249 z" stroke-width="0.2" stroke-linejoin="round" id="path18" xml:space="preserve" connector-curvature="0" style="fill:#C6C6C6;" />
    <path d="M179.261 50.8899 C179.261 53.821 38.83951 52.3342 24.2216 52.3342 C19.0493 52.3342 15.3586 49.4436 21.9824 49.4436 L155.462 49.4436 C157.536 49.4436 179.261 47.8323 179.261 50.8899 z" stroke-width="0.2" stroke-linejoin="round" id="path20" xml:space="preserve" connector-curvature="0" style="fill:#FFFFFF;" />
    <path d="M176.247 49.4648 L170.501 49.4648 C178.411 77.3446 185.588 131.596 149.404 143.856 C132.768 149.492 113.794 148.033 96.59029 146.801 C68.54419 144.783 36.76529 144.465 11.16689 131.907 C11.16689 142.571 9.522386 154.574 23.39318 154.574 L176.087 154.574 C188.547 154.574 185.402 137.211 185.402 129.252 L185.402 80.2563 C185.402 72.17191 189.439 49.4648 176.247 49.4648 z" stroke-width="0.2" stroke-linejoin="round" id="path22" xml:space="preserve" connector-curvature="0" style="fill:#8C8C8C;" />
    <path d="M188.907 61.3512 L61.8867 61.3512 C57.0595 61.3512 43.0365 64.0472 39.5033 59.8165 L166.775 59.8165 C170.017 59.8165 188.783 57.9774 188.907 61.3512 z" stroke-width="0.2" stroke-linejoin="round" id="path24" xml:space="preserve" connector-curvature="0" style="fill:#5E5D5D;" />
    <path d="M158.926 143.87 C158.926 152.928 144.855 152.942 144.855 143.87 C144.862 134.77 158.926 134.777 158.926 143.87 z" stroke-width="0.2" stroke-linejoin="round" id="path26" xml:space="preserve" connector-curvature="0" style="fill:#5E5D5D;" />
    <path d="M157.826 143.87 C157.826 151.517 145.94 151.517 145.94 143.87 C145.94 136.202 157.826 136.194 157.826 143.87 z" stroke-width="0.2" stroke-linejoin="round" id="path33" xml:space="preserve" connector-curvature="0" style="fill:url(#SVGID_Fill1_);" />
    <path d="M184.628 62.1249 L147.772 62.1249 C145.609 62.1249 145.388 56.2833 146.466 55.1895 C148.976 52.6316 167.127 55.1895 170.784 55.1895 L183.313 55.1895 C186.03 55.1895 184.628 59.9263 184.628 62.1249 z" stroke-width="0.2" stroke-linejoin="round" id="path35" xml:space="preserve" connector-curvature="0" style="fill:#5E5D5D;" />
    <path d="M181.738 61.3512 L150.863 61.3512 C148.733 61.3512 148.029 57.2847 149.356 55.9506 C151.374 53.9114 165.792 55.9506 168.697 55.9506 L180.229 55.9506 C183.003 55.9506 181.738 58.958 181.738 61.3512 z" stroke-width="0.2" stroke-linejoin="round" id="path37" xml:space="preserve" connector-curvature="0" style="fill:#FFFFFF;" />
    <path d="M116.547 150.12 C101.867 151.676 86.16409 146.173 77.3754 133.927 C94.35629 164.773 141.341 159.691 151.438 126.052 C145.407 139.866 131.227 148.559 116.547 150.12 z" stroke-width="0.2" stroke-linejoin="round" id="path39" xml:space="preserve" connector-curvature="0" style="fill:#3F3F3F;" />
    <path d="M154.631 110.12 C154.631 133.228 135.326 152.506 112.231 152.506 C89.12209 152.506 69.8311 133.228 69.8311 110.12 C69.8311 87.01121 89.1221 67.71331 112.231 67.71331 C135.333 67.71331 154.631 87.01121 154.631 110.12 z" stroke-width="0.2" stroke-linejoin="round" id="path41" xml:space="preserve" connector-curvature="0" style="fill:#C6C6C6;" />
    <path d="M154.631 110.12 C154.631 133.228 135.326 152.506 112.231 152.506 C89.12209 152.506 69.8311 133.228 69.8311 110.12 C69.8311 87.01121 89.1221 67.71331 112.231 67.71331 C135.333 67.71331 154.631 87.01121 154.631 110.12 z" stroke-width="0.2" stroke-linejoin="round" id="path43" xml:space="preserve" connector-curvature="0" style="fill:#5E5D5D;" />
    <path d="M148.333 110.12 C148.333 156.675 76.13099 156.675 76.13099 110.12 C76.13099 63.5356 148.333 63.5356 148.333 110.12 z" stroke-width="0.2" stroke-linejoin="round" id="path45" xml:space="preserve" connector-curvature="0" style="fill:#8C8C8C;" />
    <path d="M112.134 72.6696 C124.505 72.6696 137.836 77.8348 144.653 88.6504 C132.609 62.7408 91.6604 62.7479 79.6075 88.6504 C86.4261 77.8348 99.757 72.6696 112.134 72.6696 z" stroke-width="0.2" stroke-linejoin="round" id="path47" xml:space="preserve" connector-curvature="0" style="fill:#E5E5E5;" />
    <path d="M112.1 137.66 C100.38 137.779 90.1945 129.923 85.7411 119.352 C94.86259 148.378 129.573 148.012 138.098 118.804 C133.853 129.48 123.827 137.543 112.1 137.66 z" stroke-width="0.2" stroke-linejoin="round" id="path49" xml:space="preserve" connector-curvature="0" style="fill:#666666;" />
    <path d="M112.46 79.3146 C124.546 79.3146 137.788 84.49409 143.984 95.4264 C132.997 69.2479 91.94359 69.2549 80.95639 95.4264 C87.159 84.4941 100.38 79.3146 112.46 79.3146 z" stroke-width="0.2" stroke-linejoin="round" id="path51" xml:space="preserve" connector-curvature="0" style="fill:#FFFFFF;" />
    <path d="M139.98 110.106 C139.98 145.909 84.4754 145.904 84.4754 110.106 C84.4754 74.3158 139.98 74.3158 139.98 110.106 z" stroke-width="0.2" stroke-linejoin="round" id="path64" xml:space="preserve" connector-curvature="0" style="fill:url(#SVGID_Fill2_);" />
    <path d="M108.684 96.8373 C120.792 96.8373 130.368 107.451 129.283 119.421 C151.305 91.4579 95.51231 69.7379 92.43401 104.822 C96.34251 99.8661 102.35 96.8373 108.684 96.8373 z" stroke-width="0.2" stroke-linejoin="round" id="path66" xml:space="preserve" connector-curvature="0" style="fill:#5E5D5D;" />
    <path d="M110.454 130.649 C98.9216 129.751 86.4598 121.024 87.4563 108.26 C84.9534 140.427 134.137 144.236 136.64 112.083 C135.657 124.848 121.981 131.548 110.454 130.649 z" stroke-width="0.2" stroke-linejoin="round" id="path68" xml:space="preserve" connector-curvature="0" style="fill:#5E5D5D;" />
    <path d="M113.109 89.8594 C114.575 92.8739 102.379 98.703 100.932 95.66199 C99.5092 92.61189 111.684 86.8378 113.109 89.8594 z" stroke-width="0.2" stroke-linejoin="round" id="path70" xml:space="preserve" connector-curvature="0" style="fill:#383838;" />
    <path d="M127.023 97.963 C127.023 100.287 123.64 100.287 123.64 97.963 C123.64 95.6478 127.023 95.6478 127.023 97.963 z" stroke-width="0.2" stroke-linejoin="round" id="path72" xml:space="preserve" connector-curvature="0" style="fill:#E5E5E5;" />
    <path d="M122.257 92.5713 C122.257 96.2762 116.864 96.269 116.864 92.5713 C116.864 88.8716 122.257 88.86459 122.257 92.5713 z" stroke-width="0.2" stroke-linejoin="round" id="path74" xml:space="preserve" connector-curvature="0" style="fill:#E5E5E5;" />
    <path d="M100.601 59.8165 C100.601 70.7418 83.647 70.7472 83.647 59.8165 C83.647 48.863 100.601 48.8699 100.601 59.8165 z" stroke-width="0.2" stroke-linejoin="round" id="path76" xml:space="preserve" connector-curvature="0" style="fill:#383838;" />
    <path d="M117.57 59.8165 C117.57 67.7609 105.234 67.7609 105.234 59.8165 C105.234 51.844 117.57 51.8508 117.57 59.8165 z" stroke-width="0.2" stroke-linejoin="round" id="path78" xml:space="preserve" connector-curvature="0" style="fill:#383838;" />
    <path d="M91.2108 56.4762 C94.813 56.4762 97.2824 59.5262 97.1231 62.9551 C103.359 55.0371 87.4156 48.5657 86.543 58.7721 C87.7396 57.2847 89.2955 56.5171 91.2108 56.4762 z" stroke-width="0.2" stroke-linejoin="round" id="path80" xml:space="preserve" connector-curvature="0" style="fill:#5E5D5D;" />
    <path d="M110.364 57.8252 C113.04 57.8252 114.52 59.9883 114.555 62.4152 C119.014 56.6763 107.689 52.3821 107.066 59.4572 C107.91 58.4058 109.017 57.8588 110.364 57.8252 z" stroke-width="0.2" stroke-linejoin="round" id="path82" xml:space="preserve" connector-curvature="0" style="fill:#5E5D5D;" />
    <path d="M55.1159 111.075 C55.1159 123.63 53.4856 136.492 50.1719 148.628 C47.5928 158.038 37.5738 158.875 29.456 158.875 C22.6391 158.875 10.1579 161.302 5.925478 154.27 C3.548178 150.329 4.619118 143.684 4.619118 139.34 L4.619118 64.3109 C4.619118 62.7075 4.509368 60.9707 4.958988 59.4147 C5.746698 56.7118 8.021317 54.8867 10.6978 54.2424 C13.1795 53.6548 16.8579 55.5144 14.169 58.2821 C23.3295 58.2821 35.8249 55.5559 42.2275 63.6613 C51.6525 75.5956 55.1159 96.57359 55.1159 111.075 z" stroke-width="0.2" stroke-linejoin="round" id="path84" xml:space="preserve" connector-curvature="0" style="fill:#494848;" />
    <path d="M6.784 55.5559 C2.24005 59.436 4.04559 70.0215 4.04559 75.2222 L4.04559 111.136 C4.04559 122.019 -2.5234 159.456 15.2187 159.456 C24.1261 159.456 36.4745 161.467 44.5517 156.758 C55.7531 150.225 55.2894 125.692 55.6292 115.05 C56.1262 99.2428 52.3793 82.3929 45.6229 68.0513 C39.4059 54.9417 26.9052 57.7065 14.7974 57.7065 C15.5232 52.0298 10.8907 52.0364 6.784 55.5559 z M5.19971 149.589 L5.19971 66.0599 C5.19971 63.8065 4.88818 60.9229 5.78741 58.8058 C7.51685 54.7273 16.3605 52.1555 13.3388 58.7579 C23.7933 59.4625 36.3914 55.45309 43.0577 65.8174 C52.4822 80.4635 55.3106 102.017 54.2938 118.859 C53.5051 132.033 53.7759 155.901 36.6268 158.079 C28.5514 159.109 5.199711 161.821 5.199711 149.589 z" stroke-width="0.2" stroke-linejoin="round" id="path86" xml:space="preserve" connector-curvature="0" style="fill:#7C7C7C;" />
    <path d="M16.7552 155.59 C16.7552 159.725 7.316799 157.284 7.316799 152.687 L7.316799 78.6437 C7.316799 76.3427 5.518339 61.7461 8.049639 59.9263 C10.0888 58.4678 16.7552 61.808 16.7552 64.0065 C17.2792 65.1959 16.7552 67.8158 16.7552 69.0815 z" stroke-width="0.2" stroke-linejoin="round" id="path88" xml:space="preserve" connector-curvature="0" style="fill:#5E5D5D;" />
    <path d="M22.8817 53.814 C22.8817 59.5953 16.61 59.5953 16.61 53.814 C16.61 48.0398 22.8817 48.0398 22.8817 53.814 z" stroke-width="0.2" stroke-linejoin="round" id="path90" xml:space="preserve" connector-curvature="0" style="fill:#FFFFFF;" />
    <path d="M12.4821 152.901 C12.737 154.491 12.3015 155.778 11.1669 156.751 C8.78248 156.751 8.78248 62.54091 11.1669 62.54091 C13.8716 62.54091 12.4821 144.374 12.4821 152.901 z" stroke-width="0.2" stroke-linejoin="round" id="path92" xml:space="preserve" connector-curvature="0" style="fill:#C6C6C6;" />
    <path d="M11.2996 152.901 C11.4784 154.27 11.2784 155.556 10.6836 156.751 C9.57727 156.751 9.57727 62.54091 10.6836 62.54091 C11.9493 62.54091 11.2996 144.672 11.2996 152.901 z" stroke-width="0.2" stroke-linejoin="round" id="path94" xml:space="preserve" connector-curvature="0" style="fill:#E5E5E5;" />
    <path d="M53.5741 111.676 C53.5741 121.715 48.7965 138.483 36.1084 138.483 C23.4127 138.483 18.6351 121.715 18.6351 111.676 C18.6351 101.636 23.4127 84.8746 36.1084 84.8746 C48.7965 84.8746 53.5741 101.643 53.5741 111.676 z" stroke-width="0.2" stroke-linejoin="round" id="path96" xml:space="preserve" connector-curvature="0" style="fill:#5E5D5D;" />
    <path d="M53.8715 110.944 C53.8715 123.335 52.3163 136.002 49.1417 147.984 C46.8122 156.772 31.219 162.782 25.0731 154.353 C22.2656 150.508 23.3171 143.842 23.3171 139.39 L23.3171 110.646 C23.3171 97.00391 21.2142 81.52011 23.3171 68.01061 C23.3171 51.95361 41.0451 60.91591 44.6544 69.60011 C50.03379 82.53812 53.8715 96.87791 53.8715 110.944 z" stroke-width="0.2" stroke-linejoin="round" id="path98" xml:space="preserve" connector-curvature="0" style="fill:#383838;" />
    <path d="M52.7864 110.784 C52.7864 121.626 50.5525 132.481 46.4316 142.495 C45.7129 144.222 41.7991 155.126 39.1581 155.126 C35.7771 155.126 35.7771 62.99759 39.1581 62.99759 C41.7584 62.99759 45.789 75.62929 46.4316 77.35159 C50.3808 88.01319 52.7864 99.3951 52.7864 110.784 z" stroke-width="0.2" stroke-linejoin="round" id="path100" xml:space="preserve" connector-curvature="0" style="fill:#5E5D5D;" />
    <path d="M190.305 157.776 C190.305 155.652 44.0808 155.728 44.0808 157.776 C44.0808 160.679 190.305 160.803 190.305 157.776 z" stroke-width="0.2" stroke-linejoin="round" id="path102" xml:space="preserve" connector-curvature="0" style="fill:#666666;" />
  </g>
</svg>